#VRML V2.0 utf8

Shape {

appearance Appearance { material Material {
ambientIntensity 0.3
diffuseColor 0.97647 0.843137 0.172549
specularColor 0.2 0.2 0.2
shininess 0.3
} }

geometry IndexedFaceSet {

creaseAngle 0.5

coord Coordinate { point [
0 0 0,
0 0 1.2,
0.985443 1.14286 1.2,
0.985443 1.16339 1.2,
1.06798 1.17386 1.2,
1.06798 1.34513 1.2,
0.826957 1.64196 1.2,
0.826957 1.6625 1.2,
0.885466 1.63188 1.2,
0.976917 1.63188 1.2,
1.04667 1.64196 1.2,
1.04667 1.6625 1.2,
1.14277 1.17386 1.2,
1.22531 1.14286 1.2,
1.22531 1.16339 1.2,
1.14277 1.34746 1.2,
1.12611 1.39202 1.2,
1.20205 1.64196 1.2,
1.20205 1.6625 1.2,
1.26793 1.63188 1.2,
1.31404 1.63188 1.2,
1.371 1.64196 1.2,
1.371 1.6625 1.2,
1.40011 1.64196 1.2,
1.40011 1.6625 1.2,
1.45861 1.63188 1.2,
0.985443 1.14286 1.4,
0.985443 1.16339 1.4,
1.06798 1.17386 1.4,
1.06798 1.34513 1.4,
0.826957 1.64196 1.4,
0.826957 1.6625 1.4,
0.885466 1.63188 1.4,
0.976917 1.63188 1.4,
1.04667 1.64196 1.4,
1.04667 1.6625 1.4,
1.14277 1.17386 1.4,
1.22531 1.14286 1.4,
1.22531 1.16339 1.4,
1.14277 1.34746 1.4,
1.12611 1.39202 1.4,
1.20205 1.64196 1.4,
1.20205 1.6625 1.4,
1.26793 1.63188 1.4,
1.31404 1.63188 1.4,
1.371 1.64196 1.4,
1.371 1.6625 1.4,
1.40011 1.64196 1.4,
1.40011 1.6625 1.4,
1.45861 1.63188 1.4,
1.48865 3.68238 1.2,
1.48865 3.68238 1.4,
1.55859 1.14286 1.2,
1.55859 1.16339 1.2,
1.64113 1.17386 1.2,
1.64113 1.34513 1.2,
1.71592 1.17386 1.2,
1.79845 1.14286 1.2,
1.79845 1.16339 1.2,
1.71592 1.34746 1.2,
1.69925 1.39202 1.2,
1.55007 1.63188 1.2,
1.61981 1.64196 1.2,
1.61981 1.6625 1.2,
1.7752 1.64196 1.2,
1.7752 1.6625 1.2,
1.84108 1.63188 1.2,
2.1825 1.13085 1.2,
2.20304 1.13085 1.2,
2.21079 1.2657 1.2,
1.88719 1.63188 1.2,
1.94415 1.64196 1.2,
1.94415 1.6625 1.2,
1.96512 1.64196 1.2,
1.96512 1.6625 1.2,
2.01045 1.63188 1.2,
2.08718 1.63188 1.2,
2.16352 1.64196 1.2,
2.16352 1.6625 1.2,
1.55859 1.14286 1.4,
1.55859 1.16339 1.4,
1.64113 1.17386 1.4,
1.64113 1.34513 1.4,
1.71592 1.17386 1.4,
1.79845 1.14286 1.4,
1.79845 1.16339 1.4,
1.71592 1.34746 1.4,
1.69925 1.39202 1.4,
1.55007 1.63188 1.4,
1.61981 1.64196 1.4,
1.61981 1.6625 1.4,
1.7752 1.64196 1.4,
1.7752 1.6625 1.4,
1.84108 1.63188 1.4,
2.1825 1.13085 1.4,
2.20304 1.13085 1.4,
2.21079 1.2657 1.4,
1.88719 1.63188 1.4,
1.94415 1.64196 1.4,
1.94415 1.6625 1.4,
1.96512 1.64196 1.4,
1.96512 1.6625 1.4,
2.01045 1.63188 1.4,
2.08718 1.63188 1.4,
2.16352 1.64196 1.4,
2.16352 1.6625 1.4,
2.34138 1.4889 1.2,
2.47623 1.13085 1.2,
2.49676 1.13085 1.2,
2.50296 1.2657 1.2,
2.35068 1.62607 1.2,
2.36812 1.62607 1.2,
2.53978 1.64196 1.2,
2.53978 1.6625 1.2,
2.62076 1.63188 1.2,
2.93159 1.13085 1.2,
2.95213 1.13085 1.2,
2.95988 1.2657 1.2,
2.66649 1.63188 1.2,
2.71183 1.64196 1.2,
2.7142 1.64196 1.2,
2.71183 1.6625 1.2,
2.7142 1.6625 1.2,
2.75954 1.63188 1.2,
2.83627 1.63188 1.2,
2.9126 1.64196 1.2,
2.9126 1.6625 1.2,
2.34138 1.4889 1.4,
2.47623 1.13085 1.4,
2.49676 1.13085 1.4,
2.50296 1.2657 1.4,
2.35068 1.62607 1.4,
2.36812 1.62607 1.4,
2.53978 1.64196 1.4,
2.53978 1.6625 1.4,
2.62076 1.63188 1.4,
2.93159 1.13085 1.4,
2.95213 1.13085 1.4,
2.95988 1.2657 1.4,
2.66649 1.63188 1.4,
2.71183 1.64196 1.4,
2.7142 1.64196 1.4,
2.71183 1.6625 1.4,
2.7142 1.6625 1.4,
2.75954 1.63188 1.4,
2.83627 1.63188 1.4,
2.9126 1.64196 1.4,
2.9126 1.6625 1.4,
2.2358 2.28571 1.2,
2.2358 2.30625 1.2,
2.2358 2.78482 1.2,
2.2358 2.80535 1.2,
2.2358 2.28571 1.4,
2.2358 2.30625 1.4,
2.2358 2.78482 1.4,
2.2358 2.80535 1.4,
1.55918 3.4896 1.2,
1.64365 3.43802 1.2,
1.67625 3.46558 1.2,
1.75603 3.42082 1.2,
1.75681 3.45066 1.2,
1.79972 3.45332 1.2,
1.85087 3.42693 1.2,
1.84011 3.46131 1.2,
1.50628 3.57219 1.2,
1.5816 3.58338 1.2,
1.56964 3.68316 1.2,
1.6175 3.51033 1.2,
1.5056 3.80013 1.2,
1.58107 3.78991 1.2,
1.55646 3.88524 1.2,
1.61537 3.86451 1.2,
1.64065 3.93683 1.2,
1.67456 3.90839 1.2,
1.76068 3.92302 1.2,
1.75758 3.95402 1.2,
1.79754 3.92075 1.2,
1.83372 3.91391 1.2,
1.86739 3.90292 1.2,
1.84157 3.94908 1.2,
1.87518 3.47376 1.2,
1.90211 3.48979 1.2,
1.93931 3.44523 1.2,
2.01337 3.42857 1.2,
2.01337 3.44911 1.2,
2.07498 3.45957 1.2,
2.14977 3.45957 1.2,
2.2323 3.42857 1.2,
2.2323 3.44911 1.2,
1.91645 3.5673 1.2,
1.94164 3.5673 1.2,
1.90831 3.82072 1.2,
1.93389 3.82072 1.2,
1.89669 3.88815 1.2,
1.93157 3.93426 1.2,
2.00833 3.92767 1.2,
2.00833 3.94821 1.2,
2.14977 3.63239 1.2,
2.14977 3.66727 1.2,
2.19006 3.66727 1.2,
2.20827 3.63239 1.2,
2.24698 3.67473 1.2,
2.07498 3.91759 1.2,
2.14977 3.91333 1.2,
2.18774 3.91333 1.2,
2.24809 3.90645 1.2,
2.2044 3.94821 1.2,
1.55918 3.4896 1.4,
1.64365 3.43802 1.4,
1.67625 3.46558 1.4,
1.75603 3.42082 1.4,
1.75681 3.45066 1.4,
1.79972 3.45332 1.4,
1.85087 3.42693 1.4,
1.84011 3.46131 1.4,
1.50628 3.57219 1.4,
1.5816 3.58338 1.4,
1.56964 3.68316 1.4,
1.6175 3.51033 1.4,
1.5056 3.80013 1.4,
1.58107 3.78991 1.4,
1.55646 3.88524 1.4,
1.61537 3.86451 1.4,
1.64065 3.93683 1.4,
1.67456 3.90839 1.4,
1.76068 3.92302 1.4,
1.75758 3.95402 1.4,
1.79754 3.92075 1.4,
1.83372 3.91391 1.4,
1.86739 3.90292 1.4,
1.84157 3.94908 1.4,
1.87518 3.47376 1.4,
1.90211 3.48979 1.4,
1.93931 3.44523 1.4,
2.01337 3.42857 1.4,
2.01337 3.44911 1.4,
2.07498 3.45957 1.4,
2.14977 3.45957 1.4,
2.2323 3.42857 1.4,
2.2323 3.44911 1.4,
1.91645 3.5673 1.4,
1.94164 3.5673 1.4,
1.90831 3.82072 1.4,
1.93389 3.82072 1.4,
1.89669 3.88815 1.4,
1.93157 3.93426 1.4,
2.00833 3.92767 1.4,
2.00833 3.94821 1.4,
2.14977 3.63239 1.4,
2.14977 3.66727 1.4,
2.19006 3.66727 1.4,
2.20827 3.63239 1.4,
2.24698 3.67473 1.4,
2.07498 3.91759 1.4,
2.14977 3.91333 1.4,
2.18774 3.91333 1.4,
2.24809 3.90645 1.4,
2.2044 3.94821 1.4,
2.30245 2.31671 1.2,
2.37685 2.31671 1.2,
2.4435 2.28571 1.2,
2.4435 2.30625 1.2,
2.50009 2.28571 1.2,
2.50009 2.30625 1.2,
2.56674 2.31671 1.2,
2.30245 2.77474 1.2,
2.37685 2.77474 1.2,
2.4435 2.78482 1.2,
2.4435 2.80535 1.2,
2.50009 2.78482 1.2,
2.50009 2.80535 1.2,
2.56674 2.77474 1.2,
2.64114 2.31671 1.2,
2.70779 2.28571 1.2,
2.70779 2.30625 1.2,
2.76438 2.28571 1.2,
2.76438 2.30625 1.2,
2.83103 2.31671 1.2,
2.90543 2.31671 1.2,
2.97209 2.28571 1.2,
2.97209 2.30625 1.2,
2.64114 2.77474 1.2,
2.70779 2.78482 1.2,
2.70779 2.80535 1.2,
2.76438 2.78482 1.2,
2.76438 2.80535 1.2,
2.83103 2.77474 1.2,
2.90543 2.77474 1.2,
2.97209 2.78482 1.2,
2.97209 2.80535 1.2,
2.30245 2.31671 1.4,
2.37685 2.31671 1.4,
2.4435 2.28571 1.4,
2.4435 2.30625 1.4,
2.50009 2.28571 1.4,
2.50009 2.30625 1.4,
2.56674 2.31671 1.4,
2.30245 2.77474 1.4,
2.37685 2.77474 1.4,
2.4435 2.78482 1.4,
2.4435 2.80535 1.4,
2.50009 2.78482 1.4,
2.50009 2.80535 1.4,
2.56674 2.77474 1.4,
2.64114 2.31671 1.4,
2.70779 2.28571 1.4,
2.70779 2.30625 1.4,
2.76438 2.28571 1.4,
2.76438 2.30625 1.4,
2.83103 2.31671 1.4,
2.90543 2.31671 1.4,
2.97209 2.28571 1.4,
2.97209 2.30625 1.4,
2.64114 2.77474 1.4,
2.70779 2.78482 1.4,
2.70779 2.80535 1.4,
2.76438 2.78482 1.4,
2.76438 2.80535 1.4,
2.83103 2.77474 1.4,
2.90543 2.77474 1.4,
2.97209 2.78482 1.4,
2.97209 2.80535 1.4,
2.44971 3.42857 1.2,
2.44971 3.44911 1.2,
2.51637 3.45957 1.2,
2.55705 3.45957 1.2,
2.28805 3.64276 1.2,
2.28674 3.69711 1.2,
2.31014 3.73634 1.2,
2.34681 3.67386 1.2,
2.38299 3.72491 1.2,
2.31794 3.79437 1.2,
2.31048 3.8492 1.2,
2.2881 3.88582 1.2,
2.39505 3.79515 1.2,
2.34739 3.90995 1.2,
2.44971 3.92767 1.2,
2.44971 3.94821 1.2,
2.51637 3.91759 1.2,
2.55705 3.8959 1.2,
2.60704 3.94821 1.2,
2.6268 3.42857 1.2,
2.6268 3.44911 1.2,
2.87751 3.42857 1.2,
2.9151 3.42857 1.2,
2.80466 3.92767 1.2,
2.80466 3.94821 1.2,
2.87441 3.56342 1.2,
2.87441 3.91759 1.2,
2.9151 3.91759 1.2,
2.98175 3.92767 1.2,
2.98175 3.94821 1.2,
2.44971 3.42857 1.4,
2.44971 3.44911 1.4,
2.51637 3.45957 1.4,
2.55705 3.45957 1.4,
2.28805 3.64276 1.4,
2.28674 3.69711 1.4,
2.31014 3.73634 1.4,
2.34681 3.67386 1.4,
2.38299 3.72491 1.4,
2.31794 3.79437 1.4,
2.31048 3.8492 1.4,
2.2881 3.88582 1.4,
2.39505 3.79515 1.4,
2.34739 3.90995 1.4,
2.44971 3.92767 1.4,
2.44971 3.94821 1.4,
2.51637 3.91759 1.4,
2.55705 3.8959 1.4,
2.60704 3.94821 1.4,
2.6268 3.42857 1.4,
2.6268 3.44911 1.4,
2.87751 3.42857 1.4,
2.9151 3.42857 1.4,
2.80466 3.92767 1.4,
2.80466 3.94821 1.4,
2.87441 3.56342 1.4,
2.87441 3.91759 1.4,
2.9151 3.91759 1.4,
2.98175 3.92767 1.4,
2.98175 3.94821 1.4,
0 8 0,
0.401638 5.71429 1.2,
0.401638 5.75125 1.2,
0.521611 5.77009 1.2,
0.720393 5.71429 1.2,
0.594845 5.77009 1.2,
0.720393 5.75125 1.2,
0.401638 5.71429 1.4,
0.401638 5.75125 1.4,
0.521611 5.77009 1.4,
0.720393 5.71429 1.4,
0.594845 5.77009 1.4,
0.720393 5.75125 1.4,
1.48865 4.82524 1.2,
1.48865 4.82524 1.4,
0.937318 5.71429 1.2,
0.961726 5.71429 1.2,
0.988932 5.93819 1.2,
1.20934 5.71429 1.2,
1.20934 5.75125 1.2,
1.33489 5.77009 1.2,
1.46881 5.77009 1.2,
0.937318 5.71429 1.4,
0.961726 5.71429 1.4,
0.988932 5.93819 1.4,
1.20934 5.71429 1.4,
1.20934 5.75125 1.4,
1.33489 5.77009 1.4,
1.46881 5.77009 1.4,
0.401638 6.61267 1.2,
0.401638 6.64964 1.2,
0.521611 6.59453 1.2,
0.550451 6.93779 1.2,
0.594845 6.51851 1.2,
0.684825 6.64964 1.2,
0.59556 6.86933 1.2,
0.663356 6.82225 1.2,
0.7464 6.80656 1.2,
0.401638 6.61267 1.4,
0.401638 6.64964 1.4,
0.521611 6.59453 1.4,
0.550451 6.93779 1.4,
0.594845 6.51851 1.4,
0.684825 6.64964 1.4,
0.59556 6.86933 1.4,
0.663356 6.82225 1.4,
0.7464 6.80656 1.4,
0 8 1.2,
0.535414 7.01757 1.2,
0.550669 7.09952 1.2,
0.596434 7.16751 1.2,
0.664449 7.2133 1.2,
0.7464 7.22856 1.2,
0.535414 7.01757 1.4,
0.550669 7.09952 1.4,
0.596434 7.16751 1.4,
0.664449 7.2133 1.4,
0.7464 7.22856 1.4,
0.829438 6.82225 1.2,
0.897214 6.86933 1.2,
0.942343 6.93779 1.2,
1.33489 6.51851 1.2,
1.32094 6.64964 1.2,
1.46881 6.59453 1.2,
0.829438 6.82225 1.4,
0.897214 6.86933 1.4,
0.942343 6.93779 1.4,
1.33489 6.51851 1.4,
1.32094 6.64964 1.4,
1.46881 6.59453 1.4,
0.828345 7.2133 1.2,
0.89634 7.16751 1.2,
0.957386 7.01757 1.2,
0.942124 7.09952 1.2,
0.828345 7.2133 1.4,
0.89634 7.16751 1.4,
0.957386 7.01757 1.4,
0.942124 7.09952 1.4,
1.50628 4.71504 1.2,
1.55918 4.63246 1.2,
1.5816 4.72624 1.2,
1.64365 4.58087 1.2,
1.67625 4.60843 1.2,
1.6175 4.65319 1.2,
1.56964 4.82602 1.2,
1.5056 4.94299 1.2,
1.58107 4.93277 1.2,
1.75603 4.56368 1.2,
1.75681 4.59351 1.2,
1.79972 4.59618 1.2,
1.85087 4.56978 1.2,
1.84011 4.60417 1.2,
1.87518 4.61662 1.2,
1.93931 4.58809 1.2,
1.90211 4.63265 1.2,
1.91645 4.71015 1.2,
1.94164 4.71015 1.2,
2.01337 4.57143 1.2,
2.01337 4.59197 1.2,
1.90831 4.96358 1.2,
1.93389 4.96358 1.2,
2.07498 4.60243 1.2,
2.14977 4.60243 1.2,
2.2323 4.57143 1.2,
2.2323 4.59197 1.2,
2.14977 4.77525 1.2,
2.14977 4.81013 1.2,
2.19006 4.81013 1.2,
2.20827 4.77525 1.2,
2.24698 4.81759 1.2,
1.50628 4.71504 1.4,
1.55918 4.63246 1.4,
1.5816 4.72624 1.4,
1.64365 4.58087 1.4,
1.67625 4.60843 1.4,
1.6175 4.65319 1.4,
1.56964 4.82602 1.4,
1.5056 4.94299 1.4,
1.58107 4.93277 1.4,
1.75603 4.56368 1.4,
1.75681 4.59351 1.4,
1.79972 4.59618 1.4,
1.85087 4.56978 1.4,
1.84011 4.60417 1.4,
1.87518 4.61662 1.4,
1.93931 4.58809 1.4,
1.90211 4.63265 1.4,
1.91645 4.71015 1.4,
1.94164 4.71015 1.4,
2.01337 4.57143 1.4,
2.01337 4.59197 1.4,
1.90831 4.96358 1.4,
1.93389 4.96358 1.4,
2.07498 4.60243 1.4,
2.14977 4.60243 1.4,
2.2323 4.57143 1.4,
2.2323 4.59197 1.4,
2.14977 4.77525 1.4,
2.14977 4.81013 1.4,
2.19006 4.81013 1.4,
2.20827 4.77525 1.4,
2.24698 4.81759 1.4,
1.55646 5.0281 1.2,
1.61537 5.00737 1.2,
1.67456 5.05125 1.2,
1.64065 5.07968 1.2,
1.75758 5.09688 1.2,
1.76068 5.06588 1.2,
1.79754 5.0636 1.2,
1.83372 5.05677 1.2,
1.86739 5.04578 1.2,
1.84157 5.09194 1.2,
1.58878 5.71429 1.2,
1.58878 5.75125 1.2,
1.89669 5.03101 1.2,
1.93157 5.07711 1.2,
2.00833 5.07053 1.2,
2.00833 5.09107 1.2,
2.07498 5.06045 1.2,
2.14977 5.05619 1.2,
2.18774 5.05619 1.2,
2.24809 5.04931 1.2,
2.2044 5.09107 1.2,
2.03809 5.71429 1.2,
2.03809 5.75125 1.2,
2.14899 5.77009 1.2,
1.55646 5.0281 1.4,
1.61537 5.00737 1.4,
1.67456 5.05125 1.4,
1.64065 5.07968 1.4,
1.75758 5.09688 1.4,
1.76068 5.06588 1.4,
1.79754 5.0636 1.4,
1.83372 5.05677 1.4,
1.86739 5.04578 1.4,
1.84157 5.09194 1.4,
1.58878 5.71429 1.4,
1.58878 5.75125 1.4,
1.89669 5.03101 1.4,
1.93157 5.07711 1.4,
2.00833 5.07053 1.4,
2.00833 5.09107 1.4,
2.07498 5.06045 1.4,
2.14977 5.05619 1.4,
2.18774 5.05619 1.4,
2.24809 5.04931 1.4,
2.2044 5.09107 1.4,
2.03809 5.71429 1.4,
2.03809 5.75125 1.4,
2.14899 5.77009 1.4,
2.28805 4.78562 1.2,
2.28674 4.83997 1.2,
2.31014 4.8792 1.2,
2.31794 4.93723 1.2,
2.31048 4.99206 1.2,
2.34681 4.81671 1.2,
2.38299 4.86777 1.2,
2.39505 4.93801 1.2,
2.44971 4.57143 1.2,
2.44971 4.59197 1.2,
2.51637 4.60243 1.2,
2.55705 4.60243 1.2,
2.6268 4.57143 1.2,
2.6268 4.59197 1.2,
2.87751 4.57143 1.2,
2.87441 4.70628 1.2,
2.9151 4.57143 1.2,
2.28805 4.78562 1.4,
2.28674 4.83997 1.4,
2.31014 4.8792 1.4,
2.31794 4.93723 1.4,
2.31048 4.99206 1.4,
2.34681 4.81671 1.4,
2.38299 4.86777 1.4,
2.39505 4.93801 1.4,
2.44971 4.57143 1.4,
2.44971 4.59197 1.4,
2.51637 4.60243 1.4,
2.55705 4.60243 1.4,
2.6268 4.57143 1.4,
2.6268 4.59197 1.4,
2.87751 4.57143 1.4,
2.87441 4.70628 1.4,
2.9151 4.57143 1.4,
2.2881 5.02867 1.2,
2.34739 5.0528 1.2,
2.44971 5.07053 1.2,
2.44971 5.09107 1.2,
2.51637 5.06045 1.2,
2.55705 5.03875 1.2,
2.60704 5.09107 1.2,
2.43217 5.71429 1.2,
2.28361 5.77009 1.2,
2.43217 5.75125 1.2,
2.80466 5.07053 1.2,
2.80466 5.09107 1.2,
2.87441 5.06045 1.2,
2.9151 5.06045 1.2,
2.98175 5.07053 1.2,
2.98175 5.09107 1.2,
2.83397 5.71429 1.2,
2.83397 5.75125 1.2,
2.95395 5.77009 1.2,
2.2881 5.02867 1.4,
2.34739 5.0528 1.4,
2.44971 5.07053 1.4,
2.44971 5.09107 1.4,
2.51637 5.06045 1.4,
2.55705 5.03875 1.4,
2.60704 5.09107 1.4,
2.43217 5.71429 1.4,
2.28361 5.77009 1.4,
2.43217 5.75125 1.4,
2.80466 5.07053 1.4,
2.80466 5.09107 1.4,
2.87441 5.06045 1.4,
2.9151 5.06045 1.4,
2.98175 5.07053 1.4,
2.98175 5.09107 1.4,
2.83397 5.71429 1.4,
2.83397 5.75125 1.4,
2.95395 5.77009 1.4,
1.58878 6.61267 1.2,
1.58878 6.64964 1.2,
2.02901 6.61267 1.2,
2.02901 6.64964 1.2,
2.14899 6.59453 1.2,
1.58878 6.61267 1.4,
1.58878 6.64964 1.4,
2.02901 6.61267 1.4,
2.02901 6.64964 1.4,
2.14899 6.59453 1.4,
2.28361 6.08117 1.2,
2.28361 6.14395 1.2,
2.38892 6.08117 1.2,
2.35614 6.14395 1.2,
2.45858 6.15738 1.2,
2.53016 6.19765 1.2,
2.53252 6.09983 1.2,
2.57228 6.26828 1.2,
2.58631 6.37273 1.2,
2.57289 6.47142 1.2,
2.28361 6.58685 1.2,
2.35195 6.58685 1.2,
2.38195 6.64964 1.2,
2.46059 6.57447 1.2,
2.5326 6.53733 1.2,
2.63828 6.1558 1.2,
2.70341 6.2477 1.2,
2.72512 6.37412 1.2,
2.63933 6.58076 1.2,
2.83397 6.61267 1.2,
2.83397 6.64964 1.2,
2.95395 6.59453 1.2,
2.28361 6.08117 1.4,
2.28361 6.14395 1.4,
2.38892 6.08117 1.4,
2.35614 6.14395 1.4,
2.45858 6.15738 1.4,
2.53016 6.19765 1.4,
2.53252 6.09983 1.4,
2.57228 6.26828 1.4,
2.58631 6.37273 1.4,
2.57289 6.47142 1.4,
2.28361 6.58685 1.4,
2.35195 6.58685 1.4,
2.38195 6.64964 1.4,
2.46059 6.57447 1.4,
2.5326 6.53733 1.4,
2.63828 6.1558 1.4,
2.70341 6.2477 1.4,
2.72512 6.37412 1.4,
2.63933 6.58076 1.4,
2.83397 6.61267 1.4,
2.83397 6.64964 1.4,
2.95395 6.59453 1.4,
6 0 0,
3.09047 1.4889 1.2,
3.22531 1.13085 1.2,
3.24585 1.13085 1.2,
3.25205 1.2657 1.2,
3.09976 1.62607 1.2,
3.1172 1.62607 1.2,
3.28887 1.64196 1.2,
3.28887 1.6625 1.2,
3.36985 1.63188 1.2,
3.48537 1.14286 1.2,
3.48537 1.16339 1.2,
3.55203 1.17386 1.2,
3.59271 1.17386 1.2,
3.66246 1.14286 1.2,
3.66246 1.16339 1.2,
3.41557 1.63188 1.2,
3.46091 1.64196 1.2,
3.46091 1.6625 1.2,
3.48537 1.64196 1.2,
3.48537 1.6625 1.2,
3.55203 1.63188 1.2,
3.59271 1.61018 1.2,
3.6427 1.6625 1.2,
3.09047 1.4889 1.4,
3.22531 1.13085 1.4,
3.24585 1.13085 1.4,
3.25205 1.2657 1.4,
3.09976 1.62607 1.4,
3.1172 1.62607 1.4,
3.28887 1.64196 1.4,
3.28887 1.6625 1.4,
3.36985 1.63188 1.4,
3.48537 1.14286 1.4,
3.48537 1.16339 1.4,
3.55203 1.17386 1.4,
3.59271 1.17386 1.4,
3.66246 1.14286 1.4,
3.66246 1.16339 1.4,
3.41557 1.63188 1.4,
3.46091 1.64196 1.4,
3.46091 1.6625 1.4,
3.48537 1.64196 1.4,
3.48537 1.6625 1.4,
3.55203 1.63188 1.4,
3.59271 1.61018 1.4,
3.6427 1.6625 1.4,
3.91317 1.14286 1.2,
3.91007 1.27771 1.2,
3.95076 1.14286 1.2,
4.05852 1.14286 1.2,
4.05852 1.16339 1.2,
3.84032 1.64196 1.2,
3.84032 1.6625 1.2,
3.91007 1.63188 1.2,
3.95076 1.63188 1.2,
4.01741 1.64196 1.2,
4.01741 1.6625 1.2,
4.05852 1.64196 1.2,
4.05852 1.6625 1.2,
4.12517 1.17386 1.2,
4.16586 1.17386 1.2,
4.23561 1.14286 1.2,
4.23561 1.16339 1.2,
4.48632 1.14286 1.2,
4.48322 1.27771 1.2,
4.16586 1.61018 1.2,
4.12517 1.63188 1.2,
4.21585 1.6625 1.2,
4.41347 1.64196 1.2,
4.41347 1.6625 1.2,
4.48322 1.63188 1.2,
3.91317 1.14286 1.4,
3.91007 1.27771 1.4,
3.95076 1.14286 1.4,
4.05852 1.14286 1.4,
4.05852 1.16339 1.4,
3.84032 1.64196 1.4,
3.84032 1.6625 1.4,
3.91007 1.63188 1.4,
3.95076 1.63188 1.4,
4.01741 1.64196 1.4,
4.01741 1.6625 1.4,
4.05852 1.64196 1.4,
4.05852 1.6625 1.4,
4.12517 1.17386 1.4,
4.16586 1.17386 1.4,
4.23561 1.14286 1.4,
4.23561 1.16339 1.4,
4.48632 1.14286 1.4,
4.48322 1.27771 1.4,
4.16586 1.61018 1.4,
4.12517 1.63188 1.4,
4.21585 1.6625 1.4,
4.41347 1.64196 1.4,
4.41347 1.6625 1.4,
4.48322 1.63188 1.4,
3.02867 2.28571 1.2,
3.02867 2.30625 1.2,
3.09533 2.31671 1.2,
3.16973 2.31671 1.2,
3.23638 2.28571 1.2,
3.23638 2.30625 1.2,
3.29297 2.28571 1.2,
3.29297 2.30625 1.2,
3.35962 2.31671 1.2,
3.02867 2.78482 1.2,
3.02867 2.80535 1.2,
3.09533 2.77474 1.2,
3.16973 2.77474 1.2,
3.23638 2.78482 1.2,
3.23638 2.80535 1.2,
3.29297 2.78482 1.2,
3.29297 2.80535 1.2,
3.35962 2.77474 1.2,
3.43402 2.31671 1.2,
3.50067 2.28571 1.2,
3.50067 2.30625 1.2,
3.55726 2.28571 1.2,
3.55726 2.30625 1.2,
3.62391 2.31671 1.2,
3.69831 2.31671 1.2,
3.43402 2.77474 1.2,
3.50067 2.78482 1.2,
3.50067 2.80535 1.2,
3.55726 2.78482 1.2,
3.55726 2.80535 1.2,
3.62391 2.77474 1.2,
3.69831 2.77474 1.2,
3.02867 2.28571 1.4,
3.02867 2.30625 1.4,
3.09533 2.31671 1.4,
3.16973 2.31671 1.4,
3.23638 2.28571 1.4,
3.23638 2.30625 1.4,
3.29297 2.28571 1.4,
3.29297 2.30625 1.4,
3.35962 2.31671 1.4,
3.02867 2.78482 1.4,
3.02867 2.80535 1.4,
3.09533 2.77474 1.4,
3.16973 2.77474 1.4,
3.23638 2.78482 1.4,
3.23638 2.80535 1.4,
3.29297 2.78482 1.4,
3.29297 2.80535 1.4,
3.35962 2.77474 1.4,
3.43402 2.31671 1.4,
3.50067 2.28571 1.4,
3.50067 2.30625 1.4,
3.55726 2.28571 1.4,
3.55726 2.30625 1.4,
3.62391 2.31671 1.4,
3.69831 2.31671 1.4,
3.43402 2.77474 1.4,
3.50067 2.78482 1.4,
3.50067 2.80535 1.4,
3.55726 2.78482 1.4,
3.55726 2.80535 1.4,
3.62391 2.77474 1.4,
3.69831 2.77474 1.4,
3.10307 3.4896 1.2,
3.18755 3.43802 1.2,
3.22015 3.46558 1.2,
3.29993 3.42082 1.2,
3.3007 3.45066 1.2,
3.34362 3.45332 1.2,
3.05018 3.57219 1.2,
3.03255 3.68238 1.2,
3.1255 3.58338 1.2,
3.16139 3.51033 1.2,
3.11354 3.68316 1.2,
3.0495 3.80013 1.2,
3.12497 3.78991 1.2,
3.15926 3.86451 1.2,
3.10036 3.88524 1.2,
3.18455 3.93683 1.2,
3.21845 3.90839 1.2,
3.30458 3.92302 1.2,
3.30147 3.95402 1.2,
3.34144 3.92075 1.2,
3.39476 3.42693 1.2,
3.38401 3.46131 1.2,
3.41908 3.47376 1.2,
3.44601 3.48979 1.2,
3.48321 3.44523 1.2,
3.55726 3.42857 1.2,
3.55726 3.44911 1.2,
3.61887 3.45957 1.2,
3.69366 3.45957 1.2,
3.46035 3.5673 1.2,
3.48554 3.5673 1.2,
3.45221 3.82072 1.2,
3.37762 3.91391 1.2,
3.41128 3.90292 1.2,
3.38547 3.94908 1.2,
3.44059 3.88815 1.2,
3.47779 3.82072 1.2,
3.47546 3.93426 1.2,
3.55222 3.92767 1.2,
3.55222 3.94821 1.2,
3.69366 3.63239 1.2,
3.69366 3.66727 1.2,
3.73396 3.66727 1.2,
3.61887 3.91759 1.2,
3.69366 3.91333 1.2,
3.73163 3.91333 1.2,
3.7483 3.94821 1.2,
3.10307 3.4896 1.4,
3.18755 3.43802 1.4,
3.22015 3.46558 1.4,
3.29993 3.42082 1.4,
3.3007 3.45066 1.4,
3.34362 3.45332 1.4,
3.05018 3.57219 1.4,
3.03255 3.68238 1.4,
3.1255 3.58338 1.4,
3.16139 3.51033 1.4,
3.11354 3.68316 1.4,
3.0495 3.80013 1.4,
3.12497 3.78991 1.4,
3.15926 3.86451 1.4,
3.10036 3.88524 1.4,
3.18455 3.93683 1.4,
3.21845 3.90839 1.4,
3.30458 3.92302 1.4,
3.30147 3.95402 1.4,
3.34144 3.92075 1.4,
3.39476 3.42693 1.4,
3.38401 3.46131 1.4,
3.41908 3.47376 1.4,
3.44601 3.48979 1.4,
3.48321 3.44523 1.4,
3.55726 3.42857 1.4,
3.55726 3.44911 1.4,
3.61887 3.45957 1.4,
3.69366 3.45957 1.4,
3.46035 3.5673 1.4,
3.48554 3.5673 1.4,
3.45221 3.82072 1.4,
3.37762 3.91391 1.4,
3.41128 3.90292 1.4,
3.38547 3.94908 1.4,
3.44059 3.88815 1.4,
3.47779 3.82072 1.4,
3.47546 3.93426 1.4,
3.55222 3.92767 1.4,
3.55222 3.94821 1.4,
3.69366 3.63239 1.4,
3.69366 3.66727 1.4,
3.73396 3.66727 1.4,
3.61887 3.91759 1.4,
3.69366 3.91333 1.4,
3.73163 3.91333 1.4,
3.7483 3.94821 1.4,
3.76496 2.28571 1.2,
3.76496 2.30625 1.2,
3.76496 2.78482 1.2,
3.76496 2.80535 1.2,
3.76496 2.28571 1.4,
3.76496 2.30625 1.4,
3.76496 2.78482 1.4,
3.76496 2.80535 1.4,
3.7762 3.42857 1.2,
3.7762 3.44911 1.2,
3.99361 3.42857 1.2,
3.99361 3.44911 1.2,
4.06026 3.45957 1.2,
4.10095 3.45957 1.2,
3.75217 3.63239 1.2,
3.79087 3.67473 1.2,
3.83195 3.64276 1.2,
3.83064 3.69711 1.2,
3.85404 3.73634 1.2,
3.8907 3.67386 1.2,
3.92689 3.72491 1.2,
3.79199 3.90645 1.2,
3.83199 3.88582 1.2,
3.86183 3.79437 1.2,
3.85437 3.8492 1.2,
3.89129 3.90995 1.2,
3.93895 3.79515 1.2,
3.99361 3.92767 1.2,
3.99361 3.94821 1.2,
4.06026 3.91759 1.2,
4.10095 3.8959 1.2,
4.1707 3.42857 1.2,
4.1707 3.44911 1.2,
4.42141 3.42857 1.2,
4.459 3.42857 1.2,
4.15094 3.94821 1.2,
4.41831 3.56342 1.2,
4.34856 3.92767 1.2,
4.34856 3.94821 1.2,
4.41831 3.91759 1.2,
4.459 3.91759 1.2,
3.7762 3.42857 1.4,
3.7762 3.44911 1.4,
3.99361 3.42857 1.4,
3.99361 3.44911 1.4,
4.06026 3.45957 1.4,
4.10095 3.45957 1.4,
3.75217 3.63239 1.4,
3.79087 3.67473 1.4,
3.83195 3.64276 1.4,
3.83064 3.69711 1.4,
3.85404 3.73634 1.4,
3.8907 3.67386 1.4,
3.92689 3.72491 1.4,
3.79199 3.90645 1.4,
3.83199 3.88582 1.4,
3.86183 3.79437 1.4,
3.85437 3.8492 1.4,
3.89129 3.90995 1.4,
3.93895 3.79515 1.4,
3.99361 3.92767 1.4,
3.99361 3.94821 1.4,
4.06026 3.91759 1.4,
4.10095 3.8959 1.4,
4.1707 3.42857 1.4,
4.1707 3.44911 1.4,
4.42141 3.42857 1.4,
4.459 3.42857 1.4,
4.15094 3.94821 1.4,
4.41831 3.56342 1.4,
4.34856 3.92767 1.4,
4.34856 3.94821 1.4,
4.41831 3.91759 1.4,
4.459 3.91759 1.4,
4.52391 1.14286 1.2,
4.63167 1.14286 1.2,
4.63167 1.16339 1.2,
4.69832 1.17386 1.2,
4.73901 1.17386 1.2,
4.80876 1.14286 1.2,
4.80876 1.16339 1.2,
4.52391 1.63188 1.2,
4.59056 1.64196 1.2,
4.59056 1.6625 1.2,
4.63167 1.64196 1.2,
4.63167 1.6625 1.2,
4.73901 1.61018 1.2,
4.69832 1.63188 1.2,
4.789 1.6625 1.2,
5.05947 1.14286 1.2,
5.05637 1.27771 1.2,
5.09706 1.14286 1.2,
4.98662 1.64196 1.2,
4.98662 1.6625 1.2,
5.05637 1.63188 1.2,
5.09706 1.63188 1.2,
5.16371 1.64196 1.2,
5.16371 1.6625 1.2,
4.52391 1.14286 1.4,
4.63167 1.14286 1.4,
4.63167 1.16339 1.4,
4.69832 1.17386 1.4,
4.73901 1.17386 1.4,
4.80876 1.14286 1.4,
4.80876 1.16339 1.4,
4.52391 1.63188 1.4,
4.59056 1.64196 1.4,
4.59056 1.6625 1.4,
4.63167 1.64196 1.4,
4.63167 1.6625 1.4,
4.73901 1.61018 1.4,
4.69832 1.63188 1.4,
4.789 1.6625 1.4,
5.05947 1.14286 1.4,
5.05637 1.27771 1.4,
5.09706 1.14286 1.4,
4.98662 1.64196 1.4,
4.98662 1.6625 1.4,
5.05637 1.63188 1.4,
5.09706 1.63188 1.4,
5.16371 1.64196 1.4,
5.16371 1.6625 1.4,
6 0 1.2,
4.52565 3.92767 1.2,
4.52565 3.94821 1.2,
4.52565 3.92767 1.4,
4.52565 3.94821 1.4,
6 8 0,
3.05018 4.71504 1.2,
3.10307 4.63246 1.2,
3.1255 4.72624 1.2,
3.16139 4.65319 1.2,
3.03255 4.82524 1.2,
3.0495 4.94299 1.2,
3.11354 4.82602 1.2,
3.12497 4.93277 1.2,
3.18755 4.58087 1.2,
3.22015 4.60843 1.2,
3.29993 4.56368 1.2,
3.3007 4.59351 1.2,
3.34362 4.59618 1.2,
3.39476 4.56978 1.2,
3.38401 4.60417 1.2,
3.41908 4.61662 1.2,
3.44601 4.63265 1.2,
3.46035 4.71015 1.2,
3.48321 4.58809 1.2,
3.55726 4.57143 1.2,
3.55726 4.59197 1.2,
3.48554 4.71015 1.2,
3.45221 4.96358 1.2,
3.47779 4.96358 1.2,
3.61887 4.60243 1.2,
3.69366 4.60243 1.2,
3.69366 4.77525 1.2,
3.69366 4.81013 1.2,
3.73396 4.81013 1.2,
3.05018 4.71504 1.4,
3.10307 4.63246 1.4,
3.1255 4.72624 1.4,
3.16139 4.65319 1.4,
3.03255 4.82524 1.4,
3.0495 4.94299 1.4,
3.11354 4.82602 1.4,
3.12497 4.93277 1.4,
3.18755 4.58087 1.4,
3.22015 4.60843 1.4,
3.29993 4.56368 1.4,
3.3007 4.59351 1.4,
3.34362 4.59618 1.4,
3.39476 4.56978 1.4,
3.38401 4.60417 1.4,
3.41908 4.61662 1.4,
3.44601 4.63265 1.4,
3.46035 4.71015 1.4,
3.48321 4.58809 1.4,
3.55726 4.57143 1.4,
3.55726 4.59197 1.4,
3.48554 4.71015 1.4,
3.45221 4.96358 1.4,
3.47779 4.96358 1.4,
3.61887 4.60243 1.4,
3.69366 4.60243 1.4,
3.69366 4.77525 1.4,
3.69366 4.81013 1.4,
3.73396 4.81013 1.4,
3.10036 5.0281 1.2,
3.15926 5.00737 1.2,
3.18455 5.07968 1.2,
3.21845 5.05125 1.2,
3.30458 5.06588 1.2,
3.30147 5.09688 1.2,
3.34144 5.0636 1.2,
3.08787 5.77009 1.2,
3.20784 5.71429 1.2,
3.20784 5.75125 1.2,
3.34841 5.97279 1.2,
3.37762 5.05677 1.2,
3.41128 5.04578 1.2,
3.38547 5.09194 1.2,
3.44059 5.03101 1.2,
3.47546 5.07711 1.2,
3.55222 5.07053 1.2,
3.55222 5.09107 1.2,
3.61887 5.06045 1.2,
3.69366 5.05619 1.2,
3.73163 5.05619 1.2,
3.7483 5.09107 1.2,
3.44362 5.82414 1.2,
3.54859 5.86145 1.2,
3.48399 5.99294 1.2,
3.59567 5.73129 1.2,
3.65435 5.78089 1.2,
3.10036 5.0281 1.4,
3.15926 5.00737 1.4,
3.18455 5.07968 1.4,
3.21845 5.05125 1.4,
3.30458 5.06588 1.4,
3.30147 5.09688 1.4,
3.34144 5.0636 1.4,
3.08787 5.77009 1.4,
3.20784 5.71429 1.4,
3.20784 5.75125 1.4,
3.34841 5.97279 1.4,
3.37762 5.05677 1.4,
3.41128 5.04578 1.4,
3.38547 5.09194 1.4,
3.44059 5.03101 1.4,
3.47546 5.07711 1.4,
3.55222 5.07053 1.4,
3.55222 5.09107 1.4,
3.61887 5.06045 1.4,
3.69366 5.05619 1.4,
3.73163 5.05619 1.4,
3.7483 5.09107 1.4,
3.44362 5.82414 1.4,
3.54859 5.86145 1.4,
3.48399 5.99294 1.4,
3.59567 5.73129 1.4,
3.65435 5.78089 1.4,
3.7762 4.57143 1.2,
3.7762 4.59197 1.2,
3.75217 4.77525 1.2,
3.79087 4.81759 1.2,
3.83195 4.78562 1.2,
3.83064 4.83997 1.2,
3.8907 4.81671 1.2,
3.92689 4.86777 1.2,
3.85404 4.8792 1.2,
3.86183 4.93723 1.2,
3.85437 4.99206 1.2,
3.99361 4.57143 1.2,
3.99361 4.59197 1.2,
4.06026 4.60243 1.2,
4.10095 4.60243 1.2,
3.93895 4.93801 1.2,
4.1707 4.57143 1.2,
4.1707 4.59197 1.2,
4.42141 4.57143 1.2,
4.459 4.57143 1.2,
4.41831 4.70628 1.2,
3.7762 4.57143 1.4,
3.7762 4.59197 1.4,
3.75217 4.77525 1.4,
3.79087 4.81759 1.4,
3.83195 4.78562 1.4,
3.83064 4.83997 1.4,
3.8907 4.81671 1.4,
3.92689 4.86777 1.4,
3.85404 4.8792 1.4,
3.86183 4.93723 1.4,
3.85437 4.99206 1.4,
3.99361 4.57143 1.4,
3.99361 4.59197 1.4,
4.06026 4.60243 1.4,
4.10095 4.60243 1.4,
3.93895 4.93801 1.4,
4.1707 4.57143 1.4,
4.1707 4.59197 1.4,
4.42141 4.57143 1.4,
4.459 4.57143 1.4,
4.41831 4.70628 1.4,
3.79199 5.04931 1.2,
3.83199 5.02867 1.2,
3.89129 5.0528 1.2,
3.99361 5.07053 1.2,
3.99361 5.09107 1.2,
4.06026 5.06045 1.2,
4.10095 5.03875 1.2,
3.79795 5.70034 1.2,
3.79935 5.75404 1.2,
3.87659 5.75884 1.2,
3.96866 5.71132 1.2,
3.9493 5.77322 1.2,
4.01243 5.79563 1.2,
4.0609 5.82449 1.2,
4.08671 5.96399 1.2,
4.15094 5.09107 1.2,
4.34856 5.07053 1.2,
4.34856 5.09107 1.2,
4.41831 5.06045 1.2,
4.459 5.06045 1.2,
4.12786 5.74428 1.2,
4.28696 5.73033 1.2,
4.13205 5.96399 1.2,
4.27929 5.92703 1.2,
4.40902 5.70784 1.2,
4.35671 5.79589 1.2,
4.38958 5.78159 1.2,
4.32532 5.92703 1.2,
4.43378 5.76939 1.2,
4.482 5.76102 1.2,
3.79199 5.04931 1.4,
3.83199 5.02867 1.4,
3.89129 5.0528 1.4,
3.99361 5.07053 1.4,
3.99361 5.09107 1.4,
4.06026 5.06045 1.4,
4.10095 5.03875 1.4,
3.79795 5.70034 1.4,
3.79935 5.75404 1.4,
3.87659 5.75884 1.4,
3.96866 5.71132 1.4,
3.9493 5.77322 1.4,
4.01243 5.79563 1.4,
4.0609 5.82449 1.4,
4.08671 5.96399 1.4,
4.15094 5.09107 1.4,
4.34856 5.07053 1.4,
4.34856 5.09107 1.4,
4.41831 5.06045 1.4,
4.459 5.06045 1.4,
4.12786 5.74428 1.4,
4.28696 5.73033 1.4,
4.13205 5.96399 1.4,
4.27929 5.92703 1.4,
4.40902 5.70784 1.4,
4.35671 5.79589 1.4,
4.38958 5.78159 1.4,
4.32532 5.92703 1.4,
4.43378 5.76939 1.4,
4.482 5.76102 1.4,
3.31667 6.17115 1.2,
3.34719 6.3831 1.2,
3.08787 6.59453 1.2,
3.20784 6.61267 1.2,
3.20784 6.64964 1.2,
3.46245 6.17255 1.2,
3.48303 6.3647 1.2,
3.54476 6.49897 1.2,
3.43873 6.53629 1.2,
3.6513 6.57797 1.2,
3.59027 6.62915 1.2,
3.31667 6.17115 1.4,
3.34719 6.3831 1.4,
3.08787 6.59453 1.4,
3.20784 6.61267 1.4,
3.20784 6.64964 1.4,
3.46245 6.17255 1.4,
3.48303 6.3647 1.4,
3.54476 6.49897 1.4,
3.43873 6.53629 1.4,
3.6513 6.57797 1.4,
3.59027 6.62915 1.4,
4.07206 6.42015 1.2,
4.1181 6.42015 1.2,
3.80632 6.6043 1.2,
3.80074 6.6601 1.2,
3.87267 6.6002 1.2,
3.93779 6.5879 1.2,
3.99839 6.56812 1.2,
3.95192 6.6512 1.2,
4.05114 6.54152 1.2,
4.11392 6.62452 1.2,
4.30789 6.45015 1.2,
4.44389 6.17393 1.2,
4.44389 6.23113 1.2,
4.35392 6.45015 1.2,
4.30789 6.63011 1.2,
4.37833 6.56453 1.2,
4.37222 6.64519 1.2,
4.41146 6.57962 1.2,
4.44948 6.59139 1.2,
4.48906 6.59898 1.2,
4.42715 6.65416 1.2,
4.4772 6.65861 1.2,
4.07206 6.42015 1.4,
4.1181 6.42015 1.4,
3.80632 6.6043 1.4,
3.80074 6.6601 1.4,
3.87267 6.6002 1.4,
3.93779 6.5879 1.4,
3.99839 6.56812 1.4,
3.95192 6.6512 1.4,
4.05114 6.54152 1.4,
4.11392 6.62452 1.4,
4.30789 6.45015 1.4,
4.44389 6.17393 1.4,
4.44389 6.23113 1.4,
4.35392 6.45015 1.4,
4.30789 6.63011 1.4,
4.37833 6.56453 1.4,
4.37222 6.64519 1.4,
4.41146 6.57962 1.4,
4.44948 6.59139 1.4,
4.48906 6.59898 1.4,
4.42715 6.65416 1.4,
4.4772 6.65861 1.4,
4.52565 5.07053 1.2,
4.52565 5.09107 1.2,
4.53806 5.70034 1.2,
4.67843 5.71812 1.2,
4.5269 5.75823 1.2,
4.62211 5.77078 1.2,
4.68872 5.80844 1.2,
4.72796 5.87541 1.2,
4.74104 5.97585 1.2,
4.78288 5.77148 1.2,
4.84775 5.85641 1.2,
4.86937 5.96888 1.2,
4.988 5.71429 1.2,
4.988 5.81681 1.2,
5.07938 5.8217 1.2,
5.11773 5.9347 1.2,
5.1472 5.88256 1.2,
5.2112 5.93819 1.2,
4.52565 5.07053 1.4,
4.52565 5.09107 1.4,
4.53806 5.70034 1.4,
4.67843 5.71812 1.4,
4.5269 5.75823 1.4,
4.62211 5.77078 1.4,
4.68872 5.80844 1.4,
4.72796 5.87541 1.4,
4.74104 5.97585 1.4,
4.78288 5.77148 1.4,
4.84775 5.85641 1.4,
4.86937 5.96888 1.4,
4.988 5.71429 1.4,
4.988 5.81681 1.4,
5.07938 5.8217 1.4,
5.11773 5.9347 1.4,
5.1472 5.88256 1.4,
5.2112 5.93819 1.4,
5.56064 5.71429 1.2,
5.56064 5.8217 1.2,
5.56064 5.71429 1.4,
5.56064 5.8217 1.4,
4.54364 6.16836 1.2,
4.54364 6.23741 1.2,
4.63152 6.15275 1.2,
4.62245 6.20393 1.2,
4.61217 6.25171 1.2,
4.66012 6.28623 1.2,
4.729 6.05685 1.2,
4.6929 6.1157 1.2,
4.73266 6.17838 1.2,
4.70903 6.22878 1.2,
4.85438 6.06138 1.2,
4.80939 6.13104 1.2,
4.68837 6.34238 1.2,
4.77346 6.27542 1.2,
4.69779 6.42155 1.2,
4.81348 6.34282 1.2,
4.82682 6.42992 1.2,
4.5269 6.60151 1.2,
4.5269 6.6601 1.2,
4.60406 6.59079 1.2,
4.65698 6.55861 1.2,
4.68758 6.5029 1.2,
4.75184 6.60255 1.2,
5.01939 6.45015 1.2,
5.22602 6.03374 1.2,
5.06542 6.45015 1.2,
5.01939 6.63011 1.2,
5.08984 6.56453 1.2,
5.12209 6.57962 1.2,
5.13674 6.6526 1.2,
5.15888 6.59139 1.2,
5.19742 6.59898 1.2,
5.23492 6.60151 1.2,
5.23492 6.6601 1.2,
4.54364 6.16836 1.4,
4.54364 6.23741 1.4,
4.63152 6.15275 1.4,
4.62245 6.20393 1.4,
4.61217 6.25171 1.4,
4.66012 6.28623 1.4,
4.729 6.05685 1.4,
4.6929 6.1157 1.4,
4.73266 6.17838 1.4,
4.70903 6.22878 1.4,
4.85438 6.06138 1.4,
4.80939 6.13104 1.4,
4.68837 6.34238 1.4,
4.77346 6.27542 1.4,
4.69779 6.42155 1.4,
4.81348 6.34282 1.4,
4.82682 6.42992 1.4,
4.5269 6.60151 1.4,
4.5269 6.6601 1.4,
4.60406 6.59079 1.4,
4.65698 6.55861 1.4,
4.68758 6.5029 1.4,
4.75184 6.60255 1.4,
5.01939 6.45015 1.4,
5.22602 6.03374 1.4,
5.06542 6.45015 1.4,
5.01939 6.63011 1.4,
5.08984 6.56453 1.4,
5.12209 6.57962 1.4,
5.13674 6.6526 1.4,
5.15888 6.59139 1.4,
5.19742 6.59898 1.4,
5.23492 6.60151 1.4,
5.23492 6.6601 1.4,
5.3357 6.04795 1.2,
5.30118 6.11186 1.2,
5.35148 6.18056 1.2,
5.41905 6.13034 1.2,
5.38522 6.25135 1.2,
5.40432 6.32843 1.2,
5.41069 6.41597 1.2,
5.4004 6.49583 1.2,
5.47372 6.19922 1.2,
5.51217 6.26845 1.2,
5.53492 6.34003 1.2,
5.54251 6.41597 1.2,
5.3153 6.58965 1.2,
5.36954 6.55407 1.2,
5.36927 6.64414 1.2,
5.46544 6.59628 1.2,
5.52324 6.51929 1.2,
5.3357 6.04795 1.4,
5.30118 6.11186 1.4,
5.35148 6.18056 1.4,
5.41905 6.13034 1.4,
5.38522 6.25135 1.4,
5.40432 6.32843 1.4,
5.41069 6.41597 1.4,
5.4004 6.49583 1.4,
5.47372 6.19922 1.4,
5.51217 6.26845 1.4,
5.53492 6.34003 1.4,
5.54251 6.41597 1.4,
5.3153 6.58965 1.4,
5.36954 6.55407 1.4,
5.36927 6.64414 1.4,
5.46544 6.59628 1.4,
5.52324 6.51929 1.4,
6 8 1.2
] }

coordIndex [
1,3,6,-1
1,2,3,-1
1,13,2,-1
1,6,7,-1
1,52,13,-1
1,57,52,-1
1,67,57,-1
8,6,3,-1
4,5,3,-1
8,3,5,-1
9,16,10,-1
10,18,11,-1
12,14,25,-1
12,25,15,-1
13,55,14,-1
53,13,52,-1
54,13,53,-1
25,14,55,-1
16,19,10,-1
18,10,17,-1
19,17,10,-1
15,25,20,-1
20,25,21,-1
21,24,22,-1
24,21,23,-1
25,23,21,-1
0,1,429,-1
1,7,383,-1
1,383,384,-1
11,156,7,-1
11,18,157,-1
22,157,18,-1
164,7,156,-1
50,7,164,-1
156,11,157,-1
7,50,383,-1
0,1075,1,-1
54,55,13,-1
56,58,75,-1
56,75,59,-1
60,62,61,-1
62,65,63,-1
22,24,149,-1
60,66,62,-1
65,62,64,-1
66,64,62,-1
59,71,70,-1
63,149,24,-1
57,67,58,-1
75,58,67,-1
59,73,71,-1
59,75,73,-1
71,74,72,-1
74,71,73,-1
63,65,148,-1
72,148,65,-1
69,77,76,-1
69,110,77,-1
77,110,78,-1
72,74,262,-1
78,262,74,-1
1,1075,67,-1
106,68,107,-1
78,110,275,-1
109,112,111,-1
113,111,112,-1
109,114,112,-1
111,275,110,-1
111,113,275,-1
108,119,118,-1
108,120,119,-1
108,123,120,-1
123,108,115,-1
119,122,121,-1
122,119,120,-1
121,795,113,-1
117,125,124,-1
117,703,125,-1
125,703,126,-1
121,122,801,-1
126,801,122,-1
22,150,157,-1
63,148,149,-1
22,149,265,-1
22,265,150,-1
72,260,148,-1
165,191,166,-1
166,191,169,-1
158,191,167,-1
160,191,158,-1
167,191,165,-1
161,192,160,-1
163,192,161,-1
160,192,191,-1
169,191,171,-1
171,191,173,-1
173,191,174,-1
174,191,176,-1
176,191,177,-1
177,193,178,-1
157,151,159,-1
159,151,162,-1
151,157,150,-1
162,151,182,-1
184,182,183,-1
182,184,185,-1
151,183,182,-1
183,151,187,-1
180,192,163,-1
181,192,180,-1
181,189,192,-1
190,195,189,-1
182,185,202,-1
182,202,190,-1
193,177,191,-1
189,195,192,-1
192,195,194,-1
202,195,190,-1
196,194,195,-1
186,188,197,-1
197,188,200,-1
200,188,326,-1
199,201,198,-1
201,327,198,-1
327,328,198,-1
204,203,198,-1
205,204,198,-1
332,333,198,-1
333,205,198,-1
72,263,260,-1
72,262,263,-1
258,265,149,-1
78,273,262,-1
78,276,273,-1
78,275,276,-1
259,261,263,-1
260,263,261,-1
259,263,271,-1
264,271,263,-1
259,267,266,-1
259,269,267,-1
259,271,269,-1
267,270,268,-1
270,267,269,-1
275,113,279,-1
272,274,276,-1
273,276,274,-1
272,276,286,-1
277,286,276,-1
113,795,279,-1
121,799,795,-1
278,280,796,-1
279,796,280,-1
272,282,281,-1
272,284,282,-1
272,286,284,-1
282,285,283,-1
285,282,284,-1
278,288,287,-1
278,804,288,-1
288,805,289,-1
268,187,151,-1
268,322,187,-1
187,323,188,-1
323,187,322,-1
322,268,341,-1
188,323,326,-1
328,331,198,-1
326,323,329,-1
329,324,330,-1
330,324,334,-1
331,332,198,-1
334,336,335,-1
337,335,336,-1
324,329,323,-1
324,338,334,-1
342,339,325,-1
336,334,338,-1
268,270,865,-1
268,343,341,-1
283,865,270,-1
343,268,344,-1
341,343,342,-1
268,865,344,-1
283,285,859,-1
289,859,285,-1
283,859,865,-1
339,342,343,-1
347,345,340,-1
346,340,345,-1
344,865,866,-1
344,866,870,-1
344,870,349,-1
347,348,345,-1
350,349,870,-1
0,429,382,-1
0,382,1080,-1
382,429,1080,-1
1,384,411,-1
1,411,412,-1
1,412,429,-1
168,383,50,-1
170,383,168,-1
170,460,383,-1
383,395,386,-1
467,397,386,-1
386,397,388,-1
415,388,397,-1
395,383,460,-1
467,386,395,-1
397,467,398,-1
524,398,467,-1
527,398,524,-1
398,538,400,-1
528,398,527,-1
401,398,400,-1
398,401,443,-1
385,413,384,-1
413,411,384,-1
388,415,387,-1
416,417,412,-1
430,412,414,-1
414,412,417,-1
416,418,417,-1
418,416,419,-1
429,412,430,-1
429,430,431,-1
429,431,432,-1
429,432,433,-1
429,433,434,-1
429,434,452,-1
444,416,399,-1
444,419,416,-1
444,440,419,-1
444,441,440,-1
441,444,442,-1
442,444,454,-1
402,443,401,-1
454,645,455,-1
645,454,444,-1
172,461,170,-1
175,463,172,-1
170,461,460,-1
172,463,461,-1
179,463,175,-1
194,463,179,-1
194,196,463,-1
196,469,463,-1
196,472,469,-1
462,481,466,-1
466,481,468,-1
464,481,465,-1
470,481,464,-1
471,482,470,-1
473,482,471,-1
465,481,462,-1
468,481,525,-1
470,482,481,-1
196,475,472,-1
196,479,475,-1
206,479,196,-1
206,485,479,-1
474,482,473,-1
476,482,474,-1
480,475,479,-1
475,480,483,-1
476,477,482,-1
478,538,477,-1
477,538,482,-1
475,540,478,-1
475,483,540,-1
540,538,478,-1
484,486,487,-1
487,486,490,-1
490,486,572,-1
489,491,488,-1
491,573,488,-1
573,574,488,-1
542,541,488,-1
575,542,488,-1
533,398,528,-1
537,398,533,-1
398,537,538,-1
525,481,526,-1
526,481,529,-1
529,481,530,-1
530,481,531,-1
531,536,532,-1
539,400,538,-1
400,539,534,-1
534,539,535,-1
445,535,544,-1
536,531,481,-1
482,538,537,-1
544,535,539,-1
542,576,543,-1
445,544,607,-1
445,607,545,-1
335,485,206,-1
335,337,485,-1
340,485,337,-1
340,346,485,-1
346,580,485,-1
485,581,486,-1
486,581,572,-1
581,485,580,-1
572,581,577,-1
575,488,574,-1
542,575,576,-1
577,582,578,-1
578,610,579,-1
582,577,581,-1
585,611,583,-1
578,582,610,-1
580,346,351,-1
580,873,584,-1
580,351,873,-1
584,873,874,-1
584,877,586,-1
584,586,585,-1
611,585,586,-1
587,616,612,-1
588,1081,1085,-1
587,618,616,-1
588,1085,1086,-1
588,1086,620,-1
588,620,619,-1
543,576,606,-1
579,608,607,-1
609,607,608,-1
607,609,545,-1
612,545,609,-1
608,579,610,-1
612,617,545,-1
545,1139,613,-1
621,545,617,-1
614,615,654,-1
654,615,656,-1
613,623,615,-1
656,615,660,-1
615,623,660,-1
617,612,616,-1
545,621,1139,-1
613,1139,1141,-1
613,1141,1144,-1
613,1155,622,-1
623,613,622,-1
445,403,535,-1
445,545,546,-1
445,546,644,-1
455,645,647,-1
644,647,645,-1
644,546,646,-1
547,648,546,-1
648,646,546,-1
647,644,646,-1
657,658,655,-1
658,659,655,-1
665,664,655,-1
667,665,655,-1
668,667,655,-1
659,661,655,-1
661,662,655,-1
662,663,655,-1
663,668,655,-1
660,623,669,-1
675,669,623,-1
669,675,670,-1
670,675,671,-1
624,675,623,-1
671,673,672,-1
674,672,673,-1
673,671,675,-1
1503,452,453,-1
1503,453,455,-1
429,452,1503,-1
1503,455,647,-1
0,698,1075,-1
0,1080,698,-1
698,1080,1075,-1
1075,68,67,-1
1075,107,68,-1
1075,108,107,-1
116,700,699,-1
701,715,714,-1
702,705,704,-1
706,704,705,-1
702,707,705,-1
126,703,816,-1
704,816,703,-1
704,706,816,-1
709,701,708,-1
701,709,719,-1
701,717,715,-1
701,719,717,-1
710,719,709,-1
712,745,713,-1
713,720,711,-1
720,713,745,-1
715,718,716,-1
718,715,717,-1
716,816,706,-1
716,718,816,-1
721,816,718,-1
721,751,953,-1
1075,115,108,-1
1075,116,115,-1
1075,700,116,-1
1075,701,700,-1
1075,708,701,-1
1075,712,708,-1
749,747,748,-1
747,754,753,-1
747,756,754,-1
747,749,765,-1
758,765,749,-1
747,765,756,-1
746,750,721,-1
751,721,750,-1
746,752,750,-1
755,953,751,-1
754,757,755,-1
757,754,756,-1
755,757,954,-1
766,954,757,-1
761,764,759,-1
764,761,762,-1
760,762,761,-1
954,766,768,-1
1036,954,768,-1
763,767,766,-1
768,766,767,-1
763,769,767,-1
121,802,799,-1
121,801,802,-1
279,795,796,-1
278,796,806,-1
797,806,796,-1
126,814,801,-1
126,816,814,-1
798,800,802,-1
799,802,800,-1
798,802,812,-1
803,812,802,-1
278,806,804,-1
288,804,805,-1
798,808,807,-1
798,810,808,-1
798,812,810,-1
808,811,809,-1
811,808,810,-1
813,815,817,-1
814,817,815,-1
817,814,816,-1
813,817,825,-1
816,721,953,-1
818,825,817,-1
954,826,819,-1
813,821,820,-1
813,823,821,-1
813,825,823,-1
821,824,822,-1
824,821,823,-1
289,805,860,-1
289,860,859,-1
809,860,805,-1
809,811,862,-1
860,809,862,-1
822,862,811,-1
861,863,868,-1
867,863,869,-1
350,870,873,-1
873,351,350,-1
867,868,863,-1
864,869,863,-1
869,864,880,-1
869,881,871,-1
871,888,872,-1
869,880,881,-1
871,881,882,-1
871,882,888,-1
872,888,875,-1
875,889,876,-1
822,879,862,-1
879,822,824,-1
883,885,889,-1
885,883,884,-1
879,824,956,-1
889,875,888,-1
890,889,895,-1
889,885,897,-1
876,889,878,-1
878,889,891,-1
894,891,889,-1
894,889,890,-1
894,892,891,-1
889,897,895,-1
895,897,896,-1
886,902,885,-1
887,962,899,-1
899,962,967,-1
901,968,900,-1
902,897,885,-1
904,903,900,-1
974,904,900,-1
755,954,953,-1
826,954,1036,-1
1041,955,826,-1
1041,956,955,-1
1041,883,879,-1
879,956,1041,-1
883,1050,884,-1
826,1036,1038,-1
826,1038,1041,-1
883,1041,1046,-1
884,1050,961,-1
961,1050,963,-1
963,1050,984,-1
961,964,962,-1
964,961,963,-1
967,962,969,-1
968,970,900,-1
970,971,900,-1
971,976,900,-1
962,964,969,-1
969,964,972,-1
977,975,900,-1
975,974,900,-1
976,977,900,-1
965,972,964,-1
972,965,973,-1
973,965,979,-1
965,982,979,-1
985,983,966,-1
979,980,978,-1
981,978,980,-1
980,979,982,-1
984,986,985,-1
983,985,986,-1
989,990,988,-1
991,988,990,-1
989,992,990,-1
987,1076,993,-1
1075,745,712,-1
1075,747,745,-1
1075,748,747,-1
1075,760,748,-1
1075,762,760,-1
1075,1027,762,-1
1075,1028,1027,-1
1075,1032,1028,-1
1029,1027,1028,-1
1027,1035,1034,-1
1027,1037,1035,-1
1027,1029,1040,-1
1030,1040,1029,-1
1027,1040,1037,-1
1033,1039,1031,-1
1039,1033,1042,-1
1035,1038,1036,-1
1038,1035,1037,-1
1032,1042,1033,-1
1044,1049,1048,-1
1043,1045,1041,-1
1046,1041,1045,-1
1043,1047,1045,-1
1075,1077,1050,-1
1075,1042,1032,-1
1075,1044,1042,-1
1075,1049,1044,-1
1075,1050,1049,-1
1050,883,1046,-1
984,1050,986,-1
986,1050,987,-1
987,1050,1076,-1
1076,1050,1077,-1
1075,1397,1077,-1
1075,1398,1397,-1
584,874,877,-1
586,877,588,-1
588,896,1082,-1
588,877,893,-1
588,893,896,-1
897,1089,1082,-1
898,1091,1089,-1
588,1082,1081,-1
1090,1103,1084,-1
1092,1103,1090,-1
1093,1104,1092,-1
1083,1103,1087,-1
1084,1103,1083,-1
1087,1103,1088,-1
1088,1103,1140,-1
896,897,1082,-1
898,1089,897,-1
898,1094,1091,-1
898,1099,1094,-1
898,1100,1099,-1
905,1100,898,-1
905,1193,1100,-1
1095,1104,1093,-1
1096,1104,1095,-1
1097,1104,1096,-1
1101,1099,1100,-1
1099,1101,1105,-1
1092,1104,1103,-1
1097,1098,1104,-1
1102,1155,1098,-1
1099,1157,1102,-1
1098,1155,1104,-1
1157,1155,1102,-1
1106,1194,1107,-1
1107,1194,1195,-1
1099,1105,1157,-1
1109,1196,1108,-1
1159,1158,1108,-1
1235,1159,1108,-1
620,1086,1139,-1
620,1139,621,-1
613,1144,1152,-1
613,1152,1154,-1
613,1154,1155,-1
1140,1103,1142,-1
1142,1103,1143,-1
1143,1103,1145,-1
622,1155,1156,-1
1156,1147,622,-1
1148,1295,1146,-1
1147,1161,1148,-1
1149,1148,1161,-1
1148,1149,1295,-1
1145,1103,1150,-1
1153,1151,1150,-1
1153,1150,1103,-1
1104,1155,1154,-1
1156,1164,1147,-1
1161,1147,1164,-1
1164,1156,1242,-1
978,1193,905,-1
978,981,1193,-1
981,1204,1193,-1
988,1204,981,-1
988,1209,1204,-1
1195,1194,1197,-1
1193,1205,1194,-1
1205,1193,1204,-1
1194,1205,1197,-1
1197,1205,1199,-1
1196,1198,1108,-1
1198,1201,1108,-1
1236,1235,1108,-1
1203,1236,1108,-1
1201,1202,1108,-1
1202,1203,1108,-1
1206,1199,1205,-1
1210,1241,1207,-1
1199,1206,1200,-1
1200,1206,1208,-1
1206,1240,1208,-1
988,991,1209,-1
991,1211,1209,-1
991,1212,1211,-1
1209,1211,1210,-1
1241,1210,1211,-1
1213,1251,1250,-1
1213,1253,1251,-1
1212,1361,1254,-1
1160,1256,1156,-1
1208,1238,1237,-1
1239,1237,1238,-1
1238,1208,1240,-1
1237,1256,1160,-1
1237,1239,1256,-1
1242,1156,1245,-1
1245,1156,1255,-1
1243,1317,1165,-1
1244,1318,1243,-1
1256,1255,1156,-1
1246,1318,1244,-1
1247,1318,1246,-1
1252,1250,1251,-1
1250,1256,1239,-1
1256,1250,1252,-1
1362,1259,1252,-1
1362,1363,1259,-1
1255,1258,1257,-1
1255,1256,1258,-1
1262,1257,1258,-1
1256,1252,1259,-1
1260,1261,1263,-1
1260,1264,1262,-1
1257,1262,1369,-1
1260,1263,1264,-1
1365,1262,1264,-1
1366,1262,1365,-1
429,1503,1080,-1
1146,1298,1297,-1
1146,1295,1296,-1
1146,1296,1298,-1
1298,1303,1299,-1
1303,1298,1296,-1
1162,1317,1163,-1
1163,1317,1300,-1
1300,1317,1301,-1
1301,1317,1302,-1
1305,1299,1303,-1
1320,1299,1305,-1
1503,647,666,-1
1503,666,672,-1
1165,1317,1162,-1
1302,1317,1304,-1
1243,1318,1317,-1
1248,1318,1247,-1
1248,1249,1318,-1
1257,1318,1249,-1
1304,1317,1319,-1
1319,1317,1321,-1
1321,1317,1322,-1
1325,1322,1317,-1
1322,1325,1323,-1
1257,1328,1318,-1
1318,1329,1327,-1
1328,1257,1401,-1
1401,1257,1403,-1
1403,1257,1408,-1
1329,1318,1328,-1
1327,1329,1330,-1
1402,1330,1329,-1
1318,1331,1326,-1
1331,1318,1327,-1
1330,1334,1332,-1
1334,1330,1335,-1
1335,1330,1336,-1
1336,1330,1418,-1
1418,1330,1420,-1
1503,672,674,-1
1503,674,1299,-1
1503,1299,1320,-1
1075,1080,1503,-1
1077,1397,991,-1
991,1397,1212,-1
1212,1397,1361,-1
1361,1397,1362,-1
1363,1362,1364,-1
1364,1362,1370,-1
1367,1262,1366,-1
1368,1262,1367,-1
1407,1257,1369,-1
1369,1262,1368,-1
1362,1373,1370,-1
1370,1374,1371,-1
1373,1362,1397,-1
1374,1370,1373,-1
1371,1376,1372,-1
1371,1374,1376,-1
1425,1372,1376,-1
1075,1503,1398,-1
1375,1398,1377,-1
1377,1398,1378,-1
1378,1398,1469,-1
1469,1398,1472,-1
1408,1257,1407,-1
1405,1330,1402,-1
1406,1330,1405,-1
1413,1330,1406,-1
1415,1330,1413,-1
1422,1330,1415,-1
1404,1409,1410,-1
1410,1409,1412,-1
1410,1412,1414,-1
1420,1330,1421,-1
1421,1330,1422,-1
1417,1427,1423,-1
1414,1412,1470,-1
1414,1470,1416,-1
1372,1425,1411,-1
1411,1470,1412,-1
1416,1424,1417,-1
1424,1416,1426,-1
1411,1425,1470,-1
1471,1416,1470,-1
1416,1474,1426,-1
1473,1416,1471,-1
1474,1416,1473,-1
1427,1417,1424,-1
1426,1429,1428,-1
1429,1426,1431,-1
1431,1426,1432,-1
1432,1426,1433,-1
1433,1426,1481,-1
1503,1320,1324,-1
1503,1324,1326,-1
1503,1326,1331,-1
1503,1331,1333,-1
1503,1333,1337,-1
1503,1337,1338,-1
1503,1338,1419,-1
1503,1419,1423,-1
1475,1426,1474,-1
1476,1426,1475,-1
1472,1398,1477,-1
1477,1398,1478,-1
1478,1398,1479,-1
1479,1398,1480,-1
1481,1426,1482,-1
1482,1426,1476,-1
1503,1480,1398,-1
1503,1485,1480,-1
1503,1423,1427,-1
1503,1427,1430,-1
1503,1430,1434,-1
1503,1434,1483,-1
1503,1483,1484,-1
1503,1484,1485,-1
26,3,2,-1
27,4,3,-1
28,5,4,-1
29,8,5,-1
26,27,3,-1
27,28,4,-1
26,2,37,-1
26,28,27,-1
26,37,28,-1
28,36,29,-1
28,29,5,-1
33,40,16,-1
36,39,29,-1
29,39,40,-1
33,29,40,-1
30,7,6,-1
32,6,8,-1
31,11,7,-1
33,16,9,-1
34,9,10,-1
35,10,11,-1
30,31,7,-1
30,6,32,-1
30,32,31,-1
31,32,33,-1
32,8,29,-1
31,35,11,-1
33,9,34,-1
34,10,35,-1
32,29,33,-1
31,33,35,-1
33,34,35,-1
37,2,13,-1
36,14,12,-1
38,13,14,-1
39,12,15,-1
40,19,16,-1
36,12,39,-1
36,38,14,-1
37,13,38,-1
28,37,36,-1
36,37,38,-1
39,15,44,-1
40,39,43,-1
41,18,17,-1
44,15,20,-1
43,17,19,-1
42,22,18,-1
45,20,21,-1
46,21,22,-1
47,24,23,-1
49,23,25,-1
48,63,24,-1
41,42,18,-1
40,43,19,-1
41,17,43,-1
39,44,43,-1
41,43,42,-1
42,43,44,-1
42,44,46,-1
44,20,45,-1
42,46,22,-1
45,21,46,-1
47,48,24,-1
47,23,49,-1
44,45,46,-1
47,49,48,-1
48,49,88,-1
51,168,50,-1
215,51,50,-1
51,219,168,-1
79,53,52,-1
80,54,53,-1
81,55,54,-1
82,25,55,-1
84,52,57,-1
83,58,56,-1
85,57,58,-1
86,56,59,-1
87,66,60,-1
79,80,53,-1
80,81,54,-1
79,52,84,-1
79,81,80,-1
79,84,81,-1
81,83,82,-1
81,82,55,-1
88,87,60,-1
82,86,87,-1
82,87,88,-1
83,56,86,-1
83,85,58,-1
84,57,85,-1
81,84,83,-1
83,84,85,-1
86,59,97,-1
82,83,86,-1
86,93,87,-1
88,60,61,-1
89,61,62,-1
90,62,63,-1
91,65,64,-1
97,59,70,-1
93,64,66,-1
92,72,65,-1
82,49,25,-1
48,90,63,-1
88,61,89,-1
89,62,90,-1
82,88,49,-1
48,88,90,-1
88,89,90,-1
91,92,65,-1
87,93,66,-1
91,64,93,-1
86,97,93,-1
91,93,92,-1
92,93,97,-1
92,97,99,-1
95,67,68,-1
94,75,67,-1
94,67,95,-1
102,75,94,-1
95,68,127,-1
96,69,103,-1
102,94,95,-1
102,95,96,-1
98,70,71,-1
99,71,72,-1
100,74,73,-1
102,73,75,-1
101,78,74,-1
103,69,76,-1
104,76,77,-1
105,77,78,-1
92,99,72,-1
97,70,98,-1
98,71,99,-1
100,101,74,-1
100,73,102,-1
97,98,99,-1
100,102,101,-1
101,102,103,-1
101,105,78,-1
103,76,104,-1
104,77,105,-1
102,96,103,-1
101,103,105,-1
103,104,105,-1
127,68,106,-1
96,110,69,-1
128,106,107,-1
129,107,108,-1
130,114,109,-1
139,108,118,-1
128,127,106,-1
95,127,96,-1
96,127,131,-1
127,130,131,-1
128,107,129,-1
130,109,132,-1
129,108,139,-1
128,130,127,-1
128,129,139,-1
128,139,130,-1
132,109,111,-1
131,111,110,-1
133,113,112,-1
135,112,114,-1
134,121,113,-1
96,131,110,-1
131,132,111,-1
130,132,131,-1
130,135,114,-1
133,134,113,-1
133,112,135,-1
130,139,135,-1
133,135,134,-1
134,135,139,-1
137,115,116,-1
136,123,115,-1
136,115,137,-1
136,144,123,-1
137,116,722,-1
138,117,145,-1
136,137,144,-1
137,138,144,-1
140,118,119,-1
142,119,121,-1
141,122,120,-1
144,120,123,-1
143,126,122,-1
145,117,124,-1
146,124,125,-1
147,125,126,-1
134,142,121,-1
139,118,140,-1
140,119,142,-1
141,143,122,-1
141,120,144,-1
134,139,142,-1
139,140,142,-1
141,144,143,-1
143,144,145,-1
143,147,126,-1
145,124,146,-1
146,125,147,-1
138,145,144,-1
143,145,147,-1
145,146,147,-1
152,149,148,-1
152,153,149,-1
154,151,150,-1
154,155,151,-1
208,156,157,-1
218,158,167,-1
210,157,159,-1
209,160,158,-1
211,161,160,-1
213,159,162,-1
212,163,161,-1
214,180,163,-1
207,156,208,-1
208,157,210,-1
218,209,158,-1
207,208,218,-1
208,209,218,-1
209,211,160,-1
210,159,213,-1
211,212,161,-1
212,214,163,-1
214,231,180,-1
208,210,209,-1
209,210,211,-1
210,212,211,-1
210,213,212,-1
212,213,214,-1
213,231,214,-1
207,164,156,-1
215,50,164,-1
216,167,165,-1
217,165,166,-1
219,170,168,-1
220,166,169,-1
221,172,170,-1
222,169,171,-1
224,171,173,-1
223,175,172,-1
225,173,174,-1
227,174,176,-1
228,176,177,-1
226,179,175,-1
229,177,178,-1
230,194,179,-1
215,164,207,-1
216,165,217,-1
217,166,220,-1
216,218,167,-1
215,207,216,-1
207,218,216,-1
215,216,217,-1
215,217,51,-1
51,217,219,-1
219,221,170,-1
220,169,222,-1
221,223,172,-1
222,171,224,-1
217,220,219,-1
220,221,219,-1
220,222,221,-1
221,222,223,-1
222,224,223,-1
224,173,225,-1
223,226,175,-1
225,174,227,-1
227,176,228,-1
226,230,179,-1
228,177,229,-1
223,224,226,-1
224,225,226,-1
225,227,226,-1
227,228,230,-1
226,227,230,-1
228,229,230,-1
231,181,180,-1
233,162,182,-1
234,184,183,-1
235,185,184,-1
238,183,187,-1
237,188,186,-1
239,187,188,-1
213,162,233,-1
231,232,181,-1
233,182,241,-1
234,235,184,-1
235,236,185,-1
213,233,231,-1
231,233,232,-1
234,236,235,-1
234,183,238,-1
238,187,239,-1
237,239,188,-1
234,237,236,-1
234,238,237,-1
237,238,239,-1
232,189,181,-1
241,182,190,-1
240,190,189,-1
242,193,191,-1
243,191,192,-1
244,178,193,-1
245,192,194,-1
246,196,195,-1
253,195,202,-1
236,202,185,-1
248,186,197,-1
249,199,198,-1
251,197,200,-1
250,201,199,-1
254,198,203,-1
247,206,196,-1
255,203,204,-1
256,204,205,-1
232,240,189,-1
240,241,190,-1
232,241,240,-1
232,233,241,-1
242,191,243,-1
242,244,193,-1
245,243,192,-1
244,229,178,-1
230,245,194,-1
246,247,196,-1
246,195,253,-1
242,243,244,-1
230,229,245,-1
244,243,245,-1
244,245,229,-1
246,253,247,-1
237,186,248,-1
249,198,254,-1
248,197,251,-1
249,250,199,-1
251,200,356,-1
250,252,201,-1
236,237,248,-1
236,248,249,-1
236,249,253,-1
248,250,249,-1
248,251,250,-1
251,252,250,-1
251,356,252,-1
236,253,202,-1
247,257,206,-1
254,203,255,-1
255,204,256,-1
249,254,253,-1
247,253,257,-1
253,254,257,-1
254,255,257,-1
255,256,257,-1
153,258,149,-1
290,265,258,-1
292,148,260,-1
291,261,259,-1
293,260,261,-1
294,263,262,-1
295,264,263,-1
296,271,264,-1
153,290,258,-1
152,148,292,-1
291,293,261,-1
291,259,298,-1
152,290,153,-1
152,292,290,-1
290,291,297,-1
290,292,291,-1
291,292,293,-1
292,260,293,-1
294,295,263,-1
294,262,305,-1
295,296,264,-1
294,296,295,-1
294,305,296,-1
296,304,303,-1
298,259,266,-1
297,150,265,-1
155,268,151,-1
299,266,267,-1
300,267,268,-1
301,270,269,-1
303,269,271,-1
302,283,270,-1
290,297,265,-1
291,298,297,-1
154,150,297,-1
155,300,268,-1
298,266,299,-1
154,297,155,-1
155,297,300,-1
297,298,300,-1
298,299,300,-1
296,303,271,-1
304,313,303,-1
299,267,300,-1
301,302,270,-1
301,269,303,-1
301,303,302,-1
302,303,315,-1
305,262,273,-1
304,274,272,-1
306,273,274,-1
307,276,275,-1
308,277,276,-1
311,275,279,-1
309,286,277,-1
310,280,278,-1
312,279,280,-1
304,306,274,-1
305,273,306,-1
304,272,313,-1
307,308,276,-1
308,309,277,-1
296,305,304,-1
304,305,306,-1
307,309,308,-1
307,275,311,-1
310,278,319,-1
310,312,280,-1
311,279,312,-1
307,311,309,-1
309,311,310,-1
309,310,318,-1
310,311,312,-1
313,272,281,-1
314,281,282,-1
315,282,283,-1
316,285,284,-1
318,284,286,-1
319,278,287,-1
317,289,285,-1
320,287,288,-1
321,288,289,-1
302,315,283,-1
313,281,314,-1
314,282,315,-1
316,317,285,-1
316,284,318,-1
303,313,315,-1
313,314,315,-1
316,318,317,-1
309,318,286,-1
310,319,318,-1
317,321,289,-1
319,287,320,-1
320,288,321,-1
317,318,321,-1
318,319,321,-1
319,320,321,-1
352,323,322,-1
353,324,323,-1
371,322,341,-1
355,342,325,-1
352,353,323,-1
352,322,371,-1
353,354,324,-1
355,372,342,-1
352,354,353,-1
352,371,354,-1
354,371,355,-1
355,371,372,-1
356,200,326,-1
252,327,201,-1
357,328,327,-1
359,326,329,-1
360,329,330,-1
358,331,328,-1
361,332,331,-1
362,333,332,-1
257,335,206,-1
363,205,333,-1
365,334,335,-1
364,330,334,-1
368,338,324,-1
366,337,336,-1
368,336,338,-1
367,340,337,-1
369,325,339,-1
252,357,327,-1
356,326,359,-1
357,358,328,-1
359,329,360,-1
360,330,364,-1
252,356,357,-1
356,359,357,-1
357,359,358,-1
358,359,360,-1
363,333,362,-1
358,361,331,-1
361,362,332,-1
256,205,363,-1
257,365,335,-1
364,334,365,-1
358,360,361,-1
361,364,362,-1
257,256,365,-1
256,363,365,-1
363,362,365,-1
361,360,364,-1
362,364,365,-1
354,368,324,-1
355,325,369,-1
354,355,369,-1
366,336,368,-1
366,367,337,-1
367,370,340,-1
354,369,368,-1
366,368,367,-1
367,368,370,-1
368,369,370,-1
372,341,342,-1
374,343,344,-1
371,341,372,-1
373,343,374,-1
373,339,343,-1
370,347,340,-1
375,346,345,-1
377,348,347,-1
378,345,348,-1
376,351,346,-1
379,344,349,-1
380,349,350,-1
381,350,351,-1
369,339,373,-1
370,377,347,-1
369,373,374,-1
369,374,377,-1
375,376,346,-1
369,377,370,-1
374,344,379,-1
377,374,379,-1
377,378,348,-1
375,345,378,-1
379,349,380,-1
376,381,351,-1
380,350,381,-1
377,379,378,-1
375,378,376,-1
376,378,379,-1
376,379,381,-1
379,380,381,-1
389,384,383,-1
390,385,384,-1
392,383,386,-1
394,386,388,-1
393,388,387,-1
389,390,384,-1
389,383,392,-1
389,391,390,-1
389,392,391,-1
390,391,385,-1
392,386,394,-1
393,392,394,-1
393,394,388,-1
391,392,393,-1
396,467,395,-1
492,396,395,-1
396,499,467,-1
404,415,397,-1
405,397,398,-1
404,405,424,-1
404,397,405,-1
405,398,449,-1
407,401,400,-1
408,402,401,-1
558,400,534,-1
407,408,401,-1
407,409,408,-1
408,409,402,-1
407,400,558,-1
407,558,409,-1
409,558,410,-1
391,413,385,-1
424,387,415,-1
391,422,413,-1
391,424,422,-1
393,387,424,-1
391,393,424,-1
404,424,415,-1
420,412,411,-1
422,411,413,-1
421,416,412,-1
423,430,414,-1
427,417,418,-1
426,414,417,-1
428,418,419,-1
420,411,422,-1
420,421,412,-1
420,422,421,-1
421,422,425,-1
423,435,430,-1
421,425,416,-1
422,424,425,-1
427,426,417,-1
423,414,426,-1
427,418,428,-1
423,426,458,-1
423,458,435,-1
427,458,426,-1
435,431,430,-1
436,432,431,-1
437,433,432,-1
438,434,433,-1
435,436,431,-1
435,437,436,-1
436,437,432,-1
437,438,433,-1
438,439,434,-1
435,438,437,-1
435,439,438,-1
435,456,439,-1
425,399,416,-1
406,444,399,-1
406,399,425,-1
405,406,424,-1
406,425,424,-1
405,449,406,-1
446,419,440,-1
447,440,441,-1
448,441,442,-1
458,442,454,-1
428,419,446,-1
446,440,447,-1
447,441,448,-1
428,446,447,-1
427,428,458,-1
428,447,448,-1
428,448,458,-1
448,442,458,-1
449,398,443,-1
409,443,402,-1
410,403,445,-1
406,450,444,-1
406,449,450,-1
409,410,449,-1
409,449,443,-1
410,445,451,-1
410,450,449,-1
410,451,450,-1
450,645,444,-1
450,650,645,-1
450,451,650,-1
439,452,434,-1
456,453,452,-1
457,455,453,-1
459,454,455,-1
439,456,452,-1
459,455,457,-1
456,457,453,-1
435,459,457,-1
435,458,459,-1
435,457,456,-1
458,454,459,-1
493,460,461,-1
494,465,462,-1
495,461,463,-1
497,464,465,-1
492,395,460,-1
498,462,466,-1
499,524,467,-1
500,466,468,-1
549,468,525,-1
496,470,464,-1
501,463,469,-1
502,471,470,-1
504,469,472,-1
503,473,471,-1
505,474,473,-1
493,461,495,-1
492,460,493,-1
497,496,464,-1
495,463,501,-1
494,497,465,-1
493,497,494,-1
492,493,494,-1
493,495,497,-1
495,496,497,-1
494,462,498,-1
498,466,500,-1
499,548,524,-1
500,468,549,-1
492,498,396,-1
396,498,499,-1
492,494,498,-1
498,500,499,-1
500,548,499,-1
500,549,548,-1
496,502,470,-1
501,469,504,-1
502,503,471,-1
503,505,473,-1
505,506,474,-1
495,501,496,-1
496,501,502,-1
501,503,502,-1
501,504,503,-1
503,504,505,-1
504,506,505,-1
506,476,474,-1
507,472,475,-1
508,477,476,-1
510,475,478,-1
509,478,477,-1
511,480,479,-1
512,483,480,-1
513,536,481,-1
514,481,482,-1
519,484,487,-1
517,479,485,-1
516,486,484,-1
518,485,486,-1
515,540,483,-1
565,488,541,-1
520,489,488,-1
522,487,490,-1
521,491,489,-1
504,472,507,-1
506,508,476,-1
508,509,477,-1
507,475,510,-1
509,510,478,-1
511,512,480,-1
512,515,483,-1
504,507,506,-1
506,507,508,-1
508,510,509,-1
508,507,510,-1
511,515,512,-1
513,481,514,-1
513,514,560,-1
511,479,517,-1
516,484,519,-1
516,518,486,-1
517,485,518,-1
511,516,515,-1
511,517,516,-1
515,516,519,-1
515,519,520,-1
516,517,518,-1
515,564,540,-1
520,488,565,-1
519,487,522,-1
520,521,489,-1
522,490,589,-1
521,523,491,-1
515,520,564,-1
520,565,564,-1
519,521,520,-1
519,522,521,-1
522,523,521,-1
522,589,523,-1
548,527,524,-1
550,525,526,-1
551,528,527,-1
553,526,529,-1
555,530,531,-1
554,529,530,-1
552,533,528,-1
556,531,532,-1
557,537,533,-1
548,551,527,-1
549,525,550,-1
548,549,551,-1
549,550,551,-1
550,526,553,-1
551,552,528,-1
553,529,554,-1
554,530,555,-1
552,557,533,-1
555,531,556,-1
551,550,552,-1
550,553,552,-1
553,554,552,-1
552,554,557,-1
554,555,557,-1
555,556,557,-1
559,534,535,-1
410,535,403,-1
558,534,559,-1
410,558,559,-1
410,559,535,-1
560,532,536,-1
561,482,537,-1
562,539,538,-1
564,538,540,-1
563,544,539,-1
566,541,542,-1
567,542,543,-1
560,556,532,-1
513,560,536,-1
557,561,537,-1
561,514,482,-1
562,563,539,-1
562,538,564,-1
560,514,561,-1
560,561,556,-1
557,556,561,-1
562,564,563,-1
563,568,544,-1
565,541,566,-1
566,542,567,-1
563,564,568,-1
564,565,568,-1
565,566,568,-1
566,567,568,-1
569,546,545,-1
570,547,546,-1
569,570,546,-1
569,545,632,-1
569,571,570,-1
570,571,547,-1
569,633,571,-1
571,633,676,-1
571,676,677,-1
589,490,572,-1
523,573,491,-1
590,574,573,-1
594,572,577,-1
591,575,574,-1
592,576,575,-1
595,577,578,-1
596,578,579,-1
597,581,580,-1
598,582,581,-1
601,580,584,-1
600,585,583,-1
629,610,582,-1
630,583,611,-1
523,590,573,-1
589,572,594,-1
590,591,574,-1
591,592,575,-1
592,593,576,-1
594,577,595,-1
595,578,596,-1
596,579,626,-1
523,589,590,-1
589,594,590,-1
590,594,591,-1
591,595,592,-1
592,596,593,-1
591,594,595,-1
592,595,596,-1
593,596,626,-1
597,598,581,-1
598,599,582,-1
597,580,601,-1
600,602,585,-1
600,583,630,-1
597,599,598,-1
597,601,599,-1
599,601,600,-1
600,601,602,-1
599,600,630,-1
599,629,582,-1
599,630,629,-1
602,584,585,-1
603,611,586,-1
631,587,612,-1
605,586,588,-1
604,618,587,-1
638,588,619,-1
601,584,602,-1
603,605,630,-1
603,630,611,-1
604,587,631,-1
604,631,630,-1
604,630,605,-1
603,586,605,-1
605,588,638,-1
604,637,618,-1
604,605,638,-1
604,638,637,-1
625,543,606,-1
568,607,544,-1
593,606,576,-1
626,579,607,-1
627,609,608,-1
629,608,610,-1
628,612,609,-1
567,543,625,-1
625,606,593,-1
568,626,607,-1
567,625,626,-1
568,567,626,-1
625,593,626,-1
627,628,609,-1
627,608,629,-1
628,631,612,-1
627,629,628,-1
628,629,631,-1
629,630,631,-1
632,545,613,-1
634,613,615,-1
633,615,614,-1
676,614,654,-1
632,613,634,-1
569,632,633,-1
633,632,634,-1
633,614,676,-1
633,634,615,-1
635,617,616,-1
637,616,618,-1
636,621,617,-1
639,619,620,-1
640,620,621,-1
635,636,617,-1
635,616,637,-1
636,640,621,-1
638,619,639,-1
639,620,640,-1
635,637,636,-1
636,637,638,-1
636,638,640,-1
638,639,640,-1
641,623,622,-1
642,624,623,-1
641,642,623,-1
641,622,1174,-1
641,643,642,-1
641,1174,643,-1
642,643,624,-1
649,445,644,-1
650,644,645,-1
451,445,649,-1
649,644,650,-1
451,649,650,-1
571,648,547,-1
571,677,653,-1
571,653,648,-1
677,686,653,-1
651,647,646,-1
653,646,648,-1
652,666,647,-1
651,652,647,-1
651,646,653,-1
651,653,652,-1
652,653,688,-1
677,657,655,-1
678,654,656,-1
679,658,657,-1
686,655,664,-1
682,656,660,-1
680,659,658,-1
681,661,659,-1
691,660,669,-1
683,662,661,-1
685,668,663,-1
684,663,662,-1
676,654,678,-1
677,679,657,-1
678,656,682,-1
679,680,658,-1
676,679,677,-1
676,678,679,-1
678,680,679,-1
677,655,686,-1
680,681,659,-1
682,660,691,-1
681,683,661,-1
678,682,680,-1
680,682,681,-1
682,691,681,-1
681,691,683,-1
683,684,662,-1
684,685,663,-1
683,692,684,-1
687,664,665,-1
689,665,667,-1
690,667,668,-1
688,672,666,-1
686,664,687,-1
652,688,666,-1
687,665,689,-1
653,686,688,-1
686,687,688,-1
687,689,688,-1
689,667,690,-1
690,668,685,-1
688,694,672,-1
688,689,694,-1
689,690,694,-1
690,685,694,-1
692,669,670,-1
693,670,671,-1
643,675,624,-1
691,669,692,-1
683,691,692,-1
692,670,693,-1
693,671,694,-1
684,692,693,-1
684,693,685,-1
693,694,685,-1
643,1173,697,-1
643,697,675,-1
694,671,672,-1
695,674,673,-1
697,673,675,-1
696,1299,674,-1
695,673,697,-1
695,696,674,-1
695,697,696,-1
696,697,1310,-1
722,116,699,-1
138,703,117,-1
723,699,700,-1
724,700,701,-1
725,707,702,-1
737,701,714,-1
722,699,723,-1
137,722,138,-1
138,722,726,-1
722,725,726,-1
723,700,724,-1
725,702,727,-1
724,701,737,-1
722,723,725,-1
723,724,737,-1
723,737,725,-1
727,702,704,-1
726,704,703,-1
728,706,705,-1
730,705,707,-1
729,716,706,-1
138,726,703,-1
726,727,704,-1
725,727,726,-1
725,730,707,-1
728,729,706,-1
728,705,730,-1
725,737,730,-1
728,730,729,-1
729,730,737,-1
731,709,708,-1
732,710,709,-1
733,719,710,-1
735,708,712,-1
734,713,711,-1
736,712,713,-1
743,711,720,-1
731,732,709,-1
732,733,710,-1
731,708,735,-1
731,733,732,-1
733,742,719,-1
734,736,713,-1
735,712,736,-1
731,735,733,-1
733,735,734,-1
734,735,736,-1
734,711,743,-1
743,720,770,-1
733,734,743,-1
733,743,742,-1
738,714,715,-1
739,715,716,-1
740,718,717,-1
742,717,719,-1
741,721,718,-1
744,746,721,-1
729,739,716,-1
737,714,738,-1
738,715,739,-1
740,741,718,-1
740,717,742,-1
729,737,739,-1
737,738,739,-1
740,742,741,-1
741,742,744,-1
741,744,721,-1
742,743,744,-1
743,771,744,-1
770,720,745,-1
771,752,746,-1
772,745,747,-1
773,749,748,-1
774,758,749,-1
778,747,753,-1
770,745,772,-1
771,746,744,-1
743,770,772,-1
743,772,771,-1
771,772,778,-1
773,774,749,-1
773,748,785,-1
774,783,758,-1
773,783,774,-1
772,747,778,-1
775,751,750,-1
777,750,752,-1
776,755,751,-1
779,753,754,-1
780,754,755,-1
781,757,756,-1
790,756,765,-1
782,766,757,-1
775,776,751,-1
771,777,752,-1
775,750,777,-1
771,778,777,-1
775,777,776,-1
776,777,778,-1
776,778,780,-1
776,780,755,-1
778,753,779,-1
779,754,780,-1
781,782,757,-1
781,756,790,-1
778,779,780,-1
781,790,782,-1
785,748,760,-1
784,761,759,-1
786,760,761,-1
783,765,758,-1
789,759,764,-1
787,764,762,-1
788,769,763,-1
784,786,761,-1
785,760,786,-1
773,785,783,-1
783,785,784,-1
784,785,786,-1
784,759,789,-1
783,790,765,-1
789,764,787,-1
783,784,789,-1
783,789,790,-1
787,762,1051,-1
791,788,763,-1
789,787,1051,-1
789,1051,788,-1
791,763,766,-1
792,768,767,-1
794,767,769,-1
793,1036,768,-1
782,791,766,-1
782,790,791,-1
790,789,791,-1
789,788,791,-1
788,794,769,-1
792,793,768,-1
792,767,794,-1
788,1058,794,-1
792,794,793,-1
793,794,1058,-1
827,796,795,-1
828,797,796,-1
831,795,799,-1
829,806,797,-1
830,800,798,-1
832,799,800,-1
833,802,801,-1
834,803,802,-1
835,812,803,-1
827,828,796,-1
828,829,797,-1
827,795,831,-1
830,798,839,-1
827,829,828,-1
827,831,829,-1
829,831,830,-1
829,830,838,-1
830,832,800,-1
831,799,832,-1
833,834,802,-1
833,801,846,-1
834,835,803,-1
830,831,832,-1
833,835,834,-1
839,798,807,-1
836,805,804,-1
838,804,806,-1
837,809,805,-1
840,807,808,-1
841,808,809,-1
842,811,810,-1
844,810,812,-1
843,822,811,-1
829,838,806,-1
830,839,838,-1
836,837,805,-1
836,804,838,-1
837,841,809,-1
836,838,837,-1
837,838,841,-1
838,839,841,-1
835,844,812,-1
839,807,840,-1
840,808,841,-1
842,843,811,-1
842,810,844,-1
839,840,841,-1
842,844,843,-1
843,844,852,-1
846,801,814,-1
845,815,813,-1
847,814,815,-1
848,817,816,-1
849,818,817,-1
850,825,818,-1
957,816,953,-1
851,954,819,-1
851,819,826,-1
845,813,852,-1
845,847,815,-1
846,814,847,-1
848,849,817,-1
833,846,835,-1
835,846,845,-1
835,845,844,-1
845,846,847,-1
849,850,818,-1
848,816,957,-1
851,958,954,-1
848,850,849,-1
848,957,850,-1
850,851,857,-1
850,957,851,-1
851,957,958,-1
852,813,820,-1
853,820,821,-1
854,821,822,-1
855,824,823,-1
857,823,825,-1
856,956,824,-1
959,826,955,-1
845,852,844,-1
843,854,822,-1
852,820,853,-1
853,821,854,-1
855,856,824,-1
843,852,854,-1
852,853,854,-1
850,857,825,-1
851,826,858,-1
851,858,857,-1
855,823,857,-1
856,960,956,-1
858,826,959,-1
855,857,856,-1
856,857,858,-1
856,858,960,-1
858,959,960,-1
907,859,860,-1
915,861,868,-1
909,860,862,-1
908,863,861,-1
910,864,863,-1
926,862,879,-1
911,880,864,-1
906,859,907,-1
906,907,915,-1
907,860,909,-1
915,908,861,-1
908,910,863,-1
909,862,926,-1
910,911,864,-1
911,927,880,-1
915,907,908,-1
907,909,908,-1
908,909,910,-1
909,911,910,-1
909,926,911,-1
911,926,927,-1
912,866,865,-1
906,865,859,-1
913,870,866,-1
914,868,867,-1
916,867,869,-1
917,873,870,-1
918,869,871,-1
919,871,872,-1
920,874,873,-1
922,872,875,-1
921,877,874,-1
923,875,876,-1
925,876,878,-1
938,878,891,-1
924,893,877,-1
912,865,906,-1
912,913,866,-1
914,867,916,-1
914,915,868,-1
916,869,918,-1
912,906,914,-1
912,916,913,-1
913,916,917,-1
906,915,914,-1
912,914,916,-1
913,917,870,-1
917,920,873,-1
918,871,919,-1
920,921,874,-1
919,872,922,-1
918,920,917,-1
916,918,917,-1
918,919,920,-1
920,919,921,-1
919,922,921,-1
922,875,923,-1
921,924,877,-1
923,876,925,-1
925,878,938,-1
924,940,893,-1
921,922,924,-1
922,923,924,-1
924,923,925,-1
925,938,940,-1
924,925,940,-1
927,881,880,-1
928,882,881,-1
930,879,883,-1
931,885,884,-1
932,886,885,-1
994,884,961,-1
934,962,887,-1
927,928,881,-1
926,879,930,-1
928,929,882,-1
930,883,936,-1
931,932,885,-1
927,926,928,-1
926,930,928,-1
928,930,929,-1
932,933,886,-1
931,884,994,-1
934,995,962,-1
931,933,932,-1
931,934,933,-1
931,994,934,-1
934,994,995,-1
929,888,882,-1
935,889,888,-1
936,883,889,-1
937,894,890,-1
939,891,892,-1
940,896,893,-1
941,892,894,-1
942,890,895,-1
943,895,896,-1
944,898,897,-1
933,902,886,-1
946,887,899,-1
947,901,900,-1
1000,899,967,-1
949,897,902,-1
945,905,898,-1
950,900,903,-1
951,903,904,-1
929,935,888,-1
935,936,889,-1
929,936,935,-1
929,930,936,-1
937,941,894,-1
937,890,942,-1
938,891,939,-1
941,939,892,-1
940,943,896,-1
942,895,943,-1
944,945,898,-1
937,942,941,-1
938,939,940,-1
939,943,940,-1
941,943,939,-1
941,942,943,-1
934,887,946,-1
947,900,950,-1
946,899,1000,-1
947,948,901,-1
933,947,949,-1
933,934,946,-1
933,946,947,-1
946,948,947,-1
946,1000,948,-1
933,949,902,-1
944,897,949,-1
945,952,905,-1
950,903,951,-1
944,949,945,-1
945,949,952,-1
949,947,950,-1
949,950,952,-1
950,951,952,-1
958,953,954,-1
957,953,958,-1
960,955,956,-1
959,955,960,-1
995,961,962,-1
996,964,963,-1
997,965,964,-1
1017,963,984,-1
999,985,966,-1
994,961,995,-1
996,997,964,-1
996,963,1017,-1
997,998,965,-1
996,998,997,-1
996,1017,998,-1
998,1017,999,-1
948,968,901,-1
1002,967,969,-1
1001,970,968,-1
1003,971,970,-1
1005,969,972,-1
1006,972,973,-1
1007,904,974,-1
952,978,905,-1
1008,974,975,-1
1004,976,971,-1
1009,977,976,-1
1010,975,977,-1
1012,973,979,-1
1011,979,978,-1
1013,981,980,-1
1015,982,965,-1
1016,966,983,-1
1015,980,982,-1
1014,988,981,-1
948,1001,968,-1
1000,967,1002,-1
1001,1003,970,-1
1002,969,1005,-1
1003,1004,971,-1
1005,972,1006,-1
1006,973,1012,-1
948,1000,1001,-1
1000,1002,1001,-1
1001,1002,1003,-1
1002,1005,1003,-1
1003,1005,1004,-1
1004,1005,1006,-1
1008,975,1010,-1
951,904,1007,-1
1008,1007,974,-1
952,1011,978,-1
1004,1009,976,-1
1009,1010,977,-1
1012,979,1011,-1
951,1007,952,-1
952,1007,1011,-1
1008,1011,1007,-1
1004,1006,1009,-1
1009,1012,1010,-1
1009,1006,1012,-1
1012,1011,1010,-1
1008,1010,1011,-1
998,1015,965,-1
999,966,1016,-1
998,999,1016,-1
1013,980,1015,-1
1013,1014,981,-1
1014,1021,988,-1
1013,1015,1014,-1
998,1016,1015,-1
1014,1015,1021,-1
1015,1016,1021,-1
1018,984,985,-1
1020,986,987,-1
1017,984,1018,-1
999,1018,985,-1
999,1017,1018,-1
1019,986,1020,-1
1021,989,988,-1
1019,983,986,-1
1022,992,989,-1
1023,991,990,-1
1025,990,992,-1
1026,987,993,-1
1024,1077,991,-1
1016,983,1019,-1
1016,1022,1021,-1
1021,1022,989,-1
1020,987,1026,-1
1016,1019,1020,-1
1016,1020,1022,-1
1022,1020,1026,-1
1023,1024,991,-1
1023,990,1025,-1
1022,1025,992,-1
1026,993,1078,-1
1024,1079,1077,-1
1023,1025,1024,-1
1022,1026,1025,-1
1024,1025,1026,-1
1024,1026,1079,-1
1051,762,1027,-1
1052,1029,1028,-1
1053,1030,1029,-1
1058,1027,1034,-1
1056,1028,1032,-1
1055,1033,1031,-1
1057,1032,1033,-1
1054,1040,1030,-1
1063,1031,1039,-1
1052,1053,1029,-1
1053,1054,1030,-1
1052,1054,1053,-1
1051,1027,1058,-1
788,1051,1058,-1
1052,1028,1056,-1
1055,1057,1033,-1
1056,1032,1057,-1
1052,1056,1054,-1
1054,1056,1055,-1
1055,1056,1057,-1
1055,1031,1063,-1
1054,1064,1040,-1
1063,1039,1066,-1
1054,1055,1063,-1
1054,1063,1064,-1
1059,1034,1035,-1
1060,1035,1036,-1
1061,1038,1037,-1
1064,1037,1040,-1
1062,1041,1038,-1
1058,1034,1059,-1
793,1060,1036,-1
1059,1035,1060,-1
1061,1062,1038,-1
1061,1037,1064,-1
793,1058,1060,-1
1058,1059,1060,-1
1061,1064,1062,-1
1062,1065,1041,-1
1062,1064,1065,-1
1064,1063,1065,-1
1063,1067,1065,-1
1066,1039,1042,-1
1067,1047,1043,-1
1068,1042,1044,-1
1072,1044,1048,-1
1065,1067,1043,-1
1063,1066,1068,-1
1063,1068,1067,-1
1066,1042,1068,-1
1068,1044,1072,-1
1067,1068,1072,-1
1065,1043,1041,-1
1069,1046,1045,-1
1071,1045,1047,-1
1070,1050,1046,-1
1073,1048,1049,-1
1074,1049,1050,-1
1067,1071,1047,-1
1069,1070,1046,-1
1069,1045,1071,-1
1069,1071,1070,-1
1070,1071,1072,-1
1070,1074,1050,-1
1072,1048,1073,-1
1073,1049,1074,-1
1067,1072,1071,-1
1070,1072,1074,-1
1072,1073,1074,-1
1078,993,1076,-1
1079,1076,1077,-1
1078,1076,1079,-1
1026,1078,1079,-1
1111,1081,1082,-1
1118,1082,1089,-1
1112,1084,1083,-1
1113,1090,1084,-1
1110,1085,1081,-1
1114,1086,1085,-1
1115,1139,1086,-1
1116,1083,1087,-1
1117,1087,1088,-1
1167,1088,1140,-1
1119,1092,1090,-1
1120,1089,1091,-1
1121,1093,1092,-1
1123,1091,1094,-1
1122,1095,1093,-1
1110,1081,1111,-1
1111,1082,1118,-1
1112,1113,1084,-1
1110,1111,1112,-1
1111,1118,1113,-1
1111,1113,1112,-1
1110,1114,1085,-1
1114,1115,1086,-1
1115,1166,1139,-1
1112,1083,1116,-1
1116,1087,1117,-1
1117,1088,1167,-1
1110,1116,1114,-1
1114,1116,1115,-1
1117,1166,1115,-1
1110,1112,1116,-1
1116,1117,1115,-1
1117,1167,1166,-1
1113,1119,1090,-1
1118,1089,1120,-1
1119,1121,1092,-1
1120,1091,1123,-1
1121,1122,1093,-1
1122,1124,1095,-1
1113,1118,1119,-1
1118,1120,1119,-1
1119,1120,1121,-1
1120,1122,1121,-1
1120,1123,1122,-1
1122,1123,1124,-1
1124,1096,1095,-1
1125,1097,1096,-1
1128,1094,1099,-1
1126,1098,1097,-1
1127,1102,1098,-1
1129,1101,1100,-1
1131,1099,1102,-1
1132,1153,1103,-1
1133,1103,1104,-1
1130,1105,1101,-1
1214,1100,1193,-1
1135,1194,1106,-1
1136,1106,1107,-1
1134,1157,1105,-1
1137,1109,1108,-1
1216,1107,1195,-1
1185,1108,1158,-1
1124,1125,1096,-1
1123,1094,1128,-1
1125,1126,1097,-1
1126,1127,1098,-1
1129,1130,1101,-1
1128,1099,1131,-1
1127,1131,1102,-1
1124,1123,1125,-1
1123,1128,1125,-1
1125,1128,1126,-1
1126,1131,1127,-1
1126,1128,1131,-1
1132,1103,1133,-1
1132,1133,1180,-1
1130,1134,1105,-1
1129,1100,1214,-1
1135,1215,1194,-1
1135,1106,1136,-1
1129,1134,1130,-1
1129,1135,1134,-1
1129,1214,1135,-1
1135,1214,1215,-1
1134,1135,1136,-1
1134,1136,1137,-1
1134,1184,1157,-1
1136,1107,1216,-1
1137,1138,1109,-1
1137,1108,1185,-1
1134,1137,1184,-1
1136,1138,1137,-1
1136,1216,1138,-1
1184,1137,1185,-1
1166,1141,1139,-1
1169,1140,1142,-1
1168,1144,1141,-1
1170,1142,1143,-1
1177,1145,1150,-1
1172,1143,1145,-1
1171,1152,1144,-1
1166,1168,1141,-1
1167,1140,1169,-1
1166,1167,1168,-1
1167,1169,1168,-1
1169,1142,1170,-1
1168,1171,1144,-1
1170,1143,1172,-1
1172,1145,1177,-1
1171,1179,1152,-1
1168,1169,1171,-1
1169,1170,1171,-1
1171,1170,1172,-1
1171,1172,1179,-1
1172,1177,1179,-1
1174,622,1147,-1
1173,1148,1146,-1
1175,1147,1148,-1
1173,1174,1175,-1
1173,1175,1148,-1
643,1174,1173,-1
1174,1147,1175,-1
1178,1150,1151,-1
1179,1154,1152,-1
1180,1151,1153,-1
1181,1104,1154,-1
1182,1156,1155,-1
1184,1155,1157,-1
1183,1160,1156,-1
1186,1158,1159,-1
1177,1150,1178,-1
1180,1178,1151,-1
1132,1180,1153,-1
1179,1181,1154,-1
1133,1104,1181,-1
1182,1183,1156,-1
1177,1178,1179,-1
1180,1181,1178,-1
1180,1133,1181,-1
1178,1181,1179,-1
1182,1155,1184,-1
1183,1187,1160,-1
1185,1158,1186,-1
1182,1184,1183,-1
1183,1184,1187,-1
1184,1185,1187,-1
1185,1186,1187,-1
1188,1149,1161,-1
1191,1161,1164,-1
1190,1162,1163,-1
1272,1164,1242,-1
1189,1165,1162,-1
1192,1243,1165,-1
1188,1176,1149,-1
1188,1161,1191,-1
1189,1162,1190,-1
1188,1190,1176,-1
1188,1191,1189,-1
1188,1189,1190,-1
1272,1191,1164,-1
1272,1192,1191,-1
1189,1192,1165,-1
1191,1192,1189,-1
1215,1193,1194,-1
1138,1196,1109,-1
1218,1195,1197,-1
1217,1198,1196,-1
1219,1201,1198,-1
1220,1197,1199,-1
1221,1199,1200,-1
1222,1202,1201,-1
1223,1203,1202,-1
1229,1200,1208,-1
1225,1205,1204,-1
1226,1206,1205,-1
1230,1204,1209,-1
1228,1210,1207,-1
1270,1240,1206,-1
1271,1207,1241,-1
1214,1193,1215,-1
1216,1195,1218,-1
1138,1217,1196,-1
1217,1219,1198,-1
1218,1197,1220,-1
1219,1222,1201,-1
1220,1199,1221,-1
1222,1223,1202,-1
1223,1224,1203,-1
1221,1200,1229,-1
1229,1208,1267,-1
1138,1216,1217,-1
1216,1218,1217,-1
1217,1218,1219,-1
1218,1220,1219,-1
1219,1220,1222,-1
1222,1220,1221,-1
1222,1221,1223,-1
1223,1229,1224,-1
1223,1221,1229,-1
1229,1267,1224,-1
1225,1226,1205,-1
1225,1204,1230,-1
1226,1227,1206,-1
1228,1207,1271,-1
1225,1227,1226,-1
1225,1230,1227,-1
1227,1230,1228,-1
1227,1228,1271,-1
1227,1270,1206,-1
1227,1271,1270,-1
1231,1209,1210,-1
1280,1213,1250,-1
1232,1241,1211,-1
1233,1211,1212,-1
1234,1253,1213,-1
1284,1212,1254,-1
1228,1231,1210,-1
1230,1209,1231,-1
1228,1230,1231,-1
1271,1241,1232,-1
1271,1234,1280,-1
1232,1211,1233,-1
1233,1212,1284,-1
1271,1232,1233,-1
1280,1234,1213,-1
1234,1283,1253,-1
1271,1233,1234,-1
1234,1233,1284,-1
1234,1284,1283,-1
1265,1159,1235,-1
1187,1237,1160,-1
1266,1235,1236,-1
1224,1236,1203,-1
1267,1208,1237,-1
1268,1239,1238,-1
1270,1238,1240,-1
1269,1250,1239,-1
1186,1159,1265,-1
1266,1265,1235,-1
1266,1236,1224,-1
1187,1267,1237,-1
1186,1265,1187,-1
1266,1267,1265,-1
1187,1265,1267,-1
1266,1224,1267,-1
1268,1269,1239,-1
1268,1238,1270,-1
1269,1280,1250,-1
1268,1270,1269,-1
1269,1270,1280,-1
1270,1271,1280,-1
1275,1242,1245,-1
1273,1244,1243,-1
1274,1246,1244,-1
1285,1245,1255,-1
1276,1247,1246,-1
1277,1248,1247,-1
1278,1249,1248,-1
1279,1257,1249,-1
1272,1242,1275,-1
1272,1273,1192,-1
1272,1274,1273,-1
1272,1275,1274,-1
1274,1275,1276,-1
1192,1273,1243,-1
1273,1274,1244,-1
1274,1276,1246,-1
1275,1245,1285,-1
1276,1277,1247,-1
1277,1278,1248,-1
1278,1279,1249,-1
1279,1287,1257,-1
1275,1277,1276,-1
1275,1285,1277,-1
1277,1285,1278,-1
1278,1285,1287,-1
1278,1287,1279,-1
1281,1252,1251,-1
1283,1251,1253,-1
1282,1362,1252,-1
1281,1282,1252,-1
1281,1251,1283,-1
1282,1380,1362,-1
1284,1254,1379,-1
1281,1283,1282,-1
1282,1283,1284,-1
1282,1284,1380,-1
1287,1255,1257,-1
1288,1258,1256,-1
1288,1262,1258,-1
1289,1256,1259,-1
1381,1259,1363,-1
1290,1261,1260,-1
1291,1263,1261,-1
1292,1260,1262,-1
1293,1264,1263,-1
1294,1365,1264,-1
1285,1255,1287,-1
1286,1288,1256,-1
1288,1292,1262,-1
1286,1290,1288,-1
1286,1256,1289,-1
1381,1289,1259,-1
1286,1289,1291,-1
1289,1294,1293,-1
1381,1294,1289,-1
1290,1260,1292,-1
1290,1291,1261,-1
1291,1293,1263,-1
1293,1294,1264,-1
1286,1291,1290,-1
1290,1292,1288,-1
1291,1289,1293,-1
1308,1146,1297,-1
1176,1295,1149,-1
1306,1296,1295,-1
1173,1146,1308,-1
697,1173,1308,-1
1176,1306,1295,-1
1306,1307,1296,-1
1309,1297,1298,-1
1310,1298,1299,-1
696,1310,1299,-1
1308,1297,1309,-1
697,1308,1310,-1
1308,1309,1310,-1
1309,1298,1310,-1
1311,1163,1300,-1
1307,1303,1296,-1
1312,1300,1301,-1
1313,1301,1302,-1
1190,1163,1311,-1
1311,1300,1312,-1
1176,1311,1306,-1
1176,1190,1311,-1
1306,1311,1307,-1
1307,1314,1303,-1
1312,1301,1313,-1
1311,1312,1307,-1
1307,1312,1314,-1
1312,1313,1314,-1
1314,1305,1303,-1
1315,1302,1304,-1
1316,1320,1305,-1
1314,1316,1305,-1
1314,1313,1316,-1
1313,1302,1315,-1
1315,1304,1341,-1
1316,1342,1320,-1
1313,1315,1316,-1
1316,1315,1342,-1
1339,1325,1317,-1
1340,1317,1318,-1
1339,1317,1340,-1
1340,1318,1348,-1
1339,1340,1347,-1
1341,1304,1319,-1
1343,1319,1321,-1
1344,1321,1322,-1
1342,1324,1320,-1
1345,1322,1323,-1
1346,1326,1324,-1
1347,1323,1325,-1
1348,1318,1326,-1
1341,1319,1343,-1
1343,1321,1344,-1
1342,1346,1324,-1
1315,1341,1342,-1
1341,1343,1342,-1
1343,1344,1346,-1
1343,1346,1342,-1
1344,1322,1345,-1
1345,1323,1347,-1
1339,1347,1325,-1
1346,1348,1326,-1
1344,1345,1346,-1
1346,1345,1348,-1
1345,1347,1348,-1
1340,1348,1347,-1
1350,1329,1328,-1
1351,1402,1329,-1
1352,1327,1330,-1
1350,1351,1329,-1
1350,1328,1435,-1
1350,1435,1351,-1
1349,1327,1352,-1
1352,1330,1354,-1
1349,1352,1354,-1
1349,1331,1327,-1
1354,1330,1332,-1
1356,1332,1334,-1
1353,1333,1331,-1
1355,1337,1333,-1
1357,1334,1335,-1
1358,1335,1336,-1
1359,1338,1337,-1
1360,1419,1338,-1
1349,1353,1331,-1
1354,1332,1356,-1
1353,1355,1333,-1
1356,1334,1357,-1
1357,1335,1358,-1
1355,1359,1337,-1
1359,1360,1338,-1
1349,1354,1353,-1
1353,1354,1355,-1
1354,1356,1355,-1
1355,1356,1359,-1
1356,1357,1359,-1
1357,1358,1360,-1
1359,1357,1360,-1
1358,1453,1360,-1
1379,1254,1361,-1
1380,1361,1362,-1
1379,1361,1380,-1
1284,1379,1380,-1
1382,1363,1364,-1
1383,1366,1365,-1
1384,1367,1366,-1
1385,1368,1367,-1
1388,1364,1370,-1
1386,1369,1368,-1
1389,1370,1371,-1
1390,1371,1372,-1
1381,1363,1382,-1
1381,1383,1294,-1
1381,1384,1383,-1
1381,1382,1384,-1
1294,1383,1365,-1
1383,1384,1366,-1
1384,1385,1367,-1
1384,1382,1385,-1
1382,1364,1388,-1
1385,1386,1368,-1
1386,1387,1369,-1
1388,1370,1389,-1
1389,1371,1390,-1
1390,1372,1445,-1
1382,1388,1385,-1
1385,1388,1386,-1
1386,1389,1387,-1
1386,1388,1389,-1
1387,1389,1390,-1
1391,1374,1373,-1
1392,1376,1374,-1
1395,1375,1377,-1
1394,1425,1376,-1
1393,1398,1375,-1
1396,1377,1378,-1
1391,1392,1374,-1
1391,1393,1392,-1
1392,1393,1394,-1
1391,1373,1399,-1
1393,1375,1395,-1
1392,1394,1376,-1
1395,1377,1396,-1
1393,1395,1394,-1
1391,1399,1393,-1
1395,1396,1394,-1
1394,1396,1459,-1
1399,1373,1397,-1
1400,1397,1398,-1
1396,1378,1486,-1
1393,1400,1398,-1
1393,1399,1400,-1
1399,1397,1400,-1
1435,1328,1401,-1
1436,1405,1402,-1
1437,1401,1403,-1
1442,1403,1408,-1
1438,1409,1404,-1
1444,1404,1410,-1
1439,1406,1405,-1
1440,1413,1406,-1
1441,1408,1407,-1
1387,1407,1369,-1
1443,1412,1409,-1
1446,1411,1412,-1
1445,1372,1411,-1
1447,1415,1413,-1
1448,1410,1414,-1
1449,1422,1415,-1
1450,1414,1416,-1
1451,1416,1417,-1
1351,1436,1402,-1
1435,1401,1437,-1
1436,1439,1405,-1
1437,1403,1442,-1
1438,1404,1444,-1
1351,1435,1436,-1
1435,1439,1436,-1
1435,1438,1439,-1
1435,1437,1438,-1
1437,1443,1438,-1
1437,1442,1443,-1
1438,1444,1439,-1
1439,1440,1406,-1
1440,1447,1413,-1
1439,1444,1440,-1
1387,1441,1407,-1
1441,1442,1408,-1
1438,1443,1409,-1
1444,1410,1448,-1
1445,1411,1446,-1
1443,1446,1412,-1
1387,1445,1441,-1
1441,1446,1442,-1
1442,1446,1443,-1
1387,1390,1445,-1
1441,1445,1446,-1
1447,1449,1415,-1
1449,1456,1422,-1
1448,1414,1450,-1
1450,1416,1451,-1
1451,1417,1457,-1
1440,1448,1447,-1
1444,1448,1440,-1
1447,1450,1449,-1
1447,1448,1450,-1
1449,1450,1451,-1
1449,1451,1456,-1
1452,1336,1418,-1
1454,1418,1420,-1
1455,1420,1421,-1
1456,1421,1422,-1
1453,1423,1419,-1
1457,1417,1423,-1
1358,1336,1452,-1
1452,1418,1454,-1
1360,1453,1419,-1
1455,1454,1420,-1
1455,1421,1456,-1
1453,1457,1423,-1
1358,1452,1453,-1
1452,1454,1453,-1
1453,1454,1457,-1
1455,1457,1454,-1
1455,1456,1457,-1
1451,1457,1456,-1
1460,1424,1426,-1
1458,1424,1460,-1
1458,1460,1462,-1
1394,1459,1425,-1
1460,1426,1462,-1
1458,1427,1424,-1
1461,1430,1427,-1
1462,1426,1428,-1
1463,1428,1429,-1
1465,1429,1431,-1
1466,1431,1432,-1
1467,1432,1433,-1
1464,1434,1430,-1
1458,1461,1427,-1
1458,1462,1461,-1
1462,1428,1463,-1
1463,1429,1465,-1
1461,1464,1430,-1
1465,1431,1466,-1
1466,1432,1467,-1
1464,1468,1434,-1
1461,1462,1463,-1
1461,1463,1464,-1
1463,1465,1464,-1
1464,1465,1466,-1
1466,1467,1468,-1
1464,1466,1468,-1
1459,1470,1425,-1
1486,1378,1469,-1
1487,1471,1470,-1
1489,1469,1472,-1
1488,1473,1471,-1
1490,1474,1473,-1
1491,1475,1474,-1
1492,1476,1475,-1
1494,1472,1477,-1
1495,1477,1478,-1
1496,1478,1479,-1
1502,1480,1485,-1
1497,1479,1480,-1
1459,1487,1470,-1
1487,1488,1471,-1
1486,1469,1489,-1
1488,1490,1473,-1
1489,1472,1494,-1
1396,1486,1459,-1
1459,1486,1487,-1
1486,1489,1487,-1
1487,1489,1488,-1
1488,1489,1494,-1
1488,1494,1490,-1
1490,1491,1474,-1
1491,1492,1475,-1
1492,1493,1476,-1
1490,1495,1491,-1
1494,1477,1495,-1
1490,1494,1495,-1
1495,1478,1496,-1
1496,1479,1497,-1
1497,1480,1502,-1
1495,1496,1491,-1
1491,1496,1492,-1
1492,1502,1493,-1
1492,1496,1497,-1
1492,1497,1502,-1
1498,1433,1481,-1
1468,1483,1434,-1
1493,1482,1476,-1
1499,1481,1482,-1
1500,1484,1483,-1
1501,1485,1484,-1
1467,1433,1498,-1
1498,1481,1499,-1
1468,1500,1483,-1
1499,1482,1493,-1
1500,1501,1484,-1
1467,1498,1468,-1
1468,1498,1500,-1
1498,1499,1500,-1
1499,1493,1501,-1
1499,1501,1500,-1
1501,1502,1485,-1
1493,1502,1501,-1
]

colorPerVertex FALSE

color Color { color [
 0 0 0,
 1 1 1,
 0.976471 0.843137 0.172549, # default colour
] }

colorIndex [
0 0 0 0 0 0 0 0 0 0 0 0 0 0 0 0 0 0 0 0 0 0 0 0 0 0 0 0 0 0 0 0 0 0 0 0 0 0 0 0 0 0 0 0 0 0 0 0 0 0 0 0 0 0 0 0 0 0 0 0 0 0 0 0 0 0 0 0 0 0 0 0 0 0 0 0 0 0 0 0 0 0 0 0 0 0 0 0 0 0 0 0 0 0 0 0 0 0 0 0 0 0 0 0 0 0 0 0 0 0 0 0 0 0 0 0 0 0 0 0 0 0 0 0 0 0 0 0 0 0 0 0 0 0 0 0 0 0 0 0 0 0 0 0 0 0 0 0 0 0 0 0 0 0 0 0 0 0 0 0 0 0 0 0 0 0 0 0 0 0 0 0 0 0 0 0 0 0 0 0 0 0 0 0 0 0 0 0 0 0 0 0 0 0 0 0 0 0 0 0 0 0 0 0 0 0 0 0 0 0 0 0 0 0 0 0 0 0 0 0 0 0 0 0 0 0 0 0 0 0 0 0 0 0 0 0 0 0 0 0 0 0 0 0 0 0 0 0 0 0 0 0 0 0 0 0 0 0 0 0 0 0 0 0 0 0 0 0 0 0 0 0 0 0 0 0 0 0 0 0 0 0 0 0 0 0 0 0 0 0 0 0 0 0 0 0 0 0 0 0 0 0 0 0 0 0 0 0 0 0 0 0 0 0 0 0 0 0 0 0 0 0 0 0 0 0 0 0 0 0 0 0 0 0 0 0 0 0 0 0 0 0 0 0 0 0 0 0 0 0 0 0 0 0 0 0 0 0 0 0 0 0 0 0 0 0 0 0 0 0 0 0 0 0 0 0 0 0 0 0 0 0 0 0 0 0 0 0 0 0 0 0 0 0 0 0 0 0 0 0 0 0 0 0 0 0 0 0 0 0 0 0 0 0 0 0 0 0 0 0 0 0 0 0 0 0 0 0 0 0 0 0 0 0 0 0 0 0 0 0 0 0 0 0 0 0 0 0 0 0 0 0 0 0 0 0 0 0 0 0 0 0 0 0 0 0 0 0 0 0 0 0 0 0 0 0 0 0 0 0 0 0 0 0 0 0 0 0 0 0 0 0 0 0 0 0 0 0 0 0 0 0 0 0 0 0 0 0 0 0 0 0 0 0 0 0 0 0 0 0 0 0 0 0 0 0 0 0 0 0 0 0 0 0 0 0 0 0 0 0 0 0 0 0 0 0 0 0 0 0 0 0 0 0 0 0 0 0 0 0 0 0 0 0 0 0 0 0 0 0 0 0 0 0 0 0 0 0 0 0 0 0 0 0 0 0 0 0 0 0 0 0 0 0 0 0 0 0 0 0 0 0 0 0 0 0 0 0 0 0 0 0 0 0 0 0 0 0 0 0 0 0 0 0 0 0 0 0 0 0 0 0 0 0 0 0 0 0 0 0 0 0 0 0 0 0 0 0 0 0 0 0 0 0 0 0 0 0 0 0 0 0 0 0 0 0 0 0 0 0 0 0 0 0 0 0 0 0 0 0 0 0 0 0 0 0 0 0 0 0 0 0 0 0 0 0 0 0 0 0 0 0 0 0 0 0 0 0 0 0 0 0 0 0 0 0 0 0 0 0 0 0 0 0 0 0 0 0 0 0 0 0 0 0 0 0 0 0 0 0 0 0 0 0 0 0 0 0 0 0 0 0 0 0 0 0 0 0 0 0 0 0 0 0 0 0 0 0 0 0 0 0 0 0 0 0 0 0 0 0 0 0 0 0 0 0 0 0 0 0 0 0 0 0 0 0 0 0 0 0 0 0 0 0 0 0 0 0 0 0 0 0 0 0 1 1 1 1 1 1 1 1 1 1 1 1 1 1 1 1 1 1 1 1 1 1 1 1 1 1 1 1 1 1 1 1 1 1 1 1 1 1 1 1 1 1 1 1 1 1 1 1 1 1 1 1 1 1 1 1 1 1 1 1 1 1 1 1 1 1 1 1 1 1 1 1 1 1 1 1 1 1 1 1 1 1 1 1 1 1 1 1 1 1 1 1 1 1 1 1 1 1 1 1 1 1 1 1 1 1 1 1 1 1 1 1 1 1 1 1 1 1 1 1 1 1 1 1 1 1 1 1 1 1 1 1 1 1 1 1 1 1 1 1 1 1 1 1 1 1 1 1 1 1 1 1 1 1 1 1 1 1 1 1 1 1 1 1 1 1 1 1 1 1 1 1 1 1 1 1 1 1 1 1 1 1 1 1 1 1 1 1 1 1 1 1 1 1 1 1 1 1 1 1 1 1 1 1 1 1 1 1 1 1 1 1 1 1 1 1 1 1 1 1 1 1 1 1 1 1 1 1 1 1 1 1 1 1 1 1 1 1 1 1 1 1 1 1 1 1 1 1 1 1 1 1 1 1 1 1 1 1 1 1 1 1 1 1 1 1 1 1 1 1 1 1 1 1 1 1 1 1 1 1 1 1 1 1 1 1 1 1 1 1 1 1 1 1 1 1 1 1 1 1 1 1 1 1 1 1 1 1 1 1 1 1 1 1 1 1 1 1 1 1 1 1 1 1 1 1 1 1 1 1 1 1 1 1 1 1 1 1 1 1 1 1 1 1 1 1 1 1 1 1 1 1 1 1 1 1 1 1 1 1 1 1 1 1 1 1 1 1 1 1 1 1 1 1 1 1 1 1 1 1 1 1 1 1 1 1 1 1 1 1 1 1 1 1 1 1 1 1 1 1 1 1 1 1 1 1 1 1 1 1 1 1 1 1 1 1 1 1 1 1 1 1 1 1 1 1 1 1 1 1 1 1 1 1 1 1 1 1 1 1 1 1 1 1 1 1 1 1 1 1 1 1 1 1 1 1 1 1 1 1 1 1 1 1 1 1 1 1 1 1 1 1 1 1 1 1 1 1 1 1 1 1 1 1 1 1 1 1 1 1 1 1 1 1 1 1 1 1 1 1 1 1 1 1 1 1 1 1 1 1 1 1 1 1 1 1 1 1 1 1 1 1 1 1 1 1 1 1 1 1 1 1 1 1 1 1 1 1 1 1 1 1 1 1 1 1 1 1 1 1 1 1 1 1 1 1 1 1 1 1 1 1 1 1 1 1 1 1 1 1 1 1 1 1 1 1 1 1 1 1 1 1 1 1 1 1 1 1 1 1 1 1 1 1 1 1 1 1 1 1 1 1 1 1 1 1 1 1 1 1 1 1 1 1 1 1 1 1 1 1 1 1 1 1 1 1 1 1 1 1 1 1 1 1 1 1 1 1 1 1 1 1 1 1 1 1 1 1 1 1 1 1 1 1 1 1 1 1 1 1 1 1 1 1 1 1 1 1 1 1 1 1 1 1 1 1 1 1 1 1 1 1 1 1 1 1 1 1 1 1 1 1 1 1 1 1 1 1 1 1 1 1 1 1 1 1 1 1 1 1 1 1 1 1 1 1 1 1 1 1 1 1 1 1 1 1 1 1 1 1 1 1 1 1 1 1 1 1 1 1 1 1 1 1 1 1 1 1 1 1 1 1 1 1 1 1 1 1 1 1 1 1 1 1 1 1 1 1 1 1 1 1 1 1 1 1 1 1 1 1 1 1 1 1 1 1 1 1 1 1 1 1 1 1 1 1 1 1 1 1 1 1 1 1 1 1 1 1 1 1 1 1 1 1 1 1 1 1 1 1 1 1 1 1 1 1 1 1 1 1 1 1 1 1 1 1 1 1 1 1 1 1 1 1 1 1 1 1 1 1 1 1 1 1 1 1 1 1 1 1 1 1 1 1 1 1 1 1 1 1 1 1 1 1 1 1 1 1 1 1 1 1 1 1 1 1 1 1 1 1 1 1 1 1 1 1 1 1 1 1 1 1 1 1 1 1 1 1 1 1 1 1 1 1 1 1 1 1 1 1 1 1 1 1 1 1 1 1 1 1 1 1 1 1 1 1 1 1 1 1 1 1 1 1 1 1 1 1 1 1 1 1 1 1 1 1 1 1 1 1 1 1 1 1 1 1 1 1 1 1 1 1 1 1 1 1 1 1 1 1 1 1 1 1 1 1 1 1 1 1 1 1 1 1 1 1 1 1 1 1 1 1 1 1 1 1 1 1 1 1 1 1 1 1 1 1 1 1 1 1 1 1 1 1 1 1 1 1 1 1 1 1 1 1 1 1 1 1 1 1 1 1 1 1 1 1 1 1 1 1 1 1 1 1 1 1 1 1 1 1 1 1 1 1 1 1 1 1 1 1 1 1 1 1 1 1 1 1 1 1 1 1 1 1 1 1 1 1 1 1 1 1 1 1 1 1 1 1 1 1 1 1 1 1 1 1 1 1 1 1 1 1 1 1 1 1 1 1 1 1 1 1 1 1 1 1 1 1 1 1 1 1 1 1 1 1 1 1 1 1 1 1 1 1 1 1 1 1 1 1 1 1 1 1 1 1 1 1 1 1 1 1 1 1 1 1 1 1 1 1 1 1 1 1 1 1 1 1 1 1 1 1 1 1 1 1 1 1 1 1 1 1 1 1 1 1 1 1 1 1 1 1 1 1 1 1 1 1 1 1 1 1 1 1 1 1 1 1 1 1 1 1 1 1 1 1 1 1 1 1 1 1 1 1 1 1 1 1 1 1 1 1 1 1 1 1 1 1 1 1 1 1 1 1 1 1 1 1 1 1 1 1 1 1 1 1 1 1 1 1 1 1 1 1 1 1 1 1 1 1 1 1 1 1 1 1 1 1 1 1 1 1 1 1 1 1 1 1 1 1 1 1 1 1 1 1 1 1 1 1 1 1 1 1 1 1 1 1 1 1 1 1 1 1 1 1 1 1 1 1 1 1 1 1 1 1 1 1 1 1 1 1 1 1 1 1 1 1 1 1 1 1 1 1 1 1 1 1 1 1 1 1 1 1 1 1 1 1 1 1 1 1 1 1 1 1 1 1 1 1 1 1 1 1 1 1 1 1 1 1 1 1 1 1 1 1 1 1 1 1 1 1 1 1 1 1 1 1 1 1 1 1 1 1 1 1 1 1 1 1 1 1 1 1 1 1 1 1 1 1 1 1 1 1 1 1 1 1 1 1 1 1 1 1 1 1 1 1 1 1 1 1 1 1 1 1 1 1 1 1 1 1 1 1 1 1 1 1 1 1 1 1 1 1 1 1 1 1 1 1 1 1 1 1 1 1 1 1 1 1 1 1 1 1 1 1 1 1 1 1 1 1 1 1 1 1 1 1 1 1 1 1 1 1 1 1 1 1 1 1 1 1 1 1 1 1 1 1 1 1 1 1 1 1 1 1 1 1 1 1 1 1 1 1 1 1 1 1 1 1 1 1 1 1 1 1 1 1 1 1 1 1 1 1 1 1 1 1 1 1 1 1 1 1 1 1 1 1 1 1 1 1 1 1 1 1 1 1 1 1 1 1 1 1 1 1 1 1 1 1 1 1 1 1 1 1 1 1 1 1 1 1 1 1 1 1 1 1 1 1 1 1 1 1 1 1 1 1 1 1 1 1 1 1 1 1 1 1 1 1 1 1 1 1 1 1 1 1 1 1 1 1 1 1 1 1 1 1 1 1 1 1 1 1 1 1 1 1 1 1 1 1 1 1 1 1 1 1 1 1 1 1 1 1 1 1 1 1 1 1 1 1 1 1 1 1 1 1 1 1 1 1 1 1 1 1 1 1 1 1 1 1 1 1 1 1 1 1 1 1 1 1 1 1 1 1 1 1 1 1 1 1 1 1 1 1 1 1 1 1 1 1 1 1 1 1 1 1 1 1 1 1 1 1 1 1 1 1 1 1 1 1 1 1 1 1 1 1 1 1 1 1 1 1 1 1 1 1 1 1 1 1 1 1 1 1 1 1 1 1 1 1 1 1 1 1 1 1 1 1 1 1 1 1 1 1 1 1 1 1 1 1 1 1 1 1 1 1 1 1 1 1 1 1 1 1 1 1 1 1 1 1 1 1 1 1 1 1 1 1 1 1 1 1 1 1 1 1 1 1 1 1 1 1 1 1 1 1 1 1 1 1 1 1 1 1 1 1 1 1 1 1 1 1 1 1 1 1 1 1 1 1 1 1 1 1 1 1 1 1 1 1 1 1 1 1 1 1 1 1 1 1 1 1 1 1 1 1 1 1 1 1 1 1 1 1 1 1 1 1 1 1 1 1 1 1 1 1 1 1 1 1 1 1 1 1 1 1 1 1 1 1 1 1 1 1 1 1 1 1 1 1 1 1 1 1 1 1 1 1 1 1 1 1 1 1 1 1 1 1 1 1 1 1 1 1 1 1 1 1 1 1 1 1 1 1 1 1 1 1 1 1 1 1 1 1 1 1 1 1 1 1 1 1 1 1 1 1 1 1 1 1 1 1 1 1 1 1 1 1 1 1 1 1 1 1 1 1 1 1 1 1 1 1 1 1 1 1 1 1 1 1 1 1 1 1 1 1 1 1 1 1 1 1 1 1 1 1 1 1 1 1 1 1 1 1 1 1 1 1 1 1 1 1 1 1 1 1 1 1 1 1 1 1 1 1 1 1 1 1 1 1 1 1 1 1 1 1 1 1 1 1 1 1 1 1 1 1 1 1 1 1 1 1 1 1 1 1 1 1 1 1 1 1 1 1 1 1 1 1 1 1 1 1 1 1 1 1 1 1 1 1 1 1 1 1 1 1 1 1 1 1 1 1 1 1 1 1 1 1 1 1 1 1 1 1 1 1 1 1 1 1 1 1 1 1 1 1 1 1 1 1 1 1 1 1 1 1 1 1 ]

}

}
