#VRML V2.0 utf8

Shape {

appearance Appearance { material Material {
ambientIntensity 0.3
diffuseColor 0.97647 0.843137 0.172549
specularColor 0.2 0.2 0.2
shininess 0.3
} }

geometry IndexedFaceSet {

creaseAngle 0.5

coord Coordinate { point [
0 0 0,
0 0 1,
1.49454 0.428571 1,
1.49454 0.436273 1,
1.52549 0.440196 1,
1.52549 0.504424 1,
1.55354 0.440196 1,
1.58449 0.428571 1,
1.58449 0.436273 1,
1.55354 0.505296 1,
1.54729 0.522006 1,
1.43511 0.615735 1,
1.43511 0.623436 1,
1.45705 0.611955 1,
1.49134 0.611955 1,
1.5175 0.615735 1,
1.5175 0.623436 1,
1.57577 0.615735 1,
1.57577 0.623436 1,
1.60047 0.611955 1,
1.61777 0.611955 1,
1.63913 0.615735 1,
1.65004 0.615735 1,
1.63913 0.623436 1,
1.65004 0.623436 1,
1.67198 0.611955 1,
1.49454 0.428571 1.2,
1.49454 0.436273 1.2,
1.52549 0.440196 1.2,
1.52549 0.504424 1.2,
1.55354 0.440196 1.2,
1.58449 0.428571 1.2,
1.58449 0.436273 1.2,
1.55354 0.505296 1.2,
1.54729 0.522006 1.2,
1.43511 0.615735 1.2,
1.43511 0.623436 1.2,
1.45705 0.611955 1.2,
1.49134 0.611955 1.2,
1.5175 0.615735 1.2,
1.5175 0.623436 1.2,
1.57577 0.615735 1.2,
1.57577 0.623436 1.2,
1.60047 0.611955 1.2,
1.61777 0.611955 1.2,
1.63913 0.615735 1.2,
1.65004 0.615735 1.2,
1.63913 0.623436 1.2,
1.65004 0.623436 1.2,
1.67198 0.611955 1.2,
1.70947 0.428571 1,
1.70947 0.436273 1,
1.74042 0.440196 1,
1.76847 0.440196 1,
1.79942 0.428571 1,
1.79942 0.436273 1,
1.74042 0.504424 1,
1.76847 0.505296 1,
1.76222 0.522006 1,
1.94344 0.424067 1,
1.95114 0.424067 1,
1.95405 0.474636 1,
1.70627 0.611955 1,
1.73243 0.615735 1,
1.73243 0.623436 1,
1.7907 0.615735 1,
1.7907 0.623436 1,
1.8154 0.611955 1,
1.8327 0.611955 1,
1.85406 0.615735 1,
1.86192 0.615735 1,
1.85406 0.623436 1,
1.86192 0.623436 1,
1.87892 0.611955 1,
1.90769 0.611955 1,
1.93632 0.615735 1,
1.93632 0.623436 1,
2.05358 0.424067 1,
2.06129 0.424067 1,
2.00302 0.558336 1,
2.06361 0.474636 1,
2.22434 0.424067 1,
2.23205 0.424067 1,
2.23495 0.474636 1,
2.0065 0.609776 1,
2.01304 0.609776 1,
2.07742 0.615735 1,
2.07742 0.623436 1,
2.10779 0.611955 1,
2.12493 0.611955 1,
2.14193 0.615735 1,
2.14283 0.615735 1,
2.14193 0.623436 1,
2.14283 0.623436 1,
2.15983 0.611955 1,
2.1886 0.611955 1,
2.21723 0.615735 1,
2.21723 0.623436 1,
1.70947 0.428571 1.2,
1.70947 0.436273 1.2,
1.74042 0.440196 1.2,
1.76847 0.440196 1.2,
1.79942 0.428571 1.2,
1.79942 0.436273 1.2,
1.74042 0.504424 1.2,
1.76847 0.505296 1.2,
1.76222 0.522006 1.2,
1.94344 0.424067 1.2,
1.95114 0.424067 1.2,
1.95405 0.474636 1.2,
1.70627 0.611955 1.2,
1.73243 0.615735 1.2,
1.73243 0.623436 1.2,
1.7907 0.615735 1.2,
1.7907 0.623436 1.2,
1.8154 0.611955 1.2,
1.8327 0.611955 1.2,
1.85406 0.615735 1.2,
1.86192 0.615735 1.2,
1.85406 0.623436 1.2,
1.86192 0.623436 1.2,
1.87892 0.611955 1.2,
1.90769 0.611955 1.2,
1.93632 0.615735 1.2,
1.93632 0.623436 1.2,
2.05358 0.424067 1.2,
2.06129 0.424067 1.2,
2.00302 0.558336 1.2,
2.06361 0.474636 1.2,
2.22434 0.424067 1.2,
2.23205 0.424067 1.2,
2.23495 0.474636 1.2,
2.0065 0.609776 1.2,
2.01304 0.609776 1.2,
2.07742 0.615735 1.2,
2.07742 0.623436 1.2,
2.10779 0.611955 1.2,
2.12493 0.611955 1.2,
2.14193 0.615735 1.2,
2.14283 0.615735 1.2,
2.14193 0.623436 1.2,
2.14283 0.623436 1.2,
2.15983 0.611955 1.2,
2.1886 0.611955 1.2,
2.21723 0.615735 1.2,
2.21723 0.623436 1.2,
1.68324 1.38089 1,
1.68324 1.38089 1.2,
1.96343 0.857143 1,
1.96343 0.864844 1,
1.96343 1.04431 1,
1.96343 1.05201 1,
1.98842 0.868768 1,
2.01632 0.868768 1,
2.04131 0.857143 1,
2.04131 0.864844 1,
2.06253 0.857143 1,
2.06253 0.864844 1,
2.08753 0.868768 1,
2.14042 0.857143 1,
2.14042 0.864844 1,
2.11543 0.868768 1,
2.16164 0.857143 1,
2.16164 0.864844 1,
2.18664 0.868768 1,
2.21454 0.868768 1,
2.23953 0.857143 1,
2.23953 0.864844 1,
1.98842 1.04053 1,
2.01632 1.04053 1,
2.04131 1.04431 1,
2.04131 1.05201 1,
2.06253 1.04431 1,
2.06253 1.05201 1,
2.08753 1.04053 1,
2.11543 1.04053 1,
2.14042 1.04431 1,
2.14042 1.05201 1,
2.16164 1.04431 1,
2.16164 1.05201 1,
2.18664 1.04053 1,
2.21454 1.04053 1,
2.23953 1.04431 1,
2.23953 1.05201 1,
1.96343 0.857143 1.2,
1.96343 0.864844 1.2,
1.96343 1.04431 1.2,
1.96343 1.05201 1.2,
1.98842 0.868768 1.2,
2.01632 0.868768 1.2,
2.04131 0.857143 1.2,
2.04131 0.864844 1.2,
2.06253 0.857143 1.2,
2.06253 0.864844 1.2,
2.08753 0.868768 1.2,
2.14042 0.857143 1.2,
2.14042 0.864844 1.2,
2.11543 0.868768 1.2,
2.16164 0.857143 1.2,
2.16164 0.864844 1.2,
2.18664 0.868768 1.2,
2.21454 0.868768 1.2,
2.23953 0.857143 1.2,
2.23953 0.864844 1.2,
1.98842 1.04053 1.2,
2.01632 1.04053 1.2,
2.04131 1.04431 1.2,
2.04131 1.05201 1.2,
2.06253 1.04431 1.2,
2.06253 1.05201 1.2,
2.08753 1.04053 1.2,
2.11543 1.04053 1.2,
2.14042 1.04431 1.2,
2.14042 1.05201 1.2,
2.16164 1.04431 1.2,
2.16164 1.05201 1.2,
2.18664 1.04053 1.2,
2.21454 1.04053 1.2,
2.23953 1.04431 1.2,
2.23953 1.05201 1.2,
1.70969 1.3086 1,
1.74137 1.28926 1,
1.75359 1.29959 1,
1.78351 1.28281 1,
1.7838 1.294 1,
1.81908 1.2851 1,
1.79989 1.295 1,
1.81504 1.29799 1,
1.82819 1.30266 1,
1.83829 1.30867 1,
1.85224 1.29196 1,
1.88001 1.28571 1,
1.88001 1.29342 1,
1.90312 1.29734 1,
1.93116 1.29734 1,
1.96211 1.28571 1,
1.96211 1.29342 1,
1.68986 1.33957 1,
1.7181 1.34377 1,
1.73156 1.31637 1,
1.71362 1.38118 1,
1.6896 1.42505 1,
1.7179 1.42122 1,
1.73076 1.44919 1,
1.70867 1.45697 1,
1.74024 1.47631 1,
1.75296 1.46565 1,
1.78525 1.47113 1,
1.78409 1.48276 1,
1.79908 1.47028 1,
1.82527 1.4636 1,
1.81265 1.46772 1,
1.81559 1.48091 1,
1.84367 1.33774 1,
1.85311 1.33774 1,
1.93116 1.36215 1,
1.93116 1.37523 1,
1.94627 1.37523 1,
1.9531 1.36215 1,
1.96762 1.37802 1,
1.84062 1.43277 1,
1.85021 1.43277 1,
1.83626 1.45806 1,
1.84934 1.47535 1,
1.87812 1.47288 1,
1.87812 1.48058 1,
1.90312 1.4691 1,
1.93116 1.4675 1,
1.9454 1.4675 1,
1.96803 1.46492 1,
1.95165 1.48058 1,
2.04364 1.28571 1,
2.04364 1.29342 1,
2.06864 1.29734 1,
2.08389 1.29734 1,
2.11005 1.28571 1,
2.11005 1.29342 1,
2.20407 1.28571 1,
2.21816 1.28571 1,
1.98302 1.36604 1,
1.98253 1.38642 1,
1.9913 1.40113 1,
2.00505 1.3777 1,
2.01862 1.39684 1,
1.99423 1.42289 1,
1.99143 1.44345 1,
2.02314 1.42318 1,
1.98304 1.45718 1,
2.00527 1.46623 1,
2.04364 1.47288 1,
2.06864 1.4691 1,
2.04364 1.48058 1,
2.08389 1.46096 1,
2.10264 1.48058 1,
2.2029 1.33628 1,
2.17675 1.47288 1,
2.17675 1.48058 1,
2.2029 1.4691 1,
2.21816 1.4691 1,
2.24316 1.47288 1,
2.24316 1.48058 1,
1.70969 1.3086 1.2,
1.74137 1.28926 1.2,
1.75359 1.29959 1.2,
1.78351 1.28281 1.2,
1.7838 1.294 1.2,
1.81908 1.2851 1.2,
1.79989 1.295 1.2,
1.81504 1.29799 1.2,
1.82819 1.30266 1.2,
1.83829 1.30867 1.2,
1.85224 1.29196 1.2,
1.88001 1.28571 1.2,
1.88001 1.29342 1.2,
1.90312 1.29734 1.2,
1.93116 1.29734 1.2,
1.96211 1.28571 1.2,
1.96211 1.29342 1.2,
1.68986 1.33957 1.2,
1.7181 1.34377 1.2,
1.73156 1.31637 1.2,
1.71362 1.38118 1.2,
1.6896 1.42505 1.2,
1.7179 1.42122 1.2,
1.73076 1.44919 1.2,
1.70867 1.45697 1.2,
1.74024 1.47631 1.2,
1.75296 1.46565 1.2,
1.78525 1.47113 1.2,
1.78409 1.48276 1.2,
1.79908 1.47028 1.2,
1.82527 1.4636 1.2,
1.81265 1.46772 1.2,
1.81559 1.48091 1.2,
1.84367 1.33774 1.2,
1.85311 1.33774 1.2,
1.93116 1.36215 1.2,
1.93116 1.37523 1.2,
1.94627 1.37523 1.2,
1.9531 1.36215 1.2,
1.96762 1.37802 1.2,
1.84062 1.43277 1.2,
1.85021 1.43277 1.2,
1.83626 1.45806 1.2,
1.84934 1.47535 1.2,
1.87812 1.47288 1.2,
1.87812 1.48058 1.2,
1.90312 1.4691 1.2,
1.93116 1.4675 1.2,
1.9454 1.4675 1.2,
1.96803 1.46492 1.2,
1.95165 1.48058 1.2,
2.04364 1.28571 1.2,
2.04364 1.29342 1.2,
2.06864 1.29734 1.2,
2.08389 1.29734 1.2,
2.11005 1.28571 1.2,
2.11005 1.29342 1.2,
2.20407 1.28571 1.2,
2.21816 1.28571 1.2,
1.98302 1.36604 1.2,
1.98253 1.38642 1.2,
1.9913 1.40113 1.2,
2.00505 1.3777 1.2,
2.01862 1.39684 1.2,
1.99423 1.42289 1.2,
1.99143 1.44345 1.2,
2.02314 1.42318 1.2,
1.98304 1.45718 1.2,
2.00527 1.46623 1.2,
2.04364 1.47288 1.2,
2.06864 1.4691 1.2,
2.04364 1.48058 1.2,
2.08389 1.46096 1.2,
2.10264 1.48058 1.2,
2.2029 1.33628 1.2,
2.17675 1.47288 1.2,
2.17675 1.48058 1.2,
2.2029 1.4691 1.2,
2.21816 1.4691 1.2,
2.24316 1.47288 1.2,
2.24316 1.48058 1.2,
0 3 0,
0.52167 2.58057 1,
0.52167 2.58057 1.2,
0 3 1,
0.487838 2.63191 1,
0.476561 2.69175 1,
0.488002 2.75321 1,
0.522326 2.80421 1,
0.487838 2.63191 1.2,
0.476561 2.69175 1.2,
0.488002 2.75321 1.2,
0.522326 2.80421 1.2,
0.572517 2.54526 1,
0.6348 2.53349 1,
0.697078 2.54526 1,
0.747911 2.58057 1,
0.572517 2.54526 1.2,
0.6348 2.53349 1.2,
0.697078 2.54526 1.2,
0.747911 2.58057 1.2,
0.781757 2.63191 1,
0.793039 2.69175 1,
0.747255 2.80421 1,
0.781593 2.75321 1,
0.573336 2.83855 1,
0.6348 2.84999 1,
0.696259 2.83855 1,
0.781757 2.63191 1.2,
0.793039 2.69175 1.2,
0.747255 2.80421 1.2,
0.781593 2.75321 1.2,
0.573336 2.83855 1.2,
0.6348 2.84999 1.2,
0.696259 2.83855 1.2,
1.68324 1.80946 1,
1.68324 1.80946 1.2,
1.27561 2.14286 1,
1.39515 2.14286 1,
1.27561 2.15672 1,
1.3206 2.16378 1,
1.34807 2.16378 1,
1.39515 2.15672 1,
1.47649 2.14286 1,
1.48565 2.14286 1,
1.49585 2.22682 1,
1.5785 2.14286 1,
1.5785 2.15672 1,
1.62558 2.16378 1,
1.6758 2.16378 1,
1.27561 2.14286 1.2,
1.39515 2.14286 1.2,
1.27561 2.15672 1.2,
1.3206 2.16378 1.2,
1.34807 2.16378 1.2,
1.39515 2.15672 1.2,
1.47649 2.14286 1.2,
1.48565 2.14286 1.2,
1.49585 2.22682 1.2,
1.5785 2.14286 1.2,
1.5785 2.15672 1.2,
1.62558 2.16378 1.2,
1.6758 2.16378 1.2,
1.74137 1.71783 1,
1.75359 1.72816 1,
1.70969 1.73717 1,
1.68986 1.76814 1,
1.7181 1.77234 1,
1.73156 1.74495 1,
1.78351 1.71138 1,
1.7838 1.72257 1,
1.79989 1.72357 1,
1.81908 1.71367 1,
1.81504 1.72656 1,
1.71362 1.80976 1,
1.7179 1.84979 1,
1.6896 1.85362 1,
1.82819 1.73123 1,
1.85224 1.72053 1,
1.88001 1.71429 1,
1.88001 1.72199 1,
1.83829 1.73724 1,
1.84367 1.76631 1,
1.85311 1.76631 1,
1.90312 1.72591 1,
1.93116 1.72591 1,
1.96211 1.71429 1,
1.96211 1.72199 1,
1.84062 1.86134 1,
1.85021 1.86134 1,
1.93116 1.79072 1,
1.93116 1.8038 1,
1.94627 1.8038 1,
1.9531 1.79072 1,
1.96762 1.8066 1,
2.04364 1.71429 1,
2.04364 1.72199 1,
2.06864 1.72591 1,
2.08389 1.72591 1,
1.98302 1.79461 1,
1.98253 1.81499 1,
2.00505 1.80627 1,
2.01862 1.82541 1,
1.9913 1.8297 1,
1.99423 1.85146 1,
1.99143 1.87202 1,
2.02314 1.85175 1,
2.11005 1.71429 1,
2.11005 1.72199 1,
2.20407 1.71429 1,
2.21816 1.71429 1,
2.2029 1.76486 1,
1.74137 1.71783 1.2,
1.75359 1.72816 1.2,
1.70969 1.73717 1.2,
1.68986 1.76814 1.2,
1.7181 1.77234 1.2,
1.73156 1.74495 1.2,
1.78351 1.71138 1.2,
1.7838 1.72257 1.2,
1.79989 1.72357 1.2,
1.81908 1.71367 1.2,
1.81504 1.72656 1.2,
1.71362 1.80976 1.2,
1.7179 1.84979 1.2,
1.6896 1.85362 1.2,
1.82819 1.73123 1.2,
1.85224 1.72053 1.2,
1.88001 1.71429 1.2,
1.88001 1.72199 1.2,
1.83829 1.73724 1.2,
1.84367 1.76631 1.2,
1.85311 1.76631 1.2,
1.90312 1.72591 1.2,
1.93116 1.72591 1.2,
1.96211 1.71429 1.2,
1.96211 1.72199 1.2,
1.84062 1.86134 1.2,
1.85021 1.86134 1.2,
1.93116 1.79072 1.2,
1.93116 1.8038 1.2,
1.94627 1.8038 1.2,
1.9531 1.79072 1.2,
1.96762 1.8066 1.2,
2.04364 1.71429 1.2,
2.04364 1.72199 1.2,
2.06864 1.72591 1.2,
2.08389 1.72591 1.2,
1.98302 1.79461 1.2,
1.98253 1.81499 1.2,
2.00505 1.80627 1.2,
2.01862 1.82541 1.2,
1.9913 1.8297 1.2,
1.99423 1.85146 1.2,
1.99143 1.87202 1.2,
2.02314 1.85175 1.2,
2.11005 1.71429 1.2,
2.11005 1.72199 1.2,
2.20407 1.71429 1.2,
2.21816 1.71429 1.2,
2.2029 1.76486 1.2,
1.70867 1.88554 1,
1.73076 1.87776 1,
1.75296 1.89422 1,
1.74024 1.90488 1,
1.78525 1.8997 1,
1.78409 1.91133 1,
1.81265 1.89629 1,
1.82527 1.89217 1,
1.79908 1.89885 1,
1.81559 1.90948 1,
1.83626 1.88663 1,
1.84934 1.90392 1,
1.87812 1.90145 1,
1.87812 1.90915 1,
1.90312 1.89767 1,
1.93116 1.89607 1,
1.9454 1.89607 1,
1.96803 1.89349 1,
1.95165 1.90915 1,
1.72079 2.14286 1,
1.72079 2.15672 1,
1.88928 2.14286 1,
1.88928 2.15672 1,
1.93087 2.16378 1,
1.98304 1.88575 1,
2.00527 1.8948 1,
2.06864 1.89767 1,
2.04364 1.90145 1,
2.04364 1.90915 1,
2.08389 1.88953 1,
2.10264 1.90915 1,
2.17675 1.90145 1,
2.17675 1.90915 1,
2.2029 1.89767 1,
2.21816 1.89767 1,
2.24316 1.90145 1,
2.24316 1.90915 1,
2.03706 2.14286 1,
1.98135 2.16378 1,
2.03706 2.15672 1,
2.18774 2.14286 1,
2.18774 2.15672 1,
2.23273 2.16378 1,
1.70867 1.88554 1.2,
1.73076 1.87776 1.2,
1.75296 1.89422 1.2,
1.74024 1.90488 1.2,
1.78525 1.8997 1.2,
1.78409 1.91133 1.2,
1.81265 1.89629 1.2,
1.82527 1.89217 1.2,
1.79908 1.89885 1.2,
1.81559 1.90948 1.2,
1.83626 1.88663 1.2,
1.84934 1.90392 1.2,
1.87812 1.90145 1.2,
1.87812 1.90915 1.2,
1.90312 1.89767 1.2,
1.93116 1.89607 1.2,
1.9454 1.89607 1.2,
1.96803 1.89349 1.2,
1.95165 1.90915 1.2,
1.72079 2.14286 1.2,
1.72079 2.15672 1.2,
1.88928 2.14286 1.2,
1.88928 2.15672 1.2,
1.93087 2.16378 1.2,
1.98304 1.88575 1.2,
2.00527 1.8948 1.2,
2.06864 1.89767 1.2,
2.04364 1.90145 1.2,
2.04364 1.90915 1.2,
2.08389 1.88953 1.2,
2.10264 1.90915 1.2,
2.17675 1.90145 1.2,
2.17675 1.90915 1.2,
2.2029 1.89767 1.2,
2.21816 1.89767 1.2,
2.24316 1.90145 1.2,
2.24316 1.90915 1.2,
2.03706 2.14286 1.2,
1.98135 2.16378 1.2,
2.03706 2.15672 1.2,
2.18774 2.14286 1.2,
2.18774 2.15672 1.2,
2.23273 2.16378 1.2,
1.27561 2.47975 1,
1.3206 2.47295 1,
1.27561 2.49361 1,
1.34807 2.44444 1,
1.38181 2.49361 1,
1.62558 2.44444 1,
1.6758 2.47295 1,
1.62035 2.49361 1,
1.27561 2.47975 1.2,
1.3206 2.47295 1.2,
1.27561 2.49361 1.2,
1.34807 2.44444 1.2,
1.38181 2.49361 1.2,
1.62558 2.44444 1.2,
1.6758 2.47295 1.2,
1.62035 2.49361 1.2,
1.72079 2.47975 1,
1.72079 2.49361 1,
1.88588 2.47975 1,
1.88588 2.49361 1,
1.93087 2.47295 1,
1.98135 2.28044 1,
2.02085 2.28044 1,
1.98135 2.30398 1,
2.00855 2.30398 1,
2.0747 2.28743 1,
2.04697 2.30902 1,
2.07381 2.32412 1,
2.0896 2.3506 1,
2.09487 2.38977 1,
2.08983 2.42678 1,
2.11435 2.30843 1,
2.13878 2.34289 1,
2.14692 2.3903 1,
1.98135 2.47007 1,
2.00698 2.47007 1,
2.01823 2.49361 1,
2.04772 2.46543 1,
2.07473 2.4515 1,
2.11475 2.46778 1,
2.18774 2.47975 1,
2.23273 2.47295 1,
2.18774 2.49361 1,
1.72079 2.47975 1.2,
1.72079 2.49361 1.2,
1.88588 2.47975 1.2,
1.88588 2.49361 1.2,
1.93087 2.47295 1.2,
1.98135 2.28044 1.2,
2.02085 2.28044 1.2,
1.98135 2.30398 1.2,
2.00855 2.30398 1.2,
2.0747 2.28743 1.2,
2.04697 2.30902 1.2,
2.07381 2.32412 1.2,
2.0896 2.3506 1.2,
2.09487 2.38977 1.2,
2.08983 2.42678 1.2,
2.11435 2.30843 1.2,
2.13878 2.34289 1.2,
2.14692 2.3903 1.2,
1.98135 2.47007 1.2,
2.00698 2.47007 1.2,
2.01823 2.49361 1.2,
2.04772 2.46543 1.2,
2.07473 2.4515 1.2,
2.11475 2.46778 1.2,
2.18774 2.47975 1.2,
2.23273 2.47295 1.2,
2.18774 2.49361 1.2,
4.5 0 0,
2.33449 0.424067 1,
2.34219 0.424067 1,
2.28392 0.558336 1,
2.34452 0.474636 1,
2.43202 0.428571 1,
2.43202 0.436273 1,
2.45701 0.440196 1,
2.47227 0.440196 1,
2.49842 0.428571 1,
2.49842 0.436273 1,
2.28741 0.609776 1,
2.29395 0.609776 1,
2.35832 0.615735 1,
2.35832 0.623436 1,
2.38869 0.611955 1,
2.40584 0.611955 1,
2.42284 0.615735 1,
2.42284 0.623436 1,
2.43202 0.615735 1,
2.43202 0.623436 1,
2.45701 0.611955 1,
2.47227 0.603819 1,
2.49101 0.623436 1,
2.59244 0.428571 1,
2.60654 0.428571 1,
2.64695 0.428571 1,
2.64695 0.436273 1,
2.59128 0.479141 1,
2.67194 0.440196 1,
2.6872 0.440196 1,
2.71335 0.428571 1,
2.71335 0.436273 1,
2.80737 0.428571 1,
2.80621 0.479141 1,
2.56512 0.615735 1,
2.56512 0.623436 1,
2.59128 0.611955 1,
2.60654 0.611955 1,
2.63153 0.615735 1,
2.63153 0.623436 1,
2.64695 0.615735 1,
2.64695 0.623436 1,
2.6872 0.603819 1,
2.67194 0.611955 1,
2.70594 0.623436 1,
2.78005 0.615735 1,
2.78005 0.623436 1,
2.80621 0.611955 1,
2.33449 0.424067 1.2,
2.34219 0.424067 1.2,
2.28392 0.558336 1.2,
2.34452 0.474636 1.2,
2.43202 0.428571 1.2,
2.43202 0.436273 1.2,
2.45701 0.440196 1.2,
2.47227 0.440196 1.2,
2.49842 0.428571 1.2,
2.49842 0.436273 1.2,
2.28741 0.609776 1.2,
2.29395 0.609776 1.2,
2.35832 0.615735 1.2,
2.35832 0.623436 1.2,
2.38869 0.611955 1.2,
2.40584 0.611955 1.2,
2.42284 0.615735 1.2,
2.42284 0.623436 1.2,
2.43202 0.615735 1.2,
2.43202 0.623436 1.2,
2.45701 0.611955 1.2,
2.47227 0.603819 1.2,
2.49101 0.623436 1.2,
2.59244 0.428571 1.2,
2.60654 0.428571 1.2,
2.64695 0.428571 1.2,
2.64695 0.436273 1.2,
2.59128 0.479141 1.2,
2.67194 0.440196 1.2,
2.6872 0.440196 1.2,
2.71335 0.428571 1.2,
2.71335 0.436273 1.2,
2.80737 0.428571 1.2,
2.80621 0.479141 1.2,
2.56512 0.615735 1.2,
2.56512 0.623436 1.2,
2.59128 0.611955 1.2,
2.60654 0.611955 1.2,
2.63153 0.615735 1.2,
2.63153 0.623436 1.2,
2.64695 0.615735 1.2,
2.64695 0.623436 1.2,
2.6872 0.603819 1.2,
2.67194 0.611955 1.2,
2.70594 0.623436 1.2,
2.78005 0.615735 1.2,
2.78005 0.623436 1.2,
2.80621 0.611955 1.2,
2.82147 0.428571 1,
2.86188 0.428571 1,
2.86188 0.436273 1,
2.88687 0.440196 1,
2.90213 0.440196 1,
2.92828 0.428571 1,
2.92828 0.436273 1,
3.0223 0.428571 1,
3.0364 0.428571 1,
3.02114 0.479141 1,
2.82147 0.611955 1,
2.84646 0.615735 1,
2.84646 0.623436 1,
2.86188 0.615735 1,
2.86188 0.623436 1,
2.90213 0.603819 1,
2.88687 0.611955 1,
2.92087 0.623436 1,
2.99498 0.615735 1,
2.99498 0.623436 1,
3.02114 0.611955 1,
3.0364 0.611955 1,
3.06139 0.615735 1,
3.06139 0.623436 1,
2.82147 0.428571 1.2,
2.86188 0.428571 1.2,
2.86188 0.436273 1.2,
2.88687 0.440196 1.2,
2.90213 0.440196 1.2,
2.92828 0.428571 1.2,
2.92828 0.436273 1.2,
3.0223 0.428571 1.2,
3.0364 0.428571 1.2,
3.02114 0.479141 1.2,
2.82147 0.611955 1.2,
2.84646 0.615735 1.2,
2.84646 0.623436 1.2,
2.86188 0.615735 1.2,
2.86188 0.623436 1.2,
2.90213 0.603819 1.2,
2.88687 0.611955 1.2,
2.92087 0.623436 1.2,
2.99498 0.615735 1.2,
2.99498 0.623436 1.2,
3.02114 0.611955 1.2,
3.0364 0.611955 1.2,
3.06139 0.615735 1.2,
3.06139 0.623436 1.2,
2.26075 0.857143 1,
2.26075 0.864844 1,
2.28575 0.868768 1,
2.31365 0.868768 1,
2.33864 0.857143 1,
2.33864 0.864844 1,
2.35986 0.857143 1,
2.35986 0.864844 1,
2.38486 0.868768 1,
2.41276 0.868768 1,
2.43775 0.857143 1,
2.43775 0.864844 1,
2.45897 0.857143 1,
2.45897 0.864844 1,
2.48397 0.868768 1,
2.51187 0.868768 1,
2.26075 1.04431 1,
2.26075 1.05201 1,
2.28575 1.04053 1,
2.31365 1.04053 1,
2.33864 1.04431 1,
2.33864 1.05201 1,
2.35986 1.04431 1,
2.35986 1.05201 1,
2.38486 1.04053 1,
2.41276 1.04053 1,
2.43775 1.04431 1,
2.43775 1.05201 1,
2.45897 1.04431 1,
2.45897 1.05201 1,
2.48397 1.04053 1,
2.51187 1.04053 1,
2.53686 0.857143 1,
2.53686 0.864844 1,
2.53686 1.04431 1,
2.53686 1.05201 1,
2.26075 0.857143 1.2,
2.26075 0.864844 1.2,
2.28575 0.868768 1.2,
2.31365 0.868768 1.2,
2.33864 0.857143 1.2,
2.33864 0.864844 1.2,
2.35986 0.857143 1.2,
2.35986 0.864844 1.2,
2.38486 0.868768 1.2,
2.41276 0.868768 1.2,
2.43775 0.857143 1.2,
2.43775 0.864844 1.2,
2.45897 0.857143 1.2,
2.45897 0.864844 1.2,
2.48397 0.868768 1.2,
2.51187 0.868768 1.2,
2.26075 1.04431 1.2,
2.26075 1.05201 1.2,
2.28575 1.04053 1.2,
2.31365 1.04053 1.2,
2.33864 1.04431 1.2,
2.33864 1.05201 1.2,
2.35986 1.04431 1.2,
2.35986 1.05201 1.2,
2.38486 1.04053 1.2,
2.41276 1.04053 1.2,
2.43775 1.04431 1.2,
2.43775 1.05201 1.2,
2.45897 1.04431 1.2,
2.45897 1.05201 1.2,
2.48397 1.04053 1.2,
2.51187 1.04053 1.2,
2.53686 0.857143 1.2,
2.53686 0.864844 1.2,
2.53686 1.04431 1.2,
2.53686 1.05201 1.2,
2.28865 1.3086 1,
2.32033 1.28926 1,
2.33256 1.29959 1,
2.36247 1.28281 1,
2.36276 1.294 1,
2.37886 1.295 1,
2.39804 1.2851 1,
2.394 1.29799 1,
2.40715 1.30266 1,
2.41725 1.30867 1,
2.45897 1.28571 1,
2.4312 1.29196 1,
2.45897 1.29342 1,
2.48208 1.29734 1,
2.51012 1.29734 1,
2.26882 1.33957 1,
2.31052 1.31637 1,
2.29706 1.34377 1,
2.26221 1.38089 1,
2.29258 1.38118 1,
2.26856 1.42505 1,
2.29686 1.42122 1,
2.30972 1.44919 1,
2.28763 1.45697 1,
2.31921 1.47631 1,
2.33192 1.46565 1,
2.36422 1.47113 1,
2.37804 1.47028 1,
2.36305 1.48276 1,
2.42263 1.33774 1,
2.43208 1.33774 1,
2.48208 1.35459 1,
2.51012 1.36215 1,
2.51012 1.37523 1,
2.52523 1.37523 1,
2.41958 1.43277 1,
2.42917 1.43277 1,
2.40423 1.4636 1,
2.39161 1.46772 1,
2.41522 1.45806 1,
2.39455 1.48091 1,
2.4283 1.47535 1,
2.45708 1.47288 1,
2.45708 1.48058 1,
2.48208 1.4691 1,
2.51012 1.4675 1,
2.52436 1.4675 1,
2.53061 1.48058 1,
2.54107 1.28571 1,
2.54107 1.29342 1,
2.6226 1.28571 1,
2.6226 1.29342 1,
2.6476 1.29734 1,
2.66286 1.29734 1,
2.68901 1.28571 1,
2.68901 1.29342 1,
2.78303 1.28571 1,
2.79712 1.28571 1,
2.53206 1.36215 1,
2.54658 1.37802 1,
2.56198 1.36604 1,
2.56149 1.38642 1,
2.58401 1.3777 1,
2.57026 1.40113 1,
2.59758 1.39684 1,
2.57319 1.42289 1,
2.57039 1.44345 1,
2.547 1.46492 1,
2.562 1.45718 1,
2.58423 1.46623 1,
2.60211 1.42318 1,
2.6226 1.47288 1,
2.6226 1.48058 1,
2.6476 1.4691 1,
2.66286 1.46096 1,
2.78187 1.33628 1,
2.6816 1.48058 1,
2.75571 1.47288 1,
2.75571 1.48058 1,
2.78187 1.4691 1,
2.79712 1.4691 1,
2.28865 1.3086 1.2,
2.32033 1.28926 1.2,
2.33256 1.29959 1.2,
2.36247 1.28281 1.2,
2.36276 1.294 1.2,
2.37886 1.295 1.2,
2.39804 1.2851 1.2,
2.394 1.29799 1.2,
2.40715 1.30266 1.2,
2.41725 1.30867 1.2,
2.45897 1.28571 1.2,
2.4312 1.29196 1.2,
2.45897 1.29342 1.2,
2.48208 1.29734 1.2,
2.51012 1.29734 1.2,
2.26882 1.33957 1.2,
2.31052 1.31637 1.2,
2.29706 1.34377 1.2,
2.26221 1.38089 1.2,
2.29258 1.38118 1.2,
2.26856 1.42505 1.2,
2.29686 1.42122 1.2,
2.30972 1.44919 1.2,
2.28763 1.45697 1.2,
2.31921 1.47631 1.2,
2.33192 1.46565 1.2,
2.36422 1.47113 1.2,
2.37804 1.47028 1.2,
2.36305 1.48276 1.2,
2.42263 1.33774 1.2,
2.43208 1.33774 1.2,
2.51012 1.36215 1.2,
2.51012 1.37523 1.2,
2.52523 1.37523 1.2,
2.41958 1.43277 1.2,
2.42917 1.43277 1.2,
2.40423 1.4636 1.2,
2.39161 1.46772 1.2,
2.41522 1.45806 1.2,
2.39455 1.48091 1.2,
2.4283 1.47535 1.2,
2.45708 1.47288 1.2,
2.45708 1.48058 1.2,
2.48208 1.4691 1.2,
2.51012 1.4675 1.2,
2.52436 1.4675 1.2,
2.53061 1.48058 1.2,
2.54107 1.28571 1.2,
2.54107 1.29342 1.2,
2.6226 1.28571 1.2,
2.6226 1.29342 1.2,
2.6476 1.29734 1.2,
2.66286 1.29734 1.2,
2.68901 1.28571 1.2,
2.68901 1.29342 1.2,
2.78303 1.28571 1.2,
2.79712 1.28571 1.2,
2.53206 1.36215 1.2,
2.54658 1.37802 1.2,
2.56198 1.36604 1.2,
2.56149 1.38642 1.2,
2.58401 1.3777 1.2,
2.57026 1.40113 1.2,
2.59758 1.39684 1.2,
2.57319 1.42289 1.2,
2.57039 1.44345 1.2,
2.547 1.46492 1.2,
2.562 1.45718 1.2,
2.58423 1.46623 1.2,
2.60211 1.42318 1.2,
2.6226 1.47288 1.2,
2.6226 1.48058 1.2,
2.6476 1.4691 1.2,
2.66286 1.46096 1.2,
2.78187 1.33628 1.2,
2.6816 1.48058 1.2,
2.75571 1.47288 1.2,
2.75571 1.48058 1.2,
2.78187 1.4691 1.2,
2.79712 1.4691 1.2,
2.82212 1.47288 1,
2.82212 1.48058 1,
2.82212 1.47288 1.2,
2.82212 1.48058 1.2,
4.5 0 1,
4.5 3 0,
2.26882 1.76814 1,
2.28865 1.73717 1,
2.31052 1.74495 1,
2.29706 1.77234 1,
2.32033 1.71783 1,
2.33256 1.72816 1,
2.36247 1.71138 1,
2.36276 1.72257 1,
2.37886 1.72357 1,
2.26221 1.80946 1,
2.29258 1.80976 1,
2.26856 1.85362 1,
2.29686 1.84979 1,
2.39804 1.71367 1,
2.394 1.72656 1,
2.40715 1.73123 1,
2.4312 1.72053 1,
2.45897 1.71429 1,
2.45897 1.72199 1,
2.41725 1.73724 1,
2.42263 1.76631 1,
2.43208 1.76631 1,
2.48208 1.72591 1,
2.51012 1.72591 1,
2.41958 1.86134 1,
2.42917 1.86134 1,
2.51012 1.79072 1,
2.51012 1.8038 1,
2.52523 1.8038 1,
2.54107 1.71429 1,
2.54107 1.72199 1,
2.6226 1.71429 1,
2.6226 1.72199 1,
2.6476 1.72591 1,
2.66286 1.72591 1,
2.53206 1.79072 1,
2.56198 1.79461 1,
2.54658 1.8066 1,
2.56149 1.81499 1,
2.58401 1.80627 1,
2.59758 1.82541 1,
2.57026 1.8297 1,
2.57319 1.85146 1,
2.57039 1.87202 1,
2.60211 1.85175 1,
2.68901 1.71429 1,
2.68901 1.72199 1,
2.78303 1.71429 1,
2.79712 1.71429 1,
2.78187 1.76486 1,
2.26882 1.76814 1.2,
2.28865 1.73717 1.2,
2.31052 1.74495 1.2,
2.29706 1.77234 1.2,
2.32033 1.71783 1.2,
2.33256 1.72816 1.2,
2.36247 1.71138 1.2,
2.36276 1.72257 1.2,
2.37886 1.72357 1.2,
2.26221 1.80946 1.2,
2.29258 1.80976 1.2,
2.26856 1.85362 1.2,
2.29686 1.84979 1.2,
2.39804 1.71367 1.2,
2.394 1.72656 1.2,
2.40715 1.73123 1.2,
2.4312 1.72053 1.2,
2.45897 1.71429 1.2,
2.45897 1.72199 1.2,
2.41725 1.73724 1.2,
2.42263 1.76631 1.2,
2.43208 1.76631 1.2,
2.48208 1.72591 1.2,
2.51012 1.72591 1.2,
2.41958 1.86134 1.2,
2.42917 1.86134 1.2,
2.51012 1.79072 1.2,
2.51012 1.8038 1.2,
2.52523 1.8038 1.2,
2.54107 1.71429 1.2,
2.54107 1.72199 1.2,
2.6226 1.71429 1.2,
2.6226 1.72199 1.2,
2.6476 1.72591 1.2,
2.66286 1.72591 1.2,
2.53206 1.79072 1.2,
2.56198 1.79461 1.2,
2.54658 1.8066 1.2,
2.56149 1.81499 1.2,
2.58401 1.80627 1.2,
2.59758 1.82541 1.2,
2.57026 1.8297 1.2,
2.57319 1.85146 1.2,
2.57039 1.87202 1.2,
2.60211 1.85175 1.2,
2.68901 1.71429 1.2,
2.68901 1.72199 1.2,
2.78303 1.71429 1.2,
2.79712 1.71429 1.2,
2.78187 1.76486 1.2,
2.28763 1.88554 1,
2.30972 1.87776 1,
2.31921 1.90488 1,
2.33192 1.89422 1,
2.36422 1.8997 1,
2.36305 1.91133 1,
2.37804 1.89885 1,
2.39161 1.89629 1,
2.40423 1.89217 1,
2.41522 1.88663 1,
2.39455 1.90948 1,
2.4283 1.90392 1,
2.45708 1.90145 1,
2.45708 1.90915 1,
2.48208 1.89767 1,
2.51012 1.89607 1,
2.52436 1.89607 1,
2.53061 1.90915 1,
2.32794 2.14286 1,
2.28295 2.16378 1,
2.32794 2.15672 1,
2.38065 2.2398 1,
2.47338 2.14923 1,
2.41636 2.18405 1,
2.45572 2.19805 1,
2.43149 2.24735 1,
2.49538 2.16784 1,
2.547 1.89349 1,
2.562 1.88575 1,
2.58423 1.8948 1,
2.6226 1.90145 1,
2.6226 1.90915 1,
2.6476 1.89767 1,
2.66286 1.88953 1,
2.6816 1.90915 1,
2.75571 1.90145 1,
2.75571 1.90915 1,
2.78187 1.89767 1,
2.79712 1.89767 1,
2.54923 2.13763 1,
2.61325 2.14175 1,
2.54976 2.15777 1,
2.57872 2.15956 1,
2.60599 2.16496 1,
2.62966 2.17336 1,
2.64784 2.18418 1,
2.65752 2.2365 1,
2.67295 2.1541 1,
2.73261 2.14887 1,
2.77838 2.14044 1,
2.67452 2.2365 1,
2.72973 2.22263 1,
2.75877 2.17346 1,
2.77109 2.1681 1,
2.78767 2.16352 1,
2.80575 2.16038 1,
2.74699 2.22263 1,
2.28763 1.88554 1.2,
2.30972 1.87776 1.2,
2.31921 1.90488 1.2,
2.33192 1.89422 1.2,
2.36422 1.8997 1.2,
2.36305 1.91133 1.2,
2.37804 1.89885 1.2,
2.39161 1.89629 1.2,
2.40423 1.89217 1.2,
2.41522 1.88663 1.2,
2.39455 1.90948 1.2,
2.4283 1.90392 1.2,
2.45708 1.90145 1.2,
2.45708 1.90915 1.2,
2.48208 1.89767 1.2,
2.51012 1.89607 1.2,
2.52436 1.89607 1.2,
2.53061 1.90915 1.2,
2.32794 2.14286 1.2,
2.28295 2.16378 1.2,
2.32794 2.15672 1.2,
2.38065 2.2398 1.2,
2.47338 2.14923 1.2,
2.41636 2.18405 1.2,
2.45572 2.19805 1.2,
2.43149 2.24735 1.2,
2.49538 2.16784 1.2,
2.547 1.89349 1.2,
2.562 1.88575 1.2,
2.58423 1.8948 1.2,
2.6226 1.90145 1.2,
2.6226 1.90915 1.2,
2.6476 1.89767 1.2,
2.66286 1.88953 1.2,
2.6816 1.90915 1.2,
2.75571 1.90145 1.2,
2.75571 1.90915 1.2,
2.78187 1.89767 1.2,
2.79712 1.89767 1.2,
2.54923 2.13763 1.2,
2.61325 2.14175 1.2,
2.54976 2.15777 1.2,
2.57872 2.15956 1.2,
2.60599 2.16496 1.2,
2.62966 2.17336 1.2,
2.64784 2.18418 1.2,
2.65752 2.2365 1.2,
2.67295 2.1541 1.2,
2.73261 2.14887 1.2,
2.77838 2.14044 1.2,
2.67452 2.2365 1.2,
2.72973 2.22263 1.2,
2.75877 2.17346 1.2,
2.77109 2.1681 1.2,
2.78767 2.16352 1.2,
2.80575 2.16038 1.2,
2.74699 2.22263 1.2,
2.82212 1.90145 1,
2.82212 1.90915 1,
2.82677 2.13763 1,
2.87941 2.1443 1,
2.82259 2.15933 1,
2.85829 2.16404 1,
2.88327 2.17817 1,
2.91858 2.16431 1,
2.94291 2.19615 1,
2.89798 2.20328 1,
2.90289 2.24094 1,
2.95101 2.23833 1,
2.9955 2.14286 1,
2.9955 2.18131 1,
3.02977 2.18314 1,
3.0552 2.20596 1,
3.04415 2.22551 1,
3.0792 2.22682 1,
3.21024 2.14286 1,
3.21024 2.18314 1,
2.82212 1.90145 1.2,
2.82212 1.90915 1.2,
2.82677 2.13763 1.2,
2.87941 2.1443 1.2,
2.82259 2.15933 1.2,
2.85829 2.16404 1.2,
2.88327 2.17817 1.2,
2.91858 2.16431 1.2,
2.94291 2.19615 1.2,
2.89798 2.20328 1.2,
2.90289 2.24094 1.2,
2.95101 2.23833 1.2,
2.9955 2.14286 1.2,
2.9955 2.18131 1.2,
3.02977 2.18314 1.2,
3.0552 2.20596 1.2,
3.04415 2.22551 1.2,
3.0792 2.22682 1.2,
3.21024 2.14286 1.2,
3.21024 2.18314 1.2,
2.36875 2.31418 1,
2.38019 2.39366 1,
2.42342 2.3147 1,
2.43114 2.38676 1,
2.45428 2.43711 1,
2.28295 2.47295 1,
2.32794 2.47975 1,
2.32794 2.49361 1,
2.41452 2.45111 1,
2.49424 2.46674 1,
2.47135 2.48593 1,
2.65202 2.40756 1,
2.66929 2.40756 1,
2.79146 2.31523 1,
2.79146 2.33667 1,
2.74046 2.4188 1,
2.75772 2.4188 1,
2.55237 2.47661 1,
2.57725 2.47507 1,
2.55028 2.49754 1,
2.60167 2.47046 1,
2.6244 2.46304 1,
2.64418 2.45307 1,
2.66772 2.4842 1,
2.60697 2.4942 1,
2.74046 2.48629 1,
2.76687 2.4617 1,
2.7793 2.46736 1,
2.79355 2.47177 1,
2.8084 2.47462 1,
2.76458 2.49194 1,
2.78518 2.49531 1,
2.80395 2.49698 1,
2.36875 2.31418 1.2,
2.38019 2.39366 1.2,
2.42342 2.3147 1.2,
2.43114 2.38676 1.2,
2.45428 2.43711 1.2,
2.28295 2.47295 1.2,
2.32794 2.47975 1.2,
2.32794 2.49361 1.2,
2.41452 2.45111 1.2,
2.49424 2.46674 1.2,
2.47135 2.48593 1.2,
2.65202 2.40756 1.2,
2.66929 2.40756 1.2,
2.79146 2.31523 1.2,
2.79146 2.33667 1.2,
2.74046 2.4188 1.2,
2.75772 2.4188 1.2,
2.55237 2.47661 1.2,
2.57725 2.47507 1.2,
2.55028 2.49754 1.2,
2.60167 2.47046 1.2,
2.6244 2.46304 1.2,
2.64418 2.45307 1.2,
2.66772 2.4842 1.2,
2.60697 2.4942 1.2,
2.74046 2.48629 1.2,
2.76687 2.4617 1.2,
2.7793 2.46736 1.2,
2.79355 2.47177 1.2,
2.8084 2.47462 1.2,
2.76458 2.49194 1.2,
2.78518 2.49531 1.2,
2.80395 2.49698 1.2,
2.82887 2.31313 1,
2.82887 2.33903 1,
2.86182 2.30728 1,
2.85842 2.32647 1,
2.89838 2.27132 1,
2.88484 2.29339 1,
2.94539 2.27302 1,
2.89975 2.31689 1,
2.89089 2.33579 1,
2.92852 2.29914 1,
2.85456 2.34439 1,
2.87254 2.35734 1,
2.91505 2.35328 1,
2.88314 2.37839 1,
2.93005 2.37856 1,
2.88667 2.40808 1,
2.93506 2.41122 1,
3.08476 2.26265 1,
3.00727 2.4188 1,
3.02453 2.4188 1,
2.82259 2.47557 1,
2.87137 2.45948 1,
2.85152 2.47154 1,
2.82259 2.49754 1,
2.88284 2.43859 1,
2.90694 2.47596 1,
3.00727 2.48629 1,
3.03369 2.4617 1,
3.04579 2.46736 1,
3.05958 2.47177 1,
3.07403 2.47462 1,
3.08809 2.47557 1,
3.05128 2.49473 1,
3.08809 2.49754 1,
3.12589 2.26798 1,
3.11294 2.29195 1,
3.13181 2.31771 1,
3.15714 2.29888 1,
3.17764 2.32471 1,
3.14446 2.34426 1,
3.15162 2.37316 1,
3.15401 2.40599 1,
3.15015 2.43594 1,
3.19206 2.35067 1,
3.2006 2.37751 1,
3.20344 2.40599 1,
3.11824 2.47112 1,
3.13858 2.45778 1,
3.13848 2.49155 1,
3.19622 2.44473 1,
3.17454 2.4736 1,
2.82887 2.31313 1.2,
2.82887 2.33903 1.2,
2.86182 2.30728 1.2,
2.85842 2.32647 1.2,
2.89838 2.27132 1.2,
2.88484 2.29339 1.2,
2.94539 2.27302 1.2,
2.89975 2.31689 1.2,
2.89089 2.33579 1.2,
2.92852 2.29914 1.2,
2.85456 2.34439 1.2,
2.87254 2.35734 1.2,
2.91505 2.35328 1.2,
2.88314 2.37839 1.2,
2.93005 2.37856 1.2,
2.88667 2.40808 1.2,
2.93506 2.41122 1.2,
3.08476 2.26265 1.2,
3.00727 2.4188 1.2,
3.02453 2.4188 1.2,
2.82259 2.47557 1.2,
2.87137 2.45948 1.2,
2.85152 2.47154 1.2,
2.82259 2.49754 1.2,
2.88284 2.43859 1.2,
2.90694 2.47596 1.2,
3.00727 2.48629 1.2,
3.03369 2.4617 1.2,
3.04579 2.46736 1.2,
3.05958 2.47177 1.2,
3.07403 2.47462 1.2,
3.08809 2.47557 1.2,
3.05128 2.49473 1.2,
3.08809 2.49754 1.2,
3.12589 2.26798 1.2,
3.11294 2.29195 1.2,
3.13181 2.31771 1.2,
3.15714 2.29888 1.2,
3.17764 2.32471 1.2,
3.14446 2.34426 1.2,
3.15162 2.37316 1.2,
3.15401 2.40599 1.2,
3.15015 2.43594 1.2,
3.19206 2.35067 1.2,
3.2006 2.37751 1.2,
3.20344 2.40599 1.2,
3.11824 2.47112 1.2,
3.13858 2.45778 1.2,
3.13848 2.49155 1.2,
3.19622 2.44473 1.2,
3.17454 2.4736 1.2,
4.5 3 1
] }

coordIndex [
1,3,11,-1
1,2,3,-1
1,7,2,-1
1,50,7,-1
1,11,12,-1
1,12,225,-1
0,1,385,-1
1,237,146,-1
1,146,241,-1
1,447,416,-1
1,418,420,-1
1,416,418,-1
0,1080,1,-1
4,5,3,-1
13,11,3,-1
13,3,5,-1
7,56,8,-1
51,7,50,-1
52,7,51,-1
6,8,25,-1
6,25,9,-1
25,8,56,-1
14,10,15,-1
15,18,16,-1
10,19,15,-1
9,25,20,-1
18,15,17,-1
19,17,15,-1
20,25,21,-1
21,24,23,-1
24,21,22,-1
25,22,21,-1
1,1080,50,-1
52,56,7,-1
53,55,73,-1
53,73,57,-1
54,59,55,-1
55,59,73,-1
58,63,62,-1
63,66,64,-1
58,67,63,-1
57,69,68,-1
66,63,65,-1
67,65,63,-1
23,24,149,-1
64,149,24,-1
57,70,69,-1
57,73,70,-1
69,72,71,-1
72,69,70,-1
61,75,74,-1
61,84,75,-1
75,84,76,-1
64,66,148,-1
71,148,66,-1
71,72,148,-1
76,148,72,-1
76,84,148,-1
79,60,77,-1
94,78,81,-1
78,90,89,-1
78,94,91,-1
78,91,90,-1
80,86,85,-1
80,88,86,-1
87,85,86,-1
85,148,84,-1
85,87,154,-1
92,156,87,-1
90,93,92,-1
93,90,91,-1
83,96,95,-1
83,709,96,-1
96,709,97,-1
92,93,159,-1
97,162,93,-1
1,221,220,-1
1,220,237,-1
1,223,221,-1
1,225,223,-1
1,241,244,-1
1,244,444,-1
16,151,12,-1
16,18,150,-1
1,446,447,-1
1,444,446,-1
23,150,18,-1
16,150,151,-1
64,148,149,-1
23,149,168,-1
23,168,150,-1
12,151,231,-1
12,230,225,-1
12,231,230,-1
148,85,154,-1
87,156,154,-1
152,168,149,-1
153,155,157,-1
157,154,156,-1
154,157,155,-1
153,157,174,-1
158,174,157,-1
156,92,159,-1
93,162,159,-1
162,97,166,-1
97,843,166,-1
161,160,163,-1
159,163,160,-1
163,159,162,-1
161,163,180,-1
164,180,163,-1
165,167,844,-1
166,844,167,-1
153,170,169,-1
153,172,170,-1
153,174,172,-1
173,170,172,-1
170,173,171,-1
161,176,175,-1
161,178,176,-1
161,180,178,-1
165,182,181,-1
165,859,182,-1
176,179,177,-1
179,176,178,-1
182,860,183,-1
231,151,235,-1
230,231,232,-1
230,232,233,-1
238,260,240,-1
222,260,239,-1
224,260,222,-1
226,261,224,-1
227,261,226,-1
239,260,238,-1
224,261,260,-1
240,260,242,-1
242,260,243,-1
243,260,246,-1
246,260,247,-1
247,260,249,-1
249,260,251,-1
251,262,250,-1
228,261,227,-1
229,261,228,-1
230,233,266,-1
229,253,261,-1
254,264,253,-1
230,266,254,-1
234,236,255,-1
255,236,258,-1
258,236,279,-1
257,259,256,-1
259,280,256,-1
280,281,256,-1
253,264,261,-1
262,251,260,-1
266,264,254,-1
261,264,263,-1
265,263,264,-1
285,287,256,-1
268,267,256,-1
269,268,256,-1
287,269,256,-1
171,235,151,-1
171,271,235,-1
171,275,271,-1
235,272,236,-1
272,235,271,-1
171,277,275,-1
171,278,277,-1
171,173,927,-1
177,927,173,-1
171,916,278,-1
171,918,916,-1
275,277,276,-1
236,272,279,-1
279,272,282,-1
282,273,283,-1
281,284,256,-1
283,273,286,-1
273,282,272,-1
276,292,274,-1
273,290,286,-1
284,285,256,-1
286,289,288,-1
291,288,289,-1
289,286,290,-1
292,276,277,-1
933,278,930,-1
278,933,935,-1
278,935,298,-1
294,295,293,-1
296,293,295,-1
294,297,295,-1
298,935,299,-1
0,385,382,-1
0,382,1081,-1
382,385,1081,-1
1,383,386,-1
1,386,387,-1
1,394,383,-1
1,395,394,-1
1,387,385,-1
1,420,395,-1
385,387,388,-1
385,388,389,-1
385,389,406,-1
385,406,407,-1
395,420,396,-1
396,420,397,-1
397,420,402,-1
402,421,403,-1
403,421,405,-1
630,405,628,-1
405,632,404,-1
542,419,418,-1
542,424,419,-1
418,416,457,-1
418,457,542,-1
542,425,424,-1
545,425,542,-1
419,424,423,-1
631,423,424,-1
425,545,427,-1
428,425,427,-1
427,545,561,-1
425,428,633,-1
245,444,244,-1
248,444,245,-1
252,444,248,-1
263,444,252,-1
444,263,265,-1
444,265,450,-1
450,265,453,-1
270,460,265,-1
460,270,288,-1
459,453,265,-1
459,265,460,-1
445,463,449,-1
449,463,448,-1
451,463,445,-1
452,463,451,-1
454,463,452,-1
448,463,455,-1
455,463,456,-1
456,463,464,-1
464,543,456,-1
464,544,543,-1
544,464,546,-1
546,464,550,-1
550,464,548,-1
459,460,461,-1
459,461,465,-1
458,463,454,-1
462,463,458,-1
466,468,471,-1
471,468,474,-1
474,468,480,-1
459,556,464,-1
556,459,465,-1
552,464,469,-1
548,464,552,-1
464,470,469,-1
464,554,470,-1
556,554,464,-1
473,475,472,-1
475,481,472,-1
481,484,472,-1
558,557,472,-1
559,558,472,-1
486,566,472,-1
566,559,472,-1
460,288,291,-1
460,291,293,-1
460,293,296,-1
460,296,300,-1
939,467,460,-1
939,468,467,-1
939,460,300,-1
943,468,939,-1
943,476,468,-1
957,488,476,-1
477,468,476,-1
468,477,482,-1
480,468,482,-1
478,482,477,-1
489,571,479,-1
482,478,483,-1
484,485,472,-1
485,486,472,-1
483,568,487,-1
483,478,568,-1
488,490,489,-1
571,489,490,-1
1091,491,1082,-1
492,573,572,-1
491,1091,1093,-1
491,1093,577,-1
492,575,573,-1
491,577,576,-1
548,552,549,-1
547,561,545,-1
551,561,547,-1
553,561,551,-1
561,553,555,-1
470,554,553,-1
555,553,554,-1
561,555,560,-1
567,563,560,-1
561,560,562,-1
430,562,564,-1
562,560,563,-1
562,563,564,-1
487,569,567,-1
570,567,569,-1
569,487,568,-1
567,570,563,-1
572,579,570,-1
572,574,579,-1
574,572,573,-1
578,579,574,-1
1187,579,578,-1
579,1194,582,-1
563,570,579,-1
579,583,581,-1
580,581,649,-1
649,581,650,-1
581,583,653,-1
650,581,653,-1
583,579,582,-1
421,402,420,-1
423,631,422,-1
421,629,628,-1
421,628,405,-1
405,630,632,-1
404,632,635,-1
645,404,635,-1
426,635,632,-1
429,633,428,-1
404,645,647,-1
430,644,634,-1
430,648,644,-1
430,564,648,-1
565,648,564,-1
644,647,645,-1
644,646,647,-1
644,648,646,-1
652,654,651,-1
654,655,651,-1
655,656,651,-1
663,662,651,-1
665,663,651,-1
666,665,651,-1
656,657,651,-1
657,658,651,-1
658,666,651,-1
653,583,659,-1
669,659,583,-1
584,669,583,-1
659,669,660,-1
660,669,661,-1
667,670,664,-1
661,668,667,-1
670,667,668,-1
668,661,669,-1
385,407,1504,-1
1504,407,408,-1
1504,408,404,-1
0,698,1080,-1
0,1081,698,-1
698,1081,1080,-1
1080,54,50,-1
1080,59,54,-1
1080,60,59,-1
701,82,699,-1
700,715,714,-1
704,700,703,-1
707,722,708,-1
700,704,719,-1
705,719,704,-1
700,717,715,-1
700,719,717,-1
708,720,706,-1
720,708,722,-1
702,711,710,-1
702,713,711,-1
712,710,711,-1
97,709,843,-1
710,843,709,-1
843,710,712,-1
716,849,712,-1
715,718,716,-1
718,715,717,-1
849,716,718,-1
721,853,718,-1
721,734,875,-1
725,723,724,-1
723,725,742,-1
727,742,725,-1
723,737,736,-1
723,739,737,-1
723,742,739,-1
729,731,730,-1
730,741,728,-1
741,730,731,-1
726,733,721,-1
726,735,733,-1
734,721,733,-1
737,740,738,-1
740,737,739,-1
738,875,734,-1
738,740,876,-1
743,876,740,-1
732,744,743,-1
732,746,744,-1
745,743,744,-1
743,745,876,-1
807,876,745,-1
1080,77,60,-1
1080,78,77,-1
1080,81,78,-1
1080,82,81,-1
1080,699,82,-1
1080,700,699,-1
1080,703,700,-1
1080,707,703,-1
1080,722,707,-1
1080,723,722,-1
1080,724,723,-1
1080,729,724,-1
1080,731,729,-1
797,795,796,-1
795,797,811,-1
798,811,797,-1
795,806,805,-1
795,808,806,-1
795,811,808,-1
801,810,799,-1
810,801,802,-1
800,802,801,-1
803,817,816,-1
806,809,807,-1
809,806,808,-1
804,813,812,-1
804,815,813,-1
814,812,813,-1
1080,878,818,-1
843,712,847,-1
712,849,847,-1
844,166,843,-1
165,844,861,-1
845,861,844,-1
846,848,850,-1
847,850,848,-1
850,847,849,-1
846,850,867,-1
851,867,850,-1
849,718,853,-1
721,855,853,-1
855,721,875,-1
852,854,856,-1
856,853,855,-1
853,856,854,-1
852,856,873,-1
857,873,856,-1
874,858,876,-1
165,861,859,-1
846,863,862,-1
846,865,863,-1
846,867,865,-1
860,182,859,-1
863,866,864,-1
866,863,865,-1
852,869,868,-1
852,871,869,-1
852,873,871,-1
872,869,871,-1
869,872,870,-1
738,876,875,-1
874,876,807,-1
874,812,877,-1
874,807,809,-1
874,809,812,-1
877,814,878,-1
177,179,927,-1
183,927,179,-1
183,860,925,-1
171,921,918,-1
171,926,921,-1
171,927,926,-1
864,925,860,-1
864,866,925,-1
183,925,927,-1
930,278,915,-1
915,278,916,-1
919,944,917,-1
920,944,919,-1
870,925,866,-1
870,872,925,-1
878,925,872,-1
925,878,963,-1
922,944,920,-1
917,944,931,-1
932,931,944,-1
946,934,932,-1
946,936,934,-1
938,299,935,-1
299,938,300,-1
939,300,938,-1
937,950,940,-1
946,937,936,-1
940,950,941,-1
941,950,942,-1
923,944,922,-1
924,944,923,-1
946,932,944,-1
946,926,927,-1
946,945,926,-1
946,944,945,-1
946,927,928,-1
947,929,964,-1
949,974,948,-1
937,946,950,-1
954,953,950,-1
950,946,951,-1
946,957,951,-1
942,950,953,-1
953,954,952,-1
951,957,956,-1
946,959,957,-1
961,960,948,-1
982,961,948,-1
969,971,970,-1
947,965,973,-1
966,973,965,-1
966,975,973,-1
975,966,977,-1
974,976,948,-1
976,978,948,-1
978,980,948,-1
967,977,966,-1
977,967,979,-1
970,989,968,-1
979,967,988,-1
981,983,948,-1
980,981,948,-1
983,982,948,-1
979,988,985,-1
985,986,984,-1
986,985,988,-1
989,970,971,-1
990,992,991,-1
993,991,992,-1
990,994,992,-1
972,1076,995,-1
812,814,877,-1
818,878,814,-1
1080,963,878,-1
1080,964,963,-1
1080,947,964,-1
1080,965,947,-1
1080,969,965,-1
1080,971,969,-1
1080,972,971,-1
1080,1076,972,-1
1080,1130,1077,-1
1080,1296,1130,-1
1080,795,731,-1
1080,796,795,-1
1080,800,796,-1
1080,802,800,-1
1080,803,802,-1
1080,817,803,-1
1080,818,817,-1
1080,1077,1076,-1
1080,1297,1296,-1
1080,1314,1297,-1
1080,1315,1314,-1
955,476,943,-1
956,476,955,-1
956,957,476,-1
958,491,957,-1
957,490,488,-1
957,491,490,-1
958,1086,491,-1
958,1088,1086,-1
962,1088,958,-1
984,1088,962,-1
984,986,1088,-1
987,1095,1088,-1
987,1098,1095,-1
987,1099,1098,-1
1083,491,1086,-1
1082,491,1083,-1
1087,1106,1084,-1
1089,1106,1087,-1
1090,1107,1089,-1
1084,1106,1085,-1
1085,1106,1092,-1
1092,1106,1094,-1
1094,1106,1183,-1
1100,1098,1099,-1
1098,1100,1104,-1
1096,1107,1090,-1
1097,1107,1096,-1
1101,1107,1097,-1
1105,1112,1108,-1
1108,1112,1117,-1
1101,1102,1107,-1
1089,1107,1106,-1
1098,1196,1103,-1
1103,1194,1102,-1
1102,1194,1107,-1
1196,1194,1103,-1
1098,1104,1196,-1
1110,1119,1109,-1
1198,1197,1109,-1
1209,1198,1109,-1
987,1088,986,-1
991,1111,987,-1
991,993,1111,-1
987,1111,1099,-1
993,1113,1111,-1
1077,1129,993,-1
993,1127,1113,-1
993,1129,1127,-1
1077,1130,1129,-1
1111,1114,1112,-1
1114,1111,1113,-1
1117,1112,1118,-1
1112,1114,1118,-1
1118,1114,1121,-1
1115,1121,1114,-1
1128,1215,1116,-1
1119,1120,1109,-1
1120,1123,1109,-1
1123,1124,1109,-1
1124,1125,1109,-1
1210,1209,1109,-1
1125,1210,1109,-1
1121,1115,1122,-1
1122,1115,1126,-1
1115,1214,1126,-1
1127,1129,1128,-1
1215,1128,1129,-1
1131,1217,1216,-1
1131,1219,1217,-1
1130,1296,1220,-1
1182,577,1093,-1
577,1182,578,-1
1184,578,1182,-1
1187,578,1184,-1
1183,1106,1185,-1
1185,1106,1186,-1
1186,1106,1188,-1
1192,579,1187,-1
1193,579,1192,-1
579,1193,1194,-1
1195,582,1194,-1
1188,1106,1189,-1
1189,1191,1190,-1
1191,1189,1106,-1
1107,1194,1193,-1
582,1195,1200,-1
1200,1205,1202,-1
1203,1202,1205,-1
1202,1336,1201,-1
1202,1203,1336,-1
1195,1204,1200,-1
1204,1195,1221,-1
1205,1200,1204,-1
1126,1212,1211,-1
1212,1126,1214,-1
1213,1211,1212,-1
1199,1230,1195,-1
1211,1230,1199,-1
1211,1213,1230,-1
1218,1216,1217,-1
1216,1230,1213,-1
1230,1216,1218,-1
1297,1231,1218,-1
1297,1298,1231,-1
1221,1195,1222,-1
1222,1195,1229,-1
1230,1229,1195,-1
1223,1347,1208,-1
1224,1348,1223,-1
1225,1348,1224,-1
1226,1348,1225,-1
1230,1218,1231,-1
1229,1230,1233,-1
1229,1233,1232,-1
1238,1232,1233,-1
1236,1234,1235,-1
1234,1237,1238,-1
1234,1236,1237,-1
1300,1238,1237,-1
1301,1238,1300,-1
1232,1238,1306,-1
1298,1297,1299,-1
1299,1297,1303,-1
1297,1308,1303,-1
1302,1238,1301,-1
1305,1238,1302,-1
1406,1232,1306,-1
1306,1238,1305,-1
1303,1309,1304,-1
1308,1297,1314,-1
1309,1303,1308,-1
1304,1309,1312,-1
1304,1312,1307,-1
1419,1307,1312,-1
1310,1315,1311,-1
1311,1315,1313,-1
1313,1315,1436,-1
1436,1315,1439,-1
385,1504,1081,-1
1201,1336,1337,-1
1201,1342,1341,-1
1201,1337,1342,-1
1206,1347,1207,-1
1207,1347,1338,-1
1338,1347,1339,-1
1339,1347,1340,-1
1344,1342,1337,-1
1342,1344,1343,-1
1346,1343,1344,-1
1355,1343,1346,-1
1208,1347,1206,-1
1227,1348,1226,-1
1227,1228,1348,-1
1232,1348,1228,-1
1223,1348,1347,-1
1340,1347,1345,-1
1232,1349,1348,-1
1349,1232,1402,-1
1402,1232,1404,-1
1404,1232,1407,-1
1348,1350,1351,-1
1350,1348,1349,-1
1403,1352,1350,-1
1351,1350,1352,-1
1345,1347,1353,-1
1353,1347,1354,-1
1354,1347,1356,-1
1358,1356,1347,-1
1356,1358,1357,-1
1348,1361,1359,-1
1361,1348,1351,-1
1352,1363,1362,-1
1363,1352,1364,-1
1364,1352,1365,-1
1365,1352,1422,-1
1422,1352,1424,-1
1504,404,647,-1
1504,647,664,-1
1407,1232,1406,-1
1411,1410,1409,-1
1405,1409,1410,-1
1411,1414,1410,-1
1412,1352,1403,-1
1413,1352,1412,-1
1415,1352,1413,-1
1417,1352,1415,-1
1426,1352,1417,-1
1307,1419,1408,-1
1408,1437,1411,-1
1411,1437,1414,-1
1414,1437,1416,-1
1408,1419,1437,-1
1438,1416,1437,-1
1416,1420,1418,-1
1420,1416,1421,-1
1416,1442,1421,-1
1441,1416,1438,-1
1442,1416,1441,-1
1424,1352,1423,-1
1423,1352,1426,-1
1418,1428,1427,-1
1428,1418,1420,-1
1421,1430,1429,-1
1430,1421,1431,-1
1431,1421,1432,-1
1432,1421,1433,-1
1433,1421,1448,-1
1443,1421,1442,-1
1444,1421,1443,-1
1449,1421,1444,-1
1448,1421,1449,-1
1504,664,670,-1
1504,670,1343,-1
1504,1343,1355,-1
1504,1355,1360,-1
1504,1360,1359,-1
1504,1359,1361,-1
1504,1361,1366,-1
1504,1366,1367,-1
1504,1367,1368,-1
1080,1081,1504,-1
1080,1504,1315,-1
1504,1439,1315,-1
1504,1440,1439,-1
1504,1445,1440,-1
1504,1446,1445,-1
1504,1447,1446,-1
1504,1451,1447,-1
1504,1368,1425,-1
1504,1425,1427,-1
1504,1427,1428,-1
1504,1428,1434,-1
1504,1434,1435,-1
1504,1435,1450,-1
1504,1450,1452,-1
1504,1452,1451,-1
26,3,2,-1
27,4,3,-1
28,5,4,-1
29,13,5,-1
31,2,7,-1
30,8,6,-1
32,7,8,-1
33,6,9,-1
34,19,10,-1
26,27,3,-1
26,2,31,-1
27,28,4,-1
26,28,27,-1
26,30,28,-1
26,31,30,-1
28,30,29,-1
28,29,5,-1
38,34,10,-1
30,33,29,-1
29,33,34,-1
38,29,34,-1
30,32,8,-1
30,6,33,-1
31,7,32,-1
30,31,32,-1
33,9,44,-1
33,43,34,-1
35,12,11,-1
37,11,13,-1
36,16,12,-1
38,10,14,-1
39,14,15,-1
40,15,16,-1
44,9,20,-1
41,18,17,-1
43,17,19,-1
42,23,18,-1
45,20,21,-1
47,21,23,-1
46,24,22,-1
49,22,25,-1
48,64,24,-1
35,36,12,-1
37,35,11,-1
37,13,29,-1
36,40,16,-1
38,14,39,-1
39,15,40,-1
37,36,35,-1
37,38,36,-1
37,29,38,-1
36,38,40,-1
38,39,40,-1
34,43,19,-1
41,42,18,-1
41,17,43,-1
44,20,45,-1
42,47,23,-1
45,21,47,-1
46,48,24,-1
49,46,22,-1
33,44,43,-1
41,43,42,-1
42,43,44,-1
42,44,47,-1
44,45,47,-1
49,48,46,-1
49,110,48,-1
98,51,50,-1
99,52,51,-1
100,56,52,-1
102,50,54,-1
101,55,53,-1
103,54,55,-1
104,25,56,-1
105,53,57,-1
106,67,58,-1
108,59,60,-1
107,73,59,-1
98,99,51,-1
98,50,102,-1
99,100,52,-1
101,103,55,-1
101,53,105,-1
102,54,103,-1
98,100,99,-1
98,102,100,-1
100,101,104,-1
100,102,101,-1
101,102,103,-1
100,104,56,-1
106,58,110,-1
105,57,116,-1
104,105,106,-1
104,106,110,-1
104,101,105,-1
105,115,106,-1
107,59,108,-1
108,60,127,-1
107,121,73,-1
109,61,122,-1
107,108,121,-1
108,109,121,-1
110,58,62,-1
111,62,63,-1
112,63,64,-1
116,57,68,-1
113,66,65,-1
115,65,67,-1
114,71,66,-1
117,68,69,-1
119,69,71,-1
118,72,70,-1
121,70,73,-1
120,76,72,-1
122,61,74,-1
123,74,75,-1
124,75,76,-1
49,25,104,-1
48,112,64,-1
110,62,111,-1
111,63,112,-1
106,115,67,-1
113,114,66,-1
113,65,115,-1
49,104,110,-1
48,110,112,-1
110,111,112,-1
105,116,115,-1
113,115,114,-1
114,115,116,-1
114,116,119,-1
116,68,117,-1
114,119,71,-1
117,69,119,-1
118,120,72,-1
121,118,70,-1
120,124,76,-1
122,74,123,-1
123,75,124,-1
116,117,119,-1
121,120,118,-1
121,122,120,-1
109,122,121,-1
120,122,124,-1
122,123,124,-1
126,77,78,-1
127,60,79,-1
125,79,77,-1
109,84,61,-1
128,88,80,-1
137,78,89,-1
130,81,82,-1
129,94,81,-1
125,77,126,-1
127,79,125,-1
126,78,137,-1
133,128,80,-1
108,127,109,-1
109,127,132,-1
127,128,132,-1
127,125,128,-1
125,126,137,-1
125,137,128,-1
129,81,130,-1
130,82,749,-1
142,94,129,-1
131,83,143,-1
142,129,130,-1
142,130,131,-1
133,80,85,-1
132,85,84,-1
134,87,86,-1
136,86,88,-1
135,92,87,-1
138,89,90,-1
140,90,92,-1
139,93,91,-1
142,91,94,-1
141,97,93,-1
143,83,95,-1
144,95,96,-1
145,96,97,-1
109,132,84,-1
132,133,85,-1
128,136,88,-1
134,135,87,-1
134,86,136,-1
132,128,133,-1
128,137,136,-1
134,136,135,-1
135,136,137,-1
135,140,92,-1
137,89,138,-1
138,90,140,-1
139,141,93,-1
142,139,91,-1
141,145,97,-1
143,95,144,-1
144,96,145,-1
135,137,140,-1
137,138,140,-1
142,141,139,-1
142,143,141,-1
142,131,143,-1
141,143,145,-1
143,144,145,-1
147,241,146,-1
318,147,146,-1
147,322,241,-1
184,149,148,-1
184,185,149,-1
186,151,150,-1
186,187,151,-1
185,152,149,-1
190,148,154,-1
189,155,153,-1
188,168,152,-1
191,154,155,-1
192,157,156,-1
193,158,157,-1
194,174,158,-1
195,156,159,-1
196,159,160,-1
197,160,161,-1
198,163,162,-1
199,164,163,-1
202,162,166,-1
203,166,167,-1
201,167,165,-1
200,180,164,-1
184,148,190,-1
185,188,152,-1
189,191,155,-1
189,153,205,-1
190,154,191,-1
192,193,157,-1
192,156,195,-1
193,194,158,-1
184,188,185,-1
184,189,188,-1
184,190,189,-1
189,190,191,-1
188,189,204,-1
192,194,193,-1
192,195,194,-1
194,197,210,-1
197,196,160,-1
195,159,196,-1
198,199,163,-1
199,200,164,-1
197,161,211,-1
198,162,202,-1
201,203,167,-1
202,166,203,-1
201,165,217,-1
194,195,197,-1
197,195,196,-1
198,200,199,-1
198,202,200,-1
200,202,201,-1
201,202,203,-1
200,201,216,-1
205,153,169,-1
204,150,168,-1
187,171,151,-1
206,169,170,-1
207,170,171,-1
208,173,172,-1
210,172,174,-1
209,177,173,-1
211,161,175,-1
217,165,181,-1
212,175,176,-1
213,176,177,-1
214,179,178,-1
216,178,180,-1
215,183,179,-1
218,181,182,-1
219,182,183,-1
188,204,168,-1
194,210,174,-1
189,205,204,-1
197,211,210,-1
186,150,204,-1
187,207,171,-1
205,169,206,-1
206,170,207,-1
208,209,173,-1
208,172,210,-1
186,204,187,-1
187,204,205,-1
187,205,207,-1
205,206,207,-1
208,210,209,-1
209,210,211,-1
209,211,213,-1
200,216,180,-1
201,217,216,-1
211,175,212,-1
209,213,177,-1
212,176,213,-1
214,215,179,-1
214,178,216,-1
215,219,183,-1
217,181,218,-1
218,182,219,-1
211,212,213,-1
214,216,215,-1
215,216,217,-1
215,217,219,-1
217,218,219,-1
302,220,221,-1
320,222,239,-1
304,221,223,-1
303,224,222,-1
305,226,224,-1
306,223,225,-1
307,227,226,-1
308,228,227,-1
311,225,230,-1
309,229,228,-1
312,232,231,-1
313,233,232,-1
316,231,235,-1
315,236,234,-1
317,235,236,-1
301,220,302,-1
302,221,304,-1
320,303,222,-1
303,305,224,-1
304,223,306,-1
305,307,226,-1
307,308,227,-1
308,309,228,-1
301,302,320,-1
302,303,320,-1
302,304,303,-1
303,304,305,-1
304,307,305,-1
304,306,307,-1
307,306,308,-1
306,309,308,-1
306,225,311,-1
309,310,229,-1
311,230,335,-1
312,313,232,-1
313,314,233,-1
312,231,316,-1
316,235,317,-1
317,236,315,-1
306,311,309,-1
309,311,310,-1
312,314,313,-1
312,315,314,-1
312,316,315,-1
316,317,315,-1
301,237,220,-1
319,239,238,-1
318,146,237,-1
321,238,240,-1
323,240,242,-1
322,244,241,-1
324,242,243,-1
325,245,244,-1
327,243,246,-1
326,248,245,-1
328,246,247,-1
330,247,249,-1
332,249,251,-1
331,251,250,-1
329,252,248,-1
333,263,252,-1
310,253,229,-1
335,230,254,-1
334,254,253,-1
314,266,233,-1
336,234,255,-1
339,255,258,-1
337,257,256,-1
338,259,257,-1
341,262,260,-1
342,260,261,-1
343,250,262,-1
344,261,263,-1
345,265,264,-1
347,264,266,-1
348,256,267,-1
346,270,265,-1
349,267,268,-1
350,268,269,-1
301,318,237,-1
321,319,238,-1
320,239,319,-1
321,240,323,-1
301,320,319,-1
301,319,318,-1
318,319,321,-1
318,321,147,-1
147,321,322,-1
322,325,244,-1
323,242,324,-1
324,243,327,-1
325,326,245,-1
327,246,328,-1
328,247,330,-1
326,329,248,-1
330,249,332,-1
332,251,331,-1
329,333,252,-1
321,323,322,-1
322,323,325,-1
325,323,324,-1
325,324,326,-1
324,327,326,-1
327,329,326,-1
327,328,329,-1
328,330,329,-1
330,332,333,-1
332,331,333,-1
329,330,333,-1
310,334,253,-1
334,335,254,-1
315,234,336,-1
337,256,348,-1
336,255,339,-1
337,338,257,-1
339,258,360,-1
338,340,259,-1
310,335,334,-1
310,311,335,-1
314,315,336,-1
314,336,337,-1
314,337,347,-1
336,338,337,-1
336,339,338,-1
339,360,340,-1
339,340,338,-1
341,260,342,-1
341,343,262,-1
342,261,344,-1
331,250,343,-1
333,344,263,-1
345,264,347,-1
345,346,265,-1
314,347,266,-1
346,351,270,-1
348,267,349,-1
349,268,350,-1
341,342,343,-1
343,342,344,-1
333,331,344,-1
331,343,344,-1
345,347,346,-1
347,337,348,-1
347,348,351,-1
346,347,351,-1
348,349,351,-1
349,350,351,-1
352,272,271,-1
353,273,272,-1
356,271,275,-1
355,276,274,-1
357,275,276,-1
359,277,278,-1
352,271,356,-1
352,353,272,-1
353,354,273,-1
355,357,276,-1
352,354,353,-1
352,356,354,-1
354,356,355,-1
355,356,357,-1
356,275,357,-1
358,277,359,-1
360,258,279,-1
340,280,259,-1
363,279,282,-1
361,281,280,-1
364,282,283,-1
362,284,281,-1
365,285,284,-1
366,287,285,-1
367,283,286,-1
369,286,288,-1
368,269,287,-1
351,288,270,-1
371,290,273,-1
373,274,292,-1
370,291,289,-1
371,289,290,-1
372,293,291,-1
358,292,277,-1
375,297,294,-1
374,294,293,-1
376,296,295,-1
379,278,298,-1
378,295,297,-1
377,300,296,-1
380,298,299,-1
381,299,300,-1
360,279,363,-1
340,361,280,-1
361,362,281,-1
363,282,364,-1
364,283,367,-1
354,371,273,-1
355,274,373,-1
340,360,361,-1
360,363,361,-1
361,363,362,-1
362,363,364,-1
354,355,373,-1
362,365,284,-1
366,368,287,-1
366,285,365,-1
369,367,286,-1
350,269,368,-1
351,369,288,-1
370,289,371,-1
370,372,291,-1
372,374,293,-1
362,364,365,-1
366,365,367,-1
365,364,367,-1
366,367,369,-1
350,368,369,-1
350,369,351,-1
366,369,368,-1
354,373,371,-1
370,371,372,-1
372,371,374,-1
371,373,374,-1
373,292,358,-1
374,375,294,-1
359,278,379,-1
373,358,359,-1
373,359,375,-1
359,379,375,-1
376,377,296,-1
375,378,297,-1
376,295,378,-1
379,298,380,-1
380,299,381,-1
377,381,300,-1
373,375,374,-1
375,379,378,-1
376,378,377,-1
377,378,379,-1
377,379,381,-1
379,380,381,-1
398,383,394,-1
384,386,383,-1
398,384,383,-1
384,390,386,-1
390,387,386,-1
391,388,387,-1
392,389,388,-1
390,391,387,-1
391,392,388,-1
392,393,389,-1
391,393,392,-1
391,413,393,-1
391,414,413,-1
393,406,389,-1
393,413,406,-1
399,394,395,-1
400,395,396,-1
401,396,397,-1
409,397,402,-1
398,394,399,-1
399,395,400,-1
398,410,384,-1
399,400,401,-1
398,399,410,-1
400,396,401,-1
401,397,409,-1
399,401,409,-1
399,409,410,-1
410,402,403,-1
411,405,404,-1
412,403,405,-1
390,410,391,-1
384,410,390,-1
391,410,412,-1
391,415,414,-1
391,412,411,-1
391,411,415,-1
409,402,410,-1
410,403,412,-1
412,405,411,-1
413,407,406,-1
414,408,407,-1
415,404,408,-1
413,414,407,-1
414,415,408,-1
415,411,404,-1
417,457,416,-1
496,417,416,-1
417,506,457,-1
431,420,418,-1
432,418,419,-1
436,419,423,-1
433,421,420,-1
435,423,422,-1
431,433,420,-1
431,418,432,-1
432,419,436,-1
431,434,433,-1
431,432,434,-1
435,432,436,-1
433,434,421,-1
435,436,423,-1
434,432,435,-1
438,424,425,-1
437,631,424,-1
440,428,427,-1
604,427,561,-1
441,429,428,-1
437,424,438,-1
438,425,641,-1
437,438,639,-1
440,441,428,-1
440,427,604,-1
440,442,441,-1
440,604,442,-1
441,442,429,-1
442,604,443,-1
493,446,444,-1
495,447,446,-1
497,449,448,-1
498,445,449,-1
499,444,450,-1
494,451,445,-1
500,452,451,-1
502,450,453,-1
501,454,452,-1
503,458,454,-1
496,416,447,-1
504,448,455,-1
505,455,456,-1
506,542,457,-1
586,456,543,-1
508,453,459,-1
507,462,458,-1
509,461,460,-1
510,465,461,-1
511,463,462,-1
513,459,464,-1
512,464,463,-1
516,460,467,-1
515,468,466,-1
517,467,468,-1
520,466,471,-1
518,552,469,-1
519,469,470,-1
514,556,465,-1
523,471,474,-1
521,473,472,-1
522,475,473,-1
600,472,557,-1
495,446,493,-1
493,444,499,-1
498,494,445,-1
495,496,447,-1
498,449,497,-1
494,500,451,-1
499,450,502,-1
500,501,452,-1
501,503,454,-1
503,507,458,-1
495,493,498,-1
498,493,494,-1
495,498,497,-1
495,497,496,-1
493,499,494,-1
494,499,500,-1
499,501,500,-1
499,502,501,-1
501,502,503,-1
502,507,503,-1
497,448,504,-1
504,455,505,-1
506,585,542,-1
505,456,586,-1
496,504,417,-1
496,497,504,-1
417,504,506,-1
504,505,506,-1
506,505,585,-1
505,586,585,-1
502,453,508,-1
509,510,461,-1
510,514,465,-1
507,511,462,-1
511,512,463,-1
508,459,513,-1
512,513,464,-1
509,460,516,-1
516,467,517,-1
515,517,468,-1
515,466,520,-1
502,508,507,-1
507,508,511,-1
509,514,510,-1
511,513,512,-1
511,508,513,-1
509,515,514,-1
509,516,515,-1
515,516,517,-1
514,515,520,-1
514,520,521,-1
518,469,519,-1
520,471,523,-1
521,522,473,-1
523,474,529,-1
522,524,475,-1
514,599,556,-1
521,472,600,-1
518,519,595,-1
514,521,599,-1
520,522,521,-1
520,523,522,-1
522,523,524,-1
523,529,524,-1
599,521,600,-1
525,477,476,-1
526,478,477,-1
537,476,488,-1
528,489,479,-1
529,474,480,-1
531,480,482,-1
524,481,475,-1
530,484,481,-1
532,482,483,-1
533,485,484,-1
534,486,485,-1
536,483,487,-1
611,568,478,-1
614,479,571,-1
538,488,489,-1
539,571,490,-1
540,490,491,-1
615,492,572,-1
541,575,492,-1
619,491,576,-1
525,526,477,-1
525,476,537,-1
526,527,478,-1
528,538,489,-1
528,479,614,-1
525,527,526,-1
525,537,527,-1
527,537,528,-1
528,537,538,-1
527,528,614,-1
529,480,531,-1
524,530,481,-1
530,533,484,-1
531,482,532,-1
533,534,485,-1
534,535,486,-1
532,483,536,-1
610,536,487,-1
527,611,478,-1
524,529,530,-1
529,531,530,-1
530,531,533,-1
531,532,533,-1
533,532,534,-1
534,536,535,-1
534,532,536,-1
535,536,610,-1
527,614,611,-1
537,488,538,-1
539,490,540,-1
540,491,619,-1
614,539,540,-1
615,541,492,-1
614,571,539,-1
541,618,575,-1
614,540,541,-1
614,541,615,-1
540,619,541,-1
541,619,618,-1
585,545,542,-1
587,543,544,-1
588,547,545,-1
589,544,546,-1
591,550,548,-1
592,548,549,-1
593,546,550,-1
590,551,547,-1
594,553,551,-1
595,549,552,-1
596,470,553,-1
597,555,554,-1
599,554,556,-1
598,560,555,-1
601,557,558,-1
602,558,559,-1
586,543,587,-1
585,588,545,-1
587,544,589,-1
588,590,547,-1
589,546,593,-1
593,550,591,-1
591,548,592,-1
590,594,551,-1
585,586,588,-1
586,587,588,-1
587,590,588,-1
587,589,590,-1
589,593,590,-1
593,594,590,-1
593,591,594,-1
591,592,594,-1
518,595,552,-1
592,549,595,-1
519,470,596,-1
594,596,553,-1
597,598,555,-1
597,554,599,-1
598,603,560,-1
600,557,601,-1
601,558,602,-1
595,519,596,-1
592,595,596,-1
592,596,594,-1
597,599,598,-1
598,599,603,-1
599,600,603,-1
600,601,603,-1
601,602,603,-1
605,561,562,-1
443,562,430,-1
606,564,563,-1
607,565,564,-1
604,561,605,-1
443,604,605,-1
443,605,562,-1
606,607,564,-1
606,563,622,-1
606,608,607,-1
607,608,565,-1
606,623,608,-1
608,623,676,-1
608,676,678,-1
609,559,566,-1
535,566,486,-1
603,567,560,-1
610,487,567,-1
612,570,569,-1
611,569,568,-1
613,572,570,-1
616,574,573,-1
618,573,575,-1
617,578,574,-1
620,576,577,-1
621,577,578,-1
535,609,566,-1
602,559,609,-1
603,610,567,-1
612,613,570,-1
612,569,611,-1
613,615,572,-1
602,609,610,-1
535,610,609,-1
602,610,603,-1
612,611,613,-1
613,611,615,-1
611,614,615,-1
616,617,574,-1
616,573,618,-1
617,621,578,-1
619,576,620,-1
620,577,621,-1
616,618,617,-1
617,618,619,-1
617,619,621,-1
619,620,621,-1
622,563,579,-1
624,579,581,-1
623,581,580,-1
676,580,649,-1
625,583,582,-1
626,584,583,-1
622,579,624,-1
606,622,623,-1
623,622,624,-1
623,580,676,-1
623,624,581,-1
625,626,583,-1
625,582,1257,-1
625,627,626,-1
625,1257,627,-1
626,627,584,-1
637,629,421,-1
639,422,631,-1
434,637,421,-1
435,422,639,-1
434,435,639,-1
437,639,631,-1
434,639,637,-1
636,630,628,-1
637,628,629,-1
638,632,630,-1
636,628,637,-1
636,638,630,-1
638,640,632,-1
636,637,638,-1
638,637,640,-1
637,639,640,-1
439,635,426,-1
640,426,632,-1
442,633,429,-1
641,425,633,-1
642,430,634,-1
439,426,640,-1
438,439,639,-1
438,641,439,-1
439,640,639,-1
443,430,642,-1
442,443,641,-1
439,643,635,-1
442,641,633,-1
439,641,643,-1
443,643,641,-1
443,642,643,-1
643,645,635,-1
643,672,645,-1
643,642,672,-1
608,648,565,-1
608,678,675,-1
608,675,648,-1
678,689,675,-1
671,634,644,-1
672,644,645,-1
673,647,646,-1
675,646,648,-1
674,664,647,-1
642,634,671,-1
671,644,672,-1
642,671,672,-1
673,674,647,-1
673,646,675,-1
673,675,674,-1
674,675,691,-1
677,649,650,-1
678,652,651,-1
679,654,652,-1
680,650,653,-1
681,655,654,-1
686,653,659,-1
682,656,655,-1
689,651,662,-1
683,657,656,-1
684,658,657,-1
685,666,658,-1
687,659,660,-1
627,669,584,-1
688,660,661,-1
676,649,677,-1
677,650,680,-1
678,679,652,-1
679,681,654,-1
680,653,686,-1
681,682,655,-1
682,683,656,-1
676,679,678,-1
676,677,679,-1
679,677,681,-1
677,680,681,-1
681,680,682,-1
680,686,682,-1
682,686,683,-1
678,651,689,-1
683,684,657,-1
684,685,658,-1
683,687,684,-1
686,659,687,-1
683,686,687,-1
627,1258,696,-1
687,660,688,-1
688,661,694,-1
627,696,669,-1
684,687,688,-1
684,688,685,-1
688,694,685,-1
690,662,663,-1
692,663,665,-1
693,665,666,-1
691,667,664,-1
694,661,667,-1
695,670,668,-1
696,668,669,-1
697,1343,670,-1
689,662,690,-1
690,663,692,-1
674,691,664,-1
692,665,693,-1
685,693,666,-1
691,694,667,-1
689,691,675,-1
689,690,691,-1
690,692,691,-1
692,694,691,-1
685,694,693,-1
692,693,694,-1
695,668,696,-1
695,697,670,-1
695,696,697,-1
697,696,1374,-1
748,699,700,-1
749,82,701,-1
747,701,699,-1
131,709,83,-1
750,713,702,-1
762,700,714,-1
751,704,703,-1
752,705,704,-1
755,703,707,-1
754,708,706,-1
756,707,708,-1
753,719,705,-1
768,706,720,-1
747,699,748,-1
747,749,701,-1
748,700,762,-1
750,702,758,-1
130,749,131,-1
131,749,757,-1
750,757,749,-1
747,750,749,-1
747,748,762,-1
747,762,750,-1
751,752,704,-1
751,703,755,-1
752,753,705,-1
754,756,708,-1
755,707,756,-1
751,753,752,-1
751,755,753,-1
753,755,754,-1
754,755,756,-1
753,767,719,-1
754,706,768,-1
768,720,770,-1
753,754,768,-1
753,768,767,-1
758,702,710,-1
757,710,709,-1
759,712,711,-1
761,711,713,-1
760,716,712,-1
763,714,715,-1
764,715,716,-1
765,718,717,-1
767,717,719,-1
766,721,718,-1
769,726,721,-1
131,757,709,-1
757,758,710,-1
750,761,713,-1
759,760,712,-1
761,759,711,-1
750,758,757,-1
750,762,761,-1
761,760,759,-1
761,762,760,-1
760,764,716,-1
762,714,763,-1
763,715,764,-1
765,766,718,-1
765,717,767,-1
766,769,721,-1
760,762,764,-1
762,763,764,-1
765,767,766,-1
766,767,769,-1
768,774,769,-1
767,768,769,-1
771,722,723,-1
772,725,724,-1
773,727,725,-1
770,720,722,-1
774,735,726,-1
784,723,736,-1
777,724,729,-1
776,730,728,-1
778,729,730,-1
775,742,727,-1
789,728,741,-1
779,741,731,-1
780,746,732,-1
770,722,771,-1
772,773,725,-1
772,724,777,-1
773,775,727,-1
772,775,773,-1
769,774,726,-1
771,723,784,-1
768,770,771,-1
768,771,774,-1
771,784,774,-1
776,778,730,-1
777,729,778,-1
779,731,819,-1
772,777,775,-1
775,777,776,-1
776,777,778,-1
776,728,789,-1
775,790,742,-1
789,741,779,-1
780,732,791,-1
775,776,789,-1
775,789,790,-1
789,779,819,-1
789,819,780,-1
781,734,733,-1
783,733,735,-1
782,738,734,-1
785,736,737,-1
786,737,738,-1
787,740,739,-1
790,739,742,-1
788,743,740,-1
791,732,743,-1
792,745,744,-1
794,744,746,-1
793,807,745,-1
774,783,735,-1
781,782,734,-1
781,733,783,-1
784,736,785,-1
782,786,738,-1
785,737,786,-1
787,788,740,-1
787,739,790,-1
774,784,783,-1
781,783,782,-1
782,783,784,-1
782,784,786,-1
784,785,786,-1
787,790,788,-1
788,791,743,-1
780,794,746,-1
792,793,745,-1
792,744,794,-1
789,780,791,-1
788,790,791,-1
790,789,791,-1
780,829,794,-1
792,794,793,-1
793,794,829,-1
819,731,795,-1
820,797,796,-1
821,798,797,-1
824,796,800,-1
823,801,799,-1
825,800,801,-1
829,795,805,-1
822,811,798,-1
834,799,810,-1
827,802,803,-1
826,810,802,-1
828,815,804,-1
840,803,816,-1
820,821,797,-1
821,822,798,-1
820,796,824,-1
824,800,825,-1
823,825,801,-1
820,822,821,-1
820,824,822,-1
822,824,823,-1
823,824,825,-1
819,795,829,-1
823,799,834,-1
822,835,811,-1
826,834,810,-1
819,829,780,-1
822,823,834,-1
822,834,835,-1
826,802,827,-1
828,804,836,-1
827,803,840,-1
826,827,834,-1
827,828,834,-1
827,840,828,-1
830,805,806,-1
831,806,807,-1
832,809,808,-1
835,808,811,-1
833,812,809,-1
836,804,812,-1
837,814,813,-1
839,813,815,-1
838,818,814,-1
841,816,817,-1
842,817,818,-1
829,805,830,-1
793,831,807,-1
830,806,831,-1
832,833,809,-1
832,808,835,-1
833,836,812,-1
793,829,831,-1
829,830,831,-1
832,835,833,-1
828,836,834,-1
833,835,836,-1
835,834,836,-1
828,839,815,-1
837,838,814,-1
837,813,839,-1
838,842,818,-1
840,816,841,-1
841,817,842,-1
837,839,838,-1
838,839,840,-1
828,840,839,-1
838,840,842,-1
840,841,842,-1
879,844,843,-1
880,845,844,-1
883,843,847,-1
881,861,845,-1
884,847,848,-1
882,848,846,-1
885,850,849,-1
886,851,850,-1
887,867,851,-1
889,849,853,-1
888,854,852,-1
890,853,854,-1
891,856,855,-1
892,857,856,-1
911,855,875,-1
894,876,858,-1
893,873,857,-1
894,858,874,-1
879,880,844,-1
880,881,845,-1
879,843,883,-1
882,846,898,-1
882,884,848,-1
883,847,884,-1
885,886,850,-1
885,849,889,-1
886,887,851,-1
879,881,880,-1
879,883,881,-1
881,883,882,-1
881,882,897,-1
882,883,884,-1
885,887,886,-1
888,890,854,-1
889,853,890,-1
891,892,856,-1
888,852,904,-1
891,855,911,-1
892,893,857,-1
894,912,876,-1
885,889,887,-1
887,889,888,-1
888,889,890,-1
887,888,903,-1
891,893,892,-1
891,911,893,-1
893,911,894,-1
894,911,912,-1
893,894,909,-1
898,846,862,-1
895,860,859,-1
897,859,861,-1
896,864,860,-1
899,862,863,-1
900,863,864,-1
901,866,865,-1
903,865,867,-1
902,870,866,-1
904,852,868,-1
905,868,869,-1
906,869,870,-1
907,872,871,-1
909,871,873,-1
908,878,872,-1
913,874,877,-1
881,897,861,-1
887,903,867,-1
882,898,897,-1
895,896,860,-1
895,859,897,-1
896,900,864,-1
898,862,899,-1
899,863,900,-1
901,902,866,-1
901,865,903,-1
895,897,896,-1
896,897,898,-1
896,898,900,-1
898,899,900,-1
901,903,902,-1
902,903,904,-1
893,909,873,-1
894,874,910,-1
888,904,903,-1
894,910,909,-1
904,868,905,-1
902,906,870,-1
905,869,906,-1
907,908,872,-1
907,871,909,-1
908,914,878,-1
910,874,913,-1
902,904,906,-1
904,905,906,-1
907,909,908,-1
908,909,914,-1
909,910,914,-1
910,913,914,-1
912,875,876,-1
911,875,912,-1
914,877,878,-1
913,877,914,-1
997,915,916,-1
1012,917,931,-1
999,916,918,-1
998,919,917,-1
1002,918,921,-1
1000,920,919,-1
1001,922,920,-1
1003,923,922,-1
1007,921,926,-1
1004,924,923,-1
1006,927,925,-1
1008,928,927,-1
1043,925,963,-1
1010,964,929,-1
996,915,997,-1
997,916,999,-1
1012,998,917,-1
998,1000,919,-1
999,918,1002,-1
1000,1001,920,-1
1001,1003,922,-1
996,997,1012,-1
1012,997,998,-1
997,999,998,-1
998,999,1000,-1
999,1002,1001,-1
999,1001,1000,-1
1001,1002,1003,-1
1002,921,1007,-1
1003,1004,923,-1
1004,1005,924,-1
1007,926,1026,-1
1006,1008,927,-1
1006,925,1043,-1
1008,1009,928,-1
1010,1044,964,-1
1002,1004,1003,-1
1002,1007,1004,-1
1007,1005,1004,-1
1006,1009,1008,-1
1006,1010,1009,-1
1006,1043,1010,-1
1010,1043,1044,-1
996,930,915,-1
1011,933,930,-1
1012,931,932,-1
1014,935,933,-1
1015,932,934,-1
1016,938,935,-1
1017,934,936,-1
1018,936,937,-1
1019,939,938,-1
1021,937,940,-1
1022,940,941,-1
1020,943,939,-1
1023,941,942,-1
1033,942,953,-1
1024,955,943,-1
1005,944,924,-1
1025,945,944,-1
1026,926,945,-1
1009,946,928,-1
1010,929,947,-1
1053,947,973,-1
1028,949,948,-1
1030,954,950,-1
1031,950,951,-1
1032,953,952,-1
1034,952,954,-1
1035,956,955,-1
1036,951,956,-1
1037,958,957,-1
1039,959,946,-1
1040,948,960,-1
1039,957,959,-1
1038,962,958,-1
1041,960,961,-1
996,1011,930,-1
1012,932,1013,-1
1013,932,1015,-1
1011,1014,933,-1
1015,934,1017,-1
996,1013,1011,-1
996,1012,1013,-1
1011,1013,1015,-1
1011,1015,1014,-1
1014,1015,1016,-1
1014,1016,935,-1
1016,1019,938,-1
1017,936,1018,-1
1018,937,1021,-1
1019,1020,939,-1
1021,940,1022,-1
1020,1024,943,-1
1022,941,1023,-1
1023,942,1033,-1
1024,1035,955,-1
1016,1017,1019,-1
1016,1015,1017,-1
1017,1018,1019,-1
1019,1018,1020,-1
1018,1021,1020,-1
1021,1024,1020,-1
1021,1022,1024,-1
1022,1023,1024,-1
1023,1033,1035,-1
1024,1023,1035,-1
1005,1025,944,-1
1025,1026,945,-1
1010,947,1027,-1
1009,1039,946,-1
1027,947,1053,-1
1028,1029,949,-1
1028,948,1040,-1
1005,1026,1025,-1
1007,1026,1005,-1
1009,1010,1027,-1
1009,1027,1028,-1
1009,1028,1039,-1
1027,1029,1028,-1
1027,1053,1029,-1
1030,950,1031,-1
1030,1034,954,-1
1031,951,1036,-1
1032,952,1034,-1
1033,953,1032,-1
1035,1036,956,-1
1037,1038,958,-1
1037,957,1039,-1
1040,960,1041,-1
1038,1042,962,-1
1030,1031,1034,-1
1033,1032,1035,-1
1031,1036,1034,-1
1032,1034,1036,-1
1035,1032,1036,-1
1028,1040,1039,-1
1037,1039,1038,-1
1038,1039,1042,-1
1039,1040,1042,-1
1040,1041,1042,-1
1044,963,964,-1
1045,966,965,-1
1046,967,966,-1
1049,965,969,-1
1048,970,968,-1
1050,969,970,-1
1052,971,972,-1
1043,963,1044,-1
1045,1046,966,-1
1045,965,1049,-1
1046,1047,967,-1
1045,1047,1046,-1
1045,1049,1047,-1
1047,1049,1048,-1
1049,969,1050,-1
1050,970,1048,-1
1051,971,1052,-1
1049,1050,1048,-1
1029,974,949,-1
1055,973,975,-1
1054,976,974,-1
1056,978,976,-1
1057,975,977,-1
1059,977,979,-1
1058,980,978,-1
1065,979,985,-1
1060,981,980,-1
1061,983,981,-1
1064,985,984,-1
1062,961,982,-1
1042,984,962,-1
1063,982,983,-1
1068,988,967,-1
1069,968,989,-1
1066,987,986,-1
1068,986,988,-1
1067,991,987,-1
1051,989,971,-1
1070,994,990,-1
1071,990,991,-1
1075,972,995,-1
1072,993,992,-1
1074,992,994,-1
1073,1077,993,-1
1053,973,1055,-1
1029,1054,974,-1
1054,1056,976,-1
1055,975,1057,-1
1056,1058,978,-1
1057,977,1059,-1
1059,979,1065,-1
1047,1068,967,-1
1048,968,1069,-1
1053,1055,1054,-1
1029,1053,1054,-1
1055,1056,1054,-1
1055,1057,1056,-1
1056,1057,1058,-1
1057,1059,1058,-1
1047,1048,1069,-1
1063,983,1061,-1
1058,1060,980,-1
1060,1061,981,-1
1065,985,1064,-1
1041,961,1062,-1
1062,982,1063,-1
1042,1064,984,-1
1066,986,1068,-1
1066,1067,987,-1
1067,1071,991,-1
1058,1059,1060,-1
1059,1065,1060,-1
1060,1065,1061,-1
1061,1065,1064,-1
1041,1062,1042,-1
1062,1063,1064,-1
1062,1064,1042,-1
1063,1061,1064,-1
1047,1069,1068,-1
1066,1068,1067,-1
1068,1069,1071,-1
1067,1068,1071,-1
1051,1069,989,-1
1052,972,1075,-1
1071,1070,990,-1
1051,1052,1069,-1
1052,1070,1069,-1
1052,1075,1070,-1
1070,1074,994,-1
1072,992,1074,-1
1072,1073,993,-1
1075,995,1078,-1
1073,1079,1077,-1
1069,1070,1071,-1
1070,1075,1074,-1
1072,1074,1073,-1
1073,1074,1075,-1
1073,1075,1079,-1
1078,995,1076,-1
1079,1076,1077,-1
1078,1076,1079,-1
1075,1078,1079,-1
1136,1083,1086,-1
1133,1082,1083,-1
1134,1087,1084,-1
1135,1084,1085,-1
1138,1086,1088,-1
1137,1089,1087,-1
1139,1090,1089,-1
1145,1088,1095,-1
1140,1096,1090,-1
1132,1091,1082,-1
1141,1093,1091,-1
1142,1085,1092,-1
1143,1182,1093,-1
1144,1092,1094,-1
1240,1094,1183,-1
1146,1097,1096,-1
1148,1095,1098,-1
1147,1101,1097,-1
1149,1100,1099,-1
1151,1102,1101,-1
1152,1103,1102,-1
1153,1098,1103,-1
1150,1104,1100,-1
1161,1099,1111,-1
1155,1112,1105,-1
1158,1105,1108,-1
1156,1191,1106,-1
1157,1106,1107,-1
1154,1196,1104,-1
1167,1108,1117,-1
1159,1110,1109,-1
1254,1109,1197,-1
1133,1083,1136,-1
1132,1082,1133,-1
1134,1084,1135,-1
1136,1086,1138,-1
1134,1137,1087,-1
1137,1139,1089,-1
1138,1088,1145,-1
1139,1140,1090,-1
1140,1146,1096,-1
1133,1136,1134,-1
1132,1133,1135,-1
1133,1134,1135,-1
1134,1136,1137,-1
1136,1138,1137,-1
1137,1138,1139,-1
1138,1140,1139,-1
1138,1145,1140,-1
1140,1145,1146,-1
1132,1141,1091,-1
1135,1085,1142,-1
1142,1092,1144,-1
1141,1143,1093,-1
1143,1239,1182,-1
1144,1094,1240,-1
1132,1142,1141,-1
1141,1142,1143,-1
1132,1135,1142,-1
1143,1144,1239,-1
1143,1142,1144,-1
1144,1240,1239,-1
1146,1147,1097,-1
1145,1095,1148,-1
1149,1150,1100,-1
1147,1151,1101,-1
1151,1152,1102,-1
1148,1098,1153,-1
1152,1153,1103,-1
1150,1154,1104,-1
1149,1099,1161,-1
1155,1162,1112,-1
1155,1105,1158,-1
1145,1147,1146,-1
1145,1148,1147,-1
1147,1148,1151,-1
1151,1153,1152,-1
1151,1148,1153,-1
1149,1154,1150,-1
1149,1155,1154,-1
1149,1161,1155,-1
1155,1161,1162,-1
1154,1155,1158,-1
1154,1158,1159,-1
1156,1106,1157,-1
1158,1108,1167,-1
1159,1160,1110,-1
1154,1253,1196,-1
1159,1109,1254,-1
1156,1157,1248,-1
1154,1159,1253,-1
1158,1160,1159,-1
1158,1167,1160,-1
1159,1254,1253,-1
1162,1111,1112,-1
1163,1114,1113,-1
1164,1115,1114,-1
1177,1113,1127,-1
1166,1128,1116,-1
1168,1117,1118,-1
1160,1119,1110,-1
1169,1120,1119,-1
1170,1123,1120,-1
1171,1118,1121,-1
1172,1121,1122,-1
1173,1124,1123,-1
1176,1122,1126,-1
1174,1125,1124,-1
1271,1214,1115,-1
1272,1116,1215,-1
1178,1127,1128,-1
1180,1129,1130,-1
1179,1215,1129,-1
1273,1131,1216,-1
1181,1219,1131,-1
1277,1130,1220,-1
1161,1111,1162,-1
1163,1164,1114,-1
1163,1113,1177,-1
1164,1165,1115,-1
1166,1116,1272,-1
1163,1165,1164,-1
1163,1177,1165,-1
1165,1177,1166,-1
1165,1166,1272,-1
1167,1117,1168,-1
1160,1169,1119,-1
1169,1170,1120,-1
1168,1118,1171,-1
1170,1173,1123,-1
1171,1121,1172,-1
1173,1174,1124,-1
1172,1122,1176,-1
1174,1175,1125,-1
1176,1126,1268,-1
1165,1271,1115,-1
1160,1167,1169,-1
1167,1168,1169,-1
1169,1168,1170,-1
1168,1171,1170,-1
1170,1171,1173,-1
1171,1172,1173,-1
1172,1174,1173,-1
1172,1176,1174,-1
1174,1176,1175,-1
1176,1268,1175,-1
1165,1272,1271,-1
1177,1127,1178,-1
1166,1178,1128,-1
1179,1129,1180,-1
1180,1130,1277,-1
1166,1177,1178,-1
1272,1179,1180,-1
1272,1215,1179,-1
1273,1181,1131,-1
1181,1276,1219,-1
1272,1181,1273,-1
1272,1180,1181,-1
1181,1180,1277,-1
1181,1277,1276,-1
1239,1184,1182,-1
1242,1183,1185,-1
1243,1185,1186,-1
1241,1187,1184,-1
1246,1188,1189,-1
1245,1186,1188,-1
1244,1192,1187,-1
1247,1189,1190,-1
1248,1190,1191,-1
1249,1193,1192,-1
1250,1107,1193,-1
1251,1195,1194,-1
1253,1194,1196,-1
1252,1199,1195,-1
1255,1197,1198,-1
1240,1183,1242,-1
1239,1241,1184,-1
1242,1185,1243,-1
1241,1244,1187,-1
1245,1188,1246,-1
1243,1186,1245,-1
1244,1249,1192,-1
1239,1240,1241,-1
1240,1242,1241,-1
1242,1244,1241,-1
1242,1243,1244,-1
1243,1245,1244,-1
1245,1249,1244,-1
1245,1246,1249,-1
1246,1189,1247,-1
1247,1190,1248,-1
1156,1248,1191,-1
1249,1250,1193,-1
1157,1107,1250,-1
1251,1252,1195,-1
1251,1194,1253,-1
1254,1197,1255,-1
1252,1256,1199,-1
1157,1250,1248,-1
1247,1248,1250,-1
1246,1247,1249,-1
1249,1247,1250,-1
1251,1253,1252,-1
1253,1256,1252,-1
1253,1254,1256,-1
1254,1255,1256,-1
1257,582,1200,-1
1259,1200,1202,-1
1258,1202,1201,-1
1278,1204,1221,-1
1262,1203,1205,-1
1261,1205,1204,-1
1264,1206,1207,-1
1263,1208,1206,-1
1265,1223,1208,-1
1257,1200,1259,-1
1258,1257,1259,-1
1258,1259,1202,-1
627,1257,1258,-1
1261,1204,1278,-1
1261,1278,1265,-1
1262,1205,1261,-1
1260,1203,1262,-1
1263,1206,1264,-1
1263,1265,1208,-1
1262,1261,1263,-1
1260,1262,1264,-1
1262,1263,1264,-1
1261,1265,1263,-1
1266,1198,1209,-1
1267,1209,1210,-1
1256,1211,1199,-1
1175,1210,1125,-1
1268,1126,1211,-1
1269,1213,1212,-1
1271,1212,1214,-1
1270,1216,1213,-1
1274,1218,1217,-1
1276,1217,1219,-1
1275,1297,1218,-1
1255,1198,1266,-1
1267,1210,1175,-1
1266,1209,1267,-1
1256,1268,1211,-1
1269,1270,1213,-1
1269,1212,1271,-1
1270,1273,1216,-1
1266,1267,1268,-1
1255,1266,1256,-1
1266,1268,1256,-1
1267,1175,1268,-1
1269,1271,1270,-1
1271,1273,1270,-1
1271,1272,1273,-1
1274,1275,1218,-1
1274,1217,1276,-1
1275,1317,1297,-1
1277,1220,1316,-1
1274,1276,1275,-1
1276,1277,1275,-1
1275,1277,1317,-1
1279,1221,1222,-1
1286,1222,1229,-1
1280,1224,1223,-1
1281,1225,1224,-1
1282,1226,1225,-1
1283,1227,1226,-1
1284,1228,1227,-1
1285,1232,1228,-1
1288,1230,1231,-1
1318,1231,1298,-1
1290,1233,1230,-1
1289,1229,1232,-1
1290,1238,1233,-1
1292,1236,1235,-1
1291,1235,1234,-1
1293,1237,1236,-1
1294,1300,1237,-1
1295,1234,1238,-1
1278,1221,1279,-1
1279,1222,1286,-1
1265,1278,1280,-1
1278,1281,1280,-1
1278,1279,1281,-1
1281,1279,1282,-1
1265,1280,1223,-1
1280,1281,1224,-1
1281,1282,1225,-1
1282,1283,1226,-1
1283,1284,1227,-1
1284,1285,1228,-1
1285,1289,1232,-1
1282,1279,1283,-1
1279,1286,1283,-1
1286,1284,1283,-1
1286,1289,1284,-1
1284,1289,1285,-1
1287,1230,1288,-1
1288,1231,1318,-1
1287,1288,1292,-1
1288,1294,1293,-1
1288,1318,1294,-1
1286,1229,1289,-1
1287,1290,1230,-1
1290,1295,1238,-1
1291,1292,1235,-1
1291,1234,1295,-1
1292,1293,1236,-1
1293,1294,1237,-1
1287,1291,1290,-1
1287,1292,1291,-1
1288,1293,1292,-1
1290,1291,1295,-1
1316,1220,1296,-1
1317,1296,1297,-1
1316,1296,1317,-1
1277,1316,1317,-1
1319,1298,1299,-1
1320,1301,1300,-1
1321,1302,1301,-1
1323,1299,1303,-1
1322,1305,1302,-1
1324,1303,1304,-1
1325,1306,1305,-1
1327,1304,1307,-1
1328,1309,1308,-1
1329,1312,1309,-1
1331,1310,1311,-1
1330,1315,1310,-1
1332,1419,1312,-1
1333,1311,1313,-1
1318,1298,1319,-1
1319,1299,1323,-1
1294,1318,1320,-1
1320,1318,1321,-1
1318,1319,1321,-1
1294,1320,1300,-1
1320,1321,1301,-1
1321,1322,1302,-1
1322,1325,1305,-1
1323,1303,1324,-1
1325,1326,1306,-1
1324,1304,1327,-1
1327,1307,1459,-1
1321,1319,1322,-1
1319,1323,1322,-1
1323,1325,1322,-1
1323,1324,1325,-1
1325,1324,1326,-1
1326,1324,1327,-1
1328,1308,1334,-1
1328,1329,1309,-1
1330,1310,1331,-1
1329,1332,1312,-1
1331,1311,1333,-1
1328,1330,1329,-1
1329,1330,1332,-1
1328,1334,1330,-1
1330,1331,1332,-1
1331,1333,1332,-1
1332,1333,1470,-1
1334,1308,1314,-1
1335,1314,1315,-1
1330,1335,1315,-1
1333,1313,1487,-1
1334,1314,1335,-1
1330,1334,1335,-1
1260,1336,1203,-1
1369,1337,1336,-1
1374,1201,1341,-1
1371,1207,1338,-1
1372,1338,1339,-1
1370,1344,1337,-1
1373,1339,1340,-1
1258,1201,1374,-1
1260,1369,1336,-1
1369,1370,1337,-1
1258,1374,696,-1
1264,1207,1371,-1
1371,1338,1372,-1
1260,1264,1371,-1
1260,1371,1369,-1
1369,1371,1370,-1
1370,1377,1344,-1
1372,1339,1373,-1
1371,1372,1370,-1
1370,1372,1377,-1
1372,1373,1377,-1
1375,1341,1342,-1
1376,1342,1343,-1
1377,1346,1344,-1
1378,1340,1345,-1
1379,1355,1346,-1
1374,1341,1375,-1
697,1376,1343,-1
1375,1342,1376,-1
1374,1375,1376,-1
697,1374,1376,-1
1377,1379,1346,-1
1373,1340,1378,-1
1378,1345,1386,-1
1379,1388,1355,-1
1377,1373,1379,-1
1373,1378,1379,-1
1378,1388,1379,-1
1381,1347,1348,-1
1380,1358,1347,-1
1382,1350,1349,-1
1383,1403,1350,-1
1385,1351,1352,-1
1380,1347,1381,-1
1381,1348,1392,-1
1380,1381,1391,-1
1382,1349,1453,-1
1382,1383,1350,-1
1382,1453,1383,-1
1384,1351,1385,-1
1385,1352,1395,-1
1384,1385,1395,-1
1386,1345,1353,-1
1387,1353,1354,-1
1389,1354,1356,-1
1388,1360,1355,-1
1390,1356,1357,-1
1391,1357,1358,-1
1392,1348,1359,-1
1393,1359,1360,-1
1384,1361,1351,-1
1395,1352,1362,-1
1396,1362,1363,-1
1397,1363,1364,-1
1398,1364,1365,-1
1394,1366,1361,-1
1399,1367,1366,-1
1400,1368,1367,-1
1401,1425,1368,-1
1386,1353,1387,-1
1389,1387,1354,-1
1388,1393,1360,-1
1390,1357,1391,-1
1389,1356,1390,-1
1380,1391,1358,-1
1393,1392,1359,-1
1378,1386,1388,-1
1386,1387,1388,-1
1389,1393,1387,-1
1388,1387,1393,-1
1389,1390,1393,-1
1393,1390,1392,-1
1391,1381,1392,-1
1390,1391,1392,-1
1384,1394,1361,-1
1395,1362,1396,-1
1396,1363,1397,-1
1397,1364,1398,-1
1394,1399,1366,-1
1399,1400,1367,-1
1400,1401,1368,-1
1384,1395,1394,-1
1395,1399,1394,-1
1395,1396,1399,-1
1396,1397,1400,-1
1397,1398,1401,-1
1396,1400,1399,-1
1397,1401,1400,-1
1401,1398,1476,-1
1453,1349,1402,-1
1454,1412,1403,-1
1455,1402,1404,-1
1458,1404,1407,-1
1456,1409,1405,-1
1461,1405,1410,-1
1326,1406,1306,-1
1457,1407,1406,-1
1459,1307,1408,-1
1462,1408,1411,-1
1460,1411,1409,-1
1463,1413,1412,-1
1464,1415,1413,-1
1465,1410,1414,-1
1466,1417,1415,-1
1467,1414,1416,-1
1468,1426,1417,-1
1469,1416,1418,-1
1472,1420,1421,-1
1453,1402,1455,-1
1383,1454,1403,-1
1454,1463,1412,-1
1455,1404,1458,-1
1456,1405,1461,-1
1326,1457,1406,-1
1457,1458,1407,-1
1459,1408,1462,-1
1456,1460,1409,-1
1461,1410,1465,-1
1460,1462,1411,-1
1453,1454,1383,-1
1453,1456,1463,-1
1453,1463,1454,-1
1453,1455,1456,-1
1455,1458,1460,-1
1455,1460,1456,-1
1456,1461,1463,-1
1326,1459,1457,-1
1457,1462,1458,-1
1326,1327,1459,-1
1457,1459,1462,-1
1458,1462,1460,-1
1463,1464,1413,-1
1464,1466,1415,-1
1465,1414,1467,-1
1467,1416,1469,-1
1466,1468,1417,-1
1468,1477,1426,-1
1469,1418,1478,-1
1463,1461,1464,-1
1461,1465,1464,-1
1464,1465,1466,-1
1466,1467,1468,-1
1466,1465,1467,-1
1467,1469,1468,-1
1468,1469,1477,-1
1332,1470,1419,-1
1471,1420,1472,-1
1472,1421,1480,-1
1471,1472,1480,-1
1473,1365,1422,-1
1475,1422,1424,-1
1477,1423,1426,-1
1474,1424,1423,-1
1476,1427,1425,-1
1478,1418,1427,-1
1471,1428,1420,-1
1479,1434,1428,-1
1480,1421,1429,-1
1481,1429,1430,-1
1482,1430,1431,-1
1483,1431,1432,-1
1484,1432,1433,-1
1485,1435,1434,-1
1398,1365,1473,-1
1473,1422,1475,-1
1477,1474,1423,-1
1475,1424,1474,-1
1476,1478,1427,-1
1401,1476,1425,-1
1398,1473,1476,-1
1473,1475,1476,-1
1476,1475,1478,-1
1475,1474,1478,-1
1477,1478,1474,-1
1477,1469,1478,-1
1471,1479,1428,-1
1480,1429,1481,-1
1481,1430,1482,-1
1482,1431,1483,-1
1483,1432,1484,-1
1479,1485,1434,-1
1485,1486,1435,-1
1471,1480,1479,-1
1480,1481,1479,-1
1479,1481,1485,-1
1481,1482,1485,-1
1482,1483,1485,-1
1483,1484,1486,-1
1485,1483,1486,-1
1487,1313,1436,-1
1470,1437,1419,-1
1490,1436,1439,-1
1488,1438,1437,-1
1489,1441,1438,-1
1491,1439,1440,-1
1496,1440,1445,-1
1492,1442,1441,-1
1493,1443,1442,-1
1494,1444,1443,-1
1497,1445,1446,-1
1502,1447,1451,-1
1498,1446,1447,-1
1470,1488,1437,-1
1487,1436,1490,-1
1488,1489,1438,-1
1490,1439,1491,-1
1489,1492,1441,-1
1491,1440,1496,-1
1333,1487,1470,-1
1470,1487,1488,-1
1488,1487,1490,-1
1488,1490,1489,-1
1489,1490,1491,-1
1489,1491,1492,-1
1492,1491,1496,-1
1492,1493,1442,-1
1493,1494,1443,-1
1494,1495,1444,-1
1496,1445,1497,-1
1497,1446,1498,-1
1498,1447,1502,-1
1492,1496,1493,-1
1493,1496,1497,-1
1493,1497,1494,-1
1497,1498,1494,-1
1494,1502,1495,-1
1494,1498,1502,-1
1499,1433,1448,-1
1495,1449,1444,-1
1500,1448,1449,-1
1486,1450,1435,-1
1501,1452,1450,-1
1503,1451,1452,-1
1484,1433,1499,-1
1499,1448,1500,-1
1500,1449,1495,-1
1501,1503,1452,-1
1486,1501,1450,-1
1502,1451,1503,-1
1484,1499,1486,-1
1500,1495,1503,-1
1499,1500,1501,-1
1500,1503,1501,-1
1486,1499,1501,-1
1495,1502,1503,-1
]

colorPerVertex FALSE

color Color { color [
 0 0 0,
 1 1 1,
 0.976471 0.843137 0.172549, # default colour
] }

colorIndex [
0 0 0 0 0 0 0 0 0 0 0 0 0 0 0 0 0 0 0 0 0 0 0 0 0 0 0 0 0 0 0 0 0 0 0 0 0 0 0 0 0 0 0 0 0 0 0 0 0 0 0 0 0 0 0 0 0 0 0 0 0 0 0 0 0 0 0 0 0 0 0 0 0 0 0 0 0 0 0 0 0 0 0 0 0 0 0 0 0 0 0 0 0 0 0 0 0 0 0 0 0 0 0 0 0 0 0 0 0 0 0 0 0 0 0 0 0 0 0 0 0 0 0 0 0 0 0 0 0 0 0 0 0 0 0 0 0 0 0 0 0 0 0 0 0 0 0 0 0 0 0 0 0 0 0 0 0 0 0 0 0 0 0 0 0 0 0 0 0 0 0 0 0 0 0 0 0 0 0 0 0 0 0 0 0 0 0 0 0 0 0 0 0 0 0 0 0 0 0 0 0 0 0 0 0 0 0 0 0 0 0 0 0 0 0 0 0 0 0 0 0 0 0 0 0 0 0 0 0 0 0 0 0 0 0 0 0 0 0 0 0 0 0 0 0 0 0 0 0 0 0 0 0 0 0 0 0 0 0 0 0 0 0 0 0 0 0 0 0 0 0 0 0 0 0 0 0 0 0 0 0 0 0 0 0 0 0 0 0 0 0 0 0 0 0 0 0 0 0 0 0 0 0 0 0 0 0 0 0 0 0 0 0 0 0 0 0 0 0 0 0 0 0 0 0 0 0 0 0 0 0 0 0 0 0 0 0 0 0 0 0 0 0 0 0 0 0 0 0 0 0 0 0 0 0 0 0 0 0 0 0 0 0 0 0 0 0 0 0 0 0 0 0 0 0 0 0 0 0 0 0 0 0 0 0 0 0 0 0 0 0 0 0 0 0 0 0 0 0 0 0 0 0 0 0 0 0 0 0 0 0 0 0 0 0 0 0 0 0 0 0 0 0 0 0 0 0 0 0 0 0 0 0 0 0 0 0 0 0 0 0 0 0 0 0 0 0 0 0 0 0 0 0 0 0 0 0 0 0 0 0 0 0 0 0 0 0 0 0 0 0 0 0 0 0 0 0 0 0 0 0 0 0 0 0 0 0 0 0 0 0 0 0 0 0 0 0 0 0 0 0 0 0 0 0 0 0 0 0 0 0 0 0 0 0 0 0 0 0 0 0 0 0 0 0 0 0 0 0 0 0 0 0 0 0 0 0 0 0 0 0 0 0 0 0 0 0 0 0 0 0 0 0 0 0 0 0 0 0 0 0 0 0 0 0 0 0 0 0 0 0 0 0 0 0 0 0 0 0 0 0 0 0 0 0 0 0 0 0 0 0 0 0 0 0 0 0 0 0 0 0 0 0 0 0 0 0 0 0 0 0 0 0 0 0 0 0 0 0 0 0 0 0 0 0 0 0 0 0 0 0 0 0 0 0 0 0 0 0 0 0 0 0 0 0 0 0 0 0 0 0 0 0 0 0 0 0 0 0 0 0 0 0 0 0 0 0 0 0 0 0 0 0 0 0 0 0 0 0 0 0 0 0 0 0 0 0 0 0 0 0 0 0 0 0 0 0 0 0 0 0 0 0 0 0 0 0 0 0 0 0 0 0 0 0 0 0 0 0 0 0 0 0 0 0 0 0 0 0 0 0 0 0 0 0 0 0 0 0 0 0 0 0 0 0 0 0 0 0 0 0 0 0 0 0 0 0 0 0 0 0 0 0 0 0 0 0 0 0 0 0 0 0 0 0 0 0 0 0 0 0 0 0 0 0 0 0 0 0 0 0 0 0 0 0 0 0 0 0 0 0 0 0 0 0 0 0 0 0 0 0 0 0 0 0 1 1 1 1 1 1 1 1 1 1 1 1 1 1 1 1 1 1 1 1 1 1 1 1 1 1 1 1 1 1 1 1 1 1 1 1 1 1 1 1 1 1 1 1 1 1 1 1 1 1 1 1 1 1 1 1 1 1 1 1 1 1 1 1 1 1 1 1 1 1 1 1 1 1 1 1 1 1 1 1 1 1 1 1 1 1 1 1 1 1 1 1 1 1 1 1 1 1 1 1 1 1 1 1 1 1 1 1 1 1 1 1 1 1 1 1 1 1 1 1 1 1 1 1 1 1 1 1 1 1 1 1 1 1 1 1 1 1 1 1 1 1 1 1 1 1 1 1 1 1 1 1 1 1 1 1 1 1 1 1 1 1 1 1 1 1 1 1 1 1 1 1 1 1 1 1 1 1 1 1 1 1 1 1 1 1 1 1 1 1 1 1 1 1 1 1 1 1 1 1 1 1 1 1 1 1 1 1 1 1 1 1 1 1 1 1 1 1 1 1 1 1 1 1 1 1 1 1 1 1 1 1 1 1 1 1 1 1 1 1 1 1 1 1 1 1 1 1 1 1 1 1 1 1 1 1 1 1 1 1 1 1 1 1 1 1 1 1 1 1 1 1 1 1 1 1 1 1 1 1 1 1 1 1 1 1 1 1 1 1 1 1 1 1 1 1 1 1 1 1 1 1 1 1 1 1 1 1 1 1 1 1 1 1 1 1 1 1 1 1 1 1 1 1 1 1 1 1 1 1 1 1 1 1 1 1 1 1 1 1 1 1 1 1 1 1 1 1 1 1 1 1 1 1 1 1 1 1 1 1 1 1 1 1 1 1 1 1 1 1 1 1 1 1 1 1 1 1 1 1 1 1 1 1 1 1 1 1 1 1 1 1 1 1 1 1 1 1 1 1 1 1 1 1 1 1 1 1 1 1 1 1 1 1 1 1 1 1 1 1 1 1 1 1 1 1 1 1 1 1 1 1 1 1 1 1 1 1 1 1 1 1 1 1 1 1 1 1 1 1 1 1 1 1 1 1 1 1 1 1 1 1 1 1 1 1 1 1 1 1 1 1 1 1 1 1 1 1 1 1 1 1 1 1 1 1 1 1 1 1 1 1 1 1 1 1 1 1 1 1 1 1 1 1 1 1 1 1 1 1 1 1 1 1 1 1 1 1 1 1 1 1 1 1 1 1 1 1 1 1 1 1 1 1 1 1 1 1 1 1 1 1 1 1 1 1 1 1 1 1 1 1 1 1 1 1 1 1 1 1 1 1 1 1 1 1 1 1 1 1 1 1 1 1 1 1 1 1 1 1 1 1 1 1 1 1 1 1 1 1 1 1 1 1 1 1 1 1 1 1 1 1 1 1 1 1 1 1 1 1 1 1 1 1 1 1 1 1 1 1 1 1 1 1 1 1 1 1 1 1 1 1 1 1 1 1 1 1 1 1 1 1 1 1 1 1 1 1 1 1 1 1 1 1 1 1 1 1 1 1 1 1 1 1 1 1 1 1 1 1 1 1 1 1 1 1 1 1 1 1 1 1 1 1 1 1 1 1 1 1 1 1 1 1 1 1 1 1 1 1 1 1 1 1 1 1 1 1 1 1 1 1 1 1 1 1 1 1 1 1 1 1 1 1 1 1 1 1 1 1 1 1 1 1 1 1 1 1 1 1 1 1 1 1 1 1 1 1 1 1 1 1 1 1 1 1 1 1 1 1 1 1 1 1 1 1 1 1 1 1 1 1 1 1 1 1 1 1 1 1 1 1 1 1 1 1 1 1 1 1 1 1 1 1 1 1 1 1 1 1 1 1 1 1 1 1 1 1 1 1 1 1 1 1 1 1 1 1 1 1 1 1 1 1 1 1 1 1 1 1 1 1 1 1 1 1 1 1 1 1 1 1 1 1 1 1 1 1 1 1 1 1 1 1 1 1 1 1 1 1 1 1 1 1 1 1 1 1 1 1 1 1 1 1 1 1 1 1 1 1 1 1 1 1 1 1 1 1 1 1 1 1 1 1 1 1 1 1 1 1 1 1 1 1 1 1 1 1 1 1 1 1 1 1 1 1 1 1 1 1 1 1 1 1 1 1 1 1 1 1 1 1 1 1 1 1 1 1 1 1 1 1 1 1 1 1 1 1 1 1 1 1 1 1 1 1 1 1 1 1 1 1 1 1 1 1 1 1 1 1 1 1 1 1 1 1 1 1 1 1 1 1 1 1 1 1 1 1 1 1 1 1 1 1 1 1 1 1 1 1 1 1 1 1 1 1 1 1 1 1 1 1 1 1 1 1 1 1 1 1 1 1 1 1 1 1 1 1 1 1 1 1 1 1 1 1 1 1 1 1 1 1 1 1 1 1 1 1 1 1 1 1 1 1 1 1 1 1 1 1 1 1 1 1 1 1 1 1 1 1 1 1 1 1 1 1 1 1 1 1 1 1 1 1 1 1 1 1 1 1 1 1 1 1 1 1 1 1 1 1 1 1 1 1 1 1 1 1 1 1 1 1 1 1 1 1 1 1 1 1 1 1 1 1 1 1 1 1 1 1 1 1 1 1 1 1 1 1 1 1 1 1 1 1 1 1 1 1 1 1 1 1 1 1 1 1 1 1 1 1 1 1 1 1 1 1 1 1 1 1 1 1 1 1 1 1 1 1 1 1 1 1 1 1 1 1 1 1 1 1 1 1 1 1 1 1 1 1 1 1 1 1 1 1 1 1 1 1 1 1 1 1 1 1 1 1 1 1 1 1 1 1 1 1 1 1 1 1 1 1 1 1 1 1 1 1 1 1 1 1 1 1 1 1 1 1 1 1 1 1 1 1 1 1 1 1 1 1 1 1 1 1 1 1 1 1 1 1 1 1 1 1 1 1 1 1 1 1 1 1 1 1 1 1 1 1 1 1 1 1 1 1 1 1 1 1 1 1 1 1 1 1 1 1 1 1 1 1 1 1 1 1 1 1 1 1 1 1 1 1 1 1 1 1 1 1 1 1 1 1 1 1 1 1 1 1 1 1 1 1 1 1 1 1 1 1 1 1 1 1 1 1 1 1 1 1 1 1 1 1 1 1 1 1 1 1 1 1 1 1 1 1 1 1 1 1 1 1 1 1 1 1 1 1 1 1 1 1 1 1 1 1 1 1 1 1 1 1 1 1 1 1 1 1 1 1 1 1 1 1 1 1 1 1 1 1 1 1 1 1 1 1 1 1 1 1 1 1 1 1 1 1 1 1 1 1 1 1 1 1 1 1 1 1 1 1 1 1 1 1 1 1 1 1 1 1 1 1 1 1 1 1 1 1 1 1 1 1 1 1 1 1 1 1 1 1 1 1 1 1 1 1 1 1 1 1 1 1 1 1 1 1 1 1 1 1 1 1 1 1 1 1 1 1 1 1 1 1 1 1 1 1 1 1 1 1 1 1 1 1 1 1 1 1 1 1 1 1 1 1 1 1 1 1 1 1 1 1 1 1 1 1 1 1 1 1 1 1 1 1 1 1 1 1 1 1 1 1 1 1 1 1 1 1 1 1 1 1 1 1 1 1 1 1 1 1 1 1 1 1 1 1 1 1 1 1 1 1 1 1 1 1 1 1 1 1 1 1 1 1 1 1 1 1 1 1 1 1 1 1 1 1 1 1 1 1 1 1 1 1 1 1 1 1 1 1 1 1 1 1 1 1 1 1 1 1 1 1 1 1 1 1 1 1 1 1 1 1 1 1 1 1 1 1 1 1 1 1 1 1 1 1 1 1 1 1 1 1 1 1 1 1 1 1 1 1 1 1 1 1 1 1 1 1 1 1 1 1 1 1 1 1 1 1 1 1 1 1 1 1 1 1 1 1 1 1 1 1 1 1 1 1 1 1 1 1 1 1 1 1 1 1 1 1 1 1 1 1 1 1 1 1 1 1 1 1 1 1 1 1 1 1 1 1 1 1 1 1 1 1 1 1 1 1 1 1 1 1 1 1 1 1 1 1 1 1 1 1 1 1 1 1 1 1 1 1 1 1 1 1 1 1 1 1 1 1 1 1 1 1 1 1 1 1 1 1 1 1 1 1 1 1 1 1 1 1 1 1 1 1 1 1 1 1 1 1 1 1 1 1 1 1 1 1 1 1 1 1 1 1 1 1 1 1 1 1 1 1 1 1 1 1 1 1 1 1 1 1 1 1 1 1 1 1 1 1 1 1 1 1 1 1 1 1 1 1 1 1 1 1 1 1 1 1 1 1 1 1 1 1 1 1 1 1 1 1 1 1 1 1 1 1 1 1 1 1 1 1 1 1 1 1 1 1 1 1 1 1 1 1 1 1 1 1 1 1 1 1 1 1 1 1 1 1 1 1 1 1 1 1 1 1 1 1 1 1 1 1 1 1 1 1 1 1 1 1 1 1 1 1 1 1 1 1 1 1 1 1 1 1 1 1 1 1 1 1 1 1 1 1 1 1 1 1 1 1 1 1 1 1 1 1 1 1 1 1 1 1 1 1 1 1 1 1 1 1 1 1 1 1 1 1 1 1 1 1 1 1 1 1 1 1 1 1 1 1 1 1 1 1 1 1 1 1 1 1 1 1 1 1 1 1 1 1 1 1 1 1 1 1 1 1 1 1 1 1 1 1 1 1 1 1 1 1 1 1 1 1 1 1 1 1 1 1 1 1 1 1 1 1 1 1 1 1 1 1 1 1 1 1 1 1 1 1 1 1 1 1 1 1 1 1 1 1 1 1 1 1 1 1 1 1 1 1 1 1 1 1 1 1 1 1 1 1 1 1 1 1 1 1 1 1 1 1 1 1 1 1 1 1 1 1 1 1 1 1 1 1 1 1 1 1 1 1 1 1 1 1 1 1 1 1 1 1 1 1 1 1 1 1 1 1 1 1 1 1 1 1 1 1 1 1 1 1 1 1 1 1 1 1 1 1 1 1 1 1 1 1 1 1 1 ]

}

}
