#VRML V2.0 utf8

Shape {

appearance Appearance { material Material {
ambientIntensity 0.3
diffuseColor 0.97647 0.843137 0.172549
specularColor 0.2 0.2 0.2
shininess 0.3
} }

geometry IndexedFaceSet {

creaseAngle 0.5

coord Coordinate { point [
0 0 0,
0 0 1,
0.235713 0.532857 1,
0.235713 0.542433 1,
0.161819 0.765564 1,
0.161819 0.775139 1,
0.189098 0.760864 1,
0.231738 0.760864 1,
0.235713 0.532857 1.2,
0.235713 0.542433 1.2,
0.161819 0.765564 1.2,
0.161819 0.775139 1.2,
0.189098 0.760864 1.2,
0.231738 0.760864 1.2,
0.274196 0.547311 1,
0.309066 0.547311 1,
0.274196 0.627168 1,
0.301297 0.649028 1,
0.309066 0.628252 1,
0.347549 0.532857 1,
0.347549 0.542433 1,
0.264258 0.765564 1,
0.264258 0.775139 1,
0.336708 0.765564 1,
0.336708 0.775139 1,
0.367422 0.760864 1,
0.388922 0.760864 1,
0.502943 0.532857 1,
0.502943 0.542433 1,
0.541426 0.547311 1,
0.541426 0.627168 1,
0.41548 0.765564 1,
0.41548 0.775139 1,
0.429049 0.765564 1,
0.429049 0.775139 1,
0.456329 0.760864 1,
0.498968 0.760864 1,
0.531488 0.765564 1,
0.531488 0.775139 1,
0.274196 0.547311 1.2,
0.309066 0.547311 1.2,
0.274196 0.627168 1.2,
0.301297 0.649028 1.2,
0.309066 0.628252 1.2,
0.347549 0.532857 1.2,
0.347549 0.542433 1.2,
0.264258 0.765564 1.2,
0.264258 0.775139 1.2,
0.336708 0.765564 1.2,
0.336708 0.775139 1.2,
0.367422 0.760864 1.2,
0.388922 0.760864 1.2,
0.502943 0.532857 1.2,
0.502943 0.542433 1.2,
0.541426 0.547311 1.2,
0.541426 0.627168 1.2,
0.41548 0.765564 1.2,
0.41548 0.775139 1.2,
0.429049 0.765564 1.2,
0.429049 0.775139 1.2,
0.456329 0.760864 1.2,
0.498968 0.760864 1.2,
0.531488 0.765564 1.2,
0.531488 0.775139 1.2,
0.503216 1.62703 1,
0.542603 1.60298 1,
0.557803 1.61582 1,
0.478554 1.66553 1,
0.470334 1.71691 1,
0.478238 1.77181 1,
0.513673 1.67075 1,
0.508095 1.71727 1,
0.530408 1.63669 1,
0.513425 1.76705 1,
0.501951 1.81149 1,
0.529414 1.80183 1,
0.541203 1.83555 1,
0.557012 1.82229 1,
0.503216 1.62703 1.2,
0.542603 1.60298 1.2,
0.557803 1.61582 1.2,
0.478554 1.66553 1.2,
0.470334 1.71691 1.2,
0.478238 1.77181 1.2,
0.513673 1.67075 1.2,
0.508095 1.71727 1.2,
0.530408 1.63669 1.2,
0.513425 1.76705 1.2,
0.501951 1.81149 1.2,
0.529414 1.80183 1.2,
0.541203 1.83555 1.2,
0.557012 1.82229 1.2,
0.576296 0.547311 1,
0.614779 0.532857 1,
0.614779 0.542433 1,
0.576296 0.628252 1,
0.568527 0.649028 1,
0.603938 0.765564 1,
0.603938 0.775139 1,
0.634652 0.760864 1,
0.656153 0.760864 1,
0.682711 0.765564 1,
0.682711 0.775139 1,
0.692486 0.765564 1,
0.692486 0.775139 1,
0.713624 0.760864 1,
0.793841 0.527257 1,
0.803419 0.527257 1,
0.807032 0.590131 1,
0.749398 0.760864 1,
0.78499 0.765564 1,
0.78499 0.775139 1,
0.576296 0.547311 1.2,
0.614779 0.532857 1.2,
0.614779 0.542433 1.2,
0.576296 0.628252 1.2,
0.568527 0.649028 1.2,
0.603938 0.765564 1.2,
0.603938 0.775139 1.2,
0.634652 0.760864 1.2,
0.656153 0.760864 1.2,
0.682711 0.765564 1.2,
0.682711 0.775139 1.2,
0.692486 0.765564 1.2,
0.692486 0.775139 1.2,
0.713624 0.760864 1.2,
0.793841 0.527257 1.2,
0.803419 0.527257 1.2,
0.807032 0.590131 1.2,
0.749398 0.760864 1.2,
0.78499 0.765564 1.2,
0.78499 0.775139 1.2,
0.93079 0.527257 1,
0.940366 0.527257 1,
0.867918 0.694198 1,
0.943256 0.590131 1,
0.872253 0.758154 1,
0.880385 0.758154 1,
0.960422 0.765564 1,
0.960422 0.775139 1,
0.998181 0.760864 1,
1.1431 0.527257 1,
1.15268 0.527257 1,
1.15629 0.590131 1,
1.0195 0.760864 1,
1.04064 0.765564 1,
1.04175 0.765564 1,
1.04064 0.775139 1,
1.04175 0.775139 1,
1.06289 0.760864 1,
1.09866 0.760864 1,
1.13425 0.765564 1,
1.13425 0.775139 1,
0.93079 0.527257 1.2,
0.940366 0.527257 1.2,
0.867918 0.694198 1.2,
0.943256 0.590131 1.2,
0.872253 0.758154 1.2,
0.880385 0.758154 1.2,
0.960422 0.765564 1.2,
0.960422 0.775139 1.2,
0.998181 0.760864 1.2,
1.1431 0.527257 1.2,
1.15268 0.527257 1.2,
1.15629 0.590131 1.2,
1.0195 0.760864 1.2,
1.04064 0.765564 1.2,
1.04175 0.765564 1.2,
1.04064 0.775139 1.2,
1.04175 0.775139 1.2,
1.06289 0.760864 1.2,
1.09866 0.760864 1.2,
1.13425 0.765564 1.2,
1.13425 0.775139 1.2,
0.757077 1.06571 1,
0.757077 1.07529 1,
0.784541 1.08017 1,
0.804233 1.08017 1,
0.836756 1.06571 1,
0.836756 1.07529 1,
0.828624 1.15009 1,
0.834043 1.16635 1,
0.757077 1.06571 1.2,
0.757077 1.07529 1.2,
0.784541 1.08017 1.2,
0.804233 1.08017 1.2,
0.836756 1.06571 1.2,
0.836756 1.07529 1.2,
0.828624 1.15009 1.2,
0.834043 1.16635 1.2,
0.594998 1.59496 1,
0.595361 1.60887 1,
0.615369 1.61011 1,
0.639217 1.5978 1,
0.634203 1.61384 1,
0.650554 1.61964 1,
0.663111 1.62712 1,
0.680455 1.60634 1,
0.714982 1.59857 1,
0.714982 1.60815 1,
0.597167 1.82911 1,
0.59572 1.84356 1,
0.614353 1.82805 1,
0.631222 1.82486 1,
0.634881 1.84126 1,
0.669795 1.66325 1,
0.68154 1.66325 1,
0.666002 1.78141 1,
0.646919 1.81974 1,
0.660582 1.81285 1,
0.676843 1.83435 1,
0.677927 1.78141 1,
0.712632 1.83128 1,
0.712632 1.84085 1,
0.743708 1.61303 1,
0.778578 1.61303 1,
0.817061 1.59857 1,
0.817061 1.60815 1,
0.778578 1.6936 1,
0.778578 1.70987 1,
0.743708 1.82658 1,
0.778578 1.82459 1,
0.797367 1.70987 1,
0.805858 1.6936 1,
0.823902 1.71334 1,
0.843055 1.69844 1,
0.842444 1.72378 1,
0.853352 1.74207 1,
0.796282 1.82459 1,
0.804051 1.84085 1,
0.824422 1.82138 1,
0.856988 1.76913 1,
0.85351 1.79469 1,
0.843075 1.81176 1,
0.594998 1.59496 1.2,
0.595361 1.60887 1.2,
0.615369 1.61011 1.2,
0.639217 1.5978 1.2,
0.634203 1.61384 1.2,
0.650554 1.61964 1.2,
0.663111 1.62712 1.2,
0.680455 1.60634 1.2,
0.714982 1.59857 1.2,
0.714982 1.60815 1.2,
0.597167 1.82911 1.2,
0.59572 1.84356 1.2,
0.614353 1.82805 1.2,
0.631222 1.82486 1.2,
0.634881 1.84126 1.2,
0.669795 1.66325 1.2,
0.68154 1.66325 1.2,
0.666002 1.78141 1.2,
0.646919 1.81974 1.2,
0.660582 1.81285 1.2,
0.676843 1.83435 1.2,
0.677927 1.78141 1.2,
0.712632 1.83128 1.2,
0.712632 1.84085 1.2,
0.743708 1.61303 1.2,
0.778578 1.61303 1.2,
0.817061 1.59857 1.2,
0.817061 1.60815 1.2,
0.778578 1.6936 1.2,
0.778578 1.70987 1.2,
0.743708 1.82658 1.2,
0.778578 1.82459 1.2,
0.797367 1.70987 1.2,
0.805858 1.6936 1.2,
0.823902 1.71334 1.2,
0.843055 1.69844 1.2,
0.842444 1.72378 1.2,
0.853352 1.74207 1.2,
0.796282 1.82459 1.2,
0.804051 1.84085 1.2,
0.824422 1.82138 1.2,
0.856988 1.76913 1.2,
0.85351 1.79469 1.2,
0.843075 1.81176 1.2,
0.915528 1.06571 1,
0.915528 1.07529 1,
0.924019 1.15009 1,
0.948048 1.08017 1,
0.987253 1.08017 1,
0.918419 1.16635 1,
0.867107 1.30998 1,
0.875598 1.28397 1,
0.901434 1.30998 1,
1.01797 1.06571 1,
1.01797 1.07529 1,
1.0337 1.06571 1,
1.0337 1.07529 1,
1.06243 1.08017 1,
1.0973 1.08017 1,
1.13398 1.06571 1,
1.13398 1.07529 1,
1.03136 1.29842 1,
1.03136 1.308 1,
1.06243 1.29372 1,
1.0973 1.17195 1,
1.0973 1.18821 1,
1.12928 1.18821 1,
1.14084 1.17195 1,
1.15694 1.19121 1,
1.0973 1.29173 1,
1.12819 1.29173 1,
1.13596 1.308 1,
1.1569 1.28882 1,
0.915528 1.06571 1.2,
0.915528 1.07529 1.2,
0.924019 1.15009 1.2,
0.948048 1.08017 1.2,
0.987253 1.08017 1.2,
0.918419 1.16635 1.2,
0.867107 1.30998 1.2,
0.875598 1.28397 1.2,
0.901434 1.30998 1.2,
1.01797 1.06571 1.2,
1.01797 1.07529 1.2,
1.0337 1.06571 1.2,
1.0337 1.07529 1.2,
1.06243 1.08017 1.2,
1.0973 1.08017 1.2,
1.13398 1.06571 1.2,
1.13398 1.07529 1.2,
1.03136 1.29842 1.2,
1.03136 1.308 1.2,
1.06243 1.29372 1.2,
1.0973 1.17195 1.2,
1.0973 1.18821 1.2,
1.12928 1.18821 1.2,
1.14084 1.17195 1.2,
1.15694 1.19121 1.2,
1.0973 1.29173 1.2,
1.12819 1.29173 1.2,
1.13596 1.308 1.2,
1.1569 1.28882 1.2,
0.918429 1.59857 1,
0.918429 1.60815 1,
0.949506 1.61303 1,
0.968475 1.61303 1,
1.001 1.59857 1,
1.001 1.60815 1,
0.870448 1.71294 1,
0.887319 1.73674 1,
0.892943 1.76949 1,
0.87072 1.82301 1,
0.918429 1.83128 1,
0.918429 1.84085 1,
0.949506 1.82658 1,
0.968475 1.81646 1,
0.991782 1.84085 1,
1.11789 1.59857 1,
1.13542 1.59857 1,
1.08392 1.83128 1,
1.08392 1.84085 1,
1.11644 1.66145 1,
1.11644 1.82658 1,
1.13542 1.82658 1,
0.918429 1.59857 1.2,
0.918429 1.60815 1.2,
0.949506 1.61303 1.2,
0.968475 1.61303 1.2,
1.001 1.59857 1.2,
1.001 1.60815 1.2,
0.870448 1.71294 1.2,
0.887319 1.73674 1.2,
0.892943 1.76949 1.2,
0.87072 1.82301 1.2,
0.918429 1.83128 1.2,
0.918429 1.84085 1.2,
0.949506 1.82658 1.2,
0.968475 1.81646 1.2,
0.991782 1.84085 1.2,
1.11789 1.59857 1.2,
1.13542 1.59857 1.2,
1.08392 1.83128 1.2,
1.08392 1.84085 1.2,
1.11644 1.66145 1.2,
1.11644 1.82658 1.2,
1.13542 1.82658 1.2,
0 3.73 0,
-0.0364861 2.66429 0.9,
0 2.66429 0.9,
-0.0364861 2.68152 0.9,
0 2.68725 0.9,
0 2.66429 1,
0 2.68725 1,
0.0194511 2.6903 1,
0.112133 2.66429 1,
0.0535965 2.6903 1,
0.112133 2.68152 1,
0.213275 2.66429 1,
0.224655 2.66429 1,
0.23734 2.76868 1,
-0.0364861 2.66429 1.2,
-0.0364861 2.68152 1.2,
0.0194511 2.6903 1.2,
0.112133 2.66429 1.2,
0.0535965 2.6903 1.2,
0.112133 2.68152 1.2,
0.213275 2.66429 1.2,
0.224655 2.66429 1.2,
0.23734 2.76868 1.2,
0.478554 2.19839 1,
0.470334 2.24977 1,
0.478238 2.30467 1,
0.503216 2.15988 1,
0.513673 2.20361 1,
0.542603 2.13583 1,
0.557803 2.14868 1,
0.530408 2.16955 1,
0.508095 2.25013 1,
0.513425 2.2999 1,
0.478554 2.19839 1.2,
0.470334 2.24977 1.2,
0.478238 2.30467 1.2,
0.503216 2.15988 1.2,
0.513673 2.20361 1.2,
0.542603 2.13583 1.2,
0.557803 2.14868 1.2,
0.530408 2.16955 1.2,
0.508095 2.25013 1.2,
0.513425 2.2999 1.2,
0.340107 2.66429 1,
0.340107 2.68152 1,
0.398643 2.6903 1,
0.501951 2.34435 1,
0.529414 2.33468 1,
0.541203 2.3684 1,
0.557012 2.35515 1,
0.461084 2.6903 1,
0.517021 2.66429 1,
0.517021 2.68152 1,
0.340107 2.66429 1.2,
0.340107 2.68152 1.2,
0.398643 2.6903 1.2,
0.501951 2.34435 1.2,
0.529414 2.33468 1.2,
0.541203 2.3684 1.2,
0.557012 2.35515 1.2,
0.461084 2.6903 1.2,
0.517021 2.66429 1.2,
0.517021 2.68152 1.2,
-0.0364861 3.08316 0.9,
0 3.07764 0.9,
-0.0364861 3.10039 0.9,
0 3.10039 0.9,
0 3.07764 1,
0 3.10039 1,
0.0194511 3.0747 1,
0.0535965 3.03925 1,
0.0955495 3.10039 1,
-0.0364861 3.08316 1.2,
-0.0364861 3.10039 1.2,
0.0194511 3.0747 1.2,
0.0535965 3.03925 1.2,
0.0955495 3.10039 1.2,
0 3.73 1,
0.398643 3.03925 1,
0.39214 3.10039 1,
0.392204 3.25998 1,
0.398093 3.22873 1,
0.461084 3.0747 1,
0.415761 3.20192 1,
0.442314 3.18348 1,
0.47484 3.17733 1,
0.517021 3.08316 1,
0.517021 3.10039 1,
0.507363 3.18348 1,
0.533909 3.20192 1,
0.551584 3.22873 1,
0.557476 3.25998 1,
0.398643 3.03925 1.2,
0.39214 3.10039 1.2,
0.392204 3.25998 1.2,
0.398093 3.22873 1.2,
0.461084 3.0747 1.2,
0.415761 3.20192 1.2,
0.442314 3.18348 1.2,
0.47484 3.17733 1.2,
0.517021 3.08316 1.2,
0.517021 3.10039 1.2,
0.507363 3.18348 1.2,
0.533909 3.20192 1.2,
0.551584 3.22873 1.2,
0.557476 3.25998 1.2,
0.398179 3.29207 1,
0.416103 3.31871 1,
0.442742 3.33664 1,
0.47484 3.34261 1,
0.506935 3.33664 1,
0.533567 3.31871 1,
0.551499 3.29207 1,
0.398179 3.29207 1.2,
0.416103 3.31871 1.2,
0.442742 3.33664 1.2,
0.47484 3.34261 1.2,
0.506935 3.33664 1.2,
0.533567 3.31871 1.2,
0.551499 3.29207 1.2,
0.594998 2.12782 1,
0.595361 2.14173 1,
0.615369 2.14297 1,
0.639217 2.13066 1,
0.634203 2.14669 1,
0.650554 2.1525 1,
0.663111 2.15997 1,
0.669795 2.19611 1,
0.680455 2.1392 1,
0.714982 2.13143 1,
0.714982 2.141 1,
0.68154 2.19611 1,
0.666002 2.31427 1,
0.677927 2.31427 1,
0.743708 2.14588 1,
0.778578 2.14588 1,
0.778578 2.22646 1,
0.778578 2.24272 1,
0.817061 2.13143 1,
0.817061 2.141 1,
0.797367 2.24272 1,
0.805858 2.22646 1,
0.823902 2.2462 1,
0.843055 2.23129 1,
0.842444 2.25663 1,
0.853352 2.27493 1,
0.856988 2.30198 1,
0.85351 2.32755 1,
0.594998 2.12782 1.2,
0.595361 2.14173 1.2,
0.615369 2.14297 1.2,
0.639217 2.13066 1.2,
0.634203 2.14669 1.2,
0.650554 2.1525 1.2,
0.663111 2.15997 1.2,
0.669795 2.19611 1.2,
0.680455 2.1392 1.2,
0.714982 2.13143 1.2,
0.714982 2.141 1.2,
0.68154 2.19611 1.2,
0.666002 2.31427 1.2,
0.677927 2.31427 1.2,
0.743708 2.14588 1.2,
0.778578 2.14588 1.2,
0.778578 2.22646 1.2,
0.778578 2.24272 1.2,
0.817061 2.13143 1.2,
0.817061 2.141 1.2,
0.797367 2.24272 1.2,
0.805858 2.22646 1.2,
0.823902 2.2462 1.2,
0.843055 2.23129 1.2,
0.842444 2.25663 1.2,
0.853352 2.27493 1.2,
0.856988 2.30198 1.2,
0.85351 2.32755 1.2,
0.597167 2.36197 1,
0.59572 2.37642 1,
0.614353 2.3609 1,
0.631222 2.35772 1,
0.634881 2.37412 1,
0.646919 2.35259 1,
0.660582 2.34571 1,
0.676843 2.3672 1,
0.712632 2.36414 1,
0.712632 2.37371 1,
0.743708 2.35944 1,
0.778578 2.35745 1,
0.796282 2.35745 1,
0.804051 2.37371 1,
0.824422 2.35424 1,
0.843075 2.34462 1,
0.726507 2.66429 1,
0.726507 2.68152 1,
0.778215 2.6903 1,
0.840981 2.6903 1,
0.597167 2.36197 1.2,
0.59572 2.37642 1.2,
0.614353 2.3609 1.2,
0.631222 2.35772 1.2,
0.634881 2.37412 1.2,
0.646919 2.35259 1.2,
0.660582 2.34571 1.2,
0.676843 2.3672 1.2,
0.712632 2.36414 1.2,
0.712632 2.37371 1.2,
0.743708 2.35944 1.2,
0.778578 2.35745 1.2,
0.796282 2.35745 1.2,
0.804051 2.37371 1.2,
0.824422 2.35424 1.2,
0.843075 2.34462 1.2,
0.726507 2.66429 1.2,
0.726507 2.68152 1.2,
0.778215 2.6903 1.2,
0.840981 2.6903 1.2,
0.918429 2.13143 1,
0.918429 2.141 1,
0.870448 2.24579 1,
0.887319 2.2696 1,
0.892943 2.30235 1,
0.949506 2.14588 1,
0.968475 2.14588 1,
1.001 2.13143 1,
1.001 2.141 1,
1.11789 2.13143 1,
1.11644 2.1943 1,
1.13542 2.13143 1,
0.918429 2.13143 1.2,
0.918429 2.141 1.2,
0.870448 2.24579 1.2,
0.887319 2.2696 1.2,
0.892943 2.30235 1.2,
0.949506 2.14588 1.2,
0.968475 2.14588 1.2,
1.001 2.13143 1.2,
1.001 2.141 1.2,
1.11789 2.13143 1.2,
1.11644 2.1943 1.2,
1.13542 2.13143 1.2,
0.87072 2.35587 1,
0.918429 2.36414 1,
0.918429 2.37371 1,
0.949506 2.35944 1,
0.968475 2.34932 1,
0.991782 2.37371 1,
0.91025 2.66429 1,
0.91025 2.68152 1,
1.08392 2.36414 1,
1.08392 2.37371 1,
1.11644 2.35944 1,
1.13542 2.35944 1,
1.09759 2.66429 1,
1.09759 2.68152 1,
1.15353 2.6903 1,
0.87072 2.35587 1.2,
0.918429 2.36414 1.2,
0.918429 2.37371 1.2,
0.949506 2.35944 1.2,
0.968475 2.34932 1.2,
0.991782 2.37371 1.2,
0.91025 2.66429 1.2,
0.91025 2.68152 1.2,
1.08392 2.36414 1.2,
1.08392 2.37371 1.2,
1.11644 2.35944 1.2,
1.13542 2.35944 1.2,
1.09759 2.66429 1.2,
1.09759 2.68152 1.2,
1.15353 2.6903 1.2,
0.840981 2.83534 1,
0.840981 2.86462 1,
0.722277 3.08316 1,
0.722277 3.10039 1,
0.778215 3.0747 1,
0.840981 3.07112 1,
0.840981 2.83534 1.2,
0.840981 2.86462 1.2,
0.722277 3.08316 1.2,
0.722277 3.10039 1.2,
0.778215 3.0747 1.2,
0.840981 3.07112 1.2,
0.890084 2.83534 1,
0.8748 2.86462 1,
0.922564 2.87088 1,
0.957038 2.84404 1,
0.955939 2.88966 1,
1.00635 2.87014 1,
0.975574 2.92258 1,
0.975858 3.0173 1,
0.982119 2.97128 1,
0.872848 3.07112 1,
0.886833 3.10039 1,
0.9235 3.06535 1,
0.957076 3.04803 1,
1.00684 3.06828 1,
1.03671 2.91299 1,
1.04684 2.97194 1,
1.09759 3.08316 1,
1.09759 3.10039 1,
1.15353 3.0747 1,
0.890084 2.83534 1.2,
0.8748 2.86462 1.2,
0.922564 2.87088 1.2,
0.957038 2.84404 1.2,
0.955939 2.88966 1.2,
1.00635 2.87014 1.2,
0.975574 2.92258 1.2,
0.975858 3.0173 1.2,
0.982119 2.97128 1.2,
0.872848 3.07112 1.2,
0.886833 3.10039 1.2,
0.9235 3.06535 1.2,
0.957076 3.04803 1.2,
1.00684 3.06828 1.2,
1.03671 2.91299 1.2,
1.04684 2.97194 1.2,
1.09759 3.08316 1.2,
1.09759 3.10039 1.2,
1.15353 3.0747 1.2,
2.35 0 0,
1.21718 0.694198 1,
1.28005 0.527257 1,
1.28963 0.527257 1,
1.29252 0.590131 1,
1.22151 0.758154 1,
1.22965 0.758154 1,
1.30968 0.765564 1,
1.30968 0.775139 1,
1.40131 0.532857 1,
1.40131 0.542433 1,
1.43238 0.547311 1,
1.45135 0.547311 1,
1.34744 0.760864 1,
1.36876 0.760864 1,
1.3899 0.765564 1,
1.3899 0.775139 1,
1.40131 0.765564 1,
1.40131 0.775139 1,
1.45135 0.750748 1,
1.43238 0.760864 1,
1.21718 0.694198 1.2,
1.28005 0.527257 1.2,
1.28963 0.527257 1.2,
1.29252 0.590131 1.2,
1.22151 0.758154 1.2,
1.22965 0.758154 1.2,
1.30968 0.765564 1.2,
1.30968 0.775139 1.2,
1.40131 0.532857 1.2,
1.40131 0.542433 1.2,
1.43238 0.547311 1.2,
1.45135 0.547311 1.2,
1.34744 0.760864 1.2,
1.36876 0.760864 1.2,
1.3899 0.765564 1.2,
1.3899 0.775139 1.2,
1.40131 0.765564 1.2,
1.40131 0.775139 1.2,
1.45135 0.750748 1.2,
1.43238 0.760864 1.2,
1.48387 0.532857 1,
1.48387 0.542433 1,
1.60077 0.532857 1,
1.59932 0.595732 1,
1.47466 0.775139 1,
1.5668 0.765564 1,
1.5668 0.775139 1,
1.59932 0.760864 1,
1.61829 0.532857 1,
1.66854 0.532857 1,
1.66854 0.542433 1,
1.69961 0.547311 1,
1.71858 0.547311 1,
1.7511 0.532857 1,
1.7511 0.542433 1,
1.61829 0.760864 1,
1.64937 0.765564 1,
1.64937 0.775139 1,
1.66854 0.765564 1,
1.66854 0.775139 1,
1.71858 0.750748 1,
1.69961 0.760864 1,
1.74189 0.775139 1,
1.48387 0.532857 1.2,
1.48387 0.542433 1.2,
1.60077 0.532857 1.2,
1.59932 0.595732 1.2,
1.47466 0.775139 1.2,
1.5668 0.765564 1.2,
1.5668 0.775139 1.2,
1.59932 0.760864 1.2,
1.61829 0.532857 1.2,
1.66854 0.532857 1.2,
1.66854 0.542433 1.2,
1.69961 0.547311 1.2,
1.71858 0.547311 1.2,
1.7511 0.532857 1.2,
1.7511 0.542433 1.2,
1.61829 0.760864 1.2,
1.64937 0.765564 1.2,
1.64937 0.775139 1.2,
1.66854 0.765564 1.2,
1.66854 0.775139 1.2,
1.71858 0.750748 1.2,
1.69961 0.760864 1.2,
1.74189 0.775139 1.2,
1.20896 1.06571 1,
1.24075 1.08017 1,
1.26695 1.06571 1,
1.26695 1.07529 1,
1.27817 1.06571 1,
1.27817 1.07529 1,
1.30925 1.08017 1,
1.17517 1.17701 1,
1.17526 1.20022 1,
1.19595 1.18656 1,
1.18549 1.21637 1,
1.17544 1.28008 1,
1.1889 1.24078 1,
1.18553 1.26443 1,
1.21167 1.20149 1,
1.22156 1.22075 1,
1.21943 1.27263 1,
1.22485 1.24332 1,
1.17553 1.30416 1,
1.20317 1.29264 1,
1.27817 1.29842 1,
1.27817 1.308 1,
1.30925 1.29372 1,
1.32822 1.08017 1,
1.36074 1.06571 1,
1.36074 1.07529 1,
1.41693 1.06571 1,
1.42325 1.06571 1,
1.43029 1.12371 1,
1.32822 1.27403 1,
1.35152 1.308 1,
1.20896 1.06571 1.2,
1.24075 1.08017 1.2,
1.26695 1.06571 1.2,
1.26695 1.07529 1.2,
1.27817 1.06571 1.2,
1.27817 1.07529 1.2,
1.30925 1.08017 1.2,
1.17517 1.17701 1.2,
1.17526 1.20022 1.2,
1.19595 1.18656 1.2,
1.18549 1.21637 1.2,
1.17544 1.28008 1.2,
1.1889 1.24078 1.2,
1.18553 1.26443 1.2,
1.21167 1.20149 1.2,
1.22156 1.22075 1.2,
1.21943 1.27263 1.2,
1.22485 1.24332 1.2,
1.17553 1.30416 1.2,
1.20317 1.29264 1.2,
1.27817 1.29842 1.2,
1.27817 1.308 1.2,
1.30925 1.29372 1.2,
1.32822 1.08017 1.2,
1.36074 1.06571 1.2,
1.36074 1.07529 1.2,
1.41693 1.06571 1.2,
1.42325 1.06571 1.2,
1.43029 1.12371 1.2,
1.32822 1.27403 1.2,
1.35152 1.308 1.2,
1.22306 1.62703 1,
1.26245 1.60298 1,
1.27764 1.61582 1,
1.31484 1.59496 1,
1.3152 1.60887 1,
1.1984 1.66553 1,
1.19018 1.71691 1,
1.23352 1.67075 1,
1.22794 1.71727 1,
1.19808 1.77181 1,
1.16649 1.83128 1,
1.16649 1.84085 1,
1.23327 1.76705 1,
1.22179 1.81149 1,
1.25025 1.63669 1,
1.24926 1.80183 1,
1.26105 1.83555 1,
1.27685 1.82229 1,
1.31556 1.84356 1,
1.33521 1.61011 1,
1.35405 1.61384 1,
1.35906 1.5978 1,
1.3704 1.61964 1,
1.38295 1.62712 1,
1.4003 1.60634 1,
1.43482 1.59857 1,
1.43482 1.60815 1,
1.46355 1.61303 1,
1.38964 1.66325 1,
1.31701 1.82911 1,
1.3342 1.82805 1,
1.35106 1.82486 1,
1.38584 1.78141 1,
1.36676 1.81974 1,
1.35472 1.84126 1,
1.38042 1.81285 1,
1.40138 1.66325 1,
1.39777 1.78141 1,
1.39668 1.83435 1,
1.43247 1.83128 1,
1.43247 1.84085 1,
1.46355 1.82658 1,
1.22306 1.62703 1.2,
1.26245 1.60298 1.2,
1.27764 1.61582 1.2,
1.31484 1.59496 1.2,
1.3152 1.60887 1.2,
1.1984 1.66553 1.2,
1.19018 1.71691 1.2,
1.23352 1.67075 1.2,
1.22794 1.71727 1.2,
1.19808 1.77181 1.2,
1.16649 1.83128 1.2,
1.16649 1.84085 1.2,
1.23327 1.76705 1.2,
1.22179 1.81149 1.2,
1.25025 1.63669 1.2,
1.24926 1.80183 1.2,
1.26105 1.83555 1.2,
1.27685 1.82229 1.2,
1.31556 1.84356 1.2,
1.33521 1.61011 1.2,
1.35405 1.61384 1.2,
1.35906 1.5978 1.2,
1.3704 1.61964 1.2,
1.38295 1.62712 1.2,
1.4003 1.60634 1.2,
1.43482 1.59857 1.2,
1.43482 1.60815 1.2,
1.46355 1.61303 1.2,
1.38964 1.66325 1.2,
1.31701 1.82911 1.2,
1.3342 1.82805 1.2,
1.35106 1.82486 1.2,
1.38584 1.78141 1.2,
1.36676 1.81974 1.2,
1.35472 1.84126 1.2,
1.38042 1.81285 1.2,
1.40138 1.66325 1.2,
1.39777 1.78141 1.2,
1.39668 1.83435 1.2,
1.43247 1.83128 1.2,
1.43247 1.84085 1.2,
1.46355 1.82658 1.2,
1.48739 1.06571 1,
1.48739 1.07529 1,
1.51991 1.08017 1,
1.5546 1.08017 1,
1.58567 1.06571 1,
1.58567 1.07529 1,
1.51991 1.27403 1,
1.51629 1.308 1,
1.5546 1.29372 1,
1.58567 1.29842 1,
1.58567 1.308 1,
1.48739 1.06571 1.2,
1.48739 1.07529 1.2,
1.51991 1.08017 1.2,
1.5546 1.08017 1.2,
1.58567 1.06571 1.2,
1.58567 1.07529 1.2,
1.51991 1.27403 1.2,
1.51629 1.308 1.2,
1.5546 1.29372 1.2,
1.58567 1.29842 1.2,
1.58567 1.308 1.2,
1.49842 1.61303 1,
1.5369 1.59857 1,
1.5369 1.60815 1,
1.49842 1.6936 1,
1.49842 1.70987 1,
1.51721 1.70987 1,
1.5257 1.6936 1,
1.49842 1.82459 1,
1.51612 1.82459 1,
1.52389 1.84085 1,
1.54374 1.71334 1,
1.5629 1.69844 1,
1.56229 1.72378 1,
1.57319 1.74207 1,
1.59029 1.71294 1,
1.60716 1.73674 1,
1.57683 1.76913 1,
1.57335 1.79469 1,
1.54426 1.82138 1,
1.56292 1.81176 1,
1.61278 1.76949 1,
1.59056 1.82301 1,
1.63827 1.59857 1,
1.63827 1.60815 1,
1.66935 1.61303 1,
1.68832 1.61303 1,
1.72084 1.59857 1,
1.72084 1.60815 1,
1.63827 1.83128 1,
1.63827 1.84085 1,
1.66935 1.82658 1,
1.68832 1.81646 1,
1.71162 1.84085 1,
1.49842 1.61303 1.2,
1.5369 1.59857 1.2,
1.5369 1.60815 1.2,
1.49842 1.6936 1.2,
1.49842 1.70987 1.2,
1.51721 1.70987 1.2,
1.5257 1.6936 1.2,
1.49842 1.82459 1.2,
1.51612 1.82459 1.2,
1.52389 1.84085 1.2,
1.54374 1.71334 1.2,
1.5629 1.69844 1.2,
1.56229 1.72378 1.2,
1.57319 1.74207 1.2,
1.59029 1.71294 1.2,
1.60716 1.73674 1.2,
1.57683 1.76913 1.2,
1.57335 1.79469 1.2,
1.54426 1.82138 1.2,
1.56292 1.81176 1.2,
1.61278 1.76949 1.2,
1.59056 1.82301 1.2,
1.63827 1.59857 1.2,
1.63827 1.60815 1.2,
1.66935 1.61303 1.2,
1.68832 1.61303 1.2,
1.72084 1.59857 1.2,
1.72084 1.60815 1.2,
1.63827 1.83128 1.2,
1.63827 1.84085 1.2,
1.66935 1.82658 1.2,
1.68832 1.81646 1.2,
1.71162 1.84085 1.2,
1.868 0.532857 1,
1.88552 0.532857 1,
1.86655 0.595732 1,
1.83403 0.765564 1,
1.83403 0.775139 1,
1.86655 0.760864 1,
1.88552 0.760864 1,
1.9166 0.765564 1,
1.9166 0.775139 1,
1.93577 0.532857 1,
1.93577 0.542433 1,
1.96684 0.547311 1,
1.98581 0.547311 1,
2.01833 0.532857 1,
2.01833 0.542433 1,
1.93577 0.765564 1,
1.93577 0.775139 1,
1.98581 0.750748 1,
1.96684 0.760864 1,
2.00912 0.775139 1,
1.868 0.532857 1.2,
1.88552 0.532857 1.2,
1.86655 0.595732 1.2,
1.83403 0.765564 1.2,
1.83403 0.775139 1.2,
1.86655 0.760864 1.2,
1.88552 0.760864 1.2,
1.9166 0.765564 1.2,
1.9166 0.775139 1.2,
1.93577 0.532857 1.2,
1.93577 0.542433 1.2,
1.96684 0.547311 1.2,
1.98581 0.547311 1.2,
2.01833 0.532857 1.2,
2.01833 0.542433 1.2,
1.93577 0.765564 1.2,
1.93577 0.775139 1.2,
1.98581 0.750748 1.2,
1.96684 0.760864 1.2,
2.00912 0.775139 1.2,
2.35 0 1,
2.13523 0.532857 1,
2.13378 0.595732 1,
2.15275 0.532857 1,
2.10126 0.765564 1,
2.10126 0.775139 1,
2.13378 0.760864 1,
2.15275 0.760864 1,
2.18383 0.765564 1,
2.18383 0.775139 1,
2.13523 0.532857 1.2,
2.13378 0.595732 1.2,
2.15275 0.532857 1.2,
2.10126 0.765564 1.2,
2.10126 0.775139 1.2,
2.13378 0.760864 1.2,
2.15275 0.760864 1.2,
2.18383 0.765564 1.2,
2.18383 0.775139 1.2,
1.83773 1.59857 1,
1.85526 1.59857 1,
1.83629 1.66145 1,
1.80377 1.83128 1,
1.80377 1.84085 1,
1.83629 1.82658 1,
1.85526 1.82658 1,
1.88633 1.83128 1,
1.88633 1.84085 1,
1.83773 1.59857 1.2,
1.85526 1.59857 1.2,
1.83629 1.66145 1.2,
1.80377 1.83128 1.2,
1.80377 1.84085 1.2,
1.83629 1.82658 1.2,
1.85526 1.82658 1.2,
1.88633 1.83128 1.2,
1.88633 1.84085 1.2,
2.35 3.73 0,
1.1984 2.19839 1,
1.22306 2.15988 1,
1.23352 2.20361 1,
1.19018 2.24977 1,
1.19808 2.30467 1,
1.22794 2.25013 1,
1.23327 2.2999 1,
1.26245 2.13583 1,
1.27764 2.14868 1,
1.25025 2.16955 1,
1.31484 2.12782 1,
1.3152 2.14173 1,
1.33521 2.14297 1,
1.35405 2.14669 1,
1.35906 2.13066 1,
1.3704 2.1525 1,
1.38295 2.15997 1,
1.38964 2.19611 1,
1.38584 2.31427 1,
1.4003 2.1392 1,
1.40138 2.19611 1,
1.43482 2.13143 1,
1.43482 2.141 1,
1.46355 2.14588 1,
1.39777 2.31427 1,
1.1984 2.19839 1.2,
1.22306 2.15988 1.2,
1.23352 2.20361 1.2,
1.19018 2.24977 1.2,
1.19808 2.30467 1.2,
1.22794 2.25013 1.2,
1.23327 2.2999 1.2,
1.26245 2.13583 1.2,
1.27764 2.14868 1.2,
1.25025 2.16955 1.2,
1.31484 2.12782 1.2,
1.3152 2.14173 1.2,
1.33521 2.14297 1.2,
1.35405 2.14669 1.2,
1.35906 2.13066 1.2,
1.3704 2.1525 1.2,
1.38295 2.15997 1.2,
1.38964 2.19611 1.2,
1.38584 2.31427 1.2,
1.4003 2.1392 1.2,
1.40138 2.19611 1.2,
1.43482 2.13143 1.2,
1.43482 2.141 1.2,
1.46355 2.14588 1.2,
1.39777 2.31427 1.2,
1.16649 2.36414 1,
1.16649 2.37371 1,
1.22179 2.34435 1,
1.24926 2.33468 1,
1.27685 2.35515 1,
1.26105 2.3684 1,
1.31556 2.37642 1,
1.21597 2.6903 1,
1.2719 2.66429 1,
1.2719 2.68152 1,
1.31701 2.36197 1,
1.3342 2.3609 1,
1.35106 2.35772 1,
1.36676 2.35259 1,
1.35472 2.37412 1,
1.38042 2.34571 1,
1.39668 2.3672 1,
1.43247 2.36414 1,
1.43247 2.37371 1,
1.46355 2.35944 1,
1.33745 2.78482 1,
1.38184 2.7155 1,
1.45273 2.67221 1,
1.40066 2.79421 1,
1.43078 2.7329 1,
1.16649 2.36414 1.2,
1.16649 2.37371 1.2,
1.22179 2.34435 1.2,
1.24926 2.33468 1.2,
1.27685 2.35515 1.2,
1.26105 2.3684 1.2,
1.31556 2.37642 1.2,
1.21597 2.6903 1.2,
1.2719 2.66429 1.2,
1.2719 2.68152 1.2,
1.31701 2.36197 1.2,
1.3342 2.3609 1.2,
1.35106 2.35772 1.2,
1.36676 2.35259 1.2,
1.35472 2.37412 1.2,
1.38042 2.34571 1.2,
1.39668 2.3672 1.2,
1.43247 2.36414 1.2,
1.43247 2.37371 1.2,
1.46355 2.35944 1.2,
1.33745 2.78482 1.2,
1.38184 2.7155 1.2,
1.45273 2.67221 1.2,
1.40066 2.79421 1.2,
1.43078 2.7329 1.2,
1.49842 2.14588 1,
1.5369 2.13143 1,
1.5369 2.141 1,
1.49842 2.22646 1,
1.49842 2.24272 1,
1.51721 2.24272 1,
1.5257 2.22646 1,
1.54374 2.2462 1,
1.5629 2.23129 1,
1.56229 2.25663 1,
1.57319 2.27493 1,
1.57683 2.30198 1,
1.57335 2.32755 1,
1.59029 2.24579 1,
1.60716 2.2696 1,
1.61278 2.30235 1,
1.63827 2.13143 1,
1.63827 2.141 1,
1.66935 2.14588 1,
1.68832 2.14588 1,
1.72084 2.13143 1,
1.72084 2.141 1,
1.49842 2.14588 1.2,
1.5369 2.13143 1.2,
1.5369 2.141 1.2,
1.49842 2.22646 1.2,
1.49842 2.24272 1.2,
1.51721 2.24272 1.2,
1.5257 2.22646 1.2,
1.54374 2.2462 1.2,
1.5629 2.23129 1.2,
1.56229 2.25663 1.2,
1.57319 2.27493 1.2,
1.57683 2.30198 1.2,
1.57335 2.32755 1.2,
1.59029 2.24579 1.2,
1.60716 2.2696 1.2,
1.61278 2.30235 1.2,
1.63827 2.13143 1.2,
1.63827 2.141 1.2,
1.66935 2.14588 1.2,
1.68832 2.14588 1.2,
1.72084 2.13143 1.2,
1.72084 2.141 1.2,
1.49842 2.35745 1,
1.51612 2.35745 1,
1.52389 2.37371 1,
1.54426 2.35424 1,
1.56292 2.34462 1,
1.59056 2.35587 1,
1.48009 2.69534 1,
1.54704 2.65778 1,
1.5477 2.68282 1,
1.58371 2.68506 1,
1.63827 2.36414 1,
1.63827 2.37371 1,
1.66935 2.35944 1,
1.68832 2.34932 1,
1.71162 2.37371 1,
1.62664 2.6629 1,
1.61761 2.69177 1,
1.64704 2.70221 1,
1.66965 2.71567 1,
1.68168 2.78071 1,
1.70087 2.67827 1,
1.70282 2.78071 1,
1.49842 2.35745 1.2,
1.51612 2.35745 1.2,
1.52389 2.37371 1.2,
1.54426 2.35424 1.2,
1.56292 2.34462 1.2,
1.59056 2.35587 1.2,
1.48009 2.69534 1.2,
1.54704 2.65778 1.2,
1.5477 2.68282 1.2,
1.58371 2.68506 1.2,
1.63827 2.36414 1.2,
1.63827 2.37371 1.2,
1.66935 2.35944 1.2,
1.68832 2.34932 1.2,
1.71162 2.37371 1.2,
1.62664 2.6629 1.2,
1.61761 2.69177 1.2,
1.64704 2.70221 1.2,
1.66965 2.71567 1.2,
1.68168 2.78071 1.2,
1.70087 2.67827 1.2,
1.70282 2.78071 1.2,
1.21597 3.0747 1,
1.2719 3.08316 1,
1.2719 3.10039 1,
1.32265 2.8773 1,
1.39062 2.87795 1,
1.33688 2.97612 1,
1.40021 2.96754 1,
1.42899 3.03015 1,
1.37956 3.04754 1,
1.45021 3.09084 1,
1.21597 3.0747 1.2,
1.2719 3.08316 1.2,
1.2719 3.10039 1.2,
1.32265 2.8773 1.2,
1.39062 2.87795 1.2,
1.33688 2.97612 1.2,
1.40021 2.96754 1.2,
1.42899 3.03015 1.2,
1.37956 3.04754 1.2,
1.45021 3.09084 1.2,
1.47867 3.06698 1,
1.55095 3.07925 1,
1.54834 3.10527 1,
1.58188 3.07734 1,
1.61225 3.07161 1,
1.67485 2.9934 1,
1.69632 2.9934 1,
1.6405 3.06238 1,
1.61883 3.10112 1,
1.6651 3.04999 1,
1.69436 3.08868 1,
1.47867 3.06698 1.2,
1.55095 3.07925 1.2,
1.54834 3.10527 1.2,
1.58188 3.07734 1.2,
1.61225 3.07161 1.2,
1.67485 2.9934 1.2,
1.69632 2.9934 1.2,
1.6405 3.06238 1.2,
1.61883 3.10112 1.2,
1.6651 3.04999 1.2,
1.69436 3.08868 1.2,
2.35 2.66429 0.9,
2.3689 2.66429 0.9,
2.35 2.71437 0.9,
2.3689 2.71437 0.9,
1.83773 2.13143 1,
1.83629 2.1943 1,
1.85526 2.13143 1,
1.83773 2.13143 1.2,
1.83629 2.1943 1.2,
1.85526 2.13143 1.2,
1.80377 2.36414 1,
1.80377 2.37371 1,
1.83629 2.35944 1,
1.85526 2.35944 1,
1.88633 2.36414 1,
1.88633 2.37371 1,
1.77505 2.67177 1,
1.83196 2.66128 1,
1.77147 2.76348 1,
1.79293 2.76348 1,
1.80757 2.70233 1,
1.82289 2.69567 1,
1.89212 2.65778 1,
1.8435 2.68998 1,
1.86598 2.68607 1,
1.88692 2.68477 1,
1.95757 2.66608 1,
1.93131 2.69063 1,
1.96237 2.70819 1,
1.98066 2.73941 1,
1.98676 2.78624 1,
2.00627 2.69095 1,
2.03651 2.73055 1,
2.04659 2.78299 1,
1.80377 2.36414 1.2,
1.80377 2.37371 1.2,
1.83629 2.35944 1.2,
1.85526 2.35944 1.2,
1.88633 2.36414 1.2,
1.88633 2.37371 1.2,
1.77505 2.67177 1.2,
1.83196 2.66128 1.2,
1.77147 2.76348 1.2,
1.79293 2.76348 1.2,
1.80757 2.70233 1.2,
1.82289 2.69567 1.2,
1.89212 2.65778 1.2,
1.8435 2.68998 1.2,
1.86598 2.68607 1.2,
1.88692 2.68477 1.2,
1.95757 2.66608 1.2,
1.93131 2.69063 1.2,
1.96237 2.70819 1.2,
1.98066 2.73941 1.2,
1.98676 2.78624 1.2,
2.00627 2.69095 1.2,
2.03651 2.73055 1.2,
2.04659 2.78299 1.2,
2.1019 2.66429 1,
2.1019 2.71209 1,
2.14451 2.71437 1,
2.16239 2.76705 1,
2.17613 2.74274 1,
2.20597 2.76868 1,
2.35 2.66429 1,
2.35 2.71437 1,
2.1019 2.66429 1.2,
2.1019 2.71209 1.2,
2.14451 2.71437 1.2,
2.16239 2.76705 1.2,
2.17613 2.74274 1.2,
2.20597 2.76868 1.2,
2.3689 2.66429 1.2,
2.3689 2.71437 1.2,
2.35 2.93431 0.9,
2.35691 2.95604 0.9,
2.36045 2.99144 0.9,
2.35 3.04156 0.9,
2.35146 3.03962 0.9,
1.7848 3.00738 1,
1.80627 3.00738 1,
1.84822 2.8786 1,
1.84822 2.90527 1,
1.89472 2.876 1,
1.89472 2.90819 1,
1.7848 3.09129 1,
1.81765 3.06071 1,
1.8331 3.06775 1,
1.8148 3.09832 1,
1.84041 3.1025 1,
1.85082 3.07324 1,
1.86927 3.07677 1,
1.86374 3.10458 1,
1.88692 3.07795 1,
1.88692 3.10527 1,
1.9357 2.86872 1,
1.93147 2.89258 1,
1.96431 2.85144 1,
1.98115 2.824 1,
1.97184 2.90417 1,
1.98285 2.88067 1,
1.92667 2.91486 1,
1.94903 2.93096 1,
1.9622 2.95714 1,
1.96659 2.99405 1,
2.01863 2.8586 1,
2.0396 2.82612 1,
2.00187 2.92592 1,
2.02053 2.95734 1,
2.02675 2.99795 1,
1.92289 3.07295 1,
1.94757 3.05795 1,
1.96184 3.03198 1,
1.9918 3.07844 1,
1.7848 3.00738 1.2,
1.80627 3.00738 1.2,
1.84822 2.8786 1.2,
1.84822 2.90527 1.2,
1.89472 2.876 1.2,
1.89472 2.90819 1.2,
1.7848 3.09129 1.2,
1.81765 3.06071 1.2,
1.8331 3.06775 1.2,
1.8148 3.09832 1.2,
1.84041 3.1025 1.2,
1.85082 3.07324 1.2,
1.86927 3.07677 1.2,
1.86374 3.10458 1.2,
1.88692 3.07795 1.2,
1.88692 3.10527 1.2,
1.9357 2.86872 1.2,
1.93147 2.89258 1.2,
1.96431 2.85144 1.2,
1.98115 2.824 1.2,
1.97184 2.90417 1.2,
1.98285 2.88067 1.2,
1.92667 2.91486 1.2,
1.94903 2.93096 1.2,
1.9622 2.95714 1.2,
1.96659 2.99405 1.2,
2.01863 2.8586 1.2,
2.0396 2.82612 1.2,
2.00187 2.92592 1.2,
2.02053 2.95734 1.2,
2.02675 2.99795 1.2,
1.92289 3.07295 1.2,
1.94757 3.05795 1.2,
1.96184 3.03198 1.2,
1.9918 3.07844 1.2,
2.11654 3.00738 1,
2.138 3.00738 1,
2.21288 2.81323 1,
2.11654 3.09129 1,
2.14939 3.06071 1,
2.16443 3.06775 1,
2.17126 3.10177 1,
2.18158 3.07324 1,
2.19955 3.07677 1,
2.21703 3.07795 1,
2.21703 3.10527 1,
2.24792 2.84965 1,
2.26402 2.81986 1,
2.27138 2.88169 1,
2.28711 2.91469 1,
2.30288 2.85827 1,
2.32837 2.89039 1,
2.29601 2.95063 1,
2.29898 2.99144 1,
2.29419 3.02868 1,
2.3463 2.92266 1,
2.35 2.93431 1,
2.25451 3.07242 1,
2.2798 3.05584 1,
2.27967 3.09783 1,
2.32451 3.07551 1,
2.35 3.04156 1,
2.11654 3.00738 1.2,
2.138 3.00738 1.2,
2.21288 2.81323 1.2,
2.11654 3.09129 1.2,
2.14939 3.06071 1.2,
2.16443 3.06775 1.2,
2.17126 3.10177 1.2,
2.18158 3.07324 1.2,
2.19955 3.07677 1.2,
2.21703 3.07795 1.2,
2.21703 3.10527 1.2,
2.24792 2.84965 1.2,
2.26402 2.81986 1.2,
2.27138 2.88169 1.2,
2.28711 2.91469 1.2,
2.30288 2.85827 1.2,
2.32837 2.89039 1.2,
2.29601 2.95063 1.2,
2.29898 2.99144 1.2,
2.29419 3.02868 1.2,
2.3463 2.92266 1.2,
2.35691 2.95604 1.2,
2.36045 2.99144 1.2,
2.25451 3.07242 1.2,
2.2798 3.05584 1.2,
2.27967 3.09783 1.2,
2.32451 3.07551 1.2,
2.35146 3.03962 1.2,
2.35 3.73 1
] }

coordIndex [
0,382,384,-1
0,1,382,-1
1,3,4,-1
1,2,3,-1
1,19,2,-1
1,4,5,-1
14,16,3,-1
6,4,3,-1
6,3,16,-1
1,27,19,-1
1,93,27,-1
1,106,93,-1
1,107,106,-1
19,30,20,-1
15,20,35,-1
15,35,18,-1
7,17,21,-1
21,24,22,-1
17,25,21,-1
24,21,23,-1
25,23,21,-1
18,35,26,-1
28,19,27,-1
29,19,28,-1
29,30,19,-1
35,20,30,-1
26,35,31,-1
31,34,32,-1
34,31,33,-1
35,33,31,-1
96,37,36,-1
37,98,38,-1
1,5,385,-1
1,385,382,-1
5,68,385,-1
22,64,5,-1
22,24,65,-1
68,5,67,-1
67,5,64,-1
32,65,24,-1
32,34,65,-1
38,65,34,-1
64,22,65,-1
70,207,71,-1
71,207,73,-1
0,1061,1,-1
1,132,107,-1
1,133,132,-1
1,141,133,-1
1,142,141,-1
1,702,142,-1
1,703,702,-1
92,94,105,-1
92,105,95,-1
93,106,94,-1
105,94,106,-1
96,99,37,-1
98,37,97,-1
99,97,37,-1
95,101,100,-1
38,98,174,-1
95,103,101,-1
95,105,103,-1
101,104,102,-1
104,101,103,-1
102,174,98,-1
102,104,174,-1
108,110,109,-1
111,174,104,-1
108,136,110,-1
110,136,111,-1
111,136,178,-1
137,178,136,-1
134,107,132,-1
133,145,144,-1
133,149,146,-1
133,146,145,-1
135,138,137,-1
139,137,138,-1
137,139,278,-1
135,140,138,-1
147,278,139,-1
149,133,141,-1
145,148,147,-1
148,145,146,-1
147,148,289,-1
152,289,148,-1
143,151,150,-1
151,705,152,-1
38,175,65,-1
38,174,175,-1
174,111,178,-1
176,284,175,-1
177,179,279,-1
178,279,179,-1
177,279,180,-1
284,190,175,-1
65,175,190,-1
284,193,190,-1
199,197,198,-1
197,199,214,-1
66,207,72,-1
72,207,70,-1
191,207,66,-1
192,211,191,-1
73,207,75,-1
75,207,77,-1
77,207,200,-1
200,207,202,-1
202,207,203,-1
194,211,192,-1
195,211,194,-1
196,211,195,-1
191,211,207,-1
196,205,211,-1
206,212,205,-1
197,220,206,-1
209,203,207,-1
203,209,208,-1
205,212,211,-1
220,212,206,-1
211,212,210,-1
213,210,212,-1
193,284,197,-1
197,284,198,-1
198,284,216,-1
286,216,284,-1
216,337,217,-1
197,214,220,-1
228,221,219,-1
215,217,218,-1
218,217,223,-1
223,217,225,-1
222,224,219,-1
224,226,219,-1
226,227,219,-1
217,337,225,-1
227,231,219,-1
230,228,219,-1
232,233,219,-1
233,230,219,-1
231,232,219,-1
178,137,278,-1
279,178,278,-1
180,279,281,-1
180,281,280,-1
147,287,278,-1
181,283,285,-1
282,295,286,-1
296,286,295,-1
147,289,287,-1
287,290,288,-1
290,287,289,-1
288,297,282,-1
297,288,290,-1
291,297,290,-1
289,152,293,-1
152,787,293,-1
292,294,298,-1
298,294,301,-1
293,787,294,-1
294,787,301,-1
282,297,295,-1
306,299,300,-1
304,303,299,-1
306,304,299,-1
300,302,800,-1
300,798,306,-1
300,800,798,-1
286,336,216,-1
336,286,340,-1
337,216,336,-1
286,351,340,-1
225,337,342,-1
342,338,343,-1
338,342,337,-1
343,338,344,-1
338,348,344,-1
344,346,345,-1
347,345,346,-1
346,344,348,-1
341,349,339,-1
286,296,854,-1
351,286,352,-1
340,351,341,-1
286,854,352,-1
305,849,296,-1
296,849,854,-1
349,341,351,-1
354,350,353,-1
355,353,350,-1
352,858,357,-1
355,356,353,-1
0,384,444,-1
0,444,446,-1
0,457,380,-1
0,380,1098,-1
380,457,1098,-1
0,446,457,-1
385,404,388,-1
388,391,390,-1
450,390,391,-1
69,385,68,-1
74,385,69,-1
74,403,385,-1
76,406,74,-1
201,408,76,-1
74,406,403,-1
76,408,406,-1
407,512,411,-1
411,512,412,-1
404,385,403,-1
405,391,388,-1
391,405,392,-1
405,388,404,-1
426,392,405,-1
426,423,392,-1
424,392,423,-1
392,424,458,-1
428,423,426,-1
557,431,428,-1
423,428,431,-1
431,560,432,-1
386,447,384,-1
447,444,384,-1
386,387,449,-1
386,449,447,-1
390,450,389,-1
393,459,451,-1
457,446,448,-1
457,448,451,-1
457,451,459,-1
457,459,461,-1
457,461,460,-1
457,460,486,-1
425,458,424,-1
461,459,463,-1
432,462,430,-1
459,467,465,-1
459,464,463,-1
459,465,464,-1
465,467,468,-1
468,467,469,-1
469,467,470,-1
457,486,487,-1
457,487,488,-1
457,488,489,-1
457,489,490,-1
457,490,491,-1
204,408,201,-1
210,408,204,-1
213,500,408,-1
210,213,408,-1
213,503,500,-1
213,508,503,-1
213,509,508,-1
409,512,410,-1
501,512,409,-1
502,513,501,-1
410,512,407,-1
412,512,427,-1
504,513,502,-1
505,513,504,-1
506,513,505,-1
510,508,509,-1
508,510,514,-1
501,513,512,-1
506,507,513,-1
511,564,507,-1
508,566,511,-1
507,564,513,-1
566,564,511,-1
229,509,213,-1
229,518,509,-1
345,518,229,-1
508,514,566,-1
568,567,517,-1
515,519,516,-1
516,519,521,-1
521,519,523,-1
518,597,519,-1
519,597,523,-1
520,522,517,-1
522,524,517,-1
524,525,517,-1
570,568,517,-1
571,570,517,-1
527,571,517,-1
525,526,517,-1
526,527,517,-1
427,512,429,-1
429,512,556,-1
556,512,558,-1
558,512,559,-1
560,431,557,-1
563,432,560,-1
432,563,565,-1
559,562,561,-1
562,559,512,-1
513,564,563,-1
565,563,564,-1
569,432,565,-1
620,462,432,-1
620,572,462,-1
620,432,569,-1
620,622,572,-1
575,627,650,-1
345,347,518,-1
350,518,347,-1
354,596,518,-1
350,354,518,-1
354,603,596,-1
597,518,596,-1
523,597,598,-1
601,598,597,-1
601,599,598,-1
601,600,599,-1
600,601,623,-1
624,602,604,-1
860,603,354,-1
860,604,603,-1
862,604,860,-1
624,862,605,-1
624,604,862,-1
606,628,625,-1
606,630,628,-1
607,1149,631,-1
600,621,620,-1
622,620,621,-1
600,623,621,-1
625,572,622,-1
625,629,572,-1
572,1151,626,-1
1150,572,629,-1
650,627,662,-1
662,627,665,-1
626,633,627,-1
627,633,665,-1
629,625,628,-1
572,1150,1151,-1
626,1151,1154,-1
626,1154,1155,-1
626,1166,632,-1
633,626,632,-1
462,572,573,-1
462,573,466,-1
466,573,652,-1
466,653,467,-1
467,653,470,-1
470,653,471,-1
653,466,652,-1
574,654,573,-1
654,652,573,-1
671,655,651,-1
672,471,653,-1
471,672,679,-1
663,664,651,-1
664,666,651,-1
666,668,651,-1
673,671,651,-1
668,670,651,-1
670,669,651,-1
674,673,651,-1
669,674,651,-1
675,679,672,-1
471,679,1289,-1
665,633,667,-1
680,667,633,-1
667,680,676,-1
676,680,677,-1
634,680,633,-1
677,678,675,-1
679,675,678,-1
678,677,680,-1
471,1289,1309,-1
457,491,1533,-1
1533,492,471,-1
1533,491,492,-1
0,700,1061,-1
0,1098,700,-1
700,1098,1061,-1
1,1061,703,-1
142,702,701,-1
143,705,151,-1
152,705,787,-1
706,787,705,-1
704,707,706,-1
708,706,707,-1
706,708,791,-1
710,703,709,-1
703,715,714,-1
703,710,720,-1
703,717,715,-1
703,720,717,-1
711,720,710,-1
742,719,712,-1
704,713,707,-1
716,791,708,-1
716,718,811,-1
715,718,716,-1
718,715,717,-1
745,814,718,-1
1061,709,703,-1
1061,741,709,-1
741,743,742,-1
719,742,743,-1
747,745,746,-1
933,745,747,-1
744,746,745,-1
744,748,746,-1
758,937,747,-1
751,749,750,-1
749,757,756,-1
749,759,757,-1
749,751,762,-1
752,762,751,-1
749,762,759,-1
755,761,753,-1
757,760,758,-1
760,757,759,-1
758,760,937,-1
763,937,760,-1
938,763,1025,-1
787,706,789,-1
788,796,794,-1
706,791,789,-1
789,792,790,-1
792,789,791,-1
790,809,788,-1
809,790,792,-1
793,809,792,-1
302,795,797,-1
302,797,799,-1
302,799,800,-1
796,809,801,-1
804,807,803,-1
803,850,806,-1
788,809,796,-1
801,809,802,-1
802,807,804,-1
807,802,809,-1
803,807,808,-1
803,808,850,-1
716,811,791,-1
812,816,810,-1
811,813,812,-1
816,812,813,-1
718,813,811,-1
813,718,814,-1
814,745,933,-1
934,814,933,-1
815,940,817,-1
805,849,305,-1
806,850,805,-1
805,850,849,-1
817,852,808,-1
850,808,852,-1
851,853,863,-1
352,854,855,-1
352,855,858,-1
859,858,862,-1
859,357,858,-1
862,860,859,-1
856,853,857,-1
856,863,853,-1
857,868,861,-1
868,857,853,-1
861,868,869,-1
861,877,864,-1
864,877,866,-1
852,817,940,-1
943,870,852,-1
943,873,870,-1
873,875,885,-1
873,874,875,-1
861,869,871,-1
861,871,872,-1
861,872,877,-1
885,866,877,-1
866,885,878,-1
878,885,879,-1
879,885,880,-1
884,880,885,-1
884,885,881,-1
884,882,880,-1
881,885,886,-1
885,875,888,-1
876,890,875,-1
885,888,886,-1
886,888,887,-1
890,888,875,-1
814,934,939,-1
935,939,934,-1
933,747,937,-1
938,941,936,-1
763,938,937,-1
1029,941,938,-1
1029,942,941,-1
942,1029,943,-1
852,940,943,-1
873,943,874,-1
874,943,956,-1
943,977,956,-1
956,978,957,-1
978,956,977,-1
955,957,958,-1
958,957,961,-1
961,957,966,-1
960,965,959,-1
965,967,959,-1
963,962,959,-1
973,963,959,-1
974,973,959,-1
957,978,966,-1
967,968,959,-1
968,971,959,-1
966,978,969,-1
971,972,959,-1
972,974,959,-1
975,983,976,-1
977,943,981,-1
981,1080,982,-1
979,969,978,-1
969,979,970,-1
970,979,975,-1
979,985,975,-1
984,976,983,-1
983,975,985,-1
982,986,980,-1
986,982,1080,-1
1061,743,741,-1
1061,749,743,-1
1061,750,749,-1
1061,754,750,-1
1061,1021,754,-1
1061,1022,1021,-1
1061,1030,1022,-1
754,1021,755,-1
761,755,1021,-1
1027,1022,1031,-1
1025,763,1024,-1
1023,1024,763,-1
1029,938,1025,-1
1023,1026,1024,-1
1031,1022,1030,-1
1027,1031,1032,-1
1039,1027,1032,-1
1034,1062,1035,-1
1033,1035,1038,-1
1038,1035,1062,-1
1027,1039,1028,-1
1028,1037,1029,-1
1037,1028,1036,-1
1039,1036,1028,-1
1061,1034,1030,-1
1061,1062,1034,-1
1061,1064,1062,-1
1061,1069,1064,-1
1064,1069,1068,-1
1063,1065,1040,-1
1066,1040,1065,-1
1063,1067,1065,-1
943,1029,1037,-1
1040,943,1037,-1
943,1040,1066,-1
943,1070,981,-1
981,1070,1080,-1
1070,943,1066,-1
1080,1070,1081,-1
1082,1083,987,-1
1084,987,1083,-1
1082,1085,1083,-1
1081,1087,1086,-1
1061,1393,1069,-1
1393,1081,1070,-1
1393,1070,1069,-1
1061,1329,1393,-1
1098,1331,1329,-1
1098,1403,1331,-1
1098,1406,1403,-1
605,862,865,-1
607,865,867,-1
605,865,607,-1
607,867,883,-1
607,883,887,-1
607,887,1100,-1
888,1106,1100,-1
607,1099,1102,-1
607,1100,1099,-1
607,1102,1103,-1
607,1103,1149,-1
1107,1117,1108,-1
1108,1117,1101,-1
1101,1117,1104,-1
1104,1117,1105,-1
1105,1117,1152,-1
887,888,1100,-1
889,1106,888,-1
889,1109,1106,-1
889,1113,1109,-1
964,1120,889,-1
889,1118,1113,-1
889,1120,1118,-1
1110,1117,1107,-1
1111,1123,1110,-1
1112,1123,1111,-1
1114,1123,1112,-1
1115,1123,1114,-1
1110,1123,1117,-1
1115,1116,1123,-1
1121,1118,1120,-1
1118,1121,1122,-1
1119,1166,1116,-1
1118,1168,1119,-1
1116,1166,1123,-1
1118,1122,1168,-1
1168,1166,1119,-1
1149,1151,1150,-1
1149,1103,1151,-1
626,1155,1163,-1
626,1163,1165,-1
1152,1117,1153,-1
626,1165,1166,-1
1167,1157,632,-1
1158,1290,1156,-1
1157,1170,1158,-1
1158,1169,1290,-1
1153,1117,1159,-1
1159,1117,1160,-1
1160,1117,1161,-1
1164,1161,1117,-1
1161,1164,1162,-1
632,1166,1167,-1
1123,1166,1165,-1
1167,1171,1157,-1
1169,1158,1170,-1
1170,1157,1171,-1
964,1200,1120,-1
976,1200,964,-1
976,984,1200,-1
984,1215,1200,-1
1199,1201,1202,-1
1202,1201,1205,-1
1205,1201,1207,-1
1244,1243,1203,-1
1204,1206,1203,-1
1206,1208,1203,-1
1246,1244,1203,-1
1247,1246,1203,-1
1200,1216,1201,-1
1201,1216,1207,-1
1216,1200,1215,-1
1207,1216,1212,-1
1208,1209,1203,-1
1209,1210,1203,-1
1210,1211,1203,-1
1211,1247,1203,-1
987,1215,984,-1
987,1219,1215,-1
987,1084,1219,-1
1217,1212,1216,-1
1212,1217,1213,-1
1213,1217,1214,-1
1217,1255,1214,-1
1220,1256,1218,-1
1219,1333,1220,-1
1256,1220,1333,-1
1214,1253,1248,-1
1245,1345,1167,-1
1171,1167,1250,-1
1250,1167,1258,-1
1258,1167,1263,-1
1251,1312,1249,-1
1252,1313,1251,-1
1254,1248,1253,-1
1253,1214,1255,-1
1248,1345,1245,-1
1248,1254,1345,-1
1257,1345,1254,-1
1345,1257,1340,-1
1345,1263,1167,-1
1259,1313,1252,-1
1260,1313,1259,-1
1263,1347,1264,-1
1263,1345,1347,-1
1348,1264,1347,-1
457,1533,1098,-1
1156,1288,1287,-1
1156,1290,1292,-1
1156,1292,1288,-1
1288,1295,1289,-1
471,1309,1315,-1
1295,1288,1292,-1
1296,1289,1295,-1
471,1315,1414,-1
471,1414,1417,-1
1309,1289,1296,-1
471,1417,1418,-1
471,1418,1421,-1
471,1421,1423,-1
1173,1312,1172,-1
1172,1312,1291,-1
1249,1312,1173,-1
1291,1312,1293,-1
1293,1312,1294,-1
1294,1312,1307,-1
471,1423,1484,-1
1307,1312,1308,-1
1308,1312,1310,-1
1251,1313,1312,-1
1261,1313,1260,-1
1261,1262,1313,-1
1264,1313,1262,-1
1264,1410,1313,-1
1310,1312,1311,-1
1316,1311,1312,-1
1311,1316,1314,-1
471,1484,1488,-1
1313,1414,1317,-1
1317,1414,1315,-1
1414,1313,1408,-1
1533,471,1488,-1
1061,1098,1329,-1
1084,1333,1219,-1
1084,1335,1333,-1
1334,1339,1257,-1
1334,1341,1339,-1
1335,1343,1342,-1
1393,1087,1081,-1
1393,1084,1088,-1
1393,1335,1084,-1
1393,1088,1087,-1
1340,1257,1339,-1
1344,1346,1340,-1
1344,1351,1346,-1
1345,1340,1346,-1
1349,1353,1348,-1
1349,1350,1352,-1
1349,1352,1353,-1
1264,1348,1359,-1
1351,1344,1355,-1
1354,1348,1353,-1
1356,1348,1354,-1
1357,1348,1356,-1
1358,1348,1357,-1
1427,1264,1359,-1
1393,1343,1335,-1
1393,1344,1343,-1
1355,1344,1360,-1
1359,1348,1358,-1
1344,1387,1360,-1
1360,1388,1361,-1
1393,1387,1344,-1
1388,1360,1387,-1
1361,1388,1390,-1
1361,1390,1362,-1
1480,1362,1390,-1
1394,1331,1499,-1
1389,1394,1391,-1
1391,1394,1392,-1
1394,1490,1392,-1
1394,1493,1490,-1
1098,1533,1406,-1
1410,1264,1412,-1
1313,1411,1408,-1
1411,1313,1410,-1
1408,1411,1409,-1
1412,1264,1424,-1
1424,1264,1426,-1
1426,1264,1427,-1
1413,1409,1411,-1
1430,1409,1413,-1
1431,1409,1430,-1
1432,1409,1431,-1
1433,1409,1432,-1
1441,1409,1433,-1
1409,1416,1415,-1
1416,1409,1419,-1
1419,1409,1420,-1
1420,1409,1422,-1
1422,1409,1439,-1
1439,1409,1440,-1
1440,1409,1441,-1
1425,1429,1428,-1
1428,1429,1434,-1
1428,1434,1436,-1
1437,1478,1438,-1
1442,1481,1423,-1
1438,1481,1442,-1
1484,1423,1481,-1
1362,1480,1435,-1
1435,1489,1434,-1
1436,1434,1489,-1
1436,1489,1437,-1
1478,1437,1479,-1
1435,1480,1489,-1
1491,1437,1489,-1
1437,1495,1479,-1
1492,1437,1491,-1
1495,1437,1492,-1
1481,1438,1478,-1
1479,1483,1482,-1
1483,1479,1485,-1
1485,1479,1486,-1
1486,1479,1487,-1
1487,1479,1500,-1
1499,1331,1403,-1
1496,1479,1495,-1
1497,1479,1496,-1
1394,1494,1493,-1
1394,1498,1494,-1
1394,1499,1498,-1
1500,1479,1501,-1
1501,1479,1497,-1
1533,1504,1406,-1
1533,1488,1502,-1
1533,1502,1503,-1
1533,1503,1504,-1
8,3,2,-1
9,14,3,-1
41,6,16,-1
8,9,3,-1
9,39,14,-1
8,39,9,-1
10,5,4,-1
12,4,6,-1
11,22,5,-1
13,17,7,-1
46,7,21,-1
10,11,5,-1
10,4,12,-1
10,12,11,-1
12,6,41,-1
11,47,22,-1
13,7,46,-1
11,12,13,-1
11,13,47,-1
12,41,13,-1
13,46,47,-1
39,16,14,-1
44,2,19,-1
40,20,15,-1
43,15,18,-1
42,25,17,-1
45,19,20,-1
8,2,44,-1
40,15,43,-1
40,45,20,-1
8,44,39,-1
39,40,41,-1
39,44,40,-1
40,44,45,-1
39,41,16,-1
13,42,17,-1
43,18,51,-1
40,43,41,-1
41,43,42,-1
13,41,42,-1
42,43,50,-1
44,19,45,-1
47,21,22,-1
48,24,23,-1
51,18,26,-1
50,23,25,-1
49,32,24,-1
56,26,31,-1
46,21,47,-1
48,49,24,-1
42,50,25,-1
48,23,50,-1
49,57,32,-1
51,26,56,-1
43,51,50,-1
48,50,49,-1
49,50,51,-1
49,51,57,-1
51,56,57,-1
52,28,27,-1
53,29,28,-1
54,30,29,-1
55,35,30,-1
52,53,28,-1
53,54,29,-1
52,27,113,-1
52,54,53,-1
52,113,54,-1
54,112,55,-1
54,55,30,-1
61,116,96,-1
55,112,115,-1
55,115,116,-1
55,116,61,-1
57,31,32,-1
58,34,33,-1
60,33,35,-1
59,38,34,-1
61,96,36,-1
62,36,37,-1
63,37,38,-1
56,31,57,-1
58,59,34,-1
58,33,60,-1
55,60,35,-1
58,60,59,-1
59,60,61,-1
59,61,63,-1
59,63,38,-1
61,36,62,-1
62,37,63,-1
55,61,60,-1
61,62,63,-1
79,64,65,-1
86,66,72,-1
78,64,79,-1
79,65,234,-1
80,66,86,-1
78,79,86,-1
79,80,86,-1
81,68,67,-1
82,69,68,-1
83,74,69,-1
78,67,64,-1
84,72,70,-1
85,70,71,-1
87,71,73,-1
89,73,75,-1
88,76,74,-1
91,75,77,-1
90,201,76,-1
81,67,78,-1
81,82,68,-1
81,85,82,-1
82,85,83,-1
82,83,69,-1
84,86,72,-1
84,70,85,-1
85,71,87,-1
81,78,84,-1
81,84,85,-1
78,86,84,-1
83,88,74,-1
87,73,89,-1
88,90,76,-1
89,75,91,-1
85,87,83,-1
83,87,88,-1
87,89,88,-1
88,89,90,-1
89,91,90,-1
90,91,245,-1
113,27,93,-1
112,94,92,-1
114,93,94,-1
115,92,95,-1
116,99,96,-1
112,92,115,-1
112,114,94,-1
113,93,114,-1
54,113,112,-1
112,113,114,-1
115,95,120,-1
115,119,116,-1
120,95,100,-1
117,98,97,-1
119,97,99,-1
118,102,98,-1
121,100,101,-1
122,101,102,-1
123,104,103,-1
125,103,105,-1
116,119,99,-1
117,118,98,-1
117,97,119,-1
115,120,119,-1
117,119,118,-1
118,119,120,-1
118,122,102,-1
120,100,121,-1
121,101,122,-1
123,124,104,-1
123,103,125,-1
118,120,122,-1
120,121,122,-1
123,125,124,-1
126,105,106,-1
127,106,107,-1
155,107,134,-1
128,136,108,-1
125,105,126,-1
128,108,129,-1
125,126,127,-1
125,127,128,-1
126,106,127,-1
127,107,155,-1
127,155,128,-1
128,155,157,-1
124,111,104,-1
129,108,109,-1
130,109,110,-1
131,110,111,-1
129,109,130,-1
124,131,111,-1
130,110,131,-1
124,125,129,-1
124,129,131,-1
125,128,129,-1
129,130,131,-1
128,157,136,-1
154,132,133,-1
153,134,132,-1
156,140,135,-1
165,133,144,-1
153,132,154,-1
153,155,134,-1
156,135,158,-1
155,156,157,-1
153,156,155,-1
154,133,165,-1
153,154,165,-1
153,165,156,-1
158,135,137,-1
157,137,136,-1
159,139,138,-1
161,138,140,-1
160,147,139,-1
157,158,137,-1
156,158,157,-1
159,160,139,-1
159,138,161,-1
156,161,140,-1
160,168,147,-1
159,161,160,-1
156,165,161,-1
160,161,165,-1
160,165,168,-1
163,141,142,-1
162,149,141,-1
162,170,149,-1
162,141,163,-1
164,143,171,-1
162,163,170,-1
163,164,170,-1
166,144,145,-1
168,145,147,-1
167,148,146,-1
170,146,149,-1
169,152,148,-1
171,143,150,-1
172,150,151,-1
173,151,152,-1
165,144,166,-1
166,145,168,-1
167,169,148,-1
167,146,170,-1
165,166,168,-1
167,170,169,-1
169,170,171,-1
169,173,152,-1
171,150,172,-1
172,151,173,-1
164,171,170,-1
169,171,173,-1
171,172,173,-1
182,175,174,-1
183,176,175,-1
186,174,178,-1
185,179,177,-1
188,177,180,-1
184,284,176,-1
187,178,179,-1
182,183,175,-1
182,174,186,-1
183,184,176,-1
182,184,183,-1
185,187,179,-1
185,177,188,-1
186,178,187,-1
188,180,309,-1
182,186,184,-1
184,186,185,-1
184,185,188,-1
185,186,187,-1
184,188,189,-1
188,309,189,-1
189,283,181,-1
314,181,285,-1
189,181,314,-1
184,313,284,-1
184,189,313,-1
189,314,313,-1
234,65,190,-1
80,191,66,-1
235,192,191,-1
237,190,193,-1
236,194,192,-1
238,195,194,-1
239,196,195,-1
241,193,197,-1
242,199,198,-1
80,235,191,-1
234,190,237,-1
235,236,192,-1
236,238,194,-1
79,234,80,-1
80,234,235,-1
234,236,235,-1
234,237,236,-1
236,237,238,-1
237,193,241,-1
238,239,195,-1
239,240,196,-1
241,197,250,-1
242,243,199,-1
237,239,238,-1
237,241,239,-1
239,241,240,-1
244,77,200,-1
246,200,202,-1
245,204,201,-1
247,202,203,-1
240,205,196,-1
249,206,205,-1
250,197,206,-1
251,209,207,-1
255,207,211,-1
252,203,208,-1
253,208,209,-1
248,210,204,-1
254,211,210,-1
256,213,212,-1
91,77,244,-1
90,245,201,-1
244,200,246,-1
246,202,247,-1
247,203,252,-1
245,248,204,-1
91,244,245,-1
244,246,245,-1
245,246,248,-1
246,247,248,-1
247,252,248,-1
240,249,205,-1
249,250,206,-1
240,241,250,-1
240,250,249,-1
251,253,209,-1
251,207,255,-1
254,255,211,-1
252,208,253,-1
248,254,210,-1
256,257,213,-1
251,255,253,-1
248,252,254,-1
252,253,254,-1
253,255,254,-1
243,214,199,-1
260,198,216,-1
259,217,215,-1
261,216,217,-1
242,198,260,-1
243,258,214,-1
242,258,243,-1
242,259,258,-1
242,260,259,-1
259,261,217,-1
260,216,261,-1
259,260,261,-1
258,220,214,-1
262,215,218,-1
263,222,219,-1
264,212,220,-1
257,229,213,-1
265,219,221,-1
267,218,223,-1
266,224,222,-1
269,223,225,-1
268,226,224,-1
270,227,226,-1
364,225,342,-1
272,221,228,-1
274,228,230,-1
273,345,229,-1
271,231,227,-1
275,232,231,-1
276,233,232,-1
277,230,233,-1
259,215,262,-1
262,218,267,-1
263,219,265,-1
258,259,262,-1
258,262,263,-1
258,263,264,-1
262,266,263,-1
258,264,220,-1
256,212,264,-1
265,221,272,-1
257,273,229,-1
256,264,257,-1
263,265,264,-1
257,264,273,-1
264,265,273,-1
263,266,222,-1
267,223,269,-1
266,268,224,-1
268,270,226,-1
269,225,364,-1
270,271,227,-1
262,267,266,-1
266,267,268,-1
267,269,268,-1
268,269,270,-1
269,364,270,-1
270,364,271,-1
272,228,274,-1
276,277,233,-1
271,275,231,-1
275,276,232,-1
274,230,277,-1
273,367,345,-1
265,272,273,-1
272,274,273,-1
273,274,367,-1
274,277,367,-1
276,367,277,-1
309,180,280,-1
307,279,278,-1
308,281,279,-1
310,280,281,-1
316,278,287,-1
311,288,282,-1
307,308,279,-1
308,310,281,-1
309,280,310,-1
189,309,312,-1
307,310,308,-1
307,278,316,-1
311,282,315,-1
311,317,288,-1
309,310,311,-1
307,316,310,-1
312,309,311,-1
310,316,311,-1
311,316,317,-1
312,285,283,-1
315,282,286,-1
313,286,284,-1
189,312,283,-1
312,314,285,-1
312,315,314,-1
312,311,315,-1
313,315,286,-1
314,315,313,-1
317,287,288,-1
318,290,289,-1
319,291,290,-1
320,297,291,-1
322,289,293,-1
321,294,292,-1
327,292,298,-1
323,293,294,-1
316,287,317,-1
318,319,290,-1
319,320,291,-1
318,289,322,-1
318,320,319,-1
318,321,320,-1
318,322,321,-1
320,321,327,-1
320,327,328,-1
321,323,294,-1
321,292,327,-1
322,293,323,-1
330,301,818,-1
321,322,323,-1
324,296,295,-1
326,295,297,-1
325,305,296,-1
328,300,299,-1
330,298,301,-1
332,299,303,-1
329,302,300,-1
331,795,302,-1
333,303,304,-1
335,304,306,-1
334,805,305,-1
320,326,297,-1
320,328,326,-1
328,332,326,-1
324,325,296,-1
324,295,326,-1
324,326,325,-1
325,326,334,-1
328,299,332,-1
327,298,330,-1
328,329,300,-1
329,331,302,-1
327,329,328,-1
327,330,329,-1
330,331,329,-1
330,825,331,-1
332,303,333,-1
325,334,305,-1
333,304,335,-1
335,306,829,-1
334,836,805,-1
326,332,334,-1
332,333,334,-1
333,335,334,-1
334,335,836,-1
358,337,336,-1
359,338,337,-1
362,336,340,-1
361,341,339,-1
363,340,341,-1
358,359,337,-1
359,360,338,-1
358,360,359,-1
358,336,362,-1
361,363,341,-1
362,340,363,-1
358,362,360,-1
360,362,361,-1
361,362,363,-1
365,342,343,-1
367,344,345,-1
366,343,344,-1
368,347,346,-1
370,346,348,-1
370,348,338,-1
371,339,349,-1
369,350,347,-1
364,342,365,-1
365,343,366,-1
271,364,365,-1
366,344,367,-1
368,369,347,-1
368,346,370,-1
271,365,275,-1
275,365,366,-1
275,366,276,-1
276,366,367,-1
368,370,369,-1
360,370,338,-1
361,339,371,-1
360,361,371,-1
369,372,350,-1
360,371,370,-1
369,370,372,-1
370,371,372,-1
374,351,352,-1
373,351,374,-1
373,349,351,-1
372,355,350,-1
375,354,353,-1
377,356,355,-1
378,353,356,-1
376,860,354,-1
379,352,357,-1
901,357,859,-1
371,349,373,-1
372,377,355,-1
371,373,374,-1
371,374,377,-1
375,376,354,-1
371,377,372,-1
374,352,379,-1
377,374,379,-1
377,378,356,-1
375,353,378,-1
379,357,901,-1
376,902,860,-1
377,379,378,-1
375,378,376,-1
376,378,379,-1
376,379,902,-1
379,901,902,-1
381,383,384,-1
381,384,382,-1
381,382,385,-1
383,386,384,-1
381,395,383,-1
381,385,394,-1
383,396,386,-1
381,394,395,-1
396,387,386,-1
383,395,396,-1
397,385,388,-1
399,388,390,-1
398,390,389,-1
394,385,397,-1
394,396,395,-1
394,397,396,-1
397,388,399,-1
398,397,399,-1
398,399,390,-1
396,397,398,-1
400,450,391,-1
401,391,392,-1
400,401,455,-1
400,391,401,-1
413,404,403,-1
414,405,404,-1
415,426,405,-1
416,403,406,-1
417,410,407,-1
418,406,408,-1
420,409,410,-1
421,407,411,-1
422,411,412,-1
437,412,427,-1
413,403,416,-1
413,414,404,-1
414,415,405,-1
413,421,414,-1
414,421,415,-1
416,406,418,-1
420,410,417,-1
419,409,420,-1
418,408,528,-1
416,418,420,-1
413,416,417,-1
416,420,417,-1
418,419,420,-1
417,407,421,-1
421,411,422,-1
415,436,426,-1
422,412,437,-1
413,417,421,-1
421,422,415,-1
415,422,436,-1
422,437,436,-1
433,424,423,-1
434,425,424,-1
401,392,472,-1
433,434,424,-1
433,423,441,-1
433,435,434,-1
434,435,425,-1
436,428,426,-1
439,427,429,-1
438,557,428,-1
436,438,428,-1
437,427,439,-1
436,437,438,-1
437,439,438,-1
438,439,577,-1
441,423,431,-1
440,432,430,-1
442,431,432,-1
433,441,435,-1
435,441,440,-1
441,431,442,-1
440,441,442,-1
440,442,432,-1
443,446,444,-1
443,445,446,-1
443,444,447,-1
445,448,446,-1
443,453,445,-1
443,447,452,-1
445,453,448,-1
396,449,387,-1
455,389,450,-1
396,454,449,-1
396,455,454,-1
398,389,455,-1
396,398,455,-1
400,455,450,-1
454,447,449,-1
453,451,448,-1
443,452,453,-1
454,452,447,-1
454,453,452,-1
454,456,453,-1
453,456,451,-1
454,455,456,-1
456,393,451,-1
401,402,455,-1
402,456,455,-1
402,393,456,-1
402,459,393,-1
435,458,425,-1
472,392,458,-1
401,472,402,-1
402,473,459,-1
435,472,458,-1
402,472,473,-1
477,461,463,-1
475,460,461,-1
475,474,460,-1
475,461,477,-1
440,430,462,-1
435,440,472,-1
440,462,476,-1
440,473,472,-1
440,476,473,-1
481,467,459,-1
478,463,464,-1
479,464,465,-1
480,462,466,-1
481,466,467,-1
482,465,468,-1
483,468,469,-1
484,469,470,-1
485,470,471,-1
473,481,459,-1
476,462,480,-1
473,476,481,-1
477,463,478,-1
478,464,479,-1
479,465,482,-1
475,485,474,-1
475,477,485,-1
477,478,485,-1
480,466,481,-1
476,480,481,-1
482,468,483,-1
483,469,484,-1
484,470,485,-1
479,482,483,-1
479,483,484,-1
478,479,485,-1
479,484,485,-1
474,486,460,-1
493,487,486,-1
474,493,486,-1
493,494,487,-1
474,494,493,-1
494,488,487,-1
495,489,488,-1
496,490,489,-1
497,491,490,-1
498,492,491,-1
499,471,492,-1
494,495,488,-1
495,496,489,-1
474,495,494,-1
474,496,495,-1
474,497,496,-1
474,498,497,-1
496,497,490,-1
497,498,491,-1
499,492,498,-1
485,471,499,-1
474,499,498,-1
474,485,499,-1
419,501,409,-1
528,408,500,-1
529,502,501,-1
531,500,503,-1
530,504,502,-1
532,505,504,-1
533,506,505,-1
536,503,508,-1
534,507,506,-1
535,511,507,-1
537,510,509,-1
539,508,511,-1
540,562,512,-1
541,512,513,-1
419,529,501,-1
528,500,531,-1
529,530,502,-1
530,532,504,-1
418,528,419,-1
419,528,529,-1
528,530,529,-1
528,531,530,-1
530,531,532,-1
532,533,505,-1
531,503,536,-1
533,534,506,-1
534,535,507,-1
537,538,510,-1
536,508,539,-1
535,539,511,-1
531,533,532,-1
531,536,533,-1
533,536,534,-1
534,536,539,-1
534,539,535,-1
540,512,541,-1
540,541,582,-1
538,514,510,-1
546,509,518,-1
544,515,516,-1
542,566,514,-1
545,520,517,-1
587,517,567,-1
543,519,515,-1
547,518,519,-1
549,516,521,-1
548,522,520,-1
551,521,523,-1
550,524,522,-1
552,525,524,-1
610,523,598,-1
553,526,525,-1
554,527,526,-1
538,542,514,-1
537,509,546,-1
543,515,544,-1
537,542,538,-1
537,543,542,-1
537,546,543,-1
542,543,544,-1
542,544,545,-1
542,586,566,-1
544,516,549,-1
545,517,587,-1
542,545,586,-1
544,548,545,-1
545,587,586,-1
543,547,519,-1
546,518,547,-1
543,546,547,-1
545,548,520,-1
549,521,551,-1
548,550,522,-1
550,552,524,-1
551,523,610,-1
552,553,525,-1
553,554,526,-1
554,555,527,-1
544,549,548,-1
548,549,550,-1
549,551,550,-1
550,551,552,-1
551,610,552,-1
552,610,553,-1
576,429,556,-1
578,556,558,-1
577,560,557,-1
579,558,559,-1
581,559,561,-1
582,561,562,-1
580,563,560,-1
583,513,563,-1
584,565,564,-1
439,429,576,-1
438,577,557,-1
578,558,579,-1
576,556,578,-1
579,559,581,-1
580,560,577,-1
439,576,577,-1
576,578,577,-1
578,580,577,-1
578,579,580,-1
579,581,580,-1
581,561,582,-1
540,582,562,-1
583,541,513,-1
580,583,563,-1
584,585,565,-1
580,581,583,-1
581,582,583,-1
582,541,583,-1
586,564,566,-1
585,569,565,-1
588,567,568,-1
590,568,570,-1
589,620,569,-1
591,570,571,-1
555,571,527,-1
584,564,586,-1
587,567,588,-1
585,589,569,-1
584,586,585,-1
585,586,589,-1
586,587,589,-1
588,568,590,-1
590,570,591,-1
555,591,571,-1
589,635,620,-1
587,588,589,-1
588,590,589,-1
590,591,635,-1
589,590,635,-1
555,635,591,-1
592,573,572,-1
593,574,573,-1
641,572,626,-1
595,627,575,-1
656,575,650,-1
592,593,573,-1
592,572,641,-1
592,594,593,-1
593,594,574,-1
592,595,594,-1
592,641,595,-1
595,575,656,-1
594,595,656,-1
594,656,657,-1
608,597,596,-1
609,601,597,-1
611,598,599,-1
612,599,600,-1
615,596,603,-1
614,602,624,-1
614,604,602,-1
616,603,604,-1
638,623,601,-1
608,609,597,-1
609,613,601,-1
608,613,609,-1
610,598,611,-1
611,599,612,-1
612,600,635,-1
553,610,611,-1
553,611,554,-1
554,611,612,-1
554,612,555,-1
555,612,635,-1
608,596,615,-1
614,616,604,-1
615,603,616,-1
608,615,613,-1
613,615,614,-1
613,614,639,-1
614,615,616,-1
613,638,601,-1
614,624,639,-1
613,639,638,-1
617,624,605,-1
640,606,625,-1
619,605,607,-1
618,630,606,-1
646,607,631,-1
617,619,639,-1
617,639,624,-1
618,606,640,-1
618,640,639,-1
618,639,619,-1
617,605,619,-1
619,607,646,-1
618,645,630,-1
618,646,645,-1
618,619,646,-1
635,600,620,-1
636,622,621,-1
638,621,623,-1
637,625,622,-1
636,637,622,-1
636,621,638,-1
636,638,637,-1
637,640,625,-1
637,638,640,-1
638,639,640,-1
642,626,627,-1
641,626,642,-1
595,641,642,-1
595,642,627,-1
643,629,628,-1
645,628,630,-1
644,1150,629,-1
1174,631,1149,-1
643,644,629,-1
643,628,645,-1
644,1175,1150,-1
646,631,1174,-1
643,645,644,-1
644,645,646,-1
644,646,1175,-1
646,1174,1175,-1
647,633,632,-1
648,634,633,-1
647,648,633,-1
647,632,1182,-1
647,649,648,-1
648,649,634,-1
594,654,574,-1
657,663,651,-1
661,651,655,-1
594,660,654,-1
656,650,681,-1
657,682,663,-1
594,657,660,-1
656,682,657,-1
657,651,661,-1
657,661,660,-1
658,653,652,-1
660,652,654,-1
659,672,653,-1
690,655,671,-1
660,658,652,-1
658,659,653,-1
660,659,658,-1
661,655,690,-1
659,691,672,-1
660,691,659,-1
660,661,691,-1
681,650,662,-1
682,664,663,-1
684,662,665,-1
683,666,664,-1
685,668,666,-1
686,665,667,-1
687,670,668,-1
688,674,669,-1
689,669,670,-1
681,662,684,-1
682,683,664,-1
656,681,682,-1
681,683,682,-1
681,684,683,-1
684,665,686,-1
683,685,666,-1
685,687,668,-1
683,684,685,-1
684,686,685,-1
685,686,687,-1
686,695,687,-1
689,688,669,-1
687,689,670,-1
687,695,689,-1
689,696,688,-1
696,694,688,-1
692,671,673,-1
691,675,672,-1
693,673,674,-1
690,671,692,-1
692,673,693,-1
661,690,691,-1
690,692,691,-1
692,694,691,-1
688,693,674,-1
691,694,675,-1
692,693,694,-1
688,694,693,-1
695,667,676,-1
696,676,677,-1
649,680,634,-1
686,667,695,-1
695,676,696,-1
696,677,694,-1
689,695,696,-1
649,699,680,-1
694,677,675,-1
697,679,678,-1
699,678,680,-1
698,1289,679,-1
699,697,678,-1
697,698,679,-1
699,698,697,-1
699,1297,698,-1
721,142,701,-1
164,705,143,-1
723,702,703,-1
722,701,702,-1
724,713,704,-1
163,142,721,-1
721,701,722,-1
163,721,164,-1
164,721,725,-1
722,702,723,-1
724,704,726,-1
723,703,734,-1
721,722,724,-1
721,724,725,-1
722,723,734,-1
722,734,724,-1
725,706,705,-1
726,704,706,-1
727,708,707,-1
164,725,705,-1
725,726,706,-1
727,728,708,-1
724,726,725,-1
734,703,714,-1
729,710,709,-1
730,711,710,-1
764,709,741,-1
732,742,712,-1
731,720,711,-1
739,712,719,-1
729,730,710,-1
729,709,764,-1
730,731,711,-1
729,731,730,-1
729,764,731,-1
731,764,732,-1
732,712,739,-1
731,740,720,-1
731,732,739,-1
731,739,740,-1
733,707,713,-1
728,716,708,-1
735,714,715,-1
736,715,716,-1
737,718,717,-1
740,717,720,-1
738,745,718,-1
724,733,713,-1
727,707,733,-1
728,736,716,-1
734,714,735,-1
735,715,736,-1
724,734,733,-1
727,733,728,-1
728,733,734,-1
728,734,736,-1
734,735,736,-1
737,738,718,-1
737,717,740,-1
738,768,745,-1
737,740,738,-1
738,740,768,-1
740,739,768,-1
765,741,742,-1
772,743,749,-1
766,719,743,-1
767,748,744,-1
732,765,742,-1
764,741,765,-1
732,764,765,-1
739,719,766,-1
766,743,772,-1
767,744,768,-1
739,766,772,-1
739,772,767,-1
767,772,779,-1
768,744,745,-1
769,747,746,-1
771,746,748,-1
770,758,747,-1
739,767,768,-1
769,770,747,-1
769,746,771,-1
767,771,748,-1
769,771,770,-1
767,779,771,-1
770,771,779,-1
770,779,781,-1
773,751,750,-1
774,752,751,-1
779,749,756,-1
777,750,754,-1
776,755,753,-1
778,754,755,-1
775,762,752,-1
784,753,761,-1
773,774,751,-1
774,775,752,-1
773,775,774,-1
772,749,779,-1
773,750,777,-1
776,778,755,-1
777,754,778,-1
773,777,775,-1
775,777,776,-1
776,777,778,-1
776,753,784,-1
775,785,762,-1
775,776,784,-1
775,784,785,-1
780,756,757,-1
781,757,758,-1
782,760,759,-1
785,759,762,-1
783,763,760,-1
770,781,758,-1
779,756,780,-1
780,757,781,-1
782,783,760,-1
782,759,785,-1
779,780,781,-1
782,785,783,-1
783,786,763,-1
783,785,786,-1
785,784,786,-1
818,301,787,-1
825,788,794,-1
820,787,789,-1
819,790,788,-1
821,789,790,-1
822,792,791,-1
823,793,792,-1
824,809,793,-1
818,787,820,-1
819,788,825,-1
330,818,825,-1
818,820,819,-1
818,819,825,-1
819,821,790,-1
820,789,821,-1
822,823,792,-1
822,791,842,-1
823,824,793,-1
819,820,821,-1
822,824,823,-1
822,842,824,-1
826,797,795,-1
827,794,796,-1
831,798,800,-1
828,799,797,-1
830,800,799,-1
832,796,801,-1
833,801,802,-1
834,804,803,-1
835,802,804,-1
829,306,798,-1
836,806,805,-1
837,803,806,-1
838,808,807,-1
840,807,809,-1
839,817,808,-1
825,794,827,-1
331,826,795,-1
826,828,797,-1
827,796,832,-1
831,829,798,-1
828,830,799,-1
830,831,800,-1
832,801,833,-1
837,834,803,-1
833,802,835,-1
834,835,804,-1
331,825,826,-1
825,827,826,-1
827,828,826,-1
827,832,828,-1
828,833,830,-1
830,835,831,-1
831,837,829,-1
831,834,837,-1
828,832,833,-1
833,835,830,-1
831,835,834,-1
836,837,806,-1
335,829,836,-1
829,837,836,-1
824,840,809,-1
824,847,840,-1
838,839,808,-1
838,807,840,-1
838,840,839,-1
839,840,848,-1
842,791,811,-1
841,812,810,-1
843,811,812,-1
844,816,813,-1
845,813,814,-1
841,843,812,-1
841,810,847,-1
842,811,843,-1
824,842,841,-1
841,842,843,-1
824,841,847,-1
844,845,847,-1
844,813,845,-1
845,814,950,-1
845,846,847,-1
845,950,846,-1
847,810,816,-1
848,815,817,-1
846,940,815,-1
844,847,816,-1
846,848,847,-1
839,848,817,-1
840,847,848,-1
846,815,848,-1
892,849,850,-1
905,851,863,-1
894,850,852,-1
893,853,851,-1
891,849,892,-1
893,851,905,-1
892,850,894,-1
893,895,853,-1
891,892,905,-1
892,893,905,-1
892,894,893,-1
893,894,895,-1
896,855,854,-1
897,858,855,-1
891,854,849,-1
898,863,856,-1
899,856,857,-1
902,859,860,-1
900,862,858,-1
903,857,861,-1
904,865,862,-1
906,861,864,-1
908,864,866,-1
907,867,865,-1
920,866,878,-1
896,897,855,-1
896,854,891,-1
898,856,899,-1
899,857,903,-1
896,891,898,-1
896,898,899,-1
891,905,898,-1
896,899,897,-1
897,899,900,-1
897,900,858,-1
901,859,902,-1
900,904,862,-1
903,861,906,-1
899,903,900,-1
900,903,904,-1
903,906,904,-1
898,905,863,-1
904,907,865,-1
906,864,908,-1
908,866,920,-1
907,909,867,-1
904,906,907,-1
906,908,907,-1
908,909,907,-1
908,920,909,-1
895,868,853,-1
912,852,870,-1
910,869,868,-1
911,871,869,-1
913,872,871,-1
915,870,873,-1
916,875,874,-1
917,876,875,-1
894,852,912,-1
895,910,868,-1
910,911,869,-1
912,870,915,-1
911,913,871,-1
913,914,872,-1
894,910,895,-1
894,912,910,-1
910,912,911,-1
911,912,913,-1
912,915,913,-1
913,915,914,-1
915,873,927,-1
916,917,875,-1
917,918,876,-1
916,918,917,-1
916,988,918,-1
914,877,872,-1
921,878,879,-1
909,883,867,-1
922,879,880,-1
923,884,881,-1
924,880,882,-1
925,887,883,-1
926,882,884,-1
927,873,885,-1
919,885,877,-1
918,890,876,-1
928,881,886,-1
929,886,887,-1
930,889,888,-1
932,888,890,-1
931,964,889,-1
914,919,877,-1
914,927,919,-1
920,878,921,-1
921,879,922,-1
909,925,883,-1
923,926,884,-1
923,881,928,-1
922,880,924,-1
924,882,926,-1
925,929,887,-1
909,920,921,-1
909,921,925,-1
921,922,925,-1
923,928,926,-1
922,924,925,-1
924,929,925,-1
924,926,929,-1
926,928,929,-1
919,927,885,-1
914,915,927,-1
928,886,929,-1
918,932,890,-1
930,888,932,-1
930,931,889,-1
930,932,931,-1
944,934,933,-1
945,935,934,-1
946,939,935,-1
948,933,937,-1
947,938,936,-1
947,936,941,-1
949,937,938,-1
944,945,934,-1
944,933,948,-1
945,946,935,-1
944,946,945,-1
944,948,946,-1
946,947,950,-1
947,949,938,-1
948,937,949,-1
946,948,947,-1
947,948,949,-1
950,814,939,-1
951,943,940,-1
953,941,942,-1
954,942,943,-1
846,951,940,-1
946,950,939,-1
846,950,951,-1
947,951,950,-1
947,952,951,-1
947,941,952,-1
952,941,953,-1
951,954,943,-1
953,942,954,-1
951,952,954,-1
952,953,954,-1
989,874,956,-1
988,957,955,-1
990,956,957,-1
916,874,989,-1
989,956,990,-1
988,990,957,-1
916,989,988,-1
988,989,990,-1
991,955,958,-1
992,960,959,-1
994,958,961,-1
993,965,960,-1
995,959,962,-1
996,962,963,-1
1006,963,973,-1
999,961,966,-1
998,967,965,-1
1000,968,967,-1
1002,966,969,-1
1003,969,970,-1
1001,971,968,-1
1005,974,972,-1
1004,972,971,-1
997,976,964,-1
1007,973,974,-1
1009,975,976,-1
1008,970,975,-1
988,955,991,-1
992,959,995,-1
991,958,994,-1
992,993,960,-1
994,961,999,-1
993,998,965,-1
918,988,991,-1
918,991,992,-1
918,992,932,-1
991,993,992,-1
991,994,993,-1
993,994,998,-1
995,962,996,-1
931,997,964,-1
996,963,1006,-1
932,992,995,-1
931,932,997,-1
932,995,997,-1
995,996,997,-1
996,1006,997,-1
998,1000,967,-1
999,966,1002,-1
1000,1001,968,-1
1002,969,1003,-1
1003,970,1008,-1
994,999,998,-1
998,999,1000,-1
999,1002,1000,-1
1000,1002,1001,-1
1001,1002,1003,-1
1001,1004,971,-1
1005,1007,974,-1
1004,1005,972,-1
1006,973,1007,-1
997,1009,976,-1
1008,975,1009,-1
997,1006,1009,-1
1006,1007,1009,-1
1005,1009,1007,-1
1001,1003,1004,-1
1004,1008,1005,-1
1005,1008,1009,-1
1003,1008,1004,-1
1010,978,977,-1
1011,979,978,-1
1014,977,981,-1
1013,982,980,-1
1015,981,982,-1
1010,1011,978,-1
1010,977,1014,-1
1011,1012,979,-1
1010,1012,1011,-1
1010,1014,1012,-1
1013,1015,982,-1
1014,981,1015,-1
1012,1014,1013,-1
1013,1014,1015,-1
1016,984,983,-1
1018,985,979,-1
1019,980,986,-1
1018,983,985,-1
1017,987,984,-1
1020,1082,987,-1
1012,1018,979,-1
1013,980,1019,-1
1012,1013,1019,-1
1016,983,1018,-1
1016,1017,984,-1
1017,1020,987,-1
1016,1018,1017,-1
1012,1019,1018,-1
1017,1018,1020,-1
1018,1019,1020,-1
1019,986,1089,-1
1019,1091,1020,-1
1041,761,1021,-1
1042,1021,1022,-1
1043,1026,1023,-1
1042,1022,1027,-1
784,761,1041,-1
786,1043,1023,-1
784,1042,1043,-1
784,1041,1042,-1
1041,1021,1042,-1
1042,1027,1047,-1
1043,1042,1047,-1
786,1023,763,-1
1044,1025,1024,-1
1046,1024,1026,-1
1045,1029,1025,-1
1048,1027,1028,-1
1049,1028,1029,-1
1044,1045,1025,-1
784,1043,786,-1
1043,1046,1026,-1
1044,1024,1046,-1
1045,1049,1029,-1
1047,1027,1048,-1
1048,1028,1049,-1
1043,1047,1046,-1
1044,1046,1045,-1
1045,1046,1047,-1
1045,1047,1049,-1
1047,1048,1049,-1
1050,1031,1030,-1
1051,1032,1031,-1
1054,1030,1034,-1
1052,1039,1032,-1
1058,1033,1038,-1
1053,1035,1033,-1
1055,1034,1035,-1
1050,1051,1031,-1
1050,1030,1054,-1
1051,1052,1032,-1
1050,1052,1051,-1
1050,1054,1052,-1
1052,1054,1053,-1
1053,1033,1058,-1
1052,1059,1039,-1
1052,1053,1058,-1
1052,1058,1059,-1
1053,1055,1035,-1
1054,1034,1055,-1
1053,1054,1055,-1
1058,1038,1071,-1
1056,1037,1036,-1
1059,1036,1039,-1
1057,1040,1037,-1
1060,1063,1040,-1
1056,1057,1037,-1
1056,1036,1059,-1
1057,1060,1040,-1
1056,1059,1057,-1
1057,1059,1060,-1
1059,1058,1060,-1
1058,1072,1060,-1
1071,1038,1062,-1
1072,1067,1063,-1
1073,1062,1064,-1
1077,1064,1068,-1
1071,1062,1073,-1
1060,1072,1063,-1
1058,1071,1073,-1
1058,1073,1072,-1
1073,1064,1077,-1
1072,1073,1077,-1
1074,1066,1065,-1
1076,1065,1067,-1
1075,1070,1066,-1
1078,1068,1069,-1
1079,1069,1070,-1
1074,1075,1066,-1
1072,1076,1067,-1
1074,1065,1076,-1
1072,1077,1076,-1
1074,1076,1075,-1
1075,1076,1077,-1
1075,1079,1070,-1
1077,1068,1078,-1
1078,1069,1079,-1
1075,1077,1079,-1
1077,1078,1079,-1
1090,1080,1081,-1
1089,1080,1090,-1
1089,986,1080,-1
1091,1085,1082,-1
1092,1084,1083,-1
1094,1083,1085,-1
1093,1088,1084,-1
1095,1081,1086,-1
1096,1086,1087,-1
1097,1087,1088,-1
1020,1091,1082,-1
1019,1089,1090,-1
1019,1090,1091,-1
1092,1093,1084,-1
1091,1094,1085,-1
1092,1083,1094,-1
1091,1095,1094,-1
1092,1094,1093,-1
1093,1094,1095,-1
1090,1081,1095,-1
1091,1090,1095,-1
1093,1097,1088,-1
1095,1086,1096,-1
1096,1087,1097,-1
1093,1095,1097,-1
1095,1096,1097,-1
1125,1099,1100,-1
1126,1108,1101,-1
1124,1102,1099,-1
1127,1103,1102,-1
1129,1101,1104,-1
1128,1151,1103,-1
1130,1104,1105,-1
1131,1100,1106,-1
1133,1107,1108,-1
1134,1106,1109,-1
1132,1110,1107,-1
1177,1105,1152,-1
1125,1100,1131,-1
1124,1099,1125,-1
1124,1125,1126,-1
1125,1133,1126,-1
1124,1127,1102,-1
1127,1128,1103,-1
1126,1101,1129,-1
1129,1104,1130,-1
1128,1176,1151,-1
1130,1105,1177,-1
1124,1129,1127,-1
1124,1126,1129,-1
1127,1129,1128,-1
1129,1130,1128,-1
1128,1130,1176,-1
1130,1177,1176,-1
1132,1107,1133,-1
1126,1133,1108,-1
1131,1106,1134,-1
1132,1135,1110,-1
1125,1131,1133,-1
1131,1132,1133,-1
1131,1134,1132,-1
1132,1134,1135,-1
1135,1111,1110,-1
1138,1109,1113,-1
1136,1112,1111,-1
1137,1114,1112,-1
1139,1115,1114,-1
1143,1113,1118,-1
1140,1116,1115,-1
1142,1164,1117,-1
1144,1118,1119,-1
1141,1119,1116,-1
1145,1121,1120,-1
1146,1122,1121,-1
1148,1117,1123,-1
1147,1168,1122,-1
1134,1109,1138,-1
1135,1136,1111,-1
1136,1137,1112,-1
1138,1113,1143,-1
1137,1139,1114,-1
1139,1140,1115,-1
1140,1141,1116,-1
1134,1136,1135,-1
1134,1138,1136,-1
1136,1138,1137,-1
1137,1138,1139,-1
1138,1143,1139,-1
1139,1143,1140,-1
1140,1144,1141,-1
1142,1117,1148,-1
1142,1148,1189,-1
1143,1118,1144,-1
1141,1144,1119,-1
1145,1146,1121,-1
1146,1147,1122,-1
1140,1143,1144,-1
1145,1147,1146,-1
1145,1221,1147,-1
1147,1193,1168,-1
1175,1149,1150,-1
1176,1154,1151,-1
1178,1152,1153,-1
1179,1155,1154,-1
1184,1153,1159,-1
1174,1149,1175,-1
1176,1179,1154,-1
1177,1152,1178,-1
1178,1153,1184,-1
1179,1180,1155,-1
1176,1177,1179,-1
1177,1178,1179,-1
1179,1178,1180,-1
1178,1184,1180,-1
1182,632,1157,-1
1181,1158,1156,-1
1183,1157,1158,-1
647,1182,649,-1
649,1182,1181,-1
1182,1157,1183,-1
1181,1182,1183,-1
1181,1183,1158,-1
1185,1159,1160,-1
1180,1163,1155,-1
1186,1160,1161,-1
1187,1161,1162,-1
1188,1165,1163,-1
1189,1162,1164,-1
1190,1123,1165,-1
1191,1167,1166,-1
1193,1166,1168,-1
1192,1245,1167,-1
1184,1159,1185,-1
1185,1160,1186,-1
1180,1188,1163,-1
1186,1161,1187,-1
1187,1162,1189,-1
1142,1189,1164,-1
1188,1190,1165,-1
1180,1184,1185,-1
1180,1185,1188,-1
1185,1186,1188,-1
1186,1187,1188,-1
1187,1190,1188,-1
1187,1189,1190,-1
1189,1148,1190,-1
1148,1123,1190,-1
1191,1192,1167,-1
1191,1166,1193,-1
1191,1193,1192,-1
1195,1169,1170,-1
1196,1170,1171,-1
1197,1173,1172,-1
1198,1249,1173,-1
1195,1194,1169,-1
1195,1197,1194,-1
1195,1170,1196,-1
1197,1198,1173,-1
1198,1271,1249,-1
1195,1196,1198,-1
1195,1198,1197,-1
1196,1271,1198,-1
1222,1120,1200,-1
1224,1199,1202,-1
1221,1201,1199,-1
1223,1200,1201,-1
1265,1203,1243,-1
1225,1204,1203,-1
1227,1202,1205,-1
1226,1206,1204,-1
1229,1205,1207,-1
1228,1208,1206,-1
1230,1209,1208,-1
1231,1210,1209,-1
1232,1211,1210,-1
1234,1207,1212,-1
1235,1212,1213,-1
1236,1213,1214,-1
1145,1120,1222,-1
1221,1199,1224,-1
1221,1223,1201,-1
1222,1200,1223,-1
1145,1222,1221,-1
1147,1221,1224,-1
1147,1224,1225,-1
1221,1222,1223,-1
1225,1203,1265,-1
1224,1202,1227,-1
1225,1226,1204,-1
1227,1205,1229,-1
1226,1228,1206,-1
1147,1225,1193,-1
1193,1225,1265,-1
1224,1226,1225,-1
1224,1227,1226,-1
1226,1227,1228,-1
1228,1230,1208,-1
1229,1207,1234,-1
1230,1231,1209,-1
1231,1232,1210,-1
1232,1233,1211,-1
1234,1212,1235,-1
1235,1213,1236,-1
1236,1214,1270,-1
1227,1229,1228,-1
1229,1230,1228,-1
1229,1234,1230,-1
1230,1234,1231,-1
1231,1234,1235,-1
1231,1235,1232,-1
1232,1236,1233,-1
1233,1236,1270,-1
1235,1236,1232,-1
1237,1216,1215,-1
1238,1217,1216,-1
1277,1255,1217,-1
1278,1218,1256,-1
1241,1215,1219,-1
1240,1220,1218,-1
1242,1219,1220,-1
1279,1334,1257,-1
1237,1238,1216,-1
1238,1239,1217,-1
1237,1215,1241,-1
1240,1218,1278,-1
1237,1239,1238,-1
1237,1241,1239,-1
1239,1240,1278,-1
1239,1277,1217,-1
1239,1278,1277,-1
1240,1242,1220,-1
1241,1219,1242,-1
1239,1241,1240,-1
1240,1241,1242,-1
1278,1256,1336,-1
1278,1337,1279,-1
1266,1243,1244,-1
1268,1244,1246,-1
1269,1246,1247,-1
1267,1248,1245,-1
1233,1247,1211,-1
1270,1214,1248,-1
1265,1243,1266,-1
1192,1267,1245,-1
1266,1244,1268,-1
1192,1193,1267,-1
1193,1265,1267,-1
1265,1266,1267,-1
1266,1268,1267,-1
1268,1246,1269,-1
1233,1269,1247,-1
1267,1270,1248,-1
1267,1268,1270,-1
1268,1269,1270,-1
1233,1270,1269,-1
1272,1171,1250,-1
1271,1251,1249,-1
1280,1250,1258,-1
1273,1252,1251,-1
1274,1259,1252,-1
1196,1171,1272,-1
1196,1272,1271,-1
1271,1272,1273,-1
1271,1273,1251,-1
1272,1250,1280,-1
1272,1274,1273,-1
1272,1280,1274,-1
1274,1280,1281,-1
1273,1274,1252,-1
1274,1281,1259,-1
1275,1254,1253,-1
1277,1253,1255,-1
1276,1257,1254,-1
1275,1276,1254,-1
1275,1253,1277,-1
1276,1279,1257,-1
1275,1277,1276,-1
1276,1277,1279,-1
1277,1278,1279,-1
1285,1258,1263,-1
1281,1260,1259,-1
1282,1261,1260,-1
1283,1262,1261,-1
1284,1264,1262,-1
1286,1263,1264,-1
1280,1258,1285,-1
1281,1282,1260,-1
1282,1283,1261,-1
1283,1284,1262,-1
1280,1282,1281,-1
1280,1285,1282,-1
1282,1285,1283,-1
1283,1285,1286,-1
1283,1286,1284,-1
1285,1263,1286,-1
1284,1286,1264,-1
1297,1156,1287,-1
1181,1156,1297,-1
649,1181,699,-1
699,1181,1297,-1
1298,1287,1288,-1
1299,1288,1289,-1
1297,1287,1298,-1
698,1299,1289,-1
698,1297,1299,-1
1298,1288,1299,-1
1297,1298,1299,-1
1194,1290,1169,-1
1300,1292,1290,-1
1302,1295,1292,-1
1301,1172,1291,-1
1303,1291,1293,-1
1304,1293,1294,-1
1194,1300,1290,-1
1194,1301,1300,-1
1300,1301,1302,-1
1194,1197,1301,-1
1300,1302,1292,-1
1302,1305,1295,-1
1301,1303,1302,-1
1302,1303,1305,-1
1197,1172,1301,-1
1301,1291,1303,-1
1303,1293,1304,-1
1303,1304,1305,-1
1305,1296,1295,-1
1318,1294,1307,-1
1305,1306,1296,-1
1304,1294,1318,-1
1305,1304,1306,-1
1304,1318,1306,-1
1306,1309,1296,-1
1319,1307,1308,-1
1321,1308,1310,-1
1320,1315,1309,-1
1322,1310,1311,-1
1318,1307,1319,-1
1306,1320,1309,-1
1306,1318,1320,-1
1318,1319,1320,-1
1321,1319,1308,-1
1321,1310,1322,-1
1320,1326,1315,-1
1321,1320,1319,-1
1321,1322,1326,-1
1321,1326,1320,-1
1323,1316,1312,-1
1324,1312,1313,-1
1323,1312,1324,-1
1323,1324,1327,-1
1324,1313,1328,-1
1325,1311,1314,-1
1326,1317,1315,-1
1327,1314,1316,-1
1328,1313,1317,-1
1322,1311,1325,-1
1325,1314,1327,-1
1323,1327,1316,-1
1326,1328,1317,-1
1322,1325,1326,-1
1325,1328,1326,-1
1325,1327,1328,-1
1327,1324,1328,-1
1332,1329,1331,-1
1330,1329,1332,-1
1336,1256,1333,-1
1337,1341,1334,-1
1338,1333,1335,-1
1366,1335,1342,-1
1278,1336,1338,-1
1279,1337,1334,-1
1337,1365,1341,-1
1278,1338,1337,-1
1337,1366,1365,-1
1336,1333,1338,-1
1338,1335,1366,-1
1337,1338,1366,-1
1363,1340,1339,-1
1365,1339,1341,-1
1364,1344,1340,-1
1367,1342,1343,-1
1368,1343,1344,-1
1363,1364,1340,-1
1363,1339,1365,-1
1363,1365,1364,-1
1364,1365,1366,-1
1364,1368,1344,-1
1366,1342,1367,-1
1367,1343,1368,-1
1364,1366,1368,-1
1366,1367,1368,-1
1370,1345,1346,-1
1371,1347,1345,-1
1371,1348,1347,-1
1372,1349,1348,-1
1373,1350,1349,-1
1374,1352,1350,-1
1375,1346,1351,-1
1376,1353,1352,-1
1377,1354,1353,-1
1378,1356,1354,-1
1369,1345,1370,-1
1369,1370,1374,-1
1369,1371,1345,-1
1373,1349,1372,-1
1371,1372,1348,-1
1373,1374,1350,-1
1374,1376,1352,-1
1369,1373,1371,-1
1369,1374,1373,-1
1373,1372,1371,-1
1370,1376,1374,-1
1370,1346,1375,-1
1375,1351,1379,-1
1370,1377,1376,-1
1370,1375,1377,-1
1377,1375,1378,-1
1375,1380,1378,-1
1376,1377,1353,-1
1377,1378,1354,-1
1378,1380,1356,-1
1379,1351,1355,-1
1380,1357,1356,-1
1381,1358,1357,-1
1384,1355,1360,-1
1382,1359,1358,-1
1385,1360,1361,-1
1386,1361,1362,-1
1379,1355,1384,-1
1375,1379,1380,-1
1380,1381,1357,-1
1381,1382,1358,-1
1382,1383,1359,-1
1380,1379,1381,-1
1379,1384,1381,-1
1381,1384,1382,-1
1384,1360,1385,-1
1385,1361,1386,-1
1386,1362,1470,-1
1382,1384,1385,-1
1382,1385,1383,-1
1383,1385,1386,-1
1330,1393,1329,-1
1332,1331,1394,-1
1330,1401,1393,-1
1330,1332,1401,-1
1332,1394,1402,-1
1395,1388,1387,-1
1396,1390,1388,-1
1399,1389,1391,-1
1398,1480,1390,-1
1397,1394,1389,-1
1400,1391,1392,-1
1395,1396,1388,-1
1396,1398,1390,-1
1395,1397,1396,-1
1396,1397,1398,-1
1395,1387,1401,-1
1397,1389,1399,-1
1399,1391,1400,-1
1397,1399,1398,-1
1395,1401,1397,-1
1399,1400,1398,-1
1398,1400,1507,-1
1401,1387,1393,-1
1332,1402,1401,-1
1400,1392,1517,-1
1397,1402,1394,-1
1397,1401,1402,-1
1404,1403,1405,-1
1405,1403,1407,-1
1407,1403,1406,-1
1444,1408,1409,-1
1445,1411,1410,-1
1447,1410,1412,-1
1446,1413,1411,-1
1448,1430,1413,-1
1443,1408,1444,-1
1444,1409,1450,-1
1443,1444,1450,-1
1445,1446,1411,-1
1445,1410,1447,-1
1446,1448,1413,-1
1447,1412,1459,-1
1448,1465,1430,-1
1445,1447,1446,-1
1447,1448,1446,-1
1447,1465,1448,-1
1447,1460,1465,-1
1443,1414,1408,-1
1449,1417,1414,-1
1450,1409,1415,-1
1451,1415,1416,-1
1452,1418,1417,-1
1454,1416,1419,-1
1455,1419,1420,-1
1453,1421,1418,-1
1456,1423,1421,-1
1457,1420,1422,-1
1474,1422,1439,-1
1443,1449,1414,-1
1449,1452,1417,-1
1450,1415,1451,-1
1451,1416,1454,-1
1452,1453,1418,-1
1443,1450,1449,-1
1450,1452,1449,-1
1450,1451,1452,-1
1451,1454,1453,-1
1451,1453,1452,-1
1454,1419,1455,-1
1455,1420,1457,-1
1453,1456,1421,-1
1456,1458,1423,-1
1457,1422,1474,-1
1454,1455,1456,-1
1453,1454,1456,-1
1455,1458,1456,-1
1455,1457,1458,-1
1457,1474,1458,-1
1459,1412,1424,-1
1461,1424,1426,-1
1460,1429,1425,-1
1383,1427,1359,-1
1462,1426,1427,-1
1463,1425,1428,-1
1465,1431,1430,-1
1466,1432,1431,-1
1467,1433,1432,-1
1471,1428,1436,-1
1468,1441,1433,-1
1469,1435,1434,-1
1464,1434,1429,-1
1470,1362,1435,-1
1472,1436,1437,-1
1473,1437,1438,-1
1459,1424,1461,-1
1460,1425,1463,-1
1461,1426,1462,-1
1383,1462,1427,-1
1460,1464,1429,-1
1463,1428,1471,-1
1447,1459,1460,-1
1459,1464,1460,-1
1460,1463,1465,-1
1461,1462,1469,-1
1459,1461,1464,-1
1461,1469,1464,-1
1465,1466,1431,-1
1466,1467,1432,-1
1467,1468,1433,-1
1468,1476,1441,-1
1465,1463,1466,-1
1466,1463,1471,-1
1466,1471,1467,-1
1467,1472,1468,-1
1468,1473,1476,-1
1464,1469,1434,-1
1469,1470,1435,-1
1383,1470,1462,-1
1383,1386,1470,-1
1462,1470,1469,-1
1471,1436,1472,-1
1472,1437,1473,-1
1477,1473,1438,-1
1467,1471,1472,-1
1472,1473,1468,-1
1475,1439,1440,-1
1458,1442,1423,-1
1476,1440,1441,-1
1477,1438,1442,-1
1474,1439,1475,-1
1475,1440,1476,-1
1458,1477,1442,-1
1458,1474,1477,-1
1474,1475,1477,-1
1475,1476,1477,-1
1476,1473,1477,-1
1404,1499,1403,-1
1404,1405,1526,-1
1405,1407,1527,-1
1404,1525,1499,-1
1407,1406,1504,-1
1407,1504,1532,-1
1506,1478,1479,-1
1505,1478,1506,-1
1506,1479,1509,-1
1505,1506,1509,-1
1398,1507,1480,-1
1505,1481,1478,-1
1508,1484,1481,-1
1509,1479,1482,-1
1510,1482,1483,-1
1512,1483,1485,-1
1513,1485,1486,-1
1514,1486,1487,-1
1511,1488,1484,-1
1505,1508,1481,-1
1505,1509,1508,-1
1509,1482,1510,-1
1510,1483,1512,-1
1508,1511,1484,-1
1512,1485,1513,-1
1513,1486,1514,-1
1511,1515,1488,-1
1508,1509,1510,-1
1508,1510,1511,-1
1510,1512,1511,-1
1512,1513,1511,-1
1513,1514,1515,-1
1513,1515,1511,-1
1507,1489,1480,-1
1517,1392,1490,-1
1516,1491,1489,-1
1520,1490,1493,-1
1518,1492,1491,-1
1519,1495,1492,-1
1521,1493,1494,-1
1525,1494,1498,-1
1522,1496,1495,-1
1523,1497,1496,-1
1525,1498,1499,-1
1404,1526,1525,-1
1405,1527,1526,-1
1407,1532,1527,-1
1507,1516,1489,-1
1517,1490,1520,-1
1516,1518,1491,-1
1518,1519,1492,-1
1400,1517,1507,-1
1507,1517,1516,-1
1516,1517,1520,-1
1516,1520,1518,-1
1519,1522,1495,-1
1520,1493,1521,-1
1521,1494,1525,-1
1518,1520,1521,-1
1518,1521,1519,-1
1519,1521,1525,-1
1522,1523,1496,-1
1523,1524,1497,-1
1519,1525,1522,-1
1522,1526,1523,-1
1523,1532,1524,-1
1522,1525,1526,-1
1526,1527,1523,-1
1523,1527,1532,-1
1528,1487,1500,-1
1515,1502,1488,-1
1529,1500,1501,-1
1524,1501,1497,-1
1530,1503,1502,-1
1531,1504,1503,-1
1514,1487,1528,-1
1528,1500,1529,-1
1529,1501,1524,-1
1515,1530,1502,-1
1514,1528,1515,-1
1515,1528,1530,-1
1528,1529,1530,-1
1530,1531,1503,-1
1531,1532,1504,-1
1529,1524,1531,-1
1529,1531,1530,-1
1524,1532,1531,-1
]

colorPerVertex FALSE

color Color { color [
 0 0 0,
 1 1 1,
 0.976471 0.843137 0.172549, # default colour
] }

colorIndex [
0 0 0 0 0 0 0 0 0 0 0 0 0 0 0 0 0 0 0 0 0 0 0 0 0 0 0 0 0 0 0 0 0 0 0 0 0 0 0 0 0 0 0 0 0 0 0 0 0 0 0 0 0 0 0 0 0 0 0 0 0 0 0 0 0 0 0 0 0 0 0 0 0 0 0 0 0 0 0 0 0 0 0 0 0 0 0 0 0 0 0 0 0 0 0 0 0 0 0 0 0 0 0 0 0 0 0 0 0 0 0 0 0 0 0 0 0 0 0 0 0 0 0 0 0 0 0 0 0 0 0 0 0 0 0 0 0 0 0 0 0 0 0 0 0 0 0 0 0 0 0 0 0 0 0 0 0 0 0 0 0 0 0 0 0 0 0 0 0 0 0 0 0 0 0 0 0 0 0 0 0 0 0 0 0 0 0 0 0 0 0 0 0 0 0 0 0 0 0 0 0 0 0 0 0 0 0 0 0 0 0 0 0 0 0 0 0 0 0 0 0 0 0 0 0 0 0 0 0 0 0 0 0 0 0 0 0 0 0 0 0 0 0 0 0 0 0 0 0 0 0 0 0 0 0 0 0 0 0 0 0 0 0 0 0 0 0 0 0 0 0 0 0 0 0 0 0 0 0 0 0 0 0 0 0 0 0 0 0 0 0 0 0 0 0 0 0 0 0 0 0 0 0 0 0 0 0 0 0 0 0 0 0 0 0 0 0 0 0 0 0 0 0 0 0 0 0 0 0 0 0 0 0 0 0 0 0 0 0 0 0 0 0 0 0 0 0 0 0 0 0 0 0 0 0 0 0 0 0 0 0 0 0 0 0 0 0 0 0 0 0 0 0 0 0 0 0 0 0 0 0 0 0 0 0 0 0 0 0 0 0 0 0 0 0 0 0 0 0 0 0 0 0 0 0 0 0 0 0 0 0 0 0 0 0 0 0 0 0 0 0 0 0 0 0 0 0 0 0 0 0 0 0 0 0 0 0 0 0 0 0 0 0 0 0 0 0 0 0 0 0 0 0 0 0 0 0 0 0 0 0 0 0 0 0 0 0 0 0 0 0 0 0 0 0 0 0 0 0 0 0 0 0 0 0 0 0 0 0 0 0 0 0 0 0 0 0 0 0 0 0 0 0 0 0 0 0 0 0 0 0 0 0 0 0 0 0 0 0 0 0 0 0 0 0 0 0 0 0 0 0 0 0 0 0 0 0 0 0 0 0 0 0 0 0 0 0 0 0 0 0 0 0 0 0 0 0 0 0 0 0 0 0 0 0 0 0 0 0 0 0 0 0 0 0 0 0 0 0 0 0 0 0 0 0 0 0 0 0 0 0 0 0 0 0 0 0 0 0 0 0 0 0 0 0 0 0 0 0 0 0 0 0 0 0 0 0 0 0 0 0 0 0 0 0 0 0 0 0 0 0 0 0 0 0 0 0 0 0 0 0 0 0 0 0 0 0 0 0 0 0 0 0 0 0 0 0 0 0 0 0 0 0 0 0 0 0 0 0 0 0 0 0 0 0 0 0 0 0 0 0 0 0 0 0 0 0 0 0 0 0 0 0 0 0 0 0 0 0 0 0 0 0 0 0 0 0 0 0 0 0 0 0 0 0 0 0 0 0 0 0 0 0 0 0 0 0 0 0 0 0 0 0 0 0 0 0 0 0 0 0 0 0 0 0 0 0 0 0 0 0 0 0 0 0 0 0 0 0 0 0 0 0 0 0 0 0 0 0 0 0 0 0 0 0 0 0 0 0 0 0 0 0 0 0 0 0 0 0 0 0 0 0 0 0 0 0 0 0 0 0 0 0 0 0 0 0 0 0 0 0 0 0 0 0 0 0 0 1 1 1 1 1 1 1 1 1 1 1 1 1 1 1 1 1 1 1 1 1 1 1 1 1 1 1 1 1 1 1 1 1 1 1 1 1 1 1 1 1 1 1 1 1 1 1 1 1 1 1 1 1 1 1 1 1 1 1 1 1 1 1 1 1 1 1 1 1 1 1 1 1 1 1 1 1 1 1 1 1 1 1 1 1 1 1 1 1 1 1 1 1 1 1 1 1 1 1 1 1 1 1 1 1 1 1 1 1 1 1 1 1 1 1 1 1 1 1 1 1 1 1 1 1 1 1 1 1 1 1 1 1 1 1 1 1 1 1 1 1 1 1 1 1 1 1 1 1 1 1 1 1 1 1 1 1 1 1 1 1 1 1 1 1 1 1 1 1 1 1 1 1 1 1 1 1 1 1 1 1 1 1 1 1 1 1 1 1 1 1 1 1 1 1 1 1 1 1 1 1 1 1 1 1 1 1 1 1 1 1 1 1 1 1 1 1 1 1 1 1 1 1 1 1 1 1 1 1 1 1 1 1 1 1 1 1 1 1 1 1 1 1 1 1 1 1 1 1 1 1 1 1 1 1 1 1 1 1 1 1 1 1 1 1 1 1 1 1 1 1 1 1 1 1 1 1 1 1 1 1 1 1 1 1 1 1 1 1 1 1 1 1 1 1 1 1 1 1 1 1 1 1 1 1 1 1 1 1 1 1 1 1 1 1 1 1 1 1 1 1 1 1 1 1 1 1 1 1 1 1 1 1 1 1 1 1 1 1 1 1 1 1 1 1 1 1 1 1 1 1 1 1 1 1 1 1 1 1 1 1 1 1 1 1 1 1 1 1 1 1 1 1 1 1 1 1 1 1 1 1 1 1 1 1 1 1 1 1 1 1 1 1 1 1 1 1 1 1 1 1 1 1 1 1 1 1 1 1 1 1 1 1 1 1 1 1 1 1 1 1 1 1 1 1 1 1 1 1 1 1 1 1 1 1 1 1 1 1 1 1 1 1 1 1 1 1 1 1 1 1 1 1 1 1 1 1 1 1 1 1 1 1 1 1 1 1 1 1 1 1 1 1 1 1 1 1 1 1 1 1 1 1 1 1 1 1 1 1 1 1 1 1 1 1 1 1 1 1 1 1 1 1 1 1 1 1 1 1 1 1 1 1 1 1 1 1 1 1 1 1 1 1 1 1 1 1 1 1 1 1 1 1 1 1 1 1 1 1 1 1 1 1 1 1 1 1 1 1 1 1 1 1 1 1 1 1 1 1 1 1 1 1 1 1 1 1 1 1 1 1 1 1 1 1 1 1 1 1 1 1 1 1 1 1 1 1 1 1 1 1 1 1 1 1 1 1 1 1 1 1 1 1 1 1 1 1 1 1 1 1 1 1 1 1 1 1 1 1 1 1 1 1 1 1 1 1 1 1 1 1 1 1 1 1 1 1 1 1 1 1 1 1 1 1 1 1 1 1 1 1 1 1 1 1 1 1 1 1 1 1 1 1 1 1 1 1 1 1 1 1 1 1 1 1 1 1 1 1 1 1 1 1 1 1 1 1 1 1 1 1 1 1 1 1 1 1 1 1 1 1 1 1 1 1 1 1 1 1 1 1 1 1 1 1 1 1 1 1 1 1 1 1 1 1 1 1 1 1 1 1 1 1 1 1 1 1 1 1 1 1 1 1 1 1 1 1 1 1 1 1 1 1 1 1 1 1 1 1 1 1 1 1 1 1 1 1 1 1 1 1 1 1 1 1 1 1 1 1 1 1 1 1 1 1 1 1 1 1 1 1 1 1 1 1 1 1 1 1 1 1 1 1 1 1 1 1 1 1 1 1 1 1 1 1 1 1 1 1 1 1 1 1 1 1 1 1 1 1 1 1 1 1 1 1 1 1 1 1 1 1 1 1 1 1 1 1 1 1 1 1 1 1 1 1 1 1 1 1 1 1 1 1 1 1 1 1 1 1 1 1 1 1 1 1 1 1 1 1 1 1 1 1 1 1 1 1 1 1 1 1 1 1 1 1 1 1 1 1 1 1 1 1 1 1 1 1 1 1 1 1 1 1 1 1 1 1 1 1 1 1 1 1 1 1 1 1 1 1 1 1 1 1 1 1 1 1 1 1 1 1 1 1 1 1 1 1 1 1 1 1 1 1 1 1 1 1 1 1 1 1 1 1 1 1 1 1 1 1 1 1 1 1 1 1 1 1 1 1 1 1 1 1 1 1 1 1 1 1 1 1 1 1 1 1 1 1 1 1 1 1 1 1 1 1 1 1 1 1 1 1 1 1 1 1 1 1 1 1 1 1 1 1 1 1 1 1 1 1 1 1 1 1 1 1 1 1 1 1 1 1 1 1 1 1 1 1 1 1 1 1 1 1 1 1 1 1 1 1 1 1 1 1 1 1 1 1 1 1 1 1 1 1 1 1 1 1 1 1 1 1 1 1 1 1 1 1 1 1 1 1 1 1 1 1 1 1 1 1 1 1 1 1 1 1 1 1 1 1 1 1 1 1 1 1 1 1 1 1 1 1 1 1 1 1 1 1 1 1 1 1 1 1 1 1 1 1 1 1 1 1 1 1 1 1 1 1 1 1 1 1 1 1 1 1 1 1 1 1 1 1 1 1 1 1 1 1 1 1 1 1 1 1 1 1 1 1 1 1 1 1 1 1 1 1 1 1 1 1 1 1 1 1 1 1 1 1 1 1 1 1 1 1 1 1 1 1 1 1 1 1 1 1 1 1 1 1 1 1 1 1 1 1 1 1 1 1 1 1 1 1 1 1 1 1 1 1 1 1 1 1 1 1 1 1 1 1 1 1 1 1 1 1 1 1 1 1 1 1 1 1 1 1 1 1 1 1 1 1 1 1 1 1 1 1 1 1 1 1 1 1 1 1 1 1 1 1 1 1 1 1 1 1 1 1 1 1 1 1 1 1 1 1 1 1 1 1 1 1 1 1 1 1 1 1 1 1 1 1 1 1 1 1 1 1 1 1 1 1 1 1 1 1 1 1 1 1 1 1 1 1 1 1 1 1 1 1 1 1 1 1 1 1 1 1 1 1 1 1 1 1 1 1 1 1 1 1 1 1 1 1 1 1 1 1 1 1 1 1 1 1 1 1 1 1 1 1 1 1 1 1 1 1 1 1 1 1 1 1 1 1 1 1 1 1 1 1 1 1 1 1 1 1 1 1 1 1 1 1 1 1 1 1 1 1 1 1 1 1 1 1 1 1 1 1 1 1 1 1 1 1 1 1 1 1 1 1 1 1 1 1 1 1 1 1 1 1 1 1 1 1 1 1 1 1 1 1 1 1 1 1 1 1 1 1 1 1 1 1 1 1 1 1 1 1 1 1 1 1 1 1 1 1 1 1 1 1 1 1 1 1 1 1 1 1 1 1 1 1 1 1 1 1 1 1 1 1 1 1 1 1 1 1 1 1 1 1 1 1 1 1 1 1 1 1 1 1 1 1 1 1 1 1 1 1 1 1 1 1 1 1 1 1 1 1 1 1 1 1 1 1 1 1 1 1 1 1 1 1 1 1 1 1 1 1 1 1 1 1 1 1 1 1 1 1 1 1 1 1 1 1 1 1 1 1 1 1 1 1 1 1 1 1 1 1 1 1 1 1 1 1 1 1 1 1 1 1 1 1 1 1 1 1 1 1 1 1 1 1 1 1 1 1 1 1 1 1 1 1 1 1 1 1 1 1 1 1 1 1 1 1 1 1 1 1 1 1 1 1 1 1 1 1 1 1 1 1 1 1 1 1 1 1 1 1 1 1 1 1 1 1 1 1 1 1 1 1 1 1 1 1 1 1 1 1 1 1 1 1 1 1 1 1 1 1 1 1 1 1 1 1 1 1 1 1 1 1 1 1 1 1 1 1 1 1 1 1 1 1 1 1 1 1 1 1 1 1 1 1 1 1 1 1 1 1 1 1 1 1 1 1 1 1 1 1 1 1 1 1 1 1 1 1 1 1 1 1 1 1 1 1 1 1 1 1 1 1 1 1 1 1 1 1 1 1 1 1 1 1 1 1 1 1 1 1 1 1 1 1 1 1 1 1 1 1 1 1 1 1 1 1 1 1 1 1 1 1 1 1 1 1 1 1 1 1 1 1 1 1 1 1 1 1 1 1 1 1 1 1 1 1 1 1 1 1 1 1 1 1 1 1 1 1 1 1 1 1 1 1 1 1 1 1 1 1 1 1 1 1 1 1 1 1 1 1 1 1 1 1 1 1 1 1 1 1 1 1 1 1 1 1 1 1 1 1 1 1 1 1 1 1 1 1 1 1 1 1 1 1 1 1 1 1 1 1 1 1 1 1 1 1 1 1 1 1 1 1 1 1 1 1 1 1 1 1 1 1 1 1 1 1 1 1 1 1 1 1 1 1 1 1 1 1 1 1 1 1 1 1 1 1 1 1 1 1 1 1 1 1 1 1 1 1 1 1 1 1 1 1 1 1 1 1 1 1 1 1 1 1 1 1 1 1 1 1 1 1 1 1 1 1 1 1 1 1 1 1 1 1 1 1 1 1 1 1 1 1 1 1 1 1 1 1 1 1 1 1 1 1 1 1 1 1 1 1 1 1 1 1 1 1 1 1 1 1 1 1 1 1 1 1 1 1 1 1 1 1 1 1 1 1 1 1 1 1 1 1 1 1 1 1 1 1 1 1 1 1 1 1 1 1 1 1 1 1 1 1 1 1 1 1 1 1 1 1 1 1 1 1 1 1 1 1 1 1 1 1 1 1 1 1 1 1 1 1 1 1 1 1 1 1 1 1 1 1 1 1 1 1 1 1 1 1 1 1 1 1 1 1 1 1 1 1 1 1 1 1 1 1 1 1 1 1 1 1 1 1 1 1 1 1 1 1 1 1 1 1 1 1 1 1 1 1 1 1 1 1 1 1 1 1 1 1 1 1 1 1 1 1 1 1 1 1 1 1 1 1 1 1 1 1 1 1 1 1 1 1 1 1 1 1 1 1 1 1 1 1 1 1 1 1 1 1 1 1 1 1 1 1 1 1 1 1 1 1 1 1 1 1 1 1 1 1 1 1 1 ]

}

}
