#VRML V2.0 utf8

Shape {

appearance Appearance { material Material {
ambientIntensity 0.3
diffuseColor 0.97647 0.843137 0.172549
specularColor 0.2 0.2 0.2
shininess 0.3
} }

geometry IndexedFaceSet {

creaseAngle 0.5

coord Coordinate { point [
0 0 0,
0 0 0.4,
1.54929 0.718358 0.4,
1.54929 0.727343 0.4,
1.61863 0.5 0.4,
1.61863 0.508985 0.4,
1.65474 0.513563 0.4,
1.68746 0.513563 0.4,
1.65474 0.588495 0.4,
1.68746 0.589512 0.4,
1.68017 0.609008 0.4,
1.72357 0.5 0.4,
1.72357 0.508985 0.4,
1.86938 0.5 0.4,
1.86938 0.508985 0.4,
1.57489 0.713947 0.4,
1.6149 0.713947 0.4,
1.64542 0.718358 0.4,
1.64542 0.727343 0.4,
1.7134 0.718358 0.4,
1.7134 0.727343 0.4,
1.74222 0.713947 0.4,
1.76239 0.713947 0.4,
1.78731 0.718358 0.4,
1.78731 0.727343 0.4,
1.80005 0.718358 0.4,
1.80005 0.727343 0.4,
1.82564 0.713947 0.4,
1.86565 0.713947 0.4,
1.90549 0.513563 0.4,
1.93821 0.513563 0.4,
1.97432 0.5 0.4,
1.97432 0.508985 0.4,
1.90549 0.588495 0.4,
1.93821 0.589512 0.4,
1.93092 0.609008 0.4,
2.14234 0.494745 0.4,
2.15133 0.494745 0.4,
2.15472 0.553742 0.4,
1.89617 0.718358 0.4,
1.89617 0.727343 0.4,
1.96415 0.718358 0.4,
1.96415 0.727343 0.4,
1.99297 0.713947 0.4,
2.01315 0.713947 0.4,
2.03807 0.718358 0.4,
2.04724 0.718358 0.4,
2.03807 0.727343 0.4,
2.04724 0.727343 0.4,
2.06707 0.713947 0.4,
2.10064 0.713947 0.4,
2.13404 0.718358 0.4,
2.13404 0.727343 0.4,
2.27085 0.494745 0.4,
2.27983 0.494745 0.4,
2.21185 0.651392 0.4,
2.28255 0.553742 0.4,
2.47007 0.494745 0.4,
2.47906 0.494745 0.4,
2.48245 0.553742 0.4,
2.21592 0.711405 0.4,
2.22355 0.711405 0.4,
2.29865 0.718358 0.4,
2.29865 0.727343 0.4,
2.33408 0.713947 0.4,
2.35409 0.713947 0.4,
2.37392 0.718358 0.4,
2.37496 0.718358 0.4,
2.37392 0.727343 0.4,
2.37496 0.727343 0.4,
2.3948 0.713947 0.4,
2.42837 0.713947 0.4,
2.46176 0.718358 0.4,
2.46176 0.727343 0.4,
1.54929 0.718358 0.6,
1.54929 0.727343 0.6,
1.61863 0.5 0.6,
1.61863 0.508985 0.6,
1.65474 0.513563 0.6,
1.68746 0.513563 0.6,
1.65474 0.588495 0.6,
1.68746 0.589512 0.6,
1.68017 0.609008 0.6,
1.72357 0.5 0.6,
1.72357 0.508985 0.6,
1.86938 0.5 0.6,
1.86938 0.508985 0.6,
1.57489 0.713947 0.6,
1.6149 0.713947 0.6,
1.64542 0.718358 0.6,
1.64542 0.727343 0.6,
1.7134 0.718358 0.6,
1.7134 0.727343 0.6,
1.74222 0.713947 0.6,
1.76239 0.713947 0.6,
1.78731 0.718358 0.6,
1.78731 0.727343 0.6,
1.80005 0.718358 0.6,
1.80005 0.727343 0.6,
1.82564 0.713947 0.6,
1.86565 0.713947 0.6,
1.90549 0.513563 0.6,
1.93821 0.513563 0.6,
1.97432 0.5 0.6,
1.97432 0.508985 0.6,
1.90549 0.588495 0.6,
1.93821 0.589512 0.6,
1.93092 0.609008 0.6,
2.14234 0.494745 0.6,
2.15133 0.494745 0.6,
2.15472 0.553742 0.6,
1.89617 0.718358 0.6,
1.89617 0.727343 0.6,
1.96415 0.718358 0.6,
1.96415 0.727343 0.6,
1.99297 0.713947 0.6,
2.01315 0.713947 0.6,
2.03807 0.718358 0.6,
2.04724 0.718358 0.6,
2.03807 0.727343 0.6,
2.04724 0.727343 0.6,
2.06707 0.713947 0.6,
2.10064 0.713947 0.6,
2.13404 0.718358 0.6,
2.13404 0.727343 0.6,
2.27085 0.494745 0.6,
2.27983 0.494745 0.6,
2.21185 0.651392 0.6,
2.28255 0.553742 0.6,
2.47007 0.494745 0.6,
2.47906 0.494745 0.6,
2.48245 0.553742 0.6,
2.21592 0.711405 0.6,
2.22355 0.711405 0.6,
2.29865 0.718358 0.6,
2.29865 0.727343 0.6,
2.33408 0.713947 0.6,
2.35409 0.713947 0.6,
2.37392 0.718358 0.6,
2.37496 0.718358 0.6,
2.37392 0.727343 0.6,
2.37496 0.727343 0.6,
2.3948 0.713947 0.6,
2.42837 0.713947 0.6,
2.46176 0.718358 0.6,
2.46176 0.727343 0.6,
1.86964 1.5267 0.4,
1.8465 1.56283 0.4,
1.83879 1.61104 0.4,
1.87422 1.61138 0.4,
1.8462 1.66256 0.4,
1.86845 1.69979 0.4,
2.10785 1 0.4,
2.10785 1.00898 0.4,
2.13362 1.01356 0.4,
2.18261 1 0.4,
2.18261 1.00898 0.4,
2.15209 1.01356 0.4,
2.17498 1.07917 0.4,
2.18007 1.09443 0.4,
2.25653 1 0.4,
2.25653 1.00898 0.4,
2.2645 1.07917 0.4,
2.28704 1.01356 0.4,
2.32383 1.01356 0.4,
2.35265 1 0.4,
2.35265 1.00898 0.4,
2.36742 1 0.4,
2.36742 1.00898 0.4,
2.39437 1.01356 0.4,
2.42709 1.01356 0.4,
2.46151 1 0.4,
2.46151 1.00898 0.4,
2.25924 1.09443 0.4,
2.21906 1.2048 0.4,
2.21109 1.22921 0.4,
2.2433 1.22921 0.4,
2.42709 1.09968 0.4,
2.42709 1.11494 0.4,
2.4571 1.11494 0.4,
2.46795 1.09968 0.4,
2.48306 1.11776 0.4,
2.36521 1.21836 0.4,
2.36521 1.22734 0.4,
2.39437 1.21395 0.4,
2.42709 1.21208 0.4,
2.45608 1.21208 0.4,
2.46337 1.22734 0.4,
2.48301 1.20935 0.4,
1.9066 1.50413 0.4,
1.92086 1.51619 0.4,
1.95576 1.49661 0.4,
1.9561 1.50966 0.4,
1.97488 1.51083 0.4,
1.99725 1.49928 0.4,
1.99255 1.51433 0.4,
2.00789 1.51977 0.4,
2.01968 1.52679 0.4,
2.06835 1.5 0.4,
2.03595 1.50729 0.4,
2.06835 1.50898 0.4,
2.0953 1.51356 0.4,
2.12802 1.51356 0.4,
2.16413 1.5 0.4,
2.16413 1.50898 0.4,
1.89515 1.53577 0.4,
1.87945 1.56773 0.4,
2.02595 1.56069 0.4,
1.87922 1.65809 0.4,
1.89422 1.69072 0.4,
1.90528 1.72236 0.4,
1.92012 1.70992 0.4,
2.02239 1.67157 0.4,
1.9578 1.71632 0.4,
1.97392 1.71533 0.4,
1.98975 1.71234 0.4,
1.95644 1.72988 0.4,
2.00448 1.70753 0.4,
2.0173 1.70106 0.4,
1.99319 1.72772 0.4,
2.03697 1.56069 0.4,
2.12802 1.58917 0.4,
2.12802 1.60443 0.4,
2.14565 1.60443 0.4,
2.15362 1.58917 0.4,
2.17055 1.6077 0.4,
2.03358 1.67157 0.4,
2.03256 1.72124 0.4,
2.06614 1.71836 0.4,
2.06614 1.72734 0.4,
2.0953 1.71395 0.4,
2.12802 1.71208 0.4,
2.14463 1.71208 0.4,
2.17104 1.70907 0.4,
2.15192 1.72734 0.4,
2.25925 1.5 0.4,
2.25925 1.50898 0.4,
2.28841 1.51356 0.4,
2.33672 1.5 0.4,
2.30621 1.51356 0.4,
2.33672 1.50898 0.4,
2.44641 1.5 0.4,
2.46286 1.5 0.4,
2.18852 1.59371 0.4,
2.21423 1.60731 0.4,
2.18795 1.61749 0.4,
2.19819 1.63465 0.4,
2.23006 1.62965 0.4,
2.2016 1.66004 0.4,
2.19833 1.68403 0.4,
2.23533 1.66038 0.4,
2.18854 1.70004 0.4,
2.21448 1.7106 0.4,
2.25925 1.71836 0.4,
2.25925 1.72734 0.4,
2.28841 1.71395 0.4,
2.30621 1.70446 0.4,
2.32808 1.72734 0.4,
2.44506 1.559 0.4,
2.41454 1.71836 0.4,
2.41454 1.72734 0.4,
2.44506 1.71395 0.4,
2.46286 1.71395 0.4,
2.49202 1.71836 0.4,
2.49202 1.72734 0.4,
1.86964 1.5267 0.6,
1.8465 1.56283 0.6,
1.83879 1.61104 0.6,
1.87422 1.61138 0.6,
1.8462 1.66256 0.6,
1.86845 1.69979 0.6,
2.10785 1 0.6,
2.10785 1.00898 0.6,
2.13362 1.01356 0.6,
2.18261 1 0.6,
2.18261 1.00898 0.6,
2.15209 1.01356 0.6,
2.17498 1.07917 0.6,
2.18007 1.09443 0.6,
2.25653 1 0.6,
2.25653 1.00898 0.6,
2.2645 1.07917 0.6,
2.28704 1.01356 0.6,
2.32383 1.01356 0.6,
2.35265 1 0.6,
2.35265 1.00898 0.6,
2.36742 1 0.6,
2.36742 1.00898 0.6,
2.39437 1.01356 0.6,
2.42709 1.01356 0.6,
2.46151 1 0.6,
2.46151 1.00898 0.6,
2.25924 1.09443 0.6,
2.21906 1.2048 0.6,
2.21109 1.22921 0.6,
2.2433 1.22921 0.6,
2.42709 1.09968 0.6,
2.42709 1.11494 0.6,
2.4571 1.11494 0.6,
2.46795 1.09968 0.6,
2.48306 1.11776 0.6,
2.36521 1.21836 0.6,
2.36521 1.22734 0.6,
2.39437 1.21395 0.6,
2.42709 1.21208 0.6,
2.45608 1.21208 0.6,
2.46337 1.22734 0.6,
2.48301 1.20935 0.6,
1.9066 1.50413 0.6,
1.92086 1.51619 0.6,
1.95576 1.49661 0.6,
1.9561 1.50966 0.6,
1.97488 1.51083 0.6,
1.99725 1.49928 0.6,
1.99255 1.51433 0.6,
2.00789 1.51977 0.6,
2.01968 1.52679 0.6,
2.06835 1.5 0.6,
2.03595 1.50729 0.6,
2.06835 1.50898 0.6,
2.0953 1.51356 0.6,
2.12802 1.51356 0.6,
2.16413 1.5 0.6,
2.16413 1.50898 0.6,
1.89515 1.53577 0.6,
1.87945 1.56773 0.6,
2.02595 1.56069 0.6,
1.87922 1.65809 0.6,
1.89422 1.69072 0.6,
1.90528 1.72236 0.6,
1.92012 1.70992 0.6,
2.02239 1.67157 0.6,
1.9578 1.71632 0.6,
1.97392 1.71533 0.6,
1.98975 1.71234 0.6,
1.95644 1.72988 0.6,
2.00448 1.70753 0.6,
2.0173 1.70106 0.6,
1.99319 1.72772 0.6,
2.03697 1.56069 0.6,
2.12802 1.58917 0.6,
2.12802 1.60443 0.6,
2.14565 1.60443 0.6,
2.15362 1.58917 0.6,
2.17055 1.6077 0.6,
2.03358 1.67157 0.6,
2.03256 1.72124 0.6,
2.06614 1.71836 0.6,
2.06614 1.72734 0.6,
2.0953 1.71395 0.6,
2.12802 1.71208 0.6,
2.14463 1.71208 0.6,
2.17104 1.70907 0.6,
2.15192 1.72734 0.6,
2.25925 1.5 0.6,
2.25925 1.50898 0.6,
2.28841 1.51356 0.6,
2.33672 1.5 0.6,
2.30621 1.51356 0.6,
2.33672 1.50898 0.6,
2.44641 1.5 0.6,
2.46286 1.5 0.6,
2.18852 1.59371 0.6,
2.21423 1.60731 0.6,
2.18795 1.61749 0.6,
2.19819 1.63465 0.6,
2.23006 1.62965 0.6,
2.2016 1.66004 0.6,
2.19833 1.68403 0.6,
2.23533 1.66038 0.6,
2.18854 1.70004 0.6,
2.21448 1.7106 0.6,
2.25925 1.71836 0.6,
2.25925 1.72734 0.6,
2.28841 1.71395 0.6,
2.30621 1.70446 0.6,
2.32808 1.72734 0.6,
2.44506 1.559 0.6,
2.41454 1.71836 0.6,
2.41454 1.72734 0.6,
2.44506 1.71395 0.6,
2.46286 1.71395 0.6,
2.49202 1.71836 0.6,
2.49202 1.72734 0.6,
0 3.5 0,
0.5463 3.01016 0.4,
0.602796 2.97093 0.4,
0 3.5 0.4,
0.508709 3.06721 0.4,
0.496179 3.13369 0.4,
0.508891 3.20198 0.4,
0.547029 3.25864 0.4,
0.603707 3.2968 0.4,
0.672 2.95785 0.4,
0.741198 2.97093 0.4,
0.797679 3.01016 0.4,
0.835286 3.06721 0.4,
0.847821 3.13369 0.4,
0.835104 3.20198 0.4,
0.79695 3.25864 0.4,
0.672 3.30951 0.4,
0.740287 3.2968 0.4,
0.5463 3.01016 0.6,
0.602796 2.97093 0.6,
0.508709 3.06721 0.6,
0.496179 3.13369 0.6,
0.508891 3.20198 0.6,
0.547029 3.25864 0.6,
0.603707 3.2968 0.6,
0.672 2.95785 0.6,
0.741198 2.97093 0.6,
0.797679 3.01016 0.6,
0.835286 3.06721 0.6,
0.847821 3.13369 0.6,
0.835104 3.20198 0.6,
0.79695 3.25864 0.6,
0.672 3.30951 0.6,
0.740287 3.2968 0.6,
1.86964 2.0267 0.4,
1.8465 2.06283 0.4,
1.83879 2.11104 0.4,
1.87422 2.11138 0.4,
1.8462 2.16256 0.4,
1.36322 2.5 0.4,
1.36322 2.51617 0.4,
1.50267 2.5 0.4,
1.4157 2.52441 0.4,
1.44774 2.52441 0.4,
1.50267 2.51617 0.4,
1.86845 2.19979 0.4,
1.59758 2.5 0.4,
1.60826 2.5 0.4,
1.71659 2.5 0.4,
1.62016 2.59796 0.4,
1.71659 2.51617 0.4,
1.77152 2.52441 0.4,
1.83011 2.52441 0.4,
1.9066 2.00413 0.4,
1.92086 2.01619 0.4,
1.89515 2.03577 0.4,
1.87945 2.06773 0.4,
1.95576 1.99661 0.4,
1.9561 2.00966 0.4,
1.97488 2.01083 0.4,
1.99725 1.99928 0.4,
1.99255 2.01433 0.4,
2.00789 2.01977 0.4,
2.01968 2.02679 0.4,
2.02595 2.06069 0.4,
1.87922 2.15809 0.4,
2.02239 2.17157 0.4,
2.03595 2.00729 0.4,
2.06835 2 0.4,
2.06835 2.00898 0.4,
2.0953 2.01356 0.4,
2.03697 2.06069 0.4,
2.12802 2.01356 0.4,
2.16413 2 0.4,
2.16413 2.00898 0.4,
2.0953 2.08036 0.4,
2.03358 2.17157 0.4,
2.12802 2.08917 0.4,
2.12802 2.10443 0.4,
2.14565 2.10443 0.4,
2.15362 2.08917 0.4,
2.17055 2.1077 0.4,
2.25925 2 0.4,
2.25925 2.00898 0.4,
2.28841 2.01356 0.4,
2.30621 2.01356 0.4,
2.33672 2 0.4,
2.33672 2.00898 0.4,
2.18852 2.09371 0.4,
2.18795 2.11749 0.4,
2.21423 2.10731 0.4,
2.23006 2.12965 0.4,
2.19819 2.13465 0.4,
2.2016 2.16004 0.4,
2.19833 2.18403 0.4,
2.23533 2.16038 0.4,
2.44641 2 0.4,
2.46286 2 0.4,
2.44506 2.059 0.4,
1.89422 2.19072 0.4,
1.90528 2.22236 0.4,
1.92012 2.20992 0.4,
1.98975 2.21234 0.4,
1.9578 2.21632 0.4,
1.95644 2.22988 0.4,
1.97392 2.21533 0.4,
2.00448 2.20753 0.4,
2.0173 2.20106 0.4,
1.99319 2.22772 0.4,
2.03256 2.22124 0.4,
2.06614 2.21836 0.4,
2.06614 2.22734 0.4,
2.0953 2.21395 0.4,
2.12802 2.21208 0.4,
2.14463 2.21208 0.4,
2.17104 2.20907 0.4,
2.15192 2.22734 0.4,
1.88259 2.5 0.4,
1.88259 2.51617 0.4,
2.07916 2.5 0.4,
2.07916 2.51617 0.4,
2.12768 2.52441 0.4,
2.18658 2.52441 0.4,
2.18854 2.20004 0.4,
2.21448 2.2106 0.4,
2.25925 2.21836 0.4,
2.25925 2.22734 0.4,
2.28841 2.21395 0.4,
2.30621 2.20446 0.4,
2.32808 2.22734 0.4,
2.41454 2.21836 0.4,
2.41454 2.22734 0.4,
2.44506 2.21395 0.4,
2.46286 2.21395 0.4,
2.49202 2.21836 0.4,
2.49202 2.22734 0.4,
2.25158 2.5 0.4,
2.25158 2.51617 0.4,
2.42736 2.5 0.4,
2.42736 2.51617 0.4,
2.47985 2.52441 0.4,
1.86964 2.0267 0.6,
1.8465 2.06283 0.6,
1.83879 2.11104 0.6,
1.87422 2.11138 0.6,
1.8462 2.16256 0.6,
1.36322 2.5 0.6,
1.36322 2.51617 0.6,
1.50267 2.5 0.6,
1.4157 2.52441 0.6,
1.44774 2.52441 0.6,
1.50267 2.51617 0.6,
1.86845 2.19979 0.6,
1.59758 2.5 0.6,
1.60826 2.5 0.6,
1.71659 2.5 0.6,
1.62016 2.59796 0.6,
1.71659 2.51617 0.6,
1.77152 2.52441 0.6,
1.83011 2.52441 0.6,
1.9066 2.00413 0.6,
1.92086 2.01619 0.6,
1.89515 2.03577 0.6,
1.87945 2.06773 0.6,
1.95576 1.99661 0.6,
1.9561 2.00966 0.6,
1.97488 2.01083 0.6,
1.99725 1.99928 0.6,
1.99255 2.01433 0.6,
2.00789 2.01977 0.6,
2.01968 2.02679 0.6,
2.02595 2.06069 0.6,
1.87922 2.15809 0.6,
2.02239 2.17157 0.6,
2.03595 2.00729 0.6,
2.06835 2 0.6,
2.06835 2.00898 0.6,
2.0953 2.01356 0.6,
2.03697 2.06069 0.6,
2.12802 2.01356 0.6,
2.16413 2 0.6,
2.16413 2.00898 0.6,
2.03358 2.17157 0.6,
2.12802 2.08917 0.6,
2.12802 2.10443 0.6,
2.14565 2.10443 0.6,
2.15362 2.08917 0.6,
2.17055 2.1077 0.6,
2.25925 2 0.6,
2.25925 2.00898 0.6,
2.28841 2.01356 0.6,
2.30621 2.01356 0.6,
2.33672 2 0.6,
2.33672 2.00898 0.6,
2.18852 2.09371 0.6,
2.18795 2.11749 0.6,
2.21423 2.10731 0.6,
2.23006 2.12965 0.6,
2.19819 2.13465 0.6,
2.2016 2.16004 0.6,
2.19833 2.18403 0.6,
2.23533 2.16038 0.6,
2.44641 2 0.6,
2.46286 2 0.6,
2.44506 2.059 0.6,
1.89422 2.19072 0.6,
1.90528 2.22236 0.6,
1.92012 2.20992 0.6,
1.98975 2.21234 0.6,
1.9578 2.21632 0.6,
1.95644 2.22988 0.6,
1.97392 2.21533 0.6,
2.00448 2.20753 0.6,
2.0173 2.20106 0.6,
1.99319 2.22772 0.6,
2.03256 2.22124 0.6,
2.06614 2.21836 0.6,
2.06614 2.22734 0.6,
2.0953 2.21395 0.6,
2.12802 2.21208 0.6,
2.14463 2.21208 0.6,
2.17104 2.20907 0.6,
2.15192 2.22734 0.6,
1.88259 2.5 0.6,
1.88259 2.51617 0.6,
2.07916 2.5 0.6,
2.07916 2.51617 0.6,
2.12768 2.52441 0.6,
2.18658 2.52441 0.6,
2.18854 2.20004 0.6,
2.21448 2.2106 0.6,
2.25925 2.21836 0.6,
2.25925 2.22734 0.6,
2.28841 2.21395 0.6,
2.30621 2.20446 0.6,
2.32808 2.22734 0.6,
2.41454 2.21836 0.6,
2.41454 2.22734 0.6,
2.44506 2.21395 0.6,
2.46286 2.21395 0.6,
2.49202 2.21836 0.6,
2.49202 2.22734 0.6,
2.25158 2.5 0.6,
2.25158 2.51617 0.6,
2.42736 2.5 0.6,
2.42736 2.51617 0.6,
2.47985 2.52441 0.6,
1.36322 2.89304 0.4,
1.36322 2.90922 0.4,
1.4157 2.88511 0.4,
1.44774 2.85185 0.4,
1.48711 2.90922 0.4,
1.77152 2.85185 0.4,
1.76541 2.90922 0.4,
1.83011 2.88511 0.4,
2.18658 2.66051 0.4,
2.18658 2.68798 0.4,
1.88259 2.89304 0.4,
1.88259 2.90922 0.4,
2.07519 2.89304 0.4,
2.07519 2.90922 0.4,
2.12768 2.88511 0.4,
2.18658 2.88175 0.4,
2.23265 2.66051 0.4,
2.21831 2.68798 0.4,
2.26313 2.69385 0.4,
2.29548 2.66867 0.4,
2.29445 2.71147 0.4,
2.34175 2.69316 0.4,
2.31287 2.74237 0.4,
2.31901 2.78807 0.4,
2.31314 2.83125 0.4,
2.37024 2.73337 0.4,
2.37974 2.78868 0.4,
2.21648 2.88175 0.4,
2.26401 2.87633 0.4,
2.2296 2.90922 0.4,
2.29551 2.86008 0.4,
2.34221 2.87908 0.4,
2.42736 2.89304 0.4,
2.47985 2.88511 0.4,
2.42736 2.90922 0.4,
1.36322 2.89304 0.6,
1.36322 2.90922 0.6,
1.4157 2.88511 0.6,
1.44774 2.85185 0.6,
1.48711 2.90922 0.6,
1.77152 2.85185 0.6,
1.76541 2.90922 0.6,
1.83011 2.88511 0.6,
2.18658 2.66051 0.6,
2.18658 2.68798 0.6,
1.88259 2.89304 0.6,
1.88259 2.90922 0.6,
2.07519 2.89304 0.6,
2.07519 2.90922 0.6,
2.12768 2.88511 0.6,
2.18658 2.88175 0.6,
2.23265 2.66051 0.6,
2.21831 2.68798 0.6,
2.26313 2.69385 0.6,
2.29548 2.66867 0.6,
2.29445 2.71147 0.6,
2.34175 2.69316 0.6,
2.31287 2.74237 0.6,
2.31901 2.78807 0.6,
2.31314 2.83125 0.6,
2.37024 2.73337 0.6,
2.37974 2.78868 0.6,
2.21648 2.88175 0.6,
2.26401 2.87633 0.6,
2.2296 2.90922 0.6,
2.29551 2.86008 0.6,
2.34221 2.87908 0.6,
2.42736 2.89304 0.6,
2.47985 2.88511 0.6,
2.42736 2.90922 0.6,
5 0 0,
2.59857 0.494745 0.4,
2.60756 0.494745 0.4,
2.53958 0.651392 0.4,
2.61027 0.553742 0.4,
2.71235 0.5 0.4,
2.71235 0.508985 0.4,
2.74151 0.513563 0.4,
2.75931 0.513563 0.4,
2.78983 0.5 0.4,
2.78983 0.508985 0.4,
2.54365 0.711405 0.4,
2.55128 0.711405 0.4,
2.62638 0.718358 0.4,
2.62638 0.727343 0.4,
2.66181 0.713947 0.4,
2.68181 0.713947 0.4,
2.70165 0.718358 0.4,
2.71235 0.718358 0.4,
2.70165 0.727343 0.4,
2.71235 0.727343 0.4,
2.75931 0.704455 0.4,
2.74151 0.713947 0.4,
2.78118 0.727343 0.4,
2.89951 0.5 0.4,
2.91596 0.5 0.4,
2.9631 0.5 0.4,
2.9631 0.508985 0.4,
2.89816 0.558997 0.4,
2.99226 0.513563 0.4,
3.01006 0.513563 0.4,
3.04058 0.5 0.4,
3.04058 0.508985 0.4,
2.86764 0.718358 0.4,
2.86764 0.727343 0.4,
2.89816 0.713947 0.4,
2.91596 0.713947 0.4,
2.94512 0.718358 0.4,
2.94512 0.727343 0.4,
2.9631 0.718358 0.4,
2.9631 0.727343 0.4,
3.01006 0.704455 0.4,
2.99226 0.713947 0.4,
3.03193 0.727343 0.4,
3.11839 0.718358 0.4,
3.11839 0.727343 0.4,
3.15027 0.5 0.4,
3.16671 0.5 0.4,
3.21386 0.5 0.4,
3.21386 0.508985 0.4,
3.24302 0.513563 0.4,
3.26082 0.513563 0.4,
3.14891 0.558997 0.4,
3.29133 0.5 0.4,
3.29133 0.508985 0.4,
3.40102 0.5 0.4,
3.41746 0.5 0.4,
3.39966 0.558997 0.4,
3.14891 0.713947 0.4,
3.16671 0.713947 0.4,
3.19587 0.718358 0.4,
3.19587 0.727343 0.4,
3.26082 0.704455 0.4,
3.21386 0.718358 0.4,
3.21386 0.727343 0.4,
3.24302 0.713947 0.4,
3.28269 0.727343 0.4,
3.36915 0.718358 0.4,
3.36915 0.727343 0.4,
3.39966 0.713947 0.4,
3.41746 0.713947 0.4,
3.44662 0.718358 0.4,
3.44662 0.727343 0.4,
2.59857 0.494745 0.6,
2.60756 0.494745 0.6,
2.53958 0.651392 0.6,
2.61027 0.553742 0.6,
2.71235 0.5 0.6,
2.71235 0.508985 0.6,
2.74151 0.513563 0.6,
2.75931 0.513563 0.6,
2.78983 0.5 0.6,
2.78983 0.508985 0.6,
2.54365 0.711405 0.6,
2.55128 0.711405 0.6,
2.62638 0.718358 0.6,
2.62638 0.727343 0.6,
2.66181 0.713947 0.6,
2.68181 0.713947 0.6,
2.70165 0.718358 0.6,
2.71235 0.718358 0.6,
2.70165 0.727343 0.6,
2.71235 0.727343 0.6,
2.75931 0.704455 0.6,
2.74151 0.713947 0.6,
2.78118 0.727343 0.6,
2.89951 0.5 0.6,
2.91596 0.5 0.6,
2.9631 0.5 0.6,
2.9631 0.508985 0.6,
2.89816 0.558997 0.6,
2.99226 0.513563 0.6,
3.01006 0.513563 0.6,
3.04058 0.5 0.6,
3.04058 0.508985 0.6,
2.86764 0.718358 0.6,
2.86764 0.727343 0.6,
2.89816 0.713947 0.6,
2.91596 0.713947 0.6,
2.94512 0.718358 0.6,
2.94512 0.727343 0.6,
2.9631 0.718358 0.6,
2.9631 0.727343 0.6,
3.01006 0.704455 0.6,
2.99226 0.713947 0.6,
3.03193 0.727343 0.6,
3.11839 0.718358 0.6,
3.11839 0.727343 0.6,
3.15027 0.5 0.6,
3.16671 0.5 0.6,
3.21386 0.5 0.6,
3.21386 0.508985 0.6,
3.24302 0.513563 0.6,
3.26082 0.513563 0.6,
3.14891 0.558997 0.6,
3.29133 0.5 0.6,
3.29133 0.508985 0.6,
3.40102 0.5 0.6,
3.41746 0.5 0.6,
3.39966 0.558997 0.6,
3.14891 0.713947 0.6,
3.16671 0.713947 0.6,
3.19587 0.718358 0.6,
3.19587 0.727343 0.6,
3.26082 0.704455 0.6,
3.21386 0.718358 0.6,
3.21386 0.727343 0.6,
3.24302 0.713947 0.6,
3.28269 0.727343 0.6,
3.36915 0.718358 0.6,
3.36915 0.727343 0.6,
3.39966 0.713947 0.6,
3.41746 0.713947 0.6,
3.44662 0.718358 0.6,
3.44662 0.727343 0.6,
2.53186 1 0.4,
2.5617 1.01356 0.4,
2.58628 1 0.4,
2.58628 1.00898 0.4,
2.59681 1 0.4,
2.59681 1.00898 0.4,
2.62597 1.01356 0.4,
2.64377 1.01356 0.4,
2.67428 1 0.4,
2.67428 1.00898 0.4,
2.72701 1 0.4,
2.73294 1 0.4,
2.79313 1 0.4,
2.79313 1.00898 0.4,
2.73955 1.05442 0.4,
2.50016 1.10443 0.4,
2.51966 1.11339 0.4,
2.50024 1.12622 0.4,
2.50984 1.14137 0.4,
2.53441 1.1274 0.4,
2.54369 1.14548 0.4,
2.51304 1.16427 0.4,
2.50988 1.18646 0.4,
2.50041 1.20115 0.4,
2.54678 1.16665 0.4,
2.54169 1.19416 0.4,
2.64377 1.19547 0.4,
2.5005 1.22374 0.4,
2.52644 1.21293 0.4,
2.59681 1.21836 0.4,
2.59681 1.22734 0.4,
2.62597 1.21395 0.4,
2.66564 1.22734 0.4,
2.82364 1.01356 0.4,
2.88535 1 0.4,
2.88535 1.00898 0.4,
2.85619 1.01356 0.4,
2.82364 1.19547 0.4,
2.82025 1.22734 0.4,
2.85619 1.21395 0.4,
2.88535 1.21836 0.4,
2.88535 1.22734 0.4,
2.54509 1.5267 0.4,
2.58205 1.50413 0.4,
2.59632 1.51619 0.4,
2.63122 1.49661 0.4,
2.63156 1.50966 0.4,
2.65033 1.51083 0.4,
2.67271 1.49928 0.4,
2.668 1.51433 0.4,
2.68335 1.51977 0.4,
2.69513 1.52679 0.4,
2.71141 1.50729 0.4,
2.7438 1.5 0.4,
2.7438 1.50898 0.4,
2.77076 1.51356 0.4,
2.80348 1.51356 0.4,
2.52195 1.56283 0.4,
2.57061 1.53577 0.4,
2.55491 1.56773 0.4,
2.51424 1.61104 0.4,
2.54967 1.61138 0.4,
2.52166 1.66256 0.4,
2.55467 1.65809 0.4,
2.56968 1.69072 0.4,
2.54391 1.69979 0.4,
2.58074 1.72236 0.4,
2.59557 1.70992 0.4,
2.63325 1.71632 0.4,
2.64938 1.71533 0.4,
2.63189 1.72988 0.4,
2.7014 1.56069 0.4,
2.71242 1.56069 0.4,
2.77076 1.58036 0.4,
2.80348 1.58917 0.4,
2.80348 1.60443 0.4,
2.69784 1.67157 0.4,
2.70903 1.67157 0.4,
2.66521 1.71234 0.4,
2.67994 1.70753 0.4,
2.69276 1.70106 0.4,
2.66864 1.72772 0.4,
2.70802 1.72124 0.4,
2.7416 1.71836 0.4,
2.77076 1.71395 0.4,
2.7416 1.72734 0.4,
2.80348 1.71208 0.4,
2.83959 1.5 0.4,
2.83959 1.50898 0.4,
2.9347 1.5 0.4,
2.9347 1.50898 0.4,
2.96386 1.51356 0.4,
2.98167 1.51356 0.4,
3.01218 1.5 0.4,
3.01218 1.50898 0.4,
3.12187 1.5 0.4,
2.82908 1.58917 0.4,
2.82111 1.60443 0.4,
2.84601 1.6077 0.4,
2.86398 1.59371 0.4,
2.88968 1.60731 0.4,
2.8634 1.61749 0.4,
2.87364 1.63465 0.4,
2.90551 1.62965 0.4,
2.87705 1.66004 0.4,
2.87379 1.68403 0.4,
2.82009 1.71208 0.4,
2.84649 1.70907 0.4,
2.82738 1.72734 0.4,
2.864 1.70004 0.4,
2.88994 1.7106 0.4,
2.91079 1.66038 0.4,
2.9347 1.71836 0.4,
2.96386 1.71395 0.4,
2.9347 1.72734 0.4,
3.12051 1.559 0.4,
2.98167 1.70446 0.4,
3.00354 1.72734 0.4,
3.08999 1.71836 0.4,
3.12051 1.71395 0.4,
3.08999 1.72734 0.4,
3.13831 1.5 0.4,
3.13831 1.71395 0.4,
3.16747 1.71836 0.4,
3.16747 1.72734 0.4,
2.53186 1 0.6,
2.5617 1.01356 0.6,
2.58628 1 0.6,
2.58628 1.00898 0.6,
2.59681 1 0.6,
2.59681 1.00898 0.6,
2.62597 1.01356 0.6,
2.64377 1.01356 0.6,
2.67428 1 0.6,
2.67428 1.00898 0.6,
2.72701 1 0.6,
2.73294 1 0.6,
2.79313 1 0.6,
2.79313 1.00898 0.6,
2.73955 1.05442 0.6,
2.50016 1.10443 0.6,
2.51966 1.11339 0.6,
2.50024 1.12622 0.6,
2.50984 1.14137 0.6,
2.53441 1.1274 0.6,
2.54369 1.14548 0.6,
2.51304 1.16427 0.6,
2.50988 1.18646 0.6,
2.50041 1.20115 0.6,
2.54678 1.16665 0.6,
2.54169 1.19416 0.6,
2.64377 1.19547 0.6,
2.5005 1.22374 0.6,
2.52644 1.21293 0.6,
2.59681 1.21836 0.6,
2.59681 1.22734 0.6,
2.62597 1.21395 0.6,
2.66564 1.22734 0.6,
2.82364 1.01356 0.6,
2.88535 1 0.6,
2.88535 1.00898 0.6,
2.85619 1.01356 0.6,
2.82364 1.19547 0.6,
2.82025 1.22734 0.6,
2.85619 1.21395 0.6,
2.88535 1.21836 0.6,
2.88535 1.22734 0.6,
2.54509 1.5267 0.6,
2.58205 1.50413 0.6,
2.59632 1.51619 0.6,
2.63122 1.49661 0.6,
2.63156 1.50966 0.6,
2.65033 1.51083 0.6,
2.67271 1.49928 0.6,
2.668 1.51433 0.6,
2.68335 1.51977 0.6,
2.69513 1.52679 0.6,
2.71141 1.50729 0.6,
2.7438 1.5 0.6,
2.7438 1.50898 0.6,
2.77076 1.51356 0.6,
2.80348 1.51356 0.6,
2.52195 1.56283 0.6,
2.57061 1.53577 0.6,
2.55491 1.56773 0.6,
2.51424 1.61104 0.6,
2.54967 1.61138 0.6,
2.52166 1.66256 0.6,
2.55467 1.65809 0.6,
2.56968 1.69072 0.6,
2.54391 1.69979 0.6,
2.58074 1.72236 0.6,
2.59557 1.70992 0.6,
2.63325 1.71632 0.6,
2.64938 1.71533 0.6,
2.63189 1.72988 0.6,
2.7014 1.56069 0.6,
2.71242 1.56069 0.6,
2.80348 1.58917 0.6,
2.80348 1.60443 0.6,
2.69784 1.67157 0.6,
2.70903 1.67157 0.6,
2.66521 1.71234 0.6,
2.67994 1.70753 0.6,
2.69276 1.70106 0.6,
2.66864 1.72772 0.6,
2.70802 1.72124 0.6,
2.7416 1.71836 0.6,
2.77076 1.71395 0.6,
2.7416 1.72734 0.6,
2.80348 1.71208 0.6,
2.83959 1.5 0.6,
2.83959 1.50898 0.6,
2.9347 1.5 0.6,
2.9347 1.50898 0.6,
2.96386 1.51356 0.6,
2.98167 1.51356 0.6,
3.01218 1.5 0.6,
3.01218 1.50898 0.6,
3.12187 1.5 0.6,
2.82908 1.58917 0.6,
2.82111 1.60443 0.6,
2.84601 1.6077 0.6,
2.86398 1.59371 0.6,
2.88968 1.60731 0.6,
2.8634 1.61749 0.6,
2.87364 1.63465 0.6,
2.90551 1.62965 0.6,
2.87705 1.66004 0.6,
2.87379 1.68403 0.6,
2.82009 1.71208 0.6,
2.84649 1.70907 0.6,
2.82738 1.72734 0.6,
2.864 1.70004 0.6,
2.88994 1.7106 0.6,
2.91079 1.66038 0.6,
2.9347 1.71836 0.6,
2.96386 1.71395 0.6,
2.9347 1.72734 0.6,
3.12051 1.559 0.6,
2.98167 1.70446 0.6,
3.00354 1.72734 0.6,
3.08999 1.71836 0.6,
3.12051 1.71395 0.6,
3.08999 1.72734 0.6,
3.13831 1.5 0.6,
3.13831 1.71395 0.6,
3.16747 1.71836 0.6,
3.16747 1.72734 0.6,
5 0 0.4,
5 3.5 0,
2.52195 2.06283 0.4,
2.54509 2.0267 0.4,
2.57061 2.03577 0.4,
2.55491 2.06773 0.4,
2.58205 2.00413 0.4,
2.59632 2.01619 0.4,
2.63122 1.99661 0.4,
2.63156 2.00966 0.4,
2.65033 2.01083 0.4,
2.51424 2.11104 0.4,
2.54967 2.11138 0.4,
2.52166 2.16256 0.4,
2.55467 2.15809 0.4,
2.67271 1.99928 0.4,
2.668 2.01433 0.4,
2.68335 2.01977 0.4,
2.71141 2.00729 0.4,
2.69513 2.02679 0.4,
2.7014 2.06069 0.4,
2.71242 2.06069 0.4,
2.7438 2 0.4,
2.7438 2.00898 0.4,
2.77076 2.01356 0.4,
2.80348 2.01356 0.4,
2.69784 2.17157 0.4,
2.70903 2.17157 0.4,
2.80348 2.08917 0.4,
2.80348 2.10443 0.4,
2.83959 2 0.4,
2.83959 2.00898 0.4,
2.9347 2 0.4,
2.9347 2.00898 0.4,
2.96386 2.01356 0.4,
2.82908 2.08917 0.4,
2.82111 2.10443 0.4,
2.84601 2.1077 0.4,
2.86398 2.09371 0.4,
2.8634 2.11749 0.4,
2.88968 2.10731 0.4,
2.87364 2.13465 0.4,
2.87705 2.16004 0.4,
2.87379 2.18403 0.4,
2.90551 2.12965 0.4,
2.91079 2.16038 0.4,
2.98167 2.01356 0.4,
3.01218 2 0.4,
3.01218 2.00898 0.4,
3.12187 2 0.4,
3.12051 2.059 0.4,
2.54391 2.19979 0.4,
2.56968 2.19072 0.4,
2.59557 2.20992 0.4,
2.58074 2.22236 0.4,
2.63325 2.21632 0.4,
2.63189 2.22988 0.4,
2.64938 2.21533 0.4,
2.66521 2.21234 0.4,
2.69276 2.20106 0.4,
2.67994 2.20753 0.4,
2.66864 2.22772 0.4,
2.70802 2.22124 0.4,
2.77076 2.21395 0.4,
2.7416 2.21836 0.4,
2.7416 2.22734 0.4,
2.80348 2.21208 0.4,
2.59093 2.5 0.4,
2.53844 2.52441 0.4,
2.59093 2.51617 0.4,
2.65243 2.6131 0.4,
2.76061 2.50744 0.4,
2.69408 2.54806 0.4,
2.71174 2.62191 0.4,
2.74001 2.56439 0.4,
2.78628 2.52914 0.4,
2.82009 2.21208 0.4,
2.84649 2.20907 0.4,
2.82738 2.22734 0.4,
2.864 2.20004 0.4,
2.88994 2.2106 0.4,
2.96386 2.21395 0.4,
2.9347 2.21836 0.4,
2.9347 2.22734 0.4,
2.98167 2.20446 0.4,
3.00354 2.22734 0.4,
3.12051 2.21395 0.4,
3.08999 2.21836 0.4,
3.08999 2.22734 0.4,
2.8491 2.4939 0.4,
2.92379 2.4987 0.4,
2.84972 2.51739 0.4,
2.88351 2.51949 0.4,
2.91532 2.52578 0.4,
2.94294 2.53559 0.4,
2.96415 2.54821 0.4,
2.99344 2.51312 0.4,
3.06305 2.50702 0.4,
3.11645 2.49718 0.4,
2.97544 2.60925 0.4,
2.99527 2.60925 0.4,
3.09356 2.5357 0.4,
3.10794 2.52945 0.4,
3.05969 2.59307 0.4,
3.07983 2.59307 0.4,
3.13831 2 0.4,
3.13831 2.21395 0.4,
3.16747 2.21836 0.4,
3.16747 2.22734 0.4,
3.1729 2.4939 0.4,
3.23431 2.50168 0.4,
3.12728 2.52411 0.4,
3.14837 2.52044 0.4,
3.16802 2.51922 0.4,
3.20967 2.52472 0.4,
3.23882 2.54119 0.4,
3.28001 2.52502 0.4,
3.25598 2.57049 0.4,
3.2617 2.61444 0.4,
3.36975 2.5 0.4,
3.30839 2.56218 0.4,
3.31785 2.61138 0.4,
3.36975 2.54486 0.4,
3.40973 2.54699 0.4,
3.42651 2.59643 0.4,
3.4394 2.57362 0.4,
3.4674 2.59796 0.4,
3.62028 2.5 0.4,
3.62028 2.54699 0.4,
2.52195 2.06283 0.6,
2.54509 2.0267 0.6,
2.57061 2.03577 0.6,
2.55491 2.06773 0.6,
2.58205 2.00413 0.6,
2.59632 2.01619 0.6,
2.63122 1.99661 0.6,
2.63156 2.00966 0.6,
2.65033 2.01083 0.6,
2.51424 2.11104 0.6,
2.54967 2.11138 0.6,
2.52166 2.16256 0.6,
2.55467 2.15809 0.6,
2.67271 1.99928 0.6,
2.668 2.01433 0.6,
2.68335 2.01977 0.6,
2.71141 2.00729 0.6,
2.69513 2.02679 0.6,
2.7014 2.06069 0.6,
2.71242 2.06069 0.6,
2.7438 2 0.6,
2.7438 2.00898 0.6,
2.77076 2.01356 0.6,
2.80348 2.01356 0.6,
2.69784 2.17157 0.6,
2.70903 2.17157 0.6,
2.80348 2.08917 0.6,
2.80348 2.10443 0.6,
2.83959 2 0.6,
2.83959 2.00898 0.6,
2.9347 2 0.6,
2.9347 2.00898 0.6,
2.96386 2.01356 0.6,
2.82908 2.08917 0.6,
2.82111 2.10443 0.6,
2.84601 2.1077 0.6,
2.86398 2.09371 0.6,
2.8634 2.11749 0.6,
2.88968 2.10731 0.6,
2.87364 2.13465 0.6,
2.87705 2.16004 0.6,
2.87379 2.18403 0.6,
2.90551 2.12965 0.6,
2.91079 2.16038 0.6,
2.98167 2.01356 0.6,
3.01218 2 0.6,
3.01218 2.00898 0.6,
3.12187 2 0.6,
3.12051 2.059 0.6,
2.54391 2.19979 0.6,
2.56968 2.19072 0.6,
2.59557 2.20992 0.6,
2.58074 2.22236 0.6,
2.63325 2.21632 0.6,
2.63189 2.22988 0.6,
2.64938 2.21533 0.6,
2.66521 2.21234 0.6,
2.69276 2.20106 0.6,
2.67994 2.20753 0.6,
2.66864 2.22772 0.6,
2.70802 2.22124 0.6,
2.77076 2.21395 0.6,
2.7416 2.21836 0.6,
2.7416 2.22734 0.6,
2.80348 2.21208 0.6,
2.59093 2.5 0.6,
2.53844 2.52441 0.6,
2.59093 2.51617 0.6,
2.65243 2.6131 0.6,
2.76061 2.50744 0.6,
2.69408 2.54806 0.6,
2.71174 2.62191 0.6,
2.74001 2.56439 0.6,
2.78628 2.52914 0.6,
2.82009 2.21208 0.6,
2.84649 2.20907 0.6,
2.82738 2.22734 0.6,
2.864 2.20004 0.6,
2.88994 2.2106 0.6,
2.96386 2.21395 0.6,
2.9347 2.21836 0.6,
2.9347 2.22734 0.6,
2.98167 2.20446 0.6,
3.00354 2.22734 0.6,
3.12051 2.21395 0.6,
3.08999 2.21836 0.6,
3.08999 2.22734 0.6,
2.8491 2.4939 0.6,
2.92379 2.4987 0.6,
2.84972 2.51739 0.6,
2.88351 2.51949 0.6,
2.91532 2.52578 0.6,
2.94294 2.53559 0.6,
2.96415 2.54821 0.6,
2.99344 2.51312 0.6,
3.06305 2.50702 0.6,
3.11645 2.49718 0.6,
2.97544 2.60925 0.6,
2.99527 2.60925 0.6,
3.09356 2.5357 0.6,
3.10794 2.52945 0.6,
3.05969 2.59307 0.6,
3.07983 2.59307 0.6,
3.13831 2 0.6,
3.13831 2.21395 0.6,
3.16747 2.21836 0.6,
3.16747 2.22734 0.6,
3.1729 2.4939 0.6,
3.23431 2.50168 0.6,
3.12728 2.52411 0.6,
3.14837 2.52044 0.6,
3.16802 2.51922 0.6,
3.20967 2.52472 0.6,
3.23882 2.54119 0.6,
3.28001 2.52502 0.6,
3.25598 2.57049 0.6,
3.2617 2.61444 0.6,
3.36975 2.5 0.6,
3.30839 2.56218 0.6,
3.31785 2.61138 0.6,
3.36975 2.54486 0.6,
3.40973 2.54699 0.6,
3.42651 2.59643 0.6,
3.4394 2.57362 0.6,
3.4674 2.59796 0.6,
3.62028 2.5 0.6,
3.62028 2.54699 0.6,
2.63854 2.69988 0.4,
2.65189 2.79261 0.4,
2.70232 2.70049 0.4,
2.71132 2.78456 0.4,
2.73833 2.8433 0.4,
2.53844 2.88511 0.4,
2.59093 2.89304 0.4,
2.59093 2.90922 0.4,
2.69195 2.85963 0.4,
2.78494 2.87786 0.4,
2.75824 2.90025 0.4,
2.96903 2.80882 0.4,
2.98917 2.80882 0.4,
3.0722 2.82194 0.4,
3.09234 2.82194 0.4,
2.85277 2.88938 0.4,
2.88179 2.88759 0.4,
2.85032 2.91379 0.4,
2.91029 2.88221 0.4,
2.95988 2.86192 0.4,
2.9368 2.87355 0.4,
2.91647 2.9099 0.4,
2.98734 2.89823 0.4,
3.10302 2.87198 0.4,
3.11752 2.87858 0.4,
3.0722 2.90067 0.4,
3.10035 2.90727 0.4,
3.12438 2.9112 0.4,
3.1317 2.7011 0.4,
3.1317 2.72612 0.4,
3.17534 2.69866 0.4,
3.17534 2.72887 0.4,
3.24064 2.67562 0.4,
3.25644 2.64987 0.4,
3.21379 2.69183 0.4,
3.20982 2.71422 0.4,
3.25804 2.70304 0.4,
3.2477 2.72509 0.4,
3.20532 2.73512 0.4,
3.2263 2.75023 0.4,
3.23866 2.77479 0.4,
3.27589 2.7455 0.4,
3.24278 2.80943 0.4,
3.31129 2.65185 0.4,
3.29161 2.68233 0.4,
3.2934 2.77498 0.4,
3.29923 2.81309 0.4,
3.38348 2.82194 0.4,
3.40362 2.82194 0.4,
3.13415 2.88373 0.4,
3.15146 2.88705 0.4,
3.16802 2.88816 0.4,
3.20178 2.88347 0.4,
3.14627 2.91314 0.4,
3.16802 2.91379 0.4,
3.23832 2.84502 0.4,
3.22493 2.86939 0.4,
3.26643 2.88862 0.4,
3.4143 2.87198 0.4,
3.42842 2.87858 0.4,
3.38348 2.90067 0.4,
3.43483 2.91051 0.4,
3.47388 2.63976 0.4,
3.50676 2.67394 0.4,
3.52187 2.64598 0.4,
3.52877 2.704 0.4,
3.55833 2.68203 0.4,
3.58225 2.71216 0.4,
3.54353 2.73497 0.4,
3.55189 2.76869 0.4,
3.55468 2.80699 0.4,
3.55018 2.84193 0.4,
3.59907 2.74245 0.4,
3.60903 2.77376 0.4,
3.61235 2.80699 0.4,
3.44451 2.88373 0.4,
3.46137 2.88705 0.4,
3.47778 2.88816 0.4,
3.51295 2.88297 0.4,
3.47778 2.91379 0.4,
3.53667 2.86741 0.4,
3.57863 2.88587 0.4,
3.53656 2.90681 0.4,
3.60392 2.85219 0.4,
2.63854 2.69988 0.6,
2.65189 2.79261 0.6,
2.70232 2.70049 0.6,
2.71132 2.78456 0.6,
2.73833 2.8433 0.6,
2.53844 2.88511 0.6,
2.59093 2.89304 0.6,
2.59093 2.90922 0.6,
2.69195 2.85963 0.6,
2.78494 2.87786 0.6,
2.75824 2.90025 0.6,
2.96903 2.80882 0.6,
2.98917 2.80882 0.6,
3.0722 2.82194 0.6,
3.09234 2.82194 0.6,
2.85277 2.88938 0.6,
2.88179 2.88759 0.6,
2.85032 2.91379 0.6,
2.91029 2.88221 0.6,
2.95988 2.86192 0.6,
2.9368 2.87355 0.6,
2.91647 2.9099 0.6,
2.98734 2.89823 0.6,
3.10302 2.87198 0.6,
3.11752 2.87858 0.6,
3.0722 2.90067 0.6,
3.10035 2.90727 0.6,
3.12438 2.9112 0.6,
3.1317 2.7011 0.6,
3.1317 2.72612 0.6,
3.17534 2.69866 0.6,
3.17534 2.72887 0.6,
3.24064 2.67562 0.6,
3.25644 2.64987 0.6,
3.21379 2.69183 0.6,
3.20982 2.71422 0.6,
3.25804 2.70304 0.6,
3.2477 2.72509 0.6,
3.20532 2.73512 0.6,
3.2263 2.75023 0.6,
3.23866 2.77479 0.6,
3.27589 2.7455 0.6,
3.24278 2.80943 0.6,
3.31129 2.65185 0.6,
3.29161 2.68233 0.6,
3.2934 2.77498 0.6,
3.29923 2.81309 0.6,
3.38348 2.82194 0.6,
3.40362 2.82194 0.6,
3.13415 2.88373 0.6,
3.15146 2.88705 0.6,
3.16802 2.88816 0.6,
3.20178 2.88347 0.6,
3.14627 2.91314 0.6,
3.16802 2.91379 0.6,
3.23832 2.84502 0.6,
3.22493 2.86939 0.6,
3.26643 2.88862 0.6,
3.4143 2.87198 0.6,
3.42842 2.87858 0.6,
3.38348 2.90067 0.6,
3.43483 2.91051 0.6,
3.47388 2.63976 0.6,
3.50676 2.67394 0.6,
3.52187 2.64598 0.6,
3.52877 2.704 0.6,
3.55833 2.68203 0.6,
3.58225 2.71216 0.6,
3.54353 2.73497 0.6,
3.55189 2.76869 0.6,
3.55468 2.80699 0.6,
3.55018 2.84193 0.6,
3.59907 2.74245 0.6,
3.60903 2.77376 0.6,
3.61235 2.80699 0.6,
3.44451 2.88373 0.6,
3.46137 2.88705 0.6,
3.47778 2.88816 0.6,
3.51295 2.88297 0.6,
3.47778 2.91379 0.6,
3.53667 2.86741 0.6,
3.57863 2.88587 0.6,
3.53656 2.90681 0.6,
3.60392 2.85219 0.6,
5 3.5 0.4
] }

coordIndex [
0,1,387,-1
0,1095,1,-1
1,4,2,-1
1,11,4,-1
1,13,11,-1
1,2,3,-1
1,146,147,-1
1,147,148,-1
1,148,150,-1
1,150,151,-1
1,423,424,-1
1,418,419,-1
1,419,420,-1
1,420,423,-1
1,31,13,-1
1,36,31,-1
1,37,36,-1
1,53,37,-1
1,54,53,-1
1,57,54,-1
1,58,57,-1
1,702,58,-1
1,703,702,-1
1,706,703,-1
1,710,706,-1
1,3,242,-1
6,8,5,-1
5,2,4,-1
15,2,5,-1
15,5,8,-1
11,33,12,-1
14,11,13,-1
29,11,14,-1
29,33,11,-1
7,12,27,-1
7,27,9,-1
27,12,33,-1
10,17,16,-1
10,21,17,-1
17,20,18,-1
20,17,19,-1
21,19,17,-1
9,27,22,-1
22,27,23,-1
23,26,24,-1
26,23,25,-1
27,25,23,-1
18,153,3,-1
18,20,153,-1
24,153,20,-1
1,725,710,-1
1,726,725,-1
1,727,726,-1
31,36,32,-1
30,32,49,-1
30,49,34,-1
32,36,49,-1
35,39,28,-1
35,43,39,-1
39,42,40,-1
42,39,41,-1
43,41,39,-1
34,45,44,-1
34,46,45,-1
34,49,46,-1
24,26,153,-1
40,153,26,-1
40,42,152,-1
45,48,47,-1
48,45,46,-1
38,51,50,-1
38,60,51,-1
51,60,52,-1
47,152,42,-1
47,48,152,-1
52,152,48,-1
52,60,155,-1
55,37,53,-1
54,66,65,-1
54,67,66,-1
70,54,57,-1
54,70,67,-1
56,62,61,-1
56,64,62,-1
63,61,62,-1
61,155,60,-1
61,63,160,-1
68,160,63,-1
66,69,68,-1
69,66,67,-1
71,59,72,-1
59,712,72,-1
72,712,73,-1
68,69,167,-1
73,167,69,-1
1,189,146,-1
1,191,189,-1
1,194,191,-1
1,199,194,-1
1,198,199,-1
1,203,198,-1
1,235,203,-1
1,238,235,-1
1,151,451,-1
1,241,238,-1
1,242,241,-1
1,441,437,-1
1,437,418,-1
1,444,441,-1
1,451,444,-1
3,153,175,-1
40,152,153,-1
152,52,155,-1
154,175,153,-1
3,175,242,-1
61,160,155,-1
68,165,160,-1
157,156,161,-1
155,161,156,-1
157,161,158,-1
161,155,160,-1
158,161,163,-1
158,163,162,-1
68,167,165,-1
167,73,171,-1
171,73,846,-1
168,165,167,-1
165,168,166,-1
166,184,164,-1
184,166,168,-1
169,184,168,-1
171,846,172,-1
180,172,846,-1
170,172,177,-1
177,172,180,-1
173,174,159,-1
164,182,176,-1
183,176,182,-1
164,184,182,-1
188,178,179,-1
181,863,864,-1
179,181,868,-1
186,185,178,-1
188,186,178,-1
179,869,188,-1
179,868,869,-1
199,198,200,-1
199,200,201,-1
190,212,205,-1
205,212,206,-1
206,212,149,-1
192,212,190,-1
193,226,192,-1
195,226,193,-1
196,226,195,-1
197,226,196,-1
197,207,226,-1
192,226,212,-1
149,212,208,-1
208,212,209,-1
209,212,211,-1
218,215,212,-1
211,212,213,-1
213,212,214,-1
214,212,215,-1
215,218,217,-1
199,201,230,-1
220,228,207,-1
199,230,220,-1
202,204,221,-1
221,204,224,-1
224,204,243,-1
223,225,222,-1
225,245,222,-1
245,246,222,-1
246,248,222,-1
207,228,226,-1
220,230,228,-1
226,228,227,-1
227,228,229,-1
232,231,222,-1
233,232,222,-1
248,249,222,-1
249,251,222,-1
251,233,222,-1
203,236,204,-1
236,203,235,-1
176,900,175,-1
175,889,242,-1
176,183,900,-1
889,175,891,-1
238,241,240,-1
204,236,243,-1
243,236,244,-1
237,244,236,-1
244,237,247,-1
247,237,250,-1
240,256,239,-1
237,255,250,-1
250,253,252,-1
254,252,253,-1
253,250,255,-1
256,240,241,-1
906,242,903,-1
242,906,908,-1
242,908,262,-1
258,259,257,-1
260,257,259,-1
258,261,259,-1
262,908,263,-1
0,387,384,-1
0,384,1096,-1
384,387,1096,-1
1,386,385,-1
1,388,389,-1
1,385,388,-1
1,393,386,-1
1,394,393,-1
1,389,387,-1
1,424,394,-1
387,389,390,-1
387,390,391,-1
387,391,392,-1
387,392,400,-1
394,424,426,-1
394,426,633,-1
394,631,395,-1
395,631,396,-1
396,632,397,-1
394,633,631,-1
632,396,631,-1
635,398,632,-1
397,632,398,-1
398,635,399,-1
425,430,428,-1
634,428,430,-1
423,420,422,-1
423,422,429,-1
429,425,423,-1
429,430,425,-1
429,431,430,-1
429,432,431,-1
484,432,429,-1
434,431,432,-1
431,434,636,-1
432,484,501,-1
210,451,151,-1
216,452,210,-1
219,452,216,-1
210,453,451,-1
210,452,453,-1
227,452,219,-1
227,229,452,-1
234,452,229,-1
452,234,252,-1
452,252,254,-1
438,448,439,-1
439,448,440,-1
442,448,438,-1
443,448,442,-1
445,448,443,-1
446,448,445,-1
447,448,446,-1
440,448,421,-1
449,421,448,-1
455,449,448,-1
459,449,455,-1
459,483,449,-1
459,450,483,-1
459,451,453,-1
459,455,451,-1
459,453,454,-1
456,458,461,-1
461,458,464,-1
464,458,472,-1
450,459,460,-1
460,459,494,-1
459,496,494,-1
463,465,462,-1
465,473,462,-1
473,476,462,-1
498,497,462,-1
499,498,462,-1
476,477,462,-1
477,478,462,-1
507,499,462,-1
478,507,462,-1
452,254,257,-1
452,257,260,-1
452,260,264,-1
912,457,452,-1
912,458,457,-1
912,452,264,-1
916,458,912,-1
916,466,458,-1
929,470,466,-1
467,458,466,-1
458,467,474,-1
472,458,474,-1
468,474,467,-1
471,512,469,-1
474,468,475,-1
475,511,479,-1
475,468,511,-1
470,480,471,-1
512,471,480,-1
1106,481,1097,-1
482,514,513,-1
481,1106,1108,-1
481,1108,518,-1
482,516,514,-1
481,518,517,-1
483,450,485,-1
485,450,487,-1
487,450,489,-1
489,450,486,-1
491,486,450,-1
486,491,490,-1
488,501,484,-1
492,501,488,-1
493,501,492,-1
460,494,493,-1
493,494,495,-1
493,495,503,-1
500,503,495,-1
508,503,500,-1
508,510,503,-1
501,504,502,-1
493,503,501,-1
501,503,504,-1
436,502,504,-1
479,509,508,-1
509,479,511,-1
510,508,509,-1
513,520,510,-1
513,515,520,-1
515,513,514,-1
519,520,515,-1
1151,520,519,-1
520,1159,522,-1
503,510,520,-1
520,523,521,-1
506,521,639,-1
639,521,647,-1
647,521,650,-1
521,523,650,-1
523,520,522,-1
428,634,427,-1
399,635,637,-1
642,399,637,-1
433,637,635,-1
435,636,434,-1
436,641,638,-1
399,642,644,-1
436,504,645,-1
436,645,641,-1
505,645,504,-1
641,644,642,-1
641,643,644,-1
641,645,643,-1
648,649,640,-1
649,651,640,-1
651,653,640,-1
659,658,640,-1
658,646,640,-1
655,661,640,-1
661,659,640,-1
653,654,640,-1
654,655,640,-1
650,523,652,-1
664,652,523,-1
524,664,523,-1
652,664,656,-1
656,664,657,-1
662,665,660,-1
657,663,662,-1
665,662,663,-1
663,657,664,-1
387,400,1519,-1
1519,400,401,-1
1519,401,399,-1
0,701,1095,-1
0,1096,701,-1
701,1096,1095,-1
1,1095,727,-1
704,58,702,-1
707,703,706,-1
703,707,723,-1
708,723,707,-1
703,718,717,-1
703,719,718,-1
703,723,719,-1
711,722,709,-1
705,714,713,-1
705,716,714,-1
715,713,714,-1
73,712,846,-1
713,846,712,-1
713,715,850,-1
720,850,715,-1
718,721,720,-1
721,718,719,-1
720,721,854,-1
724,857,721,-1
710,725,711,-1
728,726,727,-1
722,711,725,-1
726,728,743,-1
726,738,737,-1
726,740,738,-1
726,743,740,-1
732,747,733,-1
730,743,728,-1
733,742,731,-1
742,733,747,-1
729,734,724,-1
729,736,734,-1
735,724,734,-1
738,741,739,-1
741,738,740,-1
858,724,735,-1
739,880,735,-1
739,741,880,-1
744,880,741,-1
753,745,744,-1
746,744,745,-1
744,746,881,-1
762,881,746,-1
1095,732,727,-1
1095,747,732,-1
750,748,749,-1
748,761,760,-1
748,764,761,-1
748,750,766,-1
751,766,750,-1
755,763,752,-1
748,766,764,-1
754,756,755,-1
763,755,756,-1
757,772,771,-1
753,759,745,-1
761,765,762,-1
765,761,764,-1
758,768,767,-1
769,767,768,-1
758,770,768,-1
846,713,848,-1
713,850,848,-1
847,862,861,-1
851,848,850,-1
848,851,849,-1
849,877,847,-1
877,849,851,-1
852,877,851,-1
855,872,853,-1
720,854,850,-1
721,856,854,-1
856,721,857,-1
724,858,857,-1
854,856,855,-1
872,855,856,-1
859,857,858,-1
857,859,883,-1
181,864,867,-1
847,877,862,-1
867,868,181,-1
862,877,865,-1
865,877,866,-1
866,875,870,-1
870,875,871,-1
875,866,877,-1
871,876,874,-1
871,875,876,-1
874,899,873,-1
860,884,878,-1
858,735,880,-1
744,881,880,-1
879,883,859,-1
881,885,882,-1
885,881,762,-1
885,762,765,-1
885,765,767,-1
885,769,886,-1
886,769,887,-1
187,900,183,-1
873,899,187,-1
891,175,894,-1
894,175,900,-1
874,876,899,-1
900,187,899,-1
903,242,888,-1
888,242,889,-1
892,917,890,-1
878,899,876,-1
878,884,899,-1
899,884,933,-1
893,917,892,-1
895,917,893,-1
894,900,898,-1
904,917,905,-1
890,917,904,-1
918,905,917,-1
919,907,905,-1
919,909,907,-1
911,263,908,-1
263,911,264,-1
912,264,911,-1
919,910,909,-1
910,922,913,-1
913,922,914,-1
896,917,895,-1
897,917,896,-1
919,905,918,-1
919,918,898,-1
919,898,900,-1
919,900,901,-1
910,919,922,-1
926,924,922,-1
922,919,923,-1
914,922,915,-1
915,922,924,-1
924,926,925,-1
923,929,928,-1
919,929,923,-1
919,930,929,-1
952,932,921,-1
887,933,884,-1
933,887,934,-1
939,941,940,-1
920,902,934,-1
920,935,942,-1
936,945,942,-1
943,944,921,-1
944,947,921,-1
947,948,921,-1
948,950,921,-1
936,942,935,-1
937,946,936,-1
945,936,946,-1
946,937,949,-1
949,937,959,-1
950,951,921,-1
951,955,921,-1
953,952,921,-1
955,953,921,-1
949,959,957,-1
957,958,956,-1
958,957,959,-1
940,962,938,-1
962,940,941,-1
961,964,963,-1
961,965,964,-1
966,963,964,-1
885,767,769,-1
773,887,769,-1
1095,934,887,-1
1095,920,934,-1
1095,935,920,-1
1095,939,935,-1
1095,941,939,-1
967,969,968,-1
1095,748,747,-1
1095,749,748,-1
1095,754,749,-1
1095,756,754,-1
1095,757,756,-1
1095,772,757,-1
1095,887,773,-1
1095,773,772,-1
1095,967,941,-1
1095,969,967,-1
1095,970,969,-1
1095,1200,970,-1
1095,1202,1200,-1
1095,1203,1202,-1
1095,1222,1203,-1
1095,1223,1222,-1
387,1519,1096,-1
1095,1096,1519,-1
927,466,916,-1
928,466,927,-1
928,929,466,-1
931,481,929,-1
929,480,470,-1
929,481,480,-1
931,1101,481,-1
931,1103,1101,-1
954,1103,931,-1
956,1103,954,-1
960,1110,1103,-1
960,1113,1110,-1
960,1117,1113,-1
1098,481,1101,-1
1097,481,1098,-1
1102,1121,1099,-1
1104,1121,1102,-1
1099,1121,1100,-1
1100,1121,1107,-1
1107,1121,1109,-1
1109,1121,1147,-1
1118,1113,1117,-1
1105,1122,1104,-1
1111,1122,1105,-1
1112,1122,1111,-1
1114,1122,1112,-1
1113,1118,1119,-1
1104,1122,1121,-1
1114,1115,1122,-1
1113,1158,1116,-1
1116,1159,1115,-1
1115,1159,1122,-1
1113,1119,1158,-1
1158,1159,1116,-1
1171,1161,1124,-1
956,958,1103,-1
960,1103,958,-1
963,1125,960,-1
960,1125,1117,-1
966,1127,1125,-1
963,966,1125,-1
966,1142,1127,-1
966,1144,1142,-1
1125,1128,1126,-1
1120,1126,1123,-1
1123,1126,1130,-1
1130,1126,1133,-1
1126,1128,1133,-1
1128,1125,1127,-1
1129,1135,1128,-1
1133,1128,1135,-1
1131,1132,1124,-1
1132,1134,1124,-1
1134,1136,1124,-1
1136,1137,1124,-1
1137,1138,1124,-1
1172,1171,1124,-1
1174,1172,1124,-1
1138,1174,1124,-1
1135,1129,1139,-1
1139,1129,1140,-1
1129,1176,1140,-1
1143,1179,1141,-1
1179,1143,1144,-1
1142,1144,1143,-1
1145,1182,1180,-1
1145,1181,1182,-1
1146,518,1108,-1
518,1146,519,-1
1149,519,1146,-1
1151,519,1149,-1
1147,1121,1148,-1
1148,1121,1150,-1
1156,520,1151,-1
1157,520,1156,-1
520,1157,1159,-1
1160,522,1159,-1
1150,1121,1152,-1
1152,1121,1153,-1
1154,1153,1121,-1
1153,1154,1155,-1
1122,1159,1157,-1
522,1160,1162,-1
1162,1167,1164,-1
1165,1164,1167,-1
1164,1351,1163,-1
1164,1165,1351,-1
1160,1166,1162,-1
1166,1160,1184,-1
1167,1162,1166,-1
1140,1177,1175,-1
1178,1175,1177,-1
1177,1140,1176,-1
1173,1192,1160,-1
1175,1192,1173,-1
1175,1178,1192,-1
1183,1180,1182,-1
1180,1192,1178,-1
1192,1180,1183,-1
1203,1193,1183,-1
1184,1160,1185,-1
1185,1160,1191,-1
1192,1191,1160,-1
1186,1362,1170,-1
1187,1363,1186,-1
1188,1363,1187,-1
1189,1363,1188,-1
1192,1183,1193,-1
1191,1192,1198,-1
1191,1198,1195,-1
1199,1195,1198,-1
1196,1206,1207,-1
1196,1197,1206,-1
1196,1207,1199,-1
1195,1199,1213,-1
970,1144,966,-1
970,1200,1144,-1
1200,1202,1201,-1
1203,1204,1193,-1
1204,1203,1205,-1
1205,1203,1211,-1
1203,1214,1211,-1
1208,1199,1207,-1
1209,1199,1208,-1
1210,1199,1209,-1
1212,1199,1210,-1
1213,1199,1212,-1
1384,1195,1213,-1
1214,1203,1222,-1
1211,1217,1215,-1
1217,1211,1214,-1
1215,1219,1216,-1
1215,1217,1219,-1
1413,1216,1219,-1
1218,1223,1220,-1
1220,1223,1221,-1
1221,1223,1415,-1
1415,1223,1417,-1
1163,1351,1352,-1
1163,1357,1356,-1
1163,1352,1357,-1
1169,1362,1168,-1
1168,1362,1353,-1
1353,1362,1354,-1
1354,1362,1355,-1
1359,1357,1352,-1
1357,1359,1358,-1
1361,1358,1359,-1
1368,1358,1361,-1
1170,1362,1169,-1
1190,1363,1189,-1
1186,1363,1362,-1
1355,1362,1360,-1
1190,1194,1363,-1
1195,1363,1194,-1
1195,1379,1363,-1
1379,1195,1381,-1
1380,1363,1379,-1
1363,1380,1364,-1
1364,1380,1365,-1
1360,1362,1366,-1
1366,1362,1367,-1
1367,1362,1369,-1
1370,1369,1362,-1
1369,1370,1371,-1
1363,1376,1373,-1
1376,1363,1364,-1
1365,1375,1374,-1
1375,1365,1400,-1
1519,399,644,-1
1519,644,660,-1
1381,1195,1385,-1
1385,1195,1383,-1
1383,1195,1384,-1
1386,1387,1388,-1
1395,1388,1387,-1
1395,1392,1388,-1
1382,1365,1380,-1
1389,1365,1382,-1
1390,1365,1389,-1
1391,1365,1390,-1
1393,1365,1391,-1
1406,1365,1393,-1
1395,1414,1392,-1
1392,1414,1396,-1
1216,1413,1394,-1
1394,1414,1395,-1
1394,1413,1414,-1
1396,1398,1397,-1
1396,1420,1399,-1
1398,1396,1399,-1
1400,1365,1401,-1
1401,1365,1402,-1
1402,1365,1403,-1
1403,1365,1407,-1
1407,1365,1406,-1
1397,1411,1408,-1
1411,1397,1398,-1
1399,1410,1409,-1
1410,1399,1426,-1
1426,1399,1427,-1
1416,1396,1414,-1
1419,1396,1416,-1
1420,1396,1419,-1
1421,1399,1420,-1
1422,1399,1421,-1
1427,1399,1428,-1
1428,1399,1429,-1
1429,1399,1431,-1
1431,1399,1422,-1
1519,660,665,-1
1519,665,1358,-1
1519,1358,1368,-1
1519,1368,1372,-1
1519,1372,1373,-1
1519,1373,1376,-1
1519,1376,1377,-1
1519,1377,1378,-1
1095,1519,1223,-1
1519,1417,1223,-1
1519,1418,1417,-1
1519,1423,1418,-1
1519,1424,1423,-1
1519,1425,1424,-1
1519,1434,1425,-1
1519,1378,1404,-1
1519,1404,1405,-1
1519,1405,1408,-1
1519,1408,1411,-1
1519,1411,1412,-1
1519,1412,1430,-1
1519,1430,1433,-1
1519,1432,1434,-1
1519,1433,1432,-1
74,3,2,-1
76,5,4,-1
77,6,5,-1
78,8,6,-1
83,4,11,-1
79,12,7,-1
80,15,8,-1
81,7,9,-1
82,21,10,-1
84,11,12,-1
85,14,13,-1
88,10,16,-1
87,2,15,-1
75,18,3,-1
89,16,17,-1
90,17,18,-1
91,20,19,-1
94,9,22,-1
93,19,21,-1
92,24,20,-1
95,22,23,-1
96,23,24,-1
97,26,25,-1
99,25,27,-1
98,40,26,-1
74,75,3,-1
74,2,87,-1
74,87,75,-1
76,77,5,-1
76,4,83,-1
77,78,6,-1
79,84,12,-1
79,7,81,-1
78,80,8,-1
88,82,10,-1
81,9,94,-1
83,11,84,-1
85,86,14,-1
76,78,77,-1
76,83,78,-1
78,79,80,-1
78,83,79,-1
79,83,84,-1
80,79,81,-1
80,81,82,-1
80,82,88,-1
81,93,82,-1
80,87,15,-1
75,90,18,-1
88,16,89,-1
89,17,90,-1
91,92,20,-1
82,93,21,-1
91,19,93,-1
94,22,95,-1
92,96,24,-1
95,23,96,-1
99,27,105,-1
97,98,26,-1
97,25,99,-1
98,112,40,-1
80,88,87,-1
75,87,88,-1
75,88,90,-1
88,89,90,-1
81,94,93,-1
91,93,92,-1
92,93,94,-1
92,94,96,-1
94,95,96,-1
99,105,100,-1
97,99,98,-1
98,99,100,-1
98,100,112,-1
86,29,14,-1
101,33,29,-1
103,13,31,-1
102,32,30,-1
104,31,32,-1
106,30,34,-1
105,27,33,-1
107,43,35,-1
109,36,37,-1
108,49,36,-1
110,60,38,-1
100,35,28,-1
111,28,39,-1
112,39,40,-1
116,34,44,-1
113,42,41,-1
115,41,43,-1
114,47,42,-1
117,44,45,-1
119,45,47,-1
118,48,46,-1
121,46,49,-1
120,52,48,-1
122,38,50,-1
123,50,51,-1
124,51,52,-1
126,53,54,-1
127,37,55,-1
125,55,53,-1
128,64,56,-1
137,54,65,-1
130,57,58,-1
129,70,57,-1
133,56,61,-1
132,61,60,-1
134,63,62,-1
136,62,64,-1
135,68,63,-1
138,65,66,-1
139,69,67,-1
140,66,68,-1
142,67,70,-1
141,73,69,-1
143,59,71,-1
144,71,72,-1
145,72,73,-1
86,101,29,-1
85,13,103,-1
102,30,106,-1
102,104,32,-1
103,31,104,-1
101,105,33,-1
107,35,100,-1
106,34,116,-1
108,36,109,-1
108,121,49,-1
109,37,127,-1
110,38,122,-1
85,101,86,-1
85,103,101,-1
101,103,102,-1
101,102,105,-1
102,103,104,-1
102,106,105,-1
105,106,107,-1
105,107,100,-1
107,106,115,-1
108,109,121,-1
109,110,121,-1
109,127,110,-1
100,28,111,-1
111,39,112,-1
107,115,43,-1
113,114,42,-1
115,113,41,-1
116,44,117,-1
114,119,47,-1
117,45,119,-1
118,120,48,-1
118,46,121,-1
120,124,52,-1
122,50,123,-1
123,51,124,-1
100,111,112,-1
106,116,115,-1
115,114,113,-1
115,116,114,-1
114,116,119,-1
116,117,119,-1
110,122,121,-1
118,121,120,-1
120,121,122,-1
120,122,124,-1
122,123,124,-1
125,53,126,-1
127,55,125,-1
133,128,56,-1
126,54,137,-1
129,57,130,-1
142,70,129,-1
130,58,776,-1
143,131,59,-1
127,125,128,-1
110,127,132,-1
127,128,132,-1
125,126,137,-1
125,137,128,-1
142,129,130,-1
142,130,131,-1
110,132,60,-1
132,133,61,-1
128,136,64,-1
134,135,63,-1
134,62,136,-1
137,65,138,-1
135,140,68,-1
142,139,67,-1
139,141,69,-1
138,66,140,-1
143,71,144,-1
141,145,73,-1
144,72,145,-1
132,128,133,-1
128,137,136,-1
134,136,135,-1
135,136,137,-1
135,137,140,-1
137,138,140,-1
142,141,139,-1
142,143,141,-1
141,143,145,-1
142,131,143,-1
143,144,145,-1
265,147,146,-1
266,148,147,-1
267,150,148,-1
269,151,150,-1
265,266,147,-1
266,267,148,-1
267,269,150,-1
269,270,151,-1
265,325,266,-1
266,325,268,-1
266,268,267,-1
267,268,269,-1
269,268,327,-1
269,327,270,-1
271,153,152,-1
272,154,153,-1
274,152,155,-1
275,155,156,-1
276,156,157,-1
277,157,158,-1
273,175,154,-1
279,161,160,-1
281,158,162,-1
280,163,161,-1
282,162,163,-1
284,160,165,-1
283,166,164,-1
285,165,166,-1
286,168,167,-1
287,169,168,-1
288,184,169,-1
290,167,171,-1
289,172,170,-1
291,171,172,-1
296,170,177,-1
278,173,159,-1
292,174,173,-1
293,159,174,-1
295,164,176,-1
294,176,175,-1
297,179,178,-1
299,177,180,-1
298,181,179,-1
300,863,181,-1
304,178,185,-1
301,183,182,-1
303,182,184,-1
302,187,183,-1
305,185,186,-1
307,186,188,-1
306,873,187,-1
994,188,869,-1
271,272,153,-1
271,152,274,-1
272,273,154,-1
276,275,156,-1
274,155,275,-1
276,157,277,-1
271,273,272,-1
271,274,273,-1
273,274,276,-1
276,274,275,-1
273,276,277,-1
273,277,278,-1
273,294,175,-1
273,278,294,-1
279,280,161,-1
277,158,281,-1
279,160,284,-1
280,282,163,-1
283,285,166,-1
282,281,162,-1
283,164,295,-1
284,165,285,-1
286,287,168,-1
286,167,290,-1
287,288,169,-1
289,291,172,-1
290,171,291,-1
289,170,296,-1
971,299,180,-1
277,281,278,-1
278,281,292,-1
279,282,280,-1
279,284,282,-1
282,283,281,-1
282,284,283,-1
283,284,285,-1
283,292,281,-1
286,288,287,-1
286,289,288,-1
286,290,289,-1
288,289,296,-1
288,296,297,-1
289,290,291,-1
971,986,299,-1
278,159,293,-1
278,292,173,-1
292,293,174,-1
294,295,176,-1
288,303,184,-1
296,177,299,-1
297,298,179,-1
297,178,304,-1
298,300,181,-1
300,988,863,-1
301,302,183,-1
301,182,303,-1
304,185,305,-1
302,306,187,-1
305,186,307,-1
307,188,994,-1
306,998,873,-1
278,293,294,-1
292,295,293,-1
283,295,292,-1
293,295,294,-1
288,297,303,-1
297,304,303,-1
296,298,297,-1
296,299,298,-1
299,300,298,-1
299,986,300,-1
986,988,300,-1
301,303,302,-1
302,303,306,-1
303,304,306,-1
304,305,306,-1
305,307,306,-1
307,994,998,-1
306,307,998,-1
308,146,189,-1
324,190,205,-1
310,189,191,-1
309,192,190,-1
313,191,194,-1
311,193,192,-1
312,195,193,-1
314,196,195,-1
318,194,199,-1
315,197,196,-1
317,200,198,-1
319,201,200,-1
322,198,203,-1
321,204,202,-1
323,203,204,-1
325,205,206,-1
268,206,149,-1
316,207,197,-1
326,220,207,-1
327,149,208,-1
328,208,209,-1
270,210,151,-1
330,209,211,-1
332,211,213,-1
329,216,210,-1
331,218,212,-1
345,212,226,-1
333,213,214,-1
334,214,215,-1
335,219,216,-1
336,215,217,-1
337,217,218,-1
338,227,219,-1
339,199,220,-1
320,230,201,-1
340,202,221,-1
343,221,224,-1
341,223,222,-1
342,225,223,-1
362,224,243,-1
344,245,225,-1
346,226,227,-1
347,229,228,-1
349,228,230,-1
348,234,229,-1
350,222,231,-1
351,231,232,-1
352,232,233,-1
370,233,251,-1
353,252,234,-1
354,236,235,-1
355,237,236,-1
357,235,238,-1
358,240,239,-1
359,238,240,-1
361,241,242,-1
363,243,244,-1
364,246,245,-1
366,244,247,-1
365,248,246,-1
367,249,248,-1
368,251,249,-1
371,250,252,-1
369,247,250,-1
372,254,253,-1
374,255,237,-1
375,239,256,-1
374,253,255,-1
373,257,254,-1
360,256,241,-1
377,261,258,-1
376,258,257,-1
378,260,259,-1
381,242,262,-1
380,259,261,-1
379,264,260,-1
382,262,263,-1
383,263,264,-1
308,265,146,-1
324,309,190,-1
308,189,310,-1
309,311,192,-1
310,191,313,-1
311,312,193,-1
312,314,195,-1
313,194,318,-1
314,315,196,-1
315,316,197,-1
318,199,339,-1
317,319,200,-1
317,198,322,-1
319,320,201,-1
322,203,323,-1
321,323,204,-1
308,324,265,-1
308,309,324,-1
308,310,309,-1
310,311,309,-1
310,313,312,-1
310,312,311,-1
313,314,312,-1
313,315,314,-1
313,318,315,-1
315,318,316,-1
317,320,319,-1
317,321,320,-1
317,322,321,-1
321,322,323,-1
324,205,325,-1
325,206,268,-1
268,149,327,-1
316,326,207,-1
327,208,328,-1
270,329,210,-1
328,209,330,-1
330,211,332,-1
329,335,216,-1
331,212,345,-1
331,337,218,-1
332,213,333,-1
333,214,334,-1
335,338,219,-1
336,217,337,-1
334,215,336,-1
346,227,338,-1
326,339,220,-1
321,202,340,-1
340,221,343,-1
341,342,223,-1
341,222,350,-1
343,224,362,-1
342,344,225,-1
344,364,245,-1
345,226,346,-1
320,349,230,-1
347,348,229,-1
347,228,349,-1
350,231,351,-1
348,353,234,-1
351,232,352,-1
352,233,370,-1
265,324,325,-1
316,318,339,-1
316,339,326,-1
327,328,270,-1
270,328,329,-1
328,330,329,-1
329,330,335,-1
330,332,335,-1
331,345,337,-1
332,333,335,-1
333,334,338,-1
333,338,335,-1
334,336,338,-1
336,346,338,-1
345,346,337,-1
336,337,346,-1
320,341,349,-1
320,321,340,-1
320,340,341,-1
340,342,341,-1
340,343,342,-1
343,344,342,-1
343,362,344,-1
362,364,344,-1
347,349,348,-1
349,353,348,-1
341,350,349,-1
349,350,353,-1
350,351,353,-1
351,352,353,-1
352,371,353,-1
354,355,236,-1
354,235,357,-1
355,356,237,-1
357,238,359,-1
358,359,240,-1
360,241,361,-1
354,356,355,-1
354,357,356,-1
356,357,358,-1
357,359,358,-1
362,243,363,-1
364,365,246,-1
363,244,366,-1
366,247,369,-1
356,374,237,-1
358,239,375,-1
365,367,248,-1
367,368,249,-1
370,251,368,-1
369,250,371,-1
371,252,353,-1
372,373,254,-1
372,253,374,-1
373,376,257,-1
360,375,256,-1
377,258,376,-1
361,242,381,-1
378,379,260,-1
377,380,261,-1
378,259,380,-1
381,262,382,-1
382,263,383,-1
379,383,264,-1
362,363,364,-1
364,363,365,-1
365,363,366,-1
356,358,375,-1
365,366,367,-1
366,369,367,-1
367,369,368,-1
368,369,371,-1
352,370,371,-1
370,368,371,-1
356,375,374,-1
372,374,373,-1
374,376,373,-1
374,375,376,-1
360,361,375,-1
375,361,377,-1
377,361,381,-1
375,377,376,-1
377,381,380,-1
378,380,379,-1
380,381,379,-1
379,381,383,-1
381,382,383,-1
402,388,385,-1
403,385,386,-1
402,404,388,-1
402,385,403,-1
404,389,388,-1
405,390,389,-1
406,391,390,-1
407,392,391,-1
404,405,389,-1
405,406,390,-1
406,407,391,-1
404,413,405,-1
405,407,406,-1
405,408,407,-1
405,416,408,-1
407,408,392,-1
409,386,393,-1
410,393,394,-1
411,394,395,-1
412,395,396,-1
403,386,409,-1
409,393,410,-1
410,394,411,-1
411,395,412,-1
402,403,413,-1
409,410,411,-1
403,409,413,-1
409,411,412,-1
409,412,413,-1
413,396,397,-1
414,397,398,-1
415,398,399,-1
408,400,392,-1
416,401,400,-1
417,399,401,-1
417,415,399,-1
412,396,413,-1
414,413,397,-1
414,398,415,-1
402,413,404,-1
405,413,414,-1
405,417,416,-1
405,415,417,-1
405,414,415,-1
408,416,400,-1
416,417,401,-1
525,419,418,-1
526,420,419,-1
527,422,420,-1
529,429,422,-1
526,419,525,-1
526,527,420,-1
527,529,422,-1
529,536,429,-1
526,525,547,-1
526,528,527,-1
526,547,528,-1
527,528,529,-1
529,528,556,-1
529,556,536,-1
530,424,423,-1
531,426,424,-1
532,423,425,-1
535,425,428,-1
534,428,427,-1
537,634,430,-1
538,430,431,-1
539,434,432,-1
607,432,501,-1
541,435,434,-1
543,502,436,-1
530,531,424,-1
531,533,426,-1
530,423,532,-1
532,425,535,-1
534,535,428,-1
530,533,531,-1
530,532,533,-1
534,532,535,-1
533,532,534,-1
537,538,669,-1
537,430,538,-1
539,541,434,-1
538,431,671,-1
539,432,607,-1
541,542,435,-1
543,608,502,-1
539,542,541,-1
539,607,542,-1
543,607,608,-1
542,607,543,-1
544,418,437,-1
545,442,438,-1
548,437,441,-1
546,438,439,-1
547,439,440,-1
549,443,442,-1
551,441,444,-1
550,445,443,-1
552,446,445,-1
558,444,451,-1
553,447,446,-1
554,448,447,-1
555,455,448,-1
528,440,421,-1
528,421,449,-1
589,449,483,-1
566,450,460,-1
557,491,450,-1
559,453,452,-1
560,454,453,-1
562,451,455,-1
561,459,454,-1
564,452,457,-1
563,458,456,-1
565,457,458,-1
567,456,461,-1
602,496,459,-1
570,461,464,-1
568,463,462,-1
578,464,472,-1
569,465,463,-1
571,473,465,-1
603,462,497,-1
572,467,466,-1
573,468,467,-1
576,466,470,-1
575,471,469,-1
577,470,471,-1
580,472,474,-1
579,476,473,-1
581,474,475,-1
582,477,476,-1
583,478,477,-1
585,475,479,-1
617,511,468,-1
618,469,512,-1
586,512,480,-1
587,480,481,-1
619,482,513,-1
588,516,482,-1
623,481,517,-1
525,418,544,-1
546,545,438,-1
544,437,548,-1
545,549,442,-1
547,546,439,-1
548,441,551,-1
549,550,443,-1
550,552,445,-1
551,444,558,-1
552,553,446,-1
553,554,447,-1
554,555,448,-1
547,440,528,-1
528,449,556,-1
556,449,589,-1
557,450,566,-1
559,560,453,-1
560,561,454,-1
559,452,564,-1
558,451,562,-1
555,562,455,-1
564,457,565,-1
563,565,458,-1
563,456,567,-1
561,602,459,-1
567,461,570,-1
568,569,463,-1
570,464,578,-1
569,571,465,-1
571,579,473,-1
568,462,603,-1
525,544,546,-1
544,545,546,-1
544,548,545,-1
545,548,549,-1
525,546,547,-1
548,550,549,-1
548,551,550,-1
550,551,552,-1
551,553,552,-1
551,558,553,-1
553,558,554,-1
554,558,562,-1
554,562,555,-1
556,589,536,-1
557,566,597,-1
559,561,560,-1
559,563,561,-1
559,564,563,-1
563,564,565,-1
561,563,567,-1
561,567,568,-1
561,568,602,-1
567,569,568,-1
567,570,569,-1
570,571,569,-1
570,578,571,-1
571,578,579,-1
568,603,602,-1
572,573,467,-1
572,466,576,-1
573,574,468,-1
576,470,577,-1
575,577,471,-1
575,469,618,-1
578,472,580,-1
579,582,476,-1
580,474,581,-1
582,583,477,-1
583,584,478,-1
581,475,585,-1
585,479,614,-1
574,617,468,-1
586,480,587,-1
587,481,623,-1
588,482,619,-1
586,618,512,-1
588,622,516,-1
572,574,573,-1
572,576,574,-1
574,576,575,-1
575,576,577,-1
574,575,618,-1
578,580,579,-1
579,580,582,-1
582,580,581,-1
582,581,583,-1
583,581,585,-1
583,585,584,-1
585,614,584,-1
574,618,617,-1
586,587,618,-1
588,618,587,-1
588,619,618,-1
588,587,623,-1
588,623,622,-1
536,484,429,-1
591,483,485,-1
593,485,487,-1
590,488,484,-1
592,489,486,-1
595,487,489,-1
594,492,488,-1
596,486,490,-1
597,490,491,-1
598,493,492,-1
599,460,493,-1
600,495,494,-1
602,494,496,-1
601,500,495,-1
604,497,498,-1
605,498,499,-1
613,499,507,-1
606,508,500,-1
608,501,502,-1
609,504,503,-1
610,505,504,-1
674,506,639,-1
584,507,478,-1
614,479,508,-1
615,510,509,-1
617,509,511,-1
616,513,510,-1
620,515,514,-1
622,514,516,-1
621,519,515,-1
624,517,518,-1
625,518,519,-1
626,503,520,-1
627,520,521,-1
612,521,506,-1
628,523,522,-1
629,524,523,-1
536,590,484,-1
589,483,591,-1
591,485,593,-1
590,594,488,-1
595,489,592,-1
593,487,595,-1
594,598,492,-1
596,592,486,-1
596,490,597,-1
557,597,491,-1
598,599,493,-1
566,460,599,-1
600,601,495,-1
600,494,602,-1
603,497,604,-1
601,606,500,-1
604,498,605,-1
605,499,613,-1
536,589,590,-1
589,591,590,-1
590,591,594,-1
591,593,594,-1
593,595,594,-1
594,595,598,-1
595,592,598,-1
566,599,597,-1
596,597,599,-1
596,598,592,-1
596,599,598,-1
600,602,601,-1
601,602,606,-1
602,603,606,-1
603,604,606,-1
604,605,606,-1
606,605,614,-1
607,501,608,-1
609,610,504,-1
609,503,626,-1
610,611,505,-1
612,506,674,-1
609,611,610,-1
609,626,612,-1
609,612,611,-1
611,612,674,-1
611,674,675,-1
584,613,507,-1
606,614,508,-1
615,616,510,-1
615,509,617,-1
616,619,513,-1
620,621,515,-1
620,514,622,-1
621,625,519,-1
623,517,624,-1
624,518,625,-1
584,614,613,-1
605,613,614,-1
615,617,616,-1
616,617,619,-1
617,618,619,-1
620,622,621,-1
621,622,623,-1
621,623,625,-1
623,624,625,-1
626,520,627,-1
627,521,612,-1
628,629,523,-1
628,522,1289,-1
629,630,524,-1
626,627,612,-1
628,630,629,-1
628,1289,630,-1
533,633,426,-1
669,427,634,-1
670,433,635,-1
666,632,631,-1
668,631,633,-1
667,635,632,-1
540,637,433,-1
671,431,636,-1
542,636,435,-1
673,436,638,-1
676,638,641,-1
672,642,637,-1
534,427,669,-1
533,668,633,-1
537,669,634,-1
533,534,669,-1
538,540,669,-1
533,669,668,-1
540,670,669,-1
666,631,668,-1
666,667,632,-1
667,670,635,-1
666,668,667,-1
669,670,668,-1
667,668,670,-1
540,433,670,-1
540,672,637,-1
543,436,673,-1
542,671,636,-1
538,671,540,-1
542,543,671,-1
540,671,672,-1
543,672,671,-1
543,673,672,-1
673,638,676,-1
672,677,642,-1
673,676,677,-1
672,673,677,-1
611,645,505,-1
681,640,646,-1
677,641,642,-1
678,644,643,-1
680,643,645,-1
679,660,644,-1
682,639,647,-1
675,648,640,-1
683,649,648,-1
685,647,650,-1
684,651,649,-1
686,653,651,-1
687,650,652,-1
688,654,653,-1
689,655,654,-1
690,661,655,-1
691,652,656,-1
630,664,524,-1
692,656,657,-1
693,646,658,-1
694,658,659,-1
696,659,661,-1
695,662,660,-1
697,657,662,-1
698,665,663,-1
699,663,664,-1
700,1358,665,-1
611,680,645,-1
675,640,681,-1
611,675,680,-1
675,681,680,-1
676,641,677,-1
678,643,680,-1
678,679,644,-1
679,695,660,-1
678,680,679,-1
680,681,695,-1
679,680,695,-1
674,639,682,-1
682,647,685,-1
675,683,648,-1
683,684,649,-1
685,650,687,-1
684,686,651,-1
686,688,653,-1
688,689,654,-1
689,690,655,-1
687,652,691,-1
691,656,692,-1
697,692,657,-1
630,699,664,-1
674,683,675,-1
674,682,683,-1
682,685,684,-1
683,682,684,-1
685,686,684,-1
685,687,686,-1
687,688,686,-1
687,691,688,-1
688,691,689,-1
689,692,690,-1
630,1290,699,-1
691,692,689,-1
690,692,697,-1
681,646,693,-1
693,658,694,-1
696,694,659,-1
696,661,690,-1
695,697,662,-1
698,663,699,-1
698,700,665,-1
681,693,695,-1
693,694,695,-1
695,694,697,-1
696,697,694,-1
696,690,697,-1
698,699,700,-1
700,699,1442,-1
775,702,703,-1
776,58,704,-1
131,712,59,-1
774,704,702,-1
777,716,705,-1
778,707,706,-1
779,708,707,-1
782,706,710,-1
781,711,709,-1
783,710,711,-1
789,703,717,-1
780,723,708,-1
794,709,722,-1
785,705,713,-1
784,713,712,-1
786,715,714,-1
788,714,716,-1
787,720,715,-1
790,717,718,-1
792,718,720,-1
791,721,719,-1
795,719,723,-1
793,724,721,-1
798,725,726,-1
799,728,727,-1
797,722,725,-1
801,736,729,-1
809,726,737,-1
800,730,728,-1
804,727,732,-1
803,733,731,-1
805,732,733,-1
802,743,730,-1
814,731,742,-1
819,742,747,-1
796,729,724,-1
806,735,734,-1
808,734,736,-1
807,739,735,-1
810,737,738,-1
811,738,739,-1
812,741,740,-1
815,740,743,-1
813,744,741,-1
816,753,744,-1
817,746,745,-1
774,702,775,-1
776,704,774,-1
775,703,789,-1
777,705,785,-1
778,779,707,-1
779,780,708,-1
778,706,782,-1
782,710,783,-1
781,783,711,-1
781,709,794,-1
780,795,723,-1
794,722,797,-1
130,776,131,-1
131,776,784,-1
776,777,784,-1
776,774,777,-1
774,775,789,-1
774,789,777,-1
778,780,779,-1
778,782,780,-1
780,782,781,-1
781,782,783,-1
780,781,794,-1
780,794,795,-1
131,784,712,-1
784,785,713,-1
777,788,716,-1
786,787,715,-1
786,714,788,-1
789,717,790,-1
787,792,720,-1
790,718,792,-1
791,793,721,-1
795,791,719,-1
793,796,724,-1
777,785,784,-1
777,789,788,-1
786,788,787,-1
787,788,789,-1
787,789,792,-1
789,790,792,-1
795,793,791,-1
795,796,793,-1
795,794,796,-1
797,725,798,-1
799,800,728,-1
796,801,729,-1
798,726,809,-1
800,802,730,-1
799,727,804,-1
804,732,805,-1
803,805,733,-1
803,731,814,-1
802,815,743,-1
814,742,819,-1
816,825,753,-1
794,797,798,-1
794,798,801,-1
798,809,801,-1
799,802,800,-1
799,804,802,-1
802,804,803,-1
803,804,805,-1
802,803,814,-1
802,814,815,-1
814,819,820,-1
814,820,825,-1
806,807,735,-1
806,734,808,-1
801,808,736,-1
809,737,810,-1
807,811,739,-1
810,738,811,-1
812,813,741,-1
812,740,815,-1
813,816,744,-1
817,818,746,-1
794,801,796,-1
806,808,807,-1
801,809,808,-1
807,808,809,-1
807,809,811,-1
809,810,811,-1
812,815,813,-1
813,815,816,-1
815,814,816,-1
814,825,816,-1
820,747,748,-1
821,750,749,-1
822,751,750,-1
826,749,754,-1
824,755,752,-1
825,759,753,-1
832,748,760,-1
823,766,751,-1
835,752,763,-1
827,754,755,-1
829,756,757,-1
828,763,756,-1
830,770,758,-1
843,757,771,-1
831,745,759,-1
818,762,746,-1
833,760,761,-1
834,761,762,-1
836,765,764,-1
838,764,766,-1
837,767,765,-1
839,758,767,-1
840,769,768,-1
842,768,770,-1
841,773,769,-1
844,771,772,-1
845,772,773,-1
819,747,820,-1
821,822,750,-1
821,749,826,-1
822,823,751,-1
824,827,755,-1
820,748,832,-1
824,752,835,-1
823,838,766,-1
826,754,827,-1
828,756,829,-1
828,835,763,-1
829,757,843,-1
830,758,839,-1
821,823,822,-1
821,826,823,-1
823,826,824,-1
824,826,827,-1
820,832,825,-1
823,824,835,-1
823,835,838,-1
829,830,835,-1
828,829,835,-1
829,843,830,-1
825,831,759,-1
817,745,831,-1
832,760,833,-1
818,834,762,-1
833,761,834,-1
836,837,765,-1
836,764,838,-1
837,839,767,-1
830,842,770,-1
840,841,769,-1
840,768,842,-1
843,771,844,-1
841,845,773,-1
825,832,831,-1
817,831,818,-1
818,831,832,-1
818,832,834,-1
832,833,834,-1
836,838,837,-1
837,838,839,-1
838,835,839,-1
830,839,835,-1
830,843,842,-1
840,842,841,-1
841,842,843,-1
841,843,845,-1
843,844,845,-1
844,772,845,-1
971,180,846,-1
973,846,848,-1
972,849,847,-1
986,847,861,-1
974,848,849,-1
975,851,850,-1
976,852,851,-1
979,850,854,-1
978,855,853,-1
977,877,852,-1
980,854,855,-1
982,856,857,-1
981,872,856,-1
983,859,858,-1
984,879,859,-1
987,861,862,-1
988,864,863,-1
990,862,865,-1
991,865,866,-1
989,867,864,-1
992,868,867,-1
993,869,868,-1
995,866,870,-1
996,870,871,-1
997,853,872,-1
998,874,873,-1
999,871,874,-1
1000,876,875,-1
1002,875,877,-1
1001,878,876,-1
1003,860,878,-1
985,884,860,-1
1008,857,883,-1
1005,858,880,-1
1006,880,881,-1
1007,881,882,-1
1004,883,879,-1
1007,882,885,-1
1009,887,884,-1
1011,885,886,-1
1012,886,887,-1
971,846,973,-1
972,974,849,-1
972,847,986,-1
973,848,974,-1
975,976,851,-1
976,977,852,-1
975,850,979,-1
978,853,997,-1
978,980,855,-1
979,854,980,-1
981,856,982,-1
983,984,859,-1
982,857,1008,-1
971,973,972,-1
972,973,974,-1
971,972,986,-1
975,977,976,-1
975,979,977,-1
977,979,978,-1
977,978,997,-1
978,979,980,-1
997,981,982,-1
997,982,985,-1
983,1004,984,-1
982,1008,985,-1
986,861,987,-1
987,862,990,-1
988,989,864,-1
990,865,991,-1
989,992,867,-1
992,993,868,-1
993,994,869,-1
996,871,999,-1
991,866,995,-1
996,995,870,-1
977,1002,877,-1
998,999,874,-1
1000,1001,876,-1
1000,875,1002,-1
1001,1003,878,-1
997,872,981,-1
985,860,1003,-1
985,1009,884,-1
986,987,988,-1
988,987,989,-1
987,990,989,-1
989,990,991,-1
989,991,992,-1
991,995,992,-1
992,995,993,-1
993,999,994,-1
993,995,996,-1
993,996,999,-1
977,997,1002,-1
994,999,998,-1
1000,1002,1001,-1
1001,1002,1003,-1
997,1003,1002,-1
997,985,1003,-1
985,1008,1009,-1
983,858,1005,-1
984,1004,879,-1
1007,1006,881,-1
1005,880,1006,-1
983,1005,1004,-1
1004,1005,1007,-1
1007,1005,1006,-1
1004,1007,1008,-1
1004,1008,883,-1
1007,885,1010,-1
1010,885,1011,-1
1009,1012,887,-1
1011,886,1012,-1
1008,1007,1009,-1
1009,1007,1010,-1
1009,1010,1012,-1
1010,1011,1012,-1
1014,888,889,-1
1016,889,891,-1
1029,890,904,-1
1015,892,890,-1
1017,893,892,-1
1018,895,893,-1
1019,891,894,-1
1020,896,895,-1
1021,897,896,-1
1023,894,898,-1
1024,900,899,-1
1025,901,900,-1
1057,899,933,-1
1013,903,888,-1
1028,906,903,-1
1030,904,905,-1
1031,908,906,-1
1032,905,907,-1
1033,911,908,-1
1034,907,909,-1
1035,909,910,-1
1036,912,911,-1
1038,910,913,-1
1037,916,912,-1
1039,913,914,-1
1040,914,915,-1
1041,927,916,-1
1022,917,897,-1
1043,898,918,-1
1042,918,917,-1
1026,919,901,-1
1027,902,920,-1
1045,943,921,-1
1046,926,922,-1
1047,922,923,-1
1048,915,924,-1
1049,924,925,-1
1050,925,926,-1
1051,928,927,-1
1052,923,928,-1
1054,930,919,-1
1056,921,932,-1
1053,931,929,-1
1054,929,930,-1
1055,954,931,-1
1027,934,902,-1
1058,933,934,-1
1059,936,935,-1
1060,937,936,-1
1063,935,939,-1
1062,940,938,-1
1064,939,940,-1
1066,920,942,-1
1067,944,943,-1
1069,942,945,-1
1068,947,944,-1
1070,945,946,-1
1071,948,947,-1
1073,946,949,-1
1072,950,948,-1
1075,955,951,-1
1074,951,950,-1
1076,932,952,-1
1077,952,953,-1
1078,956,954,-1
1079,953,955,-1
1081,949,957,-1
1080,957,956,-1
1083,959,937,-1
1082,960,958,-1
1083,958,959,-1
1084,963,960,-1
1065,962,941,-1
1085,965,961,-1
1086,938,962,-1
1087,961,963,-1
1088,966,964,-1
1089,964,965,-1
1090,970,966,-1
1013,888,1014,-1
1014,889,1016,-1
1029,1015,890,-1
1016,891,1019,-1
1015,1017,892,-1
1017,1018,893,-1
1019,894,1023,-1
1018,1020,895,-1
1020,1021,896,-1
1021,1022,897,-1
1023,898,1043,-1
1024,1025,900,-1
1025,1026,901,-1
1024,899,1057,-1
1013,1014,1029,-1
1014,1015,1029,-1
1014,1016,1015,-1
1016,1019,1018,-1
1016,1017,1015,-1
1016,1018,1017,-1
1019,1020,1018,-1
1019,1021,1020,-1
1019,1023,1021,-1
1021,1023,1022,-1
1024,1026,1025,-1
1024,1027,1026,-1
1024,1057,1027,-1
1013,1028,903,-1
1029,904,1030,-1
1030,905,1032,-1
1028,1031,906,-1
1032,907,1034,-1
1031,1033,908,-1
1033,1036,911,-1
1034,909,1035,-1
1036,1037,912,-1
1035,910,1038,-1
1038,913,1039,-1
1037,1041,916,-1
1039,914,1040,-1
1040,915,1048,-1
1022,1042,917,-1
1042,1043,918,-1
1027,920,1044,-1
1026,1054,919,-1
1044,920,1066,-1
1045,921,1056,-1
1050,926,1046,-1
1046,922,1047,-1
1047,923,1052,-1
1048,924,1049,-1
1050,1049,925,-1
1041,1051,927,-1
1052,928,1051,-1
1053,929,1054,-1
1053,1055,931,-1
1056,932,1076,-1
1055,1078,954,-1
1013,1029,1030,-1
1013,1030,1028,-1
1028,1030,1032,-1
1028,1032,1031,-1
1031,1032,1033,-1
1033,1032,1034,-1
1033,1034,1036,-1
1036,1034,1035,-1
1036,1035,1037,-1
1035,1038,1037,-1
1037,1038,1041,-1
1038,1039,1041,-1
1039,1040,1041,-1
1041,1040,1051,-1
1022,1023,1043,-1
1022,1043,1042,-1
1026,1027,1044,-1
1026,1044,1045,-1
1026,1045,1054,-1
1044,1067,1045,-1
1050,1046,1047,-1
1040,1048,1051,-1
1048,1049,1051,-1
1049,1052,1051,-1
1050,1052,1049,-1
1050,1047,1052,-1
1045,1056,1054,-1
1053,1054,1055,-1
1054,1056,1078,-1
1054,1078,1055,-1
1057,933,1058,-1
1027,1058,934,-1
1059,935,1063,-1
1059,1060,936,-1
1060,1061,937,-1
1062,1064,940,-1
1063,939,1064,-1
1027,1057,1058,-1
1059,1061,1060,-1
1059,1063,1061,-1
1061,1063,1062,-1
1062,1063,1064,-1
1045,1067,943,-1
1066,942,1069,-1
1067,1068,944,-1
1069,945,1070,-1
1068,1071,947,-1
1071,1072,948,-1
1061,1083,937,-1
1070,946,1073,-1
1073,949,1081,-1
1072,1074,950,-1
1075,1079,955,-1
1074,1075,951,-1
1076,952,1077,-1
1077,953,1079,-1
1078,1080,956,-1
1081,957,1080,-1
1082,958,1083,-1
1082,1084,960,-1
1062,938,1086,-1
1065,1086,962,-1
1087,1085,961,-1
1084,1087,963,-1
1085,1089,965,-1
1088,964,1089,-1
1088,1090,966,-1
1044,1066,1067,-1
1066,1069,1068,-1
1066,1068,1067,-1
1069,1071,1068,-1
1069,1070,1071,-1
1071,1070,1072,-1
1072,1070,1073,-1
1072,1073,1074,-1
1074,1081,1075,-1
1056,1076,1078,-1
1076,1077,1078,-1
1077,1079,1080,-1
1078,1077,1080,-1
1075,1080,1079,-1
1073,1081,1074,-1
1075,1081,1080,-1
1082,1083,1084,-1
1083,1087,1084,-1
1061,1062,1086,-1
1065,1091,1086,-1
1091,1085,1086,-1
1061,1086,1083,-1
1086,1085,1087,-1
1083,1086,1087,-1
1088,1089,1090,-1
1089,1092,1090,-1
1091,941,967,-1
1092,967,968,-1
1093,968,969,-1
1094,969,970,-1
1065,941,1091,-1
1091,967,1092,-1
1092,968,1093,-1
1090,1094,970,-1
1093,969,1094,-1
1091,1092,1085,-1
1085,1092,1089,-1
1092,1093,1094,-1
1092,1094,1090,-1
1228,1098,1101,-1
1225,1097,1098,-1
1227,1099,1100,-1
1230,1101,1103,-1
1229,1104,1102,-1
1231,1105,1104,-1
1232,1111,1105,-1
1226,1102,1099,-1
1224,1106,1097,-1
1233,1108,1106,-1
1234,1100,1107,-1
1235,1146,1108,-1
1236,1107,1109,-1
1274,1109,1147,-1
1237,1103,1110,-1
1238,1112,1111,-1
1239,1114,1112,-1
1240,1110,1113,-1
1241,1115,1114,-1
1243,1113,1116,-1
1242,1116,1115,-1
1244,1118,1117,-1
1245,1119,1118,-1
1252,1117,1125,-1
1250,1120,1123,-1
1249,1121,1122,-1
1248,1154,1121,-1
1246,1158,1119,-1
1251,1131,1124,-1
1288,1124,1161,-1
1247,1126,1120,-1
1253,1125,1126,-1
1254,1128,1127,-1
1255,1129,1128,-1
1257,1123,1130,-1
1258,1132,1131,-1
1260,1130,1133,-1
1262,1133,1135,-1
1259,1134,1132,-1
1261,1136,1134,-1
1263,1137,1136,-1
1264,1138,1137,-1
1266,1135,1139,-1
1267,1139,1140,-1
1303,1176,1129,-1
1269,1127,1142,-1
1268,1143,1141,-1
1270,1142,1143,-1
1271,1179,1144,-1
1306,1141,1179,-1
1307,1145,1180,-1
1272,1181,1145,-1
1225,1098,1228,-1
1225,1224,1097,-1
1226,1099,1227,-1
1226,1229,1102,-1
1228,1101,1230,-1
1229,1231,1104,-1
1230,1103,1237,-1
1231,1232,1105,-1
1224,1233,1106,-1
1227,1100,1234,-1
1234,1107,1236,-1
1233,1235,1108,-1
1235,1273,1146,-1
1236,1109,1274,-1
1232,1238,1111,-1
1237,1110,1240,-1
1238,1239,1112,-1
1239,1241,1114,-1
1240,1113,1243,-1
1241,1242,1115,-1
1242,1243,1116,-1
1244,1245,1118,-1
1245,1246,1119,-1
1244,1117,1252,-1
1247,1120,1250,-1
1248,1121,1249,-1
1250,1123,1257,-1
1246,1285,1158,-1
1251,1124,1288,-1
1225,1228,1226,-1
1225,1226,1227,-1
1225,1227,1224,-1
1228,1229,1226,-1
1228,1230,1229,-1
1229,1230,1231,-1
1230,1232,1231,-1
1230,1237,1232,-1
1224,1234,1233,-1
1233,1234,1235,-1
1224,1227,1234,-1
1235,1234,1236,-1
1235,1236,1273,-1
1273,1236,1274,-1
1232,1237,1238,-1
1238,1237,1239,-1
1237,1240,1239,-1
1239,1240,1241,-1
1240,1243,1241,-1
1241,1243,1242,-1
1244,1246,1245,-1
1244,1247,1246,-1
1244,1252,1247,-1
1246,1247,1250,-1
1246,1250,1251,-1
1281,1248,1249,-1
1250,1258,1251,-1
1246,1251,1285,-1
1251,1288,1285,-1
1247,1253,1126,-1
1252,1125,1253,-1
1254,1255,1128,-1
1254,1127,1269,-1
1255,1256,1129,-1
1251,1258,1131,-1
1257,1130,1260,-1
1258,1259,1132,-1
1260,1133,1262,-1
1259,1261,1134,-1
1261,1263,1136,-1
1263,1264,1137,-1
1264,1265,1138,-1
1262,1135,1266,-1
1256,1303,1129,-1
1266,1139,1267,-1
1267,1140,1302,-1
1268,1270,1143,-1
1269,1142,1270,-1
1268,1141,1306,-1
1306,1179,1271,-1
1307,1272,1145,-1
1272,1308,1181,-1
1247,1252,1253,-1
1254,1256,1255,-1
1250,1257,1258,-1
1257,1259,1258,-1
1257,1260,1259,-1
1259,1260,1261,-1
1261,1260,1262,-1
1261,1262,1263,-1
1263,1262,1266,-1
1263,1266,1264,-1
1264,1267,1265,-1
1264,1266,1267,-1
1267,1302,1265,-1
1254,1269,1256,-1
1256,1269,1268,-1
1268,1269,1270,-1
1256,1268,1306,-1
1306,1271,1327,-1
1256,1306,1303,-1
1306,1272,1307,-1
1306,1327,1272,-1
1273,1149,1146,-1
1275,1147,1148,-1
1276,1151,1149,-1
1277,1148,1150,-1
1279,1150,1152,-1
1278,1156,1151,-1
1280,1152,1153,-1
1282,1153,1155,-1
1281,1155,1154,-1
1283,1157,1156,-1
1284,1122,1157,-1
1286,1160,1159,-1
1285,1159,1158,-1
1287,1173,1160,-1
1289,522,1162,-1
1291,1162,1164,-1
1290,1164,1163,-1
1294,1165,1167,-1
1295,1169,1168,-1
1293,1167,1166,-1
1296,1170,1169,-1
1297,1186,1170,-1
1298,1161,1171,-1
1299,1171,1172,-1
1300,1175,1173,-1
1265,1174,1138,-1
1301,1172,1174,-1
1302,1140,1175,-1
1304,1178,1177,-1
1303,1177,1176,-1
1305,1180,1178,-1
1309,1183,1182,-1
1308,1182,1181,-1
1310,1203,1183,-1
1311,1166,1184,-1
1312,1184,1185,-1
1313,1187,1186,-1
1314,1188,1187,-1
1315,1189,1188,-1
1316,1190,1189,-1
1317,1194,1190,-1
1318,1185,1191,-1
1320,1192,1193,-1
1322,1191,1195,-1
1321,1195,1194,-1
1325,1198,1192,-1
1323,1197,1196,-1
1324,1206,1197,-1
1325,1199,1198,-1
1326,1196,1199,-1
1273,1276,1149,-1
1274,1147,1275,-1
1275,1148,1277,-1
1276,1278,1151,-1
1279,1152,1280,-1
1277,1150,1279,-1
1282,1280,1153,-1
1281,1154,1248,-1
1282,1155,1281,-1
1278,1283,1156,-1
1283,1284,1157,-1
1249,1122,1284,-1
1286,1287,1160,-1
1286,1159,1285,-1
1288,1161,1298,-1
1287,1300,1173,-1
1273,1274,1276,-1
1274,1275,1276,-1
1276,1275,1278,-1
1275,1277,1278,-1
1277,1279,1278,-1
1278,1279,1283,-1
1282,1281,1284,-1
1279,1280,1283,-1
1282,1283,1280,-1
1282,1284,1283,-1
1281,1249,1284,-1
1286,1285,1287,-1
1287,1285,1300,-1
1285,1288,1300,-1
1289,1162,1291,-1
1290,1291,1164,-1
1293,1166,1311,-1
1294,1167,1293,-1
1294,1292,1165,-1
1296,1169,1295,-1
1296,1297,1170,-1
1290,1289,1291,-1
630,1289,1290,-1
1293,1311,1297,-1
1294,1293,1296,-1
1294,1295,1292,-1
1294,1296,1295,-1
1296,1293,1297,-1
1298,1171,1299,-1
1265,1301,1174,-1
1299,1172,1301,-1
1300,1302,1175,-1
1304,1305,1178,-1
1304,1177,1303,-1
1305,1307,1180,-1
1309,1310,1183,-1
1309,1182,1308,-1
1288,1298,1300,-1
1298,1299,1300,-1
1299,1301,1302,-1
1265,1302,1301,-1
1300,1299,1302,-1
1304,1303,1305,-1
1305,1303,1307,-1
1306,1307,1303,-1
1309,1308,1310,-1
1310,1308,1328,-1
1311,1184,1312,-1
1312,1185,1318,-1
1297,1313,1186,-1
1313,1314,1187,-1
1314,1315,1188,-1
1315,1316,1189,-1
1316,1317,1190,-1
1319,1192,1320,-1
1318,1191,1322,-1
1317,1321,1194,-1
1321,1322,1195,-1
1319,1325,1192,-1
1323,1324,1197,-1
1324,1333,1206,-1
1326,1323,1196,-1
1325,1326,1199,-1
1297,1311,1313,-1
1311,1314,1313,-1
1311,1312,1314,-1
1312,1315,1314,-1
1312,1316,1315,-1
1312,1318,1316,-1
1318,1317,1316,-1
1319,1320,1324,-1
1318,1322,1317,-1
1317,1322,1321,-1
1319,1323,1325,-1
1319,1324,1323,-1
1320,1333,1324,-1
1325,1323,1326,-1
1327,1144,1200,-1
1328,1200,1201,-1
1271,1144,1327,-1
1327,1200,1328,-1
1272,1327,1328,-1
1272,1328,1308,-1
1329,1201,1202,-1
1330,1202,1203,-1
1331,1193,1204,-1
1332,1204,1205,-1
1333,1207,1206,-1
1334,1208,1207,-1
1335,1209,1208,-1
1336,1210,1209,-1
1338,1205,1211,-1
1337,1212,1210,-1
1339,1213,1212,-1
1341,1217,1214,-1
1342,1211,1215,-1
1343,1215,1216,-1
1344,1219,1217,-1
1347,1218,1220,-1
1349,1214,1222,-1
1345,1223,1218,-1
1348,1220,1221,-1
1346,1413,1219,-1
1350,1222,1223,-1
1310,1330,1203,-1
1328,1201,1329,-1
1329,1202,1330,-1
1310,1328,1330,-1
1328,1329,1330,-1
1320,1193,1331,-1
1331,1204,1332,-1
1332,1205,1338,-1
1333,1334,1207,-1
1334,1335,1208,-1
1335,1336,1209,-1
1336,1337,1210,-1
1337,1339,1212,-1
1339,1340,1213,-1
1338,1211,1342,-1
1342,1215,1343,-1
1343,1216,1478,-1
1341,1344,1217,-1
1345,1218,1347,-1
1344,1346,1219,-1
1320,1334,1333,-1
1320,1331,1334,-1
1331,1335,1334,-1
1331,1336,1335,-1
1331,1332,1336,-1
1336,1332,1337,-1
1332,1338,1337,-1
1337,1338,1339,-1
1339,1342,1340,-1
1339,1338,1342,-1
1342,1343,1340,-1
1341,1345,1344,-1
1344,1345,1346,-1
1345,1347,1346,-1
1341,1214,1349,-1
1347,1220,1348,-1
1348,1221,1499,-1
1345,1350,1223,-1
1349,1222,1350,-1
1341,1349,1345,-1
1347,1348,1346,-1
1346,1348,1497,-1
1345,1349,1350,-1
1292,1351,1165,-1
1435,1352,1351,-1
1440,1163,1356,-1
1437,1168,1353,-1
1438,1353,1354,-1
1436,1359,1352,-1
1439,1354,1355,-1
1441,1356,1357,-1
1442,1357,1358,-1
1443,1361,1359,-1
1444,1355,1360,-1
1445,1368,1361,-1
1446,1370,1362,-1
1447,1362,1363,-1
1449,1364,1365,-1
1450,1360,1366,-1
1451,1366,1367,-1
1452,1372,1368,-1
1453,1367,1369,-1
1455,1369,1371,-1
1454,1371,1370,-1
1456,1373,1372,-1
1457,1363,1373,-1
1448,1376,1364,-1
1458,1365,1374,-1
1459,1374,1375,-1
1460,1377,1376,-1
1461,1378,1377,-1
1290,1163,1440,-1
1435,1351,1292,-1
1435,1436,1352,-1
1295,1168,1437,-1
1437,1353,1438,-1
1436,1443,1359,-1
1438,1354,1439,-1
1290,1440,699,-1
1292,1295,1437,-1
1435,1292,1437,-1
1435,1437,1436,-1
1437,1438,1436,-1
1436,1438,1443,-1
1443,1438,1439,-1
1440,1356,1441,-1
700,1442,1358,-1
1441,1357,1442,-1
1439,1355,1444,-1
1443,1445,1361,-1
1444,1360,1450,-1
699,1440,1442,-1
1440,1441,1442,-1
1443,1439,1445,-1
1439,1444,1445,-1
1445,1444,1452,-1
1446,1362,1447,-1
1447,1363,1457,-1
1448,1364,1449,-1
1449,1365,1458,-1
1446,1447,1454,-1
1448,1449,1458,-1
1450,1366,1451,-1
1445,1452,1368,-1
1451,1367,1453,-1
1453,1369,1455,-1
1455,1371,1454,-1
1446,1454,1370,-1
1452,1456,1372,-1
1456,1457,1373,-1
1448,1460,1376,-1
1458,1374,1459,-1
1459,1375,1484,-1
1460,1461,1377,-1
1461,1462,1378,-1
1444,1450,1452,-1
1450,1451,1452,-1
1451,1456,1452,-1
1451,1453,1456,-1
1453,1455,1456,-1
1455,1457,1456,-1
1455,1454,1457,-1
1454,1447,1457,-1
1448,1458,1460,-1
1460,1458,1461,-1
1458,1459,1461,-1
1461,1459,1462,-1
1465,1379,1381,-1
1463,1380,1379,-1
1464,1382,1380,-1
1469,1381,1385,-1
1466,1389,1382,-1
1340,1384,1213,-1
1468,1383,1384,-1
1467,1385,1383,-1
1470,1387,1386,-1
1472,1386,1388,-1
1471,1395,1387,-1
1473,1390,1389,-1
1474,1391,1390,-1
1475,1393,1391,-1
1476,1388,1392,-1
1477,1406,1393,-1
1478,1216,1394,-1
1479,1394,1395,-1
1480,1392,1396,-1
1481,1396,1397,-1
1483,1398,1399,-1
1484,1375,1400,-1
1485,1400,1401,-1
1486,1401,1402,-1
1487,1402,1403,-1
1462,1404,1378,-1
1488,1405,1404,-1
1489,1408,1405,-1
1490,1407,1406,-1
1491,1403,1407,-1
1492,1397,1408,-1
1482,1411,1398,-1
1493,1399,1409,-1
1494,1409,1410,-1
1495,1412,1411,-1
1497,1414,1413,-1
1499,1221,1415,-1
1498,1416,1414,-1
1501,1415,1417,-1
1500,1419,1416,-1
1502,1417,1418,-1
1507,1418,1423,-1
1503,1420,1419,-1
1504,1421,1420,-1
1505,1422,1421,-1
1508,1423,1424,-1
1509,1424,1425,-1
1518,1425,1434,-1
1510,1410,1426,-1
1511,1426,1427,-1
1512,1427,1428,-1
1513,1428,1429,-1
1496,1430,1412,-1
1514,1433,1430,-1
1506,1431,1422,-1
1515,1429,1431,-1
1516,1434,1432,-1
1517,1432,1433,-1
1463,1379,1465,-1
1463,1464,1380,-1
1464,1466,1382,-1
1469,1465,1381,-1
1466,1473,1389,-1
1340,1468,1384,-1
1467,1383,1468,-1
1469,1385,1467,-1
1470,1471,1387,-1
1470,1386,1472,-1
1479,1395,1471,-1
1472,1388,1476,-1
1473,1474,1390,-1
1474,1475,1391,-1
1475,1477,1393,-1
1477,1490,1406,-1
1479,1478,1394,-1
1476,1392,1480,-1
1480,1396,1481,-1
1481,1397,1492,-1
1482,1398,1483,-1
1483,1399,1493,-1
1463,1465,1464,-1
1464,1465,1466,-1
1469,1470,1465,-1
1465,1470,1473,-1
1465,1473,1466,-1
1340,1478,1468,-1
1467,1468,1479,-1
1469,1467,1471,-1
1469,1471,1470,-1
1473,1470,1472,-1
1467,1479,1471,-1
1473,1472,1474,-1
1474,1472,1476,-1
1474,1476,1475,-1
1475,1480,1477,-1
1475,1476,1480,-1
1480,1481,1477,-1
1477,1481,1490,-1
1340,1343,1478,-1
1468,1478,1479,-1
1482,1483,1493,-1
1484,1400,1485,-1
1485,1401,1486,-1
1486,1402,1487,-1
1462,1488,1404,-1
1488,1489,1405,-1
1491,1407,1490,-1
1491,1487,1403,-1
1489,1492,1408,-1
1482,1495,1411,-1
1493,1409,1494,-1
1494,1410,1510,-1
1495,1496,1412,-1
1459,1484,1462,-1
1484,1485,1488,-1
1485,1486,1489,-1
1486,1487,1489,-1
1462,1484,1488,-1
1485,1489,1488,-1
1489,1487,1492,-1
1491,1492,1487,-1
1491,1490,1492,-1
1490,1481,1492,-1
1482,1493,1495,-1
1495,1493,1494,-1
1495,1494,1496,-1
1494,1510,1496,-1
1346,1497,1413,-1
1497,1498,1414,-1
1499,1415,1501,-1
1498,1500,1416,-1
1500,1503,1419,-1
1501,1417,1502,-1
1502,1418,1507,-1
1503,1504,1420,-1
1504,1505,1421,-1
1505,1506,1422,-1
1507,1423,1508,-1
1508,1424,1509,-1
1509,1425,1518,-1
1348,1499,1497,-1
1497,1499,1498,-1
1499,1501,1498,-1
1498,1501,1500,-1
1500,1502,1503,-1
1501,1502,1500,-1
1503,1502,1507,-1
1503,1507,1504,-1
1504,1507,1508,-1
1504,1508,1505,-1
1508,1509,1505,-1
1505,1518,1506,-1
1505,1509,1518,-1
1510,1426,1511,-1
1511,1427,1512,-1
1512,1428,1513,-1
1496,1514,1430,-1
1515,1431,1506,-1
1513,1429,1515,-1
1517,1516,1432,-1
1514,1517,1433,-1
1518,1434,1516,-1
1510,1511,1496,-1
1511,1512,1514,-1
1512,1513,1514,-1
1496,1511,1514,-1
1513,1517,1514,-1
1513,1515,1517,-1
1515,1516,1517,-1
1515,1506,1516,-1
1506,1518,1516,-1
]

colorPerVertex FALSE

color Color { color [
 0 0 0,
 1 1 1,
 0.976471 0.843137 0.172549, # default colour
] }

colorIndex [
0 0 0 0 0 0 0 0 0 0 0 0 0 0 0 0 0 0 0 0 0 0 0 0 0 0 0 0 0 0 0 0 0 0 0 0 0 0 0 0 0 0 0 0 0 0 0 0 0 0 0 0 0 0 0 0 0 0 0 0 0 0 0 0 0 0 0 0 0 0 0 0 0 0 0 0 0 0 0 0 0 0 0 0 0 0 0 0 0 0 0 0 0 0 0 0 0 0 0 0 0 0 0 0 0 0 0 0 0 0 0 0 0 0 0 0 0 0 0 0 0 0 0 0 0 0 0 0 0 0 0 0 0 0 0 0 0 0 0 0 0 0 0 0 0 0 0 0 0 0 0 0 0 0 0 0 0 0 0 0 0 0 0 0 0 0 0 0 0 0 0 0 0 0 0 0 0 0 0 0 0 0 0 0 0 0 0 0 0 0 0 0 0 0 0 0 0 0 0 0 0 0 0 0 0 0 0 0 0 0 0 0 0 0 0 0 0 0 0 0 0 0 0 0 0 0 0 0 0 0 0 0 0 0 0 0 0 0 0 0 0 0 0 0 0 0 0 0 0 0 0 0 0 0 0 0 0 0 0 0 0 0 0 0 0 0 0 0 0 0 0 0 0 0 0 0 0 0 0 0 0 0 0 0 0 0 0 0 0 0 0 0 0 0 0 0 0 0 0 0 0 0 0 0 0 0 0 0 0 0 0 0 0 0 0 0 0 0 0 0 0 0 0 0 0 0 0 0 0 0 0 0 0 0 0 0 0 0 0 0 0 0 0 0 0 0 0 0 0 0 0 0 0 0 0 0 0 0 0 0 0 0 0 0 0 0 0 0 0 0 0 0 0 0 0 0 0 0 0 0 0 0 0 0 0 0 0 0 0 0 0 0 0 0 0 0 0 0 0 0 0 0 0 0 0 0 0 0 0 0 0 0 0 0 0 0 0 0 0 0 0 0 0 0 0 0 0 0 0 0 0 0 0 0 0 0 0 0 0 0 0 0 0 0 0 0 0 0 0 0 0 0 0 0 0 0 0 0 0 0 0 0 0 0 0 0 0 0 0 0 0 0 0 0 0 0 0 0 0 0 0 0 0 0 0 0 0 0 0 0 0 0 0 0 0 0 0 0 0 0 0 0 0 0 0 0 0 0 0 0 0 0 0 0 0 0 0 0 0 0 0 0 0 0 0 0 0 0 0 0 0 0 0 0 0 0 0 0 0 0 0 0 0 0 0 0 0 0 0 0 0 0 0 0 0 0 0 0 0 0 0 0 0 0 0 0 0 0 0 0 0 0 0 0 0 0 0 0 0 0 0 0 0 0 0 0 0 0 0 0 0 0 0 0 0 0 0 0 0 0 0 0 0 0 0 0 0 0 0 0 0 0 0 0 0 0 0 0 0 0 0 0 0 0 0 0 0 0 0 0 0 0 0 0 0 0 0 0 0 0 0 0 0 0 0 0 0 0 0 0 0 0 0 0 0 0 0 0 0 0 0 0 0 0 0 0 0 0 0 0 0 0 0 0 0 0 0 0 0 0 0 0 0 0 0 0 0 0 0 0 0 0 0 0 0 0 0 0 0 0 0 0 0 0 0 0 0 0 0 0 0 0 0 0 0 0 0 0 0 0 0 0 0 0 0 0 0 0 0 0 0 0 0 0 0 0 0 0 0 0 0 0 0 0 0 0 0 0 0 0 0 0 0 0 0 0 0 0 0 0 0 0 0 0 0 0 0 0 0 0 0 0 0 0 0 0 0 0 0 0 0 0 0 0 0 0 0 0 0 0 0 0 0 0 0 0 0 0 0 0 0 0 0 0 0 0 0 0 0 0 0 0 0 1 1 1 1 1 1 1 1 1 1 1 1 1 1 1 1 1 1 1 1 1 1 1 1 1 1 1 1 1 1 1 1 1 1 1 1 1 1 1 1 1 1 1 1 1 1 1 1 1 1 1 1 1 1 1 1 1 1 1 1 1 1 1 1 1 1 1 1 1 1 1 1 1 1 1 1 1 1 1 1 1 1 1 1 1 1 1 1 1 1 1 1 1 1 1 1 1 1 1 1 1 1 1 1 1 1 1 1 1 1 1 1 1 1 1 1 1 1 1 1 1 1 1 1 1 1 1 1 1 1 1 1 1 1 1 1 1 1 1 1 1 1 1 1 1 1 1 1 1 1 1 1 1 1 1 1 1 1 1 1 1 1 1 1 1 1 1 1 1 1 1 1 1 1 1 1 1 1 1 1 1 1 1 1 1 1 1 1 1 1 1 1 1 1 1 1 1 1 1 1 1 1 1 1 1 1 1 1 1 1 1 1 1 1 1 1 1 1 1 1 1 1 1 1 1 1 1 1 1 1 1 1 1 1 1 1 1 1 1 1 1 1 1 1 1 1 1 1 1 1 1 1 1 1 1 1 1 1 1 1 1 1 1 1 1 1 1 1 1 1 1 1 1 1 1 1 1 1 1 1 1 1 1 1 1 1 1 1 1 1 1 1 1 1 1 1 1 1 1 1 1 1 1 1 1 1 1 1 1 1 1 1 1 1 1 1 1 1 1 1 1 1 1 1 1 1 1 1 1 1 1 1 1 1 1 1 1 1 1 1 1 1 1 1 1 1 1 1 1 1 1 1 1 1 1 1 1 1 1 1 1 1 1 1 1 1 1 1 1 1 1 1 1 1 1 1 1 1 1 1 1 1 1 1 1 1 1 1 1 1 1 1 1 1 1 1 1 1 1 1 1 1 1 1 1 1 1 1 1 1 1 1 1 1 1 1 1 1 1 1 1 1 1 1 1 1 1 1 1 1 1 1 1 1 1 1 1 1 1 1 1 1 1 1 1 1 1 1 1 1 1 1 1 1 1 1 1 1 1 1 1 1 1 1 1 1 1 1 1 1 1 1 1 1 1 1 1 1 1 1 1 1 1 1 1 1 1 1 1 1 1 1 1 1 1 1 1 1 1 1 1 1 1 1 1 1 1 1 1 1 1 1 1 1 1 1 1 1 1 1 1 1 1 1 1 1 1 1 1 1 1 1 1 1 1 1 1 1 1 1 1 1 1 1 1 1 1 1 1 1 1 1 1 1 1 1 1 1 1 1 1 1 1 1 1 1 1 1 1 1 1 1 1 1 1 1 1 1 1 1 1 1 1 1 1 1 1 1 1 1 1 1 1 1 1 1 1 1 1 1 1 1 1 1 1 1 1 1 1 1 1 1 1 1 1 1 1 1 1 1 1 1 1 1 1 1 1 1 1 1 1 1 1 1 1 1 1 1 1 1 1 1 1 1 1 1 1 1 1 1 1 1 1 1 1 1 1 1 1 1 1 1 1 1 1 1 1 1 1 1 1 1 1 1 1 1 1 1 1 1 1 1 1 1 1 1 1 1 1 1 1 1 1 1 1 1 1 1 1 1 1 1 1 1 1 1 1 1 1 1 1 1 1 1 1 1 1 1 1 1 1 1 1 1 1 1 1 1 1 1 1 1 1 1 1 1 1 1 1 1 1 1 1 1 1 1 1 1 1 1 1 1 1 1 1 1 1 1 1 1 1 1 1 1 1 1 1 1 1 1 1 1 1 1 1 1 1 1 1 1 1 1 1 1 1 1 1 1 1 1 1 1 1 1 1 1 1 1 1 1 1 1 1 1 1 1 1 1 1 1 1 1 1 1 1 1 1 1 1 1 1 1 1 1 1 1 1 1 1 1 1 1 1 1 1 1 1 1 1 1 1 1 1 1 1 1 1 1 1 1 1 1 1 1 1 1 1 1 1 1 1 1 1 1 1 1 1 1 1 1 1 1 1 1 1 1 1 1 1 1 1 1 1 1 1 1 1 1 1 1 1 1 1 1 1 1 1 1 1 1 1 1 1 1 1 1 1 1 1 1 1 1 1 1 1 1 1 1 1 1 1 1 1 1 1 1 1 1 1 1 1 1 1 1 1 1 1 1 1 1 1 1 1 1 1 1 1 1 1 1 1 1 1 1 1 1 1 1 1 1 1 1 1 1 1 1 1 1 1 1 1 1 1 1 1 1 1 1 1 1 1 1 1 1 1 1 1 1 1 1 1 1 1 1 1 1 1 1 1 1 1 1 1 1 1 1 1 1 1 1 1 1 1 1 1 1 1 1 1 1 1 1 1 1 1 1 1 1 1 1 1 1 1 1 1 1 1 1 1 1 1 1 1 1 1 1 1 1 1 1 1 1 1 1 1 1 1 1 1 1 1 1 1 1 1 1 1 1 1 1 1 1 1 1 1 1 1 1 1 1 1 1 1 1 1 1 1 1 1 1 1 1 1 1 1 1 1 1 1 1 1 1 1 1 1 1 1 1 1 1 1 1 1 1 1 1 1 1 1 1 1 1 1 1 1 1 1 1 1 1 1 1 1 1 1 1 1 1 1 1 1 1 1 1 1 1 1 1 1 1 1 1 1 1 1 1 1 1 1 1 1 1 1 1 1 1 1 1 1 1 1 1 1 1 1 1 1 1 1 1 1 1 1 1 1 1 1 1 1 1 1 1 1 1 1 1 1 1 1 1 1 1 1 1 1 1 1 1 1 1 1 1 1 1 1 1 1 1 1 1 1 1 1 1 1 1 1 1 1 1 1 1 1 1 1 1 1 1 1 1 1 1 1 1 1 1 1 1 1 1 1 1 1 1 1 1 1 1 1 1 1 1 1 1 1 1 1 1 1 1 1 1 1 1 1 1 1 1 1 1 1 1 1 1 1 1 1 1 1 1 1 1 1 1 1 1 1 1 1 1 1 1 1 1 1 1 1 1 1 1 1 1 1 1 1 1 1 1 1 1 1 1 1 1 1 1 1 1 1 1 1 1 1 1 1 1 1 1 1 1 1 1 1 1 1 1 1 1 1 1 1 1 1 1 1 1 1 1 1 1 1 1 1 1 1 1 1 1 1 1 1 1 1 1 1 1 1 1 1 1 1 1 1 1 1 1 1 1 1 1 1 1 1 1 1 1 1 1 1 1 1 1 1 1 1 1 1 1 1 1 1 1 1 1 1 1 1 1 1 1 1 1 1 1 1 1 1 1 1 1 1 1 1 1 1 1 1 1 1 1 1 1 1 1 1 1 1 1 1 1 1 1 1 1 1 1 1 1 1 1 1 1 1 1 1 1 1 1 1 1 1 1 1 1 1 1 1 1 1 1 1 1 1 1 1 1 1 1 1 1 1 1 1 1 1 1 1 1 1 1 1 1 1 1 1 1 1 1 1 1 1 1 1 1 1 1 1 1 1 1 1 1 1 1 1 1 1 1 1 1 1 1 1 1 1 1 1 1 1 1 1 1 1 1 1 1 1 1 1 1 1 1 1 1 1 1 1 1 1 1 1 1 1 1 1 1 1 1 1 1 1 1 1 1 1 1 1 1 1 1 1 1 1 1 1 1 1 1 1 1 1 1 1 1 1 1 1 1 1 1 1 1 1 1 1 1 1 1 1 1 1 1 1 1 1 1 1 1 1 1 1 1 1 1 1 1 1 1 1 1 1 1 1 1 1 1 1 1 1 1 1 1 1 1 1 1 1 1 1 1 1 1 1 1 1 1 1 1 1 1 1 1 1 1 1 1 1 1 1 1 1 1 1 1 1 1 1 1 1 1 1 1 1 1 1 1 1 1 1 1 1 1 1 1 1 1 1 1 1 1 1 1 1 1 1 1 1 1 1 1 1 1 1 1 1 1 1 1 1 1 1 1 1 1 1 1 1 1 1 1 1 1 1 1 1 1 1 1 1 1 1 1 1 1 1 1 1 1 1 1 1 1 1 1 1 1 1 1 1 1 1 1 1 1 1 1 1 1 1 1 1 1 1 1 1 1 1 1 1 1 1 1 1 1 1 1 1 1 1 1 1 1 1 1 1 1 1 1 1 1 1 1 1 1 1 1 1 1 1 1 1 1 1 1 1 1 1 1 1 1 1 1 1 1 1 1 1 1 1 1 1 1 1 1 1 1 1 1 1 1 1 1 1 1 1 1 1 1 1 1 1 1 1 1 1 1 1 1 1 1 1 1 1 1 1 1 1 1 1 1 1 1 1 1 1 1 1 1 1 1 1 1 1 1 1 1 1 1 1 1 1 1 1 1 1 1 1 1 1 1 1 1 1 1 1 1 1 1 1 1 1 1 1 1 1 1 1 1 1 1 1 1 1 1 1 1 1 1 1 1 1 1 1 1 1 1 1 1 1 1 1 1 1 1 1 1 1 1 1 1 1 1 1 1 1 1 1 1 1 1 1 1 1 1 1 1 1 1 1 1 1 1 1 1 1 1 1 1 1 1 1 1 1 1 1 1 1 1 1 1 1 1 1 1 1 1 1 1 1 1 1 1 1 1 1 1 1 1 1 1 1 1 1 1 1 1 1 1 1 1 1 1 1 1 1 1 1 1 1 1 1 1 1 1 1 1 1 1 1 1 1 1 1 1 1 1 1 1 1 1 1 1 1 1 1 1 1 1 1 1 1 1 1 1 1 1 1 1 1 1 1 1 1 1 1 1 1 1 1 1 1 1 1 1 1 1 1 1 1 1 1 1 1 1 1 1 1 1 1 1 1 1 1 1 1 1 1 1 1 1 1 1 1 1 1 1 1 1 1 1 1 1 1 1 1 1 1 1 1 1 1 1 1 1 1 1 1 1 1 1 1 1 1 1 1 1 1 1 1 1 1 1 1 1 1 1 1 1 1 1 1 1 1 1 1 1 1 1 1 1 1 1 1 1 1 1 1 1 1 1 1 1 1 1 1 1 1 1 1 1 1 1 1 1 1 1 1 1 1 1 1 1 1 1 1 1 1 1 1 1 1 1 1 1 1 1 1 1 1 1 1 1 1 ]

}

}
