#VRML V2.0 utf8

Shape {

appearance Appearance { material Material {
ambientIntensity 0.3
diffuseColor 0.97647 0.843137 0.172549
specularColor 0.2 0.2 0.2
shininess 0.3
} }

geometry IndexedFaceSet {

creaseAngle 0.5

coord Coordinate { point [
0 0 0,
0 0 1.78,
0.711787 3 1.78,
0.711787 3.05391 1.78,
0.711787 3 1.98,
0.711787 3.05391 1.98,
0.295763 4.31014 1.78,
0.295763 4.36406 1.78,
0.449348 4.28368 1.78,
0.689407 4.28368 1.78,
0.295763 4.31014 1.98,
0.295763 4.36406 1.98,
0.449348 4.28368 1.98,
0.689407 4.28368 1.98,
0.928447 3.08138 1.78,
1.12477 3.08138 1.78,
0.928447 3.53097 1.78,
1.08103 3.65405 1.78,
1.12477 3.53707 1.78,
1.34143 3 1.78,
1.34143 3.05391 1.78,
0.928447 3.08138 1.98,
1.12477 3.08138 1.98,
0.928447 3.53097 1.98,
1.08103 3.65405 1.98,
1.12477 3.53707 1.98,
1.34143 3 1.98,
1.34143 3.05391 1.98,
0.872497 4.31014 1.78,
0.872497 4.36406 1.78,
1.28039 4.31014 1.78,
1.28039 4.36406 1.78,
1.45331 4.28368 1.78,
1.57436 4.28368 1.78,
0.872497 4.31014 1.98,
0.872497 4.36406 1.98,
1.28039 4.31014 1.98,
1.28039 4.36406 1.98,
1.45331 4.28368 1.98,
1.57436 4.28368 1.98,
2.2163 3 1.78,
2.2163 3.05391 1.78,
2.43296 3.08138 1.78,
2.43296 3.53097 1.78,
2.2163 3 1.98,
2.2163 3.05391 1.98,
2.43296 3.08138 1.98,
2.43296 3.53097 1.98,
1.72388 4.31014 1.78,
1.72388 4.36406 1.78,
1.80028 4.31014 1.78,
1.80028 4.36406 1.78,
1.95386 4.28368 1.78,
2.19392 4.28368 1.78,
2.37701 4.31014 1.78,
2.37701 4.36406 1.78,
1.72388 4.31014 1.98,
1.72388 4.36406 1.98,
1.80028 4.31014 1.98,
1.80028 4.36406 1.98,
1.95386 4.28368 1.98,
2.19392 4.28368 1.98,
2.37701 4.31014 1.98,
2.37701 4.36406 1.98,
2.21784 9.1602 1.78,
2.43959 9.0248 1.78,
2.52516 9.09714 1.78,
2.21784 9.1602 1.98,
2.43959 9.0248 1.98,
2.52516 9.09714 1.98,
2.07899 9.37699 1.78,
2.03271 9.66625 1.78,
2.07721 9.97535 1.78,
2.27671 9.40637 1.78,
2.24531 9.6683 1.78,
2.37093 9.21462 1.78,
2.27531 9.94852 1.78,
2.21072 10.1988 1.78,
2.36534 10.1443 1.78,
2.43171 10.3342 1.78,
2.52071 10.2595 1.78,
2.07899 9.37699 1.98,
2.03271 9.66625 1.98,
2.07721 9.97535 1.98,
2.27671 9.40637 1.98,
2.24531 9.6683 1.98,
2.37093 9.21462 1.98,
2.27531 9.94852 1.98,
2.21072 10.1988 1.98,
2.36534 10.1443 1.98,
2.43171 10.3342 1.98,
2.52071 10.2595 1.98,
2.62928 3.08138 1.78,
2.84594 3 1.78,
2.84594 3.05391 1.78,
2.62928 3.53707 1.78,
2.58554 3.65405 1.78,
2.62928 3.08138 1.98,
2.84594 3 1.98,
2.84594 3.05391 1.98,
2.62928 3.53707 1.98,
2.58554 3.65405 1.98,
2.78491 4.31014 1.78,
2.78491 4.36406 1.78,
2.95783 4.28368 1.78,
3.07888 4.28368 1.78,
3.2284 4.31014 1.78,
3.2284 4.36406 1.78,
3.28343 4.31014 1.78,
3.28343 4.36406 1.78,
3.40244 4.28368 1.78,
2.78491 4.31014 1.98,
2.78491 4.36406 1.98,
2.95783 4.28368 1.98,
3.07888 4.28368 1.98,
3.2284 4.31014 1.98,
3.2284 4.36406 1.98,
3.28343 4.31014 1.98,
3.28343 4.36406 1.98,
3.40244 4.28368 1.98,
3.85406 2.96847 1.78,
3.90799 2.96847 1.78,
3.92833 3.32245 1.78,
3.85406 2.96847 1.98,
3.90799 2.96847 1.98,
3.92833 3.32245 1.98,
3.60385 4.28368 1.78,
3.80423 4.31014 1.78,
3.80423 4.36406 1.78,
3.60385 4.28368 1.98,
3.80423 4.31014 1.98,
3.80423 4.36406 1.98,
4.62509 2.96847 1.78,
4.679 2.96847 1.78,
4.27112 3.90835 1.78,
4.69528 3.32245 1.78,
4.62509 2.96847 1.98,
4.679 2.96847 1.98,
4.27112 3.90835 1.98,
4.69528 3.32245 1.98,
4.29553 4.26843 1.78,
4.34131 4.26843 1.78,
4.79192 4.31014 1.78,
4.79192 4.36406 1.78,
5.0045 4.28368 1.78,
4.29553 4.26843 1.98,
4.34131 4.26843 1.98,
4.79192 4.31014 1.98,
4.79192 4.36406 1.98,
5.0045 4.28368 1.98,
5.82041 2.96847 1.78,
5.87434 2.96847 1.78,
5.89468 3.32245 1.78,
5.82041 2.96847 1.98,
5.87434 2.96847 1.98,
5.89468 3.32245 1.98,
5.12453 4.28368 1.78,
5.24354 4.31014 1.78,
5.24978 4.31014 1.78,
5.24354 4.36406 1.78,
5.24978 4.36406 1.78,
5.36879 4.28368 1.78,
5.5702 4.28368 1.78,
5.77058 4.31014 1.78,
5.77058 4.36406 1.78,
5.12453 4.28368 1.98,
5.24354 4.31014 1.98,
5.24978 4.31014 1.98,
5.24354 4.36406 1.98,
5.24978 4.36406 1.98,
5.36879 4.28368 1.98,
5.5702 4.28368 1.98,
5.77058 4.31014 1.98,
5.77058 4.36406 1.98,
3.64709 6 1.78,
3.64709 6.05391 1.78,
3.80171 6.08138 1.78,
3.91257 6.08138 1.78,
4.09567 6 1.78,
4.09567 6.05391 1.78,
4.0499 6.47502 1.78,
3.64709 6 1.98,
3.64709 6.05391 1.98,
3.80171 6.08138 1.98,
3.91257 6.08138 1.98,
4.09567 6 1.98,
4.09567 6.05391 1.98,
4.0499 6.47502 1.98,
4.0804 6.56658 1.78,
4.0804 6.56658 1.98,
2.73458 8.97966 1.78,
2.73662 9.05798 1.78,
2.84926 9.06497 1.78,
2.98353 8.99568 1.78,
2.9553 9.08595 1.78,
3.04736 9.11863 1.78,
3.11805 9.16071 1.78,
3.2157 9.04374 1.78,
3.41009 9 1.78,
3.41009 9.05391 1.78,
2.73458 8.97966 1.98,
2.73662 9.05798 1.98,
2.84926 9.06497 1.98,
2.98353 8.99568 1.98,
2.9553 9.08595 1.98,
3.04736 9.11863 1.98,
3.11805 9.16071 1.98,
3.2157 9.04374 1.98,
3.41009 9 1.98,
3.41009 9.05391 1.98,
2.74678 10.2979 1.78,
2.73864 10.3793 1.78,
2.84354 10.292 1.78,
2.93852 10.274 1.78,
2.95912 10.3663 1.78,
3.15569 9.36416 1.78,
3.2218 9.36416 1.78,
3.13432 10.0294 1.78,
3.02689 10.2452 1.78,
3.10381 10.2064 1.78,
3.19536 10.3274 1.78,
3.20147 10.0294 1.78,
3.39685 10.3101 1.78,
3.39685 10.3641 1.78,
2.74678 10.2979 1.98,
2.73864 10.3793 1.98,
2.84354 10.292 1.98,
2.93852 10.274 1.98,
2.95912 10.3663 1.98,
3.15569 9.36416 1.98,
3.2218 9.36416 1.98,
3.13432 10.0294 1.98,
3.02689 10.2452 1.98,
3.10381 10.2064 1.98,
3.19536 10.3274 1.98,
3.20147 10.0294 1.98,
3.39685 10.3101 1.98,
3.39685 10.3641 1.98,
3.57181 9.08138 1.78,
3.76813 9.08138 1.78,
3.98479 9 1.78,
3.98479 9.05391 1.78,
3.57181 9.08138 1.98,
3.76813 9.08138 1.98,
3.98479 9 1.98,
3.98479 9.05391 1.98,
3.76813 9.53503 1.78,
3.76813 9.62659 1.78,
3.57181 10.2837 1.78,
3.76813 10.2725 1.78,
3.87392 9.62659 1.78,
3.92172 9.53503 1.78,
4.02331 9.64617 1.78,
4.13114 9.56224 1.78,
4.1277 9.70491 1.78,
4.18911 9.8079 1.78,
3.86781 10.2725 1.78,
3.91155 10.3641 1.78,
4.02624 10.2544 1.78,
4.20959 9.96023 1.78,
4.19 10.1042 1.78,
4.13126 10.2003 1.78,
3.76813 9.53503 1.98,
3.76813 9.62659 1.98,
3.57181 10.2837 1.98,
3.76813 10.2725 1.98,
3.87392 9.62659 1.98,
3.92172 9.53503 1.98,
4.02331 9.64617 1.98,
4.13114 9.56224 1.98,
4.1277 9.70491 1.98,
4.18911 9.8079 1.98,
3.86781 10.2725 1.98,
3.91155 10.3641 1.98,
4.02624 10.2544 1.98,
4.20959 9.96023 1.98,
4.19 10.1042 1.98,
4.13126 10.2003 1.98,
4.53916 6 1.78,
4.53916 6.05391 1.78,
4.58697 6.47502 1.78,
4.72225 6.08138 1.78,
4.94298 6.08138 1.78,
4.53916 6 1.98,
4.53916 6.05391 1.98,
4.58697 6.47502 1.98,
4.72225 6.08138 1.98,
4.94298 6.08138 1.98,
4.55544 6.56658 1.78,
4.26655 7.37524 1.78,
4.31436 7.22877 1.78,
4.45982 7.37524 1.78,
4.55544 6.56658 1.98,
4.26655 7.37524 1.98,
4.31436 7.22877 1.98,
4.45982 7.37524 1.98,
5.11592 6 1.78,
5.11592 6.05391 1.78,
5.2045 6 1.78,
5.2045 6.05391 1.78,
5.36624 6.08138 1.78,
5.56256 6.08138 1.78,
5.76903 6 1.78,
5.76903 6.05391 1.78,
5.11592 6 1.98,
5.11592 6.05391 1.98,
5.2045 6 1.98,
5.2045 6.05391 1.98,
5.36624 6.08138 1.98,
5.56256 6.08138 1.98,
5.76903 6 1.98,
5.76903 6.05391 1.98,
5.19128 7.31014 1.78,
5.19128 7.36406 1.78,
5.36624 7.28368 1.78,
5.56256 6.59811 1.78,
5.56256 6.68965 1.78,
5.74259 6.68965 1.78,
5.80769 6.59811 1.78,
5.89835 6.70656 1.78,
5.56256 7.2725 1.78,
5.73648 7.2725 1.78,
5.78022 7.36406 1.78,
5.89809 7.25609 1.78,
5.19128 7.31014 1.98,
5.19128 7.36406 1.98,
5.36624 7.28368 1.98,
5.56256 6.59811 1.98,
5.56256 6.68965 1.98,
5.74259 6.68965 1.98,
5.80769 6.59811 1.98,
5.89835 6.70656 1.98,
5.56256 7.2725 1.98,
5.73648 7.2725 1.98,
5.78022 7.36406 1.98,
5.89809 7.25609 1.98,
4.5555 9 1.78,
4.5555 9.05391 1.78,
4.73046 9.08138 1.78,
4.83726 9.08138 1.78,
5.02035 9 1.78,
5.02035 9.05391 1.78,
4.5555 9 1.98,
4.5555 9.05391 1.98,
4.73046 9.08138 1.98,
4.83726 9.08138 1.98,
5.02035 9 1.98,
5.02035 9.05391 1.98,
4.28537 9.64388 1.78,
4.38035 9.77789 1.78,
4.41201 9.96226 1.78,
4.28689 10.2636 1.78,
4.5555 10.3101 1.78,
4.5555 10.3641 1.78,
4.73046 10.2837 1.78,
4.83726 10.2267 1.78,
4.96848 10.3641 1.78,
4.28537 9.64388 1.98,
4.38035 9.77789 1.98,
4.41201 9.96226 1.98,
4.28689 10.2636 1.98,
4.5555 10.3101 1.98,
4.5555 10.3641 1.98,
4.73046 10.2837 1.98,
4.83726 10.2267 1.98,
4.96848 10.3641 1.98,
5.67847 9 1.78,
5.77714 9 1.78,
5.67847 9 1.98,
5.77714 9 1.98,
5.48724 10.3101 1.78,
5.48724 10.3641 1.78,
5.67033 9.35398 1.78,
5.67033 10.2837 1.78,
5.77714 10.2837 1.78,
5.48724 10.3101 1.98,
5.48724 10.3641 1.98,
5.67033 9.35398 1.98,
5.67033 10.2837 1.98,
5.77714 10.2837 1.98,
0 21 0,
-0.820699 15 1.68,
-0.820699 15.097 1.68,
-0.505772 15.1465 1.68,
0 15 1.68,
-0.313532 15.1465 1.68,
0 15.0994 1.68,
0 15 1.78,
0.0160305 15 1.78,
0 15.0994 1.78,
0.0160305 15.097 1.78,
-0.820699 15 1.98,
-0.820699 15.097 1.98,
-0.505772 15.1465 1.98,
0.0160305 15 1.98,
-0.313532 15.1465 1.98,
0.0160305 15.097 1.98,
0.58546 15 1.78,
0.649531 15 1.78,
0.720946 15.5877 1.78,
0.58546 15 1.98,
0.649531 15 1.98,
0.720946 15.5877 1.98,
2.07899 12.377 1.78,
2.03271 12.6663 1.78,
2.07721 12.9754 1.78,
2.21784 12.1602 1.78,
2.27671 12.4064 1.78,
2.43959 12.0248 1.78,
2.52516 12.0971 1.78,
2.37093 12.2146 1.78,
2.24531 12.6683 1.78,
2.27531 12.9485 1.78,
2.07899 12.377 1.98,
2.03271 12.6663 1.98,
2.07721 12.9754 1.98,
2.21784 12.1602 1.98,
2.27671 12.4064 1.98,
2.43959 12.0248 1.98,
2.52516 12.0971 1.98,
2.37093 12.2146 1.98,
2.24531 12.6683 1.98,
2.27531 12.9485 1.98,
1.29953 15 1.78,
1.29953 15.097 1.78,
1.62909 15.1465 1.78,
1.29953 15 1.98,
1.29953 15.097 1.98,
1.62909 15.1465 1.98,
2.21072 13.1988 1.78,
2.36534 13.1443 1.78,
2.43171 13.3342 1.78,
2.52071 13.2595 1.78,
2.21072 13.1988 1.98,
2.36534 13.1443 1.98,
2.43171 13.3342 1.98,
2.52071 13.2595 1.98,
1.98063 15.1465 1.78,
2.29556 15 1.78,
2.29556 15.097 1.78,
1.98063 15.1465 1.98,
2.29556 15 1.98,
2.29556 15.097 1.98,
0 16.3748 1.68,
-0.820699 17.3583 1.68,
-0.820699 17.4553 1.68,
-0.505772 17.3106 1.68,
-0.313532 17.1111 1.68,
0 17.2744 1.68,
-0.0773355 17.4553 1.68,
0 16.3748 1.78,
0 17.2744 1.78,
-0.820699 17.3583 1.98,
-0.820699 17.4553 1.98,
-0.505772 17.3106 1.98,
-0.313532 17.1111 1.98,
-0.0773355 17.4553 1.98,
0.824291 18.1131 1.78,
0.784194 18.212 1.78,
0.770829 18.3209 1.78,
0.824291 18.1131 1.98,
0.784194 18.212 1.98,
0.770829 18.3209 1.98,
0 21 1.78,
0.784389 18.4332 1.78,
0.825069 18.5332 1.78,
0.784389 18.4332 1.98,
0.825069 18.5332 1.98,
0.89112 18.0244 1.78,
0.978126 17.9546 1.78,
1.07869 17.9128 1.78,
1.1928 17.8988 1.78,
1.62909 17.1111 1.78,
1.59248 17.4553 1.78,
1.30691 17.9128 1.78,
1.40745 17.9546 1.78,
1.49443 18.0244 1.78,
1.56129 18.1131 1.78,
1.6014 18.212 1.78,
1.61477 18.3209 1.78,
0.89112 18.0244 1.98,
0.978126 17.9546 1.98,
1.07869 17.9128 1.98,
1.1928 17.8988 1.98,
1.62909 17.1111 1.98,
1.59248 17.4553 1.98,
1.30691 17.9128 1.98,
1.40745 17.9546 1.98,
1.49443 18.0244 1.98,
1.56129 18.1131 1.98,
1.6014 18.212 1.98,
1.61477 18.3209 1.98,
1.98063 17.3106 1.78,
2.29556 17.3583 1.78,
2.29556 17.4553 1.78,
1.98063 17.3106 1.98,
2.29556 17.3583 1.98,
2.29556 17.4553 1.98,
0.892869 18.6207 1.78,
0.980457 18.6886 1.78,
1.08043 18.7293 1.78,
1.1928 18.7428 1.78,
1.40512 18.6886 1.78,
1.49268 18.6207 1.78,
1.30516 18.7293 1.78,
1.60121 18.4332 1.78,
1.56051 18.5332 1.78,
0.892869 18.6207 1.98,
0.980457 18.6886 1.98,
1.08043 18.7293 1.98,
1.1928 18.7428 1.98,
1.40512 18.6886 1.98,
1.49268 18.6207 1.98,
1.30516 18.7293 1.98,
1.60121 18.4332 1.98,
1.56051 18.5332 1.98,
2.73458 11.9797 1.78,
2.73662 12.058 1.78,
2.84926 12.065 1.78,
2.98353 11.9957 1.78,
2.9553 12.086 1.78,
3.04736 12.1186 1.78,
3.11805 12.1607 1.78,
3.15569 12.3642 1.78,
3.2157 12.0437 1.78,
3.41009 12 1.78,
3.41009 12.0539 1.78,
3.2218 12.3642 1.78,
3.13432 13.0294 1.78,
3.20147 13.0294 1.78,
2.73458 11.9797 1.98,
2.73662 12.058 1.98,
2.84926 12.065 1.98,
2.98353 11.9957 1.98,
2.9553 12.086 1.98,
3.04736 12.1186 1.98,
3.11805 12.1607 1.98,
3.15569 12.3642 1.98,
3.2157 12.0437 1.98,
3.41009 12 1.98,
3.41009 12.0539 1.98,
3.2218 12.3642 1.98,
3.13432 13.0294 1.98,
3.20147 13.0294 1.98,
3.57181 12.0814 1.78,
3.76813 12.0814 1.78,
3.76813 12.535 1.78,
3.76813 12.6266 1.78,
3.98479 12 1.78,
3.98479 12.0539 1.78,
3.87392 12.6266 1.78,
3.92172 12.535 1.78,
4.02331 12.6462 1.78,
4.13114 12.5622 1.78,
4.1277 12.7049 1.78,
4.18911 12.8079 1.78,
4.20959 12.9602 1.78,
4.19 13.1042 1.78,
3.57181 12.0814 1.98,
3.76813 12.0814 1.98,
3.76813 12.535 1.98,
3.76813 12.6266 1.98,
3.98479 12 1.98,
3.98479 12.0539 1.98,
3.87392 12.6266 1.98,
3.92172 12.535 1.98,
4.02331 12.6462 1.98,
4.13114 12.5622 1.98,
4.1277 12.7049 1.98,
4.18911 12.8079 1.98,
4.20959 12.9602 1.98,
4.19 13.1042 1.98,
2.74678 13.2979 1.78,
2.73864 13.3793 1.78,
2.84354 13.292 1.78,
2.93852 13.274 1.78,
2.95912 13.3663 1.78,
3.02689 13.2452 1.78,
3.10381 13.2064 1.78,
3.19536 13.3274 1.78,
3.39685 13.3101 1.78,
3.39685 13.3641 1.78,
2.74678 13.2979 1.98,
2.73864 13.3793 1.98,
2.84354 13.292 1.98,
2.93852 13.274 1.98,
2.95912 13.3663 1.98,
3.02689 13.2452 1.98,
3.10381 13.2064 1.98,
3.19536 13.3274 1.98,
3.39685 13.3101 1.98,
3.39685 13.3641 1.98,
3.57181 13.2837 1.78,
3.76813 13.2725 1.78,
3.86781 13.2725 1.78,
3.91155 13.3641 1.78,
4.02624 13.2544 1.78,
4.13126 13.2003 1.78,
3.57181 13.2837 1.98,
3.76813 13.2725 1.98,
3.86781 13.2725 1.98,
3.91155 13.3641 1.98,
4.02624 13.2544 1.98,
4.13126 13.2003 1.98,
3.47497 15 1.78,
3.47497 15.097 1.78,
3.76609 15.1465 1.78,
4.11946 15.1465 1.78,
3.47497 15 1.98,
3.47497 15.097 1.98,
3.76609 15.1465 1.98,
4.11946 15.1465 1.98,
4.5555 12 1.78,
4.5555 12.0539 1.78,
4.28537 12.6439 1.78,
4.38035 12.7779 1.78,
4.41201 12.9623 1.78,
4.73046 12.0814 1.78,
4.83726 12.0814 1.78,
5.02035 12 1.78,
5.02035 12.0539 1.78,
4.73046 12.7217 1.78,
4.5555 12 1.98,
4.5555 12.0539 1.98,
4.28537 12.6439 1.98,
4.38035 12.7779 1.98,
4.41201 12.9623 1.98,
4.73046 12.0814 1.98,
4.83726 12.0814 1.98,
5.02035 12 1.98,
5.02035 12.0539 1.98,
5.67847 12 1.78,
5.67033 12.354 1.78,
5.77714 12 1.78,
5.67847 12 1.98,
5.67033 12.354 1.98,
5.77714 12 1.98,
4.28689 13.2636 1.78,
4.5555 13.3101 1.78,
4.5555 13.3641 1.78,
4.73046 13.2837 1.78,
4.83726 13.2267 1.78,
4.96848 13.3641 1.78,
4.28689 13.2636 1.98,
4.5555 13.3101 1.98,
4.5555 13.3641 1.98,
4.73046 13.2837 1.98,
4.83726 13.2267 1.98,
4.96848 13.3641 1.98,
4.50945 15 1.78,
4.50945 15.097 1.78,
4.50945 15 1.98,
4.50945 15.097 1.98,
5.48724 13.3101 1.78,
5.48724 13.3641 1.78,
5.67033 13.2837 1.78,
5.77714 13.2837 1.78,
5.48724 13.3101 1.98,
5.48724 13.3641 1.98,
5.67033 13.2837 1.98,
5.77714 13.2837 1.98,
5.56418 15 1.78,
5.56418 15.097 1.78,
5.87911 15.1465 1.78,
5.56418 15 1.98,
5.56418 15.097 1.98,
5.87911 15.1465 1.98,
4.11946 15.9631 1.78,
4.11946 16.1279 1.78,
4.11946 15.9631 1.98,
4.11946 16.1279 1.98,
3.45116 17.3583 1.78,
3.45116 17.4553 1.78,
3.76609 17.3106 1.78,
4.11946 17.2905 1.78,
3.45116 17.3583 1.98,
3.45116 17.4553 1.98,
3.76609 17.3106 1.98,
4.11946 17.2905 1.98,
4.39592 15.9631 1.78,
4.30987 16.1279 1.78,
4.57878 16.1631 1.78,
4.77287 16.012 1.78,
4.76668 16.2688 1.78,
5.05048 16.159 1.78,
4.87723 16.4542 1.78,
4.87883 16.9875 1.78,
4.91407 16.7284 1.78,
4.39592 15.9631 1.98,
4.30987 16.1279 1.98,
4.57878 16.1631 1.98,
4.77287 16.012 1.98,
4.76668 16.2688 1.98,
5.05048 16.159 1.98,
4.87723 16.4542 1.98,
4.87883 16.9875 1.98,
4.91407 16.7284 1.98,
4.29888 17.2905 1.78,
4.37761 17.4553 1.78,
4.58405 17.258 1.78,
4.77308 17.1605 1.78,
5.05323 17.2745 1.78,
4.29888 17.2905 1.98,
4.37761 17.4553 1.98,
4.58405 17.258 1.98,
4.77308 17.1605 1.98,
5.05323 17.2745 1.98,
5.22145 16.4002 1.78,
5.27844 16.7321 1.78,
5.22145 16.4002 1.98,
5.27844 16.7321 1.98,
5.56418 17.3583 1.78,
5.56418 17.4553 1.78,
5.87911 17.3106 1.78,
5.56418 17.3583 1.98,
5.56418 17.4553 1.98,
5.87911 17.3106 1.98,
12 0 0,
6.23747 3.90835 1.78,
6.59144 2.96847 1.78,
6.64535 2.96847 1.78,
6.66163 3.32245 1.78,
6.23747 3.90835 1.98,
6.59144 2.96847 1.98,
6.64535 2.96847 1.98,
6.66163 3.32245 1.98,
6.26188 4.26843 1.78,
6.30766 4.26843 1.78,
6.75827 4.31014 1.78,
6.75827 4.36406 1.78,
6.26188 4.26843 1.98,
6.30766 4.26843 1.98,
6.75827 4.31014 1.98,
6.75827 4.36406 1.98,
7.27411 3 1.78,
7.27411 3.05391 1.78,
7.44907 3.08138 1.78,
7.55587 3.08138 1.78,
7.27411 3 1.98,
7.27411 3.05391 1.98,
7.44907 3.08138 1.98,
7.55587 3.08138 1.98,
6.97085 4.28368 1.78,
7.09088 4.28368 1.78,
7.20989 4.31014 1.78,
7.20989 4.36406 1.78,
7.27411 4.31014 1.78,
7.27411 4.36406 1.78,
7.55587 4.22673 1.78,
7.44907 4.28368 1.78,
6.97085 4.28368 1.98,
7.09088 4.28368 1.98,
7.20989 4.31014 1.98,
7.20989 4.36406 1.98,
7.27411 4.31014 1.98,
7.27411 4.36406 1.98,
7.55587 4.22673 1.98,
7.44907 4.28368 1.98,
7.73896 3 1.78,
7.73896 3.05391 1.78,
8.39708 3 1.78,
8.38894 3.35398 1.78,
7.73896 3 1.98,
7.73896 3.05391 1.98,
8.39708 3 1.98,
8.38894 3.35398 1.98,
7.68709 4.36406 1.78,
8.20585 4.31014 1.78,
8.20585 4.36406 1.78,
8.38894 4.28368 1.78,
7.68709 4.36406 1.98,
8.20585 4.31014 1.98,
8.20585 4.36406 1.98,
8.38894 4.28368 1.98,
8.49575 3 1.78,
8.77862 3 1.78,
8.77862 3.05391 1.78,
8.95358 3.08138 1.78,
9.06038 3.08138 1.78,
9.24347 3 1.78,
9.24347 3.05391 1.78,
8.49575 3 1.98,
8.77862 3 1.98,
8.77862 3.05391 1.98,
8.95358 3.08138 1.98,
9.06038 3.08138 1.98,
9.24347 3 1.98,
9.24347 3.05391 1.98,
8.49575 4.28368 1.78,
8.67071 4.31014 1.78,
8.67071 4.36406 1.78,
8.77862 4.31014 1.78,
8.77862 4.36406 1.78,
9.06038 4.22673 1.78,
8.95358 4.28368 1.78,
9.1916 4.36406 1.78,
8.49575 4.28368 1.98,
8.67071 4.31014 1.98,
8.67071 4.36406 1.98,
8.77862 4.31014 1.98,
8.77862 4.36406 1.98,
9.06038 4.22673 1.98,
8.95358 4.28368 1.98,
9.1916 4.36406 1.98,
6.19117 6 1.78,
6.3702 6.08138 1.78,
6.51768 6 1.78,
6.51768 6.05391 1.78,
6.58084 6 1.78,
6.58084 6.05391 1.78,
6.75581 6.08138 1.78,
6.19117 6 1.98,
6.3702 6.08138 1.98,
6.51768 6 1.98,
6.51768 6.05391 1.98,
6.58084 6 1.98,
6.58084 6.05391 1.98,
6.75581 6.08138 1.98,
6.00096 6.62659 1.78,
6.00146 6.75729 1.78,
6.11794 6.68037 1.78,
6.05906 6.84821 1.78,
6.00248 7.20689 1.78,
6.07825 6.98565 1.78,
6.05931 7.11878 1.78,
6.20643 6.76442 1.78,
6.26212 6.87288 1.78,
6.25016 7.16493 1.78,
6.28068 6.9999 1.78,
6.00299 7.34244 1.78,
6.15861 7.27758 1.78,
6.58084 7.31014 1.78,
6.58084 7.36406 1.78,
6.75581 7.28368 1.78,
6.00096 6.62659 1.98,
6.00146 6.75729 1.98,
6.11794 6.68037 1.98,
6.05906 6.84821 1.98,
6.00248 7.20689 1.98,
6.07825 6.98565 1.98,
6.05931 7.11878 1.98,
6.20643 6.76442 1.98,
6.26212 6.87288 1.98,
6.25016 7.16493 1.98,
6.28068 6.9999 1.98,
6.00299 7.34244 1.98,
6.15861 7.27758 1.98,
6.58084 7.31014 1.98,
6.58084 7.36406 1.98,
6.75581 7.28368 1.98,
6.8626 6.08138 1.78,
7.04569 6 1.78,
7.04569 6.05391 1.78,
7.36204 6 1.78,
7.39764 6 1.78,
7.43732 6.32652 1.78,
6.8626 6.08138 1.98,
7.04569 6 1.98,
7.04569 6.05391 1.98,
7.36204 6 1.98,
7.39764 6 1.98,
7.43732 6.32652 1.98,
6.8626 7.17282 1.78,
6.99383 7.36406 1.78,
6.8626 7.17282 1.98,
6.99383 7.36406 1.98,
6.27057 9.1602 1.78,
6.49232 9.0248 1.78,
6.57789 9.09714 1.78,
6.7873 8.97966 1.78,
6.78935 9.05798 1.78,
6.27057 9.1602 1.98,
6.49232 9.0248 1.98,
6.57789 9.09714 1.98,
6.7873 8.97966 1.98,
6.78935 9.05798 1.98,
6.13172 9.37699 1.78,
6.08544 9.66625 1.78,
6.32944 9.40637 1.78,
6.29804 9.6683 1.78,
6.12994 9.97535 1.78,
5.95211 10.3101 1.78,
5.95211 10.3641 1.78,
6.32804 9.94852 1.78,
6.26344 10.1988 1.78,
6.42366 9.21462 1.78,
6.41806 10.1443 1.78,
6.48444 10.3342 1.78,
6.57344 10.2595 1.78,
6.79137 10.3793 1.78,
6.13172 9.37699 1.98,
6.08544 9.66625 1.98,
6.32944 9.40637 1.98,
6.29804 9.6683 1.98,
6.12994 9.97535 1.98,
5.95211 10.3101 1.98,
5.95211 10.3641 1.98,
6.32804 9.94852 1.98,
6.26344 10.1988 1.98,
6.42366 9.21462 1.98,
6.41806 10.1443 1.98,
6.48444 10.3342 1.98,
6.57344 10.2595 1.98,
6.79137 10.3793 1.98,
6.90199 9.06497 1.78,
7.00803 9.08595 1.78,
7.03626 8.99568 1.78,
7.10008 9.11863 1.78,
7.17078 9.16071 1.78,
7.26843 9.04374 1.78,
7.46282 9 1.78,
7.46282 9.05391 1.78,
7.62455 9.08138 1.78,
6.90199 9.06497 1.98,
7.00803 9.08595 1.98,
7.03626 8.99568 1.98,
7.10008 9.11863 1.98,
7.17078 9.16071 1.98,
7.26843 9.04374 1.98,
7.46282 9 1.98,
7.46282 9.05391 1.98,
7.62455 9.08138 1.98,
7.20842 9.36416 1.78,
6.79952 10.2979 1.78,
6.89627 10.292 1.78,
6.99125 10.274 1.78,
7.18705 10.0294 1.78,
7.07962 10.2452 1.78,
7.01185 10.3663 1.78,
7.15654 10.2064 1.78,
7.27454 9.36416 1.78,
7.25419 10.0294 1.78,
7.24809 10.3274 1.78,
7.44958 10.3101 1.78,
7.44958 10.3641 1.78,
7.62455 10.2837 1.78,
7.20842 9.36416 1.98,
6.79952 10.2979 1.98,
6.89627 10.292 1.98,
6.99125 10.274 1.98,
7.18705 10.0294 1.98,
7.07962 10.2452 1.98,
7.01185 10.3663 1.98,
7.15654 10.2064 1.98,
7.27454 9.36416 1.98,
7.25419 10.0294 1.98,
7.24809 10.3274 1.98,
7.44958 10.3101 1.98,
7.44958 10.3641 1.98,
7.62455 10.2837 1.98,
7.75875 6 1.78,
7.75875 6.05391 1.78,
7.94184 6.08138 1.78,
8.13714 6.08138 1.78,
8.3121 6 1.78,
8.3121 6.05391 1.78,
7.75875 6 1.98,
7.75875 6.05391 1.98,
7.94184 6.08138 1.98,
8.13714 6.08138 1.98,
8.3121 6 1.98,
8.3121 6.05391 1.98,
7.94184 7.17282 1.78,
7.9215 7.36406 1.78,
8.13714 7.28368 1.78,
8.3121 7.31014 1.78,
8.3121 7.36406 1.78,
7.94184 7.17282 1.98,
7.9215 7.36406 1.98,
8.13714 7.28368 1.98,
8.3121 7.31014 1.98,
8.3121 7.36406 1.98,
7.82086 9.08138 1.78,
8.03752 9 1.78,
8.03752 9.05391 1.78,
7.82086 9.08138 1.98,
8.03752 9 1.98,
8.03752 9.05391 1.98,
7.82086 9.53503 1.78,
7.82086 9.62659 1.78,
7.92665 9.62659 1.78,
7.97445 9.53503 1.78,
7.82086 10.2725 1.78,
7.92054 10.2725 1.78,
7.96428 10.3641 1.78,
8.07604 9.64617 1.78,
8.18387 9.56224 1.78,
8.18043 9.70491 1.78,
8.24184 9.8079 1.78,
8.3381 9.64388 1.78,
8.43308 9.77789 1.78,
8.26231 9.96023 1.78,
8.24273 10.1042 1.78,
8.07897 10.2544 1.78,
8.18399 10.2003 1.78,
8.46474 9.96226 1.78,
8.33963 10.2636 1.78,
7.82086 9.53503 1.98,
7.82086 9.62659 1.98,
7.92665 9.62659 1.98,
7.97445 9.53503 1.98,
7.82086 10.2725 1.98,
7.92054 10.2725 1.98,
7.96428 10.3641 1.98,
8.07604 9.64617 1.98,
8.18387 9.56224 1.98,
8.18043 9.70491 1.98,
8.24184 9.8079 1.98,
8.3381 9.64388 1.98,
8.43308 9.77789 1.98,
8.26231 9.96023 1.98,
8.24273 10.1042 1.98,
8.07897 10.2544 1.98,
8.18399 10.2003 1.98,
8.46474 9.96226 1.98,
8.33963 10.2636 1.98,
8.60823 9 1.78,
8.60823 9.05391 1.78,
8.78319 9.08138 1.78,
8.88999 9.08138 1.78,
9.07308 9 1.78,
9.07308 9.05391 1.78,
8.60823 9 1.98,
8.60823 9.05391 1.98,
8.78319 9.08138 1.98,
8.88999 9.08138 1.98,
9.07308 9 1.98,
9.07308 9.05391 1.98,
8.60823 10.3101 1.78,
8.60823 10.3641 1.78,
8.78319 10.2837 1.78,
8.88999 10.2267 1.78,
9.02121 10.3641 1.78,
8.60823 10.3101 1.98,
8.60823 10.3641 1.98,
8.78319 10.2837 1.98,
8.88999 10.2267 1.98,
9.02121 10.3641 1.98,
9.9016 3 1.78,
10.0003 3 1.78,
9.89345 3.35398 1.78,
9.9016 3 1.98,
10.0003 3 1.98,
9.89345 3.35398 1.98,
9.71036 4.31014 1.78,
9.71036 4.36406 1.78,
9.89345 4.28368 1.78,
10.0003 4.28368 1.78,
10.1752 4.31014 1.78,
10.1752 4.36406 1.78,
9.71036 4.31014 1.98,
9.71036 4.36406 1.98,
9.89345 4.28368 1.98,
10.0003 4.28368 1.98,
10.1752 4.31014 1.98,
10.1752 4.36406 1.98,
10.2831 3 1.78,
10.2831 3.05391 1.78,
10.4581 3.08138 1.78,
10.5649 3.08138 1.78,
10.748 3 1.78,
10.748 3.05391 1.78,
10.2831 3 1.98,
10.2831 3.05391 1.98,
10.4581 3.08138 1.98,
10.5649 3.08138 1.98,
10.748 3 1.98,
10.748 3.05391 1.98,
10.2831 4.31014 1.78,
10.2831 4.36406 1.78,
10.5649 4.22673 1.78,
10.4581 4.28368 1.78,
10.6961 4.36406 1.78,
10.2831 4.31014 1.98,
10.2831 4.36406 1.98,
10.5649 4.22673 1.98,
10.4581 4.28368 1.98,
10.6961 4.36406 1.98,
12 0 1.78,
11.4061 3 1.78,
11.398 3.35398 1.78,
11.5048 3 1.78,
11.4061 3 1.98,
11.398 3.35398 1.98,
11.5048 3 1.98,
11.2149 4.31014 1.78,
11.2149 4.36406 1.78,
11.398 4.28368 1.78,
11.5048 4.28368 1.78,
11.6797 4.31014 1.78,
11.6797 4.36406 1.78,
11.2149 4.31014 1.98,
11.2149 4.36406 1.98,
11.398 4.28368 1.98,
11.5048 4.28368 1.98,
11.6797 4.31014 1.98,
11.6797 4.36406 1.98,
9.73121 9 1.78,
9.82987 9 1.78,
9.73121 9 1.98,
9.82987 9 1.98,
9.72306 9.35398 1.78,
9.53997 10.3101 1.78,
9.53997 10.3641 1.78,
9.72306 10.2837 1.78,
9.82987 10.2837 1.78,
10.0048 10.3101 1.78,
10.0048 10.3641 1.78,
9.72306 9.35398 1.98,
9.53997 10.3101 1.98,
9.53997 10.3641 1.98,
9.72306 10.2837 1.98,
9.82987 10.2837 1.98,
10.0048 10.3101 1.98,
10.0048 10.3641 1.98,
12 21 0,
6.13172 12.377 1.78,
6.27057 12.1602 1.78,
6.32944 12.4064 1.78,
6.08544 12.6663 1.78,
6.12994 12.9754 1.78,
6.29804 12.6683 1.78,
6.32804 12.9485 1.78,
6.49232 12.0248 1.78,
6.57789 12.0971 1.78,
6.42366 12.2146 1.78,
6.7873 11.9797 1.78,
6.78935 12.058 1.78,
6.13172 12.377 1.98,
6.27057 12.1602 1.98,
6.32944 12.4064 1.98,
6.08544 12.6663 1.98,
6.12994 12.9754 1.98,
6.29804 12.6683 1.98,
6.32804 12.9485 1.98,
6.49232 12.0248 1.98,
6.57789 12.0971 1.98,
6.42366 12.2146 1.98,
6.7873 11.9797 1.98,
6.78935 12.058 1.98,
6.90199 12.065 1.78,
7.00803 12.086 1.78,
7.03626 11.9957 1.78,
7.10008 12.1186 1.78,
7.17078 12.1607 1.78,
7.20842 12.3642 1.78,
7.18705 13.0294 1.78,
7.26843 12.0437 1.78,
7.27454 12.3642 1.78,
7.46282 12 1.78,
7.46282 12.0539 1.78,
7.62455 12.0814 1.78,
7.25419 13.0294 1.78,
6.90199 12.065 1.98,
7.00803 12.086 1.98,
7.03626 11.9957 1.98,
7.10008 12.1186 1.98,
7.17078 12.1607 1.98,
7.20842 12.3642 1.98,
7.18705 13.0294 1.98,
7.26843 12.0437 1.98,
7.27454 12.3642 1.98,
7.46282 12 1.98,
7.46282 12.0539 1.98,
7.62455 12.0814 1.98,
7.25419 13.0294 1.98,
5.95211 13.3101 1.78,
5.95211 13.3641 1.78,
6.26344 13.1988 1.78,
6.41806 13.1443 1.78,
6.57344 13.2595 1.78,
6.48444 13.3342 1.78,
6.79137 13.3793 1.78,
5.95211 13.3101 1.98,
5.95211 13.3641 1.98,
6.26344 13.1988 1.98,
6.41806 13.1443 1.98,
6.57344 13.2595 1.98,
6.48444 13.3342 1.98,
6.79137 13.3793 1.98,
6.23065 15.1465 1.78,
6.54558 15 1.78,
6.54558 15.097 1.78,
6.23065 15.1465 1.98,
6.54558 15 1.98,
6.54558 15.097 1.98,
6.79952 13.2979 1.78,
6.89627 13.292 1.78,
6.99125 13.274 1.78,
7.07962 13.2452 1.78,
7.01185 13.3663 1.78,
7.15654 13.2064 1.78,
7.24809 13.3274 1.78,
7.44958 13.3101 1.78,
7.44958 13.3641 1.78,
7.62455 13.2837 1.78,
6.79952 13.2979 1.98,
6.89627 13.292 1.98,
6.99125 13.274 1.98,
7.07962 13.2452 1.98,
7.01185 13.3663 1.98,
7.15654 13.2064 1.98,
7.24809 13.3274 1.98,
7.44958 13.3101 1.98,
7.44958 13.3641 1.98,
7.62455 13.2837 1.98,
6.91457 15.6786 1.78,
7.1645 15.2884 1.78,
7.56364 15.0446 1.78,
7.27046 15.7315 1.78,
7.44006 15.3863 1.78,
6.91457 15.6786 1.98,
7.1645 15.2884 1.98,
7.56364 15.0446 1.98,
7.27046 15.7315 1.98,
7.44006 15.3863 1.98,
7.82086 12.0814 1.78,
8.03752 12 1.78,
8.03752 12.0539 1.78,
7.82086 12.535 1.78,
7.82086 12.6266 1.78,
7.92665 12.6266 1.78,
7.97445 12.535 1.78,
8.07604 12.6462 1.78,
8.18387 12.5622 1.78,
8.18043 12.7049 1.78,
8.24184 12.8079 1.78,
8.26231 12.9602 1.78,
8.24273 13.1042 1.78,
8.3381 12.6439 1.78,
8.43308 12.7779 1.78,
8.46474 12.9623 1.78,
7.82086 12.0814 1.98,
8.03752 12 1.98,
8.03752 12.0539 1.98,
7.82086 12.535 1.98,
7.82086 12.6266 1.98,
7.92665 12.6266 1.98,
7.97445 12.535 1.98,
8.07604 12.6462 1.98,
8.18387 12.5622 1.98,
8.18043 12.7049 1.98,
8.24184 12.8079 1.98,
8.26231 12.9602 1.98,
8.24273 13.1042 1.98,
8.3381 12.6439 1.98,
8.43308 12.7779 1.98,
8.46474 12.9623 1.98,
8.60823 12 1.78,
8.60823 12.0539 1.78,
8.78319 12.0814 1.78,
8.88999 12.0814 1.78,
9.07308 12 1.78,
9.07308 12.0539 1.78,
8.60823 12 1.98,
8.60823 12.0539 1.98,
8.78319 12.0814 1.98,
8.88999 12.0814 1.98,
9.07308 12 1.98,
9.07308 12.0539 1.98,
7.82086 13.2725 1.78,
7.92054 13.2725 1.78,
7.96428 13.3641 1.78,
8.07897 13.2544 1.78,
8.18399 13.2003 1.78,
8.33963 13.2636 1.78,
7.82086 13.2725 1.98,
7.92054 13.2725 1.98,
7.96428 13.3641 1.98,
8.07897 13.2544 1.98,
8.18399 13.2003 1.98,
8.33963 13.2636 1.98,
7.71768 15.1748 1.78,
8.09462 14.9634 1.78,
8.09829 15.1044 1.78,
8.30105 15.1169 1.78,
7.71768 15.1748 1.98,
8.09462 14.9634 1.98,
8.09829 15.1044 1.98,
8.30105 15.1169 1.98,
8.60823 13.3101 1.78,
8.60823 13.3641 1.78,
8.78319 13.2837 1.78,
8.88999 13.2267 1.78,
9.02121 13.3641 1.78,
8.60823 13.3101 1.98,
8.60823 13.3641 1.98,
8.78319 13.2837 1.98,
8.88999 13.2267 1.98,
9.02121 13.3641 1.98,
8.54273 14.9922 1.78,
8.49192 15.1547 1.78,
8.65762 15.2135 1.78,
8.78487 15.2893 1.78,
8.85262 15.6555 1.78,
8.96064 15.0787 1.78,
8.97163 15.6555 1.78,
8.54273 14.9922 1.98,
8.49192 15.1547 1.98,
8.65762 15.2135 1.98,
8.78487 15.2893 1.98,
8.85262 15.6555 1.98,
8.96064 15.0787 1.98,
8.97163 15.6555 1.98,
6.23065 17.3106 1.78,
6.54558 17.3583 1.78,
6.54558 17.4553 1.78,
6.23065 17.3106 1.98,
6.54558 17.3583 1.98,
6.54558 17.4553 1.98,
6.83126 16.1993 1.78,
7.21393 16.2029 1.78,
6.91136 16.7556 1.78,
7.26795 16.7073 1.78,
7.42999 17.0598 1.78,
6.83126 16.1993 1.98,
7.21393 16.2029 1.98,
6.91136 16.7556 1.98,
7.26795 16.7073 1.98,
7.42999 17.0598 1.98,
7.15167 17.1578 1.78,
7.54946 17.4015 1.78,
7.15167 17.1578 1.98,
7.54946 17.4015 1.98,
7.70967 17.2672 1.78,
8.1166 17.3363 1.78,
8.10194 17.4828 1.78,
8.29076 17.3255 1.78,
8.46171 17.2932 1.78,
7.70967 17.2672 1.98,
8.1166 17.3363 1.98,
8.10194 17.4828 1.98,
8.29076 17.3255 1.98,
8.46171 17.2932 1.98,
8.81417 16.8529 1.78,
8.93502 16.8529 1.78,
8.81417 16.8529 1.98,
8.93502 16.8529 1.98,
8.62078 17.2413 1.78,
8.4988 17.4594 1.78,
8.75925 17.1715 1.78,
8.92403 17.3894 1.78,
8.62078 17.2413 1.98,
8.4988 17.4594 1.98,
8.75925 17.1715 1.98,
8.92403 17.3894 1.98,
9.73121 12 1.78,
9.72306 12.354 1.78,
9.82987 12 1.78,
9.73121 12 1.98,
9.72306 12.354 1.98,
9.82987 12 1.98,
9.53997 13.3101 1.78,
9.53997 13.3641 1.78,
9.72306 13.2837 1.78,
9.82987 13.2837 1.78,
10.0048 13.3101 1.78,
10.0048 13.3641 1.78,
9.53997 13.3101 1.98,
9.53997 13.3641 1.98,
9.72306 13.2837 1.98,
9.82987 13.2837 1.98,
10.0048 13.3101 1.98,
10.0048 13.3641 1.98,
9.37828 15.0421 1.78,
9.69869 14.9831 1.78,
9.35814 15.5584 1.78,
9.47896 15.5584 1.78,
9.56137 15.2142 1.78,
9.64765 15.1767 1.78,
10.0374 14.9634 1.78,
9.76368 15.1446 1.78,
9.89025 15.1227 1.78,
10.0081 15.1153 1.78,
9.37828 15.0421 1.98,
9.69869 14.9831 1.98,
9.35814 15.5584 1.98,
9.47896 15.5584 1.98,
9.56137 15.2142 1.98,
9.64765 15.1767 1.98,
10.0374 14.9634 1.98,
9.76368 15.1446 1.98,
9.89025 15.1227 1.98,
10.0081 15.1153 1.98,
10.4059 15.0101 1.78,
10.258 15.1483 1.78,
10.4329 15.2472 1.78,
10.5359 15.4229 1.78,
10.5702 15.6866 1.78,
10.6801 15.1501 1.78,
10.8503 15.3731 1.78,
10.9071 15.6683 1.78,
10.4059 15.0101 1.98,
10.258 15.1483 1.98,
10.4329 15.2472 1.98,
10.5359 15.4229 1.98,
10.5702 15.6866 1.98,
10.6801 15.1501 1.98,
10.8503 15.3731 1.98,
10.9071 15.6683 1.98,
12 15 1.68,
12 15.282 1.68,
12.7217 15 1.68,
12.7217 15.282 1.68,
11.2185 15 1.78,
11.2185 15.2691 1.78,
11.4584 15.282 1.78,
11.559 15.5786 1.78,
11.6364 15.4417 1.78,
11.8044 15.5877 1.78,
11.2185 15 1.98,
11.2185 15.2691 1.98,
11.4584 15.282 1.98,
11.559 15.5786 1.98,
11.6364 15.4417 1.98,
11.8044 15.5877 1.98,
12 15 1.78,
12 15.282 1.78,
12.7217 15 1.98,
12.7217 15.282 1.98,
9.4332 16.9316 1.78,
9.55405 16.9316 1.78,
9.79022 16.2066 1.78,
9.79022 16.3567 1.78,
10.0521 16.1919 1.78,
10.0521 16.3732 1.78,
9.4332 16.9316 1.98,
9.55405 16.9316 1.98,
9.79022 16.2066 1.98,
9.79022 16.3567 1.98,
10.0521 16.1919 1.98,
10.0521 16.3732 1.98,
9.4332 17.404 1.78,
9.61812 17.2319 1.78,
9.7051 17.2715 1.78,
9.60209 17.4436 1.78,
9.74626 17.4672 1.78,
9.80488 17.3024 1.78,
9.90878 17.3223 1.78,
9.87765 17.4789 1.78,
10.0081 17.329 1.78,
10.0081 17.4828 1.78,
9.4332 17.404 1.98,
9.61812 17.2319 1.98,
9.7051 17.2715 1.98,
9.60209 17.4436 1.98,
9.74626 17.4672 1.98,
9.80488 17.3024 1.98,
9.90878 17.3223 1.98,
9.87765 17.4789 1.98,
10.0081 17.329 1.98,
10.0081 17.4828 1.98,
10.2827 16.151 1.78,
10.2589 16.2853 1.78,
10.4439 16.0537 1.78,
10.5386 15.8992 1.78,
10.4862 16.3505 1.78,
10.5482 16.2183 1.78,
10.2319 16.4107 1.78,
10.3578 16.5014 1.78,
10.432 16.6488 1.78,
10.4567 16.8566 1.78,
10.7496 16.094 1.78,
10.8677 15.9111 1.78,
10.6553 16.473 1.78,
10.7604 16.6499 1.78,
10.7954 16.8786 1.78,
10.2827 16.151 1.98,
10.2589 16.2853 1.98,
10.4439 16.0537 1.98,
10.5386 15.8992 1.98,
10.4862 16.3505 1.98,
10.5482 16.2183 1.98,
10.2319 16.4107 1.98,
10.3578 16.5014 1.98,
10.432 16.6488 1.98,
10.4567 16.8566 1.98,
10.7496 16.094 1.98,
10.8677 15.9111 1.98,
10.6553 16.473 1.98,
10.7604 16.6499 1.98,
10.7954 16.8786 1.98,
10.2107 17.3008 1.78,
10.3496 17.2163 1.78,
10.4299 17.0701 1.78,
10.5986 17.3317 1.78,
10.2107 17.3008 1.98,
10.3496 17.2163 1.98,
10.4299 17.0701 1.98,
10.5986 17.3317 1.98,
12 15.7602 1.68,
12 16.0014 1.68,
12.0406 16.0436 1.68,
12.1312 15.8759 1.68,
12.1726 16.224 1.68,
12.2612 16.4098 1.68,
12.35 16.0922 1.68,
12.4935 16.273 1.68,
12.3113 16.6121 1.68,
12.3281 16.8419 1.68,
12.3011 17.0516 1.68,
12.5944 16.4547 1.68,
12.6542 16.6426 1.68,
12.6741 16.8419 1.68,
12 17.3093 1.68,
12.0777 17.2978 1.68,
12 17.4669 1.68,
12.22 17.2044 1.68,
12.2193 17.4409 1.68,
12.4718 17.3152 1.68,
12.6235 17.1131 1.68,
11.3009 16.9316 1.78,
11.4217 16.9316 1.78,
11.8433 15.8386 1.78,
11.3009 16.9316 1.98,
11.4217 16.9316 1.98,
11.8433 15.8386 1.98,
11.3009 17.404 1.78,
11.4858 17.2319 1.78,
11.5705 17.2715 1.78,
11.609 17.4631 1.78,
11.6671 17.3024 1.78,
11.7682 17.3223 1.78,
11.8667 17.329 1.78,
11.8667 17.4828 1.78,
11.3009 17.404 1.98,
11.4858 17.2319 1.98,
11.5705 17.2715 1.98,
11.609 17.4631 1.98,
11.6671 17.3024 1.98,
11.7682 17.3223 1.98,
11.8667 17.329 1.98,
11.8667 17.4828 1.98,
12 15.7602 1.78,
12 16.0014 1.78,
12.0406 16.0436 1.98,
12.1312 15.8759 1.98,
12.1726 16.224 1.98,
12.2612 16.4098 1.98,
12.35 16.0922 1.98,
12.4935 16.273 1.98,
12.3113 16.6121 1.98,
12.3281 16.8419 1.98,
12.3011 17.0516 1.98,
12.5944 16.4547 1.98,
12.6542 16.6426 1.98,
12.6741 16.8419 1.98,
12 17.3093 1.78,
12 17.4669 1.78,
12.0777 17.2978 1.98,
12.22 17.2044 1.98,
12.2193 17.4409 1.98,
12.4718 17.3152 1.98,
12.6235 17.1131 1.98,
12 21 1.78
] }

coordIndex [
0,1,384,-1
1,3,6,-1
1,2,3,-1
1,19,2,-1
1,6,7,-1
14,16,3,-1
8,6,3,-1
8,3,16,-1
1,40,19,-1
1,93,40,-1
1,120,93,-1
19,43,20,-1
15,20,52,-1
15,52,18,-1
9,17,28,-1
28,31,29,-1
17,32,28,-1
31,28,30,-1
32,30,28,-1
18,52,33,-1
41,19,40,-1
42,19,41,-1
42,43,19,-1
52,20,43,-1
33,52,48,-1
48,51,49,-1
51,48,50,-1
52,50,48,-1
96,54,53,-1
54,103,55,-1
0,384,386,-1
0,386,443,-1
1,7,398,-1
1,387,384,-1
1,388,387,-1
1,397,388,-1
1,398,397,-1
29,64,7,-1
29,31,65,-1
71,7,70,-1
70,7,64,-1
49,65,31,-1
49,51,65,-1
55,65,51,-1
64,29,65,-1
7,71,398,-1
73,217,74,-1
74,217,76,-1
0,1078,1,-1
1,121,120,-1
1,132,121,-1
1,133,132,-1
1,150,133,-1
1,151,150,-1
1,719,151,-1
92,94,110,-1
92,110,95,-1
93,120,94,-1
110,94,120,-1
96,104,54,-1
103,54,102,-1
104,102,54,-1
95,106,105,-1
55,103,174,-1
95,108,106,-1
95,110,108,-1
106,109,107,-1
109,106,108,-1
107,174,103,-1
107,109,174,-1
122,127,126,-1
128,174,109,-1
122,140,127,-1
127,140,128,-1
128,140,178,-1
141,178,140,-1
1,720,719,-1
134,121,132,-1
133,157,156,-1
133,161,158,-1
133,158,157,-1
135,142,141,-1
143,141,142,-1
141,143,278,-1
135,144,142,-1
159,278,143,-1
161,133,150,-1
157,160,159,-1
160,157,158,-1
159,160,298,-1
164,298,160,-1
152,163,162,-1
163,726,164,-1
55,175,65,-1
55,174,175,-1
174,128,178,-1
176,289,175,-1
177,179,279,-1
178,279,179,-1
177,279,180,-1
289,190,175,-1
65,175,190,-1
289,193,190,-1
199,197,198,-1
197,199,238,-1
66,217,75,-1
75,217,73,-1
191,217,66,-1
192,221,191,-1
76,217,78,-1
78,217,80,-1
80,217,210,-1
210,217,212,-1
212,217,213,-1
194,221,192,-1
195,221,194,-1
196,221,195,-1
191,221,217,-1
196,215,221,-1
216,222,215,-1
197,248,216,-1
219,213,217,-1
213,219,218,-1
215,222,221,-1
248,222,216,-1
221,222,220,-1
223,220,222,-1
193,289,197,-1
197,289,198,-1
198,289,240,-1
291,240,289,-1
240,337,241,-1
197,238,248,-1
256,249,247,-1
239,241,246,-1
246,241,251,-1
251,241,253,-1
250,252,247,-1
252,254,247,-1
254,255,247,-1
241,337,253,-1
255,259,247,-1
258,256,247,-1
260,261,247,-1
261,258,247,-1
259,260,247,-1
178,141,278,-1
279,178,278,-1
180,279,281,-1
180,281,280,-1
159,296,278,-1
188,288,290,-1
282,312,291,-1
313,291,312,-1
159,298,296,-1
296,299,297,-1
299,296,298,-1
297,314,282,-1
314,297,299,-1
300,314,299,-1
298,164,302,-1
164,804,302,-1
301,303,315,-1
315,303,318,-1
302,804,303,-1
303,804,318,-1
282,314,312,-1
323,316,317,-1
321,320,316,-1
323,321,316,-1
317,319,824,-1
317,822,323,-1
317,824,822,-1
291,336,240,-1
336,291,340,-1
337,240,336,-1
291,366,340,-1
253,337,348,-1
348,338,349,-1
338,348,337,-1
349,338,350,-1
338,354,350,-1
350,352,351,-1
353,351,352,-1
352,350,354,-1
341,355,339,-1
291,313,876,-1
366,291,367,-1
340,366,341,-1
291,876,367,-1
322,866,313,-1
313,866,876,-1
355,341,366,-1
371,356,370,-1
372,370,356,-1
367,880,374,-1
372,373,370,-1
0,463,380,-1
0,380,1115,-1
380,463,1115,-1
0,443,448,-1
0,448,463,-1
389,450,386,-1
389,390,450,-1
388,397,390,-1
450,390,397,-1
72,398,71,-1
72,403,398,-1
77,403,72,-1
79,406,77,-1
211,408,79,-1
77,406,403,-1
79,408,406,-1
407,528,411,-1
411,528,412,-1
404,398,403,-1
405,398,404,-1
429,398,405,-1
429,423,398,-1
424,398,423,-1
398,424,472,-1
431,423,429,-1
573,438,431,-1
423,431,438,-1
438,576,439,-1
450,443,386,-1
451,399,469,-1
451,457,458,-1
451,468,457,-1
451,469,468,-1
463,448,451,-1
463,451,458,-1
463,458,459,-1
463,459,464,-1
463,464,465,-1
463,465,498,-1
463,498,499,-1
463,499,500,-1
463,500,501,-1
463,501,504,-1
399,473,474,-1
425,472,424,-1
399,470,469,-1
399,471,470,-1
399,474,471,-1
474,473,475,-1
475,473,476,-1
439,492,437,-1
494,476,473,-1
476,494,477,-1
477,494,478,-1
478,494,479,-1
463,504,502,-1
214,408,211,-1
220,408,214,-1
223,516,408,-1
220,223,408,-1
223,519,516,-1
223,524,519,-1
223,525,524,-1
409,528,410,-1
517,528,409,-1
518,529,517,-1
410,528,407,-1
412,528,430,-1
520,529,518,-1
521,529,520,-1
522,529,521,-1
526,524,525,-1
524,526,544,-1
517,529,528,-1
522,523,529,-1
527,580,523,-1
524,592,527,-1
523,580,529,-1
592,580,527,-1
257,525,223,-1
257,548,525,-1
351,548,257,-1
524,544,592,-1
594,593,547,-1
545,549,546,-1
546,549,551,-1
551,549,553,-1
548,613,549,-1
549,613,553,-1
550,552,547,-1
552,554,547,-1
554,555,547,-1
596,594,547,-1
597,596,547,-1
557,597,547,-1
555,556,547,-1
556,557,547,-1
430,528,432,-1
432,528,572,-1
572,528,574,-1
574,528,575,-1
576,438,573,-1
579,439,576,-1
439,579,581,-1
575,578,577,-1
578,575,528,-1
529,580,579,-1
581,579,580,-1
595,439,581,-1
492,439,637,-1
492,621,604,-1
637,439,595,-1
621,492,637,-1
621,638,604,-1
639,604,638,-1
607,650,667,-1
351,353,548,-1
356,548,353,-1
371,612,548,-1
356,371,548,-1
371,619,612,-1
613,548,612,-1
553,613,614,-1
617,614,613,-1
614,621,615,-1
617,621,614,-1
621,616,615,-1
621,637,616,-1
621,640,638,-1
641,618,620,-1
882,619,371,-1
882,620,619,-1
884,620,882,-1
884,631,641,-1
641,620,884,-1
632,653,642,-1
632,655,653,-1
633,1166,656,-1
642,604,639,-1
642,654,604,-1
604,1168,649,-1
1167,604,654,-1
667,650,679,-1
679,650,682,-1
649,662,650,-1
650,662,682,-1
654,642,653,-1
604,1167,1168,-1
649,1168,1171,-1
649,1171,1172,-1
649,1193,661,-1
662,649,661,-1
492,604,605,-1
492,605,493,-1
493,605,671,-1
672,493,671,-1
606,673,605,-1
673,671,605,-1
697,674,668,-1
680,681,668,-1
681,683,668,-1
683,685,668,-1
699,697,668,-1
685,687,668,-1
687,686,668,-1
700,699,668,-1
686,700,668,-1
682,662,684,-1
713,684,662,-1
684,713,707,-1
707,713,708,-1
663,713,662,-1
708,711,701,-1
712,701,711,-1
711,708,713,-1
1554,505,479,-1
1554,506,505,-1
1554,502,503,-1
1554,503,506,-1
463,502,1554,-1
1554,479,494,-1
1554,494,493,-1
1554,493,672,-1
0,717,1078,-1
0,1115,717,-1
717,1115,1078,-1
1,1078,720,-1
151,719,718,-1
152,726,163,-1
164,726,804,-1
727,804,726,-1
721,728,727,-1
729,727,728,-1
727,729,808,-1
735,720,734,-1
720,744,743,-1
720,735,749,-1
720,746,744,-1
720,749,746,-1
736,749,735,-1
759,748,737,-1
721,742,728,-1
745,808,729,-1
745,747,851,-1
744,747,745,-1
747,744,746,-1
766,854,747,-1
1078,734,720,-1
1078,758,734,-1
758,760,759,-1
748,759,760,-1
768,766,767,-1
950,766,768,-1
761,767,766,-1
761,769,767,-1
790,954,768,-1
776,774,775,-1
774,789,788,-1
774,791,789,-1
774,776,794,-1
777,794,776,-1
774,794,791,-1
780,793,778,-1
789,792,790,-1
792,789,791,-1
790,792,954,-1
795,954,792,-1
1040,955,795,-1
964,1040,1044,-1
804,727,806,-1
805,820,818,-1
727,808,806,-1
806,809,807,-1
809,806,808,-1
807,833,805,-1
833,807,809,-1
810,833,809,-1
319,819,821,-1
319,821,823,-1
319,823,824,-1
820,833,825,-1
828,831,827,-1
827,867,830,-1
805,833,820,-1
825,833,826,-1
826,831,828,-1
831,826,833,-1
827,831,832,-1
827,832,867,-1
745,851,808,-1
852,862,850,-1
851,853,852,-1
862,852,853,-1
747,853,851,-1
853,747,854,-1
854,766,950,-1
951,854,950,-1
963,863,855,-1
829,866,322,-1
830,867,829,-1
829,867,866,-1
863,869,832,-1
867,832,869,-1
885,868,870,-1
367,876,877,-1
367,877,880,-1
881,880,884,-1
881,374,880,-1
884,882,881,-1
878,870,879,-1
878,885,870,-1
904,879,870,-1
879,904,905,-1
879,922,883,-1
883,922,886,-1
886,922,888,-1
869,863,963,-1
963,906,869,-1
963,909,906,-1
909,911,930,-1
909,910,911,-1
879,905,907,-1
879,907,908,-1
879,908,922,-1
930,888,922,-1
888,930,923,-1
923,930,924,-1
924,930,925,-1
925,930,929,-1
929,930,926,-1
925,929,927,-1
926,930,931,-1
930,911,933,-1
912,935,911,-1
930,933,931,-1
931,933,932,-1
935,933,911,-1
854,951,962,-1
952,962,951,-1
950,768,954,-1
964,953,955,-1
795,955,954,-1
964,955,1040,-1
964,1044,1045,-1
964,1072,965,-1
966,909,963,-1
909,966,910,-1
910,966,973,-1
966,1016,973,-1
973,1017,974,-1
1017,973,1016,-1
972,974,978,-1
978,974,981,-1
981,974,986,-1
980,985,979,-1
985,987,979,-1
983,982,979,-1
993,983,979,-1
994,993,979,-1
974,1017,986,-1
987,988,979,-1
988,991,979,-1
986,1017,989,-1
991,992,979,-1
992,994,979,-1
995,1028,996,-1
1016,966,1020,-1
1020,1097,1021,-1
1018,989,1017,-1
989,1018,990,-1
990,1018,995,-1
1018,1030,995,-1
1029,996,1028,-1
1028,995,1030,-1
1021,1031,1019,-1
1031,1021,1097,-1
1078,760,758,-1
1078,774,760,-1
1078,775,774,-1
1078,779,775,-1
1078,1038,779,-1
1078,1039,1038,-1
1078,1056,1039,-1
1078,1060,1056,-1
779,1038,780,-1
793,780,1038,-1
1047,1039,1057,-1
1040,1046,1044,-1
1047,1068,1048,-1
1057,1039,1056,-1
1047,1057,1058,-1
1047,1058,1071,-1
1060,1079,1061,-1
1061,1070,1059,-1
1070,1061,1079,-1
1048,1069,1049,-1
1047,1071,1068,-1
1069,1048,1068,-1
1078,1079,1060,-1
1078,1081,1079,-1
1078,1089,1081,-1
1078,1090,1089,-1
1081,1089,1088,-1
1080,1085,1072,-1
1086,1072,1085,-1
1080,1087,1085,-1
964,1045,1049,-1
964,1049,1069,-1
964,1069,1072,-1
965,1090,966,-1
965,1072,1086,-1
966,1090,1020,-1
1020,1090,1097,-1
1090,965,1086,-1
1097,1090,1098,-1
1101,1102,1032,-1
1103,1032,1102,-1
1101,1104,1102,-1
1098,1106,1105,-1
1098,1090,1106,-1
1078,1416,1090,-1
1416,1106,1090,-1
1078,1400,1416,-1
631,884,887,-1
633,887,889,-1
631,887,633,-1
633,889,928,-1
633,928,932,-1
633,932,1116,-1
932,1117,1116,-1
933,1123,1117,-1
633,1116,1119,-1
633,1119,1120,-1
633,1120,1166,-1
1124,1146,1125,-1
1125,1146,1118,-1
1118,1146,1121,-1
1121,1146,1122,-1
1122,1146,1169,-1
932,933,1117,-1
934,1123,933,-1
934,1126,1123,-1
934,1142,1126,-1
984,1149,934,-1
934,1147,1142,-1
934,1149,1147,-1
1127,1146,1124,-1
1140,1152,1127,-1
1141,1152,1140,-1
1143,1152,1141,-1
1144,1152,1143,-1
1127,1152,1146,-1
1144,1145,1152,-1
1150,1147,1149,-1
1147,1150,1151,-1
1148,1193,1145,-1
1147,1195,1148,-1
1145,1193,1152,-1
1147,1151,1195,-1
1195,1193,1148,-1
1166,1168,1167,-1
1166,1120,1168,-1
649,1172,1190,-1
649,1190,1192,-1
1169,1146,1170,-1
649,1192,1193,-1
1194,1181,661,-1
1182,1310,1180,-1
1181,1207,1182,-1
1182,1206,1310,-1
1170,1146,1186,-1
1186,1146,1187,-1
1187,1146,1188,-1
1191,1188,1146,-1
1188,1191,1189,-1
661,1193,1194,-1
1152,1193,1192,-1
1194,1208,1181,-1
1206,1182,1207,-1
1207,1181,1208,-1
984,1217,1149,-1
996,1217,984,-1
996,1029,1217,-1
1029,1248,1217,-1
1216,1218,1219,-1
1219,1218,1222,-1
1222,1218,1224,-1
1261,1260,1220,-1
1221,1223,1220,-1
1223,1225,1220,-1
1263,1261,1220,-1
1264,1263,1220,-1
1217,1249,1218,-1
1218,1249,1224,-1
1249,1217,1248,-1
1224,1249,1229,-1
1225,1226,1220,-1
1226,1227,1220,-1
1227,1228,1220,-1
1228,1264,1220,-1
1032,1248,1029,-1
1032,1252,1248,-1
1032,1103,1252,-1
1250,1229,1249,-1
1229,1250,1230,-1
1230,1250,1231,-1
1250,1282,1231,-1
1253,1283,1251,-1
1252,1346,1253,-1
1283,1253,1346,-1
1231,1280,1265,-1
1262,1364,1194,-1
1208,1194,1273,-1
1273,1194,1290,-1
1290,1194,1295,-1
1274,1334,1272,-1
1275,1335,1274,-1
1281,1265,1280,-1
1280,1231,1282,-1
1265,1364,1262,-1
1265,1281,1364,-1
1284,1364,1281,-1
1284,1353,1364,-1
1364,1295,1194,-1
1291,1335,1275,-1
1292,1335,1291,-1
1295,1366,1296,-1
1295,1364,1366,-1
1367,1296,1366,-1
463,1554,1115,-1
1180,1305,1304,-1
1180,1310,1312,-1
1180,1312,1305,-1
1305,1320,1306,-1
1320,1305,1312,-1
1321,1306,1320,-1
1326,1306,1321,-1
1554,672,698,-1
1554,698,701,-1
1554,701,712,-1
1210,1334,1209,-1
1209,1334,1311,-1
1272,1334,1210,-1
1311,1334,1313,-1
1313,1334,1314,-1
1314,1334,1324,-1
1324,1334,1325,-1
1325,1334,1327,-1
1274,1335,1334,-1
1293,1335,1292,-1
1293,1294,1335,-1
1296,1335,1294,-1
1296,1422,1335,-1
1327,1334,1328,-1
1340,1328,1334,-1
1340,1338,1328,-1
1335,1432,1341,-1
1432,1335,1420,-1
1554,712,1306,-1
1554,1306,1326,-1
1078,1115,1400,-1
1103,1346,1252,-1
1103,1348,1346,-1
1347,1352,1284,-1
1347,1354,1352,-1
1348,1356,1355,-1
1416,1103,1107,-1
1416,1348,1103,-1
1416,1107,1106,-1
1353,1284,1352,-1
1357,1365,1353,-1
1357,1370,1365,-1
1364,1353,1365,-1
1368,1372,1367,-1
1371,1368,1369,-1
1368,1371,1372,-1
1296,1367,1388,-1
1370,1357,1384,-1
1373,1367,1372,-1
1385,1367,1373,-1
1386,1367,1385,-1
1387,1367,1386,-1
1455,1296,1388,-1
1416,1356,1348,-1
1416,1357,1356,-1
1384,1357,1389,-1
1388,1367,1387,-1
1357,1404,1389,-1
1389,1405,1390,-1
1417,1401,1490,-1
1416,1404,1357,-1
1405,1389,1404,-1
1390,1405,1407,-1
1390,1407,1391,-1
1513,1391,1407,-1
1406,1417,1408,-1
1408,1417,1409,-1
1533,1417,1490,-1
1533,1409,1417,-1
1115,1401,1400,-1
1115,1490,1401,-1
1115,1491,1490,-1
1115,1504,1491,-1
1115,1506,1504,-1
1115,1554,1506,-1
1422,1296,1424,-1
1335,1423,1420,-1
1423,1335,1422,-1
1420,1423,1421,-1
1424,1296,1452,-1
1452,1296,1454,-1
1454,1296,1455,-1
1425,1421,1423,-1
1458,1421,1425,-1
1459,1421,1458,-1
1460,1421,1459,-1
1461,1421,1460,-1
1484,1421,1461,-1
1421,1434,1433,-1
1434,1421,1437,-1
1437,1421,1438,-1
1438,1421,1440,-1
1440,1421,1482,-1
1482,1421,1483,-1
1483,1421,1484,-1
1453,1457,1456,-1
1456,1457,1462,-1
1456,1462,1464,-1
1463,1511,1462,-1
1464,1462,1511,-1
1464,1511,1465,-1
1465,1511,1466,-1
1466,1517,1485,-1
1554,1326,1339,-1
1554,1339,1341,-1
1554,1341,1432,-1
1554,1432,1435,-1
1554,1435,1436,-1
1554,1436,1439,-1
1554,1439,1441,-1
1554,1441,1485,-1
1547,1491,1504,-1
1391,1513,1463,-1
1463,1513,1511,-1
1534,1512,1513,-1
1511,1513,1512,-1
1534,1518,1512,-1
1534,1519,1518,-1
1534,1521,1519,-1
1534,1522,1521,-1
1517,1466,1511,-1
1534,1491,1547,-1
1534,1523,1522,-1
1534,1547,1523,-1
1554,1485,1517,-1
1554,1517,1520,-1
1554,1520,1524,-1
1554,1548,1506,-1
1554,1524,1548,-1
4,3,2,-1
5,14,3,-1
23,8,16,-1
4,5,3,-1
5,21,14,-1
4,21,5,-1
10,7,6,-1
12,6,8,-1
11,29,7,-1
13,17,9,-1
34,9,28,-1
10,11,7,-1
10,6,12,-1
10,12,11,-1
12,8,23,-1
11,35,29,-1
13,9,34,-1
11,12,13,-1
11,13,35,-1
12,23,13,-1
13,34,35,-1
21,16,14,-1
26,2,19,-1
22,20,15,-1
25,15,18,-1
24,32,17,-1
27,19,20,-1
4,2,26,-1
22,15,25,-1
22,27,20,-1
4,26,21,-1
21,22,23,-1
21,26,22,-1
22,26,27,-1
21,23,16,-1
13,24,17,-1
25,18,39,-1
22,25,23,-1
23,25,24,-1
13,23,24,-1
24,25,38,-1
26,19,27,-1
35,28,29,-1
36,31,30,-1
39,18,33,-1
38,30,32,-1
37,49,31,-1
56,33,48,-1
34,28,35,-1
36,37,31,-1
24,38,32,-1
36,30,38,-1
37,57,49,-1
39,33,56,-1
25,39,38,-1
36,38,37,-1
37,38,39,-1
37,39,57,-1
39,56,57,-1
44,41,40,-1
45,42,41,-1
46,43,42,-1
47,52,43,-1
44,45,41,-1
45,46,42,-1
44,40,98,-1
44,46,45,-1
44,98,46,-1
46,97,47,-1
46,47,43,-1
61,101,96,-1
47,97,100,-1
47,100,101,-1
47,101,61,-1
57,48,49,-1
58,51,50,-1
60,50,52,-1
59,55,51,-1
61,96,53,-1
62,53,54,-1
63,54,55,-1
56,48,57,-1
58,59,51,-1
58,50,60,-1
47,60,52,-1
58,60,59,-1
59,60,61,-1
59,61,63,-1
59,63,55,-1
61,53,62,-1
62,54,63,-1
47,61,60,-1
61,62,63,-1
68,64,65,-1
86,66,75,-1
67,64,68,-1
68,65,200,-1
69,66,86,-1
67,68,86,-1
68,69,86,-1
81,71,70,-1
82,72,71,-1
83,77,72,-1
67,70,64,-1
84,75,73,-1
85,73,74,-1
87,74,76,-1
89,76,78,-1
88,79,77,-1
91,78,80,-1
90,211,79,-1
81,70,67,-1
81,82,71,-1
81,85,82,-1
82,85,83,-1
82,83,72,-1
86,75,84,-1
84,73,85,-1
85,74,87,-1
81,67,84,-1
81,84,85,-1
67,86,84,-1
83,88,77,-1
87,76,89,-1
88,90,79,-1
89,78,91,-1
85,87,83,-1
83,87,88,-1
87,89,88,-1
88,89,90,-1
89,91,90,-1
90,91,225,-1
98,40,93,-1
97,94,92,-1
99,93,94,-1
100,92,95,-1
101,104,96,-1
97,92,100,-1
97,99,94,-1
98,93,99,-1
46,98,97,-1
97,98,99,-1
100,95,114,-1
100,113,101,-1
114,95,105,-1
111,103,102,-1
113,102,104,-1
112,107,103,-1
115,105,106,-1
116,106,107,-1
117,109,108,-1
119,108,110,-1
101,113,104,-1
111,112,103,-1
111,102,113,-1
100,114,113,-1
111,113,112,-1
112,113,114,-1
112,116,107,-1
114,105,115,-1
115,106,116,-1
117,118,109,-1
117,108,119,-1
112,114,116,-1
114,115,116,-1
117,119,118,-1
123,110,120,-1
124,120,121,-1
138,121,134,-1
125,140,122,-1
119,110,123,-1
125,122,129,-1
119,123,124,-1
119,124,125,-1
123,120,124,-1
124,121,138,-1
124,138,125,-1
125,138,145,-1
118,128,109,-1
129,122,126,-1
130,126,127,-1
131,127,128,-1
129,126,130,-1
118,131,128,-1
130,127,131,-1
118,119,129,-1
118,129,131,-1
119,125,129,-1
129,130,131,-1
125,145,140,-1
137,132,133,-1
136,134,132,-1
139,144,135,-1
165,133,156,-1
136,132,137,-1
136,138,134,-1
139,135,146,-1
138,139,145,-1
136,139,138,-1
137,133,165,-1
136,137,165,-1
136,165,139,-1
146,135,141,-1
145,141,140,-1
147,143,142,-1
149,142,144,-1
148,159,143,-1
145,146,141,-1
139,146,145,-1
147,148,143,-1
147,142,149,-1
139,149,144,-1
148,168,159,-1
147,149,148,-1
139,165,149,-1
148,149,165,-1
148,165,168,-1
154,150,151,-1
153,161,150,-1
153,170,161,-1
153,150,154,-1
155,152,171,-1
153,154,170,-1
154,155,170,-1
166,156,157,-1
168,157,159,-1
167,160,158,-1
170,158,161,-1
169,164,160,-1
171,152,162,-1
172,162,163,-1
173,163,164,-1
165,156,166,-1
166,157,168,-1
167,169,160,-1
167,158,170,-1
165,166,168,-1
167,170,169,-1
169,170,171,-1
169,173,164,-1
171,162,172,-1
172,163,173,-1
155,171,170,-1
169,171,173,-1
171,172,173,-1
181,175,174,-1
182,176,175,-1
185,174,178,-1
184,179,177,-1
187,177,180,-1
183,289,176,-1
186,178,179,-1
181,182,175,-1
181,174,185,-1
182,183,176,-1
181,183,182,-1
184,186,179,-1
184,177,187,-1
185,178,186,-1
187,180,285,-1
181,185,183,-1
183,185,184,-1
183,184,187,-1
184,185,186,-1
183,187,189,-1
187,285,189,-1
189,288,188,-1
294,188,290,-1
189,188,294,-1
183,293,289,-1
183,189,293,-1
189,294,293,-1
200,65,190,-1
69,191,66,-1
201,192,191,-1
203,190,193,-1
202,194,192,-1
204,195,194,-1
205,196,195,-1
207,193,197,-1
208,199,198,-1
69,201,191,-1
200,190,203,-1
201,202,192,-1
202,204,194,-1
68,200,69,-1
69,200,201,-1
200,202,201,-1
200,203,202,-1
202,203,204,-1
203,193,207,-1
204,205,195,-1
205,206,196,-1
207,197,230,-1
208,209,199,-1
203,205,204,-1
203,207,205,-1
205,207,206,-1
224,80,210,-1
226,210,212,-1
225,214,211,-1
227,212,213,-1
206,215,196,-1
229,216,215,-1
230,197,216,-1
231,219,217,-1
235,217,221,-1
232,213,218,-1
233,218,219,-1
228,220,214,-1
234,221,220,-1
236,223,222,-1
91,80,224,-1
90,225,211,-1
224,210,226,-1
226,212,227,-1
227,213,232,-1
225,228,214,-1
91,224,225,-1
224,226,225,-1
226,228,225,-1
226,227,228,-1
227,232,228,-1
206,229,215,-1
229,230,216,-1
206,207,230,-1
206,230,229,-1
231,233,219,-1
231,217,235,-1
234,235,221,-1
232,218,233,-1
228,234,220,-1
236,237,223,-1
231,235,233,-1
228,232,234,-1
232,233,234,-1
233,235,234,-1
209,238,199,-1
244,198,240,-1
243,241,239,-1
245,240,241,-1
208,198,244,-1
209,242,238,-1
208,242,209,-1
208,243,242,-1
208,244,243,-1
243,245,241,-1
244,240,245,-1
243,244,245,-1
242,248,238,-1
262,239,246,-1
263,250,247,-1
264,222,248,-1
237,257,223,-1
265,247,249,-1
267,246,251,-1
266,252,250,-1
269,251,253,-1
268,254,252,-1
270,255,254,-1
357,253,348,-1
272,249,256,-1
274,256,258,-1
273,351,257,-1
271,259,255,-1
275,260,259,-1
276,261,260,-1
277,258,261,-1
243,239,262,-1
262,246,267,-1
263,247,265,-1
242,243,262,-1
242,262,263,-1
242,263,264,-1
262,266,263,-1
242,264,248,-1
236,222,264,-1
265,249,272,-1
237,273,257,-1
236,264,237,-1
263,265,264,-1
237,264,273,-1
264,265,273,-1
263,266,250,-1
267,251,269,-1
266,268,252,-1
268,270,254,-1
269,253,357,-1
270,271,255,-1
262,267,266,-1
267,268,266,-1
267,269,268,-1
268,269,270,-1
269,357,270,-1
270,357,271,-1
272,256,274,-1
276,277,261,-1
271,275,259,-1
275,276,260,-1
274,258,277,-1
273,360,351,-1
265,272,273,-1
272,274,273,-1
274,360,273,-1
274,277,360,-1
276,360,277,-1
285,180,280,-1
283,279,278,-1
284,281,279,-1
286,280,281,-1
304,278,296,-1
287,297,282,-1
283,284,279,-1
284,286,281,-1
285,280,286,-1
189,285,292,-1
283,286,284,-1
283,278,304,-1
287,282,295,-1
287,305,297,-1
285,286,287,-1
283,304,286,-1
292,285,287,-1
286,304,287,-1
287,304,305,-1
292,290,288,-1
295,282,291,-1
293,291,289,-1
189,292,288,-1
292,294,290,-1
292,295,294,-1
292,287,295,-1
293,295,291,-1
294,295,293,-1
305,296,297,-1
306,299,298,-1
307,300,299,-1
308,314,300,-1
310,298,302,-1
309,303,301,-1
327,301,315,-1
311,302,303,-1
304,296,305,-1
306,307,299,-1
307,308,300,-1
306,298,310,-1
306,308,307,-1
306,309,308,-1
306,310,309,-1
308,309,327,-1
308,327,328,-1
309,311,303,-1
309,301,327,-1
310,302,311,-1
330,318,811,-1
309,310,311,-1
324,313,312,-1
326,312,314,-1
325,322,313,-1
328,317,316,-1
330,315,318,-1
332,316,320,-1
329,319,317,-1
331,819,319,-1
333,320,321,-1
335,321,323,-1
334,829,322,-1
308,326,314,-1
308,328,326,-1
328,332,326,-1
324,325,313,-1
324,312,326,-1
324,326,325,-1
325,326,334,-1
328,316,332,-1
327,315,330,-1
328,329,317,-1
329,331,319,-1
327,329,328,-1
327,330,329,-1
330,331,329,-1
330,834,331,-1
332,320,333,-1
325,334,322,-1
333,321,335,-1
335,323,838,-1
334,845,829,-1
326,332,334,-1
332,333,334,-1
333,335,334,-1
334,335,845,-1
342,337,336,-1
343,338,337,-1
346,336,340,-1
345,341,339,-1
347,340,341,-1
342,343,337,-1
343,344,338,-1
342,344,343,-1
342,336,346,-1
345,347,341,-1
346,340,347,-1
342,346,344,-1
344,346,345,-1
345,346,347,-1
358,348,349,-1
360,350,351,-1
359,349,350,-1
361,353,352,-1
363,352,354,-1
363,354,338,-1
364,339,355,-1
362,356,353,-1
357,348,358,-1
358,349,359,-1
271,357,358,-1
359,350,360,-1
361,362,353,-1
361,352,363,-1
271,358,275,-1
275,358,359,-1
275,359,276,-1
276,359,360,-1
361,363,362,-1
344,363,338,-1
345,339,364,-1
344,345,364,-1
362,365,356,-1
344,364,363,-1
362,363,365,-1
363,364,365,-1
369,366,367,-1
368,366,369,-1
368,355,366,-1
365,372,356,-1
375,371,370,-1
377,373,372,-1
378,370,373,-1
376,882,371,-1
379,367,374,-1
895,374,881,-1
364,355,368,-1
365,377,372,-1
364,368,369,-1
364,369,377,-1
375,376,371,-1
364,377,365,-1
369,367,379,-1
377,369,379,-1
377,378,373,-1
375,370,378,-1
379,374,895,-1
376,896,882,-1
377,379,378,-1
375,378,376,-1
376,378,379,-1
376,379,896,-1
379,895,896,-1
381,382,383,-1
381,383,384,-1
383,386,384,-1
383,385,386,-1
385,389,386,-1
381,392,382,-1
381,384,391,-1
382,393,383,-1
391,384,387,-1
394,387,388,-1
396,388,390,-1
385,396,389,-1
396,390,389,-1
381,391,392,-1
391,393,392,-1
391,394,393,-1
382,392,393,-1
391,387,394,-1
394,388,396,-1
395,394,396,-1
385,395,396,-1
393,394,395,-1
400,450,397,-1
401,397,398,-1
400,401,455,-1
400,397,401,-1
413,404,403,-1
414,405,404,-1
415,429,405,-1
416,403,406,-1
417,410,407,-1
418,406,408,-1
420,409,410,-1
421,407,411,-1
422,411,412,-1
434,412,430,-1
413,403,416,-1
413,414,404,-1
414,415,405,-1
413,421,414,-1
414,421,415,-1
416,406,418,-1
420,410,417,-1
420,419,409,-1
418,408,530,-1
416,418,420,-1
413,416,417,-1
416,420,417,-1
418,419,420,-1
417,407,421,-1
421,411,422,-1
415,433,429,-1
422,412,434,-1
413,417,421,-1
421,422,415,-1
415,422,433,-1
422,434,433,-1
426,424,423,-1
427,425,424,-1
401,398,484,-1
426,427,424,-1
426,423,441,-1
426,428,427,-1
427,428,425,-1
433,431,429,-1
436,430,432,-1
435,573,431,-1
433,435,431,-1
434,430,436,-1
433,434,435,-1
434,436,435,-1
436,583,435,-1
441,423,438,-1
440,439,437,-1
442,438,439,-1
426,441,428,-1
428,441,440,-1
441,438,442,-1
440,441,442,-1
440,442,439,-1
383,446,447,-1
383,447,385,-1
447,443,450,-1
447,448,443,-1
444,445,446,-1
445,449,446,-1
446,449,447,-1
447,449,448,-1
449,451,448,-1
383,454,446,-1
385,447,395,-1
447,450,455,-1
383,393,454,-1
393,455,454,-1
393,395,455,-1
447,455,395,-1
444,446,452,-1
444,453,445,-1
445,456,449,-1
449,456,451,-1
444,452,453,-1
446,454,452,-1
445,453,456,-1
452,454,453,-1
453,454,456,-1
454,455,456,-1
456,399,451,-1
400,455,450,-1
401,402,455,-1
402,456,455,-1
402,399,456,-1
460,458,457,-1
480,457,468,-1
461,459,458,-1
462,464,459,-1
460,461,458,-1
460,457,480,-1
461,462,459,-1
466,465,464,-1
467,498,465,-1
462,466,464,-1
466,467,465,-1
467,507,498,-1
462,508,466,-1
466,507,467,-1
402,473,399,-1
428,472,425,-1
484,398,472,-1
401,484,402,-1
402,485,473,-1
428,484,472,-1
402,484,485,-1
481,468,469,-1
482,469,470,-1
483,470,471,-1
486,471,474,-1
487,474,475,-1
488,475,476,-1
489,476,477,-1
490,477,478,-1
491,478,479,-1
481,480,468,-1
481,469,482,-1
482,470,483,-1
483,471,486,-1
461,491,462,-1
460,491,461,-1
460,480,491,-1
481,491,480,-1
481,482,491,-1
486,474,487,-1
487,475,488,-1
488,476,489,-1
489,477,490,-1
490,478,491,-1
514,491,479,-1
483,486,488,-1
482,483,491,-1
486,487,488,-1
483,488,489,-1
462,491,514,-1
483,489,490,-1
483,490,491,-1
440,437,492,-1
428,440,484,-1
440,492,495,-1
440,485,484,-1
440,495,485,-1
485,494,473,-1
496,492,493,-1
497,493,494,-1
495,492,496,-1
485,497,494,-1
485,495,497,-1
496,493,497,-1
495,496,497,-1
507,499,498,-1
508,500,499,-1
509,501,500,-1
510,504,501,-1
511,503,502,-1
513,502,504,-1
514,479,505,-1
515,505,506,-1
512,506,503,-1
507,508,499,-1
508,509,500,-1
509,510,501,-1
510,513,504,-1
466,508,507,-1
462,509,508,-1
462,510,509,-1
462,513,510,-1
462,511,513,-1
462,515,512,-1
462,512,511,-1
513,511,502,-1
511,512,503,-1
514,505,515,-1
512,515,506,-1
462,514,515,-1
419,517,409,-1
530,408,516,-1
531,518,517,-1
533,516,519,-1
532,520,518,-1
534,521,520,-1
535,522,521,-1
538,519,524,-1
536,523,522,-1
537,527,523,-1
539,526,525,-1
541,524,527,-1
542,578,528,-1
543,528,529,-1
419,531,517,-1
530,516,533,-1
531,532,518,-1
532,534,520,-1
418,530,419,-1
419,530,531,-1
530,532,531,-1
530,533,532,-1
532,533,534,-1
534,535,521,-1
533,519,538,-1
535,536,522,-1
536,537,523,-1
539,540,526,-1
538,524,541,-1
537,541,527,-1
533,535,534,-1
533,538,535,-1
535,538,536,-1
536,538,541,-1
536,541,537,-1
542,528,543,-1
542,543,588,-1
540,544,526,-1
562,525,548,-1
560,545,546,-1
558,592,544,-1
561,550,547,-1
599,547,593,-1
559,549,545,-1
563,548,549,-1
565,546,551,-1
564,552,550,-1
567,551,553,-1
566,554,552,-1
568,555,554,-1
624,553,614,-1
569,556,555,-1
570,557,556,-1
540,558,544,-1
539,525,562,-1
559,545,560,-1
539,558,540,-1
539,559,558,-1
539,562,559,-1
558,559,560,-1
558,560,561,-1
558,598,592,-1
560,546,565,-1
561,547,599,-1
558,561,598,-1
560,564,561,-1
561,599,598,-1
559,563,549,-1
562,548,563,-1
559,562,563,-1
561,564,550,-1
565,551,567,-1
564,566,552,-1
566,568,554,-1
567,553,624,-1
568,569,555,-1
569,570,556,-1
570,571,557,-1
560,565,564,-1
565,566,564,-1
565,567,566,-1
566,567,568,-1
567,624,568,-1
568,624,569,-1
582,432,572,-1
584,572,574,-1
583,576,573,-1
585,574,575,-1
587,575,577,-1
588,577,578,-1
586,579,576,-1
589,529,579,-1
590,581,580,-1
436,432,582,-1
435,583,573,-1
584,574,585,-1
582,572,584,-1
585,575,587,-1
583,586,576,-1
436,582,583,-1
582,584,583,-1
584,586,583,-1
584,585,586,-1
585,587,586,-1
587,577,588,-1
542,588,578,-1
543,529,589,-1
586,589,579,-1
590,591,581,-1
586,587,589,-1
587,588,589,-1
588,543,589,-1
598,580,592,-1
591,595,581,-1
600,593,594,-1
602,594,596,-1
601,637,595,-1
603,596,597,-1
571,597,557,-1
590,580,598,-1
599,593,600,-1
591,601,595,-1
590,598,591,-1
591,598,601,-1
598,599,601,-1
600,594,602,-1
602,596,603,-1
603,597,571,-1
601,643,637,-1
599,600,601,-1
600,602,601,-1
602,603,643,-1
602,643,601,-1
603,571,643,-1
608,605,604,-1
609,606,605,-1
651,604,649,-1
611,650,607,-1
669,607,667,-1
608,609,605,-1
608,604,651,-1
608,610,609,-1
609,610,606,-1
608,611,610,-1
608,651,611,-1
611,607,669,-1
610,611,669,-1
610,669,670,-1
622,613,612,-1
623,617,613,-1
625,614,615,-1
626,615,616,-1
629,612,619,-1
627,621,617,-1
628,618,641,-1
628,620,618,-1
630,619,620,-1
646,640,621,-1
622,623,613,-1
623,627,617,-1
622,627,623,-1
624,614,625,-1
625,615,626,-1
626,616,643,-1
569,624,625,-1
569,625,570,-1
570,625,626,-1
570,626,571,-1
571,626,643,-1
622,612,629,-1
628,630,620,-1
629,619,630,-1
622,629,627,-1
627,629,628,-1
627,628,647,-1
628,629,630,-1
627,646,621,-1
628,641,647,-1
627,647,646,-1
634,641,631,-1
648,632,642,-1
636,631,633,-1
635,655,632,-1
660,633,656,-1
634,636,647,-1
634,647,641,-1
635,632,648,-1
635,648,647,-1
636,635,647,-1
634,631,636,-1
636,633,660,-1
635,659,655,-1
635,660,659,-1
636,660,635,-1
643,616,637,-1
644,639,638,-1
646,638,640,-1
645,642,639,-1
644,645,639,-1
644,638,646,-1
644,646,645,-1
645,648,642,-1
645,646,648,-1
646,647,648,-1
652,649,650,-1
651,649,652,-1
611,651,652,-1
611,652,650,-1
657,654,653,-1
659,653,655,-1
658,1167,654,-1
1173,656,1166,-1
657,658,654,-1
657,653,659,-1
658,1174,1167,-1
660,656,1173,-1
657,659,658,-1
658,659,660,-1
658,660,1174,-1
660,1173,1174,-1
664,662,661,-1
665,663,662,-1
664,665,662,-1
664,661,1184,-1
664,666,665,-1
665,666,663,-1
664,1183,666,-1
610,673,606,-1
670,680,668,-1
678,668,674,-1
610,677,673,-1
669,667,688,-1
670,689,680,-1
610,670,677,-1
669,689,670,-1
670,668,678,-1
670,678,677,-1
675,672,671,-1
677,671,673,-1
676,698,672,-1
702,674,697,-1
675,671,677,-1
675,676,672,-1
675,677,676,-1
678,674,702,-1
676,703,698,-1
676,677,703,-1
677,678,703,-1
688,667,679,-1
689,681,680,-1
691,679,682,-1
690,683,681,-1
692,685,683,-1
693,682,684,-1
694,687,685,-1
695,700,686,-1
696,686,687,-1
688,679,691,-1
689,690,681,-1
669,688,689,-1
688,690,689,-1
688,691,690,-1
691,682,693,-1
690,692,683,-1
692,694,685,-1
690,691,692,-1
691,693,692,-1
692,693,694,-1
693,709,694,-1
696,695,686,-1
694,696,687,-1
694,709,696,-1
696,710,695,-1
710,706,695,-1
704,697,699,-1
703,701,698,-1
705,699,700,-1
704,702,697,-1
704,699,705,-1
678,702,703,-1
704,703,702,-1
704,706,703,-1
695,705,700,-1
703,706,701,-1
704,705,706,-1
695,706,705,-1
709,684,707,-1
710,707,708,-1
666,713,663,-1
693,684,709,-1
709,707,710,-1
710,708,706,-1
696,709,710,-1
666,716,713,-1
706,708,701,-1
714,712,711,-1
716,711,713,-1
715,1306,712,-1
714,711,716,-1
714,715,712,-1
714,716,715,-1
715,716,1307,-1
722,151,718,-1
155,726,152,-1
724,719,720,-1
723,718,719,-1
725,742,721,-1
154,151,722,-1
722,718,723,-1
154,722,155,-1
155,722,730,-1
723,719,724,-1
725,721,731,-1
724,720,751,-1
722,723,725,-1
722,725,730,-1
723,724,751,-1
723,751,725,-1
730,727,726,-1
731,721,727,-1
732,729,728,-1
155,730,726,-1
730,731,727,-1
732,733,729,-1
725,731,730,-1
751,720,743,-1
738,735,734,-1
739,736,735,-1
762,734,758,-1
741,759,737,-1
740,749,736,-1
756,737,748,-1
738,739,735,-1
738,734,762,-1
739,740,736,-1
738,740,739,-1
738,762,740,-1
740,762,741,-1
741,737,756,-1
740,757,749,-1
740,741,756,-1
740,756,757,-1
750,728,742,-1
733,745,729,-1
752,743,744,-1
753,744,745,-1
754,747,746,-1
757,746,749,-1
755,766,747,-1
725,750,742,-1
732,728,750,-1
733,753,745,-1
751,743,752,-1
752,744,753,-1
725,751,750,-1
732,750,733,-1
733,750,751,-1
733,751,753,-1
751,752,753,-1
754,755,747,-1
754,746,757,-1
755,770,766,-1
754,757,755,-1
755,757,770,-1
757,756,770,-1
763,758,759,-1
781,760,774,-1
764,748,760,-1
765,769,761,-1
741,763,759,-1
762,758,763,-1
741,762,763,-1
756,748,764,-1
764,760,781,-1
765,761,770,-1
756,764,781,-1
756,781,765,-1
765,781,796,-1
770,761,766,-1
771,768,767,-1
773,767,769,-1
772,790,768,-1
756,765,770,-1
771,772,768,-1
771,767,773,-1
765,773,769,-1
771,773,772,-1
765,796,773,-1
772,773,796,-1
772,796,798,-1
782,776,775,-1
783,777,776,-1
796,774,788,-1
786,775,779,-1
785,780,778,-1
787,779,780,-1
784,794,777,-1
801,778,793,-1
782,783,776,-1
783,784,777,-1
782,784,783,-1
781,774,796,-1
782,775,786,-1
785,787,780,-1
786,779,787,-1
782,786,784,-1
784,786,785,-1
785,786,787,-1
785,778,801,-1
784,802,794,-1
784,785,801,-1
784,801,802,-1
797,788,789,-1
798,789,790,-1
799,792,791,-1
802,791,794,-1
800,795,792,-1
772,798,790,-1
796,788,797,-1
797,789,798,-1
799,800,792,-1
799,791,802,-1
796,797,798,-1
799,802,800,-1
800,803,795,-1
800,802,803,-1
802,801,803,-1
811,318,804,-1
834,805,818,-1
813,804,806,-1
812,807,805,-1
814,806,807,-1
815,809,808,-1
816,810,809,-1
817,833,810,-1
811,804,813,-1
812,805,834,-1
330,811,834,-1
811,813,812,-1
811,812,834,-1
812,814,807,-1
813,806,814,-1
815,816,809,-1
815,808,857,-1
816,817,810,-1
812,813,814,-1
815,817,816,-1
815,857,817,-1
835,821,819,-1
836,818,820,-1
840,822,824,-1
837,823,821,-1
839,824,823,-1
841,820,825,-1
842,825,826,-1
843,828,827,-1
844,826,828,-1
838,323,822,-1
845,830,829,-1
846,827,830,-1
847,832,831,-1
849,831,833,-1
848,863,832,-1
834,818,836,-1
331,835,819,-1
835,837,821,-1
836,820,841,-1
840,838,822,-1
837,839,823,-1
839,840,824,-1
841,825,842,-1
846,843,827,-1
842,826,844,-1
844,828,843,-1
331,834,835,-1
834,836,835,-1
835,836,837,-1
836,841,837,-1
837,842,839,-1
839,844,840,-1
840,846,838,-1
840,843,846,-1
837,841,842,-1
842,844,839,-1
840,844,843,-1
845,846,830,-1
335,838,845,-1
838,846,845,-1
817,849,833,-1
817,864,849,-1
847,848,832,-1
847,831,849,-1
847,849,848,-1
848,849,865,-1
857,808,851,-1
856,852,850,-1
858,851,852,-1
859,862,853,-1
860,853,854,-1
856,858,852,-1
856,850,864,-1
857,851,858,-1
817,857,856,-1
856,857,858,-1
817,856,864,-1
859,860,864,-1
859,853,860,-1
860,854,967,-1
860,861,864,-1
860,967,861,-1
864,850,862,-1
865,855,863,-1
861,963,855,-1
859,864,862,-1
861,865,864,-1
848,865,863,-1
849,864,865,-1
861,855,865,-1
872,866,867,-1
899,868,885,-1
874,867,869,-1
873,870,868,-1
871,866,872,-1
873,868,899,-1
872,867,874,-1
873,875,870,-1
871,872,899,-1
872,873,899,-1
872,874,873,-1
873,874,875,-1
890,877,876,-1
891,880,877,-1
871,876,866,-1
892,885,878,-1
893,878,879,-1
896,881,882,-1
894,884,880,-1
897,879,883,-1
898,887,884,-1
900,883,886,-1
902,886,888,-1
901,889,887,-1
937,888,923,-1
890,891,877,-1
871,890,876,-1
892,878,893,-1
893,879,897,-1
871,892,890,-1
890,892,893,-1
871,899,892,-1
890,893,891,-1
891,893,894,-1
891,894,880,-1
895,881,896,-1
894,898,884,-1
897,883,900,-1
893,897,894,-1
894,897,898,-1
897,900,898,-1
892,899,885,-1
898,901,887,-1
900,886,902,-1
902,888,937,-1
901,903,889,-1
898,900,901,-1
900,902,901,-1
901,902,903,-1
902,937,903,-1
875,904,870,-1
915,869,906,-1
913,905,904,-1
914,907,905,-1
916,908,907,-1
918,906,909,-1
919,911,910,-1
920,912,911,-1
874,869,915,-1
875,913,904,-1
913,914,905,-1
915,906,918,-1
914,916,907,-1
916,917,908,-1
874,913,875,-1
874,915,913,-1
913,915,914,-1
914,915,916,-1
915,918,916,-1
916,918,917,-1
918,909,944,-1
919,920,911,-1
920,921,912,-1
919,921,920,-1
919,975,921,-1
917,922,908,-1
938,923,924,-1
903,928,889,-1
939,924,925,-1
940,929,926,-1
941,925,927,-1
942,932,928,-1
943,927,929,-1
944,909,930,-1
936,930,922,-1
921,935,912,-1
945,926,931,-1
946,931,932,-1
947,934,933,-1
949,933,935,-1
948,984,934,-1
917,936,922,-1
917,944,936,-1
937,923,938,-1
938,924,939,-1
903,942,928,-1
940,943,929,-1
940,926,945,-1
939,925,941,-1
941,927,943,-1
942,946,932,-1
903,937,938,-1
903,938,942,-1
938,939,942,-1
940,945,943,-1
939,941,942,-1
941,946,942,-1
941,943,946,-1
943,945,946,-1
936,944,930,-1
917,918,944,-1
945,931,946,-1
921,949,935,-1
947,933,949,-1
947,948,934,-1
947,949,948,-1
956,951,950,-1
957,952,951,-1
958,962,952,-1
960,950,954,-1
959,955,953,-1
959,953,964,-1
961,954,955,-1
956,957,951,-1
956,950,960,-1
957,958,952,-1
956,958,957,-1
956,960,958,-1
958,959,967,-1
959,961,955,-1
960,954,961,-1
958,960,959,-1
959,960,961,-1
967,854,962,-1
968,966,963,-1
970,964,965,-1
971,965,966,-1
861,968,963,-1
958,967,962,-1
861,967,968,-1
959,968,967,-1
959,969,968,-1
959,964,969,-1
969,964,970,-1
968,971,966,-1
970,965,971,-1
968,969,971,-1
969,970,971,-1
976,910,973,-1
975,974,972,-1
977,973,974,-1
919,910,976,-1
976,973,977,-1
975,977,974,-1
919,976,975,-1
975,976,977,-1
997,972,978,-1
998,980,979,-1
1000,978,981,-1
999,985,980,-1
1001,979,982,-1
1002,982,983,-1
1012,983,993,-1
1005,981,986,-1
1004,987,985,-1
1006,988,987,-1
1008,986,989,-1
1009,989,990,-1
1007,991,988,-1
1011,994,992,-1
1010,992,991,-1
1003,996,984,-1
1013,993,994,-1
1015,995,996,-1
1014,990,995,-1
975,972,997,-1
998,979,1001,-1
997,978,1000,-1
998,999,980,-1
1000,981,1005,-1
999,1004,985,-1
921,975,997,-1
921,997,998,-1
921,998,949,-1
997,999,998,-1
997,1000,999,-1
1000,1004,999,-1
1001,982,1002,-1
948,1003,984,-1
1002,983,1012,-1
949,998,1001,-1
949,1003,948,-1
949,1001,1003,-1
1001,1002,1003,-1
1002,1012,1003,-1
1004,1006,987,-1
1005,986,1008,-1
1006,1007,988,-1
1008,989,1009,-1
1009,990,1014,-1
1000,1005,1004,-1
1005,1006,1004,-1
1005,1008,1006,-1
1006,1008,1007,-1
1007,1008,1009,-1
1007,1010,991,-1
1011,1013,994,-1
1010,1011,992,-1
1012,993,1013,-1
1003,1015,996,-1
1014,995,1015,-1
1003,1012,1015,-1
1012,1013,1015,-1
1011,1015,1013,-1
1007,1009,1010,-1
1010,1014,1011,-1
1011,1014,1015,-1
1009,1014,1010,-1
1022,1017,1016,-1
1023,1018,1017,-1
1026,1016,1020,-1
1025,1021,1019,-1
1027,1020,1021,-1
1022,1023,1017,-1
1022,1016,1026,-1
1023,1024,1018,-1
1022,1024,1023,-1
1022,1026,1024,-1
1025,1027,1021,-1
1026,1020,1027,-1
1024,1026,1025,-1
1025,1026,1027,-1
1033,1029,1028,-1
1035,1030,1018,-1
1036,1019,1031,-1
1035,1028,1030,-1
1034,1032,1029,-1
1037,1101,1032,-1
1024,1035,1018,-1
1025,1019,1036,-1
1024,1025,1036,-1
1033,1028,1035,-1
1033,1034,1029,-1
1034,1037,1032,-1
1033,1035,1034,-1
1024,1036,1035,-1
1035,1037,1034,-1
1035,1036,1037,-1
1036,1031,1099,-1
1036,1108,1037,-1
1041,793,1038,-1
1042,1038,1039,-1
1042,1039,1047,-1
801,793,1041,-1
803,1043,1040,-1
801,1042,1043,-1
801,1041,1042,-1
1041,1038,1042,-1
1043,1052,1040,-1
1042,1047,1053,-1
1043,1042,1053,-1
803,1040,795,-1
1050,1045,1044,-1
1052,1046,1040,-1
1052,1044,1046,-1
1051,1049,1045,-1
1054,1047,1048,-1
1055,1048,1049,-1
1050,1051,1045,-1
801,1043,803,-1
1050,1044,1052,-1
1051,1055,1049,-1
1053,1047,1054,-1
1054,1048,1055,-1
1043,1053,1052,-1
1050,1052,1051,-1
1051,1052,1053,-1
1051,1053,1055,-1
1053,1054,1055,-1
1062,1057,1056,-1
1063,1058,1057,-1
1066,1056,1060,-1
1064,1071,1058,-1
1075,1059,1070,-1
1065,1061,1059,-1
1067,1060,1061,-1
1062,1063,1057,-1
1062,1056,1066,-1
1063,1064,1058,-1
1062,1064,1063,-1
1062,1066,1064,-1
1064,1066,1065,-1
1065,1059,1075,-1
1064,1076,1071,-1
1064,1065,1075,-1
1064,1075,1076,-1
1065,1067,1061,-1
1066,1060,1067,-1
1065,1066,1067,-1
1075,1070,1082,-1
1073,1069,1068,-1
1076,1068,1071,-1
1074,1072,1069,-1
1077,1080,1072,-1
1073,1074,1069,-1
1073,1068,1076,-1
1074,1077,1072,-1
1073,1076,1074,-1
1074,1076,1077,-1
1076,1075,1077,-1
1075,1083,1077,-1
1082,1070,1079,-1
1083,1087,1080,-1
1084,1079,1081,-1
1094,1081,1088,-1
1082,1079,1084,-1
1077,1083,1080,-1
1075,1082,1084,-1
1075,1084,1083,-1
1084,1081,1094,-1
1083,1084,1094,-1
1091,1086,1085,-1
1093,1085,1087,-1
1092,1090,1086,-1
1095,1088,1089,-1
1096,1089,1090,-1
1091,1092,1086,-1
1083,1093,1087,-1
1091,1085,1093,-1
1083,1094,1093,-1
1091,1093,1092,-1
1092,1093,1094,-1
1092,1096,1090,-1
1094,1088,1095,-1
1095,1089,1096,-1
1092,1094,1096,-1
1094,1095,1096,-1
1100,1097,1098,-1
1099,1097,1100,-1
1099,1031,1097,-1
1108,1104,1101,-1
1109,1103,1102,-1
1111,1102,1104,-1
1110,1107,1103,-1
1112,1098,1105,-1
1113,1105,1106,-1
1114,1106,1107,-1
1037,1108,1101,-1
1036,1099,1100,-1
1036,1100,1108,-1
1109,1110,1103,-1
1108,1111,1104,-1
1109,1102,1111,-1
1108,1112,1111,-1
1109,1111,1110,-1
1111,1112,1110,-1
1100,1098,1112,-1
1108,1100,1112,-1
1110,1114,1107,-1
1112,1105,1113,-1
1113,1106,1114,-1
1110,1112,1114,-1
1112,1113,1114,-1
1129,1116,1117,-1
1130,1125,1118,-1
1128,1119,1116,-1
1131,1120,1119,-1
1133,1118,1121,-1
1132,1168,1120,-1
1134,1121,1122,-1
1135,1117,1123,-1
1137,1124,1125,-1
1138,1123,1126,-1
1136,1127,1124,-1
1176,1122,1169,-1
1129,1117,1135,-1
1129,1128,1116,-1
1129,1130,1128,-1
1129,1137,1130,-1
1128,1131,1119,-1
1131,1132,1120,-1
1130,1118,1133,-1
1133,1121,1134,-1
1132,1175,1168,-1
1134,1122,1176,-1
1128,1133,1131,-1
1128,1130,1133,-1
1131,1133,1132,-1
1133,1134,1132,-1
1132,1134,1175,-1
1134,1176,1175,-1
1137,1136,1124,-1
1130,1137,1125,-1
1135,1123,1138,-1
1136,1139,1127,-1
1129,1135,1137,-1
1135,1136,1137,-1
1135,1138,1136,-1
1136,1138,1139,-1
1139,1140,1127,-1
1155,1126,1142,-1
1153,1141,1140,-1
1154,1143,1141,-1
1156,1144,1143,-1
1160,1142,1147,-1
1157,1145,1144,-1
1159,1191,1146,-1
1161,1147,1148,-1
1158,1148,1145,-1
1162,1150,1149,-1
1163,1151,1150,-1
1165,1146,1152,-1
1164,1195,1151,-1
1138,1126,1155,-1
1139,1153,1140,-1
1153,1154,1141,-1
1155,1142,1160,-1
1154,1156,1143,-1
1156,1157,1144,-1
1157,1158,1145,-1
1138,1153,1139,-1
1138,1155,1153,-1
1153,1155,1154,-1
1154,1155,1156,-1
1155,1160,1156,-1
1156,1160,1157,-1
1157,1161,1158,-1
1159,1146,1165,-1
1159,1165,1201,-1
1160,1147,1161,-1
1158,1161,1148,-1
1162,1163,1150,-1
1163,1164,1151,-1
1157,1160,1161,-1
1162,1164,1163,-1
1162,1232,1164,-1
1164,1205,1195,-1
1174,1166,1167,-1
1175,1171,1168,-1
1177,1169,1170,-1
1178,1172,1171,-1
1196,1170,1186,-1
1173,1166,1174,-1
1175,1178,1171,-1
1176,1169,1177,-1
1177,1170,1196,-1
1178,1179,1172,-1
1175,1176,1178,-1
1176,1177,1178,-1
1177,1179,1178,-1
1177,1196,1179,-1
1184,661,1181,-1
1183,1182,1180,-1
1185,1181,1182,-1
664,1184,1183,-1
1184,1181,1185,-1
1183,1184,1185,-1
1183,1185,1182,-1
1197,1186,1187,-1
1179,1190,1172,-1
1198,1187,1188,-1
1199,1188,1189,-1
1200,1192,1190,-1
1201,1189,1191,-1
1202,1152,1192,-1
1203,1194,1193,-1
1205,1193,1195,-1
1204,1262,1194,-1
1196,1186,1197,-1
1197,1187,1198,-1
1179,1200,1190,-1
1198,1188,1199,-1
1199,1189,1201,-1
1159,1201,1191,-1
1200,1202,1192,-1
1179,1196,1197,-1
1179,1197,1200,-1
1197,1198,1200,-1
1198,1199,1200,-1
1199,1202,1200,-1
1199,1201,1202,-1
1201,1165,1202,-1
1165,1152,1202,-1
1203,1204,1194,-1
1203,1193,1205,-1
1203,1205,1204,-1
1212,1206,1207,-1
1213,1207,1208,-1
1214,1210,1209,-1
1215,1272,1210,-1
1212,1211,1206,-1
1212,1214,1211,-1
1212,1207,1213,-1
1214,1215,1210,-1
1215,1276,1272,-1
1212,1213,1215,-1
1212,1215,1214,-1
1213,1276,1215,-1
1233,1149,1217,-1
1235,1216,1219,-1
1232,1218,1216,-1
1234,1217,1218,-1
1266,1220,1260,-1
1236,1221,1220,-1
1238,1219,1222,-1
1237,1223,1221,-1
1240,1222,1224,-1
1239,1225,1223,-1
1241,1226,1225,-1
1242,1227,1226,-1
1243,1228,1227,-1
1245,1224,1229,-1
1246,1229,1230,-1
1247,1230,1231,-1
1162,1149,1233,-1
1232,1216,1235,-1
1232,1234,1218,-1
1233,1217,1234,-1
1162,1233,1232,-1
1164,1232,1235,-1
1164,1235,1236,-1
1232,1233,1234,-1
1236,1220,1266,-1
1235,1219,1238,-1
1236,1237,1221,-1
1238,1222,1240,-1
1237,1239,1223,-1
1164,1236,1205,-1
1205,1236,1266,-1
1235,1237,1236,-1
1235,1238,1237,-1
1238,1239,1237,-1
1239,1241,1225,-1
1240,1224,1245,-1
1241,1242,1226,-1
1242,1243,1227,-1
1243,1244,1228,-1
1245,1229,1246,-1
1246,1230,1247,-1
1247,1231,1271,-1
1238,1240,1239,-1
1240,1241,1239,-1
1240,1245,1241,-1
1241,1245,1242,-1
1242,1245,1246,-1
1242,1246,1243,-1
1243,1247,1244,-1
1244,1247,1271,-1
1246,1247,1243,-1
1254,1249,1248,-1
1255,1250,1249,-1
1287,1282,1250,-1
1288,1251,1283,-1
1258,1248,1252,-1
1257,1253,1251,-1
1259,1252,1253,-1
1289,1347,1284,-1
1254,1255,1249,-1
1255,1256,1250,-1
1254,1248,1258,-1
1257,1251,1288,-1
1254,1256,1255,-1
1254,1258,1256,-1
1256,1257,1288,-1
1256,1287,1250,-1
1256,1288,1287,-1
1257,1259,1253,-1
1258,1252,1259,-1
1256,1258,1257,-1
1257,1258,1259,-1
1288,1283,1349,-1
1288,1350,1289,-1
1267,1260,1261,-1
1269,1261,1263,-1
1270,1263,1264,-1
1268,1265,1262,-1
1244,1264,1228,-1
1271,1231,1265,-1
1266,1260,1267,-1
1204,1268,1262,-1
1267,1261,1269,-1
1205,1268,1204,-1
1205,1266,1268,-1
1266,1267,1268,-1
1267,1269,1268,-1
1269,1263,1270,-1
1244,1270,1264,-1
1268,1271,1265,-1
1268,1269,1271,-1
1269,1270,1271,-1
1244,1271,1270,-1
1277,1208,1273,-1
1276,1274,1272,-1
1297,1273,1290,-1
1278,1275,1274,-1
1279,1291,1275,-1
1213,1208,1277,-1
1213,1277,1276,-1
1276,1277,1278,-1
1276,1278,1274,-1
1277,1273,1297,-1
1277,1279,1278,-1
1277,1297,1279,-1
1279,1297,1298,-1
1278,1279,1275,-1
1279,1298,1291,-1
1285,1281,1280,-1
1287,1280,1282,-1
1286,1284,1281,-1
1285,1286,1281,-1
1285,1280,1287,-1
1286,1289,1284,-1
1285,1287,1286,-1
1287,1289,1286,-1
1287,1288,1289,-1
1302,1290,1295,-1
1298,1292,1291,-1
1299,1293,1292,-1
1300,1294,1293,-1
1301,1296,1294,-1
1303,1295,1296,-1
1297,1290,1302,-1
1298,1299,1292,-1
1299,1300,1293,-1
1300,1301,1294,-1
1297,1299,1298,-1
1297,1302,1299,-1
1299,1302,1300,-1
1300,1302,1303,-1
1300,1303,1301,-1
1302,1295,1303,-1
1301,1303,1296,-1
1307,1180,1304,-1
1183,1180,1307,-1
666,1183,716,-1
716,1183,1307,-1
1308,1304,1305,-1
1309,1305,1306,-1
1307,1304,1308,-1
715,1309,1306,-1
715,1307,1309,-1
1308,1305,1309,-1
1307,1308,1309,-1
1211,1310,1206,-1
1315,1312,1310,-1
1317,1320,1312,-1
1316,1209,1311,-1
1318,1311,1313,-1
1319,1313,1314,-1
1211,1315,1310,-1
1211,1316,1315,-1
1315,1316,1317,-1
1211,1214,1316,-1
1315,1317,1312,-1
1317,1322,1320,-1
1316,1318,1317,-1
1317,1318,1322,-1
1214,1209,1316,-1
1316,1311,1318,-1
1318,1313,1319,-1
1318,1319,1322,-1
1322,1321,1320,-1
1329,1314,1324,-1
1322,1323,1321,-1
1319,1314,1329,-1
1322,1319,1323,-1
1319,1329,1323,-1
1323,1326,1321,-1
1330,1324,1325,-1
1332,1325,1327,-1
1331,1339,1326,-1
1333,1327,1328,-1
1329,1324,1330,-1
1323,1331,1326,-1
1323,1329,1331,-1
1329,1330,1331,-1
1330,1325,1332,-1
1332,1327,1333,-1
1331,1343,1339,-1
1330,1332,1331,-1
1332,1333,1343,-1
1331,1332,1343,-1
1336,1340,1334,-1
1337,1334,1335,-1
1336,1334,1337,-1
1336,1337,1344,-1
1337,1335,1345,-1
1342,1328,1338,-1
1343,1341,1339,-1
1344,1338,1340,-1
1345,1335,1341,-1
1333,1328,1342,-1
1342,1338,1344,-1
1336,1344,1340,-1
1343,1345,1341,-1
1333,1342,1343,-1
1342,1345,1343,-1
1342,1344,1345,-1
1344,1337,1345,-1
1349,1283,1346,-1
1350,1354,1347,-1
1351,1346,1348,-1
1361,1348,1355,-1
1288,1349,1351,-1
1289,1350,1347,-1
1350,1360,1354,-1
1288,1351,1350,-1
1350,1361,1360,-1
1349,1346,1351,-1
1351,1348,1361,-1
1350,1351,1361,-1
1358,1353,1352,-1
1360,1352,1354,-1
1359,1357,1353,-1
1362,1355,1356,-1
1363,1356,1357,-1
1358,1359,1353,-1
1358,1352,1360,-1
1358,1360,1359,-1
1360,1361,1359,-1
1359,1363,1357,-1
1361,1355,1362,-1
1362,1356,1363,-1
1359,1361,1363,-1
1361,1362,1363,-1
1375,1364,1365,-1
1376,1366,1364,-1
1376,1367,1366,-1
1377,1368,1367,-1
1378,1369,1368,-1
1379,1371,1369,-1
1380,1365,1370,-1
1381,1372,1371,-1
1382,1373,1372,-1
1383,1385,1373,-1
1374,1364,1375,-1
1374,1375,1379,-1
1374,1376,1364,-1
1378,1368,1377,-1
1376,1377,1367,-1
1378,1379,1369,-1
1379,1381,1371,-1
1374,1378,1376,-1
1374,1379,1378,-1
1378,1377,1376,-1
1375,1381,1379,-1
1375,1365,1380,-1
1380,1370,1392,-1
1375,1382,1381,-1
1375,1380,1382,-1
1382,1380,1383,-1
1380,1393,1383,-1
1381,1382,1372,-1
1382,1383,1373,-1
1383,1393,1385,-1
1392,1370,1384,-1
1393,1386,1385,-1
1394,1387,1386,-1
1397,1384,1389,-1
1395,1388,1387,-1
1398,1389,1390,-1
1399,1390,1391,-1
1392,1384,1397,-1
1380,1392,1393,-1
1393,1394,1386,-1
1394,1395,1387,-1
1395,1396,1388,-1
1393,1392,1394,-1
1392,1397,1394,-1
1394,1397,1395,-1
1397,1389,1398,-1
1398,1390,1399,-1
1399,1391,1478,-1
1395,1397,1398,-1
1395,1398,1396,-1
1396,1398,1399,-1
1402,1416,1400,-1
1403,1400,1401,-1
1403,1401,1417,-1
1402,1400,1403,-1
1410,1405,1404,-1
1411,1407,1405,-1
1410,1404,1416,-1
1414,1406,1408,-1
1412,1417,1406,-1
1413,1513,1407,-1
1415,1408,1409,-1
1415,1409,1533,-1
1410,1411,1405,-1
1411,1413,1407,-1
1410,1412,1411,-1
1411,1412,1413,-1
1412,1406,1414,-1
1414,1408,1415,-1
1412,1414,1413,-1
1410,1418,1412,-1
1414,1415,1413,-1
1413,1415,1516,-1
1402,1410,1416,-1
1493,1415,1533,-1
1402,1403,1418,-1
1403,1417,1419,-1
1402,1418,1410,-1
1412,1419,1417,-1
1403,1419,1418,-1
1412,1418,1419,-1
1427,1420,1421,-1
1428,1423,1422,-1
1430,1422,1424,-1
1429,1425,1423,-1
1431,1458,1425,-1
1426,1420,1427,-1
1427,1421,1443,-1
1426,1427,1443,-1
1428,1429,1423,-1
1428,1422,1430,-1
1429,1431,1425,-1
1430,1424,1467,-1
1431,1473,1458,-1
1428,1430,1429,-1
1430,1431,1429,-1
1430,1473,1431,-1
1430,1468,1473,-1
1426,1432,1420,-1
1442,1435,1432,-1
1443,1421,1433,-1
1444,1433,1434,-1
1445,1436,1435,-1
1447,1434,1437,-1
1448,1437,1438,-1
1446,1439,1436,-1
1449,1441,1439,-1
1450,1438,1440,-1
1486,1440,1482,-1
1426,1442,1432,-1
1442,1445,1435,-1
1443,1433,1444,-1
1444,1434,1447,-1
1445,1446,1436,-1
1426,1443,1442,-1
1443,1445,1442,-1
1443,1444,1445,-1
1444,1447,1446,-1
1445,1444,1446,-1
1447,1437,1448,-1
1448,1438,1450,-1
1446,1449,1439,-1
1449,1451,1441,-1
1450,1440,1486,-1
1447,1448,1449,-1
1446,1447,1449,-1
1448,1451,1449,-1
1448,1450,1451,-1
1450,1486,1451,-1
1467,1424,1452,-1
1469,1452,1454,-1
1468,1457,1453,-1
1396,1455,1388,-1
1470,1454,1455,-1
1471,1453,1456,-1
1473,1459,1458,-1
1474,1460,1459,-1
1475,1461,1460,-1
1479,1456,1464,-1
1476,1484,1461,-1
1477,1463,1462,-1
1472,1462,1457,-1
1478,1391,1463,-1
1480,1464,1465,-1
1481,1465,1466,-1
1467,1452,1469,-1
1468,1453,1471,-1
1470,1469,1454,-1
1396,1470,1455,-1
1472,1457,1468,-1
1471,1456,1479,-1
1430,1467,1468,-1
1467,1472,1468,-1
1468,1471,1473,-1
1470,1477,1469,-1
1467,1469,1472,-1
1469,1477,1472,-1
1473,1474,1459,-1
1474,1475,1460,-1
1475,1476,1461,-1
1476,1488,1484,-1
1473,1471,1474,-1
1474,1471,1479,-1
1474,1479,1475,-1
1475,1480,1476,-1
1476,1481,1488,-1
1472,1477,1462,-1
1477,1478,1463,-1
1396,1478,1470,-1
1396,1399,1478,-1
1470,1478,1477,-1
1479,1464,1480,-1
1480,1465,1481,-1
1489,1481,1466,-1
1475,1479,1480,-1
1480,1481,1476,-1
1487,1482,1483,-1
1451,1485,1441,-1
1488,1483,1484,-1
1489,1466,1485,-1
1487,1486,1482,-1
1487,1483,1488,-1
1451,1489,1485,-1
1451,1486,1489,-1
1487,1489,1486,-1
1487,1488,1489,-1
1488,1481,1489,-1
1493,1490,1491,-1
1492,1493,1491,-1
1493,1533,1490,-1
1492,1491,1534,-1
1492,1496,1493,-1
1492,1494,1496,-1
1494,1497,1496,-1
1494,1495,1497,-1
1495,1501,1497,-1
1495,1498,1501,-1
1498,1499,1502,-1
1499,1500,1510,-1
1498,1502,1501,-1
1502,1499,1503,-1
1499,1510,1503,-1
1505,1504,1506,-1
1505,1547,1504,-1
1508,1506,1548,-1
1507,1505,1508,-1
1505,1506,1508,-1
1507,1509,1500,-1
1507,1508,1509,-1
1500,1509,1510,-1
1515,1511,1512,-1
1514,1511,1515,-1
1515,1512,1526,-1
1514,1515,1526,-1
1413,1516,1513,-1
1514,1517,1511,-1
1525,1520,1517,-1
1526,1512,1518,-1
1527,1518,1519,-1
1529,1519,1521,-1
1530,1521,1522,-1
1531,1522,1523,-1
1528,1524,1520,-1
1514,1525,1517,-1
1514,1526,1525,-1
1526,1518,1527,-1
1527,1519,1529,-1
1525,1528,1520,-1
1529,1521,1530,-1
1530,1522,1531,-1
1528,1532,1524,-1
1525,1526,1527,-1
1525,1527,1528,-1
1527,1529,1528,-1
1528,1529,1530,-1
1530,1531,1532,-1
1528,1530,1532,-1
1493,1496,1536,-1
1492,1537,1494,-1
1494,1538,1495,-1
1492,1534,1535,-1
1516,1534,1513,-1
1495,1541,1498,-1
1496,1497,1539,-1
1497,1501,1540,-1
1498,1542,1499,-1
1499,1543,1500,-1
1501,1502,1544,-1
1502,1503,1545,-1
1503,1510,1546,-1
1493,1536,1415,-1
1516,1535,1534,-1
1492,1535,1537,-1
1496,1539,1536,-1
1494,1537,1538,-1
1415,1536,1516,-1
1516,1536,1535,-1
1535,1536,1539,-1
1535,1539,1537,-1
1495,1538,1541,-1
1497,1540,1539,-1
1501,1544,1540,-1
1537,1539,1540,-1
1537,1540,1538,-1
1538,1540,1544,-1
1498,1541,1542,-1
1499,1542,1543,-1
1502,1545,1544,-1
1503,1546,1545,-1
1510,1553,1546,-1
1538,1544,1541,-1
1541,1545,1542,-1
1542,1553,1543,-1
1541,1544,1545,-1
1545,1546,1542,-1
1542,1546,1553,-1
1507,1549,1505,-1
1507,1500,1550,-1
1505,1531,1547,-1
1531,1523,1547,-1
1532,1548,1524,-1
1508,1548,1551,-1
1508,1552,1509,-1
1510,1509,1553,-1
1505,1549,1531,-1
1532,1551,1548,-1
1507,1550,1549,-1
1500,1543,1550,-1
1531,1549,1532,-1
1532,1549,1551,-1
1550,1551,1549,-1
1508,1551,1552,-1
1509,1552,1553,-1
1550,1543,1552,-1
1550,1552,1551,-1
1543,1553,1552,-1
]

colorPerVertex FALSE

color Color { color [
 0 0 0,
 1 1 1,
 0.976471 0.843137 0.172549, # default colour
] }

colorIndex [
0 0 0 0 0 0 0 0 0 0 0 0 0 0 0 0 0 0 0 0 0 0 0 0 0 0 0 0 0 0 0 0 0 0 0 0 0 0 0 0 0 0 0 0 0 0 0 0 0 0 0 0 0 0 0 0 0 0 0 0 0 0 0 0 0 0 0 0 0 0 0 0 0 0 0 0 0 0 0 0 0 0 0 0 0 0 0 0 0 0 0 0 0 0 0 0 0 0 0 0 0 0 0 0 0 0 0 0 0 0 0 0 0 0 0 0 0 0 0 0 0 0 0 0 0 0 0 0 0 0 0 0 0 0 0 0 0 0 0 0 0 0 0 0 0 0 0 0 0 0 0 0 0 0 0 0 0 0 0 0 0 0 0 0 0 0 0 0 0 0 0 0 0 0 0 0 0 0 0 0 0 0 0 0 0 0 0 0 0 0 0 0 0 0 0 0 0 0 0 0 0 0 0 0 0 0 0 0 0 0 0 0 0 0 0 0 0 0 0 0 0 0 0 0 0 0 0 0 0 0 0 0 0 0 0 0 0 0 0 0 0 0 0 0 0 0 0 0 0 0 0 0 0 0 0 0 0 0 0 0 0 0 0 0 0 0 0 0 0 0 0 0 0 0 0 0 0 0 0 0 0 0 0 0 0 0 0 0 0 0 0 0 0 0 0 0 0 0 0 0 0 0 0 0 0 0 0 0 0 0 0 0 0 0 0 0 0 0 0 0 0 0 0 0 0 0 0 0 0 0 0 0 0 0 0 0 0 0 0 0 0 0 0 0 0 0 0 0 0 0 0 0 0 0 0 0 0 0 0 0 0 0 0 0 0 0 0 0 0 0 0 0 0 0 0 0 0 0 0 0 0 0 0 0 0 0 0 0 0 0 0 0 0 0 0 0 0 0 0 0 0 0 0 0 0 0 0 0 0 0 0 0 0 0 0 0 0 0 0 0 0 0 0 0 0 0 0 0 0 0 0 0 0 0 0 0 0 0 0 0 0 0 0 0 0 0 0 0 0 0 0 0 0 0 0 0 0 0 0 0 0 0 0 0 0 0 0 0 0 0 0 0 0 0 0 0 0 0 0 0 0 0 0 0 0 0 0 0 0 0 0 0 0 0 0 0 0 0 0 0 0 0 0 0 0 0 0 0 0 0 0 0 0 0 0 0 0 0 0 0 0 0 0 0 0 0 0 0 0 0 0 0 0 0 0 0 0 0 0 0 0 0 0 0 0 0 0 0 0 0 0 0 0 0 0 0 0 0 0 0 0 0 0 0 0 0 0 0 0 0 0 0 0 0 0 0 0 0 0 0 0 0 0 0 0 0 0 0 0 0 0 0 0 0 0 0 0 0 0 0 0 0 0 0 0 0 0 0 0 0 0 0 0 0 0 0 0 0 0 0 0 0 0 0 0 0 0 0 0 0 0 0 0 0 0 0 0 0 0 0 0 0 0 0 0 0 0 0 0 0 0 0 0 0 0 0 0 0 0 0 0 0 0 0 0 0 0 0 0 0 0 0 0 0 0 0 0 0 0 0 0 0 0 0 0 0 0 0 0 0 0 0 0 0 0 0 0 0 0 0 0 0 0 0 0 0 0 0 0 0 0 0 0 0 0 0 0 0 0 0 0 0 0 0 0 0 0 0 0 0 0 0 0 0 0 0 0 0 0 0 0 0 0 0 0 0 0 0 0 0 0 0 0 0 0 0 0 0 0 0 0 0 0 0 0 0 0 0 0 0 0 0 0 0 0 0 0 0 0 0 0 0 0 0 0 0 0 0 0 0 0 0 0 0 0 0 0 0 0 0 0 0 0 0 0 0 0 0 0 0 0 0 0 0 0 0 1 1 1 1 1 1 1 1 1 1 1 1 1 1 1 1 1 1 1 1 1 1 1 1 1 1 1 1 1 1 1 1 1 1 1 1 1 1 1 1 1 1 1 1 1 1 1 1 1 1 1 1 1 1 1 1 1 1 1 1 1 1 1 1 1 1 1 1 1 1 1 1 1 1 1 1 1 1 1 1 1 1 1 1 1 1 1 1 1 1 1 1 1 1 1 1 1 1 1 1 1 1 1 1 1 1 1 1 1 1 1 1 1 1 1 1 1 1 1 1 1 1 1 1 1 1 1 1 1 1 1 1 1 1 1 1 1 1 1 1 1 1 1 1 1 1 1 1 1 1 1 1 1 1 1 1 1 1 1 1 1 1 1 1 1 1 1 1 1 1 1 1 1 1 1 1 1 1 1 1 1 1 1 1 1 1 1 1 1 1 1 1 1 1 1 1 1 1 1 1 1 1 1 1 1 1 1 1 1 1 1 1 1 1 1 1 1 1 1 1 1 1 1 1 1 1 1 1 1 1 1 1 1 1 1 1 1 1 1 1 1 1 1 1 1 1 1 1 1 1 1 1 1 1 1 1 1 1 1 1 1 1 1 1 1 1 1 1 1 1 1 1 1 1 1 1 1 1 1 1 1 1 1 1 1 1 1 1 1 1 1 1 1 1 1 1 1 1 1 1 1 1 1 1 1 1 1 1 1 1 1 1 1 1 1 1 1 1 1 1 1 1 1 1 1 1 1 1 1 1 1 1 1 1 1 1 1 1 1 1 1 1 1 1 1 1 1 1 1 1 1 1 1 1 1 1 1 1 1 1 1 1 1 1 1 1 1 1 1 1 1 1 1 1 1 1 1 1 1 1 1 1 1 1 1 1 1 1 1 1 1 1 1 1 1 1 1 1 1 1 1 1 1 1 1 1 1 1 1 1 1 1 1 1 1 1 1 1 1 1 1 1 1 1 1 1 1 1 1 1 1 1 1 1 1 1 1 1 1 1 1 1 1 1 1 1 1 1 1 1 1 1 1 1 1 1 1 1 1 1 1 1 1 1 1 1 1 1 1 1 1 1 1 1 1 1 1 1 1 1 1 1 1 1 1 1 1 1 1 1 1 1 1 1 1 1 1 1 1 1 1 1 1 1 1 1 1 1 1 1 1 1 1 1 1 1 1 1 1 1 1 1 1 1 1 1 1 1 1 1 1 1 1 1 1 1 1 1 1 1 1 1 1 1 1 1 1 1 1 1 1 1 1 1 1 1 1 1 1 1 1 1 1 1 1 1 1 1 1 1 1 1 1 1 1 1 1 1 1 1 1 1 1 1 1 1 1 1 1 1 1 1 1 1 1 1 1 1 1 1 1 1 1 1 1 1 1 1 1 1 1 1 1 1 1 1 1 1 1 1 1 1 1 1 1 1 1 1 1 1 1 1 1 1 1 1 1 1 1 1 1 1 1 1 1 1 1 1 1 1 1 1 1 1 1 1 1 1 1 1 1 1 1 1 1 1 1 1 1 1 1 1 1 1 1 1 1 1 1 1 1 1 1 1 1 1 1 1 1 1 1 1 1 1 1 1 1 1 1 1 1 1 1 1 1 1 1 1 1 1 1 1 1 1 1 1 1 1 1 1 1 1 1 1 1 1 1 1 1 1 1 1 1 1 1 1 1 1 1 1 1 1 1 1 1 1 1 1 1 1 1 1 1 1 1 1 1 1 1 1 1 1 1 1 1 1 1 1 1 1 1 1 1 1 1 1 1 1 1 1 1 1 1 1 1 1 1 1 1 1 1 1 1 1 1 1 1 1 1 1 1 1 1 1 1 1 1 1 1 1 1 1 1 1 1 1 1 1 1 1 1 1 1 1 1 1 1 1 1 1 1 1 1 1 1 1 1 1 1 1 1 1 1 1 1 1 1 1 1 1 1 1 1 1 1 1 1 1 1 1 1 1 1 1 1 1 1 1 1 1 1 1 1 1 1 1 1 1 1 1 1 1 1 1 1 1 1 1 1 1 1 1 1 1 1 1 1 1 1 1 1 1 1 1 1 1 1 1 1 1 1 1 1 1 1 1 1 1 1 1 1 1 1 1 1 1 1 1 1 1 1 1 1 1 1 1 1 1 1 1 1 1 1 1 1 1 1 1 1 1 1 1 1 1 1 1 1 1 1 1 1 1 1 1 1 1 1 1 1 1 1 1 1 1 1 1 1 1 1 1 1 1 1 1 1 1 1 1 1 1 1 1 1 1 1 1 1 1 1 1 1 1 1 1 1 1 1 1 1 1 1 1 1 1 1 1 1 1 1 1 1 1 1 1 1 1 1 1 1 1 1 1 1 1 1 1 1 1 1 1 1 1 1 1 1 1 1 1 1 1 1 1 1 1 1 1 1 1 1 1 1 1 1 1 1 1 1 1 1 1 1 1 1 1 1 1 1 1 1 1 1 1 1 1 1 1 1 1 1 1 1 1 1 1 1 1 1 1 1 1 1 1 1 1 1 1 1 1 1 1 1 1 1 1 1 1 1 1 1 1 1 1 1 1 1 1 1 1 1 1 1 1 1 1 1 1 1 1 1 1 1 1 1 1 1 1 1 1 1 1 1 1 1 1 1 1 1 1 1 1 1 1 1 1 1 1 1 1 1 1 1 1 1 1 1 1 1 1 1 1 1 1 1 1 1 1 1 1 1 1 1 1 1 1 1 1 1 1 1 1 1 1 1 1 1 1 1 1 1 1 1 1 1 1 1 1 1 1 1 1 1 1 1 1 1 1 1 1 1 1 1 1 1 1 1 1 1 1 1 1 1 1 1 1 1 1 1 1 1 1 1 1 1 1 1 1 1 1 1 1 1 1 1 1 1 1 1 1 1 1 1 1 1 1 1 1 1 1 1 1 1 1 1 1 1 1 1 1 1 1 1 1 1 1 1 1 1 1 1 1 1 1 1 1 1 1 1 1 1 1 1 1 1 1 1 1 1 1 1 1 1 1 1 1 1 1 1 1 1 1 1 1 1 1 1 1 1 1 1 1 1 1 1 1 1 1 1 1 1 1 1 1 1 1 1 1 1 1 1 1 1 1 1 1 1 1 1 1 1 1 1 1 1 1 1 1 1 1 1 1 1 1 1 1 1 1 1 1 1 1 1 1 1 1 1 1 1 1 1 1 1 1 1 1 1 1 1 1 1 1 1 1 1 1 1 1 1 1 1 1 1 1 1 1 1 1 1 1 1 1 1 1 1 1 1 1 1 1 1 1 1 1 1 1 1 1 1 1 1 1 1 1 1 1 1 1 1 1 1 1 1 1 1 1 1 1 1 1 1 1 1 1 1 1 1 1 1 1 1 1 1 1 1 1 1 1 1 1 1 1 1 1 1 1 1 1 1 1 1 1 1 1 1 1 1 1 1 1 1 1 1 1 1 1 1 1 1 1 1 1 1 1 1 1 1 1 1 1 1 1 1 1 1 1 1 1 1 1 1 1 1 1 1 1 1 1 1 1 1 1 1 1 1 1 1 1 1 1 1 1 1 1 1 1 1 1 1 1 1 1 1 1 1 1 1 1 1 1 1 1 1 1 1 1 1 1 1 1 1 1 1 1 1 1 1 1 1 1 1 1 1 1 1 1 1 1 1 1 1 1 1 1 1 1 1 1 1 1 1 1 1 1 1 1 1 1 1 1 1 1 1 1 1 1 1 1 1 1 1 1 1 1 1 1 1 1 1 1 1 1 1 1 1 1 1 1 1 1 1 1 1 1 1 1 1 1 1 1 1 1 1 1 1 1 1 1 1 1 1 1 1 1 1 1 1 1 1 1 1 1 1 1 1 1 1 1 1 1 1 1 1 1 1 1 1 1 1 1 1 1 1 1 1 1 1 1 1 1 1 1 1 1 1 1 1 1 1 1 1 1 1 1 1 1 1 1 1 1 1 1 1 1 1 1 1 1 1 1 1 1 1 1 1 1 1 1 1 1 1 1 1 1 1 1 1 1 1 1 1 1 1 1 1 1 1 1 1 1 1 1 1 1 1 1 1 1 1 1 1 1 1 1 1 1 1 1 1 1 1 1 1 1 1 1 1 1 1 1 1 1 1 1 1 1 1 1 1 1 1 1 1 1 1 1 1 1 1 1 1 1 1 1 1 1 1 1 1 1 1 1 1 1 1 1 1 1 1 1 1 1 1 1 1 1 1 1 1 1 1 1 1 1 1 1 1 1 1 1 1 1 1 1 1 1 1 1 1 1 1 1 1 1 1 1 1 1 1 1 1 1 1 1 1 1 1 1 1 1 1 1 1 1 1 1 1 1 1 1 1 1 1 1 1 1 1 1 1 1 1 1 1 1 1 1 1 1 1 1 1 1 1 1 1 1 1 1 1 1 1 1 1 1 1 1 1 1 1 1 1 1 1 1 1 1 1 1 1 1 1 1 1 1 1 1 1 1 1 1 1 1 1 1 1 1 1 1 1 1 1 1 1 1 1 1 1 1 1 1 1 1 1 1 1 1 1 1 1 1 1 1 1 1 1 1 1 1 1 1 1 1 1 1 1 1 1 1 1 1 1 1 1 1 1 1 1 1 1 1 1 1 1 1 1 1 1 1 1 1 1 1 1 1 1 1 1 1 1 1 1 1 1 1 1 1 1 1 1 1 1 1 1 1 1 1 1 1 1 1 1 1 1 1 1 1 1 1 1 1 1 1 1 1 1 1 1 1 1 1 1 1 1 1 1 1 1 1 1 1 1 1 1 1 1 1 1 1 1 1 1 1 1 1 1 1 1 1 1 1 1 1 1 1 1 1 1 1 1 1 1 1 1 1 1 1 1 1 1 1 1 1 1 1 1 1 1 1 1 1 1 1 1 1 1 1 1 1 1 1 1 1 1 1 1 1 1 1 1 1 1 1 1 1 1 1 1 1 1 1 1 1 1 1 1 1 1 1 1 1 1 1 1 1 1 1 1 1 1 1 1 1 1 1 1 1 1 1 1 1 1 1 1 1 1 1 1 1 1 1 1 1 1 1 1 1 1 1 1 1 1 1 1 1 1 1 1 1 1 1 1 1 1 1 1 1 1 1 1 1 1 1 1 1 1 1 1 1 1 1 1 1 1 1 1 1 1 1 1 1 1 1 1 1 1 1 1 1 1 1 1 1 1 1 1 1 1 1 1 1 1 1 1 1 1 1 1 1 1 1 ]

}

}
