#VRML V2.0 utf8

Shape {

appearance Appearance { material Material {
ambientIntensity 0.3
diffuseColor 0.97647 0.843137 0.172549
specularColor 0.2 0.2 0.2
shininess 0.3
} }

geometry IndexedFaceSet {

creaseAngle 0.5

coord Coordinate { point [
0 0 0,
0 0 0.9,
0.729984 1.57143 0.9,
0.729984 1.59967 0.9,
0.512066 2.2577 0.9,
0.512066 2.28593 0.9,
0.592515 2.24383 0.9,
0.718261 2.24383 0.9,
0.729984 1.57143 1.1,
0.729984 1.59967 1.1,
0.512066 2.2577 1.1,
0.512066 2.28593 1.1,
0.592515 2.24383 1.1,
0.718261 2.24383 1.1,
0.843473 1.61405 0.9,
0.946307 1.61405 0.9,
0.843473 1.84956 0.9,
0.923395 1.91402 0.9,
0.946307 1.85275 0.9,
1.0598 1.57143 0.9,
1.0598 1.59967 0.9,
0.814165 2.2577 0.9,
0.814165 2.28593 0.9,
1.02782 2.2577 0.9,
1.02782 2.28593 0.9,
1.1184 2.24383 0.9,
1.18181 2.24383 0.9,
1.51806 1.57143 0.9,
1.51806 1.59967 0.9,
1.63155 1.61405 0.9,
1.63155 1.84956 0.9,
1.26013 2.2577 0.9,
1.26013 2.28593 0.9,
1.30015 2.2577 0.9,
1.30015 2.28593 0.9,
1.38059 2.24383 0.9,
1.50634 2.24383 0.9,
1.60224 2.2577 0.9,
1.60224 2.28593 0.9,
0.843473 1.61405 1.1,
0.946307 1.61405 1.1,
0.843473 1.84956 1.1,
0.923395 1.91402 1.1,
0.946307 1.85275 1.1,
1.0598 1.57143 1.1,
1.0598 1.59967 1.1,
0.814165 2.2577 1.1,
0.814165 2.28593 1.1,
1.02782 2.2577 1.1,
1.02782 2.28593 1.1,
1.1184 2.24383 1.1,
1.18181 2.24383 1.1,
1.51806 1.57143 1.1,
1.51806 1.59967 1.1,
1.63155 1.61405 1.1,
1.63155 1.84956 1.1,
1.26013 2.2577 1.1,
1.26013 2.28593 1.1,
1.30015 2.2577 1.1,
1.30015 2.28593 1.1,
1.38059 2.24383 1.1,
1.50634 2.24383 1.1,
1.60224 2.2577 1.1,
1.60224 2.28593 1.1,
1.51887 4.7982 0.9,
1.63502 4.72727 0.9,
1.67985 4.76517 0.9,
1.44614 4.91176 0.9,
1.4219 5.06328 0.9,
1.44521 5.22518 0.9,
1.54971 4.92715 0.9,
1.53326 5.06434 0.9,
1.59906 4.82671 0.9,
1.54897 5.21113 0.9,
1.51514 5.3422 0.9,
1.59613 5.3137 0.9,
1.63089 5.41314 0.9,
1.67752 5.37404 0.9,
1.51887 4.7982 1.1,
1.63502 4.72727 1.1,
1.67985 4.76517 1.1,
1.44614 4.91176 1.1,
1.4219 5.06328 1.1,
1.44521 5.22518 1.1,
1.54971 4.92715 1.1,
1.53326 5.06434 1.1,
1.59906 4.82671 1.1,
1.54897 5.21113 1.1,
1.51514 5.3422 1.1,
1.59613 5.3137 1.1,
1.63089 5.41314 1.1,
1.67752 5.37404 1.1,
1.73439 1.61405 0.9,
1.84787 1.57143 0.9,
1.84787 1.59967 0.9,
1.73439 1.85275 0.9,
1.71147 1.91402 0.9,
1.8159 2.2577 0.9,
1.8159 2.28593 0.9,
1.90648 2.24383 0.9,
1.96989 2.24383 0.9,
2.04821 2.2577 0.9,
2.04821 2.28593 0.9,
2.07704 2.2577 0.9,
2.07704 2.28593 0.9,
2.13937 2.24383 0.9,
2.37594 1.55491 0.9,
2.40418 1.55491 0.9,
2.41484 1.74033 0.9,
2.24487 2.24383 0.9,
2.34984 2.2577 0.9,
2.34984 2.28593 0.9,
1.73439 1.61405 1.1,
1.84787 1.57143 1.1,
1.84787 1.59967 1.1,
1.73439 1.85275 1.1,
1.71147 1.91402 1.1,
1.8159 2.2577 1.1,
1.8159 2.28593 1.1,
1.90648 2.24383 1.1,
1.96989 2.24383 1.1,
2.04821 2.2577 1.1,
2.04821 2.28593 1.1,
2.07704 2.2577 1.1,
2.07704 2.28593 1.1,
2.13937 2.24383 1.1,
2.37594 1.55491 1.1,
2.40418 1.55491 1.1,
2.41484 1.74033 1.1,
2.24487 2.24383 1.1,
2.34984 2.2577 1.1,
2.34984 2.28593 1.1,
2.77981 1.55491 0.9,
2.80805 1.55491 0.9,
2.5944 2.04723 0.9,
2.81657 1.74033 0.9,
2.60718 2.23584 0.9,
2.63116 2.23584 0.9,
2.8672 2.2577 0.9,
2.8672 2.28593 0.9,
2.97855 2.24383 0.9,
3.40593 1.55491 0.9,
3.43418 1.55491 0.9,
3.44483 1.74033 0.9,
3.04142 2.24383 0.9,
3.10376 2.2577 0.9,
3.10703 2.2577 0.9,
3.10376 2.28593 0.9,
3.10703 2.28593 0.9,
3.16937 2.24383 0.9,
3.27487 2.24383 0.9,
3.37983 2.2577 0.9,
3.37983 2.28593 0.9,
2.77981 1.55491 1.1,
2.80805 1.55491 1.1,
2.5944 2.04723 1.1,
2.81657 1.74033 1.1,
2.60718 2.23584 1.1,
2.63116 2.23584 1.1,
2.8672 2.2577 1.1,
2.8672 2.28593 1.1,
2.97855 2.24383 1.1,
3.40593 1.55491 1.1,
3.43418 1.55491 1.1,
3.44483 1.74033 1.1,
3.04142 2.24383 1.1,
3.10376 2.2577 1.1,
3.10703 2.2577 1.1,
3.10376 2.28593 1.1,
3.10703 2.28593 1.1,
3.16937 2.24383 1.1,
3.27487 2.24383 1.1,
3.37983 2.2577 1.1,
3.37983 2.28593 1.1,
2.44923 3.14286 0.9,
2.44923 3.1711 0.9,
2.54087 3.18548 0.9,
2.44923 3.82912 0.9,
2.44923 3.85736 0.9,
2.54087 3.81526 0.9,
2.44923 3.14286 1.1,
2.44923 3.1711 1.1,
2.54087 3.18548 1.1,
2.44923 3.82912 1.1,
2.44923 3.85736 1.1,
2.54087 3.81526 1.1,
1.78954 4.70363 0.9,
1.79061 4.74465 0.9,
1.84961 4.74832 0.9,
1.91994 4.71202 0.9,
1.90516 4.75931 0.9,
1.95338 4.77642 0.9,
1.99041 4.79847 0.9,
2.04156 4.7372 0.9,
2.14338 4.71429 0.9,
2.14338 4.74252 0.9,
1.79593 5.39416 0.9,
1.79167 5.43678 0.9,
1.84662 5.39103 0.9,
1.89637 5.38163 0.9,
1.90716 5.42999 0.9,
2.01012 4.90503 0.9,
2.04475 4.90503 0.9,
1.99893 5.25349 0.9,
1.94266 5.36652 0.9,
1.98295 5.3462 0.9,
2.0309 5.4096 0.9,
2.0341 5.25349 0.9,
2.13645 5.40055 0.9,
2.13645 5.42879 0.9,
2.22809 4.75691 0.9,
2.33093 4.75691 0.9,
2.44442 4.71429 0.9,
2.44442 4.74252 0.9,
2.33093 4.99454 0.9,
2.33093 5.0425 0.9,
2.22809 5.38669 0.9,
2.33093 5.38083 0.9,
2.38634 5.0425 0.9,
2.41138 4.99454 0.9,
2.46459 5.05276 0.9,
2.52107 5.00879 0.9,
2.51927 5.08352 0.9,
2.55144 5.13747 0.9,
2.38314 5.38083 0.9,
2.40605 5.42879 0.9,
2.46612 5.37137 0.9,
2.56216 5.21726 0.9,
2.55191 5.29265 0.9,
2.52113 5.343 0.9,
1.78954 4.70363 1.1,
1.79061 4.74465 1.1,
1.84961 4.74832 1.1,
1.91994 4.71202 1.1,
1.90516 4.75931 1.1,
1.95338 4.77642 1.1,
1.99041 4.79847 1.1,
2.04156 4.7372 1.1,
2.14338 4.71429 1.1,
2.14338 4.74252 1.1,
1.79593 5.39416 1.1,
1.79167 5.43678 1.1,
1.84662 5.39103 1.1,
1.89637 5.38163 1.1,
1.90716 5.42999 1.1,
2.01012 4.90503 1.1,
2.04475 4.90503 1.1,
1.99893 5.25349 1.1,
1.94266 5.36652 1.1,
1.98295 5.3462 1.1,
2.0309 5.4096 1.1,
2.0341 5.25349 1.1,
2.13645 5.40055 1.1,
2.13645 5.42879 1.1,
2.22809 4.75691 1.1,
2.33093 4.75691 1.1,
2.44442 4.71429 1.1,
2.44442 4.74252 1.1,
2.33093 4.99454 1.1,
2.33093 5.0425 1.1,
2.22809 5.38669 1.1,
2.33093 5.38083 1.1,
2.38634 5.0425 1.1,
2.41138 4.99454 1.1,
2.46459 5.05276 1.1,
2.52107 5.00879 1.1,
2.51927 5.08352 1.1,
2.55144 5.13747 1.1,
2.38314 5.38083 1.1,
2.40605 5.42879 1.1,
2.46612 5.37137 1.1,
2.56216 5.21726 1.1,
2.55191 5.29265 1.1,
2.52113 5.343 1.1,
2.64317 3.18548 0.9,
2.73482 3.14286 0.9,
2.73482 3.1711 0.9,
2.81263 3.14286 0.9,
2.81263 3.1711 0.9,
2.90427 3.18548 0.9,
3.00657 3.18548 0.9,
2.64317 3.81526 0.9,
2.73482 3.82912 0.9,
2.73482 3.85736 0.9,
2.81263 3.82912 0.9,
2.81263 3.85736 0.9,
2.90427 3.81526 0.9,
3.00657 3.81526 0.9,
3.09822 3.14286 0.9,
3.09822 3.1711 0.9,
3.17603 3.14286 0.9,
3.17603 3.1711 0.9,
3.26767 3.18548 0.9,
3.36997 3.18548 0.9,
3.46162 3.14286 0.9,
3.46162 3.1711 0.9,
3.09822 3.82912 0.9,
3.09822 3.85736 0.9,
3.17603 3.82912 0.9,
3.17603 3.85736 0.9,
3.26767 3.81526 0.9,
3.36997 3.81526 0.9,
3.46162 3.82912 0.9,
3.46162 3.85736 0.9,
2.64317 3.18548 1.1,
2.73482 3.14286 1.1,
2.73482 3.1711 1.1,
2.81263 3.14286 1.1,
2.81263 3.1711 1.1,
2.90427 3.18548 1.1,
3.00657 3.18548 1.1,
2.64317 3.81526 1.1,
2.73482 3.82912 1.1,
2.73482 3.85736 1.1,
2.81263 3.82912 1.1,
2.81263 3.85736 1.1,
2.90427 3.81526 1.1,
3.00657 3.81526 1.1,
3.09822 3.14286 1.1,
3.09822 3.1711 1.1,
3.17603 3.14286 1.1,
3.17603 3.1711 1.1,
3.26767 3.18548 1.1,
3.36997 3.18548 1.1,
3.46162 3.14286 1.1,
3.46162 3.1711 1.1,
3.09822 3.82912 1.1,
3.09822 3.85736 1.1,
3.17603 3.82912 1.1,
3.17603 3.85736 1.1,
3.26767 3.81526 1.1,
3.36997 3.81526 1.1,
3.46162 3.82912 1.1,
3.46162 3.85736 1.1,
2.74336 4.71429 0.9,
2.74336 4.74252 0.9,
2.835 4.75691 0.9,
2.89095 4.75691 0.9,
2.98685 4.71429 0.9,
2.98685 4.74252 0.9,
2.60186 5.05155 0.9,
2.65161 5.12175 0.9,
2.6682 5.21833 0.9,
2.60266 5.37618 0.9,
2.74336 5.40055 0.9,
2.74336 5.42879 0.9,
2.835 5.38669 0.9,
2.89095 5.35686 0.9,
2.95968 5.42879 0.9,
3.33158 4.71429 0.9,
3.38327 4.71429 0.9,
3.23141 5.40055 0.9,
3.23141 5.42879 0.9,
3.32732 4.89971 0.9,
3.32732 5.38669 0.9,
3.38327 5.38669 0.9,
2.74336 4.71429 1.1,
2.74336 4.74252 1.1,
2.835 4.75691 1.1,
2.89095 4.75691 1.1,
2.98685 4.71429 1.1,
2.98685 4.74252 1.1,
2.60186 5.05155 1.1,
2.65161 5.12175 1.1,
2.6682 5.21833 1.1,
2.60266 5.37618 1.1,
2.74336 5.40055 1.1,
2.74336 5.42879 1.1,
2.835 5.38669 1.1,
2.89095 5.35686 1.1,
2.95968 5.42879 1.1,
3.33158 4.71429 1.1,
3.38327 4.71429 1.1,
3.23141 5.40055 1.1,
3.23141 5.42879 1.1,
3.32732 4.89971 1.1,
3.32732 5.38669 1.1,
3.38327 5.38669 1.1,
0 11 0,
-0.0727474 7.85714 0.8,
0 7.85714 0.8,
-0.0727474 7.90797 0.8,
0 7.91939 0.8,
0 7.85714 0.9,
0 7.91939 0.9,
0.0922149 7.93387 0.9,
0.36554 7.85714 0.9,
0.192912 7.93387 0.9,
0.36554 7.90797 0.9,
0.663813 7.85714 0.9,
0.697374 7.85714 0.9,
0.734782 8.165 0.9,
-0.0727474 7.85714 1.1,
-0.0727474 7.90797 1.1,
0.0922149 7.93387 1.1,
0.36554 7.85714 1.1,
0.192912 7.93387 1.1,
0.36554 7.90797 1.1,
0.663813 7.85714 1.1,
0.697374 7.85714 1.1,
0.734782 8.165 1.1,
1.44614 6.48319 0.9,
1.4219 6.63471 0.9,
1.44521 6.79661 0.9,
1.51887 6.36963 0.9,
1.54971 6.49857 0.9,
1.63502 6.2987 0.9,
1.67985 6.3366 0.9,
1.59906 6.39813 0.9,
1.53326 6.63577 0.9,
1.54897 6.78256 0.9,
1.44614 6.48319 1.1,
1.4219 6.63471 1.1,
1.44521 6.79661 1.1,
1.51887 6.36963 1.1,
1.54971 6.49857 1.1,
1.63502 6.2987 1.1,
1.67985 6.3366 1.1,
1.59906 6.39813 1.1,
1.53326 6.63577 1.1,
1.54897 6.78256 1.1,
1.03785 7.85714 0.9,
1.03785 7.90797 0.9,
1.21048 7.93387 0.9,
1.51514 6.91363 0.9,
1.59613 6.88513 0.9,
1.63089 6.98457 0.9,
1.67752 6.94547 0.9,
1.39462 7.93387 0.9,
1.55958 7.85714 0.9,
1.55958 7.90797 0.9,
1.03785 7.85714 1.1,
1.03785 7.90797 1.1,
1.21048 7.93387 1.1,
1.51514 6.91363 1.1,
1.59613 6.88513 1.1,
1.63089 6.98457 1.1,
1.67752 6.94547 1.1,
1.39462 7.93387 1.1,
1.55958 7.85714 1.1,
1.55958 7.90797 1.1,
-0.0727474 9.09242 0.8,
0 9.08142 0.8,
-0.0727474 9.14325 0.8,
0 9.14325 0.8,
0 9.08142 0.9,
0 9.14325 0.9,
0.0922149 9.06747 0.9,
0.192912 8.96294 0.9,
0.316634 9.14325 0.9,
0.592192 9.52266 0.9,
0.57465 9.61574 0.9,
0.64482 9.44279 0.9,
0.723915 9.38787 0.9,
-0.0727474 9.09242 1.1,
-0.0727474 9.14325 1.1,
0.0922149 9.06747 1.1,
0.192912 8.96294 1.1,
0.316634 9.14325 1.1,
0.592192 9.52266 1.1,
0.57465 9.61574 1.1,
0.64482 9.44279 1.1,
0.723915 9.38787 1.1,
0 11 0.9,
0.592447 9.71134 0.9,
0.64584 9.79067 0.9,
0.72519 9.84409 0.9,
0.592447 9.71134 1.1,
0.64584 9.79067 1.1,
0.72519 9.84409 1.1,
0.8208 9.36956 0.9,
0.917677 9.38787 0.9,
0.99675 9.44279 0.9,
1.21048 8.96294 0.9,
1.1913 9.14325 0.9,
1.0494 9.52266 0.9,
1.06695 9.61574 0.9,
1.39462 9.06747 0.9,
1.55958 9.09242 0.9,
1.55958 9.14325 0.9,
0.8208 9.36956 1.1,
0.917677 9.38787 1.1,
0.99675 9.44279 1.1,
1.21048 8.96294 1.1,
1.1913 9.14325 1.1,
1.0494 9.52266 1.1,
1.06695 9.61574 1.1,
1.39462 9.06747 1.1,
1.55958 9.09242 1.1,
1.55958 9.14325 1.1,
0.8208 9.86189 0.9,
0.916402 9.84409 0.9,
0.99573 9.79067 0.9,
1.04914 9.71134 0.9,
0.8208 9.86189 1.1,
0.916402 9.84409 1.1,
0.99573 9.79067 1.1,
1.04914 9.71134 1.1,
1.78954 6.27506 0.9,
1.79061 6.31608 0.9,
1.84961 6.31975 0.9,
1.91994 6.28345 0.9,
1.90516 6.33074 0.9,
1.95338 6.34785 0.9,
1.99041 6.3699 0.9,
2.01012 6.47646 0.9,
2.04156 6.30863 0.9,
2.14338 6.28571 0.9,
2.14338 6.31395 0.9,
2.04475 6.47646 0.9,
1.99893 6.82492 0.9,
2.0341 6.82492 0.9,
2.22809 6.32834 0.9,
2.33093 6.32834 0.9,
2.33093 6.56597 0.9,
2.33093 6.61393 0.9,
2.44442 6.28571 0.9,
2.44442 6.31395 0.9,
2.38634 6.61393 0.9,
2.41138 6.56597 0.9,
2.46459 6.62419 0.9,
2.52107 6.58022 0.9,
2.51927 6.65495 0.9,
2.55144 6.7089 0.9,
2.56216 6.78869 0.9,
2.55191 6.86408 0.9,
1.78954 6.27506 1.1,
1.79061 6.31608 1.1,
1.84961 6.31975 1.1,
1.91994 6.28345 1.1,
1.90516 6.33074 1.1,
1.95338 6.34785 1.1,
1.99041 6.3699 1.1,
2.01012 6.47646 1.1,
2.04156 6.30863 1.1,
2.14338 6.28571 1.1,
2.14338 6.31395 1.1,
2.04475 6.47646 1.1,
1.99893 6.82492 1.1,
2.0341 6.82492 1.1,
2.22809 6.32834 1.1,
2.33093 6.32834 1.1,
2.33093 6.56597 1.1,
2.33093 6.61393 1.1,
2.44442 6.28571 1.1,
2.44442 6.31395 1.1,
2.38634 6.61393 1.1,
2.41138 6.56597 1.1,
2.46459 6.62419 1.1,
2.52107 6.58022 1.1,
2.51927 6.65495 1.1,
2.55144 6.7089 1.1,
2.56216 6.78869 1.1,
2.55191 6.86408 1.1,
1.79593 6.96559 0.9,
1.79167 7.00821 0.9,
1.84662 6.96245 0.9,
1.89637 6.95306 0.9,
1.90716 7.00142 0.9,
1.94266 6.93795 0.9,
1.98295 6.91763 0.9,
2.0309 6.98103 0.9,
2.13645 6.97198 0.9,
2.13645 7.00022 0.9,
2.22809 6.95812 0.9,
2.33093 6.95226 0.9,
2.38314 6.95226 0.9,
2.40605 7.00022 0.9,
2.46612 6.9428 0.9,
2.52113 6.91443 0.9,
2.17737 7.85714 0.9,
2.17737 7.90797 0.9,
2.32986 7.93387 0.9,
2.51496 7.93387 0.9,
1.79593 6.96559 1.1,
1.79167 7.00821 1.1,
1.84662 6.96245 1.1,
1.89637 6.95306 1.1,
1.90716 7.00142 1.1,
1.94266 6.93795 1.1,
1.98295 6.91763 1.1,
2.0309 6.98103 1.1,
2.13645 6.97198 1.1,
2.13645 7.00022 1.1,
2.22809 6.95812 1.1,
2.33093 6.95226 1.1,
2.38314 6.95226 1.1,
2.40605 7.00022 1.1,
2.46612 6.9428 1.1,
2.52113 6.91443 1.1,
2.17737 7.85714 1.1,
2.17737 7.90797 1.1,
2.32986 7.93387 1.1,
2.51496 7.93387 1.1,
2.74336 6.28571 0.9,
2.74336 6.31395 0.9,
2.60186 6.62298 0.9,
2.65161 6.69318 0.9,
2.6682 6.78976 0.9,
2.835 6.32834 0.9,
2.89095 6.32834 0.9,
2.98685 6.28571 0.9,
2.98685 6.31395 0.9,
3.33158 6.28571 0.9,
3.32732 6.47114 0.9,
3.38327 6.28571 0.9,
2.74336 6.28571 1.1,
2.74336 6.31395 1.1,
2.60186 6.62298 1.1,
2.65161 6.69318 1.1,
2.6682 6.78976 1.1,
2.835 6.32834 1.1,
2.89095 6.32834 1.1,
2.98685 6.28571 1.1,
2.98685 6.31395 1.1,
3.33158 6.28571 1.1,
3.32732 6.47114 1.1,
3.38327 6.28571 1.1,
2.60266 6.9476 0.9,
2.74336 6.97198 0.9,
2.74336 7.00022 0.9,
2.835 6.95812 0.9,
2.89095 6.92829 0.9,
2.95968 7.00022 0.9,
2.71924 7.85714 0.9,
2.71924 7.90797 0.9,
3.23141 6.97198 0.9,
3.23141 7.00022 0.9,
3.32732 6.95812 0.9,
3.38327 6.95812 0.9,
3.27171 7.85714 0.9,
3.27171 7.90797 0.9,
3.43668 7.93387 0.9,
2.60266 6.9476 1.1,
2.74336 6.97198 1.1,
2.74336 7.00022 1.1,
2.835 6.95812 1.1,
2.89095 6.92829 1.1,
2.95968 7.00022 1.1,
2.71924 7.85714 1.1,
2.71924 7.90797 1.1,
3.23141 6.97198 1.1,
3.23141 7.00022 1.1,
3.32732 6.95812 1.1,
3.38327 6.95812 1.1,
3.27171 7.85714 1.1,
3.27171 7.90797 1.1,
3.43668 7.93387 1.1,
2.51496 8.3616 0.9,
2.51496 8.44793 0.9,
2.16489 9.09242 0.9,
2.16489 9.14325 0.9,
2.32986 9.06747 0.9,
2.51496 9.05692 0.9,
2.51496 8.3616 1.1,
2.51496 8.44793 1.1,
2.16489 9.09242 1.1,
2.16489 9.14325 1.1,
2.32986 9.06747 1.1,
2.51496 9.05692 1.1,
2.65977 8.3616 0.9,
2.61469 8.44793 0.9,
2.75555 8.46639 0.9,
2.85722 8.38726 0.9,
2.85398 8.52177 0.9,
3.00263 8.46422 0.9,
2.91188 8.61888 0.9,
2.91272 8.8982 0.9,
2.93118 8.7625 0.9,
2.60894 9.05692 0.9,
2.65018 9.14325 0.9,
2.75831 9.0399 0.9,
2.85733 8.98883 0.9,
3.00407 9.04854 0.9,
3.09219 8.59058 0.9,
3.12204 8.76442 0.9,
3.27171 9.09242 0.9,
3.27171 9.14325 0.9,
3.43668 9.06747 0.9,
2.65977 8.3616 1.1,
2.61469 8.44793 1.1,
2.75555 8.46639 1.1,
2.85722 8.38726 1.1,
2.85398 8.52177 1.1,
3.00263 8.46422 1.1,
2.91188 8.61888 1.1,
2.91272 8.8982 1.1,
2.93118 8.7625 1.1,
2.60894 9.05692 1.1,
2.65018 9.14325 1.1,
2.75831 9.0399 1.1,
2.85733 8.98883 1.1,
3.00407 9.04854 1.1,
3.09219 8.59058 1.1,
3.12204 8.76442 1.1,
3.27171 9.09242 1.1,
3.27171 9.14325 1.1,
3.43668 9.06747 1.1,
7 0 0,
3.62439 2.04723 0.9,
3.8098 1.55491 0.9,
3.83804 1.55491 0.9,
3.84657 1.74033 0.9,
3.63717 2.23584 0.9,
3.66115 2.23584 0.9,
3.89719 2.2577 0.9,
3.89719 2.28593 0.9,
4.16739 1.57143 0.9,
4.16739 1.59967 0.9,
4.25904 1.61405 0.9,
4.31498 1.61405 0.9,
4.00854 2.24383 0.9,
4.07141 2.24383 0.9,
4.13375 2.2577 0.9,
4.13375 2.28593 0.9,
4.16739 2.2577 0.9,
4.16739 2.28593 0.9,
4.31498 2.214 0.9,
4.25904 2.24383 0.9,
3.62439 2.04723 1.1,
3.8098 1.55491 1.1,
3.83804 1.55491 1.1,
3.84657 1.74033 1.1,
3.63717 2.23584 1.1,
3.66115 2.23584 1.1,
3.89719 2.2577 1.1,
3.89719 2.28593 1.1,
4.16739 1.57143 1.1,
4.16739 1.59967 1.1,
4.25904 1.61405 1.1,
4.31498 1.61405 1.1,
4.00854 2.24383 1.1,
4.07141 2.24383 1.1,
4.13375 2.2577 1.1,
4.13375 2.28593 1.1,
4.16739 2.2577 1.1,
4.16739 2.28593 1.1,
4.31498 2.214 1.1,
4.25904 2.24383 1.1,
4.41088 1.57143 0.9,
4.41088 1.59967 0.9,
4.75561 1.57143 0.9,
4.75135 1.75685 0.9,
4.38371 2.28593 0.9,
4.65544 2.2577 0.9,
4.65544 2.28593 0.9,
4.75135 2.24383 0.9,
4.8073 1.57143 0.9,
4.95547 1.57143 0.9,
4.95547 1.59967 0.9,
5.04711 1.61405 0.9,
5.10306 1.61405 0.9,
5.19896 1.57143 0.9,
5.19896 1.59967 0.9,
4.8073 2.24383 0.9,
4.89894 2.2577 0.9,
4.89894 2.28593 0.9,
4.95547 2.2577 0.9,
4.95547 2.28593 0.9,
5.10306 2.214 0.9,
5.04711 2.24383 0.9,
5.17179 2.28593 0.9,
4.41088 1.57143 1.1,
4.41088 1.59967 1.1,
4.75561 1.57143 1.1,
4.75135 1.75685 1.1,
4.38371 2.28593 1.1,
4.65544 2.2577 1.1,
4.65544 2.28593 1.1,
4.75135 2.24383 1.1,
4.8073 1.57143 1.1,
4.95547 1.57143 1.1,
4.95547 1.59967 1.1,
5.04711 1.61405 1.1,
5.10306 1.61405 1.1,
5.19896 1.57143 1.1,
5.19896 1.59967 1.1,
4.8073 2.24383 1.1,
4.89894 2.2577 1.1,
4.89894 2.28593 1.1,
4.95547 2.2577 1.1,
4.95547 2.28593 1.1,
5.10306 2.214 1.1,
5.04711 2.24383 1.1,
5.17179 2.28593 1.1,
3.53943 3.14286 0.9,
3.53943 3.1711 0.9,
3.63107 3.18548 0.9,
3.73337 3.18548 0.9,
3.82502 3.14286 0.9,
3.82502 3.1711 0.9,
3.90283 3.14286 0.9,
3.90283 3.1711 0.9,
3.53943 3.82912 0.9,
3.53943 3.85736 0.9,
3.63107 3.81526 0.9,
3.73337 3.81526 0.9,
3.82502 3.82912 0.9,
3.82502 3.85736 0.9,
3.90283 3.82912 0.9,
3.90283 3.85736 0.9,
3.99447 3.18548 0.9,
4.09677 3.18548 0.9,
4.18842 3.14286 0.9,
4.18842 3.1711 0.9,
4.26623 3.14286 0.9,
4.26623 3.1711 0.9,
4.35787 3.18548 0.9,
3.99447 3.81526 0.9,
4.09677 3.81526 0.9,
4.18842 3.82912 0.9,
4.18842 3.85736 0.9,
4.26623 3.82912 0.9,
4.26623 3.85736 0.9,
4.35787 3.81526 0.9,
3.53943 3.14286 1.1,
3.53943 3.1711 1.1,
3.63107 3.18548 1.1,
3.73337 3.18548 1.1,
3.82502 3.14286 1.1,
3.82502 3.1711 1.1,
3.90283 3.14286 1.1,
3.90283 3.1711 1.1,
3.53943 3.82912 1.1,
3.53943 3.85736 1.1,
3.63107 3.81526 1.1,
3.73337 3.81526 1.1,
3.82502 3.82912 1.1,
3.82502 3.85736 1.1,
3.90283 3.82912 1.1,
3.90283 3.85736 1.1,
3.99447 3.18548 1.1,
4.09677 3.18548 1.1,
4.18842 3.14286 1.1,
4.18842 3.1711 1.1,
4.26623 3.14286 1.1,
4.26623 3.1711 1.1,
4.35787 3.18548 1.1,
3.99447 3.81526 1.1,
4.09677 3.81526 1.1,
4.18842 3.82912 1.1,
4.18842 3.85736 1.1,
4.26623 3.82912 1.1,
4.26623 3.85736 1.1,
4.35787 3.81526 1.1,
3.64173 4.7982 0.9,
3.75788 4.72727 0.9,
3.80271 4.76517 0.9,
3.9124 4.70363 0.9,
3.91347 4.74465 0.9,
3.569 4.91176 0.9,
3.54475 5.06328 0.9,
3.67256 4.92715 0.9,
3.65611 5.06434 0.9,
3.56806 5.22518 0.9,
3.47491 5.40055 0.9,
3.47491 5.42879 0.9,
3.67183 5.21113 0.9,
3.63799 5.3422 0.9,
3.72192 4.82671 0.9,
3.71899 5.3137 0.9,
3.75375 5.41314 0.9,
3.80037 5.37404 0.9,
3.91453 5.43678 0.9,
3.97247 4.74832 0.9,
4.02802 4.75931 0.9,
4.0428 4.71202 0.9,
4.07623 4.77642 0.9,
4.11327 4.79847 0.9,
4.16442 4.7372 0.9,
4.26624 4.71429 0.9,
4.26624 4.74252 0.9,
4.35095 4.75691 0.9,
4.13298 4.90503 0.9,
3.91879 5.39416 0.9,
3.96948 5.39103 0.9,
4.01922 5.38163 0.9,
4.12179 5.25349 0.9,
4.06551 5.36652 0.9,
4.03002 5.42999 0.9,
4.10581 5.3462 0.9,
4.16761 4.90503 0.9,
4.15696 5.25349 0.9,
4.15376 5.4096 0.9,
4.25931 5.40055 0.9,
4.25931 5.42879 0.9,
4.35095 5.38669 0.9,
3.64173 4.7982 1.1,
3.75788 4.72727 1.1,
3.80271 4.76517 1.1,
3.9124 4.70363 1.1,
3.91347 4.74465 1.1,
3.569 4.91176 1.1,
3.54475 5.06328 1.1,
3.67256 4.92715 1.1,
3.65611 5.06434 1.1,
3.56806 5.22518 1.1,
3.47491 5.40055 1.1,
3.47491 5.42879 1.1,
3.67183 5.21113 1.1,
3.63799 5.3422 1.1,
3.72192 4.82671 1.1,
3.71899 5.3137 1.1,
3.75375 5.41314 1.1,
3.80037 5.37404 1.1,
3.91453 5.43678 1.1,
3.97247 4.74832 1.1,
4.02802 4.75931 1.1,
4.0428 4.71202 1.1,
4.07623 4.77642 1.1,
4.11327 4.79847 1.1,
4.16442 4.7372 1.1,
4.26624 4.71429 1.1,
4.26624 4.74252 1.1,
4.35095 4.75691 1.1,
4.13298 4.90503 1.1,
3.91879 5.39416 1.1,
3.96948 5.39103 1.1,
4.01922 5.38163 1.1,
4.12179 5.25349 1.1,
4.06551 5.36652 1.1,
4.03002 5.42999 1.1,
4.10581 5.3462 1.1,
4.16761 4.90503 1.1,
4.15696 5.25349 1.1,
4.15376 5.4096 1.1,
4.25931 5.40055 1.1,
4.25931 5.42879 1.1,
4.35095 5.38669 1.1,
4.46017 3.18548 0.9,
4.55182 3.14286 0.9,
4.55182 3.1711 0.9,
4.46017 3.81526 0.9,
4.55182 3.82912 0.9,
4.55182 3.85736 0.9,
4.46017 3.18548 1.1,
4.55182 3.14286 1.1,
4.55182 3.1711 1.1,
4.46017 3.81526 1.1,
4.55182 3.82912 1.1,
4.55182 3.85736 1.1,
4.45379 4.75691 0.9,
4.56728 4.71429 0.9,
4.56728 4.74252 0.9,
4.45379 4.99454 0.9,
4.45379 5.0425 0.9,
4.50919 5.0425 0.9,
4.53424 4.99454 0.9,
4.45379 5.38083 0.9,
4.506 5.38083 0.9,
4.52891 5.42879 0.9,
4.58745 5.05276 0.9,
4.64393 5.00879 0.9,
4.64213 5.08352 0.9,
4.6743 5.13747 0.9,
4.72472 5.05155 0.9,
4.77447 5.12175 0.9,
4.68502 5.21726 0.9,
4.67476 5.29265 0.9,
4.58898 5.37137 0.9,
4.64399 5.343 0.9,
4.79105 5.21833 0.9,
4.72552 5.37618 0.9,
4.86622 4.71429 0.9,
4.86622 4.74252 0.9,
4.95786 4.75691 0.9,
5.0138 4.75691 0.9,
5.10971 4.71429 0.9,
5.10971 4.74252 0.9,
4.86622 5.40055 0.9,
4.86622 5.42879 0.9,
4.95786 5.38669 0.9,
5.0138 5.35686 0.9,
5.08254 5.42879 0.9,
4.45379 4.75691 1.1,
4.56728 4.71429 1.1,
4.56728 4.74252 1.1,
4.45379 4.99454 1.1,
4.45379 5.0425 1.1,
4.50919 5.0425 1.1,
4.53424 4.99454 1.1,
4.45379 5.38083 1.1,
4.506 5.38083 1.1,
4.52891 5.42879 1.1,
4.58745 5.05276 1.1,
4.64393 5.00879 1.1,
4.64213 5.08352 1.1,
4.6743 5.13747 1.1,
4.72472 5.05155 1.1,
4.77447 5.12175 1.1,
4.68502 5.21726 1.1,
4.67476 5.29265 1.1,
4.58898 5.37137 1.1,
4.64399 5.343 1.1,
4.79105 5.21833 1.1,
4.72552 5.37618 1.1,
4.86622 4.71429 1.1,
4.86622 4.74252 1.1,
4.95786 4.75691 1.1,
5.0138 4.75691 1.1,
5.10971 4.71429 1.1,
5.10971 4.74252 1.1,
4.86622 5.40055 1.1,
4.86622 5.42879 1.1,
4.95786 5.38669 1.1,
5.0138 5.35686 1.1,
5.08254 5.42879 1.1,
5.54369 1.57143 0.9,
5.59538 1.57143 0.9,
5.53943 1.75685 0.9,
5.44352 2.2577 0.9,
5.44352 2.28593 0.9,
5.53943 2.24383 0.9,
5.59538 2.24383 0.9,
5.68702 2.2577 0.9,
5.68702 2.28593 0.9,
5.74355 1.57143 0.9,
5.74355 1.59967 0.9,
5.83519 1.61405 0.9,
5.89114 1.61405 0.9,
5.98704 1.57143 0.9,
5.98704 1.59967 0.9,
5.74355 2.2577 0.9,
5.74355 2.28593 0.9,
5.89114 2.214 0.9,
5.83519 2.24383 0.9,
5.95987 2.28593 0.9,
5.54369 1.57143 1.1,
5.59538 1.57143 1.1,
5.53943 1.75685 1.1,
5.44352 2.2577 1.1,
5.44352 2.28593 1.1,
5.53943 2.24383 1.1,
5.59538 2.24383 1.1,
5.68702 2.2577 1.1,
5.68702 2.28593 1.1,
5.74355 1.57143 1.1,
5.74355 1.59967 1.1,
5.83519 1.61405 1.1,
5.89114 1.61405 1.1,
5.98704 1.57143 1.1,
5.98704 1.59967 1.1,
5.74355 2.2577 1.1,
5.74355 2.28593 1.1,
5.89114 2.214 1.1,
5.83519 2.24383 1.1,
5.95987 2.28593 1.1,
7 0 0.9,
6.33177 1.57143 0.9,
6.32751 1.75685 0.9,
6.38346 1.57143 0.9,
6.2316 2.2577 0.9,
6.2316 2.28593 0.9,
6.32751 2.24383 0.9,
6.38346 2.24383 0.9,
6.4751 2.2577 0.9,
6.4751 2.28593 0.9,
6.33177 1.57143 1.1,
6.32751 1.75685 1.1,
6.38346 1.57143 1.1,
6.2316 2.2577 1.1,
6.2316 2.28593 1.1,
6.32751 2.24383 1.1,
6.38346 2.24383 1.1,
6.4751 2.2577 1.1,
6.4751 2.28593 1.1,
5.45444 4.71429 0.9,
5.50613 4.71429 0.9,
5.45017 4.89971 0.9,
5.35427 5.40055 0.9,
5.35427 5.42879 0.9,
5.45017 5.38669 0.9,
5.50613 5.38669 0.9,
5.59777 5.40055 0.9,
5.59777 5.42879 0.9,
5.45444 4.71429 1.1,
5.50613 4.71429 1.1,
5.45017 4.89971 1.1,
5.35427 5.40055 1.1,
5.35427 5.42879 1.1,
5.45017 5.38669 1.1,
5.50613 5.38669 1.1,
5.59777 5.40055 1.1,
5.59777 5.42879 1.1,
7 11 0,
3.569 6.48319 0.9,
3.64173 6.36963 0.9,
3.67256 6.49857 0.9,
3.54475 6.63471 0.9,
3.56806 6.79661 0.9,
3.65611 6.63577 0.9,
3.67183 6.78256 0.9,
3.75788 6.2987 0.9,
3.80271 6.3366 0.9,
3.72192 6.39813 0.9,
3.9124 6.27506 0.9,
3.91347 6.31608 0.9,
3.97247 6.31975 0.9,
4.02802 6.33074 0.9,
4.0428 6.28345 0.9,
4.07623 6.34785 0.9,
4.11327 6.3699 0.9,
4.13298 6.47646 0.9,
4.12179 6.82492 0.9,
4.16442 6.30863 0.9,
4.16761 6.47646 0.9,
4.26624 6.28571 0.9,
4.26624 6.31395 0.9,
4.35095 6.32834 0.9,
4.15696 6.82492 0.9,
3.569 6.48319 1.1,
3.64173 6.36963 1.1,
3.67256 6.49857 1.1,
3.54475 6.63471 1.1,
3.56806 6.79661 1.1,
3.65611 6.63577 1.1,
3.67183 6.78256 1.1,
3.75788 6.2987 1.1,
3.80271 6.3366 1.1,
3.72192 6.39813 1.1,
3.9124 6.27506 1.1,
3.91347 6.31608 1.1,
3.97247 6.31975 1.1,
4.02802 6.33074 1.1,
4.0428 6.28345 1.1,
4.07623 6.34785 1.1,
4.11327 6.3699 1.1,
4.13298 6.47646 1.1,
4.12179 6.82492 1.1,
4.16442 6.30863 1.1,
4.16761 6.47646 1.1,
4.26624 6.28571 1.1,
4.26624 6.31395 1.1,
4.35095 6.32834 1.1,
4.15696 6.82492 1.1,
3.47491 6.97198 0.9,
3.47491 7.00022 0.9,
3.63799 6.91363 0.9,
3.71899 6.88513 0.9,
3.80037 6.94547 0.9,
3.75375 6.98457 0.9,
3.91453 7.00821 0.9,
3.62082 7.93387 0.9,
3.78578 7.85714 0.9,
3.78578 7.90797 0.9,
3.91879 6.96559 0.9,
3.96948 6.96245 0.9,
4.01922 6.95306 0.9,
4.06551 6.93795 0.9,
4.03002 7.00142 0.9,
4.10581 6.91763 0.9,
4.15376 6.98103 0.9,
4.25931 6.97198 0.9,
4.25931 7.00022 0.9,
4.35095 6.95812 0.9,
3.97906 8.21259 0.9,
4.10997 8.00819 0.9,
4.31905 7.88052 0.9,
4.16548 8.24029 0.9,
4.25432 8.0595 0.9,
3.47491 6.97198 1.1,
3.47491 7.00022 1.1,
3.63799 6.91363 1.1,
3.71899 6.88513 1.1,
3.80037 6.94547 1.1,
3.75375 6.98457 1.1,
3.91453 7.00821 1.1,
3.62082 7.93387 1.1,
3.78578 7.85714 1.1,
3.78578 7.90797 1.1,
3.91879 6.96559 1.1,
3.96948 6.96245 1.1,
4.01922 6.95306 1.1,
4.06551 6.93795 1.1,
4.03002 7.00142 1.1,
4.10581 6.91763 1.1,
4.15376 6.98103 1.1,
4.25931 6.97198 1.1,
4.25931 7.00022 1.1,
4.35095 6.95812 1.1,
3.97906 8.21259 1.1,
4.10997 8.00819 1.1,
4.31905 7.88052 1.1,
4.16548 8.24029 1.1,
4.25432 8.0595 1.1,
4.45379 6.32834 0.9,
4.56728 6.28571 0.9,
4.56728 6.31395 0.9,
4.45379 6.56597 0.9,
4.45379 6.61393 0.9,
4.50919 6.61393 0.9,
4.53424 6.56597 0.9,
4.58745 6.62419 0.9,
4.64393 6.58022 0.9,
4.64213 6.65495 0.9,
4.6743 6.7089 0.9,
4.68502 6.78869 0.9,
4.67476 6.86408 0.9,
4.72472 6.62298 0.9,
4.77447 6.69318 0.9,
4.79105 6.78976 0.9,
4.86622 6.28571 0.9,
4.86622 6.31395 0.9,
4.95786 6.32834 0.9,
5.0138 6.32834 0.9,
5.10971 6.28571 0.9,
5.10971 6.31395 0.9,
4.45379 6.32834 1.1,
4.56728 6.28571 1.1,
4.56728 6.31395 1.1,
4.45379 6.56597 1.1,
4.45379 6.61393 1.1,
4.50919 6.61393 1.1,
4.53424 6.56597 1.1,
4.58745 6.62419 1.1,
4.64393 6.58022 1.1,
4.64213 6.65495 1.1,
4.6743 6.7089 1.1,
4.68502 6.78869 1.1,
4.67476 6.86408 1.1,
4.72472 6.62298 1.1,
4.77447 6.69318 1.1,
4.79105 6.78976 1.1,
4.86622 6.28571 1.1,
4.86622 6.31395 1.1,
4.95786 6.32834 1.1,
5.0138 6.32834 1.1,
5.10971 6.28571 1.1,
5.10971 6.31395 1.1,
4.45379 6.95226 0.9,
4.506 6.95226 0.9,
4.52891 7.00022 0.9,
4.58898 6.9428 0.9,
4.64399 6.91443 0.9,
4.72552 6.9476 0.9,
4.39974 7.94873 0.9,
4.59718 7.83797 0.9,
4.59911 7.9118 0.9,
4.70531 7.9184 0.9,
4.86622 6.97198 0.9,
4.86622 7.00022 0.9,
4.95786 6.95812 0.9,
5.0138 6.92829 0.9,
5.08254 7.00022 0.9,
4.83191 7.85307 0.9,
4.80529 7.93818 0.9,
4.89209 7.96899 0.9,
4.95874 8.00867 0.9,
4.99423 8.20049 0.9,
5.05081 7.89838 0.9,
5.05657 8.20049 0.9,
4.45379 6.95226 1.1,
4.506 6.95226 1.1,
4.52891 7.00022 1.1,
4.58898 6.9428 1.1,
4.64399 6.91443 1.1,
4.72552 6.9476 1.1,
4.39974 7.94873 1.1,
4.59718 7.83797 1.1,
4.59911 7.9118 1.1,
4.70531 7.9184 1.1,
4.86622 6.97198 1.1,
4.86622 7.00022 1.1,
4.95786 6.95812 1.1,
5.0138 6.92829 1.1,
5.08254 7.00022 1.1,
4.83191 7.85307 1.1,
4.80529 7.93818 1.1,
4.89209 7.96899 1.1,
4.95874 8.00867 1.1,
4.99423 8.20049 1.1,
5.05081 7.89838 1.1,
5.05657 8.20049 1.1,
3.62082 9.06747 0.9,
3.78578 9.09242 0.9,
3.78578 9.14325 0.9,
3.93542 8.48533 0.9,
4.13587 8.48725 0.9,
3.97738 8.77676 0.9,
4.16416 8.75147 0.9,
4.24904 8.93609 0.9,
4.10326 8.9874 0.9,
4.31162 9.11508 0.9,
3.62082 9.06747 1.1,
3.78578 9.09242 1.1,
3.78578 9.14325 1.1,
3.93542 8.48533 1.1,
4.13587 8.48725 1.1,
3.97738 8.77676 1.1,
4.16416 8.75147 1.1,
4.24904 8.93609 1.1,
4.10326 8.9874 1.1,
4.31162 9.11508 1.1,
4.39554 9.0447 0.9,
4.60869 9.08091 0.9,
4.60101 9.15764 0.9,
4.69992 9.07527 0.9,
4.78947 9.05837 0.9,
4.97409 8.82771 0.9,
5.03739 8.82771 0.9,
4.87279 9.03116 0.9,
4.80889 9.14541 0.9,
4.94532 8.9946 0.9,
5.03164 9.10871 0.9,
4.39554 9.0447 1.1,
4.60869 9.08091 1.1,
4.60101 9.15764 1.1,
4.69992 9.07527 1.1,
4.78947 9.05837 1.1,
4.97409 8.82771 1.1,
5.03739 8.82771 1.1,
4.87279 9.03116 1.1,
4.80889 9.14541 1.1,
4.94532 8.9946 1.1,
5.03164 9.10871 1.1,
7 7.85714 0.8,
7.02089 7.85714 0.8,
7 8.00484 0.8,
7.02089 8.00484 0.8,
5.45444 6.28571 0.9,
5.45017 6.47114 0.9,
5.50613 6.28571 0.9,
5.45444 6.28571 1.1,
5.45017 6.47114 1.1,
5.50613 6.28571 1.1,
5.35427 6.97198 0.9,
5.35427 7.00022 0.9,
5.45017 6.95812 0.9,
5.50613 6.95812 0.9,
5.59777 6.97198 0.9,
5.59777 7.00022 0.9,
5.26958 7.87921 0.9,
5.43741 7.84828 0.9,
5.25902 8.14966 0.9,
5.32231 8.14966 0.9,
5.36548 7.96935 0.9,
5.41068 7.94969 0.9,
5.61483 7.83797 0.9,
5.47145 7.93291 0.9,
5.53775 7.9214 0.9,
5.59949 7.91756 0.9,
5.80785 7.86242 0.9,
5.7304 7.93482 0.9,
5.822 7.98661 0.9,
5.87594 8.07868 0.9,
5.89393 8.2168 0.9,
5.95146 7.93579 0.9,
6.04065 8.05256 0.9,
6.07039 8.20721 0.9,
5.35427 6.97198 1.1,
5.35427 7.00022 1.1,
5.45017 6.95812 1.1,
5.50613 6.95812 1.1,
5.59777 6.97198 1.1,
5.59777 7.00022 1.1,
5.26958 7.87921 1.1,
5.43741 7.84828 1.1,
5.25902 8.14966 1.1,
5.32231 8.14966 1.1,
5.36548 7.96935 1.1,
5.41068 7.94969 1.1,
5.61483 7.83797 1.1,
5.47145 7.93291 1.1,
5.53775 7.9214 1.1,
5.59949 7.91756 1.1,
5.80785 7.86242 1.1,
5.7304 7.93482 1.1,
5.822 7.98661 1.1,
5.87594 8.07868 1.1,
5.89393 8.2168 1.1,
5.95146 7.93579 1.1,
6.04065 8.05256 1.1,
6.07039 8.20721 1.1,
6.2335 7.85714 0.9,
6.2335 7.99812 0.9,
6.35914 8.00484 0.9,
6.41188 8.16021 0.9,
6.45241 8.08852 0.9,
6.5404 8.165 0.9,
7 7.85714 0.9,
7 8.00484 0.9,
6.2335 7.85714 1.1,
6.2335 7.99812 1.1,
6.35914 8.00484 1.1,
6.41188 8.16021 1.1,
6.45241 8.08852 1.1,
6.5404 8.165 1.1,
7.02089 7.85714 1.1,
7.02089 8.00484 1.1,
5.29834 8.86895 0.9,
5.36165 8.86895 0.9,
5.48535 8.48916 0.9,
5.48535 8.56781 0.9,
5.62251 8.48149 0.9,
5.62251 8.57643 0.9,
5.29834 9.11639 0.9,
5.39521 9.02623 0.9,
5.44076 9.04698 0.9,
5.38681 9.13713 0.9,
5.46233 9.14947 0.9,
5.49303 9.06316 0.9,
5.54746 9.0736 0.9,
5.53115 9.1556 0.9,
5.59949 9.07708 0.9,
5.59949 9.15764 0.9,
5.74334 8.46003 0.9,
5.73087 8.5304 0.9,
5.82774 8.40908 0.9,
5.87738 8.32816 0.9,
5.84992 8.56457 0.9,
5.88241 8.49528 0.9,
5.71673 8.5961 0.9,
5.78266 8.64357 0.9,
5.82151 8.72078 0.9,
5.83446 8.82963 0.9,
5.98791 8.43018 0.9,
6.04977 8.3344 0.9,
5.9385 8.62871 0.9,
5.99353 8.72138 0.9,
6.01188 8.84115 0.9,
5.70558 9.06233 0.9,
5.77835 9.01809 0.9,
5.82043 8.94149 0.9,
5.90878 9.07851 0.9,
5.29834 8.86895 1.1,
5.36165 8.86895 1.1,
5.48535 8.48916 1.1,
5.48535 8.56781 1.1,
5.62251 8.48149 1.1,
5.62251 8.57643 1.1,
5.29834 9.11639 1.1,
5.39521 9.02623 1.1,
5.44076 9.04698 1.1,
5.38681 9.13713 1.1,
5.46233 9.14947 1.1,
5.49303 9.06316 1.1,
5.54746 9.0736 1.1,
5.53115 9.1556 1.1,
5.59949 9.07708 1.1,
5.59949 9.15764 1.1,
5.74334 8.46003 1.1,
5.73087 8.5304 1.1,
5.82774 8.40908 1.1,
5.87738 8.32816 1.1,
5.84992 8.56457 1.1,
5.88241 8.49528 1.1,
5.71673 8.5961 1.1,
5.78266 8.64357 1.1,
5.82151 8.72078 1.1,
5.83446 8.82963 1.1,
5.98791 8.43018 1.1,
6.04977 8.3344 1.1,
5.9385 8.62871 1.1,
5.99353 8.72138 1.1,
6.01188 8.84115 1.1,
5.70558 9.06233 1.1,
5.77835 9.01809 1.1,
5.82043 8.94149 1.1,
5.90878 9.07851 1.1,
6.27666 8.86895 0.9,
6.33995 8.86895 0.9,
6.56078 8.29639 0.9,
6.27666 9.11639 0.9,
6.37352 9.02623 0.9,
6.41788 9.04698 0.9,
6.43802 9.14732 0.9,
6.46847 9.06316 0.9,
6.52146 9.0736 0.9,
6.57301 9.07708 0.9,
6.57301 9.15764 0.9,
6.66412 8.40381 0.9,
6.71159 8.31594 0.9,
6.73329 8.49827 0.9,
6.77968 8.59561 0.9,
6.82619 8.42922 0.9,
6.90136 8.52393 0.9,
6.80594 8.70159 0.9,
6.8147 8.82195 0.9,
6.80055 8.93177 0.9,
6.95423 8.61912 0.9,
6.98552 8.71754 0.9,
6.99595 8.82195 0.9,
6.68354 9.06077 0.9,
6.75811 9.01185 0.9,
6.75775 9.1357 0.9,
6.88998 9.06988 0.9,
6.96946 8.96402 0.9,
6.27666 8.86895 1.1,
6.33995 8.86895 1.1,
6.56078 8.29639 1.1,
6.27666 9.11639 1.1,
6.37352 9.02623 1.1,
6.41788 9.04698 1.1,
6.43802 9.14732 1.1,
6.46847 9.06316 1.1,
6.52146 9.0736 1.1,
6.57301 9.07708 1.1,
6.57301 9.15764 1.1,
6.66412 8.40381 1.1,
6.71159 8.31594 1.1,
6.73329 8.49827 1.1,
6.77968 8.59561 1.1,
6.82619 8.42922 1.1,
6.90136 8.52393 1.1,
6.80594 8.70159 1.1,
6.8147 8.82195 1.1,
6.80055 8.93177 1.1,
6.95423 8.61912 1.1,
6.98552 8.71754 1.1,
6.99595 8.82195 1.1,
6.68354 9.06077 1.1,
6.75811 9.01185 1.1,
6.75775 9.1357 1.1,
6.88998 9.06988 1.1,
6.96946 8.96402 1.1,
7 11 0.9
] }

coordIndex [
0,380,382,-1
0,1,380,-1
1,3,4,-1
1,2,3,-1
1,19,2,-1
1,4,5,-1
14,16,3,-1
6,4,3,-1
6,3,16,-1
1,27,19,-1
1,93,27,-1
1,106,93,-1
1,107,106,-1
19,30,20,-1
15,20,35,-1
15,35,18,-1
7,17,21,-1
21,24,22,-1
17,25,21,-1
24,21,23,-1
25,23,21,-1
18,35,26,-1
28,19,27,-1
29,19,28,-1
29,30,19,-1
35,20,30,-1
26,35,31,-1
31,34,32,-1
34,31,33,-1
35,33,31,-1
96,37,36,-1
37,98,38,-1
32,34,175,-1
1,5,383,-1
1,383,380,-1
5,68,383,-1
22,64,5,-1
22,24,65,-1
68,5,67,-1
67,5,64,-1
32,65,24,-1
64,22,65,-1
70,203,71,-1
71,203,73,-1
0,1047,1,-1
1,132,107,-1
1,133,132,-1
1,141,133,-1
1,142,141,-1
1,700,142,-1
1,701,700,-1
92,94,105,-1
92,105,95,-1
93,106,94,-1
105,94,106,-1
96,99,37,-1
98,37,97,-1
99,97,37,-1
95,101,100,-1
38,175,34,-1
95,103,101,-1
95,105,103,-1
101,104,102,-1
104,101,103,-1
38,98,174,-1
102,174,98,-1
108,110,109,-1
102,104,174,-1
111,174,104,-1
108,136,110,-1
110,136,111,-1
111,136,174,-1
174,136,137,-1
134,107,132,-1
133,145,144,-1
133,149,146,-1
133,146,145,-1
135,138,137,-1
139,137,138,-1
137,139,275,-1
135,140,138,-1
147,277,139,-1
149,133,141,-1
145,148,147,-1
148,145,146,-1
147,148,288,-1
152,290,148,-1
143,151,150,-1
151,703,152,-1
32,175,179,-1
32,179,177,-1
32,177,65,-1
38,174,175,-1
176,179,175,-1
65,178,186,-1
186,178,189,-1
189,178,193,-1
195,193,194,-1
193,195,210,-1
66,203,72,-1
72,203,70,-1
187,203,66,-1
188,207,187,-1
73,203,75,-1
75,203,77,-1
77,203,196,-1
196,203,198,-1
198,203,199,-1
190,207,188,-1
191,207,190,-1
192,207,191,-1
187,207,203,-1
192,201,207,-1
202,208,201,-1
193,216,202,-1
205,199,203,-1
199,205,204,-1
201,208,207,-1
216,208,202,-1
207,208,206,-1
209,206,208,-1
178,65,177,-1
178,194,193,-1
194,178,212,-1
283,212,178,-1
212,335,213,-1
193,210,216,-1
224,217,215,-1
211,213,214,-1
214,213,219,-1
219,213,221,-1
218,220,215,-1
220,222,215,-1
222,223,215,-1
213,335,221,-1
223,227,215,-1
226,224,215,-1
228,229,215,-1
229,226,215,-1
227,228,215,-1
174,137,275,-1
139,277,275,-1
274,276,278,-1
275,278,276,-1
278,275,277,-1
274,278,286,-1
277,147,288,-1
279,286,278,-1
274,282,281,-1
274,284,282,-1
274,286,284,-1
282,285,283,-1
285,282,284,-1
148,290,288,-1
280,289,291,-1
288,291,289,-1
291,288,290,-1
280,291,300,-1
292,300,291,-1
290,152,294,-1
152,785,294,-1
293,295,786,-1
280,296,287,-1
280,298,296,-1
280,300,298,-1
296,299,297,-1
299,296,298,-1
293,302,301,-1
293,793,302,-1
283,334,212,-1
335,212,334,-1
334,283,338,-1
283,349,338,-1
221,335,340,-1
340,336,341,-1
336,340,335,-1
341,336,342,-1
336,346,342,-1
342,344,343,-1
345,343,344,-1
344,342,346,-1
339,347,337,-1
283,285,850,-1
297,850,285,-1
349,283,350,-1
338,349,339,-1
283,850,350,-1
297,299,845,-1
303,845,299,-1
297,845,850,-1
347,339,349,-1
352,348,351,-1
353,351,348,-1
350,854,355,-1
353,354,351,-1
0,382,442,-1
0,442,444,-1
0,463,378,-1
0,378,1084,-1
378,463,1084,-1
0,444,463,-1
383,402,386,-1
386,389,388,-1
448,388,389,-1
69,383,68,-1
74,383,69,-1
74,401,383,-1
76,404,74,-1
197,406,76,-1
74,404,401,-1
76,406,404,-1
405,510,409,-1
409,510,410,-1
402,383,401,-1
403,389,386,-1
389,403,390,-1
403,386,402,-1
424,390,403,-1
424,421,390,-1
422,390,421,-1
390,422,473,-1
426,421,424,-1
555,429,426,-1
421,426,429,-1
429,558,430,-1
384,442,382,-1
384,445,442,-1
384,385,447,-1
384,447,445,-1
388,448,387,-1
391,453,449,-1
451,449,450,-1
450,449,452,-1
452,449,453,-1
449,451,464,-1
391,470,453,-1
463,444,446,-1
463,446,449,-1
463,449,464,-1
463,464,465,-1
463,465,466,-1
463,466,490,-1
463,490,491,-1
474,471,391,-1
423,473,422,-1
391,471,470,-1
471,474,472,-1
472,474,479,-1
472,479,475,-1
475,479,476,-1
430,477,428,-1
200,406,197,-1
206,406,200,-1
209,498,406,-1
206,209,406,-1
209,501,498,-1
209,506,501,-1
209,507,506,-1
407,510,408,-1
499,510,407,-1
500,511,499,-1
408,510,405,-1
410,510,425,-1
502,511,500,-1
503,511,502,-1
504,511,503,-1
508,506,507,-1
506,508,512,-1
499,511,510,-1
504,505,511,-1
509,562,505,-1
506,564,509,-1
505,562,511,-1
564,562,509,-1
225,507,209,-1
225,516,507,-1
343,516,225,-1
506,512,564,-1
566,565,515,-1
513,517,514,-1
514,517,519,-1
519,517,521,-1
516,595,517,-1
517,595,521,-1
518,520,515,-1
520,522,515,-1
522,523,515,-1
568,566,515,-1
569,568,515,-1
525,569,515,-1
523,524,515,-1
524,525,515,-1
425,510,427,-1
427,510,554,-1
554,510,556,-1
556,510,557,-1
558,429,555,-1
561,430,558,-1
430,561,563,-1
557,560,559,-1
560,557,510,-1
511,562,561,-1
563,561,562,-1
567,430,563,-1
618,477,430,-1
618,570,477,-1
618,430,567,-1
618,620,570,-1
573,625,648,-1
343,345,516,-1
348,516,345,-1
352,594,516,-1
348,352,516,-1
352,601,594,-1
595,516,594,-1
521,595,596,-1
599,596,595,-1
599,597,596,-1
599,598,597,-1
598,599,621,-1
602,622,600,-1
601,352,856,-1
601,856,858,-1
601,858,603,-1
601,603,602,-1
622,602,603,-1
604,626,623,-1
604,628,626,-1
605,1135,629,-1
598,619,618,-1
620,618,619,-1
598,621,619,-1
623,570,620,-1
623,627,570,-1
570,1137,624,-1
1136,570,627,-1
648,625,660,-1
660,625,663,-1
624,631,625,-1
625,631,663,-1
627,623,626,-1
570,1136,1137,-1
624,1137,1140,-1
624,1140,1141,-1
624,1152,630,-1
631,624,630,-1
477,570,571,-1
477,571,478,-1
478,571,650,-1
651,478,650,-1
572,652,571,-1
652,650,571,-1
669,653,649,-1
661,662,649,-1
662,664,649,-1
664,666,649,-1
671,669,649,-1
666,668,649,-1
668,667,649,-1
672,671,649,-1
667,672,649,-1
663,631,665,-1
678,665,631,-1
665,678,674,-1
674,678,675,-1
632,678,631,-1
675,676,673,-1
677,673,676,-1
676,675,678,-1
1515,491,492,-1
1515,492,493,-1
463,491,1515,-1
1515,476,479,-1
1515,493,476,-1
1515,479,478,-1
0,698,1047,-1
0,1084,698,-1
698,1084,1047,-1
1,1047,701,-1
142,700,699,-1
143,703,151,-1
152,703,785,-1
704,785,703,-1
702,705,704,-1
706,704,705,-1
785,704,706,-1
708,701,707,-1
701,713,712,-1
701,708,718,-1
701,715,713,-1
701,718,715,-1
709,718,708,-1
740,717,710,-1
702,711,705,-1
714,791,706,-1
791,714,716,-1
713,716,714,-1
716,713,715,-1
743,803,716,-1
1047,707,701,-1
1047,739,707,-1
739,741,740,-1
717,740,741,-1
745,743,744,-1
743,745,930,-1
742,744,743,-1
742,746,744,-1
756,930,745,-1
756,758,931,-1
749,747,748,-1
747,755,754,-1
747,757,755,-1
747,749,760,-1
750,760,749,-1
747,760,757,-1
753,759,751,-1
755,758,756,-1
758,755,757,-1
761,931,758,-1
931,761,1011,-1
1015,931,1011,-1
294,786,295,-1
294,785,786,-1
293,786,795,-1
787,795,786,-1
785,706,789,-1
706,791,789,-1
788,790,792,-1
789,792,790,-1
792,789,791,-1
788,792,808,-1
293,795,793,-1
302,794,303,-1
302,793,794,-1
788,797,796,-1
788,799,797,-1
788,808,799,-1
797,800,798,-1
800,797,799,-1
791,716,803,-1
801,808,792,-1
743,805,803,-1
802,804,806,-1
803,806,804,-1
806,803,805,-1
802,806,814,-1
807,814,806,-1
802,810,809,-1
802,812,810,-1
802,814,812,-1
810,813,811,-1
813,810,812,-1
303,794,846,-1
303,846,845,-1
798,846,794,-1
798,800,848,-1
846,798,848,-1
847,849,859,-1
350,850,851,-1
350,851,854,-1
855,854,858,-1
855,355,854,-1
858,856,855,-1
852,849,853,-1
852,859,849,-1
853,864,857,-1
864,853,849,-1
857,864,865,-1
857,873,860,-1
860,873,862,-1
811,848,800,-1
848,811,813,-1
848,813,934,-1
934,866,848,-1
934,869,866,-1
869,871,881,-1
871,869,870,-1
857,865,867,-1
857,867,868,-1
857,868,873,-1
881,862,873,-1
862,881,874,-1
874,881,875,-1
875,881,876,-1
880,876,881,-1
880,881,877,-1
880,878,876,-1
877,881,882,-1
881,871,884,-1
872,886,871,-1
881,884,882,-1
882,884,883,-1
886,884,871,-1
805,743,930,-1
931,932,929,-1
756,931,930,-1
1015,932,931,-1
1015,933,932,-1
933,1015,934,-1
869,1056,870,-1
869,934,1056,-1
870,1056,942,-1
942,964,943,-1
964,942,963,-1
941,943,944,-1
944,943,947,-1
947,943,952,-1
946,951,945,-1
951,953,945,-1
949,948,945,-1
959,949,945,-1
960,959,945,-1
943,964,952,-1
953,954,945,-1
954,957,945,-1
952,964,955,-1
957,958,945,-1
958,960,945,-1
961,969,962,-1
967,1066,968,-1
965,955,964,-1
955,965,956,-1
956,965,961,-1
965,971,961,-1
970,962,969,-1
969,961,971,-1
968,972,966,-1
972,968,1066,-1
1047,741,739,-1
1047,747,741,-1
1047,748,747,-1
1047,752,748,-1
1047,1007,752,-1
1047,1008,1007,-1
1047,1016,1008,-1
752,1007,753,-1
759,753,1007,-1
1025,1013,1008,-1
1011,761,1010,-1
1009,1010,761,-1
1009,1012,1010,-1
1017,1008,1016,-1
1008,1017,1025,-1
1018,1025,1017,-1
1020,1048,1021,-1
1019,1021,1024,-1
1024,1021,1048,-1
1025,1014,1013,-1
1014,1023,1015,-1
1023,1014,1022,-1
1025,1022,1014,-1
1047,1020,1016,-1
1047,1048,1020,-1
1047,1050,1048,-1
1047,1055,1050,-1
1050,1055,1054,-1
1049,1051,1026,-1
1052,1026,1051,-1
1049,1053,1051,-1
934,1015,1023,-1
1026,934,1023,-1
934,1026,1052,-1
942,1056,963,-1
963,1056,967,-1
967,1056,1066,-1
1056,934,1052,-1
1066,1056,1067,-1
1068,1069,973,-1
1070,973,1069,-1
1068,1071,1069,-1
1067,1073,1072,-1
1067,1056,1073,-1
1047,1379,1055,-1
1379,1073,1056,-1
1379,1056,1055,-1
1047,1315,1379,-1
1084,1317,1315,-1
603,858,861,-1
605,861,863,-1
603,861,605,-1
605,863,879,-1
605,879,883,-1
605,883,1086,-1
884,1092,1086,-1
605,1085,1088,-1
605,1086,1085,-1
605,1088,1089,-1
605,1089,1135,-1
1093,1103,1094,-1
1094,1103,1087,-1
1087,1103,1090,-1
1090,1103,1091,-1
1091,1103,1138,-1
883,884,1086,-1
885,1092,884,-1
885,1095,1092,-1
885,1099,1095,-1
950,1106,885,-1
885,1104,1099,-1
885,1106,1104,-1
1096,1103,1093,-1
1097,1109,1096,-1
1098,1109,1097,-1
1100,1109,1098,-1
1101,1109,1100,-1
1096,1109,1103,-1
1101,1102,1109,-1
1107,1104,1106,-1
1104,1107,1108,-1
1105,1152,1102,-1
1104,1154,1105,-1
1102,1152,1109,-1
1104,1108,1154,-1
1154,1152,1105,-1
1135,1137,1136,-1
1135,1089,1137,-1
624,1141,1149,-1
624,1149,1151,-1
1138,1103,1139,-1
624,1151,1152,-1
1153,1143,630,-1
1144,1276,1142,-1
1143,1156,1144,-1
1144,1155,1276,-1
1139,1103,1145,-1
1145,1103,1146,-1
1146,1103,1147,-1
1150,1147,1103,-1
1147,1150,1148,-1
630,1152,1153,-1
1109,1152,1151,-1
1153,1157,1143,-1
1155,1144,1156,-1
1156,1143,1157,-1
950,1186,1106,-1
962,1186,950,-1
962,970,1186,-1
970,1201,1186,-1
1185,1187,1188,-1
1188,1187,1191,-1
1191,1187,1193,-1
1230,1229,1189,-1
1190,1192,1189,-1
1192,1194,1189,-1
1232,1230,1189,-1
1233,1232,1189,-1
1186,1202,1187,-1
1187,1202,1193,-1
1202,1186,1201,-1
1193,1202,1198,-1
1194,1195,1189,-1
1195,1196,1189,-1
1196,1197,1189,-1
1197,1233,1189,-1
973,1201,970,-1
973,1205,1201,-1
973,1070,1205,-1
1203,1198,1202,-1
1198,1203,1199,-1
1199,1203,1200,-1
1203,1241,1200,-1
1206,1242,1204,-1
1205,1319,1206,-1
1242,1206,1319,-1
1200,1239,1234,-1
1231,1331,1153,-1
1157,1153,1236,-1
1236,1153,1244,-1
1244,1153,1249,-1
1237,1298,1235,-1
1238,1299,1237,-1
1240,1234,1239,-1
1239,1200,1241,-1
1234,1331,1231,-1
1234,1240,1331,-1
1243,1331,1240,-1
1331,1243,1326,-1
1331,1249,1153,-1
1245,1299,1238,-1
1246,1299,1245,-1
1249,1333,1250,-1
1249,1331,1333,-1
1334,1250,1333,-1
463,1515,1084,-1
1142,1274,1273,-1
1142,1276,1278,-1
1142,1278,1274,-1
1274,1281,1275,-1
1281,1274,1278,-1
1282,1275,1281,-1
1295,1275,1282,-1
1515,478,651,-1
1515,651,670,-1
1515,670,673,-1
1159,1298,1158,-1
1158,1298,1277,-1
1235,1298,1159,-1
1277,1298,1279,-1
1279,1298,1280,-1
1280,1298,1293,-1
1293,1298,1294,-1
1294,1298,1296,-1
1237,1299,1298,-1
1247,1299,1246,-1
1247,1248,1299,-1
1250,1299,1248,-1
1250,1391,1299,-1
1296,1298,1297,-1
1302,1297,1298,-1
1297,1302,1300,-1
1299,1395,1303,-1
1395,1299,1389,-1
1515,673,677,-1
1515,677,1275,-1
1515,1275,1295,-1
1047,1084,1315,-1
1070,1319,1205,-1
1070,1321,1319,-1
1320,1325,1243,-1
1320,1327,1325,-1
1321,1329,1328,-1
1379,1070,1074,-1
1379,1321,1070,-1
1379,1074,1073,-1
1326,1243,1325,-1
1330,1332,1326,-1
1330,1337,1332,-1
1331,1326,1332,-1
1335,1339,1334,-1
1335,1336,1338,-1
1335,1338,1339,-1
1250,1334,1345,-1
1337,1330,1341,-1
1340,1334,1339,-1
1342,1334,1340,-1
1343,1334,1342,-1
1344,1334,1343,-1
1408,1250,1345,-1
1379,1329,1321,-1
1379,1330,1329,-1
1341,1330,1346,-1
1345,1334,1344,-1
1330,1373,1346,-1
1346,1374,1347,-1
1379,1373,1330,-1
1374,1346,1373,-1
1347,1374,1376,-1
1347,1376,1348,-1
1461,1348,1376,-1
1375,1380,1377,-1
1377,1380,1378,-1
1380,1471,1378,-1
1380,1474,1471,-1
1084,1515,1317,-1
1391,1250,1393,-1
1299,1392,1389,-1
1392,1299,1391,-1
1389,1392,1390,-1
1393,1250,1405,-1
1405,1250,1407,-1
1407,1250,1408,-1
1394,1390,1392,-1
1411,1390,1394,-1
1412,1390,1411,-1
1413,1390,1412,-1
1414,1390,1413,-1
1422,1390,1414,-1
1390,1397,1396,-1
1397,1390,1400,-1
1400,1390,1401,-1
1401,1390,1403,-1
1403,1390,1420,-1
1420,1390,1421,-1
1421,1390,1422,-1
1406,1410,1409,-1
1409,1410,1415,-1
1409,1415,1417,-1
1418,1459,1419,-1
1419,1462,1423,-1
1515,1295,1301,-1
1515,1301,1303,-1
1515,1303,1395,-1
1515,1395,1398,-1
1515,1398,1399,-1
1515,1399,1402,-1
1515,1402,1404,-1
1348,1461,1416,-1
1416,1470,1415,-1
1417,1415,1470,-1
1417,1470,1418,-1
1459,1418,1460,-1
1416,1461,1470,-1
1472,1418,1470,-1
1418,1476,1460,-1
1473,1418,1472,-1
1476,1418,1473,-1
1462,1419,1459,-1
1460,1464,1463,-1
1464,1460,1466,-1
1466,1460,1467,-1
1467,1460,1468,-1
1468,1460,1482,-1
1477,1460,1476,-1
1478,1460,1477,-1
1380,1475,1474,-1
1380,1479,1475,-1
1380,1480,1479,-1
1380,1481,1480,-1
1515,1380,1317,-1
1482,1460,1483,-1
1483,1460,1478,-1
1515,1481,1380,-1
1515,1486,1481,-1
1515,1404,1423,-1
1515,1423,1462,-1
1515,1462,1465,-1
1515,1465,1469,-1
1515,1469,1484,-1
1515,1484,1485,-1
1515,1485,1486,-1
8,3,2,-1
9,14,3,-1
41,6,16,-1
8,9,3,-1
9,39,14,-1
8,39,9,-1
10,5,4,-1
12,4,6,-1
11,22,5,-1
13,17,7,-1
46,7,21,-1
10,11,5,-1
10,4,12,-1
10,12,11,-1
12,6,41,-1
11,47,22,-1
13,7,46,-1
11,12,13,-1
11,13,47,-1
12,41,13,-1
13,46,47,-1
39,16,14,-1
44,2,19,-1
40,20,15,-1
43,15,18,-1
42,25,17,-1
45,19,20,-1
8,2,44,-1
40,15,43,-1
40,45,20,-1
8,44,39,-1
39,40,41,-1
39,44,40,-1
40,44,45,-1
39,41,16,-1
13,42,17,-1
43,18,51,-1
40,43,41,-1
41,43,42,-1
13,41,42,-1
42,43,50,-1
44,19,45,-1
47,21,22,-1
48,24,23,-1
51,18,26,-1
50,23,25,-1
49,32,24,-1
56,26,31,-1
46,21,47,-1
48,49,24,-1
42,50,25,-1
48,23,50,-1
49,57,32,-1
51,26,56,-1
43,51,50,-1
48,50,49,-1
49,50,51,-1
49,51,57,-1
51,56,57,-1
52,28,27,-1
53,29,28,-1
54,30,29,-1
55,35,30,-1
52,53,28,-1
53,54,29,-1
52,27,113,-1
52,54,53,-1
52,113,54,-1
54,112,55,-1
54,55,30,-1
61,116,96,-1
55,112,115,-1
55,115,116,-1
55,116,61,-1
57,31,32,-1
58,34,33,-1
60,33,35,-1
59,38,34,-1
61,96,36,-1
62,36,37,-1
63,37,38,-1
56,31,57,-1
58,59,34,-1
58,33,60,-1
55,60,35,-1
58,60,59,-1
59,60,61,-1
59,61,63,-1
59,63,38,-1
61,36,62,-1
62,37,63,-1
55,61,60,-1
61,62,63,-1
79,64,65,-1
86,66,72,-1
78,64,79,-1
79,65,230,-1
80,66,86,-1
78,79,86,-1
79,80,86,-1
81,68,67,-1
82,69,68,-1
83,74,69,-1
78,67,64,-1
84,72,70,-1
85,70,71,-1
87,71,73,-1
89,73,75,-1
88,76,74,-1
91,75,77,-1
90,197,76,-1
81,67,78,-1
81,82,68,-1
81,85,82,-1
82,85,83,-1
82,83,69,-1
84,86,72,-1
84,70,85,-1
85,71,87,-1
81,78,84,-1
81,84,85,-1
78,86,84,-1
83,88,74,-1
87,73,89,-1
88,90,76,-1
89,75,91,-1
85,87,83,-1
83,87,88,-1
87,89,88,-1
88,89,90,-1
89,91,90,-1
90,91,241,-1
113,27,93,-1
112,94,92,-1
114,93,94,-1
115,92,95,-1
116,99,96,-1
112,92,115,-1
112,114,94,-1
113,93,114,-1
54,113,112,-1
112,113,114,-1
115,95,120,-1
115,119,116,-1
120,95,100,-1
117,98,97,-1
119,97,99,-1
118,102,98,-1
121,100,101,-1
122,101,102,-1
123,104,103,-1
125,103,105,-1
116,119,99,-1
117,118,98,-1
117,97,119,-1
115,120,119,-1
117,119,118,-1
118,119,120,-1
118,122,102,-1
120,100,121,-1
121,101,122,-1
123,124,104,-1
123,103,125,-1
118,120,122,-1
120,121,122,-1
123,125,124,-1
126,105,106,-1
127,106,107,-1
155,107,134,-1
128,136,108,-1
125,105,126,-1
128,108,129,-1
125,126,127,-1
125,127,128,-1
126,106,127,-1
127,107,155,-1
127,155,128,-1
128,155,157,-1
124,111,104,-1
129,108,109,-1
130,109,110,-1
131,110,111,-1
129,109,130,-1
124,131,111,-1
130,110,131,-1
124,125,129,-1
124,129,131,-1
125,128,129,-1
129,130,131,-1
128,157,136,-1
154,132,133,-1
153,134,132,-1
156,140,135,-1
165,133,144,-1
153,132,154,-1
153,155,134,-1
156,135,158,-1
155,156,157,-1
153,156,155,-1
154,133,165,-1
153,154,165,-1
153,165,156,-1
158,135,137,-1
157,137,136,-1
159,139,138,-1
161,138,140,-1
160,147,139,-1
157,158,137,-1
156,158,157,-1
159,160,139,-1
159,138,161,-1
156,161,140,-1
160,168,147,-1
159,161,160,-1
156,165,161,-1
160,161,165,-1
160,165,168,-1
163,141,142,-1
162,149,141,-1
162,170,149,-1
162,141,163,-1
164,143,171,-1
162,163,170,-1
163,164,170,-1
166,144,145,-1
168,145,147,-1
167,148,146,-1
170,146,149,-1
169,152,148,-1
171,143,150,-1
172,150,151,-1
173,151,152,-1
165,144,166,-1
166,145,168,-1
167,169,148,-1
167,146,170,-1
165,166,168,-1
167,170,169,-1
169,170,171,-1
169,173,152,-1
171,150,172,-1
172,151,173,-1
164,171,170,-1
169,171,173,-1
171,172,173,-1
180,175,174,-1
181,176,175,-1
182,179,176,-1
180,181,175,-1
181,182,176,-1
180,174,305,-1
180,182,181,-1
180,304,182,-1
182,304,185,-1
183,178,177,-1
185,177,179,-1
184,283,178,-1
182,185,179,-1
183,184,178,-1
183,177,185,-1
183,185,184,-1
184,185,311,-1
230,65,186,-1
80,187,66,-1
231,188,187,-1
233,186,189,-1
232,190,188,-1
234,191,190,-1
235,192,191,-1
237,189,193,-1
238,195,194,-1
80,231,187,-1
230,186,233,-1
231,232,188,-1
232,234,190,-1
79,230,80,-1
80,230,231,-1
230,232,231,-1
230,233,232,-1
232,233,234,-1
233,189,237,-1
234,235,191,-1
235,236,192,-1
237,193,246,-1
238,239,195,-1
233,235,234,-1
233,237,235,-1
235,237,236,-1
240,77,196,-1
242,196,198,-1
241,200,197,-1
243,198,199,-1
236,201,192,-1
245,202,201,-1
246,193,202,-1
247,205,203,-1
251,203,207,-1
248,199,204,-1
249,204,205,-1
244,206,200,-1
250,207,206,-1
252,209,208,-1
91,77,240,-1
90,241,197,-1
240,196,242,-1
242,198,243,-1
243,199,248,-1
241,244,200,-1
91,240,241,-1
240,242,241,-1
241,242,244,-1
242,243,244,-1
243,248,244,-1
236,245,201,-1
245,246,202,-1
236,237,246,-1
236,246,245,-1
247,249,205,-1
247,203,251,-1
250,251,207,-1
248,204,249,-1
244,250,206,-1
252,253,209,-1
247,251,249,-1
244,248,250,-1
248,249,250,-1
249,251,250,-1
239,210,195,-1
256,194,212,-1
255,213,211,-1
257,212,213,-1
238,194,256,-1
239,254,210,-1
238,254,239,-1
238,255,254,-1
238,256,255,-1
255,257,213,-1
256,212,257,-1
255,256,257,-1
254,216,210,-1
258,211,214,-1
259,218,215,-1
260,208,216,-1
253,225,209,-1
261,215,217,-1
263,214,219,-1
262,220,218,-1
265,219,221,-1
264,222,220,-1
266,223,222,-1
362,221,340,-1
268,217,224,-1
270,224,226,-1
269,343,225,-1
267,227,223,-1
271,228,227,-1
272,229,228,-1
273,226,229,-1
255,211,258,-1
258,214,263,-1
259,215,261,-1
254,255,258,-1
254,258,259,-1
254,259,260,-1
258,262,259,-1
254,260,216,-1
252,208,260,-1
261,217,268,-1
253,269,225,-1
252,260,253,-1
259,261,260,-1
253,260,269,-1
260,261,269,-1
259,262,218,-1
263,219,265,-1
262,264,220,-1
264,266,222,-1
265,221,362,-1
266,267,223,-1
258,263,262,-1
262,263,264,-1
263,265,264,-1
264,265,266,-1
265,362,266,-1
266,362,267,-1
268,224,270,-1
272,273,229,-1
267,271,227,-1
271,272,228,-1
270,226,273,-1
269,365,343,-1
261,268,269,-1
268,270,269,-1
269,270,365,-1
270,273,365,-1
272,365,273,-1
305,174,275,-1
304,276,274,-1
306,275,276,-1
307,278,277,-1
308,279,278,-1
309,286,279,-1
318,277,288,-1
304,274,311,-1
304,306,276,-1
305,275,306,-1
180,305,304,-1
304,305,306,-1
307,308,278,-1
307,277,318,-1
308,309,279,-1
310,280,317,-1
307,309,308,-1
307,318,309,-1
309,318,310,-1
309,310,316,-1
311,274,281,-1
312,281,282,-1
313,282,283,-1
317,280,287,-1
314,285,284,-1
316,284,286,-1
315,297,285,-1
304,311,185,-1
184,313,283,-1
311,281,312,-1
312,282,313,-1
184,311,313,-1
311,312,313,-1
309,316,286,-1
310,317,316,-1
314,315,285,-1
314,284,316,-1
315,327,297,-1
314,316,315,-1
315,316,317,-1
315,317,327,-1
310,289,280,-1
319,288,289,-1
320,291,290,-1
321,292,291,-1
322,300,292,-1
324,290,294,-1
323,295,293,-1
325,294,295,-1
310,319,289,-1
318,288,319,-1
320,321,291,-1
321,322,292,-1
310,318,319,-1
320,322,321,-1
320,290,324,-1
323,325,295,-1
324,294,325,-1
323,293,331,-1
320,324,322,-1
322,323,330,-1
322,324,323,-1
323,324,325,-1
326,287,296,-1
327,296,297,-1
328,299,298,-1
330,298,300,-1
331,293,301,-1
329,303,299,-1
332,301,302,-1
333,302,303,-1
317,287,326,-1
326,296,327,-1
328,329,299,-1
328,298,330,-1
317,326,327,-1
328,330,329,-1
322,330,300,-1
323,331,330,-1
329,333,303,-1
331,301,332,-1
332,302,333,-1
329,330,331,-1
329,331,333,-1
331,332,333,-1
356,335,334,-1
357,336,335,-1
360,334,338,-1
359,339,337,-1
361,338,339,-1
356,357,335,-1
357,358,336,-1
356,358,357,-1
356,334,360,-1
359,361,339,-1
360,338,361,-1
356,360,358,-1
358,360,359,-1
359,360,361,-1
363,340,341,-1
365,342,343,-1
364,341,342,-1
366,345,344,-1
368,344,346,-1
368,346,336,-1
369,337,347,-1
367,348,345,-1
362,340,363,-1
363,341,364,-1
267,362,363,-1
364,342,365,-1
366,367,345,-1
366,344,368,-1
267,363,271,-1
271,363,364,-1
271,364,272,-1
272,364,365,-1
366,368,367,-1
358,368,336,-1
359,337,369,-1
358,359,369,-1
367,370,348,-1
358,369,368,-1
367,368,370,-1
368,369,370,-1
372,349,350,-1
371,349,372,-1
371,347,349,-1
370,353,348,-1
373,352,351,-1
375,354,353,-1
376,351,354,-1
374,856,352,-1
377,350,355,-1
897,355,855,-1
369,347,371,-1
370,375,353,-1
369,371,372,-1
369,372,375,-1
373,374,352,-1
369,375,370,-1
372,350,377,-1
375,372,377,-1
375,376,354,-1
373,351,376,-1
377,355,897,-1
374,898,856,-1
375,377,376,-1
373,376,374,-1
374,376,377,-1
374,377,898,-1
377,897,898,-1
379,381,382,-1
379,382,380,-1
379,380,383,-1
381,384,382,-1
379,393,381,-1
379,383,392,-1
381,394,384,-1
379,392,393,-1
394,385,384,-1
381,393,394,-1
395,383,386,-1
397,386,388,-1
396,388,387,-1
392,383,395,-1
392,394,393,-1
392,395,394,-1
395,386,397,-1
396,395,397,-1
396,397,388,-1
394,395,396,-1
398,448,389,-1
399,389,390,-1
398,399,457,-1
398,389,399,-1
411,402,401,-1
412,403,402,-1
413,424,403,-1
414,401,404,-1
415,408,405,-1
416,404,406,-1
418,407,408,-1
419,405,409,-1
420,409,410,-1
435,410,425,-1
411,401,414,-1
411,412,402,-1
412,413,403,-1
411,419,412,-1
412,419,413,-1
414,404,416,-1
418,408,415,-1
417,407,418,-1
416,406,526,-1
414,416,418,-1
411,414,415,-1
414,418,415,-1
416,417,418,-1
415,405,419,-1
419,409,420,-1
413,434,424,-1
420,410,435,-1
411,415,419,-1
419,420,413,-1
413,420,434,-1
420,435,434,-1
431,422,421,-1
432,423,422,-1
399,390,483,-1
431,432,422,-1
431,421,439,-1
431,433,432,-1
432,433,423,-1
434,426,424,-1
437,425,427,-1
436,555,426,-1
434,436,426,-1
435,425,437,-1
434,435,436,-1
435,437,436,-1
436,437,575,-1
439,421,429,-1
438,430,428,-1
440,429,430,-1
431,439,433,-1
433,439,438,-1
439,429,440,-1
438,439,440,-1
438,440,430,-1
441,444,442,-1
441,443,444,-1
441,442,445,-1
443,446,444,-1
441,455,443,-1
441,445,454,-1
443,455,446,-1
394,447,385,-1
457,387,448,-1
394,456,447,-1
394,457,456,-1
396,387,457,-1
394,396,457,-1
398,457,448,-1
456,445,447,-1
455,449,446,-1
441,454,455,-1
456,454,445,-1
456,455,454,-1
456,458,455,-1
455,458,449,-1
456,457,458,-1
458,391,449,-1
399,400,457,-1
400,458,457,-1
400,391,458,-1
459,451,450,-1
462,452,453,-1
461,450,452,-1
480,453,470,-1
459,460,451,-1
461,452,462,-1
459,450,461,-1
462,453,480,-1
459,486,460,-1
459,461,486,-1
461,462,486,-1
460,464,451,-1
467,465,464,-1
468,466,465,-1
469,490,466,-1
460,467,464,-1
467,468,465,-1
468,469,466,-1
469,494,490,-1
460,468,467,-1
460,469,468,-1
460,494,469,-1
460,495,494,-1
400,474,391,-1
433,473,423,-1
483,390,473,-1
399,483,400,-1
400,484,474,-1
433,483,473,-1
400,483,484,-1
481,470,471,-1
482,471,472,-1
485,472,475,-1
486,475,476,-1
480,470,481,-1
481,471,482,-1
482,472,485,-1
480,481,482,-1
462,480,486,-1
480,482,485,-1
480,485,486,-1
485,475,486,-1
438,428,477,-1
433,438,483,-1
438,477,487,-1
438,484,483,-1
438,487,484,-1
484,479,474,-1
488,477,478,-1
489,478,479,-1
487,477,488,-1
484,489,479,-1
484,487,489,-1
488,478,489,-1
487,488,489,-1
494,491,490,-1
496,493,492,-1
495,492,491,-1
497,476,493,-1
494,495,491,-1
496,497,493,-1
495,496,492,-1
460,496,495,-1
460,486,497,-1
460,497,496,-1
486,476,497,-1
417,499,407,-1
526,406,498,-1
527,500,499,-1
529,498,501,-1
528,502,500,-1
530,503,502,-1
531,504,503,-1
534,501,506,-1
532,505,504,-1
533,509,505,-1
535,508,507,-1
537,506,509,-1
538,560,510,-1
539,510,511,-1
417,527,499,-1
526,498,529,-1
527,528,500,-1
528,530,502,-1
416,526,417,-1
417,526,527,-1
526,528,527,-1
526,529,528,-1
528,529,530,-1
530,531,503,-1
529,501,534,-1
531,532,504,-1
532,533,505,-1
535,536,508,-1
534,506,537,-1
533,537,509,-1
529,531,530,-1
529,534,531,-1
531,534,532,-1
532,534,537,-1
532,537,533,-1
538,510,539,-1
538,539,580,-1
536,512,508,-1
544,507,516,-1
542,513,514,-1
540,564,512,-1
543,518,515,-1
585,515,565,-1
541,517,513,-1
545,516,517,-1
547,514,519,-1
546,520,518,-1
549,519,521,-1
548,522,520,-1
550,523,522,-1
608,521,596,-1
551,524,523,-1
552,525,524,-1
536,540,512,-1
535,507,544,-1
541,513,542,-1
535,540,536,-1
535,541,540,-1
535,544,541,-1
540,541,542,-1
540,542,543,-1
540,584,564,-1
542,514,547,-1
543,515,585,-1
540,543,584,-1
542,546,543,-1
543,585,584,-1
541,545,517,-1
544,516,545,-1
541,544,545,-1
543,546,518,-1
547,519,549,-1
546,548,520,-1
548,550,522,-1
549,521,608,-1
550,551,523,-1
551,552,524,-1
552,553,525,-1
542,547,546,-1
546,547,548,-1
547,549,548,-1
548,549,550,-1
549,608,550,-1
550,608,551,-1
574,427,554,-1
576,554,556,-1
575,558,555,-1
577,556,557,-1
579,557,559,-1
580,559,560,-1
578,561,558,-1
581,511,561,-1
582,563,562,-1
437,427,574,-1
436,575,555,-1
576,556,577,-1
574,554,576,-1
577,557,579,-1
578,558,575,-1
437,574,575,-1
574,576,575,-1
576,578,575,-1
576,577,578,-1
577,579,578,-1
579,559,580,-1
538,580,560,-1
581,539,511,-1
578,581,561,-1
582,583,563,-1
578,579,581,-1
579,580,581,-1
580,539,581,-1
584,562,564,-1
583,567,563,-1
586,565,566,-1
588,566,568,-1
587,618,567,-1
589,568,569,-1
553,569,525,-1
582,562,584,-1
585,565,586,-1
583,587,567,-1
582,584,583,-1
583,584,587,-1
584,585,587,-1
586,566,588,-1
588,568,589,-1
553,589,569,-1
587,633,618,-1
585,586,587,-1
586,588,587,-1
588,589,633,-1
587,588,633,-1
553,633,589,-1
590,571,570,-1
591,572,571,-1
639,570,624,-1
593,625,573,-1
654,573,648,-1
590,591,571,-1
590,570,639,-1
590,592,591,-1
591,592,572,-1
590,593,592,-1
590,639,593,-1
593,573,654,-1
592,593,654,-1
592,654,655,-1
606,595,594,-1
607,599,595,-1
609,596,597,-1
610,597,598,-1
613,594,601,-1
612,602,600,-1
614,601,602,-1
636,621,599,-1
637,600,622,-1
606,607,595,-1
607,611,599,-1
606,611,607,-1
608,596,609,-1
609,597,610,-1
610,598,633,-1
551,608,609,-1
551,609,552,-1
552,609,610,-1
552,610,553,-1
553,610,633,-1
606,594,613,-1
612,600,637,-1
612,614,602,-1
613,601,614,-1
606,613,611,-1
611,613,612,-1
611,612,637,-1
612,613,614,-1
611,636,599,-1
611,637,636,-1
615,622,603,-1
638,604,623,-1
617,603,605,-1
616,628,604,-1
644,605,629,-1
615,617,637,-1
615,637,622,-1
616,604,638,-1
616,638,637,-1
616,637,617,-1
615,603,617,-1
617,605,644,-1
616,643,628,-1
616,644,643,-1
616,617,644,-1
633,598,618,-1
634,620,619,-1
636,619,621,-1
635,623,620,-1
634,635,620,-1
634,619,636,-1
634,636,635,-1
635,638,623,-1
635,636,638,-1
636,637,638,-1
640,624,625,-1
639,624,640,-1
593,639,640,-1
593,640,625,-1
641,627,626,-1
643,626,628,-1
642,1136,627,-1
1160,629,1135,-1
641,642,627,-1
641,626,643,-1
642,1161,1136,-1
644,629,1160,-1
641,643,642,-1
642,643,644,-1
642,644,1161,-1
644,1160,1161,-1
645,631,630,-1
646,632,631,-1
645,646,631,-1
645,630,1168,-1
645,647,646,-1
646,647,632,-1
592,652,572,-1
655,661,649,-1
659,649,653,-1
592,658,652,-1
654,648,679,-1
655,680,661,-1
592,655,658,-1
654,680,655,-1
655,649,659,-1
655,659,658,-1
656,651,650,-1
658,650,652,-1
657,670,651,-1
688,653,669,-1
658,656,650,-1
656,657,651,-1
658,657,656,-1
659,653,688,-1
657,689,670,-1
658,689,657,-1
658,659,689,-1
679,648,660,-1
680,662,661,-1
682,660,663,-1
681,664,662,-1
683,666,664,-1
684,663,665,-1
685,668,666,-1
686,672,667,-1
687,667,668,-1
679,660,682,-1
680,681,662,-1
654,679,680,-1
679,681,680,-1
679,682,681,-1
682,663,684,-1
681,683,664,-1
683,685,666,-1
681,682,683,-1
682,684,683,-1
683,684,685,-1
684,693,685,-1
687,686,667,-1
685,687,668,-1
685,693,687,-1
687,694,686,-1
694,692,686,-1
690,669,671,-1
689,673,670,-1
691,671,672,-1
688,669,690,-1
690,671,691,-1
659,688,689,-1
688,690,689,-1
690,692,689,-1
686,691,672,-1
689,692,673,-1
690,691,692,-1
686,692,691,-1
693,665,674,-1
694,674,675,-1
647,678,632,-1
684,665,693,-1
693,674,694,-1
694,675,692,-1
687,693,694,-1
647,697,678,-1
692,675,673,-1
695,677,676,-1
697,676,678,-1
696,1275,677,-1
697,695,676,-1
695,696,677,-1
697,696,695,-1
697,1283,696,-1
719,142,699,-1
164,703,143,-1
721,700,701,-1
720,699,700,-1
722,711,702,-1
163,142,719,-1
719,699,720,-1
163,719,164,-1
164,719,723,-1
720,700,721,-1
722,702,724,-1
721,701,732,-1
719,720,722,-1
719,722,723,-1
720,721,732,-1
720,732,722,-1
723,704,703,-1
724,702,704,-1
725,706,705,-1
164,723,703,-1
723,724,704,-1
725,726,706,-1
722,724,723,-1
732,701,712,-1
727,708,707,-1
728,709,708,-1
762,707,739,-1
730,740,710,-1
729,718,709,-1
737,710,717,-1
727,728,708,-1
727,707,762,-1
728,729,709,-1
727,729,728,-1
727,762,729,-1
729,762,730,-1
730,710,737,-1
729,738,718,-1
729,730,737,-1
729,737,738,-1
731,705,711,-1
726,714,706,-1
733,712,713,-1
734,713,714,-1
735,716,715,-1
738,715,718,-1
736,743,716,-1
722,731,711,-1
725,705,731,-1
726,734,714,-1
732,712,733,-1
733,713,734,-1
722,732,731,-1
725,731,726,-1
726,731,732,-1
726,732,734,-1
732,733,734,-1
735,736,716,-1
735,715,738,-1
736,766,743,-1
735,738,736,-1
736,738,766,-1
738,737,766,-1
763,739,740,-1
770,741,747,-1
764,717,741,-1
765,746,742,-1
730,763,740,-1
762,739,763,-1
730,762,763,-1
737,717,764,-1
764,741,770,-1
765,742,766,-1
737,764,770,-1
737,770,765,-1
765,770,777,-1
766,742,743,-1
767,745,744,-1
769,744,746,-1
768,756,745,-1
737,765,766,-1
767,768,745,-1
767,744,769,-1
765,769,746,-1
767,769,768,-1
765,777,769,-1
768,769,777,-1
768,777,779,-1
771,749,748,-1
772,750,749,-1
777,747,754,-1
775,748,752,-1
774,753,751,-1
776,752,753,-1
773,760,750,-1
782,751,759,-1
771,772,749,-1
772,773,750,-1
771,773,772,-1
770,747,777,-1
771,748,775,-1
774,776,753,-1
775,752,776,-1
771,775,773,-1
773,775,774,-1
774,775,776,-1
774,751,782,-1
773,783,760,-1
773,774,782,-1
773,782,783,-1
778,754,755,-1
779,755,756,-1
780,758,757,-1
783,757,760,-1
781,761,758,-1
768,779,756,-1
777,754,778,-1
778,755,779,-1
780,781,758,-1
780,757,783,-1
777,778,779,-1
780,783,781,-1
781,784,761,-1
781,783,784,-1
783,782,784,-1
815,786,785,-1
816,787,786,-1
817,795,787,-1
819,785,789,-1
818,790,788,-1
820,789,790,-1
821,792,791,-1
815,816,786,-1
815,785,819,-1
816,817,787,-1
815,817,816,-1
815,819,817,-1
817,818,825,-1
818,820,790,-1
818,788,826,-1
819,789,820,-1
821,822,792,-1
817,819,818,-1
818,819,820,-1
823,794,793,-1
825,793,795,-1
824,798,794,-1
826,788,796,-1
827,796,797,-1
828,797,798,-1
829,800,799,-1
817,825,795,-1
823,824,794,-1
823,793,825,-1
823,825,824,-1
824,825,826,-1
818,826,825,-1
824,828,798,-1
826,796,827,-1
827,797,828,-1
829,830,800,-1
824,826,828,-1
826,827,828,-1
822,801,792,-1
831,808,801,-1
833,791,803,-1
832,804,802,-1
834,803,804,-1
835,806,805,-1
836,807,806,-1
837,814,807,-1
822,831,801,-1
821,791,833,-1
832,802,839,-1
821,831,822,-1
821,833,831,-1
831,833,832,-1
831,832,838,-1
832,834,804,-1
833,803,834,-1
835,836,806,-1
836,837,807,-1
832,833,834,-1
835,837,836,-1
839,802,809,-1
838,799,808,-1
830,811,800,-1
840,809,810,-1
841,810,811,-1
842,813,812,-1
844,812,814,-1
831,838,808,-1
832,839,838,-1
829,799,838,-1
830,841,811,-1
839,809,840,-1
829,838,830,-1
830,838,839,-1
830,839,841,-1
837,844,814,-1
840,810,841,-1
842,843,813,-1
842,812,844,-1
839,840,841,-1
842,844,843,-1
888,845,846,-1
901,847,859,-1
890,846,848,-1
889,849,847,-1
887,845,888,-1
889,847,901,-1
888,846,890,-1
889,891,849,-1
887,888,901,-1
888,889,901,-1
888,890,889,-1
889,890,891,-1
892,851,850,-1
893,854,851,-1
887,850,845,-1
894,859,852,-1
895,852,853,-1
898,855,856,-1
896,858,854,-1
899,853,857,-1
900,861,858,-1
902,857,860,-1
904,860,862,-1
903,863,861,-1
916,862,874,-1
892,893,851,-1
892,850,887,-1
894,852,895,-1
895,853,899,-1
892,887,894,-1
892,894,895,-1
887,901,894,-1
892,895,893,-1
893,895,896,-1
893,896,854,-1
897,855,898,-1
896,900,858,-1
899,857,902,-1
895,899,896,-1
896,899,900,-1
899,902,900,-1
894,901,859,-1
900,903,861,-1
902,860,904,-1
904,862,916,-1
903,905,863,-1
900,902,903,-1
902,904,903,-1
904,905,903,-1
904,916,905,-1
891,864,849,-1
908,848,866,-1
906,865,864,-1
907,867,865,-1
909,868,867,-1
911,866,869,-1
912,871,870,-1
913,872,871,-1
890,848,908,-1
891,906,864,-1
906,907,865,-1
908,866,911,-1
907,909,867,-1
909,910,868,-1
890,906,891,-1
890,908,906,-1
906,908,907,-1
907,908,909,-1
908,911,909,-1
909,911,910,-1
911,869,923,-1
912,913,871,-1
913,914,872,-1
912,914,913,-1
912,974,914,-1
910,873,868,-1
917,874,875,-1
905,879,863,-1
918,875,876,-1
919,880,877,-1
920,876,878,-1
921,883,879,-1
922,878,880,-1
923,869,881,-1
915,881,873,-1
914,886,872,-1
924,877,882,-1
925,882,883,-1
926,885,884,-1
928,884,886,-1
927,950,885,-1
910,915,873,-1
910,923,915,-1
916,874,917,-1
917,875,918,-1
905,921,879,-1
919,922,880,-1
919,877,924,-1
918,876,920,-1
920,878,922,-1
921,925,883,-1
905,916,917,-1
905,917,921,-1
917,918,921,-1
919,924,922,-1
918,920,921,-1
920,925,921,-1
920,922,925,-1
922,924,925,-1
915,923,881,-1
910,911,923,-1
924,882,925,-1
914,928,886,-1
926,884,928,-1
926,927,885,-1
926,928,927,-1
936,805,930,-1
935,929,932,-1
935,931,929,-1
937,930,931,-1
835,805,936,-1
935,937,931,-1
936,930,937,-1
835,936,837,-1
837,936,935,-1
837,935,844,-1
935,936,937,-1
843,934,813,-1
939,932,933,-1
940,933,934,-1
935,932,938,-1
935,938,844,-1
843,940,934,-1
938,932,939,-1
939,933,940,-1
843,844,938,-1
843,938,940,-1
938,939,940,-1
975,870,942,-1
974,943,941,-1
976,942,943,-1
912,870,975,-1
975,942,976,-1
974,976,943,-1
912,975,974,-1
974,975,976,-1
977,941,944,-1
978,946,945,-1
980,944,947,-1
979,951,946,-1
981,945,948,-1
982,948,949,-1
992,949,959,-1
985,947,952,-1
984,953,951,-1
986,954,953,-1
988,952,955,-1
989,955,956,-1
987,957,954,-1
991,960,958,-1
990,958,957,-1
983,962,950,-1
993,959,960,-1
995,961,962,-1
994,956,961,-1
974,941,977,-1
978,945,981,-1
977,944,980,-1
978,979,946,-1
980,947,985,-1
979,984,951,-1
914,974,977,-1
914,977,978,-1
914,978,928,-1
977,979,978,-1
977,980,979,-1
979,980,984,-1
981,948,982,-1
927,983,950,-1
982,949,992,-1
928,978,981,-1
927,928,983,-1
928,981,983,-1
981,982,983,-1
982,992,983,-1
984,986,953,-1
985,952,988,-1
986,987,954,-1
988,955,989,-1
989,956,994,-1
980,985,984,-1
984,985,986,-1
985,988,986,-1
986,988,987,-1
987,988,989,-1
987,990,957,-1
991,993,960,-1
990,991,958,-1
992,959,993,-1
983,995,962,-1
994,961,995,-1
983,992,995,-1
992,993,995,-1
991,995,993,-1
987,989,990,-1
990,994,991,-1
991,994,995,-1
989,994,990,-1
996,964,963,-1
997,965,964,-1
1000,963,967,-1
999,968,966,-1
1001,967,968,-1
996,997,964,-1
996,963,1000,-1
997,998,965,-1
996,998,997,-1
996,1000,998,-1
999,1001,968,-1
1000,967,1001,-1
998,1000,999,-1
999,1000,1001,-1
1002,970,969,-1
1004,971,965,-1
1005,966,972,-1
1004,969,971,-1
1003,973,970,-1
1006,1068,973,-1
998,1004,965,-1
999,966,1005,-1
998,999,1005,-1
1002,969,1004,-1
1002,1003,970,-1
1003,1006,973,-1
1002,1004,1003,-1
998,1005,1004,-1
1003,1004,1006,-1
1004,1005,1006,-1
1005,972,1075,-1
1005,1077,1006,-1
1027,759,1007,-1
1028,1007,1008,-1
1029,1012,1009,-1
1033,1008,1013,-1
782,759,1027,-1
784,1029,1009,-1
782,1028,1029,-1
782,1027,1028,-1
1027,1007,1028,-1
1028,1008,1033,-1
1029,1028,1033,-1
784,1009,761,-1
1030,1011,1010,-1
1032,1010,1012,-1
1031,1015,1011,-1
1034,1013,1014,-1
1035,1014,1015,-1
1030,1031,1011,-1
782,1029,784,-1
1029,1032,1012,-1
1030,1010,1032,-1
1031,1035,1015,-1
1033,1013,1034,-1
1034,1014,1035,-1
1029,1033,1032,-1
1030,1032,1031,-1
1031,1032,1033,-1
1031,1033,1035,-1
1033,1034,1035,-1
1036,1017,1016,-1
1037,1018,1017,-1
1040,1016,1020,-1
1038,1025,1018,-1
1044,1019,1024,-1
1039,1021,1019,-1
1041,1020,1021,-1
1036,1037,1017,-1
1036,1016,1040,-1
1037,1038,1018,-1
1036,1038,1037,-1
1036,1040,1038,-1
1038,1040,1039,-1
1039,1019,1044,-1
1038,1045,1025,-1
1038,1039,1044,-1
1038,1044,1045,-1
1039,1041,1021,-1
1040,1020,1041,-1
1039,1040,1041,-1
1044,1024,1057,-1
1042,1023,1022,-1
1045,1022,1025,-1
1043,1026,1023,-1
1046,1049,1026,-1
1042,1043,1023,-1
1042,1022,1045,-1
1043,1046,1026,-1
1042,1045,1043,-1
1043,1045,1046,-1
1045,1044,1046,-1
1044,1058,1046,-1
1057,1024,1048,-1
1058,1053,1049,-1
1059,1048,1050,-1
1063,1050,1054,-1
1057,1048,1059,-1
1046,1058,1049,-1
1044,1057,1059,-1
1044,1059,1058,-1
1059,1050,1063,-1
1058,1059,1063,-1
1060,1052,1051,-1
1062,1051,1053,-1
1061,1056,1052,-1
1064,1054,1055,-1
1065,1055,1056,-1
1060,1061,1052,-1
1058,1062,1053,-1
1060,1051,1062,-1
1058,1063,1062,-1
1060,1062,1061,-1
1061,1062,1063,-1
1061,1065,1056,-1
1063,1054,1064,-1
1064,1055,1065,-1
1061,1063,1065,-1
1063,1064,1065,-1
1076,1066,1067,-1
1075,1066,1076,-1
1075,972,1066,-1
1077,1071,1068,-1
1078,1070,1069,-1
1080,1069,1071,-1
1079,1074,1070,-1
1081,1067,1072,-1
1082,1072,1073,-1
1083,1073,1074,-1
1006,1077,1068,-1
1005,1075,1076,-1
1005,1076,1077,-1
1078,1079,1070,-1
1077,1080,1071,-1
1078,1069,1080,-1
1077,1081,1080,-1
1078,1080,1079,-1
1079,1080,1081,-1
1076,1067,1081,-1
1077,1076,1081,-1
1079,1083,1074,-1
1081,1072,1082,-1
1082,1073,1083,-1
1079,1081,1083,-1
1081,1082,1083,-1
1111,1085,1086,-1
1112,1094,1087,-1
1110,1088,1085,-1
1113,1089,1088,-1
1115,1087,1090,-1
1114,1137,1089,-1
1116,1090,1091,-1
1117,1086,1092,-1
1119,1093,1094,-1
1120,1092,1095,-1
1118,1096,1093,-1
1163,1091,1138,-1
1111,1086,1117,-1
1110,1085,1111,-1
1110,1111,1112,-1
1111,1119,1112,-1
1110,1113,1088,-1
1113,1114,1089,-1
1112,1087,1115,-1
1115,1090,1116,-1
1114,1162,1137,-1
1116,1091,1163,-1
1110,1115,1113,-1
1110,1112,1115,-1
1113,1115,1114,-1
1115,1116,1114,-1
1114,1116,1162,-1
1116,1163,1162,-1
1118,1093,1119,-1
1112,1119,1094,-1
1117,1092,1120,-1
1118,1121,1096,-1
1111,1117,1119,-1
1117,1118,1119,-1
1117,1120,1118,-1
1118,1120,1121,-1
1121,1097,1096,-1
1124,1095,1099,-1
1122,1098,1097,-1
1123,1100,1098,-1
1125,1101,1100,-1
1129,1099,1104,-1
1126,1102,1101,-1
1128,1150,1103,-1
1130,1104,1105,-1
1127,1105,1102,-1
1131,1107,1106,-1
1132,1108,1107,-1
1134,1103,1109,-1
1133,1154,1108,-1
1120,1095,1124,-1
1121,1122,1097,-1
1122,1123,1098,-1
1124,1099,1129,-1
1123,1125,1100,-1
1125,1126,1101,-1
1126,1127,1102,-1
1120,1122,1121,-1
1120,1124,1122,-1
1122,1124,1123,-1
1123,1124,1125,-1
1124,1129,1125,-1
1125,1129,1126,-1
1126,1130,1127,-1
1128,1103,1134,-1
1128,1134,1175,-1
1129,1104,1130,-1
1127,1130,1105,-1
1131,1132,1107,-1
1132,1133,1108,-1
1126,1129,1130,-1
1131,1133,1132,-1
1131,1207,1133,-1
1133,1179,1154,-1
1161,1135,1136,-1
1162,1140,1137,-1
1164,1138,1139,-1
1165,1141,1140,-1
1170,1139,1145,-1
1160,1135,1161,-1
1162,1165,1140,-1
1163,1138,1164,-1
1164,1139,1170,-1
1165,1166,1141,-1
1162,1163,1165,-1
1163,1164,1165,-1
1165,1164,1166,-1
1164,1170,1166,-1
1168,630,1143,-1
1167,1144,1142,-1
1169,1143,1144,-1
645,1168,647,-1
647,1168,1167,-1
1168,1143,1169,-1
1167,1168,1169,-1
1167,1169,1144,-1
1171,1145,1146,-1
1166,1149,1141,-1
1172,1146,1147,-1
1173,1147,1148,-1
1174,1151,1149,-1
1175,1148,1150,-1
1176,1109,1151,-1
1177,1153,1152,-1
1179,1152,1154,-1
1178,1231,1153,-1
1170,1145,1171,-1
1171,1146,1172,-1
1166,1174,1149,-1
1172,1147,1173,-1
1173,1148,1175,-1
1128,1175,1150,-1
1174,1176,1151,-1
1166,1170,1171,-1
1166,1171,1174,-1
1171,1172,1174,-1
1172,1173,1174,-1
1173,1176,1174,-1
1173,1175,1176,-1
1175,1134,1176,-1
1134,1109,1176,-1
1177,1178,1153,-1
1177,1152,1179,-1
1177,1179,1178,-1
1181,1155,1156,-1
1182,1156,1157,-1
1183,1159,1158,-1
1184,1235,1159,-1
1181,1180,1155,-1
1181,1183,1180,-1
1181,1156,1182,-1
1183,1184,1159,-1
1184,1257,1235,-1
1181,1182,1184,-1
1181,1184,1183,-1
1182,1257,1184,-1
1208,1106,1186,-1
1210,1185,1188,-1
1207,1187,1185,-1
1209,1186,1187,-1
1251,1189,1229,-1
1211,1190,1189,-1
1213,1188,1191,-1
1212,1192,1190,-1
1215,1191,1193,-1
1214,1194,1192,-1
1216,1195,1194,-1
1217,1196,1195,-1
1218,1197,1196,-1
1220,1193,1198,-1
1221,1198,1199,-1
1222,1199,1200,-1
1131,1106,1208,-1
1207,1185,1210,-1
1207,1209,1187,-1
1208,1186,1209,-1
1131,1208,1207,-1
1133,1207,1210,-1
1133,1210,1211,-1
1207,1208,1209,-1
1211,1189,1251,-1
1210,1188,1213,-1
1211,1212,1190,-1
1213,1191,1215,-1
1212,1214,1192,-1
1133,1211,1179,-1
1179,1211,1251,-1
1210,1212,1211,-1
1210,1213,1212,-1
1212,1213,1214,-1
1214,1216,1194,-1
1215,1193,1220,-1
1216,1217,1195,-1
1217,1218,1196,-1
1218,1219,1197,-1
1220,1198,1221,-1
1221,1199,1222,-1
1222,1200,1256,-1
1213,1215,1214,-1
1215,1216,1214,-1
1215,1220,1216,-1
1216,1220,1217,-1
1217,1220,1221,-1
1217,1221,1218,-1
1218,1222,1219,-1
1219,1222,1256,-1
1221,1222,1218,-1
1223,1202,1201,-1
1224,1203,1202,-1
1263,1241,1203,-1
1264,1204,1242,-1
1227,1201,1205,-1
1226,1206,1204,-1
1228,1205,1206,-1
1265,1320,1243,-1
1223,1224,1202,-1
1224,1225,1203,-1
1223,1201,1227,-1
1226,1204,1264,-1
1223,1225,1224,-1
1223,1227,1225,-1
1225,1226,1264,-1
1225,1263,1203,-1
1225,1264,1263,-1
1226,1228,1206,-1
1227,1205,1228,-1
1225,1227,1226,-1
1226,1227,1228,-1
1264,1242,1322,-1
1264,1323,1265,-1
1252,1229,1230,-1
1254,1230,1232,-1
1255,1232,1233,-1
1253,1234,1231,-1
1219,1233,1197,-1
1256,1200,1234,-1
1251,1229,1252,-1
1178,1253,1231,-1
1252,1230,1254,-1
1178,1179,1253,-1
1179,1251,1253,-1
1251,1252,1253,-1
1252,1254,1253,-1
1254,1232,1255,-1
1219,1255,1233,-1
1253,1256,1234,-1
1253,1254,1256,-1
1254,1255,1256,-1
1219,1256,1255,-1
1258,1157,1236,-1
1257,1237,1235,-1
1266,1236,1244,-1
1259,1238,1237,-1
1260,1245,1238,-1
1182,1157,1258,-1
1182,1258,1257,-1
1257,1258,1259,-1
1257,1259,1237,-1
1258,1236,1266,-1
1258,1260,1259,-1
1258,1266,1260,-1
1260,1266,1267,-1
1259,1260,1238,-1
1260,1267,1245,-1
1261,1240,1239,-1
1263,1239,1241,-1
1262,1243,1240,-1
1261,1262,1240,-1
1261,1239,1263,-1
1262,1265,1243,-1
1261,1263,1262,-1
1262,1263,1265,-1
1263,1264,1265,-1
1271,1244,1249,-1
1267,1246,1245,-1
1268,1247,1246,-1
1269,1248,1247,-1
1270,1250,1248,-1
1272,1249,1250,-1
1266,1244,1271,-1
1267,1268,1246,-1
1268,1269,1247,-1
1269,1270,1248,-1
1266,1268,1267,-1
1266,1271,1268,-1
1268,1271,1269,-1
1269,1271,1272,-1
1269,1272,1270,-1
1271,1249,1272,-1
1270,1272,1250,-1
1283,1142,1273,-1
1167,1142,1283,-1
647,1167,697,-1
697,1167,1283,-1
1284,1273,1274,-1
1285,1274,1275,-1
1283,1273,1284,-1
696,1285,1275,-1
696,1283,1285,-1
1284,1274,1285,-1
1283,1284,1285,-1
1180,1276,1155,-1
1286,1278,1276,-1
1288,1281,1278,-1
1287,1158,1277,-1
1289,1277,1279,-1
1290,1279,1280,-1
1180,1286,1276,-1
1180,1287,1286,-1
1286,1287,1288,-1
1180,1183,1287,-1
1286,1288,1278,-1
1288,1291,1281,-1
1287,1289,1288,-1
1288,1289,1291,-1
1183,1158,1287,-1
1287,1277,1289,-1
1289,1279,1290,-1
1289,1290,1291,-1
1291,1282,1281,-1
1304,1280,1293,-1
1291,1292,1282,-1
1290,1280,1304,-1
1291,1290,1292,-1
1290,1304,1292,-1
1292,1295,1282,-1
1305,1293,1294,-1
1307,1294,1296,-1
1306,1301,1295,-1
1308,1296,1297,-1
1304,1293,1305,-1
1292,1306,1295,-1
1292,1304,1306,-1
1304,1305,1306,-1
1305,1294,1307,-1
1307,1296,1308,-1
1306,1312,1301,-1
1305,1307,1306,-1
1307,1308,1312,-1
1307,1312,1306,-1
1309,1302,1298,-1
1310,1298,1299,-1
1309,1298,1310,-1
1309,1310,1313,-1
1310,1299,1314,-1
1311,1297,1300,-1
1312,1303,1301,-1
1313,1300,1302,-1
1314,1299,1303,-1
1308,1297,1311,-1
1311,1300,1313,-1
1309,1313,1302,-1
1312,1314,1303,-1
1308,1311,1312,-1
1311,1314,1312,-1
1311,1313,1314,-1
1313,1310,1314,-1
1316,1315,1318,-1
1318,1315,1317,-1
1322,1242,1319,-1
1323,1327,1320,-1
1324,1319,1321,-1
1352,1321,1328,-1
1264,1322,1324,-1
1265,1323,1320,-1
1323,1351,1327,-1
1264,1324,1323,-1
1323,1352,1351,-1
1322,1319,1324,-1
1324,1321,1352,-1
1323,1324,1352,-1
1349,1326,1325,-1
1351,1325,1327,-1
1350,1330,1326,-1
1353,1328,1329,-1
1354,1329,1330,-1
1349,1350,1326,-1
1349,1325,1351,-1
1349,1351,1350,-1
1350,1351,1352,-1
1350,1354,1330,-1
1352,1328,1353,-1
1353,1329,1354,-1
1350,1352,1354,-1
1352,1353,1354,-1
1356,1331,1332,-1
1357,1333,1331,-1
1357,1334,1333,-1
1358,1335,1334,-1
1359,1336,1335,-1
1360,1338,1336,-1
1361,1332,1337,-1
1362,1339,1338,-1
1363,1340,1339,-1
1364,1342,1340,-1
1355,1331,1356,-1
1355,1356,1360,-1
1355,1357,1331,-1
1359,1335,1358,-1
1357,1358,1334,-1
1359,1360,1336,-1
1360,1362,1338,-1
1355,1359,1357,-1
1355,1360,1359,-1
1359,1358,1357,-1
1356,1362,1360,-1
1356,1332,1361,-1
1361,1337,1365,-1
1356,1363,1362,-1
1356,1361,1363,-1
1363,1361,1364,-1
1361,1366,1364,-1
1362,1363,1339,-1
1363,1364,1340,-1
1364,1366,1342,-1
1365,1337,1341,-1
1366,1343,1342,-1
1367,1344,1343,-1
1370,1341,1346,-1
1368,1345,1344,-1
1371,1346,1347,-1
1372,1347,1348,-1
1365,1341,1370,-1
1361,1365,1366,-1
1366,1367,1343,-1
1367,1368,1344,-1
1368,1369,1345,-1
1366,1365,1367,-1
1365,1370,1367,-1
1367,1370,1368,-1
1370,1346,1371,-1
1371,1347,1372,-1
1372,1348,1451,-1
1368,1370,1371,-1
1368,1371,1369,-1
1369,1371,1372,-1
1316,1379,1315,-1
1318,1317,1380,-1
1316,1387,1379,-1
1316,1318,1387,-1
1318,1380,1388,-1
1381,1374,1373,-1
1382,1376,1374,-1
1385,1375,1377,-1
1384,1461,1376,-1
1383,1380,1375,-1
1386,1377,1378,-1
1381,1382,1374,-1
1382,1384,1376,-1
1381,1383,1382,-1
1382,1383,1384,-1
1381,1373,1387,-1
1383,1375,1385,-1
1385,1377,1386,-1
1383,1385,1384,-1
1381,1387,1383,-1
1385,1386,1384,-1
1384,1386,1489,-1
1387,1373,1379,-1
1318,1388,1387,-1
1386,1378,1499,-1
1383,1388,1380,-1
1383,1387,1388,-1
1425,1389,1390,-1
1426,1392,1391,-1
1428,1391,1393,-1
1427,1394,1392,-1
1429,1411,1394,-1
1424,1389,1425,-1
1425,1390,1431,-1
1424,1425,1431,-1
1426,1427,1392,-1
1426,1391,1428,-1
1427,1429,1394,-1
1428,1393,1440,-1
1429,1446,1411,-1
1426,1428,1427,-1
1428,1429,1427,-1
1428,1446,1429,-1
1428,1441,1446,-1
1424,1395,1389,-1
1430,1398,1395,-1
1431,1390,1396,-1
1432,1396,1397,-1
1433,1399,1398,-1
1435,1397,1400,-1
1436,1400,1401,-1
1434,1402,1399,-1
1437,1404,1402,-1
1438,1401,1403,-1
1455,1403,1420,-1
1424,1430,1395,-1
1430,1433,1398,-1
1431,1396,1432,-1
1432,1397,1435,-1
1433,1434,1399,-1
1424,1431,1430,-1
1431,1433,1430,-1
1431,1432,1433,-1
1432,1435,1434,-1
1432,1434,1433,-1
1435,1400,1436,-1
1436,1401,1438,-1
1434,1437,1402,-1
1437,1439,1404,-1
1438,1403,1455,-1
1435,1436,1437,-1
1434,1435,1437,-1
1436,1439,1437,-1
1436,1438,1439,-1
1438,1455,1439,-1
1440,1393,1405,-1
1442,1405,1407,-1
1441,1410,1406,-1
1369,1408,1345,-1
1443,1407,1408,-1
1444,1406,1409,-1
1446,1412,1411,-1
1447,1413,1412,-1
1448,1414,1413,-1
1452,1409,1417,-1
1449,1422,1414,-1
1450,1416,1415,-1
1445,1415,1410,-1
1451,1348,1416,-1
1453,1417,1418,-1
1454,1418,1419,-1
1440,1405,1442,-1
1441,1406,1444,-1
1442,1407,1443,-1
1369,1443,1408,-1
1441,1445,1410,-1
1444,1409,1452,-1
1428,1440,1441,-1
1440,1445,1441,-1
1441,1444,1446,-1
1442,1443,1450,-1
1440,1442,1445,-1
1442,1450,1445,-1
1446,1447,1412,-1
1447,1448,1413,-1
1448,1449,1414,-1
1449,1457,1422,-1
1446,1444,1447,-1
1447,1444,1452,-1
1447,1452,1448,-1
1448,1453,1449,-1
1449,1454,1457,-1
1445,1450,1415,-1
1450,1451,1416,-1
1369,1451,1443,-1
1369,1372,1451,-1
1443,1451,1450,-1
1452,1417,1453,-1
1453,1418,1454,-1
1458,1454,1419,-1
1448,1452,1453,-1
1453,1454,1449,-1
1456,1420,1421,-1
1439,1423,1404,-1
1457,1421,1422,-1
1458,1419,1423,-1
1455,1420,1456,-1
1456,1421,1457,-1
1439,1458,1423,-1
1439,1455,1458,-1
1455,1456,1458,-1
1456,1457,1458,-1
1457,1454,1458,-1
1488,1459,1460,-1
1487,1459,1488,-1
1488,1460,1491,-1
1487,1488,1491,-1
1384,1489,1461,-1
1487,1462,1459,-1
1490,1465,1462,-1
1491,1460,1463,-1
1492,1463,1464,-1
1494,1464,1466,-1
1495,1466,1467,-1
1496,1467,1468,-1
1493,1469,1465,-1
1487,1490,1462,-1
1487,1491,1490,-1
1491,1463,1492,-1
1492,1464,1494,-1
1490,1493,1465,-1
1494,1466,1495,-1
1495,1467,1496,-1
1493,1497,1469,-1
1490,1491,1492,-1
1490,1492,1493,-1
1492,1494,1493,-1
1494,1495,1493,-1
1495,1496,1497,-1
1495,1497,1493,-1
1489,1470,1461,-1
1499,1378,1471,-1
1498,1472,1470,-1
1502,1471,1474,-1
1500,1473,1472,-1
1501,1476,1473,-1
1503,1474,1475,-1
1507,1475,1479,-1
1504,1477,1476,-1
1505,1478,1477,-1
1508,1479,1480,-1
1509,1480,1481,-1
1514,1481,1486,-1
1489,1498,1470,-1
1499,1471,1502,-1
1498,1500,1472,-1
1500,1501,1473,-1
1386,1499,1489,-1
1489,1499,1498,-1
1498,1499,1502,-1
1498,1502,1500,-1
1501,1504,1476,-1
1502,1474,1503,-1
1503,1475,1507,-1
1500,1502,1503,-1
1500,1503,1501,-1
1501,1503,1507,-1
1504,1505,1477,-1
1505,1506,1478,-1
1507,1479,1508,-1
1508,1480,1509,-1
1509,1481,1514,-1
1501,1507,1504,-1
1504,1508,1505,-1
1505,1514,1506,-1
1504,1507,1508,-1
1505,1508,1509,-1
1505,1509,1514,-1
1510,1468,1482,-1
1497,1484,1469,-1
1511,1482,1483,-1
1506,1483,1478,-1
1512,1485,1484,-1
1513,1486,1485,-1
1496,1468,1510,-1
1510,1482,1511,-1
1511,1483,1506,-1
1497,1512,1484,-1
1496,1510,1497,-1
1497,1510,1512,-1
1510,1511,1512,-1
1512,1513,1485,-1
1513,1514,1486,-1
1511,1506,1513,-1
1511,1513,1512,-1
1506,1514,1513,-1
]

colorPerVertex FALSE

color Color { color [
 0 0 0,
 1 1 1,
 0.976471 0.843137 0.172549, # default colour
] }

colorIndex [
0 0 0 0 0 0 0 0 0 0 0 0 0 0 0 0 0 0 0 0 0 0 0 0 0 0 0 0 0 0 0 0 0 0 0 0 0 0 0 0 0 0 0 0 0 0 0 0 0 0 0 0 0 0 0 0 0 0 0 0 0 0 0 0 0 0 0 0 0 0 0 0 0 0 0 0 0 0 0 0 0 0 0 0 0 0 0 0 0 0 0 0 0 0 0 0 0 0 0 0 0 0 0 0 0 0 0 0 0 0 0 0 0 0 0 0 0 0 0 0 0 0 0 0 0 0 0 0 0 0 0 0 0 0 0 0 0 0 0 0 0 0 0 0 0 0 0 0 0 0 0 0 0 0 0 0 0 0 0 0 0 0 0 0 0 0 0 0 0 0 0 0 0 0 0 0 0 0 0 0 0 0 0 0 0 0 0 0 0 0 0 0 0 0 0 0 0 0 0 0 0 0 0 0 0 0 0 0 0 0 0 0 0 0 0 0 0 0 0 0 0 0 0 0 0 0 0 0 0 0 0 0 0 0 0 0 0 0 0 0 0 0 0 0 0 0 0 0 0 0 0 0 0 0 0 0 0 0 0 0 0 0 0 0 0 0 0 0 0 0 0 0 0 0 0 0 0 0 0 0 0 0 0 0 0 0 0 0 0 0 0 0 0 0 0 0 0 0 0 0 0 0 0 0 0 0 0 0 0 0 0 0 0 0 0 0 0 0 0 0 0 0 0 0 0 0 0 0 0 0 0 0 0 0 0 0 0 0 0 0 0 0 0 0 0 0 0 0 0 0 0 0 0 0 0 0 0 0 0 0 0 0 0 0 0 0 0 0 0 0 0 0 0 0 0 0 0 0 0 0 0 0 0 0 0 0 0 0 0 0 0 0 0 0 0 0 0 0 0 0 0 0 0 0 0 0 0 0 0 0 0 0 0 0 0 0 0 0 0 0 0 0 0 0 0 0 0 0 0 0 0 0 0 0 0 0 0 0 0 0 0 0 0 0 0 0 0 0 0 0 0 0 0 0 0 0 0 0 0 0 0 0 0 0 0 0 0 0 0 0 0 0 0 0 0 0 0 0 0 0 0 0 0 0 0 0 0 0 0 0 0 0 0 0 0 0 0 0 0 0 0 0 0 0 0 0 0 0 0 0 0 0 0 0 0 0 0 0 0 0 0 0 0 0 0 0 0 0 0 0 0 0 0 0 0 0 0 0 0 0 0 0 0 0 0 0 0 0 0 0 0 0 0 0 0 0 0 0 0 0 0 0 0 0 0 0 0 0 0 0 0 0 0 0 0 0 0 0 0 0 0 0 0 0 0 0 0 0 0 0 0 0 0 0 0 0 0 0 0 0 0 0 0 0 0 0 0 0 0 0 0 0 0 0 0 0 0 0 0 0 0 0 0 0 0 0 0 0 0 0 0 0 0 0 0 0 0 0 0 0 0 0 0 0 0 0 0 0 0 0 0 0 0 0 0 0 0 0 0 0 0 0 0 0 0 0 0 0 0 0 0 0 0 0 0 0 0 0 0 0 0 0 0 0 0 0 0 0 0 0 0 0 0 0 0 0 0 0 0 0 0 0 0 0 0 0 0 0 0 0 0 0 0 0 0 0 0 0 0 0 0 0 0 0 0 0 0 0 0 0 0 0 0 0 0 0 0 0 0 0 0 0 0 0 0 0 0 0 0 0 0 0 0 0 0 0 0 0 0 0 0 0 0 0 0 0 0 0 0 0 0 0 0 0 0 0 0 0 0 0 0 0 0 0 0 0 0 0 0 0 0 0 0 0 0 0 0 0 0 0 0 0 0 0 0 0 0 0 0 0 0 0 0 0 0 0 0 0 0 0 1 1 1 1 1 1 1 1 1 1 1 1 1 1 1 1 1 1 1 1 1 1 1 1 1 1 1 1 1 1 1 1 1 1 1 1 1 1 1 1 1 1 1 1 1 1 1 1 1 1 1 1 1 1 1 1 1 1 1 1 1 1 1 1 1 1 1 1 1 1 1 1 1 1 1 1 1 1 1 1 1 1 1 1 1 1 1 1 1 1 1 1 1 1 1 1 1 1 1 1 1 1 1 1 1 1 1 1 1 1 1 1 1 1 1 1 1 1 1 1 1 1 1 1 1 1 1 1 1 1 1 1 1 1 1 1 1 1 1 1 1 1 1 1 1 1 1 1 1 1 1 1 1 1 1 1 1 1 1 1 1 1 1 1 1 1 1 1 1 1 1 1 1 1 1 1 1 1 1 1 1 1 1 1 1 1 1 1 1 1 1 1 1 1 1 1 1 1 1 1 1 1 1 1 1 1 1 1 1 1 1 1 1 1 1 1 1 1 1 1 1 1 1 1 1 1 1 1 1 1 1 1 1 1 1 1 1 1 1 1 1 1 1 1 1 1 1 1 1 1 1 1 1 1 1 1 1 1 1 1 1 1 1 1 1 1 1 1 1 1 1 1 1 1 1 1 1 1 1 1 1 1 1 1 1 1 1 1 1 1 1 1 1 1 1 1 1 1 1 1 1 1 1 1 1 1 1 1 1 1 1 1 1 1 1 1 1 1 1 1 1 1 1 1 1 1 1 1 1 1 1 1 1 1 1 1 1 1 1 1 1 1 1 1 1 1 1 1 1 1 1 1 1 1 1 1 1 1 1 1 1 1 1 1 1 1 1 1 1 1 1 1 1 1 1 1 1 1 1 1 1 1 1 1 1 1 1 1 1 1 1 1 1 1 1 1 1 1 1 1 1 1 1 1 1 1 1 1 1 1 1 1 1 1 1 1 1 1 1 1 1 1 1 1 1 1 1 1 1 1 1 1 1 1 1 1 1 1 1 1 1 1 1 1 1 1 1 1 1 1 1 1 1 1 1 1 1 1 1 1 1 1 1 1 1 1 1 1 1 1 1 1 1 1 1 1 1 1 1 1 1 1 1 1 1 1 1 1 1 1 1 1 1 1 1 1 1 1 1 1 1 1 1 1 1 1 1 1 1 1 1 1 1 1 1 1 1 1 1 1 1 1 1 1 1 1 1 1 1 1 1 1 1 1 1 1 1 1 1 1 1 1 1 1 1 1 1 1 1 1 1 1 1 1 1 1 1 1 1 1 1 1 1 1 1 1 1 1 1 1 1 1 1 1 1 1 1 1 1 1 1 1 1 1 1 1 1 1 1 1 1 1 1 1 1 1 1 1 1 1 1 1 1 1 1 1 1 1 1 1 1 1 1 1 1 1 1 1 1 1 1 1 1 1 1 1 1 1 1 1 1 1 1 1 1 1 1 1 1 1 1 1 1 1 1 1 1 1 1 1 1 1 1 1 1 1 1 1 1 1 1 1 1 1 1 1 1 1 1 1 1 1 1 1 1 1 1 1 1 1 1 1 1 1 1 1 1 1 1 1 1 1 1 1 1 1 1 1 1 1 1 1 1 1 1 1 1 1 1 1 1 1 1 1 1 1 1 1 1 1 1 1 1 1 1 1 1 1 1 1 1 1 1 1 1 1 1 1 1 1 1 1 1 1 1 1 1 1 1 1 1 1 1 1 1 1 1 1 1 1 1 1 1 1 1 1 1 1 1 1 1 1 1 1 1 1 1 1 1 1 1 1 1 1 1 1 1 1 1 1 1 1 1 1 1 1 1 1 1 1 1 1 1 1 1 1 1 1 1 1 1 1 1 1 1 1 1 1 1 1 1 1 1 1 1 1 1 1 1 1 1 1 1 1 1 1 1 1 1 1 1 1 1 1 1 1 1 1 1 1 1 1 1 1 1 1 1 1 1 1 1 1 1 1 1 1 1 1 1 1 1 1 1 1 1 1 1 1 1 1 1 1 1 1 1 1 1 1 1 1 1 1 1 1 1 1 1 1 1 1 1 1 1 1 1 1 1 1 1 1 1 1 1 1 1 1 1 1 1 1 1 1 1 1 1 1 1 1 1 1 1 1 1 1 1 1 1 1 1 1 1 1 1 1 1 1 1 1 1 1 1 1 1 1 1 1 1 1 1 1 1 1 1 1 1 1 1 1 1 1 1 1 1 1 1 1 1 1 1 1 1 1 1 1 1 1 1 1 1 1 1 1 1 1 1 1 1 1 1 1 1 1 1 1 1 1 1 1 1 1 1 1 1 1 1 1 1 1 1 1 1 1 1 1 1 1 1 1 1 1 1 1 1 1 1 1 1 1 1 1 1 1 1 1 1 1 1 1 1 1 1 1 1 1 1 1 1 1 1 1 1 1 1 1 1 1 1 1 1 1 1 1 1 1 1 1 1 1 1 1 1 1 1 1 1 1 1 1 1 1 1 1 1 1 1 1 1 1 1 1 1 1 1 1 1 1 1 1 1 1 1 1 1 1 1 1 1 1 1 1 1 1 1 1 1 1 1 1 1 1 1 1 1 1 1 1 1 1 1 1 1 1 1 1 1 1 1 1 1 1 1 1 1 1 1 1 1 1 1 1 1 1 1 1 1 1 1 1 1 1 1 1 1 1 1 1 1 1 1 1 1 1 1 1 1 1 1 1 1 1 1 1 1 1 1 1 1 1 1 1 1 1 1 1 1 1 1 1 1 1 1 1 1 1 1 1 1 1 1 1 1 1 1 1 1 1 1 1 1 1 1 1 1 1 1 1 1 1 1 1 1 1 1 1 1 1 1 1 1 1 1 1 1 1 1 1 1 1 1 1 1 1 1 1 1 1 1 1 1 1 1 1 1 1 1 1 1 1 1 1 1 1 1 1 1 1 1 1 1 1 1 1 1 1 1 1 1 1 1 1 1 1 1 1 1 1 1 1 1 1 1 1 1 1 1 1 1 1 1 1 1 1 1 1 1 1 1 1 1 1 1 1 1 1 1 1 1 1 1 1 1 1 1 1 1 1 1 1 1 1 1 1 1 1 1 1 1 1 1 1 1 1 1 1 1 1 1 1 1 1 1 1 1 1 1 1 1 1 1 1 1 1 1 1 1 1 1 1 1 1 1 1 1 1 1 1 1 1 1 1 1 1 1 1 1 1 1 1 1 1 1 1 1 1 1 1 1 1 1 1 1 1 1 1 1 1 1 1 1 1 1 1 1 1 1 1 1 1 1 1 1 1 1 1 1 1 1 1 1 1 1 1 1 1 1 1 1 1 1 1 1 1 1 1 1 1 1 1 1 1 1 1 1 1 1 1 1 1 1 1 1 1 1 1 1 1 1 1 1 1 1 1 1 1 1 1 1 1 1 1 1 1 1 1 1 1 1 1 1 1 1 1 1 1 1 1 1 1 1 1 1 1 1 1 1 1 1 1 1 1 1 1 1 1 1 1 1 1 1 1 1 1 1 1 1 1 1 1 1 1 1 1 1 1 1 1 1 1 1 1 1 1 1 1 1 1 1 1 1 1 1 1 1 1 1 1 1 1 1 1 1 1 1 1 1 1 1 1 1 1 1 1 1 1 1 1 1 1 1 1 1 1 1 1 1 1 1 1 1 1 1 1 1 1 1 1 1 1 1 1 1 1 1 1 1 1 1 1 1 1 1 1 1 1 1 1 1 1 1 1 1 1 1 1 1 1 1 1 1 1 1 1 1 1 1 1 1 1 1 1 1 1 1 1 1 1 1 1 1 1 1 1 1 1 1 1 1 1 1 1 1 1 1 1 1 1 1 1 1 1 1 1 1 1 1 1 1 1 1 1 1 1 1 1 1 1 1 1 1 1 1 1 1 1 1 1 1 1 1 1 1 1 1 1 1 1 1 1 1 1 1 1 1 1 1 1 1 1 1 1 1 1 1 1 1 1 1 1 1 1 1 1 1 1 1 1 1 1 1 1 1 1 1 1 1 1 1 1 1 1 1 1 1 1 1 1 1 1 1 1 1 1 1 1 1 1 1 1 1 1 1 1 1 1 1 1 1 1 1 1 1 1 1 1 1 1 1 1 1 1 1 1 1 1 1 1 1 1 1 1 1 1 1 1 1 1 1 1 1 1 1 1 1 1 1 1 1 1 1 1 1 1 1 1 1 1 1 1 1 1 1 1 1 1 1 1 1 1 1 1 1 1 1 1 1 1 1 1 1 1 1 1 1 1 1 1 1 1 1 1 1 1 1 1 1 1 1 1 1 1 1 1 1 1 1 1 1 1 1 1 1 1 1 1 1 1 1 1 1 1 1 1 1 1 1 1 1 1 1 1 1 1 1 1 1 1 1 1 1 1 1 1 1 1 1 1 1 1 1 1 1 1 1 1 1 1 1 1 1 1 1 1 1 1 1 1 1 1 1 1 1 1 1 1 1 1 1 1 1 1 1 1 1 1 1 1 1 1 1 1 1 1 1 1 1 1 1 1 1 1 1 1 1 1 1 1 1 1 1 1 1 1 1 1 1 1 1 1 1 1 1 1 1 1 1 1 1 1 1 1 1 1 1 1 1 1 1 1 1 1 1 1 1 1 1 1 1 1 1 1 1 1 1 1 1 1 1 1 1 1 1 1 1 1 1 1 1 1 1 1 1 1 1 1 1 1 1 1 1 1 1 1 1 1 1 1 1 1 1 1 1 1 1 1 1 1 1 1 1 1 1 1 1 1 1 1 1 1 1 1 1 1 1 1 1 1 1 1 1 1 1 1 1 1 1 1 1 1 1 1 1 1 1 1 1 1 1 1 1 1 1 1 1 1 1 1 1 1 1 1 1 1 1 1 1 1 1 1 1 1 1 1 1 1 1 1 1 1 1 1 1 1 1 1 1 1 1 1 1 1 1 1 1 1 1 1 1 1 1 1 1 1 1 1 1 1 1 1 1 1 1 1 1 1 1 1 1 1 1 1 1 1 1 1 1 1 1 1 ]

}

}
