#VRML V2.0 utf8

Shape {

appearance Appearance { material Material {
ambientIntensity 0.3
diffuseColor 0.97647 0.843137 0.172549
specularColor 0.2 0.2 0.2
shininess 0.3
} }

geometry IndexedFaceSet {

creaseAngle 0.5

coord Coordinate { point [
0 0 0,
0 0 1.46,
3.72271 2.14286 1.46,
3.72271 2.18136 1.46,
3.72271 2.14286 1.66,
3.72271 2.18136 1.66,
3.42554 3.07868 1.46,
3.42554 3.11718 1.46,
3.53525 3.05978 1.46,
3.70672 3.05978 1.46,
3.42554 3.07868 1.66,
3.42554 3.11718 1.66,
3.53525 3.05978 1.66,
3.70672 3.05978 1.66,
3.87746 2.20098 1.46,
4.01769 2.20098 1.46,
4.17245 2.14286 1.46,
4.17245 2.18136 1.46,
3.87746 2.52212 1.46,
4.01769 2.52648 1.46,
3.98645 2.61003 1.46,
3.87746 2.20098 1.66,
4.01769 2.20098 1.66,
4.17245 2.14286 1.66,
4.17245 2.18136 1.66,
3.87746 2.52212 1.66,
4.01769 2.52648 1.66,
3.98645 2.61003 1.66,
3.8375 3.07868 1.46,
3.8375 3.11718 1.46,
4.12885 3.07868 1.46,
4.12885 3.11718 1.46,
4.25237 3.05978 1.46,
4.33883 3.05978 1.46,
4.44563 3.07868 1.46,
4.44563 3.11718 1.46,
4.5002 3.07868 1.46,
4.5002 3.11718 1.46,
4.6099 3.05978 1.46,
3.8375 3.07868 1.66,
3.8375 3.11718 1.66,
4.12885 3.07868 1.66,
4.12885 3.11718 1.66,
4.25237 3.05978 1.66,
4.33883 3.05978 1.66,
4.44563 3.07868 1.66,
4.44563 3.11718 1.66,
4.5002 3.07868 1.66,
4.5002 3.11718 1.66,
4.6099 3.05978 1.66,
4.79736 2.14286 1.46,
4.79736 2.18136 1.46,
4.95212 2.20098 1.46,
5.09234 2.20098 1.46,
4.95212 2.52212 1.46,
5.09234 2.52648 1.46,
5.0611 2.61003 1.46,
5.2471 2.14286 1.46,
5.2471 2.18136 1.46,
4.79736 2.14286 1.66,
4.79736 2.18136 1.66,
4.95212 2.20098 1.66,
5.09234 2.20098 1.66,
4.95212 2.52212 1.66,
5.09234 2.52648 1.66,
5.0611 2.61003 1.66,
5.2471 2.14286 1.66,
5.2471 2.18136 1.66,
4.78137 3.05978 1.46,
4.91215 3.07868 1.46,
4.91215 3.11718 1.46,
5.20351 3.07868 1.46,
5.20351 3.11718 1.46,
5.32702 3.05978 1.46,
5.41348 3.05978 1.46,
5.52028 3.07868 1.46,
5.55959 3.07868 1.46,
5.52028 3.11718 1.46,
5.55959 3.11718 1.46,
4.78137 3.05978 1.66,
4.91215 3.07868 1.66,
4.91215 3.11718 1.66,
5.20351 3.07868 1.66,
5.20351 3.11718 1.66,
5.32702 3.05978 1.66,
5.41348 3.05978 1.66,
5.52028 3.07868 1.66,
5.55959 3.07868 1.66,
5.52028 3.11718 1.66,
5.55959 3.11718 1.66,
5.96719 2.12034 1.46,
6.00571 2.12034 1.46,
6.02023 2.37318 1.46,
6.51792 2.12034 1.46,
6.55643 2.12034 1.46,
6.26509 2.79168 1.46,
5.96719 2.12034 1.66,
6.00571 2.12034 1.66,
6.02023 2.37318 1.66,
6.51792 2.12034 1.66,
6.55643 2.12034 1.66,
6.26509 2.79168 1.66,
5.6446 3.05978 1.46,
5.78846 3.05978 1.46,
5.93159 3.07868 1.46,
5.93159 3.11718 1.46,
6.28252 3.04888 1.46,
6.31522 3.04888 1.46,
5.6446 3.05978 1.66,
5.78846 3.05978 1.66,
5.93159 3.07868 1.66,
5.93159 3.11718 1.66,
6.28252 3.04888 1.66,
6.31522 3.04888 1.66,
6.56806 2.37318 1.46,
7.37172 2.12034 1.46,
7.41024 2.12034 1.46,
7.42477 2.37318 1.46,
6.56806 2.37318 1.66,
7.37172 2.12034 1.66,
7.41024 2.12034 1.66,
7.42477 2.37318 1.66,
6.63709 3.07868 1.46,
6.63709 3.11718 1.46,
6.78893 3.05978 1.46,
6.87467 3.05978 1.46,
6.95967 3.07868 1.46,
6.96413 3.07868 1.46,
6.95967 3.11718 1.46,
6.96413 3.11718 1.46,
7.04914 3.05978 1.46,
7.193 3.05978 1.46,
7.33613 3.07868 1.46,
7.33613 3.11718 1.46,
6.63709 3.07868 1.66,
6.63709 3.11718 1.66,
6.78893 3.05978 1.66,
6.87467 3.05978 1.66,
6.95967 3.07868 1.66,
6.96413 3.07868 1.66,
6.95967 3.11718 1.66,
6.96413 3.11718 1.66,
7.04914 3.05978 1.66,
7.193 3.05978 1.66,
7.33613 3.07868 1.66,
7.33613 3.11718 1.66,
4.66622 6.90447 1.46,
4.66622 6.90447 1.66,
4.79846 6.543 1.46,
4.95685 6.44628 1.46,
5.01797 6.49795 1.46,
5.16755 6.41404 1.46,
5.16901 6.46998 1.46,
5.24947 6.47498 1.46,
5.34538 6.42549 1.46,
5.32521 6.48996 1.46,
5.39097 6.51331 1.46,
5.44146 6.54336 1.46,
5.51121 6.45981 1.46,
4.79846 6.543 1.66,
4.95685 6.44628 1.66,
5.01797 6.49795 1.66,
5.16755 6.41404 1.66,
5.16901 6.46998 1.66,
5.24947 6.47498 1.66,
5.34538 6.42549 1.66,
5.32521 6.48996 1.66,
5.39097 6.51331 1.66,
5.44146 6.54336 1.66,
5.51121 6.45981 1.66,
4.69928 6.69785 1.46,
4.90781 6.58187 1.46,
4.84051 6.71883 1.46,
4.81808 6.90593 1.46,
4.69801 7.12525 1.46,
4.83951 7.10609 1.46,
4.90381 7.24595 1.46,
4.79337 7.28483 1.46,
4.95122 7.38155 1.46,
5.01479 7.32824 1.46,
5.46835 6.68868 1.46,
5.51557 6.68868 1.46,
5.17627 7.35567 1.46,
5.24539 7.3514 1.46,
5.17046 7.41379 1.46,
5.31323 7.33859 1.46,
5.37635 7.31798 1.46,
5.32794 7.40453 1.46,
5.45309 7.16385 1.46,
5.50105 7.16385 1.46,
5.4313 7.29028 1.46,
5.49669 7.37673 1.46,
4.69928 6.69785 1.66,
4.90781 6.58187 1.66,
4.84051 6.71883 1.66,
4.81808 6.90593 1.66,
4.69801 7.12525 1.66,
4.83951 7.10609 1.66,
4.90381 7.24595 1.66,
4.79337 7.28483 1.66,
4.95122 7.38155 1.66,
5.01479 7.32824 1.66,
5.46835 6.68868 1.66,
5.51557 6.68868 1.66,
5.17627 7.35567 1.66,
5.24539 7.3514 1.66,
5.17046 7.41379 1.66,
5.31323 7.33859 1.66,
5.37635 7.31798 1.66,
5.32794 7.40453 1.66,
5.45309 7.16385 1.66,
5.50105 7.16385 1.66,
5.4313 7.29028 1.66,
5.49669 7.37673 1.66,
5.81935 4.28571 1.46,
5.81935 4.32422 1.46,
5.92979 4.34384 1.46,
6.00898 4.34384 1.46,
6.13977 4.28571 1.46,
6.13977 4.32422 1.46,
6.10707 4.62501 1.46,
6.45655 4.28571 1.46,
6.45655 4.32422 1.46,
6.49069 4.62501 1.46,
5.81935 4.28571 1.66,
5.81935 4.32422 1.66,
5.92979 4.34384 1.66,
6.00898 4.34384 1.66,
6.13977 4.28571 1.66,
6.13977 4.32422 1.66,
6.10707 4.62501 1.66,
6.45655 4.28571 1.66,
6.45655 4.32422 1.66,
6.49069 4.62501 1.66,
6.12886 4.69041 1.46,
6.46817 4.69041 1.46,
6.26183 5.26803 1.46,
6.29597 5.16341 1.46,
6.39987 5.26803 1.46,
6.12886 4.69041 1.66,
6.46817 4.69041 1.66,
6.26183 5.26803 1.66,
6.29597 5.16341 1.66,
6.39987 5.26803 1.66,
6.58732 4.34384 1.46,
6.74499 4.34384 1.46,
6.86851 4.28571 1.46,
6.86851 4.32422 1.46,
6.93179 4.28571 1.46,
6.93179 4.32422 1.46,
7.04731 4.34384 1.46,
7.18754 4.34384 1.46,
7.33502 4.28571 1.46,
7.33502 4.32422 1.46,
6.58732 4.34384 1.66,
6.74499 4.34384 1.66,
6.86851 4.28571 1.66,
6.86851 4.32422 1.66,
6.93179 4.28571 1.66,
6.93179 4.32422 1.66,
7.04731 4.34384 1.66,
7.18754 4.34384 1.66,
7.33502 4.28571 1.66,
7.33502 4.32422 1.66,
6.92234 5.22153 1.46,
6.92234 5.26004 1.46,
7.18754 4.71294 1.46,
7.18754 4.77832 1.46,
7.31613 4.77832 1.46,
7.36263 4.71294 1.46,
7.42739 4.7904 1.46,
7.04731 5.20263 1.46,
7.18754 5.19464 1.46,
7.31177 5.19464 1.46,
7.34301 5.26004 1.46,
7.4272 5.18292 1.46,
6.92234 5.22153 1.66,
6.92234 5.26004 1.66,
7.18754 4.71294 1.66,
7.18754 4.77832 1.66,
7.31613 4.77832 1.66,
7.36263 4.71294 1.66,
7.42739 4.7904 1.66,
7.04731 5.20263 1.66,
7.18754 5.19464 1.66,
7.31177 5.19464 1.66,
7.34301 5.26004 1.66,
7.4272 5.18292 1.66,
5.65006 6.42857 1.46,
5.65006 6.46708 1.46,
5.76558 6.4867 1.46,
5.90581 6.4867 1.46,
6.06057 6.42857 1.46,
6.06057 6.46708 1.46,
6.46821 6.42857 1.46,
6.46821 6.46708 1.46,
5.65006 6.42857 1.66,
5.65006 6.46708 1.66,
5.76558 6.4867 1.66,
5.90581 6.4867 1.66,
6.06057 6.42857 1.66,
6.06057 6.46708 1.66,
6.46821 6.42857 1.66,
6.46821 6.46708 1.66,
5.90581 6.81074 1.46,
5.90581 6.87614 1.46,
6.01551 6.81074 1.46,
5.98137 6.87614 1.46,
6.08808 6.89012 1.46,
5.64061 7.36439 1.46,
5.64061 7.4029 1.46,
5.76558 7.34549 1.46,
5.90581 7.3375 1.46,
5.97701 7.3375 1.46,
6.09017 7.3246 1.46,
6.00825 7.4029 1.46,
6.1651 6.83018 1.46,
6.16264 6.93208 1.46,
6.20651 7.00565 1.46,
6.27526 6.88848 1.46,
6.34311 6.98421 1.46,
6.20714 7.21725 1.46,
6.22113 7.11445 1.46,
6.16518 7.28591 1.46,
6.27635 7.33115 1.46,
6.36572 7.1159 1.46,
6.46821 7.36439 1.46,
6.46821 7.4029 1.46,
5.90581 6.81074 1.66,
5.90581 6.87614 1.66,
6.01551 6.81074 1.66,
5.98137 6.87614 1.66,
6.08808 6.89012 1.66,
5.64061 7.36439 1.66,
5.64061 7.4029 1.66,
5.76558 7.34549 1.66,
5.90581 7.3375 1.66,
5.97701 7.3375 1.66,
6.09017 7.3246 1.66,
6.00825 7.4029 1.66,
6.1651 6.83018 1.66,
6.16264 6.93208 1.66,
6.20651 7.00565 1.66,
6.27526 6.88848 1.66,
6.34311 6.98421 1.66,
6.20714 7.21725 1.66,
6.22113 7.11445 1.66,
6.16518 7.28591 1.66,
6.27635 7.33115 1.66,
6.36572 7.1159 1.66,
6.46821 7.36439 1.66,
6.46821 7.4029 1.66,
6.59319 6.4867 1.46,
6.66947 6.4867 1.46,
6.80025 6.42857 1.46,
6.80025 6.46708 1.46,
7.27034 6.42857 1.46,
7.34082 6.42857 1.46,
6.59319 6.4867 1.66,
6.66947 6.4867 1.66,
6.80025 6.42857 1.66,
6.80025 6.46708 1.66,
7.27034 6.42857 1.66,
7.34082 6.42857 1.66,
6.59319 7.34549 1.46,
6.66947 7.30481 1.46,
6.7632 7.4029 1.46,
7.26452 6.68142 1.46,
7.13374 7.36439 1.46,
7.13374 7.4029 1.46,
7.26452 7.34549 1.46,
7.34082 7.34549 1.46,
7.46579 7.36439 1.46,
7.46579 7.4029 1.46,
6.59319 7.34549 1.66,
6.66947 7.30481 1.66,
6.7632 7.4029 1.66,
7.26452 6.68142 1.66,
7.13374 7.36439 1.66,
7.13374 7.4029 1.66,
7.26452 7.34549 1.66,
7.34082 7.34549 1.66,
7.46579 7.36439 1.66,
7.46579 7.4029 1.66,
0 15 0,
2.62807 10.7143 1.46,
2.62807 10.7836 1.46,
2.62807 10.7143 1.66,
2.62807 10.7836 1.66,
3.22574 10.7143 1.46,
2.85302 10.8189 1.46,
2.99033 10.8189 1.46,
3.22574 10.7836 1.46,
3.63247 10.7143 1.46,
3.67824 10.7143 1.46,
3.72925 11.1341 1.46,
3.22574 10.7143 1.66,
2.85302 10.8189 1.66,
2.99033 10.8189 1.66,
3.22574 10.7836 1.66,
3.63247 10.7143 1.66,
3.67824 10.7143 1.66,
3.72925 11.1341 1.66,
0.905243 13.1221 1.46,
0.905243 13.1221 1.66,
1.0389 12.8876 1.46,
1.14766 12.8004 1.46,
0.955364 12.9986 1.46,
1.27336 12.7481 1.46,
1.416 12.7307 1.46,
1.55864 12.7481 1.46,
1.68431 12.8004 1.46,
1.79304 12.8876 1.46,
1.0389 12.8876 1.66,
1.14766 12.8004 1.66,
0.955364 12.9986 1.66,
1.27336 12.7481 1.66,
1.416 12.7307 1.66,
1.55864 12.7481 1.66,
1.68431 12.8004 1.66,
1.79304 12.8876 1.66,
0.888536 13.2582 1.46,
0.905486 13.3987 1.46,
0.888536 13.2582 1.66,
0.905486 13.3987 1.66,
0 15 1.46,
0.956336 13.5236 1.46,
1.04109 13.6331 1.46,
1.15057 13.7179 1.46,
1.27554 13.7687 1.46,
1.416 13.7857 1.46,
1.55645 13.7687 1.46,
1.6814 13.7179 1.46,
1.79085 13.6331 1.46,
0.956336 13.5236 1.66,
1.04109 13.6331 1.66,
1.15057 13.7179 1.66,
1.27554 13.7687 1.66,
1.416 13.7857 1.66,
1.55645 13.7687 1.66,
1.6814 13.7179 1.66,
1.79085 13.6331 1.66,
1.87661 12.9986 1.46,
1.92675 13.1221 1.46,
2.62807 12.3988 1.46,
2.62807 12.4681 1.46,
1.87661 12.9986 1.66,
1.92675 13.1221 1.66,
2.62807 12.3988 1.66,
2.62807 12.4681 1.66,
2.85302 12.3647 1.46,
2.99033 12.2222 1.46,
3.15905 12.4681 1.46,
2.85302 12.3647 1.66,
2.99033 12.2222 1.66,
3.15905 12.4681 1.66,
1.94346 13.2582 1.46,
1.92651 13.3987 1.46,
1.87564 13.5236 1.46,
1.94346 13.2582 1.66,
1.92651 13.3987 1.66,
1.87564 13.5236 1.66,
4.66622 9.04732 1.46,
4.66622 9.04732 1.66,
4.79846 8.68586 1.46,
4.69928 8.84071 1.46,
4.90781 8.72473 1.46,
4.84051 8.86169 1.46,
4.95685 8.58914 1.46,
5.01797 8.64081 1.46,
4.81808 9.04878 1.46,
4.69801 9.26811 1.46,
4.83951 9.24895 1.46,
5.16755 8.5569 1.46,
5.16901 8.61284 1.46,
5.24947 8.61783 1.46,
5.32521 8.63282 1.46,
5.34538 8.56834 1.46,
5.39097 8.65616 1.46,
5.51121 8.60267 1.46,
5.44146 8.68622 1.46,
5.46835 8.83154 1.46,
5.51557 8.83154 1.46,
5.45309 9.30671 1.46,
5.50105 9.30671 1.46,
4.79846 8.68586 1.66,
4.69928 8.84071 1.66,
4.90781 8.72473 1.66,
4.84051 8.86169 1.66,
4.95685 8.58914 1.66,
5.01797 8.64081 1.66,
4.81808 9.04878 1.66,
4.69801 9.26811 1.66,
4.83951 9.24895 1.66,
5.16755 8.5569 1.66,
5.16901 8.61284 1.66,
5.24947 8.61783 1.66,
5.32521 8.63282 1.66,
5.34538 8.56834 1.66,
5.39097 8.65616 1.66,
5.51121 8.60267 1.66,
5.44146 8.68622 1.66,
5.46835 8.83154 1.66,
5.51557 8.83154 1.66,
5.45309 9.30671 1.66,
5.50105 9.30671 1.66,
4.14252 10.7143 1.46,
4.14252 10.7836 1.46,
4.37792 10.8189 1.46,
4.62902 10.8189 1.46,
4.14252 10.7143 1.66,
4.14252 10.7836 1.66,
4.37792 10.8189 1.66,
4.62902 10.8189 1.66,
4.79337 9.42768 1.46,
4.90381 9.38881 1.46,
5.01479 9.4711 1.46,
4.95122 9.52441 1.46,
5.17627 9.49853 1.46,
5.17046 9.55665 1.46,
5.24539 9.49426 1.46,
5.31323 9.48145 1.46,
5.37635 9.46083 1.46,
5.32794 9.54738 1.46,
5.4313 9.43314 1.46,
5.49669 9.51959 1.46,
4.79337 9.42768 1.66,
4.90381 9.38881 1.66,
5.01479 9.4711 1.66,
4.95122 9.52441 1.66,
5.17627 9.49853 1.66,
5.17046 9.55665 1.66,
5.24539 9.49426 1.66,
5.31323 9.48145 1.66,
5.37635 9.46083 1.66,
5.32794 9.54738 1.66,
5.4313 9.43314 1.66,
5.49669 9.51959 1.66,
4.85397 10.7143 1.46,
4.85397 10.7836 1.46,
4.85397 10.7143 1.66,
4.85397 10.7836 1.66,
5.65006 8.57143 1.46,
5.65006 8.60994 1.46,
5.76558 8.62955 1.46,
5.90581 8.62955 1.46,
6.06057 8.57143 1.46,
6.06057 8.60994 1.46,
5.90581 8.9536 1.46,
5.90581 9.019 1.46,
6.01551 8.9536 1.46,
5.98137 9.019 1.46,
6.08808 9.03298 1.46,
6.46821 8.57143 1.46,
6.46821 8.60994 1.46,
6.1651 8.97303 1.46,
6.16264 9.07494 1.46,
6.27526 9.03134 1.46,
6.20651 9.1485 1.46,
6.20714 9.36011 1.46,
6.22113 9.2573 1.46,
6.34311 9.12707 1.46,
6.36572 9.25876 1.46,
5.65006 8.57143 1.66,
5.65006 8.60994 1.66,
5.76558 8.62955 1.66,
5.90581 8.62955 1.66,
6.06057 8.57143 1.66,
6.06057 8.60994 1.66,
5.90581 8.9536 1.66,
5.90581 9.019 1.66,
6.01551 8.9536 1.66,
5.98137 9.019 1.66,
6.08808 9.03298 1.66,
6.46821 8.57143 1.66,
6.46821 8.60994 1.66,
6.1651 8.97303 1.66,
6.16264 9.07494 1.66,
6.27526 9.03134 1.66,
6.20651 9.1485 1.66,
6.20714 9.36011 1.66,
6.22113 9.2573 1.66,
6.34311 9.12707 1.66,
6.36572 9.25876 1.66,
6.59319 8.62955 1.46,
6.66947 8.62955 1.46,
6.80025 8.57143 1.46,
6.80025 8.60994 1.46,
7.26452 8.82428 1.46,
7.27034 8.57143 1.46,
7.34082 8.57143 1.46,
6.59319 8.62955 1.66,
6.66947 8.62955 1.66,
6.80025 8.57143 1.66,
6.80025 8.60994 1.66,
7.26452 8.82428 1.66,
7.27034 8.57143 1.66,
7.34082 8.57143 1.66,
5.64061 9.50725 1.46,
5.64061 9.54575 1.46,
5.76558 9.48835 1.46,
5.90581 9.48035 1.46,
5.97701 9.48035 1.46,
6.09017 9.46746 1.46,
6.00825 9.54575 1.46,
6.16518 9.42876 1.46,
6.27635 9.47401 1.46,
6.46821 9.50725 1.46,
6.46821 9.54575 1.46,
5.64061 9.50725 1.66,
5.64061 9.54575 1.66,
5.76558 9.48835 1.66,
5.90581 9.48035 1.66,
5.97701 9.48035 1.66,
6.09017 9.46746 1.66,
6.00825 9.54575 1.66,
6.16518 9.42876 1.66,
6.27635 9.47401 1.66,
6.46821 9.50725 1.66,
6.46821 9.54575 1.66,
5.69641 10.7143 1.46,
5.69641 10.7836 1.46,
5.90435 10.8189 1.46,
6.43532 10.7143 1.46,
6.15676 10.8189 1.46,
6.43532 10.7836 1.46,
5.69641 10.7143 1.66,
5.69641 10.7836 1.66,
5.90435 10.8189 1.66,
6.43532 10.7143 1.66,
6.15676 10.8189 1.66,
6.43532 10.7836 1.66,
6.59319 9.48835 1.46,
6.66947 9.44766 1.46,
6.7632 9.54575 1.46,
7.13374 9.50725 1.46,
7.13374 9.54575 1.46,
7.26452 9.48835 1.46,
7.34082 9.48835 1.46,
7.46579 9.50725 1.46,
7.46579 9.54575 1.46,
6.59319 9.48835 1.66,
6.66947 9.44766 1.66,
6.7632 9.54575 1.66,
7.13374 9.50725 1.66,
7.13374 9.54575 1.66,
7.26452 9.48835 1.66,
7.34082 9.48835 1.66,
7.46579 9.50725 1.66,
7.46579 9.54575 1.66,
7.1887 10.7143 1.46,
7.1887 10.7836 1.46,
7.41365 10.8189 1.46,
7.1887 10.7143 1.66,
7.1887 10.7836 1.66,
7.41365 10.8189 1.66,
4.37792 12.2222 1.46,
4.35177 12.4681 1.46,
4.62902 12.3647 1.46,
4.37792 12.2222 1.66,
4.35177 12.4681 1.66,
4.62902 12.3647 1.66,
4.85397 12.3988 1.46,
4.85397 12.4681 1.46,
4.85397 12.3988 1.66,
4.85397 12.4681 1.66,
6.15676 11.4022 1.46,
6.15676 11.5199 1.46,
6.29276 11.5199 1.46,
6.35423 11.4022 1.46,
6.48484 11.5451 1.46,
6.15676 11.4022 1.66,
6.15676 11.5199 1.66,
6.29276 11.5199 1.66,
6.35423 11.4022 1.66,
6.48484 11.5451 1.66,
5.6794 12.3988 1.46,
5.6794 12.4681 1.46,
5.90435 12.3647 1.46,
6.15676 12.3504 1.46,
6.28491 12.3504 1.46,
6.4886 12.3271 1.46,
6.34115 12.4681 1.46,
5.6794 12.3988 1.66,
5.6794 12.4681 1.66,
5.90435 12.3647 1.66,
6.15676 12.3504 1.66,
6.28491 12.3504 1.66,
6.4886 12.3271 1.66,
6.34115 12.4681 1.66,
6.62348 11.4372 1.46,
6.61906 11.6206 1.46,
6.82177 11.5421 1.46,
6.94389 11.7144 1.46,
6.69802 11.753 1.46,
6.72434 11.9489 1.46,
6.69916 12.1339 1.46,
6.9846 11.9515 1.46,
6.62348 11.4372 1.66,
6.61906 11.6206 1.66,
6.82177 11.5421 1.66,
6.94389 11.7144 1.66,
6.69802 11.753 1.66,
6.72434 11.9489 1.66,
6.69916 12.1339 1.66,
6.9846 11.9515 1.66,
6.62363 12.2575 1.46,
6.82374 12.3389 1.46,
7.1887 12.3988 1.46,
7.1887 12.4681 1.46,
7.41365 12.3647 1.46,
6.62363 12.2575 1.66,
6.82374 12.3389 1.66,
7.1887 12.3988 1.66,
7.1887 12.4681 1.66,
7.41365 12.3647 1.66,
15 0 0,
7.92246 2.12034 1.46,
7.96097 2.12034 1.46,
7.66962 2.79168 1.46,
8.41008 2.14286 1.46,
8.41008 2.18136 1.46,
7.97259 2.37318 1.46,
7.92246 2.12034 1.66,
7.96097 2.12034 1.66,
7.66962 2.79168 1.66,
8.41008 2.14286 1.66,
8.41008 2.18136 1.66,
7.97259 2.37318 1.66,
7.68706 3.04888 1.46,
7.71976 3.04888 1.46,
8.04162 3.07868 1.46,
8.04162 3.11718 1.46,
8.19347 3.05978 1.46,
8.2792 3.05978 1.46,
8.36421 3.07868 1.46,
8.36421 3.11718 1.46,
8.41008 3.07868 1.46,
8.41008 3.11718 1.46,
7.68706 3.04888 1.66,
7.71976 3.04888 1.66,
8.04162 3.07868 1.66,
8.04162 3.11718 1.66,
8.19347 3.05978 1.66,
8.2792 3.05978 1.66,
8.36421 3.07868 1.66,
8.36421 3.11718 1.66,
8.41008 3.07868 1.66,
8.41008 3.11718 1.66,
8.53505 2.20098 1.46,
8.61133 2.20098 1.46,
8.74211 2.14286 1.46,
8.74211 2.18136 1.46,
9.2122 2.14286 1.46,
9.28268 2.14286 1.46,
9.20638 2.3957 1.46,
8.53505 2.20098 1.66,
8.61133 2.20098 1.66,
8.74211 2.14286 1.66,
8.74211 2.18136 1.66,
9.2122 2.14286 1.66,
9.28268 2.14286 1.66,
9.20638 2.3957 1.66,
8.61133 3.01909 1.46,
8.53505 3.05978 1.46,
8.70506 3.11718 1.46,
9.07561 3.07868 1.46,
9.07561 3.11718 1.46,
9.20638 3.05978 1.46,
9.28268 3.05978 1.46,
8.61133 3.01909 1.66,
8.53505 3.05978 1.66,
8.70506 3.11718 1.66,
9.07561 3.07868 1.66,
9.07561 3.11718 1.66,
9.20638 3.05978 1.66,
9.28268 3.05978 1.66,
9.48473 2.14286 1.46,
9.48473 2.18136 1.46,
9.6097 2.20098 1.46,
9.68599 2.20098 1.46,
9.81677 2.14286 1.46,
9.81677 2.18136 1.46,
10.2869 2.14286 1.46,
10.281 2.3957 1.46,
9.48473 2.14286 1.66,
9.48473 2.18136 1.66,
9.6097 2.20098 1.66,
9.68599 2.20098 1.66,
9.81677 2.14286 1.66,
9.81677 2.18136 1.66,
10.2869 2.14286 1.66,
10.281 2.3957 1.66,
9.40765 3.07868 1.46,
9.40765 3.11718 1.46,
9.48473 3.07868 1.46,
9.48473 3.11718 1.46,
9.68599 3.01909 1.46,
9.6097 3.05978 1.46,
9.77972 3.11718 1.46,
10.1503 3.07868 1.46,
10.1503 3.11718 1.46,
10.281 3.05978 1.46,
9.40765 3.07868 1.66,
9.40765 3.11718 1.66,
9.48473 3.07868 1.66,
9.48473 3.11718 1.66,
9.68599 3.01909 1.66,
9.6097 3.05978 1.66,
9.77972 3.11718 1.66,
10.1503 3.07868 1.66,
10.1503 3.11718 1.66,
10.281 3.05978 1.66,
10.3573 2.14286 1.46,
10.5594 2.14286 1.46,
10.5594 2.18136 1.46,
10.6844 2.20098 1.46,
10.7606 2.20098 1.46,
10.8914 2.14286 1.46,
10.8914 2.18136 1.46,
10.3573 2.14286 1.66,
10.5594 2.14286 1.66,
10.5594 2.18136 1.66,
10.6844 2.20098 1.66,
10.7606 2.20098 1.66,
10.8914 2.14286 1.66,
10.8914 2.18136 1.66,
10.3573 3.05978 1.46,
10.4823 3.07868 1.46,
10.4823 3.11718 1.46,
10.7606 3.01909 1.46,
10.5594 3.07868 1.46,
10.5594 3.11718 1.46,
10.6844 3.05978 1.46,
10.8544 3.11718 1.46,
11.2249 3.07868 1.46,
11.2249 3.11718 1.46,
10.3573 3.05978 1.66,
10.4823 3.07868 1.66,
10.4823 3.11718 1.66,
10.7606 3.01909 1.66,
10.5594 3.07868 1.66,
10.5594 3.11718 1.66,
10.6844 3.05978 1.66,
10.8544 3.11718 1.66,
11.2249 3.07868 1.66,
11.2249 3.11718 1.66,
7.63655 4.28571 1.46,
7.76443 4.34384 1.46,
7.86977 4.28571 1.46,
7.86977 4.32422 1.46,
7.91489 4.28571 1.46,
7.91489 4.32422 1.46,
8.03986 4.34384 1.46,
8.11615 4.34384 1.46,
8.24692 4.28571 1.46,
8.24692 4.32422 1.46,
7.63655 4.28571 1.66,
7.76443 4.34384 1.66,
7.86977 4.28571 1.66,
7.86977 4.32422 1.66,
7.91489 4.28571 1.66,
7.91489 4.32422 1.66,
8.03986 4.34384 1.66,
8.11615 4.34384 1.66,
8.24692 4.28571 1.66,
8.24692 4.32422 1.66,
7.50069 4.73328 1.46,
7.58424 4.77169 1.46,
7.50104 4.82664 1.46,
7.54218 4.89158 1.46,
7.64745 4.83173 1.46,
7.68723 4.9092 1.46,
7.5559 4.98975 1.46,
7.54236 5.08484 1.46,
7.50177 5.14777 1.46,
7.70049 4.99993 1.46,
7.67869 5.11781 1.46,
7.50213 5.2446 1.46,
7.61329 5.19827 1.46,
7.91489 5.22153 1.46,
7.91489 5.26004 1.46,
8.11615 5.12344 1.46,
8.03986 5.20263 1.46,
8.20988 5.26004 1.46,
7.50069 4.73328 1.66,
7.58424 4.77169 1.66,
7.50104 4.82664 1.66,
7.54218 4.89158 1.66,
7.64745 4.83173 1.66,
7.68723 4.9092 1.66,
7.5559 4.98975 1.66,
7.54236 5.08484 1.66,
7.50177 5.14777 1.66,
7.70049 4.99993 1.66,
7.67869 5.11781 1.66,
7.50213 5.2446 1.66,
7.61329 5.19827 1.66,
7.91489 5.22153 1.66,
7.91489 5.26004 1.66,
8.11615 5.12344 1.66,
8.03986 5.20263 1.66,
8.20988 5.26004 1.66,
8.47289 4.28571 1.46,
8.49831 4.28571 1.46,
8.52665 4.51894 1.46,
8.75625 4.28571 1.46,
8.75625 4.32422 1.46,
8.88703 4.34384 1.46,
9.02653 4.34384 1.46,
9.1515 4.28571 1.46,
9.1515 4.32422 1.46,
8.47289 4.28571 1.66,
8.49831 4.28571 1.66,
8.52665 4.51894 1.66,
8.75625 4.28571 1.66,
8.75625 4.32422 1.66,
8.88703 4.34384 1.66,
9.02653 4.34384 1.66,
9.1515 4.28571 1.66,
9.1515 4.32422 1.66,
8.88703 5.12344 1.46,
8.8725 5.26004 1.46,
9.02653 5.20263 1.46,
9.1515 5.22153 1.46,
9.1515 5.26004 1.46,
8.88703 5.12344 1.66,
8.8725 5.26004 1.66,
9.02653 5.20263 1.66,
9.1515 5.22153 1.66,
9.1515 5.26004 1.66,
7.69326 6.543 1.46,
7.85166 6.44628 1.46,
7.91278 6.49795 1.46,
8.06236 6.41404 1.46,
8.06382 6.46998 1.46,
8.14428 6.47498 1.46,
8.24018 6.42549 1.46,
8.22002 6.48996 1.46,
8.28577 6.51331 1.46,
8.33627 6.54336 1.46,
8.40602 6.45981 1.46,
7.69326 6.543 1.66,
7.85166 6.44628 1.66,
7.91278 6.49795 1.66,
8.06236 6.41404 1.66,
8.06382 6.46998 1.66,
8.14428 6.47498 1.66,
8.24018 6.42549 1.66,
8.22002 6.48996 1.66,
8.28577 6.51331 1.66,
8.33627 6.54336 1.66,
8.40602 6.45981 1.66,
7.59409 6.69785 1.46,
7.56103 6.90447 1.46,
7.71288 6.90593 1.46,
7.80261 6.58187 1.46,
7.73532 6.71883 1.46,
7.59282 7.12525 1.46,
7.73432 7.10609 1.46,
7.68818 7.28483 1.46,
7.79862 7.24595 1.46,
7.84603 7.38155 1.46,
7.9096 7.32824 1.46,
8.36315 6.68868 1.46,
8.41038 6.68868 1.46,
8.07108 7.35567 1.46,
8.06526 7.41379 1.46,
8.14019 7.3514 1.46,
8.3479 7.16385 1.46,
8.39585 7.16385 1.46,
8.20803 7.33859 1.46,
8.27116 7.31798 1.46,
8.22275 7.40453 1.46,
8.3261 7.29028 1.46,
8.39149 7.37673 1.46,
7.59409 6.69785 1.66,
7.56103 6.90447 1.66,
7.71288 6.90593 1.66,
7.80261 6.58187 1.66,
7.73532 6.71883 1.66,
7.59282 7.12525 1.66,
7.73432 7.10609 1.66,
7.68818 7.28483 1.66,
7.79862 7.24595 1.66,
7.84603 7.38155 1.66,
7.9096 7.32824 1.66,
8.36315 6.68868 1.66,
8.41038 6.68868 1.66,
8.07108 7.35567 1.66,
8.06526 7.41379 1.66,
8.14019 7.3514 1.66,
8.3479 7.16385 1.66,
8.39585 7.16385 1.66,
8.20803 7.33859 1.66,
8.27116 7.31798 1.66,
8.22275 7.40453 1.66,
8.3261 7.29028 1.66,
8.39149 7.37673 1.66,
8.54487 6.42857 1.46,
8.54487 6.46708 1.46,
8.66039 6.4867 1.46,
8.80062 6.4867 1.46,
8.95538 6.42857 1.46,
8.95538 6.46708 1.46,
9.36302 6.42857 1.46,
9.36302 6.46708 1.46,
8.54487 6.42857 1.66,
8.54487 6.46708 1.66,
8.66039 6.4867 1.66,
8.80062 6.4867 1.66,
8.95538 6.42857 1.66,
8.95538 6.46708 1.66,
9.36302 6.42857 1.66,
9.36302 6.46708 1.66,
8.80062 6.81074 1.46,
8.80062 6.87614 1.46,
8.87618 6.87614 1.46,
8.53542 7.36439 1.46,
8.53542 7.4029 1.46,
8.66039 7.34549 1.46,
8.80062 7.3375 1.46,
8.87181 7.3375 1.46,
8.90306 7.4029 1.46,
8.91032 6.81074 1.46,
8.98289 6.89012 1.46,
9.05991 6.83018 1.46,
9.05745 6.93208 1.46,
9.10132 7.00565 1.46,
9.17007 6.88848 1.46,
9.23791 6.98421 1.46,
9.11594 7.11445 1.46,
9.10195 7.21725 1.46,
8.98498 7.3246 1.46,
9.05999 7.28591 1.46,
9.26053 7.1159 1.46,
9.17116 7.33115 1.46,
9.36302 7.36439 1.46,
9.36302 7.4029 1.46,
8.80062 6.81074 1.66,
8.80062 6.87614 1.66,
8.87618 6.87614 1.66,
8.53542 7.36439 1.66,
8.53542 7.4029 1.66,
8.66039 7.34549 1.66,
8.80062 7.3375 1.66,
8.87181 7.3375 1.66,
8.90306 7.4029 1.66,
8.91032 6.81074 1.66,
8.98289 6.89012 1.66,
9.05991 6.83018 1.66,
9.05745 6.93208 1.66,
9.10132 7.00565 1.66,
9.17007 6.88848 1.66,
9.23791 6.98421 1.66,
9.11594 7.11445 1.66,
9.10195 7.21725 1.66,
8.98498 7.3246 1.66,
9.05999 7.28591 1.66,
9.26053 7.1159 1.66,
9.17116 7.33115 1.66,
9.36302 7.36439 1.66,
9.36302 7.4029 1.66,
9.48799 6.4867 1.46,
9.56428 6.4867 1.46,
9.69506 6.42857 1.46,
9.69506 6.46708 1.46,
10.1651 6.42857 1.46,
10.2356 6.42857 1.46,
9.48799 6.4867 1.66,
9.56428 6.4867 1.66,
9.69506 6.42857 1.66,
9.69506 6.46708 1.66,
10.1651 6.42857 1.66,
10.2356 6.42857 1.66,
9.48799 7.34549 1.46,
9.56428 7.30481 1.46,
9.65801 7.4029 1.46,
10.1593 6.68142 1.46,
10.0285 7.36439 1.46,
10.0285 7.4029 1.46,
10.1593 7.34549 1.46,
10.2356 7.34549 1.46,
9.48799 7.34549 1.66,
9.56428 7.30481 1.66,
9.65801 7.4029 1.66,
10.1593 6.68142 1.66,
10.0285 7.36439 1.66,
10.0285 7.4029 1.66,
10.1593 7.34549 1.66,
10.2356 7.34549 1.66,
10.3606 7.36439 1.46,
10.3606 7.4029 1.46,
10.3606 7.36439 1.66,
10.3606 7.4029 1.66,
11.3615 2.14286 1.46,
11.432 2.14286 1.46,
11.3557 2.3957 1.46,
11.3615 2.14286 1.66,
11.432 2.14286 1.66,
11.3557 2.3957 1.66,
11.3557 3.05978 1.46,
11.432 3.05978 1.46,
11.557 3.07868 1.46,
11.557 3.11718 1.46,
11.3557 3.05978 1.66,
11.432 3.05978 1.66,
11.557 3.07868 1.66,
11.557 3.11718 1.66,
15 0 1.46,
15 15 0,
7.59409 8.84071 1.46,
7.69326 8.68586 1.46,
7.85166 8.58914 1.46,
7.91278 8.64081 1.46,
7.80261 8.72473 1.46,
7.73532 8.86169 1.46,
7.56103 9.04732 1.46,
7.71288 9.04878 1.46,
7.59282 9.26811 1.46,
7.73432 9.24895 1.46,
8.06236 8.5569 1.46,
8.06382 8.61284 1.46,
8.14428 8.61783 1.46,
8.24018 8.56834 1.46,
8.22002 8.63282 1.46,
8.28577 8.65616 1.46,
8.40602 8.60267 1.46,
8.33627 8.68622 1.46,
8.36315 8.83154 1.46,
8.41038 8.83154 1.46,
8.3479 9.30671 1.46,
8.39585 9.30671 1.46,
7.59409 8.84071 1.66,
7.69326 8.68586 1.66,
7.85166 8.58914 1.66,
7.91278 8.64081 1.66,
7.80261 8.72473 1.66,
7.73532 8.86169 1.66,
7.56103 9.04732 1.66,
7.71288 9.04878 1.66,
7.59282 9.26811 1.66,
7.73432 9.24895 1.66,
8.06236 8.5569 1.66,
8.06382 8.61284 1.66,
8.14428 8.61783 1.66,
8.24018 8.56834 1.66,
8.22002 8.63282 1.66,
8.28577 8.65616 1.66,
8.40602 8.60267 1.66,
8.33627 8.68622 1.66,
8.36315 8.83154 1.66,
8.41038 8.83154 1.66,
8.3479 9.30671 1.66,
8.39585 9.30671 1.66,
8.54487 8.57143 1.46,
8.54487 8.60994 1.46,
8.66039 8.62955 1.46,
8.80062 8.62955 1.46,
8.80062 8.9536 1.46,
8.80062 9.019 1.46,
8.87618 9.019 1.46,
8.95538 8.57143 1.46,
8.95538 8.60994 1.46,
9.36302 8.57143 1.46,
9.36302 8.60994 1.46,
8.91032 8.9536 1.46,
8.98289 9.03298 1.46,
9.05991 8.97303 1.46,
9.05745 9.07494 1.46,
9.10132 9.1485 1.46,
9.11594 9.2573 1.46,
9.10195 9.36011 1.46,
9.17007 9.03134 1.46,
9.23791 9.12707 1.46,
9.26053 9.25876 1.46,
8.54487 8.57143 1.66,
8.54487 8.60994 1.66,
8.66039 8.62955 1.66,
8.80062 8.62955 1.66,
8.80062 8.9536 1.66,
8.80062 9.019 1.66,
8.87618 9.019 1.66,
8.95538 8.57143 1.66,
8.95538 8.60994 1.66,
9.36302 8.57143 1.66,
9.36302 8.60994 1.66,
8.91032 8.9536 1.66,
8.98289 9.03298 1.66,
9.05991 8.97303 1.66,
9.05745 9.07494 1.66,
9.10132 9.1485 1.66,
9.11594 9.2573 1.66,
9.10195 9.36011 1.66,
9.17007 9.03134 1.66,
9.23791 9.12707 1.66,
9.26053 9.25876 1.66,
7.68818 9.42768 1.46,
7.79862 9.38881 1.46,
7.84603 9.52441 1.46,
7.9096 9.4711 1.46,
8.07108 9.49853 1.46,
8.06526 9.55665 1.46,
8.14019 9.49426 1.46,
8.20803 9.48145 1.46,
8.27116 9.46083 1.46,
8.22275 9.54738 1.46,
8.3261 9.43314 1.46,
8.39149 9.51959 1.46,
7.68818 9.42768 1.66,
7.79862 9.38881 1.66,
7.84603 9.52441 1.66,
7.9096 9.4711 1.66,
8.07108 9.49853 1.66,
8.06526 9.55665 1.66,
8.14019 9.49426 1.66,
8.20803 9.48145 1.66,
8.27116 9.46083 1.66,
8.22275 9.54738 1.66,
8.3261 9.43314 1.66,
8.39149 9.51959 1.66,
7.8897 10.7143 1.46,
7.66475 10.8189 1.46,
7.8897 10.7836 1.46,
8.15326 11.199 1.46,
8.33178 10.9203 1.46,
8.40747 11.2368 1.46,
7.8897 10.7143 1.66,
7.66475 10.8189 1.66,
7.8897 10.7836 1.66,
8.15326 11.199 1.66,
8.33178 10.9203 1.66,
8.40747 11.2368 1.66,
8.53542 9.50725 1.46,
8.53542 9.54575 1.46,
8.66039 9.48835 1.46,
8.80062 9.48035 1.46,
8.87181 9.48035 1.46,
8.90306 9.54575 1.46,
8.98498 9.46746 1.46,
9.05999 9.42876 1.46,
9.17116 9.47401 1.46,
9.36302 9.50725 1.46,
9.36302 9.54575 1.46,
8.53542 9.50725 1.66,
8.53542 9.54575 1.66,
8.66039 9.48835 1.66,
8.80062 9.48035 1.66,
8.87181 9.48035 1.66,
8.90306 9.54575 1.66,
8.98498 9.46746 1.66,
9.05999 9.42876 1.66,
9.17116 9.47401 1.66,
9.36302 9.50725 1.66,
9.36302 9.54575 1.66,
8.61689 10.7462 1.46,
8.52861 10.9902 1.46,
8.72691 10.8392 1.46,
8.99616 10.6881 1.46,
9.31624 10.7087 1.46,
8.99878 10.7888 1.46,
9.14361 10.7978 1.46,
9.27995 10.8248 1.46,
8.61689 10.7462 1.66,
8.52861 10.9902 1.66,
8.72691 10.8392 1.66,
8.99616 10.6881 1.66,
9.31624 10.7087 1.66,
8.99878 10.7888 1.66,
9.14361 10.7978 1.66,
9.27995 10.8248 1.66,
9.48799 8.62955 1.46,
9.56428 8.62955 1.46,
9.69506 8.57143 1.46,
9.69506 8.60994 1.46,
10.1651 8.57143 1.46,
10.2356 8.57143 1.46,
10.1593 8.82428 1.46,
9.48799 8.62955 1.66,
9.56428 8.62955 1.66,
9.69506 8.57143 1.66,
9.69506 8.60994 1.66,
10.1651 8.57143 1.66,
10.2356 8.57143 1.66,
10.1593 8.82428 1.66,
9.48799 9.48835 1.46,
9.56428 9.44766 1.46,
9.65801 9.54575 1.46,
10.0285 9.50725 1.46,
10.0285 9.54575 1.46,
10.1593 9.48835 1.46,
10.2356 9.48835 1.46,
9.48799 9.48835 1.66,
9.56428 9.44766 1.66,
9.65801 9.54575 1.66,
10.0285 9.50725 1.66,
10.0285 9.54575 1.66,
10.1593 9.48835 1.66,
10.2356 9.48835 1.66,
9.61475 10.7705 1.46,
9.3983 10.8668 1.46,
9.4892 10.9209 1.46,
9.53758 11.1825 1.46,
9.6226 11.1825 1.46,
9.91306 10.7444 1.46,
10.1419 10.7022 1.46,
10.0438 10.8673 1.46,
9.89867 11.1132 1.46,
9.98497 11.1132 1.46,
10.1055 10.8405 1.46,
10.1883 10.8176 1.46,
10.2787 10.8019 1.46,
9.61475 10.7705 1.66,
9.3983 10.8668 1.66,
9.4892 10.9209 1.66,
9.53758 11.1825 1.66,
9.6226 11.1825 1.66,
9.91306 10.7444 1.66,
10.1419 10.7022 1.66,
10.0438 10.8673 1.66,
9.89867 11.1132 1.66,
9.98497 11.1132 1.66,
10.1055 10.8405 1.66,
10.1883 10.8176 1.66,
10.2787 10.8019 1.66,
10.3606 9.50725 1.46,
10.3606 9.54575 1.46,
10.3606 9.50725 1.66,
10.3606 9.54575 1.66,
10.3839 10.6881 1.46,
10.6471 10.7215 1.46,
10.3629 10.7967 1.46,
10.5415 10.8202 1.46,
10.6664 10.8908 1.46,
10.7399 11.0164 1.46,
10.7644 11.2047 1.46,
11.2275 10.7143 1.46,
10.8429 10.8215 1.46,
10.9645 10.9808 1.46,
11.0051 11.1916 1.46,
11.2275 10.9065 1.46,
10.3839 10.6881 1.66,
10.6471 10.7215 1.66,
10.3629 10.7967 1.66,
10.5415 10.8202 1.66,
10.6664 10.8908 1.66,
10.7399 11.0164 1.66,
10.7644 11.2047 1.66,
11.2275 10.7143 1.66,
10.8429 10.8215 1.66,
10.9645 10.9808 1.66,
11.0051 11.1916 1.66,
11.2275 10.9065 1.66,
8.09376 11.5709 1.46,
8.3671 11.5735 1.46,
8.15097 11.9683 1.46,
8.40568 11.9338 1.46,
8.09376 11.5709 1.66,
8.3671 11.5735 1.66,
8.15097 11.9683 1.66,
8.40568 11.9338 1.66,
7.66475 12.3647 1.46,
7.8897 12.3988 1.46,
7.8897 12.4681 1.46,
8.32262 12.2555 1.46,
7.66475 12.3647 1.66,
7.8897 12.3988 1.66,
7.8897 12.4681 1.66,
8.32262 12.2555 1.66,
8.52142 12.1856 1.46,
8.52142 12.1856 1.66,
8.60675 12.4296 1.46,
8.72119 12.3337 1.46,
9.01186 12.3831 1.46,
9.13626 12.3754 1.46,
9.00138 12.4877 1.46,
9.25837 12.3523 1.46,
9.37199 12.3152 1.46,
9.28485 12.471 1.46,
8.60675 12.4296 1.66,
8.72119 12.3337 1.66,
9.01186 12.3831 1.66,
9.13626 12.3754 1.66,
9.00138 12.4877 1.66,
9.25837 12.3523 1.66,
9.37199 12.3152 1.66,
9.28485 12.471 1.66,
9.51012 12.0378 1.46,
9.59644 12.0378 1.46,
10.2073 11.5761 1.46,
10.2073 11.6834 1.46,
9.95228 12.094 1.46,
10.0386 12.094 1.46,
9.51012 12.0378 1.66,
9.59644 12.0378 1.66,
10.2073 11.5761 1.66,
10.2073 11.6834 1.66,
9.95228 12.094 1.66,
10.0386 12.094 1.66,
9.47089 12.2654 1.46,
9.58859 12.421 1.46,
9.95228 12.4314 1.46,
10.0729 12.4597 1.46,
10.0844 12.3085 1.46,
10.1465 12.3368 1.46,
10.2178 12.3589 1.46,
10.292 12.3731 1.46,
10.1759 12.4766 1.46,
10.2697 12.4849 1.46,
9.47089 12.2654 1.66,
9.58859 12.421 1.66,
9.95228 12.4314 1.66,
10.0729 12.4597 1.66,
10.0844 12.3085 1.66,
10.1465 12.3368 1.66,
10.2178 12.3589 1.66,
10.292 12.3731 1.66,
10.1759 12.4766 1.66,
10.2697 12.4849 1.66,
10.3943 11.5657 1.46,
10.3943 11.6951 1.46,
10.5421 11.6324 1.46,
10.7419 11.3566 1.46,
10.6742 11.4669 1.46,
10.5591 11.5364 1.46,
10.7487 11.5845 1.46,
10.7044 11.679 1.46,
10.5228 11.7219 1.46,
10.6127 11.7867 1.46,
10.6657 11.892 1.46,
10.6833 12.0404 1.46,
10.977 11.3651 1.46,
10.8926 11.4957 1.46,
10.8252 11.7664 1.46,
10.9003 11.8928 1.46,
10.9253 12.0561 1.46,
10.3943 11.5657 1.66,
10.3943 11.6951 1.66,
10.5421 11.6324 1.66,
10.7419 11.3566 1.66,
10.6742 11.4669 1.66,
10.5591 11.5364 1.66,
10.7487 11.5845 1.66,
10.7044 11.679 1.66,
10.5228 11.7219 1.66,
10.6127 11.7867 1.66,
10.6657 11.892 1.66,
10.6833 12.0404 1.66,
10.977 11.3651 1.66,
10.8926 11.4957 1.66,
10.8252 11.7664 1.66,
10.9003 11.8928 1.66,
10.9253 12.0561 1.66,
10.3629 12.3778 1.46,
10.5076 12.3577 1.46,
10.3629 12.4877 1.46,
10.6068 12.2974 1.46,
10.6642 12.1929 1.46,
10.7847 12.3798 1.46,
10.3629 12.3778 1.66,
10.5076 12.3577 1.66,
10.3629 12.4877 1.66,
10.6068 12.2974 1.66,
10.6642 12.1929 1.66,
10.7847 12.3798 1.66,
11.3988 10.9157 1.46,
11.4707 11.1276 1.46,
11.526 11.0298 1.46,
11.646 11.1341 1.46,
11.3988 10.9157 1.66,
11.4707 11.1276 1.66,
11.526 11.0298 1.66,
11.646 11.1341 1.66,
12.3012 10.7143 1.46,
12.3012 10.9157 1.46,
12.3012 10.7143 1.66,
12.3012 10.9157 1.66,
11.6738 11.3133 1.46,
11.2864 12.094 1.46,
11.3727 12.094 1.46,
11.8147 11.4597 1.46,
11.8794 11.3399 1.46,
11.909 11.5886 1.46,
12.0357 11.4944 1.46,
12.1382 11.6235 1.46,
11.9723 11.7213 1.46,
12.0081 11.8658 1.46,
12.02 12.0299 1.46,
12.0008 12.1797 1.46,
11.6738 11.3133 1.66,
11.2864 12.094 1.66,
11.3727 12.094 1.66,
11.8147 11.4597 1.66,
11.8794 11.3399 1.66,
11.909 11.5886 1.66,
12.0357 11.4944 1.66,
12.1382 11.6235 1.66,
11.9723 11.7213 1.66,
12.0081 11.8658 1.66,
12.02 12.0299 1.66,
12.0008 12.1797 1.66,
11.4184 12.3085 1.46,
11.4789 12.3368 1.46,
11.2864 12.4314 1.46,
11.5479 12.3589 1.46,
11.6202 12.3731 1.46,
11.6905 12.3778 1.46,
11.5064 12.4736 1.46,
11.6905 12.4877 1.46,
11.9429 12.2889 1.46,
11.8412 12.3556 1.46,
11.9424 12.4578 1.46,
12.1227 12.368 1.46,
11.4184 12.3085 1.66,
11.4789 12.3368 1.66,
11.2864 12.4314 1.66,
11.5479 12.3589 1.66,
11.6202 12.3731 1.66,
11.6905 12.3778 1.66,
11.5064 12.4736 1.66,
11.6905 12.4877 1.66,
11.9429 12.2889 1.66,
11.8412 12.3556 1.66,
11.9424 12.4578 1.66,
12.1227 12.368 1.66,
12.2103 11.7533 1.46,
12.253 11.8876 1.46,
12.2672 12.0299 1.46,
12.2103 11.7533 1.66,
12.253 11.8876 1.66,
12.2672 12.0299 1.66,
12.2311 12.2237 1.46,
12.2311 12.2237 1.66,
15 15 1.46
] }

coordIndex [
1,2,3,-1
1,3,6,-1
1,16,2,-1
1,50,16,-1
1,57,50,-1
1,90,57,-1
1,6,7,-1
8,6,3,-1
8,3,18,-1
0,1,425,-1
1,385,386,-1
1,7,385,-1
7,146,385,-1
0,1109,1,-1
1,91,90,-1
1,93,91,-1
1,94,93,-1
1,115,94,-1
1,116,115,-1
1,717,116,-1
1,718,717,-1
1,720,718,-1
14,18,3,-1
15,38,19,-1
16,54,17,-1
51,16,50,-1
52,16,51,-1
15,17,38,-1
38,17,54,-1
20,28,9,-1
28,31,29,-1
20,32,28,-1
31,28,30,-1
32,30,28,-1
19,38,33,-1
33,38,34,-1
34,37,35,-1
37,34,36,-1
38,36,34,-1
52,54,16,-1
57,90,58,-1
53,58,102,-1
53,102,55,-1
102,58,90,-1
56,69,68,-1
56,73,69,-1
69,72,70,-1
72,69,71,-1
73,71,69,-1
35,37,215,-1
70,215,37,-1
55,75,74,-1
55,76,75,-1
55,102,76,-1
75,78,77,-1
78,75,76,-1
70,72,214,-1
77,214,72,-1
1,751,720,-1
1,753,751,-1
1,754,753,-1
1,777,754,-1
95,91,93,-1
103,92,104,-1
92,106,104,-1
104,106,105,-1
77,78,214,-1
105,214,78,-1
114,122,107,-1
107,122,123,-1
105,106,218,-1
107,218,106,-1
107,123,221,-1
94,115,130,-1
125,94,126,-1
94,127,126,-1
127,94,130,-1
114,124,122,-1
126,129,128,-1
129,126,127,-1
128,221,123,-1
128,129,248,-1
131,117,132,-1
117,729,132,-1
132,729,133,-1
133,248,129,-1
29,148,7,-1
29,31,149,-1
35,149,31,-1
170,7,148,-1
146,7,170,-1
148,29,149,-1
35,215,151,-1
70,214,215,-1
35,151,149,-1
236,154,151,-1
289,158,288,-1
150,188,171,-1
172,188,173,-1
171,188,172,-1
173,188,175,-1
175,188,176,-1
176,188,179,-1
152,188,150,-1
153,189,152,-1
155,189,153,-1
152,189,188,-1
156,189,155,-1
157,189,156,-1
157,180,189,-1
181,309,180,-1
158,311,181,-1
179,188,182,-1
182,188,183,-1
183,188,185,-1
185,190,186,-1
190,185,188,-1
180,309,189,-1
189,309,191,-1
310,191,309,-1
214,105,218,-1
216,236,215,-1
107,221,218,-1
217,219,222,-1
217,222,220,-1
218,222,219,-1
222,218,221,-1
220,222,244,-1
220,244,223,-1
236,151,215,-1
234,235,237,-1
128,246,221,-1
128,248,246,-1
249,246,248,-1
246,249,247,-1
247,271,245,-1
271,247,249,-1
250,271,249,-1
248,133,252,-1
133,847,252,-1
251,253,266,-1
252,847,253,-1
269,253,847,-1
266,253,269,-1
238,245,264,-1
245,271,264,-1
238,264,265,-1
273,272,267,-1
275,267,268,-1
268,270,874,-1
270,869,870,-1
275,273,267,-1
268,875,275,-1
268,874,875,-1
154,236,158,-1
158,236,288,-1
288,236,292,-1
290,158,289,-1
238,292,236,-1
238,294,292,-1
238,354,294,-1
292,295,293,-1
295,292,294,-1
290,311,158,-1
291,293,304,-1
304,293,306,-1
306,293,316,-1
307,308,305,-1
308,317,305,-1
317,318,305,-1
311,309,181,-1
313,312,305,-1
321,323,305,-1
314,313,305,-1
323,314,305,-1
293,295,316,-1
316,295,319,-1
318,322,305,-1
319,352,320,-1
352,319,295,-1
320,352,325,-1
352,364,325,-1
322,321,305,-1
325,326,324,-1
327,324,326,-1
326,325,364,-1
238,265,354,-1
274,354,265,-1
354,356,355,-1
274,356,354,-1
878,357,274,-1
356,274,357,-1
355,365,353,-1
365,355,356,-1
369,366,368,-1
954,357,953,-1
357,954,958,-1
357,958,371,-1
367,368,366,-1
367,370,368,-1
371,958,372,-1
0,425,384,-1
0,384,1110,-1
384,425,1110,-1
1,405,407,-1
1,407,403,-1
1,403,421,-1
1,408,406,-1
1,406,405,-1
1,386,408,-1
1,421,425,-1
385,462,389,-1
389,393,392,-1
451,392,393,-1
408,386,409,-1
409,386,410,-1
425,421,422,-1
425,422,426,-1
425,426,427,-1
425,427,428,-1
425,428,429,-1
425,429,430,-1
425,430,431,-1
410,390,411,-1
390,412,411,-1
390,410,386,-1
390,444,442,-1
390,450,444,-1
390,442,412,-1
442,445,443,-1
443,445,456,-1
456,452,457,-1
442,444,445,-1
452,456,445,-1
392,451,391,-1
395,657,452,-1
457,452,657,-1
663,433,657,-1
458,657,433,-1
457,657,458,-1
174,385,146,-1
177,385,174,-1
177,465,385,-1
178,464,177,-1
184,468,178,-1
187,468,184,-1
177,464,465,-1
178,468,464,-1
191,468,187,-1
191,310,468,-1
310,473,468,-1
310,477,473,-1
310,479,477,-1
310,542,479,-1
469,483,466,-1
467,483,470,-1
466,483,467,-1
470,483,472,-1
472,483,515,-1
474,483,469,-1
475,483,474,-1
476,483,475,-1
478,483,476,-1
543,479,542,-1
480,483,478,-1
479,544,482,-1
480,481,483,-1
482,483,481,-1
544,483,482,-1
483,544,484,-1
462,385,465,-1
471,389,462,-1
389,471,393,-1
393,471,394,-1
394,514,506,-1
514,394,471,-1
506,514,517,-1
507,394,506,-1
394,507,508,-1
515,483,516,-1
506,517,519,-1
506,519,523,-1
506,523,525,-1
516,483,518,-1
518,483,520,-1
520,483,521,-1
524,522,521,-1
524,521,483,-1
484,598,525,-1
599,525,598,-1
538,525,599,-1
604,538,599,-1
525,538,506,-1
509,539,621,-1
538,604,539,-1
539,604,620,-1
621,539,620,-1
315,542,310,-1
315,546,542,-1
324,546,315,-1
324,327,546,-1
327,366,546,-1
546,369,547,-1
550,547,373,-1
479,543,544,-1
545,547,548,-1
548,547,550,-1
544,598,484,-1
544,600,598,-1
549,551,552,-1
552,556,549,-1
556,558,549,-1
602,601,549,-1
603,602,549,-1
605,603,549,-1
559,605,549,-1
554,550,553,-1
554,555,550,-1
555,554,557,-1
584,557,554,-1
558,560,549,-1
560,559,549,-1
557,584,561,-1
561,584,632,-1
561,632,562,-1
546,366,369,-1
547,369,373,-1
550,962,553,-1
550,373,962,-1
962,586,553,-1
587,633,585,-1
586,589,587,-1
633,587,589,-1
1117,590,1111,-1
588,635,634,-1
588,637,635,-1
590,1117,1119,-1
590,1119,639,-1
590,639,638,-1
606,620,604,-1
562,607,606,-1
608,606,607,-1
607,562,632,-1
606,608,620,-1
608,634,623,-1
620,608,623,-1
624,625,666,-1
666,625,669,-1
625,690,669,-1
636,634,635,-1
623,634,636,-1
623,636,640,-1
623,640,1202,-1
623,1233,650,-1
623,651,625,-1
623,650,651,-1
625,651,690,-1
394,508,656,-1
433,663,677,-1
509,662,658,-1
509,678,662,-1
509,621,678,-1
662,677,663,-1
677,662,676,-1
678,676,662,-1
425,431,1533,-1
622,678,621,-1
668,670,667,-1
670,691,667,-1
667,691,694,-1
680,679,667,-1
681,680,667,-1
667,694,695,-1
667,695,696,-1
706,681,667,-1
667,696,706,-1
690,651,692,-1
710,692,651,-1
652,710,651,-1
692,710,693,-1
693,710,697,-1
682,707,709,-1
697,708,707,-1
709,707,708,-1
708,697,710,-1
1533,431,432,-1
1533,432,433,-1
1533,433,677,-1
0,716,1109,-1
0,1110,716,-1
716,1110,1109,-1
1,1109,777,-1
719,116,717,-1
721,718,720,-1
718,735,734,-1
718,721,764,-1
718,737,735,-1
718,764,737,-1
722,731,730,-1
732,730,731,-1
133,729,847,-1
730,847,729,-1
730,732,851,-1
722,733,731,-1
735,738,736,-1
738,735,737,-1
736,851,732,-1
736,738,855,-1
751,753,752,-1
749,764,721,-1
752,763,750,-1
763,752,753,-1
754,793,769,-1
765,904,738,-1
906,765,767,-1
755,766,765,-1
767,765,766,-1
755,768,766,-1
794,910,767,-1
794,796,910,-1
778,754,777,-1
754,778,798,-1
779,798,778,-1
754,795,793,-1
754,798,795,-1
782,797,780,-1
781,783,782,-1
797,782,783,-1
793,796,794,-1
796,793,795,-1
910,796,799,-1
911,799,801,-1
784,800,799,-1
801,799,800,-1
784,802,800,-1
829,911,801,-1
815,813,814,-1
813,815,833,-1
813,828,827,-1
813,831,828,-1
813,833,831,-1
816,833,815,-1
818,1095,819,-1
819,830,817,-1
830,819,1095,-1
828,832,829,-1
832,828,831,-1
1097,835,834,-1
836,834,835,-1
847,730,849,-1
730,851,849,-1
867,848,868,-1
852,849,851,-1
849,852,850,-1
850,883,848,-1
883,850,852,-1
736,855,851,-1
738,903,855,-1
853,883,852,-1
856,882,854,-1
855,903,856,-1
882,856,903,-1
270,870,873,-1
873,874,270,-1
848,883,868,-1
868,883,871,-1
871,883,872,-1
872,880,876,-1
876,880,877,-1
880,872,883,-1
877,881,879,-1
877,880,881,-1
903,738,904,-1
765,906,904,-1
907,904,906,-1
904,907,921,-1
908,921,907,-1
906,767,910,-1
910,799,911,-1
923,909,911,-1
905,922,884,-1
879,932,878,-1
878,931,357,-1
878,932,931,-1
879,881,932,-1
932,881,934,-1
953,357,931,-1
935,956,933,-1
884,934,881,-1
934,884,937,-1
937,884,941,-1
884,999,941,-1
957,935,936,-1
957,936,938,-1
935,957,956,-1
964,955,957,-1
964,959,955,-1
959,964,961,-1
960,372,958,-1
962,373,372,-1
962,372,960,-1
957,938,939,-1
957,939,940,-1
957,940,964,-1
965,963,964,-1
969,965,970,-1
961,964,963,-1
963,965,966,-1
966,965,968,-1
968,965,971,-1
971,965,974,-1
974,965,969,-1
971,974,972,-1
999,884,922,-1
999,922,925,-1
1000,941,999,-1
1003,1006,1004,-1
1006,1003,1005,-1
941,1000,1020,-1
1001,1020,1000,-1
941,1020,965,-1
1002,1004,1015,-1
1015,1004,1024,-1
1017,1025,1016,-1
965,1018,970,-1
1020,1018,965,-1
970,1018,975,-1
1022,1021,1016,-1
1033,1022,1016,-1
1024,1004,1026,-1
1004,1006,1026,-1
1025,1027,1016,-1
1027,1028,1016,-1
1028,1031,1016,-1
1026,1006,1029,-1
1063,1029,1006,-1
1029,1063,1030,-1
1031,1032,1016,-1
1032,1034,1016,-1
1034,1033,1016,-1
1030,1075,1035,-1
1035,1037,1036,-1
1038,1036,1037,-1
1037,1035,1075,-1
923,911,829,-1
923,836,924,-1
924,836,925,-1
923,829,832,-1
923,832,834,-1
999,925,1104,-1
923,834,836,-1
1104,925,836,-1
1109,1003,999,-1
1109,1005,1003,-1
1065,1067,1066,-1
1066,1076,1064,-1
1030,1063,1075,-1
1076,1066,1067,-1
1078,1079,1077,-1
1080,1077,1079,-1
1078,1081,1079,-1
1068,1091,1082,-1
1109,781,777,-1
1109,783,781,-1
1109,813,783,-1
1109,814,813,-1
1109,818,814,-1
1109,1095,818,-1
1109,1096,1095,-1
1109,1103,1096,-1
1096,1103,1102,-1
1097,1101,835,-1
1109,999,1104,-1
1109,1104,1103,-1
1109,1065,1005,-1
1109,1067,1065,-1
1109,1068,1067,-1
1109,1091,1068,-1
1109,1092,1091,-1
1109,1276,1092,-1
1109,1325,1276,-1
1109,1326,1325,-1
1109,1473,1326,-1
1109,1474,1473,-1
967,586,962,-1
973,586,967,-1
975,586,973,-1
975,1018,586,-1
1018,589,586,-1
1018,590,589,-1
1019,1113,590,-1
1019,590,1018,-1
1019,1121,1113,-1
1019,1124,1121,-1
1019,1127,1124,-1
1112,590,1113,-1
1111,590,1112,-1
1115,1131,1116,-1
1116,1131,1118,-1
1118,1131,1120,-1
1120,1131,1198,-1
1114,1131,1115,-1
1122,1131,1114,-1
1123,1132,1122,-1
1125,1132,1123,-1
1126,1132,1125,-1
1128,1132,1126,-1
1122,1132,1131,-1
1128,1129,1132,-1
1130,1233,1129,-1
1129,1233,1132,-1
1023,1155,1019,-1
1036,1155,1023,-1
1019,1155,1127,-1
1036,1038,1155,-1
1077,1162,1038,-1
1038,1162,1155,-1
1156,1127,1155,-1
1127,1156,1157,-1
1158,1163,1159,-1
1159,1163,1166,-1
1127,1235,1130,-1
1127,1157,1235,-1
1235,1233,1130,-1
1161,1167,1160,-1
1237,1236,1160,-1
1239,1237,1160,-1
1162,1165,1163,-1
1166,1163,1168,-1
1163,1165,1168,-1
1165,1162,1164,-1
1168,1165,1173,-1
1271,1173,1165,-1
1167,1169,1160,-1
1169,1170,1160,-1
1170,1171,1160,-1
1171,1172,1160,-1
1240,1239,1160,-1
1172,1240,1160,-1
1173,1271,1174,-1
1174,1271,1175,-1
1197,639,1119,-1
639,1197,640,-1
1199,640,1197,-1
1202,640,1199,-1
623,1202,1206,-1
623,1206,1208,-1
623,1208,1233,-1
1198,1131,1200,-1
1200,1131,1201,-1
1201,1131,1203,-1
1203,1131,1204,-1
1207,1204,1131,-1
1207,1205,1204,-1
1234,650,1233,-1
650,1234,1221,-1
1223,1353,1222,-1
1221,1234,1255,-1
1221,1225,1223,-1
1224,1223,1225,-1
1223,1224,1353,-1
1225,1221,1255,-1
1132,1233,1208,-1
1175,1242,1241,-1
1242,1175,1285,-1
1243,1241,1242,-1
1238,1304,1234,-1
1241,1304,1238,-1
1255,1234,1258,-1
1258,1234,1259,-1
1259,1234,1299,-1
1304,1299,1234,-1
1260,1387,1257,-1
1261,1388,1260,-1
1262,1388,1261,-1
1077,1080,1162,-1
1080,1164,1162,-1
1080,1273,1164,-1
1092,1275,1080,-1
1080,1275,1273,-1
1092,1276,1275,-1
1274,1286,1272,-1
1286,1274,1275,-1
1271,1285,1175,-1
1273,1275,1274,-1
1277,1288,1287,-1
1277,1290,1288,-1
1276,1325,1291,-1
1241,1243,1304,-1
1287,1304,1243,-1
1289,1287,1288,-1
1304,1287,1289,-1
1326,1305,1289,-1
1326,1329,1305,-1
1300,1388,1262,-1
1299,1304,1307,-1
1299,1307,1303,-1
1308,1303,1307,-1
1304,1289,1305,-1
1310,1306,1309,-1
1311,1306,1310,-1
1306,1311,1308,-1
1331,1308,1311,-1
1332,1308,1331,-1
1303,1308,1335,-1
1329,1326,1330,-1
1330,1326,1337,-1
1333,1308,1332,-1
1334,1308,1333,-1
1422,1303,1335,-1
1335,1308,1334,-1
1326,1336,1337,-1
1340,1338,1337,-1
1340,1337,1336,-1
1338,1340,1466,-1
1338,1466,1339,-1
425,1533,1110,-1
1222,1362,1361,-1
1222,1355,1362,-1
1222,1353,1355,-1
1362,1364,1363,-1
1364,1362,1355,-1
1371,1363,1364,-1
1256,1387,1226,-1
1226,1387,1354,-1
1354,1387,1356,-1
1356,1387,1369,-1
1257,1387,1256,-1
1260,1388,1387,-1
1369,1387,1372,-1
1375,1363,1371,-1
1372,1387,1373,-1
1373,1387,1374,-1
1374,1387,1376,-1
1376,1399,1377,-1
1533,677,682,-1
1301,1388,1300,-1
1301,1302,1388,-1
1303,1388,1302,-1
1303,1389,1388,-1
1389,1303,1419,-1
1419,1303,1424,-1
1424,1303,1423,-1
1388,1390,1391,-1
1390,1388,1389,-1
1391,1390,1392,-1
1420,1392,1390,-1
1399,1376,1387,-1
1388,1401,1400,-1
1401,1388,1391,-1
1392,1404,1403,-1
1404,1392,1405,-1
1405,1392,1406,-1
1406,1392,1453,-1
1453,1392,1454,-1
1423,1303,1422,-1
1421,1425,1426,-1
1427,1392,1420,-1
1428,1392,1427,-1
1429,1392,1428,-1
1430,1392,1429,-1
1457,1392,1430,-1
1432,1426,1425,-1
1432,1433,1426,-1
1339,1477,1431,-1
1431,1480,1432,-1
1433,1432,1480,-1
1433,1480,1434,-1
1434,1478,1435,-1
1478,1434,1479,-1
1454,1392,1456,-1
1456,1392,1457,-1
1435,1503,1458,-1
1503,1435,1478,-1
1533,682,709,-1
1533,709,1363,-1
1533,1363,1375,-1
1533,1375,1378,-1
1109,1110,1533,-1
1336,1326,1473,-1
1477,1339,1466,-1
1465,1474,1467,-1
1467,1474,1468,-1
1468,1474,1481,-1
1481,1474,1483,-1
1109,1533,1474,-1
1431,1477,1480,-1
1482,1434,1480,-1
1434,1486,1479,-1
1485,1434,1482,-1
1486,1434,1485,-1
1487,1479,1486,-1
1488,1479,1487,-1
1479,1502,1501,-1
1502,1479,1504,-1
1504,1479,1505,-1
1505,1479,1506,-1
1506,1479,1510,-1
1509,1479,1488,-1
1510,1479,1509,-1
1533,1483,1474,-1
1533,1484,1483,-1
1533,1525,1484,-1
1533,1378,1400,-1
1533,1400,1401,-1
1533,1401,1402,-1
1533,1402,1407,-1
1533,1407,1408,-1
1533,1408,1455,-1
1533,1455,1458,-1
1533,1458,1503,-1
1533,1503,1507,-1
1533,1507,1508,-1
1533,1508,1511,-1
1533,1512,1531,-1
1533,1511,1512,-1
1533,1526,1525,-1
1533,1527,1526,-1
1533,1531,1527,-1
4,3,2,-1
4,5,3,-1
10,7,6,-1
12,6,8,-1
11,29,7,-1
10,11,7,-1
10,6,12,-1
12,8,25,-1
11,40,29,-1
10,12,11,-1
12,25,13,-1
11,12,13,-1
11,13,40,-1
5,14,3,-1
21,18,14,-1
23,2,16,-1
22,17,15,-1
24,16,17,-1
25,8,18,-1
26,15,19,-1
27,32,20,-1
5,21,14,-1
4,2,23,-1
22,15,26,-1
22,24,17,-1
23,16,24,-1
4,21,5,-1
4,22,21,-1
4,23,22,-1
21,22,25,-1
22,23,24,-1
21,25,18,-1
13,27,20,-1
26,19,44,-1
22,26,25,-1
25,26,27,-1
13,25,27,-1
27,26,43,-1
13,20,9,-1
39,9,28,-1
40,28,29,-1
41,31,30,-1
43,30,32,-1
44,19,33,-1
42,35,31,-1
45,33,34,-1
46,34,35,-1
47,37,36,-1
49,36,38,-1
48,70,37,-1
13,9,39,-1
39,28,40,-1
27,43,32,-1
41,42,31,-1
41,30,43,-1
13,39,40,-1
26,44,43,-1
41,43,42,-1
44,33,45,-1
42,46,35,-1
45,34,46,-1
47,48,37,-1
47,36,49,-1
42,43,44,-1
42,44,46,-1
44,45,46,-1
47,49,48,-1
48,49,79,-1
59,51,50,-1
60,52,51,-1
61,54,52,-1
66,50,57,-1
62,58,53,-1
63,38,54,-1
64,53,55,-1
65,73,56,-1
67,57,58,-1
59,60,51,-1
60,61,52,-1
59,50,66,-1
62,53,64,-1
59,61,60,-1
59,66,61,-1
61,62,63,-1
61,66,62,-1
61,63,54,-1
65,56,79,-1
63,64,65,-1
62,64,63,-1
63,65,79,-1
62,67,58,-1
66,57,67,-1
62,66,67,-1
64,55,85,-1
65,64,84,-1
79,56,68,-1
80,68,69,-1
81,69,70,-1
85,55,74,-1
82,72,71,-1
84,71,73,-1
83,77,72,-1
86,74,75,-1
88,75,77,-1
87,78,76,-1
108,76,102,-1
63,49,38,-1
48,81,70,-1
79,68,80,-1
80,69,81,-1
63,79,49,-1
48,79,81,-1
79,80,81,-1
65,84,73,-1
82,83,72,-1
82,71,84,-1
85,74,86,-1
83,88,77,-1
86,75,88,-1
87,89,78,-1
87,76,108,-1
64,85,84,-1
82,84,83,-1
83,84,85,-1
83,85,88,-1
85,86,88,-1
87,108,89,-1
97,90,91,-1
96,102,90,-1
100,93,94,-1
101,91,95,-1
98,106,92,-1
99,95,93,-1
96,90,97,-1
108,102,96,-1
97,91,101,-1
109,98,92,-1
108,96,97,-1
108,97,98,-1
99,93,100,-1
99,101,95,-1
118,114,113,-1
97,101,98,-1
98,101,112,-1
99,118,101,-1
118,112,101,-1
89,105,78,-1
109,92,103,-1
110,103,104,-1
111,104,105,-1
112,107,106,-1
113,114,107,-1
109,103,110,-1
89,111,105,-1
110,104,111,-1
108,98,109,-1
89,108,109,-1
89,109,111,-1
109,110,111,-1
98,112,106,-1
112,113,107,-1
118,113,112,-1
118,124,114,-1
137,94,125,-1
120,115,116,-1
119,130,115,-1
100,94,137,-1
99,100,137,-1
99,137,118,-1
119,115,120,-1
142,130,119,-1
120,116,725,-1
143,121,117,-1
142,119,120,-1
142,120,121,-1
134,123,122,-1
136,122,124,-1
135,128,123,-1
138,125,126,-1
139,129,127,-1
140,126,128,-1
142,127,130,-1
141,133,129,-1
143,117,131,-1
144,131,132,-1
145,132,133,-1
118,136,124,-1
134,135,123,-1
134,122,136,-1
135,140,128,-1
137,125,138,-1
139,141,129,-1
138,126,140,-1
139,127,142,-1
118,137,136,-1
134,136,135,-1
135,136,137,-1
135,137,140,-1
137,138,140,-1
139,142,141,-1
143,131,144,-1
141,145,133,-1
144,132,145,-1
142,121,143,-1
141,142,143,-1
141,143,145,-1
143,144,145,-1
147,174,146,-1
192,147,146,-1
147,196,174,-1
160,148,149,-1
193,150,171,-1
162,149,151,-1
161,152,150,-1
163,153,152,-1
165,151,154,-1
164,155,153,-1
166,156,155,-1
167,157,156,-1
169,154,158,-1
160,159,148,-1
160,149,162,-1
193,161,150,-1
161,163,152,-1
160,193,159,-1
160,161,193,-1
160,162,161,-1
162,163,161,-1
162,151,165,-1
163,164,153,-1
164,166,155,-1
166,167,156,-1
165,154,169,-1
167,168,157,-1
169,158,203,-1
162,165,164,-1
162,164,163,-1
164,165,166,-1
165,167,166,-1
165,169,167,-1
169,168,167,-1
159,170,148,-1
192,146,170,-1
194,171,172,-1
195,172,173,-1
196,177,174,-1
197,173,175,-1
198,175,176,-1
199,178,177,-1
201,176,179,-1
200,184,178,-1
204,179,182,-1
168,180,157,-1
202,181,180,-1
203,158,181,-1
205,182,183,-1
206,187,184,-1
207,183,185,-1
208,185,186,-1
209,191,187,-1
210,190,188,-1
211,188,189,-1
212,186,190,-1
213,189,191,-1
159,192,170,-1
193,171,194,-1
194,172,195,-1
195,173,197,-1
159,194,192,-1
192,194,195,-1
159,193,194,-1
192,195,147,-1
147,195,196,-1
196,199,177,-1
197,175,198,-1
199,200,178,-1
198,176,201,-1
201,179,204,-1
200,206,184,-1
196,195,197,-1
196,197,199,-1
197,198,199,-1
199,198,200,-1
198,201,200,-1
200,201,206,-1
201,204,206,-1
168,202,180,-1
202,203,181,-1
169,203,168,-1
168,203,202,-1
204,182,205,-1
205,183,207,-1
207,185,208,-1
209,187,206,-1
210,212,190,-1
210,188,211,-1
211,189,213,-1
212,208,186,-1
209,213,191,-1
204,205,206,-1
205,209,206,-1
205,207,209,-1
207,208,209,-1
210,211,212,-1
209,208,213,-1
212,213,208,-1
211,213,212,-1
224,215,214,-1
225,216,215,-1
228,214,218,-1
227,219,217,-1
230,217,220,-1
226,236,216,-1
229,218,219,-1
231,222,221,-1
232,244,222,-1
254,223,244,-1
233,220,223,-1
224,225,215,-1
224,214,228,-1
225,226,216,-1
227,217,230,-1
224,226,225,-1
224,228,226,-1
228,227,226,-1
226,227,230,-1
226,230,239,-1
227,229,219,-1
228,218,229,-1
230,220,233,-1
231,232,222,-1
232,254,244,-1
254,233,223,-1
228,229,227,-1
230,233,239,-1
231,254,232,-1
239,233,240,-1
239,235,234,-1
242,234,237,-1
240,237,235,-1
243,245,238,-1
241,238,236,-1
239,234,242,-1
226,241,236,-1
239,240,235,-1
240,242,237,-1
226,239,241,-1
239,242,241,-1
240,255,243,-1
240,243,242,-1
241,243,238,-1
242,243,241,-1
256,221,246,-1
255,247,245,-1
257,246,247,-1
258,249,248,-1
259,250,249,-1
262,248,252,-1
261,253,251,-1
260,271,250,-1
278,251,266,-1
263,252,253,-1
231,221,256,-1
243,255,245,-1
255,257,247,-1
256,246,257,-1
258,259,249,-1
259,260,250,-1
231,256,254,-1
254,255,233,-1
254,256,255,-1
233,255,240,-1
256,257,255,-1
258,260,259,-1
258,248,262,-1
261,251,278,-1
261,263,253,-1
262,252,263,-1
857,281,269,-1
258,261,260,-1
258,262,261,-1
260,261,278,-1
260,278,279,-1
261,262,263,-1
857,885,281,-1
276,265,264,-1
283,264,271,-1
279,268,267,-1
284,267,272,-1
281,266,269,-1
280,270,268,-1
282,869,270,-1
277,274,265,-1
285,272,273,-1
287,273,275,-1
286,878,274,-1
893,275,875,-1
276,277,265,-1
276,264,283,-1
276,283,277,-1
260,283,271,-1
278,266,281,-1
279,267,284,-1
279,280,268,-1
280,282,270,-1
282,887,869,-1
260,279,283,-1
278,280,279,-1
279,284,283,-1
278,281,280,-1
281,282,280,-1
281,885,282,-1
282,885,887,-1
277,286,274,-1
284,272,285,-1
285,273,287,-1
287,275,893,-1
286,896,878,-1
277,283,286,-1
283,284,286,-1
284,285,286,-1
285,287,286,-1
287,896,286,-1
287,893,896,-1
296,289,288,-1
297,290,289,-1
300,288,292,-1
299,293,291,-1
301,292,293,-1
302,295,294,-1
303,352,295,-1
296,297,289,-1
297,298,290,-1
296,288,300,-1
300,292,301,-1
299,301,293,-1
296,298,297,-1
296,299,298,-1
296,300,299,-1
299,300,301,-1
302,303,295,-1
303,358,352,-1
302,358,303,-1
298,311,290,-1
328,291,304,-1
329,307,305,-1
330,304,306,-1
331,308,307,-1
333,310,309,-1
335,309,311,-1
334,315,310,-1
336,305,312,-1
337,312,313,-1
338,313,314,-1
340,306,316,-1
332,317,308,-1
341,318,317,-1
343,316,319,-1
344,319,320,-1
345,323,321,-1
342,322,318,-1
346,321,322,-1
348,325,324,-1
347,314,323,-1
339,324,315,-1
349,320,325,-1
350,327,326,-1
374,326,364,-1
299,291,328,-1
328,304,330,-1
329,331,307,-1
329,305,336,-1
330,306,340,-1
331,332,308,-1
298,299,328,-1
298,328,329,-1
298,329,335,-1
328,331,329,-1
328,330,331,-1
330,332,331,-1
330,340,332,-1
298,335,311,-1
333,309,335,-1
333,334,310,-1
336,312,337,-1
334,339,315,-1
337,313,338,-1
335,329,336,-1
333,335,334,-1
334,335,339,-1
335,336,339,-1
336,337,339,-1
337,338,339,-1
340,316,343,-1
332,341,317,-1
341,342,318,-1
343,319,344,-1
344,320,349,-1
340,341,332,-1
340,343,341,-1
341,343,342,-1
342,343,344,-1
345,347,323,-1
342,346,322,-1
346,345,321,-1
338,314,347,-1
339,348,324,-1
349,325,348,-1
350,326,374,-1
350,351,327,-1
342,344,346,-1
346,344,349,-1
346,349,345,-1
345,349,348,-1
339,338,348,-1
338,347,348,-1
345,348,347,-1
350,374,351,-1
360,294,354,-1
359,355,353,-1
361,354,355,-1
363,356,357,-1
302,294,360,-1
359,361,355,-1
360,354,361,-1
302,360,358,-1
358,360,359,-1
359,360,361,-1
362,356,363,-1
374,364,352,-1
375,353,365,-1
351,366,327,-1
376,367,366,-1
362,365,356,-1
377,370,367,-1
378,369,368,-1
380,368,370,-1
379,373,369,-1
381,357,371,-1
382,371,372,-1
383,372,373,-1
358,374,352,-1
359,353,375,-1
362,375,365,-1
358,359,375,-1
351,376,366,-1
358,375,374,-1
374,375,376,-1
351,374,376,-1
377,376,375,-1
377,367,376,-1
363,357,381,-1
362,363,375,-1
363,377,375,-1
363,381,377,-1
377,380,370,-1
378,379,369,-1
378,368,380,-1
381,371,382,-1
379,383,373,-1
382,372,383,-1
378,380,379,-1
379,380,381,-1
377,381,380,-1
379,381,383,-1
381,382,383,-1
387,386,385,-1
388,390,386,-1
387,388,386,-1
387,397,388,-1
388,397,390,-1
396,385,389,-1
399,389,392,-1
398,392,391,-1
401,393,394,-1
400,451,393,-1
387,385,396,-1
396,389,399,-1
387,396,397,-1
398,396,399,-1
398,399,392,-1
397,396,398,-1
400,393,401,-1
400,401,454,-1
415,404,403,-1
414,405,406,-1
413,407,405,-1
415,403,407,-1
416,406,408,-1
417,408,409,-1
418,409,410,-1
419,410,411,-1
420,411,412,-1
446,412,442,-1
413,405,414,-1
415,407,413,-1
414,406,416,-1
416,408,417,-1
413,414,459,-1
415,413,459,-1
417,409,418,-1
418,410,419,-1
419,411,420,-1
420,412,446,-1
417,418,420,-1
414,416,459,-1
416,417,459,-1
418,419,420,-1
417,420,446,-1
417,446,447,-1
417,447,459,-1
404,421,403,-1
423,422,421,-1
424,426,422,-1
404,423,421,-1
423,424,422,-1
434,427,426,-1
435,428,427,-1
436,429,428,-1
437,430,429,-1
438,431,430,-1
439,432,431,-1
440,433,432,-1
441,458,433,-1
424,434,426,-1
423,436,424,-1
424,435,434,-1
424,436,435,-1
423,437,436,-1
415,459,404,-1
404,459,423,-1
423,440,439,-1
434,435,427,-1
435,436,428,-1
436,437,429,-1
437,438,430,-1
423,438,437,-1
423,439,438,-1
461,458,441,-1
423,459,460,-1
423,461,441,-1
423,441,440,-1
423,460,461,-1
438,439,431,-1
439,440,432,-1
440,441,433,-1
447,442,443,-1
448,445,444,-1
453,444,450,-1
449,452,445,-1
446,442,447,-1
448,444,453,-1
448,449,445,-1
448,453,449,-1
453,450,390,-1
454,391,451,-1
455,395,452,-1
397,453,390,-1
398,391,454,-1
397,398,454,-1
400,454,451,-1
397,454,453,-1
402,395,455,-1
401,402,454,-1
454,402,455,-1
449,455,452,-1
454,455,453,-1
449,453,455,-1
459,443,456,-1
460,456,457,-1
461,457,458,-1
447,443,459,-1
459,456,460,-1
460,457,461,-1
463,471,462,-1
486,463,462,-1
463,492,471,-1
489,464,468,-1
485,465,464,-1
488,466,467,-1
494,468,473,-1
490,474,469,-1
487,469,466,-1
486,462,465,-1
491,467,470,-1
492,514,471,-1
493,470,472,-1
527,472,515,-1
495,475,474,-1
498,473,477,-1
496,476,475,-1
497,478,476,-1
499,480,478,-1
500,477,479,-1
501,481,480,-1
502,482,481,-1
503,479,482,-1
504,524,483,-1
505,483,484,-1
489,485,464,-1
486,465,485,-1
488,487,466,-1
489,468,494,-1
490,469,487,-1
490,495,474,-1
489,487,485,-1
486,485,488,-1
485,487,488,-1
489,490,487,-1
489,494,490,-1
490,494,495,-1
488,467,491,-1
491,470,493,-1
492,526,514,-1
493,472,527,-1
486,491,463,-1
486,488,491,-1
463,491,492,-1
492,491,493,-1
492,493,526,-1
493,527,526,-1
494,473,498,-1
495,496,475,-1
496,497,476,-1
497,499,478,-1
498,477,500,-1
499,501,480,-1
501,502,481,-1
502,503,482,-1
500,479,503,-1
494,496,495,-1
494,498,496,-1
496,498,497,-1
498,499,497,-1
498,500,499,-1
499,500,501,-1
500,503,501,-1
501,503,502,-1
504,483,505,-1
504,505,536,-1
510,507,506,-1
540,506,538,-1
511,508,507,-1
510,511,507,-1
401,394,659,-1
510,506,540,-1
510,512,511,-1
510,540,512,-1
511,512,508,-1
512,540,513,-1
526,517,514,-1
528,515,516,-1
529,519,517,-1
530,516,518,-1
532,518,520,-1
531,523,519,-1
533,520,521,-1
534,521,522,-1
535,525,523,-1
536,522,524,-1
537,484,525,-1
526,529,517,-1
527,515,528,-1
528,516,530,-1
529,531,519,-1
527,529,526,-1
527,528,529,-1
529,528,531,-1
528,530,531,-1
532,520,533,-1
530,518,532,-1
533,521,534,-1
531,535,523,-1
504,536,524,-1
534,522,536,-1
505,484,537,-1
535,537,525,-1
530,532,531,-1
532,535,531,-1
532,533,535,-1
533,534,535,-1
534,536,537,-1
505,537,536,-1
535,534,537,-1
541,538,539,-1
513,539,509,-1
540,538,541,-1
513,540,541,-1
513,541,539,-1
563,543,542,-1
564,544,543,-1
567,542,546,-1
566,547,545,-1
568,546,547,-1
569,545,548,-1
611,600,544,-1
570,551,549,-1
571,548,550,-1
572,552,551,-1
612,549,601,-1
574,554,553,-1
575,584,554,-1
576,550,555,-1
573,556,552,-1
577,558,556,-1
578,555,557,-1
582,557,561,-1
579,560,558,-1
581,559,560,-1
583,561,562,-1
563,564,543,-1
564,565,544,-1
563,542,567,-1
566,568,547,-1
567,546,568,-1
566,545,569,-1
563,565,564,-1
563,566,565,-1
565,566,569,-1
565,569,570,-1
563,567,566,-1
566,567,568,-1
565,611,544,-1
569,548,571,-1
570,572,551,-1
571,550,576,-1
572,573,552,-1
570,549,612,-1
565,570,611,-1
570,612,611,-1
569,572,570,-1
569,571,572,-1
571,573,572,-1
571,576,573,-1
574,575,554,-1
575,591,584,-1
574,591,575,-1
576,555,578,-1
573,577,556,-1
577,579,558,-1
578,557,582,-1
579,581,560,-1
581,580,559,-1
582,561,583,-1
583,562,617,-1
573,576,577,-1
576,578,577,-1
577,578,579,-1
579,578,582,-1
579,582,581,-1
581,582,583,-1
581,583,580,-1
580,583,617,-1
593,553,586,-1
592,587,585,-1
594,586,587,-1
641,632,584,-1
642,585,633,-1
643,588,634,-1
596,633,589,-1
597,589,590,-1
595,637,588,-1
647,590,638,-1
574,553,593,-1
592,594,587,-1
592,585,642,-1
593,586,594,-1
574,593,591,-1
591,593,592,-1
592,593,594,-1
591,592,642,-1
591,641,584,-1
596,642,633,-1
591,642,641,-1
595,643,642,-1
596,589,597,-1
597,590,647,-1
596,597,642,-1
595,588,643,-1
595,646,637,-1
595,642,597,-1
595,597,647,-1
595,647,646,-1
609,599,598,-1
611,598,600,-1
610,604,599,-1
613,601,602,-1
614,602,603,-1
616,603,605,-1
580,605,559,-1
615,606,604,-1
617,562,606,-1
618,608,607,-1
641,607,632,-1
609,610,599,-1
609,598,611,-1
612,601,613,-1
610,615,604,-1
613,602,614,-1
609,611,610,-1
610,611,615,-1
611,612,615,-1
612,613,615,-1
613,614,615,-1
614,603,616,-1
580,616,605,-1
615,617,606,-1
618,619,608,-1
618,607,641,-1
614,616,617,-1
615,614,617,-1
580,617,616,-1
618,641,619,-1
626,621,620,-1
627,622,621,-1
629,620,623,-1
631,623,625,-1
630,625,624,-1
671,624,666,-1
626,627,621,-1
626,620,629,-1
626,628,627,-1
627,628,622,-1
626,630,628,-1
628,630,671,-1
628,671,672,-1
629,623,631,-1
626,629,630,-1
630,629,631,-1
630,624,671,-1
630,631,625,-1
619,634,608,-1
644,636,635,-1
646,635,637,-1
645,640,636,-1
648,638,639,-1
649,639,640,-1
619,643,634,-1
619,641,643,-1
641,642,643,-1
644,645,636,-1
644,635,646,-1
647,638,648,-1
645,649,640,-1
648,639,649,-1
644,646,645,-1
645,646,647,-1
645,647,649,-1
647,648,649,-1
653,651,650,-1
654,652,651,-1
653,654,651,-1
653,650,1227,-1
653,655,654,-1
653,1227,655,-1
654,655,652,-1
402,657,395,-1
659,394,656,-1
512,656,508,-1
661,509,658,-1
401,659,402,-1
402,660,657,-1
402,659,660,-1
513,509,661,-1
512,513,659,-1
512,659,656,-1
513,660,659,-1
513,661,660,-1
660,663,657,-1
660,665,663,-1
660,661,665,-1
664,658,662,-1
665,662,663,-1
661,658,664,-1
664,662,665,-1
661,664,665,-1
628,678,622,-1
674,666,669,-1
672,668,667,-1
698,669,690,-1
673,670,668,-1
675,691,670,-1
686,667,679,-1
628,672,685,-1
628,685,678,-1
672,686,685,-1
671,666,674,-1
672,673,668,-1
674,669,698,-1
673,675,670,-1
671,673,672,-1
671,674,673,-1
674,698,675,-1
674,675,673,-1
672,667,686,-1
683,677,676,-1
685,676,678,-1
684,682,677,-1
687,679,680,-1
688,680,681,-1
683,676,685,-1
683,684,677,-1
683,685,684,-1
684,685,689,-1
686,679,687,-1
684,689,682,-1
688,687,680,-1
688,681,711,-1
689,712,682,-1
685,686,689,-1
686,687,689,-1
688,689,687,-1
688,712,689,-1
699,694,691,-1
700,690,692,-1
701,692,693,-1
702,695,694,-1
704,706,696,-1
703,696,695,-1
705,693,697,-1
655,710,652,-1
698,690,700,-1
675,699,691,-1
699,702,694,-1
700,692,701,-1
675,698,699,-1
698,700,699,-1
700,702,699,-1
700,701,702,-1
702,703,695,-1
703,704,696,-1
701,693,705,-1
705,697,712,-1
702,701,703,-1
703,701,705,-1
703,705,704,-1
704,705,712,-1
655,1228,715,-1
655,715,710,-1
711,681,706,-1
712,707,682,-1
712,697,707,-1
713,709,708,-1
715,708,710,-1
714,1363,709,-1
704,711,706,-1
688,711,712,-1
704,712,711,-1
713,708,715,-1
713,714,709,-1
713,715,714,-1
714,715,1367,-1
724,717,718,-1
725,116,719,-1
121,729,117,-1
723,719,717,-1
726,721,720,-1
728,733,722,-1
744,718,734,-1
723,717,724,-1
723,725,719,-1
728,722,740,-1
120,725,121,-1
121,725,739,-1
723,728,725,-1
728,739,725,-1
726,727,721,-1
724,718,744,-1
723,724,744,-1
723,744,728,-1
739,730,729,-1
740,722,730,-1
741,732,731,-1
743,731,733,-1
742,736,732,-1
745,734,735,-1
746,735,736,-1
747,738,737,-1
121,739,729,-1
739,740,730,-1
728,740,739,-1
728,743,733,-1
741,742,732,-1
741,731,743,-1
742,746,736,-1
744,734,745,-1
745,735,746,-1
747,748,738,-1
728,744,743,-1
741,743,742,-1
742,743,744,-1
742,744,746,-1
744,745,746,-1
727,749,721,-1
758,720,751,-1
757,752,750,-1
759,751,752,-1
756,764,749,-1
770,750,763,-1
761,753,754,-1
760,763,753,-1
762,768,755,-1
776,754,769,-1
727,756,749,-1
726,720,758,-1
757,759,752,-1
758,751,759,-1
726,756,727,-1
726,758,756,-1
756,758,757,-1
757,758,759,-1
757,750,770,-1
756,771,764,-1
770,763,760,-1
756,757,770,-1
756,770,771,-1
760,753,761,-1
772,762,755,-1
761,754,776,-1
770,760,761,-1
770,761,762,-1
762,761,776,-1
771,737,764,-1
748,765,738,-1
772,755,765,-1
773,767,766,-1
775,766,768,-1
774,794,767,-1
803,769,793,-1
747,737,771,-1
748,772,765,-1
747,771,748,-1
748,771,772,-1
771,770,772,-1
770,762,772,-1
773,774,767,-1
773,766,775,-1
762,775,768,-1
774,804,794,-1
776,769,803,-1
773,775,774,-1
762,776,775,-1
774,775,776,-1
774,776,804,-1
776,803,804,-1
785,778,777,-1
786,779,778,-1
789,777,781,-1
788,782,780,-1
790,781,782,-1
787,798,779,-1
807,780,797,-1
791,797,783,-1
792,802,784,-1
785,786,778,-1
785,777,789,-1
786,787,779,-1
788,790,782,-1
789,781,790,-1
785,787,786,-1
785,789,787,-1
787,789,788,-1
788,789,790,-1
788,780,807,-1
787,808,798,-1
787,788,807,-1
787,807,808,-1
791,783,820,-1
807,797,791,-1
809,792,784,-1
807,791,820,-1
807,820,792,-1
804,793,794,-1
805,796,795,-1
808,795,798,-1
806,799,796,-1
809,784,799,-1
810,801,800,-1
812,800,802,-1
811,829,801,-1
803,793,804,-1
805,806,796,-1
805,795,808,-1
806,809,799,-1
805,808,806,-1
806,808,809,-1
808,807,809,-1
792,812,802,-1
810,811,801,-1
810,800,812,-1
807,792,809,-1
792,837,812,-1
810,812,811,-1
811,812,837,-1
820,783,813,-1
821,815,814,-1
822,816,815,-1
825,814,818,-1
837,813,827,-1
823,833,816,-1
840,817,830,-1
824,819,817,-1
826,818,819,-1
1098,830,1095,-1
821,822,815,-1
822,823,816,-1
821,814,825,-1
821,823,822,-1
821,825,823,-1
823,825,824,-1
820,813,837,-1
824,817,840,-1
823,843,833,-1
792,820,837,-1
823,824,840,-1
823,840,843,-1
825,818,826,-1
824,826,819,-1
824,825,826,-1
840,830,1098,-1
844,1100,1097,-1
840,1098,1099,-1
840,1099,1100,-1
838,827,828,-1
839,828,829,-1
841,832,831,-1
843,831,833,-1
842,834,832,-1
844,1097,834,-1
845,836,835,-1
837,827,838,-1
811,839,829,-1
838,828,839,-1
841,842,832,-1
841,831,843,-1
842,844,834,-1
811,837,839,-1
837,838,839,-1
841,843,842,-1
842,843,844,-1
843,840,844,-1
845,846,836,-1
840,1100,844,-1
857,269,847,-1
885,848,867,-1
859,847,849,-1
858,850,848,-1
860,849,850,-1
861,852,851,-1
862,853,852,-1
865,851,855,-1
864,856,854,-1
863,883,853,-1
866,855,856,-1
912,882,903,-1
857,847,859,-1
885,858,848,-1
858,860,850,-1
859,849,860,-1
861,862,852,-1
857,858,885,-1
857,859,858,-1
859,860,858,-1
861,863,862,-1
861,851,865,-1
862,863,853,-1
864,854,900,-1
864,866,856,-1
865,855,866,-1
861,865,863,-1
865,864,863,-1
863,864,900,-1
865,866,864,-1
912,913,900,-1
913,914,900,-1
886,867,868,-1
887,870,869,-1
889,868,871,-1
890,871,872,-1
888,873,870,-1
891,874,873,-1
892,875,874,-1
894,872,876,-1
895,876,877,-1
896,879,878,-1
897,877,879,-1
898,881,880,-1
900,854,882,-1
902,905,884,-1
901,880,883,-1
899,884,881,-1
885,867,886,-1
886,868,889,-1
887,888,870,-1
889,871,890,-1
888,891,873,-1
891,892,874,-1
892,893,875,-1
890,872,894,-1
897,895,877,-1
894,876,895,-1
885,886,887,-1
887,886,888,-1
886,889,888,-1
889,890,888,-1
888,890,891,-1
891,894,892,-1
892,897,893,-1
892,895,897,-1
891,890,894,-1
894,895,892,-1
897,879,896,-1
898,899,881,-1
898,880,901,-1
893,897,896,-1
898,901,899,-1
863,901,883,-1
912,900,882,-1
914,905,902,-1
863,900,901,-1
914,902,900,-1
899,902,884,-1
899,901,902,-1
901,900,902,-1
913,903,904,-1
915,907,906,-1
916,908,907,-1
917,921,908,-1
919,906,910,-1
918,911,909,-1
918,909,923,-1
920,910,911,-1
912,903,913,-1
913,904,926,-1
915,916,907,-1
915,906,919,-1
916,917,908,-1
913,926,914,-1
915,917,916,-1
918,920,911,-1
919,910,920,-1
915,919,917,-1
919,918,917,-1
919,920,918,-1
917,918,926,-1
914,922,905,-1
926,904,921,-1
927,925,922,-1
929,923,924,-1
930,924,925,-1
917,926,921,-1
914,927,922,-1
914,926,927,-1
918,923,928,-1
918,927,926,-1
918,928,927,-1
928,923,929,-1
927,930,925,-1
929,924,930,-1
927,928,930,-1
928,929,930,-1
943,931,932,-1
979,933,956,-1
944,935,933,-1
945,932,934,-1
948,934,937,-1
946,936,935,-1
947,938,936,-1
949,939,938,-1
950,940,939,-1
952,937,941,-1
943,942,931,-1
943,932,945,-1
979,944,933,-1
943,979,942,-1
943,944,979,-1
943,945,944,-1
944,946,935,-1
945,934,948,-1
946,947,936,-1
947,949,938,-1
948,937,952,-1
949,950,939,-1
950,951,940,-1
952,941,988,-1
944,945,946,-1
945,948,947,-1
945,947,946,-1
947,948,949,-1
948,950,949,-1
948,952,950,-1
952,951,950,-1
976,954,953,-1
942,953,931,-1
977,958,954,-1
978,957,955,-1
980,956,957,-1
982,955,959,-1
981,960,958,-1
984,959,961,-1
983,962,960,-1
986,961,963,-1
985,967,962,-1
951,964,940,-1
988,941,965,-1
987,965,964,-1
989,963,966,-1
991,966,968,-1
994,968,971,-1
990,973,967,-1
992,974,969,-1
993,969,970,-1
995,971,972,-1
997,972,974,-1
996,975,973,-1
998,970,975,-1
976,953,942,-1
980,957,978,-1
976,977,954,-1
978,955,982,-1
979,956,980,-1
976,942,980,-1
976,980,978,-1
976,978,977,-1
977,978,981,-1
942,979,980,-1
977,981,958,-1
981,983,960,-1
982,959,984,-1
984,961,986,-1
983,985,962,-1
986,963,989,-1
981,978,982,-1
981,982,983,-1
982,984,983,-1
983,984,985,-1
984,986,985,-1
985,986,990,-1
951,987,964,-1
987,988,965,-1
951,988,987,-1
952,988,951,-1
985,990,967,-1
989,966,991,-1
991,968,994,-1
990,996,973,-1
992,969,993,-1
992,997,974,-1
993,970,998,-1
994,971,995,-1
995,972,997,-1
996,998,975,-1
986,989,990,-1
989,991,990,-1
991,994,996,-1
991,996,990,-1
992,993,997,-1
994,995,996,-1
996,995,998,-1
993,998,997,-1
995,997,998,-1
1007,1000,999,-1
1008,1001,1000,-1
1011,999,1003,-1
1010,1004,1002,-1
1012,1003,1004,-1
1013,1006,1005,-1
1007,1008,1000,-1
1008,1009,1001,-1
1007,999,1011,-1
1010,1012,1004,-1
1007,1009,1008,-1
1007,1010,1009,-1
1007,1011,1010,-1
1010,1011,1012,-1
1011,1003,1012,-1
1013,1014,1006,-1
1009,1020,1001,-1
1039,1002,1015,-1
1040,1017,1016,-1
1048,1015,1024,-1
1042,1019,1018,-1
1044,1018,1020,-1
1043,1023,1019,-1
1045,1016,1021,-1
1046,1021,1022,-1
1041,1025,1017,-1
1050,1024,1026,-1
1049,1027,1025,-1
1053,1026,1029,-1
1051,1028,1027,-1
1054,1029,1030,-1
1052,1031,1028,-1
1055,1032,1031,-1
1056,1034,1032,-1
1057,1022,1033,-1
1047,1036,1023,-1
1058,1033,1034,-1
1059,1030,1035,-1
1060,1035,1036,-1
1061,1038,1037,-1
1010,1002,1039,-1
1039,1015,1048,-1
1040,1041,1017,-1
1040,1016,1045,-1
1009,1010,1039,-1
1009,1039,1040,-1
1009,1040,1044,-1
1039,1041,1040,-1
1039,1048,1041,-1
1009,1044,1020,-1
1042,1043,1019,-1
1042,1018,1044,-1
1043,1047,1023,-1
1045,1021,1046,-1
1042,1044,1043,-1
1044,1040,1045,-1
1044,1045,1047,-1
1043,1044,1047,-1
1045,1046,1047,-1
1048,1024,1050,-1
1041,1049,1025,-1
1050,1026,1053,-1
1049,1051,1027,-1
1051,1052,1028,-1
1053,1029,1054,-1
1054,1030,1059,-1
1048,1049,1041,-1
1048,1050,1049,-1
1050,1051,1049,-1
1050,1053,1051,-1
1051,1053,1052,-1
1053,1054,1052,-1
1052,1055,1031,-1
1056,1058,1034,-1
1055,1056,1032,-1
1046,1022,1057,-1
1057,1033,1058,-1
1047,1060,1036,-1
1059,1035,1060,-1
1061,1062,1038,-1
1046,1057,1047,-1
1047,1057,1060,-1
1057,1058,1060,-1
1056,1060,1058,-1
1052,1054,1055,-1
1054,1059,1055,-1
1055,1059,1056,-1
1056,1059,1060,-1
1014,1063,1006,-1
1071,1005,1065,-1
1070,1066,1064,-1
1072,1065,1066,-1
1074,1067,1068,-1
1013,1005,1071,-1
1014,1069,1063,-1
1071,1065,1072,-1
1070,1072,1066,-1
1013,1069,1014,-1
1013,1071,1069,-1
1069,1071,1070,-1
1070,1071,1072,-1
1073,1067,1074,-1
1083,1075,1063,-1
1084,1064,1076,-1
1083,1037,1075,-1
1062,1077,1038,-1
1085,1078,1077,-1
1073,1076,1067,-1
1086,1081,1078,-1
1087,1080,1079,-1
1090,1068,1082,-1
1089,1079,1081,-1
1088,1092,1080,-1
1069,1083,1063,-1
1070,1064,1084,-1
1073,1084,1076,-1
1069,1070,1084,-1
1061,1037,1083,-1
1062,1085,1077,-1
1069,1084,1083,-1
1061,1083,1062,-1
1083,1084,1085,-1
1062,1083,1085,-1
1086,1085,1084,-1
1086,1078,1085,-1
1074,1068,1090,-1
1073,1074,1084,-1
1074,1086,1084,-1
1074,1090,1086,-1
1087,1079,1089,-1
1087,1088,1080,-1
1086,1089,1081,-1
1090,1082,1093,-1
1088,1094,1092,-1
1087,1089,1088,-1
1086,1090,1089,-1
1088,1089,1090,-1
1088,1090,1094,-1
1093,1082,1091,-1
1094,1091,1092,-1
1093,1091,1094,-1
1090,1093,1094,-1
1099,1095,1096,-1
1100,1101,1097,-1
1106,1096,1102,-1
1098,1095,1099,-1
1099,1096,1106,-1
1100,1099,1106,-1
1105,835,1101,-1
846,1104,836,-1
1107,1102,1103,-1
1108,1103,1104,-1
1100,1105,1101,-1
845,835,1105,-1
1106,1102,1107,-1
846,1108,1104,-1
1107,1103,1108,-1
1100,1106,1105,-1
845,1105,846,-1
846,1105,1106,-1
846,1106,1108,-1
1106,1107,1108,-1
1134,1111,1112,-1
1135,1112,1113,-1
1136,1122,1114,-1
1137,1114,1115,-1
1138,1115,1116,-1
1133,1117,1111,-1
1139,1119,1117,-1
1140,1116,1118,-1
1142,1118,1120,-1
1141,1197,1119,-1
1210,1120,1198,-1
1143,1113,1121,-1
1144,1123,1122,-1
1146,1121,1124,-1
1145,1125,1123,-1
1147,1126,1125,-1
1148,1128,1126,-1
1149,1124,1127,-1
1150,1129,1128,-1
1152,1127,1130,-1
1151,1130,1129,-1
1153,1207,1131,-1
1154,1131,1132,-1
1133,1111,1134,-1
1135,1134,1112,-1
1136,1114,1137,-1
1135,1113,1143,-1
1138,1137,1115,-1
1133,1134,1138,-1
1135,1137,1134,-1
1135,1136,1137,-1
1135,1143,1136,-1
1134,1137,1138,-1
1133,1139,1117,-1
1138,1116,1140,-1
1140,1118,1142,-1
1139,1141,1119,-1
1141,1209,1197,-1
1142,1120,1210,-1
1133,1140,1139,-1
1133,1138,1140,-1
1139,1140,1141,-1
1141,1140,1142,-1
1141,1142,1209,-1
1142,1210,1209,-1
1136,1144,1122,-1
1143,1121,1146,-1
1144,1145,1123,-1
1145,1147,1125,-1
1146,1124,1149,-1
1147,1148,1126,-1
1148,1150,1128,-1
1150,1151,1129,-1
1149,1127,1152,-1
1151,1152,1130,-1
1136,1143,1144,-1
1143,1145,1144,-1
1143,1146,1145,-1
1145,1146,1147,-1
1146,1148,1147,-1
1146,1149,1148,-1
1148,1149,1150,-1
1150,1152,1151,-1
1149,1152,1150,-1
1153,1131,1154,-1
1153,1154,1219,-1
1176,1156,1155,-1
1177,1157,1156,-1
1183,1155,1162,-1
1179,1163,1158,-1
1180,1158,1159,-1
1178,1235,1157,-1
1181,1161,1160,-1
1187,1159,1166,-1
1247,1160,1236,-1
1184,1162,1163,-1
1185,1165,1164,-1
1189,1166,1168,-1
1182,1167,1161,-1
1188,1169,1167,-1
1194,1168,1173,-1
1190,1170,1169,-1
1191,1171,1170,-1
1192,1172,1171,-1
1195,1173,1174,-1
1196,1174,1175,-1
1176,1177,1156,-1
1177,1178,1157,-1
1176,1155,1183,-1
1179,1184,1163,-1
1179,1158,1180,-1
1176,1178,1177,-1
1176,1179,1178,-1
1176,1183,1179,-1
1179,1183,1184,-1
1178,1179,1180,-1
1178,1180,1181,-1
1178,1246,1235,-1
1180,1159,1187,-1
1181,1182,1161,-1
1181,1160,1247,-1
1178,1181,1246,-1
1180,1182,1181,-1
1180,1187,1182,-1
1181,1247,1246,-1
1183,1162,1184,-1
1185,1186,1165,-1
1187,1166,1189,-1
1182,1188,1167,-1
1189,1168,1194,-1
1188,1190,1169,-1
1190,1191,1170,-1
1191,1192,1171,-1
1192,1193,1172,-1
1194,1173,1195,-1
1195,1174,1196,-1
1196,1175,1252,-1
1187,1188,1182,-1
1187,1189,1188,-1
1188,1189,1190,-1
1189,1194,1190,-1
1190,1194,1191,-1
1194,1195,1191,-1
1191,1195,1192,-1
1195,1196,1192,-1
1192,1196,1193,-1
1193,1196,1252,-1
1209,1199,1197,-1
1212,1198,1200,-1
1211,1202,1199,-1
1213,1200,1201,-1
1216,1203,1204,-1
1215,1201,1203,-1
1214,1206,1202,-1
1217,1204,1205,-1
1219,1205,1207,-1
1218,1208,1206,-1
1220,1132,1208,-1
1210,1198,1212,-1
1209,1211,1199,-1
1212,1200,1213,-1
1210,1211,1209,-1
1210,1212,1211,-1
1212,1214,1211,-1
1211,1214,1202,-1
1215,1203,1216,-1
1213,1201,1215,-1
1214,1218,1206,-1
1216,1204,1217,-1
1217,1205,1219,-1
1153,1219,1207,-1
1154,1132,1220,-1
1218,1220,1208,-1
1212,1213,1214,-1
1213,1215,1214,-1
1214,1215,1218,-1
1215,1216,1218,-1
1216,1217,1218,-1
1217,1220,1218,-1
1154,1220,1219,-1
1217,1219,1220,-1
1227,650,1221,-1
1229,1221,1223,-1
1228,1223,1222,-1
1231,1224,1225,-1
1227,1221,1229,-1
1228,1227,1229,-1
1228,1229,1223,-1
655,1227,1228,-1
1263,1231,1225,-1
1230,1224,1231,-1
1230,1231,1232,-1
1231,1264,1232,-1
1244,1234,1233,-1
1246,1233,1235,-1
1245,1238,1234,-1
1248,1236,1237,-1
1250,1237,1239,-1
1249,1241,1238,-1
1251,1239,1240,-1
1193,1240,1172,-1
1252,1175,1241,-1
1253,1243,1242,-1
1244,1245,1234,-1
1244,1233,1246,-1
1245,1249,1238,-1
1247,1236,1248,-1
1244,1246,1245,-1
1245,1246,1249,-1
1246,1247,1249,-1
1247,1248,1249,-1
1248,1237,1250,-1
1250,1239,1251,-1
1193,1251,1240,-1
1249,1252,1241,-1
1253,1254,1243,-1
1248,1250,1249,-1
1249,1250,1252,-1
1250,1251,1252,-1
1193,1252,1251,-1
1266,1255,1258,-1
1263,1225,1255,-1
1264,1257,1256,-1
1232,1256,1226,-1
1265,1260,1257,-1
1267,1258,1259,-1
1268,1261,1260,-1
1269,1262,1261,-1
1270,1300,1262,-1
1263,1255,1266,-1
1263,1266,1265,-1
1265,1257,1264,-1
1264,1256,1232,-1
1263,1264,1231,-1
1263,1265,1264,-1
1266,1258,1267,-1
1265,1266,1268,-1
1266,1269,1268,-1
1266,1267,1269,-1
1269,1267,1270,-1
1265,1268,1260,-1
1268,1269,1261,-1
1269,1270,1262,-1
1270,1313,1300,-1
1267,1313,1270,-1
1186,1271,1165,-1
1280,1164,1273,-1
1279,1274,1272,-1
1281,1273,1274,-1
1292,1285,1271,-1
1293,1272,1286,-1
1294,1277,1287,-1
1282,1286,1275,-1
1283,1275,1276,-1
1284,1290,1277,-1
1298,1276,1291,-1
1185,1164,1280,-1
1186,1278,1271,-1
1279,1272,1293,-1
1279,1281,1274,-1
1280,1273,1281,-1
1185,1278,1186,-1
1185,1280,1278,-1
1278,1280,1279,-1
1278,1279,1293,-1
1279,1280,1281,-1
1278,1292,1271,-1
1282,1293,1286,-1
1278,1293,1292,-1
1284,1294,1293,-1
1282,1275,1283,-1
1283,1276,1298,-1
1282,1283,1293,-1
1284,1277,1294,-1
1284,1297,1290,-1
1284,1293,1283,-1
1284,1283,1298,-1
1284,1298,1297,-1
1292,1242,1285,-1
1254,1287,1243,-1
1295,1289,1288,-1
1297,1288,1290,-1
1296,1326,1289,-1
1253,1242,1292,-1
1254,1294,1287,-1
1253,1292,1254,-1
1254,1292,1294,-1
1292,1293,1294,-1
1295,1296,1289,-1
1295,1288,1297,-1
1296,1328,1326,-1
1298,1291,1327,-1
1295,1297,1296,-1
1296,1297,1298,-1
1296,1298,1328,-1
1312,1259,1299,-1
1313,1301,1300,-1
1314,1302,1301,-1
1315,1303,1302,-1
1316,1299,1303,-1
1318,1304,1305,-1
1341,1305,1329,-1
1320,1307,1304,-1
1319,1309,1306,-1
1320,1308,1307,-1
1321,1306,1308,-1
1322,1310,1309,-1
1323,1311,1310,-1
1324,1331,1311,-1
1267,1259,1312,-1
1313,1314,1301,-1
1314,1315,1302,-1
1315,1316,1303,-1
1312,1299,1316,-1
1267,1312,1313,-1
1313,1312,1314,-1
1312,1316,1314,-1
1314,1316,1315,-1
1317,1304,1318,-1
1318,1305,1341,-1
1317,1318,1322,-1
1318,1324,1323,-1
1318,1341,1324,-1
1317,1320,1304,-1
1319,1306,1321,-1
1320,1321,1308,-1
1319,1322,1309,-1
1322,1323,1310,-1
1323,1324,1311,-1
1317,1319,1320,-1
1317,1322,1319,-1
1319,1321,1320,-1
1318,1323,1322,-1
1327,1291,1325,-1
1328,1325,1326,-1
1327,1325,1328,-1
1298,1327,1328,-1
1342,1329,1330,-1
1343,1332,1331,-1
1344,1333,1332,-1
1349,1330,1337,-1
1345,1334,1333,-1
1346,1335,1334,-1
1348,1340,1336,-1
1350,1337,1338,-1
1351,1338,1339,-1
1341,1329,1342,-1
1342,1330,1349,-1
1324,1341,1343,-1
1341,1344,1343,-1
1341,1342,1344,-1
1324,1343,1331,-1
1343,1344,1332,-1
1344,1345,1333,-1
1345,1346,1334,-1
1346,1347,1335,-1
1344,1342,1345,-1
1342,1349,1345,-1
1349,1346,1345,-1
1349,1337,1350,-1
1350,1338,1351,-1
1351,1339,1448,-1
1348,1352,1340,-1
1349,1350,1346,-1
1346,1350,1347,-1
1347,1350,1351,-1
1365,1222,1361,-1
1230,1353,1224,-1
1357,1355,1353,-1
1358,1226,1354,-1
1360,1354,1356,-1
1359,1364,1355,-1
1228,1222,1365,-1
1228,1365,715,-1
1230,1357,1353,-1
1358,1232,1226,-1
1358,1354,1360,-1
1230,1232,1358,-1
1230,1358,1357,-1
1357,1358,1359,-1
1357,1359,1355,-1
1359,1368,1364,-1
1358,1360,1359,-1
1359,1360,1368,-1
1368,1360,1370,-1
1366,1361,1362,-1
1367,1362,1363,-1
1368,1371,1364,-1
714,1367,1363,-1
1365,1361,1366,-1
1366,1362,1367,-1
715,1365,1367,-1
1365,1366,1367,-1
1370,1356,1369,-1
1360,1356,1370,-1
1380,1369,1372,-1
1379,1375,1371,-1
1381,1372,1373,-1
1382,1373,1374,-1
1383,1378,1375,-1
1384,1374,1376,-1
1385,1376,1377,-1
1368,1379,1371,-1
1370,1369,1380,-1
1380,1372,1381,-1
1379,1383,1375,-1
1368,1370,1379,-1
1370,1380,1379,-1
1379,1380,1383,-1
1381,1373,1382,-1
1382,1374,1384,-1
1385,1384,1376,-1
1383,1386,1378,-1
1380,1381,1383,-1
1383,1381,1382,-1
1382,1384,1386,-1
1385,1386,1384,-1
1383,1382,1386,-1
1394,1387,1388,-1
1393,1399,1387,-1
1395,1390,1389,-1
1396,1420,1390,-1
1398,1391,1392,-1
1393,1387,1394,-1
1394,1388,1410,-1
1393,1394,1409,-1
1395,1389,1436,-1
1395,1396,1390,-1
1395,1436,1396,-1
1397,1391,1398,-1
1398,1392,1413,-1
1397,1398,1413,-1
1409,1377,1399,-1
1410,1388,1400,-1
1386,1400,1378,-1
1397,1401,1391,-1
1413,1392,1403,-1
1411,1402,1401,-1
1414,1403,1404,-1
1415,1404,1405,-1
1416,1405,1406,-1
1412,1407,1402,-1
1417,1408,1407,-1
1418,1455,1408,-1
1385,1377,1409,-1
1393,1409,1399,-1
1386,1410,1400,-1
1385,1410,1386,-1
1385,1409,1410,-1
1394,1410,1409,-1
1397,1411,1401,-1
1411,1412,1402,-1
1413,1403,1414,-1
1414,1404,1415,-1
1415,1405,1416,-1
1412,1417,1407,-1
1417,1418,1408,-1
1397,1413,1411,-1
1413,1412,1411,-1
1413,1414,1412,-1
1414,1415,1417,-1
1415,1416,1418,-1
1414,1417,1412,-1
1415,1418,1417,-1
1416,1461,1418,-1
1436,1389,1419,-1
1441,1419,1424,-1
1437,1427,1420,-1
1347,1422,1335,-1
1439,1423,1422,-1
1440,1424,1423,-1
1438,1425,1421,-1
1443,1421,1426,-1
1444,1428,1427,-1
1445,1429,1428,-1
1446,1430,1429,-1
1447,1457,1430,-1
1448,1339,1431,-1
1449,1431,1432,-1
1442,1432,1425,-1
1450,1426,1433,-1
1451,1433,1434,-1
1452,1434,1435,-1
1396,1437,1420,-1
1436,1419,1441,-1
1437,1444,1427,-1
1347,1439,1422,-1
1440,1423,1439,-1
1441,1424,1440,-1
1438,1421,1443,-1
1442,1425,1438,-1
1443,1426,1450,-1
1436,1437,1396,-1
1436,1441,1438,-1
1436,1438,1444,-1
1436,1444,1437,-1
1440,1439,1449,-1
1441,1440,1442,-1
1441,1442,1438,-1
1438,1443,1444,-1
1440,1449,1442,-1
1444,1445,1428,-1
1445,1446,1429,-1
1446,1447,1430,-1
1447,1463,1457,-1
1444,1443,1445,-1
1445,1443,1450,-1
1445,1450,1446,-1
1446,1451,1447,-1
1447,1452,1463,-1
1448,1431,1449,-1
1442,1449,1432,-1
1347,1448,1439,-1
1439,1448,1449,-1
1347,1351,1448,-1
1450,1433,1451,-1
1451,1434,1452,-1
1464,1452,1435,-1
1446,1450,1451,-1
1447,1451,1452,-1
1459,1406,1453,-1
1460,1453,1454,-1
1461,1458,1455,-1
1463,1456,1457,-1
1462,1454,1456,-1
1464,1435,1458,-1
1416,1406,1459,-1
1459,1453,1460,-1
1462,1460,1454,-1
1418,1461,1455,-1
1462,1456,1463,-1
1461,1464,1458,-1
1416,1459,1461,-1
1459,1460,1461,-1
1461,1460,1464,-1
1462,1464,1460,-1
1462,1463,1464,-1
1463,1452,1464,-1
1352,1466,1340,-1
1471,1465,1467,-1
1469,1474,1465,-1
1470,1477,1466,-1
1472,1467,1468,-1
1475,1336,1473,-1
1348,1336,1475,-1
1469,1465,1471,-1
1352,1470,1466,-1
1471,1467,1472,-1
1348,1469,1352,-1
1352,1469,1470,-1
1469,1471,1470,-1
1348,1475,1469,-1
1471,1472,1470,-1
1470,1472,1489,-1
1472,1468,1493,-1
1469,1476,1474,-1
1475,1476,1469,-1
1476,1473,1474,-1
1475,1473,1476,-1
1491,1478,1479,-1
1489,1480,1477,-1
1493,1468,1481,-1
1492,1482,1480,-1
1494,1485,1482,-1
1495,1481,1483,-1
1496,1483,1484,-1
1528,1484,1525,-1
1497,1486,1485,-1
1498,1487,1486,-1
1499,1488,1487,-1
1470,1489,1477,-1
1490,1478,1491,-1
1491,1479,1513,-1
1490,1491,1513,-1
1489,1492,1480,-1
1493,1481,1495,-1
1492,1494,1482,-1
1494,1497,1485,-1
1495,1483,1496,-1
1496,1484,1528,-1
1472,1493,1489,-1
1489,1493,1492,-1
1493,1495,1492,-1
1492,1495,1494,-1
1494,1495,1496,-1
1494,1496,1497,-1
1497,1496,1528,-1
1497,1498,1486,-1
1498,1499,1487,-1
1499,1500,1488,-1
1497,1528,1498,-1
1498,1528,1529,-1
1498,1529,1499,-1
1529,1530,1499,-1
1499,1532,1500,-1
1499,1530,1532,-1
1490,1503,1478,-1
1513,1479,1501,-1
1514,1501,1502,-1
1515,1507,1503,-1
1516,1502,1504,-1
1517,1504,1505,-1
1518,1505,1506,-1
1519,1508,1507,-1
1522,1506,1510,-1
1521,1510,1509,-1
1520,1511,1508,-1
1500,1509,1488,-1
1524,1531,1512,-1
1523,1512,1511,-1
1490,1515,1503,-1
1513,1501,1514,-1
1515,1519,1507,-1
1514,1502,1516,-1
1516,1504,1517,-1
1517,1505,1518,-1
1519,1520,1508,-1
1490,1513,1515,-1
1513,1514,1515,-1
1515,1514,1519,-1
1514,1516,1519,-1
1516,1517,1519,-1
1517,1518,1520,-1
1519,1517,1520,-1
1518,1506,1522,-1
1521,1522,1510,-1
1520,1523,1511,-1
1521,1509,1500,-1
1523,1524,1512,-1
1518,1522,1520,-1
1521,1523,1522,-1
1520,1522,1523,-1
1521,1500,1524,-1
1521,1524,1523,-1
1500,1532,1524,-1
1529,1525,1526,-1
1530,1526,1527,-1
1532,1527,1531,-1
1528,1525,1529,-1
1529,1526,1530,-1
1530,1527,1532,-1
1532,1531,1524,-1
]

colorPerVertex FALSE

color Color { color [
 0 0 0,
 1 1 1,
 0.976471 0.843137 0.172549, # default colour
] }

colorIndex [
0 0 0 0 0 0 0 0 0 0 0 0 0 0 0 0 0 0 0 0 0 0 0 0 0 0 0 0 0 0 0 0 0 0 0 0 0 0 0 0 0 0 0 0 0 0 0 0 0 0 0 0 0 0 0 0 0 0 0 0 0 0 0 0 0 0 0 0 0 0 0 0 0 0 0 0 0 0 0 0 0 0 0 0 0 0 0 0 0 0 0 0 0 0 0 0 0 0 0 0 0 0 0 0 0 0 0 0 0 0 0 0 0 0 0 0 0 0 0 0 0 0 0 0 0 0 0 0 0 0 0 0 0 0 0 0 0 0 0 0 0 0 0 0 0 0 0 0 0 0 0 0 0 0 0 0 0 0 0 0 0 0 0 0 0 0 0 0 0 0 0 0 0 0 0 0 0 0 0 0 0 0 0 0 0 0 0 0 0 0 0 0 0 0 0 0 0 0 0 0 0 0 0 0 0 0 0 0 0 0 0 0 0 0 0 0 0 0 0 0 0 0 0 0 0 0 0 0 0 0 0 0 0 0 0 0 0 0 0 0 0 0 0 0 0 0 0 0 0 0 0 0 0 0 0 0 0 0 0 0 0 0 0 0 0 0 0 0 0 0 0 0 0 0 0 0 0 0 0 0 0 0 0 0 0 0 0 0 0 0 0 0 0 0 0 0 0 0 0 0 0 0 0 0 0 0 0 0 0 0 0 0 0 0 0 0 0 0 0 0 0 0 0 0 0 0 0 0 0 0 0 0 0 0 0 0 0 0 0 0 0 0 0 0 0 0 0 0 0 0 0 0 0 0 0 0 0 0 0 0 0 0 0 0 0 0 0 0 0 0 0 0 0 0 0 0 0 0 0 0 0 0 0 0 0 0 0 0 0 0 0 0 0 0 0 0 0 0 0 0 0 0 0 0 0 0 0 0 0 0 0 0 0 0 0 0 0 0 0 0 0 0 0 0 0 0 0 0 0 0 0 0 0 0 0 0 0 0 0 0 0 0 0 0 0 0 0 0 0 0 0 0 0 0 0 0 0 0 0 0 0 0 0 0 0 0 0 0 0 0 0 0 0 0 0 0 0 0 0 0 0 0 0 0 0 0 0 0 0 0 0 0 0 0 0 0 0 0 0 0 0 0 0 0 0 0 0 0 0 0 0 0 0 0 0 0 0 0 0 0 0 0 0 0 0 0 0 0 0 0 0 0 0 0 0 0 0 0 0 0 0 0 0 0 0 0 0 0 0 0 0 0 0 0 0 0 0 0 0 0 0 0 0 0 0 0 0 0 0 0 0 0 0 0 0 0 0 0 0 0 0 0 0 0 0 0 0 0 0 0 0 0 0 0 0 0 0 0 0 0 0 0 0 0 0 0 0 0 0 0 0 0 0 0 0 0 0 0 0 0 0 0 0 0 0 0 0 0 0 0 0 0 0 0 0 0 0 0 0 0 0 0 0 0 0 0 0 0 0 0 0 0 0 0 0 0 0 0 0 0 0 0 0 0 0 0 0 0 0 0 0 0 0 0 0 0 0 0 0 0 0 0 0 0 0 0 0 0 0 0 0 0 0 0 0 0 0 0 0 0 0 0 0 0 0 0 0 0 0 0 0 0 0 0 0 0 0 0 0 0 0 0 0 0 0 0 0 0 0 0 0 0 0 0 0 0 0 0 0 0 0 0 0 0 0 0 0 0 0 0 0 0 0 0 0 0 0 0 0 0 0 0 0 0 0 0 0 0 0 0 0 0 0 0 0 0 0 0 0 0 0 0 0 0 0 0 0 0 0 0 0 0 0 0 0 0 0 0 0 0 0 0 0 0 0 0 0 0 0 0 0 0 0 0 0 0 0 0 0 1 1 1 1 1 1 1 1 1 1 1 1 1 1 1 1 1 1 1 1 1 1 1 1 1 1 1 1 1 1 1 1 1 1 1 1 1 1 1 1 1 1 1 1 1 1 1 1 1 1 1 1 1 1 1 1 1 1 1 1 1 1 1 1 1 1 1 1 1 1 1 1 1 1 1 1 1 1 1 1 1 1 1 1 1 1 1 1 1 1 1 1 1 1 1 1 1 1 1 1 1 1 1 1 1 1 1 1 1 1 1 1 1 1 1 1 1 1 1 1 1 1 1 1 1 1 1 1 1 1 1 1 1 1 1 1 1 1 1 1 1 1 1 1 1 1 1 1 1 1 1 1 1 1 1 1 1 1 1 1 1 1 1 1 1 1 1 1 1 1 1 1 1 1 1 1 1 1 1 1 1 1 1 1 1 1 1 1 1 1 1 1 1 1 1 1 1 1 1 1 1 1 1 1 1 1 1 1 1 1 1 1 1 1 1 1 1 1 1 1 1 1 1 1 1 1 1 1 1 1 1 1 1 1 1 1 1 1 1 1 1 1 1 1 1 1 1 1 1 1 1 1 1 1 1 1 1 1 1 1 1 1 1 1 1 1 1 1 1 1 1 1 1 1 1 1 1 1 1 1 1 1 1 1 1 1 1 1 1 1 1 1 1 1 1 1 1 1 1 1 1 1 1 1 1 1 1 1 1 1 1 1 1 1 1 1 1 1 1 1 1 1 1 1 1 1 1 1 1 1 1 1 1 1 1 1 1 1 1 1 1 1 1 1 1 1 1 1 1 1 1 1 1 1 1 1 1 1 1 1 1 1 1 1 1 1 1 1 1 1 1 1 1 1 1 1 1 1 1 1 1 1 1 1 1 1 1 1 1 1 1 1 1 1 1 1 1 1 1 1 1 1 1 1 1 1 1 1 1 1 1 1 1 1 1 1 1 1 1 1 1 1 1 1 1 1 1 1 1 1 1 1 1 1 1 1 1 1 1 1 1 1 1 1 1 1 1 1 1 1 1 1 1 1 1 1 1 1 1 1 1 1 1 1 1 1 1 1 1 1 1 1 1 1 1 1 1 1 1 1 1 1 1 1 1 1 1 1 1 1 1 1 1 1 1 1 1 1 1 1 1 1 1 1 1 1 1 1 1 1 1 1 1 1 1 1 1 1 1 1 1 1 1 1 1 1 1 1 1 1 1 1 1 1 1 1 1 1 1 1 1 1 1 1 1 1 1 1 1 1 1 1 1 1 1 1 1 1 1 1 1 1 1 1 1 1 1 1 1 1 1 1 1 1 1 1 1 1 1 1 1 1 1 1 1 1 1 1 1 1 1 1 1 1 1 1 1 1 1 1 1 1 1 1 1 1 1 1 1 1 1 1 1 1 1 1 1 1 1 1 1 1 1 1 1 1 1 1 1 1 1 1 1 1 1 1 1 1 1 1 1 1 1 1 1 1 1 1 1 1 1 1 1 1 1 1 1 1 1 1 1 1 1 1 1 1 1 1 1 1 1 1 1 1 1 1 1 1 1 1 1 1 1 1 1 1 1 1 1 1 1 1 1 1 1 1 1 1 1 1 1 1 1 1 1 1 1 1 1 1 1 1 1 1 1 1 1 1 1 1 1 1 1 1 1 1 1 1 1 1 1 1 1 1 1 1 1 1 1 1 1 1 1 1 1 1 1 1 1 1 1 1 1 1 1 1 1 1 1 1 1 1 1 1 1 1 1 1 1 1 1 1 1 1 1 1 1 1 1 1 1 1 1 1 1 1 1 1 1 1 1 1 1 1 1 1 1 1 1 1 1 1 1 1 1 1 1 1 1 1 1 1 1 1 1 1 1 1 1 1 1 1 1 1 1 1 1 1 1 1 1 1 1 1 1 1 1 1 1 1 1 1 1 1 1 1 1 1 1 1 1 1 1 1 1 1 1 1 1 1 1 1 1 1 1 1 1 1 1 1 1 1 1 1 1 1 1 1 1 1 1 1 1 1 1 1 1 1 1 1 1 1 1 1 1 1 1 1 1 1 1 1 1 1 1 1 1 1 1 1 1 1 1 1 1 1 1 1 1 1 1 1 1 1 1 1 1 1 1 1 1 1 1 1 1 1 1 1 1 1 1 1 1 1 1 1 1 1 1 1 1 1 1 1 1 1 1 1 1 1 1 1 1 1 1 1 1 1 1 1 1 1 1 1 1 1 1 1 1 1 1 1 1 1 1 1 1 1 1 1 1 1 1 1 1 1 1 1 1 1 1 1 1 1 1 1 1 1 1 1 1 1 1 1 1 1 1 1 1 1 1 1 1 1 1 1 1 1 1 1 1 1 1 1 1 1 1 1 1 1 1 1 1 1 1 1 1 1 1 1 1 1 1 1 1 1 1 1 1 1 1 1 1 1 1 1 1 1 1 1 1 1 1 1 1 1 1 1 1 1 1 1 1 1 1 1 1 1 1 1 1 1 1 1 1 1 1 1 1 1 1 1 1 1 1 1 1 1 1 1 1 1 1 1 1 1 1 1 1 1 1 1 1 1 1 1 1 1 1 1 1 1 1 1 1 1 1 1 1 1 1 1 1 1 1 1 1 1 1 1 1 1 1 1 1 1 1 1 1 1 1 1 1 1 1 1 1 1 1 1 1 1 1 1 1 1 1 1 1 1 1 1 1 1 1 1 1 1 1 1 1 1 1 1 1 1 1 1 1 1 1 1 1 1 1 1 1 1 1 1 1 1 1 1 1 1 1 1 1 1 1 1 1 1 1 1 1 1 1 1 1 1 1 1 1 1 1 1 1 1 1 1 1 1 1 1 1 1 1 1 1 1 1 1 1 1 1 1 1 1 1 1 1 1 1 1 1 1 1 1 1 1 1 1 1 1 1 1 1 1 1 1 1 1 1 1 1 1 1 1 1 1 1 1 1 1 1 1 1 1 1 1 1 1 1 1 1 1 1 1 1 1 1 1 1 1 1 1 1 1 1 1 1 1 1 1 1 1 1 1 1 1 1 1 1 1 1 1 1 1 1 1 1 1 1 1 1 1 1 1 1 1 1 1 1 1 1 1 1 1 1 1 1 1 1 1 1 1 1 1 1 1 1 1 1 1 1 1 1 1 1 1 1 1 1 1 1 1 1 1 1 1 1 1 1 1 1 1 1 1 1 1 1 1 1 1 1 1 1 1 1 1 1 1 1 1 1 1 1 1 1 1 1 1 1 1 1 1 1 1 1 1 1 1 1 1 1 1 1 1 1 1 1 1 1 1 1 1 1 1 1 1 1 1 1 1 1 1 1 1 1 1 1 1 1 1 1 1 1 1 1 1 1 1 1 1 1 1 1 1 1 1 1 1 1 1 1 1 1 1 1 1 1 1 1 1 1 1 1 1 1 1 1 1 1 1 1 1 1 1 1 1 1 1 1 1 1 1 1 1 1 1 1 1 1 1 1 1 1 1 1 1 1 1 1 1 1 1 1 1 1 1 1 1 1 1 1 1 1 1 1 1 1 1 1 1 1 1 1 1 1 1 1 1 1 1 1 1 1 1 1 1 1 1 1 1 1 1 1 1 1 1 1 1 1 1 1 1 1 1 1 1 1 1 1 1 1 1 1 1 1 1 1 1 1 1 1 1 1 1 1 1 1 1 1 1 1 1 1 1 1 1 1 1 1 1 1 1 1 1 1 1 1 1 1 1 1 1 1 1 1 1 1 1 1 1 1 1 1 1 1 1 1 1 1 1 1 1 1 1 1 1 1 1 1 1 1 1 1 1 1 1 1 1 1 1 1 1 1 1 1 1 1 1 1 1 1 1 1 1 1 1 1 1 1 1 1 1 1 1 1 1 1 1 1 1 1 1 1 1 1 1 1 1 1 1 1 1 1 1 1 1 1 1 1 1 1 1 1 1 1 1 1 1 1 1 1 1 1 1 1 1 1 1 1 1 1 1 1 1 1 1 1 1 1 1 1 1 1 1 1 1 1 1 1 1 1 1 1 1 1 1 1 1 1 1 1 1 1 1 1 1 1 1 1 1 1 1 1 1 1 1 1 1 1 1 1 1 1 1 1 1 1 1 1 1 1 1 1 1 1 1 1 1 1 1 1 1 1 1 1 1 1 1 1 1 1 1 1 1 1 1 1 1 1 1 1 1 1 1 1 1 1 1 1 1 1 1 1 1 1 1 1 1 1 1 1 1 1 1 1 1 1 1 1 1 1 1 1 1 1 1 1 1 1 1 1 1 1 1 1 1 1 1 1 1 1 1 1 1 1 1 1 1 1 1 1 1 1 1 1 1 1 1 1 1 1 1 1 1 1 1 1 1 1 1 1 1 1 1 1 1 1 1 1 1 1 1 1 1 1 1 1 1 1 1 1 1 1 1 1 1 1 1 1 1 1 1 1 1 1 1 1 1 1 1 1 1 1 1 1 1 1 1 1 1 1 1 1 1 1 1 1 1 1 1 1 1 1 1 1 1 1 1 1 1 1 1 1 1 1 1 1 1 1 1 1 1 1 1 1 1 1 1 1 1 1 1 1 1 1 1 1 1 1 1 1 1 1 1 1 1 1 1 1 1 1 1 1 1 1 1 1 1 1 1 1 1 1 1 1 1 1 1 1 1 1 1 1 1 1 1 1 1 1 1 1 1 1 1 1 1 1 1 1 1 1 1 1 1 1 1 1 1 1 1 1 1 1 1 1 1 1 1 1 1 1 1 1 1 1 1 1 1 1 1 1 1 1 1 1 1 1 1 1 1 1 1 1 1 1 1 1 1 1 1 1 1 1 1 1 1 1 1 1 1 1 1 1 1 1 1 1 1 1 1 1 1 1 1 1 1 1 1 1 1 1 1 1 1 1 1 1 1 1 1 1 1 1 1 1 1 1 1 1 1 1 1 1 1 1 1 1 1 1 1 1 1 1 1 1 1 1 1 1 1 1 1 1 1 1 1 1 1 1 1 1 1 1 1 1 1 1 1 1 1 1 1 1 1 1 1 1 1 1 1 1 1 1 1 1 1 1 1 1 1 1 1 1 1 1 1 1 1 1 1 1 1 1 1 1 1 1 1 1 ]

}

}
