#VRML V2.0 utf8

Shape {

appearance Appearance { material Material {
ambientIntensity 0.3
diffuseColor 0.97647 0.843137 0.172549
specularColor 0.2 0.2 0.2
shininess 0.3
} }

geometry IndexedFaceSet {

creaseAngle 0.5

coord Coordinate { point [
0 0 0,
0 0 1,
0.863172 0.928571 1,
0.863172 0.945258 1,
0.930234 0.953759 1,
0.930234 1.09292 1,
0.734403 1.33409 1,
0.734403 1.35078 1,
0.781941 1.3259 1,
0.856245 1.3259 1,
0.912916 1.33409 1,
0.912916 1.35078 1,
0.990999 0.953759 1,
1.05806 0.928571 1,
1.05806 0.945258 1,
0.990999 1.09481 1,
0.977461 1.13101 1,
1.03917 1.33409 1,
1.03917 1.35078 1,
1.09269 1.3259 1,
1.13016 1.3259 1,
1.17644 1.33409 1,
1.17644 1.35078 1,
1.20009 1.33409 1,
1.20009 1.35078 1,
1.24762 1.3259 1,
0.863172 0.928571 1.2,
0.863172 0.945258 1.2,
0.930234 0.953759 1.2,
0.930234 1.09292 1.2,
0.734403 1.33409 1.2,
0.734403 1.35078 1.2,
0.781941 1.3259 1.2,
0.856245 1.3259 1.2,
0.912916 1.33409 1.2,
0.912916 1.35078 1.2,
0.990999 0.953759 1.2,
1.05806 0.928571 1.2,
1.05806 0.945258 1.2,
0.990999 1.09481 1.2,
0.977461 1.13101 1.2,
1.03917 1.33409 1.2,
1.03917 1.35078 1.2,
1.09269 1.3259 1.2,
1.13016 1.3259 1.2,
1.17644 1.33409 1.2,
1.17644 1.35078 1.2,
1.20009 1.33409 1.2,
1.20009 1.35078 1.2,
1.24762 1.3259 1.2,
1.32886 0.928571 1,
1.32886 0.945258 1,
1.39592 0.953759 1,
1.39592 1.09292 1,
1.45668 0.953759 1,
1.52374 0.928571 1,
1.52374 0.945258 1,
1.45668 1.09481 1,
1.44314 1.13101 1,
1.32193 1.3259 1,
1.3786 1.33409 1,
1.3786 1.35078 1,
1.50485 1.33409 1,
1.50485 1.35078 1,
1.55838 1.3259 1,
1.83578 0.918812 1,
1.85247 0.918812 1,
1.85877 1.02838 1,
1.59584 1.3259 1,
1.64212 1.33409 1,
1.65916 1.33409 1,
1.64212 1.35078 1,
1.65916 1.35078 1,
1.69599 1.3259 1,
1.75833 1.3259 1,
1.82036 1.33409 1,
1.82036 1.35078 1,
1.32886 0.928571 1.2,
1.32886 0.945258 1.2,
1.39592 0.953759 1.2,
1.39592 1.09292 1.2,
1.45668 0.953759 1.2,
1.52374 0.928571 1.2,
1.52374 0.945258 1.2,
1.45668 1.09481 1.2,
1.44314 1.13101 1.2,
1.32193 1.3259 1.2,
1.3786 1.33409 1.2,
1.3786 1.35078 1.2,
1.50485 1.33409 1.2,
1.50485 1.35078 1.2,
1.55838 1.3259 1.2,
1.83578 0.918812 1.2,
1.85247 0.918812 1.2,
1.85877 1.02838 1.2,
1.59584 1.3259 1.2,
1.64212 1.33409 1.2,
1.65916 1.33409 1.2,
1.64212 1.35078 1.2,
1.65916 1.35078 1.2,
1.69599 1.3259 1.2,
1.75833 1.3259 1.2,
1.82036 1.33409 1.2,
1.82036 1.35078 1.2,
1.96487 1.20973 1,
2.07443 0.918812 1,
2.09112 0.918812 1,
2.09616 1.02838 1,
1.97243 1.32118 1,
1.9866 1.32118 1,
2.12607 1.33409 1,
2.12607 1.35078 1,
2.44441 0.918812 1,
2.4611 0.918812 1,
2.4674 1.02838 1,
2.19187 1.3259 1,
2.22902 1.3259 1,
2.26586 1.33409 1,
2.26779 1.33409 1,
2.26586 1.35078 1,
2.26779 1.35078 1,
2.30463 1.3259 1,
2.36697 1.3259 1,
2.42899 1.33409 1,
2.42899 1.35078 1,
1.96487 1.20973 1.2,
2.07443 0.918812 1.2,
2.09112 0.918812 1.2,
2.09616 1.02838 1.2,
1.97243 1.32118 1.2,
1.9866 1.32118 1.2,
2.12607 1.33409 1.2,
2.12607 1.35078 1.2,
2.44441 0.918812 1.2,
2.4611 0.918812 1.2,
2.4674 1.02838 1.2,
2.19187 1.3259 1.2,
2.22902 1.3259 1.2,
2.26586 1.33409 1.2,
2.26779 1.33409 1.2,
2.26586 1.35078 1.2,
2.26779 1.35078 1.2,
2.30463 1.3259 1.2,
2.36697 1.3259 1.2,
2.42899 1.33409 1.2,
2.42899 1.35078 1.2,
1.77172 1.85714 1,
1.77172 1.87383 1,
1.81958 1.88233 1,
1.85389 1.88233 1,
1.77172 1.85714 1.2,
1.77172 1.87383 1.2,
1.81958 1.88233 1.2,
1.85389 1.88233 1.2,
1.32933 2.8353 1,
1.39797 2.79339 1,
1.42446 2.81578 1,
1.48927 2.77942 1,
1.4899 2.80366 1,
1.52477 2.80582 1,
1.55759 2.81232 1,
1.28635 2.9024 1,
1.27203 2.99194 1,
1.34755 2.9115 1,
1.37672 2.85214 1,
1.33783 2.99257 1,
1.2858 3.08761 1,
1.32713 3.15676 1,
1.34712 3.07931 1,
1.37498 3.13991 1,
1.39553 3.19867 1,
1.42308 3.17557 1,
1.49305 3.18746 1,
1.523 3.18561 1,
1.49053 3.21264 1,
1.5524 3.18006 1,
1.55877 3.20863 1,
1.56633 2.78438 1,
1.58609 2.82243 1,
1.60797 2.83546 1,
1.63819 2.79925 1,
1.69836 2.78571 1,
1.69836 2.8024 1,
1.74842 2.8109 1,
1.80918 2.8109 1,
1.61962 2.89843 1,
1.64008 2.89843 1,
1.61301 3.10433 1,
1.63379 3.10433 1,
1.57975 3.17112 1,
1.60356 3.15912 1,
1.6319 3.19658 1,
1.69426 3.19124 1,
1.69426 3.20792 1,
1.80918 2.95132 1,
1.80918 2.97966 1,
1.84193 2.97966 1,
1.85672 2.95132 1,
1.74842 3.18305 1,
1.80918 3.17958 1,
1.84004 3.17958 1,
1.85357 3.20792 1,
1.32933 2.8353 1.2,
1.39797 2.79339 1.2,
1.42446 2.81578 1.2,
1.48927 2.77942 1.2,
1.4899 2.80366 1.2,
1.52477 2.80582 1.2,
1.55759 2.81232 1.2,
1.28635 2.9024 1.2,
1.27203 2.99194 1.2,
1.34755 2.9115 1.2,
1.37672 2.85214 1.2,
1.33783 2.99257 1.2,
1.2858 3.08761 1.2,
1.32713 3.15676 1.2,
1.34712 3.07931 1.2,
1.37498 3.13991 1.2,
1.39553 3.19867 1.2,
1.42308 3.17557 1.2,
1.49305 3.18746 1.2,
1.523 3.18561 1.2,
1.49053 3.21264 1.2,
1.5524 3.18006 1.2,
1.55877 3.20863 1.2,
1.56633 2.78438 1.2,
1.58609 2.82243 1.2,
1.60797 2.83546 1.2,
1.63819 2.79925 1.2,
1.69836 2.78571 1.2,
1.69836 2.8024 1.2,
1.74842 2.8109 1.2,
1.80918 2.8109 1.2,
1.61962 2.89843 1.2,
1.64008 2.89843 1.2,
1.61301 3.10433 1.2,
1.63379 3.10433 1.2,
1.57975 3.17112 1.2,
1.60356 3.15912 1.2,
1.6319 3.19658 1.2,
1.69426 3.19124 1.2,
1.69426 3.20792 1.2,
1.80918 2.95132 1.2,
1.80918 2.97966 1.2,
1.84193 2.97966 1.2,
1.85672 2.95132 1.2,
1.74842 3.18305 1.2,
1.80918 3.17958 1.2,
1.84004 3.17958 1.2,
1.85357 3.20792 1.2,
1.91057 1.85714 1,
1.91057 1.87383 1,
1.8964 2.00417 1,
2.04784 1.85714 1,
2.04784 1.87383 1,
2.10451 1.88233 1,
2.06263 2.00417 1,
2.17283 1.88233 1,
1.90584 2.03251 1,
1.96346 2.28281 1,
1.97825 2.23748 1,
2.02328 2.28281 1,
2.05287 2.03251 1,
2.22635 1.85714 1,
2.22635 1.87383 1,
2.25378 1.85714 1,
2.25378 1.87383 1,
2.30383 1.88233 1,
2.3646 1.88233 1,
2.42851 1.85714 1,
2.42851 1.87383 1,
2.24968 2.26266 1,
2.24968 2.27935 1,
2.30383 2.25447 1,
2.3646 2.04227 1,
2.3646 2.07061 1,
2.42032 2.07061 1,
2.44047 2.04227 1,
2.46854 2.07584 1,
2.3646 2.25101 1,
2.41843 2.25101 1,
2.43197 2.27935 1,
2.46846 2.24593 1,
1.91057 1.85714 1.2,
1.91057 1.87383 1.2,
1.8964 2.00417 1.2,
2.04784 1.85714 1.2,
2.04784 1.87383 1.2,
2.10451 1.88233 1.2,
2.06263 2.00417 1.2,
2.17283 1.88233 1.2,
1.90584 2.03251 1.2,
1.96346 2.28281 1.2,
1.97825 2.23748 1.2,
2.02328 2.28281 1.2,
2.05287 2.03251 1.2,
2.22635 1.85714 1.2,
2.22635 1.87383 1.2,
2.25378 1.85714 1.2,
2.25378 1.87383 1.2,
2.30383 1.88233 1.2,
2.3646 1.88233 1.2,
2.42851 1.85714 1.2,
2.42851 1.87383 1.2,
2.24968 2.26266 1.2,
2.24968 2.27935 1.2,
2.30383 2.25447 1.2,
2.3646 2.04227 1.2,
2.3646 2.07061 1.2,
2.42032 2.07061 1.2,
2.44047 2.04227 1.2,
2.46854 2.07584 1.2,
2.3646 2.25101 1.2,
2.41843 2.25101 1.2,
2.43197 2.27935 1.2,
2.46846 2.24593 1.2,
1.87625 2.78571 1,
1.87625 2.8024 1,
2.05289 2.78571 1,
2.05289 2.8024 1,
2.10705 2.8109 1,
2.1401 2.8109 1,
1.88817 2.98572 1,
1.92154 2.95974 1,
1.92048 3.0039 1,
1.93949 3.03578 1,
1.96928 2.98501 1,
1.99868 3.02649 1,
1.94582 3.08293 1,
1.93976 3.12748 1,
1.88907 3.17399 1,
1.92158 3.15723 1,
2.00848 3.08356 1,
1.96975 3.17683 1,
2.05289 3.19124 1,
2.05289 3.20792 1,
2.10705 3.18305 1,
2.1401 3.16542 1,
2.18072 3.20792 1,
2.19677 2.78571 1,
2.19677 2.8024 1,
2.40048 2.78571 1,
2.43102 2.78571 1,
2.34129 3.19124 1,
2.34129 3.20792 1,
2.39796 2.89528 1,
2.39796 3.18305 1,
2.43102 3.18305 1,
2.48518 3.19124 1,
2.48518 3.20792 1,
1.87625 2.78571 1.2,
1.87625 2.8024 1.2,
2.05289 2.78571 1.2,
2.05289 2.8024 1.2,
2.10705 2.8109 1.2,
2.1401 2.8109 1.2,
1.88817 2.98572 1.2,
1.92154 2.95974 1.2,
1.92048 3.0039 1.2,
1.93949 3.03578 1.2,
1.96928 2.98501 1.2,
1.99868 3.02649 1.2,
1.94582 3.08293 1.2,
1.93976 3.12748 1.2,
1.88907 3.17399 1.2,
1.92158 3.15723 1.2,
2.00848 3.08356 1.2,
1.96975 3.17683 1.2,
2.05289 3.19124 1.2,
2.05289 3.20792 1.2,
2.10705 3.18305 1.2,
2.1401 3.16542 1.2,
2.18072 3.20792 1.2,
2.19677 2.78571 1.2,
2.19677 2.8024 1.2,
2.40048 2.78571 1.2,
2.43102 2.78571 1.2,
2.34129 3.19124 1.2,
2.34129 3.20792 1.2,
2.39796 2.89528 1.2,
2.39796 3.18305 1.2,
2.43102 3.18305 1.2,
2.48518 3.19124 1.2,
2.48518 3.20792 1.2,
0 6.5 0,
0.388831 4.64286 1,
0.388831 4.67289 1,
0.486309 4.68819 1,
0.545812 4.68819 1,
0.388831 4.64286 1.2,
0.388831 4.67289 1.2,
0.486309 4.68819 1.2,
0.545812 4.68819 1.2,
0.647819 4.64286 1,
0.647819 4.67289 1,
0.824071 4.64286 1,
0.843903 4.64286 1,
0.866007 4.82478 1,
1.04509 4.64286 1,
1.04509 4.67289 1,
1.1471 4.68819 1,
0.647819 4.64286 1.2,
0.647819 4.67289 1.2,
0.824071 4.64286 1.2,
0.843903 4.64286 1.2,
0.866007 4.82478 1.2,
1.04509 4.64286 1.2,
1.04509 4.67289 1.2,
1.1471 4.68819 1.2,
0.388831 5.3728 1,
0.388831 5.40283 1,
0.486309 5.35805 1,
0.545812 5.29629 1,
0.61892 5.40283 1,
0.5463 5.58159 1,
0.508709 5.63863 1,
0.602796 5.54236 1,
0.388831 5.3728 1.2,
0.388831 5.40283 1.2,
0.486309 5.35805 1.2,
0.545812 5.29629 1.2,
0.61892 5.40283 1.2,
0.5463 5.58159 1.2,
0.508709 5.63863 1.2,
0.602796 5.54236 1.2,
0 6.5 1,
0.496179 5.70512 1,
0.508891 5.77341 1,
0.547029 5.83007 1,
0.603707 5.86822 1,
0.496179 5.70512 1.2,
0.508891 5.77341 1.2,
0.547029 5.83007 1.2,
0.603707 5.86822 1.2,
0.672 5.52928 1,
0.741198 5.54236 1,
0.797679 5.58159 1,
0.835286 5.63863 1,
1.1471 5.29629 1,
1.13577 5.40283 1,
0.672 5.52928 1.2,
0.741198 5.54236 1.2,
0.797679 5.58159 1.2,
0.835286 5.63863 1.2,
1.1471 5.29629 1.2,
1.13577 5.40283 1.2,
0.672 5.88094 1,
0.740287 5.86822 1,
0.847821 5.70512 1,
0.835104 5.77341 1,
0.79695 5.83007 1,
0.672 5.88094 1.2,
0.740287 5.86822 1.2,
0.847821 5.70512 1.2,
0.835104 5.77341 1.2,
0.79695 5.83007 1.2,
1.28635 3.83097 1,
1.39797 3.72196 1,
1.32933 3.76387 1,
1.34755 3.84007 1,
1.37672 3.78072 1,
1.27203 3.92051 1,
1.2858 4.01618 1,
1.33783 3.92114 1,
1.34712 4.00788 1,
1.42446 3.74435 1,
1.48927 3.70799 1,
1.4899 3.73223 1,
1.52477 3.7344 1,
1.55759 3.74089 1,
1.56633 3.71295 1,
1.58609 3.751 1,
1.63819 3.72782 1,
1.60797 3.76403 1,
1.61962 3.827 1,
1.64008 3.827 1,
1.69836 3.71429 1,
1.69836 3.73097 1,
1.61301 4.03291 1,
1.63379 4.03291 1,
1.74842 3.73947 1,
1.80918 3.73947 1,
1.80918 3.87989 1,
1.80918 3.90823 1,
1.84193 3.90823 1,
1.85672 3.87989 1,
1.28635 3.83097 1.2,
1.39797 3.72196 1.2,
1.32933 3.76387 1.2,
1.34755 3.84007 1.2,
1.37672 3.78072 1.2,
1.27203 3.92051 1.2,
1.2858 4.01618 1.2,
1.33783 3.92114 1.2,
1.34712 4.00788 1.2,
1.42446 3.74435 1.2,
1.48927 3.70799 1.2,
1.4899 3.73223 1.2,
1.52477 3.7344 1.2,
1.55759 3.74089 1.2,
1.56633 3.71295 1.2,
1.58609 3.751 1.2,
1.63819 3.72782 1.2,
1.60797 3.76403 1.2,
1.61962 3.827 1.2,
1.64008 3.827 1.2,
1.69836 3.71429 1.2,
1.69836 3.73097 1.2,
1.61301 4.03291 1.2,
1.63379 4.03291 1.2,
1.74842 3.73947 1.2,
1.80918 3.73947 1.2,
1.80918 3.87989 1.2,
1.80918 3.90823 1.2,
1.84193 3.90823 1.2,
1.85672 3.87989 1.2,
1.32713 4.08533 1,
1.37498 4.06848 1,
1.39553 4.12724 1,
1.42308 4.10414 1,
1.49305 4.11603 1,
1.49053 4.14122 1,
1.523 4.11418 1,
1.5524 4.10863 1,
1.55877 4.1372 1,
1.35339 4.64286 1,
1.25591 4.68819 1,
1.35339 4.67289 1,
1.57975 4.0997 1,
1.60356 4.08769 1,
1.6319 4.12516 1,
1.69426 4.11981 1,
1.69426 4.13649 1,
1.74842 4.11162 1,
1.80918 4.10815 1,
1.84004 4.10815 1,
1.85357 4.13649 1,
1.71844 4.64286 1,
1.71844 4.67289 1,
1.80855 4.68819 1,
1.32713 4.08533 1.2,
1.37498 4.06848 1.2,
1.39553 4.12724 1.2,
1.42308 4.10414 1.2,
1.49305 4.11603 1.2,
1.49053 4.14122 1.2,
1.523 4.11418 1.2,
1.5524 4.10863 1.2,
1.55877 4.1372 1.2,
1.35339 4.64286 1.2,
1.25591 4.68819 1.2,
1.35339 4.67289 1.2,
1.57975 4.0997 1.2,
1.60356 4.08769 1.2,
1.6319 4.12516 1.2,
1.69426 4.11981 1.2,
1.69426 4.13649 1.2,
1.74842 4.11162 1.2,
1.80918 4.10815 1.2,
1.84004 4.10815 1.2,
1.85357 4.13649 1.2,
1.71844 4.64286 1.2,
1.71844 4.67289 1.2,
1.80855 4.68819 1.2,
1.87625 3.71429 1,
1.87625 3.73097 1,
1.88817 3.91429 1,
1.92154 3.88831 1,
1.92048 3.93247 1,
1.93949 3.96435 1,
1.94582 4.0115 1,
1.93976 4.05605 1,
1.96928 3.91358 1,
1.99868 3.95506 1,
2.00848 4.01213 1,
2.05289 3.71429 1,
2.05289 3.73097 1,
2.10705 3.73947 1,
2.1401 3.73947 1,
2.19677 3.71429 1,
2.19677 3.73097 1,
2.40048 3.71429 1,
2.39796 3.82385 1,
2.43102 3.71429 1,
1.87625 3.71429 1.2,
1.87625 3.73097 1.2,
1.88817 3.91429 1.2,
1.92154 3.88831 1.2,
1.92048 3.93247 1.2,
1.93949 3.96435 1.2,
1.94582 4.0115 1.2,
1.93976 4.05605 1.2,
1.96928 3.91358 1.2,
1.99868 3.95506 1.2,
2.00848 4.01213 1.2,
2.05289 3.71429 1.2,
2.05289 3.73097 1.2,
2.10705 3.73947 1.2,
2.1401 3.73947 1.2,
2.19677 3.71429 1.2,
2.19677 3.73097 1.2,
2.40048 3.71429 1.2,
2.39796 3.82385 1.2,
2.43102 3.71429 1.2,
1.88907 4.10256 1,
1.92158 4.0858 1,
1.96975 4.1054 1,
2.05289 4.11981 1,
2.05289 4.13649 1,
2.10705 4.11162 1,
2.1401 4.09399 1,
2.18072 4.13649 1,
1.91793 4.68819 1,
2.03864 4.64286 1,
2.03864 4.67289 1,
2.34129 4.11981 1,
2.34129 4.13649 1,
2.39796 4.11162 1,
2.43102 4.11162 1,
2.48518 4.11981 1,
2.48518 4.13649 1,
2.3651 4.64286 1,
2.3651 4.67289 1,
2.46258 4.68819 1,
1.88907 4.10256 1.2,
1.92158 4.0858 1.2,
1.96975 4.1054 1.2,
2.05289 4.11981 1.2,
2.05289 4.13649 1.2,
2.10705 4.11162 1.2,
2.1401 4.09399 1.2,
2.18072 4.13649 1.2,
1.91793 4.68819 1.2,
2.03864 4.64286 1.2,
2.03864 4.67289 1.2,
2.34129 4.11981 1.2,
2.34129 4.13649 1.2,
2.39796 4.11162 1.2,
2.43102 4.11162 1.2,
2.48518 4.11981 1.2,
2.48518 4.13649 1.2,
2.3651 4.64286 1.2,
2.3651 4.67289 1.2,
2.46258 4.68819 1.2,
1.25591 5.35805 1,
1.35339 5.3728 1,
1.35339 5.40283 1,
1.71107 5.3728 1,
1.71107 5.40283 1,
1.80855 5.35805 1,
1.25591 5.35805 1.2,
1.35339 5.3728 1.2,
1.35339 5.40283 1.2,
1.71107 5.3728 1.2,
1.71107 5.40283 1.2,
1.80855 5.35805 1.2,
1.91793 4.94095 1,
1.91793 4.99196 1,
2.0035 4.94095 1,
1.97686 4.99196 1,
2.0601 5.00287 1,
2.12017 4.95611 1,
2.11826 5.03559 1,
2.15247 5.09297 1,
2.16388 5.17784 1,
2.15297 5.25803 1,
1.91793 5.35182 1,
1.97346 5.35182 1,
1.99783 5.40283 1,
2.06173 5.34176 1,
2.12024 5.31158 1,
2.2061 5.00159 1,
2.25902 5.07625 1,
2.27666 5.17898 1,
2.20695 5.34687 1,
2.3651 5.3728 1,
2.3651 5.40283 1,
2.46258 5.35805 1,
1.91793 4.94095 1.2,
1.91793 4.99196 1.2,
2.0035 4.94095 1.2,
1.97686 4.99196 1.2,
2.0601 5.00287 1.2,
2.12017 4.95611 1.2,
2.11826 5.03559 1.2,
2.15247 5.09297 1.2,
2.16388 5.17784 1.2,
2.15297 5.25803 1.2,
1.91793 5.35182 1.2,
1.97346 5.35182 1.2,
1.99783 5.40283 1.2,
2.06173 5.34176 1.2,
2.12024 5.31158 1.2,
2.2061 5.00159 1.2,
2.25902 5.07625 1.2,
2.27666 5.17898 1.2,
2.20695 5.34687 1.2,
2.3651 5.3728 1.2,
2.3651 5.40283 1.2,
2.46258 5.35805 1.2,
5 0 0,
2.5735 1.20973 1,
2.68307 0.918812 1,
2.69975 0.918812 1,
2.70479 1.02838 1,
2.58106 1.32118 1,
2.59523 1.32118 1,
2.7347 1.33409 1,
2.7347 1.35078 1,
2.8005 1.3259 1,
2.89437 0.928571 1,
2.89437 0.945258 1,
2.94852 0.953759 1,
2.98158 0.953759 1,
3.03825 0.928571 1,
3.03825 0.945258 1,
2.83765 1.3259 1,
2.87449 1.33409 1,
2.87449 1.35078 1,
2.89437 1.33409 1,
2.89437 1.35078 1,
2.94852 1.3259 1,
2.98158 1.30827 1,
3.02219 1.35078 1,
2.5735 1.20973 1.2,
2.68307 0.918812 1.2,
2.69975 0.918812 1.2,
2.70479 1.02838 1.2,
2.58106 1.32118 1.2,
2.59523 1.32118 1.2,
2.7347 1.33409 1.2,
2.7347 1.35078 1.2,
2.8005 1.3259 1.2,
2.89437 0.928571 1.2,
2.89437 0.945258 1.2,
2.94852 0.953759 1.2,
2.98158 0.953759 1.2,
3.03825 0.928571 1.2,
3.03825 0.945258 1.2,
2.83765 1.3259 1.2,
2.87449 1.33409 1.2,
2.87449 1.35078 1.2,
2.89437 1.33409 1.2,
2.89437 1.35078 1.2,
2.94852 1.3259 1.2,
2.98158 1.30827 1.2,
3.02219 1.35078 1.2,
3.24195 0.928571 1,
3.27249 0.928571 1,
3.23943 1.03814 1,
3.36005 0.928571 1,
3.36005 0.945258 1,
3.4142 0.953759 1,
3.18276 1.33409 1,
3.18276 1.35078 1,
3.23943 1.3259 1,
3.27249 1.3259 1,
3.32665 1.33409 1,
3.32665 1.35078 1,
3.36005 1.33409 1,
3.36005 1.35078 1,
3.4142 1.3259 1,
3.44726 0.953759 1,
3.50393 0.928571 1,
3.50393 0.945258 1,
3.70764 0.928571 1,
3.73818 0.928571 1,
3.70512 1.03814 1,
3.44726 1.30827 1,
3.48788 1.35078 1,
3.64845 1.33409 1,
3.64845 1.35078 1,
3.70512 1.3259 1,
3.73818 1.3259 1,
3.24195 0.928571 1.2,
3.27249 0.928571 1.2,
3.23943 1.03814 1.2,
3.36005 0.928571 1.2,
3.36005 0.945258 1.2,
3.4142 0.953759 1.2,
3.18276 1.33409 1.2,
3.18276 1.35078 1.2,
3.23943 1.3259 1.2,
3.27249 1.3259 1.2,
3.32665 1.33409 1.2,
3.32665 1.35078 1.2,
3.36005 1.33409 1.2,
3.36005 1.35078 1.2,
3.4142 1.3259 1.2,
3.44726 0.953759 1.2,
3.50393 0.928571 1.2,
3.50393 0.945258 1.2,
3.70764 0.928571 1.2,
3.73818 0.928571 1.2,
3.70512 1.03814 1.2,
3.44726 1.30827 1.2,
3.48788 1.35078 1.2,
3.64845 1.33409 1.2,
3.64845 1.35078 1.2,
3.70512 1.3259 1.2,
3.73818 1.3259 1.2,
2.55917 1.85714 1,
2.61459 1.88233 1,
2.66023 1.85714 1,
2.66023 1.87383 1,
2.67979 1.85714 1,
2.67979 1.87383 1,
2.73394 1.88233 1,
2.767 1.88233 1,
2.5003 2.05109 1,
2.5365 2.06773 1,
2.50045 2.09154 1,
2.51828 2.11968 1,
2.5639 2.09375 1,
2.52422 2.16222 1,
2.51836 2.20343 1,
2.50077 2.2307 1,
2.57743 2.21772 1,
2.58113 2.12732 1,
2.58688 2.16664 1,
2.50092 2.27266 1,
2.54909 2.25258 1,
2.767 2.22016 1,
2.67979 2.26266 1,
2.67979 2.27935 1,
2.73394 2.25447 1,
2.80761 2.27935 1,
2.82367 1.85714 1,
2.82367 1.87383 1,
2.92159 1.85714 1,
2.9326 1.85714 1,
2.94488 1.95821 1,
3.04438 1.85714 1,
3.04438 1.87383 1,
3.10105 1.88233 1,
3.10105 2.22016 1,
3.09475 2.27935 1,
2.55917 1.85714 1.2,
2.61459 1.88233 1.2,
2.66023 1.85714 1.2,
2.66023 1.87383 1.2,
2.67979 1.85714 1.2,
2.67979 1.87383 1.2,
2.73394 1.88233 1.2,
2.767 1.88233 1.2,
2.5003 2.05109 1.2,
2.5365 2.06773 1.2,
2.50045 2.09154 1.2,
2.51828 2.11968 1.2,
2.5639 2.09375 1.2,
2.52422 2.16222 1.2,
2.51836 2.20343 1.2,
2.50077 2.2307 1.2,
2.57743 2.21772 1.2,
2.58113 2.12732 1.2,
2.58688 2.16664 1.2,
2.50092 2.27266 1.2,
2.54909 2.25258 1.2,
2.767 2.22016 1.2,
2.67979 2.26266 1.2,
2.67979 2.27935 1.2,
2.73394 2.25447 1.2,
2.80761 2.27935 1.2,
2.82367 1.85714 1.2,
2.82367 1.87383 1.2,
2.92159 1.85714 1.2,
2.9326 1.85714 1.2,
2.94488 1.95821 1.2,
3.04438 1.85714 1.2,
3.04438 1.87383 1.2,
3.10105 1.88233 1.2,
3.10105 2.22016 1.2,
3.09475 2.27935 1.2,
2.58375 2.8353 1,
2.65238 2.79339 1,
2.67887 2.81578 1,
2.74369 2.77942 1,
2.74432 2.80366 1,
2.77919 2.80582 1,
2.81201 2.81232 1,
2.54077 2.9024 1,
2.52645 2.99194 1,
2.60197 2.9115 1,
2.63113 2.85214 1,
2.59225 2.99257 1,
2.54022 3.08761 1,
2.60154 3.07931 1,
2.6294 3.13991 1,
2.58154 3.15676 1,
2.64994 3.19867 1,
2.67749 3.17557 1,
2.74747 3.18746 1,
2.74495 3.21264 1,
2.77742 3.18561 1,
2.80681 3.18006 1,
2.82075 2.78438 1,
2.8405 2.82243 1,
2.86238 2.83546 1,
2.89261 2.79925 1,
2.95278 2.78571 1,
2.95278 2.8024 1,
3.00284 2.8109 1,
3.0636 2.8109 1,
2.87403 2.89843 1,
2.8945 2.89843 1,
2.86742 3.10433 1,
2.8882 3.10433 1,
2.83417 3.17112 1,
2.81319 3.20863 1,
2.85798 3.15912 1,
2.88631 3.19658 1,
2.94868 3.19124 1,
2.94868 3.20792 1,
3.0636 2.95132 1,
3.0636 2.97966 1,
3.09634 2.97966 1,
3.11114 2.95132 1,
3.00284 3.18305 1,
3.0636 3.17958 1,
3.09445 3.17958 1,
3.10799 3.20792 1,
2.58375 2.8353 1.2,
2.65238 2.79339 1.2,
2.67887 2.81578 1.2,
2.74369 2.77942 1.2,
2.74432 2.80366 1.2,
2.77919 2.80582 1.2,
2.81201 2.81232 1.2,
2.54077 2.9024 1.2,
2.52645 2.99194 1.2,
2.60197 2.9115 1.2,
2.63113 2.85214 1.2,
2.59225 2.99257 1.2,
2.54022 3.08761 1.2,
2.60154 3.07931 1.2,
2.6294 3.13991 1.2,
2.58154 3.15676 1.2,
2.64994 3.19867 1.2,
2.67749 3.17557 1.2,
2.74747 3.18746 1.2,
2.74495 3.21264 1.2,
2.77742 3.18561 1.2,
2.80681 3.18006 1.2,
2.82075 2.78438 1.2,
2.8405 2.82243 1.2,
2.86238 2.83546 1.2,
2.89261 2.79925 1.2,
2.95278 2.78571 1.2,
2.95278 2.8024 1.2,
3.00284 2.8109 1.2,
3.0636 2.8109 1.2,
2.87403 2.89843 1.2,
2.8945 2.89843 1.2,
2.86742 3.10433 1.2,
2.8882 3.10433 1.2,
2.83417 3.17112 1.2,
2.81319 3.20863 1.2,
2.85798 3.15912 1.2,
2.88631 3.19658 1.2,
2.94868 3.19124 1.2,
2.94868 3.20792 1.2,
3.0636 2.95132 1.2,
3.0636 2.97966 1.2,
3.09634 2.97966 1.2,
3.11114 2.95132 1.2,
3.00284 3.18305 1.2,
3.0636 3.17958 1.2,
3.09445 3.17958 1.2,
3.10799 3.20792 1.2,
3.1615 1.88233 1,
3.21565 1.85714 1,
3.21565 1.87383 1,
3.1615 2.25447 1,
3.21565 2.26266 1,
3.21565 2.27935 1,
3.1615 1.88233 1.2,
3.21565 1.85714 1.2,
3.21565 1.87383 1.2,
3.1615 2.25447 1.2,
3.21565 2.26266 1.2,
3.21565 2.27935 1.2,
3.13066 2.78571 1,
3.13066 2.8024 1,
3.30731 2.78571 1,
3.30731 2.8024 1,
3.36146 2.8109 1,
3.39452 2.8109 1,
3.14258 2.98572 1,
3.17596 2.95974 1,
3.1749 3.0039 1,
3.1939 3.03578 1,
3.2237 2.98501 1,
3.2531 3.02649 1,
3.20024 3.08293 1,
3.19418 3.12748 1,
3.14349 3.17399 1,
3.176 3.15723 1,
3.2629 3.08356 1,
3.22417 3.17683 1,
3.30731 3.19124 1,
3.30731 3.20792 1,
3.36146 3.18305 1,
3.39452 3.16542 1,
3.43514 3.20792 1,
3.45119 2.78571 1,
3.45119 2.8024 1,
3.6549 2.78571 1,
3.68544 2.78571 1,
3.65238 2.89528 1,
3.59571 3.19124 1,
3.59571 3.20792 1,
3.65238 3.18305 1,
3.68544 3.18305 1,
3.73959 3.19124 1,
3.73959 3.20792 1,
3.13066 2.78571 1.2,
3.13066 2.8024 1.2,
3.30731 2.78571 1.2,
3.30731 2.8024 1.2,
3.36146 2.8109 1.2,
3.39452 2.8109 1.2,
3.14258 2.98572 1.2,
3.17596 2.95974 1.2,
3.1749 3.0039 1.2,
3.1939 3.03578 1.2,
3.2237 2.98501 1.2,
3.2531 3.02649 1.2,
3.20024 3.08293 1.2,
3.19418 3.12748 1.2,
3.14349 3.17399 1.2,
3.176 3.15723 1.2,
3.2629 3.08356 1.2,
3.22417 3.17683 1.2,
3.30731 3.19124 1.2,
3.30731 3.20792 1.2,
3.36146 3.18305 1.2,
3.39452 3.16542 1.2,
3.43514 3.20792 1.2,
3.45119 2.78571 1.2,
3.45119 2.8024 1.2,
3.6549 2.78571 1.2,
3.68544 2.78571 1.2,
3.65238 2.89528 1.2,
3.59571 3.19124 1.2,
3.59571 3.20792 1.2,
3.65238 3.18305 1.2,
3.68544 3.18305 1.2,
3.73959 3.19124 1.2,
3.73959 3.20792 1.2,
3.82573 0.928571 1,
3.82573 0.945258 1,
3.87989 0.953759 1,
3.91294 0.953759 1,
3.96962 0.928571 1,
3.96962 0.945258 1,
3.79233 1.33409 1,
3.79233 1.35078 1,
3.82573 1.33409 1,
3.82573 1.35078 1,
3.87989 1.3259 1,
3.91294 1.30827 1,
3.95356 1.35078 1,
4.17332 0.928571 1,
4.20386 0.928571 1,
4.1708 1.03814 1,
4.1708 1.13406 1,
4.11413 1.33409 1,
4.11413 1.35078 1,
4.1708 1.3259 1,
4.20386 1.3259 1,
4.25802 1.33409 1,
4.25802 1.35078 1,
3.82573 0.928571 1.2,
3.82573 0.945258 1.2,
3.87989 0.953759 1.2,
3.91294 0.953759 1.2,
3.96962 0.928571 1.2,
3.96962 0.945258 1.2,
3.79233 1.33409 1.2,
3.79233 1.35078 1.2,
3.82573 1.33409 1.2,
3.82573 1.35078 1.2,
3.87989 1.3259 1.2,
3.91294 1.30827 1.2,
3.95356 1.35078 1.2,
4.17332 0.928571 1.2,
4.20386 0.928571 1.2,
4.1708 1.03814 1.2,
4.11413 1.33409 1.2,
4.11413 1.35078 1.2,
4.1708 1.3259 1.2,
4.20386 1.3259 1.2,
4.25802 1.33409 1.2,
4.25802 1.35078 1.2,
5 0 1,
5 6.5 0,
2.54077 3.83097 1,
2.65238 3.72196 1,
2.58375 3.76387 1,
2.60197 3.84007 1,
2.63113 3.78072 1,
2.52645 3.92051 1,
2.54022 4.01618 1,
2.59225 3.92114 1,
2.60154 4.00788 1,
2.67887 3.74435 1,
2.74369 3.70799 1,
2.74432 3.73223 1,
2.77919 3.7344 1,
2.81201 3.74089 1,
2.82075 3.71295 1,
2.8405 3.751 1,
2.86238 3.76403 1,
2.87403 3.827 1,
2.89261 3.72782 1,
2.95278 3.71429 1,
2.95278 3.73097 1,
2.8945 3.827 1,
2.86742 4.03291 1,
2.8882 4.03291 1,
3.00284 3.73947 1,
3.0636 3.73947 1,
3.0636 3.87989 1,
3.0636 3.90823 1,
3.09634 3.90823 1,
3.11114 3.87989 1,
2.54077 3.83097 1.2,
2.65238 3.72196 1.2,
2.58375 3.76387 1.2,
2.60197 3.84007 1.2,
2.63113 3.78072 1.2,
2.52645 3.92051 1.2,
2.54022 4.01618 1.2,
2.59225 3.92114 1.2,
2.60154 4.00788 1.2,
2.67887 3.74435 1.2,
2.74369 3.70799 1.2,
2.74432 3.73223 1.2,
2.77919 3.7344 1.2,
2.81201 3.74089 1.2,
2.82075 3.71295 1.2,
2.8405 3.751 1.2,
2.86238 3.76403 1.2,
2.87403 3.827 1.2,
2.89261 3.72782 1.2,
2.95278 3.71429 1.2,
2.95278 3.73097 1.2,
2.8945 3.827 1.2,
2.86742 4.03291 1.2,
2.8882 4.03291 1.2,
3.00284 3.73947 1.2,
3.0636 3.73947 1.2,
3.0636 3.87989 1.2,
3.0636 3.90823 1.2,
3.09634 3.90823 1.2,
3.11114 3.87989 1.2,
2.58154 4.08533 1,
2.6294 4.06848 1,
2.64994 4.12724 1,
2.67749 4.10414 1,
2.74747 4.11603 1,
2.74495 4.14122 1,
2.80681 4.10863 1,
2.77742 4.11418 1,
2.57139 4.68819 1,
2.66887 4.64286 1,
2.66887 4.67289 1,
2.78308 4.8529 1,
2.83417 4.0997 1,
2.81319 4.1372 1,
2.85798 4.08769 1,
2.88631 4.12516 1,
2.94868 4.11981 1,
2.94868 4.13649 1,
3.00284 4.11162 1,
3.0636 4.10815 1,
3.09445 4.10815 1,
3.10799 4.13649 1,
2.86044 4.73211 1,
2.94573 4.76243 1,
2.89324 4.86926 1,
2.98399 4.65667 1,
3.03166 4.69698 1,
2.58154 4.08533 1.2,
2.6294 4.06848 1.2,
2.64994 4.12724 1.2,
2.67749 4.10414 1.2,
2.74747 4.11603 1.2,
2.74495 4.14122 1.2,
2.80681 4.10863 1.2,
2.77742 4.11418 1.2,
2.57139 4.68819 1.2,
2.66887 4.64286 1.2,
2.66887 4.67289 1.2,
2.78308 4.8529 1.2,
2.83417 4.0997 1.2,
2.81319 4.1372 1.2,
2.85798 4.08769 1.2,
2.88631 4.12516 1.2,
2.94868 4.11981 1.2,
2.94868 4.13649 1.2,
3.00284 4.11162 1.2,
3.0636 4.10815 1.2,
3.09445 4.10815 1.2,
3.10799 4.13649 1.2,
2.86044 4.73211 1.2,
2.94573 4.76243 1.2,
2.89324 4.86926 1.2,
2.98399 4.65667 1.2,
3.03166 4.69698 1.2,
3.13066 3.71429 1,
3.13066 3.73097 1,
3.14258 3.91429 1,
3.17596 3.88831 1,
3.1749 3.93247 1,
3.1939 3.96435 1,
3.20024 4.0115 1,
3.19418 4.05605 1,
3.2237 3.91358 1,
3.2531 3.95506 1,
3.2629 4.01213 1,
3.30731 3.71429 1,
3.30731 3.73097 1,
3.36146 3.73947 1,
3.39452 3.73947 1,
3.45119 3.71429 1,
3.45119 3.73097 1,
3.6549 3.71429 1,
3.65238 3.82385 1,
3.68544 3.71429 1,
3.13066 3.71429 1.2,
3.13066 3.73097 1.2,
3.14258 3.91429 1.2,
3.17596 3.88831 1.2,
3.1749 3.93247 1.2,
3.1939 3.96435 1.2,
3.20024 4.0115 1.2,
3.19418 4.05605 1.2,
3.2237 3.91358 1.2,
3.2531 3.95506 1.2,
3.2629 4.01213 1.2,
3.30731 3.71429 1.2,
3.30731 3.73097 1.2,
3.36146 3.73947 1.2,
3.39452 3.73947 1.2,
3.45119 3.71429 1.2,
3.45119 3.73097 1.2,
3.6549 3.71429 1.2,
3.65238 3.82385 1.2,
3.68544 3.71429 1.2,
3.14349 4.10256 1,
3.176 4.0858 1,
3.22417 4.1054 1,
3.30731 4.11981 1,
3.30731 4.13649 1,
3.36146 4.11162 1,
3.39452 4.09399 1,
3.43514 4.13649 1,
3.14833 4.63152 1,
3.14947 4.67516 1,
3.21223 4.67905 1,
3.27131 4.69074 1,
3.28704 4.64045 1,
3.41639 4.66723 1,
3.3226 4.70895 1,
3.36198 4.7324 1,
3.38295 4.84574 1,
3.41979 4.84574 1,
3.59571 4.11981 1,
3.59571 4.13649 1,
3.65238 4.11162 1,
3.68544 4.11162 1,
3.73959 4.11981 1,
3.73959 4.13649 1,
3.54566 4.65589 1,
3.53942 4.81571 1,
3.57682 4.81571 1,
3.64483 4.63762 1,
3.74967 4.63152 1,
3.60233 4.70916 1,
3.62904 4.69754 1,
3.66495 4.68763 1,
3.70412 4.68083 1,
3.74061 4.67856 1,
3.14349 4.10256 1.2,
3.176 4.0858 1.2,
3.22417 4.1054 1.2,
3.30731 4.11981 1.2,
3.30731 4.13649 1.2,
3.36146 4.11162 1.2,
3.39452 4.09399 1.2,
3.43514 4.13649 1.2,
3.14833 4.63152 1.2,
3.14947 4.67516 1.2,
3.21223 4.67905 1.2,
3.27131 4.69074 1.2,
3.28704 4.64045 1.2,
3.41639 4.66723 1.2,
3.3226 4.70895 1.2,
3.36198 4.7324 1.2,
3.38295 4.84574 1.2,
3.41979 4.84574 1.2,
3.59571 4.11981 1.2,
3.59571 4.13649 1.2,
3.65238 4.11162 1.2,
3.68544 4.11162 1.2,
3.73959 4.11981 1.2,
3.73959 4.13649 1.2,
3.54566 4.65589 1.2,
3.53942 4.81571 1.2,
3.57682 4.81571 1.2,
3.64483 4.63762 1.2,
3.74967 4.63152 1.2,
3.60233 4.70916 1.2,
3.62904 4.69754 1.2,
3.66495 4.68763 1.2,
3.70412 4.68083 1.2,
3.74061 4.67856 1.2,
2.7573 5.01406 1,
2.78209 5.18627 1,
2.57139 5.35805 1,
2.66887 5.3728 1,
2.66887 5.40283 1,
2.87574 5.01519 1,
2.89246 5.17132 1,
2.94262 5.28042 1,
2.85647 5.31073 1,
3.02918 5.3446 1,
2.97959 5.38618 1,
2.7573 5.01406 1.2,
2.78209 5.18627 1.2,
2.57139 5.35805 1.2,
2.66887 5.3728 1.2,
2.66887 5.40283 1.2,
2.87574 5.01519 1.2,
2.89246 5.17132 1.2,
2.94262 5.28042 1.2,
2.85647 5.31073 1.2,
3.02918 5.3446 1.2,
2.97959 5.38618 1.2,
3.37105 5.21637 1,
3.40846 5.21637 1,
3.15514 5.36599 1,
3.1506 5.41133 1,
3.20905 5.36266 1,
3.26196 5.35267 1,
3.27344 5.4041 1,
3.31119 5.33659 1,
3.35405 5.31499 1,
3.40506 5.38242 1,
3.56266 5.24074 1,
3.67316 5.01632 1,
3.67316 5.0628 1,
3.60006 5.24074 1,
3.56266 5.38696 1,
3.61989 5.33368 1,
3.64682 5.34594 1,
3.61493 5.39921 1,
3.65956 5.40651 1,
3.6777 5.3555 1,
3.70986 5.36167 1,
3.74061 5.36373 1,
3.70022 5.41012 1,
3.74061 5.41133 1,
3.37105 5.21637 1.2,
3.40846 5.21637 1.2,
3.15514 5.36599 1.2,
3.1506 5.41133 1.2,
3.20905 5.36266 1.2,
3.26196 5.35267 1.2,
3.27344 5.4041 1.2,
3.31119 5.33659 1.2,
3.35405 5.31499 1.2,
3.40506 5.38242 1.2,
3.56266 5.24074 1.2,
3.67316 5.01632 1.2,
3.67316 5.0628 1.2,
3.60006 5.24074 1.2,
3.56266 5.38696 1.2,
3.61989 5.33368 1.2,
3.64682 5.34594 1.2,
3.61493 5.39921 1.2,
3.65956 5.40651 1.2,
3.6777 5.3555 1.2,
3.70986 5.36167 1.2,
3.74061 5.36373 1.2,
3.70022 5.41012 1.2,
3.74061 5.41133 1.2,
3.86373 4.64598 1,
3.81797 4.68876 1,
3.87209 4.71936 1,
3.90397 4.77377 1,
3.94859 4.68933 1,
3.91459 4.85538 1,
4.0013 4.75833 1,
4.01886 4.84971 1,
4.11525 4.64286 1,
4.11525 4.72616 1,
4.18949 4.73013 1,
4.22066 4.82194 1,
4.2446 4.77958 1,
4.2966 4.82478 1,
3.86373 4.64598 1.2,
3.81797 4.68876 1.2,
3.87209 4.71936 1.2,
3.90397 4.77377 1.2,
3.94859 4.68933 1.2,
3.91459 4.85538 1.2,
4.0013 4.75833 1.2,
4.01886 4.84971 1.2,
4.11525 4.64286 1.2,
4.11525 4.72616 1.2,
4.18949 4.73013 1.2,
4.22066 4.82194 1.2,
4.2446 4.77958 1.2,
4.2966 4.82478 1.2,
4.58052 4.64286 1,
4.58052 4.73013 1,
4.58052 4.64286 1.2,
4.58052 4.73013 1.2,
3.75421 5.01179 1,
3.75421 5.06789 1,
3.82561 4.99911 1,
3.81824 5.04069 1,
3.90481 4.92119 1,
3.87548 4.969 1,
3.88859 5.06088 1,
3.80989 5.07951 1,
3.84885 5.10756 1,
3.8718 5.15319 1,
3.87945 5.21751 1,
3.90779 5.01994 1,
3.97013 4.98147 1,
4.00668 4.92487 1,
3.94093 5.09878 1,
3.97345 5.15354 1,
3.98429 5.22431 1,
3.8033 5.35501 1,
3.8463 5.32887 1,
3.87116 5.28361 1,
3.92337 5.36458 1,
4.14075 5.24074 1,
4.17815 5.24074 1,
4.30864 4.90241 1,
4.36971 4.96589 1,
4.19799 5.33368 1,
4.14075 5.38696 1,
4.2242 5.34594 1,
4.25409 5.3555 1,
4.28541 5.36167 1,
4.2361 5.40524 1,
4.31587 5.36373 1,
4.31587 5.41133 1,
3.75421 5.01179 1.2,
3.75421 5.06789 1.2,
3.82561 4.99911 1.2,
3.81824 5.04069 1.2,
3.90481 4.92119 1.2,
3.87548 4.969 1.2,
3.88859 5.06088 1.2,
3.80989 5.07951 1.2,
3.84885 5.10756 1.2,
3.8718 5.15319 1.2,
3.87945 5.21751 1.2,
3.90779 5.01994 1.2,
3.97013 4.98147 1.2,
4.00668 4.92487 1.2,
3.94093 5.09878 1.2,
3.97345 5.15354 1.2,
3.98429 5.22431 1.2,
3.8033 5.35501 1.2,
3.8463 5.32887 1.2,
3.87116 5.28361 1.2,
3.92337 5.36458 1.2,
4.14075 5.24074 1.2,
4.17815 5.24074 1.2,
4.30864 4.90241 1.2,
4.36971 4.96589 1.2,
4.19799 5.33368 1.2,
4.14075 5.38696 1.2,
4.2242 5.34594 1.2,
4.25409 5.3555 1.2,
4.28541 5.36167 1.2,
4.2361 5.40524 1.2,
4.31587 5.36373 1.2,
4.31587 5.41133 1.2,
4.39776 4.91396 1,
4.41058 5.02171 1,
4.46548 4.9809 1,
4.50989 5.03687 1,
4.43799 5.07923 1,
4.45033 5.27786 1,
4.45351 5.14185 1,
4.45868 5.21297 1,
4.54114 5.09311 1,
4.55963 5.15127 1,
4.56579 5.21297 1,
4.38118 5.35409 1,
4.42525 5.32518 1,
4.42503 5.39837 1,
4.50317 5.35947 1,
4.55013 5.29692 1,
4.39776 4.91396 1.2,
4.41058 5.02171 1.2,
4.46548 4.9809 1.2,
4.50989 5.03687 1.2,
4.43799 5.07923 1.2,
4.45033 5.27786 1.2,
4.45351 5.14185 1.2,
4.45868 5.21297 1.2,
4.54114 5.09311 1.2,
4.55963 5.15127 1.2,
4.56579 5.21297 1.2,
4.38118 5.35409 1.2,
4.42525 5.32518 1.2,
4.42503 5.39837 1.2,
4.50317 5.35947 1.2,
4.55013 5.29692 1.2,
5 6.5 1
] }

coordIndex [
1,3,6,-1
1,2,3,-1
1,13,2,-1
1,50,13,-1
1,55,50,-1
1,65,55,-1
1,66,65,-1
4,5,3,-1
8,6,3,-1
8,3,5,-1
9,16,10,-1
12,25,15,-1
13,53,14,-1
51,13,50,-1
12,14,25,-1
25,14,53,-1
16,19,10,-1
10,18,11,-1
18,10,17,-1
19,17,10,-1
15,25,20,-1
20,25,21,-1
21,24,22,-1
24,21,23,-1
25,23,21,-1
0,1,425,-1
1,6,385,-1
1,385,386,-1
7,385,6,-1
11,161,7,-1
11,18,154,-1
22,154,18,-1
22,24,154,-1
162,7,161,-1
11,154,161,-1
7,162,385,-1
0,1094,1,-1
1,105,66,-1
1,106,105,-1
1,112,106,-1
1,113,112,-1
1,702,113,-1
1,703,702,-1
52,13,51,-1
52,53,13,-1
54,56,73,-1
54,73,57,-1
58,60,59,-1
58,64,60,-1
60,63,61,-1
63,60,62,-1
64,62,60,-1
61,63,147,-1
55,65,56,-1
73,56,65,-1
57,69,68,-1
57,70,69,-1
57,73,70,-1
69,72,71,-1
72,69,70,-1
71,147,63,-1
147,71,72,-1
67,75,74,-1
75,108,76,-1
72,76,146,-1
104,66,105,-1
67,108,75,-1
76,108,250,-1
109,253,108,-1
107,110,109,-1
111,109,110,-1
107,115,110,-1
109,111,253,-1
119,253,111,-1
106,117,116,-1
106,121,118,-1
106,118,117,-1
121,106,112,-1
117,120,119,-1
120,117,118,-1
119,120,265,-1
124,265,120,-1
114,123,122,-1
114,705,123,-1
123,705,124,-1
61,154,24,-1
61,147,154,-1
72,146,147,-1
146,76,250,-1
148,259,147,-1
259,157,147,-1
154,147,155,-1
155,147,157,-1
156,187,164,-1
163,187,165,-1
164,187,163,-1
158,187,156,-1
159,188,158,-1
165,187,168,-1
168,187,169,-1
169,187,171,-1
171,187,172,-1
172,187,173,-1
259,177,157,-1
182,180,181,-1
180,182,183,-1
177,259,180,-1
180,259,181,-1
181,259,316,-1
160,188,159,-1
178,188,160,-1
179,188,178,-1
158,188,187,-1
179,185,188,-1
180,183,198,-1
186,192,185,-1
180,198,186,-1
190,175,187,-1
173,187,175,-1
175,190,189,-1
185,192,188,-1
198,192,186,-1
188,192,191,-1
193,191,192,-1
184,317,194,-1
194,317,197,-1
196,322,195,-1
322,324,195,-1
200,199,195,-1
330,200,195,-1
331,330,195,-1
250,108,253,-1
149,251,254,-1
149,254,252,-1
250,254,251,-1
254,250,253,-1
252,254,255,-1
252,255,256,-1
119,263,253,-1
258,262,260,-1
257,271,261,-1
272,261,271,-1
119,265,263,-1
263,266,264,-1
266,263,265,-1
264,273,257,-1
273,264,266,-1
267,273,266,-1
265,124,269,-1
124,801,269,-1
268,270,274,-1
274,270,277,-1
269,801,270,-1
270,801,277,-1
257,273,271,-1
282,275,276,-1
280,279,275,-1
282,280,275,-1
276,278,815,-1
278,811,812,-1
276,816,282,-1
276,815,816,-1
261,316,259,-1
261,318,316,-1
316,319,317,-1
319,316,318,-1
318,261,339,-1
197,317,323,-1
317,319,323,-1
324,325,195,-1
325,328,195,-1
323,319,326,-1
326,320,327,-1
329,331,195,-1
328,329,195,-1
332,334,333,-1
335,333,334,-1
320,326,319,-1
327,320,332,-1
320,336,332,-1
340,337,321,-1
334,332,336,-1
261,341,339,-1
261,272,880,-1
341,261,342,-1
339,341,340,-1
261,880,342,-1
281,873,272,-1
272,873,880,-1
337,340,341,-1
345,343,338,-1
344,338,343,-1
342,880,881,-1
342,881,885,-1
342,885,347,-1
345,346,343,-1
348,347,885,-1
0,425,384,-1
0,384,1095,-1
384,425,1095,-1
1,386,409,-1
1,409,410,-1
1,410,425,-1
166,385,162,-1
167,385,166,-1
167,456,385,-1
385,461,393,-1
462,395,393,-1
393,395,394,-1
412,394,395,-1
461,385,456,-1
462,393,461,-1
395,462,396,-1
516,396,462,-1
518,396,516,-1
521,396,518,-1
396,531,398,-1
399,396,398,-1
438,396,399,-1
387,411,386,-1
411,409,386,-1
394,412,388,-1
426,410,415,-1
413,414,410,-1
415,410,414,-1
413,416,414,-1
425,410,426,-1
425,426,427,-1
425,427,428,-1
425,428,429,-1
425,429,446,-1
425,446,447,-1
439,413,397,-1
416,413,434,-1
439,434,413,-1
439,435,434,-1
439,436,435,-1
436,439,437,-1
400,438,399,-1
437,439,448,-1
448,646,449,-1
646,448,439,-1
170,458,167,-1
167,458,456,-1
170,457,458,-1
174,457,170,-1
176,457,174,-1
191,457,176,-1
193,466,457,-1
465,478,460,-1
467,478,465,-1
468,479,467,-1
459,478,463,-1
460,478,459,-1
463,478,464,-1
464,478,517,-1
191,193,457,-1
193,470,466,-1
193,472,470,-1
193,476,472,-1
201,476,193,-1
201,564,476,-1
469,479,468,-1
471,479,469,-1
473,479,471,-1
477,472,476,-1
472,477,480,-1
467,479,478,-1
473,474,479,-1
472,533,475,-1
475,531,474,-1
472,480,533,-1
474,531,479,-1
533,531,475,-1
481,565,482,-1
482,565,485,-1
484,566,483,-1
566,568,483,-1
570,534,483,-1
524,396,521,-1
530,396,524,-1
396,530,531,-1
517,478,519,-1
519,478,520,-1
520,478,522,-1
532,398,531,-1
398,532,525,-1
525,532,527,-1
644,527,536,-1
522,478,523,-1
523,529,528,-1
529,523,478,-1
479,531,530,-1
536,527,532,-1
570,535,534,-1
644,536,606,-1
644,606,537,-1
333,564,201,-1
333,335,564,-1
338,564,335,-1
338,344,564,-1
344,575,564,-1
564,576,565,-1
485,565,567,-1
565,576,567,-1
576,564,575,-1
567,576,572,-1
568,569,483,-1
570,483,569,-1
570,571,535,-1
572,577,573,-1
577,572,576,-1
580,610,578,-1
573,577,609,-1
573,609,574,-1
575,344,349,-1
888,579,575,-1
575,349,888,-1
579,888,889,-1
579,892,581,-1
579,581,580,-1
610,580,581,-1
582,615,611,-1
583,1096,1101,-1
582,617,615,-1
583,1101,1102,-1
583,1102,619,-1
583,619,618,-1
604,535,571,-1
604,571,605,-1
574,607,606,-1
608,606,607,-1
606,608,537,-1
611,537,608,-1
607,574,609,-1
611,616,537,-1
620,537,616,-1
537,1156,613,-1
612,614,656,-1
656,614,658,-1
613,622,614,-1
658,614,661,-1
614,622,661,-1
616,611,615,-1
537,620,1156,-1
613,1156,1158,-1
613,1158,1161,-1
613,1172,621,-1
622,613,621,-1
644,526,527,-1
644,538,645,-1
449,646,648,-1
645,648,646,-1
644,537,538,-1
645,538,647,-1
539,649,538,-1
649,647,538,-1
648,645,647,-1
659,660,657,-1
667,666,657,-1
669,667,657,-1
660,662,657,-1
662,663,657,-1
663,664,657,-1
664,665,657,-1
670,669,657,-1
665,670,657,-1
661,622,671,-1
671,677,672,-1
672,677,673,-1
677,671,622,-1
623,677,622,-1
673,675,674,-1
676,674,675,-1
675,673,677,-1
1518,447,450,-1
425,447,1518,-1
1518,450,449,-1
0,700,1094,-1
0,1095,700,-1
700,1095,1094,-1
1,1094,703,-1
113,702,701,-1
703,717,716,-1
124,705,801,-1
706,801,705,-1
801,706,708,-1
704,707,706,-1
708,706,707,-1
704,709,707,-1
718,805,708,-1
711,703,710,-1
703,711,721,-1
703,719,717,-1
703,721,719,-1
712,721,711,-1
714,747,715,-1
715,722,713,-1
722,715,747,-1
717,720,718,-1
720,717,719,-1
718,720,829,-1
723,829,720,-1
723,754,832,-1
1094,710,703,-1
1094,714,710,-1
751,748,750,-1
748,751,761,-1
748,757,756,-1
748,759,757,-1
748,761,759,-1
752,761,751,-1
749,753,723,-1
754,723,753,-1
749,755,753,-1
758,970,754,-1
757,760,758,-1
760,757,759,-1
758,760,970,-1
769,970,760,-1
763,765,764,-1
764,768,762,-1
768,764,765,-1
970,769,771,-1
1056,970,771,-1
767,770,769,-1
771,769,770,-1
767,772,770,-1
801,708,803,-1
802,810,809,-1
708,805,803,-1
718,827,805,-1
806,803,805,-1
803,806,804,-1
804,825,802,-1
825,804,806,-1
807,825,806,-1
828,822,808,-1
278,812,814,-1
278,814,815,-1
802,825,810,-1
810,825,813,-1
818,823,819,-1
819,823,817,-1
813,825,818,-1
817,823,824,-1
817,874,821,-1
817,824,874,-1
823,818,825,-1
718,829,827,-1
723,830,829,-1
827,829,828,-1
822,828,829,-1
830,723,832,-1
833,830,832,-1
830,833,835,-1
834,835,833,-1
831,836,826,-1
820,873,281,-1
821,874,820,-1
820,874,873,-1
874,824,876,-1
826,876,824,-1
876,826,895,-1
875,877,883,-1
882,877,884,-1
348,885,888,-1
888,349,348,-1
882,883,877,-1
878,884,877,-1
884,878,879,-1
896,886,884,-1
886,903,887,-1
884,879,896,-1
886,896,897,-1
886,897,903,-1
887,903,890,-1
890,904,891,-1
891,904,893,-1
895,826,836,-1
898,900,904,-1
900,898,899,-1
895,836,974,-1
904,890,903,-1
905,904,906,-1
904,900,911,-1
893,904,894,-1
909,894,904,-1
909,904,905,-1
909,907,894,-1
904,911,906,-1
917,911,900,-1
906,911,910,-1
901,917,900,-1
902,982,913,-1
913,982,916,-1
915,987,914,-1
919,918,914,-1
995,919,914,-1
832,754,970,-1
969,971,973,-1
970,1056,971,-1
971,1056,973,-1
969,973,972,-1
895,974,1065,-1
895,1065,898,-1
898,1071,899,-1
973,1061,974,-1
973,1056,1058,-1
1061,973,1058,-1
1067,898,1066,-1
1065,1066,898,-1
899,1071,981,-1
981,1071,983,-1
983,1071,1004,-1
981,984,982,-1
984,981,983,-1
916,982,988,-1
987,989,914,-1
989,990,914,-1
990,993,914,-1
982,984,988,-1
988,984,991,-1
991,985,992,-1
993,994,914,-1
994,996,914,-1
996,995,914,-1
997,999,998,-1
1000,998,999,-1
985,991,984,-1
992,985,997,-1
985,1001,997,-1
1005,1002,986,-1
999,997,1001,-1
1004,1006,1005,-1
1002,1005,1006,-1
1008,1009,1003,-1
1010,1003,1009,-1
1008,1011,1009,-1
1007,1013,1012,-1
1094,747,714,-1
1094,748,747,-1
1094,750,748,-1
1094,763,750,-1
1094,765,763,-1
1094,766,765,-1
1094,1049,766,-1
1094,1053,1049,-1
1050,766,1049,-1
766,1050,1059,-1
766,1055,773,-1
766,1057,1055,-1
766,1059,1057,-1
1051,1059,1050,-1
1053,1062,1054,-1
1054,1060,1052,-1
1060,1054,1062,-1
1055,1058,1056,-1
1058,1055,1057,-1
1065,974,1061,-1
1065,1061,1064,-1
1063,1070,1069,-1
1065,1068,1066,-1
1094,1014,1071,-1
1094,1062,1053,-1
1094,1063,1062,-1
1094,1070,1063,-1
1094,1071,1070,-1
1071,898,1067,-1
1004,1071,1006,-1
1006,1071,1007,-1
1007,1071,1013,-1
1013,1071,1014,-1
1094,1416,1014,-1
1094,1417,1416,-1
579,889,892,-1
581,892,583,-1
583,910,1098,-1
583,892,908,-1
583,908,910,-1
910,911,1098,-1
911,1097,1098,-1
912,1106,1097,-1
583,1098,1096,-1
1105,1118,1100,-1
1107,1118,1105,-1
1108,1119,1107,-1
1099,1118,1103,-1
1100,1118,1099,-1
1103,1118,1104,-1
1104,1118,1157,-1
912,1097,911,-1
912,1110,1106,-1
912,1114,1110,-1
912,1115,1114,-1
920,1115,912,-1
920,1210,1115,-1
1109,1119,1108,-1
1111,1119,1109,-1
1112,1119,1111,-1
1116,1114,1115,-1
1114,1116,1120,-1
1107,1119,1118,-1
1112,1113,1119,-1
1117,1172,1113,-1
1114,1174,1117,-1
1114,1120,1174,-1
1113,1172,1119,-1
1174,1172,1117,-1
1121,1211,1122,-1
1122,1211,1125,-1
1124,1212,1123,-1
1176,1175,1123,-1
1250,1176,1123,-1
619,1102,1156,-1
619,1156,620,-1
613,1161,1169,-1
613,1169,1171,-1
613,1171,1172,-1
1157,1118,1159,-1
1159,1118,1160,-1
1160,1118,1163,-1
621,1172,1173,-1
1173,1165,621,-1
1165,1178,1166,-1
1166,1318,1164,-1
1167,1166,1178,-1
1166,1167,1318,-1
1163,1118,1162,-1
1170,1162,1118,-1
1170,1168,1162,-1
1119,1172,1171,-1
1173,1181,1165,-1
1178,1165,1181,-1
1181,1173,1258,-1
998,1210,920,-1
998,1000,1210,-1
1000,1221,1210,-1
1003,1221,1000,-1
1003,1225,1221,-1
1210,1222,1211,-1
1125,1211,1213,-1
1222,1210,1221,-1
1211,1222,1213,-1
1213,1222,1218,-1
1212,1214,1123,-1
1214,1215,1123,-1
1215,1216,1123,-1
1216,1217,1123,-1
1251,1250,1123,-1
1217,1251,1123,-1
1218,1223,1219,-1
1223,1218,1222,-1
1226,1256,1224,-1
1219,1223,1220,-1
1223,1255,1220,-1
1003,1010,1225,-1
1010,1227,1225,-1
1010,1229,1227,-1
1256,1226,1227,-1
1225,1227,1226,-1
1228,1268,1257,-1
1228,1270,1268,-1
1229,1272,1271,-1
1220,1253,1252,-1
1254,1252,1253,-1
1177,1274,1173,-1
1253,1220,1255,-1
1252,1274,1177,-1
1252,1254,1274,-1
1257,1274,1254,-1
1258,1173,1262,-1
1262,1173,1263,-1
1259,1340,1182,-1
1260,1341,1259,-1
1274,1263,1173,-1
1261,1341,1260,-1
1264,1341,1261,-1
1269,1257,1268,-1
1274,1257,1269,-1
1273,1277,1269,-1
1273,1278,1277,-1
1263,1274,1275,-1
1263,1275,1267,-1
1276,1267,1275,-1
1274,1269,1277,-1
1279,1280,1281,-1
1279,1282,1276,-1
1279,1281,1282,-1
1267,1276,1393,-1
1283,1276,1282,-1
1389,1276,1283,-1
1424,1267,1393,-1
425,1518,1095,-1
1164,1321,1320,-1
1164,1318,1319,-1
1164,1319,1321,-1
1321,1326,1322,-1
1326,1321,1319,-1
1180,1340,1323,-1
1179,1340,1180,-1
1182,1340,1179,-1
1323,1340,1324,-1
1324,1340,1325,-1
1325,1340,1327,-1
1328,1322,1326,-1
1343,1322,1328,-1
1518,449,648,-1
1518,648,668,-1
1518,668,674,-1
1259,1341,1340,-1
1265,1341,1264,-1
1265,1266,1341,-1
1267,1341,1266,-1
1327,1340,1342,-1
1342,1340,1344,-1
1344,1340,1345,-1
1345,1348,1347,-1
1348,1345,1340,-1
1267,1351,1341,-1
1341,1352,1350,-1
1352,1341,1351,-1
1351,1267,1420,-1
1420,1267,1422,-1
1422,1267,1425,-1
1425,1267,1424,-1
1350,1352,1353,-1
1421,1353,1352,-1
1427,1353,1421,-1
1341,1354,1349,-1
1354,1341,1350,-1
1353,1356,1355,-1
1356,1353,1359,-1
1359,1353,1360,-1
1360,1353,1361,-1
1361,1353,1437,-1
1437,1353,1438,-1
1518,674,676,-1
1518,676,1322,-1
1518,1322,1343,-1
1094,1095,1518,-1
1014,1416,1010,-1
1010,1416,1229,-1
1229,1416,1272,-1
1272,1416,1273,-1
1278,1273,1388,-1
1388,1273,1392,-1
1390,1276,1389,-1
1391,1276,1390,-1
1393,1276,1391,-1
1273,1396,1392,-1
1392,1397,1394,-1
1397,1392,1396,-1
1396,1273,1416,-1
1394,1397,1399,-1
1394,1399,1395,-1
1443,1395,1399,-1
1398,1417,1400,-1
1400,1417,1401,-1
1094,1518,1417,-1
1401,1417,1486,-1
1486,1417,1488,-1
1423,1431,1426,-1
1428,1353,1427,-1
1429,1353,1428,-1
1430,1353,1429,-1
1439,1353,1430,-1
1426,1431,1432,-1
1426,1432,1434,-1
1435,1441,1436,-1
1438,1353,1439,-1
1436,1446,1440,-1
1395,1443,1433,-1
1433,1444,1432,-1
1434,1432,1444,-1
1434,1444,1435,-1
1441,1435,1442,-1
1435,1492,1442,-1
1433,1443,1444,-1
1487,1435,1444,-1
1490,1435,1487,-1
1492,1435,1490,-1
1493,1442,1492,-1
1491,1442,1493,-1
1446,1436,1441,-1
1442,1447,1445,-1
1447,1442,1448,-1
1448,1442,1449,-1
1449,1442,1451,-1
1451,1442,1497,-1
1497,1442,1498,-1
1498,1442,1491,-1
1518,1343,1346,-1
1518,1346,1349,-1
1518,1349,1354,-1
1518,1354,1357,-1
1518,1357,1358,-1
1518,1358,1362,-1
1518,1362,1363,-1
1518,1363,1440,-1
1518,1440,1446,-1
1488,1417,1489,-1
1489,1417,1494,-1
1518,1494,1417,-1
1518,1495,1494,-1
1518,1496,1495,-1
1518,1501,1496,-1
1518,1446,1450,-1
1518,1450,1452,-1
1518,1452,1499,-1
1518,1499,1500,-1
1518,1500,1501,-1
26,3,2,-1
27,4,3,-1
28,5,4,-1
29,8,5,-1
26,27,3,-1
27,28,4,-1
26,2,37,-1
26,28,27,-1
28,29,5,-1
33,40,16,-1
33,29,40,-1
30,7,6,-1
32,6,8,-1
31,11,7,-1
33,16,9,-1
34,9,10,-1
35,10,11,-1
30,31,7,-1
30,6,32,-1
30,32,31,-1
32,8,29,-1
31,35,11,-1
33,9,34,-1
34,10,35,-1
32,29,33,-1
31,32,33,-1
31,33,35,-1
33,34,35,-1
37,2,13,-1
36,14,12,-1
38,13,14,-1
39,12,15,-1
40,19,16,-1
36,12,39,-1
36,38,14,-1
37,13,38,-1
26,37,28,-1
28,36,29,-1
28,37,36,-1
36,37,38,-1
39,15,44,-1
36,39,29,-1
29,39,40,-1
40,39,43,-1
44,15,20,-1
41,18,17,-1
43,17,19,-1
42,22,18,-1
45,20,21,-1
46,21,22,-1
47,24,23,-1
49,23,25,-1
40,43,19,-1
41,42,18,-1
41,17,43,-1
39,44,43,-1
41,43,42,-1
42,43,44,-1
42,46,22,-1
44,20,45,-1
45,21,46,-1
47,48,24,-1
47,23,49,-1
42,44,46,-1
44,45,46,-1
47,49,48,-1
77,51,50,-1
78,52,51,-1
79,53,52,-1
80,25,53,-1
82,50,55,-1
81,56,54,-1
83,55,56,-1
84,54,57,-1
85,64,58,-1
77,78,51,-1
78,79,52,-1
77,50,82,-1
77,79,78,-1
79,80,53,-1
86,85,58,-1
80,85,86,-1
81,54,84,-1
81,83,56,-1
82,55,83,-1
77,82,79,-1
79,81,80,-1
79,82,81,-1
81,82,83,-1
84,57,95,-1
80,81,84,-1
80,84,85,-1
84,91,85,-1
48,61,24,-1
86,58,59,-1
87,59,60,-1
88,60,61,-1
95,57,68,-1
89,63,62,-1
91,62,64,-1
90,71,63,-1
80,49,25,-1
48,88,61,-1
86,59,87,-1
87,60,88,-1
80,86,49,-1
48,49,86,-1
48,86,88,-1
86,87,88,-1
85,91,64,-1
89,90,63,-1
89,62,91,-1
84,95,91,-1
89,91,90,-1
90,91,95,-1
93,65,66,-1
92,73,65,-1
92,65,93,-1
100,73,92,-1
94,67,101,-1
100,92,93,-1
100,93,94,-1
96,68,69,-1
98,69,71,-1
97,72,70,-1
100,70,73,-1
101,67,74,-1
103,76,72,-1
102,74,75,-1
103,75,76,-1
90,98,71,-1
95,68,96,-1
96,69,98,-1
97,99,72,-1
97,70,100,-1
99,103,72,-1
90,95,98,-1
95,96,98,-1
97,100,99,-1
99,100,101,-1
101,74,102,-1
102,75,103,-1
100,94,101,-1
99,101,103,-1
101,102,103,-1
125,66,104,-1
94,108,67,-1
127,105,106,-1
126,104,105,-1
128,115,107,-1
137,106,116,-1
93,66,125,-1
126,125,104,-1
93,125,94,-1
94,125,129,-1
125,128,129,-1
126,105,127,-1
128,107,130,-1
127,106,137,-1
126,128,125,-1
126,127,137,-1
126,137,128,-1
130,107,109,-1
129,109,108,-1
131,111,110,-1
136,110,115,-1
132,119,111,-1
94,129,108,-1
129,130,109,-1
128,130,129,-1
128,136,115,-1
131,132,111,-1
131,110,136,-1
128,137,136,-1
131,136,132,-1
132,136,137,-1
134,112,113,-1
133,121,112,-1
133,112,134,-1
133,142,121,-1
134,113,724,-1
135,114,143,-1
133,134,142,-1
134,135,142,-1
138,116,117,-1
140,117,119,-1
139,120,118,-1
142,118,121,-1
141,124,120,-1
143,114,122,-1
144,122,123,-1
145,123,124,-1
132,140,119,-1
137,116,138,-1
138,117,140,-1
139,141,120,-1
139,118,142,-1
132,137,140,-1
137,138,140,-1
139,142,141,-1
141,142,143,-1
141,145,124,-1
143,122,144,-1
144,123,145,-1
135,143,142,-1
141,143,145,-1
143,144,145,-1
150,147,146,-1
151,148,147,-1
283,146,250,-1
153,251,149,-1
152,259,148,-1
150,151,147,-1
150,146,283,-1
151,152,148,-1
153,149,285,-1
150,152,151,-1
150,283,152,-1
152,283,153,-1
152,153,285,-1
152,285,291,-1
203,154,155,-1
212,156,164,-1
205,155,157,-1
204,158,156,-1
206,159,158,-1
225,157,177,-1
207,160,159,-1
202,154,203,-1
202,203,212,-1
203,204,212,-1
203,155,205,-1
212,204,156,-1
204,206,158,-1
205,157,225,-1
206,207,159,-1
207,208,160,-1
203,205,204,-1
204,205,206,-1
205,207,206,-1
205,225,207,-1
207,225,208,-1
209,162,161,-1
202,161,154,-1
210,166,162,-1
211,164,163,-1
213,163,165,-1
214,167,166,-1
216,165,168,-1
217,168,169,-1
215,170,167,-1
219,169,171,-1
218,174,170,-1
220,171,172,-1
221,172,173,-1
222,176,174,-1
223,173,175,-1
209,161,202,-1
209,210,162,-1
211,212,164,-1
211,163,213,-1
213,165,216,-1
209,202,211,-1
209,211,213,-1
209,213,210,-1
210,213,214,-1
202,212,211,-1
210,214,166,-1
214,215,167,-1
216,168,217,-1
215,218,170,-1
217,169,219,-1
214,213,216,-1
214,216,215,-1
216,217,215,-1
215,217,218,-1
217,219,218,-1
219,171,220,-1
218,222,174,-1
220,172,221,-1
221,173,223,-1
223,175,237,-1
222,224,176,-1
218,219,222,-1
219,220,222,-1
220,221,222,-1
221,223,224,-1
222,221,224,-1
208,178,160,-1
226,179,178,-1
228,177,180,-1
229,182,181,-1
230,183,182,-1
350,181,316,-1
232,317,184,-1
225,177,228,-1
208,226,178,-1
226,227,179,-1
228,180,234,-1
229,230,182,-1
225,226,208,-1
225,228,226,-1
226,228,227,-1
229,231,230,-1
229,181,350,-1
230,231,183,-1
232,351,317,-1
229,232,231,-1
229,350,232,-1
232,350,351,-1
227,185,179,-1
234,180,186,-1
233,186,185,-1
235,190,187,-1
236,187,188,-1
237,175,189,-1
238,189,190,-1
224,191,176,-1
239,188,191,-1
240,193,192,-1
231,198,183,-1
242,184,194,-1
243,196,195,-1
245,194,197,-1
244,322,196,-1
246,192,198,-1
241,201,193,-1
247,195,199,-1
248,199,200,-1
364,200,330,-1
227,233,185,-1
233,234,186,-1
227,228,234,-1
227,234,233,-1
235,187,236,-1
235,238,190,-1
239,236,188,-1
238,237,189,-1
224,239,191,-1
240,192,246,-1
240,241,193,-1
235,236,238,-1
223,237,224,-1
224,237,239,-1
238,239,237,-1
238,236,239,-1
240,246,241,-1
232,184,242,-1
242,194,245,-1
243,244,196,-1
243,195,247,-1
244,356,322,-1
231,232,242,-1
231,242,243,-1
231,243,246,-1
242,244,243,-1
242,245,244,-1
245,356,244,-1
231,246,198,-1
247,199,248,-1
241,249,201,-1
248,200,364,-1
243,247,246,-1
241,246,249,-1
246,247,249,-1
247,248,249,-1
248,364,249,-1
284,250,251,-1
285,149,252,-1
289,252,256,-1
286,254,253,-1
287,255,254,-1
288,256,255,-1
296,253,263,-1
153,284,251,-1
283,250,284,-1
285,252,289,-1
153,283,284,-1
285,289,291,-1
291,289,295,-1
286,287,254,-1
286,253,296,-1
287,288,255,-1
289,256,288,-1
290,257,294,-1
286,288,287,-1
289,290,295,-1
286,296,288,-1
289,288,290,-1
288,296,290,-1
291,262,258,-1
295,260,262,-1
293,258,260,-1
292,261,259,-1
294,257,261,-1
291,258,293,-1
152,292,259,-1
291,295,262,-1
295,293,260,-1
152,291,292,-1
291,293,292,-1
295,294,293,-1
292,294,261,-1
293,294,292,-1
295,290,294,-1
297,263,264,-1
290,264,257,-1
298,266,265,-1
299,267,266,-1
300,273,267,-1
302,265,269,-1
301,270,268,-1
307,268,274,-1
303,269,270,-1
290,297,264,-1
296,263,297,-1
298,299,266,-1
299,300,267,-1
298,265,302,-1
290,296,297,-1
298,300,299,-1
298,301,300,-1
301,303,270,-1
301,268,307,-1
302,269,303,-1
310,277,837,-1
298,302,301,-1
301,302,303,-1
300,301,307,-1
300,307,308,-1
310,837,845,-1
304,272,271,-1
306,271,273,-1
305,281,272,-1
308,276,275,-1
310,274,277,-1
312,275,279,-1
309,278,276,-1
311,811,278,-1
313,279,280,-1
315,280,282,-1
314,820,281,-1
852,282,816,-1
300,306,273,-1
300,308,306,-1
304,305,272,-1
304,271,306,-1
304,306,305,-1
305,306,314,-1
308,275,312,-1
307,274,310,-1
308,309,276,-1
309,311,278,-1
311,847,811,-1
307,309,308,-1
307,310,309,-1
308,312,306,-1
310,311,309,-1
310,845,311,-1
311,845,847,-1
312,279,313,-1
305,314,281,-1
313,280,315,-1
315,282,852,-1
314,856,820,-1
306,312,314,-1
312,313,314,-1
313,315,314,-1
314,315,856,-1
315,852,856,-1
351,316,317,-1
352,319,318,-1
353,320,319,-1
373,318,339,-1
355,340,321,-1
350,316,351,-1
352,353,319,-1
352,318,373,-1
353,354,320,-1
355,374,340,-1
352,354,353,-1
352,373,354,-1
354,373,355,-1
355,373,374,-1
357,197,323,-1
356,324,322,-1
358,325,324,-1
360,323,326,-1
361,326,327,-1
359,328,325,-1
362,329,328,-1
363,331,329,-1
249,333,201,-1
365,330,331,-1
367,332,333,-1
366,327,332,-1
370,336,320,-1
368,335,334,-1
370,334,336,-1
369,338,335,-1
371,321,337,-1
245,197,357,-1
356,358,324,-1
357,323,360,-1
358,359,325,-1
360,326,361,-1
361,327,366,-1
245,357,356,-1
356,357,358,-1
357,360,358,-1
358,360,359,-1
359,360,361,-1
359,362,328,-1
365,331,363,-1
362,363,329,-1
364,330,365,-1
249,367,333,-1
366,332,367,-1
249,364,367,-1
364,365,367,-1
365,363,367,-1
359,361,362,-1
362,361,366,-1
362,366,363,-1
363,366,367,-1
354,370,320,-1
355,321,371,-1
354,355,371,-1
368,369,335,-1
368,334,370,-1
369,372,338,-1
368,370,369,-1
354,371,370,-1
371,372,370,-1
369,370,372,-1
374,339,340,-1
376,341,342,-1
373,339,374,-1
375,341,376,-1
375,337,341,-1
372,345,338,-1
377,344,343,-1
379,346,345,-1
380,343,346,-1
378,349,344,-1
381,342,347,-1
382,347,348,-1
383,348,349,-1
371,337,375,-1
372,379,345,-1
371,375,376,-1
371,376,379,-1
377,378,344,-1
371,379,372,-1
376,342,381,-1
379,376,381,-1
379,380,346,-1
377,343,380,-1
381,347,382,-1
378,383,349,-1
382,348,383,-1
379,381,380,-1
377,380,378,-1
378,380,381,-1
378,381,383,-1
381,382,383,-1
389,386,385,-1
390,387,386,-1
401,385,393,-1
392,394,388,-1
389,390,386,-1
389,391,390,-1
390,391,387,-1
389,385,401,-1
389,401,391,-1
392,401,402,-1
392,402,394,-1
391,401,392,-1
402,393,394,-1
403,412,395,-1
404,395,396,-1
401,393,402,-1
403,404,420,-1
403,395,404,-1
406,399,398,-1
407,400,399,-1
406,407,399,-1
406,408,407,-1
404,396,444,-1
406,398,549,-1
406,549,408,-1
407,408,400,-1
391,411,387,-1
420,388,412,-1
392,388,420,-1
391,392,420,-1
391,419,411,-1
391,420,419,-1
417,410,409,-1
419,409,411,-1
418,413,410,-1
423,426,415,-1
422,415,414,-1
424,414,416,-1
417,418,410,-1
417,409,419,-1
417,419,418,-1
418,421,413,-1
418,419,421,-1
419,420,421,-1
423,430,426,-1
423,415,422,-1
424,422,414,-1
423,453,430,-1
430,427,426,-1
431,428,427,-1
432,429,428,-1
430,431,427,-1
431,432,428,-1
432,433,429,-1
430,432,431,-1
430,433,432,-1
430,451,433,-1
421,397,413,-1
404,405,420,-1
403,420,412,-1
405,421,420,-1
405,397,421,-1
440,416,434,-1
441,434,435,-1
442,435,436,-1
443,436,437,-1
453,437,448,-1
424,416,440,-1
440,434,441,-1
441,435,442,-1
423,422,453,-1
424,453,422,-1
440,441,442,-1
440,442,443,-1
424,440,453,-1
442,436,443,-1
443,437,453,-1
440,443,453,-1
405,439,397,-1
444,396,438,-1
408,438,400,-1
404,444,405,-1
405,445,439,-1
405,444,445,-1
408,550,444,-1
408,444,438,-1
550,445,444,-1
550,650,445,-1
445,646,439,-1
445,650,652,-1
433,446,429,-1
451,447,446,-1
452,450,447,-1
454,448,449,-1
455,449,450,-1
433,451,446,-1
451,452,447,-1
452,455,450,-1
430,452,451,-1
430,455,452,-1
430,453,454,-1
430,454,455,-1
453,448,454,-1
454,449,455,-1
488,456,458,-1
487,458,457,-1
489,460,459,-1
490,465,460,-1
486,461,456,-1
491,462,461,-1
492,516,462,-1
493,459,463,-1
494,463,464,-1
541,464,517,-1
496,457,466,-1
495,467,465,-1
497,468,467,-1
500,466,470,-1
498,469,468,-1
486,456,488,-1
488,458,487,-1
489,490,460,-1
486,488,489,-1
488,487,490,-1
487,495,490,-1
488,490,489,-1
486,491,461,-1
491,492,462,-1
492,540,516,-1
489,459,493,-1
493,463,494,-1
494,464,541,-1
486,493,491,-1
486,489,493,-1
491,493,492,-1
492,493,494,-1
492,494,540,-1
494,541,540,-1
490,495,465,-1
487,457,496,-1
495,497,467,-1
496,466,500,-1
497,498,468,-1
498,499,469,-1
487,496,495,-1
495,496,497,-1
496,498,497,-1
496,500,498,-1
498,500,499,-1
499,471,469,-1
501,473,471,-1
502,470,472,-1
503,474,473,-1
505,472,475,-1
504,475,474,-1
506,477,476,-1
507,480,477,-1
508,529,478,-1
509,478,479,-1
584,476,564,-1
511,565,481,-1
512,481,482,-1
510,533,480,-1
513,484,483,-1
515,482,485,-1
514,566,484,-1
558,483,534,-1
499,501,471,-1
500,470,502,-1
501,503,473,-1
503,504,474,-1
502,472,505,-1
504,505,475,-1
506,507,477,-1
500,501,499,-1
500,502,501,-1
501,502,503,-1
503,502,505,-1
503,505,504,-1
506,510,507,-1
508,478,509,-1
508,509,553,-1
507,510,480,-1
506,476,584,-1
511,585,565,-1
511,481,512,-1
506,511,510,-1
506,584,511,-1
510,511,512,-1
510,512,513,-1
511,584,585,-1
510,557,533,-1
512,482,515,-1
513,514,484,-1
514,586,566,-1
513,483,558,-1
510,513,557,-1
513,558,557,-1
512,514,513,-1
512,515,514,-1
515,586,514,-1
540,518,516,-1
543,517,519,-1
542,521,518,-1
544,519,520,-1
546,520,522,-1
545,524,521,-1
547,522,523,-1
540,542,518,-1
541,517,543,-1
540,541,542,-1
541,543,542,-1
543,519,544,-1
542,545,521,-1
544,520,546,-1
546,522,547,-1
547,523,552,-1
545,548,524,-1
542,543,545,-1
543,544,545,-1
544,546,545,-1
545,546,548,-1
546,547,548,-1
549,398,525,-1
551,525,527,-1
550,527,526,-1
549,525,551,-1
550,549,551,-1
550,551,527,-1
408,549,550,-1
552,523,528,-1
553,528,529,-1
548,530,524,-1
554,479,530,-1
555,532,531,-1
557,531,533,-1
556,536,532,-1
559,534,535,-1
624,535,604,-1
553,552,528,-1
508,553,529,-1
554,509,479,-1
548,554,530,-1
555,556,532,-1
555,531,557,-1
547,552,548,-1
548,552,554,-1
553,554,552,-1
553,509,554,-1
555,557,556,-1
558,534,559,-1
556,560,536,-1
559,535,624,-1
556,557,560,-1
557,558,560,-1
558,559,560,-1
559,624,560,-1
561,538,537,-1
562,539,538,-1
561,562,538,-1
561,537,633,-1
561,563,562,-1
562,563,539,-1
561,632,563,-1
585,564,565,-1
587,485,567,-1
586,568,566,-1
588,569,568,-1
589,570,569,-1
590,571,570,-1
592,567,572,-1
593,572,573,-1
594,573,574,-1
595,576,575,-1
596,577,576,-1
599,575,579,-1
598,580,578,-1
629,609,577,-1
630,578,610,-1
584,564,585,-1
515,485,587,-1
586,588,568,-1
587,567,592,-1
588,589,569,-1
589,590,570,-1
590,591,571,-1
592,572,593,-1
593,573,594,-1
594,574,626,-1
515,587,586,-1
586,587,588,-1
587,592,588,-1
588,592,589,-1
589,592,593,-1
589,593,590,-1
590,593,594,-1
590,594,591,-1
591,594,626,-1
595,596,576,-1
596,597,577,-1
595,575,599,-1
598,600,580,-1
598,578,630,-1
595,597,596,-1
595,599,597,-1
597,599,598,-1
598,599,600,-1
597,598,630,-1
597,629,577,-1
597,630,629,-1
600,579,580,-1
601,610,581,-1
631,582,611,-1
603,581,583,-1
602,617,582,-1
638,583,618,-1
599,579,600,-1
601,603,630,-1
601,630,610,-1
602,582,631,-1
602,631,630,-1
602,630,603,-1
601,581,603,-1
603,583,638,-1
602,637,617,-1
602,603,638,-1
602,638,637,-1
625,604,605,-1
560,606,536,-1
591,605,571,-1
626,574,606,-1
627,608,607,-1
629,607,609,-1
628,611,608,-1
624,604,625,-1
625,605,591,-1
560,626,606,-1
560,624,626,-1
624,625,626,-1
625,591,626,-1
627,628,608,-1
627,607,629,-1
628,631,611,-1
627,629,628,-1
628,629,631,-1
630,631,629,-1
633,537,613,-1
678,612,656,-1
632,614,612,-1
634,613,614,-1
561,633,632,-1
632,633,634,-1
632,612,678,-1
632,634,614,-1
563,632,678,-1
563,678,679,-1
633,613,634,-1
635,616,615,-1
637,615,617,-1
636,620,616,-1
639,618,619,-1
640,619,620,-1
635,636,616,-1
635,615,637,-1
636,640,620,-1
638,618,639,-1
639,619,640,-1
635,637,636,-1
636,637,638,-1
636,638,640,-1
638,639,640,-1
641,622,621,-1
642,623,622,-1
641,642,622,-1
641,621,1192,-1
641,643,642,-1
642,643,623,-1
641,1191,643,-1
550,526,644,-1
550,644,650,-1
651,644,645,-1
652,645,646,-1
650,644,651,-1
445,652,646,-1
651,645,652,-1
650,651,652,-1
563,649,539,-1
563,679,655,-1
563,655,649,-1
653,648,647,-1
655,647,649,-1
654,668,648,-1
653,654,648,-1
653,647,655,-1
653,655,654,-1
654,655,690,-1
679,659,657,-1
680,656,658,-1
681,660,659,-1
688,657,666,-1
683,658,661,-1
682,662,660,-1
684,663,662,-1
693,661,671,-1
685,664,663,-1
687,670,665,-1
686,665,664,-1
678,656,680,-1
679,681,659,-1
678,681,679,-1
678,680,681,-1
680,682,681,-1
679,657,688,-1
679,688,655,-1
680,658,683,-1
681,682,660,-1
682,684,662,-1
683,661,693,-1
684,685,663,-1
680,683,682,-1
682,683,684,-1
683,693,684,-1
684,693,685,-1
685,686,664,-1
687,665,686,-1
689,666,667,-1
691,667,669,-1
692,669,670,-1
690,674,668,-1
688,666,689,-1
654,690,668,-1
689,667,691,-1
655,688,690,-1
688,689,690,-1
689,691,690,-1
691,669,692,-1
687,692,670,-1
690,696,674,-1
690,691,696,-1
691,692,696,-1
687,696,692,-1
694,671,672,-1
695,672,673,-1
643,677,623,-1
693,671,694,-1
685,693,694,-1
694,672,695,-1
695,673,696,-1
685,694,686,-1
686,694,695,-1
687,686,695,-1
687,695,696,-1
643,1191,699,-1
643,699,677,-1
696,673,674,-1
697,676,675,-1
699,675,677,-1
698,1322,676,-1
697,675,699,-1
697,698,676,-1
697,699,698,-1
698,699,1331,-1
724,113,701,-1
135,705,114,-1
725,701,702,-1
726,702,703,-1
727,709,704,-1
739,703,716,-1
724,701,725,-1
134,724,135,-1
135,724,728,-1
724,725,727,-1
724,727,728,-1
725,702,726,-1
727,704,729,-1
726,703,739,-1
725,726,739,-1
725,739,727,-1
729,704,706,-1
728,706,705,-1
730,708,707,-1
732,707,709,-1
731,718,708,-1
135,728,705,-1
728,729,706,-1
727,729,728,-1
727,732,709,-1
730,731,708,-1
730,707,732,-1
727,739,732,-1
730,732,731,-1
731,732,739,-1
733,711,710,-1
734,712,711,-1
735,721,712,-1
737,710,714,-1
736,715,713,-1
738,714,715,-1
745,713,722,-1
733,734,711,-1
733,710,737,-1
734,735,712,-1
733,735,734,-1
733,737,735,-1
735,744,721,-1
735,745,744,-1
736,738,715,-1
737,714,738,-1
735,737,736,-1
736,737,738,-1
736,713,745,-1
745,722,774,-1
735,736,745,-1
740,716,717,-1
741,717,718,-1
742,720,719,-1
744,719,721,-1
743,723,720,-1
746,749,723,-1
731,741,718,-1
739,716,740,-1
740,717,741,-1
742,743,720,-1
742,719,744,-1
731,739,741,-1
739,740,741,-1
742,744,743,-1
743,744,746,-1
743,746,723,-1
744,745,746,-1
745,776,746,-1
775,747,748,-1
774,722,747,-1
776,755,749,-1
783,748,756,-1
777,751,750,-1
778,752,751,-1
779,761,752,-1
774,747,775,-1
776,749,746,-1
775,748,783,-1
745,774,775,-1
745,775,776,-1
776,775,783,-1
777,778,751,-1
778,779,752,-1
777,750,790,-1
777,779,778,-1
777,790,779,-1
779,788,761,-1
779,789,795,-1
779,795,788,-1
780,754,753,-1
782,753,755,-1
781,758,754,-1
784,756,757,-1
785,757,758,-1
786,760,759,-1
788,759,761,-1
787,769,760,-1
780,781,754,-1
780,753,782,-1
776,782,755,-1
781,785,758,-1
780,782,781,-1
776,783,782,-1
781,782,783,-1
781,783,785,-1
783,756,784,-1
784,757,785,-1
786,787,760,-1
786,759,788,-1
783,784,785,-1
786,788,787,-1
787,788,796,-1
790,750,763,-1
789,764,762,-1
791,763,764,-1
795,762,768,-1
793,765,766,-1
792,768,765,-1
794,772,767,-1
800,766,773,-1
789,791,764,-1
790,763,791,-1
779,790,789,-1
789,790,791,-1
789,762,795,-1
795,768,792,-1
792,765,793,-1
796,794,767,-1
793,766,800,-1
795,792,793,-1
795,793,794,-1
794,793,800,-1
796,767,769,-1
797,771,770,-1
799,770,772,-1
798,1056,771,-1
787,796,769,-1
788,795,796,-1
795,794,796,-1
797,798,771,-1
797,770,799,-1
794,799,772,-1
798,1079,1056,-1
797,799,798,-1
794,800,799,-1
798,799,800,-1
798,800,1079,-1
837,277,801,-1
845,802,809,-1
839,801,803,-1
838,804,802,-1
840,803,804,-1
841,806,805,-1
842,807,806,-1
843,825,807,-1
863,805,827,-1
844,828,808,-1
838,802,845,-1
837,801,839,-1
838,840,804,-1
837,838,845,-1
837,839,838,-1
838,839,840,-1
839,803,840,-1
841,842,806,-1
841,805,863,-1
842,843,807,-1
844,864,828,-1
844,808,858,-1
841,843,842,-1
841,863,843,-1
843,863,844,-1
844,863,864,-1
843,844,858,-1
846,809,810,-1
847,812,811,-1
849,810,813,-1
854,813,818,-1
848,814,812,-1
850,815,814,-1
851,816,815,-1
855,818,819,-1
853,819,817,-1
856,821,820,-1
857,817,821,-1
858,808,822,-1
859,824,823,-1
861,823,825,-1
860,826,824,-1
845,809,846,-1
847,848,812,-1
846,810,849,-1
849,813,854,-1
848,850,814,-1
852,816,851,-1
850,851,815,-1
857,853,817,-1
854,818,855,-1
853,855,819,-1
845,846,847,-1
846,848,847,-1
846,849,848,-1
848,849,854,-1
852,851,857,-1
848,854,850,-1
850,855,851,-1
854,855,850,-1
851,853,857,-1
851,855,853,-1
856,857,821,-1
852,857,856,-1
843,861,825,-1
843,858,861,-1
859,860,824,-1
859,823,861,-1
860,862,826,-1
859,861,860,-1
860,861,862,-1
861,858,862,-1
864,827,828,-1
865,822,829,-1
866,829,830,-1
868,833,832,-1
869,834,833,-1
870,835,834,-1
863,827,864,-1
865,829,866,-1
865,866,858,-1
866,867,858,-1
868,869,833,-1
866,830,871,-1
869,870,834,-1
868,832,976,-1
866,871,867,-1
868,870,869,-1
868,976,870,-1
870,975,871,-1
862,831,826,-1
867,836,831,-1
871,830,835,-1
865,858,822,-1
867,831,862,-1
867,862,858,-1
867,872,836,-1
870,871,835,-1
975,872,871,-1
867,871,872,-1
922,873,874,-1
931,875,883,-1
924,874,876,-1
923,877,875,-1
925,878,877,-1
943,876,895,-1
926,879,878,-1
921,873,922,-1
921,922,931,-1
931,922,923,-1
924,922,874,-1
931,923,875,-1
923,925,877,-1
924,876,943,-1
925,926,878,-1
926,927,879,-1
924,923,922,-1
924,925,923,-1
924,926,925,-1
924,943,926,-1
926,943,927,-1
928,881,880,-1
921,880,873,-1
929,885,881,-1
930,883,882,-1
932,882,884,-1
933,888,885,-1
934,884,886,-1
935,886,887,-1
936,889,888,-1
938,887,890,-1
937,892,889,-1
939,890,891,-1
941,891,893,-1
940,908,892,-1
942,893,894,-1
928,880,921,-1
928,929,881,-1
930,882,932,-1
930,931,883,-1
932,884,934,-1
928,921,930,-1
928,932,929,-1
929,932,933,-1
921,931,930,-1
928,930,932,-1
929,933,885,-1
933,936,888,-1
934,886,935,-1
936,937,889,-1
935,887,938,-1
933,932,934,-1
933,934,936,-1
934,935,936,-1
936,935,937,-1
935,938,937,-1
938,890,939,-1
937,940,892,-1
939,891,941,-1
941,893,942,-1
940,956,908,-1
937,938,940,-1
938,939,940,-1
940,939,941,-1
941,942,956,-1
940,941,956,-1
927,896,879,-1
944,897,896,-1
946,895,898,-1
947,900,899,-1
948,901,900,-1
1015,899,981,-1
950,982,902,-1
943,895,946,-1
927,944,896,-1
944,945,897,-1
946,898,952,-1
947,948,900,-1
927,943,944,-1
943,946,944,-1
944,946,945,-1
948,949,901,-1
947,899,1015,-1
950,1016,982,-1
947,949,948,-1
947,950,949,-1
947,1015,950,-1
950,1015,1016,-1
945,903,897,-1
951,904,903,-1
952,898,904,-1
953,909,905,-1
954,905,906,-1
955,894,907,-1
957,907,909,-1
956,910,908,-1
958,906,910,-1
959,912,911,-1
949,917,901,-1
961,902,913,-1
962,915,914,-1
964,913,916,-1
963,987,915,-1
965,911,917,-1
960,920,912,-1
966,914,918,-1
967,918,919,-1
945,951,903,-1
951,952,904,-1
945,946,952,-1
945,952,951,-1
953,957,909,-1
953,905,954,-1
954,906,958,-1
942,894,955,-1
957,955,907,-1
956,958,910,-1
959,911,965,-1
959,960,912,-1
953,954,957,-1
942,955,956,-1
955,958,956,-1
957,958,955,-1
957,954,958,-1
959,965,960,-1
950,902,961,-1
961,913,964,-1
962,963,915,-1
962,914,966,-1
949,950,961,-1
949,961,962,-1
949,962,965,-1
961,963,962,-1
961,964,963,-1
963,964,1021,-1
949,965,917,-1
966,918,967,-1
960,968,920,-1
967,919,1029,-1
965,962,966,-1
960,965,968,-1
965,966,968,-1
966,967,968,-1
967,1029,968,-1
976,832,970,-1
975,971,969,-1
977,970,971,-1
975,977,971,-1
975,969,978,-1
976,970,977,-1
870,976,975,-1
975,976,977,-1
978,969,972,-1
872,974,836,-1
979,972,973,-1
980,973,974,-1
975,978,872,-1
978,972,979,-1
872,980,974,-1
979,973,980,-1
872,978,980,-1
978,979,980,-1
1016,981,982,-1
1017,984,983,-1
1018,985,984,-1
1038,983,1004,-1
1020,1005,986,-1
1015,981,1016,-1
1017,1018,984,-1
1017,983,1038,-1
1018,1019,985,-1
1020,1039,1005,-1
1017,1019,1018,-1
1017,1038,1019,-1
1019,1038,1020,-1
1020,1038,1039,-1
1022,916,988,-1
1021,989,987,-1
1023,990,989,-1
1025,988,991,-1
1026,991,992,-1
1024,993,990,-1
1027,994,993,-1
1028,996,994,-1
1029,919,995,-1
968,998,920,-1
1030,995,996,-1
1032,997,998,-1
1031,992,997,-1
1033,1000,999,-1
1035,999,1001,-1
1034,1003,1000,-1
1035,1001,985,-1
1036,986,1002,-1
964,916,1022,-1
963,1021,987,-1
1022,988,1025,-1
1021,1023,989,-1
1023,1024,990,-1
1025,991,1026,-1
1026,992,1031,-1
964,1022,1021,-1
1021,1022,1023,-1
1022,1025,1023,-1
1023,1025,1024,-1
1024,1025,1026,-1
1024,1027,993,-1
1028,1030,996,-1
1027,1028,994,-1
1030,1029,995,-1
968,1032,998,-1
1031,997,1032,-1
968,1029,1032,-1
1030,1032,1029,-1
1028,1032,1030,-1
1024,1026,1027,-1
1027,1026,1031,-1
1027,1031,1028,-1
1031,1032,1028,-1
1019,1035,985,-1
1020,986,1036,-1
1019,1020,1036,-1
1033,1034,1000,-1
1033,999,1035,-1
1034,1037,1003,-1
1033,1035,1034,-1
1019,1036,1035,-1
1036,1037,1035,-1
1034,1035,1037,-1
1039,1004,1005,-1
1041,1006,1007,-1
1038,1004,1039,-1
1040,1006,1041,-1
1040,1002,1006,-1
1037,1008,1003,-1
1042,1011,1008,-1
1043,1010,1009,-1
1045,1009,1011,-1
1044,1014,1010,-1
1046,1007,1012,-1
1047,1012,1013,-1
1048,1013,1014,-1
1036,1002,1040,-1
1037,1042,1008,-1
1036,1040,1041,-1
1036,1041,1042,-1
1036,1042,1037,-1
1041,1007,1046,-1
1042,1041,1046,-1
1042,1045,1011,-1
1043,1009,1045,-1
1043,1044,1010,-1
1046,1012,1047,-1
1044,1048,1014,-1
1047,1013,1048,-1
1042,1046,1045,-1
1043,1045,1044,-1
1044,1045,1046,-1
1044,1046,1048,-1
1046,1047,1048,-1
1072,1050,1049,-1
1073,1051,1050,-1
1074,1059,1051,-1
1076,1049,1053,-1
1075,1054,1052,-1
1077,1053,1054,-1
1083,1052,1060,-1
1072,1073,1050,-1
1073,1074,1051,-1
1072,1049,1076,-1
1072,1074,1073,-1
1072,1076,1074,-1
1074,1082,1059,-1
1074,1075,1083,-1
1074,1083,1082,-1
1075,1077,1054,-1
1076,1053,1077,-1
1074,1076,1075,-1
1075,1076,1077,-1
1075,1052,1083,-1
1083,1060,1085,-1
1078,773,1055,-1
1079,1055,1056,-1
1080,1058,1057,-1
1082,1057,1059,-1
1081,1061,1058,-1
1084,1064,1061,-1
800,773,1078,-1
1078,1055,1079,-1
1080,1081,1058,-1
1080,1057,1082,-1
800,1078,1079,-1
1080,1082,1081,-1
1081,1082,1084,-1
1081,1084,1061,-1
1082,1083,1084,-1
1083,1087,1084,-1
1086,1062,1063,-1
1085,1060,1062,-1
1087,1065,1064,-1
1091,1063,1069,-1
1085,1062,1086,-1
1084,1087,1064,-1
1086,1063,1091,-1
1087,1090,1065,-1
1083,1085,1086,-1
1083,1086,1087,-1
1087,1086,1091,-1
1088,1067,1066,-1
1090,1068,1065,-1
1090,1066,1068,-1
1089,1071,1067,-1
1092,1069,1070,-1
1093,1070,1071,-1
1088,1089,1067,-1
1088,1066,1090,-1
1089,1093,1071,-1
1088,1090,1089,-1
1087,1091,1090,-1
1089,1090,1091,-1
1089,1091,1093,-1
1091,1069,1092,-1
1092,1070,1093,-1
1091,1092,1093,-1
1128,1096,1098,-1
1127,1098,1097,-1
1129,1100,1099,-1
1130,1105,1100,-1
1126,1101,1096,-1
1131,1102,1101,-1
1132,1156,1102,-1
1133,1099,1103,-1
1134,1103,1104,-1
1184,1104,1157,-1
1136,1097,1106,-1
1135,1107,1105,-1
1137,1108,1107,-1
1138,1109,1108,-1
1140,1106,1110,-1
1126,1096,1128,-1
1128,1098,1127,-1
1129,1130,1100,-1
1126,1128,1129,-1
1128,1127,1130,-1
1130,1127,1135,-1
1128,1130,1129,-1
1126,1131,1101,-1
1131,1132,1102,-1
1132,1183,1156,-1
1129,1099,1133,-1
1133,1103,1134,-1
1134,1104,1184,-1
1126,1133,1131,-1
1131,1133,1132,-1
1132,1133,1134,-1
1132,1134,1183,-1
1126,1129,1133,-1
1134,1184,1183,-1
1130,1135,1105,-1
1136,1127,1097,-1
1135,1137,1107,-1
1136,1106,1140,-1
1137,1138,1108,-1
1138,1139,1109,-1
1136,1135,1127,-1
1136,1137,1135,-1
1136,1138,1137,-1
1136,1140,1138,-1
1138,1140,1139,-1
1139,1111,1109,-1
1141,1112,1111,-1
1144,1110,1114,-1
1142,1113,1112,-1
1143,1117,1113,-1
1145,1116,1115,-1
1147,1114,1117,-1
1148,1170,1118,-1
1149,1118,1119,-1
1146,1120,1116,-1
1230,1115,1210,-1
1151,1211,1121,-1
1152,1121,1122,-1
1150,1174,1120,-1
1153,1124,1123,-1
1155,1122,1125,-1
1154,1212,1124,-1
1202,1123,1175,-1
1139,1141,1111,-1
1140,1110,1144,-1
1141,1142,1112,-1
1142,1143,1113,-1
1143,1147,1117,-1
1145,1146,1116,-1
1144,1114,1147,-1
1139,1140,1141,-1
1140,1144,1141,-1
1141,1144,1142,-1
1142,1144,1147,-1
1142,1147,1143,-1
1148,1118,1149,-1
1148,1149,1197,-1
1146,1150,1120,-1
1145,1115,1230,-1
1151,1231,1211,-1
1151,1121,1152,-1
1145,1150,1146,-1
1145,1151,1150,-1
1150,1151,1152,-1
1150,1152,1153,-1
1145,1230,1151,-1
1151,1230,1231,-1
1150,1201,1174,-1
1152,1122,1155,-1
1153,1154,1124,-1
1153,1123,1202,-1
1150,1153,1201,-1
1201,1153,1202,-1
1152,1154,1153,-1
1152,1155,1154,-1
1154,1155,1232,-1
1183,1158,1156,-1
1186,1157,1159,-1
1185,1161,1158,-1
1187,1159,1160,-1
1190,1160,1163,-1
1188,1169,1161,-1
1189,1163,1162,-1
1183,1185,1158,-1
1184,1157,1186,-1
1183,1184,1185,-1
1184,1186,1185,-1
1186,1159,1187,-1
1185,1188,1161,-1
1187,1160,1190,-1
1190,1163,1189,-1
1188,1196,1169,-1
1185,1186,1188,-1
1186,1187,1188,-1
1188,1187,1190,-1
1188,1190,1196,-1
1190,1189,1196,-1
1192,621,1165,-1
1191,1166,1164,-1
1193,1165,1166,-1
641,1192,1191,-1
1191,1192,1193,-1
1191,1193,1166,-1
1192,1165,1193,-1
1205,1194,1167,-1
1195,1162,1168,-1
1197,1168,1170,-1
1196,1171,1169,-1
1198,1119,1171,-1
1199,1173,1172,-1
1201,1172,1174,-1
1200,1177,1173,-1
1203,1175,1176,-1
1189,1162,1195,-1
1197,1195,1168,-1
1148,1197,1170,-1
1149,1119,1198,-1
1196,1198,1171,-1
1199,1200,1173,-1
1199,1172,1201,-1
1189,1195,1196,-1
1195,1198,1196,-1
1197,1198,1195,-1
1197,1149,1198,-1
1199,1201,1200,-1
1202,1175,1203,-1
1200,1204,1177,-1
1203,1176,1284,-1
1200,1201,1204,-1
1201,1202,1204,-1
1202,1203,1204,-1
1203,1284,1204,-1
1205,1167,1178,-1
1208,1178,1181,-1
1207,1179,1180,-1
1292,1181,1258,-1
1206,1182,1179,-1
1209,1259,1182,-1
1205,1178,1208,-1
1206,1179,1207,-1
1205,1207,1194,-1
1205,1208,1206,-1
1205,1206,1207,-1
1292,1208,1181,-1
1292,1209,1208,-1
1292,1293,1209,-1
1206,1209,1182,-1
1209,1293,1259,-1
1208,1209,1206,-1
1231,1210,1211,-1
1233,1125,1213,-1
1232,1214,1212,-1
1234,1215,1214,-1
1235,1216,1215,-1
1236,1217,1216,-1
1238,1213,1218,-1
1239,1218,1219,-1
1240,1219,1220,-1
1241,1222,1221,-1
1242,1223,1222,-1
1245,1221,1225,-1
1244,1226,1224,-1
1289,1255,1223,-1
1290,1224,1256,-1
1230,1210,1231,-1
1155,1125,1233,-1
1154,1232,1212,-1
1233,1213,1238,-1
1232,1234,1214,-1
1234,1235,1215,-1
1235,1236,1216,-1
1236,1237,1217,-1
1238,1218,1239,-1
1239,1219,1240,-1
1240,1220,1286,-1
1155,1233,1232,-1
1232,1233,1234,-1
1233,1238,1234,-1
1234,1238,1235,-1
1235,1238,1239,-1
1235,1239,1236,-1
1236,1239,1240,-1
1236,1240,1237,-1
1240,1286,1237,-1
1241,1242,1222,-1
1241,1221,1245,-1
1242,1243,1223,-1
1244,1246,1226,-1
1244,1224,1290,-1
1241,1243,1242,-1
1241,1245,1243,-1
1243,1245,1244,-1
1244,1245,1246,-1
1243,1244,1290,-1
1243,1289,1223,-1
1243,1290,1289,-1
1246,1225,1226,-1
1247,1256,1227,-1
1291,1228,1257,-1
1249,1227,1229,-1
1248,1270,1228,-1
1305,1229,1271,-1
1245,1225,1246,-1
1290,1247,1249,-1
1290,1256,1247,-1
1291,1248,1228,-1
1290,1248,1291,-1
1290,1249,1248,-1
1247,1227,1249,-1
1249,1229,1305,-1
1248,1304,1270,-1
1248,1305,1304,-1
1248,1249,1305,-1
1284,1176,1250,-1
1204,1252,1177,-1
1285,1250,1251,-1
1237,1251,1217,-1
1286,1220,1252,-1
1287,1254,1253,-1
1289,1253,1255,-1
1288,1257,1254,-1
1285,1284,1250,-1
1237,1285,1251,-1
1204,1286,1252,-1
1204,1284,1286,-1
1285,1286,1284,-1
1237,1286,1285,-1
1287,1288,1254,-1
1287,1253,1289,-1
1288,1291,1257,-1
1287,1289,1288,-1
1288,1289,1291,-1
1290,1291,1289,-1
1296,1258,1262,-1
1293,1260,1259,-1
1294,1261,1260,-1
1297,1262,1263,-1
1295,1264,1261,-1
1298,1265,1264,-1
1299,1266,1265,-1
1300,1267,1266,-1
1301,1263,1267,-1
1292,1258,1296,-1
1292,1294,1293,-1
1292,1296,1294,-1
1294,1296,1295,-1
1293,1294,1260,-1
1294,1295,1261,-1
1296,1262,1297,-1
1295,1298,1264,-1
1298,1299,1265,-1
1297,1263,1301,-1
1299,1300,1266,-1
1300,1301,1267,-1
1296,1298,1295,-1
1296,1297,1298,-1
1298,1297,1299,-1
1299,1297,1301,-1
1299,1301,1300,-1
1302,1269,1268,-1
1304,1268,1270,-1
1303,1273,1269,-1
1306,1271,1272,-1
1307,1272,1273,-1
1302,1303,1269,-1
1302,1268,1304,-1
1303,1307,1273,-1
1305,1271,1306,-1
1306,1272,1307,-1
1302,1304,1303,-1
1303,1304,1305,-1
1303,1305,1307,-1
1305,1306,1307,-1
1309,1275,1274,-1
1309,1276,1275,-1
1310,1279,1276,-1
1311,1274,1277,-1
1312,1277,1278,-1
1313,1280,1279,-1
1314,1281,1280,-1
1315,1282,1281,-1
1316,1283,1282,-1
1311,1308,1274,-1
1308,1309,1274,-1
1309,1310,1276,-1
1308,1314,1313,-1
1308,1313,1309,-1
1313,1310,1309,-1
1311,1277,1312,-1
1311,1314,1308,-1
1311,1316,1315,-1
1311,1312,1316,-1
1312,1317,1316,-1
1313,1314,1280,-1
1313,1279,1310,-1
1314,1315,1281,-1
1315,1316,1282,-1
1316,1317,1283,-1
1311,1315,1314,-1
1331,1164,1320,-1
1194,1318,1167,-1
1329,1319,1318,-1
1330,1326,1319,-1
1191,1164,1331,-1
699,1191,1331,-1
1194,1329,1318,-1
1194,1334,1329,-1
1329,1334,1330,-1
1329,1330,1319,-1
1332,1320,1321,-1
1333,1321,1322,-1
698,1333,1322,-1
1331,1320,1332,-1
698,1331,1333,-1
1331,1332,1333,-1
1332,1321,1333,-1
1334,1180,1323,-1
1335,1323,1324,-1
1336,1324,1325,-1
1207,1180,1334,-1
1334,1323,1335,-1
1194,1207,1334,-1
1330,1337,1326,-1
1335,1324,1336,-1
1334,1335,1330,-1
1330,1335,1337,-1
1335,1336,1337,-1
1337,1328,1326,-1
1338,1325,1327,-1
1339,1343,1328,-1
1366,1327,1342,-1
1337,1339,1328,-1
1337,1336,1339,-1
1336,1325,1338,-1
1338,1327,1366,-1
1339,1367,1343,-1
1336,1338,1339,-1
1339,1338,1367,-1
1338,1366,1367,-1
1365,1340,1341,-1
1364,1348,1340,-1
1364,1340,1365,-1
1365,1341,1373,-1
1364,1365,1372,-1
1368,1342,1344,-1
1367,1346,1343,-1
1369,1344,1345,-1
1371,1345,1347,-1
1372,1347,1348,-1
1370,1349,1346,-1
1373,1341,1349,-1
1366,1342,1368,-1
1368,1344,1369,-1
1369,1345,1371,-1
1367,1370,1346,-1
1366,1368,1367,-1
1368,1369,1370,-1
1367,1368,1370,-1
1371,1347,1372,-1
1364,1372,1348,-1
1370,1373,1349,-1
1369,1371,1370,-1
1371,1373,1370,-1
1371,1372,1373,-1
1365,1373,1372,-1
1377,1350,1353,-1
1375,1352,1351,-1
1376,1421,1352,-1
1453,1351,1420,-1
1374,1350,1377,-1
1375,1351,1453,-1
1375,1376,1352,-1
1376,1454,1421,-1
1375,1453,1376,-1
1376,1453,1454,-1
1377,1353,1379,-1
1374,1377,1379,-1
1374,1354,1350,-1
1378,1357,1354,-1
1379,1353,1355,-1
1380,1355,1356,-1
1383,1356,1359,-1
1381,1358,1357,-1
1384,1359,1360,-1
1385,1360,1361,-1
1382,1362,1358,-1
1386,1363,1362,-1
1374,1378,1354,-1
1374,1379,1378,-1
1379,1355,1380,-1
1380,1356,1383,-1
1378,1381,1357,-1
1381,1382,1358,-1
1383,1359,1384,-1
1384,1360,1385,-1
1382,1386,1362,-1
1386,1387,1363,-1
1378,1379,1381,-1
1379,1380,1381,-1
1380,1383,1382,-1
1381,1380,1382,-1
1383,1384,1386,-1
1384,1385,1387,-1
1382,1383,1386,-1
1384,1387,1386,-1
1402,1278,1388,-1
1317,1389,1283,-1
1403,1390,1389,-1
1404,1391,1390,-1
1406,1388,1392,-1
1408,1392,1394,-1
1405,1393,1391,-1
1409,1394,1395,-1
1312,1278,1402,-1
1402,1388,1406,-1
1312,1403,1317,-1
1312,1402,1403,-1
1317,1403,1389,-1
1403,1404,1390,-1
1404,1405,1391,-1
1403,1402,1404,-1
1402,1406,1404,-1
1406,1392,1408,-1
1405,1407,1393,-1
1408,1394,1409,-1
1409,1395,1466,-1
1404,1406,1405,-1
1405,1406,1408,-1
1405,1408,1407,-1
1407,1408,1409,-1
1410,1397,1396,-1
1411,1399,1397,-1
1414,1398,1400,-1
1413,1443,1399,-1
1415,1400,1401,-1
1412,1417,1398,-1
1410,1411,1397,-1
1412,1398,1414,-1
1411,1413,1399,-1
1410,1412,1411,-1
1411,1412,1413,-1
1412,1414,1413,-1
1410,1396,1418,-1
1414,1400,1415,-1
1415,1401,1502,-1
1410,1418,1412,-1
1414,1415,1413,-1
1413,1415,1476,-1
1418,1396,1416,-1
1419,1416,1417,-1
1412,1419,1417,-1
1412,1418,1419,-1
1418,1416,1419,-1
1454,1427,1421,-1
1455,1420,1422,-1
1457,1425,1424,-1
1458,1422,1425,-1
1456,1431,1423,-1
1459,1423,1426,-1
1460,1428,1427,-1
1461,1429,1428,-1
1462,1430,1429,-1
1463,1439,1430,-1
1407,1424,1393,-1
1465,1433,1432,-1
1464,1432,1431,-1
1466,1395,1433,-1
1467,1426,1434,-1
1468,1434,1435,-1
1469,1435,1436,-1
1453,1420,1455,-1
1454,1460,1427,-1
1457,1458,1425,-1
1455,1422,1458,-1
1456,1423,1459,-1
1456,1464,1431,-1
1459,1426,1467,-1
1453,1460,1454,-1
1453,1455,1456,-1
1453,1456,1460,-1
1455,1464,1456,-1
1456,1459,1460,-1
1455,1458,1464,-1
1460,1461,1428,-1
1461,1462,1429,-1
1462,1463,1430,-1
1463,1472,1439,-1
1460,1459,1461,-1
1459,1467,1461,-1
1461,1467,1462,-1
1407,1457,1424,-1
1464,1465,1432,-1
1466,1433,1465,-1
1407,1466,1457,-1
1457,1465,1458,-1
1407,1409,1466,-1
1457,1466,1465,-1
1458,1465,1464,-1
1467,1434,1468,-1
1468,1435,1469,-1
1469,1436,1473,-1
1462,1468,1463,-1
1462,1467,1468,-1
1463,1469,1472,-1
1463,1468,1469,-1
1470,1361,1437,-1
1387,1440,1363,-1
1472,1438,1439,-1
1471,1437,1438,-1
1473,1436,1440,-1
1385,1361,1470,-1
1471,1470,1437,-1
1471,1438,1472,-1
1387,1473,1440,-1
1385,1470,1387,-1
1387,1470,1473,-1
1471,1473,1470,-1
1471,1472,1473,-1
1469,1473,1472,-1
1475,1441,1442,-1
1476,1444,1443,-1
1502,1401,1486,-1
1474,1441,1475,-1
1475,1442,1478,-1
1474,1475,1478,-1
1413,1476,1443,-1
1476,1477,1444,-1
1415,1502,1476,-1
1476,1502,1477,-1
1474,1446,1441,-1
1478,1442,1445,-1
1480,1445,1447,-1
1479,1450,1446,-1
1481,1447,1448,-1
1482,1448,1449,-1
1483,1452,1450,-1
1484,1449,1451,-1
1513,1451,1497,-1
1485,1499,1452,-1
1474,1479,1446,-1
1478,1445,1480,-1
1479,1483,1450,-1
1474,1478,1479,-1
1479,1478,1480,-1
1479,1480,1483,-1
1480,1447,1481,-1
1481,1448,1482,-1
1482,1449,1484,-1
1483,1485,1452,-1
1484,1451,1513,-1
1480,1481,1483,-1
1483,1481,1482,-1
1483,1482,1485,-1
1482,1484,1485,-1
1484,1513,1485,-1
1485,1513,1515,-1
1504,1486,1488,-1
1477,1487,1444,-1
1503,1490,1487,-1
1505,1488,1489,-1
1510,1489,1494,-1
1506,1492,1490,-1
1508,1493,1492,-1
1509,1491,1493,-1
1511,1494,1495,-1
1512,1495,1496,-1
1517,1496,1501,-1
1502,1486,1504,-1
1477,1503,1487,-1
1503,1506,1490,-1
1504,1488,1505,-1
1505,1489,1510,-1
1502,1504,1477,-1
1477,1504,1503,-1
1503,1505,1506,-1
1503,1504,1505,-1
1506,1505,1510,-1
1506,1508,1492,-1
1509,1507,1491,-1
1508,1509,1493,-1
1506,1510,1508,-1
1508,1511,1509,-1
1510,1511,1508,-1
1509,1517,1507,-1
1509,1511,1512,-1
1509,1512,1517,-1
1510,1494,1511,-1
1511,1495,1512,-1
1512,1496,1517,-1
1514,1497,1498,-1
1507,1498,1491,-1
1515,1500,1499,-1
1516,1501,1500,-1
1513,1497,1514,-1
1514,1498,1507,-1
1485,1515,1499,-1
1515,1516,1500,-1
1513,1514,1515,-1
1514,1516,1515,-1
1514,1507,1516,-1
1507,1517,1516,-1
1516,1517,1501,-1
]

colorPerVertex FALSE

color Color { color [
 0 0 0,
 1 1 1,
 0.976471 0.843137 0.172549, # default colour
] }

colorIndex [
0 0 0 0 0 0 0 0 0 0 0 0 0 0 0 0 0 0 0 0 0 0 0 0 0 0 0 0 0 0 0 0 0 0 0 0 0 0 0 0 0 0 0 0 0 0 0 0 0 0 0 0 0 0 0 0 0 0 0 0 0 0 0 0 0 0 0 0 0 0 0 0 0 0 0 0 0 0 0 0 0 0 0 0 0 0 0 0 0 0 0 0 0 0 0 0 0 0 0 0 0 0 0 0 0 0 0 0 0 0 0 0 0 0 0 0 0 0 0 0 0 0 0 0 0 0 0 0 0 0 0 0 0 0 0 0 0 0 0 0 0 0 0 0 0 0 0 0 0 0 0 0 0 0 0 0 0 0 0 0 0 0 0 0 0 0 0 0 0 0 0 0 0 0 0 0 0 0 0 0 0 0 0 0 0 0 0 0 0 0 0 0 0 0 0 0 0 0 0 0 0 0 0 0 0 0 0 0 0 0 0 0 0 0 0 0 0 0 0 0 0 0 0 0 0 0 0 0 0 0 0 0 0 0 0 0 0 0 0 0 0 0 0 0 0 0 0 0 0 0 0 0 0 0 0 0 0 0 0 0 0 0 0 0 0 0 0 0 0 0 0 0 0 0 0 0 0 0 0 0 0 0 0 0 0 0 0 0 0 0 0 0 0 0 0 0 0 0 0 0 0 0 0 0 0 0 0 0 0 0 0 0 0 0 0 0 0 0 0 0 0 0 0 0 0 0 0 0 0 0 0 0 0 0 0 0 0 0 0 0 0 0 0 0 0 0 0 0 0 0 0 0 0 0 0 0 0 0 0 0 0 0 0 0 0 0 0 0 0 0 0 0 0 0 0 0 0 0 0 0 0 0 0 0 0 0 0 0 0 0 0 0 0 0 0 0 0 0 0 0 0 0 0 0 0 0 0 0 0 0 0 0 0 0 0 0 0 0 0 0 0 0 0 0 0 0 0 0 0 0 0 0 0 0 0 0 0 0 0 0 0 0 0 0 0 0 0 0 0 0 0 0 0 0 0 0 0 0 0 0 0 0 0 0 0 0 0 0 0 0 0 0 0 0 0 0 0 0 0 0 0 0 0 0 0 0 0 0 0 0 0 0 0 0 0 0 0 0 0 0 0 0 0 0 0 0 0 0 0 0 0 0 0 0 0 0 0 0 0 0 0 0 0 0 0 0 0 0 0 0 0 0 0 0 0 0 0 0 0 0 0 0 0 0 0 0 0 0 0 0 0 0 0 0 0 0 0 0 0 0 0 0 0 0 0 0 0 0 0 0 0 0 0 0 0 0 0 0 0 0 0 0 0 0 0 0 0 0 0 0 0 0 0 0 0 0 0 0 0 0 0 0 0 0 0 0 0 0 0 0 0 0 0 0 0 0 0 0 0 0 0 0 0 0 0 0 0 0 0 0 0 0 0 0 0 0 0 0 0 0 0 0 0 0 0 0 0 0 0 0 0 0 0 0 0 0 0 0 0 0 0 0 0 0 0 0 0 0 0 0 0 0 0 0 0 0 0 0 0 0 0 0 0 0 0 0 0 0 0 0 0 0 0 0 0 0 0 0 0 0 0 0 0 0 0 0 0 0 0 0 0 0 0 0 0 0 0 0 0 0 0 0 0 0 0 0 0 0 0 0 0 0 0 0 0 0 0 0 0 0 0 0 0 0 0 0 0 0 0 0 0 0 0 0 0 0 0 0 0 0 0 0 0 0 0 0 0 0 0 0 0 0 0 0 0 0 0 0 0 0 0 0 0 0 0 0 0 0 0 0 0 0 0 0 0 0 0 0 0 0 0 0 0 0 0 0 0 0 0 0 0 0 1 1 1 1 1 1 1 1 1 1 1 1 1 1 1 1 1 1 1 1 1 1 1 1 1 1 1 1 1 1 1 1 1 1 1 1 1 1 1 1 1 1 1 1 1 1 1 1 1 1 1 1 1 1 1 1 1 1 1 1 1 1 1 1 1 1 1 1 1 1 1 1 1 1 1 1 1 1 1 1 1 1 1 1 1 1 1 1 1 1 1 1 1 1 1 1 1 1 1 1 1 1 1 1 1 1 1 1 1 1 1 1 1 1 1 1 1 1 1 1 1 1 1 1 1 1 1 1 1 1 1 1 1 1 1 1 1 1 1 1 1 1 1 1 1 1 1 1 1 1 1 1 1 1 1 1 1 1 1 1 1 1 1 1 1 1 1 1 1 1 1 1 1 1 1 1 1 1 1 1 1 1 1 1 1 1 1 1 1 1 1 1 1 1 1 1 1 1 1 1 1 1 1 1 1 1 1 1 1 1 1 1 1 1 1 1 1 1 1 1 1 1 1 1 1 1 1 1 1 1 1 1 1 1 1 1 1 1 1 1 1 1 1 1 1 1 1 1 1 1 1 1 1 1 1 1 1 1 1 1 1 1 1 1 1 1 1 1 1 1 1 1 1 1 1 1 1 1 1 1 1 1 1 1 1 1 1 1 1 1 1 1 1 1 1 1 1 1 1 1 1 1 1 1 1 1 1 1 1 1 1 1 1 1 1 1 1 1 1 1 1 1 1 1 1 1 1 1 1 1 1 1 1 1 1 1 1 1 1 1 1 1 1 1 1 1 1 1 1 1 1 1 1 1 1 1 1 1 1 1 1 1 1 1 1 1 1 1 1 1 1 1 1 1 1 1 1 1 1 1 1 1 1 1 1 1 1 1 1 1 1 1 1 1 1 1 1 1 1 1 1 1 1 1 1 1 1 1 1 1 1 1 1 1 1 1 1 1 1 1 1 1 1 1 1 1 1 1 1 1 1 1 1 1 1 1 1 1 1 1 1 1 1 1 1 1 1 1 1 1 1 1 1 1 1 1 1 1 1 1 1 1 1 1 1 1 1 1 1 1 1 1 1 1 1 1 1 1 1 1 1 1 1 1 1 1 1 1 1 1 1 1 1 1 1 1 1 1 1 1 1 1 1 1 1 1 1 1 1 1 1 1 1 1 1 1 1 1 1 1 1 1 1 1 1 1 1 1 1 1 1 1 1 1 1 1 1 1 1 1 1 1 1 1 1 1 1 1 1 1 1 1 1 1 1 1 1 1 1 1 1 1 1 1 1 1 1 1 1 1 1 1 1 1 1 1 1 1 1 1 1 1 1 1 1 1 1 1 1 1 1 1 1 1 1 1 1 1 1 1 1 1 1 1 1 1 1 1 1 1 1 1 1 1 1 1 1 1 1 1 1 1 1 1 1 1 1 1 1 1 1 1 1 1 1 1 1 1 1 1 1 1 1 1 1 1 1 1 1 1 1 1 1 1 1 1 1 1 1 1 1 1 1 1 1 1 1 1 1 1 1 1 1 1 1 1 1 1 1 1 1 1 1 1 1 1 1 1 1 1 1 1 1 1 1 1 1 1 1 1 1 1 1 1 1 1 1 1 1 1 1 1 1 1 1 1 1 1 1 1 1 1 1 1 1 1 1 1 1 1 1 1 1 1 1 1 1 1 1 1 1 1 1 1 1 1 1 1 1 1 1 1 1 1 1 1 1 1 1 1 1 1 1 1 1 1 1 1 1 1 1 1 1 1 1 1 1 1 1 1 1 1 1 1 1 1 1 1 1 1 1 1 1 1 1 1 1 1 1 1 1 1 1 1 1 1 1 1 1 1 1 1 1 1 1 1 1 1 1 1 1 1 1 1 1 1 1 1 1 1 1 1 1 1 1 1 1 1 1 1 1 1 1 1 1 1 1 1 1 1 1 1 1 1 1 1 1 1 1 1 1 1 1 1 1 1 1 1 1 1 1 1 1 1 1 1 1 1 1 1 1 1 1 1 1 1 1 1 1 1 1 1 1 1 1 1 1 1 1 1 1 1 1 1 1 1 1 1 1 1 1 1 1 1 1 1 1 1 1 1 1 1 1 1 1 1 1 1 1 1 1 1 1 1 1 1 1 1 1 1 1 1 1 1 1 1 1 1 1 1 1 1 1 1 1 1 1 1 1 1 1 1 1 1 1 1 1 1 1 1 1 1 1 1 1 1 1 1 1 1 1 1 1 1 1 1 1 1 1 1 1 1 1 1 1 1 1 1 1 1 1 1 1 1 1 1 1 1 1 1 1 1 1 1 1 1 1 1 1 1 1 1 1 1 1 1 1 1 1 1 1 1 1 1 1 1 1 1 1 1 1 1 1 1 1 1 1 1 1 1 1 1 1 1 1 1 1 1 1 1 1 1 1 1 1 1 1 1 1 1 1 1 1 1 1 1 1 1 1 1 1 1 1 1 1 1 1 1 1 1 1 1 1 1 1 1 1 1 1 1 1 1 1 1 1 1 1 1 1 1 1 1 1 1 1 1 1 1 1 1 1 1 1 1 1 1 1 1 1 1 1 1 1 1 1 1 1 1 1 1 1 1 1 1 1 1 1 1 1 1 1 1 1 1 1 1 1 1 1 1 1 1 1 1 1 1 1 1 1 1 1 1 1 1 1 1 1 1 1 1 1 1 1 1 1 1 1 1 1 1 1 1 1 1 1 1 1 1 1 1 1 1 1 1 1 1 1 1 1 1 1 1 1 1 1 1 1 1 1 1 1 1 1 1 1 1 1 1 1 1 1 1 1 1 1 1 1 1 1 1 1 1 1 1 1 1 1 1 1 1 1 1 1 1 1 1 1 1 1 1 1 1 1 1 1 1 1 1 1 1 1 1 1 1 1 1 1 1 1 1 1 1 1 1 1 1 1 1 1 1 1 1 1 1 1 1 1 1 1 1 1 1 1 1 1 1 1 1 1 1 1 1 1 1 1 1 1 1 1 1 1 1 1 1 1 1 1 1 1 1 1 1 1 1 1 1 1 1 1 1 1 1 1 1 1 1 1 1 1 1 1 1 1 1 1 1 1 1 1 1 1 1 1 1 1 1 1 1 1 1 1 1 1 1 1 1 1 1 1 1 1 1 1 1 1 1 1 1 1 1 1 1 1 1 1 1 1 1 1 1 1 1 1 1 1 1 1 1 1 1 1 1 1 1 1 1 1 1 1 1 1 1 1 1 1 1 1 1 1 1 1 1 1 1 1 1 1 1 1 1 1 1 1 1 1 1 1 1 1 1 1 1 1 1 1 1 1 1 1 1 1 1 1 1 1 1 1 1 1 1 1 1 1 1 1 1 1 1 1 1 1 1 1 1 1 1 1 1 1 1 1 1 1 1 1 1 1 1 1 1 1 1 1 1 1 1 1 1 1 1 1 1 1 1 1 1 1 1 1 1 1 1 1 1 1 1 1 1 1 1 1 1 1 1 1 1 1 1 1 1 1 1 1 1 1 1 1 1 1 1 1 1 1 1 1 1 1 1 1 1 1 1 1 1 1 1 1 1 1 1 1 1 1 1 1 1 1 1 1 1 1 1 1 1 1 1 1 1 1 1 1 1 1 1 1 1 1 1 1 1 1 1 1 1 1 1 1 1 1 1 1 1 1 1 1 1 1 1 1 1 1 1 1 1 1 1 1 1 1 1 1 1 1 1 1 1 1 1 1 1 1 1 1 1 1 1 1 1 1 1 1 1 1 1 1 1 1 1 1 1 1 1 1 1 1 1 1 1 1 1 1 1 1 1 1 1 1 1 1 1 1 1 1 1 1 1 1 1 1 1 1 1 1 1 1 1 1 1 1 1 1 1 1 1 1 1 1 1 1 1 1 1 1 1 1 1 1 1 1 1 1 1 1 1 1 1 1 1 1 1 1 1 1 1 1 1 1 1 1 1 1 1 1 1 1 1 1 1 1 1 1 1 1 1 1 1 1 1 1 1 1 1 1 1 1 1 1 1 1 1 1 1 1 1 1 1 1 1 1 1 1 1 1 1 1 1 1 1 1 1 1 1 1 1 1 1 1 1 1 1 1 1 1 1 1 1 1 1 1 1 1 1 1 1 1 1 1 1 1 1 1 1 1 1 1 1 1 1 1 1 1 1 1 1 1 1 1 1 1 1 1 1 1 1 1 1 1 1 1 1 1 1 1 1 1 1 1 1 1 1 1 1 1 1 1 1 1 1 1 1 1 1 1 1 1 1 1 1 1 1 1 1 1 1 1 1 1 1 1 1 1 1 1 1 1 1 1 1 1 1 1 1 1 1 1 1 1 1 1 1 1 1 1 1 1 1 1 1 1 1 1 1 1 1 1 1 1 1 1 1 1 1 1 1 1 1 1 1 1 1 1 1 1 1 1 1 1 1 1 1 1 1 1 1 1 1 1 1 1 1 1 1 1 1 1 1 1 1 1 1 1 1 1 1 1 1 1 1 1 1 1 1 1 1 1 1 1 1 1 1 1 1 1 1 1 1 1 1 1 1 1 1 1 1 1 1 1 1 1 1 1 1 1 1 1 1 1 1 1 1 1 1 1 1 1 1 1 1 1 1 1 1 1 1 1 1 1 1 1 1 1 1 1 1 1 1 1 1 1 1 1 1 1 1 1 1 1 1 1 1 1 1 1 1 1 1 1 1 1 1 1 1 1 1 1 1 1 1 1 1 1 1 1 1 1 1 1 1 1 1 1 1 1 1 1 1 1 1 1 1 1 1 1 1 1 1 1 1 1 1 1 1 1 1 1 1 1 1 1 1 1 1 1 1 1 1 1 1 1 1 1 1 1 1 1 1 1 1 1 1 1 1 1 1 1 1 1 1 1 1 1 1 1 1 1 1 1 1 1 1 1 1 1 1 1 1 1 1 1 1 1 1 1 1 1 1 1 1 1 1 1 1 1 1 1 1 1 1 1 1 1 1 1 1 1 1 1 1 1 1 1 1 1 1 1 1 1 1 1 1 1 1 1 1 1 1 1 1 1 1 1 1 ]

}

}
