#VRML V2.0 utf8

Shape {

appearance Appearance { material Material {
ambientIntensity 0.3
diffuseColor 0.97647 0.843137 0.172549
specularColor 0.2 0.2 0.2
shininess 0.3
} }

geometry IndexedFaceSet {

creaseAngle 0.5

coord Coordinate { point [
0 0 0,
0 0 3.9,
8.18995 4.71429 3.9,
8.18995 4.799 3.9,
8.18995 4.71429 4.1,
8.18995 4.799 4.1,
7.5362 6.77309 3.9,
7.5362 6.8578 3.9,
7.77755 6.7315 3.9,
8.15478 6.7315 3.9,
7.5362 6.77309 4.1,
7.5362 6.8578 4.1,
7.77755 6.7315 4.1,
8.15478 6.7315 4.1,
8.53042 4.84216 3.9,
8.83892 4.84216 3.9,
9.17939 4.71429 3.9,
9.17939 4.799 3.9,
8.53042 4.84216 4.1,
8.83892 4.84216 4.1,
9.17939 4.71429 4.1,
9.17939 4.799 4.1,
8.53042 5.54867 3.9,
8.83892 5.55826 3.9,
8.77019 5.74207 3.9,
8.53042 5.54867 4.1,
8.83892 5.55826 4.1,
8.77019 5.74207 4.1,
8.4425 6.77309 3.9,
8.4425 6.8578 3.9,
9.08347 6.77309 3.9,
9.08347 6.8578 3.9,
8.4425 6.77309 4.1,
8.4425 6.8578 4.1,
9.08347 6.77309 4.1,
9.08347 6.8578 4.1,
9.35521 6.7315 3.9,
9.54543 6.7315 3.9,
9.78039 6.77309 3.9,
9.78039 6.8578 3.9,
9.90044 6.77309 3.9,
9.90044 6.8578 3.9,
10.1418 6.7315 3.9,
9.35521 6.7315 4.1,
9.54543 6.7315 4.1,
9.78039 6.77309 4.1,
9.78039 6.8578 4.1,
9.90044 6.77309 4.1,
9.90044 6.8578 4.1,
10.1418 6.7315 4.1,
10.5542 4.71429 3.9,
10.5542 4.799 3.9,
10.8947 4.84216 3.9,
11.2032 4.84216 3.9,
10.5542 4.71429 4.1,
10.5542 4.799 4.1,
10.8947 4.84216 4.1,
11.2032 4.84216 4.1,
10.8947 5.54867 3.9,
11.2032 5.55826 3.9,
11.1344 5.74207 3.9,
10.8947 5.54867 4.1,
11.2032 5.55826 4.1,
11.1344 5.74207 4.1,
11.5436 4.71429 3.9,
11.5436 4.799 3.9,
11.5436 4.71429 4.1,
11.5436 4.799 4.1,
10.519 6.7315 3.9,
10.8067 6.77309 3.9,
10.8067 6.8578 3.9,
10.519 6.7315 4.1,
10.8067 6.77309 4.1,
10.8067 6.8578 4.1,
11.4477 6.77309 3.9,
11.4477 6.8578 3.9,
11.7194 6.7315 3.9,
11.9097 6.7315 3.9,
12.1446 6.77309 3.9,
12.2311 6.77309 3.9,
12.1446 6.8578 3.9,
12.2311 6.8578 3.9,
11.4477 6.77309 4.1,
11.4477 6.8578 4.1,
11.7194 6.7315 4.1,
11.9097 6.7315 4.1,
12.1446 6.77309 4.1,
12.2311 6.77309 4.1,
12.1446 6.8578 4.1,
12.2311 6.8578 4.1,
13.1278 4.66474 3.9,
13.2126 4.66474 3.9,
13.1278 4.66474 4.1,
13.2126 4.66474 4.1,
13.2445 5.221 3.9,
13.2445 5.221 4.1,
14.3394 4.66474 3.9,
14.4241 4.66474 3.9,
14.3394 4.66474 4.1,
14.4241 4.66474 4.1,
13.7832 6.1417 3.9,
13.7832 6.1417 4.1,
12.4181 6.7315 3.9,
12.7346 6.7315 3.9,
13.0495 6.77309 3.9,
13.0495 6.8578 3.9,
12.4181 6.7315 4.1,
12.7346 6.7315 4.1,
13.0495 6.77309 4.1,
13.0495 6.8578 4.1,
13.8215 6.70753 3.9,
13.8935 6.70753 3.9,
13.8215 6.70753 4.1,
13.8935 6.70753 4.1,
14.4497 5.221 3.9,
14.4497 5.221 4.1,
16.2178 4.66474 3.9,
16.3025 4.66474 3.9,
16.2178 4.66474 4.1,
16.3025 4.66474 4.1,
16.3345 5.221 3.9,
16.3345 5.221 4.1,
14.6016 6.77309 3.9,
14.6016 6.8578 3.9,
14.9356 6.7315 3.9,
15.1243 6.7315 3.9,
15.3113 6.77309 3.9,
15.3211 6.77309 3.9,
15.3113 6.8578 3.9,
15.3211 6.8578 3.9,
14.6016 6.77309 4.1,
14.6016 6.8578 4.1,
14.9356 6.7315 4.1,
15.1243 6.7315 4.1,
15.3113 6.77309 4.1,
15.3211 6.77309 4.1,
15.3113 6.8578 4.1,
15.3211 6.8578 4.1,
15.5081 6.7315 3.9,
15.8246 6.7315 3.9,
16.1395 6.77309 3.9,
16.1395 6.8578 3.9,
15.5081 6.7315 4.1,
15.8246 6.7315 4.1,
16.1395 6.77309 4.1,
16.1395 6.8578 4.1,
10.2657 15.1898 3.9,
10.2657 15.1898 4.1,
10.5566 14.3946 3.9,
10.9051 14.1818 3.9,
11.0395 14.2955 3.9,
10.5566 14.3946 4.1,
10.9051 14.1818 4.1,
11.0395 14.2955 4.1,
11.3686 14.1109 3.9,
11.3718 14.234 3.9,
11.5488 14.245 3.9,
11.7598 14.1361 3.9,
11.7155 14.2779 3.9,
11.8601 14.3293 3.9,
11.9712 14.3954 3.9,
12.1247 14.2116 3.9,
11.3686 14.1109 4.1,
11.3718 14.234 4.1,
11.5488 14.245 4.1,
11.7598 14.1361 4.1,
11.7155 14.2779 4.1,
11.8601 14.3293 4.1,
11.9712 14.3954 4.1,
12.1247 14.2116 4.1,
10.3384 14.7353 3.9,
10.7972 14.4801 3.9,
10.6491 14.7814 3.9,
10.5998 15.193 3.9,
10.3384 14.7353 4.1,
10.7972 14.4801 4.1,
10.6491 14.7814 4.1,
10.5998 15.193 4.1,
10.3356 15.6756 3.9,
10.6469 15.6334 3.9,
10.7884 15.9411 3.9,
10.5454 16.0266 3.9,
10.8927 16.2394 3.9,
11.0325 16.1221 3.9,
10.3356 15.6756 4.1,
10.6469 15.6334 4.1,
10.7884 15.9411 4.1,
10.5454 16.0266 4.1,
10.8927 16.2394 4.1,
11.0325 16.1221 4.1,
12.0304 14.7151 3.9,
12.1343 14.7151 3.9,
12.0304 14.7151 4.1,
12.1343 14.7151 4.1,
11.3878 16.1825 3.9,
11.5399 16.1731 3.9,
11.375 16.3103 3.9,
11.6891 16.1449 3.9,
11.828 16.0996 3.9,
11.7215 16.29 3.9,
11.9968 15.7605 3.9,
12.1023 15.7605 3.9,
11.9489 16.0386 3.9,
12.0927 16.2288 3.9,
11.3878 16.1825 4.1,
11.5399 16.1731 4.1,
11.375 16.3103 4.1,
11.6891 16.1449 4.1,
11.828 16.0996 4.1,
11.7215 16.29 4.1,
11.9968 15.7605 4.1,
12.1023 15.7605 4.1,
11.9489 16.0386 4.1,
12.0927 16.2288 4.1,
13.3477 9.42857 3.9,
13.3477 9.51329 3.9,
13.3477 9.42857 4.1,
13.3477 9.51329 4.1,
13.6226 9.55645 3.9,
13.9295 9.55645 3.9,
14.2044 9.42857 3.9,
14.2044 9.51329 3.9,
13.6226 9.55645 4.1,
13.9295 9.55645 4.1,
14.2044 9.42857 4.1,
14.2044 9.51329 4.1,
13.3477 11.4874 3.9,
13.3477 11.5721 3.9,
13.3477 11.4874 4.1,
13.3477 11.5721 4.1,
13.6226 11.4458 3.9,
13.9295 11.4458 3.9,
14.2044 11.4874 3.9,
14.2044 11.5721 3.9,
13.6226 11.4458 4.1,
13.9295 11.4458 4.1,
14.2044 11.4874 4.1,
14.2044 11.5721 4.1,
14.4379 9.42857 3.9,
14.4379 9.51329 3.9,
14.7128 9.55645 3.9,
15.0197 9.55645 3.9,
15.2947 9.42857 3.9,
15.2947 9.51329 3.9,
14.4379 9.42857 4.1,
14.4379 9.51329 4.1,
14.7128 9.55645 4.1,
15.0197 9.55645 4.1,
15.2947 9.42857 4.1,
15.2947 9.51329 4.1,
15.5281 9.42857 3.9,
15.5281 9.51329 3.9,
15.803 9.55645 3.9,
16.1099 9.55645 3.9,
16.3849 9.42857 3.9,
16.3849 9.51329 3.9,
15.5281 9.42857 4.1,
15.5281 9.51329 4.1,
15.803 9.55645 4.1,
16.1099 9.55645 4.1,
16.3849 9.42857 4.1,
16.3849 9.51329 4.1,
14.4379 11.4874 3.9,
14.4379 11.5721 3.9,
14.7128 11.4458 3.9,
15.0197 11.4458 3.9,
15.2947 11.4874 3.9,
15.2947 11.5721 3.9,
14.4379 11.4874 4.1,
14.4379 11.5721 4.1,
14.7128 11.4458 4.1,
15.0197 11.4458 4.1,
15.2947 11.4874 4.1,
15.2947 11.5721 4.1,
15.5281 11.4874 3.9,
15.5281 11.5721 3.9,
15.803 11.4458 3.9,
16.1099 11.4458 3.9,
16.3849 11.4874 3.9,
16.3849 11.5721 3.9,
15.5281 11.4874 4.1,
15.5281 11.5721 4.1,
15.803 11.4458 4.1,
16.1099 11.4458 4.1,
16.3849 11.4874 4.1,
16.3849 11.5721 4.1,
12.4301 14.1429 3.9,
12.4301 14.2276 3.9,
12.6843 14.2707 3.9,
12.9928 14.2707 3.9,
13.3332 14.1429 3.9,
13.3332 14.2276 3.9,
12.4301 14.1429 4.1,
12.4301 14.2276 4.1,
12.6843 14.2707 4.1,
12.9928 14.2707 4.1,
13.3332 14.1429 4.1,
13.3332 14.2276 4.1,
14.2301 14.1429 3.9,
14.2301 14.2276 3.9,
14.2301 14.1429 4.1,
14.2301 14.2276 4.1,
12.9928 14.9836 3.9,
12.9928 15.1275 3.9,
13.2341 14.9836 3.9,
13.159 15.1275 3.9,
13.3938 15.1583 3.9,
12.9928 14.9836 4.1,
12.9928 15.1275 4.1,
13.2341 14.9836 4.1,
13.159 15.1275 4.1,
13.3938 15.1583 4.1,
12.4093 16.2017 3.9,
12.4093 16.2864 3.9,
12.6843 16.1601 3.9,
12.9928 16.1425 3.9,
13.1494 16.1425 3.9,
13.3984 16.1141 3.9,
13.2181 16.2864 3.9,
12.4093 16.2017 4.1,
12.4093 16.2864 4.1,
12.6843 16.1601 4.1,
12.9928 16.1425 4.1,
13.1494 16.1425 4.1,
13.3984 16.1141 4.1,
13.2181 16.2864 4.1,
13.5632 15.0264 3.9,
13.5578 15.2506 3.9,
13.6543 15.4124 3.9,
13.8056 15.1547 3.9,
13.9548 15.3653 3.9,
13.5632 15.0264 4.1,
13.5578 15.2506 4.1,
13.6543 15.4124 4.1,
13.8056 15.1547 4.1,
13.9548 15.3653 4.1,
13.6557 15.878 3.9,
13.6865 15.6518 3.9,
13.5634 16.029 3.9,
13.808 16.1285 3.9,
14.0046 15.655 3.9,
14.2301 16.2017 3.9,
14.2301 16.2864 3.9,
13.6557 15.878 4.1,
13.6865 15.6518 4.1,
13.5634 16.029 4.1,
13.808 16.1285 4.1,
14.0046 15.655 4.1,
14.2301 16.2017 4.1,
14.2301 16.2864 4.1,
14.505 14.2707 3.9,
14.6728 14.2707 3.9,
14.9606 14.1429 3.9,
14.9606 14.2276 3.9,
14.505 14.2707 4.1,
14.6728 14.2707 4.1,
14.9606 14.1429 4.1,
14.9606 14.2276 4.1,
15.9947 14.1429 3.9,
16.1498 14.1429 3.9,
15.9947 14.1429 4.1,
16.1498 14.1429 4.1,
14.505 16.1601 3.9,
14.6728 16.0706 3.9,
14.879 16.2864 3.9,
14.505 16.1601 4.1,
14.6728 16.0706 4.1,
14.879 16.2864 4.1,
15.9819 14.6991 3.9,
15.9819 14.6991 4.1,
15.6942 16.2017 3.9,
15.6942 16.2864 3.9,
15.9819 16.1601 3.9,
16.1498 16.1601 3.9,
16.4247 16.2017 3.9,
16.4247 16.2864 3.9,
15.6942 16.2017 4.1,
15.6942 16.2864 4.1,
15.9819 16.1601 4.1,
16.1498 16.1601 4.1,
16.4247 16.2017 4.1,
16.4247 16.2864 4.1,
0 33 0,
5.78176 23.5714 3.9,
5.78176 23.5714 4.1,
5.78176 23.7239 3.9,
5.78176 23.7239 4.1,
7.09662 23.5714 3.9,
7.09662 23.5714 4.1,
6.27664 23.8016 3.9,
6.57874 23.8016 3.9,
7.09662 23.7239 3.9,
6.27664 23.8016 4.1,
6.57874 23.8016 4.1,
7.09662 23.7239 4.1,
7.99144 23.5714 3.9,
8.09212 23.5714 3.9,
7.99144 23.5714 4.1,
8.09212 23.5714 4.1,
8.20434 24.495 3.9,
8.20434 24.495 4.1,
1.92558 28.3528 3.9,
1.78085 28.5332 3.9,
1.67748 28.7293 3.9,
1.92558 28.3528 4.1,
1.78085 28.5332 4.1,
1.67748 28.7293 4.1,
2.29846 28.0938 3.9,
2.10153 28.2017 3.9,
2.51634 28.0291 3.9,
2.7552 28.0075 3.9,
2.99405 28.0291 3.9,
2.29846 28.0938 4.1,
2.10153 28.2017 4.1,
2.51634 28.0291 4.1,
2.7552 28.0075 4.1,
2.99405 28.0291 4.1,
3.21191 28.0938 3.9,
3.40879 28.2017 3.9,
3.58468 28.3528 3.9,
3.72947 28.5332 3.9,
3.83289 28.7293 3.9,
3.21191 28.0938 4.1,
3.40879 28.2017 4.1,
3.58468 28.3528 4.1,
3.72947 28.5332 4.1,
3.83289 28.7293 4.1,
1.61545 28.9409 3.9,
1.59478 29.1681 3.9,
1.61575 29.403 3.9,
1.67868 29.6188 3.9,
1.78356 29.8154 3.9,
1.61545 28.9409 4.1,
1.59478 29.1681 4.1,
1.61575 29.403 4.1,
1.67868 29.6188 4.1,
1.78356 29.8154 4.1,
1.93039 29.9928 3.9,
1.93039 29.9928 4.1,
0 33 3.9,
2.10785 30.1396 3.9,
2.30447 30.2446 3.9,
2.52025 30.3075 3.9,
2.7552 30.3285 3.9,
2.99014 30.3075 3.9,
2.10785 30.1396 4.1,
2.30447 30.2446 4.1,
2.52025 30.3075 4.1,
2.7552 30.3285 4.1,
2.99014 30.3075 4.1,
3.89494 28.9409 3.9,
3.91562 29.1681 3.9,
3.83168 29.6188 3.9,
3.72676 29.8154 3.9,
3.89464 29.403 3.9,
3.89494 28.9409 4.1,
3.91562 29.1681 4.1,
3.83168 29.6188 4.1,
3.72676 29.8154 4.1,
3.89464 29.403 4.1,
3.2059 30.2446 3.9,
3.40247 30.1396 3.9,
3.57987 29.9928 3.9,
3.2059 30.2446 4.1,
3.40247 30.1396 4.1,
3.57987 29.9928 4.1,
5.78176 27.2773 3.9,
5.78176 27.4298 3.9,
5.78176 27.2773 4.1,
5.78176 27.4298 4.1,
6.27664 27.2024 3.9,
6.57874 26.8888 3.9,
6.9499 27.4298 3.9,
6.27664 27.2024 4.1,
6.57874 26.8888 4.1,
6.9499 27.4298 4.1,
10.2657 19.9041 3.9,
10.2657 19.9041 4.1,
10.5566 19.1089 3.9,
10.3384 19.4496 3.9,
10.7972 19.1944 3.9,
10.6491 19.4957 3.9,
10.9051 18.8961 3.9,
11.0395 19.0098 3.9,
10.5566 19.1089 4.1,
10.3384 19.4496 4.1,
10.7972 19.1944 4.1,
10.6491 19.4957 4.1,
10.9051 18.8961 4.1,
11.0395 19.0098 4.1,
10.5998 19.9073 3.9,
10.3356 20.3898 3.9,
10.6469 20.3477 3.9,
10.5998 19.9073 4.1,
10.3356 20.3898 4.1,
10.6469 20.3477 4.1,
11.3686 18.8252 3.9,
11.3718 18.9482 3.9,
11.5488 18.9592 3.9,
11.7155 18.9922 3.9,
11.7598 18.8504 3.9,
11.8601 19.0436 3.9,
12.1247 18.9259 3.9,
11.9712 19.1097 3.9,
12.0304 19.4294 3.9,
12.1343 19.4294 3.9,
11.3686 18.8252 4.1,
11.3718 18.9482 4.1,
11.5488 18.9592 4.1,
11.7155 18.9922 4.1,
11.7598 18.8504 4.1,
11.8601 19.0436 4.1,
12.1247 18.9259 4.1,
11.9712 19.1097 4.1,
12.0304 19.4294 4.1,
12.1343 19.4294 4.1,
11.9968 20.4748 3.9,
12.1023 20.4748 3.9,
11.9968 20.4748 4.1,
12.1023 20.4748 4.1,
9.11355 23.5714 3.9,
9.11355 23.5714 4.1,
9.11355 23.7239 3.9,
9.11355 23.7239 4.1,
9.63143 23.8016 3.9,
10.1838 23.8016 3.9,
9.63143 23.8016 4.1,
10.1838 23.8016 4.1,
10.5454 20.7409 3.9,
10.7884 20.6554 3.9,
11.0325 20.8364 3.9,
10.8927 20.9537 3.9,
10.5454 20.7409 4.1,
10.7884 20.6554 4.1,
11.0325 20.8364 4.1,
10.8927 20.9537 4.1,
11.3878 20.8968 3.9,
11.375 21.0246 3.9,
11.5399 20.8874 3.9,
11.6891 20.8592 3.9,
11.828 20.8138 3.9,
11.7215 21.0042 3.9,
11.9489 20.7529 3.9,
12.0927 20.9431 3.9,
11.3878 20.8968 4.1,
11.375 21.0246 4.1,
11.5399 20.8874 4.1,
11.6891 20.8592 4.1,
11.828 20.8138 4.1,
11.7215 21.0042 4.1,
11.9489 20.7529 4.1,
12.0927 20.9431 4.1,
10.6787 23.5714 3.9,
10.6787 23.5714 4.1,
10.6787 23.7239 3.9,
10.6787 23.7239 4.1,
12.4301 18.8571 3.9,
12.4301 18.9419 3.9,
12.6843 18.985 3.9,
12.9928 18.985 3.9,
13.3332 18.8571 3.9,
13.3332 18.9419 3.9,
12.4301 18.8571 4.1,
12.4301 18.9419 4.1,
12.6843 18.985 4.1,
12.9928 18.985 4.1,
13.3332 18.8571 4.1,
13.3332 18.9419 4.1,
12.9928 19.6979 3.9,
12.9928 19.8418 3.9,
13.2341 19.6979 3.9,
13.159 19.8418 3.9,
13.3938 19.8726 3.9,
12.9928 19.6979 4.1,
12.9928 19.8418 4.1,
13.2341 19.6979 4.1,
13.159 19.8418 4.1,
13.3938 19.8726 4.1,
14.2301 18.8571 3.9,
14.2301 18.9419 3.9,
14.2301 18.8571 4.1,
14.2301 18.9419 4.1,
13.5632 19.7407 3.9,
13.5578 19.9649 3.9,
13.8056 19.8689 3.9,
13.6543 20.1267 3.9,
13.6557 20.5922 3.9,
13.6865 20.3661 3.9,
13.9548 20.0795 3.9,
14.0046 20.3693 3.9,
13.5632 19.7407 4.1,
13.5578 19.9649 4.1,
13.8056 19.8689 4.1,
13.6543 20.1267 4.1,
13.6557 20.5922 4.1,
13.6865 20.3661 4.1,
13.9548 20.0795 4.1,
14.0046 20.3693 4.1,
14.505 18.985 3.9,
14.6728 18.985 3.9,
14.9606 18.8571 3.9,
14.9606 18.9419 3.9,
14.505 18.985 4.1,
14.6728 18.985 4.1,
14.9606 18.8571 4.1,
14.9606 18.9419 4.1,
15.9819 19.4134 3.9,
15.9947 18.8571 3.9,
16.1498 18.8571 3.9,
15.9819 19.4134 4.1,
15.9947 18.8571 4.1,
16.1498 18.8571 4.1,
12.4093 20.9159 3.9,
12.4093 21.0007 3.9,
12.6843 20.8744 3.9,
12.9928 20.8568 3.9,
13.1494 20.8568 3.9,
13.3984 20.8284 3.9,
13.2181 21.0007 3.9,
12.4093 20.9159 4.1,
12.4093 21.0007 4.1,
12.6843 20.8744 4.1,
12.9928 20.8568 4.1,
13.1494 20.8568 4.1,
13.3984 20.8284 4.1,
13.2181 21.0007 4.1,
13.5634 20.7433 3.9,
13.808 20.8428 3.9,
14.2301 20.9159 3.9,
14.2301 21.0007 3.9,
13.5634 20.7433 4.1,
13.808 20.8428 4.1,
14.2301 20.9159 4.1,
14.2301 21.0007 4.1,
12.5321 23.5714 3.9,
12.5321 23.5714 4.1,
12.5321 23.7239 3.9,
12.9896 23.8016 3.9,
12.5321 23.7239 4.1,
12.9896 23.8016 4.1,
14.1577 23.5714 3.9,
14.1577 23.5714 4.1,
13.5449 23.8016 3.9,
14.1577 23.7239 3.9,
13.5449 23.8016 4.1,
14.1577 23.7239 4.1,
14.505 20.8744 3.9,
14.6728 20.7849 3.9,
14.879 21.0007 3.9,
14.505 20.8744 4.1,
14.6728 20.7849 4.1,
14.879 21.0007 4.1,
15.6942 20.9159 3.9,
15.6942 21.0007 3.9,
15.9819 20.8744 3.9,
16.1498 20.8744 3.9,
16.4247 20.9159 3.9,
16.4247 21.0007 3.9,
15.6942 20.9159 4.1,
15.6942 21.0007 4.1,
15.9819 20.8744 4.1,
16.1498 20.8744 4.1,
16.4247 20.9159 4.1,
16.4247 21.0007 4.1,
15.8151 23.5714 3.9,
15.8151 23.5714 4.1,
15.8151 23.7239 3.9,
16.31 23.8016 3.9,
15.8151 23.7239 4.1,
16.31 23.8016 4.1,
9.63143 26.8888 3.9,
9.5739 27.4298 3.9,
10.1838 27.2024 3.9,
9.63143 26.8888 4.1,
9.5739 27.4298 4.1,
10.1838 27.2024 4.1,
10.6787 27.2773 3.9,
10.6787 27.4298 3.9,
10.6787 27.2773 4.1,
10.6787 27.4298 4.1,
13.5449 25.0848 3.9,
13.5449 25.3438 3.9,
13.8441 25.3438 3.9,
13.9793 25.0848 3.9,
14.2667 25.3992 3.9,
13.5449 25.0848 4.1,
13.5449 25.3438 4.1,
13.8441 25.3438 4.1,
13.9793 25.0848 4.1,
14.2667 25.3992 4.1,
12.4947 27.2773 3.9,
12.4947 27.4298 3.9,
12.9896 27.2024 3.9,
12.4947 27.2773 4.1,
12.4947 27.4298 4.1,
12.9896 27.2024 4.1,
13.5449 27.1708 3.9,
13.8268 27.1708 3.9,
14.2749 27.1197 3.9,
13.9505 27.4298 3.9,
13.5449 27.1708 4.1,
13.8268 27.1708 4.1,
14.2749 27.1197 4.1,
13.9505 27.4298 4.1,
14.5717 25.1618 3.9,
14.5619 25.5653 3.9,
15.0079 25.3927 3.9,
15.2766 25.7718 3.9,
14.5717 25.1618 4.1,
14.5619 25.5653 4.1,
15.0079 25.3927 4.1,
15.2766 25.7718 4.1,
14.7356 25.8566 3.9,
14.7935 26.2875 3.9,
14.7382 26.6946 3.9,
15.3661 26.2933 3.9,
14.7356 25.8566 4.1,
14.7935 26.2875 4.1,
14.7382 26.6946 4.1,
15.3661 26.2933 4.1,
14.572 26.9665 3.9,
15.0122 27.1456 3.9,
14.572 26.9665 4.1,
15.0122 27.1456 4.1,
15.8151 27.2773 3.9,
15.8151 27.4298 3.9,
16.31 27.2024 3.9,
15.8151 27.2773 4.1,
15.8151 27.4298 4.1,
16.31 27.2024 4.1,
33 0 0,
17.4294 4.66474 3.9,
17.5141 4.66474 3.9,
17.4294 4.66474 4.1,
17.5141 4.66474 4.1,
16.8732 6.1417 3.9,
16.8732 6.1417 4.1,
18.5022 4.71429 3.9,
18.5022 4.799 3.9,
18.5022 4.71429 4.1,
18.5022 4.799 4.1,
17.5397 5.221 3.9,
17.5397 5.221 4.1,
16.9115 6.70753 3.9,
16.9835 6.70753 3.9,
16.9115 6.70753 4.1,
16.9835 6.70753 4.1,
17.6916 6.77309 3.9,
17.6916 6.8578 3.9,
18.0256 6.7315 3.9,
18.2142 6.7315 3.9,
18.4013 6.77309 3.9,
18.4013 6.8578 3.9,
18.5022 6.77309 3.9,
18.5022 6.8578 3.9,
17.6916 6.77309 4.1,
17.6916 6.8578 4.1,
18.0256 6.7315 4.1,
18.2142 6.7315 4.1,
18.4013 6.77309 4.1,
18.4013 6.8578 4.1,
18.5022 6.77309 4.1,
18.5022 6.8578 4.1,
18.7771 4.84216 3.9,
18.9449 4.84216 3.9,
19.2326 4.71429 3.9,
19.2326 4.799 3.9,
18.7771 4.84216 4.1,
18.9449 4.84216 4.1,
19.2326 4.71429 4.1,
19.2326 4.799 4.1,
20.2668 4.71429 3.9,
20.4219 4.71429 3.9,
20.2668 4.71429 4.1,
20.4219 4.71429 4.1,
20.254 5.27055 3.9,
20.254 5.27055 4.1,
18.9449 6.642 3.9,
18.7771 6.7315 3.9,
19.1511 6.8578 3.9,
18.9449 6.642 4.1,
18.7771 6.7315 4.1,
19.1511 6.8578 4.1,
19.9663 6.77309 3.9,
19.9663 6.8578 3.9,
20.254 6.7315 3.9,
20.4219 6.7315 3.9,
19.9663 6.77309 4.1,
19.9663 6.8578 4.1,
20.254 6.7315 4.1,
20.4219 6.7315 4.1,
20.8664 4.71429 3.9,
20.8664 4.799 3.9,
21.1413 4.84216 3.9,
21.3092 4.84216 3.9,
21.5969 4.71429 3.9,
21.5969 4.799 3.9,
20.8664 4.71429 4.1,
20.8664 4.799 4.1,
21.1413 4.84216 4.1,
21.3092 4.84216 4.1,
21.5969 4.71429 4.1,
21.5969 4.799 4.1,
22.6311 4.71429 3.9,
22.6311 4.71429 4.1,
22.6183 5.27055 3.9,
22.6183 5.27055 4.1,
20.6968 6.77309 3.9,
20.6968 6.8578 3.9,
20.8664 6.77309 3.9,
20.8664 6.8578 3.9,
21.3092 6.642 3.9,
21.1413 6.7315 3.9,
21.5154 6.8578 3.9,
20.6968 6.77309 4.1,
20.6968 6.8578 4.1,
20.8664 6.77309 4.1,
20.8664 6.8578 4.1,
21.3092 6.642 4.1,
21.1413 6.7315 4.1,
21.5154 6.8578 4.1,
22.3306 6.77309 3.9,
22.3306 6.8578 3.9,
22.6183 6.7315 3.9,
22.3306 6.77309 4.1,
22.3306 6.8578 4.1,
22.6183 6.7315 4.1,
22.7861 4.71429 3.9,
23.2306 4.71429 3.9,
23.2306 4.799 3.9,
23.5056 4.84216 3.9,
23.6734 4.84216 3.9,
22.7861 4.71429 4.1,
23.2306 4.71429 4.1,
23.2306 4.799 4.1,
23.5056 4.84216 4.1,
23.6734 4.84216 4.1,
23.9611 4.71429 3.9,
23.9611 4.799 3.9,
23.9611 4.71429 4.1,
23.9611 4.799 4.1,
22.7861 6.7315 3.9,
23.0611 6.77309 3.9,
23.0611 6.8578 3.9,
23.6734 6.642 3.9,
23.2306 6.77309 3.9,
23.2306 6.8578 3.9,
23.5056 6.7315 3.9,
22.7861 6.7315 4.1,
23.0611 6.77309 4.1,
23.0611 6.8578 4.1,
23.6734 6.642 4.1,
23.2306 6.77309 4.1,
23.2306 6.8578 4.1,
23.5056 6.7315 4.1,
23.8796 6.8578 3.9,
24.6948 6.77309 3.9,
24.6948 6.8578 3.9,
23.8796 6.8578 4.1,
24.6948 6.77309 4.1,
24.6948 6.8578 4.1,
16.6183 9.42857 3.9,
16.6183 9.51329 3.9,
16.8932 9.55645 3.9,
17.2001 9.55645 3.9,
17.4751 9.42857 3.9,
17.4751 9.51329 3.9,
16.6183 9.42857 4.1,
16.6183 9.51329 4.1,
16.8932 9.55645 4.1,
17.2001 9.55645 4.1,
17.4751 9.42857 4.1,
17.4751 9.51329 4.1,
17.7085 9.42857 3.9,
17.7085 9.51329 3.9,
17.9834 9.55645 3.9,
18.2903 9.55645 3.9,
17.7085 9.42857 4.1,
17.7085 9.51329 4.1,
17.9834 9.55645 4.1,
18.2903 9.55645 4.1,
16.6183 11.4874 3.9,
16.6183 11.5721 3.9,
16.8932 11.4458 3.9,
17.2001 11.4458 3.9,
17.4751 11.4874 3.9,
17.4751 11.5721 3.9,
16.6183 11.4874 4.1,
16.6183 11.5721 4.1,
16.8932 11.4458 4.1,
17.2001 11.4458 4.1,
17.4751 11.4874 4.1,
17.4751 11.5721 4.1,
17.7085 11.4874 3.9,
17.7085 11.5721 3.9,
17.9834 11.4458 3.9,
18.2903 11.4458 3.9,
17.7085 11.4874 4.1,
17.7085 11.5721 4.1,
17.9834 11.4458 4.1,
18.2903 11.4458 4.1,
18.5653 9.42857 3.9,
18.5653 9.51329 3.9,
18.7987 9.42857 3.9,
18.7987 9.51329 3.9,
19.0736 9.55645 3.9,
19.3805 9.55645 3.9,
18.5653 9.42857 4.1,
18.5653 9.51329 4.1,
18.7987 9.42857 4.1,
18.7987 9.51329 4.1,
19.0736 9.55645 4.1,
19.3805 9.55645 4.1,
19.6555 9.42857 3.9,
19.6555 9.51329 3.9,
19.6555 9.42857 4.1,
19.6555 9.51329 4.1,
18.5653 11.4874 3.9,
18.5653 11.5721 3.9,
18.7987 11.4874 3.9,
18.7987 11.5721 3.9,
19.0736 11.4458 3.9,
19.3805 11.4458 3.9,
18.5653 11.4874 4.1,
18.5653 11.5721 4.1,
18.7987 11.4874 4.1,
18.7987 11.5721 4.1,
19.0736 11.4458 4.1,
19.3805 11.4458 4.1,
19.6555 11.4874 3.9,
19.6555 11.5721 3.9,
19.6555 11.4874 4.1,
19.6555 11.5721 4.1,
16.9252 14.3946 3.9,
17.2736 14.1818 3.9,
17.4081 14.2955 3.9,
16.9252 14.3946 4.1,
17.2736 14.1818 4.1,
17.4081 14.2955 4.1,
17.7372 14.1109 3.9,
17.7404 14.234 3.9,
17.9174 14.245 3.9,
18.1284 14.1361 3.9,
18.084 14.2779 3.9,
18.2287 14.3293 3.9,
18.3398 14.3954 3.9,
18.4932 14.2116 3.9,
17.7372 14.1109 4.1,
17.7404 14.234 4.1,
17.9174 14.245 4.1,
18.1284 14.1361 4.1,
18.084 14.2779 4.1,
18.2287 14.3293 4.1,
18.3398 14.3954 4.1,
18.4932 14.2116 4.1,
16.707 14.7353 3.9,
16.6343 15.1898 3.9,
16.9683 15.193 3.9,
17.1658 14.4801 3.9,
17.0177 14.7814 3.9,
16.707 14.7353 4.1,
16.6343 15.1898 4.1,
16.9683 15.193 4.1,
17.1658 14.4801 4.1,
17.0177 14.7814 4.1,
16.7042 15.6756 3.9,
17.0155 15.6334 3.9,
16.914 16.0266 3.9,
17.157 15.9411 3.9,
17.2613 16.2394 3.9,
17.4011 16.1221 3.9,
16.7042 15.6756 4.1,
17.0155 15.6334 4.1,
16.914 16.0266 4.1,
17.157 15.9411 4.1,
17.2613 16.2394 4.1,
17.4011 16.1221 4.1,
18.3989 14.7151 3.9,
18.5028 14.7151 3.9,
18.3989 14.7151 4.1,
18.5028 14.7151 4.1,
17.7564 16.1825 3.9,
17.7436 16.3103 3.9,
17.9084 16.1731 3.9,
18.3654 15.7605 3.9,
18.4709 15.7605 3.9,
18.0577 16.1449 3.9,
18.1965 16.0996 3.9,
18.09 16.29 3.9,
18.3174 16.0386 3.9,
18.4613 16.2288 3.9,
17.7564 16.1825 4.1,
17.7436 16.3103 4.1,
17.9084 16.1731 4.1,
18.3654 15.7605 4.1,
18.4709 15.7605 4.1,
18.0577 16.1449 4.1,
18.1965 16.0996 4.1,
18.09 16.29 4.1,
18.3174 16.0386 4.1,
18.4613 16.2288 4.1,
18.7987 14.1429 3.9,
18.7987 14.2276 3.9,
19.0529 14.2707 3.9,
19.3614 14.2707 3.9,
18.7987 14.1429 4.1,
18.7987 14.2276 4.1,
19.0529 14.2707 4.1,
19.3614 14.2707 4.1,
19.7018 14.1429 3.9,
19.7018 14.2276 3.9,
20.5986 14.1429 3.9,
20.5986 14.2276 3.9,
19.7018 14.1429 4.1,
19.7018 14.2276 4.1,
20.5986 14.1429 4.1,
20.5986 14.2276 4.1,
19.3614 14.9836 3.9,
19.3614 15.1275 3.9,
19.5276 15.1275 3.9,
19.3614 14.9836 4.1,
19.3614 15.1275 4.1,
19.5276 15.1275 4.1,
18.7779 16.2017 3.9,
18.7779 16.2864 3.9,
19.0529 16.1601 3.9,
19.3614 16.1425 3.9,
19.518 16.1425 3.9,
19.5867 16.2864 3.9,
18.7779 16.2017 4.1,
18.7779 16.2864 4.1,
19.0529 16.1601 4.1,
19.3614 16.1425 4.1,
19.518 16.1425 4.1,
19.5867 16.2864 4.1,
19.6027 14.9836 3.9,
19.7624 15.1583 3.9,
19.9318 15.0264 3.9,
19.9264 15.2506 3.9,
20.0229 15.4124 3.9,
20.1741 15.1547 3.9,
20.3234 15.3653 3.9,
19.6027 14.9836 4.1,
19.7624 15.1583 4.1,
19.9318 15.0264 4.1,
19.9264 15.2506 4.1,
20.0229 15.4124 4.1,
20.1741 15.1547 4.1,
20.3234 15.3653 4.1,
20.0551 15.6518 3.9,
20.0243 15.878 3.9,
19.7669 16.1141 3.9,
19.932 16.029 3.9,
20.3732 15.655 3.9,
20.1766 16.1285 3.9,
20.5986 16.2017 3.9,
20.5986 16.2864 3.9,
20.0551 15.6518 4.1,
20.0243 15.878 4.1,
19.7669 16.1141 4.1,
19.932 16.029 4.1,
20.3732 15.655 4.1,
20.1766 16.1285 4.1,
20.5986 16.2017 4.1,
20.5986 16.2864 4.1,
20.8736 14.2707 3.9,
21.0414 14.2707 3.9,
21.3291 14.1429 3.9,
21.3291 14.2276 3.9,
20.8736 14.2707 4.1,
21.0414 14.2707 4.1,
21.3291 14.1429 4.1,
21.3291 14.2276 4.1,
22.3633 14.1429 3.9,
22.5184 14.1429 3.9,
22.3633 14.1429 4.1,
22.5184 14.1429 4.1,
20.8736 16.1601 3.9,
21.0414 16.0706 3.9,
21.2476 16.2864 3.9,
20.8736 16.1601 4.1,
21.0414 16.0706 4.1,
21.2476 16.2864 4.1,
22.3505 14.6991 3.9,
22.3505 14.6991 4.1,
22.0628 16.2017 3.9,
22.0628 16.2864 3.9,
22.3505 16.1601 3.9,
22.5184 16.1601 3.9,
22.0628 16.2017 4.1,
22.0628 16.2864 4.1,
22.3505 16.1601 4.1,
22.5184 16.1601 4.1,
22.7933 16.2017 3.9,
22.7933 16.2864 3.9,
22.7933 16.2017 4.1,
22.7933 16.2864 4.1,
24.9953 4.71429 3.9,
25.1504 4.71429 3.9,
24.9953 4.71429 4.1,
25.1504 4.71429 4.1,
24.9825 5.27055 3.9,
24.9825 5.27055 4.1,
24.9825 6.7315 3.9,
25.1504 6.7315 3.9,
25.4253 6.77309 3.9,
25.4253 6.8578 3.9,
24.9825 6.7315 4.1,
25.1504 6.7315 4.1,
25.4253 6.77309 4.1,
25.4253 6.8578 4.1,
33 0 3.9,
33 33 0,
16.707 19.4496 3.9,
16.9252 19.1089 3.9,
17.2736 18.8961 3.9,
17.4081 19.0098 3.9,
17.1658 19.1944 3.9,
17.0177 19.4957 3.9,
16.707 19.4496 4.1,
16.9252 19.1089 4.1,
17.2736 18.8961 4.1,
17.4081 19.0098 4.1,
17.1658 19.1944 4.1,
17.0177 19.4957 4.1,
16.6343 19.9041 3.9,
16.9683 19.9073 3.9,
16.7042 20.3898 3.9,
17.0155 20.3477 3.9,
16.6343 19.9041 4.1,
16.9683 19.9073 4.1,
16.7042 20.3898 4.1,
17.0155 20.3477 4.1,
17.7372 18.8252 3.9,
17.7404 18.9482 3.9,
17.9174 18.9592 3.9,
18.1284 18.8504 3.9,
18.084 18.9922 3.9,
18.2287 19.0436 3.9,
18.4932 18.9259 3.9,
18.3398 19.1097 3.9,
18.3989 19.4294 3.9,
18.5028 19.4294 3.9,
17.7372 18.8252 4.1,
17.7404 18.9482 4.1,
17.9174 18.9592 4.1,
18.1284 18.8504 4.1,
18.084 18.9922 4.1,
18.2287 19.0436 4.1,
18.4932 18.9259 4.1,
18.3398 19.1097 4.1,
18.3989 19.4294 4.1,
18.5028 19.4294 4.1,
18.3654 20.4748 3.9,
18.4709 20.4748 3.9,
18.3654 20.4748 4.1,
18.4709 20.4748 4.1,
18.7987 18.8571 3.9,
18.7987 18.9419 3.9,
19.0529 18.985 3.9,
19.3614 18.985 3.9,
18.7987 18.8571 4.1,
18.7987 18.9419 4.1,
19.0529 18.985 4.1,
19.3614 18.985 4.1,
19.3614 19.6979 3.9,
19.3614 19.8418 3.9,
19.5276 19.8418 3.9,
19.3614 19.6979 4.1,
19.3614 19.8418 4.1,
19.5276 19.8418 4.1,
19.7018 18.8571 3.9,
19.7018 18.9419 3.9,
20.5986 18.8571 3.9,
20.5986 18.9419 3.9,
19.7018 18.8571 4.1,
19.7018 18.9419 4.1,
20.5986 18.8571 4.1,
20.5986 18.9419 4.1,
19.6027 19.6979 3.9,
19.7624 19.8726 3.9,
19.9318 19.7407 3.9,
19.9264 19.9649 3.9,
20.0229 20.1267 3.9,
20.0551 20.3661 3.9,
20.0243 20.5922 3.9,
20.1741 19.8689 3.9,
20.3234 20.0795 3.9,
20.3732 20.3693 3.9,
19.6027 19.6979 4.1,
19.7624 19.8726 4.1,
19.9318 19.7407 4.1,
19.9264 19.9649 4.1,
20.0229 20.1267 4.1,
20.0551 20.3661 4.1,
20.0243 20.5922 4.1,
20.1741 19.8689 4.1,
20.3234 20.0795 4.1,
20.3732 20.3693 4.1,
16.914 20.7409 3.9,
17.157 20.6554 3.9,
17.2613 20.9537 3.9,
17.4011 20.8364 3.9,
16.914 20.7409 4.1,
17.157 20.6554 4.1,
17.2613 20.9537 4.1,
17.4011 20.8364 4.1,
17.7564 20.8968 3.9,
17.7436 21.0246 3.9,
17.9084 20.8874 3.9,
18.0577 20.8592 3.9,
18.1965 20.8138 3.9,
18.09 21.0042 3.9,
18.3174 20.7529 3.9,
18.4613 20.9431 3.9,
17.7564 20.8968 4.1,
17.7436 21.0246 4.1,
17.9084 20.8874 4.1,
18.0577 20.8592 4.1,
18.1965 20.8138 4.1,
18.09 21.0042 4.1,
18.3174 20.7529 4.1,
18.4613 20.9431 4.1,
17.3573 23.5714 3.9,
17.3573 23.5714 4.1,
16.8624 23.8016 3.9,
17.3573 23.7239 3.9,
16.8624 23.8016 4.1,
17.3573 23.7239 4.1,
17.9372 24.6378 3.9,
18.3299 24.0246 3.9,
18.4964 24.7209 3.9,
17.9372 24.6378 4.1,
18.3299 24.0246 4.1,
18.4964 24.7209 4.1,
18.7779 20.9159 3.9,
18.7779 21.0007 3.9,
19.0529 20.8744 3.9,
19.3614 20.8568 3.9,
19.518 20.8568 3.9,
19.5867 21.0007 3.9,
18.7779 20.9159 4.1,
18.7779 21.0007 4.1,
19.0529 20.8744 4.1,
19.3614 20.8568 4.1,
19.518 20.8568 4.1,
19.5867 21.0007 4.1,
19.7669 20.8284 3.9,
19.932 20.7433 3.9,
20.1766 20.8428 3.9,
20.5986 20.9159 3.9,
20.5986 21.0007 3.9,
19.7669 20.8284 4.1,
19.932 20.7433 4.1,
20.1766 20.8428 4.1,
20.5986 20.9159 4.1,
20.5986 21.0007 4.1,
18.9572 23.6416 3.9,
18.9572 23.6416 4.1,
18.7629 24.1785 3.9,
19.1992 23.8462 3.9,
18.7629 24.1785 4.1,
19.1992 23.8462 4.1,
19.7915 23.5139 3.9,
20.4957 23.5592 3.9,
19.7915 23.5139 4.1,
20.4957 23.5592 4.1,
19.7973 23.7354 3.9,
20.1159 23.7552 3.9,
20.4159 23.8145 3.9,
19.7973 23.7354 4.1,
20.1159 23.7552 4.1,
20.4159 23.8145 4.1,
20.8736 18.985 3.9,
21.0414 18.985 3.9,
21.3291 18.8571 3.9,
21.3291 18.9419 3.9,
20.8736 18.985 4.1,
21.0414 18.985 4.1,
21.3291 18.8571 4.1,
21.3291 18.9419 4.1,
22.3633 18.8571 3.9,
22.5184 18.8571 3.9,
22.3505 19.4134 3.9,
22.3633 18.8571 4.1,
22.5184 18.8571 4.1,
22.3505 19.4134 4.1,
20.8736 20.8744 3.9,
21.0414 20.7849 3.9,
21.2476 21.0007 3.9,
20.8736 20.8744 4.1,
21.0414 20.7849 4.1,
21.2476 21.0007 4.1,
22.0628 20.9159 3.9,
22.0628 21.0007 3.9,
22.3505 20.8744 3.9,
22.5184 20.8744 3.9,
22.0628 20.9159 4.1,
22.0628 21.0007 4.1,
22.3505 20.8744 4.1,
22.5184 20.8744 4.1,
21.1524 23.6952 3.9,
21.1524 23.6952 4.1,
20.6763 23.907 3.9,
20.8762 24.026 3.9,
20.9827 24.6015 3.9,
21.1697 24.6015 3.9,
20.6763 23.907 4.1,
20.8762 24.026 4.1,
20.9827 24.6015 4.1,
21.1697 24.6015 4.1,
21.8087 23.6376 3.9,
22.3122 23.5448 3.9,
21.8087 23.6376 4.1,
22.3122 23.5448 4.1,
22.0964 23.9081 3.9,
21.7771 24.449 3.9,
21.9669 24.449 3.9,
22.232 23.8491 3.9,
22.4144 23.7987 3.9,
22.6132 23.7642 3.9,
22.0964 23.9081 4.1,
21.7771 24.449 4.1,
21.9669 24.449 4.1,
22.232 23.8491 4.1,
22.4144 23.7987 4.1,
22.6132 23.7642 4.1,
22.7933 20.9159 3.9,
22.7933 21.0007 3.9,
22.7933 20.9159 4.1,
22.7933 21.0007 4.1,
22.8445 23.5139 3.9,
23.4235 23.5873 3.9,
22.8445 23.5139 4.1,
23.4235 23.5873 4.1,
22.7985 23.7527 3.9,
23.1912 23.8045 3.9,
23.466 23.9598 3.9,
23.6278 24.2361 3.9,
23.6818 24.6504 3.9,
22.7985 23.7527 4.1,
23.1912 23.8045 4.1,
23.466 23.9598 4.1,
23.6278 24.2361 4.1,
23.6818 24.6504 4.1,
24.7005 23.5714 3.9,
24.7005 23.5714 4.1,
23.8544 23.8074 3.9,
24.122 24.1577 3.9,
24.2112 24.6216 3.9,
24.7005 23.9944 3.9,
23.8544 23.8074 4.1,
24.122 24.1577 4.1,
24.2112 24.6216 4.1,
24.7005 23.9944 4.1,
17.8063 25.456 3.9,
18.4076 25.4617 3.9,
17.8063 25.456 4.1,
18.4076 25.4617 4.1,
17.9321 26.3303 3.9,
18.4925 26.2544 3.9,
17.9321 26.3303 4.1,
18.4925 26.2544 4.1,
16.8624 27.2024 3.9,
17.3573 27.2773 3.9,
17.3573 27.4298 3.9,
16.8624 27.2024 4.1,
17.3573 27.2773 4.1,
17.3573 27.4298 4.1,
18.3098 26.9622 3.9,
18.3098 26.9622 4.1,
18.7471 26.8083 3.9,
18.7471 26.8083 4.1,
18.9349 27.3452 3.9,
19.1866 27.1341 3.9,
18.9349 27.3452 4.1,
19.1866 27.1341 4.1,
19.8261 27.2427 3.9,
20.0998 27.2258 3.9,
19.803 27.4729 3.9,
20.3684 27.1751 3.9,
20.6184 27.0935 3.9,
20.4267 27.4362 3.9,
19.8261 27.2427 4.1,
20.0998 27.2258 4.1,
19.803 27.4729 4.1,
20.3684 27.1751 4.1,
20.6184 27.0935 4.1,
20.4267 27.4362 4.1,
20.9223 26.4831 3.9,
21.1122 26.4831 3.9,
20.9223 26.4831 4.1,
21.1122 26.4831 4.1,
22.4561 25.4675 3.9,
22.4561 25.7034 3.9,
22.4561 25.4675 4.1,
22.4561 25.7034 4.1,
21.895 26.6069 3.9,
22.0849 26.6069 3.9,
21.895 26.6069 4.1,
22.0849 26.6069 4.1,
20.836 26.9838 3.9,
21.0949 27.3261 3.9,
20.836 26.9838 4.1,
21.0949 27.3261 4.1,
21.895 27.3492 3.9,
22.1604 27.4114 3.9,
22.1856 27.0787 3.9,
22.3223 27.1409 3.9,
22.4791 27.1895 3.9,
22.6424 27.2208 3.9,
22.387 27.4484 3.9,
22.5934 27.4668 3.9,
21.895 27.3492 4.1,
22.1604 27.4114 4.1,
22.1856 27.0787 4.1,
22.3223 27.1409 4.1,
22.4791 27.1895 4.1,
22.6424 27.2208 4.1,
22.387 27.4484 4.1,
22.5934 27.4668 4.1,
22.8675 25.4445 3.9,
22.8675 25.7293 3.9,
23.1926 25.5912 3.9,
23.6321 24.9845 3.9,
23.4832 25.2272 3.9,
23.23 25.3801 3.9,
23.6472 25.4858 3.9,
23.5498 25.6937 3.9,
22.8675 25.4445 4.1,
22.8675 25.7293 4.1,
23.1926 25.5912 4.1,
23.6321 24.9845 4.1,
23.4832 25.2272 4.1,
23.23 25.3801 4.1,
23.6472 25.4858 4.1,
23.5498 25.6937 4.1,
23.1502 25.7883 3.9,
23.348 25.9307 3.9,
23.4645 26.1623 3.9,
23.5034 26.4889 3.9,
23.1502 25.7883 4.1,
23.348 25.9307 4.1,
23.4645 26.1623 4.1,
23.5034 26.4889 4.1,
24.1493 25.0032 3.9,
23.9637 25.2905 3.9,
24.1493 25.0032 4.1,
23.9637 25.2905 4.1,
23.8155 25.8861 3.9,
23.9806 26.1641 3.9,
24.0356 26.5234 3.9,
23.8155 25.8861 4.1,
23.9806 26.1641 4.1,
24.0356 26.5234 4.1,
22.7985 27.2312 3.9,
23.1167 27.187 3.9,
22.7985 27.4729 3.9,
23.3351 27.0543 3.9,
23.4613 26.8245 3.9,
22.7985 27.2312 4.1,
23.1167 27.187 4.1,
22.7985 27.4729 4.1,
23.3351 27.0543 4.1,
23.4613 26.8245 4.1,
23.7263 27.2355 3.9,
23.7263 27.2355 4.1,
25.0774 24.0145 3.9,
25.2356 24.4806 3.9,
25.3572 24.2655 3.9,
25.6212 24.495 3.9,
25.0774 24.0145 4.1,
25.2356 24.4806 4.1,
25.3572 24.2655 4.1,
25.6212 24.495 4.1,
27.0627 23.5714 3.9,
27.0627 23.5714 4.1,
27.0627 24.0145 3.9,
27.0627 24.0145 4.1,
25.6823 24.8892 3.9,
25.6823 24.8892 4.1,
24.83 26.6069 3.9,
25.0198 26.6069 3.9,
24.83 26.6069 4.1,
25.0198 26.6069 4.1,
25.9924 25.2114 3.9,
26.1348 24.9478 3.9,
26.1999 25.4948 3.9,
26.4786 25.2877 3.9,
26.7041 25.5718 3.9,
25.9924 25.2114 4.1,
26.1348 24.9478 4.1,
26.1999 25.4948 4.1,
26.4786 25.2877 4.1,
26.7041 25.5718 4.1,
26.339 25.7868 3.9,
26.4178 26.1048 3.9,
26.4441 26.4659 3.9,
26.4017 26.7953 3.9,
26.339 25.7868 4.1,
26.4178 26.1048 4.1,
26.4441 26.4659 4.1,
26.4017 26.7953 4.1,
25.1206 27.0787 3.9,
25.2536 27.1409 3.9,
24.83 27.3492 3.9,
25.4054 27.1895 3.9,
25.5644 27.2208 3.9,
25.719 27.2312 3.9,
25.3141 27.442 3.9,
25.719 27.4729 3.9,
25.1206 27.0787 4.1,
25.2536 27.1409 4.1,
24.83 27.3492 4.1,
25.4054 27.1895 4.1,
25.5644 27.2208 4.1,
25.719 27.2312 4.1,
25.3141 27.442 4.1,
25.719 27.4729 4.1,
26.2743 27.0356 3.9,
26.0506 27.1823 3.9,
26.2733 27.4071 3.9,
26.6699 27.2096 3.9,
26.2743 27.0356 4.1,
26.0506 27.1823 4.1,
26.2733 27.4071 4.1,
26.6699 27.2096 4.1,
26.8627 25.8574 3.9,
26.9566 26.1526 3.9,
26.9879 26.4659 3.9,
26.8627 25.8574 4.1,
26.9566 26.1526 4.1,
26.9879 26.4659 4.1,
26.9084 26.8921 3.9,
26.9084 26.8921 4.1,
33 33 3.9
] }

coordIndex [
1,2,3,-1
1,3,6,-1
1,16,2,-1
1,50,16,-1
1,64,50,-1
1,90,64,-1
1,6,7,-1
8,6,3,-1
8,3,22,-1
0,1,439,-1
1,7,383,-1
7,146,383,-1
0,1111,1,-1
1,91,90,-1
1,96,91,-1
1,97,96,-1
1,116,97,-1
1,117,116,-1
1,731,117,-1
1,732,731,-1
1,737,732,-1
14,22,3,-1
15,42,23,-1
16,58,17,-1
51,16,50,-1
52,16,51,-1
15,17,42,-1
42,17,58,-1
24,28,9,-1
28,31,29,-1
24,36,28,-1
31,28,30,-1
36,30,28,-1
23,42,37,-1
37,42,38,-1
38,41,39,-1
41,38,40,-1
42,40,38,-1
52,58,16,-1
64,90,65,-1
53,65,102,-1
53,102,59,-1
102,65,90,-1
60,69,68,-1
60,76,69,-1
69,75,70,-1
75,69,74,-1
76,74,69,-1
39,41,215,-1
59,78,77,-1
59,79,78,-1
59,102,79,-1
78,81,80,-1
81,78,79,-1
70,215,41,-1
70,75,214,-1
80,214,75,-1
1,765,737,-1
1,771,765,-1
1,772,771,-1
1,791,772,-1
91,96,100,-1
94,104,103,-1
94,110,104,-1
104,110,105,-1
80,81,214,-1
105,214,81,-1
105,110,214,-1
114,122,111,-1
111,122,123,-1
111,214,110,-1
111,123,220,-1
138,97,116,-1
97,126,125,-1
97,127,126,-1
97,138,127,-1
114,124,122,-1
126,129,128,-1
129,126,127,-1
120,140,139,-1
120,743,140,-1
140,743,141,-1
128,861,123,-1
128,129,861,-1
141,861,129,-1
29,148,7,-1
29,31,149,-1
39,149,31,-1
170,7,148,-1
146,7,170,-1
148,29,149,-1
39,215,230,-1
39,230,226,-1
39,226,149,-1
149,227,154,-1
154,227,157,-1
287,161,286,-1
150,200,171,-1
172,200,173,-1
171,200,172,-1
173,200,179,-1
179,200,180,-1
180,200,183,-1
155,200,150,-1
156,201,155,-1
158,201,156,-1
155,201,200,-1
159,201,158,-1
160,201,159,-1
160,190,201,-1
191,312,190,-1
161,314,191,-1
183,200,194,-1
194,200,195,-1
195,200,197,-1
197,202,198,-1
202,197,200,-1
190,312,201,-1
201,312,203,-1
313,203,312,-1
70,214,215,-1
214,111,220,-1
220,123,238,-1
218,230,215,-1
219,221,239,-1
220,239,221,-1
220,238,239,-1
219,239,264,-1
219,232,231,-1
219,262,232,-1
219,264,262,-1
232,263,233,-1
232,262,263,-1
238,123,242,-1
123,250,242,-1
240,264,239,-1
241,243,251,-1
242,251,243,-1
251,242,250,-1
241,251,276,-1
250,123,254,-1
123,861,254,-1
252,276,251,-1
253,255,862,-1
254,862,255,-1
241,266,265,-1
241,274,266,-1
241,276,274,-1
266,275,267,-1
275,266,274,-1
253,278,277,-1
253,881,278,-1
278,882,279,-1
227,149,226,-1
157,227,161,-1
161,227,286,-1
286,227,290,-1
288,161,287,-1
233,290,227,-1
233,263,298,-1
233,298,290,-1
290,299,291,-1
299,290,298,-1
288,314,161,-1
289,291,302,-1
302,291,304,-1
304,291,326,-1
305,306,303,-1
306,327,303,-1
327,328,303,-1
314,312,191,-1
316,315,303,-1
336,338,303,-1
317,316,303,-1
338,317,303,-1
291,299,326,-1
326,299,329,-1
328,337,303,-1
329,350,330,-1
299,350,329,-1
330,350,340,-1
340,350,362,-1
337,336,303,-1
340,341,339,-1
342,339,341,-1
340,362,341,-1
267,298,263,-1
267,352,298,-1
267,275,352,-1
352,358,353,-1
279,358,275,-1
275,358,352,-1
279,359,358,-1
933,359,279,-1
353,363,351,-1
363,353,358,-1
371,364,370,-1
956,359,955,-1
359,956,965,-1
359,965,373,-1
368,370,364,-1
368,372,370,-1
373,965,374,-1
0,439,382,-1
0,382,1112,-1
382,439,1112,-1
1,401,402,-1
1,407,408,-1
1,408,401,-1
1,402,403,-1
1,403,427,-1
1,427,428,-1
1,383,407,-1
1,428,439,-1
383,476,387,-1
387,395,391,-1
471,391,395,-1
385,409,407,-1
409,385,410,-1
410,385,411,-1
411,385,417,-1
439,428,429,-1
439,429,430,-1
439,430,431,-1
439,431,437,-1
439,437,440,-1
439,440,441,-1
439,441,442,-1
439,442,443,-1
439,443,444,-1
439,444,460,-1
385,407,383,-1
389,417,385,-1
417,389,418,-1
389,419,418,-1
450,389,466,-1
389,470,466,-1
389,420,419,-1
389,421,420,-1
389,450,421,-1
450,467,451,-1
450,466,467,-1
454,472,452,-1
451,472,454,-1
472,451,467,-1
391,471,390,-1
399,671,472,-1
452,472,671,-1
677,462,671,-1
453,671,462,-1
452,671,453,-1
178,383,146,-1
181,383,178,-1
181,479,383,-1
182,478,181,-1
181,478,479,-1
182,482,478,-1
182,496,482,-1
182,500,496,-1
196,556,182,-1
199,556,196,-1
203,556,199,-1
203,313,556,-1
182,502,500,-1
182,556,502,-1
483,516,480,-1
481,516,490,-1
480,516,481,-1
490,516,492,-1
492,516,529,-1
497,516,483,-1
498,516,497,-1
499,516,498,-1
501,516,499,-1
557,502,556,-1
503,516,501,-1
502,558,505,-1
503,504,516,-1
505,516,504,-1
558,516,505,-1
516,558,517,-1
476,383,479,-1
491,387,476,-1
387,491,395,-1
395,491,396,-1
396,528,520,-1
528,396,491,-1
520,528,531,-1
522,396,520,-1
396,522,524,-1
529,516,530,-1
520,531,537,-1
520,537,541,-1
520,541,543,-1
530,516,536,-1
536,516,538,-1
538,516,539,-1
542,540,539,-1
542,539,516,-1
517,612,543,-1
613,543,612,-1
552,543,613,-1
618,552,613,-1
543,552,520,-1
525,554,636,-1
552,618,554,-1
554,618,634,-1
636,554,634,-1
318,556,313,-1
318,560,556,-1
339,560,318,-1
339,342,560,-1
560,342,364,-1
560,371,561,-1
570,561,375,-1
502,557,558,-1
559,561,568,-1
568,561,570,-1
558,612,517,-1
558,614,612,-1
569,571,572,-1
572,583,569,-1
583,585,569,-1
616,615,569,-1
617,616,569,-1
626,617,569,-1
586,626,569,-1
579,570,578,-1
579,582,570,-1
582,579,584,-1
579,598,584,-1
585,587,569,-1
587,586,569,-1
584,598,588,-1
588,598,646,-1
588,646,589,-1
560,364,371,-1
561,371,375,-1
570,969,578,-1
570,375,969,-1
969,600,578,-1
601,647,599,-1
600,607,601,-1
647,601,607,-1
1125,608,1113,-1
606,652,648,-1
606,654,652,-1
608,1125,1127,-1
608,1127,656,-1
608,656,655,-1
627,634,618,-1
589,628,627,-1
629,627,628,-1
589,646,628,-1
627,629,634,-1
640,629,648,-1
634,629,640,-1
642,643,680,-1
680,643,683,-1
643,704,683,-1
653,648,652,-1
640,648,653,-1
640,653,657,-1
640,657,1208,-1
640,1235,664,-1
640,666,643,-1
640,664,666,-1
643,666,704,-1
396,524,670,-1
525,676,672,-1
525,692,676,-1
525,636,692,-1
676,691,677,-1
691,676,690,-1
692,690,676,-1
439,460,1535,-1
637,692,636,-1
682,684,681,-1
681,684,705,-1
681,705,712,-1
697,696,681,-1
698,697,681,-1
681,712,713,-1
681,713,714,-1
681,720,698,-1
681,714,720,-1
704,666,706,-1
726,706,666,-1
667,726,666,-1
706,726,707,-1
707,726,715,-1
699,721,725,-1
715,724,721,-1
725,721,724,-1
724,715,726,-1
1535,460,461,-1
1535,461,462,-1
1535,462,677,-1
0,730,1111,-1
0,1112,730,-1
730,1112,1111,-1
1,1111,791,-1
735,117,731,-1
738,732,737,-1
732,751,750,-1
732,738,778,-1
732,753,751,-1
732,778,753,-1
741,747,744,-1
748,744,747,-1
141,743,861,-1
744,861,743,-1
861,744,748,-1
741,749,747,-1
751,754,752,-1
754,751,753,-1
752,873,748,-1
873,752,754,-1
765,771,766,-1
763,778,738,-1
766,777,764,-1
777,766,771,-1
772,807,786,-1
779,901,754,-1
779,784,913,-1
775,783,779,-1
784,779,783,-1
775,785,783,-1
808,913,784,-1
914,808,810,-1
792,772,791,-1
772,792,812,-1
793,812,792,-1
772,809,807,-1
772,812,809,-1
796,811,794,-1
795,803,796,-1
811,796,803,-1
807,810,808,-1
810,807,809,-1
813,914,810,-1
914,813,822,-1
805,821,813,-1
822,813,821,-1
805,823,821,-1
843,914,822,-1
829,827,828,-1
827,829,847,-1
827,842,841,-1
827,845,842,-1
827,847,845,-1
830,847,829,-1
837,1097,838,-1
838,844,831,-1
844,838,1097,-1
842,846,843,-1
846,842,845,-1
1101,856,855,-1
857,855,856,-1
861,748,865,-1
862,254,861,-1
253,862,883,-1
863,883,862,-1
864,866,874,-1
865,748,873,-1
873,754,901,-1
865,874,866,-1
874,865,873,-1
864,874,895,-1
875,895,874,-1
876,902,904,-1
253,883,881,-1
864,885,884,-1
864,893,885,-1
882,278,881,-1
864,895,893,-1
876,917,896,-1
876,919,917,-1
885,894,886,-1
894,885,893,-1
779,903,901,-1
903,779,913,-1
901,904,902,-1
904,901,903,-1
876,904,921,-1
905,921,904,-1
922,906,914,-1
808,914,913,-1
876,921,919,-1
917,920,918,-1
920,917,919,-1
279,882,934,-1
933,279,934,-1
886,934,882,-1
934,886,939,-1
955,359,933,-1
958,935,940,-1
886,894,939,-1
918,939,894,-1
918,942,939,-1
918,946,942,-1
959,940,941,-1
959,941,943,-1
959,958,940,-1
977,957,959,-1
977,966,957,-1
966,977,968,-1
967,374,965,-1
969,375,374,-1
969,374,967,-1
959,943,944,-1
959,944,945,-1
959,945,977,-1
978,970,977,-1
984,978,985,-1
968,977,970,-1
970,978,981,-1
981,978,983,-1
983,978,986,-1
986,978,989,-1
989,978,984,-1
986,989,987,-1
918,920,1001,-1
918,1001,946,-1
1001,920,930,-1
1002,946,1001,-1
1009,1012,1010,-1
1012,1009,1011,-1
946,1002,1025,-1
1003,1025,1002,-1
946,1025,978,-1
1004,1010,1017,-1
1017,1010,1035,-1
1019,1036,1018,-1
978,1023,985,-1
1025,1023,978,-1
985,1023,990,-1
1027,1026,1018,-1
1051,1027,1018,-1
1035,1010,1037,-1
1010,1012,1037,-1
1036,1038,1018,-1
1038,1039,1018,-1
1039,1049,1018,-1
1037,1012,1040,-1
1065,1040,1012,-1
1040,1065,1041,-1
1049,1050,1018,-1
1050,1052,1018,-1
1052,1051,1018,-1
1041,1077,1053,-1
1053,1055,1054,-1
1056,1054,1055,-1
1055,1053,1077,-1
922,914,843,-1
922,855,929,-1
929,857,930,-1
922,843,846,-1
922,846,855,-1
1001,930,1106,-1
929,855,857,-1
1106,930,857,-1
1111,1009,1001,-1
1111,1011,1009,-1
1067,1073,1068,-1
1068,1078,1066,-1
1041,1065,1077,-1
1078,1068,1073,-1
1083,1085,1079,-1
1086,1079,1085,-1
1083,1087,1085,-1
1074,1093,1088,-1
1111,795,791,-1
1111,803,795,-1
1111,827,803,-1
1111,828,827,-1
1111,837,828,-1
1111,1097,837,-1
1111,1098,1097,-1
1111,1105,1098,-1
1098,1105,1104,-1
1101,1103,856,-1
1111,1001,1106,-1
1111,1106,1105,-1
1111,1067,1011,-1
1111,1073,1067,-1
1111,1074,1073,-1
1111,1093,1074,-1
1111,1094,1093,-1
1111,1282,1094,-1
1111,1327,1282,-1
1111,1328,1327,-1
1111,1475,1328,-1
1111,1477,1475,-1
982,600,969,-1
988,600,982,-1
990,600,988,-1
990,1023,600,-1
1023,607,600,-1
1023,608,607,-1
1024,1115,608,-1
1024,608,1023,-1
1024,1133,1115,-1
1024,1136,1133,-1
1024,1139,1136,-1
1114,608,1115,-1
1113,608,1114,-1
1117,1153,1118,-1
1118,1153,1126,-1
1126,1153,1128,-1
1128,1153,1200,-1
1116,1153,1117,-1
1134,1153,1116,-1
1135,1154,1134,-1
1137,1154,1135,-1
1138,1154,1137,-1
1140,1154,1138,-1
1134,1154,1153,-1
1140,1141,1154,-1
1142,1235,1141,-1
1141,1235,1154,-1
1028,1157,1024,-1
1054,1157,1028,-1
1024,1157,1139,-1
1054,1056,1157,-1
1079,1171,1056,-1
1056,1171,1157,-1
1158,1139,1157,-1
1139,1158,1159,-1
1160,1172,1165,-1
1165,1172,1179,-1
1139,1237,1142,-1
1139,1159,1237,-1
1237,1235,1142,-1
1167,1180,1166,-1
1239,1238,1166,-1
1247,1239,1166,-1
1171,1174,1172,-1
1179,1172,1181,-1
1172,1174,1181,-1
1174,1171,1173,-1
1181,1174,1186,-1
1273,1186,1174,-1
1180,1182,1166,-1
1182,1183,1166,-1
1183,1184,1166,-1
1184,1185,1166,-1
1248,1247,1166,-1
1185,1248,1166,-1
1186,1273,1187,-1
1187,1273,1188,-1
1199,656,1127,-1
656,1199,657,-1
1201,657,1199,-1
1208,657,1201,-1
640,1208,1212,-1
640,1212,1214,-1
640,1214,1235,-1
1200,1153,1202,-1
1202,1153,1207,-1
1207,1153,1209,-1
1209,1153,1210,-1
1213,1210,1153,-1
1213,1211,1210,-1
1236,664,1235,-1
664,1236,1223,-1
1226,1355,1225,-1
1223,1236,1257,-1
1223,1230,1226,-1
1229,1226,1230,-1
1226,1229,1355,-1
1230,1223,1257,-1
1154,1235,1214,-1
1188,1250,1249,-1
1250,1188,1287,-1
1251,1249,1250,-1
1240,1311,1236,-1
1249,1311,1240,-1
1257,1236,1263,-1
1263,1236,1264,-1
1264,1236,1301,-1
1311,1301,1236,-1
1267,1389,1260,-1
1268,1390,1267,-1
1269,1390,1268,-1
1079,1086,1171,-1
1086,1173,1171,-1
1086,1275,1173,-1
1094,1281,1086,-1
1086,1281,1275,-1
1094,1282,1281,-1
1276,1288,1274,-1
1288,1276,1281,-1
1273,1287,1188,-1
1275,1281,1276,-1
1283,1293,1289,-1
1283,1295,1293,-1
1282,1327,1296,-1
1249,1251,1311,-1
1289,1311,1251,-1
1294,1289,1293,-1
1311,1289,1294,-1
1328,1312,1294,-1
1328,1331,1312,-1
1303,1390,1269,-1
1301,1311,1316,-1
1301,1316,1306,-1
1317,1306,1316,-1
1311,1294,1312,-1
1319,1315,1318,-1
1320,1315,1319,-1
1315,1320,1317,-1
1335,1317,1320,-1
1336,1317,1335,-1
1306,1317,1339,-1
1331,1328,1332,-1
1332,1328,1347,-1
1337,1317,1336,-1
1338,1317,1337,-1
1424,1306,1339,-1
1339,1317,1338,-1
1328,1345,1347,-1
1350,1348,1347,-1
1350,1347,1345,-1
1348,1350,1468,-1
1348,1468,1349,-1
439,1535,1112,-1
1225,1364,1363,-1
1225,1359,1364,-1
1225,1355,1359,-1
1364,1369,1365,-1
1369,1364,1359,-1
1373,1365,1369,-1
1259,1389,1231,-1
1231,1389,1356,-1
1356,1389,1360,-1
1360,1389,1371,-1
1260,1389,1259,-1
1267,1390,1389,-1
1371,1389,1374,-1
1379,1365,1373,-1
1374,1389,1377,-1
1377,1389,1378,-1
1378,1389,1380,-1
1380,1401,1381,-1
1535,677,691,-1
1535,691,699,-1
1304,1390,1303,-1
1304,1305,1390,-1
1306,1390,1305,-1
1306,1393,1390,-1
1393,1306,1421,-1
1421,1306,1426,-1
1426,1306,1425,-1
1390,1394,1397,-1
1394,1390,1393,-1
1397,1394,1398,-1
1422,1398,1394,-1
1401,1380,1389,-1
1390,1405,1402,-1
1405,1390,1397,-1
1398,1408,1407,-1
1408,1398,1409,-1
1409,1398,1410,-1
1410,1398,1455,-1
1455,1398,1456,-1
1425,1306,1424,-1
1423,1427,1428,-1
1437,1398,1422,-1
1438,1398,1437,-1
1439,1398,1438,-1
1440,1398,1439,-1
1459,1398,1440,-1
1446,1428,1427,-1
1446,1449,1428,-1
1349,1479,1445,-1
1445,1485,1446,-1
1449,1446,1485,-1
1449,1485,1450,-1
1450,1481,1451,-1
1481,1450,1482,-1
1456,1398,1458,-1
1458,1398,1459,-1
1451,1505,1465,-1
1505,1451,1481,-1
1535,699,725,-1
1535,725,1365,-1
1535,1365,1379,-1
1535,1379,1382,-1
1111,1112,1535,-1
1345,1328,1475,-1
1479,1349,1468,-1
1467,1477,1469,-1
1469,1477,1470,-1
1470,1477,1486,-1
1486,1477,1488,-1
1111,1535,1477,-1
1445,1479,1485,-1
1487,1450,1485,-1
1450,1496,1482,-1
1495,1450,1487,-1
1496,1450,1495,-1
1497,1482,1496,-1
1498,1482,1497,-1
1482,1504,1503,-1
1504,1482,1506,-1
1506,1482,1507,-1
1507,1482,1508,-1
1508,1482,1520,-1
1519,1482,1498,-1
1520,1482,1519,-1
1535,1488,1477,-1
1535,1489,1488,-1
1535,1527,1489,-1
1535,1382,1402,-1
1535,1402,1405,-1
1535,1405,1406,-1
1535,1406,1411,-1
1535,1411,1412,-1
1535,1412,1457,-1
1535,1457,1465,-1
1535,1465,1505,-1
1535,1505,1509,-1
1535,1509,1510,-1
1535,1510,1521,-1
1535,1522,1533,-1
1535,1521,1522,-1
1535,1528,1527,-1
1535,1529,1528,-1
1535,1533,1529,-1
4,3,2,-1
4,5,3,-1
10,7,6,-1
12,6,8,-1
11,29,7,-1
10,11,7,-1
10,6,12,-1
10,12,11,-1
12,8,25,-1
12,25,13,-1
11,33,29,-1
11,12,13,-1
11,13,33,-1
5,14,3,-1
18,22,14,-1
20,2,16,-1
19,17,15,-1
21,16,17,-1
5,18,14,-1
4,2,20,-1
4,18,5,-1
4,20,18,-1
18,19,25,-1
19,15,26,-1
19,21,17,-1
20,16,21,-1
18,20,19,-1
19,20,21,-1
25,8,22,-1
26,15,23,-1
27,36,24,-1
18,25,22,-1
25,19,26,-1
25,26,27,-1
27,24,13,-1
25,27,13,-1
26,23,44,-1
26,43,27,-1
13,24,9,-1
32,9,28,-1
33,28,29,-1
34,31,30,-1
43,30,36,-1
13,9,32,-1
32,28,33,-1
13,32,33,-1
27,43,36,-1
26,44,43,-1
34,35,31,-1
34,30,43,-1
34,43,35,-1
44,23,37,-1
35,39,31,-1
45,37,38,-1
46,38,39,-1
47,41,40,-1
49,40,42,-1
48,70,41,-1
44,37,45,-1
35,46,39,-1
45,38,46,-1
35,43,44,-1
35,44,46,-1
44,45,46,-1
47,48,41,-1
47,40,49,-1
47,49,48,-1
48,49,71,-1
54,51,50,-1
55,52,51,-1
56,58,52,-1
66,50,64,-1
57,65,53,-1
54,55,51,-1
55,56,52,-1
54,56,55,-1
54,50,66,-1
57,53,62,-1
54,57,56,-1
56,57,61,-1
54,66,57,-1
61,42,58,-1
62,53,59,-1
63,76,60,-1
56,61,58,-1
61,62,63,-1
61,57,62,-1
63,60,71,-1
61,63,71,-1
67,64,65,-1
57,67,65,-1
66,64,67,-1
57,66,67,-1
62,59,85,-1
63,62,84,-1
71,60,68,-1
72,68,69,-1
73,69,70,-1
61,49,42,-1
61,71,49,-1
48,73,70,-1
71,68,72,-1
72,69,73,-1
48,71,73,-1
71,72,73,-1
85,59,77,-1
82,75,74,-1
84,74,76,-1
83,80,75,-1
86,77,78,-1
88,78,80,-1
87,81,79,-1
106,79,102,-1
63,84,76,-1
62,85,84,-1
82,83,75,-1
82,74,84,-1
82,84,83,-1
83,84,85,-1
83,85,88,-1
85,77,86,-1
83,88,80,-1
86,78,88,-1
87,89,81,-1
87,79,106,-1
85,86,88,-1
87,106,89,-1
93,90,91,-1
92,90,93,-1
92,102,90,-1
106,102,92,-1
93,91,101,-1
106,92,93,-1
106,93,95,-1
107,95,94,-1
99,96,97,-1
98,96,99,-1
101,91,100,-1
95,110,94,-1
98,100,96,-1
93,101,95,-1
95,101,112,-1
101,100,98,-1
101,98,115,-1
113,115,114,-1
101,115,112,-1
89,105,81,-1
107,94,103,-1
108,103,104,-1
109,104,105,-1
106,95,107,-1
107,103,108,-1
89,109,105,-1
89,106,107,-1
89,107,109,-1
108,104,109,-1
107,108,109,-1
112,111,110,-1
113,114,111,-1
95,112,110,-1
112,113,111,-1
112,115,113,-1
115,124,114,-1
133,97,125,-1
99,97,133,-1
98,99,133,-1
98,133,115,-1
119,116,117,-1
118,116,119,-1
118,138,116,-1
142,138,118,-1
119,117,736,-1
142,118,119,-1
142,119,121,-1
143,121,120,-1
130,123,122,-1
132,122,124,-1
131,128,123,-1
134,125,126,-1
135,129,127,-1
136,126,128,-1
142,127,138,-1
115,132,124,-1
115,133,132,-1
130,131,123,-1
130,122,132,-1
130,132,131,-1
131,132,133,-1
131,136,128,-1
133,125,134,-1
135,137,129,-1
134,126,136,-1
135,127,142,-1
131,133,136,-1
133,134,136,-1
135,142,137,-1
137,141,129,-1
143,120,139,-1
144,139,140,-1
145,140,141,-1
142,121,143,-1
143,139,144,-1
137,145,141,-1
137,142,143,-1
137,143,145,-1
144,140,145,-1
143,144,145,-1
147,178,146,-1
174,147,146,-1
147,184,178,-1
152,148,149,-1
175,150,171,-1
162,149,154,-1
153,155,150,-1
152,151,148,-1
152,175,151,-1
152,149,162,-1
175,153,150,-1
153,163,155,-1
152,153,175,-1
152,162,153,-1
153,162,163,-1
163,156,155,-1
165,154,157,-1
164,158,156,-1
166,159,158,-1
167,160,159,-1
169,157,161,-1
162,154,165,-1
163,164,156,-1
164,166,158,-1
166,167,159,-1
162,165,164,-1
162,164,163,-1
164,165,166,-1
166,165,167,-1
165,157,169,-1
167,168,160,-1
169,161,193,-1
165,169,167,-1
169,168,167,-1
151,170,148,-1
174,146,170,-1
176,171,172,-1
177,172,173,-1
174,170,151,-1
176,175,171,-1
176,172,177,-1
174,151,176,-1
174,176,177,-1
151,175,176,-1
177,173,185,-1
174,177,147,-1
147,177,184,-1
184,181,178,-1
185,173,179,-1
186,179,180,-1
187,182,181,-1
189,180,183,-1
188,196,182,-1
204,183,194,-1
184,187,181,-1
185,179,186,-1
184,177,185,-1
184,185,187,-1
185,186,187,-1
187,188,182,-1
187,186,188,-1
186,180,189,-1
189,183,204,-1
188,206,196,-1
186,189,188,-1
188,189,206,-1
189,204,206,-1
168,190,160,-1
192,191,190,-1
193,161,191,-1
168,192,190,-1
192,193,191,-1
169,193,168,-1
168,193,192,-1
205,194,195,-1
206,199,196,-1
207,195,197,-1
208,197,198,-1
209,203,199,-1
210,202,200,-1
211,200,201,-1
212,198,202,-1
213,201,203,-1
204,194,205,-1
205,195,207,-1
207,197,208,-1
206,209,199,-1
204,205,206,-1
205,209,206,-1
205,207,209,-1
207,208,209,-1
210,212,202,-1
210,200,211,-1
211,201,213,-1
210,211,212,-1
208,198,212,-1
209,213,203,-1
209,208,213,-1
208,212,213,-1
211,213,212,-1
216,215,214,-1
216,217,215,-1
217,218,215,-1
224,214,220,-1
222,230,218,-1
223,221,219,-1
225,220,221,-1
216,214,224,-1
217,222,218,-1
216,222,217,-1
216,223,222,-1
216,224,223,-1
222,223,234,-1
223,225,221,-1
224,220,225,-1
224,225,223,-1
223,219,235,-1
228,227,226,-1
228,229,227,-1
235,219,231,-1
222,234,230,-1
223,235,234,-1
234,226,230,-1
229,233,227,-1
236,231,232,-1
237,232,233,-1
228,226,234,-1
229,237,233,-1
228,234,229,-1
229,234,235,-1
229,235,237,-1
235,231,236,-1
236,232,237,-1
235,236,237,-1
244,239,238,-1
245,240,239,-1
246,264,240,-1
248,238,242,-1
247,243,241,-1
249,242,243,-1
244,245,239,-1
245,246,240,-1
244,238,248,-1
244,246,245,-1
244,248,246,-1
246,247,270,-1
247,249,243,-1
248,242,249,-1
248,247,246,-1
248,249,247,-1
247,241,271,-1
256,251,250,-1
257,252,251,-1
258,276,252,-1
260,250,254,-1
259,255,253,-1
261,254,255,-1
256,257,251,-1
257,258,252,-1
256,250,260,-1
256,258,257,-1
256,260,258,-1
258,259,282,-1
259,261,255,-1
260,254,261,-1
258,260,259,-1
260,261,259,-1
259,253,283,-1
271,241,265,-1
246,270,264,-1
247,271,270,-1
268,263,262,-1
270,262,264,-1
269,267,263,-1
272,265,266,-1
273,266,267,-1
268,269,263,-1
270,268,262,-1
270,269,268,-1
270,273,269,-1
269,273,267,-1
271,265,272,-1
272,266,273,-1
270,271,273,-1
271,272,273,-1
283,253,277,-1
258,282,276,-1
259,283,282,-1
280,275,274,-1
282,274,276,-1
281,279,275,-1
284,277,278,-1
285,278,279,-1
280,281,275,-1
282,280,274,-1
282,281,280,-1
282,283,281,-1
281,285,279,-1
283,277,284,-1
284,278,285,-1
281,283,285,-1
283,284,285,-1
292,287,286,-1
293,288,287,-1
296,286,290,-1
295,291,289,-1
297,290,291,-1
292,293,287,-1
293,294,288,-1
292,286,296,-1
292,294,293,-1
292,295,294,-1
296,290,297,-1
295,297,291,-1
292,296,295,-1
295,296,297,-1
300,299,298,-1
301,350,299,-1
300,301,299,-1
301,354,350,-1
300,354,301,-1
294,314,288,-1
307,289,302,-1
308,305,303,-1
309,302,304,-1
310,306,305,-1
294,295,307,-1
294,307,308,-1
294,308,321,-1
295,289,307,-1
307,302,309,-1
308,310,305,-1
308,303,322,-1
309,304,331,-1
310,311,306,-1
307,310,308,-1
307,309,310,-1
309,311,310,-1
309,331,311,-1
319,313,312,-1
321,312,314,-1
320,318,313,-1
322,303,315,-1
323,315,316,-1
324,316,317,-1
294,321,314,-1
321,308,322,-1
319,312,321,-1
319,320,313,-1
319,321,320,-1
320,321,325,-1
322,315,323,-1
320,325,318,-1
323,316,324,-1
321,322,325,-1
322,323,325,-1
323,324,325,-1
331,304,326,-1
311,327,306,-1
332,328,327,-1
334,326,329,-1
335,329,330,-1
331,326,334,-1
311,332,327,-1
332,333,328,-1
334,329,335,-1
311,331,332,-1
331,334,332,-1
332,334,333,-1
333,334,335,-1
335,330,347,-1
343,338,336,-1
333,337,328,-1
344,336,337,-1
346,340,339,-1
345,317,338,-1
325,339,318,-1
347,330,340,-1
348,342,341,-1
365,341,362,-1
343,345,338,-1
333,344,337,-1
344,343,336,-1
333,335,344,-1
344,335,347,-1
344,347,343,-1
343,347,346,-1
324,317,345,-1
325,346,339,-1
325,324,346,-1
324,345,346,-1
343,346,345,-1
347,340,346,-1
348,341,365,-1
348,349,342,-1
348,365,349,-1
356,298,352,-1
355,353,351,-1
357,352,353,-1
300,298,356,-1
355,357,353,-1
300,356,354,-1
354,356,355,-1
355,356,357,-1
356,352,357,-1
361,358,359,-1
360,358,361,-1
354,365,350,-1
355,351,366,-1
354,355,366,-1
360,366,363,-1
365,362,350,-1
366,351,363,-1
349,364,342,-1
367,368,364,-1
354,366,365,-1
349,367,364,-1
365,366,367,-1
349,365,367,-1
366,369,367,-1
360,363,358,-1
369,372,368,-1
360,361,366,-1
367,369,368,-1
361,369,366,-1
361,359,379,-1
361,379,369,-1
376,371,370,-1
378,370,372,-1
377,375,371,-1
379,359,373,-1
380,373,374,-1
381,374,375,-1
369,378,372,-1
376,377,371,-1
376,370,378,-1
376,378,377,-1
377,378,379,-1
369,379,378,-1
379,373,380,-1
377,381,375,-1
380,374,381,-1
377,379,381,-1
379,380,381,-1
384,385,383,-1
384,386,385,-1
384,392,386,-1
386,389,385,-1
386,392,389,-1
388,383,387,-1
394,387,391,-1
384,383,388,-1
384,388,392,-1
388,387,394,-1
393,388,394,-1
393,391,390,-1
392,388,393,-1
393,394,391,-1
398,395,396,-1
397,395,398,-1
397,471,395,-1
474,397,398,-1
413,401,408,-1
405,403,402,-1
406,427,403,-1
404,402,401,-1
404,401,413,-1
406,432,427,-1
405,406,403,-1
405,402,404,-1
412,408,407,-1
414,407,409,-1
415,409,410,-1
416,410,411,-1
413,408,412,-1
412,407,414,-1
405,404,459,-1
414,409,415,-1
415,410,416,-1
416,411,422,-1
413,412,459,-1
404,413,459,-1
412,414,459,-1
414,415,456,-1
422,411,417,-1
423,417,418,-1
424,418,419,-1
425,419,420,-1
426,420,421,-1
455,421,450,-1
422,417,423,-1
423,418,424,-1
415,416,424,-1
416,422,423,-1
416,423,424,-1
415,424,425,-1
415,425,426,-1
415,426,455,-1
414,456,459,-1
415,455,456,-1
424,419,425,-1
425,420,426,-1
426,421,455,-1
432,428,427,-1
433,429,428,-1
434,430,429,-1
435,431,430,-1
436,437,431,-1
432,433,428,-1
433,434,429,-1
434,435,430,-1
435,436,431,-1
433,438,434,-1
434,436,435,-1
434,438,436,-1
433,445,438,-1
433,446,445,-1
438,440,437,-1
436,438,437,-1
438,445,440,-1
432,465,433,-1
406,459,432,-1
405,459,406,-1
433,464,463,-1
432,457,458,-1
432,458,465,-1
433,465,464,-1
445,441,440,-1
446,442,441,-1
447,443,442,-1
448,444,443,-1
449,460,444,-1
445,446,441,-1
446,447,442,-1
433,447,446,-1
433,448,447,-1
433,449,448,-1
447,448,443,-1
448,449,444,-1
433,463,449,-1
456,450,451,-1
459,451,454,-1
457,454,452,-1
458,452,453,-1
432,459,457,-1
455,450,456,-1
456,451,459,-1
465,458,453,-1
458,457,452,-1
459,454,457,-1
463,461,460,-1
464,462,461,-1
465,453,462,-1
449,463,460,-1
463,464,461,-1
465,462,464,-1
468,467,466,-1
473,466,470,-1
469,472,467,-1
468,466,473,-1
468,473,469,-1
468,469,467,-1
392,473,389,-1
393,390,474,-1
392,393,474,-1
473,470,389,-1
474,390,471,-1
392,474,473,-1
474,471,397,-1
474,398,400,-1
475,400,399,-1
475,399,472,-1
474,400,475,-1
474,475,473,-1
469,475,472,-1
469,473,475,-1
477,491,476,-1
485,477,476,-1
477,494,491,-1
488,478,482,-1
484,479,478,-1
487,480,481,-1
506,482,496,-1
489,497,483,-1
486,483,480,-1
488,484,478,-1
488,486,484,-1
485,479,484,-1
487,486,480,-1
485,484,487,-1
484,486,487,-1
488,482,506,-1
489,483,486,-1
489,507,497,-1
488,489,486,-1
488,506,489,-1
489,506,507,-1
485,476,479,-1
493,481,490,-1
494,528,491,-1
495,490,492,-1
533,492,529,-1
487,481,493,-1
493,490,495,-1
485,493,477,-1
485,487,493,-1
477,493,494,-1
494,532,528,-1
495,492,533,-1
494,493,495,-1
494,495,532,-1
495,533,532,-1
507,498,497,-1
510,496,500,-1
508,499,498,-1
509,501,499,-1
511,503,501,-1
512,500,502,-1
513,504,503,-1
514,505,504,-1
515,502,505,-1
506,496,510,-1
507,508,498,-1
508,509,499,-1
509,511,501,-1
506,508,507,-1
506,510,508,-1
508,510,509,-1
509,510,511,-1
510,500,512,-1
510,512,511,-1
511,512,513,-1
511,513,503,-1
513,514,504,-1
514,515,505,-1
512,502,515,-1
512,515,513,-1
513,515,514,-1
518,542,516,-1
519,516,517,-1
518,516,519,-1
518,519,550,-1
521,522,520,-1
521,523,522,-1
398,396,673,-1
553,520,552,-1
521,520,553,-1
521,526,523,-1
521,553,526,-1
523,524,522,-1
523,526,524,-1
526,553,527,-1
532,531,528,-1
534,529,530,-1
535,537,531,-1
544,530,536,-1
532,535,531,-1
533,535,532,-1
533,529,534,-1
534,530,544,-1
535,545,537,-1
533,534,535,-1
535,534,545,-1
534,544,545,-1
546,536,538,-1
545,541,537,-1
547,538,539,-1
548,539,540,-1
549,543,541,-1
550,540,542,-1
551,517,543,-1
546,538,547,-1
544,536,546,-1
547,539,548,-1
545,549,541,-1
544,546,545,-1
546,549,545,-1
546,547,549,-1
547,548,549,-1
518,550,542,-1
548,540,550,-1
519,517,551,-1
549,551,543,-1
548,550,551,-1
519,551,550,-1
549,548,551,-1
555,552,554,-1
553,552,555,-1
527,553,555,-1
527,554,525,-1
527,555,554,-1
562,557,556,-1
563,558,557,-1
566,556,560,-1
565,561,559,-1
567,560,561,-1
573,559,568,-1
562,563,557,-1
563,564,558,-1
562,556,566,-1
562,564,563,-1
562,565,564,-1
564,565,573,-1
564,573,574,-1
565,567,561,-1
566,560,567,-1
562,566,565,-1
565,566,567,-1
565,559,573,-1
621,614,558,-1
574,571,569,-1
575,568,570,-1
576,572,571,-1
622,569,615,-1
564,621,558,-1
564,574,621,-1
574,622,621,-1
573,568,575,-1
574,576,571,-1
575,570,590,-1
576,577,572,-1
573,576,574,-1
573,575,576,-1
575,577,576,-1
575,590,577,-1
574,569,622,-1
580,579,578,-1
581,598,579,-1
580,581,579,-1
581,602,598,-1
580,602,581,-1
590,570,582,-1
577,583,572,-1
591,585,583,-1
592,582,584,-1
596,584,588,-1
593,587,585,-1
595,586,587,-1
597,588,589,-1
590,582,592,-1
577,591,583,-1
591,593,585,-1
592,584,596,-1
577,590,591,-1
590,592,591,-1
592,593,591,-1
592,596,593,-1
593,595,587,-1
595,594,586,-1
593,596,595,-1
595,596,597,-1
595,597,594,-1
594,597,631,-1
596,588,597,-1
597,589,631,-1
604,578,600,-1
603,601,599,-1
605,600,601,-1
580,578,604,-1
603,605,601,-1
580,604,602,-1
602,604,603,-1
603,604,605,-1
603,599,650,-1
602,603,650,-1
604,600,605,-1
649,646,598,-1
650,599,647,-1
651,606,648,-1
602,649,598,-1
602,650,649,-1
610,650,647,-1
609,651,650,-1
610,647,607,-1
611,607,608,-1
610,611,650,-1
610,607,611,-1
611,608,661,-1
609,654,606,-1
661,608,655,-1
609,606,651,-1
611,609,650,-1
609,660,654,-1
611,661,609,-1
609,661,660,-1
619,613,612,-1
621,612,614,-1
620,618,613,-1
623,615,616,-1
624,616,617,-1
619,620,613,-1
619,612,621,-1
619,621,620,-1
620,621,625,-1
622,615,623,-1
620,625,618,-1
623,616,624,-1
621,622,625,-1
622,623,625,-1
623,624,625,-1
630,617,626,-1
594,626,586,-1
625,627,618,-1
631,589,627,-1
632,629,628,-1
649,628,646,-1
624,617,630,-1
594,630,626,-1
625,631,627,-1
624,630,631,-1
625,624,631,-1
594,631,630,-1
632,633,629,-1
632,628,649,-1
632,649,633,-1
635,636,634,-1
635,638,636,-1
635,639,638,-1
635,634,641,-1
638,637,636,-1
638,639,637,-1
635,644,639,-1
639,644,685,-1
639,685,686,-1
641,634,640,-1
645,640,643,-1
635,641,644,-1
641,640,645,-1
644,641,645,-1
644,643,642,-1
685,642,680,-1
644,642,685,-1
644,645,643,-1
633,648,629,-1
633,651,648,-1
633,649,651,-1
649,650,651,-1
658,653,652,-1
660,652,654,-1
659,657,653,-1
662,655,656,-1
663,656,657,-1
658,659,653,-1
658,652,660,-1
658,660,659,-1
659,660,661,-1
661,655,662,-1
659,663,657,-1
662,656,663,-1
659,661,663,-1
661,662,663,-1
665,666,664,-1
665,668,666,-1
665,669,668,-1
665,664,1224,-1
665,1224,669,-1
668,667,666,-1
668,669,667,-1
400,671,399,-1
398,673,400,-1
673,396,670,-1
400,673,674,-1
400,674,671,-1
526,670,524,-1
527,525,675,-1
526,527,673,-1
675,525,672,-1
526,673,670,-1
527,674,673,-1
527,675,674,-1
674,677,671,-1
674,679,677,-1
674,675,679,-1
678,672,676,-1
679,676,677,-1
675,672,678,-1
678,676,679,-1
675,678,679,-1
639,692,637,-1
639,686,695,-1
639,695,692,-1
686,700,695,-1
688,680,683,-1
686,682,681,-1
708,683,704,-1
687,684,682,-1
689,705,684,-1
685,680,688,-1
685,687,686,-1
685,688,687,-1
686,687,682,-1
688,683,708,-1
688,708,689,-1
687,689,684,-1
687,688,689,-1
700,681,696,-1
686,681,700,-1
693,691,690,-1
695,690,692,-1
694,699,691,-1
693,690,695,-1
693,695,694,-1
693,694,691,-1
694,695,703,-1
701,696,697,-1
702,697,698,-1
700,696,701,-1
695,700,703,-1
700,701,703,-1
694,703,699,-1
702,701,697,-1
702,698,722,-1
702,703,701,-1
702,723,703,-1
703,723,699,-1
709,712,705,-1
710,704,706,-1
711,706,707,-1
708,704,710,-1
689,709,705,-1
709,716,712,-1
689,708,709,-1
708,710,709,-1
710,716,709,-1
710,706,711,-1
710,711,716,-1
716,713,712,-1
718,720,714,-1
717,714,713,-1
719,707,715,-1
716,717,713,-1
716,711,717,-1
717,718,714,-1
711,707,719,-1
717,711,719,-1
719,715,723,-1
717,719,718,-1
718,719,723,-1
669,726,667,-1
669,1227,729,-1
669,729,726,-1
722,698,720,-1
723,721,699,-1
723,715,721,-1
722,720,718,-1
702,722,723,-1
722,718,723,-1
727,725,724,-1
729,724,726,-1
728,1365,725,-1
727,724,729,-1
727,729,728,-1
727,728,725,-1
728,729,1366,-1
734,731,732,-1
733,731,734,-1
736,117,735,-1
121,743,120,-1
733,735,731,-1
119,736,121,-1
121,736,745,-1
733,736,735,-1
733,742,736,-1
746,742,741,-1
736,742,745,-1
739,738,737,-1
739,740,738,-1
742,749,741,-1
758,732,750,-1
734,732,758,-1
733,734,758,-1
733,758,742,-1
745,744,743,-1
746,741,744,-1
121,745,743,-1
745,746,744,-1
745,742,746,-1
755,748,747,-1
757,747,749,-1
756,752,748,-1
759,750,751,-1
760,751,752,-1
761,754,753,-1
742,757,749,-1
742,758,757,-1
755,756,748,-1
755,747,757,-1
755,757,756,-1
756,757,758,-1
756,760,752,-1
758,750,759,-1
759,751,760,-1
761,762,754,-1
756,758,760,-1
758,759,760,-1
740,763,738,-1
769,737,765,-1
768,766,764,-1
770,765,766,-1
740,767,763,-1
739,737,769,-1
739,767,740,-1
739,769,767,-1
767,769,768,-1
768,770,766,-1
769,765,770,-1
768,769,770,-1
767,778,763,-1
780,764,777,-1
768,764,780,-1
767,768,780,-1
767,781,778,-1
767,780,781,-1
780,777,773,-1
774,771,772,-1
773,771,774,-1
773,777,771,-1
776,785,775,-1
790,772,786,-1
780,773,774,-1
780,774,776,-1
776,775,782,-1
774,772,790,-1
776,774,790,-1
781,753,778,-1
762,779,754,-1
782,775,779,-1
761,753,781,-1
762,782,779,-1
761,781,762,-1
762,781,782,-1
780,782,781,-1
780,776,782,-1
787,784,783,-1
789,783,785,-1
788,808,784,-1
814,786,807,-1
787,788,784,-1
787,783,789,-1
787,789,788,-1
776,789,785,-1
776,790,789,-1
788,815,808,-1
790,786,814,-1
788,789,790,-1
788,790,815,-1
790,814,815,-1
797,792,791,-1
798,793,792,-1
801,791,795,-1
800,796,794,-1
802,795,796,-1
797,798,792,-1
797,791,801,-1
798,799,793,-1
797,799,798,-1
800,802,796,-1
801,795,802,-1
797,801,799,-1
799,801,800,-1
800,801,802,-1
799,812,793,-1
818,794,811,-1
800,794,818,-1
799,800,818,-1
799,819,812,-1
799,818,819,-1
804,803,832,-1
804,811,803,-1
806,823,805,-1
818,811,804,-1
818,804,832,-1
818,832,806,-1
820,806,805,-1
815,807,808,-1
816,810,809,-1
819,809,812,-1
817,813,810,-1
814,807,815,-1
816,817,810,-1
816,809,819,-1
816,819,817,-1
817,820,813,-1
817,819,820,-1
818,820,819,-1
820,805,813,-1
824,822,821,-1
826,821,823,-1
825,843,822,-1
818,806,820,-1
806,826,823,-1
806,848,826,-1
824,825,822,-1
824,821,826,-1
824,826,825,-1
825,826,848,-1
832,803,827,-1
833,829,828,-1
834,830,829,-1
839,828,837,-1
833,834,829,-1
834,835,830,-1
833,828,839,-1
833,835,834,-1
833,839,835,-1
835,839,836,-1
848,827,841,-1
835,847,830,-1
851,831,844,-1
832,827,848,-1
806,832,848,-1
836,831,851,-1
835,836,851,-1
835,854,847,-1
835,851,854,-1
836,838,831,-1
840,837,838,-1
839,837,840,-1
836,840,838,-1
836,839,840,-1
1099,844,1097,-1
851,844,1099,-1
851,1099,1100,-1
851,1100,1102,-1
1102,1101,858,-1
849,841,842,-1
850,842,843,-1
852,846,845,-1
854,845,847,-1
853,855,846,-1
848,841,849,-1
825,850,843,-1
849,842,850,-1
825,848,850,-1
848,849,850,-1
852,853,846,-1
852,845,854,-1
853,858,855,-1
852,854,853,-1
853,854,858,-1
851,858,854,-1
858,1101,855,-1
859,857,856,-1
851,1102,858,-1
859,860,857,-1
867,862,861,-1
868,863,862,-1
869,883,863,-1
871,861,865,-1
872,865,866,-1
870,866,864,-1
867,868,862,-1
867,861,871,-1
868,869,863,-1
867,869,868,-1
867,870,869,-1
869,870,889,-1
870,872,866,-1
871,865,872,-1
867,871,870,-1
871,872,870,-1
870,864,890,-1
877,874,873,-1
878,875,874,-1
879,895,875,-1
907,873,901,-1
880,902,876,-1
877,878,874,-1
877,873,907,-1
878,879,875,-1
877,879,878,-1
880,908,902,-1
877,907,879,-1
907,880,879,-1
907,908,880,-1
880,876,900,-1
879,880,899,-1
890,864,884,-1
869,889,883,-1
870,890,889,-1
887,882,881,-1
889,881,883,-1
888,886,882,-1
891,884,885,-1
892,885,886,-1
887,888,882,-1
887,881,889,-1
887,889,888,-1
888,889,890,-1
888,892,886,-1
890,884,891,-1
891,885,892,-1
888,890,892,-1
890,891,892,-1
900,876,896,-1
879,899,895,-1
880,900,899,-1
897,894,893,-1
899,893,895,-1
898,918,894,-1
923,896,917,-1
897,898,894,-1
897,893,899,-1
897,899,898,-1
898,924,918,-1
900,896,923,-1
898,899,924,-1
899,900,924,-1
900,923,924,-1
908,901,902,-1
909,904,903,-1
910,905,904,-1
911,921,905,-1
915,903,913,-1
912,914,906,-1
912,906,922,-1
907,901,908,-1
909,910,904,-1
910,911,905,-1
909,911,910,-1
909,903,915,-1
912,916,914,-1
909,915,911,-1
911,915,912,-1
915,916,912,-1
911,912,927,-1
916,913,914,-1
915,913,916,-1
911,927,921,-1
912,922,928,-1
912,928,927,-1
924,917,918,-1
925,920,919,-1
927,919,921,-1
926,930,920,-1
931,922,929,-1
923,917,924,-1
925,926,920,-1
927,925,919,-1
927,926,925,-1
926,932,930,-1
928,922,931,-1
927,928,926,-1
926,928,932,-1
928,931,932,-1
932,929,930,-1
931,929,932,-1
937,933,934,-1
963,935,958,-1
938,940,935,-1
937,936,933,-1
937,934,947,-1
963,938,935,-1
937,963,936,-1
937,938,963,-1
937,947,938,-1
947,934,939,-1
950,939,942,-1
948,941,940,-1
949,943,941,-1
951,944,943,-1
952,945,944,-1
954,942,946,-1
938,948,940,-1
947,939,950,-1
948,949,941,-1
949,951,943,-1
938,947,948,-1
947,950,949,-1
947,949,948,-1
949,950,951,-1
950,942,954,-1
951,952,944,-1
952,953,945,-1
954,946,980,-1
951,950,952,-1
950,954,952,-1
954,953,952,-1
960,956,955,-1
936,955,933,-1
961,965,956,-1
962,959,957,-1
964,958,959,-1
960,955,936,-1
964,959,962,-1
960,936,964,-1
960,964,962,-1
960,961,956,-1
962,957,972,-1
960,962,961,-1
961,962,971,-1
964,963,958,-1
936,963,964,-1
972,957,966,-1
971,967,965,-1
974,966,968,-1
973,969,967,-1
976,968,970,-1
975,982,969,-1
961,971,965,-1
971,973,967,-1
971,962,972,-1
971,972,973,-1
972,966,974,-1
972,974,973,-1
974,968,976,-1
973,975,969,-1
976,970,991,-1
973,974,975,-1
974,976,975,-1
975,976,992,-1
953,977,945,-1
980,946,978,-1
979,978,977,-1
953,979,977,-1
979,980,978,-1
953,980,979,-1
954,980,953,-1
991,970,981,-1
993,981,983,-1
996,983,986,-1
992,988,982,-1
994,989,984,-1
995,984,985,-1
997,986,987,-1
999,987,989,-1
998,990,988,-1
1000,985,990,-1
975,992,982,-1
991,981,993,-1
993,983,996,-1
992,998,988,-1
976,991,992,-1
991,993,992,-1
993,996,998,-1
993,998,992,-1
994,984,995,-1
994,999,989,-1
995,985,1000,-1
994,995,999,-1
996,986,997,-1
997,987,999,-1
998,1000,990,-1
996,997,998,-1
998,997,1000,-1
995,1000,999,-1
997,999,1000,-1
1005,1002,1001,-1
1006,1003,1002,-1
1013,1001,1009,-1
1008,1010,1004,-1
1005,1006,1002,-1
1006,1007,1003,-1
1005,1007,1006,-1
1005,1008,1007,-1
1005,1001,1013,-1
1008,1014,1010,-1
1005,1013,1008,-1
1008,1013,1014,-1
1014,1009,1010,-1
1015,1012,1011,-1
1013,1009,1014,-1
1015,1016,1012,-1
1007,1025,1003,-1
1020,1004,1017,-1
1021,1019,1018,-1
1042,1017,1035,-1
1008,1004,1020,-1
1007,1008,1020,-1
1007,1020,1021,-1
1020,1017,1042,-1
1021,1022,1019,-1
1021,1018,1032,-1
1007,1021,1031,-1
1020,1022,1021,-1
1020,1042,1022,-1
1029,1024,1023,-1
1031,1023,1025,-1
1030,1028,1024,-1
1032,1018,1026,-1
1033,1026,1027,-1
1007,1031,1025,-1
1029,1030,1024,-1
1029,1023,1031,-1
1029,1031,1030,-1
1031,1021,1032,-1
1030,1034,1028,-1
1032,1026,1033,-1
1031,1032,1034,-1
1030,1031,1034,-1
1032,1033,1034,-1
1022,1036,1019,-1
1044,1035,1037,-1
1043,1038,1036,-1
1047,1037,1040,-1
1045,1039,1038,-1
1048,1040,1041,-1
1042,1035,1044,-1
1022,1043,1036,-1
1044,1037,1047,-1
1043,1045,1038,-1
1045,1046,1039,-1
1042,1043,1022,-1
1042,1044,1043,-1
1043,1044,1045,-1
1044,1047,1045,-1
1045,1047,1046,-1
1047,1040,1048,-1
1048,1041,1061,-1
1046,1047,1048,-1
1046,1049,1039,-1
1057,1050,1049,-1
1058,1052,1050,-1
1059,1027,1051,-1
1034,1054,1028,-1
1060,1051,1052,-1
1061,1041,1053,-1
1062,1053,1054,-1
1063,1056,1055,-1
1046,1057,1049,-1
1058,1060,1052,-1
1057,1058,1050,-1
1033,1027,1059,-1
1059,1051,1060,-1
1034,1062,1054,-1
1033,1059,1034,-1
1034,1059,1062,-1
1059,1060,1062,-1
1058,1062,1060,-1
1061,1053,1062,-1
1046,1048,1057,-1
1057,1048,1061,-1
1057,1061,1058,-1
1058,1061,1062,-1
1063,1064,1056,-1
1016,1065,1012,-1
1071,1011,1067,-1
1070,1068,1066,-1
1072,1067,1068,-1
1015,1011,1071,-1
1016,1069,1065,-1
1015,1069,1016,-1
1015,1071,1069,-1
1069,1071,1070,-1
1071,1067,1072,-1
1070,1072,1068,-1
1070,1071,1072,-1
1076,1073,1074,-1
1075,1073,1076,-1
1069,1080,1065,-1
1070,1066,1081,-1
1069,1070,1081,-1
1075,1081,1078,-1
1080,1077,1065,-1
1081,1066,1078,-1
1080,1055,1077,-1
1064,1079,1056,-1
1082,1083,1079,-1
1069,1081,1080,-1
1063,1055,1080,-1
1064,1082,1079,-1
1063,1080,1064,-1
1080,1081,1082,-1
1064,1080,1082,-1
1081,1084,1082,-1
1075,1078,1073,-1
1084,1087,1083,-1
1075,1076,1081,-1
1082,1084,1083,-1
1076,1084,1081,-1
1076,1074,1092,-1
1076,1092,1084,-1
1089,1086,1085,-1
1092,1074,1088,-1
1091,1085,1087,-1
1090,1094,1086,-1
1089,1085,1091,-1
1089,1090,1086,-1
1089,1091,1090,-1
1084,1091,1087,-1
1084,1092,1091,-1
1092,1088,1095,-1
1090,1096,1094,-1
1090,1091,1092,-1
1090,1092,1096,-1
1095,1088,1093,-1
1096,1093,1094,-1
1095,1093,1096,-1
1092,1095,1096,-1
1100,1097,1098,-1
1099,1097,1100,-1
1102,1103,1101,-1
1108,1098,1104,-1
1100,1098,1108,-1
1102,1100,1108,-1
1107,856,1103,-1
860,1106,857,-1
1109,1104,1105,-1
1110,1105,1106,-1
1102,1107,1103,-1
1102,1108,1107,-1
859,856,1107,-1
1108,1104,1109,-1
860,1110,1106,-1
859,1107,860,-1
860,1107,1108,-1
860,1108,1110,-1
1109,1105,1110,-1
1108,1109,1110,-1
1120,1113,1114,-1
1121,1114,1115,-1
1122,1134,1116,-1
1123,1116,1117,-1
1124,1117,1118,-1
1119,1113,1120,-1
1119,1120,1124,-1
1121,1120,1114,-1
1122,1116,1123,-1
1121,1115,1143,-1
1121,1123,1120,-1
1121,1122,1123,-1
1121,1143,1122,-1
1124,1123,1117,-1
1120,1123,1124,-1
1119,1125,1113,-1
1129,1127,1125,-1
1130,1118,1126,-1
1132,1126,1128,-1
1131,1199,1127,-1
1204,1128,1200,-1
1119,1129,1125,-1
1124,1118,1130,-1
1130,1126,1132,-1
1119,1130,1129,-1
1119,1124,1130,-1
1129,1130,1131,-1
1129,1131,1127,-1
1131,1203,1199,-1
1131,1130,1132,-1
1131,1132,1203,-1
1132,1128,1204,-1
1132,1204,1203,-1
1143,1115,1133,-1
1144,1135,1134,-1
1146,1133,1136,-1
1145,1137,1135,-1
1147,1138,1137,-1
1148,1140,1138,-1
1149,1136,1139,-1
1150,1141,1140,-1
1152,1139,1142,-1
1151,1142,1141,-1
1122,1144,1134,-1
1143,1133,1146,-1
1144,1145,1135,-1
1145,1147,1137,-1
1122,1143,1144,-1
1143,1145,1144,-1
1143,1146,1145,-1
1145,1146,1147,-1
1146,1136,1149,-1
1147,1148,1138,-1
1147,1146,1148,-1
1146,1149,1148,-1
1148,1149,1150,-1
1148,1150,1140,-1
1150,1151,1141,-1
1149,1139,1152,-1
1151,1152,1142,-1
1150,1152,1151,-1
1149,1152,1150,-1
1155,1213,1153,-1
1156,1153,1154,-1
1155,1153,1156,-1
1155,1156,1221,-1
1161,1158,1157,-1
1162,1159,1158,-1
1175,1157,1171,-1
1164,1172,1160,-1
1168,1160,1165,-1
1161,1162,1158,-1
1162,1163,1159,-1
1161,1163,1162,-1
1161,1164,1163,-1
1161,1157,1175,-1
1164,1176,1172,-1
1161,1175,1164,-1
1164,1175,1176,-1
1164,1160,1168,-1
1163,1164,1168,-1
1163,1168,1169,-1
1163,1237,1159,-1
1169,1167,1166,-1
1189,1165,1179,-1
1244,1166,1238,-1
1163,1243,1237,-1
1168,1165,1189,-1
1169,1170,1167,-1
1163,1169,1243,-1
1168,1170,1169,-1
1168,1189,1170,-1
1169,1166,1244,-1
1169,1244,1243,-1
1176,1171,1172,-1
1177,1174,1173,-1
1175,1171,1176,-1
1177,1178,1174,-1
1191,1179,1181,-1
1170,1180,1167,-1
1190,1182,1180,-1
1196,1181,1186,-1
1192,1183,1182,-1
1193,1184,1183,-1
1194,1185,1184,-1
1197,1186,1187,-1
1198,1187,1188,-1
1189,1179,1191,-1
1170,1190,1180,-1
1191,1181,1196,-1
1190,1192,1182,-1
1192,1193,1183,-1
1189,1190,1170,-1
1189,1191,1190,-1
1190,1191,1192,-1
1191,1196,1192,-1
1196,1193,1192,-1
1193,1194,1184,-1
1194,1195,1185,-1
1196,1186,1197,-1
1196,1197,1193,-1
1197,1187,1198,-1
1198,1188,1254,-1
1193,1197,1194,-1
1194,1197,1198,-1
1194,1198,1195,-1
1195,1198,1254,-1
1203,1201,1199,-1
1206,1200,1202,-1
1205,1208,1201,-1
1204,1200,1206,-1
1203,1205,1201,-1
1206,1202,1215,-1
1204,1205,1203,-1
1204,1206,1205,-1
1205,1206,1216,-1
1215,1202,1207,-1
1218,1209,1210,-1
1217,1207,1209,-1
1216,1212,1208,-1
1219,1210,1211,-1
1221,1211,1213,-1
1220,1214,1212,-1
1222,1154,1214,-1
1205,1216,1208,-1
1217,1209,1218,-1
1215,1207,1217,-1
1216,1220,1212,-1
1206,1215,1216,-1
1215,1217,1216,-1
1217,1220,1216,-1
1217,1218,1220,-1
1218,1210,1219,-1
1219,1211,1221,-1
1155,1221,1213,-1
1156,1154,1222,-1
1220,1222,1214,-1
1218,1219,1220,-1
1220,1219,1222,-1
1156,1222,1221,-1
1219,1221,1222,-1
1224,664,1223,-1
1228,1223,1226,-1
1224,1223,1228,-1
1227,1224,1228,-1
1227,1226,1225,-1
669,1224,1227,-1
1227,1228,1226,-1
1233,1229,1230,-1
1258,1233,1230,-1
1232,1229,1233,-1
1232,1233,1234,-1
1233,1261,1234,-1
1241,1236,1235,-1
1243,1235,1237,-1
1242,1240,1236,-1
1245,1238,1239,-1
1241,1242,1236,-1
1241,1235,1243,-1
1241,1243,1242,-1
1242,1246,1240,-1
1244,1238,1245,-1
1242,1243,1246,-1
1243,1244,1246,-1
1244,1245,1246,-1
1252,1239,1247,-1
1246,1249,1240,-1
1253,1247,1248,-1
1195,1248,1185,-1
1254,1188,1249,-1
1255,1251,1250,-1
1245,1239,1252,-1
1252,1247,1253,-1
1195,1253,1248,-1
1246,1254,1249,-1
1245,1252,1246,-1
1246,1252,1254,-1
1252,1253,1254,-1
1195,1254,1253,-1
1255,1256,1251,-1
1265,1257,1263,-1
1258,1257,1265,-1
1258,1265,1262,-1
1258,1230,1257,-1
1261,1260,1259,-1
1234,1259,1231,-1
1262,1267,1260,-1
1262,1260,1261,-1
1258,1261,1233,-1
1258,1262,1261,-1
1261,1259,1234,-1
1266,1263,1264,-1
1265,1263,1266,-1
1262,1265,1270,-1
1265,1271,1270,-1
1265,1266,1271,-1
1271,1266,1272,-1
1270,1268,1267,-1
1271,1269,1268,-1
1272,1303,1269,-1
1262,1270,1267,-1
1270,1271,1268,-1
1271,1272,1269,-1
1272,1307,1303,-1
1266,1307,1272,-1
1178,1273,1174,-1
1279,1173,1275,-1
1278,1276,1274,-1
1280,1275,1276,-1
1177,1173,1279,-1
1178,1277,1273,-1
1177,1277,1178,-1
1177,1279,1277,-1
1277,1279,1278,-1
1278,1274,1291,-1
1277,1278,1291,-1
1278,1280,1276,-1
1279,1275,1280,-1
1278,1279,1280,-1
1290,1287,1273,-1
1291,1274,1288,-1
1292,1283,1289,-1
1277,1290,1273,-1
1277,1291,1290,-1
1284,1291,1288,-1
1286,1292,1291,-1
1284,1288,1281,-1
1285,1281,1282,-1
1284,1285,1291,-1
1284,1281,1285,-1
1285,1282,1300,-1
1286,1295,1283,-1
1300,1282,1296,-1
1286,1283,1292,-1
1285,1286,1291,-1
1285,1300,1286,-1
1286,1299,1295,-1
1286,1300,1299,-1
1290,1250,1287,-1
1256,1289,1251,-1
1255,1250,1290,-1
1256,1292,1289,-1
1255,1290,1256,-1
1256,1290,1292,-1
1290,1291,1292,-1
1297,1294,1293,-1
1299,1293,1295,-1
1298,1328,1294,-1
1297,1298,1294,-1
1297,1293,1299,-1
1297,1299,1298,-1
1298,1330,1328,-1
1300,1296,1329,-1
1298,1299,1300,-1
1298,1300,1330,-1
1302,1264,1301,-1
1266,1264,1302,-1
1307,1304,1303,-1
1308,1305,1304,-1
1309,1306,1305,-1
1310,1301,1306,-1
1307,1308,1304,-1
1266,1302,1307,-1
1307,1302,1308,-1
1302,1310,1308,-1
1308,1309,1305,-1
1309,1310,1306,-1
1308,1310,1309,-1
1302,1301,1310,-1
1314,1311,1312,-1
1333,1312,1331,-1
1313,1311,1314,-1
1313,1314,1324,-1
1314,1312,1333,-1
1314,1326,1325,-1
1314,1333,1326,-1
1322,1316,1311,-1
1321,1318,1315,-1
1322,1317,1316,-1
1323,1315,1317,-1
1324,1319,1318,-1
1325,1320,1319,-1
1326,1335,1320,-1
1313,1322,1311,-1
1321,1315,1323,-1
1313,1321,1322,-1
1313,1324,1321,-1
1322,1323,1317,-1
1321,1323,1322,-1
1321,1324,1318,-1
1324,1325,1319,-1
1325,1326,1320,-1
1324,1314,1325,-1
1329,1296,1327,-1
1330,1327,1328,-1
1329,1327,1330,-1
1300,1329,1330,-1
1334,1331,1332,-1
1333,1331,1334,-1
1326,1333,1340,-1
1333,1341,1340,-1
1333,1334,1341,-1
1334,1332,1351,-1
1340,1336,1335,-1
1341,1337,1336,-1
1351,1332,1347,-1
1342,1338,1337,-1
1343,1339,1338,-1
1326,1340,1335,-1
1340,1341,1336,-1
1341,1342,1337,-1
1342,1343,1338,-1
1341,1334,1342,-1
1334,1351,1342,-1
1351,1343,1342,-1
1343,1344,1339,-1
1346,1350,1345,-1
1352,1347,1348,-1
1353,1348,1349,-1
1351,1347,1352,-1
1351,1352,1343,-1
1352,1348,1353,-1
1353,1349,1447,-1
1343,1352,1344,-1
1344,1352,1353,-1
1346,1354,1350,-1
1227,1225,1366,-1
1366,1225,1363,-1
1227,1366,729,-1
1232,1355,1229,-1
1357,1359,1355,-1
1358,1231,1356,-1
1232,1357,1355,-1
1234,1231,1358,-1
1232,1234,1358,-1
1232,1358,1357,-1
1358,1356,1362,-1
1357,1358,1361,-1
1362,1356,1360,-1
1361,1369,1359,-1
1357,1361,1359,-1
1358,1362,1361,-1
1361,1370,1369,-1
1361,1362,1370,-1
1362,1372,1370,-1
1367,1363,1364,-1
1368,1364,1365,-1
728,1368,1365,-1
728,1366,1368,-1
1366,1363,1367,-1
1367,1364,1368,-1
1366,1367,1368,-1
1370,1373,1369,-1
1372,1360,1371,-1
1362,1360,1372,-1
1376,1371,1374,-1
1375,1379,1373,-1
1370,1375,1373,-1
1372,1371,1376,-1
1370,1372,1375,-1
1372,1376,1375,-1
1376,1374,1383,-1
1375,1376,1385,-1
1375,1385,1379,-1
1383,1374,1377,-1
1384,1377,1378,-1
1385,1382,1379,-1
1386,1378,1380,-1
1387,1380,1381,-1
1383,1377,1384,-1
1376,1383,1385,-1
1383,1384,1385,-1
1384,1378,1386,-1
1387,1386,1380,-1
1384,1386,1388,-1
1387,1388,1386,-1
1385,1388,1382,-1
1385,1384,1388,-1
1392,1389,1390,-1
1391,1401,1389,-1
1391,1389,1392,-1
1392,1390,1404,-1
1391,1392,1403,-1
1395,1394,1393,-1
1396,1422,1394,-1
1395,1393,1429,-1
1395,1396,1394,-1
1395,1429,1396,-1
1400,1397,1398,-1
1399,1397,1400,-1
1400,1398,1415,-1
1399,1400,1415,-1
1403,1381,1401,-1
1404,1390,1402,-1
1388,1402,1382,-1
1387,1381,1403,-1
1391,1403,1401,-1
1387,1404,1388,-1
1387,1403,1404,-1
1403,1392,1404,-1
1388,1404,1402,-1
1399,1405,1397,-1
1415,1398,1407,-1
1413,1406,1405,-1
1416,1407,1408,-1
1417,1408,1409,-1
1418,1409,1410,-1
1414,1411,1406,-1
1419,1412,1411,-1
1420,1457,1412,-1
1399,1413,1405,-1
1399,1415,1413,-1
1415,1414,1413,-1
1413,1414,1406,-1
1415,1407,1416,-1
1416,1408,1417,-1
1417,1409,1418,-1
1415,1416,1414,-1
1416,1417,1419,-1
1417,1418,1420,-1
1414,1419,1411,-1
1419,1420,1412,-1
1414,1416,1419,-1
1417,1420,1419,-1
1418,1462,1420,-1
1429,1393,1421,-1
1434,1421,1426,-1
1430,1437,1422,-1
1344,1424,1339,-1
1432,1425,1424,-1
1433,1426,1425,-1
1431,1427,1423,-1
1436,1423,1428,-1
1396,1430,1422,-1
1429,1421,1434,-1
1430,1441,1437,-1
1429,1430,1396,-1
1429,1434,1431,-1
1429,1431,1441,-1
1429,1441,1430,-1
1344,1432,1424,-1
1432,1433,1425,-1
1432,1448,1433,-1
1434,1426,1433,-1
1431,1423,1436,-1
1435,1427,1431,-1
1436,1428,1452,-1
1434,1433,1435,-1
1434,1435,1431,-1
1431,1436,1441,-1
1433,1448,1435,-1
1441,1438,1437,-1
1442,1439,1438,-1
1443,1440,1439,-1
1444,1459,1440,-1
1441,1442,1438,-1
1442,1443,1439,-1
1441,1436,1442,-1
1442,1436,1452,-1
1442,1452,1443,-1
1443,1453,1444,-1
1443,1444,1440,-1
1464,1459,1444,-1
1464,1444,1454,-1
1447,1349,1445,-1
1448,1445,1446,-1
1435,1446,1427,-1
1447,1445,1448,-1
1344,1447,1432,-1
1432,1447,1448,-1
1344,1353,1447,-1
1435,1448,1446,-1
1452,1428,1449,-1
1453,1449,1450,-1
1454,1450,1451,-1
1452,1449,1453,-1
1453,1450,1454,-1
1443,1452,1453,-1
1466,1454,1451,-1
1444,1453,1454,-1
1460,1410,1455,-1
1461,1455,1456,-1
1462,1465,1457,-1
1464,1458,1459,-1
1463,1456,1458,-1
1418,1410,1460,-1
1460,1455,1461,-1
1463,1461,1456,-1
1418,1460,1462,-1
1460,1461,1462,-1
1420,1462,1457,-1
1464,1463,1458,-1
1462,1466,1465,-1
1462,1461,1466,-1
1463,1466,1461,-1
1464,1466,1463,-1
1466,1451,1465,-1
1464,1454,1466,-1
1346,1345,1476,-1
1354,1468,1350,-1
1473,1467,1469,-1
1471,1477,1467,-1
1472,1479,1468,-1
1474,1469,1470,-1
1471,1467,1473,-1
1346,1471,1354,-1
1354,1471,1472,-1
1354,1472,1468,-1
1471,1473,1472,-1
1346,1476,1471,-1
1473,1469,1474,-1
1473,1474,1472,-1
1472,1474,1480,-1
1476,1345,1475,-1
1474,1470,1491,-1
1471,1478,1477,-1
1476,1478,1471,-1
1478,1475,1477,-1
1476,1475,1478,-1
1472,1480,1479,-1
1484,1481,1482,-1
1483,1481,1484,-1
1484,1482,1511,-1
1483,1484,1511,-1
1480,1485,1479,-1
1491,1470,1486,-1
1490,1487,1485,-1
1492,1495,1487,-1
1493,1486,1488,-1
1494,1488,1489,-1
1530,1489,1527,-1
1480,1490,1485,-1
1491,1486,1493,-1
1474,1491,1480,-1
1480,1491,1490,-1
1491,1493,1490,-1
1490,1492,1487,-1
1492,1499,1495,-1
1490,1493,1492,-1
1493,1488,1494,-1
1494,1489,1530,-1
1492,1493,1494,-1
1492,1494,1499,-1
1499,1494,1530,-1
1499,1496,1495,-1
1500,1497,1496,-1
1501,1498,1497,-1
1499,1500,1496,-1
1499,1530,1500,-1
1500,1530,1531,-1
1500,1531,1501,-1
1500,1501,1497,-1
1501,1502,1498,-1
1531,1532,1501,-1
1501,1534,1502,-1
1501,1532,1534,-1
1483,1505,1481,-1
1511,1482,1503,-1
1512,1503,1504,-1
1513,1509,1505,-1
1514,1504,1506,-1
1515,1506,1507,-1
1516,1507,1508,-1
1517,1510,1509,-1
1483,1513,1505,-1
1511,1503,1512,-1
1483,1511,1513,-1
1511,1512,1513,-1
1513,1512,1517,-1
1513,1517,1509,-1
1512,1504,1514,-1
1514,1506,1515,-1
1515,1507,1516,-1
1512,1514,1517,-1
1514,1515,1517,-1
1515,1516,1518,-1
1517,1518,1510,-1
1517,1515,1518,-1
1524,1508,1520,-1
1523,1520,1519,-1
1518,1521,1510,-1
1502,1519,1498,-1
1526,1533,1522,-1
1525,1522,1521,-1
1516,1508,1524,-1
1523,1524,1520,-1
1516,1524,1518,-1
1523,1525,1524,-1
1518,1525,1521,-1
1518,1524,1525,-1
1502,1523,1519,-1
1525,1526,1522,-1
1502,1526,1523,-1
1523,1526,1525,-1
1502,1534,1526,-1
1531,1527,1528,-1
1532,1528,1529,-1
1534,1529,1533,-1
1530,1527,1531,-1
1531,1528,1532,-1
1532,1529,1534,-1
1534,1533,1526,-1
]

colorPerVertex FALSE

color Color { color [
 0 0 0,
 1 1 1,
 0.976471 0.843137 0.172549, # default colour
] }

colorIndex [
0 0 0 0 0 0 0 0 0 0 0 0 0 0 0 0 0 0 0 0 0 0 0 0 0 0 0 0 0 0 0 0 0 0 0 0 0 0 0 0 0 0 0 0 0 0 0 0 0 0 0 0 0 0 0 0 0 0 0 0 0 0 0 0 0 0 0 0 0 0 0 0 0 0 0 0 0 0 0 0 0 0 0 0 0 0 0 0 0 0 0 0 0 0 0 0 0 0 0 0 0 0 0 0 0 0 0 0 0 0 0 0 0 0 0 0 0 0 0 0 0 0 0 0 0 0 0 0 0 0 0 0 0 0 0 0 0 0 0 0 0 0 0 0 0 0 0 0 0 0 0 0 0 0 0 0 0 0 0 0 0 0 0 0 0 0 0 0 0 0 0 0 0 0 0 0 0 0 0 0 0 0 0 0 0 0 0 0 0 0 0 0 0 0 0 0 0 0 0 0 0 0 0 0 0 0 0 0 0 0 0 0 0 0 0 0 0 0 0 0 0 0 0 0 0 0 0 0 0 0 0 0 0 0 0 0 0 0 0 0 0 0 0 0 0 0 0 0 0 0 0 0 0 0 0 0 0 0 0 0 0 0 0 0 0 0 0 0 0 0 0 0 0 0 0 0 0 0 0 0 0 0 0 0 0 0 0 0 0 0 0 0 0 0 0 0 0 0 0 0 0 0 0 0 0 0 0 0 0 0 0 0 0 0 0 0 0 0 0 0 0 0 0 0 0 0 0 0 0 0 0 0 0 0 0 0 0 0 0 0 0 0 0 0 0 0 0 0 0 0 0 0 0 0 0 0 0 0 0 0 0 0 0 0 0 0 0 0 0 0 0 0 0 0 0 0 0 0 0 0 0 0 0 0 0 0 0 0 0 0 0 0 0 0 0 0 0 0 0 0 0 0 0 0 0 0 0 0 0 0 0 0 0 0 0 0 0 0 0 0 0 0 0 0 0 0 0 0 0 0 0 0 0 0 0 0 0 0 0 0 0 0 0 0 0 0 0 0 0 0 0 0 0 0 0 0 0 0 0 0 0 0 0 0 0 0 0 0 0 0 0 0 0 0 0 0 0 0 0 0 0 0 0 0 0 0 0 0 0 0 0 0 0 0 0 0 0 0 0 0 0 0 0 0 0 0 0 0 0 0 0 0 0 0 0 0 0 0 0 0 0 0 0 0 0 0 0 0 0 0 0 0 0 0 0 0 0 0 0 0 0 0 0 0 0 0 0 0 0 0 0 0 0 0 0 0 0 0 0 0 0 0 0 0 0 0 0 0 0 0 0 0 0 0 0 0 0 0 0 0 0 0 0 0 0 0 0 0 0 0 0 0 0 0 0 0 0 0 0 0 0 0 0 0 0 0 0 0 0 0 0 0 0 0 0 0 0 0 0 0 0 0 0 0 0 0 0 0 0 0 0 0 0 0 0 0 0 0 0 0 0 0 0 0 0 0 0 0 0 0 0 0 0 0 0 0 0 0 0 0 0 0 0 0 0 0 0 0 0 0 0 0 0 0 0 0 0 0 0 0 0 0 0 0 0 0 0 0 0 0 0 0 0 0 0 0 0 0 0 0 0 0 0 0 0 0 0 0 0 0 0 0 0 0 0 0 0 0 0 0 0 0 0 0 0 0 0 0 0 0 0 0 0 0 0 0 0 0 0 0 0 0 0 0 0 0 0 0 0 0 0 0 0 0 0 0 0 0 0 0 0 0 0 0 0 0 0 0 0 0 0 0 0 0 0 0 0 0 0 0 0 0 0 0 0 0 0 0 0 0 0 0 0 0 0 0 0 0 0 0 0 0 0 0 0 0 0 0 0 0 0 0 0 0 0 0 0 0 0 0 0 0 0 0 0 0 0 0 0 0 1 1 1 1 1 1 1 1 1 1 1 1 1 1 1 1 1 1 1 1 1 1 1 1 1 1 1 1 1 1 1 1 1 1 1 1 1 1 1 1 1 1 1 1 1 1 1 1 1 1 1 1 1 1 1 1 1 1 1 1 1 1 1 1 1 1 1 1 1 1 1 1 1 1 1 1 1 1 1 1 1 1 1 1 1 1 1 1 1 1 1 1 1 1 1 1 1 1 1 1 1 1 1 1 1 1 1 1 1 1 1 1 1 1 1 1 1 1 1 1 1 1 1 1 1 1 1 1 1 1 1 1 1 1 1 1 1 1 1 1 1 1 1 1 1 1 1 1 1 1 1 1 1 1 1 1 1 1 1 1 1 1 1 1 1 1 1 1 1 1 1 1 1 1 1 1 1 1 1 1 1 1 1 1 1 1 1 1 1 1 1 1 1 1 1 1 1 1 1 1 1 1 1 1 1 1 1 1 1 1 1 1 1 1 1 1 1 1 1 1 1 1 1 1 1 1 1 1 1 1 1 1 1 1 1 1 1 1 1 1 1 1 1 1 1 1 1 1 1 1 1 1 1 1 1 1 1 1 1 1 1 1 1 1 1 1 1 1 1 1 1 1 1 1 1 1 1 1 1 1 1 1 1 1 1 1 1 1 1 1 1 1 1 1 1 1 1 1 1 1 1 1 1 1 1 1 1 1 1 1 1 1 1 1 1 1 1 1 1 1 1 1 1 1 1 1 1 1 1 1 1 1 1 1 1 1 1 1 1 1 1 1 1 1 1 1 1 1 1 1 1 1 1 1 1 1 1 1 1 1 1 1 1 1 1 1 1 1 1 1 1 1 1 1 1 1 1 1 1 1 1 1 1 1 1 1 1 1 1 1 1 1 1 1 1 1 1 1 1 1 1 1 1 1 1 1 1 1 1 1 1 1 1 1 1 1 1 1 1 1 1 1 1 1 1 1 1 1 1 1 1 1 1 1 1 1 1 1 1 1 1 1 1 1 1 1 1 1 1 1 1 1 1 1 1 1 1 1 1 1 1 1 1 1 1 1 1 1 1 1 1 1 1 1 1 1 1 1 1 1 1 1 1 1 1 1 1 1 1 1 1 1 1 1 1 1 1 1 1 1 1 1 1 1 1 1 1 1 1 1 1 1 1 1 1 1 1 1 1 1 1 1 1 1 1 1 1 1 1 1 1 1 1 1 1 1 1 1 1 1 1 1 1 1 1 1 1 1 1 1 1 1 1 1 1 1 1 1 1 1 1 1 1 1 1 1 1 1 1 1 1 1 1 1 1 1 1 1 1 1 1 1 1 1 1 1 1 1 1 1 1 1 1 1 1 1 1 1 1 1 1 1 1 1 1 1 1 1 1 1 1 1 1 1 1 1 1 1 1 1 1 1 1 1 1 1 1 1 1 1 1 1 1 1 1 1 1 1 1 1 1 1 1 1 1 1 1 1 1 1 1 1 1 1 1 1 1 1 1 1 1 1 1 1 1 1 1 1 1 1 1 1 1 1 1 1 1 1 1 1 1 1 1 1 1 1 1 1 1 1 1 1 1 1 1 1 1 1 1 1 1 1 1 1 1 1 1 1 1 1 1 1 1 1 1 1 1 1 1 1 1 1 1 1 1 1 1 1 1 1 1 1 1 1 1 1 1 1 1 1 1 1 1 1 1 1 1 1 1 1 1 1 1 1 1 1 1 1 1 1 1 1 1 1 1 1 1 1 1 1 1 1 1 1 1 1 1 1 1 1 1 1 1 1 1 1 1 1 1 1 1 1 1 1 1 1 1 1 1 1 1 1 1 1 1 1 1 1 1 1 1 1 1 1 1 1 1 1 1 1 1 1 1 1 1 1 1 1 1 1 1 1 1 1 1 1 1 1 1 1 1 1 1 1 1 1 1 1 1 1 1 1 1 1 1 1 1 1 1 1 1 1 1 1 1 1 1 1 1 1 1 1 1 1 1 1 1 1 1 1 1 1 1 1 1 1 1 1 1 1 1 1 1 1 1 1 1 1 1 1 1 1 1 1 1 1 1 1 1 1 1 1 1 1 1 1 1 1 1 1 1 1 1 1 1 1 1 1 1 1 1 1 1 1 1 1 1 1 1 1 1 1 1 1 1 1 1 1 1 1 1 1 1 1 1 1 1 1 1 1 1 1 1 1 1 1 1 1 1 1 1 1 1 1 1 1 1 1 1 1 1 1 1 1 1 1 1 1 1 1 1 1 1 1 1 1 1 1 1 1 1 1 1 1 1 1 1 1 1 1 1 1 1 1 1 1 1 1 1 1 1 1 1 1 1 1 1 1 1 1 1 1 1 1 1 1 1 1 1 1 1 1 1 1 1 1 1 1 1 1 1 1 1 1 1 1 1 1 1 1 1 1 1 1 1 1 1 1 1 1 1 1 1 1 1 1 1 1 1 1 1 1 1 1 1 1 1 1 1 1 1 1 1 1 1 1 1 1 1 1 1 1 1 1 1 1 1 1 1 1 1 1 1 1 1 1 1 1 1 1 1 1 1 1 1 1 1 1 1 1 1 1 1 1 1 1 1 1 1 1 1 1 1 1 1 1 1 1 1 1 1 1 1 1 1 1 1 1 1 1 1 1 1 1 1 1 1 1 1 1 1 1 1 1 1 1 1 1 1 1 1 1 1 1 1 1 1 1 1 1 1 1 1 1 1 1 1 1 1 1 1 1 1 1 1 1 1 1 1 1 1 1 1 1 1 1 1 1 1 1 1 1 1 1 1 1 1 1 1 1 1 1 1 1 1 1 1 1 1 1 1 1 1 1 1 1 1 1 1 1 1 1 1 1 1 1 1 1 1 1 1 1 1 1 1 1 1 1 1 1 1 1 1 1 1 1 1 1 1 1 1 1 1 1 1 1 1 1 1 1 1 1 1 1 1 1 1 1 1 1 1 1 1 1 1 1 1 1 1 1 1 1 1 1 1 1 1 1 1 1 1 1 1 1 1 1 1 1 1 1 1 1 1 1 1 1 1 1 1 1 1 1 1 1 1 1 1 1 1 1 1 1 1 1 1 1 1 1 1 1 1 1 1 1 1 1 1 1 1 1 1 1 1 1 1 1 1 1 1 1 1 1 1 1 1 1 1 1 1 1 1 1 1 1 1 1 1 1 1 1 1 1 1 1 1 1 1 1 1 1 1 1 1 1 1 1 1 1 1 1 1 1 1 1 1 1 1 1 1 1 1 1 1 1 1 1 1 1 1 1 1 1 1 1 1 1 1 1 1 1 1 1 1 1 1 1 1 1 1 1 1 1 1 1 1 1 1 1 1 1 1 1 1 1 1 1 1 1 1 1 1 1 1 1 1 1 1 1 1 1 1 1 1 1 1 1 1 1 1 1 1 1 1 1 1 1 1 1 1 1 1 1 1 1 1 1 1 1 1 1 1 1 1 1 1 1 1 1 1 1 1 1 1 1 1 1 1 1 1 1 1 1 1 1 1 1 1 1 1 1 1 1 1 1 1 1 1 1 1 1 1 1 1 1 1 1 1 1 1 1 1 1 1 1 1 1 1 1 1 1 1 1 1 1 1 1 1 1 1 1 1 1 1 1 1 1 1 1 1 1 1 1 1 1 1 1 1 1 1 1 1 1 1 1 1 1 1 1 1 1 1 1 1 1 1 1 1 1 1 1 1 1 1 1 1 1 1 1 1 1 1 1 1 1 1 1 1 1 1 1 1 1 1 1 1 1 1 1 1 1 1 1 1 1 1 1 1 1 1 1 1 1 1 1 1 1 1 1 1 1 1 1 1 1 1 1 1 1 1 1 1 1 1 1 1 1 1 1 1 1 1 1 1 1 1 1 1 1 1 1 1 1 1 1 1 1 1 1 1 1 1 1 1 1 1 1 1 1 1 1 1 1 1 1 1 1 1 1 1 1 1 1 1 1 1 1 1 1 1 1 1 1 1 1 1 1 1 1 1 1 1 1 1 1 1 1 1 1 1 1 1 1 1 1 1 1 1 1 1 1 1 1 1 1 1 1 1 1 1 1 1 1 1 1 1 1 1 1 1 1 1 1 1 1 1 1 1 1 1 1 1 1 1 1 1 1 1 1 1 1 1 1 1 1 1 1 1 1 1 1 1 1 1 1 1 1 1 1 1 1 1 1 1 1 1 1 1 1 1 1 1 1 1 1 1 1 1 1 1 1 1 1 1 1 1 1 1 1 1 1 1 1 1 1 1 1 1 1 1 1 1 1 1 1 1 1 1 1 1 1 1 1 1 1 1 1 1 1 1 1 1 1 1 1 1 1 1 1 1 1 1 1 1 1 1 1 1 1 1 1 1 1 1 1 1 1 1 1 1 1 1 1 1 1 1 1 1 1 1 1 1 1 1 1 1 1 1 1 1 1 1 1 1 1 1 1 1 1 1 1 1 1 1 1 1 1 1 1 1 1 1 1 1 1 1 1 1 1 1 1 1 1 1 1 1 1 1 1 1 1 1 1 1 1 1 1 1 1 1 1 1 1 1 1 1 1 1 1 1 1 1 1 1 1 1 1 1 1 1 1 1 1 1 1 1 1 1 1 1 1 1 1 1 1 1 1 1 1 1 1 1 1 1 1 1 1 1 1 1 1 1 1 1 1 1 1 1 1 1 1 1 1 1 1 1 1 1 1 1 1 1 1 1 1 1 1 1 1 1 1 1 1 1 1 1 1 1 1 1 1 1 1 1 1 1 1 1 1 1 1 1 1 1 1 1 1 1 1 1 1 1 1 1 1 1 1 1 1 1 1 1 1 1 1 1 1 1 1 1 1 1 1 1 1 1 1 1 1 1 1 1 1 1 1 1 1 1 1 1 1 1 1 1 1 1 1 1 1 1 1 1 1 1 1 1 1 1 1 1 1 1 1 1 1 1 1 1 1 1 1 1 1 1 1 1 1 1 1 1 1 1 1 1 1 1 1 1 1 1 1 1 1 1 1 1 1 1 1 1 1 1 1 1 1 1 1 1 1 1 1 1 1 1 1 1 1 1 1 1 1 1 1 1 1 1 1 1 1 ]

}

}
