#VRML V2.0 utf8

Shape {

appearance Appearance { material Material {
ambientIntensity 0.3
diffuseColor 0.97647 0.843137 0.172549
specularColor 0.2 0.2 0.2
shininess 0.3
} }

geometry IndexedFaceSet {

creaseAngle 0.5

coord Coordinate { point [
0 0 0,
0 0 2.315,
6.70087 3.85714 2.315,
6.70087 3.92646 2.315,
6.70087 3.85714 2.515,
6.70087 3.92646 2.515,
6.16598 5.54162 2.315,
6.16598 5.61093 2.315,
6.36345 5.5076 2.315,
6.6721 5.5076 2.315,
6.16598 5.54162 2.515,
6.16598 5.61093 2.515,
6.36345 5.5076 2.515,
6.6721 5.5076 2.515,
6.97943 3.96177 2.315,
7.23184 3.96177 2.315,
7.51041 3.85714 2.315,
7.51041 3.92646 2.315,
6.97943 4.53982 2.315,
7.23184 4.54767 2.315,
7.17561 4.69806 2.315,
6.97943 3.96177 2.515,
7.23184 3.96177 2.515,
7.51041 3.85714 2.515,
7.51041 3.92646 2.515,
6.97943 4.53982 2.515,
7.23184 4.54767 2.515,
7.17561 4.69806 2.515,
6.9075 5.54162 2.315,
6.9075 5.61093 2.315,
7.43193 5.54162 2.315,
7.43193 5.61093 2.315,
7.65426 5.5076 2.315,
7.80989 5.5076 2.315,
8.00213 5.54162 2.315,
8.00213 5.61093 2.315,
8.10036 5.54162 2.315,
8.10036 5.61093 2.315,
8.29782 5.5076 2.315,
6.9075 5.54162 2.515,
6.9075 5.61093 2.515,
7.43193 5.54162 2.515,
7.43193 5.61093 2.515,
7.65426 5.5076 2.515,
7.80989 5.5076 2.515,
8.00213 5.54162 2.515,
8.00213 5.61093 2.515,
8.10036 5.54162 2.515,
8.10036 5.61093 2.515,
8.29782 5.5076 2.515,
8.63525 3.85714 2.315,
8.63525 3.92646 2.315,
8.91381 3.96177 2.315,
9.16622 3.96177 2.315,
8.91381 4.53982 2.315,
9.16622 4.54767 2.315,
9.10998 4.69806 2.315,
9.44478 3.85714 2.315,
9.44478 3.92646 2.315,
8.63525 3.85714 2.515,
8.63525 3.92646 2.515,
8.91381 3.96177 2.515,
9.16622 3.96177 2.515,
8.91381 4.53982 2.515,
9.16622 4.54767 2.515,
9.10998 4.69806 2.515,
9.44478 3.85714 2.515,
9.44478 3.92646 2.515,
8.60647 5.5076 2.315,
8.84187 5.54162 2.315,
8.84187 5.61093 2.315,
9.36631 5.54162 2.315,
9.36631 5.61093 2.315,
9.58864 5.5076 2.315,
9.74427 5.5076 2.315,
9.93651 5.54162 2.315,
10.0073 5.54162 2.315,
9.93651 5.61093 2.315,
10.0073 5.61093 2.315,
8.60647 5.5076 2.515,
8.84187 5.54162 2.515,
8.84187 5.61093 2.515,
9.36631 5.54162 2.515,
9.36631 5.61093 2.515,
9.58864 5.5076 2.515,
9.74427 5.5076 2.515,
9.93651 5.54162 2.515,
10.0073 5.54162 2.515,
9.93651 5.61093 2.515,
10.0073 5.61093 2.515,
10.7409 3.8166 2.315,
10.8103 3.8166 2.315,
10.8364 4.27173 2.315,
11.7323 3.8166 2.315,
11.8016 3.8166 2.315,
11.2772 5.02503 2.315,
10.7409 3.8166 2.515,
10.8103 3.8166 2.515,
10.8364 4.27173 2.515,
11.7323 3.8166 2.515,
11.8016 3.8166 2.515,
11.2772 5.02503 2.515,
10.1603 5.5076 2.315,
10.4192 5.5076 2.315,
10.6769 5.54162 2.315,
10.6769 5.61093 2.315,
11.3085 5.48798 2.315,
11.3674 5.48798 2.315,
10.1603 5.5076 2.515,
10.4192 5.5076 2.515,
10.6769 5.54162 2.515,
10.6769 5.61093 2.515,
11.3085 5.48798 2.515,
11.3674 5.48798 2.515,
11.8225 4.27173 2.315,
13.2691 3.8166 2.315,
13.3384 3.8166 2.315,
13.3646 4.27173 2.315,
11.8225 4.27173 2.515,
13.2691 3.8166 2.515,
13.3384 3.8166 2.515,
13.3646 4.27173 2.515,
11.9468 5.54162 2.315,
11.9468 5.61093 2.315,
12.2201 5.5076 2.315,
12.3744 5.5076 2.315,
12.5274 5.54162 2.315,
12.5354 5.54162 2.315,
12.5274 5.61093 2.315,
12.5354 5.61093 2.315,
12.6884 5.5076 2.315,
12.9474 5.5076 2.315,
13.205 5.54162 2.315,
13.205 5.61093 2.315,
11.9468 5.54162 2.515,
11.9468 5.61093 2.515,
12.2201 5.5076 2.515,
12.3744 5.5076 2.515,
12.5274 5.54162 2.515,
12.5354 5.54162 2.515,
12.5274 5.61093 2.515,
12.5354 5.61093 2.515,
12.6884 5.5076 2.515,
12.9474 5.5076 2.515,
13.205 5.54162 2.515,
13.205 5.61093 2.515,
8.3992 12.428 2.315,
8.3992 12.428 2.515,
8.63722 11.7774 2.315,
8.92233 11.6033 2.315,
9.03235 11.6963 2.315,
9.3016 11.5453 2.315,
9.30422 11.646 2.315,
9.44905 11.655 2.315,
9.62168 11.5659 2.315,
9.58539 11.6819 2.315,
9.70374 11.7239 2.315,
9.79464 11.7781 2.315,
9.92019 11.6277 2.315,
8.63722 11.7774 2.515,
8.92233 11.6033 2.515,
9.03235 11.6963 2.515,
9.3016 11.5453 2.515,
9.30422 11.646 2.515,
9.44905 11.655 2.515,
9.62168 11.5659 2.515,
9.58539 11.6819 2.515,
9.70374 11.7239 2.515,
9.79464 11.7781 2.515,
9.92019 11.6277 2.515,
8.4587 12.0561 2.315,
8.83405 11.8474 2.315,
8.71291 12.0939 2.315,
8.67254 12.4307 2.315,
8.45641 12.8255 2.315,
8.71112 12.791 2.315,
8.82686 13.0427 2.315,
8.62806 13.1127 2.315,
8.91219 13.2868 2.315,
9.02663 13.1908 2.315,
9.84302 12.0396 2.315,
9.92803 12.0396 2.315,
9.31729 13.2402 2.315,
9.4417 13.2325 2.315,
9.30682 13.3448 2.315,
9.5638 13.2095 2.315,
9.67743 13.1724 2.315,
9.59029 13.3281 2.315,
9.81556 12.8949 2.315,
9.90188 12.8949 2.315,
9.77633 13.1225 2.315,
9.89403 13.2781 2.315,
8.4587 12.0561 2.515,
8.83405 11.8474 2.515,
8.71291 12.0939 2.515,
8.67254 12.4307 2.515,
8.45641 12.8255 2.515,
8.71112 12.791 2.515,
8.82686 13.0427 2.515,
8.62806 13.1127 2.515,
8.91219 13.2868 2.515,
9.02663 13.1908 2.515,
9.84302 12.0396 2.515,
9.92803 12.0396 2.515,
9.31729 13.2402 2.515,
9.4417 13.2325 2.515,
9.30682 13.3448 2.515,
9.5638 13.2095 2.515,
9.67743 13.1724 2.515,
9.59029 13.3281 2.515,
9.81556 12.8949 2.515,
9.90188 12.8949 2.515,
9.77633 13.1225 2.515,
9.89403 13.2781 2.515,
10.9208 7.71429 2.315,
10.9208 7.7836 2.315,
11.1458 7.81891 2.315,
11.3969 7.81891 2.315,
11.6218 7.71429 2.315,
11.6218 7.7836 2.315,
10.9208 7.71429 2.515,
10.9208 7.7836 2.515,
11.1458 7.81891 2.515,
11.3969 7.81891 2.515,
11.6218 7.71429 2.515,
11.6218 7.7836 2.515,
10.9208 9.39876 2.315,
10.9208 9.46807 2.315,
11.1458 9.36474 2.315,
11.3969 9.36474 2.315,
11.6218 9.39876 2.315,
11.6218 9.46807 2.315,
10.9208 9.39876 2.515,
10.9208 9.46807 2.515,
11.1458 9.36474 2.515,
11.3969 9.36474 2.515,
11.6218 9.39876 2.515,
11.6218 9.46807 2.515,
11.8128 7.71429 2.315,
11.8128 7.7836 2.315,
12.0378 7.81891 2.315,
12.2889 7.81891 2.315,
12.5138 7.71429 2.315,
12.5138 7.7836 2.315,
12.7048 7.71429 2.315,
12.7048 7.7836 2.315,
12.9297 7.81891 2.315,
13.1808 7.81891 2.315,
13.4058 7.71429 2.315,
13.4058 7.7836 2.315,
11.8128 7.71429 2.515,
11.8128 7.7836 2.515,
12.0378 7.81891 2.515,
12.2889 7.81891 2.515,
12.5138 7.71429 2.515,
12.5138 7.7836 2.515,
12.7048 7.71429 2.515,
12.7048 7.7836 2.515,
12.9297 7.81891 2.515,
13.1808 7.81891 2.515,
13.4058 7.71429 2.515,
13.4058 7.7836 2.515,
11.8128 9.39876 2.315,
11.8128 9.46807 2.315,
12.0378 9.36474 2.315,
12.2889 9.36474 2.315,
12.5138 9.39876 2.315,
12.5138 9.46807 2.315,
12.7048 9.39876 2.315,
12.7048 9.46807 2.315,
12.9297 9.36474 2.315,
13.1808 9.36474 2.315,
13.4058 9.39876 2.315,
13.4058 9.46807 2.315,
11.8128 9.39876 2.515,
11.8128 9.46807 2.515,
12.0378 9.36474 2.515,
12.2889 9.36474 2.515,
12.5138 9.39876 2.515,
12.5138 9.46807 2.515,
12.7048 9.39876 2.515,
12.7048 9.46807 2.515,
12.9297 9.36474 2.515,
13.1808 9.36474 2.515,
13.4058 9.39876 2.515,
13.4058 9.46807 2.515,
10.1701 11.5714 2.315,
10.1701 11.6407 2.315,
10.378 11.6761 2.315,
10.6305 11.6761 2.315,
10.909 11.5714 2.315,
10.909 11.6407 2.315,
11.6428 11.5714 2.315,
11.6428 11.6407 2.315,
10.1701 11.5714 2.515,
10.1701 11.6407 2.515,
10.378 11.6761 2.515,
10.6305 11.6761 2.515,
10.909 11.5714 2.515,
10.909 11.6407 2.515,
11.6428 11.5714 2.515,
11.6428 11.6407 2.515,
10.6305 12.2593 2.315,
10.6305 12.3771 2.315,
10.8279 12.2593 2.315,
10.7665 12.3771 2.315,
10.9585 12.4022 2.315,
10.1531 13.2559 2.315,
10.1531 13.3252 2.315,
10.378 13.2219 2.315,
10.6305 13.2075 2.315,
10.7586 13.2075 2.315,
10.9623 13.1843 2.315,
10.8149 13.3252 2.315,
11.0972 12.2943 2.315,
11.0928 12.4777 2.315,
11.1717 12.6102 2.315,
11.2955 12.3993 2.315,
11.4176 12.5716 2.315,
11.1729 12.9911 2.315,
11.198 12.806 2.315,
11.0973 13.1146 2.315,
11.2974 13.1961 2.315,
11.4583 12.8086 2.315,
11.6428 13.2559 2.315,
11.6428 13.3252 2.315,
10.6305 12.2593 2.515,
10.6305 12.3771 2.515,
10.8279 12.2593 2.515,
10.7665 12.3771 2.515,
10.9585 12.4022 2.515,
10.1531 13.2559 2.515,
10.1531 13.3252 2.515,
10.378 13.2219 2.515,
10.6305 13.2075 2.515,
10.7586 13.2075 2.515,
10.9623 13.1843 2.515,
10.8149 13.3252 2.515,
11.0972 12.2943 2.515,
11.0928 12.4777 2.515,
11.1717 12.6102 2.515,
11.2955 12.3993 2.515,
11.4176 12.5716 2.515,
11.1729 12.9911 2.515,
11.198 12.806 2.515,
11.0973 13.1146 2.515,
11.2974 13.1961 2.515,
11.4583 12.8086 2.515,
11.6428 13.2559 2.515,
11.6428 13.3252 2.515,
11.8677 11.6761 2.315,
12.005 11.6761 2.315,
12.2405 11.5714 2.315,
12.2405 11.6407 2.315,
13.0866 11.5714 2.315,
13.2135 11.5714 2.315,
11.8677 11.6761 2.515,
12.005 11.6761 2.515,
12.2405 11.5714 2.515,
12.2405 11.6407 2.515,
13.0866 11.5714 2.515,
13.2135 11.5714 2.515,
11.8677 13.2219 2.315,
12.005 13.1487 2.315,
12.1738 13.3252 2.315,
13.0761 12.0266 2.315,
12.8407 13.2559 2.315,
12.8407 13.3252 2.315,
13.0761 13.2219 2.315,
13.2135 13.2219 2.315,
13.4384 13.2559 2.315,
13.4384 13.3252 2.315,
11.8677 13.2219 2.515,
12.005 13.1487 2.515,
12.1738 13.3252 2.515,
13.0761 12.0266 2.515,
12.8407 13.2559 2.515,
12.8407 13.3252 2.515,
13.0761 13.2219 2.515,
13.2135 13.2219 2.515,
13.4384 13.2559 2.515,
13.4384 13.3252 2.515,
0 27 0,
4.73053 19.2857 2.315,
4.73053 19.4105 2.315,
4.73053 19.2857 2.515,
4.73053 19.4105 2.515,
5.80632 19.2857 2.315,
5.13544 19.474 2.315,
5.3826 19.474 2.315,
5.80632 19.4105 2.315,
6.53845 19.2857 2.315,
6.62083 19.2857 2.315,
6.71265 20.0414 2.315,
5.80632 19.2857 2.515,
5.13544 19.474 2.515,
5.3826 19.474 2.515,
5.80632 19.4105 2.515,
6.53845 19.2857 2.515,
6.62083 19.2857 2.515,
6.71265 20.0414 2.515,
1.63002 23.1977 2.315,
1.42703 23.5058 2.315,
1.51161 23.3454 2.315,
1.63002 23.1977 2.515,
1.42703 23.5058 2.515,
1.51161 23.3454 2.515,
1.77398 23.0741 2.315,
1.9351 22.9859 2.315,
2.11337 22.9329 2.315,
2.3088 22.9152 2.315,
2.50422 22.9329 2.315,
2.68247 22.9859 2.315,
2.84355 23.0741 2.315,
2.98746 23.1977 2.315,
3.10593 23.3454 2.315,
3.19054 23.5058 2.315,
1.77398 23.0741 2.515,
1.9351 22.9859 2.515,
2.11337 22.9329 2.515,
2.3088 22.9152 2.515,
2.50422 22.9329 2.515,
2.68247 22.9859 2.515,
2.84355 23.0741 2.515,
2.98746 23.1977 2.515,
3.10593 23.3454 2.515,
3.19054 23.5058 2.515,
1.37628 23.6789 2.315,
1.35936 23.8648 2.315,
1.37653 24.057 2.315,
1.42801 24.2336 2.315,
1.51382 24.3944 2.315,
1.63395 24.5395 2.315,
1.37628 23.6789 2.515,
1.35936 23.8648 2.515,
1.37653 24.057 2.515,
1.42801 24.2336 2.515,
1.51382 24.3944 2.515,
1.63395 24.5395 2.515,
0 27 2.315,
1.77915 24.6597 2.315,
1.94002 24.7456 2.315,
2.11657 24.7971 2.315,
2.3088 24.8142 2.315,
2.50102 24.7971 2.315,
3.24131 23.6789 2.315,
3.25824 23.8648 2.315,
3.10371 24.3944 2.315,
3.24107 24.057 2.315,
3.18956 24.2336 2.315,
2.67755 24.7456 2.315,
2.83839 24.6597 2.315,
2.98353 24.5395 2.315,
1.77915 24.6597 2.515,
1.94002 24.7456 2.515,
2.11657 24.7971 2.515,
2.3088 24.8142 2.515,
2.50102 24.7971 2.515,
3.24131 23.6789 2.515,
3.25824 23.8648 2.515,
3.10371 24.3944 2.515,
3.24107 24.057 2.515,
3.18956 24.2336 2.515,
2.67755 24.7456 2.515,
2.83839 24.6597 2.515,
2.98353 24.5395 2.515,
4.73053 22.3178 2.315,
4.73053 22.4425 2.315,
4.73053 22.3178 2.515,
4.73053 22.4425 2.515,
5.13544 22.2565 2.315,
5.3826 22 2.315,
5.68628 22.4425 2.315,
5.13544 22.2565 2.515,
5.3826 22 2.515,
5.68628 22.4425 2.515,
8.3992 16.2852 2.315,
8.3992 16.2852 2.515,
8.63722 15.6345 2.315,
8.4587 15.9133 2.315,
8.83405 15.7045 2.315,
8.71291 15.951 2.315,
8.92233 15.4605 2.315,
9.03235 15.5535 2.315,
8.67254 16.2878 2.315,
8.45641 16.6826 2.315,
8.71112 16.6481 2.315,
9.3016 15.4024 2.315,
9.30422 15.5031 2.315,
9.44905 15.5121 2.315,
9.58539 15.5391 2.315,
9.62168 15.423 2.315,
9.70374 15.5811 2.315,
9.92019 15.4848 2.315,
9.79464 15.6352 2.315,
9.84302 15.8968 2.315,
9.92803 15.8968 2.315,
9.81556 16.7521 2.315,
9.90188 16.7521 2.315,
8.63722 15.6345 2.515,
8.4587 15.9133 2.515,
8.83405 15.7045 2.515,
8.71291 15.951 2.515,
8.92233 15.4605 2.515,
9.03235 15.5535 2.515,
8.67254 16.2878 2.515,
8.45641 16.6826 2.515,
8.71112 16.6481 2.515,
9.3016 15.4024 2.515,
9.30422 15.5031 2.515,
9.44905 15.5121 2.515,
9.58539 15.5391 2.515,
9.62168 15.423 2.515,
9.70374 15.5811 2.515,
9.92019 15.4848 2.515,
9.79464 15.6352 2.515,
9.84302 15.8968 2.515,
9.92803 15.8968 2.515,
9.81556 16.7521 2.515,
9.90188 16.7521 2.515,
7.45654 19.2857 2.315,
7.45654 19.4105 2.315,
7.88026 19.474 2.315,
8.33224 19.474 2.315,
7.45654 19.2857 2.515,
7.45654 19.4105 2.515,
7.88026 19.474 2.515,
8.33224 19.474 2.515,
8.62806 16.9698 2.315,
8.82686 16.8999 2.315,
9.02663 17.048 2.315,
8.91219 17.1439 2.315,
9.31729 17.0973 2.315,
9.30682 17.202 2.315,
9.4417 17.0897 2.315,
9.5638 17.0666 2.315,
9.67743 17.0295 2.315,
9.59029 17.1853 2.315,
9.77633 16.9796 2.315,
9.89403 17.1353 2.315,
8.62806 16.9698 2.515,
8.82686 16.8999 2.515,
9.02663 17.048 2.515,
8.91219 17.1439 2.515,
9.31729 17.0973 2.515,
9.30682 17.202 2.515,
9.4417 17.0897 2.515,
9.5638 17.0666 2.515,
9.67743 17.0295 2.515,
9.59029 17.1853 2.515,
9.77633 16.9796 2.515,
9.89403 17.1353 2.515,
8.73715 19.2857 2.315,
8.73715 19.4105 2.315,
8.73715 19.2857 2.515,
8.73715 19.4105 2.515,
10.1701 15.4286 2.315,
10.1701 15.4979 2.315,
10.378 15.5332 2.315,
10.6305 15.5332 2.315,
10.909 15.4286 2.315,
10.909 15.4979 2.315,
10.6305 16.1165 2.315,
10.6305 16.2342 2.315,
10.8279 16.1165 2.315,
10.7665 16.2342 2.315,
10.9585 16.2594 2.315,
11.6428 15.4286 2.315,
11.6428 15.4979 2.315,
11.0972 16.1515 2.315,
11.0928 16.3349 2.315,
11.2955 16.2564 2.315,
11.1717 16.4673 2.315,
11.1729 16.8482 2.315,
11.198 16.6631 2.315,
11.4176 16.4287 2.315,
11.4583 16.6658 2.315,
10.1701 15.4286 2.515,
10.1701 15.4979 2.515,
10.378 15.5332 2.515,
10.6305 15.5332 2.515,
10.909 15.4286 2.515,
10.909 15.4979 2.515,
10.6305 16.1165 2.515,
10.6305 16.2342 2.515,
10.8279 16.1165 2.515,
10.7665 16.2342 2.515,
10.9585 16.2594 2.515,
11.6428 15.4286 2.515,
11.6428 15.4979 2.515,
11.0972 16.1515 2.515,
11.0928 16.3349 2.515,
11.2955 16.2564 2.515,
11.1717 16.4673 2.515,
11.1729 16.8482 2.515,
11.198 16.6631 2.515,
11.4176 16.4287 2.515,
11.4583 16.6658 2.515,
11.8677 15.5332 2.315,
12.005 15.5332 2.315,
12.2405 15.4286 2.315,
12.2405 15.4979 2.315,
13.0761 15.8837 2.315,
13.0866 15.4286 2.315,
13.2135 15.4286 2.315,
11.8677 15.5332 2.515,
12.005 15.5332 2.515,
12.2405 15.4286 2.515,
12.2405 15.4979 2.515,
13.0761 15.8837 2.515,
13.0866 15.4286 2.515,
13.2135 15.4286 2.515,
10.1531 17.113 2.315,
10.1531 17.1824 2.315,
10.378 17.079 2.315,
10.6305 17.0646 2.315,
10.7586 17.0646 2.315,
10.9623 17.0414 2.315,
10.8149 17.1824 2.315,
11.0973 16.9718 2.315,
11.2974 17.0532 2.315,
11.6428 17.113 2.315,
11.6428 17.1824 2.315,
10.1531 17.113 2.515,
10.1531 17.1824 2.515,
10.378 17.079 2.515,
10.6305 17.0646 2.515,
10.7586 17.0646 2.515,
10.9623 17.0414 2.515,
10.8149 17.1824 2.515,
11.0973 16.9718 2.515,
11.2974 17.0532 2.515,
11.6428 17.113 2.515,
11.6428 17.1824 2.515,
10.2535 19.2857 2.315,
10.2535 19.4105 2.315,
10.6278 19.474 2.315,
11.5836 19.2857 2.315,
11.0822 19.474 2.315,
11.5836 19.4105 2.315,
10.2535 19.2857 2.515,
10.2535 19.4105 2.515,
10.6278 19.474 2.515,
11.5836 19.2857 2.515,
11.0822 19.474 2.515,
11.5836 19.4105 2.515,
11.8677 17.079 2.315,
12.005 17.0058 2.315,
12.1738 17.1824 2.315,
12.8407 17.113 2.315,
12.8407 17.1824 2.315,
13.0761 17.079 2.315,
13.2135 17.079 2.315,
13.4384 17.113 2.315,
13.4384 17.1824 2.315,
11.8677 17.079 2.515,
12.005 17.0058 2.515,
12.1738 17.1824 2.515,
12.8407 17.113 2.515,
12.8407 17.1824 2.515,
13.0761 17.079 2.515,
13.2135 17.079 2.515,
13.4384 17.113 2.515,
13.4384 17.1824 2.515,
12.9397 19.2857 2.315,
12.9397 19.4105 2.315,
13.3446 19.474 2.315,
12.9397 19.2857 2.515,
12.9397 19.4105 2.515,
13.3446 19.474 2.515,
7.88026 22 2.315,
7.83319 22.4425 2.315,
8.33224 22.2565 2.315,
7.88026 22 2.515,
7.83319 22.4425 2.515,
8.33224 22.2565 2.515,
8.73715 22.3178 2.315,
8.73715 22.4425 2.315,
8.73715 22.3178 2.515,
8.73715 22.4425 2.515,
11.0822 20.5239 2.315,
11.0822 20.7358 2.315,
11.327 20.7358 2.315,
11.4376 20.5239 2.315,
11.6727 20.7811 2.315,
11.0822 20.5239 2.515,
11.0822 20.7358 2.515,
11.327 20.7358 2.515,
11.4376 20.5239 2.515,
11.6727 20.7811 2.515,
10.2229 22.3178 2.315,
10.2229 22.4425 2.315,
10.6278 22.2565 2.315,
11.0822 22.2306 2.315,
11.3128 22.2306 2.315,
11.6795 22.1888 2.315,
11.4141 22.4425 2.315,
10.2229 22.3178 2.515,
10.2229 22.4425 2.515,
10.6278 22.2565 2.515,
11.0822 22.2306 2.515,
11.3128 22.2306 2.515,
11.6795 22.1888 2.515,
11.4141 22.4425 2.515,
11.9223 20.5869 2.315,
11.9143 20.9171 2.315,
12.2792 20.7758 2.315,
12.499 21.086 2.315,
12.0564 21.1554 2.315,
12.1038 21.5079 2.315,
12.0585 21.841 2.315,
12.5723 21.5127 2.315,
11.9223 20.5869 2.515,
11.9143 20.9171 2.515,
12.2792 20.7758 2.515,
12.499 21.086 2.515,
12.0564 21.1554 2.515,
12.1038 21.5079 2.515,
12.0585 21.841 2.515,
12.5723 21.5127 2.515,
11.9225 22.0635 2.315,
12.2827 22.2101 2.315,
12.9397 22.3178 2.315,
12.9397 22.4425 2.315,
13.3446 22.2565 2.315,
11.9225 22.0635 2.515,
12.2827 22.2101 2.515,
12.9397 22.3178 2.515,
12.9397 22.4425 2.515,
13.3446 22.2565 2.515,
27 0 0,
14.2604 3.8166 2.315,
14.3297 3.8166 2.315,
13.8053 5.02503 2.315,
15.1381 3.85714 2.315,
15.1381 3.92646 2.315,
14.3507 4.27173 2.315,
14.2604 3.8166 2.515,
14.3297 3.8166 2.515,
13.8053 5.02503 2.515,
15.1381 3.85714 2.515,
15.1381 3.92646 2.515,
14.3507 4.27173 2.515,
13.8367 5.48798 2.315,
13.8956 5.48798 2.315,
14.4749 5.54162 2.315,
14.4749 5.61093 2.315,
14.7482 5.5076 2.315,
14.9026 5.5076 2.315,
15.0556 5.54162 2.315,
15.0556 5.61093 2.315,
15.1381 5.54162 2.315,
15.1381 5.61093 2.315,
13.8367 5.48798 2.515,
13.8956 5.48798 2.515,
14.4749 5.54162 2.515,
14.4749 5.61093 2.515,
14.7482 5.5076 2.515,
14.9026 5.5076 2.515,
15.0556 5.54162 2.515,
15.0556 5.61093 2.515,
15.1381 5.54162 2.515,
15.1381 5.61093 2.515,
15.3631 3.96177 2.315,
15.5004 3.96177 2.315,
15.7358 3.85714 2.315,
15.7358 3.92646 2.315,
16.582 3.85714 2.315,
16.7088 3.85714 2.315,
16.5715 4.31227 2.315,
15.3631 3.96177 2.515,
15.5004 3.96177 2.515,
15.7358 3.85714 2.515,
15.7358 3.92646 2.515,
16.582 3.85714 2.515,
16.7088 3.85714 2.515,
16.5715 4.31227 2.515,
15.5004 5.43437 2.315,
15.3631 5.5076 2.315,
15.6691 5.61093 2.315,
16.3361 5.54162 2.315,
16.3361 5.61093 2.315,
16.5715 5.5076 2.315,
16.7088 5.5076 2.315,
15.5004 5.43437 2.515,
15.3631 5.5076 2.515,
15.6691 5.61093 2.515,
16.3361 5.54162 2.515,
16.3361 5.61093 2.515,
16.5715 5.5076 2.515,
16.7088 5.5076 2.515,
17.0725 3.85714 2.315,
17.0725 3.92646 2.315,
17.2975 3.96177 2.315,
17.4348 3.96177 2.315,
17.6702 3.85714 2.315,
17.6702 3.92646 2.315,
18.5163 3.85714 2.315,
18.5059 4.31227 2.315,
17.0725 3.85714 2.515,
17.0725 3.92646 2.515,
17.2975 3.96177 2.515,
17.4348 3.96177 2.515,
17.6702 3.85714 2.515,
17.6702 3.92646 2.515,
18.5163 3.85714 2.515,
18.5059 4.31227 2.515,
16.9338 5.54162 2.315,
16.9338 5.61093 2.315,
17.0725 5.54162 2.315,
17.0725 5.61093 2.315,
17.4348 5.43437 2.315,
17.2975 5.5076 2.315,
17.6035 5.61093 2.315,
18.2705 5.54162 2.315,
18.2705 5.61093 2.315,
18.5059 5.5076 2.315,
16.9338 5.54162 2.515,
16.9338 5.61093 2.515,
17.0725 5.54162 2.515,
17.0725 5.61093 2.515,
17.4348 5.43437 2.515,
17.2975 5.5076 2.515,
17.6035 5.61093 2.515,
18.2705 5.54162 2.515,
18.2705 5.61093 2.515,
18.5059 5.5076 2.515,
18.6432 3.85714 2.315,
19.0069 3.85714 2.315,
19.0069 3.92646 2.315,
19.2318 3.96177 2.315,
19.3692 3.96177 2.315,
19.6046 3.85714 2.315,
19.6046 3.92646 2.315,
18.6432 3.85714 2.515,
19.0069 3.85714 2.515,
19.0069 3.92646 2.515,
19.2318 3.96177 2.515,
19.3692 3.96177 2.515,
19.6046 3.85714 2.515,
19.6046 3.92646 2.515,
18.6432 5.5076 2.315,
18.8681 5.54162 2.315,
18.8681 5.61093 2.315,
19.3692 5.43437 2.315,
19.0069 5.54162 2.315,
19.0069 5.61093 2.315,
19.2318 5.5076 2.315,
19.5379 5.61093 2.315,
20.2048 5.54162 2.315,
20.2048 5.61093 2.315,
18.6432 5.5076 2.515,
18.8681 5.54162 2.515,
18.8681 5.61093 2.515,
19.3692 5.43437 2.515,
19.0069 5.54162 2.515,
19.0069 5.61093 2.515,
19.2318 5.5076 2.515,
19.5379 5.61093 2.515,
20.2048 5.54162 2.515,
20.2048 5.61093 2.515,
13.5968 7.71429 2.315,
13.5968 7.7836 2.315,
13.8217 7.81891 2.315,
14.0728 7.81891 2.315,
14.2978 7.71429 2.315,
14.2978 7.7836 2.315,
14.4888 7.71429 2.315,
14.4888 7.7836 2.315,
14.7137 7.81891 2.315,
14.9648 7.81891 2.315,
13.5968 7.71429 2.515,
13.5968 7.7836 2.515,
13.8217 7.81891 2.515,
14.0728 7.81891 2.515,
14.2978 7.71429 2.515,
14.2978 7.7836 2.515,
14.4888 7.71429 2.515,
14.4888 7.7836 2.515,
14.7137 7.81891 2.515,
14.9648 7.81891 2.515,
13.5968 9.39876 2.315,
13.5968 9.46807 2.315,
13.8217 9.36474 2.315,
14.0728 9.36474 2.315,
14.2978 9.39876 2.315,
14.2978 9.46807 2.315,
14.4888 9.39876 2.315,
14.4888 9.46807 2.315,
14.7137 9.36474 2.315,
14.9648 9.36474 2.315,
13.5968 9.39876 2.515,
13.5968 9.46807 2.515,
13.8217 9.36474 2.515,
14.0728 9.36474 2.515,
14.2978 9.39876 2.515,
14.2978 9.46807 2.515,
14.4888 9.39876 2.515,
14.4888 9.46807 2.515,
14.7137 9.36474 2.515,
14.9648 9.36474 2.515,
15.1898 7.71429 2.315,
15.1898 7.7836 2.315,
15.3807 7.71429 2.315,
15.3807 7.7836 2.315,
15.6057 7.81891 2.315,
15.8568 7.81891 2.315,
16.0817 7.71429 2.315,
16.0817 7.7836 2.315,
15.1898 7.71429 2.515,
15.1898 7.7836 2.515,
15.3807 7.71429 2.515,
15.3807 7.7836 2.515,
15.6057 7.81891 2.515,
15.8568 7.81891 2.515,
16.0817 7.71429 2.515,
16.0817 7.7836 2.515,
15.1898 9.39876 2.315,
15.1898 9.46807 2.315,
15.3807 9.39876 2.315,
15.3807 9.46807 2.315,
15.6057 9.36474 2.315,
15.8568 9.36474 2.315,
16.0817 9.39876 2.315,
16.0817 9.46807 2.315,
15.1898 9.39876 2.515,
15.1898 9.46807 2.515,
15.3807 9.39876 2.515,
15.3807 9.46807 2.515,
15.6057 9.36474 2.515,
15.8568 9.36474 2.515,
16.0817 9.39876 2.515,
16.0817 9.46807 2.515,
13.8479 11.7774 2.315,
14.133 11.6033 2.315,
14.243 11.6963 2.315,
14.5122 11.5453 2.315,
14.5149 11.646 2.315,
14.6597 11.655 2.315,
14.8323 11.5659 2.315,
14.796 11.6819 2.315,
14.9144 11.7239 2.315,
15.0053 11.7781 2.315,
15.1308 11.6277 2.315,
13.8479 11.7774 2.515,
14.133 11.6033 2.515,
14.243 11.6963 2.515,
14.5122 11.5453 2.515,
14.5149 11.646 2.515,
14.6597 11.655 2.515,
14.8323 11.5659 2.515,
14.796 11.6819 2.515,
14.9144 11.7239 2.515,
15.0053 11.7781 2.515,
15.1308 11.6277 2.515,
13.6694 12.0561 2.315,
13.6099 12.428 2.315,
13.8832 12.4307 2.315,
14.0447 11.8474 2.315,
13.9236 12.0939 2.315,
13.6671 12.8255 2.315,
13.9218 12.791 2.315,
13.8387 13.1127 2.315,
14.0375 13.0427 2.315,
14.1228 13.2868 2.315,
14.2373 13.1908 2.315,
15.0537 12.0396 2.315,
15.1387 12.0396 2.315,
14.5279 13.2402 2.315,
14.5175 13.3448 2.315,
14.6524 13.2325 2.315,
15.0262 12.8949 2.315,
15.1125 12.8949 2.315,
14.7745 13.2095 2.315,
14.8881 13.1724 2.315,
14.8009 13.3281 2.315,
14.987 13.1225 2.315,
15.1047 13.2781 2.315,
13.6694 12.0561 2.515,
13.6099 12.428 2.515,
13.8832 12.4307 2.515,
14.0447 11.8474 2.515,
13.9236 12.0939 2.515,
13.6671 12.8255 2.515,
13.9218 12.791 2.515,
13.8387 13.1127 2.515,
14.0375 13.0427 2.515,
14.1228 13.2868 2.515,
14.2373 13.1908 2.515,
15.0537 12.0396 2.515,
15.1387 12.0396 2.515,
14.5279 13.2402 2.515,
14.5175 13.3448 2.515,
14.6524 13.2325 2.515,
15.0262 12.8949 2.515,
15.1125 12.8949 2.515,
14.7745 13.2095 2.515,
14.8881 13.1724 2.515,
14.8009 13.3281 2.515,
14.987 13.1225 2.515,
15.1047 13.2781 2.515,
15.3808 11.5714 2.315,
15.3808 11.6407 2.315,
15.5887 11.6761 2.315,
15.8411 11.6761 2.315,
16.1197 11.5714 2.315,
16.1197 11.6407 2.315,
16.8534 11.5714 2.315,
16.8534 11.6407 2.315,
15.3808 11.5714 2.515,
15.3808 11.6407 2.515,
15.5887 11.6761 2.515,
15.8411 11.6761 2.515,
16.1197 11.5714 2.515,
16.1197 11.6407 2.515,
16.8534 11.5714 2.515,
16.8534 11.6407 2.515,
15.8411 12.2593 2.315,
15.8411 12.3771 2.315,
15.9771 12.3771 2.315,
15.3638 13.2559 2.315,
15.3638 13.3252 2.315,
15.5887 13.2219 2.315,
15.8411 13.2075 2.315,
15.9693 13.2075 2.315,
16.0255 13.3252 2.315,
16.0386 12.2593 2.315,
16.1692 12.4022 2.315,
16.3078 12.2943 2.315,
16.3034 12.4777 2.315,
16.3824 12.6102 2.315,
16.5061 12.3993 2.315,
16.6282 12.5716 2.315,
16.4087 12.806 2.315,
16.3835 12.9911 2.315,
16.173 13.1843 2.315,
16.308 13.1146 2.315,
16.669 12.8086 2.315,
16.5081 13.1961 2.315,
16.8534 13.2559 2.315,
16.8534 13.3252 2.315,
15.8411 12.2593 2.515,
15.8411 12.3771 2.515,
15.9771 12.3771 2.515,
15.3638 13.2559 2.515,
15.3638 13.3252 2.515,
15.5887 13.2219 2.515,
15.8411 13.2075 2.515,
15.9693 13.2075 2.515,
16.0255 13.3252 2.515,
16.0386 12.2593 2.515,
16.1692 12.4022 2.515,
16.3078 12.2943 2.515,
16.3034 12.4777 2.515,
16.3824 12.6102 2.515,
16.5061 12.3993 2.515,
16.6282 12.5716 2.515,
16.4087 12.806 2.515,
16.3835 12.9911 2.515,
16.173 13.1843 2.515,
16.308 13.1146 2.515,
16.669 12.8086 2.515,
16.5081 13.1961 2.515,
16.8534 13.2559 2.515,
16.8534 13.3252 2.515,
17.0784 11.6761 2.315,
17.2157 11.6761 2.315,
17.4511 11.5714 2.315,
17.4511 11.6407 2.315,
18.2973 11.5714 2.315,
18.4241 11.5714 2.315,
17.0784 11.6761 2.515,
17.2157 11.6761 2.515,
17.4511 11.5714 2.515,
17.4511 11.6407 2.515,
18.2973 11.5714 2.515,
18.4241 11.5714 2.515,
17.0784 13.2219 2.315,
17.2157 13.1487 2.315,
17.3844 13.3252 2.315,
18.2868 12.0266 2.315,
18.0514 13.2559 2.315,
18.0514 13.3252 2.315,
18.2868 13.2219 2.315,
18.4241 13.2219 2.315,
17.0784 13.2219 2.515,
17.2157 13.1487 2.515,
17.3844 13.3252 2.515,
18.2868 12.0266 2.515,
18.0514 13.2559 2.515,
18.0514 13.3252 2.515,
18.2868 13.2219 2.515,
18.4241 13.2219 2.515,
18.6491 13.2559 2.315,
18.6491 13.3252 2.315,
18.6491 13.2559 2.515,
18.6491 13.3252 2.515,
20.4507 3.85714 2.315,
20.5776 3.85714 2.315,
20.4402 4.31227 2.315,
20.4507 3.85714 2.515,
20.5776 3.85714 2.515,
20.4402 4.31227 2.515,
20.4402 5.5076 2.315,
20.5776 5.5076 2.315,
20.8025 5.54162 2.315,
20.8025 5.61093 2.315,
20.4402 5.5076 2.515,
20.5776 5.5076 2.515,
20.8025 5.54162 2.515,
20.8025 5.61093 2.515,
27 0 2.315,
27 27 0,
13.6694 15.9133 2.315,
13.8479 15.6345 2.315,
14.133 15.4605 2.315,
14.243 15.5535 2.315,
14.0447 15.7045 2.315,
13.9236 15.951 2.315,
13.6099 16.2852 2.315,
13.8832 16.2878 2.315,
13.6671 16.6826 2.315,
13.9218 16.6481 2.315,
14.5122 15.4024 2.315,
14.5149 15.5031 2.315,
14.6597 15.5121 2.315,
14.8323 15.423 2.315,
14.796 15.5391 2.315,
14.9144 15.5811 2.315,
15.1308 15.4848 2.315,
15.0053 15.6352 2.315,
15.0537 15.8968 2.315,
15.1387 15.8968 2.315,
15.0262 16.7521 2.315,
15.1125 16.7521 2.315,
13.6694 15.9133 2.515,
13.8479 15.6345 2.515,
14.133 15.4605 2.515,
14.243 15.5535 2.515,
14.0447 15.7045 2.515,
13.9236 15.951 2.515,
13.6099 16.2852 2.515,
13.8832 16.2878 2.515,
13.6671 16.6826 2.515,
13.9218 16.6481 2.515,
14.5122 15.4024 2.515,
14.5149 15.5031 2.515,
14.6597 15.5121 2.515,
14.8323 15.423 2.515,
14.796 15.5391 2.515,
14.9144 15.5811 2.515,
15.1308 15.4848 2.515,
15.0053 15.6352 2.515,
15.0537 15.8968 2.515,
15.1387 15.8968 2.515,
15.0262 16.7521 2.515,
15.1125 16.7521 2.515,
15.3808 15.4286 2.315,
15.3808 15.4979 2.315,
15.5887 15.5332 2.315,
15.8411 15.5332 2.315,
15.8411 16.1165 2.315,
15.8411 16.2342 2.315,
15.9771 16.2342 2.315,
16.1197 15.4286 2.315,
16.1197 15.4979 2.315,
16.8534 15.4286 2.315,
16.8534 15.4979 2.315,
16.0386 16.1165 2.315,
16.1692 16.2594 2.315,
16.3078 16.1515 2.315,
16.3034 16.3349 2.315,
16.3824 16.4673 2.315,
16.4087 16.6631 2.315,
16.3835 16.8482 2.315,
16.5061 16.2564 2.315,
16.6282 16.4287 2.315,
16.669 16.6658 2.315,
15.3808 15.4286 2.515,
15.3808 15.4979 2.515,
15.5887 15.5332 2.515,
15.8411 15.5332 2.515,
15.8411 16.1165 2.515,
15.8411 16.2342 2.515,
15.9771 16.2342 2.515,
16.1197 15.4286 2.515,
16.1197 15.4979 2.515,
16.8534 15.4286 2.515,
16.8534 15.4979 2.515,
16.0386 16.1165 2.515,
16.1692 16.2594 2.515,
16.3078 16.1515 2.515,
16.3034 16.3349 2.515,
16.3824 16.4673 2.515,
16.4087 16.6631 2.515,
16.3835 16.8482 2.515,
16.5061 16.2564 2.515,
16.6282 16.4287 2.515,
16.669 16.6658 2.515,
13.8387 16.9698 2.315,
14.0375 16.8999 2.315,
14.1228 17.1439 2.315,
14.2373 17.048 2.315,
14.5279 17.0973 2.315,
14.5175 17.202 2.315,
14.6524 17.0897 2.315,
14.7745 17.0666 2.315,
14.8881 17.0295 2.315,
14.8009 17.1853 2.315,
14.987 16.9796 2.315,
15.1047 17.1353 2.315,
13.8387 16.9698 2.515,
14.0375 16.8999 2.515,
14.1228 17.1439 2.515,
14.2373 17.048 2.515,
14.5279 17.0973 2.515,
14.5175 17.202 2.515,
14.6524 17.0897 2.515,
14.7745 17.0666 2.515,
14.8881 17.0295 2.515,
14.8009 17.1853 2.515,
14.987 16.9796 2.515,
15.1047 17.1353 2.515,
14.2015 19.2857 2.315,
13.7965 19.474 2.315,
14.2015 19.4105 2.315,
14.6759 20.1582 2.315,
14.9972 19.6565 2.315,
15.1335 20.2262 2.315,
14.2015 19.2857 2.515,
13.7965 19.474 2.515,
14.2015 19.4105 2.515,
14.6759 20.1582 2.515,
14.9972 19.6565 2.515,
15.1335 20.2262 2.515,
15.3638 17.113 2.315,
15.3638 17.1824 2.315,
15.5887 17.079 2.315,
15.8411 17.0646 2.315,
15.9693 17.0646 2.315,
16.0255 17.1824 2.315,
16.173 17.0414 2.315,
16.308 16.9718 2.315,
16.5081 17.0532 2.315,
16.8534 17.113 2.315,
16.8534 17.1824 2.315,
15.3638 17.113 2.515,
15.3638 17.1824 2.515,
15.5887 17.079 2.515,
15.8411 17.0646 2.515,
15.9693 17.0646 2.515,
16.0255 17.1824 2.515,
16.173 17.0414 2.515,
16.308 16.9718 2.515,
16.5081 17.0532 2.515,
16.8534 17.113 2.515,
16.8534 17.1824 2.515,
15.5104 19.3431 2.315,
15.3515 19.7824 2.315,
15.7084 19.5105 2.315,
16.1931 19.2386 2.315,
16.7692 19.2757 2.315,
16.1978 19.4199 2.315,
16.4585 19.4361 2.315,
16.7039 19.4846 2.315,
15.5104 19.3431 2.515,
15.3515 19.7824 2.515,
15.7084 19.5105 2.515,
16.1931 19.2386 2.515,
16.7692 19.2757 2.515,
16.1978 19.4199 2.515,
16.4585 19.4361 2.515,
16.7039 19.4846 2.515,
17.0784 15.5332 2.315,
17.2157 15.5332 2.315,
17.4511 15.4286 2.315,
17.4511 15.4979 2.315,
18.2973 15.4286 2.315,
18.4241 15.4286 2.315,
18.2868 15.8837 2.315,
17.0784 15.5332 2.515,
17.2157 15.5332 2.515,
17.4511 15.4286 2.515,
17.4511 15.4979 2.515,
18.2973 15.4286 2.515,
18.4241 15.4286 2.515,
18.2868 15.8837 2.515,
17.0784 17.079 2.315,
17.2157 17.0058 2.315,
17.3844 17.1824 2.315,
18.0514 17.113 2.315,
18.0514 17.1824 2.315,
18.2868 17.079 2.315,
18.4241 17.079 2.315,
17.0784 17.079 2.515,
17.2157 17.0058 2.515,
17.3844 17.1824 2.515,
18.0514 17.113 2.515,
18.0514 17.1824 2.515,
18.2868 17.079 2.515,
18.4241 17.079 2.515,
17.3065 19.3869 2.315,
16.9169 19.5603 2.315,
17.0806 19.6576 2.315,
17.1677 20.1285 2.315,
17.3207 20.1285 2.315,
17.8435 19.3399 2.315,
18.2555 19.2639 2.315,
18.0789 19.5611 2.315,
17.8176 20.0037 2.315,
17.973 20.0037 2.315,
18.1898 19.5129 2.315,
18.339 19.4717 2.315,
18.5017 19.4434 2.315,
17.3065 19.3869 2.515,
16.9169 19.5603 2.515,
17.0806 19.6576 2.515,
17.1677 20.1285 2.515,
17.3207 20.1285 2.515,
17.8435 19.3399 2.515,
18.2555 19.2639 2.515,
18.0789 19.5611 2.515,
17.8176 20.0037 2.515,
17.973 20.0037 2.515,
18.1898 19.5129 2.515,
18.339 19.4717 2.515,
18.5017 19.4434 2.515,
18.6491 17.113 2.315,
18.6491 17.1824 2.315,
18.6491 17.113 2.515,
18.6491 17.1824 2.515,
18.6909 19.2386 2.315,
19.1647 19.2987 2.315,
18.6533 19.434 2.315,
18.9746 19.4764 2.315,
19.1994 19.6035 2.315,
19.3319 19.8295 2.315,
19.376 20.1685 2.315,
20.2095 19.2857 2.315,
19.5172 19.4788 2.315,
19.7362 19.7654 2.315,
19.8091 20.145 2.315,
20.2095 19.6317 2.315,
18.6909 19.2386 2.515,
19.1647 19.2987 2.515,
18.6533 19.434 2.515,
18.9746 19.4764 2.515,
19.1994 19.6035 2.515,
19.3319 19.8295 2.515,
19.376 20.1685 2.515,
20.2095 19.2857 2.515,
19.5172 19.4788 2.515,
19.7362 19.7654 2.515,
19.8091 20.145 2.515,
20.2095 19.6317 2.515,
14.5688 20.8276 2.315,
15.0608 20.8323 2.315,
14.6718 21.543 2.315,
15.1302 21.4809 2.315,
14.5688 20.8276 2.515,
15.0608 20.8323 2.515,
14.6718 21.543 2.515,
15.1302 21.4809 2.515,
13.7965 22.2565 2.315,
14.2015 22.3178 2.315,
14.2015 22.4425 2.315,
14.9807 22.06 2.315,
13.7965 22.2565 2.515,
14.2015 22.3178 2.515,
14.2015 22.4425 2.515,
14.9807 22.06 2.515,
15.3386 21.934 2.315,
15.3386 21.934 2.515,
15.4922 22.3734 2.315,
15.6981 22.2006 2.315,
16.2213 22.2895 2.315,
16.4453 22.2757 2.315,
16.2025 22.4778 2.315,
16.6651 22.2342 2.315,
16.8696 22.1674 2.315,
16.7127 22.4478 2.315,
15.4922 22.3734 2.515,
15.6981 22.2006 2.515,
16.2213 22.2895 2.515,
16.4453 22.2757 2.515,
16.2025 22.4778 2.515,
16.6651 22.2342 2.515,
16.8696 22.1674 2.515,
16.7127 22.4478 2.515,
17.1182 21.668 2.315,
17.2736 21.668 2.315,
18.3731 20.837 2.315,
18.3731 21.0301 2.315,
17.9141 21.7692 2.315,
18.0695 21.7692 2.315,
17.1182 21.668 2.515,
17.2736 21.668 2.515,
18.3731 20.837 2.515,
18.3731 21.0301 2.515,
17.9141 21.7692 2.515,
18.0695 21.7692 2.515,
17.0476 22.0776 2.315,
17.2595 22.3578 2.315,
17.9141 22.3766 2.315,
18.1313 22.4275 2.315,
18.1519 22.1553 2.315,
18.2637 22.2062 2.315,
18.392 22.2459 2.315,
18.5256 22.2716 2.315,
18.3166 22.4578 2.315,
18.4855 22.4728 2.315,
17.0476 22.0776 2.515,
17.2595 22.3578 2.515,
17.9141 22.3766 2.515,
18.1313 22.4275 2.515,
18.1519 22.1553 2.515,
18.2637 22.2062 2.515,
18.392 22.2459 2.515,
18.5256 22.2716 2.515,
18.3166 22.4578 2.515,
18.4855 22.4728 2.515,
18.7098 20.8182 2.315,
18.7098 21.0512 2.315,
18.9758 20.9383 2.315,
19.3354 20.4419 2.315,
19.2135 20.6405 2.315,
19.0064 20.7655 2.315,
19.3477 20.852 2.315,
19.268 21.0221 2.315,
18.9411 21.0995 2.315,
19.1029 21.216 2.315,
19.1982 21.4055 2.315,
19.23 21.6727 2.315,
19.7585 20.4572 2.315,
19.6067 20.6923 2.315,
19.4854 21.1796 2.315,
19.6205 21.407 2.315,
19.6655 21.701 2.315,
18.7098 20.8182 2.515,
18.7098 21.0512 2.515,
18.9758 20.9383 2.515,
19.3354 20.4419 2.515,
19.2135 20.6405 2.515,
19.0064 20.7655 2.515,
19.3477 20.852 2.515,
19.268 21.0221 2.515,
18.9411 21.0995 2.515,
19.1029 21.216 2.515,
19.1982 21.4055 2.515,
19.23 21.6727 2.515,
19.7585 20.4572 2.515,
19.6067 20.6923 2.515,
19.4854 21.1796 2.515,
19.6205 21.407 2.515,
19.6655 21.701 2.515,
18.6533 22.2801 2.315,
18.9137 22.2439 2.315,
18.6533 22.4778 2.315,
19.0923 22.1353 2.315,
19.1956 21.9473 2.315,
19.4125 22.2836 2.315,
18.6533 22.2801 2.515,
18.9137 22.2439 2.515,
18.6533 22.4778 2.515,
19.0923 22.1353 2.515,
19.1956 21.9473 2.515,
19.4125 22.2836 2.515,
20.5179 19.6482 2.315,
20.6473 20.0296 2.315,
20.7468 19.8536 2.315,
20.9628 20.0414 2.315,
20.5179 19.6482 2.515,
20.6473 20.0296 2.515,
20.7468 19.8536 2.515,
20.9628 20.0414 2.515,
22.1422 19.2857 2.315,
22.1422 19.6482 2.315,
22.1422 19.2857 2.515,
22.1422 19.6482 2.515,
21.0128 20.3639 2.315,
20.3154 21.7692 2.315,
20.4708 21.7692 2.315,
21.2665 20.6275 2.315,
21.383 20.4118 2.315,
21.4362 20.8594 2.315,
21.6643 20.6899 2.315,
21.8488 20.9224 2.315,
21.5501 21.0983 2.315,
21.6146 21.3585 2.315,
21.6361 21.6539 2.315,
21.6014 21.9234 2.315,
21.0128 20.3639 2.515,
20.3154 21.7692 2.515,
20.4708 21.7692 2.515,
21.2665 20.6275 2.515,
21.383 20.4118 2.515,
21.4362 20.8594 2.515,
21.6643 20.6899 2.515,
21.8488 20.9224 2.515,
21.5501 21.0983 2.515,
21.6146 21.3585 2.515,
21.6361 21.6539 2.515,
21.6014 21.9234 2.515,
20.5532 22.1553 2.315,
20.6621 22.2062 2.315,
20.3154 22.3766 2.315,
20.7862 22.2459 2.315,
20.9163 22.2716 2.315,
21.0428 22.2801 2.315,
20.7115 22.4525 2.315,
21.0428 22.4778 2.315,
21.4972 22.12 2.315,
21.3142 22.2401 2.315,
21.4963 22.424 2.315,
21.8209 22.2624 2.315,
20.5532 22.1553 2.515,
20.6621 22.2062 2.515,
20.3154 22.3766 2.515,
20.7862 22.2459 2.515,
20.9163 22.2716 2.515,
21.0428 22.2801 2.515,
20.7115 22.4525 2.515,
21.0428 22.4778 2.515,
21.4972 22.12 2.515,
21.3142 22.2401 2.515,
21.4963 22.424 2.515,
21.8209 22.2624 2.515,
21.9786 21.156 2.315,
22.0554 21.3976 2.315,
22.081 21.6539 2.315,
21.9786 21.156 2.515,
22.0554 21.3976 2.515,
22.081 21.6539 2.515,
22.0159 22.0026 2.315,
22.0159 22.0026 2.515,
27 27 2.315
] }

coordIndex [
1,2,3,-1
1,3,6,-1
1,16,2,-1
1,50,16,-1
1,57,50,-1
1,90,57,-1
1,6,7,-1
8,6,3,-1
8,3,18,-1
0,1,439,-1
1,7,383,-1
7,146,383,-1
0,1111,1,-1
1,91,90,-1
1,93,91,-1
1,94,93,-1
1,115,94,-1
1,116,115,-1
1,731,116,-1
1,732,731,-1
1,734,732,-1
14,18,3,-1
15,38,19,-1
16,54,17,-1
51,16,50,-1
52,16,51,-1
15,17,38,-1
38,17,54,-1
20,28,9,-1
28,31,29,-1
20,32,28,-1
31,28,30,-1
32,30,28,-1
19,38,33,-1
33,38,34,-1
34,37,35,-1
37,34,36,-1
38,36,34,-1
52,54,16,-1
57,90,58,-1
53,58,102,-1
53,102,55,-1
102,58,90,-1
56,69,68,-1
56,73,69,-1
69,72,70,-1
72,69,71,-1
73,71,69,-1
35,37,215,-1
55,75,74,-1
55,76,75,-1
55,102,76,-1
75,78,77,-1
78,75,76,-1
70,215,37,-1
70,72,214,-1
77,214,72,-1
1,765,734,-1
1,767,765,-1
1,768,767,-1
1,791,768,-1
95,91,93,-1
92,104,103,-1
92,106,104,-1
104,106,105,-1
77,78,238,-1
105,238,78,-1
114,122,107,-1
107,122,123,-1
105,106,238,-1
107,238,106,-1
107,123,238,-1
130,94,115,-1
94,126,125,-1
94,127,126,-1
94,130,127,-1
114,124,122,-1
126,129,128,-1
129,126,127,-1
128,238,123,-1
131,117,132,-1
117,743,132,-1
132,743,133,-1
128,129,867,-1
133,867,129,-1
29,148,7,-1
29,31,149,-1
35,149,31,-1
170,7,148,-1
146,7,170,-1
148,29,149,-1
35,215,228,-1
35,228,226,-1
35,226,149,-1
149,227,151,-1
151,227,154,-1
287,158,286,-1
150,188,171,-1
172,188,173,-1
171,188,172,-1
173,188,175,-1
175,188,176,-1
176,188,179,-1
152,188,150,-1
153,189,152,-1
155,189,153,-1
152,189,188,-1
156,189,155,-1
157,189,156,-1
157,180,189,-1
181,307,180,-1
158,309,181,-1
179,188,182,-1
182,188,183,-1
183,188,185,-1
185,190,186,-1
190,185,188,-1
180,307,189,-1
189,307,191,-1
308,191,307,-1
70,214,215,-1
77,218,214,-1
77,239,218,-1
77,238,239,-1
216,228,215,-1
217,219,239,-1
218,239,219,-1
217,239,264,-1
217,230,229,-1
217,262,230,-1
217,264,262,-1
230,263,231,-1
230,262,263,-1
128,242,238,-1
128,244,242,-1
240,264,239,-1
241,243,245,-1
242,245,243,-1
245,242,244,-1
241,245,270,-1
128,248,244,-1
128,861,248,-1
128,865,861,-1
246,270,245,-1
247,249,862,-1
248,862,249,-1
241,266,265,-1
241,268,266,-1
241,270,268,-1
266,269,267,-1
269,266,268,-1
247,272,271,-1
247,881,272,-1
272,882,273,-1
227,149,226,-1
154,227,158,-1
158,227,286,-1
286,227,290,-1
288,158,287,-1
231,290,227,-1
231,263,292,-1
231,292,290,-1
290,293,291,-1
293,290,292,-1
288,309,158,-1
289,291,302,-1
302,291,304,-1
304,291,314,-1
305,306,303,-1
306,315,303,-1
315,316,303,-1
309,307,181,-1
311,310,303,-1
319,321,303,-1
312,311,303,-1
321,312,303,-1
291,293,314,-1
314,293,317,-1
316,320,303,-1
317,350,318,-1
293,350,317,-1
318,350,323,-1
323,350,362,-1
320,319,303,-1
323,324,322,-1
325,322,324,-1
323,362,324,-1
267,292,263,-1
267,352,292,-1
267,269,352,-1
352,354,353,-1
273,354,269,-1
269,354,352,-1
273,355,354,-1
933,355,273,-1
353,363,351,-1
363,353,354,-1
367,364,366,-1
956,355,955,-1
355,956,960,-1
355,960,369,-1
365,366,364,-1
365,368,366,-1
369,960,370,-1
0,439,382,-1
0,382,1112,-1
382,439,1112,-1
1,401,403,-1
1,408,407,-1
1,407,401,-1
1,402,427,-1
1,403,402,-1
1,427,428,-1
1,383,408,-1
1,428,439,-1
383,476,387,-1
387,391,390,-1
471,390,391,-1
408,384,409,-1
409,384,410,-1
410,384,411,-1
411,384,412,-1
439,428,429,-1
439,429,430,-1
439,430,431,-1
439,431,432,-1
439,432,440,-1
439,440,441,-1
439,441,442,-1
439,442,443,-1
439,443,444,-1
439,444,450,-1
384,408,383,-1
388,412,384,-1
412,388,413,-1
388,414,413,-1
445,388,466,-1
388,470,466,-1
388,415,414,-1
388,416,415,-1
388,445,416,-1
445,467,446,-1
446,472,448,-1
448,472,449,-1
445,466,467,-1
472,446,467,-1
390,471,389,-1
393,671,472,-1
449,472,671,-1
677,452,671,-1
447,671,452,-1
449,671,447,-1
174,383,146,-1
177,383,174,-1
177,479,383,-1
178,478,177,-1
177,478,479,-1
178,482,478,-1
178,487,482,-1
178,491,487,-1
184,556,178,-1
187,556,184,-1
191,556,187,-1
191,308,556,-1
178,493,491,-1
178,556,493,-1
483,497,480,-1
481,497,484,-1
480,497,481,-1
484,497,486,-1
486,497,529,-1
488,497,483,-1
489,497,488,-1
490,497,489,-1
492,497,490,-1
557,493,556,-1
494,497,492,-1
493,558,496,-1
494,495,497,-1
496,497,495,-1
558,497,496,-1
497,558,498,-1
476,383,479,-1
485,387,476,-1
387,485,391,-1
391,485,392,-1
392,528,520,-1
528,392,485,-1
520,528,531,-1
521,392,520,-1
392,521,522,-1
529,497,530,-1
520,531,533,-1
520,533,537,-1
520,537,539,-1
530,497,532,-1
532,497,534,-1
534,497,535,-1
538,536,535,-1
538,535,497,-1
498,612,539,-1
613,539,612,-1
552,539,613,-1
618,552,613,-1
539,552,520,-1
523,553,635,-1
552,618,553,-1
553,618,634,-1
635,553,634,-1
313,556,308,-1
313,560,556,-1
322,560,313,-1
322,325,560,-1
560,325,364,-1
560,367,561,-1
564,561,371,-1
493,557,558,-1
559,561,562,-1
562,561,564,-1
558,612,498,-1
558,614,612,-1
563,565,566,-1
566,570,563,-1
570,572,563,-1
616,615,563,-1
617,616,563,-1
619,617,563,-1
573,619,563,-1
568,564,567,-1
568,569,564,-1
569,568,571,-1
568,598,571,-1
572,574,563,-1
574,573,563,-1
571,598,575,-1
575,598,646,-1
575,646,576,-1
560,364,367,-1
561,367,371,-1
564,964,567,-1
564,371,964,-1
964,600,567,-1
601,647,599,-1
600,603,601,-1
647,601,603,-1
1119,604,1113,-1
602,649,648,-1
602,651,649,-1
604,1119,1121,-1
604,1121,653,-1
604,653,652,-1
620,634,618,-1
576,621,620,-1
622,620,621,-1
576,646,621,-1
620,622,634,-1
637,622,648,-1
634,622,637,-1
638,639,680,-1
680,639,683,-1
639,704,683,-1
650,648,649,-1
637,648,650,-1
637,650,654,-1
637,654,1204,-1
637,1235,664,-1
637,665,639,-1
637,664,665,-1
639,665,704,-1
392,522,670,-1
452,677,691,-1
523,676,672,-1
523,692,676,-1
523,635,692,-1
676,691,677,-1
691,676,690,-1
692,690,676,-1
439,450,1535,-1
636,692,635,-1
682,684,681,-1
681,684,705,-1
681,705,708,-1
694,693,681,-1
695,694,681,-1
681,708,709,-1
681,709,710,-1
681,720,695,-1
681,710,720,-1
704,665,706,-1
724,706,665,-1
666,724,665,-1
706,724,707,-1
707,724,711,-1
696,721,723,-1
711,722,721,-1
723,721,722,-1
722,711,724,-1
1535,450,451,-1
1535,451,452,-1
1535,452,691,-1
0,730,1111,-1
0,1112,730,-1
730,1112,1111,-1
1,1111,791,-1
733,116,731,-1
735,732,734,-1
732,749,748,-1
732,735,778,-1
732,751,749,-1
732,778,751,-1
736,745,744,-1
746,744,745,-1
133,743,903,-1
736,747,745,-1
749,752,750,-1
752,749,751,-1
744,903,743,-1
744,746,903,-1
750,903,746,-1
765,767,766,-1
763,778,735,-1
766,777,764,-1
777,766,767,-1
768,807,783,-1
750,752,903,-1
779,903,752,-1
779,781,907,-1
769,780,779,-1
781,779,780,-1
769,782,780,-1
808,907,781,-1
808,810,908,-1
792,768,791,-1
768,792,812,-1
793,812,792,-1
768,809,807,-1
768,812,809,-1
796,811,794,-1
795,797,796,-1
811,796,797,-1
807,810,808,-1
810,807,809,-1
813,908,810,-1
908,813,815,-1
798,814,813,-1
815,813,814,-1
798,816,814,-1
843,908,815,-1
829,827,828,-1
827,829,847,-1
827,842,841,-1
827,845,842,-1
827,847,845,-1
830,847,829,-1
832,1097,833,-1
833,844,831,-1
844,833,1097,-1
842,846,843,-1
846,842,845,-1
1099,849,848,-1
850,848,849,-1
128,868,865,-1
128,867,868,-1
867,133,901,-1
862,248,861,-1
247,862,883,-1
863,883,862,-1
864,866,868,-1
133,903,901,-1
865,868,866,-1
864,868,889,-1
869,889,868,-1
870,902,904,-1
247,883,881,-1
864,885,884,-1
864,887,885,-1
882,272,881,-1
864,889,887,-1
870,917,890,-1
870,919,917,-1
885,888,886,-1
888,885,887,-1
903,779,907,-1
901,904,902,-1
904,901,903,-1
870,904,921,-1
905,921,904,-1
922,906,908,-1
808,908,907,-1
870,921,919,-1
917,920,918,-1
920,917,919,-1
273,882,934,-1
933,273,934,-1
886,934,882,-1
934,886,936,-1
955,355,933,-1
958,935,937,-1
886,888,936,-1
918,936,888,-1
918,939,936,-1
918,943,939,-1
959,937,938,-1
959,938,940,-1
958,937,959,-1
966,957,959,-1
966,961,957,-1
961,966,963,-1
962,370,960,-1
964,371,370,-1
964,370,962,-1
959,940,941,-1
959,941,942,-1
959,942,966,-1
967,965,966,-1
971,967,972,-1
963,966,965,-1
965,967,968,-1
968,967,970,-1
970,967,973,-1
973,967,976,-1
976,967,971,-1
973,976,974,-1
918,920,1001,-1
918,1001,943,-1
1001,920,924,-1
1002,943,1001,-1
1005,1008,1006,-1
1008,1005,1007,-1
943,1002,1022,-1
1003,1022,1002,-1
943,1022,967,-1
1004,1006,1017,-1
1017,1006,1026,-1
1019,1027,1018,-1
967,1020,972,-1
1022,1020,967,-1
972,1020,977,-1
1024,1023,1018,-1
1035,1024,1018,-1
1026,1006,1028,-1
1006,1008,1028,-1
1027,1029,1018,-1
1029,1030,1018,-1
1030,1033,1018,-1
1028,1008,1031,-1
1065,1031,1008,-1
1031,1065,1032,-1
1033,1034,1018,-1
1034,1036,1018,-1
1036,1035,1018,-1
1032,1077,1037,-1
1037,1039,1038,-1
1040,1038,1039,-1
1039,1037,1077,-1
922,908,843,-1
922,848,923,-1
923,850,924,-1
922,843,846,-1
922,846,848,-1
1001,924,1106,-1
923,848,850,-1
1106,924,850,-1
1111,1005,1001,-1
1111,1007,1005,-1
1067,1069,1068,-1
1068,1078,1066,-1
1032,1065,1077,-1
1078,1068,1069,-1
1080,1081,1079,-1
1082,1079,1081,-1
1080,1083,1081,-1
1070,1093,1084,-1
1111,795,791,-1
1111,797,795,-1
1111,827,797,-1
1111,828,827,-1
1111,832,828,-1
1111,1097,832,-1
1111,1098,1097,-1
1111,1105,1098,-1
1098,1105,1104,-1
1099,1103,849,-1
1111,1001,1106,-1
1111,1106,1105,-1
1111,1067,1007,-1
1111,1069,1067,-1
1111,1070,1069,-1
1111,1093,1070,-1
1111,1094,1093,-1
1111,1278,1094,-1
1111,1327,1278,-1
1111,1328,1327,-1
1111,1475,1328,-1
1111,1476,1475,-1
969,600,964,-1
975,600,969,-1
977,600,975,-1
977,1020,600,-1
1020,603,600,-1
1020,604,603,-1
1021,1115,604,-1
1021,604,1020,-1
1021,1123,1115,-1
1021,1126,1123,-1
1021,1129,1126,-1
1114,604,1115,-1
1113,604,1114,-1
1117,1133,1118,-1
1118,1133,1120,-1
1120,1133,1122,-1
1122,1133,1200,-1
1116,1133,1117,-1
1124,1133,1116,-1
1125,1134,1124,-1
1127,1134,1125,-1
1128,1134,1127,-1
1130,1134,1128,-1
1124,1134,1133,-1
1130,1131,1134,-1
1132,1235,1131,-1
1131,1235,1134,-1
1025,1157,1021,-1
1038,1157,1025,-1
1021,1157,1129,-1
1038,1040,1157,-1
1079,1164,1040,-1
1040,1164,1157,-1
1158,1129,1157,-1
1129,1158,1159,-1
1160,1165,1161,-1
1161,1165,1168,-1
1129,1237,1132,-1
1129,1159,1237,-1
1237,1235,1132,-1
1163,1169,1162,-1
1239,1238,1162,-1
1241,1239,1162,-1
1164,1167,1165,-1
1168,1165,1170,-1
1165,1167,1170,-1
1167,1164,1166,-1
1170,1167,1175,-1
1273,1175,1167,-1
1169,1171,1162,-1
1171,1172,1162,-1
1172,1173,1162,-1
1173,1174,1162,-1
1242,1241,1162,-1
1174,1242,1162,-1
1175,1273,1176,-1
1176,1273,1177,-1
1199,653,1121,-1
653,1199,654,-1
1201,654,1199,-1
1204,654,1201,-1
637,1204,1208,-1
637,1208,1210,-1
637,1210,1235,-1
1200,1133,1202,-1
1202,1133,1203,-1
1203,1133,1205,-1
1205,1133,1206,-1
1209,1206,1133,-1
1209,1207,1206,-1
1236,664,1235,-1
664,1236,1223,-1
1225,1355,1224,-1
1223,1236,1257,-1
1223,1227,1225,-1
1226,1225,1227,-1
1225,1226,1355,-1
1227,1223,1257,-1
1134,1235,1210,-1
1177,1244,1243,-1
1244,1177,1287,-1
1245,1243,1244,-1
1240,1306,1236,-1
1243,1306,1240,-1
1257,1236,1260,-1
1260,1236,1261,-1
1261,1236,1301,-1
1306,1301,1236,-1
1262,1389,1259,-1
1263,1390,1262,-1
1264,1390,1263,-1
1079,1082,1164,-1
1082,1166,1164,-1
1082,1275,1166,-1
1094,1277,1082,-1
1082,1277,1275,-1
1094,1278,1277,-1
1276,1288,1274,-1
1288,1276,1277,-1
1273,1287,1177,-1
1275,1277,1276,-1
1279,1290,1289,-1
1279,1292,1290,-1
1278,1327,1293,-1
1243,1245,1306,-1
1289,1306,1245,-1
1291,1289,1290,-1
1306,1289,1291,-1
1328,1307,1291,-1
1328,1331,1307,-1
1302,1390,1264,-1
1301,1306,1309,-1
1301,1309,1305,-1
1310,1305,1309,-1
1306,1291,1307,-1
1312,1308,1311,-1
1313,1308,1312,-1
1308,1313,1310,-1
1333,1310,1313,-1
1334,1310,1333,-1
1305,1310,1337,-1
1331,1328,1332,-1
1332,1328,1339,-1
1335,1310,1334,-1
1336,1310,1335,-1
1424,1305,1337,-1
1337,1310,1336,-1
1328,1338,1339,-1
1342,1340,1339,-1
1342,1339,1338,-1
1340,1342,1468,-1
1340,1468,1341,-1
439,1535,1112,-1
1224,1364,1363,-1
1224,1357,1364,-1
1224,1355,1357,-1
1364,1366,1365,-1
1366,1364,1357,-1
1373,1365,1366,-1
1258,1389,1228,-1
1228,1389,1356,-1
1356,1389,1358,-1
1358,1389,1371,-1
1259,1389,1258,-1
1262,1390,1389,-1
1371,1389,1374,-1
1377,1365,1373,-1
1374,1389,1375,-1
1375,1389,1376,-1
1376,1389,1378,-1
1378,1401,1379,-1
1535,691,696,-1
1303,1390,1302,-1
1303,1304,1390,-1
1305,1390,1304,-1
1305,1391,1390,-1
1391,1305,1421,-1
1421,1305,1426,-1
1426,1305,1425,-1
1390,1392,1393,-1
1392,1390,1391,-1
1393,1392,1394,-1
1422,1394,1392,-1
1401,1378,1389,-1
1390,1403,1402,-1
1403,1390,1393,-1
1394,1406,1405,-1
1406,1394,1407,-1
1407,1394,1408,-1
1408,1394,1455,-1
1455,1394,1456,-1
1425,1305,1424,-1
1423,1427,1428,-1
1429,1394,1422,-1
1430,1394,1429,-1
1431,1394,1430,-1
1432,1394,1431,-1
1459,1394,1432,-1
1434,1428,1427,-1
1434,1435,1428,-1
1341,1479,1433,-1
1433,1482,1434,-1
1435,1434,1482,-1
1435,1482,1436,-1
1436,1480,1437,-1
1480,1436,1481,-1
1456,1394,1458,-1
1458,1394,1459,-1
1437,1505,1460,-1
1505,1437,1480,-1
1535,696,723,-1
1535,723,1365,-1
1535,1365,1377,-1
1535,1377,1380,-1
1111,1112,1535,-1
1338,1328,1475,-1
1479,1341,1468,-1
1467,1476,1469,-1
1469,1476,1470,-1
1470,1476,1483,-1
1483,1476,1485,-1
1111,1535,1476,-1
1433,1479,1482,-1
1484,1436,1482,-1
1436,1488,1481,-1
1487,1436,1484,-1
1488,1436,1487,-1
1489,1481,1488,-1
1490,1481,1489,-1
1481,1504,1503,-1
1504,1481,1506,-1
1506,1481,1507,-1
1507,1481,1508,-1
1508,1481,1512,-1
1511,1481,1490,-1
1512,1481,1511,-1
1535,1485,1476,-1
1535,1486,1485,-1
1535,1527,1486,-1
1535,1380,1402,-1
1535,1402,1403,-1
1535,1403,1404,-1
1535,1404,1409,-1
1535,1409,1410,-1
1535,1410,1457,-1
1535,1457,1460,-1
1535,1460,1505,-1
1535,1505,1509,-1
1535,1509,1510,-1
1535,1510,1513,-1
1535,1514,1533,-1
1535,1513,1514,-1
1535,1528,1527,-1
1535,1529,1528,-1
1535,1533,1529,-1
4,3,2,-1
4,5,3,-1
10,7,6,-1
12,6,8,-1
11,29,7,-1
10,11,7,-1
10,6,12,-1
10,12,11,-1
12,8,25,-1
12,25,13,-1
11,40,29,-1
11,12,13,-1
11,13,40,-1
5,14,3,-1
21,18,14,-1
23,2,16,-1
22,17,15,-1
24,16,17,-1
5,21,14,-1
4,2,23,-1
4,21,5,-1
4,23,21,-1
21,22,25,-1
22,15,26,-1
22,24,17,-1
23,16,24,-1
21,23,22,-1
22,23,24,-1
25,8,18,-1
26,15,19,-1
27,32,20,-1
21,25,18,-1
25,22,26,-1
25,26,27,-1
27,20,13,-1
25,27,13,-1
26,19,44,-1
27,26,43,-1
13,20,9,-1
39,9,28,-1
40,28,29,-1
41,31,30,-1
43,30,32,-1
13,9,39,-1
39,28,40,-1
13,39,40,-1
27,43,32,-1
26,44,43,-1
41,42,31,-1
41,30,43,-1
41,43,42,-1
44,19,33,-1
42,35,31,-1
45,33,34,-1
46,34,35,-1
47,37,36,-1
49,36,38,-1
48,70,37,-1
44,33,45,-1
42,46,35,-1
45,34,46,-1
42,43,44,-1
42,44,46,-1
44,45,46,-1
47,48,37,-1
47,36,49,-1
47,49,48,-1
48,49,79,-1
59,51,50,-1
60,52,51,-1
61,54,52,-1
66,50,57,-1
62,58,53,-1
59,60,51,-1
60,61,52,-1
59,61,60,-1
59,50,66,-1
62,53,64,-1
59,66,61,-1
61,62,63,-1
61,66,62,-1
63,38,54,-1
64,53,55,-1
65,73,56,-1
61,63,54,-1
63,64,65,-1
63,62,64,-1
65,56,79,-1
63,65,79,-1
67,57,58,-1
62,67,58,-1
66,57,67,-1
62,66,67,-1
64,55,85,-1
65,64,84,-1
79,56,68,-1
80,68,69,-1
81,69,70,-1
63,49,38,-1
63,79,49,-1
48,81,70,-1
79,68,80,-1
80,69,81,-1
48,79,81,-1
79,80,81,-1
85,55,74,-1
82,72,71,-1
84,71,73,-1
83,77,72,-1
86,74,75,-1
88,75,77,-1
87,78,76,-1
108,76,102,-1
65,84,73,-1
64,85,84,-1
82,83,72,-1
82,71,84,-1
82,84,83,-1
83,84,85,-1
83,85,88,-1
85,74,86,-1
83,88,77,-1
86,75,88,-1
87,89,78,-1
87,76,108,-1
85,86,88,-1
87,108,89,-1
97,90,91,-1
96,90,97,-1
96,102,90,-1
108,102,96,-1
97,91,101,-1
108,96,97,-1
108,97,98,-1
109,98,92,-1
100,93,94,-1
99,93,100,-1
101,91,95,-1
98,106,92,-1
99,95,93,-1
97,101,98,-1
98,101,112,-1
99,101,95,-1
99,118,101,-1
113,118,114,-1
101,118,112,-1
89,105,78,-1
109,92,103,-1
110,103,104,-1
111,104,105,-1
108,98,109,-1
109,103,110,-1
89,111,105,-1
89,108,109,-1
89,109,111,-1
110,104,111,-1
109,110,111,-1
112,107,106,-1
113,114,107,-1
98,112,106,-1
112,113,107,-1
112,118,113,-1
118,124,114,-1
137,94,125,-1
100,94,137,-1
99,100,137,-1
99,137,118,-1
120,115,116,-1
119,115,120,-1
119,130,115,-1
142,130,119,-1
120,116,739,-1
142,119,120,-1
142,120,121,-1
143,121,117,-1
134,123,122,-1
136,122,124,-1
135,128,123,-1
138,125,126,-1
139,129,127,-1
140,126,128,-1
142,127,130,-1
118,136,124,-1
118,137,136,-1
134,135,123,-1
134,122,136,-1
134,136,135,-1
135,136,137,-1
135,140,128,-1
137,125,138,-1
139,141,129,-1
138,126,140,-1
139,127,142,-1
135,137,140,-1
137,138,140,-1
139,142,141,-1
141,133,129,-1
143,117,131,-1
144,131,132,-1
145,132,133,-1
142,121,143,-1
143,131,144,-1
141,145,133,-1
141,142,143,-1
141,143,145,-1
144,132,145,-1
143,144,145,-1
147,174,146,-1
192,147,146,-1
147,196,174,-1
160,148,149,-1
193,150,171,-1
162,149,151,-1
161,152,150,-1
160,159,148,-1
160,193,159,-1
160,149,162,-1
193,161,150,-1
161,163,152,-1
160,161,193,-1
160,162,161,-1
161,162,163,-1
163,153,152,-1
165,151,154,-1
164,155,153,-1
166,156,155,-1
167,157,156,-1
169,154,158,-1
162,151,165,-1
163,164,153,-1
164,166,155,-1
166,167,156,-1
162,165,164,-1
162,164,163,-1
164,165,166,-1
165,167,166,-1
165,154,169,-1
167,168,157,-1
169,158,203,-1
165,169,167,-1
169,168,167,-1
159,170,148,-1
192,146,170,-1
194,171,172,-1
195,172,173,-1
192,170,159,-1
194,193,171,-1
194,172,195,-1
192,159,194,-1
192,194,195,-1
159,193,194,-1
195,173,197,-1
192,195,147,-1
147,195,196,-1
196,177,174,-1
197,173,175,-1
198,175,176,-1
199,178,177,-1
201,176,179,-1
200,184,178,-1
204,179,182,-1
196,199,177,-1
197,175,198,-1
196,195,197,-1
196,197,199,-1
197,198,199,-1
199,200,178,-1
199,198,200,-1
198,176,201,-1
201,179,204,-1
200,206,184,-1
198,201,200,-1
200,201,206,-1
201,204,206,-1
168,180,157,-1
202,181,180,-1
203,158,181,-1
168,202,180,-1
202,203,181,-1
169,203,168,-1
168,203,202,-1
205,182,183,-1
206,187,184,-1
207,183,185,-1
208,185,186,-1
209,191,187,-1
210,190,188,-1
211,188,189,-1
212,186,190,-1
213,189,191,-1
204,182,205,-1
205,183,207,-1
207,185,208,-1
206,209,187,-1
204,205,206,-1
205,209,206,-1
205,207,209,-1
207,208,209,-1
210,212,190,-1
210,188,211,-1
211,189,213,-1
210,211,212,-1
212,208,186,-1
209,213,191,-1
209,208,213,-1
212,213,208,-1
211,213,212,-1
220,215,214,-1
220,221,215,-1
221,216,215,-1
224,214,218,-1
222,228,216,-1
223,219,217,-1
225,218,219,-1
220,214,224,-1
221,222,216,-1
220,222,221,-1
220,224,222,-1
224,223,222,-1
222,223,234,-1
223,225,219,-1
224,218,225,-1
224,225,223,-1
223,217,235,-1
232,227,226,-1
232,233,227,-1
235,217,229,-1
222,234,228,-1
223,235,234,-1
234,226,228,-1
233,231,227,-1
236,229,230,-1
237,230,231,-1
232,226,234,-1
233,237,231,-1
232,234,233,-1
233,234,237,-1
234,235,237,-1
235,229,236,-1
236,230,237,-1
235,236,237,-1
250,239,238,-1
251,240,239,-1
252,264,240,-1
254,238,242,-1
253,243,241,-1
255,242,243,-1
250,251,239,-1
251,252,240,-1
250,238,254,-1
250,252,251,-1
250,253,252,-1
250,254,253,-1
252,253,276,-1
253,255,243,-1
254,242,255,-1
254,255,253,-1
253,241,277,-1
256,245,244,-1
257,246,245,-1
258,270,246,-1
260,244,248,-1
259,249,247,-1
261,248,249,-1
256,257,245,-1
257,258,246,-1
256,244,260,-1
256,258,257,-1
256,260,258,-1
258,259,282,-1
259,261,249,-1
260,248,261,-1
258,260,259,-1
260,261,259,-1
259,247,283,-1
277,241,265,-1
252,276,264,-1
253,277,276,-1
274,263,262,-1
276,262,264,-1
275,267,263,-1
278,265,266,-1
279,266,267,-1
274,275,263,-1
276,274,262,-1
276,275,274,-1
276,277,275,-1
275,277,279,-1
275,279,267,-1
277,265,278,-1
278,266,279,-1
277,278,279,-1
283,247,271,-1
258,282,270,-1
259,283,282,-1
280,269,268,-1
282,268,270,-1
281,273,269,-1
284,271,272,-1
285,272,273,-1
280,281,269,-1
280,268,282,-1
280,282,281,-1
281,282,283,-1
281,285,273,-1
283,271,284,-1
284,272,285,-1
281,283,285,-1
283,284,285,-1
294,287,286,-1
295,288,287,-1
298,286,290,-1
297,291,289,-1
299,290,291,-1
294,295,287,-1
295,296,288,-1
294,286,298,-1
294,296,295,-1
294,297,296,-1
298,290,299,-1
297,299,291,-1
294,298,297,-1
297,298,299,-1
300,293,292,-1
301,350,293,-1
300,301,293,-1
301,356,350,-1
300,356,301,-1
296,309,288,-1
326,289,302,-1
327,305,303,-1
328,302,304,-1
329,306,305,-1
296,297,326,-1
296,326,327,-1
296,327,333,-1
297,289,326,-1
326,302,328,-1
327,329,305,-1
327,303,334,-1
328,304,338,-1
329,330,306,-1
326,329,327,-1
326,328,329,-1
328,330,329,-1
328,338,330,-1
331,308,307,-1
333,307,309,-1
332,313,308,-1
334,303,310,-1
335,310,311,-1
336,311,312,-1
296,333,309,-1
333,327,334,-1
331,307,333,-1
331,332,308,-1
331,333,332,-1
332,333,337,-1
334,310,335,-1
332,337,313,-1
335,311,336,-1
333,334,337,-1
334,335,337,-1
335,336,337,-1
338,304,314,-1
330,315,306,-1
339,316,315,-1
341,314,317,-1
342,317,318,-1
338,314,341,-1
330,339,315,-1
339,340,316,-1
341,317,342,-1
338,339,330,-1
338,341,339,-1
339,341,340,-1
340,341,342,-1
342,318,347,-1
343,321,319,-1
340,320,316,-1
344,319,320,-1
346,323,322,-1
345,312,321,-1
337,322,313,-1
347,318,323,-1
348,325,324,-1
372,324,362,-1
343,345,321,-1
340,344,320,-1
344,343,319,-1
340,342,344,-1
342,347,344,-1
344,347,343,-1
343,347,346,-1
345,336,312,-1
337,346,322,-1
337,336,346,-1
345,346,336,-1
343,346,345,-1
347,323,346,-1
348,324,372,-1
348,349,325,-1
348,372,349,-1
358,292,352,-1
357,353,351,-1
359,352,353,-1
300,292,358,-1
357,359,353,-1
300,358,356,-1
356,358,357,-1
357,358,359,-1
358,352,359,-1
361,354,355,-1
360,354,361,-1
356,372,350,-1
357,351,373,-1
356,357,373,-1
360,373,363,-1
372,362,350,-1
373,351,363,-1
349,364,325,-1
374,365,364,-1
356,373,372,-1
349,374,364,-1
372,373,374,-1
349,372,374,-1
373,375,374,-1
360,363,354,-1
375,368,365,-1
360,361,373,-1
374,375,365,-1
361,375,373,-1
361,355,379,-1
361,379,375,-1
376,367,366,-1
378,366,368,-1
377,371,367,-1
379,355,369,-1
380,369,370,-1
381,370,371,-1
375,378,368,-1
376,377,367,-1
376,366,378,-1
376,378,377,-1
377,378,379,-1
375,379,378,-1
379,369,380,-1
377,381,371,-1
380,370,381,-1
377,379,381,-1
379,380,381,-1
385,384,383,-1
385,386,384,-1
385,395,386,-1
386,388,384,-1
386,395,388,-1
394,383,387,-1
397,387,390,-1
385,383,394,-1
385,394,395,-1
394,387,397,-1
396,394,397,-1
396,390,389,-1
395,394,396,-1
396,397,390,-1
399,391,392,-1
398,391,399,-1
398,471,391,-1
398,399,474,-1
405,427,402,-1
406,402,403,-1
404,403,401,-1
404,401,417,-1
406,405,402,-1
405,433,427,-1
406,403,404,-1
417,401,407,-1
418,407,408,-1
419,408,409,-1
420,409,410,-1
421,410,411,-1
417,407,418,-1
418,408,419,-1
419,409,420,-1
420,410,421,-1
417,418,461,-1
406,404,461,-1
404,417,461,-1
418,419,461,-1
422,411,412,-1
423,412,413,-1
424,413,414,-1
425,414,415,-1
426,415,416,-1
458,416,445,-1
421,411,422,-1
422,412,423,-1
423,413,424,-1
420,421,424,-1
421,422,423,-1
421,423,424,-1
420,424,425,-1
419,420,459,-1
420,425,426,-1
420,426,458,-1
420,458,459,-1
419,459,461,-1
424,414,425,-1
425,415,426,-1
426,416,458,-1
433,428,427,-1
434,429,428,-1
435,430,429,-1
436,431,430,-1
437,432,431,-1
433,434,428,-1
434,435,429,-1
435,436,430,-1
436,437,431,-1
434,438,435,-1
435,437,436,-1
435,438,437,-1
434,453,438,-1
438,440,432,-1
437,438,432,-1
406,461,405,-1
405,461,433,-1
433,465,434,-1
434,454,453,-1
434,464,463,-1
433,460,465,-1
434,465,464,-1
453,441,440,-1
454,442,441,-1
455,443,442,-1
456,444,443,-1
438,453,440,-1
453,454,441,-1
454,455,442,-1
434,455,454,-1
434,456,455,-1
434,457,456,-1
455,456,443,-1
456,457,444,-1
434,463,457,-1
459,445,446,-1
461,446,448,-1
460,449,447,-1
462,448,449,-1
433,461,462,-1
433,462,460,-1
458,445,459,-1
459,446,461,-1
460,462,449,-1
460,447,465,-1
461,448,462,-1
457,450,444,-1
463,451,450,-1
464,452,451,-1
465,447,452,-1
457,463,450,-1
464,465,452,-1
463,464,451,-1
468,467,466,-1
473,466,470,-1
469,472,467,-1
468,466,473,-1
468,473,469,-1
468,469,467,-1
395,473,388,-1
396,389,474,-1
395,396,474,-1
473,470,388,-1
474,389,471,-1
395,474,473,-1
398,474,471,-1
474,399,400,-1
475,400,393,-1
475,393,472,-1
474,400,475,-1
474,475,473,-1
469,475,472,-1
469,473,475,-1
477,485,476,-1
500,477,476,-1
477,506,485,-1
503,478,482,-1
499,479,478,-1
502,480,481,-1
508,482,487,-1
504,488,483,-1
501,483,480,-1
503,499,478,-1
503,501,499,-1
500,479,499,-1
502,501,480,-1
500,499,502,-1
499,501,502,-1
503,482,508,-1
504,483,501,-1
504,509,488,-1
503,504,501,-1
503,508,504,-1
504,508,509,-1
500,476,479,-1
505,481,484,-1
506,528,485,-1
507,484,486,-1
541,486,529,-1
502,481,505,-1
505,484,507,-1
500,505,477,-1
500,502,505,-1
477,505,506,-1
506,540,528,-1
507,486,541,-1
506,505,507,-1
506,507,540,-1
507,541,540,-1
509,489,488,-1
512,487,491,-1
510,490,489,-1
511,492,490,-1
513,494,492,-1
514,491,493,-1
515,495,494,-1
516,496,495,-1
517,493,496,-1
508,487,512,-1
509,510,489,-1
510,511,490,-1
511,513,492,-1
508,510,509,-1
508,512,510,-1
510,512,511,-1
512,513,511,-1
512,491,514,-1
512,514,513,-1
513,514,515,-1
513,515,494,-1
515,516,495,-1
516,517,496,-1
514,493,517,-1
514,517,515,-1
515,517,516,-1
518,538,497,-1
519,497,498,-1
518,497,519,-1
518,519,550,-1
524,521,520,-1
524,525,521,-1
399,392,673,-1
554,520,552,-1
524,520,554,-1
524,526,525,-1
524,554,526,-1
525,522,521,-1
525,526,522,-1
526,554,527,-1
540,531,528,-1
542,529,530,-1
543,533,531,-1
544,530,532,-1
540,543,531,-1
541,543,540,-1
541,529,542,-1
542,530,544,-1
543,545,533,-1
541,542,543,-1
543,542,545,-1
542,544,545,-1
546,532,534,-1
545,537,533,-1
547,534,535,-1
548,535,536,-1
549,539,537,-1
550,536,538,-1
551,498,539,-1
546,534,547,-1
544,532,546,-1
547,535,548,-1
545,549,537,-1
545,544,546,-1
545,546,549,-1
546,547,549,-1
547,548,549,-1
518,550,538,-1
548,536,550,-1
519,498,551,-1
549,551,539,-1
548,550,551,-1
519,551,550,-1
549,548,551,-1
555,552,553,-1
554,552,555,-1
527,554,555,-1
527,553,523,-1
527,555,553,-1
577,557,556,-1
578,558,557,-1
581,556,560,-1
580,561,559,-1
582,560,561,-1
583,559,562,-1
577,578,557,-1
578,579,558,-1
577,556,581,-1
577,579,578,-1
577,580,579,-1
579,580,583,-1
579,583,584,-1
580,582,561,-1
581,560,582,-1
577,581,580,-1
580,581,582,-1
580,559,583,-1
625,614,558,-1
584,565,563,-1
585,562,564,-1
586,566,565,-1
626,563,615,-1
579,625,558,-1
579,584,625,-1
584,626,625,-1
583,562,585,-1
584,586,565,-1
585,564,590,-1
586,587,566,-1
583,586,584,-1
583,585,586,-1
586,585,587,-1
585,590,587,-1
584,563,626,-1
588,568,567,-1
589,598,568,-1
588,589,568,-1
589,605,598,-1
588,605,589,-1
590,564,569,-1
587,570,566,-1
591,572,570,-1
592,569,571,-1
596,571,575,-1
593,574,572,-1
595,573,574,-1
597,575,576,-1
590,569,592,-1
587,591,570,-1
591,593,572,-1
592,571,596,-1
587,590,591,-1
590,592,591,-1
591,592,593,-1
592,596,593,-1
593,595,574,-1
595,594,573,-1
593,596,595,-1
596,597,595,-1
595,597,594,-1
594,597,631,-1
596,575,597,-1
597,576,631,-1
607,567,600,-1
606,601,599,-1
608,600,601,-1
588,567,607,-1
606,608,601,-1
588,607,605,-1
605,607,606,-1
606,607,608,-1
606,599,656,-1
605,606,656,-1
607,600,608,-1
655,646,598,-1
656,599,647,-1
657,602,648,-1
605,655,598,-1
605,656,655,-1
610,656,647,-1
609,657,656,-1
610,647,603,-1
611,603,604,-1
610,611,656,-1
610,603,611,-1
611,604,661,-1
609,651,602,-1
661,604,652,-1
609,602,657,-1
611,609,656,-1
609,660,651,-1
611,661,609,-1
609,661,660,-1
623,613,612,-1
625,612,614,-1
624,618,613,-1
627,615,616,-1
628,616,617,-1
623,624,613,-1
623,612,625,-1
623,625,624,-1
624,625,629,-1
626,615,627,-1
624,629,618,-1
627,616,628,-1
625,626,629,-1
626,627,629,-1
627,628,629,-1
630,617,619,-1
594,619,573,-1
629,620,618,-1
631,576,620,-1
632,622,621,-1
655,621,646,-1
628,617,630,-1
594,630,619,-1
629,631,620,-1
628,630,631,-1
629,628,631,-1
594,631,630,-1
632,633,622,-1
632,621,655,-1
632,655,633,-1
640,635,634,-1
640,641,635,-1
640,642,641,-1
640,634,643,-1
641,636,635,-1
641,642,636,-1
640,644,642,-1
642,644,685,-1
642,685,686,-1
643,634,637,-1
645,637,639,-1
640,643,644,-1
643,637,645,-1
644,643,645,-1
644,639,638,-1
685,638,680,-1
644,638,685,-1
644,645,639,-1
633,648,622,-1
633,657,648,-1
633,655,657,-1
655,656,657,-1
658,650,649,-1
660,649,651,-1
659,654,650,-1
662,652,653,-1
663,653,654,-1
658,659,650,-1
658,649,660,-1
658,660,659,-1
659,660,661,-1
661,652,662,-1
659,663,654,-1
662,653,663,-1
659,661,663,-1
661,662,663,-1
667,665,664,-1
667,668,665,-1
667,669,668,-1
667,664,1229,-1
667,1229,669,-1
668,666,665,-1
668,669,666,-1
400,671,393,-1
399,673,400,-1
673,392,670,-1
400,673,674,-1
400,674,671,-1
526,670,522,-1
527,523,675,-1
526,527,673,-1
675,523,672,-1
526,673,670,-1
527,674,673,-1
527,675,674,-1
674,677,671,-1
674,679,677,-1
674,675,679,-1
678,672,676,-1
679,676,677,-1
675,672,678,-1
678,676,679,-1
675,678,679,-1
642,692,636,-1
642,686,699,-1
642,699,692,-1
686,700,699,-1
688,680,683,-1
686,682,681,-1
712,683,704,-1
687,684,682,-1
689,705,684,-1
685,680,688,-1
685,687,686,-1
685,688,687,-1
686,687,682,-1
688,683,712,-1
688,712,689,-1
687,689,684,-1
687,688,689,-1
700,681,693,-1
686,681,700,-1
697,691,690,-1
699,690,692,-1
698,696,691,-1
697,690,699,-1
697,699,698,-1
697,698,691,-1
698,699,703,-1
701,693,694,-1
702,694,695,-1
700,693,701,-1
699,700,703,-1
700,701,703,-1
698,703,696,-1
702,701,694,-1
702,695,725,-1
702,703,701,-1
702,726,703,-1
703,726,696,-1
713,708,705,-1
714,704,706,-1
715,706,707,-1
712,704,714,-1
689,713,705,-1
713,716,708,-1
689,712,713,-1
712,714,713,-1
714,716,713,-1
714,706,715,-1
714,715,716,-1
716,709,708,-1
718,720,710,-1
717,710,709,-1
719,707,711,-1
716,717,709,-1
716,715,717,-1
717,718,710,-1
715,707,719,-1
717,715,719,-1
719,711,726,-1
717,719,718,-1
718,719,726,-1
669,724,666,-1
669,1230,729,-1
669,729,724,-1
725,695,720,-1
726,721,696,-1
726,711,721,-1
718,725,720,-1
702,725,726,-1
718,726,725,-1
727,723,722,-1
729,722,724,-1
728,1365,723,-1
727,722,729,-1
727,729,728,-1
727,728,723,-1
728,729,1367,-1
738,731,732,-1
737,731,738,-1
739,116,733,-1
121,743,117,-1
737,733,731,-1
120,739,121,-1
121,739,753,-1
737,739,733,-1
737,742,739,-1
754,742,736,-1
739,742,753,-1
740,735,734,-1
740,741,735,-1
742,747,736,-1
758,732,748,-1
738,732,758,-1
737,738,758,-1
737,758,742,-1
753,744,743,-1
754,736,744,-1
121,753,743,-1
753,754,744,-1
753,742,754,-1
755,746,745,-1
757,745,747,-1
756,750,746,-1
759,748,749,-1
760,749,750,-1
761,752,751,-1
742,757,747,-1
742,758,757,-1
755,756,746,-1
755,745,757,-1
755,757,756,-1
756,757,758,-1
756,760,750,-1
758,748,759,-1
759,749,760,-1
761,762,752,-1
756,758,760,-1
758,759,760,-1
741,763,735,-1
772,734,765,-1
771,766,764,-1
773,765,766,-1
741,770,763,-1
740,734,772,-1
740,770,741,-1
740,772,770,-1
770,772,771,-1
771,773,766,-1
772,765,773,-1
771,772,773,-1
770,778,763,-1
784,764,777,-1
771,764,784,-1
770,771,784,-1
770,785,778,-1
770,784,785,-1
784,777,774,-1
775,767,768,-1
774,767,775,-1
774,777,767,-1
776,782,769,-1
790,768,783,-1
784,774,775,-1
784,775,776,-1
776,769,786,-1
775,768,790,-1
776,775,790,-1
785,751,778,-1
762,779,752,-1
786,769,779,-1
761,751,785,-1
762,786,779,-1
761,785,762,-1
762,785,786,-1
784,786,785,-1
784,776,786,-1
787,781,780,-1
789,780,782,-1
788,808,781,-1
817,783,807,-1
787,788,781,-1
787,780,789,-1
787,789,788,-1
776,789,782,-1
776,790,789,-1
788,818,808,-1
790,783,817,-1
788,789,790,-1
788,790,818,-1
790,817,818,-1
799,792,791,-1
800,793,792,-1
803,791,795,-1
802,796,794,-1
804,795,796,-1
799,800,792,-1
799,791,803,-1
800,801,793,-1
799,801,800,-1
802,804,796,-1
803,795,804,-1
799,803,801,-1
801,803,802,-1
802,803,804,-1
801,812,793,-1
821,794,811,-1
802,794,821,-1
801,802,821,-1
801,822,812,-1
801,821,822,-1
805,797,834,-1
805,811,797,-1
806,816,798,-1
821,811,805,-1
821,805,834,-1
821,834,806,-1
823,806,798,-1
818,807,808,-1
819,810,809,-1
822,809,812,-1
820,813,810,-1
817,807,818,-1
819,820,810,-1
819,809,822,-1
819,822,820,-1
820,823,813,-1
820,822,823,-1
821,823,822,-1
823,798,813,-1
824,815,814,-1
826,814,816,-1
825,843,815,-1
821,806,823,-1
806,826,816,-1
806,851,826,-1
824,825,815,-1
824,814,826,-1
824,826,825,-1
825,826,851,-1
834,797,827,-1
835,829,828,-1
836,830,829,-1
839,828,832,-1
835,836,829,-1
836,837,830,-1
835,828,839,-1
835,837,836,-1
835,839,837,-1
837,839,838,-1
851,827,841,-1
837,847,830,-1
854,831,844,-1
834,827,851,-1
806,834,851,-1
838,831,854,-1
837,838,854,-1
837,857,847,-1
837,854,857,-1
838,833,831,-1
840,832,833,-1
839,832,840,-1
838,840,833,-1
838,839,840,-1
1100,844,1097,-1
854,844,1100,-1
854,1100,1101,-1
854,1101,1102,-1
858,1102,1099,-1
852,841,842,-1
853,842,843,-1
855,846,845,-1
857,845,847,-1
856,848,846,-1
851,841,852,-1
825,853,843,-1
852,842,853,-1
825,851,853,-1
851,852,853,-1
855,856,846,-1
855,845,857,-1
856,858,848,-1
855,857,856,-1
856,857,858,-1
854,858,857,-1
858,1099,848,-1
859,850,849,-1
854,1102,858,-1
859,860,850,-1
871,862,861,-1
872,863,862,-1
873,883,863,-1
875,861,865,-1
876,865,866,-1
874,866,864,-1
871,872,862,-1
871,861,875,-1
872,873,863,-1
871,873,872,-1
871,875,873,-1
873,874,893,-1
874,876,866,-1
875,865,876,-1
875,874,873,-1
875,876,874,-1
874,864,894,-1
877,868,867,-1
878,869,868,-1
879,889,869,-1
909,867,901,-1
880,902,870,-1
877,878,868,-1
877,867,909,-1
878,879,869,-1
877,879,878,-1
880,910,902,-1
877,909,879,-1
909,880,879,-1
909,910,880,-1
880,870,900,-1
879,880,899,-1
894,864,884,-1
873,893,883,-1
874,894,893,-1
891,882,881,-1
893,881,883,-1
892,886,882,-1
895,884,885,-1
896,885,886,-1
891,892,882,-1
891,881,893,-1
891,893,892,-1
892,893,896,-1
892,896,886,-1
894,884,895,-1
895,885,896,-1
893,894,896,-1
894,895,896,-1
900,870,890,-1
879,899,889,-1
880,900,899,-1
897,888,887,-1
899,887,889,-1
898,918,888,-1
925,890,917,-1
897,898,888,-1
897,887,899,-1
897,899,898,-1
898,899,900,-1
898,926,918,-1
900,890,925,-1
898,900,926,-1
900,925,926,-1
910,901,902,-1
911,904,903,-1
912,905,904,-1
913,921,905,-1
915,903,907,-1
914,908,906,-1
914,906,922,-1
909,901,910,-1
911,912,904,-1
912,913,905,-1
911,913,912,-1
911,903,915,-1
914,916,908,-1
911,915,913,-1
913,915,914,-1
915,916,914,-1
913,914,929,-1
916,907,908,-1
915,907,916,-1
913,929,921,-1
914,922,930,-1
914,930,929,-1
926,917,918,-1
927,920,919,-1
929,919,921,-1
928,924,920,-1
931,922,923,-1
925,917,926,-1
927,928,920,-1
929,927,919,-1
929,928,927,-1
928,932,924,-1
930,922,931,-1
929,930,928,-1
928,930,932,-1
930,931,932,-1
932,923,924,-1
931,923,932,-1
945,933,934,-1
981,935,958,-1
946,937,935,-1
945,944,933,-1
945,934,947,-1
981,946,935,-1
945,981,944,-1
945,946,981,-1
945,947,946,-1
947,934,936,-1
950,936,939,-1
948,938,937,-1
949,940,938,-1
951,941,940,-1
952,942,941,-1
954,939,943,-1
946,948,937,-1
947,936,950,-1
948,949,938,-1
949,951,940,-1
946,947,948,-1
947,950,949,-1
947,949,948,-1
949,950,951,-1
950,939,954,-1
951,952,941,-1
952,953,942,-1
954,943,990,-1
950,952,951,-1
950,954,952,-1
954,953,952,-1
978,956,955,-1
944,955,933,-1
979,960,956,-1
980,959,957,-1
982,958,959,-1
978,955,944,-1
982,959,980,-1
978,944,982,-1
978,982,980,-1
978,979,956,-1
980,957,984,-1
978,980,979,-1
979,980,983,-1
982,981,958,-1
944,981,982,-1
984,957,961,-1
983,962,960,-1
986,961,963,-1
985,964,962,-1
988,963,965,-1
987,969,964,-1
979,983,960,-1
983,985,962,-1
983,980,984,-1
983,984,985,-1
984,961,986,-1
984,986,985,-1
986,963,988,-1
985,987,964,-1
988,965,991,-1
985,986,987,-1
986,988,987,-1
987,988,992,-1
953,966,942,-1
990,943,967,-1
989,967,966,-1
953,989,966,-1
989,990,967,-1
953,990,989,-1
954,990,953,-1
991,965,968,-1
993,968,970,-1
996,970,973,-1
992,975,969,-1
994,976,971,-1
995,971,972,-1
997,973,974,-1
999,974,976,-1
998,977,975,-1
1000,972,977,-1
987,992,969,-1
991,968,993,-1
993,970,996,-1
992,998,975,-1
988,991,992,-1
991,993,992,-1
993,996,998,-1
993,998,992,-1
994,971,995,-1
994,999,976,-1
995,972,1000,-1
994,995,999,-1
996,973,997,-1
999,997,974,-1
998,1000,977,-1
996,997,998,-1
998,997,1000,-1
995,1000,999,-1
999,1000,997,-1
1009,1002,1001,-1
1010,1003,1002,-1
1013,1001,1005,-1
1012,1006,1004,-1
1009,1010,1002,-1
1010,1011,1003,-1
1009,1011,1010,-1
1009,1012,1011,-1
1009,1001,1013,-1
1012,1014,1006,-1
1009,1013,1012,-1
1012,1013,1014,-1
1014,1005,1006,-1
1015,1008,1007,-1
1013,1005,1014,-1
1015,1016,1008,-1
1011,1022,1003,-1
1041,1004,1017,-1
1042,1019,1018,-1
1050,1017,1026,-1
1012,1004,1041,-1
1011,1012,1041,-1
1011,1041,1042,-1
1041,1017,1050,-1
1042,1043,1019,-1
1042,1018,1047,-1
1011,1042,1046,-1
1041,1043,1042,-1
1041,1050,1043,-1
1044,1021,1020,-1
1046,1020,1022,-1
1045,1025,1021,-1
1047,1018,1023,-1
1048,1023,1024,-1
1011,1046,1022,-1
1044,1045,1021,-1
1044,1020,1046,-1
1044,1046,1045,-1
1046,1042,1047,-1
1045,1049,1025,-1
1047,1023,1048,-1
1046,1047,1049,-1
1045,1046,1049,-1
1047,1048,1049,-1
1043,1027,1019,-1
1052,1026,1028,-1
1051,1029,1027,-1
1055,1028,1031,-1
1053,1030,1029,-1
1056,1031,1032,-1
1050,1026,1052,-1
1043,1051,1027,-1
1052,1028,1055,-1
1051,1053,1029,-1
1053,1054,1030,-1
1050,1051,1043,-1
1050,1052,1051,-1
1051,1052,1053,-1
1052,1055,1053,-1
1053,1055,1054,-1
1055,1031,1056,-1
1056,1032,1061,-1
1054,1055,1056,-1
1054,1033,1030,-1
1057,1034,1033,-1
1058,1036,1034,-1
1059,1024,1035,-1
1049,1038,1025,-1
1060,1035,1036,-1
1061,1032,1037,-1
1062,1037,1038,-1
1063,1040,1039,-1
1054,1057,1033,-1
1058,1060,1036,-1
1057,1058,1034,-1
1048,1024,1059,-1
1059,1035,1060,-1
1049,1062,1038,-1
1048,1059,1049,-1
1049,1059,1062,-1
1059,1060,1062,-1
1058,1062,1060,-1
1061,1037,1062,-1
1054,1056,1057,-1
1057,1056,1061,-1
1057,1061,1058,-1
1058,1061,1062,-1
1063,1064,1040,-1
1016,1065,1008,-1
1073,1007,1067,-1
1072,1068,1066,-1
1074,1067,1068,-1
1015,1007,1073,-1
1016,1071,1065,-1
1015,1071,1016,-1
1015,1073,1071,-1
1071,1073,1072,-1
1073,1067,1074,-1
1072,1074,1068,-1
1072,1073,1074,-1
1076,1069,1070,-1
1075,1069,1076,-1
1071,1085,1065,-1
1072,1066,1086,-1
1071,1072,1086,-1
1075,1086,1078,-1
1085,1077,1065,-1
1086,1066,1078,-1
1085,1039,1077,-1
1064,1079,1040,-1
1087,1080,1079,-1
1071,1086,1085,-1
1063,1039,1085,-1
1064,1087,1079,-1
1063,1085,1064,-1
1085,1086,1087,-1
1064,1085,1087,-1
1086,1088,1087,-1
1075,1078,1069,-1
1088,1083,1080,-1
1075,1076,1086,-1
1087,1088,1080,-1
1076,1088,1086,-1
1076,1070,1092,-1
1076,1092,1088,-1
1089,1082,1081,-1
1092,1070,1084,-1
1091,1081,1083,-1
1090,1094,1082,-1
1089,1081,1091,-1
1089,1090,1082,-1
1089,1091,1090,-1
1088,1091,1083,-1
1088,1092,1091,-1
1092,1084,1095,-1
1090,1096,1094,-1
1090,1091,1092,-1
1090,1092,1096,-1
1095,1084,1093,-1
1096,1093,1094,-1
1095,1093,1096,-1
1092,1095,1096,-1
1101,1097,1098,-1
1100,1097,1101,-1
1102,1103,1099,-1
1108,1098,1104,-1
1101,1098,1108,-1
1102,1101,1108,-1
1107,849,1103,-1
860,1106,850,-1
1109,1104,1105,-1
1110,1105,1106,-1
1102,1107,1103,-1
1102,1108,1107,-1
859,849,1107,-1
1108,1104,1109,-1
860,1110,1106,-1
859,1107,860,-1
860,1107,1108,-1
860,1108,1110,-1
1109,1105,1110,-1
1108,1109,1110,-1
1136,1113,1114,-1
1137,1114,1115,-1
1138,1124,1116,-1
1139,1116,1117,-1
1140,1117,1118,-1
1135,1113,1136,-1
1135,1136,1140,-1
1137,1136,1114,-1
1138,1116,1139,-1
1137,1115,1145,-1
1137,1139,1136,-1
1137,1138,1139,-1
1137,1145,1138,-1
1140,1139,1117,-1
1136,1139,1140,-1
1135,1119,1113,-1
1141,1121,1119,-1
1142,1118,1120,-1
1144,1120,1122,-1
1143,1199,1121,-1
1212,1122,1200,-1
1135,1141,1119,-1
1140,1118,1142,-1
1142,1120,1144,-1
1135,1142,1141,-1
1135,1140,1142,-1
1141,1142,1143,-1
1141,1143,1121,-1
1143,1211,1199,-1
1143,1142,1144,-1
1143,1144,1211,-1
1144,1122,1212,-1
1144,1212,1211,-1
1145,1115,1123,-1
1146,1125,1124,-1
1148,1123,1126,-1
1147,1127,1125,-1
1149,1128,1127,-1
1150,1130,1128,-1
1151,1126,1129,-1
1152,1131,1130,-1
1154,1129,1132,-1
1153,1132,1131,-1
1138,1146,1124,-1
1145,1123,1148,-1
1146,1147,1125,-1
1147,1149,1127,-1
1138,1145,1146,-1
1145,1147,1146,-1
1145,1148,1147,-1
1147,1148,1149,-1
1148,1126,1151,-1
1149,1150,1128,-1
1148,1150,1149,-1
1148,1151,1150,-1
1150,1151,1152,-1
1150,1152,1130,-1
1152,1153,1131,-1
1151,1129,1154,-1
1153,1154,1132,-1
1152,1154,1153,-1
1151,1154,1152,-1
1155,1209,1133,-1
1156,1133,1134,-1
1155,1133,1156,-1
1155,1156,1221,-1
1178,1158,1157,-1
1179,1159,1158,-1
1185,1157,1164,-1
1181,1165,1160,-1
1182,1160,1161,-1
1178,1179,1158,-1
1179,1180,1159,-1
1178,1180,1179,-1
1178,1181,1180,-1
1178,1157,1185,-1
1181,1186,1165,-1
1178,1185,1181,-1
1181,1185,1186,-1
1181,1160,1182,-1
1180,1181,1182,-1
1180,1182,1183,-1
1180,1237,1159,-1
1183,1163,1162,-1
1189,1161,1168,-1
1249,1162,1238,-1
1180,1248,1237,-1
1182,1161,1189,-1
1183,1184,1163,-1
1180,1183,1248,-1
1182,1184,1183,-1
1182,1189,1184,-1
1183,1162,1249,-1
1183,1249,1248,-1
1186,1164,1165,-1
1187,1167,1166,-1
1185,1164,1186,-1
1187,1188,1167,-1
1191,1168,1170,-1
1184,1169,1163,-1
1190,1171,1169,-1
1196,1170,1175,-1
1192,1172,1171,-1
1193,1173,1172,-1
1194,1174,1173,-1
1197,1175,1176,-1
1198,1176,1177,-1
1189,1168,1191,-1
1184,1190,1169,-1
1191,1170,1196,-1
1190,1192,1171,-1
1192,1193,1172,-1
1189,1190,1184,-1
1189,1191,1190,-1
1190,1191,1192,-1
1191,1196,1192,-1
1196,1193,1192,-1
1193,1194,1173,-1
1194,1195,1174,-1
1196,1175,1197,-1
1196,1197,1193,-1
1197,1176,1198,-1
1198,1177,1254,-1
1193,1197,1194,-1
1194,1197,1198,-1
1194,1198,1195,-1
1195,1198,1254,-1
1211,1201,1199,-1
1214,1200,1202,-1
1213,1204,1201,-1
1212,1200,1214,-1
1211,1213,1201,-1
1214,1202,1215,-1
1212,1213,1211,-1
1212,1214,1213,-1
1213,1214,1216,-1
1215,1202,1203,-1
1218,1205,1206,-1
1217,1203,1205,-1
1216,1208,1204,-1
1219,1206,1207,-1
1221,1207,1209,-1
1220,1210,1208,-1
1222,1134,1210,-1
1213,1216,1204,-1
1217,1205,1218,-1
1215,1203,1217,-1
1216,1220,1208,-1
1214,1215,1216,-1
1215,1217,1216,-1
1217,1220,1216,-1
1217,1218,1220,-1
1218,1206,1219,-1
1219,1207,1221,-1
1155,1221,1209,-1
1156,1134,1222,-1
1220,1222,1210,-1
1218,1219,1220,-1
1220,1219,1222,-1
1156,1222,1221,-1
1219,1221,1222,-1
1229,664,1223,-1
1231,1223,1225,-1
1229,1223,1231,-1
1230,1229,1231,-1
1230,1225,1224,-1
669,1229,1230,-1
1230,1231,1225,-1
1233,1226,1227,-1
1265,1233,1227,-1
1233,1232,1226,-1
1233,1234,1232,-1
1233,1266,1234,-1
1246,1236,1235,-1
1248,1235,1237,-1
1247,1240,1236,-1
1250,1238,1239,-1
1246,1247,1236,-1
1246,1235,1248,-1
1246,1248,1247,-1
1247,1251,1240,-1
1249,1238,1250,-1
1247,1248,1251,-1
1248,1249,1251,-1
1249,1250,1251,-1
1252,1239,1241,-1
1251,1243,1240,-1
1253,1241,1242,-1
1195,1242,1174,-1
1254,1177,1243,-1
1255,1245,1244,-1
1250,1239,1252,-1
1252,1241,1253,-1
1195,1253,1242,-1
1251,1254,1243,-1
1250,1252,1251,-1
1251,1252,1254,-1
1252,1253,1254,-1
1195,1254,1253,-1
1255,1256,1245,-1
1268,1257,1260,-1
1265,1257,1268,-1
1265,1268,1267,-1
1265,1227,1257,-1
1266,1259,1258,-1
1234,1258,1228,-1
1267,1262,1259,-1
1267,1259,1266,-1
1265,1266,1233,-1
1265,1267,1266,-1
1266,1258,1234,-1
1269,1260,1261,-1
1268,1260,1269,-1
1267,1268,1270,-1
1268,1271,1270,-1
1268,1269,1271,-1
1271,1269,1272,-1
1270,1263,1262,-1
1271,1264,1263,-1
1272,1302,1264,-1
1267,1270,1262,-1
1270,1271,1263,-1
1271,1272,1264,-1
1272,1315,1302,-1
1269,1315,1272,-1
1188,1273,1167,-1
1282,1166,1275,-1
1281,1276,1274,-1
1283,1275,1276,-1
1187,1166,1282,-1
1188,1280,1273,-1
1187,1280,1188,-1
1187,1282,1280,-1
1280,1282,1281,-1
1281,1274,1295,-1
1280,1281,1295,-1
1281,1283,1276,-1
1282,1275,1283,-1
1281,1282,1283,-1
1294,1287,1273,-1
1295,1274,1288,-1
1296,1279,1289,-1
1280,1294,1273,-1
1280,1295,1294,-1
1284,1295,1288,-1
1286,1296,1295,-1
1284,1288,1277,-1
1285,1277,1278,-1
1284,1285,1295,-1
1284,1277,1285,-1
1285,1278,1300,-1
1286,1292,1279,-1
1300,1278,1293,-1
1286,1279,1296,-1
1285,1286,1295,-1
1285,1300,1286,-1
1286,1299,1292,-1
1286,1300,1299,-1
1294,1244,1287,-1
1256,1289,1245,-1
1255,1244,1294,-1
1256,1296,1289,-1
1255,1294,1256,-1
1256,1294,1296,-1
1294,1295,1296,-1
1297,1291,1290,-1
1299,1290,1292,-1
1298,1328,1291,-1
1297,1298,1291,-1
1297,1290,1299,-1
1297,1299,1298,-1
1298,1330,1328,-1
1300,1293,1329,-1
1298,1299,1300,-1
1298,1300,1330,-1
1314,1261,1301,-1
1269,1261,1314,-1
1315,1303,1302,-1
1316,1304,1303,-1
1317,1305,1304,-1
1318,1301,1305,-1
1315,1316,1303,-1
1269,1314,1315,-1
1315,1314,1316,-1
1314,1318,1316,-1
1316,1317,1304,-1
1317,1318,1305,-1
1316,1318,1317,-1
1314,1301,1318,-1
1320,1306,1307,-1
1343,1307,1331,-1
1319,1306,1320,-1
1319,1320,1324,-1
1320,1307,1343,-1
1320,1326,1325,-1
1320,1343,1326,-1
1322,1309,1306,-1
1321,1311,1308,-1
1322,1310,1309,-1
1323,1308,1310,-1
1324,1312,1311,-1
1325,1313,1312,-1
1326,1333,1313,-1
1319,1322,1306,-1
1321,1308,1323,-1
1319,1321,1322,-1
1319,1324,1321,-1
1322,1323,1310,-1
1321,1323,1322,-1
1321,1324,1311,-1
1324,1325,1312,-1
1325,1326,1313,-1
1324,1320,1325,-1
1329,1293,1327,-1
1330,1327,1328,-1
1329,1327,1330,-1
1300,1329,1330,-1
1344,1331,1332,-1
1343,1331,1344,-1
1326,1343,1345,-1
1343,1346,1345,-1
1343,1344,1346,-1
1344,1332,1351,-1
1345,1334,1333,-1
1346,1335,1334,-1
1351,1332,1339,-1
1347,1336,1335,-1
1348,1337,1336,-1
1326,1345,1333,-1
1345,1346,1334,-1
1346,1347,1335,-1
1347,1348,1336,-1
1346,1344,1347,-1
1344,1351,1347,-1
1351,1348,1347,-1
1348,1349,1337,-1
1350,1342,1338,-1
1352,1339,1340,-1
1353,1340,1341,-1
1351,1339,1352,-1
1351,1352,1348,-1
1352,1340,1353,-1
1353,1341,1450,-1
1348,1352,1349,-1
1349,1352,1353,-1
1350,1354,1342,-1
1230,1224,1367,-1
1367,1224,1363,-1
1230,1367,729,-1
1232,1355,1226,-1
1359,1357,1355,-1
1360,1228,1356,-1
1232,1359,1355,-1
1234,1228,1360,-1
1232,1234,1360,-1
1232,1360,1359,-1
1360,1356,1362,-1
1359,1360,1361,-1
1362,1356,1358,-1
1361,1366,1357,-1
1359,1361,1357,-1
1360,1362,1361,-1
1361,1370,1366,-1
1361,1362,1370,-1
1370,1362,1372,-1
1368,1363,1364,-1
1369,1364,1365,-1
728,1369,1365,-1
728,1367,1369,-1
1367,1363,1368,-1
1368,1364,1369,-1
1367,1368,1369,-1
1370,1373,1366,-1
1372,1358,1371,-1
1362,1358,1372,-1
1382,1371,1374,-1
1381,1377,1373,-1
1370,1381,1373,-1
1372,1371,1382,-1
1370,1372,1381,-1
1372,1382,1381,-1
1382,1374,1383,-1
1381,1382,1385,-1
1381,1385,1377,-1
1383,1374,1375,-1
1384,1375,1376,-1
1385,1380,1377,-1
1386,1376,1378,-1
1387,1378,1379,-1
1383,1375,1384,-1
1382,1383,1385,-1
1383,1384,1385,-1
1384,1376,1386,-1
1387,1386,1378,-1
1384,1386,1388,-1
1387,1388,1386,-1
1385,1388,1380,-1
1385,1384,1388,-1
1396,1389,1390,-1
1395,1401,1389,-1
1395,1389,1396,-1
1396,1390,1412,-1
1395,1396,1411,-1
1397,1392,1391,-1
1398,1422,1392,-1
1397,1391,1438,-1
1397,1398,1392,-1
1397,1438,1398,-1
1400,1393,1394,-1
1399,1393,1400,-1
1400,1394,1415,-1
1399,1400,1415,-1
1411,1379,1401,-1
1412,1390,1402,-1
1388,1402,1380,-1
1387,1379,1411,-1
1395,1411,1401,-1
1387,1412,1388,-1
1387,1411,1412,-1
1411,1396,1412,-1
1388,1412,1402,-1
1399,1403,1393,-1
1415,1394,1405,-1
1413,1404,1403,-1
1416,1405,1406,-1
1417,1406,1407,-1
1418,1407,1408,-1
1414,1409,1404,-1
1419,1410,1409,-1
1420,1457,1410,-1
1399,1413,1403,-1
1399,1415,1413,-1
1415,1414,1413,-1
1413,1414,1404,-1
1415,1405,1416,-1
1416,1406,1417,-1
1417,1407,1418,-1
1415,1416,1414,-1
1416,1417,1419,-1
1417,1418,1420,-1
1414,1419,1409,-1
1419,1420,1410,-1
1414,1416,1419,-1
1417,1420,1419,-1
1418,1463,1420,-1
1438,1391,1421,-1
1443,1421,1426,-1
1439,1429,1422,-1
1349,1424,1337,-1
1441,1425,1424,-1
1442,1426,1425,-1
1440,1427,1423,-1
1445,1423,1428,-1
1398,1439,1422,-1
1438,1421,1443,-1
1439,1446,1429,-1
1438,1439,1398,-1
1438,1443,1440,-1
1438,1440,1446,-1
1438,1446,1439,-1
1349,1441,1424,-1
1442,1425,1441,-1
1442,1441,1451,-1
1443,1426,1442,-1
1440,1423,1445,-1
1444,1427,1440,-1
1445,1428,1452,-1
1443,1442,1444,-1
1443,1444,1440,-1
1440,1445,1446,-1
1442,1451,1444,-1
1446,1430,1429,-1
1447,1431,1430,-1
1448,1432,1431,-1
1449,1459,1432,-1
1446,1447,1430,-1
1447,1448,1431,-1
1446,1445,1447,-1
1447,1445,1452,-1
1447,1452,1448,-1
1448,1453,1449,-1
1448,1449,1432,-1
1465,1459,1449,-1
1465,1449,1454,-1
1450,1341,1433,-1
1451,1433,1434,-1
1444,1434,1427,-1
1450,1433,1451,-1
1349,1450,1441,-1
1441,1450,1451,-1
1349,1353,1450,-1
1444,1451,1434,-1
1452,1428,1435,-1
1453,1435,1436,-1
1454,1436,1437,-1
1452,1435,1453,-1
1453,1436,1454,-1
1448,1452,1453,-1
1466,1454,1437,-1
1449,1453,1454,-1
1461,1408,1455,-1
1462,1455,1456,-1
1463,1460,1457,-1
1465,1458,1459,-1
1464,1456,1458,-1
1418,1408,1461,-1
1461,1455,1462,-1
1464,1462,1456,-1
1418,1461,1463,-1
1461,1462,1463,-1
1420,1463,1457,-1
1465,1464,1458,-1
1463,1466,1460,-1
1463,1462,1466,-1
1464,1466,1462,-1
1465,1466,1464,-1
1466,1437,1460,-1
1465,1454,1466,-1
1350,1338,1477,-1
1354,1468,1342,-1
1473,1467,1469,-1
1471,1476,1467,-1
1472,1479,1468,-1
1474,1469,1470,-1
1471,1467,1473,-1
1350,1471,1354,-1
1354,1471,1472,-1
1354,1472,1468,-1
1471,1473,1472,-1
1350,1477,1471,-1
1473,1469,1474,-1
1473,1474,1472,-1
1472,1474,1491,-1
1477,1338,1475,-1
1474,1470,1495,-1
1471,1478,1476,-1
1477,1478,1471,-1
1478,1475,1476,-1
1477,1475,1478,-1
1472,1491,1479,-1
1493,1480,1481,-1
1492,1480,1493,-1
1493,1481,1515,-1
1492,1493,1515,-1
1491,1482,1479,-1
1495,1470,1483,-1
1494,1484,1482,-1
1496,1487,1484,-1
1497,1483,1485,-1
1498,1485,1486,-1
1530,1486,1527,-1
1491,1494,1482,-1
1495,1483,1497,-1
1474,1495,1491,-1
1491,1495,1494,-1
1495,1497,1494,-1
1494,1496,1484,-1
1496,1499,1487,-1
1494,1497,1496,-1
1497,1485,1498,-1
1498,1486,1530,-1
1496,1497,1498,-1
1496,1498,1499,-1
1499,1498,1530,-1
1499,1488,1487,-1
1500,1489,1488,-1
1501,1490,1489,-1
1499,1500,1488,-1
1499,1530,1500,-1
1500,1530,1531,-1
1500,1531,1501,-1
1500,1501,1489,-1
1501,1502,1490,-1
1531,1532,1501,-1
1501,1534,1502,-1
1501,1532,1534,-1
1492,1505,1480,-1
1515,1481,1503,-1
1516,1503,1504,-1
1517,1509,1505,-1
1518,1504,1506,-1
1519,1506,1507,-1
1520,1507,1508,-1
1521,1510,1509,-1
1492,1517,1505,-1
1515,1503,1516,-1
1492,1515,1517,-1
1515,1516,1517,-1
1517,1516,1521,-1
1517,1521,1509,-1
1516,1504,1518,-1
1518,1506,1519,-1
1519,1507,1520,-1
1516,1518,1521,-1
1518,1519,1521,-1
1519,1520,1522,-1
1521,1522,1510,-1
1521,1519,1522,-1
1524,1508,1512,-1
1523,1512,1511,-1
1522,1513,1510,-1
1502,1511,1490,-1
1526,1533,1514,-1
1525,1514,1513,-1
1520,1508,1524,-1
1523,1524,1512,-1
1520,1524,1522,-1
1523,1525,1524,-1
1522,1525,1513,-1
1522,1524,1525,-1
1502,1523,1511,-1
1525,1526,1514,-1
1502,1526,1523,-1
1523,1526,1525,-1
1502,1534,1526,-1
1531,1527,1528,-1
1532,1528,1529,-1
1534,1529,1533,-1
1530,1527,1531,-1
1531,1528,1532,-1
1532,1529,1534,-1
1534,1533,1526,-1
]

colorPerVertex FALSE

color Color { color [
 0 0 0,
 1 1 1,
 0.976471 0.843137 0.172549, # default colour
] }

colorIndex [
0 0 0 0 0 0 0 0 0 0 0 0 0 0 0 0 0 0 0 0 0 0 0 0 0 0 0 0 0 0 0 0 0 0 0 0 0 0 0 0 0 0 0 0 0 0 0 0 0 0 0 0 0 0 0 0 0 0 0 0 0 0 0 0 0 0 0 0 0 0 0 0 0 0 0 0 0 0 0 0 0 0 0 0 0 0 0 0 0 0 0 0 0 0 0 0 0 0 0 0 0 0 0 0 0 0 0 0 0 0 0 0 0 0 0 0 0 0 0 0 0 0 0 0 0 0 0 0 0 0 0 0 0 0 0 0 0 0 0 0 0 0 0 0 0 0 0 0 0 0 0 0 0 0 0 0 0 0 0 0 0 0 0 0 0 0 0 0 0 0 0 0 0 0 0 0 0 0 0 0 0 0 0 0 0 0 0 0 0 0 0 0 0 0 0 0 0 0 0 0 0 0 0 0 0 0 0 0 0 0 0 0 0 0 0 0 0 0 0 0 0 0 0 0 0 0 0 0 0 0 0 0 0 0 0 0 0 0 0 0 0 0 0 0 0 0 0 0 0 0 0 0 0 0 0 0 0 0 0 0 0 0 0 0 0 0 0 0 0 0 0 0 0 0 0 0 0 0 0 0 0 0 0 0 0 0 0 0 0 0 0 0 0 0 0 0 0 0 0 0 0 0 0 0 0 0 0 0 0 0 0 0 0 0 0 0 0 0 0 0 0 0 0 0 0 0 0 0 0 0 0 0 0 0 0 0 0 0 0 0 0 0 0 0 0 0 0 0 0 0 0 0 0 0 0 0 0 0 0 0 0 0 0 0 0 0 0 0 0 0 0 0 0 0 0 0 0 0 0 0 0 0 0 0 0 0 0 0 0 0 0 0 0 0 0 0 0 0 0 0 0 0 0 0 0 0 0 0 0 0 0 0 0 0 0 0 0 0 0 0 0 0 0 0 0 0 0 0 0 0 0 0 0 0 0 0 0 0 0 0 0 0 0 0 0 0 0 0 0 0 0 0 0 0 0 0 0 0 0 0 0 0 0 0 0 0 0 0 0 0 0 0 0 0 0 0 0 0 0 0 0 0 0 0 0 0 0 0 0 0 0 0 0 0 0 0 0 0 0 0 0 0 0 0 0 0 0 0 0 0 0 0 0 0 0 0 0 0 0 0 0 0 0 0 0 0 0 0 0 0 0 0 0 0 0 0 0 0 0 0 0 0 0 0 0 0 0 0 0 0 0 0 0 0 0 0 0 0 0 0 0 0 0 0 0 0 0 0 0 0 0 0 0 0 0 0 0 0 0 0 0 0 0 0 0 0 0 0 0 0 0 0 0 0 0 0 0 0 0 0 0 0 0 0 0 0 0 0 0 0 0 0 0 0 0 0 0 0 0 0 0 0 0 0 0 0 0 0 0 0 0 0 0 0 0 0 0 0 0 0 0 0 0 0 0 0 0 0 0 0 0 0 0 0 0 0 0 0 0 0 0 0 0 0 0 0 0 0 0 0 0 0 0 0 0 0 0 0 0 0 0 0 0 0 0 0 0 0 0 0 0 0 0 0 0 0 0 0 0 0 0 0 0 0 0 0 0 0 0 0 0 0 0 0 0 0 0 0 0 0 0 0 0 0 0 0 0 0 0 0 0 0 0 0 0 0 0 0 0 0 0 0 0 0 0 0 0 0 0 0 0 0 0 0 0 0 0 0 0 0 0 0 0 0 0 0 0 0 0 0 0 0 0 0 0 0 0 0 0 0 0 0 0 0 0 0 0 0 0 0 0 0 0 0 0 0 0 0 0 0 0 0 0 0 0 0 0 0 0 0 0 0 0 0 0 0 0 0 0 0 0 0 0 0 0 0 0 0 0 0 1 1 1 1 1 1 1 1 1 1 1 1 1 1 1 1 1 1 1 1 1 1 1 1 1 1 1 1 1 1 1 1 1 1 1 1 1 1 1 1 1 1 1 1 1 1 1 1 1 1 1 1 1 1 1 1 1 1 1 1 1 1 1 1 1 1 1 1 1 1 1 1 1 1 1 1 1 1 1 1 1 1 1 1 1 1 1 1 1 1 1 1 1 1 1 1 1 1 1 1 1 1 1 1 1 1 1 1 1 1 1 1 1 1 1 1 1 1 1 1 1 1 1 1 1 1 1 1 1 1 1 1 1 1 1 1 1 1 1 1 1 1 1 1 1 1 1 1 1 1 1 1 1 1 1 1 1 1 1 1 1 1 1 1 1 1 1 1 1 1 1 1 1 1 1 1 1 1 1 1 1 1 1 1 1 1 1 1 1 1 1 1 1 1 1 1 1 1 1 1 1 1 1 1 1 1 1 1 1 1 1 1 1 1 1 1 1 1 1 1 1 1 1 1 1 1 1 1 1 1 1 1 1 1 1 1 1 1 1 1 1 1 1 1 1 1 1 1 1 1 1 1 1 1 1 1 1 1 1 1 1 1 1 1 1 1 1 1 1 1 1 1 1 1 1 1 1 1 1 1 1 1 1 1 1 1 1 1 1 1 1 1 1 1 1 1 1 1 1 1 1 1 1 1 1 1 1 1 1 1 1 1 1 1 1 1 1 1 1 1 1 1 1 1 1 1 1 1 1 1 1 1 1 1 1 1 1 1 1 1 1 1 1 1 1 1 1 1 1 1 1 1 1 1 1 1 1 1 1 1 1 1 1 1 1 1 1 1 1 1 1 1 1 1 1 1 1 1 1 1 1 1 1 1 1 1 1 1 1 1 1 1 1 1 1 1 1 1 1 1 1 1 1 1 1 1 1 1 1 1 1 1 1 1 1 1 1 1 1 1 1 1 1 1 1 1 1 1 1 1 1 1 1 1 1 1 1 1 1 1 1 1 1 1 1 1 1 1 1 1 1 1 1 1 1 1 1 1 1 1 1 1 1 1 1 1 1 1 1 1 1 1 1 1 1 1 1 1 1 1 1 1 1 1 1 1 1 1 1 1 1 1 1 1 1 1 1 1 1 1 1 1 1 1 1 1 1 1 1 1 1 1 1 1 1 1 1 1 1 1 1 1 1 1 1 1 1 1 1 1 1 1 1 1 1 1 1 1 1 1 1 1 1 1 1 1 1 1 1 1 1 1 1 1 1 1 1 1 1 1 1 1 1 1 1 1 1 1 1 1 1 1 1 1 1 1 1 1 1 1 1 1 1 1 1 1 1 1 1 1 1 1 1 1 1 1 1 1 1 1 1 1 1 1 1 1 1 1 1 1 1 1 1 1 1 1 1 1 1 1 1 1 1 1 1 1 1 1 1 1 1 1 1 1 1 1 1 1 1 1 1 1 1 1 1 1 1 1 1 1 1 1 1 1 1 1 1 1 1 1 1 1 1 1 1 1 1 1 1 1 1 1 1 1 1 1 1 1 1 1 1 1 1 1 1 1 1 1 1 1 1 1 1 1 1 1 1 1 1 1 1 1 1 1 1 1 1 1 1 1 1 1 1 1 1 1 1 1 1 1 1 1 1 1 1 1 1 1 1 1 1 1 1 1 1 1 1 1 1 1 1 1 1 1 1 1 1 1 1 1 1 1 1 1 1 1 1 1 1 1 1 1 1 1 1 1 1 1 1 1 1 1 1 1 1 1 1 1 1 1 1 1 1 1 1 1 1 1 1 1 1 1 1 1 1 1 1 1 1 1 1 1 1 1 1 1 1 1 1 1 1 1 1 1 1 1 1 1 1 1 1 1 1 1 1 1 1 1 1 1 1 1 1 1 1 1 1 1 1 1 1 1 1 1 1 1 1 1 1 1 1 1 1 1 1 1 1 1 1 1 1 1 1 1 1 1 1 1 1 1 1 1 1 1 1 1 1 1 1 1 1 1 1 1 1 1 1 1 1 1 1 1 1 1 1 1 1 1 1 1 1 1 1 1 1 1 1 1 1 1 1 1 1 1 1 1 1 1 1 1 1 1 1 1 1 1 1 1 1 1 1 1 1 1 1 1 1 1 1 1 1 1 1 1 1 1 1 1 1 1 1 1 1 1 1 1 1 1 1 1 1 1 1 1 1 1 1 1 1 1 1 1 1 1 1 1 1 1 1 1 1 1 1 1 1 1 1 1 1 1 1 1 1 1 1 1 1 1 1 1 1 1 1 1 1 1 1 1 1 1 1 1 1 1 1 1 1 1 1 1 1 1 1 1 1 1 1 1 1 1 1 1 1 1 1 1 1 1 1 1 1 1 1 1 1 1 1 1 1 1 1 1 1 1 1 1 1 1 1 1 1 1 1 1 1 1 1 1 1 1 1 1 1 1 1 1 1 1 1 1 1 1 1 1 1 1 1 1 1 1 1 1 1 1 1 1 1 1 1 1 1 1 1 1 1 1 1 1 1 1 1 1 1 1 1 1 1 1 1 1 1 1 1 1 1 1 1 1 1 1 1 1 1 1 1 1 1 1 1 1 1 1 1 1 1 1 1 1 1 1 1 1 1 1 1 1 1 1 1 1 1 1 1 1 1 1 1 1 1 1 1 1 1 1 1 1 1 1 1 1 1 1 1 1 1 1 1 1 1 1 1 1 1 1 1 1 1 1 1 1 1 1 1 1 1 1 1 1 1 1 1 1 1 1 1 1 1 1 1 1 1 1 1 1 1 1 1 1 1 1 1 1 1 1 1 1 1 1 1 1 1 1 1 1 1 1 1 1 1 1 1 1 1 1 1 1 1 1 1 1 1 1 1 1 1 1 1 1 1 1 1 1 1 1 1 1 1 1 1 1 1 1 1 1 1 1 1 1 1 1 1 1 1 1 1 1 1 1 1 1 1 1 1 1 1 1 1 1 1 1 1 1 1 1 1 1 1 1 1 1 1 1 1 1 1 1 1 1 1 1 1 1 1 1 1 1 1 1 1 1 1 1 1 1 1 1 1 1 1 1 1 1 1 1 1 1 1 1 1 1 1 1 1 1 1 1 1 1 1 1 1 1 1 1 1 1 1 1 1 1 1 1 1 1 1 1 1 1 1 1 1 1 1 1 1 1 1 1 1 1 1 1 1 1 1 1 1 1 1 1 1 1 1 1 1 1 1 1 1 1 1 1 1 1 1 1 1 1 1 1 1 1 1 1 1 1 1 1 1 1 1 1 1 1 1 1 1 1 1 1 1 1 1 1 1 1 1 1 1 1 1 1 1 1 1 1 1 1 1 1 1 1 1 1 1 1 1 1 1 1 1 1 1 1 1 1 1 1 1 1 1 1 1 1 1 1 1 1 1 1 1 1 1 1 1 1 1 1 1 1 1 1 1 1 1 1 1 1 1 1 1 1 1 1 1 1 1 1 1 1 1 1 1 1 1 1 1 1 1 1 1 1 1 1 1 1 1 1 1 1 1 1 1 1 1 1 1 1 1 1 1 1 1 1 1 1 1 1 1 1 1 1 1 1 1 1 1 1 1 1 1 1 1 1 1 1 1 1 1 1 1 1 1 1 1 1 1 1 1 1 1 1 1 1 1 1 1 1 1 1 1 1 1 1 1 1 1 1 1 1 1 1 1 1 1 1 1 1 1 1 1 1 1 1 1 1 1 1 1 1 1 1 1 1 1 1 1 1 1 1 1 1 1 1 1 1 1 1 1 1 1 1 1 1 1 1 1 1 1 1 1 1 1 1 1 1 1 1 1 1 1 1 1 1 1 1 1 1 1 1 1 1 1 1 1 1 1 1 1 1 1 1 1 1 1 1 1 1 1 1 1 1 1 1 1 1 1 1 1 1 1 1 1 1 1 1 1 1 1 1 1 1 1 1 1 1 1 1 1 1 1 1 1 1 1 1 1 1 1 1 1 1 1 1 1 1 1 1 1 1 1 1 1 1 1 1 1 1 1 1 1 1 1 1 1 1 1 1 1 1 1 1 1 1 1 1 1 1 1 1 1 1 1 1 1 1 1 1 1 1 1 1 1 1 1 1 1 1 1 1 1 1 1 1 1 1 1 1 1 1 1 1 1 1 1 1 1 1 1 1 1 1 1 1 1 1 1 1 1 1 1 1 1 1 1 1 1 1 1 1 1 1 1 1 1 1 1 1 1 1 1 1 1 1 1 1 1 1 1 1 1 1 1 1 1 1 1 1 1 1 1 1 1 1 1 1 1 1 1 1 1 1 1 1 1 1 1 1 1 1 1 1 1 1 1 1 1 1 1 1 1 1 1 1 1 1 1 1 1 1 1 1 1 1 1 1 1 1 1 1 1 1 1 1 1 1 1 1 1 1 1 1 1 1 1 1 1 1 1 1 1 1 1 1 1 1 1 1 1 1 1 1 1 1 1 1 1 1 1 1 1 1 1 1 1 1 1 1 1 1 1 1 1 1 1 1 1 1 1 1 1 1 1 1 1 1 1 1 1 1 1 1 1 1 1 1 1 1 1 1 1 1 1 1 1 1 1 1 1 1 1 1 1 1 1 1 1 1 1 1 1 1 1 1 1 1 1 1 1 1 1 1 1 1 1 1 1 1 1 1 1 1 1 1 1 1 1 1 1 1 1 1 1 1 1 1 1 1 1 1 1 1 1 1 1 1 1 1 1 1 1 1 1 1 1 1 1 1 1 1 1 1 1 1 1 1 1 1 1 1 1 1 1 1 1 1 1 1 1 1 1 1 1 1 1 1 1 1 1 1 1 1 1 1 1 1 1 1 1 1 1 1 1 1 1 1 1 1 1 1 1 1 1 1 1 1 1 1 1 1 1 1 1 1 1 1 1 1 1 1 1 1 1 1 1 1 1 1 1 1 1 1 1 1 1 1 1 1 1 1 1 1 1 1 1 1 1 1 1 1 1 1 1 1 1 1 1 1 1 1 1 1 1 1 1 1 1 1 1 1 1 1 1 1 1 1 1 1 1 1 1 1 1 1 1 1 1 1 1 1 1 1 1 1 1 1 1 1 ]

}

}
