#VRML V2.0 utf8

Shape {

appearance Appearance { material Material {
ambientIntensity 0.3
diffuseColor 0.97647 0.843137 0.172549
specularColor 0.2 0.2 0.2
shininess 0.3
} }

geometry IndexedFaceSet {

creaseAngle 0.5

coord Coordinate { point [
0 0 0,
0 0 2.3,
4.35881 1.27143 2.3,
4.35881 1.29428 2.3,
4.45063 1.30592 2.3,
4.53383 1.30592 2.3,
4.45063 1.49646 2.3,
4.53383 1.49905 2.3,
4.51529 1.54862 2.3,
4.62565 1.27143 2.3,
4.62565 1.29428 2.3,
4.35881 1.27143 2.5,
4.35881 1.29428 2.5,
4.45063 1.30592 2.5,
4.53383 1.30592 2.5,
4.45063 1.49646 2.5,
4.53383 1.49905 2.5,
4.51529 1.54862 2.5,
4.62565 1.27143 2.5,
4.62565 1.29428 2.5,
4.18249 1.82668 2.3,
4.18249 1.84953 2.3,
4.24758 1.81547 2.3,
4.34932 1.81547 2.3,
4.42692 1.82668 2.3,
4.42692 1.84953 2.3,
4.59979 1.82668 2.3,
4.59979 1.84953 2.3,
4.67307 1.81547 2.3,
4.72437 1.81547 2.3,
4.78774 1.82668 2.3,
4.78774 1.84953 2.3,
4.82012 1.82668 2.3,
4.82012 1.84953 2.3,
4.88521 1.81547 2.3,
4.18249 1.82668 2.5,
4.18249 1.84953 2.5,
4.24758 1.81547 2.5,
4.34932 1.81547 2.5,
4.42692 1.82668 2.5,
4.42692 1.84953 2.5,
4.59979 1.82668 2.5,
4.59979 1.84953 2.5,
4.67307 1.81547 2.5,
4.72437 1.81547 2.5,
4.78774 1.82668 2.5,
4.78774 1.84953 2.5,
4.82012 1.82668 2.5,
4.82012 1.84953 2.5,
4.88521 1.81547 2.5,
4.99643 1.27143 2.3,
4.99643 1.29428 2.3,
5.08826 1.30592 2.3,
5.17146 1.30592 2.3,
5.26328 1.27143 2.3,
5.26328 1.29428 2.3,
5.08826 1.49646 2.3,
5.15292 1.54862 2.3,
5.17146 1.49905 2.3,
5.69053 1.25807 2.3,
5.71339 1.25807 2.3,
5.72201 1.40809 2.3,
4.99643 1.27143 2.5,
4.99643 1.29428 2.5,
5.08826 1.30592 2.5,
5.17146 1.30592 2.5,
5.26328 1.27143 2.5,
5.26328 1.29428 2.5,
5.08826 1.49646 2.5,
5.15292 1.54862 2.5,
5.17146 1.49905 2.5,
5.69053 1.25807 2.5,
5.71339 1.25807 2.5,
5.72201 1.40809 2.5,
4.98695 1.81547 2.3,
5.06454 1.82668 2.3,
5.06454 1.84953 2.3,
5.23741 1.82668 2.3,
5.23741 1.84953 2.3,
5.3107 1.81547 2.3,
5.362 1.81547 2.3,
5.42537 1.82668 2.3,
5.44869 1.82668 2.3,
5.42537 1.84953 2.3,
5.44869 1.84953 2.3,
5.49913 1.81547 2.3,
5.58449 1.81547 2.3,
5.66941 1.82668 2.3,
5.66941 1.84953 2.3,
4.98695 1.81547 2.5,
5.06454 1.82668 2.5,
5.06454 1.84953 2.5,
5.23741 1.82668 2.5,
5.23741 1.84953 2.5,
5.3107 1.81547 2.5,
5.362 1.81547 2.5,
5.42537 1.82668 2.5,
5.44869 1.82668 2.5,
5.42537 1.84953 2.5,
5.44869 1.84953 2.5,
5.49913 1.81547 2.5,
5.58449 1.81547 2.5,
5.66941 1.82668 2.5,
5.66941 1.84953 2.5,
6.0173 1.25807 2.3,
6.04015 1.25807 2.3,
5.86729 1.6564 2.3,
6.04705 1.40809 2.3,
6.52389 1.25807 2.3,
6.54674 1.25807 2.3,
6.55536 1.40809 2.3,
6.0173 1.25807 2.5,
6.04015 1.25807 2.5,
5.86729 1.6564 2.5,
6.04705 1.40809 2.5,
6.52389 1.25807 2.5,
6.54674 1.25807 2.5,
6.55536 1.40809 2.5,
5.87763 1.809 2.3,
5.89703 1.809 2.3,
6.08801 1.82668 2.3,
6.08801 1.84953 2.3,
6.1781 1.81547 2.3,
6.22897 1.81547 2.3,
6.27941 1.82668 2.3,
6.28205 1.82668 2.3,
6.27941 1.84953 2.3,
6.28205 1.84953 2.3,
6.33249 1.81547 2.3,
6.41785 1.81547 2.3,
6.50277 1.82668 2.3,
6.50277 1.84953 2.3,
5.87763 1.809 2.5,
5.89703 1.809 2.5,
6.08801 1.82668 2.5,
6.08801 1.84953 2.5,
6.1781 1.81547 2.5,
6.22897 1.81547 2.5,
6.27941 1.82668 2.5,
6.28205 1.82668 2.5,
6.27941 1.84953 2.5,
6.28205 1.84953 2.5,
6.33249 1.81547 2.5,
6.41785 1.81547 2.5,
6.50277 1.82668 2.5,
6.50277 1.84953 2.5,
4.93824 3.97406 2.3,
4.91862 4.09665 2.3,
4.93748 4.22765 2.3,
4.93824 3.97406 2.5,
4.91862 4.09665 2.5,
4.93748 4.22765 2.5,
5.74983 2.54286 2.3,
5.74983 2.5657 2.3,
5.74983 2.54286 2.5,
5.74983 2.5657 2.5,
5.74983 3.09811 2.3,
5.74983 3.12096 2.3,
5.74983 3.09811 2.5,
5.74983 3.12096 2.5,
5.82398 2.57734 2.3,
5.9809 2.54286 2.3,
5.9809 2.5657 2.3,
5.90675 2.57734 2.3,
6.04385 2.54286 2.3,
6.04385 2.5657 2.3,
6.118 2.57734 2.3,
6.27492 2.54286 2.3,
6.27492 2.5657 2.3,
6.20077 2.57734 2.3,
6.33788 2.54286 2.3,
6.33788 2.5657 2.3,
6.41203 2.57734 2.3,
6.4948 2.57734 2.3,
6.56895 2.54286 2.3,
6.56895 2.5657 2.3,
5.82398 2.57734 2.5,
5.9809 2.54286 2.5,
5.9809 2.5657 2.5,
5.90675 2.57734 2.5,
6.04385 2.54286 2.5,
6.04385 2.5657 2.5,
6.118 2.57734 2.5,
6.27492 2.54286 2.5,
6.27492 2.5657 2.5,
6.20077 2.57734 2.5,
6.33788 2.54286 2.5,
6.33788 2.5657 2.5,
6.41203 2.57734 2.5,
6.4948 2.57734 2.5,
6.56895 2.54286 2.5,
6.56895 2.5657 2.5,
5.82398 3.0869 2.3,
5.90675 3.0869 2.3,
5.9809 3.09811 2.3,
5.9809 3.12096 2.3,
6.04385 3.09811 2.3,
6.04385 3.12096 2.3,
6.118 3.0869 2.3,
6.20077 3.0869 2.3,
6.27492 3.09811 2.3,
6.27492 3.12096 2.3,
6.33788 3.09811 2.3,
6.33788 3.12096 2.3,
6.41203 3.0869 2.3,
6.4948 3.0869 2.3,
6.56895 3.09811 2.3,
6.56895 3.12096 2.3,
5.82398 3.0869 2.5,
5.90675 3.0869 2.5,
5.9809 3.09811 2.5,
5.9809 3.12096 2.5,
6.04385 3.09811 2.5,
6.04385 3.12096 2.5,
6.118 3.0869 2.5,
6.20077 3.0869 2.5,
6.27492 3.09811 2.5,
6.27492 3.12096 2.5,
6.33788 3.09811 2.5,
6.33788 3.12096 2.5,
6.41203 3.0869 2.5,
6.4948 3.0869 2.5,
6.56895 3.09811 2.5,
6.56895 3.12096 2.5,
4.99708 3.88218 2.3,
5.09106 3.82479 2.3,
5.12733 3.85545 2.3,
5.21608 3.80567 2.3,
5.21695 3.83886 2.3,
5.32159 3.81245 2.3,
5.26469 3.84182 2.3,
5.30963 3.85071 2.3,
5.34864 3.86456 2.3,
5.3786 3.8824 2.3,
5.41999 3.83282 2.3,
5.50237 3.81429 2.3,
5.50237 3.83713 2.3,
5.57091 3.84877 2.3,
5.65411 3.84877 2.3,
5.74594 3.81429 2.3,
5.74594 3.83713 2.3,
4.99708 3.88218 2.5,
5.09106 3.82479 2.5,
5.12733 3.85545 2.5,
5.21608 3.80567 2.5,
5.21695 3.83886 2.5,
5.32159 3.81245 2.5,
5.26469 3.84182 2.5,
5.30963 3.85071 2.5,
5.34864 3.86456 2.5,
5.3786 3.8824 2.5,
5.41999 3.83282 2.5,
5.50237 3.81429 2.5,
5.50237 3.83713 2.5,
5.57091 3.84877 2.5,
5.65411 3.84877 2.5,
5.74594 3.81429 2.5,
5.74594 3.83713 2.5,
5.02203 3.98651 2.3,
5.06197 3.90524 2.3,
5.00872 4.09752 2.3,
5.02144 4.21628 2.3,
5.05959 4.29927 2.3,
4.99406 4.32233 2.3,
5.08772 4.37972 2.3,
5.12544 4.34809 2.3,
5.22126 4.36436 2.3,
5.2178 4.39885 2.3,
5.26226 4.36183 2.3,
5.30251 4.35423 2.3,
5.33997 4.342 2.3,
5.31125 4.39335 2.3,
5.39455 3.96862 2.3,
5.42257 3.96862 2.3,
5.65411 4.04104 2.3,
5.65411 4.07984 2.3,
5.71921 4.04104 2.3,
5.69894 4.07984 2.3,
5.76226 4.08814 2.3,
5.3855 4.25055 2.3,
5.41395 4.25055 2.3,
5.37257 4.32557 2.3,
5.41137 4.37686 2.3,
5.49676 4.36954 2.3,
5.49676 4.39239 2.3,
5.57091 4.35832 2.3,
5.65411 4.35358 2.3,
5.69636 4.35358 2.3,
5.7635 4.34593 2.3,
5.7149 4.39239 2.3,
5.02203 3.98651 2.5,
5.06197 3.90524 2.5,
5.00872 4.09752 2.5,
5.02144 4.21628 2.5,
5.05959 4.29927 2.5,
4.99406 4.32233 2.5,
5.08772 4.37972 2.5,
5.12544 4.34809 2.5,
5.22126 4.36436 2.5,
5.2178 4.39885 2.5,
5.26226 4.36183 2.5,
5.30251 4.35423 2.5,
5.33997 4.342 2.5,
5.31125 4.39335 2.5,
5.39455 3.96862 2.5,
5.42257 3.96862 2.5,
5.65411 4.04104 2.5,
5.65411 4.07984 2.5,
5.71921 4.04104 2.5,
5.69894 4.07984 2.5,
5.76226 4.08814 2.5,
5.3855 4.25055 2.5,
5.41395 4.25055 2.5,
5.37257 4.32557 2.5,
5.41137 4.37686 2.5,
5.49676 4.36954 2.5,
5.49676 4.39239 2.5,
5.57091 4.35832 2.5,
5.65411 4.35358 2.5,
5.69636 4.35358 2.5,
5.7635 4.34593 2.5,
5.7149 4.39239 2.5,
5.98781 3.81429 2.3,
5.98781 3.83713 2.3,
6.06196 3.84877 2.3,
6.18482 3.81429 2.3,
6.10722 3.84877 2.3,
6.18482 3.83713 2.3,
6.46373 3.81429 2.3,
6.50555 3.81429 2.3,
5.98781 3.81429 2.5,
5.98781 3.83713 2.5,
6.06196 3.84877 2.5,
6.18482 3.81429 2.5,
6.10722 3.84877 2.5,
6.18482 3.83713 2.5,
6.46373 3.81429 2.5,
6.50555 3.81429 2.5,
5.80796 4.05257 2.3,
5.87332 4.08717 2.3,
5.8065 4.11303 2.3,
5.83253 4.15668 2.3,
5.91358 4.14396 2.3,
5.84121 4.22124 2.3,
5.83291 4.28224 2.3,
5.92699 4.2221 2.3,
5.80801 4.32297 2.3,
5.87397 4.34981 2.3,
5.98781 4.36954 2.3,
6.06196 4.35832 2.3,
5.98781 4.39239 2.3,
6.10722 4.33419 2.3,
6.16283 4.39239 2.3,
6.46028 3.96431 2.3,
6.38269 4.36954 2.3,
6.38269 4.39239 2.3,
6.46028 4.35832 2.3,
6.50555 4.35832 2.3,
6.5797 4.36954 2.3,
6.5797 4.39239 2.3,
5.80796 4.05257 2.5,
5.87332 4.08717 2.5,
5.8065 4.11303 2.5,
5.83253 4.15668 2.5,
5.91358 4.14396 2.5,
5.84121 4.22124 2.5,
5.83291 4.28224 2.5,
5.92699 4.2221 2.5,
5.80801 4.32297 2.5,
5.87397 4.34981 2.5,
5.98781 4.36954 2.5,
6.06196 4.35832 2.5,
5.98781 4.39239 2.5,
6.10722 4.33419 2.5,
6.16283 4.39239 2.5,
6.46028 3.96431 2.5,
6.38269 4.36954 2.5,
6.38269 4.39239 2.5,
6.46028 4.35832 2.5,
6.50555 4.35832 2.5,
6.5797 4.36954 2.5,
6.5797 4.39239 2.5,
0 8.9 0,
0.876721 7.75302 2.3,
0.950232 7.65539 2.3,
1.04594 7.57867 2.3,
1.15655 7.53264 2.3,
1.28208 7.5173 2.3,
1.4076 7.53264 2.3,
1.5182 7.57867 2.3,
1.61387 7.65539 2.3,
0.876721 7.75302 2.5,
0.950232 7.65539 2.5,
1.04594 7.57867 2.5,
1.15655 7.53264 2.5,
1.28208 7.5173 2.5,
1.4076 7.53264 2.5,
1.5182 7.57867 2.5,
1.61387 7.65539 2.5,
0.817911 7.98152 2.3,
0.817911 7.98152 2.5,
0 8.9 2.3,
0.832614 7.86173 2.3,
0.832827 8.10512 2.3,
0.877575 8.21507 2.3,
0.952155 8.31139 2.3,
1.61195 8.31139 2.3,
0.832614 7.86173 2.5,
0.832827 8.10512 2.5,
0.877575 8.21507 2.5,
0.952155 8.31139 2.5,
1.61195 8.31139 2.5,
1.0485 8.386 2.3,
1.15848 8.43077 2.3,
1.28208 8.44569 2.3,
1.40568 8.43077 2.3,
1.51563 8.386 2.3,
1.0485 8.386 2.5,
1.15848 8.43077 2.5,
1.28208 8.44569 2.5,
1.40568 8.43077 2.5,
1.51563 8.386 2.5,
1.68741 7.75302 2.3,
1.68741 7.75302 2.5,
1.73154 7.86173 2.3,
1.74625 7.98152 2.3,
1.73133 8.10512 2.3,
1.68656 8.21507 2.3,
1.73154 7.86173 2.5,
1.74625 7.98152 2.5,
1.73133 8.10512 2.5,
1.68656 8.21507 2.5,
4.93824 5.24549 2.3,
4.91862 5.36808 2.3,
4.93748 5.49908 2.3,
4.93824 5.24549 2.5,
4.91862 5.36808 2.5,
4.93748 5.49908 2.5,
3.70932 6.35714 2.3,
3.70932 6.39827 2.3,
4.06394 6.35714 2.3,
3.84279 6.41922 2.3,
3.92427 6.41922 2.3,
4.06394 6.39827 2.3,
3.70932 6.35714 2.5,
3.70932 6.39827 2.5,
4.06394 6.35714 2.5,
3.84279 6.41922 2.5,
3.92427 6.41922 2.5,
4.06394 6.39827 2.5,
4.30527 6.35714 2.3,
4.33242 6.35714 2.3,
4.36269 6.60623 2.3,
4.6079 6.35714 2.3,
4.6079 6.39827 2.3,
4.74757 6.41922 2.3,
4.89655 6.41922 2.3,
4.30527 6.35714 2.5,
4.33242 6.35714 2.5,
4.36269 6.60623 2.5,
4.6079 6.35714 2.5,
4.6079 6.39827 2.5,
4.74757 6.41922 2.5,
4.89655 6.41922 2.5,
5.09106 5.09622 2.3,
5.12733 5.12688 2.3,
4.99708 5.15361 2.3,
5.02203 5.25794 2.3,
5.06197 5.17667 2.3,
5.21608 5.07709 2.3,
5.21695 5.11028 2.3,
5.26469 5.11325 2.3,
5.30963 5.12214 2.3,
5.32159 5.08388 2.3,
5.34864 5.13599 2.3,
5.00872 5.36894 2.3,
5.02144 5.48771 2.3,
5.41999 5.10425 2.3,
5.50237 5.08571 2.3,
5.50237 5.10856 2.3,
5.3786 5.15382 2.3,
5.39455 5.24005 2.3,
5.42257 5.24005 2.3,
5.57091 5.1202 2.3,
5.65411 5.1202 2.3,
5.74594 5.08571 2.3,
5.74594 5.10856 2.3,
5.3855 5.52198 2.3,
5.41395 5.52198 2.3,
5.65411 5.31247 2.3,
5.65411 5.35127 2.3,
5.71921 5.31247 2.3,
5.69894 5.35127 2.3,
5.76226 5.35957 2.3,
5.09106 5.09622 2.5,
5.12733 5.12688 2.5,
4.99708 5.15361 2.5,
5.02203 5.25794 2.5,
5.06197 5.17667 2.5,
5.21608 5.07709 2.5,
5.21695 5.11028 2.5,
5.26469 5.11325 2.5,
5.30963 5.12214 2.5,
5.32159 5.08388 2.5,
5.34864 5.13599 2.5,
5.00872 5.36894 2.5,
5.02144 5.48771 2.5,
5.41999 5.10425 2.5,
5.50237 5.08571 2.5,
5.50237 5.10856 2.5,
5.3786 5.15382 2.5,
5.39455 5.24005 2.5,
5.42257 5.24005 2.5,
5.57091 5.1202 2.5,
5.65411 5.1202 2.5,
5.74594 5.08571 2.5,
5.74594 5.10856 2.5,
5.3855 5.52198 2.5,
5.41395 5.52198 2.5,
5.65411 5.31247 2.5,
5.65411 5.35127 2.5,
5.71921 5.31247 2.5,
5.69894 5.35127 2.5,
5.76226 5.35957 2.5,
5.98781 5.08571 2.3,
5.98781 5.10856 2.3,
6.06196 5.1202 2.3,
6.10722 5.1202 2.3,
6.18482 5.08571 2.3,
6.18482 5.10856 2.3,
5.80796 5.324 2.3,
5.8065 5.38446 2.3,
5.87332 5.35859 2.3,
5.91358 5.41539 2.3,
5.83253 5.42811 2.3,
5.84121 5.49267 2.3,
5.83291 5.55367 2.3,
5.92699 5.49353 2.3,
6.46373 5.08571 2.3,
6.50555 5.08571 2.3,
6.46028 5.23574 2.3,
5.98781 5.08571 2.5,
5.98781 5.10856 2.5,
6.06196 5.1202 2.5,
6.10722 5.1202 2.5,
6.18482 5.08571 2.5,
6.18482 5.10856 2.5,
5.80796 5.324 2.5,
5.8065 5.38446 2.5,
5.87332 5.35859 2.5,
5.91358 5.41539 2.5,
5.83253 5.42811 2.5,
5.84121 5.49267 2.5,
5.83291 5.55367 2.5,
5.92699 5.49353 2.5,
6.46373 5.08571 2.5,
6.50555 5.08571 2.5,
6.46028 5.23574 2.5,
4.99406 5.59376 2.3,
5.05959 5.57069 2.3,
5.12544 5.61952 2.3,
5.08772 5.65115 2.3,
5.22126 5.63579 2.3,
5.2178 5.67028 2.3,
5.30251 5.62566 2.3,
5.33997 5.61343 2.3,
5.26226 5.63326 2.3,
5.31125 5.66478 2.3,
5.37257 5.59699 2.3,
5.41137 5.64829 2.3,
5.49676 5.64097 2.3,
5.49676 5.66381 2.3,
5.57091 5.62975 2.3,
5.65411 5.62501 2.3,
5.69636 5.62501 2.3,
5.7635 5.61736 2.3,
5.7149 5.66381 2.3,
4.99406 5.59376 2.5,
5.05959 5.57069 2.5,
5.12544 5.61952 2.5,
5.08772 5.65115 2.5,
5.22126 5.63579 2.5,
5.2178 5.67028 2.5,
5.30251 5.62566 2.5,
5.33997 5.61343 2.5,
5.26226 5.63326 2.5,
5.31125 5.66478 2.5,
5.37257 5.59699 2.5,
5.41137 5.64829 2.5,
5.49676 5.64097 2.5,
5.49676 5.66381 2.5,
5.57091 5.62975 2.5,
5.65411 5.62501 2.5,
5.69636 5.62501 2.5,
5.7635 5.61736 2.5,
5.7149 5.66381 2.5,
5.03002 6.35714 2.3,
5.03002 6.39827 2.3,
5.52987 6.35714 2.3,
5.52987 6.39827 2.3,
5.65325 6.41922 2.3,
5.03002 6.35714 2.5,
5.03002 6.39827 2.5,
5.52987 6.35714 2.5,
5.52987 6.39827 2.5,
5.65325 6.41922 2.5,
5.80801 5.5944 2.3,
5.87397 5.62124 2.3,
6.06196 5.62975 2.3,
5.98781 5.64097 2.3,
5.98781 5.66381 2.3,
6.10722 5.60561 2.3,
6.16283 5.66381 2.3,
6.38269 5.64097 2.3,
6.38269 5.66381 2.3,
6.46028 5.62975 2.3,
6.50555 5.62975 2.3,
6.5797 5.64097 2.3,
6.5797 5.66381 2.3,
5.80801 5.5944 2.5,
5.87397 5.62124 2.5,
6.06196 5.62975 2.5,
5.98781 5.64097 2.5,
5.98781 5.66381 2.5,
6.10722 5.60561 2.5,
6.16283 5.66381 2.5,
6.38269 5.64097 2.5,
6.38269 5.66381 2.5,
6.46028 5.62975 2.5,
6.50555 5.62975 2.5,
6.5797 5.64097 2.5,
6.5797 5.66381 2.5,
5.96829 6.35714 2.3,
5.80301 6.41922 2.3,
5.96829 6.39827 2.3,
6.4153 6.35714 2.3,
6.4153 6.39827 2.3,
6.54876 6.41922 2.3,
5.96829 6.35714 2.5,
5.80301 6.41922 2.5,
5.96829 6.39827 2.5,
6.4153 6.35714 2.5,
6.4153 6.39827 2.5,
6.54876 6.41922 2.5,
3.70932 7.3566 2.3,
3.70932 7.39772 2.3,
3.84279 7.33641 2.3,
3.92427 7.25184 2.3,
4.02437 7.39772 2.3,
3.70932 7.3566 2.5,
3.70932 7.39772 2.5,
3.84279 7.33641 2.5,
3.92427 7.25184 2.5,
4.02437 7.39772 2.5,
4.73205 7.39772 2.3,
4.74757 7.25184 2.3,
4.89655 7.33641 2.3,
4.73205 7.39772 2.5,
4.74757 7.25184 2.5,
4.89655 7.33641 2.5,
5.03002 7.3566 2.3,
5.03002 7.39772 2.3,
5.51978 7.3566 2.3,
5.51978 7.39772 2.3,
5.65325 7.33641 2.3,
5.03002 7.3566 2.5,
5.03002 7.39772 2.5,
5.51978 7.3566 2.5,
5.51978 7.39772 2.5,
5.65325 7.33641 2.5,
5.80301 6.7653 2.3,
5.92017 6.7653 2.3,
5.80301 6.83515 2.3,
5.88371 6.83515 2.3,
6.07993 6.78606 2.3,
5.99767 6.85008 2.3,
6.07731 6.89489 2.3,
6.12416 6.97346 2.3,
6.13977 7.08966 2.3,
6.12484 7.19945 2.3,
6.19758 6.84833 2.3,
6.27004 6.95056 2.3,
6.2942 7.09121 2.3,
5.80301 6.7653 2.5,
5.92017 6.7653 2.5,
5.80301 6.83515 2.5,
5.88371 6.83515 2.5,
6.07993 6.78606 2.5,
5.99767 6.85008 2.5,
6.07731 6.89489 2.5,
6.12416 6.97346 2.5,
6.13977 7.08966 2.5,
6.12484 7.19945 2.5,
6.19758 6.84833 2.5,
6.27004 6.95056 2.5,
6.2942 7.09121 2.5,
5.80301 7.32787 2.3,
5.87905 7.32787 2.3,
5.91242 7.39772 2.3,
6.08002 7.27278 2.3,
5.99991 7.3141 2.3,
6.19875 7.32109 2.3,
6.4153 7.3566 2.3,
6.54876 7.33641 2.3,
6.4153 7.39772 2.3,
5.80301 7.32787 2.5,
5.87905 7.32787 2.5,
5.91242 7.39772 2.5,
6.08002 7.27278 2.5,
5.99991 7.3141 2.5,
6.19875 7.32109 2.5,
6.4153 7.3566 2.5,
6.54876 7.33641 2.5,
6.4153 7.39772 2.5,
13.2 0 0,
6.85066 1.25807 2.3,
6.87351 1.25807 2.3,
6.70064 1.6564 2.3,
6.8804 1.40809 2.3,
7.13998 1.27143 2.3,
7.13998 1.29428 2.3,
7.21413 1.30592 2.3,
7.25939 1.30592 2.3,
7.33699 1.27143 2.3,
7.33699 1.29428 2.3,
6.85066 1.25807 2.5,
6.87351 1.25807 2.5,
6.70064 1.6564 2.5,
6.8804 1.40809 2.5,
7.13998 1.27143 2.5,
7.13998 1.29428 2.5,
7.21413 1.30592 2.5,
7.25939 1.30592 2.5,
7.33699 1.27143 2.5,
7.33699 1.29428 2.5,
6.71099 1.809 2.3,
6.73039 1.809 2.3,
6.92136 1.82668 2.3,
6.92136 1.84953 2.3,
7.01146 1.81547 2.3,
7.06233 1.81547 2.3,
7.11276 1.82668 2.3,
7.11276 1.84953 2.3,
7.13998 1.82668 2.3,
7.13998 1.84953 2.3,
7.21413 1.81547 2.3,
7.25939 1.79133 2.3,
7.315 1.84953 2.3,
6.71099 1.809 2.5,
6.73039 1.809 2.5,
6.92136 1.82668 2.5,
6.92136 1.84953 2.5,
7.01146 1.81547 2.5,
7.06233 1.81547 2.5,
7.11276 1.82668 2.5,
7.11276 1.84953 2.5,
7.13998 1.82668 2.5,
7.13998 1.84953 2.5,
7.21413 1.81547 2.5,
7.25939 1.79133 2.5,
7.315 1.84953 2.5,
7.61591 1.27143 2.3,
7.65772 1.27143 2.3,
7.77761 1.27143 2.3,
7.77761 1.29428 2.3,
7.61245 1.42145 2.3,
7.85176 1.30592 2.3,
7.89702 1.30592 2.3,
7.97461 1.27143 2.3,
7.97461 1.29428 2.3,
7.61591 1.27143 2.5,
7.65772 1.27143 2.5,
7.77761 1.27143 2.5,
7.77761 1.29428 2.5,
7.61245 1.42145 2.5,
7.85176 1.30592 2.5,
7.89702 1.30592 2.5,
7.97461 1.27143 2.5,
7.97461 1.29428 2.5,
7.53486 1.82668 2.3,
7.53486 1.84953 2.3,
7.61245 1.81547 2.3,
7.65772 1.81547 2.3,
7.73187 1.82668 2.3,
7.73187 1.84953 2.3,
7.77761 1.82668 2.3,
7.77761 1.84953 2.3,
7.89702 1.79133 2.3,
7.85176 1.81547 2.3,
7.95263 1.84953 2.3,
8.17249 1.82668 2.3,
8.17249 1.84953 2.3,
7.53486 1.82668 2.5,
7.53486 1.84953 2.5,
7.61245 1.81547 2.5,
7.65772 1.81547 2.5,
7.73187 1.82668 2.5,
7.73187 1.84953 2.5,
7.77761 1.82668 2.5,
7.77761 1.84953 2.5,
7.89702 1.79133 2.5,
7.85176 1.81547 2.5,
7.95263 1.84953 2.5,
8.17249 1.82668 2.5,
8.17249 1.84953 2.5,
8.25353 1.27143 2.3,
8.29535 1.27143 2.3,
8.41523 1.27143 2.3,
8.41523 1.29428 2.3,
8.48938 1.30592 2.3,
8.53465 1.30592 2.3,
8.61224 1.27143 2.3,
8.61224 1.29428 2.3,
8.25008 1.42145 2.3,
8.89116 1.27143 2.3,
8.93298 1.27143 2.3,
8.88771 1.42145 2.3,
8.25353 1.27143 2.5,
8.29535 1.27143 2.5,
8.41523 1.27143 2.5,
8.41523 1.29428 2.5,
8.48938 1.30592 2.5,
8.53465 1.30592 2.5,
8.61224 1.27143 2.5,
8.61224 1.29428 2.5,
8.25008 1.42145 2.5,
8.89116 1.27143 2.5,
8.93298 1.27143 2.5,
8.88771 1.42145 2.5,
8.25008 1.81547 2.3,
8.29535 1.81547 2.3,
8.3695 1.82668 2.3,
8.3695 1.84953 2.3,
8.41523 1.82668 2.3,
8.41523 1.84953 2.3,
8.53465 1.79133 2.3,
8.48938 1.81547 2.3,
8.59026 1.84953 2.3,
8.81011 1.82668 2.3,
8.81011 1.84953 2.3,
8.88771 1.81547 2.3,
8.93298 1.81547 2.3,
9.00713 1.82668 2.3,
9.00713 1.84953 2.3,
8.25008 1.81547 2.5,
8.29535 1.81547 2.5,
8.3695 1.82668 2.5,
8.3695 1.84953 2.5,
8.41523 1.82668 2.5,
8.41523 1.84953 2.5,
8.53465 1.79133 2.5,
8.48938 1.81547 2.5,
8.59026 1.84953 2.5,
8.81011 1.82668 2.5,
8.81011 1.84953 2.5,
8.88771 1.81547 2.5,
8.93298 1.81547 2.5,
9.00713 1.82668 2.5,
9.00713 1.84953 2.5,
6.6319 2.54286 2.3,
6.6319 2.5657 2.3,
6.70605 2.57734 2.3,
6.78882 2.57734 2.3,
6.86297 2.54286 2.3,
6.86297 2.5657 2.3,
6.92592 2.54286 2.3,
6.92592 2.5657 2.3,
7.00007 2.57734 2.3,
7.08284 2.57734 2.3,
7.15699 2.54286 2.3,
7.15699 2.5657 2.3,
7.21995 2.54286 2.3,
7.21995 2.5657 2.3,
7.2941 2.57734 2.3,
7.37687 2.57734 2.3,
6.6319 2.54286 2.5,
6.6319 2.5657 2.5,
6.70605 2.57734 2.5,
6.78882 2.57734 2.5,
6.86297 2.54286 2.5,
6.86297 2.5657 2.5,
6.92592 2.54286 2.5,
6.92592 2.5657 2.5,
7.00007 2.57734 2.5,
7.08284 2.57734 2.5,
7.15699 2.54286 2.5,
7.15699 2.5657 2.5,
7.21995 2.54286 2.5,
7.21995 2.5657 2.5,
7.2941 2.57734 2.5,
7.37687 2.57734 2.5,
6.6319 3.09811 2.3,
6.6319 3.12096 2.3,
6.70605 3.0869 2.3,
6.78882 3.0869 2.3,
6.86297 3.09811 2.3,
6.86297 3.12096 2.3,
6.92592 3.09811 2.3,
6.92592 3.12096 2.3,
7.00007 3.0869 2.3,
7.08284 3.0869 2.3,
7.15699 3.09811 2.3,
7.15699 3.12096 2.3,
7.21995 3.09811 2.3,
7.21995 3.12096 2.3,
7.2941 3.0869 2.3,
7.37687 3.0869 2.3,
6.6319 3.09811 2.5,
6.6319 3.12096 2.5,
6.70605 3.0869 2.5,
6.78882 3.0869 2.5,
6.86297 3.09811 2.5,
6.86297 3.12096 2.5,
6.92592 3.09811 2.5,
6.92592 3.12096 2.5,
7.00007 3.0869 2.5,
7.08284 3.0869 2.5,
7.15699 3.09811 2.5,
7.15699 3.12096 2.5,
7.21995 3.09811 2.5,
7.21995 3.12096 2.5,
7.2941 3.0869 2.5,
7.37687 3.0869 2.5,
7.45102 2.54286 2.3,
7.45102 2.5657 2.3,
7.45102 2.54286 2.5,
7.45102 2.5657 2.5,
7.45102 3.09811 2.3,
7.45102 3.12096 2.3,
7.45102 3.09811 2.5,
7.45102 3.12096 2.5,
6.71467 3.88218 2.3,
6.80865 3.82479 2.3,
6.84492 3.85545 2.3,
6.93367 3.80567 2.3,
6.93453 3.83886 2.3,
6.98227 3.84182 2.3,
7.03918 3.81245 2.3,
7.02721 3.85071 2.3,
7.06623 3.86456 2.3,
7.09619 3.8824 2.3,
7.13757 3.83282 2.3,
7.21995 3.81429 2.3,
7.21995 3.83713 2.3,
7.2885 3.84877 2.3,
7.3717 3.84877 2.3,
6.71467 3.88218 2.5,
6.80865 3.82479 2.5,
6.84492 3.85545 2.5,
6.93367 3.80567 2.5,
6.93453 3.83886 2.5,
6.98227 3.84182 2.5,
7.03918 3.81245 2.5,
7.02721 3.85071 2.5,
7.06623 3.86456 2.5,
7.09619 3.8824 2.5,
7.13757 3.83282 2.5,
7.21995 3.81429 2.5,
7.21995 3.83713 2.5,
7.2885 3.84877 2.5,
7.3717 3.84877 2.5,
6.65583 3.97406 2.3,
6.77955 3.90524 2.3,
6.73962 3.98651 2.3,
6.63621 4.09665 2.3,
6.72631 4.09752 2.3,
6.65507 4.22765 2.3,
6.73903 4.21628 2.3,
6.77718 4.29927 2.3,
6.71165 4.32233 2.3,
6.80531 4.37972 2.3,
6.84303 4.34809 2.3,
6.93884 4.36436 2.3,
6.97985 4.36183 2.3,
6.93539 4.39885 2.3,
7.11214 3.96862 2.3,
7.14016 3.96862 2.3,
7.2885 4.01862 2.3,
7.3717 4.04104 2.3,
7.3717 4.07984 2.3,
7.41653 4.07984 2.3,
7.10309 4.25055 2.3,
7.13154 4.25055 2.3,
7.05755 4.342 2.3,
7.0201 4.35423 2.3,
7.09015 4.32557 2.3,
7.02883 4.39335 2.3,
7.12895 4.37686 2.3,
7.21435 4.36954 2.3,
7.21435 4.39239 2.3,
7.2885 4.35832 2.3,
7.3717 4.35358 2.3,
7.41394 4.35358 2.3,
6.65583 3.97406 2.5,
6.77955 3.90524 2.5,
6.73962 3.98651 2.5,
6.63621 4.09665 2.5,
6.72631 4.09752 2.5,
6.65507 4.22765 2.5,
6.73903 4.21628 2.5,
6.77718 4.29927 2.5,
6.71165 4.32233 2.5,
6.80531 4.37972 2.5,
6.84303 4.34809 2.5,
6.93884 4.36436 2.5,
6.97985 4.36183 2.5,
6.93539 4.39885 2.5,
7.11214 3.96862 2.5,
7.14016 3.96862 2.5,
7.3717 4.04104 2.5,
7.3717 4.07984 2.5,
7.41653 4.07984 2.5,
7.10309 4.25055 2.5,
7.13154 4.25055 2.5,
7.05755 4.342 2.5,
7.0201 4.35423 2.5,
7.09015 4.32557 2.5,
7.02883 4.39335 2.5,
7.12895 4.37686 2.5,
7.21435 4.36954 2.5,
7.21435 4.39239 2.5,
7.2885 4.35832 2.5,
7.3717 4.35358 2.5,
7.41394 4.35358 2.5,
7.46352 3.81429 2.3,
7.46352 3.83713 2.3,
7.70539 3.81429 2.3,
7.70539 3.83713 2.3,
7.77954 3.84877 2.3,
7.82481 3.84877 2.3,
7.9024 3.81429 2.3,
7.9024 3.83713 2.3,
8.18132 3.81429 2.3,
8.22314 3.81429 2.3,
7.46352 3.81429 2.5,
7.46352 3.83713 2.5,
7.70539 3.81429 2.5,
7.70539 3.83713 2.5,
7.77954 3.84877 2.5,
7.82481 3.84877 2.5,
7.9024 3.81429 2.5,
7.9024 3.83713 2.5,
8.18132 3.81429 2.5,
8.22314 3.81429 2.5,
7.43679 4.04104 2.3,
7.52554 4.05257 2.3,
7.47985 4.08814 2.3,
7.52409 4.11303 2.3,
7.59091 4.08717 2.3,
7.55011 4.15668 2.3,
7.63116 4.14396 2.3,
7.55879 4.22124 2.3,
7.55049 4.28224 2.3,
7.52559 4.32297 2.3,
7.48109 4.34593 2.3,
7.43248 4.39239 2.3,
7.59156 4.34981 2.3,
7.64458 4.2221 2.3,
7.70539 4.36954 2.3,
7.70539 4.39239 2.3,
7.77954 4.35832 2.3,
7.82481 4.33419 2.3,
8.17787 3.96431 2.3,
7.88042 4.39239 2.3,
8.10027 4.36954 2.3,
8.10027 4.39239 2.3,
8.17787 4.35832 2.3,
8.22314 4.35832 2.3,
7.43679 4.04104 2.5,
7.52554 4.05257 2.5,
7.47985 4.08814 2.5,
7.52409 4.11303 2.5,
7.59091 4.08717 2.5,
7.55011 4.15668 2.5,
7.63116 4.14396 2.5,
7.55879 4.22124 2.5,
7.55049 4.28224 2.5,
7.52559 4.32297 2.5,
7.48109 4.34593 2.5,
7.43248 4.39239 2.5,
7.59156 4.34981 2.5,
7.64458 4.2221 2.5,
7.70539 4.36954 2.5,
7.70539 4.39239 2.5,
7.77954 4.35832 2.5,
7.82481 4.33419 2.5,
8.17787 3.96431 2.5,
7.88042 4.39239 2.5,
8.10027 4.36954 2.5,
8.10027 4.39239 2.5,
8.17787 4.35832 2.5,
8.22314 4.35832 2.5,
8.29729 4.36954 2.3,
8.29729 4.39239 2.3,
8.29729 4.36954 2.5,
8.29729 4.39239 2.5,
13.2 0 2.3,
13.2 8.9 0,
6.65583 5.24549 2.3,
6.71467 5.15361 2.3,
6.77955 5.17667 2.3,
6.73962 5.25794 2.3,
6.80865 5.09622 2.3,
6.84492 5.12688 2.3,
6.93367 5.07709 2.3,
6.93453 5.11028 2.3,
6.98227 5.11325 2.3,
6.63621 5.36808 2.3,
6.72631 5.36894 2.3,
6.65507 5.49908 2.3,
6.73903 5.48771 2.3,
7.03918 5.08388 2.3,
7.02721 5.12214 2.3,
7.06623 5.13599 2.3,
7.13757 5.10425 2.3,
7.09619 5.15382 2.3,
7.11214 5.24005 2.3,
7.14016 5.24005 2.3,
7.21995 5.08571 2.3,
7.21995 5.10856 2.3,
7.2885 5.1202 2.3,
7.3717 5.1202 2.3,
7.10309 5.52198 2.3,
7.13154 5.52198 2.3,
7.3717 5.31247 2.3,
7.3717 5.35127 2.3,
7.41653 5.35127 2.3,
6.65583 5.24549 2.5,
6.71467 5.15361 2.5,
6.77955 5.17667 2.5,
6.73962 5.25794 2.5,
6.80865 5.09622 2.5,
6.84492 5.12688 2.5,
6.93367 5.07709 2.5,
6.93453 5.11028 2.5,
6.98227 5.11325 2.5,
6.63621 5.36808 2.5,
6.72631 5.36894 2.5,
6.65507 5.49908 2.5,
6.73903 5.48771 2.5,
7.03918 5.08388 2.5,
7.02721 5.12214 2.5,
7.06623 5.13599 2.5,
7.13757 5.10425 2.5,
7.09619 5.15382 2.5,
7.11214 5.24005 2.5,
7.14016 5.24005 2.5,
7.21995 5.08571 2.5,
7.21995 5.10856 2.5,
7.2885 5.1202 2.5,
7.3717 5.1202 2.5,
7.10309 5.52198 2.5,
7.13154 5.52198 2.5,
7.3717 5.31247 2.5,
7.3717 5.35127 2.5,
7.41653 5.35127 2.5,
7.46352 5.08571 2.3,
7.46352 5.10856 2.3,
7.70539 5.08571 2.3,
7.70539 5.10856 2.3,
7.77954 5.1202 2.3,
7.82481 5.1202 2.3,
7.43679 5.31247 2.3,
7.52554 5.324 2.3,
7.47985 5.35957 2.3,
7.52409 5.38446 2.3,
7.59091 5.35859 2.3,
7.63116 5.41539 2.3,
7.55011 5.42811 2.3,
7.55879 5.49267 2.3,
7.55049 5.55367 2.3,
7.64458 5.49353 2.3,
7.9024 5.08571 2.3,
7.9024 5.10856 2.3,
8.18132 5.08571 2.3,
8.22314 5.08571 2.3,
8.17787 5.23574 2.3,
7.46352 5.08571 2.5,
7.46352 5.10856 2.5,
7.70539 5.08571 2.5,
7.70539 5.10856 2.5,
7.77954 5.1202 2.5,
7.82481 5.1202 2.5,
7.43679 5.31247 2.5,
7.52554 5.324 2.5,
7.47985 5.35957 2.5,
7.52409 5.38446 2.5,
7.59091 5.35859 2.5,
7.63116 5.41539 2.5,
7.55011 5.42811 2.5,
7.55879 5.49267 2.5,
7.55049 5.55367 2.5,
7.64458 5.49353 2.5,
7.9024 5.08571 2.5,
7.9024 5.10856 2.5,
8.18132 5.08571 2.5,
8.22314 5.08571 2.5,
8.17787 5.23574 2.5,
6.71165 5.59376 2.3,
6.77718 5.57069 2.3,
6.80531 5.65115 2.3,
6.84303 5.61952 2.3,
6.93884 5.63579 2.3,
6.93539 5.67028 2.3,
6.97985 5.63326 2.3,
7.0201 5.62566 2.3,
7.05755 5.61343 2.3,
7.09015 5.59699 2.3,
7.02883 5.66478 2.3,
7.12895 5.64829 2.3,
7.21435 5.64097 2.3,
7.21435 5.66381 2.3,
7.2885 5.62975 2.3,
7.3717 5.62501 2.3,
7.41394 5.62501 2.3,
6.71165 5.59376 2.5,
6.77718 5.57069 2.5,
6.80531 5.65115 2.5,
6.84303 5.61952 2.5,
6.93884 5.63579 2.5,
6.93539 5.67028 2.5,
6.97985 5.63326 2.5,
7.0201 5.62566 2.5,
7.05755 5.61343 2.5,
7.09015 5.59699 2.5,
7.02883 5.66478 2.5,
7.12895 5.64829 2.5,
7.21435 5.64097 2.5,
7.21435 5.66381 2.5,
7.2885 5.62975 2.5,
7.3717 5.62501 2.5,
7.41394 5.62501 2.5,
6.83122 6.35714 2.3,
6.69775 6.41922 2.3,
6.83122 6.39827 2.3,
6.9876 6.64473 2.3,
7.26269 6.37606 2.3,
7.09352 6.47935 2.3,
7.21031 6.52087 2.3,
7.13844 6.66714 2.3,
7.32797 6.43124 2.3,
6.83122 6.35714 2.5,
6.69775 6.41922 2.5,
6.83122 6.39827 2.5,
6.9876 6.64473 2.5,
7.26269 6.37606 2.5,
7.09352 6.47935 2.5,
7.21031 6.52087 2.5,
7.13844 6.66714 2.5,
7.32797 6.43124 2.5,
7.52559 5.5944 2.3,
7.48109 5.61736 2.3,
7.43248 5.66381 2.3,
7.59156 5.62124 2.3,
7.70539 5.64097 2.3,
7.70539 5.66381 2.3,
7.77954 5.62975 2.3,
7.82481 5.60561 2.3,
7.88042 5.66381 2.3,
8.10027 5.64097 2.3,
8.10027 5.66381 2.3,
8.17787 5.62975 2.3,
8.22314 5.62975 2.3,
7.52559 5.5944 2.5,
7.48109 5.61736 2.5,
7.43248 5.66381 2.5,
7.59156 5.62124 2.5,
7.70539 5.64097 2.5,
7.70539 5.66381 2.5,
7.77954 5.62975 2.5,
7.82481 5.60561 2.5,
7.88042 5.66381 2.5,
8.10027 5.64097 2.5,
8.10027 5.66381 2.5,
8.17787 5.62975 2.5,
8.22314 5.62975 2.5,
7.48772 6.34163 2.3,
7.67763 6.35385 2.3,
7.48928 6.40137 2.3,
7.57521 6.4067 2.3,
7.6561 6.42271 2.3,
7.72633 6.44764 2.3,
7.78026 6.47974 2.3,
7.80897 6.63494 2.3,
7.85475 6.39051 2.3,
8.03175 6.37499 2.3,
8.16754 6.34997 2.3,
7.85941 6.63494 2.3,
8.02321 6.59382 2.3,
8.10934 6.44793 2.3,
8.14591 6.43202 2.3,
8.19508 6.41844 2.3,
8.24872 6.40913 2.3,
8.07442 6.59382 2.3,
7.48772 6.34163 2.5,
7.67763 6.35385 2.5,
7.48928 6.40137 2.5,
7.57521 6.4067 2.5,
7.6561 6.42271 2.5,
7.72633 6.44764 2.5,
7.78026 6.47974 2.5,
7.80897 6.63494 2.5,
7.85475 6.39051 2.5,
8.03175 6.37499 2.5,
8.16754 6.34997 2.5,
7.85941 6.63494 2.5,
8.02321 6.59382 2.5,
8.10934 6.44793 2.5,
8.14591 6.43202 2.5,
8.19508 6.41844 2.5,
8.24872 6.40913 2.5,
8.07442 6.59382 2.5,
8.29729 5.64097 2.3,
8.29729 5.66381 2.3,
8.29729 5.64097 2.5,
8.29729 5.66381 2.5,
8.31109 6.34163 2.3,
8.46726 6.36141 2.3,
8.29867 6.40603 2.3,
8.4046 6.41999 2.3,
8.47871 6.46189 2.3,
8.58345 6.42078 2.3,
8.65562 6.51525 2.3,
8.52235 6.53639 2.3,
8.5369 6.64813 2.3,
8.81165 6.35714 2.3,
8.81165 6.47121 2.3,
8.67968 6.64038 2.3,
8.91331 6.47664 2.3,
8.95598 6.60235 2.3,
8.98877 6.54435 2.3,
9.05996 6.60623 2.3,
8.31109 6.34163 2.5,
8.46726 6.36141 2.5,
8.29867 6.40603 2.5,
8.4046 6.41999 2.5,
8.47871 6.46189 2.5,
8.58345 6.42078 2.5,
8.65562 6.51525 2.5,
8.52235 6.53639 2.5,
8.5369 6.64813 2.5,
8.81165 6.35714 2.5,
8.81165 6.47121 2.5,
8.67968 6.64038 2.5,
8.91331 6.47664 2.5,
8.95598 6.60235 2.5,
8.98877 6.54435 2.5,
9.05996 6.60623 2.5,
9.44872 6.35714 2.3,
9.44872 6.47664 2.3,
9.44872 6.35714 2.5,
9.44872 6.47664 2.5,
6.9523 6.8654 2.3,
6.98625 7.1012 2.3,
7.11448 6.86696 2.3,
7.13737 7.08073 2.3,
7.20604 7.23011 2.3,
6.9523 6.8654 2.5,
6.98625 7.1012 2.5,
7.11448 6.86696 2.5,
7.13737 7.08073 2.5,
7.20604 7.23011 2.5,
6.69775 7.33641 2.3,
6.83122 7.3566 2.3,
6.83122 7.39772 2.3,
7.08809 7.27162 2.3,
7.32457 7.31799 2.3,
7.25667 7.37492 2.3,
6.69775 7.33641 2.5,
6.83122 7.3566 2.5,
6.83122 7.39772 2.5,
7.08809 7.27162 2.5,
7.32457 7.31799 2.5,
7.25667 7.37492 2.5,
7.79267 7.14242 2.3,
8.20633 6.8685 2.3,
8.20633 6.93213 2.3,
7.84389 7.14242 2.3,
8.05502 7.17579 2.3,
8.10624 7.17579 2.3,
7.79267 7.14242 2.5,
8.20633 6.8685 2.5,
8.20633 6.93213 2.5,
7.84389 7.14242 2.5,
8.05502 7.17579 2.5,
8.10624 7.17579 2.5,
7.49703 7.34728 2.3,
7.57085 7.34272 2.3,
7.49082 7.40936 2.3,
7.6433 7.32904 2.3,
7.71071 7.30703 2.3,
7.7694 7.27745 2.3,
7.65901 7.39946 2.3,
7.83923 7.36978 2.3,
8.13339 7.30304 2.3,
8.17025 7.31983 2.3,
8.21254 7.33292 2.3,
8.05502 7.37599 2.3,
8.1266 7.39277 2.3,
8.1877 7.40276 2.3,
8.24338 7.40771 2.3,
7.49703 7.34728 2.5,
7.57085 7.34272 2.5,
7.49082 7.40936 2.5,
7.6433 7.32904 2.5,
7.71071 7.30703 2.5,
7.7694 7.27745 2.5,
7.65901 7.39946 2.5,
7.83923 7.36978 2.5,
8.13339 7.30304 2.5,
8.17025 7.31983 2.5,
8.21254 7.33292 2.5,
8.05502 7.37599 2.5,
8.1266 7.39277 2.5,
8.1877 7.40276 2.5,
8.24338 7.40771 2.5,
8.3173 6.8623 2.3,
8.3173 6.93912 2.3,
8.41507 6.84493 2.3,
8.40498 6.90187 2.3,
8.52352 6.73824 2.3,
8.48335 6.80371 2.3,
8.52758 6.87345 2.3,
8.5013 6.92952 2.3,
8.61294 6.82078 2.3,
8.39354 6.95502 2.3,
8.44688 6.99343 2.3,
8.47831 7.0559 2.3,
8.57297 6.98141 2.3,
8.6175 7.05639 2.3,
8.48879 7.14398 2.3,
8.63234 7.15329 2.3,
8.66299 6.74329 2.3,
8.84657 7.17579 2.3,
8.89778 7.17579 2.3,
8.3173 6.8623 2.5,
8.3173 6.93912 2.5,
8.41507 6.84493 2.5,
8.40498 6.90187 2.5,
8.52352 6.73824 2.5,
8.48335 6.80371 2.5,
8.52758 6.87345 2.5,
8.5013 6.92952 2.5,
8.61294 6.82078 2.5,
8.39354 6.95502 2.5,
8.44688 6.99343 2.5,
8.47831 7.0559 2.5,
8.57297 6.98141 2.5,
8.6175 7.05639 2.5,
8.48879 7.14398 2.5,
8.63234 7.15329 2.5,
8.66299 6.74329 2.5,
8.84657 7.17579 2.5,
8.89778 7.17579 2.5,
8.25658 7.34137 2.3,
8.29867 7.34418 2.3,
8.44339 7.29645 2.3,
8.38452 7.33225 2.3,
8.29867 7.40936 2.3,
8.47744 7.23448 2.3,
8.54892 7.34534 2.3,
8.84657 7.37599 2.3,
8.92494 7.30304 2.3,
8.96083 7.31983 2.3,
9.00176 7.33292 2.3,
9.04463 7.34137 2.3,
8.97713 7.40102 2.3,
8.25658 7.34137 2.5,
8.29867 7.34418 2.5,
8.44339 7.29645 2.5,
8.38452 7.33225 2.5,
8.29867 7.40936 2.5,
8.47744 7.23448 2.5,
8.54892 7.34534 2.5,
8.84657 7.37599 2.5,
8.92494 7.30304 2.5,
8.96083 7.31983 2.5,
9.00176 7.33292 2.5,
9.04463 7.34137 2.5,
8.97713 7.40102 2.5,
9.07645 6.71254 2.3,
9.16006 6.79944 2.3,
9.19847 6.72835 2.3,
9.21602 6.87588 2.3,
9.29119 6.82001 2.3,
9.35201 6.89664 2.3,
9.25356 6.95463 2.3,
9.27481 7.04038 2.3,
9.27045 7.22661 2.3,
9.39479 6.97365 2.3,
9.4201 7.05328 2.3,
9.28189 7.13776 2.3,
9.42854 7.13776 2.3,
9.07645 6.71254 2.5,
9.16006 6.79944 2.5,
9.19847 6.72835 2.5,
9.21602 6.87588 2.5,
9.29119 6.82001 2.5,
9.35201 6.89664 2.5,
9.25356 6.95463 2.5,
9.27481 7.04038 2.5,
9.27045 7.22661 2.5,
9.39479 6.97365 2.5,
9.4201 7.05328 2.5,
9.28189 7.13776 2.5,
9.42854 7.13776 2.5,
9.08634 7.34418 2.3,
9.17578 7.33099 2.3,
9.23611 7.29141 2.3,
9.08634 7.40936 2.3,
9.23582 7.39161 2.3,
9.3428 7.33836 2.3,
9.40711 7.25271 2.3,
9.08634 7.34418 2.5,
9.17578 7.33099 2.5,
9.23611 7.29141 2.5,
9.08634 7.40936 2.5,
9.23582 7.39161 2.5,
9.3428 7.33836 2.5,
9.40711 7.25271 2.5,
13.2 8.9 2.3
] }

coordIndex [
1,3,20,-1
1,2,3,-1
1,9,2,-1
1,50,9,-1
1,20,21,-1
1,21,229,-1
0,1,401,-1
1,146,147,-1
1,147,148,-1
1,432,433,-1
1,433,438,-1
0,1096,1,-1
4,6,3,-1
22,20,3,-1
22,3,6,-1
9,56,10,-1
51,9,50,-1
52,9,51,-1
52,56,9,-1
5,10,34,-1
5,34,7,-1
34,10,56,-1
8,24,23,-1
24,27,25,-1
8,28,24,-1
7,34,29,-1
27,24,26,-1
28,26,24,-1
29,34,30,-1
30,33,31,-1
33,30,32,-1
34,32,30,-1
1,1096,50,-1
53,55,85,-1
53,85,58,-1
54,59,55,-1
85,55,59,-1
57,75,74,-1
75,78,76,-1
57,79,75,-1
58,81,80,-1
58,82,81,-1
75,77,78,-1
75,79,77,-1
31,33,153,-1
76,78,152,-1
76,153,33,-1
58,85,82,-1
81,84,83,-1
84,81,82,-1
86,61,87,-1
61,118,87,-1
87,118,88,-1
83,152,78,-1
83,84,164,-1
88,164,84,-1
106,60,104,-1
105,124,123,-1
128,105,108,-1
105,128,125,-1
105,125,124,-1
107,120,119,-1
107,122,120,-1
121,119,120,-1
88,118,170,-1
119,170,118,-1
119,121,170,-1
124,127,126,-1
127,124,125,-1
110,130,129,-1
110,735,130,-1
130,735,131,-1
126,859,121,-1
126,127,865,-1
131,865,127,-1
1,225,224,-1
1,224,146,-1
1,227,225,-1
1,229,227,-1
1,148,263,-1
1,263,477,-1
25,157,21,-1
25,27,156,-1
1,466,432,-1
1,464,466,-1
1,469,464,-1
1,473,469,-1
1,477,473,-1
31,156,27,-1
25,156,157,-1
76,152,153,-1
31,153,192,-1
83,161,152,-1
31,192,156,-1
21,157,235,-1
21,234,229,-1
21,235,234,-1
83,165,161,-1
83,164,165,-1
88,167,164,-1
88,171,167,-1
88,170,171,-1
163,162,165,-1
160,192,153,-1
161,165,162,-1
163,165,198,-1
166,198,165,-1
170,121,174,-1
121,859,174,-1
126,863,859,-1
169,168,171,-1
167,171,168,-1
169,171,204,-1
172,204,171,-1
173,175,860,-1
174,860,175,-1
163,194,193,-1
163,196,194,-1
163,198,196,-1
194,197,195,-1
197,194,196,-1
169,200,199,-1
169,202,200,-1
169,204,202,-1
173,206,205,-1
173,891,206,-1
200,203,201,-1
203,200,202,-1
206,892,207,-1
235,157,239,-1
236,234,235,-1
234,236,237,-1
258,279,260,-1
226,279,259,-1
228,279,226,-1
230,280,228,-1
231,280,230,-1
232,280,231,-1
259,279,258,-1
228,280,279,-1
260,279,261,-1
261,279,262,-1
262,279,265,-1
281,269,279,-1
266,265,279,-1
266,279,268,-1
268,279,269,-1
269,281,270,-1
233,280,232,-1
234,237,285,-1
233,272,280,-1
273,283,272,-1
234,285,273,-1
238,240,274,-1
274,240,276,-1
276,240,338,-1
277,278,275,-1
278,340,275,-1
340,341,275,-1
272,283,280,-1
285,283,273,-1
280,283,282,-1
284,282,283,-1
287,286,275,-1
344,346,275,-1
288,287,275,-1
346,288,275,-1
195,239,157,-1
195,322,239,-1
195,325,322,-1
239,323,240,-1
323,239,322,-1
195,328,325,-1
195,329,328,-1
195,197,943,-1
201,943,197,-1
195,932,329,-1
195,934,932,-1
325,328,327,-1
240,323,338,-1
324,339,323,-1
338,323,339,-1
339,324,342,-1
341,343,275,-1
342,324,345,-1
327,351,326,-1
324,349,345,-1
343,344,275,-1
345,348,347,-1
350,347,348,-1
348,345,349,-1
351,327,328,-1
964,329,961,-1
329,964,966,-1
329,966,357,-1
353,354,352,-1
355,352,354,-1
353,356,354,-1
357,966,358,-1
0,401,382,-1
0,382,1097,-1
382,401,1097,-1
1,384,383,-1
1,383,402,-1
1,402,399,-1
1,385,384,-1
1,386,385,-1
1,387,386,-1
1,388,387,-1
1,399,401,-1
1,438,388,-1
401,399,403,-1
401,403,404,-1
401,404,405,-1
401,405,412,-1
401,412,413,-1
401,413,414,-1
388,438,389,-1
389,439,390,-1
390,439,422,-1
441,424,422,-1
424,441,425,-1
425,441,426,-1
426,441,427,-1
439,389,438,-1
441,422,439,-1
441,644,427,-1
645,427,644,-1
648,406,645,-1
427,645,406,-1
406,654,416,-1
647,443,450,-1
438,433,434,-1
558,440,438,-1
558,450,440,-1
438,434,558,-1
558,451,450,-1
561,451,558,-1
440,450,443,-1
454,451,453,-1
561,453,451,-1
453,561,596,-1
451,454,655,-1
264,477,263,-1
264,267,478,-1
271,478,267,-1
264,479,477,-1
282,478,271,-1
282,284,478,-1
289,478,284,-1
478,289,347,-1
264,478,479,-1
465,481,468,-1
470,481,465,-1
468,481,467,-1
471,481,470,-1
472,481,471,-1
474,481,472,-1
467,481,475,-1
475,481,476,-1
559,481,482,-1
559,482,483,-1
559,476,481,-1
483,560,559,-1
483,562,560,-1
483,566,562,-1
477,479,483,-1
480,481,474,-1
483,482,477,-1
484,486,489,-1
489,486,491,-1
491,486,530,-1
487,483,488,-1
483,487,564,-1
483,564,566,-1
483,570,488,-1
483,572,570,-1
492,493,490,-1
493,531,490,-1
531,534,490,-1
574,573,490,-1
575,574,490,-1
606,575,490,-1
536,606,490,-1
478,347,350,-1
478,350,352,-1
478,352,355,-1
478,355,359,-1
970,485,478,-1
970,486,485,-1
970,478,359,-1
974,486,970,-1
974,524,486,-1
988,528,524,-1
525,486,524,-1
486,525,532,-1
530,486,532,-1
526,532,525,-1
529,611,527,-1
532,526,533,-1
534,535,490,-1
535,536,490,-1
533,608,537,-1
533,526,608,-1
528,538,529,-1
611,529,538,-1
1107,539,1098,-1
540,613,612,-1
539,1107,1109,-1
539,1109,617,-1
540,615,613,-1
539,617,616,-1
564,487,568,-1
564,568,565,-1
561,563,596,-1
596,563,567,-1
596,567,569,-1
488,570,569,-1
571,569,570,-1
569,571,598,-1
576,598,571,-1
607,598,576,-1
596,569,598,-1
596,599,597,-1
596,598,599,-1
537,609,607,-1
610,607,609,-1
609,537,608,-1
607,610,598,-1
612,632,610,-1
632,612,614,-1
614,612,613,-1
618,632,614,-1
1203,632,618,-1
632,1210,635,-1
598,610,632,-1
632,636,634,-1
633,634,670,-1
670,634,671,-1
634,636,674,-1
671,634,674,-1
636,632,635,-1
443,647,442,-1
441,646,644,-1
406,648,654,-1
661,416,654,-1
416,661,663,-1
452,654,648,-1
455,655,454,-1
456,660,656,-1
401,414,1520,-1
456,597,660,-1
597,599,662,-1
597,662,660,-1
600,664,599,-1
664,662,599,-1
660,662,663,-1
660,663,661,-1
673,675,672,-1
675,676,672,-1
676,677,672,-1
697,696,672,-1
700,697,672,-1
699,700,672,-1
677,678,672,-1
678,679,672,-1
679,699,672,-1
674,636,680,-1
703,680,636,-1
637,703,636,-1
680,703,681,-1
681,703,682,-1
701,704,698,-1
682,702,701,-1
704,701,702,-1
702,682,703,-1
1520,414,415,-1
1520,415,416,-1
0,714,1096,-1
0,1097,714,-1
714,1097,1096,-1
1096,54,50,-1
1096,59,54,-1
1096,60,59,-1
717,109,715,-1
720,716,719,-1
716,720,745,-1
721,745,720,-1
716,741,740,-1
716,743,741,-1
716,745,743,-1
724,746,722,-1
746,724,761,-1
718,737,736,-1
718,739,737,-1
738,736,737,-1
131,735,871,-1
736,871,735,-1
736,738,871,-1
741,744,742,-1
744,741,743,-1
742,871,738,-1
742,744,871,-1
747,871,744,-1
723,761,724,-1
764,762,763,-1
762,764,788,-1
766,788,764,-1
762,783,782,-1
762,785,783,-1
762,788,785,-1
768,805,769,-1
769,787,767,-1
787,769,805,-1
765,779,747,-1
765,781,779,-1
780,747,779,-1
783,786,784,-1
786,783,785,-1
747,780,923,-1
784,923,780,-1
784,786,924,-1
789,924,786,-1
813,790,789,-1
813,829,790,-1
791,789,790,-1
789,791,924,-1
832,924,791,-1
1096,104,60,-1
1096,105,104,-1
1096,108,105,-1
1096,109,108,-1
1096,715,109,-1
1096,716,715,-1
1096,719,716,-1
1096,723,719,-1
1096,761,723,-1
1096,762,761,-1
1096,763,762,-1
1096,768,763,-1
1096,805,768,-1
808,806,807,-1
806,808,836,-1
806,831,830,-1
806,833,831,-1
806,836,833,-1
809,836,808,-1
812,835,810,-1
811,814,812,-1
835,812,814,-1
815,842,841,-1
831,834,832,-1
834,831,833,-1
816,838,837,-1
816,840,838,-1
839,837,838,-1
1096,928,843,-1
126,866,863,-1
126,865,866,-1
865,131,869,-1
131,871,869,-1
860,174,859,-1
173,860,893,-1
861,893,860,-1
862,864,866,-1
863,866,864,-1
862,866,899,-1
867,899,866,-1
871,747,923,-1
868,870,872,-1
869,872,870,-1
872,869,871,-1
868,872,905,-1
873,905,872,-1
924,906,874,-1
173,893,891,-1
862,895,894,-1
862,897,895,-1
862,899,897,-1
892,206,891,-1
898,895,897,-1
895,898,896,-1
868,901,900,-1
868,903,901,-1
868,905,903,-1
901,904,902,-1
904,901,903,-1
784,924,923,-1
832,906,924,-1
906,837,927,-1
906,832,834,-1
906,834,837,-1
927,839,928,-1
201,203,943,-1
207,943,203,-1
195,937,934,-1
195,941,937,-1
195,943,941,-1
207,892,942,-1
896,942,892,-1
896,898,942,-1
207,942,943,-1
961,329,931,-1
931,329,932,-1
935,975,933,-1
936,975,935,-1
902,942,898,-1
902,904,942,-1
928,942,904,-1
942,928,1024,-1
938,975,936,-1
963,962,975,-1
933,975,962,-1
977,965,963,-1
977,967,965,-1
969,358,966,-1
358,969,359,-1
970,359,969,-1
968,981,971,-1
977,968,967,-1
971,981,972,-1
972,981,973,-1
939,975,938,-1
940,975,939,-1
977,963,975,-1
977,941,943,-1
977,976,941,-1
977,975,976,-1
977,943,944,-1
978,945,1025,-1
980,1046,979,-1
968,977,981,-1
985,984,981,-1
981,977,982,-1
977,988,982,-1
973,981,984,-1
984,985,983,-1
982,988,987,-1
977,990,988,-1
992,991,979,-1
1054,992,979,-1
1030,1032,1031,-1
978,1026,1044,-1
1027,1044,1026,-1
1027,1045,1044,-1
1045,1027,1048,-1
1046,1047,979,-1
1047,1049,979,-1
1049,1051,979,-1
1028,1048,1027,-1
1048,1028,1050,-1
1050,1028,1060,-1
1051,1052,979,-1
1052,1053,979,-1
1053,1054,979,-1
1050,1060,1057,-1
1057,1058,1056,-1
1058,1057,1060,-1
1031,1061,1029,-1
1061,1031,1032,-1
1065,1063,1064,-1
1062,1064,1063,-1
1062,1066,1064,-1
1033,1092,1067,-1
837,839,927,-1
843,928,839,-1
1096,1024,928,-1
1096,1025,1024,-1
1096,978,1025,-1
1096,1026,978,-1
1096,1030,1026,-1
1096,1032,1030,-1
1096,1033,1032,-1
1096,806,805,-1
1096,807,806,-1
1096,811,807,-1
1096,814,811,-1
1096,815,814,-1
1096,842,815,-1
1096,843,842,-1
1096,1092,1033,-1
1096,1093,1092,-1
1096,1175,1093,-1
1096,1312,1175,-1
1096,1313,1312,-1
1096,1348,1313,-1
1096,1349,1348,-1
986,524,974,-1
987,524,986,-1
987,988,524,-1
989,539,988,-1
988,538,528,-1
988,539,538,-1
989,1102,539,-1
989,1104,1102,-1
1055,1104,989,-1
1056,1104,1055,-1
1056,1058,1104,-1
1059,1111,1104,-1
1059,1114,1111,-1
1059,1118,1114,-1
1099,539,1102,-1
1098,539,1099,-1
1103,1122,1100,-1
1105,1122,1103,-1
1100,1122,1101,-1
1101,1122,1108,-1
1108,1122,1110,-1
1110,1122,1199,-1
1119,1114,1118,-1
1114,1119,1120,-1
1106,1123,1105,-1
1112,1123,1106,-1
1113,1123,1112,-1
1115,1123,1113,-1
1121,1157,1124,-1
1124,1157,1162,-1
1115,1116,1123,-1
1105,1123,1122,-1
1114,1212,1117,-1
1117,1210,1116,-1
1116,1210,1123,-1
1212,1210,1117,-1
1114,1120,1212,-1
1126,1164,1125,-1
1214,1213,1125,-1
1251,1214,1125,-1
1059,1104,1058,-1
1063,1156,1059,-1
1063,1065,1156,-1
1059,1156,1118,-1
1065,1158,1156,-1
1093,1174,1065,-1
1065,1172,1158,-1
1065,1174,1172,-1
1093,1175,1174,-1
1156,1159,1157,-1
1159,1156,1158,-1
1162,1157,1163,-1
1157,1159,1163,-1
1163,1159,1166,-1
1160,1166,1159,-1
1164,1165,1125,-1
1165,1168,1125,-1
1168,1169,1125,-1
1169,1170,1125,-1
1250,1251,1125,-1
1170,1250,1125,-1
1166,1160,1167,-1
1167,1160,1171,-1
1160,1256,1171,-1
1172,1174,1173,-1
1173,1257,1161,-1
1257,1173,1174,-1
1176,1259,1258,-1
1175,1312,1262,-1
1176,1261,1259,-1
1198,617,1109,-1
617,1198,618,-1
1200,618,1198,-1
1203,618,1200,-1
1199,1122,1201,-1
1201,1122,1202,-1
1202,1122,1204,-1
1208,632,1203,-1
1209,632,1208,-1
632,1209,1210,-1
1211,635,1210,-1
1204,1122,1205,-1
1205,1207,1206,-1
1207,1205,1122,-1
1123,1210,1209,-1
635,1211,1232,-1
1232,1237,1234,-1
1235,1234,1237,-1
1234,1352,1233,-1
1234,1235,1352,-1
1211,1236,1232,-1
1236,1211,1276,-1
1237,1232,1236,-1
1171,1254,1253,-1
1254,1171,1256,-1
1255,1253,1254,-1
1252,1285,1211,-1
1253,1285,1252,-1
1253,1255,1285,-1
1260,1258,1259,-1
1258,1285,1255,-1
1285,1258,1260,-1
1313,1286,1260,-1
1276,1211,1277,-1
1277,1211,1284,-1
1285,1284,1211,-1
1278,1374,1240,-1
1279,1377,1278,-1
1280,1377,1279,-1
1281,1377,1280,-1
1285,1260,1286,-1
1284,1285,1288,-1
1284,1288,1287,-1
1293,1287,1288,-1
1289,1292,1293,-1
1289,1291,1292,-1
1289,1290,1291,-1
1318,1293,1292,-1
1287,1293,1324,-1
1313,1316,1286,-1
1316,1313,1317,-1
1317,1313,1321,-1
1313,1325,1321,-1
1319,1293,1318,-1
1320,1293,1319,-1
1323,1293,1320,-1
1420,1287,1324,-1
1324,1293,1323,-1
1325,1313,1348,-1
1326,1321,1325,-1
1321,1326,1322,-1
1322,1326,1329,-1
1322,1329,1327,-1
1480,1327,1329,-1
1328,1349,1330,-1
1330,1349,1331,-1
1331,1349,1482,-1
1482,1349,1484,-1
401,1520,1097,-1
1233,1352,1353,-1
1233,1363,1362,-1
1233,1353,1363,-1
1238,1374,1239,-1
1239,1374,1354,-1
1354,1374,1355,-1
1355,1374,1356,-1
1365,1363,1353,-1
1363,1365,1364,-1
1367,1364,1365,-1
1388,1364,1367,-1
1240,1374,1238,-1
1282,1377,1281,-1
1282,1283,1377,-1
1287,1377,1283,-1
1278,1377,1374,-1
1356,1374,1366,-1
1287,1375,1377,-1
1375,1287,1416,-1
1416,1287,1418,-1
1377,1376,1378,-1
1376,1377,1375,-1
1417,1379,1376,-1
1378,1376,1379,-1
1366,1374,1386,-1
1386,1374,1387,-1
1387,1374,1389,-1
1389,1391,1390,-1
1391,1389,1374,-1
1377,1397,1393,-1
1397,1377,1378,-1
1379,1395,1394,-1
1395,1379,1396,-1
1396,1379,1454,-1
1454,1379,1455,-1
1520,416,663,-1
1520,663,698,-1
1421,1287,1420,-1
1418,1287,1421,-1
1424,1423,1422,-1
1419,1422,1423,-1
1424,1428,1423,-1
1425,1379,1417,-1
1426,1379,1425,-1
1427,1379,1426,-1
1430,1379,1427,-1
1459,1379,1430,-1
1327,1480,1432,-1
1432,1481,1424,-1
1424,1481,1428,-1
1428,1481,1429,-1
1432,1480,1481,-1
1483,1429,1481,-1
1429,1433,1431,-1
1433,1429,1434,-1
1429,1487,1434,-1
1486,1429,1483,-1
1487,1429,1486,-1
1455,1379,1457,-1
1456,1379,1459,-1
1457,1379,1456,-1
1431,1461,1460,-1
1461,1431,1433,-1
1434,1463,1462,-1
1463,1434,1464,-1
1464,1434,1465,-1
1465,1434,1506,-1
1506,1434,1507,-1
1491,1434,1487,-1
1488,1434,1491,-1
1507,1434,1508,-1
1508,1434,1488,-1
1520,698,704,-1
1520,704,1364,-1
1520,1364,1388,-1
1520,1388,1392,-1
1520,1392,1393,-1
1520,1393,1397,-1
1520,1397,1398,-1
1520,1398,1399,-1
1520,1399,1400,-1
1096,1097,1520,-1
1096,1520,1349,-1
1520,1484,1349,-1
1520,1485,1484,-1
1520,1489,1485,-1
1520,1490,1489,-1
1520,1492,1490,-1
1520,1512,1492,-1
1520,1400,1458,-1
1520,1458,1460,-1
1520,1460,1461,-1
1520,1461,1466,-1
1520,1466,1509,-1
1520,1509,1510,-1
1520,1510,1511,-1
1520,1511,1512,-1
11,3,2,-1
12,4,3,-1
18,2,9,-1
13,6,4,-1
11,12,3,-1
12,13,4,-1
11,2,18,-1
14,5,16,-1
11,13,12,-1
11,18,13,-1
13,18,14,-1
13,14,15,-1
16,5,7,-1
15,22,6,-1
13,15,6,-1
14,16,15,-1
15,16,17,-1
17,8,38,-1
15,17,38,-1
14,10,5,-1
19,9,10,-1
18,9,19,-1
14,19,10,-1
14,18,19,-1
17,28,8,-1
16,7,44,-1
17,16,43,-1
35,21,20,-1
37,20,22,-1
36,25,21,-1
38,8,23,-1
39,23,24,-1
40,24,25,-1
15,37,22,-1
35,36,21,-1
35,20,37,-1
35,37,36,-1
36,37,38,-1
36,38,40,-1
15,38,37,-1
38,23,39,-1
36,40,25,-1
39,24,40,-1
38,39,40,-1
44,7,29,-1
41,27,26,-1
43,26,28,-1
42,31,27,-1
45,29,30,-1
46,30,31,-1
47,33,32,-1
49,32,34,-1
48,76,33,-1
17,43,28,-1
16,44,43,-1
41,42,27,-1
43,41,26,-1
42,46,31,-1
43,42,41,-1
43,44,42,-1
44,46,42,-1
44,29,45,-1
45,30,46,-1
47,48,33,-1
47,32,49,-1
44,45,46,-1
47,49,48,-1
48,49,89,-1
62,51,50,-1
63,52,51,-1
64,56,52,-1
66,50,54,-1
65,55,53,-1
67,54,55,-1
62,63,51,-1
62,50,66,-1
63,64,52,-1
62,64,63,-1
62,66,64,-1
64,65,68,-1
65,67,55,-1
65,53,70,-1
66,54,67,-1
64,66,65,-1
65,66,67,-1
68,34,56,-1
70,53,58,-1
69,79,57,-1
64,68,56,-1
68,65,70,-1
68,70,69,-1
89,69,57,-1
68,69,89,-1
70,58,95,-1
70,94,69,-1
72,59,60,-1
71,59,72,-1
71,85,59,-1
73,118,61,-1
100,85,71,-1
72,60,113,-1
100,71,72,-1
100,72,73,-1
72,113,73,-1
101,73,61,-1
89,57,74,-1
90,74,75,-1
91,75,76,-1
95,58,80,-1
92,78,77,-1
94,77,79,-1
93,83,78,-1
68,49,34,-1
68,89,49,-1
48,91,76,-1
89,74,90,-1
90,75,91,-1
48,89,91,-1
89,90,91,-1
69,94,79,-1
70,95,94,-1
92,93,78,-1
92,77,94,-1
92,94,93,-1
93,94,95,-1
93,95,98,-1
96,80,81,-1
98,81,83,-1
97,84,82,-1
100,82,85,-1
99,88,84,-1
101,61,86,-1
102,86,87,-1
103,87,88,-1
95,80,96,-1
93,98,83,-1
96,81,98,-1
100,97,82,-1
97,99,84,-1
95,96,98,-1
100,99,97,-1
100,101,99,-1
99,101,103,-1
100,73,101,-1
101,86,102,-1
99,103,88,-1
102,87,103,-1
101,102,103,-1
112,104,105,-1
111,104,112,-1
113,60,106,-1
111,106,104,-1
114,122,107,-1
137,105,123,-1
113,106,111,-1
113,111,114,-1
73,113,132,-1
113,114,132,-1
112,105,137,-1
111,112,137,-1
111,137,114,-1
114,107,133,-1
116,108,109,-1
115,108,116,-1
115,128,108,-1
116,109,727,-1
115,116,142,-1
116,117,142,-1
115,142,128,-1
117,110,143,-1
133,107,119,-1
132,119,118,-1
134,121,120,-1
136,120,122,-1
135,126,121,-1
73,132,118,-1
114,133,132,-1
132,133,119,-1
114,136,122,-1
114,137,136,-1
134,135,121,-1
136,134,120,-1
136,135,134,-1
136,137,135,-1
138,123,124,-1
140,124,126,-1
139,127,125,-1
142,125,128,-1
141,131,127,-1
143,110,129,-1
144,129,130,-1
145,130,131,-1
135,140,126,-1
137,123,138,-1
138,124,140,-1
139,141,127,-1
142,139,125,-1
135,137,140,-1
137,138,140,-1
142,141,139,-1
142,143,141,-1
117,143,142,-1
141,145,131,-1
143,129,144,-1
144,130,145,-1
141,143,145,-1
143,144,145,-1
149,147,146,-1
150,148,147,-1
149,150,147,-1
150,151,148,-1
154,153,152,-1
155,160,153,-1
154,155,153,-1
154,176,155,-1
158,157,156,-1
158,156,208,-1
158,159,157,-1
158,208,159,-1
177,152,161,-1
178,161,162,-1
179,162,163,-1
176,192,160,-1
180,165,164,-1
181,166,165,-1
182,198,166,-1
154,152,177,-1
155,176,160,-1
177,161,178,-1
179,178,162,-1
154,177,176,-1
176,177,179,-1
179,177,178,-1
179,163,209,-1
176,179,208,-1
180,181,165,-1
180,164,183,-1
181,182,166,-1
180,182,181,-1
180,183,182,-1
182,185,214,-1
183,164,167,-1
184,167,168,-1
185,168,169,-1
186,171,170,-1
187,172,171,-1
190,170,174,-1
191,174,175,-1
189,175,173,-1
188,204,172,-1
185,184,168,-1
183,167,184,-1
186,187,171,-1
187,188,172,-1
182,183,185,-1
185,183,184,-1
186,188,187,-1
185,169,215,-1
186,170,190,-1
189,191,175,-1
190,174,191,-1
186,190,188,-1
188,190,189,-1
189,190,191,-1
189,173,221,-1
188,189,220,-1
209,163,193,-1
176,208,192,-1
179,209,208,-1
182,214,198,-1
185,215,214,-1
208,156,192,-1
159,195,157,-1
210,193,194,-1
211,194,195,-1
212,197,196,-1
214,196,198,-1
213,201,197,-1
159,211,195,-1
209,193,210,-1
210,194,211,-1
159,208,209,-1
159,209,211,-1
209,210,211,-1
212,213,197,-1
212,196,214,-1
212,214,213,-1
213,214,215,-1
213,215,217,-1
215,169,199,-1
221,173,205,-1
188,220,204,-1
189,221,220,-1
216,199,200,-1
217,200,201,-1
218,203,202,-1
220,202,204,-1
219,207,203,-1
222,205,206,-1
223,206,207,-1
215,199,216,-1
213,217,201,-1
216,200,217,-1
218,219,203,-1
218,202,220,-1
215,216,217,-1
218,220,219,-1
219,223,207,-1
221,205,222,-1
222,206,223,-1
219,220,221,-1
219,221,223,-1
221,222,223,-1
242,224,225,-1
291,226,259,-1
244,225,227,-1
243,228,226,-1
245,230,228,-1
246,227,229,-1
247,231,230,-1
248,232,231,-1
249,233,232,-1
241,224,242,-1
242,225,244,-1
291,243,226,-1
241,242,291,-1
242,243,291,-1
242,244,243,-1
244,227,246,-1
243,245,228,-1
245,247,230,-1
246,229,251,-1
247,248,231,-1
248,249,232,-1
243,244,245,-1
244,247,245,-1
244,246,247,-1
247,246,248,-1
246,249,248,-1
251,229,234,-1
252,236,235,-1
253,237,236,-1
256,235,239,-1
255,240,238,-1
257,239,240,-1
249,250,233,-1
251,234,305,-1
252,253,236,-1
253,254,237,-1
246,251,249,-1
249,251,250,-1
252,254,253,-1
252,235,256,-1
256,239,257,-1
255,257,240,-1
252,255,254,-1
252,256,255,-1
255,256,257,-1
241,146,224,-1
290,259,258,-1
292,258,260,-1
241,149,146,-1
291,259,290,-1
290,258,292,-1
241,290,149,-1
241,291,290,-1
149,290,292,-1
292,260,293,-1
149,292,150,-1
150,292,151,-1
293,260,261,-1
151,263,148,-1
294,261,262,-1
295,264,263,-1
297,262,265,-1
296,267,264,-1
298,265,266,-1
300,266,268,-1
299,271,267,-1
301,268,269,-1
313,270,281,-1
302,269,270,-1
303,282,271,-1
151,295,263,-1
293,261,294,-1
292,293,151,-1
151,293,295,-1
295,293,294,-1
294,262,297,-1
295,296,264,-1
295,294,296,-1
294,297,296,-1
296,297,299,-1
297,265,298,-1
298,266,300,-1
296,299,267,-1
300,268,301,-1
302,270,313,-1
301,269,302,-1
299,303,271,-1
297,298,299,-1
298,300,299,-1
300,301,303,-1
301,302,303,-1
303,302,314,-1
299,300,303,-1
250,272,233,-1
305,234,273,-1
304,273,272,-1
254,285,237,-1
306,238,274,-1
307,277,275,-1
308,274,276,-1
309,278,277,-1
250,304,272,-1
304,305,273,-1
250,251,305,-1
250,305,304,-1
255,238,306,-1
254,255,306,-1
254,306,307,-1
307,275,318,-1
306,274,308,-1
307,309,277,-1
308,276,360,-1
309,310,278,-1
254,307,317,-1
306,309,307,-1
306,308,309,-1
308,360,310,-1
308,310,309,-1
311,281,279,-1
312,279,280,-1
314,280,282,-1
315,284,283,-1
317,283,285,-1
318,275,286,-1
316,289,284,-1
319,286,287,-1
320,287,288,-1
321,347,289,-1
311,279,312,-1
311,313,281,-1
312,280,314,-1
311,312,313,-1
303,314,282,-1
315,283,317,-1
315,316,284,-1
313,312,314,-1
302,313,314,-1
315,317,316,-1
254,317,285,-1
307,318,317,-1
318,286,319,-1
316,321,289,-1
319,287,320,-1
317,318,321,-1
316,317,321,-1
318,319,321,-1
319,320,321,-1
330,323,322,-1
331,324,323,-1
333,322,325,-1
334,327,326,-1
335,325,327,-1
330,322,333,-1
330,331,323,-1
331,332,324,-1
333,325,335,-1
335,327,334,-1
330,332,331,-1
330,333,332,-1
332,333,334,-1
333,335,334,-1
337,328,329,-1
336,328,337,-1
360,276,338,-1
310,340,278,-1
361,338,339,-1
362,341,340,-1
364,339,342,-1
360,338,361,-1
310,362,340,-1
362,363,341,-1
361,339,364,-1
364,342,367,-1
310,360,362,-1
362,360,361,-1
362,361,363,-1
361,364,363,-1
332,371,324,-1
334,326,373,-1
332,334,373,-1
363,343,341,-1
366,346,344,-1
365,344,343,-1
367,342,345,-1
369,345,347,-1
368,288,346,-1
371,349,324,-1
373,326,351,-1
370,350,348,-1
371,348,349,-1
372,352,350,-1
363,365,343,-1
366,368,346,-1
365,366,344,-1
367,345,369,-1
363,364,365,-1
365,367,366,-1
366,367,369,-1
364,367,365,-1
320,288,368,-1
321,369,347,-1
320,368,369,-1
321,320,369,-1
366,369,368,-1
332,373,371,-1
370,348,371,-1
370,372,350,-1
372,374,352,-1
370,371,372,-1
372,371,374,-1
371,373,374,-1
336,351,328,-1
375,356,353,-1
373,336,337,-1
373,351,336,-1
374,375,353,-1
373,337,375,-1
337,329,379,-1
337,379,375,-1
374,353,352,-1
376,355,354,-1
379,329,357,-1
378,354,356,-1
377,359,355,-1
380,357,358,-1
381,358,359,-1
373,375,374,-1
376,377,355,-1
375,378,356,-1
375,379,378,-1
376,354,378,-1
379,357,380,-1
380,358,381,-1
377,381,359,-1
376,378,377,-1
377,378,379,-1
377,379,381,-1
379,380,381,-1
393,384,385,-1
392,383,384,-1
394,385,386,-1
392,384,393,-1
392,391,383,-1
394,393,385,-1
394,386,395,-1
395,386,387,-1
396,387,388,-1
397,388,389,-1
398,389,390,-1
395,387,396,-1
395,396,398,-1
394,429,393,-1
392,393,429,-1
394,395,429,-1
396,388,397,-1
397,389,398,-1
396,397,398,-1
395,398,423,-1
398,390,423,-1
395,423,428,-1
395,428,429,-1
400,403,399,-1
407,400,399,-1
391,402,383,-1
407,399,402,-1
391,407,402,-1
400,408,403,-1
392,429,391,-1
391,429,407,-1
407,429,400,-1
408,404,403,-1
409,405,404,-1
410,412,405,-1
408,409,404,-1
400,417,408,-1
409,410,405,-1
408,410,409,-1
408,417,410,-1
400,418,417,-1
400,419,418,-1
400,420,419,-1
400,429,430,-1
411,427,406,-1
400,430,431,-1
400,431,411,-1
400,421,420,-1
400,411,421,-1
411,406,421,-1
417,413,412,-1
418,414,413,-1
410,417,412,-1
417,418,413,-1
419,415,414,-1
420,416,415,-1
421,406,416,-1
418,419,414,-1
419,420,415,-1
420,421,416,-1
423,390,422,-1
428,422,424,-1
429,424,425,-1
430,425,426,-1
423,422,428,-1
428,424,429,-1
429,425,430,-1
431,426,427,-1
430,426,431,-1
411,431,427,-1
435,433,432,-1
436,434,433,-1
435,436,433,-1
436,437,434,-1
444,439,438,-1
444,445,439,-1
446,438,440,-1
449,440,443,-1
444,438,446,-1
444,447,445,-1
444,446,447,-1
446,440,449,-1
448,446,449,-1
445,441,439,-1
448,443,442,-1
445,447,441,-1
448,449,443,-1
447,446,448,-1
458,450,451,-1
457,450,458,-1
457,647,450,-1
457,458,652,-1
458,451,658,-1
460,454,453,-1
601,453,596,-1
460,461,454,-1
460,462,461,-1
460,453,601,-1
460,601,462,-1
461,455,454,-1
463,597,456,-1
461,462,455,-1
462,601,463,-1
494,466,464,-1
496,432,466,-1
497,468,467,-1
498,465,468,-1
499,464,469,-1
495,470,465,-1
500,471,470,-1
503,469,473,-1
501,472,471,-1
502,474,472,-1
504,480,474,-1
496,466,494,-1
494,464,499,-1
498,495,465,-1
496,494,498,-1
498,494,495,-1
494,499,495,-1
498,468,497,-1
496,435,432,-1
496,498,497,-1
496,497,435,-1
495,500,470,-1
499,469,503,-1
500,501,471,-1
501,502,472,-1
503,473,507,-1
502,504,474,-1
495,499,500,-1
499,501,500,-1
499,503,501,-1
501,503,502,-1
503,504,502,-1
505,467,475,-1
506,475,476,-1
437,558,434,-1
506,476,559,-1
497,467,505,-1
505,475,506,-1
435,497,505,-1
435,505,436,-1
436,505,437,-1
437,577,558,-1
506,559,578,-1
437,505,506,-1
437,506,577,-1
506,578,577,-1
507,473,477,-1
508,479,478,-1
509,483,479,-1
510,481,480,-1
512,477,482,-1
511,482,481,-1
515,478,485,-1
514,486,484,-1
516,485,486,-1
519,484,489,-1
508,509,479,-1
509,513,483,-1
503,507,504,-1
504,507,510,-1
508,513,509,-1
504,510,480,-1
510,511,481,-1
507,477,512,-1
511,512,482,-1
510,507,512,-1
510,512,511,-1
508,478,515,-1
514,516,486,-1
515,485,516,-1
508,514,513,-1
508,515,514,-1
514,515,516,-1
514,484,519,-1
513,514,519,-1
513,519,520,-1
518,487,488,-1
517,568,487,-1
520,492,490,-1
521,489,491,-1
522,493,492,-1
591,572,483,-1
592,490,573,-1
517,487,518,-1
517,518,587,-1
513,591,483,-1
519,489,521,-1
520,522,492,-1
521,491,547,-1
522,523,493,-1
519,522,520,-1
513,520,591,-1
519,521,522,-1
522,521,523,-1
521,547,523,-1
520,490,592,-1
520,592,591,-1
541,525,524,-1
542,526,525,-1
545,524,528,-1
544,529,527,-1
546,528,529,-1
541,542,525,-1
541,524,545,-1
542,543,526,-1
545,528,546,-1
544,546,529,-1
541,543,542,-1
541,545,543,-1
543,545,544,-1
544,545,546,-1
544,527,624,-1
543,544,624,-1
547,491,530,-1
549,530,532,-1
523,531,493,-1
548,534,531,-1
550,532,533,-1
551,535,534,-1
552,536,535,-1
554,533,537,-1
621,608,526,-1
624,527,611,-1
547,530,549,-1
523,548,531,-1
548,551,534,-1
549,532,550,-1
523,547,548,-1
548,547,549,-1
548,549,551,-1
549,550,551,-1
551,552,535,-1
552,553,536,-1
550,533,554,-1
554,537,620,-1
551,550,552,-1
552,554,553,-1
554,620,553,-1
552,550,554,-1
543,621,526,-1
543,624,621,-1
555,611,538,-1
556,538,539,-1
624,555,556,-1
555,538,556,-1
556,539,629,-1
625,540,612,-1
557,615,540,-1
629,539,616,-1
625,557,540,-1
624,556,557,-1
624,611,555,-1
624,557,625,-1
557,556,629,-1
557,628,615,-1
557,629,628,-1
577,561,558,-1
579,559,560,-1
580,563,561,-1
581,560,562,-1
585,562,566,-1
582,567,563,-1
583,566,564,-1
584,564,565,-1
587,565,568,-1
586,569,567,-1
578,559,579,-1
577,580,561,-1
577,578,580,-1
578,579,580,-1
579,582,580,-1
579,560,581,-1
580,582,563,-1
581,562,585,-1
585,566,583,-1
583,564,584,-1
584,565,587,-1
582,586,567,-1
579,581,582,-1
581,585,582,-1
585,586,582,-1
585,583,586,-1
583,584,586,-1
584,588,586,-1
588,488,569,-1
589,571,570,-1
591,570,572,-1
590,576,571,-1
593,573,574,-1
594,574,575,-1
595,607,576,-1
517,587,568,-1
518,488,588,-1
586,588,569,-1
589,590,571,-1
589,570,591,-1
587,518,588,-1
584,587,588,-1
589,591,590,-1
592,573,593,-1
590,595,576,-1
593,574,594,-1
590,591,595,-1
591,592,595,-1
592,593,595,-1
593,594,595,-1
602,596,597,-1
601,596,602,-1
463,601,602,-1
463,602,597,-1
603,599,598,-1
603,604,599,-1
603,598,638,-1
603,605,604,-1
603,638,639,-1
604,600,599,-1
604,605,600,-1
603,639,605,-1
605,639,683,-1
605,683,685,-1
553,606,536,-1
619,575,606,-1
620,537,607,-1
622,610,609,-1
621,609,608,-1
623,612,610,-1
553,619,606,-1
594,575,619,-1
595,620,607,-1
594,619,620,-1
553,620,619,-1
594,620,595,-1
622,623,610,-1
621,622,609,-1
623,625,612,-1
621,623,622,-1
621,625,623,-1
621,624,625,-1
626,614,613,-1
628,613,615,-1
627,618,614,-1
630,616,617,-1
631,617,618,-1
626,627,614,-1
628,626,613,-1
627,631,618,-1
629,616,630,-1
630,617,631,-1
628,627,626,-1
628,629,627,-1
627,629,631,-1
629,630,631,-1
638,598,632,-1
640,632,634,-1
638,632,640,-1
639,638,640,-1
639,634,633,-1
683,633,670,-1
639,633,683,-1
639,640,634,-1
641,636,635,-1
641,642,636,-1
641,635,1241,-1
641,643,642,-1
642,637,636,-1
642,643,637,-1
641,1242,643,-1
447,651,441,-1
447,448,652,-1
448,442,652,-1
651,646,441,-1
652,442,647,-1
447,652,651,-1
457,652,647,-1
459,653,652,-1
649,645,644,-1
649,650,645,-1
651,644,646,-1
650,648,645,-1
649,644,651,-1
649,651,650,-1
650,651,653,-1
652,653,651,-1
650,653,648,-1
459,654,452,-1
458,459,652,-1
459,452,653,-1
458,658,459,-1
653,452,648,-1
462,655,455,-1
463,456,659,-1
462,463,658,-1
658,451,655,-1
659,456,656,-1
459,658,657,-1
459,657,654,-1
462,658,655,-1
463,657,658,-1
463,659,657,-1
657,661,654,-1
659,656,665,-1
657,666,661,-1
657,659,666,-1
605,664,600,-1
605,685,669,-1
605,669,664,-1
669,685,705,-1
665,656,660,-1
666,660,661,-1
665,660,666,-1
659,665,666,-1
667,663,662,-1
669,662,664,-1
668,698,663,-1
667,662,669,-1
667,669,668,-1
667,668,663,-1
668,669,707,-1
684,670,671,-1
685,673,672,-1
686,675,673,-1
687,671,674,-1
688,676,675,-1
693,674,680,-1
689,677,676,-1
683,670,684,-1
684,671,687,-1
683,686,685,-1
683,684,686,-1
685,686,673,-1
686,688,675,-1
684,688,686,-1
687,674,693,-1
684,687,688,-1
688,689,676,-1
689,690,677,-1
688,687,689,-1
687,693,689,-1
693,690,689,-1
705,672,696,-1
690,678,677,-1
691,679,678,-1
692,699,679,-1
685,672,705,-1
690,691,678,-1
690,694,691,-1
691,692,679,-1
691,695,692,-1
694,680,681,-1
643,703,637,-1
693,680,694,-1
693,694,690,-1
643,1242,712,-1
695,681,682,-1
694,681,695,-1
691,694,695,-1
710,695,682,-1
692,695,710,-1
643,712,703,-1
706,696,697,-1
709,697,700,-1
708,700,699,-1
707,701,698,-1
705,696,706,-1
706,697,709,-1
669,705,707,-1
705,706,707,-1
706,709,707,-1
668,707,698,-1
709,700,708,-1
692,708,699,-1
707,710,701,-1
707,709,710,-1
692,710,708,-1
709,708,710,-1
710,682,701,-1
711,704,702,-1
712,702,703,-1
713,1364,704,-1
711,702,712,-1
711,712,713,-1
713,712,1368,-1
711,713,704,-1
726,715,716,-1
725,715,726,-1
727,109,717,-1
725,717,715,-1
117,735,110,-1
728,739,718,-1
753,716,740,-1
727,717,725,-1
116,727,117,-1
117,727,748,-1
727,728,748,-1
726,716,753,-1
727,725,728,-1
725,726,753,-1
725,753,728,-1
749,728,718,-1
729,720,719,-1
730,721,720,-1
733,719,723,-1
732,724,722,-1
734,723,724,-1
729,730,720,-1
729,719,733,-1
730,731,721,-1
729,731,730,-1
732,734,724,-1
733,723,734,-1
729,733,731,-1
731,733,732,-1
732,733,734,-1
731,745,721,-1
759,722,746,-1
731,758,745,-1
732,722,759,-1
731,732,759,-1
759,746,770,-1
731,759,758,-1
749,718,736,-1
748,736,735,-1
750,738,737,-1
752,737,739,-1
751,742,738,-1
117,748,735,-1
748,728,749,-1
748,749,736,-1
728,752,739,-1
728,753,752,-1
750,751,738,-1
752,750,737,-1
752,751,750,-1
752,753,751,-1
754,740,741,-1
755,741,742,-1
756,744,743,-1
758,743,745,-1
757,747,744,-1
760,765,747,-1
751,755,742,-1
753,740,754,-1
754,741,755,-1
756,757,744,-1
756,743,758,-1
751,753,755,-1
753,754,755,-1
756,758,757,-1
759,774,760,-1
757,760,747,-1
757,758,760,-1
758,759,760,-1
771,761,762,-1
772,764,763,-1
773,766,764,-1
770,761,771,-1
772,773,764,-1
773,775,766,-1
772,775,773,-1
770,746,761,-1
774,781,765,-1
795,762,782,-1
759,770,771,-1
759,771,774,-1
774,765,760,-1
771,762,795,-1
771,795,774,-1
777,763,768,-1
776,769,767,-1
778,768,769,-1
772,763,777,-1
777,768,778,-1
776,778,769,-1
772,777,775,-1
775,777,776,-1
776,777,778,-1
775,788,766,-1
800,767,787,-1
817,787,805,-1
776,767,800,-1
775,776,800,-1
775,801,788,-1
817,800,787,-1
775,800,801,-1
817,818,800,-1
818,825,800,-1
825,813,802,-1
792,780,779,-1
794,779,781,-1
793,784,780,-1
796,782,783,-1
797,783,784,-1
798,786,785,-1
801,785,788,-1
799,789,786,-1
774,794,781,-1
774,795,794,-1
792,793,780,-1
792,779,794,-1
792,794,793,-1
793,794,795,-1
795,782,796,-1
793,797,784,-1
796,783,797,-1
798,799,786,-1
798,785,801,-1
793,795,797,-1
795,796,797,-1
798,801,799,-1
802,813,789,-1
803,791,790,-1
844,790,829,-1
804,832,791,-1
825,802,800,-1
799,802,789,-1
799,801,802,-1
801,800,802,-1
803,804,791,-1
803,790,844,-1
803,844,804,-1
804,844,845,-1
818,805,806,-1
819,808,807,-1
820,809,808,-1
823,807,811,-1
822,812,810,-1
824,811,812,-1
817,805,818,-1
819,820,808,-1
819,821,820,-1
819,807,823,-1
820,821,809,-1
822,824,812,-1
823,811,824,-1
819,823,821,-1
821,823,822,-1
822,823,824,-1
825,829,813,-1
845,806,830,-1
821,836,809,-1
850,810,835,-1
818,806,845,-1
818,845,825,-1
822,810,850,-1
821,822,850,-1
821,851,836,-1
826,850,835,-1
821,850,851,-1
827,814,815,-1
826,814,827,-1
826,835,814,-1
828,840,816,-1
856,815,841,-1
826,827,850,-1
828,850,827,-1
828,816,852,-1
827,815,856,-1
828,827,856,-1
846,830,831,-1
847,831,832,-1
848,834,833,-1
851,833,836,-1
849,837,834,-1
825,844,829,-1
825,845,844,-1
845,830,846,-1
804,847,832,-1
846,831,847,-1
848,849,834,-1
851,848,833,-1
804,845,847,-1
845,846,847,-1
851,849,848,-1
849,852,837,-1
851,852,849,-1
851,850,852,-1
852,816,837,-1
853,839,838,-1
855,838,840,-1
854,843,839,-1
857,841,842,-1
858,842,843,-1
828,852,850,-1
853,854,839,-1
855,853,838,-1
855,854,853,-1
828,855,840,-1
828,856,855,-1
856,841,857,-1
854,858,843,-1
857,842,858,-1
855,856,854,-1
854,856,858,-1
856,857,858,-1
875,860,859,-1
876,861,860,-1
879,859,863,-1
877,893,861,-1
880,863,864,-1
878,864,862,-1
881,866,865,-1
882,867,866,-1
883,899,867,-1
875,876,860,-1
876,877,861,-1
875,859,879,-1
875,877,876,-1
875,879,877,-1
877,879,878,-1
878,862,910,-1
877,878,909,-1
878,880,864,-1
879,863,880,-1
881,882,866,-1
881,865,885,-1
882,883,867,-1
878,879,880,-1
881,883,882,-1
885,865,869,-1
884,870,868,-1
886,869,870,-1
887,872,871,-1
888,873,872,-1
925,871,923,-1
890,924,874,-1
889,905,873,-1
890,874,906,-1
884,886,870,-1
885,869,886,-1
881,885,883,-1
883,885,884,-1
884,885,886,-1
884,868,916,-1
883,884,915,-1
887,888,872,-1
887,871,925,-1
888,889,873,-1
887,889,888,-1
887,925,889,-1
889,925,890,-1
889,890,921,-1
910,862,894,-1
877,909,893,-1
878,910,909,-1
883,915,899,-1
907,892,891,-1
909,891,893,-1
908,896,892,-1
911,894,895,-1
912,895,896,-1
913,898,897,-1
915,897,899,-1
914,902,898,-1
907,908,892,-1
907,891,909,-1
908,912,896,-1
907,909,908,-1
908,909,910,-1
908,910,912,-1
910,894,911,-1
911,895,912,-1
913,914,898,-1
913,897,915,-1
910,911,912,-1
913,915,914,-1
914,915,916,-1
916,868,900,-1
884,916,915,-1
889,921,905,-1
890,906,922,-1
890,922,921,-1
917,900,901,-1
918,901,902,-1
921,903,905,-1
919,904,903,-1
920,928,904,-1
916,900,917,-1
914,918,902,-1
917,901,918,-1
914,916,918,-1
916,917,918,-1
919,920,904,-1
919,903,921,-1
922,906,929,-1
920,930,928,-1
919,921,920,-1
920,921,922,-1
920,922,930,-1
926,923,924,-1
890,926,924,-1
925,923,926,-1
890,925,926,-1
929,906,927,-1
930,927,928,-1
929,927,930,-1
922,929,930,-1
947,931,932,-1
994,933,962,-1
949,932,934,-1
948,935,933,-1
952,934,937,-1
950,936,935,-1
951,938,936,-1
946,931,947,-1
946,947,994,-1
947,932,949,-1
994,948,933,-1
948,950,935,-1
949,934,952,-1
950,951,936,-1
951,953,938,-1
947,948,994,-1
947,949,948,-1
948,949,950,-1
949,952,951,-1
949,951,950,-1
953,939,938,-1
956,937,941,-1
954,940,939,-1
957,943,942,-1
958,944,943,-1
1034,942,1024,-1
960,1025,945,-1
952,937,956,-1
953,954,939,-1
954,955,940,-1
956,941,1008,-1
951,952,953,-1
952,954,953,-1
952,956,954,-1
956,955,954,-1
957,942,1034,-1
957,958,943,-1
958,959,944,-1
957,959,958,-1
957,960,959,-1
957,1034,960,-1
946,961,931,-1
993,964,961,-1
994,962,963,-1
996,966,964,-1
997,963,965,-1
946,993,961,-1
994,963,995,-1
995,963,997,-1
946,994,995,-1
946,995,993,-1
993,995,997,-1
993,996,964,-1
997,965,999,-1
993,997,996,-1
996,997,998,-1
998,969,966,-1
999,965,967,-1
1000,967,968,-1
1001,970,969,-1
1003,968,971,-1
1004,971,972,-1
1002,974,970,-1
1005,972,973,-1
1015,973,984,-1
1006,986,974,-1
996,998,966,-1
998,1001,969,-1
999,967,1000,-1
998,999,1001,-1
997,999,998,-1
999,1000,1001,-1
1000,968,1003,-1
1001,1002,970,-1
1001,1000,1002,-1
1003,971,1004,-1
1002,1006,974,-1
1004,972,1005,-1
1005,973,1015,-1
1006,1017,986,-1
1000,1003,1002,-1
1002,1003,1006,-1
1003,1004,1006,-1
1004,1005,1006,-1
1005,1015,1017,-1
1006,1005,1017,-1
955,975,940,-1
1008,941,976,-1
1007,976,975,-1
959,977,944,-1
960,945,978,-1
1068,978,1044,-1
1010,980,979,-1
955,1007,975,-1
1007,1008,976,-1
956,1008,955,-1
955,1008,1007,-1
960,978,1009,-1
959,960,1009,-1
959,1009,1010,-1
959,1021,977,-1
1009,978,1068,-1
1010,1011,980,-1
1010,979,1022,-1
959,1010,1021,-1
1009,1011,1010,-1
1009,1068,1011,-1
1012,985,981,-1
1013,981,982,-1
1014,984,983,-1
1016,983,985,-1
1017,987,986,-1
1018,982,987,-1
1019,989,988,-1
1021,990,977,-1
1022,979,991,-1
1021,988,990,-1
1020,1055,989,-1
1023,991,992,-1
1012,981,1013,-1
1012,1016,985,-1
1013,982,1018,-1
1012,1013,1016,-1
1015,984,1014,-1
1014,983,1016,-1
1017,1018,987,-1
1019,1020,989,-1
1015,1014,1017,-1
1014,1018,1017,-1
1014,1016,1018,-1
1013,1018,1016,-1
1021,1010,1022,-1
1019,988,1021,-1
1022,991,1023,-1
1020,1079,1055,-1
1019,1021,1020,-1
1020,1021,1079,-1
1021,1022,1079,-1
1022,1023,1079,-1
1035,1024,1025,-1
1036,1027,1026,-1
1037,1028,1027,-1
1040,1026,1030,-1
1034,1024,1035,-1
960,1035,1025,-1
960,1034,1035,-1
1036,1037,1027,-1
1036,1026,1040,-1
1037,1038,1028,-1
1036,1038,1037,-1
1036,1040,1038,-1
1038,1040,1039,-1
1039,1031,1029,-1
1041,1030,1031,-1
1043,1032,1033,-1
1040,1030,1041,-1
1039,1041,1031,-1
1039,1040,1041,-1
1042,1032,1043,-1
1011,1046,980,-1
1069,1044,1045,-1
1070,1047,1046,-1
1072,1045,1048,-1
1071,1049,1047,-1
1074,1048,1050,-1
1068,1044,1069,-1
1011,1070,1046,-1
1070,1071,1047,-1
1069,1045,1072,-1
1071,1073,1049,-1
1072,1048,1074,-1
1011,1068,1070,-1
1068,1069,1070,-1
1069,1071,1070,-1
1069,1072,1071,-1
1071,1072,1073,-1
1073,1072,1074,-1
1038,1084,1028,-1
1039,1029,1085,-1
1038,1039,1085,-1
1074,1050,1081,-1
1073,1051,1049,-1
1075,1052,1051,-1
1076,1053,1052,-1
1080,1057,1056,-1
1078,992,1054,-1
1077,1054,1053,-1
1079,1056,1055,-1
1081,1050,1057,-1
1084,1060,1028,-1
1085,1029,1061,-1
1082,1059,1058,-1
1084,1058,1060,-1
1083,1063,1059,-1
1073,1075,1051,-1
1075,1076,1052,-1
1076,1077,1053,-1
1081,1057,1080,-1
1073,1074,1075,-1
1075,1074,1081,-1
1075,1081,1076,-1
1076,1081,1080,-1
1023,992,1078,-1
1078,1054,1077,-1
1079,1080,1056,-1
1023,1078,1079,-1
1078,1080,1079,-1
1078,1077,1080,-1
1076,1080,1077,-1
1038,1085,1084,-1
1082,1058,1084,-1
1082,1083,1059,-1
1083,1087,1063,-1
1082,1084,1083,-1
1085,1087,1084,-1
1083,1084,1087,-1
1042,1061,1032,-1
1086,1066,1062,-1
1042,1085,1061,-1
1043,1033,1091,-1
1042,1043,1085,-1
1087,1086,1062,-1
1043,1086,1085,-1
1043,1091,1086,-1
1087,1062,1063,-1
1091,1033,1067,-1
1088,1065,1064,-1
1090,1064,1066,-1
1089,1093,1065,-1
1085,1086,1087,-1
1086,1090,1066,-1
1086,1091,1090,-1
1088,1064,1090,-1
1088,1089,1065,-1
1091,1067,1094,-1
1089,1095,1093,-1
1088,1090,1089,-1
1089,1090,1091,-1
1089,1091,1095,-1
1094,1067,1092,-1
1095,1092,1093,-1
1094,1092,1095,-1
1091,1094,1095,-1
1131,1099,1102,-1
1128,1098,1099,-1
1129,1103,1100,-1
1130,1100,1101,-1
1133,1102,1104,-1
1132,1105,1103,-1
1134,1106,1105,-1
1140,1104,1111,-1
1135,1112,1106,-1
1128,1099,1131,-1
1128,1131,1129,-1
1128,1127,1098,-1
1130,1129,1100,-1
1128,1129,1130,-1
1128,1130,1127,-1
1131,1102,1133,-1
1129,1132,1103,-1
1132,1134,1105,-1
1133,1104,1140,-1
1134,1135,1106,-1
1135,1141,1112,-1
1131,1132,1129,-1
1131,1133,1132,-1
1132,1133,1134,-1
1133,1135,1134,-1
1133,1140,1135,-1
1127,1107,1098,-1
1136,1109,1107,-1
1137,1101,1108,-1
1138,1198,1109,-1
1139,1108,1110,-1
1216,1110,1199,-1
1127,1136,1107,-1
1130,1101,1137,-1
1137,1108,1139,-1
1127,1137,1136,-1
1136,1137,1138,-1
1127,1130,1137,-1
1136,1138,1109,-1
1138,1215,1198,-1
1139,1110,1216,-1
1138,1139,1215,-1
1137,1139,1138,-1
1139,1216,1215,-1
1141,1113,1112,-1
1143,1111,1114,-1
1142,1115,1113,-1
1144,1116,1115,-1
1146,1114,1117,-1
1145,1117,1116,-1
1147,1119,1118,-1
1148,1120,1119,-1
1177,1118,1156,-1
1150,1157,1121,-1
1153,1121,1124,-1
1141,1142,1113,-1
1140,1111,1143,-1
1135,1140,1141,-1
1140,1142,1141,-1
1140,1143,1142,-1
1142,1143,1144,-1
1142,1144,1115,-1
1144,1145,1116,-1
1143,1114,1146,-1
1145,1146,1117,-1
1143,1146,1144,-1
1144,1146,1145,-1
1147,1148,1119,-1
1148,1149,1120,-1
1147,1118,1177,-1
1147,1149,1148,-1
1147,1150,1149,-1
1147,1177,1150,-1
1150,1121,1153,-1
1149,1150,1153,-1
1149,1153,1154,-1
1151,1207,1122,-1
1152,1122,1123,-1
1149,1212,1120,-1
1183,1124,1162,-1
1154,1126,1125,-1
1230,1125,1213,-1
1151,1122,1152,-1
1151,1152,1224,-1
1153,1124,1183,-1
1154,1155,1126,-1
1149,1154,1229,-1
1153,1155,1154,-1
1153,1183,1155,-1
1149,1229,1212,-1
1154,1125,1230,-1
1229,1154,1230,-1
1178,1156,1157,-1
1179,1159,1158,-1
1180,1160,1159,-1
1193,1158,1172,-1
1177,1156,1178,-1
1150,1178,1157,-1
1150,1177,1178,-1
1179,1180,1159,-1
1179,1158,1193,-1
1180,1181,1160,-1
1179,1181,1180,-1
1179,1193,1181,-1
1181,1193,1182,-1
1182,1161,1270,-1
1181,1182,1270,-1
1184,1162,1163,-1
1155,1164,1126,-1
1185,1165,1164,-1
1187,1163,1166,-1
1186,1168,1165,-1
1188,1166,1167,-1
1189,1169,1168,-1
1190,1170,1169,-1
1192,1167,1171,-1
1269,1256,1160,-1
1270,1161,1257,-1
1183,1162,1184,-1
1155,1185,1164,-1
1185,1186,1165,-1
1184,1163,1187,-1
1186,1189,1168,-1
1187,1166,1188,-1
1155,1183,1185,-1
1183,1184,1185,-1
1185,1184,1186,-1
1184,1187,1186,-1
1186,1187,1189,-1
1189,1187,1188,-1
1189,1190,1169,-1
1190,1191,1170,-1
1192,1171,1266,-1
1189,1188,1190,-1
1190,1188,1192,-1
1190,1192,1191,-1
1191,1192,1266,-1
1181,1269,1160,-1
1188,1167,1192,-1
1181,1270,1269,-1
1182,1173,1161,-1
1194,1172,1173,-1
1196,1174,1175,-1
1195,1257,1174,-1
1182,1194,1173,-1
1193,1172,1194,-1
1182,1193,1194,-1
1195,1174,1196,-1
1196,1175,1275,-1
1270,1195,1196,-1
1271,1176,1258,-1
1197,1261,1176,-1
1275,1175,1262,-1
1270,1257,1195,-1
1270,1197,1271,-1
1197,1176,1271,-1
1270,1196,1197,-1
1196,1275,1197,-1
1197,1274,1261,-1
1197,1275,1274,-1
1215,1200,1198,-1
1218,1199,1201,-1
1219,1201,1202,-1
1217,1203,1200,-1
1222,1204,1205,-1
1221,1202,1204,-1
1220,1208,1203,-1
1216,1199,1218,-1
1215,1217,1200,-1
1215,1216,1217,-1
1218,1201,1219,-1
1217,1220,1203,-1
1221,1204,1222,-1
1219,1202,1221,-1
1220,1225,1208,-1
1216,1218,1217,-1
1218,1220,1217,-1
1218,1219,1220,-1
1219,1221,1220,-1
1221,1225,1220,-1
1221,1222,1225,-1
1223,1205,1206,-1
1224,1206,1207,-1
1225,1209,1208,-1
1226,1123,1209,-1
1227,1211,1210,-1
1229,1210,1212,-1
1228,1252,1211,-1
1231,1213,1214,-1
1222,1205,1223,-1
1151,1224,1207,-1
1223,1206,1224,-1
1225,1226,1209,-1
1152,1123,1226,-1
1227,1228,1211,-1
1223,1224,1226,-1
1222,1223,1225,-1
1223,1226,1225,-1
1152,1226,1224,-1
1229,1227,1210,-1
1230,1213,1231,-1
1228,1265,1252,-1
1229,1228,1227,-1
1229,1265,1228,-1
1229,1230,1265,-1
1230,1231,1265,-1
1241,635,1232,-1
1243,1232,1234,-1
641,1241,1242,-1
1242,1241,1243,-1
1241,1232,1243,-1
1242,1234,1233,-1
1242,1243,1234,-1
1294,1236,1276,-1
1245,1236,1294,-1
1245,1294,1249,-1
1246,1235,1237,-1
1245,1237,1236,-1
1248,1238,1239,-1
1247,1240,1238,-1
1249,1278,1240,-1
1245,1246,1237,-1
1245,1247,1246,-1
1244,1235,1246,-1
1247,1238,1248,-1
1244,1246,1248,-1
1246,1247,1248,-1
1247,1249,1240,-1
1245,1249,1247,-1
1264,1214,1251,-1
1263,1251,1250,-1
1265,1253,1252,-1
1191,1250,1170,-1
1266,1171,1253,-1
1267,1255,1254,-1
1269,1254,1256,-1
1268,1258,1255,-1
1231,1214,1264,-1
1264,1251,1263,-1
1191,1263,1250,-1
1265,1266,1253,-1
1231,1264,1265,-1
1264,1266,1265,-1
1191,1266,1263,-1
1264,1263,1266,-1
1267,1268,1255,-1
1269,1267,1254,-1
1268,1271,1258,-1
1269,1268,1267,-1
1269,1271,1268,-1
1269,1270,1271,-1
1272,1260,1259,-1
1274,1259,1261,-1
1273,1313,1260,-1
1272,1273,1260,-1
1274,1272,1259,-1
1275,1262,1314,-1
1273,1315,1313,-1
1274,1273,1272,-1
1274,1275,1273,-1
1275,1315,1273,-1
1295,1276,1277,-1
1302,1277,1284,-1
1294,1276,1295,-1
1294,1296,1249,-1
1294,1297,1296,-1
1294,1295,1297,-1
1295,1277,1302,-1
1297,1295,1298,-1
1296,1279,1278,-1
1297,1280,1279,-1
1298,1281,1280,-1
1299,1282,1281,-1
1300,1283,1282,-1
1301,1287,1283,-1
1296,1278,1249,-1
1296,1297,1279,-1
1297,1298,1280,-1
1298,1299,1281,-1
1299,1300,1282,-1
1295,1299,1298,-1
1295,1302,1299,-1
1299,1302,1300,-1
1300,1302,1305,-1
1300,1301,1283,-1
1300,1305,1301,-1
1304,1285,1286,-1
1303,1285,1304,-1
1304,1286,1332,-1
1303,1304,1308,-1
1304,1310,1309,-1
1304,1332,1310,-1
1306,1288,1285,-1
1305,1284,1287,-1
1306,1293,1288,-1
1307,1290,1289,-1
1308,1291,1290,-1
1309,1292,1291,-1
1311,1289,1293,-1
1302,1284,1305,-1
1303,1306,1285,-1
1301,1305,1287,-1
1307,1308,1290,-1
1311,1307,1289,-1
1309,1291,1308,-1
1309,1310,1292,-1
1303,1308,1307,-1
1303,1307,1306,-1
1304,1309,1308,-1
1306,1311,1293,-1
1306,1307,1311,-1
1314,1262,1312,-1
1315,1312,1313,-1
1314,1312,1315,-1
1275,1314,1315,-1
1332,1286,1316,-1
1333,1316,1317,-1
1332,1316,1333,-1
1310,1332,1334,-1
1334,1332,1335,-1
1332,1333,1335,-1
1333,1317,1337,-1
1310,1318,1292,-1
1334,1319,1318,-1
1335,1320,1319,-1
1337,1317,1321,-1
1336,1323,1320,-1
1338,1321,1322,-1
1339,1324,1323,-1
1310,1334,1318,-1
1334,1335,1319,-1
1335,1336,1320,-1
1335,1333,1336,-1
1336,1339,1323,-1
1337,1321,1338,-1
1333,1337,1336,-1
1337,1339,1336,-1
1337,1338,1339,-1
1339,1340,1324,-1
1339,1338,1340,-1
1340,1338,1343,-1
1341,1326,1325,-1
1341,1325,1350,-1
1342,1329,1326,-1
1343,1322,1327,-1
1346,1328,1330,-1
1347,1330,1331,-1
1345,1480,1329,-1
1341,1342,1326,-1
1341,1344,1342,-1
1338,1322,1343,-1
1343,1327,1451,-1
1344,1328,1346,-1
1342,1344,1345,-1
1341,1350,1344,-1
1342,1345,1329,-1
1346,1330,1347,-1
1344,1346,1345,-1
1345,1346,1347,-1
1345,1347,1493,-1
1350,1325,1348,-1
1344,1349,1328,-1
1351,1348,1349,-1
1344,1351,1349,-1
1344,1350,1351,-1
1347,1331,1495,-1
1350,1348,1351,-1
1244,1352,1235,-1
1357,1353,1352,-1
1242,1233,1368,-1
1244,1357,1352,-1
1368,1233,1362,-1
1242,1368,712,-1
1357,1358,1353,-1
1359,1239,1354,-1
1248,1239,1359,-1
1244,1248,1359,-1
1244,1359,1357,-1
1359,1354,1360,-1
1357,1359,1358,-1
1360,1354,1355,-1
1358,1365,1353,-1
1361,1355,1356,-1
1359,1360,1358,-1
1358,1371,1365,-1
1360,1355,1361,-1
1360,1371,1358,-1
1360,1361,1371,-1
1369,1362,1363,-1
1370,1363,1364,-1
1368,1362,1369,-1
1368,1369,1370,-1
713,1370,1364,-1
713,1368,1370,-1
1369,1363,1370,-1
1371,1367,1365,-1
1372,1356,1366,-1
1373,1388,1367,-1
1371,1373,1367,-1
1371,1361,1373,-1
1361,1356,1372,-1
1372,1366,1401,-1
1361,1372,1373,-1
1373,1372,1403,-1
1373,1403,1388,-1
1383,1374,1377,-1
1380,1391,1374,-1
1380,1374,1383,-1
1380,1383,1406,-1
1381,1376,1375,-1
1382,1417,1376,-1
1381,1375,1435,-1
1381,1382,1376,-1
1381,1435,1382,-1
1385,1378,1379,-1
1383,1377,1408,-1
1384,1378,1385,-1
1385,1379,1409,-1
1384,1385,1409,-1
1401,1366,1386,-1
1402,1386,1387,-1
1404,1387,1389,-1
1403,1392,1388,-1
1405,1389,1390,-1
1406,1390,1391,-1
1407,1393,1392,-1
1401,1386,1402,-1
1402,1387,1404,-1
1372,1401,1403,-1
1403,1401,1402,-1
1402,1404,1407,-1
1403,1407,1392,-1
1403,1402,1407,-1
1405,1390,1406,-1
1405,1404,1389,-1
1380,1406,1391,-1
1405,1407,1404,-1
1406,1383,1408,-1
1405,1406,1408,-1
1405,1408,1407,-1
1407,1408,1393,-1
1408,1377,1393,-1
1384,1397,1378,-1
1409,1379,1394,-1
1410,1394,1395,-1
1411,1395,1396,-1
1467,1396,1454,-1
1412,1398,1397,-1
1413,1399,1398,-1
1414,1400,1399,-1
1384,1412,1397,-1
1409,1394,1410,-1
1410,1395,1411,-1
1411,1396,1467,-1
1384,1409,1412,-1
1412,1409,1413,-1
1409,1410,1413,-1
1410,1411,1414,-1
1411,1467,1415,-1
1412,1413,1398,-1
1413,1414,1399,-1
1414,1415,1400,-1
1410,1414,1413,-1
1411,1415,1414,-1
1435,1375,1416,-1
1436,1425,1417,-1
1437,1416,1418,-1
1438,1422,1419,-1
1340,1420,1324,-1
1439,1421,1420,-1
1443,1432,1424,-1
1440,1418,1421,-1
1441,1424,1422,-1
1442,1419,1423,-1
1435,1416,1437,-1
1382,1436,1417,-1
1437,1418,1440,-1
1436,1444,1425,-1
1438,1419,1442,-1
1435,1436,1382,-1
1435,1444,1436,-1
1435,1437,1438,-1
1437,1441,1438,-1
1435,1438,1444,-1
1438,1442,1444,-1
1340,1439,1420,-1
1440,1421,1439,-1
1443,1451,1432,-1
1440,1439,1443,-1
1340,1451,1439,-1
1340,1343,1451,-1
1439,1451,1443,-1
1438,1441,1422,-1
1442,1423,1447,-1
1443,1424,1441,-1
1437,1440,1441,-1
1440,1443,1441,-1
1444,1426,1425,-1
1445,1427,1426,-1
1447,1423,1428,-1
1446,1430,1427,-1
1448,1428,1429,-1
1449,1459,1430,-1
1450,1429,1431,-1
1444,1445,1426,-1
1444,1442,1445,-1
1445,1446,1427,-1
1447,1428,1448,-1
1448,1429,1450,-1
1442,1447,1445,-1
1445,1447,1446,-1
1446,1447,1448,-1
1446,1448,1449,-1
1446,1449,1430,-1
1449,1472,1459,-1
1450,1431,1473,-1
1449,1450,1472,-1
1448,1450,1449,-1
1451,1327,1432,-1
1345,1493,1480,-1
1453,1433,1434,-1
1452,1433,1453,-1
1453,1434,1475,-1
1452,1453,1475,-1
1468,1454,1455,-1
1470,1455,1457,-1
1469,1457,1456,-1
1415,1458,1400,-1
1471,1460,1458,-1
1472,1456,1459,-1
1473,1431,1460,-1
1467,1454,1468,-1
1468,1455,1470,-1
1472,1469,1456,-1
1469,1470,1457,-1
1467,1468,1471,-1
1468,1470,1471,-1
1471,1470,1473,-1
1415,1471,1458,-1
1467,1471,1415,-1
1471,1473,1460,-1
1472,1473,1469,-1
1472,1450,1473,-1
1469,1473,1470,-1
1452,1461,1433,-1
1475,1434,1462,-1
1476,1462,1463,-1
1477,1463,1464,-1
1478,1464,1465,-1
1513,1465,1506,-1
1474,1466,1461,-1
1479,1509,1466,-1
1452,1474,1461,-1
1475,1462,1476,-1
1476,1463,1477,-1
1477,1464,1478,-1
1478,1465,1513,-1
1452,1475,1474,-1
1474,1475,1476,-1
1474,1476,1479,-1
1476,1477,1479,-1
1477,1478,1479,-1
1478,1513,1516,-1
1474,1479,1466,-1
1479,1516,1509,-1
1479,1478,1516,-1
1493,1481,1480,-1
1495,1331,1482,-1
1497,1482,1484,-1
1494,1483,1481,-1
1496,1486,1483,-1
1498,1484,1485,-1
1502,1485,1489,-1
1493,1494,1481,-1
1495,1482,1497,-1
1347,1495,1493,-1
1493,1495,1494,-1
1494,1495,1497,-1
1494,1496,1483,-1
1496,1499,1486,-1
1494,1497,1496,-1
1496,1498,1499,-1
1497,1484,1498,-1
1498,1485,1502,-1
1497,1498,1496,-1
1499,1498,1502,-1
1499,1487,1486,-1
1500,1491,1487,-1
1504,1488,1491,-1
1503,1489,1490,-1
1505,1490,1492,-1
1519,1492,1512,-1
1499,1500,1487,-1
1500,1504,1491,-1
1504,1501,1488,-1
1502,1489,1503,-1
1503,1490,1505,-1
1499,1502,1500,-1
1500,1502,1503,-1
1500,1503,1504,-1
1505,1492,1519,-1
1503,1505,1504,-1
1504,1519,1501,-1
1504,1505,1519,-1
1514,1506,1507,-1
1501,1508,1488,-1
1515,1507,1508,-1
1516,1510,1509,-1
1517,1511,1510,-1
1518,1512,1511,-1
1513,1506,1514,-1
1515,1508,1501,-1
1514,1507,1515,-1
1513,1514,1516,-1
1514,1515,1517,-1
1515,1518,1517,-1
1516,1517,1510,-1
1516,1514,1517,-1
1517,1518,1511,-1
1519,1512,1518,-1
1515,1501,1518,-1
1501,1519,1518,-1
]

colorPerVertex FALSE

color Color { color [
 0 0 0,
 1 1 1,
 0.976471 0.843137 0.172549, # default colour
] }

colorIndex [
0 0 0 0 0 0 0 0 0 0 0 0 0 0 0 0 0 0 0 0 0 0 0 0 0 0 0 0 0 0 0 0 0 0 0 0 0 0 0 0 0 0 0 0 0 0 0 0 0 0 0 0 0 0 0 0 0 0 0 0 0 0 0 0 0 0 0 0 0 0 0 0 0 0 0 0 0 0 0 0 0 0 0 0 0 0 0 0 0 0 0 0 0 0 0 0 0 0 0 0 0 0 0 0 0 0 0 0 0 0 0 0 0 0 0 0 0 0 0 0 0 0 0 0 0 0 0 0 0 0 0 0 0 0 0 0 0 0 0 0 0 0 0 0 0 0 0 0 0 0 0 0 0 0 0 0 0 0 0 0 0 0 0 0 0 0 0 0 0 0 0 0 0 0 0 0 0 0 0 0 0 0 0 0 0 0 0 0 0 0 0 0 0 0 0 0 0 0 0 0 0 0 0 0 0 0 0 0 0 0 0 0 0 0 0 0 0 0 0 0 0 0 0 0 0 0 0 0 0 0 0 0 0 0 0 0 0 0 0 0 0 0 0 0 0 0 0 0 0 0 0 0 0 0 0 0 0 0 0 0 0 0 0 0 0 0 0 0 0 0 0 0 0 0 0 0 0 0 0 0 0 0 0 0 0 0 0 0 0 0 0 0 0 0 0 0 0 0 0 0 0 0 0 0 0 0 0 0 0 0 0 0 0 0 0 0 0 0 0 0 0 0 0 0 0 0 0 0 0 0 0 0 0 0 0 0 0 0 0 0 0 0 0 0 0 0 0 0 0 0 0 0 0 0 0 0 0 0 0 0 0 0 0 0 0 0 0 0 0 0 0 0 0 0 0 0 0 0 0 0 0 0 0 0 0 0 0 0 0 0 0 0 0 0 0 0 0 0 0 0 0 0 0 0 0 0 0 0 0 0 0 0 0 0 0 0 0 0 0 0 0 0 0 0 0 0 0 0 0 0 0 0 0 0 0 0 0 0 0 0 0 0 0 0 0 0 0 0 0 0 0 0 0 0 0 0 0 0 0 0 0 0 0 0 0 0 0 0 0 0 0 0 0 0 0 0 0 0 0 0 0 0 0 0 0 0 0 0 0 0 0 0 0 0 0 0 0 0 0 0 0 0 0 0 0 0 0 0 0 0 0 0 0 0 0 0 0 0 0 0 0 0 0 0 0 0 0 0 0 0 0 0 0 0 0 0 0 0 0 0 0 0 0 0 0 0 0 0 0 0 0 0 0 0 0 0 0 0 0 0 0 0 0 0 0 0 0 0 0 0 0 0 0 0 0 0 0 0 0 0 0 0 0 0 0 0 0 0 0 0 0 0 0 0 0 0 0 0 0 0 0 0 0 0 0 0 0 0 0 0 0 0 0 0 0 0 0 0 0 0 0 0 0 0 0 0 0 0 0 0 0 0 0 0 0 0 0 0 0 0 0 0 0 0 0 0 0 0 0 0 0 0 0 0 0 0 0 0 0 0 0 0 0 0 0 0 0 0 0 0 0 0 0 0 0 0 0 0 0 0 0 0 0 0 0 0 0 0 0 0 0 0 0 0 0 0 0 0 0 0 0 0 0 0 0 0 0 0 0 0 0 0 0 0 0 0 0 0 0 0 0 0 0 0 0 0 0 0 0 0 0 0 0 0 0 0 0 0 0 0 0 0 0 0 0 0 0 0 0 0 0 0 0 0 0 0 0 0 0 0 0 0 0 0 0 0 0 0 0 0 0 0 0 0 0 0 0 0 0 0 0 0 0 0 0 0 0 0 0 0 0 0 0 0 0 0 0 0 0 0 0 0 0 0 0 0 0 0 0 0 0 0 0 0 0 0 0 0 0 0 0 0 0 1 1 1 1 1 1 1 1 1 1 1 1 1 1 1 1 1 1 1 1 1 1 1 1 1 1 1 1 1 1 1 1 1 1 1 1 1 1 1 1 1 1 1 1 1 1 1 1 1 1 1 1 1 1 1 1 1 1 1 1 1 1 1 1 1 1 1 1 1 1 1 1 1 1 1 1 1 1 1 1 1 1 1 1 1 1 1 1 1 1 1 1 1 1 1 1 1 1 1 1 1 1 1 1 1 1 1 1 1 1 1 1 1 1 1 1 1 1 1 1 1 1 1 1 1 1 1 1 1 1 1 1 1 1 1 1 1 1 1 1 1 1 1 1 1 1 1 1 1 1 1 1 1 1 1 1 1 1 1 1 1 1 1 1 1 1 1 1 1 1 1 1 1 1 1 1 1 1 1 1 1 1 1 1 1 1 1 1 1 1 1 1 1 1 1 1 1 1 1 1 1 1 1 1 1 1 1 1 1 1 1 1 1 1 1 1 1 1 1 1 1 1 1 1 1 1 1 1 1 1 1 1 1 1 1 1 1 1 1 1 1 1 1 1 1 1 1 1 1 1 1 1 1 1 1 1 1 1 1 1 1 1 1 1 1 1 1 1 1 1 1 1 1 1 1 1 1 1 1 1 1 1 1 1 1 1 1 1 1 1 1 1 1 1 1 1 1 1 1 1 1 1 1 1 1 1 1 1 1 1 1 1 1 1 1 1 1 1 1 1 1 1 1 1 1 1 1 1 1 1 1 1 1 1 1 1 1 1 1 1 1 1 1 1 1 1 1 1 1 1 1 1 1 1 1 1 1 1 1 1 1 1 1 1 1 1 1 1 1 1 1 1 1 1 1 1 1 1 1 1 1 1 1 1 1 1 1 1 1 1 1 1 1 1 1 1 1 1 1 1 1 1 1 1 1 1 1 1 1 1 1 1 1 1 1 1 1 1 1 1 1 1 1 1 1 1 1 1 1 1 1 1 1 1 1 1 1 1 1 1 1 1 1 1 1 1 1 1 1 1 1 1 1 1 1 1 1 1 1 1 1 1 1 1 1 1 1 1 1 1 1 1 1 1 1 1 1 1 1 1 1 1 1 1 1 1 1 1 1 1 1 1 1 1 1 1 1 1 1 1 1 1 1 1 1 1 1 1 1 1 1 1 1 1 1 1 1 1 1 1 1 1 1 1 1 1 1 1 1 1 1 1 1 1 1 1 1 1 1 1 1 1 1 1 1 1 1 1 1 1 1 1 1 1 1 1 1 1 1 1 1 1 1 1 1 1 1 1 1 1 1 1 1 1 1 1 1 1 1 1 1 1 1 1 1 1 1 1 1 1 1 1 1 1 1 1 1 1 1 1 1 1 1 1 1 1 1 1 1 1 1 1 1 1 1 1 1 1 1 1 1 1 1 1 1 1 1 1 1 1 1 1 1 1 1 1 1 1 1 1 1 1 1 1 1 1 1 1 1 1 1 1 1 1 1 1 1 1 1 1 1 1 1 1 1 1 1 1 1 1 1 1 1 1 1 1 1 1 1 1 1 1 1 1 1 1 1 1 1 1 1 1 1 1 1 1 1 1 1 1 1 1 1 1 1 1 1 1 1 1 1 1 1 1 1 1 1 1 1 1 1 1 1 1 1 1 1 1 1 1 1 1 1 1 1 1 1 1 1 1 1 1 1 1 1 1 1 1 1 1 1 1 1 1 1 1 1 1 1 1 1 1 1 1 1 1 1 1 1 1 1 1 1 1 1 1 1 1 1 1 1 1 1 1 1 1 1 1 1 1 1 1 1 1 1 1 1 1 1 1 1 1 1 1 1 1 1 1 1 1 1 1 1 1 1 1 1 1 1 1 1 1 1 1 1 1 1 1 1 1 1 1 1 1 1 1 1 1 1 1 1 1 1 1 1 1 1 1 1 1 1 1 1 1 1 1 1 1 1 1 1 1 1 1 1 1 1 1 1 1 1 1 1 1 1 1 1 1 1 1 1 1 1 1 1 1 1 1 1 1 1 1 1 1 1 1 1 1 1 1 1 1 1 1 1 1 1 1 1 1 1 1 1 1 1 1 1 1 1 1 1 1 1 1 1 1 1 1 1 1 1 1 1 1 1 1 1 1 1 1 1 1 1 1 1 1 1 1 1 1 1 1 1 1 1 1 1 1 1 1 1 1 1 1 1 1 1 1 1 1 1 1 1 1 1 1 1 1 1 1 1 1 1 1 1 1 1 1 1 1 1 1 1 1 1 1 1 1 1 1 1 1 1 1 1 1 1 1 1 1 1 1 1 1 1 1 1 1 1 1 1 1 1 1 1 1 1 1 1 1 1 1 1 1 1 1 1 1 1 1 1 1 1 1 1 1 1 1 1 1 1 1 1 1 1 1 1 1 1 1 1 1 1 1 1 1 1 1 1 1 1 1 1 1 1 1 1 1 1 1 1 1 1 1 1 1 1 1 1 1 1 1 1 1 1 1 1 1 1 1 1 1 1 1 1 1 1 1 1 1 1 1 1 1 1 1 1 1 1 1 1 1 1 1 1 1 1 1 1 1 1 1 1 1 1 1 1 1 1 1 1 1 1 1 1 1 1 1 1 1 1 1 1 1 1 1 1 1 1 1 1 1 1 1 1 1 1 1 1 1 1 1 1 1 1 1 1 1 1 1 1 1 1 1 1 1 1 1 1 1 1 1 1 1 1 1 1 1 1 1 1 1 1 1 1 1 1 1 1 1 1 1 1 1 1 1 1 1 1 1 1 1 1 1 1 1 1 1 1 1 1 1 1 1 1 1 1 1 1 1 1 1 1 1 1 1 1 1 1 1 1 1 1 1 1 1 1 1 1 1 1 1 1 1 1 1 1 1 1 1 1 1 1 1 1 1 1 1 1 1 1 1 1 1 1 1 1 1 1 1 1 1 1 1 1 1 1 1 1 1 1 1 1 1 1 1 1 1 1 1 1 1 1 1 1 1 1 1 1 1 1 1 1 1 1 1 1 1 1 1 1 1 1 1 1 1 1 1 1 1 1 1 1 1 1 1 1 1 1 1 1 1 1 1 1 1 1 1 1 1 1 1 1 1 1 1 1 1 1 1 1 1 1 1 1 1 1 1 1 1 1 1 1 1 1 1 1 1 1 1 1 1 1 1 1 1 1 1 1 1 1 1 1 1 1 1 1 1 1 1 1 1 1 1 1 1 1 1 1 1 1 1 1 1 1 1 1 1 1 1 1 1 1 1 1 1 1 1 1 1 1 1 1 1 1 1 1 1 1 1 1 1 1 1 1 1 1 1 1 1 1 1 1 1 1 1 1 1 1 1 1 1 1 1 1 1 1 1 1 1 1 1 1 1 1 1 1 1 1 1 1 1 1 1 1 1 1 1 1 1 1 1 1 1 1 1 1 1 1 1 1 1 1 1 1 1 1 1 1 1 1 1 1 1 1 1 1 1 1 1 1 1 1 1 1 1 1 1 1 1 1 1 1 1 1 1 1 1 1 1 1 1 1 1 1 1 1 1 1 1 1 1 1 1 1 1 1 1 1 1 1 1 1 1 1 1 1 1 1 1 1 1 1 1 1 1 1 1 1 1 1 1 1 1 1 1 1 1 1 1 1 1 1 1 1 1 1 1 1 1 1 1 1 1 1 1 1 1 1 1 1 1 1 1 1 1 1 1 1 1 1 1 1 1 1 1 1 1 1 1 1 1 1 1 1 1 1 1 1 1 1 1 1 1 1 1 1 1 1 1 1 1 1 1 1 1 1 1 1 1 1 1 1 1 1 1 1 1 1 1 1 1 1 1 1 1 1 1 1 1 1 1 1 1 1 1 1 1 1 1 1 1 1 1 1 1 1 1 1 1 1 1 1 1 1 1 1 1 1 1 1 1 1 1 1 1 1 1 1 1 1 1 1 1 1 1 1 1 1 1 1 1 1 1 1 1 1 1 1 1 1 1 1 1 1 1 1 1 1 1 1 1 1 1 1 1 1 1 1 1 1 1 1 1 1 1 1 1 1 1 1 1 1 1 1 1 1 1 1 1 1 1 1 1 1 1 1 1 1 1 1 1 1 1 1 1 1 1 1 1 1 1 1 1 1 1 1 1 1 1 1 1 1 1 1 1 1 1 1 1 1 1 1 1 1 1 1 1 1 1 1 1 1 1 1 1 1 1 1 1 1 1 1 1 1 1 1 1 1 1 1 1 1 1 1 1 1 1 1 1 1 1 1 1 1 1 1 1 1 1 1 1 1 1 1 1 1 1 1 1 1 1 1 1 1 1 1 1 1 1 1 1 1 1 1 1 1 1 1 1 1 1 1 1 1 1 1 1 1 1 1 1 1 1 1 1 1 1 1 1 1 1 1 1 1 1 1 1 1 1 1 1 1 1 1 1 1 1 1 1 1 1 1 1 1 1 1 1 1 1 1 1 1 1 1 1 1 1 1 1 1 1 1 1 1 1 1 1 1 1 1 1 1 1 1 1 1 1 1 1 1 1 1 1 1 1 1 1 1 1 1 1 1 1 1 1 1 1 1 1 1 1 1 1 1 1 1 1 1 1 1 1 1 1 1 1 1 1 1 1 1 1 1 1 1 1 1 1 1 1 1 1 1 1 1 1 1 1 1 1 1 1 1 1 1 1 1 1 1 1 1 1 1 1 1 1 1 1 1 1 1 1 1 1 1 1 1 1 1 1 1 1 1 1 1 1 1 1 1 1 1 1 1 1 1 1 1 1 1 1 1 1 1 1 1 1 1 1 1 1 1 1 1 1 1 1 1 1 1 1 1 1 1 1 1 1 1 1 1 1 1 1 1 1 1 1 1 1 1 1 1 1 1 1 1 1 1 1 1 1 1 1 1 1 1 1 1 1 1 1 1 1 1 1 1 1 1 1 1 1 1 1 1 1 1 1 1 1 1 1 1 1 1 1 1 1 1 1 1 1 1 1 1 1 1 1 1 1 1 1 1 1 1 1 1 1 1 1 1 1 1 1 1 1 1 ]

}

}
