#VRML V2.0 utf8

Shape {

appearance Appearance { material Material {
ambientIntensity 0.3
diffuseColor 0.97647 0.843137 0.172549
specularColor 0.2 0.2 0.2
shininess 0.3
} }

geometry IndexedFaceSet {

creaseAngle 0.5

coord Coordinate { point [
0 0 0,
0 0 1.71,
1.66608 0.7 1.71,
1.66608 0.712579 1.71,
1.71664 0.718987 1.71,
1.76245 0.718987 1.71,
1.71664 0.823893 1.71,
1.76245 0.825317 1.71,
1.75224 0.852611 1.71,
1.66608 0.7 1.91,
1.66608 0.712579 1.91,
1.71664 0.718987 1.91,
1.76245 0.718987 1.91,
1.71664 0.823893 1.91,
1.76245 0.825317 1.91,
1.75224 0.852611 1.91,
1.56901 1.0057 1.71,
1.56901 1.01828 1.71,
1.60485 0.999526 1.71,
1.66086 0.999526 1.71,
1.70358 1.0057 1.71,
1.70358 1.01828 1.71,
1.79876 1.0057 1.71,
1.79876 1.01828 1.71,
1.56901 1.0057 1.91,
1.56901 1.01828 1.91,
1.60485 0.999526 1.91,
1.66086 0.999526 1.91,
1.70358 1.0057 1.91,
1.70358 1.01828 1.91,
1.79876 1.0057 1.91,
1.79876 1.01828 1.91,
1.813 0.7 1.71,
1.813 0.712579 1.71,
2.01714 0.7 1.71,
2.01714 0.712579 1.71,
2.06769 0.718987 1.71,
2.1135 0.718987 1.71,
2.16405 0.7 1.71,
2.16405 0.712579 1.71,
2.06769 0.823893 1.71,
2.1135 0.825317 1.71,
2.10329 0.852611 1.71,
1.813 0.7 1.91,
1.813 0.712579 1.91,
2.01714 0.7 1.91,
2.01714 0.712579 1.91,
2.06769 0.718987 1.91,
2.1135 0.718987 1.91,
2.16405 0.7 1.91,
2.16405 0.712579 1.91,
2.06769 0.823893 1.91,
2.1135 0.825317 1.91,
2.10329 0.852611 1.91,
1.83911 0.999526 1.71,
1.86735 0.999526 1.71,
1.90224 1.0057 1.71,
1.90224 1.01828 1.71,
1.92006 1.0057 1.71,
1.92006 1.01828 1.71,
1.9559 0.999526 1.71,
2.01192 0.999526 1.71,
2.05464 1.0057 1.71,
2.05464 1.01828 1.71,
2.14981 1.0057 1.71,
2.14981 1.01828 1.71,
1.83911 0.999526 1.91,
1.86735 0.999526 1.91,
1.90224 1.0057 1.91,
1.90224 1.01828 1.91,
1.92006 1.0057 1.91,
1.92006 1.01828 1.91,
1.9559 0.999526 1.91,
2.01192 0.999526 1.91,
2.05464 1.0057 1.91,
2.05464 1.01828 1.91,
2.14981 1.0057 1.91,
2.14981 1.01828 1.91,
2.39928 0.692643 1.71,
2.41186 0.692643 1.71,
2.41661 0.77524 1.71,
2.4966 0.911949 1.71,
2.39928 0.692643 1.91,
2.41186 0.692643 1.91,
2.41661 0.77524 1.91,
2.4966 0.911949 1.91,
2.19016 0.999526 1.71,
2.2184 0.999526 1.71,
2.25329 1.0057 1.71,
2.25329 1.01828 1.71,
2.26613 1.0057 1.71,
2.26613 1.01828 1.71,
2.2939 0.999526 1.71,
2.3409 0.999526 1.71,
2.38765 1.0057 1.71,
2.38765 1.01828 1.71,
2.50229 0.995967 1.71,
2.51297 0.995967 1.71,
2.19016 0.999526 1.91,
2.2184 0.999526 1.91,
2.25329 1.0057 1.91,
2.25329 1.01828 1.91,
2.26613 1.0057 1.91,
2.26613 1.01828 1.91,
2.2939 0.999526 1.91,
2.3409 0.999526 1.91,
2.38765 1.0057 1.91,
2.38765 1.01828 1.91,
2.50229 0.995967 1.91,
2.51297 0.995967 1.91,
2.57919 0.692643 1.71,
2.59177 0.692643 1.71,
2.59556 0.77524 1.71,
2.8581 0.692643 1.71,
2.87068 0.692643 1.71,
2.87542 0.77524 1.71,
2.57919 0.692643 1.91,
2.59177 0.692643 1.91,
2.59556 0.77524 1.91,
2.8581 0.692643 1.91,
2.87068 0.692643 1.91,
2.87542 0.77524 1.91,
2.61812 1.0057 1.71,
2.61812 1.01828 1.71,
2.66772 0.999526 1.71,
2.69572 0.999526 1.71,
2.72349 1.0057 1.71,
2.72495 1.0057 1.71,
2.72349 1.01828 1.71,
2.72495 1.01828 1.71,
2.75272 0.999526 1.71,
2.79971 0.999526 1.71,
2.84647 1.0057 1.71,
2.84647 1.01828 1.71,
2.61812 1.0057 1.91,
2.61812 1.01828 1.91,
2.66772 0.999526 1.91,
2.69572 0.999526 1.91,
2.72349 1.0057 1.91,
2.72495 1.0057 1.91,
2.72349 1.01828 1.91,
2.72495 1.01828 1.91,
2.75272 0.999526 1.91,
2.79971 0.999526 1.91,
2.84647 1.0057 1.91,
2.84647 1.01828 1.91,
2.0175 2.13738 1.71,
2.06924 2.10579 1.71,
2.0892 2.12267 1.71,
2.13807 2.09525 1.71,
2.13854 2.11353 1.71,
2.16483 2.11516 1.71,
2.0175 2.13738 1.91,
2.06924 2.10579 1.91,
2.0892 2.12267 1.91,
2.13807 2.09525 1.91,
2.13854 2.11353 1.91,
2.16483 2.11516 1.91,
1.9851 2.18796 1.71,
1.9743 2.25546 1.71,
1.98468 2.32758 1.71,
2.03123 2.19482 1.71,
2.05322 2.15008 1.71,
2.0239 2.25594 1.71,
2.03091 2.32132 1.71,
2.05191 2.36701 1.71,
2.01583 2.37971 1.71,
2.0674 2.41131 1.71,
2.08817 2.39389 1.71,
2.14092 2.40285 1.71,
2.16349 2.40146 1.71,
2.13902 2.42184 1.71,
1.9851 2.18796 1.91,
1.9743 2.25546 1.91,
1.98468 2.32758 1.91,
2.03123 2.19482 1.91,
2.05322 2.15008 1.91,
2.0239 2.25594 1.91,
2.03091 2.32132 1.91,
2.05191 2.36701 1.91,
2.01583 2.37971 1.91,
2.0674 2.41131 1.91,
2.08817 2.39389 1.91,
2.14092 2.40285 1.91,
2.16349 2.40146 1.91,
2.13902 2.42184 1.91,
2.35099 1.4 1.71,
2.35099 1.41258 1.71,
2.38706 1.41899 1.71,
2.41293 1.41899 1.71,
2.44498 1.51084 1.71,
2.45566 1.4 1.71,
2.45566 1.41258 1.71,
2.35099 1.4 1.91,
2.35099 1.41258 1.91,
2.38706 1.41899 1.91,
2.41293 1.41899 1.91,
2.44498 1.51084 1.91,
2.45566 1.4 1.91,
2.45566 1.41258 1.91,
2.45209 1.5322 1.71,
2.50668 1.68671 1.71,
2.49553 1.72089 1.71,
2.45209 1.5322 1.91,
2.50668 1.68671 1.91,
2.49553 1.72089 1.91,
2.55914 1.4 1.71,
2.55914 1.41258 1.71,
2.60186 1.41899 1.71,
2.57029 1.51084 1.71,
2.65336 1.41899 1.71,
2.69371 1.4 1.71,
2.69371 1.41258 1.71,
2.71438 1.4 1.71,
2.71438 1.41258 1.71,
2.75212 1.41899 1.71,
2.79793 1.41899 1.71,
2.84611 1.4 1.71,
2.84611 1.41258 1.71,
2.55914 1.4 1.91,
2.55914 1.41258 1.91,
2.60186 1.41899 1.91,
2.57029 1.51084 1.91,
2.65336 1.41899 1.91,
2.69371 1.4 1.91,
2.69371 1.41258 1.91,
2.71438 1.4 1.91,
2.71438 1.41258 1.91,
2.75212 1.41899 1.91,
2.79793 1.41899 1.91,
2.84611 1.4 1.91,
2.84611 1.41258 1.91,
2.56294 1.5322 1.71,
2.54062 1.72089 1.71,
2.7113 1.7057 1.71,
2.7113 1.71828 1.71,
2.79793 1.53956 1.71,
2.79793 1.56092 1.71,
2.83994 1.56092 1.71,
2.85513 1.53956 1.71,
2.87628 1.56486 1.71,
2.75212 1.69953 1.71,
2.79793 1.69692 1.71,
2.83851 1.69692 1.71,
2.84872 1.71828 1.71,
2.87622 1.69309 1.71,
2.56294 1.5322 1.91,
2.54062 1.72089 1.91,
2.7113 1.7057 1.91,
2.7113 1.71828 1.91,
2.79793 1.53956 1.91,
2.79793 1.56092 1.91,
2.83994 1.56092 1.91,
2.85513 1.53956 1.91,
2.87628 1.56486 1.91,
2.75212 1.69953 1.91,
2.79793 1.69692 1.91,
2.83851 1.69692 1.91,
2.84872 1.71828 1.91,
2.87622 1.69309 1.91,
2.19616 2.09899 1.71,
2.18957 2.12006 1.71,
2.21105 2.12768 1.71,
2.22755 2.1375 1.71,
2.25033 2.11021 1.71,
2.29569 2.1 1.71,
2.29569 2.11258 1.71,
2.33342 2.11899 1.71,
2.37923 2.11899 1.71,
2.42979 2.1 1.71,
2.42979 2.11258 1.71,
2.19616 2.09899 1.91,
2.18957 2.12006 1.91,
2.21105 2.12768 1.91,
2.22755 2.1375 1.91,
2.25033 2.11021 1.91,
2.29569 2.1 1.91,
2.29569 2.11258 1.91,
2.33342 2.11899 1.91,
2.37923 2.11899 1.91,
2.42979 2.1 1.91,
2.42979 2.11258 1.91,
2.23633 2.18497 1.71,
2.25175 2.18497 1.71,
2.23134 2.34019 1.71,
2.24701 2.34019 1.71,
2.18565 2.39727 1.71,
2.20627 2.39054 1.71,
2.19046 2.41881 1.71,
2.22422 2.38149 1.71,
2.24558 2.40973 1.71,
2.2926 2.4057 1.71,
2.2926 2.41828 1.71,
2.33342 2.39953 1.71,
2.37923 2.22484 1.71,
2.37923 2.24621 1.71,
2.41507 2.22484 1.71,
2.40391 2.24621 1.71,
2.43877 2.25077 1.71,
2.46393 2.23119 1.71,
2.46313 2.26448 1.71,
2.47746 2.28851 1.71,
2.49992 2.25024 1.71,
2.52208 2.28151 1.71,
2.37923 2.39692 1.71,
2.40249 2.39692 1.71,
2.43946 2.3927 1.71,
2.41269 2.41828 1.71,
2.48224 2.32405 1.71,
2.47767 2.35764 1.71,
2.52947 2.32453 1.71,
2.46396 2.38006 1.71,
2.50028 2.39484 1.71,
2.23633 2.18497 1.91,
2.25175 2.18497 1.91,
2.23134 2.34019 1.91,
2.24701 2.34019 1.91,
2.18565 2.39727 1.91,
2.20627 2.39054 1.91,
2.19046 2.41881 1.91,
2.22422 2.38149 1.91,
2.24558 2.40973 1.91,
2.2926 2.4057 1.91,
2.2926 2.41828 1.91,
2.33342 2.39953 1.91,
2.37923 2.22484 1.91,
2.37923 2.24621 1.91,
2.41507 2.22484 1.91,
2.40391 2.24621 1.91,
2.43877 2.25077 1.91,
2.46393 2.23119 1.91,
2.46313 2.26448 1.91,
2.47746 2.28851 1.91,
2.49992 2.25024 1.91,
2.52208 2.28151 1.91,
2.37923 2.39692 1.91,
2.40249 2.39692 1.91,
2.43946 2.3927 1.91,
2.41269 2.41828 1.91,
2.48224 2.32405 1.91,
2.47767 2.35764 1.91,
2.52947 2.32453 1.91,
2.46396 2.38006 1.91,
2.50028 2.39484 1.91,
2.56295 2.1 1.71,
2.56295 2.11258 1.71,
2.60377 2.11899 1.71,
2.67142 2.1 1.71,
2.62869 2.11899 1.71,
2.67142 2.11258 1.71,
2.82498 2.1 1.71,
2.848 2.1 1.71,
2.56295 2.1 1.91,
2.56295 2.11258 1.91,
2.60377 2.11899 1.91,
2.67142 2.1 1.91,
2.62869 2.11899 1.91,
2.67142 2.11258 1.91,
2.82498 2.1 1.91,
2.848 2.1 1.91,
2.56295 2.4057 1.71,
2.56295 2.41828 1.71,
2.60377 2.39953 1.71,
2.62869 2.38624 1.71,
2.65931 2.41828 1.71,
2.82308 2.1826 1.71,
2.78036 2.4057 1.71,
2.78036 2.41828 1.71,
2.82308 2.39953 1.71,
2.848 2.39953 1.71,
2.88882 2.4057 1.71,
2.88882 2.41828 1.71,
2.56295 2.4057 1.91,
2.56295 2.41828 1.91,
2.60377 2.39953 1.91,
2.62869 2.38624 1.91,
2.65931 2.41828 1.91,
2.82308 2.1826 1.91,
2.78036 2.4057 1.91,
2.78036 2.41828 1.91,
2.82308 2.39953 1.91,
2.848 2.39953 1.91,
2.88882 2.4057 1.91,
2.88882 2.41828 1.91,
0 4.9 0,
1.3085 3.5 1.71,
1.3085 3.52264 1.71,
1.38199 3.53418 1.71,
1.42684 3.53418 1.71,
1.3085 3.5 1.91,
1.3085 3.52264 1.91,
1.38199 3.53418 1.91,
1.42684 3.53418 1.91,
0.542102 4.27796 1.71,
0.585708 4.21178 1.71,
0.651244 4.16628 1.71,
0.542102 4.27796 1.91,
0.585708 4.21178 1.91,
0.651244 4.16628 1.91,
0 4.9 1.71,
0.527567 4.35508 1.71,
0.542314 4.4343 1.71,
0.586553 4.50003 1.71,
0.6523 4.54428 1.71,
0.527567 4.35508 1.91,
0.542314 4.4343 1.91,
0.586553 4.50003 1.91,
0.6523 4.54428 1.91,
0.73152 4.15111 1.71,
0.81179 4.16628 1.71,
0.877307 4.21178 1.71,
0.920931 4.27796 1.71,
0.73152 4.15111 1.91,
0.81179 4.16628 1.91,
0.877307 4.21178 1.91,
0.920931 4.27796 1.91,
1.3085 4.05026 1.71,
1.3085 4.0729 1.71,
1.38199 4.03915 1.71,
1.42684 3.99258 1.71,
1.3085 4.05026 1.91,
1.3085 4.0729 1.91,
1.38199 4.03915 1.91,
1.42684 3.99258 1.91,
0.73152 4.55904 1.71,
0.810733 4.54428 1.71,
0.876462 4.50003 1.71,
0.935473 4.35508 1.71,
0.92072 4.4343 1.71,
0.73152 4.55904 1.91,
0.810733 4.54428 1.91,
0.876462 4.50003 1.91,
0.935473 4.35508 1.91,
0.92072 4.4343 1.91,
1.9851 2.88796 1.71,
1.9743 2.95546 1.71,
1.98468 3.02758 1.71,
2.06924 2.80579 1.71,
2.0175 2.83738 1.71,
2.03123 2.89482 1.71,
2.05322 2.85008 1.71,
2.0892 2.82267 1.71,
2.13807 2.79525 1.71,
2.13854 2.81353 1.71,
2.16483 2.81516 1.71,
2.0239 2.95594 1.71,
2.03091 3.02132 1.71,
1.9851 2.88796 1.91,
1.9743 2.95546 1.91,
1.98468 3.02758 1.91,
2.06924 2.80579 1.91,
2.0175 2.83738 1.91,
2.03123 2.89482 1.91,
2.05322 2.85008 1.91,
2.0892 2.82267 1.91,
2.13807 2.79525 1.91,
2.13854 2.81353 1.91,
2.16483 2.81516 1.91,
2.0239 2.95594 1.91,
2.03091 3.02132 1.91,
1.50374 3.5 1.71,
1.50374 3.52264 1.71,
1.56669 3.66419 1.71,
1.63661 3.5 1.71,
1.65156 3.5 1.71,
1.80322 3.5 1.71,
1.66822 3.63714 1.71,
1.80322 3.52264 1.71,
1.50374 3.5 1.91,
1.50374 3.52264 1.91,
1.63661 3.5 1.91,
1.65156 3.5 1.91,
1.80322 3.5 1.91,
1.66822 3.63714 1.91,
1.80322 3.52264 1.91,
2.01583 3.07971 1.71,
2.05191 3.06701 1.71,
2.0674 3.11131 1.71,
2.08817 3.09389 1.71,
2.14092 3.10285 1.71,
2.13902 3.12184 1.71,
2.16349 3.10146 1.71,
2.01583 3.07971 1.91,
2.05191 3.06701 1.91,
2.0674 3.11131 1.91,
2.08817 3.09389 1.91,
2.14092 3.10285 1.91,
2.13902 3.12184 1.91,
2.16349 3.10146 1.91,
1.88012 3.53418 1.71,
1.96215 3.53418 1.71,
2.03563 3.5 1.71,
2.03563 3.52264 1.71,
1.88012 3.53418 1.91,
1.96215 3.53418 1.91,
2.03563 3.5 1.91,
2.03563 3.52264 1.91,
2.19616 2.79899 1.71,
2.18957 2.82006 1.71,
2.21105 2.82768 1.71,
2.25033 2.81021 1.71,
2.22755 2.8375 1.71,
2.23633 2.88497 1.71,
2.25175 2.88497 1.71,
2.29569 2.8 1.71,
2.29569 2.81258 1.71,
2.33342 2.81899 1.71,
2.23134 3.04019 1.71,
2.24701 3.04019 1.71,
2.33342 2.92866 1.71,
2.37923 2.81899 1.71,
2.42979 2.8 1.71,
2.42979 2.81258 1.71,
2.37923 2.88956 1.71,
2.37923 2.92484 1.71,
2.37923 2.94621 1.71,
2.41507 2.92484 1.71,
2.40391 2.94621 1.71,
2.43877 2.95077 1.71,
2.46393 2.93119 1.71,
2.46313 2.96448 1.71,
2.49992 2.95024 1.71,
2.52208 2.98151 1.71,
2.47746 2.98851 1.71,
2.48224 3.02405 1.71,
2.47767 3.05764 1.71,
2.52947 3.02453 1.71,
2.19616 2.79899 1.91,
2.18957 2.82006 1.91,
2.21105 2.82768 1.91,
2.25033 2.81021 1.91,
2.22755 2.8375 1.91,
2.23633 2.88497 1.91,
2.25175 2.88497 1.91,
2.29569 2.8 1.91,
2.29569 2.81258 1.91,
2.33342 2.81899 1.91,
2.23134 3.04019 1.91,
2.24701 3.04019 1.91,
2.37923 2.81899 1.91,
2.42979 2.8 1.91,
2.42979 2.81258 1.91,
2.37923 2.92484 1.91,
2.37923 2.94621 1.91,
2.41507 2.92484 1.91,
2.40391 2.94621 1.91,
2.43877 2.95077 1.91,
2.46393 2.93119 1.91,
2.46313 2.96448 1.91,
2.49992 2.95024 1.91,
2.52208 2.98151 1.91,
2.47746 2.98851 1.91,
2.48224 3.02405 1.91,
2.47767 3.05764 1.91,
2.52947 3.02453 1.91,
2.56295 2.8 1.71,
2.56295 2.81258 1.71,
2.60377 2.81899 1.71,
2.62869 2.81899 1.71,
2.67142 2.8 1.71,
2.67142 2.81258 1.71,
2.82498 2.8 1.71,
2.848 2.8 1.71,
2.82308 2.8826 1.71,
2.56295 2.8 1.91,
2.56295 2.81258 1.91,
2.60377 2.81899 1.91,
2.62869 2.81899 1.91,
2.67142 2.8 1.91,
2.67142 2.81258 1.91,
2.82498 2.8 1.91,
2.848 2.8 1.91,
2.82308 2.8826 1.91,
2.18565 3.09727 1.71,
2.20627 3.09054 1.71,
2.19046 3.11881 1.71,
2.22422 3.08149 1.71,
2.24558 3.10973 1.71,
2.2926 3.1057 1.71,
2.2926 3.11828 1.71,
2.33342 3.09953 1.71,
2.37923 3.09692 1.71,
2.40249 3.09692 1.71,
2.43946 3.0927 1.71,
2.41269 3.11828 1.71,
2.46396 3.08006 1.71,
2.50028 3.09484 1.71,
2.18565 3.09727 1.91,
2.20627 3.09054 1.91,
2.19046 3.11881 1.91,
2.22422 3.08149 1.91,
2.24558 3.10973 1.91,
2.2926 3.1057 1.91,
2.2926 3.11828 1.91,
2.33342 3.09953 1.91,
2.37923 3.09692 1.91,
2.40249 3.09692 1.91,
2.43946 3.0927 1.91,
2.41269 3.11828 1.91,
2.46396 3.08006 1.91,
2.50028 3.09484 1.91,
2.31083 3.5 1.71,
2.31083 3.52264 1.71,
2.37875 3.53418 1.71,
2.46121 3.53418 1.71,
2.31083 3.5 1.91,
2.31083 3.52264 1.91,
2.37875 3.53418 1.91,
2.46121 3.53418 1.91,
2.56295 3.1057 1.71,
2.56295 3.11828 1.71,
2.60377 3.09953 1.71,
2.62869 3.08624 1.71,
2.65931 3.11828 1.71,
2.78036 3.1057 1.71,
2.78036 3.11828 1.71,
2.82308 3.09953 1.71,
2.848 3.09953 1.71,
2.88882 3.1057 1.71,
2.88882 3.11828 1.71,
2.56295 3.1057 1.91,
2.56295 3.11828 1.91,
2.60377 3.09953 1.91,
2.62869 3.08624 1.91,
2.65931 3.11828 1.91,
2.78036 3.1057 1.91,
2.78036 3.11828 1.91,
2.82308 3.09953 1.91,
2.848 3.09953 1.91,
2.88882 3.1057 1.91,
2.88882 3.11828 1.91,
2.55221 3.5 1.71,
2.55221 3.52264 1.71,
2.79831 3.5 1.71,
2.79831 3.52264 1.71,
2.87179 3.53418 1.71,
2.55221 3.5 1.91,
2.55221 3.52264 1.91,
2.79831 3.5 1.91,
2.79831 3.52264 1.91,
2.87179 3.53418 1.91,
1.48196 4.0729 1.71,
1.48196 4.0729 1.91,
1.88012 3.99258 1.71,
1.87158 4.0729 1.71,
1.96215 4.03915 1.71,
2.03563 4.05026 1.71,
2.03563 4.0729 1.71,
1.88012 3.99258 1.91,
1.87158 4.0729 1.91,
1.96215 4.03915 1.91,
2.03563 4.05026 1.91,
2.03563 4.0729 1.91,
2.46121 3.72471 1.71,
2.52571 3.72471 1.71,
2.46121 3.76317 1.71,
2.50564 3.76317 1.71,
2.46121 3.72471 1.91,
2.52571 3.72471 1.91,
2.46121 3.76317 1.91,
2.50564 3.76317 1.91,
2.30527 4.05026 1.71,
2.30527 4.0729 1.71,
2.37875 4.03915 1.71,
2.46121 4.03445 1.71,
2.50307 4.03445 1.71,
2.52144 4.0729 1.71,
2.30527 4.05026 1.91,
2.30527 4.0729 1.91,
2.37875 4.03915 1.91,
2.46121 4.03445 1.91,
2.50307 4.03445 1.91,
2.52144 4.0729 1.91,
2.61367 3.73614 1.71,
2.56838 3.77139 1.71,
2.61223 3.79606 1.71,
2.67844 3.77043 1.71,
2.71834 3.82671 1.71,
2.63802 3.83932 1.71,
2.64662 3.90329 1.71,
2.63839 3.96374 1.71,
2.73164 3.90415 1.71,
2.61367 3.73614 1.91,
2.56838 3.77139 1.91,
2.61223 3.79606 1.91,
2.67844 3.77043 1.91,
2.71834 3.82671 1.91,
2.63802 3.83932 1.91,
2.64662 3.90329 1.91,
2.63839 3.96374 1.91,
2.73164 3.90415 1.91,
2.56961 4.02686 1.71,
2.61372 4.00411 1.71,
2.67909 4.03072 1.71,
2.79831 4.05026 1.71,
2.79831 4.0729 1.71,
2.87179 4.03915 1.71,
2.56961 4.02686 1.91,
2.61372 4.00411 1.91,
2.67909 4.03072 1.91,
2.79831 4.05026 1.91,
2.79831 4.0729 1.91,
2.87179 4.03915 1.91,
5.8 0 0,
3.038 0.692643 1.71,
3.05058 0.692643 1.71,
2.95541 0.911949 1.71,
3.05438 0.77524 1.71,
3.19729 0.7 1.71,
3.19729 0.712579 1.71,
3.23812 0.718987 1.71,
3.038 0.692643 1.91,
3.05058 0.692643 1.91,
2.95541 0.911949 1.91,
3.05438 0.77524 1.91,
3.19729 0.7 1.91,
3.19729 0.712579 1.91,
3.23812 0.718987 1.91,
2.9611 0.995967 1.71,
2.97179 0.995967 1.71,
3.07693 1.0057 1.71,
3.07693 1.01828 1.71,
3.12653 0.999526 1.71,
3.15454 0.999526 1.71,
3.18231 1.0057 1.71,
3.18231 1.01828 1.71,
3.19729 1.0057 1.71,
3.19729 1.01828 1.71,
3.23812 0.999526 1.71,
2.9611 0.995967 1.91,
2.97179 0.995967 1.91,
3.07693 1.0057 1.91,
3.07693 1.01828 1.91,
3.12653 0.999526 1.91,
3.15454 0.999526 1.91,
3.18231 1.0057 1.91,
3.18231 1.01828 1.91,
3.19729 1.0057 1.91,
3.19729 1.01828 1.91,
3.23812 0.999526 1.91,
3.26304 0.718987 1.71,
3.30576 0.7 1.71,
3.30576 0.712579 1.71,
3.45932 0.7 1.71,
3.48234 0.7 1.71,
3.54835 0.7 1.71,
3.54835 0.712579 1.71,
3.58917 0.718987 1.71,
3.61409 0.718987 1.71,
3.45742 0.782597 1.71,
3.26304 0.718987 1.91,
3.30576 0.7 1.91,
3.30576 0.712579 1.91,
3.45932 0.7 1.91,
3.48234 0.7 1.91,
3.54835 0.7 1.91,
3.54835 0.712579 1.91,
3.58917 0.718987 1.91,
3.61409 0.718987 1.91,
3.45742 0.782597 1.91,
3.26304 0.986237 1.71,
3.29365 1.01828 1.71,
3.4147 1.0057 1.71,
3.4147 1.01828 1.71,
3.45742 0.999526 1.71,
3.48234 0.999526 1.71,
3.52317 1.0057 1.71,
3.52317 1.01828 1.71,
3.61409 0.986237 1.71,
3.54835 1.0057 1.71,
3.54835 1.01828 1.71,
3.58917 0.999526 1.71,
3.26304 0.986237 1.91,
3.29365 1.01828 1.91,
3.4147 1.0057 1.91,
3.4147 1.01828 1.91,
3.45742 0.999526 1.91,
3.48234 0.999526 1.91,
3.52317 1.0057 1.91,
3.52317 1.01828 1.91,
3.61409 0.986237 1.91,
3.54835 1.0057 1.91,
3.54835 1.01828 1.91,
3.58917 0.999526 1.91,
3.65681 0.7 1.71,
3.65681 0.712579 1.71,
3.81037 0.7 1.71,
3.8334 0.7 1.71,
3.8994 0.7 1.71,
3.8994 0.712579 1.71,
3.94022 0.718987 1.71,
3.96514 0.718987 1.71,
3.80847 0.782597 1.71,
3.65681 0.7 1.91,
3.65681 0.712579 1.91,
3.81037 0.7 1.91,
3.8334 0.7 1.91,
3.8994 0.7 1.91,
3.8994 0.712579 1.91,
3.94022 0.718987 1.91,
3.96514 0.718987 1.91,
3.80847 0.782597 1.91,
3.64471 1.01828 1.71,
3.76575 1.0057 1.71,
3.76575 1.01828 1.71,
3.80847 0.999526 1.71,
3.8334 0.999526 1.71,
3.87422 1.0057 1.71,
3.87422 1.01828 1.71,
3.96514 0.986237 1.71,
3.8994 1.0057 1.71,
3.8994 1.01828 1.71,
3.94022 0.999526 1.71,
3.64471 1.01828 1.91,
3.76575 1.0057 1.91,
3.76575 1.01828 1.91,
3.80847 0.999526 1.91,
3.8334 0.999526 1.91,
3.87422 1.0057 1.91,
3.87422 1.01828 1.91,
3.96514 0.986237 1.91,
3.8994 1.0057 1.91,
3.8994 1.01828 1.91,
3.94022 0.999526 1.91,
4.00786 0.7 1.71,
4.00786 0.712579 1.71,
4.16143 0.7 1.71,
4.15953 0.782597 1.71,
4.18445 0.7 1.71,
4.00786 0.7 1.91,
4.00786 0.712579 1.91,
4.16143 0.7 1.91,
4.15953 0.782597 1.91,
4.18445 0.7 1.91,
3.99576 1.01828 1.71,
4.1168 1.0057 1.71,
4.1168 1.01828 1.71,
4.15953 0.999526 1.71,
4.18445 0.999526 1.71,
4.22527 1.0057 1.71,
4.22527 1.01828 1.71,
3.99576 1.01828 1.91,
4.1168 1.0057 1.91,
4.1168 1.01828 1.91,
4.15953 0.999526 1.91,
4.18445 0.999526 1.91,
4.22527 1.0057 1.91,
4.22527 1.01828 1.91,
2.94461 1.4 1.71,
2.98638 1.41899 1.71,
3.02079 1.4 1.71,
3.02079 1.41258 1.71,
3.03553 1.4 1.71,
3.03553 1.41258 1.71,
3.07635 1.41899 1.71,
3.10127 1.41899 1.71,
3.144 1.4 1.71,
3.144 1.41258 1.71,
3.21781 1.4 1.71,
3.22612 1.4 1.71,
3.23537 1.47619 1.71,
2.94461 1.4 1.91,
2.98638 1.41899 1.91,
3.02079 1.4 1.91,
3.02079 1.41258 1.91,
3.03553 1.4 1.91,
3.03553 1.41258 1.91,
3.07635 1.41899 1.91,
3.10127 1.41899 1.91,
3.144 1.4 1.91,
3.144 1.41258 1.91,
3.21781 1.4 1.91,
3.22612 1.4 1.91,
3.23537 1.47619 1.91,
2.90022 1.54621 1.71,
2.92752 1.55875 1.71,
2.90034 1.5767 1.71,
2.91378 1.59791 1.71,
2.94817 1.57836 1.71,
2.96116 1.60367 1.71,
2.91826 1.62999 1.71,
2.91384 1.66105 1.71,
2.90058 1.68161 1.71,
2.96549 1.63331 1.71,
2.95837 1.67182 1.71,
2.9007 1.71324 1.71,
2.93701 1.6981 1.71,
3.03553 1.7057 1.71,
3.03553 1.71828 1.71,
3.07635 1.69953 1.71,
3.10127 1.67366 1.71,
3.13189 1.71828 1.71,
2.90022 1.54621 1.91,
2.92752 1.55875 1.91,
2.90034 1.5767 1.91,
2.91378 1.59791 1.91,
2.94817 1.57836 1.91,
2.96116 1.60367 1.91,
2.91826 1.62999 1.91,
2.91384 1.66105 1.91,
2.90058 1.68161 1.91,
2.96549 1.63331 1.91,
2.95837 1.67182 1.91,
2.9007 1.71324 1.91,
2.93701 1.6981 1.91,
3.03553 1.7057 1.91,
3.03553 1.71828 1.91,
3.07635 1.69953 1.91,
3.10127 1.67366 1.91,
3.13189 1.71828 1.91,
3.31037 1.4 1.71,
3.31037 1.41258 1.71,
3.3531 1.41899 1.71,
3.43949 1.4 1.71,
3.43949 1.41258 1.71,
3.39867 1.41899 1.71,
3.31037 1.4 1.91,
3.31037 1.41258 1.91,
3.3531 1.41899 1.91,
3.43949 1.4 1.91,
3.43949 1.41258 1.91,
3.39867 1.41899 1.91,
3.3531 1.67366 1.71,
3.34835 1.71828 1.71,
3.39867 1.69953 1.71,
3.43949 1.7057 1.71,
3.43949 1.71828 1.71,
3.3531 1.67366 1.91,
3.34835 1.71828 1.91,
3.39867 1.69953 1.91,
3.43949 1.7057 1.91,
3.43949 1.71828 1.91,
2.96313 2.13738 1.71,
3.01487 2.10579 1.71,
3.03484 2.12267 1.71,
3.0837 2.09525 1.71,
3.08418 2.11353 1.71,
3.11046 2.11516 1.71,
3.14179 2.09899 1.71,
3.13521 2.12006 1.71,
3.15669 2.12768 1.71,
3.17318 2.1375 1.71,
3.19597 2.11021 1.71,
3.24132 2.1 1.71,
3.24132 2.11258 1.71,
2.96313 2.13738 1.91,
3.01487 2.10579 1.91,
3.03484 2.12267 1.91,
3.0837 2.09525 1.91,
3.08418 2.11353 1.91,
3.11046 2.11516 1.91,
3.14179 2.09899 1.91,
3.13521 2.12006 1.91,
3.15669 2.12768 1.91,
3.17318 2.1375 1.91,
3.19597 2.11021 1.91,
3.24132 2.1 1.91,
3.24132 2.11258 1.91,
2.93074 2.18796 1.71,
2.97687 2.19482 1.71,
2.91994 2.25546 1.71,
2.96954 2.25594 1.71,
2.99885 2.15008 1.71,
2.93032 2.32758 1.71,
2.97654 2.32132 1.71,
2.96147 2.37971 1.71,
2.99755 2.36701 1.71,
3.01304 2.41131 1.71,
3.0338 2.39389 1.71,
3.18196 2.18497 1.71,
3.19739 2.18497 1.71,
3.08655 2.40285 1.71,
3.10913 2.40146 1.71,
3.08465 2.42184 1.71,
3.13129 2.39727 1.71,
3.15191 2.39054 1.71,
3.16986 2.38149 1.71,
3.1361 2.41881 1.71,
3.17698 2.34019 1.71,
3.19265 2.34019 1.71,
3.19122 2.40973 1.71,
3.23824 2.4057 1.71,
3.23824 2.41828 1.71,
2.93074 2.18796 1.91,
2.97687 2.19482 1.91,
2.91994 2.25546 1.91,
2.96954 2.25594 1.91,
2.99885 2.15008 1.91,
2.93032 2.32758 1.91,
2.97654 2.32132 1.91,
2.96147 2.37971 1.91,
2.99755 2.36701 1.91,
3.01304 2.41131 1.91,
3.0338 2.39389 1.91,
3.18196 2.18497 1.91,
3.19739 2.18497 1.91,
3.08655 2.40285 1.91,
3.10913 2.40146 1.91,
3.08465 2.42184 1.91,
3.13129 2.39727 1.91,
3.15191 2.39054 1.91,
3.16986 2.38149 1.91,
3.1361 2.41881 1.91,
3.17698 2.34019 1.91,
3.19265 2.34019 1.91,
3.19122 2.40973 1.91,
3.23824 2.4057 1.91,
3.23824 2.41828 1.91,
3.27906 2.11899 1.71,
3.32487 2.11899 1.71,
3.37542 2.1 1.71,
3.37542 2.11258 1.71,
3.50859 2.1 1.71,
3.50859 2.11258 1.71,
3.54941 2.11899 1.71,
3.57433 2.11899 1.71,
3.61705 2.1 1.71,
3.61705 2.11258 1.71,
3.27906 2.11899 1.91,
3.32487 2.11899 1.91,
3.37542 2.1 1.91,
3.37542 2.11258 1.91,
3.50859 2.1 1.91,
3.50859 2.11258 1.91,
3.54941 2.11899 1.91,
3.57433 2.11899 1.91,
3.61705 2.1 1.91,
3.61705 2.11258 1.91,
3.32487 2.22484 1.71,
3.32487 2.24621 1.71,
3.34955 2.24621 1.71,
3.3607 2.22484 1.71,
3.38441 2.25077 1.71,
3.40957 2.23119 1.71,
3.40877 2.26448 1.71,
3.4231 2.28851 1.71,
3.27906 2.39953 1.71,
3.32487 2.39692 1.71,
3.34813 2.39692 1.71,
3.42787 2.32405 1.71,
3.4233 2.35764 1.71,
3.38509 2.3927 1.71,
3.35833 2.41828 1.71,
3.4096 2.38006 1.71,
3.44556 2.25024 1.71,
3.46772 2.28151 1.71,
3.47511 2.32453 1.71,
3.44591 2.39484 1.71,
3.50859 2.4057 1.71,
3.50859 2.41828 1.71,
3.54941 2.39953 1.71,
3.57433 2.38624 1.71,
3.60495 2.41828 1.71,
3.32487 2.22484 1.91,
3.32487 2.24621 1.91,
3.34955 2.24621 1.91,
3.3607 2.22484 1.91,
3.38441 2.25077 1.91,
3.40957 2.23119 1.91,
3.40877 2.26448 1.91,
3.4231 2.28851 1.91,
3.27906 2.39953 1.91,
3.32487 2.39692 1.91,
3.34813 2.39692 1.91,
3.42787 2.32405 1.91,
3.4233 2.35764 1.91,
3.38509 2.3927 1.91,
3.35833 2.41828 1.91,
3.4096 2.38006 1.91,
3.44556 2.25024 1.91,
3.46772 2.28151 1.91,
3.47511 2.32453 1.91,
3.44591 2.39484 1.91,
3.50859 2.4057 1.91,
3.50859 2.41828 1.91,
3.54941 2.39953 1.91,
3.57433 2.38624 1.91,
3.60495 2.41828 1.91,
3.77061 2.1 1.71,
3.79364 2.1 1.71,
3.77061 2.1 1.91,
3.79364 2.1 1.91,
3.76871 2.1826 1.71,
3.72599 2.4057 1.71,
3.72599 2.41828 1.71,
3.76871 2.39953 1.71,
3.79364 2.39953 1.71,
3.83446 2.4057 1.71,
3.83446 2.41828 1.71,
3.76871 2.1826 1.91,
3.72599 2.4057 1.91,
3.72599 2.41828 1.91,
3.76871 2.39953 1.91,
3.79364 2.39953 1.91,
3.83446 2.4057 1.91,
3.83446 2.41828 1.91,
5.8 0 1.71,
5.8 4.9 0,
2.93074 2.88796 1.71,
2.96313 2.83738 1.71,
2.97687 2.89482 1.71,
3.01487 2.80579 1.71,
3.03484 2.82267 1.71,
2.99885 2.85008 1.71,
2.91994 2.95546 1.71,
2.96954 2.95594 1.71,
2.93032 3.02758 1.71,
2.97654 3.02132 1.71,
3.0837 2.79525 1.71,
3.08418 2.81353 1.71,
3.11046 2.81516 1.71,
3.14179 2.79899 1.71,
3.13521 2.82006 1.71,
3.15669 2.82768 1.71,
3.19597 2.81021 1.71,
3.24132 2.8 1.71,
3.24132 2.81258 1.71,
3.17318 2.8375 1.71,
3.18196 2.88497 1.71,
3.19739 2.88497 1.71,
3.17698 3.04019 1.71,
3.19265 3.04019 1.71,
2.93074 2.88796 1.91,
2.96313 2.83738 1.91,
2.97687 2.89482 1.91,
3.01487 2.80579 1.91,
3.03484 2.82267 1.91,
2.99885 2.85008 1.91,
2.91994 2.95546 1.91,
2.96954 2.95594 1.91,
2.93032 3.02758 1.91,
2.97654 3.02132 1.91,
3.0837 2.79525 1.91,
3.08418 2.81353 1.91,
3.11046 2.81516 1.91,
3.14179 2.79899 1.91,
3.13521 2.82006 1.91,
3.15669 2.82768 1.91,
3.19597 2.81021 1.91,
3.24132 2.8 1.91,
3.24132 2.81258 1.91,
3.17318 2.8375 1.91,
3.18196 2.88497 1.91,
3.19739 2.88497 1.91,
3.17698 3.04019 1.91,
3.19265 3.04019 1.91,
3.27906 2.81899 1.71,
3.32487 2.81899 1.71,
3.37542 2.8 1.71,
3.37542 2.81258 1.71,
3.32487 2.92484 1.71,
3.32487 2.94621 1.71,
3.34955 2.94621 1.71,
3.3607 2.92484 1.71,
3.38441 2.95077 1.71,
3.40957 2.93119 1.71,
3.40877 2.96448 1.71,
3.4231 2.98851 1.71,
3.42787 3.02405 1.71,
3.4233 3.05764 1.71,
3.50859 2.8 1.71,
3.50859 2.81258 1.71,
3.54941 2.81899 1.71,
3.57433 2.81899 1.71,
3.61705 2.8 1.71,
3.61705 2.81258 1.71,
3.44556 2.95024 1.71,
3.46772 2.98151 1.71,
3.47511 3.02453 1.71,
3.27906 2.81899 1.91,
3.32487 2.81899 1.91,
3.37542 2.8 1.91,
3.37542 2.81258 1.91,
3.32487 2.92484 1.91,
3.32487 2.94621 1.91,
3.34955 2.94621 1.91,
3.3607 2.92484 1.91,
3.38441 2.95077 1.91,
3.40957 2.93119 1.91,
3.40877 2.96448 1.91,
3.4231 2.98851 1.91,
3.42787 3.02405 1.91,
3.4233 3.05764 1.91,
3.50859 2.8 1.91,
3.50859 2.81258 1.91,
3.54941 2.81899 1.91,
3.57433 2.81899 1.91,
3.61705 2.8 1.91,
3.61705 2.81258 1.91,
3.44556 2.95024 1.91,
3.46772 2.98151 1.91,
3.47511 3.02453 1.91,
2.96147 3.07971 1.71,
2.99755 3.06701 1.71,
3.0338 3.09389 1.71,
3.01304 3.11131 1.71,
3.08655 3.10285 1.71,
3.08465 3.12184 1.71,
3.10913 3.10146 1.71,
3.13129 3.09727 1.71,
3.16986 3.08149 1.71,
3.15191 3.09054 1.71,
3.1361 3.11881 1.71,
3.19122 3.10973 1.71,
3.23824 3.1057 1.71,
3.23824 3.11828 1.71,
2.96147 3.07971 1.91,
2.99755 3.06701 1.91,
3.0338 3.09389 1.91,
3.01304 3.11131 1.91,
3.08655 3.10285 1.91,
3.08465 3.12184 1.91,
3.10913 3.10146 1.91,
3.13129 3.09727 1.91,
3.16986 3.08149 1.91,
3.15191 3.09054 1.91,
3.1361 3.11881 1.91,
3.19122 3.10973 1.91,
3.23824 3.1057 1.91,
3.23824 3.11828 1.91,
3.0273 3.5 1.71,
2.95382 3.53418 1.71,
3.0273 3.52264 1.71,
3.17172 3.56728 1.71,
3.1134 3.65834 1.71,
3.23601 3.59014 1.71,
3.19644 3.67067 1.71,
3.0273 3.5 1.91,
2.95382 3.53418 1.91,
3.0273 3.52264 1.91,
3.17172 3.56728 1.91,
3.1134 3.65834 1.91,
3.23601 3.59014 1.91,
3.19644 3.67067 1.91,
3.27906 3.09953 1.71,
3.32487 3.09692 1.71,
3.34813 3.09692 1.71,
3.38509 3.0927 1.71,
3.35833 3.11828 1.71,
3.4096 3.08006 1.71,
3.44591 3.09484 1.71,
3.50859 3.1057 1.71,
3.50859 3.11828 1.71,
3.54941 3.09953 1.71,
3.57433 3.08624 1.71,
3.60495 3.11828 1.71,
3.27906 3.09953 1.91,
3.32487 3.09692 1.91,
3.34813 3.09692 1.91,
3.38509 3.0927 1.91,
3.35833 3.11828 1.91,
3.4096 3.08006 1.91,
3.44591 3.09484 1.91,
3.50859 3.1057 1.91,
3.50859 3.11828 1.91,
3.54941 3.09953 1.91,
3.57433 3.08624 1.91,
3.60495 3.11828 1.91,
3.26485 3.51041 1.71,
3.38874 3.49146 1.71,
3.30079 3.5408 1.71,
3.3896 3.52435 1.71,
3.43691 3.52729 1.71,
3.4933 3.49819 1.71,
3.59082 3.51837 1.71,
3.48145 3.5361 1.71,
3.52011 3.54982 1.71,
3.5498 3.5675 1.71,
3.56561 3.65295 1.71,
3.59338 3.65295 1.71,
3.26485 3.51041 1.91,
3.38874 3.49146 1.91,
3.30079 3.5408 1.91,
3.3896 3.52435 1.91,
3.43691 3.52729 1.91,
3.4933 3.49819 1.91,
3.59082 3.51837 1.91,
3.48145 3.5361 1.91,
3.52011 3.54982 1.91,
3.5498 3.5675 1.91,
3.56561 3.65295 1.91,
3.59338 3.65295 1.91,
3.77061 2.8 1.71,
3.79364 2.8 1.71,
3.76871 2.8826 1.71,
3.77061 2.8 1.91,
3.79364 2.8 1.91,
3.76871 2.8826 1.91,
3.72599 3.1057 1.71,
3.72599 3.11828 1.71,
3.76871 3.09953 1.71,
3.79364 3.09953 1.71,
3.83446 3.1057 1.71,
3.83446 3.11828 1.71,
3.72599 3.1057 1.91,
3.72599 3.11828 1.91,
3.76871 3.09953 1.91,
3.79364 3.09953 1.91,
3.83446 3.1057 1.91,
3.83446 3.11828 1.91,
3.68827 3.50983 1.71,
3.76303 3.49605 1.71,
3.68357 3.6303 1.71,
3.71176 3.6303 1.71,
3.73099 3.54998 1.71,
3.75112 3.54123 1.71,
3.77819 3.53375 1.71,
3.84206 3.49146 1.71,
3.92804 3.50235 1.71,
3.80772 3.52862 1.71,
3.83523 3.52691 1.71,
3.89354 3.5346 1.71,
3.93434 3.55767 1.71,
3.95837 3.59869 1.71,
3.96639 3.66021 1.71,
3.68827 3.50983 1.91,
3.76303 3.49605 1.91,
3.68357 3.6303 1.91,
3.71176 3.6303 1.91,
3.73099 3.54998 1.91,
3.75112 3.54123 1.91,
3.77819 3.53375 1.91,
3.84206 3.49146 1.91,
3.92804 3.50235 1.91,
3.80772 3.52862 1.91,
3.83523 3.52691 1.91,
3.89354 3.5346 1.91,
3.93434 3.55767 1.91,
3.95837 3.59869 1.91,
3.96639 3.66021 1.91,
4.11765 3.5 1.71,
3.99201 3.53503 1.71,
4.03175 3.58705 1.71,
4.04499 3.65594 1.71,
4.11765 3.5628 1.71,
4.17362 3.56579 1.71,
4.19711 3.635 1.71,
4.21516 3.60307 1.71,
4.25436 3.63714 1.71,
4.11765 3.5 1.91,
3.99201 3.53503 1.91,
4.03175 3.58705 1.91,
4.04499 3.65594 1.91,
4.11765 3.5628 1.91,
4.17362 3.56579 1.91,
4.19711 3.635 1.91,
4.21516 3.60307 1.91,
4.25436 3.63714 1.91,
3.09396 3.77983 1.71,
3.18325 3.78068 1.71,
3.11265 3.90965 1.71,
3.19585 3.89838 1.71,
3.23366 3.98062 1.71,
3.09396 3.77983 1.91,
3.18325 3.78068 1.91,
3.11265 3.90965 1.91,
3.19585 3.89838 1.91,
3.23366 3.98062 1.91,
2.95382 4.03915 1.71,
3.0273 4.05026 1.71,
3.0273 4.0729 1.71,
3.16872 4.00348 1.71,
3.26154 4.06035 1.71,
2.95382 4.03915 1.91,
3.0273 4.05026 1.91,
3.0273 4.0729 1.91,
3.16872 4.00348 1.91,
3.26154 4.06035 1.91,
3.55664 3.93234 1.71,
3.58484 3.93234 1.71,
3.55664 3.93234 1.91,
3.58484 3.93234 1.91,
3.29892 4.029 1.71,
3.39387 4.04513 1.71,
3.43451 4.04262 1.71,
3.39045 4.07931 1.71,
3.4744 4.03509 1.71,
3.51152 4.02297 1.71,
3.48305 4.07386 1.71,
3.54383 4.00668 1.71,
3.58227 4.05752 1.71,
3.29892 4.029 1.91,
3.39387 4.04513 1.91,
3.43451 4.04262 1.91,
3.39045 4.07931 1.91,
3.4744 4.03509 1.91,
3.51152 4.02297 1.91,
3.48305 4.07386 1.91,
3.54383 4.00668 1.91,
3.58227 4.05752 1.91,
3.78438 3.78153 1.71,
3.78438 3.81657 1.71,
3.70108 3.95071 1.71,
3.72928 3.95071 1.71,
3.84548 3.77812 1.71,
3.84548 3.82041 1.71,
3.89375 3.79991 1.71,
3.9369 3.74586 1.71,
3.95901 3.70982 1.71,
3.89931 3.76856 1.71,
3.96125 3.78426 1.71,
3.94678 3.81513 1.71,
3.88745 3.82917 1.71,
3.91682 3.85032 1.71,
3.93413 3.88471 1.71,
3.98624 3.8437 1.71,
3.93989 3.9332 1.71,
3.78438 3.78153 1.91,
3.78438 3.81657 1.91,
3.70108 3.95071 1.91,
3.72928 3.95071 1.91,
3.84548 3.77812 1.91,
3.84548 3.82041 1.91,
3.89375 3.79991 1.91,
3.9369 3.74586 1.91,
3.95901 3.70982 1.91,
3.89931 3.76856 1.91,
3.96125 3.78426 1.91,
3.94678 3.81513 1.91,
3.88745 3.82917 1.91,
3.91682 3.85032 1.91,
3.93413 3.88471 1.91,
3.98624 3.8437 1.91,
3.93989 3.9332 1.91,
3.70108 4.06094 1.71,
3.74423 4.02078 1.71,
3.76452 4.03002 1.71,
3.78781 4.03723 1.71,
3.74049 4.07018 1.71,
3.77413 4.07568 1.71,
3.80478 4.0784 1.71,
3.81205 4.04188 1.71,
3.83523 4.04343 1.71,
3.88249 4.03686 1.71,
3.83523 4.07931 1.71,
3.9149 4.01715 1.71,
3.93365 3.98303 1.71,
3.973 4.04406 1.71,
3.70108 4.06094 1.91,
3.74423 4.02078 1.91,
3.76452 4.03002 1.91,
3.78781 4.03723 1.91,
3.74049 4.07018 1.91,
3.77413 4.07568 1.91,
3.80478 4.0784 1.91,
3.81205 4.04188 1.91,
3.83523 4.04343 1.91,
3.88249 4.03686 1.91,
3.83523 4.07931 1.91,
3.9149 4.01715 1.91,
3.93365 3.98303 1.91,
3.973 4.04406 1.91,
4.0358 3.7126 1.71,
4.00825 3.75526 1.71,
4.01076 3.88498 1.71,
4.01893 3.93833 1.71,
4.13688 3.95071 1.71,
4.16507 3.95071 1.71,
4.26344 3.69567 1.71,
4.33062 3.70437 1.71,
4.30947 3.74351 1.71,
4.34028 3.78559 1.71,
4.0358 3.7126 1.91,
4.00825 3.75526 1.91,
4.01076 3.88498 1.91,
4.01893 3.93833 1.91,
4.13688 3.95071 1.91,
4.16507 3.95071 1.91,
4.26344 3.69567 1.91,
4.33062 3.70437 1.91,
4.30947 3.74351 1.91,
4.34028 3.78559 1.91,
4.13688 4.06094 1.71,
4.18002 4.02078 1.71,
4.19978 4.03002 1.71,
4.22232 4.03723 1.71,
4.24592 4.04188 1.71,
4.20876 4.07472 1.71,
4.26889 4.04343 1.71,
4.31812 4.03616 1.71,
4.26889 4.07931 1.71,
4.13688 4.06094 1.91,
4.18002 4.02078 1.91,
4.19978 4.03002 1.91,
4.22232 4.03723 1.91,
4.24592 4.04188 1.91,
4.20876 4.07472 1.91,
4.26889 4.04343 1.91,
4.31812 4.03616 1.91,
4.26889 4.07931 1.91,
4.46839 3.5 1.71,
4.46839 3.56579 1.71,
4.46839 3.5 1.91,
4.46839 3.56579 1.91,
4.38167 3.75483 1.71,
4.41515 3.79702 1.71,
4.36095 3.82895 1.71,
4.37265 3.87616 1.71,
4.4387 3.83943 1.71,
4.37655 3.92978 1.71,
4.37025 3.9787 1.71,
4.45264 3.88327 1.71,
4.45729 3.92978 1.71,
4.38167 3.75483 1.91,
4.41515 3.79702 1.91,
4.36095 3.82895 1.91,
4.37265 3.87616 1.91,
4.4387 3.83943 1.91,
4.37655 3.92978 1.91,
4.37025 3.9787 1.91,
4.45264 3.88327 1.91,
4.45729 3.92978 1.91,
4.35134 4.01437 1.71,
4.41008 4.04022 1.71,
4.35118 4.06954 1.71,
4.44549 3.99306 1.71,
4.35134 4.01437 1.91,
4.41008 4.04022 1.91,
4.35118 4.06954 1.91,
4.44549 3.99306 1.91,
5.8 4.9 1.71
] }

coordIndex [
1,3,16,-1
1,2,3,-1
1,32,2,-1
1,34,32,-1
1,16,17,-1
1,17,149,-1
0,1,399,-1
1,146,158,-1
1,158,159,-1
1,159,160,-1
1,147,146,-1
1,149,147,-1
1,160,166,-1
1,166,497,-1
1,385,386,-1
1,438,434,-1
1,434,435,-1
1,442,437,-1
1,437,438,-1
1,497,442,-1
1,435,385,-1
0,1096,1,-1
18,16,3,-1
4,6,3,-1
18,3,6,-1
8,20,19,-1
8,54,20,-1
20,23,21,-1
23,20,22,-1
54,22,20,-1
32,40,33,-1
35,32,34,-1
36,32,35,-1
36,40,32,-1
5,33,60,-1
5,60,7,-1
60,33,40,-1
37,92,41,-1
7,60,55,-1
55,60,56,-1
56,59,57,-1
59,56,58,-1
60,58,56,-1
21,187,17,-1
21,23,187,-1
42,62,61,-1
42,86,62,-1
62,65,63,-1
65,62,64,-1
86,64,62,-1
57,187,23,-1
57,59,187,-1
63,187,59,-1
1,1096,34,-1
38,78,39,-1
37,39,92,-1
92,39,78,-1
79,110,81,-1
41,88,87,-1
41,90,88,-1
41,92,90,-1
88,91,89,-1
91,88,90,-1
63,65,186,-1
89,186,65,-1
89,91,186,-1
95,186,91,-1
80,94,93,-1
80,96,94,-1
94,96,95,-1
95,96,191,-1
191,96,97,-1
111,126,125,-1
111,130,127,-1
111,127,126,-1
130,111,113,-1
112,122,97,-1
112,124,122,-1
123,97,122,-1
97,123,206,-1
128,206,123,-1
126,129,128,-1
129,126,127,-1
115,132,131,-1
115,718,132,-1
132,718,133,-1
128,129,213,-1
133,213,129,-1
202,17,187,-1
149,17,260,-1
17,202,265,-1
260,17,264,-1
17,265,264,-1
148,284,162,-1
150,284,148,-1
162,284,161,-1
161,284,163,-1
163,284,164,-1
164,284,165,-1
165,284,168,-1
168,284,169,-1
63,186,187,-1
186,95,191,-1
191,97,206,-1
188,202,187,-1
189,192,207,-1
191,207,192,-1
189,207,190,-1
191,206,207,-1
208,190,207,-1
232,201,200,-1
128,211,206,-1
128,213,211,-1
208,209,190,-1
211,214,212,-1
214,211,213,-1
212,241,210,-1
213,133,217,-1
133,848,217,-1
241,212,214,-1
215,241,214,-1
217,848,218,-1
239,218,848,-1
216,218,236,-1
236,218,239,-1
210,234,233,-1
210,241,234,-1
235,233,234,-1
245,237,238,-1
238,240,881,-1
240,876,877,-1
243,242,237,-1
245,243,237,-1
238,882,245,-1
238,881,882,-1
266,264,265,-1
264,266,267,-1
265,202,269,-1
269,202,344,-1
269,345,270,-1
269,344,345,-1
151,285,150,-1
261,285,151,-1
262,285,261,-1
263,285,262,-1
150,285,284,-1
263,282,285,-1
283,291,282,-1
264,267,293,-1
264,293,283,-1
289,286,284,-1
282,291,285,-1
169,284,170,-1
170,284,286,-1
289,287,286,-1
285,291,290,-1
293,291,283,-1
292,290,291,-1
268,270,294,-1
294,270,296,-1
296,270,299,-1
297,298,295,-1
298,300,295,-1
300,301,295,-1
301,308,295,-1
270,345,299,-1
302,299,345,-1
305,304,295,-1
308,309,295,-1
309,311,295,-1
306,305,295,-1
311,306,295,-1
310,360,312,-1
344,202,347,-1
202,350,347,-1
233,944,202,-1
350,202,351,-1
202,933,351,-1
233,235,944,-1
933,202,935,-1
347,350,349,-1
302,345,346,-1
302,346,303,-1
303,346,310,-1
346,362,310,-1
349,363,348,-1
363,349,350,-1
361,312,360,-1
360,310,362,-1
960,351,958,-1
351,960,963,-1
351,963,369,-1
365,366,364,-1
365,368,366,-1
367,364,366,-1
369,963,370,-1
0,399,384,-1
0,384,1097,-1
384,399,1097,-1
1,393,400,-1
1,386,409,-1
1,394,393,-1
1,395,394,-1
1,408,395,-1
1,409,408,-1
1,400,399,-1
399,400,401,-1
399,401,402,-1
399,402,403,-1
399,403,424,-1
409,416,410,-1
410,417,411,-1
411,417,427,-1
387,409,386,-1
409,387,416,-1
387,418,416,-1
417,410,416,-1
427,641,428,-1
427,417,641,-1
428,641,644,-1
428,644,426,-1
167,497,166,-1
171,504,167,-1
167,500,497,-1
441,502,440,-1
443,502,441,-1
440,509,439,-1
439,509,445,-1
445,509,446,-1
446,509,476,-1
476,509,478,-1
385,435,460,-1
460,436,463,-1
463,436,464,-1
388,461,462,-1
462,461,460,-1
462,460,463,-1
464,465,467,-1
464,467,643,-1
436,460,435,-1
475,464,436,-1
464,475,477,-1
464,477,480,-1
478,507,479,-1
575,491,480,-1
577,491,575,-1
480,465,464,-1
480,491,465,-1
491,584,492,-1
288,504,171,-1
290,504,288,-1
290,292,504,-1
307,504,292,-1
167,505,500,-1
167,504,505,-1
312,511,307,-1
511,312,361,-1
307,511,504,-1
444,502,443,-1
498,502,444,-1
499,502,498,-1
440,502,509,-1
501,502,499,-1
500,505,509,-1
500,509,503,-1
503,509,502,-1
506,509,505,-1
509,507,478,-1
509,508,507,-1
509,578,508,-1
509,580,578,-1
513,510,512,-1
513,555,516,-1
516,556,519,-1
516,555,556,-1
521,519,556,-1
513,516,514,-1
517,518,515,-1
518,520,515,-1
520,523,515,-1
582,581,515,-1
523,524,515,-1
524,525,515,-1
583,582,515,-1
585,583,515,-1
525,585,515,-1
511,361,364,-1
511,364,367,-1
512,367,371,-1
511,367,512,-1
513,512,371,-1
513,977,555,-1
513,371,967,-1
513,967,973,-1
513,973,977,-1
981,559,555,-1
521,556,557,-1
560,612,558,-1
612,560,561,-1
521,557,522,-1
522,557,609,-1
522,609,526,-1
557,611,609,-1
559,561,560,-1
1104,562,1098,-1
563,614,613,-1
563,616,614,-1
562,1104,1106,-1
562,1106,618,-1
562,618,617,-1
479,507,481,-1
481,507,573,-1
576,573,507,-1
573,576,574,-1
508,578,577,-1
579,577,578,-1
491,577,579,-1
584,491,579,-1
586,492,584,-1
526,609,586,-1
601,586,609,-1
601,609,610,-1
602,492,601,-1
492,586,601,-1
631,601,610,-1
604,632,653,-1
632,654,653,-1
631,610,613,-1
631,613,615,-1
615,613,614,-1
631,615,619,-1
631,619,1197,-1
631,1204,633,-1
631,634,632,-1
631,633,634,-1
654,632,673,-1
632,634,673,-1
388,462,419,-1
466,644,641,-1
647,426,644,-1
426,647,662,-1
489,643,467,-1
490,646,645,-1
490,492,646,-1
492,661,646,-1
646,662,647,-1
492,602,661,-1
603,663,602,-1
663,661,602,-1
655,656,674,-1
665,664,655,-1
655,691,665,-1
662,646,661,-1
655,674,675,-1
655,675,678,-1
673,634,676,-1
655,678,679,-1
655,679,680,-1
655,692,691,-1
655,680,692,-1
696,676,634,-1
635,696,634,-1
676,696,677,-1
677,696,681,-1
666,693,695,-1
681,694,693,-1
695,693,694,-1
694,681,696,-1
399,424,1520,-1
1520,424,425,-1
1520,425,426,-1
0,703,1096,-1
0,1097,703,-1
703,1097,1096,-1
1096,38,34,-1
1096,78,38,-1
1096,79,78,-1
1096,110,79,-1
706,114,704,-1
709,705,708,-1
705,709,728,-1
705,724,723,-1
705,726,724,-1
705,728,726,-1
710,728,709,-1
707,720,719,-1
721,719,720,-1
133,718,848,-1
719,848,718,-1
719,721,852,-1
707,722,720,-1
724,727,725,-1
727,724,726,-1
725,852,721,-1
725,727,856,-1
761,859,727,-1
741,743,742,-1
742,760,740,-1
760,742,743,-1
746,744,745,-1
744,766,765,-1
744,769,766,-1
744,746,771,-1
747,771,746,-1
744,771,769,-1
749,762,761,-1
749,764,762,-1
763,761,762,-1
910,761,763,-1
766,770,767,-1
770,766,769,-1
767,913,763,-1
913,767,770,-1
913,770,802,-1
914,802,804,-1
1096,111,110,-1
1096,113,111,-1
1096,114,113,-1
1096,704,114,-1
1096,705,704,-1
1096,708,705,-1
1096,741,708,-1
1096,743,741,-1
1096,744,743,-1
1096,745,744,-1
1096,784,745,-1
784,786,785,-1
785,768,748,-1
768,785,786,-1
789,787,788,-1
787,789,812,-1
787,807,806,-1
787,810,807,-1
787,812,810,-1
790,812,789,-1
825,809,791,-1
792,803,802,-1
792,805,803,-1
804,802,803,-1
808,914,804,-1
807,811,808,-1
811,807,810,-1
824,826,825,-1
809,825,826,-1
828,839,838,-1
836,834,835,-1
827,835,834,-1
827,837,835,-1
848,719,850,-1
719,852,850,-1
849,875,874,-1
853,850,852,-1
850,853,851,-1
851,889,849,-1
889,851,853,-1
854,889,853,-1
725,856,852,-1
727,858,856,-1
858,727,859,-1
856,858,857,-1
857,890,855,-1
890,857,858,-1
240,877,880,-1
880,881,240,-1
875,889,878,-1
879,887,883,-1
883,887,884,-1
849,889,875,-1
878,889,879,-1
887,879,889,-1
884,888,886,-1
884,887,888,-1
886,943,885,-1
860,923,891,-1
761,910,859,-1
910,763,913,-1
911,859,910,-1
859,911,922,-1
912,922,911,-1
914,924,915,-1
913,802,914,-1
924,914,808,-1
244,944,235,-1
935,202,938,-1
938,202,942,-1
202,944,942,-1
885,943,244,-1
886,888,943,-1
958,351,932,-1
932,351,933,-1
891,943,888,-1
944,244,943,-1
891,923,943,-1
936,969,934,-1
937,969,936,-1
939,969,937,-1
942,944,1008,-1
1008,970,942,-1
962,969,959,-1
934,969,962,-1
959,969,961,-1
961,969,964,-1
966,964,969,-1
965,370,963,-1
370,965,371,-1
967,371,965,-1
940,969,939,-1
941,969,940,-1
966,969,970,-1
1008,968,966,-1
1008,966,970,-1
978,1008,979,-1
1008,978,974,-1
1008,981,979,-1
1008,971,968,-1
1008,972,971,-1
976,974,978,-1
976,975,974,-1
1008,974,972,-1
979,981,980,-1
943,923,926,-1
1013,1011,1012,-1
1009,1011,1028,-1
1030,1032,1029,-1
1028,1011,1031,-1
1031,1011,1033,-1
1033,1011,1013,-1
1032,1034,1029,-1
1034,1035,1029,-1
1035,1039,1029,-1
1008,1036,981,-1
1038,1037,1029,-1
1041,1038,1029,-1
1039,1040,1029,-1
1040,1043,1029,-1
1043,1041,1029,-1
1033,1013,1044,-1
1044,1014,1045,-1
1014,1044,1013,-1
1045,1014,1050,-1
1017,1051,1015,-1
1045,1050,1046,-1
1046,1048,1047,-1
1049,1047,1048,-1
1048,1046,1050,-1
924,808,811,-1
924,811,834,-1
924,836,925,-1
925,836,926,-1
924,834,836,-1
840,926,836,-1
1096,943,926,-1
1096,1010,943,-1
1096,1011,1010,-1
1096,1012,1011,-1
1096,1016,1012,-1
1016,1078,1017,-1
1051,1017,1078,-1
1082,1083,1052,-1
1084,1052,1083,-1
1082,1085,1083,-1
1079,1087,1086,-1
1096,786,784,-1
1096,787,786,-1
1096,788,787,-1
1096,824,788,-1
1096,826,824,-1
1096,828,826,-1
1096,839,828,-1
1096,926,840,-1
1096,840,839,-1
1096,1078,1016,-1
1096,1079,1078,-1
1096,1087,1079,-1
1096,1088,1087,-1
1096,1283,1088,-1
1096,1292,1283,-1
1096,1293,1292,-1
1096,1490,1293,-1
1096,1491,1490,-1
980,555,977,-1
980,981,555,-1
981,561,559,-1
981,562,561,-1
982,1101,562,-1
982,562,981,-1
982,1108,1101,-1
982,1111,1108,-1
982,1114,1111,-1
982,1115,1114,-1
1099,562,1101,-1
1098,562,1099,-1
1102,1120,1103,-1
1103,1120,1100,-1
1100,1120,1105,-1
1105,1120,1107,-1
1107,1120,1193,-1
1109,1120,1102,-1
1110,1121,1109,-1
1112,1121,1110,-1
1113,1121,1112,-1
1116,1114,1115,-1
1114,1116,1146,-1
1117,1121,1113,-1
1109,1121,1120,-1
1117,1118,1121,-1
1119,1204,1118,-1
1114,1234,1119,-1
1114,1146,1234,-1
1118,1204,1121,-1
1234,1204,1119,-1
1042,1115,982,-1
1047,1115,1042,-1
1047,1049,1115,-1
1049,1148,1115,-1
1052,1148,1049,-1
1052,1084,1148,-1
1084,1160,1148,-1
1084,1164,1160,-1
1147,1149,1150,-1
1148,1161,1149,-1
1150,1149,1153,-1
1153,1149,1155,-1
1149,1161,1155,-1
1152,1154,1151,-1
1236,1235,1151,-1
1237,1236,1151,-1
1154,1156,1151,-1
1156,1157,1151,-1
1157,1158,1151,-1
1158,1159,1151,-1
1239,1237,1151,-1
1159,1239,1151,-1
1161,1148,1160,-1
1155,1161,1166,-1
1162,1166,1161,-1
1165,1244,1163,-1
1166,1162,1167,-1
1167,1162,1168,-1
1162,1243,1168,-1
1192,618,1106,-1
618,1192,619,-1
1195,619,1192,-1
1197,619,1195,-1
1193,1120,1194,-1
631,1197,1202,-1
631,1202,1203,-1
631,1203,1204,-1
1194,1120,1196,-1
1196,1120,1198,-1
1198,1120,1199,-1
1200,1199,1120,-1
1199,1200,1201,-1
1121,1204,1203,-1
1205,633,1204,-1
633,1205,1220,-1
1220,1223,1222,-1
1222,1348,1221,-1
1222,1224,1348,-1
1220,1205,1258,-1
1224,1222,1223,-1
1223,1220,1258,-1
1238,1300,1205,-1
1168,1241,1240,-1
1242,1240,1241,-1
1241,1168,1243,-1
1240,1300,1238,-1
1240,1242,1300,-1
1245,1300,1242,-1
1258,1205,1259,-1
1259,1205,1263,-1
1263,1205,1264,-1
1261,1368,1260,-1
1300,1264,1205,-1
1262,1369,1261,-1
1265,1369,1262,-1
1266,1369,1265,-1
1264,1302,1269,-1
1088,1282,1084,-1
1084,1282,1164,-1
1088,1283,1282,-1
1164,1282,1165,-1
1244,1165,1282,-1
1284,1288,1245,-1
1284,1290,1288,-1
1283,1292,1291,-1
1289,1245,1288,-1
1300,1245,1289,-1
1293,1301,1289,-1
1293,1307,1301,-1
1300,1289,1301,-1
1264,1300,1302,-1
1303,1269,1302,-1
1304,1305,1306,-1
1304,1309,1303,-1
1304,1306,1309,-1
1310,1303,1309,-1
1269,1303,1314,-1
1307,1293,1308,-1
1308,1293,1331,-1
1293,1330,1331,-1
1311,1303,1310,-1
1312,1303,1311,-1
1313,1303,1312,-1
1398,1269,1314,-1
1314,1303,1313,-1
1330,1293,1490,-1
1334,1331,1330,-1
1331,1334,1332,-1
1332,1334,1336,-1
1332,1336,1333,-1
1458,1333,1336,-1
1335,1491,1337,-1
1491,1338,1337,-1
399,1520,1097,-1
1221,1348,1350,-1
1221,1359,1358,-1
1221,1350,1359,-1
1359,1361,1360,-1
1361,1359,1350,-1
1362,1360,1361,-1
1375,1360,1362,-1
1225,1368,1226,-1
1226,1368,1349,-1
1260,1368,1225,-1
1349,1368,1351,-1
1351,1368,1352,-1
1352,1368,1372,-1
1261,1369,1368,-1
1267,1369,1266,-1
1267,1268,1369,-1
1269,1369,1268,-1
1372,1368,1373,-1
1373,1368,1374,-1
1374,1368,1376,-1
1379,1376,1368,-1
1376,1379,1377,-1
1369,1424,1380,-1
1520,426,662,-1
1520,662,666,-1
1269,1390,1369,-1
1390,1269,1394,-1
1394,1269,1399,-1
1369,1391,1392,-1
1391,1369,1390,-1
1395,1393,1391,-1
1392,1391,1393,-1
1397,1269,1398,-1
1399,1269,1397,-1
1396,1400,1401,-1
1401,1400,1453,-1
1401,1453,1405,-1
1402,1393,1395,-1
1403,1393,1402,-1
1404,1393,1403,-1
1406,1393,1404,-1
1436,1393,1406,-1
1424,1369,1392,-1
1393,1426,1425,-1
1426,1393,1427,-1
1427,1393,1431,-1
1431,1393,1432,-1
1432,1393,1433,-1
1433,1393,1435,-1
1435,1393,1436,-1
1333,1458,1452,-1
1452,1460,1453,-1
1405,1453,1460,-1
1405,1460,1454,-1
1454,1456,1455,-1
1456,1454,1457,-1
1452,1458,1460,-1
1461,1454,1460,-1
1454,1497,1457,-1
1496,1454,1461,-1
1497,1454,1496,-1
1500,1457,1499,-1
1499,1457,1497,-1
1455,1472,1437,-1
1472,1455,1456,-1
1457,1474,1473,-1
1474,1457,1475,-1
1475,1457,1476,-1
1476,1457,1478,-1
1478,1457,1479,-1
1479,1457,1512,-1
1512,1457,1500,-1
1520,666,695,-1
1520,695,1360,-1
1520,1360,1375,-1
1520,1375,1378,-1
1520,1378,1380,-1
1096,1097,1520,-1
1338,1491,1459,-1
1459,1491,1494,-1
1096,1520,1491,-1
1520,1494,1491,-1
1520,1495,1494,-1
1520,1498,1495,-1
1520,1501,1498,-1
1520,1502,1501,-1
1520,1515,1502,-1
1520,1380,1424,-1
1520,1424,1428,-1
1520,1428,1429,-1
1520,1429,1430,-1
1520,1430,1434,-1
1520,1434,1437,-1
1520,1437,1472,-1
1520,1472,1477,-1
1520,1477,1480,-1
1520,1480,1514,-1
1520,1513,1515,-1
1520,1514,1513,-1
9,3,2,-1
10,4,3,-1
11,6,4,-1
43,2,32,-1
12,33,5,-1
13,18,6,-1
14,5,7,-1
15,54,8,-1
9,10,3,-1
9,2,43,-1
10,11,4,-1
12,5,14,-1
12,44,33,-1
9,11,10,-1
9,43,11,-1
11,43,12,-1
11,12,13,-1
12,43,44,-1
11,13,6,-1
15,8,27,-1
14,7,67,-1
13,15,27,-1
13,12,14,-1
13,14,15,-1
15,14,66,-1
24,17,16,-1
26,16,18,-1
25,21,17,-1
27,8,19,-1
28,19,20,-1
29,20,21,-1
30,23,22,-1
24,25,17,-1
24,16,26,-1
24,26,25,-1
25,26,27,-1
13,26,18,-1
27,19,28,-1
25,29,21,-1
28,20,29,-1
15,66,54,-1
30,31,23,-1
30,22,66,-1
13,27,26,-1
25,27,29,-1
27,28,29,-1
30,66,31,-1
44,32,33,-1
45,35,34,-1
46,36,35,-1
47,40,36,-1
49,34,38,-1
48,39,37,-1
50,38,39,-1
51,60,40,-1
52,37,41,-1
53,86,42,-1
43,32,44,-1
45,46,35,-1
46,47,36,-1
45,34,49,-1
48,37,52,-1
48,50,39,-1
49,38,50,-1
45,47,46,-1
45,49,47,-1
47,48,51,-1
47,49,48,-1
48,49,50,-1
47,51,40,-1
53,42,73,-1
52,41,99,-1
51,53,73,-1
48,52,51,-1
51,52,53,-1
52,98,53,-1
67,7,55,-1
66,22,54,-1
31,57,23,-1
68,55,56,-1
69,56,57,-1
70,59,58,-1
72,58,60,-1
71,63,59,-1
73,42,61,-1
74,61,62,-1
75,62,63,-1
76,65,64,-1
67,55,68,-1
31,69,57,-1
68,56,69,-1
72,60,51,-1
70,71,59,-1
70,58,72,-1
14,67,66,-1
31,66,67,-1
31,67,69,-1
67,68,69,-1
70,72,71,-1
71,72,73,-1
71,75,63,-1
73,61,74,-1
74,62,75,-1
53,98,86,-1
76,77,65,-1
76,64,98,-1
72,51,73,-1
71,73,75,-1
73,74,75,-1
52,99,98,-1
76,98,77,-1
83,78,79,-1
82,92,78,-1
84,96,80,-1
85,79,81,-1
82,104,92,-1
82,78,83,-1
83,79,85,-1
84,80,105,-1
85,81,116,-1
82,83,104,-1
83,84,104,-1
83,85,84,-1
84,85,108,-1
85,118,108,-1
99,41,87,-1
98,64,86,-1
77,89,65,-1
100,87,88,-1
101,88,89,-1
102,91,90,-1
104,90,92,-1
103,95,91,-1
105,80,93,-1
106,93,94,-1
107,94,95,-1
108,97,96,-1
77,101,89,-1
99,87,100,-1
100,88,101,-1
102,90,104,-1
102,103,91,-1
103,107,95,-1
77,98,99,-1
77,99,101,-1
99,100,101,-1
84,105,104,-1
102,104,103,-1
103,104,105,-1
103,105,107,-1
105,93,106,-1
106,94,107,-1
84,108,96,-1
108,109,97,-1
105,106,107,-1
118,109,108,-1
117,110,111,-1
116,81,110,-1
118,124,112,-1
137,111,125,-1
120,113,114,-1
119,130,113,-1
116,110,117,-1
117,111,137,-1
118,112,109,-1
85,116,118,-1
116,117,137,-1
116,137,118,-1
119,113,120,-1
119,142,130,-1
120,114,713,-1
121,115,143,-1
119,120,142,-1
120,121,142,-1
109,112,97,-1
134,123,122,-1
136,122,124,-1
135,128,123,-1
138,125,126,-1
140,126,128,-1
139,129,127,-1
142,127,130,-1
141,133,129,-1
143,115,131,-1
144,131,132,-1
145,132,133,-1
134,135,123,-1
118,136,124,-1
134,122,136,-1
135,140,128,-1
137,125,138,-1
118,137,136,-1
134,136,135,-1
135,136,137,-1
135,137,140,-1
137,138,140,-1
138,126,140,-1
139,141,129,-1
139,127,142,-1
141,145,133,-1
143,131,144,-1
144,132,145,-1
121,143,142,-1
139,142,141,-1
141,142,143,-1
141,143,145,-1
143,144,145,-1
153,146,147,-1
176,148,162,-1
155,147,149,-1
154,150,148,-1
156,151,150,-1
157,261,151,-1
152,146,153,-1
154,148,176,-1
153,147,155,-1
154,156,150,-1
155,149,271,-1
156,157,151,-1
152,153,176,-1
153,154,176,-1
153,155,154,-1
154,155,156,-1
155,271,157,-1
155,157,156,-1
172,159,158,-1
173,160,159,-1
152,158,146,-1
175,162,161,-1
177,161,163,-1
178,163,164,-1
174,166,160,-1
179,164,165,-1
180,167,166,-1
182,165,168,-1
183,168,169,-1
181,171,167,-1
184,169,170,-1
185,288,171,-1
172,173,159,-1
173,174,160,-1
172,158,152,-1
175,161,177,-1
175,176,162,-1
177,163,178,-1
172,152,175,-1
152,176,175,-1
172,175,177,-1
172,177,173,-1
173,177,174,-1
174,180,166,-1
178,164,179,-1
180,181,167,-1
179,165,182,-1
182,168,183,-1
181,185,171,-1
183,169,184,-1
184,170,317,-1
185,319,288,-1
174,177,178,-1
174,178,180,-1
178,179,180,-1
180,179,181,-1
179,182,181,-1
181,182,185,-1
182,183,185,-1
183,184,185,-1
185,184,319,-1
193,187,186,-1
194,188,187,-1
198,186,191,-1
196,192,189,-1
197,189,190,-1
195,202,188,-1
199,191,192,-1
222,190,209,-1
193,194,187,-1
193,186,198,-1
194,195,188,-1
199,192,196,-1
196,189,197,-1
198,191,199,-1
197,190,222,-1
193,195,194,-1
193,198,195,-1
198,196,195,-1
198,199,196,-1
195,196,197,-1
195,197,203,-1
197,222,203,-1
203,222,246,-1
203,232,200,-1
204,200,201,-1
205,233,202,-1
203,200,204,-1
203,246,232,-1
195,205,202,-1
246,204,201,-1
195,203,205,-1
203,204,205,-1
246,247,204,-1
205,247,233,-1
205,204,247,-1
219,207,206,-1
220,208,207,-1
221,209,208,-1
224,206,211,-1
223,212,210,-1
225,211,212,-1
226,214,213,-1
227,215,214,-1
230,213,217,-1
228,241,215,-1
250,216,236,-1
231,217,218,-1
229,218,216,-1
219,220,207,-1
219,206,224,-1
220,221,208,-1
221,222,209,-1
223,210,247,-1
225,212,223,-1
224,211,225,-1
226,227,214,-1
219,221,220,-1
219,224,221,-1
221,223,222,-1
222,223,246,-1
224,223,221,-1
224,225,223,-1
226,213,230,-1
227,228,215,-1
229,216,250,-1
231,218,229,-1
230,217,231,-1
861,253,239,-1
226,228,227,-1
226,229,228,-1
226,230,229,-1
228,229,250,-1
228,250,251,-1
230,231,229,-1
861,892,253,-1
246,201,232,-1
247,210,233,-1
248,235,234,-1
256,237,242,-1
251,238,237,-1
253,236,239,-1
252,240,238,-1
254,876,240,-1
255,234,241,-1
249,244,235,-1
257,242,243,-1
259,243,245,-1
258,885,244,-1
900,245,882,-1
246,223,247,-1
248,249,235,-1
228,255,241,-1
251,237,256,-1
250,236,253,-1
251,252,238,-1
252,254,240,-1
254,894,876,-1
228,251,255,-1
251,256,255,-1
250,253,252,-1
250,252,251,-1
253,892,254,-1
252,253,254,-1
254,892,894,-1
248,234,255,-1
249,258,244,-1
256,242,257,-1
257,243,259,-1
259,245,900,-1
258,903,885,-1
248,255,249,-1
249,255,258,-1
255,256,258,-1
256,257,258,-1
257,259,258,-1
258,259,903,-1
259,900,903,-1
271,149,260,-1
272,262,261,-1
273,263,262,-1
275,260,264,-1
276,266,265,-1
277,267,266,-1
280,265,269,-1
279,270,268,-1
281,269,270,-1
271,260,275,-1
157,272,261,-1
272,273,262,-1
273,274,263,-1
275,264,314,-1
276,277,266,-1
276,265,280,-1
277,278,267,-1
157,271,272,-1
272,271,273,-1
271,275,273,-1
273,275,274,-1
276,278,277,-1
276,279,278,-1
280,269,281,-1
279,281,270,-1
276,280,279,-1
279,280,281,-1
274,282,263,-1
314,264,283,-1
313,283,282,-1
278,293,267,-1
315,289,284,-1
316,284,285,-1
317,170,286,-1
320,287,289,-1
318,286,287,-1
319,290,288,-1
321,285,290,-1
322,292,291,-1
324,291,293,-1
323,307,292,-1
325,268,294,-1
326,297,295,-1
327,294,296,-1
328,298,297,-1
330,296,299,-1
329,300,298,-1
333,299,302,-1
331,301,300,-1
334,302,303,-1
335,295,304,-1
336,304,305,-1
337,305,306,-1
338,312,307,-1
332,308,301,-1
339,309,308,-1
340,311,309,-1
341,303,310,-1
343,310,312,-1
342,306,311,-1
274,313,282,-1
313,314,283,-1
274,314,313,-1
275,314,274,-1
278,326,324,-1
315,284,316,-1
315,320,289,-1
316,285,321,-1
317,286,318,-1
320,318,287,-1
319,321,290,-1
278,324,293,-1
322,291,324,-1
322,323,292,-1
315,316,320,-1
184,317,319,-1
317,318,319,-1
318,321,319,-1
316,321,320,-1
320,321,318,-1
322,324,323,-1
323,324,338,-1
279,268,325,-1
325,294,327,-1
326,328,297,-1
326,295,335,-1
327,296,330,-1
328,329,298,-1
330,299,333,-1
329,331,300,-1
331,332,301,-1
333,302,334,-1
334,303,341,-1
278,279,325,-1
278,325,326,-1
325,328,326,-1
325,327,328,-1
328,327,329,-1
327,330,329,-1
330,331,329,-1
330,333,331,-1
331,333,332,-1
332,333,334,-1
335,304,336,-1
323,338,307,-1
336,305,337,-1
332,339,308,-1
342,311,340,-1
339,340,309,-1
341,310,343,-1
342,337,306,-1
338,343,312,-1
326,335,324,-1
324,335,338,-1
335,336,338,-1
336,337,338,-1
332,334,339,-1
339,334,341,-1
339,341,340,-1
340,341,343,-1
342,343,337,-1
338,337,343,-1
342,340,343,-1
352,345,344,-1
353,346,345,-1
355,344,347,-1
356,349,348,-1
357,347,349,-1
359,350,351,-1
352,353,345,-1
352,344,355,-1
353,354,346,-1
355,347,357,-1
356,357,349,-1
352,354,353,-1
352,355,354,-1
354,355,356,-1
356,355,357,-1
358,350,359,-1
374,362,346,-1
372,361,360,-1
374,360,362,-1
373,364,361,-1
375,348,363,-1
376,365,364,-1
358,363,350,-1
377,368,365,-1
378,367,366,-1
380,366,368,-1
381,351,369,-1
379,371,367,-1
382,369,370,-1
383,370,371,-1
354,374,346,-1
356,348,375,-1
358,375,363,-1
354,356,375,-1
372,360,374,-1
372,373,361,-1
373,376,364,-1
354,375,374,-1
372,374,373,-1
373,374,376,-1
375,377,376,-1
374,375,376,-1
376,377,365,-1
359,351,381,-1
358,359,375,-1
359,377,375,-1
359,381,377,-1
378,366,380,-1
378,379,367,-1
377,380,368,-1
379,383,371,-1
381,369,382,-1
382,370,383,-1
378,380,379,-1
377,381,380,-1
379,380,381,-1
379,381,383,-1
381,382,383,-1
389,386,385,-1
468,385,460,-1
390,387,386,-1
389,390,386,-1
389,385,468,-1
389,391,390,-1
389,468,391,-1
390,391,387,-1
391,468,392,-1
398,394,395,-1
397,393,394,-1
412,395,408,-1
397,394,398,-1
397,396,393,-1
398,395,412,-1
397,398,432,-1
397,432,396,-1
396,400,393,-1
404,401,400,-1
405,402,401,-1
406,403,402,-1
407,424,403,-1
396,404,400,-1
404,405,401,-1
404,406,405,-1
396,432,404,-1
405,406,402,-1
406,407,403,-1
407,429,424,-1
404,407,406,-1
404,429,407,-1
404,430,429,-1
413,408,409,-1
414,409,410,-1
415,410,411,-1
412,408,413,-1
413,409,414,-1
414,410,415,-1
412,413,414,-1
398,412,432,-1
412,414,415,-1
412,415,432,-1
422,418,387,-1
423,388,419,-1
391,422,387,-1
392,388,423,-1
391,392,423,-1
391,423,422,-1
420,417,416,-1
422,416,418,-1
421,641,417,-1
420,416,422,-1
420,421,417,-1
421,642,641,-1
420,422,421,-1
422,423,642,-1
421,422,642,-1
429,425,424,-1
431,428,426,-1
430,426,425,-1
432,411,427,-1
433,427,428,-1
404,432,433,-1
404,433,431,-1
429,430,425,-1
430,431,426,-1
431,433,428,-1
404,431,430,-1
415,411,432,-1
432,427,433,-1
447,435,434,-1
448,436,435,-1
450,438,437,-1
451,434,438,-1
452,440,439,-1
453,441,440,-1
454,443,441,-1
455,437,442,-1
456,444,443,-1
457,498,444,-1
458,439,445,-1
459,445,446,-1
449,475,436,-1
483,446,476,-1
447,448,435,-1
448,449,436,-1
451,438,450,-1
453,454,441,-1
447,434,451,-1
453,440,452,-1
450,437,455,-1
454,456,443,-1
455,442,527,-1
456,457,444,-1
451,450,453,-1
453,450,454,-1
451,453,452,-1
447,451,452,-1
450,455,454,-1
454,455,456,-1
455,457,456,-1
455,527,457,-1
452,439,458,-1
458,445,459,-1
449,482,475,-1
459,446,483,-1
447,452,458,-1
447,458,448,-1
448,458,449,-1
449,458,459,-1
449,459,482,-1
459,483,482,-1
469,460,461,-1
392,461,388,-1
470,462,463,-1
471,463,464,-1
472,467,465,-1
468,460,469,-1
392,468,469,-1
392,469,461,-1
423,470,471,-1
470,463,471,-1
472,474,467,-1
471,464,648,-1
482,477,475,-1
485,476,478,-1
486,478,479,-1
484,480,477,-1
488,479,481,-1
487,575,480,-1
482,484,477,-1
483,476,485,-1
485,478,486,-1
484,487,480,-1
488,481,587,-1
486,479,488,-1
487,589,575,-1
482,483,484,-1
483,485,484,-1
485,487,484,-1
485,486,487,-1
486,488,487,-1
488,589,487,-1
495,465,491,-1
474,489,467,-1
494,492,490,-1
496,491,492,-1
472,465,495,-1
472,493,474,-1
472,495,493,-1
474,493,489,-1
493,495,494,-1
495,491,496,-1
494,495,496,-1
494,496,492,-1
527,442,497,-1
528,499,498,-1
529,501,499,-1
530,497,500,-1
531,502,501,-1
533,500,503,-1
532,503,502,-1
534,505,504,-1
535,506,505,-1
536,509,506,-1
538,507,508,-1
537,576,507,-1
594,580,509,-1
540,504,511,-1
539,512,510,-1
541,511,512,-1
539,510,513,-1
542,513,514,-1
543,517,515,-1
544,514,516,-1
545,518,517,-1
595,515,581,-1
547,516,519,-1
549,519,521,-1
546,520,518,-1
548,523,520,-1
550,521,522,-1
551,524,523,-1
552,525,524,-1
554,522,526,-1
457,528,498,-1
527,497,530,-1
528,529,499,-1
529,531,501,-1
531,532,502,-1
530,500,533,-1
532,533,503,-1
534,535,505,-1
535,536,506,-1
534,504,540,-1
457,527,528,-1
527,530,529,-1
528,527,529,-1
529,530,531,-1
531,533,532,-1
530,533,531,-1
534,536,535,-1
534,539,536,-1
537,507,538,-1
536,594,509,-1
537,538,590,-1
536,543,594,-1
539,541,512,-1
540,511,541,-1
539,513,542,-1
534,540,539,-1
540,541,539,-1
536,539,542,-1
536,542,543,-1
542,514,544,-1
543,545,517,-1
544,516,547,-1
545,546,518,-1
543,515,595,-1
547,519,549,-1
546,548,520,-1
548,551,523,-1
549,521,550,-1
551,552,524,-1
552,553,525,-1
550,522,554,-1
554,526,600,-1
542,545,543,-1
542,544,545,-1
544,546,545,-1
544,547,546,-1
594,543,595,-1
546,547,548,-1
547,549,548,-1
548,549,551,-1
551,549,550,-1
551,550,552,-1
552,550,554,-1
552,554,553,-1
553,554,600,-1
564,556,555,-1
565,557,556,-1
568,555,559,-1
567,560,558,-1
569,559,560,-1
622,611,557,-1
623,558,612,-1
624,563,613,-1
570,612,561,-1
571,561,562,-1
572,616,563,-1
628,562,617,-1
564,565,556,-1
564,555,568,-1
565,566,557,-1
568,559,569,-1
567,569,560,-1
567,558,623,-1
564,566,565,-1
564,568,566,-1
566,567,623,-1
566,568,567,-1
568,569,567,-1
566,622,557,-1
623,612,570,-1
566,623,622,-1
623,572,624,-1
570,561,571,-1
571,562,628,-1
623,570,571,-1
572,563,624,-1
572,627,616,-1
623,571,572,-1
571,628,572,-1
572,628,627,-1
587,481,573,-1
588,573,574,-1
590,574,576,-1
589,577,575,-1
591,508,577,-1
592,579,578,-1
594,578,580,-1
593,584,579,-1
596,581,582,-1
597,582,583,-1
598,586,584,-1
599,583,585,-1
553,585,525,-1
600,526,586,-1
587,573,588,-1
588,574,590,-1
537,590,576,-1
538,508,591,-1
589,591,577,-1
592,593,579,-1
592,578,594,-1
488,587,589,-1
587,588,589,-1
588,591,589,-1
538,591,590,-1
588,590,591,-1
592,594,593,-1
594,598,593,-1
595,581,596,-1
593,598,584,-1
596,582,597,-1
599,585,553,-1
597,583,599,-1
598,600,586,-1
594,595,598,-1
595,596,598,-1
596,597,598,-1
597,599,600,-1
599,553,600,-1
597,600,598,-1
605,602,601,-1
606,603,602,-1
636,601,631,-1
608,632,604,-1
657,604,653,-1
605,606,602,-1
605,607,606,-1
606,607,603,-1
605,601,636,-1
605,636,608,-1
608,636,637,-1
608,604,657,-1
608,637,632,-1
605,608,607,-1
607,608,657,-1
607,657,659,-1
620,610,609,-1
622,609,611,-1
621,613,610,-1
625,615,614,-1
627,614,616,-1
626,619,615,-1
629,617,618,-1
630,618,619,-1
620,621,610,-1
620,609,622,-1
621,624,613,-1
620,622,621,-1
622,624,621,-1
622,623,624,-1
625,626,615,-1
625,614,627,-1
626,630,619,-1
628,617,629,-1
629,618,630,-1
625,627,626,-1
627,628,626,-1
628,630,626,-1
628,629,630,-1
637,631,632,-1
638,634,633,-1
639,635,634,-1
636,631,637,-1
638,639,634,-1
638,633,1227,-1
638,640,639,-1
638,1227,640,-1
639,640,635,-1
423,419,462,-1
642,466,641,-1
473,644,466,-1
648,464,643,-1
423,462,470,-1
642,473,466,-1
423,471,473,-1
423,473,642,-1
471,648,473,-1
473,649,644,-1
473,648,649,-1
493,643,489,-1
650,490,645,-1
494,490,650,-1
493,494,648,-1
493,648,643,-1
494,649,648,-1
494,650,649,-1
649,647,644,-1
651,645,646,-1
652,646,647,-1
650,645,651,-1
649,652,647,-1
649,650,652,-1
651,646,652,-1
650,651,652,-1
607,663,603,-1
658,653,654,-1
659,656,655,-1
660,674,656,-1
670,655,664,-1
657,653,658,-1
659,660,656,-1
607,659,669,-1
657,660,659,-1
657,658,660,-1
658,683,660,-1
607,669,663,-1
659,655,670,-1
659,670,669,-1
667,662,661,-1
669,661,663,-1
668,666,662,-1
671,664,665,-1
667,661,669,-1
667,668,662,-1
667,669,668,-1
670,664,671,-1
671,665,697,-1
668,672,666,-1
668,669,672,-1
669,670,672,-1
670,671,672,-1
671,697,672,-1
682,654,673,-1
683,675,674,-1
684,678,675,-1
685,673,676,-1
686,676,677,-1
687,679,678,-1
688,680,679,-1
689,692,680,-1
640,696,635,-1
690,677,681,-1
658,654,682,-1
660,683,674,-1
683,684,675,-1
682,673,685,-1
684,687,678,-1
685,676,686,-1
658,682,683,-1
683,682,684,-1
682,685,684,-1
684,685,687,-1
685,686,687,-1
687,688,679,-1
688,689,680,-1
690,681,699,-1
686,688,687,-1
686,690,688,-1
688,690,689,-1
690,699,689,-1
640,1228,702,-1
686,677,690,-1
640,702,696,-1
697,665,691,-1
698,691,692,-1
699,693,666,-1
699,681,693,-1
700,695,694,-1
702,694,696,-1
701,1360,695,-1
698,697,691,-1
698,692,689,-1
672,699,666,-1
672,697,699,-1
698,699,697,-1
698,689,699,-1
700,701,695,-1
700,694,702,-1
700,702,701,-1
701,702,1363,-1
712,704,705,-1
713,114,706,-1
121,718,115,-1
711,706,704,-1
714,722,707,-1
715,709,708,-1
716,710,709,-1
734,705,723,-1
717,728,710,-1
711,704,712,-1
713,706,711,-1
730,714,707,-1
120,713,121,-1
121,713,729,-1
713,714,729,-1
713,711,714,-1
711,712,734,-1
715,716,709,-1
715,708,751,-1
716,717,710,-1
715,717,716,-1
715,751,717,-1
712,705,734,-1
717,739,728,-1
711,734,714,-1
717,750,772,-1
717,772,739,-1
729,719,718,-1
730,707,719,-1
731,721,720,-1
733,720,722,-1
732,725,721,-1
735,723,724,-1
736,724,725,-1
737,727,726,-1
739,726,728,-1
738,761,727,-1
121,729,718,-1
729,730,719,-1
731,732,721,-1
729,714,730,-1
714,733,722,-1
731,720,733,-1
732,736,725,-1
734,723,735,-1
735,724,736,-1
737,738,727,-1
737,726,739,-1
738,773,761,-1
714,734,733,-1
731,733,732,-1
732,733,734,-1
732,734,736,-1
734,735,736,-1
737,739,738,-1
738,739,773,-1
751,708,741,-1
750,742,740,-1
752,741,742,-1
772,740,760,-1
753,760,743,-1
754,743,744,-1
755,746,745,-1
756,747,746,-1
793,745,784,-1
759,764,749,-1
777,744,765,-1
757,771,747,-1
780,748,768,-1
751,741,752,-1
750,752,742,-1
717,751,750,-1
750,751,752,-1
750,740,772,-1
753,772,760,-1
759,749,773,-1
753,754,772,-1
754,759,772,-1
753,743,754,-1
755,756,746,-1
756,757,747,-1
755,745,793,-1
755,757,756,-1
755,793,757,-1
757,793,758,-1
754,744,777,-1
758,748,780,-1
757,783,771,-1
754,777,759,-1
757,758,780,-1
757,780,783,-1
773,749,761,-1
774,763,762,-1
776,762,764,-1
775,767,763,-1
778,765,766,-1
779,766,767,-1
781,770,769,-1
783,769,771,-1
782,802,770,-1
774,775,763,-1
774,762,776,-1
759,773,772,-1
772,773,739,-1
774,776,775,-1
759,776,764,-1
775,779,767,-1
777,765,778,-1
778,766,779,-1
781,782,770,-1
781,769,783,-1
782,813,802,-1
759,777,776,-1
775,776,777,-1
775,777,779,-1
777,778,779,-1
781,783,782,-1
782,783,813,-1
783,780,813,-1
758,785,748,-1
794,784,785,-1
795,768,786,-1
796,786,787,-1
797,789,788,-1
798,790,789,-1
829,788,824,-1
800,825,791,-1
801,805,792,-1
817,787,806,-1
799,812,790,-1
820,791,809,-1
758,794,785,-1
793,784,794,-1
758,793,794,-1
780,768,795,-1
813,801,792,-1
780,795,796,-1
780,796,801,-1
795,786,796,-1
797,798,789,-1
797,788,829,-1
798,799,790,-1
797,799,798,-1
797,829,799,-1
799,829,800,-1
796,787,817,-1
800,791,820,-1
799,823,812,-1
796,817,801,-1
799,800,820,-1
799,820,823,-1
813,792,802,-1
814,804,803,-1
816,803,805,-1
815,808,804,-1
818,806,807,-1
819,807,808,-1
821,811,810,-1
823,810,812,-1
822,834,811,-1
814,815,804,-1
814,803,816,-1
780,801,813,-1
814,816,815,-1
815,816,817,-1
801,816,805,-1
817,806,818,-1
815,819,808,-1
818,807,819,-1
821,822,811,-1
821,810,823,-1
822,841,834,-1
801,817,816,-1
815,817,819,-1
817,818,819,-1
821,823,822,-1
822,823,841,-1
820,841,823,-1
830,824,825,-1
831,809,826,-1
832,837,827,-1
833,826,828,-1
845,828,838,-1
829,824,830,-1
800,830,825,-1
800,829,830,-1
820,809,831,-1
832,827,841,-1
820,831,833,-1
820,833,832,-1
831,826,833,-1
833,828,845,-1
832,833,845,-1
841,827,834,-1
842,836,835,-1
844,835,837,-1
843,840,836,-1
846,838,839,-1
847,839,840,-1
832,844,837,-1
842,843,836,-1
842,835,844,-1
820,832,841,-1
832,845,844,-1
842,844,843,-1
843,844,845,-1
843,847,840,-1
845,838,846,-1
846,839,847,-1
843,845,847,-1
845,846,847,-1
861,239,848,-1
892,849,874,-1
863,848,850,-1
864,850,851,-1
865,853,852,-1
862,851,849,-1
866,854,853,-1
867,889,854,-1
869,852,856,-1
868,857,855,-1
870,856,857,-1
872,858,859,-1
871,890,858,-1
861,848,863,-1
862,849,892,-1
862,864,851,-1
863,850,864,-1
865,866,853,-1
865,852,869,-1
866,867,854,-1
861,863,862,-1
861,862,892,-1
862,863,864,-1
865,867,866,-1
870,857,868,-1
869,856,870,-1
868,855,908,-1
871,858,872,-1
865,869,867,-1
869,868,867,-1
869,870,868,-1
867,868,908,-1
871,872,908,-1
872,873,908,-1
893,874,875,-1
894,877,876,-1
896,875,878,-1
897,878,879,-1
895,880,877,-1
898,881,880,-1
899,882,881,-1
901,879,883,-1
902,883,884,-1
903,886,885,-1
904,884,886,-1
905,888,887,-1
907,887,889,-1
906,891,888,-1
908,855,890,-1
909,860,891,-1
892,874,893,-1
893,875,896,-1
894,895,877,-1
896,878,897,-1
895,898,880,-1
898,899,881,-1
900,882,899,-1
897,879,901,-1
901,883,902,-1
902,884,904,-1
867,907,889,-1
892,893,894,-1
893,895,894,-1
893,896,895,-1
895,896,897,-1
895,897,898,-1
898,901,899,-1
900,899,904,-1
899,902,904,-1
898,897,901,-1
901,902,899,-1
903,904,886,-1
905,906,888,-1
905,887,907,-1
900,904,903,-1
905,907,906,-1
871,908,890,-1
873,860,909,-1
867,908,907,-1
873,909,908,-1
906,909,891,-1
907,908,909,-1
906,907,909,-1
916,911,910,-1
917,912,911,-1
918,922,912,-1
919,910,913,-1
920,913,914,-1
921,914,915,-1
921,915,924,-1
916,917,911,-1
917,918,912,-1
872,859,927,-1
916,910,919,-1
920,914,921,-1
919,913,920,-1
916,918,917,-1
872,927,873,-1
916,919,918,-1
919,921,918,-1
919,920,921,-1
918,921,927,-1
873,923,860,-1
927,859,922,-1
928,926,923,-1
930,924,925,-1
931,925,926,-1
918,927,922,-1
873,928,923,-1
921,924,929,-1
873,927,928,-1
921,928,927,-1
921,929,928,-1
929,924,930,-1
928,931,926,-1
930,925,931,-1
928,929,931,-1
929,930,931,-1
946,932,933,-1
987,934,962,-1
948,933,935,-1
947,936,934,-1
951,935,938,-1
949,937,936,-1
950,939,937,-1
952,940,939,-1
953,941,940,-1
955,938,942,-1
956,944,943,-1
957,1008,944,-1
945,932,946,-1
947,934,987,-1
946,933,948,-1
947,949,936,-1
945,946,987,-1
946,947,987,-1
946,948,947,-1
947,948,949,-1
948,935,951,-1
949,950,937,-1
951,938,955,-1
950,952,939,-1
952,953,940,-1
953,954,941,-1
955,942,995,-1
956,957,944,-1
948,951,950,-1
948,950,949,-1
950,951,952,-1
951,953,952,-1
951,955,953,-1
953,955,954,-1
956,1018,957,-1
983,960,958,-1
945,958,932,-1
984,962,959,-1
985,963,960,-1
986,959,961,-1
988,965,963,-1
989,961,964,-1
989,964,966,-1
990,967,965,-1
993,966,968,-1
996,968,971,-1
992,973,967,-1
954,969,941,-1
995,942,970,-1
994,970,969,-1
997,971,972,-1
999,972,974,-1
998,977,973,-1
1000,974,975,-1
1001,975,976,-1
1002,980,977,-1
1003,976,978,-1
1004,978,979,-1
1005,979,980,-1
1006,982,981,-1
945,983,958,-1
984,959,986,-1
985,960,983,-1
986,961,989,-1
984,987,962,-1
945,984,983,-1
945,987,984,-1
983,984,986,-1
985,983,986,-1
985,986,988,-1
985,988,963,-1
988,990,965,-1
989,966,991,-1
991,966,993,-1
990,992,967,-1
993,968,996,-1
992,998,973,-1
986,989,988,-1
989,990,988,-1
989,991,990,-1
990,991,992,-1
991,993,992,-1
992,993,998,-1
993,996,998,-1
954,994,969,-1
994,995,970,-1
954,955,995,-1
954,995,994,-1
996,971,997,-1
997,972,999,-1
998,1002,977,-1
999,974,1000,-1
1001,1000,975,-1
1003,978,1004,-1
1001,976,1003,-1
1004,979,1005,-1
1002,1005,980,-1
1006,981,1061,-1
1006,1007,982,-1
996,997,998,-1
997,999,1002,-1
997,1002,998,-1
999,1000,1002,-1
1002,1000,1005,-1
1001,1005,1000,-1
1001,1003,1004,-1
1001,1004,1005,-1
1006,1061,1007,-1
1020,943,1010,-1
1019,1011,1009,-1
1021,1010,1011,-1
1022,1013,1012,-1
1023,1014,1013,-1
1026,1012,1016,-1
1025,1017,1015,-1
1027,1016,1017,-1
956,943,1020,-1
957,1018,1008,-1
1020,1010,1021,-1
1019,1021,1011,-1
956,1019,1018,-1
956,1020,1019,-1
1019,1020,1021,-1
1022,1023,1013,-1
1022,1012,1026,-1
1023,1024,1014,-1
1026,1016,1027,-1
1025,1027,1017,-1
1022,1024,1023,-1
1022,1026,1024,-1
1024,1026,1025,-1
1025,1026,1027,-1
1053,1009,1028,-1
1056,1028,1031,-1
1054,1030,1029,-1
1055,1032,1030,-1
1058,1031,1033,-1
1057,1034,1032,-1
1069,1033,1044,-1
1059,1035,1034,-1
1061,1036,1008,-1
1062,1029,1037,-1
1061,981,1036,-1
1007,1042,982,-1
1063,1037,1038,-1
1060,1039,1035,-1
1065,1043,1040,-1
1064,1040,1039,-1
1066,1038,1041,-1
1067,1047,1042,-1
1068,1041,1043,-1
1070,1044,1045,-1
1071,1045,1046,-1
1072,1046,1047,-1
1073,1049,1048,-1
1075,1050,1014,-1
1076,1015,1051,-1
1075,1048,1050,-1
1074,1052,1049,-1
1018,1061,1008,-1
1019,1009,1053,-1
1053,1028,1056,-1
1054,1055,1030,-1
1054,1029,1062,-1
1055,1057,1032,-1
1056,1031,1058,-1
1058,1033,1069,-1
1057,1059,1034,-1
1059,1060,1035,-1
1018,1019,1053,-1
1018,1053,1054,-1
1018,1054,1061,-1
1053,1055,1054,-1
1053,1056,1055,-1
1055,1056,1057,-1
1056,1058,1057,-1
1057,1058,1059,-1
1058,1069,1059,-1
1069,1060,1059,-1
1062,1037,1063,-1
1007,1067,1042,-1
1060,1064,1039,-1
1068,1043,1065,-1
1064,1065,1040,-1
1063,1038,1066,-1
1068,1066,1041,-1
1067,1072,1047,-1
1054,1062,1061,-1
1007,1061,1067,-1
1061,1062,1067,-1
1062,1063,1067,-1
1060,1070,1064,-1
1064,1071,1065,-1
1063,1066,1067,-1
1067,1066,1072,-1
1068,1072,1066,-1
1068,1065,1072,-1
1069,1044,1070,-1
1070,1045,1071,-1
1024,1075,1014,-1
1025,1015,1076,-1
1069,1070,1060,-1
1024,1025,1076,-1
1071,1046,1072,-1
1073,1048,1075,-1
1073,1074,1049,-1
1074,1077,1052,-1
1070,1071,1064,-1
1065,1071,1072,-1
1073,1075,1074,-1
1024,1076,1075,-1
1075,1076,1077,-1
1074,1075,1077,-1
1081,1078,1079,-1
1080,1078,1081,-1
1080,1051,1078,-1
1089,1085,1082,-1
1077,1082,1052,-1
1093,1079,1086,-1
1090,1084,1083,-1
1092,1083,1085,-1
1091,1088,1084,-1
1094,1086,1087,-1
1095,1087,1088,-1
1080,1076,1051,-1
1077,1089,1082,-1
1081,1079,1093,-1
1080,1081,1076,-1
1081,1089,1076,-1
1081,1093,1089,-1
1089,1092,1085,-1
1090,1083,1092,-1
1090,1091,1084,-1
1091,1095,1088,-1
1076,1089,1077,-1
1089,1093,1092,-1
1090,1092,1091,-1
1091,1092,1093,-1
1091,1093,1095,-1
1093,1086,1094,-1
1094,1087,1095,-1
1093,1094,1095,-1
1123,1098,1099,-1
1124,1103,1100,-1
1125,1099,1101,-1
1126,1109,1102,-1
1132,1101,1108,-1
1127,1102,1103,-1
1122,1104,1098,-1
1128,1106,1104,-1
1129,1100,1105,-1
1130,1192,1106,-1
1131,1105,1107,-1
1207,1107,1193,-1
1133,1110,1109,-1
1135,1108,1111,-1
1134,1112,1110,-1
1136,1113,1112,-1
1137,1117,1113,-1
1138,1111,1114,-1
1139,1116,1115,-1
1140,1146,1116,-1
1141,1118,1117,-1
1143,1114,1119,-1
1142,1119,1118,-1
1145,1120,1121,-1
1144,1200,1120,-1
1123,1099,1125,-1
1123,1122,1098,-1
1127,1126,1102,-1
1125,1101,1132,-1
1126,1133,1109,-1
1124,1127,1103,-1
1123,1127,1124,-1
1123,1124,1122,-1
1123,1125,1127,-1
1125,1126,1127,-1
1125,1132,1126,-1
1126,1132,1133,-1
1128,1104,1122,-1
1124,1100,1129,-1
1129,1105,1131,-1
1128,1130,1106,-1
1130,1206,1192,-1
1131,1107,1207,-1
1128,1122,1129,-1
1128,1129,1130,-1
1122,1124,1129,-1
1129,1131,1130,-1
1130,1131,1206,-1
1131,1207,1206,-1
1132,1108,1135,-1
1133,1134,1110,-1
1134,1136,1112,-1
1135,1111,1138,-1
1136,1137,1113,-1
1137,1141,1117,-1
1139,1140,1116,-1
1141,1142,1118,-1
1138,1114,1143,-1
1142,1143,1119,-1
1132,1134,1133,-1
1132,1135,1134,-1
1134,1135,1136,-1
1135,1137,1136,-1
1135,1138,1137,-1
1137,1138,1141,-1
1139,1169,1140,-1
1141,1138,1143,-1
1141,1143,1142,-1
1144,1120,1145,-1
1214,1144,1145,-1
1171,1115,1148,-1
1170,1149,1147,-1
1173,1147,1150,-1
1172,1148,1149,-1
1169,1234,1146,-1
1176,1150,1153,-1
1174,1152,1151,-1
1247,1151,1235,-1
1178,1153,1155,-1
1175,1154,1152,-1
1177,1156,1154,-1
1189,1155,1166,-1
1179,1157,1156,-1
1180,1158,1157,-1
1181,1159,1158,-1
1183,1161,1160,-1
1184,1162,1161,-1
1187,1160,1164,-1
1186,1165,1163,-1
1188,1164,1165,-1
1190,1166,1167,-1
1191,1167,1168,-1
1255,1243,1162,-1
1256,1163,1244,-1
1140,1169,1146,-1
1139,1115,1171,-1
1170,1147,1173,-1
1171,1148,1172,-1
1170,1172,1149,-1
1139,1170,1169,-1
1139,1171,1170,-1
1169,1170,1173,-1
1169,1173,1174,-1
1170,1171,1172,-1
1173,1150,1176,-1
1174,1175,1152,-1
1169,1246,1234,-1
1174,1151,1247,-1
1176,1153,1178,-1
1175,1177,1154,-1
1178,1155,1189,-1
1177,1179,1156,-1
1179,1180,1157,-1
1180,1181,1158,-1
1181,1182,1159,-1
1169,1174,1246,-1
1173,1175,1174,-1
1173,1176,1175,-1
1174,1247,1246,-1
1175,1176,1177,-1
1176,1178,1177,-1
1177,1178,1179,-1
1178,1189,1179,-1
1179,1189,1180,-1
1190,1181,1180,-1
1181,1191,1182,-1
1183,1184,1161,-1
1183,1160,1187,-1
1184,1185,1162,-1
1187,1164,1188,-1
1186,1188,1165,-1
1186,1163,1256,-1
1183,1185,1184,-1
1183,1187,1185,-1
1185,1187,1186,-1
1186,1187,1188,-1
1185,1186,1256,-1
1189,1166,1190,-1
1190,1167,1191,-1
1191,1168,1252,-1
1185,1255,1162,-1
1189,1190,1180,-1
1190,1191,1181,-1
1191,1252,1182,-1
1185,1256,1255,-1
1206,1195,1192,-1
1208,1193,1194,-1
1210,1194,1196,-1
1209,1197,1195,-1
1213,1198,1199,-1
1212,1196,1198,-1
1211,1202,1197,-1
1215,1199,1201,-1
1214,1201,1200,-1
1216,1203,1202,-1
1217,1121,1203,-1
1218,1205,1204,-1
1207,1193,1208,-1
1206,1209,1195,-1
1208,1194,1210,-1
1209,1211,1197,-1
1206,1207,1209,-1
1207,1208,1209,-1
1208,1211,1209,-1
1208,1210,1211,-1
1212,1198,1213,-1
1210,1196,1212,-1
1211,1216,1202,-1
1213,1199,1215,-1
1215,1201,1214,-1
1214,1200,1144,-1
1145,1121,1217,-1
1216,1217,1203,-1
1218,1219,1205,-1
1218,1204,1246,-1
1210,1212,1211,-1
1212,1216,1211,-1
1212,1213,1216,-1
1215,1214,1217,-1
1213,1215,1216,-1
1215,1217,1216,-1
1214,1145,1217,-1
1218,1246,1219,-1
1227,633,1220,-1
1229,1220,1222,-1
1228,1222,1221,-1
1230,1224,1223,-1
1270,1223,1258,-1
1232,1260,1225,-1
1233,1225,1226,-1
1227,1220,1229,-1
1228,1227,1229,-1
1228,1229,1222,-1
640,1227,1228,-1
1230,1231,1224,-1
1230,1223,1270,-1
1232,1225,1233,-1
1230,1233,1231,-1
1230,1270,1232,-1
1230,1232,1233,-1
1246,1204,1234,-1
1219,1238,1205,-1
1248,1235,1236,-1
1249,1236,1237,-1
1250,1240,1238,-1
1182,1239,1159,-1
1251,1237,1239,-1
1252,1168,1240,-1
1253,1242,1241,-1
1255,1241,1243,-1
1254,1245,1242,-1
1247,1235,1248,-1
1219,1250,1238,-1
1248,1236,1249,-1
1249,1237,1251,-1
1251,1239,1182,-1
1252,1240,1250,-1
1246,1250,1219,-1
1246,1247,1250,-1
1247,1248,1250,-1
1248,1249,1250,-1
1249,1252,1250,-1
1249,1251,1252,-1
1251,1182,1252,-1
1253,1254,1242,-1
1253,1241,1255,-1
1254,1257,1245,-1
1253,1255,1254,-1
1255,1257,1254,-1
1255,1256,1257,-1
1271,1258,1259,-1
1272,1261,1260,-1
1273,1262,1261,-1
1275,1259,1263,-1
1276,1263,1264,-1
1274,1265,1262,-1
1277,1266,1265,-1
1278,1267,1266,-1
1279,1268,1267,-1
1280,1269,1268,-1
1281,1264,1269,-1
1270,1258,1271,-1
1271,1259,1275,-1
1270,1271,1272,-1
1272,1271,1273,-1
1271,1274,1273,-1
1271,1275,1274,-1
1232,1272,1260,-1
1272,1273,1261,-1
1273,1274,1262,-1
1232,1270,1272,-1
1275,1263,1276,-1
1274,1275,1277,-1
1274,1277,1265,-1
1277,1278,1266,-1
1278,1279,1267,-1
1276,1264,1281,-1
1279,1280,1268,-1
1280,1281,1269,-1
1277,1275,1278,-1
1275,1276,1278,-1
1278,1276,1279,-1
1276,1281,1279,-1
1279,1281,1280,-1
1285,1244,1282,-1
1286,1282,1283,-1
1257,1284,1245,-1
1287,1290,1284,-1
1297,1283,1291,-1
1285,1282,1286,-1
1286,1283,1297,-1
1256,1285,1286,-1
1287,1284,1257,-1
1256,1244,1285,-1
1287,1296,1290,-1
1256,1286,1287,-1
1256,1287,1257,-1
1286,1297,1287,-1
1287,1297,1296,-1
1294,1289,1288,-1
1296,1288,1290,-1
1295,1293,1289,-1
1298,1291,1292,-1
1299,1292,1293,-1
1294,1295,1289,-1
1294,1288,1296,-1
1295,1299,1293,-1
1294,1296,1295,-1
1296,1297,1295,-1
1297,1299,1295,-1
1297,1291,1298,-1
1298,1292,1299,-1
1297,1298,1299,-1
1316,1300,1301,-1
1317,1302,1300,-1
1317,1303,1302,-1
1319,1305,1304,-1
1320,1306,1305,-1
1321,1309,1306,-1
1318,1304,1303,-1
1322,1301,1307,-1
1323,1307,1308,-1
1324,1310,1309,-1
1325,1311,1310,-1
1326,1312,1311,-1
1340,1308,1331,-1
1327,1313,1312,-1
1328,1314,1313,-1
1315,1300,1316,-1
1316,1301,1322,-1
1315,1316,1320,-1
1316,1324,1321,-1
1316,1322,1324,-1
1315,1317,1300,-1
1317,1318,1303,-1
1319,1320,1305,-1
1319,1304,1318,-1
1320,1321,1306,-1
1321,1324,1309,-1
1315,1319,1317,-1
1319,1318,1317,-1
1315,1320,1319,-1
1316,1321,1320,-1
1322,1307,1323,-1
1323,1308,1340,-1
1324,1322,1325,-1
1322,1326,1325,-1
1322,1323,1326,-1
1324,1325,1310,-1
1325,1326,1311,-1
1326,1327,1312,-1
1327,1328,1313,-1
1328,1329,1314,-1
1326,1323,1327,-1
1323,1340,1327,-1
1327,1340,1328,-1
1341,1329,1328,-1
1339,1334,1330,-1
1341,1331,1332,-1
1342,1332,1333,-1
1343,1336,1334,-1
1346,1335,1337,-1
1347,1337,1338,-1
1345,1458,1336,-1
1344,1491,1335,-1
1340,1331,1341,-1
1341,1332,1342,-1
1462,1342,1333,-1
1339,1343,1334,-1
1340,1341,1328,-1
1341,1342,1329,-1
1339,1344,1343,-1
1343,1344,1345,-1
1339,1330,1492,-1
1344,1335,1346,-1
1343,1345,1336,-1
1346,1337,1347,-1
1347,1338,1469,-1
1339,1492,1344,-1
1344,1346,1345,-1
1346,1347,1345,-1
1345,1347,1468,-1
1363,1221,1358,-1
1231,1348,1224,-1
1353,1350,1348,-1
1354,1226,1349,-1
1355,1361,1350,-1
1356,1349,1351,-1
1357,1351,1352,-1
1228,1221,1363,-1
1228,1363,702,-1
1231,1353,1348,-1
1233,1226,1354,-1
1354,1349,1356,-1
1231,1233,1354,-1
1231,1354,1353,-1
1353,1354,1355,-1
1353,1355,1350,-1
1355,1366,1361,-1
1356,1351,1357,-1
1354,1356,1355,-1
1355,1356,1366,-1
1356,1357,1366,-1
1364,1358,1359,-1
1365,1359,1360,-1
1366,1362,1361,-1
1363,1358,1364,-1
701,1365,1360,-1
1364,1359,1365,-1
701,1363,1365,-1
1363,1364,1365,-1
1357,1352,1381,-1
1366,1367,1362,-1
1366,1357,1367,-1
1371,1368,1369,-1
1370,1379,1368,-1
1370,1368,1371,-1
1371,1369,1389,-1
1370,1371,1388,-1
1381,1352,1372,-1
1367,1375,1362,-1
1382,1372,1373,-1
1383,1373,1374,-1
1384,1378,1375,-1
1385,1374,1376,-1
1388,1377,1379,-1
1386,1376,1377,-1
1387,1380,1378,-1
1389,1369,1380,-1
1381,1372,1382,-1
1367,1384,1375,-1
1382,1373,1383,-1
1357,1381,1367,-1
1367,1381,1384,-1
1381,1382,1384,-1
1382,1383,1384,-1
1383,1387,1384,-1
1383,1374,1385,-1
1385,1376,1386,-1
1388,1386,1377,-1
1387,1378,1384,-1
1370,1388,1379,-1
1387,1389,1380,-1
1383,1385,1387,-1
1385,1386,1387,-1
1387,1386,1389,-1
1371,1389,1388,-1
1388,1389,1386,-1
1407,1391,1390,-1
1408,1395,1391,-1
1410,1392,1393,-1
1411,1390,1394,-1
1416,1394,1399,-1
1412,1402,1395,-1
1329,1398,1314,-1
1415,1397,1398,-1
1414,1399,1397,-1
1413,1400,1396,-1
1418,1396,1401,-1
1417,1453,1400,-1
1419,1403,1402,-1
1420,1404,1403,-1
1421,1406,1404,-1
1422,1401,1405,-1
1423,1436,1406,-1
1407,1390,1411,-1
1407,1408,1391,-1
1407,1411,1408,-1
1409,1392,1410,-1
1410,1393,1439,-1
1409,1410,1439,-1
1408,1412,1395,-1
1411,1394,1416,-1
1412,1419,1402,-1
1329,1415,1398,-1
1415,1414,1397,-1
1416,1399,1414,-1
1413,1417,1400,-1
1413,1396,1418,-1
1418,1401,1422,-1
1408,1411,1412,-1
1411,1416,1413,-1
1411,1419,1412,-1
1411,1413,1419,-1
1329,1462,1415,-1
1415,1463,1414,-1
1416,1417,1413,-1
1416,1414,1417,-1
1413,1418,1419,-1
1414,1463,1417,-1
1419,1420,1403,-1
1420,1421,1404,-1
1421,1423,1406,-1
1423,1450,1436,-1
1419,1418,1420,-1
1418,1422,1420,-1
1420,1422,1421,-1
1421,1464,1423,-1
1421,1422,1464,-1
1423,1465,1450,-1
1409,1424,1392,-1
1438,1428,1424,-1
1439,1393,1425,-1
1440,1425,1426,-1
1441,1426,1427,-1
1445,1427,1431,-1
1442,1429,1428,-1
1443,1430,1429,-1
1446,1431,1432,-1
1447,1432,1433,-1
1444,1434,1430,-1
1448,1437,1434,-1
1450,1435,1436,-1
1449,1433,1435,-1
1409,1438,1424,-1
1439,1425,1440,-1
1440,1426,1441,-1
1441,1427,1445,-1
1438,1442,1428,-1
1442,1443,1429,-1
1443,1444,1430,-1
1409,1439,1438,-1
1438,1439,1442,-1
1439,1440,1442,-1
1440,1441,1443,-1
1441,1445,1444,-1
1442,1440,1443,-1
1441,1444,1443,-1
1445,1431,1446,-1
1446,1432,1447,-1
1447,1433,1449,-1
1444,1448,1434,-1
1450,1449,1435,-1
1451,1437,1448,-1
1445,1446,1448,-1
1446,1447,1448,-1
1445,1448,1444,-1
1450,1451,1449,-1
1447,1451,1448,-1
1447,1449,1451,-1
1450,1465,1451,-1
1463,1452,1453,-1
1462,1333,1452,-1
1464,1405,1454,-1
1465,1454,1455,-1
1467,1456,1457,-1
1468,1460,1458,-1
1469,1338,1459,-1
1470,1461,1460,-1
1471,1496,1461,-1
1462,1452,1463,-1
1417,1463,1453,-1
1329,1342,1462,-1
1415,1462,1463,-1
1422,1405,1464,-1
1464,1454,1465,-1
1451,1465,1455,-1
1466,1456,1467,-1
1423,1464,1465,-1
1466,1467,1482,-1
1345,1468,1458,-1
1468,1470,1460,-1
1469,1459,1503,-1
1470,1471,1461,-1
1347,1469,1468,-1
1468,1469,1470,-1
1469,1503,1470,-1
1470,1503,1471,-1
1467,1457,1482,-1
1451,1455,1437,-1
1466,1472,1456,-1
1481,1477,1472,-1
1482,1457,1473,-1
1483,1473,1474,-1
1484,1474,1475,-1
1485,1475,1476,-1
1486,1480,1477,-1
1487,1476,1478,-1
1488,1478,1479,-1
1516,1479,1512,-1
1489,1514,1480,-1
1466,1481,1472,-1
1466,1482,1481,-1
1482,1473,1483,-1
1483,1474,1484,-1
1484,1475,1485,-1
1485,1476,1487,-1
1481,1486,1477,-1
1486,1489,1480,-1
1487,1478,1488,-1
1488,1479,1516,-1
1518,1514,1489,-1
1481,1482,1483,-1
1481,1483,1486,-1
1483,1484,1486,-1
1486,1484,1485,-1
1486,1485,1489,-1
1485,1487,1489,-1
1487,1488,1489,-1
1488,1516,1518,-1
1488,1518,1489,-1
1492,1330,1490,-1
1493,1490,1491,-1
1344,1493,1491,-1
1492,1490,1493,-1
1344,1492,1493,-1
1503,1459,1494,-1
1504,1494,1495,-1
1507,1495,1498,-1
1505,1497,1496,-1
1506,1499,1497,-1
1508,1500,1499,-1
1510,1498,1501,-1
1511,1501,1502,-1
1519,1502,1515,-1
1503,1494,1504,-1
1471,1505,1496,-1
1504,1495,1507,-1
1471,1503,1504,-1
1471,1504,1505,-1
1505,1504,1507,-1
1505,1506,1497,-1
1506,1508,1499,-1
1508,1509,1500,-1
1507,1498,1510,-1
1510,1501,1511,-1
1511,1502,1519,-1
1505,1507,1506,-1
1506,1507,1510,-1
1506,1510,1508,-1
1508,1510,1511,-1
1508,1519,1509,-1
1508,1511,1519,-1
1509,1512,1500,-1
1517,1515,1513,-1
1518,1513,1514,-1
1509,1516,1512,-1
1518,1517,1513,-1
1519,1515,1517,-1
1509,1517,1516,-1
1516,1517,1518,-1
1509,1519,1517,-1
]

colorPerVertex FALSE

color Color { color [
 0 0 0,
 1 1 1,
 0.976471 0.843137 0.172549, # default colour
] }

colorIndex [
0 0 0 0 0 0 0 0 0 0 0 0 0 0 0 0 0 0 0 0 0 0 0 0 0 0 0 0 0 0 0 0 0 0 0 0 0 0 0 0 0 0 0 0 0 0 0 0 0 0 0 0 0 0 0 0 0 0 0 0 0 0 0 0 0 0 0 0 0 0 0 0 0 0 0 0 0 0 0 0 0 0 0 0 0 0 0 0 0 0 0 0 0 0 0 0 0 0 0 0 0 0 0 0 0 0 0 0 0 0 0 0 0 0 0 0 0 0 0 0 0 0 0 0 0 0 0 0 0 0 0 0 0 0 0 0 0 0 0 0 0 0 0 0 0 0 0 0 0 0 0 0 0 0 0 0 0 0 0 0 0 0 0 0 0 0 0 0 0 0 0 0 0 0 0 0 0 0 0 0 0 0 0 0 0 0 0 0 0 0 0 0 0 0 0 0 0 0 0 0 0 0 0 0 0 0 0 0 0 0 0 0 0 0 0 0 0 0 0 0 0 0 0 0 0 0 0 0 0 0 0 0 0 0 0 0 0 0 0 0 0 0 0 0 0 0 0 0 0 0 0 0 0 0 0 0 0 0 0 0 0 0 0 0 0 0 0 0 0 0 0 0 0 0 0 0 0 0 0 0 0 0 0 0 0 0 0 0 0 0 0 0 0 0 0 0 0 0 0 0 0 0 0 0 0 0 0 0 0 0 0 0 0 0 0 0 0 0 0 0 0 0 0 0 0 0 0 0 0 0 0 0 0 0 0 0 0 0 0 0 0 0 0 0 0 0 0 0 0 0 0 0 0 0 0 0 0 0 0 0 0 0 0 0 0 0 0 0 0 0 0 0 0 0 0 0 0 0 0 0 0 0 0 0 0 0 0 0 0 0 0 0 0 0 0 0 0 0 0 0 0 0 0 0 0 0 0 0 0 0 0 0 0 0 0 0 0 0 0 0 0 0 0 0 0 0 0 0 0 0 0 0 0 0 0 0 0 0 0 0 0 0 0 0 0 0 0 0 0 0 0 0 0 0 0 0 0 0 0 0 0 0 0 0 0 0 0 0 0 0 0 0 0 0 0 0 0 0 0 0 0 0 0 0 0 0 0 0 0 0 0 0 0 0 0 0 0 0 0 0 0 0 0 0 0 0 0 0 0 0 0 0 0 0 0 0 0 0 0 0 0 0 0 0 0 0 0 0 0 0 0 0 0 0 0 0 0 0 0 0 0 0 0 0 0 0 0 0 0 0 0 0 0 0 0 0 0 0 0 0 0 0 0 0 0 0 0 0 0 0 0 0 0 0 0 0 0 0 0 0 0 0 0 0 0 0 0 0 0 0 0 0 0 0 0 0 0 0 0 0 0 0 0 0 0 0 0 0 0 0 0 0 0 0 0 0 0 0 0 0 0 0 0 0 0 0 0 0 0 0 0 0 0 0 0 0 0 0 0 0 0 0 0 0 0 0 0 0 0 0 0 0 0 0 0 0 0 0 0 0 0 0 0 0 0 0 0 0 0 0 0 0 0 0 0 0 0 0 0 0 0 0 0 0 0 0 0 0 0 0 0 0 0 0 0 0 0 0 0 0 0 0 0 0 0 0 0 0 0 0 0 0 0 0 0 0 0 0 0 0 0 0 0 0 0 0 0 0 0 0 0 0 0 0 0 0 0 0 0 0 0 0 0 0 0 0 0 0 0 0 0 0 0 0 0 0 0 0 0 0 0 0 0 0 0 0 0 0 0 0 0 0 0 0 0 0 0 0 0 0 0 0 0 0 0 0 0 0 0 0 0 0 0 0 0 0 0 0 0 0 0 0 0 0 0 0 0 0 0 0 0 0 0 0 1 1 1 1 1 1 1 1 1 1 1 1 1 1 1 1 1 1 1 1 1 1 1 1 1 1 1 1 1 1 1 1 1 1 1 1 1 1 1 1 1 1 1 1 1 1 1 1 1 1 1 1 1 1 1 1 1 1 1 1 1 1 1 1 1 1 1 1 1 1 1 1 1 1 1 1 1 1 1 1 1 1 1 1 1 1 1 1 1 1 1 1 1 1 1 1 1 1 1 1 1 1 1 1 1 1 1 1 1 1 1 1 1 1 1 1 1 1 1 1 1 1 1 1 1 1 1 1 1 1 1 1 1 1 1 1 1 1 1 1 1 1 1 1 1 1 1 1 1 1 1 1 1 1 1 1 1 1 1 1 1 1 1 1 1 1 1 1 1 1 1 1 1 1 1 1 1 1 1 1 1 1 1 1 1 1 1 1 1 1 1 1 1 1 1 1 1 1 1 1 1 1 1 1 1 1 1 1 1 1 1 1 1 1 1 1 1 1 1 1 1 1 1 1 1 1 1 1 1 1 1 1 1 1 1 1 1 1 1 1 1 1 1 1 1 1 1 1 1 1 1 1 1 1 1 1 1 1 1 1 1 1 1 1 1 1 1 1 1 1 1 1 1 1 1 1 1 1 1 1 1 1 1 1 1 1 1 1 1 1 1 1 1 1 1 1 1 1 1 1 1 1 1 1 1 1 1 1 1 1 1 1 1 1 1 1 1 1 1 1 1 1 1 1 1 1 1 1 1 1 1 1 1 1 1 1 1 1 1 1 1 1 1 1 1 1 1 1 1 1 1 1 1 1 1 1 1 1 1 1 1 1 1 1 1 1 1 1 1 1 1 1 1 1 1 1 1 1 1 1 1 1 1 1 1 1 1 1 1 1 1 1 1 1 1 1 1 1 1 1 1 1 1 1 1 1 1 1 1 1 1 1 1 1 1 1 1 1 1 1 1 1 1 1 1 1 1 1 1 1 1 1 1 1 1 1 1 1 1 1 1 1 1 1 1 1 1 1 1 1 1 1 1 1 1 1 1 1 1 1 1 1 1 1 1 1 1 1 1 1 1 1 1 1 1 1 1 1 1 1 1 1 1 1 1 1 1 1 1 1 1 1 1 1 1 1 1 1 1 1 1 1 1 1 1 1 1 1 1 1 1 1 1 1 1 1 1 1 1 1 1 1 1 1 1 1 1 1 1 1 1 1 1 1 1 1 1 1 1 1 1 1 1 1 1 1 1 1 1 1 1 1 1 1 1 1 1 1 1 1 1 1 1 1 1 1 1 1 1 1 1 1 1 1 1 1 1 1 1 1 1 1 1 1 1 1 1 1 1 1 1 1 1 1 1 1 1 1 1 1 1 1 1 1 1 1 1 1 1 1 1 1 1 1 1 1 1 1 1 1 1 1 1 1 1 1 1 1 1 1 1 1 1 1 1 1 1 1 1 1 1 1 1 1 1 1 1 1 1 1 1 1 1 1 1 1 1 1 1 1 1 1 1 1 1 1 1 1 1 1 1 1 1 1 1 1 1 1 1 1 1 1 1 1 1 1 1 1 1 1 1 1 1 1 1 1 1 1 1 1 1 1 1 1 1 1 1 1 1 1 1 1 1 1 1 1 1 1 1 1 1 1 1 1 1 1 1 1 1 1 1 1 1 1 1 1 1 1 1 1 1 1 1 1 1 1 1 1 1 1 1 1 1 1 1 1 1 1 1 1 1 1 1 1 1 1 1 1 1 1 1 1 1 1 1 1 1 1 1 1 1 1 1 1 1 1 1 1 1 1 1 1 1 1 1 1 1 1 1 1 1 1 1 1 1 1 1 1 1 1 1 1 1 1 1 1 1 1 1 1 1 1 1 1 1 1 1 1 1 1 1 1 1 1 1 1 1 1 1 1 1 1 1 1 1 1 1 1 1 1 1 1 1 1 1 1 1 1 1 1 1 1 1 1 1 1 1 1 1 1 1 1 1 1 1 1 1 1 1 1 1 1 1 1 1 1 1 1 1 1 1 1 1 1 1 1 1 1 1 1 1 1 1 1 1 1 1 1 1 1 1 1 1 1 1 1 1 1 1 1 1 1 1 1 1 1 1 1 1 1 1 1 1 1 1 1 1 1 1 1 1 1 1 1 1 1 1 1 1 1 1 1 1 1 1 1 1 1 1 1 1 1 1 1 1 1 1 1 1 1 1 1 1 1 1 1 1 1 1 1 1 1 1 1 1 1 1 1 1 1 1 1 1 1 1 1 1 1 1 1 1 1 1 1 1 1 1 1 1 1 1 1 1 1 1 1 1 1 1 1 1 1 1 1 1 1 1 1 1 1 1 1 1 1 1 1 1 1 1 1 1 1 1 1 1 1 1 1 1 1 1 1 1 1 1 1 1 1 1 1 1 1 1 1 1 1 1 1 1 1 1 1 1 1 1 1 1 1 1 1 1 1 1 1 1 1 1 1 1 1 1 1 1 1 1 1 1 1 1 1 1 1 1 1 1 1 1 1 1 1 1 1 1 1 1 1 1 1 1 1 1 1 1 1 1 1 1 1 1 1 1 1 1 1 1 1 1 1 1 1 1 1 1 1 1 1 1 1 1 1 1 1 1 1 1 1 1 1 1 1 1 1 1 1 1 1 1 1 1 1 1 1 1 1 1 1 1 1 1 1 1 1 1 1 1 1 1 1 1 1 1 1 1 1 1 1 1 1 1 1 1 1 1 1 1 1 1 1 1 1 1 1 1 1 1 1 1 1 1 1 1 1 1 1 1 1 1 1 1 1 1 1 1 1 1 1 1 1 1 1 1 1 1 1 1 1 1 1 1 1 1 1 1 1 1 1 1 1 1 1 1 1 1 1 1 1 1 1 1 1 1 1 1 1 1 1 1 1 1 1 1 1 1 1 1 1 1 1 1 1 1 1 1 1 1 1 1 1 1 1 1 1 1 1 1 1 1 1 1 1 1 1 1 1 1 1 1 1 1 1 1 1 1 1 1 1 1 1 1 1 1 1 1 1 1 1 1 1 1 1 1 1 1 1 1 1 1 1 1 1 1 1 1 1 1 1 1 1 1 1 1 1 1 1 1 1 1 1 1 1 1 1 1 1 1 1 1 1 1 1 1 1 1 1 1 1 1 1 1 1 1 1 1 1 1 1 1 1 1 1 1 1 1 1 1 1 1 1 1 1 1 1 1 1 1 1 1 1 1 1 1 1 1 1 1 1 1 1 1 1 1 1 1 1 1 1 1 1 1 1 1 1 1 1 1 1 1 1 1 1 1 1 1 1 1 1 1 1 1 1 1 1 1 1 1 1 1 1 1 1 1 1 1 1 1 1 1 1 1 1 1 1 1 1 1 1 1 1 1 1 1 1 1 1 1 1 1 1 1 1 1 1 1 1 1 1 1 1 1 1 1 1 1 1 1 1 1 1 1 1 1 1 1 1 1 1 1 1 1 1 1 1 1 1 1 1 1 1 1 1 1 1 1 1 1 1 1 1 1 1 1 1 1 1 1 1 1 1 1 1 1 1 1 1 1 1 1 1 1 1 1 1 1 1 1 1 1 1 1 1 1 1 1 1 1 1 1 1 1 1 1 1 1 1 1 1 1 1 1 1 1 1 1 1 1 1 1 1 1 1 1 1 1 1 1 1 1 1 1 1 1 1 1 1 1 1 1 1 1 1 1 1 1 1 1 1 1 1 1 1 1 1 1 1 1 1 1 1 1 1 1 1 1 1 1 1 1 1 1 1 1 1 1 1 1 1 1 1 1 1 1 1 1 1 1 1 1 1 1 1 1 1 1 1 1 1 1 1 1 1 1 1 1 1 1 1 1 1 1 1 1 1 1 1 1 1 1 1 1 1 1 1 1 1 1 1 1 1 1 1 1 1 1 1 1 1 1 1 1 1 1 1 1 1 1 1 1 1 1 1 1 1 1 1 1 1 1 1 1 1 1 1 1 1 1 1 1 1 1 1 1 1 1 1 1 1 1 1 1 1 1 1 1 1 1 1 1 1 1 1 1 1 1 1 1 1 1 1 1 1 1 1 1 1 1 1 1 1 1 1 1 1 1 1 1 1 1 1 1 1 1 1 1 1 1 1 1 1 1 1 1 1 1 1 1 1 1 1 1 1 1 1 1 1 1 1 1 1 1 1 1 1 1 1 1 1 1 1 1 1 1 1 1 1 1 1 1 1 1 1 1 1 1 1 1 1 1 1 1 1 1 1 1 1 1 1 1 1 1 1 1 1 1 1 1 1 1 1 1 1 1 1 1 1 1 1 1 1 1 1 1 1 1 1 1 1 1 1 1 1 1 1 1 1 1 1 1 1 1 1 1 1 1 1 1 1 1 1 1 1 1 1 1 1 1 1 1 1 1 1 1 1 1 1 1 1 1 1 1 1 1 1 1 1 1 1 1 1 1 1 1 1 1 1 1 1 1 1 1 1 1 1 1 1 1 1 1 1 1 1 1 1 1 1 1 1 1 1 1 1 1 1 1 1 1 1 1 1 1 1 1 1 1 1 1 1 1 1 1 1 1 1 1 1 1 1 1 1 1 1 1 1 1 1 1 1 1 1 1 1 1 1 1 1 1 1 1 1 1 1 1 1 1 1 1 1 1 1 1 1 1 1 1 1 1 1 1 1 1 1 1 1 1 1 1 1 1 1 1 1 1 1 1 1 1 1 1 1 1 1 1 1 1 1 1 1 1 1 1 1 1 1 1 1 1 1 1 1 1 1 1 1 1 1 1 1 1 1 1 1 1 1 1 1 1 1 1 1 1 1 1 1 1 1 1 1 1 1 1 1 1 1 1 1 1 1 1 1 1 1 1 1 1 1 1 1 1 1 1 1 1 1 1 1 1 1 1 1 1 1 1 1 1 1 1 1 1 1 1 1 1 1 1 1 1 1 1 1 1 1 1 1 1 1 1 1 1 1 1 1 1 1 1 1 1 1 1 1 1 1 1 1 1 1 1 1 1 1 1 1 1 1 1 1 1 1 1 1 1 1 1 1 1 1 ]

}

}
