#VRML V2.0 utf8

Shape {

appearance Appearance { material Material {
ambientIntensity 0.3
diffuseColor 0.97647 0.843137 0.172549
specularColor 0.2 0.2 0.2
shininess 0.3
} }

geometry IndexedFaceSet {

creaseAngle 0.5

coord Coordinate { point [
0 0 0,
0 0 1,
0.735225 0.178571 1,
0.735225 0.18178 1,
0.748122 0.183415 1,
0.759808 0.183415 1,
0.772704 0.178571 1,
0.772704 0.18178 1,
0.748122 0.210177 1,
0.759808 0.21054 1,
0.757204 0.217503 1,
0.710462 0.256556 1,
0.710462 0.259765 1,
0.719604 0.254981 1,
0.733893 0.254981 1,
0.744792 0.256556 1,
0.744792 0.259765 1,
0.769071 0.256556 1,
0.769071 0.259765 1,
0.779364 0.254981 1,
0.786569 0.254981 1,
0.735225 0.178571 1.2,
0.735225 0.18178 1.2,
0.748122 0.183415 1.2,
0.759808 0.183415 1.2,
0.772704 0.178571 1.2,
0.772704 0.18178 1.2,
0.748122 0.210177 1.2,
0.759808 0.21054 1.2,
0.757204 0.217503 1.2,
0.710462 0.256556 1.2,
0.710462 0.259765 1.2,
0.719604 0.254981 1.2,
0.733893 0.254981 1.2,
0.744792 0.256556 1.2,
0.744792 0.259765 1.2,
0.769071 0.256556 1.2,
0.769071 0.259765 1.2,
0.779364 0.254981 1.2,
0.786569 0.254981 1.2,
0.82478 0.178571 1,
0.82478 0.18178 1,
0.837676 0.183415 1,
0.849362 0.183415 1,
0.837676 0.210177 1,
0.849362 0.21054 1,
0.846758 0.217503 1,
0.862258 0.178571 1,
0.862258 0.18178 1,
0.795469 0.256556 1,
0.795469 0.259765 1,
0.800017 0.256556 1,
0.800017 0.259765 1,
0.809158 0.254981 1,
0.823448 0.254981 1,
0.834346 0.256556 1,
0.834346 0.259765 1,
0.858625 0.256556 1,
0.858625 0.259765 1,
0.868918 0.254981 1,
0.876124 0.254981 1,
0.885024 0.256556 1,
0.885024 0.259765 1,
0.8883 0.256556 1,
0.8883 0.259765 1,
0.895383 0.254981 1,
0.907372 0.254981 1,
0.922266 0.176695 1,
0.925475 0.176695 1,
0.96816 0.176695 1,
0.971369 0.176695 1,
0.926686 0.197765 1,
0.947091 0.23264 1,
0.972338 0.197765 1,
1.03931 0.176695 1,
1.04252 0.176695 1,
1.04373 0.197765 1,
0.9193 0.256556 1,
0.9193 0.259765 1,
0.948543 0.254073 1,
0.951268 0.254073 1,
0.978091 0.256556 1,
0.978091 0.259765 1,
0.990744 0.254981 1,
0.997889 0.254981 1,
1.00497 0.256556 1,
1.00534 0.256556 1,
1.00497 0.259765 1,
1.00534 0.259765 1,
1.01243 0.254981 1,
1.02442 0.254981 1,
1.03634 0.256556 1,
1.03634 0.259765 1,
0.82478 0.178571 1.2,
0.82478 0.18178 1.2,
0.837676 0.183415 1.2,
0.849362 0.183415 1.2,
0.837676 0.210177 1.2,
0.849362 0.21054 1.2,
0.846758 0.217503 1.2,
0.862258 0.178571 1.2,
0.862258 0.18178 1.2,
0.795469 0.256556 1.2,
0.795469 0.259765 1.2,
0.800017 0.256556 1.2,
0.800017 0.259765 1.2,
0.809158 0.254981 1.2,
0.823448 0.254981 1.2,
0.834346 0.256556 1.2,
0.834346 0.259765 1.2,
0.858625 0.256556 1.2,
0.858625 0.259765 1.2,
0.868918 0.254981 1.2,
0.876124 0.254981 1.2,
0.885024 0.256556 1.2,
0.885024 0.259765 1.2,
0.8883 0.256556 1.2,
0.8883 0.259765 1.2,
0.895383 0.254981 1.2,
0.907372 0.254981 1.2,
0.922266 0.176695 1.2,
0.925475 0.176695 1.2,
0.96816 0.176695 1.2,
0.971369 0.176695 1.2,
0.926686 0.197765 1.2,
0.947091 0.23264 1.2,
0.972338 0.197765 1.2,
1.03931 0.176695 1.2,
1.04252 0.176695 1.2,
1.04373 0.197765 1.2,
0.9193 0.256556 1.2,
0.9193 0.259765 1.2,
0.948543 0.254073 1.2,
0.951268 0.254073 1.2,
0.978091 0.256556 1.2,
0.978091 0.259765 1.2,
0.990744 0.254981 1.2,
0.997889 0.254981 1.2,
1.00497 0.256556 1.2,
1.00534 0.256556 1.2,
1.00497 0.259765 1.2,
1.00534 0.259765 1.2,
1.01243 0.254981 1.2,
1.02442 0.254981 1.2,
1.03634 0.256556 1.2,
1.03634 0.259765 1.2,
0.909946 0.357143 1,
0.909946 0.360352 1,
0.919149 0.361987 1,
0.925748 0.361987 1,
0.936647 0.357143 1,
0.936647 0.360352 1,
0.933922 0.385418 1,
0.963046 0.357143 1,
0.963046 0.360352 1,
0.973944 0.361987 1,
0.965891 0.385418 1,
0.997376 0.357143 1,
0.997376 0.360352 1,
0.987082 0.361987 1,
1.00265 0.357143 1,
1.00265 0.360352 1,
1.01228 0.361987 1,
1.02396 0.361987 1,
1.03625 0.357143 1,
1.03625 0.360352 1,
0.935738 0.390868 1,
0.964014 0.390868 1,
0.949664 0.430284 1,
0.946819 0.439003 1,
0.958322 0.439003 1,
1.02396 0.392745 1,
1.02396 0.398194 1,
1.03855 0.392745 1,
1.03468 0.398194 1,
1.04395 0.3992 1,
1.00186 0.435128 1,
1.00186 0.438337 1,
1.01228 0.433553 1,
1.02396 0.432887 1,
1.03431 0.432887 1,
1.03692 0.438337 1,
1.04393 0.43191 1,
0.909946 0.357143 1.2,
0.909946 0.360352 1.2,
0.919149 0.361987 1.2,
0.925748 0.361987 1.2,
0.936647 0.357143 1.2,
0.936647 0.360352 1.2,
0.933922 0.385418 1.2,
0.963046 0.357143 1.2,
0.963046 0.360352 1.2,
0.973944 0.361987 1.2,
0.965891 0.385418 1.2,
0.997376 0.357143 1.2,
0.997376 0.360352 1.2,
0.987082 0.361987 1.2,
1.00265 0.357143 1.2,
1.00265 0.360352 1.2,
1.01228 0.361987 1.2,
1.02396 0.361987 1.2,
1.03625 0.357143 1.2,
1.03625 0.360352 1.2,
0.935738 0.390868 1.2,
0.964014 0.390868 1.2,
0.949664 0.430284 1.2,
0.946819 0.439003 1.2,
0.958322 0.439003 1.2,
1.02396 0.392745 1.2,
1.02396 0.398194 1.2,
1.03855 0.392745 1.2,
1.03468 0.398194 1.2,
1.04395 0.3992 1.2,
1.00186 0.435128 1.2,
1.00186 0.438337 1.2,
1.01228 0.433553 1.2,
1.02396 0.432887 1.2,
1.03431 0.432887 1.2,
1.03692 0.438337 1.2,
1.04393 0.43191 1.2,
0.824871 0.54525 1,
0.838071 0.53719 1,
0.843165 0.541496 1,
0.855629 0.534504 1,
0.855751 0.539165 1,
0.862456 0.539581 1,
0.868768 0.54083 1,
0.870448 0.535457 1,
0.874247 0.542775 1,
0.884268 0.538318 1,
0.878455 0.54528 1,
0.895838 0.535714 1,
0.895838 0.538923 1,
0.905465 0.540558 1,
0.917151 0.540558 1,
0.816607 0.558154 1,
0.813852 0.575372 1,
0.833984 0.548489 1,
0.828376 0.559903 1,
0.826506 0.575494 1,
0.816501 0.593771 1,
0.828292 0.592174 1,
0.833651 0.603829 1,
0.824447 0.607069 1,
0.837602 0.615129 1,
0.8429 0.610687 1,
0.880696 0.55739 1,
0.884631 0.55739 1,
0.917151 0.567562 1,
0.917151 0.573012 1,
0.879424 0.596988 1,
0.883421 0.596988 1,
0.856356 0.612972 1,
0.862116 0.612617 1,
0.867769 0.611549 1,
0.855871 0.617816 1,
0.868995 0.617044 1,
0.873029 0.609831 1,
0.877608 0.607523 1,
0.883057 0.614728 1,
0.895051 0.613699 1,
0.895051 0.616908 1,
0.905465 0.612124 1,
0.917151 0.611458 1,
0.930047 0.535714 1,
0.930047 0.538923 1,
0.964018 0.535714 1,
0.964018 0.538923 1,
0.974432 0.540558 1,
0.980789 0.540558 1,
0.991688 0.535714 1,
0.991688 0.538923 1,
1.03086 0.535714 1,
1.03673 0.535714 1,
0.926293 0.567562 1,
0.923447 0.573012 1,
0.93234 0.574177 1,
0.938758 0.569181 1,
0.947938 0.57404 1,
0.938554 0.577673 1,
0.942209 0.583804 1,
0.953592 0.582017 1,
0.943428 0.592871 1,
0.942262 0.601438 1,
0.923084 0.611458 1,
0.932514 0.610383 1,
0.925688 0.616908 1,
0.938765 0.607159 1,
0.948029 0.610929 1,
0.955477 0.592992 1,
0.964018 0.613699 1,
0.964018 0.616908 1,
0.974432 0.612124 1,
0.980789 0.608734 1,
1.03038 0.556785 1,
0.9886 0.616908 1,
1.01948 0.613699 1,
1.03038 0.612124 1,
1.01948 0.616908 1,
1.03673 0.612124 1,
1.04715 0.613699 1,
1.04715 0.616908 1,
0.824871 0.54525 1.2,
0.838071 0.53719 1.2,
0.843165 0.541496 1.2,
0.855629 0.534504 1.2,
0.855751 0.539165 1.2,
0.862456 0.539581 1.2,
0.868768 0.54083 1.2,
0.870448 0.535457 1.2,
0.874247 0.542775 1.2,
0.884268 0.538318 1.2,
0.878455 0.54528 1.2,
0.895838 0.535714 1.2,
0.895838 0.538923 1.2,
0.905465 0.540558 1.2,
0.917151 0.540558 1.2,
0.816607 0.558154 1.2,
0.813852 0.575372 1.2,
0.833984 0.548489 1.2,
0.828376 0.559903 1.2,
0.826506 0.575494 1.2,
0.816501 0.593771 1.2,
0.828292 0.592174 1.2,
0.833651 0.603829 1.2,
0.824447 0.607069 1.2,
0.837602 0.615129 1.2,
0.8429 0.610687 1.2,
0.880696 0.55739 1.2,
0.884631 0.55739 1.2,
0.917151 0.567562 1.2,
0.917151 0.573012 1.2,
0.879424 0.596988 1.2,
0.883421 0.596988 1.2,
0.856356 0.612972 1.2,
0.862116 0.612617 1.2,
0.867769 0.611549 1.2,
0.855871 0.617816 1.2,
0.868995 0.617044 1.2,
0.873029 0.609831 1.2,
0.877608 0.607523 1.2,
0.883057 0.614728 1.2,
0.895051 0.613699 1.2,
0.895051 0.616908 1.2,
0.905465 0.612124 1.2,
0.917151 0.611458 1.2,
0.930047 0.535714 1.2,
0.930047 0.538923 1.2,
0.964018 0.535714 1.2,
0.964018 0.538923 1.2,
0.974432 0.540558 1.2,
0.980789 0.540558 1.2,
0.991688 0.535714 1.2,
0.991688 0.538923 1.2,
1.03086 0.535714 1.2,
1.03673 0.535714 1.2,
0.926293 0.567562 1.2,
0.923447 0.573012 1.2,
0.93234 0.574177 1.2,
0.938758 0.569181 1.2,
0.947938 0.57404 1.2,
0.938554 0.577673 1.2,
0.942209 0.583804 1.2,
0.953592 0.582017 1.2,
0.943428 0.592871 1.2,
0.942262 0.601438 1.2,
0.923084 0.611458 1.2,
0.932514 0.610383 1.2,
0.925688 0.616908 1.2,
0.938765 0.607159 1.2,
0.948029 0.610929 1.2,
0.955477 0.592992 1.2,
0.964018 0.613699 1.2,
0.964018 0.616908 1.2,
0.974432 0.612124 1.2,
0.980789 0.608734 1.2,
1.03038 0.556785 1.2,
0.9886 0.616908 1.2,
1.01948 0.613699 1.2,
1.03038 0.612124 1.2,
1.01948 0.616908 1.2,
1.03673 0.612124 1.2,
1.04715 0.613699 1.2,
1.04715 0.616908 1.2,
0 1.25 0,
0 1.25 1,
0.45624 1.05373 1,
0.403446 1.07569 1,
0.427174 1.05922 1,
0.485303 1.05922 1,
0.509025 1.07569 1,
0.45624 1.05373 1.2,
0.403446 1.07569 1.2,
0.427174 1.05922 1.2,
0.485303 1.05922 1.2,
0.509025 1.07569 1.2,
0.387658 1.09965 1,
0.382395 1.12758 1,
0.387734 1.15626 1,
0.52482 1.09965 1,
0.524744 1.15626 1,
0.403752 1.18006 1,
0.427557 1.19608 1,
0.45624 1.20142 1,
0.484921 1.19608 1,
0.508719 1.18006 1,
0.387658 1.09965 1.2,
0.382395 1.12758 1.2,
0.387734 1.15626 1.2,
0.52482 1.09965 1.2,
0.524744 1.15626 1.2,
0.403752 1.18006 1.2,
0.427557 1.19608 1.2,
0.45624 1.20142 1.2,
0.484921 1.19608 1.2,
0.508719 1.18006 1.2,
0.644006 0.892857 1,
0.644006 0.898633 1,
0.693811 0.892857 1,
0.662752 0.901576 1,
0.674195 0.901576 1,
0.693811 0.898633 1,
0.727706 0.892857 1,
0.73152 0.892857 1,
0.77021 0.892857 1,
0.735771 0.927841 1,
0.77021 0.898633 1,
0.644006 0.892857 1.2,
0.644006 0.898633 1.2,
0.693811 0.892857 1.2,
0.662752 0.901576 1.2,
0.674195 0.901576 1.2,
0.693811 0.898633 1.2,
0.727706 0.892857 1.2,
0.73152 0.892857 1.2,
0.77021 0.892857 1.2,
0.735771 0.927841 1.2,
0.77021 0.898633 1.2,
0.816607 0.736726 1,
0.838071 0.715762 1,
0.843165 0.720068 1,
0.824871 0.723821 1,
0.833984 0.727061 1,
0.828376 0.738474 1,
0.813852 0.753944 1,
0.816501 0.772342 1,
0.826506 0.754065 1,
0.828292 0.770746 1,
0.855629 0.713075 1,
0.855751 0.717737 1,
0.862456 0.718153 1,
0.868768 0.719402 1,
0.870448 0.714029 1,
0.874247 0.721347 1,
0.884268 0.716889 1,
0.878455 0.723852 1,
0.880696 0.735962 1,
0.884631 0.735962 1,
0.895838 0.714286 1,
0.895838 0.717495 1,
0.905465 0.719129 1,
0.917151 0.719129 1,
0.879424 0.775559 1,
0.883421 0.775559 1,
0.917151 0.746133 1,
0.917151 0.751583 1,
0.930047 0.714286 1,
0.930047 0.717495 1,
0.964018 0.714286 1,
0.964018 0.717495 1,
0.974432 0.719129 1,
0.980789 0.719129 1,
0.926293 0.746133 1,
0.923447 0.751583 1,
0.93234 0.752748 1,
0.938758 0.747753 1,
0.938554 0.756245 1,
0.947938 0.752612 1,
0.942209 0.762375 1,
0.943428 0.771442 1,
0.942262 0.780009 1,
0.953592 0.760589 1,
0.955477 0.771563 1,
0.991688 0.714286 1,
0.991688 0.717495 1,
1.03086 0.714286 1,
1.03673 0.714286 1,
1.03038 0.735356 1,
0.816607 0.736726 1.2,
0.838071 0.715762 1.2,
0.843165 0.720068 1.2,
0.824871 0.723821 1.2,
0.833984 0.727061 1.2,
0.828376 0.738474 1.2,
0.813852 0.753944 1.2,
0.816501 0.772342 1.2,
0.826506 0.754065 1.2,
0.828292 0.770746 1.2,
0.855629 0.713075 1.2,
0.855751 0.717737 1.2,
0.862456 0.718153 1.2,
0.868768 0.719402 1.2,
0.870448 0.714029 1.2,
0.874247 0.721347 1.2,
0.884268 0.716889 1.2,
0.878455 0.723852 1.2,
0.880696 0.735962 1.2,
0.884631 0.735962 1.2,
0.895838 0.714286 1.2,
0.895838 0.717495 1.2,
0.905465 0.719129 1.2,
0.917151 0.719129 1.2,
0.879424 0.775559 1.2,
0.883421 0.775559 1.2,
0.917151 0.746133 1.2,
0.917151 0.751583 1.2,
0.930047 0.714286 1.2,
0.930047 0.717495 1.2,
0.964018 0.714286 1.2,
0.964018 0.717495 1.2,
0.974432 0.719129 1.2,
0.980789 0.719129 1.2,
0.926293 0.746133 1.2,
0.923447 0.751583 1.2,
0.93234 0.752748 1.2,
0.938758 0.747753 1.2,
0.938554 0.756245 1.2,
0.947938 0.752612 1.2,
0.942209 0.762375 1.2,
0.943428 0.771442 1.2,
0.942262 0.780009 1.2,
0.953592 0.760589 1.2,
0.955477 0.771563 1.2,
0.991688 0.714286 1.2,
0.991688 0.717495 1.2,
1.03086 0.714286 1.2,
1.03673 0.714286 1.2,
1.03038 0.735356 1.2,
0.824447 0.78564 1,
0.833651 0.782401 1,
0.8429 0.789258 1,
0.837602 0.793701 1,
0.867769 0.790121 1,
0.856356 0.791544 1,
0.855871 0.796387 1,
0.862116 0.791188 1,
0.868995 0.795615 1,
0.877608 0.786095 1,
0.873029 0.788403 1,
0.883057 0.793299 1,
0.895051 0.792271 1,
0.895051 0.795479 1,
0.905465 0.790696 1,
0.917151 0.790029 1,
0.829498 0.892857 1,
0.789827 0.901576 1,
0.810752 0.901576 1,
0.829498 0.898633 1,
0.899701 0.892857 1,
0.899701 0.898633 1,
0.917029 0.901576 1,
0.923084 0.790029 1,
0.932514 0.788955 1,
0.925688 0.795479 1,
0.938765 0.78573 1,
0.948029 0.7895 1,
0.964018 0.792271 1,
0.964018 0.795479 1,
0.974432 0.790696 1,
0.980789 0.787305 1,
0.9886 0.795479 1,
1.03038 0.790696 1,
1.01948 0.792271 1,
1.01948 0.795479 1,
1.03673 0.790696 1,
1.04715 0.792271 1,
1.04715 0.795479 1,
0.961277 0.892857 1,
0.938063 0.901576 1,
0.961277 0.898633 1,
1.02406 0.892857 1,
1.02406 0.898633 1,
1.0428 0.901576 1,
0.824447 0.78564 1.2,
0.833651 0.782401 1.2,
0.8429 0.789258 1.2,
0.837602 0.793701 1.2,
0.867769 0.790121 1.2,
0.856356 0.791544 1.2,
0.855871 0.796387 1.2,
0.862116 0.791188 1.2,
0.868995 0.795615 1.2,
0.877608 0.786095 1.2,
0.873029 0.788403 1.2,
0.883057 0.793299 1.2,
0.895051 0.792271 1.2,
0.895051 0.795479 1.2,
0.905465 0.790696 1.2,
0.917151 0.790029 1.2,
0.829498 0.892857 1.2,
0.789827 0.901576 1.2,
0.810752 0.901576 1.2,
0.829498 0.898633 1.2,
0.899701 0.892857 1.2,
0.899701 0.898633 1.2,
0.917029 0.901576 1.2,
0.923084 0.790029 1.2,
0.932514 0.788955 1.2,
0.925688 0.795479 1.2,
0.938765 0.78573 1.2,
0.948029 0.7895 1.2,
0.964018 0.792271 1.2,
0.964018 0.795479 1.2,
0.974432 0.790696 1.2,
0.980789 0.787305 1.2,
0.9886 0.795479 1.2,
1.03038 0.790696 1.2,
1.01948 0.792271 1.2,
1.01948 0.795479 1.2,
1.03673 0.790696 1.2,
1.04715 0.792271 1.2,
1.04715 0.795479 1.2,
0.961277 0.892857 1.2,
0.938063 0.901576 1.2,
0.961277 0.898633 1.2,
1.02406 0.892857 1.2,
1.02406 0.898633 1.2,
1.0428 0.901576 1.2,
0.644006 1.03323 1,
0.644006 1.03901 1,
0.662752 1.03039 1,
0.674195 1.01852 1,
0.688254 1.03901 1,
0.644006 1.03323 1.2,
0.644006 1.03901 1.2,
0.662752 1.03039 1.2,
0.674195 1.01852 1.2,
0.688254 1.03901 1.2,
0.530085 1.12758 1,
0.530085 1.12758 1.2,
0.789827 1.01852 1,
0.810752 1.03039 1,
0.787648 1.03901 1,
0.829498 1.03323 1,
0.829498 1.03901 1,
0.898283 1.03323 1,
0.917029 1.03039 1,
0.898283 1.03901 1,
0.938063 0.950182 1,
0.938063 0.959992 1,
0.949397 0.959992 1,
0.954519 0.950182 1,
0.976957 0.953098 1,
0.965404 0.96209 1,
0.976588 0.968383 1,
0.983168 0.979418 1,
0.983263 1.01116 1,
0.993481 0.961844 1,
1.00366 0.976203 1,
0.985362 0.995738 1,
1.00705 0.995957 1,
0.938063 1.0292 1,
0.948743 1.0292 1,
0.965717 1.02726 1,
0.976969 1.02146 1,
0.953429 1.03901 1,
0.993645 1.02824 1,
1.02406 1.03323 1,
1.0428 1.03039 1,
1.02406 1.03901 1,
0.789827 1.01852 1.2,
0.810752 1.03039 1.2,
0.787648 1.03901 1.2,
0.829498 1.03323 1.2,
0.829498 1.03901 1.2,
0.898283 1.03323 1.2,
0.917029 1.03039 1.2,
0.898283 1.03901 1.2,
0.938063 0.950182 1.2,
0.938063 0.959992 1.2,
0.949397 0.959992 1.2,
0.954519 0.950182 1.2,
0.976957 0.953098 1.2,
0.965404 0.96209 1.2,
0.976588 0.968383 1.2,
0.983168 0.979418 1.2,
0.983263 1.01116 1.2,
0.993481 0.961844 1.2,
1.00366 0.976203 1.2,
0.985362 0.995738 1.2,
1.00705 0.995957 1.2,
0.938063 1.0292 1.2,
0.948743 1.0292 1.2,
0.965717 1.02726 1.2,
0.976969 1.02146 1.2,
0.953429 1.03901 1.2,
0.993645 1.02824 1.2,
1.02406 1.03323 1.2,
1.0428 1.03039 1.2,
1.02406 1.03901 1.2,
2.1 0 0,
1.0852 0.176695 1,
1.08841 0.176695 1,
1.06414 0.23264 1,
1.08938 0.197765 1,
1.12584 0.178571 1,
1.12584 0.18178 1,
1.13625 0.183415 1,
1.14261 0.183415 1,
1.15351 0.178571 1,
1.15351 0.18178 1,
1.06559 0.254073 1,
1.06831 0.254073 1,
1.09514 0.256556 1,
1.09514 0.259765 1,
1.10779 0.254981 1,
1.11493 0.254981 1,
1.14261 0.251591 1,
1.12202 0.256556 1,
1.12202 0.259765 1,
1.12584 0.256556 1,
1.12584 0.259765 1,
1.13625 0.254981 1,
1.15042 0.259765 1,
1.19268 0.178571 1,
1.19856 0.178571 1,
1.21539 0.178571 1,
1.21539 0.18178 1,
1.22581 0.183415 1,
1.23217 0.183415 1,
1.24306 0.178571 1,
1.24306 0.18178 1,
1.1922 0.199642 1,
1.28224 0.178571 1,
1.28811 0.178571 1,
1.30495 0.178571 1,
1.30495 0.18178 1,
1.28175 0.199642 1,
1.1813 0.256556 1,
1.1813 0.259765 1,
1.1922 0.254981 1,
1.19856 0.254981 1,
1.20897 0.256556 1,
1.20897 0.259765 1,
1.23217 0.251591 1,
1.21539 0.256556 1,
1.21539 0.259765 1,
1.22581 0.254981 1,
1.23998 0.259765 1,
1.27085 0.256556 1,
1.27085 0.259765 1,
1.28175 0.254981 1,
1.28811 0.254981 1,
1.29853 0.256556 1,
1.29853 0.259765 1,
1.30495 0.256556 1,
1.30495 0.259765 1,
1.0852 0.176695 1.2,
1.08841 0.176695 1.2,
1.06414 0.23264 1.2,
1.08938 0.197765 1.2,
1.12584 0.178571 1.2,
1.12584 0.18178 1.2,
1.13625 0.183415 1.2,
1.14261 0.183415 1.2,
1.15351 0.178571 1.2,
1.15351 0.18178 1.2,
1.06559 0.254073 1.2,
1.06831 0.254073 1.2,
1.09514 0.256556 1.2,
1.09514 0.259765 1.2,
1.10779 0.254981 1.2,
1.11493 0.254981 1.2,
1.14261 0.251591 1.2,
1.12202 0.256556 1.2,
1.12202 0.259765 1.2,
1.12584 0.256556 1.2,
1.12584 0.259765 1.2,
1.13625 0.254981 1.2,
1.15042 0.259765 1.2,
1.19268 0.178571 1.2,
1.19856 0.178571 1.2,
1.21539 0.178571 1.2,
1.21539 0.18178 1.2,
1.22581 0.183415 1.2,
1.23217 0.183415 1.2,
1.24306 0.178571 1.2,
1.24306 0.18178 1.2,
1.1922 0.199642 1.2,
1.28224 0.178571 1.2,
1.28811 0.178571 1.2,
1.30495 0.178571 1.2,
1.30495 0.18178 1.2,
1.28175 0.199642 1.2,
1.1813 0.256556 1.2,
1.1813 0.259765 1.2,
1.1922 0.254981 1.2,
1.19856 0.254981 1.2,
1.20897 0.256556 1.2,
1.20897 0.259765 1.2,
1.23217 0.251591 1.2,
1.21539 0.256556 1.2,
1.21539 0.259765 1.2,
1.22581 0.254981 1.2,
1.23998 0.259765 1.2,
1.27085 0.256556 1.2,
1.27085 0.259765 1.2,
1.28175 0.254981 1.2,
1.28811 0.254981 1.2,
1.29853 0.256556 1.2,
1.29853 0.259765 1.2,
1.30495 0.256556 1.2,
1.30495 0.259765 1.2,
1.31536 0.183415 1,
1.32172 0.183415 1,
1.33262 0.178571 1,
1.33262 0.18178 1,
1.37179 0.178571 1,
1.37767 0.178571 1,
1.37131 0.199642 1,
1.32172 0.251591 1,
1.31536 0.254981 1,
1.32953 0.259765 1,
1.36041 0.256556 1,
1.36041 0.259765 1,
1.37131 0.254981 1,
1.37767 0.254981 1,
1.38808 0.256556 1,
1.38808 0.259765 1,
1.31536 0.183415 1.2,
1.32172 0.183415 1.2,
1.33262 0.178571 1.2,
1.33262 0.18178 1.2,
1.37179 0.178571 1.2,
1.37767 0.178571 1.2,
1.37131 0.199642 1.2,
1.32172 0.251591 1.2,
1.31536 0.254981 1.2,
1.32953 0.259765 1.2,
1.36041 0.256556 1.2,
1.36041 0.259765 1.2,
1.37131 0.254981 1.2,
1.37767 0.254981 1.2,
1.38808 0.256556 1.2,
1.38808 0.259765 1.2,
1.06138 0.357143 1,
1.08081 0.357143 1,
1.08081 0.360352 1,
1.07204 0.361987 1,
1.08457 0.357143 1,
1.08457 0.360352 1,
1.09499 0.361987 1,
1.11224 0.357143 1,
1.11224 0.360352 1,
1.10135 0.361987 1,
1.13107 0.357143 1,
1.13319 0.357143 1,
1.13555 0.376579 1,
1.15469 0.357143 1,
1.15469 0.360352 1,
1.16559 0.361987 1,
1.17721 0.361987 1,
1.05006 0.39444 1,
1.05702 0.397641 1,
1.05009 0.40222 1,
1.05352 0.407631 1,
1.06229 0.402644 1,
1.0656 0.4091 1,
1.05466 0.415812 1,
1.05353 0.423737 1,
1.05015 0.428981 1,
1.06489 0.426484 1,
1.06671 0.416661 1,
1.10135 0.426954 1,
1.05018 0.43705 1,
1.05944 0.433189 1,
1.08457 0.435128 1,
1.08457 0.438337 1,
1.09499 0.433553 1,
1.10916 0.438337 1,
1.16559 0.426954 1,
1.16438 0.438337 1,
1.17721 0.433553 1,
1.18763 0.357143 1,
1.18763 0.360352 1,
1.18763 0.435128 1,
1.18763 0.438337 1,
1.06138 0.357143 1.2,
1.08081 0.357143 1.2,
1.08081 0.360352 1.2,
1.07204 0.361987 1.2,
1.08457 0.357143 1.2,
1.08457 0.360352 1.2,
1.09499 0.361987 1.2,
1.11224 0.357143 1.2,
1.11224 0.360352 1.2,
1.10135 0.361987 1.2,
1.13107 0.357143 1.2,
1.13319 0.357143 1.2,
1.13555 0.376579 1.2,
1.15469 0.357143 1.2,
1.15469 0.360352 1.2,
1.16559 0.361987 1.2,
1.17721 0.361987 1.2,
1.05006 0.39444 1.2,
1.05702 0.397641 1.2,
1.05009 0.40222 1.2,
1.05352 0.407631 1.2,
1.06229 0.402644 1.2,
1.0656 0.4091 1.2,
1.05466 0.415812 1.2,
1.05353 0.423737 1.2,
1.05015 0.428981 1.2,
1.06489 0.426484 1.2,
1.06671 0.416661 1.2,
1.10135 0.426954 1.2,
1.05018 0.43705 1.2,
1.05944 0.433189 1.2,
1.08457 0.435128 1.2,
1.08457 0.438337 1.2,
1.09499 0.433553 1.2,
1.10916 0.438337 1.2,
1.16559 0.426954 1.2,
1.16438 0.438337 1.2,
1.17721 0.433553 1.2,
1.18763 0.357143 1.2,
1.18763 0.360352 1.2,
1.18763 0.435128 1.2,
1.18763 0.438337 1.2,
1.06611 0.54525 1,
1.0793 0.53719 1,
1.09686 0.534504 1,
1.0844 0.541496 1,
1.09698 0.539165 1,
1.11168 0.535457 1,
1.10369 0.539581 1,
1.11 0.54083 1,
1.11548 0.542775 1,
1.11969 0.54528 1,
1.1255 0.538318 1,
1.13707 0.535714 1,
1.13707 0.538923 1,
1.1467 0.540558 1,
1.15838 0.540558 1,
1.17128 0.535714 1,
1.17128 0.538923 1,
1.05784 0.558154 1,
1.07522 0.548489 1,
1.06961 0.559903 1,
1.05509 0.575372 1,
1.06774 0.575494 1,
1.05773 0.593771 1,
1.06953 0.592174 1,
1.07488 0.603829 1,
1.06568 0.607069 1,
1.07884 0.615129 1,
1.08413 0.610687 1,
1.09759 0.612972 1,
1.09711 0.617816 1,
1.10335 0.612617 1,
1.11426 0.609831 1,
1.109 0.611549 1,
1.11023 0.617044 1,
1.12193 0.55739 1,
1.12587 0.55739 1,
1.1467 0.567441 1,
1.15838 0.55856 1,
1.15838 0.567562 1,
1.15838 0.573012 1,
1.16468 0.573012 1,
1.16753 0.567562 1,
1.17999 0.569181 1,
1.17357 0.574177 1,
1.17979 0.577673 1,
1.12066 0.596988 1,
1.12465 0.596988 1,
1.11884 0.607523 1,
1.12429 0.614728 1,
1.13628 0.613699 1,
1.1467 0.612124 1,
1.13628 0.616908 1,
1.15838 0.611458 1,
1.16432 0.611458 1,
1.18 0.607159 1,
1.17375 0.610383 1,
1.16692 0.616908 1,
1.20525 0.535714 1,
1.20525 0.538923 1,
1.21567 0.540558 1,
1.22202 0.540558 1,
1.23292 0.535714 1,
1.23292 0.538923 1,
1.2721 0.535714 1,
1.27797 0.535714 1,
1.18917 0.57404 1,
1.18344 0.583804 1,
1.19483 0.582017 1,
1.18466 0.592871 1,
1.19671 0.592992 1,
1.1835 0.601438 1,
1.18926 0.610929 1,
1.20525 0.613699 1,
1.20525 0.616908 1,
1.22202 0.608734 1,
1.21567 0.612124 1,
1.22983 0.616908 1,
1.27161 0.556785 1,
1.26071 0.613699 1,
1.26071 0.616908 1,
1.27161 0.612124 1,
1.27797 0.612124 1,
1.28838 0.613699 1,
1.28838 0.616908 1,
1.06611 0.54525 1.2,
1.0793 0.53719 1.2,
1.09686 0.534504 1.2,
1.0844 0.541496 1.2,
1.09698 0.539165 1.2,
1.11168 0.535457 1.2,
1.10369 0.539581 1.2,
1.11 0.54083 1.2,
1.11548 0.542775 1.2,
1.11969 0.54528 1.2,
1.1255 0.538318 1.2,
1.13707 0.535714 1.2,
1.13707 0.538923 1.2,
1.1467 0.540558 1.2,
1.15838 0.540558 1.2,
1.17128 0.535714 1.2,
1.17128 0.538923 1.2,
1.05784 0.558154 1.2,
1.07522 0.548489 1.2,
1.06961 0.559903 1.2,
1.05509 0.575372 1.2,
1.06774 0.575494 1.2,
1.05773 0.593771 1.2,
1.06953 0.592174 1.2,
1.07488 0.603829 1.2,
1.06568 0.607069 1.2,
1.07884 0.615129 1.2,
1.08413 0.610687 1.2,
1.09759 0.612972 1.2,
1.09711 0.617816 1.2,
1.10335 0.612617 1.2,
1.11426 0.609831 1.2,
1.109 0.611549 1.2,
1.11023 0.617044 1.2,
1.12193 0.55739 1.2,
1.12587 0.55739 1.2,
1.15838 0.567562 1.2,
1.15838 0.573012 1.2,
1.16468 0.573012 1.2,
1.16753 0.567562 1.2,
1.17999 0.569181 1.2,
1.17357 0.574177 1.2,
1.17979 0.577673 1.2,
1.12066 0.596988 1.2,
1.12465 0.596988 1.2,
1.11884 0.607523 1.2,
1.12429 0.614728 1.2,
1.13628 0.613699 1.2,
1.1467 0.612124 1.2,
1.13628 0.616908 1.2,
1.15838 0.611458 1.2,
1.16432 0.611458 1.2,
1.18 0.607159 1.2,
1.17375 0.610383 1.2,
1.16692 0.616908 1.2,
1.20525 0.535714 1.2,
1.20525 0.538923 1.2,
1.21567 0.540558 1.2,
1.22202 0.540558 1.2,
1.23292 0.535714 1.2,
1.23292 0.538923 1.2,
1.2721 0.535714 1.2,
1.27797 0.535714 1.2,
1.18917 0.57404 1.2,
1.18344 0.583804 1.2,
1.19483 0.582017 1.2,
1.18466 0.592871 1.2,
1.19671 0.592992 1.2,
1.1835 0.601438 1.2,
1.18926 0.610929 1.2,
1.20525 0.613699 1.2,
1.20525 0.616908 1.2,
1.22202 0.608734 1.2,
1.21567 0.612124 1.2,
1.22983 0.616908 1.2,
1.27161 0.556785 1.2,
1.26071 0.613699 1.2,
1.26071 0.616908 1.2,
1.27161 0.612124 1.2,
1.27797 0.612124 1.2,
1.28838 0.613699 1.2,
1.28838 0.616908 1.2,
2.1 0 1,
2.1 1.25 0,
1.0793 0.715762 1,
1.06611 0.723821 1,
1.05784 0.736726 1,
1.07522 0.727061 1,
1.06961 0.738474 1,
1.0844 0.720068 1,
1.09686 0.713075 1,
1.09698 0.717737 1,
1.10369 0.718153 1,
1.11168 0.714029 1,
1.11 0.719402 1,
1.11548 0.721347 1,
1.05509 0.753944 1,
1.06774 0.754065 1,
1.05773 0.772342 1,
1.06953 0.770746 1,
1.1255 0.716889 1,
1.13707 0.714286 1,
1.13707 0.717495 1,
1.1467 0.719129 1,
1.11969 0.723852 1,
1.12193 0.735962 1,
1.12587 0.735962 1,
1.15838 0.719129 1,
1.17128 0.714286 1,
1.17128 0.717495 1,
1.12066 0.775559 1,
1.12465 0.775559 1,
1.15838 0.746133 1,
1.15838 0.751583 1,
1.16468 0.751583 1,
1.16753 0.746133 1,
1.17999 0.747753 1,
1.17357 0.752748 1,
1.17979 0.756245 1,
1.20525 0.714286 1,
1.20525 0.717495 1,
1.21567 0.719129 1,
1.22202 0.719129 1,
1.23292 0.714286 1,
1.23292 0.717495 1,
1.18917 0.752612 1,
1.19483 0.760589 1,
1.18344 0.762375 1,
1.18466 0.771442 1,
1.1835 0.780009 1,
1.19671 0.771563 1,
1.2721 0.714286 1,
1.27797 0.714286 1,
1.27161 0.735356 1,
1.0793 0.715762 1.2,
1.06611 0.723821 1.2,
1.05784 0.736726 1.2,
1.07522 0.727061 1.2,
1.06961 0.738474 1.2,
1.0844 0.720068 1.2,
1.09686 0.713075 1.2,
1.09698 0.717737 1.2,
1.10369 0.718153 1.2,
1.11168 0.714029 1.2,
1.11 0.719402 1.2,
1.11548 0.721347 1.2,
1.05509 0.753944 1.2,
1.06774 0.754065 1.2,
1.05773 0.772342 1.2,
1.06953 0.770746 1.2,
1.1255 0.716889 1.2,
1.13707 0.714286 1.2,
1.13707 0.717495 1.2,
1.1467 0.719129 1.2,
1.11969 0.723852 1.2,
1.12193 0.735962 1.2,
1.12587 0.735962 1.2,
1.15838 0.719129 1.2,
1.17128 0.714286 1.2,
1.17128 0.717495 1.2,
1.12066 0.775559 1.2,
1.12465 0.775559 1.2,
1.15838 0.746133 1.2,
1.15838 0.751583 1.2,
1.16468 0.751583 1.2,
1.16753 0.746133 1.2,
1.17999 0.747753 1.2,
1.17357 0.752748 1.2,
1.17979 0.756245 1.2,
1.20525 0.714286 1.2,
1.20525 0.717495 1.2,
1.21567 0.719129 1.2,
1.22202 0.719129 1.2,
1.23292 0.714286 1.2,
1.23292 0.717495 1.2,
1.18917 0.752612 1.2,
1.19483 0.760589 1.2,
1.18344 0.762375 1.2,
1.18466 0.771442 1.2,
1.1835 0.780009 1.2,
1.19671 0.771563 1.2,
1.2721 0.714286 1.2,
1.27797 0.714286 1.2,
1.27161 0.735356 1.2,
1.06568 0.78564 1,
1.07488 0.782401 1,
1.07884 0.793701 1,
1.08413 0.789258 1,
1.09759 0.791544 1,
1.09711 0.796387 1,
1.109 0.790121 1,
1.11426 0.788403 1,
1.10335 0.791188 1,
1.11023 0.795615 1,
1.11884 0.786095 1,
1.12429 0.793299 1,
1.1467 0.790696 1,
1.13628 0.792271 1,
1.13628 0.795479 1,
1.15838 0.790029 1,
1.16432 0.790029 1,
1.18 0.78573 1,
1.17375 0.788955 1,
1.16692 0.795479 1,
1.08247 0.892857 1,
1.06373 0.901576 1,
1.08247 0.898633 1,
1.10444 0.933249 1,
1.14307 0.895514 1,
1.17468 0.890678 1,
1.11932 0.910021 1,
1.13572 0.915852 1,
1.12562 0.936397 1,
1.15224 0.903265 1,
1.1749 0.899069 1,
1.18926 0.7895 1,
1.20525 0.792271 1,
1.20525 0.795479 1,
1.21567 0.790696 1,
1.22202 0.787305 1,
1.22983 0.795479 1,
1.26071 0.792271 1,
1.26071 0.795479 1,
1.27161 0.790696 1,
1.27797 0.790696 1,
1.28838 0.792271 1,
1.28838 0.795479 1,
1.20135 0.892394 1,
1.22623 0.897544 1,
1.18697 0.899818 1,
1.19833 0.902066 1,
1.20819 0.905567 1,
1.21577 0.910076 1,
1.2198 0.931874 1,
1.22688 0.931874 1,
1.25109 0.895364 1,
1.27016 0.891849 1,
1.29032 0.890678 1,
1.31226 0.893457 1,
1.26199 0.905608 1,
1.26712 0.903374 1,
1.27403 0.901467 1,
1.24989 0.926098 1,
1.25708 0.926098 1,
1.28156 0.900159 1,
1.28858 0.899723 1,
1.30345 0.901684 1,
1.06568 0.78564 1.2,
1.07488 0.782401 1.2,
1.07884 0.793701 1.2,
1.08413 0.789258 1.2,
1.09759 0.791544 1.2,
1.09711 0.796387 1.2,
1.109 0.790121 1.2,
1.11426 0.788403 1.2,
1.10335 0.791188 1.2,
1.11023 0.795615 1.2,
1.11884 0.786095 1.2,
1.12429 0.793299 1.2,
1.1467 0.790696 1.2,
1.13628 0.792271 1.2,
1.13628 0.795479 1.2,
1.15838 0.790029 1.2,
1.16432 0.790029 1.2,
1.18 0.78573 1.2,
1.17375 0.788955 1.2,
1.16692 0.795479 1.2,
1.08247 0.892857 1.2,
1.06373 0.901576 1.2,
1.08247 0.898633 1.2,
1.10444 0.933249 1.2,
1.14307 0.895514 1.2,
1.17468 0.890678 1.2,
1.11932 0.910021 1.2,
1.13572 0.915852 1.2,
1.12562 0.936397 1.2,
1.15224 0.903265 1.2,
1.1749 0.899069 1.2,
1.18926 0.7895 1.2,
1.20525 0.792271 1.2,
1.20525 0.795479 1.2,
1.21567 0.790696 1.2,
1.22202 0.787305 1.2,
1.22983 0.795479 1.2,
1.26071 0.792271 1.2,
1.26071 0.795479 1.2,
1.27161 0.790696 1.2,
1.27797 0.790696 1.2,
1.28838 0.792271 1.2,
1.28838 0.795479 1.2,
1.20135 0.892394 1.2,
1.22623 0.897544 1.2,
1.18697 0.899818 1.2,
1.19833 0.902066 1.2,
1.20819 0.905567 1.2,
1.21577 0.910076 1.2,
1.2198 0.931874 1.2,
1.22688 0.931874 1.2,
1.25109 0.895364 1.2,
1.27016 0.891849 1.2,
1.29032 0.890678 1.2,
1.31226 0.893457 1.2,
1.26199 0.905608 1.2,
1.26712 0.903374 1.2,
1.27403 0.901467 1.2,
1.24989 0.926098 1.2,
1.25708 0.926098 1.2,
1.28156 0.900159 1.2,
1.28858 0.899723 1.2,
1.30345 0.901684 1.2,
1.36062 0.892857 1,
1.31386 0.907569 1,
1.32857 0.901794 1,
1.33871 0.915063 1,
1.31999 0.918032 1,
1.32204 0.933727 1,
1.34209 0.932637 1,
1.36062 0.908877 1,
1.3749 0.909641 1,
1.3855 0.91915 1,
1.3809 0.927297 1,
1.3955 0.927841 1,
1.4501 0.892857 1,
1.4501 0.909641 1,
1.36062 0.892857 1.2,
1.31386 0.907569 1.2,
1.32857 0.901794 1.2,
1.33871 0.915063 1.2,
1.31999 0.918032 1.2,
1.32204 0.933727 1.2,
1.34209 0.932637 1.2,
1.36062 0.908877 1.2,
1.3749 0.909641 1.2,
1.3855 0.91915 1.2,
1.3809 0.927297 1.2,
1.3955 0.927841 1.2,
1.4501 0.892857 1.2,
1.4501 0.909641 1.2,
1.09948 0.964242 1,
1.10425 0.997359 1,
1.12226 0.96446 1,
1.12547 0.994485 1,
1.13512 1.01546 1,
1.06373 1.03039 1,
1.08247 1.03323 1,
1.08247 1.03901 1,
1.11855 1.0213 1,
1.14223 1.0358 1,
1.15177 1.02781 1,
1.17599 1.03192 1,
1.17512 1.04064 1,
1.21751 1.00315 1,
1.2247 1.00315 1,
1.27561 0.964677 1,
1.27561 0.973614 1,
1.29119 0.963806 1,
1.29119 0.974595 1,
1.30493 0.961367 1,
1.30351 0.969364 1,
1.25436 1.00784 1,
1.26155 1.00784 1,
1.3019 0.976829 1,
1.30939 0.982224 1,
1.18635 1.03128 1,
1.19653 1.02936 1,
1.206 1.02627 1,
1.19874 1.03925 1,
1.21424 1.02211 1,
1.22405 1.03508 1,
1.26536 1.02571 1,
1.27054 1.02807 1,
1.27648 1.0299 1,
1.25436 1.03595 1,
1.26441 1.03831 1,
1.27299 1.03971 1,
1.28267 1.03109 1,
1.28858 1.03149 1,
1.3089 1.02478 1,
1.30063 1.02981 1,
1.28081 1.04041 1,
1.28858 1.04064 1,
1.09948 0.964242 1.2,
1.10425 0.997359 1.2,
1.12226 0.96446 1.2,
1.12547 0.994485 1.2,
1.13512 1.01546 1.2,
1.06373 1.03039 1.2,
1.08247 1.03323 1.2,
1.08247 1.03901 1.2,
1.11855 1.0213 1.2,
1.14223 1.0358 1.2,
1.15177 1.02781 1.2,
1.17599 1.03192 1.2,
1.17512 1.04064 1.2,
1.21751 1.00315 1.2,
1.2247 1.00315 1.2,
1.27561 0.964677 1.2,
1.27561 0.973614 1.2,
1.29119 0.963806 1.2,
1.29119 0.974595 1.2,
1.30493 0.961367 1.2,
1.30351 0.969364 1.2,
1.25436 1.00784 1.2,
1.26155 1.00784 1.2,
1.3019 0.976829 1.2,
1.30939 0.982224 1.2,
1.18635 1.03128 1.2,
1.19653 1.02936 1.2,
1.206 1.02627 1.2,
1.19874 1.03925 1.2,
1.21424 1.02211 1.2,
1.22405 1.03508 1.2,
1.26536 1.02571 1.2,
1.27054 1.02807 1.2,
1.27648 1.0299 1.2,
1.25436 1.03595 1.2,
1.26441 1.03831 1.2,
1.27299 1.03971 1.2,
1.28267 1.03109 1.2,
1.28858 1.03149 1.2,
1.3089 1.02478 1.2,
1.30063 1.02981 1.2,
1.28081 1.04041 1.2,
1.28858 1.04064 1.2,
1.32016 0.946382 1,
1.31452 0.955578 1,
1.33975 0.947091 1,
1.32073 0.965372 1,
1.31704 0.973247 1,
1.33272 0.957975 1,
1.3271 0.980535 1,
1.31381 0.990997 1,
1.33336 0.991066 1,
1.31528 1.00337 1,
1.33544 1.00468 1,
1.36553 1.00784 1,
1.37272 1.00784 1,
1.39782 0.942772 1,
1.40956 0.954978 1,
1.41495 0.944993 1,
1.41742 0.965713 1,
1.42798 0.957866 1,
1.43652 0.968629 1,
1.42269 0.976774 1,
1.42568 0.988817 1,
1.44253 0.979445 1,
1.42667 1.00249 1,
1.42506 1.01497 1,
1.31369 1.01608 1,
1.32372 1.03165 1,
1.37654 1.02571 1,
1.36553 1.03595 1,
1.38158 1.02807 1,
1.38733 1.0299 1,
1.39335 1.03109 1,
1.39921 1.03149 1,
1.38387 1.03947 1,
1.39921 1.04064 1,
1.42024 1.02407 1,
1.41177 1.02963 1,
1.43522 1.03067 1,
1.4202 1.03815 1,
1.44608 0.990629 1,
1.44727 1.00249 1,
1.44426 1.01864 1,
1.32016 0.946382 1.2,
1.31452 0.955578 1.2,
1.33975 0.947091 1.2,
1.32073 0.965372 1.2,
1.31704 0.973247 1.2,
1.33272 0.957975 1.2,
1.3271 0.980535 1.2,
1.31381 0.990997 1.2,
1.33336 0.991066 1.2,
1.31528 1.00337 1.2,
1.33544 1.00468 1.2,
1.36553 1.00784 1.2,
1.37272 1.00784 1.2,
1.39782 0.942772 1.2,
1.40956 0.954978 1.2,
1.41495 0.944993 1.2,
1.41742 0.965713 1.2,
1.42798 0.957866 1.2,
1.43652 0.968629 1.2,
1.42269 0.976774 1.2,
1.42568 0.988817 1.2,
1.44253 0.979445 1.2,
1.42667 1.00249 1.2,
1.42506 1.01497 1.2,
1.31369 1.01608 1.2,
1.32372 1.03165 1.2,
1.37654 1.02571 1.2,
1.36553 1.03595 1.2,
1.38158 1.02807 1.2,
1.38733 1.0299 1.2,
1.39335 1.03109 1.2,
1.39921 1.03149 1.2,
1.38387 1.03947 1.2,
1.39921 1.04064 1.2,
1.42024 1.02407 1.2,
1.41177 1.02963 1.2,
1.43522 1.03067 1.2,
1.4202 1.03815 1.2,
1.44608 0.990629 1.2,
1.44727 1.00249 1.2,
1.44426 1.01864 1.2,
2.1 1.25 1
] }

coordIndex [
1,2,3,-1
1,3,11,-1
1,11,12,-1
0,1,385,-1
0,1095,1,-1
1,12,227,-1
13,11,3,-1
4,8,3,-1
13,3,8,-1
5,7,53,-1
5,53,9,-1
10,15,14,-1
15,18,16,-1
10,19,15,-1
9,53,20,-1
18,15,17,-1
19,17,15,-1
1,1095,2,-1
6,44,7,-1
41,6,40,-1
42,6,41,-1
42,44,6,-1
53,7,44,-1
47,67,48,-1
43,48,65,-1
43,65,45,-1
48,67,65,-1
53,49,20,-1
49,52,50,-1
52,49,51,-1
53,51,49,-1
46,55,54,-1
46,59,55,-1
55,58,56,-1
58,55,57,-1
16,147,12,-1
16,18,147,-1
50,147,18,-1
50,52,147,-1
56,147,52,-1
45,61,60,-1
45,63,61,-1
45,65,63,-1
59,57,55,-1
77,66,71,-1
61,64,62,-1
64,61,63,-1
56,58,146,-1
62,146,58,-1
62,64,146,-1
78,146,64,-1
72,68,69,-1
89,70,74,-1
70,85,84,-1
70,89,86,-1
70,86,85,-1
77,71,79,-1
77,79,78,-1
73,81,80,-1
73,83,81,-1
82,80,81,-1
78,79,150,-1
80,150,79,-1
80,82,153,-1
87,153,82,-1
85,88,87,-1
88,85,86,-1
76,91,90,-1
76,711,91,-1
91,711,92,-1
87,88,160,-1
92,160,88,-1
1,221,220,-1
1,220,235,-1
1,235,236,-1
1,236,240,-1
1,223,221,-1
1,227,223,-1
1,240,243,-1
1,243,439,-1
1,441,438,-1
1,439,441,-1
56,146,147,-1
12,147,169,-1
12,169,231,-1
227,12,229,-1
12,231,229,-1
78,150,146,-1
80,153,150,-1
149,151,154,-1
150,154,151,-1
149,154,152,-1
148,169,147,-1
154,150,153,-1
155,152,154,-1
155,156,152,-1
87,157,153,-1
87,160,157,-1
160,92,164,-1
92,845,164,-1
157,161,158,-1
161,157,160,-1
158,178,159,-1
178,158,161,-1
162,178,161,-1
164,845,165,-1
173,165,845,-1
163,165,171,-1
171,165,173,-1
166,167,168,-1
159,176,170,-1
159,178,176,-1
182,172,174,-1
175,864,865,-1
174,175,869,-1
180,179,172,-1
174,870,182,-1
174,869,870,-1
182,180,172,-1
177,170,176,-1
232,229,231,-1
229,232,233,-1
222,250,237,-1
237,250,238,-1
238,250,239,-1
239,250,241,-1
241,250,242,-1
242,250,245,-1
224,250,222,-1
225,251,224,-1
226,251,225,-1
228,251,226,-1
230,251,228,-1
230,246,251,-1
224,251,250,-1
229,233,262,-1
229,262,247,-1
247,260,246,-1
258,254,250,-1
245,250,252,-1
252,250,253,-1
253,250,254,-1
258,257,254,-1
246,260,251,-1
262,260,247,-1
251,260,259,-1
261,259,260,-1
169,264,231,-1
169,266,264,-1
266,169,270,-1
264,267,265,-1
267,264,266,-1
170,941,169,-1
169,272,270,-1
272,169,273,-1
170,177,941,-1
169,930,273,-1
930,169,931,-1
270,272,271,-1
234,265,248,-1
248,265,274,-1
274,265,277,-1
265,267,277,-1
277,267,278,-1
275,276,249,-1
276,279,249,-1
279,280,249,-1
280,282,249,-1
268,278,267,-1
278,268,281,-1
281,268,289,-1
268,292,289,-1
282,283,249,-1
283,287,249,-1
284,263,249,-1
285,284,249,-1
287,285,249,-1
289,290,288,-1
291,288,290,-1
290,289,292,-1
271,293,269,-1
293,271,272,-1
949,273,946,-1
273,949,951,-1
273,951,299,-1
294,296,295,-1
298,295,296,-1
294,297,296,-1
299,951,300,-1
0,385,384,-1
0,384,1096,-1
384,385,1096,-1
1,438,385,-1
385,396,397,-1
385,397,398,-1
385,417,387,-1
385,416,417,-1
385,445,416,-1
387,417,388,-1
388,417,386,-1
385,387,396,-1
385,398,401,-1
385,401,402,-1
385,402,403,-1
385,438,444,-1
385,444,445,-1
445,418,416,-1
418,445,422,-1
422,445,423,-1
423,538,424,-1
418,422,421,-1
631,421,422,-1
426,423,424,-1
423,426,640,-1
244,439,243,-1
255,439,244,-1
256,439,255,-1
259,439,256,-1
259,261,439,-1
458,261,286,-1
261,448,439,-1
261,452,448,-1
261,454,452,-1
261,458,454,-1
442,440,449,-1
442,449,443,-1
443,449,450,-1
456,446,443,-1
446,456,447,-1
447,456,539,-1
539,456,540,-1
443,450,451,-1
443,451,453,-1
443,453,455,-1
456,443,455,-1
459,454,458,-1
454,459,552,-1
457,540,456,-1
540,457,543,-1
543,457,545,-1
547,542,457,-1
547,457,462,-1
462,457,463,-1
545,457,542,-1
454,552,457,-1
460,552,459,-1
457,550,463,-1
552,550,457,-1
458,286,288,-1
458,288,291,-1
458,291,295,-1
458,295,298,-1
955,466,458,-1
955,467,466,-1
458,298,301,-1
458,301,955,-1
958,467,955,-1
958,468,467,-1
958,483,468,-1
958,485,483,-1
461,467,464,-1
464,467,472,-1
472,467,475,-1
467,469,477,-1
475,467,477,-1
469,467,468,-1
470,477,469,-1
473,474,465,-1
474,476,465,-1
476,478,465,-1
478,479,465,-1
479,480,465,-1
561,553,465,-1
562,561,465,-1
564,562,465,-1
480,564,465,-1
477,470,481,-1
481,470,568,-1
481,568,482,-1
483,485,484,-1
484,569,471,-1
569,484,485,-1
1109,486,1099,-1
487,572,570,-1
486,1109,1111,-1
486,1111,575,-1
487,571,572,-1
486,575,574,-1
538,423,445,-1
541,424,538,-1
544,424,541,-1
546,424,544,-1
549,424,546,-1
424,549,551,-1
547,548,542,-1
463,550,549,-1
551,549,550,-1
563,424,551,-1
424,563,565,-1
424,566,554,-1
424,565,566,-1
554,559,557,-1
557,559,556,-1
559,554,558,-1
554,567,558,-1
482,566,565,-1
566,482,568,-1
554,566,567,-1
570,577,567,-1
573,570,572,-1
570,573,577,-1
576,577,573,-1
1202,577,576,-1
577,1210,580,-1
567,577,558,-1
577,581,579,-1
578,579,648,-1
648,579,651,-1
651,579,652,-1
581,577,580,-1
579,581,652,-1
386,417,389,-1
389,417,628,-1
630,628,417,-1
389,628,390,-1
629,390,628,-1
632,390,629,-1
419,630,417,-1
421,631,420,-1
555,640,426,-1
425,642,632,-1
556,643,641,-1
556,646,643,-1
556,559,646,-1
560,646,559,-1
643,647,644,-1
647,643,645,-1
643,646,645,-1
650,653,649,-1
653,654,649,-1
654,655,649,-1
663,662,649,-1
662,661,649,-1
655,659,649,-1
659,656,649,-1
656,664,649,-1
664,663,649,-1
652,581,657,-1
582,668,581,-1
668,657,581,-1
657,668,658,-1
658,668,660,-1
660,667,666,-1
669,666,667,-1
666,669,665,-1
667,660,668,-1
385,403,1519,-1
1519,399,390,-1
1519,404,405,-1
1519,405,400,-1
1519,403,404,-1
0,700,1095,-1
0,1096,700,-1
700,1096,1095,-1
1095,6,2,-1
1095,40,6,-1
1095,47,40,-1
1095,67,47,-1
706,702,705,-1
703,75,701,-1
702,718,716,-1
702,720,718,-1
709,724,710,-1
702,706,722,-1
707,722,706,-1
710,717,708,-1
702,722,720,-1
717,710,724,-1
704,713,712,-1
704,715,713,-1
714,712,713,-1
92,711,845,-1
712,845,711,-1
712,714,849,-1
719,849,714,-1
718,721,719,-1
721,718,720,-1
732,738,723,-1
739,723,738,-1
719,721,852,-1
723,856,721,-1
858,723,739,-1
727,725,726,-1
725,727,747,-1
725,742,741,-1
725,745,742,-1
725,747,745,-1
728,747,727,-1
731,744,729,-1
730,733,731,-1
736,734,735,-1
744,731,733,-1
734,736,821,-1
813,821,736,-1
734,753,752,-1
734,755,753,-1
734,821,755,-1
732,740,738,-1
742,746,743,-1
746,742,745,-1
743,883,739,-1
883,743,746,-1
748,883,746,-1
748,750,884,-1
737,749,748,-1
737,751,749,-1
750,748,749,-1
753,756,754,-1
756,753,755,-1
754,884,750,-1
1095,68,67,-1
1095,69,68,-1
1095,70,69,-1
1095,74,70,-1
1095,75,74,-1
1095,701,75,-1
1095,702,701,-1
1095,705,702,-1
1095,709,705,-1
1095,724,709,-1
1095,725,724,-1
1095,726,725,-1
1095,730,726,-1
1095,733,730,-1
1095,734,733,-1
1095,735,734,-1
815,817,816,-1
816,820,814,-1
820,816,817,-1
818,827,826,-1
819,823,822,-1
819,825,823,-1
824,822,823,-1
1095,886,828,-1
845,712,846,-1
712,849,846,-1
719,852,849,-1
846,850,847,-1
848,863,862,-1
847,878,848,-1
850,846,849,-1
878,847,850,-1
851,878,850,-1
853,873,854,-1
873,853,855,-1
721,855,852,-1
855,721,856,-1
723,858,856,-1
858,739,883,-1
852,855,853,-1
859,856,858,-1
856,859,880,-1
860,880,859,-1
882,861,884,-1
175,865,868,-1
848,878,863,-1
868,869,175,-1
863,878,866,-1
866,878,867,-1
867,876,872,-1
872,876,871,-1
876,867,878,-1
871,877,875,-1
871,876,877,-1
875,940,874,-1
857,881,879,-1
748,884,883,-1
882,884,754,-1
882,824,885,-1
885,824,886,-1
882,754,756,-1
882,756,822,-1
882,822,824,-1
828,886,824,-1
181,941,177,-1
874,940,181,-1
931,169,934,-1
934,169,939,-1
169,941,939,-1
875,877,940,-1
879,940,877,-1
941,181,940,-1
946,273,929,-1
929,273,930,-1
933,963,932,-1
935,963,933,-1
936,963,935,-1
879,881,940,-1
886,944,881,-1
940,881,944,-1
944,886,945,-1
966,943,945,-1
932,963,947,-1
947,965,948,-1
947,963,965,-1
948,965,950,-1
950,965,952,-1
954,300,951,-1
300,954,301,-1
955,301,954,-1
965,953,952,-1
953,974,956,-1
953,965,974,-1
956,974,957,-1
957,974,959,-1
959,974,961,-1
961,976,960,-1
937,963,936,-1
938,963,937,-1
964,965,963,-1
939,941,965,-1
939,965,964,-1
942,965,941,-1
966,970,967,-1
966,987,970,-1
969,972,968,-1
972,973,968,-1
973,995,968,-1
995,997,968,-1
965,975,974,-1
976,961,974,-1
965,978,975,-1
965,979,978,-1
975,978,977,-1
980,977,978,-1
982,981,968,-1
997,999,968,-1
999,983,968,-1
984,982,968,-1
983,984,968,-1
966,986,987,-1
990,992,991,-1
970,987,971,-1
971,987,994,-1
988,994,987,-1
994,988,996,-1
996,988,1004,-1
991,1003,989,-1
1003,991,992,-1
996,1004,998,-1
998,1001,1000,-1
1001,998,1004,-1
1006,1007,1005,-1
1006,1009,1007,-1
1008,1005,1007,-1
993,1011,1010,-1
1095,945,886,-1
1095,966,945,-1
1095,986,966,-1
1095,990,986,-1
1095,992,990,-1
1095,993,992,-1
1095,1011,993,-1
1095,1012,1011,-1
1095,1145,1012,-1
1095,1238,1145,-1
1095,1239,1238,-1
1095,815,735,-1
1095,817,815,-1
1095,818,817,-1
1095,827,818,-1
1095,828,827,-1
962,486,958,-1
977,486,962,-1
977,980,486,-1
985,486,980,-1
958,486,485,-1
1001,1097,486,-1
1000,486,985,-1
1000,1001,486,-1
1002,1103,1001,-1
1001,1103,1097,-1
1002,1106,1103,-1
1002,1113,1106,-1
1002,1114,1113,-1
1002,1121,1114,-1
1098,486,1097,-1
1099,486,1098,-1
1102,1123,1100,-1
1104,1123,1102,-1
1105,1124,1104,-1
1107,1124,1105,-1
1100,1123,1101,-1
1101,1123,1110,-1
1104,1124,1123,-1
1110,1123,1112,-1
1112,1123,1198,-1
1115,1113,1114,-1
1116,1113,1115,-1
1108,1124,1107,-1
1117,1124,1108,-1
1120,1122,1125,-1
1125,1122,1128,-1
1128,1122,1129,-1
1117,1118,1124,-1
1119,1210,1118,-1
1116,1209,1113,-1
1113,1209,1119,-1
1118,1210,1124,-1
1209,1210,1119,-1
1127,1130,1126,-1
1130,1131,1126,-1
1131,1140,1126,-1
1213,1212,1126,-1
1140,1141,1126,-1
1141,1142,1126,-1
1214,1215,1126,-1
1215,1213,1126,-1
1142,1214,1126,-1
1005,1121,1002,-1
1005,1008,1121,-1
1008,1132,1121,-1
1008,1136,1132,-1
1012,1144,1008,-1
1008,1144,1136,-1
1012,1145,1144,-1
1121,1133,1122,-1
1133,1121,1132,-1
1122,1133,1129,-1
1129,1133,1138,-1
1134,1138,1133,-1
1136,1144,1137,-1
1137,1232,1135,-1
1232,1137,1144,-1
1138,1134,1139,-1
1139,1134,1143,-1
1134,1231,1143,-1
1146,1234,1233,-1
1146,1236,1234,-1
1145,1238,1237,-1
1197,575,1111,-1
575,1197,576,-1
1199,576,1197,-1
1202,576,1199,-1
1198,1123,1200,-1
1200,1123,1201,-1
1201,1123,1205,-1
1205,1123,1203,-1
1203,1207,1204,-1
1206,577,1202,-1
1208,577,1206,-1
577,1208,1210,-1
1211,580,1210,-1
1207,1203,1123,-1
1124,1210,1208,-1
580,1211,1217,-1
1219,1351,1218,-1
1217,1223,1219,-1
1223,1217,1221,-1
1220,1219,1223,-1
1219,1220,1351,-1
1211,1221,1217,-1
1221,1211,1222,-1
1222,1211,1240,-1
1143,1229,1228,-1
1229,1143,1231,-1
1230,1228,1229,-1
1216,1248,1211,-1
1228,1248,1216,-1
1228,1230,1248,-1
1233,1248,1230,-1
1235,1233,1234,-1
1248,1233,1235,-1
1239,1249,1235,-1
1239,1250,1249,-1
1240,1211,1241,-1
1248,1241,1211,-1
1227,1364,1226,-1
1242,1365,1227,-1
1243,1365,1242,-1
1244,1365,1243,-1
1241,1248,1255,-1
1241,1255,1247,-1
1256,1247,1255,-1
1248,1235,1249,-1
1250,1239,1251,-1
1251,1239,1325,-1
1252,1253,1254,-1
1252,1254,1257,-1
1252,1257,1256,-1
1258,1256,1257,-1
1247,1256,1328,-1
1259,1256,1258,-1
1324,1256,1259,-1
1327,1256,1324,-1
1437,1247,1328,-1
1328,1256,1327,-1
1239,1323,1325,-1
1323,1239,1335,-1
1325,1330,1326,-1
1330,1325,1323,-1
1326,1330,1333,-1
1326,1333,1329,-1
1450,1329,1333,-1
1331,1336,1332,-1
1332,1336,1334,-1
1334,1336,1452,-1
385,1519,1096,-1
1218,1351,1352,-1
1218,1357,1356,-1
1218,1352,1357,-1
1224,1364,1225,-1
1226,1364,1224,-1
1225,1364,1353,-1
1353,1364,1354,-1
1354,1364,1355,-1
1355,1364,1361,-1
1357,1359,1358,-1
1359,1357,1352,-1
1360,1358,1359,-1
1363,1358,1360,-1
1227,1365,1364,-1
1245,1365,1244,-1
1245,1246,1365,-1
1247,1365,1246,-1
1247,1366,1365,-1
1366,1247,1368,-1
1368,1247,1370,-1
1438,1247,1437,-1
1370,1247,1438,-1
1367,1365,1366,-1
1365,1367,1372,-1
1369,1373,1367,-1
1372,1367,1373,-1
1374,1373,1369,-1
1375,1373,1374,-1
1444,1373,1375,-1
1446,1373,1444,-1
1461,1373,1446,-1
1361,1364,1362,-1
1362,1364,1376,-1
1376,1364,1377,-1
1380,1377,1364,-1
1377,1380,1378,-1
1365,1385,1381,-1
1385,1365,1372,-1
1373,1383,1382,-1
1383,1373,1384,-1
1384,1373,1388,-1
1388,1373,1389,-1
1389,1373,1391,-1
1390,1373,1461,-1
1391,1373,1390,-1
1519,390,632,-1
1519,638,399,-1
1519,400,638,-1
1519,632,642,-1
1519,642,644,-1
1519,644,647,-1
1442,1441,1440,-1
1371,1440,1441,-1
1442,1443,1441,-1
1329,1450,1439,-1
1439,1451,1442,-1
1442,1451,1443,-1
1443,1451,1445,-1
1445,1448,1447,-1
1445,1457,1449,-1
1448,1445,1449,-1
1439,1450,1451,-1
1453,1445,1451,-1
1456,1445,1453,-1
1457,1445,1456,-1
1459,1449,1457,-1
1460,1449,1459,-1
1447,1464,1462,-1
1462,1464,1393,-1
1464,1447,1448,-1
1449,1465,1463,-1
1469,1393,1464,-1
1465,1449,1466,-1
1466,1449,1467,-1
1467,1449,1468,-1
1468,1449,1472,-1
1472,1449,1471,-1
1471,1449,1460,-1
1519,647,665,-1
1519,665,669,-1
1519,669,1358,-1
1519,1358,1363,-1
1519,1363,1379,-1
1519,1379,1381,-1
1519,1381,1385,-1
1519,1385,1386,-1
1519,1386,1387,-1
1519,1387,1392,-1
1519,1392,1393,-1
1095,1096,1519,-1
1095,1519,1239,-1
1519,1335,1239,-1
1519,1452,1336,-1
1519,1336,1335,-1
1519,1454,1452,-1
1519,1455,1454,-1
1519,1458,1455,-1
1519,1475,1458,-1
1519,1476,1475,-1
1519,1477,1476,-1
1519,1393,1469,-1
1519,1469,1470,-1
1519,1470,1474,-1
1519,1474,1473,-1
1519,1473,1477,-1
21,3,2,-1
22,4,3,-1
23,8,4,-1
25,2,6,-1
24,7,5,-1
26,6,7,-1
27,13,8,-1
28,5,9,-1
29,19,10,-1
21,22,3,-1
22,23,4,-1
21,2,25,-1
24,26,7,-1
24,5,28,-1
25,6,26,-1
21,23,22,-1
21,25,23,-1
23,24,27,-1
23,25,24,-1
24,25,26,-1
23,27,8,-1
29,10,33,-1
28,9,39,-1
27,29,33,-1
27,24,28,-1
27,28,29,-1
29,28,38,-1
30,12,11,-1
32,11,13,-1
33,10,14,-1
31,16,12,-1
34,14,15,-1
35,15,16,-1
39,9,20,-1
36,18,17,-1
38,17,19,-1
37,50,18,-1
30,11,32,-1
30,31,12,-1
30,32,31,-1
31,32,33,-1
27,32,13,-1
33,14,34,-1
31,35,16,-1
34,15,35,-1
29,38,19,-1
36,37,18,-1
36,17,38,-1
37,103,50,-1
27,33,32,-1
31,33,35,-1
33,34,35,-1
28,39,38,-1
36,38,37,-1
38,39,37,-1
37,39,103,-1
93,41,40,-1
94,42,41,-1
100,40,47,-1
95,44,42,-1
98,43,45,-1
97,53,44,-1
96,48,43,-1
101,47,48,-1
99,59,46,-1
120,65,67,-1
93,94,41,-1
94,95,42,-1
93,40,100,-1
96,43,98,-1
93,95,94,-1
93,100,95,-1
95,100,96,-1
95,96,97,-1
95,97,44,-1
99,46,107,-1
96,98,97,-1
97,98,99,-1
97,99,107,-1
96,101,48,-1
100,47,101,-1
96,100,101,-1
98,45,113,-1
118,65,120,-1
98,112,99,-1
118,120,121,-1
118,121,124,-1
102,20,49,-1
103,49,50,-1
104,52,51,-1
106,51,53,-1
105,56,52,-1
107,46,54,-1
108,54,55,-1
109,55,56,-1
113,45,60,-1
110,58,57,-1
112,57,59,-1
111,62,58,-1
114,60,61,-1
115,61,62,-1
119,71,66,-1
116,64,63,-1
118,63,65,-1
117,78,64,-1
130,66,77,-1
97,106,53,-1
39,20,102,-1
102,49,103,-1
104,51,106,-1
104,105,52,-1
107,54,108,-1
105,109,56,-1
108,55,109,-1
39,102,103,-1
104,106,105,-1
106,107,105,-1
105,107,109,-1
97,107,106,-1
107,108,109,-1
99,112,59,-1
110,111,58,-1
110,57,112,-1
111,115,62,-1
113,60,114,-1
114,61,115,-1
116,117,64,-1
116,63,118,-1
117,131,78,-1
119,66,130,-1
98,113,112,-1
110,112,111,-1
111,112,113,-1
111,113,115,-1
113,114,115,-1
118,124,119,-1
116,118,117,-1
118,119,117,-1
117,119,131,-1
119,130,131,-1
121,67,68,-1
123,69,70,-1
125,68,72,-1
124,79,71,-1
122,72,69,-1
126,83,73,-1
128,74,75,-1
137,70,84,-1
127,89,74,-1
120,67,121,-1
122,69,123,-1
121,68,125,-1
119,124,71,-1
125,72,122,-1
123,70,137,-1
126,73,133,-1
121,125,124,-1
124,125,132,-1
125,122,126,-1
122,123,137,-1
122,137,126,-1
125,126,132,-1
127,74,128,-1
128,75,759,-1
127,142,89,-1
129,76,143,-1
127,128,142,-1
128,129,142,-1
131,77,78,-1
132,80,79,-1
133,73,80,-1
134,82,81,-1
136,81,83,-1
135,87,82,-1
138,84,85,-1
139,88,86,-1
140,85,87,-1
142,86,89,-1
141,92,88,-1
143,76,90,-1
144,90,91,-1
145,91,92,-1
124,132,79,-1
130,77,131,-1
132,133,80,-1
134,135,82,-1
134,81,136,-1
126,133,132,-1
134,136,135,-1
126,136,83,-1
137,84,138,-1
135,140,87,-1
139,86,142,-1
139,141,88,-1
138,85,140,-1
143,90,144,-1
141,145,92,-1
144,91,145,-1
126,137,136,-1
135,136,137,-1
135,137,140,-1
137,138,140,-1
139,142,141,-1
142,143,141,-1
129,143,142,-1
141,143,145,-1
143,144,145,-1
183,147,146,-1
184,148,147,-1
183,184,147,-1
184,185,148,-1
183,185,184,-1
187,146,150,-1
186,151,149,-1
188,150,151,-1
189,149,152,-1
185,169,148,-1
190,154,153,-1
191,155,154,-1
192,156,155,-1
193,152,156,-1
194,153,157,-1
195,157,158,-1
196,158,159,-1
197,161,160,-1
198,162,161,-1
199,178,162,-1
201,160,164,-1
200,165,163,-1
202,164,165,-1
208,163,171,-1
183,146,187,-1
186,188,151,-1
186,149,189,-1
187,150,188,-1
189,152,193,-1
190,191,154,-1
190,153,194,-1
191,192,155,-1
192,193,156,-1
196,159,207,-1
183,187,185,-1
185,187,186,-1
186,187,188,-1
185,186,189,-1
185,189,203,-1
189,193,203,-1
190,192,191,-1
190,194,192,-1
192,196,193,-1
203,193,204,-1
193,196,204,-1
196,195,158,-1
194,157,195,-1
197,198,161,-1
197,160,201,-1
198,199,162,-1
200,202,165,-1
201,164,202,-1
200,163,208,-1
210,173,887,-1
192,194,196,-1
196,194,195,-1
197,199,198,-1
197,200,199,-1
197,201,200,-1
200,201,202,-1
199,200,208,-1
199,208,209,-1
210,887,904,-1
203,167,166,-1
205,166,168,-1
204,168,167,-1
207,159,170,-1
206,170,169,-1
209,174,172,-1
210,171,173,-1
211,175,174,-1
212,864,175,-1
216,172,179,-1
215,176,178,-1
213,177,176,-1
214,181,177,-1
217,179,180,-1
219,180,182,-1
218,874,181,-1
912,182,870,-1
203,166,205,-1
185,206,169,-1
203,204,167,-1
204,205,168,-1
185,203,206,-1
203,205,206,-1
204,196,207,-1
204,207,205,-1
206,207,170,-1
205,207,206,-1
199,215,178,-1
208,171,210,-1
209,211,174,-1
209,172,216,-1
211,212,175,-1
212,906,864,-1
199,209,215,-1
208,210,211,-1
208,211,209,-1
210,212,211,-1
210,904,212,-1
212,904,906,-1
209,216,215,-1
213,214,177,-1
213,176,215,-1
214,218,181,-1
216,179,217,-1
219,217,180,-1
219,182,912,-1
218,916,874,-1
213,215,214,-1
214,215,218,-1
215,216,218,-1
216,217,218,-1
219,218,217,-1
219,912,916,-1
219,916,218,-1
303,220,221,-1
305,221,223,-1
319,222,237,-1
304,224,222,-1
309,223,227,-1
306,225,224,-1
307,226,225,-1
308,228,226,-1
310,230,228,-1
311,227,229,-1
313,232,231,-1
314,233,232,-1
346,231,264,-1
302,220,303,-1
303,221,305,-1
304,222,319,-1
304,306,224,-1
302,303,319,-1
303,304,319,-1
303,305,304,-1
304,305,306,-1
305,223,309,-1
306,307,225,-1
307,308,226,-1
309,227,311,-1
308,310,228,-1
310,312,230,-1
311,229,329,-1
313,314,232,-1
314,315,233,-1
313,231,346,-1
305,309,307,-1
305,307,306,-1
307,309,308,-1
309,310,308,-1
309,311,310,-1
310,311,312,-1
313,315,314,-1
313,316,315,-1
313,346,316,-1
317,236,235,-1
318,240,236,-1
302,235,220,-1
320,237,238,-1
321,238,239,-1
322,243,240,-1
323,239,241,-1
324,241,242,-1
325,244,243,-1
327,242,245,-1
334,245,252,-1
326,255,244,-1
312,246,230,-1
329,229,247,-1
328,247,246,-1
315,262,233,-1
330,234,248,-1
332,258,250,-1
333,250,251,-1
335,252,253,-1
336,253,254,-1
337,256,255,-1
340,257,258,-1
339,254,257,-1
341,251,259,-1
338,259,256,-1
345,249,263,-1
342,261,260,-1
344,260,262,-1
343,286,261,-1
317,235,302,-1
317,318,236,-1
320,319,237,-1
320,238,321,-1
321,239,323,-1
317,321,318,-1
318,321,322,-1
317,302,320,-1
302,319,320,-1
317,320,321,-1
318,322,240,-1
322,325,243,-1
323,241,324,-1
325,326,244,-1
324,242,327,-1
327,245,334,-1
326,337,255,-1
321,323,322,-1
323,325,322,-1
323,324,325,-1
325,324,326,-1
324,327,326,-1
326,327,337,-1
327,334,337,-1
312,328,246,-1
328,329,247,-1
316,234,330,-1
331,249,345,-1
312,311,329,-1
312,329,328,-1
315,316,330,-1
315,330,331,-1
315,331,344,-1
332,250,333,-1
332,340,258,-1
333,251,341,-1
334,252,335,-1
335,253,336,-1
336,254,339,-1
337,338,256,-1
340,339,257,-1
338,341,259,-1
315,344,262,-1
342,260,344,-1
342,343,261,-1
343,368,286,-1
332,333,340,-1
334,335,337,-1
335,336,338,-1
337,335,338,-1
336,339,338,-1
339,341,338,-1
340,333,341,-1
340,341,339,-1
344,331,345,-1
342,344,343,-1
344,345,368,-1
343,344,368,-1
316,265,234,-1
347,264,265,-1
348,267,266,-1
349,268,267,-1
352,266,270,-1
351,271,269,-1
353,270,271,-1
355,272,273,-1
346,264,347,-1
316,347,265,-1
348,349,267,-1
348,266,352,-1
349,350,268,-1
316,346,347,-1
348,350,349,-1
348,352,350,-1
350,352,351,-1
352,270,353,-1
351,353,271,-1
354,272,355,-1
351,352,353,-1
356,248,274,-1
331,275,249,-1
357,276,275,-1
359,274,277,-1
358,279,276,-1
360,277,278,-1
361,280,279,-1
363,278,281,-1
362,282,280,-1
364,283,282,-1
365,287,283,-1
370,289,288,-1
366,263,284,-1
367,284,285,-1
368,288,286,-1
369,285,287,-1
371,281,289,-1
374,292,268,-1
375,269,293,-1
372,291,290,-1
374,290,292,-1
373,295,291,-1
354,293,272,-1
376,297,294,-1
377,294,295,-1
381,273,299,-1
378,298,296,-1
379,296,297,-1
380,301,298,-1
382,299,300,-1
383,300,301,-1
330,248,356,-1
331,357,275,-1
356,274,359,-1
357,358,276,-1
359,277,360,-1
358,361,279,-1
361,362,280,-1
360,278,363,-1
350,374,268,-1
351,269,375,-1
363,281,371,-1
330,357,331,-1
330,356,357,-1
356,359,358,-1
357,356,358,-1
358,359,361,-1
359,360,361,-1
360,362,361,-1
360,363,362,-1
350,351,375,-1
362,364,282,-1
364,365,283,-1
369,287,365,-1
345,263,366,-1
366,284,367,-1
367,285,369,-1
368,370,288,-1
370,371,289,-1
372,290,374,-1
372,373,291,-1
373,377,295,-1
362,363,364,-1
364,363,371,-1
364,371,365,-1
365,371,370,-1
345,366,368,-1
366,367,368,-1
369,365,370,-1
367,369,370,-1
368,367,370,-1
350,375,374,-1
372,374,373,-1
375,377,374,-1
373,374,377,-1
354,375,293,-1
376,294,377,-1
355,273,381,-1
354,355,375,-1
376,375,355,-1
376,355,381,-1
376,379,297,-1
378,296,379,-1
378,380,298,-1
381,299,382,-1
382,300,383,-1
380,383,301,-1
376,377,375,-1
376,381,379,-1
378,379,380,-1
380,379,381,-1
381,382,383,-1
380,381,383,-1
406,396,392,-1
393,387,388,-1
392,396,387,-1
391,388,386,-1
394,386,389,-1
395,389,390,-1
409,390,399,-1
393,392,387,-1
393,388,391,-1
393,639,392,-1
391,386,394,-1
394,389,395,-1
395,390,409,-1
391,394,395,-1
393,391,639,-1
391,395,409,-1
391,409,639,-1
406,397,396,-1
407,398,397,-1
408,401,398,-1
406,407,397,-1
407,408,398,-1
407,411,408,-1
406,392,639,-1
406,639,407,-1
407,412,411,-1
407,415,414,-1
415,410,400,-1
407,639,410,-1
407,410,415,-1
411,402,401,-1
412,403,402,-1
413,404,403,-1
414,405,404,-1
415,400,405,-1
408,411,401,-1
411,412,402,-1
412,413,403,-1
407,413,412,-1
407,414,413,-1
413,414,404,-1
414,415,405,-1
427,417,416,-1
428,419,417,-1
427,428,417,-1
427,430,428,-1
429,416,418,-1
432,418,421,-1
431,421,420,-1
433,631,422,-1
434,422,423,-1
435,426,424,-1
437,555,426,-1
427,416,429,-1
429,418,432,-1
427,429,430,-1
431,429,432,-1
428,430,419,-1
431,432,421,-1
430,429,431,-1
433,434,636,-1
433,422,434,-1
435,437,426,-1
435,600,437,-1
434,423,670,-1
437,600,555,-1
489,441,439,-1
498,439,448,-1
490,449,440,-1
491,438,441,-1
493,442,443,-1
492,440,442,-1
488,444,438,-1
494,445,444,-1
495,538,445,-1
496,443,446,-1
497,446,447,-1
584,447,539,-1
499,450,449,-1
502,448,452,-1
500,451,450,-1
501,453,451,-1
503,455,453,-1
504,452,454,-1
505,456,455,-1
507,454,457,-1
506,457,456,-1
508,459,458,-1
509,460,459,-1
516,458,466,-1
514,461,464,-1
513,462,463,-1
512,547,462,-1
510,552,460,-1
598,465,553,-1
488,438,491,-1
489,491,441,-1
489,439,498,-1
490,440,492,-1
490,499,449,-1
493,492,442,-1
489,492,491,-1
489,490,492,-1
489,498,490,-1
490,498,499,-1
491,492,493,-1
488,491,493,-1
488,494,444,-1
494,495,445,-1
493,443,496,-1
496,446,497,-1
495,583,538,-1
497,447,584,-1
488,496,494,-1
494,496,495,-1
488,493,496,-1
496,497,495,-1
495,497,583,-1
497,584,583,-1
498,448,502,-1
499,500,450,-1
500,501,451,-1
502,452,504,-1
501,503,453,-1
503,505,455,-1
504,454,507,-1
505,506,456,-1
506,507,457,-1
508,509,459,-1
509,510,460,-1
508,458,516,-1
511,461,514,-1
498,500,499,-1
498,502,500,-1
500,502,501,-1
502,504,503,-1
501,502,503,-1
503,504,505,-1
505,504,507,-1
505,507,506,-1
508,510,509,-1
508,511,510,-1
508,516,511,-1
510,511,514,-1
510,514,515,-1
512,462,513,-1
510,597,552,-1
515,465,598,-1
512,513,592,-1
510,515,597,-1
597,515,598,-1
511,467,461,-1
517,466,467,-1
518,469,468,-1
519,470,469,-1
533,468,483,-1
522,464,472,-1
515,473,465,-1
525,472,475,-1
523,474,473,-1
524,476,474,-1
527,475,477,-1
526,478,476,-1
528,479,478,-1
529,480,479,-1
531,477,481,-1
532,481,482,-1
613,568,470,-1
614,471,569,-1
534,483,484,-1
521,484,471,-1
535,569,485,-1
536,485,486,-1
615,487,570,-1
537,571,487,-1
619,486,574,-1
511,517,467,-1
516,466,517,-1
518,519,469,-1
518,468,533,-1
519,520,470,-1
521,471,614,-1
511,516,517,-1
518,520,519,-1
518,533,520,-1
520,533,521,-1
520,521,614,-1
514,464,522,-1
515,523,473,-1
522,472,525,-1
523,524,474,-1
525,475,527,-1
524,526,476,-1
526,528,478,-1
527,477,531,-1
528,529,479,-1
529,530,480,-1
520,613,470,-1
531,481,532,-1
610,532,482,-1
514,522,523,-1
514,523,515,-1
523,522,524,-1
522,525,524,-1
524,525,526,-1
525,527,526,-1
527,528,526,-1
527,531,528,-1
528,531,529,-1
529,531,532,-1
529,532,530,-1
530,532,610,-1
520,614,613,-1
533,483,534,-1
521,534,484,-1
535,485,536,-1
536,486,619,-1
521,533,534,-1
614,535,536,-1
537,487,615,-1
614,569,535,-1
537,616,571,-1
614,536,537,-1
614,537,615,-1
536,619,537,-1
537,619,616,-1
583,541,538,-1
585,539,540,-1
588,540,543,-1
586,544,541,-1
587,545,542,-1
590,543,545,-1
589,546,544,-1
593,542,548,-1
592,548,547,-1
594,463,549,-1
591,549,546,-1
595,551,550,-1
597,550,552,-1
596,563,551,-1
583,586,541,-1
584,539,585,-1
585,540,588,-1
586,589,544,-1
584,586,583,-1
584,585,586,-1
586,585,589,-1
585,588,589,-1
590,545,587,-1
587,542,593,-1
588,543,590,-1
589,591,546,-1
593,548,592,-1
512,592,547,-1
513,463,594,-1
591,594,549,-1
595,596,551,-1
595,550,597,-1
596,608,563,-1
588,590,589,-1
589,590,591,-1
590,587,591,-1
592,513,594,-1
593,592,594,-1
587,593,591,-1
593,594,591,-1
595,597,596,-1
596,597,608,-1
597,598,608,-1
599,424,554,-1
602,554,557,-1
601,557,556,-1
603,559,558,-1
604,560,559,-1
435,424,599,-1
599,554,602,-1
435,599,600,-1
601,599,602,-1
601,602,557,-1
600,599,601,-1
603,604,559,-1
603,605,604,-1
604,605,560,-1
603,623,605,-1
606,553,561,-1
607,561,562,-1
608,565,563,-1
530,564,480,-1
609,562,564,-1
610,482,565,-1
611,567,566,-1
613,566,568,-1
612,570,567,-1
617,573,572,-1
616,572,571,-1
618,576,573,-1
620,574,575,-1
621,575,576,-1
598,553,606,-1
606,561,607,-1
607,562,609,-1
530,609,564,-1
608,610,565,-1
611,566,613,-1
611,612,567,-1
612,615,570,-1
598,606,608,-1
606,607,608,-1
530,610,609,-1
607,609,610,-1
607,610,608,-1
611,613,612,-1
612,613,615,-1
613,614,615,-1
617,618,573,-1
617,572,616,-1
619,574,620,-1
618,621,576,-1
620,575,621,-1
617,616,618,-1
618,616,619,-1
618,619,621,-1
619,620,621,-1
622,558,577,-1
624,577,579,-1
623,579,578,-1
678,578,648,-1
625,581,580,-1
626,582,581,-1
603,558,622,-1
622,577,624,-1
603,622,623,-1
623,622,624,-1
623,578,678,-1
623,624,579,-1
605,623,678,-1
605,678,679,-1
625,626,581,-1
625,580,1280,-1
625,627,626,-1
625,1280,627,-1
626,627,582,-1
633,629,628,-1
633,628,635,-1
633,634,629,-1
633,635,634,-1
430,630,419,-1
636,420,631,-1
637,425,632,-1
436,642,425,-1
670,423,640,-1
431,420,636,-1
436,425,637,-1
430,431,636,-1
434,436,636,-1
430,635,630,-1
433,636,631,-1
430,636,635,-1
436,637,636,-1
434,670,436,-1
436,672,642,-1
436,670,672,-1
635,628,630,-1
634,632,629,-1
634,637,632,-1
635,636,637,-1
634,635,637,-1
639,399,638,-1
410,638,400,-1
409,399,639,-1
639,638,410,-1
600,640,555,-1
671,556,641,-1
605,646,560,-1
601,556,671,-1
600,601,670,-1
600,670,640,-1
601,672,670,-1
601,671,672,-1
605,676,646,-1
672,644,642,-1
673,641,643,-1
674,643,644,-1
675,647,645,-1
676,645,646,-1
677,665,647,-1
671,641,673,-1
672,674,644,-1
673,643,674,-1
672,671,674,-1
671,673,674,-1
675,645,676,-1
675,677,647,-1
675,676,677,-1
681,648,651,-1
679,650,649,-1
682,651,652,-1
680,653,650,-1
683,654,653,-1
684,655,654,-1
691,649,661,-1
685,659,655,-1
686,664,656,-1
687,652,657,-1
688,657,658,-1
627,668,582,-1
690,658,660,-1
689,656,659,-1
678,648,681,-1
679,680,650,-1
681,651,682,-1
682,652,687,-1
680,683,653,-1
683,684,654,-1
684,685,655,-1
678,680,679,-1
678,681,680,-1
605,679,676,-1
681,682,683,-1
680,681,683,-1
683,682,684,-1
682,687,684,-1
679,649,691,-1
689,686,656,-1
679,691,676,-1
687,657,688,-1
684,687,685,-1
687,688,685,-1
627,1281,698,-1
685,689,659,-1
688,658,690,-1
690,660,696,-1
627,698,668,-1
688,689,685,-1
688,690,689,-1
689,690,686,-1
690,696,686,-1
692,661,662,-1
693,662,663,-1
694,663,664,-1
695,666,665,-1
696,660,666,-1
697,669,667,-1
698,667,668,-1
699,1358,669,-1
691,661,692,-1
677,695,665,-1
692,662,693,-1
693,663,694,-1
694,664,686,-1
695,696,666,-1
676,691,695,-1
691,692,695,-1
677,676,695,-1
692,693,695,-1
695,693,696,-1
693,694,696,-1
697,667,698,-1
697,699,669,-1
694,686,696,-1
697,698,699,-1
699,698,1401,-1
758,701,702,-1
759,75,703,-1
757,703,701,-1
129,711,76,-1
760,715,704,-1
772,702,716,-1
761,706,705,-1
762,707,706,-1
765,705,709,-1
764,710,708,-1
766,709,710,-1
763,722,707,-1
773,708,717,-1
780,717,724,-1
757,701,758,-1
759,703,757,-1
760,704,768,-1
758,702,772,-1
128,759,129,-1
759,757,760,-1
129,759,767,-1
759,760,767,-1
757,758,772,-1
757,772,760,-1
761,762,706,-1
761,705,765,-1
762,763,707,-1
765,709,766,-1
764,766,710,-1
761,763,762,-1
761,765,763,-1
763,765,764,-1
764,765,766,-1
764,708,773,-1
763,778,722,-1
773,717,780,-1
779,788,732,-1
763,764,773,-1
763,773,778,-1
773,780,781,-1
773,781,788,-1
768,704,712,-1
767,712,711,-1
769,714,713,-1
771,713,715,-1
770,719,714,-1
774,716,718,-1
775,718,719,-1
776,721,720,-1
778,720,722,-1
777,723,721,-1
779,732,723,-1
129,767,711,-1
767,768,712,-1
760,771,715,-1
769,770,714,-1
769,713,771,-1
770,775,719,-1
760,768,767,-1
760,772,771,-1
769,771,770,-1
770,771,772,-1
770,772,775,-1
772,716,774,-1
774,718,775,-1
776,777,721,-1
776,720,778,-1
777,779,723,-1
772,774,775,-1
776,778,777,-1
777,778,779,-1
778,773,779,-1
773,788,779,-1
781,724,725,-1
782,727,726,-1
783,728,727,-1
786,726,730,-1
785,731,729,-1
787,730,731,-1
788,740,732,-1
797,725,741,-1
784,747,728,-1
800,729,744,-1
790,733,734,-1
791,736,735,-1
792,813,736,-1
789,744,733,-1
793,751,737,-1
808,734,752,-1
780,724,781,-1
782,783,727,-1
782,726,786,-1
783,784,728,-1
786,730,787,-1
785,787,731,-1
782,784,783,-1
782,786,784,-1
784,786,785,-1
785,786,787,-1
781,725,797,-1
785,729,800,-1
784,803,747,-1
781,797,788,-1
784,785,800,-1
784,800,803,-1
789,733,790,-1
791,792,736,-1
792,829,813,-1
791,829,792,-1
800,744,789,-1
804,793,737,-1
790,734,808,-1
800,789,790,-1
800,790,793,-1
793,790,808,-1
794,739,738,-1
796,738,740,-1
795,743,739,-1
798,741,742,-1
799,742,743,-1
801,746,745,-1
803,745,747,-1
802,748,746,-1
804,737,748,-1
805,750,749,-1
807,749,751,-1
806,754,750,-1
809,752,753,-1
810,753,754,-1
811,756,755,-1
837,755,821,-1
788,796,740,-1
794,738,796,-1
794,795,739,-1
797,741,798,-1
795,799,743,-1
798,742,799,-1
801,802,746,-1
801,745,803,-1
802,804,748,-1
788,797,796,-1
794,796,795,-1
795,796,797,-1
795,797,799,-1
797,798,799,-1
801,803,802,-1
802,803,804,-1
803,800,804,-1
805,806,750,-1
805,749,807,-1
793,807,751,-1
808,752,809,-1
806,810,754,-1
809,753,810,-1
811,812,756,-1
811,755,837,-1
800,793,804,-1
805,807,806,-1
793,808,807,-1
807,808,806,-1
806,808,810,-1
808,809,810,-1
811,837,812,-1
831,735,815,-1
830,816,814,-1
832,815,816,-1
834,817,818,-1
829,821,813,-1
836,814,820,-1
833,820,817,-1
835,825,819,-1
842,818,826,-1
791,735,831,-1
831,815,832,-1
830,832,816,-1
833,817,834,-1
791,831,829,-1
829,831,830,-1
830,831,832,-1
830,814,836,-1
829,837,821,-1
833,836,820,-1
834,818,842,-1
835,819,838,-1
829,830,836,-1
829,836,837,-1
833,834,836,-1
834,835,836,-1
834,842,835,-1
838,819,822,-1
812,822,756,-1
839,824,823,-1
841,823,825,-1
840,828,824,-1
843,826,827,-1
844,827,828,-1
812,838,822,-1
835,841,825,-1
839,840,824,-1
839,823,841,-1
835,838,836,-1
837,838,812,-1
837,836,838,-1
835,842,841,-1
839,841,840,-1
840,841,842,-1
840,842,844,-1
842,826,843,-1
840,844,828,-1
843,827,844,-1
842,843,844,-1
887,173,845,-1
888,845,846,-1
889,846,847,-1
890,847,848,-1
904,848,862,-1
891,850,849,-1
892,851,850,-1
894,849,852,-1
895,852,853,-1
896,853,854,-1
893,878,851,-1
898,855,856,-1
897,873,855,-1
900,859,858,-1
901,860,859,-1
925,858,883,-1
903,884,861,-1
902,880,860,-1
903,861,882,-1
887,845,888,-1
890,889,847,-1
888,846,889,-1
890,848,904,-1
891,892,850,-1
891,849,894,-1
892,893,851,-1
896,895,853,-1
894,852,895,-1
896,854,915,-1
887,888,890,-1
890,888,889,-1
887,890,904,-1
891,893,892,-1
891,894,893,-1
893,894,896,-1
896,894,895,-1
893,896,915,-1
897,855,898,-1
898,856,922,-1
900,901,859,-1
901,902,860,-1
900,858,925,-1
915,897,898,-1
915,898,899,-1
898,922,899,-1
900,902,901,-1
900,925,902,-1
902,925,903,-1
902,903,922,-1
905,862,863,-1
906,865,864,-1
908,863,866,-1
909,866,867,-1
907,868,865,-1
910,869,868,-1
914,867,872,-1
911,870,869,-1
913,872,871,-1
915,854,873,-1
916,875,874,-1
917,871,875,-1
918,877,876,-1
920,876,878,-1
919,879,877,-1
899,881,857,-1
921,857,879,-1
922,856,880,-1
923,886,881,-1
904,862,905,-1
905,863,908,-1
906,907,865,-1
908,866,909,-1
907,910,868,-1
909,867,914,-1
910,911,869,-1
911,912,870,-1
913,914,872,-1
913,871,917,-1
893,920,878,-1
915,873,897,-1
904,905,906,-1
905,907,906,-1
905,908,907,-1
907,908,909,-1
907,909,910,-1
910,909,914,-1
910,914,911,-1
911,917,912,-1
911,914,913,-1
911,913,917,-1
893,915,920,-1
915,899,921,-1
916,917,875,-1
918,919,877,-1
918,876,920,-1
919,921,879,-1
912,917,916,-1
918,920,919,-1
919,920,921,-1
915,921,920,-1
899,857,921,-1
902,922,880,-1
903,882,924,-1
899,923,881,-1
903,923,922,-1
899,922,923,-1
903,924,923,-1
924,882,927,-1
923,928,886,-1
923,924,928,-1
926,883,884,-1
903,926,884,-1
925,883,926,-1
903,925,926,-1
927,882,885,-1
928,885,886,-1
927,885,928,-1
924,927,928,-1
1014,929,930,-1
1031,932,947,-1
1015,930,931,-1
1016,933,932,-1
1018,931,934,-1
1017,935,933,-1
1019,936,935,-1
1020,937,936,-1
1023,934,939,-1
1021,938,937,-1
1024,941,940,-1
1025,942,941,-1
1028,940,944,-1
1027,945,943,-1
1027,943,966,-1
1029,944,945,-1
1013,929,1014,-1
1031,1016,932,-1
1014,930,1015,-1
1016,1017,933,-1
1015,931,1018,-1
1017,1019,935,-1
1019,1020,936,-1
1020,1021,937,-1
1013,1014,1031,-1
1014,1016,1031,-1
1014,1015,1016,-1
1016,1015,1017,-1
1015,1019,1017,-1
1015,1018,1019,-1
1019,1018,1020,-1
1018,1021,1020,-1
1018,934,1023,-1
1021,1022,938,-1
1023,939,1048,-1
1024,1025,941,-1
1025,1026,942,-1
1024,940,1028,-1
1028,944,1029,-1
1027,1029,945,-1
1018,1023,1021,-1
1021,1023,1022,-1
1024,1026,1025,-1
1024,1027,1026,-1
1024,1028,1027,-1
1027,1028,1029,-1
1013,946,929,-1
1030,949,946,-1
1032,947,948,-1
1033,951,949,-1
1034,948,950,-1
1035,954,951,-1
1036,950,952,-1
1037,952,953,-1
1038,955,954,-1
1040,953,956,-1
1041,956,957,-1
1039,958,955,-1
1043,957,959,-1
1045,959,961,-1
1044,961,960,-1
1042,962,958,-1
1046,977,962,-1
1022,963,938,-1
1048,939,964,-1
1047,964,963,-1
1026,965,942,-1
1049,966,967,-1
1052,967,970,-1
1050,969,968,-1
1051,972,969,-1
1053,970,971,-1
1054,973,972,-1
1055,995,973,-1
1057,974,975,-1
1056,976,974,-1
1061,979,965,-1
1058,960,976,-1
1059,975,977,-1
1060,980,978,-1
1061,978,979,-1
1062,985,980,-1
1063,968,981,-1
1064,981,982,-1
1066,982,984,-1
1065,984,983,-1
1067,1000,985,-1
1030,946,1013,-1
1032,1031,947,-1
1032,948,1034,-1
1030,1033,949,-1
1034,950,1036,-1
1030,1013,1032,-1
1030,1032,1034,-1
1013,1031,1032,-1
1030,1034,1033,-1
1033,1034,1035,-1
1033,1035,951,-1
1035,1038,954,-1
1036,952,1037,-1
1038,1039,955,-1
1037,953,1040,-1
1040,956,1041,-1
1039,1042,958,-1
1041,957,1043,-1
1043,959,1045,-1
1045,961,1044,-1
1042,1046,962,-1
1034,1036,1035,-1
1036,1038,1035,-1
1036,1037,1038,-1
1038,1037,1039,-1
1037,1040,1039,-1
1039,1040,1042,-1
1040,1041,1042,-1
1041,1043,1042,-1
1043,1045,1046,-1
1045,1044,1046,-1
1042,1043,1046,-1
1022,1047,963,-1
1047,1048,964,-1
1026,1061,965,-1
1027,966,1049,-1
1049,967,1052,-1
1050,1051,969,-1
1050,968,1063,-1
1052,970,1053,-1
1051,1054,972,-1
1054,1055,973,-1
1023,1048,1022,-1
1022,1048,1047,-1
1026,1027,1049,-1
1026,1049,1050,-1
1026,1050,1061,-1
1049,1051,1050,-1
1049,1052,1051,-1
1051,1052,1054,-1
1052,1053,1054,-1
1054,1053,1055,-1
1056,974,1057,-1
1056,1058,976,-1
1057,975,1059,-1
1044,960,1058,-1
1046,1059,977,-1
1060,978,1061,-1
1060,1062,980,-1
1065,983,1081,-1
1063,981,1064,-1
1062,1067,985,-1
1064,982,1066,-1
1065,1066,984,-1
1056,1057,1058,-1
1057,1059,1058,-1
1044,1058,1059,-1
1044,1059,1046,-1
1060,1061,1062,-1
1061,1050,1063,-1
1061,1063,1067,-1
1063,1064,1067,-1
1062,1061,1067,-1
1064,1066,1067,-1
1065,1082,1066,-1
1067,1066,1082,-1
1068,987,986,-1
1069,988,987,-1
1072,986,990,-1
1071,991,989,-1
1073,990,991,-1
1075,992,993,-1
1068,1069,987,-1
1069,1070,988,-1
1068,986,1072,-1
1071,1073,991,-1
1072,990,1073,-1
1068,1070,1069,-1
1068,1072,1070,-1
1070,1072,1071,-1
1071,1072,1073,-1
1074,992,1075,-1
1076,971,994,-1
1078,994,996,-1
1077,997,995,-1
1080,996,998,-1
1079,999,997,-1
1081,983,999,-1
1082,998,1000,-1
1083,1002,1001,-1
1086,1001,1004,-1
1084,1005,1002,-1
1086,1004,988,-1
1085,989,1003,-1
1087,1006,1005,-1
1074,1003,992,-1
1088,1009,1006,-1
1092,993,1010,-1
1089,1008,1007,-1
1091,1007,1009,-1
1090,1012,1008,-1
1093,1010,1011,-1
1094,1011,1012,-1
1053,971,1076,-1
1055,1077,995,-1
1076,994,1078,-1
1078,996,1080,-1
1070,1086,988,-1
1071,989,1085,-1
1074,1085,1003,-1
1053,1076,1055,-1
1055,1076,1077,-1
1076,1078,1077,-1
1070,1071,1085,-1
1077,1079,997,-1
1079,1081,999,-1
1080,998,1082,-1
1067,1082,1000,-1
1083,1001,1086,-1
1083,1084,1002,-1
1084,1087,1005,-1
1077,1078,1079,-1
1079,1078,1080,-1
1079,1080,1081,-1
1081,1080,1082,-1
1065,1081,1082,-1
1083,1086,1084,-1
1070,1085,1086,-1
1088,1087,1085,-1
1086,1085,1087,-1
1084,1086,1087,-1
1075,993,1092,-1
1088,1006,1087,-1
1074,1075,1085,-1
1075,1088,1085,-1
1075,1092,1088,-1
1088,1091,1009,-1
1089,1090,1008,-1
1089,1007,1091,-1
1090,1094,1012,-1
1092,1010,1093,-1
1093,1011,1094,-1
1088,1092,1091,-1
1089,1091,1090,-1
1090,1091,1092,-1
1090,1092,1094,-1
1092,1093,1094,-1
1147,1098,1097,-1
1148,1099,1098,-1
1150,1102,1100,-1
1151,1100,1101,-1
1153,1097,1103,-1
1152,1104,1102,-1
1156,1103,1106,-1
1154,1105,1104,-1
1155,1107,1105,-1
1157,1108,1107,-1
1149,1109,1099,-1
1159,1111,1109,-1
1160,1101,1110,-1
1161,1197,1111,-1
1162,1110,1112,-1
1261,1112,1198,-1
1163,1106,1113,-1
1158,1117,1108,-1
1164,1115,1114,-1
1165,1116,1115,-1
1167,1118,1117,-1
1169,1113,1119,-1
1168,1119,1118,-1
1171,1114,1121,-1
1170,1122,1120,-1
1172,1121,1122,-1
1175,1120,1125,-1
1166,1209,1116,-1
1174,1123,1124,-1
1173,1207,1123,-1
1178,1125,1128,-1
1176,1127,1126,-1
1179,1128,1129,-1
1177,1130,1127,-1
1180,1131,1130,-1
1181,1140,1131,-1
1275,1126,1212,-1
1147,1148,1098,-1
1150,1152,1102,-1
1149,1099,1148,-1
1150,1100,1151,-1
1147,1097,1153,-1
1152,1154,1104,-1
1153,1103,1156,-1
1154,1155,1105,-1
1155,1157,1107,-1
1157,1158,1108,-1
1147,1150,1148,-1
1147,1152,1150,-1
1149,1148,1151,-1
1148,1150,1151,-1
1147,1153,1152,-1
1152,1153,1154,-1
1153,1155,1154,-1
1153,1156,1155,-1
1155,1156,1157,-1
1156,1158,1157,-1
1149,1159,1109,-1
1151,1101,1160,-1
1160,1110,1162,-1
1159,1161,1111,-1
1161,1260,1197,-1
1162,1112,1261,-1
1149,1151,1160,-1
1149,1160,1159,-1
1159,1160,1161,-1
1161,1160,1162,-1
1161,1162,1260,-1
1162,1261,1260,-1
1156,1106,1163,-1
1164,1165,1115,-1
1165,1166,1116,-1
1158,1167,1117,-1
1167,1168,1118,-1
1163,1113,1169,-1
1168,1169,1119,-1
1164,1114,1171,-1
1171,1121,1172,-1
1170,1172,1122,-1
1170,1120,1175,-1
1156,1163,1158,-1
1158,1163,1167,-1
1164,1166,1165,-1
1164,1170,1166,-1
1163,1169,1167,-1
1167,1169,1168,-1
1164,1171,1170,-1
1170,1171,1172,-1
1166,1170,1175,-1
1166,1175,1176,-1
1173,1123,1174,-1
1166,1272,1209,-1
1175,1125,1178,-1
1176,1177,1127,-1
1178,1128,1179,-1
1177,1180,1130,-1
1180,1181,1131,-1
1176,1126,1275,-1
1173,1174,1270,-1
1175,1177,1176,-1
1175,1178,1177,-1
1166,1176,1272,-1
1177,1178,1180,-1
1178,1179,1180,-1
1180,1179,1181,-1
1176,1275,1272,-1
1182,1133,1132,-1
1183,1134,1133,-1
1186,1132,1136,-1
1185,1137,1135,-1
1187,1136,1137,-1
1188,1129,1138,-1
1189,1138,1139,-1
1190,1141,1140,-1
1193,1139,1143,-1
1191,1142,1141,-1
1295,1135,1232,-1
1294,1231,1134,-1
1296,1146,1233,-1
1195,1144,1145,-1
1194,1232,1144,-1
1196,1236,1146,-1
1300,1145,1237,-1
1182,1183,1133,-1
1183,1184,1134,-1
1182,1132,1186,-1
1185,1187,1137,-1
1186,1136,1187,-1
1185,1135,1295,-1
1182,1184,1183,-1
1182,1186,1184,-1
1184,1186,1185,-1
1185,1186,1187,-1
1184,1185,1295,-1
1179,1129,1188,-1
1181,1190,1140,-1
1188,1138,1189,-1
1190,1191,1141,-1
1189,1139,1193,-1
1191,1192,1142,-1
1193,1143,1291,-1
1184,1294,1134,-1
1295,1232,1194,-1
1179,1188,1181,-1
1181,1188,1190,-1
1188,1189,1190,-1
1190,1189,1191,-1
1189,1193,1191,-1
1191,1193,1192,-1
1192,1193,1291,-1
1184,1295,1294,-1
1295,1196,1296,-1
1194,1144,1195,-1
1195,1145,1300,-1
1295,1194,1195,-1
1296,1196,1146,-1
1196,1299,1236,-1
1295,1195,1196,-1
1195,1300,1196,-1
1196,1300,1299,-1
1260,1199,1197,-1
1263,1198,1200,-1
1264,1200,1201,-1
1262,1202,1199,-1
1266,1205,1203,-1
1267,1203,1204,-1
1268,1201,1205,-1
1265,1206,1202,-1
1269,1208,1206,-1
1270,1204,1207,-1
1271,1124,1208,-1
1273,1211,1210,-1
1272,1210,1209,-1
1274,1216,1211,-1
1276,1212,1213,-1
1278,1213,1215,-1
1277,1215,1214,-1
1279,1228,1216,-1
1260,1262,1199,-1
1261,1198,1263,-1
1263,1200,1264,-1
1262,1265,1202,-1
1268,1205,1266,-1
1266,1203,1267,-1
1264,1201,1268,-1
1265,1269,1206,-1
1261,1262,1260,-1
1261,1263,1262,-1
1262,1263,1265,-1
1263,1264,1265,-1
1264,1268,1265,-1
1265,1268,1269,-1
1268,1266,1269,-1
1266,1267,1269,-1
1173,1270,1207,-1
1267,1204,1270,-1
1174,1124,1271,-1
1269,1271,1208,-1
1273,1210,1272,-1
1273,1274,1211,-1
1275,1212,1276,-1
1274,1279,1216,-1
1276,1213,1278,-1
1277,1214,1192,-1
1278,1215,1277,-1
1174,1271,1270,-1
1267,1270,1271,-1
1267,1271,1269,-1
1273,1272,1274,-1
1274,1272,1279,-1
1272,1275,1279,-1
1275,1276,1279,-1
1278,1277,1291,-1
1276,1278,1279,-1
1278,1291,1279,-1
1280,580,1217,-1
1282,1217,1219,-1
1281,1219,1218,-1
1286,1220,1223,-1
1285,1221,1222,-1
1284,1223,1221,-1
1287,1226,1224,-1
1288,1224,1225,-1
1289,1227,1226,-1
1290,1242,1227,-1
1280,1217,1282,-1
1281,1280,1282,-1
1281,1282,1219,-1
1283,1220,1286,-1
627,1280,1281,-1
1284,1221,1285,-1
1284,1285,1289,-1
1289,1285,1290,-1
1285,1305,1290,-1
1286,1223,1284,-1
1287,1289,1226,-1
1288,1287,1224,-1
1289,1290,1227,-1
1286,1284,1287,-1
1284,1289,1287,-1
1283,1286,1288,-1
1286,1287,1288,-1
1192,1214,1142,-1
1291,1143,1228,-1
1292,1230,1229,-1
1294,1229,1231,-1
1293,1233,1230,-1
1297,1235,1234,-1
1299,1234,1236,-1
1298,1239,1235,-1
1301,1237,1238,-1
1302,1238,1239,-1
1279,1291,1228,-1
1292,1293,1230,-1
1292,1229,1294,-1
1293,1296,1233,-1
1277,1192,1291,-1
1292,1294,1293,-1
1293,1294,1296,-1
1294,1295,1296,-1
1297,1298,1235,-1
1297,1234,1299,-1
1298,1302,1239,-1
1300,1237,1301,-1
1301,1238,1302,-1
1297,1299,1298,-1
1298,1299,1300,-1
1298,1300,1302,-1
1300,1301,1302,-1
1303,1222,1240,-1
1304,1240,1241,-1
1305,1243,1242,-1
1306,1244,1243,-1
1307,1245,1244,-1
1308,1246,1245,-1
1310,1241,1247,-1
1309,1247,1246,-1
1312,1248,1249,-1
1313,1249,1250,-1
1314,1250,1251,-1
1318,1255,1248,-1
1316,1254,1253,-1
1315,1253,1252,-1
1317,1257,1254,-1
1318,1256,1255,-1
1319,1252,1256,-1
1320,1258,1257,-1
1321,1259,1258,-1
1322,1324,1259,-1
1285,1222,1303,-1
1303,1240,1304,-1
1285,1303,1305,-1
1305,1303,1306,-1
1290,1305,1242,-1
1305,1306,1243,-1
1306,1307,1244,-1
1307,1308,1245,-1
1304,1241,1310,-1
1308,1309,1246,-1
1309,1310,1247,-1
1306,1303,1307,-1
1303,1304,1307,-1
1307,1304,1308,-1
1308,1304,1310,-1
1308,1310,1309,-1
1311,1248,1312,-1
1312,1249,1313,-1
1313,1250,1314,-1
1311,1312,1316,-1
1312,1320,1317,-1
1312,1313,1320,-1
1320,1313,1321,-1
1313,1322,1321,-1
1313,1314,1322,-1
1318,1248,1311,-1
1315,1252,1319,-1
1315,1316,1253,-1
1316,1317,1254,-1
1317,1320,1257,-1
1318,1319,1256,-1
1320,1321,1258,-1
1321,1322,1259,-1
1322,1338,1324,-1
1311,1316,1315,-1
1318,1311,1315,-1
1312,1317,1316,-1
1318,1315,1319,-1
1314,1338,1322,-1
1337,1330,1323,-1
1339,1251,1325,-1
1338,1327,1324,-1
1340,1325,1326,-1
1341,1328,1327,-1
1343,1326,1329,-1
1344,1333,1330,-1
1349,1323,1335,-1
1346,1331,1332,-1
1345,1336,1331,-1
1348,1332,1334,-1
1347,1450,1333,-1
1314,1251,1339,-1
1338,1341,1327,-1
1339,1325,1340,-1
1341,1342,1328,-1
1340,1326,1343,-1
1343,1329,1480,-1
1337,1344,1330,-1
1344,1347,1333,-1
1314,1339,1338,-1
1338,1339,1341,-1
1339,1340,1341,-1
1341,1340,1342,-1
1342,1340,1343,-1
1337,1345,1344,-1
1344,1345,1347,-1
1337,1323,1349,-1
1345,1331,1346,-1
1346,1332,1348,-1
1348,1334,1493,-1
1345,1350,1336,-1
1337,1349,1345,-1
1345,1346,1347,-1
1347,1346,1348,-1
1347,1348,1491,-1
1345,1349,1350,-1
1350,1335,1336,-1
1349,1335,1350,-1
1283,1351,1220,-1
1394,1352,1351,-1
1399,1218,1356,-1
1395,1359,1352,-1
1396,1225,1353,-1
1397,1353,1354,-1
1398,1354,1355,-1
1281,1218,1399,-1
1283,1394,1351,-1
1283,1396,1394,-1
1394,1396,1395,-1
1394,1395,1352,-1
1395,1402,1359,-1
1281,1399,698,-1
1288,1225,1396,-1
1396,1353,1397,-1
1283,1288,1396,-1
1397,1354,1398,-1
1395,1396,1397,-1
1395,1397,1402,-1
1397,1398,1402,-1
1400,1356,1357,-1
1401,1357,1358,-1
1402,1360,1359,-1
1404,1355,1361,-1
1405,1361,1362,-1
1403,1363,1360,-1
1399,1356,1400,-1
1400,1357,1401,-1
699,1401,1358,-1
698,1399,1401,-1
1399,1400,1401,-1
1398,1355,1404,-1
1402,1403,1360,-1
1404,1361,1405,-1
1405,1362,1419,-1
1403,1406,1363,-1
1402,1398,1403,-1
1398,1404,1403,-1
1403,1404,1406,-1
1404,1405,1406,-1
1405,1419,1406,-1
1408,1364,1365,-1
1407,1380,1364,-1
1409,1367,1366,-1
1411,1366,1368,-1
1410,1369,1367,-1
1412,1374,1369,-1
1413,1368,1370,-1
1479,1370,1438,-1
1414,1440,1371,-1
1416,1372,1373,-1
1417,1375,1374,-1
1418,1444,1375,-1
1407,1364,1408,-1
1408,1365,1424,-1
1407,1408,1423,-1
1409,1410,1367,-1
1409,1366,1411,-1
1411,1368,1413,-1
1410,1412,1369,-1
1479,1413,1370,-1
1412,1417,1374,-1
1414,1371,1482,-1
1409,1411,1410,-1
1410,1411,1412,-1
1411,1417,1412,-1
1411,1413,1414,-1
1413,1481,1414,-1
1411,1414,1417,-1
1414,1482,1417,-1
1415,1372,1416,-1
1416,1373,1425,-1
1417,1418,1375,-1
1418,1485,1444,-1
1415,1416,1425,-1
1417,1482,1418,-1
1419,1362,1376,-1
1420,1376,1377,-1
1423,1378,1380,-1
1421,1377,1378,-1
1406,1379,1363,-1
1422,1381,1379,-1
1424,1365,1381,-1
1415,1385,1372,-1
1425,1373,1382,-1
1426,1382,1383,-1
1427,1383,1384,-1
1428,1386,1385,-1
1429,1387,1386,-1
1430,1392,1387,-1
1431,1384,1388,-1
1432,1388,1389,-1
1502,1390,1461,-1
1434,1389,1391,-1
1433,1391,1390,-1
1435,1393,1392,-1
1436,1462,1393,-1
1419,1376,1420,-1
1423,1421,1378,-1
1420,1377,1421,-1
1406,1422,1379,-1
1407,1423,1380,-1
1422,1424,1381,-1
1419,1420,1422,-1
1420,1421,1422,-1
1422,1421,1424,-1
1406,1419,1422,-1
1408,1424,1423,-1
1423,1424,1421,-1
1415,1428,1385,-1
1425,1382,1426,-1
1426,1383,1427,-1
1427,1384,1431,-1
1428,1429,1386,-1
1429,1430,1387,-1
1430,1435,1392,-1
1431,1388,1432,-1
1432,1389,1434,-1
1502,1433,1390,-1
1433,1434,1391,-1
1436,1503,1462,-1
1435,1436,1393,-1
1415,1425,1428,-1
1428,1425,1429,-1
1425,1426,1429,-1
1426,1427,1430,-1
1429,1426,1430,-1
1430,1427,1435,-1
1427,1431,1435,-1
1431,1432,1436,-1
1432,1434,1436,-1
1433,1503,1434,-1
1436,1434,1503,-1
1431,1436,1435,-1
1342,1437,1328,-1
1478,1438,1437,-1
1480,1329,1439,-1
1483,1439,1442,-1
1481,1442,1440,-1
1482,1371,1441,-1
1484,1441,1443,-1
1485,1446,1444,-1
1486,1443,1445,-1
1487,1461,1446,-1
1488,1445,1447,-1
1490,1448,1449,-1
1491,1451,1450,-1
1493,1334,1452,-1
1495,1452,1454,-1
1492,1453,1451,-1
1494,1456,1453,-1
1496,1454,1455,-1
1499,1455,1458,-1
1497,1457,1456,-1
1498,1459,1457,-1
1500,1460,1459,-1
1342,1478,1437,-1
1479,1438,1478,-1
1483,1480,1439,-1
1414,1481,1440,-1
1483,1442,1481,-1
1482,1441,1484,-1
1342,1480,1478,-1
1479,1478,1483,-1
1342,1343,1480,-1
1478,1480,1483,-1
1479,1481,1413,-1
1479,1483,1481,-1
1484,1443,1486,-1
1486,1445,1488,-1
1485,1487,1446,-1
1487,1502,1461,-1
1488,1447,1503,-1
1489,1448,1490,-1
1490,1449,1504,-1
1418,1482,1484,-1
1418,1484,1485,-1
1485,1484,1486,-1
1485,1486,1487,-1
1487,1486,1488,-1
1487,1488,1502,-1
1489,1490,1504,-1
1347,1491,1450,-1
1491,1492,1451,-1
1493,1452,1495,-1
1492,1494,1453,-1
1494,1497,1456,-1
1495,1454,1496,-1
1496,1455,1499,-1
1348,1493,1491,-1
1491,1493,1492,-1
1493,1495,1492,-1
1492,1495,1494,-1
1495,1496,1494,-1
1494,1496,1497,-1
1497,1496,1499,-1
1497,1498,1457,-1
1499,1458,1516,-1
1498,1500,1459,-1
1500,1501,1460,-1
1497,1499,1498,-1
1498,1499,1516,-1
1498,1516,1500,-1
1500,1516,1517,-1
1500,1518,1501,-1
1500,1517,1518,-1
1503,1447,1462,-1
1489,1464,1448,-1
1504,1449,1463,-1
1505,1469,1464,-1
1506,1463,1465,-1
1507,1465,1466,-1
1508,1466,1467,-1
1509,1467,1468,-1
1513,1468,1472,-1
1510,1470,1469,-1
1511,1474,1470,-1
1501,1471,1460,-1
1512,1472,1471,-1
1514,1477,1473,-1
1515,1473,1474,-1
1489,1505,1464,-1
1505,1510,1469,-1
1502,1503,1433,-1
1502,1488,1503,-1
1489,1504,1505,-1
1505,1504,1506,-1
1505,1506,1510,-1
1504,1463,1506,-1
1506,1465,1507,-1
1507,1466,1508,-1
1508,1467,1509,-1
1509,1468,1513,-1
1510,1511,1470,-1
1501,1512,1471,-1
1513,1472,1512,-1
1518,1477,1514,-1
1515,1514,1473,-1
1511,1515,1474,-1
1506,1507,1510,-1
1507,1508,1510,-1
1508,1509,1511,-1
1509,1513,1511,-1
1510,1508,1511,-1
1511,1513,1515,-1
1501,1514,1512,-1
1513,1512,1515,-1
1512,1514,1515,-1
1501,1518,1514,-1
1516,1458,1475,-1
1517,1475,1476,-1
1518,1476,1477,-1
1516,1475,1517,-1
1517,1476,1518,-1
]

colorPerVertex FALSE

color Color { color [
 0 0 0,
 1 1 1,
 0.976471 0.843137 0.172549, # default colour
] }

colorIndex [
0 0 0 0 0 0 0 0 0 0 0 0 0 0 0 0 0 0 0 0 0 0 0 0 0 0 0 0 0 0 0 0 0 0 0 0 0 0 0 0 0 0 0 0 0 0 0 0 0 0 0 0 0 0 0 0 0 0 0 0 0 0 0 0 0 0 0 0 0 0 0 0 0 0 0 0 0 0 0 0 0 0 0 0 0 0 0 0 0 0 0 0 0 0 0 0 0 0 0 0 0 0 0 0 0 0 0 0 0 0 0 0 0 0 0 0 0 0 0 0 0 0 0 0 0 0 0 0 0 0 0 0 0 0 0 0 0 0 0 0 0 0 0 0 0 0 0 0 0 0 0 0 0 0 0 0 0 0 0 0 0 0 0 0 0 0 0 0 0 0 0 0 0 0 0 0 0 0 0 0 0 0 0 0 0 0 0 0 0 0 0 0 0 0 0 0 0 0 0 0 0 0 0 0 0 0 0 0 0 0 0 0 0 0 0 0 0 0 0 0 0 0 0 0 0 0 0 0 0 0 0 0 0 0 0 0 0 0 0 0 0 0 0 0 0 0 0 0 0 0 0 0 0 0 0 0 0 0 0 0 0 0 0 0 0 0 0 0 0 0 0 0 0 0 0 0 0 0 0 0 0 0 0 0 0 0 0 0 0 0 0 0 0 0 0 0 0 0 0 0 0 0 0 0 0 0 0 0 0 0 0 0 0 0 0 0 0 0 0 0 0 0 0 0 0 0 0 0 0 0 0 0 0 0 0 0 0 0 0 0 0 0 0 0 0 0 0 0 0 0 0 0 0 0 0 0 0 0 0 0 0 0 0 0 0 0 0 0 0 0 0 0 0 0 0 0 0 0 0 0 0 0 0 0 0 0 0 0 0 0 0 0 0 0 0 0 0 0 0 0 0 0 0 0 0 0 0 0 0 0 0 0 0 0 0 0 0 0 0 0 0 0 0 0 0 0 0 0 0 0 0 0 0 0 0 0 0 0 0 0 0 0 0 0 0 0 0 0 0 0 0 0 0 0 0 0 0 0 0 0 0 0 0 0 0 0 0 0 0 0 0 0 0 0 0 0 0 0 0 0 0 0 0 0 0 0 0 0 0 0 0 0 0 0 0 0 0 0 0 0 0 0 0 0 0 0 0 0 0 0 0 0 0 0 0 0 0 0 0 0 0 0 0 0 0 0 0 0 0 0 0 0 0 0 0 0 0 0 0 0 0 0 0 0 0 0 0 0 0 0 0 0 0 0 0 0 0 0 0 0 0 0 0 0 0 0 0 0 0 0 0 0 0 0 0 0 0 0 0 0 0 0 0 0 0 0 0 0 0 0 0 0 0 0 0 0 0 0 0 0 0 0 0 0 0 0 0 0 0 0 0 0 0 0 0 0 0 0 0 0 0 0 0 0 0 0 0 0 0 0 0 0 0 0 0 0 0 0 0 0 0 0 0 0 0 0 0 0 0 0 0 0 0 0 0 0 0 0 0 0 0 0 0 0 0 0 0 0 0 0 0 0 0 0 0 0 0 0 0 0 0 0 0 0 0 0 0 0 0 0 0 0 0 0 0 0 0 0 0 0 0 0 0 0 0 0 0 0 0 0 0 0 0 0 0 0 0 0 0 0 0 0 0 0 0 0 0 0 0 0 0 0 0 0 0 0 0 0 0 0 0 0 0 0 0 0 0 0 0 0 0 0 0 0 0 0 0 0 0 0 0 0 0 0 0 0 0 0 0 0 0 0 0 0 0 0 0 0 0 0 0 0 0 0 0 0 0 0 0 0 0 0 0 0 0 0 0 0 0 0 0 0 0 0 0 0 0 0 0 0 0 0 0 1 1 1 1 1 1 1 1 1 1 1 1 1 1 1 1 1 1 1 1 1 1 1 1 1 1 1 1 1 1 1 1 1 1 1 1 1 1 1 1 1 1 1 1 1 1 1 1 1 1 1 1 1 1 1 1 1 1 1 1 1 1 1 1 1 1 1 1 1 1 1 1 1 1 1 1 1 1 1 1 1 1 1 1 1 1 1 1 1 1 1 1 1 1 1 1 1 1 1 1 1 1 1 1 1 1 1 1 1 1 1 1 1 1 1 1 1 1 1 1 1 1 1 1 1 1 1 1 1 1 1 1 1 1 1 1 1 1 1 1 1 1 1 1 1 1 1 1 1 1 1 1 1 1 1 1 1 1 1 1 1 1 1 1 1 1 1 1 1 1 1 1 1 1 1 1 1 1 1 1 1 1 1 1 1 1 1 1 1 1 1 1 1 1 1 1 1 1 1 1 1 1 1 1 1 1 1 1 1 1 1 1 1 1 1 1 1 1 1 1 1 1 1 1 1 1 1 1 1 1 1 1 1 1 1 1 1 1 1 1 1 1 1 1 1 1 1 1 1 1 1 1 1 1 1 1 1 1 1 1 1 1 1 1 1 1 1 1 1 1 1 1 1 1 1 1 1 1 1 1 1 1 1 1 1 1 1 1 1 1 1 1 1 1 1 1 1 1 1 1 1 1 1 1 1 1 1 1 1 1 1 1 1 1 1 1 1 1 1 1 1 1 1 1 1 1 1 1 1 1 1 1 1 1 1 1 1 1 1 1 1 1 1 1 1 1 1 1 1 1 1 1 1 1 1 1 1 1 1 1 1 1 1 1 1 1 1 1 1 1 1 1 1 1 1 1 1 1 1 1 1 1 1 1 1 1 1 1 1 1 1 1 1 1 1 1 1 1 1 1 1 1 1 1 1 1 1 1 1 1 1 1 1 1 1 1 1 1 1 1 1 1 1 1 1 1 1 1 1 1 1 1 1 1 1 1 1 1 1 1 1 1 1 1 1 1 1 1 1 1 1 1 1 1 1 1 1 1 1 1 1 1 1 1 1 1 1 1 1 1 1 1 1 1 1 1 1 1 1 1 1 1 1 1 1 1 1 1 1 1 1 1 1 1 1 1 1 1 1 1 1 1 1 1 1 1 1 1 1 1 1 1 1 1 1 1 1 1 1 1 1 1 1 1 1 1 1 1 1 1 1 1 1 1 1 1 1 1 1 1 1 1 1 1 1 1 1 1 1 1 1 1 1 1 1 1 1 1 1 1 1 1 1 1 1 1 1 1 1 1 1 1 1 1 1 1 1 1 1 1 1 1 1 1 1 1 1 1 1 1 1 1 1 1 1 1 1 1 1 1 1 1 1 1 1 1 1 1 1 1 1 1 1 1 1 1 1 1 1 1 1 1 1 1 1 1 1 1 1 1 1 1 1 1 1 1 1 1 1 1 1 1 1 1 1 1 1 1 1 1 1 1 1 1 1 1 1 1 1 1 1 1 1 1 1 1 1 1 1 1 1 1 1 1 1 1 1 1 1 1 1 1 1 1 1 1 1 1 1 1 1 1 1 1 1 1 1 1 1 1 1 1 1 1 1 1 1 1 1 1 1 1 1 1 1 1 1 1 1 1 1 1 1 1 1 1 1 1 1 1 1 1 1 1 1 1 1 1 1 1 1 1 1 1 1 1 1 1 1 1 1 1 1 1 1 1 1 1 1 1 1 1 1 1 1 1 1 1 1 1 1 1 1 1 1 1 1 1 1 1 1 1 1 1 1 1 1 1 1 1 1 1 1 1 1 1 1 1 1 1 1 1 1 1 1 1 1 1 1 1 1 1 1 1 1 1 1 1 1 1 1 1 1 1 1 1 1 1 1 1 1 1 1 1 1 1 1 1 1 1 1 1 1 1 1 1 1 1 1 1 1 1 1 1 1 1 1 1 1 1 1 1 1 1 1 1 1 1 1 1 1 1 1 1 1 1 1 1 1 1 1 1 1 1 1 1 1 1 1 1 1 1 1 1 1 1 1 1 1 1 1 1 1 1 1 1 1 1 1 1 1 1 1 1 1 1 1 1 1 1 1 1 1 1 1 1 1 1 1 1 1 1 1 1 1 1 1 1 1 1 1 1 1 1 1 1 1 1 1 1 1 1 1 1 1 1 1 1 1 1 1 1 1 1 1 1 1 1 1 1 1 1 1 1 1 1 1 1 1 1 1 1 1 1 1 1 1 1 1 1 1 1 1 1 1 1 1 1 1 1 1 1 1 1 1 1 1 1 1 1 1 1 1 1 1 1 1 1 1 1 1 1 1 1 1 1 1 1 1 1 1 1 1 1 1 1 1 1 1 1 1 1 1 1 1 1 1 1 1 1 1 1 1 1 1 1 1 1 1 1 1 1 1 1 1 1 1 1 1 1 1 1 1 1 1 1 1 1 1 1 1 1 1 1 1 1 1 1 1 1 1 1 1 1 1 1 1 1 1 1 1 1 1 1 1 1 1 1 1 1 1 1 1 1 1 1 1 1 1 1 1 1 1 1 1 1 1 1 1 1 1 1 1 1 1 1 1 1 1 1 1 1 1 1 1 1 1 1 1 1 1 1 1 1 1 1 1 1 1 1 1 1 1 1 1 1 1 1 1 1 1 1 1 1 1 1 1 1 1 1 1 1 1 1 1 1 1 1 1 1 1 1 1 1 1 1 1 1 1 1 1 1 1 1 1 1 1 1 1 1 1 1 1 1 1 1 1 1 1 1 1 1 1 1 1 1 1 1 1 1 1 1 1 1 1 1 1 1 1 1 1 1 1 1 1 1 1 1 1 1 1 1 1 1 1 1 1 1 1 1 1 1 1 1 1 1 1 1 1 1 1 1 1 1 1 1 1 1 1 1 1 1 1 1 1 1 1 1 1 1 1 1 1 1 1 1 1 1 1 1 1 1 1 1 1 1 1 1 1 1 1 1 1 1 1 1 1 1 1 1 1 1 1 1 1 1 1 1 1 1 1 1 1 1 1 1 1 1 1 1 1 1 1 1 1 1 1 1 1 1 1 1 1 1 1 1 1 1 1 1 1 1 1 1 1 1 1 1 1 1 1 1 1 1 1 1 1 1 1 1 1 1 1 1 1 1 1 1 1 1 1 1 1 1 1 1 1 1 1 1 1 1 1 1 1 1 1 1 1 1 1 1 1 1 1 1 1 1 1 1 1 1 1 1 1 1 1 1 1 1 1 1 1 1 1 1 1 1 1 1 1 1 1 1 1 1 1 1 1 1 1 1 1 1 1 1 1 1 1 1 1 1 1 1 1 1 1 1 1 1 1 1 1 1 1 1 1 1 1 1 1 1 1 1 1 1 1 1 1 1 1 1 1 1 1 1 1 1 1 1 1 1 1 1 1 1 1 1 1 1 1 1 1 1 1 1 1 1 1 1 1 1 1 1 1 1 1 1 1 1 1 1 1 1 1 1 1 1 1 1 1 1 1 1 1 1 1 1 1 1 1 1 1 1 1 1 1 1 1 1 1 1 1 1 1 1 1 1 1 1 1 1 1 1 1 1 1 1 1 1 1 1 1 1 1 1 1 1 1 1 1 1 1 1 1 1 1 1 1 1 1 1 1 1 1 1 1 1 1 1 1 1 1 1 1 1 1 1 1 1 1 1 1 1 1 1 1 1 1 1 1 1 1 1 1 1 1 1 1 1 1 1 1 1 1 1 1 1 1 1 1 1 1 1 1 1 1 1 1 1 1 1 1 1 1 1 1 1 1 1 1 1 1 1 1 1 1 1 1 1 1 1 1 1 1 1 1 1 1 1 1 1 1 1 1 1 1 1 1 1 1 1 1 1 1 1 1 1 1 1 1 1 1 1 1 1 1 1 1 1 1 1 1 1 1 1 1 1 1 1 1 1 1 1 1 1 1 1 1 1 1 1 1 1 1 1 1 1 1 1 1 1 1 1 1 1 1 1 1 1 1 1 1 1 1 1 1 1 1 1 1 1 1 1 1 1 1 1 1 1 1 1 1 1 1 1 1 1 1 1 1 1 1 1 1 1 1 1 1 1 1 1 1 1 1 1 1 1 1 1 1 1 1 1 1 1 1 1 1 1 1 1 1 1 1 1 1 1 1 1 1 1 1 1 1 1 1 1 1 1 1 1 1 1 1 1 1 1 1 1 1 1 1 1 1 1 1 1 1 1 1 1 1 1 1 1 1 1 1 1 1 1 1 1 1 1 1 1 1 1 1 1 1 1 1 1 1 1 1 1 1 1 1 1 1 1 1 1 1 1 1 1 1 1 1 1 1 1 1 1 1 1 1 1 1 1 1 1 1 1 1 1 1 1 1 1 1 1 1 1 1 1 1 1 1 1 1 1 1 1 1 1 1 1 1 1 1 1 1 1 1 1 1 1 1 1 1 1 1 1 1 1 1 1 1 1 1 1 1 1 1 1 1 1 1 1 1 1 1 1 1 1 1 1 1 1 1 1 1 1 1 1 1 1 1 1 1 1 1 1 1 1 1 1 1 1 1 1 1 1 1 1 1 1 1 1 1 1 1 1 1 1 1 1 1 1 1 1 1 1 1 1 1 1 1 1 1 1 1 1 1 1 1 1 1 1 1 1 1 1 1 1 1 1 1 1 1 1 1 1 1 1 1 1 1 1 1 1 1 1 1 1 1 1 1 1 1 1 1 1 1 1 1 1 1 1 1 1 1 1 1 1 1 1 1 1 1 1 1 1 1 1 1 1 1 1 1 1 1 1 1 1 1 1 1 1 1 1 1 1 1 1 1 1 1 1 1 1 1 1 1 1 1 1 1 1 1 1 1 1 1 1 1 1 1 1 1 1 1 1 1 1 1 1 1 1 1 1 1 1 1 1 1 1 1 1 1 1 1 1 1 1 1 1 1 1 1 1 1 1 1 1 1 1 1 1 1 1 1 1 1 1 1 1 1 1 1 1 1 1 1 1 1 1 1 1 1 1 1 1 1 1 1 1 1 1 1 1 1 1 1 1 1 ]

}

}
