#VRML V2.0 utf8

Shape {

appearance Appearance { material Material {
ambientIntensity 0.3
diffuseColor 0.97647 0.843137 0.172549
specularColor 0.2 0.2 0.2
shininess 0.3
} }

geometry IndexedFaceSet {

creaseAngle 0.5

coord Coordinate { point [
0 0 0,
0 0 0.9,
0.597089 0.228571 0.9,
0.597089 0.232679 0.9,
0.613596 0.234771 0.9,
0.613596 0.269026 0.9,
0.565391 0.328392 0.9,
0.565391 0.332499 0.9,
0.577093 0.326376 0.9,
0.595383 0.326376 0.9,
0.609333 0.328392 0.9,
0.609333 0.332499 0.9,
0.628554 0.234771 0.9,
0.645061 0.228571 0.9,
0.645061 0.232679 0.9,
0.628554 0.269491 0.9,
0.625221 0.278403 0.9,
0.711718 0.228571 0.9,
0.711718 0.232679 0.9,
0.728226 0.234771 0.9,
0.743183 0.234771 0.9,
0.728226 0.269026 0.9,
0.743183 0.269491 0.9,
0.739851 0.278403 0.9,
0.640411 0.328392 0.9,
0.640411 0.332499 0.9,
0.653586 0.326376 0.9,
0.662809 0.326376 0.9,
0.674201 0.328392 0.9,
0.674201 0.332499 0.9,
0.680021 0.328392 0.9,
0.680021 0.332499 0.9,
0.691723 0.326376 0.9,
0.710013 0.326376 0.9,
0.723963 0.328392 0.9,
0.723963 0.332499 0.9,
0.597089 0.228571 1.1,
0.597089 0.232679 1.1,
0.613596 0.234771 1.1,
0.613596 0.269026 1.1,
0.565391 0.328392 1.1,
0.565391 0.332499 1.1,
0.577093 0.326376 1.1,
0.595383 0.326376 1.1,
0.609333 0.328392 1.1,
0.609333 0.332499 1.1,
0.628554 0.234771 1.1,
0.645061 0.228571 1.1,
0.645061 0.232679 1.1,
0.628554 0.269491 1.1,
0.625221 0.278403 1.1,
0.711718 0.228571 1.1,
0.711718 0.232679 1.1,
0.728226 0.234771 1.1,
0.743183 0.234771 1.1,
0.728226 0.269026 1.1,
0.743183 0.269491 1.1,
0.739851 0.278403 1.1,
0.640411 0.328392 1.1,
0.640411 0.332499 1.1,
0.653586 0.326376 1.1,
0.662809 0.326376 1.1,
0.674201 0.328392 1.1,
0.674201 0.332499 1.1,
0.680021 0.328392 1.1,
0.680021 0.332499 1.1,
0.691723 0.326376 1.1,
0.710013 0.326376 1.1,
0.723963 0.328392 1.1,
0.723963 0.332499 1.1,
0.759691 0.228571 0.9,
0.759691 0.232679 0.9,
0.8365 0.226169 0.9,
0.840609 0.226169 0.9,
0.842158 0.253139 0.9,
0.868276 0.297779 0.9,
0.755041 0.328392 0.9,
0.755041 0.332499 0.9,
0.768215 0.326376 0.9,
0.777438 0.326376 0.9,
0.78883 0.328392 0.9,
0.78883 0.332499 0.9,
0.793023 0.328392 0.9,
0.793023 0.332499 0.9,
0.802091 0.326376 0.9,
0.817436 0.326376 0.9,
0.832703 0.328392 0.9,
0.832703 0.332499 0.9,
0.870135 0.325214 0.9,
0.873623 0.325214 0.9,
0.895245 0.226169 0.9,
0.899353 0.226169 0.9,
0.900593 0.253139 0.9,
0.986317 0.226169 0.9,
0.990426 0.226169 0.9,
0.991975 0.253139 0.9,
0.907956 0.328392 0.9,
0.907956 0.332499 0.9,
0.924153 0.326376 0.9,
0.933298 0.326376 0.9,
0.942365 0.328392 0.9,
0.942841 0.328392 0.9,
0.942365 0.332499 0.9,
0.942841 0.332499 0.9,
0.951908 0.326376 0.9,
0.967253 0.326376 0.9,
0.982521 0.328392 0.9,
0.982521 0.332499 0.9,
0.759691 0.228571 1.1,
0.759691 0.232679 1.1,
0.8365 0.226169 1.1,
0.840609 0.226169 1.1,
0.842158 0.253139 1.1,
0.868276 0.297779 1.1,
0.755041 0.328392 1.1,
0.755041 0.332499 1.1,
0.768215 0.326376 1.1,
0.777438 0.326376 1.1,
0.78883 0.328392 1.1,
0.78883 0.332499 1.1,
0.793023 0.328392 1.1,
0.793023 0.332499 1.1,
0.802091 0.326376 1.1,
0.817436 0.326376 1.1,
0.832703 0.328392 1.1,
0.832703 0.332499 1.1,
0.870135 0.325214 1.1,
0.873623 0.325214 1.1,
0.895245 0.226169 1.1,
0.899353 0.226169 1.1,
0.900593 0.253139 1.1,
0.986317 0.226169 1.1,
0.990426 0.226169 1.1,
0.991975 0.253139 1.1,
0.907956 0.328392 1.1,
0.907956 0.332499 1.1,
0.924153 0.326376 1.1,
0.933298 0.326376 1.1,
0.942365 0.328392 1.1,
0.942841 0.328392 1.1,
0.942365 0.332499 1.1,
0.942841 0.332499 1.1,
0.951908 0.326376 1.1,
0.967253 0.326376 1.1,
0.982521 0.328392 1.1,
0.982521 0.332499 1.1,
0.711835 0.69792 0.9,
0.728731 0.687603 0.9,
0.735251 0.693115 0.9,
0.701257 0.714437 0.9,
0.716321 0.716676 0.9,
0.69773 0.736477 0.9,
0.713928 0.736632 0.9,
0.723499 0.702066 0.9,
0.701121 0.760027 0.9,
0.716214 0.757983 0.9,
0.711293 0.777048 0.9,
0.723073 0.772902 0.9,
0.72813 0.787365 0.9,
0.734911 0.781679 0.9,
0.711835 0.69792 1.1,
0.728731 0.687603 1.1,
0.735251 0.693115 1.1,
0.701257 0.714437 1.1,
0.716321 0.716676 1.1,
0.69773 0.736477 1.1,
0.713928 0.736632 1.1,
0.723499 0.702066 1.1,
0.701121 0.760027 1.1,
0.716214 0.757983 1.1,
0.711293 0.777048 1.1,
0.723073 0.772902 1.1,
0.72813 0.787365 1.1,
0.734911 0.781679 1.1,
0.82073 0.457143 0.9,
0.82073 0.46125 0.9,
0.832511 0.463343 0.9,
0.840958 0.463343 0.9,
0.854909 0.457143 0.9,
0.854909 0.46125 0.9,
0.851421 0.493335 0.9,
0.853745 0.500311 0.9,
0.87157 0.550763 0.9,
0.867928 0.561923 0.9,
0.888698 0.457143 0.9,
0.888698 0.46125 0.9,
0.902648 0.463343 0.9,
0.892341 0.493335 0.9,
0.919465 0.463343 0.9,
0.932641 0.457143 0.9,
0.932641 0.46125 0.9,
0.939391 0.457143 0.9,
0.939391 0.46125 0.9,
0.951713 0.463343 0.9,
0.966671 0.463343 0.9,
0.982402 0.457143 0.9,
0.982402 0.46125 0.9,
0.889938 0.500311 0.9,
0.882653 0.561923 0.9,
0.966671 0.502713 0.9,
0.966671 0.509688 0.9,
0.980387 0.509688 0.9,
0.985347 0.502713 0.9,
0.992255 0.510976 0.9,
0.938383 0.556963 0.9,
0.938383 0.561071 0.9,
0.951713 0.554947 0.9,
0.966671 0.554095 0.9,
0.979922 0.554095 0.9,
0.983255 0.561071 0.9,
0.992235 0.552845 0.9,
0.82073 0.457143 1.1,
0.82073 0.46125 1.1,
0.832511 0.463343 1.1,
0.840958 0.463343 1.1,
0.854909 0.457143 1.1,
0.854909 0.46125 1.1,
0.851421 0.493335 1.1,
0.853745 0.500311 1.1,
0.87157 0.550763 1.1,
0.867928 0.561923 1.1,
0.888698 0.457143 1.1,
0.888698 0.46125 1.1,
0.902648 0.463343 1.1,
0.892341 0.493335 1.1,
0.919465 0.463343 1.1,
0.932641 0.457143 1.1,
0.932641 0.46125 1.1,
0.939391 0.457143 1.1,
0.939391 0.46125 1.1,
0.951713 0.463343 1.1,
0.966671 0.463343 1.1,
0.982402 0.457143 1.1,
0.982402 0.46125 1.1,
0.889938 0.500311 1.1,
0.882653 0.561923 1.1,
0.966671 0.502713 1.1,
0.966671 0.509688 1.1,
0.980387 0.509688 1.1,
0.985347 0.502713 1.1,
0.992255 0.510976 1.1,
0.938383 0.556963 1.1,
0.938383 0.561071 1.1,
0.951713 0.554947 1.1,
0.966671 0.554095 1.1,
0.979922 0.554095 1.1,
0.983255 0.561071 1.1,
0.992235 0.552845 1.1,
0.751206 0.684165 0.9,
0.751361 0.690131 0.9,
0.759944 0.690664 0.9,
0.770173 0.685385 0.9,
0.768023 0.692263 0.9,
0.775037 0.694753 0.9,
0.780423 0.697959 0.9,
0.787863 0.689047 0.9,
0.802673 0.685714 0.9,
0.802673 0.689822 0.9,
0.814995 0.691914 0.9,
0.829953 0.691914 0.9,
0.846461 0.685714 0.9,
0.846461 0.689822 0.9,
0.78329 0.713459 0.9,
0.788328 0.713459 0.9,
0.752136 0.784605 0.9,
0.759508 0.784149 0.9,
0.751515 0.790805 0.9,
0.766744 0.782783 0.9,
0.773477 0.780584 0.9,
0.779338 0.77763 0.9,
0.768314 0.789816 0.9,
0.781663 0.764144 0.9,
0.786778 0.764144 0.9,
0.786313 0.786851 0.9,
0.801665 0.785535 0.9,
0.801665 0.789642 0.9,
0.829953 0.726479 0.9,
0.829953 0.733455 0.9,
0.841655 0.726479 0.9,
0.838013 0.733455 0.9,
0.849395 0.734947 0.9,
0.857611 0.728552 0.9,
0.857349 0.739422 0.9,
0.869361 0.734771 0.9,
0.862028 0.747269 0.9,
0.814995 0.783519 0.9,
0.829953 0.782666 0.9,
0.837547 0.782666 0.9,
0.84088 0.789642 0.9,
0.863587 0.758874 0.9,
0.862095 0.76984 0.9,
0.849618 0.781291 0.9,
0.857619 0.777163 0.9,
0.869478 0.781989 0.9,
0.889943 0.685714 0.9,
0.889943 0.689822 0.9,
0.903273 0.691914 0.9,
0.91141 0.691914 0.9,
0.92536 0.685714 0.9,
0.92536 0.689822 0.9,
0.975503 0.685714 0.9,
0.983021 0.685714 0.9,
0.876598 0.744982 0.9,
0.87901 0.75903 0.9,
0.889943 0.785535 0.9,
0.889943 0.789642 0.9,
0.903273 0.783519 0.9,
0.91141 0.779179 0.9,
0.921408 0.789642 0.9,
0.974882 0.712685 0.9,
0.960933 0.785535 0.9,
0.960933 0.789642 0.9,
0.974882 0.783519 0.9,
0.983021 0.783519 0.9,
0.996351 0.785535 0.9,
0.996351 0.789642 0.9,
0.751206 0.684165 1.1,
0.751361 0.690131 1.1,
0.759944 0.690664 1.1,
0.770173 0.685385 1.1,
0.768023 0.692263 1.1,
0.775037 0.694753 1.1,
0.780423 0.697959 1.1,
0.787863 0.689047 1.1,
0.802673 0.685714 1.1,
0.802673 0.689822 1.1,
0.814995 0.691914 1.1,
0.829953 0.691914 1.1,
0.846461 0.685714 1.1,
0.846461 0.689822 1.1,
0.78329 0.713459 1.1,
0.788328 0.713459 1.1,
0.752136 0.784605 1.1,
0.759508 0.784149 1.1,
0.751515 0.790805 1.1,
0.766744 0.782783 1.1,
0.773477 0.780584 1.1,
0.779338 0.77763 1.1,
0.768314 0.789816 1.1,
0.781663 0.764144 1.1,
0.786778 0.764144 1.1,
0.786313 0.786851 1.1,
0.801665 0.785535 1.1,
0.801665 0.789642 1.1,
0.829953 0.726479 1.1,
0.829953 0.733455 1.1,
0.841655 0.726479 1.1,
0.838013 0.733455 1.1,
0.849395 0.734947 1.1,
0.857611 0.728552 1.1,
0.857349 0.739422 1.1,
0.869361 0.734771 1.1,
0.862028 0.747269 1.1,
0.814995 0.783519 1.1,
0.829953 0.782666 1.1,
0.837547 0.782666 1.1,
0.84088 0.789642 1.1,
0.863587 0.758874 1.1,
0.862095 0.76984 1.1,
0.849618 0.781291 1.1,
0.857619 0.777163 1.1,
0.869478 0.781989 1.1,
0.889943 0.685714 1.1,
0.889943 0.689822 1.1,
0.903273 0.691914 1.1,
0.91141 0.691914 1.1,
0.92536 0.685714 1.1,
0.92536 0.689822 1.1,
0.975503 0.685714 1.1,
0.983021 0.685714 1.1,
0.876598 0.744982 1.1,
0.87901 0.75903 1.1,
0.889943 0.785535 1.1,
0.889943 0.789642 1.1,
0.903273 0.783519 1.1,
0.91141 0.779179 1.1,
0.921408 0.789642 1.1,
0.974882 0.712685 1.1,
0.960933 0.785535 1.1,
0.960933 0.789642 1.1,
0.974882 0.783519 1.1,
0.983021 0.783519 1.1,
0.996351 0.785535 1.1,
0.996351 0.789642 1.1,
0 1.6 0,
0.480328 1.14286 0.9,
0.480328 1.15025 0.9,
0.480328 1.14286 1.1,
0.480328 1.15025 1.1,
0 1.6 0.9,
0.383484 1.39831 0.9,
0.39852 1.37549 0.9,
0.421119 1.3598 0.9,
0.480328 1.32253 0.9,
0.480328 1.32993 0.9,
0.4488 1.35457 0.9,
0.476479 1.3598 0.9,
0.499071 1.37549 0.9,
0.383484 1.39831 1.1,
0.39852 1.37549 1.1,
0.421119 1.3598 1.1,
0.480328 1.32253 1.1,
0.480328 1.32993 1.1,
0.4488 1.35457 1.1,
0.476479 1.3598 1.1,
0.499071 1.37549 1.1,
0.378471 1.42491 0.9,
0.383556 1.45222 0.9,
0.398811 1.47489 0.9,
0.421483 1.49015 0.9,
0.4488 1.49523 0.9,
0.49878 1.47489 0.9,
0.476115 1.49015 0.9,
0.378471 1.42491 1.1,
0.383556 1.45222 1.1,
0.398811 1.47489 1.1,
0.421483 1.49015 1.1,
0.4488 1.49523 1.1,
0.49878 1.47489 1.1,
0.476115 1.49015 1.1,
0.701257 0.943009 0.9,
0.711835 0.926491 0.9,
0.716321 0.945247 0.9,
0.728731 0.916175 0.9,
0.735251 0.921687 0.9,
0.723499 0.930638 0.9,
0.69773 0.965048 0.9,
0.713928 0.965203 0.9,
0.701121 0.988598 0.9,
0.716214 0.986554 0.9,
0.701257 0.943009 1.1,
0.711835 0.926491 1.1,
0.716321 0.945247 1.1,
0.728731 0.916175 1.1,
0.735251 0.921687 1.1,
0.723499 0.930638 1.1,
0.69773 0.965048 1.1,
0.713928 0.965203 1.1,
0.701121 0.988598 1.1,
0.716214 0.986554 1.1,
0.544079 1.14286 0.9,
0.504322 1.15402 0.9,
0.518969 1.15402 0.9,
0.518969 1.18482 0.9,
0.544079 1.15025 0.9,
0.587464 1.14286 0.9,
0.592345 1.14286 0.9,
0.597786 1.18764 0.9,
0.711293 1.00562 0.9,
0.723073 1.00147 0.9,
0.72813 1.01594 0.9,
0.734911 1.01025 0.9,
0.641869 1.14286 0.9,
0.641869 1.15025 0.9,
0.666978 1.15402 0.9,
0.717757 1.14286 0.9,
0.693762 1.15402 0.9,
0.717757 1.15025 0.9,
0.544079 1.14286 1.1,
0.504322 1.15402 1.1,
0.518969 1.15402 1.1,
0.544079 1.15025 1.1,
0.587464 1.14286 1.1,
0.592345 1.14286 1.1,
0.597786 1.18764 1.1,
0.711293 1.00562 1.1,
0.723073 1.00147 1.1,
0.72813 1.01594 1.1,
0.734911 1.01025 1.1,
0.641869 1.14286 1.1,
0.641869 1.15025 1.1,
0.666978 1.15402 1.1,
0.717757 1.14286 1.1,
0.693762 1.15402 1.1,
0.717757 1.15025 1.1,
0.751206 0.912736 0.9,
0.751361 0.918703 0.9,
0.759944 0.919236 0.9,
0.770173 0.913957 0.9,
0.768023 0.920834 0.9,
0.775037 0.923324 0.9,
0.780423 0.92653 0.9,
0.787863 0.917618 0.9,
0.802673 0.914286 0.9,
0.802673 0.918393 0.9,
0.78329 0.942031 0.9,
0.788328 0.942031 0.9,
0.781663 0.992715 0.9,
0.786778 0.992715 0.9,
0.814995 0.920486 0.9,
0.829953 0.920486 0.9,
0.829953 0.936037 0.9,
0.846461 0.914286 0.9,
0.846461 0.918393 0.9,
0.814995 0.951021 0.9,
0.829953 0.95505 0.9,
0.829953 0.962026 0.9,
0.841655 0.95505 0.9,
0.838013 0.962026 0.9,
0.857611 0.957123 0.9,
0.849395 0.963518 0.9,
0.857349 0.967993 0.9,
0.869361 0.963343 0.9,
0.862028 0.97584 0.9,
0.863587 0.987446 0.9,
0.862095 0.998412 0.9,
0.889943 0.914286 0.9,
0.889943 0.918393 0.9,
0.903273 0.920486 0.9,
0.91141 0.920486 0.9,
0.92536 0.914286 0.9,
0.92536 0.918393 0.9,
0.876598 0.973554 0.9,
0.87901 0.987601 0.9,
0.975503 0.914286 0.9,
0.983021 0.914286 0.9,
0.974882 0.941256 0.9,
0.751206 0.912736 1.1,
0.751361 0.918703 1.1,
0.759944 0.919236 1.1,
0.770173 0.913957 1.1,
0.768023 0.920834 1.1,
0.775037 0.923324 1.1,
0.780423 0.92653 1.1,
0.787863 0.917618 1.1,
0.802673 0.914286 1.1,
0.802673 0.918393 1.1,
0.78329 0.942031 1.1,
0.788328 0.942031 1.1,
0.781663 0.992715 1.1,
0.786778 0.992715 1.1,
0.814995 0.920486 1.1,
0.829953 0.920486 1.1,
0.846461 0.914286 1.1,
0.846461 0.918393 1.1,
0.829953 0.95505 1.1,
0.829953 0.962026 1.1,
0.841655 0.95505 1.1,
0.838013 0.962026 1.1,
0.857611 0.957123 1.1,
0.849395 0.963518 1.1,
0.857349 0.967993 1.1,
0.869361 0.963343 1.1,
0.862028 0.97584 1.1,
0.863587 0.987446 1.1,
0.862095 0.998412 1.1,
0.889943 0.914286 1.1,
0.889943 0.918393 1.1,
0.903273 0.920486 1.1,
0.91141 0.920486 1.1,
0.92536 0.914286 1.1,
0.92536 0.918393 1.1,
0.876598 0.973554 1.1,
0.87901 0.987601 1.1,
0.975503 0.914286 1.1,
0.983021 0.914286 1.1,
0.974882 0.941256 1.1,
0.752136 1.01318 0.9,
0.751515 1.01938 0.9,
0.759508 1.01272 0.9,
0.766744 1.01135 0.9,
0.779338 1.0062 0.9,
0.773477 1.00916 0.9,
0.768314 1.01839 0.9,
0.786313 1.01542 0.9,
0.801665 1.01411 0.9,
0.801665 1.01821 0.9,
0.814995 1.01209 0.9,
0.829953 1.01124 0.9,
0.837547 1.01124 0.9,
0.84088 1.01821 0.9,
0.849618 1.00986 0.9,
0.857619 1.00573 0.9,
0.869478 1.01056 0.9,
0.807617 1.14286 0.9,
0.807617 1.15025 0.9,
0.829797 1.15402 0.9,
0.856721 1.15402 0.9,
0.889943 1.01411 0.9,
0.889943 1.01821 0.9,
0.903273 1.01209 0.9,
0.91141 1.00775 0.9,
0.921408 1.01821 0.9,
0.960933 1.01411 0.9,
0.960933 1.01821 0.9,
0.974882 1.01209 0.9,
0.983021 1.01209 0.9,
0.996351 1.01411 0.9,
0.996351 1.01821 0.9,
0.886434 1.14286 0.9,
0.886434 1.15025 0.9,
0.966795 1.14286 0.9,
0.966795 1.15025 0.9,
0.990789 1.15402 0.9,
0.752136 1.01318 1.1,
0.751515 1.01938 1.1,
0.759508 1.01272 1.1,
0.766744 1.01135 1.1,
0.779338 1.0062 1.1,
0.773477 1.00916 1.1,
0.768314 1.01839 1.1,
0.786313 1.01542 1.1,
0.801665 1.01411 1.1,
0.801665 1.01821 1.1,
0.814995 1.01209 1.1,
0.829953 1.01124 1.1,
0.837547 1.01124 1.1,
0.84088 1.01821 1.1,
0.849618 1.00986 1.1,
0.857619 1.00573 1.1,
0.869478 1.01056 1.1,
0.807617 1.14286 1.1,
0.807617 1.15025 1.1,
0.829797 1.15402 1.1,
0.856721 1.15402 1.1,
0.889943 1.01411 1.1,
0.889943 1.01821 1.1,
0.903273 1.01209 1.1,
0.91141 1.00775 1.1,
0.921408 1.01821 1.1,
0.960933 1.01411 1.1,
0.960933 1.01821 1.1,
0.974882 1.01209 1.1,
0.983021 1.01209 1.1,
0.996351 1.01411 1.1,
0.996351 1.01821 1.1,
0.886434 1.14286 1.1,
0.886434 1.15025 1.1,
0.966795 1.14286 1.1,
0.966795 1.15025 1.1,
0.990789 1.15402 1.1,
0.504322 1.31891 0.9,
0.518969 1.3037 0.9,
0.536965 1.32993 0.9,
0.514114 1.39831 0.9,
0.666978 1.3037 0.9,
0.664189 1.32993 0.9,
0.693762 1.31891 0.9,
0.717757 1.32253 0.9,
0.717757 1.32993 0.9,
0.504322 1.31891 1.1,
0.518969 1.3037 1.1,
0.536965 1.32993 1.1,
0.514114 1.39831 1.1,
0.666978 1.3037 1.1,
0.664189 1.32993 1.1,
0.693762 1.31891 1.1,
0.717757 1.32253 1.1,
0.717757 1.32993 1.1,
0.519129 1.42491 0.9,
0.514041 1.45222 0.9,
0.519129 1.42491 1.1,
0.514041 1.45222 1.1,
0.856721 1.21623 0.9,
0.856721 1.22879 0.9,
0.871228 1.22879 0.9,
0.805803 1.32253 0.9,
0.805803 1.32993 0.9,
0.829797 1.31891 0.9,
0.856721 1.31737 0.9,
0.870391 1.31737 0.9,
0.877784 1.21623 0.9,
0.891717 1.23148 0.9,
0.906033 1.23953 0.9,
0.906504 1.21997 0.9,
0.927655 1.23116 0.9,
0.914455 1.25366 0.9,
0.917263 1.27455 0.9,
0.914577 1.29428 0.9,
0.940682 1.24954 0.9,
0.945024 1.27482 0.9,
0.892118 1.31489 0.9,
0.876389 1.32993 0.9,
0.90652 1.30747 0.9,
0.927865 1.31615 0.9,
0.966795 1.32253 0.9,
0.966795 1.32993 0.9,
0.990789 1.31891 0.9,
0.856721 1.21623 1.1,
0.856721 1.22879 1.1,
0.871228 1.22879 1.1,
0.805803 1.32253 1.1,
0.805803 1.32993 1.1,
0.829797 1.31891 1.1,
0.856721 1.31737 1.1,
0.870391 1.31737 1.1,
0.877784 1.21623 1.1,
0.891717 1.23148 1.1,
0.906033 1.23953 1.1,
0.906504 1.21997 1.1,
0.927655 1.23116 1.1,
0.914455 1.25366 1.1,
0.917263 1.27455 1.1,
0.914577 1.29428 1.1,
0.940682 1.24954 1.1,
0.945024 1.27482 1.1,
0.892118 1.31489 1.1,
0.876389 1.32993 1.1,
0.90652 1.30747 1.1,
0.927865 1.31615 1.1,
0.966795 1.32253 1.1,
0.966795 1.32993 1.1,
0.990789 1.31891 1.1,
2 0 0,
1.04506 0.226169 0.9,
1.04917 0.226169 0.9,
1.01809 0.297779 0.9,
1.05041 0.253139 0.9,
1.09707 0.228571 0.9,
1.09707 0.232679 0.9,
1.11041 0.234771 0.9,
1.11854 0.234771 0.9,
1.01995 0.325214 0.9,
1.02344 0.325214 0.9,
1.05777 0.328392 0.9,
1.05777 0.332499 0.9,
1.07397 0.326376 0.9,
1.08311 0.326376 0.9,
1.09218 0.328392 0.9,
1.09218 0.332499 0.9,
1.11854 0.322037 0.9,
1.09707 0.328392 0.9,
1.09707 0.332499 0.9,
1.11041 0.326376 0.9,
1.13249 0.228571 0.9,
1.13249 0.232679 0.9,
1.18263 0.228571 0.9,
1.18201 0.255542 0.9,
1.19015 0.228571 0.9,
1.2117 0.228571 0.9,
1.2117 0.232679 0.9,
1.22503 0.234771 0.9,
1.23317 0.234771 0.9,
1.24712 0.228571 0.9,
1.24712 0.232679 0.9,
1.12854 0.332499 0.9,
1.16806 0.328392 0.9,
1.16806 0.332499 0.9,
1.18201 0.326376 0.9,
1.19015 0.326376 0.9,
1.20348 0.328392 0.9,
1.20348 0.332499 0.9,
1.2117 0.328392 0.9,
1.2117 0.332499 0.9,
1.23317 0.322037 0.9,
1.22503 0.326376 0.9,
1.24317 0.332499 0.9,
1.04506 0.226169 1.1,
1.04917 0.226169 1.1,
1.01809 0.297779 1.1,
1.05041 0.253139 1.1,
1.09707 0.228571 1.1,
1.09707 0.232679 1.1,
1.11041 0.234771 1.1,
1.11854 0.234771 1.1,
1.01995 0.325214 1.1,
1.02344 0.325214 1.1,
1.05777 0.328392 1.1,
1.05777 0.332499 1.1,
1.07397 0.326376 1.1,
1.08311 0.326376 1.1,
1.09218 0.328392 1.1,
1.09218 0.332499 1.1,
1.11854 0.322037 1.1,
1.09707 0.328392 1.1,
1.09707 0.332499 1.1,
1.11041 0.326376 1.1,
1.13249 0.228571 1.1,
1.13249 0.232679 1.1,
1.18263 0.228571 1.1,
1.18201 0.255542 1.1,
1.19015 0.228571 1.1,
1.2117 0.228571 1.1,
1.2117 0.232679 1.1,
1.22503 0.234771 1.1,
1.23317 0.234771 1.1,
1.24712 0.228571 1.1,
1.24712 0.232679 1.1,
1.12854 0.332499 1.1,
1.16806 0.328392 1.1,
1.16806 0.332499 1.1,
1.18201 0.326376 1.1,
1.19015 0.326376 1.1,
1.20348 0.328392 1.1,
1.20348 0.332499 1.1,
1.2117 0.328392 1.1,
1.2117 0.332499 1.1,
1.23317 0.322037 1.1,
1.22503 0.326376 1.1,
1.24317 0.332499 1.1,
1.29726 0.228571 0.9,
1.30478 0.228571 0.9,
1.29664 0.255542 0.9,
1.32633 0.228571 0.9,
1.32633 0.232679 0.9,
1.33966 0.234771 0.9,
1.3478 0.234771 0.9,
1.36175 0.228571 0.9,
1.36175 0.232679 0.9,
1.28269 0.328392 0.9,
1.28269 0.332499 0.9,
1.29664 0.326376 0.9,
1.30478 0.326376 0.9,
1.31811 0.328392 0.9,
1.31811 0.332499 0.9,
1.32633 0.328392 0.9,
1.32633 0.332499 0.9,
1.33966 0.326376 0.9,
1.3478 0.322037 0.9,
1.3578 0.332499 0.9,
1.41189 0.228571 0.9,
1.41941 0.228571 0.9,
1.41127 0.255542 0.9,
1.39732 0.328392 0.9,
1.39732 0.332499 0.9,
1.41127 0.326376 0.9,
1.41941 0.326376 0.9,
1.43274 0.328392 0.9,
1.43274 0.332499 0.9,
1.29726 0.228571 1.1,
1.30478 0.228571 1.1,
1.29664 0.255542 1.1,
1.32633 0.228571 1.1,
1.32633 0.232679 1.1,
1.33966 0.234771 1.1,
1.3478 0.234771 1.1,
1.36175 0.228571 1.1,
1.36175 0.232679 1.1,
1.28269 0.328392 1.1,
1.28269 0.332499 1.1,
1.29664 0.326376 1.1,
1.30478 0.326376 1.1,
1.31811 0.328392 1.1,
1.31811 0.332499 1.1,
1.32633 0.328392 1.1,
1.32633 0.332499 1.1,
1.33966 0.326376 1.1,
1.3478 0.322037 1.1,
1.3578 0.332499 1.1,
1.41189 0.228571 1.1,
1.41941 0.228571 1.1,
1.41127 0.255542 1.1,
1.39732 0.328392 1.1,
1.39732 0.332499 1.1,
1.41127 0.326376 1.1,
1.41941 0.326376 1.1,
1.43274 0.328392 1.1,
1.43274 0.332499 1.1,
1.01457 0.457143 0.9,
1.02821 0.463343 0.9,
1.03944 0.457143 0.9,
1.03944 0.46125 0.9,
1.04425 0.457143 0.9,
1.04425 0.46125 0.9,
1.05759 0.463343 0.9,
1.06572 0.463343 0.9,
1.07967 0.457143 0.9,
1.07967 0.46125 0.9,
1.10377 0.457143 0.9,
1.10649 0.457143 0.9,
1.10951 0.482021 0.9,
1.00007 0.504883 0.9,
1.00899 0.508981 0.9,
1.00011 0.514841 0.9,
1.0045 0.521768 0.9,
1.01573 0.515384 0.9,
1.01997 0.523648 0.9,
1.00596 0.53224 0.9,
1.00452 0.542383 0.9,
1.00019 0.549096 0.9,
1.02139 0.533326 0.9,
1.01906 0.545899 0.9,
1.00023 0.559424 0.9,
1.01208 0.554482 0.9,
1.04425 0.556963 0.9,
1.04425 0.561071 0.9,
1.05759 0.554947 0.9,
1.06572 0.546501 0.9,
1.07572 0.561071 0.9,
1.134 0.457143 0.9,
1.134 0.46125 0.9,
1.14795 0.463343 0.9,
1.16283 0.463343 0.9,
1.17616 0.457143 0.9,
1.17616 0.46125 0.9,
1.14795 0.546501 0.9,
1.1464 0.561071 0.9,
1.16283 0.554947 0.9,
1.17616 0.556963 0.9,
1.17616 0.561071 0.9,
1.01457 0.457143 1.1,
1.02821 0.463343 1.1,
1.03944 0.457143 1.1,
1.03944 0.46125 1.1,
1.04425 0.457143 1.1,
1.04425 0.46125 1.1,
1.05759 0.463343 1.1,
1.06572 0.463343 1.1,
1.07967 0.457143 1.1,
1.07967 0.46125 1.1,
1.10377 0.457143 1.1,
1.10649 0.457143 1.1,
1.10951 0.482021 1.1,
1.00007 0.504883 1.1,
1.00899 0.508981 1.1,
1.00011 0.514841 1.1,
1.0045 0.521768 1.1,
1.01573 0.515384 1.1,
1.01997 0.523648 1.1,
1.00596 0.53224 1.1,
1.00452 0.542383 1.1,
1.00019 0.549096 1.1,
1.02139 0.533326 1.1,
1.01906 0.545899 1.1,
1.00023 0.559424 1.1,
1.01208 0.554482 1.1,
1.04425 0.556963 1.1,
1.04425 0.561071 1.1,
1.05759 0.554947 1.1,
1.06572 0.546501 1.1,
1.07572 0.561071 1.1,
1.134 0.457143 1.1,
1.134 0.46125 1.1,
1.14795 0.463343 1.1,
1.16283 0.463343 1.1,
1.17616 0.457143 1.1,
1.17616 0.46125 1.1,
1.14795 0.546501 1.1,
1.1464 0.561071 1.1,
1.16283 0.554947 1.1,
1.17616 0.556963 1.1,
1.17616 0.561071 1.1,
1.02061 0.69792 0.9,
1.03751 0.687603 0.9,
1.04403 0.693115 0.9,
1.05999 0.684165 0.9,
1.06014 0.690131 0.9,
1.06872 0.690664 0.9,
1.0768 0.692263 0.9,
1.07895 0.685385 0.9,
1.08382 0.694753 0.9,
1.0892 0.697959 0.9,
1.09664 0.689047 0.9,
1.11145 0.685714 0.9,
1.11145 0.689822 0.9,
1.12377 0.691914 0.9,
1.01004 0.714437 0.9,
1.0251 0.716676 0.9,
1.00651 0.736477 0.9,
1.02271 0.736632 0.9,
1.03228 0.702066 0.9,
1.0099 0.760027 0.9,
1.02499 0.757983 0.9,
1.02007 0.777048 0.9,
1.03185 0.772902 0.9,
1.03691 0.787365 0.9,
1.04369 0.781679 0.9,
1.06092 0.784605 0.9,
1.06029 0.790805 0.9,
1.09207 0.713459 0.9,
1.09711 0.713459 0.9,
1.12377 0.722449 0.9,
1.09044 0.764144 0.9,
1.06829 0.784149 0.9,
1.07552 0.782783 0.9,
1.07709 0.789816 0.9,
1.08226 0.780584 0.9,
1.08812 0.77763 0.9,
1.09556 0.764144 0.9,
1.09509 0.786851 0.9,
1.11044 0.785535 0.9,
1.12377 0.783519 0.9,
1.11044 0.789642 0.9,
1.13873 0.691914 0.9,
1.15524 0.685714 0.9,
1.15524 0.689822 0.9,
1.19872 0.685714 0.9,
1.19872 0.689822 0.9,
1.21205 0.691914 0.9,
1.23414 0.685714 0.9,
1.22019 0.691914 0.9,
1.23414 0.689822 0.9,
1.13873 0.726479 0.9,
1.13873 0.733455 0.9,
1.14679 0.733455 0.9,
1.15043 0.726479 0.9,
1.15817 0.734947 0.9,
1.16639 0.728552 0.9,
1.16613 0.739422 0.9,
1.17081 0.747269 0.9,
1.17814 0.734771 0.9,
1.18538 0.744982 0.9,
1.13873 0.782666 0.9,
1.14633 0.782666 0.9,
1.14966 0.789642 0.9,
1.17087 0.76984 0.9,
1.17237 0.758874 0.9,
1.1584 0.781291 0.9,
1.1664 0.777163 0.9,
1.17826 0.781989 0.9,
1.18779 0.75903 0.9,
1.19872 0.785535 0.9,
1.19872 0.789642 0.9,
1.21205 0.783519 0.9,
1.22019 0.779179 0.9,
1.23019 0.789642 0.9,
1.02061 0.69792 1.1,
1.03751 0.687603 1.1,
1.04403 0.693115 1.1,
1.05999 0.684165 1.1,
1.06014 0.690131 1.1,
1.06872 0.690664 1.1,
1.0768 0.692263 1.1,
1.07895 0.685385 1.1,
1.08382 0.694753 1.1,
1.0892 0.697959 1.1,
1.09664 0.689047 1.1,
1.11145 0.685714 1.1,
1.11145 0.689822 1.1,
1.12377 0.691914 1.1,
1.01004 0.714437 1.1,
1.0251 0.716676 1.1,
1.00651 0.736477 1.1,
1.02271 0.736632 1.1,
1.03228 0.702066 1.1,
1.0099 0.760027 1.1,
1.02499 0.757983 1.1,
1.02007 0.777048 1.1,
1.03185 0.772902 1.1,
1.03691 0.787365 1.1,
1.04369 0.781679 1.1,
1.06092 0.784605 1.1,
1.06029 0.790805 1.1,
1.09207 0.713459 1.1,
1.09711 0.713459 1.1,
1.09044 0.764144 1.1,
1.06829 0.784149 1.1,
1.07552 0.782783 1.1,
1.07709 0.789816 1.1,
1.08226 0.780584 1.1,
1.08812 0.77763 1.1,
1.09556 0.764144 1.1,
1.09509 0.786851 1.1,
1.11044 0.785535 1.1,
1.12377 0.783519 1.1,
1.11044 0.789642 1.1,
1.13873 0.691914 1.1,
1.15524 0.685714 1.1,
1.15524 0.689822 1.1,
1.19872 0.685714 1.1,
1.19872 0.689822 1.1,
1.21205 0.691914 1.1,
1.23414 0.685714 1.1,
1.22019 0.691914 1.1,
1.23414 0.689822 1.1,
1.13873 0.726479 1.1,
1.13873 0.733455 1.1,
1.14679 0.733455 1.1,
1.15043 0.726479 1.1,
1.15817 0.734947 1.1,
1.16639 0.728552 1.1,
1.16613 0.739422 1.1,
1.17081 0.747269 1.1,
1.17814 0.734771 1.1,
1.18538 0.744982 1.1,
1.13873 0.782666 1.1,
1.14633 0.782666 1.1,
1.14966 0.789642 1.1,
1.17087 0.76984 1.1,
1.17237 0.758874 1.1,
1.1584 0.781291 1.1,
1.1664 0.777163 1.1,
1.17826 0.781989 1.1,
1.18779 0.75903 1.1,
1.19872 0.785535 1.1,
1.19872 0.789642 1.1,
1.21205 0.783519 1.1,
1.22019 0.779179 1.1,
1.23019 0.789642 1.1,
1.28428 0.685714 0.9,
1.2918 0.685714 0.9,
1.28366 0.712685 0.9,
1.26971 0.785535 0.9,
1.26971 0.789642 0.9,
1.28366 0.783519 0.9,
1.2918 0.783519 0.9,
1.30513 0.785535 0.9,
1.30513 0.789642 0.9,
1.28428 0.685714 1.1,
1.2918 0.685714 1.1,
1.28366 0.712685 1.1,
1.26971 0.785535 1.1,
1.26971 0.789642 1.1,
1.28366 0.783519 1.1,
1.2918 0.783519 1.1,
1.30513 0.785535 1.1,
1.30513 0.789642 1.1,
2 0 0.9,
2 1.6 0,
1.01004 0.943009 0.9,
1.02061 0.926491 0.9,
1.0251 0.945247 0.9,
1.03751 0.916175 0.9,
1.04403 0.921687 0.9,
1.05999 0.912736 0.9,
1.06014 0.918703 0.9,
1.03228 0.930638 0.9,
1.00651 0.965048 0.9,
1.02271 0.965203 0.9,
1.0099 0.988598 0.9,
1.02499 0.986554 0.9,
1.06872 0.919236 0.9,
1.0768 0.920834 0.9,
1.07895 0.913957 0.9,
1.08382 0.923324 0.9,
1.0892 0.92653 0.9,
1.09207 0.942031 0.9,
1.09664 0.917618 0.9,
1.11145 0.914286 0.9,
1.11145 0.918393 0.9,
1.12377 0.920486 0.9,
1.09711 0.942031 0.9,
1.09044 0.992715 0.9,
1.09556 0.992715 0.9,
1.13873 0.920486 0.9,
1.15524 0.914286 0.9,
1.15524 0.918393 0.9,
1.13873 0.95505 0.9,
1.13873 0.962026 0.9,
1.14679 0.962026 0.9,
1.15043 0.95505 0.9,
1.16639 0.957123 0.9,
1.15817 0.963518 0.9,
1.16613 0.967993 0.9,
1.17814 0.963343 0.9,
1.18538 0.973554 0.9,
1.17081 0.97584 0.9,
1.17087 0.998412 0.9,
1.17237 0.987446 0.9,
1.19872 0.914286 0.9,
1.19872 0.918393 0.9,
1.21205 0.920486 0.9,
1.22019 0.920486 0.9,
1.23414 0.914286 0.9,
1.23414 0.918393 0.9,
1.18779 0.987601 0.9,
1.01004 0.943009 1.1,
1.02061 0.926491 1.1,
1.0251 0.945247 1.1,
1.03751 0.916175 1.1,
1.04403 0.921687 1.1,
1.05999 0.912736 1.1,
1.06014 0.918703 1.1,
1.03228 0.930638 1.1,
1.00651 0.965048 1.1,
1.02271 0.965203 1.1,
1.0099 0.988598 1.1,
1.02499 0.986554 1.1,
1.06872 0.919236 1.1,
1.0768 0.920834 1.1,
1.07895 0.913957 1.1,
1.08382 0.923324 1.1,
1.0892 0.92653 1.1,
1.09207 0.942031 1.1,
1.09664 0.917618 1.1,
1.11145 0.914286 1.1,
1.11145 0.918393 1.1,
1.12377 0.920486 1.1,
1.09711 0.942031 1.1,
1.09044 0.992715 1.1,
1.09556 0.992715 1.1,
1.13873 0.920486 1.1,
1.15524 0.914286 1.1,
1.15524 0.918393 1.1,
1.13873 0.95505 1.1,
1.13873 0.962026 1.1,
1.14679 0.962026 1.1,
1.15043 0.95505 1.1,
1.16639 0.957123 1.1,
1.15817 0.963518 1.1,
1.16613 0.967993 1.1,
1.17814 0.963343 1.1,
1.18538 0.973554 1.1,
1.17081 0.97584 1.1,
1.17087 0.998412 1.1,
1.17237 0.987446 1.1,
1.19872 0.914286 1.1,
1.19872 0.918393 1.1,
1.21205 0.920486 1.1,
1.22019 0.920486 1.1,
1.23414 0.914286 1.1,
1.23414 0.918393 1.1,
1.18779 0.987601 1.1,
1.02007 1.00562 0.9,
1.03185 1.00147 0.9,
1.04369 1.01025 0.9,
1.03691 1.01594 0.9,
1.06092 1.01318 0.9,
1.06029 1.01938 0.9,
1.07552 1.01135 0.9,
1.06829 1.01272 0.9,
1.07709 1.01839 0.9,
1.08226 1.00916 0.9,
1.08812 1.0062 0.9,
1.09509 1.01542 0.9,
1.12377 1.01209 0.9,
1.11044 1.01411 0.9,
1.11044 1.01821 0.9,
1.04157 1.14286 0.9,
1.01757 1.15402 0.9,
1.04157 1.15025 0.9,
1.11913 1.14626 0.9,
1.08872 1.16483 0.9,
1.06968 1.19456 0.9,
1.10972 1.17229 0.9,
1.0968 1.19859 0.9,
1.13873 1.01124 0.9,
1.14633 1.01124 0.9,
1.14966 1.01821 0.9,
1.1584 1.00986 0.9,
1.1664 1.00573 0.9,
1.17826 1.01056 0.9,
1.19872 1.01411 0.9,
1.19872 1.01821 0.9,
1.21205 1.01209 0.9,
1.22019 1.00775 0.9,
1.23019 1.01821 0.9,
1.15959 1.14007 0.9,
1.13087 1.15618 0.9,
1.15987 1.15081 0.9,
1.17532 1.15177 0.9,
1.19373 1.14226 0.9,
1.22557 1.14886 0.9,
1.18986 1.15464 0.9,
1.20249 1.15913 0.9,
1.21218 1.1649 0.9,
1.21734 1.1928 0.9,
1.22641 1.1928 0.9,
1.02007 1.00562 1.1,
1.03185 1.00147 1.1,
1.04369 1.01025 1.1,
1.03691 1.01594 1.1,
1.06092 1.01318 1.1,
1.06029 1.01938 1.1,
1.07552 1.01135 1.1,
1.06829 1.01272 1.1,
1.07709 1.01839 1.1,
1.08226 1.00916 1.1,
1.08812 1.0062 1.1,
1.09509 1.01542 1.1,
1.12377 1.01209 1.1,
1.11044 1.01411 1.1,
1.11044 1.01821 1.1,
1.04157 1.14286 1.1,
1.01757 1.15402 1.1,
1.04157 1.15025 1.1,
1.11913 1.14626 1.1,
1.08872 1.16483 1.1,
1.06968 1.19456 1.1,
1.10972 1.17229 1.1,
1.0968 1.19859 1.1,
1.13873 1.01124 1.1,
1.14633 1.01124 1.1,
1.14966 1.01821 1.1,
1.1584 1.00986 1.1,
1.1664 1.00573 1.1,
1.17826 1.01056 1.1,
1.19872 1.01411 1.1,
1.19872 1.01821 1.1,
1.21205 1.01209 1.1,
1.22019 1.00775 1.1,
1.23019 1.01821 1.1,
1.15959 1.14007 1.1,
1.13087 1.15618 1.1,
1.15987 1.15081 1.1,
1.17532 1.15177 1.1,
1.19373 1.14226 1.1,
1.22557 1.14886 1.1,
1.18986 1.15464 1.1,
1.20249 1.15913 1.1,
1.21218 1.1649 1.1,
1.21734 1.1928 1.1,
1.22641 1.1928 1.1,
1.28428 0.914286 0.9,
1.2918 0.914286 0.9,
1.28366 0.941256 0.9,
1.28428 0.914286 1.1,
1.2918 0.914286 1.1,
1.28366 0.941256 1.1,
1.26971 1.01411 0.9,
1.26971 1.01821 0.9,
1.28366 1.01209 0.9,
1.2918 1.01209 0.9,
1.30513 1.01411 0.9,
1.30513 1.01821 0.9,
1.25739 1.14607 0.9,
1.2818 1.14157 0.9,
1.30761 1.14007 0.9,
1.27134 1.15918 0.9,
1.27792 1.15632 0.9,
1.25586 1.18541 0.9,
1.26506 1.18541 0.9,
1.28676 1.15388 0.9,
1.2964 1.1522 0.9,
1.30538 1.15165 0.9,
1.33569 1.14362 0.9,
1.32442 1.15416 0.9,
1.33774 1.16169 0.9,
1.35658 1.1543 0.9,
1.36955 1.17128 0.9,
1.34559 1.17508 0.9,
1.34821 1.19517 0.9,
1.37387 1.19378 0.9,
1.3976 1.14286 0.9,
1.3976 1.16336 0.9,
1.41588 1.16434 0.9,
1.42944 1.17651 0.9,
1.42355 1.18694 0.9,
1.44224 1.18764 0.9,
1.26971 1.01411 1.1,
1.26971 1.01821 1.1,
1.28366 1.01209 1.1,
1.2918 1.01209 1.1,
1.30513 1.01411 1.1,
1.30513 1.01821 1.1,
1.25739 1.14607 1.1,
1.2818 1.14157 1.1,
1.30761 1.14007 1.1,
1.27134 1.15918 1.1,
1.27792 1.15632 1.1,
1.25586 1.18541 1.1,
1.26506 1.18541 1.1,
1.28676 1.15388 1.1,
1.2964 1.1522 1.1,
1.30538 1.15165 1.1,
1.33569 1.14362 1.1,
1.32442 1.15416 1.1,
1.33774 1.16169 1.1,
1.35658 1.1543 1.1,
1.36955 1.17128 1.1,
1.34559 1.17508 1.1,
1.34821 1.19517 1.1,
1.37387 1.19378 1.1,
1.3976 1.14286 1.1,
1.3976 1.16336 1.1,
1.41588 1.16434 1.1,
1.42944 1.17651 1.1,
1.42355 1.18694 1.1,
1.44224 1.18764 1.1,
1.06333 1.23423 0.9,
1.09249 1.23451 0.9,
1.06944 1.27662 0.9,
1.09661 1.27294 0.9,
1.10895 1.29979 0.9,
1.01757 1.31891 0.9,
1.04157 1.32253 0.9,
1.04157 1.32993 0.9,
1.08775 1.30726 0.9,
1.11805 1.32583 0.9,
1.21441 1.28403 0.9,
1.22362 1.28403 0.9,
1.13026 1.31559 0.9,
1.16126 1.32086 0.9,
1.17453 1.32004 0.9,
1.16015 1.33202 0.9,
1.18756 1.31758 0.9,
1.19968 1.31362 0.9,
1.21023 1.3083 0.9,
1.19038 1.33024 0.9,
1.22278 1.3249 0.9,
1.06333 1.23423 1.1,
1.09249 1.23451 1.1,
1.06944 1.27662 1.1,
1.09661 1.27294 1.1,
1.10895 1.29979 1.1,
1.01757 1.31891 1.1,
1.04157 1.32253 1.1,
1.04157 1.32993 1.1,
1.08775 1.30726 1.1,
1.11805 1.32583 1.1,
1.21441 1.28403 1.1,
1.22362 1.28403 1.1,
1.13026 1.31559 1.1,
1.16126 1.32086 1.1,
1.17453 1.32004 1.1,
1.16015 1.33202 1.1,
1.18756 1.31758 1.1,
1.19968 1.31362 1.1,
1.21023 1.3083 1.1,
1.19038 1.33024 1.1,
1.22278 1.3249 1.1,
1.28878 1.23479 0.9,
1.28878 1.24623 0.9,
1.30873 1.23367 0.9,
1.30873 1.24748 0.9,
1.26158 1.29003 0.9,
1.27078 1.29003 0.9,
1.33858 1.22314 0.9,
1.3263 1.23055 0.9,
1.32449 1.24079 0.9,
1.34181 1.24576 0.9,
1.3458 1.21137 0.9,
1.37088 1.21228 0.9,
1.34653 1.23568 0.9,
1.36188 1.22621 0.9,
1.32243 1.25034 0.9,
1.33202 1.25725 0.9,
1.33767 1.26848 0.9,
1.33956 1.28431 0.9,
1.35469 1.25508 0.9,
1.3627 1.26856 0.9,
1.36536 1.28598 0.9,
1.27567 1.31291 0.9,
1.26158 1.32602 0.9,
1.27444 1.32904 0.9,
1.28229 1.31592 0.9,
1.2899 1.31828 0.9,
1.29781 1.3198 0.9,
1.30538 1.3203 0.9,
1.28543 1.33083 0.9,
1.29544 1.33172 0.9,
1.30538 1.33202 0.9,
1.32081 1.31816 0.9,
1.3314 1.31172 0.9,
1.33752 1.30058 0.9,
1.35037 1.32051 0.9,
1.40388 1.29003 0.9,
1.41308 1.29003 0.9,
1.4452 1.20675 0.9,
1.46714 1.20959 0.9,
1.46024 1.22237 0.9,
1.4703 1.23611 0.9,
1.48381 1.22607 0.9,
1.49474 1.23984 0.9,
1.47704 1.25027 0.9,
1.48086 1.26569 0.9,
1.48214 1.28319 0.9,
1.48008 1.29917 0.9,
1.40388 1.32602 0.9,
1.41797 1.31291 0.9,
1.42442 1.31592 0.9,
1.43178 1.31828 0.9,
1.42735 1.33052 0.9,
1.43948 1.3198 0.9,
1.44698 1.3203 0.9,
1.46306 1.31793 0.9,
1.44698 1.33202 0.9,
1.47391 1.31081 0.9,
1.49309 1.31926 0.9,
1.47385 1.32883 0.9,
1.28878 1.23479 1.1,
1.28878 1.24623 1.1,
1.30873 1.23367 1.1,
1.30873 1.24748 1.1,
1.26158 1.29003 1.1,
1.27078 1.29003 1.1,
1.33858 1.22314 1.1,
1.3263 1.23055 1.1,
1.32449 1.24079 1.1,
1.34181 1.24576 1.1,
1.3458 1.21137 1.1,
1.37088 1.21228 1.1,
1.34653 1.23568 1.1,
1.36188 1.22621 1.1,
1.32243 1.25034 1.1,
1.33202 1.25725 1.1,
1.33767 1.26848 1.1,
1.33956 1.28431 1.1,
1.35469 1.25508 1.1,
1.3627 1.26856 1.1,
1.36536 1.28598 1.1,
1.27567 1.31291 1.1,
1.26158 1.32602 1.1,
1.27444 1.32904 1.1,
1.28229 1.31592 1.1,
1.2899 1.31828 1.1,
1.29781 1.3198 1.1,
1.30538 1.3203 1.1,
1.28543 1.33083 1.1,
1.29544 1.33172 1.1,
1.30538 1.33202 1.1,
1.32081 1.31816 1.1,
1.3314 1.31172 1.1,
1.33752 1.30058 1.1,
1.35037 1.32051 1.1,
1.40388 1.29003 1.1,
1.41308 1.29003 1.1,
1.4452 1.20675 1.1,
1.46714 1.20959 1.1,
1.46024 1.22237 1.1,
1.4703 1.23611 1.1,
1.48381 1.22607 1.1,
1.49474 1.23984 1.1,
1.47704 1.25027 1.1,
1.48086 1.26569 1.1,
1.48214 1.28319 1.1,
1.48008 1.29917 1.1,
1.40388 1.32602 1.1,
1.41797 1.31291 1.1,
1.42442 1.31592 1.1,
1.43178 1.31828 1.1,
1.42735 1.33052 1.1,
1.43948 1.3198 1.1,
1.44698 1.3203 1.1,
1.46306 1.31793 1.1,
1.44698 1.33202 1.1,
1.47391 1.31081 1.1,
1.49309 1.31926 1.1,
1.47385 1.32883 1.1,
1.51213 1.14286 0.9,
1.51213 1.16434 0.9,
1.51213 1.14286 1.1,
1.51213 1.16434 1.1,
1.50243 1.25369 0.9,
1.50698 1.26801 0.9,
1.5085 1.28319 0.9,
1.50465 1.30386 0.9,
1.50243 1.25369 1.1,
1.50698 1.26801 1.1,
1.5085 1.28319 1.1,
1.50465 1.30386 1.1,
2 1.6 0.9
] }

coordIndex [
1,2,3,-1
1,3,6,-1
1,13,2,-1
1,17,13,-1
1,70,17,-1
1,6,7,-1
1,7,151,-1
0,1,389,-1
1,151,154,-1
1,154,156,-1
1,156,482,-1
1,385,386,-1
1,440,385,-1
1,420,426,-1
1,421,420,-1
1,423,421,-1
1,475,423,-1
1,426,440,-1
0,1097,1,-1
1,72,70,-1
1,73,72,-1
1,90,73,-1
1,91,90,-1
1,93,91,-1
1,94,93,-1
1,704,94,-1
1,705,704,-1
1,708,705,-1
1,724,708,-1
4,5,3,-1
8,6,3,-1
8,3,5,-1
16,10,9,-1
10,25,11,-1
13,21,14,-1
12,14,32,-1
12,32,15,-1
18,13,17,-1
19,13,18,-1
19,21,13,-1
32,14,21,-1
16,26,10,-1
25,10,24,-1
26,24,10,-1
15,32,27,-1
27,32,28,-1
28,31,29,-1
31,28,30,-1
32,30,28,-1
11,175,7,-1
23,34,33,-1
23,78,34,-1
34,77,35,-1
77,34,76,-1
78,76,34,-1
11,25,175,-1
29,175,25,-1
29,31,175,-1
35,175,31,-1
1,726,724,-1
1,728,726,-1
1,729,728,-1
1,733,729,-1
70,72,71,-1
20,71,84,-1
20,84,22,-1
84,71,72,-1
75,73,90,-1
22,80,79,-1
22,82,80,-1
22,84,82,-1
80,83,81,-1
83,80,82,-1
35,77,174,-1
81,174,77,-1
81,83,174,-1
74,86,85,-1
74,88,86,-1
86,88,87,-1
87,174,83,-1
87,88,178,-1
89,178,88,-1
91,100,99,-1
91,101,100,-1
91,104,101,-1
91,93,104,-1
92,96,89,-1
97,89,96,-1
92,98,96,-1
89,97,184,-1
102,184,97,-1
100,103,102,-1
103,100,101,-1
95,106,105,-1
95,712,106,-1
106,712,107,-1
102,103,191,-1
191,103,107,-1
151,7,149,-1
146,7,147,-1
147,7,248,-1
149,7,146,-1
7,183,256,-1
248,7,251,-1
251,7,255,-1
7,256,255,-1
1,478,475,-1
1,482,478,-1
148,271,153,-1
153,271,150,-1
150,271,152,-1
152,271,155,-1
155,271,157,-1
157,271,159,-1
35,174,175,-1
183,7,175,-1
174,87,178,-1
89,184,178,-1
176,183,175,-1
177,179,185,-1
178,185,179,-1
177,185,180,-1
181,197,182,-1
102,189,184,-1
185,178,184,-1
180,185,186,-1
180,186,187,-1
192,189,191,-1
189,192,190,-1
190,206,188,-1
102,191,189,-1
107,195,191,-1
107,848,195,-1
190,192,206,-1
192,193,206,-1
195,848,196,-1
202,196,848,-1
194,196,199,-1
199,196,202,-1
188,204,198,-1
188,206,204,-1
205,198,204,-1
210,200,201,-1
203,863,864,-1
201,203,868,-1
208,207,200,-1
210,208,200,-1
201,869,210,-1
201,868,869,-1
257,255,256,-1
255,257,258,-1
256,183,260,-1
183,294,260,-1
260,295,261,-1
249,271,148,-1
250,272,249,-1
252,272,250,-1
253,272,252,-1
254,272,253,-1
249,272,271,-1
255,258,285,-1
254,262,272,-1
263,274,262,-1
255,285,263,-1
269,267,271,-1
159,271,264,-1
264,271,265,-1
265,271,267,-1
269,268,267,-1
262,274,272,-1
285,274,263,-1
272,274,273,-1
275,273,274,-1
259,261,276,-1
276,261,278,-1
279,280,277,-1
278,261,281,-1
261,295,281,-1
281,295,283,-1
280,282,277,-1
282,284,277,-1
284,289,277,-1
287,286,277,-1
291,287,277,-1
290,292,277,-1
289,290,277,-1
292,291,277,-1
294,183,298,-1
183,300,298,-1
295,260,294,-1
198,944,183,-1
183,301,300,-1
183,933,301,-1
198,205,944,-1
183,935,933,-1
298,300,299,-1
296,283,295,-1
283,296,302,-1
302,296,303,-1
296,306,303,-1
299,307,297,-1
299,300,307,-1
303,304,293,-1
305,293,304,-1
304,303,306,-1
948,301,946,-1
301,948,951,-1
301,951,313,-1
308,309,310,-1
308,310,311,-1
309,312,310,-1
313,951,314,-1
0,389,384,-1
0,384,1098,-1
384,389,1098,-1
1,386,389,-1
389,386,441,-1
389,441,393,-1
441,631,393,-1
393,395,392,-1
395,394,396,-1
393,394,395,-1
633,396,394,-1
389,392,391,-1
389,393,392,-1
389,391,390,-1
389,390,406,-1
389,406,407,-1
389,407,408,-1
389,408,409,-1
389,409,410,-1
389,410,412,-1
158,482,156,-1
424,485,425,-1
422,425,485,-1
494,427,422,-1
494,429,427,-1
443,442,444,-1
440,450,444,-1
443,444,558,-1
443,558,445,-1
428,440,426,-1
448,440,428,-1
450,440,448,-1
558,444,450,-1
563,455,558,-1
558,446,445,-1
453,446,452,-1
558,452,446,-1
446,453,635,-1
558,455,452,-1
456,457,575,-1
266,483,158,-1
270,483,266,-1
273,483,270,-1
273,275,483,-1
158,484,482,-1
158,483,484,-1
288,483,275,-1
293,492,288,-1
293,305,492,-1
288,492,483,-1
476,485,424,-1
477,485,476,-1
479,485,477,-1
480,485,479,-1
481,485,480,-1
494,422,485,-1
494,485,486,-1
494,482,484,-1
494,486,482,-1
494,484,489,-1
494,449,429,-1
494,451,449,-1
451,494,487,-1
487,494,488,-1
494,565,488,-1
494,567,565,-1
491,490,493,-1
491,497,495,-1
491,499,497,-1
491,506,507,-1
491,507,499,-1
499,507,502,-1
498,500,496,-1
569,568,496,-1
571,569,496,-1
500,501,496,-1
501,503,496,-1
503,504,496,-1
504,505,496,-1
572,571,496,-1
505,572,496,-1
308,492,305,-1
308,311,492,-1
493,311,315,-1
492,311,493,-1
491,493,315,-1
491,955,506,-1
491,315,955,-1
506,955,958,-1
506,970,510,-1
508,502,507,-1
511,581,509,-1
511,514,581,-1
502,508,512,-1
512,508,580,-1
512,580,513,-1
510,514,511,-1
1107,515,1099,-1
582,516,583,-1
515,1107,1109,-1
515,1109,587,-1
516,585,583,-1
515,587,586,-1
451,487,557,-1
557,487,559,-1
559,487,560,-1
560,561,562,-1
561,560,487,-1
488,565,564,-1
566,564,565,-1
564,455,563,-1
564,566,455,-1
570,455,566,-1
573,574,570,-1
573,579,574,-1
455,570,457,-1
575,457,574,-1
457,570,574,-1
574,579,589,-1
577,590,653,-1
653,590,661,-1
513,578,573,-1
579,573,578,-1
578,513,580,-1
582,589,579,-1
582,584,589,-1
582,583,584,-1
589,584,588,-1
589,588,1198,-1
589,1206,591,-1
589,592,590,-1
661,590,664,-1
590,592,664,-1
589,591,592,-1
443,445,632,-1
447,636,633,-1
396,633,636,-1
639,396,636,-1
454,635,453,-1
456,638,637,-1
456,658,638,-1
396,639,657,-1
638,657,639,-1
456,575,658,-1
576,658,575,-1
655,662,654,-1
671,660,654,-1
660,659,654,-1
657,638,656,-1
658,656,638,-1
662,663,654,-1
663,666,654,-1
664,592,665,-1
666,667,654,-1
667,668,654,-1
673,671,654,-1
668,673,654,-1
665,592,677,-1
593,677,592,-1
665,677,669,-1
669,677,670,-1
674,676,672,-1
670,675,674,-1
670,677,675,-1
674,675,676,-1
389,412,1521,-1
1521,397,396,-1
1521,412,411,-1
0,703,1097,-1
0,1098,703,-1
703,1098,1097,-1
1,1097,733,-1
706,94,704,-1
709,705,708,-1
705,709,723,-1
705,718,717,-1
705,723,721,-1
705,721,718,-1
710,723,709,-1
725,720,711,-1
707,714,713,-1
707,716,714,-1
715,713,714,-1
107,712,848,-1
713,848,712,-1
713,715,852,-1
718,722,719,-1
722,718,721,-1
719,852,715,-1
856,719,722,-1
735,859,722,-1
724,726,725,-1
720,725,726,-1
730,728,729,-1
728,730,745,-1
728,740,739,-1
728,742,740,-1
728,745,742,-1
731,745,730,-1
734,744,732,-1
737,735,736,-1
727,736,735,-1
727,738,736,-1
879,735,737,-1
741,883,737,-1
740,743,741,-1
743,740,742,-1
741,743,883,-1
883,743,746,-1
884,746,800,-1
733,790,734,-1
744,734,790,-1
791,803,802,-1
794,791,793,-1
791,794,807,-1
795,807,794,-1
791,805,803,-1
791,807,805,-1
798,808,796,-1
808,798,810,-1
792,799,746,-1
800,746,799,-1
792,801,799,-1
804,884,800,-1
803,806,804,-1
806,803,805,-1
797,810,798,-1
811,817,816,-1
812,813,809,-1
814,809,813,-1
812,815,813,-1
848,713,850,-1
713,852,850,-1
861,849,862,-1
853,850,852,-1
850,853,851,-1
851,876,849,-1
876,851,853,-1
854,876,853,-1
719,856,852,-1
856,722,858,-1
858,722,859,-1
735,879,859,-1
856,858,857,-1
857,877,855,-1
877,857,858,-1
880,859,879,-1
203,864,867,-1
867,868,203,-1
862,876,865,-1
865,876,866,-1
866,874,870,-1
870,874,871,-1
849,876,862,-1
874,866,876,-1
871,875,873,-1
871,874,875,-1
873,943,872,-1
860,886,878,-1
879,737,883,-1
859,880,885,-1
881,885,880,-1
884,887,882,-1
883,746,884,-1
887,884,804,-1
887,814,888,-1
888,814,889,-1
209,944,205,-1
183,939,935,-1
183,942,939,-1
183,944,942,-1
872,943,209,-1
873,875,943,-1
946,301,932,-1
932,301,933,-1
878,943,875,-1
944,209,943,-1
878,886,943,-1
936,959,934,-1
937,959,936,-1
938,959,937,-1
947,959,949,-1
950,959,947,-1
934,959,950,-1
952,949,959,-1
953,314,951,-1
314,953,315,-1
955,315,953,-1
961,954,952,-1
954,962,956,-1
940,959,938,-1
941,959,940,-1
952,959,960,-1
961,952,960,-1
961,960,942,-1
961,942,944,-1
961,944,945,-1
961,962,954,-1
967,964,962,-1
956,962,957,-1
957,962,963,-1
963,962,964,-1
964,967,966,-1
962,961,968,-1
961,970,968,-1
961,971,970,-1
968,970,969,-1
943,886,889,-1
977,975,976,-1
973,975,982,-1
982,975,985,-1
984,986,983,-1
986,988,983,-1
985,975,987,-1
987,975,977,-1
987,977,990,-1
988,989,983,-1
989,996,983,-1
993,992,983,-1
997,993,983,-1
998,997,983,-1
996,995,983,-1
995,998,983,-1
978,990,977,-1
990,978,991,-1
991,978,1003,-1
981,1004,980,-1
1004,981,1079,-1
991,1003,1000,-1
1000,1001,999,-1
1001,1000,1003,-1
887,804,806,-1
887,806,809,-1
887,809,814,-1
818,889,814,-1
1097,943,889,-1
1097,974,943,-1
1097,975,974,-1
1097,976,975,-1
1097,979,976,-1
979,1079,981,-1
1081,1082,1005,-1
1081,1084,1082,-1
1083,1005,1082,-1
1080,1086,1085,-1
1097,790,733,-1
1097,791,790,-1
1097,793,791,-1
1097,797,793,-1
1097,810,797,-1
1097,811,810,-1
1097,817,811,-1
1097,889,818,-1
1097,818,817,-1
1097,1079,979,-1
1097,1080,1079,-1
1097,1086,1080,-1
1097,1087,1086,-1
1097,1284,1087,-1
1097,1293,1284,-1
1097,1294,1293,-1
1097,1509,1294,-1
1097,1510,1509,-1
506,958,965,-1
506,965,969,-1
506,969,970,-1
510,970,514,-1
970,515,514,-1
972,1102,515,-1
972,515,970,-1
994,1104,972,-1
972,1104,1102,-1
1002,1113,1104,-1
1002,1117,1113,-1
1100,515,1102,-1
1099,515,1100,-1
1103,1122,1106,-1
1101,1122,1108,-1
1106,1122,1101,-1
1108,1122,1110,-1
1110,1122,1194,-1
1105,1122,1103,-1
1111,1123,1105,-1
1112,1123,1111,-1
1114,1123,1112,-1
1115,1123,1114,-1
1119,1117,1118,-1
1117,1119,1120,-1
1115,1116,1123,-1
1105,1123,1122,-1
1117,1205,1121,-1
1121,1206,1116,-1
1117,1120,1205,-1
1116,1206,1123,-1
1205,1206,1121,-1
999,1104,994,-1
999,1001,1104,-1
1002,1104,1001,-1
1002,1118,1117,-1
1002,1125,1118,-1
1005,1125,1002,-1
1005,1083,1125,-1
1083,1139,1125,-1
1083,1143,1139,-1
1124,1126,1127,-1
1127,1126,1130,-1
1125,1140,1126,-1
1140,1125,1139,-1
1130,1126,1131,-1
1126,1140,1131,-1
1131,1140,1134,-1
1129,1132,1128,-1
1132,1133,1128,-1
1217,1216,1128,-1
1219,1217,1128,-1
1220,1219,1128,-1
1133,1136,1128,-1
1136,1138,1128,-1
1138,1137,1128,-1
1137,1220,1128,-1
1141,1134,1140,-1
1144,1225,1142,-1
1225,1144,1283,-1
1134,1141,1135,-1
1135,1141,1145,-1
1141,1224,1145,-1
1193,587,1109,-1
587,1193,588,-1
1196,588,1193,-1
1198,588,1196,-1
1194,1122,1195,-1
589,1198,1201,-1
589,1201,1204,-1
589,1204,1206,-1
1195,1122,1197,-1
1197,1122,1200,-1
1200,1122,1199,-1
1203,1199,1122,-1
1199,1203,1202,-1
1123,1206,1204,-1
1207,591,1206,-1
591,1207,1208,-1
1208,1212,1210,-1
1210,1349,1209,-1
1210,1213,1349,-1
1208,1207,1211,-1
1213,1210,1212,-1
1212,1208,1211,-1
1218,1295,1207,-1
1145,1222,1221,-1
1222,1145,1224,-1
1223,1221,1222,-1
1221,1295,1218,-1
1221,1223,1295,-1
1226,1295,1223,-1
1211,1207,1227,-1
1227,1207,1231,-1
1231,1207,1232,-1
1229,1359,1228,-1
1230,1360,1229,-1
1295,1232,1207,-1
1233,1360,1230,-1
1234,1360,1233,-1
1232,1295,1300,-1
1232,1300,1237,-1
1301,1237,1300,-1
1087,1283,1083,-1
1083,1283,1143,-1
1087,1284,1283,-1
1143,1283,1144,-1
1285,1289,1226,-1
1285,1291,1289,-1
1284,1293,1292,-1
1290,1226,1289,-1
1295,1226,1290,-1
1294,1296,1290,-1
1294,1297,1296,-1
1295,1290,1296,-1
1298,1299,1302,-1
1298,1303,1301,-1
1237,1301,1311,-1
1298,1302,1303,-1
1304,1301,1303,-1
1306,1301,1304,-1
1307,1301,1306,-1
1401,1237,1311,-1
1297,1294,1305,-1
1305,1294,1308,-1
1294,1313,1308,-1
1310,1301,1307,-1
1311,1301,1310,-1
1308,1314,1309,-1
1313,1294,1509,-1
1314,1308,1313,-1
1309,1314,1317,-1
1309,1317,1312,-1
1428,1312,1317,-1
1315,1510,1316,-1
1510,1318,1316,-1
1318,1510,1429,-1
1429,1510,1432,-1
389,1521,1098,-1
1209,1349,1351,-1
1209,1355,1354,-1
1209,1351,1355,-1
1355,1357,1356,-1
1357,1355,1351,-1
1358,1356,1357,-1
1364,1356,1358,-1
1214,1359,1215,-1
1228,1359,1214,-1
1215,1359,1350,-1
1350,1359,1352,-1
1352,1359,1353,-1
1353,1359,1361,-1
1235,1360,1234,-1
1235,1236,1360,-1
1229,1360,1359,-1
1237,1360,1236,-1
1237,1391,1360,-1
1361,1359,1362,-1
1362,1359,1363,-1
1363,1359,1365,-1
1365,1367,1366,-1
1367,1365,1359,-1
1360,1413,1369,-1
1413,1360,1395,-1
1521,634,397,-1
1521,649,634,-1
1521,650,649,-1
1521,396,657,-1
1521,411,650,-1
1521,657,672,-1
1391,1237,1393,-1
1393,1237,1398,-1
1397,1237,1401,-1
1398,1237,1397,-1
1360,1392,1395,-1
1392,1360,1391,-1
1395,1392,1396,-1
1394,1396,1392,-1
1405,1396,1394,-1
1406,1396,1405,-1
1399,1403,1400,-1
1400,1403,1404,-1
1400,1404,1409,-1
1407,1396,1406,-1
1408,1396,1407,-1
1424,1396,1408,-1
1396,1415,1412,-1
1415,1396,1416,-1
1414,1369,1413,-1
1416,1396,1417,-1
1417,1396,1418,-1
1418,1396,1422,-1
1422,1396,1423,-1
1423,1396,1424,-1
1411,1438,1425,-1
1312,1428,1402,-1
1402,1430,1404,-1
1409,1404,1430,-1
1409,1430,1410,-1
1402,1428,1430,-1
1431,1410,1430,-1
1410,1426,1411,-1
1426,1410,1427,-1
1410,1435,1427,-1
1434,1410,1431,-1
1435,1410,1434,-1
1436,1427,1435,-1
1437,1427,1436,-1
1438,1411,1426,-1
1427,1440,1439,-1
1440,1427,1441,-1
1441,1427,1443,-1
1443,1427,1444,-1
1444,1427,1445,-1
1445,1427,1447,-1
1447,1427,1437,-1
1521,672,676,-1
1521,676,1356,-1
1521,1356,1364,-1
1521,1364,1368,-1
1521,1368,1369,-1
1521,1369,1414,-1
1097,1098,1521,-1
1097,1521,1510,-1
1521,1432,1510,-1
1521,1433,1432,-1
1521,1513,1433,-1
1521,1514,1513,-1
1521,1515,1514,-1
1521,1516,1515,-1
1521,1414,1419,-1
1521,1419,1420,-1
1521,1420,1421,-1
1521,1421,1425,-1
1521,1425,1438,-1
1521,1438,1442,-1
1521,1442,1446,-1
1521,1446,1449,-1
1521,1449,1448,-1
1521,1448,1516,-1
36,3,2,-1
37,4,3,-1
38,5,4,-1
39,8,5,-1
36,37,3,-1
37,38,4,-1
36,2,47,-1
36,38,37,-1
36,47,38,-1
38,46,39,-1
38,39,5,-1
50,16,43,-1
39,46,49,-1
39,49,50,-1
39,50,43,-1
40,7,6,-1
42,6,8,-1
41,11,7,-1
43,16,9,-1
44,9,10,-1
45,10,11,-1
42,8,39,-1
40,41,7,-1
40,6,42,-1
43,9,44,-1
41,45,11,-1
44,10,45,-1
40,42,41,-1
41,42,43,-1
41,43,45,-1
42,39,43,-1
43,44,45,-1
47,2,13,-1
46,14,12,-1
48,13,14,-1
49,12,15,-1
50,26,16,-1
51,18,17,-1
52,19,18,-1
53,21,19,-1
108,17,70,-1
54,71,20,-1
55,32,21,-1
56,20,22,-1
57,78,23,-1
46,48,14,-1
46,12,49,-1
47,13,48,-1
38,47,46,-1
46,47,48,-1
49,15,61,-1
50,49,60,-1
51,52,18,-1
52,53,19,-1
51,17,108,-1
54,20,56,-1
51,53,52,-1
51,108,53,-1
53,54,55,-1
53,108,54,-1
53,55,21,-1
67,57,23,-1
55,54,56,-1
55,56,57,-1
55,57,67,-1
61,15,27,-1
58,25,24,-1
60,24,26,-1
59,29,25,-1
62,27,28,-1
63,28,29,-1
64,31,30,-1
66,30,32,-1
65,35,31,-1
67,23,33,-1
68,33,34,-1
69,34,35,-1
50,60,26,-1
58,59,25,-1
58,24,60,-1
59,63,29,-1
61,27,62,-1
62,28,63,-1
64,65,31,-1
64,30,66,-1
49,61,60,-1
58,60,59,-1
59,60,61,-1
59,61,63,-1
61,62,63,-1
64,66,65,-1
55,66,32,-1
65,69,35,-1
67,33,68,-1
68,34,69,-1
55,67,66,-1
65,66,67,-1
65,67,69,-1
67,68,69,-1
109,70,71,-1
111,72,73,-1
110,84,72,-1
113,73,75,-1
112,88,74,-1
54,109,71,-1
108,70,109,-1
54,108,109,-1
56,22,117,-1
57,56,116,-1
110,72,111,-1
122,84,110,-1
112,74,123,-1
111,73,113,-1
122,110,111,-1
122,111,112,-1
111,113,112,-1
112,113,126,-1
117,22,79,-1
114,77,76,-1
116,76,78,-1
115,81,77,-1
118,79,80,-1
119,80,81,-1
120,83,82,-1
122,82,84,-1
121,87,83,-1
123,74,85,-1
124,85,86,-1
125,86,87,-1
126,89,88,-1
57,116,78,-1
114,115,77,-1
114,76,116,-1
117,79,118,-1
115,119,81,-1
118,80,119,-1
120,82,122,-1
120,121,83,-1
56,117,116,-1
114,116,115,-1
115,116,117,-1
115,117,119,-1
117,118,119,-1
120,122,121,-1
121,122,123,-1
121,125,87,-1
123,85,124,-1
124,86,125,-1
112,126,88,-1
126,127,89,-1
122,112,123,-1
121,123,125,-1
123,124,125,-1
129,90,91,-1
128,75,90,-1
130,98,92,-1
137,91,99,-1
132,93,94,-1
131,104,93,-1
128,90,129,-1
113,75,128,-1
127,130,92,-1
129,91,137,-1
113,128,130,-1
113,130,126,-1
128,129,137,-1
128,137,130,-1
131,93,132,-1
131,142,104,-1
132,94,749,-1
133,95,143,-1
131,132,142,-1
132,133,142,-1
127,92,89,-1
134,97,96,-1
136,96,98,-1
135,102,97,-1
138,99,100,-1
139,103,101,-1
140,100,102,-1
142,101,104,-1
141,107,103,-1
143,95,105,-1
144,105,106,-1
145,106,107,-1
130,136,98,-1
134,135,97,-1
134,96,136,-1
137,99,138,-1
135,140,102,-1
126,130,127,-1
130,137,136,-1
134,136,135,-1
135,136,137,-1
135,137,140,-1
139,141,103,-1
138,100,140,-1
139,101,142,-1
143,105,144,-1
141,145,107,-1
144,106,145,-1
137,138,140,-1
139,142,141,-1
141,142,143,-1
141,143,145,-1
133,143,142,-1
143,144,145,-1
161,146,147,-1
167,148,153,-1
316,147,248,-1
162,249,148,-1
160,146,161,-1
167,162,148,-1
161,147,316,-1
162,317,249,-1
160,161,167,-1
167,161,162,-1
161,316,162,-1
162,316,317,-1
163,151,149,-1
160,149,146,-1
164,153,150,-1
165,154,151,-1
166,150,152,-1
169,152,155,-1
168,156,154,-1
170,158,156,-1
171,155,157,-1
173,157,159,-1
332,159,264,-1
172,266,158,-1
160,163,149,-1
166,164,150,-1
163,165,151,-1
166,152,169,-1
167,153,164,-1
160,164,163,-1
160,167,164,-1
163,164,166,-1
163,166,165,-1
165,166,168,-1
165,168,154,-1
168,170,156,-1
169,155,171,-1
170,172,158,-1
171,157,173,-1
173,159,332,-1
172,334,266,-1
166,169,168,-1
168,169,170,-1
170,169,171,-1
170,171,172,-1
171,173,172,-1
172,173,334,-1
173,332,334,-1
211,175,174,-1
212,176,175,-1
215,174,178,-1
216,178,179,-1
214,179,177,-1
217,177,180,-1
213,183,176,-1
211,212,175,-1
211,174,215,-1
212,213,176,-1
214,216,179,-1
215,178,216,-1
214,177,217,-1
217,180,224,-1
211,213,212,-1
211,215,213,-1
213,215,214,-1
213,214,217,-1
214,215,216,-1
213,217,218,-1
217,224,218,-1
218,197,181,-1
219,181,182,-1
220,198,183,-1
218,181,219,-1
213,220,183,-1
213,218,220,-1
218,219,220,-1
219,235,220,-1
221,185,184,-1
222,186,185,-1
223,187,186,-1
224,180,187,-1
226,184,189,-1
227,189,190,-1
225,190,188,-1
228,192,191,-1
229,193,192,-1
232,191,195,-1
230,206,193,-1
236,194,199,-1
233,195,196,-1
231,196,194,-1
221,222,185,-1
221,184,226,-1
222,223,186,-1
223,224,187,-1
225,227,190,-1
226,189,227,-1
225,188,235,-1
221,223,222,-1
223,225,224,-1
218,224,234,-1
225,234,224,-1
221,226,223,-1
223,226,225,-1
225,226,227,-1
228,229,192,-1
229,230,193,-1
228,191,232,-1
231,194,236,-1
231,233,196,-1
232,195,233,-1
890,239,202,-1
228,230,229,-1
228,231,230,-1
228,232,231,-1
230,231,236,-1
230,236,237,-1
231,232,233,-1
890,903,239,-1
234,182,197,-1
235,188,198,-1
244,200,207,-1
237,201,200,-1
239,199,202,-1
238,203,201,-1
240,863,203,-1
241,205,204,-1
243,204,206,-1
242,209,205,-1
245,207,208,-1
247,208,210,-1
246,872,209,-1
911,210,869,-1
218,234,197,-1
234,219,182,-1
225,235,234,-1
234,235,219,-1
220,235,198,-1
230,243,206,-1
237,200,244,-1
236,199,239,-1
237,238,201,-1
238,240,203,-1
240,905,863,-1
230,237,243,-1
237,244,243,-1
236,238,237,-1
236,239,238,-1
238,239,240,-1
239,903,240,-1
240,903,905,-1
241,242,205,-1
241,204,243,-1
242,246,209,-1
244,207,245,-1
245,208,247,-1
247,210,911,-1
246,914,872,-1
241,243,242,-1
242,243,246,-1
243,244,246,-1
244,245,246,-1
245,247,246,-1
246,247,914,-1
247,911,914,-1
319,248,251,-1
317,250,249,-1
318,252,250,-1
320,253,252,-1
321,254,253,-1
323,251,255,-1
324,257,256,-1
325,258,257,-1
328,256,260,-1
327,261,259,-1
329,260,261,-1
316,248,319,-1
317,318,250,-1
318,320,252,-1
319,251,323,-1
320,321,253,-1
321,322,254,-1
323,255,331,-1
324,325,257,-1
325,326,258,-1
316,319,318,-1
316,318,317,-1
318,319,320,-1
320,319,321,-1
319,323,321,-1
321,323,322,-1
324,326,325,-1
324,256,328,-1
327,329,261,-1
328,260,329,-1
324,327,326,-1
324,328,327,-1
327,328,329,-1
322,262,254,-1
331,255,263,-1
330,263,262,-1
339,269,271,-1
333,264,265,-1
335,265,267,-1
334,270,266,-1
336,267,268,-1
337,268,269,-1
338,273,270,-1
340,271,272,-1
341,272,273,-1
342,275,274,-1
353,274,285,-1
326,285,258,-1
344,259,276,-1
345,279,277,-1
346,276,278,-1
347,280,279,-1
349,278,281,-1
348,282,280,-1
350,284,282,-1
351,281,283,-1
370,283,302,-1
354,277,286,-1
343,288,275,-1
355,286,287,-1
352,289,284,-1
357,290,289,-1
358,292,290,-1
361,303,293,-1
359,287,291,-1
356,293,288,-1
360,291,292,-1
322,330,262,-1
330,331,263,-1
322,323,331,-1
322,331,330,-1
339,337,269,-1
332,264,333,-1
333,265,335,-1
334,338,270,-1
336,335,267,-1
336,268,337,-1
338,341,273,-1
339,271,340,-1
340,272,341,-1
342,274,353,-1
342,343,275,-1
332,333,334,-1
333,335,338,-1
334,333,338,-1
336,338,335,-1
336,341,338,-1
336,337,341,-1
339,340,337,-1
337,340,341,-1
342,353,343,-1
327,259,344,-1
344,276,346,-1
345,347,279,-1
345,277,354,-1
346,278,349,-1
347,348,280,-1
348,350,282,-1
349,281,351,-1
350,352,284,-1
351,283,370,-1
326,327,344,-1
326,344,345,-1
326,345,353,-1
344,347,345,-1
344,346,347,-1
347,346,348,-1
346,349,348,-1
348,349,350,-1
349,351,350,-1
350,351,352,-1
351,370,352,-1
326,353,285,-1
343,356,288,-1
354,286,355,-1
359,355,287,-1
358,360,292,-1
352,357,289,-1
357,358,290,-1
359,291,360,-1
356,361,293,-1
345,354,353,-1
343,353,356,-1
353,354,356,-1
354,355,356,-1
359,356,355,-1
352,370,357,-1
357,370,371,-1
357,371,358,-1
358,371,361,-1
359,360,361,-1
359,361,356,-1
358,361,360,-1
362,295,294,-1
363,296,295,-1
366,294,298,-1
365,299,297,-1
367,298,299,-1
369,300,301,-1
362,363,295,-1
362,294,366,-1
363,364,296,-1
365,367,299,-1
366,298,367,-1
362,364,363,-1
362,366,364,-1
364,366,365,-1
365,366,367,-1
368,300,369,-1
371,302,303,-1
374,306,296,-1
372,305,304,-1
374,304,306,-1
373,308,305,-1
375,297,307,-1
368,307,300,-1
377,312,309,-1
376,309,308,-1
378,311,310,-1
381,301,313,-1
380,310,312,-1
379,315,311,-1
382,313,314,-1
383,314,315,-1
364,374,296,-1
370,302,371,-1
365,297,375,-1
375,307,368,-1
364,365,375,-1
361,371,303,-1
372,373,305,-1
372,304,374,-1
373,376,308,-1
364,375,374,-1
372,374,373,-1
373,374,376,-1
375,377,376,-1
375,376,374,-1
376,377,309,-1
369,301,381,-1
375,368,369,-1
375,369,377,-1
369,381,377,-1
378,310,380,-1
378,379,311,-1
377,380,312,-1
381,313,382,-1
382,314,383,-1
379,383,315,-1
378,380,379,-1
377,381,380,-1
379,380,381,-1
379,381,383,-1
381,382,383,-1
387,386,385,-1
388,441,386,-1
387,388,386,-1
387,459,388,-1
388,459,441,-1
399,390,391,-1
400,391,392,-1
640,393,631,-1
402,394,393,-1
402,633,394,-1
403,392,395,-1
404,395,396,-1
405,396,397,-1
399,391,400,-1
399,398,390,-1
400,392,403,-1
399,651,398,-1
401,402,393,-1
401,393,640,-1
401,640,402,-1
403,395,404,-1
404,396,405,-1
399,400,651,-1
400,403,651,-1
403,404,405,-1
403,405,643,-1
403,643,651,-1
398,406,390,-1
413,407,406,-1
414,408,407,-1
415,409,408,-1
416,410,409,-1
417,412,410,-1
419,411,412,-1
398,413,406,-1
413,414,407,-1
398,651,413,-1
414,415,408,-1
415,416,409,-1
413,415,414,-1
413,416,415,-1
413,417,416,-1
413,419,417,-1
413,651,652,-1
416,417,410,-1
417,419,412,-1
419,418,411,-1
413,418,419,-1
413,652,418,-1
431,420,421,-1
433,421,423,-1
434,476,424,-1
517,423,475,-1
435,425,422,-1
435,424,425,-1
430,426,420,-1
436,428,426,-1
437,422,427,-1
439,427,429,-1
438,448,428,-1
466,429,449,-1
431,421,433,-1
431,430,420,-1
435,422,432,-1
435,434,424,-1
433,423,517,-1
434,518,476,-1
431,435,432,-1
431,432,430,-1
431,433,435,-1
433,434,435,-1
433,517,434,-1
434,517,518,-1
430,436,426,-1
437,432,422,-1
437,427,439,-1
436,438,428,-1
438,465,448,-1
439,429,466,-1
430,432,437,-1
430,437,436,-1
436,437,438,-1
437,439,438,-1
438,439,465,-1
465,439,466,-1
458,385,440,-1
461,440,444,-1
460,444,442,-1
460,442,443,-1
463,445,446,-1
462,632,445,-1
387,385,458,-1
458,440,461,-1
387,458,459,-1
460,458,461,-1
460,461,444,-1
459,458,460,-1
462,445,463,-1
463,446,644,-1
462,463,641,-1
465,450,448,-1
468,449,451,-1
594,451,557,-1
467,558,450,-1
465,467,450,-1
466,449,468,-1
468,451,594,-1
467,595,558,-1
465,466,467,-1
466,468,467,-1
467,468,595,-1
468,594,595,-1
469,453,452,-1
470,454,453,-1
472,452,455,-1
474,455,457,-1
473,457,456,-1
469,470,453,-1
469,452,472,-1
469,471,470,-1
469,472,471,-1
470,471,454,-1
472,455,474,-1
473,472,474,-1
473,474,457,-1
471,472,473,-1
518,477,476,-1
520,475,478,-1
519,479,477,-1
521,480,479,-1
522,481,480,-1
524,478,482,-1
525,484,483,-1
526,489,484,-1
523,485,481,-1
528,482,486,-1
527,486,485,-1
529,561,487,-1
530,487,488,-1
533,483,492,-1
532,493,490,-1
531,494,489,-1
532,490,491,-1
535,491,495,-1
534,492,493,-1
536,498,496,-1
537,495,497,-1
538,500,498,-1
604,567,494,-1
605,496,568,-1
539,497,499,-1
540,501,500,-1
541,503,501,-1
542,499,502,-1
552,502,512,-1
543,504,503,-1
544,505,504,-1
517,475,520,-1
518,519,477,-1
519,521,479,-1
521,522,480,-1
520,478,524,-1
522,523,481,-1
525,526,484,-1
526,531,489,-1
524,482,528,-1
523,527,485,-1
527,528,486,-1
517,519,518,-1
517,520,519,-1
519,520,521,-1
521,520,522,-1
520,524,522,-1
522,524,523,-1
525,531,526,-1
523,524,528,-1
523,528,527,-1
529,487,530,-1
529,530,598,-1
525,483,533,-1
532,534,493,-1
532,491,535,-1
533,492,534,-1
525,532,531,-1
525,533,532,-1
532,533,534,-1
531,532,535,-1
531,535,536,-1
531,604,494,-1
535,495,537,-1
536,538,498,-1
536,496,605,-1
537,497,539,-1
538,540,500,-1
540,541,501,-1
539,499,542,-1
541,543,503,-1
542,502,552,-1
543,544,504,-1
544,545,505,-1
531,536,604,-1
535,538,536,-1
535,537,538,-1
538,537,540,-1
536,605,604,-1
537,539,540,-1
540,539,541,-1
539,542,541,-1
541,542,543,-1
543,542,552,-1
543,552,544,-1
544,552,553,-1
544,553,545,-1
545,553,610,-1
546,507,506,-1
547,508,507,-1
550,506,510,-1
549,511,509,-1
551,510,511,-1
553,512,513,-1
617,580,508,-1
618,509,581,-1
554,581,514,-1
555,514,515,-1
619,516,582,-1
556,585,516,-1
623,515,586,-1
546,547,507,-1
546,506,550,-1
547,548,508,-1
551,511,549,-1
550,510,551,-1
549,509,618,-1
546,548,547,-1
546,550,548,-1
548,550,549,-1
550,551,549,-1
548,549,618,-1
548,617,508,-1
552,512,553,-1
610,553,513,-1
618,581,554,-1
548,618,617,-1
618,556,619,-1
554,514,555,-1
555,515,623,-1
618,554,555,-1
619,556,516,-1
556,622,585,-1
618,555,556,-1
555,623,556,-1
556,623,622,-1
597,559,560,-1
596,557,559,-1
595,563,558,-1
599,560,562,-1
598,562,561,-1
600,564,563,-1
601,488,564,-1
602,566,565,-1
604,565,567,-1
603,570,566,-1
606,568,569,-1
608,569,571,-1
609,571,572,-1
607,573,570,-1
545,572,505,-1
610,513,573,-1
596,559,597,-1
594,557,596,-1
600,563,595,-1
597,560,599,-1
529,598,561,-1
599,562,598,-1
600,601,564,-1
530,488,601,-1
602,603,566,-1
602,565,604,-1
594,596,595,-1
596,600,595,-1
596,597,600,-1
599,598,601,-1
597,599,600,-1
599,601,600,-1
598,530,601,-1
602,604,603,-1
603,607,570,-1
605,568,606,-1
606,569,608,-1
545,609,572,-1
608,571,609,-1
607,610,573,-1
603,604,607,-1
604,605,607,-1
605,606,607,-1
606,608,607,-1
608,609,610,-1
607,608,610,-1
545,610,609,-1
611,575,574,-1
626,574,589,-1
612,576,575,-1
614,590,577,-1
678,577,653,-1
611,612,575,-1
611,574,626,-1
611,613,612,-1
611,626,614,-1
612,613,576,-1
614,577,678,-1
611,614,613,-1
613,614,678,-1
613,678,679,-1
615,579,578,-1
617,578,580,-1
616,582,579,-1
620,584,583,-1
622,583,585,-1
621,588,584,-1
624,586,587,-1
625,587,588,-1
615,616,579,-1
615,578,617,-1
616,619,582,-1
615,617,616,-1
616,617,619,-1
617,618,619,-1
620,621,584,-1
620,583,622,-1
623,586,624,-1
621,625,588,-1
624,587,625,-1
620,622,621,-1
621,622,623,-1
621,623,625,-1
623,624,625,-1
627,589,590,-1
628,592,591,-1
629,593,592,-1
626,589,627,-1
614,626,627,-1
614,627,590,-1
628,629,592,-1
628,591,1253,-1
628,630,629,-1
628,1253,630,-1
629,630,593,-1
640,631,441,-1
641,443,632,-1
642,447,633,-1
464,636,447,-1
459,640,441,-1
460,443,641,-1
459,460,641,-1
462,641,632,-1
459,641,640,-1
641,464,642,-1
642,464,447,-1
463,464,641,-1
463,644,464,-1
643,397,634,-1
402,642,633,-1
641,642,640,-1
402,640,642,-1
405,397,643,-1
471,635,454,-1
644,446,635,-1
646,456,637,-1
471,473,644,-1
464,645,636,-1
471,644,635,-1
464,644,645,-1
473,645,644,-1
473,646,645,-1
473,456,646,-1
645,639,636,-1
647,637,638,-1
648,638,639,-1
646,637,647,-1
647,638,648,-1
645,648,639,-1
646,647,648,-1
645,646,648,-1
651,634,649,-1
652,649,650,-1
418,650,411,-1
643,634,651,-1
651,649,652,-1
652,650,418,-1
613,658,576,-1
686,653,661,-1
679,655,654,-1
684,654,659,-1
678,653,686,-1
679,680,655,-1
613,679,683,-1
678,680,679,-1
678,686,680,-1
613,683,658,-1
679,654,684,-1
679,684,683,-1
681,657,656,-1
683,656,658,-1
682,672,657,-1
685,659,660,-1
681,682,657,-1
681,656,683,-1
684,659,685,-1
682,697,672,-1
681,683,682,-1
682,683,697,-1
683,684,697,-1
684,685,697,-1
689,661,664,-1
680,662,655,-1
687,663,662,-1
690,664,665,-1
688,666,663,-1
694,665,669,-1
691,667,666,-1
692,668,667,-1
693,673,668,-1
630,677,593,-1
695,669,670,-1
686,661,689,-1
680,687,662,-1
687,688,663,-1
689,664,690,-1
688,691,666,-1
690,665,694,-1
686,689,687,-1
680,686,687,-1
687,689,688,-1
689,690,688,-1
688,690,691,-1
691,690,694,-1
691,692,667,-1
692,693,668,-1
691,694,692,-1
694,695,692,-1
692,695,693,-1
693,695,699,-1
630,1254,702,-1
694,669,695,-1
695,670,699,-1
630,702,677,-1
696,660,671,-1
698,671,673,-1
697,674,672,-1
699,670,674,-1
700,676,675,-1
702,675,677,-1
701,1356,676,-1
685,660,696,-1
696,671,698,-1
698,673,693,-1
697,699,674,-1
685,696,697,-1
696,699,697,-1
698,693,699,-1
696,698,699,-1
700,701,676,-1
700,675,702,-1
700,702,701,-1
701,702,1377,-1
748,704,705,-1
749,94,706,-1
133,712,95,-1
747,706,704,-1
750,716,707,-1
751,709,708,-1
752,710,709,-1
767,708,724,-1
754,725,711,-1
760,705,717,-1
753,723,710,-1
763,711,720,-1
747,704,748,-1
747,749,706,-1
748,705,760,-1
750,707,756,-1
132,749,133,-1
133,749,755,-1
750,755,749,-1
747,750,749,-1
747,748,760,-1
747,760,750,-1
751,752,709,-1
751,708,767,-1
752,753,710,-1
751,753,752,-1
751,767,753,-1
753,767,754,-1
754,711,763,-1
753,766,723,-1
753,754,763,-1
753,763,766,-1
755,713,712,-1
756,707,713,-1
757,715,714,-1
759,714,716,-1
758,719,715,-1
761,717,718,-1
762,718,719,-1
764,722,721,-1
766,721,723,-1
765,735,722,-1
133,755,712,-1
755,756,713,-1
757,758,715,-1
750,756,755,-1
750,759,716,-1
757,714,759,-1
758,762,719,-1
760,717,761,-1
761,718,762,-1
764,765,722,-1
764,721,766,-1
765,778,735,-1
750,760,759,-1
757,759,758,-1
758,759,760,-1
758,760,762,-1
760,761,762,-1
764,766,765,-1
765,766,778,-1
763,778,766,-1
768,724,725,-1
769,720,726,-1
770,738,727,-1
771,726,728,-1
772,730,729,-1
773,731,730,-1
776,729,733,-1
775,734,732,-1
777,733,734,-1
782,728,739,-1
774,745,731,-1
787,732,744,-1
767,724,768,-1
754,768,725,-1
769,726,771,-1
754,767,768,-1
763,720,769,-1
778,770,727,-1
763,769,771,-1
763,771,770,-1
771,782,770,-1
772,773,730,-1
772,729,776,-1
773,774,731,-1
776,733,777,-1
775,777,734,-1
772,774,773,-1
772,776,774,-1
774,776,775,-1
775,776,777,-1
771,728,782,-1
775,732,787,-1
774,788,745,-1
774,775,787,-1
774,787,788,-1
778,727,735,-1
779,737,736,-1
781,736,738,-1
780,741,737,-1
783,739,740,-1
784,740,741,-1
785,743,742,-1
788,742,745,-1
786,746,743,-1
770,781,738,-1
779,780,737,-1
779,736,781,-1
763,770,778,-1
770,782,781,-1
779,781,780,-1
780,781,782,-1
780,782,784,-1
782,739,783,-1
780,784,741,-1
783,740,784,-1
785,786,743,-1
785,742,788,-1
786,789,746,-1
782,783,784,-1
785,788,786,-1
786,788,789,-1
788,787,789,-1
820,790,791,-1
819,744,790,-1
821,801,792,-1
831,791,802,-1
822,794,793,-1
823,795,794,-1
826,793,797,-1
825,798,796,-1
827,797,798,-1
824,807,795,-1
837,796,808,-1
819,790,820,-1
819,787,744,-1
821,792,789,-1
820,791,831,-1
819,820,787,-1
821,787,820,-1
821,820,831,-1
822,823,794,-1
823,824,795,-1
822,793,826,-1
825,827,798,-1
826,797,827,-1
822,824,823,-1
822,826,824,-1
824,826,825,-1
825,826,827,-1
824,836,807,-1
825,796,837,-1
837,808,839,-1
824,837,836,-1
824,825,837,-1
789,792,746,-1
828,800,799,-1
830,799,801,-1
829,804,800,-1
832,802,803,-1
833,803,804,-1
834,806,805,-1
836,805,807,-1
835,809,806,-1
821,830,801,-1
828,829,800,-1
828,799,830,-1
831,802,832,-1
829,833,804,-1
821,789,787,-1
821,831,830,-1
828,830,829,-1
829,830,831,-1
829,831,833,-1
832,803,833,-1
834,835,806,-1
834,805,836,-1
835,838,809,-1
831,832,833,-1
834,836,835,-1
835,836,838,-1
837,841,838,-1
837,838,836,-1
840,810,811,-1
839,808,810,-1
841,815,812,-1
845,811,816,-1
839,810,840,-1
838,841,812,-1
840,811,845,-1
837,839,840,-1
837,840,841,-1
840,845,841,-1
838,812,809,-1
842,814,813,-1
844,813,815,-1
843,818,814,-1
846,816,817,-1
847,817,818,-1
842,843,814,-1
842,813,844,-1
841,844,815,-1
843,847,818,-1
845,816,846,-1
846,817,847,-1
842,844,843,-1
841,845,844,-1
843,844,845,-1
843,845,847,-1
845,846,847,-1
890,202,848,-1
892,848,850,-1
903,849,861,-1
893,850,851,-1
894,853,852,-1
891,851,849,-1
895,854,853,-1
896,876,854,-1
898,852,856,-1
897,857,855,-1
899,856,857,-1
900,877,858,-1
901,858,859,-1
890,848,892,-1
903,891,849,-1
891,893,851,-1
892,850,893,-1
894,895,853,-1
894,852,898,-1
895,896,854,-1
890,892,891,-1
890,891,903,-1
891,892,893,-1
894,896,895,-1
894,898,896,-1
897,899,857,-1
898,856,899,-1
897,855,919,-1
900,858,901,-1
901,859,927,-1
896,898,897,-1
897,898,899,-1
896,897,919,-1
900,901,919,-1
901,902,919,-1
901,927,902,-1
904,861,862,-1
905,864,863,-1
907,862,865,-1
908,865,866,-1
906,867,864,-1
909,868,867,-1
910,869,868,-1
912,866,870,-1
913,870,871,-1
914,873,872,-1
915,871,873,-1
916,875,874,-1
918,874,876,-1
917,878,875,-1
919,855,877,-1
920,860,878,-1
902,886,860,-1
903,861,904,-1
904,862,907,-1
905,906,864,-1
907,865,908,-1
906,909,867,-1
909,910,868,-1
910,911,869,-1
908,866,912,-1
912,870,913,-1
915,913,871,-1
896,918,876,-1
903,904,905,-1
905,904,906,-1
906,904,907,-1
906,907,908,-1
906,908,909,-1
909,912,910,-1
910,915,911,-1
910,912,913,-1
910,913,915,-1
909,908,912,-1
896,919,918,-1
914,915,873,-1
916,917,875,-1
916,874,918,-1
911,915,914,-1
916,918,917,-1
917,918,920,-1
900,919,877,-1
902,860,920,-1
902,920,919,-1
917,920,878,-1
918,919,920,-1
921,880,879,-1
922,881,880,-1
923,885,881,-1
925,879,883,-1
924,884,882,-1
926,883,884,-1
924,882,887,-1
921,922,880,-1
921,879,925,-1
922,923,881,-1
924,926,884,-1
925,883,926,-1
921,923,922,-1
921,925,923,-1
923,924,927,-1
923,925,924,-1
924,925,926,-1
927,859,885,-1
928,889,886,-1
930,887,888,-1
931,888,889,-1
923,927,885,-1
902,928,886,-1
924,887,929,-1
924,928,927,-1
902,927,928,-1
924,929,928,-1
929,887,930,-1
928,931,889,-1
930,888,931,-1
928,929,931,-1
929,930,931,-1
1007,932,933,-1
1024,934,950,-1
1009,933,935,-1
1008,936,934,-1
1013,935,939,-1
1010,937,936,-1
1011,938,937,-1
1012,940,938,-1
1014,941,940,-1
1016,939,942,-1
1017,944,943,-1
1018,945,944,-1
1006,932,1007,-1
1007,933,1009,-1
1024,1008,934,-1
1008,1010,936,-1
1006,1007,1024,-1
1024,1007,1008,-1
1007,1009,1008,-1
1008,1009,1010,-1
1009,935,1013,-1
1010,1011,937,-1
1011,1012,938,-1
1013,939,1016,-1
1012,1014,940,-1
1014,1015,941,-1
1016,942,1034,-1
1017,1018,944,-1
1018,1019,945,-1
1009,1013,1011,-1
1009,1011,1010,-1
1011,1013,1012,-1
1012,1013,1014,-1
1013,1016,1014,-1
1014,1016,1015,-1
1017,1019,1018,-1
1017,1046,1019,-1
1020,948,946,-1
1006,946,932,-1
1021,950,947,-1
1022,951,948,-1
1023,947,949,-1
1023,949,952,-1
1025,953,951,-1
1028,952,954,-1
1027,955,953,-1
1030,954,956,-1
1029,958,955,-1
1031,956,957,-1
1015,959,941,-1
1033,960,959,-1
1034,942,960,-1
1019,961,945,-1
1035,967,962,-1
1036,957,963,-1
1037,963,964,-1
1032,965,958,-1
1039,964,966,-1
1040,966,967,-1
1038,969,965,-1
1041,962,968,-1
1044,971,961,-1
1042,968,969,-1
1043,972,970,-1
1044,970,971,-1
1045,994,972,-1
1006,1020,946,-1
1024,950,1021,-1
1021,947,1023,-1
1020,1022,948,-1
1006,1021,1020,-1
1006,1024,1021,-1
1020,1021,1023,-1
1020,1023,1022,-1
1022,1023,1025,-1
1022,1025,951,-1
1023,952,1026,-1
1025,1027,953,-1
1026,952,1028,-1
1028,954,1030,-1
1027,1029,955,-1
1030,956,1031,-1
1029,1032,958,-1
1025,1023,1026,-1
1025,1026,1027,-1
1026,1028,1027,-1
1027,1028,1029,-1
1028,1030,1029,-1
1029,1030,1032,-1
1030,1031,1032,-1
1015,1033,959,-1
1033,1034,960,-1
1019,1044,961,-1
1015,1034,1033,-1
1015,1016,1034,-1
1035,962,1041,-1
1035,1040,967,-1
1031,957,1036,-1
1036,963,1037,-1
1039,1037,964,-1
1032,1038,965,-1
1039,966,1040,-1
1038,1042,969,-1
1041,968,1042,-1
1043,970,1044,-1
1043,1045,972,-1
1035,1041,1040,-1
1032,1031,1036,-1
1036,1037,1038,-1
1032,1036,1038,-1
1039,1038,1037,-1
1039,1042,1038,-1
1041,1042,1040,-1
1039,1040,1042,-1
1043,1044,1045,-1
1047,943,974,-1
1046,975,973,-1
1048,974,975,-1
1049,977,976,-1
1050,978,977,-1
1052,976,979,-1
1053,981,980,-1
1054,979,981,-1
1017,943,1047,-1
1047,974,1048,-1
1046,1048,975,-1
1017,1047,1046,-1
1046,1047,1048,-1
1049,1050,977,-1
1049,976,1052,-1
1050,1051,978,-1
1052,979,1054,-1
1053,1054,981,-1
1049,1051,1050,-1
1049,1052,1051,-1
1051,1052,1053,-1
1053,1052,1054,-1
1055,973,982,-1
1058,982,985,-1
1056,984,983,-1
1057,986,984,-1
1060,985,987,-1
1059,988,986,-1
1061,989,988,-1
1063,987,990,-1
1064,990,991,-1
1065,983,992,-1
1066,992,993,-1
1070,993,997,-1
1062,996,989,-1
1069,995,996,-1
1068,998,995,-1
1073,991,1000,-1
1072,1000,999,-1
1071,997,998,-1
1067,999,994,-1
1076,1003,978,-1
1074,1002,1001,-1
1076,1001,1003,-1
1075,1005,1002,-1
1077,980,1004,-1
1078,1081,1005,-1
1046,973,1055,-1
1056,983,1065,-1
1055,982,1058,-1
1056,1057,984,-1
1058,985,1060,-1
1057,1059,986,-1
1060,987,1063,-1
1059,1061,988,-1
1061,1062,989,-1
1063,990,1064,-1
1064,991,1073,-1
1019,1046,1055,-1
1019,1055,1056,-1
1019,1056,1044,-1
1055,1057,1056,-1
1055,1058,1057,-1
1057,1058,1059,-1
1058,1060,1059,-1
1060,1061,1059,-1
1060,1063,1061,-1
1061,1063,1062,-1
1063,1064,1062,-1
1045,1067,994,-1
1065,992,1066,-1
1066,993,1070,-1
1062,1069,996,-1
1069,1068,995,-1
1071,998,1068,-1
1073,1000,1072,-1
1070,997,1071,-1
1067,1072,999,-1
1056,1065,1044,-1
1044,1065,1067,-1
1045,1044,1067,-1
1065,1066,1067,-1
1066,1070,1067,-1
1062,1064,1069,-1
1069,1064,1073,-1
1069,1073,1068,-1
1068,1073,1072,-1
1067,1070,1072,-1
1070,1071,1072,-1
1071,1068,1072,-1
1051,1076,978,-1
1053,980,1077,-1
1077,1004,1088,-1
1051,1053,1077,-1
1074,1075,1002,-1
1074,1001,1076,-1
1075,1078,1005,-1
1051,1077,1076,-1
1074,1076,1075,-1
1075,1076,1078,-1
1077,1090,1078,-1
1077,1078,1076,-1
1089,1079,1080,-1
1088,1079,1089,-1
1088,1004,1079,-1
1090,1084,1081,-1
1091,1083,1082,-1
1093,1082,1084,-1
1094,1080,1085,-1
1092,1087,1083,-1
1095,1085,1086,-1
1096,1086,1087,-1
1090,1081,1078,-1
1089,1080,1094,-1
1077,1088,1089,-1
1077,1089,1090,-1
1089,1094,1090,-1
1091,1082,1093,-1
1091,1092,1083,-1
1090,1093,1084,-1
1094,1085,1095,-1
1092,1096,1087,-1
1095,1086,1096,-1
1091,1093,1092,-1
1090,1094,1093,-1
1092,1093,1094,-1
1092,1094,1096,-1
1094,1095,1096,-1
1147,1099,1100,-1
1148,1106,1101,-1
1149,1100,1102,-1
1151,1102,1104,-1
1150,1105,1103,-1
1153,1103,1106,-1
1146,1107,1099,-1
1154,1109,1107,-1
1155,1101,1108,-1
1156,1193,1109,-1
1157,1108,1110,-1
1239,1110,1194,-1
1152,1111,1105,-1
1160,1104,1113,-1
1158,1112,1111,-1
1159,1114,1112,-1
1161,1115,1114,-1
1164,1113,1117,-1
1162,1116,1115,-1
1163,1121,1116,-1
1165,1119,1118,-1
1166,1120,1119,-1
1168,1117,1121,-1
1169,1203,1122,-1
1167,1205,1120,-1
1170,1122,1123,-1
1147,1100,1149,-1
1146,1099,1147,-1
1153,1106,1148,-1
1149,1102,1151,-1
1153,1150,1103,-1
1150,1152,1105,-1
1147,1149,1153,-1
1147,1153,1148,-1
1146,1147,1148,-1
1153,1149,1150,-1
1149,1151,1150,-1
1150,1151,1152,-1
1146,1154,1107,-1
1148,1101,1155,-1
1155,1108,1157,-1
1154,1156,1109,-1
1156,1238,1193,-1
1157,1110,1239,-1
1146,1155,1154,-1
1154,1155,1156,-1
1146,1148,1155,-1
1156,1155,1157,-1
1156,1157,1238,-1
1157,1239,1238,-1
1151,1104,1160,-1
1152,1158,1111,-1
1158,1159,1112,-1
1160,1113,1164,-1
1159,1161,1114,-1
1161,1162,1115,-1
1162,1163,1116,-1
1165,1166,1119,-1
1166,1167,1120,-1
1164,1117,1168,-1
1163,1168,1121,-1
1151,1158,1152,-1
1151,1160,1158,-1
1158,1160,1159,-1
1160,1161,1159,-1
1160,1164,1161,-1
1161,1164,1162,-1
1162,1168,1163,-1
1165,1167,1166,-1
1165,1171,1167,-1
1164,1168,1162,-1
1169,1122,1170,-1
1167,1250,1205,-1
1169,1170,1248,-1
1172,1118,1125,-1
1171,1126,1124,-1
1173,1125,1126,-1
1174,1124,1127,-1
1177,1127,1130,-1
1175,1129,1128,-1
1176,1132,1129,-1
1261,1128,1216,-1
1178,1130,1131,-1
1179,1133,1132,-1
1180,1136,1133,-1
1181,1131,1134,-1
1182,1134,1135,-1
1183,1138,1136,-1
1185,1137,1138,-1
1192,1135,1145,-1
1186,1140,1139,-1
1187,1141,1140,-1
1190,1139,1143,-1
1189,1144,1142,-1
1191,1143,1144,-1
1269,1224,1141,-1
1270,1142,1225,-1
1271,1285,1226,-1
1165,1118,1172,-1
1172,1125,1173,-1
1171,1173,1126,-1
1171,1124,1174,-1
1165,1172,1171,-1
1171,1172,1173,-1
1167,1171,1174,-1
1167,1174,1175,-1
1174,1127,1177,-1
1175,1176,1129,-1
1177,1130,1178,-1
1176,1179,1132,-1
1175,1128,1261,-1
1178,1131,1181,-1
1179,1180,1133,-1
1180,1183,1136,-1
1181,1134,1182,-1
1183,1185,1138,-1
1185,1184,1137,-1
1182,1135,1192,-1
1192,1145,1266,-1
1167,1175,1250,-1
1174,1176,1175,-1
1174,1177,1176,-1
1177,1179,1176,-1
1175,1261,1250,-1
1177,1178,1179,-1
1178,1180,1179,-1
1178,1181,1180,-1
1180,1181,1183,-1
1183,1181,1182,-1
1183,1182,1185,-1
1182,1192,1185,-1
1185,1192,1184,-1
1184,1192,1266,-1
1186,1187,1140,-1
1186,1139,1190,-1
1187,1188,1141,-1
1190,1143,1191,-1
1189,1191,1144,-1
1189,1142,1270,-1
1186,1188,1187,-1
1186,1190,1188,-1
1188,1189,1270,-1
1188,1190,1189,-1
1189,1190,1191,-1
1188,1269,1141,-1
1270,1225,1286,-1
1188,1270,1269,-1
1270,1288,1271,-1
1238,1196,1193,-1
1240,1194,1195,-1
1241,1198,1196,-1
1242,1195,1197,-1
1244,1200,1199,-1
1245,1197,1200,-1
1243,1201,1198,-1
1247,1199,1202,-1
1248,1202,1203,-1
1246,1204,1201,-1
1249,1123,1204,-1
1251,1207,1206,-1
1250,1206,1205,-1
1252,1218,1207,-1
1239,1194,1240,-1
1238,1241,1196,-1
1240,1195,1242,-1
1241,1243,1198,-1
1238,1239,1241,-1
1239,1240,1241,-1
1241,1240,1243,-1
1240,1242,1243,-1
1245,1200,1244,-1
1244,1199,1247,-1
1242,1197,1245,-1
1246,1201,1243,-1
1247,1202,1248,-1
1169,1248,1203,-1
1246,1249,1204,-1
1170,1123,1249,-1
1251,1252,1207,-1
1251,1206,1250,-1
1242,1245,1243,-1
1245,1246,1243,-1
1245,1244,1246,-1
1170,1249,1248,-1
1247,1248,1249,-1
1244,1247,1246,-1
1246,1247,1249,-1
1251,1250,1252,-1
1253,591,1208,-1
1255,1208,1210,-1
1254,1210,1209,-1
1257,1213,1212,-1
1256,1212,1211,-1
1259,1228,1214,-1
1260,1214,1215,-1
1253,1208,1255,-1
1254,1253,1255,-1
1254,1255,1210,-1
630,1253,1254,-1
1257,1258,1213,-1
1257,1212,1256,-1
1259,1273,1228,-1
1259,1214,1260,-1
1257,1260,1258,-1
1257,1256,1259,-1
1256,1273,1259,-1
1257,1259,1260,-1
1262,1216,1217,-1
1264,1217,1219,-1
1265,1219,1220,-1
1184,1220,1137,-1
1263,1221,1218,-1
1266,1145,1221,-1
1267,1223,1222,-1
1269,1222,1224,-1
1268,1226,1223,-1
1252,1263,1218,-1
1261,1216,1262,-1
1262,1217,1264,-1
1265,1264,1219,-1
1184,1265,1220,-1
1263,1266,1221,-1
1252,1250,1263,-1
1250,1261,1263,-1
1261,1262,1263,-1
1262,1264,1263,-1
1184,1266,1265,-1
1265,1266,1264,-1
1263,1264,1266,-1
1267,1268,1223,-1
1267,1222,1269,-1
1268,1271,1226,-1
1267,1269,1268,-1
1268,1269,1271,-1
1269,1270,1271,-1
1272,1211,1227,-1
1276,1227,1231,-1
1273,1229,1228,-1
1274,1230,1229,-1
1275,1233,1230,-1
1277,1231,1232,-1
1278,1234,1233,-1
1279,1235,1234,-1
1280,1236,1235,-1
1282,1232,1237,-1
1281,1237,1236,-1
1256,1211,1272,-1
1272,1227,1276,-1
1256,1272,1273,-1
1273,1272,1274,-1
1272,1275,1274,-1
1272,1276,1275,-1
1275,1276,1278,-1
1273,1274,1229,-1
1274,1275,1230,-1
1275,1278,1233,-1
1276,1231,1277,-1
1278,1279,1234,-1
1279,1280,1235,-1
1280,1281,1236,-1
1277,1232,1282,-1
1281,1282,1237,-1
1278,1276,1279,-1
1276,1277,1279,-1
1279,1277,1280,-1
1280,1282,1281,-1
1277,1282,1280,-1
1286,1225,1283,-1
1287,1283,1284,-1
1288,1291,1285,-1
1322,1284,1292,-1
1286,1283,1287,-1
1287,1284,1322,-1
1270,1286,1287,-1
1271,1288,1285,-1
1288,1321,1291,-1
1270,1287,1288,-1
1287,1322,1288,-1
1288,1322,1321,-1
1319,1290,1289,-1
1321,1289,1291,-1
1320,1294,1290,-1
1323,1292,1293,-1
1324,1293,1294,-1
1319,1320,1290,-1
1319,1289,1321,-1
1322,1292,1323,-1
1320,1324,1294,-1
1323,1293,1324,-1
1319,1321,1320,-1
1320,1321,1322,-1
1320,1322,1324,-1
1322,1323,1324,-1
1326,1295,1296,-1
1327,1296,1297,-1
1330,1300,1295,-1
1329,1302,1299,-1
1328,1299,1298,-1
1330,1301,1300,-1
1331,1298,1301,-1
1332,1303,1302,-1
1333,1304,1303,-1
1334,1306,1304,-1
1335,1297,1305,-1
1336,1307,1306,-1
1337,1310,1307,-1
1338,1305,1308,-1
1339,1308,1309,-1
1340,1311,1310,-1
1342,1309,1312,-1
1325,1295,1326,-1
1326,1296,1327,-1
1325,1326,1329,-1
1326,1333,1332,-1
1326,1327,1333,-1
1333,1327,1334,-1
1327,1336,1334,-1
1325,1330,1295,-1
1329,1299,1328,-1
1328,1298,1331,-1
1330,1331,1301,-1
1329,1332,1302,-1
1332,1333,1303,-1
1333,1334,1304,-1
1325,1328,1330,-1
1325,1329,1328,-1
1328,1331,1330,-1
1326,1332,1329,-1
1327,1297,1335,-1
1335,1305,1338,-1
1327,1335,1336,-1
1334,1336,1306,-1
1336,1337,1307,-1
1337,1340,1310,-1
1338,1308,1339,-1
1340,1341,1311,-1
1339,1309,1342,-1
1342,1312,1461,-1
1336,1335,1337,-1
1335,1338,1337,-1
1337,1338,1340,-1
1340,1338,1339,-1
1340,1339,1341,-1
1339,1342,1341,-1
1343,1314,1313,-1
1344,1317,1314,-1
1346,1315,1316,-1
1347,1428,1317,-1
1511,1313,1509,-1
1345,1510,1315,-1
1348,1316,1318,-1
1343,1313,1511,-1
1343,1344,1314,-1
1345,1315,1346,-1
1344,1347,1317,-1
1346,1316,1348,-1
1343,1345,1344,-1
1344,1345,1347,-1
1345,1346,1347,-1
1346,1348,1347,-1
1347,1348,1487,-1
1348,1318,1488,-1
1345,1512,1510,-1
1343,1511,1345,-1
1345,1511,1512,-1
1375,1209,1354,-1
1258,1349,1213,-1
1370,1351,1349,-1
1371,1215,1350,-1
1372,1357,1351,-1
1373,1350,1352,-1
1374,1352,1353,-1
1254,1209,1375,-1
1254,1375,702,-1
1258,1370,1349,-1
1260,1215,1371,-1
1371,1350,1373,-1
1258,1371,1370,-1
1258,1260,1371,-1
1370,1371,1372,-1
1370,1372,1351,-1
1372,1378,1357,-1
1373,1352,1374,-1
1372,1371,1373,-1
1372,1373,1378,-1
1373,1374,1378,-1
1376,1354,1355,-1
1377,1355,1356,-1
1378,1358,1357,-1
1382,1353,1361,-1
1375,1354,1376,-1
701,1377,1356,-1
1376,1355,1377,-1
702,1375,1377,-1
1375,1376,1377,-1
1378,1379,1358,-1
1374,1353,1382,-1
1378,1374,1379,-1
1374,1382,1379,-1
1380,1367,1359,-1
1381,1359,1360,-1
1380,1359,1381,-1
1381,1360,1390,-1
1380,1381,1388,-1
1383,1361,1362,-1
1379,1364,1358,-1
1384,1362,1363,-1
1386,1363,1365,-1
1385,1368,1364,-1
1387,1365,1366,-1
1388,1366,1367,-1
1389,1369,1368,-1
1390,1360,1369,-1
1382,1361,1383,-1
1379,1385,1364,-1
1383,1362,1384,-1
1384,1363,1386,-1
1385,1389,1368,-1
1379,1382,1385,-1
1382,1383,1385,-1
1383,1384,1385,-1
1384,1386,1389,-1
1385,1384,1389,-1
1386,1365,1387,-1
1387,1366,1388,-1
1380,1388,1367,-1
1389,1390,1369,-1
1386,1387,1389,-1
1387,1388,1390,-1
1389,1387,1390,-1
1381,1390,1388,-1
1450,1392,1391,-1
1451,1394,1392,-1
1452,1391,1393,-1
1455,1395,1396,-1
1460,1397,1401,-1
1457,1393,1398,-1
1453,1405,1394,-1
1456,1398,1397,-1
1458,1403,1399,-1
1459,1399,1400,-1
1341,1401,1311,-1
1461,1312,1402,-1
1463,1402,1404,-1
1462,1404,1403,-1
1464,1406,1405,-1
1465,1407,1406,-1
1466,1408,1407,-1
1467,1424,1408,-1
1468,1400,1409,-1
1469,1409,1410,-1
1470,1410,1411,-1
1450,1391,1452,-1
1450,1451,1392,-1
1451,1453,1394,-1
1450,1452,1451,-1
1451,1452,1453,-1
1454,1395,1455,-1
1455,1396,1471,-1
1454,1455,1471,-1
1460,1456,1397,-1
1452,1393,1457,-1
1453,1464,1405,-1
1457,1398,1456,-1
1458,1462,1403,-1
1458,1399,1459,-1
1341,1460,1401,-1
1463,1461,1402,-1
1462,1463,1404,-1
1459,1400,1468,-1
1452,1457,1458,-1
1452,1458,1464,-1
1452,1464,1453,-1
1457,1462,1458,-1
1457,1456,1462,-1
1458,1459,1464,-1
1341,1461,1460,-1
1460,1463,1456,-1
1341,1342,1461,-1
1460,1461,1463,-1
1456,1463,1462,-1
1464,1465,1406,-1
1465,1466,1407,-1
1466,1467,1408,-1
1467,1483,1424,-1
1468,1409,1469,-1
1469,1410,1470,-1
1470,1411,1484,-1
1464,1459,1465,-1
1465,1459,1468,-1
1465,1468,1466,-1
1466,1469,1467,-1
1468,1469,1466,-1
1467,1469,1470,-1
1467,1470,1483,-1
1454,1413,1395,-1
1471,1396,1412,-1
1474,1412,1415,-1
1472,1414,1413,-1
1473,1419,1414,-1
1475,1415,1416,-1
1476,1416,1417,-1
1477,1417,1418,-1
1478,1420,1419,-1
1479,1421,1420,-1
1481,1418,1422,-1
1482,1422,1423,-1
1483,1423,1424,-1
1480,1425,1421,-1
1484,1411,1425,-1
1454,1472,1413,-1
1471,1412,1474,-1
1472,1473,1414,-1
1474,1415,1475,-1
1475,1416,1476,-1
1476,1417,1477,-1
1477,1418,1481,-1
1473,1478,1419,-1
1478,1479,1420,-1
1479,1480,1421,-1
1454,1471,1472,-1
1472,1471,1473,-1
1471,1474,1473,-1
1473,1474,1478,-1
1474,1475,1478,-1
1475,1476,1479,-1
1476,1477,1480,-1
1477,1481,1480,-1
1475,1479,1478,-1
1476,1480,1479,-1
1482,1481,1422,-1
1482,1423,1483,-1
1480,1484,1425,-1
1480,1481,1484,-1
1482,1483,1484,-1
1482,1484,1481,-1
1470,1484,1483,-1
1486,1426,1427,-1
1487,1430,1428,-1
1488,1318,1429,-1
1489,1431,1430,-1
1491,1429,1432,-1
1490,1434,1431,-1
1492,1432,1433,-1
1517,1433,1513,-1
1493,1435,1434,-1
1494,1436,1435,-1
1495,1437,1436,-1
1485,1426,1486,-1
1486,1427,1498,-1
1485,1486,1498,-1
1347,1487,1428,-1
1487,1489,1430,-1
1489,1490,1431,-1
1488,1429,1491,-1
1490,1493,1434,-1
1491,1432,1492,-1
1492,1433,1517,-1
1348,1488,1487,-1
1487,1488,1489,-1
1488,1491,1489,-1
1489,1491,1490,-1
1490,1491,1492,-1
1490,1492,1493,-1
1493,1492,1517,-1
1493,1494,1435,-1
1494,1495,1436,-1
1495,1496,1437,-1
1493,1517,1494,-1
1517,1518,1494,-1
1494,1518,1495,-1
1495,1518,1519,-1
1495,1520,1496,-1
1495,1519,1520,-1
1485,1438,1426,-1
1498,1427,1439,-1
1499,1439,1440,-1
1500,1440,1441,-1
1502,1441,1443,-1
1497,1442,1438,-1
1501,1446,1442,-1
1503,1443,1444,-1
1504,1444,1445,-1
1505,1449,1446,-1
1496,1447,1437,-1
1506,1445,1447,-1
1507,1516,1448,-1
1508,1448,1449,-1
1485,1497,1438,-1
1498,1439,1499,-1
1499,1440,1500,-1
1500,1441,1502,-1
1497,1501,1442,-1
1485,1498,1497,-1
1497,1498,1499,-1
1497,1499,1501,-1
1499,1500,1501,-1
1500,1502,1501,-1
1502,1443,1503,-1
1503,1444,1504,-1
1506,1504,1445,-1
1501,1505,1446,-1
1505,1508,1449,-1
1506,1447,1496,-1
1508,1507,1448,-1
1502,1503,1505,-1
1503,1504,1505,-1
1501,1502,1505,-1
1505,1504,1508,-1
1506,1496,1507,-1
1506,1508,1504,-1
1506,1507,1508,-1
1496,1520,1507,-1
1512,1509,1510,-1
1511,1509,1512,-1
1518,1513,1514,-1
1519,1514,1515,-1
1520,1515,1516,-1
1517,1513,1518,-1
1518,1514,1519,-1
1519,1515,1520,-1
1507,1520,1516,-1
]

colorPerVertex FALSE

color Color { color [
 0 0 0,
 1 1 1,
 0.976471 0.843137 0.172549, # default colour
] }

colorIndex [
0 0 0 0 0 0 0 0 0 0 0 0 0 0 0 0 0 0 0 0 0 0 0 0 0 0 0 0 0 0 0 0 0 0 0 0 0 0 0 0 0 0 0 0 0 0 0 0 0 0 0 0 0 0 0 0 0 0 0 0 0 0 0 0 0 0 0 0 0 0 0 0 0 0 0 0 0 0 0 0 0 0 0 0 0 0 0 0 0 0 0 0 0 0 0 0 0 0 0 0 0 0 0 0 0 0 0 0 0 0 0 0 0 0 0 0 0 0 0 0 0 0 0 0 0 0 0 0 0 0 0 0 0 0 0 0 0 0 0 0 0 0 0 0 0 0 0 0 0 0 0 0 0 0 0 0 0 0 0 0 0 0 0 0 0 0 0 0 0 0 0 0 0 0 0 0 0 0 0 0 0 0 0 0 0 0 0 0 0 0 0 0 0 0 0 0 0 0 0 0 0 0 0 0 0 0 0 0 0 0 0 0 0 0 0 0 0 0 0 0 0 0 0 0 0 0 0 0 0 0 0 0 0 0 0 0 0 0 0 0 0 0 0 0 0 0 0 0 0 0 0 0 0 0 0 0 0 0 0 0 0 0 0 0 0 0 0 0 0 0 0 0 0 0 0 0 0 0 0 0 0 0 0 0 0 0 0 0 0 0 0 0 0 0 0 0 0 0 0 0 0 0 0 0 0 0 0 0 0 0 0 0 0 0 0 0 0 0 0 0 0 0 0 0 0 0 0 0 0 0 0 0 0 0 0 0 0 0 0 0 0 0 0 0 0 0 0 0 0 0 0 0 0 0 0 0 0 0 0 0 0 0 0 0 0 0 0 0 0 0 0 0 0 0 0 0 0 0 0 0 0 0 0 0 0 0 0 0 0 0 0 0 0 0 0 0 0 0 0 0 0 0 0 0 0 0 0 0 0 0 0 0 0 0 0 0 0 0 0 0 0 0 0 0 0 0 0 0 0 0 0 0 0 0 0 0 0 0 0 0 0 0 0 0 0 0 0 0 0 0 0 0 0 0 0 0 0 0 0 0 0 0 0 0 0 0 0 0 0 0 0 0 0 0 0 0 0 0 0 0 0 0 0 0 0 0 0 0 0 0 0 0 0 0 0 0 0 0 0 0 0 0 0 0 0 0 0 0 0 0 0 0 0 0 0 0 0 0 0 0 0 0 0 0 0 0 0 0 0 0 0 0 0 0 0 0 0 0 0 0 0 0 0 0 0 0 0 0 0 0 0 0 0 0 0 0 0 0 0 0 0 0 0 0 0 0 0 0 0 0 0 0 0 0 0 0 0 0 0 0 0 0 0 0 0 0 0 0 0 0 0 0 0 0 0 0 0 0 0 0 0 0 0 0 0 0 0 0 0 0 0 0 0 0 0 0 0 0 0 0 0 0 0 0 0 0 0 0 0 0 0 0 0 0 0 0 0 0 0 0 0 0 0 0 0 0 0 0 0 0 0 0 0 0 0 0 0 0 0 0 0 0 0 0 0 0 0 0 0 0 0 0 0 0 0 0 0 0 0 0 0 0 0 0 0 0 0 0 0 0 0 0 0 0 0 0 0 0 0 0 0 0 0 0 0 0 0 0 0 0 0 0 0 0 0 0 0 0 0 0 0 0 0 0 0 0 0 0 0 0 0 0 0 0 0 0 0 0 0 0 0 0 0 0 0 0 0 0 0 0 0 0 0 0 0 0 0 0 0 0 0 0 0 0 0 0 0 0 0 0 0 0 0 0 0 0 0 0 0 0 0 0 0 0 0 0 0 0 0 0 0 0 0 0 0 0 0 0 0 0 0 0 0 0 0 0 0 0 0 0 0 0 0 0 0 1 1 1 1 1 1 1 1 1 1 1 1 1 1 1 1 1 1 1 1 1 1 1 1 1 1 1 1 1 1 1 1 1 1 1 1 1 1 1 1 1 1 1 1 1 1 1 1 1 1 1 1 1 1 1 1 1 1 1 1 1 1 1 1 1 1 1 1 1 1 1 1 1 1 1 1 1 1 1 1 1 1 1 1 1 1 1 1 1 1 1 1 1 1 1 1 1 1 1 1 1 1 1 1 1 1 1 1 1 1 1 1 1 1 1 1 1 1 1 1 1 1 1 1 1 1 1 1 1 1 1 1 1 1 1 1 1 1 1 1 1 1 1 1 1 1 1 1 1 1 1 1 1 1 1 1 1 1 1 1 1 1 1 1 1 1 1 1 1 1 1 1 1 1 1 1 1 1 1 1 1 1 1 1 1 1 1 1 1 1 1 1 1 1 1 1 1 1 1 1 1 1 1 1 1 1 1 1 1 1 1 1 1 1 1 1 1 1 1 1 1 1 1 1 1 1 1 1 1 1 1 1 1 1 1 1 1 1 1 1 1 1 1 1 1 1 1 1 1 1 1 1 1 1 1 1 1 1 1 1 1 1 1 1 1 1 1 1 1 1 1 1 1 1 1 1 1 1 1 1 1 1 1 1 1 1 1 1 1 1 1 1 1 1 1 1 1 1 1 1 1 1 1 1 1 1 1 1 1 1 1 1 1 1 1 1 1 1 1 1 1 1 1 1 1 1 1 1 1 1 1 1 1 1 1 1 1 1 1 1 1 1 1 1 1 1 1 1 1 1 1 1 1 1 1 1 1 1 1 1 1 1 1 1 1 1 1 1 1 1 1 1 1 1 1 1 1 1 1 1 1 1 1 1 1 1 1 1 1 1 1 1 1 1 1 1 1 1 1 1 1 1 1 1 1 1 1 1 1 1 1 1 1 1 1 1 1 1 1 1 1 1 1 1 1 1 1 1 1 1 1 1 1 1 1 1 1 1 1 1 1 1 1 1 1 1 1 1 1 1 1 1 1 1 1 1 1 1 1 1 1 1 1 1 1 1 1 1 1 1 1 1 1 1 1 1 1 1 1 1 1 1 1 1 1 1 1 1 1 1 1 1 1 1 1 1 1 1 1 1 1 1 1 1 1 1 1 1 1 1 1 1 1 1 1 1 1 1 1 1 1 1 1 1 1 1 1 1 1 1 1 1 1 1 1 1 1 1 1 1 1 1 1 1 1 1 1 1 1 1 1 1 1 1 1 1 1 1 1 1 1 1 1 1 1 1 1 1 1 1 1 1 1 1 1 1 1 1 1 1 1 1 1 1 1 1 1 1 1 1 1 1 1 1 1 1 1 1 1 1 1 1 1 1 1 1 1 1 1 1 1 1 1 1 1 1 1 1 1 1 1 1 1 1 1 1 1 1 1 1 1 1 1 1 1 1 1 1 1 1 1 1 1 1 1 1 1 1 1 1 1 1 1 1 1 1 1 1 1 1 1 1 1 1 1 1 1 1 1 1 1 1 1 1 1 1 1 1 1 1 1 1 1 1 1 1 1 1 1 1 1 1 1 1 1 1 1 1 1 1 1 1 1 1 1 1 1 1 1 1 1 1 1 1 1 1 1 1 1 1 1 1 1 1 1 1 1 1 1 1 1 1 1 1 1 1 1 1 1 1 1 1 1 1 1 1 1 1 1 1 1 1 1 1 1 1 1 1 1 1 1 1 1 1 1 1 1 1 1 1 1 1 1 1 1 1 1 1 1 1 1 1 1 1 1 1 1 1 1 1 1 1 1 1 1 1 1 1 1 1 1 1 1 1 1 1 1 1 1 1 1 1 1 1 1 1 1 1 1 1 1 1 1 1 1 1 1 1 1 1 1 1 1 1 1 1 1 1 1 1 1 1 1 1 1 1 1 1 1 1 1 1 1 1 1 1 1 1 1 1 1 1 1 1 1 1 1 1 1 1 1 1 1 1 1 1 1 1 1 1 1 1 1 1 1 1 1 1 1 1 1 1 1 1 1 1 1 1 1 1 1 1 1 1 1 1 1 1 1 1 1 1 1 1 1 1 1 1 1 1 1 1 1 1 1 1 1 1 1 1 1 1 1 1 1 1 1 1 1 1 1 1 1 1 1 1 1 1 1 1 1 1 1 1 1 1 1 1 1 1 1 1 1 1 1 1 1 1 1 1 1 1 1 1 1 1 1 1 1 1 1 1 1 1 1 1 1 1 1 1 1 1 1 1 1 1 1 1 1 1 1 1 1 1 1 1 1 1 1 1 1 1 1 1 1 1 1 1 1 1 1 1 1 1 1 1 1 1 1 1 1 1 1 1 1 1 1 1 1 1 1 1 1 1 1 1 1 1 1 1 1 1 1 1 1 1 1 1 1 1 1 1 1 1 1 1 1 1 1 1 1 1 1 1 1 1 1 1 1 1 1 1 1 1 1 1 1 1 1 1 1 1 1 1 1 1 1 1 1 1 1 1 1 1 1 1 1 1 1 1 1 1 1 1 1 1 1 1 1 1 1 1 1 1 1 1 1 1 1 1 1 1 1 1 1 1 1 1 1 1 1 1 1 1 1 1 1 1 1 1 1 1 1 1 1 1 1 1 1 1 1 1 1 1 1 1 1 1 1 1 1 1 1 1 1 1 1 1 1 1 1 1 1 1 1 1 1 1 1 1 1 1 1 1 1 1 1 1 1 1 1 1 1 1 1 1 1 1 1 1 1 1 1 1 1 1 1 1 1 1 1 1 1 1 1 1 1 1 1 1 1 1 1 1 1 1 1 1 1 1 1 1 1 1 1 1 1 1 1 1 1 1 1 1 1 1 1 1 1 1 1 1 1 1 1 1 1 1 1 1 1 1 1 1 1 1 1 1 1 1 1 1 1 1 1 1 1 1 1 1 1 1 1 1 1 1 1 1 1 1 1 1 1 1 1 1 1 1 1 1 1 1 1 1 1 1 1 1 1 1 1 1 1 1 1 1 1 1 1 1 1 1 1 1 1 1 1 1 1 1 1 1 1 1 1 1 1 1 1 1 1 1 1 1 1 1 1 1 1 1 1 1 1 1 1 1 1 1 1 1 1 1 1 1 1 1 1 1 1 1 1 1 1 1 1 1 1 1 1 1 1 1 1 1 1 1 1 1 1 1 1 1 1 1 1 1 1 1 1 1 1 1 1 1 1 1 1 1 1 1 1 1 1 1 1 1 1 1 1 1 1 1 1 1 1 1 1 1 1 1 1 1 1 1 1 1 1 1 1 1 1 1 1 1 1 1 1 1 1 1 1 1 1 1 1 1 1 1 1 1 1 1 1 1 1 1 1 1 1 1 1 1 1 1 1 1 1 1 1 1 1 1 1 1 1 1 1 1 1 1 1 1 1 1 1 1 1 1 1 1 1 1 1 1 1 1 1 1 1 1 1 1 1 1 1 1 1 1 1 1 1 1 1 1 1 1 1 1 1 1 1 1 1 1 1 1 1 1 1 1 1 1 1 1 1 1 1 1 1 1 1 1 1 1 1 1 1 1 1 1 1 1 1 1 1 1 1 1 1 1 1 1 1 1 1 1 1 1 1 1 1 1 1 1 1 1 1 1 1 1 1 1 1 1 1 1 1 1 1 1 1 1 1 1 1 1 1 1 1 1 1 1 1 1 1 1 1 1 1 1 1 1 1 1 1 1 1 1 1 1 1 1 1 1 1 1 1 1 1 1 1 1 1 1 1 1 1 1 1 1 1 1 1 1 1 1 1 1 1 1 1 1 1 1 1 1 1 1 1 1 1 1 1 1 1 1 1 1 1 1 1 1 1 1 1 1 1 1 1 1 1 1 1 1 1 1 1 1 1 1 1 1 1 1 1 1 1 1 1 1 1 1 1 1 1 1 1 1 1 1 1 1 1 1 1 1 1 1 1 1 1 1 1 1 1 1 1 1 1 1 1 1 1 1 1 1 1 1 1 1 1 1 1 1 1 1 1 1 1 1 1 1 1 1 1 1 1 1 1 1 1 1 1 1 1 1 1 1 1 1 1 1 1 1 1 1 1 1 1 1 1 1 1 1 1 1 1 1 1 1 1 1 1 1 1 1 1 1 1 1 1 1 1 1 1 1 1 1 1 1 1 1 1 1 1 1 1 1 1 1 1 1 1 1 1 1 1 1 1 1 1 1 1 1 1 1 1 1 1 1 1 1 1 1 1 1 1 1 1 1 1 1 1 1 1 1 1 1 1 1 1 1 1 1 1 1 1 1 1 1 1 1 1 1 1 1 1 1 1 1 1 1 1 1 1 1 1 1 1 1 1 1 1 1 1 1 1 1 1 1 1 1 1 1 1 1 1 1 1 1 1 1 1 1 1 1 1 1 1 1 1 1 1 1 1 1 1 1 1 1 1 1 1 1 1 1 1 1 1 1 1 1 1 1 1 1 1 1 1 1 1 1 1 1 1 1 1 1 1 1 1 1 1 1 1 1 1 1 1 1 1 1 1 1 1 1 1 1 1 1 1 1 1 1 1 1 1 1 1 1 1 1 1 1 1 1 1 1 1 1 1 1 1 1 1 1 1 1 1 1 1 1 1 1 1 1 1 1 1 1 1 1 1 1 1 1 1 1 1 1 1 1 1 1 1 1 1 1 1 1 1 1 1 1 1 1 1 1 1 1 1 1 1 1 1 1 1 1 1 1 1 1 1 1 1 1 1 1 1 1 1 1 1 1 1 1 1 1 1 1 1 1 1 1 1 1 1 1 1 1 1 1 1 1 1 1 1 1 1 1 1 1 1 1 1 1 1 1 1 1 1 1 1 1 1 1 1 1 1 1 1 1 1 1 1 1 1 1 1 1 1 1 1 1 1 1 1 1 1 1 1 1 1 1 1 1 1 1 1 1 1 1 1 1 1 1 1 1 1 1 1 1 1 1 1 1 1 1 1 1 1 1 1 1 1 1 1 1 1 1 1 1 1 1 1 1 1 1 1 1 1 1 1 1 1 1 1 1 1 1 1 1 1 1 1 ]

}

}
