#VRML V2.0 utf8

Shape {

appearance Appearance { material Material {
ambientIntensity 0.3
diffuseColor 0.97647 0.843137 0.172549
specularColor 0.2 0.2 0.2
shininess 0.3
} }

geometry IndexedFaceSet {

creaseAngle 0.5

coord Coordinate { point [
0 0 0,
0 0 0.483,
0.541719 0.316429 0.483,
0.541719 0.322115 0.483,
0.497839 0.454618 0.483,
0.497839 0.460304 0.483,
0.514038 0.451827 0.483,
0.539359 0.451827 0.483,
0.541719 0.316429 0.683,
0.541719 0.322115 0.683,
0.497839 0.454618 0.683,
0.497839 0.460304 0.683,
0.514038 0.451827 0.683,
0.539359 0.451827 0.683,
0.564572 0.325012 0.483,
0.585279 0.325012 0.483,
0.608132 0.316429 0.483,
0.608132 0.322115 0.483,
0.564572 0.372433 0.483,
0.580666 0.385415 0.483,
0.585279 0.373077 0.483,
0.558671 0.454618 0.483,
0.558671 0.460304 0.483,
0.601694 0.454618 0.483,
0.601694 0.460304 0.483,
0.619933 0.451827 0.483,
0.632701 0.451827 0.483,
0.648471 0.454618 0.483,
0.648471 0.460304 0.483,
0.656529 0.454618 0.483,
0.656529 0.460304 0.483,
0.672729 0.451827 0.483,
0.70041 0.316429 0.483,
0.70041 0.322115 0.483,
0.723262 0.325012 0.483,
0.74397 0.325012 0.483,
0.723262 0.372433 0.483,
0.74397 0.373077 0.483,
0.739356 0.385415 0.483,
0.766822 0.316429 0.483,
0.766822 0.322115 0.483,
0.698049 0.451827 0.483,
0.717361 0.454618 0.483,
0.717361 0.460304 0.483,
0.760384 0.454618 0.483,
0.760384 0.460304 0.483,
0.778623 0.451827 0.483,
0.791391 0.451827 0.483,
0.807162 0.454618 0.483,
0.807162 0.460304 0.483,
0.812967 0.454618 0.483,
0.812967 0.460304 0.483,
0.873155 0.313103 0.483,
0.878842 0.313103 0.483,
0.880988 0.35044 0.483,
0.95448 0.313103 0.483,
0.960166 0.313103 0.483,
0.917145 0.412238 0.483,
0.961883 0.35044 0.483,
0.82552 0.451827 0.483,
0.846763 0.451827 0.483,
0.867899 0.454618 0.483,
0.867899 0.460304 0.483,
0.919719 0.450218 0.483,
0.924547 0.450218 0.483,
1.08056 0.313103 0.483,
1.08625 0.313103 0.483,
1.08839 0.35044 0.483,
0.972077 0.454618 0.483,
0.972077 0.460304 0.483,
0.994499 0.451827 0.483,
1.00716 0.451827 0.483,
1.01971 0.454618 0.483,
1.02037 0.454618 0.483,
1.01971 0.460304 0.483,
1.02037 0.460304 0.483,
1.03292 0.451827 0.483,
1.05417 0.451827 0.483,
1.0753 0.454618 0.483,
1.0753 0.460304 0.483,
0.564572 0.325012 0.683,
0.585279 0.325012 0.683,
0.608132 0.316429 0.683,
0.608132 0.322115 0.683,
0.564572 0.372433 0.683,
0.580666 0.385415 0.683,
0.585279 0.373077 0.683,
0.558671 0.454618 0.683,
0.558671 0.460304 0.683,
0.601694 0.454618 0.683,
0.601694 0.460304 0.683,
0.619933 0.451827 0.683,
0.632701 0.451827 0.683,
0.648471 0.454618 0.683,
0.648471 0.460304 0.683,
0.656529 0.454618 0.683,
0.656529 0.460304 0.683,
0.672729 0.451827 0.683,
0.70041 0.316429 0.683,
0.70041 0.322115 0.683,
0.723262 0.325012 0.683,
0.74397 0.325012 0.683,
0.723262 0.372433 0.683,
0.74397 0.373077 0.683,
0.739356 0.385415 0.683,
0.766822 0.316429 0.683,
0.766822 0.322115 0.683,
0.698049 0.451827 0.683,
0.717361 0.454618 0.683,
0.717361 0.460304 0.683,
0.760384 0.454618 0.683,
0.760384 0.460304 0.683,
0.778623 0.451827 0.683,
0.791391 0.451827 0.683,
0.807162 0.454618 0.683,
0.807162 0.460304 0.683,
0.812967 0.454618 0.683,
0.812967 0.460304 0.683,
0.873155 0.313103 0.683,
0.878842 0.313103 0.683,
0.880988 0.35044 0.683,
0.95448 0.313103 0.683,
0.960166 0.313103 0.683,
0.917145 0.412238 0.683,
0.961883 0.35044 0.683,
0.82552 0.451827 0.683,
0.846763 0.451827 0.683,
0.867899 0.454618 0.683,
0.867899 0.460304 0.683,
0.919719 0.450218 0.683,
0.924547 0.450218 0.683,
1.08056 0.313103 0.683,
1.08625 0.313103 0.683,
1.08839 0.35044 0.683,
0.972077 0.454618 0.683,
0.972077 0.460304 0.683,
0.994499 0.451827 0.683,
1.00716 0.451827 0.683,
1.01971 0.454618 0.683,
1.02037 0.454618 0.683,
1.01971 0.460304 0.683,
1.02037 0.460304 0.683,
1.03292 0.451827 0.683,
1.05417 0.451827 0.683,
1.0753 0.454618 0.683,
1.0753 0.460304 0.683,
0.685927 0.989049 0.483,
0.681045 1.01956 0.483,
0.685739 1.05216 0.483,
0.700572 0.966183 0.483,
0.723961 0.951901 0.483,
0.732988 0.959531 0.483,
0.755075 0.94714 0.483,
0.755291 0.955401 0.483,
0.767172 0.956138 0.483,
0.781334 0.94883 0.483,
0.778357 0.958351 0.483,
0.788066 0.961798 0.483,
0.795523 0.966237 0.483,
0.805823 0.953899 0.483,
0.71672 0.971923 0.483,
0.706782 0.992148 0.483,
0.703469 1.01977 0.483,
0.706634 1.04933 0.483,
0.716129 1.06999 0.483,
0.699821 1.07573 0.483,
0.72313 1.09001 0.483,
0.732518 1.08214 0.483,
0.755504 1.09477 0.483,
0.799492 0.987695 0.483,
0.806467 0.987695 0.483,
0.756363 1.08619 0.483,
0.766569 1.08556 0.483,
0.776586 1.08367 0.483,
0.785907 1.08062 0.483,
0.778759 1.0934 0.483,
0.79724 1.05786 0.483,
0.804321 1.05786 0.483,
0.794021 1.07653 0.483,
0.803677 1.0893 0.483,
0.851323 0.632857 0.483,
0.851323 0.638543 0.483,
0.867632 0.64144 0.483,
0.879326 0.64144 0.483,
0.898639 0.632857 0.483,
0.898639 0.638543 0.483,
0.89381 0.68296 0.483,
0.945417 0.632857 0.483,
0.945417 0.638543 0.483,
0.950459 0.68296 0.483,
0.897028 0.692618 0.483,
0.947133 0.692618 0.483,
0.916663 0.777913 0.483,
0.921705 0.762463 0.483,
0.937047 0.777913 0.483,
0.964728 0.64144 0.483,
0.98801 0.64144 0.483,
1.00625 0.632857 0.483,
1.00625 0.638543 0.483,
1.01559 0.632857 0.483,
1.01559 0.638543 0.483,
1.03265 0.64144 0.483,
1.05336 0.64144 0.483,
1.07514 0.632857 0.483,
1.07514 0.638543 0.483,
1.0142 0.771046 0.483,
1.0142 0.776732 0.483,
1.05336 0.695944 0.483,
1.05336 0.705599 0.483,
1.07235 0.705599 0.483,
1.07922 0.695944 0.483,
1.08878 0.707383 0.483,
1.03265 0.768255 0.483,
1.05336 0.767075 0.483,
1.0717 0.767075 0.483,
1.07632 0.776732 0.483,
1.08875 0.765345 0.483,
0.826326 0.949286 0.483,
0.826326 0.954972 0.483,
0.843384 0.957869 0.483,
0.864091 0.957869 0.483,
0.886944 0.949286 0.483,
0.886944 0.954972 0.483,
0.94714 0.949286 0.483,
0.94714 0.954972 0.483,
0.864091 1.00572 0.483,
0.864091 1.01538 0.483,
0.875249 1.01538 0.483,
0.880291 1.00572 0.483,
0.891006 1.01744 0.483,
0.82493 1.08747 0.483,
0.82493 1.09316 0.483,
0.843384 1.08468 0.483,
0.864091 1.0835 0.483,
0.874605 1.0835 0.483,
0.891315 1.0816 0.483,
0.879218 1.09316 0.483,
0.90238 1.00859 0.483,
0.902017 1.02364 0.483,
0.908495 1.0345 0.483,
0.918647 1.0172 0.483,
0.928665 1.03133 0.483,
0.908588 1.06575 0.483,
0.910654 1.05057 0.483,
0.902392 1.07589 0.483,
0.918808 1.08257 0.483,
0.932005 1.05078 0.483,
0.94714 1.08747 0.483,
0.94714 1.09316 0.483,
0.965594 0.957869 0.483,
0.976859 0.957869 0.483,
0.99617 0.949286 0.483,
0.99617 0.954972 0.483,
1.06559 0.949286 0.483,
1.07599 0.949286 0.483,
0.965594 1.08468 0.483,
0.976859 1.07868 0.483,
0.990699 1.09316 0.483,
1.06473 0.986623 0.483,
1.04542 1.08747 0.483,
1.04542 1.09316 0.483,
1.06473 1.08468 0.483,
1.07599 1.08468 0.483,
1.09445 1.08747 0.483,
1.09445 1.09316 0.483,
0.685927 0.989049 0.683,
0.681045 1.01956 0.683,
0.685739 1.05216 0.683,
0.700572 0.966183 0.683,
0.723961 0.951901 0.683,
0.732988 0.959531 0.683,
0.755075 0.94714 0.683,
0.755291 0.955401 0.683,
0.767172 0.956138 0.683,
0.781334 0.94883 0.683,
0.778357 0.958351 0.683,
0.788066 0.961798 0.683,
0.795523 0.966237 0.683,
0.805823 0.953899 0.683,
0.71672 0.971923 0.683,
0.706782 0.992148 0.683,
0.703469 1.01977 0.683,
0.706634 1.04933 0.683,
0.716129 1.06999 0.683,
0.699821 1.07573 0.683,
0.72313 1.09001 0.683,
0.732518 1.08214 0.683,
0.755504 1.09477 0.683,
0.799492 0.987695 0.683,
0.806467 0.987695 0.683,
0.756363 1.08619 0.683,
0.766569 1.08556 0.683,
0.776586 1.08367 0.683,
0.785907 1.08062 0.683,
0.778759 1.0934 0.683,
0.79724 1.05786 0.683,
0.804321 1.05786 0.683,
0.794021 1.07653 0.683,
0.803677 1.0893 0.683,
0.851323 0.632857 0.683,
0.851323 0.638543 0.683,
0.867632 0.64144 0.683,
0.879326 0.64144 0.683,
0.898639 0.632857 0.683,
0.898639 0.638543 0.683,
0.89381 0.68296 0.683,
0.945417 0.632857 0.683,
0.945417 0.638543 0.683,
0.950459 0.68296 0.683,
0.897028 0.692618 0.683,
0.947133 0.692618 0.683,
0.916663 0.777913 0.683,
0.921705 0.762463 0.683,
0.937047 0.777913 0.683,
0.964728 0.64144 0.683,
0.98801 0.64144 0.683,
1.00625 0.632857 0.683,
1.00625 0.638543 0.683,
1.01559 0.632857 0.683,
1.01559 0.638543 0.683,
1.03265 0.64144 0.683,
1.05336 0.64144 0.683,
1.07514 0.632857 0.683,
1.07514 0.638543 0.683,
1.0142 0.771046 0.683,
1.0142 0.776732 0.683,
1.05336 0.695944 0.683,
1.05336 0.705599 0.683,
1.07235 0.705599 0.683,
1.07922 0.695944 0.683,
1.08878 0.707383 0.683,
1.03265 0.768255 0.683,
1.05336 0.767075 0.683,
1.0717 0.767075 0.683,
1.07632 0.776732 0.683,
1.08875 0.765345 0.683,
0.826326 0.949286 0.683,
0.826326 0.954972 0.683,
0.843384 0.957869 0.683,
0.864091 0.957869 0.683,
0.886944 0.949286 0.683,
0.886944 0.954972 0.683,
0.94714 0.949286 0.683,
0.94714 0.954972 0.683,
0.864091 1.00572 0.683,
0.864091 1.01538 0.683,
0.875249 1.01538 0.683,
0.880291 1.00572 0.683,
0.891006 1.01744 0.683,
0.82493 1.08747 0.683,
0.82493 1.09316 0.683,
0.843384 1.08468 0.683,
0.864091 1.0835 0.683,
0.874605 1.0835 0.683,
0.891315 1.0816 0.683,
0.879218 1.09316 0.683,
0.90238 1.00859 0.683,
0.902017 1.02364 0.683,
0.908495 1.0345 0.683,
0.918647 1.0172 0.683,
0.928665 1.03133 0.683,
0.908588 1.06575 0.683,
0.910654 1.05057 0.683,
0.902392 1.07589 0.683,
0.918808 1.08257 0.683,
0.932005 1.05078 0.683,
0.94714 1.08747 0.683,
0.94714 1.09316 0.683,
0.965594 0.957869 0.683,
0.976859 0.957869 0.683,
0.99617 0.949286 0.683,
0.99617 0.954972 0.683,
1.06559 0.949286 0.683,
1.07599 0.949286 0.683,
0.965594 1.08468 0.683,
0.976859 1.07868 0.683,
0.990699 1.09316 0.683,
1.06473 0.986623 0.683,
1.04542 1.08747 0.683,
1.04542 1.09316 0.683,
1.06473 1.08468 0.683,
1.07599 1.08468 0.683,
1.09445 1.08747 0.683,
1.09445 1.09316 0.683,
0 2.215 0,
0.380079 1.58214 0.483,
0.380079 1.59238 0.483,
0.468334 1.58214 0.483,
0.413296 1.59759 0.483,
0.433573 1.59759 0.483,
0.468334 1.59238 0.483,
0.528395 1.58214 0.483,
0.535153 1.58214 0.483,
0.542686 1.64414 0.483,
0.380079 1.58214 0.683,
0.380079 1.59238 0.683,
0.468334 1.58214 0.683,
0.413296 1.59759 0.683,
0.433573 1.59759 0.683,
0.468334 1.59238 0.683,
0.528395 1.58214 0.683,
0.535153 1.58214 0.683,
0.542686 1.64414 0.683,
0 2.215 0.483,
0.380079 1.83088 0.483,
0.380079 1.84112 0.483,
0.408323 1.90304 0.483,
0.39179 1.92813 0.483,
0.413296 1.82586 0.483,
0.433573 1.80481 0.483,
0.458486 1.84112 0.483,
0.43317 1.88579 0.483,
0.463606 1.88003 0.483,
0.494039 1.88579 0.483,
0.518879 1.90304 0.483,
0.535419 1.92813 0.483,
0.386279 1.95737 0.483,
0.39187 1.9874 0.483,
0.408643 2.01232 0.483,
0.43357 2.0291 0.483,
0.463606 2.0347 0.483,
0.540932 1.95737 0.483,
0.535339 1.9874 0.483,
0.493638 2.0291 0.483,
0.518559 2.01232 0.483,
0.380079 1.83088 0.683,
0.380079 1.84112 0.683,
0.408323 1.90304 0.683,
0.39179 1.92813 0.683,
0.413296 1.82586 0.683,
0.433573 1.80481 0.683,
0.458486 1.84112 0.683,
0.43317 1.88579 0.683,
0.463606 1.88003 0.683,
0.494039 1.88579 0.683,
0.518879 1.90304 0.683,
0.535419 1.92813 0.683,
0.386279 1.95737 0.683,
0.39187 1.9874 0.683,
0.408643 2.01232 0.683,
0.43357 2.0291 0.683,
0.463606 2.0347 0.683,
0.540932 1.95737 0.683,
0.535339 1.9874 0.683,
0.493638 2.0291 0.683,
0.518559 2.01232 0.683,
0.685927 1.30548 0.483,
0.681045 1.33599 0.483,
0.685739 1.36859 0.483,
0.700572 1.28261 0.483,
0.71672 1.28835 0.483,
0.706782 1.30858 0.483,
0.723961 1.26833 0.483,
0.732988 1.27596 0.483,
0.755075 1.26357 0.483,
0.755291 1.27183 0.483,
0.703469 1.3362 0.483,
0.706634 1.36576 0.483,
0.767172 1.27257 0.483,
0.781334 1.26526 0.483,
0.778357 1.27478 0.483,
0.788066 1.27823 0.483,
0.805823 1.27033 0.483,
0.795523 1.28267 0.483,
0.799492 1.30412 0.483,
0.806467 1.30412 0.483,
0.79724 1.37429 0.483,
0.804321 1.37429 0.483,
0.603712 1.58214 0.483,
0.603712 1.59238 0.483,
0.638473 1.59759 0.483,
0.675552 1.59759 0.483,
0.699821 1.39215 0.483,
0.716129 1.38641 0.483,
0.732518 1.39857 0.483,
0.72313 1.40644 0.483,
0.755504 1.4112 0.483,
0.756363 1.40262 0.483,
0.766569 1.40199 0.483,
0.776586 1.40009 0.483,
0.785907 1.39705 0.483,
0.778759 1.40983 0.483,
0.794021 1.39296 0.483,
0.803677 1.40573 0.483,
0.70877 1.58214 0.483,
0.70877 1.59238 0.483,
0.826326 1.26571 0.483,
0.826326 1.2714 0.483,
0.843384 1.2743 0.483,
0.864091 1.2743 0.483,
0.886944 1.26571 0.483,
0.886944 1.2714 0.483,
0.864091 1.32215 0.483,
0.864091 1.33181 0.483,
0.875249 1.33181 0.483,
0.880291 1.32215 0.483,
0.891006 1.33387 0.483,
0.94714 1.26571 0.483,
0.94714 1.2714 0.483,
0.90238 1.32502 0.483,
0.902017 1.34007 0.483,
0.918647 1.33363 0.483,
0.908495 1.35093 0.483,
0.908588 1.38218 0.483,
0.910654 1.367 0.483,
0.928665 1.34776 0.483,
0.932005 1.36721 0.483,
0.965594 1.2743 0.483,
0.976859 1.2743 0.483,
0.99617 1.26571 0.483,
0.99617 1.2714 0.483,
1.06473 1.30305 0.483,
1.06559 1.26571 0.483,
1.07599 1.26571 0.483,
0.82493 1.4039 0.483,
0.82493 1.40959 0.483,
0.843384 1.40111 0.483,
0.864091 1.39993 0.483,
0.874605 1.39993 0.483,
0.891315 1.39803 0.483,
0.879218 1.40959 0.483,
0.902392 1.39231 0.483,
0.918808 1.39899 0.483,
0.94714 1.4039 0.483,
0.94714 1.40959 0.483,
0.83317 1.58214 0.483,
0.83317 1.59238 0.483,
0.863875 1.59759 0.483,
0.942283 1.58214 0.483,
0.901148 1.59759 0.483,
0.942283 1.59238 0.483,
0.965594 1.40111 0.483,
0.976859 1.39511 0.483,
0.990699 1.40959 0.483,
1.04542 1.4039 0.483,
1.04542 1.40959 0.483,
1.06473 1.40111 0.483,
1.07599 1.40111 0.483,
1.09445 1.4039 0.483,
1.09445 1.40959 0.483,
1.05353 1.58214 0.483,
1.05353 1.59238 0.483,
1.08675 1.59759 0.483,
0.685927 1.30548 0.683,
0.681045 1.33599 0.683,
0.685739 1.36859 0.683,
0.700572 1.28261 0.683,
0.71672 1.28835 0.683,
0.706782 1.30858 0.683,
0.723961 1.26833 0.683,
0.732988 1.27596 0.683,
0.755075 1.26357 0.683,
0.755291 1.27183 0.683,
0.703469 1.3362 0.683,
0.706634 1.36576 0.683,
0.767172 1.27257 0.683,
0.781334 1.26526 0.683,
0.778357 1.27478 0.683,
0.788066 1.27823 0.683,
0.805823 1.27033 0.683,
0.795523 1.28267 0.683,
0.799492 1.30412 0.683,
0.806467 1.30412 0.683,
0.79724 1.37429 0.683,
0.804321 1.37429 0.683,
0.603712 1.58214 0.683,
0.603712 1.59238 0.683,
0.638473 1.59759 0.683,
0.675552 1.59759 0.683,
0.699821 1.39215 0.683,
0.716129 1.38641 0.683,
0.732518 1.39857 0.683,
0.72313 1.40644 0.683,
0.755504 1.4112 0.683,
0.756363 1.40262 0.683,
0.766569 1.40199 0.683,
0.776586 1.40009 0.683,
0.785907 1.39705 0.683,
0.778759 1.40983 0.683,
0.794021 1.39296 0.683,
0.803677 1.40573 0.683,
0.70877 1.58214 0.683,
0.70877 1.59238 0.683,
0.826326 1.26571 0.683,
0.826326 1.2714 0.683,
0.843384 1.2743 0.683,
0.864091 1.2743 0.683,
0.886944 1.26571 0.683,
0.886944 1.2714 0.683,
0.864091 1.32215 0.683,
0.864091 1.33181 0.683,
0.875249 1.33181 0.683,
0.880291 1.32215 0.683,
0.891006 1.33387 0.683,
0.94714 1.26571 0.683,
0.94714 1.2714 0.683,
0.90238 1.32502 0.683,
0.902017 1.34007 0.683,
0.918647 1.33363 0.683,
0.908495 1.35093 0.683,
0.908588 1.38218 0.683,
0.910654 1.367 0.683,
0.928665 1.34776 0.683,
0.932005 1.36721 0.683,
0.965594 1.2743 0.683,
0.976859 1.2743 0.683,
0.99617 1.26571 0.683,
0.99617 1.2714 0.683,
1.06473 1.30305 0.683,
1.06559 1.26571 0.683,
1.07599 1.26571 0.683,
0.82493 1.4039 0.683,
0.82493 1.40959 0.683,
0.843384 1.40111 0.683,
0.864091 1.39993 0.683,
0.874605 1.39993 0.683,
0.891315 1.39803 0.683,
0.879218 1.40959 0.683,
0.902392 1.39231 0.683,
0.918808 1.39899 0.683,
0.94714 1.4039 0.683,
0.94714 1.40959 0.683,
0.83317 1.58214 0.683,
0.83317 1.59238 0.683,
0.863875 1.59759 0.683,
0.942283 1.58214 0.683,
0.901148 1.59759 0.683,
0.942283 1.59238 0.683,
0.965594 1.40111 0.683,
0.976859 1.39511 0.683,
0.990699 1.40959 0.683,
1.04542 1.4039 0.683,
1.04542 1.40959 0.683,
1.06473 1.40111 0.683,
1.07599 1.40111 0.683,
1.09445 1.4039 0.683,
1.09445 1.40959 0.683,
1.05353 1.58214 0.683,
1.05353 1.59238 0.683,
1.08675 1.59759 0.683,
0.638473 1.80481 0.483,
0.634612 1.84112 0.483,
0.675552 1.82586 0.483,
0.70877 1.83088 0.483,
0.70877 1.84112 0.483,
0.901148 1.68372 0.483,
0.901148 1.70111 0.483,
0.921231 1.70111 0.483,
0.930307 1.68372 0.483,
0.949595 1.70482 0.483,
0.830658 1.83088 0.483,
0.830658 1.84112 0.483,
0.863875 1.82586 0.483,
0.901148 1.82374 0.483,
0.920072 1.82374 0.483,
0.950151 1.82031 0.483,
0.928377 1.84112 0.483,
0.970067 1.68889 0.483,
0.969414 1.71598 0.483,
0.999348 1.70439 0.483,
1.01738 1.72983 0.483,
0.981074 1.73553 0.483,
0.984961 1.76445 0.483,
0.981243 1.79177 0.483,
1.02339 1.76484 0.483,
0.970089 1.81002 0.483,
0.999638 1.82205 0.483,
1.05353 1.83088 0.483,
1.05353 1.84112 0.483,
1.08675 1.82586 0.483,
0.638473 1.80481 0.683,
0.634612 1.84112 0.683,
0.675552 1.82586 0.683,
0.70877 1.83088 0.683,
0.70877 1.84112 0.683,
0.901148 1.68372 0.683,
0.901148 1.70111 0.683,
0.921231 1.70111 0.683,
0.930307 1.68372 0.683,
0.949595 1.70482 0.683,
0.830658 1.83088 0.683,
0.830658 1.84112 0.683,
0.863875 1.82586 0.683,
0.901148 1.82374 0.683,
0.920072 1.82374 0.683,
0.950151 1.82031 0.683,
0.928377 1.84112 0.683,
0.970067 1.68889 0.683,
0.969414 1.71598 0.683,
0.999348 1.70439 0.683,
1.01738 1.72983 0.683,
0.981074 1.73553 0.683,
0.984961 1.76445 0.683,
0.981243 1.79177 0.683,
1.02339 1.76484 0.683,
0.970089 1.81002 0.683,
0.999638 1.82205 0.683,
1.05353 1.83088 0.683,
1.05353 1.84112 0.683,
1.08675 1.82586 0.683,
2.199 0 0,
1.16188 0.313103 0.483,
1.16757 0.313103 0.483,
1.12455 0.412238 0.483,
1.23389 0.316429 0.483,
1.23389 0.322115 0.483,
1.16929 0.35044 0.483,
1.12712 0.450218 0.483,
1.13195 0.450218 0.483,
1.17948 0.454618 0.483,
1.17948 0.460304 0.483,
1.2019 0.451827 0.483,
1.21456 0.451827 0.483,
1.22711 0.454618 0.483,
1.22711 0.460304 0.483,
1.23389 0.454618 0.483,
1.23389 0.460304 0.483,
1.25234 0.325012 0.483,
1.26361 0.325012 0.483,
1.28292 0.316429 0.483,
1.28292 0.322115 0.483,
1.35234 0.316429 0.483,
1.36274 0.316429 0.483,
1.35148 0.353766 0.483,
1.26361 0.445819 0.483,
1.25234 0.451827 0.483,
1.27745 0.460304 0.483,
1.33216 0.454618 0.483,
1.33216 0.460304 0.483,
1.35148 0.451827 0.483,
1.36274 0.451827 0.483,
1.39258 0.316429 0.483,
1.39258 0.322115 0.483,
1.41103 0.325012 0.483,
1.4223 0.325012 0.483,
1.44161 0.316429 0.483,
1.44161 0.322115 0.483,
1.51103 0.316429 0.483,
1.51017 0.353766 0.483,
1.3812 0.454618 0.483,
1.3812 0.460304 0.483,
1.39258 0.454618 0.483,
1.39258 0.460304 0.483,
1.4223 0.445819 0.483,
1.41103 0.451827 0.483,
1.43614 0.460304 0.483,
1.49085 0.454618 0.483,
1.49085 0.460304 0.483,
1.51017 0.451827 0.483,
1.52143 0.316429 0.483,
1.55127 0.316429 0.483,
1.55127 0.322115 0.483,
1.56972 0.325012 0.483,
1.58099 0.325012 0.483,
1.6003 0.316429 0.483,
1.6003 0.322115 0.483,
1.52143 0.451827 0.483,
1.53989 0.454618 0.483,
1.53989 0.460304 0.483,
1.55127 0.454618 0.483,
1.55127 0.460304 0.483,
1.56972 0.451827 0.483,
1.58099 0.445819 0.483,
1.59483 0.460304 0.483,
1.16188 0.313103 0.683,
1.16757 0.313103 0.683,
1.12455 0.412238 0.683,
1.23389 0.316429 0.683,
1.23389 0.322115 0.683,
1.16929 0.35044 0.683,
1.12712 0.450218 0.683,
1.13195 0.450218 0.683,
1.17948 0.454618 0.683,
1.17948 0.460304 0.683,
1.2019 0.451827 0.683,
1.21456 0.451827 0.683,
1.22711 0.454618 0.683,
1.22711 0.460304 0.683,
1.23389 0.454618 0.683,
1.23389 0.460304 0.683,
1.25234 0.325012 0.683,
1.26361 0.325012 0.683,
1.28292 0.316429 0.683,
1.28292 0.322115 0.683,
1.35234 0.316429 0.683,
1.36274 0.316429 0.683,
1.35148 0.353766 0.683,
1.26361 0.445819 0.683,
1.25234 0.451827 0.683,
1.27745 0.460304 0.683,
1.33216 0.454618 0.683,
1.33216 0.460304 0.683,
1.35148 0.451827 0.683,
1.36274 0.451827 0.683,
1.39258 0.316429 0.683,
1.39258 0.322115 0.683,
1.41103 0.325012 0.683,
1.4223 0.325012 0.683,
1.44161 0.316429 0.683,
1.44161 0.322115 0.683,
1.51103 0.316429 0.683,
1.51017 0.353766 0.683,
1.3812 0.454618 0.683,
1.3812 0.460304 0.683,
1.39258 0.454618 0.683,
1.39258 0.460304 0.683,
1.4223 0.445819 0.683,
1.41103 0.451827 0.683,
1.43614 0.460304 0.683,
1.49085 0.454618 0.683,
1.49085 0.460304 0.683,
1.51017 0.451827 0.683,
1.52143 0.316429 0.683,
1.55127 0.316429 0.683,
1.55127 0.322115 0.683,
1.56972 0.325012 0.683,
1.58099 0.325012 0.683,
1.6003 0.316429 0.683,
1.6003 0.322115 0.683,
1.52143 0.451827 0.683,
1.53989 0.454618 0.683,
1.53989 0.460304 0.683,
1.55127 0.454618 0.683,
1.55127 0.460304 0.683,
1.56972 0.451827 0.683,
1.58099 0.445819 0.683,
1.59483 0.460304 0.683,
1.11966 0.632857 0.483,
1.13855 0.64144 0.483,
1.1541 0.632857 0.483,
1.1541 0.638543 0.483,
1.16077 0.632857 0.483,
1.16077 0.638543 0.483,
1.17922 0.64144 0.483,
1.19048 0.64144 0.483,
1.2098 0.632857 0.483,
1.2098 0.638543 0.483,
1.0996 0.698948 0.483,
1.11194 0.70462 0.483,
1.09965 0.712733 0.483,
1.10573 0.722323 0.483,
1.12127 0.713485 0.483,
1.12715 0.724925 0.483,
1.10775 0.73682 0.483,
1.10576 0.750862 0.483,
1.09976 0.760155 0.483,
1.12911 0.738323 0.483,
1.12589 0.75573 0.483,
1.09981 0.774452 0.483,
1.11623 0.767611 0.483,
1.16077 0.771046 0.483,
1.16077 0.776732 0.483,
1.19048 0.756562 0.483,
1.17922 0.768255 0.483,
1.20432 0.776732 0.483,
1.24316 0.632857 0.483,
1.24692 0.632857 0.483,
1.2511 0.667297 0.483,
1.28501 0.632857 0.483,
1.28501 0.638543 0.483,
1.30432 0.64144 0.483,
1.32492 0.64144 0.483,
1.34337 0.632857 0.483,
1.34337 0.638543 0.483,
1.30432 0.756562 0.483,
1.30217 0.776732 0.483,
1.32492 0.768255 0.483,
1.34337 0.771046 0.483,
1.34337 0.776732 0.483,
1.12804 0.966183 0.483,
1.15143 0.951901 0.483,
1.16045 0.959531 0.483,
1.18254 0.94714 0.483,
1.18276 0.955401 0.483,
1.19464 0.956138 0.483,
1.2088 0.94883 0.483,
1.20582 0.958351 0.483,
1.21553 0.961798 0.483,
1.22299 0.966237 0.483,
1.23329 0.953899 0.483,
1.11339 0.989049 0.483,
1.10851 1.01956 0.483,
1.13094 1.01977 0.483,
1.14419 0.971923 0.483,
1.13425 0.992148 0.483,
1.11321 1.05216 0.483,
1.12729 1.07573 0.483,
1.1341 1.04933 0.483,
1.1436 1.06999 0.483,
1.1506 1.09001 0.483,
1.15998 1.08214 0.483,
1.22696 0.987695 0.483,
1.23393 0.987695 0.483,
1.18383 1.08619 0.483,
1.18297 1.09477 0.483,
1.19404 1.08556 0.483,
1.22471 1.05786 0.483,
1.23179 1.05786 0.483,
1.20405 1.08367 0.483,
1.21337 1.08062 0.483,
1.20623 1.0934 0.483,
1.22149 1.07653 0.483,
1.23114 1.0893 0.483,
1.25379 0.949286 0.483,
1.25379 0.954972 0.483,
1.27085 0.957869 0.483,
1.29156 0.957869 0.483,
1.31441 0.949286 0.483,
1.31441 0.954972 0.483,
1.29156 1.00572 0.483,
1.29156 1.01538 0.483,
1.30272 1.01538 0.483,
1.2524 1.08747 0.483,
1.2524 1.09316 0.483,
1.27085 1.08468 0.483,
1.29156 1.0835 0.483,
1.30207 1.0835 0.483,
1.30776 1.00572 0.483,
1.31847 1.01744 0.483,
1.32985 1.00859 0.483,
1.32948 1.02364 0.483,
1.33596 1.0345 0.483,
1.34611 1.0172 0.483,
1.35613 1.03133 0.483,
1.33812 1.05057 0.483,
1.33605 1.06575 0.483,
1.31878 1.0816 0.483,
1.30668 1.09316 0.483,
1.32986 1.07589 0.483,
1.35947 1.05078 0.483,
1.34627 1.08257 0.483,
1.37461 0.949286 0.483,
1.37461 0.954972 0.483,
1.39306 0.957869 0.483,
1.40433 0.957869 0.483,
1.42364 0.949286 0.483,
1.42364 0.954972 0.483,
1.49305 0.949286 0.483,
1.50346 0.949286 0.483,
1.37461 1.08747 0.483,
1.37461 1.09316 0.483,
1.39306 1.08468 0.483,
1.40433 1.07868 0.483,
1.41817 1.09316 0.483,
1.49219 0.986623 0.483,
1.47288 1.08747 0.483,
1.47288 1.09316 0.483,
1.49219 1.08468 0.483,
1.50346 1.08468 0.483,
1.52191 1.08747 0.483,
1.52191 1.09316 0.483,
1.11966 0.632857 0.683,
1.13855 0.64144 0.683,
1.1541 0.632857 0.683,
1.1541 0.638543 0.683,
1.16077 0.632857 0.683,
1.16077 0.638543 0.683,
1.17922 0.64144 0.683,
1.19048 0.64144 0.683,
1.2098 0.632857 0.683,
1.2098 0.638543 0.683,
1.0996 0.698948 0.683,
1.11194 0.70462 0.683,
1.09965 0.712733 0.683,
1.10573 0.722323 0.683,
1.12127 0.713485 0.683,
1.12715 0.724925 0.683,
1.10775 0.73682 0.683,
1.10576 0.750862 0.683,
1.09976 0.760155 0.683,
1.12911 0.738323 0.683,
1.12589 0.75573 0.683,
1.09981 0.774452 0.683,
1.11623 0.767611 0.683,
1.16077 0.771046 0.683,
1.16077 0.776732 0.683,
1.19048 0.756562 0.683,
1.17922 0.768255 0.683,
1.20432 0.776732 0.683,
1.24316 0.632857 0.683,
1.24692 0.632857 0.683,
1.2511 0.667297 0.683,
1.28501 0.632857 0.683,
1.28501 0.638543 0.683,
1.30432 0.64144 0.683,
1.32492 0.64144 0.683,
1.34337 0.632857 0.683,
1.34337 0.638543 0.683,
1.30432 0.756562 0.683,
1.30217 0.776732 0.683,
1.32492 0.768255 0.683,
1.34337 0.771046 0.683,
1.34337 0.776732 0.683,
1.12804 0.966183 0.683,
1.15143 0.951901 0.683,
1.16045 0.959531 0.683,
1.18254 0.94714 0.683,
1.18276 0.955401 0.683,
1.19464 0.956138 0.683,
1.2088 0.94883 0.683,
1.20582 0.958351 0.683,
1.21553 0.961798 0.683,
1.22299 0.966237 0.683,
1.23329 0.953899 0.683,
1.11339 0.989049 0.683,
1.10851 1.01956 0.683,
1.13094 1.01977 0.683,
1.14419 0.971923 0.683,
1.13425 0.992148 0.683,
1.11321 1.05216 0.683,
1.12729 1.07573 0.683,
1.1341 1.04933 0.683,
1.1436 1.06999 0.683,
1.1506 1.09001 0.683,
1.15998 1.08214 0.683,
1.22696 0.987695 0.683,
1.23393 0.987695 0.683,
1.18383 1.08619 0.683,
1.18297 1.09477 0.683,
1.19404 1.08556 0.683,
1.22471 1.05786 0.683,
1.23179 1.05786 0.683,
1.20405 1.08367 0.683,
1.21337 1.08062 0.683,
1.20623 1.0934 0.683,
1.22149 1.07653 0.683,
1.23114 1.0893 0.683,
1.25379 0.949286 0.683,
1.25379 0.954972 0.683,
1.27085 0.957869 0.683,
1.29156 0.957869 0.683,
1.31441 0.949286 0.683,
1.31441 0.954972 0.683,
1.29156 1.00572 0.683,
1.29156 1.01538 0.683,
1.30272 1.01538 0.683,
1.2524 1.08747 0.683,
1.2524 1.09316 0.683,
1.27085 1.08468 0.683,
1.29156 1.0835 0.683,
1.30207 1.0835 0.683,
1.30776 1.00572 0.683,
1.31847 1.01744 0.683,
1.32985 1.00859 0.683,
1.32948 1.02364 0.683,
1.33596 1.0345 0.683,
1.34611 1.0172 0.683,
1.35613 1.03133 0.683,
1.33812 1.05057 0.683,
1.33605 1.06575 0.683,
1.31878 1.0816 0.683,
1.30668 1.09316 0.683,
1.32986 1.07589 0.683,
1.35947 1.05078 0.683,
1.34627 1.08257 0.683,
1.37461 0.949286 0.683,
1.37461 0.954972 0.683,
1.39306 0.957869 0.683,
1.40433 0.957869 0.683,
1.42364 0.949286 0.683,
1.42364 0.954972 0.683,
1.49305 0.949286 0.683,
1.50346 0.949286 0.683,
1.37461 1.08747 0.683,
1.37461 1.09316 0.683,
1.39306 1.08468 0.683,
1.40433 1.07868 0.683,
1.41817 1.09316 0.683,
1.49219 0.986623 0.683,
1.47288 1.08747 0.683,
1.47288 1.09316 0.683,
1.49219 1.08468 0.683,
1.50346 1.08468 0.683,
1.52191 1.08747 0.683,
1.52191 1.09316 0.683,
1.66972 0.316429 0.483,
1.68012 0.316429 0.483,
1.66886 0.353766 0.483,
1.64955 0.454618 0.483,
1.64955 0.460304 0.483,
1.66886 0.451827 0.483,
1.68012 0.451827 0.483,
1.69858 0.454618 0.483,
1.69858 0.460304 0.483,
2.199 0 0.483,
1.66972 0.316429 0.683,
1.68012 0.316429 0.683,
1.66886 0.353766 0.683,
1.64955 0.454618 0.683,
1.64955 0.460304 0.683,
1.66886 0.451827 0.683,
1.68012 0.451827 0.683,
1.69858 0.454618 0.683,
1.69858 0.460304 0.683,
2.199 2.215 0,
1.11339 1.30548 0.483,
1.12804 1.28261 0.483,
1.15143 1.26833 0.483,
1.16045 1.27596 0.483,
1.14419 1.28835 0.483,
1.13425 1.30858 0.483,
1.10851 1.33599 0.483,
1.13094 1.3362 0.483,
1.11321 1.36859 0.483,
1.1341 1.36576 0.483,
1.18254 1.26357 0.483,
1.18276 1.27183 0.483,
1.19464 1.27257 0.483,
1.2088 1.26526 0.483,
1.20582 1.27478 0.483,
1.21553 1.27823 0.483,
1.23329 1.27033 0.483,
1.22299 1.28267 0.483,
1.22696 1.30412 0.483,
1.23393 1.30412 0.483,
1.22471 1.37429 0.483,
1.23179 1.37429 0.483,
1.25379 1.26571 0.483,
1.25379 1.2714 0.483,
1.27085 1.2743 0.483,
1.29156 1.2743 0.483,
1.29156 1.32215 0.483,
1.29156 1.33181 0.483,
1.30272 1.33181 0.483,
1.31441 1.26571 0.483,
1.31441 1.2714 0.483,
1.30776 1.32215 0.483,
1.31847 1.33387 0.483,
1.32985 1.32502 0.483,
1.32948 1.34007 0.483,
1.33596 1.35093 0.483,
1.33812 1.367 0.483,
1.33605 1.38218 0.483,
1.34611 1.33363 0.483,
1.35613 1.34776 0.483,
1.35947 1.36721 0.483,
1.12729 1.39215 0.483,
1.1436 1.38641 0.483,
1.1506 1.40644 0.483,
1.15998 1.39857 0.483,
1.18383 1.40262 0.483,
1.18297 1.4112 0.483,
1.19404 1.40199 0.483,
1.20405 1.40009 0.483,
1.21337 1.39705 0.483,
1.20623 1.40983 0.483,
1.22149 1.39296 0.483,
1.23114 1.40573 0.483,
1.15705 1.58214 0.483,
1.12383 1.59759 0.483,
1.15705 1.59238 0.483,
1.19597 1.65372 0.483,
1.22233 1.61256 0.483,
1.2335 1.65929 0.483,
1.2524 1.4039 0.483,
1.2524 1.40959 0.483,
1.27085 1.40111 0.483,
1.29156 1.39993 0.483,
1.30207 1.39993 0.483,
1.31878 1.39803 0.483,
1.30668 1.40959 0.483,
1.32986 1.39231 0.483,
1.34627 1.39899 0.483,
1.26443 1.58685 0.483,
1.25139 1.62289 0.483,
1.28067 1.60058 0.483,
1.32043 1.57828 0.483,
1.3677 1.58132 0.483,
1.32082 1.59315 0.483,
1.34221 1.59448 0.483,
1.36234 1.59846 0.483,
1.37461 1.26571 0.483,
1.37461 1.2714 0.483,
1.39306 1.2743 0.483,
1.40433 1.2743 0.483,
1.42364 1.26571 0.483,
1.42364 1.2714 0.483,
1.49305 1.26571 0.483,
1.50346 1.26571 0.483,
1.49219 1.30305 0.483,
1.37461 1.4039 0.483,
1.37461 1.40959 0.483,
1.39306 1.40111 0.483,
1.40433 1.39511 0.483,
1.41817 1.40959 0.483,
1.47288 1.4039 0.483,
1.47288 1.40959 0.483,
1.49219 1.40111 0.483,
1.50346 1.40111 0.483,
1.41178 1.59045 0.483,
1.37982 1.60467 0.483,
1.39324 1.61265 0.483,
1.40038 1.65128 0.483,
1.41294 1.65128 0.483,
1.45583 1.58659 0.483,
1.48962 1.58036 0.483,
1.47514 1.60474 0.483,
1.4537 1.64105 0.483,
1.46645 1.64105 0.483,
1.48424 1.60078 0.483,
1.49648 1.5974 0.483,
1.50983 1.59508 0.483,
1.52191 1.4039 0.483,
1.52191 1.40959 0.483,
1.52535 1.57828 0.483,
1.56422 1.58321 0.483,
1.52226 1.59431 0.483,
1.54862 1.59778 0.483,
1.56707 1.60821 0.483,
1.57793 1.62675 0.483,
1.59313 1.59798 0.483,
1.6111 1.62149 0.483,
1.58155 1.65456 0.483,
1.61708 1.65263 0.483,
1.11339 1.30548 0.683,
1.12804 1.28261 0.683,
1.15143 1.26833 0.683,
1.16045 1.27596 0.683,
1.14419 1.28835 0.683,
1.13425 1.30858 0.683,
1.10851 1.33599 0.683,
1.13094 1.3362 0.683,
1.11321 1.36859 0.683,
1.1341 1.36576 0.683,
1.18254 1.26357 0.683,
1.18276 1.27183 0.683,
1.19464 1.27257 0.683,
1.2088 1.26526 0.683,
1.20582 1.27478 0.683,
1.21553 1.27823 0.683,
1.23329 1.27033 0.683,
1.22299 1.28267 0.683,
1.22696 1.30412 0.683,
1.23393 1.30412 0.683,
1.22471 1.37429 0.683,
1.23179 1.37429 0.683,
1.25379 1.26571 0.683,
1.25379 1.2714 0.683,
1.27085 1.2743 0.683,
1.29156 1.2743 0.683,
1.29156 1.32215 0.683,
1.29156 1.33181 0.683,
1.30272 1.33181 0.683,
1.31441 1.26571 0.683,
1.31441 1.2714 0.683,
1.30776 1.32215 0.683,
1.31847 1.33387 0.683,
1.32985 1.32502 0.683,
1.32948 1.34007 0.683,
1.33596 1.35093 0.683,
1.33812 1.367 0.683,
1.33605 1.38218 0.683,
1.34611 1.33363 0.683,
1.35613 1.34776 0.683,
1.35947 1.36721 0.683,
1.12729 1.39215 0.683,
1.1436 1.38641 0.683,
1.1506 1.40644 0.683,
1.15998 1.39857 0.683,
1.18383 1.40262 0.683,
1.18297 1.4112 0.683,
1.19404 1.40199 0.683,
1.20405 1.40009 0.683,
1.21337 1.39705 0.683,
1.20623 1.40983 0.683,
1.22149 1.39296 0.683,
1.23114 1.40573 0.683,
1.15705 1.58214 0.683,
1.12383 1.59759 0.683,
1.15705 1.59238 0.683,
1.19597 1.65372 0.683,
1.22233 1.61256 0.683,
1.2335 1.65929 0.683,
1.2524 1.4039 0.683,
1.2524 1.40959 0.683,
1.27085 1.40111 0.683,
1.29156 1.39993 0.683,
1.30207 1.39993 0.683,
1.31878 1.39803 0.683,
1.30668 1.40959 0.683,
1.32986 1.39231 0.683,
1.34627 1.39899 0.683,
1.26443 1.58685 0.683,
1.25139 1.62289 0.683,
1.28067 1.60058 0.683,
1.32043 1.57828 0.683,
1.3677 1.58132 0.683,
1.32082 1.59315 0.683,
1.34221 1.59448 0.683,
1.36234 1.59846 0.683,
1.37461 1.26571 0.683,
1.37461 1.2714 0.683,
1.39306 1.2743 0.683,
1.40433 1.2743 0.683,
1.42364 1.26571 0.683,
1.42364 1.2714 0.683,
1.49305 1.26571 0.683,
1.50346 1.26571 0.683,
1.49219 1.30305 0.683,
1.37461 1.4039 0.683,
1.37461 1.40959 0.683,
1.39306 1.40111 0.683,
1.40433 1.39511 0.683,
1.41817 1.40959 0.683,
1.47288 1.4039 0.683,
1.47288 1.40959 0.683,
1.49219 1.40111 0.683,
1.50346 1.40111 0.683,
1.41178 1.59045 0.683,
1.37982 1.60467 0.683,
1.39324 1.61265 0.683,
1.40038 1.65128 0.683,
1.41294 1.65128 0.683,
1.45583 1.58659 0.683,
1.48962 1.58036 0.683,
1.47514 1.60474 0.683,
1.4537 1.64105 0.683,
1.46645 1.64105 0.683,
1.48424 1.60078 0.683,
1.49648 1.5974 0.683,
1.50983 1.59508 0.683,
1.52191 1.4039 0.683,
1.52191 1.40959 0.683,
1.52535 1.57828 0.683,
1.56422 1.58321 0.683,
1.52226 1.59431 0.683,
1.54862 1.59778 0.683,
1.56707 1.60821 0.683,
1.57793 1.62675 0.683,
1.59313 1.59798 0.683,
1.6111 1.62149 0.683,
1.58155 1.65456 0.683,
1.61708 1.65263 0.683,
1.18718 1.70864 0.483,
1.22754 1.70902 0.483,
1.19563 1.76732 0.483,
1.23324 1.76223 0.483,
1.12383 1.82586 0.483,
1.15705 1.83088 0.483,
1.15705 1.84112 0.483,
1.22097 1.80974 0.483,
1.25033 1.7994 0.483,
1.26293 1.83544 0.483,
1.27983 1.82127 0.483,
1.32275 1.82857 0.483,
1.3212 1.84401 0.483,
1.34112 1.82743 0.483,
1.35915 1.82403 0.483,
1.36306 1.84155 0.483,
1.39633 1.77758 0.483,
1.40907 1.77758 0.483,
1.49928 1.70941 0.483,
1.49928 1.72524 0.483,
1.46162 1.78588 0.483,
1.47437 1.78588 0.483,
1.39054 1.81118 0.483,
1.37593 1.81855 0.483,
1.40792 1.83416 0.483,
1.46162 1.83571 0.483,
1.48113 1.81756 0.483,
1.4903 1.82173 0.483,
1.50082 1.82499 0.483,
1.51178 1.82709 0.483,
1.47943 1.83989 0.483,
1.49464 1.84237 0.483,
1.5085 1.8436 0.483,
1.5269 1.70786 0.483,
1.5269 1.72698 0.483,
1.57822 1.67699 0.483,
1.56822 1.69328 0.483,
1.55123 1.70354 0.483,
1.54872 1.71771 0.483,
1.57923 1.71064 0.483,
1.57269 1.72459 0.483,
1.54587 1.73094 0.483,
1.55915 1.7405 0.483,
1.56697 1.75605 0.483,
1.56957 1.77797 0.483,
1.61293 1.67825 0.483,
1.60047 1.69753 0.483,
1.59053 1.73751 0.483,
1.60161 1.75617 0.483,
1.6053 1.78029 0.483,
1.52226 1.82779 0.483,
1.54362 1.82482 0.483,
1.52226 1.84401 0.483,
1.55828 1.81591 0.483,
1.56675 1.80049 0.483,
1.58454 1.82808 0.483,
1.18718 1.70864 0.683,
1.22754 1.70902 0.683,
1.19563 1.76732 0.683,
1.23324 1.76223 0.683,
1.12383 1.82586 0.683,
1.15705 1.83088 0.683,
1.15705 1.84112 0.683,
1.22097 1.80974 0.683,
1.25033 1.7994 0.683,
1.26293 1.83544 0.683,
1.27983 1.82127 0.683,
1.32275 1.82857 0.683,
1.3212 1.84401 0.683,
1.34112 1.82743 0.683,
1.35915 1.82403 0.683,
1.36306 1.84155 0.683,
1.39633 1.77758 0.683,
1.40907 1.77758 0.683,
1.49928 1.70941 0.683,
1.49928 1.72524 0.683,
1.46162 1.78588 0.683,
1.47437 1.78588 0.683,
1.39054 1.81118 0.683,
1.37593 1.81855 0.683,
1.40792 1.83416 0.683,
1.46162 1.83571 0.683,
1.48113 1.81756 0.683,
1.4903 1.82173 0.683,
1.50082 1.82499 0.683,
1.51178 1.82709 0.683,
1.47943 1.83989 0.683,
1.49464 1.84237 0.683,
1.5085 1.8436 0.683,
1.5269 1.70786 0.683,
1.5269 1.72698 0.683,
1.57822 1.67699 0.683,
1.56822 1.69328 0.683,
1.55123 1.70354 0.683,
1.54872 1.71771 0.683,
1.57923 1.71064 0.683,
1.57269 1.72459 0.683,
1.54587 1.73094 0.683,
1.55915 1.7405 0.683,
1.56697 1.75605 0.683,
1.56957 1.77797 0.683,
1.61293 1.67825 0.683,
1.60047 1.69753 0.683,
1.59053 1.73751 0.683,
1.60161 1.75617 0.683,
1.6053 1.78029 0.683,
1.52226 1.82779 0.683,
1.54362 1.82482 0.683,
1.52226 1.84401 0.683,
1.55828 1.81591 0.683,
1.56675 1.80049 0.683,
1.58454 1.82808 0.683,
1.64993 1.58214 0.483,
1.64993 1.61053 0.483,
1.67523 1.61188 0.483,
1.68585 1.64317 0.483,
1.69401 1.62873 0.483,
1.71173 1.64414 0.483,
1.80848 1.58214 0.483,
1.80848 1.61188 0.483,
1.64993 1.58214 0.683,
1.64993 1.61053 0.683,
1.67523 1.61188 0.683,
1.68585 1.64317 0.683,
1.69401 1.62873 0.683,
1.71173 1.64414 0.683,
1.80848 1.58214 0.683,
1.80848 1.61188 0.683,
1.71583 1.67059 0.483,
1.65862 1.78588 0.483,
1.67136 1.78588 0.483,
1.7462 1.67453 0.483,
1.73664 1.69222 0.483,
1.75057 1.71124 0.483,
1.76927 1.69734 0.483,
1.78441 1.71641 0.483,
1.75991 1.73084 0.483,
1.7652 1.75218 0.483,
1.76696 1.77642 0.483,
1.76411 1.79853 0.483,
1.67812 1.81756 0.483,
1.65862 1.83571 0.483,
1.68705 1.82173 0.483,
1.69724 1.82499 0.483,
1.70791 1.82709 0.483,
1.69111 1.84194 0.483,
1.71829 1.82779 0.483,
1.74055 1.82451 0.483,
1.71829 1.84401 0.483,
1.75557 1.81466 0.483,
1.78212 1.82634 0.483,
1.75549 1.8396 0.483,
1.79506 1.73558 0.483,
1.80136 1.7554 0.483,
1.80346 1.77642 0.483,
1.79812 1.80503 0.483,
2.199 2.215 0.483,
1.71583 1.67059 0.683,
1.65862 1.78588 0.683,
1.67136 1.78588 0.683,
1.7462 1.67453 0.683,
1.73664 1.69222 0.683,
1.75057 1.71124 0.683,
1.76927 1.69734 0.683,
1.78441 1.71641 0.683,
1.75991 1.73084 0.683,
1.7652 1.75218 0.683,
1.76696 1.77642 0.683,
1.76411 1.79853 0.683,
1.67812 1.81756 0.683,
1.65862 1.83571 0.683,
1.68705 1.82173 0.683,
1.69724 1.82499 0.683,
1.70791 1.82709 0.683,
1.69111 1.84194 0.683,
1.71829 1.82779 0.683,
1.74055 1.82451 0.683,
1.71829 1.84401 0.683,
1.75557 1.81466 0.683,
1.78212 1.82634 0.683,
1.75549 1.8396 0.683,
1.79506 1.73558 0.683,
1.80136 1.7554 0.683,
1.80346 1.77642 0.683,
1.79812 1.80503 0.683
] }

coordIndex [
0,1,403,-1
0,1084,1,-1
1,2,3,-1
1,3,4,-1
1,16,2,-1
1,32,16,-1
1,39,32,-1
1,52,39,-1
1,4,5,-1
6,4,3,-1
6,3,18,-1
1,385,386,-1
1,5,385,-1
5,147,385,-1
14,18,3,-1
15,31,20,-1
16,36,17,-1
33,16,32,-1
34,16,33,-1
34,36,16,-1
15,17,31,-1
31,17,36,-1
7,19,21,-1
21,24,22,-1
19,25,21,-1
24,21,23,-1
25,23,21,-1
20,31,26,-1
26,31,27,-1
27,30,28,-1
30,27,29,-1
31,29,27,-1
39,52,40,-1
35,40,59,-1
35,59,37,-1
59,40,52,-1
38,42,41,-1
38,46,42,-1
42,45,43,-1
45,42,44,-1
46,44,42,-1
28,30,181,-1
43,181,30,-1
37,48,47,-1
37,50,48,-1
37,59,50,-1
48,51,49,-1
51,48,50,-1
43,45,180,-1
49,180,45,-1
49,51,180,-1
1,1084,52,-1
57,53,55,-1
54,61,60,-1
54,63,61,-1
61,63,62,-1
62,180,51,-1
58,68,64,-1
69,64,68,-1
62,63,184,-1
64,184,63,-1
64,69,187,-1
56,72,71,-1
76,56,65,-1
56,76,73,-1
56,73,72,-1
58,70,68,-1
72,75,74,-1
75,72,73,-1
74,187,69,-1
74,75,199,-1
67,78,77,-1
67,707,78,-1
78,707,79,-1
79,199,75,-1
22,149,5,-1
22,24,150,-1
28,150,24,-1
146,5,149,-1
147,5,146,-1
149,22,150,-1
28,181,152,-1
43,180,181,-1
28,152,150,-1
192,155,152,-1
218,159,217,-1
151,176,160,-1
161,176,162,-1
160,176,161,-1
162,176,163,-1
163,176,164,-1
164,176,167,-1
153,176,151,-1
154,177,153,-1
156,177,154,-1
157,177,156,-1
153,177,176,-1
158,177,157,-1
158,169,177,-1
170,230,169,-1
159,232,170,-1
178,173,176,-1
167,176,171,-1
171,176,172,-1
172,176,173,-1
173,178,174,-1
169,230,177,-1
177,230,179,-1
231,179,230,-1
180,62,184,-1
182,192,181,-1
184,64,187,-1
183,185,188,-1
183,188,186,-1
184,188,185,-1
188,184,187,-1
186,188,195,-1
186,195,189,-1
192,152,181,-1
190,191,193,-1
74,197,187,-1
74,199,197,-1
200,197,199,-1
197,200,198,-1
198,212,196,-1
212,198,200,-1
201,212,200,-1
199,79,203,-1
79,827,203,-1
202,204,207,-1
203,827,204,-1
204,827,210,-1
207,204,210,-1
196,205,194,-1
196,212,205,-1
206,194,205,-1
214,213,208,-1
216,208,209,-1
209,211,844,-1
211,839,840,-1
216,214,208,-1
209,845,216,-1
209,844,845,-1
254,848,849,-1
155,192,159,-1
159,192,217,-1
217,192,221,-1
219,159,218,-1
194,221,192,-1
194,223,221,-1
223,194,251,-1
221,224,222,-1
224,221,223,-1
219,232,159,-1
220,222,225,-1
225,222,228,-1
228,222,237,-1
227,229,226,-1
229,238,226,-1
238,239,226,-1
232,230,170,-1
234,233,226,-1
242,244,226,-1
235,234,226,-1
244,235,226,-1
222,224,237,-1
237,224,240,-1
239,243,226,-1
249,240,224,-1
240,249,241,-1
241,249,246,-1
249,255,246,-1
243,242,226,-1
246,247,245,-1
248,245,247,-1
247,246,255,-1
194,206,251,-1
215,251,206,-1
251,253,252,-1
215,253,251,-1
848,254,215,-1
253,215,254,-1
252,256,250,-1
256,252,253,-1
260,257,259,-1
254,880,881,-1
254,881,885,-1
254,885,262,-1
258,259,257,-1
258,261,259,-1
263,262,885,-1
0,403,384,-1
0,384,1094,-1
384,403,1094,-1
1,404,403,-1
1,386,408,-1
1,408,404,-1
385,447,387,-1
409,390,391,-1
387,391,390,-1
403,404,405,-1
403,406,407,-1
403,407,416,-1
403,416,417,-1
403,417,418,-1
388,408,386,-1
390,409,389,-1
393,641,410,-1
406,410,411,-1
411,410,412,-1
412,410,641,-1
412,641,413,-1
403,405,410,-1
403,410,406,-1
403,418,419,-1
403,419,420,-1
403,420,423,-1
148,385,147,-1
165,385,148,-1
165,446,385,-1
166,449,165,-1
165,449,446,-1
166,452,449,-1
166,454,452,-1
166,459,454,-1
168,486,166,-1
175,486,168,-1
179,486,175,-1
179,231,486,-1
166,462,459,-1
166,486,462,-1
453,466,450,-1
451,466,456,-1
450,466,451,-1
456,466,457,-1
457,466,473,-1
455,466,453,-1
458,466,455,-1
460,466,458,-1
461,466,460,-1
487,462,486,-1
463,466,461,-1
462,488,465,-1
463,464,466,-1
465,466,464,-1
488,466,465,-1
466,488,467,-1
488,514,467,-1
447,385,446,-1
448,387,447,-1
387,448,391,-1
391,448,392,-1
392,472,468,-1
472,392,448,-1
468,472,475,-1
469,392,468,-1
392,469,470,-1
473,466,474,-1
468,475,476,-1
468,476,481,-1
468,481,483,-1
474,466,477,-1
477,466,478,-1
478,466,479,-1
482,479,466,-1
482,480,479,-1
467,515,483,-1
467,514,515,-1
484,483,515,-1
520,484,515,-1
483,484,468,-1
471,485,526,-1
484,520,485,-1
485,520,525,-1
526,485,525,-1
236,486,231,-1
236,490,486,-1
245,490,236,-1
245,248,490,-1
257,490,248,-1
260,491,490,-1
495,491,264,-1
462,487,488,-1
489,491,492,-1
492,491,495,-1
488,516,514,-1
496,493,494,-1
496,500,493,-1
500,502,493,-1
518,517,493,-1
519,518,493,-1
521,519,493,-1
503,521,493,-1
495,498,499,-1
495,497,498,-1
499,498,501,-1
507,501,498,-1
502,504,493,-1
504,503,493,-1
501,507,505,-1
505,507,531,-1
505,531,506,-1
257,260,490,-1
264,491,260,-1
495,889,497,-1
495,264,889,-1
889,509,497,-1
510,532,508,-1
509,512,510,-1
532,510,512,-1
513,1095,1101,-1
511,534,533,-1
511,536,534,-1
513,1101,1103,-1
513,1103,538,-1
513,538,537,-1
522,525,520,-1
506,523,522,-1
524,522,523,-1
523,506,531,-1
522,524,525,-1
533,528,524,-1
525,524,528,-1
529,530,645,-1
645,530,648,-1
648,530,657,-1
535,533,534,-1
528,533,535,-1
539,528,535,-1
528,539,1141,-1
528,1154,540,-1
528,541,530,-1
541,528,540,-1
530,541,657,-1
470,640,392,-1
471,643,642,-1
413,641,644,-1
471,652,643,-1
471,526,652,-1
643,651,644,-1
651,643,650,-1
652,650,643,-1
527,652,526,-1
647,649,646,-1
649,658,646,-1
658,661,646,-1
654,653,646,-1
655,654,646,-1
661,662,646,-1
662,663,646,-1
665,655,646,-1
663,665,646,-1
657,541,659,-1
669,659,541,-1
542,669,541,-1
659,669,660,-1
660,669,664,-1
656,666,668,-1
664,667,666,-1
668,666,667,-1
667,664,669,-1
403,423,1489,-1
1489,414,413,-1
1489,415,414,-1
1489,421,415,-1
1489,422,421,-1
1489,424,422,-1
1489,423,424,-1
0,700,1084,-1
0,1094,700,-1
700,1094,1084,-1
1084,53,52,-1
1084,55,53,-1
1084,56,55,-1
66,701,703,-1
705,702,704,-1
702,705,725,-1
702,713,712,-1
702,715,713,-1
702,725,715,-1
706,709,708,-1
710,708,709,-1
79,707,827,-1
708,827,707,-1
708,710,831,-1
706,711,709,-1
713,716,714,-1
716,713,715,-1
714,831,710,-1
714,716,835,-1
717,725,705,-1
720,724,718,-1
724,720,721,-1
719,721,720,-1
722,739,730,-1
726,856,716,-1
858,726,728,-1
723,727,726,-1
728,726,727,-1
723,729,727,-1
740,862,728,-1
740,742,862,-1
1084,65,56,-1
1084,66,65,-1
1084,701,66,-1
1084,702,701,-1
1084,704,702,-1
1084,719,704,-1
1084,721,719,-1
1084,722,721,-1
732,722,731,-1
722,732,744,-1
733,744,732,-1
722,741,739,-1
722,744,741,-1
736,743,734,-1
735,737,736,-1
743,736,737,-1
739,742,740,-1
742,739,741,-1
745,862,742,-1
863,745,747,-1
747,745,746,-1
738,746,745,-1
738,748,746,-1
758,863,747,-1
751,749,750,-1
749,757,756,-1
749,759,757,-1
749,751,761,-1
752,761,751,-1
749,761,759,-1
754,1075,755,-1
755,762,753,-1
762,755,1075,-1
757,760,758,-1
760,757,759,-1
1077,1078,763,-1
1079,763,1078,-1
827,708,829,-1
708,831,829,-1
828,838,837,-1
832,829,831,-1
829,832,830,-1
830,853,828,-1
853,830,832,-1
714,835,831,-1
716,855,835,-1
833,853,832,-1
836,852,834,-1
835,855,836,-1
852,836,855,-1
211,840,843,-1
211,843,844,-1
828,853,838,-1
838,853,841,-1
841,853,842,-1
842,850,846,-1
846,850,847,-1
850,842,853,-1
847,851,849,-1
847,850,851,-1
855,716,856,-1
856,726,858,-1
859,856,858,-1
856,859,864,-1
860,864,859,-1
858,728,862,-1
745,863,862,-1
863,866,861,-1
857,865,854,-1
254,849,851,-1
254,851,870,-1
870,851,872,-1
254,869,880,-1
254,870,869,-1
873,883,871,-1
854,872,851,-1
872,854,875,-1
875,854,879,-1
854,903,879,-1
874,884,873,-1
876,884,874,-1
873,884,883,-1
891,882,884,-1
891,887,882,-1
887,891,888,-1
263,885,886,-1
889,264,263,-1
889,263,886,-1
884,876,877,-1
884,877,878,-1
884,878,891,-1
892,890,891,-1
896,892,897,-1
888,891,890,-1
890,892,893,-1
893,892,895,-1
895,892,898,-1
901,892,896,-1
898,892,901,-1
898,901,899,-1
903,854,865,-1
903,865,868,-1
904,879,903,-1
907,932,908,-1
932,907,931,-1
879,904,914,-1
905,914,904,-1
879,914,892,-1
906,908,909,-1
909,908,917,-1
911,918,910,-1
892,912,897,-1
914,912,892,-1
897,912,902,-1
916,915,910,-1
926,916,910,-1
917,908,919,-1
908,932,919,-1
918,920,910,-1
920,921,910,-1
921,924,910,-1
919,932,922,-1
933,922,932,-1
922,933,923,-1
924,925,910,-1
925,928,910,-1
928,926,910,-1
923,941,929,-1
929,939,930,-1
940,930,939,-1
866,863,758,-1
866,1079,867,-1
866,758,760,-1
866,760,763,-1
867,1079,868,-1
903,868,1083,-1
866,763,1079,-1
1083,868,1079,-1
1084,907,903,-1
1084,931,907,-1
935,937,936,-1
923,933,941,-1
936,942,934,-1
942,936,937,-1
939,929,941,-1
944,945,943,-1
946,943,945,-1
944,947,945,-1
938,949,948,-1
1084,731,722,-1
1084,735,731,-1
1084,737,735,-1
1084,749,737,-1
1084,750,749,-1
1084,754,750,-1
1084,1075,754,-1
1084,1076,1075,-1
1084,1082,1076,-1
1076,1082,1081,-1
1077,1080,1078,-1
1084,903,1083,-1
1084,1083,1082,-1
1084,935,931,-1
1084,937,935,-1
1084,938,937,-1
1084,949,938,-1
1084,950,949,-1
1084,1178,950,-1
1084,1202,1178,-1
1084,1203,1202,-1
1084,1451,1203,-1
1084,1452,1451,-1
403,1489,1094,-1
1084,1094,1489,-1
509,889,894,-1
509,894,900,-1
509,900,902,-1
509,902,912,-1
509,912,512,-1
512,912,513,-1
513,913,1097,-1
513,912,913,-1
913,1105,1097,-1
913,1108,1105,-1
913,1111,1108,-1
513,1097,1096,-1
513,1096,1095,-1
1099,1115,1100,-1
1100,1115,1102,-1
1102,1115,1104,-1
1104,1115,1137,-1
1098,1115,1099,-1
1106,1115,1098,-1
1107,1116,1106,-1
1109,1116,1107,-1
1110,1116,1109,-1
1112,1116,1110,-1
1106,1116,1115,-1
1112,1113,1116,-1
927,1117,913,-1
930,1117,927,-1
913,1117,1111,-1
930,940,1117,-1
943,1124,940,-1
940,1124,1117,-1
1118,1111,1117,-1
1119,1111,1118,-1
1120,1125,1121,-1
1121,1125,1126,-1
1111,1156,1114,-1
1114,1154,1113,-1
1119,1156,1111,-1
1113,1154,1116,-1
1156,1154,1114,-1
1123,1127,1122,-1
1158,1157,1122,-1
1159,1158,1122,-1
1124,1172,1125,-1
1126,1125,1128,-1
1125,1172,1128,-1
1172,1124,1171,-1
1128,1172,1133,-1
1173,1133,1172,-1
1127,1129,1122,-1
1129,1130,1122,-1
1130,1131,1122,-1
1131,1132,1122,-1
1161,1159,1122,-1
1132,1161,1122,-1
1133,1173,1134,-1
1134,1173,1135,-1
538,1103,1136,-1
538,1136,539,-1
1138,539,1136,-1
1141,539,1138,-1
528,1141,1145,-1
528,1145,1147,-1
528,1147,1154,-1
1137,1115,1139,-1
1139,1115,1140,-1
1140,1115,1142,-1
1142,1115,1143,-1
1146,1143,1115,-1
1146,1144,1143,-1
540,1154,1155,-1
1148,540,1155,-1
1150,1333,1149,-1
1148,1155,1163,-1
1148,1152,1150,-1
1151,1150,1152,-1
1150,1151,1333,-1
1152,1148,1163,-1
1116,1154,1147,-1
1135,1180,1162,-1
1181,1162,1180,-1
1160,1194,1155,-1
1162,1194,1160,-1
1163,1155,1166,-1
1166,1155,1167,-1
1167,1155,1189,-1
1194,1189,1155,-1
1168,1349,1165,-1
1169,1350,1168,-1
1170,1350,1169,-1
943,946,1124,-1
946,1171,1124,-1
946,1175,1171,-1
950,1177,946,-1
946,1177,1175,-1
950,1178,1177,-1
1176,1183,1174,-1
1183,1176,1177,-1
1173,1182,1135,-1
1175,1177,1176,-1
1179,1185,1184,-1
1179,1187,1185,-1
1178,1202,1188,-1
1180,1135,1182,-1
1162,1181,1194,-1
1184,1194,1181,-1
1186,1184,1185,-1
1194,1184,1186,-1
1203,1195,1186,-1
1190,1350,1170,-1
1189,1194,1197,-1
1189,1197,1193,-1
1194,1186,1195,-1
1198,1193,1197,-1
1200,1196,1199,-1
1201,1196,1200,-1
1196,1201,1198,-1
1206,1198,1201,-1
1193,1198,1212,-1
1203,1204,1195,-1
1204,1203,1205,-1
1205,1203,1210,-1
1207,1198,1206,-1
1208,1198,1207,-1
1209,1198,1208,-1
1368,1193,1212,-1
1212,1198,1209,-1
1203,1445,1210,-1
1446,1210,1445,-1
1446,1211,1210,-1
1211,1446,1448,-1
1211,1448,1213,-1
1149,1338,1337,-1
1149,1335,1338,-1
1149,1333,1335,-1
1338,1340,1339,-1
1340,1338,1335,-1
1342,1339,1340,-1
1164,1349,1153,-1
1153,1349,1334,-1
1334,1349,1336,-1
1336,1349,1341,-1
1165,1349,1164,-1
1341,1349,1343,-1
1345,1339,1342,-1
1343,1349,1344,-1
1344,1349,1346,-1
1346,1349,1347,-1
1489,413,644,-1
1489,644,651,-1
1489,651,656,-1
1191,1350,1190,-1
1191,1192,1350,-1
1193,1350,1192,-1
1168,1350,1349,-1
1193,1351,1350,-1
1351,1193,1366,-1
1366,1193,1370,-1
1370,1193,1369,-1
1350,1352,1353,-1
1352,1350,1351,-1
1367,1354,1352,-1
1353,1352,1354,-1
1355,1347,1349,-1
1355,1356,1347,-1
1350,1358,1357,-1
1358,1350,1353,-1
1354,1360,1359,-1
1360,1354,1361,-1
1361,1354,1362,-1
1362,1354,1383,-1
1369,1193,1368,-1
1371,1372,1373,-1
1374,1354,1367,-1
1375,1354,1374,-1
1376,1354,1375,-1
1377,1354,1376,-1
1387,1354,1377,-1
1379,1373,1372,-1
1379,1380,1373,-1
1213,1461,1378,-1
1379,1465,1380,-1
1380,1465,1381,-1
1381,1462,1382,-1
1462,1381,1463,-1
1383,1354,1384,-1
1384,1354,1386,-1
1386,1354,1387,-1
1382,1474,1388,-1
1474,1382,1462,-1
1489,656,668,-1
1489,668,1339,-1
1489,1339,1345,-1
1489,1345,1348,-1
1445,1203,1451,-1
1461,1213,1448,-1
1447,1452,1449,-1
1449,1452,1450,-1
1450,1452,1464,-1
1464,1452,1467,-1
1084,1489,1452,-1
1378,1465,1379,-1
1378,1461,1465,-1
1466,1381,1465,-1
1381,1470,1463,-1
1469,1381,1466,-1
1470,1381,1469,-1
1471,1463,1470,-1
1472,1463,1471,-1
1463,1475,1473,-1
1475,1463,1476,-1
1476,1463,1477,-1
1477,1463,1479,-1
1479,1463,1480,-1
1480,1463,1482,-1
1482,1463,1472,-1
1489,1468,1467,-1
1489,1348,1357,-1
1489,1357,1358,-1
1489,1358,1363,-1
1489,1363,1364,-1
1489,1364,1365,-1
1489,1365,1385,-1
1489,1385,1388,-1
1489,1388,1474,-1
1489,1474,1478,-1
1489,1478,1481,-1
1489,1481,1484,-1
1489,1484,1483,-1
1489,1467,1452,-1
1489,1485,1468,-1
1489,1486,1485,-1
1489,1487,1486,-1
1489,1488,1487,-1
1489,1483,1488,-1
8,3,2,-1
9,14,3,-1
84,6,18,-1
10,5,4,-1
12,4,6,-1
11,22,5,-1
8,9,3,-1
8,80,9,-1
10,11,5,-1
10,4,12,-1
12,6,84,-1
11,88,22,-1
13,7,87,-1
10,12,11,-1
12,84,13,-1
11,12,13,-1
11,13,88,-1
80,18,14,-1
82,2,16,-1
81,17,15,-1
83,16,17,-1
86,15,20,-1
85,25,19,-1
13,19,7,-1
87,7,21,-1
88,21,22,-1
92,20,26,-1
89,24,23,-1
91,23,25,-1
90,28,24,-1
93,26,27,-1
94,27,28,-1
95,30,29,-1
97,29,31,-1
96,43,30,-1
98,33,32,-1
99,34,33,-1
100,36,34,-1
105,32,39,-1
101,40,35,-1
102,31,36,-1
103,35,37,-1
104,46,38,-1
106,39,40,-1
107,38,41,-1
108,41,42,-1
109,42,43,-1
113,37,47,-1
110,45,44,-1
112,44,46,-1
111,49,45,-1
114,47,48,-1
115,48,49,-1
116,51,50,-1
125,50,59,-1
9,80,14,-1
8,2,82,-1
81,83,17,-1
81,15,86,-1
82,16,83,-1
80,84,18,-1
13,85,19,-1
86,20,92,-1
8,82,80,-1
80,81,84,-1
80,82,81,-1
81,82,83,-1
81,86,84,-1
84,86,85,-1
13,84,85,-1
85,86,91,-1
87,21,88,-1
85,91,25,-1
89,90,24,-1
89,23,91,-1
90,94,28,-1
92,26,93,-1
93,27,94,-1
95,96,30,-1
95,29,97,-1
13,87,88,-1
86,92,91,-1
89,91,90,-1
90,91,92,-1
90,92,94,-1
92,93,94,-1
95,97,96,-1
96,97,107,-1
98,99,33,-1
99,100,34,-1
98,32,105,-1
101,35,103,-1
100,102,36,-1
107,104,38,-1
101,106,40,-1
105,39,106,-1
103,37,113,-1
98,100,99,-1
98,105,100,-1
100,101,102,-1
100,105,101,-1
102,104,107,-1
102,101,103,-1
102,103,104,-1
103,112,104,-1
101,105,106,-1
102,97,31,-1
96,109,43,-1
107,41,108,-1
108,42,109,-1
104,112,46,-1
110,111,45,-1
110,44,112,-1
113,47,114,-1
111,115,49,-1
114,48,115,-1
116,117,51,-1
116,50,125,-1
102,107,97,-1
96,107,109,-1
107,108,109,-1
103,113,112,-1
110,112,111,-1
111,112,113,-1
111,113,115,-1
113,114,115,-1
116,125,117,-1
119,52,53,-1
118,59,52,-1
122,55,56,-1
123,53,57,-1
120,63,54,-1
121,57,55,-1
126,54,60,-1
117,62,51,-1
127,60,61,-1
128,61,62,-1
129,64,63,-1
130,58,64,-1
124,70,58,-1
137,56,71,-1
132,65,66,-1
131,76,65,-1
134,69,68,-1
136,68,70,-1
135,74,69,-1
138,71,72,-1
140,72,74,-1
139,75,73,-1
142,73,76,-1
141,79,75,-1
143,67,77,-1
144,77,78,-1
145,78,79,-1
118,52,119,-1
125,59,118,-1
119,53,123,-1
120,54,126,-1
121,55,122,-1
121,123,57,-1
124,58,130,-1
125,118,119,-1
125,119,120,-1
119,123,120,-1
120,123,129,-1
121,124,123,-1
123,124,129,-1
117,128,62,-1
126,60,127,-1
127,61,128,-1
120,129,63,-1
129,130,64,-1
125,120,126,-1
117,125,126,-1
117,126,128,-1
126,127,128,-1
124,130,129,-1
122,56,137,-1
131,65,132,-1
131,142,76,-1
132,66,766,-1
133,67,143,-1
121,122,137,-1
121,137,124,-1
131,132,142,-1
132,133,142,-1
124,136,70,-1
134,135,69,-1
134,68,136,-1
135,140,74,-1
137,71,138,-1
138,72,140,-1
139,141,75,-1
139,73,142,-1
143,77,144,-1
141,145,79,-1
144,78,145,-1
124,137,136,-1
134,136,135,-1
135,136,137,-1
135,137,140,-1
137,138,140,-1
139,142,141,-1
133,143,142,-1
141,142,143,-1
141,143,145,-1
143,144,145,-1
265,147,146,-1
266,148,147,-1
269,149,150,-1
279,151,160,-1
271,150,152,-1
270,153,151,-1
274,152,155,-1
272,154,153,-1
273,156,154,-1
275,157,156,-1
278,155,159,-1
276,158,157,-1
268,146,149,-1
280,160,161,-1
281,161,162,-1
267,165,148,-1
282,162,163,-1
283,163,164,-1
284,166,165,-1
286,164,167,-1
285,168,166,-1
290,167,171,-1
277,169,158,-1
289,159,170,-1
288,170,169,-1
291,171,172,-1
287,175,168,-1
292,172,173,-1
293,173,174,-1
294,179,175,-1
295,178,176,-1
296,176,177,-1
297,174,178,-1
298,177,179,-1
265,266,147,-1
266,267,148,-1
269,268,149,-1
269,150,271,-1
279,270,151,-1
270,272,153,-1
271,152,274,-1
272,273,154,-1
274,155,278,-1
273,275,156,-1
275,276,157,-1
276,277,158,-1
278,159,289,-1
269,279,268,-1
269,270,279,-1
269,271,270,-1
270,271,272,-1
271,274,273,-1
271,273,272,-1
273,274,275,-1
274,276,275,-1
274,278,276,-1
278,277,276,-1
265,146,268,-1
280,279,160,-1
280,161,281,-1
281,162,282,-1
267,284,165,-1
282,163,283,-1
284,285,166,-1
283,164,286,-1
286,167,290,-1
285,287,168,-1
277,288,169,-1
288,289,170,-1
290,171,291,-1
291,172,292,-1
287,294,175,-1
292,173,293,-1
293,174,297,-1
295,297,178,-1
295,176,296,-1
296,177,298,-1
294,298,179,-1
265,268,280,-1
265,280,281,-1
268,279,280,-1
265,281,266,-1
266,281,267,-1
267,281,282,-1
267,282,284,-1
282,283,284,-1
284,283,285,-1
283,286,285,-1
285,286,287,-1
286,290,287,-1
278,289,277,-1
277,289,288,-1
290,291,287,-1
287,291,294,-1
291,292,294,-1
292,293,294,-1
294,293,298,-1
295,296,297,-1
293,297,298,-1
296,298,297,-1
299,181,180,-1
300,182,181,-1
303,180,184,-1
302,185,183,-1
305,183,186,-1
301,192,182,-1
304,184,185,-1
306,188,187,-1
307,195,188,-1
314,189,195,-1
308,186,189,-1
309,191,190,-1
312,190,193,-1
310,193,191,-1
313,196,194,-1
311,194,192,-1
316,187,197,-1
315,198,196,-1
317,197,198,-1
318,200,199,-1
319,201,200,-1
322,199,203,-1
321,204,202,-1
320,212,201,-1
326,202,207,-1
323,203,204,-1
324,206,205,-1
331,205,212,-1
327,209,208,-1
332,208,213,-1
329,207,210,-1
328,211,209,-1
330,839,211,-1
325,215,206,-1
333,213,214,-1
335,214,216,-1
334,848,215,-1
969,216,845,-1
299,300,181,-1
299,180,303,-1
300,301,182,-1
302,304,185,-1
302,183,305,-1
303,184,304,-1
305,186,308,-1
306,307,188,-1
307,314,195,-1
308,189,314,-1
299,301,300,-1
299,303,301,-1
303,302,301,-1
303,304,302,-1
301,302,305,-1
301,305,309,-1
305,308,309,-1
306,314,307,-1
309,308,310,-1
308,315,310,-1
309,190,312,-1
301,311,192,-1
309,310,191,-1
310,312,193,-1
311,313,194,-1
301,309,311,-1
309,312,311,-1
310,315,313,-1
310,313,312,-1
312,313,311,-1
306,187,316,-1
315,196,313,-1
315,317,198,-1
316,197,317,-1
318,319,200,-1
319,320,201,-1
318,199,322,-1
321,202,326,-1
321,323,204,-1
322,203,323,-1
329,210,951,-1
306,316,314,-1
308,314,315,-1
314,316,315,-1
315,316,317,-1
318,320,319,-1
318,321,320,-1
318,322,321,-1
320,321,326,-1
320,326,327,-1
322,323,321,-1
329,951,961,-1
324,325,206,-1
324,205,331,-1
320,331,212,-1
326,207,329,-1
327,208,332,-1
327,328,209,-1
328,330,211,-1
330,963,839,-1
325,334,215,-1
332,213,333,-1
333,214,335,-1
335,216,969,-1
334,972,848,-1
324,331,325,-1
320,327,331,-1
326,328,327,-1
327,332,331,-1
326,329,328,-1
329,330,328,-1
329,961,330,-1
330,961,963,-1
325,331,334,-1
331,332,334,-1
332,333,334,-1
333,335,334,-1
335,972,334,-1
335,969,972,-1
336,218,217,-1
337,219,218,-1
340,217,221,-1
339,222,220,-1
341,221,222,-1
342,224,223,-1
343,249,224,-1
338,232,219,-1
344,220,225,-1
347,225,228,-1
345,227,226,-1
346,229,227,-1
349,231,230,-1
351,230,232,-1
350,236,231,-1
352,226,233,-1
353,233,234,-1
354,234,235,-1
355,245,236,-1
356,228,237,-1
348,238,229,-1
357,239,238,-1
359,237,240,-1
360,240,241,-1
358,243,239,-1
362,242,243,-1
361,244,242,-1
364,246,245,-1
363,235,244,-1
365,241,246,-1
366,248,247,-1
374,247,255,-1
367,257,248,-1
370,223,251,-1
369,252,250,-1
371,251,252,-1
373,253,254,-1
374,255,249,-1
375,250,256,-1
376,258,257,-1
372,256,253,-1
377,261,258,-1
378,260,259,-1
380,259,261,-1
379,264,260,-1
381,254,262,-1
382,262,263,-1
383,263,264,-1
336,337,218,-1
337,338,219,-1
336,217,340,-1
340,221,341,-1
339,341,222,-1
342,343,224,-1
343,368,249,-1
336,338,337,-1
336,339,338,-1
336,340,339,-1
339,340,341,-1
342,368,343,-1
339,220,344,-1
344,225,347,-1
345,346,227,-1
345,226,352,-1
347,228,356,-1
346,348,229,-1
338,351,232,-1
349,230,351,-1
349,350,231,-1
352,233,353,-1
350,355,236,-1
353,234,354,-1
356,237,359,-1
348,357,238,-1
357,358,239,-1
359,240,360,-1
360,241,365,-1
358,362,243,-1
362,361,242,-1
361,363,244,-1
365,246,364,-1
354,235,363,-1
355,364,245,-1
366,247,374,-1
366,367,248,-1
338,339,344,-1
338,344,345,-1
338,345,351,-1
344,346,345,-1
344,347,346,-1
347,348,346,-1
347,356,348,-1
345,352,351,-1
349,351,350,-1
350,351,355,-1
351,352,355,-1
352,353,355,-1
353,354,355,-1
356,357,348,-1
356,359,357,-1
357,359,358,-1
358,359,360,-1
358,360,362,-1
362,360,365,-1
362,365,361,-1
361,365,364,-1
355,354,364,-1
354,363,364,-1
361,364,363,-1
366,374,367,-1
342,223,370,-1
370,251,371,-1
369,371,252,-1
372,253,373,-1
342,370,368,-1
368,370,369,-1
369,370,371,-1
368,374,249,-1
369,250,375,-1
372,375,256,-1
367,376,257,-1
376,377,258,-1
373,254,381,-1
377,380,261,-1
378,379,260,-1
378,259,380,-1
381,262,382,-1
379,383,264,-1
382,263,383,-1
368,369,375,-1
368,375,374,-1
374,375,376,-1
367,374,376,-1
375,377,376,-1
372,373,375,-1
373,377,375,-1
373,381,377,-1
378,380,379,-1
379,380,381,-1
377,381,380,-1
379,381,383,-1
381,382,383,-1
394,386,385,-1
395,388,386,-1
396,385,387,-1
399,387,390,-1
398,390,389,-1
401,391,392,-1
400,409,391,-1
394,395,386,-1
394,385,396,-1
395,397,388,-1
394,397,395,-1
396,387,399,-1
398,399,390,-1
400,391,401,-1
394,396,397,-1
398,396,399,-1
397,396,398,-1
400,401,430,-1
425,405,404,-1
429,404,408,-1
426,410,405,-1
428,416,407,-1
427,407,406,-1
397,408,388,-1
430,389,409,-1
431,393,410,-1
432,406,411,-1
433,411,412,-1
434,412,413,-1
435,413,414,-1
436,414,415,-1
425,404,429,-1
425,426,405,-1
427,428,407,-1
425,429,426,-1
398,389,430,-1
397,429,408,-1
400,430,409,-1
402,393,431,-1
397,398,430,-1
397,430,429,-1
430,402,431,-1
401,402,430,-1
426,431,410,-1
427,406,432,-1
432,411,433,-1
433,412,434,-1
434,413,435,-1
435,414,436,-1
436,415,442,-1
430,431,429,-1
426,429,431,-1
427,432,442,-1
427,442,428,-1
432,433,442,-1
433,434,435,-1
433,435,436,-1
433,436,442,-1
437,417,416,-1
438,418,417,-1
439,419,418,-1
440,420,419,-1
441,423,420,-1
442,415,421,-1
445,422,424,-1
443,421,422,-1
444,424,423,-1
428,437,416,-1
437,438,417,-1
438,439,418,-1
437,439,438,-1
437,440,439,-1
439,440,419,-1
440,441,420,-1
442,421,443,-1
443,422,445,-1
441,444,423,-1
444,445,424,-1
428,442,437,-1
437,441,440,-1
437,444,441,-1
437,443,445,-1
437,445,444,-1
437,442,443,-1
543,447,446,-1
544,448,447,-1
549,449,452,-1
546,446,449,-1
548,450,451,-1
551,452,454,-1
550,455,453,-1
547,453,450,-1
553,451,456,-1
545,472,448,-1
554,456,457,-1
570,457,473,-1
552,458,455,-1
556,454,459,-1
555,460,458,-1
557,461,460,-1
559,459,462,-1
558,463,461,-1
560,464,463,-1
562,462,465,-1
561,465,464,-1
563,482,466,-1
564,466,467,-1
543,544,447,-1
544,545,448,-1
549,546,449,-1
543,446,546,-1
548,547,450,-1
550,453,547,-1
549,452,551,-1
550,552,455,-1
548,451,553,-1
553,456,554,-1
545,569,472,-1
554,457,570,-1
551,454,556,-1
552,555,458,-1
555,557,460,-1
556,459,559,-1
557,558,461,-1
558,560,463,-1
560,561,464,-1
559,462,562,-1
561,562,465,-1
563,466,564,-1
549,547,546,-1
543,546,548,-1
546,547,548,-1
549,550,547,-1
549,551,550,-1
550,551,552,-1
543,553,544,-1
543,548,553,-1
544,553,545,-1
545,553,554,-1
545,554,569,-1
554,570,569,-1
551,555,552,-1
551,556,555,-1
555,556,557,-1
556,558,557,-1
556,559,558,-1
558,559,560,-1
559,562,560,-1
560,562,561,-1
563,564,579,-1
565,469,468,-1
566,470,469,-1
581,468,484,-1
568,485,471,-1
569,475,472,-1
571,473,474,-1
572,476,475,-1
574,474,477,-1
575,477,478,-1
573,481,476,-1
576,478,479,-1
577,479,480,-1
578,483,481,-1
579,480,482,-1
580,467,483,-1
582,484,485,-1
565,566,469,-1
401,392,670,-1
565,468,581,-1
566,567,470,-1
565,567,566,-1
565,581,567,-1
567,581,568,-1
569,572,475,-1
570,473,571,-1
571,474,574,-1
572,573,476,-1
575,478,576,-1
574,477,575,-1
573,578,481,-1
576,479,577,-1
577,480,579,-1
563,579,482,-1
564,467,580,-1
578,580,483,-1
570,572,569,-1
570,571,572,-1
572,571,573,-1
571,574,573,-1
574,575,573,-1
573,575,578,-1
575,576,578,-1
576,577,578,-1
578,577,580,-1
577,579,580,-1
564,580,579,-1
581,484,582,-1
568,582,485,-1
568,581,582,-1
583,487,486,-1
584,488,487,-1
587,486,490,-1
586,491,489,-1
588,490,491,-1
589,489,492,-1
613,516,488,-1
592,492,495,-1
590,494,493,-1
591,496,494,-1
614,493,517,-1
594,498,497,-1
595,507,498,-1
596,495,499,-1
593,500,496,-1
597,502,500,-1
598,499,501,-1
602,501,505,-1
599,504,502,-1
601,503,504,-1
603,505,506,-1
606,497,509,-1
605,510,508,-1
607,509,510,-1
628,531,507,-1
629,508,532,-1
630,511,533,-1
609,532,512,-1
610,512,513,-1
608,536,511,-1
634,513,537,-1
583,584,487,-1
584,585,488,-1
583,486,587,-1
586,588,491,-1
587,490,588,-1
586,489,589,-1
585,613,488,-1
589,492,592,-1
590,591,494,-1
592,495,596,-1
591,593,496,-1
590,493,614,-1
594,595,498,-1
595,604,507,-1
596,499,598,-1
593,597,500,-1
597,599,502,-1
598,501,602,-1
599,601,504,-1
601,600,503,-1
603,506,619,-1
602,505,603,-1
583,585,584,-1
583,586,585,-1
585,586,589,-1
585,589,590,-1
583,587,586,-1
586,587,588,-1
585,590,613,-1
590,614,613,-1
589,591,590,-1
589,592,591,-1
591,592,593,-1
592,596,593,-1
594,604,595,-1
593,596,597,-1
596,598,597,-1
597,598,599,-1
599,598,602,-1
599,602,601,-1
601,602,603,-1
601,603,600,-1
600,603,619,-1
594,497,606,-1
606,509,607,-1
605,607,510,-1
605,508,629,-1
604,628,507,-1
609,629,532,-1
609,512,610,-1
610,513,634,-1
608,511,630,-1
608,633,536,-1
594,606,604,-1
604,606,605,-1
605,606,607,-1
604,605,629,-1
604,629,628,-1
608,630,629,-1
609,610,629,-1
610,608,629,-1
610,634,608,-1
608,634,633,-1
611,515,514,-1
613,514,516,-1
612,520,515,-1
615,517,518,-1
616,518,519,-1
617,522,520,-1
618,519,521,-1
600,521,503,-1
619,506,522,-1
620,524,523,-1
628,523,531,-1
621,533,524,-1
622,526,525,-1
623,527,526,-1
625,525,528,-1
627,528,530,-1
626,530,529,-1
675,529,645,-1
631,535,534,-1
633,534,536,-1
632,539,535,-1
635,537,538,-1
636,538,539,-1
637,541,540,-1
638,542,541,-1
611,612,515,-1
611,514,613,-1
614,517,615,-1
612,617,520,-1
615,518,616,-1
616,519,618,-1
600,618,521,-1
617,619,522,-1
620,621,524,-1
620,523,628,-1
611,613,612,-1
612,613,617,-1
613,614,617,-1
614,615,617,-1
615,616,617,-1
600,619,618,-1
616,618,619,-1
617,616,619,-1
620,628,621,-1
622,623,526,-1
622,525,625,-1
623,624,527,-1
625,528,627,-1
626,529,675,-1
626,627,530,-1
622,624,623,-1
622,625,626,-1
622,626,624,-1
624,626,675,-1
624,675,676,-1
626,625,627,-1
621,630,533,-1
631,632,535,-1
631,534,633,-1
634,537,635,-1
632,636,539,-1
635,538,636,-1
621,628,630,-1
628,629,630,-1
631,633,632,-1
632,633,634,-1
632,634,636,-1
634,635,636,-1
637,638,541,-1
637,540,1267,-1
638,639,542,-1
637,639,638,-1
637,1267,639,-1
402,641,393,-1
670,392,640,-1
567,640,470,-1
672,471,642,-1
671,644,641,-1
673,642,643,-1
674,643,644,-1
402,671,641,-1
568,471,672,-1
567,670,640,-1
401,670,402,-1
402,670,671,-1
567,568,670,-1
568,671,670,-1
568,672,671,-1
672,642,673,-1
671,674,644,-1
671,672,674,-1
673,643,674,-1
672,673,674,-1
624,652,527,-1
678,645,648,-1
676,647,646,-1
687,648,657,-1
677,649,647,-1
679,658,649,-1
683,646,653,-1
680,651,650,-1
682,650,652,-1
681,656,651,-1
684,653,654,-1
685,654,655,-1
688,661,658,-1
689,657,659,-1
690,659,660,-1
691,662,661,-1
693,665,663,-1
692,663,662,-1
694,660,664,-1
639,669,542,-1
695,655,665,-1
696,666,656,-1
696,664,666,-1
697,668,667,-1
699,667,669,-1
698,1339,668,-1
624,682,652,-1
675,645,678,-1
676,677,647,-1
678,648,687,-1
677,679,649,-1
676,646,683,-1
624,676,682,-1
676,683,682,-1
675,677,676,-1
675,678,677,-1
678,687,679,-1
678,679,677,-1
680,650,682,-1
680,681,651,-1
683,653,684,-1
681,686,656,-1
684,654,685,-1
695,685,655,-1
686,696,656,-1
680,682,681,-1
681,682,686,-1
682,683,686,-1
683,684,686,-1
684,685,686,-1
686,685,696,-1
687,657,689,-1
679,688,658,-1
688,691,661,-1
689,659,690,-1
691,692,662,-1
692,693,663,-1
690,660,694,-1
694,664,696,-1
639,699,669,-1
679,687,688,-1
687,689,688,-1
689,691,688,-1
689,690,691,-1
691,690,692,-1
692,690,694,-1
692,694,693,-1
693,694,696,-1
639,1268,699,-1
693,695,665,-1
697,667,699,-1
697,698,668,-1
695,696,685,-1
693,696,695,-1
697,699,698,-1
698,699,1395,-1
765,701,702,-1
766,66,703,-1
133,707,67,-1
764,703,701,-1
767,705,704,-1
769,711,706,-1
775,702,712,-1
770,708,707,-1
771,706,708,-1
772,710,709,-1
774,709,711,-1
773,714,710,-1
776,712,713,-1
777,713,714,-1
778,716,715,-1
768,717,705,-1
782,704,719,-1
781,720,718,-1
783,719,720,-1
780,725,717,-1
787,718,724,-1
785,721,722,-1
784,724,721,-1
786,729,723,-1
793,722,730,-1
788,715,725,-1
779,726,716,-1
789,723,726,-1
790,728,727,-1
792,727,729,-1
791,740,728,-1
764,701,765,-1
766,703,764,-1
769,706,771,-1
767,768,705,-1
765,702,775,-1
132,766,133,-1
133,766,770,-1
766,764,769,-1
766,769,770,-1
764,765,775,-1
764,775,769,-1
133,770,707,-1
770,771,708,-1
769,774,711,-1
772,773,710,-1
772,709,774,-1
775,712,776,-1
773,777,714,-1
776,713,777,-1
778,779,716,-1
769,771,770,-1
769,775,774,-1
772,774,773,-1
773,774,775,-1
773,775,777,-1
775,776,777,-1
767,704,782,-1
768,780,717,-1
781,783,720,-1
782,719,783,-1
781,718,787,-1
780,788,725,-1
787,724,784,-1
784,721,785,-1
786,723,789,-1
785,722,793,-1
767,780,768,-1
767,782,780,-1
780,782,781,-1
781,782,783,-1
780,781,787,-1
780,787,788,-1
787,784,785,-1
787,785,786,-1
786,785,793,-1
778,715,788,-1
779,789,726,-1
790,791,728,-1
790,727,792,-1
786,792,729,-1
791,803,740,-1
793,730,802,-1
778,788,779,-1
779,788,789,-1
787,789,788,-1
787,786,789,-1
790,792,791,-1
786,793,792,-1
791,792,793,-1
791,793,803,-1
794,732,731,-1
795,733,732,-1
798,731,735,-1
797,736,734,-1
799,735,736,-1
796,744,733,-1
806,734,743,-1
800,743,737,-1
801,748,738,-1
802,730,739,-1
803,739,740,-1
804,742,741,-1
807,741,744,-1
805,745,742,-1
808,738,745,-1
809,747,746,-1
811,746,748,-1
810,758,747,-1
812,737,749,-1
813,751,750,-1
814,752,751,-1
819,749,756,-1
815,761,752,-1
817,750,754,-1
816,755,753,-1
818,754,755,-1
825,753,762,-1
1085,762,1075,-1
820,756,757,-1
821,757,758,-1
822,760,759,-1
824,759,761,-1
823,763,760,-1
826,1077,763,-1
794,795,732,-1
795,796,733,-1
794,731,798,-1
798,735,799,-1
797,799,736,-1
797,734,806,-1
796,807,744,-1
806,743,800,-1
808,801,738,-1
794,796,795,-1
794,798,796,-1
796,798,797,-1
797,798,799,-1
796,797,806,-1
796,806,807,-1
806,800,812,-1
806,812,801,-1
802,739,803,-1
804,805,742,-1
804,741,807,-1
805,808,745,-1
801,811,748,-1
809,810,747,-1
809,746,811,-1
793,802,803,-1
804,807,805,-1
805,807,808,-1
806,808,807,-1
806,801,808,-1
809,811,810,-1
810,811,819,-1
800,737,812,-1
813,814,751,-1
813,750,817,-1
814,815,752,-1
812,749,819,-1
815,824,761,-1
816,818,755,-1
817,754,818,-1
816,753,825,-1
825,762,1085,-1
826,1087,1077,-1
813,815,814,-1
813,817,815,-1
801,812,819,-1
815,816,825,-1
815,825,824,-1
815,817,816,-1
816,817,818,-1
825,1085,1086,-1
825,1086,1087,-1
819,756,820,-1
810,821,758,-1
820,757,821,-1
822,823,760,-1
822,759,824,-1
823,826,763,-1
801,819,811,-1
810,819,821,-1
819,820,821,-1
822,824,823,-1
823,824,826,-1
825,826,824,-1
825,1087,826,-1
951,210,827,-1
961,828,837,-1
953,827,829,-1
952,830,828,-1
954,829,830,-1
955,832,831,-1
956,833,832,-1
959,831,835,-1
958,836,834,-1
957,853,833,-1
960,835,836,-1
979,852,855,-1
962,837,838,-1
963,840,839,-1
965,838,841,-1
966,841,842,-1
964,843,840,-1
967,844,843,-1
968,845,844,-1
970,842,846,-1
971,846,847,-1
972,849,848,-1
973,847,849,-1
974,851,850,-1
976,834,852,-1
978,857,854,-1
977,850,853,-1
975,854,851,-1
980,855,856,-1
982,859,858,-1
983,860,859,-1
984,864,860,-1
986,858,862,-1
985,863,861,-1
985,861,866,-1
987,862,863,-1
981,865,857,-1
988,856,864,-1
989,868,865,-1
991,866,867,-1
992,867,868,-1
951,827,953,-1
952,828,961,-1
952,954,830,-1
953,829,954,-1
955,956,832,-1
955,831,959,-1
956,957,833,-1
958,834,976,-1
958,960,836,-1
959,835,960,-1
951,952,961,-1
951,953,952,-1
953,954,952,-1
955,957,956,-1
955,959,957,-1
957,959,958,-1
957,958,976,-1
959,960,958,-1
979,980,976,-1
980,981,976,-1
961,837,962,-1
962,838,965,-1
963,964,840,-1
965,841,966,-1
964,967,843,-1
967,968,844,-1
969,845,968,-1
966,842,970,-1
973,971,847,-1
970,846,971,-1
973,849,972,-1
974,975,851,-1
974,850,977,-1
957,977,853,-1
979,976,852,-1
981,857,978,-1
975,978,854,-1
961,962,963,-1
963,962,964,-1
962,965,964,-1
964,965,966,-1
964,966,967,-1
967,970,968,-1
969,968,973,-1
968,971,973,-1
967,966,970,-1
970,971,968,-1
969,973,972,-1
974,977,975,-1
957,976,977,-1
981,978,976,-1
975,977,978,-1
977,976,978,-1
979,855,980,-1
980,856,988,-1
982,983,859,-1
982,858,986,-1
983,984,860,-1
985,987,863,-1
986,862,987,-1
980,988,981,-1
982,984,983,-1
982,986,984,-1
986,985,984,-1
986,987,985,-1
984,985,988,-1
984,988,864,-1
981,989,865,-1
985,866,990,-1
990,866,991,-1
989,992,868,-1
991,867,992,-1
981,988,989,-1
985,989,988,-1
985,990,989,-1
989,990,992,-1
990,991,992,-1
994,869,870,-1
1007,871,883,-1
995,873,871,-1
996,870,872,-1
999,872,875,-1
997,874,873,-1
998,876,874,-1
1000,877,876,-1
1001,878,877,-1
1003,875,879,-1
1004,881,880,-1
993,880,869,-1
1005,885,881,-1
1006,884,882,-1
1008,883,884,-1
1011,882,887,-1
1009,886,885,-1
1012,887,888,-1
1010,889,886,-1
1014,888,890,-1
1013,894,889,-1
1002,891,878,-1
1016,879,892,-1
1015,892,891,-1
1017,890,893,-1
1019,893,895,-1
1022,895,898,-1
1018,900,894,-1
1020,901,896,-1
1021,896,897,-1
1023,898,899,-1
1025,899,901,-1
1024,902,900,-1
1026,897,902,-1
1027,904,903,-1
1028,905,904,-1
1031,903,907,-1
1030,908,906,-1
1032,907,908,-1
1029,914,905,-1
1033,906,909,-1
1034,911,910,-1
1041,909,917,-1
1036,913,912,-1
1038,912,914,-1
1037,927,913,-1
1039,910,915,-1
1040,915,916,-1
1035,918,911,-1
1043,917,919,-1
1042,920,918,-1
1044,921,920,-1
1046,919,922,-1
1047,922,923,-1
1045,924,921,-1
1048,925,924,-1
1049,928,925,-1
1050,916,926,-1
1051,930,927,-1
1052,926,928,-1
1054,929,930,-1
1053,923,929,-1
994,993,869,-1
994,870,996,-1
1007,995,871,-1
997,873,995,-1
996,872,999,-1
997,998,874,-1
998,1000,876,-1
999,875,1003,-1
1000,1001,877,-1
1001,1002,878,-1
1003,879,1016,-1
994,1007,993,-1
994,995,1007,-1
994,996,995,-1
996,997,995,-1
996,999,998,-1
996,998,997,-1
998,999,1000,-1
1000,999,1001,-1
999,1003,1001,-1
1003,1002,1001,-1
1004,880,993,-1
1008,884,1006,-1
1004,1005,881,-1
1006,882,1011,-1
1008,1007,883,-1
1005,1009,885,-1
1009,1010,886,-1
1011,887,1012,-1
1012,888,1014,-1
1010,1013,889,-1
1014,890,1017,-1
1002,1015,891,-1
1015,1016,892,-1
1013,1018,894,-1
1017,893,1019,-1
1019,895,1022,-1
1018,1024,900,-1
1020,896,1021,-1
1020,1025,901,-1
1021,897,1026,-1
1022,898,1023,-1
1023,899,1025,-1
1024,1026,902,-1
1004,993,1008,-1
1004,1008,1006,-1
1004,1006,1005,-1
1005,1006,1009,-1
993,1007,1008,-1
1009,1006,1011,-1
1009,1011,1010,-1
1011,1012,1010,-1
1010,1012,1013,-1
1012,1014,1013,-1
1013,1014,1018,-1
1002,1016,1015,-1
1003,1016,1002,-1
1014,1017,1018,-1
1018,1017,1019,-1
1019,1022,1024,-1
1018,1019,1024,-1
1020,1021,1025,-1
1022,1023,1024,-1
1023,1026,1024,-1
1021,1026,1025,-1
1023,1025,1026,-1
1027,1028,904,-1
1028,1029,905,-1
1027,903,1031,-1
1031,907,1032,-1
1030,1032,908,-1
1027,1029,1028,-1
1027,1030,1029,-1
1027,1031,1030,-1
1030,1031,1032,-1
1030,906,1033,-1
1033,909,1041,-1
1034,1035,911,-1
1034,910,1039,-1
1029,1038,914,-1
1036,1037,913,-1
1036,912,1038,-1
1039,915,1040,-1
1037,1051,927,-1
1035,1042,918,-1
1041,917,1043,-1
1043,919,1046,-1
1042,1044,920,-1
1044,1045,921,-1
1046,922,1047,-1
1047,923,1053,-1
1045,1048,924,-1
1048,1049,925,-1
1049,1052,928,-1
1040,916,1050,-1
1050,926,1052,-1
1051,1054,930,-1
1053,929,1054,-1
1029,1030,1033,-1
1029,1033,1034,-1
1029,1034,1038,-1
1033,1035,1034,-1
1033,1041,1035,-1
1036,1038,1037,-1
1038,1034,1039,-1
1037,1038,1051,-1
1038,1039,1051,-1
1039,1040,1051,-1
1041,1042,1035,-1
1041,1043,1042,-1
1043,1044,1042,-1
1043,1046,1044,-1
1044,1046,1045,-1
1045,1046,1047,-1
1040,1050,1051,-1
1051,1050,1054,-1
1050,1052,1054,-1
1049,1054,1052,-1
1045,1047,1048,-1
1048,1047,1053,-1
1048,1053,1049,-1
1049,1053,1054,-1
1055,932,931,-1
1056,933,932,-1
1059,931,935,-1
1058,936,934,-1
1060,935,936,-1
1062,937,938,-1
1065,941,933,-1
1066,934,942,-1
1063,940,939,-1
1065,939,941,-1
1064,943,940,-1
1067,944,943,-1
1061,942,937,-1
1068,947,944,-1
1069,946,945,-1
1072,938,948,-1
1071,945,947,-1
1070,950,946,-1
1073,948,949,-1
1074,949,950,-1
1055,931,1059,-1
1055,1056,932,-1
1056,1057,933,-1
1059,935,1060,-1
1058,1060,936,-1
1061,937,1062,-1
1055,1057,1056,-1
1055,1059,1057,-1
1057,1059,1058,-1
1058,1059,1060,-1
1057,1065,933,-1
1058,934,1066,-1
1066,942,1061,-1
1063,939,1065,-1
1063,1064,940,-1
1064,1067,943,-1
1067,1068,944,-1
1062,938,1072,-1
1069,1070,946,-1
1068,1071,947,-1
1069,945,1071,-1
1072,948,1073,-1
1070,1074,950,-1
1057,1058,1066,-1
1057,1066,1065,-1
1063,1065,1064,-1
1065,1066,1067,-1
1064,1065,1067,-1
1066,1068,1067,-1
1066,1061,1062,-1
1066,1062,1068,-1
1062,1072,1068,-1
1068,1072,1071,-1
1069,1071,1070,-1
1070,1071,1072,-1
1070,1072,1074,-1
1073,949,1074,-1
1072,1073,1074,-1
1086,1075,1076,-1
1087,1080,1077,-1
1091,1076,1081,-1
1088,1079,1078,-1
1090,1078,1080,-1
1089,1083,1079,-1
1092,1081,1082,-1
1093,1082,1083,-1
1085,1075,1086,-1
1086,1076,1091,-1
1087,1086,1091,-1
1087,1090,1080,-1
1088,1089,1079,-1
1088,1078,1090,-1
1089,1093,1083,-1
1091,1081,1092,-1
1092,1082,1093,-1
1087,1091,1090,-1
1088,1090,1089,-1
1089,1090,1091,-1
1089,1091,1093,-1
1091,1092,1093,-1
1215,1095,1096,-1
1216,1096,1097,-1
1217,1106,1098,-1
1218,1098,1099,-1
1219,1099,1100,-1
1214,1101,1095,-1
1220,1103,1101,-1
1221,1100,1102,-1
1223,1102,1104,-1
1222,1136,1103,-1
1256,1104,1137,-1
1224,1097,1105,-1
1225,1107,1106,-1
1227,1105,1108,-1
1226,1109,1107,-1
1228,1110,1109,-1
1229,1112,1110,-1
1230,1108,1111,-1
1231,1113,1112,-1
1233,1111,1114,-1
1232,1114,1113,-1
1234,1146,1115,-1
1235,1115,1116,-1
1236,1118,1117,-1
1237,1119,1118,-1
1243,1117,1124,-1
1239,1125,1120,-1
1240,1120,1121,-1
1238,1156,1119,-1
1241,1123,1122,-1
1245,1121,1126,-1
1276,1122,1157,-1
1244,1124,1125,-1
1247,1126,1128,-1
1242,1127,1123,-1
1246,1129,1127,-1
1248,1130,1129,-1
1249,1131,1130,-1
1250,1132,1131,-1
1252,1128,1133,-1
1253,1133,1134,-1
1254,1134,1135,-1
1214,1095,1215,-1
1216,1215,1096,-1
1217,1098,1218,-1
1216,1097,1224,-1
1219,1218,1099,-1
1214,1220,1101,-1
1219,1100,1221,-1
1221,1102,1223,-1
1220,1222,1103,-1
1222,1255,1136,-1
1223,1104,1256,-1
1217,1225,1106,-1
1224,1105,1227,-1
1225,1226,1107,-1
1226,1228,1109,-1
1227,1108,1230,-1
1228,1229,1110,-1
1229,1231,1112,-1
1231,1232,1113,-1
1230,1111,1233,-1
1232,1233,1114,-1
1234,1115,1235,-1
1214,1215,1219,-1
1216,1218,1215,-1
1216,1217,1218,-1
1216,1224,1217,-1
1215,1218,1219,-1
1214,1221,1220,-1
1214,1219,1221,-1
1220,1221,1222,-1
1222,1221,1223,-1
1222,1223,1255,-1
1223,1256,1255,-1
1217,1224,1225,-1
1224,1226,1225,-1
1224,1227,1226,-1
1226,1227,1228,-1
1228,1227,1229,-1
1227,1230,1229,-1
1229,1230,1231,-1
1231,1233,1232,-1
1230,1233,1231,-1
1234,1235,1265,-1
1236,1237,1118,-1
1237,1238,1119,-1
1236,1117,1243,-1
1239,1120,1240,-1
1238,1275,1156,-1
1240,1121,1245,-1
1241,1242,1123,-1
1241,1122,1276,-1
1239,1244,1125,-1
1243,1124,1244,-1
1245,1126,1247,-1
1242,1246,1127,-1
1247,1128,1252,-1
1246,1248,1129,-1
1248,1249,1130,-1
1249,1250,1131,-1
1250,1251,1132,-1
1252,1133,1253,-1
1254,1135,1281,-1
1253,1134,1254,-1
1236,1238,1237,-1
1236,1239,1238,-1
1236,1243,1239,-1
1238,1239,1240,-1
1238,1240,1241,-1
1238,1241,1275,-1
1240,1242,1241,-1
1240,1245,1242,-1
1275,1241,1276,-1
1239,1243,1244,-1
1242,1245,1246,-1
1245,1247,1246,-1
1246,1247,1248,-1
1247,1252,1248,-1
1252,1249,1248,-1
1252,1253,1249,-1
1249,1253,1250,-1
1250,1253,1254,-1
1250,1254,1251,-1
1251,1254,1281,-1
1255,1138,1136,-1
1258,1137,1139,-1
1257,1141,1138,-1
1259,1139,1140,-1
1262,1142,1143,-1
1261,1140,1142,-1
1260,1145,1141,-1
1263,1143,1144,-1
1265,1144,1146,-1
1264,1147,1145,-1
1266,1116,1147,-1
1267,540,1148,-1
1269,1148,1150,-1
1268,1150,1149,-1
1271,1151,1152,-1
1273,1155,1154,-1
1275,1154,1156,-1
1274,1160,1155,-1
1277,1157,1158,-1
1278,1158,1159,-1
1279,1162,1160,-1
1280,1159,1161,-1
1251,1161,1132,-1
1281,1135,1162,-1
1285,1163,1166,-1
1282,1152,1163,-1
1283,1165,1164,-1
1272,1164,1153,-1
1284,1168,1165,-1
1286,1166,1167,-1
1287,1169,1168,-1
1288,1170,1169,-1
1289,1190,1170,-1
1256,1137,1258,-1
1255,1257,1138,-1
1258,1139,1259,-1
1257,1260,1141,-1
1261,1142,1262,-1
1261,1259,1140,-1
1260,1264,1145,-1
1262,1143,1263,-1
1263,1144,1265,-1
1234,1265,1146,-1
1235,1116,1266,-1
1264,1266,1147,-1
1256,1257,1255,-1
1256,1258,1257,-1
1258,1260,1257,-1
1258,1259,1260,-1
1260,1259,1261,-1
1260,1261,1264,-1
1261,1262,1264,-1
1262,1263,1264,-1
1263,1266,1264,-1
1235,1266,1265,-1
1263,1265,1266,-1
1267,1148,1269,-1
1268,1269,1150,-1
1282,1271,1152,-1
1270,1151,1271,-1
1268,1267,1269,-1
639,1267,1268,-1
1270,1271,1272,-1
1271,1283,1272,-1
1273,1274,1155,-1
1273,1154,1275,-1
1276,1157,1277,-1
1274,1279,1160,-1
1277,1158,1278,-1
1278,1159,1280,-1
1251,1280,1161,-1
1279,1281,1162,-1
1273,1275,1274,-1
1274,1275,1279,-1
1275,1276,1279,-1
1276,1277,1279,-1
1277,1278,1279,-1
1251,1281,1280,-1
1278,1280,1281,-1
1279,1278,1281,-1
1282,1163,1285,-1
1284,1165,1283,-1
1283,1164,1272,-1
1285,1166,1286,-1
1284,1287,1168,-1
1287,1288,1169,-1
1288,1289,1170,-1
1289,1309,1190,-1
1282,1285,1284,-1
1282,1283,1271,-1
1282,1284,1283,-1
1284,1285,1287,-1
1285,1288,1287,-1
1285,1286,1288,-1
1288,1286,1289,-1
1286,1309,1289,-1
1290,1172,1171,-1
1291,1173,1172,-1
1294,1171,1175,-1
1293,1176,1174,-1
1295,1175,1176,-1
1301,1182,1173,-1
1302,1174,1183,-1
1303,1179,1184,-1
1296,1183,1177,-1
1297,1177,1178,-1
1298,1187,1179,-1
1307,1178,1188,-1
1290,1291,1172,-1
1290,1171,1294,-1
1291,1292,1173,-1
1293,1174,1302,-1
1293,1295,1176,-1
1294,1175,1295,-1
1292,1301,1173,-1
1302,1183,1296,-1
1296,1177,1297,-1
1297,1178,1307,-1
1303,1298,1179,-1
1298,1306,1187,-1
1290,1292,1291,-1
1290,1294,1292,-1
1292,1294,1293,-1
1292,1293,1302,-1
1293,1294,1295,-1
1292,1302,1301,-1
1302,1298,1303,-1
1302,1296,1297,-1
1302,1297,1298,-1
1297,1307,1298,-1
1298,1307,1306,-1
1299,1181,1180,-1
1301,1180,1182,-1
1300,1184,1181,-1
1304,1186,1185,-1
1306,1185,1187,-1
1305,1203,1186,-1
1308,1167,1189,-1
1309,1191,1190,-1
1310,1192,1191,-1
1311,1193,1192,-1
1312,1189,1193,-1
1314,1194,1195,-1
1316,1197,1194,-1
1316,1198,1197,-1
1317,1196,1198,-1
1315,1199,1196,-1
1318,1200,1199,-1
1319,1201,1200,-1
1321,1188,1202,-1
1322,1202,1203,-1
1323,1195,1204,-1
1324,1204,1205,-1
1320,1206,1201,-1
1325,1207,1206,-1
1326,1208,1207,-1
1327,1209,1208,-1
1328,1212,1209,-1
1329,1205,1210,-1
1330,1210,1211,-1
1332,1211,1213,-1
1299,1300,1181,-1
1299,1180,1301,-1
1300,1303,1184,-1
1304,1305,1186,-1
1304,1185,1306,-1
1305,1322,1203,-1
1307,1188,1321,-1
1299,1301,1300,-1
1300,1301,1303,-1
1301,1302,1303,-1
1304,1306,1305,-1
1305,1306,1307,-1
1305,1307,1322,-1
1286,1167,1308,-1
1309,1310,1191,-1
1310,1311,1192,-1
1308,1189,1312,-1
1311,1312,1193,-1
1313,1194,1314,-1
1314,1195,1323,-1
1313,1316,1194,-1
1317,1315,1196,-1
1316,1317,1198,-1
1318,1199,1315,-1
1318,1319,1200,-1
1319,1320,1201,-1
1286,1308,1309,-1
1308,1310,1309,-1
1308,1312,1310,-1
1310,1312,1311,-1
1313,1314,1318,-1
1314,1320,1319,-1
1314,1323,1320,-1
1313,1318,1315,-1
1313,1315,1316,-1
1316,1315,1317,-1
1318,1314,1319,-1
1321,1202,1322,-1
1307,1321,1322,-1
1323,1204,1324,-1
1324,1205,1329,-1
1320,1325,1206,-1
1325,1326,1207,-1
1326,1327,1208,-1
1327,1328,1209,-1
1328,1331,1212,-1
1329,1210,1330,-1
1330,1211,1332,-1
1332,1213,1434,-1
1320,1323,1325,-1
1323,1326,1325,-1
1323,1324,1326,-1
1326,1324,1327,-1
1324,1329,1327,-1
1329,1328,1327,-1
1329,1330,1328,-1
1328,1330,1331,-1
1331,1330,1332,-1
1393,1149,1337,-1
1270,1333,1151,-1
1389,1335,1333,-1
1390,1153,1334,-1
1392,1334,1336,-1
1391,1340,1335,-1
1394,1337,1338,-1
1395,1338,1339,-1
1396,1342,1340,-1
1397,1336,1341,-1
1399,1341,1343,-1
1398,1345,1342,-1
1400,1343,1344,-1
1402,1344,1346,-1
1401,1348,1345,-1
1403,1346,1347,-1
1412,1347,1356,-1
1268,1149,1393,-1
1270,1389,1333,-1
1390,1272,1153,-1
1390,1334,1392,-1
1389,1391,1335,-1
1391,1396,1340,-1
699,1268,1393,-1
1270,1272,1390,-1
1270,1390,1389,-1
1389,1390,1391,-1
1390,1392,1391,-1
1391,1392,1396,-1
1396,1392,1397,-1
698,1395,1339,-1
1393,1337,1394,-1
1394,1338,1395,-1
699,1393,1395,-1
1393,1394,1395,-1
1392,1336,1397,-1
1396,1398,1342,-1
1397,1341,1399,-1
1399,1343,1400,-1
1398,1401,1345,-1
1400,1344,1402,-1
1402,1346,1403,-1
1412,1403,1347,-1
1401,1404,1348,-1
1396,1397,1398,-1
1397,1399,1398,-1
1398,1399,1401,-1
1399,1400,1401,-1
1400,1402,1401,-1
1402,1403,1404,-1
1412,1404,1403,-1
1401,1402,1404,-1
1406,1349,1350,-1
1405,1355,1349,-1
1407,1352,1351,-1
1408,1367,1352,-1
1410,1353,1354,-1
1411,1356,1355,-1
1413,1350,1357,-1
1404,1357,1348,-1
1409,1358,1353,-1
1414,1363,1358,-1
1415,1354,1359,-1
1416,1359,1360,-1
1417,1360,1361,-1
1418,1361,1362,-1
1419,1364,1363,-1
1420,1365,1364,-1
1422,1351,1366,-1
1426,1366,1370,-1
1423,1374,1367,-1
1331,1368,1212,-1
1424,1369,1368,-1
1425,1370,1369,-1
1427,1372,1371,-1
1429,1371,1373,-1
1430,1375,1374,-1
1431,1376,1375,-1
1432,1377,1376,-1
1433,1387,1377,-1
1434,1213,1378,-1
1435,1378,1379,-1
1428,1379,1372,-1
1436,1373,1380,-1
1437,1380,1381,-1
1438,1381,1382,-1
1439,1362,1383,-1
1440,1383,1384,-1
1421,1385,1365,-1
1441,1388,1385,-1
1442,1384,1386,-1
1443,1386,1387,-1
1444,1382,1388,-1
1405,1349,1406,-1
1406,1350,1413,-1
1407,1351,1422,-1
1407,1408,1352,-1
1409,1353,1410,-1
1410,1354,1415,-1
1405,1406,1411,-1
1407,1422,1408,-1
1409,1410,1415,-1
1412,1356,1411,-1
1405,1411,1355,-1
1404,1413,1357,-1
1409,1414,1358,-1
1414,1419,1363,-1
1415,1359,1416,-1
1416,1360,1417,-1
1417,1361,1418,-1
1419,1420,1364,-1
1420,1421,1365,-1
1412,1413,1404,-1
1412,1411,1413,-1
1411,1406,1413,-1
1409,1415,1414,-1
1415,1419,1414,-1
1415,1416,1419,-1
1416,1417,1420,-1
1417,1418,1421,-1
1419,1416,1420,-1
1420,1417,1421,-1
1408,1423,1367,-1
1422,1366,1426,-1
1423,1430,1374,-1
1331,1424,1368,-1
1424,1425,1369,-1
1426,1370,1425,-1
1427,1371,1429,-1
1428,1372,1427,-1
1429,1373,1436,-1
1430,1431,1375,-1
1431,1432,1376,-1
1432,1433,1377,-1
1433,1443,1387,-1
1435,1434,1378,-1
1428,1435,1379,-1
1436,1380,1437,-1
1437,1381,1438,-1
1438,1382,1444,-1
1422,1423,1408,-1
1422,1426,1427,-1
1422,1430,1423,-1
1422,1427,1430,-1
1426,1428,1427,-1
1427,1429,1430,-1
1426,1425,1428,-1
1430,1429,1431,-1
1431,1429,1436,-1
1431,1436,1432,-1
1432,1437,1433,-1
1331,1434,1424,-1
1424,1435,1425,-1
1424,1434,1435,-1
1331,1332,1434,-1
1425,1435,1428,-1
1432,1436,1437,-1
1433,1437,1438,-1
1433,1438,1443,-1
1418,1362,1439,-1
1439,1383,1440,-1
1421,1441,1385,-1
1442,1386,1443,-1
1442,1440,1384,-1
1441,1444,1388,-1
1418,1439,1441,-1
1439,1440,1441,-1
1418,1441,1421,-1
1441,1440,1444,-1
1442,1444,1440,-1
1442,1443,1444,-1
1443,1438,1444,-1
1453,1446,1445,-1
1454,1448,1446,-1
1457,1447,1449,-1
1456,1461,1448,-1
1458,1449,1450,-1
1459,1445,1451,-1
1455,1452,1447,-1
1460,1451,1452,-1
1453,1445,1459,-1
1453,1454,1446,-1
1455,1447,1457,-1
1454,1456,1448,-1
1457,1449,1458,-1
1458,1450,1493,-1
1455,1460,1452,-1
1453,1455,1454,-1
1454,1455,1456,-1
1453,1459,1455,-1
1455,1457,1456,-1
1457,1458,1456,-1
1456,1458,1490,-1
1459,1460,1455,-1
1459,1451,1460,-1
1492,1462,1463,-1
1490,1465,1461,-1
1493,1450,1464,-1
1494,1466,1465,-1
1496,1464,1467,-1
1495,1469,1466,-1
1497,1467,1468,-1
1498,1470,1469,-1
1499,1471,1470,-1
1500,1472,1471,-1
1491,1474,1462,-1
1502,1463,1473,-1
1503,1478,1474,-1
1504,1473,1475,-1
1505,1475,1476,-1
1506,1476,1477,-1
1508,1477,1479,-1
1507,1481,1478,-1
1509,1479,1480,-1
1511,1480,1482,-1
1510,1484,1481,-1
1501,1482,1472,-1
1513,1483,1484,-1
1514,1468,1485,-1
1515,1485,1486,-1
1516,1486,1487,-1
1517,1487,1488,-1
1512,1488,1483,-1
1456,1490,1461,-1
1491,1462,1492,-1
1492,1463,1502,-1
1490,1494,1465,-1
1494,1495,1466,-1
1493,1464,1496,-1
1495,1498,1469,-1
1496,1467,1497,-1
1498,1499,1470,-1
1499,1500,1471,-1
1500,1501,1472,-1
1491,1492,1502,-1
1458,1493,1490,-1
1490,1493,1494,-1
1494,1493,1496,-1
1494,1496,1495,-1
1495,1496,1497,-1
1495,1497,1498,-1
1498,1497,1514,-1
1498,1514,1499,-1
1499,1515,1500,-1
1500,1517,1501,-1
1491,1503,1474,-1
1502,1473,1504,-1
1503,1507,1478,-1
1504,1475,1505,-1
1505,1476,1506,-1
1506,1477,1508,-1
1507,1510,1481,-1
1508,1479,1509,-1
1511,1509,1480,-1
1510,1513,1484,-1
1511,1482,1501,-1
1513,1512,1483,-1
1491,1502,1503,-1
1502,1504,1503,-1
1503,1504,1507,-1
1504,1505,1507,-1
1507,1505,1506,-1
1506,1508,1510,-1
1507,1506,1510,-1
1508,1509,1510,-1
1511,1513,1509,-1
1510,1509,1513,-1
1511,1501,1512,-1
1511,1512,1513,-1
1501,1517,1512,-1
1497,1468,1514,-1
1514,1485,1515,-1
1515,1486,1516,-1
1516,1487,1517,-1
1499,1514,1515,-1
1515,1516,1500,-1
1500,1516,1517,-1
1517,1488,1512,-1
]

colorPerVertex FALSE

color Color { color [
 0 0 0,
 1 1 1,
 0.976471 0.843137 0.172549, # default colour
] }

colorIndex [
0 0 0 0 0 0 0 0 0 0 0 0 0 0 0 0 0 0 0 0 0 0 0 0 0 0 0 0 0 0 0 0 0 0 0 0 0 0 0 0 0 0 0 0 0 0 0 0 0 0 0 0 0 0 0 0 0 0 0 0 0 0 0 0 0 0 0 0 0 0 0 0 0 0 0 0 0 0 0 0 0 0 0 0 0 0 0 0 0 0 0 0 0 0 0 0 0 0 0 0 0 0 0 0 0 0 0 0 0 0 0 0 0 0 0 0 0 0 0 0 0 0 0 0 0 0 0 0 0 0 0 0 0 0 0 0 0 0 0 0 0 0 0 0 0 0 0 0 0 0 0 0 0 0 0 0 0 0 0 0 0 0 0 0 0 0 0 0 0 0 0 0 0 0 0 0 0 0 0 0 0 0 0 0 0 0 0 0 0 0 0 0 0 0 0 0 0 0 0 0 0 0 0 0 0 0 0 0 0 0 0 0 0 0 0 0 0 0 0 0 0 0 0 0 0 0 0 0 0 0 0 0 0 0 0 0 0 0 0 0 0 0 0 0 0 0 0 0 0 0 0 0 0 0 0 0 0 0 0 0 0 0 0 0 0 0 0 0 0 0 0 0 0 0 0 0 0 0 0 0 0 0 0 0 0 0 0 0 0 0 0 0 0 0 0 0 0 0 0 0 0 0 0 0 0 0 0 0 0 0 0 0 0 0 0 0 0 0 0 0 0 0 0 0 0 0 0 0 0 0 0 0 0 0 0 0 0 0 0 0 0 0 0 0 0 0 0 0 0 0 0 0 0 0 0 0 0 0 0 0 0 0 0 0 0 0 0 0 0 0 0 0 0 0 0 0 0 0 0 0 0 0 0 0 0 0 0 0 0 0 0 0 0 0 0 0 0 0 0 0 0 0 0 0 0 0 0 0 0 0 0 0 0 0 0 0 0 0 0 0 0 0 0 0 0 0 0 0 0 0 0 0 0 0 0 0 0 0 0 0 0 0 0 0 0 0 0 0 0 0 0 0 0 0 0 0 0 0 0 0 0 0 0 0 0 0 0 0 0 0 0 0 0 0 0 0 0 0 0 0 0 0 0 0 0 0 0 0 0 0 0 0 0 0 0 0 0 0 0 0 0 0 0 0 0 0 0 0 0 0 0 0 0 0 0 0 0 0 0 0 0 0 0 0 0 0 0 0 0 0 0 0 0 0 0 0 0 0 0 0 0 0 0 0 0 0 0 0 0 0 0 0 0 0 0 0 0 0 0 0 0 0 0 0 0 0 0 0 0 0 0 0 0 0 0 0 0 0 0 0 0 0 0 0 0 0 0 0 0 0 0 0 0 0 0 0 0 0 0 0 0 0 0 0 0 0 0 0 0 0 0 0 0 0 0 0 0 0 0 0 0 0 0 0 0 0 0 0 0 0 0 0 0 0 0 0 0 0 0 0 0 0 0 0 0 0 0 0 0 0 0 0 0 0 0 0 0 0 0 0 0 0 0 0 0 0 0 0 0 0 0 0 0 0 0 0 0 0 0 0 0 0 0 0 0 0 0 0 0 0 0 0 0 0 0 0 0 0 0 0 0 0 0 0 0 0 0 0 0 0 0 0 0 0 0 0 0 0 0 0 0 0 0 0 0 0 0 0 0 0 0 0 0 0 0 0 0 0 0 0 0 0 0 0 0 0 0 0 0 0 0 0 0 0 0 0 0 0 0 0 0 0 0 0 0 0 0 0 0 0 0 0 0 0 0 0 0 0 0 0 0 0 0 0 0 0 0 0 0 0 0 0 0 0 0 0 0 0 0 0 0 0 0 0 0 0 0 0 0 0 0 1 1 1 1 1 1 1 1 1 1 1 1 1 1 1 1 1 1 1 1 1 1 1 1 1 1 1 1 1 1 1 1 1 1 1 1 1 1 1 1 1 1 1 1 1 1 1 1 1 1 1 1 1 1 1 1 1 1 1 1 1 1 1 1 1 1 1 1 1 1 1 1 1 1 1 1 1 1 1 1 1 1 1 1 1 1 1 1 1 1 1 1 1 1 1 1 1 1 1 1 1 1 1 1 1 1 1 1 1 1 1 1 1 1 1 1 1 1 1 1 1 1 1 1 1 1 1 1 1 1 1 1 1 1 1 1 1 1 1 1 1 1 1 1 1 1 1 1 1 1 1 1 1 1 1 1 1 1 1 1 1 1 1 1 1 1 1 1 1 1 1 1 1 1 1 1 1 1 1 1 1 1 1 1 1 1 1 1 1 1 1 1 1 1 1 1 1 1 1 1 1 1 1 1 1 1 1 1 1 1 1 1 1 1 1 1 1 1 1 1 1 1 1 1 1 1 1 1 1 1 1 1 1 1 1 1 1 1 1 1 1 1 1 1 1 1 1 1 1 1 1 1 1 1 1 1 1 1 1 1 1 1 1 1 1 1 1 1 1 1 1 1 1 1 1 1 1 1 1 1 1 1 1 1 1 1 1 1 1 1 1 1 1 1 1 1 1 1 1 1 1 1 1 1 1 1 1 1 1 1 1 1 1 1 1 1 1 1 1 1 1 1 1 1 1 1 1 1 1 1 1 1 1 1 1 1 1 1 1 1 1 1 1 1 1 1 1 1 1 1 1 1 1 1 1 1 1 1 1 1 1 1 1 1 1 1 1 1 1 1 1 1 1 1 1 1 1 1 1 1 1 1 1 1 1 1 1 1 1 1 1 1 1 1 1 1 1 1 1 1 1 1 1 1 1 1 1 1 1 1 1 1 1 1 1 1 1 1 1 1 1 1 1 1 1 1 1 1 1 1 1 1 1 1 1 1 1 1 1 1 1 1 1 1 1 1 1 1 1 1 1 1 1 1 1 1 1 1 1 1 1 1 1 1 1 1 1 1 1 1 1 1 1 1 1 1 1 1 1 1 1 1 1 1 1 1 1 1 1 1 1 1 1 1 1 1 1 1 1 1 1 1 1 1 1 1 1 1 1 1 1 1 1 1 1 1 1 1 1 1 1 1 1 1 1 1 1 1 1 1 1 1 1 1 1 1 1 1 1 1 1 1 1 1 1 1 1 1 1 1 1 1 1 1 1 1 1 1 1 1 1 1 1 1 1 1 1 1 1 1 1 1 1 1 1 1 1 1 1 1 1 1 1 1 1 1 1 1 1 1 1 1 1 1 1 1 1 1 1 1 1 1 1 1 1 1 1 1 1 1 1 1 1 1 1 1 1 1 1 1 1 1 1 1 1 1 1 1 1 1 1 1 1 1 1 1 1 1 1 1 1 1 1 1 1 1 1 1 1 1 1 1 1 1 1 1 1 1 1 1 1 1 1 1 1 1 1 1 1 1 1 1 1 1 1 1 1 1 1 1 1 1 1 1 1 1 1 1 1 1 1 1 1 1 1 1 1 1 1 1 1 1 1 1 1 1 1 1 1 1 1 1 1 1 1 1 1 1 1 1 1 1 1 1 1 1 1 1 1 1 1 1 1 1 1 1 1 1 1 1 1 1 1 1 1 1 1 1 1 1 1 1 1 1 1 1 1 1 1 1 1 1 1 1 1 1 1 1 1 1 1 1 1 1 1 1 1 1 1 1 1 1 1 1 1 1 1 1 1 1 1 1 1 1 1 1 1 1 1 1 1 1 1 1 1 1 1 1 1 1 1 1 1 1 1 1 1 1 1 1 1 1 1 1 1 1 1 1 1 1 1 1 1 1 1 1 1 1 1 1 1 1 1 1 1 1 1 1 1 1 1 1 1 1 1 1 1 1 1 1 1 1 1 1 1 1 1 1 1 1 1 1 1 1 1 1 1 1 1 1 1 1 1 1 1 1 1 1 1 1 1 1 1 1 1 1 1 1 1 1 1 1 1 1 1 1 1 1 1 1 1 1 1 1 1 1 1 1 1 1 1 1 1 1 1 1 1 1 1 1 1 1 1 1 1 1 1 1 1 1 1 1 1 1 1 1 1 1 1 1 1 1 1 1 1 1 1 1 1 1 1 1 1 1 1 1 1 1 1 1 1 1 1 1 1 1 1 1 1 1 1 1 1 1 1 1 1 1 1 1 1 1 1 1 1 1 1 1 1 1 1 1 1 1 1 1 1 1 1 1 1 1 1 1 1 1 1 1 1 1 1 1 1 1 1 1 1 1 1 1 1 1 1 1 1 1 1 1 1 1 1 1 1 1 1 1 1 1 1 1 1 1 1 1 1 1 1 1 1 1 1 1 1 1 1 1 1 1 1 1 1 1 1 1 1 1 1 1 1 1 1 1 1 1 1 1 1 1 1 1 1 1 1 1 1 1 1 1 1 1 1 1 1 1 1 1 1 1 1 1 1 1 1 1 1 1 1 1 1 1 1 1 1 1 1 1 1 1 1 1 1 1 1 1 1 1 1 1 1 1 1 1 1 1 1 1 1 1 1 1 1 1 1 1 1 1 1 1 1 1 1 1 1 1 1 1 1 1 1 1 1 1 1 1 1 1 1 1 1 1 1 1 1 1 1 1 1 1 1 1 1 1 1 1 1 1 1 1 1 1 1 1 1 1 1 1 1 1 1 1 1 1 1 1 1 1 1 1 1 1 1 1 1 1 1 1 1 1 1 1 1 1 1 1 1 1 1 1 1 1 1 1 1 1 1 1 1 1 1 1 1 1 1 1 1 1 1 1 1 1 1 1 1 1 1 1 1 1 1 1 1 1 1 1 1 1 1 1 1 1 1 1 1 1 1 1 1 1 1 1 1 1 1 1 1 1 1 1 1 1 1 1 1 1 1 1 1 1 1 1 1 1 1 1 1 1 1 1 1 1 1 1 1 1 1 1 1 1 1 1 1 1 1 1 1 1 1 1 1 1 1 1 1 1 1 1 1 1 1 1 1 1 1 1 1 1 1 1 1 1 1 1 1 1 1 1 1 1 1 1 1 1 1 1 1 1 1 1 1 1 1 1 1 1 1 1 1 1 1 1 1 1 1 1 1 1 1 1 1 1 1 1 1 1 1 1 1 1 1 1 1 1 1 1 1 1 1 1 1 1 1 1 1 1 1 1 1 1 1 1 1 1 1 1 1 1 1 1 1 1 1 1 1 1 1 1 1 1 1 1 1 1 1 1 1 1 1 1 1 1 1 1 1 1 1 1 1 1 1 1 1 1 1 1 1 1 1 1 1 1 1 1 1 1 1 1 1 1 1 1 1 1 1 1 1 1 1 1 1 1 1 1 1 1 1 1 1 1 1 1 1 1 1 1 1 1 1 1 1 1 1 1 1 1 1 1 1 1 1 1 1 1 1 1 1 1 1 1 1 1 1 1 1 1 1 1 1 1 1 1 1 1 1 1 1 1 1 1 1 1 1 1 1 1 1 1 1 1 1 1 1 1 1 1 1 1 1 1 1 1 1 1 1 1 1 1 1 1 1 1 1 1 1 1 1 1 1 1 1 1 1 1 1 1 1 1 1 1 1 1 1 1 1 1 1 1 1 1 1 1 1 1 1 1 1 1 1 1 1 1 1 1 1 1 1 1 1 1 1 1 1 1 1 1 1 1 1 1 1 1 1 1 1 1 1 1 1 1 1 1 1 1 1 1 1 1 1 1 1 1 1 1 1 1 1 1 1 1 1 1 1 1 1 1 1 1 1 1 1 1 1 1 1 1 1 1 1 1 1 1 1 1 1 1 1 1 1 1 1 1 1 1 1 1 1 1 1 1 1 1 1 1 1 1 1 1 1 1 1 1 1 1 1 1 1 1 1 1 1 1 1 1 1 1 1 1 1 1 1 1 1 1 1 1 1 1 1 1 1 1 1 1 1 1 1 1 1 1 1 1 1 1 1 1 1 1 1 1 1 1 1 1 1 1 1 1 1 1 1 1 1 1 1 1 1 1 1 1 1 1 1 1 1 1 1 1 1 1 1 1 1 1 1 1 1 1 1 1 1 1 1 1 1 1 1 1 1 1 1 1 1 1 1 1 1 1 1 1 1 1 1 1 1 1 1 1 1 1 1 1 1 1 1 1 1 1 1 1 1 1 1 1 1 1 1 1 1 1 1 1 1 1 1 1 1 1 1 1 1 1 1 1 1 1 1 1 1 1 1 1 1 1 1 1 1 1 1 1 1 1 1 1 1 1 1 1 1 1 1 1 1 1 1 1 1 1 1 1 1 1 1 1 1 1 1 1 1 1 1 1 1 1 1 1 1 1 1 1 1 1 1 1 1 1 1 1 1 1 1 1 1 1 1 1 1 1 1 1 1 1 1 1 1 1 1 1 1 1 1 1 1 1 1 1 1 1 1 1 1 1 1 1 1 1 1 1 1 1 1 1 1 1 1 1 1 1 1 1 1 1 1 1 1 1 1 1 1 1 1 1 1 1 1 1 1 1 1 1 1 1 1 1 1 1 1 1 1 1 1 1 1 1 1 1 1 1 1 1 1 1 1 1 1 1 1 1 1 1 1 1 1 1 1 1 1 1 1 1 1 1 1 1 1 1 1 1 1 1 1 1 1 1 1 1 1 1 1 1 1 1 1 1 1 1 1 1 1 1 1 1 1 1 1 1 1 1 1 1 1 1 1 1 1 1 1 1 1 1 1 1 1 1 1 1 1 1 1 1 1 1 1 1 1 1 1 1 1 1 1 1 1 1 1 1 1 1 1 1 1 1 1 1 1 1 1 1 1 1 1 1 1 1 1 1 1 1 1 1 1 1 1 1 1 1 1 1 1 1 1 1 1 1 1 1 1 1 1 1 1 1 1 1 1 1 1 1 1 1 1 1 1 1 1 1 1 1 1 1 1 1 1 1 1 1 1 1 1 1 1 1 1 1 1 1 1 1 1 1 1 1 1 ]

}

}
