#VRML V2.0 utf8

Shape {

appearance Appearance { material Material {
ambientIntensity 0.3
diffuseColor 0.97647 0.843137 0.172549
specularColor 0.2 0.2 0.2
shininess 0.3
} }

geometry IndexedFaceSet {

creaseAngle 0.5

coord Coordinate { point [
0 0 0,
0 0 0.8,
1.48908 0.857143 0.8,
1.48908 0.872546 0.8,
1.37022 1.23147 0.8,
1.37022 1.24687 0.8,
1.4141 1.22391 0.8,
1.48269 1.22391 0.8,
1.48908 0.857143 1,
1.48908 0.872546 1,
1.37022 1.23147 1,
1.37022 1.24687 1,
1.4141 1.22391 1,
1.48269 1.22391 1,
1.55099 0.880393 0.8,
1.60708 0.880393 0.8,
1.66898 0.857143 0.8,
1.66898 0.872546 0.8,
1.55099 1.00885 0.8,
1.60708 1.01059 0.8,
1.59458 1.04401 0.8,
1.535 1.23147 0.8,
1.535 1.24687 0.8,
1.65154 1.23147 0.8,
1.65154 1.24687 0.8,
1.70095 1.22391 0.8,
1.73553 1.22391 0.8,
1.77825 1.23147 0.8,
1.77825 1.24687 0.8,
1.80008 1.23147 0.8,
1.80008 1.24687 0.8,
1.84396 1.22391 0.8,
1.91894 0.857143 0.8,
1.91894 0.872546 0.8,
1.98085 0.880393 0.8,
2.03694 0.880393 0.8,
1.98085 1.00885 0.8,
2.03694 1.01059 0.8,
2.02444 1.04401 0.8,
2.09884 0.857143 0.8,
2.09884 0.872546 0.8,
1.91255 1.22391 0.8,
1.96486 1.23147 0.8,
1.96486 1.24687 0.8,
2.0814 1.23147 0.8,
2.0814 1.24687 0.8,
2.13081 1.22391 0.8,
2.16539 1.22391 0.8,
2.20811 1.23147 0.8,
2.22384 1.23147 0.8,
2.20811 1.24687 0.8,
2.22384 1.24687 0.8,
1.55099 0.880393 1,
1.60708 0.880393 1,
1.66898 0.857143 1,
1.66898 0.872546 1,
1.55099 1.00885 1,
1.60708 1.01059 1,
1.59458 1.04401 1,
1.535 1.23147 1,
1.535 1.24687 1,
1.65154 1.23147 1,
1.65154 1.24687 1,
1.70095 1.22391 1,
1.73553 1.22391 1,
1.77825 1.23147 1,
1.77825 1.24687 1,
1.80008 1.23147 1,
1.80008 1.24687 1,
1.84396 1.22391 1,
1.91894 0.857143 1,
1.91894 0.872546 1,
1.98085 0.880393 1,
2.03694 0.880393 1,
1.98085 1.00885 1,
2.03694 1.01059 1,
2.02444 1.04401 1,
2.09884 0.857143 1,
2.09884 0.872546 1,
1.91255 1.22391 1,
1.96486 1.23147 1,
1.96486 1.24687 1,
2.0814 1.23147 1,
2.0814 1.24687 1,
2.13081 1.22391 1,
2.16539 1.22391 1,
2.20811 1.23147 1,
2.22384 1.23147 1,
2.20811 1.24687 1,
2.22384 1.24687 1,
2.38688 0.848134 0.8,
2.40228 0.848134 0.8,
2.40809 0.949273 0.8,
2.60717 0.848134 0.8,
2.62257 0.848134 0.8,
2.50604 1.11667 0.8,
2.25784 1.22391 0.8,
2.31538 1.22391 0.8,
2.37264 1.23147 0.8,
2.37264 1.24687 0.8,
2.51301 1.21955 0.8,
2.52609 1.21955 0.8,
2.62722 0.949273 0.8,
2.94869 0.848134 0.8,
2.9641 0.848134 0.8,
2.96991 0.949273 0.8,
2.65484 1.23147 0.8,
2.65484 1.24687 0.8,
2.71557 1.22391 0.8,
2.74987 1.22391 0.8,
2.78387 1.23147 0.8,
2.78565 1.23147 0.8,
2.78387 1.24687 0.8,
2.78565 1.24687 0.8,
2.81966 1.22391 0.8,
2.8772 1.22391 0.8,
2.93445 1.23147 0.8,
2.93445 1.24687 0.8,
2.38688 0.848134 1,
2.40228 0.848134 1,
2.40809 0.949273 1,
2.60717 0.848134 1,
2.62257 0.848134 1,
2.50604 1.11667 1,
2.25784 1.22391 1,
2.31538 1.22391 1,
2.37264 1.23147 1,
2.37264 1.24687 1,
2.51301 1.21955 1,
2.52609 1.21955 1,
2.62722 0.949273 1,
2.94869 0.848134 1,
2.9641 0.848134 1,
2.96991 0.949273 1,
2.65484 1.23147 1,
2.65484 1.24687 1,
2.71557 1.22391 1,
2.74987 1.22391 1,
2.78387 1.23147 1,
2.78565 1.23147 1,
2.78387 1.24687 1,
2.78565 1.24687 1,
2.81966 1.22391 1,
2.8772 1.22391 1,
2.93445 1.23147 1,
2.93445 1.24687 1,
1.86649 2.76179 0.8,
1.91938 2.6172 0.8,
1.98274 2.57851 0.8,
2.00719 2.59918 0.8,
2.06702 2.56562 0.8,
2.0676 2.58799 0.8,
2.09979 2.58999 0.8,
2.13815 2.57019 0.8,
2.13009 2.59599 0.8,
2.15639 2.60532 0.8,
2.17659 2.61735 0.8,
2.20449 2.58393 0.8,
1.87971 2.67914 0.8,
1.96312 2.63275 0.8,
1.9362 2.68753 0.8,
1.92723 2.76237 0.8,
1.8792 2.8501 0.8,
1.9358 2.84244 0.8,
1.96152 2.89838 0.8,
1.91735 2.91393 0.8,
1.98049 2.95262 0.8,
2.00592 2.9313 0.8,
2.18734 2.67547 0.8,
2.20623 2.67547 0.8,
2.07051 2.94227 0.8,
2.09815 2.94056 0.8,
2.06818 2.96552 0.8,
2.12529 2.93544 0.8,
2.15054 2.92719 0.8,
2.13118 2.96181 0.8,
2.18124 2.86554 0.8,
2.20042 2.86554 0.8,
2.17252 2.91611 0.8,
2.19867 2.95069 0.8,
1.86649 2.76179 1,
1.91938 2.6172 1,
1.98274 2.57851 1,
2.00719 2.59918 1,
2.06702 2.56562 1,
2.0676 2.58799 1,
2.09979 2.58999 1,
2.13815 2.57019 1,
2.13009 2.59599 1,
2.15639 2.60532 1,
2.17659 2.61735 1,
2.20449 2.58393 1,
1.87971 2.67914 1,
1.96312 2.63275 1,
1.9362 2.68753 1,
1.92723 2.76237 1,
1.8792 2.8501 1,
1.9358 2.84244 1,
1.96152 2.89838 1,
1.91735 2.91393 1,
1.98049 2.95262 1,
2.00592 2.9313 1,
2.18734 2.67547 1,
2.20623 2.67547 1,
2.07051 2.94227 1,
2.09815 2.94056 1,
2.06818 2.96552 1,
2.12529 2.93544 1,
2.15054 2.92719 1,
2.13118 2.96181 1,
2.18124 2.86554 1,
2.20042 2.86554 1,
2.17252 2.91611 1,
2.19867 2.95069 1,
2.32774 1.71429 0.8,
2.32774 1.72969 0.8,
2.37192 1.73754 0.8,
2.40359 1.73754 0.8,
2.45591 1.71429 0.8,
2.45591 1.72969 0.8,
2.44283 1.85001 0.8,
2.58262 1.71429 0.8,
2.58262 1.72969 0.8,
2.59628 1.85001 0.8,
2.45154 1.87617 0.8,
2.58727 1.87617 0.8,
2.50473 2.10721 0.8,
2.51839 2.06536 0.8,
2.55995 2.10721 0.8,
2.63493 1.73754 0.8,
2.69799 1.73754 0.8,
2.7474 1.71429 0.8,
2.7474 1.72969 0.8,
2.77272 1.71429 0.8,
2.77272 1.72969 0.8,
2.81892 1.73754 0.8,
2.87502 1.73754 0.8,
2.93401 1.71429 0.8,
2.93401 1.72969 0.8,
2.76894 2.08861 0.8,
2.76894 2.10402 0.8,
2.87502 1.88517 0.8,
2.87502 1.91133 0.8,
2.92645 1.91133 0.8,
2.94505 1.88517 0.8,
2.97096 1.91616 0.8,
2.81892 2.08105 0.8,
2.87502 2.07786 0.8,
2.92471 2.07786 0.8,
2.93721 2.10402 0.8,
2.97088 2.07317 0.8,
2.32774 1.71429 1,
2.32774 1.72969 1,
2.37192 1.73754 1,
2.40359 1.73754 1,
2.45591 1.71429 1,
2.45591 1.72969 1,
2.44283 1.85001 1,
2.58262 1.71429 1,
2.58262 1.72969 1,
2.59628 1.85001 1,
2.45154 1.87617 1,
2.58727 1.87617 1,
2.50473 2.10721 1,
2.51839 2.06536 1,
2.55995 2.10721 1,
2.63493 1.73754 1,
2.69799 1.73754 1,
2.7474 1.71429 1,
2.7474 1.72969 1,
2.77272 1.71429 1,
2.77272 1.72969 1,
2.81892 1.73754 1,
2.87502 1.73754 1,
2.93401 1.71429 1,
2.93401 1.72969 1,
2.76894 2.08861 1,
2.76894 2.10402 1,
2.87502 1.88517 1,
2.87502 1.91133 1,
2.92645 1.91133 1,
2.94505 1.88517 1,
2.97096 1.91616 1,
2.81892 2.08105 1,
2.87502 2.07786 1,
2.92471 2.07786 1,
2.93721 2.10402 1,
2.97088 2.07317 1,
2.26002 2.57143 0.8,
2.26002 2.58683 0.8,
2.30623 2.59468 0.8,
2.36232 2.59468 0.8,
2.42423 2.57143 0.8,
2.42423 2.58683 0.8,
2.58729 2.57143 0.8,
2.58729 2.58683 0.8,
2.36232 2.7243 0.8,
2.36232 2.75046 0.8,
2.40621 2.7243 0.8,
2.39255 2.75046 0.8,
2.43523 2.75605 0.8,
2.25624 2.94576 0.8,
2.25624 2.96116 0.8,
2.30623 2.9382 0.8,
2.36232 2.935 0.8,
2.3908 2.935 0.8,
2.43607 2.92984 0.8,
2.4033 2.96116 0.8,
2.46604 2.73207 0.8,
2.46506 2.77283 0.8,
2.4826 2.80226 0.8,
2.5101 2.75539 0.8,
2.53724 2.79368 0.8,
2.48286 2.8869 0.8,
2.48845 2.84578 0.8,
2.46607 2.91436 0.8,
2.51054 2.93246 0.8,
2.54629 2.84636 0.8,
2.58729 2.94576 0.8,
2.58729 2.96116 0.8,
2.63727 2.59468 0.8,
2.66779 2.59468 0.8,
2.7201 2.57143 0.8,
2.7201 2.58683 0.8,
2.90814 2.57143 0.8,
2.93633 2.57143 0.8,
2.63727 2.9382 0.8,
2.66779 2.92192 0.8,
2.70528 2.96116 0.8,
2.90581 2.67257 0.8,
2.8535 2.94576 0.8,
2.8535 2.96116 0.8,
2.90581 2.9382 0.8,
2.93633 2.9382 0.8,
2.98632 2.94576 0.8,
2.98632 2.96116 0.8,
2.26002 2.57143 1,
2.26002 2.58683 1,
2.30623 2.59468 1,
2.36232 2.59468 1,
2.42423 2.57143 1,
2.42423 2.58683 1,
2.58729 2.57143 1,
2.58729 2.58683 1,
2.36232 2.7243 1,
2.36232 2.75046 1,
2.40621 2.7243 1,
2.39255 2.75046 1,
2.43523 2.75605 1,
2.25624 2.94576 1,
2.25624 2.96116 1,
2.30623 2.9382 1,
2.36232 2.935 1,
2.3908 2.935 1,
2.43607 2.92984 1,
2.4033 2.96116 1,
2.46604 2.73207 1,
2.46506 2.77283 1,
2.4826 2.80226 1,
2.5101 2.75539 1,
2.53724 2.79368 1,
2.48286 2.8869 1,
2.48845 2.84578 1,
2.46607 2.91436 1,
2.51054 2.93246 1,
2.54629 2.84636 1,
2.58729 2.94576 1,
2.58729 2.96116 1,
2.63727 2.59468 1,
2.66779 2.59468 1,
2.7201 2.57143 1,
2.7201 2.58683 1,
2.90814 2.57143 1,
2.93633 2.57143 1,
2.63727 2.9382 1,
2.66779 2.92192 1,
2.70528 2.96116 1,
2.90581 2.67257 1,
2.8535 2.94576 1,
2.8535 2.96116 1,
2.90581 2.9382 1,
2.93633 2.9382 1,
2.98632 2.94576 1,
2.98632 2.96116 1,
0 6 0,
1.05123 4.28571 0.8,
1.05123 4.31344 0.8,
1.29029 4.28571 0.8,
1.14121 4.32756 0.8,
1.19613 4.32756 0.8,
1.29029 4.31344 0.8,
1.45299 4.28571 0.8,
1.47129 4.28571 0.8,
1.4917 4.45364 0.8,
1.05123 4.28571 1,
1.05123 4.31344 1,
1.29029 4.28571 1,
1.14121 4.32756 1,
1.19613 4.32756 1,
1.29029 4.31344 1,
1.45299 4.28571 1,
1.47129 4.28571 1,
1.4917 4.45364 1,
0.550451 5.2235 0.8,
0.59556 5.15505 0.8,
0.663356 5.10797 0.8,
0.7464 5.09228 0.8,
0.550451 5.2235 1,
0.59556 5.15505 1,
0.663356 5.10797 1,
0.7464 5.09228 1,
0 6 0.8,
0.535414 5.30329 0.8,
0.550669 5.38523 0.8,
0.596434 5.45323 0.8,
0.664449 5.49901 0.8,
0.7464 5.51427 0.8,
0.535414 5.30329 1,
0.550669 5.38523 1,
0.596434 5.45323 1,
0.664449 5.49901 1,
0.7464 5.51427 1,
0.829438 5.10797 0.8,
0.897214 5.15505 0.8,
1.05123 4.9595 0.8,
1.05123 4.98723 0.8,
0.942343 5.2235 0.8,
1.14121 4.9459 0.8,
1.19613 4.88888 0.8,
1.26362 4.98723 0.8,
0.829438 5.10797 1,
0.897214 5.15505 1,
1.05123 4.9595 1,
1.05123 4.98723 1,
0.942343 5.2235 1,
1.14121 4.9459 1,
1.19613 4.88888 1,
1.26362 4.98723 1,
0.828345 5.49901 0.8,
0.89634 5.45323 0.8,
0.957386 5.30329 0.8,
0.942124 5.38523 0.8,
0.828345 5.49901 1,
0.89634 5.45323 1,
0.957386 5.30329 1,
0.942124 5.38523 1,
1.86649 3.61893 0.8,
1.91938 3.47434 0.8,
1.87971 3.53628 0.8,
1.96312 3.48989 0.8,
1.9362 3.54468 0.8,
1.98274 3.43566 0.8,
2.00719 3.45632 0.8,
1.92723 3.61951 0.8,
1.8792 3.70724 0.8,
1.9358 3.69958 0.8,
2.06702 3.42276 0.8,
2.0676 3.44514 0.8,
2.09979 3.44713 0.8,
2.13009 3.45313 0.8,
2.13815 3.42734 0.8,
2.15639 3.46246 0.8,
2.20449 3.44107 0.8,
2.17659 3.47449 0.8,
2.18734 3.53262 0.8,
2.20623 3.53262 0.8,
2.18124 3.72268 0.8,
2.20042 3.72268 0.8,
1.86649 3.61893 1,
1.91938 3.47434 1,
1.87971 3.53628 1,
1.96312 3.48989 1,
1.9362 3.54468 1,
1.98274 3.43566 1,
2.00719 3.45632 1,
1.92723 3.61951 1,
1.8792 3.70724 1,
1.9358 3.69958 1,
2.06702 3.42276 1,
2.0676 3.44514 1,
2.09979 3.44713 1,
2.13009 3.45313 1,
2.13815 3.42734 1,
2.15639 3.46246 1,
2.20449 3.44107 1,
2.17659 3.47449 1,
2.18734 3.53262 1,
2.20623 3.53262 1,
2.18124 3.72268 1,
2.20042 3.72268 1,
1.65701 4.28571 0.8,
1.65701 4.31344 0.8,
1.75117 4.32756 0.8,
1.85161 4.32756 0.8,
1.91735 3.77107 0.8,
1.96152 3.75552 0.8,
2.00592 3.78844 0.8,
1.98049 3.80976 0.8,
2.07051 3.79941 0.8,
2.06818 3.82266 0.8,
2.09815 3.7977 0.8,
2.12529 3.79258 0.8,
2.15054 3.78433 0.8,
2.13118 3.81895 0.8,
2.17252 3.77325 0.8,
2.19867 3.80784 0.8,
1.94159 4.28571 0.8,
1.94159 4.31344 0.8,
1.65701 4.28571 1,
1.65701 4.31344 1,
1.75117 4.32756 1,
1.85161 4.32756 1,
1.91735 3.77107 1,
1.96152 3.75552 1,
2.00592 3.78844 1,
1.98049 3.80976 1,
2.07051 3.79941 1,
2.06818 3.82266 1,
2.09815 3.7977 1,
2.12529 3.79258 1,
2.15054 3.78433 1,
2.13118 3.81895 1,
2.17252 3.77325 1,
2.19867 3.80784 1,
1.94159 4.28571 1,
1.94159 4.31344 1,
2.26002 3.42857 0.8,
2.26002 3.44397 0.8,
2.30623 3.45182 0.8,
2.36232 3.45182 0.8,
2.42423 3.42857 0.8,
2.42423 3.44397 0.8,
2.36232 3.58144 0.8,
2.36232 3.6076 0.8,
2.40621 3.58144 0.8,
2.39255 3.6076 0.8,
2.43523 3.61319 0.8,
2.58729 3.42857 0.8,
2.58729 3.44397 0.8,
2.46604 3.58921 0.8,
2.46506 3.62997 0.8,
2.5101 3.61254 0.8,
2.4826 3.6594 0.8,
2.48286 3.74404 0.8,
2.48845 3.70292 0.8,
2.53724 3.65083 0.8,
2.54629 3.7035 0.8,
2.63727 3.45182 0.8,
2.66779 3.45182 0.8,
2.7201 3.42857 0.8,
2.7201 3.44397 0.8,
2.90581 3.52971 0.8,
2.90814 3.42857 0.8,
2.93633 3.42857 0.8,
2.26002 3.42857 1,
2.26002 3.44397 1,
2.30623 3.45182 1,
2.36232 3.45182 1,
2.42423 3.42857 1,
2.42423 3.44397 1,
2.36232 3.58144 1,
2.36232 3.6076 1,
2.40621 3.58144 1,
2.39255 3.6076 1,
2.43523 3.61319 1,
2.58729 3.42857 1,
2.58729 3.44397 1,
2.46604 3.58921 1,
2.46506 3.62997 1,
2.5101 3.61254 1,
2.4826 3.6594 1,
2.48286 3.74404 1,
2.48845 3.70292 1,
2.53724 3.65083 1,
2.54629 3.7035 1,
2.63727 3.45182 1,
2.66779 3.45182 1,
2.7201 3.42857 1,
2.7201 3.44397 1,
2.90581 3.52971 1,
2.90814 3.42857 1,
2.93633 3.42857 1,
2.25624 3.8029 0.8,
2.25624 3.8183 0.8,
2.30623 3.79534 0.8,
2.36232 3.79214 0.8,
2.3908 3.79214 0.8,
2.43607 3.78698 0.8,
2.4033 3.8183 0.8,
2.46607 3.77151 0.8,
2.51054 3.7896 0.8,
2.58729 3.8029 0.8,
2.58729 3.8183 0.8,
2.27856 4.28571 0.8,
2.27856 4.31344 0.8,
2.36174 4.32756 0.8,
2.57413 4.28571 0.8,
2.4627 4.32756 0.8,
2.57413 4.31344 0.8,
2.63727 3.79534 0.8,
2.66779 3.77907 0.8,
2.70528 3.8183 0.8,
2.8535 3.8029 0.8,
2.8535 3.8183 0.8,
2.90581 3.79534 0.8,
2.93633 3.79534 0.8,
2.98632 3.8029 0.8,
2.98632 3.8183 0.8,
2.87548 4.28571 0.8,
2.87548 4.31344 0.8,
2.96546 4.32756 0.8,
2.25624 3.8029 1,
2.25624 3.8183 1,
2.30623 3.79534 1,
2.36232 3.79214 1,
2.3908 3.79214 1,
2.43607 3.78698 1,
2.4033 3.8183 1,
2.46607 3.77151 1,
2.51054 3.7896 1,
2.58729 3.8029 1,
2.58729 3.8183 1,
2.27856 4.28571 1,
2.27856 4.31344 1,
2.36174 4.32756 1,
2.57413 4.28571 1,
2.4627 4.32756 1,
2.57413 4.31344 1,
2.63727 3.79534 1,
2.66779 3.77907 1,
2.70528 3.8183 1,
2.8535 3.8029 1,
2.8535 3.8183 1,
2.90581 3.79534 1,
2.93633 3.79534 1,
2.98632 3.8029 1,
2.98632 3.8183 1,
2.87548 4.28571 1,
2.87548 4.31344 1,
2.96546 4.32756 1,
1.75117 4.88888 0.8,
1.74071 4.98723 0.8,
1.85161 4.9459 0.8,
1.94159 4.9595 0.8,
1.94159 4.98723 0.8,
1.75117 4.88888 1,
1.74071 4.98723 1,
1.85161 4.9459 1,
1.94159 4.9595 1,
1.94159 4.98723 1,
2.4627 4.56088 0.8,
2.4627 4.60796 0.8,
2.5171 4.60796 0.8,
2.54169 4.56088 0.8,
2.59394 4.61803 0.8,
2.27176 4.9595 0.8,
2.27176 4.98723 0.8,
2.36174 4.9459 0.8,
2.4627 4.94014 0.8,
2.51397 4.94014 0.8,
2.59544 4.93085 0.8,
2.53646 4.98723 0.8,
2.64939 4.57487 0.8,
2.64762 4.64824 0.8,
2.72871 4.61685 0.8,
2.77756 4.68577 0.8,
2.67921 4.70121 0.8,
2.68974 4.77954 0.8,
2.67966 4.85356 0.8,
2.79384 4.78059 0.8,
2.64945 4.903 0.8,
2.72949 4.93557 0.8,
2.87548 4.9595 0.8,
2.87548 4.98723 0.8,
2.96546 4.9459 0.8,
2.4627 4.56088 1,
2.4627 4.60796 1,
2.5171 4.60796 1,
2.54169 4.56088 1,
2.59394 4.61803 1,
2.27176 4.9595 1,
2.27176 4.98723 1,
2.36174 4.9459 1,
2.4627 4.94014 1,
2.51397 4.94014 1,
2.59544 4.93085 1,
2.53646 4.98723 1,
2.64939 4.57487 1,
2.64762 4.64824 1,
2.72871 4.61685 1,
2.77756 4.68577 1,
2.67921 4.70121 1,
2.68974 4.77954 1,
2.67966 4.85356 1,
2.79384 4.78059 1,
2.64945 4.903 1,
2.72949 4.93557 1,
2.87548 4.9595 1,
2.87548 4.98723 1,
2.96546 4.9459 1,
6 0 0,
3.16898 0.848134 0.8,
3.18439 0.848134 0.8,
3.06785 1.11667 0.8,
3.36403 0.857143 0.8,
3.36403 0.872546 0.8,
3.18904 0.949273 0.8,
3.07482 1.21955 0.8,
3.0879 1.21955 0.8,
3.21665 1.23147 0.8,
3.21665 1.24687 0.8,
3.27739 1.22391 0.8,
3.31168 1.22391 0.8,
3.34568 1.23147 0.8,
3.34568 1.24687 0.8,
3.36403 1.23147 0.8,
3.36403 1.24687 0.8,
3.41402 0.880393 0.8,
3.44453 0.880393 0.8,
3.49684 0.857143 0.8,
3.49684 0.872546 0.8,
3.68488 0.857143 0.8,
3.71307 0.857143 0.8,
3.68255 0.958281 0.8,
3.44453 1.20764 0.8,
3.41402 1.22391 0.8,
3.48202 1.24687 0.8,
3.63024 1.23147 0.8,
3.63024 1.24687 0.8,
3.68255 1.22391 0.8,
3.71307 1.22391 0.8,
3.16898 0.848134 1,
3.18439 0.848134 1,
3.06785 1.11667 1,
3.36403 0.857143 1,
3.36403 0.872546 1,
3.18904 0.949273 1,
3.07482 1.21955 1,
3.0879 1.21955 1,
3.21665 1.23147 1,
3.21665 1.24687 1,
3.27739 1.22391 1,
3.31168 1.22391 1,
3.34568 1.23147 1,
3.34568 1.24687 1,
3.36403 1.23147 1,
3.36403 1.24687 1,
3.41402 0.880393 1,
3.44453 0.880393 1,
3.49684 0.857143 1,
3.49684 0.872546 1,
3.68488 0.857143 1,
3.71307 0.857143 1,
3.68255 0.958281 1,
3.44453 1.20764 1,
3.41402 1.22391 1,
3.48202 1.24687 1,
3.63024 1.23147 1,
3.63024 1.24687 1,
3.68255 1.22391 1,
3.71307 1.22391 1,
3.79389 0.857143 0.8,
3.79389 0.872546 0.8,
3.84388 0.880393 0.8,
3.87439 0.880393 0.8,
3.92671 0.857143 0.8,
3.92671 0.872546 0.8,
4.11474 0.857143 0.8,
4.11242 0.958281 0.8,
3.76306 1.23147 0.8,
3.76306 1.24687 0.8,
3.79389 1.23147 0.8,
3.79389 1.24687 0.8,
3.87439 1.20764 0.8,
3.84388 1.22391 0.8,
3.91189 1.24687 0.8,
4.0601 1.23147 0.8,
4.0601 1.24687 0.8,
4.11242 1.22391 0.8,
4.14293 0.857143 0.8,
4.22375 0.857143 0.8,
4.22375 0.872546 0.8,
4.27374 0.880393 0.8,
4.30426 0.880393 0.8,
4.35657 0.857143 0.8,
4.35657 0.872546 0.8,
4.14293 1.22391 0.8,
4.19292 1.23147 0.8,
4.19292 1.24687 0.8,
4.30426 1.20764 0.8,
4.22375 1.23147 0.8,
4.22375 1.24687 0.8,
4.27374 1.22391 0.8,
4.34175 1.24687 0.8,
4.48996 1.23147 0.8,
4.48996 1.24687 0.8,
3.79389 0.857143 1,
3.79389 0.872546 1,
3.84388 0.880393 1,
3.87439 0.880393 1,
3.92671 0.857143 1,
3.92671 0.872546 1,
4.11474 0.857143 1,
4.11242 0.958281 1,
3.76306 1.23147 1,
3.76306 1.24687 1,
3.79389 1.23147 1,
3.79389 1.24687 1,
3.87439 1.20764 1,
3.84388 1.22391 1,
3.91189 1.24687 1,
4.0601 1.23147 1,
4.0601 1.24687 1,
4.11242 1.22391 1,
4.14293 0.857143 1,
4.22375 0.857143 1,
4.22375 0.872546 1,
4.27374 0.880393 1,
4.30426 0.880393 1,
4.35657 0.857143 1,
4.35657 0.872546 1,
4.14293 1.22391 1,
4.19292 1.23147 1,
4.19292 1.24687 1,
4.30426 1.20764 1,
4.22375 1.23147 1,
4.22375 1.24687 1,
4.27374 1.22391 1,
4.34175 1.24687 1,
4.48996 1.23147 1,
4.48996 1.24687 1,
3.05462 1.71429 0.8,
3.10577 1.73754 0.8,
3.14791 1.71429 0.8,
3.14791 1.72969 0.8,
3.16596 1.71429 0.8,
3.16596 1.72969 0.8,
3.21594 1.73754 0.8,
3.24646 1.73754 0.8,
3.29877 1.71429 0.8,
3.29877 1.72969 0.8,
3.00027 1.89331 0.8,
3.0337 1.90868 0.8,
3.00042 1.93065 0.8,
3.01687 1.95663 0.8,
3.05898 1.93269 0.8,
3.07489 1.96368 0.8,
3.02236 1.9959 0.8,
3.01695 2.03394 0.8,
3.00071 2.05911 0.8,
3.08019 1.99997 0.8,
3.07147 2.04712 0.8,
3.00085 2.09784 0.8,
3.04532 2.07931 0.8,
3.16596 2.08861 0.8,
3.16596 2.10402 0.8,
3.24646 2.04938 0.8,
3.21594 2.08105 0.8,
3.28395 2.10402 0.8,
3.38916 1.71429 0.8,
3.39933 1.71429 0.8,
3.41066 1.80758 0.8,
3.5025 1.71429 0.8,
3.5025 1.72969 0.8,
3.55481 1.73754 0.8,
3.61061 1.73754 0.8,
3.6606 1.71429 0.8,
3.6606 1.72969 0.8,
3.55481 2.04938 0.8,
3.549 2.10402 0.8,
3.61061 2.08105 0.8,
3.6606 2.08861 0.8,
3.6606 2.10402 0.8,
3.05462 1.71429 1,
3.10577 1.73754 1,
3.14791 1.71429 1,
3.14791 1.72969 1,
3.16596 1.71429 1,
3.16596 1.72969 1,
3.21594 1.73754 1,
3.24646 1.73754 1,
3.29877 1.71429 1,
3.29877 1.72969 1,
3.00027 1.89331 1,
3.0337 1.90868 1,
3.00042 1.93065 1,
3.01687 1.95663 1,
3.05898 1.93269 1,
3.07489 1.96368 1,
3.02236 1.9959 1,
3.01695 2.03394 1,
3.00071 2.05911 1,
3.08019 1.99997 1,
3.07147 2.04712 1,
3.00085 2.09784 1,
3.04532 2.07931 1,
3.16596 2.08861 1,
3.16596 2.10402 1,
3.24646 2.04938 1,
3.21594 2.08105 1,
3.28395 2.10402 1,
3.38916 1.71429 1,
3.39933 1.71429 1,
3.41066 1.80758 1,
3.5025 1.71429 1,
3.5025 1.72969 1,
3.55481 1.73754 1,
3.61061 1.73754 1,
3.6606 1.71429 1,
3.6606 1.72969 1,
3.55481 2.04938 1,
3.549 2.10402 1,
3.61061 2.08105 1,
3.6606 2.08861 1,
3.6606 2.10402 1,
3.07731 2.6172 0.8,
3.14066 2.57851 0.8,
3.16511 2.59918 0.8,
3.22494 2.56562 0.8,
3.22553 2.58799 0.8,
3.25771 2.58999 0.8,
3.29607 2.57019 0.8,
3.28801 2.59599 0.8,
3.31431 2.60532 0.8,
3.33451 2.61735 0.8,
3.36241 2.58393 0.8,
3.03763 2.67914 0.8,
3.02441 2.76179 0.8,
3.08515 2.76237 0.8,
3.12105 2.63275 0.8,
3.09413 2.68753 0.8,
3.03713 2.8501 0.8,
3.09373 2.84244 0.8,
3.07527 2.91393 0.8,
3.11945 2.89838 0.8,
3.13841 2.95262 0.8,
3.16384 2.9313 0.8,
3.34526 2.67547 0.8,
3.36415 2.67547 0.8,
3.22843 2.94227 0.8,
3.22611 2.96552 0.8,
3.25608 2.94056 0.8,
3.33916 2.86554 0.8,
3.35834 2.86554 0.8,
3.28321 2.93544 0.8,
3.30846 2.92719 0.8,
3.2891 2.96181 0.8,
3.33044 2.91611 0.8,
3.3566 2.95069 0.8,
3.41795 2.57143 0.8,
3.41795 2.58683 0.8,
3.46416 2.59468 0.8,
3.52025 2.59468 0.8,
3.58215 2.57143 0.8,
3.58215 2.58683 0.8,
3.74521 2.57143 0.8,
3.74521 2.58683 0.8,
3.52025 2.7243 0.8,
3.52025 2.75046 0.8,
3.55047 2.75046 0.8,
3.41417 2.94576 0.8,
3.41417 2.96116 0.8,
3.46416 2.9382 0.8,
3.52025 2.935 0.8,
3.54873 2.935 0.8,
3.56122 2.96116 0.8,
3.56413 2.7243 0.8,
3.59315 2.75605 0.8,
3.62396 2.73207 0.8,
3.62298 2.77283 0.8,
3.64053 2.80226 0.8,
3.66803 2.75539 0.8,
3.69517 2.79368 0.8,
3.64638 2.84578 0.8,
3.64078 2.8869 0.8,
3.59399 2.92984 0.8,
3.624 2.91436 0.8,
3.70421 2.84636 0.8,
3.66846 2.93246 0.8,
3.74521 2.94576 0.8,
3.74521 2.96116 0.8,
3.07731 2.6172 1,
3.14066 2.57851 1,
3.16511 2.59918 1,
3.22494 2.56562 1,
3.22553 2.58799 1,
3.25771 2.58999 1,
3.29607 2.57019 1,
3.28801 2.59599 1,
3.31431 2.60532 1,
3.33451 2.61735 1,
3.36241 2.58393 1,
3.03763 2.67914 1,
3.02441 2.76179 1,
3.08515 2.76237 1,
3.12105 2.63275 1,
3.09413 2.68753 1,
3.03713 2.8501 1,
3.09373 2.84244 1,
3.07527 2.91393 1,
3.11945 2.89838 1,
3.13841 2.95262 1,
3.16384 2.9313 1,
3.34526 2.67547 1,
3.36415 2.67547 1,
3.22843 2.94227 1,
3.22611 2.96552 1,
3.25608 2.94056 1,
3.33916 2.86554 1,
3.35834 2.86554 1,
3.28321 2.93544 1,
3.30846 2.92719 1,
3.2891 2.96181 1,
3.33044 2.91611 1,
3.3566 2.95069 1,
3.41795 2.57143 1,
3.41795 2.58683 1,
3.46416 2.59468 1,
3.52025 2.59468 1,
3.58215 2.57143 1,
3.58215 2.58683 1,
3.74521 2.57143 1,
3.74521 2.58683 1,
3.52025 2.7243 1,
3.52025 2.75046 1,
3.55047 2.75046 1,
3.41417 2.94576 1,
3.41417 2.96116 1,
3.46416 2.9382 1,
3.52025 2.935 1,
3.54873 2.935 1,
3.56122 2.96116 1,
3.56413 2.7243 1,
3.59315 2.75605 1,
3.62396 2.73207 1,
3.62298 2.77283 1,
3.64053 2.80226 1,
3.66803 2.75539 1,
3.69517 2.79368 1,
3.64638 2.84578 1,
3.64078 2.8869 1,
3.59399 2.92984 1,
3.624 2.91436 1,
3.70421 2.84636 1,
3.66846 2.93246 1,
3.74521 2.94576 1,
3.74521 2.96116 1,
3.7952 2.59468 0.8,
3.82571 2.59468 0.8,
3.87802 2.57143 0.8,
3.87802 2.58683 0.8,
4.06606 2.57143 0.8,
4.09425 2.57143 0.8,
3.7952 2.9382 0.8,
3.82571 2.92192 0.8,
3.8632 2.96116 0.8,
4.06373 2.67257 0.8,
4.01142 2.94576 0.8,
4.01142 2.96116 0.8,
4.06373 2.9382 0.8,
4.09425 2.9382 0.8,
4.14424 2.94576 0.8,
4.14424 2.96116 0.8,
3.7952 2.59468 1,
3.82571 2.59468 1,
3.87802 2.57143 1,
3.87802 2.58683 1,
4.06606 2.57143 1,
4.09425 2.57143 1,
3.7952 2.9382 1,
3.82571 2.92192 1,
3.8632 2.96116 1,
4.06373 2.67257 1,
4.01142 2.94576 1,
4.01142 2.96116 1,
4.06373 2.9382 1,
4.09425 2.9382 1,
4.14424 2.94576 1,
4.14424 2.96116 1,
4.5446 0.857143 0.8,
4.5728 0.857143 0.8,
4.54228 0.958281 0.8,
4.54228 1.22391 0.8,
4.5728 1.22391 0.8,
4.62278 1.23147 0.8,
4.62278 1.24687 0.8,
4.5446 0.857143 1,
4.5728 0.857143 1,
4.54228 0.958281 1,
4.54228 1.22391 1,
4.5728 1.22391 1,
4.62278 1.23147 1,
4.62278 1.24687 1,
6 0 0.8,
6 6 0,
3.03763 3.53628 0.8,
3.07731 3.47434 0.8,
3.14066 3.43566 0.8,
3.16511 3.45632 0.8,
3.12105 3.48989 0.8,
3.09413 3.54468 0.8,
3.02441 3.61893 0.8,
3.08515 3.61951 0.8,
3.03713 3.70724 0.8,
3.09373 3.69958 0.8,
3.22494 3.42276 0.8,
3.22553 3.44514 0.8,
3.25771 3.44713 0.8,
3.29607 3.42734 0.8,
3.28801 3.45313 0.8,
3.31431 3.46246 0.8,
3.36241 3.44107 0.8,
3.33451 3.47449 0.8,
3.34526 3.53262 0.8,
3.36415 3.53262 0.8,
3.33916 3.72268 0.8,
3.35834 3.72268 0.8,
3.41795 3.42857 0.8,
3.41795 3.44397 0.8,
3.46416 3.45182 0.8,
3.52025 3.45182 0.8,
3.52025 3.58144 0.8,
3.52025 3.6076 0.8,
3.55047 3.6076 0.8,
3.58215 3.42857 0.8,
3.58215 3.44397 0.8,
3.74521 3.42857 0.8,
3.74521 3.44397 0.8,
3.56413 3.58144 0.8,
3.59315 3.61319 0.8,
3.62396 3.58921 0.8,
3.62298 3.62997 0.8,
3.64053 3.6594 0.8,
3.64638 3.70292 0.8,
3.64078 3.74404 0.8,
3.66803 3.61254 0.8,
3.69517 3.65083 0.8,
3.70421 3.7035 0.8,
3.03763 3.53628 1,
3.07731 3.47434 1,
3.14066 3.43566 1,
3.16511 3.45632 1,
3.12105 3.48989 1,
3.09413 3.54468 1,
3.02441 3.61893 1,
3.08515 3.61951 1,
3.03713 3.70724 1,
3.09373 3.69958 1,
3.22494 3.42276 1,
3.22553 3.44514 1,
3.25771 3.44713 1,
3.29607 3.42734 1,
3.28801 3.45313 1,
3.31431 3.46246 1,
3.36241 3.44107 1,
3.33451 3.47449 1,
3.34526 3.53262 1,
3.36415 3.53262 1,
3.33916 3.72268 1,
3.35834 3.72268 1,
3.41795 3.42857 1,
3.41795 3.44397 1,
3.46416 3.45182 1,
3.52025 3.45182 1,
3.52025 3.58144 1,
3.52025 3.6076 1,
3.55047 3.6076 1,
3.58215 3.42857 1,
3.58215 3.44397 1,
3.74521 3.42857 1,
3.74521 3.44397 1,
3.56413 3.58144 1,
3.59315 3.61319 1,
3.62396 3.58921 1,
3.62298 3.62997 1,
3.64053 3.6594 1,
3.64638 3.70292 1,
3.64078 3.74404 1,
3.66803 3.61254 1,
3.69517 3.65083 1,
3.70421 3.7035 1,
3.07527 3.77107 0.8,
3.11945 3.75552 0.8,
3.13841 3.80976 0.8,
3.16384 3.78844 0.8,
3.22843 3.79941 0.8,
3.22611 3.82266 0.8,
3.25608 3.7977 0.8,
3.28321 3.79258 0.8,
3.30846 3.78433 0.8,
3.2891 3.81895 0.8,
3.33044 3.77325 0.8,
3.3566 3.80784 0.8,
3.15588 4.28571 0.8,
3.0659 4.32756 0.8,
3.15588 4.31344 0.8,
3.26131 4.4796 0.8,
3.33271 4.3681 0.8,
3.36299 4.4947 0.8,
3.41417 3.8029 0.8,
3.41417 3.8183 0.8,
3.46416 3.79534 0.8,
3.52025 3.79214 0.8,
3.54873 3.79214 0.8,
3.56122 3.8183 0.8,
3.59399 3.78698 0.8,
3.624 3.77151 0.8,
3.66846 3.7896 0.8,
3.74521 3.8029 0.8,
3.74521 3.8183 0.8,
3.44676 4.29847 0.8,
3.41145 4.39609 0.8,
3.49077 4.33567 0.8,
3.59846 4.27525 0.8,
3.72649 4.28349 0.8,
3.59951 4.31553 0.8,
3.65744 4.31913 0.8,
3.71198 4.32992 0.8,
3.07527 3.77107 1,
3.11945 3.75552 1,
3.13841 3.80976 1,
3.16384 3.78844 1,
3.22843 3.79941 1,
3.22611 3.82266 1,
3.25608 3.7977 1,
3.28321 3.79258 1,
3.30846 3.78433 1,
3.2891 3.81895 1,
3.33044 3.77325 1,
3.3566 3.80784 1,
3.15588 4.28571 1,
3.0659 4.32756 1,
3.15588 4.31344 1,
3.26131 4.4796 1,
3.33271 4.3681 1,
3.36299 4.4947 1,
3.41417 3.8029 1,
3.41417 3.8183 1,
3.46416 3.79534 1,
3.52025 3.79214 1,
3.54873 3.79214 1,
3.56122 3.8183 1,
3.59399 3.78698 1,
3.624 3.77151 1,
3.66846 3.7896 1,
3.74521 3.8029 1,
3.74521 3.8183 1,
3.44676 4.29847 1,
3.41145 4.39609 1,
3.49077 4.33567 1,
3.59846 4.27525 1,
3.72649 4.28349 1,
3.59951 4.31553 1,
3.65744 4.31913 1,
3.71198 4.32992 1,
3.7952 3.45182 0.8,
3.82571 3.45182 0.8,
3.87802 3.42857 0.8,
3.87802 3.44397 0.8,
4.06606 3.42857 0.8,
4.09425 3.42857 0.8,
4.06373 3.52971 0.8,
3.7952 3.45182 1,
3.82571 3.45182 1,
3.87802 3.42857 1,
3.87802 3.44397 1,
4.06606 3.42857 1,
4.09425 3.42857 1,
4.06373 3.52971 1,
3.7952 3.79534 0.8,
3.82571 3.77907 0.8,
3.8632 3.8183 0.8,
4.01142 3.8029 0.8,
4.01142 3.8183 0.8,
4.06373 3.79534 0.8,
4.09425 3.79534 0.8,
3.8459 4.30821 0.8,
3.75932 4.34672 0.8,
3.79568 4.36837 0.8,
3.81503 4.47299 0.8,
3.84904 4.47299 0.8,
3.96522 4.29775 0.8,
4.05677 4.28088 0.8,
4.01753 4.34692 0.8,
3.95947 4.44527 0.8,
3.99399 4.44527 0.8,
4.04219 4.33619 0.8,
4.07534 4.32704 0.8,
4.1115 4.32076 0.8,
4.14424 3.8029 0.8,
4.14424 3.8183 0.8,
4.15354 4.27525 0.8,
4.25882 4.28859 0.8,
4.14517 4.31867 0.8,
4.21658 4.32808 0.8,
4.26654 4.35633 0.8,
4.29597 4.40655 0.8,
4.30578 4.48189 0.8,
4.491 4.28571 0.8,
4.33716 4.32861 0.8,
4.38581 4.3923 0.8,
4.40203 4.47666 0.8,
4.491 4.36261 0.8,
3.7952 3.79534 1,
3.82571 3.77907 1,
3.8632 3.8183 1,
4.01142 3.8029 1,
4.01142 3.8183 1,
4.06373 3.79534 1,
4.09425 3.79534 1,
3.8459 4.30821 1,
3.75932 4.34672 1,
3.79568 4.36837 1,
3.81503 4.47299 1,
3.84904 4.47299 1,
3.96522 4.29775 1,
4.05677 4.28088 1,
4.01753 4.34692 1,
3.95947 4.44527 1,
3.99399 4.44527 1,
4.04219 4.33619 1,
4.07534 4.32704 1,
4.1115 4.32076 1,
4.14424 3.8029 1,
4.14424 3.8183 1,
4.15354 4.27525 1,
4.25882 4.28859 1,
4.14517 4.31867 1,
4.21658 4.32808 1,
4.26654 4.35633 1,
4.29597 4.40655 1,
4.30578 4.48189 1,
4.491 4.28571 1,
4.33716 4.32861 1,
4.38581 4.3923 1,
4.40203 4.47666 1,
4.491 4.36261 1,
3.2375 4.62836 0.8,
3.34684 4.62941 0.8,
3.26039 4.78732 0.8,
3.36227 4.77353 0.8,
3.0659 4.9459 0.8,
3.15588 4.9595 0.8,
3.15588 4.98723 0.8,
3.32905 4.90222 0.8,
3.40857 4.87423 0.8,
3.4427 4.97186 0.8,
3.48848 4.93348 0.8,
3.60474 4.95322 0.8,
3.6545 4.95015 0.8,
3.60055 4.99507 0.8,
3.70335 4.94093 0.8,
3.74879 4.92609 0.8,
3.71394 4.9884 0.8,
3.2375 4.62836 1,
3.34684 4.62941 1,
3.26039 4.78732 1,
3.36227 4.77353 1,
3.0659 4.9459 1,
3.15588 4.9595 1,
3.15588 4.98723 1,
3.32905 4.90222 1,
3.40857 4.87423 1,
3.4427 4.97186 1,
3.48848 4.93348 1,
3.60474 4.95322 1,
3.6545 4.95015 1,
3.60055 4.99507 1,
3.70335 4.94093 1,
3.74879 4.92609 1,
3.71394 4.9884 1,
3.80405 4.81511 0.8,
3.83858 4.81511 0.8,
4.08292 4.63045 0.8,
4.08292 4.67335 0.8,
3.98091 4.83761 0.8,
4.01544 4.83761 0.8,
3.78836 4.90614 0.8,
3.83544 4.96839 0.8,
3.98091 4.97258 0.8,
4.02917 4.98389 0.8,
4.03375 4.9234 0.8,
4.0586 4.93472 0.8,
4.08711 4.94354 0.8,
4.1168 4.94924 0.8,
4.07036 4.99062 0.8,
4.1079 4.99396 0.8,
4.15773 4.62627 0.8,
4.15773 4.67806 0.8,
4.21684 4.65295 0.8,
4.29675 4.54263 0.8,
4.26968 4.58677 0.8,
4.22364 4.61456 0.8,
4.29949 4.63379 0.8,
4.28177 4.67158 0.8,
4.20913 4.68878 0.8,
4.24509 4.71467 0.8,
4.26628 4.75679 0.8,
4.27334 4.81616 0.8,
4.39078 4.54604 0.8,
4.35704 4.59828 0.8,
4.33009 4.70657 0.8,
4.36011 4.75712 0.8,
4.37011 4.82244 0.8,
4.14517 4.95113 0.8,
4.20304 4.94309 0.8,
4.14517 4.99507 0.8,
4.24274 4.91896 0.8,
4.26569 4.87717 0.8,
4.31388 4.95192 0.8,
3.80405 4.81511 1,
3.83858 4.81511 1,
4.08292 4.63045 1,
4.08292 4.67335 1,
3.98091 4.83761 1,
4.01544 4.83761 1,
3.78836 4.90614 1,
3.83544 4.96839 1,
3.98091 4.97258 1,
4.02917 4.98389 1,
4.03375 4.9234 1,
4.0586 4.93472 1,
4.08711 4.94354 1,
4.1168 4.94924 1,
4.07036 4.99062 1,
4.1079 4.99396 1,
4.15773 4.62627 1,
4.15773 4.67806 1,
4.21684 4.65295 1,
4.29675 4.54263 1,
4.26968 4.58677 1,
4.22364 4.61456 1,
4.29949 4.63379 1,
4.28177 4.67158 1,
4.20913 4.68878 1,
4.24509 4.71467 1,
4.26628 4.75679 1,
4.27334 4.81616 1,
4.39078 4.54604 1,
4.35704 4.59828 1,
4.33009 4.70657 1,
4.36011 4.75712 1,
4.37011 4.82244 1,
4.14517 4.95113 1,
4.20304 4.94309 1,
4.14517 4.99507 1,
4.24274 4.91896 1,
4.26569 4.87717 1,
4.31388 4.95192 1,
4.55953 4.36627 0.8,
4.5883 4.45102 0.8,
4.6104 4.41192 0.8,
4.6584 4.45364 0.8,
4.92048 4.28571 0.8,
4.92048 4.36627 0.8,
4.55953 4.36627 1,
4.5883 4.45102 1,
4.6104 4.41192 1,
4.6584 4.45364 1,
4.92048 4.28571 1,
4.92048 4.36627 1,
4.66952 4.5253 0.8,
4.51454 4.83761 0.8,
4.54906 4.83761 0.8,
4.72588 4.58389 0.8,
4.75178 4.53597 0.8,
4.76361 4.63542 0.8,
4.81429 4.59776 0.8,
4.85529 4.64942 0.8,
4.78892 4.68852 0.8,
4.80324 4.74632 0.8,
4.80802 4.81198 0.8,
4.8003 4.87187 0.8,
4.56738 4.9234 0.8,
4.59157 4.93472 0.8,
4.51454 4.97258 0.8,
4.61916 4.94354 0.8,
4.64807 4.94924 0.8,
4.67619 4.95113 0.8,
4.60256 4.98945 0.8,
4.67619 4.99507 0.8,
4.77715 4.91555 0.8,
4.73648 4.94224 0.8,
4.77695 4.98311 0.8,
4.84908 4.94721 0.8,
4.88413 4.70134 0.8,
4.90119 4.75502 0.8,
4.90688 4.81198 0.8,
4.89243 4.88947 0.8,
4.66952 4.5253 1,
4.51454 4.83761 1,
4.54906 4.83761 1,
4.72588 4.58389 1,
4.75178 4.53597 1,
4.76361 4.63542 1,
4.81429 4.59776 1,
4.85529 4.64942 1,
4.78892 4.68852 1,
4.80324 4.74632 1,
4.80802 4.81198 1,
4.8003 4.87187 1,
4.56738 4.9234 1,
4.59157 4.93472 1,
4.51454 4.97258 1,
4.61916 4.94354 1,
4.64807 4.94924 1,
4.67619 4.95113 1,
4.60256 4.98945 1,
4.67619 4.99507 1,
4.77715 4.91555 1,
4.73648 4.94224 1,
4.77695 4.98311 1,
4.84908 4.94721 1,
4.88413 4.70134 1,
4.90119 4.75502 1,
4.90688 4.81198 1,
4.89243 4.88947 1,
6 6 0.8
] }

coordIndex [
1,2,3,-1
1,3,4,-1
1,16,2,-1
1,32,16,-1
1,39,32,-1
1,90,39,-1
1,4,5,-1
6,4,3,-1
6,3,18,-1
0,1,411,-1
1,385,386,-1
1,5,385,-1
5,146,385,-1
0,1093,1,-1
1,91,90,-1
1,93,91,-1
1,94,93,-1
1,103,94,-1
1,104,103,-1
1,701,104,-1
1,702,701,-1
1,704,702,-1
14,18,3,-1
15,31,19,-1
16,36,17,-1
33,16,32,-1
34,16,33,-1
15,17,31,-1
31,17,36,-1
20,21,7,-1
21,24,22,-1
20,25,21,-1
24,21,23,-1
25,23,21,-1
19,31,26,-1
26,31,27,-1
27,30,28,-1
30,27,29,-1
31,29,27,-1
34,36,16,-1
39,90,40,-1
35,40,96,-1
35,96,37,-1
96,40,90,-1
38,42,41,-1
38,46,42,-1
42,45,43,-1
45,42,44,-1
46,44,42,-1
28,30,215,-1
43,215,30,-1
37,48,47,-1
37,49,48,-1
37,96,49,-1
48,51,50,-1
51,48,49,-1
43,45,214,-1
50,214,45,-1
1,719,704,-1
1,721,719,-1
1,722,721,-1
1,761,722,-1
95,91,93,-1
92,98,97,-1
92,100,98,-1
98,100,99,-1
50,51,214,-1
99,214,51,-1
102,106,101,-1
107,101,106,-1
99,100,218,-1
101,218,100,-1
101,107,221,-1
94,103,114,-1
94,110,109,-1
94,111,110,-1
94,114,111,-1
102,108,106,-1
110,113,112,-1
113,110,111,-1
107,112,221,-1
112,113,233,-1
105,116,115,-1
105,707,116,-1
116,707,117,-1
117,233,113,-1
22,147,5,-1
22,24,148,-1
28,148,24,-1
158,5,147,-1
146,5,158,-1
147,22,148,-1
28,215,150,-1
43,214,215,-1
28,150,148,-1
226,153,150,-1
289,157,288,-1
149,176,159,-1
160,176,161,-1
159,176,160,-1
161,176,163,-1
163,176,164,-1
164,176,167,-1
151,176,149,-1
152,177,151,-1
154,177,152,-1
151,177,176,-1
155,177,154,-1
156,177,155,-1
156,168,177,-1
169,301,168,-1
157,303,169,-1
167,176,170,-1
170,176,171,-1
171,176,173,-1
173,178,174,-1
178,173,176,-1
168,301,177,-1
177,301,179,-1
302,179,301,-1
214,99,218,-1
216,226,215,-1
101,221,218,-1
217,219,222,-1
217,222,220,-1
218,222,219,-1
222,218,221,-1
220,222,229,-1
220,229,223,-1
226,150,215,-1
224,225,227,-1
231,221,112,-1
231,112,233,-1
231,233,234,-1
231,234,232,-1
230,232,246,-1
246,232,234,-1
235,246,234,-1
233,117,237,-1
117,831,237,-1
236,238,241,-1
237,831,238,-1
244,238,831,-1
241,238,244,-1
230,239,228,-1
230,246,239,-1
228,239,240,-1
248,247,242,-1
250,242,243,-1
243,245,848,-1
245,843,844,-1
250,248,242,-1
243,849,250,-1
243,848,849,-1
153,226,157,-1
157,226,288,-1
288,226,292,-1
290,157,289,-1
228,292,226,-1
228,294,292,-1
294,228,322,-1
292,295,293,-1
295,292,294,-1
290,303,157,-1
291,293,296,-1
296,293,298,-1
298,293,308,-1
299,300,297,-1
300,309,297,-1
309,310,297,-1
303,301,169,-1
305,304,297,-1
313,315,297,-1
306,305,297,-1
315,306,297,-1
293,295,308,-1
308,295,311,-1
310,314,297,-1
311,320,312,-1
320,311,295,-1
312,320,317,-1
320,326,317,-1
314,313,297,-1
317,318,316,-1
319,316,318,-1
318,317,326,-1
228,240,322,-1
322,240,249,-1
322,324,323,-1
322,249,324,-1
852,325,249,-1
324,249,325,-1
323,327,321,-1
323,324,327,-1
331,328,330,-1
927,325,926,-1
325,927,931,-1
325,931,333,-1
329,330,328,-1
329,332,330,-1
333,931,334,-1
0,411,384,-1
0,384,1094,-1
384,411,1094,-1
1,403,412,-1
1,386,405,-1
1,405,404,-1
1,404,403,-1
1,412,411,-1
385,446,387,-1
387,391,390,-1
428,390,391,-1
411,412,413,-1
411,413,414,-1
411,414,415,-1
411,415,416,-1
405,386,406,-1
406,388,422,-1
388,406,386,-1
422,388,424,-1
388,427,424,-1
422,425,423,-1
422,424,425,-1
423,425,426,-1
429,426,425,-1
426,429,440,-1
390,428,389,-1
393,641,429,-1
440,641,441,-1
440,429,641,-1
441,644,439,-1
162,385,146,-1
165,385,162,-1
165,448,385,-1
166,447,165,-1
165,447,448,-1
166,451,447,-1
166,456,451,-1
166,460,456,-1
172,526,166,-1
175,526,172,-1
179,526,175,-1
179,302,526,-1
166,462,460,-1
166,526,462,-1
452,466,449,-1
450,466,453,-1
449,466,450,-1
453,466,455,-1
455,466,495,-1
457,466,452,-1
458,466,457,-1
459,466,458,-1
461,466,459,-1
527,462,526,-1
463,466,461,-1
462,528,465,-1
463,464,466,-1
465,466,464,-1
528,466,465,-1
466,528,467,-1
446,385,448,-1
454,387,446,-1
387,454,391,-1
391,454,392,-1
392,494,490,-1
494,392,454,-1
490,494,497,-1
491,392,490,-1
392,491,492,-1
495,466,496,-1
490,497,499,-1
490,499,503,-1
490,503,505,-1
496,466,498,-1
498,466,500,-1
500,466,501,-1
504,502,501,-1
504,501,466,-1
467,582,505,-1
583,505,582,-1
506,505,583,-1
588,506,583,-1
505,506,490,-1
493,507,594,-1
506,588,507,-1
507,588,593,-1
594,507,593,-1
307,526,302,-1
307,530,526,-1
316,530,307,-1
316,319,530,-1
328,530,319,-1
530,331,531,-1
534,531,335,-1
462,527,528,-1
529,531,532,-1
532,531,534,-1
528,582,467,-1
528,584,582,-1
533,535,536,-1
536,540,533,-1
540,542,533,-1
586,585,533,-1
587,586,533,-1
589,587,533,-1
543,589,533,-1
534,537,538,-1
534,538,539,-1
539,538,541,-1
547,541,538,-1
542,544,533,-1
544,543,533,-1
541,547,545,-1
545,547,599,-1
545,599,546,-1
530,328,331,-1
531,331,335,-1
534,935,537,-1
534,335,935,-1
935,549,537,-1
550,600,548,-1
549,552,550,-1
550,552,600,-1
1101,553,1095,-1
551,602,601,-1
551,604,602,-1
553,1101,1103,-1
553,1103,606,-1
553,606,605,-1
593,588,590,-1
546,591,590,-1
592,590,591,-1
591,546,599,-1
593,590,592,-1
601,596,592,-1
593,592,596,-1
597,598,650,-1
650,598,653,-1
653,598,662,-1
603,601,602,-1
596,601,603,-1
596,603,607,-1
596,607,1186,-1
596,1199,608,-1
596,609,598,-1
596,608,609,-1
598,609,662,-1
392,492,640,-1
441,641,644,-1
439,644,656,-1
493,643,642,-1
493,657,643,-1
493,594,657,-1
643,656,644,-1
656,643,655,-1
657,655,643,-1
411,416,1517,-1
595,657,594,-1
652,654,651,-1
654,663,651,-1
663,666,651,-1
659,658,651,-1
660,659,651,-1
666,667,651,-1
667,668,651,-1
670,660,651,-1
668,670,651,-1
664,662,609,-1
664,609,674,-1
610,674,609,-1
664,674,665,-1
665,674,669,-1
661,671,673,-1
669,672,671,-1
673,671,672,-1
672,669,674,-1
1517,416,438,-1
1517,438,439,-1
0,700,1093,-1
0,1094,700,-1
700,1094,1093,-1
1,1093,761,-1
703,104,701,-1
705,702,704,-1
702,713,712,-1
702,705,725,-1
702,715,713,-1
702,725,715,-1
706,709,708,-1
710,708,709,-1
117,707,831,-1
708,831,707,-1
708,710,835,-1
706,711,709,-1
713,716,714,-1
716,713,715,-1
835,710,714,-1
839,714,716,-1
719,721,720,-1
717,725,705,-1
720,724,718,-1
724,720,721,-1
722,769,730,-1
726,860,716,-1
862,726,728,-1
723,727,726,-1
728,726,727,-1
723,729,727,-1
770,866,728,-1
770,772,866,-1
762,722,761,-1
722,762,774,-1
763,774,762,-1
722,771,769,-1
722,774,771,-1
766,773,764,-1
765,767,766,-1
773,766,767,-1
769,772,770,-1
772,769,771,-1
866,772,775,-1
867,775,777,-1
768,776,775,-1
777,775,776,-1
768,778,776,-1
788,867,777,-1
781,779,780,-1
779,781,792,-1
779,787,786,-1
779,790,787,-1
779,792,790,-1
782,792,781,-1
784,1079,785,-1
785,789,783,-1
789,785,1079,-1
787,791,788,-1
791,787,790,-1
1081,794,793,-1
795,793,794,-1
831,708,833,-1
708,835,833,-1
832,842,841,-1
836,833,835,-1
833,836,834,-1
834,857,832,-1
857,834,836,-1
835,714,839,-1
839,716,859,-1
837,857,836,-1
840,856,838,-1
839,859,840,-1
856,840,859,-1
245,844,847,-1
847,848,245,-1
832,857,842,-1
842,857,845,-1
845,857,846,-1
846,854,850,-1
850,854,851,-1
854,846,857,-1
851,855,853,-1
851,854,855,-1
859,716,860,-1
726,862,860,-1
863,860,862,-1
860,863,868,-1
864,868,863,-1
862,728,866,-1
866,775,867,-1
870,865,867,-1
861,869,858,-1
853,916,852,-1
852,915,325,-1
852,916,915,-1
853,855,916,-1
916,855,918,-1
926,325,915,-1
919,929,917,-1
858,918,855,-1
918,858,921,-1
921,858,925,-1
858,949,925,-1
920,930,919,-1
930,920,922,-1
919,930,929,-1
937,928,930,-1
937,932,928,-1
932,937,934,-1
933,334,931,-1
935,335,334,-1
935,334,933,-1
930,922,923,-1
930,923,924,-1
930,924,937,-1
938,936,937,-1
942,938,943,-1
934,937,936,-1
936,938,939,-1
939,938,941,-1
941,938,944,-1
944,938,947,-1
947,938,942,-1
944,947,945,-1
949,858,869,-1
949,869,872,-1
950,925,949,-1
953,956,954,-1
956,953,955,-1
925,950,962,-1
951,962,950,-1
925,962,938,-1
952,954,957,-1
957,954,966,-1
959,967,958,-1
938,960,943,-1
962,960,938,-1
943,960,948,-1
964,963,958,-1
975,964,958,-1
966,954,968,-1
954,956,968,-1
967,969,958,-1
969,970,958,-1
970,973,958,-1
968,956,971,-1
1047,971,956,-1
971,1047,972,-1
973,974,958,-1
974,976,958,-1
976,975,958,-1
972,1053,977,-1
977,979,978,-1
980,978,979,-1
979,977,1053,-1
870,867,788,-1
870,795,871,-1
871,795,872,-1
870,788,791,-1
870,791,793,-1
949,872,1085,-1
870,793,795,-1
1085,872,795,-1
1093,953,949,-1
1093,955,953,-1
1049,1051,1050,-1
1050,1054,1048,-1
972,1047,1053,-1
1054,1050,1051,-1
1056,1057,1055,-1
1058,1055,1057,-1
1056,1059,1057,-1
1052,1061,1060,-1
1093,765,761,-1
1093,767,765,-1
1093,779,767,-1
1093,780,779,-1
1093,784,780,-1
1093,1079,784,-1
1093,1080,1079,-1
1093,1084,1080,-1
1080,1084,1083,-1
1081,1082,794,-1
1093,949,1085,-1
1093,1085,1084,-1
1093,1049,955,-1
1093,1051,1049,-1
1093,1052,1051,-1
1093,1061,1052,-1
1093,1062,1061,-1
1093,1260,1062,-1
1093,1289,1260,-1
1093,1290,1289,-1
1093,1453,1290,-1
1093,1454,1453,-1
549,935,940,-1
549,940,946,-1
549,946,948,-1
549,948,960,-1
549,960,552,-1
960,553,552,-1
961,1097,553,-1
961,553,960,-1
961,1105,1097,-1
961,1108,1105,-1
961,1111,1108,-1
1096,553,1097,-1
1095,553,1096,-1
1099,1115,1100,-1
1100,1115,1102,-1
1102,1115,1104,-1
1104,1115,1182,-1
1098,1115,1099,-1
1106,1115,1098,-1
1107,1116,1106,-1
1109,1116,1107,-1
1110,1116,1109,-1
1112,1116,1110,-1
1106,1116,1115,-1
1112,1113,1116,-1
1114,1199,1113,-1
1113,1199,1116,-1
965,1117,961,-1
978,1117,965,-1
961,1117,1111,-1
978,980,1117,-1
1055,1124,980,-1
980,1124,1117,-1
1118,1111,1117,-1
1111,1118,1119,-1
1120,1125,1121,-1
1121,1125,1128,-1
1111,1201,1114,-1
1111,1119,1201,-1
1201,1199,1114,-1
1123,1129,1122,-1
1203,1202,1122,-1
1205,1203,1122,-1
1124,1127,1125,-1
1128,1125,1130,-1
1125,1127,1130,-1
1127,1124,1126,-1
1130,1127,1135,-1
1255,1135,1127,-1
1129,1131,1122,-1
1131,1132,1122,-1
1132,1133,1122,-1
1133,1134,1122,-1
1206,1205,1122,-1
1134,1206,1122,-1
1135,1255,1136,-1
1136,1255,1137,-1
1181,606,1103,-1
606,1181,607,-1
1183,607,1181,-1
1186,607,1183,-1
596,1186,1190,-1
596,1190,1192,-1
596,1192,1199,-1
1182,1115,1184,-1
1184,1115,1185,-1
1185,1115,1187,-1
1187,1115,1188,-1
1191,1188,1115,-1
1191,1189,1188,-1
1200,608,1199,-1
608,1200,1193,-1
1195,1337,1194,-1
1193,1200,1210,-1
1193,1197,1195,-1
1196,1195,1197,-1
1195,1196,1337,-1
1197,1193,1210,-1
1116,1199,1192,-1
1137,1208,1207,-1
1208,1137,1269,-1
1209,1207,1208,-1
1204,1281,1200,-1
1207,1281,1204,-1
1210,1200,1213,-1
1213,1200,1214,-1
1214,1200,1276,-1
1281,1276,1200,-1
1215,1371,1212,-1
1216,1372,1215,-1
1217,1372,1216,-1
1055,1058,1124,-1
1058,1126,1124,-1
1058,1257,1126,-1
1062,1259,1058,-1
1058,1259,1257,-1
1062,1260,1259,-1
1258,1270,1256,-1
1270,1258,1259,-1
1255,1269,1137,-1
1257,1259,1258,-1
1261,1272,1271,-1
1261,1274,1272,-1
1260,1289,1275,-1
1207,1209,1281,-1
1271,1281,1209,-1
1273,1271,1272,-1
1281,1271,1273,-1
1290,1282,1273,-1
1282,1290,1291,-1
1277,1372,1217,-1
1276,1281,1284,-1
1276,1284,1280,-1
1285,1280,1284,-1
1281,1273,1282,-1
1287,1283,1286,-1
1288,1283,1287,-1
1283,1288,1285,-1
1293,1285,1288,-1
1294,1285,1293,-1
1280,1285,1297,-1
1291,1290,1292,-1
1292,1290,1299,-1
1295,1285,1294,-1
1296,1285,1295,-1
1390,1280,1297,-1
1297,1285,1296,-1
1290,1298,1299,-1
1302,1300,1299,-1
1302,1299,1298,-1
1300,1302,1450,-1
1300,1450,1301,-1
411,1517,1094,-1
1194,1342,1341,-1
1194,1339,1342,-1
1194,1337,1339,-1
1342,1344,1343,-1
1344,1342,1339,-1
1346,1343,1344,-1
1211,1371,1198,-1
1198,1371,1338,-1
1338,1371,1340,-1
1340,1371,1345,-1
1212,1371,1211,-1
1215,1372,1371,-1
1345,1371,1347,-1
1350,1343,1346,-1
1347,1371,1348,-1
1348,1371,1349,-1
1349,1371,1351,-1
1377,1352,1351,-1
1517,439,656,-1
1517,656,661,-1
1278,1372,1277,-1
1278,1279,1372,-1
1280,1372,1279,-1
1280,1373,1372,-1
1373,1280,1387,-1
1387,1280,1392,-1
1392,1280,1391,-1
1372,1374,1375,-1
1374,1372,1373,-1
1375,1374,1376,-1
1388,1376,1374,-1
1377,1351,1371,-1
1372,1379,1378,-1
1379,1372,1375,-1
1376,1382,1381,-1
1382,1376,1383,-1
1383,1376,1384,-1
1384,1376,1404,-1
1404,1376,1405,-1
1391,1280,1390,-1
1389,1393,1394,-1
1395,1376,1388,-1
1396,1376,1395,-1
1397,1376,1396,-1
1398,1376,1397,-1
1408,1376,1398,-1
1400,1394,1393,-1
1400,1401,1394,-1
1301,1461,1399,-1
1399,1464,1400,-1
1400,1464,1401,-1
1401,1464,1402,-1
1402,1462,1403,-1
1462,1402,1463,-1
1405,1376,1407,-1
1407,1376,1408,-1
1403,1475,1409,-1
1475,1403,1462,-1
1517,661,673,-1
1517,673,1343,-1
1517,1343,1350,-1
1517,1350,1353,-1
1093,1094,1517,-1
1298,1290,1453,-1
1461,1301,1450,-1
1449,1454,1451,-1
1451,1454,1452,-1
1452,1454,1465,-1
1465,1454,1467,-1
1093,1517,1454,-1
1399,1461,1464,-1
1466,1402,1464,-1
1402,1470,1463,-1
1469,1402,1466,-1
1470,1402,1469,-1
1471,1463,1470,-1
1472,1463,1471,-1
1463,1474,1473,-1
1474,1463,1476,-1
1476,1463,1477,-1
1477,1463,1478,-1
1478,1463,1482,-1
1481,1463,1472,-1
1482,1463,1481,-1
1517,1467,1454,-1
1517,1468,1467,-1
1517,1485,1468,-1
1517,1353,1378,-1
1517,1378,1379,-1
1517,1379,1380,-1
1517,1380,1385,-1
1517,1385,1386,-1
1517,1386,1406,-1
1517,1406,1409,-1
1517,1409,1475,-1
1517,1475,1479,-1
1517,1479,1480,-1
1517,1480,1483,-1
1517,1484,1488,-1
1517,1483,1484,-1
1517,1486,1485,-1
1517,1487,1486,-1
1517,1488,1487,-1
8,3,2,-1
10,5,4,-1
12,4,6,-1
11,22,5,-1
8,9,3,-1
10,11,5,-1
10,4,12,-1
56,12,6,-1
11,60,22,-1
10,12,11,-1
56,13,12,-1
11,12,13,-1
11,13,60,-1
9,14,3,-1
52,18,14,-1
54,2,16,-1
53,17,15,-1
55,16,17,-1
56,6,18,-1
57,15,19,-1
58,25,20,-1
13,20,7,-1
59,7,21,-1
60,21,22,-1
61,24,23,-1
63,23,25,-1
64,19,26,-1
62,28,24,-1
65,26,27,-1
66,27,28,-1
67,30,29,-1
69,29,31,-1
68,43,30,-1
70,33,32,-1
71,34,33,-1
72,36,34,-1
77,32,39,-1
73,40,35,-1
74,31,36,-1
75,35,37,-1
76,46,38,-1
78,39,40,-1
79,38,41,-1
80,41,42,-1
81,42,43,-1
85,37,47,-1
82,45,44,-1
84,44,46,-1
83,50,45,-1
86,47,48,-1
88,48,50,-1
87,51,49,-1
124,49,96,-1
9,52,14,-1
8,2,54,-1
53,15,57,-1
53,55,17,-1
54,16,55,-1
52,56,18,-1
58,20,13,-1
57,19,64,-1
8,52,9,-1
8,54,52,-1
52,53,56,-1
52,54,53,-1
53,54,55,-1
53,57,56,-1
56,57,58,-1
56,58,13,-1
58,57,63,-1
13,7,59,-1
59,21,60,-1
58,63,25,-1
61,62,24,-1
61,23,63,-1
64,26,65,-1
62,66,28,-1
65,27,66,-1
67,68,30,-1
67,29,69,-1
13,59,60,-1
57,64,63,-1
61,63,62,-1
62,63,64,-1
62,64,66,-1
64,65,66,-1
67,69,68,-1
68,69,79,-1
70,71,33,-1
71,72,34,-1
70,32,77,-1
73,35,75,-1
72,74,36,-1
76,38,79,-1
73,78,40,-1
77,39,78,-1
75,37,85,-1
70,72,71,-1
70,77,72,-1
72,73,74,-1
72,77,73,-1
74,75,76,-1
73,75,74,-1
74,76,79,-1
73,77,78,-1
75,84,76,-1
69,31,74,-1
68,81,43,-1
79,41,80,-1
80,42,81,-1
76,84,46,-1
82,83,45,-1
82,44,84,-1
85,47,86,-1
83,88,50,-1
86,48,88,-1
87,89,51,-1
87,49,124,-1
69,74,79,-1
68,79,81,-1
79,80,81,-1
75,85,84,-1
82,84,83,-1
83,84,85,-1
83,85,88,-1
85,86,88,-1
87,124,89,-1
119,90,91,-1
118,96,90,-1
122,93,94,-1
123,91,95,-1
120,100,92,-1
121,95,93,-1
89,99,51,-1
125,92,97,-1
126,97,98,-1
127,98,99,-1
128,101,100,-1
129,102,101,-1
130,108,102,-1
137,94,109,-1
132,103,104,-1
131,114,103,-1
134,107,106,-1
136,106,108,-1
135,112,107,-1
138,109,110,-1
139,113,111,-1
140,110,112,-1
142,111,114,-1
141,117,113,-1
143,105,115,-1
144,115,116,-1
145,116,117,-1
118,90,119,-1
118,124,96,-1
119,91,123,-1
120,92,125,-1
121,93,122,-1
123,95,121,-1
130,102,129,-1
118,119,124,-1
119,120,124,-1
119,123,120,-1
120,123,128,-1
123,121,130,-1
123,130,128,-1
125,97,126,-1
89,127,99,-1
126,98,127,-1
120,128,100,-1
128,129,101,-1
120,125,124,-1
89,124,125,-1
89,125,127,-1
125,126,127,-1
130,129,128,-1
122,94,137,-1
131,103,132,-1
131,142,114,-1
132,104,733,-1
133,105,143,-1
121,122,137,-1
121,137,130,-1
131,132,142,-1
132,133,142,-1
130,136,108,-1
134,135,107,-1
134,106,136,-1
135,140,112,-1
137,109,138,-1
139,141,113,-1
138,110,140,-1
139,111,142,-1
143,115,144,-1
141,145,117,-1
144,116,145,-1
130,137,136,-1
134,136,135,-1
135,136,137,-1
135,137,140,-1
137,138,140,-1
139,142,141,-1
133,143,142,-1
141,142,143,-1
141,143,145,-1
143,144,145,-1
180,162,146,-1
182,147,148,-1
193,149,159,-1
184,148,150,-1
183,151,149,-1
185,152,151,-1
187,150,153,-1
186,154,152,-1
188,155,154,-1
189,156,155,-1
191,153,157,-1
181,158,147,-1
192,146,158,-1
194,159,160,-1
195,160,161,-1
196,165,162,-1
197,161,163,-1
198,163,164,-1
199,166,165,-1
201,164,167,-1
200,172,166,-1
204,167,170,-1
190,168,156,-1
202,169,168,-1
203,157,169,-1
205,170,171,-1
206,175,172,-1
207,171,173,-1
208,173,174,-1
209,179,175,-1
210,178,176,-1
211,176,177,-1
212,174,178,-1
213,177,179,-1
192,180,146,-1
180,196,162,-1
182,181,147,-1
182,148,184,-1
193,183,149,-1
185,151,183,-1
184,150,187,-1
185,186,152,-1
186,188,154,-1
188,189,155,-1
187,153,191,-1
189,190,156,-1
191,157,203,-1
182,193,181,-1
182,183,193,-1
182,184,183,-1
184,185,183,-1
184,187,186,-1
184,186,185,-1
186,187,188,-1
187,189,188,-1
187,191,189,-1
189,191,190,-1
192,158,181,-1
193,159,194,-1
194,160,195,-1
195,161,197,-1
196,199,165,-1
197,163,198,-1
199,200,166,-1
198,164,201,-1
201,167,204,-1
200,206,172,-1
190,202,168,-1
202,203,169,-1
204,170,205,-1
205,171,207,-1
207,173,208,-1
206,209,175,-1
212,178,210,-1
210,176,211,-1
211,177,213,-1
212,208,174,-1
209,213,179,-1
192,181,194,-1
192,194,195,-1
181,193,194,-1
192,195,180,-1
180,195,196,-1
196,195,197,-1
196,197,199,-1
197,198,199,-1
199,198,200,-1
198,201,200,-1
200,201,206,-1
201,204,206,-1
190,191,203,-1
190,203,202,-1
204,205,206,-1
205,209,206,-1
205,207,209,-1
207,208,209,-1
212,210,211,-1
209,208,213,-1
212,213,208,-1
212,211,213,-1
251,215,214,-1
252,216,215,-1
255,214,218,-1
254,219,217,-1
257,217,220,-1
253,226,216,-1
256,218,219,-1
258,222,221,-1
259,229,222,-1
266,223,229,-1
260,220,223,-1
261,225,224,-1
264,224,227,-1
262,227,225,-1
265,230,228,-1
263,228,226,-1
268,221,231,-1
267,232,230,-1
269,231,232,-1
270,234,233,-1
271,235,234,-1
274,233,237,-1
273,238,236,-1
272,246,235,-1
278,236,241,-1
275,237,238,-1
276,240,239,-1
283,239,246,-1
279,243,242,-1
284,242,247,-1
281,241,244,-1
280,245,243,-1
282,843,245,-1
277,249,240,-1
285,247,248,-1
287,248,250,-1
286,852,249,-1
891,250,849,-1
251,252,215,-1
251,214,255,-1
252,253,216,-1
254,217,257,-1
254,256,219,-1
255,218,256,-1
257,220,260,-1
258,259,222,-1
259,266,229,-1
266,260,223,-1
251,253,252,-1
251,255,253,-1
253,255,254,-1
253,254,257,-1
253,257,261,-1
254,255,256,-1
257,260,261,-1
258,266,259,-1
261,260,262,-1
261,224,264,-1
253,263,226,-1
261,262,225,-1
262,264,227,-1
263,265,228,-1
253,261,263,-1
261,264,263,-1
262,267,265,-1
262,265,264,-1
264,265,263,-1
258,221,268,-1
267,230,265,-1
267,269,232,-1
268,231,269,-1
270,271,234,-1
271,272,235,-1
270,233,274,-1
273,236,278,-1
273,275,238,-1
274,237,275,-1
281,244,873,-1
258,268,266,-1
266,267,260,-1
266,268,267,-1
262,260,267,-1
267,268,269,-1
270,272,271,-1
270,273,272,-1
270,274,273,-1
272,273,278,-1
272,278,279,-1
274,275,273,-1
281,873,883,-1
276,277,240,-1
276,239,283,-1
272,283,246,-1
278,241,281,-1
279,242,284,-1
279,280,243,-1
280,282,245,-1
282,885,843,-1
277,286,249,-1
284,247,285,-1
285,248,287,-1
287,250,891,-1
286,894,852,-1
276,283,277,-1
272,279,283,-1
278,280,279,-1
279,284,283,-1
278,281,280,-1
280,281,282,-1
281,883,282,-1
883,885,282,-1
277,283,286,-1
283,284,286,-1
284,285,286,-1
285,287,286,-1
287,894,286,-1
287,891,894,-1
336,289,288,-1
337,290,289,-1
340,288,292,-1
339,293,291,-1
341,292,293,-1
342,295,294,-1
343,320,295,-1
338,303,290,-1
344,291,296,-1
345,299,297,-1
346,296,298,-1
347,300,299,-1
349,302,301,-1
351,301,303,-1
350,307,302,-1
352,297,304,-1
353,304,305,-1
354,305,306,-1
356,298,308,-1
348,309,300,-1
357,310,309,-1
359,308,311,-1
360,311,312,-1
361,315,313,-1
358,314,310,-1
362,313,314,-1
364,317,316,-1
363,306,315,-1
355,316,307,-1
365,312,317,-1
366,319,318,-1
374,318,326,-1
370,294,322,-1
369,323,321,-1
371,322,323,-1
373,324,325,-1
374,326,320,-1
375,321,327,-1
367,328,319,-1
376,329,328,-1
372,327,324,-1
377,332,329,-1
378,331,330,-1
380,330,332,-1
379,335,331,-1
381,325,333,-1
382,333,334,-1
383,334,335,-1
336,337,289,-1
337,338,290,-1
336,288,340,-1
340,292,341,-1
339,341,293,-1
342,343,295,-1
343,368,320,-1
336,338,337,-1
336,339,338,-1
336,340,339,-1
339,340,341,-1
342,368,343,-1
339,291,344,-1
344,296,346,-1
345,347,299,-1
345,297,352,-1
346,298,356,-1
347,348,300,-1
338,351,303,-1
349,301,351,-1
349,350,302,-1
352,304,353,-1
350,355,307,-1
353,305,354,-1
356,308,359,-1
348,357,309,-1
357,358,310,-1
359,311,360,-1
360,312,365,-1
361,363,315,-1
358,362,314,-1
361,313,362,-1
354,306,363,-1
355,364,316,-1
365,317,364,-1
366,318,374,-1
366,367,319,-1
338,339,344,-1
338,344,345,-1
338,345,351,-1
344,347,345,-1
344,346,347,-1
346,348,347,-1
346,356,348,-1
345,352,351,-1
349,351,350,-1
350,351,355,-1
351,352,355,-1
352,353,355,-1
353,354,355,-1
348,356,357,-1
356,359,357,-1
357,359,358,-1
358,359,360,-1
358,360,362,-1
362,360,365,-1
361,362,365,-1
361,365,364,-1
355,354,364,-1
354,363,364,-1
361,364,363,-1
366,374,367,-1
342,294,370,-1
369,371,323,-1
370,322,371,-1
372,324,373,-1
342,370,368,-1
368,370,369,-1
369,370,371,-1
368,374,320,-1
369,321,375,-1
375,327,372,-1
367,376,328,-1
376,377,329,-1
373,325,381,-1
377,380,332,-1
378,379,331,-1
378,330,380,-1
381,333,382,-1
379,383,335,-1
382,334,383,-1
368,369,375,-1
368,375,374,-1
374,375,376,-1
367,374,376,-1
375,377,376,-1
375,372,373,-1
375,373,377,-1
373,381,377,-1
378,380,379,-1
379,380,381,-1
377,381,380,-1
379,381,383,-1
381,382,383,-1
394,386,385,-1
395,388,386,-1
396,385,387,-1
399,387,390,-1
398,390,389,-1
401,391,392,-1
400,428,391,-1
394,395,386,-1
395,397,388,-1
394,397,395,-1
394,385,396,-1
396,387,399,-1
398,399,390,-1
400,391,401,-1
394,396,397,-1
398,396,399,-1
397,396,398,-1
400,401,436,-1
409,404,405,-1
408,403,404,-1
410,405,406,-1
408,404,409,-1
408,407,403,-1
409,405,410,-1
408,444,407,-1
408,409,444,-1
407,412,403,-1
417,413,412,-1
418,414,413,-1
419,415,414,-1
420,416,415,-1
407,417,412,-1
417,418,413,-1
418,419,414,-1
419,420,415,-1
420,421,416,-1
417,419,418,-1
417,420,419,-1
407,444,417,-1
417,421,420,-1
417,442,421,-1
430,406,422,-1
431,422,423,-1
434,423,426,-1
432,425,424,-1
435,424,427,-1
433,429,425,-1
435,427,388,-1
436,389,428,-1
437,393,429,-1
410,406,430,-1
430,422,431,-1
431,423,434,-1
432,424,435,-1
432,433,425,-1
410,430,431,-1
409,410,444,-1
410,431,434,-1
410,434,444,-1
432,435,433,-1
397,435,388,-1
398,389,436,-1
400,436,428,-1
402,393,437,-1
397,398,436,-1
397,436,435,-1
401,402,436,-1
436,402,437,-1
433,437,429,-1
436,437,435,-1
433,435,437,-1
443,441,439,-1
421,438,416,-1
442,439,438,-1
444,426,440,-1
445,440,441,-1
445,441,443,-1
421,442,438,-1
442,443,439,-1
434,426,444,-1
445,444,440,-1
417,444,445,-1
417,445,443,-1
417,443,442,-1
468,454,446,-1
473,447,451,-1
469,448,447,-1
472,449,450,-1
478,451,456,-1
474,457,452,-1
471,452,449,-1
470,446,448,-1
475,450,453,-1
476,494,454,-1
477,453,455,-1
513,455,495,-1
479,458,457,-1
482,456,460,-1
480,459,458,-1
481,461,459,-1
483,463,461,-1
484,460,462,-1
485,464,463,-1
486,465,464,-1
487,462,465,-1
488,504,466,-1
489,466,467,-1
470,468,446,-1
468,476,454,-1
473,469,447,-1
470,448,469,-1
472,471,449,-1
473,451,478,-1
474,452,471,-1
474,479,457,-1
472,450,475,-1
475,453,477,-1
476,512,494,-1
477,455,513,-1
478,456,482,-1
479,480,458,-1
480,481,459,-1
481,483,461,-1
482,460,484,-1
483,485,463,-1
485,486,464,-1
486,487,465,-1
484,462,487,-1
488,466,489,-1
473,471,469,-1
470,469,472,-1
469,471,472,-1
473,474,471,-1
473,478,474,-1
474,478,479,-1
470,475,468,-1
470,472,475,-1
468,475,476,-1
476,475,477,-1
476,477,512,-1
477,513,512,-1
478,480,479,-1
478,482,480,-1
480,482,481,-1
482,483,481,-1
482,484,483,-1
483,484,485,-1
485,484,487,-1
485,487,486,-1
522,488,489,-1
508,491,490,-1
524,490,506,-1
509,492,491,-1
512,497,494,-1
514,495,496,-1
515,499,497,-1
516,496,498,-1
518,498,500,-1
517,503,499,-1
519,500,501,-1
520,501,502,-1
521,505,503,-1
522,502,504,-1
523,467,505,-1
525,506,507,-1
511,507,493,-1
508,509,491,-1
401,392,645,-1
508,490,524,-1
509,510,492,-1
508,510,509,-1
508,524,510,-1
510,524,511,-1
512,515,497,-1
513,495,514,-1
514,496,516,-1
515,517,499,-1
518,500,519,-1
516,498,518,-1
519,501,520,-1
517,521,503,-1
522,504,488,-1
520,502,522,-1
489,467,523,-1
521,523,505,-1
513,515,512,-1
513,514,515,-1
514,517,515,-1
514,516,517,-1
516,518,517,-1
517,518,521,-1
518,519,521,-1
519,520,521,-1
520,522,523,-1
522,489,523,-1
521,520,523,-1
524,506,525,-1
511,525,507,-1
511,524,525,-1
554,527,526,-1
555,528,527,-1
558,526,530,-1
557,531,529,-1
559,530,531,-1
560,529,532,-1
613,584,528,-1
561,535,533,-1
562,532,534,-1
563,536,535,-1
614,533,585,-1
565,538,537,-1
566,547,538,-1
567,534,539,-1
564,540,536,-1
568,542,540,-1
569,539,541,-1
573,541,545,-1
570,544,542,-1
572,543,544,-1
574,545,546,-1
577,537,549,-1
576,550,548,-1
578,549,550,-1
628,599,547,-1
629,548,600,-1
630,551,601,-1
580,600,552,-1
581,552,553,-1
579,604,551,-1
634,553,605,-1
554,555,527,-1
555,556,528,-1
554,526,558,-1
557,559,531,-1
558,530,559,-1
557,529,560,-1
556,613,528,-1
560,532,562,-1
561,563,535,-1
562,534,567,-1
563,564,536,-1
561,533,614,-1
565,566,538,-1
566,575,547,-1
567,539,569,-1
564,568,540,-1
568,570,542,-1
569,541,573,-1
570,572,544,-1
571,543,572,-1
573,545,574,-1
574,546,619,-1
554,556,555,-1
554,557,556,-1
556,557,560,-1
556,560,561,-1
554,558,557,-1
557,558,559,-1
556,561,613,-1
561,614,613,-1
560,563,561,-1
560,562,563,-1
562,564,563,-1
562,567,564,-1
565,575,566,-1
564,567,568,-1
567,569,568,-1
569,570,568,-1
569,573,570,-1
570,573,572,-1
572,573,574,-1
571,572,574,-1
571,574,619,-1
565,537,577,-1
576,578,550,-1
576,548,629,-1
577,549,578,-1
575,628,547,-1
629,600,580,-1
580,552,581,-1
581,553,634,-1
630,579,551,-1
579,633,604,-1
565,577,575,-1
575,577,576,-1
576,577,578,-1
575,576,629,-1
575,629,628,-1
629,579,630,-1
629,580,581,-1
629,581,579,-1
581,634,579,-1
579,634,633,-1
611,583,582,-1
613,582,584,-1
612,588,583,-1
615,585,586,-1
616,586,587,-1
618,587,589,-1
571,589,543,-1
617,590,588,-1
619,546,590,-1
620,592,591,-1
628,591,599,-1
622,594,593,-1
623,595,594,-1
625,593,596,-1
627,596,598,-1
626,598,597,-1
675,597,650,-1
621,601,592,-1
631,603,602,-1
633,602,604,-1
632,607,603,-1
635,605,606,-1
636,606,607,-1
637,609,608,-1
638,610,609,-1
611,612,583,-1
611,582,613,-1
614,585,615,-1
612,617,588,-1
615,586,616,-1
616,587,618,-1
571,618,589,-1
617,619,590,-1
620,621,592,-1
620,591,628,-1
611,613,612,-1
612,613,617,-1
613,614,617,-1
614,615,617,-1
615,616,617,-1
616,618,619,-1
617,616,619,-1
571,619,618,-1
620,628,621,-1
622,623,594,-1
622,593,625,-1
623,624,595,-1
625,596,627,-1
626,597,675,-1
626,627,598,-1
622,624,623,-1
622,626,624,-1
624,626,675,-1
624,675,676,-1
622,625,626,-1
626,625,627,-1
621,630,601,-1
631,632,603,-1
631,602,633,-1
634,605,635,-1
632,636,607,-1
635,606,636,-1
621,628,630,-1
628,629,630,-1
631,633,632,-1
632,633,634,-1
632,634,636,-1
634,635,636,-1
637,638,609,-1
637,608,1230,-1
638,639,610,-1
637,639,638,-1
637,1230,639,-1
402,641,393,-1
645,392,640,-1
510,640,492,-1
647,493,642,-1
646,644,641,-1
648,642,643,-1
649,643,644,-1
402,646,641,-1
511,493,647,-1
510,645,640,-1
401,645,402,-1
402,645,646,-1
510,511,645,-1
511,646,645,-1
511,647,646,-1
646,649,644,-1
646,647,649,-1
647,642,648,-1
648,643,649,-1
647,648,649,-1
624,657,595,-1
678,650,653,-1
676,652,651,-1
687,653,662,-1
677,654,652,-1
679,663,654,-1
683,651,658,-1
680,656,655,-1
682,655,657,-1
681,661,656,-1
684,658,659,-1
685,659,660,-1
688,666,663,-1
689,662,664,-1
690,664,665,-1
691,667,666,-1
693,670,668,-1
692,668,667,-1
694,665,669,-1
639,674,610,-1
695,660,670,-1
696,671,661,-1
696,669,671,-1
697,673,672,-1
699,672,674,-1
698,1343,673,-1
624,682,657,-1
675,650,678,-1
676,677,652,-1
678,653,687,-1
677,679,654,-1
676,651,683,-1
624,676,682,-1
676,683,682,-1
675,677,676,-1
675,678,677,-1
678,687,679,-1
677,678,679,-1
680,655,682,-1
680,681,656,-1
683,658,684,-1
681,686,661,-1
685,684,659,-1
685,660,695,-1
686,696,661,-1
680,682,681,-1
681,682,686,-1
682,683,686,-1
683,684,686,-1
685,686,684,-1
685,696,686,-1
687,662,689,-1
679,688,663,-1
688,691,666,-1
689,664,690,-1
691,692,667,-1
692,693,668,-1
690,665,694,-1
694,669,696,-1
639,699,674,-1
679,687,688,-1
687,689,688,-1
688,689,691,-1
691,689,690,-1
691,690,692,-1
692,690,694,-1
692,694,693,-1
693,694,696,-1
639,1231,699,-1
695,670,693,-1
697,672,699,-1
697,698,673,-1
685,695,696,-1
695,693,696,-1
697,699,698,-1
698,699,1358,-1
732,701,702,-1
733,104,703,-1
133,707,105,-1
731,703,701,-1
734,705,704,-1
736,711,706,-1
742,702,712,-1
737,708,707,-1
738,706,708,-1
739,710,709,-1
741,709,711,-1
740,714,710,-1
743,712,713,-1
744,713,714,-1
745,716,715,-1
735,717,705,-1
749,704,719,-1
748,720,718,-1
750,719,720,-1
747,725,717,-1
754,718,724,-1
752,721,722,-1
751,724,721,-1
753,729,723,-1
760,722,730,-1
755,715,725,-1
746,726,716,-1
756,723,726,-1
757,728,727,-1
759,727,729,-1
758,770,728,-1
804,730,769,-1
731,701,732,-1
733,703,731,-1
736,706,738,-1
734,735,705,-1
732,702,742,-1
132,733,133,-1
133,733,737,-1
733,731,736,-1
733,736,737,-1
731,732,742,-1
731,742,736,-1
133,737,707,-1
737,738,708,-1
736,741,711,-1
739,740,710,-1
739,709,741,-1
740,744,714,-1
742,712,743,-1
743,713,744,-1
745,746,716,-1
736,738,737,-1
736,742,741,-1
739,741,740,-1
740,741,742,-1
740,742,744,-1
742,743,744,-1
735,747,717,-1
734,704,749,-1
748,750,720,-1
749,719,750,-1
748,718,754,-1
747,755,725,-1
754,724,751,-1
751,721,752,-1
756,753,723,-1
752,722,760,-1
734,747,735,-1
734,749,747,-1
747,749,748,-1
748,749,750,-1
747,748,754,-1
747,754,755,-1
754,751,752,-1
754,752,753,-1
753,752,760,-1
745,715,755,-1
746,756,726,-1
757,758,728,-1
757,727,759,-1
753,759,729,-1
758,805,770,-1
760,730,804,-1
745,755,746,-1
746,755,756,-1
754,756,755,-1
754,753,756,-1
757,759,758,-1
753,760,759,-1
758,759,760,-1
758,760,805,-1
760,804,805,-1
796,762,761,-1
797,763,762,-1
800,761,765,-1
799,766,764,-1
801,765,766,-1
798,774,763,-1
808,764,773,-1
802,773,767,-1
803,778,768,-1
805,769,770,-1
806,772,771,-1
809,771,774,-1
807,775,772,-1
810,768,775,-1
811,777,776,-1
813,776,778,-1
812,788,777,-1
814,767,779,-1
815,781,780,-1
816,782,781,-1
819,780,784,-1
821,779,786,-1
817,792,782,-1
824,783,789,-1
818,785,783,-1
820,784,785,-1
1086,789,1079,-1
822,786,787,-1
823,787,788,-1
825,791,790,-1
827,790,792,-1
826,793,791,-1
828,1081,793,-1
829,795,794,-1
796,797,762,-1
796,761,800,-1
797,798,763,-1
799,801,766,-1
800,765,801,-1
799,764,808,-1
798,809,774,-1
802,767,814,-1
808,773,802,-1
810,803,768,-1
796,798,797,-1
796,800,798,-1
798,800,799,-1
799,800,801,-1
798,799,808,-1
798,808,809,-1
808,802,814,-1
808,814,803,-1
804,769,805,-1
806,807,772,-1
806,771,809,-1
807,810,775,-1
803,813,778,-1
811,812,777,-1
811,776,813,-1
806,809,807,-1
807,809,810,-1
808,810,809,-1
808,803,810,-1
803,821,813,-1
811,813,812,-1
812,813,821,-1
815,816,781,-1
816,817,782,-1
815,780,819,-1
814,779,821,-1
818,783,824,-1
817,827,792,-1
819,784,820,-1
818,820,785,-1
824,789,1086,-1
828,1088,1081,-1
815,817,816,-1
815,819,817,-1
817,819,818,-1
814,821,803,-1
817,818,824,-1
817,824,827,-1
818,819,820,-1
824,1086,1087,-1
824,1087,1088,-1
821,786,822,-1
812,823,788,-1
822,787,823,-1
825,826,791,-1
825,790,827,-1
826,828,793,-1
829,830,795,-1
812,821,823,-1
821,822,823,-1
825,827,826,-1
826,827,828,-1
827,824,828,-1
824,1088,828,-1
873,244,831,-1
883,832,841,-1
875,831,833,-1
874,834,832,-1
876,833,834,-1
877,836,835,-1
878,837,836,-1
881,835,839,-1
880,840,838,-1
879,857,837,-1
882,839,840,-1
901,856,859,-1
884,841,842,-1
885,844,843,-1
887,842,845,-1
888,845,846,-1
886,847,844,-1
889,848,847,-1
890,849,848,-1
892,846,850,-1
893,850,851,-1
894,853,852,-1
895,851,853,-1
896,855,854,-1
898,838,856,-1
900,861,858,-1
899,854,857,-1
897,858,855,-1
902,859,860,-1
904,863,862,-1
905,864,863,-1
906,868,864,-1
908,862,866,-1
907,867,865,-1
907,865,870,-1
909,866,867,-1
903,869,861,-1
910,860,868,-1
911,872,869,-1
913,870,871,-1
914,871,872,-1
873,831,875,-1
883,874,832,-1
874,876,834,-1
875,833,876,-1
877,878,836,-1
877,835,881,-1
878,879,837,-1
880,838,898,-1
880,882,840,-1
881,839,882,-1
883,873,874,-1
873,875,874,-1
875,876,874,-1
877,879,878,-1
877,881,879,-1
879,881,880,-1
879,880,898,-1
880,881,882,-1
901,902,898,-1
902,903,898,-1
883,841,884,-1
884,842,887,-1
885,886,844,-1
887,845,888,-1
886,889,847,-1
889,890,848,-1
891,849,890,-1
888,846,892,-1
895,893,851,-1
892,850,893,-1
894,895,853,-1
896,897,855,-1
896,854,899,-1
879,899,857,-1
901,898,856,-1
903,861,900,-1
897,900,858,-1
883,884,885,-1
885,884,886,-1
884,887,886,-1
887,888,886,-1
886,888,889,-1
889,892,890,-1
891,890,895,-1
890,893,895,-1
889,888,892,-1
892,893,890,-1
891,895,894,-1
896,899,897,-1
879,898,899,-1
903,900,898,-1
897,899,900,-1
899,898,900,-1
901,859,902,-1
902,860,910,-1
904,905,863,-1
904,862,908,-1
905,906,864,-1
907,909,867,-1
908,866,909,-1
902,910,903,-1
904,906,905,-1
904,908,906,-1
908,907,906,-1
908,909,907,-1
906,907,910,-1
906,910,868,-1
903,911,869,-1
907,870,912,-1
912,870,913,-1
911,914,872,-1
913,871,914,-1
903,910,911,-1
907,911,910,-1
907,912,911,-1
911,912,914,-1
912,913,914,-1
982,915,916,-1
995,917,929,-1
983,919,917,-1
984,916,918,-1
987,918,921,-1
985,920,919,-1
986,922,920,-1
988,923,922,-1
989,924,923,-1
991,921,925,-1
992,927,926,-1
981,926,915,-1
993,931,927,-1
994,930,928,-1
996,929,930,-1
998,928,932,-1
997,933,931,-1
1000,932,934,-1
999,935,933,-1
1002,934,936,-1
1001,940,935,-1
990,937,924,-1
1004,925,938,-1
1003,938,937,-1
1005,936,939,-1
1007,939,941,-1
1010,941,944,-1
1006,946,940,-1
1008,947,942,-1
1009,942,943,-1
1011,944,945,-1
1013,945,947,-1
1012,948,946,-1
1014,943,948,-1
1015,950,949,-1
1016,951,950,-1
1019,949,953,-1
1018,954,952,-1
1020,953,954,-1
1021,956,955,-1
1017,962,951,-1
1023,952,957,-1
1024,959,958,-1
1032,957,966,-1
1026,961,960,-1
1028,960,962,-1
1027,965,961,-1
1029,958,963,-1
1030,963,964,-1
1025,967,959,-1
1034,966,968,-1
1033,969,967,-1
1037,968,971,-1
1035,970,969,-1
1038,971,972,-1
1036,973,970,-1
1039,974,973,-1
1040,976,974,-1
1041,964,975,-1
1031,978,965,-1
1042,975,976,-1
1043,972,977,-1
1044,977,978,-1
1045,980,979,-1
982,981,915,-1
982,916,984,-1
995,983,917,-1
985,919,983,-1
984,918,987,-1
985,986,920,-1
986,988,922,-1
987,921,991,-1
988,989,923,-1
989,990,924,-1
991,925,1004,-1
982,995,981,-1
982,983,995,-1
982,984,983,-1
984,985,983,-1
984,987,986,-1
984,986,985,-1
986,987,988,-1
988,987,989,-1
987,991,989,-1
991,990,989,-1
992,926,981,-1
996,930,994,-1
992,993,927,-1
994,928,998,-1
995,929,996,-1
993,997,931,-1
997,999,933,-1
998,932,1000,-1
1000,934,1002,-1
999,1001,935,-1
1002,936,1005,-1
990,1003,937,-1
1003,1004,938,-1
1001,1006,940,-1
1005,939,1007,-1
1007,941,1010,-1
1006,1012,946,-1
1008,942,1009,-1
1008,1013,947,-1
1009,943,1014,-1
1010,944,1011,-1
1011,945,1013,-1
1012,1014,948,-1
992,981,996,-1
992,996,994,-1
992,994,993,-1
993,994,997,-1
981,995,996,-1
997,994,998,-1
997,998,999,-1
998,1000,999,-1
999,1000,1001,-1
1000,1002,1001,-1
1001,1002,1006,-1
990,1004,1003,-1
991,1004,990,-1
1002,1005,1006,-1
1005,1007,1006,-1
1007,1010,1012,-1
1007,1012,1006,-1
1008,1009,1013,-1
1010,1011,1012,-1
1012,1011,1014,-1
1009,1014,1013,-1
1011,1013,1014,-1
1015,1016,950,-1
1016,1017,951,-1
1015,949,1019,-1
1018,1020,954,-1
1019,953,1020,-1
1021,1022,956,-1
1015,1017,1016,-1
1015,1018,1017,-1
1015,1019,1018,-1
1018,1019,1020,-1
1018,952,1023,-1
1023,957,1032,-1
1024,1025,959,-1
1024,958,1029,-1
1017,1028,962,-1
1026,1027,961,-1
1026,960,1028,-1
1027,1031,965,-1
1029,963,1030,-1
1032,966,1034,-1
1025,1033,967,-1
1034,968,1037,-1
1033,1035,969,-1
1035,1036,970,-1
1037,971,1038,-1
1038,972,1043,-1
1036,1039,973,-1
1040,1042,976,-1
1039,1040,974,-1
1030,964,1041,-1
1041,975,1042,-1
1031,1044,978,-1
1043,977,1044,-1
1045,1046,980,-1
1017,1018,1023,-1
1017,1023,1024,-1
1017,1024,1028,-1
1023,1025,1024,-1
1023,1032,1025,-1
1026,1028,1027,-1
1024,1029,1028,-1
1028,1029,1031,-1
1027,1028,1031,-1
1029,1030,1031,-1
1032,1033,1025,-1
1032,1034,1033,-1
1034,1035,1033,-1
1034,1037,1035,-1
1035,1037,1036,-1
1036,1037,1038,-1
1030,1041,1031,-1
1031,1041,1044,-1
1041,1042,1044,-1
1040,1044,1042,-1
1036,1038,1039,-1
1039,1038,1043,-1
1039,1043,1040,-1
1040,1043,1044,-1
1022,1047,956,-1
1065,955,1049,-1
1064,1050,1048,-1
1066,1049,1050,-1
1068,1051,1052,-1
1069,1053,1047,-1
1070,1048,1054,-1
1069,979,1053,-1
1046,1055,980,-1
1071,1056,1055,-1
1067,1054,1051,-1
1072,1059,1056,-1
1073,1058,1057,-1
1076,1052,1060,-1
1075,1057,1059,-1
1074,1062,1058,-1
1077,1060,1061,-1
1078,1061,1062,-1
1021,955,1065,-1
1022,1063,1047,-1
1065,1049,1066,-1
1064,1066,1050,-1
1067,1051,1068,-1
1021,1063,1022,-1
1021,1065,1063,-1
1063,1065,1064,-1
1064,1065,1066,-1
1063,1069,1047,-1
1064,1048,1070,-1
1067,1070,1054,-1
1045,979,1069,-1
1046,1071,1055,-1
1072,1056,1071,-1
1068,1052,1076,-1
1073,1057,1075,-1
1073,1074,1058,-1
1072,1075,1059,-1
1076,1060,1077,-1
1074,1078,1062,-1
1063,1064,1070,-1
1063,1070,1069,-1
1045,1069,1046,-1
1069,1070,1071,-1
1046,1069,1071,-1
1072,1071,1070,-1
1067,1068,1070,-1
1068,1072,1070,-1
1068,1076,1072,-1
1073,1075,1074,-1
1072,1076,1075,-1
1074,1075,1076,-1
1074,1076,1078,-1
1077,1061,1078,-1
1076,1077,1078,-1
1087,1079,1080,-1
1088,1082,1081,-1
1090,1080,1083,-1
1089,794,1082,-1
830,1085,795,-1
1091,1083,1084,-1
1092,1084,1085,-1
1086,1079,1087,-1
1087,1080,1090,-1
1087,1090,1088,-1
1088,1089,1082,-1
829,794,1089,-1
1090,1083,1091,-1
830,1092,1085,-1
1091,1084,1092,-1
1088,1090,1089,-1
829,1089,830,-1
830,1089,1090,-1
830,1090,1092,-1
1090,1091,1092,-1
1139,1095,1096,-1
1140,1096,1097,-1
1141,1106,1098,-1
1142,1098,1099,-1
1143,1099,1100,-1
1138,1101,1095,-1
1144,1103,1101,-1
1145,1100,1102,-1
1147,1102,1104,-1
1146,1181,1103,-1
1219,1104,1182,-1
1148,1097,1105,-1
1149,1107,1106,-1
1151,1105,1108,-1
1150,1109,1107,-1
1152,1110,1109,-1
1153,1112,1110,-1
1154,1108,1111,-1
1155,1113,1112,-1
1157,1111,1114,-1
1156,1114,1113,-1
1158,1191,1115,-1
1159,1115,1116,-1
1160,1118,1117,-1
1161,1119,1118,-1
1167,1117,1124,-1
1163,1125,1120,-1
1164,1120,1121,-1
1162,1201,1119,-1
1165,1123,1122,-1
1171,1121,1128,-1
1239,1122,1202,-1
1168,1124,1125,-1
1169,1127,1126,-1
1173,1128,1130,-1
1166,1129,1123,-1
1172,1131,1129,-1
1178,1130,1135,-1
1174,1132,1131,-1
1175,1133,1132,-1
1176,1134,1133,-1
1179,1135,1136,-1
1180,1136,1137,-1
1138,1095,1139,-1
1140,1139,1096,-1
1141,1098,1142,-1
1140,1097,1148,-1
1143,1142,1099,-1
1138,1144,1101,-1
1143,1100,1145,-1
1145,1102,1147,-1
1144,1146,1103,-1
1146,1218,1181,-1
1147,1104,1219,-1
1141,1149,1106,-1
1148,1105,1151,-1
1149,1150,1107,-1
1150,1152,1109,-1
1151,1108,1154,-1
1152,1153,1110,-1
1153,1155,1112,-1
1155,1156,1113,-1
1154,1111,1157,-1
1156,1157,1114,-1
1158,1115,1159,-1
1138,1139,1143,-1
1140,1142,1139,-1
1140,1141,1142,-1
1140,1148,1141,-1
1139,1142,1143,-1
1138,1145,1144,-1
1138,1143,1145,-1
1144,1145,1146,-1
1146,1145,1147,-1
1146,1147,1218,-1
1147,1219,1218,-1
1141,1148,1149,-1
1148,1150,1149,-1
1148,1151,1150,-1
1150,1151,1152,-1
1151,1153,1152,-1
1151,1154,1153,-1
1153,1154,1155,-1
1155,1157,1156,-1
1154,1157,1155,-1
1158,1159,1228,-1
1160,1161,1118,-1
1161,1162,1119,-1
1160,1117,1167,-1
1163,1168,1125,-1
1163,1120,1164,-1
1162,1238,1201,-1
1164,1121,1171,-1
1165,1166,1123,-1
1165,1122,1239,-1
1167,1124,1168,-1
1169,1170,1127,-1
1171,1128,1173,-1
1166,1172,1129,-1
1173,1130,1178,-1
1172,1174,1131,-1
1174,1175,1132,-1
1175,1176,1133,-1
1176,1177,1134,-1
1178,1135,1179,-1
1179,1136,1180,-1
1180,1137,1244,-1
1160,1162,1161,-1
1160,1163,1162,-1
1160,1167,1163,-1
1163,1167,1168,-1
1162,1163,1164,-1
1162,1164,1165,-1
1162,1165,1238,-1
1164,1166,1165,-1
1164,1171,1166,-1
1165,1239,1238,-1
1171,1172,1166,-1
1171,1173,1172,-1
1172,1173,1174,-1
1173,1178,1174,-1
1178,1175,1174,-1
1178,1179,1175,-1
1175,1179,1176,-1
1176,1179,1180,-1
1176,1180,1177,-1
1177,1180,1244,-1
1218,1183,1181,-1
1221,1182,1184,-1
1220,1186,1183,-1
1222,1184,1185,-1
1225,1187,1188,-1
1224,1185,1187,-1
1223,1190,1186,-1
1226,1188,1189,-1
1228,1189,1191,-1
1227,1192,1190,-1
1229,1116,1192,-1
1230,608,1193,-1
1232,1193,1195,-1
1231,1195,1194,-1
1234,1196,1197,-1
1236,1200,1199,-1
1238,1199,1201,-1
1237,1204,1200,-1
1240,1202,1203,-1
1242,1203,1205,-1
1241,1207,1204,-1
1243,1205,1206,-1
1177,1206,1134,-1
1244,1137,1207,-1
1245,1209,1208,-1
1250,1210,1213,-1
1247,1197,1210,-1
1248,1212,1211,-1
1235,1211,1198,-1
1249,1215,1212,-1
1251,1213,1214,-1
1252,1216,1215,-1
1253,1217,1216,-1
1254,1277,1217,-1
1219,1182,1221,-1
1218,1220,1183,-1
1221,1184,1222,-1
1220,1223,1186,-1
1224,1187,1225,-1
1222,1185,1224,-1
1223,1227,1190,-1
1225,1188,1226,-1
1226,1189,1228,-1
1158,1228,1191,-1
1159,1116,1229,-1
1227,1229,1192,-1
1219,1220,1218,-1
1219,1221,1220,-1
1220,1221,1223,-1
1221,1222,1223,-1
1222,1224,1223,-1
1223,1224,1227,-1
1224,1225,1227,-1
1225,1226,1227,-1
1226,1229,1227,-1
1159,1229,1228,-1
1226,1228,1229,-1
1230,1193,1232,-1
1231,1232,1195,-1
1247,1234,1197,-1
1233,1196,1234,-1
1231,1230,1232,-1
639,1230,1231,-1
1233,1234,1235,-1
1234,1248,1235,-1
1236,1237,1200,-1
1236,1199,1238,-1
1237,1241,1204,-1
1239,1202,1240,-1
1240,1203,1242,-1
1242,1205,1243,-1
1177,1243,1206,-1
1241,1244,1207,-1
1245,1246,1209,-1
1236,1238,1237,-1
1237,1238,1241,-1
1238,1239,1241,-1
1239,1240,1241,-1
1240,1242,1241,-1
1241,1242,1244,-1
1242,1243,1244,-1
1177,1244,1243,-1
1247,1210,1250,-1
1249,1212,1248,-1
1248,1211,1235,-1
1250,1213,1251,-1
1249,1252,1215,-1
1252,1253,1216,-1
1253,1254,1217,-1
1254,1311,1277,-1
1247,1250,1249,-1
1247,1248,1234,-1
1247,1249,1248,-1
1249,1250,1252,-1
1250,1253,1252,-1
1250,1251,1253,-1
1253,1251,1254,-1
1254,1251,1311,-1
1170,1255,1127,-1
1264,1126,1257,-1
1263,1258,1256,-1
1265,1257,1258,-1
1303,1269,1255,-1
1304,1256,1270,-1
1305,1261,1271,-1
1266,1270,1259,-1
1267,1259,1260,-1
1268,1274,1261,-1
1309,1260,1275,-1
1169,1126,1264,-1
1170,1262,1255,-1
1263,1256,1304,-1
1263,1265,1258,-1
1264,1257,1265,-1
1262,1303,1255,-1
1266,1304,1270,-1
1266,1259,1267,-1
1267,1260,1309,-1
1268,1261,1305,-1
1268,1308,1274,-1
1169,1262,1170,-1
1169,1264,1262,-1
1262,1264,1263,-1
1262,1263,1304,-1
1263,1264,1265,-1
1262,1304,1303,-1
1268,1305,1304,-1
1266,1267,1304,-1
1267,1268,1304,-1
1267,1309,1268,-1
1268,1309,1308,-1
1303,1208,1269,-1
1246,1271,1209,-1
1306,1273,1272,-1
1308,1272,1274,-1
1307,1290,1273,-1
1310,1214,1276,-1
1311,1278,1277,-1
1312,1279,1278,-1
1313,1280,1279,-1
1314,1276,1280,-1
1316,1281,1282,-1
1325,1282,1291,-1
1318,1284,1281,-1
1317,1286,1283,-1
1318,1285,1284,-1
1319,1283,1285,-1
1320,1287,1286,-1
1321,1288,1287,-1
1322,1293,1288,-1
1323,1275,1289,-1
1324,1289,1290,-1
1326,1291,1292,-1
1327,1294,1293,-1
1328,1295,1294,-1
1333,1292,1299,-1
1329,1296,1295,-1
1330,1297,1296,-1
1332,1302,1298,-1
1334,1299,1300,-1
1335,1300,1301,-1
1245,1208,1303,-1
1246,1305,1271,-1
1306,1307,1273,-1
1306,1272,1308,-1
1307,1324,1290,-1
1309,1275,1323,-1
1245,1303,1246,-1
1246,1303,1305,-1
1303,1304,1305,-1
1306,1308,1307,-1
1307,1308,1309,-1
1307,1309,1324,-1
1251,1214,1310,-1
1311,1312,1278,-1
1312,1313,1279,-1
1313,1314,1280,-1
1310,1276,1314,-1
1315,1281,1316,-1
1316,1282,1325,-1
1315,1318,1281,-1
1317,1283,1319,-1
1318,1319,1285,-1
1317,1320,1286,-1
1320,1321,1287,-1
1321,1322,1288,-1
1251,1310,1311,-1
1311,1310,1312,-1
1312,1310,1314,-1
1312,1314,1313,-1
1315,1316,1320,-1
1316,1322,1321,-1
1316,1325,1322,-1
1315,1317,1318,-1
1315,1320,1317,-1
1317,1319,1318,-1
1316,1321,1320,-1
1323,1289,1324,-1
1309,1323,1324,-1
1325,1291,1326,-1
1326,1292,1333,-1
1322,1327,1293,-1
1327,1328,1294,-1
1328,1329,1295,-1
1329,1330,1296,-1
1330,1331,1297,-1
1333,1299,1334,-1
1334,1300,1335,-1
1335,1301,1438,-1
1332,1336,1302,-1
1322,1325,1327,-1
1325,1328,1327,-1
1325,1326,1328,-1
1328,1326,1329,-1
1326,1333,1329,-1
1333,1330,1329,-1
1333,1334,1330,-1
1330,1334,1331,-1
1331,1334,1335,-1
1358,1194,1341,-1
1233,1337,1196,-1
1354,1339,1337,-1
1355,1198,1338,-1
1357,1338,1340,-1
1356,1344,1339,-1
1359,1341,1342,-1
1360,1342,1343,-1
1361,1346,1344,-1
1362,1340,1345,-1
1364,1345,1347,-1
1363,1350,1346,-1
1365,1347,1348,-1
1366,1348,1349,-1
1367,1353,1350,-1
1368,1349,1351,-1
1369,1351,1352,-1
1231,1194,1358,-1
1233,1354,1337,-1
1235,1198,1355,-1
1355,1338,1357,-1
1354,1356,1339,-1
1356,1361,1344,-1
1231,1358,699,-1
1233,1235,1355,-1
1233,1355,1354,-1
1354,1355,1356,-1
1356,1355,1357,-1
1356,1357,1361,-1
1357,1362,1361,-1
698,1360,1343,-1
1358,1341,1359,-1
1359,1342,1360,-1
698,1358,1360,-1
1358,1359,1360,-1
1357,1340,1362,-1
1361,1363,1346,-1
1362,1345,1364,-1
1364,1347,1365,-1
1363,1367,1350,-1
1365,1348,1366,-1
1366,1349,1368,-1
1369,1368,1351,-1
1367,1370,1353,-1
1361,1362,1363,-1
1362,1364,1363,-1
1363,1364,1367,-1
1364,1365,1367,-1
1365,1366,1367,-1
1366,1368,1370,-1
1369,1370,1368,-1
1367,1366,1370,-1
1411,1371,1372,-1
1410,1377,1371,-1
1412,1374,1373,-1
1413,1388,1374,-1
1415,1375,1376,-1
1416,1352,1377,-1
1417,1372,1378,-1
1370,1378,1353,-1
1414,1379,1375,-1
1420,1376,1381,-1
1418,1380,1379,-1
1421,1381,1382,-1
1422,1382,1383,-1
1423,1383,1384,-1
1419,1385,1380,-1
1424,1386,1385,-1
1425,1406,1386,-1
1426,1373,1387,-1
1431,1387,1392,-1
1427,1395,1388,-1
1331,1390,1297,-1
1429,1391,1390,-1
1430,1392,1391,-1
1428,1393,1389,-1
1433,1389,1394,-1
1434,1396,1395,-1
1435,1397,1396,-1
1436,1398,1397,-1
1437,1408,1398,-1
1438,1301,1399,-1
1439,1399,1400,-1
1432,1400,1393,-1
1440,1394,1401,-1
1441,1401,1402,-1
1442,1402,1403,-1
1443,1384,1404,-1
1444,1404,1405,-1
1445,1409,1406,-1
1447,1407,1408,-1
1446,1405,1407,-1
1448,1403,1409,-1
1410,1371,1411,-1
1411,1372,1417,-1
1412,1373,1426,-1
1412,1413,1374,-1
1414,1375,1415,-1
1415,1376,1420,-1
1410,1411,1416,-1
1412,1426,1413,-1
1414,1415,1420,-1
1369,1352,1416,-1
1410,1416,1377,-1
1370,1417,1378,-1
1414,1418,1379,-1
1418,1419,1380,-1
1420,1381,1421,-1
1421,1382,1422,-1
1422,1383,1423,-1
1419,1424,1385,-1
1424,1425,1386,-1
1369,1417,1370,-1
1369,1416,1417,-1
1416,1411,1417,-1
1414,1420,1418,-1
1420,1419,1418,-1
1420,1421,1419,-1
1421,1422,1424,-1
1422,1423,1425,-1
1419,1421,1424,-1
1422,1425,1424,-1
1423,1445,1425,-1
1413,1427,1388,-1
1426,1387,1431,-1
1427,1434,1395,-1
1331,1429,1390,-1
1429,1430,1391,-1
1431,1392,1430,-1
1428,1389,1433,-1
1432,1393,1428,-1
1433,1394,1440,-1
1434,1435,1396,-1
1435,1436,1397,-1
1436,1437,1398,-1
1437,1447,1408,-1
1439,1438,1399,-1
1432,1439,1400,-1
1440,1401,1441,-1
1441,1402,1442,-1
1442,1403,1448,-1
1413,1426,1427,-1
1426,1431,1428,-1
1426,1428,1434,-1
1426,1434,1427,-1
1429,1439,1430,-1
1431,1430,1432,-1
1431,1432,1428,-1
1428,1433,1434,-1
1430,1439,1432,-1
1434,1433,1435,-1
1433,1440,1435,-1
1435,1440,1436,-1
1436,1441,1437,-1
1437,1442,1447,-1
1331,1438,1429,-1
1429,1438,1439,-1
1331,1335,1438,-1
1436,1440,1441,-1
1441,1442,1437,-1
1423,1384,1443,-1
1443,1404,1444,-1
1446,1444,1405,-1
1425,1445,1406,-1
1447,1446,1407,-1
1445,1448,1409,-1
1423,1443,1445,-1
1443,1444,1445,-1
1445,1444,1448,-1
1446,1448,1444,-1
1447,1448,1446,-1
1447,1442,1448,-1
1336,1450,1302,-1
1457,1449,1451,-1
1455,1454,1449,-1
1456,1461,1450,-1
1458,1451,1452,-1
1459,1298,1453,-1
1460,1453,1454,-1
1332,1298,1459,-1
1455,1449,1457,-1
1336,1456,1450,-1
1457,1451,1458,-1
1458,1452,1493,-1
1455,1460,1454,-1
1332,1455,1336,-1
1336,1455,1456,-1
1455,1457,1456,-1
1332,1459,1455,-1
1457,1458,1456,-1
1456,1458,1489,-1
1459,1460,1455,-1
1459,1453,1460,-1
1491,1462,1463,-1
1489,1464,1461,-1
1493,1452,1465,-1
1492,1466,1464,-1
1494,1469,1466,-1
1495,1465,1467,-1
1496,1467,1468,-1
1513,1468,1485,-1
1497,1470,1469,-1
1498,1471,1470,-1
1499,1472,1471,-1
1490,1475,1462,-1
1501,1463,1473,-1
1502,1473,1474,-1
1503,1479,1475,-1
1504,1474,1476,-1
1505,1476,1477,-1
1506,1477,1478,-1
1507,1480,1479,-1
1510,1478,1482,-1
1509,1482,1481,-1
1508,1483,1480,-1
1500,1481,1472,-1
1512,1488,1484,-1
1511,1484,1483,-1
1514,1485,1486,-1
1515,1486,1487,-1
1516,1487,1488,-1
1456,1489,1461,-1
1490,1462,1491,-1
1491,1463,1501,-1
1489,1492,1464,-1
1493,1465,1495,-1
1492,1494,1466,-1
1494,1497,1469,-1
1495,1467,1496,-1
1496,1468,1513,-1
1497,1498,1470,-1
1498,1499,1471,-1
1499,1500,1472,-1
1490,1491,1501,-1
1458,1493,1489,-1
1489,1493,1492,-1
1493,1495,1492,-1
1492,1495,1494,-1
1494,1495,1496,-1
1494,1496,1497,-1
1497,1496,1513,-1
1497,1513,1498,-1
1498,1513,1514,-1
1498,1514,1499,-1
1514,1515,1499,-1
1499,1516,1500,-1
1499,1515,1516,-1
1490,1503,1475,-1
1501,1473,1502,-1
1503,1507,1479,-1
1502,1474,1504,-1
1504,1476,1505,-1
1505,1477,1506,-1
1507,1508,1480,-1
1506,1478,1510,-1
1509,1510,1482,-1
1508,1511,1483,-1
1509,1481,1500,-1
1511,1512,1484,-1
1490,1501,1503,-1
1501,1502,1503,-1
1503,1502,1507,-1
1502,1504,1507,-1
1507,1504,1505,-1
1505,1506,1508,-1
1507,1505,1508,-1
1506,1510,1508,-1
1509,1511,1510,-1
1508,1510,1511,-1
1509,1500,1512,-1
1509,1512,1511,-1
1500,1516,1512,-1
1513,1485,1514,-1
1514,1486,1515,-1
1515,1487,1516,-1
1516,1488,1512,-1
]

colorPerVertex FALSE

color Color { color [
 0 0 0,
 1 1 1,
 0.976471 0.843137 0.172549, # default colour
] }

colorIndex [
0 0 0 0 0 0 0 0 0 0 0 0 0 0 0 0 0 0 0 0 0 0 0 0 0 0 0 0 0 0 0 0 0 0 0 0 0 0 0 0 0 0 0 0 0 0 0 0 0 0 0 0 0 0 0 0 0 0 0 0 0 0 0 0 0 0 0 0 0 0 0 0 0 0 0 0 0 0 0 0 0 0 0 0 0 0 0 0 0 0 0 0 0 0 0 0 0 0 0 0 0 0 0 0 0 0 0 0 0 0 0 0 0 0 0 0 0 0 0 0 0 0 0 0 0 0 0 0 0 0 0 0 0 0 0 0 0 0 0 0 0 0 0 0 0 0 0 0 0 0 0 0 0 0 0 0 0 0 0 0 0 0 0 0 0 0 0 0 0 0 0 0 0 0 0 0 0 0 0 0 0 0 0 0 0 0 0 0 0 0 0 0 0 0 0 0 0 0 0 0 0 0 0 0 0 0 0 0 0 0 0 0 0 0 0 0 0 0 0 0 0 0 0 0 0 0 0 0 0 0 0 0 0 0 0 0 0 0 0 0 0 0 0 0 0 0 0 0 0 0 0 0 0 0 0 0 0 0 0 0 0 0 0 0 0 0 0 0 0 0 0 0 0 0 0 0 0 0 0 0 0 0 0 0 0 0 0 0 0 0 0 0 0 0 0 0 0 0 0 0 0 0 0 0 0 0 0 0 0 0 0 0 0 0 0 0 0 0 0 0 0 0 0 0 0 0 0 0 0 0 0 0 0 0 0 0 0 0 0 0 0 0 0 0 0 0 0 0 0 0 0 0 0 0 0 0 0 0 0 0 0 0 0 0 0 0 0 0 0 0 0 0 0 0 0 0 0 0 0 0 0 0 0 0 0 0 0 0 0 0 0 0 0 0 0 0 0 0 0 0 0 0 0 0 0 0 0 0 0 0 0 0 0 0 0 0 0 0 0 0 0 0 0 0 0 0 0 0 0 0 0 0 0 0 0 0 0 0 0 0 0 0 0 0 0 0 0 0 0 0 0 0 0 0 0 0 0 0 0 0 0 0 0 0 0 0 0 0 0 0 0 0 0 0 0 0 0 0 0 0 0 0 0 0 0 0 0 0 0 0 0 0 0 0 0 0 0 0 0 0 0 0 0 0 0 0 0 0 0 0 0 0 0 0 0 0 0 0 0 0 0 0 0 0 0 0 0 0 0 0 0 0 0 0 0 0 0 0 0 0 0 0 0 0 0 0 0 0 0 0 0 0 0 0 0 0 0 0 0 0 0 0 0 0 0 0 0 0 0 0 0 0 0 0 0 0 0 0 0 0 0 0 0 0 0 0 0 0 0 0 0 0 0 0 0 0 0 0 0 0 0 0 0 0 0 0 0 0 0 0 0 0 0 0 0 0 0 0 0 0 0 0 0 0 0 0 0 0 0 0 0 0 0 0 0 0 0 0 0 0 0 0 0 0 0 0 0 0 0 0 0 0 0 0 0 0 0 0 0 0 0 0 0 0 0 0 0 0 0 0 0 0 0 0 0 0 0 0 0 0 0 0 0 0 0 0 0 0 0 0 0 0 0 0 0 0 0 0 0 0 0 0 0 0 0 0 0 0 0 0 0 0 0 0 0 0 0 0 0 0 0 0 0 0 0 0 0 0 0 0 0 0 0 0 0 0 0 0 0 0 0 0 0 0 0 0 0 0 0 0 0 0 0 0 0 0 0 0 0 0 0 0 0 0 0 0 0 0 0 0 0 0 0 0 0 0 0 0 0 0 0 0 0 0 0 0 0 0 0 0 0 0 0 0 0 0 0 0 0 0 0 0 0 0 0 0 0 0 0 0 0 1 1 1 1 1 1 1 1 1 1 1 1 1 1 1 1 1 1 1 1 1 1 1 1 1 1 1 1 1 1 1 1 1 1 1 1 1 1 1 1 1 1 1 1 1 1 1 1 1 1 1 1 1 1 1 1 1 1 1 1 1 1 1 1 1 1 1 1 1 1 1 1 1 1 1 1 1 1 1 1 1 1 1 1 1 1 1 1 1 1 1 1 1 1 1 1 1 1 1 1 1 1 1 1 1 1 1 1 1 1 1 1 1 1 1 1 1 1 1 1 1 1 1 1 1 1 1 1 1 1 1 1 1 1 1 1 1 1 1 1 1 1 1 1 1 1 1 1 1 1 1 1 1 1 1 1 1 1 1 1 1 1 1 1 1 1 1 1 1 1 1 1 1 1 1 1 1 1 1 1 1 1 1 1 1 1 1 1 1 1 1 1 1 1 1 1 1 1 1 1 1 1 1 1 1 1 1 1 1 1 1 1 1 1 1 1 1 1 1 1 1 1 1 1 1 1 1 1 1 1 1 1 1 1 1 1 1 1 1 1 1 1 1 1 1 1 1 1 1 1 1 1 1 1 1 1 1 1 1 1 1 1 1 1 1 1 1 1 1 1 1 1 1 1 1 1 1 1 1 1 1 1 1 1 1 1 1 1 1 1 1 1 1 1 1 1 1 1 1 1 1 1 1 1 1 1 1 1 1 1 1 1 1 1 1 1 1 1 1 1 1 1 1 1 1 1 1 1 1 1 1 1 1 1 1 1 1 1 1 1 1 1 1 1 1 1 1 1 1 1 1 1 1 1 1 1 1 1 1 1 1 1 1 1 1 1 1 1 1 1 1 1 1 1 1 1 1 1 1 1 1 1 1 1 1 1 1 1 1 1 1 1 1 1 1 1 1 1 1 1 1 1 1 1 1 1 1 1 1 1 1 1 1 1 1 1 1 1 1 1 1 1 1 1 1 1 1 1 1 1 1 1 1 1 1 1 1 1 1 1 1 1 1 1 1 1 1 1 1 1 1 1 1 1 1 1 1 1 1 1 1 1 1 1 1 1 1 1 1 1 1 1 1 1 1 1 1 1 1 1 1 1 1 1 1 1 1 1 1 1 1 1 1 1 1 1 1 1 1 1 1 1 1 1 1 1 1 1 1 1 1 1 1 1 1 1 1 1 1 1 1 1 1 1 1 1 1 1 1 1 1 1 1 1 1 1 1 1 1 1 1 1 1 1 1 1 1 1 1 1 1 1 1 1 1 1 1 1 1 1 1 1 1 1 1 1 1 1 1 1 1 1 1 1 1 1 1 1 1 1 1 1 1 1 1 1 1 1 1 1 1 1 1 1 1 1 1 1 1 1 1 1 1 1 1 1 1 1 1 1 1 1 1 1 1 1 1 1 1 1 1 1 1 1 1 1 1 1 1 1 1 1 1 1 1 1 1 1 1 1 1 1 1 1 1 1 1 1 1 1 1 1 1 1 1 1 1 1 1 1 1 1 1 1 1 1 1 1 1 1 1 1 1 1 1 1 1 1 1 1 1 1 1 1 1 1 1 1 1 1 1 1 1 1 1 1 1 1 1 1 1 1 1 1 1 1 1 1 1 1 1 1 1 1 1 1 1 1 1 1 1 1 1 1 1 1 1 1 1 1 1 1 1 1 1 1 1 1 1 1 1 1 1 1 1 1 1 1 1 1 1 1 1 1 1 1 1 1 1 1 1 1 1 1 1 1 1 1 1 1 1 1 1 1 1 1 1 1 1 1 1 1 1 1 1 1 1 1 1 1 1 1 1 1 1 1 1 1 1 1 1 1 1 1 1 1 1 1 1 1 1 1 1 1 1 1 1 1 1 1 1 1 1 1 1 1 1 1 1 1 1 1 1 1 1 1 1 1 1 1 1 1 1 1 1 1 1 1 1 1 1 1 1 1 1 1 1 1 1 1 1 1 1 1 1 1 1 1 1 1 1 1 1 1 1 1 1 1 1 1 1 1 1 1 1 1 1 1 1 1 1 1 1 1 1 1 1 1 1 1 1 1 1 1 1 1 1 1 1 1 1 1 1 1 1 1 1 1 1 1 1 1 1 1 1 1 1 1 1 1 1 1 1 1 1 1 1 1 1 1 1 1 1 1 1 1 1 1 1 1 1 1 1 1 1 1 1 1 1 1 1 1 1 1 1 1 1 1 1 1 1 1 1 1 1 1 1 1 1 1 1 1 1 1 1 1 1 1 1 1 1 1 1 1 1 1 1 1 1 1 1 1 1 1 1 1 1 1 1 1 1 1 1 1 1 1 1 1 1 1 1 1 1 1 1 1 1 1 1 1 1 1 1 1 1 1 1 1 1 1 1 1 1 1 1 1 1 1 1 1 1 1 1 1 1 1 1 1 1 1 1 1 1 1 1 1 1 1 1 1 1 1 1 1 1 1 1 1 1 1 1 1 1 1 1 1 1 1 1 1 1 1 1 1 1 1 1 1 1 1 1 1 1 1 1 1 1 1 1 1 1 1 1 1 1 1 1 1 1 1 1 1 1 1 1 1 1 1 1 1 1 1 1 1 1 1 1 1 1 1 1 1 1 1 1 1 1 1 1 1 1 1 1 1 1 1 1 1 1 1 1 1 1 1 1 1 1 1 1 1 1 1 1 1 1 1 1 1 1 1 1 1 1 1 1 1 1 1 1 1 1 1 1 1 1 1 1 1 1 1 1 1 1 1 1 1 1 1 1 1 1 1 1 1 1 1 1 1 1 1 1 1 1 1 1 1 1 1 1 1 1 1 1 1 1 1 1 1 1 1 1 1 1 1 1 1 1 1 1 1 1 1 1 1 1 1 1 1 1 1 1 1 1 1 1 1 1 1 1 1 1 1 1 1 1 1 1 1 1 1 1 1 1 1 1 1 1 1 1 1 1 1 1 1 1 1 1 1 1 1 1 1 1 1 1 1 1 1 1 1 1 1 1 1 1 1 1 1 1 1 1 1 1 1 1 1 1 1 1 1 1 1 1 1 1 1 1 1 1 1 1 1 1 1 1 1 1 1 1 1 1 1 1 1 1 1 1 1 1 1 1 1 1 1 1 1 1 1 1 1 1 1 1 1 1 1 1 1 1 1 1 1 1 1 1 1 1 1 1 1 1 1 1 1 1 1 1 1 1 1 1 1 1 1 1 1 1 1 1 1 1 1 1 1 1 1 1 1 1 1 1 1 1 1 1 1 1 1 1 1 1 1 1 1 1 1 1 1 1 1 1 1 1 1 1 1 1 1 1 1 1 1 1 1 1 1 1 1 1 1 1 1 1 1 1 1 1 1 1 1 1 1 1 1 1 1 1 1 1 1 1 1 1 1 1 1 1 1 1 1 1 1 1 1 1 1 1 1 1 1 1 1 1 1 1 1 1 1 1 1 1 1 1 1 1 1 1 1 1 1 1 1 1 1 1 1 1 1 1 1 1 1 1 1 1 1 1 1 1 1 1 1 1 1 1 1 1 1 1 1 1 1 1 1 1 1 1 1 1 1 1 1 1 1 1 1 1 1 1 1 1 1 1 1 1 1 1 1 1 1 1 1 1 1 1 1 1 1 1 1 1 1 1 1 1 1 1 1 1 1 1 1 1 1 1 1 1 1 1 1 1 1 1 1 1 1 1 1 1 1 1 1 1 1 1 1 1 1 1 1 1 1 1 1 1 1 1 1 1 1 1 1 1 1 1 1 1 1 1 1 1 1 1 1 1 1 1 1 1 1 1 1 1 1 1 1 1 1 1 1 1 1 1 1 1 1 1 1 1 1 1 1 1 1 1 1 1 1 1 1 1 1 1 1 1 1 1 1 1 1 1 1 1 1 1 1 1 1 1 1 1 1 1 1 1 1 1 1 1 1 1 1 1 1 1 1 1 1 1 1 1 1 1 1 1 1 1 1 1 1 1 1 1 1 1 1 1 1 1 1 1 1 1 1 1 1 1 1 1 1 1 1 1 1 1 1 1 1 1 1 1 1 1 1 1 1 1 1 1 1 1 1 1 1 1 1 1 1 1 1 1 1 1 1 1 1 1 1 1 1 1 1 1 1 1 1 1 1 1 1 1 1 1 1 1 1 1 1 1 1 1 1 1 1 1 1 1 1 1 1 1 1 1 1 1 1 1 1 1 1 1 1 1 1 1 1 1 1 1 1 1 1 1 1 1 1 1 1 1 1 1 1 1 1 1 1 1 1 1 1 1 1 1 1 1 1 1 1 1 1 1 1 1 1 1 1 1 1 1 1 1 1 1 1 1 1 1 1 1 1 1 1 1 1 1 1 1 1 1 1 1 1 1 1 1 1 1 1 1 1 1 1 1 1 1 1 1 1 1 1 1 1 1 1 1 1 1 1 1 1 1 1 1 1 1 1 1 1 1 1 1 1 1 1 1 1 1 1 1 1 1 1 1 1 1 1 1 1 1 1 1 1 1 1 1 1 1 1 1 1 1 1 1 1 1 1 1 1 1 1 1 1 1 1 1 1 1 1 1 1 1 1 1 1 1 1 1 1 1 1 1 1 1 1 1 1 1 1 1 1 1 1 1 1 1 1 1 1 1 1 1 1 1 1 1 1 1 1 1 1 1 1 1 1 1 1 1 1 1 1 1 1 1 1 1 1 1 1 1 1 1 1 1 1 1 1 1 1 1 1 1 1 1 1 1 1 1 1 1 1 1 1 1 1 1 1 1 1 1 1 1 1 1 1 1 1 1 1 1 1 1 1 1 1 1 1 1 1 1 1 1 1 1 1 1 1 1 1 1 1 1 1 1 1 1 1 1 1 1 1 1 1 1 1 1 1 1 1 1 1 1 1 1 1 1 1 1 1 1 1 1 1 1 1 1 1 1 1 1 1 1 1 1 1 1 1 1 1 1 1 1 1 1 1 1 1 1 1 1 1 1 1 1 1 1 1 1 1 1 1 1 1 1 1 1 1 1 1 1 1 1 1 1 1 1 1 1 1 1 1 1 1 1 1 1 1 1 1 1 1 1 ]

}

}
