#VRML V2.0 utf8

Shape {

appearance Appearance { material Material {
ambientIntensity 0.3
diffuseColor 0.97647 0.843137 0.172549
specularColor 0.2 0.2 0.2
shininess 0.3
} }

geometry IndexedFaceSet {

creaseAngle 0.5

coord Coordinate { point [
0 0 0,
-3.02729 2.14286 0.3,
-3.02729 2.18136 0.3,
-3.32446 3.07868 0.3,
-3.32446 3.11718 0.3,
-3.21475 3.05978 0.3,
-3.04328 3.05978 0.3,
-2.87254 2.20098 0.3,
-2.73231 2.20098 0.3,
-2.87254 2.52212 0.3,
-2.76355 2.61003 0.3,
-2.73231 2.52648 0.3,
-2.57755 2.14286 0.3,
-2.57755 2.18136 0.3,
-2.9125 3.07868 0.3,
-2.9125 3.11718 0.3,
-2.62115 3.07868 0.3,
-2.62115 3.11718 0.3,
-2.49763 3.05978 0.3,
-2.41117 3.05978 0.3,
-1.95264 2.14286 0.3,
-1.95264 2.18136 0.3,
-1.79788 2.20098 0.3,
-1.79788 2.52212 0.3,
-2.30437 3.07868 0.3,
-2.30437 3.11718 0.3,
-2.2498 3.07868 0.3,
-2.2498 3.11718 0.3,
-2.1401 3.05978 0.3,
-1.96863 3.05978 0.3,
-1.83785 3.07868 0.3,
-1.83785 3.11718 0.3,
-3.02729 2.14286 0.6,
-3.02729 2.18136 0.6,
-3.32446 3.07868 0.6,
-3.32446 3.11718 0.6,
-3.21475 3.05978 0.6,
-3.04328 3.05978 0.6,
-2.87254 2.20098 0.6,
-2.73231 2.20098 0.6,
-2.87254 2.52212 0.6,
-2.76355 2.61003 0.6,
-2.73231 2.52648 0.6,
-2.57755 2.14286 0.6,
-2.57755 2.18136 0.6,
-2.9125 3.07868 0.6,
-2.9125 3.11718 0.6,
-2.62115 3.07868 0.6,
-2.62115 3.11718 0.6,
-2.49763 3.05978 0.6,
-2.41117 3.05978 0.6,
-1.95264 2.14286 0.6,
-1.95264 2.18136 0.6,
-1.79788 2.20098 0.6,
-1.79788 2.52212 0.6,
-2.30437 3.07868 0.6,
-2.30437 3.11718 0.6,
-2.2498 3.07868 0.6,
-2.2498 3.11718 0.6,
-2.1401 3.05978 0.6,
-1.96863 3.05978 0.6,
-1.83785 3.07868 0.6,
-1.83785 3.11718 0.6,
-1.95154 6.543 0.3,
-1.79315 6.44628 0.3,
-1.73203 6.49795 0.3,
-2.05072 6.69785 0.3,
-2.08378 6.90447 0.3,
-2.05199 7.12525 0.3,
-1.90949 6.71883 0.3,
-1.93192 6.90593 0.3,
-1.84219 6.58187 0.3,
-1.91049 7.10609 0.3,
-1.95663 7.28483 0.3,
-1.84619 7.24595 0.3,
-1.79878 7.38155 0.3,
-1.73521 7.32824 0.3,
-1.95154 6.543 0.6,
-1.79315 6.44628 0.6,
-1.73203 6.49795 0.6,
-2.05072 6.69785 0.6,
-2.08378 6.90447 0.6,
-2.05199 7.12525 0.6,
-1.90949 6.71883 0.6,
-1.93192 6.90593 0.6,
-1.84219 6.58187 0.6,
-1.91049 7.10609 0.6,
-1.95663 7.28483 0.6,
-1.84619 7.24595 0.6,
-1.79878 7.38155 0.6,
-1.73521 7.32824 0.6,
-1.65766 2.20098 0.3,
-1.5029 2.14286 0.3,
-1.5029 2.18136 0.3,
-1.65766 2.52648 0.3,
-1.6889 2.61003 0.3,
-1.54649 3.07868 0.3,
-1.54649 3.11718 0.3,
-1.42298 3.05978 0.3,
-1.33652 3.05978 0.3,
-1.22972 3.07868 0.3,
-1.22972 3.11718 0.3,
-1.19041 3.07868 0.3,
-1.19041 3.11718 0.3,
-1.1054 3.05978 0.3,
-0.782812 2.12034 0.3,
-0.744295 2.12034 0.3,
-0.729766 2.37318 0.3,
-0.961538 3.05978 0.3,
-0.818405 3.07868 0.3,
-0.818405 3.11718 0.3,
0 0 0.4,
-0.232077 2.12034 0.3,
-0.19357 2.12034 0.3,
-0.484912 2.79168 0.3,
-0.181945 2.37318 0.3,
0 2.69176 0.3,
-0.46748 3.04888 0.3,
-0.43478 3.04888 0.3,
-0.112912 3.07868 0.3,
-0.112912 3.11718 0.3,
0 2.93876 0.3,
0 3.06462 0.3,
0 3.11718 0.3,
0 2.69176 0.4,
0 2.93876 0.4,
0 3.06462 0.4,
0 3.11718 0.4,
0.0389304 3.05978 0.4,
0.621723 2.12034 0.4,
0.660241 2.12034 0.4,
0.67477 2.37318 0.4,
0.124666 3.05978 0.4,
0.209673 3.07868 0.4,
0.21413 3.07868 0.4,
0.209673 3.11718 0.4,
0.21413 3.11718 0.4,
0.299138 3.05978 0.4,
0.442998 3.05978 0.4,
0.58613 3.07868 0.4,
0.58613 3.11718 0.4,
-1.65766 2.20098 0.6,
-1.5029 2.14286 0.6,
-1.5029 2.18136 0.6,
-1.65766 2.52648 0.6,
-1.6889 2.61003 0.6,
-1.54649 3.07868 0.6,
-1.54649 3.11718 0.6,
-1.42298 3.05978 0.6,
-1.33652 3.05978 0.6,
-1.22972 3.07868 0.6,
-1.22972 3.11718 0.6,
-1.19041 3.07868 0.6,
-1.19041 3.11718 0.6,
-1.1054 3.05978 0.6,
-0.782812 2.12034 0.6,
-0.744295 2.12034 0.6,
-0.729766 2.37318 0.6,
-0.961538 3.05978 0.6,
-0.818405 3.07868 0.6,
-0.818405 3.11718 0.6,
-0.232077 2.12034 0.6,
-0.19357 2.12034 0.6,
-0.484912 2.79168 0.6,
-0.181945 2.37318 0.6,
-0.46748 3.04888 0.6,
-0.43478 3.04888 0.6,
-0.112912 3.07868 0.6,
-0.112912 3.11718 0.6,
0.0389304 3.05978 0.6,
0.621723 2.12034 0.6,
0.660241 2.12034 0.6,
0.67477 2.37318 0.6,
0.124666 3.05978 0.6,
0.209673 3.07868 0.6,
0.21413 3.07868 0.6,
0.209673 3.11718 0.6,
0.21413 3.11718 0.6,
0.299138 3.05978 0.6,
0.442998 3.05978 0.6,
0.58613 3.07868 0.6,
0.58613 3.11718 0.6,
-0.930654 4.28571 0.3,
-0.930654 4.32422 0.3,
-0.820211 4.34384 0.3,
-0.741021 4.34384 0.3,
-0.610232 4.28571 0.3,
-0.610232 4.32422 0.3,
-0.642932 4.62501 0.3,
-0.621139 4.69041 0.3,
-1.58245 6.41404 0.3,
-1.58099 6.46998 0.3,
-1.50053 6.47498 0.3,
-1.40462 6.42549 0.3,
-1.42479 6.48996 0.3,
-1.35903 6.51331 0.3,
-1.30854 6.54336 0.3,
-1.23879 6.45981 0.3,
-1.09994 6.42857 0.3,
-1.09994 6.46708 0.3,
-1.57373 7.35567 0.3,
-1.57954 7.41379 0.3,
-1.50461 7.3514 0.3,
-1.43677 7.33859 0.3,
-1.42206 7.40453 0.3,
-1.28165 6.68868 0.3,
-1.23443 6.68868 0.3,
-1.29691 7.16385 0.3,
-1.37365 7.31798 0.3,
-1.3187 7.29028 0.3,
-1.25331 7.37673 0.3,
-1.24895 7.16385 0.3,
-1.10939 7.36439 0.3,
-1.10939 7.4029 0.3,
-0.984418 6.4867 0.3,
-0.844189 6.4867 0.3,
-0.689432 6.42857 0.3,
-0.689432 6.46708 0.3,
-0.844189 6.81074 0.3,
-0.844189 6.87614 0.3,
-0.984418 7.34549 0.3,
-0.844189 7.3375 0.3,
-0.768632 6.87614 0.3,
-0.734486 6.81074 0.3,
-0.661921 6.89012 0.3,
-0.584901 6.83018 0.3,
-0.587357 6.93208 0.3,
-0.54349 7.00565 0.3,
-0.772993 7.3375 0.3,
-0.74175 7.4029 0.3,
-0.659831 7.3246 0.3,
-0.528868 7.11445 0.3,
-0.542855 7.21725 0.3,
-0.584818 7.28591 0.3,
-0.293454 4.28571 0.3,
-0.293454 4.32422 0.3,
-0.259307 4.62501 0.3,
-0.162675 4.34384 0.3,
0 4.28571 0.3,
-0.00501429 4.34384 0.3,
0 4.34304 0.3,
-0.281829 4.69041 0.3,
-0.488175 5.26803 0.3,
-0.454029 5.16341 0.3,
-0.350132 5.26803 0.3,
0 4.28571 0.4,
0 4.34304 0.4,
0.118511 4.28571 0.4,
0.118511 4.32422 0.4,
0.181789 4.28571 0.4,
0.181789 4.32422 0.4,
0.297311 4.34384 0.4,
0.437539 4.34384 0.4,
0.585021 4.28571 0.4,
0.585021 4.32422 0.4,
0.172339 5.22153 0.4,
0.172339 5.26004 0.4,
0.297311 5.20263 0.4,
0.437539 4.71294 0.4,
0.437539 4.77832 0.4,
0.566132 4.77832 0.4,
0.612632 4.71294 0.4,
0.677389 4.7904 0.4,
0.437539 5.19464 0.4,
0.561771 5.19464 0.4,
0.593014 5.26004 0.4,
0.677204 5.18292 0.4,
-0.281786 6.42857 0.3,
-0.281786 6.46708 0.3,
-0.156814 6.4867 0.3,
-0.0805286 6.4867 0.3,
0 6.42857 0.3,
0 6.47462 0.3,
-0.474739 6.88848 0.3,
-0.406894 6.98421 0.3,
-0.384279 7.1159 0.3,
-0.473646 7.33115 0.3,
-0.281786 7.36439 0.3,
-0.281786 7.4029 0.3,
-0.156814 7.34549 0.3,
-0.0805286 7.30481 0.3,
0 7.18737 0.3,
0 7.4029 0.3,
0 6.42857 0.4,
0 6.47462 0.4,
0.05025 6.42857 0.4,
0.05025 6.46708 0.4,
0 7.18737 0.4,
0 7.4029 0.4,
0.0132 7.4029 0.4,
0.520339 6.42857 0.4,
0.590818 6.42857 0.4,
0.383743 7.36439 0.4,
0.383743 7.4029 0.4,
0.514521 6.68142 0.4,
0.514521 7.34549 0.4,
0.590818 7.34549 0.4,
-0.930654 4.28571 0.6,
-0.930654 4.32422 0.6,
-0.820211 4.34384 0.6,
-0.741021 4.34384 0.6,
-0.610232 4.28571 0.6,
-0.610232 4.32422 0.6,
-0.642932 4.62501 0.6,
-0.621139 4.69041 0.6,
-1.58245 6.41404 0.6,
-1.58099 6.46998 0.6,
-1.50053 6.47498 0.6,
-1.40462 6.42549 0.6,
-1.42479 6.48996 0.6,
-1.35903 6.51331 0.6,
-1.30854 6.54336 0.6,
-1.23879 6.45981 0.6,
-1.09994 6.42857 0.6,
-1.09994 6.46708 0.6,
-1.57373 7.35567 0.6,
-1.57954 7.41379 0.6,
-1.50461 7.3514 0.6,
-1.43677 7.33859 0.6,
-1.42206 7.40453 0.6,
-1.28165 6.68868 0.6,
-1.23443 6.68868 0.6,
-1.29691 7.16385 0.6,
-1.37365 7.31798 0.6,
-1.3187 7.29028 0.6,
-1.25331 7.37673 0.6,
-1.24895 7.16385 0.6,
-1.10939 7.36439 0.6,
-1.10939 7.4029 0.6,
-0.984418 6.4867 0.6,
-0.844189 6.4867 0.6,
-0.689432 6.42857 0.6,
-0.689432 6.46708 0.6,
-0.844189 6.81074 0.6,
-0.844189 6.87614 0.6,
-0.984418 7.34549 0.6,
-0.844189 7.3375 0.6,
-0.768632 6.87614 0.6,
-0.734486 6.81074 0.6,
-0.661921 6.89012 0.6,
-0.584901 6.83018 0.6,
-0.587357 6.93208 0.6,
-0.54349 7.00565 0.6,
-0.772993 7.3375 0.6,
-0.74175 7.4029 0.6,
-0.659831 7.3246 0.6,
-0.528868 7.11445 0.6,
-0.542855 7.21725 0.6,
-0.584818 7.28591 0.6,
-0.293454 4.28571 0.6,
-0.293454 4.32422 0.6,
-0.259307 4.62501 0.6,
-0.162675 4.34384 0.6,
-0.00501429 4.34384 0.6,
-0.281829 4.69041 0.6,
-0.488175 5.26803 0.6,
-0.454029 5.16341 0.6,
-0.350132 5.26803 0.6,
0.118511 4.28571 0.6,
0.118511 4.32422 0.6,
0.181789 4.28571 0.6,
0.181789 4.32422 0.6,
0.297311 4.34384 0.6,
0.437539 4.34384 0.6,
0.585021 4.28571 0.6,
0.585021 4.32422 0.6,
0.172339 5.22153 0.6,
0.172339 5.26004 0.6,
0.297311 5.20263 0.6,
0.437539 4.71294 0.6,
0.437539 4.77832 0.6,
0.566132 4.77832 0.6,
0.612632 4.71294 0.6,
0.677389 4.7904 0.6,
0.437539 5.19464 0.6,
0.561771 5.19464 0.6,
0.593014 5.26004 0.6,
0.677204 5.18292 0.6,
-0.281786 6.42857 0.6,
-0.281786 6.46708 0.6,
-0.156814 6.4867 0.6,
-0.0805286 6.4867 0.6,
0.05025 6.42857 0.6,
0.05025 6.46708 0.6,
-0.474739 6.88848 0.6,
-0.406894 6.98421 0.6,
-0.384279 7.1159 0.6,
-0.473646 7.33115 0.6,
-0.281786 7.36439 0.6,
-0.281786 7.4029 0.6,
-0.156814 7.34549 0.6,
-0.0805286 7.30481 0.6,
0.0132 7.4029 0.6,
0.520339 6.42857 0.6,
0.590818 6.42857 0.6,
0.383743 7.36439 0.6,
0.383743 7.4029 0.6,
0.514521 6.68142 0.6,
0.514521 7.34549 0.6,
0.590818 7.34549 0.6,
0 15 0,
-4.12193 10.7143 0.3,
-4.12193 10.7836 0.3,
-3.89698 10.8189 0.3,
-3.52426 10.7143 0.3,
-3.75967 10.8189 0.3,
-3.52426 10.7836 0.3,
-3.11753 10.7143 0.3,
-3.07176 10.7143 0.3,
-3.02075 11.1341 0.3,
-2.05072 8.84071 0.3,
-2.08378 9.04732 0.3,
-2.05199 9.26811 0.3,
-1.95154 8.68586 0.3,
-1.90949 8.86169 0.3,
-1.79315 8.58914 0.3,
-1.73203 8.64081 0.3,
-1.84219 8.72473 0.3,
-1.93192 9.04878 0.3,
-1.91049 9.24895 0.3,
-2.60748 10.7143 0.3,
-2.60748 10.7836 0.3,
-2.37208 10.8189 0.3,
-1.95663 9.42768 0.3,
-1.84619 9.38881 0.3,
-1.79878 9.52441 0.3,
-1.73521 9.4711 0.3,
-2.12098 10.8189 0.3,
-1.89603 10.7143 0.3,
-1.89603 10.7836 0.3,
-4.12193 10.7143 0.6,
-4.12193 10.7836 0.6,
-3.89698 10.8189 0.6,
-3.52426 10.7143 0.6,
-3.75967 10.8189 0.6,
-3.52426 10.7836 0.6,
-3.11753 10.7143 0.6,
-3.07176 10.7143 0.6,
-3.02075 11.1341 0.6,
-2.05072 8.84071 0.6,
-2.08378 9.04732 0.6,
-2.05199 9.26811 0.6,
-1.95154 8.68586 0.6,
-1.90949 8.86169 0.6,
-1.79315 8.58914 0.6,
-1.73203 8.64081 0.6,
-1.84219 8.72473 0.6,
-1.93192 9.04878 0.6,
-1.91049 9.24895 0.6,
-2.60748 10.7143 0.6,
-2.60748 10.7836 0.6,
-2.37208 10.8189 0.6,
-1.95663 9.42768 0.6,
-1.84619 9.38881 0.6,
-1.79878 9.52441 0.6,
-1.73521 9.4711 0.6,
-2.12098 10.8189 0.6,
-1.89603 10.7143 0.6,
-1.89603 10.7836 0.6,
-4.12193 12.3988 0.3,
-4.12193 12.4681 0.3,
-3.89698 12.3647 0.3,
-3.75967 12.2222 0.3,
-3.59095 12.4681 0.3,
-2.37208 12.2222 0.3,
-2.39823 12.4681 0.3,
-2.12098 12.3647 0.3,
-1.89603 12.3988 0.3,
-1.89603 12.4681 0.3,
-4.12193 12.3988 0.6,
-4.12193 12.4681 0.6,
-3.89698 12.3647 0.6,
-3.75967 12.2222 0.6,
-3.59095 12.4681 0.6,
-2.37208 12.2222 0.6,
-2.39823 12.4681 0.6,
-2.12098 12.3647 0.6,
-1.89603 12.3988 0.6,
-1.89603 12.4681 0.6,
-1.58245 8.5569 0.3,
-1.58099 8.61284 0.3,
-1.50053 8.61783 0.3,
-1.40462 8.56834 0.3,
-1.42479 8.63282 0.3,
-1.35903 8.65616 0.3,
-1.30854 8.68622 0.3,
-1.28165 8.83154 0.3,
-1.23879 8.60267 0.3,
-1.09994 8.57143 0.3,
-1.09994 8.60994 0.3,
-1.23443 8.83154 0.3,
-1.29691 9.30671 0.3,
-1.24895 9.30671 0.3,
-0.984418 8.62955 0.3,
-0.844189 8.62955 0.3,
-0.844189 8.9536 0.3,
-0.844189 9.019 0.3,
-0.689432 8.57143 0.3,
-0.689432 8.60994 0.3,
-0.768632 9.019 0.3,
-0.734486 8.9536 0.3,
-0.661921 9.03298 0.3,
-0.584901 8.97303 0.3,
-0.587357 9.07494 0.3,
-0.54349 9.1485 0.3,
-0.528868 9.2573 0.3,
-0.542855 9.36011 0.3,
-1.57373 9.49853 0.3,
-1.57954 9.55665 0.3,
-1.50461 9.49426 0.3,
-1.43677 9.48145 0.3,
-1.42206 9.54738 0.3,
-1.37365 9.46083 0.3,
-1.3187 9.43314 0.3,
-1.25331 9.51959 0.3,
-1.10939 9.50725 0.3,
-1.10939 9.54575 0.3,
-0.984418 9.48835 0.3,
-0.844189 9.48035 0.3,
-0.772993 9.48035 0.3,
-0.74175 9.54575 0.3,
-0.659831 9.46746 0.3,
-0.584818 9.42876 0.3,
-1.05359 10.7143 0.3,
-1.05359 10.7836 0.3,
-0.845652 10.8189 0.3,
-0.59324 10.8189 0.3,
-0.281786 8.57143 0.3,
-0.281786 8.60994 0.3,
-0.474739 9.03134 0.3,
-0.406894 9.12707 0.3,
-0.384279 9.25876 0.3,
-0.156814 8.62955 0.3,
-0.0805286 8.62955 0.3,
0 8.57143 0.3,
0 8.61747 0.3,
0 9.33023 0.3,
0 8.57143 0.4,
0 8.61747 0.4,
0.05025 8.57143 0.4,
0.05025 8.60994 0.4,
0 9.33023 0.4,
0.520339 8.57143 0.4,
0.514521 8.82428 0.4,
0.590818 8.57143 0.4,
-0.473646 9.47401 0.3,
-0.281786 9.50725 0.3,
-0.281786 9.54575 0.3,
-0.156814 9.48835 0.3,
-0.0805286 9.44766 0.3,
0 9.54575 0.3,
-0.314677 10.7143 0.3,
-0.314677 10.7836 0.3,
0 9.54575 0.4,
0.0132 9.54575 0.4,
0.383743 9.50725 0.4,
0.383743 9.54575 0.4,
0.514521 9.48835 0.4,
0.545425 9.54575 0.4,
0.590818 9.48835 0.4,
0.4387 10.7143 0.4,
0.4387 10.7836 0.4,
0.663648 10.8189 0.4,
-1.58245 8.5569 0.6,
-1.58099 8.61284 0.6,
-1.50053 8.61783 0.6,
-1.40462 8.56834 0.6,
-1.42479 8.63282 0.6,
-1.35903 8.65616 0.6,
-1.30854 8.68622 0.6,
-1.28165 8.83154 0.6,
-1.23879 8.60267 0.6,
-1.09994 8.57143 0.6,
-1.09994 8.60994 0.6,
-1.23443 8.83154 0.6,
-1.29691 9.30671 0.6,
-1.24895 9.30671 0.6,
-0.984418 8.62955 0.6,
-0.844189 8.62955 0.6,
-0.844189 8.9536 0.6,
-0.844189 9.019 0.6,
-0.689432 8.57143 0.6,
-0.689432 8.60994 0.6,
-0.768632 9.019 0.6,
-0.734486 8.9536 0.6,
-0.661921 9.03298 0.6,
-0.584901 8.97303 0.6,
-0.587357 9.07494 0.6,
-0.54349 9.1485 0.6,
-0.528868 9.2573 0.6,
-0.542855 9.36011 0.6,
-1.57373 9.49853 0.6,
-1.57954 9.55665 0.6,
-1.50461 9.49426 0.6,
-1.43677 9.48145 0.6,
-1.42206 9.54738 0.6,
-1.37365 9.46083 0.6,
-1.3187 9.43314 0.6,
-1.25331 9.51959 0.6,
-1.10939 9.50725 0.6,
-1.10939 9.54575 0.6,
-0.984418 9.48835 0.6,
-0.844189 9.48035 0.6,
-0.772993 9.48035 0.6,
-0.74175 9.54575 0.6,
-0.659831 9.46746 0.6,
-0.584818 9.42876 0.6,
-1.05359 10.7143 0.6,
-1.05359 10.7836 0.6,
-0.845652 10.8189 0.6,
-0.59324 10.8189 0.6,
-0.281786 8.57143 0.6,
-0.281786 8.60994 0.6,
-0.474739 9.03134 0.6,
-0.406894 9.12707 0.6,
-0.384279 9.25876 0.6,
-0.156814 8.62955 0.6,
-0.0805286 8.62955 0.6,
0.05025 8.57143 0.6,
0.05025 8.60994 0.6,
0.520339 8.57143 0.6,
0.514521 8.82428 0.6,
0.590818 8.57143 0.6,
-0.473646 9.47401 0.6,
-0.281786 9.50725 0.6,
-0.281786 9.54575 0.6,
-0.156814 9.48835 0.6,
-0.0805286 9.44766 0.6,
0.0132 9.54575 0.6,
-0.314677 10.7143 0.6,
-0.314677 10.7836 0.6,
0.383743 9.50725 0.6,
0.383743 9.54575 0.6,
0.514521 9.48835 0.6,
0.590818 9.48835 0.6,
0.4387 10.7143 0.6,
0.4387 10.7836 0.6,
0.663648 10.8189 0.6,
-0.59324 11.4022 0.3,
-0.59324 11.5199 0.3,
-1.0706 12.3988 0.3,
-1.0706 12.4681 0.3,
-0.845652 12.3647 0.3,
-0.59324 12.3504 0.3,
-0.395774 11.4022 0.3,
-0.457237 11.5199 0.3,
-0.265157 11.5451 0.3,
-0.126521 11.4372 0.3,
-0.130943 11.6206 0.3,
0 11.5041 0.3,
-0.051982 11.753 0.3,
-0.0508393 12.1339 0.3,
-0.0256618 11.9489 0.3,
-0.465087 12.3504 0.3,
-0.40885 12.4681 0.3,
-0.261396 12.3271 0.3,
-0.126372 12.2575 0.3,
0 12.3587 0.3,
0 11.5041 0.4,
0.0717696 11.5421 0.4,
0 12.3587 0.4,
0.0737368 12.3389 0.4,
0.193892 11.7144 0.4,
0.234599 11.9515 0.4,
0.37389 12.8602 0.4,
0.362613 12.8773 0.4,
0.390839 12.8484 0.4,
0.4116 12.8445 0.4,
0.358854 12.8973 0.4,
0.362667 12.9177 0.4,
0.374109 12.9347 0.4,
0.391112 12.9462 0.4,
0.4116 12.95 0.4,
0.4387 12.3988 0.4,
0.4387 12.4681 0.4,
0.663648 12.3647 0.4,
0.432359 12.8484 0.4,
0.449304 12.8602 0.4,
0.460586 12.8773 0.4,
0.432086 12.9462 0.4,
0.449085 12.9347 0.4,
0.464346 12.8973 0.4,
0.460531 12.9177 0.4,
0 15 0.4,
-0.59324 11.4022 0.6,
-0.59324 11.5199 0.6,
-1.0706 12.3988 0.6,
-1.0706 12.4681 0.6,
-0.845652 12.3647 0.6,
-0.59324 12.3504 0.6,
-0.395774 11.4022 0.6,
-0.457237 11.5199 0.6,
-0.265157 11.5451 0.6,
-0.126521 11.4372 0.6,
-0.130943 11.6206 0.6,
0.0717696 11.5421 0.6,
-0.051982 11.753 0.6,
-0.0508393 12.1339 0.6,
-0.0256618 11.9489 0.6,
-0.465087 12.3504 0.6,
-0.40885 12.4681 0.6,
-0.261396 12.3271 0.6,
-0.126372 12.2575 0.6,
0.0737368 12.3389 0.6,
0.193892 11.7144 0.6,
0.234599 11.9515 0.6,
0.37389 12.8602 0.6,
0.362613 12.8773 0.6,
0.390839 12.8484 0.6,
0.4116 12.8445 0.6,
0.358854 12.8973 0.6,
0.362667 12.9177 0.6,
0.374109 12.9347 0.6,
0.391112 12.9462 0.6,
0.4116 12.95 0.6,
0.4387 12.3988 0.6,
0.4387 12.4681 0.6,
0.663648 12.3647 0.6,
0.432359 12.8484 0.6,
0.449304 12.8602 0.6,
0.460586 12.8773 0.6,
0.432086 12.9462 0.6,
0.449085 12.9347 0.6,
0.464346 12.8973 0.6,
0.460531 12.9177 0.6,
1.5 0 0,
1.5 0 0.4,
1.66008 2.14286 0.3,
1.66008 2.18136 0.3,
1.78505 2.20098 0.3,
1.86133 2.20098 0.3,
1.5 2.97357 0.3,
1.5 3.11718 0.3,
1.5292 3.05978 0.3,
1.61421 3.07868 0.3,
1.61421 3.11718 0.3,
1.66008 3.07868 0.3,
1.66008 3.11718 0.3,
1.86133 3.01909 0.3,
1.78505 3.05978 0.3,
0.919623 2.79168 0.4,
1.17246 2.12034 0.4,
1.21097 2.12034 0.4,
1.22259 2.37318 0.4,
0.937055 3.04888 0.4,
0.969755 3.04888 0.4,
1.29162 3.07868 0.4,
1.29162 3.11718 0.4,
1.44347 3.05978 0.4,
1.5 2.97357 0.4,
1.5 3.11718 0.4,
1.99211 2.14286 0.3,
1.99211 2.18136 0.3,
2.4622 2.14286 0.3,
2.45638 2.3957 0.3,
1.95506 3.11718 0.3,
2.32561 3.07868 0.3,
2.32561 3.11718 0.3,
2.45638 3.05978 0.3,
2.53268 2.14286 0.3,
2.73473 2.14286 0.3,
2.73473 2.18136 0.3,
2.8597 2.20098 0.3,
2.93599 2.20098 0.3,
3.06677 2.14286 0.3,
3.06677 2.18136 0.3,
2.53268 3.05978 0.3,
2.65765 3.07868 0.3,
2.65765 3.11718 0.3,
2.73473 3.07868 0.3,
2.73473 3.11718 0.3,
2.93599 3.01909 0.3,
2.8597 3.05978 0.3,
3.02972 3.11718 0.3,
0.919623 2.79168 0.6,
1.17246 2.12034 0.6,
1.21097 2.12034 0.6,
1.22259 2.37318 0.6,
0.937055 3.04888 0.6,
0.969755 3.04888 0.6,
1.29162 3.07868 0.6,
1.29162 3.11718 0.6,
1.66008 2.14286 0.6,
1.66008 2.18136 0.6,
1.78505 2.20098 0.6,
1.86133 2.20098 0.6,
1.44347 3.05978 0.6,
1.5292 3.05978 0.6,
1.61421 3.07868 0.6,
1.61421 3.11718 0.6,
1.66008 3.07868 0.6,
1.66008 3.11718 0.6,
1.86133 3.01909 0.6,
1.78505 3.05978 0.6,
1.99211 2.14286 0.6,
1.99211 2.18136 0.6,
2.4622 2.14286 0.6,
2.45638 2.3957 0.6,
1.95506 3.11718 0.6,
2.32561 3.07868 0.6,
2.32561 3.11718 0.6,
2.45638 3.05978 0.6,
2.53268 2.14286 0.6,
2.73473 2.14286 0.6,
2.73473 2.18136 0.6,
2.8597 2.20098 0.6,
2.93599 2.20098 0.6,
3.06677 2.14286 0.6,
3.06677 2.18136 0.6,
2.53268 3.05978 0.6,
2.65765 3.07868 0.6,
2.65765 3.11718 0.6,
2.73473 3.07868 0.6,
2.73473 3.11718 0.6,
2.93599 3.01909 0.6,
2.8597 3.05978 0.6,
3.02972 3.11718 0.6,
1.72289 4.28571 0.3,
1.74831 4.28571 0.3,
1.77665 4.51894 0.3,
1.5 4.80912 0.3,
1.5 5.16617 0.3,
0.886554 4.28571 0.4,
1.01443 4.34384 0.4,
1.11977 4.28571 0.4,
1.11977 4.32422 0.4,
1.16489 4.28571 0.4,
1.16489 4.32422 0.4,
1.28986 4.34384 0.4,
0.750686 4.73328 0.4,
0.751039 4.82664 0.4,
0.834241 4.77169 0.4,
0.792182 4.89158 0.4,
0.751768 5.14777 0.4,
0.805896 4.98975 0.4,
0.792364 5.08484 0.4,
0.89745 4.83173 0.4,
0.937227 4.9092 0.4,
0.928687 5.11781 0.4,
0.950486 4.99993 0.4,
0.752132 5.2446 0.4,
0.863293 5.19827 0.4,
1.16489 5.22153 0.4,
1.16489 5.26004 0.4,
1.28986 5.20263 0.4,
1.36615 4.34384 0.4,
1.49692 4.28571 0.4,
1.49692 4.32422 0.4,
1.36615 5.12344 0.4,
1.5 4.80912 0.4,
1.45988 5.26004 0.4,
1.5 5.16617 0.4,
1.5 6.42752 0.3,
1.5 6.50061 0.3,
1.53577 6.51331 0.3,
1.58627 6.54336 0.3,
1.65602 6.45981 0.3,
1.79487 6.42857 0.3,
1.79487 6.46708 0.3,
1.91039 6.4867 0.3,
1.61315 6.68868 0.3,
1.5979 7.16385 0.3,
1.5 7.32489 0.3,
1.52116 7.31798 0.3,
1.5 7.40004 0.3,
1.5761 7.29028 0.3,
1.66038 6.68868 0.3,
1.64585 7.16385 0.3,
1.64149 7.37673 0.3,
1.78542 7.36439 0.3,
1.78542 7.4029 0.3,
1.91039 7.34549 0.3,
0.943264 6.543 0.4,
1.10166 6.44628 0.4,
1.16278 6.49795 0.4,
1.31236 6.41404 0.4,
1.31382 6.46998 0.4,
0.844087 6.69785 0.4,
0.811029 6.90447 0.4,
0.985315 6.71883 0.4,
0.962882 6.90593 0.4,
0.842815 7.12525 0.4,
0.715789 7.36439 0.4,
0.715789 7.4029 0.4,
0.984316 7.10609 0.4,
0.938175 7.28483 0.4,
1.05261 6.58187 0.4,
1.04862 7.24595 0.4,
1.09603 7.38155 0.4,
1.1596 7.32824 0.4,
1.31526 7.41379 0.4,
1.39428 6.47498 0.4,
1.47002 6.48996 0.4,
1.49018 6.42549 0.4,
1.5 6.42752 0.4,
1.5 6.50061 0.4,
1.32108 7.35567 0.4,
1.39019 7.3514 0.4,
1.45803 7.33859 0.4,
1.5 7.32489 0.4,
1.47275 7.40453 0.4,
1.5 7.40004 0.4,
2.00625 4.28571 0.3,
2.00625 4.32422 0.3,
2.13703 4.34384 0.3,
2.27653 4.34384 0.3,
2.4015 4.28571 0.3,
2.4015 4.32422 0.3,
2.13703 5.12344 0.3,
2.1225 5.26004 0.3,
2.27653 5.20263 0.3,
2.4015 5.22153 0.3,
2.4015 5.26004 0.3,
2.05062 6.4867 0.3,
2.20538 6.42857 0.3,
2.20538 6.46708 0.3,
2.05062 6.81074 0.3,
2.05062 6.87614 0.3,
2.12618 6.87614 0.3,
2.16032 6.81074 0.3,
2.05062 7.3375 0.3,
2.12181 7.3375 0.3,
2.15306 7.4029 0.3,
2.23289 6.89012 0.3,
2.30991 6.83018 0.3,
2.30745 6.93208 0.3,
2.35132 7.00565 0.3,
2.42007 6.88848 0.3,
2.48791 6.98421 0.3,
2.36594 7.11445 0.3,
2.35195 7.21725 0.3,
2.23498 7.3246 0.3,
2.30999 7.28591 0.3,
2.51053 7.1159 0.3,
2.42116 7.33115 0.3,
2.61302 6.42857 0.3,
2.61302 6.46708 0.3,
2.73799 6.4867 0.3,
2.81428 6.4867 0.3,
2.94506 6.42857 0.3,
2.94506 6.46708 0.3,
2.61302 7.36439 0.3,
2.61302 7.4029 0.3,
2.73799 7.34549 0.3,
2.81428 7.30481 0.3,
2.90801 7.4029 0.3,
0.886554 4.28571 0.6,
1.01443 4.34384 0.6,
1.11977 4.28571 0.6,
1.11977 4.32422 0.6,
1.16489 4.28571 0.6,
1.16489 4.32422 0.6,
1.28986 4.34384 0.6,
0.750686 4.73328 0.6,
0.751039 4.82664 0.6,
0.834241 4.77169 0.6,
0.792182 4.89158 0.6,
0.751768 5.14777 0.6,
0.805896 4.98975 0.6,
0.792364 5.08484 0.6,
0.89745 4.83173 0.6,
0.937227 4.9092 0.6,
0.928687 5.11781 0.6,
0.950486 4.99993 0.6,
0.752132 5.2446 0.6,
0.863293 5.19827 0.6,
1.16489 5.22153 0.6,
1.16489 5.26004 0.6,
1.28986 5.20263 0.6,
1.36615 4.34384 0.6,
1.49692 4.28571 0.6,
1.49692 4.32422 0.6,
1.72289 4.28571 0.6,
1.74831 4.28571 0.6,
1.77665 4.51894 0.6,
1.36615 5.12344 0.6,
1.45988 5.26004 0.6,
0.943264 6.543 0.6,
1.10166 6.44628 0.6,
1.16278 6.49795 0.6,
1.31236 6.41404 0.6,
1.31382 6.46998 0.6,
0.844087 6.69785 0.6,
0.811029 6.90447 0.6,
0.985315 6.71883 0.6,
0.962882 6.90593 0.6,
0.842815 7.12525 0.6,
0.715789 7.36439 0.6,
0.715789 7.4029 0.6,
0.984316 7.10609 0.6,
0.938175 7.28483 0.6,
1.05261 6.58187 0.6,
1.04862 7.24595 0.6,
1.09603 7.38155 0.6,
1.1596 7.32824 0.6,
1.31526 7.41379 0.6,
1.39428 6.47498 0.6,
1.47002 6.48996 0.6,
1.49018 6.42549 0.6,
1.53577 6.51331 0.6,
1.58627 6.54336 0.6,
1.65602 6.45981 0.6,
1.79487 6.42857 0.6,
1.79487 6.46708 0.6,
1.91039 6.4867 0.6,
1.61315 6.68868 0.6,
1.32108 7.35567 0.6,
1.39019 7.3514 0.6,
1.45803 7.33859 0.6,
1.5979 7.16385 0.6,
1.52116 7.31798 0.6,
1.47275 7.40453 0.6,
1.5761 7.29028 0.6,
1.66038 6.68868 0.6,
1.64585 7.16385 0.6,
1.64149 7.37673 0.6,
1.78542 7.36439 0.6,
1.78542 7.4029 0.6,
1.91039 7.34549 0.6,
2.00625 4.28571 0.6,
2.00625 4.32422 0.6,
2.13703 4.34384 0.6,
2.27653 4.34384 0.6,
2.4015 4.28571 0.6,
2.4015 4.32422 0.6,
2.13703 5.12344 0.6,
2.1225 5.26004 0.6,
2.27653 5.20263 0.6,
2.4015 5.22153 0.6,
2.4015 5.26004 0.6,
2.05062 6.4867 0.6,
2.20538 6.42857 0.6,
2.20538 6.46708 0.6,
2.05062 6.81074 0.6,
2.05062 6.87614 0.6,
2.12618 6.87614 0.6,
2.16032 6.81074 0.6,
2.05062 7.3375 0.6,
2.12181 7.3375 0.6,
2.15306 7.4029 0.6,
2.23289 6.89012 0.6,
2.30991 6.83018 0.6,
2.30745 6.93208 0.6,
2.35132 7.00565 0.6,
2.42007 6.88848 0.6,
2.48791 6.98421 0.6,
2.36594 7.11445 0.6,
2.35195 7.21725 0.6,
2.23498 7.3246 0.6,
2.30999 7.28591 0.6,
2.51053 7.1159 0.6,
2.42116 7.33115 0.6,
2.61302 6.42857 0.6,
2.61302 6.46708 0.6,
2.73799 6.4867 0.6,
2.81428 6.4867 0.6,
2.94506 6.42857 0.6,
2.94506 6.46708 0.6,
2.61302 7.36439 0.6,
2.61302 7.4029 0.6,
2.73799 7.34549 0.6,
2.81428 7.30481 0.6,
2.90801 7.4029 0.6,
3.53686 2.14286 0.3,
3.60733 2.14286 0.3,
3.53104 2.3957 0.3,
3.40026 3.07868 0.3,
3.40026 3.11718 0.3,
3.53104 3.05978 0.3,
3.60733 3.05978 0.3,
3.73231 3.07868 0.3,
3.73231 3.11718 0.3,
3.80938 2.14286 0.3,
3.80938 2.18136 0.3,
3.93436 2.20098 0.3,
4.01064 2.20098 0.3,
4.14142 2.14286 0.3,
4.14142 2.18136 0.3,
3.80938 3.07868 0.3,
3.80938 3.11718 0.3,
4.01064 3.01909 0.3,
3.93436 3.05978 0.3,
4.10437 3.11718 0.3,
4.61151 2.14286 0.3,
4.60569 2.3957 0.3,
4.68199 2.14286 0.3,
4.47491 3.07868 0.3,
4.47491 3.11718 0.3,
4.60569 3.05978 0.3,
4.68199 3.05978 0.3,
4.80696 3.07868 0.3,
4.80696 3.11718 0.3,
3.53686 2.14286 0.6,
3.60733 2.14286 0.6,
3.53104 2.3957 0.6,
3.40026 3.07868 0.6,
3.40026 3.11718 0.6,
3.53104 3.05978 0.6,
3.60733 3.05978 0.6,
3.73231 3.07868 0.6,
3.73231 3.11718 0.6,
3.80938 2.14286 0.6,
3.80938 2.18136 0.6,
3.93436 2.20098 0.6,
4.01064 2.20098 0.6,
4.14142 2.14286 0.6,
4.14142 2.18136 0.6,
3.80938 3.07868 0.6,
3.80938 3.11718 0.6,
4.01064 3.01909 0.6,
3.93436 3.05978 0.6,
4.10437 3.11718 0.6,
4.61151 2.14286 0.6,
4.60569 2.3957 0.6,
4.68199 2.14286 0.6,
4.47491 3.07868 0.6,
4.47491 3.11718 0.6,
4.60569 3.05978 0.6,
4.68199 3.05978 0.6,
4.80696 3.07868 0.6,
4.80696 3.11718 0.6,
3.41515 6.42857 0.3,
3.48562 6.42857 0.3,
3.40933 6.68142 0.3,
3.27855 7.36439 0.3,
3.27855 7.4029 0.3,
3.40933 7.34549 0.3,
3.48562 7.34549 0.3,
3.6106 7.36439 0.3,
3.6106 7.4029 0.3,
3.41515 6.42857 0.6,
3.48562 6.42857 0.6,
3.40933 6.68142 0.6,
3.27855 7.36439 0.6,
3.27855 7.4029 0.6,
3.40933 7.34549 0.6,
3.48562 7.34549 0.6,
3.6106 7.36439 0.6,
3.6106 7.4029 0.6,
1.5 15 0,
1.5 8.57037 0.3,
1.5 8.64346 0.3,
1.53577 8.65616 0.3,
1.58627 8.68622 0.3,
1.61315 8.83154 0.3,
1.5979 9.30671 0.3,
1.65602 8.60267 0.3,
1.66038 8.83154 0.3,
1.79487 8.57143 0.3,
1.79487 8.60994 0.3,
1.91039 8.62955 0.3,
1.64585 9.30671 0.3,
0.844087 8.84071 0.4,
0.943264 8.68586 0.4,
0.985315 8.86169 0.4,
0.811029 9.04732 0.4,
0.842815 9.26811 0.4,
0.962882 9.04878 0.4,
0.984316 9.24895 0.4,
1.10166 8.58914 0.4,
1.16278 8.64081 0.4,
1.05261 8.72473 0.4,
1.31236 8.5569 0.4,
1.31382 8.61284 0.4,
1.39428 8.61783 0.4,
1.47002 8.63282 0.4,
1.49018 8.56834 0.4,
1.5 8.57037 0.4,
1.5 8.64346 0.4,
1.5 9.46774 0.3,
1.52116 9.46083 0.3,
1.5 9.5429 0.3,
1.5761 9.43314 0.3,
1.64149 9.51959 0.3,
1.78542 9.50725 0.3,
1.78542 9.54575 0.3,
1.91039 9.48835 0.3,
1.58178 10.9203 0.3,
1.5 11.048 0.3,
1.86689 10.7462 0.3,
1.65747 11.2368 0.3,
1.77861 10.9902 0.3,
0.715789 9.50725 0.4,
0.715789 9.54575 0.4,
0.938175 9.42768 0.4,
1.04862 9.38881 0.4,
1.1596 9.4711 0.4,
1.09603 9.52441 0.4,
1.31526 9.55665 0.4,
0.914748 10.8189 0.4,
1.1397 10.7143 0.4,
1.1397 10.7836 0.4,
1.32108 9.49853 0.4,
1.39019 9.49426 0.4,
1.45803 9.48145 0.4,
1.5 9.46774 0.4,
1.47275 9.54738 0.4,
1.5 9.5429 0.4,
1.40326 11.199 0.4,
1.5 11.048 0.4,
2.05062 8.62955 0.3,
2.20538 8.57143 0.3,
2.20538 8.60994 0.3,
2.05062 8.9536 0.3,
2.05062 9.019 0.3,
2.12618 9.019 0.3,
2.16032 8.9536 0.3,
2.23289 9.03298 0.3,
2.30991 8.97303 0.3,
2.30745 9.07494 0.3,
2.35132 9.1485 0.3,
2.36594 9.2573 0.3,
2.35195 9.36011 0.3,
2.42007 9.03134 0.3,
2.48791 9.12707 0.3,
2.51053 9.25876 0.3,
2.61302 8.57143 0.3,
2.61302 8.60994 0.3,
2.73799 8.62955 0.3,
2.81428 8.62955 0.3,
2.94506 8.57143 0.3,
2.94506 8.60994 0.3,
2.05062 9.48035 0.3,
2.12181 9.48035 0.3,
2.15306 9.54575 0.3,
2.23498 9.46746 0.3,
2.30999 9.42876 0.3,
2.42116 9.47401 0.3,
1.97691 10.8392 0.3,
2.24616 10.6881 0.3,
2.24878 10.7888 0.3,
2.39361 10.7978 0.3,
2.61302 9.50725 0.3,
2.61302 9.54575 0.3,
2.73799 9.48835 0.3,
2.81428 9.44766 0.3,
2.90801 9.54575 0.3,
2.56624 10.7087 0.3,
2.52995 10.8248 0.3,
2.6483 10.8668 0.3,
2.7392 10.9209 0.3,
2.78758 11.1825 0.3,
2.86475 10.7705 0.3,
2.8726 11.1825 0.3,
0.844087 8.84071 0.6,
0.943264 8.68586 0.6,
0.985315 8.86169 0.6,
0.811029 9.04732 0.6,
0.842815 9.26811 0.6,
0.962882 9.04878 0.6,
0.984316 9.24895 0.6,
1.10166 8.58914 0.6,
1.16278 8.64081 0.6,
1.05261 8.72473 0.6,
1.31236 8.5569 0.6,
1.31382 8.61284 0.6,
1.39428 8.61783 0.6,
1.47002 8.63282 0.6,
1.49018 8.56834 0.6,
1.53577 8.65616 0.6,
1.58627 8.68622 0.6,
1.61315 8.83154 0.6,
1.5979 9.30671 0.6,
1.65602 8.60267 0.6,
1.66038 8.83154 0.6,
1.79487 8.57143 0.6,
1.79487 8.60994 0.6,
1.91039 8.62955 0.6,
1.64585 9.30671 0.6,
0.715789 9.50725 0.6,
0.715789 9.54575 0.6,
0.938175 9.42768 0.6,
1.04862 9.38881 0.6,
1.1596 9.4711 0.6,
1.09603 9.52441 0.6,
1.31526 9.55665 0.6,
0.914748 10.8189 0.6,
1.1397 10.7143 0.6,
1.1397 10.7836 0.6,
1.32108 9.49853 0.6,
1.39019 9.49426 0.6,
1.45803 9.48145 0.6,
1.52116 9.46083 0.6,
1.47275 9.54738 0.6,
1.5761 9.43314 0.6,
1.64149 9.51959 0.6,
1.78542 9.50725 0.6,
1.78542 9.54575 0.6,
1.91039 9.48835 0.6,
1.40326 11.199 0.6,
1.58178 10.9203 0.6,
1.86689 10.7462 0.6,
1.65747 11.2368 0.6,
1.77861 10.9902 0.6,
2.05062 8.62955 0.6,
2.20538 8.57143 0.6,
2.20538 8.60994 0.6,
2.05062 8.9536 0.6,
2.05062 9.019 0.6,
2.12618 9.019 0.6,
2.16032 8.9536 0.6,
2.23289 9.03298 0.6,
2.30991 8.97303 0.6,
2.30745 9.07494 0.6,
2.35132 9.1485 0.6,
2.36594 9.2573 0.6,
2.35195 9.36011 0.6,
2.42007 9.03134 0.6,
2.48791 9.12707 0.6,
2.51053 9.25876 0.6,
2.61302 8.57143 0.6,
2.61302 8.60994 0.6,
2.73799 8.62955 0.6,
2.81428 8.62955 0.6,
2.94506 8.57143 0.6,
2.94506 8.60994 0.6,
2.05062 9.48035 0.6,
2.12181 9.48035 0.6,
2.15306 9.54575 0.6,
2.23498 9.46746 0.6,
2.30999 9.42876 0.6,
2.42116 9.47401 0.6,
1.97691 10.8392 0.6,
2.24616 10.6881 0.6,
2.24878 10.7888 0.6,
2.39361 10.7978 0.6,
2.61302 9.50725 0.6,
2.61302 9.54575 0.6,
2.73799 9.48835 0.6,
2.81428 9.44766 0.6,
2.90801 9.54575 0.6,
2.56624 10.7087 0.6,
2.52995 10.8248 0.6,
2.6483 10.8668 0.6,
2.7392 10.9209 0.6,
2.78758 11.1825 0.6,
2.86475 10.7705 0.6,
2.8726 11.1825 0.6,
1.6171 11.5735 0.3,
1.5 12.134 0.3,
1.65568 11.9338 0.3,
1.77142 12.1856 0.3,
1.57262 12.2555 0.3,
1.85675 12.4296 0.3,
0.914748 12.3647 0.4,
1.1397 12.3988 0.4,
1.1397 12.4681 0.4,
1.34376 11.5709 0.4,
1.40097 11.9683 0.4,
1.5 12.134 0.4,
1.5 15 0.4,
1.97119 12.3337 0.3,
2.26186 12.3831 0.3,
2.25138 12.4877 0.3,
2.38626 12.3754 0.3,
2.50837 12.3523 0.3,
2.76012 12.0378 0.3,
2.84644 12.0378 0.3,
2.62199 12.3152 0.3,
2.53485 12.471 0.3,
2.72089 12.2654 0.3,
2.83859 12.421 0.3,
0.914748 12.3647 0.6,
1.1397 12.3988 0.6,
1.1397 12.4681 0.6,
1.34376 11.5709 0.6,
1.6171 11.5735 0.6,
1.40097 11.9683 0.6,
1.65568 11.9338 0.6,
1.77142 12.1856 0.6,
1.57262 12.2555 0.6,
1.85675 12.4296 0.6,
1.97119 12.3337 0.6,
2.26186 12.3831 0.6,
2.25138 12.4877 0.6,
2.38626 12.3754 0.6,
2.50837 12.3523 0.6,
2.76012 12.0378 0.6,
2.84644 12.0378 0.6,
2.62199 12.3152 0.6,
2.53485 12.471 0.6,
2.72089 12.2654 0.6,
2.83859 12.421 0.6,
3.41515 8.57143 0.3,
3.40933 8.82428 0.3,
3.48562 8.57143 0.3,
3.27855 9.50725 0.3,
3.27855 9.54575 0.3,
3.40933 9.48835 0.3,
3.48562 9.48835 0.3,
3.6106 9.50725 0.3,
3.6106 9.54575 0.3,
3.16306 10.7444 0.3,
3.39192 10.7022 0.3,
3.14867 11.1132 0.3,
3.23497 11.1132 0.3,
3.29383 10.8673 0.3,
3.35547 10.8405 0.3,
3.63386 10.6881 0.3,
3.43834 10.8176 0.3,
3.52875 10.8019 0.3,
3.61294 10.7967 0.3,
3.89706 10.7215 0.3,
3.79146 10.8202 0.3,
3.91636 10.8908 0.3,
3.98992 11.0164 0.3,
4.01444 11.2047 0.3,
4.0929 10.8215 0.3,
4.21453 10.9808 0.3,
4.25507 11.1916 0.3,
4.47749 10.7143 0.3,
4.47749 10.9065 0.3,
4.64883 10.9157 0.3,
4.72075 11.1276 0.3,
4.77601 11.0298 0.3,
4.89599 11.1341 0.3,
5.55121 10.7143 0.3,
5.55121 10.9157 0.3,
3.41515 8.57143 0.6,
3.40933 8.82428 0.6,
3.48562 8.57143 0.6,
3.27855 9.50725 0.6,
3.27855 9.54575 0.6,
3.40933 9.48835 0.6,
3.48562 9.48835 0.6,
3.6106 9.50725 0.6,
3.6106 9.54575 0.6,
3.16306 10.7444 0.6,
3.39192 10.7022 0.6,
3.14867 11.1132 0.6,
3.23497 11.1132 0.6,
3.29383 10.8673 0.6,
3.35547 10.8405 0.6,
3.63386 10.6881 0.6,
3.43834 10.8176 0.6,
3.52875 10.8019 0.6,
3.61294 10.7967 0.6,
3.89706 10.7215 0.6,
3.79146 10.8202 0.6,
3.91636 10.8908 0.6,
3.98992 11.0164 0.6,
4.01444 11.2047 0.6,
4.0929 10.8215 0.6,
4.21453 10.9808 0.6,
4.25507 11.1916 0.6,
4.47749 10.7143 0.6,
4.47749 10.9065 0.6,
4.64883 10.9157 0.6,
4.72075 11.1276 0.6,
4.77601 11.0298 0.6,
4.89599 11.1341 0.6,
5.55121 10.7143 0.6,
5.55121 10.9157 0.6,
3.20228 12.094 0.3,
3.28861 12.094 0.3,
3.4573 11.5761 0.3,
3.4573 11.6834 0.3,
3.64433 11.5657 0.3,
3.64433 11.6951 0.3,
3.20228 12.4314 0.3,
3.33437 12.3085 0.3,
3.3965 12.3368 0.3,
3.32292 12.4597 0.3,
3.4259 12.4766 0.3,
3.46777 12.3589 0.3,
3.54199 12.3731 0.3,
3.51975 12.4849 0.3,
3.61294 12.3778 0.3,
3.61294 12.4877 0.3,
3.8091 11.5364 0.3,
3.7921 11.6324 0.3,
3.92419 11.4669 0.3,
3.99188 11.3566 0.3,
3.95443 11.679 0.3,
3.99874 11.5845 0.3,
3.77281 11.7219 0.3,
3.86272 11.7867 0.3,
3.91569 11.892 0.3,
3.93335 12.0404 0.3,
4.1426 11.4957 0.3,
4.22695 11.3651 0.3,
4.07523 11.7664 0.3,
4.15027 11.8928 0.3,
4.17529 12.0561 0.3,
3.75761 12.3577 0.3,
3.85684 12.2974 0.3,
3.91422 12.1929 0.3,
4.0347 12.3798 0.3,
4.53635 12.094 0.3,
4.62266 12.094 0.3,
4.92379 11.3133 0.3,
4.53635 12.4314 0.3,
4.66844 12.3085 0.3,
4.72893 12.3368 0.3,
4.75639 12.4736 0.3,
4.79791 12.3589 0.3,
4.87017 12.3731 0.3,
4.94047 12.3778 0.3,
4.94047 12.4877 0.3,
5.06471 11.4597 0.3,
5.12944 11.3399 0.3,
5.15903 11.5886 0.3,
5.22229 11.7213 0.3,
5.28572 11.4944 0.3,
5.38822 11.6235 0.3,
5.2581 11.8658 0.3,
5.27004 12.0299 0.3,
5.25075 12.1797 0.3,
5.46031 11.7533 0.3,
5.50298 11.8876 0.3,
5.51721 12.0299 0.3,
5.0912 12.3556 0.3,
5.19288 12.2889 0.3,
5.19239 12.4578 0.3,
5.3727 12.368 0.3,
5.48108 12.2237 0.3,
3.20228 12.094 0.6,
3.28861 12.094 0.6,
3.4573 11.5761 0.6,
3.4573 11.6834 0.6,
3.64433 11.5657 0.6,
3.64433 11.6951 0.6,
3.20228 12.4314 0.6,
3.33437 12.3085 0.6,
3.3965 12.3368 0.6,
3.32292 12.4597 0.6,
3.4259 12.4766 0.6,
3.46777 12.3589 0.6,
3.54199 12.3731 0.6,
3.51975 12.4849 0.6,
3.61294 12.3778 0.6,
3.61294 12.4877 0.6,
3.8091 11.5364 0.6,
3.7921 11.6324 0.6,
3.92419 11.4669 0.6,
3.99188 11.3566 0.6,
3.95443 11.679 0.6,
3.99874 11.5845 0.6,
3.77281 11.7219 0.6,
3.86272 11.7867 0.6,
3.91569 11.892 0.6,
3.93335 12.0404 0.6,
4.1426 11.4957 0.6,
4.22695 11.3651 0.6,
4.07523 11.7664 0.6,
4.15027 11.8928 0.6,
4.17529 12.0561 0.6,
3.75761 12.3577 0.6,
3.85684 12.2974 0.6,
3.91422 12.1929 0.6,
4.0347 12.3798 0.6,
4.53635 12.094 0.6,
4.62266 12.094 0.6,
4.92379 11.3133 0.6,
4.53635 12.4314 0.6,
4.66844 12.3085 0.6,
4.72893 12.3368 0.6,
4.75639 12.4736 0.6,
4.79791 12.3589 0.6,
4.87017 12.3731 0.6,
4.94047 12.3778 0.6,
4.94047 12.4877 0.6,
5.06471 11.4597 0.6,
5.12944 11.3399 0.6,
5.15903 11.5886 0.6,
5.22229 11.7213 0.6,
5.28572 11.4944 0.6,
5.38822 11.6235 0.6,
5.2581 11.8658 0.6,
5.27004 12.0299 0.6,
5.25075 12.1797 0.6,
5.46031 11.7533 0.6,
5.50298 11.8876 0.6,
5.51721 12.0299 0.6,
5.0912 12.3556 0.6,
5.19288 12.2889 0.6,
5.19239 12.4578 0.6,
5.3727 12.368 0.6,
5.48108 12.2237 0.6
] }

coordIndex [
0,111,116,-1
0,726,111,-1
0,116,121,-1
0,121,122,-1
0,122,123,-1
0,123,238,-1
0,238,240,-1
0,240,271,-1
0,271,272,-1
0,272,281,-1
0,281,282,-1
0,282,534,-1
0,534,535,-1
0,535,536,-1
0,536,550,-1
0,550,649,-1
111,124,116,-1
111,129,124,-1
111,130,129,-1
125,122,121,-1
127,238,123,-1
125,126,122,-1
125,128,126,-1
127,135,247,-1
124,129,137,-1
124,133,132,-1
124,137,133,-1
136,133,134,-1
133,136,135,-1
137,134,133,-1
135,136,249,-1
140,249,136,-1
131,139,138,-1
139,744,140,-1
127,245,238,-1
240,246,271,-1
127,247,245,-1
246,255,283,-1
135,249,247,-1
247,250,248,-1
250,247,249,-1
246,248,257,-1
257,248,250,-1
251,257,250,-1
249,140,253,-1
140,822,253,-1
252,254,258,-1
258,254,261,-1
253,822,254,-1
254,822,261,-1
246,257,255,-1
266,259,260,-1
264,263,259,-1
266,264,259,-1
260,262,835,-1
260,833,266,-1
260,835,833,-1
246,283,271,-1
284,281,272,-1
284,287,281,-1
283,256,285,-1
284,286,287,-1
283,255,256,-1
256,290,285,-1
285,290,286,-1
265,290,256,-1
840,291,265,-1
290,265,291,-1
287,286,290,-1
289,292,293,-1
289,294,295,-1
289,295,292,-1
291,882,296,-1
0,657,400,-1
0,400,1139,-1
0,649,657,-1
400,683,1139,-1
400,657,660,-1
400,660,683,-1
288,534,282,-1
288,537,534,-1
541,536,535,-1
538,541,535,-1
288,289,537,-1
537,289,539,-1
538,540,541,-1
289,293,544,-1
289,542,539,-1
289,544,542,-1
883,544,293,-1
539,542,540,-1
541,540,542,-1
543,555,554,-1
559,544,883,-1
543,557,555,-1
553,649,550,-1
553,658,649,-1
553,554,658,-1
556,554,555,-1
658,554,556,-1
658,556,558,-1
560,1183,1156,-1
558,1183,560,-1
558,659,658,-1
558,662,659,-1
558,663,662,-1
683,661,663,-1
683,663,558,-1
683,558,560,-1
683,560,561,-1
668,561,665,-1
562,675,561,-1
675,673,561,-1
561,673,665,-1
665,674,664,-1
664,674,666,-1
683,561,668,-1
674,665,673,-1
674,1346,676,-1
666,674,667,-1
667,674,676,-1
676,1346,677,-1
677,1346,678,-1
678,1346,681,-1
683,660,661,-1
683,668,669,-1
683,669,670,-1
683,670,671,-1
683,671,672,-1
683,672,679,-1
683,679,1350,-1
0,725,726,-1
725,749,726,-1
725,731,749,-1
0,1139,725,-1
725,1139,731,-1
1139,732,731,-1
111,726,130,-1
726,741,130,-1
726,742,741,-1
726,749,742,-1
750,732,849,-1
130,741,740,-1
131,744,139,-1
140,744,822,-1
745,822,744,-1
822,745,743,-1
822,743,746,-1
822,746,747,-1
750,826,747,-1
743,748,746,-1
849,732,820,-1
894,851,821,-1
823,831,829,-1
831,823,836,-1
822,747,824,-1
747,826,824,-1
824,827,825,-1
827,824,826,-1
823,825,844,-1
844,825,827,-1
828,844,827,-1
262,830,832,-1
262,832,834,-1
262,834,835,-1
823,837,836,-1
823,839,837,-1
291,840,841,-1
291,841,838,-1
823,842,877,-1
823,844,842,-1
750,846,826,-1
750,847,846,-1
750,849,847,-1
849,845,847,-1
849,848,845,-1
894,850,851,-1
894,821,852,-1
899,853,862,-1
895,853,899,-1
823,877,878,-1
291,838,882,-1
559,839,823,-1
559,838,839,-1
877,843,872,-1
843,877,842,-1
872,843,873,-1
850,875,843,-1
873,843,875,-1
882,838,883,-1
559,823,878,-1
559,883,838,-1
886,889,879,-1
879,889,880,-1
874,889,886,-1
876,889,874,-1
889,876,891,-1
880,889,884,-1
884,889,887,-1
889,891,896,-1
875,850,893,-1
894,893,850,-1
892,896,891,-1
895,896,892,-1
895,897,896,-1
895,898,897,-1
895,899,898,-1
1139,820,732,-1
1139,821,820,-1
1139,852,821,-1
1139,853,852,-1
1139,862,853,-1
1139,864,862,-1
1139,1140,864,-1
1139,1141,1140,-1
1139,1169,1141,-1
1139,1171,1169,-1
1139,1178,1171,-1
1139,1339,1178,-1
683,1350,1139,-1
1139,1350,1339,-1
1167,864,1140,-1
901,864,1167,-1
1168,1141,1169,-1
1168,1169,1195,-1
881,1155,878,-1
885,1152,881,-1
888,1153,885,-1
881,1152,1155,-1
885,1153,1152,-1
890,1159,888,-1
888,1159,1153,-1
890,1162,1159,-1
559,878,1155,-1
559,1155,1156,-1
1164,1186,1163,-1
1161,1186,1154,-1
1154,1186,1157,-1
1160,1186,1161,-1
1157,1186,1158,-1
1158,1186,1185,-1
1163,1186,1160,-1
1186,1164,1192,-1
900,1162,890,-1
901,1167,900,-1
900,1166,1162,-1
1167,1166,900,-1
1165,1192,1164,-1
1168,1192,1165,-1
1168,1193,1192,-1
1168,1194,1193,-1
1168,1195,1194,-1
1199,1197,1171,-1
1199,1171,1178,-1
559,1156,1182,-1
1156,1183,1182,-1
560,1156,1184,-1
560,1184,1187,-1
1188,560,1187,-1
1188,1190,560,-1
1190,1188,1191,-1
1199,1191,1188,-1
1191,1347,1189,-1
1191,1198,1347,-1
1199,1188,1196,-1
1199,1196,1197,-1
1199,1198,1191,-1
1350,1349,1339,-1
1189,1348,1344,-1
1189,1347,1348,-1
1344,1348,1345,-1
1349,1346,1345,-1
1349,1345,1348,-1
1350,682,681,-1
1350,680,682,-1
1350,679,680,-1
1350,681,1346,-1
1350,1346,1349,-1
1,2,7,-1
3,4,5,-1
4,6,5,-1
4,15,6,-1
5,6,9,-1
6,15,14,-1
1,33,2,-1
2,38,7,-1
3,35,4,-1
3,5,34,-1
5,9,36,-1
4,46,15,-1
6,14,37,-1
1,7,8,-1
1,8,12,-1
7,9,8,-1
8,13,12,-1
8,9,11,-1
9,10,11,-1
6,10,9,-1
10,18,11,-1
11,18,19,-1
16,17,18,-1
17,19,18,-1
17,25,19,-1
19,25,24,-1
20,21,22,-1
20,22,92,-1
22,23,91,-1
23,94,91,-1
23,95,94,-1
23,29,95,-1
26,27,28,-1
27,29,28,-1
27,31,29,-1
23,28,29,-1
29,31,30,-1
1,12,32,-1
8,11,39,-1
8,44,13,-1
7,40,9,-1
6,41,10,-1
11,19,42,-1
12,13,43,-1
14,15,45,-1
16,48,17,-1
10,49,18,-1
16,18,47,-1
17,56,25,-1
19,24,50,-1
20,52,21,-1
21,53,22,-1
20,92,51,-1
22,54,23,-1
29,145,95,-1
24,25,55,-1
26,58,27,-1
26,28,57,-1
23,59,28,-1
27,62,31,-1
29,30,60,-1
30,31,61,-1
1,32,33,-1
2,33,38,-1
9,40,36,-1
3,34,35,-1
5,36,34,-1
4,35,46,-1
6,37,41,-1
14,45,37,-1
32,38,33,-1
34,36,35,-1
35,36,37,-1
35,37,46,-1
36,40,37,-1
37,45,46,-1
7,38,40,-1
12,43,32,-1
8,39,44,-1
11,42,39,-1
10,41,49,-1
13,44,43,-1
15,46,45,-1
16,47,48,-1
19,50,42,-1
18,49,47,-1
17,48,56,-1
24,55,50,-1
20,51,52,-1
21,52,53,-1
22,53,54,-1
23,54,59,-1
25,56,55,-1
26,57,58,-1
28,59,57,-1
27,58,62,-1
29,60,145,-1
30,61,60,-1
31,62,61,-1
32,39,38,-1
32,43,39,-1
38,39,40,-1
39,43,44,-1
39,42,40,-1
40,42,41,-1
37,40,41,-1
41,42,49,-1
42,50,49,-1
47,49,48,-1
48,49,50,-1
48,50,56,-1
50,55,56,-1
51,53,52,-1
51,142,53,-1
53,141,54,-1
54,141,144,-1
54,144,145,-1
54,145,60,-1
57,59,58,-1
58,59,60,-1
58,60,62,-1
54,60,59,-1
60,61,62,-1
64,63,71,-1
64,71,65,-1
66,67,70,-1
67,68,70,-1
66,69,63,-1
66,70,69,-1
63,69,71,-1
68,72,70,-1
68,73,72,-1
72,73,74,-1
73,75,74,-1
74,75,76,-1
76,75,201,-1
64,77,63,-1
64,190,78,-1
65,71,79,-1
66,63,80,-1
66,81,67,-1
67,82,68,-1
69,85,71,-1
69,70,83,-1
70,72,84,-1
68,87,73,-1
72,74,86,-1
73,89,75,-1
74,76,88,-1
64,78,77,-1
71,85,79,-1
66,80,81,-1
67,81,82,-1
68,82,87,-1
63,77,80,-1
69,83,85,-1
70,84,83,-1
72,86,84,-1
74,88,86,-1
73,87,89,-1
76,90,88,-1
75,89,316,-1
78,85,77,-1
78,79,85,-1
80,84,81,-1
81,84,82,-1
80,77,83,-1
80,83,84,-1
77,85,83,-1
82,84,86,-1
82,86,87,-1
86,88,87,-1
87,88,89,-1
88,90,89,-1
90,316,89,-1
22,91,92,-1
91,93,92,-1
94,95,98,-1
94,98,99,-1
96,97,98,-1
97,99,98,-1
97,101,99,-1
99,101,100,-1
102,103,104,-1
104,106,105,-1
104,107,106,-1
106,107,114,-1
107,117,114,-1
103,108,104,-1
103,110,108,-1
104,108,107,-1
108,110,109,-1
91,94,141,-1
91,143,93,-1
92,93,142,-1
94,99,144,-1
95,148,98,-1
96,147,97,-1
96,98,146,-1
97,151,101,-1
99,100,149,-1
100,101,150,-1
102,153,103,-1
102,104,152,-1
104,105,154,-1
107,108,157,-1
105,106,155,-1
106,114,156,-1
108,109,158,-1
103,160,110,-1
109,110,159,-1
107,165,117,-1
114,117,115,-1
112,114,115,-1
112,116,113,-1
112,115,121,-1
112,121,116,-1
113,116,124,-1
115,125,121,-1
115,117,118,-1
119,120,123,-1
119,123,122,-1
120,127,123,-1
112,113,161,-1
112,163,114,-1
115,118,164,-1
113,124,162,-1
115,169,125,-1
117,166,118,-1
119,168,120,-1
119,122,167,-1
167,122,126,-1
120,176,127,-1
92,142,51,-1
91,141,143,-1
93,143,142,-1
94,144,141,-1
95,145,148,-1
99,149,144,-1
96,146,147,-1
98,148,146,-1
97,147,151,-1
100,150,149,-1
101,151,150,-1
102,152,153,-1
104,154,152,-1
105,155,154,-1
106,156,155,-1
114,163,156,-1
107,157,165,-1
103,153,160,-1
108,158,157,-1
109,159,158,-1
110,160,159,-1
53,142,141,-1
141,142,143,-1
144,148,145,-1
144,149,148,-1
146,148,147,-1
147,148,149,-1
147,149,151,-1
149,150,151,-1
152,154,153,-1
154,155,156,-1
154,156,157,-1
156,163,157,-1
157,163,165,-1
153,154,158,-1
153,158,160,-1
154,157,158,-1
158,159,160,-1
113,162,161,-1
112,161,163,-1
115,164,169,-1
169,128,125,-1
173,124,132,-1
169,126,128,-1
118,166,164,-1
117,165,166,-1
119,167,168,-1
120,168,176,-1
171,129,130,-1
170,137,129,-1
176,135,127,-1
174,132,133,-1
176,133,135,-1
175,136,134,-1
178,134,137,-1
177,140,136,-1
179,131,138,-1
180,138,139,-1
181,139,140,-1
162,124,173,-1
163,164,165,-1
161,164,163,-1
161,162,173,-1
161,173,164,-1
167,126,169,-1
164,166,165,-1
167,169,168,-1
164,173,169,-1
168,169,173,-1
168,173,176,-1
170,178,137,-1
170,129,171,-1
172,131,179,-1
170,171,178,-1
171,172,178,-1
173,132,174,-1
174,133,176,-1
175,177,136,-1
175,134,178,-1
177,181,140,-1
179,138,180,-1
180,139,181,-1
173,174,176,-1
175,178,177,-1
177,178,179,-1
172,179,178,-1
177,179,181,-1
179,180,181,-1
182,183,184,-1
182,184,186,-1
184,185,186,-1
184,188,185,-1
185,187,186,-1
184,189,188,-1
188,189,236,-1
184,242,189,-1
189,242,243,-1
182,298,183,-1
182,186,297,-1
183,299,184,-1
185,302,187,-1
185,188,300,-1
186,187,301,-1
188,236,303,-1
189,304,241,-1
184,355,242,-1
189,243,356,-1
64,65,190,-1
65,191,190,-1
190,191,192,-1
190,192,193,-1
192,194,193,-1
193,194,195,-1
193,195,197,-1
195,196,197,-1
76,201,200,-1
200,201,202,-1
201,204,202,-1
202,204,203,-1
203,204,208,-1
197,196,206,-1
196,205,206,-1
207,209,211,-1
204,210,208,-1
208,210,209,-1
211,209,210,-1
198,199,214,-1
198,214,215,-1
198,215,216,-1
215,217,216,-1
214,218,215,-1
214,219,218,-1
214,220,219,-1
218,219,222,-1
212,213,220,-1
219,220,221,-1
213,229,220,-1
220,229,221,-1
218,222,223,-1
223,222,224,-1
223,224,225,-1
225,224,226,-1
225,226,273,-1
226,227,273,-1
221,229,228,-1
228,229,230,-1
230,229,276,-1
230,276,233,-1
233,276,232,-1
65,306,191,-1
190,193,305,-1
191,307,192,-1
192,309,194,-1
193,197,308,-1
194,310,195,-1
195,311,196,-1
197,206,312,-1
198,314,199,-1
76,200,90,-1
75,316,201,-1
200,202,315,-1
202,203,317,-1
203,208,318,-1
201,319,204,-1
196,320,205,-1
205,321,206,-1
207,324,209,-1
207,211,322,-1
211,210,326,-1
208,209,323,-1
204,325,210,-1
212,328,213,-1
198,216,313,-1
199,329,214,-1
215,332,217,-1
216,217,331,-1
215,218,330,-1
218,223,333,-1
219,334,222,-1
214,335,220,-1
212,220,327,-1
219,221,336,-1
213,344,229,-1
222,337,224,-1
223,225,338,-1
224,339,226,-1
226,341,227,-1
225,273,340,-1
221,228,343,-1
228,230,345,-1
227,342,231,-1
231,346,232,-1
233,232,347,-1
230,233,348,-1
229,387,276,-1
189,241,236,-1
234,235,237,-1
234,237,238,-1
236,239,237,-1
237,240,238,-1
237,239,240,-1
236,241,239,-1
239,246,240,-1
241,243,244,-1
241,244,239,-1
243,242,244,-1
234,350,235,-1
234,238,349,-1
235,352,237,-1
236,237,351,-1
239,244,353,-1
349,238,245,-1
239,353,246,-1
241,354,243,-1
242,357,244,-1
267,268,269,-1
267,269,271,-1
269,270,272,-1
269,272,271,-1
270,284,272,-1
227,274,273,-1
227,231,274,-1
231,275,274,-1
231,232,275,-1
232,276,275,-1
277,278,279,-1
269,280,270,-1
269,279,280,-1
278,282,279,-1
279,282,280,-1
280,282,281,-1
278,288,282,-1
280,281,287,-1
267,379,268,-1
268,380,269,-1
267,271,378,-1
378,271,283,-1
270,383,284,-1
273,274,384,-1
274,275,385,-1
275,276,386,-1
277,389,278,-1
277,279,388,-1
270,280,381,-1
269,390,279,-1
280,287,391,-1
278,392,288,-1
182,297,298,-1
183,298,299,-1
186,301,297,-1
185,300,302,-1
188,303,300,-1
184,299,355,-1
187,302,301,-1
189,356,304,-1
297,299,298,-1
297,301,299,-1
299,301,300,-1
299,300,303,-1
300,301,302,-1
299,303,304,-1
303,351,304,-1
299,304,355,-1
304,356,355,-1
190,305,78,-1
65,79,306,-1
191,306,307,-1
193,308,305,-1
192,307,309,-1
194,309,310,-1
195,310,311,-1
197,312,308,-1
198,313,314,-1
200,315,90,-1
202,317,315,-1
201,316,319,-1
203,318,317,-1
196,311,320,-1
205,320,321,-1
206,321,312,-1
207,322,324,-1
211,326,322,-1
208,323,318,-1
209,324,323,-1
204,319,325,-1
210,325,326,-1
212,327,328,-1
199,314,329,-1
216,331,313,-1
215,330,332,-1
217,332,331,-1
214,329,335,-1
218,333,330,-1
219,336,334,-1
220,335,327,-1
213,328,344,-1
221,343,336,-1
223,338,333,-1
222,334,337,-1
224,337,339,-1
225,340,338,-1
226,339,341,-1
273,384,340,-1
227,341,342,-1
228,345,343,-1
229,344,387,-1
233,347,348,-1
231,342,346,-1
232,346,347,-1
230,348,345,-1
78,305,79,-1
79,305,306,-1
305,307,306,-1
305,308,307,-1
307,308,309,-1
308,310,309,-1
308,312,310,-1
310,312,311,-1
90,315,316,-1
315,317,316,-1
316,317,319,-1
317,318,319,-1
318,323,319,-1
312,321,311,-1
311,321,320,-1
322,326,324,-1
319,323,325,-1
323,324,325,-1
326,325,324,-1
313,329,314,-1
313,330,329,-1
313,331,330,-1
330,331,332,-1
329,330,333,-1
329,333,334,-1
329,334,335,-1
333,337,334,-1
327,335,328,-1
334,336,335,-1
328,335,344,-1
335,336,344,-1
333,338,337,-1
338,339,337,-1
338,340,339,-1
340,341,339,-1
340,384,341,-1
341,384,342,-1
336,343,344,-1
343,345,344,-1
345,387,344,-1
345,348,387,-1
348,347,387,-1
358,245,247,-1
353,248,246,-1
236,351,303,-1
234,349,350,-1
235,350,352,-1
237,352,351,-1
241,304,354,-1
243,354,356,-1
244,357,353,-1
242,355,357,-1
359,247,248,-1
360,250,249,-1
361,251,250,-1
362,257,251,-1
364,249,253,-1
363,254,252,-1
369,252,258,-1
365,253,254,-1
366,256,255,-1
368,255,257,-1
367,265,256,-1
370,260,259,-1
372,258,261,-1
374,259,263,-1
371,262,260,-1
373,830,262,-1
375,263,264,-1
377,264,266,-1
376,840,265,-1
349,245,358,-1
353,359,248,-1
304,351,354,-1
349,352,350,-1
351,352,353,-1
349,358,352,-1
351,353,354,-1
352,358,353,-1
353,358,359,-1
354,357,356,-1
354,353,357,-1
356,357,355,-1
358,247,359,-1
360,361,250,-1
361,362,251,-1
360,249,364,-1
363,365,254,-1
363,252,369,-1
364,253,365,-1
372,261,946,-1
360,362,361,-1
360,363,362,-1
360,364,363,-1
362,363,369,-1
362,369,370,-1
363,364,365,-1
362,368,257,-1
366,367,256,-1
366,255,368,-1
370,259,374,-1
369,258,372,-1
370,371,260,-1
371,373,262,-1
374,263,375,-1
367,376,265,-1
375,264,377,-1
377,266,957,-1
376,964,840,-1
362,370,368,-1
370,374,368,-1
366,368,367,-1
367,368,376,-1
369,371,370,-1
369,372,371,-1
372,373,371,-1
372,953,373,-1
368,374,376,-1
374,375,376,-1
375,377,376,-1
376,377,964,-1
382,283,285,-1
383,286,284,-1
383,285,286,-1
267,378,379,-1
268,379,380,-1
270,381,383,-1
392,289,288,-1
274,385,384,-1
276,387,386,-1
275,386,385,-1
277,388,389,-1
279,390,388,-1
269,380,390,-1
280,391,381,-1
278,389,392,-1
394,290,291,-1
393,287,290,-1
397,294,289,-1
395,293,292,-1
397,295,294,-1
398,292,295,-1
396,883,293,-1
399,291,296,-1
987,296,882,-1
378,283,382,-1
382,285,383,-1
378,380,379,-1
378,382,380,-1
380,382,381,-1
381,382,383,-1
342,384,385,-1
342,385,346,-1
346,385,386,-1
346,386,347,-1
347,386,387,-1
388,390,389,-1
380,381,391,-1
380,391,390,-1
389,390,392,-1
390,391,392,-1
393,290,394,-1
391,287,393,-1
392,397,289,-1
395,396,293,-1
394,291,399,-1
397,398,295,-1
395,292,398,-1
399,296,987,-1
396,988,883,-1
391,393,394,-1
391,394,397,-1
391,397,392,-1
394,399,397,-1
397,399,398,-1
395,398,396,-1
396,398,399,-1
396,399,988,-1
399,987,988,-1
401,402,403,-1
401,403,404,-1
405,406,404,-1
403,405,404,-1
407,462,408,-1
401,431,402,-1
401,404,430,-1
402,432,403,-1
404,406,433,-1
405,435,406,-1
407,408,436,-1
410,411,418,-1
411,412,418,-1
413,417,415,-1
410,414,413,-1
413,414,417,-1
415,417,416,-1
410,418,414,-1
412,419,418,-1
412,423,419,-1
419,423,424,-1
410,413,439,-1
410,440,411,-1
411,441,412,-1
413,415,442,-1
414,446,417,-1
416,417,445,-1
415,479,444,-1
414,418,443,-1
418,419,447,-1
412,452,423,-1
419,424,448,-1
420,421,422,-1
423,425,424,-1
424,425,426,-1
425,508,426,-1
420,422,428,-1
422,427,428,-1
427,429,428,-1
408,464,437,-1
420,450,421,-1
420,428,449,-1
421,451,422,-1
423,454,425,-1
424,426,453,-1
428,429,457,-1
427,458,429,-1
401,430,431,-1
402,431,432,-1
404,433,430,-1
406,435,433,-1
405,434,435,-1
407,436,472,-1
408,437,436,-1
430,432,431,-1
430,433,432,-1
434,433,435,-1
432,433,434,-1
436,437,472,-1
410,439,440,-1
411,440,441,-1
412,441,452,-1
413,442,439,-1
414,443,446,-1
415,444,442,-1
417,446,445,-1
418,447,443,-1
419,448,447,-1
424,453,448,-1
439,447,440,-1
440,447,441,-1
442,444,446,-1
439,442,443,-1
442,446,443,-1
444,445,446,-1
439,443,447,-1
441,447,448,-1
441,448,452,-1
448,453,452,-1
420,449,450,-1
421,450,451,-1
423,452,454,-1
426,455,453,-1
425,454,592,-1
428,457,449,-1
427,456,458,-1
429,458,457,-1
449,451,450,-1
452,453,454,-1
453,455,454,-1
454,455,592,-1
449,457,451,-1
451,457,456,-1
456,457,458,-1
403,461,462,-1
403,462,405,-1
459,460,461,-1
460,463,461,-1
462,461,463,-1
408,462,409,-1
409,462,463,-1
403,471,461,-1
405,462,434,-1
407,472,462,-1
459,461,469,-1
459,470,460,-1
460,473,463,-1
409,463,438,-1
408,409,464,-1
409,465,464,-1
422,464,427,-1
427,464,465,-1
427,465,466,-1
465,468,466,-1
466,468,467,-1
409,475,465,-1
422,474,464,-1
427,466,456,-1
466,467,476,-1
465,478,468,-1
467,468,477,-1
403,432,471,-1
462,472,434,-1
459,469,470,-1
461,471,469,-1
460,470,473,-1
463,473,438,-1
432,472,471,-1
432,434,472,-1
469,471,470,-1
470,471,473,-1
472,473,471,-1
437,438,472,-1
438,473,472,-1
409,438,475,-1
422,451,474,-1
464,474,437,-1
466,476,456,-1
465,475,478,-1
467,477,476,-1
468,478,477,-1
437,474,438,-1
438,474,475,-1
451,456,474,-1
456,475,474,-1
456,476,475,-1
475,476,478,-1
476,477,478,-1
415,416,479,-1
416,480,479,-1
479,480,481,-1
479,481,482,-1
481,483,482,-1
482,483,484,-1
482,484,487,-1
484,485,487,-1
485,490,487,-1
485,486,490,-1
491,513,492,-1
488,489,493,-1
488,493,494,-1
488,494,497,-1
493,495,494,-1
493,496,495,-1
493,517,496,-1
495,496,499,-1
496,517,518,-1
494,498,497,-1
495,499,500,-1
500,499,501,-1
500,501,502,-1
501,503,502,-1
502,503,529,-1
503,504,529,-1
416,564,480,-1
479,482,563,-1
480,565,481,-1
481,567,483,-1
483,568,484,-1
482,487,566,-1
484,569,485,-1
485,570,486,-1
488,573,489,-1
487,490,571,-1
486,574,490,-1
491,492,575,-1
489,577,493,-1
488,497,572,-1
494,495,578,-1
493,601,517,-1
495,500,579,-1
496,580,499,-1
496,518,602,-1
494,582,498,-1
497,498,581,-1
499,583,501,-1
500,502,584,-1
501,585,503,-1
503,587,504,-1
502,529,586,-1
504,588,505,-1
505,589,506,-1
426,508,507,-1
507,508,509,-1
508,511,509,-1
509,511,510,-1
510,511,512,-1
511,514,512,-1
512,514,513,-1
513,514,492,-1
515,516,517,-1
516,520,517,-1
517,520,518,-1
518,520,519,-1
519,520,521,-1
521,545,522,-1
520,545,521,-1
506,522,545,-1
523,524,525,-1
523,525,526,-1
523,526,551,-1
525,638,526,-1
525,639,638,-1
426,507,455,-1
425,592,508,-1
509,510,593,-1
507,509,591,-1
510,512,594,-1
508,595,511,-1
512,513,596,-1
491,597,513,-1
514,576,492,-1
511,598,514,-1
515,600,516,-1
515,517,599,-1
516,604,520,-1
518,519,603,-1
519,521,605,-1
521,522,606,-1
506,590,522,-1
520,623,545,-1
523,608,524,-1
523,551,607,-1
524,609,525,-1
526,638,610,-1
527,528,532,-1
504,530,529,-1
504,505,530,-1
505,531,530,-1
505,506,531,-1
506,545,531,-1
527,532,534,-1
532,533,535,-1
532,535,534,-1
532,549,533,-1
533,538,535,-1
532,548,549,-1
549,536,541,-1
527,612,528,-1
528,616,532,-1
529,530,613,-1
530,531,614,-1
531,545,615,-1
527,534,611,-1
533,549,617,-1
532,626,548,-1
611,534,537,-1
533,619,538,-1
546,547,548,-1
547,550,548,-1
548,550,549,-1
549,550,536,-1
547,553,550,-1
526,552,551,-1
546,625,547,-1
546,548,624,-1
549,541,627,-1
547,628,553,-1
551,552,629,-1
526,630,552,-1
416,445,564,-1
479,563,444,-1
480,564,565,-1
482,566,563,-1
481,565,567,-1
483,567,568,-1
484,568,569,-1
487,571,566,-1
485,569,570,-1
486,570,574,-1
488,572,573,-1
490,574,571,-1
491,575,597,-1
492,576,575,-1
489,573,577,-1
497,581,572,-1
495,579,578,-1
493,577,601,-1
496,602,580,-1
494,578,582,-1
498,582,581,-1
500,584,579,-1
499,580,583,-1
501,583,585,-1
502,586,584,-1
503,585,587,-1
529,613,586,-1
504,587,588,-1
505,588,589,-1
506,589,590,-1
444,563,445,-1
445,563,564,-1
563,565,564,-1
563,566,565,-1
565,566,567,-1
566,568,567,-1
566,571,568,-1
568,571,569,-1
569,571,574,-1
569,574,570,-1
575,576,597,-1
572,577,573,-1
572,578,577,-1
572,581,578,-1
577,578,579,-1
577,579,580,-1
577,580,601,-1
579,583,580,-1
580,602,601,-1
578,581,582,-1
579,584,583,-1
584,585,583,-1
584,586,585,-1
585,586,587,-1
586,613,587,-1
587,613,588,-1
507,591,455,-1
509,593,591,-1
508,592,595,-1
510,594,593,-1
512,596,594,-1
513,597,596,-1
511,595,598,-1
514,598,576,-1
515,599,600,-1
517,601,599,-1
516,600,604,-1
518,603,602,-1
519,605,603,-1
520,604,623,-1
521,606,605,-1
522,590,606,-1
523,607,608,-1
524,608,609,-1
551,629,607,-1
526,610,630,-1
638,684,610,-1
455,591,592,-1
591,593,592,-1
592,593,595,-1
593,594,595,-1
594,596,595,-1
595,596,598,-1
596,597,598,-1
597,576,598,-1
599,601,600,-1
600,601,604,-1
601,602,604,-1
602,603,604,-1
603,605,604,-1
605,606,623,-1
604,605,623,-1
590,623,606,-1
607,609,608,-1
607,610,609,-1
607,629,610,-1
609,610,684,-1
609,684,685,-1
618,537,539,-1
619,540,538,-1
619,539,540,-1
527,611,612,-1
528,612,616,-1
530,614,613,-1
531,615,614,-1
533,617,619,-1
532,616,626,-1
549,627,617,-1
620,541,542,-1
628,543,554,-1
622,542,544,-1
622,544,559,-1
621,557,543,-1
611,537,618,-1
618,539,619,-1
611,616,612,-1
588,613,614,-1
588,614,589,-1
589,614,615,-1
589,615,590,-1
590,615,623,-1
611,618,616,-1
616,618,617,-1
616,617,627,-1
617,618,619,-1
616,627,626,-1
620,627,541,-1
621,543,628,-1
620,542,622,-1
621,633,557,-1
622,559,634,-1
620,622,627,-1
621,628,627,-1
621,627,622,-1
621,634,633,-1
621,622,634,-1
628,554,553,-1
545,623,615,-1
546,624,625,-1
548,626,624,-1
547,625,628,-1
552,630,629,-1
631,556,555,-1
632,558,556,-1
633,555,557,-1
1269,559,1182,-1
1270,1183,558,-1
635,561,560,-1
636,562,561,-1
624,626,625,-1
625,626,628,-1
626,627,628,-1
610,629,630,-1
631,632,556,-1
631,555,633,-1
632,1270,558,-1
634,559,1269,-1
631,633,632,-1
632,633,634,-1
632,634,1270,-1
634,1269,1270,-1
635,636,561,-1
635,560,1277,-1
636,637,562,-1
635,637,636,-1
525,642,639,-1
638,639,645,-1
639,642,643,-1
640,641,642,-1
641,654,642,-1
642,654,643,-1
525,688,642,-1
638,644,684,-1
639,685,645,-1
639,643,689,-1
640,642,686,-1
640,687,641,-1
643,653,699,-1
641,700,654,-1
638,645,644,-1
644,645,646,-1
644,646,647,-1
646,648,647,-1
647,648,649,-1
648,650,649,-1
647,649,658,-1
650,652,649,-1
652,657,649,-1
651,657,652,-1
643,654,653,-1
653,654,655,-1
654,657,655,-1
656,655,657,-1
656,657,651,-1
654,660,657,-1
645,691,646,-1
644,647,690,-1
646,692,648,-1
648,694,650,-1
650,696,652,-1
656,651,697,-1
651,652,698,-1
647,658,693,-1
653,655,701,-1
656,702,655,-1
654,703,660,-1
525,609,688,-1
645,685,691,-1
639,689,685,-1
640,686,687,-1
642,688,686,-1
641,687,700,-1
643,699,689,-1
609,685,688,-1
684,691,685,-1
685,689,688,-1
686,688,687,-1
687,688,700,-1
688,689,700,-1
695,658,659,-1
644,690,684,-1
647,693,690,-1
646,691,692,-1
648,692,694,-1
650,694,696,-1
651,698,697,-1
652,696,698,-1
703,661,660,-1
653,701,699,-1
655,702,701,-1
654,700,703,-1
656,697,702,-1
704,659,662,-1
705,662,663,-1
637,675,562,-1
703,663,661,-1
707,668,665,-1
706,665,664,-1
708,664,666,-1
709,666,667,-1
710,669,668,-1
711,670,669,-1
712,671,670,-1
713,672,671,-1
715,674,673,-1
717,673,675,-1
716,1346,674,-1
718,667,676,-1
719,676,677,-1
720,677,678,-1
723,678,681,-1
714,679,672,-1
721,680,679,-1
724,681,682,-1
722,682,680,-1
693,658,695,-1
684,690,691,-1
690,692,691,-1
690,693,692,-1
692,693,694,-1
693,695,694,-1
695,696,694,-1
695,704,696,-1
696,704,698,-1
697,698,705,-1
697,705,703,-1
689,699,700,-1
699,701,700,-1
700,701,703,-1
702,703,701,-1
702,697,703,-1
695,659,704,-1
704,662,705,-1
703,705,663,-1
637,717,675,-1
698,704,705,-1
707,710,668,-1
706,707,665,-1
706,664,708,-1
708,666,709,-1
710,711,669,-1
711,712,670,-1
712,713,671,-1
713,714,672,-1
715,673,717,-1
715,716,674,-1
709,667,718,-1
718,676,719,-1
719,677,720,-1
720,678,723,-1
714,721,679,-1
721,722,680,-1
723,681,724,-1
722,724,682,-1
706,723,707,-1
707,723,710,-1
706,708,723,-1
710,712,711,-1
710,713,712,-1
710,714,713,-1
710,721,714,-1
715,717,716,-1
709,718,719,-1
708,709,723,-1
709,719,720,-1
709,720,723,-1
710,723,724,-1
710,724,722,-1
710,722,721,-1
727,728,729,-1
727,729,751,-1
729,730,751,-1
729,738,730,-1
729,739,738,-1
733,731,732,-1
733,732,735,-1
733,735,734,-1
733,749,731,-1
735,732,750,-1
736,737,739,-1
737,755,739,-1
739,755,738,-1
727,783,728,-1
727,751,782,-1
728,784,729,-1
730,738,785,-1
729,793,739,-1
733,734,787,-1
734,735,788,-1
736,791,737,-1
736,739,790,-1
737,798,755,-1
733,787,749,-1
735,750,789,-1
730,752,751,-1
738,759,753,-1
738,754,759,-1
754,766,759,-1
738,755,754,-1
756,757,758,-1
754,758,766,-1
757,766,758,-1
757,768,766,-1
760,761,762,-1
760,762,764,-1
762,763,764,-1
763,765,764,-1
762,771,763,-1
762,772,771,-1
766,768,767,-1
769,770,772,-1
770,773,772,-1
772,773,771,-1
730,795,752,-1
751,752,794,-1
738,753,792,-1
753,759,796,-1
754,755,797,-1
756,800,757,-1
756,758,799,-1
754,801,758,-1
760,804,761,-1
761,805,762,-1
759,766,802,-1
760,764,803,-1
763,808,765,-1
764,765,807,-1
763,771,806,-1
762,815,772,-1
757,811,768,-1
766,767,809,-1
767,768,810,-1
769,813,770,-1
769,772,812,-1
770,816,773,-1
774,130,740,-1
172,744,131,-1
776,741,742,-1
775,740,741,-1
778,745,744,-1
779,743,745,-1
780,747,746,-1
787,742,749,-1
727,782,783,-1
728,783,784,-1
751,794,782,-1
730,785,795,-1
729,784,793,-1
738,792,785,-1
786,748,743,-1
786,746,748,-1
781,750,747,-1
734,788,787,-1
735,789,788,-1
736,790,791,-1
739,793,790,-1
737,791,798,-1
171,130,774,-1
774,740,775,-1
775,741,776,-1
777,743,779,-1
776,742,787,-1
777,786,743,-1
171,774,172,-1
172,774,778,-1
774,775,777,-1
774,777,778,-1
775,776,787,-1
775,787,777,-1
172,778,744,-1
778,779,745,-1
780,781,747,-1
777,779,778,-1
782,784,783,-1
782,794,784,-1
784,794,785,-1
784,785,792,-1
784,792,793,-1
780,746,786,-1
781,789,750,-1
777,787,786,-1
780,786,781,-1
781,786,787,-1
781,787,789,-1
787,788,789,-1
790,793,791,-1
791,793,798,-1
793,792,798,-1
752,795,794,-1
759,802,796,-1
753,796,792,-1
754,797,801,-1
755,798,797,-1
756,799,800,-1
758,801,799,-1
757,800,811,-1
760,803,804,-1
761,804,805,-1
766,809,802,-1
764,807,803,-1
763,806,808,-1
765,808,807,-1
762,805,815,-1
771,814,806,-1
767,810,809,-1
768,811,810,-1
769,812,813,-1
772,815,812,-1
770,813,816,-1
785,794,795,-1
792,796,802,-1
792,802,797,-1
797,802,809,-1
792,797,798,-1
799,801,800,-1
797,809,801,-1
800,801,809,-1
800,809,811,-1
803,805,804,-1
803,807,805,-1
805,807,806,-1
806,807,808,-1
805,806,814,-1
805,814,815,-1
809,810,811,-1
812,815,813,-1
813,815,816,-1
815,814,816,-1
817,849,820,-1
817,820,818,-1
818,820,819,-1
818,819,908,-1
819,820,821,-1
817,818,972,-1
818,908,973,-1
819,821,974,-1
817,975,849,-1
974,821,851,-1
854,852,853,-1
854,856,852,-1
854,855,856,-1
854,853,895,-1
856,894,852,-1
857,858,859,-1
857,859,913,-1
855,860,866,-1
861,865,867,-1
863,862,864,-1
863,864,868,-1
863,868,865,-1
865,868,867,-1
863,899,862,-1
855,866,856,-1
869,870,871,-1
854,1000,855,-1
856,866,1001,-1
857,1003,858,-1
858,1004,859,-1
854,895,999,-1
856,998,894,-1
855,1005,860,-1
861,1012,865,-1
861,867,1009,-1
863,865,1010,-1
868,864,1015,-1
860,1013,866,-1
867,868,1014,-1
859,1018,871,-1
869,871,1016,-1
869,1017,870,-1
863,1008,899,-1
1015,864,901,-1
902,903,904,-1
902,904,906,-1
904,908,905,-1
904,905,906,-1
905,907,906,-1
819,909,908,-1
905,908,909,-1
905,909,910,-1
909,912,910,-1
910,912,911,-1
902,1020,903,-1
902,906,1019,-1
903,1021,904,-1
905,1024,907,-1
905,910,1022,-1
906,907,1023,-1
819,1026,909,-1
904,1025,908,-1
910,911,1027,-1
909,1029,912,-1
911,912,1028,-1
857,913,914,-1
913,915,914,-1
859,916,913,-1
859,917,916,-1
859,871,917,-1
916,917,918,-1
916,918,919,-1
919,918,923,-1
871,920,917,-1
871,870,922,-1
871,922,920,-1
920,922,921,-1
921,922,931,-1
919,923,924,-1
924,923,925,-1
924,925,927,-1
925,926,927,-1
926,928,927,-1
922,934,931,-1
931,934,932,-1
930,932,934,-1
926,929,928,-1
929,930,933,-1
933,930,934,-1
929,933,928,-1
935,936,937,-1
935,937,939,-1
937,938,939,-1
938,940,939,-1
937,944,938,-1
941,942,943,-1
937,943,944,-1
942,945,943,-1
943,945,944,-1
944,945,1123,-1
857,914,1002,-1
914,915,1031,-1
913,1032,915,-1
913,916,1030,-1
916,919,1033,-1
917,1034,918,-1
918,1035,923,-1
919,924,1036,-1
917,920,1037,-1
870,1039,922,-1
920,921,1038,-1
921,931,1048,-1
923,1040,925,-1
924,927,1041,-1
925,1042,926,-1
927,928,1044,-1
928,933,1045,-1
926,1043,929,-1
930,1047,932,-1
929,1046,930,-1
931,932,1049,-1
922,1051,934,-1
933,934,1050,-1
935,1053,936,-1
935,939,1052,-1
936,1054,937,-1
938,1057,940,-1
939,940,1056,-1
938,944,1055,-1
941,943,1058,-1
941,1059,942,-1
937,1060,943,-1
942,1062,945,-1
944,1121,1061,-1
946,261,822,-1
953,823,829,-1
948,822,824,-1
949,825,823,-1
949,824,825,-1
950,827,826,-1
951,828,827,-1
952,844,828,-1
954,832,830,-1
955,829,831,-1
959,833,835,-1
956,834,832,-1
958,835,834,-1
960,831,836,-1
961,836,837,-1
962,839,838,-1
963,837,839,-1
957,266,833,-1
964,841,840,-1
965,838,841,-1
966,843,842,-1
968,842,844,-1
967,850,843,-1
970,826,846,-1
969,847,845,-1
971,846,847,-1
817,972,975,-1
818,973,972,-1
975,845,848,-1
975,848,849,-1
976,851,850,-1
819,974,1026,-1
946,822,948,-1
947,823,953,-1
947,949,823,-1
948,824,949,-1
950,951,827,-1
950,826,970,-1
951,952,828,-1
372,946,953,-1
946,948,947,-1
946,947,953,-1
947,948,949,-1
950,952,951,-1
950,970,952,-1
953,829,955,-1
373,954,830,-1
954,956,832,-1
955,831,960,-1
957,833,959,-1
956,958,834,-1
958,959,835,-1
960,836,961,-1
962,838,965,-1
961,837,963,-1
962,963,839,-1
964,965,841,-1
952,968,844,-1
966,967,843,-1
966,842,968,-1
373,953,954,-1
953,955,954,-1
954,955,956,-1
955,960,956,-1
956,961,958,-1
958,963,959,-1
957,959,965,-1
959,962,965,-1
956,960,961,-1
958,961,963,-1
959,963,962,-1
377,957,964,-1
957,965,964,-1
952,975,968,-1
966,968,967,-1
967,968,976,-1
969,971,847,-1
969,845,975,-1
970,846,971,-1
952,970,969,-1
969,970,971,-1
952,969,975,-1
972,973,975,-1
973,974,975,-1
973,1025,974,-1
974,851,976,-1
967,976,850,-1
974,976,975,-1
968,975,976,-1
978,872,873,-1
991,874,886,-1
980,873,875,-1
979,876,874,-1
982,878,877,-1
983,881,878,-1
977,877,872,-1
984,886,879,-1
985,879,880,-1
988,882,883,-1
986,885,881,-1
989,880,884,-1
990,888,885,-1
992,884,887,-1
994,887,889,-1
993,890,888,-1
1006,889,896,-1
981,891,876,-1
998,875,893,-1
996,892,891,-1
998,893,894,-1
997,895,892,-1
854,999,1000,-1
856,1001,998,-1
857,1002,1003,-1
858,1003,1004,-1
1007,896,897,-1
995,900,890,-1
1008,897,898,-1
1008,898,899,-1
1011,901,900,-1
855,1000,1005,-1
861,1009,1012,-1
863,1010,1008,-1
865,1012,1010,-1
866,1013,1001,-1
860,1005,1013,-1
859,1004,1018,-1
867,1014,1009,-1
868,1015,1014,-1
869,1016,1017,-1
871,1018,1016,-1
870,1017,1039,-1
977,872,978,-1
979,874,991,-1
978,873,980,-1
979,981,876,-1
977,978,991,-1
978,979,991,-1
978,980,979,-1
979,980,981,-1
982,983,878,-1
982,877,977,-1
984,879,985,-1
985,880,989,-1
983,986,881,-1
987,882,988,-1
986,990,885,-1
989,884,992,-1
984,991,886,-1
990,993,888,-1
992,887,994,-1
994,889,1006,-1
993,995,890,-1
982,977,984,-1
982,984,985,-1
977,991,984,-1
982,985,983,-1
983,985,986,-1
986,985,989,-1
986,989,990,-1
989,992,990,-1
990,992,993,-1
992,994,993,-1
994,995,993,-1
994,1006,995,-1
980,875,998,-1
981,996,891,-1
996,997,892,-1
997,999,895,-1
980,996,981,-1
980,998,996,-1
996,998,997,-1
997,998,999,-1
998,1001,999,-1
999,1001,1000,-1
1002,1004,1003,-1
1002,1030,1004,-1
1006,896,1007,-1
1007,897,1008,-1
995,1011,900,-1
1011,1015,901,-1
1000,1013,1005,-1
995,1006,1007,-1
995,1007,1011,-1
1007,1008,1011,-1
1009,1014,1012,-1
1008,1010,1011,-1
1010,1015,1011,-1
1010,1012,1015,-1
1012,1014,1015,-1
1000,1001,1013,-1
1016,1018,1017,-1
902,1019,1020,-1
903,1020,1021,-1
904,1021,1025,-1
906,1023,1019,-1
905,1022,1024,-1
907,1024,1023,-1
908,1025,973,-1
909,1026,1029,-1
910,1027,1022,-1
911,1028,1027,-1
912,1029,1028,-1
1019,1021,1020,-1
1019,1023,1021,-1
1021,1022,1025,-1
1021,1023,1022,-1
1022,1023,1024,-1
974,1025,1026,-1
1022,1026,1025,-1
1022,1027,1026,-1
1026,1027,1029,-1
1027,1028,1029,-1
914,1031,1002,-1
913,1030,1032,-1
915,1032,1031,-1
916,1033,1030,-1
917,1037,1034,-1
918,1034,1035,-1
919,1036,1033,-1
923,1035,1040,-1
920,1038,1037,-1
921,1048,1038,-1
924,1041,1036,-1
925,1040,1042,-1
926,1042,1043,-1
927,1044,1041,-1
928,1045,1044,-1
929,1043,1046,-1
932,1047,1049,-1
930,1046,1047,-1
931,1049,1048,-1
922,1039,1051,-1
934,1051,1050,-1
933,1050,1045,-1
935,1052,1053,-1
936,1053,1054,-1
939,1056,1052,-1
938,1055,1057,-1
940,1057,1056,-1
937,1054,1060,-1
941,1058,1059,-1
944,1061,1055,-1
943,1060,1058,-1
942,1059,1062,-1
945,1062,1132,-1
1002,1031,1030,-1
1030,1031,1032,-1
1004,1030,1033,-1
1004,1033,1034,-1
1004,1034,1018,-1
1033,1035,1034,-1
1033,1036,1035,-1
1036,1040,1035,-1
1018,1034,1037,-1
1018,1039,1017,-1
1018,1037,1039,-1
1037,1038,1039,-1
1038,1048,1039,-1
1036,1041,1040,-1
1041,1042,1040,-1
1041,1044,1042,-1
1042,1044,1043,-1
1043,1044,1045,-1
1039,1048,1051,-1
1048,1049,1051,-1
1047,1051,1049,-1
1043,1045,1046,-1
1046,1050,1047,-1
1050,1051,1047,-1
1046,1045,1050,-1
1052,1054,1053,-1
1052,1056,1054,-1
1054,1056,1055,-1
1055,1056,1057,-1
1054,1055,1061,-1
1058,1060,1059,-1
1054,1061,1060,-1
1059,1060,1062,-1
1060,1061,1062,-1
1061,1132,1062,-1
771,1065,1064,-1
771,1064,1063,-1
1065,1069,1064,-1
771,773,1065,-1
1065,1068,1069,-1
1066,1067,1068,-1
1067,1069,1068,-1
1067,1071,1069,-1
1069,1071,1070,-1
1072,1073,1074,-1
1072,1074,1076,-1
1074,1075,1076,-1
1074,1080,1075,-1
1074,1081,1080,-1
1075,1077,1076,-1
1078,1079,1081,-1
1079,1082,1081,-1
1081,1082,1080,-1
1080,1082,1084,-1
771,1063,814,-1
773,1094,1065,-1
1063,1064,1092,-1
1064,1069,1093,-1
1066,1096,1067,-1
1065,1097,1068,-1
1066,1068,1095,-1
1067,1100,1071,-1
1069,1070,1098,-1
1070,1071,1099,-1
1072,1102,1073,-1
1072,1076,1101,-1
1073,1103,1074,-1
1075,1080,1104,-1
1074,1110,1081,-1
1075,1106,1077,-1
1076,1077,1105,-1
1080,1083,1109,-1
1078,1108,1079,-1
1078,1081,1107,-1
1079,1111,1082,-1
1080,1085,1083,-1
1080,1084,1085,-1
1084,1089,1085,-1
1084,1088,1089,-1
1086,1087,1088,-1
1087,1089,1088,-1
1087,1091,1089,-1
1089,1091,1090,-1
1083,1085,1112,-1
1082,1113,1084,-1
1085,1089,1114,-1
1086,1116,1087,-1
1084,1117,1088,-1
1086,1088,1115,-1
1087,1120,1091,-1
1089,1090,1118,-1
1090,1091,1119,-1
1063,1092,814,-1
1064,1093,1092,-1
1065,1094,1097,-1
1069,1098,1093,-1
773,816,1094,-1
1066,1095,1096,-1
1068,1097,1095,-1
1067,1096,1100,-1
1070,1099,1098,-1
1071,1100,1099,-1
1072,1101,1102,-1
1073,1102,1103,-1
1076,1105,1101,-1
1074,1103,1110,-1
1080,1109,1104,-1
1075,1104,1106,-1
1077,1106,1105,-1
1078,1107,1108,-1
1081,1110,1107,-1
1079,1108,1111,-1
1082,1111,1113,-1
814,1093,1094,-1
814,1092,1093,-1
1094,1093,1098,-1
814,1094,816,-1
1094,1098,1097,-1
1095,1097,1096,-1
1096,1097,1098,-1
1096,1098,1100,-1
1098,1099,1100,-1
1101,1103,1102,-1
1101,1105,1103,-1
1103,1105,1104,-1
1103,1104,1109,-1
1103,1109,1110,-1
1104,1105,1106,-1
1107,1110,1108,-1
1108,1110,1111,-1
1110,1109,1111,-1
1109,1113,1111,-1
1083,1112,1109,-1
1084,1113,1117,-1
1085,1114,1112,-1
1089,1118,1114,-1
1086,1115,1116,-1
1088,1117,1115,-1
1087,1116,1120,-1
1090,1119,1118,-1
1091,1120,1119,-1
1109,1112,1114,-1
1109,1114,1113,-1
1113,1114,1118,-1
1113,1118,1117,-1
1115,1117,1116,-1
1116,1117,1118,-1
1116,1118,1120,-1
1118,1119,1120,-1
944,1122,1121,-1
944,1123,1122,-1
1123,1126,1127,-1
1124,1125,1126,-1
1125,1127,1126,-1
1123,1127,1122,-1
1125,1129,1127,-1
1127,1129,1128,-1
1121,1122,1130,-1
945,1132,1123,-1
1124,1134,1125,-1
1123,1135,1126,-1
1124,1126,1133,-1
1122,1127,1131,-1
1125,1138,1129,-1
1127,1128,1136,-1
1128,1129,1137,-1
1122,1131,1130,-1
1121,1130,1061,-1
1123,1132,1135,-1
1124,1133,1134,-1
1126,1135,1133,-1
1125,1134,1138,-1
1127,1136,1131,-1
1128,1137,1136,-1
1129,1138,1137,-1
1061,1130,1131,-1
1061,1131,1132,-1
1132,1136,1135,-1
1133,1135,1134,-1
1134,1135,1136,-1
1132,1131,1136,-1
1134,1136,1138,-1
1136,1137,1138,-1
1142,1140,1141,-1
1142,1146,1140,-1
1142,1143,1146,-1
1143,1144,1147,-1
1142,1141,1168,-1
1146,1167,1140,-1
1145,1172,1151,-1
1143,1147,1146,-1
1148,1149,1150,-1
1148,1150,1200,-1
1142,1260,1143,-1
1143,1261,1144,-1
1145,1151,1262,-1
1146,1147,1263,-1
1144,1264,1147,-1
1148,1266,1149,-1
1149,1267,1150,-1
1150,1288,1176,-1
1142,1168,1259,-1
1146,1258,1167,-1
1170,1169,1171,-1
1170,1173,1172,-1
1172,1173,1151,-1
1170,1171,1173,-1
1170,1195,1169,-1
1174,1175,1176,-1
1177,1178,1180,-1
1177,1199,1178,-1
1179,1177,1181,-1
1177,1180,1181,-1
1179,1181,1228,-1
1170,1172,1282,-1
1145,1284,1172,-1
1173,1171,1285,-1
1151,1173,1268,-1
1174,1287,1175,-1
1174,1176,1286,-1
1170,1281,1195,-1
1285,1171,1197,-1
1179,1290,1177,-1
1180,1293,1181,-1
1181,1322,1228,-1
1177,1289,1199,-1
1148,1200,1201,-1
1150,1203,1200,-1
1150,1204,1203,-1
1200,1202,1201,-1
1150,1176,1204,-1
1176,1222,1204,-1
1203,1204,1205,-1
1203,1205,1206,-1
1205,1207,1206,-1
1206,1207,1208,-1
1207,1209,1208,-1
1208,1209,1213,-1
1209,1210,1213,-1
1210,1214,1213,-1
1210,1211,1214,-1
1211,1212,1215,-1
1212,1227,1215,-1
1214,1211,1215,-1
1216,1217,1218,-1
1216,1218,1220,-1
1218,1235,1219,-1
1218,1234,1235,-1
1218,1219,1220,-1
1219,1221,1220,-1
1235,1236,1384,-1
1148,1201,1265,-1
1200,1203,1294,-1
1200,1296,1202,-1
1201,1202,1295,-1
1204,1222,1316,-1
1203,1206,1297,-1
1204,1298,1205,-1
1206,1208,1300,-1
1205,1299,1207,-1
1207,1301,1209,-1
1208,1213,1302,-1
1209,1303,1210,-1
1210,1304,1211,-1
1211,1305,1212,-1
1213,1214,1307,-1
1214,1215,1308,-1
1215,1227,1309,-1
1216,1311,1217,-1
1217,1312,1218,-1
1216,1220,1310,-1
1219,1235,1313,-1
1218,1328,1234,-1
1219,1315,1221,-1
1220,1221,1314,-1
1235,1383,1329,-1
1175,1224,1176,-1
1176,1224,1222,-1
1222,1224,1223,-1
1223,1224,1225,-1
1224,1227,1225,-1
1225,1227,1226,-1
1212,1226,1227,-1
1179,1228,1229,-1
1228,1230,1229,-1
1229,1230,1231,-1
1229,1231,1237,-1
1231,1238,1237,-1
1232,1233,1234,-1
1233,1236,1234,-1
1234,1236,1235,-1
1237,1238,1239,-1
1237,1239,1242,-1
1239,1240,1242,-1
1242,1240,1243,-1
1240,1241,1243,-1
1175,1318,1224,-1
1222,1223,1317,-1
1223,1225,1319,-1
1225,1226,1320,-1
1212,1306,1226,-1
1224,1321,1227,-1
1179,1229,1291,-1
1228,1324,1230,-1
1229,1237,1323,-1
1230,1325,1231,-1
1231,1332,1238,-1
1232,1327,1233,-1
1232,1234,1326,-1
1233,1330,1236,-1
1237,1242,1331,-1
1238,1333,1239,-1
1239,1334,1240,-1
1240,1335,1241,-1
1242,1243,1336,-1
1241,1337,1243,-1
1245,1152,1153,-1
1246,1161,1154,-1
1244,1155,1152,-1
1247,1156,1155,-1
1249,1154,1157,-1
1248,1184,1156,-1
1250,1157,1158,-1
1251,1153,1159,-1
1253,1160,1161,-1
1254,1159,1162,-1
1252,1163,1160,-1
1272,1158,1185,-1
1255,1164,1163,-1
1258,1162,1166,-1
1256,1165,1164,-1
1258,1166,1167,-1
1257,1168,1165,-1
1142,1259,1260,-1
1146,1263,1258,-1
1143,1260,1261,-1
1145,1262,1284,-1
1147,1264,1263,-1
1144,1261,1264,-1
1148,1265,1266,-1
1149,1266,1267,-1
1151,1268,1262,-1
1150,1267,1288,-1
1245,1153,1251,-1
1244,1152,1245,-1
1244,1247,1155,-1
1247,1248,1156,-1
1246,1154,1249,-1
1249,1157,1250,-1
1248,1271,1184,-1
1250,1158,1272,-1
1252,1160,1253,-1
1246,1253,1161,-1
1251,1159,1254,-1
1252,1255,1163,-1
1244,1245,1246,-1
1245,1253,1246,-1
1244,1249,1247,-1
1244,1246,1249,-1
1247,1249,1248,-1
1249,1250,1248,-1
1248,1250,1271,-1
1250,1272,1271,-1
1245,1251,1253,-1
1251,1252,1253,-1
1251,1254,1252,-1
1252,1254,1255,-1
1254,1162,1258,-1
1255,1256,1164,-1
1256,1257,1165,-1
1257,1259,1168,-1
1254,1256,1255,-1
1254,1258,1256,-1
1256,1258,1257,-1
1257,1258,1259,-1
1258,1263,1259,-1
1259,1263,1260,-1
1260,1264,1261,-1
1262,1268,1284,-1
1260,1263,1264,-1
1265,1267,1266,-1
1265,1294,1267,-1
1270,1182,1183,-1
1271,1187,1184,-1
1273,1185,1186,-1
1274,1188,1187,-1
1279,1186,1192,-1
1277,560,1190,-1
1276,1191,1189,-1
1278,1190,1191,-1
1280,1192,1193,-1
1275,1196,1188,-1
1281,1193,1194,-1
1281,1194,1195,-1
1283,1197,1196,-1
1170,1282,1281,-1
1172,1284,1282,-1
1173,1285,1268,-1
1174,1286,1287,-1
1176,1288,1286,-1
1175,1287,1318,-1
1289,1198,1199,-1
1177,1290,1289,-1
1179,1291,1290,-1
1180,1292,1293,-1
1181,1293,1322,-1
1269,1182,1270,-1
1271,1274,1187,-1
1272,1185,1273,-1
1273,1186,1279,-1
1274,1275,1188,-1
1271,1272,1274,-1
1272,1273,1274,-1
1273,1275,1274,-1
1273,1279,1275,-1
1277,1190,1278,-1
1276,1278,1191,-1
635,1277,637,-1
637,1277,1276,-1
1276,1277,1278,-1
1279,1192,1280,-1
1280,1193,1281,-1
1275,1283,1196,-1
1283,1285,1197,-1
1275,1279,1280,-1
1275,1280,1283,-1
1280,1281,1283,-1
1281,1282,1283,-1
1282,1285,1283,-1
1282,1284,1285,-1
1284,1268,1285,-1
1286,1288,1287,-1
1289,1290,1292,-1
1291,1293,1290,-1
1290,1293,1292,-1
1291,1322,1293,-1
1201,1295,1265,-1
1203,1297,1294,-1
1200,1294,1296,-1
1202,1296,1295,-1
1204,1316,1298,-1
1205,1298,1299,-1
1206,1300,1297,-1
1207,1299,1301,-1
1208,1302,1300,-1
1209,1301,1303,-1
1210,1303,1304,-1
1211,1304,1305,-1
1212,1305,1306,-1
1213,1307,1302,-1
1214,1308,1307,-1
1215,1309,1308,-1
1216,1310,1311,-1
1217,1311,1312,-1
1218,1312,1328,-1
1235,1329,1313,-1
1220,1314,1310,-1
1219,1313,1315,-1
1221,1315,1314,-1
1236,1330,1419,-1
1265,1295,1294,-1
1267,1294,1297,-1
1267,1297,1298,-1
1294,1295,1296,-1
1267,1298,1288,-1
1288,1298,1316,-1
1297,1299,1298,-1
1297,1300,1299,-1
1299,1300,1301,-1
1300,1302,1301,-1
1301,1302,1303,-1
1302,1307,1303,-1
1303,1307,1304,-1
1304,1307,1308,-1
1304,1308,1305,-1
1305,1309,1306,-1
1306,1309,1321,-1
1308,1309,1305,-1
1310,1312,1311,-1
1310,1314,1312,-1
1312,1313,1329,-1
1312,1329,1328,-1
1312,1314,1313,-1
1313,1314,1315,-1
1329,1419,1330,-1
1222,1317,1316,-1
1223,1319,1317,-1
1225,1320,1319,-1
1224,1318,1321,-1
1226,1306,1320,-1
1227,1321,1309,-1
1229,1323,1291,-1
1228,1322,1324,-1
1237,1331,1323,-1
1230,1324,1325,-1
1231,1325,1332,-1
1232,1326,1327,-1
1234,1328,1326,-1
1233,1327,1330,-1
1242,1336,1331,-1
1238,1332,1333,-1
1239,1333,1334,-1
1240,1334,1335,-1
1241,1335,1337,-1
1243,1337,1336,-1
1287,1288,1318,-1
1288,1316,1318,-1
1316,1317,1318,-1
1317,1319,1318,-1
1318,1319,1321,-1
1319,1320,1321,-1
1306,1321,1320,-1
1291,1323,1322,-1
1322,1323,1324,-1
1323,1325,1324,-1
1323,1331,1325,-1
1325,1331,1332,-1
1326,1328,1327,-1
1327,1328,1330,-1
1328,1329,1330,-1
1331,1333,1332,-1
1331,1336,1333,-1
1333,1336,1334,-1
1336,1337,1334,-1
1334,1337,1335,-1
1338,1180,1178,-1
1338,1178,1340,-1
1340,1178,1339,-1
1342,1340,1339,-1
1342,1339,1349,-1
1342,1341,1340,-1
1342,1343,1341,-1
1341,1343,1351,-1
1338,1292,1180,-1
1338,1340,1366,-1
1340,1341,1368,-1
1342,1371,1343,-1
1341,1351,1369,-1
1342,1349,1370,-1
1343,1353,1351,-1
1351,1353,1352,-1
1352,1353,1354,-1
1354,1359,1355,-1
1353,1359,1354,-1
1356,1360,1357,-1
1355,1359,1358,-1
1358,1359,1361,-1
1360,1358,1361,-1
1360,1361,1357,-1
1351,1352,1372,-1
1343,1374,1353,-1
1352,1354,1373,-1
1354,1355,1375,-1
1353,1380,1359,-1
1356,1357,1377,-1
1357,1361,1378,-1
1355,1358,1376,-1
1360,1379,1358,-1
1356,1381,1360,-1
1359,1382,1361,-1
1362,1189,1344,-1
1363,1344,1345,-1
1364,1345,1346,-1
1289,1347,1198,-1
1365,1348,1347,-1
1367,1349,1348,-1
1338,1366,1292,-1
1340,1368,1366,-1
1341,1369,1368,-1
1342,1370,1371,-1
1351,1372,1369,-1
1276,1189,1362,-1
637,1276,717,-1
717,1276,1362,-1
1362,1344,1363,-1
716,1364,1346,-1
1363,1345,1364,-1
716,717,1364,-1
717,1362,1364,-1
1362,1363,1364,-1
1289,1365,1347,-1
1365,1367,1348,-1
1367,1370,1349,-1
1289,1366,1365,-1
1365,1366,1367,-1
1289,1292,1366,-1
1366,1368,1367,-1
1367,1368,1370,-1
1370,1368,1369,-1
1370,1369,1371,-1
1369,1372,1371,-1
1343,1371,1374,-1
1352,1373,1372,-1
1354,1375,1373,-1
1353,1374,1380,-1
1355,1376,1375,-1
1356,1377,1381,-1
1357,1378,1377,-1
1358,1379,1376,-1
1359,1380,1382,-1
1360,1381,1379,-1
1361,1382,1378,-1
1371,1372,1374,-1
1372,1373,1374,-1
1373,1375,1374,-1
1375,1376,1380,-1
1374,1375,1380,-1
1377,1378,1381,-1
1376,1379,1380,-1
1379,1382,1380,-1
1381,1382,1379,-1
1381,1378,1382,-1
1235,1385,1383,-1
1235,1384,1385,-1
1384,1388,1389,-1
1384,1389,1385,-1
1236,1419,1384,-1
1384,1423,1388,-1
1383,1385,1418,-1
1385,1389,1420,-1
1386,1387,1388,-1
1387,1389,1388,-1
1387,1391,1389,-1
1389,1391,1390,-1
1392,1397,1393,-1
1392,1394,1396,-1
1392,1396,1397,-1
1396,1394,1395,-1
1393,1397,1399,-1
1393,1399,1400,-1
1393,1400,1398,-1
1400,1401,1398,-1
1398,1401,1403,-1
1398,1403,1402,-1
1403,1404,1402,-1
1402,1404,1407,-1
1404,1405,1407,-1
1407,1405,1408,-1
1405,1406,1408,-1
1406,1409,1408,-1
1386,1422,1387,-1
1386,1388,1421,-1
1387,1426,1391,-1
1389,1390,1424,-1
1390,1391,1425,-1
1392,1393,1427,-1
1392,1429,1394,-1
1396,1395,1431,-1
1394,1430,1395,-1
1396,1432,1397,-1
1397,1434,1399,-1
1393,1398,1428,-1
1398,1402,1433,-1
1399,1435,1400,-1
1400,1436,1401,-1
1401,1438,1403,-1
1402,1407,1437,-1
1403,1439,1404,-1
1404,1440,1405,-1
1405,1441,1406,-1
1407,1408,1442,-1
1408,1409,1443,-1
1409,1480,1444,-1
1410,1411,1412,-1
1411,1413,1412,-1
1412,1413,1414,-1
1410,1412,1416,-1
1414,1413,1415,-1
1413,1490,1415,-1
1412,1417,1416,-1
1410,1446,1411,-1
1411,1448,1413,-1
1410,1416,1445,-1
1412,1414,1447,-1
1414,1415,1449,-1
1415,1500,1450,-1
1412,1452,1417,-1
1416,1417,1451,-1
1383,1418,1329,-1
1384,1419,1423,-1
1385,1420,1418,-1
1389,1424,1420,-1
1329,1418,1420,-1
1329,1420,1419,-1
1419,1424,1423,-1
1419,1420,1424,-1
1386,1421,1422,-1
1388,1423,1421,-1
1387,1422,1426,-1
1390,1425,1424,-1
1391,1426,1425,-1
1393,1428,1427,-1
1392,1427,1429,-1
1394,1429,1430,-1
1395,1430,1431,-1
1396,1431,1432,-1
1397,1432,1434,-1
1398,1433,1428,-1
1399,1434,1435,-1
1400,1435,1436,-1
1401,1436,1438,-1
1402,1437,1433,-1
1403,1438,1439,-1
1404,1439,1440,-1
1407,1442,1437,-1
1405,1440,1441,-1
1408,1443,1442,-1
1409,1444,1443,-1
1421,1423,1422,-1
1422,1423,1424,-1
1422,1424,1426,-1
1424,1425,1426,-1
1427,1428,1432,-1
1427,1431,1429,-1
1427,1432,1431,-1
1431,1430,1429,-1
1428,1434,1432,-1
1428,1435,1434,-1
1428,1433,1435,-1
1435,1433,1436,-1
1433,1438,1436,-1
1433,1437,1438,-1
1438,1437,1439,-1
1437,1442,1439,-1
1439,1442,1440,-1
1442,1443,1440,-1
1440,1443,1441,-1
1441,1443,1444,-1
1410,1445,1446,-1
1411,1446,1448,-1
1414,1449,1447,-1
1413,1448,1553,-1
1415,1450,1449,-1
1416,1451,1445,-1
1412,1447,1452,-1
1417,1452,1451,-1
1445,1447,1446,-1
1446,1447,1448,-1
1447,1449,1448,-1
1445,1451,1447,-1
1449,1450,1448,-1
1448,1450,1553,-1
1447,1451,1452,-1
1453,1460,1454,-1
1455,1456,1457,-1
1457,1456,1458,-1
1457,1458,1475,-1
1457,1475,1470,-1
1453,1459,1460,-1
1459,1462,1460,-1
1460,1462,1461,-1
1461,1463,1464,-1
1461,1462,1463,-1
1464,1466,1465,-1
1463,1466,1464,-1
1465,1466,1468,-1
1465,1468,1467,-1
1467,1468,1484,-1
1457,1470,1469,-1
1469,1470,1474,-1
1470,1475,1473,-1
1472,1471,1479,-1
1469,1474,1471,-1
1471,1474,1479,-1
1475,1476,1473,-1
1476,1481,1473,-1
1476,1477,1481,-1
1477,1478,1482,-1
1478,1486,1483,-1
1406,1472,1480,-1
1406,1480,1409,-1
1472,1479,1480,-1
1477,1482,1481,-1
1478,1483,1482,-1
1468,1487,1484,-1
1484,1487,1485,-1
1486,1485,1487,-1
1486,1487,1483,-1
1453,1454,1516,-1
1454,1460,1517,-1
1455,1519,1456,-1
1455,1457,1518,-1
1456,1521,1458,-1
1457,1469,1520,-1
1458,1538,1475,-1
1453,1522,1459,-1
1459,1525,1462,-1
1460,1461,1523,-1
1461,1464,1524,-1
1462,1526,1463,-1
1464,1465,1527,-1
1465,1467,1528,-1
1463,1529,1466,-1
1466,1531,1468,-1
1467,1484,1530,-1
1469,1471,1532,-1
1470,1473,1533,-1
1472,1534,1471,-1
1406,1535,1472,-1
1474,1470,1537,-1
1473,1481,1536,-1
1475,1539,1476,-1
1476,1540,1477,-1
1477,1541,1478,-1
1478,1549,1486,-1
1474,1542,1479,-1
1479,1543,1480,-1
1481,1482,1544,-1
1482,1483,1545,-1
1483,1487,1546,-1
1484,1485,1547,-1
1486,1548,1485,-1
1468,1550,1487,-1
1488,1492,1489,-1
1488,1491,1492,-1
1491,1493,1492,-1
1491,1494,1493,-1
1493,1494,1495,-1
1494,1496,1495,-1
1496,1498,1497,-1
1494,1498,1496,-1
1415,1490,1500,-1
1490,1499,1500,-1
1499,1503,1500,-1
1499,1501,1503,-1
1501,1504,1503,-1
1501,1502,1504,-1
1502,1508,1504,-1
1502,1505,1508,-1
1505,1506,1509,-1
1506,1507,1515,-1
1505,1509,1508,-1
1509,1506,1510,-1
1506,1515,1510,-1
1497,1498,1511,-1
1498,1513,1511,-1
1511,1513,1512,-1
1507,1512,1514,-1
1512,1513,1514,-1
1507,1514,1515,-1
1488,1489,1551,-1
1489,1492,1552,-1
1413,1553,1490,-1
1488,1554,1491,-1
1492,1493,1555,-1
1493,1495,1556,-1
1491,1557,1494,-1
1495,1496,1558,-1
1496,1497,1559,-1
1494,1561,1498,-1
1490,1562,1499,-1
1500,1503,1563,-1
1499,1564,1501,-1
1501,1565,1502,-1
1502,1568,1505,-1
1503,1504,1566,-1
1504,1508,1567,-1
1505,1569,1506,-1
1506,1570,1507,-1
1508,1509,1571,-1
1509,1510,1572,-1
1510,1515,1573,-1
1497,1511,1560,-1
1511,1512,1574,-1
1507,1575,1512,-1
1498,1576,1513,-1
1513,1577,1514,-1
1515,1514,1578,-1
1454,1517,1516,-1
1455,1518,1519,-1
1457,1520,1518,-1
1456,1519,1521,-1
1458,1521,1538,-1
1453,1516,1522,-1
1459,1522,1525,-1
1460,1523,1517,-1
1461,1524,1523,-1
1462,1525,1526,-1
1464,1527,1524,-1
1465,1528,1527,-1
1463,1526,1529,-1
1466,1529,1531,-1
1467,1530,1528,-1
1484,1547,1530,-1
1469,1532,1520,-1
1471,1534,1532,-1
1470,1533,1537,-1
1406,1441,1535,-1
1472,1535,1534,-1
1473,1536,1533,-1
1475,1538,1539,-1
1476,1539,1540,-1
1477,1540,1541,-1
1481,1544,1536,-1
1478,1541,1549,-1
1479,1542,1543,-1
1474,1537,1542,-1
1480,1543,1444,-1
1482,1545,1544,-1
1483,1546,1545,-1
1485,1548,1547,-1
1468,1531,1550,-1
1486,1549,1548,-1
1487,1550,1546,-1
1516,1517,1523,-1
1518,1520,1519,-1
1520,1521,1519,-1
1520,1538,1521,-1
1520,1533,1538,-1
1516,1523,1522,-1
1522,1523,1525,-1
1523,1524,1525,-1
1524,1527,1526,-1
1524,1526,1525,-1
1527,1528,1529,-1
1526,1527,1529,-1
1528,1531,1529,-1
1528,1530,1531,-1
1530,1547,1531,-1
1520,1532,1533,-1
1532,1537,1533,-1
1533,1536,1538,-1
1535,1542,1534,-1
1532,1534,1537,-1
1534,1542,1537,-1
1538,1536,1539,-1
1539,1536,1544,-1
1539,1544,1540,-1
1540,1545,1541,-1
1541,1546,1549,-1
1441,1543,1535,-1
1441,1444,1543,-1
1535,1543,1542,-1
1540,1544,1545,-1
1541,1545,1546,-1
1531,1547,1550,-1
1547,1548,1550,-1
1549,1550,1548,-1
1549,1546,1550,-1
1489,1552,1551,-1
1488,1551,1554,-1
1491,1554,1557,-1
1492,1555,1552,-1
1493,1556,1555,-1
1495,1558,1556,-1
1496,1559,1558,-1
1497,1560,1559,-1
1494,1557,1561,-1
1490,1553,1562,-1
1500,1563,1450,-1
1499,1562,1564,-1
1503,1566,1563,-1
1501,1564,1565,-1
1502,1565,1568,-1
1504,1567,1566,-1
1508,1571,1567,-1
1505,1568,1569,-1
1506,1569,1570,-1
1509,1572,1571,-1
1510,1573,1572,-1
1515,1578,1573,-1
1511,1574,1560,-1
1498,1561,1576,-1
1512,1575,1574,-1
1507,1570,1575,-1
1513,1576,1577,-1
1514,1577,1578,-1
1551,1552,1555,-1
1551,1555,1554,-1
1554,1555,1556,-1
1554,1556,1557,-1
1556,1558,1557,-1
1557,1558,1559,-1
1559,1560,1561,-1
1557,1559,1561,-1
1450,1563,1553,-1
1553,1563,1562,-1
1562,1563,1566,-1
1562,1566,1564,-1
1564,1566,1567,-1
1564,1567,1565,-1
1565,1567,1571,-1
1565,1571,1568,-1
1568,1572,1569,-1
1569,1578,1570,-1
1568,1571,1572,-1
1572,1573,1569,-1
1569,1573,1578,-1
1560,1574,1561,-1
1561,1574,1576,-1
1574,1575,1576,-1
1570,1577,1575,-1
1575,1577,1576,-1
1570,1578,1577,-1
]

colorPerVertex FALSE

color Color { color [
 0 0 0,
 1 1 1,
 0.976471 0.843137 0.172549, # default colour
] }

colorIndex [
0 0 0 0 0 0 0 0 0 0 0 0 0 0 0 0 0 0 0 0 0 0 0 0 0 0 0 0 0 0 0 0 0 0 0 0 0 0 0 0 0 0 0 0 0 0 0 0 0 0 0 0 0 0 0 0 0 0 0 0 0 0 0 0 0 0 0 0 0 0 0 0 0 0 0 0 0 0 0 0 0 0 0 0 0 0 0 0 0 0 0 0 0 0 0 0 0 0 0 0 0 0 0 0 0 0 0 0 0 0 0 0 0 0 0 0 0 0 0 0 0 0 0 0 0 0 0 0 0 0 0 0 0 0 0 0 0 0 0 0 0 0 0 0 0 0 0 0 0 0 0 0 0 0 0 0 0 0 0 0 0 0 0 0 0 0 0 0 0 0 0 0 0 0 0 0 0 0 0 0 0 0 0 0 0 0 0 0 0 0 0 0 0 0 0 0 0 0 0 0 0 0 0 0 0 0 0 0 0 0 0 0 0 0 0 0 0 0 0 0 0 0 0 0 0 0 0 0 0 0 0 0 0 0 0 0 0 0 0 0 0 0 0 0 0 0 0 0 0 0 0 0 0 0 0 0 0 0 0 0 0 0 0 0 0 0 0 0 0 0 0 0 0 0 0 0 0 0 1 1 1 1 1 1 1 1 1 1 1 1 1 1 1 1 1 1 1 1 1 1 1 1 1 1 1 1 1 1 1 1 1 1 1 1 1 1 1 1 1 1 1 1 1 1 1 1 1 1 1 1 1 1 1 1 1 1 1 1 1 1 1 1 1 1 1 1 1 1 1 1 1 1 1 1 1 1 1 1 1 1 1 1 1 1 1 1 1 1 1 1 1 1 1 1 1 1 1 1 1 1 1 1 1 1 1 1 1 1 1 1 1 1 1 1 1 1 1 1 1 1 1 1 1 1 1 1 1 1 1 1 1 1 1 1 1 1 1 1 1 1 1 1 1 1 1 1 1 1 1 1 1 1 1 1 1 1 1 1 1 1 1 1 1 1 1 1 1 1 1 1 1 1 1 1 1 1 1 1 1 1 1 1 1 1 1 1 1 1 1 1 1 1 1 1 1 1 1 1 1 1 1 1 1 1 1 1 1 1 1 1 1 1 1 1 1 1 1 1 1 1 1 1 1 1 1 1 1 1 1 1 1 1 1 1 1 1 1 1 1 1 1 1 1 1 1 1 1 1 1 1 1 1 1 1 1 1 1 1 1 1 1 1 1 1 1 1 1 1 1 1 1 1 1 1 1 1 1 1 1 1 1 1 1 1 1 1 1 1 1 1 1 1 1 1 1 1 1 1 1 1 1 1 1 1 1 1 1 1 1 1 1 1 1 1 1 1 1 1 1 1 1 1 1 1 1 1 1 1 1 1 1 1 1 1 1 1 1 1 1 1 1 1 1 1 1 1 1 1 1 1 1 1 1 1 1 1 1 1 1 1 1 1 1 1 1 1 1 1 1 1 1 1 1 1 1 1 1 1 1 1 1 1 1 1 1 1 1 1 1 1 1 1 1 1 1 1 1 1 1 1 1 1 1 1 1 1 1 1 1 1 1 1 1 1 1 1 1 1 1 1 1 1 1 1 1 1 1 1 1 1 1 1 1 1 1 1 1 1 1 1 1 1 1 1 1 1 1 1 1 1 1 1 1 1 1 1 1 1 1 1 1 1 1 1 1 1 1 1 1 1 1 1 1 1 1 1 1 1 1 1 1 1 1 1 1 1 1 1 1 1 1 1 1 1 1 1 1 1 1 1 1 1 1 1 1 1 1 1 1 1 1 1 1 1 1 1 1 1 1 1 1 1 1 1 1 1 1 1 1 1 1 1 1 1 1 1 1 1 1 1 1 1 1 1 1 1 1 1 1 1 1 1 1 1 1 1 1 1 1 1 1 1 1 1 1 1 1 1 1 1 1 1 1 1 1 1 1 1 1 1 1 1 1 1 1 1 1 1 1 1 1 1 1 1 1 1 1 1 1 1 1 1 1 1 1 1 1 1 1 1 1 1 1 1 1 1 1 1 1 1 1 1 1 1 1 1 1 1 1 1 1 1 1 1 1 1 1 1 1 1 1 1 1 1 1 1 1 1 1 1 1 1 1 1 1 1 1 1 1 1 1 1 1 1 1 1 1 1 1 1 1 1 1 1 1 1 1 1 1 1 1 1 1 1 1 1 1 1 1 1 1 1 1 1 1 1 1 1 1 1 1 1 1 1 1 1 1 1 1 1 1 1 1 1 1 1 1 1 1 1 1 1 1 1 1 1 1 1 1 1 1 1 1 1 1 1 1 1 1 1 1 1 1 1 1 1 1 1 1 1 1 1 1 1 1 1 1 1 1 1 1 1 1 1 1 1 1 1 1 1 1 1 1 1 1 1 1 1 1 1 1 1 1 1 1 1 1 1 1 1 1 1 1 1 1 1 1 1 1 1 1 1 1 1 1 1 1 1 1 1 1 1 1 1 1 1 1 1 1 1 1 1 1 1 1 1 1 1 1 1 1 1 1 1 1 1 1 1 1 1 1 1 1 1 1 1 1 1 1 1 1 1 1 1 1 1 1 1 1 1 1 1 1 1 1 1 1 1 1 1 1 1 1 1 1 1 1 1 1 1 1 1 1 1 1 1 1 1 1 1 1 1 1 1 1 1 1 1 1 1 1 1 1 1 1 1 1 1 1 1 1 1 1 1 1 1 1 1 1 1 1 1 1 1 1 1 1 1 1 1 1 1 1 1 1 1 1 1 1 1 1 1 1 1 1 1 1 1 1 1 1 1 1 1 1 1 1 1 1 1 1 1 1 1 1 1 1 1 1 1 1 1 1 1 1 1 1 1 1 1 1 1 1 1 1 1 1 1 1 1 1 1 1 1 1 1 1 1 1 1 1 1 1 1 1 1 1 1 1 1 1 1 1 1 1 1 1 1 1 1 1 1 1 1 1 1 1 1 1 1 1 1 1 1 1 1 1 1 1 1 1 1 1 1 1 1 1 1 1 1 1 1 1 1 1 1 1 1 1 1 1 1 1 1 1 1 1 1 1 1 1 1 1 1 1 1 1 1 1 1 1 1 1 1 1 1 1 1 1 1 1 1 1 1 1 1 1 1 1 1 1 1 1 1 1 1 1 1 1 1 1 1 1 1 1 1 1 1 1 1 1 1 1 1 1 1 1 1 1 1 1 1 1 1 1 1 1 1 1 1 1 1 1 1 1 1 1 1 1 1 1 1 1 1 1 1 1 1 1 1 1 1 1 1 1 1 1 1 1 1 1 1 1 1 1 1 1 1 1 1 1 1 1 1 1 1 1 1 1 1 1 1 1 1 1 1 1 1 1 1 1 1 1 1 1 1 1 1 1 1 1 1 1 1 1 1 1 1 1 1 1 1 1 1 1 1 1 1 1 1 1 1 1 1 1 1 1 1 1 1 1 1 1 1 1 1 1 1 1 1 1 1 1 1 1 1 1 1 1 1 1 1 1 1 1 1 1 1 1 1 1 1 1 1 1 1 1 1 1 1 1 1 1 1 1 1 1 1 1 1 1 1 1 1 1 1 1 1 1 1 1 1 1 1 1 1 1 1 1 1 1 1 1 1 1 1 1 1 1 1 1 1 1 1 1 1 1 1 1 1 1 1 1 1 1 1 1 1 1 1 1 1 1 1 1 1 1 1 1 1 1 1 1 1 1 1 1 1 1 1 1 1 1 1 1 1 1 1 1 1 1 1 1 1 1 1 1 1 1 1 1 1 1 1 1 1 1 1 1 1 1 1 1 1 1 1 1 1 1 1 1 1 1 1 1 1 1 1 1 1 1 1 1 1 1 1 1 1 1 1 1 1 1 1 1 1 1 1 1 1 1 1 1 1 1 1 1 1 1 1 1 1 1 1 1 1 1 1 1 1 1 1 1 1 1 1 1 1 1 1 1 1 1 1 1 1 1 1 1 1 1 1 1 1 1 1 1 1 1 1 1 1 1 1 1 1 1 1 1 1 1 1 1 1 1 1 1 1 1 1 1 1 1 1 1 1 1 1 1 1 1 1 1 1 1 1 1 1 1 1 1 1 1 1 1 1 1 1 1 1 1 1 1 1 1 1 1 1 1 1 1 1 1 1 1 1 1 1 1 1 1 1 1 1 1 1 1 1 1 1 1 1 1 1 1 1 1 1 1 1 1 1 1 1 1 1 1 1 1 1 1 1 1 1 1 1 1 1 1 1 1 1 1 1 1 1 1 1 1 1 1 1 1 1 1 1 1 1 1 1 1 1 1 1 1 1 1 1 1 1 1 1 1 1 1 1 1 1 1 1 1 1 1 1 1 1 1 1 1 1 1 1 1 1 1 1 1 1 1 1 1 1 1 1 1 1 1 1 1 1 1 1 1 1 1 1 1 1 1 1 1 1 1 1 1 1 1 1 1 1 1 1 1 1 1 1 1 1 1 1 1 1 1 1 1 1 1 1 1 1 1 1 1 1 1 1 1 1 1 1 1 1 1 1 1 1 1 1 1 1 1 1 1 1 1 1 1 1 1 1 1 1 1 1 1 1 1 1 1 1 1 1 1 1 1 1 1 1 1 1 1 1 1 1 1 1 1 1 1 1 1 1 1 1 1 1 1 1 1 1 1 1 1 1 1 1 1 1 1 1 1 1 1 1 1 1 1 1 1 1 1 1 1 1 1 1 1 1 1 1 1 1 1 1 1 1 1 1 1 1 1 1 1 1 1 1 1 1 1 1 1 1 1 1 1 1 1 1 1 1 1 1 1 1 1 1 1 1 1 1 1 1 1 1 1 1 1 1 1 1 1 1 1 1 1 1 1 1 1 1 1 1 1 1 1 1 1 1 1 1 1 1 1 1 1 1 1 1 1 1 1 1 1 1 1 1 1 1 1 1 1 1 1 1 1 1 1 1 1 1 1 1 1 1 1 1 1 1 1 1 1 1 1 1 1 1 1 1 1 1 1 1 1 1 1 1 1 1 1 1 1 1 1 1 1 1 1 1 1 1 1 1 1 1 1 1 1 1 1 1 1 1 1 1 1 1 1 1 1 1 1 1 1 1 1 1 1 1 1 1 1 1 1 1 1 1 1 1 1 1 1 1 1 1 1 1 1 1 1 1 1 1 1 1 1 1 1 1 1 1 1 1 1 1 1 1 1 1 1 1 1 1 1 1 1 1 1 1 1 1 1 1 1 1 1 1 1 1 1 1 1 1 1 1 1 1 1 1 1 1 1 1 1 1 1 1 1 1 1 1 1 1 1 1 1 1 1 1 1 1 1 1 1 1 1 1 1 1 1 1 1 1 1 1 1 1 1 1 1 1 1 1 1 1 1 1 1 1 1 1 1 1 1 1 1 1 1 1 1 1 1 1 1 1 1 1 1 1 1 1 1 1 1 1 1 1 1 1 1 1 1 1 1 1 1 1 1 1 1 1 1 1 1 1 1 1 1 1 1 1 1 1 1 1 1 1 1 1 1 1 1 1 1 1 1 1 1 1 1 1 1 1 1 1 1 1 1 1 1 1 1 1 1 1 1 1 1 1 1 1 1 1 1 1 1 1 1 1 1 1 1 1 1 1 1 1 1 1 1 1 1 1 1 1 1 1 1 1 1 1 1 1 1 1 1 1 1 1 1 1 1 1 1 1 1 1 1 1 1 1 1 1 1 1 1 1 1 1 1 1 1 1 1 1 1 1 1 1 1 1 1 1 1 1 1 1 1 1 1 1 1 1 1 1 1 1 1 1 1 1 1 1 1 1 1 1 1 1 1 1 1 1 1 1 1 1 1 1 1 1 1 1 1 1 1 1 1 1 1 1 1 1 1 1 1 1 1 1 1 1 1 1 1 1 1 1 1 1 1 1 1 1 1 1 1 1 1 1 1 1 1 1 1 1 1 1 1 1 1 1 1 1 1 1 1 1 1 1 1 1 1 1 1 1 1 1 1 1 1 1 1 1 1 1 1 1 1 1 1 1 1 1 1 1 1 1 1 1 1 1 1 1 1 1 1 1 1 1 1 1 1 1 1 1 1 1 1 1 1 1 1 1 1 1 1 1 1 1 1 1 1 1 1 1 1 1 1 1 1 1 1 1 1 1 1 1 1 1 1 1 1 1 1 1 1 1 1 1 1 1 1 1 1 1 1 1 1 1 1 1 1 1 1 1 1 1 1 1 1 1 1 1 1 1 1 1 1 1 1 1 1 1 1 1 1 1 1 1 1 1 1 1 1 1 1 1 1 1 1 1 1 1 1 1 1 1 1 1 1 1 1 1 1 1 1 1 1 1 1 1 1 1 1 1 1 1 1 1 1 1 1 1 1 1 1 1 1 1 1 1 1 1 1 1 1 1 1 1 1 1 1 1 1 1 1 1 1 1 1 1 1 1 1 1 1 1 1 1 1 1 1 1 1 1 1 1 1 1 1 1 1 1 1 1 1 1 1 1 1 1 1 1 1 1 1 1 1 1 1 1 1 1 1 1 1 1 1 1 1 1 1 1 1 1 1 1 1 1 1 1 1 1 1 1 1 1 1 1 1 1 1 1 1 1 1 1 1 1 1 1 1 1 1 1 1 1 1 1 1 1 1 1 1 1 1 1 1 1 1 1 1 1 1 1 1 1 1 1 1 1 1 1 1 1 1 1 1 1 1 1 1 1 1 1 1 1 1 1 1 1 1 1 1 1 1 1 1 1 1 1 1 1 1 1 1 1 1 1 1 1 1 1 1 1 1 1 1 1 1 1 1 1 1 1 1 1 1 1 1 1 1 1 1 1 1 1 1 1 1 1 1 1 1 1 1 1 1 1 1 1 1 1 1 1 1 1 1 1 1 1 1 1 1 1 1 1 1 1 1 1 1 1 1 1 1 1 1 1 1 1 1 1 1 1 1 1 1 1 1 1 1 1 1 1 1 1 1 1 1 1 1 1 1 1 1 1 1 1 1 1 1 1 1 1 1 1 1 1 1 1 1 1 1 1 1 1 1 1 1 1 1 1 1 1 1 1 1 1 1 1 1 1 1 1 1 1 1 1 1 1 1 1 ]

}

}
