#VRML V2.0 utf8

Shape {

appearance Appearance { material Material {
ambientIntensity 0.3
diffuseColor 0.97647 0.843137 0.172549
specularColor 0.2 0.2 0.2
shininess 0.3
} }

geometry IndexedFaceSet {

creaseAngle 0.5

coord Coordinate { point [
0 0 0,
0 0 0.345,
3.18945 0.828571 0.345,
3.18945 0.843461 0.345,
3.24929 0.851046 0.345,
3.30351 0.851046 0.345,
3.36335 0.828571 0.345,
3.36335 0.843461 0.345,
3.24929 0.97522 0.345,
3.30351 0.976906 0.345,
3.29143 1.00921 0.345,
3.07454 1.19042 0.345,
3.07454 1.20531 0.345,
3.11696 1.18311 0.345,
3.18326 1.18311 0.345,
3.23383 1.19042 0.345,
3.23383 1.20531 0.345,
3.34649 1.19042 0.345,
3.34649 1.20531 0.345,
3.39425 1.18311 0.345,
3.42768 1.18311 0.345,
3.46898 1.19042 0.345,
3.46898 1.20531 0.345,
3.60498 0.828571 0.345,
3.60498 0.843461 0.345,
3.66482 0.851046 0.345,
3.71904 0.851046 0.345,
3.66482 0.97522 0.345,
3.71904 0.976906 0.345,
3.70696 1.00921 0.345,
3.77888 0.828571 0.345,
3.77888 0.843461 0.345,
4.05731 0.819863 0.345,
3.49008 1.19042 0.345,
3.49008 1.20531 0.345,
3.5325 1.18311 0.345,
3.5988 1.18311 0.345,
3.64937 1.19042 0.345,
3.64937 1.20531 0.345,
3.76202 1.19042 0.345,
3.76202 1.20531 0.345,
3.80978 1.18311 0.345,
3.84321 1.18311 0.345,
3.88451 1.19042 0.345,
3.88451 1.20531 0.345,
3.89971 1.19042 0.345,
3.89971 1.20531 0.345,
3.93258 1.18311 0.345,
3.98821 1.18311 0.345,
4.04355 1.19042 0.345,
4.04355 1.20531 0.345,
4.07221 0.819863 0.345,
4.27026 0.819863 0.345,
4.28515 0.819863 0.345,
4.07782 0.91763 0.345,
4.1725 1.07945 0.345,
4.28965 0.91763 0.345,
4.6004 0.819863 0.345,
4.61529 0.819863 0.345,
4.62091 0.91763 0.345,
4.17924 1.1789 0.345,
4.19188 1.1789 0.345,
4.31634 1.19042 0.345,
4.31634 1.20531 0.345,
4.37505 1.18311 0.345,
4.4082 1.18311 0.345,
4.44107 1.19042 0.345,
4.4428 1.19042 0.345,
4.44107 1.20531 0.345,
4.4428 1.20531 0.345,
4.47567 1.18311 0.345,
4.53129 1.18311 0.345,
4.58664 1.19042 0.345,
4.58664 1.20531 0.345,
3.18945 0.828571 0.545,
3.18945 0.843461 0.545,
3.24929 0.851046 0.545,
3.30351 0.851046 0.545,
3.36335 0.828571 0.545,
3.36335 0.843461 0.545,
3.24929 0.97522 0.545,
3.30351 0.976906 0.545,
3.29143 1.00921 0.545,
3.07454 1.19042 0.545,
3.07454 1.20531 0.545,
3.11696 1.18311 0.545,
3.18326 1.18311 0.545,
3.23383 1.19042 0.545,
3.23383 1.20531 0.545,
3.34649 1.19042 0.545,
3.34649 1.20531 0.545,
3.39425 1.18311 0.545,
3.42768 1.18311 0.545,
3.46898 1.19042 0.545,
3.46898 1.20531 0.545,
3.60498 0.828571 0.545,
3.60498 0.843461 0.545,
3.66482 0.851046 0.545,
3.71904 0.851046 0.545,
3.66482 0.97522 0.545,
3.71904 0.976906 0.545,
3.70696 1.00921 0.545,
3.77888 0.828571 0.545,
3.77888 0.843461 0.545,
4.05731 0.819863 0.545,
3.49008 1.19042 0.545,
3.49008 1.20531 0.545,
3.5325 1.18311 0.545,
3.5988 1.18311 0.545,
3.64937 1.19042 0.545,
3.64937 1.20531 0.545,
3.76202 1.19042 0.545,
3.76202 1.20531 0.545,
3.80978 1.18311 0.545,
3.84321 1.18311 0.545,
3.88451 1.19042 0.545,
3.88451 1.20531 0.545,
3.89971 1.19042 0.545,
3.89971 1.20531 0.545,
3.93258 1.18311 0.545,
3.98821 1.18311 0.545,
4.04355 1.19042 0.545,
4.04355 1.20531 0.545,
4.07221 0.819863 0.545,
4.27026 0.819863 0.545,
4.28515 0.819863 0.545,
4.07782 0.91763 0.545,
4.1725 1.07945 0.545,
4.28965 0.91763 0.545,
4.6004 0.819863 0.545,
4.61529 0.819863 0.545,
4.62091 0.91763 0.545,
4.17924 1.1789 0.545,
4.19188 1.1789 0.545,
4.31634 1.19042 0.545,
4.31634 1.20531 0.545,
4.37505 1.18311 0.545,
4.4082 1.18311 0.545,
4.44107 1.19042 0.545,
4.4428 1.19042 0.545,
4.44107 1.20531 0.545,
4.4428 1.20531 0.545,
4.47567 1.18311 0.545,
4.53129 1.18311 0.545,
4.58664 1.19042 0.545,
4.58664 1.20531 0.545,
4.09596 1.65714 0.345,
4.09596 1.67203 0.345,
4.14428 1.67962 0.345,
4.19822 1.67962 0.345,
4.24654 1.65714 0.345,
4.24654 1.67203 0.345,
4.28757 1.65714 0.345,
4.28757 1.67203 0.345,
4.33589 1.67962 0.345,
4.38983 1.67962 0.345,
4.43815 1.65714 0.345,
4.43815 1.67203 0.345,
4.47918 1.65714 0.345,
4.47918 1.67203 0.345,
4.5275 1.67962 0.345,
4.62976 1.65714 0.345,
4.62976 1.67203 0.345,
4.58144 1.67962 0.345,
4.09596 2.01899 0.345,
4.09596 2.03388 0.345,
4.14428 2.01168 0.345,
4.19822 2.01168 0.345,
4.24654 2.01899 0.345,
4.24654 2.03388 0.345,
4.28757 2.01899 0.345,
4.28757 2.03388 0.345,
4.33589 2.01168 0.345,
4.38983 2.01168 0.345,
4.43815 2.01899 0.345,
4.43815 2.03388 0.345,
4.47918 2.01899 0.345,
4.47918 2.03388 0.345,
4.5275 2.01168 0.345,
4.58144 2.01168 0.345,
4.62976 2.01899 0.345,
4.62976 2.03388 0.345,
3.6054 2.52996 0.345,
3.66665 2.49256 0.345,
3.69028 2.51254 0.345,
3.74812 2.4801 0.345,
3.74868 2.50173 0.345,
3.81688 2.48452 0.345,
3.7798 2.50366 0.345,
3.80908 2.50945 0.345,
3.83451 2.51848 0.345,
3.881 2.49779 0.345,
3.85403 2.5301 0.345,
3.93469 2.48571 0.345,
3.93469 2.5006 0.345,
3.97936 2.50819 0.345,
4.03358 2.50819 0.345,
3.56706 2.58984 0.345,
3.62166 2.59795 0.345,
3.55427 2.66973 0.345,
3.61299 2.67029 0.345,
3.64769 2.54499 0.345,
3.56656 2.7551 0.345,
3.62128 2.74769 0.345,
3.60344 2.8168 0.345,
3.64614 2.80177 0.345,
3.66447 2.8542 0.345,
3.68905 2.83359 0.345,
3.75149 2.84419 0.345,
3.74924 2.86667 0.345,
3.86443 2.58629 0.345,
3.88269 2.58629 0.345,
4.03358 2.63349 0.345,
4.03358 2.65877 0.345,
4.0628 2.65877 0.345,
3.85853 2.77002 0.345,
3.87707 2.77002 0.345,
3.77822 2.84254 0.345,
3.80445 2.83759 0.345,
3.82885 2.82962 0.345,
3.8501 2.81891 0.345,
3.81014 2.86308 0.345,
3.87539 2.85234 0.345,
3.93104 2.84756 0.345,
3.97936 2.84026 0.345,
3.93104 2.86245 0.345,
4.03358 2.83717 0.345,
4.06111 2.83717 0.345,
4.09342 2.48571 0.345,
4.09342 2.5006 0.345,
4.25104 2.48571 0.345,
4.25104 2.5006 0.345,
4.29937 2.50819 0.345,
4.32886 2.50819 0.345,
4.37943 2.48571 0.345,
4.37943 2.5006 0.345,
4.5612 2.48571 0.345,
4.58845 2.48571 0.345,
4.076 2.63349 0.345,
4.10406 2.66418 0.345,
4.13384 2.641 0.345,
4.13289 2.6804 0.345,
4.17643 2.66355 0.345,
4.14985 2.70885 0.345,
4.20267 2.70056 0.345,
4.1555 2.75092 0.345,
4.21141 2.75148 0.345,
4.1501 2.79067 0.345,
4.10487 2.83218 0.345,
4.13387 2.81722 0.345,
4.07319 2.86245 0.345,
4.17686 2.83471 0.345,
4.25104 2.84756 0.345,
4.25104 2.86245 0.345,
4.29937 2.84026 0.345,
4.32886 2.82453 0.345,
4.55895 2.58348 0.345,
4.3651 2.86245 0.345,
4.50838 2.84756 0.345,
4.55895 2.84026 0.345,
4.50838 2.86245 0.345,
4.58845 2.84026 0.345,
4.63677 2.84756 0.345,
4.63677 2.86245 0.345,
4.09596 1.65714 0.545,
4.09596 1.67203 0.545,
4.14428 1.67962 0.545,
4.19822 1.67962 0.545,
4.24654 1.65714 0.545,
4.24654 1.67203 0.545,
4.28757 1.65714 0.545,
4.28757 1.67203 0.545,
4.33589 1.67962 0.545,
4.38983 1.67962 0.545,
4.43815 1.65714 0.545,
4.43815 1.67203 0.545,
4.47918 1.65714 0.545,
4.47918 1.67203 0.545,
4.5275 1.67962 0.545,
4.62976 1.65714 0.545,
4.62976 1.67203 0.545,
4.58144 1.67962 0.545,
4.09596 2.01899 0.545,
4.09596 2.03388 0.545,
4.14428 2.01168 0.545,
4.19822 2.01168 0.545,
4.24654 2.01899 0.545,
4.24654 2.03388 0.545,
4.28757 2.01899 0.545,
4.28757 2.03388 0.545,
4.33589 2.01168 0.545,
4.38983 2.01168 0.545,
4.43815 2.01899 0.545,
4.43815 2.03388 0.545,
4.47918 2.01899 0.545,
4.47918 2.03388 0.545,
4.5275 2.01168 0.545,
4.58144 2.01168 0.545,
4.62976 2.01899 0.545,
4.62976 2.03388 0.545,
3.6054 2.52996 0.545,
3.66665 2.49256 0.545,
3.69028 2.51254 0.545,
3.74812 2.4801 0.545,
3.74868 2.50173 0.545,
3.81688 2.48452 0.545,
3.7798 2.50366 0.545,
3.80908 2.50945 0.545,
3.83451 2.51848 0.545,
3.881 2.49779 0.545,
3.85403 2.5301 0.545,
3.93469 2.48571 0.545,
3.93469 2.5006 0.545,
3.97936 2.50819 0.545,
4.03358 2.50819 0.545,
3.56706 2.58984 0.545,
3.62166 2.59795 0.545,
3.55427 2.66973 0.545,
3.61299 2.67029 0.545,
3.64769 2.54499 0.545,
3.56656 2.7551 0.545,
3.62128 2.74769 0.545,
3.60344 2.8168 0.545,
3.64614 2.80177 0.545,
3.66447 2.8542 0.545,
3.68905 2.83359 0.545,
3.75149 2.84419 0.545,
3.74924 2.86667 0.545,
3.86443 2.58629 0.545,
3.88269 2.58629 0.545,
4.03358 2.63349 0.545,
4.03358 2.65877 0.545,
4.0628 2.65877 0.545,
3.85853 2.77002 0.545,
3.87707 2.77002 0.545,
3.77822 2.84254 0.545,
3.80445 2.83759 0.545,
3.82885 2.82962 0.545,
3.8501 2.81891 0.545,
3.81014 2.86308 0.545,
3.87539 2.85234 0.545,
3.93104 2.84756 0.545,
3.97936 2.84026 0.545,
3.93104 2.86245 0.545,
4.03358 2.83717 0.545,
4.06111 2.83717 0.545,
4.09342 2.48571 0.545,
4.09342 2.5006 0.545,
4.25104 2.48571 0.545,
4.25104 2.5006 0.545,
4.29937 2.50819 0.545,
4.32886 2.50819 0.545,
4.37943 2.48571 0.545,
4.37943 2.5006 0.545,
4.5612 2.48571 0.545,
4.58845 2.48571 0.545,
4.076 2.63349 0.545,
4.10406 2.66418 0.545,
4.13384 2.641 0.545,
4.13289 2.6804 0.545,
4.17643 2.66355 0.545,
4.14985 2.70885 0.545,
4.20267 2.70056 0.545,
4.1555 2.75092 0.545,
4.21141 2.75148 0.545,
4.1501 2.79067 0.545,
4.10487 2.83218 0.545,
4.13387 2.81722 0.545,
4.07319 2.86245 0.545,
4.17686 2.83471 0.545,
4.25104 2.84756 0.545,
4.25104 2.86245 0.545,
4.29937 2.84026 0.545,
4.32886 2.82453 0.545,
4.55895 2.58348 0.545,
4.3651 2.86245 0.545,
4.50838 2.84756 0.545,
4.55895 2.84026 0.545,
4.50838 2.86245 0.545,
4.58845 2.84026 0.545,
4.63677 2.84756 0.545,
4.63677 2.86245 0.545,
0 5.8 0,
0.863201 4.91735 0.345,
0.758118 4.99032 0.345,
0.99192 4.89303 0.345,
1.12063 4.91735 0.345,
0 5.8 0.345,
0.688199 5.09643 0.345,
0.664892 5.2201 0.345,
0.688537 5.34711 0.345,
0.759473 5.4525 0.345,
0.864895 5.52347 0.345,
0.99192 5.54713 0.345,
1.11893 5.52347 0.345,
1.22568 4.99032 0.345,
1.29563 5.09643 0.345,
1.31895 5.2201 0.345,
1.29529 5.34711 0.345,
1.22433 5.4525 0.345,
0.863201 4.91735 0.545,
0.758118 4.99032 0.545,
0.99192 4.89303 0.545,
1.12063 4.91735 0.545,
0.688199 5.09643 0.545,
0.664892 5.2201 0.545,
0.688537 5.34711 0.545,
0.759473 5.4525 0.545,
0.864895 5.52347 0.545,
0.99192 5.54713 0.545,
1.11893 5.52347 0.545,
1.22568 4.99032 0.545,
1.29563 5.09643 0.545,
1.31895 5.2201 0.545,
1.29529 5.34711 0.545,
1.22433 5.4525 0.545,
2.76619 4.14286 0.345,
2.76619 4.16966 0.345,
2.85317 4.18331 0.345,
2.99728 4.14286 0.345,
3.15456 4.14286 0.345,
3.17225 4.14286 0.345,
2.90626 4.18331 0.345,
2.99728 4.16966 0.345,
3.19198 4.30518 0.345,
3.35177 4.14286 0.345,
3.35177 4.16966 0.345,
3.4428 4.18331 0.345,
3.6054 3.35853 0.345,
3.56706 3.41841 0.345,
3.62166 3.42652 0.345,
3.66665 3.32113 0.345,
3.69028 3.34111 0.345,
3.74812 3.30867 0.345,
3.74868 3.3303 0.345,
3.64769 3.37356 0.345,
3.55427 3.4983 0.345,
3.61299 3.49886 0.345,
3.62128 3.57626 0.345,
3.56656 3.58367 0.345,
3.7798 3.33223 0.345,
3.80908 3.33802 0.345,
3.81688 3.31309 0.345,
3.83451 3.34705 0.345,
3.881 3.32637 0.345,
3.85403 3.35867 0.345,
3.86443 3.41486 0.345,
3.88269 3.41486 0.345,
3.93469 3.31429 0.345,
3.93469 3.32918 0.345,
3.97936 3.33676 0.345,
4.03358 3.33676 0.345,
3.85853 3.59859 0.345,
3.87707 3.59859 0.345,
4.03358 3.46206 0.345,
4.03358 3.48735 0.345,
4.0628 3.48735 0.345,
4.09342 3.31429 0.345,
4.09342 3.32918 0.345,
4.25104 3.31429 0.345,
4.25104 3.32918 0.345,
4.29937 3.33676 0.345,
4.32886 3.33676 0.345,
4.076 3.46206 0.345,
4.13384 3.46957 0.345,
4.10406 3.49275 0.345,
4.13289 3.50898 0.345,
4.17643 3.49212 0.345,
4.20267 3.52913 0.345,
4.14985 3.53742 0.345,
4.1555 3.57949 0.345,
4.1501 3.61924 0.345,
4.21141 3.58005 0.345,
4.37943 3.31429 0.345,
4.37943 3.32918 0.345,
4.5612 3.31429 0.345,
4.58845 3.31429 0.345,
4.55895 3.41205 0.345,
3.60344 3.64537 0.345,
3.64614 3.63034 0.345,
3.68905 3.66216 0.345,
3.66447 3.68277 0.345,
3.75149 3.67276 0.345,
3.74924 3.69524 0.345,
3.80445 3.66616 0.345,
3.8501 3.64748 0.345,
3.82885 3.65819 0.345,
3.77822 3.67111 0.345,
3.81014 3.69166 0.345,
3.87539 3.68091 0.345,
3.97936 3.66883 0.345,
3.93104 3.67614 0.345,
3.93104 3.69102 0.345,
4.03358 3.66574 0.345,
4.06111 3.66574 0.345,
3.62687 4.14286 0.345,
3.53989 4.18331 0.345,
3.62687 4.16966 0.345,
3.95261 4.14286 0.345,
3.95261 4.16966 0.345,
4.03301 4.18331 0.345,
4.10487 3.66075 0.345,
4.13387 3.64579 0.345,
4.07319 3.69102 0.345,
4.17686 3.66328 0.345,
4.25104 3.67614 0.345,
4.25104 3.69102 0.345,
4.29937 3.66883 0.345,
4.32886 3.6531 0.345,
4.3651 3.69102 0.345,
4.55895 3.66883 0.345,
4.50838 3.67614 0.345,
4.50838 3.69102 0.345,
4.58845 3.66883 0.345,
4.63677 3.67614 0.345,
4.63677 3.69102 0.345,
4.23832 4.14286 0.345,
4.13061 4.18331 0.345,
4.23832 4.16966 0.345,
4.52963 4.14286 0.345,
4.52963 4.16966 0.345,
4.61661 4.18331 0.345,
2.76619 4.14286 0.545,
2.76619 4.16966 0.545,
2.85317 4.18331 0.545,
2.99728 4.14286 0.545,
3.15456 4.14286 0.545,
3.17225 4.14286 0.545,
2.90626 4.18331 0.545,
2.99728 4.16966 0.545,
3.19198 4.30518 0.545,
3.35177 4.14286 0.545,
3.35177 4.16966 0.545,
3.4428 4.18331 0.545,
3.6054 3.35853 0.545,
3.56706 3.41841 0.545,
3.62166 3.42652 0.545,
3.66665 3.32113 0.545,
3.69028 3.34111 0.545,
3.74812 3.30867 0.545,
3.74868 3.3303 0.545,
3.64769 3.37356 0.545,
3.55427 3.4983 0.545,
3.61299 3.49886 0.545,
3.62128 3.57626 0.545,
3.56656 3.58367 0.545,
3.7798 3.33223 0.545,
3.80908 3.33802 0.545,
3.81688 3.31309 0.545,
3.83451 3.34705 0.545,
3.881 3.32637 0.545,
3.85403 3.35867 0.545,
3.86443 3.41486 0.545,
3.88269 3.41486 0.545,
3.93469 3.31429 0.545,
3.93469 3.32918 0.545,
3.97936 3.33676 0.545,
4.03358 3.33676 0.545,
3.85853 3.59859 0.545,
3.87707 3.59859 0.545,
4.03358 3.46206 0.545,
4.03358 3.48735 0.545,
4.0628 3.48735 0.545,
4.09342 3.31429 0.545,
4.09342 3.32918 0.545,
4.25104 3.31429 0.545,
4.25104 3.32918 0.545,
4.29937 3.33676 0.545,
4.32886 3.33676 0.545,
4.076 3.46206 0.545,
4.13384 3.46957 0.545,
4.10406 3.49275 0.545,
4.13289 3.50898 0.545,
4.17643 3.49212 0.545,
4.20267 3.52913 0.545,
4.14985 3.53742 0.545,
4.1555 3.57949 0.545,
4.1501 3.61924 0.545,
4.21141 3.58005 0.545,
4.37943 3.31429 0.545,
4.37943 3.32918 0.545,
4.5612 3.31429 0.545,
4.58845 3.31429 0.545,
4.55895 3.41205 0.545,
3.60344 3.64537 0.545,
3.64614 3.63034 0.545,
3.68905 3.66216 0.545,
3.66447 3.68277 0.545,
3.75149 3.67276 0.545,
3.74924 3.69524 0.545,
3.80445 3.66616 0.545,
3.8501 3.64748 0.545,
3.82885 3.65819 0.545,
3.77822 3.67111 0.545,
3.81014 3.69166 0.545,
3.87539 3.68091 0.545,
3.97936 3.66883 0.545,
3.93104 3.67614 0.545,
3.93104 3.69102 0.545,
4.03358 3.66574 0.545,
4.06111 3.66574 0.545,
3.62687 4.14286 0.545,
3.53989 4.18331 0.545,
3.62687 4.16966 0.545,
3.95261 4.14286 0.545,
3.95261 4.16966 0.545,
4.03301 4.18331 0.545,
4.10487 3.66075 0.545,
4.13387 3.64579 0.545,
4.07319 3.69102 0.545,
4.17686 3.66328 0.545,
4.25104 3.67614 0.545,
4.25104 3.69102 0.545,
4.29937 3.66883 0.545,
4.32886 3.6531 0.545,
4.3651 3.69102 0.545,
4.55895 3.66883 0.545,
4.50838 3.67614 0.545,
4.50838 3.69102 0.545,
4.58845 3.66883 0.545,
4.63677 3.67614 0.545,
4.63677 3.69102 0.545,
4.23832 4.14286 0.545,
4.13061 4.18331 0.545,
4.23832 4.16966 0.545,
4.52963 4.14286 0.545,
4.52963 4.16966 0.545,
4.61661 4.18331 0.545,
2.76619 4.79419 0.345,
2.85317 4.78103 0.345,
2.76619 4.82099 0.345,
2.90626 4.72592 0.345,
2.9715 4.82099 0.345,
3.4428 4.72592 0.345,
3.43268 4.82099 0.345,
3.53989 4.78103 0.345,
3.62687 4.79419 0.345,
3.62687 4.82099 0.345,
3.94603 4.79419 0.345,
4.03301 4.78103 0.345,
3.94603 4.82099 0.345,
4.13061 4.40885 0.345,
4.20697 4.40885 0.345,
4.13061 4.45436 0.345,
4.1832 4.45436 0.345,
4.31108 4.42237 0.345,
4.25747 4.4641 0.345,
4.30937 4.4933 0.345,
4.3399 4.5445 0.345,
4.35008 4.62023 0.345,
4.34034 4.69178 0.345,
4.38775 4.46295 0.345,
4.43497 4.52958 0.345,
4.45071 4.62124 0.345,
4.13061 4.77547 0.345,
4.18017 4.77547 0.345,
4.20191 4.82099 0.345,
4.25893 4.76649 0.345,
4.31114 4.73956 0.345,
4.38851 4.77105 0.345,
4.52963 4.79419 0.345,
4.61661 4.78103 0.345,
4.52963 4.82099 0.345,
2.76619 4.79419 0.545,
2.85317 4.78103 0.545,
2.76619 4.82099 0.545,
2.90626 4.72592 0.545,
2.9715 4.82099 0.545,
3.4428 4.72592 0.545,
3.43268 4.82099 0.545,
3.53989 4.78103 0.545,
3.62687 4.79419 0.545,
3.62687 4.82099 0.545,
3.94603 4.79419 0.545,
4.03301 4.78103 0.545,
3.94603 4.82099 0.545,
4.13061 4.40885 0.545,
4.20697 4.40885 0.545,
4.13061 4.45436 0.545,
4.1832 4.45436 0.545,
4.31108 4.42237 0.545,
4.25747 4.4641 0.545,
4.30937 4.4933 0.545,
4.3399 4.5445 0.545,
4.35008 4.62023 0.545,
4.34034 4.69178 0.545,
4.38775 4.46295 0.545,
4.43497 4.52958 0.545,
4.45071 4.62124 0.545,
4.13061 4.77547 0.545,
4.18017 4.77547 0.545,
4.20191 4.82099 0.545,
4.25893 4.76649 0.545,
4.31114 4.73956 0.545,
4.38851 4.77105 0.545,
4.52963 4.79419 0.545,
4.61661 4.78103 0.545,
4.52963 4.82099 0.545,
9.3 0 0,
4.81335 0.819863 0.345,
4.82824 0.819863 0.345,
4.71559 1.07945 0.345,
4.83274 0.91763 0.345,
5.0019 0.828571 0.345,
5.0019 0.843461 0.345,
5.05022 0.851046 0.345,
5.07972 0.851046 0.345,
5.13028 0.828571 0.345,
5.13028 0.843461 0.345,
4.72233 1.1789 0.345,
4.73497 1.1789 0.345,
4.85943 1.19042 0.345,
4.85943 1.20531 0.345,
4.91814 1.18311 0.345,
5.07972 1.16738 0.345,
4.95129 1.18311 0.345,
4.98416 1.19042 0.345,
5.0019 1.19042 0.345,
4.98416 1.20531 0.345,
5.0019 1.20531 0.345,
5.05022 1.18311 0.345,
5.11596 1.20531 0.345,
5.31205 0.828571 0.345,
5.3393 0.828571 0.345,
5.41743 0.828571 0.345,
5.41743 0.843461 0.345,
5.46575 0.851046 0.345,
5.49525 0.851046 0.345,
5.3098 0.926339 0.345,
5.54582 0.828571 0.345,
5.54582 0.843461 0.345,
5.72758 0.828571 0.345,
5.75484 0.828571 0.345,
5.72533 0.926339 0.345,
5.25923 1.19042 0.345,
5.25923 1.20531 0.345,
5.3098 1.18311 0.345,
5.3393 1.18311 0.345,
5.49525 1.16738 0.345,
5.38763 1.19042 0.345,
5.38763 1.20531 0.345,
5.41743 1.19042 0.345,
5.41743 1.20531 0.345,
5.46575 1.18311 0.345,
5.53149 1.20531 0.345,
5.67477 1.19042 0.345,
5.67477 1.20531 0.345,
5.72533 1.18311 0.345,
5.75484 1.18311 0.345,
5.80316 1.19042 0.345,
5.80316 1.20531 0.345,
5.83296 0.828571 0.345,
5.83296 0.843461 0.345,
5.88128 0.851046 0.345,
5.91078 0.851046 0.345,
5.96135 0.828571 0.345,
5.96135 0.843461 0.345,
6.14312 0.828571 0.345,
6.17037 0.828571 0.345,
6.14087 0.926339 0.345,
5.91078 1.16738 0.345,
5.83296 1.19042 0.345,
5.83296 1.20531 0.345,
5.88128 1.18311 0.345,
5.94702 1.20531 0.345,
6.0903 1.19042 0.345,
6.0903 1.20531 0.345,
6.14087 1.18311 0.345,
6.17037 1.18311 0.345,
6.21869 1.19042 0.345,
6.21869 1.20531 0.345,
4.81335 0.819863 0.545,
4.82824 0.819863 0.545,
4.71559 1.07945 0.545,
4.83274 0.91763 0.545,
5.0019 0.828571 0.545,
5.0019 0.843461 0.545,
5.05022 0.851046 0.545,
5.07972 0.851046 0.545,
5.13028 0.828571 0.545,
5.13028 0.843461 0.545,
4.72233 1.1789 0.545,
4.73497 1.1789 0.545,
4.85943 1.19042 0.545,
4.85943 1.20531 0.545,
4.91814 1.18311 0.545,
5.07972 1.16738 0.545,
4.95129 1.18311 0.545,
4.98416 1.19042 0.545,
5.0019 1.19042 0.545,
4.98416 1.20531 0.545,
5.0019 1.20531 0.545,
5.05022 1.18311 0.545,
5.11596 1.20531 0.545,
5.31205 0.828571 0.545,
5.3393 0.828571 0.545,
5.41743 0.828571 0.545,
5.41743 0.843461 0.545,
5.46575 0.851046 0.545,
5.49525 0.851046 0.545,
5.3098 0.926339 0.545,
5.54582 0.828571 0.545,
5.54582 0.843461 0.545,
5.72758 0.828571 0.545,
5.75484 0.828571 0.545,
5.72533 0.926339 0.545,
5.25923 1.19042 0.545,
5.25923 1.20531 0.545,
5.3098 1.18311 0.545,
5.3393 1.18311 0.545,
5.49525 1.16738 0.545,
5.38763 1.19042 0.545,
5.38763 1.20531 0.545,
5.41743 1.19042 0.545,
5.41743 1.20531 0.545,
5.46575 1.18311 0.545,
5.53149 1.20531 0.545,
5.67477 1.19042 0.545,
5.67477 1.20531 0.545,
5.72533 1.18311 0.545,
5.75484 1.18311 0.545,
5.80316 1.19042 0.545,
5.80316 1.20531 0.545,
5.83296 0.828571 0.545,
5.83296 0.843461 0.545,
5.88128 0.851046 0.545,
5.91078 0.851046 0.545,
5.96135 0.828571 0.545,
5.96135 0.843461 0.545,
6.14312 0.828571 0.545,
6.17037 0.828571 0.545,
6.14087 0.926339 0.545,
5.91078 1.16738 0.545,
5.83296 1.19042 0.545,
5.83296 1.20531 0.545,
5.88128 1.18311 0.545,
5.94702 1.20531 0.545,
6.0903 1.19042 0.545,
6.0903 1.20531 0.545,
6.14087 1.18311 0.545,
6.17037 1.18311 0.545,
6.21869 1.19042 0.545,
6.21869 1.20531 0.545,
4.67079 1.65714 0.345,
4.67079 1.67203 0.345,
4.71911 1.67962 0.345,
4.77305 1.67962 0.345,
4.82137 1.65714 0.345,
4.82137 1.67203 0.345,
4.8624 1.65714 0.345,
4.8624 1.67203 0.345,
4.91072 1.67962 0.345,
5.01298 1.65714 0.345,
5.01298 1.67203 0.345,
4.96466 1.67962 0.345,
5.05401 1.65714 0.345,
5.05401 1.67203 0.345,
5.10233 1.67962 0.345,
5.15627 1.67962 0.345,
5.2046 1.65714 0.345,
5.2046 1.67203 0.345,
4.67079 2.01899 0.345,
4.67079 2.03388 0.345,
4.71911 2.01168 0.345,
4.77305 2.01168 0.345,
4.82137 2.01899 0.345,
4.82137 2.03388 0.345,
4.8624 2.01899 0.345,
4.8624 2.03388 0.345,
4.91072 2.01168 0.345,
4.96466 2.01168 0.345,
5.01298 2.01899 0.345,
5.01298 2.03388 0.345,
5.05401 2.01899 0.345,
5.05401 2.03388 0.345,
5.10233 2.01168 0.345,
5.15627 2.01168 0.345,
5.2046 2.01899 0.345,
5.2046 2.03388 0.345,
4.72473 2.52996 0.345,
4.78597 2.49256 0.345,
4.86745 2.4801 0.345,
4.80961 2.51254 0.345,
4.9362 2.48452 0.345,
4.86801 2.50173 0.345,
4.89912 2.50366 0.345,
4.92841 2.50945 0.345,
4.95383 2.51848 0.345,
4.97336 2.5301 0.345,
5.00033 2.49779 0.345,
5.05402 2.48571 0.345,
5.05402 2.5006 0.345,
5.09868 2.50819 0.345,
5.15291 2.50819 0.345,
5.21274 2.48571 0.345,
5.21274 2.5006 0.345,
4.68638 2.58984 0.345,
4.76701 2.54499 0.345,
4.74099 2.59795 0.345,
4.6736 2.66973 0.345,
4.73231 2.67029 0.345,
4.68589 2.7551 0.345,
4.7406 2.74769 0.345,
4.76547 2.80177 0.345,
4.72276 2.8168 0.345,
4.7838 2.8542 0.345,
4.80838 2.83359 0.345,
4.87082 2.84419 0.345,
4.89754 2.84254 0.345,
4.92377 2.83759 0.345,
4.86857 2.86667 0.345,
4.92946 2.86308 0.345,
4.98375 2.58629 0.345,
5.00201 2.58629 0.345,
5.09868 2.62018 0.345,
5.15291 2.58636 0.345,
5.15291 2.63349 0.345,
5.15291 2.65877 0.345,
5.18212 2.65877 0.345,
5.19532 2.63349 0.345,
5.22338 2.66418 0.345,
4.97785 2.77002 0.345,
4.9964 2.77002 0.345,
4.94818 2.82962 0.345,
4.96943 2.81891 0.345,
4.99471 2.85234 0.345,
5.05036 2.84756 0.345,
5.05036 2.86245 0.345,
5.09868 2.84026 0.345,
5.15291 2.83717 0.345,
5.18043 2.83717 0.345,
5.22419 2.83218 0.345,
5.19252 2.86245 0.345,
5.37037 2.48571 0.345,
5.37037 2.5006 0.345,
5.41869 2.50819 0.345,
5.44819 2.50819 0.345,
5.49876 2.48571 0.345,
5.49876 2.5006 0.345,
5.68052 2.48571 0.345,
5.70777 2.48571 0.345,
5.25316 2.641 0.345,
5.29576 2.66355 0.345,
5.25221 2.6804 0.345,
5.26918 2.70885 0.345,
5.32199 2.70056 0.345,
5.27483 2.75092 0.345,
5.26942 2.79067 0.345,
5.33074 2.75148 0.345,
5.2532 2.81722 0.345,
5.29618 2.83471 0.345,
5.37037 2.84756 0.345,
5.37037 2.86245 0.345,
5.44819 2.82453 0.345,
5.41869 2.84026 0.345,
5.48443 2.86245 0.345,
5.67827 2.58348 0.345,
5.62771 2.84756 0.345,
5.62771 2.86245 0.345,
5.67827 2.84026 0.345,
5.70777 2.84026 0.345,
5.7561 2.84756 0.345,
5.7561 2.86245 0.345,
4.67079 1.65714 0.545,
4.67079 1.67203 0.545,
4.71911 1.67962 0.545,
4.77305 1.67962 0.545,
4.82137 1.65714 0.545,
4.82137 1.67203 0.545,
4.8624 1.65714 0.545,
4.8624 1.67203 0.545,
4.91072 1.67962 0.545,
5.01298 1.65714 0.545,
5.01298 1.67203 0.545,
4.96466 1.67962 0.545,
5.05401 1.65714 0.545,
5.05401 1.67203 0.545,
5.10233 1.67962 0.545,
5.15627 1.67962 0.545,
5.2046 1.65714 0.545,
5.2046 1.67203 0.545,
4.67079 2.01899 0.545,
4.67079 2.03388 0.545,
4.71911 2.01168 0.545,
4.77305 2.01168 0.545,
4.82137 2.01899 0.545,
4.82137 2.03388 0.545,
4.8624 2.01899 0.545,
4.8624 2.03388 0.545,
4.91072 2.01168 0.545,
4.96466 2.01168 0.545,
5.01298 2.01899 0.545,
5.01298 2.03388 0.545,
5.05401 2.01899 0.545,
5.05401 2.03388 0.545,
5.10233 2.01168 0.545,
5.15627 2.01168 0.545,
5.2046 2.01899 0.545,
5.2046 2.03388 0.545,
4.72473 2.52996 0.545,
4.78597 2.49256 0.545,
4.86745 2.4801 0.545,
4.80961 2.51254 0.545,
4.9362 2.48452 0.545,
4.86801 2.50173 0.545,
4.89912 2.50366 0.545,
4.92841 2.50945 0.545,
4.95383 2.51848 0.545,
4.97336 2.5301 0.545,
5.00033 2.49779 0.545,
5.05402 2.48571 0.545,
5.05402 2.5006 0.545,
5.09868 2.50819 0.545,
5.15291 2.50819 0.545,
5.21274 2.48571 0.545,
5.21274 2.5006 0.545,
4.68638 2.58984 0.545,
4.76701 2.54499 0.545,
4.74099 2.59795 0.545,
4.6736 2.66973 0.545,
4.73231 2.67029 0.545,
4.68589 2.7551 0.545,
4.7406 2.74769 0.545,
4.76547 2.80177 0.545,
4.72276 2.8168 0.545,
4.7838 2.8542 0.545,
4.80838 2.83359 0.545,
4.87082 2.84419 0.545,
4.89754 2.84254 0.545,
4.92377 2.83759 0.545,
4.86857 2.86667 0.545,
4.92946 2.86308 0.545,
4.98375 2.58629 0.545,
5.00201 2.58629 0.545,
5.15291 2.63349 0.545,
5.15291 2.65877 0.545,
5.18212 2.65877 0.545,
5.19532 2.63349 0.545,
5.22338 2.66418 0.545,
4.97785 2.77002 0.545,
4.9964 2.77002 0.545,
4.94818 2.82962 0.545,
4.96943 2.81891 0.545,
4.99471 2.85234 0.545,
5.05036 2.84756 0.545,
5.05036 2.86245 0.545,
5.09868 2.84026 0.545,
5.15291 2.83717 0.545,
5.18043 2.83717 0.545,
5.22419 2.83218 0.545,
5.19252 2.86245 0.545,
5.37037 2.48571 0.545,
5.37037 2.5006 0.545,
5.41869 2.50819 0.545,
5.44819 2.50819 0.545,
5.49876 2.48571 0.545,
5.49876 2.5006 0.545,
5.68052 2.48571 0.545,
5.70777 2.48571 0.545,
5.25316 2.641 0.545,
5.29576 2.66355 0.545,
5.25221 2.6804 0.545,
5.26918 2.70885 0.545,
5.32199 2.70056 0.545,
5.27483 2.75092 0.545,
5.26942 2.79067 0.545,
5.33074 2.75148 0.545,
5.2532 2.81722 0.545,
5.29618 2.83471 0.545,
5.37037 2.84756 0.545,
5.37037 2.86245 0.545,
5.44819 2.82453 0.545,
5.41869 2.84026 0.545,
5.48443 2.86245 0.545,
5.67827 2.58348 0.545,
5.62771 2.84756 0.545,
5.62771 2.86245 0.545,
5.67827 2.84026 0.545,
5.70777 2.84026 0.545,
5.7561 2.84756 0.545,
5.7561 2.86245 0.545,
9.3 0 0.345,
9.3 5.8 0,
4.78597 3.32113 0.345,
4.68638 3.41841 0.345,
4.72473 3.35853 0.345,
4.76701 3.37356 0.345,
4.74099 3.42652 0.345,
4.80961 3.34111 0.345,
4.86745 3.30867 0.345,
4.86801 3.3303 0.345,
4.89912 3.33223 0.345,
4.9362 3.31309 0.345,
4.92841 3.33802 0.345,
4.6736 3.4983 0.345,
4.73231 3.49886 0.345,
4.68589 3.58367 0.345,
4.7406 3.57626 0.345,
4.95383 3.34705 0.345,
5.00033 3.32637 0.345,
5.05402 3.31429 0.345,
5.05402 3.32918 0.345,
4.97336 3.35867 0.345,
4.98375 3.41486 0.345,
5.00201 3.41486 0.345,
5.09868 3.33676 0.345,
5.15291 3.33676 0.345,
5.21274 3.31429 0.345,
5.21274 3.32918 0.345,
4.97785 3.59859 0.345,
4.9964 3.59859 0.345,
5.15291 3.46206 0.345,
5.15291 3.48735 0.345,
5.18212 3.48735 0.345,
5.19532 3.46206 0.345,
5.22338 3.49275 0.345,
5.37037 3.31429 0.345,
5.37037 3.32918 0.345,
5.41869 3.33676 0.345,
5.44819 3.33676 0.345,
5.49876 3.31429 0.345,
5.49876 3.32918 0.345,
5.25316 3.46957 0.345,
5.25221 3.50898 0.345,
5.29576 3.49212 0.345,
5.32199 3.52913 0.345,
5.26918 3.53742 0.345,
5.27483 3.57949 0.345,
5.26942 3.61924 0.345,
5.33074 3.58005 0.345,
5.68052 3.31429 0.345,
5.70777 3.31429 0.345,
5.67827 3.41205 0.345,
4.72276 3.64537 0.345,
4.76547 3.63034 0.345,
4.7838 3.68277 0.345,
4.80838 3.66216 0.345,
4.92377 3.66616 0.345,
4.87082 3.67276 0.345,
4.89754 3.67111 0.345,
4.86857 3.69524 0.345,
4.92946 3.69166 0.345,
4.96943 3.64748 0.345,
4.94818 3.65819 0.345,
4.99471 3.68091 0.345,
5.05036 3.67614 0.345,
5.05036 3.69102 0.345,
5.09868 3.66883 0.345,
5.15291 3.66574 0.345,
5.18043 3.66574 0.345,
5.22419 3.66075 0.345,
5.19252 3.69102 0.345,
4.80068 4.14286 0.345,
4.7137 4.18331 0.345,
4.80068 4.16966 0.345,
4.9026 4.33028 0.345,
5.08186 4.15518 0.345,
5.22851 4.13275 0.345,
4.97162 4.2225 0.345,
5.04773 4.24955 0.345,
5.00089 4.34488 0.345,
5.12441 4.19115 0.345,
5.22953 4.17168 0.345,
5.2532 3.64579 0.345,
5.29618 3.66328 0.345,
5.37037 3.67614 0.345,
5.37037 3.69102 0.345,
5.41869 3.66883 0.345,
5.44819 3.6531 0.345,
5.48443 3.69102 0.345,
5.62771 3.67614 0.345,
5.62771 3.69102 0.345,
5.67827 3.66883 0.345,
5.70777 3.66883 0.345,
5.7561 3.67614 0.345,
5.7561 3.69102 0.345,
5.35228 4.14071 0.345,
5.4677 4.1646 0.345,
5.28553 4.17516 0.345,
5.33825 4.18559 0.345,
5.38401 4.20183 0.345,
5.41916 4.22275 0.345,
5.43787 4.32389 0.345,
5.47074 4.32389 0.345,
5.58305 4.15449 0.345,
5.67154 4.13818 0.345,
5.76509 4.13275 0.345,
5.63362 4.20202 0.345,
5.65745 4.19165 0.345,
5.57749 4.29709 0.345,
5.61086 4.29709 0.345,
5.68949 4.18281 0.345,
5.72445 4.17674 0.345,
5.757 4.17471 0.345,
5.86686 4.14564 0.345,
6.0913 4.14286 0.345,
5.82603 4.18382 0.345,
5.87432 4.21112 0.345,
5.94259 4.18433 0.345,
5.90277 4.25967 0.345,
5.91225 4.33249 0.345,
5.98962 4.24589 0.345,
6.0913 4.21719 0.345,
6.00529 4.32744 0.345,
6.15755 4.22073 0.345,
6.20672 4.26485 0.345,
6.18535 4.30266 0.345,
6.25312 4.30518 0.345,
6.50647 4.14286 0.345,
6.50647 4.22073 0.345,
4.78597 3.32113 0.545,
4.68638 3.41841 0.545,
4.72473 3.35853 0.545,
4.76701 3.37356 0.545,
4.74099 3.42652 0.545,
4.80961 3.34111 0.545,
4.86745 3.30867 0.545,
4.86801 3.3303 0.545,
4.89912 3.33223 0.545,
4.9362 3.31309 0.545,
4.92841 3.33802 0.545,
4.6736 3.4983 0.545,
4.73231 3.49886 0.545,
4.68589 3.58367 0.545,
4.7406 3.57626 0.545,
4.95383 3.34705 0.545,
5.00033 3.32637 0.545,
5.05402 3.31429 0.545,
5.05402 3.32918 0.545,
4.97336 3.35867 0.545,
4.98375 3.41486 0.545,
5.00201 3.41486 0.545,
5.09868 3.33676 0.545,
5.15291 3.33676 0.545,
5.21274 3.31429 0.545,
5.21274 3.32918 0.545,
4.97785 3.59859 0.545,
4.9964 3.59859 0.545,
5.15291 3.46206 0.545,
5.15291 3.48735 0.545,
5.18212 3.48735 0.545,
5.19532 3.46206 0.545,
5.22338 3.49275 0.545,
5.37037 3.31429 0.545,
5.37037 3.32918 0.545,
5.41869 3.33676 0.545,
5.44819 3.33676 0.545,
5.49876 3.31429 0.545,
5.49876 3.32918 0.545,
5.25316 3.46957 0.545,
5.25221 3.50898 0.545,
5.29576 3.49212 0.545,
5.32199 3.52913 0.545,
5.26918 3.53742 0.545,
5.27483 3.57949 0.545,
5.26942 3.61924 0.545,
5.33074 3.58005 0.545,
5.68052 3.31429 0.545,
5.70777 3.31429 0.545,
5.67827 3.41205 0.545,
4.72276 3.64537 0.545,
4.76547 3.63034 0.545,
4.7838 3.68277 0.545,
4.80838 3.66216 0.545,
4.92377 3.66616 0.545,
4.87082 3.67276 0.545,
4.89754 3.67111 0.545,
4.86857 3.69524 0.545,
4.92946 3.69166 0.545,
4.96943 3.64748 0.545,
4.94818 3.65819 0.545,
4.99471 3.68091 0.545,
5.05036 3.67614 0.545,
5.05036 3.69102 0.545,
5.09868 3.66883 0.545,
5.15291 3.66574 0.545,
5.18043 3.66574 0.545,
5.22419 3.66075 0.545,
5.19252 3.69102 0.545,
4.80068 4.14286 0.545,
4.7137 4.18331 0.545,
4.80068 4.16966 0.545,
4.9026 4.33028 0.545,
5.08186 4.15518 0.545,
5.22851 4.13275 0.545,
4.97162 4.2225 0.545,
5.04773 4.24955 0.545,
5.00089 4.34488 0.545,
5.12441 4.19115 0.545,
5.22953 4.17168 0.545,
5.2532 3.64579 0.545,
5.29618 3.66328 0.545,
5.37037 3.67614 0.545,
5.37037 3.69102 0.545,
5.41869 3.66883 0.545,
5.44819 3.6531 0.545,
5.48443 3.69102 0.545,
5.62771 3.67614 0.545,
5.62771 3.69102 0.545,
5.67827 3.66883 0.545,
5.70777 3.66883 0.545,
5.7561 3.67614 0.545,
5.7561 3.69102 0.545,
5.35228 4.14071 0.545,
5.4677 4.1646 0.545,
5.28553 4.17516 0.545,
5.33825 4.18559 0.545,
5.38401 4.20183 0.545,
5.41916 4.22275 0.545,
5.43787 4.32389 0.545,
5.47074 4.32389 0.545,
5.58305 4.15449 0.545,
5.67154 4.13818 0.545,
5.76509 4.13275 0.545,
5.63362 4.20202 0.545,
5.65745 4.19165 0.545,
5.57749 4.29709 0.545,
5.61086 4.29709 0.545,
5.68949 4.18281 0.545,
5.72445 4.17674 0.545,
5.757 4.17471 0.545,
5.86686 4.14564 0.545,
6.0913 4.14286 0.545,
5.82603 4.18382 0.545,
5.87432 4.21112 0.545,
5.94259 4.18433 0.545,
5.90277 4.25967 0.545,
5.91225 4.33249 0.545,
5.98962 4.24589 0.545,
6.0913 4.21719 0.545,
6.00529 4.32744 0.545,
6.15755 4.22073 0.545,
6.20672 4.26485 0.545,
6.18535 4.30266 0.545,
6.25312 4.30518 0.545,
6.50647 4.14286 0.545,
6.50647 4.22073 0.545,
4.87959 4.47408 0.345,
4.90171 4.62775 0.345,
4.98528 4.4751 0.345,
5.00019 4.61441 0.345,
5.04495 4.71176 0.345,
4.7137 4.78103 0.345,
4.80068 4.79419 0.345,
4.80068 4.82099 0.345,
4.96808 4.73881 0.345,
5.07794 4.80613 0.345,
5.12219 4.76903 0.345,
5.23053 4.82857 0.345,
5.42725 4.65461 0.345,
5.46062 4.65461 0.345,
5.69682 4.4761 0.345,
5.69682 4.51757 0.345,
5.76914 4.47206 0.345,
5.76914 4.52212 0.345,
5.59822 4.67636 0.345,
5.63159 4.67636 0.345,
5.23458 4.78812 0.345,
5.28269 4.78514 0.345,
5.3299 4.77623 0.345,
5.37384 4.76188 0.345,
5.34014 4.82212 0.345,
5.41208 4.74261 0.345,
5.45759 4.80278 0.345,
5.64929 4.75929 0.345,
5.59822 4.80683 0.345,
5.64486 4.81776 0.345,
5.67331 4.77022 0.345,
5.70087 4.77876 0.345,
5.72957 4.78426 0.345,
5.757 4.7861 0.345,
5.68468 4.82427 0.345,
5.72097 4.8275 0.345,
5.757 4.82857 0.345,
5.87735 4.43388 0.345,
5.90353 4.39121 0.345,
5.83285 4.46074 0.345,
5.82628 4.49785 0.345,
5.90618 4.47933 0.345,
5.88905 4.51587 0.345,
5.99442 4.3945 0.345,
5.9618 4.44501 0.345,
5.81882 4.53249 0.345,
5.85359 4.55752 0.345,
5.87407 4.59823 0.345,
5.93576 4.54968 0.345,
5.88089 4.65563 0.345,
5.96477 4.59855 0.345,
5.97444 4.6617 0.345,
6.26387 4.37446 0.345,
6.31835 4.4311 0.345,
6.34338 4.38477 0.345,
6.35482 4.48091 0.345,
6.11406 4.67636 0.345,
6.14743 4.67636 0.345,
6.37929 4.53223 0.345,
6.39313 4.58811 0.345,
6.39029 4.70948 0.345,
5.8735 4.7146 0.345,
5.85131 4.75499 0.345,
5.81294 4.77832 0.345,
5.92008 4.78685 0.345,
6.16513 4.75929 0.345,
6.18852 4.77022 0.345,
6.21519 4.77876 0.345,
6.24313 4.78426 0.345,
6.11406 4.80683 0.345,
6.19914 4.82313 0.345,
6.27031 4.7861 0.345,
6.36791 4.7517 0.345,
6.3286 4.7775 0.345,
6.27031 4.82857 0.345,
6.36772 4.817 0.345,
6.40381 4.4445 0.345,
6.44344 4.49444 0.345,
6.47132 4.54463 0.345,
6.48782 4.59652 0.345,
6.39775 4.65158 0.345,
6.49332 4.65158 0.345,
6.43744 4.7823 0.345,
6.47935 4.72648 0.345,
4.87959 4.47408 0.545,
4.90171 4.62775 0.545,
4.98528 4.4751 0.545,
5.00019 4.61441 0.545,
5.04495 4.71176 0.545,
4.7137 4.78103 0.545,
4.80068 4.79419 0.545,
4.80068 4.82099 0.545,
4.96808 4.73881 0.545,
5.07794 4.80613 0.545,
5.12219 4.76903 0.545,
5.23053 4.82857 0.545,
5.42725 4.65461 0.545,
5.46062 4.65461 0.545,
5.69682 4.4761 0.545,
5.69682 4.51757 0.545,
5.76914 4.47206 0.545,
5.76914 4.52212 0.545,
5.59822 4.67636 0.545,
5.63159 4.67636 0.545,
5.23458 4.78812 0.545,
5.28269 4.78514 0.545,
5.3299 4.77623 0.545,
5.37384 4.76188 0.545,
5.34014 4.82212 0.545,
5.41208 4.74261 0.545,
5.45759 4.80278 0.545,
5.64929 4.75929 0.545,
5.59822 4.80683 0.545,
5.64486 4.81776 0.545,
5.67331 4.77022 0.545,
5.70087 4.77876 0.545,
5.72957 4.78426 0.545,
5.757 4.7861 0.545,
5.68468 4.82427 0.545,
5.72097 4.8275 0.545,
5.757 4.82857 0.545,
5.87735 4.43388 0.545,
5.90353 4.39121 0.545,
5.83285 4.46074 0.545,
5.82628 4.49785 0.545,
5.90618 4.47933 0.545,
5.88905 4.51587 0.545,
5.99442 4.3945 0.545,
5.9618 4.44501 0.545,
5.81882 4.53249 0.545,
5.85359 4.55752 0.545,
5.87407 4.59823 0.545,
5.93576 4.54968 0.545,
5.88089 4.65563 0.545,
5.96477 4.59855 0.545,
5.97444 4.6617 0.545,
6.26387 4.37446 0.545,
6.31835 4.4311 0.545,
6.34338 4.38477 0.545,
6.35482 4.48091 0.545,
6.11406 4.67636 0.545,
6.14743 4.67636 0.545,
6.37929 4.53223 0.545,
6.39313 4.58811 0.545,
6.39029 4.70948 0.545,
5.8735 4.7146 0.545,
5.85131 4.75499 0.545,
5.81294 4.77832 0.545,
5.92008 4.78685 0.545,
6.16513 4.75929 0.545,
6.18852 4.77022 0.545,
6.21519 4.77876 0.545,
6.24313 4.78426 0.545,
6.11406 4.80683 0.545,
6.19914 4.82313 0.545,
6.27031 4.7861 0.545,
6.36791 4.7517 0.545,
6.3286 4.7775 0.545,
6.27031 4.82857 0.545,
6.36772 4.817 0.545,
6.40381 4.4445 0.545,
6.44344 4.49444 0.545,
6.47132 4.54463 0.545,
6.48782 4.59652 0.545,
6.39775 4.65158 0.545,
6.49332 4.65158 0.545,
6.43744 4.7823 0.545,
6.47935 4.72648 0.545,
9.3 5.8 0.345
] }

coordIndex [
0,1,387,-1
0,1081,1,-1
1,2,3,-1
1,3,11,-1
1,11,12,-1
1,12,187,-1
1,429,386,-1
13,3,8,-1
13,11,3,-1
4,8,3,-1
6,27,7,-1
5,7,35,-1
5,35,9,-1
14,10,15,-1
10,19,15,-1
15,18,16,-1
18,15,17,-1
19,17,15,-1
9,35,20,-1
20,35,21,-1
21,34,22,-1
34,21,33,-1
1,1081,2,-1
6,23,24,-1
6,24,25,-1
6,25,27,-1
7,27,35,-1
30,32,31,-1
26,31,47,-1
47,31,32,-1
26,47,28,-1
21,35,33,-1
29,37,36,-1
29,41,37,-1
37,40,38,-1
41,39,37,-1
40,37,39,-1
22,34,147,-1
34,38,147,-1
28,43,42,-1
28,45,43,-1
28,47,45,-1
43,46,44,-1
46,43,45,-1
54,49,48,-1
38,40,146,-1
44,146,40,-1
44,46,146,-1
50,146,46,-1
55,51,52,-1
70,53,57,-1
53,66,65,-1
53,67,66,-1
53,70,67,-1
54,60,49,-1
49,60,50,-1
56,62,61,-1
56,64,62,-1
63,61,62,-1
50,60,158,-1
61,158,60,-1
61,63,158,-1
66,69,68,-1
69,66,67,-1
59,72,71,-1
59,709,72,-1
72,709,73,-1
68,158,63,-1
68,69,849,-1
73,849,69,-1
1,182,197,-1
1,183,182,-1
1,197,199,-1
1,199,202,-1
1,185,183,-1
1,187,185,-1
1,202,204,-1
1,204,431,-1
16,165,12,-1
1,428,429,-1
1,431,428,-1
16,18,164,-1
22,164,18,-1
22,147,166,-1
38,146,147,-1
16,164,165,-1
22,166,164,-1
12,165,193,-1
12,191,187,-1
12,193,191,-1
50,150,146,-1
50,152,150,-1
50,156,152,-1
50,159,156,-1
50,158,159,-1
148,166,147,-1
149,151,153,-1
150,153,151,-1
153,150,152,-1
149,153,172,-1
154,172,153,-1
68,161,158,-1
68,843,161,-1
68,847,843,-1
155,157,159,-1
156,159,157,-1
155,159,178,-1
163,162,844,-1
161,844,162,-1
160,178,159,-1
149,168,167,-1
149,170,168,-1
149,172,170,-1
168,171,169,-1
171,168,170,-1
155,174,173,-1
155,176,174,-1
155,178,176,-1
163,180,179,-1
163,861,180,-1
177,174,176,-1
174,177,175,-1
180,862,181,-1
193,165,228,-1
194,191,193,-1
191,194,195,-1
184,215,201,-1
186,215,184,-1
198,215,200,-1
201,215,198,-1
200,215,203,-1
203,215,205,-1
205,215,207,-1
207,215,208,-1
188,216,186,-1
189,216,188,-1
190,216,189,-1
192,216,190,-1
186,216,215,-1
192,210,216,-1
191,224,211,-1
211,223,210,-1
191,195,224,-1
196,229,212,-1
212,229,238,-1
214,239,213,-1
220,218,215,-1
210,223,216,-1
208,215,217,-1
217,215,218,-1
220,219,218,-1
216,223,222,-1
225,222,223,-1
224,223,211,-1
227,226,213,-1
248,227,213,-1
169,228,165,-1
169,230,228,-1
169,234,230,-1
231,228,230,-1
228,231,229,-1
169,236,234,-1
169,237,236,-1
169,171,891,-1
175,891,171,-1
169,880,237,-1
169,881,880,-1
234,236,235,-1
238,229,240,-1
229,231,240,-1
240,231,242,-1
239,241,213,-1
241,243,213,-1
243,245,213,-1
232,242,231,-1
242,232,244,-1
235,255,233,-1
244,232,246,-1
232,254,246,-1
245,247,213,-1
247,249,213,-1
249,248,213,-1
246,252,251,-1
253,251,252,-1
252,246,254,-1
255,235,236,-1
899,237,896,-1
237,899,901,-1
237,901,261,-1
256,258,257,-1
260,257,258,-1
256,259,258,-1
261,901,262,-1
0,387,382,-1
0,382,1082,-1
382,387,1082,-1
1,383,384,-1
1,384,388,-1
1,388,389,-1
1,385,383,-1
1,386,385,-1
1,389,387,-1
387,389,390,-1
387,390,391,-1
387,391,392,-1
387,392,393,-1
386,439,395,-1
395,416,417,-1
418,396,417,-1
395,417,396,-1
396,418,397,-1
397,418,398,-1
418,628,398,-1
630,398,628,-1
632,399,630,-1
398,630,399,-1
399,634,394,-1
436,386,429,-1
395,439,416,-1
386,436,439,-1
439,419,416,-1
439,478,421,-1
439,420,419,-1
420,439,421,-1
421,478,425,-1
419,420,423,-1
631,423,420,-1
426,421,425,-1
421,426,633,-1
206,431,204,-1
209,431,206,-1
221,431,209,-1
222,431,221,-1
222,225,431,-1
250,448,225,-1
448,250,251,-1
225,433,431,-1
225,442,433,-1
225,444,442,-1
225,448,444,-1
432,434,435,-1
435,434,430,-1
430,434,440,-1
430,440,441,-1
430,441,443,-1
430,443,445,-1
446,437,430,-1
437,446,438,-1
438,446,479,-1
479,446,480,-1
480,447,482,-1
449,444,448,-1
430,445,446,-1
444,449,450,-1
451,458,454,-1
454,458,463,-1
447,480,446,-1
444,490,447,-1
484,447,485,-1
482,447,487,-1
487,447,484,-1
485,447,452,-1
452,447,453,-1
447,491,453,-1
444,450,490,-1
456,465,455,-1
490,491,447,-1
494,493,455,-1
501,494,455,-1
448,251,253,-1
448,253,257,-1
448,257,260,-1
905,457,448,-1
905,458,457,-1
448,260,263,-1
905,448,263,-1
910,458,905,-1
910,459,458,-1
910,473,459,-1
910,475,473,-1
460,458,459,-1
463,458,464,-1
464,458,467,-1
458,460,467,-1
461,467,460,-1
474,508,462,-1
465,466,455,-1
466,469,455,-1
469,470,455,-1
470,471,455,-1
502,501,455,-1
471,502,455,-1
467,461,468,-1
468,461,507,-1
468,507,472,-1
473,475,474,-1
508,474,475,-1
1094,476,1084,-1
477,511,509,-1
476,1094,1096,-1
476,1096,514,-1
477,510,511,-1
476,514,513,-1
425,478,481,-1
425,481,483,-1
425,483,488,-1
425,488,489,-1
425,489,492,-1
495,425,505,-1
484,485,486,-1
453,491,489,-1
492,489,491,-1
425,492,503,-1
425,503,504,-1
425,504,505,-1
495,505,506,-1
495,499,497,-1
496,497,499,-1
495,498,499,-1
495,506,498,-1
472,505,504,-1
505,472,507,-1
509,516,506,-1
512,509,511,-1
516,509,512,-1
515,516,512,-1
1140,516,515,-1
516,1145,519,-1
498,506,516,-1
516,520,518,-1
517,518,641,-1
641,518,642,-1
642,518,645,-1
520,516,519,-1
518,520,645,-1
418,629,628,-1
399,632,634,-1
637,394,634,-1
394,637,640,-1
423,631,422,-1
427,633,426,-1
424,634,632,-1
387,393,1505,-1
496,636,635,-1
496,639,636,-1
496,499,639,-1
500,639,499,-1
636,640,637,-1
640,636,638,-1
639,638,636,-1
644,646,643,-1
646,647,643,-1
647,648,643,-1
657,655,643,-1
655,654,643,-1
648,649,643,-1
649,650,643,-1
658,657,643,-1
650,658,643,-1
645,520,651,-1
521,661,520,-1
661,651,520,-1
651,661,652,-1
652,661,653,-1
653,660,659,-1
662,659,660,-1
659,662,656,-1
660,653,661,-1
1505,393,394,-1
0,698,1081,-1
0,1082,698,-1
698,1082,1081,-1
1081,6,2,-1
1081,23,6,-1
1081,30,23,-1
1081,32,30,-1
1081,51,32,-1
701,58,699,-1
700,716,715,-1
700,717,716,-1
704,700,703,-1
707,722,708,-1
700,704,720,-1
705,720,704,-1
700,720,717,-1
708,714,706,-1
714,708,722,-1
702,711,710,-1
702,713,711,-1
712,710,711,-1
73,709,855,-1
710,855,709,-1
710,712,855,-1
716,719,718,-1
719,716,717,-1
728,734,721,-1
735,721,734,-1
718,855,712,-1
718,719,855,-1
721,855,719,-1
721,735,859,-1
725,723,724,-1
723,739,737,-1
723,725,743,-1
726,743,725,-1
730,738,727,-1
723,741,739,-1
723,743,741,-1
729,731,730,-1
752,732,751,-1
738,730,731,-1
732,749,748,-1
732,761,749,-1
728,736,734,-1
739,742,740,-1
742,739,741,-1
740,859,735,-1
740,742,860,-1
744,860,742,-1
744,746,860,-1
733,745,744,-1
746,744,745,-1
733,747,745,-1
750,860,746,-1
1081,52,51,-1
1081,53,52,-1
1081,57,53,-1
1081,58,57,-1
1081,699,58,-1
1081,700,699,-1
1081,703,700,-1
1081,707,703,-1
1081,722,707,-1
1081,723,722,-1
1081,724,723,-1
1081,729,724,-1
1081,731,729,-1
1081,732,731,-1
1081,751,732,-1
755,757,756,-1
732,752,763,-1
753,763,752,-1
756,760,754,-1
732,763,761,-1
760,756,757,-1
758,769,768,-1
749,762,750,-1
762,749,761,-1
759,765,764,-1
766,764,765,-1
759,767,765,-1
1081,878,770,-1
68,850,847,-1
68,849,850,-1
849,73,852,-1
73,855,852,-1
844,161,843,-1
163,844,863,-1
845,863,844,-1
846,848,850,-1
847,850,848,-1
846,850,869,-1
851,869,850,-1
855,721,859,-1
854,853,856,-1
852,856,853,-1
856,852,855,-1
854,856,875,-1
857,875,856,-1
860,876,858,-1
163,863,861,-1
846,865,864,-1
846,867,865,-1
846,869,867,-1
862,180,861,-1
868,865,867,-1
865,868,866,-1
854,871,870,-1
854,873,871,-1
854,875,873,-1
871,874,872,-1
874,871,873,-1
740,860,859,-1
750,876,860,-1
876,764,877,-1
877,766,878,-1
876,750,762,-1
876,762,764,-1
764,766,877,-1
175,177,891,-1
181,891,177,-1
181,862,890,-1
169,883,881,-1
169,889,883,-1
169,891,889,-1
866,890,862,-1
866,868,890,-1
181,890,891,-1
896,237,879,-1
879,237,880,-1
884,912,882,-1
885,912,884,-1
886,912,885,-1
872,890,868,-1
872,874,890,-1
878,890,874,-1
890,878,894,-1
915,893,895,-1
882,912,897,-1
897,914,898,-1
898,914,900,-1
900,914,902,-1
904,262,901,-1
262,904,263,-1
905,263,904,-1
903,921,906,-1
902,914,903,-1
906,921,907,-1
907,921,908,-1
908,921,909,-1
887,912,886,-1
888,912,887,-1
897,912,914,-1
889,914,913,-1
889,891,914,-1
892,914,891,-1
913,914,912,-1
915,919,916,-1
918,920,917,-1
920,943,917,-1
943,944,917,-1
903,914,921,-1
924,909,921,-1
914,922,921,-1
914,926,922,-1
914,928,926,-1
909,924,923,-1
922,926,925,-1
927,925,926,-1
947,949,917,-1
930,929,917,-1
931,930,917,-1
949,931,917,-1
937,939,938,-1
915,933,919,-1
934,941,919,-1
934,919,933,-1
935,942,934,-1
941,934,942,-1
942,935,945,-1
944,946,917,-1
938,953,936,-1
945,935,954,-1
946,947,917,-1
945,954,948,-1
948,951,950,-1
951,948,954,-1
953,938,939,-1
956,959,957,-1
956,957,955,-1
958,955,957,-1
940,961,960,-1
770,878,766,-1
1081,894,878,-1
1081,895,894,-1
1081,915,895,-1
1081,933,915,-1
1081,937,933,-1
1081,939,937,-1
1081,940,939,-1
1081,961,940,-1
1081,962,961,-1
1081,1131,962,-1
1081,1174,1131,-1
1081,1175,1174,-1
1081,755,751,-1
1081,757,755,-1
1081,758,757,-1
1081,769,758,-1
1081,770,769,-1
387,1505,1082,-1
1081,1082,1505,-1
911,1083,910,-1
925,1083,911,-1
910,476,475,-1
910,1083,476,-1
925,927,1083,-1
932,1083,927,-1
950,1083,932,-1
950,951,1083,-1
952,1089,951,-1
951,1089,1083,-1
952,1092,1089,-1
952,1099,1092,-1
952,1100,1099,-1
952,1107,1100,-1
1085,476,1083,-1
1084,476,1085,-1
1088,1109,1086,-1
1090,1109,1088,-1
1091,1110,1090,-1
1086,1109,1087,-1
1087,1109,1095,-1
1095,1109,1097,-1
1097,1109,1134,-1
1101,1099,1100,-1
1099,1101,1105,-1
1093,1110,1091,-1
1098,1110,1093,-1
1102,1110,1098,-1
1106,1108,1111,-1
1111,1108,1114,-1
1114,1108,1122,-1
1102,1103,1110,-1
1090,1110,1109,-1
1104,1145,1103,-1
1099,1147,1104,-1
1099,1105,1147,-1
1103,1145,1110,-1
1147,1145,1104,-1
1113,1115,1112,-1
1115,1123,1112,-1
1123,1126,1112,-1
1149,1148,1112,-1
1150,1149,1112,-1
1163,1150,1112,-1
1128,1163,1112,-1
955,1107,952,-1
955,958,1107,-1
958,1116,1107,-1
958,1120,1116,-1
962,1130,958,-1
958,1130,1120,-1
962,1131,1130,-1
1107,1117,1108,-1
1117,1107,1116,-1
1108,1117,1122,-1
1118,1124,1117,-1
1122,1117,1124,-1
1121,1168,1119,-1
1124,1118,1125,-1
1125,1118,1129,-1
1126,1127,1112,-1
1127,1128,1112,-1
1118,1167,1129,-1
1120,1130,1121,-1
1168,1121,1130,-1
1132,1170,1169,-1
1132,1172,1170,-1
1131,1174,1173,-1
1133,514,1096,-1
514,1133,515,-1
1135,515,1133,-1
1140,515,1135,-1
1134,1109,1136,-1
1136,1109,1138,-1
1138,1109,1139,-1
1139,1109,1137,-1
1141,516,1140,-1
1144,516,1141,-1
516,1144,1145,-1
1146,519,1145,-1
1142,1137,1109,-1
1137,1142,1143,-1
1110,1145,1144,-1
519,1146,1152,-1
1152,1158,1154,-1
1155,1154,1158,-1
1154,1337,1153,-1
1154,1155,1337,-1
1152,1146,1156,-1
1156,1146,1157,-1
1157,1146,1176,-1
1158,1152,1156,-1
1129,1165,1164,-1
1165,1129,1167,-1
1166,1164,1165,-1
1151,1184,1146,-1
1164,1184,1151,-1
1164,1166,1184,-1
1169,1184,1166,-1
1171,1169,1170,-1
1184,1169,1171,-1
1175,1185,1171,-1
1175,1186,1185,-1
1176,1146,1177,-1
1184,1177,1146,-1
1162,1349,1161,-1
1178,1350,1162,-1
1179,1350,1178,-1
1180,1350,1179,-1
1177,1189,1183,-1
1184,1171,1185,-1
1186,1175,1194,-1
1177,1184,1189,-1
1191,1187,1188,-1
1187,1192,1190,-1
1190,1183,1189,-1
1183,1190,1200,-1
1192,1187,1191,-1
1193,1190,1192,-1
1196,1190,1193,-1
1197,1190,1196,-1
1199,1190,1197,-1
1200,1190,1199,-1
1375,1183,1200,-1
1194,1175,1198,-1
1175,1195,1198,-1
1198,1202,1201,-1
1202,1198,1195,-1
1201,1202,1206,-1
1201,1206,1203,-1
1195,1175,1208,-1
1389,1203,1206,-1
1204,1209,1205,-1
1205,1209,1207,-1
1207,1209,1391,-1
1153,1337,1338,-1
1153,1343,1342,-1
1153,1338,1343,-1
1161,1349,1159,-1
1159,1349,1160,-1
1160,1349,1339,-1
1339,1349,1340,-1
1340,1349,1341,-1
1341,1349,1347,-1
1343,1345,1344,-1
1345,1343,1338,-1
1346,1344,1345,-1
1348,1344,1346,-1
1162,1350,1349,-1
1181,1350,1180,-1
1181,1182,1350,-1
1183,1350,1182,-1
1351,1183,1353,-1
1183,1351,1350,-1
1353,1183,1376,-1
1376,1183,1374,-1
1374,1183,1375,-1
1350,1352,1355,-1
1352,1350,1351,-1
1355,1352,1356,-1
1354,1356,1352,-1
1382,1356,1354,-1
1383,1356,1382,-1
1384,1356,1383,-1
1386,1356,1384,-1
1398,1356,1386,-1
1347,1349,1357,-1
1357,1349,1358,-1
1358,1349,1359,-1
1359,1362,1360,-1
1362,1359,1349,-1
1350,1365,1363,-1
1365,1350,1355,-1
1356,1367,1364,-1
1367,1356,1368,-1
1368,1356,1369,-1
1369,1356,1370,-1
1370,1356,1400,-1
1400,1356,1399,-1
1399,1356,1398,-1
1505,394,640,-1
1377,1378,1379,-1
1381,1379,1378,-1
1381,1385,1379,-1
1203,1389,1380,-1
1380,1390,1381,-1
1385,1381,1390,-1
1385,1390,1387,-1
1387,1393,1388,-1
1393,1387,1394,-1
1380,1389,1390,-1
1392,1387,1390,-1
1387,1396,1394,-1
1395,1387,1392,-1
1396,1387,1395,-1
1417,1394,1396,-1
1397,1394,1417,-1
1388,1406,1401,-1
1406,1388,1393,-1
1394,1403,1402,-1
1403,1394,1404,-1
1404,1394,1405,-1
1405,1394,1408,-1
1408,1394,1410,-1
1410,1394,1409,-1
1409,1394,1397,-1
1505,640,656,-1
1505,656,662,-1
1505,662,1344,-1
1505,1344,1348,-1
1505,1348,1361,-1
1505,1361,1363,-1
1505,1363,1365,-1
1505,1365,1366,-1
1505,1366,1371,-1
1505,1371,1372,-1
1505,1372,1373,-1
1081,1505,1175,-1
1505,1208,1175,-1
1505,1391,1209,-1
1505,1413,1391,-1
1505,1209,1208,-1
1505,1414,1413,-1
1505,1415,1414,-1
1505,1416,1415,-1
1505,1418,1416,-1
1505,1420,1418,-1
1505,1373,1401,-1
1505,1401,1406,-1
1505,1406,1407,-1
1505,1407,1411,-1
1505,1411,1412,-1
1505,1419,1420,-1
1505,1412,1419,-1
74,3,2,-1
75,4,3,-1
76,8,4,-1
78,2,6,-1
77,7,5,-1
79,6,7,-1
81,5,9,-1
80,13,8,-1
82,19,10,-1
83,12,11,-1
85,11,13,-1
84,16,12,-1
86,10,14,-1
87,14,15,-1
88,15,16,-1
92,9,20,-1
89,18,17,-1
91,17,19,-1
90,22,18,-1
93,20,21,-1
94,21,22,-1
74,75,3,-1
75,76,4,-1
74,2,78,-1
77,5,81,-1
78,6,79,-1
77,79,7,-1
76,80,8,-1
86,82,10,-1
81,9,92,-1
74,76,75,-1
74,78,76,-1
76,77,80,-1
76,78,77,-1
77,78,79,-1
77,81,80,-1
80,81,82,-1
86,80,82,-1
81,91,82,-1
85,13,80,-1
83,84,12,-1
85,83,11,-1
84,88,16,-1
86,14,87,-1
87,15,88,-1
82,91,19,-1
89,90,18,-1
91,89,17,-1
92,20,93,-1
90,94,22,-1
93,21,94,-1
85,80,86,-1
85,84,83,-1
85,86,84,-1
84,86,88,-1
86,87,88,-1
81,92,91,-1
91,90,89,-1
91,92,90,-1
90,92,94,-1
92,93,94,-1
95,24,23,-1
96,25,24,-1
97,27,25,-1
102,23,30,-1
98,31,26,-1
99,35,27,-1
100,26,28,-1
101,41,29,-1
103,30,31,-1
123,32,51,-1
104,47,32,-1
105,34,33,-1
107,33,35,-1
106,38,34,-1
109,36,37,-1
108,29,36,-1
110,37,38,-1
111,40,39,-1
114,28,42,-1
113,39,41,-1
112,44,40,-1
115,42,43,-1
116,43,44,-1
117,46,45,-1
119,45,47,-1
120,54,48,-1
118,50,46,-1
121,48,49,-1
122,49,50,-1
125,52,53,-1
127,51,55,-1
126,60,54,-1
124,55,52,-1
128,64,56,-1
130,57,58,-1
137,53,65,-1
129,70,57,-1
132,61,60,-1
133,56,61,-1
134,63,62,-1
136,62,64,-1
135,68,63,-1
138,65,66,-1
140,66,68,-1
139,69,67,-1
142,67,70,-1
141,73,69,-1
143,59,71,-1
144,71,72,-1
145,72,73,-1
95,96,24,-1
95,23,102,-1
96,97,25,-1
98,103,31,-1
98,26,100,-1
97,99,27,-1
101,29,108,-1
100,28,114,-1
102,30,103,-1
104,32,123,-1
119,47,104,-1
126,54,120,-1
95,97,96,-1
95,98,97,-1
95,102,98,-1
97,98,99,-1
98,102,103,-1
98,100,99,-1
99,100,101,-1
99,101,108,-1
100,113,101,-1
119,104,123,-1
119,123,126,-1
107,35,99,-1
105,33,107,-1
105,106,34,-1
106,110,38,-1
108,36,109,-1
101,113,41,-1
109,37,110,-1
111,39,113,-1
111,112,40,-1
112,116,44,-1
114,42,115,-1
115,43,116,-1
117,118,46,-1
119,117,45,-1
118,122,50,-1
120,48,121,-1
121,49,122,-1
107,99,108,-1
105,107,106,-1
106,107,108,-1
106,108,110,-1
108,109,110,-1
111,113,112,-1
100,114,113,-1
112,113,114,-1
112,114,116,-1
114,115,116,-1
119,118,117,-1
119,126,120,-1
119,120,118,-1
118,120,122,-1
120,121,122,-1
124,52,125,-1
123,51,127,-1
124,127,55,-1
125,53,137,-1
128,56,133,-1
129,57,130,-1
130,58,773,-1
129,142,70,-1
131,59,143,-1
123,127,126,-1
126,127,132,-1
128,132,127,-1
124,128,127,-1
124,125,137,-1
124,137,128,-1
129,130,142,-1
130,131,142,-1
126,132,60,-1
132,133,61,-1
128,136,64,-1
134,135,63,-1
136,134,62,-1
137,65,138,-1
135,140,68,-1
138,66,140,-1
139,141,69,-1
142,139,67,-1
141,145,73,-1
143,71,144,-1
144,72,145,-1
128,133,132,-1
128,137,136,-1
136,135,134,-1
136,137,135,-1
135,137,140,-1
137,138,140,-1
142,141,139,-1
142,143,141,-1
131,143,142,-1
141,143,145,-1
143,144,145,-1
264,147,146,-1
265,148,147,-1
268,146,150,-1
266,166,148,-1
269,150,151,-1
267,151,149,-1
270,153,152,-1
271,154,153,-1
272,172,154,-1
274,152,156,-1
273,157,155,-1
275,156,157,-1
276,159,158,-1
277,160,159,-1
279,158,161,-1
280,161,162,-1
281,162,163,-1
278,178,160,-1
285,149,167,-1
282,165,164,-1
284,164,166,-1
283,169,165,-1
286,167,168,-1
287,168,169,-1
290,170,172,-1
288,171,170,-1
289,175,171,-1
291,155,173,-1
297,163,179,-1
292,173,174,-1
293,174,175,-1
294,177,176,-1
296,176,178,-1
295,181,177,-1
298,179,180,-1
299,180,181,-1
264,265,147,-1
265,266,148,-1
264,146,268,-1
267,149,285,-1
267,269,151,-1
268,150,269,-1
270,271,153,-1
270,152,274,-1
271,272,154,-1
273,275,157,-1
274,156,275,-1
276,277,159,-1
273,155,291,-1
276,158,279,-1
277,278,160,-1
281,280,162,-1
279,161,280,-1
281,163,297,-1
264,266,265,-1
264,268,266,-1
266,268,267,-1
266,267,284,-1
267,268,269,-1
270,272,271,-1
270,274,272,-1
272,273,290,-1
272,274,273,-1
273,274,275,-1
276,278,277,-1
276,281,278,-1
276,279,281,-1
281,279,280,-1
278,281,296,-1
266,284,166,-1
272,290,172,-1
282,283,165,-1
282,164,284,-1
283,287,169,-1
285,167,286,-1
286,168,287,-1
288,170,290,-1
288,289,171,-1
278,296,178,-1
289,293,175,-1
291,173,292,-1
292,174,293,-1
294,295,177,-1
294,176,296,-1
297,179,298,-1
295,299,181,-1
298,180,299,-1
267,285,284,-1
282,284,283,-1
283,284,285,-1
283,285,287,-1
285,286,287,-1
288,290,289,-1
289,290,293,-1
273,291,290,-1
281,297,296,-1
290,291,293,-1
291,292,293,-1
294,296,295,-1
295,296,297,-1
295,297,299,-1
297,298,299,-1
301,182,183,-1
319,184,201,-1
303,183,185,-1
302,186,184,-1
304,188,186,-1
305,185,187,-1
306,189,188,-1
307,190,189,-1
308,192,190,-1
309,187,191,-1
311,194,193,-1
312,195,194,-1
346,193,228,-1
314,229,196,-1
300,197,182,-1
316,201,198,-1
315,199,197,-1
317,202,199,-1
318,198,200,-1
321,200,203,-1
320,204,202,-1
322,206,204,-1
323,203,205,-1
325,205,207,-1
324,209,206,-1
326,207,208,-1
335,208,217,-1
327,221,209,-1
310,210,192,-1
329,191,211,-1
328,211,210,-1
313,224,195,-1
330,196,212,-1
356,212,238,-1
331,214,213,-1
333,220,215,-1
334,215,216,-1
336,217,218,-1
338,219,220,-1
337,218,219,-1
339,222,221,-1
340,216,222,-1
344,213,226,-1
341,225,223,-1
342,223,224,-1
343,250,225,-1
345,226,227,-1
347,228,229,-1
348,231,230,-1
349,232,231,-1
352,230,234,-1
351,235,233,-1
353,234,235,-1
355,236,237,-1
332,239,214,-1
358,238,240,-1
357,241,239,-1
359,243,241,-1
360,240,242,-1
362,242,244,-1
361,245,243,-1
364,244,246,-1
363,247,245,-1
365,249,247,-1
369,246,251,-1
366,227,248,-1
367,248,249,-1
368,251,250,-1
372,254,232,-1
373,233,255,-1
370,253,252,-1
372,252,254,-1
371,257,253,-1
354,255,236,-1
374,259,256,-1
375,256,257,-1
379,237,261,-1
376,260,258,-1
377,258,259,-1
378,263,260,-1
380,261,262,-1
381,262,263,-1
301,300,182,-1
301,183,303,-1
319,302,184,-1
303,185,305,-1
302,304,186,-1
304,306,188,-1
305,187,309,-1
306,307,189,-1
307,308,190,-1
308,310,192,-1
309,191,329,-1
311,193,346,-1
311,312,194,-1
312,313,195,-1
301,319,300,-1
301,302,319,-1
301,303,302,-1
302,303,304,-1
303,306,304,-1
303,305,306,-1
306,305,307,-1
307,305,308,-1
305,309,308,-1
308,309,310,-1
311,313,312,-1
311,314,313,-1
311,346,314,-1
315,197,300,-1
316,198,318,-1
315,317,199,-1
318,200,321,-1
319,201,316,-1
317,320,202,-1
320,322,204,-1
321,203,323,-1
323,205,325,-1
322,324,206,-1
325,207,326,-1
326,208,335,-1
324,327,209,-1
310,328,210,-1
328,329,211,-1
314,196,330,-1
330,212,356,-1
331,332,214,-1
331,213,344,-1
333,215,334,-1
333,338,220,-1
334,216,340,-1
335,217,336,-1
336,218,337,-1
337,219,338,-1
327,339,221,-1
339,340,222,-1
313,342,224,-1
341,223,342,-1
341,343,225,-1
344,226,345,-1
343,368,250,-1
300,319,316,-1
315,300,316,-1
315,316,318,-1
315,318,317,-1
317,318,320,-1
320,318,321,-1
320,321,322,-1
321,323,322,-1
323,324,322,-1
323,325,324,-1
324,325,327,-1
325,326,327,-1
326,335,327,-1
310,309,329,-1
310,329,328,-1
313,314,330,-1
313,330,331,-1
313,331,342,-1
330,332,331,-1
330,356,332,-1
333,334,338,-1
335,336,339,-1
336,337,339,-1
339,337,340,-1
327,335,339,-1
338,334,340,-1
337,338,340,-1
331,344,342,-1
341,342,343,-1
343,342,368,-1
342,344,368,-1
344,345,368,-1
346,228,347,-1
314,347,229,-1
348,349,231,-1
349,350,232,-1
348,230,352,-1
352,234,353,-1
351,353,235,-1
354,236,355,-1
314,346,347,-1
348,350,349,-1
348,352,350,-1
350,352,351,-1
351,352,353,-1
356,238,358,-1
332,357,239,-1
357,359,241,-1
358,240,360,-1
359,361,243,-1
360,242,362,-1
362,244,364,-1
350,372,232,-1
351,233,373,-1
365,367,249,-1
361,363,245,-1
363,365,247,-1
364,246,369,-1
345,227,366,-1
366,248,367,-1
368,369,251,-1
370,252,372,-1
370,371,253,-1
371,375,257,-1
354,373,255,-1
374,256,375,-1
355,237,379,-1
374,377,259,-1
376,258,377,-1
376,378,260,-1
379,261,380,-1
380,262,381,-1
378,381,263,-1
356,358,357,-1
332,356,357,-1
357,358,359,-1
359,358,360,-1
359,360,361,-1
360,362,361,-1
350,351,373,-1
361,362,363,-1
362,364,363,-1
363,364,365,-1
365,364,369,-1
345,366,368,-1
366,367,369,-1
368,366,369,-1
365,369,367,-1
350,373,372,-1
370,372,371,-1
372,373,375,-1
371,372,375,-1
354,355,373,-1
355,374,373,-1
355,379,374,-1
374,375,373,-1
374,379,377,-1
376,377,378,-1
378,377,379,-1
379,380,381,-1
378,379,381,-1
400,384,383,-1
401,388,384,-1
402,383,385,-1
403,385,386,-1
404,388,401,-1
400,401,384,-1
400,383,402,-1
402,385,403,-1
403,386,411,-1
400,413,401,-1
402,403,411,-1
400,402,413,-1
404,389,388,-1
405,390,389,-1
406,391,390,-1
407,392,391,-1
408,393,392,-1
410,399,394,-1
409,394,393,-1
404,405,389,-1
405,406,390,-1
406,407,391,-1
405,407,406,-1
405,408,407,-1
405,409,408,-1
404,401,413,-1
404,413,405,-1
405,410,409,-1
405,415,410,-1
405,414,415,-1
405,413,414,-1
407,408,392,-1
408,409,393,-1
409,410,394,-1
411,386,395,-1
412,395,396,-1
411,395,412,-1
402,411,412,-1
402,412,413,-1
413,396,397,-1
414,397,398,-1
415,398,399,-1
412,396,413,-1
414,398,415,-1
413,397,414,-1
410,415,399,-1
522,417,416,-1
523,418,417,-1
525,416,419,-1
529,419,423,-1
527,420,421,-1
528,423,422,-1
526,631,420,-1
531,426,425,-1
532,427,426,-1
522,523,417,-1
522,416,525,-1
523,524,418,-1
522,524,523,-1
522,525,524,-1
525,419,529,-1
526,420,527,-1
528,529,423,-1
531,532,426,-1
531,425,601,-1
527,421,668,-1
532,533,427,-1
528,525,529,-1
524,525,528,-1
526,527,666,-1
531,533,532,-1
531,601,533,-1
534,429,428,-1
536,435,430,-1
537,428,431,-1
539,431,433,-1
538,434,432,-1
540,440,434,-1
541,432,435,-1
542,439,436,-1
535,436,429,-1
543,430,437,-1
544,437,438,-1
545,478,439,-1
585,438,479,-1
548,433,442,-1
546,441,440,-1
547,443,441,-1
549,445,443,-1
550,442,444,-1
551,446,445,-1
553,444,447,-1
552,447,446,-1
554,449,448,-1
555,450,449,-1
563,448,457,-1
557,458,451,-1
560,451,454,-1
559,452,453,-1
558,485,452,-1
556,490,450,-1
569,454,463,-1
561,456,455,-1
599,455,493,-1
564,457,458,-1
565,460,459,-1
566,461,460,-1
579,459,473,-1
568,474,462,-1
570,463,464,-1
562,465,456,-1
571,466,465,-1
572,469,466,-1
573,464,467,-1
574,467,468,-1
575,470,469,-1
578,468,472,-1
576,471,470,-1
613,507,461,-1
614,462,508,-1
580,473,474,-1
581,508,475,-1
582,475,476,-1
615,477,509,-1
583,510,477,-1
619,476,513,-1
537,534,428,-1
535,429,534,-1
537,431,539,-1
541,538,432,-1
540,434,538,-1
539,433,548,-1
540,546,440,-1
541,435,536,-1
535,542,436,-1
536,430,543,-1
543,437,544,-1
542,545,439,-1
545,584,478,-1
544,438,585,-1
546,547,441,-1
548,442,550,-1
547,549,443,-1
549,551,445,-1
550,444,553,-1
551,552,446,-1
552,553,447,-1
554,555,449,-1
554,448,563,-1
555,556,450,-1
557,451,560,-1
558,452,559,-1
560,454,569,-1
561,562,456,-1
556,596,490,-1
561,455,599,-1
534,541,536,-1
535,534,536,-1
537,541,534,-1
537,538,541,-1
537,539,538,-1
539,540,538,-1
539,546,540,-1
535,543,542,-1
535,536,543,-1
542,543,545,-1
545,543,544,-1
545,544,584,-1
544,585,584,-1
539,548,546,-1
548,547,546,-1
548,550,549,-1
548,549,547,-1
550,551,549,-1
550,553,551,-1
551,553,552,-1
554,556,555,-1
554,557,556,-1
554,563,557,-1
556,557,560,-1
556,560,561,-1
558,559,591,-1
560,562,561,-1
560,569,562,-1
556,561,596,-1
561,599,596,-1
563,457,564,-1
564,458,557,-1
565,566,460,-1
566,567,461,-1
565,459,579,-1
568,462,614,-1
569,463,570,-1
562,571,465,-1
571,572,466,-1
570,464,573,-1
572,575,469,-1
573,467,574,-1
575,576,470,-1
574,468,578,-1
576,577,471,-1
578,472,610,-1
567,613,461,-1
579,473,580,-1
580,474,568,-1
581,475,582,-1
582,476,619,-1
583,477,615,-1
581,614,508,-1
583,616,510,-1
563,564,557,-1
565,567,566,-1
565,579,567,-1
567,579,568,-1
567,568,614,-1
569,571,562,-1
569,570,571,-1
570,572,571,-1
570,573,572,-1
572,573,575,-1
573,574,575,-1
575,574,576,-1
574,578,576,-1
576,578,577,-1
577,578,610,-1
567,614,613,-1
579,580,568,-1
581,582,614,-1
582,583,614,-1
583,615,614,-1
582,619,583,-1
583,619,616,-1
584,481,478,-1
586,479,480,-1
587,483,481,-1
588,480,482,-1
593,482,487,-1
589,488,483,-1
590,487,484,-1
592,484,486,-1
591,486,485,-1
594,489,488,-1
595,453,489,-1
597,492,491,-1
596,491,490,-1
598,503,492,-1
600,493,494,-1
601,425,495,-1
603,495,497,-1
602,497,496,-1
604,499,498,-1
605,500,499,-1
607,494,501,-1
608,501,502,-1
609,504,503,-1
577,502,471,-1
610,472,504,-1
611,506,505,-1
613,505,507,-1
612,509,506,-1
617,512,511,-1
616,511,510,-1
618,515,512,-1
620,513,514,-1
621,514,515,-1
622,498,516,-1
624,516,518,-1
623,518,517,-1
676,517,641,-1
625,520,519,-1
626,521,520,-1
585,479,586,-1
584,587,481,-1
586,480,588,-1
587,589,483,-1
588,482,593,-1
593,487,590,-1
590,484,592,-1
592,486,591,-1
589,594,488,-1
558,591,485,-1
559,453,595,-1
594,595,489,-1
597,598,492,-1
597,491,596,-1
599,493,600,-1
598,609,503,-1
584,585,587,-1
585,586,587,-1
587,586,589,-1
586,588,589,-1
588,593,589,-1
589,593,594,-1
593,590,594,-1
590,592,594,-1
594,592,595,-1
559,595,591,-1
592,591,595,-1
597,596,598,-1
598,596,609,-1
596,599,609,-1
599,600,609,-1
601,495,603,-1
602,603,497,-1
604,605,499,-1
604,498,622,-1
605,606,500,-1
602,601,603,-1
533,601,602,-1
604,606,605,-1
604,623,606,-1
600,494,607,-1
577,608,502,-1
607,501,608,-1
609,610,504,-1
611,505,613,-1
611,612,506,-1
612,615,509,-1
617,618,512,-1
617,511,616,-1
618,621,515,-1
619,513,620,-1
620,514,621,-1
607,608,610,-1
600,607,609,-1
609,607,610,-1
577,610,608,-1
611,613,612,-1
612,613,615,-1
613,614,615,-1
617,616,618,-1
618,616,619,-1
618,619,621,-1
619,620,621,-1
622,516,624,-1
623,517,676,-1
623,624,518,-1
625,626,520,-1
625,519,1279,-1
626,627,521,-1
604,622,623,-1
623,622,624,-1
606,623,676,-1
606,676,678,-1
625,627,626,-1
625,1279,627,-1
664,629,418,-1
663,630,628,-1
664,628,629,-1
665,632,630,-1
666,422,631,-1
667,424,632,-1
530,634,424,-1
533,633,427,-1
668,421,633,-1
524,664,418,-1
524,528,666,-1
524,666,664,-1
663,628,664,-1
663,665,630,-1
665,667,632,-1
663,664,665,-1
664,667,665,-1
528,422,666,-1
530,424,667,-1
526,666,631,-1
533,668,633,-1
530,669,634,-1
527,530,666,-1
530,667,666,-1
527,668,530,-1
533,602,668,-1
530,668,669,-1
602,669,668,-1
664,666,667,-1
670,496,635,-1
606,639,500,-1
671,635,636,-1
669,637,634,-1
672,636,637,-1
673,640,638,-1
674,638,639,-1
675,656,640,-1
677,641,642,-1
678,644,643,-1
679,646,644,-1
680,642,645,-1
681,647,646,-1
682,648,647,-1
689,643,654,-1
683,649,648,-1
684,650,649,-1
685,658,650,-1
686,645,651,-1
687,651,652,-1
627,661,521,-1
688,652,653,-1
690,654,655,-1
692,655,657,-1
693,657,658,-1
691,659,656,-1
694,653,659,-1
695,662,660,-1
696,660,661,-1
697,1344,662,-1
602,496,670,-1
606,674,639,-1
602,670,669,-1
606,678,674,-1
670,635,671,-1
671,636,672,-1
669,672,637,-1
673,638,674,-1
673,675,640,-1
670,671,672,-1
670,672,669,-1
673,674,675,-1
675,674,691,-1
676,641,677,-1
678,679,644,-1
677,642,680,-1
680,645,686,-1
679,681,646,-1
681,682,647,-1
682,683,648,-1
678,643,689,-1
683,684,649,-1
684,685,650,-1
686,651,687,-1
687,652,688,-1
688,653,694,-1
627,696,661,-1
676,679,678,-1
676,677,679,-1
677,680,681,-1
677,681,679,-1
680,682,681,-1
680,686,682,-1
682,686,683,-1
678,689,674,-1
686,687,683,-1
627,1280,696,-1
683,687,684,-1
684,687,688,-1
684,688,685,-1
688,694,685,-1
689,654,690,-1
690,655,692,-1
675,691,656,-1
692,657,693,-1
693,658,685,-1
691,694,659,-1
695,660,696,-1
695,697,662,-1
674,689,691,-1
689,690,691,-1
690,692,691,-1
692,694,691,-1
693,685,694,-1
692,693,694,-1
695,696,697,-1
696,1426,697,-1
772,699,700,-1
773,58,701,-1
771,701,699,-1
131,709,59,-1
774,713,702,-1
787,700,715,-1
775,704,703,-1
776,705,704,-1
779,703,707,-1
778,708,706,-1
780,707,708,-1
777,720,705,-1
786,706,714,-1
782,702,710,-1
781,710,709,-1
783,712,711,-1
785,711,713,-1
784,718,712,-1
788,715,716,-1
790,716,718,-1
789,719,717,-1
792,717,720,-1
791,721,719,-1
793,728,721,-1
795,722,723,-1
796,725,724,-1
797,726,725,-1
801,724,729,-1
799,730,727,-1
794,714,722,-1
800,736,728,-1
809,723,737,-1
798,743,726,-1
810,727,738,-1
802,729,730,-1
804,731,732,-1
803,738,731,-1
805,747,733,-1
820,732,748,-1
806,735,734,-1
808,734,736,-1
807,740,735,-1
811,737,739,-1
812,739,740,-1
813,742,741,-1
815,741,743,-1
814,744,742,-1
816,733,744,-1
817,746,745,-1
819,745,747,-1
818,750,746,-1
821,748,749,-1
822,749,750,-1
771,699,772,-1
771,773,701,-1
772,700,787,-1
774,702,782,-1
775,776,704,-1
775,703,779,-1
776,777,705,-1
778,780,708,-1
779,707,780,-1
778,706,786,-1
777,792,720,-1
794,786,714,-1
130,773,131,-1
771,774,773,-1
131,773,781,-1
774,781,773,-1
771,772,787,-1
771,787,774,-1
775,777,776,-1
775,779,777,-1
777,779,778,-1
778,779,780,-1
777,778,786,-1
777,786,792,-1
131,781,709,-1
781,782,710,-1
774,785,713,-1
783,784,712,-1
783,711,785,-1
787,715,788,-1
784,790,718,-1
788,716,790,-1
789,791,719,-1
789,717,792,-1
791,793,721,-1
774,782,781,-1
774,787,785,-1
783,785,784,-1
784,785,787,-1
784,787,790,-1
787,788,790,-1
789,792,791,-1
791,792,793,-1
792,786,793,-1
800,793,786,-1
794,722,795,-1
796,797,725,-1
796,724,801,-1
797,798,726,-1
795,723,809,-1
800,728,793,-1
799,727,810,-1
798,815,743,-1
801,729,802,-1
799,802,730,-1
803,731,804,-1
803,810,738,-1
805,733,816,-1
804,732,820,-1
796,798,797,-1
796,801,798,-1
798,801,799,-1
794,795,786,-1
800,786,795,-1
800,795,809,-1
798,799,810,-1
798,810,815,-1
799,801,802,-1
803,804,810,-1
804,805,810,-1
804,820,805,-1
800,808,736,-1
806,807,735,-1
808,806,734,-1
809,737,811,-1
807,812,740,-1
811,739,812,-1
813,814,742,-1
815,813,741,-1
814,816,744,-1
805,819,747,-1
817,818,746,-1
817,745,819,-1
820,748,821,-1
818,822,750,-1
821,749,822,-1
800,809,808,-1
808,807,806,-1
808,809,807,-1
807,809,812,-1
809,811,812,-1
815,814,813,-1
815,816,814,-1
815,810,816,-1
805,816,810,-1
805,820,819,-1
817,819,818,-1
818,819,820,-1
818,820,822,-1
820,821,822,-1
823,752,751,-1
824,753,752,-1
827,751,755,-1
826,756,754,-1
828,755,756,-1
825,763,753,-1
832,754,760,-1
829,760,757,-1
830,757,758,-1
831,767,759,-1
840,758,768,-1
833,762,761,-1
835,761,763,-1
834,764,762,-1
836,759,764,-1
837,766,765,-1
839,765,767,-1
838,770,766,-1
841,768,769,-1
842,769,770,-1
823,824,752,-1
823,751,827,-1
824,825,753,-1
826,828,756,-1
827,755,828,-1
826,754,832,-1
825,835,763,-1
832,760,829,-1
831,759,836,-1
829,757,830,-1
830,758,840,-1
823,825,824,-1
823,827,825,-1
825,827,826,-1
826,827,828,-1
825,826,832,-1
825,832,835,-1
832,829,830,-1
831,832,830,-1
831,830,840,-1
833,834,762,-1
833,761,835,-1
834,836,764,-1
837,838,766,-1
831,839,767,-1
839,837,765,-1
840,768,841,-1
838,842,770,-1
841,769,842,-1
833,835,834,-1
834,835,836,-1
835,832,836,-1
831,836,832,-1
831,840,839,-1
839,838,837,-1
839,840,838,-1
838,840,842,-1
840,841,842,-1
963,844,843,-1
964,845,844,-1
967,843,847,-1
966,848,846,-1
965,863,845,-1
968,847,848,-1
969,850,849,-1
970,851,850,-1
971,869,851,-1
972,849,852,-1
973,852,853,-1
974,853,854,-1
975,856,855,-1
976,857,856,-1
979,855,859,-1
980,859,860,-1
978,860,858,-1
977,875,857,-1
978,858,876,-1
984,846,864,-1
981,862,861,-1
983,861,863,-1
982,866,862,-1
985,864,865,-1
986,865,866,-1
987,868,867,-1
989,867,869,-1
988,872,868,-1
990,854,870,-1
991,870,871,-1
992,871,872,-1
993,874,873,-1
995,873,875,-1
994,878,874,-1
997,876,877,-1
998,877,878,-1
963,964,844,-1
963,843,967,-1
964,965,845,-1
966,846,984,-1
966,968,848,-1
967,847,968,-1
969,970,850,-1
969,849,972,-1
970,971,851,-1
972,852,973,-1
974,973,853,-1
975,976,856,-1
974,854,990,-1
975,855,979,-1
976,977,857,-1
978,980,860,-1
979,859,980,-1
963,965,964,-1
963,967,965,-1
965,967,966,-1
965,966,983,-1
966,967,968,-1
969,971,970,-1
969,974,971,-1
971,974,989,-1
969,972,974,-1
974,972,973,-1
975,977,976,-1
975,979,977,-1
977,979,978,-1
978,979,980,-1
977,978,995,-1
965,983,863,-1
971,989,869,-1
981,982,862,-1
981,861,983,-1
984,864,985,-1
982,986,866,-1
985,865,986,-1
987,988,868,-1
987,867,989,-1
977,995,875,-1
978,876,996,-1
988,992,872,-1
990,870,991,-1
991,871,992,-1
993,994,874,-1
993,873,995,-1
994,998,878,-1
996,876,997,-1
997,877,998,-1
966,984,983,-1
981,983,982,-1
982,983,986,-1
983,984,986,-1
984,985,986,-1
987,989,988,-1
988,989,990,-1
974,990,989,-1
978,996,995,-1
988,990,992,-1
990,991,992,-1
993,995,994,-1
994,995,996,-1
994,996,998,-1
996,997,998,-1
1000,879,880,-1
1017,882,897,-1
1001,880,881,-1
1002,884,882,-1
1003,881,883,-1
1004,885,884,-1
1005,886,885,-1
1006,887,886,-1
1007,888,887,-1
1009,883,889,-1
1010,891,890,-1
1011,892,891,-1
1013,893,915,-1
1014,890,894,-1
1013,895,893,-1
1015,894,895,-1
999,896,879,-1
1016,899,896,-1
1018,897,898,-1
1019,901,899,-1
1020,898,900,-1
1021,904,901,-1
1022,900,902,-1
1023,902,903,-1
1024,905,904,-1
1026,903,906,-1
1027,906,907,-1
1025,910,905,-1
1028,907,908,-1
1029,908,909,-1
1041,909,923,-1
1030,911,910,-1
1008,912,888,-1
1033,889,913,-1
1032,913,912,-1
1012,914,892,-1
1034,915,916,-1
1037,916,919,-1
1035,918,917,-1
1036,920,918,-1
1039,924,921,-1
1040,921,922,-1
1042,923,924,-1
1043,922,925,-1
1031,925,911,-1
1044,927,926,-1
1046,926,928,-1
1046,928,914,-1
1047,917,929,-1
1045,932,927,-1
1048,929,930,-1
1049,930,931,-1
1050,950,932,-1
1051,934,933,-1
1052,935,934,-1
1055,933,937,-1
1054,938,936,-1
1056,937,938,-1
1058,939,940,-1
1059,919,941,-1
1038,943,920,-1
1060,941,942,-1
1061,944,943,-1
1063,942,945,-1
1062,946,944,-1
1065,949,947,-1
1064,947,946,-1
1066,945,948,-1
1068,948,950,-1
1067,931,949,-1
1069,952,951,-1
1072,954,935,-1
1071,936,953,-1
1072,951,954,-1
1070,955,952,-1
1057,953,939,-1
1074,959,956,-1
1073,956,955,-1
1075,958,957,-1
1077,957,959,-1
1078,940,960,-1
1076,962,958,-1
1079,960,961,-1
1080,961,962,-1
999,879,1000,-1
1000,880,1001,-1
1017,1002,882,-1
1002,1004,884,-1
1001,881,1003,-1
1004,1005,885,-1
1005,1006,886,-1
1003,883,1009,-1
1006,1007,887,-1
1007,1008,888,-1
1009,889,1033,-1
1010,1011,891,-1
1011,1012,892,-1
1010,890,1014,-1
1014,894,1015,-1
1013,1015,895,-1
999,1000,1017,-1
1017,1000,1002,-1
1000,1001,1002,-1
1002,1001,1004,-1
1001,1003,1005,-1
1001,1005,1004,-1
1005,1003,1006,-1
1006,1003,1007,-1
1003,1009,1007,-1
1007,1009,1008,-1
1010,1012,1011,-1
1010,1013,1012,-1
1010,1014,1013,-1
1013,1014,1015,-1
999,1016,896,-1
1017,897,1018,-1
1018,898,1020,-1
1016,1019,899,-1
1020,900,1022,-1
1019,1021,901,-1
1021,1024,904,-1
1022,902,1023,-1
1023,903,1026,-1
1024,1025,905,-1
1026,906,1027,-1
1025,1030,910,-1
1027,907,1028,-1
1028,908,1029,-1
1029,909,1041,-1
1030,1031,911,-1
1008,1032,912,-1
1032,1033,913,-1
1013,915,1034,-1
1012,1046,914,-1
1035,917,1047,-1
1034,916,1037,-1
1035,1036,918,-1
1037,919,1059,-1
1036,1038,920,-1
1039,1042,924,-1
1039,921,1040,-1
1040,922,1043,-1
1041,923,1042,-1
1031,1043,925,-1
1044,926,1046,-1
1044,1045,927,-1
1045,1050,932,-1
1047,929,1048,-1
1048,930,1049,-1
999,1018,1016,-1
1016,1018,1020,-1
999,1017,1018,-1
1016,1020,1019,-1
1019,1020,1021,-1
1020,1022,1021,-1
1021,1022,1024,-1
1022,1023,1024,-1
1023,1025,1024,-1
1023,1026,1025,-1
1026,1030,1025,-1
1026,1027,1030,-1
1027,1028,1030,-1
1028,1029,1031,-1
1029,1041,1031,-1
1028,1031,1030,-1
1009,1033,1008,-1
1008,1033,1032,-1
1012,1013,1034,-1
1012,1034,1035,-1
1012,1035,1046,-1
1034,1036,1035,-1
1034,1037,1036,-1
1037,1059,1038,-1
1036,1037,1038,-1
1039,1040,1042,-1
1041,1043,1031,-1
1041,1042,1043,-1
1040,1043,1042,-1
1044,1046,1045,-1
1035,1047,1046,-1
1046,1047,1050,-1
1045,1046,1050,-1
1047,1048,1050,-1
1048,1049,1050,-1
1051,1052,934,-1
1051,933,1055,-1
1052,1053,935,-1
1055,937,1056,-1
1054,1056,938,-1
1057,939,1058,-1
1051,1053,1052,-1
1051,1055,1053,-1
1053,1055,1054,-1
1054,1055,1056,-1
1059,941,1060,-1
1038,1061,943,-1
1061,1062,944,-1
1060,942,1063,-1
1063,945,1066,-1
1053,1072,935,-1
1054,936,1071,-1
1062,1064,946,-1
1065,1067,949,-1
1065,947,1064,-1
1068,1066,948,-1
1049,931,1067,-1
1050,1068,950,-1
1069,1070,952,-1
1069,951,1072,-1
1070,1073,955,-1
1057,1071,953,-1
1074,956,1073,-1
1058,940,1078,-1
1075,957,1077,-1
1075,1076,958,-1
1074,1077,959,-1
1078,960,1079,-1
1076,1080,962,-1
1079,961,1080,-1
1038,1059,1061,-1
1059,1060,1061,-1
1060,1062,1061,-1
1060,1063,1062,-1
1053,1054,1071,-1
1062,1063,1064,-1
1065,1064,1066,-1
1065,1066,1068,-1
1063,1066,1064,-1
1049,1067,1068,-1
1049,1068,1050,-1
1065,1068,1067,-1
1053,1071,1072,-1
1069,1072,1070,-1
1070,1072,1073,-1
1072,1071,1073,-1
1057,1058,1071,-1
1074,1071,1058,-1
1074,1058,1078,-1
1074,1073,1071,-1
1075,1077,1076,-1
1074,1078,1077,-1
1076,1077,1078,-1
1076,1078,1080,-1
1078,1079,1080,-1
1210,1085,1083,-1
1212,1084,1085,-1
1213,1088,1086,-1
1214,1086,1087,-1
1215,1090,1088,-1
1216,1083,1089,-1
1217,1091,1090,-1
1219,1089,1092,-1
1218,1093,1091,-1
1220,1098,1093,-1
1211,1094,1084,-1
1221,1096,1094,-1
1222,1087,1095,-1
1223,1133,1096,-1
1224,1095,1097,-1
1261,1097,1134,-1
1225,1102,1098,-1
1226,1092,1099,-1
1227,1101,1100,-1
1228,1105,1101,-1
1229,1103,1102,-1
1231,1099,1104,-1
1230,1104,1103,-1
1234,1100,1107,-1
1233,1108,1106,-1
1235,1107,1108,-1
1238,1106,1111,-1
1236,1142,1109,-1
1237,1109,1110,-1
1232,1147,1105,-1
1241,1111,1114,-1
1239,1113,1112,-1
1240,1115,1113,-1
1275,1112,1148,-1
1243,1117,1116,-1
1244,1118,1117,-1
1247,1116,1120,-1
1246,1121,1119,-1
1248,1120,1121,-1
1249,1114,1122,-1
1251,1122,1124,-1
1242,1123,1115,-1
1250,1126,1123,-1
1252,1124,1125,-1
1253,1127,1126,-1
1254,1128,1127,-1
1256,1125,1129,-1
1295,1119,1168,-1
1294,1167,1118,-1
1257,1168,1130,-1
1258,1130,1131,-1
1296,1132,1169,-1
1259,1172,1132,-1
1300,1131,1173,-1
1210,1212,1085,-1
1212,1211,1084,-1
1213,1086,1214,-1
1210,1083,1216,-1
1213,1215,1088,-1
1215,1217,1090,-1
1216,1089,1219,-1
1217,1218,1091,-1
1218,1220,1093,-1
1221,1094,1211,-1
1214,1087,1222,-1
1222,1095,1224,-1
1221,1223,1096,-1
1223,1260,1133,-1
1224,1097,1261,-1
1219,1092,1226,-1
1220,1225,1098,-1
1227,1228,1101,-1
1228,1232,1105,-1
1225,1229,1102,-1
1226,1099,1231,-1
1229,1230,1103,-1
1230,1231,1104,-1
1227,1100,1234,-1
1235,1108,1233,-1
1234,1107,1235,-1
1233,1106,1238,-1
1236,1109,1237,-1
1238,1111,1241,-1
1239,1240,1113,-1
1241,1114,1249,-1
1240,1242,1115,-1
1232,1274,1147,-1
1239,1112,1275,-1
1210,1213,1212,-1
1210,1215,1213,-1
1212,1214,1211,-1
1212,1213,1214,-1
1210,1216,1215,-1
1215,1216,1217,-1
1216,1218,1217,-1
1216,1219,1218,-1
1219,1220,1218,-1
1219,1225,1220,-1
1211,1214,1222,-1
1221,1211,1222,-1
1221,1222,1223,-1
1222,1224,1223,-1
1223,1224,1260,-1
1224,1261,1260,-1
1219,1226,1225,-1
1226,1229,1225,-1
1227,1232,1228,-1
1226,1231,1229,-1
1229,1231,1230,-1
1227,1233,1232,-1
1227,1234,1233,-1
1234,1235,1233,-1
1232,1233,1238,-1
1232,1238,1239,-1
1236,1237,1269,-1
1232,1239,1274,-1
1238,1240,1239,-1
1238,1241,1240,-1
1241,1242,1240,-1
1241,1249,1242,-1
1239,1275,1274,-1
1243,1244,1117,-1
1244,1245,1118,-1
1243,1116,1247,-1
1248,1121,1246,-1
1247,1120,1248,-1
1246,1119,1295,-1
1249,1122,1251,-1
1242,1250,1123,-1
1250,1253,1126,-1
1251,1124,1252,-1
1253,1254,1127,-1
1255,1128,1254,-1
1252,1125,1256,-1
1256,1129,1291,-1
1245,1294,1118,-1
1257,1130,1258,-1
1258,1131,1300,-1
1259,1132,1296,-1
1257,1295,1168,-1
1259,1299,1172,-1
1243,1245,1244,-1
1243,1247,1245,-1
1247,1246,1245,-1
1247,1248,1246,-1
1245,1246,1295,-1
1249,1250,1242,-1
1249,1251,1250,-1
1250,1251,1253,-1
1253,1251,1252,-1
1253,1252,1254,-1
1255,1254,1256,-1
1255,1256,1291,-1
1254,1252,1256,-1
1245,1295,1294,-1
1257,1258,1295,-1
1258,1259,1295,-1
1259,1296,1295,-1
1258,1300,1259,-1
1259,1300,1299,-1
1260,1135,1133,-1
1263,1134,1136,-1
1265,1136,1138,-1
1262,1140,1135,-1
1264,1139,1137,-1
1270,1137,1143,-1
1266,1138,1139,-1
1267,1141,1140,-1
1269,1143,1142,-1
1271,1110,1144,-1
1268,1144,1141,-1
1272,1146,1145,-1
1274,1145,1147,-1
1273,1151,1146,-1
1276,1148,1149,-1
1277,1149,1150,-1
1278,1164,1151,-1
1279,519,1152,-1
1281,1152,1154,-1
1280,1154,1153,-1
1284,1156,1157,-1
1285,1155,1158,-1
1283,1158,1156,-1
1286,1161,1159,-1
1287,1159,1160,-1
1288,1162,1161,-1
1255,1163,1128,-1
1290,1150,1163,-1
1291,1129,1164,-1
1292,1166,1165,-1
1294,1165,1167,-1
1293,1169,1166,-1
1297,1171,1170,-1
1299,1170,1172,-1
1298,1175,1171,-1
1301,1173,1174,-1
1302,1174,1175,-1
1303,1157,1176,-1
1304,1176,1177,-1
1289,1178,1162,-1
1305,1179,1178,-1
1306,1180,1179,-1
1307,1181,1180,-1
1308,1182,1181,-1
1309,1183,1182,-1
1310,1177,1183,-1
1312,1184,1185,-1
1313,1185,1186,-1
1316,1189,1184,-1
1314,1188,1187,-1
1316,1190,1189,-1
1317,1187,1190,-1
1315,1191,1188,-1
1318,1192,1191,-1
1319,1193,1192,-1
1320,1196,1193,-1
1261,1134,1263,-1
1260,1262,1135,-1
1263,1136,1265,-1
1262,1267,1140,-1
1266,1139,1264,-1
1270,1264,1137,-1
1265,1138,1266,-1
1267,1268,1141,-1
1236,1269,1142,-1
1270,1143,1269,-1
1237,1110,1271,-1
1268,1271,1144,-1
1272,1145,1274,-1
1272,1273,1146,-1
1273,1278,1151,-1
1275,1148,1276,-1
1276,1149,1277,-1
1260,1261,1262,-1
1261,1263,1262,-1
1263,1267,1262,-1
1263,1265,1267,-1
1265,1266,1267,-1
1267,1266,1268,-1
1266,1264,1268,-1
1270,1268,1264,-1
1270,1269,1271,-1
1237,1271,1269,-1
1270,1271,1268,-1
1272,1274,1273,-1
1273,1274,1278,-1
1274,1275,1278,-1
1275,1276,1278,-1
1276,1277,1278,-1
1279,1152,1281,-1
1280,1281,1154,-1
1282,1155,1285,-1
1283,1156,1284,-1
1285,1158,1283,-1
1287,1286,1159,-1
1288,1161,1286,-1
1288,1289,1162,-1
1280,1279,1281,-1
627,1279,1280,-1
1283,1284,1288,-1
1288,1284,1289,-1
1285,1283,1286,-1
1283,1288,1286,-1
1282,1285,1287,-1
1285,1286,1287,-1
1255,1290,1163,-1
1277,1150,1290,-1
1278,1291,1164,-1
1292,1293,1166,-1
1292,1165,1294,-1
1293,1296,1169,-1
1297,1298,1171,-1
1297,1170,1299,-1
1298,1302,1175,-1
1300,1173,1301,-1
1301,1174,1302,-1
1277,1290,1291,-1
1255,1291,1290,-1
1277,1291,1278,-1
1292,1294,1293,-1
1293,1294,1296,-1
1295,1296,1294,-1
1297,1299,1298,-1
1298,1299,1300,-1
1298,1300,1302,-1
1300,1301,1302,-1
1284,1157,1303,-1
1303,1176,1304,-1
1289,1305,1178,-1
1305,1306,1179,-1
1306,1307,1180,-1
1307,1308,1181,-1
1304,1177,1310,-1
1308,1309,1182,-1
1309,1310,1183,-1
1311,1184,1312,-1
1312,1185,1313,-1
1313,1186,1321,-1
1311,1316,1184,-1
1314,1315,1188,-1
1314,1187,1317,-1
1316,1317,1190,-1
1315,1318,1191,-1
1319,1192,1318,-1
1319,1320,1193,-1
1320,1323,1196,-1
1284,1305,1289,-1
1284,1303,1305,-1
1305,1303,1306,-1
1303,1307,1306,-1
1303,1304,1307,-1
1307,1304,1308,-1
1304,1310,1308,-1
1308,1310,1309,-1
1311,1312,1315,-1
1312,1319,1318,-1
1312,1313,1319,-1
1313,1320,1319,-1
1313,1323,1320,-1
1311,1315,1314,-1
1311,1314,1316,-1
1316,1314,1317,-1
1312,1318,1315,-1
1321,1186,1194,-1
1322,1202,1195,-1
1323,1197,1196,-1
1324,1199,1197,-1
1325,1194,1198,-1
1326,1200,1199,-1
1328,1198,1201,-1
1330,1201,1203,-1
1335,1195,1208,-1
1329,1206,1202,-1
1332,1204,1205,-1
1334,1205,1207,-1
1333,1389,1206,-1
1331,1209,1204,-1
1336,1208,1209,-1
1321,1194,1325,-1
1323,1324,1197,-1
1324,1326,1199,-1
1326,1327,1200,-1
1325,1198,1328,-1
1322,1329,1202,-1
1328,1201,1330,-1
1330,1203,1464,-1
1322,1195,1335,-1
1331,1204,1332,-1
1329,1333,1206,-1
1332,1205,1334,-1
1331,1336,1209,-1
1334,1207,1475,-1
1313,1321,1323,-1
1321,1324,1323,-1
1321,1325,1324,-1
1324,1325,1326,-1
1325,1328,1326,-1
1326,1328,1327,-1
1327,1328,1330,-1
1322,1331,1329,-1
1329,1331,1333,-1
1331,1332,1333,-1
1332,1334,1333,-1
1333,1334,1473,-1
1322,1335,1331,-1
1331,1335,1336,-1
1335,1208,1336,-1
1282,1337,1155,-1
1421,1338,1337,-1
1426,1153,1342,-1
1422,1345,1338,-1
1423,1160,1339,-1
1424,1339,1340,-1
1425,1340,1341,-1
1427,1342,1343,-1
1428,1343,1344,-1
1429,1346,1345,-1
1431,1341,1347,-1
1441,1347,1357,-1
1430,1348,1346,-1
1433,1362,1349,-1
1434,1349,1350,-1
1435,1352,1351,-1
1436,1354,1352,-1
1437,1351,1353,-1
1460,1353,1376,-1
1438,1382,1354,-1
1440,1355,1356,-1
1442,1357,1358,-1
1443,1358,1359,-1
1444,1359,1360,-1
1432,1361,1348,-1
1446,1360,1362,-1
1447,1350,1363,-1
1445,1363,1361,-1
1439,1365,1355,-1
1448,1356,1364,-1
1451,1364,1367,-1
1449,1366,1365,-1
1450,1371,1366,-1
1452,1367,1368,-1
1453,1368,1369,-1
1454,1369,1370,-1
1484,1370,1400,-1
1455,1372,1371,-1
1456,1373,1372,-1
1457,1401,1373,-1
1280,1153,1426,-1
1282,1421,1337,-1
1421,1422,1338,-1
1287,1160,1423,-1
1423,1339,1424,-1
1422,1429,1345,-1
1424,1340,1425,-1
1282,1423,1421,-1
1421,1423,1422,-1
1280,1426,696,-1
1282,1287,1423,-1
1423,1424,1422,-1
1422,1424,1429,-1
1424,1425,1429,-1
1426,1342,1427,-1
697,1428,1344,-1
1427,1343,1428,-1
1425,1341,1431,-1
1429,1430,1346,-1
1431,1347,1441,-1
1430,1432,1348,-1
1426,1427,1428,-1
697,1426,1428,-1
1425,1430,1429,-1
1425,1431,1430,-1
1430,1431,1432,-1
1431,1441,1432,-1
1433,1349,1434,-1
1434,1350,1447,-1
1435,1351,1437,-1
1435,1436,1352,-1
1437,1353,1460,-1
1436,1438,1354,-1
1438,1466,1382,-1
1439,1355,1440,-1
1440,1356,1448,-1
1433,1434,1446,-1
1435,1437,1436,-1
1437,1460,1461,-1
1437,1438,1436,-1
1437,1461,1466,-1
1437,1466,1438,-1
1439,1440,1448,-1
1441,1357,1442,-1
1442,1358,1443,-1
1443,1359,1444,-1
1432,1445,1361,-1
1444,1360,1446,-1
1433,1446,1362,-1
1445,1447,1363,-1
1439,1449,1365,-1
1448,1364,1451,-1
1449,1450,1366,-1
1451,1367,1452,-1
1452,1368,1453,-1
1453,1369,1454,-1
1454,1370,1484,-1
1450,1455,1371,-1
1455,1456,1372,-1
1456,1457,1373,-1
1441,1442,1432,-1
1442,1443,1445,-1
1443,1444,1445,-1
1442,1445,1432,-1
1434,1447,1446,-1
1444,1447,1445,-1
1444,1446,1447,-1
1439,1448,1449,-1
1449,1448,1450,-1
1448,1451,1450,-1
1451,1452,1455,-1
1452,1453,1456,-1
1453,1454,1457,-1
1454,1484,1457,-1
1451,1455,1450,-1
1452,1456,1455,-1
1453,1457,1456,-1
1327,1375,1200,-1
1459,1374,1375,-1
1458,1376,1374,-1
1461,1378,1377,-1
1463,1377,1379,-1
1462,1381,1378,-1
1464,1203,1380,-1
1465,1380,1381,-1
1466,1383,1382,-1
1467,1384,1383,-1
1468,1386,1384,-1
1469,1379,1385,-1
1471,1385,1387,-1
1470,1398,1386,-1
1472,1387,1388,-1
1473,1390,1389,-1
1475,1207,1391,-1
1497,1391,1413,-1
1474,1392,1390,-1
1476,1395,1392,-1
1478,1393,1394,-1
1479,1396,1395,-1
1482,1399,1398,-1
1483,1400,1399,-1
1485,1388,1401,-1
1477,1406,1393,-1
1486,1394,1402,-1
1487,1402,1403,-1
1488,1403,1404,-1
1489,1404,1405,-1
1490,1407,1406,-1
1491,1411,1407,-1
1492,1405,1408,-1
1494,1408,1410,-1
1481,1409,1397,-1
1493,1410,1409,-1
1495,1412,1411,-1
1496,1419,1412,-1
1498,1413,1414,-1
1499,1414,1415,-1
1480,1417,1396,-1
1500,1415,1416,-1
1501,1397,1417,-1
1502,1416,1418,-1
1504,1418,1420,-1
1503,1420,1419,-1
1327,1459,1375,-1
1459,1458,1374,-1
1460,1376,1458,-1
1461,1462,1378,-1
1461,1377,1463,-1
1462,1465,1381,-1
1463,1379,1469,-1
1464,1380,1465,-1
1466,1467,1383,-1
1467,1468,1384,-1
1469,1385,1471,-1
1468,1470,1386,-1
1470,1482,1398,-1
1485,1472,1388,-1
1471,1387,1472,-1
1333,1473,1389,-1
1473,1474,1390,-1
1475,1391,1497,-1
1474,1476,1392,-1
1476,1479,1395,-1
1477,1393,1478,-1
1478,1394,1486,-1
1479,1480,1396,-1
1501,1481,1397,-1
1327,1464,1459,-1
1459,1465,1458,-1
1459,1464,1465,-1
1460,1458,1462,-1
1460,1462,1461,-1
1461,1463,1466,-1
1458,1465,1462,-1
1327,1330,1464,-1
1466,1463,1467,-1
1467,1463,1469,-1
1467,1469,1468,-1
1468,1471,1470,-1
1469,1471,1468,-1
1470,1471,1472,-1
1470,1472,1482,-1
1334,1475,1473,-1
1473,1475,1474,-1
1474,1475,1497,-1
1474,1497,1476,-1
1476,1498,1479,-1
1477,1478,1486,-1
1483,1399,1482,-1
1484,1400,1483,-1
1457,1485,1401,-1
1477,1490,1406,-1
1486,1402,1487,-1
1487,1403,1488,-1
1488,1404,1489,-1
1490,1491,1407,-1
1491,1495,1411,-1
1489,1405,1492,-1
1492,1408,1494,-1
1481,1493,1409,-1
1493,1494,1410,-1
1495,1496,1412,-1
1483,1482,1485,-1
1457,1484,1485,-1
1484,1483,1485,-1
1482,1472,1485,-1
1477,1486,1490,-1
1490,1486,1487,-1
1490,1487,1491,-1
1487,1488,1491,-1
1488,1489,1491,-1
1489,1495,1491,-1
1489,1492,1495,-1
1492,1494,1495,-1
1493,1496,1494,-1
1493,1503,1496,-1
1495,1494,1496,-1
1497,1413,1498,-1
1498,1414,1499,-1
1499,1415,1500,-1
1500,1416,1502,-1
1480,1501,1417,-1
1502,1418,1504,-1
1476,1497,1498,-1
1498,1499,1479,-1
1479,1499,1480,-1
1480,1499,1500,-1
1480,1500,1501,-1
1501,1500,1502,-1
1501,1504,1481,-1
1501,1502,1504,-1
1504,1420,1503,-1
1503,1419,1496,-1
1481,1503,1493,-1
1481,1504,1503,-1
]

colorPerVertex FALSE

color Color { color [
 0 0 0,
 1 1 1,
 0.976471 0.843137 0.172549, # default colour
] }

colorIndex [
0 0 0 0 0 0 0 0 0 0 0 0 0 0 0 0 0 0 0 0 0 0 0 0 0 0 0 0 0 0 0 0 0 0 0 0 0 0 0 0 0 0 0 0 0 0 0 0 0 0 0 0 0 0 0 0 0 0 0 0 0 0 0 0 0 0 0 0 0 0 0 0 0 0 0 0 0 0 0 0 0 0 0 0 0 0 0 0 0 0 0 0 0 0 0 0 0 0 0 0 0 0 0 0 0 0 0 0 0 0 0 0 0 0 0 0 0 0 0 0 0 0 0 0 0 0 0 0 0 0 0 0 0 0 0 0 0 0 0 0 0 0 0 0 0 0 0 0 0 0 0 0 0 0 0 0 0 0 0 0 0 0 0 0 0 0 0 0 0 0 0 0 0 0 0 0 0 0 0 0 0 0 0 0 0 0 0 0 0 0 0 0 0 0 0 0 0 0 0 0 0 0 0 0 0 0 0 0 0 0 0 0 0 0 0 0 0 0 0 0 0 0 0 0 0 0 0 0 0 0 0 0 0 0 0 0 0 0 0 0 0 0 0 0 0 0 0 0 0 0 0 0 0 0 0 0 0 0 0 0 0 0 0 0 0 0 0 0 0 0 0 0 0 0 0 0 0 0 0 0 0 0 0 0 0 0 0 0 0 0 0 0 0 0 0 0 0 0 0 0 0 0 0 0 0 0 0 0 0 0 0 0 0 0 0 0 0 0 0 0 0 0 0 0 0 0 0 0 0 0 0 0 0 0 0 0 0 0 0 0 0 0 0 0 0 0 0 0 0 0 0 0 0 0 0 0 0 0 0 0 0 0 0 0 0 0 0 0 0 0 0 0 0 0 0 0 0 0 0 0 0 0 0 0 0 0 0 0 0 0 0 0 0 0 0 0 0 0 0 0 0 0 0 0 0 0 0 0 0 0 0 0 0 0 0 0 0 0 0 0 0 0 0 0 0 0 0 0 0 0 0 0 0 0 0 0 0 0 0 0 0 0 0 0 0 0 0 0 0 0 0 0 0 0 0 0 0 0 0 0 0 0 0 0 0 0 0 0 0 0 0 0 0 0 0 0 0 0 0 0 0 0 0 0 0 0 0 0 0 0 0 0 0 0 0 0 0 0 0 0 0 0 0 0 0 0 0 0 0 0 0 0 0 0 0 0 0 0 0 0 0 0 0 0 0 0 0 0 0 0 0 0 0 0 0 0 0 0 0 0 0 0 0 0 0 0 0 0 0 0 0 0 0 0 0 0 0 0 0 0 0 0 0 0 0 0 0 0 0 0 0 0 0 0 0 0 0 0 0 0 0 0 0 0 0 0 0 0 0 0 0 0 0 0 0 0 0 0 0 0 0 0 0 0 0 0 0 0 0 0 0 0 0 0 0 0 0 0 0 0 0 0 0 0 0 0 0 0 0 0 0 0 0 0 0 0 0 0 0 0 0 0 0 0 0 0 0 0 0 0 0 0 0 0 0 0 0 0 0 0 0 0 0 0 0 0 0 0 0 0 0 0 0 0 0 0 0 0 0 0 0 0 0 0 0 0 0 0 0 0 0 0 0 0 0 0 0 0 0 0 0 0 0 0 0 0 0 0 0 0 0 0 0 0 0 0 0 0 0 0 0 0 0 0 0 0 0 0 0 0 0 0 0 0 0 0 0 0 0 0 0 0 0 0 0 0 0 0 0 0 0 0 0 0 0 0 0 0 0 0 0 0 0 0 0 0 0 0 0 0 0 0 0 0 0 0 0 0 0 0 0 0 0 0 0 0 0 0 0 0 0 0 0 0 0 0 0 0 0 0 0 0 0 0 0 0 0 0 0 0 0 0 0 0 0 0 1 1 1 1 1 1 1 1 1 1 1 1 1 1 1 1 1 1 1 1 1 1 1 1 1 1 1 1 1 1 1 1 1 1 1 1 1 1 1 1 1 1 1 1 1 1 1 1 1 1 1 1 1 1 1 1 1 1 1 1 1 1 1 1 1 1 1 1 1 1 1 1 1 1 1 1 1 1 1 1 1 1 1 1 1 1 1 1 1 1 1 1 1 1 1 1 1 1 1 1 1 1 1 1 1 1 1 1 1 1 1 1 1 1 1 1 1 1 1 1 1 1 1 1 1 1 1 1 1 1 1 1 1 1 1 1 1 1 1 1 1 1 1 1 1 1 1 1 1 1 1 1 1 1 1 1 1 1 1 1 1 1 1 1 1 1 1 1 1 1 1 1 1 1 1 1 1 1 1 1 1 1 1 1 1 1 1 1 1 1 1 1 1 1 1 1 1 1 1 1 1 1 1 1 1 1 1 1 1 1 1 1 1 1 1 1 1 1 1 1 1 1 1 1 1 1 1 1 1 1 1 1 1 1 1 1 1 1 1 1 1 1 1 1 1 1 1 1 1 1 1 1 1 1 1 1 1 1 1 1 1 1 1 1 1 1 1 1 1 1 1 1 1 1 1 1 1 1 1 1 1 1 1 1 1 1 1 1 1 1 1 1 1 1 1 1 1 1 1 1 1 1 1 1 1 1 1 1 1 1 1 1 1 1 1 1 1 1 1 1 1 1 1 1 1 1 1 1 1 1 1 1 1 1 1 1 1 1 1 1 1 1 1 1 1 1 1 1 1 1 1 1 1 1 1 1 1 1 1 1 1 1 1 1 1 1 1 1 1 1 1 1 1 1 1 1 1 1 1 1 1 1 1 1 1 1 1 1 1 1 1 1 1 1 1 1 1 1 1 1 1 1 1 1 1 1 1 1 1 1 1 1 1 1 1 1 1 1 1 1 1 1 1 1 1 1 1 1 1 1 1 1 1 1 1 1 1 1 1 1 1 1 1 1 1 1 1 1 1 1 1 1 1 1 1 1 1 1 1 1 1 1 1 1 1 1 1 1 1 1 1 1 1 1 1 1 1 1 1 1 1 1 1 1 1 1 1 1 1 1 1 1 1 1 1 1 1 1 1 1 1 1 1 1 1 1 1 1 1 1 1 1 1 1 1 1 1 1 1 1 1 1 1 1 1 1 1 1 1 1 1 1 1 1 1 1 1 1 1 1 1 1 1 1 1 1 1 1 1 1 1 1 1 1 1 1 1 1 1 1 1 1 1 1 1 1 1 1 1 1 1 1 1 1 1 1 1 1 1 1 1 1 1 1 1 1 1 1 1 1 1 1 1 1 1 1 1 1 1 1 1 1 1 1 1 1 1 1 1 1 1 1 1 1 1 1 1 1 1 1 1 1 1 1 1 1 1 1 1 1 1 1 1 1 1 1 1 1 1 1 1 1 1 1 1 1 1 1 1 1 1 1 1 1 1 1 1 1 1 1 1 1 1 1 1 1 1 1 1 1 1 1 1 1 1 1 1 1 1 1 1 1 1 1 1 1 1 1 1 1 1 1 1 1 1 1 1 1 1 1 1 1 1 1 1 1 1 1 1 1 1 1 1 1 1 1 1 1 1 1 1 1 1 1 1 1 1 1 1 1 1 1 1 1 1 1 1 1 1 1 1 1 1 1 1 1 1 1 1 1 1 1 1 1 1 1 1 1 1 1 1 1 1 1 1 1 1 1 1 1 1 1 1 1 1 1 1 1 1 1 1 1 1 1 1 1 1 1 1 1 1 1 1 1 1 1 1 1 1 1 1 1 1 1 1 1 1 1 1 1 1 1 1 1 1 1 1 1 1 1 1 1 1 1 1 1 1 1 1 1 1 1 1 1 1 1 1 1 1 1 1 1 1 1 1 1 1 1 1 1 1 1 1 1 1 1 1 1 1 1 1 1 1 1 1 1 1 1 1 1 1 1 1 1 1 1 1 1 1 1 1 1 1 1 1 1 1 1 1 1 1 1 1 1 1 1 1 1 1 1 1 1 1 1 1 1 1 1 1 1 1 1 1 1 1 1 1 1 1 1 1 1 1 1 1 1 1 1 1 1 1 1 1 1 1 1 1 1 1 1 1 1 1 1 1 1 1 1 1 1 1 1 1 1 1 1 1 1 1 1 1 1 1 1 1 1 1 1 1 1 1 1 1 1 1 1 1 1 1 1 1 1 1 1 1 1 1 1 1 1 1 1 1 1 1 1 1 1 1 1 1 1 1 1 1 1 1 1 1 1 1 1 1 1 1 1 1 1 1 1 1 1 1 1 1 1 1 1 1 1 1 1 1 1 1 1 1 1 1 1 1 1 1 1 1 1 1 1 1 1 1 1 1 1 1 1 1 1 1 1 1 1 1 1 1 1 1 1 1 1 1 1 1 1 1 1 1 1 1 1 1 1 1 1 1 1 1 1 1 1 1 1 1 1 1 1 1 1 1 1 1 1 1 1 1 1 1 1 1 1 1 1 1 1 1 1 1 1 1 1 1 1 1 1 1 1 1 1 1 1 1 1 1 1 1 1 1 1 1 1 1 1 1 1 1 1 1 1 1 1 1 1 1 1 1 1 1 1 1 1 1 1 1 1 1 1 1 1 1 1 1 1 1 1 1 1 1 1 1 1 1 1 1 1 1 1 1 1 1 1 1 1 1 1 1 1 1 1 1 1 1 1 1 1 1 1 1 1 1 1 1 1 1 1 1 1 1 1 1 1 1 1 1 1 1 1 1 1 1 1 1 1 1 1 1 1 1 1 1 1 1 1 1 1 1 1 1 1 1 1 1 1 1 1 1 1 1 1 1 1 1 1 1 1 1 1 1 1 1 1 1 1 1 1 1 1 1 1 1 1 1 1 1 1 1 1 1 1 1 1 1 1 1 1 1 1 1 1 1 1 1 1 1 1 1 1 1 1 1 1 1 1 1 1 1 1 1 1 1 1 1 1 1 1 1 1 1 1 1 1 1 1 1 1 1 1 1 1 1 1 1 1 1 1 1 1 1 1 1 1 1 1 1 1 1 1 1 1 1 1 1 1 1 1 1 1 1 1 1 1 1 1 1 1 1 1 1 1 1 1 1 1 1 1 1 1 1 1 1 1 1 1 1 1 1 1 1 1 1 1 1 1 1 1 1 1 1 1 1 1 1 1 1 1 1 1 1 1 1 1 1 1 1 1 1 1 1 1 1 1 1 1 1 1 1 1 1 1 1 1 1 1 1 1 1 1 1 1 1 1 1 1 1 1 1 1 1 1 1 1 1 1 1 1 1 1 1 1 1 1 1 1 1 1 1 1 1 1 1 1 1 1 1 1 1 1 1 1 1 1 1 1 1 1 1 1 1 1 1 1 1 1 1 1 1 1 1 1 1 1 1 1 1 1 1 1 1 1 1 1 1 1 1 1 1 1 1 1 1 1 1 1 1 1 1 1 1 1 1 1 1 1 1 1 1 1 1 1 1 1 1 1 1 1 1 1 1 1 1 1 1 1 1 1 1 1 1 1 1 1 1 1 1 1 1 1 1 1 1 1 1 1 1 1 1 1 1 1 1 1 1 1 1 1 1 1 1 1 1 1 1 1 1 1 1 1 1 1 1 1 1 1 1 1 1 1 1 1 1 1 1 1 1 1 1 1 1 1 1 1 1 1 1 1 1 1 1 1 1 1 1 1 1 1 1 1 1 1 1 1 1 1 1 1 1 1 1 1 1 1 1 1 1 1 1 1 1 1 1 1 1 1 1 1 1 1 1 1 1 1 1 1 1 1 1 1 1 1 1 1 1 1 1 1 1 1 1 1 1 1 1 1 1 1 1 1 1 1 1 1 1 1 1 1 1 1 1 1 1 1 1 1 1 1 1 1 1 1 1 1 1 1 1 1 1 1 1 1 1 1 1 1 1 1 1 1 1 1 1 1 1 1 1 1 1 1 1 1 1 1 1 1 1 1 1 1 1 1 1 1 1 1 1 1 1 1 1 1 1 1 1 1 1 1 1 1 1 1 1 1 1 1 1 1 1 1 1 1 1 1 1 1 1 1 1 1 1 1 1 1 1 1 1 1 1 1 1 1 1 1 1 1 1 1 1 1 1 1 1 1 1 1 1 1 1 1 1 1 1 1 1 1 1 1 1 1 1 1 1 1 1 1 1 1 1 1 1 1 1 1 1 1 1 1 1 1 1 1 1 1 1 1 1 1 1 1 1 1 1 1 1 1 1 1 1 1 1 1 1 1 1 1 1 1 1 1 1 1 1 1 1 1 1 1 1 1 1 1 1 1 1 1 1 1 1 1 1 1 1 1 1 1 1 1 1 1 1 1 1 1 1 1 1 1 1 1 1 1 1 1 1 1 1 1 1 1 1 1 1 1 1 1 1 1 1 1 1 1 1 1 1 1 1 1 1 1 1 1 1 1 1 1 1 1 1 1 1 1 1 1 1 1 1 1 1 1 1 1 1 1 1 1 1 1 1 1 1 1 1 1 1 1 1 1 1 1 1 1 1 1 1 1 1 1 1 1 1 1 1 1 1 1 1 1 1 1 1 1 1 1 1 1 1 1 1 1 1 1 1 1 1 1 1 1 1 1 1 1 1 1 1 1 1 1 1 1 1 1 1 1 1 1 1 1 1 1 1 1 1 1 1 1 1 1 1 1 1 1 1 1 1 1 1 1 1 1 1 1 1 1 1 1 1 1 1 1 1 1 1 1 1 1 1 1 1 1 1 1 1 1 1 1 1 1 1 1 1 1 1 1 1 1 1 1 1 1 1 1 1 1 1 1 1 1 1 1 1 1 1 1 1 1 1 1 1 1 1 1 1 1 1 1 1 1 1 1 1 1 1 1 1 1 1 1 1 1 1 1 1 1 1 1 1 1 1 1 1 1 1 1 1 1 1 1 1 1 1 1 1 1 1 1 ]

}

}
