solid OpenSCAD_Model
  facet normal -0 0 1
    outer loop
      vertex 0 25 1.7
      vertex 25 0 1.7
      vertex 25 25 1.7
    endloop
  endfacet
  facet normal 0 0 1
    outer loop
      vertex 25 0 1.7
      vertex 0 25 1.7
      vertex 0 0 1.7
    endloop
  endfacet
  facet normal 0 0 -1
    outer loop
      vertex 0 0 0
      vertex 25 25 0
      vertex 25 0 0
    endloop
  endfacet
  facet normal -0 0 -1
    outer loop
      vertex 25 25 0
      vertex 0 0 0
      vertex 0 25 0
    endloop
  endfacet
  facet normal 0 -1 0
    outer loop
      vertex 0 0 0
      vertex 25 0 1.7
      vertex 0 0 1.7
    endloop
  endfacet
  facet normal 0 -1 -0
    outer loop
      vertex 25 0 1.7
      vertex 0 0 0
      vertex 25 0 0
    endloop
  endfacet
  facet normal 1 -0 0
    outer loop
      vertex 25 0 1.7
      vertex 25 25 0
      vertex 25 25 1.7
    endloop
  endfacet
  facet normal 1 0 0
    outer loop
      vertex 25 25 0
      vertex 25 0 1.7
      vertex 25 0 0
    endloop
  endfacet
  facet normal 0 1 -0
    outer loop
      vertex 25 25 0
      vertex 0 25 1.7
      vertex 25 25 1.7
    endloop
  endfacet
  facet normal 0 1 0
    outer loop
      vertex 0 25 1.7
      vertex 25 25 0
      vertex 0 25 0
    endloop
  endfacet
  facet normal -1 0 0
    outer loop
      vertex 0 0 0
      vertex 0 25 1.7
      vertex 0 25 0
    endloop
  endfacet
  facet normal -1 -0 0
    outer loop
      vertex 0 25 1.7
      vertex 0 0 0
      vertex 0 0 1.7
    endloop
  endfacet
endsolid OpenSCAD_Model
