solid OpenSCAD_Model
  facet normal -0 0 1
    outer loop
      vertex 0 272.17 1
      vertex 27 0 1
      vertex 27 272.17 1
    endloop
  endfacet
  facet normal 0 0 1
    outer loop
      vertex 27 0 1
      vertex 0 272.17 1
      vertex 0 0 1
    endloop
  endfacet
  facet normal 0 0 -1
    outer loop
      vertex 0 0 0
      vertex 27 272.17 0
      vertex 27 0 0
    endloop
  endfacet
  facet normal -0 0 -1
    outer loop
      vertex 27 272.17 0
      vertex 0 0 0
      vertex 0 272.17 0
    endloop
  endfacet
  facet normal 0 -1 0
    outer loop
      vertex 0 0 0
      vertex 27 0 1
      vertex 0 0 1
    endloop
  endfacet
  facet normal 0 -1 -0
    outer loop
      vertex 27 0 1
      vertex 0 0 0
      vertex 27 0 0
    endloop
  endfacet
  facet normal 1 -0 0
    outer loop
      vertex 27 0 1
      vertex 27 272.17 0
      vertex 27 272.17 1
    endloop
  endfacet
  facet normal 1 0 0
    outer loop
      vertex 27 272.17 0
      vertex 27 0 1
      vertex 27 0 0
    endloop
  endfacet
  facet normal 0 1 -0
    outer loop
      vertex 27 272.17 0
      vertex 0 272.17 1
      vertex 27 272.17 1
    endloop
  endfacet
  facet normal 0 1 0
    outer loop
      vertex 0 272.17 1
      vertex 27 272.17 0
      vertex 0 272.17 0
    endloop
  endfacet
  facet normal -1 0 0
    outer loop
      vertex 0 0 0
      vertex 0 272.17 1
      vertex 0 272.17 0
    endloop
  endfacet
  facet normal -1 -0 0
    outer loop
      vertex 0 272.17 1
      vertex 0 0 0
      vertex 0 0 1
    endloop
  endfacet
endsolid OpenSCAD_Model
