solid OpenSCAD_Model
  facet normal -0 0 1
    outer loop
      vertex 0 14 3.4
      vertex 20 0 3.4
      vertex 20 14 3.4
    endloop
  endfacet
  facet normal 0 0 1
    outer loop
      vertex 20 0 3.4
      vertex 0 14 3.4
      vertex 0 0 3.4
    endloop
  endfacet
  facet normal 0 0 -1
    outer loop
      vertex 0 0 0
      vertex 20 14 0
      vertex 20 0 0
    endloop
  endfacet
  facet normal -0 0 -1
    outer loop
      vertex 20 14 0
      vertex 0 0 0
      vertex 0 14 0
    endloop
  endfacet
  facet normal 0 -1 0
    outer loop
      vertex 0 0 0
      vertex 20 0 3.4
      vertex 0 0 3.4
    endloop
  endfacet
  facet normal 0 -1 -0
    outer loop
      vertex 20 0 3.4
      vertex 0 0 0
      vertex 20 0 0
    endloop
  endfacet
  facet normal 1 -0 0
    outer loop
      vertex 20 0 3.4
      vertex 20 14 0
      vertex 20 14 3.4
    endloop
  endfacet
  facet normal 1 0 0
    outer loop
      vertex 20 14 0
      vertex 20 0 3.4
      vertex 20 0 0
    endloop
  endfacet
  facet normal 0 1 -0
    outer loop
      vertex 20 14 0
      vertex 0 14 3.4
      vertex 20 14 3.4
    endloop
  endfacet
  facet normal 0 1 0
    outer loop
      vertex 0 14 3.4
      vertex 20 14 0
      vertex 0 14 0
    endloop
  endfacet
  facet normal -1 0 0
    outer loop
      vertex 0 0 0
      vertex 0 14 3.4
      vertex 0 14 0
    endloop
  endfacet
  facet normal -1 -0 0
    outer loop
      vertex 0 14 3.4
      vertex 0 0 0
      vertex 0 0 3.4
    endloop
  endfacet
endsolid OpenSCAD_Model
