solid OpenSCAD_Model
  facet normal -0 0 1
    outer loop
      vertex 0 2 1.15
      vertex 2.5 0 1.15
      vertex 2.5 2 1.15
    endloop
  endfacet
  facet normal 0 0 1
    outer loop
      vertex 2.5 0 1.15
      vertex 0 2 1.15
      vertex 0 0 1.15
    endloop
  endfacet
  facet normal 0 0 -1
    outer loop
      vertex 0 0 0
      vertex 2.5 2 0
      vertex 2.5 0 0
    endloop
  endfacet
  facet normal -0 0 -1
    outer loop
      vertex 2.5 2 0
      vertex 0 0 0
      vertex 0 2 0
    endloop
  endfacet
  facet normal 0 -1 0
    outer loop
      vertex 0 0 0
      vertex 2.5 0 1.15
      vertex 0 0 1.15
    endloop
  endfacet
  facet normal 0 -1 -0
    outer loop
      vertex 2.5 0 1.15
      vertex 0 0 0
      vertex 2.5 0 0
    endloop
  endfacet
  facet normal 1 -0 0
    outer loop
      vertex 2.5 0 1.15
      vertex 2.5 2 0
      vertex 2.5 2 1.15
    endloop
  endfacet
  facet normal 1 0 0
    outer loop
      vertex 2.5 2 0
      vertex 2.5 0 1.15
      vertex 2.5 0 0
    endloop
  endfacet
  facet normal 0 1 -0
    outer loop
      vertex 2.5 2 0
      vertex 0 2 1.15
      vertex 2.5 2 1.15
    endloop
  endfacet
  facet normal 0 1 0
    outer loop
      vertex 0 2 1.15
      vertex 2.5 2 0
      vertex 0 2 0
    endloop
  endfacet
  facet normal -1 0 0
    outer loop
      vertex 0 0 0
      vertex 0 2 1.15
      vertex 0 2 0
    endloop
  endfacet
  facet normal -1 -0 0
    outer loop
      vertex 0 2 1.15
      vertex 0 0 0
      vertex 0 0 1.15
    endloop
  endfacet
endsolid OpenSCAD_Model
