solid OpenSCAD_Model
  facet normal -0 0 1
    outer loop
      vertex 0 5.8 3.1
      vertex 12 0 3.1
      vertex 12 5.8 3.1
    endloop
  endfacet
  facet normal 0 0 1
    outer loop
      vertex 12 0 3.1
      vertex 0 5.8 3.1
      vertex 0 0 3.1
    endloop
  endfacet
  facet normal 0 0 -1
    outer loop
      vertex 0 0 0
      vertex 12 5.8 0
      vertex 12 0 0
    endloop
  endfacet
  facet normal -0 0 -1
    outer loop
      vertex 12 5.8 0
      vertex 0 0 0
      vertex 0 5.8 0
    endloop
  endfacet
  facet normal 0 -1 0
    outer loop
      vertex 0 0 0
      vertex 12 0 3.1
      vertex 0 0 3.1
    endloop
  endfacet
  facet normal 0 -1 -0
    outer loop
      vertex 12 0 3.1
      vertex 0 0 0
      vertex 12 0 0
    endloop
  endfacet
  facet normal 1 -0 0
    outer loop
      vertex 12 0 3.1
      vertex 12 5.8 0
      vertex 12 5.8 3.1
    endloop
  endfacet
  facet normal 1 0 0
    outer loop
      vertex 12 5.8 0
      vertex 12 0 3.1
      vertex 12 0 0
    endloop
  endfacet
  facet normal 0 1 -0
    outer loop
      vertex 12 5.8 0
      vertex 0 5.8 3.1
      vertex 12 5.8 3.1
    endloop
  endfacet
  facet normal 0 1 0
    outer loop
      vertex 0 5.8 3.1
      vertex 12 5.8 0
      vertex 0 5.8 0
    endloop
  endfacet
  facet normal -1 0 0
    outer loop
      vertex 0 0 0
      vertex 0 5.8 3.1
      vertex 0 5.8 0
    endloop
  endfacet
  facet normal -1 -0 0
    outer loop
      vertex 0 5.8 3.1
      vertex 0 0 0
      vertex 0 0 3.1
    endloop
  endfacet
endsolid OpenSCAD_Model
