solid OpenSCAD_Model
  facet normal -0 0 1
    outer loop
      vertex 0 27 2.8
      vertex 27 0 2.8
      vertex 27 27 2.8
    endloop
  endfacet
  facet normal 0 0 1
    outer loop
      vertex 27 0 2.8
      vertex 0 27 2.8
      vertex 0 0 2.8
    endloop
  endfacet
  facet normal 0 0 -1
    outer loop
      vertex 0 0 0
      vertex 27 27 0
      vertex 27 0 0
    endloop
  endfacet
  facet normal -0 0 -1
    outer loop
      vertex 27 27 0
      vertex 0 0 0
      vertex 0 27 0
    endloop
  endfacet
  facet normal 0 -1 0
    outer loop
      vertex 0 0 0
      vertex 27 0 2.8
      vertex 0 0 2.8
    endloop
  endfacet
  facet normal 0 -1 -0
    outer loop
      vertex 27 0 2.8
      vertex 0 0 0
      vertex 27 0 0
    endloop
  endfacet
  facet normal 1 -0 0
    outer loop
      vertex 27 0 2.8
      vertex 27 27 0
      vertex 27 27 2.8
    endloop
  endfacet
  facet normal 1 0 0
    outer loop
      vertex 27 27 0
      vertex 27 0 2.8
      vertex 27 0 0
    endloop
  endfacet
  facet normal 0 1 -0
    outer loop
      vertex 27 27 0
      vertex 0 27 2.8
      vertex 27 27 2.8
    endloop
  endfacet
  facet normal 0 1 0
    outer loop
      vertex 0 27 2.8
      vertex 27 27 0
      vertex 0 27 0
    endloop
  endfacet
  facet normal -1 0 0
    outer loop
      vertex 0 0 0
      vertex 0 27 2.8
      vertex 0 27 0
    endloop
  endfacet
  facet normal -1 -0 0
    outer loop
      vertex 0 27 2.8
      vertex 0 0 0
      vertex 0 0 2.8
    endloop
  endfacet
endsolid OpenSCAD_Model
