solid OpenSCAD_Model
  facet normal -0 0 1
    outer loop
      vertex 0 28 3.32
      vertex 28 0 3.32
      vertex 28 28 3.32
    endloop
  endfacet
  facet normal 0 0 1
    outer loop
      vertex 28 0 3.32
      vertex 0 28 3.32
      vertex 0 0 3.32
    endloop
  endfacet
  facet normal 0 0 -1
    outer loop
      vertex 0 0 0
      vertex 28 28 0
      vertex 28 0 0
    endloop
  endfacet
  facet normal -0 0 -1
    outer loop
      vertex 28 28 0
      vertex 0 0 0
      vertex 0 28 0
    endloop
  endfacet
  facet normal 0 -1 0
    outer loop
      vertex 0 0 0
      vertex 28 0 3.32
      vertex 0 0 3.32
    endloop
  endfacet
  facet normal 0 -1 -0
    outer loop
      vertex 28 0 3.32
      vertex 0 0 0
      vertex 28 0 0
    endloop
  endfacet
  facet normal 1 -0 0
    outer loop
      vertex 28 0 3.32
      vertex 28 28 0
      vertex 28 28 3.32
    endloop
  endfacet
  facet normal 1 0 0
    outer loop
      vertex 28 28 0
      vertex 28 0 3.32
      vertex 28 0 0
    endloop
  endfacet
  facet normal 0 1 -0
    outer loop
      vertex 28 28 0
      vertex 0 28 3.32
      vertex 28 28 3.32
    endloop
  endfacet
  facet normal 0 1 0
    outer loop
      vertex 0 28 3.32
      vertex 28 28 0
      vertex 0 28 0
    endloop
  endfacet
  facet normal -1 0 0
    outer loop
      vertex 0 0 0
      vertex 0 28 3.32
      vertex 0 28 0
    endloop
  endfacet
  facet normal -1 -0 0
    outer loop
      vertex 0 28 3.32
      vertex 0 0 0
      vertex 0 0 3.32
    endloop
  endfacet
endsolid OpenSCAD_Model
