# OpenSCAD obj exporter
v 0 0 0
v 0 0 0.9
v 1.69418 0.457143 0.9
v 1.69418 0.465358 0.9
v 1.72719 0.469543 0.9
v 1.75711 0.469543 0.9
v 1.79012 0.457143 0.9
v 1.79012 0.465358 0.9
v 1.72719 0.538053 0.9
v 1.75711 0.538983 0.9
v 1.75044 0.556807 0.9
v 1.63078 0.656784 0.9
v 1.63078 0.664999 0.9
v 1.65419 0.652752 0.9
v 1.69077 0.652752 0.9
v 1.71867 0.656784 0.9
v 1.71867 0.664999 0.9
v 1.78082 0.656784 0.9
v 1.78082 0.664999 0.9
v 1.80717 0.652752 0.9
v 1.82562 0.652752 0.9
v 1.8484 0.656784 0.9
v 1.8484 0.664999 0.9
v 1.86004 0.656784 0.9
v 1.86004 0.664999 0.9
v 1.69418 0.457143 1.1
v 1.69418 0.465358 1.1
v 1.72719 0.469543 1.1
v 1.75711 0.469543 1.1
v 1.79012 0.457143 1.1
v 1.79012 0.465358 1.1
v 1.72719 0.538053 1.1
v 1.75711 0.538983 1.1
v 1.75044 0.556807 1.1
v 1.63078 0.656784 1.1
v 1.63078 0.664999 1.1
v 1.65419 0.652752 1.1
v 1.69077 0.652752 1.1
v 1.71867 0.656784 1.1
v 1.71867 0.664999 1.1
v 1.78082 0.656784 1.1
v 1.78082 0.664999 1.1
v 1.80717 0.652752 1.1
v 1.82562 0.652752 1.1
v 1.8484 0.656784 1.1
v 1.8484 0.664999 1.1
v 1.86004 0.656784 1.1
v 1.86004 0.664999 1.1
v 1.92344 0.457143 0.9
v 1.92344 0.465358 0.9
v 1.95645 0.469543 0.9
v 1.98637 0.469543 0.9
v 2.01938 0.457143 0.9
v 2.01938 0.465358 0.9
v 1.95645 0.538053 0.9
v 1.98637 0.538983 0.9
v 1.9797 0.556807 0.9
v 2.173 0.452338 0.9
v 2.18122 0.452338 0.9
v 2.18432 0.506279 0.9
v 1.88345 0.652752 0.9
v 1.92003 0.652752 0.9
v 1.94793 0.656784 0.9
v 1.94793 0.664999 0.9
v 2.01008 0.656784 0.9
v 2.01008 0.664999 0.9
v 2.03643 0.652752 0.9
v 2.05488 0.652752 0.9
v 2.07766 0.656784 0.9
v 2.08605 0.656784 0.9
v 2.07766 0.664999 0.9
v 2.08605 0.664999 0.9
v 2.10418 0.652752 0.9
v 2.13487 0.652752 0.9
v 2.16541 0.656784 0.9
v 2.16541 0.664999 0.9
v 2.29049 0.452338 0.9
v 2.29871 0.452338 0.9
v 2.23655 0.595559 0.9
v 2.30119 0.506279 0.9
v 2.47263 0.452338 0.9
v 2.48085 0.452338 0.9
v 2.48395 0.506279 0.9
v 2.24027 0.650427 0.9
v 2.24725 0.650427 0.9
v 2.31591 0.656784 0.9
v 2.31591 0.664999 0.9
v 2.34831 0.652752 0.9
v 2.3666 0.652752 0.9
v 2.38473 0.656784 0.9
v 2.38568 0.656784 0.9
v 2.38473 0.664999 0.9
v 2.38568 0.664999 0.9
v 2.40382 0.652752 0.9
v 2.43451 0.652752 0.9
v 2.46504 0.656784 0.9
v 2.46504 0.664999 0.9
v 1.92344 0.457143 1.1
v 1.92344 0.465358 1.1
v 1.95645 0.469543 1.1
v 1.98637 0.469543 1.1
v 2.01938 0.457143 1.1
v 2.01938 0.465358 1.1
v 1.95645 0.538053 1.1
v 1.98637 0.538983 1.1
v 1.9797 0.556807 1.1
v 2.173 0.452338 1.1
v 2.18122 0.452338 1.1
v 2.18432 0.506279 1.1
v 1.88345 0.652752 1.1
v 1.92003 0.652752 1.1
v 1.94793 0.656784 1.1
v 1.94793 0.664999 1.1
v 2.01008 0.656784 1.1
v 2.01008 0.664999 1.1
v 2.03643 0.652752 1.1
v 2.05488 0.652752 1.1
v 2.07766 0.656784 1.1
v 2.08605 0.656784 1.1
v 2.07766 0.664999 1.1
v 2.08605 0.664999 1.1
v 2.10418 0.652752 1.1
v 2.13487 0.652752 1.1
v 2.16541 0.656784 1.1
v 2.16541 0.664999 1.1
v 2.29049 0.452338 1.1
v 2.29871 0.452338 1.1
v 2.23655 0.595559 1.1
v 2.30119 0.506279 1.1
v 2.47263 0.452338 1.1
v 2.48085 0.452338 1.1
v 2.48395 0.506279 1.1
v 2.24027 0.650427 1.1
v 2.24725 0.650427 1.1
v 2.31591 0.656784 1.1
v 2.31591 0.664999 1.1
v 2.34831 0.652752 1.1
v 2.3666 0.652752 1.1
v 2.38473 0.656784 1.1
v 2.38568 0.656784 1.1
v 2.38473 0.664999 1.1
v 2.38568 0.664999 1.1
v 2.40382 0.652752 1.1
v 2.43451 0.652752 1.1
v 2.46504 0.656784 1.1
v 2.46504 0.664999 1.1
v 2.14146 0.914286 0.9
v 2.14146 0.922501 0.9
v 2.16502 0.926686 0.9
v 2.18192 0.926686 0.9
v 2.20982 0.914286 0.9
v 2.20982 0.922501 0.9
v 2.20284 0.98667 0.9
v 2.2774 0.914286 0.9
v 2.2774 0.922501 0.9
v 2.3053 0.926686 0.9
v 2.33893 0.926686 0.9
v 2.28468 0.98667 0.9
v 2.36528 0.914286 0.9
v 2.36528 0.922501 0.9
v 2.37878 0.914286 0.9
v 2.37878 0.922501 0.9
v 2.40343 0.926686 0.9
v 2.43334 0.926686 0.9
v 2.4648 0.914286 0.9
v 2.4648 0.922501 0.9
v 2.20749 1.00062 0.9
v 2.27988 1.00062 0.9
v 2.24314 1.10153 0.9
v 2.23586 1.12385 0.9
v 2.26531 1.12385 0.9
v 2.43334 1.00543 0.9
v 2.43334 1.01938 0.9
v 2.46077 1.01938 0.9
v 2.47069 1.00543 0.9
v 2.48451 1.02195 0.9
v 2.37677 1.11393 0.9
v 2.37677 1.12214 0.9
v 2.40343 1.10989 0.9
v 2.43334 1.10819 0.9
v 2.45984 1.10819 0.9
v 2.46651 1.12214 0.9
v 2.48447 1.10569 0.9
v 2.14146 0.914286 1.1
v 2.14146 0.922501 1.1
v 2.16502 0.926686 1.1
v 2.18192 0.926686 1.1
v 2.20982 0.914286 1.1
v 2.20982 0.922501 1.1
v 2.20284 0.98667 1.1
v 2.2774 0.914286 1.1
v 2.2774 0.922501 1.1
v 2.3053 0.926686 1.1
v 2.33893 0.926686 1.1
v 2.28468 0.98667 1.1
v 2.36528 0.914286 1.1
v 2.36528 0.922501 1.1
v 2.37878 0.914286 1.1
v 2.37878 0.922501 1.1
v 2.40343 0.926686 1.1
v 2.43334 0.926686 1.1
v 2.4648 0.914286 1.1
v 2.4648 0.922501 1.1
v 2.20749 1.00062 1.1
v 2.27988 1.00062 1.1
v 2.24314 1.10153 1.1
v 2.23586 1.12385 1.1
v 2.26531 1.12385 1.1
v 2.43334 1.00543 1.1
v 2.43334 1.01938 1.1
v 2.46077 1.01938 1.1
v 2.47069 1.00543 1.1
v 2.48451 1.02195 1.1
v 2.37677 1.11393 1.1
v 2.37677 1.12214 1.1
v 2.40343 1.10989 1.1
v 2.43334 1.10819 1.1
v 2.45984 1.10819 1.1
v 2.46651 1.12214 1.1
v 2.48447 1.10569 1.1
v 1.92367 1.39584 0.9
v 1.95746 1.37521 0.9
v 1.9705 1.38623 0.9
v 2.00241 1.36833 0.9
v 2.00272 1.38026 0.9
v 2.01989 1.38133 0.9
v 2.04035 1.37077 0.9
v 2.03605 1.38453 0.9
v 2.05007 1.38951 0.9
v 2.06085 1.39592 0.9
v 2.10535 1.37143 0.9
v 2.07573 1.37809 0.9
v 2.10535 1.37964 0.9
v 2.12999 1.38383 0.9
v 2.15991 1.38383 0.9
v 1.90251 1.42887 0.9
v 1.947 1.40413 0.9
v 1.93264 1.43335 0.9
v 1.89546 1.47295 0.9
v 1.92786 1.47326 0.9
v 1.90224 1.52005 0.9
v 1.93243 1.51597 0.9
v 1.94615 1.5458 0.9
v 1.92259 1.5541 0.9
v 1.95626 1.57473 0.9
v 1.96982 1.56336 0.9
v 2.00427 1.56921 0.9
v 2.01902 1.5683 0.9
v 2.00303 1.58161 0.9
v 2.06658 1.42692 0.9
v 2.07666 1.42692 0.9
v 2.15991 1.45296 0.9
v 2.15991 1.46691 0.9
v 2.18331 1.45296 0.9
v 2.17603 1.46691 0.9
v 2.06333 1.52829 0.9
v 2.07356 1.52829 0.9
v 2.04695 1.56117 0.9
v 2.03349 1.56557 0.9
v 2.05868 1.55526 0.9
v 2.03663 1.57963 0.9
v 2.07263 1.5737 0.9
v 2.10333 1.57107 0.9
v 2.10333 1.57928 0.9
v 2.12999 1.56704 0.9
v 2.15991 1.56533 0.9
v 2.17509 1.56533 0.9
v 2.18176 1.57928 0.9
v 2.19292 1.37143 0.9
v 2.19292 1.37964 0.9
v 2.27989 1.37143 0.9
v 2.27989 1.37964 0.9
v 2.30655 1.38383 0.9
v 2.32282 1.38383 0.9
v 2.35072 1.37143 0.9
v 2.35072 1.37964 0.9
v 2.45101 1.37143 0.9
v 2.46604 1.37143 0.9
v 2.19879 1.46989 0.9
v 2.21522 1.4571 0.9
v 2.2147 1.47884 0.9
v 2.22406 1.49454 0.9
v 2.23872 1.46954 0.9
v 2.2532 1.48996 0.9
v 2.22419 1.53968 0.9
v 2.22717 1.51775 0.9
v 2.25802 1.51806 0.9
v 2.19924 1.56258 0.9
v 2.21524 1.55433 0.9
v 2.23896 1.56398 0.9
v 2.27989 1.57107 0.9
v 2.27989 1.57928 0.9
v 2.32282 1.55836 0.9
v 2.30655 1.56704 0.9
v 2.34282 1.57928 0.9
v 2.44976 1.42537 0.9
v 2.42187 1.57107 0.9
v 2.42187 1.57928 0.9
v 2.44976 1.56704 0.9
v 2.46604 1.56704 0.9
v 2.4927 1.57107 0.9
v 2.4927 1.57928 0.9
v 1.92367 1.39584 1.1
v 1.95746 1.37521 1.1
v 1.9705 1.38623 1.1
v 2.00241 1.36833 1.1
v 2.00272 1.38026 1.1
v 2.01989 1.38133 1.1
v 2.04035 1.37077 1.1
v 2.03605 1.38453 1.1
v 2.05007 1.38951 1.1
v 2.06085 1.39592 1.1
v 2.10535 1.37143 1.1
v 2.07573 1.37809 1.1
v 2.10535 1.37964 1.1
v 2.12999 1.38383 1.1
v 2.15991 1.38383 1.1
v 1.90251 1.42887 1.1
v 1.947 1.40413 1.1
v 1.93264 1.43335 1.1
v 1.89546 1.47295 1.1
v 1.92786 1.47326 1.1
v 1.90224 1.52005 1.1
v 1.93243 1.51597 1.1
v 1.94615 1.5458 1.1
v 1.92259 1.5541 1.1
v 1.95626 1.57473 1.1
v 1.96982 1.56336 1.1
v 2.00427 1.56921 1.1
v 2.01902 1.5683 1.1
v 2.00303 1.58161 1.1
v 2.06658 1.42692 1.1
v 2.07666 1.42692 1.1
v 2.15991 1.45296 1.1
v 2.15991 1.46691 1.1
v 2.18331 1.45296 1.1
v 2.17603 1.46691 1.1
v 2.06333 1.52829 1.1
v 2.07356 1.52829 1.1
v 2.04695 1.56117 1.1
v 2.03349 1.56557 1.1
v 2.05868 1.55526 1.1
v 2.03663 1.57963 1.1
v 2.07263 1.5737 1.1
v 2.10333 1.57107 1.1
v 2.10333 1.57928 1.1
v 2.12999 1.56704 1.1
v 2.15991 1.56533 1.1
v 2.17509 1.56533 1.1
v 2.18176 1.57928 1.1
v 2.19292 1.37143 1.1
v 2.19292 1.37964 1.1
v 2.27989 1.37143 1.1
v 2.27989 1.37964 1.1
v 2.30655 1.38383 1.1
v 2.32282 1.38383 1.1
v 2.35072 1.37143 1.1
v 2.35072 1.37964 1.1
v 2.45101 1.37143 1.1
v 2.46604 1.37143 1.1
v 2.19879 1.46989 1.1
v 2.21522 1.4571 1.1
v 2.2147 1.47884 1.1
v 2.22406 1.49454 1.1
v 2.23872 1.46954 1.1
v 2.2532 1.48996 1.1
v 2.22419 1.53968 1.1
v 2.22717 1.51775 1.1
v 2.25802 1.51806 1.1
v 2.19924 1.56258 1.1
v 2.21524 1.55433 1.1
v 2.23896 1.56398 1.1
v 2.27989 1.57107 1.1
v 2.27989 1.57928 1.1
v 2.32282 1.55836 1.1
v 2.30655 1.56704 1.1
v 2.34282 1.57928 1.1
v 2.44976 1.42537 1.1
v 2.42187 1.57107 1.1
v 2.42187 1.57928 1.1
v 2.44976 1.56704 1.1
v 2.46604 1.56704 1.1
v 2.4927 1.57107 1.1
v 2.4927 1.57928 1.1
v 0 3.2 0
v 0.5463 2.75301 0.9
v 0.602796 2.71378 0.9
v 0.5463 2.75301 1.1
v 0.602796 2.71378 1.1
v 0 3.2 0.9
v 0.508709 2.81006 0.9
v 0.496179 2.87655 0.9
v 0.508891 2.94484 0.9
v 0.547029 3.0015 0.9
v 0.603707 3.03965 0.9
v 0.508709 2.81006 1.1
v 0.496179 2.87655 1.1
v 0.508891 2.94484 1.1
v 0.547029 3.0015 1.1
v 0.603707 3.03965 1.1
v 0.672 2.70071 0.9
v 0.741198 2.71378 0.9
v 0.797679 2.75301 0.9
v 0.672 2.70071 1.1
v 0.741198 2.71378 1.1
v 0.797679 2.75301 1.1
v 0.835286 2.81006 0.9
v 0.847821 2.87655 0.9
v 0.835104 2.94484 0.9
v 0.672 3.05237 0.9
v 0.740287 3.03965 0.9
v 0.79695 3.0015 0.9
v 0.835286 2.81006 1.1
v 0.847821 2.87655 1.1
v 0.835104 2.94484 1.1
v 0.672 3.05237 1.1
v 0.740287 3.03965 1.1
v 0.79695 3.0015 1.1
v 1.46066 2.28571 0.9
v 1.46066 2.3005 0.9
v 1.50864 2.30803 0.9
v 1.53794 2.30803 0.9
v 1.58816 2.28571 0.9
v 1.67493 2.28571 0.9
v 1.68469 2.28571 0.9
v 1.58816 2.3005 0.9
v 1.69557 2.37527 0.9
v 1.78374 2.28571 0.9
v 1.78374 2.3005 0.9
v 1.83396 2.30803 0.9
v 1.46066 2.28571 1.1
v 1.46066 2.3005 1.1
v 1.50864 2.30803 1.1
v 1.53794 2.30803 1.1
v 1.58816 2.28571 1.1
v 1.67493 2.28571 1.1
v 1.68469 2.28571 1.1
v 1.58816 2.3005 1.1
v 1.69557 2.37527 1.1
v 1.78374 2.28571 1.1
v 1.78374 2.3005 1.1
v 1.83396 2.30803 1.1
v 1.90251 1.88602 0.9
v 1.92367 1.85298 0.9
v 1.947 1.86128 0.9
v 1.93264 1.89049 0.9
v 1.95746 1.83235 0.9
v 1.9705 1.84337 0.9
v 2.00241 1.82547 0.9
v 2.00272 1.83741 0.9
v 2.01989 1.83847 0.9
v 1.89546 1.9301 0.9
v 1.92786 1.93041 0.9
v 1.90224 1.9772 0.9
v 1.93243 1.97311 0.9
v 2.04035 1.82791 0.9
v 2.03605 1.84167 0.9
v 2.05007 1.84665 0.9
v 2.07573 1.83524 0.9
v 2.10535 1.82857 0.9
v 2.10535 1.83679 0.9
v 2.06085 1.85306 0.9
v 2.06658 1.88406 0.9
v 2.07666 1.88406 0.9
v 2.12999 1.84097 0.9
v 2.15991 1.84097 0.9
v 2.06333 1.98543 0.9
v 2.07356 1.98543 0.9
v 2.15991 1.9101 0.9
v 2.15991 1.92405 0.9
v 2.18331 1.9101 0.9
v 2.17603 1.92405 0.9
v 2.19292 1.82857 0.9
v 2.19292 1.83679 0.9
v 2.27989 1.82857 0.9
v 2.27989 1.83679 0.9
v 2.30655 1.84097 0.9
v 2.32282 1.84097 0.9
v 2.21522 1.91425 0.9
v 2.19879 1.92704 0.9
v 2.2147 1.93599 0.9
v 2.23872 1.92669 0.9
v 2.2532 1.94711 0.9
v 2.22406 1.95168 0.9
v 2.22419 1.99682 0.9
v 2.22717 1.97489 0.9
v 2.25802 1.9752 0.9
v 2.35072 1.82857 0.9
v 2.35072 1.83679 0.9
v 2.45101 1.82857 0.9
v 2.46604 1.82857 0.9
v 2.44976 1.88251 0.9
v 1.90251 1.88602 1.1
v 1.92367 1.85298 1.1
v 1.947 1.86128 1.1
v 1.93264 1.89049 1.1
v 1.95746 1.83235 1.1
v 1.9705 1.84337 1.1
v 2.00241 1.82547 1.1
v 2.00272 1.83741 1.1
v 2.01989 1.83847 1.1
v 1.89546 1.9301 1.1
v 1.92786 1.93041 1.1
v 1.90224 1.9772 1.1
v 1.93243 1.97311 1.1
v 2.04035 1.82791 1.1
v 2.03605 1.84167 1.1
v 2.05007 1.84665 1.1
v 2.07573 1.83524 1.1
v 2.10535 1.82857 1.1
v 2.10535 1.83679 1.1
v 2.06085 1.85306 1.1
v 2.06658 1.88406 1.1
v 2.07666 1.88406 1.1
v 2.12999 1.84097 1.1
v 2.15991 1.84097 1.1
v 2.06333 1.98543 1.1
v 2.07356 1.98543 1.1
v 2.15991 1.9101 1.1
v 2.15991 1.92405 1.1
v 2.18331 1.9101 1.1
v 2.17603 1.92405 1.1
v 2.19292 1.82857 1.1
v 2.19292 1.83679 1.1
v 2.27989 1.82857 1.1
v 2.27989 1.83679 1.1
v 2.30655 1.84097 1.1
v 2.32282 1.84097 1.1
v 2.21522 1.91425 1.1
v 2.19879 1.92704 1.1
v 2.2147 1.93599 1.1
v 2.23872 1.92669 1.1
v 2.2532 1.94711 1.1
v 2.22406 1.95168 1.1
v 2.22419 1.99682 1.1
v 2.22717 1.97489 1.1
v 2.25802 1.9752 1.1
v 2.35072 1.82857 1.1
v 2.35072 1.83679 1.1
v 2.45101 1.82857 1.1
v 2.46604 1.82857 1.1
v 2.44976 1.88251 1.1
v 1.92259 2.01124 0.9
v 1.94615 2.00295 0.9
v 1.96982 2.0205 0.9
v 1.95626 2.03187 0.9
v 2.00427 2.02635 0.9
v 2.00303 2.03875 0.9
v 2.01902 2.02544 0.9
v 2.03349 2.02271 0.9
v 2.04695 2.01831 0.9
v 2.05868 2.0124 0.9
v 2.03663 2.03678 0.9
v 2.07263 2.03085 0.9
v 2.10333 2.02821 0.9
v 2.10333 2.03643 0.9
v 2.12999 2.02418 0.9
v 2.15991 2.02248 0.9
v 2.17509 2.02248 0.9
v 2.18176 2.03643 0.9
v 1.93551 2.28571 0.9
v 1.88752 2.30803 0.9
v 1.93551 2.3005 0.9
v 2.11523 2.28571 0.9
v 2.11523 2.3005 0.9
v 2.15959 2.30803 0.9
v 2.19924 2.01972 0.9
v 2.21524 2.01147 0.9
v 2.23896 2.02112 0.9
v 2.27989 2.02821 0.9
v 2.27989 2.03643 0.9
v 2.30655 2.02418 0.9
v 2.32282 2.0155 0.9
v 2.34282 2.03643 0.9
v 2.42187 2.02821 0.9
v 2.42187 2.03643 0.9
v 2.44976 2.02418 0.9
v 2.46604 2.02418 0.9
v 2.4927 2.02821 0.9
v 2.4927 2.03643 0.9
v 2.27287 2.28571 0.9
v 2.21344 2.30803 0.9
v 2.27287 2.3005 0.9
v 2.43359 2.28571 0.9
v 2.43359 2.3005 0.9
v 2.48158 2.30803 0.9
v 1.92259 2.01124 1.1
v 1.94615 2.00295 1.1
v 1.96982 2.0205 1.1
v 1.95626 2.03187 1.1
v 2.00427 2.02635 1.1
v 2.00303 2.03875 1.1
v 2.01902 2.02544 1.1
v 2.03349 2.02271 1.1
v 2.04695 2.01831 1.1
v 2.05868 2.0124 1.1
v 2.03663 2.03678 1.1
v 2.07263 2.03085 1.1
v 2.10333 2.02821 1.1
v 2.10333 2.03643 1.1
v 2.12999 2.02418 1.1
v 2.15991 2.02248 1.1
v 2.17509 2.02248 1.1
v 2.18176 2.03643 1.1
v 1.93551 2.28571 1.1
v 1.88752 2.30803 1.1
v 1.93551 2.3005 1.1
v 2.11523 2.28571 1.1
v 2.11523 2.3005 1.1
v 2.15959 2.30803 1.1
v 2.19924 2.01972 1.1
v 2.21524 2.01147 1.1
v 2.23896 2.02112 1.1
v 2.27989 2.02821 1.1
v 2.27989 2.03643 1.1
v 2.30655 2.02418 1.1
v 2.32282 2.0155 1.1
v 2.34282 2.03643 1.1
v 2.42187 2.02821 1.1
v 2.42187 2.03643 1.1
v 2.44976 2.02418 1.1
v 2.46604 2.02418 1.1
v 2.4927 2.02821 1.1
v 2.4927 2.03643 1.1
v 2.27287 2.28571 1.1
v 2.21344 2.30803 1.1
v 2.27287 2.3005 1.1
v 2.43359 2.28571 1.1
v 2.43359 2.3005 1.1
v 2.48158 2.30803 1.1
v 1.46066 2.64507 0.9
v 1.46066 2.65986 0.9
v 1.50864 2.63781 0.9
v 1.53794 2.6074 0.9
v 1.57393 2.65986 0.9
v 1.83396 2.6074 0.9
v 1.82838 2.65986 0.9
v 1.46066 2.64507 1.1
v 1.46066 2.65986 1.1
v 1.50864 2.63781 1.1
v 1.53794 2.6074 1.1
v 1.57393 2.65986 1.1
v 1.83396 2.6074 1.1
v 1.82838 2.65986 1.1
v 1.88752 2.63781 0.9
v 1.93551 2.64507 0.9
v 1.93551 2.65986 0.9
v 2.11161 2.64507 0.9
v 2.15959 2.63781 0.9
v 2.11161 2.65986 0.9
v 2.21344 2.43247 0.9
v 2.25557 2.43247 0.9
v 2.21344 2.45758 0.9
v 2.24246 2.45758 0.9
v 2.31301 2.43993 0.9
v 2.28343 2.46295 0.9
v 2.31207 2.47906 0.9
v 2.32891 2.50731 0.9
v 2.33453 2.54909 0.9
v 2.32915 2.58857 0.9
v 2.35531 2.46232 0.9
v 2.38136 2.49908 0.9
v 2.39005 2.54965 0.9
v 2.21344 2.63474 0.9
v 2.24078 2.63474 0.9
v 2.25278 2.65986 0.9
v 2.28424 2.62979 0.9
v 2.31304 2.61493 0.9
v 2.35573 2.6323 0.9
v 2.43359 2.64507 0.9
v 2.48158 2.63781 0.9
v 2.43359 2.65986 0.9
v 1.88752 2.63781 1.1
v 1.93551 2.64507 1.1
v 1.93551 2.65986 1.1
v 2.11161 2.64507 1.1
v 2.15959 2.63781 1.1
v 2.11161 2.65986 1.1
v 2.21344 2.43247 1.1
v 2.25557 2.43247 1.1
v 2.21344 2.45758 1.1
v 2.24246 2.45758 1.1
v 2.31301 2.43993 1.1
v 2.28343 2.46295 1.1
v 2.31207 2.47906 1.1
v 2.32891 2.50731 1.1
v 2.33453 2.54909 1.1
v 2.32915 2.58857 1.1
v 2.35531 2.46232 1.1
v 2.38136 2.49908 1.1
v 2.39005 2.54965 1.1
v 2.21344 2.63474 1.1
v 2.24078 2.63474 1.1
v 2.25278 2.65986 1.1
v 2.28424 2.62979 1.1
v 2.31304 2.61493 1.1
v 2.35573 2.6323 1.1
v 2.43359 2.64507 1.1
v 2.48158 2.63781 1.1
v 2.43359 2.65986 1.1
v 5 0 0
v 2.59012 0.452338 0.9
v 2.59834 0.452338 0.9
v 2.53619 0.595559 0.9
v 2.60082 0.506279 0.9
v 2.69415 0.457143 0.9
v 2.69415 0.465358 0.9
v 2.72081 0.469543 0.9
v 2.73708 0.469543 0.9
v 2.76498 0.457143 0.9
v 2.76498 0.465358 0.9
v 2.53991 0.650427 0.9
v 2.54688 0.650427 0.9
v 2.61555 0.656784 0.9
v 2.61555 0.664999 0.9
v 2.64794 0.652752 0.9
v 2.66623 0.652752 0.9
v 2.68436 0.656784 0.9
v 2.69415 0.656784 0.9
v 2.68436 0.664999 0.9
v 2.69415 0.664999 0.9
v 2.72081 0.652752 0.9
v 2.73708 0.644073 0.9
v 2.75708 0.664999 0.9
v 2.86527 0.457143 0.9
v 2.88031 0.457143 0.9
v 2.92341 0.457143 0.9
v 2.92341 0.465358 0.9
v 2.95007 0.469543 0.9
v 2.96634 0.469543 0.9
v 2.86403 0.511083 0.9
v 2.99424 0.457143 0.9
v 2.99424 0.465358 0.9
v 3.09453 0.457143 0.9
v 3.10956 0.457143 0.9
v 3.09329 0.511083 0.9
v 2.83613 0.656784 0.9
v 2.83613 0.664999 0.9
v 2.86403 0.652752 0.9
v 2.88031 0.652752 0.9
v 2.96634 0.644073 0.9
v 2.90697 0.656784 0.9
v 2.90697 0.664999 0.9
v 2.92341 0.656784 0.9
v 2.92341 0.664999 0.9
v 2.95007 0.652752 0.9
v 2.98634 0.664999 0.9
v 3.06539 0.656784 0.9
v 3.06539 0.664999 0.9
v 3.09329 0.652752 0.9
v 3.10956 0.652752 0.9
v 2.59012 0.452338 1.1
v 2.59834 0.452338 1.1
v 2.53619 0.595559 1.1
v 2.60082 0.506279 1.1
v 2.69415 0.457143 1.1
v 2.69415 0.465358 1.1
v 2.72081 0.469543 1.1
v 2.73708 0.469543 1.1
v 2.76498 0.457143 1.1
v 2.76498 0.465358 1.1
v 2.53991 0.650427 1.1
v 2.54688 0.650427 1.1
v 2.61555 0.656784 1.1
v 2.61555 0.664999 1.1
v 2.64794 0.652752 1.1
v 2.66623 0.652752 1.1
v 2.68436 0.656784 1.1
v 2.69415 0.656784 1.1
v 2.68436 0.664999 1.1
v 2.69415 0.664999 1.1
v 2.72081 0.652752 1.1
v 2.73708 0.644073 1.1
v 2.75708 0.664999 1.1
v 2.86527 0.457143 1.1
v 2.88031 0.457143 1.1
v 2.92341 0.457143 1.1
v 2.92341 0.465358 1.1
v 2.95007 0.469543 1.1
v 2.96634 0.469543 1.1
v 2.86403 0.511083 1.1
v 2.99424 0.457143 1.1
v 2.99424 0.465358 1.1
v 3.09453 0.457143 1.1
v 3.10956 0.457143 1.1
v 3.09329 0.511083 1.1
v 2.83613 0.656784 1.1
v 2.83613 0.664999 1.1
v 2.86403 0.652752 1.1
v 2.88031 0.652752 1.1
v 2.96634 0.644073 1.1
v 2.90697 0.656784 1.1
v 2.90697 0.664999 1.1
v 2.92341 0.656784 1.1
v 2.92341 0.664999 1.1
v 2.95007 0.652752 1.1
v 2.98634 0.664999 1.1
v 3.06539 0.656784 1.1
v 3.06539 0.664999 1.1
v 3.09329 0.652752 1.1
v 3.10956 0.652752 1.1
v 3.15267 0.457143 0.9
v 3.15267 0.465358 0.9
v 3.17933 0.469543 0.9
v 3.1956 0.469543 0.9
v 3.2235 0.457143 0.9
v 3.2235 0.465358 0.9
v 3.32379 0.457143 0.9
v 3.33882 0.457143 0.9
v 3.32255 0.511083 0.9
v 3.1956 0.644073 0.9
v 3.13623 0.656784 0.9
v 3.13623 0.664999 0.9
v 3.15267 0.656784 0.9
v 3.15267 0.664999 0.9
v 3.17933 0.652752 0.9
v 3.2156 0.664999 0.9
v 3.29465 0.656784 0.9
v 3.29465 0.664999 0.9
v 3.32255 0.652752 0.9
v 3.33882 0.652752 0.9
v 3.36548 0.656784 0.9
v 3.36548 0.664999 0.9
v 3.15267 0.457143 1.1
v 3.15267 0.465358 1.1
v 3.17933 0.469543 1.1
v 3.1956 0.469543 1.1
v 3.2235 0.457143 1.1
v 3.2235 0.465358 1.1
v 3.32379 0.457143 1.1
v 3.33882 0.457143 1.1
v 3.32255 0.511083 1.1
v 3.1956 0.644073 1.1
v 3.13623 0.656784 1.1
v 3.13623 0.664999 1.1
v 3.15267 0.656784 1.1
v 3.15267 0.664999 1.1
v 3.17933 0.652752 1.1
v 3.2156 0.664999 1.1
v 3.29465 0.656784 1.1
v 3.29465 0.664999 1.1
v 3.32255 0.652752 1.1
v 3.33882 0.652752 1.1
v 3.36548 0.656784 1.1
v 3.36548 0.664999 1.1
v 2.52913 0.914286 0.9
v 2.55641 0.926686 0.9
v 2.57888 0.914286 0.9
v 2.57888 0.922501 0.9
v 2.58851 0.914286 0.9
v 2.58851 0.922501 0.9
v 2.61517 0.926686 0.9
v 2.63144 0.926686 0.9
v 2.65934 0.914286 0.9
v 2.65934 0.922501 0.9
v 2.70755 0.914286 0.9
v 2.71297 0.914286 0.9
v 2.71902 0.964041 0.9
v 2.768 0.914286 0.9
v 2.768 0.922501 0.9
v 2.7959 0.926686 0.9
v 2.50015 1.00977 0.9
v 2.51797 1.01796 0.9
v 2.50022 1.02968 0.9
v 2.509 1.04354 0.9
v 2.53146 1.03077 0.9
v 2.53994 1.0473 0.9
v 2.51192 1.06448 0.9
v 2.50904 1.08477 0.9
v 2.50038 1.09819 0.9
v 2.53812 1.0918 0.9
v 2.54277 1.06665 0.9
v 2.63144 1.093 0.9
v 2.50045 1.11885 0.9
v 2.52417 1.10896 0.9
v 2.58851 1.11393 0.9
v 2.58851 1.12214 0.9
v 2.61517 1.10989 0.9
v 2.65144 1.12214 0.9
v 2.7959 1.093 0.9
v 2.7928 1.12214 0.9
v 2.82566 0.926686 0.9
v 2.85232 0.914286 0.9
v 2.85232 0.922501 0.9
v 2.82566 1.10989 0.9
v 2.85232 1.11393 0.9
v 2.85232 1.12214 0.9
v 2.52913 0.914286 1.1
v 2.55641 0.926686 1.1
v 2.57888 0.914286 1.1
v 2.57888 0.922501 1.1
v 2.58851 0.914286 1.1
v 2.58851 0.922501 1.1
v 2.61517 0.926686 1.1
v 2.63144 0.926686 1.1
v 2.65934 0.914286 1.1
v 2.65934 0.922501 1.1
v 2.70755 0.914286 1.1
v 2.71297 0.914286 1.1
v 2.71902 0.964041 1.1
v 2.768 0.914286 1.1
v 2.768 0.922501 1.1
v 2.7959 0.926686 1.1
v 2.50015 1.00977 1.1
v 2.51797 1.01796 1.1
v 2.50022 1.02968 1.1
v 2.509 1.04354 1.1
v 2.53146 1.03077 1.1
v 2.53994 1.0473 1.1
v 2.51192 1.06448 1.1
v 2.50904 1.08477 1.1
v 2.50038 1.09819 1.1
v 2.53812 1.0918 1.1
v 2.54277 1.06665 1.1
v 2.63144 1.093 1.1
v 2.50045 1.11885 1.1
v 2.52417 1.10896 1.1
v 2.58851 1.11393 1.1
v 2.58851 1.12214 1.1
v 2.61517 1.10989 1.1
v 2.65144 1.12214 1.1
v 2.7959 1.093 1.1
v 2.7928 1.12214 1.1
v 2.82566 0.926686 1.1
v 2.85232 0.914286 1.1
v 2.85232 0.922501 1.1
v 2.82566 1.10989 1.1
v 2.85232 1.11393 1.1
v 2.85232 1.12214 1.1
v 2.54123 1.39584 0.9
v 2.57502 1.37521 0.9
v 2.58806 1.38623 0.9
v 2.61997 1.36833 0.9
v 2.62028 1.38026 0.9
v 2.63745 1.38133 0.9
v 2.6536 1.38453 0.9
v 2.65791 1.37077 0.9
v 2.66763 1.38951 0.9
v 2.69328 1.37809 0.9
v 2.6784 1.39592 0.9
v 2.72291 1.37143 0.9
v 2.72291 1.37964 0.9
v 2.74755 1.38383 0.9
v 2.81048 1.37143 0.9
v 2.77747 1.38383 0.9
v 2.81048 1.37964 0.9
v 2.52007 1.42887 0.9
v 2.56456 1.40413 0.9
v 2.5502 1.43335 0.9
v 2.51302 1.47295 0.9
v 2.54541 1.47326 0.9
v 2.5198 1.52005 0.9
v 2.54999 1.51597 0.9
v 2.56371 1.5458 0.9
v 2.54014 1.5541 0.9
v 2.57382 1.57473 0.9
v 2.58738 1.56336 0.9
v 2.62183 1.56921 0.9
v 2.63657 1.5683 0.9
v 2.65105 1.56557 0.9
v 2.62059 1.58161 0.9
v 2.65419 1.57963 0.9
v 2.68414 1.42692 0.9
v 2.69421 1.42692 0.9
v 2.74755 1.4449 0.9
v 2.77747 1.42242 0.9
v 2.77747 1.45296 0.9
v 2.77747 1.46691 0.9
v 2.80087 1.45296 0.9
v 2.79358 1.46691 0.9
v 2.68088 1.52829 0.9
v 2.69112 1.52829 0.9
v 2.66451 1.56117 0.9
v 2.67624 1.55526 0.9
v 2.69019 1.5737 0.9
v 2.72089 1.57107 0.9
v 2.72089 1.57928 0.9
v 2.74755 1.56704 0.9
v 2.77747 1.56533 0.9
v 2.79265 1.56533 0.9
v 2.79932 1.57928 0.9
v 2.89744 1.37143 0.9
v 2.89744 1.37964 0.9
v 2.92411 1.38383 0.9
v 2.96828 1.37143 0.9
v 2.94038 1.38383 0.9
v 2.96828 1.37964 0.9
v 3.06856 1.37143 0.9
v 3.0836 1.37143 0.9
v 2.81635 1.46989 0.9
v 2.83278 1.4571 0.9
v 2.83226 1.47884 0.9
v 2.84161 1.49454 0.9
v 2.85628 1.46954 0.9
v 2.87075 1.48996 0.9
v 2.84473 1.51775 0.9
v 2.84175 1.53968 0.9
v 2.87558 1.51806 0.9
v 2.81679 1.56258 0.9
v 2.8328 1.55433 0.9
v 2.85651 1.56398 0.9
v 2.89744 1.57107 0.9
v 2.92411 1.56704 0.9
v 2.89744 1.57928 0.9
v 2.94038 1.55836 0.9
v 2.96037 1.57928 0.9
v 3.06732 1.42537 0.9
v 3.03942 1.57107 0.9
v 3.03942 1.57928 0.9
v 3.06732 1.56704 0.9
v 3.0836 1.56704 0.9
v 3.11026 1.57107 0.9
v 3.11026 1.57928 0.9
v 2.54123 1.39584 1.1
v 2.57502 1.37521 1.1
v 2.58806 1.38623 1.1
v 2.61997 1.36833 1.1
v 2.62028 1.38026 1.1
v 2.63745 1.38133 1.1
v 2.6536 1.38453 1.1
v 2.65791 1.37077 1.1
v 2.66763 1.38951 1.1
v 2.69328 1.37809 1.1
v 2.6784 1.39592 1.1
v 2.72291 1.37143 1.1
v 2.72291 1.37964 1.1
v 2.74755 1.38383 1.1
v 2.81048 1.37143 1.1
v 2.77747 1.38383 1.1
v 2.81048 1.37964 1.1
v 2.52007 1.42887 1.1
v 2.56456 1.40413 1.1
v 2.5502 1.43335 1.1
v 2.51302 1.47295 1.1
v 2.54541 1.47326 1.1
v 2.5198 1.52005 1.1
v 2.54999 1.51597 1.1
v 2.56371 1.5458 1.1
v 2.54014 1.5541 1.1
v 2.57382 1.57473 1.1
v 2.58738 1.56336 1.1
v 2.62183 1.56921 1.1
v 2.63657 1.5683 1.1
v 2.65105 1.56557 1.1
v 2.62059 1.58161 1.1
v 2.65419 1.57963 1.1
v 2.68414 1.42692 1.1
v 2.69421 1.42692 1.1
v 2.77747 1.45296 1.1
v 2.77747 1.46691 1.1
v 2.80087 1.45296 1.1
v 2.79358 1.46691 1.1
v 2.68088 1.52829 1.1
v 2.69112 1.52829 1.1
v 2.66451 1.56117 1.1
v 2.67624 1.55526 1.1
v 2.69019 1.5737 1.1
v 2.72089 1.57107 1.1
v 2.72089 1.57928 1.1
v 2.74755 1.56704 1.1
v 2.77747 1.56533 1.1
v 2.79265 1.56533 1.1
v 2.79932 1.57928 1.1
v 2.89744 1.37143 1.1
v 2.89744 1.37964 1.1
v 2.92411 1.38383 1.1
v 2.96828 1.37143 1.1
v 2.94038 1.38383 1.1
v 2.96828 1.37964 1.1
v 3.06856 1.37143 1.1
v 3.0836 1.37143 1.1
v 2.81635 1.46989 1.1
v 2.83278 1.4571 1.1
v 2.83226 1.47884 1.1
v 2.84161 1.49454 1.1
v 2.85628 1.46954 1.1
v 2.87075 1.48996 1.1
v 2.84473 1.51775 1.1
v 2.84175 1.53968 1.1
v 2.87558 1.51806 1.1
v 2.81679 1.56258 1.1
v 2.8328 1.55433 1.1
v 2.85651 1.56398 1.1
v 2.89744 1.57107 1.1
v 2.92411 1.56704 1.1
v 2.89744 1.57928 1.1
v 2.94038 1.55836 1.1
v 2.96037 1.57928 1.1
v 3.06732 1.42537 1.1
v 3.03942 1.57107 1.1
v 3.03942 1.57928 1.1
v 3.06732 1.56704 1.1
v 3.0836 1.56704 1.1
v 3.11026 1.57107 1.1
v 3.11026 1.57928 1.1
v 5 0 0.9
v 5 3.2 0
v 2.57502 1.83235 0.9
v 2.52007 1.88602 0.9
v 2.54123 1.85298 0.9
v 2.56456 1.86128 0.9
v 2.5502 1.89049 0.9
v 2.58806 1.84337 0.9
v 2.61997 1.82547 0.9
v 2.62028 1.83741 0.9
v 2.63745 1.83847 0.9
v 2.6536 1.84167 0.9
v 2.51302 1.9301 0.9
v 2.54541 1.93041 0.9
v 2.5198 1.9772 0.9
v 2.54999 1.97311 0.9
v 2.65791 1.82791 0.9
v 2.66763 1.84665 0.9
v 2.69328 1.83524 0.9
v 2.72291 1.82857 0.9
v 2.72291 1.83679 0.9
v 2.6784 1.85306 0.9
v 2.68414 1.88406 0.9
v 2.69421 1.88406 0.9
v 2.74755 1.84097 0.9
v 2.77747 1.84097 0.9
v 2.81048 1.82857 0.9
v 2.81048 1.83679 0.9
v 2.68088 1.98543 0.9
v 2.69112 1.98543 0.9
v 2.77747 1.9101 0.9
v 2.77747 1.92405 0.9
v 2.80087 1.9101 0.9
v 2.79358 1.92405 0.9
v 2.89744 1.82857 0.9
v 2.89744 1.83679 0.9
v 2.92411 1.84097 0.9
v 2.94038 1.84097 0.9
v 2.96828 1.82857 0.9
v 2.96828 1.83679 0.9
v 2.83278 1.91425 0.9
v 2.81635 1.92704 0.9
v 2.83226 1.93599 0.9
v 2.85628 1.92669 0.9
v 2.87075 1.94711 0.9
v 2.84161 1.95168 0.9
v 2.84473 1.97489 0.9
v 2.84175 1.99682 0.9
v 2.87558 1.9752 0.9
v 3.06856 1.82857 0.9
v 3.0836 1.82857 0.9
v 3.06732 1.88251 0.9
v 2.57502 1.83235 1.1
v 2.52007 1.88602 1.1
v 2.54123 1.85298 1.1
v 2.56456 1.86128 1.1
v 2.5502 1.89049 1.1
v 2.58806 1.84337 1.1
v 2.61997 1.82547 1.1
v 2.62028 1.83741 1.1
v 2.63745 1.83847 1.1
v 2.6536 1.84167 1.1
v 2.51302 1.9301 1.1
v 2.54541 1.93041 1.1
v 2.5198 1.9772 1.1
v 2.54999 1.97311 1.1
v 2.65791 1.82791 1.1
v 2.66763 1.84665 1.1
v 2.69328 1.83524 1.1
v 2.72291 1.82857 1.1
v 2.72291 1.83679 1.1
v 2.6784 1.85306 1.1
v 2.68414 1.88406 1.1
v 2.69421 1.88406 1.1
v 2.74755 1.84097 1.1
v 2.77747 1.84097 1.1
v 2.81048 1.82857 1.1
v 2.81048 1.83679 1.1
v 2.68088 1.98543 1.1
v 2.69112 1.98543 1.1
v 2.77747 1.9101 1.1
v 2.77747 1.92405 1.1
v 2.80087 1.9101 1.1
v 2.79358 1.92405 1.1
v 2.89744 1.82857 1.1
v 2.89744 1.83679 1.1
v 2.92411 1.84097 1.1
v 2.94038 1.84097 1.1
v 2.96828 1.82857 1.1
v 2.96828 1.83679 1.1
v 2.83278 1.91425 1.1
v 2.81635 1.92704 1.1
v 2.83226 1.93599 1.1
v 2.85628 1.92669 1.1
v 2.87075 1.94711 1.1
v 2.84161 1.95168 1.1
v 2.84473 1.97489 1.1
v 2.84175 1.99682 1.1
v 2.87558 1.9752 1.1
v 3.06856 1.82857 1.1
v 3.0836 1.82857 1.1
v 3.06732 1.88251 1.1
v 2.54014 2.01124 0.9
v 2.56371 2.00295 0.9
v 2.57382 2.03187 0.9
v 2.58738 2.0205 0.9
v 2.65105 2.02271 0.9
v 2.62183 2.02635 0.9
v 2.63657 2.02544 0.9
v 2.62059 2.03875 0.9
v 2.65419 2.03678 0.9
v 2.66451 2.01831 0.9
v 2.67624 2.0124 0.9
v 2.69019 2.03085 0.9
v 2.72089 2.02821 0.9
v 2.72089 2.03643 0.9
v 2.74755 2.02418 0.9
v 2.77747 2.02248 0.9
v 2.79265 2.02248 0.9
v 2.79932 2.03643 0.9
v 2.58314 2.28571 0.9
v 2.53515 2.30803 0.9
v 2.58314 2.3005 0.9
v 2.63936 2.38912 0.9
v 2.73827 2.29252 0.9
v 2.67745 2.32965 0.9
v 2.71944 2.34458 0.9
v 2.69359 2.39718 0.9
v 2.76174 2.31236 0.9
v 2.81679 2.01972 0.9
v 2.8328 2.01147 0.9
v 2.85651 2.02112 0.9
v 2.92411 2.02418 0.9
v 2.89744 2.02821 0.9
v 2.89744 2.03643 0.9
v 2.94038 2.0155 0.9
v 2.96037 2.03643 0.9
v 3.03942 2.02821 0.9
v 3.03942 2.03643 0.9
v 3.06732 2.02418 0.9
v 3.0836 2.02418 0.9
v 3.11026 2.02821 0.9
v 3.11026 2.03643 0.9
v 2.81918 2.28014 0.9
v 2.88746 2.28453 0.9
v 2.95115 2.29771 0.9
v 2.81974 2.30162 0.9
v 2.85064 2.30353 0.9
v 2.87972 2.30929 0.9
v 2.90497 2.31825 0.9
v 2.92436 2.32979 0.9
v 2.93468 2.3856 0.9
v 2.95282 2.3856 0.9
v 3.01479 2.29213 0.9
v 3.06361 2.28313 0.9
v 3.11522 2.28014 0.9
v 3.04268 2.31836 0.9
v 3.01172 2.37081 0.9
v 3.03013 2.37081 0.9
v 3.05583 2.31264 0.9
v 3.07351 2.30775 0.9
v 3.0928 2.30441 0.9
v 3.11076 2.30329 0.9
v 2.54014 2.01124 1.1
v 2.56371 2.00295 1.1
v 2.57382 2.03187 1.1
v 2.58738 2.0205 1.1
v 2.65105 2.02271 1.1
v 2.62183 2.02635 1.1
v 2.63657 2.02544 1.1
v 2.62059 2.03875 1.1
v 2.65419 2.03678 1.1
v 2.66451 2.01831 1.1
v 2.67624 2.0124 1.1
v 2.69019 2.03085 1.1
v 2.72089 2.02821 1.1
v 2.72089 2.03643 1.1
v 2.74755 2.02418 1.1
v 2.77747 2.02248 1.1
v 2.79265 2.02248 1.1
v 2.79932 2.03643 1.1
v 2.58314 2.28571 1.1
v 2.53515 2.30803 1.1
v 2.58314 2.3005 1.1
v 2.63936 2.38912 1.1
v 2.73827 2.29252 1.1
v 2.67745 2.32965 1.1
v 2.71944 2.34458 1.1
v 2.69359 2.39718 1.1
v 2.76174 2.31236 1.1
v 2.81679 2.01972 1.1
v 2.8328 2.01147 1.1
v 2.85651 2.02112 1.1
v 2.92411 2.02418 1.1
v 2.89744 2.02821 1.1
v 2.89744 2.03643 1.1
v 2.94038 2.0155 1.1
v 2.96037 2.03643 1.1
v 3.03942 2.02821 1.1
v 3.03942 2.03643 1.1
v 3.06732 2.02418 1.1
v 3.0836 2.02418 1.1
v 3.11026 2.02821 1.1
v 3.11026 2.03643 1.1
v 2.81918 2.28014 1.1
v 2.88746 2.28453 1.1
v 2.95115 2.29771 1.1
v 2.81974 2.30162 1.1
v 2.85064 2.30353 1.1
v 2.87972 2.30929 1.1
v 2.90497 2.31825 1.1
v 2.92436 2.32979 1.1
v 2.93468 2.3856 1.1
v 2.95282 2.3856 1.1
v 3.01479 2.29213 1.1
v 3.06361 2.28313 1.1
v 3.11522 2.28014 1.1
v 3.04268 2.31836 1.1
v 3.01172 2.37081 1.1
v 3.03013 2.37081 1.1
v 3.05583 2.31264 1.1
v 3.07351 2.30775 1.1
v 3.0928 2.30441 1.1
v 3.11076 2.30329 1.1
v 3.17137 2.28725 0.9
v 3.14884 2.30831 0.9
v 3.17549 2.32338 0.9
v 3.19118 2.35016 0.9
v 3.19641 2.39034 0.9
v 3.21315 2.30859 0.9
v 3.2391 2.34256 0.9
v 3.24775 2.38755 0.9
v 3.2952 2.28571 0.9
v 3.2952 2.32673 0.9
v 3.33175 2.32868 0.9
v 3.35888 2.35302 0.9
v 3.34709 2.37388 0.9
v 3.38448 2.37527 0.9
v 3.52426 2.28571 0.9
v 3.52426 2.32868 0.9
v 3.17137 2.28725 1.1
v 3.14884 2.30831 1.1
v 3.17549 2.32338 1.1
v 3.19118 2.35016 1.1
v 3.19641 2.39034 1.1
v 3.21315 2.30859 1.1
v 3.2391 2.34256 1.1
v 3.24775 2.38755 1.1
v 3.2952 2.28571 1.1
v 3.2952 2.32673 1.1
v 3.33175 2.32868 1.1
v 3.35888 2.35302 1.1
v 3.34709 2.37388 1.1
v 3.38448 2.37527 1.1
v 3.52426 2.28571 1.1
v 3.52426 2.32868 1.1
v 2.62667 2.46846 0.9
v 2.63887 2.55324 0.9
v 2.68498 2.46902 0.9
v 2.69321 2.54588 0.9
v 2.7179 2.59959 0.9
v 2.53515 2.63781 0.9
v 2.58314 2.64507 0.9
v 2.58314 2.65986 0.9
v 2.67549 2.61452 0.9
v 2.76052 2.63119 0.9
v 2.73611 2.65166 0.9
v 2.92883 2.56806 0.9
v 2.94724 2.56806 0.9
v 3.07756 2.46957 0.9
v 3.07756 2.49245 0.9
v 3.11746 2.46734 0.9
v 3.11746 2.49496 0.9
v 3.02315 2.58006 0.9
v 3.04157 2.58006 0.9
v 2.82253 2.64172 0.9
v 2.84907 2.64008 0.9
v 2.87512 2.63516 0.9
v 2.8203 2.66404 0.9
v 2.88077 2.66048 0.9
v 2.92046 2.61661 0.9
v 2.89936 2.62725 0.9
v 2.94557 2.64981 0.9
v 3.02315 2.65204 0.9
v 3.05133 2.62581 0.9
v 3.06459 2.63185 0.9
v 3.07979 2.63656 0.9
v 3.09562 2.63959 0.9
v 3.11076 2.6406 0.9
v 3.04889 2.65807 0.9
v 3.07086 2.66167 0.9
v 3.09088 2.66345 0.9
v 3.11076 2.66404 0.9
v 2.62667 2.46846 1.1
v 2.63887 2.55324 1.1
v 2.68498 2.46902 1.1
v 2.69321 2.54588 1.1
v 2.7179 2.59959 1.1
v 2.53515 2.63781 1.1
v 2.58314 2.64507 1.1
v 2.58314 2.65986 1.1
v 2.67549 2.61452 1.1
v 2.76052 2.63119 1.1
v 2.73611 2.65166 1.1
v 2.92883 2.56806 1.1
v 2.94724 2.56806 1.1
v 3.07756 2.46957 1.1
v 3.07756 2.49245 1.1
v 3.11746 2.46734 1.1
v 3.11746 2.49496 1.1
v 3.02315 2.58006 1.1
v 3.04157 2.58006 1.1
v 2.82253 2.64172 1.1
v 2.84907 2.64008 1.1
v 2.87512 2.63516 1.1
v 2.8203 2.66404 1.1
v 2.88077 2.66048 1.1
v 2.92046 2.61661 1.1
v 2.89936 2.62725 1.1
v 2.94557 2.64981 1.1
v 3.02315 2.65204 1.1
v 3.05133 2.62581 1.1
v 3.06459 2.63185 1.1
v 3.07979 2.63656 1.1
v 3.09562 2.63959 1.1
v 3.11076 2.6406 1.1
v 3.04889 2.65807 1.1
v 3.07086 2.66167 1.1
v 3.09088 2.66345 1.1
v 3.11076 2.66404 1.1
v 3.1916 2.42274 0.9
v 3.17716 2.44628 0.9
v 3.15261 2.4611 0.9
v 3.14898 2.48157 0.9
v 3.19306 2.47135 0.9
v 3.18361 2.49151 0.9
v 3.24175 2.42455 0.9
v 3.22375 2.45242 0.9
v 3.14487 2.50068 0.9
v 3.16405 2.51449 0.9
v 3.17535 2.53695 0.9
v 3.17911 2.56862 0.9
v 3.20938 2.51017 0.9
v 3.22539 2.53713 0.9
v 3.23073 2.57197 0.9
v 3.39041 2.4135 0.9
v 3.43428 2.41918 0.9
v 3.42047 2.44474 0.9
v 3.30776 2.58006 0.9
v 3.32617 2.58006 0.9
v 3.16279 2.62344 0.9
v 3.14162 2.63631 0.9
v 3.17503 2.60116 0.9
v 3.20074 2.64102 0.9
v 3.33593 2.62581 0.9
v 3.34884 2.63185 0.9
v 3.30776 2.65204 0.9
v 3.3547 2.66104 0.9
v 3.36355 2.63656 0.9
v 3.37897 2.63959 0.9
v 3.39397 2.6406 0.9
v 3.42612 2.63586 0.9
v 3.39397 2.66404 0.9
v 3.44059 2.47223 0.9
v 3.46762 2.45214 0.9
v 3.48949 2.47969 0.9
v 3.45409 2.50054 0.9
v 3.46173 2.53137 0.9
v 3.50487 2.50738 0.9
v 3.51397 2.53601 0.9
v 3.46428 2.56639 0.9
v 3.46016 2.59833 0.9
v 3.517 2.56639 0.9
v 3.44781 2.62163 0.9
v 3.5093 2.60771 0.9
v 3.48618 2.63851 0.9
v 3.44771 2.65766 0.9
v 3.1916 2.42274 1.1
v 3.17716 2.44628 1.1
v 3.15261 2.4611 1.1
v 3.14898 2.48157 1.1
v 3.19306 2.47135 1.1
v 3.18361 2.49151 1.1
v 3.24175 2.42455 1.1
v 3.22375 2.45242 1.1
v 3.14487 2.50068 1.1
v 3.16405 2.51449 1.1
v 3.17535 2.53695 1.1
v 3.17911 2.56862 1.1
v 3.20938 2.51017 1.1
v 3.22539 2.53713 1.1
v 3.23073 2.57197 1.1
v 3.39041 2.4135 1.1
v 3.43428 2.41918 1.1
v 3.42047 2.44474 1.1
v 3.30776 2.58006 1.1
v 3.32617 2.58006 1.1
v 3.16279 2.62344 1.1
v 3.14162 2.63631 1.1
v 3.17503 2.60116 1.1
v 3.20074 2.64102 1.1
v 3.33593 2.62581 1.1
v 3.34884 2.63185 1.1
v 3.30776 2.65204 1.1
v 3.3547 2.66104 1.1
v 3.36355 2.63656 1.1
v 3.37897 2.63959 1.1
v 3.39397 2.6406 1.1
v 3.42612 2.63586 1.1
v 3.39397 2.66404 1.1
v 3.44059 2.47223 1.1
v 3.46762 2.45214 1.1
v 3.48949 2.47969 1.1
v 3.45409 2.50054 1.1
v 3.46173 2.53137 1.1
v 3.50487 2.50738 1.1
v 3.51397 2.53601 1.1
v 3.46428 2.56639 1.1
v 3.46016 2.59833 1.1
v 3.517 2.56639 1.1
v 3.44781 2.62163 1.1
v 3.5093 2.60771 1.1
v 3.48618 2.63851 1.1
v 3.44771 2.65766 1.1
v 5 3.2 0.9
f  2 3 4
f  2 7 3
f  2 4 12
f  2 49 7
f  2 12 13
f  2 13 227
f  1 2 390
f  2 443 402
f  1 1096 2
f  2 53 49
f  2 58 53
f  2 59 58
f  2 77 59
f  2 78 77
f  2 81 78
f  2 82 81
f  2 702 82
f  2 703 702
f  2 706 703
f  2 710 706
f  5 9 4
f  14 12 4
f  14 4 9
f  7 55 8
f  6 8 61
f  6 61 10
f  11 16 15
f  11 20 16
f  16 19 17
f  19 16 18
f  20 18 16
f  10 61 21
f  61 22 21
f  22 25 23
f  61 24 22
f  25 22 24
f  17 148 13
f  2 725 710
f  2 726 725
f  2 727 726
f  2 732 727
f  2 734 732
f  2 735 734
f  2 802 735
f  50 7 49
f  51 7 50
f  51 55 7
f  61 8 55
f  52 73 56
f  53 58 54
f  52 54 73
f  73 54 58
f  57 63 62
f  57 67 63
f  63 66 64
f  66 63 65
f  63 67 65
f  17 19 148
f  23 148 19
f  23 25 148
f  64 148 25
f  68 56 69
f  56 70 69
f  70 56 73
f  69 72 71
f  72 69 70
f  60 75 74
f  64 66 147
f  71 147 66
f  71 72 147
f  76 147 72
f  79 59 77
f  94 78 81
f  78 90 89
f  78 94 91
f  78 91 90
f  60 84 75
f  75 84 76
f  80 86 85
f  80 88 86
f  87 85 86
f  76 84 151
f  85 151 84
f  85 87 154
f  92 154 87
f  90 93 92
f  93 90 91
f  83 96 95
f  83 712 96
f  96 712 97
f  92 93 161
f  97 161 93
f  2 221 236
f  2 222 221
f  2 224 222
f  2 236 239
f  2 239 241
f  2 227 224
f  2 241 244
f  2 244 447
f  2 444 443
f  2 447 444
f  13 148 170
f  64 147 148
f  147 76 151
f  149 170 148
f  13 170 231
f  13 232 227
f  13 231 232
f  85 154 151
f  92 159 154
f  150 152 155
f  150 155 153
f  151 155 152
f  155 151 154
f  156 153 155
f  156 158 153
f  92 161 159
f  161 97 165
f  97 846 165
f  159 162 160
f  162 159 161
f  160 179 157
f  179 160 162
f  163 179 162
f  165 846 166
f  175 166 846
f  164 166 172
f  172 166 175
f  168 169 167
f  157 177 171
f  178 171 177
f  157 179 177
f  183 173 174
f  176 864 865
f  174 176 869
f  181 180 173
f  183 181 173
f  174 869 870
f  174 870 183
f  231 170 269
f  233 232 231
f  232 233 234
f  223 256 237
f  225 256 223
f  237 256 238
f  238 256 240
f  240 256 242
f  242 256 243
f  243 256 246
f  246 256 247
f  248 247 256
f  225 226 257
f  228 257 226
f  229 257 228
f  230 257 229
f  230 250 257
f  225 257 256
f  251 263 250
f  232 265 251
f  232 234 265
f  235 270 252
f  252 270 254
f  255 279 253
f  260 259 256
f  250 263 257
f  265 263 251
f  248 256 259
f  259 260 258
f  257 263 262
f  264 262 263
f  267 266 253
f  288 267 253
f  269 170 271
f  271 170 275
f  269 272 270
f  272 269 271
f  171 942 170
f  170 277 275
f  277 170 278
f  171 178 942
f  170 931 278
f  931 170 933
f  275 277 276
f  254 270 280
f  270 272 280
f  280 272 283
f  279 281 253
f  281 282 253
f  282 286 253
f  273 283 272
f  283 273 284
f  276 293 274
f  284 273 287
f  273 294 287
f  286 285 253
f  285 289 253
f  289 288 253
f  287 291 290
f  291 287 294
f  292 290 291
f  293 276 277
f  950 278 947
f  278 950 952
f  278 952 300
f  296 297 295
f  298 295 297
f  296 299 297
f  300 952 301
f  1 390 385
f  1 385 1097
f  385 390 1097
f  2 387 386
f  2 391 392
f  2 386 391
f  2 401 387
f  2 402 401
f  2 392 390
f  390 392 393
f  390 393 394
f  390 394 395
f  390 395 410
f  402 420 403
f  402 419 420
f  403 420 407
f  407 421 408
f  408 421 409
f  409 632 412
f  452 402 443
f  402 454 419
f  454 402 452
f  454 423 419
f  454 543 425
f  454 424 423
f  454 425 424
f  543 428 425
f  423 424 426
f  634 426 424
f  429 425 428
f  425 429 636
f  245 447 244
f  249 447 245
f  447 249 261
f  447 261 262
f  447 264 449
f  447 262 264
f  268 460 264
f  460 268 290
f  264 456 449
f  264 459 456
f  264 460 459
f  448 450 445
f  445 450 446
f  446 450 451
f  446 451 457
f  446 457 458
f  446 458 462
f  446 462 463
f  463 453 446
f  453 463 455
f  455 463 544
f  544 463 545
f  545 464 547
f  461 459 460
f  459 461 465
f  466 474 469
f  469 474 471
f  545 463 464
f  459 557 464
f  552 464 467
f  550 464 552
f  464 549 547
f  549 464 550
f  467 464 468
f  464 555 468
f  557 555 464
f  465 557 459
f  472 480 470
f  559 558 470
f  567 559 470
f  460 290 292
f  460 292 295
f  460 295 298
f  460 298 302
f  956 473 460
f  956 474 473
f  956 460 302
f  961 474 956
f  961 475 474
f  961 488 475
f  961 490 488
f  476 474 475
f  471 474 479
f  479 474 482
f  474 476 482
f  477 482 476
f  489 573 478
f  480 481 470
f  481 484 470
f  484 486 470
f  486 485 470
f  568 567 470
f  485 568 470
f  482 477 483
f  483 477 572
f  483 572 487
f  488 490 489
f  573 489 490
f  1108 491 1099
f  492 575 574
f  491 1108 1110
f  491 1110 579
f  492 577 575
f  491 579 578
f  546 428 543
f  548 428 546
f  428 548 553
f  428 553 554
f  428 554 556
f  428 556 560
f  428 570 561
f  550 552 551
f  468 555 554
f  556 554 555
f  428 560 569
f  428 569 570
f  561 570 571
f  561 565 563
f  563 565 562
f  561 564 565
f  561 571 564
f  487 570 569
f  570 487 572
f  574 581 571
f  576 574 575
f  574 576 581
f  580 581 576
f  1205 581 580
f  581 1210 584
f  564 571 581
f  581 585 583
f  582 583 651
f  651 583 652
f  583 585 655
f  652 583 655
f  585 581 584
f  421 407 420
f  426 634 422
f  421 633 631
f  421 631 409
f  632 409 631
f  635 412 632
f  412 635 637
f  647 412 637
f  427 637 635
f  430 636 429
f  412 647 650
f  562 646 645
f  562 649 646
f  562 565 649
f  566 649 565
f  646 650 647
f  646 648 650
f  646 649 648
f  654 656 653
f  656 657 653
f  657 658 653
f  665 664 653
f  667 665 653
f  658 659 653
f  659 660 653
f  668 667 653
f  660 668 653
f  655 585 661
f  586 671 585
f  671 661 585
f  661 671 662
f  662 671 663
f  663 670 669
f  672 669 670
f  669 672 666
f  670 663 671
f  390 410 1520
f  1520 410 411
f  1520 411 412
f  1 701 1096
f  1 1097 701
f  701 1097 1096
f  2 1096 802
f  704 82 702
f  703 718 717
f  707 703 706
f  710 725 711
f  703 707 722
f  708 722 707
f  703 722 719
f  703 719 718
f  711 723 709
f  723 711 725
f  705 714 713
f  705 716 714
f  715 713 714
f  97 712 846
f  713 846 712
f  713 715 850
f  720 850 715
f  718 721 720
f  721 718 719
f  738 724 737
f  720 721 854
f  724 857 721
f  859 724 738
f  728 726 727
f  726 742 740
f  726 728 746
f  729 746 728
f  726 744 742
f  726 746 744
f  732 734 733
f  733 741 730
f  741 733 734
f  735 812 751
f  731 737 724
f  731 739 737
f  742 745 743
f  745 742 744
f  743 883 738
f  743 745 883
f  747 883 745
f  747 749 884
f  749 747 748
f  736 748 747
f  736 750 748
f  813 884 749
f  803 735 802
f  806 808 807
f  735 803 816
f  804 816 803
f  735 814 812
f  735 816 814
f  807 811 805
f  811 807 808
f  809 822 821
f  812 815 813
f  815 812 814
f  810 818 817
f  819 817 818
f  810 820 818
f  1096 887 823
f  846 713 848
f  713 850 848
f  720 854 850
f  862 847 863
f  851 848 850
f  848 851 849
f  849 878 847
f  878 849 851
f  852 878 851
f  855 873 853
f  721 856 854
f  856 721 857
f  857 724 859
f  854 856 855
f  873 855 856
f  860 857 859
f  857 860 880
f  861 880 860
f  176 865 868
f  847 878 863
f  868 869 176
f  863 878 866
f  866 878 867
f  867 876 872
f  872 876 871
f  876 867 878
f  871 877 875
f  871 876 877
f  875 941 874
f  858 881 879
f  859 738 883
f  747 884 883
f  885 884 813
f  884 885 882
f  885 813 815
f  885 815 817
f  885 817 819
f  885 819 886
f  886 819 887
f  182 942 178
f  874 941 182
f  933 170 937
f  937 170 939
f  170 942 939
f  875 877 941
f  879 941 877
f  942 182 941
f  947 278 930
f  930 278 931
f  934 963 932
f  935 963 934
f  879 881 941
f  941 881 944
f  936 963 935
f  966 945 946
f  932 963 948
f  965 949 948
f  965 951 949
f  965 953 951
f  955 301 952
f  301 955 302
f  956 302 955
f  954 971 957
f  965 954 953
f  957 971 958
f  958 971 959
f  959 971 960
f  938 963 936
f  940 963 938
f  965 948 963
f  965 964 939
f  965 939 942
f  965 963 964
f  965 942 943
f  966 969 967
f  970 990 968
f  990 992 968
f  954 965 971
f  974 960 971
f  965 972 971
f  965 976 972
f  960 974 973
f  972 976 975
f  977 975 976
f  965 978 976
f  980 979 968
f  999 980 968
f  1000 999 968
f  887 944 881
f  944 887 946
f  985 988 987
f  966 982 969
f  983 991 969
f  983 969 982
f  991 983 994
f  994 984 995
f  992 993 968
f  993 996 968
f  984 994 983
f  987 1005 986
f  995 984 1003
f  996 997 968
f  997 1000 968
f  995 1003 998
f  998 1002 1001
f  1002 998 1003
f  1005 987 988
f  1007 1008 1006
f  1009 1006 1008
f  1007 1010 1008
f  989 1012 1011
f  823 887 819
f  1096 946 887
f  1096 966 946
f  1096 982 966
f  1096 985 982
f  1096 988 985
f  1096 989 988
f  1096 1012 989
f  1096 1013 1012
f  1096 1146 1013
f  1096 1237 1146
f  1096 1238 1237
f  1096 806 802
f  1096 808 806
f  1096 809 808
f  1096 822 809
f  1096 823 822
f  1096 1334 1238
f  1096 1335 1334
f  962 1098 961
f  975 1098 962
f  961 491 490
f  961 1098 491
f  975 977 1098
f  981 1098 977
f  1001 1098 981
f  1001 1002 1098
f  1004 1104 1002
f  1002 1104 1098
f  1004 1112 1104
f  1004 1114 1112
f  1004 1115 1114
f  1004 1122 1115
f  1100 491 1098
f  1099 491 1100
f  1103 1124 1101
f  1105 1124 1103
f  1106 1125 1105
f  1101 1124 1102
f  1102 1124 1109
f  1109 1124 1111
f  1111 1124 1199
f  1116 1114 1115
f  1114 1116 1120
f  1107 1125 1106
f  1113 1125 1107
f  1117 1125 1113
f  1121 1123 1126
f  1126 1123 1128
f  1117 1118 1125
f  1105 1125 1124
f  1114 1212 1119
f  1114 1120 1212
f  1119 1210 1118
f  1118 1210 1125
f  1212 1210 1119
f  1129 1137 1127
f  1137 1138 1127
f  1214 1213 1127
f  1226 1225 1127
f  1225 1214 1127
f  1006 1122 1004
f  1006 1009 1122
f  1009 1130 1122
f  1009 1134 1130
f  1013 1145 1009
f  1009 1145 1134
f  1013 1146 1145
f  1122 1131 1123
f  1131 1122 1130
f  1123 1131 1136
f  1128 1123 1136
f  1136 1131 1139
f  1132 1139 1131
f  1135 1231 1133
f  1138 1141 1127
f  1139 1132 1140
f  1140 1132 1144
f  1141 1142 1127
f  1142 1143 1127
f  1143 1226 1127
f  1132 1228 1144
f  1134 1145 1135
f  1231 1135 1145
f  1147 1233 1232
f  1147 1235 1233
f  1146 1237 1236
f  1198 579 1110
f  579 1198 580
f  1200 580 1198
f  1205 580 1200
f  1199 1124 1201
f  1201 1124 1203
f  1203 1124 1204
f  1204 1124 1202
f  1206 581 1205
f  1209 581 1206
f  581 1209 1210
f  1211 584 1210
f  1208 1202 1124
f  1202 1208 1207
f  1125 1210 1209
f  584 1211 1216
f  1216 1221 1218
f  1219 1218 1221
f  1218 1352 1217
f  1218 1219 1352
f  1211 1220 1216
f  1220 1211 1239
f  1239 1211 1240
f  1221 1216 1220
f  1144 1229 1227
f  1230 1227 1229
f  1229 1144 1228
f  1215 1249 1211
f  1227 1249 1215
f  1227 1230 1249
f  1232 1249 1230
f  1234 1232 1233
f  1249 1232 1234
f  1238 1250 1234
f  1238 1251 1250
f  1240 1211 1241
f  1249 1241 1211
f  1242 1363 1224
f  1243 1364 1242
f  1244 1364 1243
f  1245 1364 1244
f  1249 1234 1250
f  1241 1249 1253
f  1241 1253 1248
f  1254 1248 1253
f  1252 1255 1256
f  1252 1256 1257
f  1252 1257 1254
f  1258 1254 1257
f  1321 1254 1258
f  1322 1254 1321
f  1248 1254 1324
f  1426 1248 1324
f  1251 1238 1320
f  1320 1238 1325
f  1238 1328 1325
f  1323 1254 1322
f  1324 1254 1323
f  1329 1325 1328
f  1325 1329 1326
f  1326 1332 1327
f  1328 1238 1334
f  1326 1329 1332
f  1441 1327 1332
f  1330 1335 1331
f  1331 1335 1333
f  1333 1335 1442
f  1442 1335 1460
f  390 1520 1097
f  1217 1352 1353
f  1217 1358 1357
f  1217 1353 1358
f  1224 1363 1222
f  1222 1363 1223
f  1223 1363 1354
f  1354 1363 1355
f  1355 1363 1356
f  1356 1363 1361
f  1358 1360 1359
f  1360 1358 1353
f  1362 1359 1360
f  1374 1359 1362
f  1246 1364 1245
f  1246 1247 1364
f  1248 1364 1247
f  1242 1364 1363
f  1248 1365 1364
f  1365 1248 1367
f  1367 1248 1428
f  1427 1248 1426
f  1428 1248 1427
f  1366 1364 1365
f  1364 1366 1369
f  1368 1370 1366
f  1434 1370 1368
f  1435 1370 1434
f  1369 1366 1370
f  1361 1363 1371
f  1371 1363 1372
f  1372 1363 1373
f  1376 1373 1363
f  1373 1376 1377
f  1364 1379 1378
f  1379 1364 1369
f  1370 1381 1380
f  1381 1370 1382
f  1382 1370 1383
f  1383 1370 1384
f  1384 1370 1447
f  1447 1370 1446
f  1520 412 650
f  1520 650 666
f  1433 1431 1430
f  1429 1430 1431
f  1433 1438 1431
f  1436 1370 1435
f  1437 1370 1436
f  1448 1370 1437
f  1439 1444 1440
f  1327 1441 1432
f  1432 1443 1433
f  1432 1441 1443
f  1433 1443 1438
f  1438 1443 1439
f  1459 1439 1443
f  1439 1463 1445
f  1444 1439 1445
f  1462 1439 1459
f  1463 1439 1462
f  1466 1445 1463
f  1467 1445 1466
f  1446 1370 1448
f  1440 1452 1449
f  1452 1440 1444
f  1445 1451 1450
f  1451 1445 1454
f  1454 1445 1455
f  1455 1445 1456
f  1456 1445 1457
f  1469 1445 1467
f  1457 1445 1469
f  1520 666 672
f  1520 672 1359
f  1520 1359 1374
f  1520 1374 1375
f  1520 1375 1378
f  1520 1378 1379
f  1520 1379 1385
f  1520 1385 1386
f  1520 1386 1387
f  1520 1387 1388
f  1096 1097 1520
f  1096 1520 1335
f  1520 1460 1335
f  1520 1461 1460
f  1520 1464 1461
f  1520 1465 1464
f  1520 1468 1465
f  1520 1470 1468
f  1520 1388 1449
f  1520 1449 1452
f  1520 1452 1453
f  1520 1453 1458
f  1520 1458 1472
f  1520 1472 1471
f  1520 1471 1470
f  26 4 3
f  27 5 4
f  32 14 9
f  28 9 5
f  30 3 7
f  29 8 6
f  31 7 8
f  33 6 10
f  34 20 11
f  26 27 4
f  27 28 5
f  26 28 27
f  26 3 30
f  29 6 33
f  30 7 31
f  29 31 8
f  26 30 28
f  28 29 32
f  28 30 29
f  29 30 31
f  28 32 9
f  34 11 38
f  33 10 44
f  29 33 32
f  32 33 34
f  32 34 38
f  33 43 34
f  35 13 12
f  38 11 15
f  37 12 14
f  36 17 13
f  39 15 16
f  40 16 17
f  41 19 18
f  44 10 21
f  43 18 20
f  42 23 19
f  45 21 22
f  46 22 23
f  47 25 24
f  35 36 13
f  35 12 37
f  32 37 14
f  36 40 17
f  38 15 39
f  39 16 40
f  35 37 36
f  32 38 37
f  36 37 38
f  36 38 40
f  38 39 40
f  34 43 20
f  41 42 19
f  43 41 18
f  44 21 45
f  42 46 23
f  45 22 46
f  47 48 25
f  47 24 110
f  33 44 43
f  43 42 41
f  43 44 42
f  42 44 46
f  44 45 46
f  47 110 48
f  98 50 49
f  99 51 50
f  102 49 53
f  100 55 51
f  101 54 52
f  103 53 54
f  104 61 55
f  105 52 56
f  106 67 57
f  108 58 59
f  107 73 58
f  98 99 50
f  99 100 51
f  98 49 102
f  101 52 105
f  101 103 54
f  102 53 103
f  98 100 99
f  98 102 100
f  100 102 101
f  100 101 104
f  101 102 103
f  100 104 55
f  106 57 111
f  105 56 117
f  104 106 111
f  101 105 104
f  104 105 106
f  105 116 106
f  107 58 108
f  107 122 73
f  109 60 123
f  107 108 122
f  108 109 122
f  111 57 62
f  110 24 61
f  48 64 25
f  112 62 63
f  113 63 64
f  114 66 65
f  116 65 67
f  117 56 68
f  115 71 66
f  118 68 69
f  120 69 71
f  119 72 70
f  122 70 73
f  123 60 74
f  121 76 72
f  124 74 75
f  125 75 76
f  104 110 61
f  111 62 112
f  48 113 64
f  112 63 113
f  106 116 67
f  114 115 66
f  114 65 116
f  104 111 110
f  48 110 111
f  48 111 113
f  111 112 113
f  105 117 116
f  114 116 115
f  117 68 118
f  115 120 71
f  118 69 120
f  119 121 72
f  122 119 70
f  123 74 124
f  121 125 76
f  124 75 125
f  115 116 117
f  115 117 120
f  117 118 120
f  122 121 119
f  122 123 121
f  109 123 122
f  121 123 125
f  123 124 125
f  127 77 78
f  128 59 79
f  109 84 60
f  126 79 77
f  129 88 80
f  131 81 82
f  138 78 89
f  130 94 81
f  126 77 127
f  108 59 128
f  126 128 79
f  127 78 138
f  129 80 134
f  108 128 109
f  109 128 133
f  128 129 133
f  126 129 128
f  126 127 138
f  126 138 129
f  130 81 131
f  131 82 754
f  130 143 94
f  132 83 144
f  130 131 143
f  131 132 143
f  134 80 85
f  133 85 84
f  135 87 86
f  137 86 88
f  136 92 87
f  139 89 90
f  140 93 91
f  141 90 92
f  143 91 94
f  142 97 93
f  144 83 95
f  145 95 96
f  146 96 97
f  109 133 84
f  133 134 85
f  129 137 88
f  135 136 87
f  135 86 137
f  129 134 133
f  129 138 137
f  135 137 136
f  136 137 138
f  136 141 92
f  138 89 139
f  140 91 143
f  140 142 93
f  139 90 141
f  142 146 97
f  144 95 145
f  145 96 146
f  136 138 141
f  138 139 141
f  140 143 142
f  142 143 144
f  132 144 143
f  142 144 146
f  144 145 146
f  184 148 147
f  185 149 148
f  188 147 151
f  184 185 148
f  184 147 188
f  185 186 149
f  184 186 185
f  184 188 186
f  186 188 187
f  186 187 190
f  189 151 152
f  187 152 150
f  190 150 153
f  186 170 149
f  195 153 158
f  191 155 154
f  192 156 155
f  193 158 156
f  196 154 159
f  197 159 160
f  198 162 161
f  194 160 157
f  199 163 162
f  200 179 163
f  202 161 165
f  201 166 164
f  203 165 166
f  209 164 172
f  187 189 152
f  188 151 189
f  187 150 190
f  190 153 195
f  191 192 155
f  192 193 156
f  191 154 196
f  193 195 158
f  194 157 208
f  187 188 189
f  186 190 204
f  190 195 204
f  204 195 205
f  191 193 192
f  191 196 193
f  193 196 194
f  193 194 195
f  194 205 195
f  194 197 160
f  196 159 197
f  198 199 162
f  198 161 202
f  199 200 163
f  201 203 166
f  202 165 203
f  201 164 209
f  888 212 175
f  194 196 197
f  198 200 199
f  198 201 200
f  198 202 201
f  201 202 203
f  200 201 209
f  200 209 210
f  888 904 212
f  204 168 167
f  206 167 169
f  205 169 168
f  208 157 171
f  207 171 170
f  212 172 175
f  210 174 173
f  211 176 174
f  213 864 176
f  217 173 180
f  214 178 177
f  216 177 179
f  215 182 178
f  218 180 181
f  220 181 183
f  219 874 182
f  912 183 870
f  204 167 206
f  204 205 168
f  186 207 170
f  205 206 169
f  186 204 207
f  204 206 207
f  205 208 206
f  194 208 205
f  207 208 171
f  206 208 207
f  200 216 179
f  209 172 212
f  210 211 174
f  210 173 217
f  211 213 176
f  213 906 864
f  200 210 216
f  209 212 211
f  209 211 210
f  212 213 211
f  212 904 213
f  904 906 213
f  210 217 216
f  214 215 178
f  214 177 216
f  215 219 182
f  217 180 218
f  218 181 220
f  912 220 183
f  219 916 874
f  214 216 215
f  215 216 219
f  216 217 219
f  217 218 219
f  218 220 219
f  912 916 220
f  219 220 916
f  304 221 222
f  306 222 224
f  319 223 237
f  305 225 223
f  309 224 227
f  307 226 225
f  308 228 226
f  310 229 228
f  314 227 232
f  311 230 229
f  313 233 231
f  315 234 233
f  351 231 269
f  317 270 235
f  304 303 221
f  304 222 306
f  319 305 223
f  305 307 225
f  306 224 309
f  307 308 226
f  308 310 228
f  304 319 303
f  304 305 319
f  304 306 305
f  305 306 307
f  306 309 308
f  306 308 307
f  309 227 314
f  310 311 229
f  311 312 230
f  314 232 333
f  313 315 233
f  313 231 351
f  315 316 234
f  317 352 270
f  308 309 310
f  309 311 310
f  309 314 311
f  311 314 312
f  313 316 315
f  313 317 316
f  313 351 317
f  317 351 352
f  318 239 236
f  303 236 221
f  320 237 238
f  321 241 239
f  322 238 240
f  323 244 241
f  324 240 242
f  325 242 243
f  326 245 244
f  328 243 246
f  327 249 245
f  329 246 247
f  330 247 248
f  341 248 259
f  331 261 249
f  312 250 230
f  332 251 250
f  333 232 251
f  316 265 234
f  334 235 252
f  335 255 253
f  336 252 254
f  337 279 255
f  339 256 257
f  338 260 256
f  340 259 258
f  342 258 260
f  343 262 261
f  344 257 262
f  345 264 263
f  348 253 266
f  347 263 265
f  346 268 264
f  349 266 267
f  303 318 236
f  319 237 320
f  320 238 322
f  318 321 239
f  322 240 324
f  303 320 318
f  303 319 320
f  318 320 322
f  318 322 321
f  321 322 323
f  321 323 241
f  323 326 244
f  324 242 325
f  326 327 245
f  325 243 328
f  328 246 329
f  327 331 249
f  329 247 330
f  330 248 341
f  331 343 261
f  323 322 324
f  323 324 326
f  324 325 326
f  325 327 326
f  325 328 327
f  327 328 331
f  328 329 331
f  329 330 331
f  330 341 343
f  331 330 343
f  312 332 250
f  332 333 251
f  317 235 334
f  334 252 336
f  335 337 255
f  335 253 348
f  312 333 332
f  314 333 312
f  316 317 334
f  316 334 335
f  316 335 347
f  334 337 335
f  334 336 337
f  336 361 337
f  338 256 339
f  338 342 260
f  339 257 344
f  341 259 340
f  340 258 342
f  343 344 262
f  345 346 264
f  316 347 265
f  345 263 347
f  348 266 349
f  349 267 370
f  346 350 268
f  338 339 342
f  341 340 343
f  339 344 342
f  340 342 344
f  340 344 343
f  335 348 347
f  345 347 346
f  346 347 350
f  347 348 350
f  348 349 350
f  349 370 350
f  352 269 270
f  353 272 271
f  354 273 272
f  357 271 275
f  356 276 274
f  358 275 276
f  360 277 278
f  351 269 352
f  353 271 357
f  353 354 272
f  354 355 273
f  356 358 276
f  353 355 354
f  353 357 355
f  355 357 356
f  356 357 358
f  357 275 358
f  359 277 360
f  362 254 280
f  361 281 279
f  363 282 281
f  365 280 283
f  366 283 284
f  364 286 282
f  368 285 286
f  367 289 285
f  369 284 287
f  372 287 290
f  370 267 288
f  350 290 268
f  371 288 289
f  376 294 273
f  375 274 293
f  373 292 291
f  376 291 294
f  374 295 292
f  359 293 277
f  378 299 296
f  377 296 295
f  379 298 297
f  382 278 300
f  381 297 299
f  380 302 298
f  383 300 301
f  384 301 302
f  336 254 362
f  337 361 279
f  362 280 365
f  361 363 281
f  363 364 282
f  365 283 366
f  366 284 369
f  355 376 273
f  356 274 375
f  336 362 361
f  361 362 363
f  362 365 363
f  363 365 364
f  365 366 364
f  355 356 375
f  364 368 286
f  368 367 285
f  367 371 289
f  372 369 287
f  370 288 371
f  350 372 290
f  373 291 376
f  373 374 292
f  374 377 295
f  364 366 368
f  366 369 368
f  368 369 367
f  367 369 372
f  370 372 350
f  367 372 371
f  370 371 372
f  355 375 376
f  373 376 374
f  376 375 377
f  374 376 377
f  375 293 359
f  377 378 296
f  360 278 382
f  375 359 360
f  375 360 378
f  360 382 378
f  379 380 298
f  378 381 299
f  379 297 381
f  382 300 383
f  383 301 384
f  380 384 302
f  375 378 377
f  378 382 381
f  379 381 380
f  380 381 382
f  380 382 384
f  382 383 384
f  388 391 386
f  389 386 387
f  388 396 391
f  389 388 386
f  396 392 391
f  397 393 392
f  398 394 393
f  396 397 392
f  396 414 397
f  397 398 393
f  398 399 394
f  397 399 398
f  397 400 399
f  397 416 400
f  399 395 394
f  399 400 395
f  404 387 401
f  405 401 402
f  406 402 403
f  413 403 407
f  389 387 404
f  404 401 405
f  405 402 406
f  389 414 388
f  404 405 406
f  389 404 414
f  404 406 413
f  406 403 413
f  404 413 414
f  414 407 408
f  415 408 409
f  418 409 412
f  388 414 396
f  397 414 415
f  397 417 416
f  397 418 417
f  397 415 418
f  413 407 414
f  414 408 415
f  415 409 418
f  400 410 395
f  416 411 410
f  417 412 411
f  400 416 410
f  416 417 411
f  417 418 412
f  431 420 419
f  435 419 423
f  432 421 420
f  434 426 422
f  431 432 420
f  431 419 435
f  431 433 432
f  431 435 433
f  432 433 421
f  433 435 434
f  438 423 426
f  437 424 425
f  436 634 424
f  440 429 428
f  441 430 429
f  435 423 438
f  436 424 437
f  434 435 438
f  434 438 426
f  436 437 641
f  440 441 429
f  440 428 605
f  440 442 441
f  440 605 442
f  437 425 643
f  441 442 430
f  497 444 447
f  494 443 444
f  496 445 446
f  499 447 449
f  498 450 448
f  500 451 450
f  506 449 456
f  501 457 451
f  495 448 445
f  493 452 443
f  502 454 452
f  503 446 453
f  504 543 454
f  505 453 455
f  588 455 544
f  507 458 457
f  509 456 459
f  508 462 458
f  510 461 460
f  512 463 462
f  513 464 463
f  514 459 464
f  511 465 461
f  523 460 473
f  516 474 466
f  519 466 469
f  518 467 468
f  517 552 467
f  515 557 465
f  520 472 470
f  521 469 471
f  522 480 472
f  602 470 558
f  497 494 444
f  493 443 494
f  495 445 496
f  497 447 499
f  495 498 448
f  498 500 450
f  499 449 506
f  500 501 451
f  501 507 457
f  497 495 494
f  494 495 496
f  493 494 496
f  497 498 495
f  497 499 498
f  499 500 498
f  499 501 500
f  499 506 501
f  493 502 452
f  496 446 503
f  503 453 505
f  502 504 454
f  504 587 543
f  505 455 588
f  493 503 502
f  502 503 504
f  493 496 503
f  504 503 505
f  504 505 587
f  505 588 587
f  507 508 458
f  506 456 509
f  510 511 461
f  508 512 462
f  512 513 463
f  509 459 514
f  513 514 464
f  511 515 465
f  510 460 523
f  516 524 474
f  516 466 519
f  506 507 501
f  506 508 507
f  506 509 508
f  508 509 512
f  512 514 513
f  512 509 514
f  510 515 511
f  510 516 515
f  510 523 516
f  523 524 516
f  515 516 519
f  515 519 520
f  517 467 518
f  519 469 521
f  520 522 472
f  515 601 557
f  520 470 602
f  517 518 596
f  515 520 601
f  519 522 520
f  519 521 522
f  521 530 522
f  520 602 601
f  524 473 474
f  525 476 475
f  526 477 476
f  538 475 488
f  528 489 478
f  529 471 479
f  530 481 480
f  531 484 481
f  532 479 482
f  533 482 483
f  534 486 484
f  536 485 486
f  537 483 487
f  617 478 573
f  616 572 477
f  539 488 489
f  540 573 490
f  541 490 491
f  618 492 574
f  542 577 492
f  622 491 578
f  523 473 524
f  525 526 476
f  525 475 538
f  526 527 477
f  528 539 489
f  528 478 617
f  525 527 526
f  525 538 527
f  538 528 527
f  538 539 528
f  527 528 617
f  521 471 529
f  529 479 532
f  522 530 480
f  530 531 481
f  531 534 484
f  532 482 533
f  534 536 486
f  536 535 485
f  533 483 537
f  537 487 613
f  527 616 477
f  521 529 530
f  530 529 531
f  529 532 531
f  531 532 534
f  532 533 534
f  534 533 536
f  536 533 537
f  536 537 535
f  537 613 535
f  527 617 616
f  538 488 539
f  540 490 541
f  541 491 622
f  617 540 541
f  618 542 492
f  617 573 540
f  542 621 577
f  617 541 542
f  617 542 618
f  541 622 542
f  542 622 621
f  587 546 543
f  589 544 545
f  590 548 546
f  591 545 547
f  594 549 550
f  593 547 549
f  592 553 548
f  595 550 551
f  596 551 552
f  597 554 553
f  598 468 554
f  599 556 555
f  601 555 557
f  600 560 556
f  603 558 559
f  587 590 546
f  588 544 589
f  589 545 591
f  590 592 548
f  593 549 594
f  591 547 593
f  592 597 553
f  587 588 590
f  588 589 590
f  590 589 592
f  589 591 592
f  591 593 592
f  592 593 597
f  593 594 597
f  594 550 595
f  517 596 552
f  595 551 596
f  597 598 554
f  518 468 598
f  599 600 556
f  599 555 601
f  602 558 603
f  603 559 611
f  600 604 560
f  518 598 596
f  595 596 598
f  594 595 597
f  595 598 597
f  599 601 600
f  600 601 604
f  601 602 604
f  602 603 604
f  603 611 604
f  605 428 561
f  607 561 563
f  606 563 562
f  608 565 564
f  609 566 565
f  605 561 607
f  606 605 607
f  606 607 563
f  442 605 606
f  608 609 565
f  608 564 625
f  608 610 609
f  609 610 566
f  608 626 610
f  611 559 567
f  535 568 485
f  612 567 568
f  604 569 560
f  613 487 569
f  614 571 570
f  616 570 572
f  615 574 571
f  619 576 575
f  621 575 577
f  620 580 576
f  623 578 579
f  624 579 580
f  611 567 612
f  612 568 535
f  604 613 569
f  614 615 571
f  614 570 616
f  615 618 574
f  612 535 613
f  611 612 613
f  604 611 613
f  614 616 615
f  615 616 618
f  616 617 618
f  619 620 576
f  619 575 621
f  620 624 580
f  622 578 623
f  623 579 624
f  619 621 620
f  620 621 622
f  620 622 624
f  622 623 624
f  625 564 581
f  627 581 583
f  626 583 582
f  679 582 651
f  628 585 584
f  629 586 585
f  625 581 627
f  608 625 626
f  626 625 627
f  626 582 679
f  626 627 583
f  610 626 679
f  610 679 681
f  628 629 585
f  628 584 1277
f  628 630 629
f  628 1277 630
f  629 630 586
f  640 633 421
f  641 422 634
f  433 640 421
f  434 422 641
f  433 434 641
f  433 641 640
f  638 632 631
f  640 631 633
f  639 635 632
f  638 631 640
f  638 639 632
f  639 642 635
f  638 640 639
f  640 641 642
f  640 642 639
f  642 427 635
f  439 637 427
f  442 636 430
f  643 425 636
f  439 427 642
f  437 439 641
f  436 641 634
f  439 642 641
f  437 643 439
f  442 606 643
f  439 644 637
f  442 643 636
f  439 643 644
f  606 644 643
f  606 673 644
f  644 647 637
f  673 562 645
f  610 649 566
f  606 562 673
f  610 681 677
f  610 677 649
f  674 645 646
f  675 646 647
f  676 650 648
f  677 648 649
f  678 666 650
f  673 645 674
f  674 646 675
f  644 675 647
f  673 674 675
f  673 675 644
f  676 648 677
f  676 678 650
f  676 677 678
f  677 694 678
f  680 651 652
f  681 654 653
f  682 656 654
f  683 652 655
f  684 657 656
f  689 655 661
f  685 658 657
f  692 653 664
f  686 659 658
f  687 660 659
f  688 668 660
f  690 661 662
f  630 671 586
f  691 662 663
f  679 651 680
f  681 682 654
f  680 652 683
f  683 655 689
f  682 684 656
f  684 685 657
f  685 686 658
f  679 682 681
f  679 680 682
f  682 680 684
f  680 683 684
f  684 683 685
f  683 689 685
f  685 689 686
f  681 653 692
f  686 687 659
f  687 688 660
f  677 681 692
f  689 661 690
f  689 690 686
f  630 1278 699
f  690 662 691
f  697 691 663
f  630 699 671
f  686 690 687
f  687 690 691
f  687 691 688
f  688 691 697
f  693 664 665
f  696 667 668
f  695 665 667
f  694 669 666
f  697 663 669
f  698 672 670
f  699 670 671
f  700 1359 672
f  692 664 693
f  693 665 695
f  678 694 666
f  695 667 696
f  688 696 668
f  694 697 669
f  677 692 694
f  692 693 694
f  693 695 694
f  695 697 694
f  688 697 696
f  695 696 697
f  698 670 699
f  698 700 672
f  698 699 700
f  699 1394 700
f  753 702 703
f  754 82 704
f  752 704 702
f  132 712 83
f  755 716 705
f  767 703 717
f  756 707 706
f  757 708 707
f  760 706 710
f  759 711 709
f  761 710 711
f  758 722 708
f  773 709 723
f  752 702 753
f  754 704 752
f  753 703 767
f  763 755 705
f  131 754 132
f  754 752 755
f  132 754 762
f  754 755 762
f  752 753 767
f  752 767 755
f  756 757 707
f  757 758 708
f  756 706 760
f  760 710 761
f  759 761 711
f  756 758 757
f  756 760 758
f  758 760 759
f  759 760 761
f  758 772 722
f  759 709 773
f  773 723 775
f  758 759 773
f  758 773 772
f  763 705 713
f  762 713 712
f  764 715 714
f  766 714 716
f  765 720 715
f  768 717 718
f  770 718 720
f  769 721 719
f  772 719 722
f  771 724 721
f  774 731 724
f  132 762 712
f  762 763 713
f  755 766 716
f  764 765 715
f  764 714 766
f  762 755 763
f  755 767 766
f  764 766 765
f  765 766 767
f  765 767 770
f  767 717 768
f  765 770 720
f  768 718 770
f  769 771 721
f  769 719 772
f  771 774 724
f  767 768 770
f  769 772 771
f  771 772 774
f  773 781 774
f  772 773 774
f  776 725 726
f  777 728 727
f  778 729 728
f  775 723 725
f  781 739 731
f  790 726 740
f  779 746 729
f  791 730 741
f  782 727 732
f  780 733 730
f  783 732 733
f  785 734 735
f  784 741 734
f  786 750 736
f  801 735 751
f  775 725 776
f  777 778 728
f  777 727 782
f  778 779 729
f  777 779 778
f  777 782 779
f  776 726 790
f  774 781 731
f  780 730 791
f  779 796 746
f  773 775 776
f  773 776 781
f  776 790 781
f  779 780 791
f  779 791 796
f  780 783 733
f  782 732 783
f  784 734 785
f  779 782 780
f  780 782 783
f  784 791 741
f  785 735 801
f  786 736 797
f  784 785 791
f  786 791 785
f  786 785 801
f  787 738 737
f  789 737 739
f  788 743 738
f  792 740 742
f  793 742 743
f  794 745 744
f  796 744 746
f  795 747 745
f  797 736 747
f  798 749 748
f  800 748 750
f  799 813 749
f  781 789 739
f  787 788 738
f  787 737 789
f  790 740 792
f  788 793 743
f  792 742 793
f  794 795 745
f  796 794 744
f  795 797 747
f  781 790 789
f  787 789 788
f  788 789 790
f  788 790 793
f  790 792 793
f  796 795 794
f  796 797 795
f  796 791 797
f  786 800 750
f  798 799 749
f  800 798 748
f  801 751 834
f  799 835 813
f  786 797 791
f  786 801 800
f  800 799 798
f  800 801 799
f  799 801 835
f  824 803 802
f  825 804 803
f  828 802 806
f  827 807 805
f  829 806 807
f  826 816 804
f  833 805 811
f  830 811 808
f  831 808 809
f  832 820 810
f  843 809 821
f  824 825 803
f  824 802 828
f  825 826 804
f  827 829 807
f  828 806 829
f  824 826 825
f  824 828 826
f  826 828 827
f  827 828 829
f  827 805 833
f  826 838 816
f  830 833 811
f  826 827 833
f  826 833 838
f  830 808 831
f  831 809 843
f  832 810 839
f  830 831 833
f  832 833 831
f  832 831 843
f  834 751 812
f  835 812 813
f  836 815 814
f  838 814 816
f  837 817 815
f  839 810 817
f  840 819 818
f  842 818 820
f  841 823 819
f  844 821 822
f  845 822 823
f  834 812 835
f  836 837 815
f  838 836 814
f  837 839 817
f  801 834 835
f  838 837 836
f  838 839 837
f  838 833 839
f  832 839 833
f  832 842 820
f  840 841 819
f  842 840 818
f  843 821 844
f  841 845 823
f  844 822 845
f  832 843 842
f  842 841 840
f  842 843 841
f  841 843 845
f  843 844 845
f  888 175 846
f  890 846 848
f  889 849 847
f  904 847 862
f  891 848 849
f  892 851 850
f  893 852 851
f  896 850 854
f  895 855 853
f  894 878 852
f  897 854 855
f  899 856 857
f  898 873 856
f  901 860 859
f  902 861 860
f  903 880 861
f  888 846 890
f  889 891 849
f  889 847 904
f  890 848 891
f  892 893 851
f  892 850 896
f  893 894 852
f  895 897 855
f  895 853 915
f  888 890 889
f  889 890 891
f  888 889 904
f  892 894 893
f  892 896 894
f  894 896 895
f  895 896 897
f  894 895 915
f  896 854 897
f  898 856 899
f  901 902 860
f  901 859 925
f  902 903 861
f  899 857 922
f  898 899 915
f  899 900 915
f  901 903 902
f  901 925 903
f  899 922 900
f  903 924 922
f  905 862 863
f  906 865 864
f  908 863 866
f  909 866 867
f  907 868 865
f  910 869 868
f  911 870 869
f  914 867 872
f  913 872 871
f  915 853 873
f  916 875 874
f  917 871 875
f  918 877 876
f  920 876 878
f  919 879 877
f  921 858 879
f  900 881 858
f  922 857 880
f  904 862 905
f  905 863 908
f  906 907 865
f  908 866 909
f  907 910 868
f  910 911 869
f  912 870 911
f  913 871 917
f  909 867 914
f  914 872 913
f  894 920 878
f  904 905 906
f  905 907 906
f  905 908 907
f  907 908 909
f  907 909 910
f  910 909 914
f  910 914 911
f  912 911 917
f  911 914 913
f  911 913 917
f  894 915 920
f  916 917 875
f  918 876 920
f  918 919 877
f  919 921 879
f  912 917 916
f  918 920 919
f  915 921 920
f  919 920 921
f  898 915 873
f  900 858 921
f  903 922 880
f  900 923 881
f  915 900 921
f  924 923 922
f  900 922 923
f  925 859 883
f  924 884 882
f  926 883 884
f  924 882 885
f  924 926 884
f  925 883 926
f  903 925 924
f  924 925 926
f  923 887 881
f  928 885 886
f  929 886 887
f  924 885 927
f  924 927 923
f  927 885 928
f  923 929 887
f  928 886 929
f  923 927 929
f  927 928 929
f  1015 930 931
f  1032 932 948
f  1017 931 933
f  1016 934 932
f  1021 933 937
f  1018 935 934
f  1019 936 935
f  1020 938 936
f  1022 940 938
f  1023 937 939
f  1025 942 941
f  1026 943 942
f  1028 941 944
f  1029 946 945
f  1029 945 966
f  1030 944 946
f  1015 1014 930
f  1015 931 1017
f  1032 1016 932
f  1016 1018 934
f  1017 933 1021
f  1018 1019 935
f  1019 1020 936
f  1015 1032 1014
f  1015 1016 1032
f  1015 1017 1016
f  1016 1017 1018
f  1017 1021 1019
f  1017 1019 1018
f  1019 1021 1020
f  1021 937 1023
f  1020 1022 938
f  1022 1024 940
f  1023 939 1048
f  1025 1026 942
f  1025 941 1028
f  1026 1027 943
f  1028 944 1030
f  1029 1030 946
f  1021 1022 1020
f  1021 1023 1022
f  1022 1023 1024
f  1025 1027 1026
f  1025 1029 1027
f  1025 1028 1029
f  1029 1028 1030
f  1014 947 930
f  1031 950 947
f  1033 948 949
f  1034 952 950
f  1035 949 951
f  1036 955 952
f  1037 951 953
f  1038 953 954
f  1039 956 955
f  1041 954 957
f  1042 957 958
f  1040 961 956
f  1043 958 959
f  1044 959 960
f  1045 962 961
f  1024 963 940
f  1048 939 964
f  1047 964 963
f  1027 965 943
f  1049 966 967
f  1050 970 968
f  1051 967 969
f  1052 990 970
f  1053 974 971
f  1054 971 972
f  1056 973 974
f  1055 960 973
f  1057 972 975
f  1046 975 962
f  1058 977 976
f  1060 978 965
f  1061 968 979
f  1060 976 978
f  1059 981 977
f  1062 979 980
f  1081 980 999
f  1014 1031 947
f  1032 948 1033
f  1033 949 1035
f  1031 1034 950
f  1035 951 1037
f  1014 1033 1031
f  1031 1033 1035
f  1014 1032 1033
f  1031 1035 1034
f  1034 1035 1036
f  1034 1036 952
f  1036 1039 955
f  1037 953 1038
f  1038 954 1041
f  1039 1040 956
f  1041 957 1042
f  1040 1045 961
f  1042 958 1043
f  1043 959 1044
f  1044 960 1055
f  1045 1046 962
f  1035 1037 1036
f  1036 1037 1039
f  1037 1038 1039
f  1038 1040 1039
f  1038 1041 1040
f  1040 1041 1045
f  1041 1042 1045
f  1042 1043 1045
f  1043 1044 1046
f  1045 1043 1046
f  1024 1047 963
f  1047 1048 964
f  1029 966 1049
f  1027 1060 965
f  1049 967 1051
f  1050 1052 970
f  1051 969 1073
f  1052 1072 990
f  1050 968 1061
f  1023 1048 1024
f  1024 1048 1047
f  1027 1029 1049
f  1027 1049 1050
f  1027 1050 1060
f  1049 1052 1050
f  1049 1051 1052
f  1051 1072 1052
f  1053 971 1054
f  1053 1056 974
f  1054 972 1057
f  1055 973 1056
f  1046 1057 975
f  1058 976 1060
f  1058 1059 977
f  1059 1063 981
f  1061 979 1062
f  1062 980 1081
f  1053 1054 1056
f  1044 1055 1046
f  1055 1057 1046
f  1054 1057 1056
f  1055 1056 1057
f  1058 1060 1059
f  1060 1050 1061
f  1059 1060 1063
f  1060 1061 1063
f  1061 1062 1063
f  1062 1081 1063
f  1064 983 982
f  1065 984 983
f  1067 982 985
f  1068 987 986
f  1069 985 987
f  1071 988 989
f  1064 982 1067
f  1064 1065 983
f  1065 1066 984
f  1067 985 1069
f  1068 1069 987
f  1064 1066 1065
f  1064 1067 1066
f  1066 1067 1068
f  1068 1067 1069
f  1070 988 1071
f  1073 969 991
f  1072 992 990
f  1076 991 994
f  1074 993 992
f  1077 994 995
f  1075 996 993
f  1078 997 996
f  1079 1000 997
f  1080 995 998
f  1083 998 1001
f  1082 999 1000
f  1063 1001 981
f  1085 1003 984
f  1087 986 1005
f  1084 1004 1002
f  1085 1002 1003
f  1086 1006 1004
f  1070 1005 988
f  1089 1010 1007
f  1088 1007 1006
f  1090 1009 1008
f  1093 989 1011
f  1092 1008 1010
f  1091 1013 1009
f  1094 1011 1012
f  1095 1012 1013
f  1073 991 1076
f  1072 1074 992
f  1074 1075 993
f  1076 994 1077
f  1077 995 1080
f  1066 1085 984
f  1068 986 1087
f  1051 1073 1072
f  1073 1074 1072
f  1073 1076 1074
f  1074 1076 1075
f  1076 1077 1075
f  1066 1068 1087
f  1075 1078 996
f  1078 1079 997
f  1079 1082 1000
f  1083 1080 998
f  1081 999 1082
f  1063 1083 1001
f  1084 1002 1085
f  1084 1086 1004
f  1086 1088 1006
f  1075 1077 1078
f  1078 1077 1080
f  1078 1080 1079
f  1079 1080 1083
f  1063 1081 1083
f  1081 1082 1083
f  1079 1083 1082
f  1066 1087 1085
f  1084 1085 1086
f  1086 1085 1088
f  1085 1087 1088
f  1070 1087 1005
f  1089 1007 1088
f  1071 989 1093
f  1070 1071 1087
f  1071 1089 1087
f  1071 1093 1089
f  1090 1091 1009
f  1089 1092 1010
f  1090 1008 1092
f  1093 1011 1094
f  1094 1012 1095
f  1091 1095 1013
f  1089 1088 1087
f  1089 1093 1092
f  1090 1092 1091
f  1091 1092 1093
f  1091 1093 1095
f  1093 1094 1095
f  1148 1100 1098
f  1150 1099 1100
f  1151 1103 1101
f  1152 1101 1102
f  1154 1098 1104
f  1153 1105 1103
f  1155 1106 1105
f  1162 1104 1112
f  1156 1107 1106
f  1149 1108 1099
f  1158 1110 1108
f  1159 1102 1109
f  1160 1198 1110
f  1161 1109 1111
f  1260 1111 1199
f  1157 1113 1107
f  1163 1117 1113
f  1164 1112 1114
f  1165 1116 1115
f  1166 1120 1116
f  1167 1118 1117
f  1169 1114 1119
f  1168 1119 1118
f  1172 1115 1122
f  1171 1123 1121
f  1173 1122 1123
f  1176 1121 1126
f  1175 1124 1125
f  1174 1208 1124
f  1170 1212 1120
f  1177 1129 1127
f  1178 1126 1128
f  1179 1137 1129
f  1274 1127 1213
f  1148 1150 1100
f  1149 1099 1150
f  1151 1101 1152
f  1148 1098 1154
f  1151 1153 1103
f  1153 1155 1105
f  1154 1104 1162
f  1155 1156 1106
f  1156 1157 1107
f  1148 1151 1150
f  1148 1153 1151
f  1149 1150 1152
f  1150 1151 1152
f  1148 1154 1153
f  1154 1155 1153
f  1154 1156 1155
f  1154 1162 1156
f  1162 1157 1156
f  1149 1158 1108
f  1152 1102 1159
f  1159 1109 1161
f  1158 1160 1110
f  1160 1259 1198
f  1161 1111 1260
f  1149 1152 1159
f  1149 1159 1158
f  1158 1159 1160
f  1160 1159 1161
f  1160 1161 1259
f  1161 1260 1259
f  1162 1112 1164
f  1157 1163 1113
f  1165 1166 1116
f  1163 1167 1117
f  1164 1114 1169
f  1167 1168 1118
f  1168 1169 1119
f  1165 1115 1172
f  1166 1170 1120
f  1172 1122 1173
f  1171 1173 1123
f  1171 1121 1176
f  1162 1164 1163
f  1162 1163 1157
f  1163 1164 1167
f  1165 1170 1166
f  1167 1164 1169
f  1167 1169 1168
f  1165 1171 1170
f  1165 1172 1171
f  1172 1173 1171
f  1170 1171 1176
f  1170 1176 1177
f  1174 1124 1175
f  1176 1126 1178
f  1177 1179 1129
f  1178 1128 1186
f  1179 1187 1137
f  1170 1273 1212
f  1177 1127 1274
f  1174 1175 1269
f  1170 1177 1273
f  1176 1179 1177
f  1176 1178 1179
f  1178 1187 1179
f  1273 1177 1274
f  1180 1131 1130
f  1181 1132 1131
f  1184 1130 1134
f  1185 1134 1135
f  1183 1135 1133
f  1186 1128 1136
f  1189 1136 1139
f  1187 1138 1137
f  1188 1141 1138
f  1190 1139 1140
f  1191 1142 1141
f  1192 1143 1142
f  1194 1140 1144
f  1289 1228 1132
f  1292 1133 1231
f  1195 1231 1145
f  1196 1145 1146
f  1293 1147 1232
f  1197 1235 1147
f  1297 1146 1236
f  1180 1181 1131
f  1180 1130 1184
f  1181 1182 1132
f  1184 1134 1185
f  1183 1185 1135
f  1183 1133 1292
f  1180 1182 1181
f  1180 1184 1182
f  1182 1184 1183
f  1183 1184 1185
f  1182 1183 1292
f  1186 1136 1189
f  1187 1188 1138
f  1188 1191 1141
f  1189 1139 1190
f  1191 1192 1142
f  1192 1193 1143
f  1190 1140 1194
f  1288 1194 1144
f  1182 1289 1132
f  1178 1186 1187
f  1186 1188 1187
f  1186 1189 1188
f  1188 1189 1191
f  1189 1190 1191
f  1191 1190 1192
f  1192 1190 1194
f  1192 1194 1193
f  1193 1194 1288
f  1182 1292 1289
f  1195 1145 1196
f  1196 1146 1297
f  1292 1195 1196
f  1197 1147 1293
f  1292 1231 1195
f  1197 1296 1235
f  1292 1196 1197
f  1292 1197 1293
f  1196 1297 1197
f  1197 1297 1296
f  1259 1200 1198
f  1262 1199 1201
f  1264 1201 1203
f  1261 1205 1200
f  1263 1204 1202
f  1265 1203 1204
f  1266 1206 1205
f  1268 1202 1207
f  1269 1207 1208
f  1270 1125 1209
f  1267 1209 1206
f  1271 1211 1210
f  1273 1210 1212
f  1272 1215 1211
f  1275 1213 1214
f  1286 1214 1225
f  1260 1199 1262
f  1259 1261 1200
f  1262 1201 1264
f  1261 1266 1205
f  1265 1204 1263
f  1263 1202 1268
f  1264 1203 1265
f  1266 1267 1206
f  1259 1260 1261
f  1260 1262 1261
f  1261 1262 1266
f  1262 1264 1266
f  1264 1265 1266
f  1266 1265 1267
f  1265 1263 1267
f  1268 1207 1269
f  1174 1269 1208
f  1175 1125 1270
f  1267 1270 1209
f  1271 1272 1211
f  1271 1210 1273
f  1272 1276 1215
f  1274 1213 1275
f  1275 1214 1286
f  1175 1270 1269
f  1268 1269 1270
f  1263 1268 1267
f  1268 1270 1267
f  1271 1273 1272
f  1272 1273 1276
f  1273 1274 1276
f  1274 1275 1276
f  1275 1286 1276
f  1277 584 1216
f  1279 1216 1218
f  1278 1218 1217
f  1300 1220 1239
f  1282 1219 1221
f  1281 1221 1220
f  1283 1224 1222
f  1284 1222 1223
f  1285 1242 1224
f  1277 1216 1279
f  1278 1277 1279
f  1278 1279 1218
f  1280 1219 1282
f  630 1277 1278
f  1281 1220 1300
f  1281 1300 1285
f  1285 1300 1303
f  1281 1282 1221
f  1283 1222 1284
f  1285 1224 1283
f  1285 1303 1242
f  1281 1283 1282
f  1280 1282 1284
f  1282 1283 1284
f  1281 1285 1283
f  1287 1225 1226
f  1193 1226 1143
f  1276 1227 1215
f  1288 1144 1227
f  1290 1230 1229
f  1289 1229 1228
f  1291 1232 1230
f  1294 1234 1233
f  1296 1233 1235
f  1295 1238 1234
f  1298 1236 1237
f  1299 1237 1238
f  1287 1286 1225
f  1287 1226 1193
f  1276 1288 1227
f  1290 1291 1230
f  1290 1229 1289
f  1291 1293 1232
f  1287 1193 1288
f  1287 1288 1286
f  1276 1286 1288
f  1290 1289 1291
f  1291 1289 1293
f  1289 1292 1293
f  1294 1295 1234
f  1294 1233 1296
f  1297 1236 1298
f  1295 1299 1238
f  1298 1237 1299
f  1294 1296 1295
f  1295 1296 1297
f  1295 1297 1299
f  1297 1298 1299
f  1301 1239 1240
f  1302 1240 1241
f  1303 1243 1242
f  1304 1244 1243
f  1305 1245 1244
f  1306 1246 1245
f  1307 1247 1246
f  1309 1241 1248
f  1308 1248 1247
f  1311 1249 1250
f  1312 1250 1251
f  1314 1253 1249
f  1314 1254 1253
f  1315 1252 1254
f  1316 1256 1255
f  1313 1255 1252
f  1317 1257 1256
f  1318 1258 1257
f  1319 1321 1258
f  1300 1239 1301
f  1301 1240 1302
f  1300 1304 1303
f  1300 1301 1304
f  1304 1301 1305
f  1303 1304 1243
f  1304 1305 1244
f  1305 1306 1245
f  1306 1307 1246
f  1302 1241 1309
f  1307 1308 1247
f  1308 1309 1248
f  1305 1301 1306
f  1301 1302 1306
f  1306 1302 1307
f  1302 1309 1307
f  1307 1309 1308
f  1310 1249 1311
f  1311 1250 1312
f  1310 1311 1316
f  1311 1318 1317
f  1311 1312 1318
f  1318 1312 1319
f  1312 1337 1319
f  1310 1314 1249
f  1313 1252 1315
f  1314 1315 1254
f  1313 1316 1255
f  1316 1317 1256
f  1317 1318 1257
f  1318 1319 1258
f  1310 1316 1313
f  1310 1313 1314
f  1313 1315 1314
f  1311 1317 1316
f  1336 1251 1320
f  1337 1322 1321
f  1341 1320 1325
f  1338 1323 1322
f  1339 1324 1323
f  1342 1325 1326
f  1343 1326 1327
f  1344 1329 1328
f  1345 1332 1329
f  1347 1330 1331
f  1346 1335 1330
f  1349 1331 1333
f  1348 1441 1332
f  1312 1251 1336
f  1336 1320 1341
f  1312 1336 1337
f  1319 1337 1321
f  1337 1338 1322
f  1338 1339 1323
f  1339 1340 1324
f  1341 1325 1342
f  1342 1326 1343
f  1343 1327 1479
f  1337 1336 1338
f  1336 1341 1338
f  1341 1339 1338
f  1341 1342 1339
f  1339 1342 1340
f  1342 1343 1340
f  1344 1328 1350
f  1344 1345 1329
f  1346 1330 1347
f  1345 1348 1332
f  1347 1331 1349
f  1349 1333 1489
f  1344 1346 1345
f  1345 1346 1348
f  1346 1347 1348
f  1344 1350 1346
f  1347 1349 1348
f  1348 1349 1488
f  1350 1328 1334
f  1351 1334 1335
f  1346 1351 1335
f  1350 1334 1351
f  1346 1350 1351
f  1280 1352 1219
f  1389 1353 1352
f  1394 1217 1357
f  1390 1360 1353
f  1391 1223 1354
f  1392 1354 1355
f  1393 1355 1356
f  1278 1217 1394
f  1280 1389 1352
f  1280 1391 1389
f  1389 1391 1390
f  1389 1390 1353
f  1278 1394 699
f  1284 1223 1391
f  1391 1354 1392
f  1280 1284 1391
f  1390 1397 1360
f  1392 1355 1393
f  1390 1391 1392
f  1390 1392 1397
f  1392 1393 1397
f  1395 1357 1358
f  1396 1358 1359
f  1397 1362 1360
f  1398 1356 1361
f  1408 1361 1371
f  1399 1374 1362
f  1394 1357 1395
f  700 1396 1359
f  1395 1358 1396
f  1394 1395 1396
f  700 1394 1396
f  1393 1356 1398
f  1397 1399 1362
f  1398 1361 1408
f  1399 1411 1374
f  1393 1399 1397
f  1393 1398 1399
f  1398 1411 1399
f  1398 1408 1411
f  1400 1376 1363
f  1401 1363 1364
f  1402 1366 1365
f  1404 1365 1367
f  1403 1368 1366
f  1407 1369 1370
f  1400 1363 1401
f  1401 1364 1415
f  1400 1401 1413
f  1402 1403 1366
f  1402 1365 1404
f  1403 1405 1368
f  1402 1404 1403
f  1404 1405 1403
f  1406 1369 1407
f  1407 1370 1417
f  1406 1407 1417
f  1409 1371 1372
f  1410 1372 1373
f  1411 1375 1374
f  1413 1377 1376
f  1414 1373 1377
f  1415 1364 1378
f  1412 1378 1375
f  1406 1379 1369
f  1416 1385 1379
f  1417 1370 1380
f  1418 1380 1381
f  1419 1381 1382
f  1420 1382 1383
f  1421 1383 1384
f  1422 1386 1385
f  1423 1387 1386
f  1424 1388 1387
f  1408 1371 1409
f  1409 1372 1410
f  1410 1373 1414
f  1411 1412 1375
f  1414 1377 1413
f  1400 1413 1376
f  1412 1415 1378
f  1408 1409 1411
f  1409 1410 1412
f  1410 1414 1412
f  1409 1412 1411
f  1414 1415 1412
f  1414 1413 1415
f  1401 1415 1413
f  1406 1416 1379
f  1416 1422 1385
f  1417 1380 1418
f  1418 1381 1419
f  1419 1382 1420
f  1420 1383 1421
f  1421 1384 1494
f  1422 1423 1386
f  1423 1424 1387
f  1424 1425 1388
f  1406 1417 1416
f  1416 1417 1422
f  1422 1417 1418
f  1418 1419 1423
f  1419 1420 1424
f  1420 1421 1425
f  1421 1494 1425
f  1422 1418 1423
f  1419 1424 1423
f  1420 1425 1424
f  1340 1426 1324
f  1473 1427 1426
f  1475 1367 1428
f  1405 1434 1368
f  1476 1430 1429
f  1474 1428 1427
f  1478 1429 1431
f  1480 1432 1433
f  1479 1327 1432
f  1477 1433 1430
f  1481 1435 1434
f  1482 1436 1435
f  1485 1431 1438
f  1483 1437 1436
f  1484 1448 1437
f  1486 1438 1439
f  1487 1439 1440
f  1489 1333 1442
f  1488 1443 1441
f  1490 1459 1443
f  1492 1444 1445
f  1340 1473 1426
f  1473 1474 1427
f  1404 1367 1475
f  1475 1428 1474
f  1405 1481 1434
f  1476 1429 1478
f  1476 1477 1430
f  1478 1431 1485
f  1480 1479 1432
f  1477 1480 1433
f  1473 1480 1474
f  1404 1475 1476
f  1404 1476 1481
f  1404 1481 1405
f  1481 1476 1478
f  1475 1474 1477
f  1475 1477 1476
f  1474 1480 1477
f  1340 1479 1473
f  1340 1343 1479
f  1473 1479 1480
f  1481 1482 1435
f  1482 1483 1436
f  1483 1484 1437
f  1484 1495 1448
f  1485 1438 1486
f  1486 1439 1487
f  1487 1440 1496
f  1481 1478 1482
f  1482 1485 1483
f  1482 1478 1485
f  1483 1486 1484
f  1484 1487 1495
f  1483 1485 1486
f  1486 1487 1484
f  1348 1488 1441
f  1488 1490 1443
f  1490 1506 1459
f  1349 1489 1488
f  1488 1489 1490
f  1491 1444 1492
f  1492 1445 1497
f  1491 1492 1497
f  1494 1384 1447
f  1493 1447 1446
f  1495 1446 1448
f  1425 1449 1388
f  1496 1440 1449
f  1491 1452 1444
f  1497 1445 1450
f  1498 1450 1451
f  1501 1451 1454
f  1499 1453 1452
f  1502 1454 1455
f  1503 1455 1456
f  1504 1456 1457
f  1500 1458 1453
f  1505 1472 1458
f  1494 1447 1493
f  1495 1493 1446
f  1425 1496 1449
f  1494 1496 1425
f  1495 1496 1493
f  1495 1487 1496
f  1494 1493 1496
f  1491 1499 1452
f  1497 1450 1498
f  1498 1451 1501
f  1499 1500 1453
f  1501 1454 1502
f  1502 1455 1503
f  1503 1456 1504
f  1504 1457 1516
f  1500 1505 1458
f  1505 1519 1472
f  1491 1497 1499
f  1499 1497 1498
f  1499 1498 1500
f  1498 1501 1500
f  1501 1502 1500
f  1502 1503 1505
f  1503 1504 1505
f  1502 1505 1500
f  1504 1519 1505
f  1507 1442 1460
f  1506 1462 1459
f  1508 1460 1461
f  1511 1461 1464
f  1509 1463 1462
f  1510 1466 1463
f  1512 1464 1465
f  1513 1467 1466
f  1517 1468 1470
f  1515 1465 1468
f  1489 1442 1507
f  1507 1460 1508
f  1506 1509 1462
f  1508 1461 1511
f  1490 1489 1507
f  1490 1507 1506
f  1506 1507 1508
f  1506 1508 1509
f  1508 1511 1509
f  1509 1510 1463
f  1511 1464 1512
f  1512 1465 1515
f  1510 1513 1466
f  1513 1514 1467
f  1515 1468 1517
f  1509 1511 1510
f  1510 1511 1512
f  1510 1512 1513
f  1512 1515 1513
f  1513 1517 1514
f  1513 1515 1517
f  1514 1469 1467
f  1516 1457 1469
f  1518 1470 1471
f  1519 1471 1472
f  1514 1516 1469
f  1518 1471 1519
f  1518 1517 1470
f  1514 1518 1516
f  1504 1516 1519
f  1516 1518 1519
f  1514 1517 1518
