# OpenSCAD obj exporter
v 0 0 0
v 0 0 0.9
v 0.492721 0.571429 0.9
v 0.492721 0.581697 0.9
v 0.53399 0.586929 0.9
v 0.53399 0.672566 0.9
v 0.413479 0.82098 0.9
v 0.413479 0.831249 0.9
v 0.442733 0.81594 0.9
v 0.488459 0.81594 0.9
v 0.523333 0.82098 0.9
v 0.523333 0.831249 0.9
v 0.571384 0.586929 0.9
v 0.612653 0.571429 0.9
v 0.612653 0.581697 0.9
v 0.571384 0.673729 0.9
v 0.563053 0.696009 0.9
v 0.601027 0.82098 0.9
v 0.601027 0.831249 0.9
v 0.633964 0.81594 0.9
v 0.657021 0.81594 0.9
v 0.685501 0.82098 0.9
v 0.685501 0.831249 0.9
v 0.700053 0.82098 0.9
v 0.700053 0.831249 0.9
v 0.729307 0.81594 0.9
v 0.492721 0.571429 1.1
v 0.492721 0.581697 1.1
v 0.53399 0.586929 1.1
v 0.53399 0.672566 1.1
v 0.413479 0.82098 1.1
v 0.413479 0.831249 1.1
v 0.442733 0.81594 1.1
v 0.488459 0.81594 1.1
v 0.523333 0.82098 1.1
v 0.523333 0.831249 1.1
v 0.571384 0.586929 1.1
v 0.612653 0.571429 1.1
v 0.612653 0.581697 1.1
v 0.571384 0.673729 1.1
v 0.563053 0.696009 1.1
v 0.601027 0.82098 1.1
v 0.601027 0.831249 1.1
v 0.633964 0.81594 1.1
v 0.657021 0.81594 1.1
v 0.685501 0.82098 1.1
v 0.685501 0.831249 1.1
v 0.700053 0.82098 1.1
v 0.700053 0.831249 1.1
v 0.729307 0.81594 1.1
v 0.744326 1.84119 0.9
v 0.744326 1.84119 1.1
v 0.779296 0.571429 0.9
v 0.779296 0.581697 0.9
v 0.820564 0.586929 0.9
v 0.820564 0.672566 0.9
v 0.857959 0.586929 0.9
v 0.899227 0.571429 0.9
v 0.899227 0.581697 0.9
v 0.857959 0.673729 0.9
v 0.849627 0.696009 0.9
v 0.775033 0.81594 0.9
v 0.809907 0.82098 0.9
v 0.809907 0.831249 0.9
v 0.887601 0.82098 0.9
v 0.887601 0.831249 0.9
v 0.920539 0.81594 0.9
v 1.09125 0.565423 0.9
v 1.10152 0.565423 0.9
v 1.1054 0.632849 0.9
v 0.943596 0.81594 0.9
v 0.972076 0.82098 0.9
v 0.972076 0.831249 0.9
v 0.982559 0.82098 0.9
v 0.982559 0.831249 0.9
v 1.00523 0.81594 0.9
v 1.04359 0.81594 0.9
v 1.08176 0.82098 0.9
v 1.08176 0.831249 0.9
v 0.779296 0.571429 1.1
v 0.779296 0.581697 1.1
v 0.820564 0.586929 1.1
v 0.820564 0.672566 1.1
v 0.857959 0.586929 1.1
v 0.899227 0.571429 1.1
v 0.899227 0.581697 1.1
v 0.857959 0.673729 1.1
v 0.849627 0.696009 1.1
v 0.775033 0.81594 1.1
v 0.809907 0.82098 1.1
v 0.809907 0.831249 1.1
v 0.887601 0.82098 1.1
v 0.887601 0.831249 1.1
v 0.920539 0.81594 1.1
v 1.09125 0.565423 1.1
v 1.10152 0.565423 1.1
v 1.1054 0.632849 1.1
v 0.943596 0.81594 1.1
v 0.972076 0.82098 1.1
v 0.972076 0.831249 1.1
v 0.982559 0.82098 1.1
v 0.982559 0.831249 1.1
v 1.00523 0.81594 1.1
v 1.04359 0.81594 1.1
v 1.08176 0.82098 1.1
v 1.08176 0.831249 1.1
v 1.17069 0.744449 0.9
v 1.23811 0.565423 0.9
v 1.24838 0.565423 0.9
v 1.25148 0.632849 0.9
v 1.17534 0.813034 0.9
v 1.18406 0.813034 0.9
v 1.26989 0.82098 0.9
v 1.26989 0.831249 0.9
v 1.31038 0.81594 0.9
v 1.46579 0.565423 0.9
v 1.47606 0.565423 0.9
v 1.47994 0.632849 0.9
v 1.33324 0.81594 0.9
v 1.35591 0.82098 0.9
v 1.3571 0.82098 0.9
v 1.35591 0.831249 0.9
v 1.3571 0.831249 0.9
v 1.37977 0.81594 0.9
v 1.41813 0.81594 0.9
v 1.4563 0.82098 0.9
v 1.4563 0.831249 0.9
v 1.17069 0.744449 1.1
v 1.23811 0.565423 1.1
v 1.24838 0.565423 1.1
v 1.25148 0.632849 1.1
v 1.17534 0.813034 1.1
v 1.18406 0.813034 1.1
v 1.26989 0.82098 1.1
v 1.26989 0.831249 1.1
v 1.31038 0.81594 1.1
v 1.46579 0.565423 1.1
v 1.47606 0.565423 1.1
v 1.47994 0.632849 1.1
v 1.33324 0.81594 1.1
v 1.35591 0.82098 1.1
v 1.3571 0.82098 1.1
v 1.35591 0.831249 1.1
v 1.3571 0.831249 1.1
v 1.37977 0.81594 1.1
v 1.41813 0.81594 1.1
v 1.4563 0.82098 1.1
v 1.4563 0.831249 1.1
v 1.1179 1.14286 0.9
v 1.1179 1.15313 0.9
v 1.1179 1.39241 0.9
v 1.1179 1.40268 0.9
v 1.1179 1.14286 1.1
v 1.1179 1.15313 1.1
v 1.1179 1.39241 1.1
v 1.1179 1.40268 1.1
v 0.779589 1.7448 0.9
v 0.821826 1.71901 0.9
v 0.838126 1.73279 0.9
v 0.878014 1.71041 0.9
v 0.878403 1.72533 0.9
v 0.899859 1.72666 0.9
v 0.925434 1.71346 0.9
v 0.920057 1.73066 0.9
v 0.753141 1.78609 0.9
v 0.790802 1.79169 0.9
v 0.78482 1.84158 0.9
v 0.808749 1.75517 0.9
v 0.752802 1.90007 0.9
v 0.790536 1.89496 0.9
v 0.778231 1.94262 0.9
v 0.807683 1.93225 0.9
v 0.820325 1.96841 0.9
v 0.837279 1.9542 0.9
v 0.88034 1.96151 0.9
v 0.878789 1.97701 0.9
v 0.89877 1.96037 0.9
v 0.91686 1.95696 0.9
v 0.933693 1.95146 0.9
v 0.920784 1.97454 0.9
v 0.937591 1.73688 0.9
v 0.951057 1.7449 0.9
v 0.969657 1.72262 0.9
v 1.00668 1.71429 0.9
v 1.00668 1.72455 0.9
v 1.03749 1.72979 0.9
v 1.07488 1.72979 0.9
v 1.11615 1.71429 0.9
v 1.11615 1.72455 0.9
v 0.958226 1.78365 0.9
v 0.97082 1.78365 0.9
v 0.954157 1.91036 0.9
v 0.966946 1.91036 0.9
v 0.948346 1.94407 0.9
v 0.965783 1.96713 0.9
v 1.00416 1.96384 0.9
v 1.00416 1.97411 0.9
v 1.07488 1.8162 0.9
v 1.07488 1.83364 0.9
v 1.09503 1.83364 0.9
v 1.10414 1.8162 0.9
v 1.12349 1.83737 0.9
v 1.03749 1.9588 0.9
v 1.07488 1.95667 0.9
v 1.09387 1.95667 0.9
v 1.12404 1.95323 0.9
v 1.1022 1.97411 0.9
v 0.779589 1.7448 1.1
v 0.821826 1.71901 1.1
v 0.838126 1.73279 1.1
v 0.878014 1.71041 1.1
v 0.878403 1.72533 1.1
v 0.899859 1.72666 1.1
v 0.925434 1.71346 1.1
v 0.920057 1.73066 1.1
v 0.753141 1.78609 1.1
v 0.790802 1.79169 1.1
v 0.78482 1.84158 1.1
v 0.808749 1.75517 1.1
v 0.752802 1.90007 1.1
v 0.790536 1.89496 1.1
v 0.778231 1.94262 1.1
v 0.807683 1.93225 1.1
v 0.820325 1.96841 1.1
v 0.837279 1.9542 1.1
v 0.88034 1.96151 1.1
v 0.878789 1.97701 1.1
v 0.89877 1.96037 1.1
v 0.91686 1.95696 1.1
v 0.933693 1.95146 1.1
v 0.920784 1.97454 1.1
v 0.937591 1.73688 1.1
v 0.951057 1.7449 1.1
v 0.969657 1.72262 1.1
v 1.00668 1.71429 1.1
v 1.00668 1.72455 1.1
v 1.03749 1.72979 1.1
v 1.07488 1.72979 1.1
v 1.11615 1.71429 1.1
v 1.11615 1.72455 1.1
v 0.958226 1.78365 1.1
v 0.97082 1.78365 1.1
v 0.954157 1.91036 1.1
v 0.966946 1.91036 1.1
v 0.948346 1.94407 1.1
v 0.965783 1.96713 1.1
v 1.00416 1.96384 1.1
v 1.00416 1.97411 1.1
v 1.07488 1.8162 1.1
v 1.07488 1.83364 1.1
v 1.09503 1.83364 1.1
v 1.10414 1.8162 1.1
v 1.12349 1.83737 1.1
v 1.03749 1.9588 1.1
v 1.07488 1.95667 1.1
v 1.09387 1.95667 1.1
v 1.12404 1.95323 1.1
v 1.1022 1.97411 1.1
v 1.15123 1.15836 0.9
v 1.18843 1.15836 0.9
v 1.22175 1.14286 0.9
v 1.22175 1.15313 0.9
v 1.25005 1.14286 0.9
v 1.25005 1.15313 0.9
v 1.28337 1.15836 0.9
v 1.15123 1.38737 0.9
v 1.18843 1.38737 0.9
v 1.22175 1.39241 0.9
v 1.22175 1.40268 0.9
v 1.25005 1.39241 0.9
v 1.25005 1.40268 0.9
v 1.28337 1.38737 0.9
v 1.32057 1.15836 0.9
v 1.3539 1.14286 0.9
v 1.3539 1.15313 0.9
v 1.38219 1.14286 0.9
v 1.38219 1.15313 0.9
v 1.41552 1.15836 0.9
v 1.45272 1.15836 0.9
v 1.48604 1.14286 0.9
v 1.48604 1.15313 0.9
v 1.32057 1.38737 0.9
v 1.3539 1.39241 0.9
v 1.3539 1.40268 0.9
v 1.38219 1.39241 0.9
v 1.38219 1.40268 0.9
v 1.41552 1.38737 0.9
v 1.45272 1.38737 0.9
v 1.48604 1.39241 0.9
v 1.48604 1.40268 0.9
v 1.15123 1.15836 1.1
v 1.18843 1.15836 1.1
v 1.22175 1.14286 1.1
v 1.22175 1.15313 1.1
v 1.25005 1.14286 1.1
v 1.25005 1.15313 1.1
v 1.28337 1.15836 1.1
v 1.15123 1.38737 1.1
v 1.18843 1.38737 1.1
v 1.22175 1.39241 1.1
v 1.22175 1.40268 1.1
v 1.25005 1.39241 1.1
v 1.25005 1.40268 1.1
v 1.28337 1.38737 1.1
v 1.32057 1.15836 1.1
v 1.3539 1.14286 1.1
v 1.3539 1.15313 1.1
v 1.38219 1.14286 1.1
v 1.38219 1.15313 1.1
v 1.41552 1.15836 1.1
v 1.45272 1.15836 1.1
v 1.48604 1.14286 1.1
v 1.48604 1.15313 1.1
v 1.32057 1.38737 1.1
v 1.3539 1.39241 1.1
v 1.3539 1.40268 1.1
v 1.38219 1.39241 1.1
v 1.38219 1.40268 1.1
v 1.41552 1.38737 1.1
v 1.45272 1.38737 1.1
v 1.48604 1.39241 1.1
v 1.48604 1.40268 1.1
v 1.22486 1.71429 0.9
v 1.22486 1.72455 0.9
v 1.25818 1.72979 0.9
v 1.27853 1.72979 0.9
v 1.14403 1.82138 0.9
v 1.14337 1.84855 0.9
v 1.15507 1.86817 0.9
v 1.1734 1.83693 0.9
v 1.1915 1.86246 0.9
v 1.15897 1.89719 0.9
v 1.15524 1.9246 0.9
v 1.14405 1.94291 0.9
v 1.19753 1.89757 0.9
v 1.17369 1.95497 0.9
v 1.22486 1.96384 0.9
v 1.22486 1.97411 0.9
v 1.25818 1.9588 0.9
v 1.27853 1.94795 0.9
v 1.30352 1.97411 0.9
v 1.3134 1.71429 0.9
v 1.3134 1.72455 0.9
v 1.43876 1.71429 0.9
v 1.45755 1.71429 0.9
v 1.40233 1.96384 0.9
v 1.40233 1.97411 0.9
v 1.43721 1.78171 0.9
v 1.43721 1.9588 0.9
v 1.45755 1.9588 0.9
v 1.49088 1.96384 0.9
v 1.49088 1.97411 0.9
v 1.22486 1.71429 1.1
v 1.22486 1.72455 1.1
v 1.25818 1.72979 1.1
v 1.27853 1.72979 1.1
v 1.14403 1.82138 1.1
v 1.14337 1.84855 1.1
v 1.15507 1.86817 1.1
v 1.1734 1.83693 1.1
v 1.1915 1.86246 1.1
v 1.15897 1.89719 1.1
v 1.15524 1.9246 1.1
v 1.14405 1.94291 1.1
v 1.19753 1.89757 1.1
v 1.17369 1.95497 1.1
v 1.22486 1.96384 1.1
v 1.22486 1.97411 1.1
v 1.25818 1.9588 1.1
v 1.27853 1.94795 1.1
v 1.30352 1.97411 1.1
v 1.3134 1.71429 1.1
v 1.3134 1.72455 1.1
v 1.43876 1.71429 1.1
v 1.45755 1.71429 1.1
v 1.40233 1.96384 1.1
v 1.40233 1.97411 1.1
v 1.43721 1.78171 1.1
v 1.43721 1.9588 1.1
v 1.45755 1.9588 1.1
v 1.49088 1.96384 1.1
v 1.49088 1.97411 1.1
v 0 4 0
v 0.200819 2.85714 0.9
v 0.200819 2.87563 0.9
v 0.260805 2.88504 0.9
v 0.360196 2.85714 0.9
v 0.297423 2.88504 0.9
v 0.360196 2.87563 0.9
v 0.200819 2.85714 1.1
v 0.200819 2.87563 1.1
v 0.260805 2.88504 1.1
v 0.360196 2.85714 1.1
v 0.297423 2.88504 1.1
v 0.360196 2.87563 1.1
v 0.744326 2.41262 0.9
v 0.744326 2.41262 1.1
v 0.468659 2.85714 0.9
v 0.480863 2.85714 0.9
v 0.494466 2.96909 0.9
v 0.604672 2.85714 0.9
v 0.604672 2.87563 0.9
v 0.667446 2.88504 0.9
v 0.734406 2.88504 0.9
v 0.468659 2.85714 1.1
v 0.480863 2.85714 1.1
v 0.494466 2.96909 1.1
v 0.604672 2.85714 1.1
v 0.604672 2.87563 1.1
v 0.667446 2.88504 1.1
v 0.734406 2.88504 1.1
v 0.200819 3.30634 0.9
v 0.200819 3.32482 0.9
v 0.260805 3.29726 0.9
v 0.297423 3.25925 0.9
v 0.342412 3.32482 0.9
v 0.200819 3.30634 1.1
v 0.200819 3.32482 1.1
v 0.260805 3.29726 1.1
v 0.297423 3.25925 1.1
v 0.342412 3.32482 1.1
v 0 4 0.9
v 0.44778 3.43467 0.9
v 0.425225 3.46889 0.9
v 0.481678 3.41113 0.9
v 0.5232 3.40328 0.9
v 0.60137 3.19817 0.9
v 0.564719 3.41113 0.9
v 0.598607 3.43467 0.9
v 0.621171 3.46889 0.9
v 0.667446 3.25925 0.9
v 0.660472 3.32482 0.9
v 0.734406 3.29726 0.9
v 0.44778 3.43467 1.1
v 0.425225 3.46889 1.1
v 0.481678 3.41113 1.1
v 0.5232 3.40328 1.1
v 0.564719 3.41113 1.1
v 0.598607 3.43467 1.1
v 0.621171 3.46889 1.1
v 0.667446 3.25925 1.1
v 0.660472 3.32482 1.1
v 0.734406 3.29726 1.1
v 0.417707 3.50879 0.9
v 0.425335 3.54976 0.9
v 0.448217 3.58376 0.9
v 0.482224 3.60665 0.9
v 0.5232 3.61428 0.9
v 0.564172 3.60665 0.9
v 0.59817 3.58376 0.9
v 0.628693 3.50879 0.9
v 0.621062 3.54976 0.9
v 0.417707 3.50879 1.1
v 0.425335 3.54976 1.1
v 0.448217 3.58376 1.1
v 0.482224 3.60665 1.1
v 0.5232 3.61428 1.1
v 0.564172 3.60665 1.1
v 0.59817 3.58376 1.1
v 0.628693 3.50879 1.1
v 0.621062 3.54976 1.1
v 0.753141 2.35752 0.9
v 0.779589 2.31623 0.9
v 0.790802 2.36312 0.9
v 0.821826 2.29044 0.9
v 0.838126 2.30422 0.9
v 0.808749 2.32659 0.9
v 0.78482 2.41301 0.9
v 0.752802 2.4715 0.9
v 0.790536 2.46639 0.9
v 0.878014 2.28184 0.9
v 0.878403 2.29676 0.9
v 0.899859 2.29809 0.9
v 0.925434 2.28489 0.9
v 0.920057 2.30209 0.9
v 0.937591 2.30831 0.9
v 0.969657 2.29405 0.9
v 0.951057 2.31633 0.9
v 0.958226 2.35508 0.9
v 0.97082 2.35508 0.9
v 1.00668 2.28571 0.9
v 1.00668 2.29598 0.9
v 0.954157 2.48179 0.9
v 0.966946 2.48179 0.9
v 1.03749 2.30121 0.9
v 1.07488 2.30121 0.9
v 1.11615 2.28571 0.9
v 1.11615 2.29598 0.9
v 1.07488 2.38763 0.9
v 1.07488 2.40507 0.9
v 1.09503 2.40507 0.9
v 1.10414 2.38763 0.9
v 1.12349 2.4088 0.9
v 0.753141 2.35752 1.1
v 0.779589 2.31623 1.1
v 0.790802 2.36312 1.1
v 0.821826 2.29044 1.1
v 0.838126 2.30422 1.1
v 0.808749 2.32659 1.1
v 0.78482 2.41301 1.1
v 0.752802 2.4715 1.1
v 0.790536 2.46639 1.1
v 0.878014 2.28184 1.1
v 0.878403 2.29676 1.1
v 0.899859 2.29809 1.1
v 0.925434 2.28489 1.1
v 0.920057 2.30209 1.1
v 0.937591 2.30831 1.1
v 0.969657 2.29405 1.1
v 0.951057 2.31633 1.1
v 0.958226 2.35508 1.1
v 0.97082 2.35508 1.1
v 1.00668 2.28571 1.1
v 1.00668 2.29598 1.1
v 0.954157 2.48179 1.1
v 0.966946 2.48179 1.1
v 1.03749 2.30121 1.1
v 1.07488 2.30121 1.1
v 1.11615 2.28571 1.1
v 1.11615 2.29598 1.1
v 1.07488 2.38763 1.1
v 1.07488 2.40507 1.1
v 1.09503 2.40507 1.1
v 1.10414 2.38763 1.1
v 1.12349 2.4088 1.1
v 0.778231 2.51405 0.9
v 0.807683 2.50368 0.9
v 0.837279 2.52563 0.9
v 0.820325 2.53984 0.9
v 0.878789 2.54844 0.9
v 0.88034 2.53294 0.9
v 0.89877 2.5318 0.9
v 0.91686 2.52839 0.9
v 0.933693 2.52289 0.9
v 0.920784 2.54597 0.9
v 0.794392 2.85714 0.9
v 0.794392 2.87563 0.9
v 0.948346 2.5155 0.9
v 0.965783 2.53856 0.9
v 1.00416 2.53527 0.9
v 1.00416 2.54553 0.9
v 1.03749 2.53023 0.9
v 1.07488 2.52809 0.9
v 1.09387 2.52809 0.9
v 1.12404 2.52466 0.9
v 1.1022 2.54553 0.9
v 1.01904 2.85714 0.9
v 1.01904 2.87563 0.9
v 1.07449 2.88504 0.9
v 0.778231 2.51405 1.1
v 0.807683 2.50368 1.1
v 0.837279 2.52563 1.1
v 0.820325 2.53984 1.1
v 0.878789 2.54844 1.1
v 0.88034 2.53294 1.1
v 0.89877 2.5318 1.1
v 0.91686 2.52839 1.1
v 0.933693 2.52289 1.1
v 0.920784 2.54597 1.1
v 0.794392 2.85714 1.1
v 0.794392 2.87563 1.1
v 0.948346 2.5155 1.1
v 0.965783 2.53856 1.1
v 1.00416 2.53527 1.1
v 1.00416 2.54553 1.1
v 1.03749 2.53023 1.1
v 1.07488 2.52809 1.1
v 1.09387 2.52809 1.1
v 1.12404 2.52466 1.1
v 1.1022 2.54553 1.1
v 1.01904 2.85714 1.1
v 1.01904 2.87563 1.1
v 1.07449 2.88504 1.1
v 1.14403 2.39281 0.9
v 1.14337 2.41998 0.9
v 1.15507 2.4396 0.9
v 1.15897 2.46861 0.9
v 1.15524 2.49603 0.9
v 1.1734 2.40836 0.9
v 1.1915 2.43388 0.9
v 1.19753 2.469 0.9
v 1.22486 2.28571 0.9
v 1.22486 2.29598 0.9
v 1.25818 2.30121 0.9
v 1.27853 2.30121 0.9
v 1.3134 2.28571 0.9
v 1.3134 2.29598 0.9
v 1.43876 2.28571 0.9
v 1.43721 2.35314 0.9
v 1.45755 2.28571 0.9
v 1.14403 2.39281 1.1
v 1.14337 2.41998 1.1
v 1.15507 2.4396 1.1
v 1.15897 2.46861 1.1
v 1.15524 2.49603 1.1
v 1.1734 2.40836 1.1
v 1.1915 2.43388 1.1
v 1.19753 2.469 1.1
v 1.22486 2.28571 1.1
v 1.22486 2.29598 1.1
v 1.25818 2.30121 1.1
v 1.27853 2.30121 1.1
v 1.3134 2.28571 1.1
v 1.3134 2.29598 1.1
v 1.43876 2.28571 1.1
v 1.43721 2.35314 1.1
v 1.45755 2.28571 1.1
v 1.14405 2.51434 0.9
v 1.17369 2.5264 0.9
v 1.22486 2.53527 0.9
v 1.22486 2.54553 0.9
v 1.25818 2.53023 0.9
v 1.27853 2.51938 0.9
v 1.30352 2.54553 0.9
v 1.21609 2.85714 0.9
v 1.1418 2.88504 0.9
v 1.21609 2.87563 0.9
v 1.40233 2.53527 0.9
v 1.40233 2.54553 0.9
v 1.43721 2.53023 0.9
v 1.45755 2.53023 0.9
v 1.49088 2.53527 0.9
v 1.49088 2.54553 0.9
v 1.41699 2.85714 0.9
v 1.41699 2.87563 0.9
v 1.47697 2.88504 0.9
v 1.14405 2.51434 1.1
v 1.17369 2.5264 1.1
v 1.22486 2.53527 1.1
v 1.22486 2.54553 1.1
v 1.25818 2.53023 1.1
v 1.27853 2.51938 1.1
v 1.30352 2.54553 1.1
v 1.21609 2.85714 1.1
v 1.1418 2.88504 1.1
v 1.21609 2.87563 1.1
v 1.40233 2.53527 1.1
v 1.40233 2.54553 1.1
v 1.43721 2.53023 1.1
v 1.45755 2.53023 1.1
v 1.49088 2.53527 1.1
v 1.49088 2.54553 1.1
v 1.41699 2.85714 1.1
v 1.41699 2.87563 1.1
v 1.47697 2.88504 1.1
v 0.794392 3.30634 0.9
v 0.794392 3.32482 0.9
v 1.01451 3.30634 0.9
v 1.01451 3.32482 0.9
v 1.07449 3.29726 0.9
v 0.794392 3.30634 1.1
v 0.794392 3.32482 1.1
v 1.01451 3.30634 1.1
v 1.01451 3.32482 1.1
v 1.07449 3.29726 1.1
v 1.1418 3.04058 0.9
v 1.1418 3.07198 0.9
v 1.19446 3.04058 0.9
v 1.17807 3.07198 0.9
v 1.22929 3.07869 0.9
v 1.26508 3.09883 0.9
v 1.26626 3.04991 0.9
v 1.28614 3.13414 0.9
v 1.29316 3.18636 0.9
v 1.28644 3.23571 0.9
v 1.1418 3.29343 0.9
v 1.17598 3.29343 0.9
v 1.19097 3.32482 0.9
v 1.23029 3.28724 0.9
v 1.2663 3.26866 0.9
v 1.31914 3.0779 0.9
v 1.3517 3.12385 0.9
v 1.36256 3.18706 0.9
v 1.31966 3.29038 0.9
v 1.41699 3.30634 0.9
v 1.41699 3.32482 0.9
v 1.47697 3.29726 0.9
v 1.1418 3.04058 1.1
v 1.1418 3.07198 1.1
v 1.19446 3.04058 1.1
v 1.17807 3.07198 1.1
v 1.22929 3.07869 1.1
v 1.26508 3.09883 1.1
v 1.26626 3.04991 1.1
v 1.28614 3.13414 1.1
v 1.29316 3.18636 1.1
v 1.28644 3.23571 1.1
v 1.1418 3.29343 1.1
v 1.17598 3.29343 1.1
v 1.19097 3.32482 1.1
v 1.23029 3.28724 1.1
v 1.2663 3.26866 1.1
v 1.31914 3.0779 1.1
v 1.3517 3.12385 1.1
v 1.36256 3.18706 1.1
v 1.31966 3.29038 1.1
v 1.41699 3.30634 1.1
v 1.41699 3.32482 1.1
v 1.47697 3.29726 1.1
v 3 0 0
v 1.54523 0.744449 0.9
v 1.61266 0.565423 0.9
v 1.62292 0.565423 0.9
v 1.62602 0.632849 0.9
v 1.54988 0.813034 0.9
v 1.5586 0.813034 0.9
v 1.64443 0.82098 0.9
v 1.64443 0.831249 0.9
v 1.68492 0.81594 0.9
v 1.74269 0.571429 0.9
v 1.74269 0.581697 0.9
v 1.77601 0.586929 0.9
v 1.79636 0.586929 0.9
v 1.83123 0.571429 0.9
v 1.83123 0.581697 0.9
v 1.70779 0.81594 0.9
v 1.73046 0.82098 0.9
v 1.73046 0.831249 0.9
v 1.74269 0.82098 0.9
v 1.74269 0.831249 0.9
v 1.77601 0.81594 0.9
v 1.79636 0.805091 0.9
v 1.82135 0.831249 0.9
v 1.54523 0.744449 1.1
v 1.61266 0.565423 1.1
v 1.62292 0.565423 1.1
v 1.62602 0.632849 1.1
v 1.54988 0.813034 1.1
v 1.5586 0.813034 1.1
v 1.64443 0.82098 1.1
v 1.64443 0.831249 1.1
v 1.68492 0.81594 1.1
v 1.74269 0.571429 1.1
v 1.74269 0.581697 1.1
v 1.77601 0.586929 1.1
v 1.79636 0.586929 1.1
v 1.83123 0.571429 1.1
v 1.83123 0.581697 1.1
v 1.70779 0.81594 1.1
v 1.73046 0.82098 1.1
v 1.73046 0.831249 1.1
v 1.74269 0.82098 1.1
v 1.74269 0.831249 1.1
v 1.77601 0.81594 1.1
v 1.79636 0.805091 1.1
v 1.82135 0.831249 1.1
v 1.95659 0.571429 0.9
v 1.95504 0.638854 0.9
v 1.97538 0.571429 0.9
v 2.02926 0.571429 0.9
v 2.02926 0.581697 0.9
v 1.92016 0.82098 0.9
v 1.92016 0.831249 0.9
v 1.95504 0.81594 0.9
v 1.97538 0.81594 0.9
v 2.00871 0.82098 0.9
v 2.00871 0.831249 0.9
v 2.02926 0.82098 0.9
v 2.02926 0.831249 0.9
v 2.06259 0.586929 0.9
v 2.08293 0.586929 0.9
v 2.1178 0.571429 0.9
v 2.1178 0.581697 0.9
v 2.24316 0.571429 0.9
v 2.24161 0.638854 0.9
v 2.08293 0.805091 0.9
v 2.06259 0.81594 0.9
v 2.10792 0.831249 0.9
v 2.20674 0.82098 0.9
v 2.20674 0.831249 0.9
v 2.24161 0.81594 0.9
v 1.95659 0.571429 1.1
v 1.95504 0.638854 1.1
v 1.97538 0.571429 1.1
v 2.02926 0.571429 1.1
v 2.02926 0.581697 1.1
v 1.92016 0.82098 1.1
v 1.92016 0.831249 1.1
v 1.95504 0.81594 1.1
v 1.97538 0.81594 1.1
v 2.00871 0.82098 1.1
v 2.00871 0.831249 1.1
v 2.02926 0.82098 1.1
v 2.02926 0.831249 1.1
v 2.06259 0.586929 1.1
v 2.08293 0.586929 1.1
v 2.1178 0.571429 1.1
v 2.1178 0.581697 1.1
v 2.24316 0.571429 1.1
v 2.24161 0.638854 1.1
v 2.08293 0.805091 1.1
v 2.06259 0.81594 1.1
v 2.10792 0.831249 1.1
v 2.20674 0.82098 1.1
v 2.20674 0.831249 1.1
v 2.24161 0.81594 1.1
v 1.51434 1.14286 0.9
v 1.51434 1.15313 0.9
v 1.54766 1.15836 0.9
v 1.58486 1.15836 0.9
v 1.61819 1.14286 0.9
v 1.61819 1.15313 0.9
v 1.64648 1.14286 0.9
v 1.64648 1.15313 0.9
v 1.67981 1.15836 0.9
v 1.51434 1.39241 0.9
v 1.51434 1.40268 0.9
v 1.54766 1.38737 0.9
v 1.58486 1.38737 0.9
v 1.61819 1.39241 0.9
v 1.61819 1.40268 0.9
v 1.64648 1.39241 0.9
v 1.64648 1.40268 0.9
v 1.67981 1.38737 0.9
v 1.71701 1.15836 0.9
v 1.75033 1.14286 0.9
v 1.75033 1.15313 0.9
v 1.77863 1.14286 0.9
v 1.77863 1.15313 0.9
v 1.81195 1.15836 0.9
v 1.84915 1.15836 0.9
v 1.71701 1.38737 0.9
v 1.75033 1.39241 0.9
v 1.75033 1.40268 0.9
v 1.77863 1.39241 0.9
v 1.77863 1.40268 0.9
v 1.81195 1.38737 0.9
v 1.84915 1.38737 0.9
v 1.51434 1.14286 1.1
v 1.51434 1.15313 1.1
v 1.54766 1.15836 1.1
v 1.58486 1.15836 1.1
v 1.61819 1.14286 1.1
v 1.61819 1.15313 1.1
v 1.64648 1.14286 1.1
v 1.64648 1.15313 1.1
v 1.67981 1.15836 1.1
v 1.51434 1.39241 1.1
v 1.51434 1.40268 1.1
v 1.54766 1.38737 1.1
v 1.58486 1.38737 1.1
v 1.61819 1.39241 1.1
v 1.61819 1.40268 1.1
v 1.64648 1.39241 1.1
v 1.64648 1.40268 1.1
v 1.67981 1.38737 1.1
v 1.71701 1.15836 1.1
v 1.75033 1.14286 1.1
v 1.75033 1.15313 1.1
v 1.77863 1.14286 1.1
v 1.77863 1.15313 1.1
v 1.81195 1.15836 1.1
v 1.84915 1.15836 1.1
v 1.71701 1.38737 1.1
v 1.75033 1.39241 1.1
v 1.75033 1.40268 1.1
v 1.77863 1.39241 1.1
v 1.77863 1.40268 1.1
v 1.81195 1.38737 1.1
v 1.84915 1.38737 1.1
v 1.55154 1.7448 0.9
v 1.59377 1.71901 0.9
v 1.61007 1.73279 0.9
v 1.64996 1.71041 0.9
v 1.65035 1.72533 0.9
v 1.67181 1.72666 0.9
v 1.52509 1.78609 0.9
v 1.51627 1.84119 0.9
v 1.56275 1.79169 0.9
v 1.5807 1.75517 0.9
v 1.55677 1.84158 0.9
v 1.52475 1.90007 0.9
v 1.56248 1.89496 0.9
v 1.57963 1.93225 0.9
v 1.55018 1.94262 0.9
v 1.59227 1.96841 0.9
v 1.60923 1.9542 0.9
v 1.65229 1.96151 0.9
v 1.65074 1.97701 0.9
v 1.67072 1.96037 0.9
v 1.69738 1.71346 0.9
v 1.69201 1.73066 0.9
v 1.70954 1.73688 0.9
v 1.72301 1.7449 0.9
v 1.74161 1.72262 0.9
v 1.77863 1.71429 0.9
v 1.77863 1.72455 0.9
v 1.80944 1.72979 0.9
v 1.84683 1.72979 0.9
v 1.73017 1.78365 0.9
v 1.74277 1.78365 0.9
v 1.72611 1.91036 0.9
v 1.68881 1.95696 0.9
v 1.70564 1.95146 0.9
v 1.69273 1.97454 0.9
v 1.72029 1.94407 0.9
v 1.73889 1.91036 0.9
v 1.73773 1.96713 0.9
v 1.77611 1.96384 0.9
v 1.77611 1.97411 0.9
v 1.84683 1.8162 0.9
v 1.84683 1.83364 0.9
v 1.86698 1.83364 0.9
v 1.80944 1.9588 0.9
v 1.84683 1.95667 0.9
v 1.86582 1.95667 0.9
v 1.87415 1.97411 0.9
v 1.55154 1.7448 1.1
v 1.59377 1.71901 1.1
v 1.61007 1.73279 1.1
v 1.64996 1.71041 1.1
v 1.65035 1.72533 1.1
v 1.67181 1.72666 1.1
v 1.52509 1.78609 1.1
v 1.51627 1.84119 1.1
v 1.56275 1.79169 1.1
v 1.5807 1.75517 1.1
v 1.55677 1.84158 1.1
v 1.52475 1.90007 1.1
v 1.56248 1.89496 1.1
v 1.57963 1.93225 1.1
v 1.55018 1.94262 1.1
v 1.59227 1.96841 1.1
v 1.60923 1.9542 1.1
v 1.65229 1.96151 1.1
v 1.65074 1.97701 1.1
v 1.67072 1.96037 1.1
v 1.69738 1.71346 1.1
v 1.69201 1.73066 1.1
v 1.70954 1.73688 1.1
v 1.72301 1.7449 1.1
v 1.74161 1.72262 1.1
v 1.77863 1.71429 1.1
v 1.77863 1.72455 1.1
v 1.80944 1.72979 1.1
v 1.84683 1.72979 1.1
v 1.73017 1.78365 1.1
v 1.74277 1.78365 1.1
v 1.72611 1.91036 1.1
v 1.68881 1.95696 1.1
v 1.70564 1.95146 1.1
v 1.69273 1.97454 1.1
v 1.72029 1.94407 1.1
v 1.73889 1.91036 1.1
v 1.73773 1.96713 1.1
v 1.77611 1.96384 1.1
v 1.77611 1.97411 1.1
v 1.84683 1.8162 1.1
v 1.84683 1.83364 1.1
v 1.86698 1.83364 1.1
v 1.80944 1.9588 1.1
v 1.84683 1.95667 1.1
v 1.86582 1.95667 1.1
v 1.87415 1.97411 1.1
v 1.88248 1.14286 0.9
v 1.88248 1.15313 0.9
v 1.88248 1.39241 0.9
v 1.88248 1.40268 0.9
v 1.88248 1.14286 1.1
v 1.88248 1.15313 1.1
v 1.88248 1.39241 1.1
v 1.88248 1.40268 1.1
v 1.8881 1.71429 0.9
v 1.8881 1.72455 0.9
v 1.99681 1.71429 0.9
v 1.99681 1.72455 0.9
v 2.03013 1.72979 0.9
v 2.05047 1.72979 0.9
v 1.87609 1.8162 0.9
v 1.89544 1.83737 0.9
v 1.91597 1.82138 0.9
v 1.91532 1.84855 0.9
v 1.92702 1.86817 0.9
v 1.94535 1.83693 0.9
v 1.96344 1.86246 0.9
v 1.89599 1.95323 0.9
v 1.916 1.94291 0.9
v 1.93092 1.89719 0.9
v 1.92719 1.9246 0.9
v 1.94564 1.95497 0.9
v 1.96947 1.89757 0.9
v 1.99681 1.96384 0.9
v 1.99681 1.97411 0.9
v 2.03013 1.9588 0.9
v 2.05047 1.94795 0.9
v 2.08535 1.71429 0.9
v 2.08535 1.72455 0.9
v 2.21071 1.71429 0.9
v 2.2295 1.71429 0.9
v 2.07547 1.97411 0.9
v 2.20915 1.78171 0.9
v 2.17428 1.96384 0.9
v 2.17428 1.97411 0.9
v 2.20915 1.9588 0.9
v 2.2295 1.9588 0.9
v 1.8881 1.71429 1.1
v 1.8881 1.72455 1.1
v 1.99681 1.71429 1.1
v 1.99681 1.72455 1.1
v 2.03013 1.72979 1.1
v 2.05047 1.72979 1.1
v 1.87609 1.8162 1.1
v 1.89544 1.83737 1.1
v 1.91597 1.82138 1.1
v 1.91532 1.84855 1.1
v 1.92702 1.86817 1.1
v 1.94535 1.83693 1.1
v 1.96344 1.86246 1.1
v 1.89599 1.95323 1.1
v 1.916 1.94291 1.1
v 1.93092 1.89719 1.1
v 1.92719 1.9246 1.1
v 1.94564 1.95497 1.1
v 1.96947 1.89757 1.1
v 1.99681 1.96384 1.1
v 1.99681 1.97411 1.1
v 2.03013 1.9588 1.1
v 2.05047 1.94795 1.1
v 2.08535 1.71429 1.1
v 2.08535 1.72455 1.1
v 2.21071 1.71429 1.1
v 2.2295 1.71429 1.1
v 2.07547 1.97411 1.1
v 2.20915 1.78171 1.1
v 2.17428 1.96384 1.1
v 2.17428 1.97411 1.1
v 2.20915 1.9588 1.1
v 2.2295 1.9588 1.1
v 2.26196 0.571429 0.9
v 2.31584 0.571429 0.9
v 2.31584 0.581697 0.9
v 2.34916 0.586929 0.9
v 2.3695 0.586929 0.9
v 2.40438 0.571429 0.9
v 2.40438 0.581697 0.9
v 2.26196 0.81594 0.9
v 2.29528 0.82098 0.9
v 2.29528 0.831249 0.9
v 2.31584 0.82098 0.9
v 2.31584 0.831249 0.9
v 2.3695 0.805091 0.9
v 2.34916 0.81594 0.9
v 2.3945 0.831249 0.9
v 2.52974 0.571429 0.9
v 2.52818 0.638854 0.9
v 2.54853 0.571429 0.9
v 2.49331 0.82098 0.9
v 2.49331 0.831249 0.9
v 2.52818 0.81594 0.9
v 2.54853 0.81594 0.9
v 2.58186 0.82098 0.9
v 2.58186 0.831249 0.9
v 2.26196 0.571429 1.1
v 2.31584 0.571429 1.1
v 2.31584 0.581697 1.1
v 2.34916 0.586929 1.1
v 2.3695 0.586929 1.1
v 2.40438 0.571429 1.1
v 2.40438 0.581697 1.1
v 2.26196 0.81594 1.1
v 2.29528 0.82098 1.1
v 2.29528 0.831249 1.1
v 2.31584 0.82098 1.1
v 2.31584 0.831249 1.1
v 2.3695 0.805091 1.1
v 2.34916 0.81594 1.1
v 2.3945 0.831249 1.1
v 2.52974 0.571429 1.1
v 2.52818 0.638854 1.1
v 2.54853 0.571429 1.1
v 2.49331 0.82098 1.1
v 2.49331 0.831249 1.1
v 2.52818 0.81594 1.1
v 2.54853 0.81594 1.1
v 2.58186 0.82098 1.1
v 2.58186 0.831249 1.1
v 3 0 0.9
v 2.26283 1.96384 0.9
v 2.26283 1.97411 0.9
v 2.26283 1.96384 1.1
v 2.26283 1.97411 1.1
v 3 4 0
v 1.52509 2.35752 0.9
v 1.55154 2.31623 0.9
v 1.56275 2.36312 0.9
v 1.5807 2.32659 0.9
v 1.51627 2.41262 0.9
v 1.52475 2.4715 0.9
v 1.55677 2.41301 0.9
v 1.56248 2.46639 0.9
v 1.59377 2.29044 0.9
v 1.61007 2.30422 0.9
v 1.64996 2.28184 0.9
v 1.65035 2.29676 0.9
v 1.67181 2.29809 0.9
v 1.69738 2.28489 0.9
v 1.69201 2.30209 0.9
v 1.70954 2.30831 0.9
v 1.72301 2.31633 0.9
v 1.73017 2.35508 0.9
v 1.74161 2.29405 0.9
v 1.77863 2.28571 0.9
v 1.77863 2.29598 0.9
v 1.74277 2.35508 0.9
v 1.72611 2.48179 0.9
v 1.73889 2.48179 0.9
v 1.80944 2.30121 0.9
v 1.84683 2.30121 0.9
v 1.84683 2.38763 0.9
v 1.84683 2.40507 0.9
v 1.86698 2.40507 0.9
v 1.52509 2.35752 1.1
v 1.55154 2.31623 1.1
v 1.56275 2.36312 1.1
v 1.5807 2.32659 1.1
v 1.51627 2.41262 1.1
v 1.52475 2.4715 1.1
v 1.55677 2.41301 1.1
v 1.56248 2.46639 1.1
v 1.59377 2.29044 1.1
v 1.61007 2.30422 1.1
v 1.64996 2.28184 1.1
v 1.65035 2.29676 1.1
v 1.67181 2.29809 1.1
v 1.69738 2.28489 1.1
v 1.69201 2.30209 1.1
v 1.70954 2.30831 1.1
v 1.72301 2.31633 1.1
v 1.73017 2.35508 1.1
v 1.74161 2.29405 1.1
v 1.77863 2.28571 1.1
v 1.77863 2.29598 1.1
v 1.74277 2.35508 1.1
v 1.72611 2.48179 1.1
v 1.73889 2.48179 1.1
v 1.80944 2.30121 1.1
v 1.84683 2.30121 1.1
v 1.84683 2.38763 1.1
v 1.84683 2.40507 1.1
v 1.86698 2.40507 1.1
v 1.55018 2.51405 0.9
v 1.57963 2.50368 0.9
v 1.59227 2.53984 0.9
v 1.60923 2.52563 0.9
v 1.65229 2.53294 0.9
v 1.65074 2.54844 0.9
v 1.67072 2.5318 0.9
v 1.54393 2.88504 0.9
v 1.60392 2.85714 0.9
v 1.60392 2.87563 0.9
v 1.6742 2.9864 0.9
v 1.68881 2.52839 0.9
v 1.70564 2.52289 0.9
v 1.69273 2.54597 0.9
v 1.72029 2.5155 0.9
v 1.73773 2.53856 0.9
v 1.77611 2.53527 0.9
v 1.77611 2.54553 0.9
v 1.80944 2.53023 0.9
v 1.84683 2.52809 0.9
v 1.86582 2.52809 0.9
v 1.87415 2.54553 0.9
v 1.72181 2.91207 0.9
v 1.7743 2.93073 0.9
v 1.74199 2.99647 0.9
v 1.79784 2.86564 0.9
v 1.82718 2.89045 0.9
v 1.55018 2.51405 1.1
v 1.57963 2.50368 1.1
v 1.59227 2.53984 1.1
v 1.60923 2.52563 1.1
v 1.65229 2.53294 1.1
v 1.65074 2.54844 1.1
v 1.67072 2.5318 1.1
v 1.54393 2.88504 1.1
v 1.60392 2.85714 1.1
v 1.60392 2.87563 1.1
v 1.6742 2.9864 1.1
v 1.68881 2.52839 1.1
v 1.70564 2.52289 1.1
v 1.69273 2.54597 1.1
v 1.72029 2.5155 1.1
v 1.73773 2.53856 1.1
v 1.77611 2.53527 1.1
v 1.77611 2.54553 1.1
v 1.80944 2.53023 1.1
v 1.84683 2.52809 1.1
v 1.86582 2.52809 1.1
v 1.87415 2.54553 1.1
v 1.72181 2.91207 1.1
v 1.7743 2.93073 1.1
v 1.74199 2.99647 1.1
v 1.79784 2.86564 1.1
v 1.82718 2.89045 1.1
v 1.8881 2.28571 0.9
v 1.8881 2.29598 0.9
v 1.87609 2.38763 0.9
v 1.89544 2.4088 0.9
v 1.91597 2.39281 0.9
v 1.91532 2.41998 0.9
v 1.94535 2.40836 0.9
v 1.96344 2.43388 0.9
v 1.92702 2.4396 0.9
v 1.93092 2.46861 0.9
v 1.92719 2.49603 0.9
v 1.99681 2.28571 0.9
v 1.99681 2.29598 0.9
v 2.03013 2.30121 0.9
v 2.05047 2.30121 0.9
v 1.96947 2.469 0.9
v 2.08535 2.28571 0.9
v 2.08535 2.29598 0.9
v 2.21071 2.28571 0.9
v 2.2295 2.28571 0.9
v 2.20915 2.35314 0.9
v 1.8881 2.28571 1.1
v 1.8881 2.29598 1.1
v 1.87609 2.38763 1.1
v 1.89544 2.4088 1.1
v 1.91597 2.39281 1.1
v 1.91532 2.41998 1.1
v 1.94535 2.40836 1.1
v 1.96344 2.43388 1.1
v 1.92702 2.4396 1.1
v 1.93092 2.46861 1.1
v 1.92719 2.49603 1.1
v 1.99681 2.28571 1.1
v 1.99681 2.29598 1.1
v 2.03013 2.30121 1.1
v 2.05047 2.30121 1.1
v 1.96947 2.469 1.1
v 2.08535 2.28571 1.1
v 2.08535 2.29598 1.1
v 2.21071 2.28571 1.1
v 2.2295 2.28571 1.1
v 2.20915 2.35314 1.1
v 1.89599 2.52466 0.9
v 1.916 2.51434 0.9
v 1.94564 2.5264 0.9
v 1.99681 2.53527 0.9
v 1.99681 2.54553 0.9
v 2.03013 2.53023 0.9
v 2.05047 2.51938 0.9
v 1.89898 2.85017 0.9
v 1.89967 2.87702 0.9
v 1.9383 2.87942 0.9
v 1.98433 2.85566 0.9
v 1.97465 2.88661 0.9
v 2.00621 2.89782 0.9
v 2.03045 2.91224 0.9
v 2.04336 2.982 0.9
v 2.07547 2.54553 0.9
v 2.17428 2.53527 0.9
v 2.17428 2.54553 0.9
v 2.20915 2.53023 0.9
v 2.2295 2.53023 0.9
v 2.06393 2.87214 0.9
v 2.14348 2.86517 0.9
v 2.06603 2.982 0.9
v 2.13965 2.96351 0.9
v 2.20451 2.85392 0.9
v 2.17836 2.89795 0.9
v 2.19479 2.8908 0.9
v 2.16266 2.96351 0.9
v 2.21689 2.88469 0.9
v 2.241 2.88051 0.9
v 1.89599 2.52466 1.1
v 1.916 2.51434 1.1
v 1.94564 2.5264 1.1
v 1.99681 2.53527 1.1
v 1.99681 2.54553 1.1
v 2.03013 2.53023 1.1
v 2.05047 2.51938 1.1
v 1.89898 2.85017 1.1
v 1.89967 2.87702 1.1
v 1.9383 2.87942 1.1
v 1.98433 2.85566 1.1
v 1.97465 2.88661 1.1
v 2.00621 2.89782 1.1
v 2.03045 2.91224 1.1
v 2.04336 2.982 1.1
v 2.07547 2.54553 1.1
v 2.17428 2.53527 1.1
v 2.17428 2.54553 1.1
v 2.20915 2.53023 1.1
v 2.2295 2.53023 1.1
v 2.06393 2.87214 1.1
v 2.14348 2.86517 1.1
v 2.06603 2.982 1.1
v 2.13965 2.96351 1.1
v 2.20451 2.85392 1.1
v 2.17836 2.89795 1.1
v 2.19479 2.8908 1.1
v 2.16266 2.96351 1.1
v 2.21689 2.88469 1.1
v 2.241 2.88051 1.1
v 1.65834 3.08557 0.9
v 1.67359 3.19155 0.9
v 1.54393 3.29726 0.9
v 1.60392 3.30634 0.9
v 1.60392 3.32482 0.9
v 1.73123 3.08627 0.9
v 1.74151 3.18235 0.9
v 1.77238 3.24949 0.9
v 1.71937 3.26814 0.9
v 1.82565 3.28898 0.9
v 1.79513 3.31457 0.9
v 1.65834 3.08557 1.1
v 1.67359 3.19155 1.1
v 1.54393 3.29726 1.1
v 1.60392 3.30634 1.1
v 1.60392 3.32482 1.1
v 1.73123 3.08627 1.1
v 1.74151 3.18235 1.1
v 1.77238 3.24949 1.1
v 1.71937 3.26814 1.1
v 1.82565 3.28898 1.1
v 1.79513 3.31457 1.1
v 2.03603 3.21008 0.9
v 2.05905 3.21008 0.9
v 1.90316 3.30215 0.9
v 1.90037 3.33005 0.9
v 1.93634 3.3001 0.9
v 1.9689 3.29395 0.9
v 1.9992 3.28406 0.9
v 1.97596 3.3256 0.9
v 2.02557 3.27076 0.9
v 2.05696 3.31226 0.9
v 2.15394 3.22507 0.9
v 2.22195 3.08697 0.9
v 2.22195 3.11557 0.9
v 2.17696 3.22507 0.9
v 2.15394 3.31505 0.9
v 2.18917 3.28227 0.9
v 2.18611 3.32259 0.9
v 2.20573 3.28981 0.9
v 2.22474 3.29569 0.9
v 2.24453 3.29949 0.9
v 2.21357 3.32708 0.9
v 2.2386 3.32931 0.9
v 2.03603 3.21008 1.1
v 2.05905 3.21008 1.1
v 1.90316 3.30215 1.1
v 1.90037 3.33005 1.1
v 1.93634 3.3001 1.1
v 1.9689 3.29395 1.1
v 1.9992 3.28406 1.1
v 1.97596 3.3256 1.1
v 2.02557 3.27076 1.1
v 2.05696 3.31226 1.1
v 2.15394 3.22507 1.1
v 2.22195 3.08697 1.1
v 2.22195 3.11557 1.1
v 2.17696 3.22507 1.1
v 2.15394 3.31505 1.1
v 2.18917 3.28227 1.1
v 2.18611 3.32259 1.1
v 2.20573 3.28981 1.1
v 2.22474 3.29569 1.1
v 2.24453 3.29949 1.1
v 2.21357 3.32708 1.1
v 2.2386 3.32931 1.1
v 2.26283 2.53527 0.9
v 2.26283 2.54553 0.9
v 2.26903 2.85017 0.9
v 2.33922 2.85906 0.9
v 2.26345 2.87911 0.9
v 2.31106 2.88539 0.9
v 2.34436 2.90422 0.9
v 2.36398 2.9377 0.9
v 2.37052 2.98793 0.9
v 2.39144 2.88574 0.9
v 2.42387 2.9282 0.9
v 2.43469 2.98444 0.9
v 2.494 2.85714 0.9
v 2.494 2.90841 0.9
v 2.53969 2.91085 0.9
v 2.55887 2.96735 0.9
v 2.5736 2.94128 0.9
v 2.6056 2.96909 0.9
v 2.26283 2.53527 1.1
v 2.26283 2.54553 1.1
v 2.26903 2.85017 1.1
v 2.33922 2.85906 1.1
v 2.26345 2.87911 1.1
v 2.31106 2.88539 1.1
v 2.34436 2.90422 1.1
v 2.36398 2.9377 1.1
v 2.37052 2.98793 1.1
v 2.39144 2.88574 1.1
v 2.42387 2.9282 1.1
v 2.43469 2.98444 1.1
v 2.494 2.85714 1.1
v 2.494 2.90841 1.1
v 2.53969 2.91085 1.1
v 2.55887 2.96735 1.1
v 2.5736 2.94128 1.1
v 2.6056 2.96909 1.1
v 2.78032 2.85714 0.9
v 2.78032 2.91085 0.9
v 2.78032 2.85714 1.1
v 2.78032 2.91085 1.1
v 2.27182 3.08418 0.9
v 2.27182 3.1187 0.9
v 2.31576 3.07638 0.9
v 2.31123 3.10196 0.9
v 2.30608 3.12585 0.9
v 2.33006 3.14312 0.9
v 2.3645 3.02842 0.9
v 2.34645 3.05785 0.9
v 2.36633 3.08919 0.9
v 2.35452 3.11439 0.9
v 2.42719 3.03069 0.9
v 2.40469 3.06552 0.9
v 2.34418 3.17119 0.9
v 2.38673 3.13771 0.9
v 2.34889 3.21078 0.9
v 2.40674 3.17141 0.9
v 2.41341 3.21496 0.9
v 2.26345 3.30076 0.9
v 2.26345 3.33005 0.9
v 2.30203 3.29539 0.9
v 2.32849 3.2793 0.9
v 2.34379 3.25145 0.9
v 2.37592 3.30128 0.9
v 2.50969 3.22507 0.9
v 2.61301 3.01687 0.9
v 2.53271 3.22507 0.9
v 2.50969 3.31505 0.9
v 2.54492 3.28227 0.9
v 2.56105 3.28981 0.9
v 2.56837 3.3263 0.9
v 2.57944 3.29569 0.9
v 2.59871 3.29949 0.9
v 2.61746 3.30076 0.9
v 2.61746 3.33005 0.9
v 2.27182 3.08418 1.1
v 2.27182 3.1187 1.1
v 2.31576 3.07638 1.1
v 2.31123 3.10196 1.1
v 2.30608 3.12585 1.1
v 2.33006 3.14312 1.1
v 2.3645 3.02842 1.1
v 2.34645 3.05785 1.1
v 2.36633 3.08919 1.1
v 2.35452 3.11439 1.1
v 2.42719 3.03069 1.1
v 2.40469 3.06552 1.1
v 2.34418 3.17119 1.1
v 2.38673 3.13771 1.1
v 2.34889 3.21078 1.1
v 2.40674 3.17141 1.1
v 2.41341 3.21496 1.1
v 2.26345 3.30076 1.1
v 2.26345 3.33005 1.1
v 2.30203 3.29539 1.1
v 2.32849 3.2793 1.1
v 2.34379 3.25145 1.1
v 2.37592 3.30128 1.1
v 2.50969 3.22507 1.1
v 2.61301 3.01687 1.1
v 2.53271 3.22507 1.1
v 2.50969 3.31505 1.1
v 2.54492 3.28227 1.1
v 2.56105 3.28981 1.1
v 2.56837 3.3263 1.1
v 2.57944 3.29569 1.1
v 2.59871 3.29949 1.1
v 2.61746 3.30076 1.1
v 2.61746 3.33005 1.1
v 2.66785 3.02398 0.9
v 2.65059 3.05593 0.9
v 2.67574 3.09028 0.9
v 2.70953 3.06517 0.9
v 2.69261 3.12568 0.9
v 2.70216 3.16422 0.9
v 2.70534 3.20798 0.9
v 2.7002 3.24792 0.9
v 2.73686 3.09961 0.9
v 2.75608 3.13422 0.9
v 2.76746 3.17001 0.9
v 2.77126 3.20798 0.9
v 2.65765 3.29483 0.9
v 2.68477 3.27704 0.9
v 2.68464 3.32207 0.9
v 2.73272 3.29814 0.9
v 2.76162 3.25964 0.9
v 2.66785 3.02398 1.1
v 2.65059 3.05593 1.1
v 2.67574 3.09028 1.1
v 2.70953 3.06517 1.1
v 2.69261 3.12568 1.1
v 2.70216 3.16422 1.1
v 2.70534 3.20798 1.1
v 2.7002 3.24792 1.1
v 2.73686 3.09961 1.1
v 2.75608 3.13422 1.1
v 2.76746 3.17001 1.1
v 2.77126 3.20798 1.1
v 2.65765 3.29483 1.1
v 2.68477 3.27704 1.1
v 2.68464 3.32207 1.1
v 2.73272 3.29814 1.1
v 2.76162 3.25964 1.1
v 3 4 0.9
f  2 4 7
f  2 3 4
f  2 14 3
f  2 7 8
f  2 53 14
f  2 58 53
f  2 68 58
f  9 7 4
f  5 6 4
f  9 4 6
f  10 17 11
f  11 19 12
f  13 15 26
f  13 26 16
f  14 56 15
f  54 14 53
f  55 14 54
f  26 15 56
f  17 20 11
f  19 11 18
f  20 18 11
f  16 26 21
f  21 26 22
f  22 25 23
f  25 22 24
f  26 24 22
f  1 2 422
f  2 8 384
f  2 384 385
f  12 157 8
f  12 19 158
f  23 158 19
f  165 8 157
f  51 8 165
f  157 12 158
f  8 51 384
f  1 1077 2
f  55 56 14
f  57 59 76
f  57 76 60
f  61 63 62
f  63 66 64
f  23 25 150
f  61 67 63
f  66 63 65
f  67 65 63
f  60 72 71
f  64 150 25
f  58 68 59
f  76 59 68
f  60 74 72
f  60 76 74
f  72 75 73
f  75 72 74
f  64 66 149
f  73 149 66
f  70 78 77
f  70 111 78
f  78 111 79
f  73 75 263
f  79 263 75
f  2 1077 68
f  107 69 108
f  79 111 263
f  112 263 111
f  110 113 112
f  114 112 113
f  110 115 113
f  112 114 263
f  109 120 119
f  109 121 120
f  109 124 121
f  124 109 116
f  120 123 122
f  123 120 121
f  122 797 114
f  118 126 125
f  118 705 126
f  126 705 127
f  122 123 797
f  127 797 123
f  23 151 158
f  64 149 150
f  23 150 266
f  23 266 151
f  73 261 149
f  166 192 167
f  167 192 170
f  159 192 168
f  161 192 159
f  168 192 166
f  162 193 161
f  164 193 162
f  161 193 192
f  170 192 172
f  172 192 174
f  174 192 175
f  175 192 177
f  177 192 178
f  178 194 179
f  158 152 160
f  160 152 163
f  152 158 151
f  163 152 183
f  185 183 184
f  183 185 186
f  152 184 183
f  184 152 188
f  181 193 164
f  182 193 181
f  182 190 193
f  191 196 190
f  183 186 203
f  183 203 191
f  194 178 192
f  190 196 193
f  193 196 195
f  203 196 191
f  197 195 196
f  187 189 198
f  198 189 201
f  201 189 327
f  200 202 199
f  202 328 199
f  328 329 199
f  205 204 199
f  206 205 199
f  333 334 199
f  334 206 199
f  73 264 261
f  73 263 264
f  259 266 150
f  263 114 274
f  260 262 264
f  261 264 262
f  260 264 272
f  265 272 264
f  260 268 267
f  260 270 268
f  260 272 270
f  268 271 269
f  271 268 270
f  114 276 274
f  276 114 280
f  273 275 277
f  274 277 275
f  277 274 276
f  273 277 287
f  278 287 277
f  114 797 280
f  279 281 798
f  280 798 281
f  273 283 282
f  273 285 283
f  273 287 285
f  283 286 284
f  286 283 285
f  279 289 288
f  279 806 289
f  289 807 290
f  269 188 152
f  269 323 188
f  188 324 189
f  324 188 323
f  323 269 342
f  189 324 327
f  329 332 199
f  327 324 330
f  330 325 331
f  331 325 335
f  332 333 199
f  335 337 336
f  338 336 337
f  325 330 324
f  325 339 335
f  343 340 326
f  337 335 339
f  269 271 867
f  269 344 342
f  284 867 271
f  344 269 345
f  342 344 343
f  269 867 345
f  284 286 861
f  290 861 286
f  284 861 867
f  340 343 344
f  348 346 341
f  347 341 346
f  345 867 868
f  345 868 872
f  345 872 350
f  348 349 346
f  351 350 872
f  1 422 383
f  1 383 1082
f  383 422 1082
f  2 385 412
f  2 412 413
f  2 413 422
f  169 384 51
f  171 384 169
f  171 462 384
f  384 396 387
f  469 398 387
f  387 398 389
f  415 389 398
f  396 384 462
f  469 387 396
f  398 469 399
f  526 399 469
f  529 399 526
f  399 540 401
f  530 399 529
f  402 399 401
f  399 402 431
f  386 414 385
f  414 412 385
f  389 415 388
f  422 413 416
f  422 424 444
f  422 444 445
f  422 416 427
f  422 427 424
f  422 445 446
f  422 446 447
f  422 447 448
f  422 448 449
f  427 416 400
f  427 423 424
f  427 425 423
f  427 426 425
f  403 431 402
f  427 432 426
f  426 432 428
f  428 432 429
f  429 432 647
f  429 647 430
f  422 449 450
f  173 463 171
f  176 465 173
f  171 463 462
f  173 465 463
f  180 465 176
f  195 465 180
f  195 197 465
f  197 471 465
f  197 474 471
f  464 483 468
f  468 483 470
f  466 483 467
f  472 483 466
f  473 484 472
f  475 484 473
f  467 483 464
f  470 483 527
f  472 484 483
f  197 477 474
f  197 481 477
f  207 481 197
f  207 487 481
f  476 484 475
f  478 484 476
f  482 477 481
f  477 482 485
f  478 479 484
f  480 540 479
f  479 540 484
f  477 542 480
f  477 485 542
f  542 540 480
f  486 488 489
f  489 488 492
f  492 488 574
f  491 493 490
f  493 575 490
f  575 576 490
f  544 543 490
f  577 544 490
f  535 399 530
f  539 399 535
f  399 539 540
f  527 483 528
f  528 483 531
f  531 483 532
f  532 483 533
f  533 538 534
f  541 401 540
f  401 541 536
f  536 541 537
f  433 537 546
f  538 533 483
f  484 540 539
f  546 537 541
f  544 578 545
f  433 546 609
f  433 609 547
f  336 487 207
f  336 338 487
f  341 487 338
f  341 347 487
f  347 582 487
f  487 583 488
f  488 583 574
f  583 487 582
f  574 583 579
f  577 490 576
f  544 577 578
f  579 584 580
f  580 612 581
f  584 579 583
f  587 613 585
f  580 584 612
f  582 347 352
f  582 875 586
f  582 352 875
f  586 875 876
f  586 879 588
f  586 588 587
f  613 587 588
f  589 618 614
f  590 1083 1087
f  589 620 618
f  590 1087 1088
f  590 1088 622
f  590 622 621
f  545 578 608
f  581 610 609
f  611 609 610
f  609 611 547
f  614 547 611
f  610 581 612
f  614 619 547
f  547 1141 615
f  623 547 619
f  616 617 656
f  656 617 658
f  615 625 617
f  658 617 662
f  617 625 662
f  619 614 618
f  547 623 1141
f  615 1141 1143
f  615 1143 1146
f  615 1157 624
f  625 615 624
f  433 404 537
f  433 547 548
f  433 548 646
f  430 647 649
f  646 649 647
f  646 548 648
f  549 650 548
f  650 648 548
f  649 646 648
f  659 660 657
f  660 661 657
f  667 666 657
f  669 667 657
f  670 669 657
f  661 663 657
f  663 664 657
f  664 665 657
f  665 670 657
f  662 625 671
f  677 671 625
f  671 677 672
f  672 677 673
f  626 677 625
f  673 675 674
f  676 674 675
f  675 673 677
f  422 450 1505
f  1505 451 430
f  1505 452 451
f  1505 450 452
f  1 700 1077
f  1 1082 700
f  700 1082 1077
f  1077 69 68
f  1077 108 69
f  1077 109 108
f  117 702 701
f  703 717 716
f  704 707 706
f  708 706 707
f  704 709 707
f  127 705 818
f  706 818 705
f  706 708 818
f  711 703 710
f  703 711 721
f  703 719 717
f  703 721 719
f  712 721 711
f  714 747 715
f  715 722 713
f  722 715 747
f  717 720 718
f  720 717 719
f  718 818 708
f  718 720 818
f  723 818 720
f  723 753 955
f  1077 116 109
f  1077 117 116
f  1077 702 117
f  1077 703 702
f  1077 710 703
f  1077 714 710
f  751 749 750
f  749 756 755
f  749 758 756
f  749 751 767
f  760 767 751
f  749 767 758
f  748 752 723
f  753 723 752
f  748 754 752
f  757 955 753
f  756 759 757
f  759 756 758
f  757 759 956
f  768 956 759
f  763 766 761
f  766 763 764
f  762 764 763
f  956 768 770
f  1038 956 770
f  765 769 768
f  770 768 769
f  765 771 769
f  127 801 797
f  127 803 801
f  280 797 798
f  279 798 808
f  799 808 798
f  127 816 803
f  127 818 816
f  800 802 804
f  801 804 802
f  804 801 803
f  800 804 814
f  805 814 804
f  279 808 806
f  289 806 807
f  800 810 809
f  800 812 810
f  800 814 812
f  810 813 811
f  813 810 812
f  815 817 819
f  816 819 817
f  819 816 818
f  815 819 827
f  818 723 955
f  820 827 819
f  956 828 821
f  815 823 822
f  815 825 823
f  815 827 825
f  823 826 824
f  826 823 825
f  290 807 862
f  290 862 861
f  811 862 807
f  811 813 864
f  862 811 864
f  824 864 813
f  863 865 870
f  869 865 871
f  351 872 875
f  875 352 351
f  869 870 865
f  866 871 865
f  871 866 882
f  871 883 873
f  873 890 874
f  871 882 883
f  873 883 884
f  873 884 890
f  874 890 877
f  877 891 878
f  824 881 864
f  881 824 826
f  885 887 891
f  887 885 886
f  881 826 958
f  891 877 890
f  892 891 897
f  891 887 899
f  878 891 880
f  880 891 893
f  896 893 891
f  896 891 892
f  896 894 893
f  891 899 897
f  897 899 898
f  888 904 887
f  889 964 901
f  901 964 969
f  903 970 902
f  904 899 887
f  906 905 902
f  976 906 902
f  757 956 955
f  828 956 1038
f  1043 957 828
f  1043 958 957
f  1043 885 881
f  881 958 1043
f  885 1052 886
f  828 1038 1040
f  828 1040 1043
f  885 1043 1048
f  886 1052 963
f  963 1052 965
f  965 1052 986
f  963 966 964
f  966 963 965
f  969 964 971
f  970 972 902
f  972 973 902
f  973 978 902
f  964 966 971
f  971 966 974
f  979 977 902
f  977 976 902
f  978 979 902
f  967 974 966
f  974 967 975
f  975 967 981
f  967 984 981
f  987 985 968
f  981 982 980
f  983 980 982
f  982 981 984
f  986 988 987
f  985 987 988
f  991 992 990
f  993 990 992
f  991 994 992
f  989 1078 995
f  1077 747 714
f  1077 749 747
f  1077 750 749
f  1077 762 750
f  1077 764 762
f  1077 1029 764
f  1077 1030 1029
f  1077 1034 1030
f  1031 1029 1030
f  1029 1037 1036
f  1029 1039 1037
f  1029 1031 1042
f  1032 1042 1031
f  1029 1042 1039
f  1035 1041 1033
f  1041 1035 1044
f  1037 1040 1038
f  1040 1037 1039
f  1034 1044 1035
f  1046 1051 1050
f  1045 1047 1043
f  1048 1043 1047
f  1045 1049 1047
f  1077 1079 1052
f  1077 1044 1034
f  1077 1046 1044
f  1077 1051 1046
f  1077 1052 1051
f  1052 885 1048
f  986 1052 988
f  988 1052 989
f  989 1052 1078
f  1078 1052 1079
f  1077 1399 1079
f  1077 1400 1399
f  586 876 879
f  588 879 590
f  590 898 1084
f  590 879 895
f  590 895 898
f  899 1091 1084
f  900 1093 1091
f  590 1084 1083
f  1092 1105 1086
f  1094 1105 1092
f  1095 1106 1094
f  1085 1105 1089
f  1086 1105 1085
f  1089 1105 1090
f  1090 1105 1142
f  898 899 1084
f  900 1091 899
f  900 1096 1093
f  900 1101 1096
f  900 1102 1101
f  907 1102 900
f  907 1195 1102
f  1097 1106 1095
f  1098 1106 1097
f  1099 1106 1098
f  1103 1101 1102
f  1101 1103 1107
f  1094 1106 1105
f  1099 1100 1106
f  1104 1157 1100
f  1101 1159 1104
f  1100 1157 1106
f  1159 1157 1104
f  1108 1196 1109
f  1109 1196 1197
f  1101 1107 1159
f  1111 1198 1110
f  1161 1160 1110
f  1237 1161 1110
f  622 1088 1141
f  622 1141 623
f  615 1146 1154
f  615 1154 1156
f  615 1156 1157
f  1142 1105 1144
f  1144 1105 1145
f  1145 1105 1147
f  624 1157 1158
f  1158 1149 624
f  1150 1297 1148
f  1149 1163 1150
f  1151 1150 1163
f  1150 1151 1297
f  1147 1105 1152
f  1155 1153 1152
f  1155 1152 1105
f  1106 1157 1156
f  1158 1166 1149
f  1163 1149 1166
f  1166 1158 1244
f  980 1195 907
f  980 983 1195
f  983 1206 1195
f  990 1206 983
f  990 1211 1206
f  1197 1196 1199
f  1195 1207 1196
f  1207 1195 1206
f  1196 1207 1199
f  1199 1207 1201
f  1198 1200 1110
f  1200 1203 1110
f  1238 1237 1110
f  1205 1238 1110
f  1203 1204 1110
f  1204 1205 1110
f  1208 1201 1207
f  1212 1243 1209
f  1201 1208 1202
f  1202 1208 1210
f  1208 1242 1210
f  990 993 1211
f  993 1213 1211
f  993 1214 1213
f  1211 1213 1212
f  1243 1212 1213
f  1215 1253 1252
f  1215 1255 1253
f  1214 1363 1256
f  1162 1258 1158
f  1210 1240 1239
f  1241 1239 1240
f  1240 1210 1242
f  1239 1258 1162
f  1239 1241 1258
f  1244 1158 1247
f  1247 1158 1257
f  1245 1319 1167
f  1246 1320 1245
f  1258 1257 1158
f  1248 1320 1246
f  1249 1320 1248
f  1254 1252 1253
f  1252 1258 1241
f  1258 1252 1254
f  1364 1261 1254
f  1364 1365 1261
f  1257 1260 1259
f  1257 1258 1260
f  1264 1259 1260
f  1258 1254 1261
f  1262 1263 1265
f  1262 1266 1264
f  1259 1264 1371
f  1262 1265 1266
f  1367 1264 1266
f  1368 1264 1367
f  422 1505 1082
f  1148 1300 1299
f  1148 1297 1298
f  1148 1298 1300
f  1300 1305 1301
f  1305 1300 1298
f  1164 1319 1165
f  1165 1319 1302
f  1302 1319 1303
f  1303 1319 1304
f  1307 1301 1305
f  1322 1301 1307
f  1505 430 649
f  1505 649 668
f  1505 668 674
f  1167 1319 1164
f  1304 1319 1306
f  1245 1320 1319
f  1250 1320 1249
f  1250 1251 1320
f  1259 1320 1251
f  1306 1319 1321
f  1321 1319 1323
f  1323 1319 1324
f  1327 1324 1319
f  1324 1327 1325
f  1259 1330 1320
f  1320 1331 1329
f  1330 1259 1403
f  1403 1259 1405
f  1405 1259 1410
f  1331 1320 1330
f  1329 1331 1332
f  1404 1332 1331
f  1320 1333 1328
f  1333 1320 1329
f  1332 1336 1334
f  1336 1332 1337
f  1337 1332 1338
f  1338 1332 1420
f  1420 1332 1422
f  1505 674 676
f  1505 676 1301
f  1505 1301 1322
f  1077 1082 1505
f  1079 1399 993
f  993 1399 1214
f  1214 1399 1363
f  1363 1399 1364
f  1365 1364 1366
f  1366 1364 1372
f  1369 1264 1368
f  1370 1264 1369
f  1409 1259 1371
f  1371 1264 1370
f  1364 1375 1372
f  1372 1376 1373
f  1375 1364 1399
f  1376 1372 1375
f  1373 1378 1374
f  1373 1376 1378
f  1427 1374 1378
f  1077 1505 1400
f  1377 1400 1379
f  1379 1400 1380
f  1380 1400 1471
f  1471 1400 1474
f  1410 1259 1409
f  1407 1332 1404
f  1408 1332 1407
f  1415 1332 1408
f  1417 1332 1415
f  1424 1332 1417
f  1406 1411 1412
f  1412 1411 1414
f  1412 1414 1416
f  1422 1332 1423
f  1423 1332 1424
f  1419 1429 1425
f  1416 1414 1472
f  1416 1472 1418
f  1374 1427 1413
f  1413 1472 1414
f  1418 1426 1419
f  1426 1418 1428
f  1413 1427 1472
f  1473 1418 1472
f  1418 1476 1428
f  1475 1418 1473
f  1476 1418 1475
f  1429 1419 1426
f  1428 1431 1430
f  1431 1428 1433
f  1433 1428 1434
f  1434 1428 1435
f  1435 1428 1483
f  1505 1322 1326
f  1505 1326 1328
f  1505 1328 1333
f  1505 1333 1335
f  1505 1335 1339
f  1505 1339 1340
f  1505 1340 1421
f  1505 1421 1425
f  1477 1428 1476
f  1478 1428 1477
f  1474 1400 1479
f  1479 1400 1480
f  1480 1400 1481
f  1481 1400 1482
f  1483 1428 1484
f  1484 1428 1478
f  1505 1482 1400
f  1505 1487 1482
f  1505 1425 1429
f  1505 1429 1432
f  1505 1432 1436
f  1505 1436 1485
f  1505 1485 1486
f  1505 1486 1487
f  27 4 3
f  28 5 4
f  29 6 5
f  30 9 6
f  27 28 4
f  28 29 5
f  27 3 38
f  27 29 28
f  27 38 29
f  29 37 30
f  29 30 6
f  34 41 17
f  37 40 30
f  30 40 41
f  34 30 41
f  31 8 7
f  33 7 9
f  32 12 8
f  34 17 10
f  35 10 11
f  36 11 12
f  31 32 8
f  31 7 33
f  31 33 32
f  32 33 34
f  33 9 30
f  32 36 12
f  34 10 35
f  35 11 36
f  33 30 34
f  32 34 36
f  34 35 36
f  38 3 14
f  37 15 13
f  39 14 15
f  40 13 16
f  41 20 17
f  37 13 40
f  37 39 15
f  38 14 39
f  29 38 37
f  37 38 39
f  40 16 45
f  41 40 44
f  42 19 18
f  45 16 21
f  44 18 20
f  43 23 19
f  46 21 22
f  47 22 23
f  48 25 24
f  50 24 26
f  49 64 25
f  42 43 19
f  41 44 20
f  42 18 44
f  40 45 44
f  42 44 43
f  43 44 45
f  43 45 47
f  45 21 46
f  43 47 23
f  46 22 47
f  48 49 25
f  48 24 50
f  45 46 47
f  48 50 49
f  49 50 89
f  52 169 51
f  216 52 51
f  52 220 169
f  80 54 53
f  81 55 54
f  82 56 55
f  83 26 56
f  85 53 58
f  84 59 57
f  86 58 59
f  87 57 60
f  88 67 61
f  80 81 54
f  81 82 55
f  80 53 85
f  80 82 81
f  80 85 82
f  82 84 83
f  82 83 56
f  89 88 61
f  83 87 88
f  83 88 89
f  84 57 87
f  84 86 59
f  85 58 86
f  82 85 84
f  84 85 86
f  87 60 98
f  83 84 87
f  87 94 88
f  89 61 62
f  90 62 63
f  91 63 64
f  92 66 65
f  98 60 71
f  94 65 67
f  93 73 66
f  83 50 26
f  49 91 64
f  89 62 90
f  90 63 91
f  83 89 50
f  49 89 91
f  89 90 91
f  92 93 66
f  88 94 67
f  92 65 94
f  87 98 94
f  92 94 93
f  93 94 98
f  93 98 100
f  96 68 69
f  95 76 68
f  95 68 96
f  103 76 95
f  96 69 128
f  97 70 104
f  103 95 96
f  103 96 97
f  99 71 72
f  100 72 73
f  101 75 74
f  103 74 76
f  102 79 75
f  104 70 77
f  105 77 78
f  106 78 79
f  93 100 73
f  98 71 99
f  99 72 100
f  101 102 75
f  101 74 103
f  98 99 100
f  101 103 102
f  102 103 104
f  102 106 79
f  104 77 105
f  105 78 106
f  103 97 104
f  102 104 106
f  104 105 106
f  128 69 107
f  97 111 70
f  129 107 108
f  130 108 109
f  131 115 110
f  140 109 119
f  129 128 107
f  96 128 97
f  97 128 132
f  128 131 132
f  129 108 130
f  131 110 133
f  130 109 140
f  129 131 128
f  129 130 140
f  129 140 131
f  133 110 112
f  132 112 111
f  134 114 113
f  136 113 115
f  135 122 114
f  97 132 111
f  132 133 112
f  131 133 132
f  131 136 115
f  134 135 114
f  134 113 136
f  131 140 136
f  134 136 135
f  135 136 140
f  138 116 117
f  137 124 116
f  137 116 138
f  137 145 124
f  138 117 724
f  139 118 146
f  137 138 145
f  138 139 145
f  141 119 120
f  143 120 122
f  142 123 121
f  145 121 124
f  144 127 123
f  146 118 125
f  147 125 126
f  148 126 127
f  135 143 122
f  140 119 141
f  141 120 143
f  142 144 123
f  142 121 145
f  135 140 143
f  140 141 143
f  142 145 144
f  144 145 146
f  144 148 127
f  146 125 147
f  147 126 148
f  139 146 145
f  144 146 148
f  146 147 148
f  153 150 149
f  153 154 150
f  155 152 151
f  155 156 152
f  209 157 158
f  219 159 168
f  211 158 160
f  210 161 159
f  212 162 161
f  214 160 163
f  213 164 162
f  215 181 164
f  208 157 209
f  209 158 211
f  219 210 159
f  208 209 219
f  209 210 219
f  210 212 161
f  211 160 214
f  212 213 162
f  213 215 164
f  215 232 181
f  209 211 210
f  210 211 212
f  211 213 212
f  211 214 213
f  213 214 215
f  214 232 215
f  208 165 157
f  216 51 165
f  217 168 166
f  218 166 167
f  220 171 169
f  221 167 170
f  222 173 171
f  223 170 172
f  225 172 174
f  224 176 173
f  226 174 175
f  228 175 177
f  229 177 178
f  227 180 176
f  230 178 179
f  231 195 180
f  216 165 208
f  217 166 218
f  218 167 221
f  217 219 168
f  216 208 217
f  208 219 217
f  216 217 218
f  216 218 52
f  52 218 220
f  220 222 171
f  221 170 223
f  222 224 173
f  223 172 225
f  218 221 220
f  221 222 220
f  221 223 222
f  222 223 224
f  223 225 224
f  225 174 226
f  224 227 176
f  226 175 228
f  228 177 229
f  227 231 180
f  229 178 230
f  224 225 227
f  225 226 227
f  226 228 227
f  228 229 231
f  227 228 231
f  229 230 231
f  232 182 181
f  234 163 183
f  235 185 184
f  236 186 185
f  239 184 188
f  238 189 187
f  240 188 189
f  214 163 234
f  232 233 182
f  234 183 242
f  235 236 185
f  236 237 186
f  214 234 232
f  232 234 233
f  235 237 236
f  235 184 239
f  239 188 240
f  238 240 189
f  235 238 237
f  235 239 238
f  238 239 240
f  233 190 182
f  242 183 191
f  241 191 190
f  243 194 192
f  244 192 193
f  245 179 194
f  246 193 195
f  247 197 196
f  254 196 203
f  237 203 186
f  249 187 198
f  250 200 199
f  252 198 201
f  251 202 200
f  255 199 204
f  248 207 197
f  256 204 205
f  257 205 206
f  233 241 190
f  241 242 191
f  233 242 241
f  233 234 242
f  243 192 244
f  243 245 194
f  246 244 193
f  245 230 179
f  231 246 195
f  247 248 197
f  247 196 254
f  243 244 245
f  231 230 246
f  245 244 246
f  245 246 230
f  247 254 248
f  238 187 249
f  250 199 255
f  249 198 252
f  250 251 200
f  252 201 357
f  251 253 202
f  237 238 249
f  237 249 250
f  237 250 254
f  249 251 250
f  249 252 251
f  252 253 251
f  252 357 253
f  237 254 203
f  248 258 207
f  255 204 256
f  256 205 257
f  250 255 254
f  248 254 258
f  254 255 258
f  255 256 258
f  256 257 258
f  154 259 150
f  291 266 259
f  293 149 261
f  292 262 260
f  294 261 262
f  295 264 263
f  296 265 264
f  297 272 265
f  154 291 259
f  153 149 293
f  292 294 262
f  292 260 299
f  153 291 154
f  153 293 291
f  291 292 298
f  291 293 292
f  292 293 294
f  293 261 294
f  295 296 264
f  295 263 306
f  296 297 265
f  295 297 296
f  295 306 297
f  297 305 304
f  299 260 267
f  298 151 266
f  156 269 152
f  300 267 268
f  301 268 269
f  302 271 270
f  304 270 272
f  303 284 271
f  291 298 266
f  292 299 298
f  155 151 298
f  156 301 269
f  299 267 300
f  155 298 156
f  156 298 299
f  156 299 301
f  299 300 301
f  297 304 272
f  305 314 304
f  300 268 301
f  302 303 271
f  302 270 304
f  302 304 303
f  303 304 314
f  303 314 316
f  306 263 274
f  305 275 273
f  307 274 275
f  308 277 276
f  309 278 277
f  312 276 280
f  310 287 278
f  311 281 279
f  313 280 281
f  305 307 275
f  306 274 307
f  305 273 314
f  308 309 277
f  309 310 278
f  297 306 305
f  305 306 307
f  308 310 309
f  308 276 312
f  311 279 320
f  311 313 281
f  312 280 313
f  308 312 310
f  310 312 311
f  310 311 319
f  311 312 313
f  314 273 282
f  315 282 283
f  316 283 284
f  317 286 285
f  319 285 287
f  320 279 288
f  318 290 286
f  321 288 289
f  322 289 290
f  303 316 284
f  314 282 315
f  315 283 316
f  317 318 286
f  317 285 319
f  314 315 316
f  317 319 318
f  310 319 287
f  311 320 319
f  318 322 290
f  320 288 321
f  321 289 322
f  318 319 320
f  318 320 322
f  320 321 322
f  353 324 323
f  354 325 324
f  372 323 342
f  356 343 326
f  353 354 324
f  353 323 372
f  354 355 325
f  356 373 343
f  353 355 354
f  353 372 355
f  355 372 356
f  356 372 373
f  357 201 327
f  253 328 202
f  358 329 328
f  360 327 330
f  361 330 331
f  359 332 329
f  362 333 332
f  363 334 333
f  258 336 207
f  364 206 334
f  366 335 336
f  365 331 335
f  369 339 325
f  367 338 337
f  369 337 339
f  368 341 338
f  370 326 340
f  253 358 328
f  357 327 360
f  358 359 329
f  360 330 361
f  361 331 365
f  253 357 358
f  357 360 358
f  358 360 359
f  359 360 361
f  364 334 363
f  359 362 332
f  362 363 333
f  257 206 364
f  258 366 336
f  365 335 366
f  359 361 362
f  362 365 363
f  258 257 366
f  257 364 366
f  364 363 366
f  362 361 365
f  363 365 366
f  355 369 325
f  356 326 370
f  355 356 370
f  367 337 369
f  367 368 338
f  368 371 341
f  355 370 369
f  367 369 368
f  368 369 371
f  369 370 371
f  373 342 343
f  375 344 345
f  372 342 373
f  374 344 375
f  374 340 344
f  371 348 341
f  376 347 346
f  378 349 348
f  379 346 349
f  377 352 347
f  380 345 350
f  381 350 351
f  382 351 352
f  370 340 374
f  371 378 348
f  370 374 375
f  370 375 378
f  376 377 347
f  370 378 371
f  375 345 380
f  378 375 380
f  378 379 349
f  376 346 379
f  380 350 381
f  377 382 352
f  381 351 382
f  378 380 379
f  376 379 377
f  377 379 380
f  377 380 382
f  380 381 382
f  390 385 384
f  391 386 385
f  393 384 387
f  395 387 389
f  394 389 388
f  390 391 385
f  390 384 393
f  390 392 391
f  390 393 392
f  391 392 386
f  393 387 395
f  394 393 395
f  394 395 389
f  392 393 394
f  397 469 396
f  494 397 396
f  397 501 469
f  405 415 398
f  406 398 399
f  405 406 420
f  405 398 406
f  406 399 441
f  408 402 401
f  409 403 402
f  560 401 536
f  408 409 402
f  408 410 409
f  409 410 403
f  408 401 560
f  408 560 410
f  410 560 411
f  392 414 386
f  420 388 415
f  392 419 414
f  392 420 419
f  394 388 420
f  392 394 420
f  405 420 415
f  417 413 412
f  419 412 414
f  418 416 413
f  417 412 419
f  417 418 413
f  417 419 418
f  418 419 421
f  418 421 416
f  419 420 421
f  421 400 416
f  407 427 400
f  407 400 421
f  406 407 420
f  407 421 420
f  406 441 407
f  434 424 423
f  435 444 424
f  436 423 425
f  437 425 426
f  438 426 428
f  435 453 444
f  436 434 423
f  435 424 434
f  436 425 437
f  437 426 438
f  435 460 453
f  435 434 460
f  437 438 439
f  436 460 434
f  436 437 460
f  441 399 431
f  410 431 403
f  411 404 433
f  407 442 427
f  407 441 442
f  410 411 441
f  410 441 431
f  411 433 443
f  411 442 441
f  411 443 442
f  442 432 427
f  439 428 429
f  440 429 430
f  460 430 451
f  442 647 432
f  438 428 439
f  439 429 440
f  440 430 460
f  437 439 440
f  437 440 460
f  442 652 647
f  442 443 652
f  453 445 444
f  454 446 445
f  455 447 446
f  456 448 447
f  457 449 448
f  453 454 445
f  454 455 446
f  453 455 454
f  453 456 455
f  455 456 447
f  456 457 448
f  457 458 449
f  453 457 456
f  453 458 457
f  453 460 461
f  453 461 459
f  453 459 458
f  458 450 449
f  459 452 450
f  461 451 452
f  458 459 450
f  460 451 461
f  459 461 452
f  495 462 463
f  496 467 464
f  497 463 465
f  499 466 467
f  494 396 462
f  500 464 468
f  501 526 469
f  502 468 470
f  551 470 527
f  498 472 466
f  503 465 471
f  504 473 472
f  506 471 474
f  505 475 473
f  507 476 475
f  495 463 497
f  494 462 495
f  499 498 466
f  497 465 503
f  496 499 467
f  495 499 496
f  494 495 496
f  495 497 499
f  497 498 499
f  496 464 500
f  500 468 502
f  501 550 526
f  502 470 551
f  494 500 397
f  397 500 501
f  494 496 500
f  500 502 501
f  502 550 501
f  502 551 550
f  498 504 472
f  503 471 506
f  504 505 473
f  505 507 475
f  507 508 476
f  497 503 498
f  498 503 504
f  503 505 504
f  503 506 505
f  505 506 507
f  506 508 507
f  508 478 476
f  509 474 477
f  510 479 478
f  512 477 480
f  511 480 479
f  513 482 481
f  514 485 482
f  515 538 483
f  516 483 484
f  521 486 489
f  519 481 487
f  518 488 486
f  520 487 488
f  517 542 485
f  567 490 543
f  522 491 490
f  524 489 492
f  523 493 491
f  506 474 509
f  508 510 478
f  510 511 479
f  509 477 512
f  511 512 480
f  513 514 482
f  514 517 485
f  506 509 508
f  508 509 510
f  510 512 511
f  510 509 512
f  513 517 514
f  515 483 516
f  515 516 562
f  513 481 519
f  518 486 521
f  518 520 488
f  519 487 520
f  513 518 517
f  513 519 518
f  517 518 521
f  517 521 522
f  518 519 520
f  517 566 542
f  522 490 567
f  521 489 524
f  522 523 491
f  524 492 591
f  523 525 493
f  517 522 566
f  522 567 566
f  521 523 522
f  521 524 523
f  524 525 523
f  524 591 525
f  550 529 526
f  552 527 528
f  553 530 529
f  555 528 531
f  557 532 533
f  556 531 532
f  554 535 530
f  558 533 534
f  559 539 535
f  550 553 529
f  551 527 552
f  550 551 553
f  551 552 553
f  552 528 555
f  553 554 530
f  555 531 556
f  556 532 557
f  554 559 535
f  557 533 558
f  553 552 554
f  552 555 554
f  555 556 554
f  554 556 559
f  556 557 559
f  557 558 559
f  561 536 537
f  411 537 404
f  560 536 561
f  411 560 561
f  411 561 537
f  562 534 538
f  563 484 539
f  564 541 540
f  566 540 542
f  565 546 541
f  568 543 544
f  569 544 545
f  562 558 534
f  515 562 538
f  559 563 539
f  563 516 484
f  564 565 541
f  564 540 566
f  562 516 563
f  562 563 558
f  559 558 563
f  564 566 565
f  565 570 546
f  567 543 568
f  568 544 569
f  565 566 570
f  566 567 570
f  567 568 570
f  568 569 570
f  571 548 547
f  572 549 548
f  571 572 548
f  571 547 634
f  571 573 572
f  572 573 549
f  571 635 573
f  573 635 678
f  573 678 679
f  591 492 574
f  525 575 493
f  592 576 575
f  596 574 579
f  593 577 576
f  594 578 577
f  597 579 580
f  598 580 581
f  599 583 582
f  600 584 583
f  603 582 586
f  602 587 585
f  631 612 584
f  632 585 613
f  525 592 575
f  591 574 596
f  592 593 576
f  593 594 577
f  594 595 578
f  596 579 597
f  597 580 598
f  598 581 628
f  525 591 592
f  591 596 592
f  592 596 593
f  593 597 594
f  594 598 595
f  593 596 597
f  594 597 598
f  595 598 628
f  599 600 583
f  600 601 584
f  599 582 603
f  602 604 587
f  602 585 632
f  599 601 600
f  599 603 601
f  601 603 602
f  602 603 604
f  601 602 632
f  601 631 584
f  601 632 631
f  604 586 587
f  605 613 588
f  633 589 614
f  607 588 590
f  606 620 589
f  640 590 621
f  603 586 604
f  605 607 632
f  605 632 613
f  606 589 633
f  606 633 632
f  606 632 607
f  605 588 607
f  607 590 640
f  606 639 620
f  606 607 640
f  606 640 639
f  627 545 608
f  570 609 546
f  595 608 578
f  628 581 609
f  629 611 610
f  631 610 612
f  630 614 611
f  569 545 627
f  627 608 595
f  570 628 609
f  569 627 628
f  570 569 628
f  627 595 628
f  629 630 611
f  629 610 631
f  630 633 614
f  629 631 630
f  630 631 633
f  631 632 633
f  634 547 615
f  636 615 617
f  635 617 616
f  678 616 656
f  634 615 636
f  571 634 635
f  635 634 636
f  635 616 678
f  635 636 617
f  637 619 618
f  639 618 620
f  638 623 619
f  641 621 622
f  642 622 623
f  637 638 619
f  637 618 639
f  638 642 623
f  640 621 641
f  641 622 642
f  637 639 638
f  638 639 640
f  638 640 642
f  640 641 642
f  643 625 624
f  644 626 625
f  643 644 625
f  643 624 1176
f  643 645 644
f  643 1176 645
f  644 645 626
f  651 433 646
f  652 646 647
f  443 433 651
f  651 646 652
f  443 651 652
f  573 650 549
f  573 679 655
f  573 655 650
f  679 688 655
f  653 649 648
f  655 648 650
f  654 668 649
f  653 654 649
f  653 648 655
f  653 655 654
f  654 655 690
f  679 659 657
f  680 656 658
f  681 660 659
f  688 657 666
f  684 658 662
f  682 661 660
f  683 663 661
f  693 662 671
f  685 664 663
f  687 670 665
f  686 665 664
f  678 656 680
f  679 681 659
f  680 658 684
f  681 682 660
f  678 681 679
f  678 680 681
f  680 682 681
f  679 657 688
f  682 683 661
f  684 662 693
f  683 685 663
f  680 684 682
f  682 684 683
f  684 693 683
f  683 693 685
f  685 686 664
f  686 687 665
f  685 694 686
f  689 666 667
f  691 667 669
f  692 669 670
f  690 674 668
f  688 666 689
f  654 690 668
f  689 667 691
f  655 688 690
f  688 689 690
f  689 691 690
f  691 669 692
f  692 670 687
f  690 696 674
f  690 691 696
f  691 692 696
f  692 687 696
f  694 671 672
f  695 672 673
f  645 677 626
f  693 671 694
f  685 693 694
f  694 672 695
f  695 673 696
f  686 694 695
f  686 695 687
f  695 696 687
f  645 1175 699
f  645 699 677
f  696 673 674
f  697 676 675
f  699 675 677
f  698 1301 676
f  697 675 699
f  697 698 676
f  697 699 698
f  698 699 1310
f  724 117 701
f  139 705 118
f  725 701 702
f  726 702 703
f  727 709 704
f  739 703 716
f  724 701 725
f  138 724 139
f  139 724 728
f  724 727 728
f  725 702 726
f  727 704 729
f  726 703 739
f  724 725 727
f  725 726 739
f  725 739 727
f  729 704 706
f  728 706 705
f  730 708 707
f  732 707 709
f  731 718 708
f  139 728 705
f  728 729 706
f  727 729 728
f  727 732 709
f  730 731 708
f  730 707 732
f  727 739 732
f  730 732 731
f  731 732 739
f  733 711 710
f  734 712 711
f  735 721 712
f  737 710 714
f  736 715 713
f  738 714 715
f  745 713 722
f  733 734 711
f  734 735 712
f  733 710 737
f  733 735 734
f  735 744 721
f  736 738 715
f  737 714 738
f  733 737 735
f  735 737 736
f  736 737 738
f  736 713 745
f  745 722 772
f  735 736 745
f  735 745 744
f  740 716 717
f  741 717 718
f  742 720 719
f  744 719 721
f  743 723 720
f  746 748 723
f  731 741 718
f  739 716 740
f  740 717 741
f  742 743 720
f  742 719 744
f  731 739 741
f  739 740 741
f  742 744 743
f  743 744 746
f  743 746 723
f  744 745 746
f  745 773 746
f  772 722 747
f  773 754 748
f  774 747 749
f  775 751 750
f  776 760 751
f  780 749 755
f  772 747 774
f  773 748 746
f  745 772 774
f  745 774 773
f  773 774 780
f  775 776 751
f  775 750 787
f  776 785 760
f  775 785 776
f  774 749 780
f  777 753 752
f  779 752 754
f  778 757 753
f  781 755 756
f  782 756 757
f  783 759 758
f  792 758 767
f  784 768 759
f  777 778 753
f  773 779 754
f  777 752 779
f  773 780 779
f  777 779 778
f  778 779 780
f  778 780 782
f  778 782 757
f  780 755 781
f  781 756 782
f  783 784 759
f  783 758 792
f  780 781 782
f  783 792 784
f  787 750 762
f  786 763 761
f  788 762 763
f  785 767 760
f  791 761 766
f  789 766 764
f  790 771 765
f  786 788 763
f  787 762 788
f  775 787 785
f  785 787 786
f  786 787 788
f  786 761 791
f  785 792 767
f  791 766 789
f  785 786 791
f  785 791 792
f  789 764 1053
f  793 790 765
f  791 789 1053
f  791 1053 790
f  793 765 768
f  794 770 769
f  796 769 771
f  795 1038 770
f  784 793 768
f  784 792 793
f  792 791 793
f  791 790 793
f  790 796 771
f  794 795 770
f  794 769 796
f  790 1060 796
f  794 796 795
f  795 796 1060
f  829 798 797
f  830 799 798
f  833 797 801
f  831 808 799
f  832 802 800
f  834 801 802
f  835 804 803
f  836 805 804
f  837 814 805
f  829 830 798
f  830 831 799
f  829 797 833
f  832 800 841
f  829 831 830
f  829 832 831
f  829 833 832
f  831 832 840
f  832 834 802
f  833 801 834
f  835 836 804
f  835 803 848
f  836 837 805
f  832 833 834
f  835 837 836
f  841 800 809
f  838 807 806
f  840 806 808
f  839 811 807
f  842 809 810
f  843 810 811
f  844 813 812
f  846 812 814
f  845 824 813
f  831 840 808
f  832 841 840
f  838 839 807
f  838 806 840
f  839 843 811
f  838 840 839
f  839 840 841
f  839 841 843
f  837 846 814
f  841 809 842
f  842 810 843
f  844 845 813
f  844 812 846
f  841 842 843
f  844 846 845
f  845 846 854
f  848 803 816
f  847 817 815
f  849 816 817
f  850 819 818
f  851 820 819
f  852 827 820
f  959 818 955
f  853 956 821
f  853 821 828
f  847 815 854
f  847 849 817
f  848 816 849
f  850 851 819
f  835 848 837
f  837 848 847
f  837 847 846
f  847 848 849
f  851 852 820
f  850 818 959
f  853 960 956
f  850 852 851
f  850 853 852
f  852 853 859
f  850 959 853
f  853 959 960
f  854 815 822
f  855 822 823
f  856 823 824
f  857 826 825
f  859 825 827
f  858 958 826
f  961 828 957
f  847 854 846
f  845 856 824
f  854 822 855
f  855 823 856
f  857 858 826
f  845 854 856
f  854 855 856
f  852 859 827
f  853 828 860
f  853 860 859
f  857 825 859
f  858 962 958
f  860 828 961
f  857 859 858
f  858 859 860
f  858 860 962
f  860 961 962
f  909 861 862
f  917 863 870
f  911 862 864
f  910 865 863
f  912 866 865
f  928 864 881
f  913 882 866
f  908 861 909
f  908 909 917
f  909 862 911
f  917 910 863
f  910 912 865
f  911 864 928
f  912 913 866
f  913 929 882
f  917 909 910
f  909 911 910
f  910 911 912
f  911 913 912
f  911 928 913
f  913 928 929
f  914 868 867
f  908 867 861
f  915 872 868
f  916 870 869
f  918 869 871
f  919 875 872
f  920 871 873
f  921 873 874
f  922 876 875
f  924 874 877
f  923 879 876
f  925 877 878
f  927 878 880
f  940 880 893
f  926 895 879
f  914 867 908
f  914 915 868
f  916 869 918
f  916 917 870
f  918 871 920
f  914 908 916
f  914 918 915
f  915 918 919
f  908 917 916
f  914 916 918
f  915 919 872
f  919 922 875
f  920 873 921
f  922 923 876
f  921 874 924
f  920 922 919
f  918 920 919
f  920 921 922
f  922 921 923
f  921 924 923
f  924 877 925
f  923 926 879
f  925 878 927
f  927 880 940
f  926 942 895
f  923 924 926
f  924 925 926
f  926 925 927
f  927 940 942
f  926 927 942
f  929 883 882
f  930 884 883
f  932 881 885
f  933 887 886
f  934 888 887
f  996 886 963
f  936 964 889
f  929 930 883
f  928 881 932
f  930 931 884
f  932 885 938
f  933 934 887
f  929 928 930
f  928 932 930
f  930 932 931
f  934 935 888
f  933 886 996
f  936 997 964
f  933 935 934
f  933 936 935
f  933 996 936
f  936 996 997
f  931 890 884
f  937 891 890
f  938 885 891
f  939 896 892
f  941 893 894
f  942 898 895
f  943 894 896
f  944 892 897
f  945 897 898
f  946 900 899
f  935 904 888
f  948 889 901
f  949 903 902
f  1002 901 969
f  951 899 904
f  947 907 900
f  952 902 905
f  953 905 906
f  931 937 890
f  937 938 891
f  931 938 937
f  931 932 938
f  939 943 896
f  939 892 944
f  940 893 941
f  943 941 894
f  942 945 898
f  944 897 945
f  946 947 900
f  939 944 943
f  940 941 942
f  941 945 942
f  943 945 941
f  943 944 945
f  936 889 948
f  949 902 952
f  948 901 1002
f  949 950 903
f  935 949 951
f  935 936 948
f  935 948 949
f  948 950 949
f  948 1002 950
f  935 951 904
f  946 899 951
f  947 954 907
f  952 905 953
f  946 951 947
f  947 951 954
f  951 949 952
f  951 952 954
f  952 953 954
f  960 955 956
f  959 955 960
f  962 957 958
f  961 957 962
f  997 963 964
f  998 966 965
f  999 967 966
f  1019 965 986
f  1001 987 968
f  996 963 997
f  998 999 966
f  998 965 1019
f  999 1000 967
f  998 1000 999
f  998 1019 1000
f  1000 1019 1001
f  950 970 903
f  1004 969 971
f  1003 972 970
f  1005 973 972
f  1007 971 974
f  1008 974 975
f  1009 906 976
f  954 980 907
f  1010 976 977
f  1006 978 973
f  1011 979 978
f  1012 977 979
f  1014 975 981
f  1013 981 980
f  1015 983 982
f  1017 984 967
f  1018 968 985
f  1017 982 984
f  1016 990 983
f  950 1003 970
f  1002 969 1004
f  1003 1005 972
f  1004 971 1007
f  1005 1006 973
f  1007 974 1008
f  1008 975 1014
f  950 1002 1003
f  1002 1004 1003
f  1003 1004 1005
f  1004 1007 1005
f  1005 1007 1006
f  1006 1007 1008
f  1010 977 1012
f  953 906 1009
f  1010 1009 976
f  954 1013 980
f  1006 1011 978
f  1011 1012 979
f  1014 981 1013
f  953 1009 954
f  954 1009 1013
f  1010 1013 1009
f  1006 1008 1011
f  1011 1014 1012
f  1011 1008 1014
f  1014 1013 1012
f  1010 1012 1013
f  1000 1017 967
f  1001 968 1018
f  1000 1001 1018
f  1015 982 1017
f  1015 1016 983
f  1016 1023 990
f  1015 1017 1016
f  1000 1018 1017
f  1016 1017 1023
f  1017 1018 1023
f  1020 986 987
f  1022 988 989
f  1019 986 1020
f  1001 1020 987
f  1001 1019 1020
f  1021 988 1022
f  1023 991 990
f  1021 985 988
f  1024 994 991
f  1025 993 992
f  1027 992 994
f  1028 989 995
f  1026 1079 993
f  1018 985 1021
f  1018 1024 1023
f  1023 1024 991
f  1022 989 1028
f  1018 1021 1022
f  1018 1022 1024
f  1024 1022 1028
f  1025 1026 993
f  1025 992 1027
f  1024 1027 994
f  1028 995 1080
f  1026 1081 1079
f  1025 1027 1026
f  1024 1028 1027
f  1026 1027 1028
f  1026 1028 1081
f  1053 764 1029
f  1054 1031 1030
f  1055 1032 1031
f  1060 1029 1036
f  1058 1030 1034
f  1057 1035 1033
f  1059 1034 1035
f  1056 1042 1032
f  1065 1033 1041
f  1054 1055 1031
f  1055 1056 1032
f  1054 1056 1055
f  1053 1029 1060
f  790 1053 1060
f  1054 1030 1058
f  1057 1059 1035
f  1058 1034 1059
f  1054 1058 1056
f  1056 1058 1057
f  1057 1058 1059
f  1057 1033 1065
f  1056 1066 1042
f  1065 1041 1068
f  1056 1057 1065
f  1056 1065 1066
f  1061 1036 1037
f  1062 1037 1038
f  1063 1040 1039
f  1066 1039 1042
f  1064 1043 1040
f  1060 1036 1061
f  795 1062 1038
f  1061 1037 1062
f  1063 1064 1040
f  1063 1039 1066
f  795 1060 1062
f  1060 1061 1062
f  1063 1066 1064
f  1064 1067 1043
f  1064 1066 1067
f  1066 1065 1067
f  1065 1069 1067
f  1068 1041 1044
f  1069 1049 1045
f  1070 1044 1046
f  1074 1046 1050
f  1067 1069 1045
f  1065 1068 1070
f  1065 1070 1069
f  1068 1044 1070
f  1070 1046 1074
f  1069 1070 1074
f  1067 1045 1043
f  1071 1048 1047
f  1073 1047 1049
f  1072 1052 1048
f  1075 1050 1051
f  1076 1051 1052
f  1069 1073 1049
f  1071 1072 1048
f  1071 1047 1073
f  1071 1073 1072
f  1072 1073 1074
f  1072 1076 1052
f  1074 1050 1075
f  1075 1051 1076
f  1069 1074 1073
f  1072 1074 1076
f  1074 1075 1076
f  1080 995 1078
f  1081 1078 1079
f  1080 1078 1081
f  1028 1080 1081
f  1113 1083 1084
f  1120 1084 1091
f  1114 1086 1085
f  1115 1092 1086
f  1112 1087 1083
f  1116 1088 1087
f  1117 1141 1088
f  1118 1085 1089
f  1119 1089 1090
f  1169 1090 1142
f  1121 1094 1092
f  1122 1091 1093
f  1123 1095 1094
f  1125 1093 1096
f  1124 1097 1095
f  1112 1083 1113
f  1113 1084 1120
f  1114 1115 1086
f  1112 1113 1114
f  1113 1120 1115
f  1113 1115 1114
f  1112 1116 1087
f  1116 1117 1088
f  1117 1168 1141
f  1114 1085 1118
f  1118 1089 1119
f  1119 1090 1169
f  1112 1118 1116
f  1116 1118 1117
f  1119 1168 1117
f  1112 1114 1118
f  1118 1119 1117
f  1119 1169 1168
f  1115 1121 1092
f  1120 1091 1122
f  1121 1123 1094
f  1122 1093 1125
f  1123 1124 1095
f  1124 1126 1097
f  1115 1120 1121
f  1120 1122 1121
f  1121 1122 1123
f  1122 1124 1123
f  1122 1125 1124
f  1124 1125 1126
f  1126 1098 1097
f  1127 1099 1098
f  1130 1096 1101
f  1128 1100 1099
f  1129 1104 1100
f  1131 1103 1102
f  1133 1101 1104
f  1134 1155 1105
f  1135 1105 1106
f  1132 1107 1103
f  1216 1102 1195
f  1137 1196 1108
f  1138 1108 1109
f  1136 1159 1107
f  1139 1111 1110
f  1218 1109 1197
f  1187 1110 1160
f  1126 1127 1098
f  1125 1096 1130
f  1127 1128 1099
f  1128 1129 1100
f  1131 1132 1103
f  1130 1101 1133
f  1129 1133 1104
f  1126 1125 1127
f  1125 1130 1127
f  1127 1130 1128
f  1128 1133 1129
f  1128 1130 1133
f  1134 1105 1135
f  1134 1135 1182
f  1132 1136 1107
f  1131 1102 1216
f  1137 1217 1196
f  1137 1108 1138
f  1131 1136 1132
f  1131 1137 1136
f  1131 1216 1137
f  1137 1216 1217
f  1136 1137 1138
f  1136 1138 1139
f  1136 1186 1159
f  1138 1109 1218
f  1139 1140 1111
f  1139 1110 1187
f  1136 1139 1186
f  1138 1140 1139
f  1138 1218 1140
f  1186 1139 1187
f  1168 1143 1141
f  1171 1142 1144
f  1170 1146 1143
f  1172 1144 1145
f  1179 1147 1152
f  1174 1145 1147
f  1173 1154 1146
f  1168 1170 1143
f  1169 1142 1171
f  1168 1169 1170
f  1169 1171 1170
f  1171 1144 1172
f  1170 1173 1146
f  1172 1145 1174
f  1174 1147 1179
f  1173 1181 1154
f  1170 1171 1173
f  1171 1172 1173
f  1173 1172 1174
f  1173 1174 1181
f  1174 1179 1181
f  1176 624 1149
f  1175 1150 1148
f  1177 1149 1150
f  1175 1176 1177
f  1175 1177 1150
f  645 1176 1175
f  1176 1149 1177
f  1180 1152 1153
f  1181 1156 1154
f  1182 1153 1155
f  1183 1106 1156
f  1184 1158 1157
f  1186 1157 1159
f  1185 1162 1158
f  1188 1160 1161
f  1179 1152 1180
f  1182 1180 1153
f  1134 1182 1155
f  1181 1183 1156
f  1135 1106 1183
f  1184 1185 1158
f  1179 1180 1181
f  1182 1183 1180
f  1182 1135 1183
f  1180 1183 1181
f  1184 1157 1186
f  1185 1189 1162
f  1187 1160 1188
f  1184 1186 1185
f  1185 1186 1189
f  1186 1187 1189
f  1187 1188 1189
f  1190 1151 1163
f  1193 1163 1166
f  1192 1164 1165
f  1274 1166 1244
f  1191 1167 1164
f  1194 1245 1167
f  1190 1178 1151
f  1190 1163 1193
f  1191 1164 1192
f  1190 1192 1178
f  1190 1193 1191
f  1190 1191 1192
f  1274 1193 1166
f  1274 1194 1193
f  1191 1194 1167
f  1193 1194 1191
f  1217 1195 1196
f  1140 1198 1111
f  1220 1197 1199
f  1219 1200 1198
f  1221 1203 1200
f  1222 1199 1201
f  1223 1201 1202
f  1224 1204 1203
f  1225 1205 1204
f  1231 1202 1210
f  1227 1207 1206
f  1228 1208 1207
f  1232 1206 1211
f  1230 1212 1209
f  1272 1242 1208
f  1273 1209 1243
f  1216 1195 1217
f  1218 1197 1220
f  1140 1219 1198
f  1219 1221 1200
f  1220 1199 1222
f  1221 1224 1203
f  1222 1201 1223
f  1224 1225 1204
f  1225 1226 1205
f  1223 1202 1231
f  1231 1210 1269
f  1140 1218 1219
f  1218 1220 1219
f  1219 1220 1221
f  1220 1222 1221
f  1221 1222 1224
f  1224 1222 1223
f  1224 1223 1225
f  1225 1231 1226
f  1225 1223 1231
f  1231 1269 1226
f  1227 1228 1207
f  1227 1206 1232
f  1228 1229 1208
f  1230 1209 1273
f  1227 1229 1228
f  1227 1232 1229
f  1229 1232 1230
f  1229 1230 1273
f  1229 1272 1208
f  1229 1273 1272
f  1233 1211 1212
f  1282 1215 1252
f  1234 1243 1213
f  1235 1213 1214
f  1236 1255 1215
f  1286 1214 1256
f  1230 1233 1212
f  1232 1211 1233
f  1230 1232 1233
f  1273 1243 1234
f  1273 1236 1282
f  1234 1213 1235
f  1235 1214 1286
f  1273 1234 1235
f  1282 1236 1215
f  1236 1285 1255
f  1273 1235 1236
f  1236 1235 1286
f  1236 1286 1285
f  1267 1161 1237
f  1189 1239 1162
f  1268 1237 1238
f  1226 1238 1205
f  1269 1210 1239
f  1270 1241 1240
f  1272 1240 1242
f  1271 1252 1241
f  1188 1161 1267
f  1268 1267 1237
f  1268 1238 1226
f  1189 1269 1239
f  1188 1267 1189
f  1268 1269 1267
f  1189 1267 1269
f  1268 1226 1269
f  1270 1271 1241
f  1270 1240 1272
f  1271 1282 1252
f  1270 1272 1271
f  1271 1272 1282
f  1272 1273 1282
f  1277 1244 1247
f  1275 1246 1245
f  1276 1248 1246
f  1287 1247 1257
f  1278 1249 1248
f  1279 1250 1249
f  1280 1251 1250
f  1281 1259 1251
f  1274 1244 1277
f  1274 1275 1194
f  1274 1276 1275
f  1274 1277 1276
f  1276 1277 1278
f  1194 1275 1245
f  1275 1276 1246
f  1276 1278 1248
f  1277 1247 1287
f  1278 1279 1249
f  1279 1280 1250
f  1280 1281 1251
f  1281 1289 1259
f  1277 1279 1278
f  1277 1287 1279
f  1279 1287 1280
f  1280 1287 1289
f  1280 1289 1281
f  1283 1254 1253
f  1285 1253 1255
f  1284 1364 1254
f  1283 1284 1254
f  1283 1253 1285
f  1284 1382 1364
f  1286 1256 1381
f  1283 1285 1284
f  1284 1285 1286
f  1284 1286 1382
f  1289 1257 1259
f  1290 1260 1258
f  1290 1264 1260
f  1291 1258 1261
f  1383 1261 1365
f  1292 1263 1262
f  1293 1265 1263
f  1294 1262 1264
f  1295 1266 1265
f  1296 1367 1266
f  1287 1257 1289
f  1288 1290 1258
f  1290 1294 1264
f  1288 1292 1290
f  1288 1258 1291
f  1383 1291 1261
f  1288 1291 1293
f  1291 1296 1295
f  1383 1296 1291
f  1292 1262 1294
f  1292 1293 1263
f  1293 1295 1265
f  1295 1296 1266
f  1288 1293 1292
f  1292 1294 1290
f  1293 1291 1295
f  1310 1148 1299
f  1178 1297 1151
f  1308 1298 1297
f  1175 1148 1310
f  699 1175 1310
f  1178 1308 1297
f  1308 1309 1298
f  1311 1299 1300
f  1312 1300 1301
f  698 1312 1301
f  1310 1299 1311
f  698 1310 1312
f  1310 1311 1312
f  1311 1300 1312
f  1313 1165 1302
f  1309 1305 1298
f  1314 1302 1303
f  1315 1303 1304
f  1192 1165 1313
f  1313 1302 1314
f  1178 1313 1308
f  1178 1192 1313
f  1308 1313 1309
f  1309 1316 1305
f  1314 1303 1315
f  1313 1314 1309
f  1309 1314 1316
f  1314 1315 1316
f  1316 1307 1305
f  1317 1304 1306
f  1318 1322 1307
f  1316 1318 1307
f  1316 1315 1318
f  1315 1304 1317
f  1317 1306 1343
f  1318 1344 1322
f  1315 1317 1318
f  1318 1317 1344
f  1341 1327 1319
f  1342 1319 1320
f  1341 1319 1342
f  1342 1320 1350
f  1341 1342 1349
f  1343 1306 1321
f  1345 1321 1323
f  1346 1323 1324
f  1344 1326 1322
f  1347 1324 1325
f  1348 1328 1326
f  1349 1325 1327
f  1350 1320 1328
f  1343 1321 1345
f  1345 1323 1346
f  1344 1348 1326
f  1317 1343 1344
f  1343 1345 1344
f  1345 1346 1348
f  1345 1348 1344
f  1346 1324 1347
f  1347 1325 1349
f  1341 1349 1327
f  1348 1350 1328
f  1346 1347 1348
f  1348 1347 1350
f  1347 1349 1350
f  1342 1350 1349
f  1352 1331 1330
f  1353 1404 1331
f  1354 1329 1332
f  1352 1353 1331
f  1352 1330 1437
f  1352 1437 1353
f  1351 1329 1354
f  1354 1332 1356
f  1351 1354 1356
f  1351 1333 1329
f  1356 1332 1334
f  1358 1334 1336
f  1355 1335 1333
f  1357 1339 1335
f  1359 1336 1337
f  1360 1337 1338
f  1361 1340 1339
f  1362 1421 1340
f  1351 1355 1333
f  1356 1334 1358
f  1355 1357 1335
f  1358 1336 1359
f  1359 1337 1360
f  1357 1361 1339
f  1361 1362 1340
f  1351 1356 1355
f  1355 1356 1357
f  1356 1358 1357
f  1357 1358 1361
f  1358 1359 1361
f  1359 1360 1362
f  1361 1359 1362
f  1360 1455 1362
f  1381 1256 1363
f  1382 1363 1364
f  1381 1363 1382
f  1286 1381 1382
f  1384 1365 1366
f  1385 1368 1367
f  1386 1369 1368
f  1387 1370 1369
f  1390 1366 1372
f  1388 1371 1370
f  1391 1372 1373
f  1392 1373 1374
f  1383 1365 1384
f  1383 1385 1296
f  1383 1386 1385
f  1383 1384 1386
f  1296 1385 1367
f  1385 1386 1368
f  1386 1387 1369
f  1386 1384 1387
f  1384 1366 1390
f  1387 1388 1370
f  1388 1389 1371
f  1390 1372 1391
f  1391 1373 1392
f  1392 1374 1447
f  1384 1390 1387
f  1387 1390 1388
f  1388 1391 1389
f  1388 1390 1391
f  1389 1391 1392
f  1393 1376 1375
f  1394 1378 1376
f  1397 1377 1379
f  1396 1427 1378
f  1395 1400 1377
f  1398 1379 1380
f  1393 1394 1376
f  1393 1395 1394
f  1394 1395 1396
f  1393 1375 1401
f  1395 1377 1397
f  1394 1396 1378
f  1397 1379 1398
f  1395 1397 1396
f  1393 1401 1395
f  1397 1398 1396
f  1396 1398 1461
f  1401 1375 1399
f  1402 1399 1400
f  1398 1380 1488
f  1395 1402 1400
f  1395 1401 1402
f  1401 1399 1402
f  1437 1330 1403
f  1438 1407 1404
f  1439 1403 1405
f  1444 1405 1410
f  1440 1411 1406
f  1446 1406 1412
f  1441 1408 1407
f  1442 1415 1408
f  1443 1410 1409
f  1389 1409 1371
f  1445 1414 1411
f  1448 1413 1414
f  1447 1374 1413
f  1449 1417 1415
f  1450 1412 1416
f  1451 1424 1417
f  1452 1416 1418
f  1453 1418 1419
f  1353 1438 1404
f  1437 1403 1439
f  1438 1441 1407
f  1439 1405 1444
f  1440 1406 1446
f  1353 1437 1438
f  1437 1441 1438
f  1437 1440 1441
f  1437 1439 1440
f  1439 1445 1440
f  1439 1444 1445
f  1440 1446 1441
f  1441 1442 1408
f  1442 1449 1415
f  1441 1446 1442
f  1389 1443 1409
f  1443 1444 1410
f  1440 1445 1411
f  1446 1412 1450
f  1447 1413 1448
f  1445 1448 1414
f  1389 1447 1443
f  1443 1448 1444
f  1444 1448 1445
f  1389 1392 1447
f  1443 1447 1448
f  1449 1451 1417
f  1451 1458 1424
f  1450 1416 1452
f  1452 1418 1453
f  1453 1419 1459
f  1442 1450 1449
f  1446 1450 1442
f  1449 1452 1451
f  1449 1450 1452
f  1451 1452 1453
f  1451 1453 1458
f  1454 1338 1420
f  1456 1420 1422
f  1457 1422 1423
f  1458 1423 1424
f  1455 1425 1421
f  1459 1419 1425
f  1360 1338 1454
f  1454 1420 1456
f  1362 1455 1421
f  1457 1456 1422
f  1457 1423 1458
f  1455 1459 1425
f  1360 1454 1455
f  1454 1456 1455
f  1455 1456 1459
f  1457 1459 1456
f  1457 1458 1459
f  1453 1459 1458
f  1462 1426 1428
f  1460 1426 1462
f  1460 1462 1464
f  1396 1461 1427
f  1462 1428 1464
f  1460 1429 1426
f  1463 1432 1429
f  1464 1428 1430
f  1465 1430 1431
f  1467 1431 1433
f  1468 1433 1434
f  1469 1434 1435
f  1466 1436 1432
f  1460 1463 1429
f  1460 1464 1463
f  1464 1430 1465
f  1465 1431 1467
f  1463 1466 1432
f  1467 1433 1468
f  1468 1434 1469
f  1466 1470 1436
f  1463 1464 1465
f  1463 1465 1466
f  1465 1467 1466
f  1466 1467 1468
f  1468 1469 1470
f  1466 1468 1470
f  1461 1472 1427
f  1488 1380 1471
f  1489 1473 1472
f  1491 1471 1474
f  1490 1475 1473
f  1492 1476 1475
f  1493 1477 1476
f  1494 1478 1477
f  1496 1474 1479
f  1497 1479 1480
f  1498 1480 1481
f  1504 1482 1487
f  1499 1481 1482
f  1461 1489 1472
f  1489 1490 1473
f  1488 1471 1491
f  1490 1492 1475
f  1491 1474 1496
f  1398 1488 1461
f  1461 1488 1489
f  1488 1491 1489
f  1489 1491 1490
f  1490 1491 1496
f  1490 1496 1492
f  1492 1493 1476
f  1493 1494 1477
f  1494 1495 1478
f  1492 1497 1493
f  1496 1479 1497
f  1492 1496 1497
f  1497 1480 1498
f  1498 1481 1499
f  1499 1482 1504
f  1497 1498 1493
f  1493 1498 1494
f  1494 1504 1495
f  1494 1498 1499
f  1494 1499 1504
f  1500 1435 1483
f  1470 1485 1436
f  1495 1484 1478
f  1501 1483 1484
f  1502 1486 1485
f  1503 1487 1486
f  1469 1435 1500
f  1500 1483 1501
f  1470 1502 1485
f  1501 1484 1495
f  1502 1503 1486
f  1469 1500 1470
f  1470 1500 1502
f  1500 1501 1502
f  1501 1495 1503
f  1501 1503 1502
f  1503 1504 1487
f  1495 1504 1503
