# OpenSCAD obj exporter
v 0 0 0
v 0 0 4.2
v 13.0295 7.5 4.2
v 13.0295 7.63477 4.2
v 13.0295 7.5 4.4
v 13.0295 7.63477 4.4
v 11.9894 10.7754 4.2
v 11.9894 10.9101 4.2
v 12.3734 10.7092 4.2
v 12.9735 10.7092 4.2
v 11.9894 10.7754 4.4
v 11.9894 10.9101 4.4
v 12.3734 10.7092 4.4
v 12.9735 10.7092 4.4
v 13.5711 7.70344 4.2
v 14.0619 7.70344 4.2
v 14.6036 7.5 4.2
v 14.6036 7.63477 4.2
v 13.5711 7.70344 4.4
v 14.0619 7.70344 4.4
v 14.6036 7.5 4.4
v 14.6036 7.63477 4.4
v 13.5711 8.82743 4.2
v 14.0619 8.84269 4.2
v 13.9526 9.13511 4.2
v 13.5711 8.82743 4.4
v 14.0619 8.84269 4.4
v 13.9526 9.13511 4.4
v 13.4312 10.7754 4.2
v 13.4312 10.9101 4.2
v 14.451 10.7754 4.2
v 14.451 10.9101 4.2
v 13.4312 10.7754 4.4
v 13.4312 10.9101 4.4
v 14.451 10.7754 4.4
v 14.451 10.9101 4.4
v 14.8833 10.7092 4.2
v 15.1859 10.7092 4.2
v 15.5597 10.7754 4.2
v 15.5597 10.9101 4.2
v 15.7507 10.7754 4.2
v 15.7507 10.9101 4.2
v 16.1347 10.7092 4.2
v 14.8833 10.7092 4.4
v 15.1859 10.7092 4.4
v 15.5597 10.7754 4.4
v 15.5597 10.9101 4.4
v 15.7507 10.7754 4.4
v 15.7507 10.9101 4.4
v 16.1347 10.7092 4.4
v 16.7908 7.5 4.2
v 16.7908 7.63477 4.2
v 17.3324 7.70344 4.2
v 17.8232 7.70344 4.2
v 16.7908 7.5 4.4
v 16.7908 7.63477 4.4
v 17.3324 7.70344 4.4
v 17.8232 7.70344 4.4
v 17.3324 8.82743 4.2
v 17.8232 8.84269 4.2
v 17.7139 9.13511 4.2
v 17.3324 8.82743 4.4
v 17.8232 8.84269 4.4
v 17.7139 9.13511 4.4
v 18.3649 7.5 4.2
v 18.3649 7.63477 4.2
v 18.3649 7.5 4.4
v 18.3649 7.63477 4.4
v 16.7348 10.7092 4.2
v 17.1925 10.7754 4.2
v 17.1925 10.9101 4.2
v 16.7348 10.7092 4.4
v 17.1925 10.7754 4.4
v 17.1925 10.9101 4.4
v 18.2123 10.7754 4.2
v 18.2123 10.9101 4.2
v 18.6446 10.7092 4.2
v 18.9472 10.7092 4.2
v 19.321 10.7754 4.2
v 19.4586 10.7754 4.2
v 19.321 10.9101 4.2
v 19.4586 10.9101 4.2
v 18.2123 10.7754 4.4
v 18.2123 10.9101 4.4
v 18.6446 10.7092 4.4
v 18.9472 10.7092 4.4
v 19.321 10.7754 4.4
v 19.4586 10.7754 4.4
v 19.321 10.9101 4.4
v 19.4586 10.9101 4.4
v 20.8852 7.42118 4.2
v 21.02 7.42118 4.2
v 20.8852 7.42118 4.4
v 21.02 7.42118 4.4
v 21.0708 8.30614 4.2
v 21.0708 8.30614 4.4
v 22.8127 7.42118 4.2
v 22.9475 7.42118 4.2
v 22.8127 7.42118 4.4
v 22.9475 7.42118 4.4
v 21.9278 9.77089 4.2
v 21.9278 9.77089 4.4
v 19.7561 10.7092 4.2
v 20.2596 10.7092 4.2
v 20.7606 10.7754 4.2
v 20.7606 10.9101 4.2
v 19.7561 10.7092 4.4
v 20.2596 10.7092 4.4
v 20.7606 10.7754 4.4
v 20.7606 10.9101 4.4
v 21.9888 10.6711 4.2
v 22.1033 10.6711 4.2
v 21.9888 10.6711 4.4
v 22.1033 10.6711 4.4
v 22.9882 8.30614 4.2
v 22.9882 8.30614 4.4
v 25.801 7.42118 4.2
v 25.9358 7.42118 4.2
v 25.801 7.42118 4.4
v 25.9358 7.42118 4.4
v 25.9867 8.30614 4.2
v 25.9867 8.30614 4.4
v 23.2298 10.7754 4.2
v 23.2298 10.9101 4.2
v 23.7613 10.7092 4.2
v 24.0613 10.7092 4.2
v 24.3589 10.7754 4.2
v 24.3745 10.7754 4.2
v 24.3589 10.9101 4.2
v 24.3745 10.9101 4.2
v 23.2298 10.7754 4.4
v 23.2298 10.9101 4.4
v 23.7613 10.7092 4.4
v 24.0613 10.7092 4.4
v 24.3589 10.7754 4.4
v 24.3745 10.7754 4.4
v 24.3589 10.9101 4.4
v 24.3745 10.9101 4.4
v 24.672 10.7092 4.2
v 25.1755 10.7092 4.2
v 25.6765 10.7754 4.2
v 25.6765 10.9101 4.2
v 24.672 10.7092 4.4
v 25.1755 10.7092 4.4
v 25.6765 10.7754 4.4
v 25.6765 10.9101 4.4
v 16.3318 24.1656 4.2
v 16.3318 24.1656 4.4
v 16.7946 22.9005 4.2
v 17.349 22.562 4.2
v 17.5629 22.7428 4.2
v 16.7946 22.9005 4.4
v 17.349 22.562 4.4
v 17.5629 22.7428 4.4
v 18.0864 22.4492 4.2
v 18.0915 22.6449 4.2
v 18.3732 22.6624 4.2
v 18.7088 22.4892 4.2
v 18.6383 22.7149 4.2
v 18.8684 22.7966 4.2
v 19.0451 22.9018 4.2
v 19.2893 22.6094 4.2
v 18.0864 22.4492 4.4
v 18.0915 22.6449 4.4
v 18.3732 22.6624 4.4
v 18.7088 22.4892 4.4
v 18.6383 22.7149 4.4
v 18.8684 22.7966 4.4
v 19.0451 22.9018 4.4
v 19.2893 22.6094 4.4
v 16.4475 23.4425 4.2
v 17.1773 23.0366 4.2
v 16.9418 23.5159 4.2
v 16.8633 24.1707 4.2
v 16.4475 23.4425 4.4
v 17.1773 23.0366 4.4
v 16.9418 23.5159 4.4
v 16.8633 24.1707 4.4
v 16.443 24.9384 4.2
v 16.9383 24.8713 4.2
v 17.1633 25.3608 4.2
v 16.7768 25.4969 4.2
v 17.3293 25.8354 4.2
v 17.5518 25.6488 4.2
v 16.443 24.9384 4.4
v 16.9383 24.8713 4.4
v 17.1633 25.3608 4.4
v 16.7768 25.4969 4.4
v 17.3293 25.8354 4.4
v 17.5518 25.6488 4.4
v 19.1392 23.4104 4.2
v 19.3045 23.4104 4.2
v 19.1392 23.4104 4.4
v 19.3045 23.4104 4.4
v 18.117 25.7448 4.2
v 18.3589 25.7299 4.2
v 18.0966 25.9483 4.2
v 18.5963 25.6851 4.2
v 18.8172 25.6129 4.2
v 18.6478 25.9158 4.2
v 19.0858 25.0735 4.2
v 19.2537 25.0735 4.2
v 19.0095 25.516 4.2
v 19.2384 25.8186 4.2
v 18.117 25.7448 4.4
v 18.3589 25.7299 4.4
v 18.0966 25.9483 4.4
v 18.5963 25.6851 4.4
v 18.8172 25.6129 4.4
v 18.6478 25.9158 4.4
v 19.0858 25.0735 4.4
v 19.2537 25.0735 4.4
v 19.0095 25.516 4.4
v 19.2384 25.8186 4.4
v 20.3677 15 4.2
v 20.3677 15.1348 4.2
v 20.7543 15.2034 4.2
v 21.0314 15.2034 4.2
v 20.3677 15 4.4
v 20.3677 15.1348 4.4
v 20.7543 15.2034 4.4
v 21.0314 15.2034 4.4
v 21.4892 15 4.2
v 21.4892 15.1348 4.2
v 21.3747 16.1876 4.2
v 22.5979 15 4.2
v 22.5979 15.1348 4.2
v 22.7174 16.1876 4.2
v 21.4892 15 4.4
v 21.4892 15.1348 4.4
v 21.3747 16.1876 4.4
v 22.5979 15 4.4
v 22.5979 15.1348 4.4
v 22.7174 16.1876 4.4
v 21.451 16.4165 4.2
v 22.6386 16.4165 4.2
v 21.451 16.4165 4.4
v 22.6386 16.4165 4.4
v 21.9164 18.4381 4.2
v 22.0359 18.0719 4.2
v 22.3995 18.4381 4.2
v 21.9164 18.4381 4.4
v 22.0359 18.0719 4.4
v 22.3995 18.4381 4.4
v 23.0556 15.2034 4.2
v 23.6075 15.2034 4.2
v 24.0398 15 4.2
v 24.0398 15.1348 4.2
v 24.2613 15 4.2
v 24.2613 15.1348 4.2
v 23.0556 15.2034 4.4
v 23.6075 15.2034 4.4
v 24.0398 15 4.4
v 24.0398 15.1348 4.4
v 24.2613 15 4.4
v 24.2613 15.1348 4.4
v 24.6656 15.2034 4.2
v 25.1564 15.2034 4.2
v 25.6726 15 4.2
v 25.6726 15.1348 4.2
v 24.6656 15.2034 4.4
v 25.1564 15.2034 4.4
v 25.6726 15 4.4
v 25.6726 15.1348 4.4
v 24.2282 18.2754 4.2
v 24.2282 18.4101 4.2
v 24.2282 18.2754 4.4
v 24.2282 18.4101 4.4
v 25.1564 16.4953 4.2
v 25.1564 16.7241 4.2
v 25.6065 16.7241 4.2
v 25.7692 16.4953 4.2
v 25.9959 16.7664 4.2
v 25.1564 16.4953 4.4
v 25.1564 16.7241 4.4
v 25.6065 16.7241 4.4
v 25.7692 16.4953 4.4
v 25.9959 16.7664 4.4
v 24.6656 18.2092 4.2
v 25.1564 18.1812 4.2
v 25.5912 18.1812 4.2
v 25.7005 18.4101 4.2
v 25.9952 18.1402 4.2
v 24.6656 18.2092 4.4
v 25.1564 18.1812 4.4
v 25.5912 18.1812 4.4
v 25.7005 18.4101 4.4
v 25.9952 18.1402 4.4
v 19.7752 22.5 4.2
v 19.7752 22.6348 4.2
v 20.1795 22.7034 4.2
v 20.6703 22.7034 4.2
v 21.212 22.5 4.2
v 21.212 22.6348 4.2
v 19.7752 22.5 4.4
v 19.7752 22.6348 4.4
v 20.1795 22.7034 4.4
v 20.6703 22.7034 4.4
v 21.212 22.5 4.4
v 21.212 22.6348 4.4
v 22.6388 22.5 4.2
v 22.6388 22.6348 4.2
v 22.6388 22.5 4.4
v 22.6388 22.6348 4.4
v 20.6703 23.8376 4.2
v 20.6703 24.0665 4.2
v 21.0543 23.8376 4.2
v 20.9348 24.0665 4.2
v 21.3083 24.1154 4.2
v 20.6703 23.8376 4.4
v 20.6703 24.0665 4.4
v 21.0543 23.8376 4.4
v 20.9348 24.0665 4.4
v 21.3083 24.1154 4.4
v 19.7421 25.7754 4.2
v 19.7421 25.9101 4.2
v 20.1795 25.7092 4.2
v 20.6703 25.6812 4.2
v 20.9195 25.6812 4.2
v 21.3156 25.6361 4.2
v 21.0289 25.9101 4.2
v 19.7421 25.7754 4.4
v 19.7421 25.9101 4.4
v 20.1795 25.7092 4.4
v 20.6703 25.6812 4.4
v 20.9195 25.6812 4.4
v 21.3156 25.6361 4.4
v 21.0289 25.9101 4.4
v 21.5778 23.9056 4.2
v 21.5693 24.2623 4.2
v 21.7228 24.5198 4.2
v 21.9634 24.1097 4.2
v 22.2009 24.4447 4.2
v 21.5778 23.9056 4.4
v 21.5693 24.2623 4.4
v 21.7228 24.5198 4.4
v 21.9634 24.1097 4.4
v 22.2009 24.4447 4.4
v 21.725 25.2604 4.2
v 21.774 24.9006 4.2
v 21.5781 25.5007 4.2
v 21.9672 25.659 4.2
v 22.28 24.9057 4.2
v 22.6388 25.7754 4.2
v 22.6388 25.9101 4.2
v 21.725 25.2604 4.4
v 21.774 24.9006 4.4
v 21.5781 25.5007 4.4
v 21.9672 25.659 4.4
v 22.28 24.9057 4.4
v 22.6388 25.7754 4.4
v 22.6388 25.9101 4.4
v 23.0762 22.7034 4.2
v 23.3431 22.7034 4.2
v 23.8009 22.5 4.2
v 23.8009 22.6348 4.2
v 23.0762 22.7034 4.4
v 23.3431 22.7034 4.4
v 23.8009 22.5 4.4
v 23.8009 22.6348 4.4
v 25.4462 22.5 4.2
v 25.6929 22.5 4.2
v 25.4462 22.5 4.4
v 25.6929 22.5 4.4
v 23.0762 25.7092 4.2
v 23.3431 25.5668 4.2
v 23.6712 25.9101 4.2
v 23.0762 25.7092 4.4
v 23.3431 25.5668 4.4
v 23.6712 25.9101 4.4
v 25.4258 23.385 4.2
v 25.4258 23.385 4.4
v 24.9681 25.7754 4.2
v 24.9681 25.9101 4.2
v 25.4258 25.7092 4.2
v 25.6929 25.7092 4.2
v 26.1303 25.7754 4.2
v 26.1303 25.9101 4.2
v 24.9681 25.7754 4.4
v 24.9681 25.9101 4.4
v 25.4258 25.7092 4.4
v 25.6929 25.7092 4.4
v 26.1303 25.7754 4.4
v 26.1303 25.9101 4.4
v 0 52.5 0
v 9.19825 37.5 4.2
v 9.19825 37.5 4.4
v 9.19825 37.7426 4.2
v 9.19825 37.7426 4.4
v 11.2901 37.5 4.2
v 11.2901 37.5 4.4
v 9.98557 37.8662 4.2
v 10.4662 37.8662 4.2
v 11.2901 37.7426 4.2
v 9.98557 37.8662 4.4
v 10.4662 37.8662 4.4
v 11.2901 37.7426 4.4
v 12.7137 37.5 4.2
v 12.8738 37.5 4.2
v 12.7137 37.5 4.4
v 12.8738 37.5 4.4
v 13.0524 38.9693 4.2
v 13.0524 38.9693 4.4
v 2.88615 45.1067 4.2
v 3.16608 44.8664 4.2
v 2.6559 45.3938 4.2
v 2.49144 45.7057 4.2
v 2.88615 45.1067 4.4
v 3.16608 44.8664 4.4
v 2.6559 45.3938 4.4
v 2.49144 45.7057 4.4
v 3.47936 44.6947 4.2
v 3.826 44.5918 4.2
v 4.206 44.5574 4.2
v 4.58598 44.5918 4.2
v 3.47936 44.6947 4.4
v 3.826 44.5918 4.4
v 4.206 44.5574 4.4
v 4.58598 44.5918 4.4
v 4.93258 44.6947 4.2
v 5.2458 44.8664 4.2
v 5.52562 45.1067 4.2
v 5.75597 45.3938 4.2
v 5.9205 45.7057 4.2
v 4.93258 44.6947 4.4
v 5.2458 44.8664 4.4
v 5.52562 45.1067 4.4
v 5.75597 45.3938 4.4
v 5.9205 45.7057 4.4
v 2.39277 46.0423 4.2
v 2.35987 46.4038 4.2
v 2.39325 46.7775 4.2
v 2.49336 47.1208 4.2
v 2.66021 47.4335 4.2
v 2.39277 46.0423 4.4
v 2.35987 46.4038 4.4
v 2.39325 46.7775 4.4
v 2.49336 47.1208 4.4
v 2.66021 47.4335 4.4
v 2.8938 47.7158 4.2
v 3.17612 47.9494 4.2
v 2.8938 47.7158 4.4
v 3.17612 47.9494 4.4
v 0 52.5 4.2
v 3.48892 48.1164 4.2
v 3.83222 48.2165 4.2
v 4.206 48.2499 4.2
v 4.57977 48.2165 4.2
v 3.48892 48.1164 4.4
v 3.83222 48.2165 4.4
v 4.206 48.2499 4.4
v 4.57977 48.2165 4.4
v 6.01922 46.0423 4.2
v 6.05212 46.4038 4.2
v 5.91859 47.1208 4.2
v 6.01874 46.7775 4.2
v 5.75167 47.4335 4.2
v 6.01922 46.0423 4.4
v 6.05212 46.4038 4.4
v 5.91859 47.1208 4.4
v 6.01874 46.7775 4.4
v 5.75167 47.4335 4.4
v 5.23575 47.9494 4.2
v 4.92302 48.1164 4.2
v 5.51797 47.7158 4.2
v 5.23575 47.9494 4.4
v 4.92302 48.1164 4.4
v 5.51797 47.7158 4.4
v 9.19825 43.3957 4.2
v 9.19825 43.6382 4.2
v 9.19825 43.3957 4.4
v 9.19825 43.6382 4.4
v 9.98557 43.2766 4.2
v 10.4662 42.7777 4.2
v 11.0567 43.6382 4.2
v 9.98557 43.2766 4.4
v 10.4662 42.7777 4.4
v 11.0567 43.6382 4.4
v 16.3318 31.6656 4.2
v 16.3318 31.6656 4.4
v 16.7946 30.4005 4.2
v 16.4475 30.9425 4.2
v 17.1773 30.5366 4.2
v 16.9418 31.0159 4.2
v 17.349 30.062 4.2
v 17.5629 30.2428 4.2
v 16.7946 30.4005 4.4
v 16.4475 30.9425 4.4
v 17.1773 30.5366 4.4
v 16.9418 31.0159 4.4
v 17.349 30.062 4.4
v 17.5629 30.2428 4.4
v 16.8633 31.6707 4.2
v 16.443 32.4384 4.2
v 16.9383 32.3713 4.2
v 16.8633 31.6707 4.4
v 16.443 32.4384 4.4
v 16.9383 32.3713 4.4
v 18.0864 29.9492 4.2
v 18.0915 30.1449 4.2
v 18.3732 30.1624 4.2
v 18.6383 30.2149 4.2
v 18.7088 29.9892 4.2
v 18.8684 30.2966 4.2
v 19.2893 30.1094 4.2
v 19.0451 30.4018 4.2
v 19.1392 30.9104 4.2
v 19.3045 30.9104 4.2
v 18.0864 29.9492 4.4
v 18.0915 30.1449 4.4
v 18.3732 30.1624 4.4
v 18.6383 30.2149 4.4
v 18.7088 29.9892 4.4
v 18.8684 30.2966 4.4
v 19.2893 30.1094 4.4
v 19.0451 30.4018 4.4
v 19.1392 30.9104 4.4
v 19.3045 30.9104 4.4
v 19.0858 32.5735 4.2
v 19.2537 32.5735 4.2
v 19.0858 32.5735 4.4
v 19.2537 32.5735 4.4
v 14.4988 37.5 4.2
v 14.4988 37.5 4.4
v 14.4988 37.7426 4.2
v 14.4988 37.7426 4.4
v 15.3227 37.8662 4.2
v 16.2016 37.8662 4.2
v 15.3227 37.8662 4.4
v 16.2016 37.8662 4.4
v 16.7768 32.9969 4.2
v 17.1633 32.8608 4.2
v 17.5518 33.1488 4.2
v 17.3293 33.3354 4.2
v 16.7768 32.9969 4.4
v 17.1633 32.8608 4.4
v 17.5518 33.1488 4.4
v 17.3293 33.3354 4.4
v 18.117 33.2448 4.2
v 18.0966 33.4483 4.2
v 18.3589 33.2299 4.2
v 18.5963 33.1851 4.2
v 18.8172 33.1129 4.2
v 18.6478 33.4158 4.2
v 19.0095 33.016 4.2
v 19.2384 33.3186 4.2
v 18.117 33.2448 4.4
v 18.0966 33.4483 4.4
v 18.3589 33.2299 4.4
v 18.5963 33.1851 4.4
v 18.8172 33.1129 4.4
v 18.6478 33.4158 4.4
v 19.0095 33.016 4.4
v 19.2384 33.3186 4.4
v 16.9889 37.5 4.2
v 16.9889 37.5 4.4
v 16.9889 37.7426 4.2
v 16.9889 37.7426 4.4
v 19.7752 30 4.2
v 19.7752 30.1348 4.2
v 20.1795 30.2034 4.2
v 20.6703 30.2034 4.2
v 21.212 30 4.2
v 21.212 30.1348 4.2
v 19.7752 30 4.4
v 19.7752 30.1348 4.4
v 20.1795 30.2034 4.4
v 20.6703 30.2034 4.4
v 21.212 30 4.4
v 21.212 30.1348 4.4
v 20.6703 31.3376 4.2
v 20.6703 31.5665 4.2
v 21.0543 31.3376 4.2
v 20.9348 31.5665 4.2
v 21.3083 31.6154 4.2
v 20.6703 31.3376 4.4
v 20.6703 31.5665 4.4
v 21.0543 31.3376 4.4
v 20.9348 31.5665 4.4
v 21.3083 31.6154 4.4
v 22.6388 30 4.2
v 22.6388 30.1348 4.2
v 22.6388 30 4.4
v 22.6388 30.1348 4.4
v 21.5778 31.4056 4.2
v 21.5693 31.7623 4.2
v 21.9634 31.6097 4.2
v 21.7228 32.0198 4.2
v 21.725 32.7604 4.2
v 21.774 32.4006 4.2
v 22.2009 31.9447 4.2
v 22.28 32.4057 4.2
v 21.5778 31.4056 4.4
v 21.5693 31.7623 4.4
v 21.9634 31.6097 4.4
v 21.7228 32.0198 4.4
v 21.725 32.7604 4.4
v 21.774 32.4006 4.4
v 22.2009 31.9447 4.4
v 22.28 32.4057 4.4
v 23.0762 30.2034 4.2
v 23.3431 30.2034 4.2
v 23.8009 30 4.2
v 23.8009 30.1348 4.2
v 23.0762 30.2034 4.4
v 23.3431 30.2034 4.4
v 23.8009 30 4.4
v 23.8009 30.1348 4.4
v 25.4258 30.885 4.2
v 25.4462 30 4.2
v 25.6929 30 4.2
v 25.4258 30.885 4.4
v 25.4462 30 4.4
v 25.6929 30 4.4
v 19.7421 33.2754 4.2
v 19.7421 33.4101 4.2
v 20.1795 33.2092 4.2
v 20.6703 33.1812 4.2
v 20.9195 33.1812 4.2
v 21.3156 33.1361 4.2
v 21.0289 33.4101 4.2
v 19.7421 33.2754 4.4
v 19.7421 33.4101 4.4
v 20.1795 33.2092 4.4
v 20.6703 33.1812 4.4
v 20.9195 33.1812 4.4
v 21.3156 33.1361 4.4
v 21.0289 33.4101 4.4
v 21.5781 33.0007 4.2
v 21.9672 33.159 4.2
v 22.6388 33.2754 4.2
v 22.6388 33.4101 4.2
v 21.5781 33.0007 4.4
v 21.9672 33.159 4.4
v 22.6388 33.2754 4.4
v 22.6388 33.4101 4.4
v 19.9374 37.5 4.2
v 19.9374 37.5 4.4
v 19.9374 37.7426 4.2
v 20.6652 37.8662 4.2
v 19.9374 37.7426 4.4
v 20.6652 37.8662 4.4
v 22.5236 37.5 4.2
v 22.5236 37.5 4.4
v 21.5487 37.8662 4.2
v 22.5236 37.7426 4.2
v 21.5487 37.8662 4.4
v 22.5236 37.7426 4.4
v 23.0762 33.2092 4.2
v 23.3431 33.0668 4.2
v 23.6712 33.4101 4.2
v 23.0762 33.2092 4.4
v 23.3431 33.0668 4.4
v 23.6712 33.4101 4.4
v 24.9681 33.2754 4.2
v 24.9681 33.4101 4.2
v 25.4258 33.2092 4.2
v 25.6929 33.2092 4.2
v 26.1303 33.2754 4.2
v 26.1303 33.4101 4.2
v 24.9681 33.2754 4.4
v 24.9681 33.4101 4.4
v 25.4258 33.2092 4.4
v 25.6929 33.2092 4.4
v 26.1303 33.2754 4.4
v 26.1303 33.4101 4.4
v 25.1604 37.5 4.2
v 25.1604 37.5 4.4
v 25.1604 37.7426 4.2
v 25.9478 37.8662 4.2
v 25.1604 37.7426 4.4
v 25.9478 37.8662 4.4
v 15.3227 42.7777 4.2
v 15.2312 43.6382 4.2
v 16.2016 43.2766 4.2
v 15.3227 42.7777 4.4
v 15.2312 43.6382 4.4
v 16.2016 43.2766 4.4
v 16.9889 43.3957 4.2
v 16.9889 43.6382 4.2
v 16.9889 43.3957 4.4
v 16.9889 43.6382 4.4
v 21.5487 39.9077 4.2
v 21.5487 40.3197 4.2
v 22.0247 40.3197 4.2
v 22.2398 39.9077 4.2
v 22.8956 39.9621 4.2
v 22.4954 40.3588 4.2
v 22.876 40.4763 4.2
v 21.5487 39.9077 4.4
v 21.5487 40.3197 4.4
v 22.0247 40.3197 4.4
v 22.2398 39.9077 4.4
v 22.8956 39.9621 4.4
v 22.4954 40.3588 4.4
v 22.876 40.4763 4.4
v 19.8779 43.3957 4.2
v 19.8779 43.6382 4.2
v 20.6652 43.2766 4.2
v 19.8779 43.3957 4.4
v 19.8779 43.6382 4.4
v 20.6652 43.2766 4.4
v 21.5487 43.2262 4.2
v 21.9972 43.2262 4.2
v 22.4992 43.1901 4.2
v 22.8943 43.0818 4.2
v 22.194 43.6382 4.2
v 21.5487 43.2262 4.4
v 21.9972 43.2262 4.4
v 22.4992 43.1901 4.4
v 22.8943 43.0818 4.4
v 22.194 43.6382 4.4
v 23.4411 40.1253 4.2
v 23.1667 40.6721 4.2
v 23.3714 40.9564 4.2
v 23.8762 40.3974 4.2
v 24.1928 40.7743 4.2
v 23.4411 40.1253 4.4
v 23.1667 40.6721 4.4
v 23.3714 40.9564 4.4
v 23.8762 40.3974 4.4
v 24.1928 40.7743 4.4
v 23.4942 41.3394 4.2
v 23.5352 41.821 4.2
v 23.3785 42.6368 4.2
v 23.496 42.2767 4.2
v 24.3828 41.2519 4.2
v 24.4461 41.8302 4.2
v 23.4942 41.3394 4.4
v 23.5352 41.821 4.4
v 23.3785 42.6368 4.4
v 23.496 42.2767 4.4
v 24.3828 41.2519 4.4
v 24.4461 41.8302 4.4
v 23.1827 42.9012 4.2
v 23.4452 43.4374 4.2
v 24.1959 42.8347 4.2
v 23.1827 42.9012 4.4
v 23.4452 43.4374 4.4
v 24.1959 42.8347 4.4
v 25.1604 43.3957 4.2
v 25.1604 43.6382 4.2
v 25.9478 43.2766 4.2
v 25.1604 43.3957 4.4
v 25.1604 43.6382 4.4
v 25.9478 43.2766 4.4
v 52.5 0 0
v 27.7286 7.42118 4.2
v 27.8634 7.42118 4.2
v 27.7286 7.42118 4.4
v 27.8634 7.42118 4.4
v 26.8437 9.77089 4.2
v 26.8437 9.77089 4.4
v 29.4353 7.5 4.2
v 29.4353 7.63477 4.2
v 29.4353 7.5 4.4
v 29.4353 7.63477 4.4
v 27.9041 8.30614 4.2
v 27.9041 8.30614 4.4
v 26.9047 10.6711 4.2
v 27.0191 10.6711 4.2
v 26.9047 10.6711 4.4
v 27.0191 10.6711 4.4
v 28.1457 10.7754 4.2
v 28.1457 10.9101 4.2
v 28.6771 10.7092 4.2
v 28.9772 10.7092 4.2
v 29.2747 10.7754 4.2
v 29.2747 10.9101 4.2
v 29.4353 10.7754 4.2
v 29.4353 10.9101 4.2
v 28.1457 10.7754 4.4
v 28.1457 10.9101 4.4
v 28.6771 10.7092 4.4
v 28.9772 10.7092 4.4
v 29.2747 10.7754 4.4
v 29.2747 10.9101 4.4
v 29.4353 10.7754 4.4
v 29.4353 10.9101 4.4
v 29.8727 7.70344 4.2
v 30.1397 7.70344 4.2
v 30.5974 7.5 4.2
v 30.5974 7.63477 4.2
v 29.8727 7.70344 4.4
v 30.1397 7.70344 4.4
v 30.5974 7.5 4.4
v 30.5974 7.63477 4.4
v 32.2427 7.5 4.2
v 32.4894 7.5 4.2
v 32.2427 7.5 4.4
v 32.4894 7.5 4.4
v 32.2223 8.38496 4.2
v 32.2223 8.38496 4.4
v 30.1397 10.5668 4.2
v 29.8727 10.7092 4.2
v 30.4677 10.9101 4.2
v 30.1397 10.5668 4.4
v 29.8727 10.7092 4.4
v 30.4677 10.9101 4.4
v 31.7646 10.7754 4.2
v 31.7646 10.9101 4.2
v 32.2223 10.7092 4.2
v 32.4894 10.7092 4.2
v 31.7646 10.7754 4.4
v 31.7646 10.9101 4.4
v 32.2223 10.7092 4.4
v 32.4894 10.7092 4.4
v 33.1966 7.5 4.2
v 33.1966 7.63477 4.2
v 33.634 7.70344 4.2
v 33.901 7.70344 4.2
v 34.3587 7.5 4.2
v 34.3587 7.63477 4.2
v 33.1966 7.5 4.4
v 33.1966 7.63477 4.4
v 33.634 7.70344 4.4
v 33.901 7.70344 4.4
v 34.3587 7.5 4.4
v 34.3587 7.63477 4.4
v 36.004 7.5 4.2
v 36.004 7.5 4.4
v 35.9836 8.38496 4.2
v 35.9836 8.38496 4.4
v 32.9268 10.7754 4.2
v 32.9268 10.9101 4.2
v 33.1966 10.7754 4.2
v 33.1966 10.9101 4.2
v 33.901 10.5668 4.2
v 33.634 10.7092 4.2
v 34.229 10.9101 4.2
v 32.9268 10.7754 4.4
v 32.9268 10.9101 4.4
v 33.1966 10.7754 4.4
v 33.1966 10.9101 4.4
v 33.901 10.5668 4.4
v 33.634 10.7092 4.4
v 34.229 10.9101 4.4
v 35.5259 10.7754 4.2
v 35.5259 10.9101 4.2
v 35.9836 10.7092 4.2
v 35.5259 10.7754 4.4
v 35.5259 10.9101 4.4
v 35.9836 10.7092 4.4
v 36.2507 7.5 4.2
v 36.9578 7.5 4.2
v 36.9578 7.63477 4.2
v 37.3952 7.70344 4.2
v 37.6622 7.70344 4.2
v 36.2507 7.5 4.4
v 36.9578 7.5 4.4
v 36.9578 7.63477 4.4
v 37.3952 7.70344 4.4
v 37.6622 7.70344 4.4
v 38.12 7.5 4.2
v 38.12 7.63477 4.2
v 38.12 7.5 4.4
v 38.12 7.63477 4.4
v 36.2507 10.7092 4.2
v 36.6881 10.7754 4.2
v 36.6881 10.9101 4.2
v 37.6622 10.5668 4.2
v 36.9578 10.7754 4.2
v 36.9578 10.9101 4.2
v 37.3952 10.7092 4.2
v 36.2507 10.7092 4.4
v 36.6881 10.7754 4.4
v 36.6881 10.9101 4.4
v 37.6622 10.5668 4.4
v 36.9578 10.7754 4.4
v 36.9578 10.9101 4.4
v 37.3952 10.7092 4.4
v 37.9903 10.9101 4.2
v 39.2872 10.7754 4.2
v 39.2872 10.9101 4.2
v 37.9903 10.9101 4.4
v 39.2872 10.7754 4.4
v 39.2872 10.9101 4.4
v 26.7279 15 4.2
v 27.1755 15.2034 4.2
v 27.5442 15 4.2
v 27.5442 15.1348 4.2
v 27.7021 15 4.2
v 27.7021 15.1348 4.2
v 26.7279 15 4.4
v 27.1755 15.2034 4.4
v 27.5442 15 4.4
v 27.5442 15.1348 4.4
v 27.7021 15 4.4
v 27.7021 15.1348 4.4
v 28.1395 15.2034 4.2
v 28.4065 15.2034 4.2
v 28.8642 15 4.2
v 28.8642 15.1348 4.2
v 28.1395 15.2034 4.4
v 28.4065 15.2034 4.4
v 28.8642 15 4.4
v 28.8642 15.1348 4.4
v 26.2524 16.5665 4.2
v 26.5448 16.7009 4.2
v 26.2536 16.8932 4.2
v 26.3976 17.1205 4.2
v 26.7661 16.911 4.2
v 26.9053 17.1822 4.2
v 26.4456 17.4641 4.2
v 26.3983 17.7969 4.2
v 26.2562 18.0172 4.2
v 26.9517 17.4998 4.2
v 26.8754 17.9123 4.2
v 26.2524 16.5665 4.4
v 26.5448 16.7009 4.4
v 26.2536 16.8932 4.4
v 26.3976 17.1205 4.4
v 26.7661 16.911 4.4
v 26.9053 17.1822 4.4
v 26.4456 17.4641 4.4
v 26.3983 17.7969 4.4
v 26.2562 18.0172 4.4
v 26.9517 17.4998 4.4
v 26.8754 17.9123 4.4
v 26.2575 18.3561 4.2
v 26.6465 18.1939 4.2
v 27.7021 18.2754 4.2
v 27.7021 18.4101 4.2
v 26.2575 18.3561 4.4
v 26.6465 18.1939 4.4
v 27.7021 18.2754 4.4
v 27.7021 18.4101 4.4
v 28.4065 17.932 4.2
v 28.4065 17.932 4.4
v 28.1395 18.2092 4.2
v 28.7346 18.4101 4.2
v 28.1395 18.2092 4.4
v 28.7346 18.4101 4.4
v 29.6551 15 4.2
v 29.7441 15 4.2
v 29.8433 15.8163 4.2
v 30.6469 15 4.2
v 30.6469 15.1348 4.2
v 31.1046 15.2034 4.2
v 29.6551 15 4.4
v 29.7441 15 4.4
v 29.8433 15.8163 4.4
v 30.6469 15 4.4
v 30.6469 15.1348 4.4
v 31.1046 15.2034 4.4
v 31.5928 15.2034 4.2
v 32.0302 15 4.2
v 32.0302 15.1348 4.2
v 31.5928 15.2034 4.4
v 32.0302 15 4.4
v 32.0302 15.1348 4.4
v 31.1046 17.932 4.2
v 31.1046 17.932 4.4
v 31.0538 18.4101 4.2
v 31.0538 18.4101 4.4
v 31.5928 18.2092 4.2
v 32.0302 18.2754 4.2
v 32.0302 18.4101 4.2
v 31.5928 18.2092 4.4
v 32.0302 18.2754 4.4
v 32.0302 18.4101 4.4
v 26.9264 22.9005 4.2
v 27.4808 22.562 4.2
v 27.6947 22.7428 4.2
v 26.9264 22.9005 4.4
v 27.4808 22.562 4.4
v 27.6947 22.7428 4.4
v 28.2183 22.4492 4.2
v 28.2234 22.6449 4.2
v 28.505 22.6624 4.2
v 28.8406 22.4892 4.2
v 28.7701 22.7149 4.2
v 29.0002 22.7966 4.2
v 29.177 22.9018 4.2
v 29.4211 22.6094 4.2
v 28.2183 22.4492 4.4
v 28.2234 22.6449 4.4
v 28.505 22.6624 4.4
v 28.8406 22.4892 4.4
v 28.7701 22.7149 4.4
v 29.0002 22.7966 4.4
v 29.177 22.9018 4.4
v 29.4211 22.6094 4.4
v 26.5793 23.4425 4.2
v 26.4636 24.1656 4.2
v 26.9951 24.1707 4.2
v 27.3092 23.0366 4.2
v 27.0736 23.5159 4.2
v 26.5793 23.4425 4.4
v 26.4636 24.1656 4.4
v 26.9951 24.1707 4.4
v 27.3092 23.0366 4.4
v 27.0736 23.5159 4.4
v 26.5749 24.9384 4.2
v 27.0701 24.8713 4.2
v 26.9086 25.4969 4.2
v 27.2952 25.3608 4.2
v 27.4611 25.8354 4.2
v 27.6836 25.6488 4.2
v 26.5749 24.9384 4.4
v 27.0701 24.8713 4.4
v 26.9086 25.4969 4.4
v 27.2952 25.3608 4.4
v 27.4611 25.8354 4.4
v 27.6836 25.6488 4.4
v 29.271 23.4104 4.2
v 29.4363 23.4104 4.2
v 29.271 23.4104 4.4
v 29.4363 23.4104 4.4
v 28.2488 25.7448 4.2
v 28.2284 25.9483 4.2
v 28.4907 25.7299 4.2
v 29.2176 25.0735 4.2
v 29.3855 25.0735 4.2
v 28.7281 25.6851 4.2
v 28.949 25.6129 4.2
v 28.7796 25.9158 4.2
v 29.1414 25.516 4.2
v 29.3702 25.8186 4.2
v 28.2488 25.7448 4.4
v 28.2284 25.9483 4.4
v 28.4907 25.7299 4.4
v 29.2176 25.0735 4.4
v 29.3855 25.0735 4.4
v 28.7281 25.6851 4.4
v 28.949 25.6129 4.4
v 28.7796 25.9158 4.4
v 29.1414 25.516 4.4
v 29.3702 25.8186 4.4
v 29.907 22.5 4.2
v 29.907 22.6348 4.2
v 30.3114 22.7034 4.2
v 30.8022 22.7034 4.2
v 29.907 22.5 4.4
v 29.907 22.6348 4.4
v 30.3114 22.7034 4.4
v 30.8022 22.7034 4.4
v 31.3438 22.5 4.2
v 31.3438 22.6348 4.2
v 32.7706 22.5 4.2
v 32.7706 22.6348 4.2
v 31.3438 22.5 4.4
v 31.3438 22.6348 4.4
v 32.7706 22.5 4.4
v 32.7706 22.6348 4.4
v 30.8022 23.8376 4.2
v 30.8022 24.0665 4.2
v 31.0666 24.0665 4.2
v 30.8022 23.8376 4.4
v 30.8022 24.0665 4.4
v 31.0666 24.0665 4.4
v 29.874 25.7754 4.2
v 29.874 25.9101 4.2
v 30.3114 25.7092 4.2
v 30.8022 25.6812 4.2
v 31.0513 25.6812 4.2
v 31.1607 25.9101 4.2
v 29.874 25.7754 4.4
v 29.874 25.9101 4.4
v 30.3114 25.7092 4.4
v 30.8022 25.6812 4.4
v 31.0513 25.6812 4.4
v 31.1607 25.9101 4.4
v 31.1861 23.8376 4.2
v 31.4401 24.1154 4.2
v 31.7097 23.9056 4.2
v 31.7011 24.2623 4.2
v 31.8546 24.5198 4.2
v 32.0952 24.1097 4.2
v 32.3327 24.4447 4.2
v 31.1861 23.8376 4.4
v 31.4401 24.1154 4.4
v 31.7097 23.9056 4.4
v 31.7011 24.2623 4.4
v 31.8546 24.5198 4.4
v 32.0952 24.1097 4.4
v 32.3327 24.4447 4.4
v 31.9058 24.9006 4.2
v 31.8568 25.2604 4.2
v 31.4474 25.6361 4.2
v 31.71 25.5007 4.2
v 32.4118 24.9057 4.2
v 32.0991 25.659 4.2
v 32.7706 25.7754 4.2
v 32.7706 25.9101 4.2
v 31.9058 24.9006 4.4
v 31.8568 25.2604 4.4
v 31.4474 25.6361 4.4
v 31.71 25.5007 4.4
v 32.4118 24.9057 4.4
v 32.0991 25.659 4.4
v 32.7706 25.7754 4.4
v 32.7706 25.9101 4.4
v 33.208 22.7034 4.2
v 33.475 22.7034 4.2
v 33.9327 22.5 4.2
v 33.9327 22.6348 4.2
v 33.208 22.7034 4.4
v 33.475 22.7034 4.4
v 33.9327 22.5 4.4
v 33.9327 22.6348 4.4
v 35.578 22.5 4.2
v 35.8247 22.5 4.2
v 35.578 22.5 4.4
v 35.8247 22.5 4.4
v 33.208 25.7092 4.2
v 33.475 25.5668 4.2
v 33.803 25.9101 4.2
v 33.208 25.7092 4.4
v 33.475 25.5668 4.4
v 33.803 25.9101 4.4
v 35.5576 23.385 4.2
v 35.5576 23.385 4.4
v 35.0999 25.7754 4.2
v 35.0999 25.9101 4.2
v 35.5576 25.7092 4.2
v 35.8247 25.7092 4.2
v 35.0999 25.7754 4.4
v 35.0999 25.9101 4.4
v 35.5576 25.7092 4.4
v 35.8247 25.7092 4.4
v 36.2621 25.7754 4.2
v 36.2621 25.9101 4.2
v 36.2621 25.7754 4.4
v 36.2621 25.9101 4.4
v 39.7653 7.5 4.2
v 40.012 7.5 4.2
v 39.7653 7.5 4.4
v 40.012 7.5 4.4
v 39.7449 8.38496 4.2
v 39.7449 8.38496 4.4
v 39.7449 10.7092 4.2
v 40.012 10.7092 4.2
v 40.4494 10.7754 4.2
v 40.4494 10.9101 4.2
v 39.7449 10.7092 4.4
v 40.012 10.7092 4.4
v 40.4494 10.7754 4.4
v 40.4494 10.9101 4.4
v 52.5 0 4.2
v 52.5 52.5 0
v 26.5793 30.9425 4.2
v 26.9264 30.4005 4.2
v 27.4808 30.062 4.2
v 27.6947 30.2428 4.2
v 27.3092 30.5366 4.2
v 27.0736 31.0159 4.2
v 26.5793 30.9425 4.4
v 26.9264 30.4005 4.4
v 27.4808 30.062 4.4
v 27.6947 30.2428 4.4
v 27.3092 30.5366 4.4
v 27.0736 31.0159 4.4
v 26.4636 31.6656 4.2
v 26.9951 31.6707 4.2
v 26.5749 32.4384 4.2
v 27.0701 32.3713 4.2
v 26.4636 31.6656 4.4
v 26.9951 31.6707 4.4
v 26.5749 32.4384 4.4
v 27.0701 32.3713 4.4
v 28.2183 29.9492 4.2
v 28.2234 30.1449 4.2
v 28.505 30.1624 4.2
v 28.8406 29.9892 4.2
v 28.7701 30.2149 4.2
v 29.0002 30.2966 4.2
v 29.4211 30.1094 4.2
v 29.177 30.4018 4.2
v 29.271 30.9104 4.2
v 29.4363 30.9104 4.2
v 28.2183 29.9492 4.4
v 28.2234 30.1449 4.4
v 28.505 30.1624 4.4
v 28.8406 29.9892 4.4
v 28.7701 30.2149 4.4
v 29.0002 30.2966 4.4
v 29.4211 30.1094 4.4
v 29.177 30.4018 4.4
v 29.271 30.9104 4.4
v 29.4363 30.9104 4.4
v 29.2176 32.5735 4.2
v 29.3855 32.5735 4.2
v 29.2176 32.5735 4.4
v 29.3855 32.5735 4.4
v 29.907 30 4.2
v 29.907 30.1348 4.2
v 30.3114 30.2034 4.2
v 30.8022 30.2034 4.2
v 29.907 30 4.4
v 29.907 30.1348 4.4
v 30.3114 30.2034 4.4
v 30.8022 30.2034 4.4
v 30.8022 31.3376 4.2
v 30.8022 31.5665 4.2
v 31.0666 31.5665 4.2
v 30.8022 31.3376 4.4
v 30.8022 31.5665 4.4
v 31.0666 31.5665 4.4
v 31.3438 30 4.2
v 31.3438 30.1348 4.2
v 32.7706 30 4.2
v 32.7706 30.1348 4.2
v 31.3438 30 4.4
v 31.3438 30.1348 4.4
v 32.7706 30 4.4
v 32.7706 30.1348 4.4
v 31.1861 31.3376 4.2
v 31.4401 31.6154 4.2
v 31.7097 31.4056 4.2
v 31.7011 31.7623 4.2
v 31.8546 32.0198 4.2
v 31.9058 32.4006 4.2
v 31.8568 32.7604 4.2
v 32.0952 31.6097 4.2
v 32.3327 31.9447 4.2
v 32.4118 32.4057 4.2
v 31.1861 31.3376 4.4
v 31.4401 31.6154 4.4
v 31.7097 31.4056 4.4
v 31.7011 31.7623 4.4
v 31.8546 32.0198 4.4
v 31.9058 32.4006 4.4
v 31.8568 32.7604 4.4
v 32.0952 31.6097 4.4
v 32.3327 31.9447 4.4
v 32.4118 32.4057 4.4
v 26.9086 32.9969 4.2
v 27.2952 32.8608 4.2
v 27.4611 33.3354 4.2
v 27.6836 33.1488 4.2
v 26.9086 32.9969 4.4
v 27.2952 32.8608 4.4
v 27.4611 33.3354 4.4
v 27.6836 33.1488 4.4
v 28.2488 33.2448 4.2
v 28.2284 33.4483 4.2
v 28.4907 33.2299 4.2
v 28.7281 33.1851 4.2
v 28.949 33.1129 4.2
v 28.7796 33.4158 4.2
v 29.1414 33.016 4.2
v 29.3702 33.3186 4.2
v 28.2488 33.2448 4.4
v 28.2284 33.4483 4.4
v 28.4907 33.2299 4.4
v 28.7281 33.1851 4.4
v 28.949 33.1129 4.4
v 28.7796 33.4158 4.4
v 29.1414 33.016 4.4
v 29.3702 33.3186 4.4
v 27.6139 37.5 4.2
v 27.6139 37.5 4.4
v 26.8266 37.8662 4.2
v 27.6139 37.7426 4.2
v 26.8266 37.8662 4.4
v 27.6139 37.7426 4.4
v 28.6984 38.835 4.2
v 29.1612 38.2209 4.2
v 28.6984 38.835 4.4
v 29.1612 38.2209 4.4
v 29.874 33.2754 4.2
v 29.874 33.4101 4.2
v 30.3114 33.2092 4.2
v 30.8022 33.1812 4.2
v 31.0513 33.1812 4.2
v 31.1607 33.4101 4.2
v 29.874 33.2754 4.4
v 29.874 33.4101 4.4
v 30.3114 33.2092 4.4
v 30.8022 33.1812 4.4
v 31.0513 33.1812 4.4
v 31.1607 33.4101 4.4
v 31.4474 33.1361 4.2
v 31.71 33.0007 4.2
v 32.0991 33.159 4.2
v 32.7706 33.2754 4.2
v 32.7706 33.4101 4.2
v 31.4474 33.1361 4.4
v 31.71 33.0007 4.4
v 32.0991 33.159 4.4
v 32.7706 33.2754 4.4
v 32.7706 33.4101 4.4
v 30.565 37.4987 4.2
v 30.565 37.4987 4.4
v 29.7899 37.7696 4.2
v 29.8501 38.4658 4.2
v 30.2842 38.0742 4.2
v 29.5361 39.0059 4.2
v 30.8328 37.8392 4.2
v 29.7899 37.7696 4.4
v 29.8501 38.4658 4.4
v 30.2842 38.0742 4.4
v 29.5361 39.0059 4.4
v 30.8328 37.8392 4.4
v 31.4865 37.4085 4.2
v 32.2418 37.4405 4.2
v 31.4865 37.4085 4.4
v 32.2418 37.4405 4.4
v 31.4957 37.7609 4.2
v 31.837 37.7749 4.2
v 32.165 37.8168 4.2
v 32.4798 37.8868 4.2
v 32.7667 37.9801 4.2
v 31.4957 37.7609 4.4
v 31.837 37.7749 4.4
v 32.165 37.8168 4.4
v 32.4798 37.8868 4.4
v 32.7667 37.9801 4.4
v 33.208 30.2034 4.2
v 33.475 30.2034 4.2
v 33.9327 30 4.2
v 33.9327 30.1348 4.2
v 33.208 30.2034 4.4
v 33.475 30.2034 4.4
v 33.9327 30 4.4
v 33.9327 30.1348 4.4
v 35.578 30 4.2
v 35.8247 30 4.2
v 35.5576 30.885 4.2
v 35.578 30 4.4
v 35.8247 30 4.4
v 35.5576 30.885 4.4
v 33.208 33.2092 4.2
v 33.475 33.0668 4.2
v 33.803 33.4101 4.2
v 33.208 33.2092 4.4
v 33.475 33.0668 4.4
v 33.803 33.4101 4.4
v 35.0999 33.2754 4.2
v 35.0999 33.4101 4.2
v 35.5576 33.2092 4.2
v 35.8247 33.2092 4.2
v 35.0999 33.2754 4.4
v 35.0999 33.4101 4.4
v 35.5576 33.2092 4.4
v 35.8247 33.2092 4.4
v 32.9635 37.5366 4.2
v 33.6516 37.6968 4.2
v 32.9635 37.5366 4.4
v 33.6516 37.6968 4.4
v 33.0108 38.0922 4.2
v 33.2122 38.2232 4.2
v 33.3815 39.1387 4.2
v 33.6791 39.1387 4.2
v 33.0108 38.0922 4.4
v 33.2122 38.2232 4.4
v 33.3815 39.1387 4.4
v 33.6791 39.1387 4.4
v 34.6957 37.6053 4.2
v 35.2246 37.4959 4.2
v 35.7739 37.4303 4.2
v 34.6957 37.6053 4.4
v 35.2246 37.4959 4.4
v 35.7739 37.4303 4.4
v 35.1534 38.0355 4.2
v 34.6453 38.8961 4.2
v 34.9474 38.8961 4.2
v 35.4576 37.9135 4.2
v 35.289 37.9715 4.2
v 35.6592 37.8616 4.2
v 35.8726 37.8209 4.2
v 36.0763 37.7965 4.2
v 35.1534 38.0355 4.4
v 34.6453 38.8961 4.4
v 34.9474 38.8961 4.4
v 35.4576 37.9135 4.4
v 35.289 37.9715 4.4
v 35.6592 37.8616 4.4
v 35.8726 37.8209 4.4
v 36.0763 37.7965 4.4
v 36.2621 33.2754 4.2
v 36.2621 33.4101 4.2
v 36.2621 33.2754 4.4
v 36.2621 33.4101 4.4
v 36.3435 37.4085 4.2
v 36.9838 37.4603 4.2
v 37.5194 37.616 4.2
v 36.3435 37.4085 4.4
v 36.9838 37.4603 4.4
v 37.5194 37.616 4.4
v 36.2703 37.7884 4.2
v 36.7077 37.825 4.2
v 37.0617 37.9348 4.2
v 37.3323 38.1179 4.2
v 37.523 38.3865 4.2
v 37.6374 38.7527 4.2
v 37.6756 39.2165 4.2
v 36.2703 37.7884 4.4
v 36.7077 37.825 4.4
v 37.0617 37.9348 4.4
v 37.3323 38.1179 4.4
v 37.523 38.3865 4.4
v 37.6374 38.7527 4.4
v 37.6756 39.2165 4.4
v 39.2962 37.5 4.2
v 39.2962 37.5 4.4
v 37.9501 37.8754 4.2
v 38.2655 38.2268 4.2
v 38.4547 38.6586 4.2
v 38.5178 39.1708 4.2
v 39.2962 38.1728 4.2
v 37.9501 37.8754 4.4
v 38.2655 38.2268 4.4
v 38.4547 38.6586 4.4
v 38.5178 39.1708 4.4
v 39.2962 38.1728 4.4
v 28.4207 39.5941 4.2
v 28.3282 40.4981 4.2
v 29.3476 39.6865 4.2
v 29.2848 40.5073 4.2
v 28.4207 39.5941 4.4
v 28.3282 40.4981 4.4
v 29.3476 39.6865 4.4
v 29.2848 40.5073 4.4
v 28.4172 41.4683 4.2
v 28.6842 42.267 4.2
v 29.3448 41.3902 4.2
v 29.5249 42.1043 4.2
v 28.4172 41.4683 4.4
v 28.6842 42.267 4.4
v 29.3448 41.3902 4.4
v 29.5249 42.1043 4.4
v 26.8266 43.2766 4.2
v 27.6139 43.3957 4.2
v 27.6139 43.6382 4.2
v 26.8266 43.2766 4.4
v 27.6139 43.3957 4.4
v 27.6139 43.6382 4.4
v 29.1292 42.8944 4.2
v 29.1292 42.8944 4.4
v 29.825 42.6495 4.2
v 29.825 42.6495 4.4
v 29.7492 43.3458 4.2
v 30.2558 43.0335 4.2
v 30.8279 43.2639 4.2
v 30.5411 43.6166 4.2
v 29.7492 43.3458 4.4
v 30.2558 43.0335 4.4
v 30.8279 43.2639 4.4
v 30.5411 43.6166 4.4
v 31.5415 43.3407 4.2
v 31.8327 43.3288 4.2
v 31.5048 43.7069 4.2
v 32.1203 43.2929 4.2
v 32.4043 43.2331 4.2
v 32.6751 43.1515 4.2
v 32.1584 43.681 4.2
v 31.5415 43.3407 4.4
v 31.8327 43.3288 4.4
v 31.5048 43.7069 4.4
v 32.1203 43.2929 4.4
v 32.4043 43.2331 4.4
v 32.6751 43.1515 4.4
v 32.1584 43.681 4.4
v 33.2854 42.1323 4.2
v 33.5876 42.1323 4.2
v 33.2854 42.1323 4.4
v 33.5876 42.1323 4.4
v 35.7255 40.5164 4.2
v 35.7255 40.8918 4.2
v 35.7255 40.5164 4.4
v 35.7255 40.8918 4.4
v 34.833 42.3291 4.2
v 35.1351 42.3291 4.2
v 34.833 42.3291 4.4
v 35.1351 42.3291 4.4
v 32.9231 43.0501 4.2
v 33.1481 42.9288 4.2
v 33.5601 43.4734 4.2
v 32.8435 43.6031 4.2
v 32.9231 43.0501 4.4
v 33.1481 42.9288 4.4
v 33.5601 43.4734 4.4
v 32.8435 43.6031 4.4
v 34.833 43.5101 4.2
v 35.1213 43.5805 4.2
v 35.2953 43.0798 4.2
v 35.4367 43.1482 4.2
v 35.5923 43.2069 4.2
v 35.7622 43.256 4.2
v 35.9366 43.2929 4.2
v 35.3822 43.6331 4.2
v 35.6157 43.6679 4.2
v 35.8349 43.6896 4.2
v 36.0531 43.7026 4.2
v 34.833 43.5101 4.4
v 35.1213 43.5805 4.4
v 35.2953 43.0798 4.4
v 35.4367 43.1482 4.4
v 35.5923 43.2069 4.4
v 35.7622 43.256 4.4
v 35.9366 43.2929 4.4
v 35.3822 43.6331 4.4
v 35.6157 43.6679 4.4
v 35.8349 43.6896 4.4
v 36.0531 43.7026 4.4
v 36.3802 40.4799 4.2
v 36.3802 40.933 4.2
v 36.784 40.4272 4.2
v 36.695 40.9808 4.2
v 36.8973 40.7133 4.2
v 37.6405 39.587 4.2
v 37.3597 40.1343 4.2
v 37.5352 39.8929 4.2
v 37.1105 40.312 4.2
v 37.2923 40.8061 4.2
v 37.4039 40.6174 4.2
v 37.6226 40.9625 4.2
v 36.3802 40.4799 4.4
v 36.3802 40.933 4.4
v 36.784 40.4272 4.4
v 36.695 40.9808 4.4
v 36.8973 40.7133 4.4
v 37.6405 39.587 4.4
v 37.3597 40.1343 4.4
v 37.5352 39.8929 4.4
v 37.1105 40.312 4.4
v 37.2923 40.8061 4.4
v 37.4039 40.6174 4.4
v 37.6226 40.9625 4.4
v 36.9497 41.0876 4.2
v 37.1445 41.2534 4.2
v 37.2819 41.4823 4.2
v 37.3643 41.7783 4.2
v 37.3917 42.1414 4.2
v 37.362 42.516 4.2
v 36.9497 41.0876 4.4
v 37.1445 41.2534 4.4
v 37.2819 41.4823 4.4
v 37.3643 41.7783 4.4
v 37.3917 42.1414 4.4
v 37.362 42.516 4.4
v 38.474 39.5921 4.2
v 38.3428 39.9469 4.2
v 37.8128 40.458 4.2
v 38.1241 40.235 4.2
v 38.474 39.5921 4.4
v 38.3428 39.9469 4.4
v 37.8128 40.458 4.4
v 38.1241 40.235 4.4
v 37.8883 41.1825 4.2
v 38.0829 41.463 4.2
v 38.1996 41.8009 4.2
v 38.2385 42.1964 4.2
v 37.8883 41.1825 4.4
v 38.0829 41.463 4.4
v 38.1996 41.8009 4.4
v 38.2385 42.1964 4.4
v 36.106 43.315 4.2
v 36.2703 43.3224 4.2
v 36.6255 43.2911 4.2
v 36.9101 43.1973 4.2
v 36.2703 43.7069 4.2
v 37.2727 42.8158 4.2
v 37.1239 43.0409 4.2
v 37.3637 43.5391 4.2
v 36.106 43.315 4.4
v 36.2703 43.3224 4.4
v 36.6255 43.2911 4.4
v 36.9101 43.1973 4.4
v 36.2703 43.7069 4.4
v 37.2727 42.8158 4.4
v 37.1239 43.0409 4.4
v 37.3637 43.5391 4.4
v 38.0198 43.0356 4.2
v 38.0198 43.0356 4.4
v 39.8959 38.2049 4.2
v 40.1476 38.9465 4.2
v 40.1955 38.475 4.2
v 40.4838 38.7298 4.2
v 40.761 38.9693 4.2
v 39.8959 38.2049 4.4
v 40.1476 38.9465 4.4
v 40.1955 38.475 4.4
v 40.4838 38.7298 4.4
v 40.761 38.9693 4.4
v 43.0542 37.5 4.2
v 43.0542 37.5 4.4
v 43.0542 38.2049 4.2
v 43.0542 38.2049 4.4
v 40.6455 39.395 4.2
v 40.6455 39.395 4.4
v 39.5022 42.3291 4.2
v 39.8043 42.3291 4.2
v 39.5022 42.3291 4.4
v 39.8043 42.3291 4.4
v 41.0468 39.7826 4.2
v 41.3357 39.4695 4.2
v 41.3515 40.1091 4.2
v 41.7904 39.8899 4.2
v 41.5836 40.4081 4.2
v 41.7675 40.7133 4.2
v 42.125 40.2304 4.2
v 42.376 40.5315 4.2
v 42.5797 40.8336 4.2
v 41.0468 39.7826 4.4
v 41.3357 39.4695 4.4
v 41.3515 40.1091 4.4
v 41.7904 39.8899 4.4
v 41.5836 40.4081 4.4
v 41.7675 40.7133 4.4
v 42.125 40.2304 4.4
v 42.376 40.5315 4.4
v 42.5797 40.8336 4.4
v 41.903 41.0245 4.2
v 41.9959 41.3541 4.2
v 42.0516 41.7142 4.2
v 42.0701 42.1048 4.2
v 42.0401 42.47 4.2
v 41.903 41.0245 4.4
v 41.9959 41.3541 4.4
v 42.0516 41.7142 4.4
v 42.0701 42.1048 4.4
v 42.0401 42.47 4.4
v 39.9645 43.0798 4.2
v 40.1024 43.1482 4.2
v 39.5022 43.5101 4.2
v 40.0297 43.6194 4.2
v 40.2534 43.2069 4.2
v 40.4177 43.256 4.2
v 40.5871 43.2929 4.2
v 40.7534 43.315 4.2
v 40.9166 43.3224 4.2
v 40.5011 43.685 4.2
v 40.9166 43.7069 4.2
v 39.9645 43.0798 4.4
v 40.1024 43.1482 4.4
v 39.5022 43.5101 4.4
v 40.0297 43.6194 4.4
v 40.2534 43.2069 4.4
v 40.4177 43.256 4.4
v 40.5871 43.2929 4.4
v 40.7534 43.315 4.4
v 40.9166 43.3224 4.4
v 40.5011 43.685 4.4
v 40.9166 43.7069 4.4
v 41.2874 43.2878 4.2
v 41.8001 43.0111 4.2
v 41.5819 43.1841 4.2
v 41.5323 43.6604 4.2
v 41.9501 42.7721 4.2
v 42.4294 43.2881 4.2
v 42.0366 43.5207 4.2
v 41.2874 43.2878 4.4
v 41.8001 43.0111 4.4
v 41.5819 43.1841 4.4
v 41.5323 43.6604 4.4
v 41.9501 42.7721 4.4
v 42.4294 43.2881 4.4
v 42.0366 43.5207 4.4
v 42.7361 41.1367 4.2
v 42.8467 41.4467 4.2
v 42.9131 41.7694 4.2
v 42.9352 42.1048 4.2
v 42.879 42.576 4.2
v 42.7361 41.1367 4.4
v 42.8467 41.4467 4.4
v 42.9131 41.7694 4.4
v 42.9352 42.1048 4.4
v 42.879 42.576 4.4
v 42.7104 42.9704 4.2
v 42.7104 42.9704 4.4
v 52.5 52.5 4.2
f  2 3 4
f  2 4 7
f  2 17 3
f  2 51 17
f  2 65 51
f  2 91 65
f  2 7 8
f  9 7 4
f  9 4 23
f  1 2 444
f  2 8 404
f  8 147 386
f  1 1140 2
f  2 92 91
f  2 97 92
f  2 98 97
f  2 117 98
f  2 118 117
f  2 748 118
f  2 749 748
f  2 754 749
f  15 23 4
f  16 43 24
f  17 59 18
f  52 17 51
f  53 17 52
f  16 18 43
f  43 18 59
f  25 29 10
f  29 32 30
f  25 37 29
f  32 29 31
f  37 31 29
f  24 43 38
f  38 43 39
f  39 42 40
f  42 39 41
f  43 41 39
f  53 59 17
f  65 91 66
f  54 66 103
f  54 103 60
f  103 66 91
f  61 70 69
f  61 77 70
f  70 76 71
f  76 70 75
f  77 75 70
f  40 42 216
f  71 216 42
f  60 79 78
f  60 80 79
f  60 103 80
f  79 82 81
f  82 79 80
f  71 76 215
f  81 215 76
f  2 782 754
f  2 788 782
f  2 789 788
f  2 808 789
f  92 97 101
f  95 105 104
f  95 111 105
f  105 111 106
f  81 82 215
f  106 215 82
f  115 123 112
f  112 123 124
f  106 111 223
f  112 223 111
f  112 124 226
f  139 98 117
f  98 127 126
f  98 128 127
f  98 139 128
f  115 125 123
f  127 130 129
f  130 127 128
f  129 226 124
f  129 130 249
f  121 141 140
f  121 760 141
f  141 760 142
f  142 249 130
f  30 149 8
f  30 32 150
f  40 150 32
f  171 8 149
f  147 8 171
f  149 30 150
f  40 216 155
f  71 215 216
f  40 155 150
f  239 158 155
f  290 162 289
f  151 201 172
f  173 201 174
f  172 201 173
f  174 201 180
f  180 201 181
f  181 201 184
f  156 201 151
f  157 202 156
f  159 202 157
f  156 202 201
f  160 202 159
f  161 202 160
f  161 191 202
f  192 315 191
f  162 317 192
f  184 201 195
f  195 201 196
f  196 201 198
f  198 203 199
f  203 198 201
f  191 315 202
f  202 315 204
f  316 204 315
f  215 106 223
f  217 239 216
f  112 226 223
f  218 224 227
f  218 227 225
f  223 227 224
f  227 223 226
f  225 227 245
f  225 245 228
f  239 155 216
f  235 236 240
f  129 247 226
f  129 249 247
f  250 247 249
f  247 250 248
f  248 279 246
f  279 248 250
f  257 279 250
f  249 142 259
f  142 878 259
f  258 260 269
f  259 878 260
f  272 260 878
f  269 260 272
f  246 265 241
f  246 279 265
f  266 241 265
f  281 280 270
f  283 270 271
f  271 273 905
f  273 900 901
f  283 281 270
f  271 906 283
f  271 905 906
f  158 239 162
f  162 239 289
f  289 239 293
f  291 162 290
f  241 293 239
f  241 301 293
f  241 355 301
f  293 302 294
f  302 293 301
f  291 317 162
f  292 294 305
f  305 294 307
f  307 294 329
f  308 309 306
f  309 330 306
f  330 331 306
f  317 315 192
f  319 318 306
f  339 341 306
f  320 319 306
f  341 320 306
f  294 302 329
f  329 302 332
f  331 340 306
f  332 353 333
f  332 302 353
f  333 353 343
f  343 353 365
f  340 339 306
f  343 344 342
f  345 342 344
f  343 365 344
f  241 266 355
f  282 355 266
f  355 361 356
f  282 361 355
f  920 362 282
f  361 282 362
f  356 366 354
f  366 356 361
f  374 367 373
f  985 362 984
f  362 985 994
f  362 994 376
f  371 373 367
f  371 375 373
f  376 994 377
f  1 444 385
f  1 385 1141
f  385 444 1141
f  2 407 430
f  2 430 431
f  2 404 406
f  2 406 407
f  2 431 444
f  8 405 404
f  8 412 405
f  8 386 412
f  386 479 390
f  390 398 394
f  474 394 398
f  412 386 413
f  413 388 414
f  414 388 415
f  415 388 420
f  444 431 432
f  444 432 433
f  444 433 434
f  444 434 440
f  444 440 441
f  444 441 445
f  444 445 446
f  444 446 447
f  444 448 464
f  444 447 448
f  388 413 386
f  392 420 388
f  420 392 421
f  392 422 421
f  454 392 469
f  392 473 469
f  392 423 422
f  392 424 423
f  392 453 424
f  392 454 453
f  454 469 470
f  454 475 456
f  456 475 455
f  454 470 475
f  394 474 393
f  402 674 475
f  455 475 674
f  680 465 674
f  455 674 457
f  457 674 465
f  179 386 147
f  182 386 179
f  182 482 386
f  183 481 182
f  197 485 183
f  200 485 197
f  182 481 482
f  183 485 481
f  204 485 200
f  204 316 485
f  316 499 485
f  316 503 499
f  316 505 503
f  316 559 505
f  486 519 483
f  484 519 493
f  483 519 484
f  493 519 495
f  495 519 532
f  500 519 486
f  501 519 500
f  502 519 501
f  504 519 502
f  560 505 559
f  506 519 504
f  505 561 508
f  506 507 519
f  508 519 507
f  561 519 508
f  519 561 520
f  479 386 482
f  494 390 479
f  390 494 398
f  398 494 399
f  399 531 523
f  531 399 494
f  523 531 534
f  525 399 523
f  399 525 527
f  532 519 533
f  523 534 540
f  523 540 544
f  523 544 546
f  533 519 539
f  539 519 541
f  541 519 542
f  545 543 542
f  545 542 519
f  520 615 546
f  616 546 615
f  555 546 616
f  621 555 616
f  546 555 523
f  528 557 639
f  555 621 557
f  557 621 637
f  639 557 637
f  321 559 316
f  321 563 559
f  342 563 321
f  342 345 563
f  563 345 367
f  563 374 564
f  573 564 378
f  505 560 561
f  562 564 571
f  571 564 573
f  561 615 520
f  561 617 615
f  572 574 575
f  575 586 572
f  586 588 572
f  619 618 572
f  620 619 572
f  629 620 572
f  589 629 572
f  582 573 581
f  582 585 573
f  585 582 587
f  587 582 601
f  588 590 572
f  590 589 572
f  587 601 591
f  591 601 649
f  591 649 592
f  563 367 374
f  564 374 378
f  573 998 581
f  573 378 998
f  998 603 581
f  604 650 602
f  603 610 604
f  650 604 610
f  1154 611 1142
f  609 655 651
f  609 657 655
f  611 1154 1156
f  611 1156 659
f  611 659 658
f  630 637 621
f  592 631 630
f  632 630 631
f  592 649 631
f  630 632 637
f  643 632 651
f  637 632 643
f  645 646 683
f  683 646 686
f  646 687 686
f  656 651 655
f  643 651 656
f  643 656 660
f  643 660 1237
f  643 1262 667
f  643 669 646
f  643 667 669
f  646 669 687
f  687 669 713
f  716 669 670
f  399 527 673
f  528 679 675
f  528 699 679
f  528 639 699
f  679 698 680
f  698 679 697
f  699 697 679
f  444 464 1664
f  640 699 639
f  685 688 684
f  688 689 684
f  684 689 714
f  684 714 715
f  684 715 723
f  704 703 684
f  705 704 684
f  684 723 724
f  684 724 726
f  684 726 725
f  684 706 705
f  684 735 706
f  684 725 735
f  713 669 716
f  716 670 717
f  717 670 727
f  727 670 728
f  670 743 728
f  728 741 737
f  737 742 736
f  737 741 742
f  741 728 743
f  1664 464 463
f  1664 463 465
f  1664 465 680
f  1 747 1140
f  1 1141 747
f  747 1141 1140
f  2 1140 808
f  752 118 748
f  755 749 754
f  749 768 767
f  749 755 795
f  749 770 768
f  749 795 770
f  758 764 761
f  765 761 764
f  142 760 878
f  761 878 760
f  761 765 882
f  758 766 764
f  768 771 769
f  771 768 770
f  769 882 765
f  769 771 892
f  782 788 783
f  780 795 755
f  783 794 781
f  794 783 788
f  789 824 803
f  796 935 771
f  937 796 801
f  792 800 796
f  801 796 800
f  792 802 800
f  825 947 801
f  947 825 827
f  809 789 808
f  789 809 829
f  810 829 809
f  789 826 824
f  789 829 826
f  813 828 811
f  812 820 813
f  828 813 820
f  824 827 825
f  827 824 826
f  947 827 830
f  948 830 839
f  822 838 830
f  839 830 838
f  822 840 838
f  860 948 839
f  846 844 845
f  844 846 864
f  844 859 858
f  844 862 859
f  844 864 862
f  847 864 846
f  854 1126 855
f  855 861 848
f  861 855 1126
f  859 863 860
f  863 859 862
f  1130 873 872
f  874 872 873
f  878 761 880
f  761 882 880
f  898 879 899
f  883 880 882
f  880 883 881
f  881 930 879
f  930 881 883
f  769 892 882
f  771 934 892
f  890 930 883
f  893 928 891
f  892 934 893
f  928 893 934
f  273 901 904
f  904 905 273
f  879 930 899
f  899 930 902
f  902 930 903
f  903 922 907
f  907 922 908
f  922 903 930
f  908 923 921
f  908 922 923
f  934 771 935
f  796 937 935
f  938 935 937
f  935 938 952
f  939 952 938
f  937 801 947
f  947 830 948
f  956 946 948
f  936 954 931
f  921 963 920
f  920 962 362
f  920 963 962
f  921 923 963
f  963 923 968
f  984 362 962
f  987 964 969
f  931 968 923
f  968 931 971
f  971 931 975
f  931 1030 975
f  988 969 970
f  988 970 972
f  988 987 969
f  1006 986 988
f  1006 995 986
f  995 1006 997
f  996 377 994
f  998 378 377
f  998 377 996
f  988 972 973
f  988 973 974
f  988 974 1006
f  1007 999 1006
f  1013 1007 1014
f  997 1006 999
f  999 1007 1010
f  1010 1007 1012
f  1012 1007 1015
f  1015 1007 1018
f  1018 1007 1013
f  1015 1018 1016
f  1030 931 954
f  1030 954 958
f  1031 975 1030
f  1038 1041 1039
f  1041 1038 1040
f  975 1031 1054
f  1032 1054 1031
f  975 1054 1007
f  1033 1039 1046
f  1046 1039 1064
f  1048 1065 1047
f  1007 1052 1014
f  1054 1052 1007
f  1014 1052 1019
f  1056 1055 1047
f  1080 1056 1047
f  1064 1039 1066
f  1039 1041 1066
f  1065 1067 1047
f  1067 1068 1047
f  1068 1078 1047
f  1066 1041 1069
f  1094 1069 1041
f  1069 1094 1070
f  1078 1079 1047
f  1079 1081 1047
f  1081 1080 1047
f  1070 1106 1082
f  1082 1084 1083
f  1085 1083 1084
f  1084 1082 1106
f  956 948 860
f  956 874 957
f  957 874 958
f  956 860 863
f  956 863 872
f  1030 958 1135
f  956 872 874
f  1135 958 874
f  1140 1038 1030
f  1140 1040 1038
f  1096 1102 1097
f  1097 1107 1095
f  1070 1094 1106
f  1107 1097 1102
f  1112 1114 1108
f  1115 1108 1114
f  1112 1116 1114
f  1103 1122 1117
f  1140 812 808
f  1140 820 812
f  1140 844 820
f  1140 845 844
f  1140 854 845
f  1140 1126 854
f  1140 1127 1126
f  1140 1134 1127
f  1127 1134 1133
f  1130 1132 873
f  1140 1030 1135
f  1140 1135 1134
f  1140 1096 1040
f  1140 1102 1096
f  1140 1103 1102
f  1140 1122 1103
f  1140 1123 1122
f  1140 1319 1123
f  1140 1372 1319
f  1140 1373 1372
f  1140 1578 1373
f  1140 1580 1578
f  1011 603 998
f  1017 603 1011
f  1019 603 1017
f  1019 1052 603
f  1052 610 603
f  1052 611 610
f  1053 1144 611
f  1053 611 1052
f  1053 1162 1144
f  1053 1165 1162
f  1053 1168 1165
f  1143 611 1144
f  1142 611 1143
f  1146 1182 1147
f  1147 1182 1155
f  1155 1182 1157
f  1157 1182 1229
f  1145 1182 1146
f  1163 1182 1145
f  1164 1183 1163
f  1166 1183 1164
f  1167 1183 1166
f  1169 1183 1167
f  1163 1183 1182
f  1169 1170 1183
f  1171 1262 1170
f  1170 1262 1183
f  1057 1186 1053
f  1083 1186 1057
f  1053 1186 1168
f  1083 1085 1186
f  1108 1200 1085
f  1085 1200 1186
f  1187 1168 1186
f  1168 1187 1188
f  1189 1201 1194
f  1194 1201 1208
f  1168 1264 1171
f  1168 1188 1264
f  1264 1262 1171
f  1196 1209 1195
f  1266 1265 1195
f  1274 1266 1195
f  1200 1203 1201
f  1208 1201 1210
f  1201 1203 1210
f  1203 1200 1202
f  1210 1203 1215
f  1310 1215 1203
f  1209 1211 1195
f  1211 1212 1195
f  1212 1213 1195
f  1213 1214 1195
f  1275 1274 1195
f  1214 1275 1195
f  1215 1310 1216
f  1216 1310 1217
f  1228 659 1156
f  659 1228 660
f  1230 660 1228
f  1237 660 1230
f  643 1237 1241
f  643 1241 1243
f  643 1243 1262
f  1229 1182 1231
f  1231 1182 1236
f  1236 1182 1238
f  1238 1182 1239
f  1242 1239 1182
f  1242 1240 1239
f  1263 667 1262
f  667 1263 1252
f  1254 1255 1409
f  1252 1263 1286
f  1252 1259 1255
f  1258 1255 1259
f  1408 1255 1258
f  1409 1255 1408
f  1259 1252 1286
f  1183 1262 1243
f  1217 1277 1276
f  1277 1217 1324
f  1278 1276 1277
f  1267 1350 1263
f  1296 1263 1297
f  1276 1350 1267
f  1286 1263 1284
f  1284 1263 1296
f  1297 1263 1338
f  1338 1263 1339
f  1350 1339 1263
f  1290 1456 1288
f  1300 1457 1290
f  1301 1457 1300
f  1302 1457 1301
f  1303 1457 1302
f  1108 1115 1200
f  1115 1202 1200
f  1115 1312 1202
f  1123 1318 1115
f  1115 1318 1312
f  1123 1319 1318
f  1313 1325 1311
f  1325 1313 1318
f  1310 1324 1217
f  1312 1318 1313
f  1320 1330 1326
f  1320 1332 1330
f  1319 1372 1333
f  1276 1278 1350
f  1326 1350 1278
f  1331 1326 1330
f  1326 1331 1351
f  1351 1331 1373
f  1304 1457 1303
f  1339 1350 1357
f  1339 1357 1345
f  1358 1345 1357
f  1350 1326 1351
f  1351 1373 1352
f  1361 1356 1359
f  1359 1356 1360
f  1362 1356 1361
f  1363 1358 1356
f  1363 1356 1362
f  1382 1358 1363
f  1383 1358 1382
f  1345 1358 1388
f  1352 1373 1376
f  1376 1373 1377
f  1377 1373 1378
f  1378 1373 1398
f  1384 1358 1383
f  1385 1358 1384
f  1386 1358 1385
f  1503 1345 1388
f  1387 1358 1386
f  1388 1358 1387
f  1373 1396 1398
f  1398 1402 1399
f  1398 1396 1402
f  1399 1402 1400
f  1400 1569 1401
f  1569 1400 1402
f  444 1664 1141
f  1254 1409 1416
f  1254 1425 1424
f  1254 1417 1425
f  1254 1416 1417
f  1425 1430 1426
f  1430 1425 1417
f  1434 1426 1430
f  1437 1426 1434
f  1288 1456 1287
f  1287 1456 1289
f  1289 1456 1410
f  1410 1456 1411
f  1411 1456 1418
f  1418 1456 1419
f  1419 1456 1432
f  1432 1456 1435
f  1290 1457 1456
f  1444 1426 1437
f  1435 1456 1436
f  1436 1456 1442
f  1442 1456 1443
f  1443 1456 1445
f  1445 1456 1446
f  1446 1469 1447
f  1664 680 698
f  1664 698 707
f  1664 707 736
f  1342 1457 1304
f  1343 1457 1342
f  1343 1344 1457
f  1345 1457 1344
f  1345 1460 1457
f  1460 1345 1498
f  1498 1345 1500
f  1500 1345 1506
f  1506 1345 1504
f  1461 1457 1460
f  1499 1457 1461
f  1464 1457 1465
f  1501 1457 1499
f  1522 1457 1501
f  1523 1457 1522
f  1457 1523 1465
f  1469 1446 1456
f  1447 1469 1468
f  1457 1476 1470
f  1476 1457 1464
f  1465 1479 1478
f  1465 1480 1479
f  1480 1465 1481
f  1481 1465 1482
f  1482 1465 1550
f  1550 1465 1551
f  1551 1465 1552
f  1505 1345 1503
f  1504 1345 1505
f  1502 1508 1507
f  1536 1507 1508
f  1536 1509 1507
f  1524 1465 1523
f  1525 1465 1524
f  1526 1465 1525
f  1527 1465 1526
f  1555 1465 1527
f  1509 1536 1537
f  1509 1537 1542
f  1534 1582 1535
f  1401 1582 1534
f  1535 1592 1537
f  1592 1542 1537
f  1542 1592 1543
f  1543 1592 1544
f  1544 1584 1545
f  1584 1544 1585
f  1552 1465 1553
f  1553 1465 1556
f  1556 1465 1555
f  1566 1618 1557
f  1545 1618 1566
f  1618 1545 1584
f  1664 736 742
f  1664 742 1426
f  1664 1426 1444
f  1664 1444 1448
f  1664 1448 1471
f  1140 1141 1664
f  1396 1373 1578
f  1582 1401 1569
f  1568 1580 1570
f  1570 1580 1571
f  1571 1580 1572
f  1572 1580 1589
f  1589 1580 1591
f  1140 1664 1580
f  1588 1535 1582
f  1590 1535 1588
f  1535 1590 1592
f  1593 1544 1592
f  1608 1585 1544
f  1606 1544 1593
f  1607 1544 1606
f  1608 1544 1607
f  1591 1580 1594
f  1609 1585 1608
f  1610 1585 1609
f  1642 1585 1610
f  1585 1617 1616
f  1585 1620 1617
f  1620 1585 1621
f  1621 1585 1622
f  1622 1585 1623
f  1623 1585 1624
f  1624 1585 1638
f  1638 1585 1640
f  1640 1585 1639
f  1639 1585 1642
f  1664 1594 1580
f  1664 1595 1594
f  1664 1596 1595
f  1664 1471 1470
f  1664 1470 1476
f  1664 1476 1477
f  1664 1477 1483
f  1664 1483 1484
f  1664 1484 1485
f  1664 1485 1486
f  1664 1486 1554
f  1664 1554 1557
f  1664 1557 1618
f  1664 1618 1619
f  1664 1619 1625
f  1664 1625 1626
f  1664 1626 1641
f  1664 1641 1644
f  1664 1643 1662
f  1664 1644 1643
f  1664 1652 1596
f  1664 1653 1652
f  1664 1654 1653
f  1664 1655 1654
f  1664 1656 1655
f  1664 1662 1656
f  5 4 3
f  5 6 4
f  11 8 7
f  13 7 9
f  11 12 8
f  11 7 13
f  11 13 12
f  13 9 26
f  13 26 14
f  12 30 8
f  12 13 14
f  12 34 30
f  12 14 34
f  6 15 4
f  19 23 15
f  6 19 15
f  5 19 6
f  5 3 21
f  5 21 19
f  19 20 26
f  21 3 17
f  20 18 16
f  22 17 18
f  19 21 20
f  20 16 27
f  20 22 18
f  21 17 22
f  20 21 22
f  19 26 23
f  26 20 27
f  26 27 28
f  26 9 23
f  26 28 14
f  28 25 14
f  27 16 24
f  28 37 25
f  27 44 28
f  27 24 45
f  14 25 10
f  33 10 29
f  34 29 30
f  14 10 33
f  33 29 34
f  14 33 34
f  28 44 37
f  27 45 44
f  35 32 31
f  44 31 37
f  35 36 32
f  35 31 44
f  35 44 36
f  45 24 38
f  36 40 32
f  46 38 39
f  47 39 40
f  36 44 45
f  36 45 47
f  45 38 46
f  36 47 40
f  46 39 47
f  45 46 47
f  48 42 41
f  50 41 43
f  49 71 42
f  48 49 42
f  48 41 50
f  48 50 49
f  49 50 72
f  55 52 51
f  56 53 52
f  55 56 52
f  56 57 53
f  55 57 56
f  57 59 53
f  67 51 65
f  58 66 54
f  55 51 67
f  55 67 57
f  57 58 62
f  57 67 58
f  58 54 63
f  62 43 59
f  63 54 60
f  57 62 59
f  62 63 64
f  62 58 63
f  64 77 61
f  72 64 61
f  62 64 72
f  68 65 66
f  58 68 66
f  67 65 68
f  58 67 68
f  63 60 86
f  63 85 64
f  72 61 69
f  62 50 43
f  62 72 50
f  73 69 70
f  74 70 71
f  49 74 71
f  49 72 74
f  72 69 73
f  73 70 74
f  72 73 74
f  86 60 78
f  64 85 77
f  63 86 85
f  83 76 75
f  85 75 77
f  84 81 76
f  83 84 76
f  83 75 85
f  83 85 84
f  84 85 86
f  84 86 89
f  87 78 79
f  89 79 81
f  88 82 80
f  107 80 103
f  86 78 87
f  84 89 81
f  86 87 89
f  87 79 89
f  88 90 82
f  88 80 107
f  88 107 90
f  94 91 92
f  93 91 94
f  107 103 93
f  93 103 91
f  107 93 94
f  107 94 96
f  94 92 102
f  96 95 108
f  100 97 98
f  99 97 100
f  102 92 101
f  94 102 96
f  96 111 95
f  96 102 113
f  99 101 97
f  102 101 99
f  102 99 116
f  102 116 113
f  114 116 115
f  107 96 108
f  90 106 82
f  90 107 108
f  108 104 109
f  90 110 106
f  90 108 110
f  108 95 104
f  109 104 105
f  110 105 106
f  109 105 110
f  108 109 110
f  96 113 111
f  113 112 111
f  113 114 112
f  114 115 112
f  113 116 114
f  100 98 134
f  99 100 134
f  99 134 116
f  116 125 115
f  134 98 126
f  120 117 118
f  119 117 120
f  119 139 117
f  143 139 119
f  143 119 120
f  143 120 122
f  120 118 753
f  144 122 121
f  116 133 125
f  116 134 133
f  131 124 123
f  133 123 125
f  132 129 124
f  131 132 124
f  131 123 133
f  131 133 132
f  132 133 134
f  135 126 127
f  136 130 128
f  137 127 129
f  143 128 139
f  132 137 129
f  134 126 135
f  132 134 137
f  136 138 130
f  135 127 137
f  136 128 143
f  134 135 137
f  136 143 138
f  143 122 144
f  138 142 130
f  138 143 144
f  144 140 145
f  138 146 142
f  138 144 146
f  144 121 140
f  145 140 141
f  146 141 142
f  145 141 146
f  144 145 146
f  148 179 147
f  148 147 175
f  148 185 179
f  153 149 150
f  153 152 149
f  153 176 152
f  176 151 172
f  163 150 155
f  154 156 151
f  153 150 163
f  176 154 151
f  153 154 176
f  154 164 156
f  153 163 154
f  154 163 164
f  164 157 156
f  166 155 158
f  165 159 157
f  167 160 159
f  163 155 166
f  163 166 165
f  164 165 157
f  163 165 164
f  165 167 159
f  167 168 160
f  165 166 167
f  166 168 167
f  168 161 160
f  170 158 162
f  166 158 170
f  168 169 161
f  166 170 168
f  170 169 168
f  170 162 194
f  152 171 149
f  175 147 171
f  177 172 173
f  152 175 171
f  152 177 175
f  175 177 178
f  177 176 172
f  152 176 177
f  177 173 178
f  178 173 174
f  148 175 178
f  148 178 185
f  178 174 186
f  185 182 179
f  186 174 180
f  187 180 181
f  178 186 185
f  185 188 182
f  185 186 188
f  186 180 187
f  186 187 188
f  188 183 182
f  188 189 183
f  188 187 189
f  190 181 184
f  189 197 183
f  205 184 195
f  187 181 190
f  187 190 189
f  190 184 205
f  189 190 207
f  190 205 207
f  189 207 197
f  169 191 161
f  193 192 191
f  194 162 192
f  169 193 191
f  170 194 169
f  169 194 193
f  193 194 192
f  206 195 196
f  207 200 197
f  208 196 198
f  209 198 199
f  210 204 200
f  205 195 206
f  206 196 208
f  205 206 207
f  207 206 210
f  208 198 209
f  206 208 210
f  208 209 210
f  207 210 200
f  211 203 201
f  212 201 202
f  211 213 203
f  211 201 212
f  212 202 214
f  211 212 213
f  213 199 203
f  214 202 204
f  209 199 213
f  210 209 214
f  209 213 214
f  212 214 213
f  210 214 204
f  219 216 215
f  220 217 216
f  219 220 216
f  219 221 220
f  229 215 223
f  222 224 218
f  219 215 229
f  219 229 221
f  220 221 217
f  229 222 221
f  222 218 231
f  221 222 231
f  231 218 225
f  221 239 217
f  221 231 237
f  230 223 224
f  222 230 224
f  229 223 230
f  229 230 222
f  231 225 234
f  231 234 237
f  232 227 226
f  233 245 227
f  251 228 245
f  232 233 227
f  232 251 233
f  233 251 245
f  234 225 228
f  237 234 238
f  251 234 228
f  237 236 235
f  221 237 242
f  237 235 243
f  243 235 240
f  221 242 239
f  237 243 242
f  238 240 236
f  237 238 236
f  238 252 244
f  244 246 241
f  238 243 240
f  238 244 243
f  242 241 239
f  243 244 242
f  242 244 241
f  253 226 247
f  252 248 246
f  232 226 253
f  232 253 251
f  251 252 234
f  253 252 251
f  238 234 252
f  244 252 246
f  254 247 248
f  255 250 249
f  256 257 250
f  252 254 248
f  253 247 254
f  253 254 252
f  255 256 250
f  255 261 256
f  256 261 257
f  263 249 259
f  262 260 258
f  255 249 263
f  255 262 261
f  255 263 262
f  261 279 257
f  274 258 269
f  261 262 274
f  261 274 275
f  262 258 274
f  264 259 260
f  262 264 260
f  263 259 264
f  262 263 264
f  884 277 272
f  884 909 277
f  267 266 265
f  284 265 279
f  267 268 266
f  267 265 284
f  267 284 268
f  275 271 270
f  261 275 284
f  261 284 279
f  274 269 277
f  274 276 275
f  275 270 285
f  285 270 280
f  275 285 284
f  277 269 272
f  276 273 271
f  278 900 273
f  275 276 271
f  274 277 276
f  277 278 276
f  276 278 273
f  277 909 278
f  278 909 911
f  278 911 900
f  268 282 266
f  268 284 287
f  268 287 282
f  285 280 286
f  284 285 287
f  286 280 281
f  288 281 283
f  287 920 282
f  917 283 906
f  286 281 288
f  285 286 287
f  286 288 287
f  288 283 917
f  287 924 920
f  287 288 924
f  288 917 924
f  295 290 289
f  296 291 290
f  295 296 290
f  296 297 291
f  295 297 296
f  295 289 299
f  295 298 297
f  299 289 293
f  298 294 292
f  300 293 294
f  295 299 298
f  299 293 300
f  298 300 294
f  298 299 300
f  303 302 301
f  304 353 302
f  303 304 302
f  304 357 353
f  303 357 304
f  297 317 291
f  297 298 310
f  297 310 311
f  297 311 324
f  310 292 305
f  298 292 310
f  311 308 306
f  312 305 307
f  313 309 308
f  310 305 312
f  311 313 308
f  310 313 311
f  310 312 313
f  311 306 325
f  312 307 334
f  313 314 309
f  312 314 313
f  312 334 314
f  297 324 317
f  311 325 324
f  322 316 315
f  324 315 317
f  323 321 316
f  322 315 324
f  322 324 323
f  322 323 316
f  323 324 328
f  325 306 318
f  326 318 319
f  327 319 320
f  325 318 326
f  324 325 328
f  325 326 328
f  323 328 321
f  326 319 327
f  326 327 328
f  334 307 329
f  314 330 309
f  335 331 330
f  337 329 332
f  338 332 333
f  334 329 337
f  314 334 335
f  334 337 335
f  314 335 330
f  335 336 331
f  337 332 338
f  335 337 336
f  336 337 338
f  338 333 350
f  346 341 339
f  336 340 331
f  347 339 340
f  349 343 342
f  346 348 341
f  336 347 340
f  336 338 347
f  347 338 350
f  346 339 347
f  346 347 350
f  346 350 349
f  348 320 341
f  328 342 321
f  327 320 348
f  328 349 342
f  328 327 349
f  327 348 349
f  346 349 348
f  350 333 343
f  350 343 349
f  351 345 344
f  368 344 365
f  351 344 368
f  351 368 352
f  351 352 345
f  359 301 355
f  358 356 354
f  303 301 359
f  303 359 357
f  358 360 356
f  357 359 358
f  358 359 360
f  360 355 356
f  359 355 360
f  364 361 362
f  363 361 364
f  357 368 353
f  358 354 369
f  357 358 369
f  363 369 366
f  368 365 353
f  369 354 366
f  357 369 368
f  352 367 345
f  368 369 370
f  352 370 367
f  352 368 370
f  370 371 367
f  369 372 370
f  363 366 361
f  363 364 369
f  372 375 371
f  364 372 369
f  370 372 371
f  364 362 382
f  364 382 372
f  372 381 375
f  379 374 373
f  381 373 375
f  380 378 374
f  379 380 374
f  379 373 381
f  379 381 380
f  380 381 382
f  382 362 376
f  372 382 381
f  383 376 377
f  384 377 378
f  382 376 383
f  380 384 378
f  380 382 384
f  383 377 384
f  382 383 384
f  387 388 386
f  387 389 388
f  387 395 389
f  389 392 388
f  389 395 392
f  391 386 390
f  387 386 391
f  387 391 395
f  397 390 394
f  396 391 397
f  391 390 397
f  395 391 396
f  396 394 393
f  396 397 394
f  401 398 399
f  400 398 401
f  400 474 398
f  477 400 401
f  411 430 407
f  411 435 430
f  409 404 405
f  408 404 409
f  409 405 416
f  410 407 406
f  408 406 404
f  410 406 408
f  410 411 407
f  416 405 412
f  417 412 413
f  418 413 414
f  416 412 417
f  417 413 418
f  410 408 461
f  408 409 461
f  419 414 415
f  425 415 420
f  418 414 419
f  419 415 425
f  418 419 427
f  419 425 426
f  409 416 461
f  416 417 461
f  417 418 459
f  426 420 421
f  427 421 422
f  425 420 426
f  419 426 427
f  418 427 428
f  426 421 427
f  428 422 423
f  418 428 429
f  417 459 461
f  427 422 428
f  418 429 458
f  418 458 459
f  429 423 424
f  458 424 453
f  428 423 429
f  429 424 458
f  435 431 430
f  436 432 431
f  435 436 431
f  436 437 432
f  437 433 432
f  437 438 433
f  438 434 433
f  439 440 434
f  436 442 437
f  437 439 438
f  438 439 434
f  437 442 439
f  436 443 442
f  436 449 443
f  442 441 440
f  443 445 441
f  439 442 440
f  442 443 441
f  436 450 449
f  411 461 435
f  435 468 436
f  410 461 411
f  435 461 460
f  436 466 467
f  436 468 466
f  435 460 462
f  435 462 468
f  449 446 445
f  450 447 446
f  436 451 450
f  443 449 445
f  436 452 451
f  436 467 452
f  449 450 446
f  450 451 447
f  451 448 447
f  452 464 448
f  451 452 448
f  452 467 464
f  468 462 457
f  459 453 454
f  461 454 456
f  458 453 459
f  459 454 461
f  460 456 455
f  462 455 457
f  461 456 460
f  462 460 455
f  466 465 463
f  467 463 464
f  468 457 465
f  467 466 463
f  468 465 466
f  471 470 469
f  476 469 473
f  471 469 476
f  471 476 472
f  472 475 470
f  471 472 470
f  395 476 392
f  396 393 477
f  395 396 477
f  476 473 392
f  477 393 474
f  395 477 476
f  477 474 400
f  477 401 403
f  478 403 402
f  477 403 478
f  478 402 475
f  477 478 476
f  472 476 478
f  472 478 475
f  480 494 479
f  480 479 488
f  480 497 494
f  491 481 485
f  491 487 481
f  491 489 487
f  487 482 481
f  490 483 484
f  488 482 487
f  488 487 490
f  490 489 483
f  487 489 490
f  509 485 499
f  492 500 486
f  491 485 509
f  492 486 489
f  491 492 489
f  492 510 500
f  491 509 492
f  492 509 510
f  489 486 483
f  488 479 482
f  496 484 493
f  480 488 496
f  488 490 496
f  480 496 497
f  490 484 496
f  496 493 498
f  497 531 494
f  498 493 495
f  536 495 532
f  496 498 497
f  497 535 531
f  497 498 535
f  498 495 536
f  498 536 535
f  510 501 500
f  513 499 503
f  511 502 501
f  512 504 502
f  509 499 513
f  510 511 501
f  509 511 510
f  509 513 511
f  511 512 502
f  512 514 504
f  511 513 512
f  513 514 512
f  514 506 504
f  515 503 505
f  513 503 515
f  513 515 514
f  514 515 516
f  516 507 506
f  517 508 507
f  518 505 508
f  514 516 506
f  516 517 507
f  515 518 516
f  516 518 517
f  517 518 508
f  515 505 518
f  521 545 519
f  522 519 520
f  521 519 522
f  521 522 553
f  524 525 523
f  524 526 525
f  401 399 676
f  524 529 526
f  524 523 556
f  556 523 555
f  524 556 529
f  526 527 525
f  526 529 527
f  529 556 530
f  535 534 531
f  535 538 534
f  536 538 535
f  537 532 533
f  538 540 534
f  547 533 539
f  536 532 537
f  536 537 538
f  537 533 547
f  538 548 540
f  537 548 538
f  537 547 548
f  549 539 541
f  548 544 540
f  550 541 542
f  551 542 543
f  552 546 544
f  549 541 550
f  547 539 549
f  547 549 548
f  548 549 552
f  550 542 551
f  548 552 544
f  549 550 552
f  550 551 552
f  553 543 545
f  554 520 546
f  521 553 545
f  551 543 553
f  522 520 554
f  551 553 554
f  522 554 553
f  552 554 546
f  551 554 552
f  558 555 557
f  530 556 558
f  556 555 558
f  530 557 528
f  530 558 557
f  565 560 559
f  566 561 560
f  565 566 560
f  566 567 561
f  565 567 566
f  565 559 569
f  565 568 567
f  567 568 576
f  567 576 577
f  569 559 563
f  568 564 562
f  570 563 564
f  565 569 568
f  568 570 564
f  569 563 570
f  568 569 570
f  576 562 571
f  568 562 576
f  567 624 561
f  567 577 624
f  624 617 561
f  577 625 624
f  577 574 572
f  578 571 573
f  579 575 574
f  576 571 578
f  577 579 574
f  576 579 577
f  576 578 579
f  578 573 593
f  578 580 579
f  578 593 580
f  579 580 575
f  625 572 618
f  577 572 625
f  583 582 581
f  584 601 582
f  583 584 582
f  584 605 601
f  583 605 584
f  593 573 585
f  580 586 575
f  594 588 586
f  595 585 587
f  599 587 591
f  593 585 595
f  580 594 586
f  594 596 588
f  580 593 594
f  593 595 594
f  595 587 599
f  595 596 594
f  595 599 596
f  596 590 588
f  598 589 590
f  596 598 590
f  596 599 598
f  598 599 600
f  597 589 598
f  597 598 600
f  597 600 634
f  600 591 592
f  599 591 600
f  600 592 634
f  607 581 603
f  606 604 602
f  583 581 607
f  583 607 605
f  606 608 604
f  605 607 606
f  606 607 608
f  606 602 653
f  605 606 653
f  608 603 604
f  607 603 608
f  605 652 601
f  652 649 601
f  653 602 650
f  605 653 652
f  654 609 651
f  613 653 650
f  612 654 653
f  613 650 610
f  613 614 653
f  614 610 611
f  613 610 614
f  614 611 664
f  612 657 609
f  614 612 653
f  612 609 654
f  612 663 657
f  614 664 612
f  664 611 658
f  612 664 663
f  622 616 615
f  624 615 617
f  623 621 616
f  622 623 616
f  622 615 624
f  622 624 623
f  623 624 628
f  626 618 619
f  627 619 620
f  625 618 626
f  623 628 621
f  624 625 628
f  625 626 628
f  626 619 627
f  626 627 628
f  633 620 629
f  597 629 589
f  628 630 621
f  634 592 630
f  627 620 633
f  597 633 629
f  627 633 634
f  628 634 630
f  628 627 634
f  597 634 633
f  635 632 631
f  652 631 649
f  635 636 632
f  635 631 652
f  635 652 636
f  638 639 637
f  638 641 639
f  638 642 641
f  638 637 644
f  641 640 639
f  641 642 640
f  638 647 642
f  642 647 690
f  642 690 691
f  644 637 643
f  638 644 647
f  648 643 646
f  644 643 648
f  647 644 648
f  647 646 645
f  647 645 690
f  690 645 683
f  647 648 646
f  636 651 632
f  636 654 651
f  636 652 654
f  652 653 654
f  661 656 655
f  663 655 657
f  662 660 656
f  661 662 656
f  661 655 663
f  661 663 662
f  662 663 664
f  665 658 659
f  666 659 660
f  664 658 665
f  662 666 660
f  662 664 666
f  665 659 666
f  664 665 666
f  668 669 667
f  668 671 669
f  668 672 671
f  668 667 1253
f  668 1253 672
f  671 670 669
f  671 672 670
f  401 676 403
f  403 674 402
f  676 399 673
f  403 676 677
f  403 677 674
f  529 673 527
f  529 530 676
f  530 528 678
f  529 676 673
f  530 677 676
f  678 528 675
f  530 678 677
f  677 680 674
f  677 682 680
f  677 678 682
f  681 675 679
f  678 675 681
f  678 681 682
f  681 679 682
f  682 679 680
f  642 699 640
f  642 691 702
f  642 702 699
f  691 708 702
f  693 683 686
f  690 692 691
f  690 683 693
f  690 693 692
f  691 685 684
f  691 692 685
f  694 686 687
f  693 686 694
f  693 694 695
f  692 688 685
f  695 689 688
f  692 695 688
f  692 693 695
f  695 696 689
f  695 694 696
f  691 684 708
f  708 684 703
f  700 698 697
f  702 697 699
f  700 697 702
f  700 702 701
f  700 701 698
f  701 707 698
f  701 702 712
f  709 703 704
f  708 703 709
f  702 708 712
f  708 709 712
f  701 712 707
f  710 704 705
f  711 705 706
f  709 704 710
f  709 710 712
f  710 705 711
f  712 710 739
f  710 711 739
f  712 736 707
f  718 687 713
f  694 687 718
f  694 718 696
f  696 714 689
f  719 715 714
f  721 713 716
f  696 718 719
f  696 719 714
f  719 720 715
f  718 713 721
f  718 721 719
f  721 720 719
f  722 716 717
f  721 716 722
f  721 722 720
f  722 717 733
f  720 723 715
f  729 724 723
f  720 729 723
f  720 722 729
f  729 730 724
f  730 726 724
f  732 725 726
f  730 732 726
f  732 731 725
f  732 740 731
f  733 717 727
f  734 727 728
f  729 722 733
f  729 733 730
f  730 733 734
f  733 727 734
f  740 728 737
f  730 734 732
f  732 734 740
f  734 728 740
f  672 746 670
f  672 1256 746
f  746 743 670
f  738 706 735
f  731 735 725
f  739 737 736
f  711 706 738
f  738 735 731
f  711 738 739
f  738 731 740
f  738 740 739
f  712 739 736
f  740 737 739
f  744 742 741
f  744 741 746
f  744 746 745
f  744 745 742
f  746 741 743
f  745 746 1427
f  745 1426 742
f  751 748 749
f  750 748 751
f  753 118 752
f  120 753 122
f  122 760 121
f  122 753 762
f  750 752 748
f  750 753 752
f  750 759 753
f  753 759 762
f  763 759 758
f  756 755 754
f  756 757 755
f  751 749 775
f  750 751 775
f  750 775 759
f  759 766 758
f  775 749 767
f  122 762 760
f  762 761 760
f  762 763 761
f  763 758 761
f  762 759 763
f  759 774 766
f  759 775 774
f  772 765 764
f  774 764 766
f  773 769 765
f  772 773 765
f  772 764 774
f  772 774 773
f  773 774 775
f  776 767 768
f  777 768 769
f  778 771 770
f  773 777 769
f  775 767 776
f  773 775 777
f  776 768 777
f  778 779 771
f  775 776 777
f  757 780 755
f  786 754 782
f  785 783 781
f  757 784 780
f  756 754 786
f  756 784 757
f  756 786 784
f  784 786 785
f  787 782 783
f  785 787 783
f  786 782 787
f  785 786 787
f  784 795 780
f  785 781 797
f  784 785 797
f  797 781 794
f  784 798 795
f  784 797 798
f  797 794 790
f  791 788 789
f  790 788 791
f  790 794 788
f  797 790 791
f  797 791 793
f  793 792 799
f  793 791 807
f  791 789 807
f  793 802 792
f  807 789 803
f  798 770 795
f  779 796 771
f  778 770 798
f  778 798 779
f  779 798 799
f  779 799 796
f  797 799 798
f  799 792 796
f  797 793 799
f  804 801 800
f  804 805 801
f  804 800 806
f  804 806 805
f  793 806 802
f  793 807 806
f  806 800 802
f  805 825 801
f  831 803 824
f  805 806 807
f  805 807 832
f  805 832 825
f  807 803 831
f  807 831 832
f  814 809 808
f  815 810 809
f  814 815 809
f  814 808 818
f  815 816 810
f  814 816 815
f  818 808 812
f  817 813 811
f  819 812 813
f  814 818 816
f  816 818 817
f  817 819 813
f  818 812 819
f  817 818 819
f  816 829 810
f  817 811 835
f  816 817 835
f  835 811 828
f  816 836 829
f  816 835 836
f  821 820 849
f  835 828 821
f  821 828 820
f  835 821 849
f  835 849 823
f  823 840 822
f  837 823 822
f  832 824 825
f  833 827 826
f  836 826 829
f  834 830 827
f  831 824 832
f  833 834 827
f  833 826 836
f  833 836 834
f  834 837 830
f  834 836 837
f  835 837 836
f  837 822 830
f  835 823 837
f  823 843 840
f  823 865 843
f  841 839 838
f  843 838 840
f  842 860 839
f  841 842 839
f  841 838 843
f  841 843 842
f  842 843 865
f  849 820 844
f  850 846 845
f  851 847 846
f  856 845 854
f  850 851 846
f  851 852 847
f  850 852 851
f  850 845 856
f  850 856 852
f  852 856 853
f  849 844 865
f  823 849 865
f  865 844 858
f  852 864 847
f  853 848 868
f  852 853 868
f  868 848 861
f  852 871 864
f  852 868 871
f  853 855 848
f  857 854 855
f  856 854 857
f  853 857 855
f  853 856 857
f  868 861 1128
f  1128 861 1126
f  868 1128 1129
f  868 1129 1131
f  1131 1130 875
f  866 858 859
f  867 859 860
f  865 858 866
f  842 867 860
f  842 865 867
f  866 859 867
f  865 866 867
f  869 863 862
f  871 862 864
f  870 872 863
f  869 870 863
f  869 862 871
f  869 871 870
f  870 875 872
f  870 871 875
f  868 875 871
f  868 1131 875
f  875 1130 872
f  876 874 873
f  876 877 874
f  884 272 878
f  884 878 886
f  909 879 898
f  909 885 879
f  884 885 909
f  886 878 880
f  885 881 879
f  887 880 881
f  888 883 882
f  889 890 883
f  885 887 881
f  884 886 885
f  886 887 885
f  886 880 887
f  888 889 883
f  888 894 889
f  896 882 892
f  895 893 891
f  888 882 896
f  888 896 894
f  889 894 890
f  896 895 894
f  894 930 890
f  895 891 929
f  894 895 929
f  897 892 893
f  895 897 893
f  896 892 897
f  896 897 895
f  940 928 934
f  940 941 929
f  941 942 929
f  910 898 899
f  911 901 900
f  913 899 902
f  914 902 903
f  909 898 910
f  910 899 913
f  909 910 911
f  911 912 901
f  911 910 912
f  912 910 913
f  913 902 914
f  912 913 914
f  912 904 901
f  915 905 904
f  916 906 905
f  918 903 907
f  919 907 908
f  912 915 904
f  912 914 915
f  915 918 916
f  915 916 905
f  916 917 906
f  916 925 917
f  916 919 925
f  914 903 918
f  915 914 918
f  925 919 908
f  918 907 919
f  918 919 916
f  924 921 920
f  925 908 921
f  924 925 921
f  917 925 924
f  926 923 922
f  926 927 923
f  926 922 932
f  926 932 927
f  929 891 928
f  894 932 930
f  894 929 932
f  940 929 928
f  942 936 933
f  933 936 931
f  942 933 929
f  932 922 930
f  927 931 923
f  927 932 933
f  927 933 931
f  929 933 932
f  941 934 935
f  940 934 941
f  941 935 953
f  941 953 942
f  943 938 937
f  944 939 938
f  943 944 938
f  943 937 950
f  943 945 944
f  944 945 939
f  945 952 939
f  950 937 947
f  949 948 946
f  943 950 945
f  950 949 945
f  949 951 948
f  950 951 949
f  949 946 956
f  945 949 953
f  951 947 948
f  950 947 951
f  942 954 936
f  953 935 952
f  945 953 952
f  942 955 954
f  942 953 955
f  949 955 953
f  949 956 959
f  949 959 955
f  955 958 954
f  960 956 957
f  959 961 955
f  959 956 960
f  955 961 958
f  959 960 961
f  961 957 958
f  960 957 961
f  966 962 963
f  992 964 987
f  967 969 964
f  966 965 962
f  966 992 965
f  966 963 976
f  992 967 964
f  966 967 992
f  966 976 967
f  976 963 968
f  979 968 971
f  977 970 969
f  978 972 970
f  967 977 969
f  967 976 977
f  976 968 979
f  976 979 978
f  977 978 970
f  978 980 972
f  976 978 977
f  978 979 980
f  980 973 972
f  981 974 973
f  983 971 975
f  979 971 983
f  980 981 973
f  981 982 974
f  979 981 980
f  979 983 981
f  983 975 1009
f  983 982 981
f  989 985 984
f  965 984 962
f  965 989 984
f  965 993 989
f  993 988 991
f  989 993 991
f  990 994 985
f  991 988 986
f  990 985 989
f  990 989 991
f  991 986 1001
f  990 991 1000
f  993 987 988
f  993 992 987
f  965 992 993
f  1001 986 995
f  1000 996 994
f  990 1000 994
f  991 1001 1000
f  1000 1002 996
f  1000 1001 1002
f  1003 995 997
f  1001 995 1003
f  1001 1003 1002
f  1002 998 996
f  1005 997 999
f  1004 1011 998
f  1003 997 1005
f  1002 1004 998
f  1002 1003 1004
f  1003 1005 1004
f  1005 999 1020
f  1004 1005 1021
f  982 1006 974
f  1009 975 1007
f  1008 1007 1006
f  982 1008 1006
f  982 1009 1008
f  983 1009 982
f  1008 1009 1007
f  1020 999 1010
f  1022 1010 1012
f  1025 1012 1015
f  1021 1017 1011
f  1005 1020 1021
f  1004 1021 1011
f  1020 1010 1022
f  1022 1012 1025
f  1020 1022 1021
f  1022 1025 1027
f  1021 1027 1017
f  1021 1022 1027
f  1023 1018 1013
f  1024 1013 1014
f  1023 1013 1024
f  1023 1028 1018
f  1024 1014 1029
f  1023 1024 1028
f  1026 1015 1016
f  1028 1016 1018
f  1027 1019 1017
f  1029 1014 1019
f  1025 1015 1026
f  1026 1016 1028
f  1025 1026 1027
f  1027 1026 1029
f  1024 1029 1028
f  1026 1028 1029
f  1027 1029 1019
f  1034 1031 1030
f  1035 1032 1031
f  1034 1035 1031
f  1035 1036 1032
f  1034 1036 1035
f  1034 1037 1036
f  1042 1030 1038
f  1037 1039 1033
f  1034 1030 1042
f  1034 1042 1037
f  1037 1043 1039
f  1037 1042 1043
f  1043 1038 1039
f  1042 1038 1043
f  1044 1041 1040
f  1044 1045 1041
f  1036 1054 1032
f  1049 1033 1046
f  1036 1037 1049
f  1036 1049 1050
f  1037 1033 1049
f  1050 1048 1047
f  1071 1046 1064
f  1036 1050 1060
f  1049 1046 1071
f  1050 1051 1048
f  1049 1051 1050
f  1049 1071 1051
f  1050 1047 1061
f  1036 1060 1054
f  1058 1053 1052
f  1060 1052 1054
f  1059 1057 1053
f  1058 1059 1053
f  1058 1052 1060
f  1058 1060 1059
f  1061 1047 1055
f  1060 1050 1061
f  1062 1055 1056
f  1060 1061 1063
f  1059 1063 1057
f  1059 1060 1063
f  1061 1055 1062
f  1061 1062 1063
f  1051 1065 1048
f  1073 1064 1066
f  1072 1067 1065
f  1076 1066 1069
f  1074 1068 1067
f  1071 1064 1073
f  1051 1072 1065
f  1071 1072 1051
f  1071 1073 1072
f  1073 1066 1076
f  1072 1073 1074
f  1073 1076 1074
f  1072 1074 1067
f  1074 1075 1068
f  1074 1076 1075
f  1077 1069 1070
f  1076 1069 1077
f  1077 1070 1090
f  1075 1076 1077
f  1075 1078 1068
f  1086 1079 1078
f  1087 1081 1079
f  1075 1086 1078
f  1087 1089 1081
f  1086 1087 1079
f  1088 1056 1080
f  1063 1083 1057
f  1089 1080 1081
f  1062 1056 1088
f  1088 1080 1089
f  1062 1088 1063
f  1063 1088 1091
f  1063 1091 1083
f  1088 1089 1091
f  1087 1091 1089
f  1090 1070 1082
f  1091 1082 1083
f  1075 1077 1086
f  1086 1077 1090
f  1090 1082 1091
f  1086 1090 1087
f  1087 1090 1091
f  1092 1085 1084
f  1092 1093 1085
f  1045 1094 1041
f  1100 1040 1096
f  1099 1097 1095
f  1044 1040 1100
f  1045 1098 1094
f  1044 1098 1045
f  1044 1100 1098
f  1098 1100 1099
f  1101 1096 1097
f  1100 1096 1101
f  1099 1101 1097
f  1099 1100 1101
f  1105 1102 1103
f  1104 1102 1105
f  1098 1109 1094
f  1099 1095 1110
f  1098 1099 1110
f  1104 1110 1107
f  1109 1106 1094
f  1110 1095 1107
f  1098 1110 1109
f  1109 1084 1106
f  1093 1108 1085
f  1092 1084 1109
f  1092 1109 1093
f  1110 1111 1109
f  1093 1111 1108
f  1093 1109 1111
f  1111 1112 1108
f  1110 1113 1111
f  1104 1107 1102
f  1104 1105 1110
f  1105 1113 1110
f  1111 1113 1112
f  1105 1103 1121
f  1113 1116 1112
f  1105 1121 1113
f  1118 1115 1114
f  1118 1114 1120
f  1118 1120 1119
f  1118 1119 1115
f  1121 1103 1117
f  1113 1120 1116
f  1113 1121 1120
f  1120 1114 1116
f  1119 1123 1115
f  1119 1120 1121
f  1121 1117 1124
f  1119 1125 1123
f  1119 1121 1125
f  1124 1117 1122
f  1125 1122 1123
f  1124 1122 1125
f  1121 1124 1125
f  1129 1126 1127
f  1128 1126 1129
f  1129 1127 1137
f  1131 1129 1137
f  1131 1132 1130
f  1137 1127 1133
f  1131 1136 1132
f  1131 1137 1136
f  1136 873 1132
f  877 1135 874
f  876 873 1136
f  876 1136 877
f  877 1136 1137
f  1137 1133 1138
f  877 1139 1135
f  877 1137 1139
f  1138 1133 1134
f  1139 1134 1135
f  1138 1134 1139
f  1137 1138 1139
f  1149 1142 1143
f  1148 1142 1149
f  1148 1149 1153
f  1150 1143 1144
f  1151 1163 1145
f  1150 1149 1143
f  1150 1152 1149
f  1151 1145 1152
f  1150 1144 1172
f  1150 1151 1152
f  1150 1172 1151
f  1152 1145 1146
f  1153 1146 1147
f  1153 1152 1146
f  1149 1152 1153
f  1148 1154 1142
f  1158 1156 1154
f  1159 1147 1155
f  1158 1154 1148
f  1153 1147 1159
f  1158 1148 1159
f  1148 1153 1159
f  1159 1155 1161
f  1158 1159 1160
f  1161 1155 1157
f  1160 1228 1156
f  1158 1160 1156
f  1159 1161 1160
f  1160 1232 1228
f  1160 1161 1232
f  1233 1157 1229
f  1161 1157 1233
f  1161 1233 1232
f  1172 1144 1162
f  1173 1164 1163
f  1175 1162 1165
f  1174 1166 1164
f  1151 1173 1163
f  1151 1172 1173
f  1172 1162 1175
f  1173 1174 1164
f  1174 1176 1166
f  1172 1174 1173
f  1172 1175 1174
f  1174 1175 1176
f  1176 1167 1166
f  1177 1169 1167
f  1178 1165 1168
f  1175 1165 1178
f  1176 1177 1167
f  1175 1177 1176
f  1175 1178 1177
f  1177 1178 1179
f  1179 1170 1169
f  1181 1168 1171
f  1180 1171 1170
f  1177 1179 1169
f  1179 1180 1170
f  1178 1168 1181
f  1179 1181 1180
f  1178 1181 1179
f  1180 1181 1171
f  1184 1242 1182
f  1185 1182 1183
f  1184 1182 1185
f  1184 1185 1250
f  1190 1187 1186
f  1191 1188 1187
f  1190 1191 1187
f  1191 1192 1188
f  1190 1192 1191
f  1190 1193 1192
f  1204 1186 1200
f  1193 1201 1189
f  1190 1186 1204
f  1190 1204 1193
f  1193 1205 1201
f  1193 1204 1205
f  1197 1189 1194
f  1192 1193 1197
f  1192 1197 1198
f  1193 1189 1197
f  1192 1264 1188
f  1192 1270 1264
f  1198 1196 1195
f  1218 1194 1208
f  1192 1198 1270
f  1197 1194 1218
f  1198 1199 1196
f  1197 1199 1198
f  1197 1218 1199
f  1271 1195 1265
f  1198 1271 1270
f  1198 1195 1271
f  1205 1200 1201
f  1204 1200 1205
f  1206 1203 1202
f  1206 1207 1203
f  1220 1208 1210
f  1199 1209 1196
f  1219 1211 1209
f  1225 1210 1215
f  1221 1212 1211
f  1218 1208 1220
f  1218 1219 1199
f  1218 1220 1219
f  1199 1219 1209
f  1220 1210 1225
f  1219 1221 1211
f  1221 1222 1212
f  1219 1220 1221
f  1220 1225 1221
f  1225 1222 1221
f  1222 1213 1212
f  1223 1214 1213
f  1222 1223 1213
f  1223 1224 1214
f  1226 1215 1216
f  1225 1215 1226
f  1225 1226 1222
f  1227 1216 1217
f  1226 1216 1227
f  1222 1226 1223
f  1223 1226 1227
f  1227 1217 1281
f  1223 1227 1224
f  1224 1227 1281
f  1232 1230 1228
f  1235 1229 1231
f  1234 1237 1230
f  1233 1229 1235
f  1232 1234 1230
f  1233 1234 1232
f  1233 1235 1234
f  1235 1231 1244
f  1234 1235 1245
f  1244 1231 1236
f  1247 1238 1239
f  1246 1236 1238
f  1245 1241 1237
f  1234 1245 1237
f  1235 1244 1245
f  1246 1238 1247
f  1244 1236 1246
f  1245 1249 1241
f  1244 1246 1245
f  1245 1246 1249
f  1246 1247 1249
f  1248 1239 1240
f  1250 1240 1242
f  1249 1243 1241
f  1251 1183 1243
f  1247 1239 1248
f  1248 1240 1250
f  1247 1248 1249
f  1248 1251 1249
f  1184 1250 1242
f  1185 1183 1251
f  1185 1251 1250
f  1248 1250 1251
f  1249 1251 1243
f  1253 667 1252
f  1257 1252 1255
f  1256 1253 1257
f  1253 1252 1257
f  672 1253 1256
f  1256 1255 1254
f  1256 1257 1255
f  1260 1408 1258
f  1260 1412 1408
f  1261 1258 1259
f  1291 1261 1259
f  1260 1258 1261
f  1260 1414 1412
f  1260 1261 1294
f  1261 1292 1294
f  1294 1289 1414
f  1260 1294 1414
f  1268 1263 1262
f  1270 1262 1264
f  1269 1267 1263
f  1268 1269 1263
f  1268 1262 1270
f  1268 1270 1269
f  1272 1265 1266
f  1269 1273 1267
f  1269 1270 1273
f  1270 1271 1273
f  1271 1265 1272
f  1271 1272 1273
f  1279 1266 1274
f  1273 1276 1267
f  1280 1274 1275
f  1224 1275 1214
f  1272 1266 1279
f  1279 1274 1280
f  1272 1279 1273
f  1273 1279 1281
f  1224 1280 1275
f  1279 1280 1281
f  1224 1281 1280
f  1273 1281 1276
f  1281 1217 1276
f  1282 1278 1277
f  1282 1283 1278
f  1285 1286 1284
f  1291 1286 1285
f  1285 1284 1298
f  1285 1298 1295
f  1291 1259 1286
f  1292 1288 1287
f  1291 1292 1261
f  1291 1293 1292
f  1291 1285 1293
f  1292 1293 1288
f  1294 1287 1289
f  1294 1292 1287
f  1293 1290 1288
f  1295 1300 1290
f  1295 1290 1293
f  1285 1295 1293
f  1298 1284 1296
f  1299 1296 1297
f  1295 1298 1305
f  1298 1296 1299
f  1298 1306 1305
f  1298 1299 1306
f  1340 1297 1338
f  1306 1299 1307
f  1299 1308 1307
f  1299 1297 1340
f  1299 1340 1308
f  1305 1301 1300
f  1306 1302 1301
f  1295 1305 1300
f  1305 1306 1301
f  1307 1303 1302
f  1308 1304 1303
f  1306 1307 1302
f  1307 1308 1303
f  1308 1309 1304
f  1308 1340 1309
f  1207 1310 1203
f  1316 1202 1312
f  1315 1313 1311
f  1206 1202 1316
f  1207 1314 1310
f  1206 1314 1207
f  1206 1316 1314
f  1314 1316 1315
f  1315 1311 1328
f  1314 1315 1328
f  1317 1312 1313
f  1315 1317 1313
f  1316 1312 1317
f  1315 1316 1317
f  1314 1327 1310
f  1327 1324 1310
f  1328 1311 1325
f  1314 1328 1327
f  1329 1320 1326
f  1321 1328 1325
f  1323 1329 1328
f  1321 1325 1318
f  1321 1322 1328
f  1322 1318 1319
f  1321 1318 1322
f  1322 1319 1337
f  1322 1323 1328
f  1323 1320 1329
f  1323 1332 1320
f  1322 1337 1323
f  1337 1319 1333
f  1323 1336 1332
f  1323 1337 1336
f  1327 1277 1324
f  1283 1326 1278
f  1282 1277 1327
f  1282 1327 1283
f  1283 1329 1326
f  1283 1327 1329
f  1327 1328 1329
f  1334 1331 1330
f  1334 1335 1331
f  1334 1330 1336
f  1334 1336 1335
f  1336 1330 1332
f  1335 1373 1331
f  1335 1336 1337
f  1335 1375 1373
f  1337 1333 1374
f  1335 1337 1375
f  1341 1338 1339
f  1340 1338 1341
f  1309 1342 1304
f  1346 1343 1342
f  1347 1344 1343
f  1309 1346 1342
f  1309 1340 1346
f  1340 1341 1346
f  1346 1347 1343
f  1341 1347 1346
f  1341 1349 1347
f  1348 1345 1344
f  1347 1348 1344
f  1347 1349 1348
f  1348 1349 1345
f  1341 1339 1349
f  1349 1339 1345
f  1354 1350 1351
f  1353 1350 1354
f  1353 1354 1364
f  1355 1351 1352
f  1354 1351 1355
f  1354 1355 1369
f  1355 1352 1379
f  1369 1355 1370
f  1355 1371 1370
f  1355 1379 1371
f  1365 1357 1350
f  1364 1360 1356
f  1353 1365 1350
f  1353 1364 1365
f  1364 1368 1360
f  1354 1368 1364
f  1364 1356 1366
f  1365 1358 1357
f  1366 1356 1358
f  1365 1366 1358
f  1364 1366 1365
f  1368 1359 1360
f  1367 1361 1359
f  1369 1362 1361
f  1370 1363 1362
f  1368 1367 1359
f  1367 1369 1361
f  1354 1367 1368
f  1354 1369 1367
f  1369 1370 1362
f  1370 1371 1363
f  1374 1333 1372
f  1375 1372 1373
f  1374 1372 1375
f  1337 1374 1375
f  1379 1352 1376
f  1380 1376 1377
f  1379 1389 1371
f  1379 1390 1389
f  1379 1376 1380
f  1379 1380 1390
f  1381 1377 1378
f  1380 1377 1381
f  1380 1381 1391
f  1381 1378 1403
f  1371 1382 1363
f  1389 1383 1382
f  1390 1384 1383
f  1371 1389 1382
f  1389 1390 1383
f  1391 1385 1384
f  1392 1386 1385
f  1393 1387 1386
f  1390 1391 1384
f  1391 1392 1385
f  1380 1391 1390
f  1391 1381 1392
f  1381 1403 1392
f  1403 1393 1392
f  1392 1393 1386
f  1394 1388 1387
f  1395 1503 1388
f  1393 1394 1387
f  1394 1395 1388
f  1397 1402 1396
f  1403 1378 1398
f  1404 1398 1399
f  1405 1399 1400
f  1403 1398 1404
f  1403 1404 1393
f  1393 1404 1394
f  1394 1404 1405
f  1404 1399 1405
f  1406 1400 1401
f  1394 1405 1395
f  1405 1400 1406
f  1406 1401 1538
f  1395 1405 1406
f  1395 1406 1538
f  1397 1407 1402
f  1256 1254 1427
f  1427 1254 1424
f  1256 1427 746
f  1412 1409 1408
f  1413 1416 1409
f  1412 1413 1409
f  1412 1415 1413
f  1413 1415 1420
f  1414 1289 1410
f  1412 1414 1415
f  1414 1410 1415
f  1415 1410 1411
f  1415 1411 1422
f  1420 1417 1416
f  1413 1420 1416
f  1420 1421 1417
f  1422 1411 1418
f  1415 1422 1420
f  1420 1422 1421
f  1422 1418 1423
f  1421 1430 1417
f  1423 1418 1419
f  1421 1423 1431
f  1421 1422 1423
f  1423 1433 1431
f  745 1427 1429
f  745 1429 1426
f  1428 1424 1425
f  1427 1424 1428
f  1427 1428 1429
f  1428 1425 1429
f  1429 1425 1426
f  1431 1434 1430
f  1421 1431 1430
f  1433 1419 1432
f  1423 1419 1433
f  1439 1432 1435
f  1438 1437 1434
f  1431 1433 1438
f  1431 1438 1434
f  1433 1432 1439
f  1433 1439 1438
f  1439 1441 1438
f  1438 1441 1437
f  1440 1435 1436
f  1439 1435 1440
f  1439 1440 1441
f  1440 1436 1449
f  1441 1444 1437
f  1441 1440 1451
f  1449 1436 1442
f  1450 1442 1443
f  1440 1449 1451
f  1449 1442 1450
f  1450 1443 1452
f  1449 1450 1451
f  1451 1448 1444
f  1441 1451 1444
f  1451 1455 1448
f  1451 1450 1455
f  1452 1443 1445
f  1453 1445 1446
f  1454 1446 1447
f  1452 1445 1453
f  1450 1452 1455
f  1452 1453 1455
f  1453 1446 1454
f  1454 1447 1472
f  1453 1454 1475
f  1455 1471 1448
f  1455 1475 1471
f  1455 1453 1475
f  1459 1456 1457
f  1458 1469 1456
f  1458 1456 1459
f  1459 1457 1474
f  1458 1459 1473
f  1462 1461 1460
f  1463 1499 1461
f  1462 1460 1510
f  1462 1463 1461
f  1462 1510 1463
f  1467 1464 1465
f  1466 1464 1467
f  1467 1465 1489
f  1466 1467 1489
f  1473 1468 1469
f  1472 1447 1468
f  1474 1457 1470
f  1472 1468 1473
f  1458 1473 1469
f  1454 1472 1475
f  1472 1473 1474
f  1475 1472 1474
f  1473 1459 1474
f  1475 1470 1471
f  1475 1474 1470
f  1466 1476 1464
f  1489 1465 1478
f  1466 1487 1476
f  1466 1489 1487
f  1489 1488 1487
f  1487 1477 1476
f  1488 1483 1477
f  1487 1488 1477
f  1490 1478 1479
f  1491 1479 1480
f  1492 1480 1481
f  1493 1481 1482
f  1558 1482 1550
f  1489 1478 1490
f  1490 1479 1491
f  1491 1480 1492
f  1489 1490 1488
f  1488 1490 1494
f  1494 1490 1491
f  1491 1492 1495
f  1492 1481 1493
f  1493 1482 1558
f  1492 1493 1496
f  1493 1558 1497
f  1494 1484 1483
f  1495 1485 1484
f  1496 1486 1485
f  1488 1494 1483
f  1494 1495 1484
f  1494 1491 1495
f  1495 1496 1485
f  1496 1497 1486
f  1495 1492 1496
f  1493 1497 1496
f  1510 1460 1498
f  1511 1501 1499
f  1512 1498 1500
f  1463 1511 1499
f  1510 1511 1463
f  1510 1498 1512
f  1512 1500 1518
f  1511 1513 1501
f  1510 1512 1511
f  1512 1514 1511
f  1511 1514 1513
f  1513 1514 1528
f  1516 1506 1504
f  1515 1505 1503
f  1517 1504 1505
f  1395 1515 1503
f  1517 1516 1504
f  1515 1517 1505
f  1517 1540 1516
f  1518 1500 1506
f  1514 1508 1502
f  1519 1502 1507
f  1520 1536 1508
f  1521 1507 1509
f  1518 1506 1516
f  1512 1518 1514
f  1518 1516 1520
f  1518 1520 1514
f  1514 1502 1519
f  1514 1520 1508
f  1514 1519 1528
f  1540 1536 1520
f  1516 1540 1520
f  1519 1507 1521
f  1519 1521 1529
f  1513 1522 1501
f  1513 1528 1522
f  1528 1523 1522
f  1529 1524 1523
f  1530 1525 1524
f  1528 1529 1523
f  1529 1530 1524
f  1528 1519 1529
f  1521 1509 1546
f  1529 1521 1530
f  1530 1521 1546
f  1530 1531 1525
f  1530 1547 1531
f  1531 1526 1525
f  1532 1527 1526
f  1533 1555 1527
f  1531 1532 1526
f  1531 1548 1532
f  1532 1533 1527
f  1532 1549 1533
f  1538 1401 1534
f  1541 1535 1537
f  1539 1534 1535
f  1395 1538 1515
f  1515 1539 1517
f  1517 1541 1540
f  1517 1539 1541
f  1538 1534 1539
f  1515 1538 1539
f  1539 1535 1541
f  1540 1537 1536
f  1540 1541 1537
f  1546 1509 1542
f  1547 1542 1543
f  1548 1543 1544
f  1546 1542 1547
f  1530 1546 1547
f  1547 1543 1548
f  1531 1547 1548
f  1549 1544 1545
f  1532 1548 1549
f  1533 1549 1567
f  1548 1544 1549
f  1549 1545 1567
f  1559 1550 1551
f  1560 1551 1552
f  1561 1552 1553
f  1558 1550 1559
f  1559 1551 1560
f  1558 1559 1562
f  1559 1560 1562
f  1560 1552 1561
f  1497 1554 1486
f  1562 1557 1554
f  1497 1562 1554
f  1497 1558 1562
f  1562 1560 1565
f  1563 1556 1555
f  1564 1553 1556
f  1565 1566 1557
f  1563 1555 1533
f  1563 1564 1556
f  1564 1561 1553
f  1560 1561 1565
f  1564 1565 1561
f  1563 1567 1564
f  1563 1533 1567
f  1564 1567 1565
f  1562 1565 1557
f  1567 1545 1566
f  1565 1567 1566
f  1397 1396 1579
f  1407 1569 1402
f  1575 1568 1570
f  1397 1573 1407
f  1407 1573 1574
f  1573 1568 1575
f  1573 1575 1574
f  1407 1574 1569
f  1573 1580 1568
f  1397 1579 1573
f  1576 1570 1571
f  1574 1582 1569
f  1577 1571 1572
f  1575 1570 1576
f  1576 1571 1577
f  1575 1576 1574
f  1574 1583 1582
f  1574 1576 1583
f  1577 1572 1598
f  1576 1577 1583
f  1577 1598 1583
f  1579 1396 1578
f  1598 1572 1589
f  1579 1581 1573
f  1573 1581 1580
f  1581 1578 1580
f  1579 1578 1581
f  1583 1588 1582
f  1583 1597 1588
f  1583 1598 1597
f  1587 1584 1585
f  1586 1584 1587
f  1586 1587 1627
f  1587 1585 1627
f  1597 1590 1588
f  1600 1589 1591
f  1597 1599 1590
f  1597 1598 1599
f  1598 1589 1600
f  1598 1600 1599
f  1599 1600 1601
f  1601 1600 1603
f  1599 1592 1590
f  1601 1593 1592
f  1602 1606 1593
f  1599 1601 1592
f  1601 1603 1602
f  1601 1602 1593
f  1603 1591 1594
f  1600 1591 1603
f  1604 1594 1595
f  1605 1595 1596
f  1603 1594 1604
f  1603 1604 1602
f  1602 1611 1606
f  1604 1611 1602
f  1604 1595 1605
f  1605 1596 1657
f  1604 1605 1611
f  1611 1607 1606
f  1612 1608 1607
f  1611 1612 1607
f  1611 1605 1612
f  1612 1613 1608
f  1612 1605 1657
f  1612 1657 1658
f  1612 1658 1613
f  1613 1658 1659
f  1613 1609 1608
f  1614 1610 1609
f  1615 1642 1610
f  1613 1614 1609
f  1614 1615 1610
f  1613 1659 1614
f  1659 1660 1614
f  1614 1661 1615
f  1614 1660 1661
f  1586 1618 1584
f  1627 1585 1616
f  1628 1616 1617
f  1586 1627 1629
f  1586 1629 1618
f  1627 1616 1628
f  1628 1617 1631
f  1627 1630 1629
f  1627 1628 1630
f  1628 1631 1630
f  1629 1619 1618
f  1630 1625 1619
f  1629 1630 1619
f  1631 1617 1620
f  1632 1620 1621
f  1633 1621 1622
f  1634 1622 1623
f  1635 1623 1624
f  1631 1620 1632
f  1632 1621 1633
f  1630 1631 1632
f  1632 1633 1636
f  1633 1622 1634
f  1634 1623 1635
f  1636 1633 1634
f  1634 1635 1637
f  1636 1626 1625
f  1630 1636 1625
f  1630 1632 1636
f  1636 1637 1626
f  1636 1634 1637
f  1645 1624 1638
f  1647 1638 1640
f  1646 1640 1639
f  1635 1624 1645
f  1645 1638 1647
f  1635 1645 1637
f  1646 1647 1640
f  1645 1647 1648
f  1646 1651 1647
f  1647 1651 1648
f  1637 1641 1626
f  1648 1644 1641
f  1637 1648 1641
f  1637 1645 1648
f  1649 1639 1642
f  1651 1643 1644
f  1650 1662 1643
f  1615 1649 1642
f  1649 1646 1639
f  1615 1663 1649
f  1649 1650 1646
f  1646 1650 1651
f  1649 1663 1650
f  1615 1661 1663
f  1651 1650 1643
f  1663 1662 1650
f  1648 1651 1644
f  1657 1596 1652
f  1658 1652 1653
f  1659 1653 1654
f  1657 1652 1658
f  1658 1653 1659
f  1660 1654 1655
f  1661 1655 1656
f  1659 1654 1660
f  1660 1655 1661
f  1663 1656 1662
f  1663 1661 1656
