# OpenSCAD obj exporter
v 0 0 0
v 0 0 1
v 4.96361 2.85714 1
v 4.96361 2.90849 1
v 4.56739 4.1049 1
v 4.56739 4.15624 1
v 4.71366 4.0797 1
v 4.94229 4.0797 1
v 4.96361 2.85714 1.2
v 4.96361 2.90849 1.2
v 4.56739 4.1049 1.2
v 4.56739 4.15624 1.2
v 4.71366 4.0797 1.2
v 4.94229 4.0797 1.2
v 5.16995 2.93464 1
v 5.35692 2.93464 1
v 5.56326 2.85714 1
v 5.56326 2.90849 1
v 5.16995 3.36283 1
v 5.35692 3.36864 1
v 5.31526 3.48004 1
v 5.11666 4.1049 1
v 5.11666 4.15624 1
v 5.50514 4.1049 1
v 5.50514 4.15624 1
v 5.66982 4.0797 1
v 5.78511 4.0797 1
v 5.92751 4.1049 1
v 5.92751 4.15624 1
v 6.00026 4.1049 1
v 6.00026 4.15624 1
v 6.14654 4.0797 1
v 6.39648 2.85714 1
v 6.39648 2.90849 1
v 6.60282 2.93464 1
v 6.78979 2.93464 1
v 6.60282 3.36283 1
v 6.78979 3.36864 1
v 6.74814 3.48004 1
v 6.99614 2.85714 1
v 6.99614 2.90849 1
v 6.37516 4.0797 1
v 6.54954 4.1049 1
v 6.54954 4.15624 1
v 6.93801 4.1049 1
v 6.93801 4.15624 1
v 7.10269 4.0797 1
v 7.21798 4.0797 1
v 7.36038 4.1049 1
v 7.41279 4.1049 1
v 7.36038 4.15624 1
v 7.41279 4.15624 1
v 5.16995 2.93464 1.2
v 5.35692 2.93464 1.2
v 5.56326 2.85714 1.2
v 5.56326 2.90849 1.2
v 5.16995 3.36283 1.2
v 5.35692 3.36864 1.2
v 5.31526 3.48004 1.2
v 5.11666 4.1049 1.2
v 5.11666 4.15624 1.2
v 5.50514 4.1049 1.2
v 5.50514 4.15624 1.2
v 5.66982 4.0797 1.2
v 5.78511 4.0797 1.2
v 5.92751 4.1049 1.2
v 5.92751 4.15624 1.2
v 6.00026 4.1049 1.2
v 6.00026 4.15624 1.2
v 6.14654 4.0797 1.2
v 6.39648 2.85714 1.2
v 6.39648 2.90849 1.2
v 6.60282 2.93464 1.2
v 6.78979 2.93464 1.2
v 6.60282 3.36283 1.2
v 6.78979 3.36864 1.2
v 6.74814 3.48004 1.2
v 6.99614 2.85714 1.2
v 6.99614 2.90849 1.2
v 6.37516 4.0797 1.2
v 6.54954 4.1049 1.2
v 6.54954 4.15624 1.2
v 6.93801 4.1049 1.2
v 6.93801 4.15624 1.2
v 7.10269 4.0797 1.2
v 7.21798 4.0797 1.2
v 7.36038 4.1049 1.2
v 7.41279 4.1049 1.2
v 7.36038 4.15624 1.2
v 7.41279 4.15624 1.2
v 7.95625 2.82711 1
v 8.00761 2.82711 1
v 8.02698 3.16424 1
v 8.69056 2.82711 1
v 8.74191 2.82711 1
v 8.35345 3.72224 1
v 7.52614 4.0797 1
v 7.71795 4.0797 1
v 7.90879 4.1049 1
v 7.90879 4.15624 1
v 8.37669 4.06517 1
v 8.42029 4.06517 1
v 8.75741 3.16424 1
v 9.82896 2.82711 1
v 9.88032 2.82711 1
v 9.89969 3.16424 1
v 8.84945 4.1049 1
v 8.84945 4.15624 1
v 9.05191 4.0797 1
v 9.16622 4.0797 1
v 9.27956 4.1049 1
v 9.28551 4.1049 1
v 9.27956 4.15624 1
v 9.28551 4.15624 1
v 9.39885 4.0797 1
v 9.59066 4.0797 1
v 9.78151 4.1049 1
v 9.78151 4.15624 1
v 7.95625 2.82711 1.2
v 8.00761 2.82711 1.2
v 8.02698 3.16424 1.2
v 8.69056 2.82711 1.2
v 8.74191 2.82711 1.2
v 8.35345 3.72224 1.2
v 7.52614 4.0797 1.2
v 7.71795 4.0797 1.2
v 7.90879 4.1049 1.2
v 7.90879 4.15624 1.2
v 8.37669 4.06517 1.2
v 8.42029 4.06517 1.2
v 8.75741 3.16424 1.2
v 9.82896 2.82711 1.2
v 9.88032 2.82711 1.2
v 9.89969 3.16424 1.2
v 8.84945 4.1049 1.2
v 8.84945 4.15624 1.2
v 9.05191 4.0797 1.2
v 9.16622 4.0797 1.2
v 9.27956 4.1049 1.2
v 9.28551 4.1049 1.2
v 9.27956 4.15624 1.2
v 9.28551 4.15624 1.2
v 9.39885 4.0797 1.2
v 9.59066 4.0797 1.2
v 9.78151 4.1049 1.2
v 9.78151 4.15624 1.2
v 6.22163 9.20596 1
v 6.39794 8.724 1
v 6.60913 8.59504 1
v 6.69063 8.66394 1
v 6.89007 8.55206 1
v 6.89201 8.62664 1
v 6.9993 8.6333 1
v 7.12717 8.56731 1
v 7.10029 8.65329 1
v 7.18796 8.68441 1
v 7.25529 8.72449 1
v 7.34829 8.61309 1
v 6.26571 8.93047 1
v 6.54374 8.77583 1
v 6.45401 8.95845 1
v 6.4241 9.2079 1
v 6.26401 9.50034 1
v 6.45268 9.47479 1
v 6.53841 9.66127 1
v 6.39116 9.7131 1
v 6.60163 9.84207 1
v 6.68639 9.77099 1
v 7.29113 8.91824 1
v 7.3541 8.91824 1
v 6.9017 9.80756 1
v 6.99385 9.80186 1
v 6.89394 9.88506 1
v 7.0843 9.78479 1
v 7.16846 9.7573 1
v 7.10392 9.8727 1
v 7.27079 9.5518 1
v 7.33473 9.5518 1
v 7.24173 9.72037 1
v 7.32891 9.83564 1
v 6.22163 9.20596 1.2
v 6.39794 8.724 1.2
v 6.60913 8.59504 1.2
v 6.69063 8.66394 1.2
v 6.89007 8.55206 1.2
v 6.89201 8.62664 1.2
v 6.9993 8.6333 1.2
v 7.12717 8.56731 1.2
v 7.10029 8.65329 1.2
v 7.18796 8.68441 1.2
v 7.25529 8.72449 1.2
v 7.34829 8.61309 1.2
v 6.26571 8.93047 1.2
v 6.54374 8.77583 1.2
v 6.45401 8.95845 1.2
v 6.4241 9.2079 1.2
v 6.26401 9.50034 1.2
v 6.45268 9.47479 1.2
v 6.53841 9.66127 1.2
v 6.39116 9.7131 1.2
v 6.60163 9.84207 1.2
v 6.68639 9.77099 1.2
v 7.29113 8.91824 1.2
v 7.3541 8.91824 1.2
v 6.9017 9.80756 1.2
v 6.99385 9.80186 1.2
v 6.89394 9.88506 1.2
v 7.0843 9.78479 1.2
v 7.16846 9.7573 1.2
v 7.10392 9.8727 1.2
v 7.27079 9.5518 1.2
v 7.33473 9.5518 1.2
v 7.24173 9.72037 1.2
v 7.32891 9.83564 1.2
v 7.75913 5.71429 1
v 7.75913 5.76563 1
v 7.90639 5.79179 1
v 8.01197 5.79179 1
v 8.18636 5.71429 1
v 8.18636 5.76563 1
v 8.14276 6.16669 1
v 8.60873 5.71429 1
v 8.60873 5.76563 1
v 8.65426 6.16669 1
v 8.17181 6.25389 1
v 8.62423 6.25389 1
v 8.3491 7.02404 1
v 8.39463 6.88454 1
v 8.53316 7.02404 1
v 8.7831 5.79179 1
v 8.99331 5.79179 1
v 9.15801 5.71429 1
v 9.15801 5.76563 1
v 9.24239 5.71429 1
v 9.24239 5.76563 1
v 9.39641 5.79179 1
v 9.58339 5.79179 1
v 9.78003 5.71429 1
v 9.78003 5.76563 1
v 9.22979 6.96204 1
v 9.22979 7.01339 1
v 9.58339 6.28391 1
v 9.58339 6.3711 1
v 9.75484 6.3711 1
v 9.81684 6.28391 1
v 9.90319 6.3872 1
v 9.39641 6.93684 1
v 9.58339 6.92619 1
v 9.74903 6.92619 1
v 9.79069 7.01339 1
v 9.90294 6.91056 1
v 7.75913 5.71429 1.2
v 7.75913 5.76563 1.2
v 7.90639 5.79179 1.2
v 8.01197 5.79179 1.2
v 8.18636 5.71429 1.2
v 8.18636 5.76563 1.2
v 8.14276 6.16669 1.2
v 8.60873 5.71429 1.2
v 8.60873 5.76563 1.2
v 8.65426 6.16669 1.2
v 8.17181 6.25389 1.2
v 8.62423 6.25389 1.2
v 8.3491 7.02404 1.2
v 8.39463 6.88454 1.2
v 8.53316 7.02404 1.2
v 8.7831 5.79179 1.2
v 8.99331 5.79179 1.2
v 9.15801 5.71429 1.2
v 9.15801 5.76563 1.2
v 9.24239 5.71429 1.2
v 9.24239 5.76563 1.2
v 9.39641 5.79179 1.2
v 9.58339 5.79179 1.2
v 9.78003 5.71429 1.2
v 9.78003 5.76563 1.2
v 9.22979 6.96204 1.2
v 9.22979 7.01339 1.2
v 9.58339 6.28391 1.2
v 9.58339 6.3711 1.2
v 9.75484 6.3711 1.2
v 9.81684 6.28391 1.2
v 9.90319 6.3872 1.2
v 9.39641 6.93684 1.2
v 9.58339 6.92619 1.2
v 9.74903 6.92619 1.2
v 9.79069 7.01339 1.2
v 9.90294 6.91056 1.2
v 7.53341 8.57143 1
v 7.53341 8.62277 1
v 7.68744 8.64893 1
v 7.87441 8.64893 1
v 8.08076 8.57143 1
v 8.08076 8.62277 1
v 8.62429 8.57143 1
v 8.62429 8.62277 1
v 7.87441 9.08099 1
v 7.87441 9.16819 1
v 8.02069 9.08099 1
v 7.97516 9.16819 1
v 8.11744 9.18683 1
v 7.52081 9.81919 1
v 7.52081 9.87053 1
v 7.68744 9.79399 1
v 7.87441 9.78333 1
v 7.96934 9.78333 1
v 8.12022 9.76613 1
v 8.011 9.87053 1
v 8.22013 9.1069 1
v 8.21686 9.24277 1
v 8.27535 9.34086 1
v 8.36701 9.18464 1
v 8.45747 9.31228 1
v 8.27619 9.623 1
v 8.29484 9.48593 1
v 8.22024 9.71454 1
v 8.36847 9.77486 1
v 8.48763 9.48787 1
v 8.62429 9.81919 1
v 8.62429 9.87053 1
v 8.79091 8.64893 1
v 8.89263 8.64893 1
v 9.067 8.57143 1
v 9.067 8.62277 1
v 9.69379 8.57143 1
v 9.78776 8.57143 1
v 8.79091 9.79399 1
v 8.89263 9.73974 1
v 9.0176 9.87053 1
v 9.68603 8.90856 1
v 9.51166 9.81919 1
v 9.51166 9.87053 1
v 9.68603 9.79399 1
v 9.78776 9.79399 1
v 9.95439 9.81919 1
v 9.95439 9.87053 1
v 7.53341 8.57143 1.2
v 7.53341 8.62277 1.2
v 7.68744 8.64893 1.2
v 7.87441 8.64893 1.2
v 8.08076 8.57143 1.2
v 8.08076 8.62277 1.2
v 8.62429 8.57143 1.2
v 8.62429 8.62277 1.2
v 7.87441 9.08099 1.2
v 7.87441 9.16819 1.2
v 8.02069 9.08099 1.2
v 7.97516 9.16819 1.2
v 8.11744 9.18683 1.2
v 7.52081 9.81919 1.2
v 7.52081 9.87053 1.2
v 7.68744 9.79399 1.2
v 7.87441 9.78333 1.2
v 7.96934 9.78333 1.2
v 8.12022 9.76613 1.2
v 8.011 9.87053 1.2
v 8.22013 9.1069 1.2
v 8.21686 9.24277 1.2
v 8.27535 9.34086 1.2
v 8.36701 9.18464 1.2
v 8.45747 9.31228 1.2
v 8.27619 9.623 1.2
v 8.29484 9.48593 1.2
v 8.22024 9.71454 1.2
v 8.36847 9.77486 1.2
v 8.48763 9.48787 1.2
v 8.62429 9.81919 1.2
v 8.62429 9.87053 1.2
v 8.79091 8.64893 1.2
v 8.89263 8.64893 1.2
v 9.067 8.57143 1.2
v 9.067 8.62277 1.2
v 9.69379 8.57143 1.2
v 9.78776 8.57143 1.2
v 8.79091 9.79399 1.2
v 8.89263 9.73974 1.2
v 9.0176 9.87053 1.2
v 9.68603 8.90856 1.2
v 9.51166 9.81919 1.2
v 9.51166 9.87053 1.2
v 9.68603 9.79399 1.2
v 9.78776 9.79399 1.2
v 9.95439 9.81919 1.2
v 9.95439 9.87053 1.2
v 0 20 0
v 3.5041 14.2857 1
v 3.5041 14.3781 1
v 4.30098 14.2857 1
v 3.80403 14.4252 1
v 3.98711 14.4252 1
v 4.30098 14.3781 1
v 4.8433 14.2857 1
v 4.90432 14.2857 1
v 4.97233 14.8455 1
v 3.5041 14.2857 1.2
v 3.5041 14.3781 1.2
v 4.30098 14.2857 1.2
v 3.80403 14.4252 1.2
v 3.98711 14.4252 1.2
v 4.30098 14.3781 1.2
v 4.8433 14.2857 1.2
v 4.90432 14.2857 1.2
v 4.97233 14.8455 1.2
v 1.19749 17.2929 1
v 1.13484 17.4117 1
v 1.2852 17.1835 1
v 1.39184 17.0919 1
v 1.51119 17.0266 1
v 1.64324 16.9873 1
v 1.788 16.9743 1
v 1.93276 16.9873 1
v 2.06479 17.0266 1
v 2.18411 17.0919 1
v 2.29071 17.1835 1
v 2.37846 17.2929 1
v 2.44114 17.4117 1
v 1.19749 17.2929 1.2
v 1.13484 17.4117 1.2
v 1.2852 17.1835 1.2
v 1.39184 17.0919 1.2
v 1.51119 17.0266 1.2
v 1.64324 16.9873 1.2
v 1.788 16.9743 1.2
v 1.93276 16.9873 1.2
v 2.06479 17.0266 1.2
v 2.18411 17.0919 1.2
v 2.29071 17.1835 1.2
v 2.37846 17.2929 1.2
v 2.44114 17.4117 1.2
v 1.08471 17.6776 1
v 1.09724 17.5399 1
v 1.09743 17.82 1
v 1.13556 17.9508 1
v 1.19913 18.0699 1
v 0 20 1
v 1.28811 18.1774 1
v 1.39566 18.2665 1
v 1.51483 18.33 1
v 1.64561 18.3682 1
v 1.788 18.3809 1
v 2.47875 17.5399 1
v 2.49129 17.6776 1
v 2.47857 17.82 1
v 2.44041 17.9508 1
v 2.37682 18.0699 1
v 1.93039 18.3682 1
v 2.18029 18.2665 1
v 2.06115 18.33 1
v 2.2878 18.1774 1
v 1.08471 17.6776 1.2
v 1.09724 17.5399 1.2
v 1.09743 17.82 1.2
v 1.13556 17.9508 1.2
v 1.19913 18.0699 1.2
v 1.28811 18.1774 1.2
v 1.39566 18.2665 1.2
v 1.51483 18.33 1.2
v 1.64561 18.3682 1.2
v 1.788 18.3809 1.2
v 2.47875 17.5399 1.2
v 2.49129 17.6776 1.2
v 2.47857 17.82 1.2
v 2.44041 17.9508 1.2
v 2.37682 18.0699 1.2
v 1.93039 18.3682 1.2
v 2.18029 18.2665 1.2
v 2.06115 18.33 1.2
v 2.2878 18.1774 1.2
v 3.5041 16.5317 1
v 3.5041 16.6241 1
v 3.80403 16.4863 1
v 3.98711 16.2963 1
v 4.21206 16.6241 1
v 3.5041 16.5317 1.2
v 3.5041 16.6241 1.2
v 3.80403 16.4863 1.2
v 3.98711 16.2963 1.2
v 4.21206 16.6241 1.2
v 6.22163 12.0631 1
v 6.39794 11.5811 1
v 6.26571 11.7876 1
v 6.54374 11.633 1
v 6.45401 11.8156 1
v 6.60913 11.4522 1
v 6.69063 11.5211 1
v 6.4241 12.065 1
v 6.26401 12.3575 1
v 6.45268 12.3319 1
v 6.89007 11.4092 1
v 6.89201 11.4838 1
v 6.9993 11.4904 1
v 7.10029 11.5104 1
v 7.12717 11.4245 1
v 7.18796 11.5415 1
v 7.34829 11.4702 1
v 7.25529 11.5816 1
v 7.29113 11.7754 1
v 7.3541 11.7754 1
v 7.27079 12.4089 1
v 7.33473 12.4089 1
v 6.22163 12.0631 1.2
v 6.39794 11.5811 1.2
v 6.26571 11.7876 1.2
v 6.54374 11.633 1.2
v 6.45401 11.8156 1.2
v 6.60913 11.4522 1.2
v 6.69063 11.5211 1.2
v 6.4241 12.065 1.2
v 6.26401 12.3575 1.2
v 6.45268 12.3319 1.2
v 6.89007 11.4092 1.2
v 6.89201 11.4838 1.2
v 6.9993 11.4904 1.2
v 7.10029 11.5104 1.2
v 7.12717 11.4245 1.2
v 7.18796 11.5415 1.2
v 7.34829 11.4702 1.2
v 7.25529 11.5816 1.2
v 7.29113 11.7754 1.2
v 7.3541 11.7754 1.2
v 7.27079 12.4089 1.2
v 7.33473 12.4089 1.2
v 5.52336 14.2857 1
v 5.52336 14.3781 1
v 5.83723 14.4252 1
v 6.17203 14.4252 1
v 6.39116 12.5702 1
v 6.53841 12.5184 1
v 6.68639 12.6281 1
v 6.60163 12.6992 1
v 6.9017 12.6647 1
v 6.89394 12.7422 1
v 6.99385 12.659 1
v 7.0843 12.6419 1
v 7.16846 12.6144 1
v 7.10392 12.7298 1
v 7.24173 12.5775 1
v 7.32891 12.6928 1
v 6.47196 14.2857 1
v 6.47196 14.3781 1
v 5.52336 14.2857 1.2
v 5.52336 14.3781 1.2
v 5.83723 14.4252 1.2
v 6.17203 14.4252 1.2
v 6.39116 12.5702 1.2
v 6.53841 12.5184 1.2
v 6.68639 12.6281 1.2
v 6.60163 12.6992 1.2
v 6.9017 12.6647 1.2
v 6.89394 12.7422 1.2
v 6.99385 12.659 1.2
v 7.0843 12.6419 1.2
v 7.16846 12.6144 1.2
v 7.10392 12.7298 1.2
v 7.24173 12.5775 1.2
v 7.32891 12.6928 1.2
v 6.47196 14.2857 1.2
v 6.47196 14.3781 1.2
v 7.53341 11.4286 1
v 7.53341 11.4799 1
v 7.68744 11.5061 1
v 7.87441 11.5061 1
v 8.08076 11.4286 1
v 8.08076 11.4799 1
v 7.87441 11.9381 1
v 7.87441 12.0253 1
v 8.02069 11.9381 1
v 7.97516 12.0253 1
v 8.11744 12.044 1
v 8.62429 11.4286 1
v 8.62429 11.4799 1
v 8.22013 11.964 1
v 8.21686 12.0999 1
v 8.36701 12.0418 1
v 8.27535 12.198 1
v 8.27619 12.4801 1
v 8.29484 12.3431 1
v 8.45747 12.1694 1
v 8.48763 12.345 1
v 8.79091 11.5061 1
v 8.89263 11.5061 1
v 9.067 11.4286 1
v 9.067 11.4799 1
v 9.68603 11.7657 1
v 9.69379 11.4286 1
v 9.78776 11.4286 1
v 7.53341 11.4286 1.2
v 7.53341 11.4799 1.2
v 7.68744 11.5061 1.2
v 7.87441 11.5061 1.2
v 8.08076 11.4286 1.2
v 8.08076 11.4799 1.2
v 7.87441 11.9381 1.2
v 7.87441 12.0253 1.2
v 8.02069 11.9381 1.2
v 7.97516 12.0253 1.2
v 8.11744 12.044 1.2
v 8.62429 11.4286 1.2
v 8.62429 11.4799 1.2
v 8.22013 11.964 1.2
v 8.21686 12.0999 1.2
v 8.36701 12.0418 1.2
v 8.27535 12.198 1.2
v 8.27619 12.4801 1.2
v 8.29484 12.3431 1.2
v 8.45747 12.1694 1.2
v 8.48763 12.345 1.2
v 8.79091 11.5061 1.2
v 8.89263 11.5061 1.2
v 9.067 11.4286 1.2
v 9.067 11.4799 1.2
v 9.68603 11.7657 1.2
v 9.69379 11.4286 1.2
v 9.78776 11.4286 1.2
v 7.52081 12.6763 1
v 7.52081 12.7277 1
v 7.68744 12.6511 1
v 7.87441 12.6405 1
v 7.96934 12.6405 1
v 8.12022 12.6233 1
v 8.011 12.7277 1
v 8.22024 12.5717 1
v 8.36847 12.632 1
v 8.62429 12.6763 1
v 8.62429 12.7277 1
v 7.59521 14.2857 1
v 7.59521 14.3781 1
v 7.87246 14.4252 1
v 8.58043 14.2857 1
v 8.20901 14.4252 1
v 8.58043 14.3781 1
v 8.79091 12.6511 1
v 8.89263 12.5969 1
v 9.0176 12.7277 1
v 9.51166 12.6763 1
v 9.51166 12.7277 1
v 9.68603 12.6511 1
v 9.78776 12.6511 1
v 9.95439 12.6763 1
v 9.95439 12.7277 1
v 9.58493 14.2857 1
v 9.58493 14.3781 1
v 9.88486 14.4252 1
v 7.52081 12.6763 1.2
v 7.52081 12.7277 1.2
v 7.68744 12.6511 1.2
v 7.87441 12.6405 1.2
v 7.96934 12.6405 1.2
v 8.12022 12.6233 1.2
v 8.011 12.7277 1.2
v 8.22024 12.5717 1.2
v 8.36847 12.632 1.2
v 8.62429 12.6763 1.2
v 8.62429 12.7277 1.2
v 7.59521 14.2857 1.2
v 7.59521 14.3781 1.2
v 7.87246 14.4252 1.2
v 8.58043 14.2857 1.2
v 8.20901 14.4252 1.2
v 8.58043 14.3781 1.2
v 8.79091 12.6511 1.2
v 8.89263 12.5969 1.2
v 9.0176 12.7277 1.2
v 9.51166 12.6763 1.2
v 9.51166 12.7277 1.2
v 9.68603 12.6511 1.2
v 9.78776 12.6511 1.2
v 9.95439 12.6763 1.2
v 9.95439 12.7277 1.2
v 9.58493 14.2857 1.2
v 9.58493 14.3781 1.2
v 9.88486 14.4252 1.2
v 5.83723 16.2963 1
v 5.80236 16.6241 1
v 6.17203 16.4863 1
v 6.47196 16.5317 1
v 6.47196 16.6241 1
v 5.83723 16.2963 1.2
v 5.80236 16.6241 1.2
v 6.17203 16.4863 1.2
v 6.47196 16.5317 1.2
v 6.47196 16.6241 1.2
v 8.20901 15.2029 1
v 8.20901 15.3599 1
v 8.39035 15.3599 1
v 8.4723 15.2029 1
v 8.64646 15.3934 1
v 7.57253 16.5317 1
v 7.57253 16.6241 1
v 7.87246 16.4863 1
v 8.20901 16.4671 1
v 8.37988 16.4671 1
v 8.65147 16.4362 1
v 8.45487 16.6241 1
v 8.8313 15.2496 1
v 8.82541 15.4941 1
v 9.09569 15.3895 1
v 9.25852 15.6192 1
v 8.93069 15.6707 1
v 8.96578 15.9318 1
v 8.93221 16.1785 1
v 9.3128 15.9353 1
v 8.8315 16.3433 1
v 9.09832 16.4519 1
v 9.58493 16.5317 1
v 9.58493 16.6241 1
v 9.88486 16.4863 1
v 8.20901 15.2029 1.2
v 8.20901 15.3599 1.2
v 8.39035 15.3599 1.2
v 8.4723 15.2029 1.2
v 8.64646 15.3934 1.2
v 7.57253 16.5317 1.2
v 7.57253 16.6241 1.2
v 7.87246 16.4863 1.2
v 8.20901 16.4671 1.2
v 8.37988 16.4671 1.2
v 8.65147 16.4362 1.2
v 8.45487 16.6241 1.2
v 8.8313 15.2496 1.2
v 8.82541 15.4941 1.2
v 9.09569 15.3895 1.2
v 9.25852 15.6192 1.2
v 8.93069 15.6707 1.2
v 8.96578 15.9318 1.2
v 8.93221 16.1785 1.2
v 9.3128 15.9353 1.2
v 8.8315 16.3433 1.2
v 9.09832 16.4519 1.2
v 9.58493 16.5317 1.2
v 9.58493 16.6241 1.2
v 9.88486 16.4863 1.2
v 20 0 0
v 10.5633 2.82711 1
v 10.6146 2.82711 1
v 10.2262 3.72224 1
v 11.2134 2.85714 1
v 11.2134 2.90849 1
v 10.6301 3.16424 1
v 10.2494 4.06517 1
v 10.293 4.06517 1
v 10.7222 4.1049 1
v 10.7222 4.15624 1
v 10.9246 4.0797 1
v 11.0389 4.0797 1
v 11.1523 4.1049 1
v 11.1523 4.15624 1
v 11.2134 4.1049 1
v 11.2134 4.15624 1
v 11.3801 2.93464 1
v 11.4818 2.93464 1
v 11.6561 2.85714 1
v 11.6561 2.90849 1
v 12.2829 2.85714 1
v 12.3769 2.85714 1
v 12.2752 3.19427 1
v 11.4818 4.02546 1
v 11.3801 4.0797 1
v 11.6067 4.15624 1
v 12.1008 4.1049 1
v 12.1008 4.15624 1
v 12.2752 4.0797 1
v 12.3769 4.0797 1
v 10.5633 2.82711 1.2
v 10.6146 2.82711 1.2
v 10.2262 3.72224 1.2
v 11.2134 2.85714 1.2
v 11.2134 2.90849 1.2
v 10.6301 3.16424 1.2
v 10.2494 4.06517 1.2
v 10.293 4.06517 1.2
v 10.7222 4.1049 1.2
v 10.7222 4.15624 1.2
v 10.9246 4.0797 1.2
v 11.0389 4.0797 1.2
v 11.1523 4.1049 1.2
v 11.1523 4.15624 1.2
v 11.2134 4.1049 1.2
v 11.2134 4.15624 1.2
v 11.3801 2.93464 1.2
v 11.4818 2.93464 1.2
v 11.6561 2.85714 1.2
v 11.6561 2.90849 1.2
v 12.2829 2.85714 1.2
v 12.3769 2.85714 1.2
v 12.2752 3.19427 1.2
v 11.4818 4.02546 1.2
v 11.3801 4.0797 1.2
v 11.6067 4.15624 1.2
v 12.1008 4.1049 1.2
v 12.1008 4.15624 1.2
v 12.2752 4.0797 1.2
v 12.3769 4.0797 1.2
v 12.6463 2.85714 1
v 12.6463 2.90849 1
v 12.8129 2.93464 1
v 12.9147 2.93464 1
v 13.089 2.85714 1
v 13.089 2.90849 1
v 13.7158 2.85714 1
v 13.708 3.19427 1
v 12.5435 4.1049 1
v 12.5435 4.15624 1
v 12.6463 4.1049 1
v 12.6463 4.15624 1
v 12.9147 4.02546 1
v 12.8129 4.0797 1
v 13.0396 4.15624 1
v 13.5337 4.1049 1
v 13.5337 4.15624 1
v 13.708 4.0797 1
v 13.8098 2.85714 1
v 14.0792 2.85714 1
v 14.0792 2.90849 1
v 14.2458 2.93464 1
v 14.3475 2.93464 1
v 14.5219 2.85714 1
v 14.5219 2.90849 1
v 13.8098 4.0797 1
v 13.9764 4.1049 1
v 13.9764 4.15624 1
v 14.3475 4.02546 1
v 14.0792 4.1049 1
v 14.0792 4.15624 1
v 14.2458 4.0797 1
v 14.4725 4.15624 1
v 14.9666 4.1049 1
v 14.9666 4.15624 1
v 12.6463 2.85714 1.2
v 12.6463 2.90849 1.2
v 12.8129 2.93464 1.2
v 12.9147 2.93464 1.2
v 13.089 2.85714 1.2
v 13.089 2.90849 1.2
v 13.7158 2.85714 1.2
v 13.708 3.19427 1.2
v 12.5435 4.1049 1.2
v 12.5435 4.15624 1.2
v 12.6463 4.1049 1.2
v 12.6463 4.15624 1.2
v 12.9147 4.02546 1.2
v 12.8129 4.0797 1.2
v 13.0396 4.15624 1.2
v 13.5337 4.1049 1.2
v 13.5337 4.15624 1.2
v 13.708 4.0797 1.2
v 13.8098 2.85714 1.2
v 14.0792 2.85714 1.2
v 14.0792 2.90849 1.2
v 14.2458 2.93464 1.2
v 14.3475 2.93464 1.2
v 14.5219 2.85714 1.2
v 14.5219 2.90849 1.2
v 13.8098 4.0797 1.2
v 13.9764 4.1049 1.2
v 13.9764 4.15624 1.2
v 14.3475 4.02546 1.2
v 14.0792 4.1049 1.2
v 14.0792 4.15624 1.2
v 14.2458 4.0797 1.2
v 14.4725 4.15624 1.2
v 14.9666 4.1049 1.2
v 14.9666 4.15624 1.2
v 10.1821 5.71429 1
v 10.3526 5.79179 1
v 10.493 5.71429 1
v 10.493 5.76563 1
v 10.5532 5.71429 1
v 10.5532 5.76563 1
v 10.7198 5.79179 1
v 10.8215 5.79179 1
v 10.9959 5.71429 1
v 10.9959 5.76563 1
v 10.0009 6.31104 1
v 10.1123 6.36226 1
v 10.0014 6.43551 1
v 10.0562 6.5221 1
v 10.1966 6.4423 1
v 10.2496 6.5456 1
v 10.0745 6.653 1
v 10.0565 6.77979 1
v 10.0024 6.8637 1
v 10.2673 6.66657 1
v 10.2383 6.82374 1
v 10.0028 6.9928 1
v 10.1511 6.93103 1
v 10.5532 6.96204 1
v 10.5532 7.01339 1
v 10.8215 6.83126 1
v 10.7198 6.93684 1
v 10.9465 7.01339 1
v 11.2972 5.71429 1
v 11.3311 5.71429 1
v 11.3689 6.02526 1
v 11.675 5.71429 1
v 11.675 5.76563 1
v 11.8494 5.79179 1
v 12.0354 5.79179 1
v 12.202 5.71429 1
v 12.202 5.76563 1
v 11.8494 6.83126 1
v 11.83 7.01339 1
v 12.0354 6.93684 1
v 12.202 6.96204 1
v 12.202 7.01339 1
v 10.1821 5.71429 1.2
v 10.3526 5.79179 1.2
v 10.493 5.71429 1.2
v 10.493 5.76563 1.2
v 10.5532 5.71429 1.2
v 10.5532 5.76563 1.2
v 10.7198 5.79179 1.2
v 10.8215 5.79179 1.2
v 10.9959 5.71429 1.2
v 10.9959 5.76563 1.2
v 10.0009 6.31104 1.2
v 10.1123 6.36226 1.2
v 10.0014 6.43551 1.2
v 10.0562 6.5221 1.2
v 10.1966 6.4423 1.2
v 10.2496 6.5456 1.2
v 10.0745 6.653 1.2
v 10.0565 6.77979 1.2
v 10.0024 6.8637 1.2
v 10.2673 6.66657 1.2
v 10.2383 6.82374 1.2
v 10.0028 6.9928 1.2
v 10.1511 6.93103 1.2
v 10.5532 6.96204 1.2
v 10.5532 7.01339 1.2
v 10.8215 6.83126 1.2
v 10.7198 6.93684 1.2
v 10.9465 7.01339 1.2
v 11.2972 5.71429 1.2
v 11.3311 5.71429 1.2
v 11.3689 6.02526 1.2
v 11.675 5.71429 1.2
v 11.675 5.76563 1.2
v 11.8494 5.79179 1.2
v 12.0354 5.79179 1.2
v 12.202 5.71429 1.2
v 12.202 5.76563 1.2
v 11.8494 6.83126 1.2
v 11.83 7.01339 1.2
v 12.0354 6.93684 1.2
v 12.202 6.96204 1.2
v 12.202 7.01339 1.2
v 10.2577 8.724 1
v 10.4689 8.59504 1
v 10.5504 8.66394 1
v 10.7498 8.55206 1
v 10.7518 8.62664 1
v 10.859 8.6333 1
v 10.9869 8.56731 1
v 10.96 8.65329 1
v 11.0477 8.68441 1
v 11.115 8.72449 1
v 11.208 8.61309 1
v 10.1255 8.93047 1
v 10.0814 9.20596 1
v 10.2838 9.2079 1
v 10.4035 8.77583 1
v 10.3138 8.95845 1
v 10.1238 9.50034 1
v 10.3124 9.47479 1
v 10.2509 9.7131 1
v 10.3982 9.66127 1
v 10.4614 9.84207 1
v 10.5461 9.77099 1
v 11.1509 8.91824 1
v 11.2138 8.91824 1
v 10.7614 9.80756 1
v 10.7537 9.88506 1
v 10.8536 9.80186 1
v 11.1305 9.5518 1
v 11.1945 9.5518 1
v 10.944 9.78479 1
v 11.0282 9.7573 1
v 10.9637 9.8727 1
v 11.1015 9.72037 1
v 11.1887 9.83564 1
v 11.3932 8.57143 1
v 11.3932 8.62277 1
v 11.5472 8.64893 1
v 11.7342 8.64893 1
v 11.9405 8.57143 1
v 11.9405 8.62277 1
v 12.484 8.57143 1
v 12.484 8.62277 1
v 11.7342 9.08099 1
v 11.7342 9.16819 1
v 11.8349 9.16819 1
v 11.3806 9.81919 1
v 11.3806 9.87053 1
v 11.5472 9.79399 1
v 11.7342 9.78333 1
v 11.8291 9.78333 1
v 11.8707 9.87053 1
v 11.8804 9.08099 1
v 11.9772 9.18683 1
v 12.0799 9.1069 1
v 12.0766 9.24277 1
v 12.1351 9.34086 1
v 12.2268 9.18464 1
v 12.3172 9.31228 1
v 12.1546 9.48593 1
v 12.1359 9.623 1
v 11.98 9.76613 1
v 12.08 9.71454 1
v 12.3474 9.48787 1
v 12.2282 9.77486 1
v 12.484 9.81919 1
v 12.484 9.87053 1
v 10.2577 8.724 1.2
v 10.4689 8.59504 1.2
v 10.5504 8.66394 1.2
v 10.7498 8.55206 1.2
v 10.7518 8.62664 1.2
v 10.859 8.6333 1.2
v 10.9869 8.56731 1.2
v 10.96 8.65329 1.2
v 11.0477 8.68441 1.2
v 11.115 8.72449 1.2
v 11.208 8.61309 1.2
v 10.1255 8.93047 1.2
v 10.0814 9.20596 1.2
v 10.2838 9.2079 1.2
v 10.4035 8.77583 1.2
v 10.3138 8.95845 1.2
v 10.1238 9.50034 1.2
v 10.3124 9.47479 1.2
v 10.2509 9.7131 1.2
v 10.3982 9.66127 1.2
v 10.4614 9.84207 1.2
v 10.5461 9.77099 1.2
v 11.1509 8.91824 1.2
v 11.2138 8.91824 1.2
v 10.7614 9.80756 1.2
v 10.7537 9.88506 1.2
v 10.8536 9.80186 1.2
v 11.1305 9.5518 1.2
v 11.1945 9.5518 1.2
v 10.944 9.78479 1.2
v 11.0282 9.7573 1.2
v 10.9637 9.8727 1.2
v 11.1015 9.72037 1.2
v 11.1887 9.83564 1.2
v 11.3932 8.57143 1.2
v 11.3932 8.62277 1.2
v 11.5472 8.64893 1.2
v 11.7342 8.64893 1.2
v 11.9405 8.57143 1.2
v 11.9405 8.62277 1.2
v 12.484 8.57143 1.2
v 12.484 8.62277 1.2
v 11.7342 9.08099 1.2
v 11.7342 9.16819 1.2
v 11.8349 9.16819 1.2
v 11.3806 9.81919 1.2
v 11.3806 9.87053 1.2
v 11.5472 9.79399 1.2
v 11.7342 9.78333 1.2
v 11.8291 9.78333 1.2
v 11.8707 9.87053 1.2
v 11.8804 9.08099 1.2
v 11.9772 9.18683 1.2
v 12.0799 9.1069 1.2
v 12.0766 9.24277 1.2
v 12.1351 9.34086 1.2
v 12.2268 9.18464 1.2
v 12.3172 9.31228 1.2
v 12.1546 9.48593 1.2
v 12.1359 9.623 1.2
v 11.98 9.76613 1.2
v 12.08 9.71454 1.2
v 12.3474 9.48787 1.2
v 12.2282 9.77486 1.2
v 12.484 9.81919 1.2
v 12.484 9.87053 1.2
v 12.6507 8.64893 1
v 12.7524 8.64893 1
v 12.9267 8.57143 1
v 12.9267 8.62277 1
v 13.5535 8.57143 1
v 13.6475 8.57143 1
v 12.6507 9.79399 1
v 12.7524 9.73974 1
v 12.8773 9.87053 1
v 13.5458 8.90856 1
v 13.3714 9.81919 1
v 13.3714 9.87053 1
v 13.5458 9.79399 1
v 13.6475 9.79399 1
v 13.8141 9.81919 1
v 13.8141 9.87053 1
v 12.6507 8.64893 1.2
v 12.7524 8.64893 1.2
v 12.9267 8.57143 1.2
v 12.9267 8.62277 1.2
v 13.5535 8.57143 1.2
v 13.6475 8.57143 1.2
v 12.6507 9.79399 1.2
v 12.7524 9.73974 1.2
v 12.8773 9.87053 1.2
v 13.5458 8.90856 1.2
v 13.3714 9.81919 1.2
v 13.3714 9.87053 1.2
v 13.5458 9.79399 1.2
v 13.6475 9.79399 1.2
v 13.8141 9.81919 1.2
v 13.8141 9.87053 1.2
v 15.1487 2.85714 1
v 15.2427 2.85714 1
v 15.1409 3.19427 1
v 15.1409 4.0797 1
v 15.2427 4.0797 1
v 15.4093 4.1049 1
v 15.4093 4.15624 1
v 15.1487 2.85714 1.2
v 15.2427 2.85714 1.2
v 15.1409 3.19427 1.2
v 15.1409 4.0797 1.2
v 15.2427 4.0797 1.2
v 15.4093 4.1049 1.2
v 15.4093 4.15624 1.2
v 20 0 1
v 20 20 0
v 10.1255 11.7876 1
v 10.2577 11.5811 1
v 10.4689 11.4522 1
v 10.5504 11.5211 1
v 10.4035 11.633 1
v 10.3138 11.8156 1
v 10.0814 12.0631 1
v 10.2838 12.065 1
v 10.1238 12.3575 1
v 10.3124 12.3319 1
v 10.7498 11.4092 1
v 10.7518 11.4838 1
v 10.859 11.4904 1
v 10.9869 11.4245 1
v 10.96 11.5104 1
v 11.0477 11.5415 1
v 11.208 11.4702 1
v 11.115 11.5816 1
v 11.1509 11.7754 1
v 11.2138 11.7754 1
v 11.1305 12.4089 1
v 11.1945 12.4089 1
v 11.3932 11.4286 1
v 11.3932 11.4799 1
v 11.5472 11.5061 1
v 11.7342 11.5061 1
v 11.7342 11.9381 1
v 11.7342 12.0253 1
v 11.8349 12.0253 1
v 11.9405 11.4286 1
v 11.9405 11.4799 1
v 12.484 11.4286 1
v 12.484 11.4799 1
v 11.8804 11.9381 1
v 11.9772 12.044 1
v 12.0799 11.964 1
v 12.0766 12.0999 1
v 12.1351 12.198 1
v 12.1546 12.3431 1
v 12.1359 12.4801 1
v 12.2268 12.0418 1
v 12.3172 12.1694 1
v 12.3474 12.345 1
v 10.1255 11.7876 1.2
v 10.2577 11.5811 1.2
v 10.4689 11.4522 1.2
v 10.5504 11.5211 1.2
v 10.4035 11.633 1.2
v 10.3138 11.8156 1.2
v 10.0814 12.0631 1.2
v 10.2838 12.065 1.2
v 10.1238 12.3575 1.2
v 10.3124 12.3319 1.2
v 10.7498 11.4092 1.2
v 10.7518 11.4838 1.2
v 10.859 11.4904 1.2
v 10.9869 11.4245 1.2
v 10.96 11.5104 1.2
v 11.0477 11.5415 1.2
v 11.208 11.4702 1.2
v 11.115 11.5816 1.2
v 11.1509 11.7754 1.2
v 11.2138 11.7754 1.2
v 11.1305 12.4089 1.2
v 11.1945 12.4089 1.2
v 11.3932 11.4286 1.2
v 11.3932 11.4799 1.2
v 11.5472 11.5061 1.2
v 11.7342 11.5061 1.2
v 11.7342 11.9381 1.2
v 11.7342 12.0253 1.2
v 11.8349 12.0253 1.2
v 11.9405 11.4286 1.2
v 11.9405 11.4799 1.2
v 12.484 11.4286 1.2
v 12.484 11.4799 1.2
v 11.8804 11.9381 1.2
v 11.9772 12.044 1.2
v 12.0799 11.964 1.2
v 12.0766 12.0999 1.2
v 12.1351 12.198 1.2
v 12.1546 12.3431 1.2
v 12.1359 12.4801 1.2
v 12.2268 12.0418 1.2
v 12.3172 12.1694 1.2
v 12.3474 12.345 1.2
v 10.2509 12.5702 1
v 10.3982 12.5184 1
v 10.4614 12.6992 1
v 10.5461 12.6281 1
v 10.7614 12.6647 1
v 10.7537 12.7422 1
v 10.8536 12.659 1
v 10.944 12.6419 1
v 11.0282 12.6144 1
v 10.9637 12.7298 1
v 11.1015 12.5775 1
v 11.1887 12.6928 1
v 10.5196 14.2857 1
v 10.2197 14.4252 1
v 10.5196 14.3781 1
v 10.871 14.932 1
v 11.109 14.5603 1
v 11.21 14.9823 1
v 11.3806 12.6763 1
v 11.3806 12.7277 1
v 11.5472 12.6511 1
v 11.7342 12.6405 1
v 11.8291 12.6405 1
v 11.8707 12.7277 1
v 11.98 12.6233 1
v 12.08 12.5717 1
v 12.2282 12.632 1
v 12.484 12.6763 1
v 12.484 12.7277 1
v 11.4892 14.3282 1
v 11.3715 14.6536 1
v 11.6359 14.4522 1
v 11.9949 14.2508 1
v 12.4216 14.2783 1
v 11.9984 14.3851 1
v 12.1915 14.3971 1
v 12.3733 14.4331 1
v 10.2509 12.5702 1.2
v 10.3982 12.5184 1.2
v 10.4614 12.6992 1.2
v 10.5461 12.6281 1.2
v 10.7614 12.6647 1.2
v 10.7537 12.7422 1.2
v 10.8536 12.659 1.2
v 10.944 12.6419 1.2
v 11.0282 12.6144 1.2
v 10.9637 12.7298 1.2
v 11.1015 12.5775 1.2
v 11.1887 12.6928 1.2
v 10.5196 14.2857 1.2
v 10.2197 14.4252 1.2
v 10.5196 14.3781 1.2
v 10.871 14.932 1.2
v 11.109 14.5603 1.2
v 11.21 14.9823 1.2
v 11.3806 12.6763 1.2
v 11.3806 12.7277 1.2
v 11.5472 12.6511 1.2
v 11.7342 12.6405 1.2
v 11.8291 12.6405 1.2
v 11.8707 12.7277 1.2
v 11.98 12.6233 1.2
v 12.08 12.5717 1.2
v 12.2282 12.632 1.2
v 12.484 12.6763 1.2
v 12.484 12.7277 1.2
v 11.4892 14.3282 1.2
v 11.3715 14.6536 1.2
v 11.6359 14.4522 1.2
v 11.9949 14.2508 1.2
v 12.4216 14.2783 1.2
v 11.9984 14.3851 1.2
v 12.1915 14.3971 1.2
v 12.3733 14.4331 1.2
v 12.6507 11.5061 1
v 12.7524 11.5061 1
v 12.9267 11.4286 1
v 12.9267 11.4799 1
v 13.5535 11.4286 1
v 13.6475 11.4286 1
v 13.5458 11.7657 1
v 12.6507 11.5061 1.2
v 12.7524 11.5061 1.2
v 12.9267 11.4286 1.2
v 12.9267 11.4799 1.2
v 13.5535 11.4286 1.2
v 13.6475 11.4286 1.2
v 13.5458 11.7657 1.2
v 12.6507 12.6511 1
v 12.7524 12.5969 1
v 12.8773 12.7277 1
v 13.3714 12.6763 1
v 13.3714 12.7277 1
v 13.5458 12.6511 1
v 13.6475 12.6511 1
v 12.8197 14.3607 1
v 12.5311 14.4891 1
v 12.6523 14.5612 1
v 12.7168 14.91 1
v 12.8301 14.91 1
v 13.2174 14.3258 1
v 13.5226 14.2696 1
v 13.3918 14.4897 1
v 13.1982 14.8176 1
v 13.3133 14.8176 1
v 13.474 14.454 1
v 13.5845 14.4235 1
v 13.705 14.4025 1
v 13.8141 12.6763 1
v 13.8141 12.7277 1
v 13.8451 14.2508 1
v 14.1961 14.2953 1
v 13.8172 14.3956 1
v 14.0553 14.427 1
v 14.2218 14.5211 1
v 14.3199 14.6885 1
v 14.3526 14.9396 1
v 14.97 14.2857 1
v 14.4572 14.4287 1
v 14.6194 14.641 1
v 14.6734 14.9222 1
v 14.97 14.542 1
v 12.6507 12.6511 1.2
v 12.7524 12.5969 1.2
v 12.8773 12.7277 1.2
v 13.3714 12.6763 1.2
v 13.3714 12.7277 1.2
v 13.5458 12.6511 1.2
v 13.6475 12.6511 1.2
v 12.8197 14.3607 1.2
v 12.5311 14.4891 1.2
v 12.6523 14.5612 1.2
v 12.7168 14.91 1.2
v 12.8301 14.91 1.2
v 13.2174 14.3258 1.2
v 13.5226 14.2696 1.2
v 13.3918 14.4897 1.2
v 13.1982 14.8176 1.2
v 13.3133 14.8176 1.2
v 13.474 14.454 1.2
v 13.5845 14.4235 1.2
v 13.705 14.4025 1.2
v 13.8141 12.6763 1.2
v 13.8141 12.7277 1.2
v 13.8451 14.2508 1.2
v 14.1961 14.2953 1.2
v 13.8172 14.3956 1.2
v 14.0553 14.427 1.2
v 14.2218 14.5211 1.2
v 14.3199 14.6885 1.2
v 14.3526 14.9396 1.2
v 14.97 14.2857 1.2
v 14.4572 14.4287 1.2
v 14.6194 14.641 1.2
v 14.6734 14.9222 1.2
v 14.97 14.542 1.2
v 10.7917 15.4279 1
v 11.1561 15.4314 1
v 10.868 15.9577 1
v 11.2076 15.9118 1
v 10.2197 16.4863 1
v 10.5196 16.5317 1
v 10.5196 16.6241 1
v 11.0968 16.3407 1
v 11.3619 16.2474 1
v 11.4757 16.5729 1
v 11.6283 16.4449 1
v 12.0158 16.5107 1
v 12.1817 16.5005 1
v 12.0018 16.6502 1
v 12.3445 16.4698 1
v 12.496 16.4203 1
v 12.3798 16.628 1
v 10.7917 15.4279 1.2
v 11.1561 15.4314 1.2
v 10.868 15.9577 1.2
v 11.2076 15.9118 1.2
v 10.2197 16.4863 1.2
v 10.5196 16.5317 1.2
v 10.5196 16.6241 1.2
v 11.0968 16.3407 1.2
v 11.3619 16.2474 1.2
v 11.4757 16.5729 1.2
v 11.6283 16.4449 1.2
v 12.0158 16.5107 1.2
v 12.1817 16.5005 1.2
v 12.0018 16.6502 1.2
v 12.3445 16.4698 1.2
v 12.496 16.4203 1.2
v 12.3798 16.628 1.2
v 12.6802 16.0504 1
v 12.7953 16.0504 1
v 13.6097 15.4348 1
v 13.6097 15.5778 1
v 13.2697 16.1254 1
v 13.3848 16.1254 1
v 12.6279 16.3538 1
v 12.7848 16.5613 1
v 13.2697 16.5753 1
v 13.4306 16.613 1
v 13.4458 16.4113 1
v 13.5287 16.4491 1
v 13.6237 16.4785 1
v 13.7227 16.4975 1
v 13.5679 16.6354 1
v 13.693 16.6465 1
v 13.8591 15.4209 1
v 13.8591 15.5935 1
v 14.0561 15.5098 1
v 14.3225 15.1421 1
v 14.2322 15.2892 1
v 14.0788 15.3819 1
v 14.3316 15.446 1
v 14.2726 15.5719 1
v 14.0304 15.6293 1
v 14.1503 15.7156 1
v 14.2209 15.856 1
v 14.2445 16.0539 1
v 14.6359 15.1535 1
v 14.5235 15.3276 1
v 14.4336 15.6886 1
v 14.5337 15.8571 1
v 14.5671 16.0748 1
v 13.8172 16.5038 1
v 14.0101 16.477 1
v 13.8172 16.6502 1
v 14.1425 16.3965 1
v 14.219 16.2572 1
v 14.3796 16.5064 1
v 12.6802 16.0504 1.2
v 12.7953 16.0504 1.2
v 13.6097 15.4348 1.2
v 13.6097 15.5778 1.2
v 13.2697 16.1254 1.2
v 13.3848 16.1254 1.2
v 12.6279 16.3538 1.2
v 12.7848 16.5613 1.2
v 13.2697 16.5753 1.2
v 13.4306 16.613 1.2
v 13.4458 16.4113 1.2
v 13.5287 16.4491 1.2
v 13.6237 16.4785 1.2
v 13.7227 16.4975 1.2
v 13.5679 16.6354 1.2
v 13.693 16.6465 1.2
v 13.8591 15.4209 1.2
v 13.8591 15.5935 1.2
v 14.0561 15.5098 1.2
v 14.3225 15.1421 1.2
v 14.2322 15.2892 1.2
v 14.0788 15.3819 1.2
v 14.3316 15.446 1.2
v 14.2726 15.5719 1.2
v 14.0304 15.6293 1.2
v 14.1503 15.7156 1.2
v 14.2209 15.856 1.2
v 14.2445 16.0539 1.2
v 14.6359 15.1535 1.2
v 14.5235 15.3276 1.2
v 14.4336 15.6886 1.2
v 14.5337 15.8571 1.2
v 14.5671 16.0748 1.2
v 13.8172 16.5038 1.2
v 14.0101 16.477 1.2
v 13.8172 16.6502 1.2
v 14.1425 16.3965 1.2
v 14.219 16.2572 1.2
v 14.3796 16.5064 1.2
v 15.1984 14.5542 1
v 15.2943 14.8367 1
v 15.368 14.7064 1
v 15.528 14.8455 1
v 16.4016 14.2857 1
v 16.4016 14.5542 1
v 15.1984 14.5542 1.2
v 15.2943 14.8367 1.2
v 15.368 14.7064 1.2
v 15.528 14.8455 1.2
v 16.4016 14.2857 1.2
v 16.4016 14.5542 1.2
v 15.5651 15.0843 1
v 15.0485 16.1254 1
v 15.1635 16.1254 1
v 15.7529 15.2796 1
v 15.8393 15.1199 1
v 15.8787 15.4514 1
v 16.0476 15.3259 1
v 16.1843 15.4981 1
v 15.9631 15.6284 1
v 16.0108 15.8211 1
v 16.0267 16.0399 1
v 16.001 16.2396 1
v 15.2246 16.4113 1
v 15.3052 16.4491 1
v 15.0485 16.5753 1
v 15.3972 16.4785 1
v 15.4936 16.4975 1
v 15.5873 16.5038 1
v 15.3419 16.6315 1
v 15.5873 16.6502 1
v 15.9238 16.3852 1
v 15.7883 16.4741 1
v 15.9232 16.6104 1
v 16.1636 16.4907 1
v 16.2804 15.6711 1
v 16.3373 15.8501 1
v 16.3563 16.0399 1
v 16.3081 16.2982 1
v 15.5651 15.0843 1.2
v 15.0485 16.1254 1.2
v 15.1635 16.1254 1.2
v 15.7529 15.2796 1.2
v 15.8393 15.1199 1.2
v 15.8787 15.4514 1.2
v 16.0476 15.3259 1.2
v 16.1843 15.4981 1.2
v 15.9631 15.6284 1.2
v 16.0108 15.8211 1.2
v 16.0267 16.0399 1.2
v 16.001 16.2396 1.2
v 15.2246 16.4113 1.2
v 15.3052 16.4491 1.2
v 15.0485 16.5753 1.2
v 15.3972 16.4785 1.2
v 15.4936 16.4975 1.2
v 15.5873 16.5038 1.2
v 15.3419 16.6315 1.2
v 15.5873 16.6502 1.2
v 15.9238 16.3852 1.2
v 15.7883 16.4741 1.2
v 15.9232 16.6104 1.2
v 16.1636 16.4907 1.2
v 16.2804 15.6711 1.2
v 16.3373 15.8501 1.2
v 16.3563 16.0399 1.2
v 16.3081 16.2982 1.2
v 20 20 1
f  2 3 4
f  2 4 5
f  2 17 3
f  2 33 17
f  2 40 33
f  2 91 40
f  2 5 6
f  7 5 4
f  7 4 19
f  1 2 435
f  2 6 386
f  6 147 386
f  1 1126 2
f  2 92 91
f  2 94 92
f  2 95 94
f  2 104 95
f  2 105 104
f  2 734 105
f  2 735 734
f  2 737 735
f  15 19 4
f  16 32 20
f  17 37 18
f  34 17 33
f  35 17 34
f  16 18 32
f  32 18 37
f  21 22 8
f  22 25 23
f  21 26 22
f  25 22 24
f  26 24 22
f  20 32 27
f  27 32 28
f  28 31 29
f  31 28 30
f  32 30 28
f  35 37 17
f  40 91 41
f  36 41 97
f  36 97 38
f  97 41 91
f  39 43 42
f  39 47 43
f  43 46 44
f  46 43 45
f  47 45 43
f  29 31 216
f  44 216 31
f  38 49 48
f  38 50 49
f  38 97 50
f  49 52 51
f  52 49 50
f  44 46 215
f  51 215 46
f  2 752 737
f  2 754 752
f  2 755 754
f  2 794 755
f  96 92 94
f  98 93 99
f  93 101 99
f  99 101 100
f  51 52 215
f  100 215 52
f  103 107 102
f  102 107 108
f  100 101 219
f  102 219 101
f  102 108 222
f  95 104 115
f  110 95 111
f  95 112 111
f  112 95 115
f  103 109 107
f  111 114 113
f  114 111 112
f  113 222 108
f  113 114 234
f  116 106 117
f  106 740 117
f  117 740 118
f  118 234 114
f  23 148 6
f  23 25 149
f  29 149 25
f  159 6 148
f  147 6 159
f  148 23 149
f  29 216 151
f  44 215 216
f  29 151 149
f  227 154 151
f  290 158 289
f  150 177 160
f  161 177 162
f  160 177 161
f  162 177 164
f  164 177 165
f  165 177 168
f  152 177 150
f  153 178 152
f  155 178 153
f  152 178 177
f  156 178 155
f  157 178 156
f  157 169 178
f  170 302 169
f  158 304 170
f  168 177 171
f  171 177 172
f  172 177 174
f  174 179 175
f  179 174 177
f  169 302 178
f  178 302 180
f  303 180 302
f  215 100 219
f  217 227 216
f  102 222 219
f  218 220 223
f  218 223 221
f  219 223 220
f  223 219 222
f  221 223 230
f  221 230 224
f  227 151 216
f  225 226 228
f  113 232 222
f  113 234 232
f  235 232 234
f  232 235 233
f  233 247 231
f  247 233 235
f  236 247 235
f  234 118 238
f  118 864 238
f  237 239 242
f  238 864 239
f  245 239 864
f  242 239 245
f  229 231 240
f  231 247 240
f  229 240 241
f  249 248 243
f  251 243 244
f  244 246 881
f  246 876 877
f  251 249 243
f  244 882 251
f  244 881 882
f  154 227 158
f  158 227 289
f  289 227 293
f  291 158 290
f  229 293 227
f  229 295 293
f  229 323 295
f  293 296 294
f  296 293 295
f  291 304 158
f  292 294 297
f  297 294 299
f  299 294 309
f  300 301 298
f  301 310 298
f  310 311 298
f  304 302 170
f  306 305 298
f  314 316 298
f  307 306 298
f  316 307 298
f  294 296 309
f  309 296 312
f  311 315 298
f  312 321 313
f  296 321 312
f  313 321 318
f  318 321 327
f  315 314 298
f  318 319 317
f  320 317 319
f  318 327 319
f  229 241 323
f  250 323 241
f  323 325 324
f  250 325 323
f  885 326 250
f  325 250 326
f  324 328 322
f  328 324 325
f  332 329 331
f  960 326 959
f  326 960 964
f  326 964 334
f  330 331 329
f  330 333 331
f  334 964 335
f  1 435 385
f  1 385 1127
f  385 435 1127
f  2 406 404
f  2 407 406
f  2 404 405
f  2 405 431
f  2 431 430
f  2 408 407
f  2 386 408
f  2 430 435
f  386 479 388
f  388 392 391
f  472 391 392
f  408 387 409
f  409 387 410
f  410 387 411
f  435 430 432
f  435 432 433
f  435 433 434
f  435 434 436
f  435 436 437
f  435 437 438
f  435 438 439
f  435 439 440
f  435 440 446
f  435 446 448
f  387 408 386
f  389 412 387
f  411 387 412
f  412 389 413
f  389 414 413
f  389 469 416
f  389 471 469
f  389 415 414
f  389 416 415
f  416 470 441
f  441 470 442
f  443 473 444
f  442 473 443
f  416 469 470
f  473 442 470
f  391 472 390
f  394 674 473
f  444 473 674
f  677 449 674
f  445 674 449
f  444 674 445
f  163 386 147
f  166 386 163
f  166 481 386
f  167 480 166
f  166 480 481
f  167 484 480
f  167 489 484
f  167 493 489
f  173 559 167
f  176 559 173
f  180 559 176
f  180 303 559
f  167 495 493
f  167 559 495
f  485 499 482
f  483 499 486
f  482 499 483
f  486 499 488
f  488 499 528
f  490 499 485
f  491 499 490
f  492 499 491
f  494 499 492
f  560 495 559
f  496 499 494
f  495 561 498
f  496 497 499
f  498 499 497
f  561 499 498
f  499 561 500
f  479 386 481
f  487 388 479
f  388 487 392
f  392 487 393
f  393 527 523
f  527 393 487
f  523 527 530
f  524 393 523
f  393 524 525
f  528 499 529
f  523 530 532
f  523 532 536
f  523 536 538
f  529 499 531
f  531 499 533
f  533 499 534
f  537 535 534
f  537 534 499
f  500 615 538
f  616 538 615
f  539 538 616
f  621 539 616
f  538 539 523
f  526 540 627
f  539 621 540
f  540 621 626
f  627 540 626
f  308 559 303
f  308 563 559
f  317 563 308
f  317 320 563
f  563 320 329
f  563 332 564
f  567 564 336
f  495 560 561
f  562 564 565
f  565 564 567
f  561 615 500
f  561 617 615
f  566 568 569
f  569 573 566
f  573 575 566
f  619 618 566
f  620 619 566
f  622 620 566
f  576 622 566
f  571 567 570
f  571 572 567
f  572 571 574
f  571 580 574
f  575 577 566
f  577 576 566
f  574 580 578
f  578 580 632
f  578 632 579
f  563 329 332
f  564 332 336
f  567 968 570
f  567 336 968
f  968 582 570
f  583 633 581
f  582 585 583
f  633 583 585
f  1134 586 1128
f  584 635 634
f  584 637 635
f  586 1134 1136
f  586 1136 639
f  586 639 638
f  623 626 621
f  579 624 623
f  625 623 624
f  579 632 624
f  623 625 626
f  629 625 634
f  626 625 629
f  630 631 683
f  683 631 686
f  631 695 686
f  636 634 635
f  629 634 636
f  629 636 640
f  629 640 1219
f  629 1232 641
f  629 642 631
f  629 641 642
f  631 642 695
f  393 525 673
f  449 677 689
f  526 676 675
f  526 690 676
f  526 627 690
f  676 689 677
f  689 676 688
f  690 688 676
f  435 448 1550
f  628 690 627
f  685 687 684
f  687 696 684
f  684 696 699
f  692 691 684
f  693 692 684
f  684 699 700
f  684 700 701
f  684 703 693
f  684 701 703
f  695 642 697
f  707 697 642
f  643 707 642
f  697 707 698
f  698 707 702
f  694 704 706
f  702 705 704
f  706 704 705
f  705 702 707
f  1550 448 447
f  1550 447 449
f  1550 449 689
f  1 733 1126
f  1 1127 733
f  733 1127 1126
f  2 1126 794
f  736 105 734
f  738 735 737
f  735 746 745
f  735 738 758
f  735 748 746
f  735 758 748
f  739 742 741
f  743 741 742
f  118 740 864
f  741 864 740
f  741 743 868
f  739 744 742
f  746 749 747
f  749 746 748
f  747 868 743
f  747 749 872
f  752 754 753
f  750 758 738
f  753 757 751
f  757 753 754
f  755 802 763
f  759 893 749
f  895 759 761
f  756 760 759
f  761 759 760
f  756 762 760
f  803 899 761
f  803 805 899
f  795 755 794
f  755 795 807
f  796 807 795
f  755 804 802
f  755 807 804
f  799 806 797
f  798 800 799
f  806 799 800
f  802 805 803
f  805 802 804
f  899 805 808
f  900 808 810
f  801 809 808
f  810 808 809
f  801 811 809
f  821 900 810
f  814 812 813
f  812 814 825
f  812 820 819
f  812 823 820
f  812 825 823
f  815 825 814
f  817 1112 818
f  818 822 816
f  822 818 1112
f  820 824 821
f  824 820 823
f  1114 827 826
f  828 826 827
f  864 741 866
f  741 868 866
f  874 865 875
f  869 866 868
f  866 869 867
f  867 890 865
f  890 867 869
f  747 872 868
f  749 892 872
f  870 890 869
f  873 889 871
f  872 892 873
f  889 873 892
f  246 877 880
f  880 881 246
f  865 890 875
f  875 890 878
f  878 890 879
f  879 887 883
f  883 887 884
f  887 879 890
f  884 888 886
f  884 887 888
f  892 749 893
f  759 895 893
f  896 893 895
f  893 896 901
f  897 901 896
f  895 761 899
f  899 808 900
f  903 898 900
f  894 902 891
f  886 949 885
f  885 948 326
f  885 949 948
f  886 888 949
f  949 888 951
f  959 326 948
f  962 950 952
f  891 951 888
f  951 891 954
f  954 891 958
f  891 982 958
f  963 952 953
f  963 953 955
f  962 952 963
f  970 961 963
f  970 965 961
f  965 970 967
f  966 335 964
f  968 336 335
f  968 335 966
f  963 955 956
f  963 956 957
f  963 957 970
f  971 969 970
f  975 971 976
f  967 970 969
f  969 971 972
f  972 971 974
f  974 971 977
f  977 971 980
f  980 971 975
f  977 980 978
f  982 891 902
f  982 902 905
f  983 958 982
f  986 989 987
f  989 986 988
f  958 983 995
f  984 995 983
f  958 995 971
f  985 987 990
f  990 987 999
f  992 1000 991
f  971 993 976
f  995 993 971
f  976 993 981
f  997 996 991
f  1008 997 991
f  999 987 1001
f  987 989 1001
f  1000 1002 991
f  1002 1003 991
f  1003 1006 991
f  1001 989 1004
f  1080 1004 989
f  1004 1080 1005
f  1006 1007 991
f  1007 1009 991
f  1009 1008 991
f  1005 1086 1010
f  1010 1012 1011
f  1013 1011 1012
f  1012 1010 1086
f  903 900 821
f  903 828 904
f  904 828 905
f  903 821 824
f  903 824 826
f  982 905 1118
f  903 826 828
f  1118 905 828
f  1126 986 982
f  1126 988 986
f  1082 1084 1083
f  1083 1087 1081
f  1005 1080 1086
f  1087 1083 1084
f  1089 1090 1088
f  1091 1088 1090
f  1089 1092 1090
f  1085 1094 1093
f  1126 798 794
f  1126 800 798
f  1126 812 800
f  1126 813 812
f  1126 817 813
f  1126 1112 817
f  1126 1113 1112
f  1126 1117 1113
f  1113 1117 1116
f  1114 1115 827
f  1126 982 1118
f  1126 1118 1117
f  1126 1082 988
f  1126 1084 1082
f  1126 1085 1084
f  1126 1094 1085
f  1126 1095 1094
f  1126 1293 1095
f  1126 1322 1293
f  1126 1323 1322
f  1126 1486 1323
f  1126 1487 1486
f  973 582 968
f  979 582 973
f  981 582 979
f  981 993 582
f  993 585 582
f  993 586 585
f  994 1130 586
f  994 586 993
f  994 1138 1130
f  994 1141 1138
f  994 1144 1141
f  1129 586 1130
f  1128 586 1129
f  1132 1148 1133
f  1133 1148 1135
f  1135 1148 1137
f  1137 1148 1215
f  1131 1148 1132
f  1139 1148 1131
f  1140 1149 1139
f  1142 1149 1140
f  1143 1149 1142
f  1145 1149 1143
f  1139 1149 1148
f  1145 1146 1149
f  1147 1232 1146
f  1146 1232 1149
f  998 1150 994
f  1011 1150 998
f  994 1150 1144
f  1011 1013 1150
f  1088 1157 1013
f  1013 1157 1150
f  1151 1144 1150
f  1144 1151 1152
f  1153 1158 1154
f  1154 1158 1161
f  1144 1234 1147
f  1144 1152 1234
f  1234 1232 1147
f  1156 1162 1155
f  1236 1235 1155
f  1238 1236 1155
f  1157 1160 1158
f  1161 1158 1163
f  1158 1160 1163
f  1160 1157 1159
f  1163 1160 1168
f  1288 1168 1160
f  1162 1164 1155
f  1164 1165 1155
f  1165 1166 1155
f  1166 1167 1155
f  1239 1238 1155
f  1167 1239 1155
f  1168 1288 1169
f  1169 1288 1170
f  1214 639 1136
f  639 1214 640
f  1216 640 1214
f  1219 640 1216
f  629 1219 1223
f  629 1223 1225
f  629 1225 1232
f  1215 1148 1217
f  1217 1148 1218
f  1218 1148 1220
f  1220 1148 1221
f  1224 1221 1148
f  1224 1222 1221
f  1233 641 1232
f  641 1233 1226
f  1228 1370 1227
f  1226 1233 1243
f  1226 1230 1228
f  1229 1228 1230
f  1228 1229 1370
f  1230 1226 1243
f  1149 1232 1225
f  1170 1241 1240
f  1241 1170 1302
f  1242 1240 1241
f  1237 1314 1233
f  1240 1314 1237
f  1243 1233 1246
f  1246 1233 1247
f  1247 1233 1309
f  1314 1309 1233
f  1248 1404 1245
f  1249 1405 1248
f  1250 1405 1249
f  1088 1091 1157
f  1091 1159 1157
f  1091 1290 1159
f  1095 1292 1091
f  1091 1292 1290
f  1095 1293 1292
f  1291 1303 1289
f  1303 1291 1292
f  1288 1302 1170
f  1290 1292 1291
f  1294 1305 1304
f  1294 1307 1305
f  1293 1322 1308
f  1240 1242 1314
f  1304 1314 1242
f  1306 1304 1305
f  1314 1304 1306
f  1323 1315 1306
f  1323 1324 1315
f  1310 1405 1250
f  1309 1314 1317
f  1309 1317 1313
f  1318 1313 1317
f  1314 1306 1315
f  1320 1316 1319
f  1321 1316 1320
f  1316 1321 1318
f  1326 1318 1321
f  1327 1318 1326
f  1313 1318 1330
f  1324 1323 1325
f  1325 1323 1332
f  1328 1318 1327
f  1329 1318 1328
f  1423 1313 1330
f  1330 1318 1329
f  1323 1331 1332
f  1335 1333 1332
f  1335 1332 1331
f  1333 1335 1483
f  1333 1483 1334
f  435 1550 1127
f  1227 1375 1374
f  1227 1372 1375
f  1227 1370 1372
f  1375 1377 1376
f  1377 1375 1372
f  1379 1376 1377
f  1244 1404 1231
f  1231 1404 1371
f  1371 1404 1373
f  1373 1404 1378
f  1245 1404 1244
f  1248 1405 1404
f  1378 1404 1380
f  1383 1376 1379
f  1380 1404 1381
f  1381 1404 1382
f  1382 1404 1384
f  1384 1410 1385
f  1550 689 694
f  1311 1405 1310
f  1311 1312 1405
f  1313 1405 1312
f  1313 1406 1405
f  1406 1313 1420
f  1420 1313 1425
f  1425 1313 1424
f  1405 1407 1408
f  1407 1405 1406
f  1408 1407 1409
f  1421 1409 1407
f  1410 1384 1404
f  1405 1412 1411
f  1412 1405 1408
f  1409 1415 1414
f  1415 1409 1416
f  1416 1409 1417
f  1417 1409 1437
f  1437 1409 1438
f  1424 1313 1423
f  1422 1426 1427
f  1428 1409 1421
f  1429 1409 1428
f  1430 1409 1429
f  1431 1409 1430
f  1441 1409 1431
f  1433 1427 1426
f  1433 1434 1427
f  1334 1494 1432
f  1432 1497 1433
f  1434 1433 1497
f  1434 1497 1435
f  1435 1495 1436
f  1495 1435 1496
f  1438 1409 1440
f  1440 1409 1441
f  1436 1508 1442
f  1508 1436 1495
f  1550 694 706
f  1550 706 1376
f  1550 1376 1383
f  1550 1383 1386
f  1126 1127 1550
f  1331 1323 1486
f  1494 1334 1483
f  1482 1487 1484
f  1484 1487 1485
f  1485 1487 1498
f  1498 1487 1500
f  1126 1550 1487
f  1432 1494 1497
f  1499 1435 1497
f  1435 1503 1496
f  1502 1435 1499
f  1503 1435 1502
f  1504 1496 1503
f  1505 1496 1504
f  1496 1507 1506
f  1507 1496 1509
f  1509 1496 1510
f  1510 1496 1511
f  1511 1496 1515
f  1514 1496 1505
f  1515 1496 1514
f  1550 1500 1487
f  1550 1501 1500
f  1550 1518 1501
f  1550 1386 1411
f  1550 1411 1412
f  1550 1412 1413
f  1550 1413 1418
f  1550 1418 1419
f  1550 1419 1439
f  1550 1439 1442
f  1550 1442 1508
f  1550 1508 1512
f  1550 1512 1513
f  1550 1513 1516
f  1550 1517 1521
f  1550 1516 1517
f  1550 1519 1518
f  1550 1520 1519
f  1550 1521 1520
f  9 4 3
f  9 10 4
f  11 6 5
f  13 5 7
f  12 23 6
f  11 12 6
f  11 5 13
f  13 7 57
f  12 61 23
f  11 13 12
f  13 57 14
f  12 13 14
f  12 14 61
f  10 15 4
f  53 19 15
f  55 3 17
f  54 18 16
f  56 17 18
f  57 7 19
f  58 16 20
f  59 26 21
f  10 53 15
f  9 3 55
f  54 16 58
f  54 56 18
f  55 17 56
f  9 53 10
f  9 55 53
f  53 54 57
f  53 55 54
f  54 55 56
f  53 57 19
f  59 21 14
f  58 20 65
f  54 58 57
f  57 58 59
f  57 59 14
f  58 64 59
f  14 21 8
f  60 8 22
f  61 22 23
f  62 25 24
f  64 24 26
f  65 20 27
f  63 29 25
f  66 27 28
f  67 28 29
f  68 31 30
f  70 30 32
f  69 44 31
f  14 8 60
f  60 22 61
f  59 64 26
f  62 63 25
f  62 24 64
f  14 60 61
f  58 65 64
f  62 64 63
f  65 27 66
f  63 67 29
f  66 28 67
f  68 69 31
f  68 30 70
f  63 64 65
f  63 65 67
f  65 66 67
f  68 70 69
f  69 70 80
f  71 34 33
f  72 35 34
f  73 37 35
f  78 33 40
f  74 41 36
f  75 32 37
f  76 36 38
f  77 47 39
f  79 40 41
f  71 72 34
f  72 73 35
f  71 33 78
f  74 36 76
f  71 73 72
f  71 78 73
f  73 74 75
f  73 78 74
f  73 75 37
f  77 39 80
f  75 76 77
f  74 76 75
f  75 77 80
f  74 79 41
f  78 40 79
f  74 78 79
f  76 38 86
f  76 85 77
f  80 39 42
f  81 42 43
f  82 43 44
f  86 38 48
f  83 46 45
f  85 45 47
f  84 51 46
f  87 48 49
f  89 49 51
f  88 52 50
f  125 50 97
f  75 70 32
f  69 82 44
f  80 42 81
f  81 43 82
f  75 80 70
f  69 80 82
f  80 81 82
f  77 85 47
f  83 84 46
f  83 45 85
f  86 48 87
f  84 89 51
f  87 49 89
f  88 90 52
f  88 50 125
f  76 86 85
f  83 85 84
f  84 85 86
f  84 86 89
f  86 87 89
f  88 125 90
f  120 91 92
f  119 97 91
f  123 94 95
f  124 92 96
f  121 101 93
f  122 96 94
f  119 91 120
f  125 97 119
f  120 92 124
f  126 121 93
f  125 119 120
f  125 120 121
f  122 94 123
f  122 124 96
f  130 131 103
f  120 124 121
f  121 124 129
f  122 131 124
f  124 131 129
f  90 100 52
f  126 93 98
f  127 98 99
f  128 99 100
f  129 102 101
f  130 103 102
f  126 98 127
f  90 128 100
f  127 99 128
f  125 121 126
f  90 125 126
f  90 126 128
f  126 127 128
f  121 129 101
f  129 130 102
f  129 131 130
f  131 109 103
f  138 95 110
f  133 104 105
f  132 115 104
f  123 95 138
f  122 123 138
f  122 138 131
f  132 104 133
f  143 115 132
f  133 105 766
f  144 134 106
f  143 132 133
f  143 133 134
f  135 108 107
f  137 107 109
f  136 113 108
f  139 110 111
f  141 111 113
f  140 114 112
f  143 112 115
f  142 118 114
f  144 106 116
f  145 116 117
f  146 117 118
f  131 137 109
f  135 136 108
f  135 107 137
f  136 141 113
f  138 110 139
f  139 111 141
f  140 142 114
f  140 112 143
f  131 138 137
f  135 137 136
f  136 137 138
f  136 138 141
f  138 139 141
f  140 143 142
f  144 116 145
f  142 146 118
f  145 117 146
f  143 134 144
f  142 143 144
f  142 144 146
f  144 145 146
f  181 163 147
f  193 181 147
f  181 197 163
f  183 148 149
f  194 150 160
f  185 149 151
f  184 152 150
f  186 153 152
f  188 151 154
f  187 155 153
f  189 156 155
f  190 157 156
f  192 154 158
f  183 182 148
f  183 149 185
f  194 184 150
f  184 186 152
f  183 194 182
f  183 184 194
f  183 185 184
f  184 185 186
f  185 151 188
f  186 187 153
f  187 189 155
f  189 190 156
f  188 154 192
f  190 191 157
f  192 158 204
f  185 188 187
f  185 187 186
f  187 188 189
f  188 190 189
f  188 192 190
f  192 191 190
f  182 159 148
f  193 147 159
f  195 160 161
f  196 161 162
f  197 166 163
f  198 162 164
f  199 164 165
f  200 167 166
f  202 165 168
f  201 173 167
f  205 168 171
f  191 169 157
f  203 170 169
f  204 158 170
f  206 171 172
f  207 176 173
f  208 172 174
f  209 174 175
f  210 180 176
f  211 179 177
f  212 177 178
f  213 175 179
f  214 178 180
f  193 159 182
f  194 160 195
f  195 161 196
f  196 162 198
f  193 182 195
f  193 195 196
f  182 194 195
f  193 196 181
f  181 196 197
f  197 200 166
f  198 164 199
f  200 201 167
f  199 165 202
f  202 168 205
f  201 207 173
f  197 196 198
f  197 198 200
f  198 199 200
f  200 199 201
f  199 202 201
f  201 202 207
f  202 205 207
f  191 203 169
f  203 204 170
f  192 204 191
f  191 204 203
f  205 171 206
f  206 172 208
f  208 174 209
f  207 210 176
f  211 213 179
f  211 177 212
f  212 178 214
f  209 175 213
f  210 214 180
f  205 206 207
f  206 210 207
f  206 208 210
f  208 209 210
f  211 212 213
f  210 209 214
f  209 213 214
f  212 214 213
f  252 216 215
f  253 217 216
f  256 215 219
f  255 220 218
f  258 218 221
f  254 227 217
f  257 219 220
f  259 223 222
f  260 230 223
f  267 224 230
f  261 221 224
f  252 253 216
f  252 215 256
f  253 254 217
f  255 218 258
f  252 254 253
f  252 256 254
f  256 255 254
f  254 255 258
f  254 258 262
f  255 257 220
f  256 219 257
f  258 221 261
f  259 260 223
f  260 267 230
f  261 224 267
f  256 257 255
f  258 261 262
f  259 267 260
f  262 261 263
f  262 226 225
f  265 225 228
f  263 228 226
f  266 231 229
f  264 229 227
f  262 225 265
f  254 264 227
f  262 263 226
f  263 265 228
f  254 262 264
f  262 265 264
f  263 268 266
f  263 266 265
f  264 266 229
f  265 266 264
f  269 222 232
f  268 233 231
f  270 232 233
f  271 235 234
f  272 236 235
f  275 234 238
f  274 239 237
f  273 247 236
f  279 237 242
f  276 238 239
f  259 222 269
f  266 268 231
f  268 270 233
f  269 232 270
f  271 272 235
f  272 273 236
f  259 269 267
f  261 267 268
f  269 268 267
f  261 268 263
f  269 270 268
f  271 273 272
f  271 234 275
f  274 237 279
f  274 276 239
f  275 238 276
f  906 282 245
f  271 274 273
f  271 275 274
f  273 274 279
f  273 279 280
f  274 275 276
f  906 916 282
f  277 241 240
f  284 240 247
f  280 244 243
f  285 243 248
f  282 242 245
f  281 246 244
f  283 876 246
f  278 250 241
f  286 248 249
f  288 249 251
f  287 885 250
f  924 251 882
f  277 278 241
f  284 277 240
f  284 278 277
f  273 284 247
f  279 242 282
f  280 243 285
f  280 281 244
f  281 283 246
f  283 918 876
f  273 280 284
f  279 281 280
f  280 285 284
f  279 282 281
f  282 283 281
f  282 916 283
f  283 916 918
f  278 287 250
f  285 248 286
f  286 249 288
f  288 251 924
f  287 927 885
f  284 287 278
f  284 285 287
f  285 286 287
f  286 288 287
f  288 927 287
f  288 924 927
f  337 290 289
f  338 291 290
f  341 289 293
f  340 294 292
f  342 293 294
f  343 296 295
f  344 321 296
f  337 338 290
f  338 339 291
f  337 289 341
f  341 293 342
f  340 342 294
f  337 339 338
f  337 340 339
f  337 341 340
f  340 341 342
f  343 344 296
f  344 369 321
f  343 369 344
f  339 304 291
f  345 292 297
f  346 300 298
f  347 297 299
f  348 301 300
f  350 303 302
f  352 302 304
f  351 308 303
f  353 298 305
f  354 305 306
f  355 306 307
f  357 299 309
f  349 310 301
f  358 311 310
f  360 309 312
f  361 312 313
f  362 316 314
f  359 315 311
f  363 314 315
f  365 318 317
f  364 307 316
f  356 317 308
f  366 313 318
f  367 320 319
f  375 319 327
f  340 292 345
f  345 297 347
f  346 348 300
f  346 298 353
f  347 299 357
f  348 349 301
f  339 340 345
f  339 345 346
f  339 346 352
f  345 348 346
f  345 347 348
f  347 349 348
f  347 357 349
f  339 352 304
f  350 302 352
f  350 351 303
f  353 305 354
f  351 356 308
f  354 306 355
f  352 346 353
f  350 352 351
f  351 352 356
f  352 353 356
f  353 354 356
f  354 355 356
f  357 309 360
f  349 358 310
f  358 359 311
f  360 312 361
f  361 313 366
f  357 358 349
f  357 360 358
f  358 360 359
f  360 361 359
f  362 364 316
f  359 363 315
f  363 362 314
f  355 307 364
f  356 365 317
f  366 318 365
f  367 319 375
f  367 368 320
f  359 361 363
f  361 366 363
f  363 366 362
f  362 366 365
f  356 355 365
f  355 364 365
f  362 365 364
f  367 375 368
f  371 295 323
f  370 324 322
f  372 323 324
f  374 325 326
f  343 295 371
f  370 372 324
f  371 323 372
f  343 371 369
f  369 371 370
f  370 371 372
f  373 325 374
f  375 327 321
f  376 322 328
f  368 329 320
f  377 330 329
f  373 328 325
f  378 333 330
f  379 332 331
f  381 331 333
f  380 336 332
f  382 326 334
f  383 334 335
f  384 335 336
f  369 375 321
f  370 322 376
f  373 376 328
f  369 370 376
f  368 377 329
f  369 376 375
f  375 376 377
f  368 375 377
f  378 377 376
f  378 330 377
f  374 326 382
f  373 374 376
f  374 378 376
f  374 382 378
f  378 381 333
f  379 380 332
f  379 331 381
f  382 334 383
f  380 384 336
f  383 335 384
f  379 381 380
f  380 381 382
f  378 382 381
f  380 382 384
f  382 383 384
f  395 387 386
f  396 389 387
f  395 396 387
f  395 398 396
f  396 398 389
f  397 386 388
f  400 388 391
f  399 391 390
f  402 392 393
f  401 472 392
f  395 386 397
f  397 388 400
f  395 397 398
f  399 397 400
f  399 400 391
f  398 397 399
f  401 392 402
f  401 402 477
f  417 405 404
f  418 431 405
f  417 404 419
f  417 418 405
f  418 451 431
f  420 406 407
f  421 407 408
f  419 404 406
f  422 408 409
f  423 409 410
f  424 410 411
f  425 411 412
f  426 412 413
f  427 413 414
f  428 414 415
f  429 415 416
f  460 416 441
f  419 406 420
f  421 408 422
f  420 407 421
f  422 409 423
f  423 410 424
f  419 420 462
f  417 419 462
f  420 421 462
f  424 411 425
f  425 412 426
f  426 413 427
f  427 414 428
f  428 415 429
f  429 416 460
f  423 424 427
f  424 425 426
f  424 426 427
f  423 427 428
f  421 422 462
f  422 423 461
f  423 428 429
f  423 429 460
f  423 460 461
f  422 461 462
f  451 430 431
f  450 432 430
f  452 433 432
f  453 434 433
f  454 436 434
f  451 450 430
f  450 452 432
f  452 453 433
f  453 454 434
f  450 455 452
f  452 454 453
f  452 455 454
f  455 437 436
f  456 438 437
f  457 439 438
f  458 440 439
f  459 446 440
f  461 441 442
f  462 442 443
f  463 443 444
f  464 444 445
f  465 448 446
f  467 447 448
f  466 449 447
f  468 445 449
f  451 468 450
f  450 456 455
f  450 457 456
f  417 462 418
f  418 462 451
f  450 466 467
f  450 468 466
f  454 455 436
f  455 456 437
f  456 457 438
f  457 458 439
f  458 459 440
f  450 458 457
f  450 459 458
f  450 465 459
f  450 467 465
f  460 441 461
f  461 442 462
f  462 443 463
f  464 463 444
f  464 445 468
f  451 462 463
f  451 464 468
f  451 463 464
f  459 465 446
f  465 467 448
f  467 466 447
f  466 468 449
f  474 470 469
f  476 469 471
f  475 473 470
f  474 469 476
f  474 475 470
f  474 476 475
f  476 471 389
f  477 390 472
f  478 394 473
f  398 476 389
f  399 390 477
f  398 399 477
f  401 477 472
f  398 477 476
f  478 403 394
f  402 403 477
f  477 403 478
f  475 478 473
f  477 478 476
f  475 476 478
f  501 487 479
f  503 501 479
f  501 509 487
f  506 480 484
f  502 481 480
f  505 482 483
f  511 484 489
f  507 490 485
f  504 485 482
f  503 479 481
f  508 483 486
f  509 527 487
f  510 486 488
f  546 488 528
f  512 491 490
f  515 489 493
f  513 492 491
f  514 494 492
f  516 496 494
f  517 493 495
f  518 497 496
f  519 498 497
f  520 495 498
f  521 537 499
f  522 499 500
f  506 502 480
f  503 481 502
f  505 504 482
f  506 484 511
f  507 485 504
f  507 512 490
f  506 504 502
f  503 502 505
f  502 504 505
f  506 507 504
f  506 511 507
f  507 511 512
f  505 483 508
f  508 486 510
f  509 545 527
f  510 488 546
f  503 508 501
f  503 505 508
f  501 508 509
f  509 508 510
f  509 510 545
f  510 546 545
f  511 489 515
f  512 513 491
f  513 514 492
f  514 516 494
f  515 493 517
f  516 518 496
f  518 519 497
f  519 520 498
f  517 495 520
f  511 513 512
f  511 515 513
f  513 515 514
f  515 516 514
f  515 517 516
f  516 517 518
f  517 520 518
f  518 520 519
f  521 499 522
f  521 522 555
f  541 524 523
f  557 523 539
f  542 525 524
f  541 542 524
f  402 393 678
f  541 523 557
f  541 543 542
f  541 557 543
f  542 543 525
f  543 557 544
f  545 530 527
f  547 528 529
f  548 532 530
f  549 529 531
f  551 531 533
f  550 536 532
f  552 533 534
f  553 534 535
f  554 538 536
f  555 535 537
f  556 500 538
f  545 548 530
f  546 528 547
f  547 529 549
f  548 550 532
f  546 548 545
f  546 547 548
f  547 550 548
f  547 549 550
f  551 533 552
f  549 531 551
f  552 534 553
f  550 554 536
f  521 555 537
f  553 535 555
f  522 500 556
f  554 556 538
f  549 551 550
f  550 551 554
f  551 552 554
f  552 553 554
f  553 555 556
f  522 556 555
f  553 556 554
f  558 539 540
f  544 540 526
f  557 539 558
f  544 557 558
f  544 558 540
f  587 560 559
f  588 561 560
f  591 559 563
f  590 564 562
f  592 563 564
f  593 562 565
f  646 617 561
f  594 568 566
f  595 565 567
f  596 569 568
f  647 566 618
f  598 571 570
f  599 580 571
f  600 567 572
f  597 573 569
f  601 575 573
f  602 572 574
f  606 574 578
f  603 577 575
f  605 576 577
f  607 578 579
f  587 588 560
f  588 589 561
f  587 559 591
f  590 592 564
f  591 563 592
f  590 562 593
f  587 589 588
f  587 590 589
f  589 590 593
f  589 593 594
f  587 591 590
f  590 591 592
f  589 646 561
f  593 565 595
f  594 596 568
f  595 567 600
f  596 597 569
f  594 566 647
f  589 594 646
f  594 647 646
f  593 596 594
f  593 595 596
f  595 597 596
f  595 600 597
f  598 599 571
f  599 608 580
f  598 608 599
f  600 572 602
f  597 601 573
f  601 603 575
f  602 574 606
f  603 605 577
f  605 604 576
f  606 578 607
f  607 579 652
f  597 600 601
f  600 602 601
f  601 602 603
f  602 606 603
f  603 606 605
f  606 607 605
f  605 607 604
f  604 607 652
f  610 570 582
f  609 583 581
f  611 582 583
f  661 632 580
f  662 581 633
f  663 584 634
f  613 633 585
f  614 585 586
f  612 637 584
f  667 586 638
f  598 570 610
f  609 611 583
f  609 581 662
f  610 582 611
f  598 610 608
f  608 610 609
f  609 610 611
f  608 609 662
f  608 661 580
f  613 662 633
f  608 662 661
f  612 663 662
f  613 585 614
f  614 586 667
f  613 614 662
f  612 584 663
f  612 666 637
f  612 662 614
f  612 614 667
f  612 667 666
f  644 616 615
f  646 615 617
f  645 621 616
f  648 618 619
f  649 619 620
f  651 620 622
f  604 622 576
f  650 623 621
f  652 579 623
f  653 625 624
f  661 624 632
f  644 645 616
f  644 615 646
f  647 618 648
f  645 650 621
f  648 619 649
f  644 646 645
f  645 646 650
f  646 647 650
f  647 648 650
f  648 649 650
f  649 620 651
f  604 651 622
f  650 652 623
f  653 654 625
f  653 624 661
f  649 651 652
f  650 649 652
f  604 652 651
f  653 661 654
f  655 627 626
f  656 628 627
f  658 626 629
f  660 629 631
f  659 631 630
f  708 630 683
f  655 656 627
f  655 626 658
f  655 657 656
f  656 657 628
f  655 659 657
f  657 659 708
f  657 708 709
f  658 629 660
f  655 658 659
f  659 658 660
f  659 630 708
f  659 660 631
f  654 634 625
f  664 636 635
f  666 635 637
f  665 640 636
f  668 638 639
f  669 639 640
f  654 663 634
f  654 661 663
f  661 662 663
f  664 665 636
f  664 635 666
f  667 638 668
f  665 669 640
f  668 639 669
f  664 666 665
f  665 666 667
f  665 667 669
f  667 668 669
f  670 642 641
f  671 643 642
f  670 671 642
f  670 641 1263
f  670 672 671
f  670 1263 672
f  671 672 643
f  403 674 394
f  678 393 673
f  543 673 525
f  680 526 675
f  402 678 403
f  403 679 674
f  403 678 679
f  544 526 680
f  543 544 678
f  543 678 673
f  544 679 678
f  544 680 679
f  679 677 674
f  679 682 677
f  679 680 682
f  681 675 676
f  682 676 677
f  680 675 681
f  681 676 682
f  680 681 682
f  657 690 628
f  711 683 686
f  709 685 684
f  720 686 695
f  710 687 685
f  712 696 687
f  716 684 691
f  657 709 715
f  657 715 690
f  709 716 715
f  708 683 711
f  709 710 685
f  711 686 720
f  710 712 687
f  708 710 709
f  708 711 710
f  711 720 712
f  711 712 710
f  709 684 716
f  713 689 688
f  715 688 690
f  714 694 689
f  717 691 692
f  718 692 693
f  713 688 715
f  713 714 689
f  713 715 714
f  714 715 719
f  716 691 717
f  714 719 694
f  718 717 692
f  718 693 728
f  719 729 694
f  715 716 719
f  716 717 719
f  718 719 717
f  718 729 719
f  721 699 696
f  722 695 697
f  723 697 698
f  724 700 699
f  726 703 701
f  725 701 700
f  727 698 702
f  672 707 643
f  720 695 722
f  712 721 696
f  721 724 699
f  722 697 723
f  712 720 721
f  720 722 721
f  722 724 721
f  722 723 724
f  724 725 700
f  725 726 701
f  723 698 727
f  727 702 729
f  724 723 725
f  725 723 727
f  725 727 726
f  726 727 729
f  672 1264 732
f  672 732 707
f  728 693 703
f  729 704 694
f  729 702 704
f  730 706 705
f  732 705 707
f  731 1376 706
f  726 728 703
f  718 728 729
f  726 729 728
f  730 705 732
f  730 731 706
f  730 732 731
f  731 732 1391
f  765 734 735
f  766 105 736
f  134 740 106
f  764 736 734
f  767 738 737
f  769 744 739
f  775 735 745
f  764 734 765
f  764 766 736
f  769 739 771
f  133 766 134
f  134 766 770
f  764 769 766
f  769 770 766
f  767 768 738
f  765 735 775
f  764 765 775
f  764 775 769
f  770 741 740
f  771 739 741
f  772 743 742
f  774 742 744
f  773 747 743
f  776 745 746
f  777 746 747
f  778 749 748
f  134 770 740
f  770 771 741
f  769 771 770
f  769 774 744
f  772 773 743
f  772 742 774
f  773 777 747
f  775 745 776
f  776 746 777
f  778 779 749
f  769 775 774
f  772 774 773
f  773 774 775
f  773 775 777
f  775 776 777
f  768 750 738
f  782 737 752
f  781 753 751
f  783 752 753
f  780 758 750
f  787 751 757
f  785 754 755
f  784 757 754
f  786 762 756
f  793 755 763
f  768 780 750
f  767 737 782
f  781 783 753
f  782 752 783
f  767 780 768
f  767 782 780
f  780 782 781
f  781 782 783
f  781 751 787
f  780 788 758
f  787 757 784
f  780 781 787
f  780 787 788
f  784 754 785
f  789 786 756
f  785 755 793
f  787 784 785
f  787 785 786
f  786 785 793
f  788 748 758
f  779 759 749
f  789 756 759
f  790 761 760
f  792 760 762
f  791 803 761
f  837 763 802
f  778 748 788
f  779 789 759
f  778 788 779
f  779 788 789
f  787 789 788
f  787 786 789
f  790 791 761
f  790 760 792
f  786 792 762
f  791 838 803
f  793 763 837
f  790 792 791
f  786 793 792
f  791 792 793
f  791 793 838
f  793 837 838
f  829 795 794
f  830 796 795
f  833 794 798
f  832 799 797
f  834 798 799
f  831 807 796
f  841 797 806
f  835 806 800
f  836 811 801
f  829 830 795
f  829 794 833
f  830 831 796
f  832 834 799
f  833 798 834
f  829 831 830
f  829 833 831
f  831 833 832
f  832 833 834
f  832 797 841
f  831 842 807
f  831 832 841
f  831 841 842
f  835 800 847
f  841 806 835
f  843 836 801
f  841 835 847
f  841 847 836
f  838 802 803
f  839 805 804
f  842 804 807
f  840 808 805
f  843 801 808
f  844 810 809
f  846 809 811
f  845 821 810
f  837 802 838
f  839 840 805
f  839 804 842
f  840 843 808
f  839 842 840
f  840 842 843
f  841 843 842
f  836 846 811
f  844 845 810
f  844 809 846
f  841 836 843
f  836 854 846
f  844 846 845
f  845 846 854
f  847 800 812
f  848 814 813
f  849 815 814
f  852 813 817
f  854 812 819
f  850 825 815
f  857 816 822
f  851 818 816
f  853 817 818
f  1119 822 1112
f  848 849 814
f  849 850 815
f  848 813 852
f  848 850 849
f  848 852 850
f  850 852 851
f  847 812 854
f  851 816 857
f  850 860 825
f  836 847 854
f  850 851 857
f  850 857 860
f  852 817 853
f  851 853 818
f  851 852 853
f  857 822 1119
f  861 1121 1114
f  857 1119 1120
f  857 1120 1121
f  855 819 820
f  856 820 821
f  858 824 823
f  860 823 825
f  859 826 824
f  861 1114 826
f  862 828 827
f  854 819 855
f  845 856 821
f  855 820 856
f  858 859 824
f  858 823 860
f  859 861 826
f  845 854 856
f  854 855 856
f  858 860 859
f  859 860 861
f  860 857 861
f  862 863 828
f  857 1121 861
f  906 245 864
f  916 865 874
f  908 864 866
f  907 867 865
f  909 866 867
f  910 869 868
f  911 870 869
f  914 868 872
f  913 873 871
f  912 890 870
f  915 872 873
f  934 889 892
f  906 864 908
f  916 907 865
f  907 909 867
f  908 866 909
f  910 911 869
f  906 907 916
f  906 908 907
f  908 909 907
f  910 912 911
f  910 868 914
f  911 912 870
f  913 871 931
f  913 915 873
f  914 872 915
f  910 914 912
f  914 913 912
f  912 913 931
f  914 915 913
f  934 935 931
f  935 936 931
f  917 874 875
f  918 877 876
f  920 875 878
f  921 878 879
f  919 880 877
f  922 881 880
f  923 882 881
f  925 879 883
f  926 883 884
f  927 886 885
f  928 884 886
f  929 888 887
f  931 871 889
f  933 894 891
f  932 887 890
f  930 891 888
f  916 874 917
f  917 875 920
f  918 919 877
f  920 878 921
f  919 922 880
f  922 923 881
f  923 924 882
f  921 879 925
f  928 926 884
f  925 883 926
f  916 917 918
f  918 917 919
f  917 920 919
f  919 920 921
f  919 921 922
f  922 925 923
f  923 928 924
f  923 926 928
f  922 921 925
f  925 926 923
f  928 886 927
f  929 930 888
f  929 887 932
f  924 928 927
f  929 932 930
f  912 932 890
f  934 931 889
f  936 894 933
f  912 931 932
f  936 933 931
f  930 933 891
f  930 932 933
f  932 931 933
f  935 892 893
f  937 896 895
f  938 897 896
f  939 901 897
f  941 895 899
f  940 900 898
f  940 898 903
f  942 899 900
f  934 892 935
f  935 893 943
f  937 938 896
f  937 895 941
f  938 939 897
f  935 943 936
f  937 939 938
f  940 942 900
f  941 899 942
f  937 941 939
f  941 940 939
f  941 942 940
f  939 940 943
f  936 902 894
f  943 893 901
f  944 905 902
f  946 903 904
f  947 904 905
f  939 943 901
f  936 944 902
f  936 943 944
f  940 903 945
f  940 944 943
f  940 945 944
f  945 903 946
f  944 947 905
f  946 904 947
f  944 945 947
f  945 946 947
f  1015 948 949
f  1028 950 962
f  1016 952 950
f  1017 949 951
f  1020 951 954
f  1018 953 952
f  1019 955 953
f  1021 956 955
f  1022 957 956
f  1024 954 958
f  1015 1014 948
f  1015 949 1017
f  1028 1016 950
f  1015 1028 1014
f  1015 1016 1028
f  1015 1017 1016
f  1016 1018 952
f  1017 951 1020
f  1018 1019 953
f  1019 1021 955
f  1020 954 1024
f  1021 1022 956
f  1022 1023 957
f  1024 958 1037
f  1016 1017 1018
f  1017 1020 1019
f  1017 1019 1018
f  1019 1020 1021
f  1020 1022 1021
f  1020 1024 1022
f  1024 1023 1022
f  1025 960 959
f  1014 959 948
f  1026 964 960
f  1027 963 961
f  1029 962 963
f  1031 961 965
f  1030 966 964
f  1033 965 967
f  1032 968 966
f  1035 967 969
f  1034 973 968
f  1023 970 957
f  1037 958 971
f  1036 971 970
f  1038 969 972
f  1040 972 974
f  1043 974 977
f  1039 979 973
f  1041 980 975
f  1042 975 976
f  1044 977 978
f  1046 978 980
f  1045 981 979
f  1047 976 981
f  1025 959 1014
f  1029 963 1027
f  1025 1026 960
f  1027 961 1031
f  1028 962 1029
f  1025 1014 1029
f  1025 1029 1027
f  1025 1027 1026
f  1026 1027 1030
f  1014 1028 1029
f  1026 1030 964
f  1030 1032 966
f  1031 965 1033
f  1033 967 1035
f  1032 1034 968
f  1035 969 1038
f  1030 1027 1031
f  1030 1031 1032
f  1031 1033 1032
f  1032 1033 1034
f  1033 1035 1034
f  1034 1035 1039
f  1023 1036 970
f  1036 1037 971
f  1023 1037 1036
f  1024 1037 1023
f  1034 1039 973
f  1038 972 1040
f  1040 974 1043
f  1039 1045 979
f  1041 975 1042
f  1041 1046 980
f  1042 976 1047
f  1043 977 1044
f  1046 1044 978
f  1045 1047 981
f  1035 1038 1039
f  1038 1040 1039
f  1040 1043 1045
f  1040 1045 1039
f  1041 1042 1046
f  1043 1044 1045
f  1045 1044 1047
f  1042 1047 1046
f  1046 1047 1044
f  1048 983 982
f  1049 984 983
f  1052 982 986
f  1051 987 985
f  1053 986 987
f  1054 989 988
f  1048 1049 983
f  1049 1050 984
f  1048 982 1052
f  1051 1053 987
f  1048 1050 1049
f  1048 1051 1050
f  1048 1052 1051
f  1051 1052 1053
f  1052 986 1053
f  1054 1055 989
f  1050 995 984
f  1056 985 990
f  1057 992 991
f  1065 990 999
f  1059 994 993
f  1061 993 995
f  1060 998 994
f  1062 991 996
f  1063 996 997
f  1058 1000 992
f  1067 999 1001
f  1066 1002 1000
f  1070 1001 1004
f  1068 1003 1002
f  1071 1004 1005
f  1069 1006 1003
f  1072 1007 1006
f  1073 1009 1007
f  1074 997 1008
f  1064 1011 998
f  1075 1008 1009
f  1076 1005 1010
f  1077 1010 1011
f  1078 1013 1012
f  1051 985 1056
f  1056 990 1065
f  1057 1058 992
f  1057 991 1062
f  1050 1051 1056
f  1050 1056 1057
f  1050 1057 1061
f  1056 1058 1057
f  1056 1065 1058
f  1050 1061 995
f  1059 1060 994
f  1059 993 1061
f  1060 1064 998
f  1062 996 1063
f  1059 1061 1060
f  1061 1057 1062
f  1061 1062 1064
f  1060 1061 1064
f  1062 1063 1064
f  1065 999 1067
f  1058 1066 1000
f  1067 1001 1070
f  1066 1068 1002
f  1068 1069 1003
f  1070 1004 1071
f  1071 1005 1076
f  1065 1066 1058
f  1065 1067 1066
f  1067 1068 1066
f  1067 1070 1068
f  1068 1070 1069
f  1069 1070 1071
f  1069 1072 1006
f  1073 1075 1009
f  1072 1073 1007
f  1063 997 1074
f  1075 1074 1008
f  1064 1077 1011
f  1076 1010 1077
f  1078 1079 1013
f  1063 1074 1064
f  1064 1074 1077
f  1075 1077 1074
f  1073 1077 1075
f  1069 1071 1072
f  1071 1076 1072
f  1072 1076 1073
f  1073 1076 1077
f  1055 1080 989
f  1098 988 1082
f  1097 1083 1081
f  1099 1082 1083
f  1101 1084 1085
f  1054 988 1098
f  1055 1096 1080
f  1098 1082 1099
f  1097 1099 1083
f  1054 1096 1055
f  1054 1098 1096
f  1096 1098 1097
f  1097 1098 1099
f  1100 1084 1101
f  1102 1086 1080
f  1103 1081 1087
f  1102 1012 1086
f  1079 1088 1013
f  1104 1089 1088
f  1100 1087 1084
f  1105 1092 1089
f  1106 1091 1090
f  1109 1085 1093
f  1108 1090 1092
f  1107 1095 1091
f  1096 1102 1080
f  1097 1081 1103
f  1100 1103 1087
f  1096 1097 1103
f  1078 1012 1102
f  1079 1104 1088
f  1096 1103 1102
f  1078 1102 1079
f  1102 1103 1104
f  1079 1102 1104
f  1103 1105 1104
f  1104 1105 1089
f  1101 1085 1109
f  1100 1101 1103
f  1101 1105 1103
f  1101 1109 1105
f  1106 1090 1108
f  1106 1107 1091
f  1105 1108 1092
f  1109 1093 1110
f  1107 1111 1095
f  1106 1108 1107
f  1105 1109 1108
f  1107 1108 1109
f  1107 1109 1111
f  1110 1093 1094
f  1111 1094 1095
f  1110 1094 1111
f  1109 1110 1111
f  1120 1112 1113
f  1121 1115 1114
f  1123 1113 1116
f  1119 1112 1120
f  1120 1113 1123
f  1121 1120 1123
f  1122 827 1115
f  863 1118 828
f  1124 1116 1117
f  1125 1117 1118
f  1121 1122 1115
f  862 827 1122
f  1123 1116 1124
f  863 1125 1118
f  1124 1117 1125
f  1121 1123 1122
f  862 1122 863
f  863 1122 1123
f  863 1123 1125
f  1123 1124 1125
f  1172 1128 1129
f  1173 1129 1130
f  1174 1139 1131
f  1175 1131 1132
f  1176 1132 1133
f  1171 1134 1128
f  1177 1136 1134
f  1178 1133 1135
f  1180 1135 1137
f  1179 1214 1136
f  1252 1137 1215
f  1181 1130 1138
f  1182 1140 1139
f  1184 1138 1141
f  1183 1142 1140
f  1185 1143 1142
f  1186 1145 1143
f  1187 1141 1144
f  1188 1146 1145
f  1190 1144 1147
f  1189 1147 1146
f  1191 1224 1148
f  1192 1148 1149
f  1171 1128 1172
f  1173 1172 1129
f  1174 1131 1175
f  1173 1130 1181
f  1175 1132 1176
f  1171 1172 1176
f  1173 1175 1172
f  1173 1174 1175
f  1173 1181 1174
f  1172 1175 1176
f  1171 1177 1134
f  1176 1133 1178
f  1178 1135 1180
f  1177 1179 1136
f  1179 1251 1214
f  1180 1137 1252
f  1171 1178 1177
f  1171 1176 1178
f  1177 1178 1179
f  1179 1178 1180
f  1179 1180 1251
f  1180 1252 1251
f  1174 1182 1139
f  1181 1138 1184
f  1182 1183 1140
f  1183 1185 1142
f  1184 1141 1187
f  1185 1186 1143
f  1186 1188 1145
f  1188 1189 1146
f  1187 1144 1190
f  1189 1190 1147
f  1174 1181 1182
f  1181 1183 1182
f  1181 1184 1183
f  1183 1184 1185
f  1184 1186 1185
f  1184 1187 1186
f  1186 1187 1188
f  1188 1190 1189
f  1187 1190 1188
f  1191 1148 1192
f  1191 1192 1261
f  1193 1151 1150
f  1194 1152 1151
f  1200 1150 1157
f  1196 1158 1153
f  1197 1153 1154
f  1195 1234 1152
f  1198 1156 1155
f  1204 1154 1161
f  1272 1155 1235
f  1201 1157 1158
f  1202 1160 1159
f  1206 1161 1163
f  1199 1162 1156
f  1205 1164 1162
f  1211 1163 1168
f  1207 1165 1164
f  1208 1166 1165
f  1209 1167 1166
f  1212 1168 1169
f  1213 1169 1170
f  1193 1194 1151
f  1194 1195 1152
f  1193 1150 1200
f  1196 1201 1158
f  1196 1153 1197
f  1193 1195 1194
f  1193 1196 1195
f  1193 1200 1196
f  1196 1200 1201
f  1195 1196 1197
f  1195 1197 1198
f  1195 1271 1234
f  1197 1154 1204
f  1198 1199 1156
f  1198 1155 1272
f  1195 1198 1271
f  1197 1199 1198
f  1197 1204 1199
f  1198 1272 1271
f  1200 1157 1201
f  1202 1203 1160
f  1204 1161 1206
f  1199 1205 1162
f  1206 1163 1211
f  1205 1207 1164
f  1207 1208 1165
f  1208 1209 1166
f  1209 1210 1167
f  1211 1168 1212
f  1212 1169 1213
f  1213 1170 1277
f  1199 1204 1205
f  1204 1206 1205
f  1205 1206 1207
f  1206 1211 1207
f  1207 1211 1208
f  1211 1212 1208
f  1208 1212 1209
f  1212 1213 1209
f  1209 1213 1210
f  1210 1213 1277
f  1251 1216 1214
f  1254 1215 1217
f  1253 1219 1216
f  1255 1217 1218
f  1258 1220 1221
f  1257 1218 1220
f  1256 1223 1219
f  1259 1221 1222
f  1261 1222 1224
f  1260 1225 1223
f  1262 1149 1225
f  1252 1215 1254
f  1251 1253 1216
f  1254 1217 1255
f  1252 1253 1251
f  1252 1254 1253
f  1253 1254 1256
f  1253 1256 1219
f  1257 1220 1258
f  1255 1218 1257
f  1256 1260 1223
f  1258 1221 1259
f  1259 1222 1261
f  1191 1261 1224
f  1192 1149 1262
f  1260 1262 1225
f  1254 1255 1256
f  1255 1257 1256
f  1256 1257 1260
f  1257 1258 1260
f  1258 1259 1260
f  1260 1259 1262
f  1192 1262 1261
f  1259 1261 1262
f  1263 641 1226
f  1265 1226 1228
f  1264 1228 1227
f  1267 1229 1230
f  1263 1226 1265
f  1264 1263 1265
f  1264 1265 1228
f  672 1263 1264
f  1280 1267 1230
f  1266 1229 1267
f  1266 1267 1268
f  1267 1281 1268
f  1269 1233 1232
f  1271 1232 1234
f  1270 1237 1233
f  1273 1235 1236
f  1275 1236 1238
f  1274 1240 1237
f  1276 1238 1239
f  1210 1239 1167
f  1277 1170 1240
f  1278 1242 1241
f  1269 1270 1233
f  1269 1232 1271
f  1270 1274 1237
f  1272 1235 1273
f  1269 1271 1270
f  1270 1271 1274
f  1271 1272 1274
f  1272 1273 1274
f  1273 1236 1275
f  1275 1238 1276
f  1210 1276 1239
f  1274 1277 1240
f  1278 1279 1242
f  1273 1275 1274
f  1274 1275 1277
f  1275 1276 1277
f  1210 1277 1276
f  1283 1243 1246
f  1280 1230 1243
f  1281 1245 1244
f  1268 1244 1231
f  1282 1248 1245
f  1284 1246 1247
f  1285 1249 1248
f  1286 1250 1249
f  1287 1310 1250
f  1280 1243 1283
f  1280 1283 1282
f  1282 1245 1281
f  1281 1244 1268
f  1280 1281 1267
f  1280 1282 1281
f  1283 1246 1284
f  1282 1283 1285
f  1283 1286 1285
f  1283 1284 1286
f  1286 1284 1287
f  1282 1285 1248
f  1285 1286 1249
f  1286 1287 1250
f  1287 1344 1310
f  1284 1344 1287
f  1203 1288 1160
f  1297 1159 1290
f  1296 1291 1289
f  1298 1290 1291
f  1336 1302 1288
f  1337 1289 1303
f  1338 1294 1304
f  1299 1303 1292
f  1300 1292 1293
f  1301 1307 1294
f  1342 1293 1308
f  1202 1159 1297
f  1203 1295 1288
f  1296 1289 1337
f  1296 1298 1291
f  1297 1290 1298
f  1202 1295 1203
f  1202 1297 1295
f  1295 1297 1296
f  1295 1296 1337
f  1296 1297 1298
f  1295 1336 1288
f  1299 1337 1303
f  1295 1337 1336
f  1301 1338 1337
f  1299 1292 1300
f  1300 1293 1342
f  1299 1300 1337
f  1301 1294 1338
f  1301 1341 1307
f  1300 1301 1337
f  1300 1342 1301
f  1301 1342 1341
f  1336 1241 1302
f  1279 1304 1242
f  1339 1306 1305
f  1341 1305 1307
f  1340 1323 1306
f  1278 1241 1336
f  1279 1338 1304
f  1278 1336 1279
f  1279 1336 1338
f  1336 1337 1338
f  1339 1340 1306
f  1339 1305 1341
f  1340 1357 1323
f  1342 1308 1356
f  1339 1341 1340
f  1340 1341 1342
f  1340 1342 1357
f  1343 1247 1309
f  1344 1311 1310
f  1345 1312 1311
f  1346 1313 1312
f  1347 1309 1313
f  1349 1314 1315
f  1358 1315 1324
f  1351 1317 1314
f  1350 1319 1316
f  1351 1318 1317
f  1352 1316 1318
f  1353 1320 1319
f  1354 1321 1320
f  1355 1326 1321
f  1284 1247 1343
f  1344 1345 1311
f  1345 1346 1312
f  1346 1347 1313
f  1343 1309 1347
f  1284 1343 1344
f  1344 1343 1345
f  1343 1347 1345
f  1345 1347 1346
f  1348 1314 1349
f  1349 1315 1358
f  1348 1349 1353
f  1349 1355 1354
f  1349 1358 1355
f  1348 1351 1314
f  1350 1316 1352
f  1351 1352 1318
f  1350 1353 1319
f  1353 1354 1320
f  1354 1355 1321
f  1348 1350 1351
f  1348 1353 1350
f  1350 1352 1351
f  1349 1354 1353
f  1356 1308 1322
f  1357 1322 1323
f  1356 1322 1357
f  1342 1356 1357
f  1359 1324 1325
f  1360 1327 1326
f  1361 1328 1327
f  1366 1325 1332
f  1362 1329 1328
f  1363 1330 1329
f  1365 1335 1331
f  1367 1332 1333
f  1368 1333 1334
f  1358 1324 1359
f  1359 1325 1366
f  1355 1358 1360
f  1358 1361 1360
f  1358 1359 1361
f  1355 1360 1326
f  1360 1361 1327
f  1361 1362 1328
f  1362 1363 1329
f  1363 1364 1330
f  1361 1359 1362
f  1359 1366 1362
f  1366 1363 1362
f  1366 1332 1367
f  1367 1333 1368
f  1368 1334 1471
f  1365 1369 1335
f  1366 1367 1363
f  1363 1367 1364
f  1364 1367 1368
f  1391 1227 1374
f  1266 1370 1229
f  1387 1372 1370
f  1388 1231 1371
f  1390 1371 1373
f  1389 1377 1372
f  1264 1227 1391
f  1264 1391 732
f  1266 1387 1370
f  1268 1231 1388
f  1388 1371 1390
f  1266 1268 1388
f  1266 1388 1387
f  1387 1388 1389
f  1387 1389 1372
f  1389 1394 1377
f  1388 1390 1389
f  1389 1390 1394
f  1394 1390 1395
f  1392 1374 1375
f  1393 1375 1376
f  1394 1379 1377
f  731 1393 1376
f  1391 1374 1392
f  1392 1375 1393
f  731 1391 1393
f  1391 1392 1393
f  1395 1373 1378
f  1390 1373 1395
f  1397 1378 1380
f  1396 1383 1379
f  1398 1380 1381
f  1399 1381 1382
f  1400 1386 1383
f  1401 1382 1384
f  1402 1384 1385
f  1394 1396 1379
f  1395 1378 1397
f  1397 1380 1398
f  1396 1400 1383
f  1394 1395 1396
f  1395 1397 1396
f  1396 1397 1400
f  1398 1381 1399
f  1399 1382 1401
f  1402 1401 1384
f  1400 1403 1386
f  1397 1398 1400
f  1398 1399 1400
f  1399 1401 1403
f  1402 1403 1401
f  1400 1399 1403
f  1444 1404 1405
f  1443 1410 1404
f  1445 1407 1406
f  1446 1421 1407
f  1448 1408 1409
f  1443 1404 1444
f  1444 1405 1450
f  1443 1444 1449
f  1445 1406 1459
f  1445 1446 1407
f  1445 1459 1446
f  1447 1408 1448
f  1448 1409 1453
f  1447 1448 1453
f  1449 1385 1410
f  1450 1405 1411
f  1403 1411 1386
f  1447 1412 1408
f  1453 1409 1414
f  1451 1413 1412
f  1454 1414 1415
f  1455 1415 1416
f  1456 1416 1417
f  1452 1418 1413
f  1457 1419 1418
f  1458 1439 1419
f  1402 1385 1449
f  1443 1449 1410
f  1403 1450 1411
f  1402 1450 1403
f  1402 1449 1450
f  1444 1450 1449
f  1447 1451 1412
f  1451 1452 1413
f  1453 1414 1454
f  1454 1415 1455
f  1455 1416 1456
f  1452 1457 1418
f  1457 1458 1419
f  1447 1453 1451
f  1453 1452 1451
f  1453 1454 1452
f  1454 1455 1457
f  1455 1456 1458
f  1454 1457 1452
f  1455 1458 1457
f  1456 1478 1458
f  1459 1406 1420
f  1464 1420 1425
f  1460 1428 1421
f  1364 1423 1330
f  1462 1424 1423
f  1463 1425 1424
f  1461 1426 1422
f  1466 1422 1427
f  1467 1429 1428
f  1468 1430 1429
f  1469 1431 1430
f  1470 1441 1431
f  1471 1334 1432
f  1472 1432 1433
f  1465 1433 1426
f  1473 1427 1434
f  1474 1434 1435
f  1475 1435 1436
f  1446 1460 1421
f  1459 1420 1464
f  1460 1467 1428
f  1364 1462 1423
f  1463 1424 1462
f  1464 1425 1463
f  1461 1422 1466
f  1465 1426 1461
f  1466 1427 1473
f  1459 1460 1446
f  1459 1464 1461
f  1459 1461 1467
f  1459 1467 1460
f  1463 1462 1472
f  1464 1463 1465
f  1464 1465 1461
f  1461 1466 1467
f  1463 1472 1465
f  1467 1468 1429
f  1468 1469 1430
f  1469 1470 1431
f  1470 1480 1441
f  1467 1466 1468
f  1468 1466 1473
f  1468 1473 1469
f  1469 1474 1470
f  1470 1475 1480
f  1471 1432 1472
f  1465 1472 1433
f  1364 1471 1462
f  1462 1471 1472
f  1364 1368 1471
f  1473 1434 1474
f  1474 1435 1475
f  1481 1475 1436
f  1469 1473 1474
f  1470 1474 1475
f  1476 1417 1437
f  1477 1437 1438
f  1478 1442 1439
f  1480 1440 1441
f  1479 1438 1440
f  1481 1436 1442
f  1456 1417 1476
f  1476 1437 1477
f  1479 1477 1438
f  1458 1478 1439
f  1480 1479 1440
f  1478 1481 1442
f  1456 1476 1478
f  1476 1477 1478
f  1478 1477 1481
f  1479 1481 1477
f  1480 1481 1479
f  1480 1475 1481
f  1369 1483 1335
f  1490 1482 1484
f  1488 1487 1482
f  1489 1494 1483
f  1491 1484 1485
f  1492 1331 1486
f  1365 1331 1492
f  1488 1482 1490
f  1369 1489 1483
f  1490 1484 1491
f  1365 1488 1369
f  1369 1488 1489
f  1488 1490 1489
f  1365 1492 1488
f  1490 1491 1489
f  1489 1491 1522
f  1491 1485 1526
f  1488 1493 1487
f  1492 1493 1488
f  1493 1486 1487
f  1492 1486 1493
f  1524 1495 1496
f  1522 1497 1494
f  1526 1485 1498
f  1525 1499 1497
f  1527 1502 1499
f  1528 1498 1500
f  1529 1500 1501
f  1546 1501 1518
f  1530 1503 1502
f  1531 1504 1503
f  1532 1505 1504
f  1489 1522 1494
f  1523 1495 1524
f  1524 1496 1534
f  1523 1524 1534
f  1522 1525 1497
f  1526 1498 1528
f  1525 1527 1499
f  1527 1530 1502
f  1528 1500 1529
f  1529 1501 1546
f  1491 1526 1522
f  1522 1526 1525
f  1526 1528 1525
f  1525 1528 1527
f  1527 1528 1529
f  1527 1529 1530
f  1530 1529 1546
f  1530 1531 1503
f  1531 1532 1504
f  1532 1533 1505
f  1530 1546 1531
f  1531 1546 1547
f  1531 1547 1532
f  1547 1548 1532
f  1532 1549 1533
f  1532 1548 1549
f  1523 1508 1495
f  1534 1496 1506
f  1535 1506 1507
f  1536 1512 1508
f  1537 1507 1509
f  1538 1509 1510
f  1539 1510 1511
f  1540 1513 1512
f  1543 1511 1515
f  1542 1515 1514
f  1541 1516 1513
f  1533 1514 1505
f  1545 1521 1517
f  1544 1517 1516
f  1523 1536 1508
f  1534 1506 1535
f  1536 1540 1512
f  1535 1507 1537
f  1537 1509 1538
f  1538 1510 1539
f  1540 1541 1513
f  1523 1534 1536
f  1534 1535 1536
f  1536 1535 1540
f  1535 1537 1540
f  1537 1538 1540
f  1538 1539 1541
f  1540 1538 1541
f  1539 1511 1543
f  1542 1543 1515
f  1541 1544 1516
f  1533 1542 1514
f  1544 1545 1517
f  1539 1543 1541
f  1542 1544 1543
f  1541 1543 1544
f  1533 1545 1542
f  1542 1545 1544
f  1533 1549 1545
f  1547 1518 1519
f  1548 1519 1520
f  1549 1520 1521
f  1546 1518 1547
f  1547 1519 1548
f  1548 1520 1549
f  1549 1521 1545
