# OpenSCAD obj exporter
v 0 0 0
v 0 0 0.9
v 1.49454 0.428571 0.9
v 1.49454 0.436273 0.9
v 1.52549 0.440196 0.9
v 1.52549 0.504424 0.9
v 1.55354 0.440196 0.9
v 1.58449 0.428571 0.9
v 1.58449 0.436273 0.9
v 1.55354 0.505296 0.9
v 1.54729 0.522006 0.9
v 1.43511 0.615735 0.9
v 1.43511 0.623436 0.9
v 1.45705 0.611955 0.9
v 1.49134 0.611955 0.9
v 1.5175 0.615735 0.9
v 1.5175 0.623436 0.9
v 1.57577 0.615735 0.9
v 1.57577 0.623436 0.9
v 1.60047 0.611955 0.9
v 1.61777 0.611955 0.9
v 1.63913 0.615735 0.9
v 1.65004 0.615735 0.9
v 1.63913 0.623436 0.9
v 1.65004 0.623436 0.9
v 1.67198 0.611955 0.9
v 1.49454 0.428571 1.1
v 1.49454 0.436273 1.1
v 1.52549 0.440196 1.1
v 1.52549 0.504424 1.1
v 1.55354 0.440196 1.1
v 1.58449 0.428571 1.1
v 1.58449 0.436273 1.1
v 1.55354 0.505296 1.1
v 1.54729 0.522006 1.1
v 1.43511 0.615735 1.1
v 1.43511 0.623436 1.1
v 1.45705 0.611955 1.1
v 1.49134 0.611955 1.1
v 1.5175 0.615735 1.1
v 1.5175 0.623436 1.1
v 1.57577 0.615735 1.1
v 1.57577 0.623436 1.1
v 1.60047 0.611955 1.1
v 1.61777 0.611955 1.1
v 1.63913 0.615735 1.1
v 1.65004 0.615735 1.1
v 1.63913 0.623436 1.1
v 1.65004 0.623436 1.1
v 1.67198 0.611955 1.1
v 1.70947 0.428571 0.9
v 1.70947 0.436273 0.9
v 1.74042 0.440196 0.9
v 1.76847 0.440196 0.9
v 1.79942 0.428571 0.9
v 1.79942 0.436273 0.9
v 1.74042 0.504424 0.9
v 1.76847 0.505296 0.9
v 1.76222 0.522006 0.9
v 1.94344 0.424067 0.9
v 1.95114 0.424067 0.9
v 1.95405 0.474636 0.9
v 1.70627 0.611955 0.9
v 1.73243 0.615735 0.9
v 1.73243 0.623436 0.9
v 1.7907 0.615735 0.9
v 1.7907 0.623436 0.9
v 1.8154 0.611955 0.9
v 1.8327 0.611955 0.9
v 1.85406 0.615735 0.9
v 1.86192 0.615735 0.9
v 1.85406 0.623436 0.9
v 1.86192 0.623436 0.9
v 1.87892 0.611955 0.9
v 1.90769 0.611955 0.9
v 1.93632 0.615735 0.9
v 1.93632 0.623436 0.9
v 2.05358 0.424067 0.9
v 2.06129 0.424067 0.9
v 2.00302 0.558336 0.9
v 2.06361 0.474636 0.9
v 2.22434 0.424067 0.9
v 2.23205 0.424067 0.9
v 2.23495 0.474636 0.9
v 2.0065 0.609776 0.9
v 2.01304 0.609776 0.9
v 2.07742 0.615735 0.9
v 2.07742 0.623436 0.9
v 2.10779 0.611955 0.9
v 2.12493 0.611955 0.9
v 2.14193 0.615735 0.9
v 2.14283 0.615735 0.9
v 2.14193 0.623436 0.9
v 2.14283 0.623436 0.9
v 2.15983 0.611955 0.9
v 2.1886 0.611955 0.9
v 2.21723 0.615735 0.9
v 2.21723 0.623436 0.9
v 1.70947 0.428571 1.1
v 1.70947 0.436273 1.1
v 1.74042 0.440196 1.1
v 1.76847 0.440196 1.1
v 1.79942 0.428571 1.1
v 1.79942 0.436273 1.1
v 1.74042 0.504424 1.1
v 1.76847 0.505296 1.1
v 1.76222 0.522006 1.1
v 1.94344 0.424067 1.1
v 1.95114 0.424067 1.1
v 1.95405 0.474636 1.1
v 1.70627 0.611955 1.1
v 1.73243 0.615735 1.1
v 1.73243 0.623436 1.1
v 1.7907 0.615735 1.1
v 1.7907 0.623436 1.1
v 1.8154 0.611955 1.1
v 1.8327 0.611955 1.1
v 1.85406 0.615735 1.1
v 1.86192 0.615735 1.1
v 1.85406 0.623436 1.1
v 1.86192 0.623436 1.1
v 1.87892 0.611955 1.1
v 1.90769 0.611955 1.1
v 1.93632 0.615735 1.1
v 1.93632 0.623436 1.1
v 2.05358 0.424067 1.1
v 2.06129 0.424067 1.1
v 2.00302 0.558336 1.1
v 2.06361 0.474636 1.1
v 2.22434 0.424067 1.1
v 2.23205 0.424067 1.1
v 2.23495 0.474636 1.1
v 2.0065 0.609776 1.1
v 2.01304 0.609776 1.1
v 2.07742 0.615735 1.1
v 2.07742 0.623436 1.1
v 2.10779 0.611955 1.1
v 2.12493 0.611955 1.1
v 2.14193 0.615735 1.1
v 2.14283 0.615735 1.1
v 2.14193 0.623436 1.1
v 2.14283 0.623436 1.1
v 2.15983 0.611955 1.1
v 2.1886 0.611955 1.1
v 2.21723 0.615735 1.1
v 2.21723 0.623436 1.1
v 1.68324 1.38089 0.9
v 1.68324 1.38089 1.1
v 1.91387 0.857143 0.9
v 1.91387 0.864844 0.9
v 1.93596 0.868768 0.9
v 1.9518 0.868768 0.9
v 1.97795 0.857143 0.9
v 1.97795 0.864844 0.9
v 1.97141 0.925003 0.9
v 2.04131 0.857143 0.9
v 2.04131 0.864844 0.9
v 2.06746 0.868768 0.9
v 2.099 0.868768 0.9
v 2.04814 0.925003 0.9
v 2.1237 0.857143 0.9
v 2.1237 0.864844 0.9
v 2.13636 0.857143 0.9
v 2.13636 0.864844 0.9
v 2.15946 0.868768 0.9
v 2.18751 0.868768 0.9
v 2.217 0.857143 0.9
v 2.217 0.864844 0.9
v 1.97577 0.938083 0.9
v 2.04363 0.938083 0.9
v 2.00237 1.05361 0.9
v 2.00919 1.03268 0.9
v 2.02997 1.05361 0.9
v 2.18751 0.942587 0.9
v 2.18751 0.955665 0.9
v 2.21323 0.955665 0.9
v 2.22253 0.942587 0.9
v 2.23548 0.958081 0.9
v 2.13447 1.04431 0.9
v 2.13447 1.05201 0.9
v 2.15946 1.04053 0.9
v 2.18751 1.03893 0.9
v 2.21235 1.03893 0.9
v 2.2186 1.05201 0.9
v 2.23544 1.03658 0.9
v 1.91387 0.857143 1.1
v 1.91387 0.864844 1.1
v 1.93596 0.868768 1.1
v 1.9518 0.868768 1.1
v 1.97795 0.857143 1.1
v 1.97795 0.864844 1.1
v 1.97141 0.925003 1.1
v 2.04131 0.857143 1.1
v 2.04131 0.864844 1.1
v 2.06746 0.868768 1.1
v 2.099 0.868768 1.1
v 2.04814 0.925003 1.1
v 2.1237 0.857143 1.1
v 2.1237 0.864844 1.1
v 2.13636 0.857143 1.1
v 2.13636 0.864844 1.1
v 2.15946 0.868768 1.1
v 2.18751 0.868768 1.1
v 2.217 0.857143 1.1
v 2.217 0.864844 1.1
v 1.97577 0.938083 1.1
v 2.04363 0.938083 1.1
v 2.00237 1.05361 1.1
v 2.00919 1.03268 1.1
v 2.02997 1.05361 1.1
v 2.18751 0.942587 1.1
v 2.18751 0.955665 1.1
v 2.21323 0.955665 1.1
v 2.22253 0.942587 1.1
v 2.23548 0.958081 1.1
v 2.13447 1.04431 1.1
v 2.13447 1.05201 1.1
v 2.15946 1.04053 1.1
v 2.18751 1.03893 1.1
v 2.21235 1.03893 1.1
v 2.2186 1.05201 1.1
v 2.23544 1.03658 1.1
v 1.70969 1.3086 0.9
v 1.74137 1.28926 0.9
v 1.75359 1.29959 0.9
v 1.78351 1.28281 0.9
v 1.7838 1.294 0.9
v 1.81908 1.2851 0.9
v 1.79989 1.295 0.9
v 1.81504 1.29799 0.9
v 1.82819 1.30266 0.9
v 1.83829 1.30867 0.9
v 1.85224 1.29196 0.9
v 1.88001 1.28571 0.9
v 1.88001 1.29342 0.9
v 1.90312 1.29734 0.9
v 1.93116 1.29734 0.9
v 1.96211 1.28571 0.9
v 1.96211 1.29342 0.9
v 1.68986 1.33957 0.9
v 1.7181 1.34377 0.9
v 1.73156 1.31637 0.9
v 1.71362 1.38118 0.9
v 1.6896 1.42505 0.9
v 1.7179 1.42122 0.9
v 1.73076 1.44919 0.9
v 1.70867 1.45697 0.9
v 1.74024 1.47631 0.9
v 1.75296 1.46565 0.9
v 1.78525 1.47113 0.9
v 1.78409 1.48276 0.9
v 1.79908 1.47028 0.9
v 1.82527 1.4636 0.9
v 1.81265 1.46772 0.9
v 1.81559 1.48091 0.9
v 1.84367 1.33774 0.9
v 1.85311 1.33774 0.9
v 1.93116 1.36215 0.9
v 1.93116 1.37523 0.9
v 1.94627 1.37523 0.9
v 1.9531 1.36215 0.9
v 1.96762 1.37802 0.9
v 1.84062 1.43277 0.9
v 1.85021 1.43277 0.9
v 1.83626 1.45806 0.9
v 1.84934 1.47535 0.9
v 1.87812 1.47288 0.9
v 1.87812 1.48058 0.9
v 1.90312 1.4691 0.9
v 1.93116 1.4675 0.9
v 1.9454 1.4675 0.9
v 1.96803 1.46492 0.9
v 1.95165 1.48058 0.9
v 2.04364 1.28571 0.9
v 2.04364 1.29342 0.9
v 2.06864 1.29734 0.9
v 2.08389 1.29734 0.9
v 2.11005 1.28571 0.9
v 2.11005 1.29342 0.9
v 2.20407 1.28571 0.9
v 2.21816 1.28571 0.9
v 1.98302 1.36604 0.9
v 1.98253 1.38642 0.9
v 1.9913 1.40113 0.9
v 2.00505 1.3777 0.9
v 2.01862 1.39684 0.9
v 1.99423 1.42289 0.9
v 1.99143 1.44345 0.9
v 2.02314 1.42318 0.9
v 1.98304 1.45718 0.9
v 2.00527 1.46623 0.9
v 2.04364 1.47288 0.9
v 2.06864 1.4691 0.9
v 2.04364 1.48058 0.9
v 2.08389 1.46096 0.9
v 2.10264 1.48058 0.9
v 2.2029 1.33628 0.9
v 2.17675 1.47288 0.9
v 2.17675 1.48058 0.9
v 2.2029 1.4691 0.9
v 2.21816 1.4691 0.9
v 2.24316 1.47288 0.9
v 2.24316 1.48058 0.9
v 1.70969 1.3086 1.1
v 1.74137 1.28926 1.1
v 1.75359 1.29959 1.1
v 1.78351 1.28281 1.1
v 1.7838 1.294 1.1
v 1.81908 1.2851 1.1
v 1.79989 1.295 1.1
v 1.81504 1.29799 1.1
v 1.82819 1.30266 1.1
v 1.83829 1.30867 1.1
v 1.85224 1.29196 1.1
v 1.88001 1.28571 1.1
v 1.88001 1.29342 1.1
v 1.90312 1.29734 1.1
v 1.93116 1.29734 1.1
v 1.96211 1.28571 1.1
v 1.96211 1.29342 1.1
v 1.68986 1.33957 1.1
v 1.7181 1.34377 1.1
v 1.73156 1.31637 1.1
v 1.71362 1.38118 1.1
v 1.6896 1.42505 1.1
v 1.7179 1.42122 1.1
v 1.73076 1.44919 1.1
v 1.70867 1.45697 1.1
v 1.74024 1.47631 1.1
v 1.75296 1.46565 1.1
v 1.78525 1.47113 1.1
v 1.78409 1.48276 1.1
v 1.79908 1.47028 1.1
v 1.82527 1.4636 1.1
v 1.81265 1.46772 1.1
v 1.81559 1.48091 1.1
v 1.84367 1.33774 1.1
v 1.85311 1.33774 1.1
v 1.93116 1.36215 1.1
v 1.93116 1.37523 1.1
v 1.94627 1.37523 1.1
v 1.9531 1.36215 1.1
v 1.96762 1.37802 1.1
v 1.84062 1.43277 1.1
v 1.85021 1.43277 1.1
v 1.83626 1.45806 1.1
v 1.84934 1.47535 1.1
v 1.87812 1.47288 1.1
v 1.87812 1.48058 1.1
v 1.90312 1.4691 1.1
v 1.93116 1.4675 1.1
v 1.9454 1.4675 1.1
v 1.96803 1.46492 1.1
v 1.95165 1.48058 1.1
v 2.04364 1.28571 1.1
v 2.04364 1.29342 1.1
v 2.06864 1.29734 1.1
v 2.08389 1.29734 1.1
v 2.11005 1.28571 1.1
v 2.11005 1.29342 1.1
v 2.20407 1.28571 1.1
v 2.21816 1.28571 1.1
v 1.98302 1.36604 1.1
v 1.98253 1.38642 1.1
v 1.9913 1.40113 1.1
v 2.00505 1.3777 1.1
v 2.01862 1.39684 1.1
v 1.99423 1.42289 1.1
v 1.99143 1.44345 1.1
v 2.02314 1.42318 1.1
v 1.98304 1.45718 1.1
v 2.00527 1.46623 1.1
v 2.04364 1.47288 1.1
v 2.06864 1.4691 1.1
v 2.04364 1.48058 1.1
v 2.08389 1.46096 1.1
v 2.10264 1.48058 1.1
v 2.2029 1.33628 1.1
v 2.17675 1.47288 1.1
v 2.17675 1.48058 1.1
v 2.2029 1.4691 1.1
v 2.21816 1.4691 1.1
v 2.24316 1.47288 1.1
v 2.24316 1.48058 1.1
v 0 3 0
v 0.52167 2.58057 0.9
v 0.52167 2.58057 1.1
v 0 3 0.9
v 0.487838 2.63191 0.9
v 0.476561 2.69175 0.9
v 0.488002 2.75321 0.9
v 0.522326 2.80421 0.9
v 0.487838 2.63191 1.1
v 0.476561 2.69175 1.1
v 0.488002 2.75321 1.1
v 0.522326 2.80421 1.1
v 0.572517 2.54526 0.9
v 0.6348 2.53349 0.9
v 0.697078 2.54526 0.9
v 0.747911 2.58057 0.9
v 0.572517 2.54526 1.1
v 0.6348 2.53349 1.1
v 0.697078 2.54526 1.1
v 0.747911 2.58057 1.1
v 0.781757 2.63191 0.9
v 0.793039 2.69175 0.9
v 0.747255 2.80421 0.9
v 0.781593 2.75321 0.9
v 0.573336 2.83855 0.9
v 0.6348 2.84999 0.9
v 0.696259 2.83855 0.9
v 0.781757 2.63191 1.1
v 0.793039 2.69175 1.1
v 0.747255 2.80421 1.1
v 0.781593 2.75321 1.1
v 0.573336 2.83855 1.1
v 0.6348 2.84999 1.1
v 0.696259 2.83855 1.1
v 1.68324 1.80946 0.9
v 1.68324 1.80946 1.1
v 1.27561 2.14286 0.9
v 1.39515 2.14286 0.9
v 1.27561 2.15672 0.9
v 1.3206 2.16378 0.9
v 1.34807 2.16378 0.9
v 1.39515 2.15672 0.9
v 1.47649 2.14286 0.9
v 1.48565 2.14286 0.9
v 1.49585 2.22682 0.9
v 1.5785 2.14286 0.9
v 1.5785 2.15672 0.9
v 1.62558 2.16378 0.9
v 1.6758 2.16378 0.9
v 1.27561 2.14286 1.1
v 1.39515 2.14286 1.1
v 1.27561 2.15672 1.1
v 1.3206 2.16378 1.1
v 1.34807 2.16378 1.1
v 1.39515 2.15672 1.1
v 1.47649 2.14286 1.1
v 1.48565 2.14286 1.1
v 1.49585 2.22682 1.1
v 1.5785 2.14286 1.1
v 1.5785 2.15672 1.1
v 1.62558 2.16378 1.1
v 1.6758 2.16378 1.1
v 1.74137 1.71783 0.9
v 1.75359 1.72816 0.9
v 1.70969 1.73717 0.9
v 1.68986 1.76814 0.9
v 1.7181 1.77234 0.9
v 1.73156 1.74495 0.9
v 1.78351 1.71138 0.9
v 1.7838 1.72257 0.9
v 1.79989 1.72357 0.9
v 1.81908 1.71367 0.9
v 1.81504 1.72656 0.9
v 1.71362 1.80976 0.9
v 1.7179 1.84979 0.9
v 1.6896 1.85362 0.9
v 1.82819 1.73123 0.9
v 1.85224 1.72053 0.9
v 1.88001 1.71429 0.9
v 1.88001 1.72199 0.9
v 1.83829 1.73724 0.9
v 1.84367 1.76631 0.9
v 1.85311 1.76631 0.9
v 1.90312 1.72591 0.9
v 1.93116 1.72591 0.9
v 1.96211 1.71429 0.9
v 1.96211 1.72199 0.9
v 1.84062 1.86134 0.9
v 1.85021 1.86134 0.9
v 1.93116 1.79072 0.9
v 1.93116 1.8038 0.9
v 1.94627 1.8038 0.9
v 1.9531 1.79072 0.9
v 1.96762 1.8066 0.9
v 2.04364 1.71429 0.9
v 2.04364 1.72199 0.9
v 2.06864 1.72591 0.9
v 2.08389 1.72591 0.9
v 1.98302 1.79461 0.9
v 1.98253 1.81499 0.9
v 2.00505 1.80627 0.9
v 2.01862 1.82541 0.9
v 1.9913 1.8297 0.9
v 1.99423 1.85146 0.9
v 1.99143 1.87202 0.9
v 2.02314 1.85175 0.9
v 2.11005 1.71429 0.9
v 2.11005 1.72199 0.9
v 2.20407 1.71429 0.9
v 2.21816 1.71429 0.9
v 2.2029 1.76486 0.9
v 1.74137 1.71783 1.1
v 1.75359 1.72816 1.1
v 1.70969 1.73717 1.1
v 1.68986 1.76814 1.1
v 1.7181 1.77234 1.1
v 1.73156 1.74495 1.1
v 1.78351 1.71138 1.1
v 1.7838 1.72257 1.1
v 1.79989 1.72357 1.1
v 1.81908 1.71367 1.1
v 1.81504 1.72656 1.1
v 1.71362 1.80976 1.1
v 1.7179 1.84979 1.1
v 1.6896 1.85362 1.1
v 1.82819 1.73123 1.1
v 1.85224 1.72053 1.1
v 1.88001 1.71429 1.1
v 1.88001 1.72199 1.1
v 1.83829 1.73724 1.1
v 1.84367 1.76631 1.1
v 1.85311 1.76631 1.1
v 1.90312 1.72591 1.1
v 1.93116 1.72591 1.1
v 1.96211 1.71429 1.1
v 1.96211 1.72199 1.1
v 1.84062 1.86134 1.1
v 1.85021 1.86134 1.1
v 1.93116 1.79072 1.1
v 1.93116 1.8038 1.1
v 1.94627 1.8038 1.1
v 1.9531 1.79072 1.1
v 1.96762 1.8066 1.1
v 2.04364 1.71429 1.1
v 2.04364 1.72199 1.1
v 2.06864 1.72591 1.1
v 2.08389 1.72591 1.1
v 1.98302 1.79461 1.1
v 1.98253 1.81499 1.1
v 2.00505 1.80627 1.1
v 2.01862 1.82541 1.1
v 1.9913 1.8297 1.1
v 1.99423 1.85146 1.1
v 1.99143 1.87202 1.1
v 2.02314 1.85175 1.1
v 2.11005 1.71429 1.1
v 2.11005 1.72199 1.1
v 2.20407 1.71429 1.1
v 2.21816 1.71429 1.1
v 2.2029 1.76486 1.1
v 1.70867 1.88554 0.9
v 1.73076 1.87776 0.9
v 1.75296 1.89422 0.9
v 1.74024 1.90488 0.9
v 1.78525 1.8997 0.9
v 1.78409 1.91133 0.9
v 1.81265 1.89629 0.9
v 1.82527 1.89217 0.9
v 1.79908 1.89885 0.9
v 1.81559 1.90948 0.9
v 1.83626 1.88663 0.9
v 1.84934 1.90392 0.9
v 1.87812 1.90145 0.9
v 1.87812 1.90915 0.9
v 1.90312 1.89767 0.9
v 1.93116 1.89607 0.9
v 1.9454 1.89607 0.9
v 1.96803 1.89349 0.9
v 1.95165 1.90915 0.9
v 1.72079 2.14286 0.9
v 1.72079 2.15672 0.9
v 1.88928 2.14286 0.9
v 1.88928 2.15672 0.9
v 1.93087 2.16378 0.9
v 1.98304 1.88575 0.9
v 2.00527 1.8948 0.9
v 2.06864 1.89767 0.9
v 2.04364 1.90145 0.9
v 2.04364 1.90915 0.9
v 2.08389 1.88953 0.9
v 2.10264 1.90915 0.9
v 2.17675 1.90145 0.9
v 2.17675 1.90915 0.9
v 2.2029 1.89767 0.9
v 2.21816 1.89767 0.9
v 2.24316 1.90145 0.9
v 2.24316 1.90915 0.9
v 2.03706 2.14286 0.9
v 1.98135 2.16378 0.9
v 2.03706 2.15672 0.9
v 2.18774 2.14286 0.9
v 2.18774 2.15672 0.9
v 2.23273 2.16378 0.9
v 1.70867 1.88554 1.1
v 1.73076 1.87776 1.1
v 1.75296 1.89422 1.1
v 1.74024 1.90488 1.1
v 1.78525 1.8997 1.1
v 1.78409 1.91133 1.1
v 1.81265 1.89629 1.1
v 1.82527 1.89217 1.1
v 1.79908 1.89885 1.1
v 1.81559 1.90948 1.1
v 1.83626 1.88663 1.1
v 1.84934 1.90392 1.1
v 1.87812 1.90145 1.1
v 1.87812 1.90915 1.1
v 1.90312 1.89767 1.1
v 1.93116 1.89607 1.1
v 1.9454 1.89607 1.1
v 1.96803 1.89349 1.1
v 1.95165 1.90915 1.1
v 1.72079 2.14286 1.1
v 1.72079 2.15672 1.1
v 1.88928 2.14286 1.1
v 1.88928 2.15672 1.1
v 1.93087 2.16378 1.1
v 1.98304 1.88575 1.1
v 2.00527 1.8948 1.1
v 2.06864 1.89767 1.1
v 2.04364 1.90145 1.1
v 2.04364 1.90915 1.1
v 2.08389 1.88953 1.1
v 2.10264 1.90915 1.1
v 2.17675 1.90145 1.1
v 2.17675 1.90915 1.1
v 2.2029 1.89767 1.1
v 2.21816 1.89767 1.1
v 2.24316 1.90145 1.1
v 2.24316 1.90915 1.1
v 2.03706 2.14286 1.1
v 1.98135 2.16378 1.1
v 2.03706 2.15672 1.1
v 2.18774 2.14286 1.1
v 2.18774 2.15672 1.1
v 2.23273 2.16378 1.1
v 1.27561 2.47975 0.9
v 1.3206 2.47295 0.9
v 1.27561 2.49361 0.9
v 1.34807 2.44444 0.9
v 1.38181 2.49361 0.9
v 1.62558 2.44444 0.9
v 1.6758 2.47295 0.9
v 1.62035 2.49361 0.9
v 1.27561 2.47975 1.1
v 1.3206 2.47295 1.1
v 1.27561 2.49361 1.1
v 1.34807 2.44444 1.1
v 1.38181 2.49361 1.1
v 1.62558 2.44444 1.1
v 1.6758 2.47295 1.1
v 1.62035 2.49361 1.1
v 1.72079 2.47975 0.9
v 1.72079 2.49361 0.9
v 1.88588 2.47975 0.9
v 1.88588 2.49361 0.9
v 1.93087 2.47295 0.9
v 1.98135 2.28044 0.9
v 2.02085 2.28044 0.9
v 1.98135 2.30398 0.9
v 2.00855 2.30398 0.9
v 2.0747 2.28743 0.9
v 2.04697 2.30902 0.9
v 2.07381 2.32412 0.9
v 2.0896 2.3506 0.9
v 2.09487 2.38977 0.9
v 2.08983 2.42678 0.9
v 2.11435 2.30843 0.9
v 2.13878 2.34289 0.9
v 2.14692 2.3903 0.9
v 1.98135 2.47007 0.9
v 2.00698 2.47007 0.9
v 2.01823 2.49361 0.9
v 2.04772 2.46543 0.9
v 2.07473 2.4515 0.9
v 2.11475 2.46778 0.9
v 2.18774 2.47975 0.9
v 2.23273 2.47295 0.9
v 2.18774 2.49361 0.9
v 1.72079 2.47975 1.1
v 1.72079 2.49361 1.1
v 1.88588 2.47975 1.1
v 1.88588 2.49361 1.1
v 1.93087 2.47295 1.1
v 1.98135 2.28044 1.1
v 2.02085 2.28044 1.1
v 1.98135 2.30398 1.1
v 2.00855 2.30398 1.1
v 2.0747 2.28743 1.1
v 2.04697 2.30902 1.1
v 2.07381 2.32412 1.1
v 2.0896 2.3506 1.1
v 2.09487 2.38977 1.1
v 2.08983 2.42678 1.1
v 2.11435 2.30843 1.1
v 2.13878 2.34289 1.1
v 2.14692 2.3903 1.1
v 1.98135 2.47007 1.1
v 2.00698 2.47007 1.1
v 2.01823 2.49361 1.1
v 2.04772 2.46543 1.1
v 2.07473 2.4515 1.1
v 2.11475 2.46778 1.1
v 2.18774 2.47975 1.1
v 2.23273 2.47295 1.1
v 2.18774 2.49361 1.1
v 4.5 0 0
v 2.33449 0.424067 0.9
v 2.34219 0.424067 0.9
v 2.28392 0.558336 0.9
v 2.34452 0.474636 0.9
v 2.43202 0.428571 0.9
v 2.43202 0.436273 0.9
v 2.45701 0.440196 0.9
v 2.47227 0.440196 0.9
v 2.49842 0.428571 0.9
v 2.49842 0.436273 0.9
v 2.28741 0.609776 0.9
v 2.29395 0.609776 0.9
v 2.35832 0.615735 0.9
v 2.35832 0.623436 0.9
v 2.38869 0.611955 0.9
v 2.40584 0.611955 0.9
v 2.42284 0.615735 0.9
v 2.42284 0.623436 0.9
v 2.43202 0.615735 0.9
v 2.43202 0.623436 0.9
v 2.45701 0.611955 0.9
v 2.47227 0.603819 0.9
v 2.49101 0.623436 0.9
v 2.59244 0.428571 0.9
v 2.60654 0.428571 0.9
v 2.64695 0.428571 0.9
v 2.64695 0.436273 0.9
v 2.59128 0.479141 0.9
v 2.67194 0.440196 0.9
v 2.6872 0.440196 0.9
v 2.71335 0.428571 0.9
v 2.71335 0.436273 0.9
v 2.80737 0.428571 0.9
v 2.80621 0.479141 0.9
v 2.56512 0.615735 0.9
v 2.56512 0.623436 0.9
v 2.59128 0.611955 0.9
v 2.60654 0.611955 0.9
v 2.63153 0.615735 0.9
v 2.63153 0.623436 0.9
v 2.64695 0.615735 0.9
v 2.64695 0.623436 0.9
v 2.6872 0.603819 0.9
v 2.67194 0.611955 0.9
v 2.70594 0.623436 0.9
v 2.78005 0.615735 0.9
v 2.78005 0.623436 0.9
v 2.80621 0.611955 0.9
v 2.33449 0.424067 1.1
v 2.34219 0.424067 1.1
v 2.28392 0.558336 1.1
v 2.34452 0.474636 1.1
v 2.43202 0.428571 1.1
v 2.43202 0.436273 1.1
v 2.45701 0.440196 1.1
v 2.47227 0.440196 1.1
v 2.49842 0.428571 1.1
v 2.49842 0.436273 1.1
v 2.28741 0.609776 1.1
v 2.29395 0.609776 1.1
v 2.35832 0.615735 1.1
v 2.35832 0.623436 1.1
v 2.38869 0.611955 1.1
v 2.40584 0.611955 1.1
v 2.42284 0.615735 1.1
v 2.42284 0.623436 1.1
v 2.43202 0.615735 1.1
v 2.43202 0.623436 1.1
v 2.45701 0.611955 1.1
v 2.47227 0.603819 1.1
v 2.49101 0.623436 1.1
v 2.59244 0.428571 1.1
v 2.60654 0.428571 1.1
v 2.64695 0.428571 1.1
v 2.64695 0.436273 1.1
v 2.59128 0.479141 1.1
v 2.67194 0.440196 1.1
v 2.6872 0.440196 1.1
v 2.71335 0.428571 1.1
v 2.71335 0.436273 1.1
v 2.80737 0.428571 1.1
v 2.80621 0.479141 1.1
v 2.56512 0.615735 1.1
v 2.56512 0.623436 1.1
v 2.59128 0.611955 1.1
v 2.60654 0.611955 1.1
v 2.63153 0.615735 1.1
v 2.63153 0.623436 1.1
v 2.64695 0.615735 1.1
v 2.64695 0.623436 1.1
v 2.6872 0.603819 1.1
v 2.67194 0.611955 1.1
v 2.70594 0.623436 1.1
v 2.78005 0.615735 1.1
v 2.78005 0.623436 1.1
v 2.80621 0.611955 1.1
v 2.82147 0.428571 0.9
v 2.86188 0.428571 0.9
v 2.86188 0.436273 0.9
v 2.88687 0.440196 0.9
v 2.90213 0.440196 0.9
v 2.92828 0.428571 0.9
v 2.92828 0.436273 0.9
v 3.0223 0.428571 0.9
v 3.0364 0.428571 0.9
v 3.02114 0.479141 0.9
v 2.82147 0.611955 0.9
v 2.84646 0.615735 0.9
v 2.84646 0.623436 0.9
v 2.86188 0.615735 0.9
v 2.86188 0.623436 0.9
v 2.90213 0.603819 0.9
v 2.88687 0.611955 0.9
v 2.92087 0.623436 0.9
v 2.99498 0.615735 0.9
v 2.99498 0.623436 0.9
v 3.02114 0.611955 0.9
v 3.0364 0.611955 0.9
v 3.06139 0.615735 0.9
v 3.06139 0.623436 0.9
v 2.82147 0.428571 1.1
v 2.86188 0.428571 1.1
v 2.86188 0.436273 1.1
v 2.88687 0.440196 1.1
v 2.90213 0.440196 1.1
v 2.92828 0.428571 1.1
v 2.92828 0.436273 1.1
v 3.0223 0.428571 1.1
v 3.0364 0.428571 1.1
v 3.02114 0.479141 1.1
v 2.82147 0.611955 1.1
v 2.84646 0.615735 1.1
v 2.84646 0.623436 1.1
v 2.86188 0.615735 1.1
v 2.86188 0.623436 1.1
v 2.90213 0.603819 1.1
v 2.88687 0.611955 1.1
v 2.92087 0.623436 1.1
v 2.99498 0.615735 1.1
v 2.99498 0.623436 1.1
v 3.02114 0.611955 1.1
v 3.0364 0.611955 1.1
v 3.06139 0.615735 1.1
v 3.06139 0.623436 1.1
v 2.27731 0.857143 0.9
v 2.30289 0.868768 0.9
v 2.32395 0.857143 0.9
v 2.32395 0.864844 0.9
v 2.33298 0.857143 0.9
v 2.33298 0.864844 0.9
v 2.35797 0.868768 0.9
v 2.37323 0.868768 0.9
v 2.39938 0.857143 0.9
v 2.39938 0.864844 0.9
v 2.44458 0.857143 0.9
v 2.44966 0.857143 0.9
v 2.45533 0.903789 0.9
v 2.50125 0.857143 0.9
v 2.50125 0.864844 0.9
v 2.52741 0.868768 0.9
v 2.25014 0.946656 0.9
v 2.26685 0.954339 0.9
v 2.25021 0.965327 0.9
v 2.25844 0.978315 0.9
v 2.27949 0.966345 0.9
v 2.28745 0.981839 0.9
v 2.26118 0.99795 0.9
v 2.25847 1.01697 0.9
v 2.25035 1.02955 0.9
v 2.2901 0.999986 0.9
v 2.28574 1.02356 0.9
v 2.37323 1.02469 0.9
v 2.25043 1.04892 0.9
v 2.27266 1.03965 0.9
v 2.33298 1.04431 0.9
v 2.33298 1.05201 0.9
v 2.35797 1.04053 0.9
v 2.52741 1.02469 0.9
v 2.39198 1.05201 0.9
v 2.5245 1.05201 0.9
v 2.55531 0.868768 0.9
v 2.5803 0.857143 0.9
v 2.5803 0.864844 0.9
v 2.55531 1.04053 0.9
v 2.5803 1.04431 0.9
v 2.5803 1.05201 0.9
v 2.27731 0.857143 1.1
v 2.30289 0.868768 1.1
v 2.32395 0.857143 1.1
v 2.32395 0.864844 1.1
v 2.33298 0.857143 1.1
v 2.33298 0.864844 1.1
v 2.35797 0.868768 1.1
v 2.37323 0.868768 1.1
v 2.39938 0.857143 1.1
v 2.39938 0.864844 1.1
v 2.44458 0.857143 1.1
v 2.44966 0.857143 1.1
v 2.45533 0.903789 1.1
v 2.50125 0.857143 1.1
v 2.50125 0.864844 1.1
v 2.52741 0.868768 1.1
v 2.25014 0.946656 1.1
v 2.26685 0.954339 1.1
v 2.25021 0.965327 1.1
v 2.25844 0.978315 1.1
v 2.27949 0.966345 1.1
v 2.28745 0.981839 1.1
v 2.26118 0.99795 1.1
v 2.25847 1.01697 1.1
v 2.25035 1.02955 1.1
v 2.2901 0.999986 1.1
v 2.28574 1.02356 1.1
v 2.37323 1.02469 1.1
v 2.25043 1.04892 1.1
v 2.27266 1.03965 1.1
v 2.33298 1.04431 1.1
v 2.33298 1.05201 1.1
v 2.35797 1.04053 1.1
v 2.52741 1.02469 1.1
v 2.39198 1.05201 1.1
v 2.5245 1.05201 1.1
v 2.55531 0.868768 1.1
v 2.5803 0.857143 1.1
v 2.5803 0.864844 1.1
v 2.55531 1.04053 1.1
v 2.5803 1.04431 1.1
v 2.5803 1.05201 1.1
v 2.28865 1.3086 0.9
v 2.32033 1.28926 0.9
v 2.33256 1.29959 0.9
v 2.36247 1.28281 0.9
v 2.36276 1.294 0.9
v 2.37886 1.295 0.9
v 2.39804 1.2851 0.9
v 2.394 1.29799 0.9
v 2.40715 1.30266 0.9
v 2.41725 1.30867 0.9
v 2.45897 1.28571 0.9
v 2.4312 1.29196 0.9
v 2.45897 1.29342 0.9
v 2.48208 1.29734 0.9
v 2.51012 1.29734 0.9
v 2.26882 1.33957 0.9
v 2.31052 1.31637 0.9
v 2.29706 1.34377 0.9
v 2.26221 1.38089 0.9
v 2.29258 1.38118 0.9
v 2.26856 1.42505 0.9
v 2.29686 1.42122 0.9
v 2.30972 1.44919 0.9
v 2.28763 1.45697 0.9
v 2.31921 1.47631 0.9
v 2.33192 1.46565 0.9
v 2.36422 1.47113 0.9
v 2.37804 1.47028 0.9
v 2.36305 1.48276 0.9
v 2.42263 1.33774 0.9
v 2.43208 1.33774 0.9
v 2.48208 1.35459 0.9
v 2.51012 1.36215 0.9
v 2.51012 1.37523 0.9
v 2.52523 1.37523 0.9
v 2.41958 1.43277 0.9
v 2.42917 1.43277 0.9
v 2.40423 1.4636 0.9
v 2.39161 1.46772 0.9
v 2.41522 1.45806 0.9
v 2.39455 1.48091 0.9
v 2.4283 1.47535 0.9
v 2.45708 1.47288 0.9
v 2.45708 1.48058 0.9
v 2.48208 1.4691 0.9
v 2.51012 1.4675 0.9
v 2.52436 1.4675 0.9
v 2.53061 1.48058 0.9
v 2.54107 1.28571 0.9
v 2.54107 1.29342 0.9
v 2.6226 1.28571 0.9
v 2.6226 1.29342 0.9
v 2.6476 1.29734 0.9
v 2.66286 1.29734 0.9
v 2.68901 1.28571 0.9
v 2.68901 1.29342 0.9
v 2.78303 1.28571 0.9
v 2.79712 1.28571 0.9
v 2.53206 1.36215 0.9
v 2.54658 1.37802 0.9
v 2.56198 1.36604 0.9
v 2.56149 1.38642 0.9
v 2.58401 1.3777 0.9
v 2.57026 1.40113 0.9
v 2.59758 1.39684 0.9
v 2.57319 1.42289 0.9
v 2.57039 1.44345 0.9
v 2.547 1.46492 0.9
v 2.562 1.45718 0.9
v 2.58423 1.46623 0.9
v 2.60211 1.42318 0.9
v 2.6226 1.47288 0.9
v 2.6226 1.48058 0.9
v 2.6476 1.4691 0.9
v 2.66286 1.46096 0.9
v 2.78187 1.33628 0.9
v 2.6816 1.48058 0.9
v 2.75571 1.47288 0.9
v 2.75571 1.48058 0.9
v 2.78187 1.4691 0.9
v 2.79712 1.4691 0.9
v 2.28865 1.3086 1.1
v 2.32033 1.28926 1.1
v 2.33256 1.29959 1.1
v 2.36247 1.28281 1.1
v 2.36276 1.294 1.1
v 2.37886 1.295 1.1
v 2.39804 1.2851 1.1
v 2.394 1.29799 1.1
v 2.40715 1.30266 1.1
v 2.41725 1.30867 1.1
v 2.45897 1.28571 1.1
v 2.4312 1.29196 1.1
v 2.45897 1.29342 1.1
v 2.48208 1.29734 1.1
v 2.51012 1.29734 1.1
v 2.26882 1.33957 1.1
v 2.31052 1.31637 1.1
v 2.29706 1.34377 1.1
v 2.26221 1.38089 1.1
v 2.29258 1.38118 1.1
v 2.26856 1.42505 1.1
v 2.29686 1.42122 1.1
v 2.30972 1.44919 1.1
v 2.28763 1.45697 1.1
v 2.31921 1.47631 1.1
v 2.33192 1.46565 1.1
v 2.36422 1.47113 1.1
v 2.37804 1.47028 1.1
v 2.36305 1.48276 1.1
v 2.42263 1.33774 1.1
v 2.43208 1.33774 1.1
v 2.51012 1.36215 1.1
v 2.51012 1.37523 1.1
v 2.52523 1.37523 1.1
v 2.41958 1.43277 1.1
v 2.42917 1.43277 1.1
v 2.40423 1.4636 1.1
v 2.39161 1.46772 1.1
v 2.41522 1.45806 1.1
v 2.39455 1.48091 1.1
v 2.4283 1.47535 1.1
v 2.45708 1.47288 1.1
v 2.45708 1.48058 1.1
v 2.48208 1.4691 1.1
v 2.51012 1.4675 1.1
v 2.52436 1.4675 1.1
v 2.53061 1.48058 1.1
v 2.54107 1.28571 1.1
v 2.54107 1.29342 1.1
v 2.6226 1.28571 1.1
v 2.6226 1.29342 1.1
v 2.6476 1.29734 1.1
v 2.66286 1.29734 1.1
v 2.68901 1.28571 1.1
v 2.68901 1.29342 1.1
v 2.78303 1.28571 1.1
v 2.79712 1.28571 1.1
v 2.53206 1.36215 1.1
v 2.54658 1.37802 1.1
v 2.56198 1.36604 1.1
v 2.56149 1.38642 1.1
v 2.58401 1.3777 1.1
v 2.57026 1.40113 1.1
v 2.59758 1.39684 1.1
v 2.57319 1.42289 1.1
v 2.57039 1.44345 1.1
v 2.547 1.46492 1.1
v 2.562 1.45718 1.1
v 2.58423 1.46623 1.1
v 2.60211 1.42318 1.1
v 2.6226 1.47288 1.1
v 2.6226 1.48058 1.1
v 2.6476 1.4691 1.1
v 2.66286 1.46096 1.1
v 2.78187 1.33628 1.1
v 2.6816 1.48058 1.1
v 2.75571 1.47288 1.1
v 2.75571 1.48058 1.1
v 2.78187 1.4691 1.1
v 2.79712 1.4691 1.1
v 2.82212 1.47288 0.9
v 2.82212 1.48058 0.9
v 2.82212 1.47288 1.1
v 2.82212 1.48058 1.1
v 4.5 0 0.9
v 4.5 3 0
v 2.26882 1.76814 0.9
v 2.28865 1.73717 0.9
v 2.31052 1.74495 0.9
v 2.29706 1.77234 0.9
v 2.32033 1.71783 0.9
v 2.33256 1.72816 0.9
v 2.36247 1.71138 0.9
v 2.36276 1.72257 0.9
v 2.37886 1.72357 0.9
v 2.26221 1.80946 0.9
v 2.29258 1.80976 0.9
v 2.26856 1.85362 0.9
v 2.29686 1.84979 0.9
v 2.39804 1.71367 0.9
v 2.394 1.72656 0.9
v 2.40715 1.73123 0.9
v 2.4312 1.72053 0.9
v 2.45897 1.71429 0.9
v 2.45897 1.72199 0.9
v 2.41725 1.73724 0.9
v 2.42263 1.76631 0.9
v 2.43208 1.76631 0.9
v 2.48208 1.72591 0.9
v 2.51012 1.72591 0.9
v 2.41958 1.86134 0.9
v 2.42917 1.86134 0.9
v 2.51012 1.79072 0.9
v 2.51012 1.8038 0.9
v 2.52523 1.8038 0.9
v 2.54107 1.71429 0.9
v 2.54107 1.72199 0.9
v 2.6226 1.71429 0.9
v 2.6226 1.72199 0.9
v 2.6476 1.72591 0.9
v 2.66286 1.72591 0.9
v 2.53206 1.79072 0.9
v 2.56198 1.79461 0.9
v 2.54658 1.8066 0.9
v 2.56149 1.81499 0.9
v 2.58401 1.80627 0.9
v 2.59758 1.82541 0.9
v 2.57026 1.8297 0.9
v 2.57319 1.85146 0.9
v 2.57039 1.87202 0.9
v 2.60211 1.85175 0.9
v 2.68901 1.71429 0.9
v 2.68901 1.72199 0.9
v 2.78303 1.71429 0.9
v 2.79712 1.71429 0.9
v 2.78187 1.76486 0.9
v 2.26882 1.76814 1.1
v 2.28865 1.73717 1.1
v 2.31052 1.74495 1.1
v 2.29706 1.77234 1.1
v 2.32033 1.71783 1.1
v 2.33256 1.72816 1.1
v 2.36247 1.71138 1.1
v 2.36276 1.72257 1.1
v 2.37886 1.72357 1.1
v 2.26221 1.80946 1.1
v 2.29258 1.80976 1.1
v 2.26856 1.85362 1.1
v 2.29686 1.84979 1.1
v 2.39804 1.71367 1.1
v 2.394 1.72656 1.1
v 2.40715 1.73123 1.1
v 2.4312 1.72053 1.1
v 2.45897 1.71429 1.1
v 2.45897 1.72199 1.1
v 2.41725 1.73724 1.1
v 2.42263 1.76631 1.1
v 2.43208 1.76631 1.1
v 2.48208 1.72591 1.1
v 2.51012 1.72591 1.1
v 2.41958 1.86134 1.1
v 2.42917 1.86134 1.1
v 2.51012 1.79072 1.1
v 2.51012 1.8038 1.1
v 2.52523 1.8038 1.1
v 2.54107 1.71429 1.1
v 2.54107 1.72199 1.1
v 2.6226 1.71429 1.1
v 2.6226 1.72199 1.1
v 2.6476 1.72591 1.1
v 2.66286 1.72591 1.1
v 2.53206 1.79072 1.1
v 2.56198 1.79461 1.1
v 2.54658 1.8066 1.1
v 2.56149 1.81499 1.1
v 2.58401 1.80627 1.1
v 2.59758 1.82541 1.1
v 2.57026 1.8297 1.1
v 2.57319 1.85146 1.1
v 2.57039 1.87202 1.1
v 2.60211 1.85175 1.1
v 2.68901 1.71429 1.1
v 2.68901 1.72199 1.1
v 2.78303 1.71429 1.1
v 2.79712 1.71429 1.1
v 2.78187 1.76486 1.1
v 2.28763 1.88554 0.9
v 2.30972 1.87776 0.9
v 2.31921 1.90488 0.9
v 2.33192 1.89422 0.9
v 2.36422 1.8997 0.9
v 2.36305 1.91133 0.9
v 2.37804 1.89885 0.9
v 2.39161 1.89629 0.9
v 2.40423 1.89217 0.9
v 2.41522 1.88663 0.9
v 2.39455 1.90948 0.9
v 2.4283 1.90392 0.9
v 2.45708 1.90145 0.9
v 2.45708 1.90915 0.9
v 2.48208 1.89767 0.9
v 2.51012 1.89607 0.9
v 2.52436 1.89607 0.9
v 2.53061 1.90915 0.9
v 2.32794 2.14286 0.9
v 2.28295 2.16378 0.9
v 2.32794 2.15672 0.9
v 2.38065 2.2398 0.9
v 2.47338 2.14923 0.9
v 2.41636 2.18405 0.9
v 2.45572 2.19805 0.9
v 2.43149 2.24735 0.9
v 2.49538 2.16784 0.9
v 2.547 1.89349 0.9
v 2.562 1.88575 0.9
v 2.58423 1.8948 0.9
v 2.6226 1.90145 0.9
v 2.6226 1.90915 0.9
v 2.6476 1.89767 0.9
v 2.66286 1.88953 0.9
v 2.6816 1.90915 0.9
v 2.75571 1.90145 0.9
v 2.75571 1.90915 0.9
v 2.78187 1.89767 0.9
v 2.79712 1.89767 0.9
v 2.54923 2.13763 0.9
v 2.61325 2.14175 0.9
v 2.54976 2.15777 0.9
v 2.57872 2.15956 0.9
v 2.60599 2.16496 0.9
v 2.62966 2.17336 0.9
v 2.64784 2.18418 0.9
v 2.65752 2.2365 0.9
v 2.67295 2.1541 0.9
v 2.73261 2.14887 0.9
v 2.77838 2.14044 0.9
v 2.67452 2.2365 0.9
v 2.72973 2.22263 0.9
v 2.75877 2.17346 0.9
v 2.77109 2.1681 0.9
v 2.78767 2.16352 0.9
v 2.80575 2.16038 0.9
v 2.74699 2.22263 0.9
v 2.28763 1.88554 1.1
v 2.30972 1.87776 1.1
v 2.31921 1.90488 1.1
v 2.33192 1.89422 1.1
v 2.36422 1.8997 1.1
v 2.36305 1.91133 1.1
v 2.37804 1.89885 1.1
v 2.39161 1.89629 1.1
v 2.40423 1.89217 1.1
v 2.41522 1.88663 1.1
v 2.39455 1.90948 1.1
v 2.4283 1.90392 1.1
v 2.45708 1.90145 1.1
v 2.45708 1.90915 1.1
v 2.48208 1.89767 1.1
v 2.51012 1.89607 1.1
v 2.52436 1.89607 1.1
v 2.53061 1.90915 1.1
v 2.32794 2.14286 1.1
v 2.28295 2.16378 1.1
v 2.32794 2.15672 1.1
v 2.38065 2.2398 1.1
v 2.47338 2.14923 1.1
v 2.41636 2.18405 1.1
v 2.45572 2.19805 1.1
v 2.43149 2.24735 1.1
v 2.49538 2.16784 1.1
v 2.547 1.89349 1.1
v 2.562 1.88575 1.1
v 2.58423 1.8948 1.1
v 2.6226 1.90145 1.1
v 2.6226 1.90915 1.1
v 2.6476 1.89767 1.1
v 2.66286 1.88953 1.1
v 2.6816 1.90915 1.1
v 2.75571 1.90145 1.1
v 2.75571 1.90915 1.1
v 2.78187 1.89767 1.1
v 2.79712 1.89767 1.1
v 2.54923 2.13763 1.1
v 2.61325 2.14175 1.1
v 2.54976 2.15777 1.1
v 2.57872 2.15956 1.1
v 2.60599 2.16496 1.1
v 2.62966 2.17336 1.1
v 2.64784 2.18418 1.1
v 2.65752 2.2365 1.1
v 2.67295 2.1541 1.1
v 2.73261 2.14887 1.1
v 2.77838 2.14044 1.1
v 2.67452 2.2365 1.1
v 2.72973 2.22263 1.1
v 2.75877 2.17346 1.1
v 2.77109 2.1681 1.1
v 2.78767 2.16352 1.1
v 2.80575 2.16038 1.1
v 2.74699 2.22263 1.1
v 2.82212 1.90145 0.9
v 2.82212 1.90915 0.9
v 2.82677 2.13763 0.9
v 2.87941 2.1443 0.9
v 2.82259 2.15933 0.9
v 2.85829 2.16404 0.9
v 2.88327 2.17817 0.9
v 2.91858 2.16431 0.9
v 2.94291 2.19615 0.9
v 2.89798 2.20328 0.9
v 2.90289 2.24094 0.9
v 2.95101 2.23833 0.9
v 2.9955 2.14286 0.9
v 2.9955 2.18131 0.9
v 3.02977 2.18314 0.9
v 3.0552 2.20596 0.9
v 3.04415 2.22551 0.9
v 3.0792 2.22682 0.9
v 3.21024 2.14286 0.9
v 3.21024 2.18314 0.9
v 2.82212 1.90145 1.1
v 2.82212 1.90915 1.1
v 2.82677 2.13763 1.1
v 2.87941 2.1443 1.1
v 2.82259 2.15933 1.1
v 2.85829 2.16404 1.1
v 2.88327 2.17817 1.1
v 2.91858 2.16431 1.1
v 2.94291 2.19615 1.1
v 2.89798 2.20328 1.1
v 2.90289 2.24094 1.1
v 2.95101 2.23833 1.1
v 2.9955 2.14286 1.1
v 2.9955 2.18131 1.1
v 3.02977 2.18314 1.1
v 3.0552 2.20596 1.1
v 3.04415 2.22551 1.1
v 3.0792 2.22682 1.1
v 3.21024 2.14286 1.1
v 3.21024 2.18314 1.1
v 2.36875 2.31418 0.9
v 2.38019 2.39366 0.9
v 2.42342 2.3147 0.9
v 2.43114 2.38676 0.9
v 2.45428 2.43711 0.9
v 2.28295 2.47295 0.9
v 2.32794 2.47975 0.9
v 2.32794 2.49361 0.9
v 2.41452 2.45111 0.9
v 2.49424 2.46674 0.9
v 2.47135 2.48593 0.9
v 2.65202 2.40756 0.9
v 2.66929 2.40756 0.9
v 2.79146 2.31523 0.9
v 2.79146 2.33667 0.9
v 2.74046 2.4188 0.9
v 2.75772 2.4188 0.9
v 2.55237 2.47661 0.9
v 2.57725 2.47507 0.9
v 2.55028 2.49754 0.9
v 2.60167 2.47046 0.9
v 2.6244 2.46304 0.9
v 2.64418 2.45307 0.9
v 2.66772 2.4842 0.9
v 2.60697 2.4942 0.9
v 2.74046 2.48629 0.9
v 2.76687 2.4617 0.9
v 2.7793 2.46736 0.9
v 2.79355 2.47177 0.9
v 2.8084 2.47462 0.9
v 2.76458 2.49194 0.9
v 2.78518 2.49531 0.9
v 2.80395 2.49698 0.9
v 2.36875 2.31418 1.1
v 2.38019 2.39366 1.1
v 2.42342 2.3147 1.1
v 2.43114 2.38676 1.1
v 2.45428 2.43711 1.1
v 2.28295 2.47295 1.1
v 2.32794 2.47975 1.1
v 2.32794 2.49361 1.1
v 2.41452 2.45111 1.1
v 2.49424 2.46674 1.1
v 2.47135 2.48593 1.1
v 2.65202 2.40756 1.1
v 2.66929 2.40756 1.1
v 2.79146 2.31523 1.1
v 2.79146 2.33667 1.1
v 2.74046 2.4188 1.1
v 2.75772 2.4188 1.1
v 2.55237 2.47661 1.1
v 2.57725 2.47507 1.1
v 2.55028 2.49754 1.1
v 2.60167 2.47046 1.1
v 2.6244 2.46304 1.1
v 2.64418 2.45307 1.1
v 2.66772 2.4842 1.1
v 2.60697 2.4942 1.1
v 2.74046 2.48629 1.1
v 2.76687 2.4617 1.1
v 2.7793 2.46736 1.1
v 2.79355 2.47177 1.1
v 2.8084 2.47462 1.1
v 2.76458 2.49194 1.1
v 2.78518 2.49531 1.1
v 2.80395 2.49698 1.1
v 2.82887 2.31313 0.9
v 2.82887 2.33903 0.9
v 2.86182 2.30728 0.9
v 2.85842 2.32647 0.9
v 2.89838 2.27132 0.9
v 2.88484 2.29339 0.9
v 2.94539 2.27302 0.9
v 2.89975 2.31689 0.9
v 2.89089 2.33579 0.9
v 2.92852 2.29914 0.9
v 2.85456 2.34439 0.9
v 2.87254 2.35734 0.9
v 2.91505 2.35328 0.9
v 2.88314 2.37839 0.9
v 2.93005 2.37856 0.9
v 2.88667 2.40808 0.9
v 2.93506 2.41122 0.9
v 3.08476 2.26265 0.9
v 3.00727 2.4188 0.9
v 3.02453 2.4188 0.9
v 2.82259 2.47557 0.9
v 2.87137 2.45948 0.9
v 2.85152 2.47154 0.9
v 2.82259 2.49754 0.9
v 2.88284 2.43859 0.9
v 2.90694 2.47596 0.9
v 3.00727 2.48629 0.9
v 3.03369 2.4617 0.9
v 3.04579 2.46736 0.9
v 3.05958 2.47177 0.9
v 3.07403 2.47462 0.9
v 3.08809 2.47557 0.9
v 3.05128 2.49473 0.9
v 3.08809 2.49754 0.9
v 3.12589 2.26798 0.9
v 3.11294 2.29195 0.9
v 3.13181 2.31771 0.9
v 3.15714 2.29888 0.9
v 3.17764 2.32471 0.9
v 3.14446 2.34426 0.9
v 3.15162 2.37316 0.9
v 3.15401 2.40599 0.9
v 3.15015 2.43594 0.9
v 3.19206 2.35067 0.9
v 3.2006 2.37751 0.9
v 3.20344 2.40599 0.9
v 3.11824 2.47112 0.9
v 3.13858 2.45778 0.9
v 3.13848 2.49155 0.9
v 3.19622 2.44473 0.9
v 3.17454 2.4736 0.9
v 2.82887 2.31313 1.1
v 2.82887 2.33903 1.1
v 2.86182 2.30728 1.1
v 2.85842 2.32647 1.1
v 2.89838 2.27132 1.1
v 2.88484 2.29339 1.1
v 2.94539 2.27302 1.1
v 2.89975 2.31689 1.1
v 2.89089 2.33579 1.1
v 2.92852 2.29914 1.1
v 2.85456 2.34439 1.1
v 2.87254 2.35734 1.1
v 2.91505 2.35328 1.1
v 2.88314 2.37839 1.1
v 2.93005 2.37856 1.1
v 2.88667 2.40808 1.1
v 2.93506 2.41122 1.1
v 3.08476 2.26265 1.1
v 3.00727 2.4188 1.1
v 3.02453 2.4188 1.1
v 2.82259 2.47557 1.1
v 2.87137 2.45948 1.1
v 2.85152 2.47154 1.1
v 2.82259 2.49754 1.1
v 2.88284 2.43859 1.1
v 2.90694 2.47596 1.1
v 3.00727 2.48629 1.1
v 3.03369 2.4617 1.1
v 3.04579 2.46736 1.1
v 3.05958 2.47177 1.1
v 3.07403 2.47462 1.1
v 3.08809 2.47557 1.1
v 3.05128 2.49473 1.1
v 3.08809 2.49754 1.1
v 3.12589 2.26798 1.1
v 3.11294 2.29195 1.1
v 3.13181 2.31771 1.1
v 3.15714 2.29888 1.1
v 3.17764 2.32471 1.1
v 3.14446 2.34426 1.1
v 3.15162 2.37316 1.1
v 3.15401 2.40599 1.1
v 3.15015 2.43594 1.1
v 3.19206 2.35067 1.1
v 3.2006 2.37751 1.1
v 3.20344 2.40599 1.1
v 3.11824 2.47112 1.1
v 3.13858 2.45778 1.1
v 3.13848 2.49155 1.1
v 3.19622 2.44473 1.1
v 3.17454 2.4736 1.1
v 4.5 3 0.9
f  2 4 12
f  2 3 4
f  2 8 3
f  2 51 8
f  2 12 13
f  2 13 228
f  1 2 388
f  2 240 147
f  2 147 244
f  2 450 419
f  2 421 423
f  2 419 421
f  1 1095 2
f  5 6 4
f  14 12 4
f  14 4 6
f  8 57 9
f  52 8 51
f  53 8 52
f  7 9 26
f  7 26 10
f  26 9 57
f  15 11 16
f  16 19 17
f  11 20 16
f  10 26 21
f  19 16 18
f  20 18 16
f  21 26 22
f  22 25 24
f  25 22 23
f  26 23 22
f  17 150 13
f  17 19 150
f  2 1095 51
f  53 57 8
f  54 56 74
f  54 74 58
f  55 60 56
f  56 60 74
f  59 64 63
f  64 67 65
f  59 68 64
f  58 70 69
f  67 64 66
f  68 66 64
f  24 150 19
f  24 25 150
f  65 67 149
f  65 150 25
f  58 71 70
f  58 74 71
f  70 73 72
f  73 70 71
f  62 76 75
f  62 85 76
f  76 85 77
f  72 149 67
f  72 73 149
f  77 149 73
f  80 61 78
f  95 79 82
f  79 91 90
f  79 95 92
f  79 92 91
f  81 87 86
f  81 89 87
f  88 86 87
f  77 85 153
f  86 153 85
f  86 88 156
f  93 156 88
f  91 94 93
f  94 91 92
f  84 97 96
f  84 712 97
f  97 712 98
f  93 94 163
f  98 163 94
f  2 224 223
f  2 223 240
f  2 226 224
f  2 228 226
f  2 244 247
f  2 247 447
f  2 449 450
f  2 447 449
f  13 150 171
f  65 149 150
f  149 77 153
f  151 171 150
f  13 171 234
f  13 233 228
f  13 234 233
f  86 156 153
f  93 161 156
f  152 154 157
f  153 157 154
f  152 157 155
f  157 153 156
f  155 157 158
f  155 158 160
f  93 163 161
f  163 98 167
f  98 846 167
f  164 161 163
f  161 164 162
f  162 181 159
f  181 162 164
f  165 181 164
f  167 846 168
f  177 168 846
f  166 168 174
f  174 168 177
f  169 170 172
f  159 179 173
f  180 173 179
f  159 181 179
f  185 175 176
f  178 864 865
f  176 178 869
f  183 182 175
f  185 183 175
f  176 869 870
f  176 870 185
f  234 171 238
f  233 234 235
f  233 235 236
f  241 263 243
f  225 263 242
f  227 263 225
f  229 264 227
f  230 264 229
f  242 263 241
f  227 264 263
f  243 263 245
f  245 263 246
f  246 263 249
f  249 263 250
f  250 263 252
f  252 263 254
f  254 265 253
f  231 264 230
f  232 264 231
f  233 236 269
f  232 256 264
f  257 267 256
f  233 269 257
f  237 239 258
f  258 239 261
f  261 239 282
f  260 262 259
f  262 283 259
f  283 284 259
f  256 267 264
f  265 254 263
f  269 267 257
f  264 267 266
f  268 266 267
f  288 290 259
f  271 270 259
f  272 271 259
f  290 272 259
f  171 274 238
f  274 171 278
f  171 280 278
f  238 275 239
f  275 238 274
f  173 942 171
f  280 171 281
f  173 180 942
f  171 931 281
f  931 171 933
f  278 280 279
f  239 275 282
f  282 275 285
f  285 276 286
f  284 287 259
f  286 276 289
f  276 285 275
f  279 295 277
f  276 293 289
f  287 288 259
f  289 292 291
f  294 291 292
f  292 289 293
f  295 279 280
f  948 281 945
f  281 948 950
f  281 950 301
f  297 298 296
f  299 296 298
f  297 300 298
f  301 950 302
f  1 388 385
f  1 385 1096
f  385 388 1096
f  2 386 389
f  2 389 390
f  2 397 386
f  2 398 397
f  2 390 388
f  2 423 398
f  388 390 391
f  388 391 392
f  388 392 409
f  388 409 410
f  398 423 399
f  399 423 400
f  400 423 405
f  405 424 406
f  406 424 408
f  633 408 631
f  408 635 407
f  545 422 421
f  545 427 422
f  421 419 460
f  421 460 545
f  545 428 427
f  548 428 545
f  422 427 426
f  634 426 427
f  428 548 430
f  431 428 430
f  430 548 564
f  428 431 636
f  248 447 247
f  251 447 248
f  255 447 251
f  266 447 255
f  447 266 268
f  447 268 453
f  453 268 456
f  273 463 268
f  463 273 291
f  462 456 268
f  462 268 463
f  448 466 452
f  452 466 451
f  454 466 448
f  455 466 454
f  457 466 455
f  451 466 458
f  458 466 459
f  459 466 467
f  467 546 459
f  467 547 546
f  547 467 549
f  549 467 553
f  553 467 551
f  462 463 464
f  462 464 468
f  461 466 457
f  465 466 461
f  469 471 474
f  474 471 477
f  477 471 483
f  462 559 467
f  559 462 468
f  555 467 472
f  551 467 555
f  467 473 472
f  467 557 473
f  559 557 467
f  476 478 475
f  478 484 475
f  484 487 475
f  561 560 475
f  562 561 475
f  489 569 475
f  569 562 475
f  463 291 294
f  463 294 296
f  463 296 299
f  463 299 303
f  954 470 463
f  954 471 470
f  954 463 303
f  958 471 954
f  958 479 471
f  972 491 479
f  480 471 479
f  471 480 485
f  483 471 485
f  481 485 480
f  492 574 482
f  485 481 486
f  487 488 475
f  488 489 475
f  486 571 490
f  486 481 571
f  491 493 492
f  574 492 493
f  1106 494 1097
f  495 576 575
f  494 1106 1108
f  494 1108 580
f  495 578 576
f  494 580 579
f  551 555 552
f  550 564 548
f  554 564 550
f  556 564 554
f  564 556 558
f  473 557 556
f  558 556 557
f  564 558 563
f  570 566 563
f  564 563 565
f  433 565 567
f  565 563 566
f  565 566 567
f  490 572 570
f  573 570 572
f  572 490 571
f  570 573 566
f  575 582 573
f  575 577 582
f  577 575 576
f  581 582 577
f  1202 582 581
f  582 1209 585
f  566 573 582
f  582 586 584
f  583 584 652
f  652 584 653
f  584 586 656
f  653 584 656
f  586 582 585
f  424 405 423
f  426 634 425
f  424 632 631
f  424 631 408
f  408 633 635
f  407 635 638
f  648 407 638
f  429 638 635
f  432 636 431
f  407 648 650
f  433 647 637
f  433 651 647
f  433 567 651
f  568 651 567
f  647 650 648
f  647 649 650
f  647 651 649
f  655 657 654
f  657 658 654
f  658 659 654
f  666 665 654
f  668 666 654
f  669 668 654
f  659 660 654
f  660 661 654
f  661 669 654
f  656 586 662
f  672 662 586
f  587 672 586
f  662 672 663
f  663 672 664
f  670 673 667
f  664 671 670
f  673 670 671
f  671 664 672
f  388 410 1519
f  1519 410 411
f  1519 411 407
f  1 701 1095
f  1 1096 701
f  701 1096 1095
f  1095 55 51
f  1095 60 55
f  1095 61 60
f  704 83 702
f  703 718 717
f  707 703 706
f  710 725 711
f  703 707 722
f  708 722 707
f  703 720 718
f  703 722 720
f  711 723 709
f  723 711 725
f  705 714 713
f  705 716 714
f  715 713 714
f  98 712 846
f  713 846 712
f  713 715 850
f  719 850 715
f  718 721 719
f  721 718 720
f  719 721 854
f  724 857 721
f  859 724 737
f  728 726 727
f  726 728 745
f  730 745 728
f  726 740 739
f  726 742 740
f  726 745 742
f  732 734 733
f  733 744 731
f  744 733 734
f  729 736 724
f  729 738 736
f  737 724 736
f  740 743 741
f  743 740 742
f  741 883 737
f  741 743 883
f  746 883 743
f  735 747 746
f  735 749 747
f  748 746 747
f  746 748 884
f  810 884 748
f  1095 78 61
f  1095 79 78
f  1095 82 79
f  1095 83 82
f  1095 702 83
f  1095 703 702
f  1095 706 703
f  1095 710 706
f  1095 725 710
f  1095 726 725
f  1095 727 726
f  1095 732 727
f  1095 734 732
f  800 798 799
f  798 800 814
f  801 814 800
f  798 809 808
f  798 811 809
f  798 814 811
f  804 813 802
f  813 804 805
f  803 805 804
f  806 820 819
f  809 812 810
f  812 809 811
f  807 816 815
f  807 818 816
f  817 815 816
f  846 713 848
f  713 850 848
f  719 854 850
f  862 847 863
f  848 851 849
f  851 848 850
f  849 878 847
f  878 849 851
f  852 878 851
f  855 873 853
f  721 856 854
f  856 721 857
f  724 859 857
f  854 856 855
f  873 855 856
f  860 857 859
f  857 860 879
f  861 879 860
f  178 865 868
f  847 878 863
f  868 869 178
f  863 878 866
f  866 878 867
f  867 876 871
f  871 876 872
f  876 867 878
f  872 877 875
f  872 876 877
f  875 940 874
f  858 881 880
f  859 737 883
f  746 884 883
f  885 884 810
f  884 885 882
f  885 810 812
f  885 812 815
f  885 817 886
f  886 817 887
f  184 942 180
f  874 940 184
f  933 171 936
f  936 171 941
f  171 942 941
f  875 877 940
f  942 184 940
f  945 281 930
f  930 281 931
f  934 959 932
f  935 959 934
f  880 940 877
f  880 881 940
f  940 881 978
f  937 959 935
f  932 959 946
f  947 946 959
f  961 949 947
f  961 951 949
f  953 302 950
f  302 953 303
f  954 303 953
f  952 965 955
f  961 952 951
f  955 965 956
f  956 965 957
f  938 959 937
f  939 959 938
f  961 947 959
f  961 941 942
f  961 960 941
f  961 959 960
f  961 942 943
f  962 944 979
f  964 989 963
f  952 961 965
f  969 968 965
f  965 961 966
f  961 972 966
f  957 965 968
f  968 969 967
f  966 972 971
f  961 974 972
f  976 975 963
f  997 976 963
f  887 978 881
f  978 887 979
f  984 986 985
f  962 980 988
f  981 988 980
f  981 990 988
f  990 981 992
f  989 991 963
f  991 993 963
f  993 995 963
f  982 992 981
f  992 982 994
f  985 1004 983
f  994 982 1003
f  996 998 963
f  995 996 963
f  998 997 963
f  994 1003 1000
f  1000 1001 999
f  1001 1000 1003
f  1004 985 986
f  1005 1007 1006
f  1008 1006 1007
f  1005 1009 1007
f  987 1091 1010
f  885 815 817
f  821 887 817
f  1095 979 887
f  1095 962 979
f  1095 980 962
f  1095 984 980
f  1095 986 984
f  1095 987 986
f  1095 1091 987
f  1095 1145 1092
f  1095 1311 1145
f  1095 798 734
f  1095 799 798
f  1095 803 799
f  1095 805 803
f  1095 806 805
f  1095 820 806
f  1095 887 821
f  1095 821 820
f  1095 1092 1091
f  1095 1312 1311
f  1095 1329 1312
f  1095 1330 1329
f  970 479 958
f  971 479 970
f  971 972 479
f  973 494 972
f  972 493 491
f  972 494 493
f  973 1101 494
f  973 1103 1101
f  977 1103 973
f  999 1103 977
f  999 1001 1103
f  1002 1110 1103
f  1002 1113 1110
f  1002 1114 1113
f  1098 494 1101
f  1097 494 1098
f  1102 1121 1099
f  1104 1121 1102
f  1105 1122 1104
f  1099 1121 1100
f  1100 1121 1107
f  1107 1121 1109
f  1109 1121 1198
f  1115 1113 1114
f  1113 1115 1119
f  1111 1122 1105
f  1112 1122 1111
f  1116 1122 1112
f  1120 1127 1123
f  1123 1127 1132
f  1116 1117 1122
f  1104 1122 1121
f  1113 1211 1118
f  1118 1209 1117
f  1117 1209 1122
f  1211 1209 1118
f  1113 1119 1211
f  1125 1134 1124
f  1213 1212 1124
f  1224 1213 1124
f  1002 1103 1001
f  1006 1126 1002
f  1006 1008 1126
f  1002 1126 1114
f  1008 1128 1126
f  1092 1144 1008
f  1008 1142 1128
f  1008 1144 1142
f  1092 1145 1144
f  1126 1129 1127
f  1129 1126 1128
f  1132 1127 1133
f  1127 1129 1133
f  1133 1129 1136
f  1130 1136 1129
f  1143 1230 1131
f  1134 1135 1124
f  1135 1138 1124
f  1138 1139 1124
f  1139 1140 1124
f  1225 1224 1124
f  1140 1225 1124
f  1136 1130 1137
f  1137 1130 1141
f  1130 1229 1141
f  1142 1144 1143
f  1230 1143 1144
f  1146 1232 1231
f  1146 1234 1232
f  1145 1311 1235
f  1197 580 1108
f  580 1197 581
f  1199 581 1197
f  1202 581 1199
f  1198 1121 1200
f  1200 1121 1201
f  1201 1121 1203
f  1207 582 1202
f  1208 582 1207
f  582 1208 1209
f  1210 585 1209
f  1203 1121 1204
f  1204 1206 1205
f  1206 1204 1121
f  1122 1209 1208
f  585 1210 1215
f  1215 1220 1217
f  1218 1217 1220
f  1217 1351 1216
f  1217 1218 1351
f  1210 1219 1215
f  1219 1210 1236
f  1220 1215 1219
f  1141 1227 1226
f  1227 1141 1229
f  1228 1226 1227
f  1214 1245 1210
f  1226 1245 1214
f  1226 1228 1245
f  1233 1231 1232
f  1231 1245 1228
f  1245 1231 1233
f  1312 1246 1233
f  1312 1313 1246
f  1236 1210 1237
f  1237 1210 1244
f  1245 1244 1210
f  1238 1362 1223
f  1239 1363 1238
f  1240 1363 1239
f  1241 1363 1240
f  1245 1233 1246
f  1244 1245 1248
f  1244 1248 1247
f  1253 1247 1248
f  1251 1249 1250
f  1249 1252 1253
f  1249 1251 1252
f  1315 1253 1252
f  1316 1253 1315
f  1247 1253 1321
f  1313 1312 1314
f  1314 1312 1318
f  1312 1323 1318
f  1317 1253 1316
f  1320 1253 1317
f  1421 1247 1321
f  1321 1253 1320
f  1318 1324 1319
f  1323 1312 1329
f  1324 1318 1323
f  1319 1324 1327
f  1319 1327 1322
f  1434 1322 1327
f  1325 1330 1326
f  1326 1330 1328
f  1328 1330 1451
f  1451 1330 1454
f  388 1519 1096
f  1216 1351 1352
f  1216 1357 1356
f  1216 1352 1357
f  1221 1362 1222
f  1222 1362 1353
f  1353 1362 1354
f  1354 1362 1355
f  1359 1357 1352
f  1357 1359 1358
f  1361 1358 1359
f  1370 1358 1361
f  1223 1362 1221
f  1242 1363 1241
f  1242 1243 1363
f  1247 1363 1243
f  1238 1363 1362
f  1355 1362 1360
f  1247 1364 1363
f  1364 1247 1417
f  1417 1247 1419
f  1419 1247 1422
f  1363 1365 1366
f  1365 1363 1364
f  1418 1367 1365
f  1366 1365 1367
f  1360 1362 1368
f  1368 1362 1369
f  1369 1362 1371
f  1373 1371 1362
f  1371 1373 1372
f  1363 1376 1374
f  1376 1363 1366
f  1367 1378 1377
f  1378 1367 1379
f  1379 1367 1380
f  1380 1367 1437
f  1437 1367 1439
f  1519 407 650
f  1519 650 667
f  1422 1247 1421
f  1426 1425 1424
f  1420 1424 1425
f  1426 1429 1425
f  1427 1367 1418
f  1428 1367 1427
f  1430 1367 1428
f  1432 1367 1430
f  1441 1367 1432
f  1322 1434 1423
f  1423 1452 1426
f  1426 1452 1429
f  1429 1452 1431
f  1423 1434 1452
f  1453 1431 1452
f  1431 1435 1433
f  1435 1431 1436
f  1431 1457 1436
f  1456 1431 1453
f  1457 1431 1456
f  1439 1367 1438
f  1438 1367 1441
f  1433 1443 1442
f  1443 1433 1435
f  1436 1445 1444
f  1445 1436 1446
f  1446 1436 1447
f  1447 1436 1448
f  1448 1436 1463
f  1458 1436 1457
f  1459 1436 1458
f  1464 1436 1459
f  1463 1436 1464
f  1519 667 673
f  1519 673 1358
f  1519 1358 1370
f  1519 1370 1375
f  1519 1375 1374
f  1519 1374 1376
f  1519 1376 1381
f  1519 1381 1382
f  1519 1382 1383
f  1095 1096 1519
f  1095 1519 1330
f  1519 1454 1330
f  1519 1455 1454
f  1519 1460 1455
f  1519 1461 1460
f  1519 1462 1461
f  1519 1466 1462
f  1519 1383 1440
f  1519 1440 1442
f  1519 1442 1443
f  1519 1443 1449
f  1519 1449 1450
f  1519 1450 1465
f  1519 1465 1467
f  1519 1467 1466
f  27 4 3
f  28 5 4
f  29 6 5
f  30 14 6
f  32 3 8
f  31 9 7
f  33 8 9
f  34 7 10
f  35 20 11
f  27 28 4
f  27 3 32
f  28 29 5
f  27 29 28
f  27 31 29
f  27 32 31
f  29 31 30
f  29 30 6
f  39 35 11
f  31 34 30
f  30 34 35
f  39 30 35
f  31 33 9
f  31 7 34
f  32 8 33
f  31 32 33
f  34 10 45
f  34 44 35
f  36 13 12
f  38 12 14
f  37 17 13
f  39 11 15
f  40 15 16
f  41 16 17
f  45 10 21
f  42 19 18
f  44 18 20
f  43 24 19
f  46 21 22
f  48 22 24
f  47 25 23
f  50 23 26
f  49 65 25
f  36 37 13
f  38 36 12
f  38 14 30
f  37 41 17
f  39 15 40
f  40 16 41
f  38 37 36
f  38 39 37
f  38 30 39
f  37 39 41
f  39 40 41
f  35 44 20
f  42 43 19
f  42 18 44
f  45 21 46
f  43 48 24
f  46 22 48
f  47 49 25
f  50 47 23
f  34 45 44
f  42 44 43
f  43 44 45
f  43 45 48
f  45 46 48
f  50 49 47
f  50 111 49
f  99 52 51
f  100 53 52
f  101 57 53
f  103 51 55
f  102 56 54
f  104 55 56
f  105 26 57
f  106 54 58
f  107 68 59
f  109 60 61
f  108 74 60
f  99 100 52
f  99 51 103
f  100 101 53
f  102 104 56
f  102 54 106
f  103 55 104
f  99 101 100
f  99 103 101
f  101 102 105
f  101 103 102
f  102 103 104
f  101 105 57
f  107 59 111
f  106 58 117
f  105 106 107
f  105 107 111
f  105 102 106
f  106 116 107
f  108 60 109
f  109 61 128
f  108 122 74
f  110 62 123
f  108 109 122
f  109 110 122
f  111 59 63
f  112 63 64
f  113 64 65
f  117 58 69
f  114 67 66
f  116 66 68
f  115 72 67
f  118 69 70
f  120 70 72
f  119 73 71
f  122 71 74
f  121 77 73
f  123 62 75
f  124 75 76
f  125 76 77
f  50 26 105
f  49 113 65
f  111 63 112
f  112 64 113
f  107 116 68
f  114 115 67
f  114 66 116
f  50 105 111
f  49 111 113
f  111 112 113
f  106 117 116
f  114 116 115
f  115 116 117
f  115 117 120
f  117 69 118
f  115 120 72
f  118 70 120
f  119 121 73
f  122 119 71
f  121 125 77
f  123 75 124
f  124 76 125
f  117 118 120
f  122 121 119
f  122 123 121
f  110 123 122
f  121 123 125
f  123 124 125
f  127 78 79
f  128 61 80
f  126 80 78
f  110 85 62
f  129 89 81
f  138 79 90
f  131 82 83
f  130 95 82
f  126 78 127
f  128 80 126
f  127 79 138
f  134 129 81
f  109 128 110
f  110 128 133
f  128 129 133
f  128 126 129
f  126 127 138
f  126 138 129
f  130 82 131
f  131 83 752
f  143 95 130
f  132 84 144
f  143 130 131
f  143 131 132
f  134 81 86
f  133 86 85
f  135 88 87
f  137 87 89
f  136 93 88
f  139 90 91
f  141 91 93
f  140 94 92
f  143 92 95
f  142 98 94
f  144 84 96
f  145 96 97
f  146 97 98
f  110 133 85
f  133 134 86
f  129 137 89
f  135 136 88
f  135 87 137
f  133 129 134
f  129 138 137
f  135 137 136
f  136 137 138
f  136 141 93
f  138 90 139
f  139 91 141
f  140 142 94
f  143 140 92
f  142 146 98
f  144 96 145
f  145 97 146
f  136 138 141
f  138 139 141
f  143 142 140
f  143 144 142
f  143 132 144
f  142 144 146
f  144 145 146
f  148 244 147
f  321 148 147
f  148 325 244
f  186 150 149
f  187 151 150
f  190 149 153
f  189 154 152
f  192 152 155
f  188 171 151
f  186 187 150
f  187 188 151
f  186 149 190
f  189 152 192
f  186 188 187
f  186 190 188
f  188 190 189
f  188 189 192
f  188 192 206
f  191 153 154
f  197 155 160
f  193 157 156
f  194 158 157
f  195 160 158
f  198 156 161
f  196 162 159
f  199 161 162
f  200 164 163
f  201 165 164
f  202 181 165
f  204 163 167
f  203 168 166
f  205 167 168
f  211 166 174
f  189 191 154
f  190 153 191
f  192 155 197
f  193 194 157
f  193 156 198
f  194 195 158
f  195 197 160
f  196 159 210
f  189 190 191
f  192 197 206
f  206 197 207
f  193 195 194
f  195 196 197
f  193 198 195
f  195 198 196
f  196 207 197
f  196 199 162
f  198 161 199
f  200 201 164
f  200 163 204
f  201 202 165
f  203 205 168
f  204 167 205
f  203 166 211
f  888 214 177
f  196 198 199
f  200 202 201
f  200 203 202
f  202 203 211
f  202 211 212
f  200 204 203
f  203 204 205
f  888 904 214
f  206 170 169
f  207 172 170
f  209 169 172
f  210 159 173
f  208 173 171
f  212 176 175
f  214 174 177
f  213 178 176
f  215 864 178
f  219 175 182
f  216 180 179
f  218 179 181
f  217 184 180
f  220 182 183
f  222 183 185
f  221 874 184
f  912 185 870
f  206 169 209
f  206 207 170
f  188 208 171
f  207 209 172
f  188 206 208
f  206 209 208
f  207 210 209
f  196 210 207
f  208 210 173
f  209 210 208
f  202 218 181
f  211 174 214
f  212 213 176
f  212 175 219
f  213 215 178
f  215 906 864
f  202 212 218
f  212 219 218
f  211 213 212
f  211 214 213
f  214 215 213
f  214 904 215
f  904 906 215
f  216 217 180
f  216 179 218
f  219 182 220
f  217 221 184
f  220 183 222
f  912 222 185
f  221 916 874
f  216 218 217
f  217 218 221
f  218 219 221
f  219 220 221
f  220 222 221
f  912 916 222
f  221 222 916
f  305 223 224
f  323 225 242
f  307 224 226
f  306 227 225
f  308 229 227
f  309 226 228
f  310 230 229
f  311 231 230
f  314 228 233
f  312 232 231
f  315 235 234
f  316 236 235
f  319 234 238
f  318 239 237
f  320 238 239
f  304 223 305
f  305 224 307
f  323 306 225
f  306 308 227
f  307 226 309
f  308 310 229
f  310 311 230
f  311 312 231
f  304 305 323
f  305 306 323
f  305 307 306
f  306 307 308
f  307 310 308
f  307 309 310
f  310 309 311
f  309 312 311
f  309 228 314
f  312 313 232
f  314 233 338
f  315 316 235
f  316 317 236
f  315 234 319
f  319 238 320
f  320 239 318
f  309 314 312
f  312 314 313
f  315 317 316
f  315 318 317
f  315 319 318
f  319 320 318
f  304 240 223
f  322 242 241
f  321 147 240
f  324 241 243
f  326 243 245
f  325 247 244
f  327 245 246
f  328 248 247
f  330 246 249
f  329 251 248
f  331 249 250
f  333 250 252
f  335 252 254
f  334 254 253
f  332 255 251
f  336 266 255
f  313 256 232
f  338 233 257
f  337 257 256
f  317 269 236
f  339 237 258
f  342 258 261
f  340 260 259
f  341 262 260
f  344 265 263
f  345 263 264
f  346 253 265
f  347 264 266
f  348 268 267
f  350 267 269
f  351 259 270
f  349 273 268
f  352 270 271
f  353 271 272
f  304 321 240
f  324 322 241
f  323 242 322
f  324 243 326
f  304 323 322
f  304 322 321
f  321 322 324
f  321 324 148
f  148 324 325
f  325 328 247
f  326 245 327
f  327 246 330
f  328 329 248
f  330 249 331
f  331 250 333
f  329 332 251
f  333 252 335
f  335 254 334
f  332 336 255
f  324 326 325
f  325 326 328
f  328 326 327
f  328 327 329
f  327 330 329
f  330 332 329
f  330 331 332
f  331 333 332
f  333 335 336
f  335 334 336
f  332 333 336
f  313 337 256
f  337 338 257
f  318 237 339
f  340 259 351
f  339 258 342
f  340 341 260
f  342 261 363
f  341 343 262
f  313 338 337
f  313 314 338
f  317 318 339
f  317 339 340
f  317 340 350
f  339 341 340
f  339 342 341
f  342 363 343
f  342 343 341
f  344 263 345
f  344 346 265
f  345 264 347
f  334 253 346
f  336 347 266
f  348 267 350
f  348 349 268
f  317 350 269
f  349 354 273
f  351 270 352
f  352 271 353
f  344 345 346
f  346 345 347
f  336 334 347
f  334 346 347
f  348 350 349
f  350 340 351
f  350 351 354
f  349 350 354
f  351 352 354
f  352 353 354
f  355 275 274
f  356 276 275
f  359 274 278
f  358 279 277
f  360 278 279
f  362 280 281
f  355 274 359
f  355 356 275
f  356 357 276
f  358 360 279
f  355 357 356
f  355 359 357
f  357 359 358
f  358 359 360
f  359 278 360
f  361 280 362
f  363 261 282
f  343 283 262
f  366 282 285
f  364 284 283
f  367 285 286
f  365 287 284
f  368 288 287
f  369 290 288
f  370 286 289
f  372 289 291
f  371 272 290
f  354 291 273
f  374 293 276
f  376 277 295
f  373 294 292
f  374 292 293
f  375 296 294
f  361 295 280
f  378 300 297
f  377 297 296
f  379 299 298
f  382 281 301
f  381 298 300
f  380 303 299
f  383 301 302
f  384 302 303
f  363 282 366
f  343 364 283
f  364 365 284
f  366 285 367
f  367 286 370
f  357 374 276
f  358 277 376
f  343 363 364
f  363 366 364
f  364 366 365
f  365 366 367
f  357 358 376
f  365 368 287
f  369 371 290
f  369 288 368
f  372 370 289
f  353 272 371
f  354 372 291
f  373 292 374
f  373 375 294
f  375 377 296
f  365 367 368
f  369 368 370
f  368 367 370
f  369 370 372
f  353 371 372
f  353 372 354
f  369 372 371
f  357 376 374
f  373 374 375
f  375 374 377
f  374 376 377
f  376 295 361
f  377 378 297
f  362 281 382
f  376 361 362
f  376 362 378
f  362 382 378
f  379 380 299
f  378 381 300
f  379 298 381
f  382 301 383
f  383 302 384
f  380 384 303
f  376 378 377
f  378 382 381
f  379 381 380
f  380 381 382
f  380 382 384
f  382 383 384
f  401 386 397
f  387 389 386
f  401 387 386
f  387 393 389
f  393 390 389
f  394 391 390
f  395 392 391
f  393 394 390
f  394 395 391
f  395 396 392
f  394 396 395
f  394 416 396
f  394 417 416
f  396 409 392
f  396 416 409
f  402 397 398
f  403 398 399
f  404 399 400
f  412 400 405
f  401 397 402
f  402 398 403
f  401 413 387
f  402 403 404
f  401 402 413
f  403 399 404
f  404 400 412
f  402 404 412
f  402 412 413
f  413 405 406
f  414 408 407
f  415 406 408
f  393 413 394
f  387 413 393
f  394 413 415
f  394 418 417
f  394 415 414
f  394 414 418
f  412 405 413
f  413 406 415
f  415 408 414
f  416 410 409
f  417 411 410
f  418 407 411
f  416 417 410
f  417 418 411
f  418 414 407
f  420 460 419
f  499 420 419
f  420 509 460
f  434 423 421
f  435 421 422
f  439 422 426
f  436 424 423
f  438 426 425
f  434 436 423
f  434 421 435
f  435 422 439
f  434 437 436
f  434 435 437
f  438 435 439
f  436 437 424
f  438 439 426
f  437 435 438
f  441 427 428
f  440 634 427
f  443 431 430
f  607 430 564
f  444 432 431
f  440 427 441
f  441 428 644
f  440 441 642
f  443 444 431
f  443 430 607
f  443 445 444
f  443 607 445
f  444 445 432
f  445 607 446
f  496 449 447
f  498 450 449
f  500 452 451
f  501 448 452
f  502 447 453
f  497 454 448
f  503 455 454
f  505 453 456
f  504 457 455
f  506 461 457
f  499 419 450
f  507 451 458
f  508 458 459
f  509 545 460
f  589 459 546
f  511 456 462
f  510 465 461
f  512 464 463
f  513 468 464
f  514 466 465
f  516 462 467
f  515 467 466
f  519 463 470
f  518 471 469
f  520 470 471
f  523 469 474
f  521 555 472
f  522 472 473
f  517 559 468
f  526 474 477
f  524 476 475
f  525 478 476
f  603 475 560
f  498 449 496
f  496 447 502
f  501 497 448
f  498 499 450
f  501 452 500
f  497 503 454
f  502 453 505
f  503 504 455
f  504 506 457
f  506 510 461
f  498 496 501
f  501 496 497
f  498 501 500
f  498 500 499
f  496 502 497
f  497 502 503
f  502 504 503
f  502 505 504
f  504 505 506
f  505 510 506
f  500 451 507
f  507 458 508
f  509 588 545
f  508 459 589
f  499 507 420
f  499 500 507
f  420 507 509
f  507 508 509
f  509 508 588
f  508 589 588
f  505 456 511
f  512 513 464
f  513 517 468
f  510 514 465
f  514 515 466
f  511 462 516
f  515 516 467
f  512 463 519
f  519 470 520
f  518 520 471
f  518 469 523
f  505 511 510
f  510 511 514
f  512 517 513
f  514 516 515
f  514 511 516
f  512 518 517
f  512 519 518
f  518 519 520
f  517 518 523
f  517 523 524
f  521 472 522
f  523 474 526
f  524 525 476
f  526 477 532
f  525 527 478
f  517 602 559
f  524 475 603
f  521 522 598
f  517 524 602
f  523 525 524
f  523 526 525
f  525 526 527
f  526 532 527
f  602 524 603
f  528 480 479
f  529 481 480
f  540 479 491
f  531 492 482
f  532 477 483
f  534 483 485
f  527 484 478
f  533 487 484
f  535 485 486
f  536 488 487
f  537 489 488
f  539 486 490
f  614 571 481
f  617 482 574
f  541 491 492
f  542 574 493
f  543 493 494
f  618 495 575
f  544 578 495
f  622 494 579
f  528 529 480
f  528 479 540
f  529 530 481
f  531 541 492
f  531 482 617
f  528 530 529
f  528 540 530
f  530 540 531
f  531 540 541
f  530 531 617
f  532 483 534
f  527 533 484
f  533 536 487
f  534 485 535
f  536 537 488
f  537 538 489
f  535 486 539
f  613 539 490
f  530 614 481
f  527 532 533
f  532 534 533
f  533 534 536
f  534 535 536
f  536 535 537
f  537 539 538
f  537 535 539
f  538 539 613
f  530 617 614
f  540 491 541
f  542 493 543
f  543 494 622
f  617 542 543
f  618 544 495
f  617 574 542
f  544 621 578
f  617 543 544
f  617 544 618
f  543 622 544
f  544 622 621
f  588 548 545
f  590 546 547
f  591 550 548
f  592 547 549
f  594 553 551
f  595 551 552
f  596 549 553
f  593 554 550
f  597 556 554
f  598 552 555
f  599 473 556
f  600 558 557
f  602 557 559
f  601 563 558
f  604 560 561
f  605 561 562
f  589 546 590
f  588 591 548
f  590 547 592
f  591 593 550
f  592 549 596
f  596 553 594
f  594 551 595
f  593 597 554
f  588 589 591
f  589 590 591
f  590 593 591
f  590 592 593
f  592 596 593
f  596 597 593
f  596 594 597
f  594 595 597
f  521 598 555
f  595 552 598
f  522 473 599
f  597 599 556
f  600 601 558
f  600 557 602
f  601 606 563
f  603 560 604
f  604 561 605
f  598 522 599
f  595 598 599
f  595 599 597
f  600 602 601
f  601 602 606
f  602 603 606
f  603 604 606
f  604 605 606
f  608 564 565
f  446 565 433
f  609 567 566
f  610 568 567
f  607 564 608
f  446 607 608
f  446 608 565
f  609 610 567
f  609 566 625
f  609 611 610
f  610 611 568
f  609 626 611
f  611 626 679
f  611 679 681
f  612 562 569
f  538 569 489
f  606 570 563
f  613 490 570
f  615 573 572
f  614 572 571
f  616 575 573
f  619 577 576
f  621 576 578
f  620 581 577
f  623 579 580
f  624 580 581
f  538 612 569
f  605 562 612
f  606 613 570
f  615 616 573
f  615 572 614
f  616 618 575
f  605 612 613
f  538 613 612
f  605 613 606
f  615 614 616
f  616 614 618
f  614 617 618
f  619 620 577
f  619 576 621
f  620 624 581
f  622 579 623
f  623 580 624
f  619 621 620
f  620 621 622
f  620 622 624
f  622 623 624
f  625 566 582
f  627 582 584
f  626 584 583
f  679 583 652
f  628 586 585
f  629 587 586
f  625 582 627
f  609 625 626
f  626 625 627
f  626 583 679
f  626 627 584
f  628 629 586
f  628 585 1272
f  628 630 629
f  628 1272 630
f  629 630 587
f  640 632 424
f  642 425 634
f  437 640 424
f  438 425 642
f  437 438 642
f  440 642 634
f  437 642 640
f  639 633 631
f  640 631 632
f  641 635 633
f  639 631 640
f  639 641 633
f  641 643 635
f  639 640 641
f  641 640 643
f  640 642 643
f  442 638 429
f  643 429 635
f  445 636 432
f  644 428 636
f  645 433 637
f  442 429 643
f  441 442 642
f  441 644 442
f  442 643 642
f  446 433 645
f  445 446 644
f  442 646 638
f  445 644 636
f  442 644 646
f  446 646 644
f  446 645 646
f  646 648 638
f  646 675 648
f  646 645 675
f  611 651 568
f  611 681 678
f  611 678 651
f  681 692 678
f  674 637 647
f  675 647 648
f  676 650 649
f  678 649 651
f  677 667 650
f  645 637 674
f  674 647 675
f  645 674 675
f  676 677 650
f  676 649 678
f  676 678 677
f  677 678 694
f  680 652 653
f  681 655 654
f  682 657 655
f  683 653 656
f  684 658 657
f  689 656 662
f  685 659 658
f  692 654 665
f  686 660 659
f  687 661 660
f  688 669 661
f  690 662 663
f  630 672 587
f  691 663 664
f  679 652 680
f  680 653 683
f  681 682 655
f  682 684 657
f  683 656 689
f  684 685 658
f  685 686 659
f  679 682 681
f  679 680 682
f  682 680 684
f  680 683 684
f  684 683 685
f  683 689 685
f  685 689 686
f  681 654 692
f  686 687 660
f  687 688 661
f  686 690 687
f  689 662 690
f  686 689 690
f  630 1273 699
f  690 663 691
f  691 664 697
f  630 699 672
f  687 690 691
f  687 691 688
f  691 697 688
f  693 665 666
f  695 666 668
f  696 668 669
f  694 670 667
f  697 664 670
f  698 673 671
f  699 671 672
f  700 1358 673
f  692 665 693
f  693 666 695
f  677 694 667
f  695 668 696
f  688 696 669
f  694 697 670
f  692 694 678
f  692 693 694
f  693 695 694
f  695 697 694
f  688 697 696
f  695 696 697
f  698 671 699
f  698 700 673
f  698 699 700
f  700 699 1389
f  751 702 703
f  752 83 704
f  750 704 702
f  132 712 84
f  753 716 705
f  765 703 717
f  754 707 706
f  755 708 707
f  758 706 710
f  757 711 709
f  759 710 711
f  756 722 708
f  771 709 723
f  750 702 751
f  750 752 704
f  751 703 765
f  753 705 761
f  131 752 132
f  132 752 760
f  753 760 752
f  750 753 752
f  750 751 765
f  750 765 753
f  754 755 707
f  754 706 758
f  755 756 708
f  757 759 711
f  758 710 759
f  754 756 755
f  754 758 756
f  756 758 757
f  757 758 759
f  756 770 722
f  757 709 771
f  771 723 773
f  756 757 771
f  756 771 770
f  761 705 713
f  760 713 712
f  762 715 714
f  764 714 716
f  763 719 715
f  766 717 718
f  767 718 719
f  768 721 720
f  770 720 722
f  769 724 721
f  772 729 724
f  132 760 712
f  760 761 713
f  753 764 716
f  762 763 715
f  764 762 714
f  753 761 760
f  753 765 764
f  764 763 762
f  764 765 763
f  763 767 719
f  765 717 766
f  766 718 767
f  768 769 721
f  768 720 770
f  769 772 724
f  763 765 767
f  765 766 767
f  768 770 769
f  769 770 772
f  771 777 772
f  770 771 772
f  774 725 726
f  775 728 727
f  776 730 728
f  773 723 725
f  777 738 729
f  787 726 739
f  780 727 732
f  779 733 731
f  781 732 733
f  778 745 730
f  792 731 744
f  782 744 734
f  783 749 735
f  773 725 774
f  775 776 728
f  775 727 780
f  776 778 730
f  775 778 776
f  772 777 729
f  774 726 787
f  771 773 774
f  771 774 777
f  774 787 777
f  779 781 733
f  780 732 781
f  782 734 822
f  775 780 778
f  778 780 779
f  779 780 781
f  779 731 792
f  778 793 745
f  792 744 782
f  783 735 794
f  778 779 792
f  778 792 793
f  792 782 822
f  792 822 783
f  784 737 736
f  786 736 738
f  785 741 737
f  788 739 740
f  789 740 741
f  790 743 742
f  793 742 745
f  791 746 743
f  794 735 746
f  795 748 747
f  797 747 749
f  796 810 748
f  777 786 738
f  784 785 737
f  784 736 786
f  787 739 788
f  785 789 741
f  788 740 789
f  790 791 743
f  790 742 793
f  777 787 786
f  784 786 785
f  785 786 787
f  785 787 789
f  787 788 789
f  790 793 791
f  791 794 746
f  783 797 749
f  795 796 748
f  795 747 797
f  792 783 794
f  791 793 794
f  793 792 794
f  783 832 797
f  795 797 796
f  796 797 832
f  822 734 798
f  823 800 799
f  824 801 800
f  827 799 803
f  826 804 802
f  828 803 804
f  832 798 808
f  825 814 801
f  837 802 813
f  830 805 806
f  829 813 805
f  831 818 807
f  843 806 819
f  823 824 800
f  824 825 801
f  823 799 827
f  827 803 828
f  826 828 804
f  823 825 824
f  823 827 825
f  825 827 826
f  826 827 828
f  822 798 832
f  826 802 837
f  825 838 814
f  829 837 813
f  822 832 783
f  825 826 837
f  825 837 838
f  829 805 830
f  831 807 839
f  830 806 843
f  829 830 837
f  830 831 837
f  830 843 831
f  833 808 809
f  834 809 810
f  835 812 811
f  838 811 814
f  836 815 812
f  839 807 815
f  840 817 816
f  842 816 818
f  841 821 817
f  844 819 820
f  845 820 821
f  832 808 833
f  796 834 810
f  833 809 834
f  835 836 812
f  835 811 838
f  836 839 815
f  796 832 834
f  832 833 834
f  835 838 836
f  831 839 837
f  836 838 839
f  838 837 839
f  831 842 818
f  840 841 817
f  840 816 842
f  841 845 821
f  843 819 844
f  844 820 845
f  840 842 841
f  841 842 843
f  831 843 842
f  841 843 845
f  843 844 845
f  888 177 846
f  890 846 848
f  889 849 847
f  904 847 862
f  891 848 849
f  892 851 850
f  893 852 851
f  896 850 854
f  895 855 853
f  894 878 852
f  897 854 855
f  899 856 857
f  898 873 856
f  901 860 859
f  902 861 860
f  903 879 861
f  888 846 890
f  889 891 849
f  889 847 904
f  890 848 891
f  892 893 851
f  892 850 896
f  893 894 852
f  895 853 915
f  888 890 889
f  889 890 891
f  888 889 904
f  892 894 893
f  892 896 894
f  894 896 895
f  894 895 915
f  896 854 897
f  895 897 855
f  898 856 899
f  901 902 860
f  901 859 925
f  902 903 861
f  899 857 921
f  895 896 897
f  898 899 915
f  899 900 915
f  901 903 902
f  899 921 900
f  905 862 863
f  906 865 864
f  908 863 866
f  909 866 867
f  907 868 865
f  910 869 868
f  911 870 869
f  913 867 871
f  914 871 872
f  915 853 873
f  916 875 874
f  917 872 875
f  918 877 876
f  920 876 878
f  919 880 877
f  922 858 880
f  900 881 858
f  921 857 879
f  904 862 905
f  905 863 908
f  906 907 865
f  908 866 909
f  907 910 868
f  910 911 869
f  911 912 870
f  914 872 917
f  909 867 913
f  913 871 914
f  894 920 878
f  904 905 906
f  905 907 906
f  905 908 907
f  907 908 909
f  907 909 910
f  910 909 913
f  910 913 911
f  911 917 912
f  911 913 914
f  911 914 917
f  894 915 920
f  916 917 875
f  918 919 877
f  918 876 920
f  919 922 880
f  912 917 916
f  918 920 919
f  919 920 922
f  915 922 920
f  898 915 873
f  900 858 922
f  903 921 879
f  900 923 881
f  915 900 922
f  900 921 923
f  925 859 883
f  924 884 882
f  926 883 884
f  924 882 885
f  924 926 884
f  925 883 926
f  901 925 903
f  903 925 924
f  924 925 926
f  903 924 921
f  923 887 881
f  928 885 886
f  929 886 887
f  924 885 927
f  923 921 924
f  923 924 927
f  927 885 928
f  923 929 887
f  928 886 929
f  923 927 929
f  927 928 929
f  1012 930 931
f  1027 932 946
f  1014 931 933
f  1013 934 932
f  1017 933 936
f  1015 935 934
f  1016 937 935
f  1018 938 937
f  1022 936 941
f  1019 939 938
f  1021 942 940
f  1023 943 942
f  1058 940 978
f  1025 979 944
f  1011 930 1012
f  1012 931 1014
f  1027 1013 932
f  1013 1015 934
f  1014 933 1017
f  1015 1016 935
f  1016 1018 937
f  1011 1012 1027
f  1027 1012 1013
f  1012 1014 1013
f  1013 1014 1015
f  1014 1017 1016
f  1014 1016 1015
f  1016 1017 1018
f  1017 936 1022
f  1018 1019 938
f  1019 1020 939
f  1022 941 1041
f  1021 1023 942
f  1021 940 1058
f  1023 1024 943
f  1025 1059 979
f  1017 1019 1018
f  1017 1022 1019
f  1022 1020 1019
f  1021 1024 1023
f  1021 1025 1024
f  1021 1058 1025
f  1025 1058 1059
f  1011 945 930
f  1026 948 945
f  1027 946 947
f  1029 950 948
f  1030 947 949
f  1031 953 950
f  1032 949 951
f  1033 951 952
f  1034 954 953
f  1036 952 955
f  1037 955 956
f  1035 958 954
f  1038 956 957
f  1048 957 968
f  1039 970 958
f  1020 959 939
f  1040 960 959
f  1041 941 960
f  1024 961 943
f  1025 944 962
f  1068 962 988
f  1043 964 963
f  1045 969 965
f  1046 965 966
f  1047 968 967
f  1049 967 969
f  1050 971 970
f  1051 966 971
f  1052 973 972
f  1054 974 961
f  1055 963 975
f  1054 972 974
f  1053 977 973
f  1056 975 976
f  1011 1026 945
f  1027 947 1028
f  1028 947 1030
f  1026 1029 948
f  1030 949 1032
f  1011 1028 1026
f  1011 1027 1028
f  1026 1028 1030
f  1026 1030 1029
f  1029 1030 1031
f  1029 1031 950
f  1031 1034 953
f  1032 951 1033
f  1033 952 1036
f  1034 1035 954
f  1036 955 1037
f  1035 1039 958
f  1037 956 1038
f  1038 957 1048
f  1039 1050 970
f  1031 1032 1034
f  1031 1030 1032
f  1032 1033 1034
f  1034 1033 1035
f  1033 1036 1035
f  1036 1039 1035
f  1036 1037 1039
f  1037 1038 1039
f  1038 1048 1050
f  1039 1038 1050
f  1020 1040 959
f  1040 1041 960
f  1025 962 1042
f  1024 1054 961
f  1042 962 1068
f  1043 1044 964
f  1043 963 1055
f  1020 1041 1040
f  1022 1041 1020
f  1024 1025 1042
f  1024 1042 1043
f  1024 1043 1054
f  1042 1044 1043
f  1042 1068 1044
f  1045 965 1046
f  1045 1049 969
f  1046 966 1051
f  1047 967 1049
f  1048 968 1047
f  1050 1051 971
f  1052 1053 973
f  1052 972 1054
f  1055 975 1056
f  1053 1057 977
f  1045 1046 1049
f  1048 1047 1050
f  1046 1051 1049
f  1047 1049 1051
f  1050 1047 1051
f  1043 1055 1054
f  1052 1054 1053
f  1053 1054 1057
f  1054 1055 1057
f  1055 1056 1057
f  1059 978 979
f  1060 981 980
f  1061 982 981
f  1064 980 984
f  1063 985 983
f  1065 984 985
f  1067 986 987
f  1058 978 1059
f  1060 1061 981
f  1060 980 1064
f  1061 1062 982
f  1060 1062 1061
f  1060 1064 1062
f  1062 1064 1063
f  1064 984 1065
f  1065 985 1063
f  1066 986 1067
f  1064 1065 1063
f  1044 989 964
f  1070 988 990
f  1069 991 989
f  1071 993 991
f  1072 990 992
f  1074 992 994
f  1073 995 993
f  1080 994 1000
f  1075 996 995
f  1076 998 996
f  1079 1000 999
f  1077 976 997
f  1057 999 977
f  1078 997 998
f  1083 1003 982
f  1084 983 1004
f  1081 1002 1001
f  1083 1001 1003
f  1082 1006 1002
f  1066 1004 986
f  1085 1009 1005
f  1086 1005 1006
f  1090 987 1010
f  1087 1008 1007
f  1089 1007 1009
f  1088 1092 1008
f  1068 988 1070
f  1044 1069 989
f  1069 1071 991
f  1070 990 1072
f  1071 1073 993
f  1072 992 1074
f  1074 994 1080
f  1062 1083 982
f  1063 983 1084
f  1068 1070 1069
f  1044 1068 1069
f  1070 1071 1069
f  1070 1072 1071
f  1071 1072 1073
f  1072 1074 1073
f  1062 1063 1084
f  1078 998 1076
f  1073 1075 995
f  1075 1076 996
f  1080 1000 1079
f  1056 976 1077
f  1077 997 1078
f  1057 1079 999
f  1081 1001 1083
f  1081 1082 1002
f  1082 1086 1006
f  1073 1074 1075
f  1074 1080 1075
f  1075 1080 1076
f  1076 1080 1079
f  1056 1077 1057
f  1077 1078 1079
f  1077 1079 1057
f  1078 1076 1079
f  1062 1084 1083
f  1081 1083 1082
f  1083 1084 1086
f  1082 1083 1086
f  1066 1084 1004
f  1067 987 1090
f  1086 1085 1005
f  1066 1067 1084
f  1067 1085 1084
f  1067 1090 1085
f  1085 1089 1009
f  1087 1007 1089
f  1087 1088 1008
f  1090 1010 1093
f  1088 1094 1092
f  1084 1085 1086
f  1085 1090 1089
f  1087 1089 1088
f  1088 1089 1090
f  1088 1090 1094
f  1093 1010 1091
f  1094 1091 1092
f  1093 1091 1094
f  1090 1093 1094
f  1151 1098 1101
f  1148 1097 1098
f  1149 1102 1099
f  1150 1099 1100
f  1153 1101 1103
f  1152 1104 1102
f  1154 1105 1104
f  1160 1103 1110
f  1155 1111 1105
f  1147 1106 1097
f  1156 1108 1106
f  1157 1100 1107
f  1158 1197 1108
f  1159 1107 1109
f  1255 1109 1198
f  1161 1112 1111
f  1163 1110 1113
f  1162 1116 1112
f  1164 1115 1114
f  1166 1117 1116
f  1167 1118 1117
f  1168 1113 1118
f  1165 1119 1115
f  1176 1114 1126
f  1170 1127 1120
f  1173 1120 1123
f  1171 1206 1121
f  1172 1121 1122
f  1169 1211 1119
f  1182 1123 1132
f  1174 1125 1124
f  1269 1124 1212
f  1148 1098 1151
f  1147 1097 1148
f  1149 1099 1150
f  1151 1101 1153
f  1149 1152 1102
f  1152 1154 1104
f  1153 1103 1160
f  1154 1155 1105
f  1155 1161 1111
f  1148 1151 1149
f  1147 1148 1150
f  1148 1149 1150
f  1149 1151 1152
f  1151 1153 1152
f  1152 1153 1154
f  1153 1155 1154
f  1153 1160 1155
f  1155 1160 1161
f  1147 1156 1106
f  1150 1100 1157
f  1157 1107 1159
f  1156 1158 1108
f  1158 1254 1197
f  1159 1109 1255
f  1147 1157 1156
f  1156 1157 1158
f  1147 1150 1157
f  1158 1159 1254
f  1158 1157 1159
f  1159 1255 1254
f  1161 1162 1112
f  1160 1110 1163
f  1164 1165 1115
f  1162 1166 1116
f  1166 1167 1117
f  1163 1113 1168
f  1167 1168 1118
f  1165 1169 1119
f  1164 1114 1176
f  1170 1177 1127
f  1170 1120 1173
f  1160 1162 1161
f  1160 1163 1162
f  1162 1163 1166
f  1166 1168 1167
f  1166 1163 1168
f  1164 1169 1165
f  1164 1170 1169
f  1164 1176 1170
f  1170 1176 1177
f  1169 1170 1173
f  1169 1173 1174
f  1171 1121 1172
f  1173 1123 1182
f  1174 1175 1125
f  1169 1268 1211
f  1174 1124 1269
f  1171 1172 1263
f  1169 1174 1268
f  1173 1175 1174
f  1173 1182 1175
f  1174 1269 1268
f  1177 1126 1127
f  1178 1129 1128
f  1179 1130 1129
f  1192 1128 1142
f  1181 1143 1131
f  1183 1132 1133
f  1175 1134 1125
f  1184 1135 1134
f  1185 1138 1135
f  1186 1133 1136
f  1187 1136 1137
f  1188 1139 1138
f  1191 1137 1141
f  1189 1140 1139
f  1286 1229 1130
f  1287 1131 1230
f  1193 1142 1143
f  1195 1144 1145
f  1194 1230 1144
f  1288 1146 1231
f  1196 1234 1146
f  1292 1145 1235
f  1176 1126 1177
f  1178 1179 1129
f  1178 1128 1192
f  1179 1180 1130
f  1181 1131 1287
f  1178 1180 1179
f  1178 1192 1180
f  1180 1192 1181
f  1180 1181 1287
f  1182 1132 1183
f  1175 1184 1134
f  1184 1185 1135
f  1183 1133 1186
f  1185 1188 1138
f  1186 1136 1187
f  1188 1189 1139
f  1187 1137 1191
f  1189 1190 1140
f  1191 1141 1283
f  1180 1286 1130
f  1175 1182 1184
f  1182 1183 1184
f  1184 1183 1185
f  1183 1186 1185
f  1185 1186 1188
f  1186 1187 1188
f  1187 1189 1188
f  1187 1191 1189
f  1189 1191 1190
f  1191 1283 1190
f  1180 1287 1286
f  1192 1142 1193
f  1181 1193 1143
f  1194 1144 1195
f  1195 1145 1292
f  1181 1192 1193
f  1287 1194 1195
f  1287 1230 1194
f  1288 1196 1146
f  1196 1291 1234
f  1287 1196 1288
f  1287 1195 1196
f  1196 1195 1292
f  1196 1292 1291
f  1254 1199 1197
f  1257 1198 1200
f  1258 1200 1201
f  1256 1202 1199
f  1261 1203 1204
f  1260 1201 1203
f  1259 1207 1202
f  1262 1204 1205
f  1263 1205 1206
f  1264 1208 1207
f  1265 1122 1208
f  1266 1210 1209
f  1268 1209 1211
f  1267 1214 1210
f  1270 1212 1213
f  1255 1198 1257
f  1254 1256 1199
f  1257 1200 1258
f  1256 1259 1202
f  1260 1203 1261
f  1258 1201 1260
f  1259 1264 1207
f  1254 1255 1256
f  1255 1257 1256
f  1257 1259 1256
f  1257 1258 1259
f  1258 1260 1259
f  1260 1264 1259
f  1260 1261 1264
f  1261 1204 1262
f  1262 1205 1263
f  1171 1263 1206
f  1264 1265 1208
f  1172 1122 1265
f  1266 1267 1210
f  1266 1209 1268
f  1269 1212 1270
f  1267 1271 1214
f  1172 1265 1263
f  1262 1263 1265
f  1261 1262 1264
f  1264 1262 1265
f  1266 1268 1267
f  1268 1271 1267
f  1268 1269 1271
f  1269 1270 1271
f  1272 585 1215
f  1274 1215 1217
f  1273 1217 1216
f  1293 1219 1236
f  1277 1218 1220
f  1276 1220 1219
f  1279 1221 1222
f  1278 1223 1221
f  1280 1238 1223
f  1272 1215 1274
f  1273 1272 1274
f  1273 1274 1217
f  630 1272 1273
f  1276 1219 1293
f  1276 1293 1280
f  1277 1220 1276
f  1275 1218 1277
f  1278 1221 1279
f  1278 1280 1223
f  1277 1276 1278
f  1275 1277 1279
f  1277 1278 1279
f  1276 1280 1278
f  1281 1213 1224
f  1282 1224 1225
f  1271 1226 1214
f  1190 1225 1140
f  1283 1141 1226
f  1284 1228 1227
f  1286 1227 1229
f  1285 1231 1228
f  1289 1233 1232
f  1291 1232 1234
f  1290 1312 1233
f  1270 1213 1281
f  1282 1225 1190
f  1281 1224 1282
f  1271 1283 1226
f  1284 1285 1228
f  1284 1227 1286
f  1285 1288 1231
f  1281 1282 1283
f  1270 1281 1271
f  1281 1283 1271
f  1282 1190 1283
f  1284 1286 1285
f  1286 1288 1285
f  1286 1287 1288
f  1289 1290 1233
f  1289 1232 1291
f  1290 1332 1312
f  1292 1235 1331
f  1289 1291 1290
f  1291 1292 1290
f  1290 1292 1332
f  1294 1236 1237
f  1301 1237 1244
f  1295 1239 1238
f  1296 1240 1239
f  1297 1241 1240
f  1298 1242 1241
f  1299 1243 1242
f  1300 1247 1243
f  1303 1245 1246
f  1333 1246 1313
f  1305 1248 1245
f  1304 1244 1247
f  1305 1253 1248
f  1307 1251 1250
f  1306 1250 1249
f  1308 1252 1251
f  1309 1315 1252
f  1310 1249 1253
f  1293 1236 1294
f  1294 1237 1301
f  1280 1293 1295
f  1293 1296 1295
f  1293 1294 1296
f  1296 1294 1297
f  1280 1295 1238
f  1295 1296 1239
f  1296 1297 1240
f  1297 1298 1241
f  1298 1299 1242
f  1299 1300 1243
f  1300 1304 1247
f  1297 1294 1298
f  1294 1301 1298
f  1301 1299 1298
f  1301 1304 1299
f  1299 1304 1300
f  1302 1245 1303
f  1303 1246 1333
f  1302 1303 1307
f  1303 1309 1308
f  1303 1333 1309
f  1301 1244 1304
f  1302 1305 1245
f  1305 1310 1253
f  1306 1307 1250
f  1306 1249 1310
f  1307 1308 1251
f  1308 1309 1252
f  1302 1306 1305
f  1302 1307 1306
f  1303 1308 1307
f  1305 1306 1310
f  1331 1235 1311
f  1332 1311 1312
f  1331 1311 1332
f  1292 1331 1332
f  1334 1313 1314
f  1335 1316 1315
f  1336 1317 1316
f  1338 1314 1318
f  1337 1320 1317
f  1339 1318 1319
f  1340 1321 1320
f  1342 1319 1322
f  1343 1324 1323
f  1344 1327 1324
f  1346 1325 1326
f  1345 1330 1325
f  1347 1434 1327
f  1348 1326 1328
f  1333 1313 1334
f  1334 1314 1338
f  1309 1333 1335
f  1335 1333 1336
f  1333 1334 1336
f  1309 1335 1315
f  1335 1336 1316
f  1336 1337 1317
f  1337 1340 1320
f  1338 1318 1339
f  1340 1341 1321
f  1339 1319 1342
f  1342 1322 1474
f  1336 1334 1337
f  1334 1338 1337
f  1338 1340 1337
f  1338 1339 1340
f  1340 1339 1341
f  1341 1339 1342
f  1343 1323 1349
f  1343 1344 1324
f  1345 1325 1346
f  1344 1347 1327
f  1346 1326 1348
f  1343 1345 1344
f  1344 1345 1347
f  1343 1349 1345
f  1345 1346 1347
f  1346 1348 1347
f  1347 1348 1485
f  1349 1323 1329
f  1350 1329 1330
f  1345 1350 1330
f  1348 1328 1502
f  1349 1329 1350
f  1345 1349 1350
f  1275 1351 1218
f  1384 1352 1351
f  1389 1216 1356
f  1386 1222 1353
f  1387 1353 1354
f  1385 1359 1352
f  1388 1354 1355
f  1273 1216 1389
f  1275 1384 1351
f  1384 1385 1352
f  1273 1389 699
f  1279 1222 1386
f  1386 1353 1387
f  1275 1279 1386
f  1275 1386 1384
f  1384 1386 1385
f  1385 1392 1359
f  1387 1354 1388
f  1386 1387 1385
f  1385 1387 1392
f  1387 1388 1392
f  1390 1356 1357
f  1391 1357 1358
f  1392 1361 1359
f  1393 1355 1360
f  1394 1370 1361
f  1389 1356 1390
f  700 1391 1358
f  1390 1357 1391
f  1389 1390 1391
f  700 1389 1391
f  1392 1394 1361
f  1388 1355 1393
f  1393 1360 1401
f  1394 1403 1370
f  1392 1388 1394
f  1388 1393 1394
f  1393 1403 1394
f  1396 1362 1363
f  1395 1373 1362
f  1397 1365 1364
f  1398 1418 1365
f  1400 1366 1367
f  1395 1362 1396
f  1396 1363 1407
f  1395 1396 1406
f  1397 1364 1468
f  1397 1398 1365
f  1397 1468 1398
f  1399 1366 1400
f  1400 1367 1410
f  1399 1400 1410
f  1401 1360 1368
f  1402 1368 1369
f  1404 1369 1371
f  1403 1375 1370
f  1405 1371 1372
f  1406 1372 1373
f  1407 1363 1374
f  1408 1374 1375
f  1399 1376 1366
f  1410 1367 1377
f  1411 1377 1378
f  1412 1378 1379
f  1413 1379 1380
f  1409 1381 1376
f  1414 1382 1381
f  1415 1383 1382
f  1416 1440 1383
f  1401 1368 1402
f  1404 1402 1369
f  1403 1408 1375
f  1405 1372 1406
f  1404 1371 1405
f  1395 1406 1373
f  1408 1407 1374
f  1393 1401 1403
f  1401 1402 1403
f  1404 1408 1402
f  1403 1402 1408
f  1404 1405 1408
f  1408 1405 1407
f  1406 1396 1407
f  1405 1406 1407
f  1399 1409 1376
f  1410 1377 1411
f  1411 1378 1412
f  1412 1379 1413
f  1409 1414 1381
f  1414 1415 1382
f  1415 1416 1383
f  1399 1410 1409
f  1410 1414 1409
f  1410 1411 1414
f  1411 1412 1415
f  1412 1413 1416
f  1411 1415 1414
f  1412 1416 1415
f  1416 1413 1491
f  1468 1364 1417
f  1469 1427 1418
f  1470 1417 1419
f  1473 1419 1422
f  1471 1424 1420
f  1476 1420 1425
f  1341 1421 1321
f  1472 1422 1421
f  1474 1322 1423
f  1477 1423 1426
f  1475 1426 1424
f  1478 1428 1427
f  1479 1430 1428
f  1480 1425 1429
f  1481 1432 1430
f  1482 1429 1431
f  1483 1441 1432
f  1484 1431 1433
f  1487 1435 1436
f  1468 1417 1470
f  1398 1469 1418
f  1469 1478 1427
f  1470 1419 1473
f  1471 1420 1476
f  1341 1472 1421
f  1472 1473 1422
f  1474 1423 1477
f  1471 1475 1424
f  1476 1425 1480
f  1475 1477 1426
f  1468 1469 1398
f  1468 1471 1478
f  1468 1478 1469
f  1468 1470 1471
f  1470 1473 1475
f  1470 1475 1471
f  1471 1476 1478
f  1341 1474 1472
f  1472 1477 1473
f  1341 1342 1474
f  1472 1474 1477
f  1473 1477 1475
f  1478 1479 1428
f  1479 1481 1430
f  1480 1429 1482
f  1482 1431 1484
f  1481 1483 1432
f  1483 1492 1441
f  1484 1433 1493
f  1478 1476 1479
f  1476 1480 1479
f  1479 1480 1481
f  1481 1482 1483
f  1481 1480 1482
f  1482 1484 1483
f  1483 1484 1492
f  1347 1485 1434
f  1486 1435 1487
f  1487 1436 1495
f  1486 1487 1495
f  1488 1380 1437
f  1490 1437 1439
f  1492 1438 1441
f  1489 1439 1438
f  1491 1442 1440
f  1493 1433 1442
f  1486 1443 1435
f  1494 1449 1443
f  1495 1436 1444
f  1496 1444 1445
f  1497 1445 1446
f  1498 1446 1447
f  1499 1447 1448
f  1500 1450 1449
f  1413 1380 1488
f  1488 1437 1490
f  1492 1489 1438
f  1490 1439 1489
f  1491 1493 1442
f  1416 1491 1440
f  1413 1488 1491
f  1488 1490 1491
f  1491 1490 1493
f  1490 1489 1493
f  1492 1493 1489
f  1492 1484 1493
f  1486 1494 1443
f  1495 1444 1496
f  1496 1445 1497
f  1497 1446 1498
f  1498 1447 1499
f  1494 1500 1449
f  1500 1501 1450
f  1486 1495 1494
f  1495 1496 1494
f  1494 1496 1500
f  1496 1497 1500
f  1497 1498 1500
f  1498 1499 1501
f  1500 1498 1501
f  1502 1328 1451
f  1485 1452 1434
f  1505 1451 1454
f  1503 1453 1452
f  1504 1456 1453
f  1506 1454 1455
f  1511 1455 1460
f  1507 1457 1456
f  1508 1458 1457
f  1509 1459 1458
f  1512 1460 1461
f  1517 1462 1466
f  1513 1461 1462
f  1485 1503 1452
f  1502 1451 1505
f  1503 1504 1453
f  1505 1454 1506
f  1504 1507 1456
f  1506 1455 1511
f  1348 1502 1485
f  1485 1502 1503
f  1503 1502 1505
f  1503 1505 1504
f  1504 1505 1506
f  1504 1506 1507
f  1507 1506 1511
f  1507 1508 1457
f  1508 1509 1458
f  1509 1510 1459
f  1511 1460 1512
f  1512 1461 1513
f  1513 1462 1517
f  1507 1511 1508
f  1508 1511 1512
f  1508 1512 1509
f  1512 1513 1509
f  1509 1517 1510
f  1509 1513 1517
f  1514 1448 1463
f  1510 1464 1459
f  1515 1463 1464
f  1501 1465 1450
f  1516 1467 1465
f  1518 1466 1467
f  1499 1448 1514
f  1514 1463 1515
f  1515 1464 1510
f  1516 1518 1467
f  1501 1516 1465
f  1517 1466 1518
f  1499 1514 1501
f  1515 1510 1518
f  1514 1515 1516
f  1515 1518 1516
f  1501 1514 1516
f  1510 1517 1518
