# OpenSCAD obj exporter
v 0 0 0
v 0 0 0.9
v 2.4818 1.42857 0.9
v 2.4818 1.45424 0.9
v 2.2837 2.05245 0.9
v 2.2837 2.07812 0.9
v 2.35683 2.03985 0.9
v 2.47115 2.03985 0.9
v 2.4818 1.42857 1.1
v 2.4818 1.45424 1.1
v 2.2837 2.05245 1.1
v 2.2837 2.07812 1.1
v 2.35683 2.03985 1.1
v 2.47115 2.03985 1.1
v 2.58497 1.46732 0.9
v 2.67846 1.46732 0.9
v 2.78163 1.42857 0.9
v 2.78163 1.45424 0.9
v 2.58497 1.68141 0.9
v 2.67846 1.68432 0.9
v 2.65763 1.74002 0.9
v 2.55833 2.05245 0.9
v 2.55833 2.07812 0.9
v 2.75257 2.05245 0.9
v 2.75257 2.07812 0.9
v 2.83491 2.03985 0.9
v 2.89255 2.03985 0.9
v 2.96375 2.05245 0.9
v 2.96375 2.07812 0.9
v 3.00013 2.05245 0.9
v 3.00013 2.07812 0.9
v 3.07327 2.03985 0.9
v 3.19824 1.42857 0.9
v 3.19824 1.45424 0.9
v 3.30141 1.46732 0.9
v 3.3949 1.46732 0.9
v 3.30141 1.68141 0.9
v 3.3949 1.68432 0.9
v 3.37407 1.74002 0.9
v 3.49807 1.42857 0.9
v 3.49807 1.45424 0.9
v 3.18758 2.03985 0.9
v 3.27477 2.05245 0.9
v 3.27477 2.07812 0.9
v 3.469 2.05245 0.9
v 3.469 2.07812 0.9
v 3.55135 2.03985 0.9
v 3.60899 2.03985 0.9
v 3.68019 2.05245 0.9
v 3.7064 2.05245 0.9
v 3.68019 2.07812 0.9
v 3.7064 2.07812 0.9
v 2.58497 1.46732 1.1
v 2.67846 1.46732 1.1
v 2.78163 1.42857 1.1
v 2.78163 1.45424 1.1
v 2.58497 1.68141 1.1
v 2.67846 1.68432 1.1
v 2.65763 1.74002 1.1
v 2.55833 2.05245 1.1
v 2.55833 2.07812 1.1
v 2.75257 2.05245 1.1
v 2.75257 2.07812 1.1
v 2.83491 2.03985 1.1
v 2.89255 2.03985 1.1
v 2.96375 2.05245 1.1
v 2.96375 2.07812 1.1
v 3.00013 2.05245 1.1
v 3.00013 2.07812 1.1
v 3.07327 2.03985 1.1
v 3.19824 1.42857 1.1
v 3.19824 1.45424 1.1
v 3.30141 1.46732 1.1
v 3.3949 1.46732 1.1
v 3.30141 1.68141 1.1
v 3.3949 1.68432 1.1
v 3.37407 1.74002 1.1
v 3.49807 1.42857 1.1
v 3.49807 1.45424 1.1
v 3.18758 2.03985 1.1
v 3.27477 2.05245 1.1
v 3.27477 2.07812 1.1
v 3.469 2.05245 1.1
v 3.469 2.07812 1.1
v 3.55135 2.03985 1.1
v 3.60899 2.03985 1.1
v 3.68019 2.05245 1.1
v 3.7064 2.05245 1.1
v 3.68019 2.07812 1.1
v 3.7064 2.07812 1.1
v 3.97812 1.41356 0.9
v 4.0038 1.41356 0.9
v 4.01349 1.58212 0.9
v 4.34528 1.41356 0.9
v 4.37095 1.41356 0.9
v 4.17673 1.86112 0.9
v 3.76307 2.03985 0.9
v 3.85898 2.03985 0.9
v 3.9544 2.05245 0.9
v 3.9544 2.07812 0.9
v 4.18835 2.03259 0.9
v 4.21015 2.03259 0.9
v 4.3787 1.58212 0.9
v 4.91448 1.41356 0.9
v 4.94016 1.41356 0.9
v 4.94985 1.58212 0.9
v 4.42473 2.05245 0.9
v 4.42473 2.07812 0.9
v 4.52595 2.03985 0.9
v 4.58311 2.03985 0.9
v 4.63978 2.05245 0.9
v 4.64275 2.05245 0.9
v 4.63978 2.07812 0.9
v 4.64275 2.07812 0.9
v 4.69942 2.03985 0.9
v 4.79533 2.03985 0.9
v 4.89075 2.05245 0.9
v 4.89075 2.07812 0.9
v 3.97812 1.41356 1.1
v 4.0038 1.41356 1.1
v 4.01349 1.58212 1.1
v 4.34528 1.41356 1.1
v 4.37095 1.41356 1.1
v 4.17673 1.86112 1.1
v 3.76307 2.03985 1.1
v 3.85898 2.03985 1.1
v 3.9544 2.05245 1.1
v 3.9544 2.07812 1.1
v 4.18835 2.03259 1.1
v 4.21015 2.03259 1.1
v 4.3787 1.58212 1.1
v 4.91448 1.41356 1.1
v 4.94016 1.41356 1.1
v 4.94985 1.58212 1.1
v 4.42473 2.05245 1.1
v 4.42473 2.07812 1.1
v 4.52595 2.03985 1.1
v 4.58311 2.03985 1.1
v 4.63978 2.05245 1.1
v 4.64275 2.05245 1.1
v 4.63978 2.07812 1.1
v 4.64275 2.07812 1.1
v 4.69942 2.03985 1.1
v 4.79533 2.03985 1.1
v 4.89075 2.05245 1.1
v 4.89075 2.07812 1.1
v 3.11081 4.60298 0.9
v 3.19897 4.362 0.9
v 3.30457 4.29752 0.9
v 3.34532 4.33197 0.9
v 3.44504 4.27603 0.9
v 3.44601 4.31332 0.9
v 3.49965 4.31665 0.9
v 3.56358 4.28366 0.9
v 3.55014 4.32664 0.9
v 3.59398 4.3422 0.9
v 3.62764 4.36224 0.9
v 3.67414 4.30654 0.9
v 3.13285 4.46523 0.9
v 3.27187 4.38791 0.9
v 3.22701 4.47922 0.9
v 3.21205 4.60395 0.9
v 3.13201 4.75017 0.9
v 3.22634 4.73739 0.9
v 3.26921 4.83064 0.9
v 3.19558 4.85655 0.9
v 3.30081 4.92103 0.9
v 3.3432 4.88549 0.9
v 3.64556 4.45912 0.9
v 3.67705 4.45912 0.9
v 3.45085 4.90378 0.9
v 3.49692 4.90093 0.9
v 3.44697 4.94253 0.9
v 3.54215 4.89239 0.9
v 3.58423 4.87865 0.9
v 3.55196 4.93635 0.9
v 3.63539 4.7759 0.9
v 3.66736 4.7759 0.9
v 3.62086 4.86019 0.9
v 3.66446 4.91782 0.9
v 3.11081 4.60298 1.1
v 3.19897 4.362 1.1
v 3.30457 4.29752 1.1
v 3.34532 4.33197 1.1
v 3.44504 4.27603 1.1
v 3.44601 4.31332 1.1
v 3.49965 4.31665 1.1
v 3.56358 4.28366 1.1
v 3.55014 4.32664 1.1
v 3.59398 4.3422 1.1
v 3.62764 4.36224 1.1
v 3.67414 4.30654 1.1
v 3.13285 4.46523 1.1
v 3.27187 4.38791 1.1
v 3.22701 4.47922 1.1
v 3.21205 4.60395 1.1
v 3.13201 4.75017 1.1
v 3.22634 4.73739 1.1
v 3.26921 4.83064 1.1
v 3.19558 4.85655 1.1
v 3.30081 4.92103 1.1
v 3.3432 4.88549 1.1
v 3.64556 4.45912 1.1
v 3.67705 4.45912 1.1
v 3.45085 4.90378 1.1
v 3.49692 4.90093 1.1
v 3.44697 4.94253 1.1
v 3.54215 4.89239 1.1
v 3.58423 4.87865 1.1
v 3.55196 4.93635 1.1
v 3.63539 4.7759 1.1
v 3.66736 4.7759 1.1
v 3.62086 4.86019 1.1
v 3.66446 4.91782 1.1
v 4.04475 2.85714 0.9
v 4.04475 2.88281 0.9
v 4.12806 2.89589 0.9
v 4.22106 2.89589 0.9
v 4.30438 2.85714 0.9
v 4.30438 2.88281 0.9
v 4.04475 3.48102 0.9
v 4.04475 3.50669 0.9
v 4.12806 3.46842 0.9
v 4.22106 3.46842 0.9
v 4.30438 3.48102 0.9
v 4.30438 3.50669 0.9
v 4.37511 2.85714 0.9
v 4.37511 2.88281 0.9
v 4.45843 2.89589 0.9
v 4.55143 2.89589 0.9
v 4.63474 2.85714 0.9
v 4.63474 2.88281 0.9
v 4.70548 2.85714 0.9
v 4.70548 2.88281 0.9
v 4.78879 2.89589 0.9
v 4.88179 2.89589 0.9
v 4.96511 2.85714 0.9
v 4.96511 2.88281 0.9
v 4.37511 3.48102 0.9
v 4.37511 3.50669 0.9
v 4.45843 3.46842 0.9
v 4.55143 3.46842 0.9
v 4.63474 3.48102 0.9
v 4.63474 3.50669 0.9
v 4.70548 3.48102 0.9
v 4.70548 3.50669 0.9
v 4.78879 3.46842 0.9
v 4.88179 3.46842 0.9
v 4.96511 3.48102 0.9
v 4.96511 3.50669 0.9
v 4.04475 2.85714 1.1
v 4.04475 2.88281 1.1
v 4.12806 2.89589 1.1
v 4.22106 2.89589 1.1
v 4.30438 2.85714 1.1
v 4.30438 2.88281 1.1
v 4.04475 3.48102 1.1
v 4.04475 3.50669 1.1
v 4.12806 3.46842 1.1
v 4.22106 3.46842 1.1
v 4.30438 3.48102 1.1
v 4.30438 3.50669 1.1
v 4.37511 2.85714 1.1
v 4.37511 2.88281 1.1
v 4.45843 2.89589 1.1
v 4.55143 2.89589 1.1
v 4.63474 2.85714 1.1
v 4.63474 2.88281 1.1
v 4.70548 2.85714 1.1
v 4.70548 2.88281 1.1
v 4.78879 2.89589 1.1
v 4.88179 2.89589 1.1
v 4.96511 2.85714 1.1
v 4.96511 2.88281 1.1
v 4.37511 3.48102 1.1
v 4.37511 3.50669 1.1
v 4.45843 3.46842 1.1
v 4.55143 3.46842 1.1
v 4.63474 3.48102 1.1
v 4.63474 3.50669 1.1
v 4.70548 3.48102 1.1
v 4.70548 3.50669 1.1
v 4.78879 3.46842 1.1
v 4.88179 3.46842 1.1
v 4.96511 3.48102 1.1
v 4.96511 3.50669 1.1
v 3.76671 4.28571 0.9
v 3.76671 4.31139 0.9
v 3.84372 4.32446 0.9
v 3.93721 4.32446 0.9
v 4.04038 4.28571 0.9
v 4.04038 4.31139 0.9
v 4.31214 4.28571 0.9
v 4.31214 4.31139 0.9
v 3.93721 4.54049 0.9
v 3.93721 4.58409 0.9
v 4.01034 4.54049 0.9
v 3.98758 4.58409 0.9
v 4.05872 4.59342 0.9
v 3.76041 4.90959 0.9
v 3.76041 4.93526 0.9
v 3.84372 4.89699 0.9
v 3.93721 4.89166 0.9
v 3.98467 4.89166 0.9
v 4.06011 4.88307 0.9
v 4.0055 4.93526 0.9
v 4.11007 4.55345 0.9
v 4.10843 4.62139 0.9
v 4.13767 4.67043 0.9
v 4.18351 4.59232 0.9
v 4.22874 4.65614 0.9
v 4.1381 4.8115 0.9
v 4.14742 4.74296 0.9
v 4.11012 4.85727 0.9
v 4.18424 4.88743 0.9
v 4.24381 4.74394 0.9
v 4.31214 4.90959 0.9
v 4.31214 4.93526 0.9
v 4.39546 4.32446 0.9
v 4.44631 4.32446 0.9
v 4.5335 4.28571 0.9
v 4.5335 4.31139 0.9
v 4.84689 4.28571 0.9
v 4.89388 4.28571 0.9
v 4.39546 4.89699 0.9
v 4.44631 4.86987 0.9
v 4.5088 4.93526 0.9
v 4.84301 4.45428 0.9
v 4.75583 4.90959 0.9
v 4.75583 4.93526 0.9
v 4.84301 4.89699 0.9
v 4.89388 4.89699 0.9
v 4.97719 4.90959 0.9
v 4.97719 4.93526 0.9
v 3.76671 4.28571 1.1
v 3.76671 4.31139 1.1
v 3.84372 4.32446 1.1
v 3.93721 4.32446 1.1
v 4.04038 4.28571 1.1
v 4.04038 4.31139 1.1
v 4.31214 4.28571 1.1
v 4.31214 4.31139 1.1
v 3.93721 4.54049 1.1
v 3.93721 4.58409 1.1
v 4.01034 4.54049 1.1
v 3.98758 4.58409 1.1
v 4.05872 4.59342 1.1
v 3.76041 4.90959 1.1
v 3.76041 4.93526 1.1
v 3.84372 4.89699 1.1
v 3.93721 4.89166 1.1
v 3.98467 4.89166 1.1
v 4.06011 4.88307 1.1
v 4.0055 4.93526 1.1
v 4.11007 4.55345 1.1
v 4.10843 4.62139 1.1
v 4.13767 4.67043 1.1
v 4.18351 4.59232 1.1
v 4.22874 4.65614 1.1
v 4.1381 4.8115 1.1
v 4.14742 4.74296 1.1
v 4.11012 4.85727 1.1
v 4.18424 4.88743 1.1
v 4.24381 4.74394 1.1
v 4.31214 4.90959 1.1
v 4.31214 4.93526 1.1
v 4.39546 4.32446 1.1
v 4.44631 4.32446 1.1
v 4.5335 4.28571 1.1
v 4.5335 4.31139 1.1
v 4.84689 4.28571 1.1
v 4.89388 4.28571 1.1
v 4.39546 4.89699 1.1
v 4.44631 4.86987 1.1
v 4.5088 4.93526 1.1
v 4.84301 4.45428 1.1
v 4.75583 4.90959 1.1
v 4.75583 4.93526 1.1
v 4.84301 4.89699 1.1
v 4.89388 4.89699 1.1
v 4.97719 4.90959 1.1
v 4.97719 4.93526 1.1
v 0 10 0
v 1.75205 7.14286 0.9
v 1.75205 7.18907 0.9
v 2.15049 7.14286 0.9
v 1.90201 7.21261 0.9
v 1.99356 7.21261 0.9
v 2.15049 7.18907 0.9
v 2.42165 7.14286 0.9
v 2.45216 7.14286 0.9
v 2.48617 7.42273 0.9
v 1.75205 7.14286 1.1
v 1.75205 7.18907 1.1
v 2.15049 7.14286 1.1
v 1.90201 7.21261 1.1
v 1.99356 7.21261 1.1
v 2.15049 7.18907 1.1
v 2.42165 7.14286 1.1
v 2.45216 7.14286 1.1
v 2.48617 7.42273 1.1
v 0.717418 8.70584 0.9
v 0.7926 8.59174 0.9
v 0.905593 8.51328 0.9
v 1.044 8.48713 0.9
v 1.1824 8.51328 0.9
v 0.717418 8.70584 1.1
v 0.7926 8.59174 1.1
v 0.905593 8.51328 1.1
v 1.044 8.48713 1.1
v 1.1824 8.51328 1.1
v 0 10 0.9
v 0.692357 8.83881 0.9
v 0.717782 8.97539 0.9
v 0.794057 9.08871 0.9
v 0.907414 9.16502 0.9
v 1.044 9.19046 0.9
v 1.18057 9.16502 0.9
v 0.692357 8.83881 1.1
v 0.717782 8.97539 1.1
v 0.794057 9.08871 1.1
v 0.907414 9.16502 1.1
v 1.044 9.19046 1.1
v 1.18057 9.16502 1.1
v 1.29536 8.59174 0.9
v 1.37057 8.70584 0.9
v 1.75205 8.26584 0.9
v 1.75205 8.31205 0.9
v 1.90201 8.24316 0.9
v 1.99356 8.14813 0.9
v 2.10603 8.31205 0.9
v 1.29536 8.59174 1.1
v 1.37057 8.70584 1.1
v 1.75205 8.26584 1.1
v 1.75205 8.31205 1.1
v 1.90201 8.24316 1.1
v 1.99356 8.14813 1.1
v 2.10603 8.31205 1.1
v 1.39564 8.83881 0.9
v 1.37021 8.97539 0.9
v 1.2939 9.08871 0.9
v 1.39564 8.83881 1.1
v 1.37021 8.97539 1.1
v 1.2939 9.08871 1.1
v 3.11081 6.03155 0.9
v 3.19897 5.79057 0.9
v 3.13285 5.89381 0.9
v 3.27187 5.81649 0.9
v 3.22701 5.90779 0.9
v 3.30457 5.72609 0.9
v 3.34532 5.76054 0.9
v 3.21205 6.03252 0.9
v 3.13201 6.17874 0.9
v 3.22634 6.16596 0.9
v 3.44504 5.7046 0.9
v 3.44601 5.74189 0.9
v 3.49965 5.74522 0.9
v 3.55014 5.75521 0.9
v 3.56358 5.71223 0.9
v 3.59398 5.77078 0.9
v 3.67414 5.73511 0.9
v 3.62764 5.79081 0.9
v 3.64556 5.88769 0.9
v 3.67705 5.88769 0.9
v 3.63539 6.20447 0.9
v 3.66736 6.20447 0.9
v 3.11081 6.03155 1.1
v 3.19897 5.79057 1.1
v 3.13285 5.89381 1.1
v 3.27187 5.81649 1.1
v 3.22701 5.90779 1.1
v 3.30457 5.72609 1.1
v 3.34532 5.76054 1.1
v 3.21205 6.03252 1.1
v 3.13201 6.17874 1.1
v 3.22634 6.16596 1.1
v 3.44504 5.7046 1.1
v 3.44601 5.74189 1.1
v 3.49965 5.74522 1.1
v 3.55014 5.75521 1.1
v 3.56358 5.71223 1.1
v 3.59398 5.77078 1.1
v 3.67414 5.73511 1.1
v 3.62764 5.79081 1.1
v 3.64556 5.88769 1.1
v 3.67705 5.88769 1.1
v 3.63539 6.20447 1.1
v 3.66736 6.20447 1.1
v 2.76168 7.14286 0.9
v 2.76168 7.18907 0.9
v 2.91861 7.21261 0.9
v 3.08602 7.21261 0.9
v 3.19558 6.28512 0.9
v 3.26921 6.25921 0.9
v 3.3432 6.31406 0.9
v 3.30081 6.34961 0.9
v 3.45085 6.33235 0.9
v 3.44697 6.3711 0.9
v 3.49692 6.3295 0.9
v 3.54215 6.32096 0.9
v 3.58423 6.30722 0.9
v 3.55196 6.36492 0.9
v 3.62086 6.28876 0.9
v 3.66446 6.34639 0.9
v 3.23598 7.14286 0.9
v 3.23598 7.18907 0.9
v 2.76168 7.14286 1.1
v 2.76168 7.18907 1.1
v 2.91861 7.21261 1.1
v 3.08602 7.21261 1.1
v 3.19558 6.28512 1.1
v 3.26921 6.25921 1.1
v 3.3432 6.31406 1.1
v 3.30081 6.34961 1.1
v 3.45085 6.33235 1.1
v 3.44697 6.3711 1.1
v 3.49692 6.3295 1.1
v 3.54215 6.32096 1.1
v 3.58423 6.30722 1.1
v 3.55196 6.36492 1.1
v 3.62086 6.28876 1.1
v 3.66446 6.34639 1.1
v 3.23598 7.14286 1.1
v 3.23598 7.18907 1.1
v 3.76671 5.71429 0.9
v 3.76671 5.73996 0.9
v 3.84372 5.75304 0.9
v 3.93721 5.75304 0.9
v 4.04038 5.71429 0.9
v 4.04038 5.73996 0.9
v 3.93721 5.96906 0.9
v 3.93721 6.01266 0.9
v 4.01034 5.96906 0.9
v 3.98758 6.01266 0.9
v 4.05872 6.02199 0.9
v 4.31214 5.71429 0.9
v 4.31214 5.73996 0.9
v 4.11007 5.98202 0.9
v 4.10843 6.04996 0.9
v 4.18351 6.02089 0.9
v 4.13767 6.099 0.9
v 4.1381 6.24007 0.9
v 4.14742 6.17154 0.9
v 4.22874 6.08471 0.9
v 4.24381 6.17251 0.9
v 4.39546 5.75304 0.9
v 4.44631 5.75304 0.9
v 4.5335 5.71429 0.9
v 4.5335 5.73996 0.9
v 4.84301 5.88285 0.9
v 4.84689 5.71429 0.9
v 4.89388 5.71429 0.9
v 3.76671 5.71429 1.1
v 3.76671 5.73996 1.1
v 3.84372 5.75304 1.1
v 3.93721 5.75304 1.1
v 4.04038 5.71429 1.1
v 4.04038 5.73996 1.1
v 3.93721 5.96906 1.1
v 3.93721 6.01266 1.1
v 4.01034 5.96906 1.1
v 3.98758 6.01266 1.1
v 4.05872 6.02199 1.1
v 4.31214 5.71429 1.1
v 4.31214 5.73996 1.1
v 4.11007 5.98202 1.1
v 4.10843 6.04996 1.1
v 4.18351 6.02089 1.1
v 4.13767 6.099 1.1
v 4.1381 6.24007 1.1
v 4.14742 6.17154 1.1
v 4.22874 6.08471 1.1
v 4.24381 6.17251 1.1
v 4.39546 5.75304 1.1
v 4.44631 5.75304 1.1
v 4.5335 5.71429 1.1
v 4.5335 5.73996 1.1
v 4.84301 5.88285 1.1
v 4.84689 5.71429 1.1
v 4.89388 5.71429 1.1
v 3.76041 6.33816 0.9
v 3.76041 6.36384 0.9
v 3.84372 6.32556 0.9
v 3.93721 6.32024 0.9
v 3.98467 6.32024 0.9
v 4.06011 6.31164 0.9
v 4.0055 6.36384 0.9
v 4.11012 6.28584 0.9
v 4.18424 6.316 0.9
v 4.31214 6.33816 0.9
v 4.31214 6.36384 0.9
v 3.79761 7.14286 0.9
v 3.79761 7.18907 0.9
v 3.93623 7.21261 0.9
v 4.29022 7.14286 0.9
v 4.10451 7.21261 0.9
v 4.29022 7.18907 0.9
v 4.39546 6.32556 0.9
v 4.44631 6.29844 0.9
v 4.5088 6.36384 0.9
v 4.75583 6.33816 0.9
v 4.75583 6.36384 0.9
v 4.84301 6.32556 0.9
v 4.89388 6.32556 0.9
v 4.97719 6.33816 0.9
v 4.97719 6.36384 0.9
v 4.79247 7.14286 0.9
v 4.79247 7.18907 0.9
v 4.94243 7.21261 0.9
v 3.76041 6.33816 1.1
v 3.76041 6.36384 1.1
v 3.84372 6.32556 1.1
v 3.93721 6.32024 1.1
v 3.98467 6.32024 1.1
v 4.06011 6.31164 1.1
v 4.0055 6.36384 1.1
v 4.11012 6.28584 1.1
v 4.18424 6.316 1.1
v 4.31214 6.33816 1.1
v 4.31214 6.36384 1.1
v 3.79761 7.14286 1.1
v 3.79761 7.18907 1.1
v 3.93623 7.21261 1.1
v 4.29022 7.14286 1.1
v 4.10451 7.21261 1.1
v 4.29022 7.18907 1.1
v 4.39546 6.32556 1.1
v 4.44631 6.29844 1.1
v 4.5088 6.36384 1.1
v 4.75583 6.33816 1.1
v 4.75583 6.36384 1.1
v 4.84301 6.32556 1.1
v 4.89388 6.32556 1.1
v 4.97719 6.33816 1.1
v 4.97719 6.36384 1.1
v 4.79247 7.14286 1.1
v 4.79247 7.18907 1.1
v 4.94243 7.21261 1.1
v 2.91861 8.14813 0.9
v 2.90118 8.31205 0.9
v 3.08602 8.24316 0.9
v 3.23598 8.26584 0.9
v 3.23598 8.31205 0.9
v 2.91861 8.14813 1.1
v 2.90118 8.31205 1.1
v 3.08602 8.24316 1.1
v 3.23598 8.26584 1.1
v 3.23598 8.31205 1.1
v 4.10451 7.60146 0.9
v 4.10451 7.67994 0.9
v 4.19517 7.67994 0.9
v 4.23615 7.60146 0.9
v 4.32323 7.69672 0.9
v 3.78627 8.26584 0.9
v 3.78627 8.31205 0.9
v 3.93623 8.24316 0.9
v 4.10451 8.23357 0.9
v 4.18994 8.23357 0.9
v 4.32574 8.21809 0.9
v 4.22743 8.31205 0.9
v 4.41565 7.62478 0.9
v 4.4127 7.74707 0.9
v 4.54785 7.69475 0.9
v 4.62926 7.80962 0.9
v 4.46535 7.83535 0.9
v 4.48289 7.96591 0.9
v 4.46611 8.08927 0.9
v 4.6564 7.96766 0.9
v 4.41575 8.17166 0.9
v 4.54916 8.22595 0.9
v 4.79247 8.26584 0.9
v 4.79247 8.31205 0.9
v 4.94243 8.24316 0.9
v 4.10451 7.60146 1.1
v 4.10451 7.67994 1.1
v 4.19517 7.67994 1.1
v 4.23615 7.60146 1.1
v 4.32323 7.69672 1.1
v 3.78627 8.26584 1.1
v 3.78627 8.31205 1.1
v 3.93623 8.24316 1.1
v 4.10451 8.23357 1.1
v 4.18994 8.23357 1.1
v 4.32574 8.21809 1.1
v 4.22743 8.31205 1.1
v 4.41565 7.62478 1.1
v 4.4127 7.74707 1.1
v 4.54785 7.69475 1.1
v 4.62926 7.80962 1.1
v 4.46535 7.83535 1.1
v 4.48289 7.96591 1.1
v 4.46611 8.08927 1.1
v 4.6564 7.96766 1.1
v 4.41575 8.17166 1.1
v 4.54916 8.22595 1.1
v 4.79247 8.26584 1.1
v 4.79247 8.31205 1.1
v 4.94243 8.24316 1.1
v 10 0 0
v 5.28164 1.41356 0.9
v 5.30731 1.41356 0.9
v 5.11308 1.86112 0.9
v 5.60672 1.42857 0.9
v 5.60672 1.45424 0.9
v 5.31506 1.58212 0.9
v 5.1247 2.03259 0.9
v 5.1465 2.03259 0.9
v 5.36108 2.05245 0.9
v 5.36108 2.07812 0.9
v 5.46231 2.03985 0.9
v 5.51947 2.03985 0.9
v 5.57614 2.05245 0.9
v 5.57614 2.07812 0.9
v 5.60672 2.05245 0.9
v 5.60672 2.07812 0.9
v 5.69003 1.46732 0.9
v 5.74089 1.46732 0.9
v 5.82807 1.42857 0.9
v 5.82807 1.45424 0.9
v 6.14147 1.42857 0.9
v 6.18845 1.42857 0.9
v 6.13759 1.59714 0.9
v 5.74089 2.01273 0.9
v 5.69003 2.03985 0.9
v 5.80337 2.07812 0.9
v 6.0504 2.05245 0.9
v 6.0504 2.07812 0.9
v 6.13759 2.03985 0.9
v 6.18845 2.03985 0.9
v 5.28164 1.41356 1.1
v 5.30731 1.41356 1.1
v 5.11308 1.86112 1.1
v 5.60672 1.42857 1.1
v 5.60672 1.45424 1.1
v 5.31506 1.58212 1.1
v 5.1247 2.03259 1.1
v 5.1465 2.03259 1.1
v 5.36108 2.05245 1.1
v 5.36108 2.07812 1.1
v 5.46231 2.03985 1.1
v 5.51947 2.03985 1.1
v 5.57614 2.05245 1.1
v 5.57614 2.07812 1.1
v 5.60672 2.05245 1.1
v 5.60672 2.07812 1.1
v 5.69003 1.46732 1.1
v 5.74089 1.46732 1.1
v 5.82807 1.42857 1.1
v 5.82807 1.45424 1.1
v 6.14147 1.42857 1.1
v 6.18845 1.42857 1.1
v 6.13759 1.59714 1.1
v 5.74089 2.01273 1.1
v 5.69003 2.03985 1.1
v 5.80337 2.07812 1.1
v 6.0504 2.05245 1.1
v 6.0504 2.07812 1.1
v 6.13759 2.03985 1.1
v 6.18845 2.03985 1.1
v 6.32315 1.42857 0.9
v 6.32315 1.45424 0.9
v 6.40647 1.46732 0.9
v 6.45732 1.46732 0.9
v 6.54451 1.42857 0.9
v 6.54451 1.45424 0.9
v 6.8579 1.42857 0.9
v 6.85402 1.59714 0.9
v 6.27177 2.05245 0.9
v 6.27177 2.07812 0.9
v 6.32315 2.05245 0.9
v 6.32315 2.07812 0.9
v 6.45732 2.01273 0.9
v 6.40647 2.03985 0.9
v 6.51981 2.07812 0.9
v 6.76684 2.05245 0.9
v 6.76684 2.07812 0.9
v 6.85402 2.03985 0.9
v 6.90489 1.42857 0.9
v 7.03959 1.42857 0.9
v 7.03959 1.45424 0.9
v 7.1229 1.46732 0.9
v 7.17376 1.46732 0.9
v 7.26095 1.42857 0.9
v 7.26095 1.45424 0.9
v 6.90489 2.03985 0.9
v 6.9882 2.05245 0.9
v 6.9882 2.07812 0.9
v 7.17376 2.01273 0.9
v 7.03959 2.05245 0.9
v 7.03959 2.07812 0.9
v 7.1229 2.03985 0.9
v 7.23625 2.07812 0.9
v 7.48327 2.05245 0.9
v 7.48327 2.07812 0.9
v 6.32315 1.42857 1.1
v 6.32315 1.45424 1.1
v 6.40647 1.46732 1.1
v 6.45732 1.46732 1.1
v 6.54451 1.42857 1.1
v 6.54451 1.45424 1.1
v 6.8579 1.42857 1.1
v 6.85402 1.59714 1.1
v 6.27177 2.05245 1.1
v 6.27177 2.07812 1.1
v 6.32315 2.05245 1.1
v 6.32315 2.07812 1.1
v 6.45732 2.01273 1.1
v 6.40647 2.03985 1.1
v 6.51981 2.07812 1.1
v 6.76684 2.05245 1.1
v 6.76684 2.07812 1.1
v 6.85402 2.03985 1.1
v 6.90489 1.42857 1.1
v 7.03959 1.42857 1.1
v 7.03959 1.45424 1.1
v 7.1229 1.46732 1.1
v 7.17376 1.46732 1.1
v 7.26095 1.42857 1.1
v 7.26095 1.45424 1.1
v 6.90489 2.03985 1.1
v 6.9882 2.05245 1.1
v 6.9882 2.07812 1.1
v 7.17376 2.01273 1.1
v 7.03959 2.05245 1.1
v 7.03959 2.07812 1.1
v 7.1229 2.03985 1.1
v 7.23625 2.07812 1.1
v 7.48327 2.05245 1.1
v 7.48327 2.07812 1.1
v 5.03584 2.85714 0.9
v 5.03584 2.88281 0.9
v 5.11916 2.89589 0.9
v 5.21216 2.89589 0.9
v 5.29547 2.85714 0.9
v 5.29547 2.88281 0.9
v 5.36621 2.85714 0.9
v 5.36621 2.88281 0.9
v 5.44952 2.89589 0.9
v 5.54252 2.89589 0.9
v 5.03584 3.48102 0.9
v 5.03584 3.50669 0.9
v 5.11916 3.46842 0.9
v 5.21216 3.46842 0.9
v 5.29547 3.48102 0.9
v 5.29547 3.50669 0.9
v 5.36621 3.48102 0.9
v 5.36621 3.50669 0.9
v 5.44952 3.46842 0.9
v 5.54252 3.46842 0.9
v 5.62584 2.85714 0.9
v 5.62584 2.88281 0.9
v 5.69657 2.85714 0.9
v 5.69657 2.88281 0.9
v 5.77989 2.89589 0.9
v 5.87289 2.89589 0.9
v 5.9562 2.85714 0.9
v 5.9562 2.88281 0.9
v 5.62584 3.48102 0.9
v 5.62584 3.50669 0.9
v 5.69657 3.48102 0.9
v 5.69657 3.50669 0.9
v 5.77989 3.46842 0.9
v 5.87289 3.46842 0.9
v 5.9562 3.48102 0.9
v 5.9562 3.50669 0.9
v 5.03584 2.85714 1.1
v 5.03584 2.88281 1.1
v 5.11916 2.89589 1.1
v 5.21216 2.89589 1.1
v 5.29547 2.85714 1.1
v 5.29547 2.88281 1.1
v 5.36621 2.85714 1.1
v 5.36621 2.88281 1.1
v 5.44952 2.89589 1.1
v 5.54252 2.89589 1.1
v 5.03584 3.48102 1.1
v 5.03584 3.50669 1.1
v 5.11916 3.46842 1.1
v 5.21216 3.46842 1.1
v 5.29547 3.48102 1.1
v 5.29547 3.50669 1.1
v 5.36621 3.48102 1.1
v 5.36621 3.50669 1.1
v 5.44952 3.46842 1.1
v 5.54252 3.46842 1.1
v 5.62584 2.85714 1.1
v 5.62584 2.88281 1.1
v 5.69657 2.85714 1.1
v 5.69657 2.88281 1.1
v 5.77989 2.89589 1.1
v 5.87289 2.89589 1.1
v 5.9562 2.85714 1.1
v 5.9562 2.88281 1.1
v 5.62584 3.48102 1.1
v 5.62584 3.50669 1.1
v 5.69657 3.48102 1.1
v 5.69657 3.50669 1.1
v 5.77989 3.46842 1.1
v 5.87289 3.46842 1.1
v 5.9562 3.48102 1.1
v 5.9562 3.50669 1.1
v 5.12884 4.362 0.9
v 5.23444 4.29752 0.9
v 5.27519 4.33197 0.9
v 5.37491 4.27603 0.9
v 5.37588 4.31332 0.9
v 5.42952 4.31665 0.9
v 5.49346 4.28366 0.9
v 5.48001 4.32664 0.9
v 5.52385 4.3422 0.9
v 5.55751 4.36224 0.9
v 5.60401 4.30654 0.9
v 5.06273 4.46523 0.9
v 5.04069 4.60298 0.9
v 5.14192 4.60395 0.9
v 5.20174 4.38791 0.9
v 5.15688 4.47922 0.9
v 5.06188 4.75017 0.9
v 5.15621 4.73739 0.9
v 5.12545 4.85655 0.9
v 5.19908 4.83064 0.9
v 5.23068 4.92103 0.9
v 5.27307 4.88549 0.9
v 5.57544 4.45912 0.9
v 5.60692 4.45912 0.9
v 5.38072 4.90378 0.9
v 5.37684 4.94253 0.9
v 5.4268 4.90093 0.9
v 5.56526 4.7759 0.9
v 5.59724 4.7759 0.9
v 5.47202 4.89239 0.9
v 5.5141 4.87865 0.9
v 5.48183 4.93635 0.9
v 5.55074 4.86019 0.9
v 5.59433 4.91782 0.9
v 5.69658 4.28571 0.9
v 5.69658 4.31139 0.9
v 5.77359 4.32446 0.9
v 5.86708 4.32446 0.9
v 5.97025 4.28571 0.9
v 5.97025 4.31139 0.9
v 6.24201 4.28571 0.9
v 6.24201 4.31139 0.9
v 5.86708 4.54049 0.9
v 5.86708 4.58409 0.9
v 5.91745 4.58409 0.9
v 5.69028 4.90959 0.9
v 5.69028 4.93526 0.9
v 5.77359 4.89699 0.9
v 5.86708 4.89166 0.9
v 5.91454 4.89166 0.9
v 5.93537 4.93526 0.9
v 5.94021 4.54049 0.9
v 5.98859 4.59342 0.9
v 6.03994 4.55345 0.9
v 6.0383 4.62139 0.9
v 6.06754 4.67043 0.9
v 6.11338 4.59232 0.9
v 6.15861 4.65614 0.9
v 6.07729 4.74296 0.9
v 6.06797 4.8115 0.9
v 5.98998 4.88307 0.9
v 6.03999 4.85727 0.9
v 6.17369 4.74394 0.9
v 6.11411 4.88743 0.9
v 6.24201 4.90959 0.9
v 6.24201 4.93526 0.9
v 5.12884 4.362 1.1
v 5.23444 4.29752 1.1
v 5.27519 4.33197 1.1
v 5.37491 4.27603 1.1
v 5.37588 4.31332 1.1
v 5.42952 4.31665 1.1
v 5.49346 4.28366 1.1
v 5.48001 4.32664 1.1
v 5.52385 4.3422 1.1
v 5.55751 4.36224 1.1
v 5.60401 4.30654 1.1
v 5.06273 4.46523 1.1
v 5.04069 4.60298 1.1
v 5.14192 4.60395 1.1
v 5.20174 4.38791 1.1
v 5.15688 4.47922 1.1
v 5.06188 4.75017 1.1
v 5.15621 4.73739 1.1
v 5.12545 4.85655 1.1
v 5.19908 4.83064 1.1
v 5.23068 4.92103 1.1
v 5.27307 4.88549 1.1
v 5.57544 4.45912 1.1
v 5.60692 4.45912 1.1
v 5.38072 4.90378 1.1
v 5.37684 4.94253 1.1
v 5.4268 4.90093 1.1
v 5.56526 4.7759 1.1
v 5.59724 4.7759 1.1
v 5.47202 4.89239 1.1
v 5.5141 4.87865 1.1
v 5.48183 4.93635 1.1
v 5.55074 4.86019 1.1
v 5.59433 4.91782 1.1
v 5.69658 4.28571 1.1
v 5.69658 4.31139 1.1
v 5.77359 4.32446 1.1
v 5.86708 4.32446 1.1
v 5.97025 4.28571 1.1
v 5.97025 4.31139 1.1
v 6.24201 4.28571 1.1
v 6.24201 4.31139 1.1
v 5.86708 4.54049 1.1
v 5.86708 4.58409 1.1
v 5.91745 4.58409 1.1
v 5.69028 4.90959 1.1
v 5.69028 4.93526 1.1
v 5.77359 4.89699 1.1
v 5.86708 4.89166 1.1
v 5.91454 4.89166 1.1
v 5.93537 4.93526 1.1
v 5.94021 4.54049 1.1
v 5.98859 4.59342 1.1
v 6.03994 4.55345 1.1
v 6.0383 4.62139 1.1
v 6.06754 4.67043 1.1
v 6.11338 4.59232 1.1
v 6.15861 4.65614 1.1
v 6.07729 4.74296 1.1
v 6.06797 4.8115 1.1
v 5.98998 4.88307 1.1
v 6.03999 4.85727 1.1
v 6.17369 4.74394 1.1
v 6.11411 4.88743 1.1
v 6.24201 4.90959 1.1
v 6.24201 4.93526 1.1
v 6.32533 4.32446 0.9
v 6.37619 4.32446 0.9
v 6.46337 4.28571 0.9
v 6.46337 4.31139 0.9
v 6.77676 4.28571 0.9
v 6.82375 4.28571 0.9
v 6.32533 4.89699 0.9
v 6.37619 4.86987 0.9
v 6.43867 4.93526 0.9
v 6.77289 4.45428 0.9
v 6.6857 4.90959 0.9
v 6.6857 4.93526 0.9
v 6.77289 4.89699 0.9
v 6.82375 4.89699 0.9
v 6.90706 4.90959 0.9
v 6.90706 4.93526 0.9
v 6.32533 4.32446 1.1
v 6.37619 4.32446 1.1
v 6.46337 4.28571 1.1
v 6.46337 4.31139 1.1
v 6.77676 4.28571 1.1
v 6.82375 4.28571 1.1
v 6.32533 4.89699 1.1
v 6.37619 4.86987 1.1
v 6.43867 4.93526 1.1
v 6.77289 4.45428 1.1
v 6.6857 4.90959 1.1
v 6.6857 4.93526 1.1
v 6.77289 4.89699 1.1
v 6.82375 4.89699 1.1
v 6.90706 4.90959 1.1
v 6.90706 4.93526 1.1
v 7.57434 1.42857 0.9
v 7.62133 1.42857 0.9
v 7.57046 1.59714 0.9
v 7.57046 2.03985 0.9
v 7.62133 2.03985 0.9
v 7.70464 2.05245 0.9
v 7.70464 2.07812 0.9
v 7.57434 1.42857 1.1
v 7.62133 1.42857 1.1
v 7.57046 1.59714 1.1
v 7.57046 2.03985 1.1
v 7.62133 2.03985 1.1
v 7.70464 2.05245 1.1
v 7.70464 2.07812 1.1
v 10 0 0.9
v 10 10 0
v 5.06273 5.89381 0.9
v 5.12884 5.79057 0.9
v 5.23444 5.72609 0.9
v 5.27519 5.76054 0.9
v 5.20174 5.81649 0.9
v 5.15688 5.90779 0.9
v 5.04069 6.03155 0.9
v 5.14192 6.03252 0.9
v 5.06188 6.17874 0.9
v 5.15621 6.16596 0.9
v 5.37491 5.7046 0.9
v 5.37588 5.74189 0.9
v 5.42952 5.74522 0.9
v 5.49346 5.71223 0.9
v 5.48001 5.75521 0.9
v 5.52385 5.77078 0.9
v 5.60401 5.73511 0.9
v 5.55751 5.79081 0.9
v 5.57544 5.88769 0.9
v 5.60692 5.88769 0.9
v 5.56526 6.20447 0.9
v 5.59724 6.20447 0.9
v 5.69658 5.71429 0.9
v 5.69658 5.73996 0.9
v 5.77359 5.75304 0.9
v 5.86708 5.75304 0.9
v 5.86708 5.96906 0.9
v 5.86708 6.01266 0.9
v 5.91745 6.01266 0.9
v 5.97025 5.71429 0.9
v 5.97025 5.73996 0.9
v 6.24201 5.71429 0.9
v 6.24201 5.73996 0.9
v 5.94021 5.96906 0.9
v 5.98859 6.02199 0.9
v 6.03994 5.98202 0.9
v 6.0383 6.04996 0.9
v 6.06754 6.099 0.9
v 6.07729 6.17154 0.9
v 6.06797 6.24007 0.9
v 6.11338 6.02089 0.9
v 6.15861 6.08471 0.9
v 6.17369 6.17251 0.9
v 5.06273 5.89381 1.1
v 5.12884 5.79057 1.1
v 5.23444 5.72609 1.1
v 5.27519 5.76054 1.1
v 5.20174 5.81649 1.1
v 5.15688 5.90779 1.1
v 5.04069 6.03155 1.1
v 5.14192 6.03252 1.1
v 5.06188 6.17874 1.1
v 5.15621 6.16596 1.1
v 5.37491 5.7046 1.1
v 5.37588 5.74189 1.1
v 5.42952 5.74522 1.1
v 5.49346 5.71223 1.1
v 5.48001 5.75521 1.1
v 5.52385 5.77078 1.1
v 5.60401 5.73511 1.1
v 5.55751 5.79081 1.1
v 5.57544 5.88769 1.1
v 5.60692 5.88769 1.1
v 5.56526 6.20447 1.1
v 5.59724 6.20447 1.1
v 5.69658 5.71429 1.1
v 5.69658 5.73996 1.1
v 5.77359 5.75304 1.1
v 5.86708 5.75304 1.1
v 5.86708 5.96906 1.1
v 5.86708 6.01266 1.1
v 5.91745 6.01266 1.1
v 5.97025 5.71429 1.1
v 5.97025 5.73996 1.1
v 6.24201 5.71429 1.1
v 6.24201 5.73996 1.1
v 5.94021 5.96906 1.1
v 5.98859 6.02199 1.1
v 6.03994 5.98202 1.1
v 6.0383 6.04996 1.1
v 6.06754 6.099 1.1
v 6.07729 6.17154 1.1
v 6.06797 6.24007 1.1
v 6.11338 6.02089 1.1
v 6.15861 6.08471 1.1
v 6.17369 6.17251 1.1
v 5.12545 6.28512 0.9
v 5.19908 6.25921 0.9
v 5.23068 6.34961 0.9
v 5.27307 6.31406 0.9
v 5.38072 6.33235 0.9
v 5.37684 6.3711 0.9
v 5.4268 6.3295 0.9
v 5.47202 6.32096 0.9
v 5.5141 6.30722 0.9
v 5.48183 6.36492 0.9
v 5.55074 6.28876 0.9
v 5.59433 6.34639 0.9
v 5.2598 7.14286 0.9
v 5.10983 7.21261 0.9
v 5.2598 7.18907 0.9
v 5.43551 7.46599 0.9
v 5.55452 7.28017 0.9
v 5.60498 7.49117 0.9
v 5.69028 6.33816 0.9
v 5.69028 6.36384 0.9
v 5.77359 6.32556 0.9
v 5.86708 6.32024 0.9
v 5.91454 6.32024 0.9
v 5.93537 6.36384 0.9
v 5.98998 6.31164 0.9
v 6.03999 6.28584 0.9
v 6.11411 6.316 0.9
v 6.24201 6.33816 0.9
v 6.24201 6.36384 0.9
v 5.74459 7.16411 0.9
v 5.68574 7.32682 0.9
v 5.81794 7.22612 0.9
v 5.99744 7.12542 0.9
v 6.21082 7.13915 0.9
v 5.99919 7.19255 0.9
v 6.09574 7.19854 0.9
v 6.18663 7.21653 0.9
v 5.12545 6.28512 1.1
v 5.19908 6.25921 1.1
v 5.23068 6.34961 1.1
v 5.27307 6.31406 1.1
v 5.38072 6.33235 1.1
v 5.37684 6.3711 1.1
v 5.4268 6.3295 1.1
v 5.47202 6.32096 1.1
v 5.5141 6.30722 1.1
v 5.48183 6.36492 1.1
v 5.55074 6.28876 1.1
v 5.59433 6.34639 1.1
v 5.2598 7.14286 1.1
v 5.10983 7.21261 1.1
v 5.2598 7.18907 1.1
v 5.43551 7.46599 1.1
v 5.55452 7.28017 1.1
v 5.60498 7.49117 1.1
v 5.69028 6.33816 1.1
v 5.69028 6.36384 1.1
v 5.77359 6.32556 1.1
v 5.86708 6.32024 1.1
v 5.91454 6.32024 1.1
v 5.93537 6.36384 1.1
v 5.98998 6.31164 1.1
v 6.03999 6.28584 1.1
v 6.11411 6.316 1.1
v 6.24201 6.33816 1.1
v 6.24201 6.36384 1.1
v 5.74459 7.16411 1.1
v 5.68574 7.32682 1.1
v 5.81794 7.22612 1.1
v 5.99744 7.12542 1.1
v 6.21082 7.13915 1.1
v 5.99919 7.19255 1.1
v 6.09574 7.19854 1.1
v 6.18663 7.21653 1.1
v 6.32533 5.75304 0.9
v 6.37619 5.75304 0.9
v 6.46337 5.71429 0.9
v 6.46337 5.73996 0.9
v 6.77676 5.71429 0.9
v 6.82375 5.71429 0.9
v 6.77289 5.88285 0.9
v 6.32533 5.75304 1.1
v 6.37619 5.75304 1.1
v 6.46337 5.71429 1.1
v 6.46337 5.73996 1.1
v 6.77676 5.71429 1.1
v 6.82375 5.71429 1.1
v 6.77289 5.88285 1.1
v 6.32533 6.32556 0.9
v 6.37619 6.29844 0.9
v 6.43867 6.36384 0.9
v 6.6857 6.33816 0.9
v 6.6857 6.36384 0.9
v 6.77289 6.32556 0.9
v 6.82375 6.32556 0.9
v 6.40983 7.18035 0.9
v 6.26553 7.24454 0.9
v 6.32613 7.28061 0.9
v 6.35839 7.45499 0.9
v 6.41506 7.45499 0.9
v 6.6087 7.16291 0.9
v 6.76128 7.1348 0.9
v 6.69589 7.24487 0.9
v 6.59911 7.40878 0.9
v 6.65665 7.40878 0.9
v 6.73698 7.22699 0.9
v 6.79223 7.21173 0.9
v 6.8525 7.20127 0.9
v 6.90706 6.33816 0.9
v 6.90706 6.36384 0.9
v 6.92257 7.12542 0.9
v 7.09804 7.14766 0.9
v 6.90862 7.19778 0.9
v 7.02764 7.21348 0.9
v 7.1109 7.26055 0.9
v 7.15995 7.34426 0.9
v 7.1763 7.46981 0.9
v 7.485 7.14286 0.9
v 7.2286 7.21436 0.9
v 7.30969 7.32051 0.9
v 7.33671 7.4611 0.9
v 7.485 7.27102 0.9
v 6.32533 6.32556 1.1
v 6.37619 6.29844 1.1
v 6.43867 6.36384 1.1
v 6.6857 6.33816 1.1
v 6.6857 6.36384 1.1
v 6.77289 6.32556 1.1
v 6.82375 6.32556 1.1
v 6.40983 7.18035 1.1
v 6.26553 7.24454 1.1
v 6.32613 7.28061 1.1
v 6.35839 7.45499 1.1
v 6.41506 7.45499 1.1
v 6.6087 7.16291 1.1
v 6.76128 7.1348 1.1
v 6.69589 7.24487 1.1
v 6.59911 7.40878 1.1
v 6.65665 7.40878 1.1
v 6.73698 7.22699 1.1
v 6.79223 7.21173 1.1
v 6.8525 7.20127 1.1
v 6.90706 6.33816 1.1
v 6.90706 6.36384 1.1
v 6.92257 7.12542 1.1
v 7.09804 7.14766 1.1
v 6.90862 7.19778 1.1
v 7.02764 7.21348 1.1
v 7.1109 7.26055 1.1
v 7.15995 7.34426 1.1
v 7.1763 7.46981 1.1
v 7.485 7.14286 1.1
v 7.2286 7.21436 1.1
v 7.30969 7.32051 1.1
v 7.33671 7.4611 1.1
v 7.485 7.27102 1.1
v 5.39584 7.71393 0.9
v 5.57806 7.71568 0.9
v 5.43398 7.97887 0.9
v 5.60378 7.95588 0.9
v 5.10983 8.24316 0.9
v 5.2598 8.26584 0.9
v 5.2598 8.31205 0.9
v 5.54841 8.17036 0.9
v 5.68095 8.12372 0.9
v 5.73784 8.28643 0.9
v 5.81413 8.22246 0.9
v 6.0079 8.25537 0.9
v 6.09084 8.25025 0.9
v 6.00092 8.32512 0.9
v 6.17224 8.23488 0.9
v 6.24799 8.21014 0.9
v 6.1899 8.314 0.9
v 5.39584 7.71393 1.1
v 5.57806 7.71568 1.1
v 5.43398 7.97887 1.1
v 5.60378 7.95588 1.1
v 5.10983 8.24316 1.1
v 5.2598 8.26584 1.1
v 5.2598 8.31205 1.1
v 5.54841 8.17036 1.1
v 5.68095 8.12372 1.1
v 5.73784 8.28643 1.1
v 5.81413 8.22246 1.1
v 6.0079 8.25537 1.1
v 6.09084 8.25025 1.1
v 6.00092 8.32512 1.1
v 6.17224 8.23488 1.1
v 6.24799 8.21014 1.1
v 6.1899 8.314 1.1
v 6.34008 8.02519 0.9
v 6.39763 8.02519 0.9
v 6.80487 7.71742 0.9
v 6.80487 7.78892 0.9
v 6.63486 8.06268 0.9
v 6.69241 8.06268 0.9
v 6.31393 8.17691 0.9
v 6.3924 8.28065 0.9
v 6.63486 8.28763 0.9
v 6.71528 8.30648 0.9
v 6.72292 8.20567 0.9
v 6.76433 8.22453 0.9
v 6.81185 8.23924 0.9
v 6.86133 8.24873 0.9
v 6.78394 8.3177 0.9
v 6.8465 8.32327 0.9
v 6.92955 7.71045 0.9
v 6.92955 7.79676 0.9
v 7.02807 7.75491 0.9
v 7.16125 7.57106 0.9
v 7.11613 7.64462 0.9
v 7.0394 7.69094 0.9
v 7.16582 7.72298 0.9
v 7.13629 7.78597 0.9
v 7.01521 7.81463 0.9
v 7.07515 7.85779 0.9
v 7.11046 7.92798 0.9
v 7.12223 8.02694 0.9
v 7.31797 7.57673 0.9
v 7.26173 7.6638 0.9
v 7.21682 7.84428 0.9
v 7.26685 7.92853 0.9
v 7.28352 8.03741 0.9
v 6.90862 8.25189 0.9
v 7.00507 8.23848 0.9
v 6.90862 8.32512 0.9
v 7.07123 8.19826 0.9
v 7.10948 8.12862 0.9
v 7.1898 8.25319 0.9
v 6.34008 8.02519 1.1
v 6.39763 8.02519 1.1
v 6.80487 7.71742 1.1
v 6.80487 7.78892 1.1
v 6.63486 8.06268 1.1
v 6.69241 8.06268 1.1
v 6.31393 8.17691 1.1
v 6.3924 8.28065 1.1
v 6.63486 8.28763 1.1
v 6.71528 8.30648 1.1
v 6.72292 8.20567 1.1
v 6.76433 8.22453 1.1
v 6.81185 8.23924 1.1
v 6.86133 8.24873 1.1
v 6.78394 8.3177 1.1
v 6.8465 8.32327 1.1
v 6.92955 7.71045 1.1
v 6.92955 7.79676 1.1
v 7.02807 7.75491 1.1
v 7.16125 7.57106 1.1
v 7.11613 7.64462 1.1
v 7.0394 7.69094 1.1
v 7.16582 7.72298 1.1
v 7.13629 7.78597 1.1
v 7.01521 7.81463 1.1
v 7.07515 7.85779 1.1
v 7.11046 7.92798 1.1
v 7.12223 8.02694 1.1
v 7.31797 7.57673 1.1
v 7.26173 7.6638 1.1
v 7.21682 7.84428 1.1
v 7.26685 7.92853 1.1
v 7.28352 8.03741 1.1
v 6.90862 8.25189 1.1
v 7.00507 8.23848 1.1
v 6.90862 8.32512 1.1
v 7.07123 8.19826 1.1
v 7.10948 8.12862 1.1
v 7.1898 8.25319 1.1
v 7.59922 7.27712 0.9
v 7.64716 7.41837 0.9
v 7.68401 7.3532 0.9
v 7.764 7.42273 0.9
v 8.20081 7.14286 0.9
v 8.20081 7.27712 0.9
v 7.59922 7.27712 1.1
v 7.64716 7.41837 1.1
v 7.68401 7.3532 1.1
v 7.764 7.42273 1.1
v 8.20081 7.14286 1.1
v 8.20081 7.27712 1.1
v 7.78253 7.54217 0.9
v 7.52424 8.06268 0.9
v 7.58177 8.06268 0.9
v 7.87647 7.63982 0.9
v 7.91963 7.55994 0.9
v 7.93935 7.7257 0.9
v 8.02381 7.66293 0.9
v 8.09215 7.74903 0.9
v 7.98153 7.81419 0.9
v 8.0054 7.91054 0.9
v 8.01336 8.01996 0.9
v 8.0005 8.11979 0.9
v 7.6123 8.20567 0.9
v 7.65262 8.22453 0.9
v 7.52424 8.28763 0.9
v 7.69861 8.23924 0.9
v 7.74678 8.24873 0.9
v 7.79365 8.25189 0.9
v 7.67093 8.31575 0.9
v 7.79365 8.32512 0.9
v 7.96192 8.19259 0.9
v 7.89413 8.23706 0.9
v 7.96159 8.30518 0.9
v 8.0818 8.24534 0.9
v 8.14021 7.83556 0.9
v 8.16866 7.92503 0.9
v 8.17814 8.01996 0.9
v 8.15405 8.14911 0.9
v 7.78253 7.54217 1.1
v 7.52424 8.06268 1.1
v 7.58177 8.06268 1.1
v 7.87647 7.63982 1.1
v 7.91963 7.55994 1.1
v 7.93935 7.7257 1.1
v 8.02381 7.66293 1.1
v 8.09215 7.74903 1.1
v 7.98153 7.81419 1.1
v 8.0054 7.91054 1.1
v 8.01336 8.01996 1.1
v 8.0005 8.11979 1.1
v 7.6123 8.20567 1.1
v 7.65262 8.22453 1.1
v 7.52424 8.28763 1.1
v 7.69861 8.23924 1.1
v 7.74678 8.24873 1.1
v 7.79365 8.25189 1.1
v 7.67093 8.31575 1.1
v 7.79365 8.32512 1.1
v 7.96192 8.19259 1.1
v 7.89413 8.23706 1.1
v 7.96159 8.30518 1.1
v 8.0818 8.24534 1.1
v 8.14021 7.83556 1.1
v 8.16866 7.92503 1.1
v 8.17814 8.01996 1.1
v 8.15405 8.14911 1.1
v 10 10 0.9
f  2 3 4
f  2 4 5
f  2 17 3
f  2 33 17
f  2 40 33
f  2 91 40
f  2 5 6
f  7 5 4
f  7 4 19
f  1 2 412
f  2 384 385
f  2 6 384
f  6 147 384
f  1 1080 2
f  2 92 91
f  2 94 92
f  2 95 94
f  2 104 95
f  2 105 104
f  2 700 105
f  2 701 700
f  2 703 701
f  15 19 4
f  16 32 20
f  17 37 18
f  34 17 33
f  35 17 34
f  16 18 32
f  32 18 37
f  8 21 22
f  22 25 23
f  21 26 22
f  25 22 24
f  26 24 22
f  20 32 27
f  27 32 28
f  28 31 29
f  31 28 30
f  32 30 28
f  35 37 17
f  40 91 41
f  36 41 97
f  36 97 38
f  97 41 91
f  39 43 42
f  39 47 43
f  43 46 44
f  46 43 45
f  47 45 43
f  29 31 216
f  38 49 48
f  38 50 49
f  38 97 50
f  49 52 51
f  52 49 50
f  44 216 31
f  44 46 215
f  51 215 46
f  2 718 703
f  2 720 718
f  2 721 720
f  2 760 721
f  96 92 94
f  93 99 98
f  93 101 99
f  99 101 100
f  51 52 215
f  100 215 52
f  100 101 215
f  103 107 102
f  108 102 107
f  102 215 101
f  102 108 219
f  95 104 115
f  110 95 111
f  95 112 111
f  112 95 115
f  103 109 107
f  111 114 113
f  114 111 112
f  227 108 113
f  113 114 231
f  106 117 116
f  106 706 117
f  117 706 118
f  118 233 114
f  23 148 6
f  23 25 149
f  29 149 25
f  159 6 148
f  147 6 159
f  148 23 149
f  29 216 223
f  29 223 221
f  29 221 149
f  149 222 151
f  151 222 154
f  288 158 287
f  150 177 160
f  161 177 162
f  160 177 161
f  162 177 164
f  164 177 165
f  165 177 168
f  152 177 150
f  153 178 152
f  155 178 153
f  152 178 177
f  156 178 155
f  157 178 156
f  157 169 178
f  170 300 169
f  158 302 170
f  168 177 171
f  171 177 172
f  172 177 174
f  174 179 175
f  179 174 177
f  169 300 178
f  178 300 180
f  301 180 300
f  44 215 216
f  215 102 219
f  219 108 227
f  217 223 216
f  218 220 228
f  219 228 220
f  228 219 227
f  218 228 241
f  218 225 224
f  218 239 225
f  218 241 239
f  225 240 226
f  240 225 239
f  113 231 227
f  114 233 231
f  229 241 228
f  230 232 234
f  231 234 232
f  234 231 233
f  230 234 247
f  233 118 237
f  118 830 237
f  235 247 234
f  236 238 831
f  237 831 238
f  230 243 242
f  230 245 243
f  230 247 245
f  243 246 244
f  246 243 245
f  236 249 248
f  236 840 249
f  249 841 250
f  222 149 221
f  154 222 158
f  158 222 287
f  287 222 291
f  289 158 288
f  226 291 222
f  226 240 293
f  226 293 291
f  291 294 292
f  294 291 293
f  289 302 158
f  290 292 295
f  295 292 297
f  297 292 307
f  298 299 296
f  299 308 296
f  308 309 296
f  302 300 170
f  304 303 296
f  312 314 296
f  305 304 296
f  314 305 296
f  292 294 307
f  307 294 310
f  309 313 296
f  310 319 311
f  319 310 294
f  311 319 316
f  319 325 316
f  313 312 296
f  316 317 315
f  318 315 317
f  317 316 325
f  244 293 240
f  244 321 293
f  244 246 321
f  321 323 322
f  250 323 246
f  246 323 321
f  250 324 323
f  902 324 250
f  322 326 320
f  322 323 326
f  330 327 329
f  914 324 913
f  324 914 918
f  324 918 332
f  328 329 327
f  328 331 329
f  332 918 333
f  1 412 383
f  1 383 1081
f  383 412 1081
f  2 403 402
f  2 404 403
f  2 402 413
f  2 385 404
f  2 413 412
f  384 445 386
f  386 390 389
f  430 389 390
f  404 385 405
f  412 413 414
f  412 414 415
f  412 415 416
f  412 416 417
f  412 417 418
f  405 387 406
f  387 425 406
f  387 405 385
f  425 387 427
f  387 429 427
f  425 428 426
f  425 427 428
f  426 431 439
f  426 428 431
f  389 430 388
f  392 640 431
f  439 640 440
f  439 431 640
f  643 441 640
f  440 640 441
f  163 384 147
f  166 384 163
f  166 447 384
f  167 446 166
f  166 446 447
f  167 450 446
f  167 455 450
f  167 459 455
f  173 525 167
f  176 525 173
f  180 525 176
f  180 301 525
f  167 461 459
f  167 525 461
f  451 465 448
f  449 465 452
f  448 465 449
f  452 465 454
f  454 465 494
f  456 465 451
f  457 465 456
f  458 465 457
f  460 465 458
f  526 461 525
f  462 465 460
f  461 527 464
f  462 463 465
f  464 465 463
f  527 465 464
f  465 527 466
f  445 384 447
f  453 386 445
f  386 453 390
f  390 453 391
f  391 493 489
f  493 391 453
f  489 493 496
f  490 391 489
f  391 490 491
f  494 465 495
f  489 496 498
f  489 498 502
f  489 502 504
f  495 465 497
f  497 465 499
f  499 465 500
f  503 501 500
f  503 500 465
f  466 581 504
f  582 504 581
f  505 504 582
f  587 505 582
f  504 505 489
f  492 506 593
f  505 587 506
f  506 587 592
f  593 506 592
f  306 525 301
f  306 529 525
f  315 529 306
f  315 318 529
f  327 529 318
f  529 330 530
f  533 530 334
f  461 526 527
f  528 530 531
f  531 530 533
f  527 581 466
f  527 583 581
f  532 534 535
f  535 539 532
f  539 541 532
f  585 584 532
f  586 585 532
f  588 586 532
f  542 588 532
f  537 533 536
f  537 538 533
f  538 537 540
f  546 540 537
f  541 543 532
f  543 542 532
f  540 546 544
f  544 546 598
f  544 598 545
f  529 327 330
f  530 330 334
f  533 922 536
f  533 334 922
f  922 548 536
f  549 599 547
f  548 551 549
f  549 551 599
f  1088 552 1082
f  550 601 600
f  550 603 601
f  552 1088 1090
f  552 1090 605
f  552 605 604
f  592 587 589
f  545 590 589
f  591 589 590
f  590 545 598
f  592 589 591
f  600 595 591
f  592 591 595
f  596 597 649
f  649 597 652
f  652 597 661
f  602 600 601
f  595 600 602
f  595 602 606
f  595 606 1173
f  595 1186 607
f  595 608 597
f  595 607 608
f  597 608 661
f  391 491 639
f  441 643 655
f  492 642 641
f  492 656 642
f  492 593 656
f  642 655 643
f  655 642 654
f  656 654 642
f  412 418 1504
f  594 656 593
f  651 653 650
f  653 662 650
f  662 665 650
f  658 657 650
f  659 658 650
f  650 665 666
f  650 666 667
f  669 659 650
f  650 667 669
f  608 663 661
f  673 663 608
f  609 673 608
f  663 673 664
f  664 673 668
f  660 670 672
f  668 671 670
f  672 670 671
f  671 668 673
f  1504 418 441
f  1 699 1080
f  1 1081 699
f  699 1081 1080
f  2 1080 760
f  702 105 700
f  704 701 703
f  701 712 711
f  701 704 724
f  701 714 712
f  701 724 714
f  705 708 707
f  709 707 708
f  118 706 830
f  707 830 706
f  830 707 709
f  705 710 708
f  712 715 713
f  715 712 714
f  713 836 709
f  836 713 715
f  718 720 719
f  716 724 704
f  719 723 717
f  723 719 720
f  721 768 729
f  725 850 715
f  725 727 856
f  722 726 725
f  727 725 726
f  722 728 726
f  769 856 727
f  769 771 857
f  761 721 760
f  721 761 773
f  762 773 761
f  721 770 768
f  721 773 770
f  765 772 763
f  764 766 765
f  772 765 766
f  768 771 769
f  771 768 770
f  774 857 771
f  857 774 776
f  767 775 774
f  776 774 775
f  767 777 775
f  787 857 776
f  780 778 779
f  778 780 791
f  778 786 785
f  778 789 786
f  778 791 789
f  781 791 780
f  783 1066 784
f  784 788 782
f  788 784 1066
f  786 790 787
f  790 786 789
f  1068 793 792
f  794 792 793
f  830 709 834
f  831 237 830
f  236 831 842
f  832 842 831
f  833 835 837
f  834 709 836
f  836 715 850
f  834 837 835
f  837 834 836
f  833 837 848
f  838 848 837
f  839 851 853
f  236 842 840
f  833 844 843
f  833 846 844
f  841 249 840
f  833 848 846
f  839 858 849
f  839 860 858
f  844 847 845
f  847 844 846
f  725 852 850
f  852 725 856
f  850 853 851
f  853 850 852
f  839 853 862
f  854 862 853
f  857 863 855
f  769 857 856
f  839 862 860
f  858 861 859
f  861 858 860
f  250 841 903
f  902 250 903
f  845 903 841
f  903 845 905
f  913 324 902
f  906 916 904
f  845 847 905
f  859 905 847
f  859 908 905
f  859 912 908
f  917 906 907
f  917 907 909
f  906 917 916
f  924 915 917
f  924 919 915
f  919 924 921
f  920 333 918
f  922 334 333
f  922 333 920
f  917 909 910
f  917 910 911
f  917 911 924
f  925 923 924
f  929 925 930
f  921 924 923
f  923 925 926
f  926 925 928
f  928 925 931
f  931 925 934
f  934 925 929
f  931 934 932
f  859 861 936
f  859 936 912
f  936 861 865
f  937 912 936
f  940 943 941
f  943 940 942
f  912 937 949
f  938 949 937
f  912 949 925
f  939 941 944
f  944 941 953
f  946 954 945
f  925 947 930
f  949 947 925
f  930 947 935
f  951 950 945
f  962 951 945
f  953 941 955
f  941 943 955
f  954 956 945
f  956 957 945
f  957 960 945
f  955 943 958
f  1034 958 943
f  958 1034 959
f  960 961 945
f  961 963 945
f  963 962 945
f  959 1040 964
f  964 966 965
f  967 965 966
f  966 964 1040
f  863 857 787
f  863 792 864
f  864 794 865
f  863 787 790
f  863 790 792
f  936 865 1072
f  864 792 794
f  1072 865 794
f  1080 940 936
f  1080 942 940
f  1036 1038 1037
f  1037 1041 1035
f  959 1034 1040
f  1041 1037 1038
f  1043 1044 1042
f  1045 1042 1044
f  1043 1046 1044
f  1039 1048 1047
f  1080 764 760
f  1080 766 764
f  1080 778 766
f  1080 779 778
f  1080 783 779
f  1080 1066 783
f  1080 1067 1066
f  1080 1071 1067
f  1067 1071 1070
f  1068 1069 793
f  1080 936 1072
f  1080 1072 1071
f  1080 1036 942
f  1080 1038 1036
f  1080 1039 1038
f  1080 1048 1039
f  1080 1049 1048
f  1080 1247 1049
f  1080 1276 1247
f  1080 1277 1276
f  1080 1440 1277
f  1080 1441 1440
f  927 548 922
f  933 548 927
f  935 548 933
f  935 947 548
f  947 551 548
f  947 552 551
f  948 1084 552
f  948 552 947
f  948 1092 1084
f  948 1095 1092
f  948 1098 1095
f  1083 552 1084
f  1082 552 1083
f  1086 1102 1087
f  1087 1102 1089
f  1089 1102 1091
f  1091 1102 1169
f  1085 1102 1086
f  1093 1102 1085
f  1094 1103 1093
f  1096 1103 1094
f  1097 1103 1096
f  1099 1103 1097
f  1093 1103 1102
f  1099 1100 1103
f  1101 1186 1100
f  1100 1186 1103
f  952 1104 948
f  965 1104 952
f  948 1104 1098
f  965 967 1104
f  1042 1111 967
f  967 1111 1104
f  1105 1098 1104
f  1098 1105 1106
f  1107 1112 1108
f  1108 1112 1115
f  1098 1188 1101
f  1098 1106 1188
f  1188 1186 1101
f  1110 1116 1109
f  1190 1189 1109
f  1192 1190 1109
f  1111 1114 1112
f  1115 1112 1117
f  1112 1114 1117
f  1114 1111 1113
f  1117 1114 1122
f  1242 1122 1114
f  1116 1118 1109
f  1118 1119 1109
f  1119 1120 1109
f  1120 1121 1109
f  1193 1192 1109
f  1121 1193 1109
f  1122 1242 1123
f  1123 1242 1124
f  1168 605 1090
f  605 1168 606
f  1170 606 1168
f  1173 606 1170
f  595 1173 1177
f  595 1177 1179
f  595 1179 1186
f  1169 1102 1171
f  1171 1102 1172
f  1172 1102 1174
f  1174 1102 1175
f  1178 1175 1102
f  1178 1176 1175
f  1187 607 1186
f  607 1187 1180
f  1182 1324 1181
f  1180 1187 1197
f  1180 1184 1182
f  1183 1182 1184
f  1182 1183 1324
f  1184 1180 1197
f  1103 1186 1179
f  1124 1195 1194
f  1195 1124 1256
f  1196 1194 1195
f  1191 1268 1187
f  1194 1268 1191
f  1197 1187 1200
f  1200 1187 1201
f  1201 1187 1263
f  1268 1263 1187
f  1202 1358 1199
f  1203 1359 1202
f  1204 1359 1203
f  1042 1045 1111
f  1045 1113 1111
f  1045 1244 1113
f  1049 1246 1045
f  1045 1246 1244
f  1049 1247 1246
f  1245 1257 1243
f  1257 1245 1246
f  1242 1256 1124
f  1244 1246 1245
f  1248 1259 1258
f  1248 1261 1259
f  1247 1276 1262
f  1194 1196 1268
f  1258 1268 1196
f  1260 1258 1259
f  1268 1258 1260
f  1277 1269 1260
f  1277 1278 1269
f  1264 1359 1204
f  1263 1268 1271
f  1263 1271 1267
f  1272 1267 1271
f  1268 1260 1269
f  1274 1270 1273
f  1275 1270 1274
f  1270 1275 1272
f  1280 1272 1275
f  1281 1272 1280
f  1267 1272 1284
f  1278 1277 1279
f  1279 1277 1286
f  1282 1272 1281
f  1283 1272 1282
f  1377 1267 1284
f  1284 1272 1283
f  1277 1285 1286
f  1289 1287 1286
f  1289 1286 1285
f  1287 1289 1437
f  1287 1437 1288
f  412 1504 1081
f  1181 1329 1328
f  1181 1326 1329
f  1181 1324 1326
f  1329 1331 1330
f  1331 1329 1326
f  1333 1330 1331
f  1198 1358 1185
f  1185 1358 1325
f  1325 1358 1327
f  1327 1358 1332
f  1199 1358 1198
f  1202 1359 1358
f  1332 1358 1334
f  1337 1330 1333
f  1334 1358 1335
f  1335 1358 1336
f  1336 1358 1338
f  1364 1339 1338
f  1504 441 655
f  1504 655 660
f  1265 1359 1264
f  1265 1266 1359
f  1267 1359 1266
f  1267 1360 1359
f  1360 1267 1374
f  1374 1267 1379
f  1379 1267 1378
f  1359 1361 1362
f  1361 1359 1360
f  1362 1361 1363
f  1375 1363 1361
f  1364 1338 1358
f  1359 1366 1365
f  1366 1359 1362
f  1363 1369 1368
f  1369 1363 1370
f  1370 1363 1371
f  1371 1363 1391
f  1391 1363 1392
f  1378 1267 1377
f  1376 1380 1381
f  1382 1363 1375
f  1383 1363 1382
f  1384 1363 1383
f  1385 1363 1384
f  1395 1363 1385
f  1387 1381 1380
f  1387 1388 1381
f  1288 1448 1386
f  1386 1451 1387
f  1388 1387 1451
f  1388 1451 1389
f  1389 1449 1390
f  1449 1389 1450
f  1392 1363 1394
f  1394 1363 1395
f  1390 1462 1396
f  1462 1390 1449
f  1504 660 672
f  1504 672 1330
f  1504 1330 1337
f  1504 1337 1340
f  1080 1081 1504
f  1285 1277 1440
f  1448 1288 1437
f  1436 1441 1438
f  1438 1441 1439
f  1439 1441 1452
f  1452 1441 1454
f  1080 1504 1441
f  1386 1448 1451
f  1453 1389 1451
f  1389 1457 1450
f  1456 1389 1453
f  1457 1389 1456
f  1458 1450 1457
f  1459 1450 1458
f  1450 1461 1460
f  1461 1450 1463
f  1463 1450 1464
f  1464 1450 1465
f  1465 1450 1469
f  1468 1450 1459
f  1469 1450 1468
f  1504 1454 1441
f  1504 1455 1454
f  1504 1472 1455
f  1504 1340 1365
f  1504 1365 1366
f  1504 1366 1367
f  1504 1367 1372
f  1504 1372 1373
f  1504 1373 1393
f  1504 1393 1396
f  1504 1396 1462
f  1504 1462 1466
f  1504 1466 1467
f  1504 1467 1470
f  1504 1471 1475
f  1504 1470 1471
f  1504 1473 1472
f  1504 1474 1473
f  1504 1475 1474
f  9 4 3
f  9 10 4
f  11 6 5
f  13 5 7
f  12 23 6
f  11 12 6
f  11 5 13
f  13 7 57
f  12 61 23
f  11 13 12
f  13 57 14
f  12 13 14
f  12 14 61
f  10 15 4
f  53 19 15
f  55 3 17
f  54 18 16
f  56 17 18
f  57 7 19
f  58 16 20
f  59 26 21
f  10 53 15
f  9 3 55
f  54 16 58
f  54 56 18
f  55 17 56
f  9 53 10
f  9 55 53
f  53 54 57
f  53 55 54
f  54 55 56
f  53 57 19
f  14 59 21
f  58 20 65
f  54 58 57
f  57 58 59
f  14 57 59
f  58 64 59
f  14 21 8
f  60 8 22
f  61 22 23
f  62 25 24
f  64 24 26
f  65 20 27
f  63 29 25
f  66 27 28
f  67 28 29
f  68 31 30
f  70 30 32
f  69 44 31
f  14 8 60
f  60 22 61
f  59 64 26
f  62 63 25
f  62 24 64
f  14 60 61
f  58 65 64
f  62 64 63
f  65 27 66
f  63 67 29
f  66 28 67
f  68 69 31
f  68 30 70
f  63 64 65
f  63 65 67
f  65 66 67
f  68 70 69
f  69 70 80
f  71 34 33
f  72 35 34
f  73 37 35
f  78 33 40
f  74 41 36
f  75 32 37
f  76 36 38
f  77 47 39
f  79 40 41
f  71 72 34
f  72 73 35
f  71 33 78
f  74 36 76
f  71 73 72
f  71 74 73
f  73 74 75
f  71 78 74
f  73 75 37
f  77 39 80
f  75 76 77
f  74 76 75
f  75 77 80
f  74 79 41
f  78 40 79
f  74 78 79
f  76 38 86
f  77 76 85
f  80 39 42
f  81 42 43
f  82 43 44
f  86 38 48
f  83 46 45
f  85 45 47
f  84 51 46
f  87 48 49
f  89 49 51
f  88 52 50
f  125 50 97
f  75 70 32
f  69 82 44
f  80 42 81
f  81 43 82
f  75 80 70
f  69 80 82
f  80 81 82
f  77 85 47
f  83 84 46
f  83 45 85
f  86 48 87
f  84 89 51
f  87 49 89
f  88 90 52
f  88 50 125
f  76 86 85
f  83 85 84
f  84 85 86
f  84 86 89
f  86 87 89
f  88 125 90
f  120 91 92
f  119 97 91
f  123 94 95
f  124 92 96
f  121 101 93
f  122 96 94
f  119 91 120
f  125 97 119
f  120 92 124
f  126 121 93
f  125 119 120
f  125 120 121
f  122 94 123
f  124 96 122
f  131 103 130
f  120 124 121
f  121 124 129
f  124 122 131
f  124 131 129
f  90 100 52
f  126 93 98
f  127 98 99
f  128 99 100
f  129 102 101
f  130 103 102
f  126 98 127
f  90 128 100
f  127 99 128
f  125 121 126
f  90 125 126
f  90 126 128
f  126 127 128
f  121 129 101
f  129 130 102
f  131 130 129
f  131 109 103
f  138 95 110
f  133 104 105
f  132 115 104
f  123 95 138
f  122 123 138
f  122 138 131
f  132 104 133
f  132 143 115
f  133 105 732
f  144 134 106
f  132 133 143
f  143 133 134
f  135 108 107
f  137 107 109
f  136 113 108
f  139 110 111
f  140 114 112
f  141 111 113
f  143 112 115
f  142 118 114
f  144 106 116
f  145 116 117
f  146 117 118
f  131 137 109
f  135 136 108
f  135 107 137
f  136 141 113
f  138 110 139
f  140 142 114
f  139 111 141
f  140 112 143
f  131 138 137
f  135 137 136
f  136 137 138
f  136 138 141
f  138 139 141
f  140 143 142
f  144 116 145
f  142 146 118
f  145 117 146
f  143 134 144
f  142 143 144
f  142 144 146
f  144 145 146
f  181 163 147
f  193 181 147
f  181 197 163
f  183 148 149
f  194 150 160
f  185 149 151
f  184 152 150
f  186 153 152
f  188 151 154
f  187 155 153
f  189 156 155
f  190 157 156
f  192 154 158
f  183 182 148
f  183 149 185
f  194 184 150
f  186 152 184
f  183 194 182
f  183 184 194
f  183 185 184
f  185 186 184
f  185 151 188
f  186 187 153
f  187 189 155
f  189 190 156
f  188 154 192
f  190 191 157
f  192 158 204
f  185 188 187
f  185 187 186
f  187 188 189
f  188 190 189
f  188 192 190
f  192 191 190
f  182 159 148
f  193 147 159
f  195 160 161
f  196 161 162
f  197 166 163
f  198 162 164
f  199 164 165
f  200 167 166
f  202 165 168
f  201 173 167
f  205 168 171
f  191 169 157
f  203 170 169
f  204 158 170
f  206 171 172
f  207 176 173
f  208 172 174
f  209 174 175
f  210 180 176
f  211 179 177
f  212 177 178
f  213 175 179
f  214 178 180
f  193 159 182
f  194 160 195
f  195 161 196
f  196 162 198
f  193 182 195
f  193 195 196
f  182 194 195
f  193 196 181
f  181 196 197
f  197 200 166
f  198 164 199
f  200 201 167
f  199 165 202
f  202 168 205
f  201 207 173
f  197 196 198
f  197 198 200
f  198 199 200
f  200 199 201
f  199 202 201
f  201 202 207
f  202 205 207
f  191 203 169
f  203 204 170
f  192 204 191
f  191 204 203
f  205 171 206
f  206 172 208
f  208 174 209
f  207 210 176
f  211 213 179
f  211 177 212
f  212 178 214
f  213 209 175
f  210 214 180
f  205 206 207
f  206 210 207
f  206 208 210
f  208 209 210
f  211 212 213
f  210 209 214
f  213 214 209
f  212 214 213
f  251 216 215
f  252 217 216
f  255 215 219
f  253 223 217
f  254 220 218
f  256 219 220
f  251 252 216
f  251 215 255
f  252 253 217
f  254 256 220
f  255 219 256
f  254 218 260
f  251 253 252
f  251 255 253
f  255 254 253
f  253 254 259
f  255 256 254
f  257 222 221
f  260 218 224
f  259 221 223
f  258 226 222
f  261 224 225
f  262 225 226
f  257 258 222
f  253 259 223
f  254 260 259
f  257 221 259
f  258 262 226
f  260 224 261
f  261 225 262
f  257 259 258
f  258 259 260
f  258 260 262
f  260 261 262
f  263 228 227
f  264 229 228
f  265 241 229
f  267 227 231
f  266 232 230
f  268 231 232
f  269 234 233
f  270 235 234
f  271 247 235
f  273 233 237
f  272 238 236
f  274 237 238
f  263 264 228
f  264 265 229
f  263 227 267
f  266 268 232
f  267 231 268
f  266 230 278
f  263 265 264
f  263 267 265
f  265 266 277
f  267 266 265
f  267 268 266
f  269 270 234
f  270 271 235
f  269 233 273
f  272 274 238
f  273 237 274
f  272 236 284
f  269 271 270
f  269 273 271
f  271 272 283
f  271 273 272
f  272 273 274
f  278 230 242
f  275 240 239
f  277 239 241
f  276 244 240
f  279 242 243
f  280 243 244
f  284 236 248
f  281 246 245
f  283 245 247
f  282 250 246
f  285 248 249
f  286 249 250
f  265 277 241
f  266 278 277
f  275 276 240
f  275 239 277
f  276 280 244
f  278 242 279
f  279 243 280
f  275 277 276
f  276 277 278
f  276 278 280
f  278 279 280
f  271 283 247
f  272 284 283
f  281 282 246
f  283 281 245
f  282 286 250
f  284 248 285
f  285 249 286
f  283 282 281
f  283 284 282
f  282 284 286
f  284 285 286
f  335 288 287
f  336 289 288
f  339 287 291
f  338 292 290
f  340 291 292
f  341 294 293
f  342 319 294
f  335 336 288
f  336 337 289
f  335 287 339
f  339 291 340
f  338 340 292
f  335 337 336
f  335 338 337
f  335 339 338
f  338 339 340
f  341 342 294
f  342 367 319
f  341 367 342
f  337 302 289
f  343 290 295
f  344 298 296
f  345 295 297
f  346 299 298
f  348 301 300
f  350 300 302
f  349 306 301
f  351 296 303
f  352 303 304
f  353 304 305
f  355 297 307
f  347 308 299
f  356 309 308
f  358 307 310
f  359 310 311
f  360 314 312
f  357 313 309
f  361 312 313
f  363 316 315
f  362 305 314
f  354 315 306
f  364 311 316
f  365 318 317
f  373 317 325
f  338 290 343
f  343 295 345
f  344 346 298
f  344 296 351
f  345 297 355
f  346 347 299
f  337 338 343
f  337 343 344
f  337 344 350
f  343 346 344
f  343 345 346
f  345 347 346
f  345 355 347
f  337 350 302
f  348 300 350
f  348 349 301
f  351 303 352
f  349 354 306
f  352 304 353
f  344 351 350
f  348 350 349
f  349 350 354
f  350 351 354
f  351 352 354
f  352 353 354
f  355 307 358
f  347 356 308
f  356 357 309
f  358 310 359
f  359 311 364
f  355 356 347
f  355 358 356
f  356 358 357
f  357 358 359
f  360 362 314
f  357 361 313
f  361 360 312
f  353 305 362
f  354 363 315
f  364 316 363
f  365 317 373
f  365 366 318
f  357 359 361
f  361 359 364
f  361 364 360
f  360 364 363
f  354 353 363
f  353 362 363
f  360 363 362
f  365 373 366
f  369 293 321
f  368 322 320
f  370 321 322
f  372 323 324
f  341 293 369
f  368 370 322
f  369 321 370
f  341 369 367
f  367 369 368
f  368 369 370
f  371 323 372
f  373 325 319
f  374 320 326
f  366 327 318
f  375 328 327
f  371 326 323
f  376 331 328
f  377 330 329
f  379 329 331
f  378 334 330
f  380 324 332
f  381 332 333
f  382 333 334
f  367 373 319
f  368 320 374
f  374 326 371
f  367 368 374
f  366 375 327
f  367 374 373
f  374 375 373
f  366 373 375
f  374 376 375
f  376 328 375
f  372 324 380
f  374 371 372
f  374 372 376
f  372 380 376
f  376 379 331
f  377 378 330
f  377 329 379
f  380 332 381
f  378 382 334
f  381 333 382
f  377 379 378
f  378 379 380
f  376 380 379
f  378 380 382
f  380 381 382
f  393 385 384
f  394 387 385
f  393 394 385
f  393 396 394
f  394 396 387
f  395 384 386
f  398 386 389
f  397 389 388
f  400 390 391
f  399 430 390
f  393 384 395
f  395 386 398
f  393 395 396
f  397 395 398
f  397 398 389
f  396 395 397
f  399 390 400
f  399 400 437
f  408 402 403
f  409 403 404
f  410 404 405
f  411 405 406
f  408 407 402
f  408 403 409
f  409 404 410
f  410 405 411
f  411 406 432
f  408 442 407
f  408 409 442
f  410 411 432
f  409 410 442
f  410 432 433
f  419 414 413
f  407 413 402
f  420 415 414
f  421 416 415
f  422 417 416
f  423 418 417
f  424 441 418
f  407 419 413
f  419 420 414
f  420 421 415
f  419 421 420
f  407 442 419
f  419 422 421
f  421 422 416
f  419 423 422
f  419 444 424
f  419 442 443
f  419 443 444
f  422 423 417
f  423 424 418
f  419 424 423
f  432 406 425
f  433 425 426
f  434 428 427
f  436 427 429
f  435 431 428
f  432 425 433
f  410 433 442
f  434 427 436
f  434 435 428
f  434 436 435
f  436 429 387
f  437 388 430
f  438 392 431
f  396 436 387
f  397 388 437
f  396 397 437
f  399 437 430
f  396 437 436
f  401 392 438
f  400 401 437
f  437 401 438
f  435 438 431
f  437 438 436
f  435 436 438
f  442 426 439
f  444 440 441
f  443 439 440
f  433 426 442
f  442 439 443
f  443 440 444
f  424 444 441
f  467 453 445
f  469 467 445
f  467 475 453
f  472 446 450
f  468 447 446
f  471 448 449
f  477 450 455
f  473 456 451
f  470 451 448
f  469 445 447
f  474 449 452
f  475 493 453
f  476 452 454
f  512 454 494
f  478 457 456
f  481 455 459
f  479 458 457
f  480 460 458
f  482 462 460
f  483 459 461
f  484 463 462
f  485 464 463
f  486 461 464
f  487 503 465
f  488 465 466
f  472 468 446
f  469 447 468
f  470 448 471
f  472 450 477
f  473 451 470
f  473 478 456
f  472 470 468
f  469 468 471
f  468 470 471
f  472 473 470
f  472 477 473
f  473 477 478
f  471 449 474
f  474 452 476
f  475 511 493
f  476 454 512
f  469 474 467
f  469 471 474
f  467 474 475
f  475 474 476
f  475 476 511
f  476 512 511
f  477 455 481
f  478 479 457
f  479 480 458
f  480 482 460
f  481 459 483
f  482 484 462
f  484 485 463
f  485 486 464
f  483 461 486
f  477 479 478
f  477 481 479
f  479 481 480
f  481 482 480
f  481 483 482
f  482 483 484
f  483 486 484
f  484 486 485
f  487 465 488
f  487 488 521
f  507 490 489
f  523 489 505
f  508 491 490
f  507 508 490
f  400 391 644
f  507 489 523
f  507 509 508
f  507 523 509
f  508 509 491
f  509 523 510
f  511 496 493
f  513 494 495
f  514 498 496
f  515 495 497
f  517 497 499
f  516 502 498
f  518 499 500
f  519 500 501
f  520 504 502
f  521 501 503
f  522 466 504
f  511 514 496
f  512 494 513
f  513 495 515
f  514 516 498
f  512 514 511
f  512 513 514
f  514 513 516
f  513 515 516
f  517 499 518
f  515 497 517
f  518 500 519
f  516 520 502
f  487 521 503
f  519 501 521
f  488 466 522
f  520 522 504
f  516 515 517
f  516 517 520
f  517 518 520
f  518 519 520
f  519 521 522
f  488 522 521
f  520 519 522
f  524 505 506
f  510 506 492
f  523 505 524
f  510 523 524
f  510 524 506
f  553 526 525
f  554 527 526
f  557 525 529
f  556 530 528
f  558 529 530
f  559 528 531
f  612 583 527
f  560 534 532
f  561 531 533
f  562 535 534
f  613 532 584
f  564 537 536
f  565 546 537
f  566 533 538
f  563 539 535
f  567 541 539
f  568 538 540
f  572 540 544
f  569 543 541
f  571 542 543
f  573 544 545
f  553 554 526
f  554 555 527
f  553 525 557
f  556 558 530
f  557 529 558
f  556 528 559
f  553 555 554
f  553 556 555
f  555 556 559
f  555 559 560
f  553 557 556
f  556 557 558
f  555 612 527
f  559 531 561
f  560 562 534
f  561 533 566
f  562 563 535
f  560 532 613
f  555 560 612
f  560 613 612
f  559 562 560
f  559 561 562
f  561 563 562
f  561 566 563
f  564 565 537
f  565 574 546
f  564 574 565
f  566 538 568
f  563 567 539
f  567 569 541
f  568 540 572
f  569 571 543
f  571 570 542
f  572 544 573
f  573 545 618
f  563 566 567
f  566 568 567
f  568 569 567
f  568 572 569
f  569 572 571
f  571 572 573
f  571 573 570
f  570 573 618
f  576 536 548
f  575 549 547
f  577 548 549
f  627 598 546
f  628 547 599
f  629 550 600
f  579 599 551
f  580 551 552
f  578 603 550
f  633 552 604
f  564 536 576
f  575 577 549
f  575 547 628
f  576 548 577
f  564 576 574
f  574 576 575
f  575 576 577
f  574 575 628
f  574 627 546
f  628 599 579
f  574 628 627
f  628 578 629
f  579 551 580
f  580 552 633
f  628 579 580
f  578 550 629
f  578 632 603
f  628 580 578
f  580 633 578
f  578 633 632
f  610 582 581
f  612 581 583
f  611 587 582
f  614 584 585
f  615 585 586
f  617 586 588
f  570 588 542
f  616 589 587
f  618 545 589
f  619 591 590
f  627 590 598
f  610 611 582
f  610 581 612
f  613 584 614
f  611 616 587
f  614 585 615
f  610 612 611
f  611 612 616
f  612 613 616
f  613 614 616
f  614 615 616
f  615 586 617
f  570 617 588
f  616 618 589
f  619 620 591
f  619 590 627
f  615 617 618
f  616 615 618
f  570 618 617
f  619 627 620
f  621 593 592
f  622 594 593
f  624 592 595
f  626 595 597
f  625 597 596
f  674 596 649
f  621 622 593
f  621 592 624
f  621 623 622
f  622 623 594
f  621 625 623
f  623 625 674
f  623 674 675
f  624 595 626
f  621 624 625
f  625 624 626
f  625 596 674
f  625 626 597
f  620 600 591
f  630 602 601
f  632 601 603
f  631 606 602
f  634 604 605
f  635 605 606
f  620 629 600
f  620 627 629
f  627 628 629
f  630 631 602
f  630 601 632
f  633 604 634
f  631 635 606
f  634 605 635
f  630 632 631
f  631 632 633
f  631 633 635
f  633 634 635
f  636 608 607
f  637 609 608
f  636 637 608
f  636 607 1217
f  636 638 637
f  636 1217 638
f  637 638 609
f  401 640 392
f  644 391 639
f  509 639 491
f  646 492 641
f  400 644 401
f  401 645 640
f  401 644 645
f  510 492 646
f  509 510 644
f  509 644 639
f  510 645 644
f  510 646 645
f  645 643 640
f  645 648 643
f  645 646 648
f  647 641 642
f  648 642 643
f  646 641 647
f  647 642 648
f  646 647 648
f  623 656 594
f  677 649 652
f  675 651 650
f  686 652 661
f  676 653 651
f  678 662 653
f  682 650 657
f  623 675 681
f  623 681 656
f  675 682 681
f  674 649 677
f  675 676 651
f  677 652 686
f  676 678 653
f  674 676 675
f  674 677 676
f  677 686 678
f  676 677 678
f  675 650 682
f  679 655 654
f  681 654 656
f  680 660 655
f  683 657 658
f  684 658 659
f  679 654 681
f  679 680 655
f  679 681 680
f  680 681 685
f  682 657 683
f  680 685 660
f  684 683 658
f  684 659 694
f  685 695 660
f  681 682 685
f  682 683 685
f  684 685 683
f  684 695 685
f  687 665 662
f  688 661 663
f  689 663 664
f  690 666 665
f  692 669 667
f  691 667 666
f  693 664 668
f  638 673 609
f  686 661 688
f  678 687 662
f  687 690 665
f  688 663 689
f  678 686 687
f  686 688 687
f  687 688 690
f  688 689 690
f  690 691 666
f  691 692 667
f  689 664 693
f  693 668 695
f  690 689 691
f  691 689 693
f  691 693 692
f  693 695 692
f  638 1218 698
f  638 698 673
f  694 659 669
f  695 670 660
f  695 668 670
f  696 672 671
f  698 671 673
f  697 1330 672
f  694 669 692
f  684 694 695
f  694 692 695
f  696 671 698
f  696 697 672
f  696 698 697
f  697 698 1345
f  731 700 701
f  732 105 702
f  134 706 106
f  730 702 700
f  733 704 703
f  735 710 705
f  741 701 711
f  730 700 731
f  732 702 730
f  735 705 737
f  133 732 134
f  134 732 736
f  732 730 735
f  732 735 736
f  733 734 704
f  731 701 741
f  730 731 741
f  730 741 735
f  736 707 706
f  737 705 707
f  738 709 708
f  740 708 710
f  739 713 709
f  742 711 712
f  743 712 713
f  744 715 714
f  134 736 706
f  736 737 707
f  735 737 736
f  735 740 710
f  738 739 709
f  738 708 740
f  739 743 713
f  741 711 742
f  742 712 743
f  744 745 715
f  735 741 740
f  738 740 739
f  739 740 741
f  739 741 743
f  741 742 743
f  734 716 704
f  748 703 718
f  747 719 717
f  749 718 719
f  746 724 716
f  753 717 723
f  751 720 721
f  750 723 720
f  752 728 722
f  759 721 729
f  734 746 716
f  733 703 748
f  747 749 719
f  748 718 749
f  733 746 734
f  733 748 746
f  746 748 747
f  747 748 749
f  747 717 753
f  746 754 724
f  753 723 750
f  746 747 753
f  746 753 754
f  750 720 751
f  755 752 722
f  751 721 759
f  753 750 751
f  753 751 752
f  751 759 752
f  754 714 724
f  745 725 715
f  755 722 725
f  756 727 726
f  758 726 728
f  757 769 727
f  803 729 768
f  744 714 754
f  745 755 725
f  744 754 745
f  745 754 755
f  754 753 755
f  753 752 755
f  756 757 727
f  756 726 758
f  752 758 728
f  757 804 769
f  759 729 803
f  756 758 757
f  752 759 758
f  757 758 759
f  757 759 804
f  759 803 804
f  795 761 760
f  796 762 761
f  799 760 764
f  798 765 763
f  800 764 765
f  797 773 762
f  807 763 772
f  801 772 766
f  802 777 767
f  795 796 761
f  795 760 799
f  796 797 762
f  798 800 765
f  799 764 800
f  795 797 796
f  795 799 797
f  797 799 798
f  798 799 800
f  798 763 807
f  797 808 773
f  797 798 807
f  797 807 808
f  801 766 813
f  807 772 801
f  809 802 767
f  807 801 813
f  807 813 802
f  804 768 769
f  805 771 770
f  808 770 773
f  806 774 771
f  809 767 774
f  810 776 775
f  812 775 777
f  811 787 776
f  803 768 804
f  805 806 771
f  805 770 808
f  806 809 774
f  805 808 806
f  806 808 809
f  808 807 809
f  802 812 777
f  810 811 776
f  810 775 812
f  807 802 809
f  802 820 812
f  810 812 811
f  811 812 820
f  813 766 778
f  814 780 779
f  815 781 780
f  818 779 783
f  820 778 785
f  816 791 781
f  823 782 788
f  817 784 782
f  819 783 784
f  1073 788 1066
f  814 815 780
f  815 816 781
f  814 779 818
f  814 816 815
f  814 818 816
f  816 818 817
f  813 778 820
f  817 782 823
f  816 826 791
f  813 820 802
f  816 817 823
f  816 823 826
f  818 783 819
f  817 819 784
f  817 818 819
f  823 788 1073
f  827 1075 1068
f  823 1073 1074
f  823 1074 1075
f  821 785 786
f  822 786 787
f  824 790 789
f  826 789 791
f  825 792 790
f  827 1068 792
f  828 794 793
f  820 785 821
f  811 822 787
f  821 786 822
f  824 825 790
f  824 789 826
f  825 827 792
f  811 820 822
f  820 821 822
f  824 826 825
f  825 826 827
f  826 823 827
f  828 829 794
f  823 1075 827
f  866 831 830
f  867 832 831
f  868 842 832
f  870 830 834
f  871 834 835
f  869 835 833
f  872 837 836
f  873 838 837
f  874 848 838
f  886 836 850
f  875 851 839
f  866 867 831
f  866 830 870
f  867 868 832
f  869 871 835
f  870 834 871
f  869 833 879
f  866 868 867
f  866 870 868
f  868 869 878
f  870 869 868
f  870 871 869
f  872 873 837
f  872 836 886
f  873 874 838
f  875 887 851
f  875 839 885
f  872 874 873
f  872 886 874
f  886 875 874
f  886 887 875
f  874 875 884
f  879 833 843
f  876 841 840
f  878 840 842
f  877 845 841
f  880 843 844
f  881 844 845
f  885 839 849
f  882 847 846
f  884 846 848
f  883 859 847
f  894 849 858
f  868 878 842
f  869 879 878
f  876 877 841
f  878 876 840
f  877 881 845
f  879 843 880
f  880 844 881
f  878 877 876
f  878 879 877
f  877 879 881
f  879 880 881
f  874 884 848
f  875 885 884
f  882 883 847
f  882 846 884
f  883 895 859
f  885 849 894
f  882 884 883
f  883 884 885
f  883 885 895
f  885 894 895
f  887 850 851
f  888 853 852
f  889 854 853
f  890 862 854
f  892 852 856
f  891 857 855
f  891 855 863
f  893 856 857
f  886 850 887
f  888 889 853
f  889 890 854
f  888 852 892
f  891 893 857
f  888 890 889
f  888 891 890
f  888 892 891
f  892 893 891
f  890 891 898
f  892 856 893
f  895 858 859
f  896 861 860
f  898 860 862
f  897 865 861
f  900 863 864
f  901 864 865
f  890 898 862
f  891 863 899
f  891 899 898
f  894 858 895
f  896 897 861
f  896 860 898
f  897 901 865
f  899 863 900
f  896 898 897
f  897 898 899
f  897 899 901
f  899 900 901
f  900 864 901
f  969 902 903
f  982 904 916
f  970 906 904
f  971 903 905
f  974 905 908
f  972 907 906
f  973 909 907
f  975 910 909
f  976 911 910
f  978 908 912
f  969 968 902
f  969 903 971
f  982 970 904
f  969 982 968
f  969 970 982
f  969 971 970
f  972 906 970
f  971 905 974
f  972 973 907
f  973 975 909
f  974 908 978
f  975 976 910
f  976 977 911
f  978 912 991
f  971 972 970
f  971 974 973
f  971 973 972
f  973 974 975
f  974 976 975
f  974 978 976
f  978 977 976
f  979 914 913
f  968 913 902
f  980 918 914
f  981 917 915
f  983 916 917
f  985 915 919
f  984 920 918
f  987 919 921
f  986 922 920
f  989 921 923
f  988 927 922
f  977 924 911
f  991 912 925
f  990 925 924
f  992 923 926
f  994 926 928
f  997 928 931
f  993 933 927
f  995 934 929
f  996 929 930
f  998 931 932
f  1000 932 934
f  999 935 933
f  1001 930 935
f  968 979 913
f  981 983 917
f  979 980 914
f  981 915 985
f  982 916 983
f  968 983 979
f  979 983 981
f  979 981 980
f  980 981 984
f  968 982 983
f  980 984 918
f  984 986 920
f  985 919 987
f  987 921 989
f  986 988 922
f  989 923 992
f  981 985 984
f  984 985 986
f  985 987 986
f  986 987 988
f  987 989 988
f  988 989 993
f  977 990 924
f  990 991 925
f  977 991 990
f  978 991 977
f  988 993 927
f  992 926 994
f  994 928 997
f  993 999 933
f  995 929 996
f  995 1000 934
f  996 930 1001
f  997 931 998
f  1000 998 932
f  999 1001 935
f  989 992 993
f  992 994 993
f  994 997 999
f  993 994 999
f  995 996 1000
f  997 998 999
f  999 998 1001
f  996 1001 1000
f  1000 1001 998
f  1002 937 936
f  1003 938 937
f  1006 936 940
f  1005 941 939
f  1007 940 941
f  1008 943 942
f  1002 1003 937
f  1003 1004 938
f  1002 936 1006
f  1005 1007 941
f  1002 1004 1003
f  1002 1005 1004
f  1002 1006 1005
f  1005 1006 1007
f  1006 940 1007
f  1008 1009 943
f  1004 949 938
f  1010 939 944
f  1011 946 945
f  1019 944 953
f  1013 948 947
f  1015 947 949
f  1014 952 948
f  1016 945 950
f  1017 950 951
f  1012 954 946
f  1021 953 955
f  1020 956 954
f  1024 955 958
f  1022 957 956
f  1025 958 959
f  1023 960 957
f  1026 961 960
f  1027 963 961
f  1028 951 962
f  1018 965 952
f  1029 962 963
f  1030 959 964
f  1031 964 965
f  1032 967 966
f  1005 939 1010
f  1010 944 1019
f  1011 1012 946
f  1011 945 1016
f  1004 1005 1010
f  1004 1010 1011
f  1004 1011 1015
f  1010 1012 1011
f  1010 1019 1012
f  1004 1015 949
f  1013 1014 948
f  1013 947 1015
f  1014 1018 952
f  1016 950 1017
f  1013 1015 1014
f  1015 1011 1016
f  1015 1016 1018
f  1014 1015 1018
f  1016 1017 1018
f  1019 953 1021
f  1012 1020 954
f  1021 955 1024
f  1020 1022 956
f  1022 1023 957
f  1024 958 1025
f  1025 959 1030
f  1019 1020 1012
f  1019 1021 1020
f  1021 1022 1020
f  1021 1024 1022
f  1022 1024 1023
f  1023 1024 1025
f  1023 1026 960
f  1027 1029 963
f  1026 1027 961
f  1017 951 1028
f  1028 962 1029
f  1018 1031 965
f  1030 964 1031
f  1032 1033 967
f  1017 1028 1018
f  1018 1028 1031
f  1028 1029 1031
f  1027 1031 1029
f  1023 1025 1026
f  1026 1025 1030
f  1026 1030 1027
f  1027 1030 1031
f  1009 1034 943
f  1052 942 1036
f  1051 1037 1035
f  1053 1036 1037
f  1055 1038 1039
f  1008 942 1052
f  1009 1050 1034
f  1052 1036 1053
f  1051 1053 1037
f  1008 1050 1009
f  1008 1052 1050
f  1050 1052 1051
f  1051 1052 1053
f  1054 1038 1055
f  1056 1040 1034
f  1057 1035 1041
f  1056 966 1040
f  1033 1042 967
f  1058 1043 1042
f  1054 1041 1038
f  1059 1046 1043
f  1060 1045 1044
f  1063 1039 1047
f  1062 1044 1046
f  1061 1049 1045
f  1050 1056 1034
f  1051 1035 1057
f  1054 1057 1041
f  1050 1051 1057
f  1032 966 1056
f  1033 1058 1042
f  1050 1057 1056
f  1032 1056 1033
f  1057 1058 1056
f  1033 1056 1058
f  1059 1058 1057
f  1059 1043 1058
f  1055 1039 1063
f  1054 1055 1057
f  1055 1059 1057
f  1055 1063 1059
f  1060 1044 1062
f  1060 1061 1045
f  1059 1062 1046
f  1063 1047 1064
f  1061 1065 1049
f  1060 1062 1061
f  1059 1063 1062
f  1061 1062 1063
f  1061 1063 1065
f  1064 1047 1048
f  1065 1048 1049
f  1064 1048 1065
f  1063 1064 1065
f  1074 1066 1067
f  1075 1069 1068
f  1077 1067 1070
f  1073 1066 1074
f  1074 1067 1077
f  1075 1074 1077
f  1076 793 1069
f  829 1072 794
f  1078 1070 1071
f  1079 1071 1072
f  1075 1076 1069
f  828 793 1076
f  1077 1070 1078
f  829 1079 1072
f  1078 1071 1079
f  1075 1077 1076
f  828 1076 829
f  829 1076 1077
f  829 1077 1079
f  1077 1078 1079
f  1126 1082 1083
f  1127 1083 1084
f  1128 1093 1085
f  1129 1085 1086
f  1130 1086 1087
f  1125 1088 1082
f  1131 1090 1088
f  1132 1087 1089
f  1134 1089 1091
f  1133 1168 1090
f  1206 1091 1169
f  1135 1084 1092
f  1136 1094 1093
f  1138 1092 1095
f  1137 1096 1094
f  1139 1097 1096
f  1140 1099 1097
f  1141 1095 1098
f  1142 1100 1099
f  1144 1098 1101
f  1143 1101 1100
f  1145 1178 1102
f  1146 1102 1103
f  1125 1082 1126
f  1127 1126 1083
f  1128 1085 1129
f  1127 1084 1135
f  1129 1086 1130
f  1125 1126 1130
f  1127 1129 1126
f  1127 1128 1129
f  1127 1135 1128
f  1126 1129 1130
f  1125 1131 1088
f  1132 1130 1087
f  1132 1089 1134
f  1131 1133 1090
f  1133 1205 1168
f  1134 1091 1206
f  1125 1132 1131
f  1125 1130 1132
f  1131 1132 1133
f  1132 1134 1133
f  1133 1134 1205
f  1134 1206 1205
f  1128 1136 1093
f  1135 1092 1138
f  1136 1137 1094
f  1137 1139 1096
f  1138 1095 1141
f  1139 1140 1097
f  1140 1142 1099
f  1142 1143 1100
f  1141 1098 1144
f  1143 1144 1101
f  1128 1135 1136
f  1135 1137 1136
f  1135 1138 1137
f  1137 1138 1139
f  1138 1140 1139
f  1138 1141 1140
f  1140 1141 1142
f  1142 1144 1143
f  1141 1144 1142
f  1145 1102 1146
f  1145 1146 1215
f  1147 1105 1104
f  1148 1106 1105
f  1154 1104 1111
f  1150 1112 1107
f  1151 1107 1108
f  1149 1188 1106
f  1152 1110 1109
f  1158 1108 1115
f  1226 1109 1189
f  1155 1111 1112
f  1156 1114 1113
f  1160 1115 1117
f  1153 1116 1110
f  1159 1118 1116
f  1165 1117 1122
f  1161 1119 1118
f  1162 1120 1119
f  1163 1121 1120
f  1166 1122 1123
f  1167 1123 1124
f  1147 1148 1105
f  1148 1149 1106
f  1147 1104 1154
f  1150 1155 1112
f  1150 1107 1151
f  1147 1149 1148
f  1147 1150 1149
f  1147 1154 1150
f  1150 1154 1155
f  1149 1150 1151
f  1149 1151 1152
f  1149 1225 1188
f  1151 1108 1158
f  1152 1153 1110
f  1152 1109 1226
f  1149 1152 1225
f  1151 1153 1152
f  1151 1158 1153
f  1152 1226 1225
f  1154 1111 1155
f  1156 1157 1114
f  1158 1115 1160
f  1153 1159 1116
f  1160 1117 1165
f  1159 1161 1118
f  1161 1162 1119
f  1162 1163 1120
f  1163 1164 1121
f  1165 1122 1166
f  1166 1123 1167
f  1167 1124 1231
f  1158 1159 1153
f  1158 1160 1159
f  1159 1160 1161
f  1160 1165 1161
f  1161 1165 1162
f  1162 1165 1166
f  1162 1166 1163
f  1163 1166 1167
f  1163 1167 1164
f  1164 1167 1231
f  1205 1170 1168
f  1208 1169 1171
f  1207 1173 1170
f  1209 1171 1172
f  1212 1174 1175
f  1211 1172 1174
f  1210 1177 1173
f  1213 1175 1176
f  1215 1176 1178
f  1214 1179 1177
f  1216 1103 1179
f  1206 1169 1208
f  1205 1207 1170
f  1208 1171 1209
f  1206 1207 1205
f  1206 1208 1207
f  1207 1208 1210
f  1207 1210 1173
f  1211 1174 1212
f  1209 1172 1211
f  1210 1214 1177
f  1212 1175 1213
f  1213 1176 1215
f  1145 1215 1178
f  1146 1103 1216
f  1214 1216 1179
f  1208 1209 1210
f  1209 1211 1210
f  1210 1211 1214
f  1211 1212 1214
f  1212 1213 1214
f  1214 1213 1216
f  1146 1216 1215
f  1213 1215 1216
f  1217 607 1180
f  1219 1180 1182
f  1218 1182 1181
f  1221 1183 1184
f  1217 1180 1219
f  1218 1217 1219
f  1218 1219 1182
f  638 1217 1218
f  1234 1221 1184
f  1220 1183 1221
f  1220 1221 1222
f  1221 1235 1222
f  1223 1187 1186
f  1225 1186 1188
f  1224 1191 1187
f  1227 1189 1190
f  1229 1190 1192
f  1228 1194 1191
f  1230 1192 1193
f  1164 1193 1121
f  1231 1124 1194
f  1232 1196 1195
f  1223 1224 1187
f  1223 1186 1225
f  1224 1228 1191
f  1226 1189 1227
f  1223 1225 1224
f  1224 1225 1228
f  1225 1226 1228
f  1226 1227 1228
f  1227 1190 1229
f  1229 1192 1230
f  1164 1230 1193
f  1228 1231 1194
f  1232 1233 1196
f  1227 1229 1228
f  1228 1229 1231
f  1229 1230 1231
f  1164 1231 1230
f  1237 1197 1200
f  1234 1184 1197
f  1235 1199 1198
f  1222 1198 1185
f  1236 1202 1199
f  1238 1200 1201
f  1239 1203 1202
f  1240 1204 1203
f  1241 1264 1204
f  1234 1197 1237
f  1234 1237 1236
f  1236 1199 1235
f  1222 1235 1198
f  1234 1235 1221
f  1234 1236 1235
f  1237 1200 1238
f  1236 1237 1239
f  1237 1240 1239
f  1237 1238 1240
f  1240 1238 1241
f  1236 1239 1202
f  1239 1240 1203
f  1240 1241 1204
f  1241 1298 1264
f  1241 1238 1298
f  1157 1242 1114
f  1251 1113 1244
f  1250 1245 1243
f  1252 1244 1245
f  1290 1256 1242
f  1291 1243 1257
f  1292 1248 1258
f  1253 1257 1246
f  1254 1246 1247
f  1255 1261 1248
f  1296 1247 1262
f  1156 1113 1251
f  1157 1249 1242
f  1250 1243 1291
f  1250 1252 1245
f  1251 1244 1252
f  1156 1249 1157
f  1156 1251 1249
f  1249 1251 1250
f  1249 1250 1291
f  1250 1251 1252
f  1249 1290 1242
f  1253 1291 1257
f  1249 1291 1290
f  1255 1292 1291
f  1253 1246 1254
f  1254 1247 1296
f  1253 1254 1291
f  1255 1248 1292
f  1255 1295 1261
f  1255 1291 1254
f  1255 1254 1296
f  1255 1296 1295
f  1290 1195 1256
f  1233 1258 1196
f  1293 1260 1259
f  1295 1259 1261
f  1294 1277 1260
f  1232 1195 1290
f  1233 1292 1258
f  1232 1290 1233
f  1233 1290 1292
f  1290 1291 1292
f  1293 1294 1260
f  1293 1259 1295
f  1294 1311 1277
f  1296 1262 1310
f  1293 1295 1294
f  1294 1295 1296
f  1294 1296 1311
f  1297 1201 1263
f  1298 1265 1264
f  1299 1266 1265
f  1300 1267 1266
f  1301 1263 1267
f  1303 1268 1269
f  1312 1269 1278
f  1305 1271 1268
f  1304 1273 1270
f  1305 1272 1271
f  1306 1270 1272
f  1307 1274 1273
f  1308 1275 1274
f  1309 1280 1275
f  1238 1201 1297
f  1298 1299 1265
f  1299 1300 1266
f  1300 1301 1267
f  1297 1263 1301
f  1238 1297 1298
f  1298 1297 1299
f  1297 1301 1299
f  1299 1301 1300
f  1302 1268 1303
f  1303 1269 1312
f  1302 1303 1307
f  1303 1309 1308
f  1303 1312 1309
f  1302 1305 1268
f  1304 1270 1306
f  1305 1306 1272
f  1304 1307 1273
f  1307 1308 1274
f  1308 1309 1275
f  1302 1304 1305
f  1302 1307 1304
f  1304 1306 1305
f  1303 1308 1307
f  1310 1262 1276
f  1311 1276 1277
f  1310 1276 1311
f  1296 1310 1311
f  1313 1278 1279
f  1314 1281 1280
f  1315 1282 1281
f  1320 1279 1286
f  1316 1283 1282
f  1317 1284 1283
f  1319 1289 1285
f  1321 1286 1287
f  1322 1287 1288
f  1312 1278 1313
f  1313 1279 1320
f  1309 1312 1314
f  1314 1312 1315
f  1312 1313 1315
f  1309 1314 1280
f  1314 1315 1281
f  1315 1316 1282
f  1316 1317 1283
f  1317 1318 1284
f  1315 1313 1316
f  1313 1320 1316
f  1320 1317 1316
f  1320 1286 1321
f  1321 1287 1322
f  1322 1288 1425
f  1319 1323 1289
f  1320 1321 1317
f  1317 1321 1318
f  1318 1321 1322
f  1345 1181 1328
f  1220 1324 1183
f  1341 1326 1324
f  1342 1185 1325
f  1344 1325 1327
f  1343 1331 1326
f  1218 1181 1345
f  1218 1345 698
f  1220 1341 1324
f  1222 1185 1342
f  1342 1325 1344
f  1220 1222 1342
f  1220 1342 1341
f  1341 1342 1343
f  1341 1343 1326
f  1343 1348 1331
f  1342 1344 1343
f  1344 1348 1343
f  1344 1349 1348
f  1346 1328 1329
f  1347 1329 1330
f  1348 1333 1331
f  697 1347 1330
f  1345 1328 1346
f  1346 1329 1347
f  697 1345 1347
f  1345 1346 1347
f  1349 1327 1332
f  1344 1327 1349
f  1351 1332 1334
f  1350 1337 1333
f  1352 1334 1335
f  1353 1335 1336
f  1354 1340 1337
f  1355 1336 1338
f  1356 1338 1339
f  1348 1350 1333
f  1349 1332 1351
f  1351 1334 1352
f  1350 1354 1337
f  1348 1349 1350
f  1349 1351 1350
f  1350 1351 1354
f  1352 1335 1353
f  1353 1336 1355
f  1356 1355 1338
f  1354 1357 1340
f  1351 1352 1354
f  1352 1353 1354
f  1353 1355 1357
f  1356 1357 1355
f  1354 1353 1357
f  1398 1358 1359
f  1397 1364 1358
f  1399 1361 1360
f  1400 1375 1361
f  1402 1362 1363
f  1397 1358 1398
f  1398 1359 1404
f  1403 1397 1398
f  1399 1360 1413
f  1399 1400 1361
f  1399 1413 1400
f  1401 1362 1402
f  1402 1363 1407
f  1401 1402 1407
f  1403 1339 1364
f  1404 1359 1365
f  1357 1365 1340
f  1401 1366 1362
f  1407 1363 1368
f  1405 1367 1366
f  1408 1368 1369
f  1409 1369 1370
f  1410 1370 1371
f  1406 1372 1367
f  1411 1373 1372
f  1412 1393 1373
f  1356 1339 1403
f  1403 1364 1397
f  1357 1404 1365
f  1356 1404 1357
f  1356 1403 1404
f  1403 1398 1404
f  1401 1405 1366
f  1405 1406 1367
f  1407 1368 1408
f  1408 1369 1409
f  1409 1370 1410
f  1406 1411 1372
f  1411 1412 1373
f  1401 1407 1405
f  1407 1406 1405
f  1407 1408 1406
f  1408 1409 1411
f  1409 1410 1412
f  1406 1408 1411
f  1411 1409 1412
f  1412 1410 1432
f  1413 1360 1374
f  1418 1374 1379
f  1414 1382 1375
f  1318 1377 1284
f  1416 1378 1377
f  1417 1379 1378
f  1415 1380 1376
f  1420 1376 1381
f  1421 1383 1382
f  1422 1384 1383
f  1423 1385 1384
f  1424 1395 1385
f  1425 1288 1386
f  1426 1386 1387
f  1419 1387 1380
f  1427 1381 1388
f  1428 1388 1389
f  1429 1389 1390
f  1400 1414 1375
f  1413 1374 1418
f  1414 1421 1382
f  1318 1416 1377
f  1417 1378 1416
f  1418 1379 1417
f  1415 1376 1420
f  1419 1380 1415
f  1420 1381 1427
f  1413 1414 1400
f  1413 1418 1415
f  1413 1415 1421
f  1413 1421 1414
f  1417 1416 1426
f  1418 1417 1419
f  1418 1419 1415
f  1421 1415 1420
f  1417 1426 1419
f  1421 1422 1383
f  1422 1423 1384
f  1423 1424 1385
f  1424 1434 1395
f  1421 1420 1422
f  1420 1427 1422
f  1422 1427 1423
f  1423 1428 1424
f  1424 1429 1434
f  1426 1425 1386
f  1419 1426 1387
f  1318 1425 1416
f  1416 1425 1426
f  1318 1322 1425
f  1427 1388 1428
f  1428 1389 1429
f  1435 1429 1390
f  1423 1427 1428
f  1424 1428 1429
f  1430 1371 1391
f  1431 1391 1392
f  1432 1396 1393
f  1434 1394 1395
f  1433 1392 1394
f  1435 1390 1396
f  1410 1371 1430
f  1430 1391 1431
f  1433 1431 1392
f  1412 1432 1393
f  1433 1394 1434
f  1432 1435 1396
f  1410 1430 1432
f  1430 1431 1432
f  1432 1431 1435
f  1433 1435 1431
f  1433 1434 1435
f  1434 1429 1435
f  1323 1437 1289
f  1444 1436 1438
f  1442 1441 1436
f  1443 1448 1437
f  1445 1438 1439
f  1446 1285 1440
f  1319 1285 1446
f  1442 1436 1444
f  1323 1443 1437
f  1444 1438 1445
f  1319 1442 1323
f  1323 1442 1443
f  1442 1444 1443
f  1319 1446 1442
f  1444 1445 1443
f  1443 1445 1476
f  1445 1439 1480
f  1442 1447 1441
f  1446 1447 1442
f  1447 1440 1441
f  1446 1440 1447
f  1478 1449 1450
f  1476 1451 1448
f  1480 1439 1452
f  1479 1453 1451
f  1481 1456 1453
f  1482 1452 1454
f  1483 1454 1455
f  1500 1455 1472
f  1484 1457 1456
f  1485 1458 1457
f  1486 1459 1458
f  1443 1476 1448
f  1477 1449 1478
f  1478 1450 1488
f  1477 1478 1488
f  1476 1479 1451
f  1480 1452 1482
f  1479 1481 1453
f  1481 1484 1456
f  1482 1454 1483
f  1483 1455 1500
f  1445 1480 1476
f  1476 1480 1479
f  1480 1482 1479
f  1479 1482 1481
f  1481 1482 1483
f  1481 1483 1484
f  1484 1483 1500
f  1484 1485 1457
f  1485 1486 1458
f  1486 1487 1459
f  1484 1500 1485
f  1485 1500 1501
f  1485 1501 1486
f  1501 1502 1486
f  1486 1503 1487
f  1486 1502 1503
f  1477 1462 1449
f  1488 1450 1460
f  1489 1460 1461
f  1490 1466 1462
f  1491 1461 1463
f  1492 1463 1464
f  1493 1464 1465
f  1494 1467 1466
f  1497 1465 1469
f  1496 1469 1468
f  1495 1470 1467
f  1487 1468 1459
f  1499 1475 1471
f  1498 1471 1470
f  1477 1490 1462
f  1488 1460 1489
f  1490 1494 1466
f  1489 1461 1491
f  1491 1463 1492
f  1492 1464 1493
f  1494 1495 1467
f  1477 1488 1490
f  1488 1489 1490
f  1490 1489 1494
f  1489 1491 1494
f  1494 1491 1492
f  1492 1493 1495
f  1494 1492 1495
f  1493 1465 1497
f  1496 1497 1469
f  1495 1498 1470
f  1496 1468 1487
f  1498 1499 1471
f  1493 1497 1495
f  1496 1498 1497
f  1495 1497 1498
f  1496 1487 1499
f  1496 1499 1498
f  1487 1503 1499
f  1501 1472 1473
f  1502 1473 1474
f  1503 1474 1475
f  1500 1472 1501
f  1501 1473 1502
f  1502 1474 1503
f  1503 1475 1499
