# OpenSCAD obj exporter
v 0 0 0
v 0 0 0.9
v 1.49272 0.571429 0.9
v 1.49272 0.581697 0.9
v 1.53399 0.586929 0.9
v 1.53399 0.672566 0.9
v 1.41348 0.82098 0.9
v 1.41348 0.831249 0.9
v 1.44273 0.81594 0.9
v 1.48846 0.81594 0.9
v 1.52333 0.82098 0.9
v 1.52333 0.831249 0.9
v 1.57138 0.586929 0.9
v 1.61265 0.571429 0.9
v 1.61265 0.581697 0.9
v 1.57138 0.673729 0.9
v 1.56305 0.696009 0.9
v 1.7793 0.571429 0.9
v 1.7793 0.581697 0.9
v 1.82056 0.586929 0.9
v 1.85796 0.586929 0.9
v 1.82056 0.672566 0.9
v 1.85796 0.673729 0.9
v 1.84963 0.696009 0.9
v 1.60103 0.82098 0.9
v 1.60103 0.831249 0.9
v 1.63396 0.81594 0.9
v 1.65702 0.81594 0.9
v 1.6855 0.82098 0.9
v 1.6855 0.831249 0.9
v 1.70005 0.82098 0.9
v 1.70005 0.831249 0.9
v 1.72931 0.81594 0.9
v 1.77503 0.81594 0.9
v 1.80991 0.82098 0.9
v 1.80991 0.831249 0.9
v 1.49272 0.571429 1.1
v 1.49272 0.581697 1.1
v 1.53399 0.586929 1.1
v 1.53399 0.672566 1.1
v 1.41348 0.82098 1.1
v 1.41348 0.831249 1.1
v 1.44273 0.81594 1.1
v 1.48846 0.81594 1.1
v 1.52333 0.82098 1.1
v 1.52333 0.831249 1.1
v 1.57138 0.586929 1.1
v 1.61265 0.571429 1.1
v 1.61265 0.581697 1.1
v 1.57138 0.673729 1.1
v 1.56305 0.696009 1.1
v 1.7793 0.571429 1.1
v 1.7793 0.581697 1.1
v 1.82056 0.586929 1.1
v 1.85796 0.586929 1.1
v 1.82056 0.672566 1.1
v 1.85796 0.673729 1.1
v 1.84963 0.696009 1.1
v 1.60103 0.82098 1.1
v 1.60103 0.831249 1.1
v 1.63396 0.81594 1.1
v 1.65702 0.81594 1.1
v 1.6855 0.82098 1.1
v 1.6855 0.831249 1.1
v 1.70005 0.82098 1.1
v 1.70005 0.831249 1.1
v 1.72931 0.81594 1.1
v 1.77503 0.81594 1.1
v 1.80991 0.82098 1.1
v 1.80991 0.831249 1.1
v 1.89923 0.571429 0.9
v 1.89923 0.581697 0.9
v 2.09125 0.565423 0.9
v 2.10152 0.565423 0.9
v 2.1054 0.632849 0.9
v 2.17069 0.744449 0.9
v 1.8876 0.82098 0.9
v 1.8876 0.831249 0.9
v 1.92054 0.81594 0.9
v 1.9436 0.81594 0.9
v 1.97208 0.82098 0.9
v 1.97208 0.831249 0.9
v 1.98256 0.82098 0.9
v 1.98256 0.831249 0.9
v 2.00523 0.81594 0.9
v 2.04359 0.81594 0.9
v 2.08176 0.82098 0.9
v 2.08176 0.831249 0.9
v 2.17534 0.813034 0.9
v 2.18406 0.813034 0.9
v 2.23811 0.565423 0.9
v 2.24838 0.565423 0.9
v 2.25148 0.632849 0.9
v 2.46579 0.565423 0.9
v 2.47606 0.565423 0.9
v 2.47994 0.632849 0.9
v 2.26989 0.82098 0.9
v 2.26989 0.831249 0.9
v 2.31038 0.81594 0.9
v 2.33324 0.81594 0.9
v 2.35591 0.82098 0.9
v 2.3571 0.82098 0.9
v 2.35591 0.831249 0.9
v 2.3571 0.831249 0.9
v 2.37977 0.81594 0.9
v 2.41813 0.81594 0.9
v 2.4563 0.82098 0.9
v 2.4563 0.831249 0.9
v 1.89923 0.571429 1.1
v 1.89923 0.581697 1.1
v 2.09125 0.565423 1.1
v 2.10152 0.565423 1.1
v 2.1054 0.632849 1.1
v 2.17069 0.744449 1.1
v 1.8876 0.82098 1.1
v 1.8876 0.831249 1.1
v 1.92054 0.81594 1.1
v 1.9436 0.81594 1.1
v 1.97208 0.82098 1.1
v 1.97208 0.831249 1.1
v 1.98256 0.82098 1.1
v 1.98256 0.831249 1.1
v 2.00523 0.81594 1.1
v 2.04359 0.81594 1.1
v 2.08176 0.82098 1.1
v 2.08176 0.831249 1.1
v 2.17534 0.813034 1.1
v 2.18406 0.813034 1.1
v 2.23811 0.565423 1.1
v 2.24838 0.565423 1.1
v 2.25148 0.632849 1.1
v 2.46579 0.565423 1.1
v 2.47606 0.565423 1.1
v 2.47994 0.632849 1.1
v 2.26989 0.82098 1.1
v 2.26989 0.831249 1.1
v 2.31038 0.81594 1.1
v 2.33324 0.81594 1.1
v 2.35591 0.82098 1.1
v 2.3571 0.82098 1.1
v 2.35591 0.831249 1.1
v 2.3571 0.831249 1.1
v 2.37977 0.81594 1.1
v 2.41813 0.81594 1.1
v 2.4563 0.82098 1.1
v 2.4563 0.831249 1.1
v 1.77959 1.7448 0.9
v 1.82183 1.71901 0.9
v 1.83813 1.73279 0.9
v 1.75314 1.78609 0.9
v 1.7908 1.79169 0.9
v 1.74433 1.84119 0.9
v 1.78482 1.84158 0.9
v 1.80875 1.75517 0.9
v 1.7528 1.90007 0.9
v 1.79054 1.89496 0.9
v 1.77823 1.94262 0.9
v 1.80768 1.93225 0.9
v 1.82033 1.96841 0.9
v 1.83728 1.9542 0.9
v 1.77959 1.7448 1.1
v 1.82183 1.71901 1.1
v 1.83813 1.73279 1.1
v 1.75314 1.78609 1.1
v 1.7908 1.79169 1.1
v 1.74433 1.84119 1.1
v 1.78482 1.84158 1.1
v 1.80875 1.75517 1.1
v 1.7528 1.90007 1.1
v 1.79054 1.89496 1.1
v 1.77823 1.94262 1.1
v 1.80768 1.93225 1.1
v 1.82033 1.96841 1.1
v 1.83728 1.9542 1.1
v 2.1179 1.14286 0.9
v 2.1179 1.15313 0.9
v 2.15123 1.15836 0.9
v 2.1179 1.39241 0.9
v 2.1179 1.40268 0.9
v 2.15123 1.38737 0.9
v 2.22175 1.14286 0.9
v 2.22175 1.15313 0.9
v 2.18843 1.15836 0.9
v 2.25005 1.14286 0.9
v 2.25005 1.15313 0.9
v 2.28337 1.15836 0.9
v 2.32057 1.15836 0.9
v 2.3539 1.14286 0.9
v 2.3539 1.15313 0.9
v 2.38219 1.14286 0.9
v 2.38219 1.15313 0.9
v 2.41552 1.15836 0.9
v 2.45272 1.15836 0.9
v 2.48604 1.14286 0.9
v 2.48604 1.15313 0.9
v 2.18843 1.38737 0.9
v 2.22175 1.39241 0.9
v 2.22175 1.40268 0.9
v 2.25005 1.39241 0.9
v 2.25005 1.40268 0.9
v 2.28337 1.38737 0.9
v 2.32057 1.38737 0.9
v 2.3539 1.39241 0.9
v 2.3539 1.40268 0.9
v 2.38219 1.39241 0.9
v 2.38219 1.40268 0.9
v 2.41552 1.38737 0.9
v 2.45272 1.38737 0.9
v 2.48604 1.39241 0.9
v 2.48604 1.40268 0.9
v 2.1179 1.14286 1.1
v 2.1179 1.15313 1.1
v 2.15123 1.15836 1.1
v 2.1179 1.39241 1.1
v 2.1179 1.40268 1.1
v 2.15123 1.38737 1.1
v 2.22175 1.14286 1.1
v 2.22175 1.15313 1.1
v 2.18843 1.15836 1.1
v 2.25005 1.14286 1.1
v 2.25005 1.15313 1.1
v 2.28337 1.15836 1.1
v 2.32057 1.15836 1.1
v 2.3539 1.14286 1.1
v 2.3539 1.15313 1.1
v 2.38219 1.14286 1.1
v 2.38219 1.15313 1.1
v 2.41552 1.15836 1.1
v 2.45272 1.15836 1.1
v 2.48604 1.14286 1.1
v 2.48604 1.15313 1.1
v 2.18843 1.38737 1.1
v 2.22175 1.39241 1.1
v 2.22175 1.40268 1.1
v 2.25005 1.39241 1.1
v 2.25005 1.40268 1.1
v 2.28337 1.38737 1.1
v 2.32057 1.38737 1.1
v 2.3539 1.39241 1.1
v 2.3539 1.40268 1.1
v 2.38219 1.39241 1.1
v 2.38219 1.40268 1.1
v 2.41552 1.38737 1.1
v 2.45272 1.38737 1.1
v 2.48604 1.39241 1.1
v 2.48604 1.40268 1.1
v 1.87801 1.71041 0.9
v 1.8784 1.72533 0.9
v 1.89986 1.72666 0.9
v 1.92543 1.71346 0.9
v 1.92006 1.73066 0.9
v 1.93759 1.73688 0.9
v 1.95106 1.7449 0.9
v 1.96966 1.72262 0.9
v 2.00668 1.71429 0.9
v 2.00668 1.72455 0.9
v 2.03749 1.72979 0.9
v 2.07488 1.72979 0.9
v 2.11615 1.71429 0.9
v 2.11615 1.72455 0.9
v 1.95823 1.78365 0.9
v 1.97082 1.78365 0.9
v 1.88034 1.96151 0.9
v 1.89877 1.96037 0.9
v 1.87879 1.97701 0.9
v 1.91686 1.95696 0.9
v 1.93369 1.95146 0.9
v 1.94835 1.94407 0.9
v 1.92078 1.97454 0.9
v 1.95416 1.91036 0.9
v 1.96695 1.91036 0.9
v 1.96578 1.96713 0.9
v 2.00416 1.96384 0.9
v 2.00416 1.97411 0.9
v 2.07488 1.8162 0.9
v 2.07488 1.83364 0.9
v 2.10414 1.8162 0.9
v 2.09503 1.83364 0.9
v 2.12349 1.83737 0.9
v 2.14403 1.82138 0.9
v 2.14337 1.84855 0.9
v 2.1734 1.83693 0.9
v 2.15507 1.86817 0.9
v 2.03749 1.9588 0.9
v 2.07488 1.95667 0.9
v 2.09387 1.95667 0.9
v 2.1022 1.97411 0.9
v 2.15897 1.89719 0.9
v 2.15524 1.9246 0.9
v 2.12404 1.95323 0.9
v 2.14405 1.94291 0.9
v 2.17369 1.95497 0.9
v 2.22486 1.71429 0.9
v 2.22486 1.72455 0.9
v 2.25818 1.72979 0.9
v 2.27853 1.72979 0.9
v 2.3134 1.71429 0.9
v 2.3134 1.72455 0.9
v 2.43876 1.71429 0.9
v 2.45755 1.71429 0.9
v 2.1915 1.86246 0.9
v 2.19753 1.89757 0.9
v 2.22486 1.96384 0.9
v 2.22486 1.97411 0.9
v 2.25818 1.9588 0.9
v 2.27853 1.94795 0.9
v 2.30352 1.97411 0.9
v 2.43721 1.78171 0.9
v 2.40233 1.96384 0.9
v 2.40233 1.97411 0.9
v 2.43721 1.9588 0.9
v 2.45755 1.9588 0.9
v 2.49088 1.96384 0.9
v 2.49088 1.97411 0.9
v 1.87801 1.71041 1.1
v 1.8784 1.72533 1.1
v 1.89986 1.72666 1.1
v 1.92543 1.71346 1.1
v 1.92006 1.73066 1.1
v 1.93759 1.73688 1.1
v 1.95106 1.7449 1.1
v 1.96966 1.72262 1.1
v 2.00668 1.71429 1.1
v 2.00668 1.72455 1.1
v 2.03749 1.72979 1.1
v 2.07488 1.72979 1.1
v 2.11615 1.71429 1.1
v 2.11615 1.72455 1.1
v 1.95823 1.78365 1.1
v 1.97082 1.78365 1.1
v 1.88034 1.96151 1.1
v 1.89877 1.96037 1.1
v 1.87879 1.97701 1.1
v 1.91686 1.95696 1.1
v 1.93369 1.95146 1.1
v 1.94835 1.94407 1.1
v 1.92078 1.97454 1.1
v 1.95416 1.91036 1.1
v 1.96695 1.91036 1.1
v 1.96578 1.96713 1.1
v 2.00416 1.96384 1.1
v 2.00416 1.97411 1.1
v 2.07488 1.8162 1.1
v 2.07488 1.83364 1.1
v 2.10414 1.8162 1.1
v 2.09503 1.83364 1.1
v 2.12349 1.83737 1.1
v 2.14403 1.82138 1.1
v 2.14337 1.84855 1.1
v 2.1734 1.83693 1.1
v 2.15507 1.86817 1.1
v 2.03749 1.9588 1.1
v 2.07488 1.95667 1.1
v 2.09387 1.95667 1.1
v 2.1022 1.97411 1.1
v 2.15897 1.89719 1.1
v 2.15524 1.9246 1.1
v 2.12404 1.95323 1.1
v 2.14405 1.94291 1.1
v 2.17369 1.95497 1.1
v 2.22486 1.71429 1.1
v 2.22486 1.72455 1.1
v 2.25818 1.72979 1.1
v 2.27853 1.72979 1.1
v 2.3134 1.71429 1.1
v 2.3134 1.72455 1.1
v 2.43876 1.71429 1.1
v 2.45755 1.71429 1.1
v 2.1915 1.86246 1.1
v 2.19753 1.89757 1.1
v 2.22486 1.96384 1.1
v 2.22486 1.97411 1.1
v 2.25818 1.9588 1.1
v 2.27853 1.94795 1.1
v 2.30352 1.97411 1.1
v 2.43721 1.78171 1.1
v 2.40233 1.96384 1.1
v 2.40233 1.97411 1.1
v 2.43721 1.9588 1.1
v 2.45755 1.9588 1.1
v 2.49088 1.96384 1.1
v 2.49088 1.97411 1.1
v 0 4 0
v 1.20082 2.85714 0.9
v 1.20082 2.87563 0.9
v 1.20082 2.85714 1.1
v 1.20082 2.87563 1.1
v 0.5463 3.43873 0.9
v 0.508709 3.49578 0.9
v 0.602796 3.3995 0.9
v 0.5463 3.43873 1.1
v 0.508709 3.49578 1.1
v 0.602796 3.3995 1.1
v 0 4 0.9
v 0.496179 3.56226 0.9
v 0.508891 3.63055 0.9
v 0.547029 3.68721 0.9
v 0.603707 3.72537 0.9
v 0.496179 3.56226 1.1
v 0.508891 3.63055 1.1
v 0.547029 3.68721 1.1
v 0.603707 3.72537 1.1
v 0.672 3.38642 0.9
v 0.741198 3.3995 0.9
v 0.797679 3.43873 0.9
v 0.835286 3.49578 0.9
v 1.20082 3.30634 0.9
v 1.20082 3.32482 0.9
v 0.672 3.38642 1.1
v 0.741198 3.3995 1.1
v 0.797679 3.43873 1.1
v 0.835286 3.49578 1.1
v 1.20082 3.30634 1.1
v 1.20082 3.32482 1.1
v 0.672 3.73809 0.9
v 0.740287 3.72537 0.9
v 0.847821 3.56226 0.9
v 0.79695 3.68721 0.9
v 0.835104 3.63055 0.9
v 0.672 3.73809 1.1
v 0.740287 3.72537 1.1
v 0.847821 3.56226 1.1
v 0.79695 3.68721 1.1
v 0.835104 3.63055 1.1
v 1.75314 2.35752 0.9
v 1.77959 2.31623 0.9
v 1.7908 2.36312 0.9
v 1.82183 2.29044 0.9
v 1.83813 2.30422 0.9
v 1.80875 2.32659 0.9
v 1.74433 2.41262 0.9
v 1.78482 2.41301 0.9
v 1.7528 2.4715 0.9
v 1.79054 2.46639 0.9
v 1.75314 2.35752 1.1
v 1.77959 2.31623 1.1
v 1.7908 2.36312 1.1
v 1.82183 2.29044 1.1
v 1.83813 2.30422 1.1
v 1.80875 2.32659 1.1
v 1.74433 2.41262 1.1
v 1.78482 2.41301 1.1
v 1.7528 2.4715 1.1
v 1.79054 2.46639 1.1
v 1.3602 2.85714 0.9
v 1.26081 2.88504 0.9
v 1.29742 2.88504 0.9
v 1.29742 2.96206 0.9
v 1.3602 2.87563 0.9
v 1.46866 2.85714 0.9
v 1.48086 2.85714 0.9
v 1.49447 2.96909 0.9
v 1.77823 2.51405 0.9
v 1.80768 2.50368 0.9
v 1.82033 2.53984 0.9
v 1.83728 2.52563 0.9
v 1.60467 2.85714 0.9
v 1.60467 2.87563 0.9
v 1.66745 2.88504 0.9
v 1.79439 2.85714 0.9
v 1.73441 2.88504 0.9
v 1.79439 2.87563 0.9
v 1.3602 2.85714 1.1
v 1.26081 2.88504 1.1
v 1.29742 2.88504 1.1
v 1.3602 2.87563 1.1
v 1.46866 2.85714 1.1
v 1.48086 2.85714 1.1
v 1.49447 2.96909 1.1
v 1.77823 2.51405 1.1
v 1.80768 2.50368 1.1
v 1.82033 2.53984 1.1
v 1.83728 2.52563 1.1
v 1.60467 2.85714 1.1
v 1.60467 2.87563 1.1
v 1.66745 2.88504 1.1
v 1.79439 2.85714 1.1
v 1.73441 2.88504 1.1
v 1.79439 2.87563 1.1
v 1.87801 2.28184 0.9
v 1.8784 2.29676 0.9
v 1.89986 2.29809 0.9
v 1.92543 2.28489 0.9
v 1.92006 2.30209 0.9
v 1.93759 2.30831 0.9
v 1.95106 2.31633 0.9
v 1.96966 2.29405 0.9
v 2.00668 2.28571 0.9
v 2.00668 2.29598 0.9
v 1.95823 2.35508 0.9
v 1.97082 2.35508 0.9
v 1.95416 2.48179 0.9
v 1.96695 2.48179 0.9
v 2.03749 2.30121 0.9
v 2.07488 2.30121 0.9
v 2.07488 2.34009 0.9
v 2.11615 2.28571 0.9
v 2.11615 2.29598 0.9
v 2.03749 2.37755 0.9
v 2.07488 2.38763 0.9
v 2.07488 2.40507 0.9
v 2.10414 2.38763 0.9
v 2.09503 2.40507 0.9
v 2.14403 2.39281 0.9
v 2.12349 2.4088 0.9
v 2.14337 2.41998 0.9
v 2.1734 2.40836 0.9
v 2.15507 2.4396 0.9
v 2.15897 2.46861 0.9
v 2.15524 2.49603 0.9
v 2.22486 2.28571 0.9
v 2.22486 2.29598 0.9
v 2.25818 2.30121 0.9
v 2.27853 2.30121 0.9
v 2.3134 2.28571 0.9
v 2.3134 2.29598 0.9
v 2.1915 2.43388 0.9
v 2.19753 2.469 0.9
v 2.43876 2.28571 0.9
v 2.45755 2.28571 0.9
v 2.43721 2.35314 0.9
v 1.87801 2.28184 1.1
v 1.8784 2.29676 1.1
v 1.89986 2.29809 1.1
v 1.92543 2.28489 1.1
v 1.92006 2.30209 1.1
v 1.93759 2.30831 1.1
v 1.95106 2.31633 1.1
v 1.96966 2.29405 1.1
v 2.00668 2.28571 1.1
v 2.00668 2.29598 1.1
v 1.95823 2.35508 1.1
v 1.97082 2.35508 1.1
v 1.95416 2.48179 1.1
v 1.96695 2.48179 1.1
v 2.03749 2.30121 1.1
v 2.07488 2.30121 1.1
v 2.11615 2.28571 1.1
v 2.11615 2.29598 1.1
v 2.07488 2.38763 1.1
v 2.07488 2.40507 1.1
v 2.10414 2.38763 1.1
v 2.09503 2.40507 1.1
v 2.14403 2.39281 1.1
v 2.12349 2.4088 1.1
v 2.14337 2.41998 1.1
v 2.1734 2.40836 1.1
v 2.15507 2.4396 1.1
v 2.15897 2.46861 1.1
v 2.15524 2.49603 1.1
v 2.22486 2.28571 1.1
v 2.22486 2.29598 1.1
v 2.25818 2.30121 1.1
v 2.27853 2.30121 1.1
v 2.3134 2.28571 1.1
v 2.3134 2.29598 1.1
v 2.1915 2.43388 1.1
v 2.19753 2.469 1.1
v 2.43876 2.28571 1.1
v 2.45755 2.28571 1.1
v 2.43721 2.35314 1.1
v 1.88034 2.53294 0.9
v 1.87879 2.54844 0.9
v 1.89877 2.5318 0.9
v 1.91686 2.52839 0.9
v 1.94835 2.5155 0.9
v 1.93369 2.52289 0.9
v 1.92078 2.54597 0.9
v 1.96578 2.53856 0.9
v 2.00416 2.53527 0.9
v 2.00416 2.54553 0.9
v 2.03749 2.53023 0.9
v 2.07488 2.52809 0.9
v 2.09387 2.52809 0.9
v 2.1022 2.54553 0.9
v 2.12404 2.52466 0.9
v 2.14405 2.51434 0.9
v 2.17369 2.5264 0.9
v 2.01904 2.85714 0.9
v 2.01904 2.87563 0.9
v 2.07449 2.88504 0.9
v 2.1418 2.88504 0.9
v 2.22486 2.53527 0.9
v 2.22486 2.54553 0.9
v 2.25818 2.53023 0.9
v 2.27853 2.51938 0.9
v 2.30352 2.54553 0.9
v 2.40233 2.53527 0.9
v 2.40233 2.54553 0.9
v 2.43721 2.53023 0.9
v 2.45755 2.53023 0.9
v 2.49088 2.53527 0.9
v 2.49088 2.54553 0.9
v 2.21609 2.85714 0.9
v 2.21609 2.87563 0.9
v 2.41699 2.85714 0.9
v 2.41699 2.87563 0.9
v 2.47697 2.88504 0.9
v 1.88034 2.53294 1.1
v 1.87879 2.54844 1.1
v 1.89877 2.5318 1.1
v 1.91686 2.52839 1.1
v 1.94835 2.5155 1.1
v 1.93369 2.52289 1.1
v 1.92078 2.54597 1.1
v 1.96578 2.53856 1.1
v 2.00416 2.53527 1.1
v 2.00416 2.54553 1.1
v 2.03749 2.53023 1.1
v 2.07488 2.52809 1.1
v 2.09387 2.52809 1.1
v 2.1022 2.54553 1.1
v 2.12404 2.52466 1.1
v 2.14405 2.51434 1.1
v 2.17369 2.5264 1.1
v 2.01904 2.85714 1.1
v 2.01904 2.87563 1.1
v 2.07449 2.88504 1.1
v 2.1418 2.88504 1.1
v 2.22486 2.53527 1.1
v 2.22486 2.54553 1.1
v 2.25818 2.53023 1.1
v 2.27853 2.51938 1.1
v 2.30352 2.54553 1.1
v 2.40233 2.53527 1.1
v 2.40233 2.54553 1.1
v 2.43721 2.53023 1.1
v 2.45755 2.53023 1.1
v 2.49088 2.53527 1.1
v 2.49088 2.54553 1.1
v 2.21609 2.85714 1.1
v 2.21609 2.87563 1.1
v 2.41699 2.85714 1.1
v 2.41699 2.87563 1.1
v 2.47697 2.88504 1.1
v 1.26081 3.29726 0.9
v 1.29742 3.25925 0.9
v 1.34241 3.32482 0.9
v 1.66745 3.25925 0.9
v 1.66047 3.32482 0.9
v 1.73441 3.29726 0.9
v 1.79439 3.30634 0.9
v 1.79439 3.32482 0.9
v 1.26081 3.29726 1.1
v 1.29742 3.25925 1.1
v 1.34241 3.32482 1.1
v 1.66745 3.25925 1.1
v 1.66047 3.32482 1.1
v 1.73441 3.29726 1.1
v 1.79439 3.30634 1.1
v 1.79439 3.32482 1.1
v 2.1418 3.04058 0.9
v 2.1418 3.07198 0.9
v 2.17807 3.07198 0.9
v 2.01451 3.30634 0.9
v 2.01451 3.32482 0.9
v 2.07449 3.29726 0.9
v 2.1418 3.29343 0.9
v 2.17598 3.29343 0.9
v 2.19446 3.04058 0.9
v 2.22929 3.07869 0.9
v 2.26508 3.09883 0.9
v 2.26626 3.04991 0.9
v 2.31914 3.0779 0.9
v 2.28614 3.13414 0.9
v 2.29316 3.18636 0.9
v 2.28644 3.23571 0.9
v 2.3517 3.12385 0.9
v 2.36256 3.18706 0.9
v 2.23029 3.28724 0.9
v 2.19097 3.32482 0.9
v 2.2663 3.26866 0.9
v 2.31966 3.29038 0.9
v 2.41699 3.30634 0.9
v 2.41699 3.32482 0.9
v 2.47697 3.29726 0.9
v 2.1418 3.04058 1.1
v 2.1418 3.07198 1.1
v 2.17807 3.07198 1.1
v 2.01451 3.30634 1.1
v 2.01451 3.32482 1.1
v 2.07449 3.29726 1.1
v 2.1418 3.29343 1.1
v 2.17598 3.29343 1.1
v 2.19446 3.04058 1.1
v 2.22929 3.07869 1.1
v 2.26508 3.09883 1.1
v 2.26626 3.04991 1.1
v 2.31914 3.0779 1.1
v 2.28614 3.13414 1.1
v 2.29316 3.18636 1.1
v 2.28644 3.23571 1.1
v 2.3517 3.12385 1.1
v 2.36256 3.18706 1.1
v 2.23029 3.28724 1.1
v 2.19097 3.32482 1.1
v 2.2663 3.26866 1.1
v 2.31966 3.29038 1.1
v 2.41699 3.30634 1.1
v 2.41699 3.32482 1.1
v 2.47697 3.29726 1.1
v 5 0 0
v 2.61266 0.565423 0.9
v 2.62292 0.565423 0.9
v 2.54523 0.744449 0.9
v 2.62602 0.632849 0.9
v 2.74269 0.571429 0.9
v 2.74269 0.581697 0.9
v 2.77601 0.586929 0.9
v 2.79636 0.586929 0.9
v 2.54988 0.813034 0.9
v 2.5586 0.813034 0.9
v 2.64443 0.82098 0.9
v 2.64443 0.831249 0.9
v 2.68492 0.81594 0.9
v 2.70779 0.81594 0.9
v 2.73046 0.82098 0.9
v 2.73046 0.831249 0.9
v 2.79636 0.805091 0.9
v 2.74269 0.82098 0.9
v 2.74269 0.831249 0.9
v 2.77601 0.81594 0.9
v 2.83123 0.571429 0.9
v 2.83123 0.581697 0.9
v 2.95659 0.571429 0.9
v 2.95504 0.638854 0.9
v 2.97538 0.571429 0.9
v 3.02926 0.571429 0.9
v 3.02926 0.581697 0.9
v 3.06259 0.586929 0.9
v 3.08293 0.586929 0.9
v 3.1178 0.571429 0.9
v 3.1178 0.581697 0.9
v 2.82135 0.831249 0.9
v 2.92016 0.82098 0.9
v 2.92016 0.831249 0.9
v 2.95504 0.81594 0.9
v 2.97538 0.81594 0.9
v 3.00871 0.82098 0.9
v 3.00871 0.831249 0.9
v 3.02926 0.82098 0.9
v 3.02926 0.831249 0.9
v 3.08293 0.805091 0.9
v 3.06259 0.81594 0.9
v 3.10792 0.831249 0.9
v 2.61266 0.565423 1.1
v 2.62292 0.565423 1.1
v 2.54523 0.744449 1.1
v 2.62602 0.632849 1.1
v 2.74269 0.571429 1.1
v 2.74269 0.581697 1.1
v 2.77601 0.586929 1.1
v 2.79636 0.586929 1.1
v 2.54988 0.813034 1.1
v 2.5586 0.813034 1.1
v 2.64443 0.82098 1.1
v 2.64443 0.831249 1.1
v 2.68492 0.81594 1.1
v 2.70779 0.81594 1.1
v 2.73046 0.82098 1.1
v 2.73046 0.831249 1.1
v 2.79636 0.805091 1.1
v 2.74269 0.82098 1.1
v 2.74269 0.831249 1.1
v 2.77601 0.81594 1.1
v 2.83123 0.571429 1.1
v 2.83123 0.581697 1.1
v 2.95659 0.571429 1.1
v 2.95504 0.638854 1.1
v 2.97538 0.571429 1.1
v 3.02926 0.571429 1.1
v 3.02926 0.581697 1.1
v 3.06259 0.586929 1.1
v 3.08293 0.586929 1.1
v 3.1178 0.571429 1.1
v 3.1178 0.581697 1.1
v 2.82135 0.831249 1.1
v 2.92016 0.82098 1.1
v 2.92016 0.831249 1.1
v 2.95504 0.81594 1.1
v 2.97538 0.81594 1.1
v 3.00871 0.82098 1.1
v 3.00871 0.831249 1.1
v 3.02926 0.82098 1.1
v 3.02926 0.831249 1.1
v 3.08293 0.805091 1.1
v 3.06259 0.81594 1.1
v 3.10792 0.831249 1.1
v 3.24316 0.571429 0.9
v 3.26196 0.571429 0.9
v 3.24161 0.638854 0.9
v 3.31584 0.571429 0.9
v 3.31584 0.581697 0.9
v 3.34916 0.586929 0.9
v 3.3695 0.586929 0.9
v 3.40438 0.571429 0.9
v 3.40438 0.581697 0.9
v 3.20674 0.82098 0.9
v 3.20674 0.831249 0.9
v 3.24161 0.81594 0.9
v 3.26196 0.81594 0.9
v 3.29528 0.82098 0.9
v 3.29528 0.831249 0.9
v 3.31584 0.82098 0.9
v 3.31584 0.831249 0.9
v 3.34916 0.81594 0.9
v 3.3695 0.805091 0.9
v 3.3945 0.831249 0.9
v 3.52974 0.571429 0.9
v 3.54853 0.571429 0.9
v 3.52818 0.638854 0.9
v 3.49331 0.82098 0.9
v 3.49331 0.831249 0.9
v 3.52818 0.81594 0.9
v 3.54853 0.81594 0.9
v 3.58186 0.82098 0.9
v 3.58186 0.831249 0.9
v 3.24316 0.571429 1.1
v 3.26196 0.571429 1.1
v 3.24161 0.638854 1.1
v 3.31584 0.571429 1.1
v 3.31584 0.581697 1.1
v 3.34916 0.586929 1.1
v 3.3695 0.586929 1.1
v 3.40438 0.571429 1.1
v 3.40438 0.581697 1.1
v 3.20674 0.82098 1.1
v 3.20674 0.831249 1.1
v 3.24161 0.81594 1.1
v 3.26196 0.81594 1.1
v 3.29528 0.82098 1.1
v 3.29528 0.831249 1.1
v 3.31584 0.82098 1.1
v 3.31584 0.831249 1.1
v 3.34916 0.81594 1.1
v 3.3695 0.805091 1.1
v 3.3945 0.831249 1.1
v 3.52974 0.571429 1.1
v 3.54853 0.571429 1.1
v 3.52818 0.638854 1.1
v 3.49331 0.82098 1.1
v 3.49331 0.831249 1.1
v 3.52818 0.81594 1.1
v 3.54853 0.81594 1.1
v 3.58186 0.82098 1.1
v 3.58186 0.831249 1.1
v 2.51434 1.14286 0.9
v 2.51434 1.15313 0.9
v 2.54766 1.15836 0.9
v 2.58486 1.15836 0.9
v 2.61819 1.14286 0.9
v 2.61819 1.15313 0.9
v 2.64648 1.14286 0.9
v 2.64648 1.15313 0.9
v 2.67981 1.15836 0.9
v 2.71701 1.15836 0.9
v 2.75033 1.14286 0.9
v 2.75033 1.15313 0.9
v 2.77863 1.14286 0.9
v 2.77863 1.15313 0.9
v 2.81195 1.15836 0.9
v 2.51434 1.39241 0.9
v 2.51434 1.40268 0.9
v 2.54766 1.38737 0.9
v 2.58486 1.38737 0.9
v 2.61819 1.39241 0.9
v 2.61819 1.40268 0.9
v 2.64648 1.39241 0.9
v 2.64648 1.40268 0.9
v 2.67981 1.38737 0.9
v 2.71701 1.38737 0.9
v 2.75033 1.39241 0.9
v 2.75033 1.40268 0.9
v 2.77863 1.39241 0.9
v 2.77863 1.40268 0.9
v 2.81195 1.38737 0.9
v 2.84915 1.15836 0.9
v 2.88248 1.14286 0.9
v 2.88248 1.15313 0.9
v 2.84915 1.38737 0.9
v 2.88248 1.39241 0.9
v 2.88248 1.40268 0.9
v 2.51434 1.14286 1.1
v 2.51434 1.15313 1.1
v 2.54766 1.15836 1.1
v 2.58486 1.15836 1.1
v 2.61819 1.14286 1.1
v 2.61819 1.15313 1.1
v 2.64648 1.14286 1.1
v 2.64648 1.15313 1.1
v 2.67981 1.15836 1.1
v 2.71701 1.15836 1.1
v 2.75033 1.14286 1.1
v 2.75033 1.15313 1.1
v 2.77863 1.14286 1.1
v 2.77863 1.15313 1.1
v 2.81195 1.15836 1.1
v 2.51434 1.39241 1.1
v 2.51434 1.40268 1.1
v 2.54766 1.38737 1.1
v 2.58486 1.38737 1.1
v 2.61819 1.39241 1.1
v 2.61819 1.40268 1.1
v 2.64648 1.39241 1.1
v 2.64648 1.40268 1.1
v 2.67981 1.38737 1.1
v 2.71701 1.38737 1.1
v 2.75033 1.39241 1.1
v 2.75033 1.40268 1.1
v 2.77863 1.39241 1.1
v 2.77863 1.40268 1.1
v 2.81195 1.38737 1.1
v 2.84915 1.15836 1.1
v 2.88248 1.14286 1.1
v 2.88248 1.15313 1.1
v 2.84915 1.38737 1.1
v 2.88248 1.39241 1.1
v 2.88248 1.40268 1.1
v 2.55154 1.7448 0.9
v 2.59377 1.71901 0.9
v 2.61007 1.73279 0.9
v 2.64996 1.71041 0.9
v 2.65035 1.72533 0.9
v 2.67181 1.72666 0.9
v 2.69201 1.73066 0.9
v 2.69738 1.71346 0.9
v 2.70954 1.73688 0.9
v 2.72301 1.7449 0.9
v 2.74161 1.72262 0.9
v 2.77863 1.71429 0.9
v 2.77863 1.72455 0.9
v 2.80944 1.72979 0.9
v 2.52509 1.78609 0.9
v 2.56275 1.79169 0.9
v 2.51627 1.84119 0.9
v 2.55677 1.84158 0.9
v 2.5807 1.75517 0.9
v 2.52475 1.90007 0.9
v 2.56248 1.89496 0.9
v 2.55018 1.94262 0.9
v 2.57963 1.93225 0.9
v 2.59227 1.96841 0.9
v 2.60923 1.9542 0.9
v 2.65229 1.96151 0.9
v 2.65074 1.97701 0.9
v 2.73017 1.78365 0.9
v 2.74277 1.78365 0.9
v 2.80944 1.80612 0.9
v 2.72611 1.91036 0.9
v 2.67072 1.96037 0.9
v 2.68881 1.95696 0.9
v 2.69273 1.97454 0.9
v 2.70564 1.95146 0.9
v 2.72029 1.94407 0.9
v 2.73889 1.91036 0.9
v 2.73773 1.96713 0.9
v 2.77611 1.96384 0.9
v 2.80944 1.9588 0.9
v 2.77611 1.97411 0.9
v 2.84683 1.72979 0.9
v 2.8881 1.71429 0.9
v 2.8881 1.72455 0.9
v 2.99681 1.71429 0.9
v 2.99681 1.72455 0.9
v 3.03013 1.72979 0.9
v 3.08535 1.71429 0.9
v 3.05047 1.72979 0.9
v 3.08535 1.72455 0.9
v 2.84683 1.8162 0.9
v 2.84683 1.83364 0.9
v 2.86698 1.83364 0.9
v 2.87609 1.8162 0.9
v 2.89544 1.83737 0.9
v 2.91597 1.82138 0.9
v 2.91532 1.84855 0.9
v 2.92702 1.86817 0.9
v 2.94535 1.83693 0.9
v 2.96344 1.86246 0.9
v 2.84683 1.95667 0.9
v 2.86582 1.95667 0.9
v 2.87415 1.97411 0.9
v 2.92719 1.9246 0.9
v 2.93092 1.89719 0.9
v 2.89599 1.95323 0.9
v 2.916 1.94291 0.9
v 2.94564 1.95497 0.9
v 2.96947 1.89757 0.9
v 2.99681 1.96384 0.9
v 2.99681 1.97411 0.9
v 3.03013 1.9588 0.9
v 3.05047 1.94795 0.9
v 3.07547 1.97411 0.9
v 2.55154 1.7448 1.1
v 2.59377 1.71901 1.1
v 2.61007 1.73279 1.1
v 2.64996 1.71041 1.1
v 2.65035 1.72533 1.1
v 2.67181 1.72666 1.1
v 2.69201 1.73066 1.1
v 2.69738 1.71346 1.1
v 2.70954 1.73688 1.1
v 2.72301 1.7449 1.1
v 2.74161 1.72262 1.1
v 2.77863 1.71429 1.1
v 2.77863 1.72455 1.1
v 2.80944 1.72979 1.1
v 2.52509 1.78609 1.1
v 2.56275 1.79169 1.1
v 2.51627 1.84119 1.1
v 2.55677 1.84158 1.1
v 2.5807 1.75517 1.1
v 2.52475 1.90007 1.1
v 2.56248 1.89496 1.1
v 2.55018 1.94262 1.1
v 2.57963 1.93225 1.1
v 2.59227 1.96841 1.1
v 2.60923 1.9542 1.1
v 2.65229 1.96151 1.1
v 2.65074 1.97701 1.1
v 2.73017 1.78365 1.1
v 2.74277 1.78365 1.1
v 2.72611 1.91036 1.1
v 2.67072 1.96037 1.1
v 2.68881 1.95696 1.1
v 2.69273 1.97454 1.1
v 2.70564 1.95146 1.1
v 2.72029 1.94407 1.1
v 2.73889 1.91036 1.1
v 2.73773 1.96713 1.1
v 2.77611 1.96384 1.1
v 2.80944 1.9588 1.1
v 2.77611 1.97411 1.1
v 2.84683 1.72979 1.1
v 2.8881 1.71429 1.1
v 2.8881 1.72455 1.1
v 2.99681 1.71429 1.1
v 2.99681 1.72455 1.1
v 3.03013 1.72979 1.1
v 3.08535 1.71429 1.1
v 3.05047 1.72979 1.1
v 3.08535 1.72455 1.1
v 2.84683 1.8162 1.1
v 2.84683 1.83364 1.1
v 2.86698 1.83364 1.1
v 2.87609 1.8162 1.1
v 2.89544 1.83737 1.1
v 2.91597 1.82138 1.1
v 2.91532 1.84855 1.1
v 2.92702 1.86817 1.1
v 2.94535 1.83693 1.1
v 2.96344 1.86246 1.1
v 2.84683 1.95667 1.1
v 2.86582 1.95667 1.1
v 2.87415 1.97411 1.1
v 2.92719 1.9246 1.1
v 2.93092 1.89719 1.1
v 2.89599 1.95323 1.1
v 2.916 1.94291 1.1
v 2.94564 1.95497 1.1
v 2.96947 1.89757 1.1
v 2.99681 1.96384 1.1
v 2.99681 1.97411 1.1
v 3.03013 1.9588 1.1
v 3.05047 1.94795 1.1
v 3.07547 1.97411 1.1
v 3.21071 1.71429 0.9
v 3.2295 1.71429 0.9
v 3.20915 1.78171 0.9
v 3.17428 1.96384 0.9
v 3.17428 1.97411 0.9
v 3.20915 1.9588 0.9
v 3.2295 1.9588 0.9
v 3.26283 1.96384 0.9
v 3.26283 1.97411 0.9
v 3.21071 1.71429 1.1
v 3.2295 1.71429 1.1
v 3.20915 1.78171 1.1
v 3.17428 1.96384 1.1
v 3.17428 1.97411 1.1
v 3.20915 1.9588 1.1
v 3.2295 1.9588 1.1
v 3.26283 1.96384 1.1
v 3.26283 1.97411 1.1
v 5 0 0.9
v 5 4 0
v 2.52509 2.35752 0.9
v 2.55154 2.31623 0.9
v 2.56275 2.36312 0.9
v 2.59377 2.29044 0.9
v 2.61007 2.30422 0.9
v 2.64996 2.28184 0.9
v 2.65035 2.29676 0.9
v 2.5807 2.32659 0.9
v 2.51627 2.41262 0.9
v 2.55677 2.41301 0.9
v 2.52475 2.4715 0.9
v 2.56248 2.46639 0.9
v 2.67181 2.29809 0.9
v 2.69201 2.30209 0.9
v 2.69738 2.28489 0.9
v 2.70954 2.30831 0.9
v 2.72301 2.31633 0.9
v 2.73017 2.35508 0.9
v 2.74161 2.29405 0.9
v 2.77863 2.28571 0.9
v 2.77863 2.29598 0.9
v 2.80944 2.30121 0.9
v 2.74277 2.35508 0.9
v 2.72611 2.48179 0.9
v 2.73889 2.48179 0.9
v 2.84683 2.30121 0.9
v 2.8881 2.28571 0.9
v 2.8881 2.29598 0.9
v 2.84683 2.38763 0.9
v 2.84683 2.40507 0.9
v 2.86698 2.40507 0.9
v 2.87609 2.38763 0.9
v 2.91597 2.39281 0.9
v 2.89544 2.4088 0.9
v 2.91532 2.41998 0.9
v 2.94535 2.40836 0.9
v 2.96344 2.43388 0.9
v 2.92702 2.4396 0.9
v 2.92719 2.49603 0.9
v 2.93092 2.46861 0.9
v 2.99681 2.28571 0.9
v 2.99681 2.29598 0.9
v 3.03013 2.30121 0.9
v 3.05047 2.30121 0.9
v 3.08535 2.28571 0.9
v 3.08535 2.29598 0.9
v 2.96947 2.469 0.9
v 2.52509 2.35752 1.1
v 2.55154 2.31623 1.1
v 2.56275 2.36312 1.1
v 2.59377 2.29044 1.1
v 2.61007 2.30422 1.1
v 2.64996 2.28184 1.1
v 2.65035 2.29676 1.1
v 2.5807 2.32659 1.1
v 2.51627 2.41262 1.1
v 2.55677 2.41301 1.1
v 2.52475 2.4715 1.1
v 2.56248 2.46639 1.1
v 2.67181 2.29809 1.1
v 2.69201 2.30209 1.1
v 2.69738 2.28489 1.1
v 2.70954 2.30831 1.1
v 2.72301 2.31633 1.1
v 2.73017 2.35508 1.1
v 2.74161 2.29405 1.1
v 2.77863 2.28571 1.1
v 2.77863 2.29598 1.1
v 2.80944 2.30121 1.1
v 2.74277 2.35508 1.1
v 2.72611 2.48179 1.1
v 2.73889 2.48179 1.1
v 2.84683 2.30121 1.1
v 2.8881 2.28571 1.1
v 2.8881 2.29598 1.1
v 2.84683 2.38763 1.1
v 2.84683 2.40507 1.1
v 2.86698 2.40507 1.1
v 2.87609 2.38763 1.1
v 2.91597 2.39281 1.1
v 2.89544 2.4088 1.1
v 2.91532 2.41998 1.1
v 2.94535 2.40836 1.1
v 2.96344 2.43388 1.1
v 2.92702 2.4396 1.1
v 2.92719 2.49603 1.1
v 2.93092 2.46861 1.1
v 2.99681 2.28571 1.1
v 2.99681 2.29598 1.1
v 3.03013 2.30121 1.1
v 3.05047 2.30121 1.1
v 3.08535 2.28571 1.1
v 3.08535 2.29598 1.1
v 2.96947 2.469 1.1
v 2.55018 2.51405 0.9
v 2.57963 2.50368 0.9
v 2.60923 2.52563 0.9
v 2.59227 2.53984 0.9
v 2.65229 2.53294 0.9
v 2.65074 2.54844 0.9
v 2.68881 2.52839 0.9
v 2.67072 2.5318 0.9
v 2.69273 2.54597 0.9
v 2.70564 2.52289 0.9
v 2.72029 2.5155 0.9
v 2.73773 2.53856 0.9
v 2.80944 2.53023 0.9
v 2.77611 2.53527 0.9
v 2.77611 2.54553 0.9
v 2.60392 2.85714 0.9
v 2.54393 2.88504 0.9
v 2.60392 2.87563 0.9
v 2.79784 2.86564 0.9
v 2.72181 2.91207 0.9
v 2.6742 2.9864 0.9
v 2.7743 2.93073 0.9
v 2.74199 2.99647 0.9
v 2.84683 2.52809 0.9
v 2.86582 2.52809 0.9
v 2.87415 2.54553 0.9
v 2.89599 2.52466 0.9
v 2.916 2.51434 0.9
v 2.94564 2.5264 0.9
v 2.99681 2.53527 0.9
v 2.99681 2.54553 0.9
v 3.03013 2.53023 0.9
v 3.05047 2.51938 0.9
v 3.07547 2.54553 0.9
v 2.89898 2.85017 0.9
v 2.82718 2.89045 0.9
v 2.89967 2.87702 0.9
v 2.9383 2.87942 0.9
v 2.98433 2.85566 0.9
v 3.06393 2.87214 0.9
v 2.97465 2.88661 0.9
v 3.00621 2.89782 0.9
v 3.03045 2.91224 0.9
v 3.04336 2.982 0.9
v 3.06603 2.982 0.9
v 2.55018 2.51405 1.1
v 2.57963 2.50368 1.1
v 2.60923 2.52563 1.1
v 2.59227 2.53984 1.1
v 2.65229 2.53294 1.1
v 2.65074 2.54844 1.1
v 2.68881 2.52839 1.1
v 2.67072 2.5318 1.1
v 2.69273 2.54597 1.1
v 2.70564 2.52289 1.1
v 2.72029 2.5155 1.1
v 2.73773 2.53856 1.1
v 2.80944 2.53023 1.1
v 2.77611 2.53527 1.1
v 2.77611 2.54553 1.1
v 2.60392 2.85714 1.1
v 2.54393 2.88504 1.1
v 2.60392 2.87563 1.1
v 2.79784 2.86564 1.1
v 2.72181 2.91207 1.1
v 2.6742 2.9864 1.1
v 2.7743 2.93073 1.1
v 2.74199 2.99647 1.1
v 2.84683 2.52809 1.1
v 2.86582 2.52809 1.1
v 2.87415 2.54553 1.1
v 2.89599 2.52466 1.1
v 2.916 2.51434 1.1
v 2.94564 2.5264 1.1
v 2.99681 2.53527 1.1
v 2.99681 2.54553 1.1
v 3.03013 2.53023 1.1
v 3.05047 2.51938 1.1
v 3.07547 2.54553 1.1
v 2.89898 2.85017 1.1
v 2.82718 2.89045 1.1
v 2.89967 2.87702 1.1
v 2.9383 2.87942 1.1
v 2.98433 2.85566 1.1
v 3.06393 2.87214 1.1
v 2.97465 2.88661 1.1
v 3.00621 2.89782 1.1
v 3.03045 2.91224 1.1
v 3.04336 2.982 1.1
v 3.06603 2.982 1.1
v 3.21071 2.28571 0.9
v 3.2295 2.28571 0.9
v 3.20915 2.35314 0.9
v 3.21071 2.28571 1.1
v 3.2295 2.28571 1.1
v 3.20915 2.35314 1.1
v 3.17428 2.53527 0.9
v 3.17428 2.54553 0.9
v 3.20915 2.53023 0.9
v 3.2295 2.53023 0.9
v 3.26283 2.53527 0.9
v 3.26283 2.54553 0.9
v 3.14348 2.86517 0.9
v 3.20451 2.85392 0.9
v 3.26903 2.85017 0.9
v 3.17836 2.89795 0.9
v 3.19479 2.8908 0.9
v 3.13965 2.96351 0.9
v 3.16266 2.96351 0.9
v 3.21689 2.88469 0.9
v 3.241 2.88051 0.9
v 3.26345 2.87911 0.9
v 3.33922 2.85906 0.9
v 3.31106 2.88539 0.9
v 3.34436 2.90422 0.9
v 3.39144 2.88574 0.9
v 3.42387 2.9282 0.9
v 3.36398 2.9377 0.9
v 3.37052 2.98793 0.9
v 3.43469 2.98444 0.9
v 3.494 2.85714 0.9
v 3.494 2.90841 0.9
v 3.53969 2.91085 0.9
v 3.5736 2.94128 0.9
v 3.55887 2.96735 0.9
v 3.6056 2.96909 0.9
v 3.17428 2.53527 1.1
v 3.17428 2.54553 1.1
v 3.20915 2.53023 1.1
v 3.2295 2.53023 1.1
v 3.26283 2.53527 1.1
v 3.26283 2.54553 1.1
v 3.14348 2.86517 1.1
v 3.20451 2.85392 1.1
v 3.26903 2.85017 1.1
v 3.17836 2.89795 1.1
v 3.19479 2.8908 1.1
v 3.13965 2.96351 1.1
v 3.16266 2.96351 1.1
v 3.21689 2.88469 1.1
v 3.241 2.88051 1.1
v 3.26345 2.87911 1.1
v 3.33922 2.85906 1.1
v 3.31106 2.88539 1.1
v 3.34436 2.90422 1.1
v 3.39144 2.88574 1.1
v 3.42387 2.9282 1.1
v 3.36398 2.9377 1.1
v 3.37052 2.98793 1.1
v 3.43469 2.98444 1.1
v 3.494 2.85714 1.1
v 3.494 2.90841 1.1
v 3.53969 2.91085 1.1
v 3.5736 2.94128 1.1
v 3.55887 2.96735 1.1
v 3.6056 2.96909 1.1
v 2.65834 3.08557 0.9
v 2.73123 3.08627 0.9
v 2.67359 3.19155 0.9
v 2.74151 3.18235 0.9
v 2.77238 3.24949 0.9
v 2.54393 3.29726 0.9
v 2.60392 3.30634 0.9
v 2.60392 3.32482 0.9
v 2.71937 3.26814 0.9
v 2.79513 3.31457 0.9
v 3.03603 3.21008 0.9
v 3.05905 3.21008 0.9
v 2.82565 3.28898 0.9
v 2.90316 3.30215 0.9
v 2.93634 3.3001 0.9
v 2.90037 3.33005 0.9
v 2.9689 3.29395 0.9
v 2.9992 3.28406 0.9
v 3.02557 3.27076 0.9
v 2.97596 3.3256 0.9
v 3.05696 3.31226 0.9
v 2.65834 3.08557 1.1
v 2.73123 3.08627 1.1
v 2.67359 3.19155 1.1
v 2.74151 3.18235 1.1
v 2.77238 3.24949 1.1
v 2.54393 3.29726 1.1
v 2.60392 3.30634 1.1
v 2.60392 3.32482 1.1
v 2.71937 3.26814 1.1
v 2.79513 3.31457 1.1
v 3.03603 3.21008 1.1
v 3.05905 3.21008 1.1
v 2.82565 3.28898 1.1
v 2.90316 3.30215 1.1
v 2.93634 3.3001 1.1
v 2.90037 3.33005 1.1
v 2.9689 3.29395 1.1
v 2.9992 3.28406 1.1
v 3.02557 3.27076 1.1
v 2.97596 3.3256 1.1
v 3.05696 3.31226 1.1
v 3.22195 3.08697 0.9
v 3.22195 3.11557 0.9
v 3.27182 3.08418 0.9
v 3.27182 3.1187 0.9
v 3.15394 3.22507 0.9
v 3.17696 3.22507 0.9
v 3.34645 3.05785 0.9
v 3.31576 3.07638 0.9
v 3.31123 3.10196 0.9
v 3.35452 3.11439 0.9
v 3.3645 3.02842 0.9
v 3.42719 3.03069 0.9
v 3.36633 3.08919 0.9
v 3.40469 3.06552 0.9
v 3.30608 3.12585 0.9
v 3.33006 3.14312 0.9
v 3.34418 3.17119 0.9
v 3.34889 3.21078 0.9
v 3.38673 3.13771 0.9
v 3.40674 3.17141 0.9
v 3.41341 3.21496 0.9
v 3.18917 3.28227 0.9
v 3.15394 3.31505 0.9
v 3.18611 3.32259 0.9
v 3.20573 3.28981 0.9
v 3.22474 3.29569 0.9
v 3.24453 3.29949 0.9
v 3.26345 3.30076 0.9
v 3.21357 3.32708 0.9
v 3.2386 3.32931 0.9
v 3.26345 3.33005 0.9
v 3.30203 3.29539 0.9
v 3.32849 3.2793 0.9
v 3.34379 3.25145 0.9
v 3.37592 3.30128 0.9
v 3.50969 3.22507 0.9
v 3.53271 3.22507 0.9
v 3.61301 3.01687 0.9
v 3.66785 3.02398 0.9
v 3.65059 3.05593 0.9
v 3.67574 3.09028 0.9
v 3.70953 3.06517 0.9
v 3.73686 3.09961 0.9
v 3.69261 3.12568 0.9
v 3.70216 3.16422 0.9
v 3.70534 3.20798 0.9
v 3.7002 3.24792 0.9
v 3.50969 3.31505 0.9
v 3.54492 3.28227 0.9
v 3.56105 3.28981 0.9
v 3.57944 3.29569 0.9
v 3.56837 3.3263 0.9
v 3.59871 3.29949 0.9
v 3.61746 3.30076 0.9
v 3.65765 3.29483 0.9
v 3.61746 3.33005 0.9
v 3.68477 3.27704 0.9
v 3.73272 3.29814 0.9
v 3.68464 3.32207 0.9
v 3.22195 3.08697 1.1
v 3.22195 3.11557 1.1
v 3.27182 3.08418 1.1
v 3.27182 3.1187 1.1
v 3.15394 3.22507 1.1
v 3.17696 3.22507 1.1
v 3.34645 3.05785 1.1
v 3.31576 3.07638 1.1
v 3.31123 3.10196 1.1
v 3.35452 3.11439 1.1
v 3.3645 3.02842 1.1
v 3.42719 3.03069 1.1
v 3.36633 3.08919 1.1
v 3.40469 3.06552 1.1
v 3.30608 3.12585 1.1
v 3.33006 3.14312 1.1
v 3.34418 3.17119 1.1
v 3.34889 3.21078 1.1
v 3.38673 3.13771 1.1
v 3.40674 3.17141 1.1
v 3.41341 3.21496 1.1
v 3.18917 3.28227 1.1
v 3.15394 3.31505 1.1
v 3.18611 3.32259 1.1
v 3.20573 3.28981 1.1
v 3.22474 3.29569 1.1
v 3.24453 3.29949 1.1
v 3.26345 3.30076 1.1
v 3.21357 3.32708 1.1
v 3.2386 3.32931 1.1
v 3.26345 3.33005 1.1
v 3.30203 3.29539 1.1
v 3.32849 3.2793 1.1
v 3.34379 3.25145 1.1
v 3.37592 3.30128 1.1
v 3.50969 3.22507 1.1
v 3.53271 3.22507 1.1
v 3.61301 3.01687 1.1
v 3.66785 3.02398 1.1
v 3.65059 3.05593 1.1
v 3.67574 3.09028 1.1
v 3.70953 3.06517 1.1
v 3.73686 3.09961 1.1
v 3.69261 3.12568 1.1
v 3.70216 3.16422 1.1
v 3.70534 3.20798 1.1
v 3.7002 3.24792 1.1
v 3.50969 3.31505 1.1
v 3.54492 3.28227 1.1
v 3.56105 3.28981 1.1
v 3.57944 3.29569 1.1
v 3.56837 3.3263 1.1
v 3.59871 3.29949 1.1
v 3.61746 3.30076 1.1
v 3.65765 3.29483 1.1
v 3.61746 3.33005 1.1
v 3.68477 3.27704 1.1
v 3.73272 3.29814 1.1
v 3.68464 3.32207 1.1
v 3.78032 2.85714 0.9
v 3.78032 2.91085 0.9
v 3.78032 2.85714 1.1
v 3.78032 2.91085 1.1
v 3.75608 3.13422 0.9
v 3.76746 3.17001 0.9
v 3.77126 3.20798 0.9
v 3.76162 3.25964 0.9
v 3.75608 3.13422 1.1
v 3.76746 3.17001 1.1
v 3.77126 3.20798 1.1
v 3.76162 3.25964 1.1
v 5 4 0.9
f  2 3 4
f  2 4 7
f  2 14 3
f  2 18 14
f  2 71 18
f  2 7 8
f  2 8 250
f  1 2 394
f  2 150 152
f  2 152 155
f  2 148 147
f  2 147 150
f  2 247 148
f  2 155 157
f  2 157 487
f  2 384 385
f  2 445 384
f  2 425 431
f  2 426 425
f  2 428 426
f  2 480 428
f  2 431 445
f  1 1084 2
f  2 73 71
f  2 74 73
f  2 91 74
f  2 92 91
f  2 94 92
f  2 95 94
f  2 703 95
f  2 704 703
f  2 707 704
f  2 723 707
f  5 6 4
f  9 7 4
f  9 4 6
f  10 17 11
f  11 26 12
f  14 22 15
f  13 15 33
f  13 33 16
f  19 14 18
f  20 14 19
f  20 22 14
f  33 15 22
f  17 27 11
f  26 11 25
f  27 25 11
f  16 33 28
f  28 33 29
f  29 32 30
f  32 29 31
f  33 31 29
f  24 35 34
f  24 79 35
f  35 78 36
f  78 35 77
f  79 77 35
f  30 32 176
f  2 725 723
f  2 727 725
f  2 728 727
f  2 732 728
f  71 73 72
f  21 72 85
f  21 85 23
f  85 72 73
f  74 91 76
f  23 81 80
f  23 83 81
f  23 85 83
f  81 84 82
f  84 81 83
f  36 78 175
f  36 176 32
f  82 175 78
f  75 87 86
f  75 89 87
f  87 89 88
f  82 84 184
f  88 184 84
f  88 89 184
f  92 101 100
f  92 102 101
f  92 105 102
f  105 92 94
f  93 97 90
f  98 90 97
f  93 99 97
f  90 184 89
f  90 98 184
f  101 104 103
f  104 101 102
f  96 107 106
f  96 711 107
f  107 711 108
f  103 847 98
f  103 104 847
f  108 847 104
f  2 250 247
f  12 179 8
f  12 26 178
f  30 178 26
f  8 179 255
f  250 8 254
f  8 255 254
f  2 483 480
f  2 487 483
f  149 270 154
f  154 270 151
f  151 270 153
f  153 270 156
f  156 270 158
f  158 270 160
f  36 175 176
f  30 176 180
f  179 12 178
f  30 180 178
f  82 181 175
f  82 185 181
f  82 184 185
f  176 177 180
f  184 98 188
f  98 190 188
f  183 182 185
f  181 185 182
f  183 185 201
f  186 201 185
f  190 98 194
f  98 847 194
f  187 189 191
f  191 188 190
f  188 191 189
f  187 191 207
f  192 207 191
f  193 195 848
f  194 848 195
f  183 197 196
f  183 199 197
f  183 201 199
f  187 203 202
f  197 200 198
f  200 197 199
f  187 205 203
f  187 207 205
f  193 209 208
f  193 862 209
f  206 203 205
f  203 206 204
f  209 863 210
f  256 254 255
f  254 256 257
f  255 179 259
f  259 179 198
f  259 294 260
f  248 270 149
f  249 271 248
f  251 271 249
f  252 271 251
f  253 271 252
f  248 271 270
f  254 257 284
f  253 261 271
f  262 273 261
f  254 284 262
f  268 266 270
f  160 270 263
f  263 270 264
f  264 270 266
f  266 268 267
f  261 273 271
f  284 273 262
f  271 273 272
f  274 272 273
f  258 260 275
f  275 260 277
f  278 279 276
f  260 280 277
f  260 294 280
f  280 294 282
f  279 281 276
f  276 281 283
f  276 283 288
f  286 285 276
f  290 286 276
f  276 289 291
f  276 288 289
f  291 290 276
f  259 198 293
f  198 297 293
f  198 299 297
f  259 293 294
f  198 200 931
f  198 300 299
f  204 931 200
f  198 920 300
f  198 922 920
f  297 299 298
f  295 282 294
f  282 295 301
f  301 295 302
f  295 305 302
f  298 306 296
f  306 298 299
f  302 303 292
f  304 292 303
f  303 302 305
f  935 300 933
f  300 935 938
f  300 938 312
f  308 309 307
f  310 307 309
f  308 311 309
f  312 938 313
f  1 394 383
f  1 383 1085
f  383 394 1085
f  2 390 388
f  2 388 389
f  2 389 395
f  2 403 390
f  2 404 403
f  2 395 394
f  2 385 404
f  394 395 396
f  394 396 397
f  394 397 398
f  394 398 415
f  404 446 405
f  446 404 385
f  446 636 407
f  405 446 406
f  406 446 417
f  408 417 407
f  446 407 417
f  638 419 408
f  417 408 419
f  419 640 418
f  159 487 157
f  429 490 430
f  427 430 490
f  499 432 427
f  499 434 432
f  448 447 449
f  445 455 449
f  448 449 563
f  448 563 450
f  433 445 431
f  453 445 433
f  455 445 453
f  563 449 455
f  568 460 563
f  563 451 450
f  458 451 457
f  563 457 451
f  451 458 639
f  563 460 457
f  461 462 580
f  265 488 159
f  269 488 265
f  272 488 269
f  272 274 488
f  159 489 487
f  159 488 489
f  287 488 274
f  287 292 497
f  497 292 304
f  287 497 488
f  481 490 429
f  482 490 481
f  484 490 482
f  485 490 484
f  486 490 485
f  499 427 490
f  499 490 491
f  499 487 489
f  499 491 487
f  499 489 494
f  499 454 434
f  499 456 454
f  456 499 492
f  492 499 493
f  499 570 493
f  570 499 572
f  496 495 498
f  496 502 500
f  496 504 502
f  496 511 512
f  496 512 504
f  504 512 507
f  503 505 501
f  574 573 501
f  576 574 501
f  505 506 501
f  501 506 508
f  501 508 509
f  501 509 510
f  577 576 501
f  501 510 577
f  497 304 307
f  497 307 310
f  498 310 314
f  497 310 498
f  496 498 314
f  496 942 511
f  496 314 942
f  945 511 942
f  957 515 511
f  513 507 512
f  516 586 514
f  586 516 519
f  507 513 517
f  517 513 585
f  517 585 518
f  515 519 516
f  1094 520 1086
f  521 588 587
f  520 1094 1096
f  520 1096 592
f  521 590 588
f  520 592 591
f  456 492 562
f  562 492 564
f  564 492 565
f  565 566 567
f  566 565 492
f  493 570 569
f  571 569 570
f  569 460 568
f  569 571 460
f  575 460 571
f  575 578 579
f  578 584 579
f  460 575 462
f  580 462 579
f  575 579 462
f  584 594 579
f  582 595 652
f  652 595 660
f  518 583 578
f  584 578 583
f  583 518 585
f  587 594 584
f  587 589 594
f  589 587 588
f  593 594 589
f  1185 594 593
f  594 1193 596
f  594 597 595
f  660 595 663
f  595 597 663
f  597 594 596
f  448 450 637
f  452 640 638
f  419 638 640
f  643 418 640
f  418 643 656
f  459 639 458
f  461 642 641
f  461 657 642
f  642 656 643
f  461 580 657
f  581 657 580
f  654 661 653
f  670 659 653
f  659 658 653
f  656 642 655
f  657 655 642
f  661 662 653
f  662 665 653
f  663 597 664
f  665 666 653
f  666 667 653
f  672 670 653
f  667 672 653
f  676 664 597
f  598 676 597
f  664 676 668
f  668 676 669
f  673 675 671
f  669 674 673
f  674 669 676
f  675 673 674
f  394 415 1508
f  1508 416 418
f  1508 415 416
f  1 702 1084
f  1 1085 702
f  702 1085 1084
f  2 1084 732
f  705 95 703
f  708 704 707
f  704 708 722
f  704 717 716
f  704 722 720
f  704 720 717
f  709 722 708
f  724 719 710
f  706 713 712
f  706 715 713
f  714 712 713
f  108 711 859
f  712 859 711
f  717 721 718
f  721 717 720
f  712 714 859
f  718 859 714
f  718 721 859
f  734 859 721
f  723 725 724
f  719 724 725
f  729 727 728
f  727 729 744
f  727 739 738
f  727 741 739
f  727 744 741
f  730 744 729
f  733 743 731
f  736 734 735
f  726 735 734
f  726 737 735
f  734 736 878
f  740 878 736
f  739 742 740
f  742 739 741
f  879 740 742
f  745 879 742
f  879 745 799
f  732 789 733
f  743 733 789
f  790 802 801
f  793 790 792
f  790 793 806
f  794 806 793
f  790 804 802
f  790 806 804
f  797 807 795
f  807 797 809
f  791 798 745
f  799 745 798
f  791 800 798
f  803 879 799
f  802 805 803
f  805 802 804
f  796 809 797
f  810 816 815
f  811 812 808
f  813 808 812
f  811 814 812
f  847 108 851
f  108 853 851
f  853 108 857
f  848 194 847
f  193 848 864
f  849 864 848
f  850 852 854
f  851 854 852
f  854 851 853
f  850 854 870
f  108 859 857
f  855 870 854
f  856 858 860
f  857 860 858
f  860 857 859
f  856 860 876
f  861 876 860
f  193 864 862
f  850 866 865
f  850 868 866
f  850 870 868
f  863 209 862
f  866 869 867
f  869 866 868
f  856 872 871
f  856 874 872
f  856 876 874
f  872 875 873
f  875 872 874
f  859 734 878
f  878 740 879
f  879 880 877
f  880 879 803
f  880 808 881
f  881 813 882
f  204 206 931
f  210 931 206
f  198 926 922
f  198 929 926
f  210 863 930
f  867 930 863
f  198 931 929
f  933 300 919
f  919 300 920
f  867 869 930
f  873 930 869
f  210 930 931
f  873 875 930
f  923 946 921
f  924 946 923
f  925 946 924
f  934 946 936
f  937 946 934
f  921 946 937
f  939 936 946
f  940 313 938
f  313 940 314
f  942 314 940
f  948 941 939
f  941 949 943
f  927 946 925
f  928 946 927
f  939 946 947
f  948 939 947
f  948 947 929
f  948 929 931
f  948 931 932
f  948 949 941
f  954 951 949
f  943 949 944
f  944 949 950
f  950 949 951
f  954 953 951
f  949 948 955
f  948 957 955
f  948 958 957
f  955 957 956
f  882 930 875
f  964 962 963
f  960 962 969
f  969 962 972
f  971 973 970
f  973 975 970
f  972 962 974
f  974 962 964
f  974 964 977
f  975 976 970
f  976 983 970
f  980 979 970
f  984 980 970
f  985 984 970
f  983 982 970
f  982 985 970
f  965 977 964
f  977 965 978
f  978 965 990
f  968 991 967
f  991 968 1066
f  978 990 987
f  987 988 986
f  988 987 990
f  880 803 805
f  880 805 808
f  881 808 813
f  817 882 813
f  1084 930 882
f  1084 961 930
f  1084 962 961
f  1084 963 962
f  1084 966 963
f  966 1066 968
f  1068 1069 992
f  1068 1071 1069
f  1070 992 1069
f  1067 1073 1072
f  1084 789 732
f  1084 790 789
f  1084 792 790
f  1084 796 792
f  1084 809 796
f  1084 810 809
f  1084 816 810
f  1084 882 817
f  1084 817 816
f  1084 1066 966
f  1084 1067 1066
f  1084 1073 1067
f  1084 1074 1073
f  1084 1271 1074
f  1084 1280 1271
f  1084 1281 1280
f  1084 1496 1281
f  1084 1497 1496
f  952 511 945
f  956 511 952
f  956 957 511
f  957 519 515
f  957 520 519
f  959 1089 520
f  959 520 957
f  981 1091 959
f  959 1091 1089
f  989 1100 1091
f  989 1104 1100
f  1087 520 1089
f  1086 520 1087
f  1090 1109 1093
f  1088 1109 1095
f  1093 1109 1088
f  1095 1109 1097
f  1097 1109 1181
f  1092 1109 1090
f  1098 1110 1092
f  1099 1110 1098
f  1101 1110 1099
f  1102 1110 1101
f  1106 1104 1105
f  1104 1106 1107
f  1102 1103 1110
f  1092 1110 1109
f  1104 1192 1108
f  1108 1193 1103
f  1104 1107 1192
f  1103 1193 1110
f  1192 1193 1108
f  986 1091 981
f  986 988 1091
f  989 1091 988
f  989 1105 1104
f  989 1112 1105
f  992 1112 989
f  992 1070 1112
f  1070 1126 1112
f  1070 1130 1126
f  1111 1113 1114
f  1114 1113 1117
f  1112 1127 1113
f  1127 1112 1126
f  1117 1113 1118
f  1113 1127 1118
f  1118 1127 1121
f  1116 1119 1115
f  1119 1120 1115
f  1204 1203 1115
f  1206 1204 1115
f  1207 1206 1115
f  1120 1123 1115
f  1123 1125 1115
f  1125 1124 1115
f  1124 1207 1115
f  1128 1121 1127
f  1131 1212 1129
f  1212 1131 1270
f  1121 1128 1122
f  1122 1128 1132
f  1128 1211 1132
f  1180 592 1096
f  592 1180 593
f  1183 593 1180
f  1185 593 1183
f  1181 1109 1182
f  1188 594 1185
f  1191 594 1188
f  594 1191 1193
f  1182 1109 1184
f  1184 1109 1187
f  1187 1109 1186
f  1190 1186 1109
f  1186 1190 1189
f  1110 1193 1191
f  1194 596 1193
f  596 1194 1195
f  1195 1199 1197
f  1197 1336 1196
f  1197 1200 1336
f  1195 1194 1198
f  1200 1197 1199
f  1199 1195 1198
f  1205 1282 1194
f  1132 1209 1208
f  1209 1132 1211
f  1210 1208 1209
f  1208 1282 1205
f  1208 1210 1282
f  1213 1282 1210
f  1198 1194 1214
f  1214 1194 1218
f  1218 1194 1219
f  1216 1346 1215
f  1217 1347 1216
f  1282 1219 1194
f  1220 1347 1217
f  1221 1347 1220
f  1219 1282 1287
f  1219 1287 1224
f  1288 1224 1287
f  1074 1270 1070
f  1070 1270 1130
f  1074 1271 1270
f  1130 1270 1131
f  1272 1276 1213
f  1272 1278 1276
f  1271 1280 1279
f  1277 1213 1276
f  1282 1213 1277
f  1281 1283 1277
f  1281 1284 1283
f  1282 1277 1283
f  1289 1285 1286
f  1285 1290 1288
f  1288 1298 1224
f  1285 1289 1290
f  1291 1288 1290
f  1293 1288 1291
f  1294 1288 1293
f  1388 1224 1298
f  1284 1281 1292
f  1292 1281 1295
f  1281 1300 1295
f  1297 1288 1294
f  1298 1288 1297
f  1295 1301 1296
f  1300 1281 1496
f  1301 1295 1300
f  1296 1301 1304
f  1296 1304 1299
f  1415 1299 1304
f  1302 1497 1303
f  1497 1305 1303
f  1305 1497 1416
f  1416 1497 1419
f  394 1508 1085
f  1196 1336 1338
f  1196 1342 1341
f  1196 1338 1342
f  1342 1344 1343
f  1344 1342 1338
f  1345 1343 1344
f  1351 1343 1345
f  1201 1346 1202
f  1215 1346 1201
f  1202 1346 1337
f  1337 1346 1339
f  1339 1346 1340
f  1340 1346 1348
f  1222 1347 1221
f  1222 1223 1347
f  1216 1347 1346
f  1224 1347 1223
f  1224 1378 1347
f  1348 1346 1349
f  1349 1346 1350
f  1350 1346 1352
f  1352 1354 1353
f  1354 1352 1346
f  1347 1400 1356
f  1400 1347 1382
f  1508 418 656
f  1508 656 671
f  1378 1224 1380
f  1380 1224 1385
f  1384 1224 1388
f  1385 1224 1384
f  1347 1379 1382
f  1379 1347 1378
f  1382 1379 1383
f  1381 1383 1379
f  1392 1383 1381
f  1393 1383 1392
f  1386 1390 1387
f  1387 1390 1391
f  1387 1391 1396
f  1394 1383 1393
f  1395 1383 1394
f  1411 1383 1395
f  1383 1402 1399
f  1402 1383 1403
f  1403 1383 1404
f  1404 1383 1405
f  1405 1383 1409
f  1409 1383 1410
f  1410 1383 1411
f  1398 1425 1412
f  1299 1415 1389
f  1389 1417 1391
f  1391 1417 1396
f  1396 1417 1397
f  1389 1415 1417
f  1418 1397 1417
f  1397 1413 1398
f  1413 1397 1414
f  1397 1422 1414
f  1421 1397 1418
f  1422 1397 1421
f  1423 1414 1422
f  1424 1414 1423
f  1425 1398 1413
f  1414 1427 1426
f  1427 1414 1428
f  1428 1414 1430
f  1430 1414 1431
f  1431 1414 1432
f  1432 1414 1434
f  1434 1414 1424
f  1508 671 675
f  1508 675 1343
f  1508 1343 1351
f  1508 1351 1355
f  1508 1355 1356
f  1508 1356 1400
f  1084 1085 1508
f  1084 1508 1497
f  1508 1419 1497
f  1508 1420 1419
f  1508 1500 1420
f  1508 1501 1500
f  1508 1502 1501
f  1508 1503 1502
f  1508 1400 1401
f  1508 1401 1406
f  1508 1406 1407
f  1508 1407 1408
f  1508 1408 1412
f  1508 1412 1425
f  1508 1425 1429
f  1508 1429 1433
f  1508 1433 1436
f  1508 1436 1435
f  1508 1435 1503
f  37 4 3
f  38 5 4
f  39 6 5
f  40 9 6
f  37 38 4
f  38 39 5
f  37 3 48
f  37 39 38
f  37 48 39
f  39 47 40
f  39 40 6
f  44 51 17
f  47 50 40
f  40 50 51
f  44 40 51
f  41 8 7
f  43 7 9
f  42 12 8
f  44 17 10
f  45 10 11
f  46 11 12
f  43 9 40
f  41 42 8
f  41 7 43
f  44 10 45
f  42 46 12
f  45 11 46
f  41 43 42
f  42 43 44
f  42 44 46
f  43 40 44
f  44 45 46
f  48 3 14
f  47 15 13
f  49 14 15
f  50 13 16
f  51 27 17
f  52 19 18
f  53 20 19
f  54 22 20
f  109 18 71
f  55 72 21
f  56 33 22
f  57 21 23
f  58 79 24
f  47 49 15
f  47 13 50
f  48 14 49
f  39 48 47
f  47 48 49
f  50 16 62
f  50 61 51
f  52 53 19
f  53 54 20
f  52 18 109
f  55 21 57
f  52 54 53
f  52 109 54
f  54 55 56
f  54 109 55
f  54 56 22
f  58 24 68
f  56 55 57
f  56 57 58
f  56 58 68
f  62 16 28
f  59 26 25
f  61 25 27
f  60 30 26
f  63 28 29
f  64 29 30
f  65 32 31
f  67 31 33
f  66 36 32
f  68 24 34
f  69 34 35
f  70 35 36
f  51 61 27
f  59 60 26
f  59 25 61
f  60 64 30
f  62 28 63
f  63 29 64
f  65 66 32
f  65 31 67
f  50 62 61
f  59 61 60
f  60 61 62
f  60 62 64
f  62 63 64
f  65 67 66
f  56 67 33
f  66 70 36
f  68 34 69
f  69 35 70
f  56 68 67
f  66 67 68
f  66 68 70
f  68 69 70
f  110 71 72
f  112 73 74
f  111 85 73
f  114 74 76
f  113 89 75
f  55 110 72
f  109 71 110
f  55 109 110
f  57 23 118
f  58 57 117
f  111 73 112
f  111 123 85
f  113 75 124
f  112 74 114
f  111 112 123
f  112 113 123
f  112 114 113
f  113 114 127
f  118 23 80
f  115 78 77
f  117 77 79
f  116 82 78
f  119 80 81
f  120 81 82
f  121 84 83
f  123 83 85
f  122 88 84
f  124 75 86
f  125 86 87
f  126 87 88
f  127 90 89
f  58 117 79
f  115 116 78
f  115 77 117
f  118 80 119
f  116 120 82
f  119 81 120
f  121 83 123
f  121 122 84
f  57 118 117
f  115 117 116
f  116 117 118
f  116 118 120
f  118 119 120
f  121 123 122
f  122 123 124
f  122 126 88
f  124 86 125
f  125 87 126
f  113 127 89
f  127 128 90
f  113 124 123
f  122 124 126
f  124 125 126
f  130 91 92
f  129 76 91
f  131 99 93
f  138 92 100
f  133 94 95
f  132 105 94
f  129 91 130
f  129 114 76
f  131 93 128
f  130 92 138
f  129 131 114
f  114 131 127
f  129 130 138
f  129 138 131
f  132 94 133
f  132 143 105
f  133 95 748
f  134 96 144
f  132 133 143
f  133 134 143
f  128 93 90
f  135 98 97
f  137 97 99
f  136 103 98
f  139 100 101
f  141 101 103
f  140 104 102
f  143 102 105
f  142 108 104
f  144 96 106
f  145 106 107
f  146 107 108
f  131 137 99
f  135 136 98
f  135 97 137
f  138 100 139
f  136 141 103
f  131 128 127
f  131 138 137
f  135 137 136
f  136 137 138
f  136 138 141
f  139 101 141
f  140 142 104
f  140 102 143
f  144 106 145
f  142 146 108
f  145 107 146
f  138 139 141
f  140 143 142
f  142 143 144
f  142 144 146
f  134 144 143
f  144 145 146
f  162 147 148
f  168 149 154
f  315 148 247
f  163 248 149
f  161 147 162
f  168 163 149
f  162 148 315
f  163 316 248
f  161 162 168
f  162 163 168
f  162 315 163
f  163 315 316
f  164 152 150
f  161 150 147
f  165 154 151
f  166 155 152
f  167 151 153
f  170 153 156
f  169 157 155
f  171 159 157
f  172 156 158
f  174 158 160
f  331 160 263
f  173 265 159
f  161 164 150
f  165 151 167
f  164 166 152
f  167 153 170
f  168 154 165
f  161 165 164
f  161 168 165
f  164 165 167
f  164 167 166
f  166 167 169
f  166 169 155
f  169 171 157
f  170 156 172
f  171 173 159
f  172 158 174
f  174 160 331
f  173 333 265
f  167 170 169
f  169 170 171
f  171 170 172
f  171 172 173
f  172 174 173
f  173 174 333
f  174 331 333
f  211 176 175
f  212 177 176
f  217 175 181
f  213 180 177
f  211 212 176
f  212 213 177
f  211 175 217
f  211 213 212
f  211 217 213
f  213 217 219
f  213 219 216
f  214 179 178
f  216 178 180
f  215 198 179
f  213 216 180
f  219 232 216
f  214 215 179
f  214 178 216
f  215 234 198
f  214 216 215
f  215 216 232
f  215 232 234
f  218 181 182
f  219 182 183
f  220 185 184
f  221 186 185
f  224 184 188
f  223 189 187
f  222 201 186
f  225 188 189
f  226 191 190
f  227 192 191
f  228 207 192
f  230 190 194
f  231 194 195
f  229 195 193
f  219 218 182
f  217 181 218
f  220 221 185
f  219 183 232
f  220 184 224
f  221 222 186
f  223 225 189
f  223 187 238
f  219 217 218
f  220 222 221
f  220 224 222
f  222 224 223
f  223 224 225
f  222 223 237
f  224 188 225
f  226 227 191
f  226 190 230
f  227 228 192
f  229 231 195
f  230 194 231
f  229 193 244
f  226 228 227
f  226 230 228
f  228 230 229
f  229 230 231
f  228 229 243
f  232 183 196
f  238 187 202
f  233 196 197
f  234 197 198
f  235 200 199
f  237 199 201
f  236 204 200
f  239 202 203
f  244 193 208
f  240 203 204
f  241 206 205
f  243 205 207
f  242 210 206
f  245 208 209
f  246 209 210
f  222 237 201
f  223 238 237
f  232 196 233
f  233 197 234
f  235 236 200
f  235 199 237
f  236 240 204
f  238 202 239
f  232 233 234
f  235 237 236
f  236 237 238
f  236 238 240
f  238 239 240
f  228 243 207
f  229 244 243
f  239 203 240
f  241 242 206
f  241 205 243
f  242 246 210
f  244 208 245
f  245 209 246
f  241 243 242
f  242 243 244
f  242 244 246
f  244 245 246
f  318 247 250
f  316 249 248
f  317 251 249
f  319 252 251
f  320 253 252
f  322 250 254
f  323 256 255
f  324 257 256
f  327 255 259
f  326 260 258
f  328 259 260
f  315 247 318
f  316 317 249
f  317 319 251
f  318 250 322
f  319 320 252
f  320 321 253
f  322 254 330
f  323 324 256
f  324 325 257
f  315 318 317
f  315 317 316
f  317 318 319
f  318 320 319
f  318 322 320
f  320 322 321
f  323 325 324
f  323 255 327
f  326 328 260
f  327 259 328
f  323 326 325
f  323 327 326
f  326 327 328
f  321 261 253
f  330 254 262
f  329 262 261
f  338 268 270
f  332 263 264
f  334 264 266
f  333 269 265
f  335 266 267
f  336 267 268
f  337 272 269
f  339 270 271
f  340 271 272
f  341 274 273
f  352 273 284
f  325 284 257
f  343 258 275
f  344 278 276
f  345 275 277
f  346 279 278
f  348 277 280
f  347 281 279
f  349 283 281
f  350 280 282
f  369 282 301
f  353 276 285
f  342 287 274
f  354 285 286
f  351 288 283
f  356 289 288
f  357 291 289
f  360 302 292
f  358 286 290
f  355 292 287
f  359 290 291
f  321 329 261
f  329 330 262
f  321 322 330
f  321 330 329
f  338 336 268
f  331 263 332
f  332 264 334
f  333 337 269
f  334 266 335
f  335 267 336
f  337 340 272
f  338 270 339
f  339 271 340
f  341 273 352
f  341 342 274
f  331 332 333
f  332 334 337
f  333 332 337
f  334 335 337
f  337 335 340
f  335 336 340
f  338 339 336
f  336 339 340
f  341 352 342
f  326 258 343
f  343 275 345
f  344 346 278
f  344 276 353
f  345 277 348
f  346 347 279
f  347 349 281
f  348 280 350
f  349 351 283
f  350 282 369
f  325 326 343
f  325 343 344
f  325 344 352
f  343 346 344
f  343 345 346
f  345 347 346
f  345 348 347
f  347 348 349
f  348 350 349
f  349 350 351
f  350 369 351
f  325 352 284
f  342 355 287
f  353 285 354
f  358 354 286
f  357 359 291
f  351 356 288
f  356 357 289
f  358 290 359
f  355 360 292
f  344 353 352
f  342 352 355
f  352 353 355
f  353 354 355
f  358 355 354
f  351 369 356
f  356 369 370
f  356 370 357
f  357 370 360
f  358 359 360
f  358 360 355
f  357 360 359
f  361 294 293
f  362 295 294
f  365 293 297
f  364 298 296
f  366 297 298
f  368 299 300
f  361 362 294
f  361 293 365
f  362 363 295
f  364 366 298
f  365 297 366
f  361 363 362
f  361 365 363
f  363 365 364
f  364 365 366
f  367 299 368
f  370 301 302
f  373 305 295
f  371 304 303
f  373 303 305
f  372 307 304
f  374 296 306
f  367 306 299
f  376 311 308
f  375 308 307
f  377 310 309
f  380 300 312
f  379 309 311
f  378 314 310
f  381 312 313
f  382 313 314
f  363 373 295
f  369 301 370
f  364 296 374
f  367 374 306
f  363 364 374
f  370 302 360
f  371 372 304
f  371 303 373
f  372 375 307
f  363 374 373
f  371 373 372
f  372 373 375
f  374 376 375
f  374 375 373
f  375 376 308
f  368 300 380
f  367 368 374
f  368 376 374
f  368 380 376
f  377 309 379
f  377 378 310
f  376 379 311
f  380 312 381
f  381 313 382
f  378 382 314
f  377 379 378
f  376 380 379
f  378 379 380
f  378 380 382
f  380 381 382
f  386 385 384
f  387 446 385
f  386 387 385
f  386 464 387
f  387 464 446
f  391 389 388
f  393 388 390
f  391 392 389
f  391 388 393
f  392 395 389
f  399 396 395
f  400 397 396
f  401 398 397
f  392 399 395
f  399 400 396
f  392 422 399
f  400 401 397
f  401 402 398
f  399 401 400
f  399 402 401
f  399 420 402
f  409 390 403
f  410 403 404
f  411 404 405
f  412 405 406
f  393 390 409
f  409 403 410
f  410 404 411
f  391 422 392
f  391 393 422
f  409 410 411
f  393 409 422
f  409 411 412
f  411 405 412
f  409 412 422
f  413 408 407
f  644 407 636
f  414 638 408
f  413 407 644
f  413 414 408
f  413 644 414
f  402 415 398
f  420 416 415
f  421 418 416
f  422 406 417
f  424 417 419
f  423 419 418
f  399 422 424
f  402 420 415
f  420 421 416
f  421 423 418
f  399 421 420
f  399 423 421
f  399 424 423
f  412 406 422
f  422 417 424
f  423 424 419
f  436 425 426
f  438 426 428
f  439 481 429
f  522 428 480
f  440 430 427
f  440 429 430
f  435 431 425
f  441 433 431
f  442 427 432
f  444 432 434
f  443 453 433
f  471 434 454
f  438 436 426
f  436 435 425
f  440 427 437
f  440 439 429
f  438 428 522
f  523 481 439
f  436 440 437
f  436 437 435
f  438 440 436
f  438 439 440
f  438 522 439
f  522 523 439
f  435 441 431
f  437 427 442
f  442 432 444
f  441 443 433
f  443 470 453
f  444 434 471
f  435 437 442
f  435 442 441
f  441 442 443
f  442 444 443
f  443 444 470
f  470 444 471
f  463 384 445
f  466 445 449
f  465 449 447
f  465 447 448
f  468 450 451
f  467 637 450
f  386 384 463
f  463 445 466
f  386 463 464
f  465 463 466
f  465 466 449
f  464 463 465
f  467 450 468
f  468 451 647
f  645 467 468
f  470 455 453
f  473 454 456
f  599 456 562
f  472 563 455
f  470 472 455
f  471 454 473
f  473 456 599
f  472 600 563
f  470 471 472
f  471 473 472
f  472 473 600
f  473 599 600
f  474 458 457
f  475 459 458
f  477 457 460
f  479 460 462
f  478 462 461
f  474 475 458
f  474 457 477
f  474 476 475
f  474 477 476
f  475 476 459
f  477 460 479
f  478 477 479
f  478 479 462
f  476 477 478
f  523 482 481
f  525 480 483
f  524 484 482
f  526 485 484
f  527 486 485
f  529 483 487
f  530 489 488
f  531 494 489
f  528 490 486
f  533 487 491
f  532 491 490
f  534 566 492
f  535 492 493
f  538 488 497
f  537 498 495
f  536 499 494
f  537 495 496
f  540 496 500
f  539 497 498
f  541 503 501
f  542 500 502
f  543 505 503
f  609 572 499
f  610 501 573
f  544 502 504
f  545 506 505
f  546 508 506
f  547 504 507
f  557 507 517
f  548 509 508
f  549 510 509
f  522 480 525
f  523 524 482
f  524 526 484
f  526 527 485
f  525 483 529
f  527 528 486
f  530 531 489
f  531 536 494
f  529 487 533
f  528 532 490
f  532 533 491
f  522 524 523
f  522 525 524
f  524 525 526
f  525 527 526
f  525 529 527
f  529 528 527
f  530 536 531
f  529 533 528
f  528 533 532
f  534 492 535
f  534 535 603
f  530 488 538
f  537 539 498
f  537 496 540
f  538 497 539
f  530 537 536
f  530 538 537
f  537 538 539
f  536 537 540
f  536 540 541
f  536 609 499
f  540 500 542
f  541 543 503
f  541 501 610
f  542 502 544
f  543 545 505
f  545 546 506
f  544 504 547
f  546 548 508
f  547 507 557
f  548 549 509
f  549 550 510
f  536 541 609
f  540 543 541
f  540 542 543
f  542 545 543
f  541 610 609
f  542 544 545
f  545 544 546
f  544 547 546
f  546 547 548
f  548 547 557
f  548 557 549
f  557 558 549
f  549 558 550
f  550 558 615
f  551 512 511
f  552 513 512
f  555 511 515
f  554 516 514
f  556 515 516
f  558 517 518
f  622 585 513
f  623 514 586
f  559 586 519
f  560 519 520
f  624 521 587
f  561 590 521
f  628 520 591
f  551 552 512
f  551 511 555
f  552 553 513
f  554 556 516
f  555 515 556
f  554 514 623
f  551 553 552
f  551 555 553
f  553 555 554
f  554 555 556
f  553 554 623
f  553 622 513
f  557 517 558
f  615 558 518
f  623 586 559
f  553 623 622
f  623 561 624
f  559 519 560
f  560 520 628
f  623 559 560
f  624 561 521
f  561 627 590
f  623 560 561
f  560 628 561
f  561 628 627
f  602 564 565
f  601 562 564
f  600 568 563
f  604 565 567
f  603 567 566
f  605 569 568
f  606 493 569
f  607 571 570
f  609 570 572
f  608 575 571
f  611 573 574
f  613 574 576
f  614 576 577
f  612 578 575
f  550 577 510
f  615 518 578
f  601 564 602
f  599 562 601
f  605 568 600
f  602 565 604
f  534 603 566
f  604 567 603
f  605 606 569
f  535 493 606
f  607 608 571
f  607 570 609
f  599 601 600
f  601 605 600
f  601 602 605
f  604 603 606
f  602 604 605
f  605 604 606
f  535 606 603
f  607 609 608
f  608 612 575
f  610 573 611
f  611 574 613
f  550 614 577
f  613 576 614
f  612 615 578
f  608 609 612
f  609 610 612
f  610 611 612
f  611 613 612
f  613 614 615
f  612 613 615
f  550 615 614
f  616 580 579
f  631 579 594
f  617 581 580
f  619 595 582
f  677 582 652
f  616 617 580
f  616 579 631
f  616 618 617
f  616 631 619
f  617 618 581
f  619 582 677
f  616 619 618
f  618 619 677
f  618 677 678
f  620 584 583
f  622 583 585
f  621 587 584
f  625 589 588
f  627 588 590
f  626 593 589
f  629 591 592
f  630 592 593
f  620 621 584
f  620 583 622
f  621 624 587
f  620 622 621
f  621 622 624
f  622 623 624
f  625 626 589
f  625 588 627
f  628 591 629
f  626 630 593
f  629 592 630
f  625 627 626
f  626 627 628
f  626 628 630
f  628 629 630
f  632 594 595
f  633 597 596
f  634 598 597
f  631 594 632
f  619 631 632
f  619 632 595
f  633 634 597
f  633 596 1240
f  633 635 634
f  633 1240 635
f  634 635 598
f  644 636 446
f  645 448 637
f  646 452 638
f  469 640 452
f  464 644 446
f  465 448 645
f  464 465 645
f  645 637 467
f  464 645 644
f  645 469 646
f  469 452 646
f  645 468 469
f  468 647 469
f  414 646 638
f  644 645 646
f  414 644 646
f  476 639 459
f  647 451 639
f  649 461 641
f  476 478 647
f  469 648 640
f  476 647 639
f  469 647 648
f  478 648 647
f  478 649 648
f  478 461 649
f  648 643 640
f  650 641 642
f  651 642 643
f  649 641 650
f  650 642 651
f  648 651 643
f  649 650 651
f  648 649 651
f  618 657 581
f  685 652 660
f  678 654 653
f  683 653 658
f  677 652 685
f  678 679 654
f  618 678 682
f  677 679 678
f  677 685 679
f  618 682 657
f  678 653 683
f  682 678 683
f  680 656 655
f  682 655 657
f  681 671 656
f  684 658 659
f  680 681 656
f  680 655 682
f  683 658 684
f  681 696 671
f  680 682 681
f  681 682 696
f  682 683 696
f  683 684 696
f  688 660 663
f  679 661 654
f  686 662 661
f  689 663 664
f  687 665 662
f  693 664 668
f  690 666 665
f  691 667 666
f  692 672 667
f  635 676 598
f  694 668 669
f  685 660 688
f  679 686 661
f  686 687 662
f  688 663 689
f  687 690 665
f  689 664 693
f  685 688 686
f  685 686 679
f  686 688 687
f  688 689 687
f  687 689 690
f  690 689 693
f  690 691 666
f  692 667 691
f  690 693 691
f  691 693 694
f  692 691 694
f  692 694 698
f  635 1241 701
f  693 668 694
f  698 694 669
f  635 701 676
f  695 659 670
f  697 670 672
f  696 673 671
f  698 669 673
f  699 675 674
f  701 674 676
f  700 1343 675
f  684 659 695
f  695 670 697
f  692 697 672
f  696 698 673
f  684 695 696
f  695 698 696
f  692 698 697
f  695 697 698
f  699 700 675
f  699 674 701
f  699 701 700
f  700 701 1362
f  747 703 704
f  748 95 705
f  134 711 96
f  746 705 703
f  749 715 706
f  750 708 707
f  751 709 708
f  766 707 723
f  753 724 710
f  759 704 716
f  752 722 709
f  762 710 719
f  746 703 747
f  748 705 746
f  747 704 759
f  749 706 755
f  133 748 134
f  134 748 754
f  748 749 754
f  748 746 749
f  746 747 759
f  746 759 749
f  750 751 708
f  750 707 766
f  751 752 709
f  750 752 751
f  750 766 752
f  752 766 753
f  753 710 762
f  752 765 722
f  752 753 762
f  752 762 765
f  754 712 711
f  755 706 712
f  756 714 713
f  758 713 715
f  757 718 714
f  760 716 717
f  761 717 718
f  763 721 720
f  765 720 722
f  764 734 721
f  134 754 711
f  754 755 712
f  756 757 714
f  749 755 754
f  749 758 715
f  756 713 758
f  757 761 718
f  759 716 760
f  760 717 761
f  763 764 721
f  763 720 765
f  764 777 734
f  749 759 758
f  756 758 757
f  757 758 759
f  757 759 761
f  759 760 761
f  763 765 764
f  764 765 777
f  762 777 765
f  767 723 724
f  768 719 725
f  769 737 726
f  770 725 727
f  771 729 728
f  772 730 729
f  775 728 732
f  774 733 731
f  776 732 733
f  781 727 738
f  773 744 730
f  786 731 743
f  766 723 767
f  753 767 724
f  768 725 770
f  753 766 767
f  768 762 719
f  769 726 777
f  768 770 762
f  769 762 770
f  769 770 781
f  771 772 729
f  771 728 775
f  772 773 730
f  775 732 776
f  774 776 733
f  771 773 772
f  771 775 773
f  773 775 774
f  774 775 776
f  770 727 781
f  774 731 786
f  773 787 744
f  773 774 786
f  773 786 787
f  777 726 734
f  778 736 735
f  780 735 737
f  779 740 736
f  782 738 739
f  783 739 740
f  784 742 741
f  787 741 744
f  785 745 742
f  769 780 737
f  778 779 736
f  778 735 780
f  769 777 762
f  769 781 780
f  778 780 779
f  779 780 781
f  779 781 783
f  781 738 782
f  779 783 740
f  782 739 783
f  784 785 742
f  784 741 787
f  785 788 745
f  781 782 783
f  784 787 785
f  785 787 788
f  786 788 787
f  819 789 790
f  818 743 789
f  820 800 791
f  830 790 801
f  821 793 792
f  822 794 793
f  825 792 796
f  824 797 795
f  826 796 797
f  823 806 794
f  836 795 807
f  818 789 819
f  786 743 818
f  788 820 791
f  819 790 830
f  786 818 819
f  786 819 820
f  819 830 820
f  821 822 793
f  822 823 794
f  821 792 825
f  824 826 797
f  825 796 826
f  821 823 822
f  821 825 823
f  823 825 824
f  824 825 826
f  823 835 806
f  824 795 836
f  836 807 838
f  823 836 835
f  823 824 836
f  788 791 745
f  827 799 798
f  829 798 800
f  828 803 799
f  831 801 802
f  832 802 803
f  833 805 804
f  835 804 806
f  834 808 805
f  820 829 800
f  827 828 799
f  827 798 829
f  830 801 831
f  828 832 803
f  786 820 788
f  820 830 829
f  827 829 828
f  828 829 830
f  828 830 832
f  831 802 832
f  833 834 805
f  833 804 835
f  834 837 808
f  830 831 832
f  833 835 834
f  834 835 837
f  836 840 837
f  836 837 835
f  839 809 810
f  838 807 809
f  840 814 811
f  844 810 815
f  838 809 839
f  840 811 837
f  839 810 844
f  836 838 839
f  836 839 840
f  839 844 840
f  837 811 808
f  841 813 812
f  843 812 814
f  842 817 813
f  845 815 816
f  846 816 817
f  841 842 813
f  841 812 843
f  840 843 814
f  842 846 817
f  844 815 845
f  845 816 846
f  841 843 842
f  840 844 843
f  842 843 844
f  842 844 846
f  844 845 846
f  883 848 847
f  884 849 848
f  885 864 849
f  887 847 851
f  886 852 850
f  888 851 852
f  889 854 853
f  890 855 854
f  893 853 857
f  892 858 856
f  891 870 855
f  894 857 858
f  895 860 859
f  896 861 860
f  897 876 861
f  883 884 848
f  884 885 849
f  883 847 887
f  886 888 852
f  887 851 888
f  889 890 854
f  886 850 901
f  883 885 884
f  883 886 885
f  883 887 886
f  885 886 900
f  886 887 888
f  889 853 893
f  890 891 855
f  892 856 907
f  892 894 858
f  893 857 894
f  895 896 860
f  896 897 861
f  889 891 890
f  889 893 891
f  891 893 892
f  891 892 906
f  892 893 894
f  895 897 896
f  901 850 865
f  898 863 862
f  900 862 864
f  899 867 863
f  902 865 866
f  903 866 867
f  904 869 868
f  907 856 871
f  906 868 870
f  905 873 869
f  908 871 872
f  909 872 873
f  910 875 874
f  912 874 876
f  885 900 864
f  886 901 900
f  898 899 863
f  898 862 900
f  901 865 902
f  899 903 867
f  902 866 903
f  904 905 869
f  898 900 899
f  899 900 901
f  899 901 903
f  901 902 903
f  891 906 870
f  897 912 876
f  892 907 906
f  904 868 906
f  907 871 908
f  905 909 873
f  908 872 909
f  910 911 875
f  910 874 912
f  904 906 905
f  905 906 907
f  905 907 909
f  907 908 909
f  910 912 911
f  914 859 878
f  915 878 879
f  913 879 877
f  913 877 880
f  895 859 914
f  913 915 879
f  914 878 915
f  895 913 897
f  895 914 913
f  913 914 915
f  897 913 912
f  911 882 875
f  917 880 881
f  918 881 882
f  913 880 916
f  913 916 912
f  911 918 882
f  916 880 917
f  917 881 918
f  911 912 916
f  911 916 918
f  916 917 918
f  994 919 920
f  1011 921 937
f  996 920 922
f  995 923 921
f  1000 922 926
f  997 924 923
f  998 925 924
f  999 927 925
f  1001 928 927
f  1003 926 929
f  1004 931 930
f  1005 932 931
f  993 919 994
f  994 920 996
f  1011 995 921
f  995 997 923
f  993 994 1011
f  994 995 1011
f  994 996 995
f  995 996 997
f  996 922 1000
f  997 998 924
f  998 999 925
f  1000 926 1003
f  999 1001 927
f  1001 1002 928
f  1003 929 1021
f  1004 1005 931
f  1005 1006 932
f  996 1000 998
f  996 998 997
f  998 1000 999
f  1000 1001 999
f  1000 1003 1001
f  1001 1003 1002
f  1004 1006 1005
f  1004 1033 1006
f  1007 935 933
f  993 933 919
f  1008 937 934
f  1009 938 935
f  1010 934 936
f  1010 936 939
f  1012 940 938
f  1015 939 941
f  1014 942 940
f  1017 941 943
f  1016 945 942
f  1018 943 944
f  1002 946 928
f  1020 947 946
f  1021 929 947
f  1006 948 932
f  1022 954 949
f  1023 944 950
f  1024 950 951
f  1019 952 945
f  1026 951 953
f  1027 953 954
f  1025 956 952
f  1028 949 955
f  1031 958 948
f  1029 955 956
f  1030 959 957
f  1031 957 958
f  1032 981 959
f  1007 933 993
f  1011 937 1008
f  1008 934 1010
f  1007 1009 935
f  1007 993 1008
f  993 1011 1008
f  1007 1008 1010
f  1007 1010 1009
f  1009 1010 1012
f  1009 1012 938
f  1010 939 1013
f  1012 1014 940
f  1013 939 1015
f  1015 941 1017
f  1014 1016 942
f  1017 943 1018
f  1016 1019 945
f  1012 1010 1013
f  1012 1013 1014
f  1013 1015 1014
f  1014 1015 1016
f  1015 1017 1016
f  1016 1017 1019
f  1017 1018 1019
f  1002 1020 946
f  1020 1021 947
f  1006 1031 948
f  1002 1021 1020
f  1002 1003 1021
f  1022 949 1028
f  1022 1027 954
f  1018 944 1023
f  1023 950 1024
f  1026 1024 951
f  1019 1025 952
f  1026 953 1027
f  1025 1029 956
f  1028 955 1029
f  1030 957 1031
f  1030 1032 959
f  1022 1028 1027
f  1019 1018 1023
f  1023 1024 1025
f  1019 1023 1025
f  1026 1025 1024
f  1026 1029 1025
f  1027 1028 1029
f  1026 1027 1029
f  1030 1031 1032
f  1034 930 961
f  1033 962 960
f  1035 961 962
f  1036 964 963
f  1037 965 964
f  1039 963 966
f  1040 968 967
f  1041 966 968
f  1004 930 1034
f  1034 961 1035
f  1033 1035 962
f  1004 1034 1033
f  1033 1034 1035
f  1036 1037 964
f  1036 963 1039
f  1037 1038 965
f  1039 966 1041
f  1040 1041 968
f  1036 1038 1037
f  1036 1039 1038
f  1038 1039 1040
f  1040 1039 1041
f  1042 960 969
f  1045 969 972
f  1043 971 970
f  1044 973 971
f  1047 972 974
f  1046 975 973
f  1048 976 975
f  1050 974 977
f  1051 977 978
f  1052 970 979
f  1053 979 980
f  1057 980 984
f  1049 983 976
f  1056 982 983
f  1055 985 982
f  1060 978 987
f  1059 987 986
f  1058 984 985
f  1054 986 981
f  1063 990 965
f  1061 989 988
f  1063 988 990
f  1062 992 989
f  1064 967 991
f  1065 1068 992
f  1033 960 1042
f  1043 970 1052
f  1042 969 1045
f  1043 1044 971
f  1045 972 1047
f  1044 1046 973
f  1047 974 1050
f  1046 1048 975
f  1048 1049 976
f  1050 977 1051
f  1051 978 1060
f  1006 1033 1042
f  1006 1042 1043
f  1006 1043 1031
f  1042 1044 1043
f  1042 1045 1044
f  1045 1046 1044
f  1045 1047 1046
f  1046 1047 1048
f  1047 1050 1048
f  1048 1050 1049
f  1050 1051 1049
f  1032 1054 981
f  1052 979 1053
f  1057 1053 980
f  1049 1056 983
f  1056 1055 982
f  1055 1058 985
f  1059 1060 987
f  1057 984 1058
f  1054 1059 986
f  1043 1052 1031
f  1031 1052 1054
f  1032 1031 1054
f  1052 1053 1054
f  1057 1054 1053
f  1049 1051 1056
f  1056 1051 1060
f  1056 1060 1055
f  1055 1060 1059
f  1057 1059 1054
f  1057 1058 1059
f  1055 1059 1058
f  1038 1063 965
f  1040 967 1064
f  1075 1064 991
f  1038 1040 1064
f  1061 1062 989
f  1061 988 1063
f  1062 1065 992
f  1038 1064 1063
f  1061 1063 1062
f  1062 1063 1065
f  1064 1077 1065
f  1064 1065 1063
f  1076 1066 1067
f  1075 1066 1076
f  1075 991 1066
f  1077 1071 1068
f  1078 1070 1069
f  1080 1069 1071
f  1081 1067 1072
f  1079 1074 1070
f  1082 1072 1073
f  1083 1073 1074
f  1065 1077 1068
f  1076 1067 1081
f  1075 1076 1064
f  1076 1077 1064
f  1076 1081 1077
f  1078 1069 1080
f  1078 1079 1070
f  1077 1080 1071
f  1081 1072 1082
f  1079 1083 1074
f  1082 1073 1083
f  1078 1080 1079
f  1077 1081 1080
f  1079 1080 1081
f  1079 1081 1083
f  1081 1082 1083
f  1134 1086 1087
f  1135 1093 1088
f  1136 1087 1089
f  1138 1089 1091
f  1137 1092 1090
f  1140 1090 1093
f  1133 1094 1086
f  1141 1096 1094
f  1142 1088 1095
f  1143 1180 1096
f  1144 1095 1097
f  1226 1097 1181
f  1139 1098 1092
f  1147 1091 1100
f  1145 1099 1098
f  1146 1101 1099
f  1148 1102 1101
f  1151 1100 1104
f  1149 1103 1102
f  1150 1108 1103
f  1152 1106 1105
f  1153 1107 1106
f  1155 1104 1108
f  1156 1190 1109
f  1154 1192 1107
f  1157 1109 1110
f  1136 1134 1087
f  1133 1086 1134
f  1140 1093 1135
f  1136 1089 1138
f  1140 1137 1090
f  1139 1092 1137
f  1136 1140 1134
f  1134 1140 1135
f  1133 1134 1135
f  1136 1137 1140
f  1136 1138 1137
f  1138 1139 1137
f  1133 1141 1094
f  1135 1088 1142
f  1142 1095 1144
f  1141 1143 1096
f  1143 1225 1180
f  1144 1097 1226
f  1133 1142 1141
f  1141 1142 1143
f  1133 1135 1142
f  1143 1142 1144
f  1143 1144 1225
f  1144 1226 1225
f  1138 1091 1147
f  1139 1145 1098
f  1145 1146 1099
f  1147 1100 1151
f  1146 1148 1101
f  1148 1149 1102
f  1149 1150 1103
f  1152 1153 1106
f  1153 1154 1107
f  1151 1104 1155
f  1150 1155 1108
f  1138 1145 1139
f  1138 1147 1145
f  1145 1147 1146
f  1147 1148 1146
f  1147 1151 1148
f  1151 1149 1148
f  1149 1155 1150
f  1152 1154 1153
f  1152 1158 1154
f  1151 1155 1149
f  1156 1109 1157
f  1154 1237 1192
f  1156 1157 1235
f  1159 1105 1112
f  1158 1113 1111
f  1160 1112 1113
f  1161 1111 1114
f  1164 1114 1117
f  1162 1116 1115
f  1163 1119 1116
f  1248 1115 1203
f  1165 1117 1118
f  1166 1120 1119
f  1167 1123 1120
f  1168 1118 1121
f  1169 1121 1122
f  1170 1125 1123
f  1172 1124 1125
f  1179 1122 1132
f  1173 1127 1126
f  1174 1128 1127
f  1177 1126 1130
f  1176 1131 1129
f  1178 1130 1131
f  1256 1211 1128
f  1257 1129 1212
f  1258 1272 1213
f  1152 1105 1159
f  1159 1112 1160
f  1158 1160 1113
f  1158 1111 1161
f  1152 1159 1158
f  1158 1159 1160
f  1154 1158 1161
f  1154 1161 1162
f  1161 1114 1164
f  1162 1163 1116
f  1164 1117 1165
f  1163 1166 1119
f  1162 1115 1248
f  1165 1118 1168
f  1166 1167 1120
f  1167 1170 1123
f  1168 1121 1169
f  1170 1172 1125
f  1172 1171 1124
f  1169 1122 1179
f  1253 1179 1132
f  1154 1162 1237
f  1161 1163 1162
f  1161 1164 1163
f  1164 1166 1163
f  1162 1248 1237
f  1164 1165 1166
f  1166 1165 1167
f  1165 1168 1167
f  1167 1168 1170
f  1170 1168 1169
f  1170 1169 1172
f  1172 1169 1179
f  1172 1179 1171
f  1171 1179 1253
f  1173 1174 1127
f  1173 1126 1177
f  1174 1175 1128
f  1177 1130 1178
f  1176 1178 1131
f  1176 1129 1257
f  1173 1175 1174
f  1173 1177 1175
f  1175 1176 1257
f  1175 1177 1176
f  1176 1177 1178
f  1175 1256 1128
f  1257 1212 1273
f  1175 1257 1256
f  1257 1275 1258
f  1225 1183 1180
f  1227 1181 1182
f  1228 1185 1183
f  1229 1182 1184
f  1231 1187 1186
f  1232 1184 1187
f  1230 1188 1185
f  1234 1186 1189
f  1235 1189 1190
f  1233 1191 1188
f  1236 1110 1191
f  1238 1194 1193
f  1237 1193 1192
f  1239 1205 1194
f  1226 1181 1227
f  1225 1228 1183
f  1227 1182 1229
f  1228 1230 1185
f  1225 1226 1228
f  1226 1227 1228
f  1228 1227 1230
f  1227 1229 1230
f  1232 1187 1231
f  1231 1186 1234
f  1229 1184 1232
f  1233 1188 1230
f  1234 1189 1235
f  1156 1235 1190
f  1233 1236 1191
f  1157 1110 1236
f  1238 1239 1194
f  1238 1193 1237
f  1229 1232 1230
f  1232 1233 1230
f  1232 1231 1233
f  1157 1236 1235
f  1234 1235 1236
f  1231 1234 1233
f  1233 1234 1236
f  1238 1237 1239
f  1240 596 1195
f  1242 1195 1197
f  1241 1197 1196
f  1244 1200 1199
f  1243 1199 1198
f  1246 1215 1201
f  1247 1201 1202
f  1240 1195 1242
f  1241 1240 1242
f  1241 1242 1197
f  635 1240 1241
f  1244 1245 1200
f  1244 1199 1243
f  1246 1260 1215
f  1246 1201 1247
f  1244 1247 1245
f  1244 1243 1246
f  1243 1260 1246
f  1244 1246 1247
f  1249 1203 1204
f  1251 1204 1206
f  1252 1206 1207
f  1171 1207 1124
f  1250 1208 1205
f  1253 1132 1208
f  1254 1210 1209
f  1256 1209 1211
f  1255 1213 1210
f  1239 1250 1205
f  1248 1203 1249
f  1249 1204 1251
f  1251 1206 1252
f  1171 1252 1207
f  1250 1253 1208
f  1239 1237 1250
f  1237 1248 1250
f  1248 1249 1250
f  1249 1251 1250
f  1171 1253 1252
f  1251 1252 1253
f  1250 1251 1253
f  1254 1255 1210
f  1254 1209 1256
f  1255 1258 1213
f  1254 1256 1255
f  1255 1256 1258
f  1256 1257 1258
f  1259 1198 1214
f  1263 1214 1218
f  1260 1216 1215
f  1261 1217 1216
f  1262 1220 1217
f  1264 1218 1219
f  1265 1221 1220
f  1266 1222 1221
f  1267 1223 1222
f  1269 1219 1224
f  1268 1224 1223
f  1243 1198 1259
f  1259 1214 1263
f  1243 1259 1260
f  1260 1259 1261
f  1259 1262 1261
f  1259 1263 1262
f  1262 1263 1265
f  1260 1261 1216
f  1261 1262 1217
f  1262 1265 1220
f  1263 1218 1264
f  1265 1266 1221
f  1266 1267 1222
f  1267 1268 1223
f  1264 1219 1269
f  1268 1269 1224
f  1263 1266 1265
f  1263 1264 1266
f  1266 1264 1267
f  1267 1269 1268
f  1267 1264 1269
f  1273 1212 1270
f  1274 1270 1271
f  1275 1278 1272
f  1309 1271 1279
f  1273 1270 1274
f  1274 1271 1309
f  1257 1273 1274
f  1258 1275 1272
f  1275 1308 1278
f  1257 1274 1275
f  1274 1309 1275
f  1275 1309 1308
f  1306 1277 1276
f  1308 1276 1278
f  1307 1281 1277
f  1310 1279 1280
f  1311 1280 1281
f  1306 1307 1277
f  1306 1276 1308
f  1309 1279 1310
f  1307 1311 1281
f  1310 1280 1311
f  1306 1308 1307
f  1307 1308 1309
f  1307 1309 1311
f  1309 1310 1311
f  1313 1282 1283
f  1314 1283 1284
f  1317 1287 1282
f  1316 1289 1286
f  1315 1286 1285
f  1317 1288 1287
f  1318 1285 1288
f  1319 1290 1289
f  1320 1291 1290
f  1321 1293 1291
f  1322 1284 1292
f  1323 1294 1293
f  1324 1297 1294
f  1325 1292 1295
f  1326 1295 1296
f  1327 1298 1297
f  1329 1296 1299
f  1312 1282 1313
f  1313 1283 1314
f  1312 1313 1316
f  1313 1320 1319
f  1313 1314 1320
f  1320 1314 1321
f  1321 1314 1323
f  1312 1317 1282
f  1316 1286 1315
f  1315 1285 1318
f  1317 1318 1288
f  1316 1319 1289
f  1319 1320 1290
f  1320 1321 1291
f  1312 1315 1317
f  1312 1316 1315
f  1315 1318 1317
f  1313 1319 1316
f  1314 1284 1322
f  1322 1292 1325
f  1314 1322 1323
f  1321 1323 1293
f  1323 1324 1294
f  1324 1327 1297
f  1325 1295 1326
f  1327 1328 1298
f  1326 1296 1329
f  1329 1299 1448
f  1323 1322 1324
f  1322 1325 1324
f  1324 1325 1327
f  1327 1325 1326
f  1327 1326 1328
f  1326 1329 1328
f  1330 1301 1300
f  1331 1304 1301
f  1333 1302 1303
f  1334 1415 1304
f  1498 1300 1496
f  1332 1497 1302
f  1335 1303 1305
f  1330 1300 1498
f  1330 1331 1301
f  1332 1302 1333
f  1331 1334 1304
f  1333 1303 1335
f  1330 1332 1331
f  1331 1332 1334
f  1332 1333 1334
f  1333 1335 1334
f  1334 1335 1474
f  1335 1305 1475
f  1332 1499 1497
f  1330 1498 1332
f  1332 1498 1499
f  1362 1196 1341
f  1245 1336 1200
f  1357 1338 1336
f  1358 1202 1337
f  1359 1344 1338
f  1360 1337 1339
f  1361 1339 1340
f  1241 1196 1362
f  1241 1362 701
f  1245 1357 1336
f  1247 1202 1358
f  1358 1337 1360
f  1245 1358 1357
f  1245 1247 1358
f  1357 1358 1359
f  1357 1359 1338
f  1359 1365 1344
f  1360 1339 1361
f  1358 1360 1359
f  1359 1360 1365
f  1360 1361 1365
f  1363 1341 1342
f  1364 1342 1343
f  1365 1345 1344
f  1369 1340 1348
f  1362 1341 1363
f  700 1364 1343
f  1363 1342 1364
f  700 1362 1364
f  1362 1363 1364
f  1365 1366 1345
f  1361 1340 1369
f  1365 1361 1366
f  1361 1369 1366
f  1367 1354 1346
f  1368 1346 1347
f  1367 1346 1368
f  1368 1347 1377
f  1367 1368 1375
f  1370 1348 1349
f  1366 1351 1345
f  1371 1349 1350
f  1373 1350 1352
f  1372 1355 1351
f  1374 1352 1353
f  1375 1353 1354
f  1376 1356 1355
f  1377 1347 1356
f  1369 1348 1370
f  1366 1372 1351
f  1370 1349 1371
f  1371 1350 1373
f  1372 1376 1355
f  1366 1369 1372
f  1369 1370 1372
f  1370 1371 1372
f  1371 1373 1376
f  1372 1371 1376
f  1374 1373 1352
f  1374 1353 1375
f  1367 1375 1354
f  1376 1377 1356
f  1374 1376 1373
f  1374 1375 1377
f  1374 1377 1376
f  1368 1377 1375
f  1437 1379 1378
f  1438 1381 1379
f  1439 1378 1380
f  1442 1382 1383
f  1447 1384 1388
f  1444 1380 1385
f  1440 1392 1381
f  1443 1385 1384
f  1445 1390 1386
f  1446 1386 1387
f  1328 1388 1298
f  1448 1299 1389
f  1450 1389 1391
f  1449 1391 1390
f  1451 1393 1392
f  1452 1394 1393
f  1453 1395 1394
f  1454 1411 1395
f  1455 1387 1396
f  1456 1396 1397
f  1457 1397 1398
f  1437 1378 1439
f  1437 1438 1379
f  1438 1440 1381
f  1437 1439 1438
f  1438 1439 1440
f  1441 1382 1442
f  1442 1383 1458
f  1441 1442 1458
f  1447 1443 1384
f  1439 1380 1444
f  1440 1451 1392
f  1444 1385 1443
f  1445 1449 1390
f  1445 1386 1446
f  1447 1388 1328
f  1448 1389 1450
f  1449 1450 1391
f  1446 1387 1455
f  1439 1444 1445
f  1439 1445 1451
f  1439 1451 1440
f  1444 1449 1445
f  1444 1443 1449
f  1445 1446 1451
f  1447 1328 1448
f  1447 1450 1443
f  1328 1329 1448
f  1447 1448 1450
f  1443 1450 1449
f  1451 1452 1393
f  1452 1453 1394
f  1453 1454 1395
f  1454 1470 1411
f  1455 1396 1456
f  1456 1397 1457
f  1457 1398 1471
f  1451 1446 1452
f  1452 1446 1455
f  1452 1455 1453
f  1453 1456 1454
f  1453 1455 1456
f  1454 1456 1457
f  1454 1457 1470
f  1441 1400 1382
f  1458 1383 1399
f  1461 1399 1402
f  1459 1401 1400
f  1460 1406 1401
f  1462 1402 1403
f  1463 1403 1404
f  1464 1404 1405
f  1465 1407 1406
f  1466 1408 1407
f  1468 1405 1409
f  1469 1409 1410
f  1470 1410 1411
f  1467 1412 1408
f  1471 1398 1412
f  1441 1459 1400
f  1458 1399 1461
f  1459 1460 1401
f  1461 1402 1462
f  1462 1403 1463
f  1463 1404 1464
f  1464 1405 1468
f  1460 1465 1406
f  1465 1466 1407
f  1466 1467 1408
f  1441 1458 1459
f  1459 1458 1460
f  1458 1461 1460
f  1461 1465 1460
f  1461 1462 1465
f  1462 1463 1466
f  1463 1464 1467
f  1464 1468 1467
f  1465 1462 1466
f  1466 1463 1467
f  1468 1409 1469
f  1470 1469 1410
f  1467 1471 1412
f  1467 1468 1471
f  1470 1471 1469
f  1468 1469 1471
f  1470 1457 1471
f  1473 1413 1414
f  1474 1417 1415
f  1475 1305 1416
f  1476 1418 1417
f  1478 1416 1419
f  1477 1421 1418
f  1479 1419 1420
f  1504 1420 1500
f  1480 1422 1421
f  1481 1423 1422
f  1482 1424 1423
f  1472 1413 1473
f  1473 1414 1485
f  1472 1473 1485
f  1334 1474 1415
f  1474 1476 1417
f  1476 1477 1418
f  1475 1416 1478
f  1477 1480 1421
f  1478 1419 1479
f  1479 1420 1504
f  1335 1475 1474
f  1474 1475 1476
f  1475 1478 1476
f  1476 1478 1477
f  1477 1478 1479
f  1477 1479 1480
f  1480 1479 1504
f  1480 1481 1422
f  1481 1482 1423
f  1482 1483 1424
f  1480 1504 1481
f  1504 1505 1481
f  1481 1505 1482
f  1482 1505 1506
f  1482 1507 1483
f  1482 1506 1507
f  1472 1425 1413
f  1485 1414 1426
f  1486 1426 1427
f  1487 1427 1428
f  1489 1428 1430
f  1484 1429 1425
f  1488 1433 1429
f  1490 1430 1431
f  1491 1431 1432
f  1492 1436 1433
f  1483 1434 1424
f  1493 1432 1434
f  1494 1503 1435
f  1495 1435 1436
f  1472 1484 1425
f  1485 1426 1486
f  1486 1427 1487
f  1487 1428 1489
f  1484 1488 1429
f  1472 1485 1484
f  1484 1485 1486
f  1484 1486 1488
f  1486 1487 1488
f  1488 1487 1489
f  1489 1430 1490
f  1490 1431 1491
f  1491 1432 1493
f  1488 1492 1433
f  1492 1495 1436
f  1483 1493 1434
f  1495 1494 1435
f  1489 1490 1492
f  1490 1491 1492
f  1488 1489 1492
f  1492 1491 1495
f  1483 1494 1493
f  1491 1493 1495
f  1493 1494 1495
f  1483 1507 1494
f  1499 1496 1497
f  1498 1496 1499
f  1505 1500 1501
f  1506 1501 1502
f  1507 1502 1503
f  1504 1500 1505
f  1505 1501 1506
f  1506 1502 1507
f  1507 1503 1494
