# OpenSCAD obj exporter
v 0 0 0
v 0 0 2.78
v 5.84929 2.75849 2.78
v 5.84929 2.793 2.78
v 5.84929 2.75849 2.98
v 5.84929 2.793 2.98
v 6.11554 1.92 2.78
v 6.11554 1.9545 2.78
v 6.25421 1.97208 2.78
v 6.37985 1.97208 2.78
v 6.51851 1.92 2.78
v 6.51851 1.9545 2.78
v 6.25421 2.25982 2.78
v 6.37985 2.26373 2.78
v 6.35186 2.33859 2.78
v 7.07843 1.92 2.78
v 7.07843 1.9545 2.78
v 6.11554 1.92 2.98
v 6.11554 1.9545 2.98
v 6.25421 1.97208 2.98
v 6.37985 1.97208 2.98
v 6.51851 1.92 2.98
v 6.51851 1.9545 2.98
v 6.25421 2.25982 2.98
v 6.37985 2.26373 2.98
v 6.35186 2.33859 2.98
v 7.07843 1.92 2.98
v 7.07843 1.9545 2.98
v 5.94758 2.74156 2.78
v 6.10122 2.74156 2.78
v 6.2184 2.75849 2.78
v 6.2184 2.793 2.78
v 6.47945 2.75849 2.78
v 6.47945 2.793 2.78
v 6.59012 2.74156 2.78
v 6.66759 2.74156 2.78
v 6.76328 2.75849 2.78
v 6.81218 2.75849 2.78
v 6.76328 2.793 2.78
v 6.81218 2.793 2.78
v 6.91047 2.74156 2.78
v 7.06411 2.74156 2.78
v 5.94758 2.74156 2.98
v 6.10122 2.74156 2.98
v 6.2184 2.75849 2.98
v 6.2184 2.793 2.98
v 6.47945 2.75849 2.98
v 6.47945 2.793 2.98
v 6.59012 2.74156 2.98
v 6.66759 2.74156 2.98
v 6.76328 2.75849 2.98
v 6.81218 2.75849 2.98
v 6.76328 2.793 2.98
v 6.81218 2.793 2.98
v 6.91047 2.74156 2.98
v 7.06411 2.74156 2.98
v 7.2171 1.97208 2.78
v 7.34274 1.97208 2.78
v 7.4814 1.92 2.78
v 7.4814 1.9545 2.78
v 7.2171 2.25982 2.78
v 7.34274 2.26373 2.78
v 7.31475 2.33859 2.78
v 8.1266 1.89982 2.78
v 8.16111 1.89982 2.78
v 8.17413 2.12637 2.78
v 7.2171 1.97208 2.98
v 7.34274 1.97208 2.98
v 7.4814 1.92 2.98
v 7.4814 1.9545 2.98
v 7.2171 2.25982 2.98
v 7.34274 2.26373 2.98
v 7.31475 2.33859 2.98
v 8.1266 1.89982 2.98
v 8.16111 1.89982 2.98
v 8.17413 2.12637 2.98
v 7.18129 2.75849 2.78
v 7.18129 2.793 2.78
v 7.44234 2.75849 2.78
v 7.44234 2.793 2.78
v 7.55301 2.74156 2.78
v 7.63048 2.74156 2.78
v 7.72617 2.75849 2.78
v 7.7614 2.75849 2.78
v 7.72617 2.793 2.78
v 7.7614 2.793 2.78
v 7.83756 2.74156 2.78
v 7.96646 2.74156 2.78
v 8.09471 2.75849 2.78
v 8.09471 2.793 2.78
v 7.18129 2.75849 2.98
v 7.18129 2.793 2.98
v 7.44234 2.75849 2.98
v 7.44234 2.793 2.98
v 7.55301 2.74156 2.98
v 7.63048 2.74156 2.98
v 7.72617 2.75849 2.98
v 7.7614 2.75849 2.98
v 7.72617 2.793 2.98
v 7.7614 2.793 2.98
v 7.83756 2.74156 2.98
v 7.96646 2.74156 2.98
v 8.09471 2.75849 2.98
v 8.09471 2.793 2.98
v 8.62006 1.89982 2.78
v 8.65456 1.89982 2.78
v 8.39352 2.50135 2.78
v 8.66498 2.12637 2.78
v 9.38506 1.89982 2.78
v 9.41958 1.89982 2.78
v 9.43259 2.12637 2.78
v 8.62006 1.89982 2.98
v 8.65456 1.89982 2.98
v 8.39352 2.50135 2.98
v 8.66498 2.12637 2.98
v 9.38506 1.89982 2.98
v 9.41958 1.89982 2.98
v 9.43259 2.12637 2.98
v 8.40914 2.7318 2.78
v 8.43844 2.7318 2.78
v 8.72683 2.75849 2.78
v 8.72683 2.793 2.78
v 8.86288 2.74156 2.78
v 8.9397 2.74156 2.78
v 9.01587 2.75849 2.78
v 9.01986 2.75849 2.78
v 9.01587 2.793 2.78
v 9.01986 2.793 2.78
v 9.09603 2.74156 2.78
v 9.22493 2.74156 2.78
v 9.35317 2.75849 2.78
v 9.35317 2.793 2.78
v 8.40914 2.7318 2.98
v 8.43844 2.7318 2.98
v 8.72683 2.75849 2.98
v 8.72683 2.793 2.98
v 8.86288 2.74156 2.98
v 8.9397 2.74156 2.98
v 9.01587 2.75849 2.98
v 9.01986 2.75849 2.98
v 9.01587 2.793 2.98
v 9.01986 2.793 2.98
v 9.09603 2.74156 2.98
v 9.22493 2.74156 2.98
v 9.35317 2.75849 2.98
v 9.35317 2.793 2.98
v 7.07942 5.86253 2.78
v 7.07942 5.86253 2.98
v 6.99056 6.00127 2.78
v 7.1171 6.02008 2.78
v 6.96093 6.1864 2.78
v 7.097 6.18771 2.78
v 6.98942 6.38423 2.78
v 7.1162 6.36706 2.78
v 7.07486 6.5272 2.78
v 6.99056 6.00127 2.98
v 7.1171 6.02008 2.98
v 6.96093 6.1864 2.98
v 7.097 6.18771 2.98
v 6.98942 6.38423 2.98
v 7.1162 6.36706 2.98
v 7.07486 6.5272 2.98
v 8.21614 3.84 2.78
v 8.21614 3.8745 2.78
v 8.21614 3.84 2.98
v 8.21614 3.8745 2.98
v 8.21614 4.67849 2.78
v 8.21614 4.713 2.78
v 8.21614 4.67849 2.98
v 8.21614 4.713 2.98
v 8.32812 3.89208 2.78
v 8.45311 3.89208 2.78
v 8.56508 3.84 2.78
v 8.56508 3.8745 2.78
v 8.66015 3.84 2.78
v 8.66015 3.8745 2.78
v 8.77213 3.89208 2.78
v 8.89712 3.89208 2.78
v 9.00909 3.84 2.78
v 9.00909 3.8745 2.78
v 9.10416 3.84 2.78
v 9.10416 3.8745 2.78
v 9.21614 3.89208 2.78
v 9.34113 3.89208 2.78
v 9.4531 3.84 2.78
v 9.4531 3.8745 2.78
v 8.32812 3.89208 2.98
v 8.45311 3.89208 2.98
v 8.56508 3.84 2.98
v 8.56508 3.8745 2.98
v 8.66015 3.84 2.98
v 8.66015 3.8745 2.98
v 8.77213 3.89208 2.98
v 8.89712 3.89208 2.98
v 9.00909 3.84 2.98
v 9.00909 3.8745 2.98
v 9.10416 3.84 2.98
v 9.10416 3.8745 2.98
v 9.21614 3.89208 2.98
v 9.34113 3.89208 2.98
v 9.4531 3.84 2.98
v 9.4531 3.8745 2.98
v 8.32812 4.66156 2.78
v 8.45311 4.66156 2.78
v 8.56508 4.67849 2.78
v 8.56508 4.713 2.78
v 8.66015 4.67849 2.78
v 8.66015 4.713 2.78
v 8.77213 4.66156 2.78
v 8.89712 4.66156 2.78
v 9.00909 4.67849 2.78
v 9.00909 4.713 2.78
v 9.10416 4.67849 2.78
v 9.10416 4.713 2.78
v 9.21614 4.66156 2.78
v 9.34113 4.66156 2.78
v 9.4531 4.67849 2.78
v 9.4531 4.713 2.78
v 8.32812 4.66156 2.98
v 8.45311 4.66156 2.98
v 8.56508 4.67849 2.98
v 8.56508 4.713 2.98
v 8.66015 4.67849 2.98
v 8.66015 4.713 2.98
v 8.77213 4.66156 2.98
v 8.89712 4.66156 2.98
v 9.00909 4.67849 2.98
v 9.00909 4.713 2.98
v 9.10416 4.67849 2.98
v 9.10416 4.713 2.98
v 9.21614 4.66156 2.98
v 9.34113 4.66156 2.98
v 9.4531 4.67849 2.98
v 9.4531 4.713 2.98
v 7.22134 5.77587 2.78
v 7.41013 5.74698 2.78
v 7.2761 5.82217 2.78
v 7.41143 5.7971 2.78
v 7.56946 5.75724 2.78
v 7.48353 5.80158 2.78
v 7.55139 5.81501 2.78
v 7.61031 5.83592 2.78
v 7.71805 5.78799 2.78
v 7.65555 5.86285 2.78
v 7.84245 5.76 2.78
v 7.84245 5.7945 2.78
v 7.94596 5.81208 2.78
v 8.07161 5.81208 2.78
v 8.21027 5.76 2.78
v 8.21027 5.7945 2.78
v 7.22134 5.77587 2.98
v 7.41013 5.74698 2.98
v 7.2761 5.82217 2.98
v 7.41143 5.7971 2.98
v 7.56946 5.75724 2.98
v 7.48353 5.80158 2.98
v 7.55139 5.81501 2.98
v 7.61031 5.83592 2.98
v 7.71805 5.78799 2.98
v 7.65555 5.86285 2.98
v 7.84245 5.76 2.98
v 7.84245 5.7945 2.98
v 7.94596 5.81208 2.98
v 8.07161 5.81208 2.98
v 8.21027 5.76 2.98
v 8.21027 5.7945 2.98
v 7.1774 5.89736 2.78
v 7.67964 5.99306 2.78
v 7.17381 6.49237 2.78
v 7.21629 6.61387 2.78
v 7.27326 6.5661 2.78
v 7.41794 6.59068 2.78
v 7.41273 6.64276 2.78
v 7.66597 6.41881 2.78
v 7.70894 6.41881 2.78
v 7.47987 6.58685 2.78
v 7.54065 6.57538 2.78
v 7.55384 6.63446 2.78
v 7.59721 6.55691 2.78
v 7.64644 6.53209 2.78
v 7.70503 6.60955 2.78
v 7.72196 5.99306 2.78
v 8.07161 6.10242 2.78
v 8.07161 6.16102 2.78
v 8.13931 6.16102 2.78
v 8.1699 6.10242 2.78
v 8.23492 6.17355 2.78
v 8.30393 6.11984 2.78
v 8.30173 6.21114 2.78
v 7.83399 6.59849 2.78
v 7.83399 6.633 2.78
v 7.94596 6.58156 2.78
v 8.07161 6.5744 2.78
v 8.1354 6.5744 2.78
v 8.16339 6.633 2.78
v 8.23679 6.56284 2.78
v 8.304 6.52817 2.78
v 7.1774 5.89736 2.98
v 7.67964 5.99306 2.98
v 7.17381 6.49237 2.98
v 7.21629 6.61387 2.98
v 7.27326 6.5661 2.98
v 7.41794 6.59068 2.98
v 7.41273 6.64276 2.98
v 7.66597 6.41881 2.98
v 7.70894 6.41881 2.98
v 7.47987 6.58685 2.98
v 7.54065 6.57538 2.98
v 7.55384 6.63446 2.98
v 7.59721 6.55691 2.98
v 7.64644 6.53209 2.98
v 7.70503 6.60955 2.98
v 7.72196 5.99306 2.98
v 8.07161 6.10242 2.98
v 8.07161 6.16102 2.98
v 8.13931 6.16102 2.98
v 8.1699 6.10242 2.98
v 8.23492 6.17355 2.98
v 8.30393 6.11984 2.98
v 8.30173 6.21114 2.98
v 7.83399 6.59849 2.98
v 7.83399 6.633 2.98
v 7.94596 6.58156 2.98
v 8.07161 6.5744 2.98
v 8.1354 6.5744 2.98
v 8.16339 6.633 2.98
v 8.23679 6.56284 2.98
v 8.304 6.52817 2.98
v 8.57552 5.76 2.78
v 8.57552 5.7945 2.78
v 8.68749 5.81208 2.78
v 8.75585 5.81208 2.78
v 8.87302 5.76 2.78
v 8.87302 5.7945 2.78
v 9.29422 5.76 2.78
v 9.35737 5.76 2.78
v 8.57552 5.76 2.98
v 8.57552 5.7945 2.98
v 8.68749 5.81208 2.98
v 8.75585 5.81208 2.98
v 8.87302 5.76 2.98
v 8.87302 5.7945 2.98
v 9.29422 5.76 2.98
v 9.35737 5.76 2.98
v 8.40263 6.17208 2.78
v 8.34103 6.27706 2.78
v 8.46342 6.25785 2.78
v 8.35413 6.37454 2.78
v 8.3416 6.46666 2.78
v 8.48369 6.37585 2.78
v 8.40361 6.56871 2.78
v 8.57552 6.59849 2.78
v 8.57552 6.633 2.78
v 8.75585 6.54511 2.78
v 8.68749 6.58156 2.78
v 8.83983 6.633 2.78
v 9.28901 5.98655 2.78
v 9.17183 6.59849 2.78
v 9.17183 6.633 2.78
v 9.28901 6.58156 2.78
v 9.35737 6.58156 2.78
v 9.46935 6.59849 2.78
v 9.46935 6.633 2.78
v 8.40263 6.17208 2.98
v 8.34103 6.27706 2.98
v 8.46342 6.25785 2.98
v 8.35413 6.37454 2.98
v 8.3416 6.46666 2.98
v 8.48369 6.37585 2.98
v 8.40361 6.56871 2.98
v 8.57552 6.59849 2.98
v 8.57552 6.633 2.98
v 8.75585 6.54511 2.98
v 8.68749 6.58156 2.98
v 8.83983 6.633 2.98
v 9.28901 5.98655 2.98
v 9.17183 6.59849 2.98
v 9.17183 6.633 2.98
v 9.28901 6.58156 2.98
v 9.35737 6.58156 2.98
v 9.46935 6.59849 2.98
v 9.46935 6.633 2.98
v 0 13.44 0
v 1.15261 11.6625 2.78
v 1.15261 11.6625 2.98
v 1.45063 11.4095 2.78
v 1.33725 11.4716 2.78
v 1.23594 11.5586 2.78
v 1.57608 11.3723 2.78
v 1.7136 11.3598 2.78
v 1.85112 11.3723 2.78
v 1.97655 11.4095 2.78
v 2.08991 11.4716 2.78
v 2.19118 11.5586 2.78
v 2.27454 11.6625 2.78
v 1.45063 11.4095 2.98
v 1.33725 11.4716 2.98
v 1.23594 11.5586 2.98
v 1.57608 11.3723 2.98
v 1.7136 11.3598 2.98
v 1.85112 11.3723 2.98
v 1.97655 11.4095 2.98
v 2.08991 11.4716 2.98
v 2.19118 11.5586 2.98
v 2.27454 11.6625 2.98
v 1.09309 11.7754 2.78
v 1.05738 11.8972 2.78
v 1.04548 12.028 2.78
v 1.05756 12.1633 2.78
v 1.09379 12.2875 2.78
v 1.15417 12.4007 2.78
v 1.09309 11.7754 2.98
v 1.05738 11.8972 2.98
v 1.04548 12.028 2.98
v 1.05756 12.1633 2.98
v 1.09379 12.2875 2.98
v 1.15417 12.4007 2.98
v 0 13.44 2.78
v 1.23871 12.5028 2.78
v 1.34088 12.5874 2.78
v 2.33409 11.7754 2.78
v 2.36981 11.8972 2.78
v 2.36964 12.1633 2.78
v 2.33339 12.2875 2.78
v 2.08627 12.5874 2.78
v 2.18841 12.5028 2.78
v 2.27298 12.4007 2.78
v 1.23871 12.5028 2.98
v 1.34088 12.5874 2.98
v 2.33409 11.7754 2.98
v 2.36981 11.8972 2.98
v 2.36964 12.1633 2.98
v 2.33339 12.2875 2.98
v 2.08627 12.5874 2.98
v 2.18841 12.5028 2.98
v 2.27298 12.4007 2.98
v 1.45409 12.6478 2.78
v 1.57833 12.6841 2.78
v 1.7136 12.6962 2.78
v 1.84887 12.6841 2.78
v 1.97309 12.6478 2.78
v 1.45409 12.6478 2.98
v 1.57833 12.6841 2.98
v 1.7136 12.6962 2.98
v 1.84887 12.6841 2.98
v 1.97309 12.6478 2.98
v 2.38172 12.028 2.78
v 2.38172 12.028 2.98
v 7.07942 7.78253 2.78
v 6.99056 7.92127 2.78
v 7.1171 7.94008 2.78
v 6.96093 8.1064 2.78
v 7.097 8.10771 2.78
v 7.1162 8.28706 2.78
v 6.98942 8.30423 2.78
v 7.07942 7.78253 2.98
v 6.99056 7.92127 2.98
v 7.1171 7.94008 2.98
v 6.96093 8.1064 2.98
v 7.097 8.10771 2.98
v 7.1162 8.28706 2.98
v 6.98942 8.30423 2.98
v 5.13475 9.6 2.78
v 5.13475 9.6621 2.78
v 5.33631 9.69374 2.78
v 5.67026 9.6 2.78
v 5.45934 9.69374 2.78
v 5.67026 9.6621 2.78
v 5.13475 9.6 2.98
v 5.13475 9.6621 2.98
v 5.33631 9.69374 2.98
v 5.67026 9.6 2.98
v 5.45934 9.69374 2.98
v 5.67026 9.6621 2.98
v 7.07486 8.4472 2.78
v 7.07486 8.4472 2.98
v 6.03469 9.6 2.78
v 6.0757 9.6 2.78
v 6.4917 9.6 2.78
v 6.12141 9.97615 2.78
v 6.4917 9.6621 2.78
v 6.70262 9.69374 2.78
v 6.9276 9.69374 2.78
v 6.03469 9.6 2.98
v 6.0757 9.6 2.98
v 6.4917 9.6 2.98
v 6.12141 9.97615 2.98
v 6.4917 9.6621 2.98
v 6.70262 9.69374 2.98
v 6.9276 9.69374 2.98
v 7.22134 7.69587 2.78
v 7.2761 7.74217 2.78
v 7.41013 7.66698 2.78
v 7.41143 7.7171 2.78
v 7.1774 7.81736 2.78
v 7.48353 7.72158 2.78
v 7.56946 7.67724 2.78
v 7.55139 7.73501 2.78
v 7.61031 7.75592 2.78
v 7.71805 7.70799 2.78
v 7.65555 7.78285 2.78
v 7.67964 7.91306 2.78
v 7.66597 8.33881 2.78
v 7.70894 8.33881 2.78
v 7.84245 7.68 2.78
v 7.84245 7.7145 2.78
v 7.94596 7.73208 2.78
v 7.72196 7.91306 2.78
v 8.07161 7.73208 2.78
v 8.21027 7.68 2.78
v 8.21027 7.7145 2.78
v 7.94596 7.98857 2.78
v 8.07161 8.02242 2.78
v 8.07161 8.08102 2.78
v 8.13931 8.08102 2.78
v 8.1699 8.02242 2.78
v 8.30393 8.03984 2.78
v 8.23492 8.09355 2.78
v 8.30173 8.13114 2.78
v 7.22134 7.69587 2.98
v 7.2761 7.74217 2.98
v 7.41013 7.66698 2.98
v 7.41143 7.7171 2.98
v 7.1774 7.81736 2.98
v 7.48353 7.72158 2.98
v 7.56946 7.67724 2.98
v 7.55139 7.73501 2.98
v 7.61031 7.75592 2.98
v 7.71805 7.70799 2.98
v 7.65555 7.78285 2.98
v 7.67964 7.91306 2.98
v 7.66597 8.33881 2.98
v 7.70894 8.33881 2.98
v 7.84245 7.68 2.98
v 7.84245 7.7145 2.98
v 7.94596 7.73208 2.98
v 7.72196 7.91306 2.98
v 8.07161 7.73208 2.98
v 8.21027 7.68 2.98
v 8.21027 7.7145 2.98
v 8.07161 8.02242 2.98
v 8.07161 8.08102 2.98
v 8.13931 8.08102 2.98
v 8.1699 8.02242 2.98
v 8.30393 8.03984 2.98
v 8.23492 8.09355 2.98
v 8.30173 8.13114 2.98
v 8.57552 7.68 2.78
v 8.57552 7.7145 2.78
v 8.68749 7.73208 2.78
v 8.75585 7.73208 2.78
v 8.87302 7.68 2.78
v 8.87302 7.7145 2.78
v 8.40263 8.09208 2.78
v 8.46342 8.17785 2.78
v 8.34103 8.19706 2.78
v 8.35413 8.29454 2.78
v 8.3416 8.38666 2.78
v 8.48369 8.29585 2.78
v 9.29422 7.68 2.78
v 9.35737 7.68 2.78
v 9.28901 7.90655 2.78
v 8.57552 7.68 2.98
v 8.57552 7.7145 2.98
v 8.68749 7.73208 2.98
v 8.75585 7.73208 2.98
v 8.87302 7.68 2.98
v 8.87302 7.7145 2.98
v 8.40263 8.09208 2.98
v 8.46342 8.17785 2.98
v 8.34103 8.19706 2.98
v 8.35413 8.29454 2.98
v 8.3416 8.38666 2.98
v 8.48369 8.29585 2.98
v 9.29422 7.68 2.98
v 9.35737 7.68 2.98
v 9.28901 7.90655 2.98
v 7.17381 8.41237 2.78
v 7.27326 8.4861 2.78
v 7.21629 8.53387 2.78
v 7.41794 8.51068 2.78
v 7.41273 8.56276 2.78
v 7.54065 8.49538 2.78
v 7.47987 8.50685 2.78
v 7.55384 8.55446 2.78
v 7.59721 8.47691 2.78
v 7.64644 8.45209 2.78
v 7.70503 8.52955 2.78
v 7.83399 8.51849 2.78
v 7.83399 8.553 2.78
v 7.94596 8.50156 2.78
v 8.07161 8.4944 2.78
v 8.1354 8.4944 2.78
v 8.16339 8.553 2.78
v 8.23679 8.48284 2.78
v 8.304 8.44817 2.78
v 7.17381 8.41237 2.98
v 7.27326 8.4861 2.98
v 7.21629 8.53387 2.98
v 7.41794 8.51068 2.98
v 7.41273 8.56276 2.98
v 7.54065 8.49538 2.98
v 7.47987 8.50685 2.98
v 7.55384 8.55446 2.98
v 7.59721 8.47691 2.98
v 7.64644 8.45209 2.98
v 7.70503 8.52955 2.98
v 7.83399 8.51849 2.98
v 7.83399 8.553 2.98
v 7.94596 8.50156 2.98
v 8.07161 8.4944 2.98
v 8.1354 8.4944 2.98
v 8.16339 8.553 2.98
v 8.23679 8.48284 2.98
v 8.304 8.44817 2.98
v 7.12916 9.6 2.78
v 7.12916 9.6621 2.78
v 7.88398 9.6 2.78
v 7.88398 9.6621 2.78
v 8.0703 9.69374 2.78
v 8.29646 9.69374 2.78
v 7.12916 9.6 2.98
v 7.12916 9.6621 2.98
v 7.88398 9.6 2.98
v 7.88398 9.6621 2.98
v 8.0703 9.69374 2.98
v 8.29646 9.69374 2.98
v 8.40361 8.48871 2.78
v 8.57552 8.51849 2.78
v 8.57552 8.553 2.78
v 8.68749 8.50156 2.78
v 8.75585 8.46511 2.78
v 8.83983 8.553 2.78
v 9.17183 8.51849 2.78
v 9.17183 8.553 2.78
v 9.28901 8.50156 2.78
v 9.35737 8.50156 2.78
v 9.46935 8.51849 2.78
v 9.46935 8.553 2.78
v 8.40361 8.48871 2.98
v 8.57552 8.51849 2.98
v 8.57552 8.553 2.98
v 8.68749 8.50156 2.98
v 8.75585 8.46511 2.98
v 8.83983 8.553 2.98
v 9.17183 8.51849 2.98
v 9.17183 8.553 2.98
v 9.28901 8.50156 2.98
v 9.35737 8.50156 2.98
v 9.46935 8.51849 2.98
v 9.46935 8.553 2.98
v 8.54605 9.6 2.78
v 8.54605 9.6621 2.78
v 9.22107 9.6 2.78
v 9.22107 9.6621 2.78
v 9.42263 9.69374 2.78
v 8.54605 9.6 2.98
v 8.54605 9.6621 2.98
v 9.22107 9.6 2.98
v 9.22107 9.6621 2.98
v 9.42263 9.69374 2.98
v 5.13475 11.1093 2.78
v 5.33631 11.0788 2.78
v 5.13475 11.1714 2.78
v 5.45934 10.9511 2.78
v 5.61051 11.1714 2.78
v 5.13475 11.1093 2.98
v 5.33631 11.0788 2.98
v 5.13475 11.1714 2.98
v 5.45934 10.9511 2.98
v 5.61051 11.1714 2.98
v 6.70262 10.9511 2.78
v 6.67919 11.1714 2.78
v 6.9276 11.0788 2.78
v 6.70262 10.9511 2.98
v 6.67919 11.1714 2.98
v 6.9276 11.0788 2.98
v 8.29646 10.2164 2.78
v 8.29646 10.3218 2.78
v 8.29646 10.2164 2.98
v 8.29646 10.3218 2.98
v 7.12916 11.1093 2.78
v 7.12916 11.1714 2.78
v 7.86874 11.1093 2.78
v 7.86874 11.1714 2.78
v 8.0703 11.0788 2.78
v 8.29646 11.0659 2.78
v 7.12916 11.1093 2.98
v 7.12916 11.1714 2.98
v 7.86874 11.1093 2.98
v 7.86874 11.1714 2.98
v 8.0703 11.0788 2.98
v 8.29646 11.0659 2.98
v 8.47339 10.2164 2.78
v 8.41832 10.3218 2.78
v 8.59042 10.3444 2.78
v 8.71464 10.2477 2.78
v 8.71068 10.4121 2.78
v 8.89231 10.3417 2.78
v 8.78142 10.5307 2.78
v 8.80501 10.7062 2.78
v 8.78245 10.872 2.78
v 9.00173 10.4961 2.78
v 9.0382 10.7085 2.78
v 8.47339 10.2164 2.98
v 8.41832 10.3218 2.98
v 8.59042 10.3444 2.98
v 8.71464 10.2477 2.98
v 8.71068 10.4121 2.98
v 8.89231 10.3417 2.98
v 8.78142 10.5307 2.98
v 8.80501 10.7062 2.98
v 8.78245 10.872 2.98
v 9.00173 10.4961 2.98
v 9.0382 10.7085 2.98
v 8.41128 11.0659 2.78
v 8.59379 11.0451 2.78
v 8.46167 11.1714 2.78
v 8.71477 10.9827 2.78
v 8.89407 11.0557 2.78
v 9.22107 11.1093 2.78
v 9.42263 11.0788 2.78
v 9.22107 11.1714 2.78
v 8.41128 11.0659 2.98
v 8.59379 11.0451 2.98
v 8.46167 11.1714 2.98
v 8.71477 10.9827 2.98
v 8.89407 11.0557 2.98
v 9.22107 11.1093 2.98
v 9.42263 11.0788 2.98
v 9.22107 11.1714 2.98
v 19 0 0
v 9.87852 1.89982 2.78
v 9.91303 1.89982 2.78
v 9.65198 2.50135 2.78
v 9.92344 2.12637 2.78
v 10.3154 1.92 2.78
v 10.3154 1.9545 2.78
v 10.4274 1.97208 2.78
v 10.4958 1.97208 2.78
v 10.6129 1.92 2.78
v 10.6129 1.9545 2.78
v 9.87852 1.89982 2.98
v 9.91303 1.89982 2.98
v 9.65198 2.50135 2.98
v 9.92344 2.12637 2.98
v 10.3154 1.92 2.98
v 10.3154 1.9545 2.98
v 10.4274 1.97208 2.98
v 10.4958 1.97208 2.98
v 10.6129 1.92 2.98
v 10.6129 1.9545 2.98
v 9.6676 2.7318 2.78
v 9.6969 2.7318 2.78
v 9.98529 2.75849 2.78
v 9.98529 2.793 2.78
v 10.1213 2.74156 2.78
v 10.1982 2.74156 2.78
v 10.2743 2.75849 2.78
v 10.3154 2.75849 2.78
v 10.2743 2.793 2.78
v 10.3154 2.793 2.78
v 10.4958 2.70511 2.78
v 10.4274 2.74156 2.78
v 10.5797 2.793 2.78
v 9.6676 2.7318 2.98
v 9.6969 2.7318 2.98
v 9.98529 2.75849 2.98
v 9.98529 2.793 2.98
v 10.1213 2.74156 2.98
v 10.1982 2.74156 2.98
v 10.2743 2.75849 2.98
v 10.3154 2.75849 2.98
v 10.2743 2.793 2.98
v 10.3154 2.793 2.98
v 10.4958 2.70511 2.98
v 10.4274 2.74156 2.98
v 10.5797 2.793 2.98
v 11.0341 1.92 2.78
v 11.0973 1.92 2.78
v 11.2783 1.92 2.78
v 11.2783 1.9545 2.78
v 11.0289 2.14655 2.78
v 11.3903 1.97208 2.78
v 11.4586 1.97208 2.78
v 11.5758 1.92 2.78
v 11.5758 1.9545 2.78
v 11.0341 1.92 2.98
v 11.0973 1.92 2.98
v 11.2783 1.92 2.98
v 11.2783 1.9545 2.98
v 11.0289 2.14655 2.98
v 11.3903 1.97208 2.98
v 11.4586 1.97208 2.98
v 11.5758 1.92 2.98
v 11.5758 1.9545 2.98
v 10.9117 2.75849 2.78
v 10.9117 2.793 2.78
v 11.0289 2.74156 2.78
v 11.0973 2.74156 2.78
v 11.2093 2.75849 2.78
v 11.2783 2.75849 2.78
v 11.2093 2.793 2.78
v 11.2783 2.793 2.78
v 11.4586 2.70511 2.78
v 11.3903 2.74156 2.78
v 11.5426 2.793 2.78
v 11.8746 2.75849 2.78
v 11.8746 2.793 2.78
v 10.9117 2.75849 2.98
v 10.9117 2.793 2.98
v 11.0289 2.74156 2.98
v 11.0973 2.74156 2.98
v 11.2093 2.75849 2.98
v 11.2783 2.75849 2.98
v 11.2093 2.793 2.98
v 11.2783 2.793 2.98
v 11.4586 2.70511 2.98
v 11.3903 2.74156 2.98
v 11.5426 2.793 2.98
v 11.8746 2.75849 2.98
v 11.8746 2.793 2.98
v 11.997 1.92 2.78
v 12.0602 1.92 2.78
v 12.2412 1.92 2.78
v 12.2412 1.9545 2.78
v 12.3532 1.97208 2.78
v 12.4215 1.97208 2.78
v 11.9918 2.14655 2.78
v 12.5387 1.92 2.78
v 12.5387 1.9545 2.78
v 12.9599 1.92 2.78
v 13.0231 1.92 2.78
v 12.9547 2.14655 2.78
v 11.997 1.92 2.98
v 12.0602 1.92 2.98
v 12.2412 1.92 2.98
v 12.2412 1.9545 2.98
v 12.3532 1.97208 2.98
v 12.4215 1.97208 2.98
v 11.9918 2.14655 2.98
v 12.5387 1.92 2.98
v 12.5387 1.9545 2.98
v 12.9599 1.92 2.98
v 13.0231 1.92 2.98
v 12.9547 2.14655 2.98
v 11.9918 2.74156 2.78
v 12.0602 2.74156 2.78
v 12.4215 2.70511 2.78
v 12.1721 2.75849 2.78
v 12.2412 2.75849 2.78
v 12.1721 2.793 2.78
v 12.2412 2.793 2.78
v 12.3532 2.74156 2.78
v 12.5055 2.793 2.78
v 12.8375 2.75849 2.78
v 12.8375 2.793 2.78
v 12.9547 2.74156 2.78
v 13.0231 2.74156 2.78
v 11.9918 2.74156 2.98
v 12.0602 2.74156 2.98
v 12.4215 2.70511 2.98
v 12.1721 2.75849 2.98
v 12.2412 2.75849 2.98
v 12.1721 2.793 2.98
v 12.2412 2.793 2.98
v 12.3532 2.74156 2.98
v 12.5055 2.793 2.98
v 12.8375 2.75849 2.98
v 12.8375 2.793 2.98
v 12.9547 2.74156 2.98
v 13.0231 2.74156 2.98
v 13.135 2.75849 2.78
v 13.135 2.793 2.78
v 13.135 2.75849 2.98
v 13.135 2.793 2.98
v 9.54817 3.84 2.78
v 9.54817 3.8745 2.78
v 9.66015 3.89208 2.78
v 9.78514 3.89208 2.78
v 9.89711 3.84 2.78
v 9.89711 3.8745 2.78
v 9.99218 3.84 2.78
v 9.99218 3.8745 2.78
v 10.1042 3.89208 2.78
v 10.2291 3.89208 2.78
v 10.3411 3.84 2.78
v 10.3411 3.8745 2.78
v 10.4362 3.84 2.78
v 10.4362 3.8745 2.78
v 10.5482 3.89208 2.78
v 10.6732 3.89208 2.78
v 9.54817 3.84 2.98
v 9.54817 3.8745 2.98
v 9.66015 3.89208 2.98
v 9.78514 3.89208 2.98
v 9.89711 3.84 2.98
v 9.89711 3.8745 2.98
v 9.99218 3.84 2.98
v 9.99218 3.8745 2.98
v 10.1042 3.89208 2.98
v 10.2291 3.89208 2.98
v 10.3411 3.84 2.98
v 10.3411 3.8745 2.98
v 10.4362 3.84 2.98
v 10.4362 3.8745 2.98
v 10.5482 3.89208 2.98
v 10.6732 3.89208 2.98
v 9.54817 4.67849 2.78
v 9.54817 4.713 2.78
v 9.66015 4.66156 2.78
v 9.78514 4.66156 2.78
v 9.89711 4.67849 2.78
v 9.89711 4.713 2.78
v 9.99218 4.67849 2.78
v 9.99218 4.713 2.78
v 10.1042 4.66156 2.78
v 10.2291 4.66156 2.78
v 10.3411 4.67849 2.78
v 10.3411 4.713 2.78
v 10.4362 4.67849 2.78
v 10.4362 4.713 2.78
v 10.5482 4.66156 2.78
v 10.6732 4.66156 2.78
v 9.54817 4.67849 2.98
v 9.54817 4.713 2.98
v 9.66015 4.66156 2.98
v 9.78514 4.66156 2.98
v 9.89711 4.67849 2.98
v 9.89711 4.713 2.98
v 9.99218 4.67849 2.98
v 9.99218 4.713 2.98
v 10.1042 4.66156 2.98
v 10.2291 4.66156 2.98
v 10.3411 4.67849 2.98
v 10.3411 4.713 2.98
v 10.4362 4.67849 2.98
v 10.4362 4.713 2.98
v 10.5482 4.66156 2.98
v 10.6732 4.66156 2.98
v 10.7851 3.84 2.78
v 10.7851 3.8745 2.78
v 10.7851 3.84 2.98
v 10.7851 3.8745 2.98
v 10.7851 4.67849 2.78
v 10.7851 4.713 2.78
v 10.7851 4.67849 2.98
v 10.7851 4.713 2.98
v 9.67316 5.86253 2.78
v 9.81508 5.77587 2.78
v 9.86985 5.82217 2.78
v 10.0039 5.74698 2.78
v 10.0052 5.7971 2.78
v 10.0773 5.80158 2.78
v 10.1632 5.75724 2.78
v 10.1451 5.81501 2.78
v 10.2041 5.83592 2.78
v 10.3118 5.78799 2.78
v 10.2493 5.86285 2.78
v 10.4362 5.76 2.78
v 10.4362 5.7945 2.78
v 10.5397 5.81208 2.78
v 10.6654 5.81208 2.78
v 9.67316 5.86253 2.98
v 9.81508 5.77587 2.98
v 9.86985 5.82217 2.98
v 10.0039 5.74698 2.98
v 10.0052 5.7971 2.98
v 10.0773 5.80158 2.98
v 10.1632 5.75724 2.98
v 10.1451 5.81501 2.98
v 10.2041 5.83592 2.98
v 10.3118 5.78799 2.98
v 10.2493 5.86285 2.98
v 10.4362 5.76 2.98
v 10.4362 5.7945 2.98
v 10.5397 5.81208 2.98
v 10.6654 5.81208 2.98
v 9.5843 6.00127 2.78
v 9.77114 5.89736 2.78
v 9.71084 6.02008 2.78
v 9.55468 6.1864 2.78
v 9.69074 6.18771 2.78
v 9.58316 6.38423 2.78
v 9.70995 6.36706 2.78
v 9.76756 6.49237 2.78
v 9.6686 6.5272 2.78
v 9.81004 6.61387 2.78
v 9.867 6.5661 2.78
v 10.0117 6.59068 2.78
v 10.0736 6.58685 2.78
v 10.0065 6.64276 2.78
v 10.2734 5.99306 2.78
v 10.3157 5.99306 2.78
v 10.5397 6.06857 2.78
v 10.6654 6.10242 2.78
v 10.6654 6.16102 2.78
v 10.2597 6.41881 2.78
v 10.3027 6.41881 2.78
v 10.1344 6.57538 2.78
v 10.191 6.55691 2.78
v 10.2402 6.53209 2.78
v 10.1476 6.63446 2.78
v 10.2988 6.60955 2.78
v 10.4277 6.59849 2.78
v 10.4277 6.633 2.78
v 10.5397 6.58156 2.78
v 10.6654 6.5744 2.78
v 9.5843 6.00127 2.98
v 9.77114 5.89736 2.98
v 9.71084 6.02008 2.98
v 9.55468 6.1864 2.98
v 9.69074 6.18771 2.98
v 9.58316 6.38423 2.98
v 9.70995 6.36706 2.98
v 9.76756 6.49237 2.98
v 9.6686 6.5272 2.98
v 9.81004 6.61387 2.98
v 9.867 6.5661 2.98
v 10.0117 6.59068 2.98
v 10.0736 6.58685 2.98
v 10.0065 6.64276 2.98
v 10.2734 5.99306 2.98
v 10.3157 5.99306 2.98
v 10.6654 6.10242 2.98
v 10.6654 6.16102 2.98
v 10.2597 6.41881 2.98
v 10.3027 6.41881 2.98
v 10.1344 6.57538 2.98
v 10.191 6.55691 2.98
v 10.2402 6.53209 2.98
v 10.1476 6.63446 2.98
v 10.2988 6.60955 2.98
v 10.4277 6.59849 2.98
v 10.4277 6.633 2.98
v 10.5397 6.58156 2.98
v 10.6654 6.5744 2.98
v 10.804 5.76 2.78
v 10.804 5.7945 2.78
v 11.1693 5.76 2.78
v 11.1693 5.7945 2.78
v 11.2812 5.81208 2.78
v 11.3496 5.81208 2.78
v 11.4668 5.76 2.78
v 11.4668 5.7945 2.78
v 10.804 5.76 2.98
v 10.804 5.7945 2.98
v 11.1693 5.76 2.98
v 11.1693 5.7945 2.98
v 11.2812 5.81208 2.98
v 11.3496 5.81208 2.98
v 11.4668 5.76 2.98
v 11.4668 5.7945 2.98
v 10.7331 6.16102 2.78
v 10.7636 6.10242 2.78
v 10.8287 6.17355 2.78
v 10.8977 6.11984 2.78
v 10.8955 6.21114 2.78
v 10.9348 6.27706 2.78
v 10.9964 6.17208 2.78
v 11.0572 6.25785 2.78
v 10.9479 6.37454 2.78
v 10.9353 6.46666 2.78
v 10.7291 6.5744 2.78
v 10.8305 6.56284 2.78
v 10.7571 6.633 2.78
v 10.8978 6.52817 2.78
v 11.0774 6.37585 2.78
v 10.9974 6.56871 2.78
v 11.1693 6.59849 2.78
v 11.2812 6.58156 2.78
v 11.1693 6.633 2.78
v 11.3496 6.54511 2.78
v 11.4336 6.633 2.78
v 11.7656 6.59849 2.78
v 11.7656 6.633 2.78
v 10.7331 6.16102 2.98
v 10.7636 6.10242 2.98
v 10.8287 6.17355 2.98
v 10.8977 6.11984 2.98
v 10.8955 6.21114 2.98
v 10.9348 6.27706 2.98
v 10.9964 6.17208 2.98
v 11.0572 6.25785 2.98
v 10.9479 6.37454 2.98
v 10.9353 6.46666 2.98
v 10.7291 6.5744 2.98
v 10.8305 6.56284 2.98
v 10.7571 6.633 2.98
v 10.8978 6.52817 2.98
v 11.0774 6.37585 2.98
v 10.9974 6.56871 2.98
v 11.1693 6.59849 2.98
v 11.2812 6.58156 2.98
v 11.1693 6.633 2.98
v 11.3496 6.54511 2.98
v 11.4336 6.633 2.98
v 11.7656 6.59849 2.98
v 11.7656 6.633 2.98
v 11.888 5.76 2.78
v 11.9511 5.76 2.78
v 11.888 5.76 2.98
v 11.9511 5.76 2.98
v 11.8828 5.98655 2.78
v 11.8828 6.58156 2.78
v 11.9511 6.58156 2.78
v 12.0631 6.59849 2.78
v 12.0631 6.633 2.78
v 11.8828 5.98655 2.98
v 11.8828 6.58156 2.98
v 11.9511 6.58156 2.98
v 12.0631 6.59849 2.98
v 12.0631 6.633 2.98
v 19 0 2.78
v 19 13.44 0
v 9.5843 7.92127 2.78
v 9.67316 7.78253 2.78
v 9.77114 7.81736 2.78
v 9.71084 7.94008 2.78
v 9.81508 7.69587 2.78
v 9.86985 7.74217 2.78
v 10.0039 7.66698 2.78
v 10.0052 7.7171 2.78
v 10.0773 7.72158 2.78
v 9.55468 8.1064 2.78
v 9.69074 8.10771 2.78
v 9.58316 8.30423 2.78
v 9.70995 8.28706 2.78
v 10.1632 7.67724 2.78
v 10.1451 7.73501 2.78
v 10.2041 7.75592 2.78
v 10.3118 7.70799 2.78
v 10.2493 7.78285 2.78
v 10.2734 7.91306 2.78
v 10.3157 7.91306 2.78
v 10.4362 7.68 2.78
v 10.4362 7.7145 2.78
v 10.5397 7.73208 2.78
v 10.6654 7.73208 2.78
v 10.2597 8.33881 2.78
v 10.3027 8.33881 2.78
v 10.6654 8.02242 2.78
v 10.6654 8.08102 2.78
v 9.5843 7.92127 2.98
v 9.67316 7.78253 2.98
v 9.77114 7.81736 2.98
v 9.71084 7.94008 2.98
v 9.81508 7.69587 2.98
v 9.86985 7.74217 2.98
v 10.0039 7.66698 2.98
v 10.0052 7.7171 2.98
v 10.0773 7.72158 2.98
v 9.55468 8.1064 2.98
v 9.69074 8.10771 2.98
v 9.58316 8.30423 2.98
v 9.70995 8.28706 2.98
v 10.1632 7.67724 2.98
v 10.1451 7.73501 2.98
v 10.2041 7.75592 2.98
v 10.3118 7.70799 2.98
v 10.2493 7.78285 2.98
v 10.2734 7.91306 2.98
v 10.3157 7.91306 2.98
v 10.4362 7.68 2.98
v 10.4362 7.7145 2.98
v 10.5397 7.73208 2.98
v 10.6654 7.73208 2.98
v 10.2597 8.33881 2.98
v 10.3027 8.33881 2.98
v 10.6654 8.02242 2.98
v 10.6654 8.08102 2.98
v 10.804 7.68 2.78
v 10.804 7.7145 2.78
v 11.1693 7.68 2.78
v 11.1693 7.7145 2.78
v 11.2812 7.73208 2.78
v 10.7331 8.08102 2.78
v 10.7636 8.02242 2.78
v 10.8287 8.09355 2.78
v 10.8977 8.03984 2.78
v 10.8955 8.13114 2.78
v 10.9348 8.19706 2.78
v 10.9479 8.29454 2.78
v 10.9353 8.38666 2.78
v 10.9964 8.09208 2.78
v 11.0572 8.17785 2.78
v 11.0774 8.29585 2.78
v 11.3496 7.73208 2.78
v 11.4668 7.68 2.78
v 11.4668 7.7145 2.78
v 10.804 7.68 2.98
v 10.804 7.7145 2.98
v 11.1693 7.68 2.98
v 11.1693 7.7145 2.98
v 11.2812 7.73208 2.98
v 10.7331 8.08102 2.98
v 10.7636 8.02242 2.98
v 10.8287 8.09355 2.98
v 10.8977 8.03984 2.98
v 10.8955 8.13114 2.98
v 10.9348 8.19706 2.98
v 10.9479 8.29454 2.98
v 10.9353 8.38666 2.98
v 10.9964 8.09208 2.98
v 11.0572 8.17785 2.98
v 11.0774 8.29585 2.98
v 11.3496 7.73208 2.98
v 11.4668 7.68 2.98
v 11.4668 7.7145 2.98
v 9.6686 8.4472 2.78
v 9.76756 8.41237 2.78
v 9.867 8.4861 2.78
v 9.81004 8.53387 2.78
v 10.0117 8.51068 2.78
v 10.0065 8.56276 2.78
v 10.0736 8.50685 2.78
v 10.1344 8.49538 2.78
v 10.2402 8.45209 2.78
v 10.191 8.47691 2.78
v 10.1476 8.55446 2.78
v 10.2988 8.52955 2.78
v 10.4277 8.51849 2.78
v 10.4277 8.553 2.78
v 10.5397 8.50156 2.78
v 10.6654 8.4944 2.78
v 9.6686 8.4472 2.98
v 9.76756 8.41237 2.98
v 9.867 8.4861 2.98
v 9.81004 8.53387 2.98
v 10.0117 8.51068 2.98
v 10.0065 8.56276 2.98
v 10.0736 8.50685 2.98
v 10.1344 8.49538 2.98
v 10.2402 8.45209 2.98
v 10.191 8.47691 2.98
v 10.1476 8.55446 2.98
v 10.2988 8.52955 2.98
v 10.4277 8.51849 2.98
v 10.4277 8.553 2.98
v 10.5397 8.50156 2.98
v 10.6654 8.4944 2.98
v 9.84917 9.6 2.78
v 9.64761 9.69374 2.78
v 9.84917 9.6621 2.78
v 10.0853 10.0343 2.78
v 10.5007 9.62856 2.78
v 10.2453 9.78455 2.78
v 10.3131 10.0681 2.78
v 10.4216 9.84724 2.78
v 10.5993 9.7119 2.78
v 9.84917 9.6 2.98
v 9.64761 9.69374 2.98
v 9.84917 9.6621 2.98
v 10.0853 10.0343 2.98
v 10.5007 9.62856 2.98
v 10.2453 9.78455 2.98
v 10.3131 10.0681 2.98
v 10.4216 9.84724 2.98
v 10.5993 9.7119 2.98
v 10.7291 8.4944 2.78
v 10.8305 8.48284 2.78
v 10.7571 8.553 2.78
v 10.8978 8.44817 2.78
v 10.9974 8.48871 2.78
v 11.2812 8.50156 2.78
v 11.1693 8.51849 2.78
v 11.1693 8.553 2.78
v 11.3496 8.46511 2.78
v 11.4336 8.553 2.78
v 11.7656 8.51849 2.78
v 11.7656 8.553 2.78
v 10.7291 8.4944 2.98
v 10.8305 8.48284 2.98
v 10.7571 8.553 2.98
v 10.8978 8.44817 2.98
v 10.9974 8.48871 2.98
v 11.2812 8.50156 2.98
v 11.1693 8.51849 2.98
v 11.1693 8.553 2.98
v 11.3496 8.46511 2.98
v 11.4336 8.553 2.98
v 11.7656 8.51849 2.98
v 11.7656 8.553 2.98
v 10.8406 9.57657 2.78
v 11.1273 9.59502 2.78
v 10.8429 9.66679 2.78
v 10.9727 9.67484 2.78
v 11.0948 9.69901 2.78
v 11.2009 9.73666 2.78
v 11.3948 9.65039 2.78
v 11.6621 9.62696 2.78
v 11.8672 9.58917 2.78
v 11.2823 9.78514 2.78
v 11.3257 10.0195 2.78
v 11.4018 10.0195 2.78
v 11.7793 9.7371 2.78
v 11.8345 9.71308 2.78
v 11.6492 9.9574 2.78
v 11.7265 9.9574 2.78
v 10.8406 9.57657 2.98
v 11.1273 9.59502 2.98
v 10.8429 9.66679 2.98
v 10.9727 9.67484 2.98
v 11.0948 9.69901 2.98
v 11.2009 9.73666 2.98
v 11.3948 9.65039 2.98
v 11.6621 9.62696 2.98
v 11.8672 9.58917 2.98
v 11.2823 9.78514 2.98
v 11.3257 10.0195 2.98
v 11.4018 10.0195 2.98
v 11.7793 9.7371 2.98
v 11.8345 9.71308 2.98
v 11.6492 9.9574 2.98
v 11.7265 9.9574 2.98
v 11.888 7.68 2.78
v 11.9511 7.68 2.78
v 11.8828 7.90655 2.78
v 11.888 7.68 2.98
v 11.9511 7.68 2.98
v 11.8828 7.90655 2.98
v 11.8828 8.50156 2.78
v 11.9511 8.50156 2.78
v 12.0631 8.51849 2.78
v 12.0631 8.553 2.78
v 11.8828 8.50156 2.98
v 11.9511 8.50156 2.98
v 12.0631 8.51849 2.98
v 12.0631 8.553 2.98
v 12.0839 9.57657 2.78
v 12.3198 9.60645 2.78
v 11.9088 9.69257 2.78
v 11.9898 9.67851 2.78
v 12.0652 9.67382 2.78
v 12.2251 9.69491 2.78
v 12.3371 9.75818 2.78
v 12.403 9.87068 2.78
v 12.4249 10.0394 2.78
v 12.8398 9.6 2.78
v 12.4952 9.69609 2.78
v 12.6042 9.83876 2.78
v 12.6405 10.0277 2.78
v 12.8398 9.77225 2.78
v 12.9934 9.78046 2.78
v 13.0578 9.97029 2.78
v 12.0839 9.57657 2.98
v 12.3198 9.60645 2.98
v 11.9088 9.69257 2.98
v 11.9898 9.67851 2.98
v 12.0652 9.67382 2.98
v 12.2251 9.69491 2.98
v 12.3371 9.75818 2.98
v 12.403 9.87068 2.98
v 12.4249 10.0394 2.98
v 12.8398 9.6 2.98
v 12.4952 9.69609 2.98
v 12.6042 9.83876 2.98
v 12.6405 10.0277 2.98
v 12.8398 9.77225 2.98
v 12.9934 9.78046 2.98
v 13.0578 9.97029 2.98
v 13.1073 9.8827 2.78
v 13.2148 9.97615 2.78
v 13.8019 9.6 2.78
v 13.8019 9.78046 2.78
v 13.1073 9.8827 2.98
v 13.2148 9.97615 2.98
v 13.8019 9.6 2.98
v 13.8019 9.78046 2.98
v 10.032 10.3675 2.78
v 10.0833 10.7236 2.78
v 10.2769 10.3699 2.78
v 10.3115 10.6927 2.78
v 10.4152 10.9183 2.78
v 10.032 10.3675 2.98
v 10.0833 10.7236 2.98
v 10.2769 10.3699 2.98
v 10.3115 10.6927 2.98
v 10.4152 10.9183 2.98
v 9.64761 11.0788 2.78
v 9.84917 11.1093 2.78
v 9.84917 11.1714 2.78
v 10.2371 10.981 2.78
v 10.5942 11.051 2.78
v 10.4917 11.137 2.78
v 9.64761 11.0788 2.98
v 9.84917 11.1093 2.98
v 9.84917 11.1714 2.98
v 10.2371 10.981 2.98
v 10.5942 11.051 2.98
v 10.4917 11.137 2.98
v 11.3011 10.7859 2.78
v 11.3784 10.7859 2.78
v 11.6972 10.8362 2.78
v 11.7746 10.8362 2.78
v 11.3011 10.7859 2.98
v 11.3784 10.7859 2.98
v 11.6972 10.8362 2.98
v 11.7746 10.8362 2.98
v 10.8546 11.0952 2.78
v 10.9661 11.0883 2.78
v 10.8452 11.189 2.78
v 11.0755 11.0677 2.78
v 11.2659 10.9898 2.78
v 11.1773 11.0344 2.78
v 11.0992 11.174 2.78
v 11.3714 11.1292 2.78
v 11.8156 11.0284 2.78
v 11.8713 11.0538 2.78
v 11.6972 11.1386 2.78
v 11.8053 11.1639 2.78
v 10.8546 11.0952 2.98
v 10.9661 11.0883 2.98
v 10.8452 11.189 2.98
v 11.0755 11.0677 2.98
v 11.2659 10.9898 2.98
v 11.1773 11.0344 2.98
v 11.0992 11.174 2.98
v 11.3714 11.1292 2.98
v 11.8156 11.0284 2.98
v 11.8713 11.0538 2.98
v 11.6972 11.1386 2.98
v 11.8053 11.1639 2.98
v 11.9257 10.3722 2.78
v 11.9257 10.4683 2.78
v 12.0933 10.3628 2.78
v 12.0933 10.4788 2.78
v 12.4047 10.1755 2.78
v 12.3441 10.2744 2.78
v 12.241 10.3366 2.78
v 12.2257 10.4226 2.78
v 12.4109 10.3797 2.78
v 12.3712 10.4643 2.78
v 12.2084 10.5029 2.78
v 12.289 10.5609 2.78
v 12.3365 10.6552 2.78
v 12.3523 10.7882 2.78
v 12.6154 10.1831 2.78
v 12.5398 10.3002 2.78
v 12.4794 10.5427 2.78
v 12.5466 10.6559 2.78
v 12.5691 10.8023 2.78
v 12.8926 10.8362 2.78
v 12.9699 10.8362 2.78
v 11.9257 10.3722 2.98
v 11.9257 10.4683 2.98
v 12.0933 10.3628 2.98
v 12.0933 10.4788 2.98
v 12.4047 10.1755 2.98
v 12.3441 10.2744 2.98
v 12.241 10.3366 2.98
v 12.2257 10.4226 2.98
v 12.4109 10.3797 2.98
v 12.3712 10.4643 2.98
v 12.2084 10.5029 2.98
v 12.289 10.5609 2.98
v 12.3365 10.6552 2.98
v 12.3523 10.7882 2.98
v 12.6154 10.1831 2.98
v 12.5398 10.3002 2.98
v 12.4794 10.5427 2.98
v 12.5466 10.6559 2.98
v 12.5691 10.8023 2.98
v 12.8926 10.8362 2.98
v 12.9699 10.8362 2.98
v 11.9351 11.0735 2.78
v 12.0016 11.0863 2.78
v 12.0652 11.0905 2.78
v 11.8976 11.179 2.78
v 11.9817 11.1865 2.78
v 12.0652 11.189 2.78
v 12.2837 11.0185 2.78
v 12.1948 11.0725 2.78
v 12.3351 10.9249 2.78
v 12.4431 11.0923 2.78
v 13.0109 11.0284 2.78
v 12.8926 11.1386 2.78
v 11.9351 11.0735 2.98
v 12.0016 11.0863 2.98
v 12.0652 11.0905 2.98
v 11.8976 11.179 2.98
v 11.9817 11.1865 2.98
v 12.0652 11.189 2.98
v 12.2837 11.0185 2.98
v 12.1948 11.0725 2.98
v 12.3351 10.9249 2.98
v 12.4431 11.0923 2.98
v 13.0109 11.0284 2.98
v 12.8926 11.1386 2.98
v 13.2397 10.1367 2.78
v 13.424 10.1606 2.78
v 13.366 10.2679 2.78
v 13.4505 10.3833 2.78
v 13.564 10.299 2.78
v 13.6558 10.4147 2.78
v 13.5072 10.5023 2.78
v 13.5393 10.6318 2.78
v 13.55 10.7788 2.78
v 13.5327 10.913 2.78
v 13.7204 10.531 2.78
v 13.7587 10.6512 2.78
v 13.7714 10.7788 2.78
v 13.2397 10.1367 2.98
v 13.424 10.1606 2.98
v 13.366 10.2679 2.98
v 13.4505 10.3833 2.98
v 13.564 10.299 2.98
v 13.6558 10.4147 2.98
v 13.5072 10.5023 2.98
v 13.5393 10.6318 2.98
v 13.55 10.7788 2.98
v 13.5327 10.913 2.98
v 13.7204 10.531 2.98
v 13.7587 10.6512 2.98
v 13.7714 10.7788 2.98
v 13.0651 11.0538 2.78
v 13.1269 11.0735 2.78
v 13.1917 11.0863 2.78
v 13.2547 11.0905 2.78
v 13.0897 11.1764 2.78
v 13.2547 11.189 2.78
v 13.4808 11.0108 2.78
v 13.3897 11.0706 2.78
v 13.6419 11.0817 2.78
v 13.4804 11.1622 2.78
v 13.739 10.9524 2.78
v 13.0651 11.0538 2.98
v 13.1269 11.0735 2.98
v 13.1917 11.0863 2.98
v 13.2547 11.0905 2.98
v 13.0897 11.1764 2.98
v 13.2547 11.189 2.98
v 13.4808 11.0108 2.98
v 13.3897 11.0706 2.98
v 13.6419 11.0817 2.98
v 13.4804 11.1622 2.98
v 13.739 10.9524 2.98
v 19 13.44 2.78
f  2 7 3
f  2 11 7
f  2 16 11
f  2 3 4
f  1 2 418
f  2 147 149
f  2 149 151
f  2 151 153
f  2 153 155
f  2 449 450
f  2 450 452
f  2 452 463
f  1 1114 2
f  2 59 16
f  2 64 59
f  2 65 64
f  2 105 65
f  2 106 105
f  2 109 106
f  2 110 109
f  2 733 110
f  2 734 733
f  2 737 734
f  2 741 737
f  2 4 336
f  9 13 8
f  8 3 7
f  29 3 8
f  29 8 13
f  11 61 12
f  17 11 16
f  57 11 17
f  57 61 11
f  10 12 41
f  10 41 14
f  41 12 61
f  15 31 30
f  15 35 31
f  31 34 32
f  34 31 33
f  35 33 31
f  14 41 36
f  36 41 37
f  37 40 39
f  40 37 38
f  41 38 37
f  2 779 741
f  2 780 779
f  2 781 780
f  59 64 60
f  58 60 87
f  58 87 62
f  87 60 64
f  63 77 42
f  63 81 77
f  77 80 78
f  77 79 80
f  77 81 79
f  82 62 83
f  62 84 83
f  84 62 87
f  39 40 164
f  78 164 40
f  78 80 163
f  83 86 85
f  86 83 84
f  66 89 88
f  66 119 89
f  89 119 90
f  85 163 80
f  85 86 163
f  90 163 86
f  90 119 163
f  107 65 105
f  106 125 124
f  106 126 125
f  129 106 109
f  106 129 126
f  108 121 120
f  108 123 121
f  122 120 121
f  120 163 119
f  120 122 173
f  125 128 127
f  128 125 126
f  111 131 130
f  111 753 131
f  131 753 132
f  127 877 122
f  127 128 877
f  132 877 128
f  2 235 147
f  2 236 235
f  2 239 236
f  2 243 239
f  2 245 243
f  2 249 245
f  2 329 249
f  2 333 329
f  2 155 500
f  2 335 333
f  2 336 335
f  32 168 4
f  32 34 167
f  2 493 491
f  2 491 449
f  2 497 493
f  2 500 497
f  39 167 34
f  32 167 168
f  78 163 164
f  39 164 203
f  39 203 167
f  171 203 164
f  4 168 336
f  163 120 173
f  122 175 173
f  175 122 179
f  172 174 176
f  173 176 174
f  176 173 175
f  172 176 209
f  177 209 176
f  122 181 179
f  181 122 185
f  122 877 185
f  178 180 182
f  179 182 180
f  182 179 181
f  178 182 215
f  183 215 182
f  184 186 878
f  185 878 186
f  172 205 204
f  172 207 205
f  172 209 207
f  205 208 206
f  208 205 207
f  178 211 210
f  178 213 211
f  178 215 213
f  184 217 216
f  184 909 217
f  211 214 212
f  214 211 213
f  217 910 218
f  246 243 245
f  243 246 247
f  237 274 267
f  267 274 150
f  150 274 152
f  238 274 237
f  240 275 238
f  241 275 240
f  242 275 241
f  244 275 242
f  244 268 275
f  238 275 274
f  152 274 154
f  154 274 269
f  269 274 271
f  280 277 274
f  271 274 272
f  276 272 274
f  276 274 277
f  277 280 279
f  243 247 292
f  282 290 268
f  243 292 282
f  248 250 283
f  283 250 286
f  286 250 288
f  285 287 284
f  287 289 284
f  289 346 284
f  346 348 284
f  268 290 275
f  292 290 282
f  275 290 281
f  291 281 290
f  294 293 284
f  296 294 284
f  348 349 284
f  349 297 284
f  297 296 284
f  330 249 329
f  249 330 250
f  206 961 168
f  168 950 336
f  206 208 961
f  212 961 208
f  950 168 952
f  952 168 955
f  333 335 334
f  250 330 288
f  288 330 345
f  331 345 330
f  345 331 347
f  347 331 350
f  334 354 332
f  331 355 350
f  350 352 351
f  353 351 352
f  352 350 355
f  354 334 335
f  982 336 979
f  336 982 984
f  336 984 361
f  357 358 356
f  359 356 358
f  357 360 358
f  361 984 362
f  1 418 383
f  1 383 1115
f  383 418 1115
f  2 388 384
f  2 387 388
f  2 406 407
f  2 407 408
f  2 384 406
f  2 386 387
f  2 389 386
f  2 390 389
f  2 463 391
f  2 391 390
f  2 408 418
f  418 408 409
f  418 409 410
f  418 410 411
f  418 411 419
f  418 419 420
f  418 420 437
f  418 437 438
f  418 438 439
f  418 439 440
f  391 463 392
f  392 464 393
f  393 464 394
f  394 464 395
f  395 464 421
f  421 465 422
f  422 465 447
f  447 465 423
f  423 465 424
f  464 392 463
f  421 464 465
f  465 662 424
f  664 424 662
f  666 426 664
f  424 664 427
f  427 664 426
f  426 673 425
f  466 477 468
f  665 468 477
f  463 452 455
f  463 455 475
f  475 466 463
f  475 477 466
f  475 478 477
f  475 479 478
f  580 479 475
f  481 478 479
f  478 481 672
f  479 580 616
f  270 500 155
f  273 505 270
f  278 505 273
f  281 505 278
f  270 506 500
f  270 505 506
f  281 291 505
f  295 505 291
f  505 295 351
f  505 351 353
f  492 502 495
f  495 502 451
f  494 502 492
f  496 502 494
f  498 502 496
f  499 502 498
f  501 502 499
f  451 502 453
f  454 453 502
f  454 512 578
f  454 502 508
f  512 454 508
f  512 503 578
f  512 500 506
f  512 508 500
f  512 506 507
f  509 511 513
f  513 511 516
f  516 511 517
f  517 511 554
f  503 512 504
f  512 589 504
f  512 591 589
f  515 518 514
f  518 519 514
f  519 556 514
f  593 592 514
f  595 593 514
f  556 557 514
f  557 558 514
f  596 595 514
f  558 596 514
f  505 353 356
f  505 356 359
f  505 359 363
f  988 510 505
f  988 511 510
f  988 505 363
f  992 511 988
f  992 548 511
f  1005 552 548
f  549 511 548
f  511 549 554
f  550 554 549
f  553 632 551
f  554 550 555
f  555 631 559
f  555 550 631
f  552 560 553
f  632 553 560
f  1125 561 1116
f  562 634 633
f  561 1125 1127
f  561 1127 638
f  562 636 634
f  561 638 637
f  578 503 579
f  579 503 581
f  584 581 503
f  584 503 583
f  587 583 503
f  583 587 586
f  582 616 580
f  616 582 585
f  616 585 588
f  616 588 590
f  616 590 594
f  504 589 588
f  590 588 589
f  628 618 594
f  628 630 618
f  616 594 617
f  617 618 619
f  483 617 619
f  617 594 618
f  559 629 628
f  629 559 631
f  630 628 629
f  633 652 630
f  633 635 652
f  635 633 634
f  639 652 635
f  1215 652 639
f  652 1222 654
f  618 630 652
f  652 655 653
f  621 653 678
f  678 653 694
f  694 653 697
f  653 655 697
f  655 652 654
f  465 663 662
f  468 665 467
f  426 666 673
f  683 425 673
f  425 683 685
f  480 673 666
f  482 672 481
f  483 682 674
f  418 440 1538
f  483 619 686
f  483 686 682
f  620 686 619
f  682 685 683
f  682 684 685
f  682 686 684
f  695 696 679
f  696 698 679
f  698 700 679
f  717 716 679
f  716 687 679
f  719 717 679
f  702 719 679
f  700 701 679
f  701 702 679
f  697 655 699
f  722 699 655
f  656 722 655
f  699 722 703
f  703 722 704
f  720 723 718
f  704 721 720
f  723 720 721
f  721 704 722
f  1538 441 425
f  1538 440 441
f  1 732 1114
f  1 1115 732
f  732 1115 1114
f  2 1114 781
f  735 110 733
f  738 734 737
f  734 738 764
f  739 764 738
f  734 759 758
f  734 760 759
f  734 764 760
f  742 763 740
f  736 755 754
f  736 757 755
f  756 754 755
f  132 753 889
f  754 889 753
f  754 756 889
f  759 762 761
f  762 759 760
f  761 889 756
f  761 762 889
f  765 889 762
f  741 779 742
f  782 780 781
f  763 742 779
f  780 782 806
f  780 801 800
f  780 802 801
f  780 806 802
f  786 823 787
f  784 806 782
f  787 805 785
f  805 787 823
f  783 797 765
f  798 765 797
f  783 799 797
f  801 804 803
f  804 801 802
f  765 798 941
f  803 941 798
f  803 804 942
f  807 942 804
f  829 808 807
f  809 807 808
f  807 809 942
f  852 942 809
f  1114 786 781
f  1114 823 786
f  826 824 825
f  824 850 848
f  824 851 850
f  824 826 854
f  827 854 826
f  831 849 828
f  824 854 851
f  830 832 831
f  849 831 832
f  833 873 859
f  829 847 808
f  850 853 852
f  853 850 851
f  857 855 856
f  834 856 855
f  834 858 856
f  877 132 881
f  132 883 881
f  883 132 887
f  132 889 887
f  878 185 877
f  184 878 911
f  879 911 878
f  880 882 884
f  881 884 882
f  884 881 883
f  880 884 917
f  885 917 884
f  889 765 941
f  886 888 890
f  887 890 888
f  890 887 889
f  886 890 923
f  891 923 890
f  184 911 909
f  880 913 912
f  880 915 913
f  880 917 915
f  910 217 909
f  913 916 914
f  916 913 915
f  886 919 918
f  886 921 919
f  886 923 921
f  919 922 920
f  922 919 921
f  803 942 941
f  852 924 942
f  942 924 892
f  924 852 853
f  924 853 855
f  924 855 945
f  945 857 946
f  212 214 961
f  218 961 214
f  955 168 961
f  218 910 960
f  914 960 910
f  979 336 949
f  949 336 950
f  953 993 951
f  914 916 960
f  920 960 916
f  218 960 961
f  920 922 960
f  946 960 922
f  960 946 1038
f  954 993 953
f  956 993 954
f  955 961 958
f  980 993 981
f  951 993 980
f  995 983 981
f  995 985 983
f  987 362 984
f  362 987 363
f  988 363 987
f  995 986 985
f  986 998 989
f  989 998 990
f  957 993 956
f  994 981 993
f  995 981 994
f  959 993 957
f  995 994 958
f  995 958 961
f  995 961 962
f  986 995 998
f  1002 1000 998
f  998 995 999
f  990 998 991
f  991 998 1000
f  1000 1002 1001
f  999 1005 1004
f  995 1005 999
f  995 1007 1005
f  1064 1008 997
f  1044 1100 1045
f  996 963 1039
f  996 1040 1055
f  1041 1057 1055
f  1054 1056 997
f  1056 1058 997
f  1058 1059 997
f  1059 1062 997
f  1041 1055 1040
f  1057 1041 1060
f  1060 1042 1061
f  1042 1060 1041
f  1061 1042 1071
f  1063 1067 997
f  1065 1064 997
f  1067 1065 997
f  1062 1063 997
f  1061 1071 1068
f  1068 1070 1069
f  1070 1068 1071
f  1045 1073 1043
f  1073 1045 1100
f  1104 1075 1074
f  1104 1105 1075
f  1076 1074 1075
f  855 857 945
f  874 946 857
f  1114 1038 946
f  1114 996 1039
f  1114 1039 1038
f  1114 1040 996
f  1114 1044 1040
f  1114 1100 1044
f  1101 1107 1106
f  1114 824 823
f  1114 825 824
f  1114 830 825
f  1114 832 830
f  1114 833 832
f  1114 873 833
f  1114 946 874
f  1114 874 873
f  1114 1101 1100
f  1114 1107 1101
f  1114 1108 1107
f  1114 1317 1108
f  1114 1324 1317
f  1114 1325 1324
f  1114 1364 1325
f  1114 1365 1364
f  1003 548 992
f  1004 548 1003
f  1004 1005 548
f  1006 561 1005
f  1005 560 552
f  1005 561 560
f  1006 1120 561
f  1006 1122 1120
f  1066 1122 1006
f  1069 1122 1066
f  1072 1129 1122
f  1072 1132 1129
f  1072 1136 1132
f  1117 561 1120
f  1116 561 1117
f  1121 1140 1118
f  1123 1140 1121
f  1118 1140 1119
f  1119 1140 1126
f  1126 1140 1128
f  1128 1140 1211
f  1124 1141 1123
f  1130 1141 1124
f  1131 1141 1130
f  1133 1141 1131
f  1137 1132 1136
f  1132 1137 1138
f  1123 1141 1140
f  1133 1134 1141
f  1132 1224 1135
f  1135 1222 1134
f  1134 1222 1141
f  1132 1138 1224
f  1224 1222 1135
f  1260 1225 1143
f  1069 1070 1122
f  1072 1122 1070
f  1074 1172 1072
f  1072 1172 1136
f  1076 1174 1172
f  1074 1076 1172
f  1076 1189 1174
f  1076 1316 1189
f  1172 1175 1173
f  1139 1173 1142
f  1142 1173 1178
f  1178 1173 1180
f  1173 1175 1180
f  1175 1172 1174
f  1180 1175 1185
f  1176 1185 1175
f  1177 1179 1143
f  1179 1181 1143
f  1181 1182 1143
f  1261 1260 1143
f  1263 1261 1143
f  1184 1263 1143
f  1182 1183 1143
f  1183 1184 1143
f  1185 1176 1186
f  1186 1176 1187
f  1176 1265 1187
f  1190 1268 1188
f  1268 1190 1316
f  1189 1316 1190
f  1318 1270 1269
f  1318 1322 1270
f  1210 638 1127
f  638 1210 639
f  1213 639 1210
f  1215 639 1213
f  1211 1140 1212
f  1212 1140 1214
f  1220 652 1215
f  1221 652 1220
f  652 1221 1222
f  1223 654 1222
f  1214 1140 1216
f  1216 1140 1217
f  1218 1217 1140
f  1217 1218 1219
f  1141 1222 1221
f  654 1223 1242
f  1242 1247 1244
f  1245 1244 1247
f  1244 1370 1243
f  1244 1245 1370
f  1223 1246 1242
f  1246 1223 1284
f  1247 1242 1246
f  1187 1266 1264
f  1267 1264 1266
f  1266 1187 1265
f  1262 1291 1223
f  1264 1291 1262
f  1264 1267 1291
f  1271 1269 1270
f  1269 1291 1267
f  1291 1269 1271
f  1284 1223 1285
f  1285 1223 1290
f  1291 1290 1223
f  1286 1392 1250
f  1287 1393 1286
f  1288 1393 1287
f  1289 1393 1288
f  1291 1271 1292
f  1290 1291 1298
f  1290 1298 1295
f  1296 1297 1332
f  1296 1333 1299
f  1299 1295 1298
f  1295 1299 1338
f  1108 1316 1076
f  1108 1317 1316
f  1317 1324 1323
f  1325 1292 1271
f  1325 1330 1292
f  1330 1325 1331
f  1331 1325 1340
f  1325 1339 1340
f  1296 1332 1333
f  1334 1299 1333
f  1335 1299 1334
f  1336 1299 1335
f  1337 1299 1336
f  1428 1295 1338
f  1338 1299 1337
f  1339 1325 1364
f  1343 1340 1339
f  1340 1343 1341
f  1341 1343 1345
f  1341 1345 1342
f  1490 1342 1345
f  1344 1365 1362
f  1362 1365 1363
f  1363 1365 1491
f  1491 1365 1494
f  418 1538 1115
f  1243 1370 1371
f  1243 1381 1380
f  1243 1371 1381
f  1249 1392 1248
f  1248 1392 1372
f  1372 1392 1373
f  1373 1392 1374
f  1383 1381 1371
f  1381 1383 1382
f  1385 1382 1383
f  1402 1382 1385
f  1250 1392 1249
f  1286 1393 1392
f  1374 1392 1384
f  1293 1393 1289
f  1293 1294 1393
f  1295 1393 1294
f  1295 1424 1393
f  1424 1295 1426
f  1393 1425 1394
f  1425 1393 1424
f  1394 1425 1395
f  1384 1392 1400
f  1400 1392 1401
f  1401 1392 1403
f  1404 1403 1392
f  1404 1405 1403
f  1393 1410 1407
f  1410 1393 1394
f  1395 1409 1408
f  1409 1395 1466
f  1538 425 685
f  1538 685 718
f  1426 1295 1430
f  1430 1295 1429
f  1429 1295 1428
f  1439 1433 1432
f  1431 1432 1433
f  1439 1440 1433
f  1427 1395 1425
f  1434 1395 1427
f  1435 1395 1434
f  1436 1395 1435
f  1437 1395 1436
f  1474 1395 1437
f  1342 1490 1438
f  1438 1492 1439
f  1439 1492 1440
f  1440 1492 1441
f  1441 1443 1442
f  1441 1497 1444
f  1443 1441 1444
f  1466 1395 1467
f  1467 1395 1468
f  1468 1395 1473
f  1473 1395 1472
f  1472 1395 1474
f  1442 1477 1475
f  1477 1442 1443
f  1444 1516 1476
f  1516 1444 1517
f  1438 1490 1492
f  1493 1441 1492
f  1496 1441 1493
f  1497 1441 1496
f  1498 1444 1497
f  1499 1444 1498
f  1517 1444 1518
f  1518 1444 1519
f  1519 1444 1523
f  1523 1444 1522
f  1522 1444 1499
f  1538 718 723
f  1538 723 1382
f  1538 1382 1402
f  1538 1402 1406
f  1538 1406 1407
f  1538 1407 1410
f  1538 1410 1411
f  1538 1411 1469
f  1114 1115 1538
f  1114 1538 1365
f  1538 1495 1494
f  1538 1494 1365
f  1538 1500 1495
f  1538 1501 1500
f  1538 1502 1501
f  1538 1526 1502
f  1538 1469 1470
f  1538 1470 1471
f  1538 1471 1475
f  1538 1475 1477
f  1538 1477 1520
f  1538 1520 1521
f  1538 1521 1525
f  1538 1525 1524
f  1538 1524 1526
f  5 4 3
f  43 3 29
f  5 6 4
f  43 5 3
f  43 6 5
f  18 8 7
f  19 9 8
f  20 13 9
f  22 7 11
f  21 12 10
f  23 11 12
f  18 19 8
f  19 20 9
f  18 20 19
f  18 7 22
f  21 10 25
f  22 11 23
f  21 23 12
f  18 22 20
f  20 21 24
f  20 22 21
f  21 22 23
f  24 29 13
f  25 10 14
f  26 35 15
f  20 24 13
f  21 25 24
f  24 25 26
f  26 15 44
f  25 14 50
f  24 26 44
f  25 49 26
f  27 17 16
f  28 57 17
f  27 28 17
f  27 67 28
f  71 41 61
f  44 15 30
f  6 32 4
f  45 30 31
f  46 31 32
f  47 34 33
f  24 43 29
f  24 44 43
f  44 30 45
f  6 46 32
f  45 31 46
f  43 44 6
f  6 44 46
f  44 45 46
f  26 49 35
f  47 48 34
f  49 47 33
f  49 48 47
f  50 14 36
f  49 33 35
f  48 39 34
f  51 36 37
f  53 37 39
f  52 40 38
f  55 38 41
f  54 78 40
f  25 50 49
f  48 53 39
f  50 36 51
f  51 37 53
f  52 54 40
f  49 50 48
f  48 50 53
f  50 51 53
f  71 55 41
f  71 56 55
f  52 38 55
f  56 42 91
f  54 92 78
f  52 55 54
f  54 55 56
f  54 56 92
f  67 61 57
f  69 16 59
f  68 60 58
f  70 59 60
f  28 67 57
f  27 16 69
f  68 58 72
f  27 68 67
f  67 68 71
f  27 69 68
f  69 59 70
f  68 70 60
f  68 69 70
f  72 58 62
f  73 81 63
f  67 71 61
f  68 72 71
f  71 72 73
f  73 63 56
f  71 73 56
f  73 72 95
f  72 62 96
f  75 64 65
f  74 64 75
f  74 87 64
f  76 119 66
f  74 101 87
f  75 65 114
f  74 75 101
f  75 76 101
f  75 114 76
f  76 66 102
f  56 63 42
f  91 42 77
f  92 77 78
f  96 62 82
f  93 80 79
f  95 79 81
f  94 85 80
f  97 82 83
f  91 77 92
f  56 91 92
f  73 95 81
f  72 96 95
f  93 94 80
f  95 93 79
f  94 99 85
f  96 82 97
f  95 94 93
f  95 96 94
f  94 96 99
f  96 97 99
f  99 83 85
f  98 86 84
f  101 84 87
f  100 90 86
f  102 66 88
f  103 88 89
f  104 89 90
f  76 102 101
f  97 83 99
f  98 84 101
f  98 100 86
f  102 88 103
f  100 104 90
f  98 101 100
f  100 101 102
f  100 102 104
f  103 89 104
f  102 103 104
f  113 105 106
f  112 105 113
f  114 65 107
f  112 107 105
f  115 123 108
f  138 106 124
f  114 107 112
f  114 112 115
f  115 108 134
f  76 114 133
f  114 115 133
f  113 106 138
f  112 113 138
f  112 138 115
f  117 109 110
f  116 109 117
f  116 129 109
f  116 143 129
f  117 110 745
f  116 117 143
f  117 118 143
f  118 111 144
f  134 108 120
f  133 120 119
f  135 122 121
f  137 121 123
f  136 127 122
f  76 133 119
f  115 134 133
f  133 134 120
f  115 137 123
f  115 138 137
f  135 136 122
f  135 121 137
f  135 137 136
f  136 137 138
f  136 138 141
f  139 124 125
f  141 125 127
f  140 128 126
f  143 126 129
f  142 132 128
f  144 111 130
f  145 130 131
f  146 131 132
f  138 124 139
f  136 141 127
f  139 125 141
f  143 140 126
f  140 142 128
f  138 139 141
f  143 142 140
f  143 144 142
f  142 144 146
f  118 144 143
f  144 130 145
f  142 146 132
f  145 131 146
f  144 145 146
f  148 149 147
f  156 151 149
f  158 153 151
f  159 150 152
f  148 156 149
f  157 150 159
f  148 298 157
f  148 157 156
f  156 157 159
f  156 158 151
f  159 152 161
f  156 159 158
f  158 159 160
f  161 152 154
f  160 155 153
f  162 270 155
f  158 160 153
f  160 162 155
f  160 159 161
f  160 161 162
f  161 300 162
f  165 164 163
f  166 171 164
f  165 166 164
f  166 187 171
f  165 187 166
f  169 168 167
f  219 167 203
f  169 170 168
f  169 167 219
f  169 219 170
f  189 163 173
f  190 173 174
f  188 174 172
f  187 203 171
f  191 176 175
f  192 177 176
f  195 175 179
f  193 209 177
f  165 163 189
f  188 190 174
f  189 173 190
f  165 188 187
f  165 189 188
f  188 189 190
f  188 172 220
f  187 188 219
f  191 192 176
f  192 193 177
f  191 175 195
f  191 193 192
f  191 195 193
f  193 195 194
f  194 178 226
f  193 194 225
f  196 179 180
f  194 180 178
f  197 182 181
f  198 183 182
f  201 181 185
f  202 185 186
f  200 186 184
f  199 215 183
f  194 196 180
f  195 179 196
f  197 198 182
f  198 199 183
f  194 195 196
f  197 199 198
f  197 181 201
f  200 202 186
f  201 185 202
f  197 201 199
f  199 201 200
f  200 201 202
f  200 184 232
f  199 200 231
f  220 172 204
f  226 178 210
f  187 219 203
f  188 220 219
f  193 225 209
f  194 226 225
f  170 206 168
f  221 204 205
f  222 205 206
f  223 208 207
f  225 207 209
f  224 212 208
f  170 222 206
f  220 204 221
f  221 205 222
f  170 219 220
f  170 220 222
f  220 221 222
f  223 224 208
f  223 207 225
f  224 228 212
f  223 225 224
f  224 225 226
f  224 226 228
f  232 184 216
f  199 231 215
f  200 232 231
f  227 210 211
f  228 211 212
f  229 214 213
f  231 213 215
f  230 218 214
f  233 216 217
f  234 217 218
f  226 210 227
f  227 211 228
f  229 230 214
f  229 213 231
f  226 227 228
f  229 231 230
f  230 234 218
f  232 216 233
f  233 217 234
f  230 231 234
f  231 232 234
f  232 233 234
f  251 147 235
f  298 237 267
f  252 235 236
f  253 238 237
f  255 236 239
f  254 240 238
f  256 241 240
f  257 242 241
f  258 244 242
f  259 239 243
f  251 148 147
f  298 253 237
f  251 235 252
f  253 254 238
f  251 298 148
f  251 253 298
f  251 252 253
f  252 254 253
f  252 236 255
f  254 256 240
f  256 257 241
f  255 239 259
f  257 258 242
f  258 260 244
f  252 255 256
f  252 256 254
f  255 257 256
f  255 258 257
f  255 259 258
f  258 259 260
f  261 246 245
f  262 247 246
f  265 245 249
f  264 250 248
f  266 249 250
f  259 243 313
f  261 262 246
f  261 245 265
f  262 263 247
f  261 263 262
f  261 264 263
f  264 266 250
f  265 249 266
f  261 265 264
f  265 266 264
f  157 267 150
f  260 268 244
f  299 282 268
f  298 267 157
f  260 299 268
f  299 313 282
f  260 259 313
f  260 313 299
f  300 154 269
f  302 269 271
f  303 271 272
f  301 273 270
f  305 280 274
f  306 274 275
f  307 272 276
f  308 276 277
f  304 278 273
f  311 279 280
f  310 277 279
f  312 275 281
f  309 281 278
f  161 154 300
f  162 301 270
f  300 269 302
f  302 271 303
f  301 304 273
f  162 300 301
f  300 302 301
f  301 302 304
f  302 303 304
f  305 274 306
f  305 311 280
f  306 275 312
f  305 306 311
f  303 272 307
f  307 276 308
f  308 277 310
f  304 309 278
f  310 279 311
f  312 281 309
f  303 307 304
f  307 308 309
f  308 310 309
f  304 307 309
f  310 312 309
f  306 312 311
f  310 311 312
f  313 243 282
f  263 292 247
f  314 248 283
f  317 283 286
f  315 285 284
f  316 287 285
f  319 286 288
f  318 289 287
f  263 315 323
f  264 248 314
f  263 264 314
f  263 314 315
f  314 283 317
f  315 316 285
f  315 284 324
f  317 286 319
f  316 318 287
f  318 320 289
f  314 316 315
f  314 317 316
f  317 319 318
f  317 318 316
f  318 319 320
f  321 291 290
f  323 290 292
f  322 295 291
f  324 284 293
f  325 293 294
f  327 294 296
f  328 296 297
f  326 351 295
f  263 323 292
f  321 322 291
f  321 290 323
f  321 323 322
f  323 326 322
f  315 324 323
f  324 293 325
f  322 326 295
f  325 294 327
f  328 327 296
f  323 324 326
f  324 325 326
f  325 327 326
f  326 327 370
f  337 330 329
f  338 331 330
f  341 329 333
f  340 334 332
f  342 333 334
f  337 338 330
f  337 329 341
f  338 339 331
f  341 333 342
f  340 342 334
f  337 339 338
f  337 341 339
f  339 341 340
f  340 341 342
f  344 335 336
f  343 335 344
f  364 288 345
f  320 346 289
f  366 345 347
f  319 288 364
f  320 365 346
f  364 345 366
f  366 347 369
f  319 364 320
f  320 364 365
f  364 366 365
f  339 374 331
f  340 332 373
f  339 340 373
f  365 348 346
f  367 349 348
f  368 297 349
f  370 350 351
f  369 347 350
f  371 353 352
f  374 355 331
f  373 332 354
f  374 352 355
f  372 356 353
f  365 367 348
f  367 368 349
f  328 297 368
f  370 369 350
f  365 366 367
f  366 369 367
f  367 369 368
f  368 369 370
f  326 370 351
f  371 372 353
f  328 370 327
f  328 368 370
f  339 373 374
f  371 352 374
f  372 375 356
f  371 374 372
f  374 375 372
f  374 373 375
f  343 354 335
f  376 360 357
f  373 343 344
f  373 354 343
f  375 376 357
f  373 344 376
f  344 336 380
f  344 380 376
f  375 357 356
f  377 359 358
f  380 336 361
f  379 358 360
f  378 363 359
f  381 361 362
f  382 362 363
f  373 376 375
f  377 378 359
f  376 379 360
f  376 380 379
f  377 358 379
f  380 361 381
f  381 362 382
f  378 382 363
f  377 379 378
f  379 380 378
f  380 382 378
f  380 381 382
f  385 406 384
f  398 385 384
f  385 412 406
f  397 388 387
f  396 387 386
f  398 384 388
f  399 386 389
f  400 389 390
f  398 388 397
f  397 387 396
f  396 386 399
f  399 389 400
f  400 390 401
f  398 397 432
f  397 396 432
f  401 390 391
f  402 391 392
f  403 392 393
f  404 393 394
f  405 394 395
f  430 395 421
f  401 391 402
f  402 392 403
f  400 401 404
f  401 402 403
f  401 403 404
f  400 404 405
f  396 399 432
f  399 400 448
f  403 393 404
f  404 394 405
f  405 395 430
f  400 405 430
f  400 430 431
f  412 407 406
f  413 408 407
f  414 409 408
f  412 413 407
f  413 414 408
f  414 415 409
f  415 410 409
f  416 411 410
f  417 419 411
f  415 416 410
f  416 417 411
f  415 417 416
f  414 428 415
f  415 428 417
f  413 435 414
f  398 432 385
f  385 432 412
f  412 432 413
f  428 420 419
f  414 429 428
f  417 428 419
f  428 429 420
f  414 442 429
f  414 443 442
f  414 444 443
f  414 435 434
f  414 445 444
f  414 446 445
f  414 434 446
f  431 421 422
f  432 447 423
f  413 432 433
f  430 421 431
f  431 422 448
f  399 448 432
f  400 431 448
f  433 423 424
f  436 424 427
f  435 427 426
f  434 426 425
f  413 436 435
f  413 433 436
f  432 423 433
f  433 424 436
f  435 426 434
f  435 436 427
f  429 437 420
f  442 438 437
f  443 439 438
f  444 440 439
f  429 442 437
f  442 443 438
f  443 444 439
f  445 441 440
f  446 425 441
f  444 445 440
f  445 446 441
f  446 434 425
f  448 422 447
f  448 447 432
f  456 450 449
f  457 450 456
f  456 524 458
f  457 456 458
f  459 455 452
f  457 452 450
f  460 451 453
f  460 453 454
f  462 475 455
f  457 459 452
f  458 451 460
f  457 460 459
f  457 458 460
f  459 460 462
f  459 462 455
f  460 454 461
f  462 476 475
f  462 460 461
f  462 461 476
f  461 597 476
f  469 464 463
f  469 470 464
f  469 463 472
f  469 471 470
f  470 465 464
f  470 471 465
f  472 463 466
f  474 466 468
f  469 472 471
f  472 474 473
f  472 466 474
f  473 468 467
f  484 665 477
f  473 474 468
f  471 472 473
f  484 485 670
f  476 580 475
f  485 477 478
f  486 481 479
f  484 477 485
f  486 488 481
f  485 478 675
f  622 479 616
f  486 479 622
f  486 489 488
f  486 622 489
f  490 622 623
f  488 482 481
f  490 617 483
f  488 489 482
f  490 623 617
f  489 622 490
f  520 449 491
f  522 491 493
f  521 494 492
f  524 492 495
f  458 495 451
f  523 496 494
f  526 493 497
f  525 498 496
f  527 499 498
f  528 501 499
f  529 497 500
f  530 502 501
f  531 508 502
f  456 449 520
f  524 521 492
f  520 491 522
f  521 523 494
f  456 520 524
f  520 521 524
f  520 522 521
f  521 522 523
f  458 524 495
f  522 493 526
f  523 525 496
f  525 527 498
f  526 497 529
f  527 528 499
f  522 525 523
f  522 526 525
f  525 526 527
f  526 529 528
f  526 528 527
f  528 529 530
f  528 530 501
f  530 531 502
f  531 537 508
f  529 537 530
f  530 537 531
f  597 454 578
f  533 503 504
f  532 587 503
f  461 454 597
f  532 503 533
f  532 533 606
f  534 506 505
f  535 507 506
f  537 500 508
f  536 512 507
f  539 505 510
f  538 511 509
f  540 510 511
f  541 509 513
f  534 535 506
f  535 536 507
f  534 505 539
f  534 536 535
f  534 538 536
f  529 500 537
f  538 540 511
f  539 510 540
f  534 539 538
f  538 539 540
f  538 509 541
f  536 538 541
f  536 541 542
f  610 591 512
f  544 513 516
f  542 515 514
f  545 516 517
f  543 518 515
f  546 519 518
f  611 514 592
f  536 610 512
f  536 542 610
f  541 513 544
f  542 543 515
f  544 516 545
f  543 546 518
f  546 547 519
f  541 544 543
f  541 543 542
f  544 546 543
f  544 545 546
f  545 547 546
f  542 514 611
f  542 611 610
f  563 549 548
f  564 550 549
f  567 548 552
f  566 553 551
f  568 552 553
f  563 564 549
f  563 548 567
f  564 565 550
f  567 552 568
f  566 568 553
f  563 565 564
f  563 567 565
f  565 567 566
f  566 567 568
f  566 551 644
f  565 566 644
f  569 517 554
f  547 556 519
f  570 554 555
f  571 557 556
f  572 558 557
f  574 555 559
f  644 551 632
f  643 631 550
f  545 517 569
f  547 571 556
f  569 554 570
f  545 569 547
f  547 569 571
f  569 570 571
f  571 572 557
f  572 573 558
f  574 559 640
f  570 555 574
f  571 570 572
f  572 570 574
f  572 574 573
f  574 640 573
f  565 643 550
f  565 644 643
f  575 632 560
f  576 560 561
f  644 575 576
f  575 560 576
f  576 561 649
f  645 562 633
f  577 636 562
f  649 561 637
f  645 577 562
f  644 576 577
f  644 632 575
f  644 577 645
f  576 649 577
f  577 648 636
f  577 649 648
f  598 578 579
f  600 579 581
f  599 582 580
f  602 584 583
f  603 581 584
f  601 585 582
f  605 583 586
f  606 586 587
f  607 504 588
f  604 588 585
f  476 599 580
f  597 578 598
f  598 579 600
f  599 601 582
f  476 597 599
f  597 598 599
f  599 598 601
f  598 600 601
f  603 584 602
f  605 602 583
f  600 581 603
f  601 604 585
f  605 586 606
f  532 606 587
f  533 504 607
f  604 607 588
f  600 603 601
f  601 603 604
f  603 602 604
f  605 604 602
f  533 607 606
f  605 606 607
f  605 607 604
f  608 590 589
f  610 589 591
f  609 594 590
f  612 592 593
f  614 593 595
f  615 595 596
f  613 628 594
f  608 609 590
f  608 589 610
f  608 610 609
f  609 610 613
f  611 592 612
f  609 613 594
f  612 593 614
f  615 614 595
f  610 611 613
f  611 612 613
f  612 614 613
f  613 614 640
f  623 616 617
f  622 616 623
f  624 619 618
f  624 625 619
f  624 626 625
f  624 618 657
f  624 657 627
f  625 620 619
f  680 621 678
f  625 626 620
f  627 621 680
f  624 627 626
f  626 627 680
f  626 680 681
f  573 596 558
f  640 559 628
f  641 630 629
f  643 629 631
f  642 633 630
f  615 596 573
f  613 640 628
f  641 642 630
f  615 573 640
f  615 640 614
f  641 629 643
f  642 645 633
f  641 643 642
f  642 643 645
f  644 645 643
f  646 635 634
f  648 634 636
f  647 639 635
f  650 637 638
f  651 638 639
f  646 647 635
f  646 634 648
f  647 651 639
f  649 637 650
f  650 638 651
f  646 648 647
f  647 648 649
f  647 649 651
f  649 650 651
f  657 618 652
f  658 652 653
f  657 652 658
f  657 658 627
f  627 653 621
f  627 658 653
f  659 655 654
f  659 660 655
f  659 654 1251
f  659 661 660
f  660 656 655
f  660 661 656
f  659 1252 661
f  471 668 465
f  668 663 465
f  473 467 670
f  471 473 670
f  485 487 670
f  670 467 665
f  671 480 666
f  471 670 668
f  484 670 665
f  487 671 670
f  667 664 662
f  668 662 663
f  669 666 664
f  667 662 668
f  667 668 669
f  667 669 664
f  668 670 671
f  669 671 666
f  669 668 671
f  487 673 480
f  487 480 671
f  485 675 487
f  675 478 672
f  487 675 676
f  487 676 673
f  489 672 482
f  489 490 675
f  490 483 677
f  677 483 674
f  489 675 672
f  490 676 675
f  490 677 676
f  688 674 682
f  676 683 673
f  677 674 688
f  677 688 689
f  676 689 683
f  676 677 689
f  626 686 620
f  626 681 692
f  693 679 687
f  626 692 686
f  681 679 693
f  692 681 693
f  689 682 683
f  688 682 689
f  690 685 684
f  692 684 686
f  691 718 685
f  690 684 692
f  690 692 691
f  690 691 685
f  692 693 726
f  691 726 718
f  691 692 726
f  705 678 694
f  681 695 679
f  706 696 695
f  708 694 697
f  707 698 696
f  709 700 698
f  710 697 699
f  680 678 705
f  705 694 708
f  680 706 681
f  680 705 706
f  705 708 707
f  681 706 695
f  706 707 696
f  706 705 707
f  708 697 710
f  707 709 698
f  709 711 700
f  707 708 709
f  708 710 709
f  709 710 711
f  711 710 714
f  711 701 700
f  712 702 701
f  713 719 702
f  711 712 701
f  711 714 712
f  712 713 702
f  712 715 713
f  713 715 728
f  714 699 703
f  661 722 656
f  710 699 714
f  661 1252 730
f  715 703 704
f  714 703 715
f  714 715 712
f  728 715 704
f  661 730 722
f  724 687 716
f  725 716 717
f  726 720 718
f  727 717 719
f  693 687 724
f  724 716 725
f  693 724 726
f  724 725 726
f  725 717 727
f  727 719 713
f  726 728 720
f  726 725 728
f  725 727 728
f  727 713 728
f  728 704 720
f  729 723 721
f  730 721 722
f  731 1382 723
f  729 721 730
f  729 730 731
f  731 730 1386
f  729 731 723
f  744 733 734
f  743 733 744
f  745 110 735
f  118 753 111
f  743 735 733
f  746 757 736
f  745 735 743
f  117 745 118
f  118 745 766
f  745 746 766
f  744 734 771
f  745 743 746
f  743 744 771
f  743 771 746
f  767 746 736
f  747 738 737
f  748 739 738
f  751 737 741
f  750 742 740
f  752 741 742
f  747 748 738
f  748 749 739
f  747 749 748
f  747 737 751
f  751 741 752
f  750 752 742
f  747 751 749
f  749 751 750
f  750 751 752
f  771 734 758
f  749 764 739
f  776 740 763
f  750 740 776
f  749 750 776
f  749 777 764
f  776 763 788
f  749 776 777
f  767 736 754
f  766 754 753
f  768 756 755
f  770 755 757
f  769 761 756
f  118 766 753
f  766 746 767
f  766 767 754
f  746 770 757
f  746 771 770
f  768 769 756
f  768 755 770
f  768 770 769
f  772 758 759
f  774 759 761
f  773 762 760
f  777 760 764
f  775 765 762
f  771 758 772
f  769 774 761
f  772 759 774
f  773 775 762
f  773 760 777
f  769 770 771
f  769 771 774
f  771 772 774
f  773 777 775
f  775 778 765
f  775 777 778
f  777 776 778
f  789 779 780
f  790 782 781
f  788 779 789
f  790 791 782
f  788 763 779
f  792 799 783
f  813 780 800
f  776 788 789
f  776 789 792
f  778 792 783
f  789 780 813
f  789 813 792
f  791 784 782
f  795 781 786
f  794 787 785
f  796 786 787
f  791 793 784
f  790 781 795
f  795 786 796
f  794 796 787
f  790 793 791
f  790 795 793
f  793 795 794
f  794 795 796
f  793 806 784
f  818 785 805
f  835 805 823
f  794 785 818
f  793 794 818
f  793 819 806
f  793 818 819
f  835 836 818
f  841 818 836
f  835 818 805
f  841 829 820
f  778 783 765
f  810 798 797
f  812 797 799
f  811 803 798
f  814 800 801
f  816 801 803
f  815 804 802
f  776 792 778
f  810 811 798
f  810 797 812
f  810 812 811
f  792 812 799
f  792 813 812
f  811 816 803
f  813 800 814
f  814 801 816
f  815 817 804
f  811 812 813
f  811 813 816
f  813 814 816
f  819 802 806
f  817 807 804
f  820 829 807
f  821 809 808
f  819 815 802
f  817 820 807
f  819 817 815
f  819 820 817
f  819 818 820
f  841 820 818
f  821 822 809
f  836 823 824
f  837 826 825
f  838 827 826
f  842 825 830
f  840 831 828
f  835 823 836
f  837 838 826
f  838 839 827
f  837 825 842
f  837 839 838
f  837 842 839
f  839 842 840
f  841 847 829
f  861 824 848
f  839 854 827
f  862 828 849
f  836 824 861
f  841 836 861
f  840 828 862
f  839 840 862
f  839 867 854
f  839 862 867
f  843 830 831
f  845 832 833
f  842 830 843
f  840 843 831
f  840 842 843
f  844 832 845
f  844 849 832
f  846 858 834
f  872 833 859
f  844 862 849
f  845 833 872
f  844 845 862
f  846 862 845
f  846 845 872
f  846 834 868
f  860 808 847
f  822 852 809
f  863 848 850
f  865 850 852
f  864 853 851
f  867 851 854
f  866 855 853
f  841 860 847
f  841 861 860
f  860 821 808
f  861 848 863
f  822 865 852
f  860 822 821
f  860 861 822
f  822 861 865
f  861 863 865
f  863 850 865
f  864 866 853
f  867 864 851
f  866 868 855
f  867 866 864
f  867 868 866
f  867 862 868
f  868 834 855
f  869 857 856
f  871 856 858
f  870 874 857
f  846 868 862
f  846 871 858
f  846 872 871
f  869 870 857
f  871 869 856
f  872 859 875
f  870 876 874
f  871 870 869
f  871 872 870
f  870 872 876
f  875 859 873
f  876 873 874
f  875 873 876
f  872 875 876
f  893 878 877
f  894 879 878
f  897 877 881
f  895 911 879
f  898 881 882
f  896 882 880
f  899 884 883
f  900 885 884
f  893 894 878
f  894 895 879
f  893 877 897
f  893 895 894
f  893 897 895
f  895 897 896
f  896 880 928
f  895 896 927
f  896 898 882
f  897 881 898
f  899 900 884
f  900 901 885
f  896 897 898
f  899 901 900
f  903 883 887
f  904 887 888
f  902 888 886
f  901 917 885
f  905 890 889
f  906 891 890
f  943 889 941
f  907 923 891
f  908 892 924
f  899 883 903
f  902 904 888
f  903 887 904
f  899 903 901
f  901 903 902
f  902 903 904
f  902 886 934
f  901 902 933
f  905 906 890
f  906 907 891
f  905 889 943
f  905 907 906
f  905 943 907
f  907 943 908
f  907 908 939
f  928 880 912
f  895 927 911
f  896 928 927
f  925 910 909
f  927 909 911
f  926 914 910
f  929 912 913
f  930 913 914
f  931 916 915
f  933 915 917
f  925 926 910
f  925 909 927
f  926 930 914
f  925 927 926
f  926 927 928
f  926 928 930
f  928 912 929
f  929 913 930
f  931 932 916
f  931 915 933
f  928 929 930
f  931 933 932
f  934 886 918
f  901 933 917
f  902 934 933
f  907 939 923
f  908 924 940
f  939 908 940
f  932 920 916
f  935 918 919
f  936 919 920
f  937 922 921
f  939 921 923
f  938 946 922
f  932 936 920
f  934 918 935
f  935 919 936
f  932 933 934
f  932 934 936
f  934 935 936
f  937 938 922
f  937 921 939
f  938 948 946
f  937 939 938
f  938 939 940
f  938 940 948
f  944 941 942
f  908 942 892
f  908 944 942
f  943 941 944
f  908 943 944
f  947 924 945
f  948 945 946
f  940 924 947
f  947 945 948
f  940 947 948
f  965 949 950
f  967 950 952
f  1010 951 980
f  966 953 951
f  968 954 953
f  965 964 949
f  965 1010 964
f  965 950 967
f  1010 966 951
f  967 952 970
f  966 968 953
f  968 969 954
f  965 966 1010
f  965 967 966
f  967 970 969
f  967 968 966
f  967 969 968
f  970 952 955
f  969 956 954
f  971 957 956
f  972 959 957
f  973 955 958
f  975 961 960
f  976 962 961
f  1046 960 1038
f  970 955 973
f  969 971 956
f  971 972 957
f  972 974 959
f  973 958 1024
f  970 971 969
f  970 972 971
f  970 973 972
f  972 973 974
f  975 976 961
f  976 977 962
f  975 960 1046
f  975 977 976
f  975 978 977
f  975 1046 978
f  964 979 949
f  1009 982 979
f  1011 980 981
f  1012 984 982
f  1013 981 983
f  964 1009 979
f  1010 980 1011
f  1011 981 1013
f  964 1010 1011
f  964 1011 1009
f  1009 1011 1013
f  1009 1012 982
f  1013 983 1015
f  1009 1013 1012
f  1012 1013 1014
f  1014 987 984
f  1015 983 985
f  1016 985 986
f  1017 988 987
f  1019 986 989
f  1018 992 988
f  1020 989 990
f  1021 990 991
f  1022 1003 992
f  1012 1014 984
f  1014 1017 987
f  1015 985 1016
f  1013 1015 1014
f  1014 1015 1017
f  1015 1016 1017
f  1017 1018 988
f  1017 1016 1018
f  1016 986 1019
f  1019 989 1020
f  1018 1022 992
f  1020 990 1021
f  1016 1019 1018
f  1018 1019 1022
f  1019 1020 1022
f  1020 1021 1022
f  1021 1032 1022
f  974 993 959
f  1024 958 994
f  1023 994 993
f  977 995 962
f  978 963 996
f  974 1023 993
f  1023 1024 994
f  974 973 1024
f  974 1024 1023
f  978 996 1025
f  977 978 1025
f  977 1025 1026
f  977 1036 995
f  1026 997 1037
f  977 1026 1036
f  1027 1002 998
f  1028 998 999
f  1029 991 1000
f  1031 1001 1002
f  1030 1000 1001
f  1032 1004 1003
f  1033 999 1004
f  1036 1007 995
f  1037 997 1008
f  1034 1006 1005
f  1036 1005 1007
f  1035 1066 1006
f  1027 998 1028
f  1027 1031 1002
f  1028 999 1033
f  1027 1028 1031
f  1021 991 1029
f  1029 1000 1030
f  1030 1001 1031
f  1022 1032 1003
f  1033 1004 1032
f  1021 1029 1032
f  1029 1030 1032
f  1030 1033 1032
f  1028 1033 1031
f  1030 1031 1033
f  1036 1026 1037
f  1034 1005 1036
f  1034 1035 1006
f  1037 1008 1087
f  1035 1089 1066
f  1034 1036 1035
f  1036 1037 1089
f  1036 1089 1035
f  978 1039 963
f  1047 1038 1039
f  1048 1041 1040
f  1049 1042 1041
f  1046 1038 1047
f  978 1047 1039
f  1046 1047 978
f  1048 1040 1052
f  1048 1049 1041
f  1049 1050 1042
f  1048 1050 1049
f  1052 1040 1044
f  1051 1045 1043
f  1053 1044 1045
f  1051 1053 1045
f  1052 1044 1053
f  1048 1052 1050
f  1050 1052 1051
f  1051 1052 1053
f  1078 996 1055
f  1026 1054 997
f  1077 1056 1054
f  1080 1055 1057
f  1079 1058 1056
f  1083 1057 1060
f  1081 1059 1058
f  1084 1060 1061
f  1025 996 1078
f  1026 1077 1054
f  1078 1055 1080
f  1077 1079 1056
f  1080 1057 1083
f  1079 1081 1058
f  1081 1082 1059
f  1025 1077 1026
f  1025 1078 1077
f  1078 1080 1079
f  1078 1079 1077
f  1079 1080 1081
f  1080 1083 1081
f  1081 1083 1082
f  1050 1094 1042
f  1083 1060 1084
f  1084 1061 1091
f  1083 1084 1082
f  1082 1062 1059
f  1085 1063 1062
f  1086 1067 1063
f  1087 1008 1064
f  1088 1064 1065
f  1090 1065 1067
f  1089 1069 1066
f  1091 1061 1068
f  1092 1068 1069
f  1094 1071 1042
f  1093 1072 1070
f  1094 1070 1071
f  1095 1074 1072
f  1082 1085 1062
f  1085 1086 1063
f  1090 1067 1086
f  1082 1084 1085
f  1087 1064 1088
f  1090 1088 1065
f  1092 1069 1089
f  1037 1087 1089
f  1087 1088 1089
f  1090 1092 1088
f  1088 1092 1089
f  1090 1086 1092
f  1092 1091 1068
f  1085 1084 1091
f  1085 1091 1086
f  1086 1091 1092
f  1093 1070 1094
f  1093 1095 1072
f  1093 1094 1095
f  1102 1073 1100
f  1051 1043 1096
f  1050 1051 1096
f  1102 1096 1073
f  1102 1103 1096
f  1109 1104 1097
f  1103 1109 1096
f  1096 1043 1073
f  1097 1104 1074
f  1098 1076 1075
f  1110 1075 1105
f  1099 1108 1076
f  1050 1096 1094
f  1096 1109 1097
f  1095 1097 1074
f  1094 1096 1097
f  1094 1097 1095
f  1098 1075 1110
f  1098 1099 1076
f  1098 1110 1099
f  1110 1111 1099
f  1103 1100 1101
f  1102 1100 1103
f  1109 1105 1104
f  1103 1101 1111
f  1103 1111 1109
f  1111 1101 1106
f  1112 1106 1107
f  1113 1107 1108
f  1109 1110 1105
f  1109 1111 1110
f  1111 1106 1112
f  1099 1113 1108
f  1112 1107 1113
f  1111 1113 1099
f  1111 1112 1113
f  1148 1117 1120
f  1145 1116 1117
f  1147 1118 1119
f  1150 1120 1122
f  1149 1123 1121
f  1151 1124 1123
f  1146 1121 1118
f  1145 1117 1148
f  1145 1148 1146
f  1144 1116 1145
f  1147 1146 1118
f  1145 1146 1147
f  1144 1145 1147
f  1146 1149 1121
f  1148 1120 1150
f  1149 1151 1123
f  1150 1122 1157
f  1151 1152 1124
f  1148 1149 1146
f  1148 1150 1149
f  1149 1150 1151
f  1150 1152 1151
f  1150 1157 1152
f  1144 1125 1116
f  1153 1127 1125
f  1154 1119 1126
f  1155 1210 1127
f  1156 1126 1128
f  1227 1128 1211
f  1144 1153 1125
f  1147 1119 1154
f  1154 1126 1156
f  1144 1154 1153
f  1153 1154 1155
f  1144 1147 1154
f  1153 1155 1127
f  1155 1226 1210
f  1156 1128 1227
f  1155 1154 1156
f  1155 1156 1226
f  1156 1227 1226
f  1157 1122 1129
f  1152 1130 1124
f  1158 1131 1130
f  1159 1133 1131
f  1160 1129 1132
f  1161 1134 1133
f  1163 1132 1135
f  1162 1135 1134
f  1164 1137 1136
f  1165 1138 1137
f  1191 1136 1172
f  1170 1139 1142
f  1152 1158 1130
f  1157 1129 1160
f  1158 1159 1131
f  1152 1157 1158
f  1157 1160 1159
f  1157 1159 1158
f  1159 1160 1161
f  1159 1161 1133
f  1160 1132 1163
f  1161 1162 1134
f  1162 1163 1135
f  1160 1163 1161
f  1161 1163 1162
f  1164 1165 1137
f  1165 1166 1138
f  1164 1136 1191
f  1164 1166 1165
f  1164 1167 1166
f  1164 1191 1167
f  1167 1139 1170
f  1166 1167 1170
f  1166 1170 1171
f  1169 1140 1141
f  1168 1218 1140
f  1166 1224 1138
f  1241 1143 1225
f  1168 1140 1169
f  1168 1169 1234
f  1166 1171 1240
f  1166 1240 1224
f  1171 1143 1241
f  1240 1171 1241
f  1167 1173 1139
f  1192 1172 1173
f  1193 1175 1174
f  1194 1176 1175
f  1167 1192 1173
f  1191 1172 1192
f  1167 1191 1192
f  1193 1194 1175
f  1193 1174 1208
f  1194 1195 1176
f  1193 1195 1194
f  1197 1142 1178
f  1171 1177 1143
f  1196 1179 1177
f  1199 1178 1180
f  1204 1180 1185
f  1198 1181 1179
f  1200 1182 1181
f  1201 1183 1182
f  1202 1184 1183
f  1205 1185 1186
f  1206 1186 1187
f  1277 1265 1176
f  1170 1142 1197
f  1171 1196 1177
f  1197 1178 1199
f  1196 1198 1179
f  1199 1180 1204
f  1198 1200 1181
f  1200 1201 1182
f  1170 1197 1196
f  1170 1196 1171
f  1197 1198 1196
f  1197 1199 1198
f  1199 1200 1198
f  1199 1204 1200
f  1200 1204 1201
f  1201 1202 1183
f  1202 1203 1184
f  1201 1205 1202
f  1204 1185 1205
f  1195 1277 1176
f  1204 1205 1201
f  1205 1186 1206
f  1276 1206 1187
f  1202 1205 1206
f  1202 1206 1203
f  1203 1206 1276
f  1208 1174 1189
f  1207 1190 1188
f  1209 1189 1190
f  1319 1268 1316
f  1207 1209 1190
f  1208 1189 1209
f  1193 1208 1195
f  1195 1208 1207
f  1207 1208 1209
f  1207 1188 1280
f  1195 1207 1280
f  1280 1319 1320
f  1280 1188 1268
f  1281 1318 1269
f  1280 1268 1319
f  1195 1280 1277
f  1280 1321 1281
f  1321 1318 1281
f  1280 1320 1321
f  1226 1213 1210
f  1228 1211 1212
f  1229 1215 1213
f  1230 1212 1214
f  1232 1214 1216
f  1231 1220 1215
f  1226 1229 1213
f  1226 1227 1229
f  1227 1211 1228
f  1228 1212 1230
f  1229 1231 1215
f  1230 1214 1232
f  1227 1228 1229
f  1229 1228 1231
f  1228 1230 1231
f  1230 1232 1231
f  1231 1232 1236
f  1233 1216 1217
f  1235 1217 1219
f  1234 1219 1218
f  1236 1221 1220
f  1237 1141 1221
f  1238 1223 1222
f  1240 1222 1224
f  1239 1262 1223
f  1232 1216 1233
f  1235 1233 1217
f  1235 1219 1234
f  1231 1236 1220
f  1168 1234 1218
f  1169 1141 1237
f  1236 1237 1221
f  1232 1233 1236
f  1235 1236 1233
f  1235 1237 1236
f  1169 1237 1234
f  1235 1234 1237
f  1238 1239 1223
f  1238 1222 1240
f  1241 1225 1272
f  1239 1274 1262
f  1238 1240 1239
f  1239 1240 1274
f  1240 1241 1274
f  1251 654 1242
f  1253 1242 1244
f  659 1251 1252
f  1252 1251 1253
f  1251 1242 1253
f  1252 1244 1243
f  1252 1253 1244
f  1255 1246 1300
f  1255 1300 1259
f  1256 1245 1247
f  1257 1249 1248
f  1255 1247 1246
f  1258 1250 1249
f  1259 1286 1250
f  1255 1256 1247
f  1255 1258 1256
f  1256 1254 1245
f  1258 1249 1257
f  1256 1257 1254
f  1256 1258 1257
f  1259 1250 1258
f  1255 1259 1258
f  1272 1225 1260
f  1273 1260 1261
f  1275 1261 1263
f  1203 1263 1184
f  1274 1264 1262
f  1276 1187 1264
f  1278 1267 1266
f  1277 1266 1265
f  1279 1269 1267
f  1272 1260 1273
f  1275 1273 1261
f  1275 1263 1203
f  1274 1276 1264
f  1241 1272 1274
f  1272 1273 1274
f  1275 1276 1273
f  1275 1203 1276
f  1274 1273 1276
f  1278 1279 1267
f  1278 1266 1277
f  1278 1277 1279
f  1282 1271 1270
f  1326 1270 1322
f  1283 1325 1271
f  1279 1281 1269
f  1279 1277 1281
f  1280 1281 1277
f  1282 1283 1271
f  1282 1270 1326
f  1282 1326 1283
f  1283 1326 1327
f  1300 1246 1284
f  1301 1284 1285
f  1300 1284 1301
f  1259 1300 1302
f  1300 1303 1302
f  1300 1301 1303
f  1301 1285 1306
f  1303 1301 1304
f  1302 1287 1286
f  1303 1288 1287
f  1304 1289 1288
f  1305 1293 1289
f  1259 1302 1286
f  1302 1303 1287
f  1303 1304 1288
f  1304 1305 1289
f  1305 1309 1293
f  1301 1305 1304
f  1301 1306 1305
f  1306 1285 1290
f  1308 1291 1292
f  1307 1291 1308
f  1307 1308 1313
f  1309 1294 1293
f  1311 1290 1295
f  1310 1295 1294
f  1314 1298 1291
f  1312 1297 1296
f  1313 1332 1297
f  1314 1299 1298
f  1315 1296 1299
f  1306 1290 1311
f  1306 1309 1305
f  1306 1311 1309
f  1309 1310 1294
f  1310 1311 1295
f  1309 1311 1310
f  1307 1314 1291
f  1312 1313 1297
f  1312 1296 1315
f  1307 1312 1314
f  1307 1313 1312
f  1308 1348 1313
f  1314 1315 1299
f  1312 1315 1314
f  1320 1316 1317
f  1319 1316 1320
f  1320 1317 1327
f  1321 1322 1318
f  1327 1317 1323
f  1320 1327 1321
f  1321 1326 1322
f  1321 1327 1326
f  1328 1323 1324
f  1329 1324 1325
f  1283 1329 1325
f  1327 1323 1328
f  1328 1324 1329
f  1283 1327 1329
f  1327 1328 1329
f  1346 1292 1330
f  1347 1330 1331
f  1308 1292 1346
f  1346 1330 1347
f  1308 1349 1348
f  1308 1346 1349
f  1346 1350 1349
f  1346 1351 1350
f  1347 1331 1356
f  1346 1347 1351
f  1348 1333 1332
f  1349 1334 1333
f  1350 1335 1334
f  1351 1336 1335
f  1356 1331 1340
f  1352 1337 1336
f  1353 1338 1337
f  1313 1348 1332
f  1348 1349 1333
f  1349 1350 1334
f  1350 1351 1335
f  1351 1352 1336
f  1352 1353 1337
f  1347 1352 1351
f  1347 1356 1352
f  1352 1356 1353
f  1353 1354 1338
f  1355 1343 1339
f  1357 1340 1341
f  1358 1341 1342
f  1359 1345 1343
f  1356 1340 1357
f  1353 1356 1357
f  1357 1341 1358
f  1358 1342 1459
f  1353 1357 1354
f  1357 1358 1354
f  1355 1359 1343
f  1360 1344 1366
f  1355 1360 1359
f  1359 1360 1361
f  1359 1361 1345
f  1360 1366 1361
f  1368 1339 1364
f  1355 1339 1368
f  1366 1344 1362
f  1360 1365 1344
f  1367 1362 1363
f  1361 1490 1345
f  1355 1368 1360
f  1366 1362 1367
f  1367 1363 1504
f  1361 1366 1367
f  1361 1367 1503
f  1360 1369 1365
f  1360 1368 1369
f  1369 1364 1365
f  1368 1364 1369
f  1254 1370 1245
f  1375 1371 1370
f  1252 1243 1386
f  1254 1375 1370
f  1386 1243 1380
f  1252 1386 730
f  1375 1376 1371
f  1377 1248 1372
f  1257 1248 1377
f  1254 1257 1377
f  1254 1377 1375
f  1377 1372 1378
f  1375 1377 1376
f  1378 1372 1373
f  1376 1383 1371
f  1379 1373 1374
f  1377 1378 1376
f  1376 1389 1383
f  1378 1373 1379
f  1376 1378 1389
f  1378 1379 1389
f  1387 1380 1381
f  1388 1381 1382
f  1386 1380 1387
f  1386 1387 1388
f  731 1388 1382
f  731 1386 1388
f  1387 1381 1388
f  1389 1385 1383
f  1390 1374 1384
f  1391 1402 1385
f  1389 1379 1391
f  1379 1374 1390
f  1389 1391 1385
f  1390 1384 1412
f  1379 1390 1391
f  1391 1390 1414
f  1397 1392 1393
f  1396 1404 1392
f  1399 1394 1395
f  1396 1392 1397
f  1397 1393 1419
f  1396 1397 1416
f  1398 1394 1399
f  1399 1395 1420
f  1398 1399 1420
f  1412 1384 1400
f  1413 1400 1401
f  1414 1406 1402
f  1415 1401 1403
f  1416 1405 1404
f  1417 1403 1405
f  1418 1407 1406
f  1412 1400 1413
f  1390 1412 1414
f  1412 1413 1414
f  1391 1414 1402
f  1413 1418 1414
f  1413 1401 1415
f  1415 1403 1417
f  1416 1417 1405
f  1396 1416 1404
f  1413 1415 1418
f  1415 1417 1418
f  1416 1419 1417
f  1418 1417 1419
f  1414 1418 1406
f  1418 1419 1407
f  1419 1393 1407
f  1398 1410 1394
f  1420 1395 1408
f  1421 1408 1409
f  1422 1411 1410
f  1423 1469 1411
f  1397 1419 1416
f  1398 1422 1410
f  1420 1408 1421
f  1398 1420 1422
f  1422 1420 1423
f  1423 1420 1421
f  1422 1423 1411
f  1423 1481 1469
f  1423 1421 1481
f  1445 1425 1424
f  1446 1427 1425
f  1447 1424 1426
f  1448 1434 1427
f  1354 1428 1338
f  1449 1429 1428
f  1451 1426 1430
f  1450 1430 1429
f  1452 1432 1431
f  1453 1439 1432
f  1454 1431 1433
f  1445 1424 1447
f  1445 1446 1425
f  1447 1426 1451
f  1446 1448 1427
f  1448 1455 1434
f  1445 1447 1446
f  1446 1447 1448
f  1447 1455 1448
f  1449 1428 1354
f  1449 1450 1429
f  1449 1460 1450
f  1450 1451 1430
f  1452 1431 1454
f  1452 1453 1432
f  1454 1433 1461
f  1447 1451 1452
f  1451 1453 1452
f  1447 1452 1455
f  1452 1454 1455
f  1450 1453 1451
f  1450 1460 1453
f  1455 1435 1434
f  1456 1436 1435
f  1461 1433 1440
f  1457 1437 1436
f  1458 1474 1437
f  1455 1456 1435
f  1456 1457 1436
f  1455 1454 1456
f  1454 1461 1456
f  1456 1461 1457
f  1457 1461 1462
f  1457 1462 1458
f  1457 1458 1437
f  1458 1486 1474
f  1458 1463 1486
f  1460 1438 1439
f  1459 1342 1438
f  1460 1459 1438
f  1449 1354 1459
f  1354 1358 1459
f  1449 1459 1460
f  1460 1439 1453
f  1462 1440 1441
f  1463 1441 1442
f  1465 1443 1444
f  1461 1440 1462
f  1462 1441 1463
f  1463 1442 1487
f  1462 1463 1458
f  1464 1443 1465
f  1465 1444 1488
f  1464 1465 1488
f  1478 1409 1466
f  1479 1466 1467
f  1480 1467 1468
f  1485 1468 1473
f  1481 1470 1469
f  1482 1471 1470
f  1486 1472 1474
f  1484 1473 1472
f  1483 1475 1471
f  1421 1409 1478
f  1478 1466 1479
f  1479 1467 1480
f  1480 1468 1485
f  1421 1478 1481
f  1478 1479 1482
f  1479 1480 1483
f  1480 1485 1483
f  1481 1482 1470
f  1482 1483 1471
f  1478 1482 1481
f  1479 1483 1482
f  1486 1484 1472
f  1485 1473 1484
f  1483 1487 1475
f  1485 1487 1483
f  1485 1484 1487
f  1486 1487 1484
f  1486 1463 1487
f  1487 1442 1475
f  1464 1477 1443
f  1488 1444 1476
f  1527 1476 1516
f  1489 1520 1477
f  1464 1489 1477
f  1488 1476 1527
f  1464 1488 1489
f  1489 1488 1527
f  1489 1527 1531
f  1489 1531 1520
f  1503 1492 1490
f  1504 1363 1491
f  1507 1491 1494
f  1505 1493 1492
f  1506 1496 1493
f  1508 1494 1495
f  1361 1503 1490
f  1503 1505 1492
f  1367 1504 1503
f  1503 1504 1505
f  1504 1491 1507
f  1505 1504 1507
f  1505 1506 1493
f  1506 1509 1496
f  1507 1494 1508
f  1505 1507 1506
f  1507 1508 1506
f  1506 1508 1509
f  1509 1508 1513
f  1509 1497 1496
f  1510 1498 1497
f  1511 1499 1498
f  1509 1510 1497
f  1509 1513 1510
f  1510 1514 1511
f  1510 1511 1498
f  1511 1512 1499
f  1511 1537 1512
f  1513 1495 1500
f  1508 1495 1513
f  1514 1500 1501
f  1515 1501 1502
f  1537 1502 1526
f  1513 1500 1514
f  1514 1501 1515
f  1510 1513 1514
f  1515 1502 1537
f  1514 1515 1511
f  1511 1515 1537
f  1528 1516 1517
f  1529 1517 1518
f  1530 1518 1519
f  1534 1519 1523
f  1531 1521 1520
f  1532 1525 1521
f  1533 1523 1522
f  1512 1522 1499
f  1536 1524 1525
f  1527 1516 1528
f  1528 1517 1529
f  1529 1518 1530
f  1530 1519 1534
f  1527 1528 1531
f  1531 1528 1529
f  1529 1530 1532
f  1530 1534 1532
f  1531 1532 1521
f  1531 1529 1532
f  1512 1533 1522
f  1534 1523 1533
f  1536 1535 1524
f  1534 1533 1536
f  1512 1535 1533
f  1512 1537 1535
f  1533 1535 1536
f  1532 1536 1525
f  1534 1536 1532
f  1535 1526 1524
f  1537 1526 1535
