# OpenSCAD obj exporter
v 0 0 0
v 0 0 0.9
v 1.7409 0.714286 0.9
v 1.7409 0.727121 0.9
v 1.79249 0.733661 0.9
v 1.83923 0.733661 0.9
v 1.79249 0.840707 0.9
v 1.83923 0.842161 0.9
v 1.82882 0.870011 0.9
v 1.64185 1.02622 0.9
v 1.64185 1.03906 0.9
v 1.67842 1.01993 0.9
v 1.73557 1.01993 0.9
v 1.77917 1.02622 0.9
v 1.77917 1.03906 0.9
v 1.89082 0.714286 0.9
v 1.89082 0.727121 0.9
v 2.09912 0.714286 0.9
v 2.09912 0.727121 0.9
v 2.15071 0.733661 0.9
v 2.19745 0.733661 0.9
v 2.24903 0.714286 0.9
v 2.24903 0.727121 0.9
v 2.15071 0.840707 0.9
v 2.19745 0.842161 0.9
v 2.18703 0.870011 0.9
v 1.87628 1.02622 0.9
v 1.87628 1.03906 0.9
v 1.91746 1.01993 0.9
v 1.94628 1.01993 0.9
v 1.98188 1.02622 0.9
v 1.98188 1.03906 0.9
v 2.00007 1.02622 0.9
v 2.00007 1.03906 0.9
v 2.03663 1.01993 0.9
v 2.09379 1.01993 0.9
v 2.13738 1.02622 0.9
v 2.13738 1.03906 0.9
v 2.2345 1.02622 0.9
v 2.2345 1.03906 0.9
v 1.7409 0.714286 1.1
v 1.7409 0.727121 1.1
v 1.79249 0.733661 1.1
v 1.83923 0.733661 1.1
v 1.79249 0.840707 1.1
v 1.83923 0.842161 1.1
v 1.82882 0.870011 1.1
v 1.64185 1.02622 1.1
v 1.64185 1.03906 1.1
v 1.67842 1.01993 1.1
v 1.73557 1.01993 1.1
v 1.77917 1.02622 1.1
v 1.77917 1.03906 1.1
v 1.89082 0.714286 1.1
v 1.89082 0.727121 1.1
v 2.09912 0.714286 1.1
v 2.09912 0.727121 1.1
v 2.15071 0.733661 1.1
v 2.19745 0.733661 1.1
v 2.24903 0.714286 1.1
v 2.24903 0.727121 1.1
v 2.15071 0.840707 1.1
v 2.19745 0.842161 1.1
v 2.18703 0.870011 1.1
v 1.87628 1.02622 1.1
v 1.87628 1.03906 1.1
v 1.91746 1.01993 1.1
v 1.94628 1.01993 1.1
v 1.98188 1.02622 1.1
v 1.98188 1.03906 1.1
v 2.00007 1.02622 1.1
v 2.00007 1.03906 1.1
v 2.03663 1.01993 1.1
v 2.09379 1.01993 1.1
v 2.13738 1.02622 1.1
v 2.13738 1.03906 1.1
v 2.2345 1.02622 1.1
v 2.2345 1.03906 1.1
v 2.48906 0.706779 0.9
v 2.5019 0.706779 0.9
v 2.50674 0.791061 0.9
v 2.58836 0.930561 0.9
v 2.27567 1.01993 0.9
v 2.30449 1.01993 0.9
v 2.34009 1.02622 0.9
v 2.34009 1.03906 0.9
v 2.3532 1.02622 0.9
v 2.3532 1.03906 0.9
v 2.38153 1.01993 0.9
v 2.42949 1.01993 0.9
v 2.4772 1.02622 0.9
v 2.4772 1.03906 0.9
v 2.59417 1.01629 0.9
v 2.60507 1.01629 0.9
v 2.67264 0.706779 0.9
v 2.68548 0.706779 0.9
v 2.68935 0.791061 0.9
v 2.95724 0.706779 0.9
v 2.97008 0.706779 0.9
v 2.97492 0.791061 0.9
v 2.71236 1.02622 0.9
v 2.71236 1.03906 0.9
v 2.76298 1.01993 0.9
v 2.79156 1.01993 0.9
v 2.81989 1.02622 0.9
v 2.82138 1.02622 0.9
v 2.81989 1.03906 0.9
v 2.82138 1.03906 0.9
v 2.84971 1.01993 0.9
v 2.89767 1.01993 0.9
v 2.94538 1.02622 0.9
v 2.94538 1.03906 0.9
v 2.48906 0.706779 1.1
v 2.5019 0.706779 1.1
v 2.50674 0.791061 1.1
v 2.58836 0.930561 1.1
v 2.27567 1.01993 1.1
v 2.30449 1.01993 1.1
v 2.34009 1.02622 1.1
v 2.34009 1.03906 1.1
v 2.3532 1.02622 1.1
v 2.3532 1.03906 1.1
v 2.38153 1.01993 1.1
v 2.42949 1.01993 1.1
v 2.4772 1.02622 1.1
v 2.4772 1.03906 1.1
v 2.59417 1.01629 1.1
v 2.60507 1.01629 1.1
v 2.67264 0.706779 1.1
v 2.68548 0.706779 1.1
v 2.68935 0.791061 1.1
v 2.95724 0.706779 1.1
v 2.97008 0.706779 1.1
v 2.97492 0.791061 1.1
v 2.71236 1.02622 1.1
v 2.71236 1.03906 1.1
v 2.76298 1.01993 1.1
v 2.79156 1.01993 1.1
v 2.81989 1.02622 1.1
v 2.82138 1.02622 1.1
v 2.81989 1.03906 1.1
v 2.82138 1.03906 1.1
v 2.84971 1.01993 1.1
v 2.89767 1.01993 1.1
v 2.94538 1.02622 1.1
v 2.94538 1.03906 1.1
v 2.09949 2.181 0.9
v 2.15228 2.14876 0.9
v 2.17266 2.16598 0.9
v 2.22252 2.13801 0.9
v 2.223 2.15666 0.9
v 2.24982 2.15833 0.9
v 2.05541 2.30149 0.9
v 2.06643 2.23262 0.9
v 2.13594 2.19396 0.9
v 2.1135 2.23961 0.9
v 2.10603 2.30197 0.9
v 2.066 2.37508 0.9
v 2.11317 2.3687 0.9
v 2.1346 2.41532 0.9
v 2.09779 2.42827 0.9
v 2.15041 2.46052 0.9
v 2.1716 2.44275 0.9
v 2.22542 2.45189 0.9
v 2.24846 2.45047 0.9
v 2.22349 2.47126 0.9
v 2.09949 2.181 1.1
v 2.15228 2.14876 1.1
v 2.17266 2.16598 1.1
v 2.22252 2.13801 1.1
v 2.223 2.15666 1.1
v 2.24982 2.15833 1.1
v 2.05541 2.30149 1.1
v 2.06643 2.23262 1.1
v 2.13594 2.19396 1.1
v 2.1135 2.23961 1.1
v 2.10603 2.30197 1.1
v 2.066 2.37508 1.1
v 2.11317 2.3687 1.1
v 2.1346 2.41532 1.1
v 2.09779 2.42827 1.1
v 2.15041 2.46052 1.1
v 2.1716 2.44275 1.1
v 2.22542 2.45189 1.1
v 2.24846 2.45047 1.1
v 2.22349 2.47126 1.1
v 2.43978 1.42857 0.9
v 2.43978 1.44141 0.9
v 2.4766 1.44795 0.9
v 2.50299 1.44795 0.9
v 2.54659 1.42857 0.9
v 2.54659 1.44141 0.9
v 2.53569 1.54167 0.9
v 2.54295 1.56347 0.9
v 2.59866 1.72114 0.9
v 2.58727 1.75601 0.9
v 2.65218 1.42857 0.9
v 2.65218 1.44141 0.9
v 2.69578 1.44795 0.9
v 2.66356 1.54167 0.9
v 2.74833 1.44795 0.9
v 2.7895 1.42857 0.9
v 2.7895 1.44141 0.9
v 2.8106 1.42857 0.9
v 2.8106 1.44141 0.9
v 2.8491 1.44795 0.9
v 2.89585 1.44795 0.9
v 2.94501 1.42857 0.9
v 2.94501 1.44141 0.9
v 2.65606 1.56347 0.9
v 2.63329 1.75601 0.9
v 2.80745 1.74051 0.9
v 2.80745 1.75335 0.9
v 2.89585 1.57098 0.9
v 2.89585 1.59277 0.9
v 2.93871 1.59277 0.9
v 2.95421 1.57098 0.9
v 2.9758 1.5968 0.9
v 2.8491 1.73421 0.9
v 2.89585 1.73155 0.9
v 2.93726 1.73155 0.9
v 2.94767 1.75335 0.9
v 2.97573 1.72764 0.9
v 2.43978 1.42857 1.1
v 2.43978 1.44141 1.1
v 2.4766 1.44795 1.1
v 2.50299 1.44795 1.1
v 2.54659 1.42857 1.1
v 2.54659 1.44141 1.1
v 2.53569 1.54167 1.1
v 2.54295 1.56347 1.1
v 2.59866 1.72114 1.1
v 2.58727 1.75601 1.1
v 2.65218 1.42857 1.1
v 2.65218 1.44141 1.1
v 2.69578 1.44795 1.1
v 2.66356 1.54167 1.1
v 2.74833 1.44795 1.1
v 2.7895 1.42857 1.1
v 2.7895 1.44141 1.1
v 2.8106 1.42857 1.1
v 2.8106 1.44141 1.1
v 2.8491 1.44795 1.1
v 2.89585 1.44795 1.1
v 2.94501 1.42857 1.1
v 2.94501 1.44141 1.1
v 2.65606 1.56347 1.1
v 2.63329 1.75601 1.1
v 2.80745 1.74051 1.1
v 2.80745 1.75335 1.1
v 2.89585 1.57098 1.1
v 2.89585 1.59277 1.1
v 2.93871 1.59277 1.1
v 2.95421 1.57098 1.1
v 2.9758 1.5968 1.1
v 2.8491 1.73421 1.1
v 2.89585 1.73155 1.1
v 2.93726 1.73155 1.1
v 2.94767 1.75335 1.1
v 2.97573 1.72764 1.1
v 2.28179 2.14183 0.9
v 2.27507 2.16332 0.9
v 2.29699 2.1711 0.9
v 2.31382 2.18112 0.9
v 2.33707 2.15327 0.9
v 2.38335 2.14286 0.9
v 2.38335 2.15569 0.9
v 2.42186 2.16223 0.9
v 2.4686 2.16223 0.9
v 2.52019 2.14286 0.9
v 2.52019 2.15569 0.9
v 2.32278 2.22956 0.9
v 2.33852 2.22956 0.9
v 2.3177 2.38795 0.9
v 2.33368 2.38795 0.9
v 2.27108 2.4462 0.9
v 2.29212 2.43933 0.9
v 2.27598 2.46818 0.9
v 2.31043 2.43009 0.9
v 2.33223 2.45891 0.9
v 2.3802 2.4548 0.9
v 2.3802 2.46763 0.9
v 2.42186 2.4485 0.9
v 2.4686 2.27025 0.9
v 2.4686 2.29205 0.9
v 2.50517 2.27025 0.9
v 2.49379 2.29205 0.9
v 2.52936 2.29671 0.9
v 2.55503 2.27673 0.9
v 2.55421 2.31069 0.9
v 2.56884 2.33522 0.9
v 2.59175 2.29616 0.9
v 2.61437 2.32807 0.9
v 2.4686 2.44583 0.9
v 2.49234 2.44583 0.9
v 2.53006 2.44153 0.9
v 2.50275 2.46763 0.9
v 2.57371 2.37148 0.9
v 2.56905 2.40575 0.9
v 2.62191 2.37197 0.9
v 2.55506 2.42864 0.9
v 2.59212 2.44372 0.9
v 2.65607 2.14286 0.9
v 2.65607 2.15569 0.9
v 2.69773 2.16223 0.9
v 2.72316 2.16223 0.9
v 2.76675 2.14286 0.9
v 2.76675 2.15569 0.9
v 2.92345 2.14286 0.9
v 2.94694 2.14286 0.9
v 2.65607 2.4548 0.9
v 2.65607 2.46763 0.9
v 2.69773 2.4485 0.9
v 2.72316 2.43494 0.9
v 2.7544 2.46763 0.9
v 2.92151 2.22714 0.9
v 2.87791 2.4548 0.9
v 2.87791 2.46763 0.9
v 2.92151 2.4485 0.9
v 2.94694 2.4485 0.9
v 2.9886 2.4548 0.9
v 2.9886 2.46763 0.9
v 2.28179 2.14183 1.1
v 2.27507 2.16332 1.1
v 2.29699 2.1711 1.1
v 2.31382 2.18112 1.1
v 2.33707 2.15327 1.1
v 2.38335 2.14286 1.1
v 2.38335 2.15569 1.1
v 2.42186 2.16223 1.1
v 2.4686 2.16223 1.1
v 2.52019 2.14286 1.1
v 2.52019 2.15569 1.1
v 2.32278 2.22956 1.1
v 2.33852 2.22956 1.1
v 2.3177 2.38795 1.1
v 2.33368 2.38795 1.1
v 2.27108 2.4462 1.1
v 2.29212 2.43933 1.1
v 2.27598 2.46818 1.1
v 2.31043 2.43009 1.1
v 2.33223 2.45891 1.1
v 2.3802 2.4548 1.1
v 2.3802 2.46763 1.1
v 2.42186 2.4485 1.1
v 2.4686 2.27025 1.1
v 2.4686 2.29205 1.1
v 2.50517 2.27025 1.1
v 2.49379 2.29205 1.1
v 2.52936 2.29671 1.1
v 2.55503 2.27673 1.1
v 2.55421 2.31069 1.1
v 2.56884 2.33522 1.1
v 2.59175 2.29616 1.1
v 2.61437 2.32807 1.1
v 2.4686 2.44583 1.1
v 2.49234 2.44583 1.1
v 2.53006 2.44153 1.1
v 2.50275 2.46763 1.1
v 2.57371 2.37148 1.1
v 2.56905 2.40575 1.1
v 2.62191 2.37197 1.1
v 2.55506 2.42864 1.1
v 2.59212 2.44372 1.1
v 2.65607 2.14286 1.1
v 2.65607 2.15569 1.1
v 2.69773 2.16223 1.1
v 2.72316 2.16223 1.1
v 2.76675 2.14286 1.1
v 2.76675 2.15569 1.1
v 2.92345 2.14286 1.1
v 2.94694 2.14286 1.1
v 2.65607 2.4548 1.1
v 2.65607 2.46763 1.1
v 2.69773 2.4485 1.1
v 2.72316 2.43494 1.1
v 2.7544 2.46763 1.1
v 2.92151 2.22714 1.1
v 2.87791 2.4548 1.1
v 2.87791 2.46763 1.1
v 2.92151 2.4485 1.1
v 2.94694 2.4485 1.1
v 2.9886 2.4548 1.1
v 2.9886 2.46763 1.1
v 0 5 0
v 1.37602 3.57143 0.9
v 1.37602 3.59453 0.9
v 1.45101 3.6063 0.9
v 1.49678 3.6063 0.9
v 1.37602 3.57143 1.1
v 1.37602 3.59453 1.1
v 1.45101 3.6063 1.1
v 1.49678 3.6063 1.1
v 0.550451 4.36636 0.9
v 0.59556 4.2979 0.9
v 0.663356 4.25083 0.9
v 0.7464 4.23513 0.9
v 0.550451 4.36636 1.1
v 0.59556 4.2979 1.1
v 0.663356 4.25083 1.1
v 0.7464 4.23513 1.1
v 0 5 0.9
v 0.535414 4.44615 0.9
v 0.550669 4.52809 0.9
v 0.596434 4.59609 0.9
v 0.664449 4.64187 0.9
v 0.7464 4.65713 0.9
v 0.535414 4.44615 1.1
v 0.550669 4.52809 1.1
v 0.596434 4.59609 1.1
v 0.664449 4.64187 1.1
v 0.7464 4.65713 1.1
v 0.829438 4.25083 0.9
v 0.897214 4.2979 0.9
v 0.942343 4.36636 0.9
v 1.37602 4.13292 0.9
v 1.37602 4.15602 0.9
v 1.45101 4.12158 0.9
v 1.49678 4.07407 0.9
v 0.829438 4.25083 1.1
v 0.897214 4.2979 1.1
v 0.942343 4.36636 1.1
v 1.37602 4.13292 1.1
v 1.37602 4.15602 1.1
v 1.45101 4.12158 1.1
v 1.49678 4.07407 1.1
v 0.828345 4.64187 0.9
v 0.89634 4.59609 0.9
v 0.957386 4.44615 0.9
v 0.942124 4.52809 0.9
v 0.828345 4.64187 1.1
v 0.89634 4.59609 1.1
v 0.957386 4.44615 1.1
v 0.942124 4.52809 1.1
v 2.05541 3.01578 0.9
v 2.15228 2.86305 0.9
v 2.09949 2.89529 0.9
v 2.06643 2.9469 0.9
v 2.13594 2.90824 0.9
v 2.1135 2.9539 0.9
v 2.17266 2.88027 0.9
v 2.22252 2.8523 0.9
v 2.223 2.87095 0.9
v 2.24982 2.87261 0.9
v 2.10603 3.01626 0.9
v 2.066 3.08937 0.9
v 2.11317 3.08298 0.9
v 2.05541 3.01578 1.1
v 2.15228 2.86305 1.1
v 2.09949 2.89529 1.1
v 2.06643 2.9469 1.1
v 2.13594 2.90824 1.1
v 2.1135 2.9539 1.1
v 2.17266 2.88027 1.1
v 2.22252 2.8523 1.1
v 2.223 2.87095 1.1
v 2.24982 2.87261 1.1
v 2.10603 3.01626 1.1
v 2.066 3.08937 1.1
v 2.11317 3.08298 1.1
v 1.57525 3.57143 0.9
v 1.57525 3.59453 0.9
v 1.63948 3.73897 0.9
v 1.71082 3.57143 0.9
v 1.72608 3.57143 0.9
v 1.74308 3.71137 0.9
v 2.09779 3.14256 0.9
v 2.1346 3.1296 0.9
v 2.15041 3.1748 0.9
v 2.1716 3.15703 0.9
v 2.22542 3.16618 0.9
v 2.22349 3.18555 0.9
v 2.24846 3.16475 0.9
v 1.88084 3.57143 0.9
v 1.88084 3.59453 0.9
v 1.95931 3.6063 0.9
v 2.04301 3.6063 0.9
v 2.11799 3.57143 0.9
v 2.11799 3.59453 0.9
v 1.57525 3.57143 1.1
v 1.57525 3.59453 1.1
v 1.71082 3.57143 1.1
v 1.72608 3.57143 1.1
v 1.74308 3.71137 1.1
v 2.09779 3.14256 1.1
v 2.1346 3.1296 1.1
v 2.15041 3.1748 1.1
v 2.1716 3.15703 1.1
v 2.22542 3.16618 1.1
v 2.22349 3.18555 1.1
v 2.24846 3.16475 1.1
v 1.88084 3.57143 1.1
v 1.88084 3.59453 1.1
v 1.95931 3.6063 1.1
v 2.04301 3.6063 1.1
v 2.11799 3.57143 1.1
v 2.11799 3.59453 1.1
v 2.28179 2.85611 0.9
v 2.27507 2.87761 0.9
v 2.29699 2.88539 0.9
v 2.33707 2.86756 0.9
v 2.31382 2.89541 0.9
v 2.32278 2.94385 0.9
v 2.33852 2.94385 0.9
v 2.38335 2.85714 0.9
v 2.38335 2.86998 0.9
v 2.42186 2.87652 0.9
v 2.3177 3.10224 0.9
v 2.33368 3.10224 0.9
v 2.42186 2.98178 0.9
v 2.4686 2.87652 0.9
v 2.52019 2.85714 0.9
v 2.52019 2.86998 0.9
v 2.4686 2.94283 0.9
v 2.4686 2.98453 0.9
v 2.4686 3.00633 0.9
v 2.50517 2.98453 0.9
v 2.49379 3.00633 0.9
v 2.52936 3.01099 0.9
v 2.55503 2.99101 0.9
v 2.55421 3.02498 0.9
v 2.59175 3.01045 0.9
v 2.61437 3.04236 0.9
v 2.56884 3.0495 0.9
v 2.57371 3.08577 0.9
v 2.56905 3.12004 0.9
v 2.62191 3.08625 0.9
v 2.65607 2.85714 0.9
v 2.65607 2.86998 0.9
v 2.69773 2.87652 0.9
v 2.72316 2.87652 0.9
v 2.76675 2.85714 0.9
v 2.76675 2.86998 0.9
v 2.92345 2.85714 0.9
v 2.94694 2.85714 0.9
v 2.92151 2.94143 0.9
v 2.28179 2.85611 1.1
v 2.27507 2.87761 1.1
v 2.29699 2.88539 1.1
v 2.33707 2.86756 1.1
v 2.31382 2.89541 1.1
v 2.32278 2.94385 1.1
v 2.33852 2.94385 1.1
v 2.38335 2.85714 1.1
v 2.38335 2.86998 1.1
v 2.42186 2.87652 1.1
v 2.3177 3.10224 1.1
v 2.33368 3.10224 1.1
v 2.4686 2.87652 1.1
v 2.52019 2.85714 1.1
v 2.52019 2.86998 1.1
v 2.4686 2.98453 1.1
v 2.4686 3.00633 1.1
v 2.50517 2.98453 1.1
v 2.49379 3.00633 1.1
v 2.52936 3.01099 1.1
v 2.55503 2.99101 1.1
v 2.55421 3.02498 1.1
v 2.59175 3.01045 1.1
v 2.61437 3.04236 1.1
v 2.56884 3.0495 1.1
v 2.57371 3.08577 1.1
v 2.56905 3.12004 1.1
v 2.62191 3.08625 1.1
v 2.65607 2.85714 1.1
v 2.65607 2.86998 1.1
v 2.69773 2.87652 1.1
v 2.72316 2.87652 1.1
v 2.76675 2.85714 1.1
v 2.76675 2.86998 1.1
v 2.92345 2.85714 1.1
v 2.94694 2.85714 1.1
v 2.92151 2.94143 1.1
v 2.27108 3.16048 0.9
v 2.29212 3.15361 0.9
v 2.27598 3.18246 0.9
v 2.31043 3.14438 0.9
v 2.33223 3.1732 0.9
v 2.3802 3.16908 0.9
v 2.3802 3.18192 0.9
v 2.42186 3.16278 0.9
v 2.4686 3.16012 0.9
v 2.49234 3.16012 0.9
v 2.53006 3.15582 0.9
v 2.50275 3.18192 0.9
v 2.55506 3.14292 0.9
v 2.59212 3.158 0.9
v 2.3988 3.57143 0.9
v 2.3988 3.59453 0.9
v 2.46812 3.6063 0.9
v 2.55225 3.6063 0.9
v 2.65607 3.16908 0.9
v 2.65607 3.18192 0.9
v 2.69773 3.16278 0.9
v 2.72316 3.14922 0.9
v 2.7544 3.18192 0.9
v 2.87791 3.16908 0.9
v 2.87791 3.18192 0.9
v 2.92151 3.16278 0.9
v 2.94694 3.16278 0.9
v 2.9886 3.16908 0.9
v 2.9886 3.18192 0.9
v 2.64511 3.57143 0.9
v 2.64511 3.59453 0.9
v 2.89623 3.57143 0.9
v 2.89623 3.59453 0.9
v 2.97122 3.6063 0.9
v 2.27108 3.16048 1.1
v 2.29212 3.15361 1.1
v 2.27598 3.18246 1.1
v 2.31043 3.14438 1.1
v 2.33223 3.1732 1.1
v 2.3802 3.16908 1.1
v 2.3802 3.18192 1.1
v 2.42186 3.16278 1.1
v 2.4686 3.16012 1.1
v 2.49234 3.16012 1.1
v 2.53006 3.15582 1.1
v 2.50275 3.18192 1.1
v 2.55506 3.14292 1.1
v 2.59212 3.158 1.1
v 2.3988 3.57143 1.1
v 2.3988 3.59453 1.1
v 2.46812 3.6063 1.1
v 2.55225 3.6063 1.1
v 2.65607 3.16908 1.1
v 2.65607 3.18192 1.1
v 2.69773 3.16278 1.1
v 2.72316 3.14922 1.1
v 2.7544 3.18192 1.1
v 2.87791 3.16908 1.1
v 2.87791 3.18192 1.1
v 2.92151 3.16278 1.1
v 2.94694 3.16278 1.1
v 2.9886 3.16908 1.1
v 2.9886 3.18192 1.1
v 2.64511 3.57143 1.1
v 2.64511 3.59453 1.1
v 2.89623 3.57143 1.1
v 2.89623 3.59453 1.1
v 2.97122 3.6063 1.1
v 1.55302 4.15602 0.9
v 1.95931 4.07407 0.9
v 1.95059 4.15602 0.9
v 2.04301 4.12158 0.9
v 2.11799 4.13292 0.9
v 2.11799 4.15602 0.9
v 1.55302 4.15602 1.1
v 1.95931 4.07407 1.1
v 1.95059 4.15602 1.1
v 2.04301 4.12158 1.1
v 2.11799 4.13292 1.1
v 2.11799 4.15602 1.1
v 2.55225 3.80073 0.9
v 2.61808 3.80073 0.9
v 2.55225 3.83997 0.9
v 2.59759 3.83997 0.9
v 2.39313 4.13292 0.9
v 2.39313 4.15602 0.9
v 2.46812 4.12158 0.9
v 2.55225 4.11678 0.9
v 2.59497 4.11678 0.9
v 2.61372 4.15602 0.9
v 2.70783 3.81239 0.9
v 2.66161 3.84836 0.9
v 2.70635 3.87353 0.9
v 2.77392 3.84738 0.9
v 2.73267 3.91767 0.9
v 2.74145 3.98295 0.9
v 2.73305 4.04464 0.9
v 2.81463 3.90481 0.9
v 2.8282 3.98383 0.9
v 2.66287 4.10905 0.9
v 2.70788 4.08583 0.9
v 2.77458 4.11297 0.9
v 2.89623 4.13292 0.9
v 2.89623 4.15602 0.9
v 2.97122 4.12158 0.9
v 2.55225 3.80073 1.1
v 2.61808 3.80073 1.1
v 2.55225 3.83997 1.1
v 2.59759 3.83997 1.1
v 2.39313 4.13292 1.1
v 2.39313 4.15602 1.1
v 2.46812 4.12158 1.1
v 2.55225 4.11678 1.1
v 2.59497 4.11678 1.1
v 2.61372 4.15602 1.1
v 2.70783 3.81239 1.1
v 2.66161 3.84836 1.1
v 2.70635 3.87353 1.1
v 2.77392 3.84738 1.1
v 2.73267 3.91767 1.1
v 2.74145 3.98295 1.1
v 2.73305 4.04464 1.1
v 2.81463 3.90481 1.1
v 2.8282 3.98383 1.1
v 2.66287 4.10905 1.1
v 2.70788 4.08583 1.1
v 2.77458 4.11297 1.1
v 2.89623 4.13292 1.1
v 2.89623 4.15602 1.1
v 2.97122 4.12158 1.1
v 6 0 0
v 3.14082 0.706779 0.9
v 3.15366 0.706779 0.9
v 3.05654 0.930561 0.9
v 3.15753 0.791061 0.9
v 3.30336 0.714286 0.9
v 3.30336 0.727121 0.9
v 3.34502 0.733661 0.9
v 3.37044 0.733661 0.9
v 3.06235 1.01629 0.9
v 3.07325 1.01629 0.9
v 3.18054 1.02622 0.9
v 3.18054 1.03906 0.9
v 3.23116 1.01993 0.9
v 3.25973 1.01993 0.9
v 3.37044 1.00636 0.9
v 3.28807 1.02622 0.9
v 3.30336 1.02622 0.9
v 3.28807 1.03906 0.9
v 3.30336 1.03906 0.9
v 3.34502 1.01993 0.9
v 3.41404 0.714286 0.9
v 3.41404 0.727121 0.9
v 3.57073 0.714286 0.9
v 3.59423 0.714286 0.9
v 3.66158 0.714286 0.9
v 3.66158 0.727121 0.9
v 3.70323 0.733661 0.9
v 3.72866 0.733661 0.9
v 3.56879 0.798568 0.9
v 3.40169 1.03906 0.9
v 3.5252 1.02622 0.9
v 3.5252 1.03906 0.9
v 3.56879 1.01993 0.9
v 3.59423 1.01993 0.9
v 3.63588 1.02622 0.9
v 3.63588 1.03906 0.9
v 3.72866 1.00636 0.9
v 3.66158 1.02622 0.9
v 3.66158 1.03906 0.9
v 3.70323 1.01993 0.9
v 3.14082 0.706779 1.1
v 3.15366 0.706779 1.1
v 3.05654 0.930561 1.1
v 3.15753 0.791061 1.1
v 3.30336 0.714286 1.1
v 3.30336 0.727121 1.1
v 3.34502 0.733661 1.1
v 3.37044 0.733661 1.1
v 3.06235 1.01629 1.1
v 3.07325 1.01629 1.1
v 3.18054 1.02622 1.1
v 3.18054 1.03906 1.1
v 3.23116 1.01993 1.1
v 3.25973 1.01993 1.1
v 3.37044 1.00636 1.1
v 3.28807 1.02622 1.1
v 3.30336 1.02622 1.1
v 3.28807 1.03906 1.1
v 3.30336 1.03906 1.1
v 3.34502 1.01993 1.1
v 3.41404 0.714286 1.1
v 3.41404 0.727121 1.1
v 3.57073 0.714286 1.1
v 3.59423 0.714286 1.1
v 3.66158 0.714286 1.1
v 3.66158 0.727121 1.1
v 3.70323 0.733661 1.1
v 3.72866 0.733661 1.1
v 3.56879 0.798568 1.1
v 3.40169 1.03906 1.1
v 3.5252 1.02622 1.1
v 3.5252 1.03906 1.1
v 3.56879 1.01993 1.1
v 3.59423 1.01993 1.1
v 3.63588 1.02622 1.1
v 3.63588 1.03906 1.1
v 3.72866 1.00636 1.1
v 3.66158 1.02622 1.1
v 3.66158 1.03906 1.1
v 3.70323 1.01993 1.1
v 3.77226 0.714286 0.9
v 3.77226 0.727121 0.9
v 3.92895 0.714286 0.9
v 3.92701 0.798568 0.9
v 3.95244 0.714286 0.9
v 4.01979 0.714286 0.9
v 4.01979 0.727121 0.9
v 4.06145 0.733661 0.9
v 4.08688 0.733661 0.9
v 3.75991 1.03906 0.9
v 3.88342 1.02622 0.9
v 3.88342 1.03906 0.9
v 3.92701 1.01993 0.9
v 3.95244 1.01993 0.9
v 3.9941 1.02622 0.9
v 3.9941 1.03906 0.9
v 4.01979 1.02622 0.9
v 4.01979 1.03906 0.9
v 4.08688 1.00636 0.9
v 4.06145 1.01993 0.9
v 4.11812 1.03906 0.9
v 4.13047 0.714286 0.9
v 4.13047 0.727121 0.9
v 4.28717 0.714286 0.9
v 4.31066 0.714286 0.9
v 4.28523 0.798568 0.9
v 4.24164 1.02622 0.9
v 4.24164 1.03906 0.9
v 4.28523 1.01993 0.9
v 4.31066 1.01993 0.9
v 4.35232 1.02622 0.9
v 4.35232 1.03906 0.9
v 3.77226 0.714286 1.1
v 3.77226 0.727121 1.1
v 3.92895 0.714286 1.1
v 3.92701 0.798568 1.1
v 3.95244 0.714286 1.1
v 4.01979 0.714286 1.1
v 4.01979 0.727121 1.1
v 4.06145 0.733661 1.1
v 4.08688 0.733661 1.1
v 3.75991 1.03906 1.1
v 3.88342 1.02622 1.1
v 3.88342 1.03906 1.1
v 3.92701 1.01993 1.1
v 3.95244 1.01993 1.1
v 3.9941 1.02622 1.1
v 3.9941 1.03906 1.1
v 4.01979 1.02622 1.1
v 4.01979 1.03906 1.1
v 4.08688 1.00636 1.1
v 4.06145 1.01993 1.1
v 4.11812 1.03906 1.1
v 4.13047 0.714286 1.1
v 4.13047 0.727121 1.1
v 4.28717 0.714286 1.1
v 4.31066 0.714286 1.1
v 4.28523 0.798568 1.1
v 4.24164 1.02622 1.1
v 4.24164 1.03906 1.1
v 4.28523 1.01993 1.1
v 4.31066 1.01993 1.1
v 4.35232 1.02622 1.1
v 4.35232 1.03906 1.1
v 3.04552 1.42857 0.9
v 3.08814 1.44795 0.9
v 3.12326 1.42857 0.9
v 3.12326 1.44141 0.9
v 3.1383 1.42857 0.9
v 3.1383 1.44141 0.9
v 3.17995 1.44795 0.9
v 3.20538 1.44795 0.9
v 3.24898 1.42857 0.9
v 3.24898 1.44141 0.9
v 3.3243 1.42857 0.9
v 3.33277 1.42857 0.9
v 3.34222 1.50631 0.9
v 3.00023 1.57776 0.9
v 3.02808 1.59056 0.9
v 3.00035 1.60888 0.9
v 3.01406 1.63053 0.9
v 3.04915 1.61058 0.9
v 3.06241 1.6364 0.9
v 3.01863 1.66325 0.9
v 3.01412 1.69495 0.9
v 3.00059 1.71592 0.9
v 3.06683 1.66664 0.9
v 3.05956 1.70594 0.9
v 3.00071 1.7482 0.9
v 3.03776 1.73276 0.9
v 3.1383 1.74051 0.9
v 3.1383 1.75335 0.9
v 3.17995 1.73421 0.9
v 3.20538 1.70781 0.9
v 3.23663 1.75335 0.9
v 3.41875 1.42857 0.9
v 3.41875 1.44141 0.9
v 3.46234 1.44795 0.9
v 3.50884 1.44795 0.9
v 3.5505 1.42857 0.9
v 3.5505 1.44141 0.9
v 3.46234 1.70781 0.9
v 3.4575 1.75335 0.9
v 3.50884 1.73421 0.9
v 3.5505 1.74051 0.9
v 3.5505 1.75335 0.9
v 3.04552 1.42857 1.1
v 3.08814 1.44795 1.1
v 3.12326 1.42857 1.1
v 3.12326 1.44141 1.1
v 3.1383 1.42857 1.1
v 3.1383 1.44141 1.1
v 3.17995 1.44795 1.1
v 3.20538 1.44795 1.1
v 3.24898 1.42857 1.1
v 3.24898 1.44141 1.1
v 3.3243 1.42857 1.1
v 3.33277 1.42857 1.1
v 3.34222 1.50631 1.1
v 3.00023 1.57776 1.1
v 3.02808 1.59056 1.1
v 3.00035 1.60888 1.1
v 3.01406 1.63053 1.1
v 3.04915 1.61058 1.1
v 3.06241 1.6364 1.1
v 3.01863 1.66325 1.1
v 3.01412 1.69495 1.1
v 3.00059 1.71592 1.1
v 3.06683 1.66664 1.1
v 3.05956 1.70594 1.1
v 3.00071 1.7482 1.1
v 3.03776 1.73276 1.1
v 3.1383 1.74051 1.1
v 3.1383 1.75335 1.1
v 3.17995 1.73421 1.1
v 3.20538 1.70781 1.1
v 3.23663 1.75335 1.1
v 3.41875 1.42857 1.1
v 3.41875 1.44141 1.1
v 3.46234 1.44795 1.1
v 3.50884 1.44795 1.1
v 3.5505 1.42857 1.1
v 3.5505 1.44141 1.1
v 3.46234 1.70781 1.1
v 3.4575 1.75335 1.1
v 3.50884 1.73421 1.1
v 3.5505 1.74051 1.1
v 3.5505 1.75335 1.1
v 3.06442 2.181 0.9
v 3.11722 2.14876 0.9
v 3.13759 2.16598 0.9
v 3.18745 2.13801 0.9
v 3.18794 2.15666 0.9
v 3.21476 2.15833 0.9
v 3.24673 2.14183 0.9
v 3.24001 2.16332 0.9
v 3.26192 2.1711 0.9
v 3.27876 2.18112 0.9
v 3.30201 2.15327 0.9
v 3.34829 2.14286 0.9
v 3.34829 2.15569 0.9
v 3.03136 2.23262 0.9
v 3.07844 2.23961 0.9
v 3.02034 2.30149 0.9
v 3.07096 2.30197 0.9
v 3.10087 2.19396 0.9
v 3.03094 2.37508 0.9
v 3.07811 2.3687 0.9
v 3.06273 2.42827 0.9
v 3.09954 2.41532 0.9
v 3.11534 2.46052 0.9
v 3.13653 2.44275 0.9
v 3.28772 2.22956 0.9
v 3.30346 2.22956 0.9
v 3.19036 2.45189 0.9
v 3.2134 2.45047 0.9
v 3.18842 2.47126 0.9
v 3.25705 2.43933 0.9
v 3.23601 2.4462 0.9
v 3.27537 2.43009 0.9
v 3.24092 2.46818 0.9
v 3.28263 2.38795 0.9
v 3.29862 2.38795 0.9
v 3.29716 2.45891 0.9
v 3.34514 2.4548 0.9
v 3.34514 2.46763 0.9
v 3.3868 2.16223 0.9
v 3.43354 2.16223 0.9
v 3.48512 2.14286 0.9
v 3.48512 2.15569 0.9
v 3.62101 2.14286 0.9
v 3.62101 2.15569 0.9
v 3.66266 2.16223 0.9
v 3.68809 2.16223 0.9
v 3.73169 2.14286 0.9
v 3.73169 2.15569 0.9
v 3.43354 2.27025 0.9
v 3.43354 2.29205 0.9
v 3.45872 2.29205 0.9
v 3.47011 2.27025 0.9
v 3.4943 2.29671 0.9
v 3.51997 2.27673 0.9
v 3.55669 2.29616 0.9
v 3.51915 2.31069 0.9
v 3.53377 2.33522 0.9
v 3.3868 2.4485 0.9
v 3.43354 2.44583 0.9
v 3.45727 2.44583 0.9
v 3.46769 2.46763 0.9
v 3.53865 2.37148 0.9
v 3.53398 2.40575 0.9
v 3.49499 2.44153 0.9
v 3.52 2.42864 0.9
v 3.55705 2.44372 0.9
v 3.5793 2.32807 0.9
v 3.58684 2.37197 0.9
v 3.62101 2.4548 0.9
v 3.62101 2.46763 0.9
v 3.66266 2.4485 0.9
v 3.68809 2.43494 0.9
v 3.71934 2.46763 0.9
v 3.06442 2.181 1.1
v 3.11722 2.14876 1.1
v 3.13759 2.16598 1.1
v 3.18745 2.13801 1.1
v 3.18794 2.15666 1.1
v 3.21476 2.15833 1.1
v 3.24673 2.14183 1.1
v 3.24001 2.16332 1.1
v 3.26192 2.1711 1.1
v 3.27876 2.18112 1.1
v 3.30201 2.15327 1.1
v 3.34829 2.14286 1.1
v 3.34829 2.15569 1.1
v 3.03136 2.23262 1.1
v 3.07844 2.23961 1.1
v 3.02034 2.30149 1.1
v 3.07096 2.30197 1.1
v 3.10087 2.19396 1.1
v 3.03094 2.37508 1.1
v 3.07811 2.3687 1.1
v 3.06273 2.42827 1.1
v 3.09954 2.41532 1.1
v 3.11534 2.46052 1.1
v 3.13653 2.44275 1.1
v 3.28772 2.22956 1.1
v 3.30346 2.22956 1.1
v 3.19036 2.45189 1.1
v 3.2134 2.45047 1.1
v 3.18842 2.47126 1.1
v 3.25705 2.43933 1.1
v 3.23601 2.4462 1.1
v 3.27537 2.43009 1.1
v 3.24092 2.46818 1.1
v 3.28263 2.38795 1.1
v 3.29862 2.38795 1.1
v 3.29716 2.45891 1.1
v 3.34514 2.4548 1.1
v 3.34514 2.46763 1.1
v 3.3868 2.16223 1.1
v 3.43354 2.16223 1.1
v 3.48512 2.14286 1.1
v 3.48512 2.15569 1.1
v 3.62101 2.14286 1.1
v 3.62101 2.15569 1.1
v 3.66266 2.16223 1.1
v 3.68809 2.16223 1.1
v 3.73169 2.14286 1.1
v 3.73169 2.15569 1.1
v 3.43354 2.27025 1.1
v 3.43354 2.29205 1.1
v 3.45872 2.29205 1.1
v 3.47011 2.27025 1.1
v 3.4943 2.29671 1.1
v 3.51997 2.27673 1.1
v 3.55669 2.29616 1.1
v 3.51915 2.31069 1.1
v 3.53377 2.33522 1.1
v 3.3868 2.4485 1.1
v 3.43354 2.44583 1.1
v 3.45727 2.44583 1.1
v 3.46769 2.46763 1.1
v 3.53865 2.37148 1.1
v 3.53398 2.40575 1.1
v 3.49499 2.44153 1.1
v 3.52 2.42864 1.1
v 3.55705 2.44372 1.1
v 3.5793 2.32807 1.1
v 3.58684 2.37197 1.1
v 3.62101 2.4548 1.1
v 3.62101 2.46763 1.1
v 3.66266 2.4485 1.1
v 3.68809 2.43494 1.1
v 3.71934 2.46763 1.1
v 3.88838 2.14286 0.9
v 3.91188 2.14286 0.9
v 3.88644 2.22714 0.9
v 3.84285 2.4548 0.9
v 3.84285 2.46763 0.9
v 3.88644 2.4485 0.9
v 3.91188 2.4485 0.9
v 3.95353 2.4548 0.9
v 3.95353 2.46763 0.9
v 3.88838 2.14286 1.1
v 3.91188 2.14286 1.1
v 3.88644 2.22714 1.1
v 3.84285 2.4548 1.1
v 3.84285 2.46763 1.1
v 3.88644 2.4485 1.1
v 3.91188 2.4485 1.1
v 3.95353 2.4548 1.1
v 3.95353 2.46763 1.1
v 6 0 0.9
v 6 5 0
v 3.03136 2.9469 0.9
v 3.06442 2.89529 0.9
v 3.07844 2.9539 0.9
v 3.11722 2.86305 0.9
v 3.13759 2.88027 0.9
v 3.18745 2.8523 0.9
v 3.10087 2.90824 0.9
v 3.02034 3.01578 0.9
v 3.07096 3.01626 0.9
v 3.03094 3.08937 0.9
v 3.07811 3.08298 0.9
v 3.18794 2.87095 0.9
v 3.21476 2.87261 0.9
v 3.24673 2.85611 0.9
v 3.24001 2.87761 0.9
v 3.26192 2.88539 0.9
v 3.27876 2.89541 0.9
v 3.30201 2.86756 0.9
v 3.34829 2.85714 0.9
v 3.34829 2.86998 0.9
v 3.28772 2.94385 0.9
v 3.30346 2.94385 0.9
v 3.28263 3.10224 0.9
v 3.29862 3.10224 0.9
v 3.3868 2.87652 0.9
v 3.43354 2.87652 0.9
v 3.48512 2.85714 0.9
v 3.48512 2.86998 0.9
v 3.43354 2.98453 0.9
v 3.43354 3.00633 0.9
v 3.45872 3.00633 0.9
v 3.47011 2.98453 0.9
v 3.4943 3.01099 0.9
v 3.51997 2.99101 0.9
v 3.51915 3.02498 0.9
v 3.55669 3.01045 0.9
v 3.53377 3.0495 0.9
v 3.53865 3.08577 0.9
v 3.53398 3.12004 0.9
v 3.62101 2.85714 0.9
v 3.62101 2.86998 0.9
v 3.66266 2.87652 0.9
v 3.68809 2.87652 0.9
v 3.73169 2.85714 0.9
v 3.73169 2.86998 0.9
v 3.5793 3.04236 0.9
v 3.58684 3.08625 0.9
v 3.03136 2.9469 1.1
v 3.06442 2.89529 1.1
v 3.07844 2.9539 1.1
v 3.11722 2.86305 1.1
v 3.13759 2.88027 1.1
v 3.18745 2.8523 1.1
v 3.10087 2.90824 1.1
v 3.02034 3.01578 1.1
v 3.07096 3.01626 1.1
v 3.03094 3.08937 1.1
v 3.07811 3.08298 1.1
v 3.18794 2.87095 1.1
v 3.21476 2.87261 1.1
v 3.24673 2.85611 1.1
v 3.24001 2.87761 1.1
v 3.26192 2.88539 1.1
v 3.27876 2.89541 1.1
v 3.30201 2.86756 1.1
v 3.34829 2.85714 1.1
v 3.34829 2.86998 1.1
v 3.28772 2.94385 1.1
v 3.30346 2.94385 1.1
v 3.28263 3.10224 1.1
v 3.29862 3.10224 1.1
v 3.3868 2.87652 1.1
v 3.43354 2.87652 1.1
v 3.48512 2.85714 1.1
v 3.48512 2.86998 1.1
v 3.43354 2.98453 1.1
v 3.43354 3.00633 1.1
v 3.45872 3.00633 1.1
v 3.47011 2.98453 1.1
v 3.4943 3.01099 1.1
v 3.51997 2.99101 1.1
v 3.51915 3.02498 1.1
v 3.55669 3.01045 1.1
v 3.53377 3.0495 1.1
v 3.53865 3.08577 1.1
v 3.53398 3.12004 1.1
v 3.62101 2.85714 1.1
v 3.62101 2.86998 1.1
v 3.66266 2.87652 1.1
v 3.68809 2.87652 1.1
v 3.73169 2.85714 1.1
v 3.73169 2.86998 1.1
v 3.5793 3.04236 1.1
v 3.58684 3.08625 1.1
v 3.06273 3.14256 0.9
v 3.09954 3.1296 0.9
v 3.13653 3.15703 0.9
v 3.11534 3.1748 0.9
v 3.19036 3.16618 0.9
v 3.18842 3.18555 0.9
v 3.2134 3.16475 0.9
v 3.23601 3.16048 0.9
v 3.25705 3.15361 0.9
v 3.27537 3.14438 0.9
v 3.24092 3.18246 0.9
v 3.29716 3.1732 0.9
v 3.34514 3.16908 0.9
v 3.34514 3.18192 0.9
v 3.1299 3.57143 0.9
v 3.05492 3.6063 0.9
v 3.1299 3.59453 0.9
v 3.3723 3.58205 0.9
v 3.27726 3.64009 0.9
v 3.21775 3.733 0.9
v 3.34287 3.66341 0.9
v 3.30249 3.74559 0.9
v 3.3868 3.16278 0.9
v 3.43354 3.16012 0.9
v 3.45727 3.16012 0.9
v 3.46769 3.18192 0.9
v 3.49499 3.15582 0.9
v 3.52 3.14292 0.9
v 3.55705 3.158 0.9
v 3.62101 3.16908 0.9
v 3.62101 3.18192 0.9
v 3.66266 3.16278 0.9
v 3.68809 3.14922 0.9
v 3.71934 3.18192 0.9
v 3.49872 3.56271 0.9
v 3.40897 3.61306 0.9
v 3.49959 3.59627 0.9
v 3.54787 3.59927 0.9
v 3.60541 3.56958 0.9
v 3.70492 3.59017 0.9
v 3.59332 3.60826 0.9
v 3.63277 3.62227 0.9
v 3.66307 3.6403 0.9
v 3.67919 3.72749 0.9
v 3.70753 3.72749 0.9
v 3.06273 3.14256 1.1
v 3.09954 3.1296 1.1
v 3.13653 3.15703 1.1
v 3.11534 3.1748 1.1
v 3.19036 3.16618 1.1
v 3.18842 3.18555 1.1
v 3.2134 3.16475 1.1
v 3.23601 3.16048 1.1
v 3.25705 3.15361 1.1
v 3.27537 3.14438 1.1
v 3.24092 3.18246 1.1
v 3.29716 3.1732 1.1
v 3.34514 3.16908 1.1
v 3.34514 3.18192 1.1
v 3.1299 3.57143 1.1
v 3.05492 3.6063 1.1
v 3.1299 3.59453 1.1
v 3.3723 3.58205 1.1
v 3.27726 3.64009 1.1
v 3.21775 3.733 1.1
v 3.34287 3.66341 1.1
v 3.30249 3.74559 1.1
v 3.3868 3.16278 1.1
v 3.43354 3.16012 1.1
v 3.45727 3.16012 1.1
v 3.46769 3.18192 1.1
v 3.49499 3.15582 1.1
v 3.52 3.14292 1.1
v 3.55705 3.158 1.1
v 3.62101 3.16908 1.1
v 3.62101 3.18192 1.1
v 3.66266 3.16278 1.1
v 3.68809 3.14922 1.1
v 3.71934 3.18192 1.1
v 3.49872 3.56271 1.1
v 3.40897 3.61306 1.1
v 3.49959 3.59627 1.1
v 3.54787 3.59927 1.1
v 3.60541 3.56958 1.1
v 3.70492 3.59017 1.1
v 3.59332 3.60826 1.1
v 3.63277 3.62227 1.1
v 3.66307 3.6403 1.1
v 3.67919 3.72749 1.1
v 3.70753 3.72749 1.1
v 3.88838 2.85714 0.9
v 3.91188 2.85714 0.9
v 3.88644 2.94143 0.9
v 3.88838 2.85714 1.1
v 3.91188 2.85714 1.1
v 3.88644 2.94143 1.1
v 3.84285 3.16908 0.9
v 3.84285 3.18192 0.9
v 3.88644 3.16278 0.9
v 3.91188 3.16278 0.9
v 3.95353 3.16908 0.9
v 3.95353 3.18192 0.9
v 3.80435 3.58146 0.9
v 3.88064 3.5674 0.9
v 3.79956 3.70439 0.9
v 3.82832 3.70439 0.9
v 3.84794 3.62243 0.9
v 3.86849 3.6135 0.9
v 3.89611 3.60587 0.9
v 3.92625 3.60064 0.9
v 3.96129 3.56271 0.9
v 4.04902 3.57383 0.9
v 3.95431 3.59889 0.9
v 4.01382 3.60674 0.9
v 4.05545 3.63028 0.9
v 4.1143 3.60718 0.9
v 4.07997 3.67213 0.9
v 4.08815 3.73491 0.9
v 4.2425 3.57143 0.9
v 4.15484 3.66025 0.9
v 4.16836 3.73055 0.9
v 4.2425 3.63551 0.9
v 4.29961 3.63856 0.9
v 4.32358 3.70919 0.9
v 4.342 3.6766 0.9
v 4.382 3.71137 0.9
v 3.84285 3.16908 1.1
v 3.84285 3.18192 1.1
v 3.88644 3.16278 1.1
v 3.91188 3.16278 1.1
v 3.95353 3.16908 1.1
v 3.95353 3.18192 1.1
v 3.80435 3.58146 1.1
v 3.88064 3.5674 1.1
v 3.79956 3.70439 1.1
v 3.82832 3.70439 1.1
v 3.84794 3.62243 1.1
v 3.86849 3.6135 1.1
v 3.89611 3.60587 1.1
v 3.92625 3.60064 1.1
v 3.96129 3.56271 1.1
v 4.04902 3.57383 1.1
v 3.95431 3.59889 1.1
v 4.01382 3.60674 1.1
v 4.05545 3.63028 1.1
v 4.1143 3.60718 1.1
v 4.07997 3.67213 1.1
v 4.08815 3.73491 1.1
v 4.2425 3.57143 1.1
v 4.15484 3.66025 1.1
v 4.16836 3.73055 1.1
v 4.2425 3.63551 1.1
v 4.29961 3.63856 1.1
v 4.32358 3.70919 1.1
v 4.342 3.6766 1.1
v 4.382 3.71137 1.1
v 3.19792 3.85697 0.9
v 3.28903 3.85784 0.9
v 3.21699 3.98944 0.9
v 3.30189 3.97794 0.9
v 3.34047 4.06186 0.9
v 3.05492 4.12158 0.9
v 3.1299 4.13292 0.9
v 3.1299 4.15602 0.9
v 3.27421 4.08518 0.9
v 3.36892 4.14322 0.9
v 3.67004 4.0126 0.9
v 3.69881 4.0126 0.9
v 3.40706 4.11123 0.9
v 3.50395 4.12769 0.9
v 3.54542 4.12512 0.9
v 3.50046 4.16256 0.9
v 3.58612 4.11744 0.9
v 3.624 4.10507 0.9
v 3.59495 4.157 0.9
v 3.65696 4.08845 0.9
v 3.6962 4.14032 0.9
v 3.19792 3.85697 1.1
v 3.28903 3.85784 1.1
v 3.21699 3.98944 1.1
v 3.30189 3.97794 1.1
v 3.34047 4.06186 1.1
v 3.05492 4.12158 1.1
v 3.1299 4.13292 1.1
v 3.1299 4.15602 1.1
v 3.27421 4.08518 1.1
v 3.36892 4.14322 1.1
v 3.67004 4.0126 1.1
v 3.69881 4.0126 1.1
v 3.40706 4.11123 1.1
v 3.50395 4.12769 1.1
v 3.54542 4.12512 1.1
v 3.50046 4.16256 1.1
v 3.58612 4.11744 1.1
v 3.624 4.10507 1.1
v 3.59495 4.157 1.1
v 3.65696 4.08845 1.1
v 3.6962 4.14032 1.1
v 3.90243 3.85871 0.9
v 3.90243 3.89446 0.9
v 3.81743 4.03134 0.9
v 3.8462 4.03134 0.9
v 3.96478 3.85522 0.9
v 3.96478 3.89838 0.9
v 4.0197 3.84547 0.9
v 4.01403 3.87745 0.9
v 4.05806 3.82231 0.9
v 4.08063 3.78553 0.9
v 4.06814 3.89299 0.9
v 4.08291 3.86149 0.9
v 4.0076 3.90732 0.9
v 4.03757 3.9289 0.9
v 4.05523 3.96399 0.9
v 4.10841 3.92214 0.9
v 4.06112 4.01347 0.9
v 3.81743 4.14382 0.9
v 3.86146 4.10283 0.9
v 3.88217 4.11226 0.9
v 3.90592 4.11962 0.9
v 3.93066 4.12436 0.9
v 3.85764 4.15324 0.9
v 3.89197 4.15885 0.9
v 3.92325 4.16163 0.9
v 3.95431 4.12594 0.9
v 4.00254 4.11924 0.9
v 3.95431 4.16256 0.9
v 4.03561 4.09913 0.9
v 4.05474 4.06431 0.9
v 4.0949 4.1266 0.9
v 4.15898 3.78836 0.9
v 4.13087 3.8319 0.9
v 4.13342 3.96426 0.9
v 4.14176 4.0187 0.9
v 4.26212 4.03134 0.9
v 4.29089 4.03134 0.9
v 4.39126 3.77109 0.9
v 4.43824 3.81991 0.9
v 4.45981 3.77997 0.9
v 4.46968 3.86285 0.9
v 4.49076 3.9071 0.9
v 4.30615 4.10283 0.9
v 4.26212 4.14382 0.9
v 4.32631 4.11226 0.9
v 4.3493 4.11962 0.9
v 4.37339 4.12436 0.9
v 4.39682 4.12594 0.9
v 4.33546 4.15787 0.9
v 4.39682 4.16256 0.9
v 4.44707 4.11853 0.9
v 4.48096 4.0963 0.9
v 4.4808 4.15259 0.9
v 3.90243 3.85871 1.1
v 3.90243 3.89446 1.1
v 3.81743 4.03134 1.1
v 3.8462 4.03134 1.1
v 3.96478 3.85522 1.1
v 3.96478 3.89838 1.1
v 4.0197 3.84547 1.1
v 4.01403 3.87745 1.1
v 4.05806 3.82231 1.1
v 4.08063 3.78553 1.1
v 4.06814 3.89299 1.1
v 4.08291 3.86149 1.1
v 4.0076 3.90732 1.1
v 4.03757 3.9289 1.1
v 4.05523 3.96399 1.1
v 4.10841 3.92214 1.1
v 4.06112 4.01347 1.1
v 3.81743 4.14382 1.1
v 3.86146 4.10283 1.1
v 3.88217 4.11226 1.1
v 3.90592 4.11962 1.1
v 3.93066 4.12436 1.1
v 3.85764 4.15324 1.1
v 3.89197 4.15885 1.1
v 3.92325 4.16163 1.1
v 3.95431 4.12594 1.1
v 4.00254 4.11924 1.1
v 3.95431 4.16256 1.1
v 4.03561 4.09913 1.1
v 4.05474 4.06431 1.1
v 4.0949 4.1266 1.1
v 4.15898 3.78836 1.1
v 4.13087 3.8319 1.1
v 4.13342 3.96426 1.1
v 4.14176 4.0187 1.1
v 4.26212 4.03134 1.1
v 4.29089 4.03134 1.1
v 4.39126 3.77109 1.1
v 4.43824 3.81991 1.1
v 4.45981 3.77997 1.1
v 4.46968 3.86285 1.1
v 4.49076 3.9071 1.1
v 4.30615 4.10283 1.1
v 4.26212 4.14382 1.1
v 4.32631 4.11226 1.1
v 4.3493 4.11962 1.1
v 4.37339 4.12436 1.1
v 4.39682 4.12594 1.1
v 4.33546 4.15787 1.1
v 4.39682 4.16256 1.1
v 4.44707 4.11853 1.1
v 4.48096 4.0963 1.1
v 4.4808 4.15259 1.1
v 4.6004 3.57143 0.9
v 4.6004 3.63856 0.9
v 4.6004 3.57143 1.1
v 4.6004 3.63856 1.1
v 4.51191 3.83146 0.9
v 4.54607 3.87451 0.9
v 4.5027 3.95527 0.9
v 4.5701 3.91778 0.9
v 4.58433 3.96252 0.9
v 4.50668 4.00998 0.9
v 4.50025 4.0599 0.9
v 4.58907 4.00998 0.9
v 4.5409 4.12267 0.9
v 4.57703 4.07455 0.9
v 4.51191 3.83146 1.1
v 4.54607 3.87451 1.1
v 4.5027 3.95527 1.1
v 4.5701 3.91778 1.1
v 4.58433 3.96252 1.1
v 4.50668 4.00998 1.1
v 4.50025 4.0599 1.1
v 4.58907 4.00998 1.1
v 4.5409 4.12267 1.1
v 4.57703 4.07455 1.1
v 6 5 0.9
f  2 3 4
f  2 16 3
f  2 4 10
f  2 18 16
f  2 10 11
f  2 11 153
f  1 2 402
f  2 153 158
f  2 158 161
f  2 161 498
f  2 386 387
f  2 437 438
f  2 438 435
f  2 436 437
f  2 442 436
f  2 435 386
f  1 1097 2
f  12 10 4
f  5 7 4
f  12 4 7
f  9 14 13
f  9 29 14
f  14 28 15
f  28 14 27
f  29 27 14
f  16 24 17
f  19 16 18
f  20 16 19
f  6 17 35
f  6 35 8
f  35 17 24
f  20 24 16
f  8 35 30
f  30 35 31
f  31 34 32
f  34 31 33
f  35 33 31
f  15 188 11
f  15 28 188
f  26 37 36
f  26 83 37
f  37 40 38
f  40 37 39
f  83 39 37
f  32 188 28
f  32 34 188
f  38 188 34
f  2 1097 18
f  22 79 23
f  21 23 89
f  21 89 25
f  89 23 79
f  80 95 82
f  25 85 84
f  25 87 85
f  25 89 87
f  85 88 86
f  88 85 87
f  38 40 187
f  86 187 40
f  86 88 187
f  92 187 88
f  81 91 90
f  81 93 91
f  91 93 92
f  92 93 191
f  191 93 94
f  96 105 104
f  96 109 106
f  96 106 105
f  109 96 98
f  97 101 94
f  102 94 101
f  97 103 101
f  94 102 197
f  107 197 102
f  105 108 107
f  108 105 106
f  100 111 110
f  100 713 111
f  111 713 112
f  107 108 204
f  112 204 108
f  196 11 188
f  147 11 148
f  153 11 154
f  154 11 147
f  148 11 150
f  150 11 261
f  11 196 266
f  261 11 265
f  11 266 265
f  2 498 442
f  149 274 155
f  151 274 149
f  155 274 156
f  156 274 157
f  157 274 159
f  159 274 160
f  160 274 163
f  163 274 164
f  38 187 188
f  187 92 191
f  191 94 197
f  189 196 188
f  190 192 198
f  190 198 193
f  191 198 192
f  191 197 198
f  194 210 195
f  107 202 197
f  107 204 202
f  199 193 198
f  199 200 193
f  202 205 203
f  205 202 204
f  203 219 201
f  204 112 208
f  112 849 208
f  219 203 205
f  206 219 205
f  208 849 209
f  217 209 849
f  207 209 214
f  214 209 217
f  201 212 211
f  201 219 212
f  213 211 212
f  223 215 216
f  216 218 869
f  218 864 865
f  221 220 215
f  223 221 215
f  216 870 223
f  216 869 870
f  267 265 266
f  265 267 268
f  266 196 270
f  270 196 303
f  270 304 271
f  270 303 304
f  152 275 151
f  262 275 152
f  263 275 262
f  264 275 263
f  151 275 274
f  264 272 275
f  265 268 283
f  265 283 273
f  273 281 272
f  279 276 274
f  164 274 165
f  165 274 276
f  279 277 276
f  272 281 275
f  283 281 273
f  275 281 280
f  282 280 281
f  269 271 284
f  284 271 286
f  286 271 289
f  287 288 285
f  288 290 285
f  290 291 285
f  271 304 289
f  304 292 289
f  285 291 298
f  295 294 285
f  299 301 285
f  296 295 285
f  301 296 285
f  285 298 299
f  300 311 302
f  303 196 307
f  196 309 307
f  211 945 196
f  309 196 310
f  196 934 310
f  211 213 945
f  934 196 936
f  307 309 308
f  305 292 304
f  292 305 293
f  293 305 300
f  305 313 300
f  308 314 306
f  314 308 309
f  312 302 311
f  311 300 313
f  948 310 946
f  310 948 951
f  310 951 320
f  316 317 315
f  318 315 317
f  316 319 317
f  320 951 321
f  1 402 385
f  1 385 1098
f  385 402 1098
f  2 394 403
f  2 387 413
f  2 396 395
f  2 395 394
f  2 397 396
f  2 413 397
f  2 403 402
f  402 403 404
f  402 404 405
f  402 405 406
f  402 406 407
f  413 416 414
f  414 417 415
f  415 417 429
f  388 413 387
f  413 388 416
f  388 418 416
f  417 414 416
f  642 430 417
f  430 642 644
f  429 417 430
f  430 644 428
f  162 498 161
f  441 503 439
f  443 503 441
f  439 510 440
f  440 510 445
f  445 510 447
f  447 510 468
f  468 510 470
f  386 435 461
f  461 446 464
f  389 462 463
f  463 462 461
f  463 461 464
f  475 465 474
f  465 475 643
f  446 461 435
f  464 446 467
f  464 467 469
f  464 469 472
f  470 508 471
f  576 478 472
f  578 478 576
f  472 465 464
f  472 474 465
f  472 478 474
f  478 585 479
f  166 505 162
f  278 505 166
f  280 505 278
f  280 282 505
f  297 505 282
f  162 501 498
f  162 506 501
f  162 505 506
f  302 512 297
f  512 302 312
f  297 512 505
f  444 503 443
f  499 503 444
f  439 503 510
f  500 503 499
f  502 503 500
f  501 506 510
f  501 510 504
f  504 510 503
f  507 510 506
f  470 510 508
f  510 509 508
f  510 579 509
f  510 581 579
f  514 511 513
f  514 528 517
f  517 529 520
f  517 528 529
f  529 522 520
f  514 517 515
f  518 519 516
f  519 521 516
f  521 524 516
f  583 582 516
f  584 583 516
f  586 584 516
f  526 586 516
f  516 524 525
f  516 525 526
f  512 312 315
f  512 315 318
f  513 318 322
f  512 318 513
f  514 513 322
f  514 965 528
f  514 322 955
f  514 955 961
f  514 961 965
f  969 532 528
f  530 522 529
f  533 595 531
f  595 533 534
f  522 530 523
f  523 530 592
f  523 592 527
f  592 530 594
f  532 534 533
f  1106 535 1099
f  536 597 596
f  535 1106 1108
f  535 1108 601
f  536 599 597
f  535 601 600
f  471 508 473
f  473 508 574
f  574 577 575
f  577 574 508
f  509 579 578
f  580 578 579
f  478 578 580
f  585 478 580
f  587 479 585
f  527 592 587
f  588 587 592
f  588 592 593
f  589 479 588
f  479 587 588
f  603 588 593
f  591 604 654
f  604 655 654
f  603 593 596
f  603 596 598
f  598 596 597
f  603 598 602
f  603 602 1198
f  603 1205 605
f  603 606 604
f  655 604 664
f  604 606 664
f  603 605 606
f  389 463 419
f  466 644 642
f  647 428 644
f  428 647 659
f  476 643 475
f  477 479 646
f  477 646 645
f  479 658 646
f  646 659 647
f  402 407 1521
f  479 589 658
f  660 658 589
f  590 660 589
f  656 657 665
f  656 662 661
f  656 673 662
f  659 646 658
f  656 665 666
f  656 666 668
f  664 606 667
f  656 668 669
f  656 669 670
f  656 674 673
f  656 670 674
f  678 667 606
f  607 678 606
f  667 678 671
f  671 678 672
f  663 675 677
f  672 676 675
f  677 675 676
f  676 672 678
f  1521 407 427
f  1521 427 428
f  1 704 1097
f  1 1098 704
f  704 1098 1097
f  1097 22 18
f  1097 79 22
f  1097 80 79
f  1097 95 80
f  707 99 705
f  710 706 709
f  706 710 724
f  706 720 718
f  706 721 720
f  706 724 721
f  711 724 710
f  708 715 714
f  716 714 715
f  112 713 849
f  714 849 713
f  714 716 853
f  708 717 715
f  720 723 722
f  723 720 721
f  722 853 716
f  722 723 857
f  734 860 723
f  725 727 726
f  726 719 712
f  719 726 727
f  730 728 729
f  728 730 744
f  728 739 738
f  728 742 739
f  728 744 742
f  731 744 730
f  786 741 732
f  733 735 734
f  733 737 735
f  736 734 735
f  880 734 736
f  739 743 740
f  743 739 742
f  740 884 736
f  884 740 743
f  884 743 794
f  885 794 796
f  1097 96 95
f  1097 98 96
f  1097 99 98
f  1097 705 99
f  1097 706 705
f  1097 709 706
f  1097 725 709
f  1097 727 725
f  1097 728 727
f  1097 729 728
f  1097 785 729
f  785 787 786
f  741 786 787
f  791 789 790
f  789 791 804
f  789 799 798
f  789 801 799
f  789 804 801
f  792 804 791
f  807 803 793
f  796 794 795
f  788 795 794
f  788 797 795
f  800 885 796
f  799 802 800
f  802 799 801
f  806 808 807
f  803 807 808
f  809 815 814
f  810 811 805
f  812 805 811
f  810 813 811
f  849 714 851
f  714 853 851
f  850 863 862
f  851 854 852
f  854 851 853
f  852 877 850
f  877 852 854
f  855 877 854
f  722 857 853
f  723 859 857
f  859 723 860
f  857 859 858
f  858 878 856
f  878 858 859
f  218 865 868
f  868 869 218
f  863 877 866
f  867 875 871
f  871 875 872
f  850 877 863
f  866 877 867
f  875 867 877
f  872 876 874
f  872 875 876
f  874 944 873
f  861 887 879
f  734 880 860
f  880 736 884
f  881 860 880
f  860 881 886
f  882 886 881
f  885 888 883
f  884 794 885
f  888 885 800
f  222 945 213
f  936 196 939
f  939 196 943
f  196 945 943
f  873 944 222
f  874 876 944
f  946 310 933
f  933 310 934
f  879 944 876
f  945 222 944
f  879 887 944
f  937 957 935
f  938 957 937
f  940 957 938
f  971 943 945
f  971 958 943
f  950 957 947
f  935 957 950
f  947 957 949
f  949 957 952
f  954 952 957
f  953 321 951
f  321 953 322
f  955 322 953
f  941 957 940
f  942 957 941
f  954 957 958
f  971 956 954
f  971 954 958
f  971 966 963
f  966 971 967
f  971 969 967
f  971 959 956
f  971 960 959
f  971 963 960
f  964 963 966
f  964 962 963
f  971 990 969
f  967 969 968
f  944 887 890
f  976 974 975
f  972 974 981
f  981 974 984
f  983 985 982
f  984 974 986
f  986 974 976
f  985 988 982
f  988 989 982
f  989 994 982
f  992 991 982
f  996 992 982
f  994 995 982
f  995 997 982
f  997 996 982
f  986 976 987
f  987 977 999
f  977 987 976
f  999 977 1003
f  980 1004 978
f  999 1003 1000
f  1000 1001 998
f  1002 998 1001
f  1001 1000 1003
f  888 800 802
f  888 802 805
f  888 812 889
f  889 812 890
f  888 805 812
f  816 890 812
f  1097 944 890
f  1097 973 944
f  1097 974 973
f  1097 975 974
f  1097 979 975
f  979 1079 980
f  1004 980 1079
f  1081 1082 1005
f  1083 1005 1082
f  1081 1084 1082
f  1080 1086 1085
f  1097 787 785
f  1097 789 787
f  1097 790 789
f  1097 806 790
f  1097 808 806
f  1097 809 808
f  1097 815 809
f  1097 890 816
f  1097 816 815
f  1097 1079 979
f  1097 1080 1079
f  1097 1086 1080
f  1097 1087 1086
f  1097 1284 1087
f  1097 1293 1284
f  1097 1294 1293
f  1097 1497 1294
f  1097 1498 1497
f  968 528 965
f  968 969 528
f  969 534 532
f  969 535 534
f  970 1102 535
f  970 535 969
f  970 1104 1102
f  970 1112 1104
f  970 1116 1112
f  970 1117 1116
f  1100 535 1102
f  1099 535 1100
f  1103 1121 1105
f  1105 1121 1101
f  1101 1121 1107
f  1107 1121 1109
f  1109 1121 1194
f  1110 1121 1103
f  1111 1122 1110
f  1113 1122 1111
f  1114 1122 1113
f  1115 1122 1114
f  1118 1116 1117
f  1116 1118 1123
f  1110 1122 1121
f  1115 1119 1122
f  1120 1205 1119
f  1116 1215 1120
f  1116 1123 1215
f  1119 1205 1122
f  1215 1205 1120
f  993 1117 970
f  998 1117 993
f  998 1002 1117
f  1002 1125 1117
f  1005 1125 1002
f  1005 1083 1125
f  1083 1138 1125
f  1083 1142 1138
f  1124 1126 1127
f  1127 1126 1130
f  1125 1139 1126
f  1130 1126 1132
f  1126 1139 1132
f  1129 1131 1128
f  1217 1216 1128
f  1219 1217 1128
f  1131 1133 1128
f  1133 1135 1128
f  1135 1136 1128
f  1136 1137 1128
f  1220 1219 1128
f  1137 1220 1128
f  1139 1125 1138
f  1132 1139 1134
f  1140 1134 1139
f  1143 1225 1141
f  1134 1140 1144
f  1144 1140 1145
f  1140 1224 1145
f  1193 601 1108
f  601 1193 602
f  1196 602 1193
f  1198 602 1196
f  1194 1121 1195
f  603 1198 1203
f  603 1203 1204
f  603 1204 1205
f  1195 1121 1197
f  1197 1121 1199
f  1199 1121 1200
f  1200 1202 1201
f  1202 1200 1121
f  1122 1205 1204
f  1206 605 1205
f  605 1206 1207
f  1207 1211 1209
f  1209 1349 1208
f  1209 1212 1349
f  1207 1206 1210
f  1212 1209 1211
f  1211 1207 1210
f  1218 1295 1206
f  1145 1222 1221
f  1223 1221 1222
f  1222 1145 1224
f  1221 1295 1218
f  1221 1223 1295
f  1226 1295 1223
f  1210 1206 1227
f  1227 1206 1231
f  1231 1206 1232
f  1229 1359 1228
f  1295 1232 1206
f  1230 1360 1229
f  1233 1360 1230
f  1234 1360 1233
f  1232 1297 1237
f  1087 1283 1083
f  1083 1283 1142
f  1087 1284 1283
f  1142 1283 1143
f  1225 1143 1283
f  1285 1289 1226
f  1285 1291 1289
f  1284 1293 1292
f  1290 1226 1289
f  1295 1226 1290
f  1294 1296 1290
f  1294 1303 1296
f  1295 1290 1296
f  1232 1295 1297
f  1298 1237 1297
f  1299 1301 1302
f  1299 1300 1301
f  1299 1302 1298
f  1305 1298 1302
f  1306 1298 1305
f  1237 1298 1310
f  1303 1294 1304
f  1304 1294 1308
f  1294 1311 1308
f  1307 1298 1306
f  1309 1298 1307
f  1400 1237 1310
f  1310 1298 1309
f  1311 1294 1497
f  1308 1314 1312
f  1314 1308 1311
f  1312 1316 1313
f  1312 1314 1316
f  1428 1313 1316
f  1315 1498 1317
f  1498 1318 1317
f  1318 1498 1430
f  402 1521 1098
f  1208 1349 1351
f  1208 1355 1354
f  1208 1351 1355
f  1355 1357 1356
f  1357 1355 1351
f  1358 1356 1357
f  1364 1356 1358
f  1213 1359 1214
f  1214 1359 1350
f  1228 1359 1213
f  1350 1359 1352
f  1352 1359 1353
f  1353 1359 1361
f  1229 1360 1359
f  1235 1360 1234
f  1235 1236 1360
f  1237 1360 1236
f  1361 1359 1362
f  1362 1359 1363
f  1363 1359 1365
f  1368 1365 1359
f  1365 1368 1366
f  1360 1408 1369
f  1521 428 659
f  1521 659 663
f  1237 1391 1360
f  1391 1237 1395
f  1395 1237 1397
f  1397 1237 1399
f  1392 1360 1391
f  1360 1392 1393
f  1396 1394 1392
f  1393 1392 1394
f  1399 1237 1400
f  1398 1402 1401
f  1401 1402 1423
f  1401 1423 1406
f  1403 1394 1396
f  1404 1394 1403
f  1405 1394 1404
f  1407 1394 1405
f  1420 1394 1407
f  1408 1360 1393
f  1394 1410 1409
f  1410 1394 1411
f  1411 1394 1412
f  1412 1394 1416
f  1416 1394 1417
f  1419 1394 1420
f  1417 1394 1419
f  1313 1428 1422
f  1422 1429 1423
f  1423 1429 1406
f  1406 1429 1424
f  1424 1426 1425
f  1424 1503 1427
f  1426 1424 1427
f  1422 1428 1429
f  1431 1424 1429
f  1432 1424 1431
f  1503 1424 1432
f  1506 1427 1503
f  1507 1427 1506
f  1425 1434 1421
f  1434 1425 1426
f  1427 1435 1433
f  1435 1427 1436
f  1436 1427 1437
f  1437 1427 1438
f  1438 1427 1441
f  1442 1427 1507
f  1441 1427 1442
f  1521 663 677
f  1521 677 1356
f  1521 1356 1364
f  1521 1364 1367
f  1521 1367 1369
f  1097 1098 1521
f  1430 1498 1501
f  1097 1521 1498
f  1521 1501 1498
f  1521 1502 1501
f  1521 1504 1502
f  1521 1505 1504
f  1521 1508 1505
f  1521 1510 1508
f  1521 1369 1408
f  1521 1408 1413
f  1521 1413 1414
f  1521 1414 1415
f  1521 1415 1418
f  1521 1418 1421
f  1521 1421 1434
f  1521 1434 1439
f  1521 1439 1440
f  1521 1440 1443
f  1521 1443 1509
f  1521 1509 1510
f  41 4 3
f  42 5 4
f  43 7 5
f  54 3 16
f  44 17 6
f  45 12 7
f  46 6 8
f  47 29 9
f  41 42 4
f  42 43 5
f  41 3 54
f  44 55 17
f  44 6 46
f  41 43 42
f  41 54 43
f  43 44 45
f  43 54 44
f  44 54 55
f  43 45 7
f  51 47 9
f  46 8 68
f  45 44 46
f  45 46 47
f  45 47 51
f  47 46 67
f  48 11 10
f  50 10 12
f  51 9 13
f  49 15 11
f  52 13 14
f  53 14 15
f  48 49 11
f  48 10 50
f  48 50 49
f  49 50 51
f  45 50 12
f  49 53 15
f  51 13 52
f  52 14 53
f  45 51 50
f  49 51 53
f  51 52 53
f  55 16 17
f  56 19 18
f  57 20 19
f  58 24 20
f  60 18 22
f  59 23 21
f  61 22 23
f  62 35 24
f  63 21 25
f  64 83 26
f  54 16 55
f  56 57 19
f  56 18 60
f  57 58 20
f  59 21 63
f  60 22 61
f  59 61 23
f  56 58 57
f  56 60 58
f  58 60 59
f  58 59 62
f  59 60 61
f  58 62 24
f  64 26 74
f  63 25 118
f  62 64 74
f  62 59 63
f  62 63 64
f  63 117 64
f  68 8 30
f  65 28 27
f  67 27 29
f  66 32 28
f  69 30 31
f  70 31 32
f  71 34 33
f  73 33 35
f  72 38 34
f  74 26 36
f  75 36 37
f  76 37 38
f  77 40 39
f  47 67 29
f  65 66 28
f  65 27 67
f  68 30 69
f  66 70 32
f  69 31 70
f  71 72 34
f  71 33 73
f  46 68 67
f  65 67 66
f  66 67 68
f  66 68 70
f  68 69 70
f  71 73 72
f  72 73 74
f  73 35 62
f  74 36 75
f  72 76 38
f  75 37 76
f  64 117 83
f  77 78 40
f  77 39 117
f  73 62 74
f  72 74 76
f  74 75 76
f  77 117 78
f  114 79 80
f  113 89 79
f  116 80 82
f  115 93 81
f  113 123 89
f  113 79 114
f  114 80 116
f  115 81 124
f  129 116 82
f  113 114 123
f  114 115 123
f  114 116 115
f  115 116 127
f  131 127 116
f  118 25 84
f  117 39 83
f  78 86 40
f  119 84 85
f  120 85 86
f  121 88 87
f  123 87 89
f  122 92 88
f  124 81 90
f  125 90 91
f  126 91 92
f  127 94 93
f  118 84 119
f  78 120 86
f  119 85 120
f  121 122 88
f  121 87 123
f  122 126 92
f  63 118 117
f  78 117 118
f  78 118 120
f  118 119 120
f  121 123 122
f  122 123 124
f  122 124 126
f  124 90 125
f  125 91 126
f  115 127 93
f  127 128 94
f  115 124 123
f  124 125 126
f  130 95 96
f  129 82 95
f  131 103 97
f  138 96 104
f  133 98 99
f  132 109 98
f  129 95 130
f  131 97 128
f  130 96 138
f  129 131 116
f  129 130 138
f  129 138 131
f  132 98 133
f  132 143 109
f  133 99 747
f  134 100 144
f  132 133 143
f  133 134 143
f  128 97 94
f  135 102 101
f  137 101 103
f  136 107 102
f  139 104 105
f  140 108 106
f  141 105 107
f  143 106 109
f  142 112 108
f  144 100 110
f  145 110 111
f  146 111 112
f  135 136 102
f  131 137 103
f  135 101 137
f  136 141 107
f  138 104 139
f  131 128 127
f  131 138 137
f  135 137 136
f  136 137 138
f  136 138 141
f  138 139 141
f  140 142 108
f  139 105 141
f  140 106 143
f  142 146 112
f  144 110 145
f  145 111 146
f  140 143 142
f  142 143 144
f  142 144 146
f  134 144 143
f  144 145 146
f  168 147 148
f  175 149 155
f  170 148 150
f  169 151 149
f  171 152 151
f  167 147 168
f  168 148 170
f  169 149 175
f  170 150 323
f  169 171 151
f  171 172 152
f  167 168 175
f  168 169 175
f  168 170 169
f  169 170 171
f  170 172 171
f  173 158 153
f  167 154 147
f  174 153 154
f  176 155 156
f  177 156 157
f  178 161 158
f  179 157 159
f  180 159 160
f  181 162 161
f  183 160 163
f  182 166 162
f  184 163 164
f  185 164 165
f  186 278 166
f  173 153 174
f  173 178 158
f  167 174 154
f  176 175 155
f  176 156 177
f  177 157 179
f  167 176 174
f  174 176 177
f  167 175 176
f  173 174 177
f  173 177 178
f  178 181 161
f  179 159 180
f  180 160 183
f  181 182 162
f  183 163 184
f  182 186 166
f  184 164 185
f  177 179 178
f  179 181 178
f  179 180 181
f  181 180 182
f  180 183 182
f  182 183 186
f  183 184 186
f  184 185 186
f  185 340 186
f  224 188 187
f  225 189 188
f  228 187 191
f  227 192 190
f  230 190 193
f  226 196 189
f  229 191 192
f  237 193 200
f  224 225 188
f  224 187 228
f  225 226 189
f  227 190 230
f  229 192 227
f  228 191 229
f  230 193 237
f  224 226 225
f  224 228 226
f  228 227 226
f  226 227 230
f  226 230 231
f  228 229 227
f  230 237 231
f  231 237 247
f  231 210 194
f  232 194 195
f  233 211 196
f  231 194 232
f  231 247 210
f  226 233 196
f  247 232 195
f  226 231 233
f  231 232 233
f  233 248 211
f  232 248 233
f  234 198 197
f  235 199 198
f  236 200 199
f  239 197 202
f  238 203 201
f  240 202 203
f  241 205 204
f  242 206 205
f  245 204 208
f  243 219 206
f  251 207 214
f  246 208 209
f  244 209 207
f  234 235 198
f  234 197 239
f  235 236 199
f  237 200 236
f  238 201 248
f  240 203 238
f  239 202 240
f  241 242 205
f  234 236 235
f  234 239 236
f  237 236 238
f  247 237 238
f  239 238 236
f  239 240 238
f  241 204 245
f  242 243 206
f  244 207 251
f  246 209 244
f  245 208 246
f  891 254 217
f  241 243 242
f  241 244 243
f  241 245 244
f  243 244 251
f  243 251 252
f  245 246 244
f  891 904 254
f  247 195 210
f  248 201 211
f  249 213 212
f  257 215 220
f  252 216 215
f  254 214 217
f  253 218 216
f  255 864 218
f  256 212 219
f  250 222 213
f  258 220 221
f  260 221 223
f  259 873 222
f  912 223 870
f  247 238 248
f  247 248 232
f  249 250 213
f  243 256 219
f  252 215 257
f  251 214 254
f  252 253 216
f  253 255 218
f  255 906 864
f  243 252 256
f  252 257 256
f  251 254 253
f  251 253 252
f  253 254 255
f  254 904 255
f  255 904 906
f  249 212 256
f  250 259 222
f  257 220 258
f  258 221 260
f  260 223 912
f  259 915 873
f  249 256 250
f  250 256 259
f  256 257 259
f  257 258 259
f  258 260 259
f  259 260 915
f  260 912 915
f  323 150 261
f  172 262 152
f  324 263 262
f  327 261 265
f  325 264 263
f  328 267 266
f  329 268 267
f  332 266 270
f  331 271 269
f  333 270 271
f  172 324 262
f  324 325 263
f  323 261 327
f  325 326 264
f  327 265 335
f  328 329 267
f  328 266 332
f  329 330 268
f  170 323 172
f  172 323 324
f  323 325 324
f  323 327 325
f  325 327 326
f  328 330 329
f  328 331 330
f  332 270 333
f  331 333 271
f  328 332 331
f  331 332 333
f  326 272 264
f  335 265 273
f  334 273 272
f  330 283 268
f  336 279 274
f  337 274 275
f  338 165 276
f  339 276 277
f  340 280 278
f  341 277 279
f  342 275 280
f  343 282 281
f  345 281 283
f  344 297 282
f  346 269 284
f  347 287 285
f  348 284 286
f  349 288 287
f  351 286 289
f  350 290 288
f  352 291 290
f  354 289 292
f  355 292 293
f  356 285 294
f  357 294 295
f  358 295 296
f  353 298 291
f  360 299 298
f  361 301 299
f  362 293 300
f  364 300 302
f  363 296 301
f  359 302 297
f  326 334 272
f  334 335 273
f  326 327 335
f  326 335 334
f  330 347 345
f  341 279 336
f  336 274 337
f  337 275 342
f  185 165 338
f  338 276 339
f  186 340 278
f  341 339 277
f  340 342 280
f  330 345 283
f  343 344 282
f  343 281 345
f  341 336 337
f  185 338 340
f  338 339 340
f  340 339 342
f  341 342 339
f  341 337 342
f  343 345 344
f  344 345 359
f  331 269 346
f  346 284 348
f  347 285 356
f  347 349 287
f  348 286 351
f  349 350 288
f  351 289 354
f  350 352 290
f  352 353 291
f  354 292 355
f  355 293 362
f  330 331 346
f  330 346 347
f  346 349 347
f  346 348 349
f  348 351 350
f  349 348 350
f  350 351 352
f  351 354 352
f  352 354 353
f  354 355 353
f  356 294 357
f  344 359 297
f  357 295 358
f  353 360 298
f  360 361 299
f  363 301 361
f  362 300 364
f  363 358 296
f  359 364 302
f  347 356 345
f  345 356 359
f  356 357 359
f  357 358 359
f  353 355 360
f  360 355 362
f  360 362 361
f  362 364 361
f  359 358 364
f  363 364 358
f  363 361 364
f  365 304 303
f  366 305 304
f  369 303 307
f  368 308 306
f  370 307 308
f  372 309 310
f  365 366 304
f  365 303 369
f  366 367 305
f  368 370 308
f  369 307 370
f  365 367 366
f  365 369 367
f  367 369 368
f  368 369 370
f  371 309 372
f  375 313 305
f  373 312 311
f  375 311 313
f  374 315 312
f  376 306 314
f  377 316 315
f  371 314 309
f  378 319 316
f  379 318 317
f  382 310 320
f  381 317 319
f  380 322 318
f  383 320 321
f  384 321 322
f  367 375 305
f  368 306 376
f  371 376 314
f  367 368 376
f  373 311 375
f  373 374 312
f  374 377 315
f  367 376 375
f  373 375 374
f  374 375 377
f  376 378 377
f  376 377 375
f  377 378 316
f  372 310 382
f  371 372 376
f  372 378 376
f  372 382 378
f  379 317 381
f  379 380 318
f  378 381 319
f  380 384 322
f  382 320 383
f  383 321 384
f  379 381 380
f  378 382 381
f  380 381 382
f  380 382 384
f  382 383 384
f  390 387 386
f  391 388 387
f  390 391 387
f  390 386 480
f  390 392 391
f  390 480 392
f  391 392 388
f  400 395 396
f  399 394 395
f  401 396 397
f  399 395 400
f  399 398 394
f  400 396 401
f  399 433 398
f  399 400 433
f  398 403 394
f  408 404 403
f  409 405 404
f  410 406 405
f  411 407 406
f  398 408 403
f  408 409 404
f  408 410 409
f  398 433 408
f  409 410 405
f  410 411 406
f  411 412 407
f  408 411 410
f  408 412 411
f  408 431 412
f  420 397 413
f  421 413 414
f  422 414 415
f  401 397 420
f  420 413 421
f  421 414 422
f  401 420 421
f  400 401 433
f  401 421 422
f  401 422 433
f  425 418 388
f  426 389 419
f  392 425 388
f  393 389 426
f  392 393 426
f  392 426 425
f  423 417 416
f  425 416 418
f  424 642 417
f  423 416 425
f  423 424 417
f  424 648 642
f  423 425 424
f  424 425 648
f  412 427 407
f  432 430 428
f  431 428 427
f  433 415 429
f  434 429 430
f  408 434 432
f  408 433 434
f  412 431 427
f  432 434 430
f  431 432 428
f  408 432 431
f  422 415 433
f  433 429 434
f  448 446 435
f  449 437 436
f  450 438 437
f  452 441 439
f  453 439 440
f  455 436 442
f  454 443 441
f  456 444 443
f  451 435 438
f  458 440 445
f  459 467 446
f  460 445 447
f  486 447 468
f  448 435 451
f  448 459 446
f  450 437 449
f  450 451 438
f  452 439 453
f  449 436 455
f  452 454 441
f  454 456 443
f  455 442 537
f  456 457 444
f  450 449 452
f  449 454 452
f  450 453 451
f  450 452 453
f  449 455 454
f  454 455 456
f  455 457 456
f  458 445 460
f  453 440 458
f  459 485 467
f  460 447 486
f  448 451 458
f  451 453 458
f  448 458 459
f  458 460 459
f  459 460 485
f  460 486 485
f  480 386 461
f  481 461 462
f  393 462 389
f  482 463 464
f  483 464 465
f  480 461 481
f  393 480 481
f  393 481 462
f  392 480 393
f  426 482 483
f  482 464 483
f  483 465 649
f  485 469 467
f  488 468 470
f  487 472 469
f  489 470 471
f  491 471 473
f  490 576 472
f  486 468 488
f  485 487 469
f  488 470 489
f  487 490 472
f  489 471 491
f  485 486 487
f  486 488 487
f  487 488 490
f  488 489 490
f  489 491 490
f  491 610 490
f  492 475 474
f  496 474 478
f  493 476 475
f  497 478 479
f  495 479 477
f  492 493 475
f  492 474 496
f  492 494 493
f  492 496 494
f  493 494 476
f  494 496 495
f  496 478 497
f  495 496 497
f  495 497 479
f  537 442 498
f  457 499 444
f  538 500 499
f  540 498 501
f  539 502 500
f  541 503 502
f  543 501 504
f  542 504 503
f  544 506 505
f  545 507 506
f  546 510 507
f  547 577 508
f  548 508 509
f  615 581 510
f  550 505 512
f  549 513 511
f  551 512 513
f  549 511 514
f  552 514 515
f  553 518 516
f  554 515 517
f  555 519 518
f  616 516 582
f  557 517 520
f  556 521 519
f  558 524 521
f  559 520 522
f  560 522 523
f  561 525 524
f  562 526 525
f  564 523 527
f  457 538 499
f  538 539 500
f  537 498 540
f  539 541 502
f  541 542 503
f  540 501 543
f  542 543 504
f  544 545 506
f  545 546 507
f  544 505 550
f  455 537 457
f  457 537 538
f  537 539 538
f  537 540 539
f  539 540 541
f  541 540 543
f  541 543 542
f  544 546 545
f  544 549 546
f  547 508 548
f  546 615 510
f  611 547 548
f  546 553 615
f  549 551 513
f  550 512 551
f  549 514 552
f  544 550 549
f  549 550 551
f  546 549 552
f  546 552 553
f  552 515 554
f  553 555 518
f  554 517 557
f  555 556 519
f  553 516 616
f  557 520 559
f  556 558 521
f  558 561 524
f  559 522 560
f  561 562 525
f  562 563 526
f  560 523 564
f  564 527 621
f  552 555 553
f  552 554 555
f  555 554 556
f  554 557 556
f  615 553 616
f  556 557 558
f  557 559 558
f  558 559 561
f  559 560 561
f  561 560 562
f  560 564 562
f  562 564 563
f  564 621 563
f  565 529 528
f  566 530 529
f  569 528 532
f  568 533 531
f  570 532 533
f  628 594 530
f  629 531 595
f  630 536 596
f  571 595 534
f  572 534 535
f  573 599 536
f  634 535 600
f  565 566 529
f  565 528 569
f  566 567 530
f  568 570 533
f  569 532 570
f  568 531 629
f  565 567 566
f  565 569 567
f  567 568 629
f  567 569 568
f  568 569 570
f  567 628 530
f  629 595 571
f  567 629 628
f  629 573 630
f  571 534 572
f  572 535 634
f  629 571 572
f  573 536 630
f  573 633 599
f  629 572 573
f  572 634 573
f  573 634 633
f  608 473 574
f  609 574 575
f  610 578 576
f  611 575 577
f  612 509 578
f  613 580 579
f  615 579 581
f  614 585 580
f  617 582 583
f  618 583 584
f  620 584 586
f  563 586 526
f  619 587 585
f  621 527 587
f  491 473 608
f  608 574 609
f  490 610 576
f  611 577 547
f  611 609 575
f  548 509 612
f  612 578 610
f  613 614 580
f  613 579 615
f  491 608 610
f  608 609 610
f  611 612 609
f  611 548 612
f  609 612 610
f  613 615 614
f  615 619 614
f  616 582 617
f  614 619 585
f  617 583 618
f  618 584 620
f  620 586 563
f  619 621 587
f  615 616 619
f  616 617 619
f  617 618 619
f  620 563 621
f  618 620 621
f  618 621 619
f  622 589 588
f  623 590 589
f  637 588 603
f  625 604 591
f  679 591 654
f  622 623 589
f  622 624 623
f  622 588 637
f  622 637 625
f  625 637 638
f  623 624 590
f  625 591 679
f  625 638 604
f  622 625 624
f  624 625 679
f  624 679 681
f  626 593 592
f  628 592 594
f  627 596 593
f  631 598 597
f  633 597 599
f  632 602 598
f  635 600 601
f  636 601 602
f  626 627 593
f  626 592 628
f  627 630 596
f  626 628 627
f  628 630 627
f  628 629 630
f  631 632 598
f  631 597 633
f  632 636 602
f  634 600 635
f  635 601 636
f  631 633 632
f  633 634 632
f  634 636 632
f  634 635 636
f  638 603 604
f  639 606 605
f  640 607 606
f  637 603 638
f  639 640 606
f  639 605 1252
f  639 641 640
f  639 1252 641
f  640 641 607
f  426 419 463
f  648 466 642
f  484 644 466
f  426 463 482
f  484 466 648
f  426 483 484
f  426 484 648
f  483 649 484
f  425 426 648
f  494 643 476
f  649 465 643
f  651 477 645
f  495 477 651
f  494 495 649
f  494 649 643
f  484 650 644
f  484 649 650
f  495 650 649
f  495 651 650
f  650 647 644
f  652 645 646
f  653 646 647
f  650 653 647
f  650 651 653
f  651 645 652
f  652 646 653
f  651 652 653
f  624 660 590
f  680 654 655
f  681 657 656
f  682 665 657
f  686 656 661
f  679 654 680
f  681 682 657
f  624 681 685
f  679 682 681
f  679 680 682
f  624 685 660
f  681 656 686
f  681 686 685
f  683 659 658
f  685 658 660
f  684 663 659
f  687 661 662
f  683 658 685
f  683 684 659
f  683 685 684
f  686 661 687
f  687 662 698
f  684 688 663
f  684 685 688
f  685 686 688
f  686 687 688
f  687 698 688
f  689 655 664
f  690 666 665
f  691 668 666
f  692 664 667
f  696 667 671
f  693 669 668
f  694 670 669
f  695 674 670
f  641 678 607
f  697 671 672
f  680 655 689
f  682 690 665
f  690 691 666
f  689 664 692
f  691 693 668
f  692 667 696
f  680 689 690
f  682 680 690
f  690 689 691
f  689 692 691
f  691 692 693
f  692 696 693
f  693 694 669
f  694 695 670
f  700 697 672
f  696 694 693
f  696 697 694
f  694 697 695
f  695 697 700
f  641 1253 703
f  696 671 697
f  641 703 678
f  698 662 673
f  699 673 674
f  700 675 663
f  700 672 675
f  701 677 676
f  703 676 678
f  702 1356 677
f  698 673 699
f  699 674 695
f  688 700 663
f  688 698 700
f  698 699 700
f  699 695 700
f  701 702 677
f  701 676 703
f  701 703 702
f  702 703 1375
f  746 705 706
f  747 99 707
f  134 713 100
f  745 707 705
f  748 717 708
f  749 710 709
f  750 711 710
f  758 706 718
f  751 724 711
f  759 712 719
f  745 705 746
f  747 707 745
f  754 748 708
f  133 747 134
f  134 747 753
f  747 748 753
f  747 745 748
f  745 746 758
f  745 758 748
f  749 750 710
f  749 709 765
f  750 751 711
f  749 751 750
f  749 765 751
f  746 706 758
f  752 712 759
f  751 764 724
f  751 752 759
f  751 759 764
f  753 714 713
f  754 708 714
f  755 716 715
f  757 715 717
f  756 722 716
f  760 718 720
f  762 720 722
f  761 723 721
f  764 721 724
f  763 734 723
f  134 753 713
f  753 754 714
f  755 756 716
f  753 748 754
f  748 757 717
f  755 715 757
f  756 762 722
f  758 718 760
f  760 720 762
f  761 763 723
f  761 721 764
f  763 774 734
f  748 758 757
f  755 757 756
f  756 757 758
f  756 758 762
f  758 760 762
f  761 764 763
f  763 764 774
f  759 774 764
f  765 709 725
f  752 726 712
f  766 725 726
f  767 719 727
f  768 727 728
f  769 730 729
f  770 731 730
f  817 729 785
f  772 786 732
f  773 737 733
f  778 728 738
f  771 744 731
f  781 732 741
f  765 725 766
f  752 766 726
f  751 765 752
f  752 765 766
f  767 759 719
f  773 733 774
f  767 768 759
f  773 759 768
f  767 727 768
f  769 770 730
f  769 729 817
f  770 771 731
f  769 771 770
f  769 817 771
f  771 817 772
f  768 728 778
f  772 732 781
f  771 784 744
f  773 768 778
f  771 772 781
f  771 781 784
f  774 733 734
f  775 736 735
f  777 735 737
f  776 740 736
f  779 738 739
f  780 739 740
f  782 743 742
f  784 742 744
f  783 794 743
f  775 776 736
f  775 735 777
f  773 774 759
f  775 777 776
f  773 777 737
f  778 738 779
f  776 780 740
f  779 739 780
f  782 783 743
f  782 742 784
f  783 826 794
f  773 778 777
f  776 777 778
f  776 778 780
f  778 779 780
f  782 784 783
f  783 784 826
f  784 781 826
f  818 785 786
f  819 741 787
f  820 797 788
f  821 787 789
f  822 791 790
f  823 792 791
f  838 790 806
f  825 807 793
f  830 789 798
f  824 804 792
f  835 793 803
f  817 785 818
f  772 818 786
f  819 787 821
f  772 817 818
f  781 741 819
f  826 820 788
f  781 819 821
f  781 821 820
f  822 823 791
f  823 824 792
f  822 790 838
f  825 839 807
f  822 824 823
f  822 838 824
f  824 838 825
f  825 838 839
f  821 789 830
f  825 793 835
f  824 836 804
f  821 830 820
f  824 825 835
f  824 835 836
f  826 788 794
f  827 796 795
f  829 795 797
f  828 800 796
f  831 798 799
f  832 799 800
f  833 802 801
f  836 801 804
f  834 805 802
f  820 829 797
f  827 828 796
f  827 795 829
f  781 820 826
f  820 830 829
f  827 829 828
f  828 829 830
f  828 832 800
f  830 798 831
f  831 799 832
f  833 834 802
f  833 801 836
f  834 837 805
f  828 830 832
f  830 831 832
f  833 836 834
f  834 836 837
f  835 837 836
f  839 806 807
f  841 808 809
f  840 803 808
f  842 813 810
f  846 809 814
f  838 806 839
f  840 808 841
f  835 803 840
f  841 809 846
f  842 810 837
f  835 840 841
f  835 841 842
f  841 846 842
f  837 810 805
f  843 812 811
f  845 811 813
f  844 816 812
f  847 814 815
f  848 815 816
f  842 845 813
f  843 844 812
f  843 811 845
f  835 842 837
f  842 846 845
f  843 845 844
f  844 845 846
f  844 846 848
f  846 814 847
f  844 848 816
f  847 815 848
f  846 847 848
f  891 217 849
f  904 850 862
f  893 849 851
f  894 851 852
f  895 854 853
f  892 852 850
f  896 855 854
f  897 877 855
f  899 853 857
f  898 858 856
f  900 857 858
f  902 859 860
f  901 878 859
f  891 849 893
f  904 892 850
f  894 852 892
f  893 851 894
f  895 896 854
f  895 853 899
f  896 897 855
f  891 893 892
f  891 892 904
f  893 894 892
f  895 897 896
f  900 858 898
f  899 857 900
f  898 856 920
f  901 859 902
f  895 899 897
f  899 898 897
f  899 900 898
f  897 898 920
f  901 902 920
f  902 903 920
f  905 862 863
f  906 865 864
f  908 863 866
f  909 866 867
f  907 868 865
f  910 869 868
f  911 870 869
f  913 867 871
f  914 871 872
f  915 874 873
f  916 872 874
f  917 876 875
f  919 875 877
f  918 879 876
f  920 856 878
f  921 861 879
f  904 862 905
f  905 863 908
f  906 907 865
f  908 866 909
f  907 910 868
f  910 911 869
f  912 870 911
f  909 867 913
f  913 871 914
f  916 914 872
f  897 919 877
f  904 905 906
f  906 905 907
f  905 908 907
f  907 908 909
f  907 909 910
f  910 913 911
f  912 911 916
f  913 914 911
f  911 914 916
f  910 909 913
f  915 916 874
f  917 918 876
f  917 875 919
f  912 916 915
f  917 919 918
f  918 919 921
f  901 920 878
f  903 861 921
f  897 920 919
f  903 921 920
f  918 921 879
f  919 920 921
f  922 881 880
f  923 882 881
f  924 886 882
f  926 880 884
f  927 884 885
f  925 885 883
f  925 883 888
f  922 923 881
f  922 880 926
f  923 924 882
f  902 860 928
f  927 885 925
f  926 884 927
f  922 924 923
f  902 928 903
f  922 926 924
f  926 925 924
f  926 927 925
f  924 925 928
f  903 887 861
f  928 860 886
f  929 890 887
f  931 888 889
f  932 889 890
f  924 928 886
f  903 929 887
f  925 888 930
f  903 928 929
f  925 929 928
f  925 930 929
f  930 888 931
f  929 932 890
f  931 889 932
f  929 930 932
f  930 931 932
f  1007 933 934
f  1023 935 950
f  1009 934 936
f  1008 937 935
f  1012 936 939
f  1010 938 937
f  1011 940 938
f  1013 941 940
f  1014 942 941
f  1016 939 943
f  1017 945 944
f  1018 971 945
f  1006 933 1007
f  1008 935 1023
f  1007 934 1009
f  1008 1010 937
f  1006 1007 1023
f  1007 1008 1023
f  1007 1009 1008
f  1008 1009 1010
f  1009 936 1012
f  1010 1011 938
f  1011 1013 940
f  1012 939 1016
f  1013 1014 941
f  1014 1015 942
f  1016 943 1031
f  1017 1018 945
f  1018 1044 971
f  1009 1012 1011
f  1009 1011 1010
f  1011 1012 1013
f  1012 1014 1013
f  1012 1016 1014
f  1014 1016 1015
f  1017 1044 1018
f  1019 948 946
f  1006 946 933
f  1020 950 947
f  1021 951 948
f  1022 947 949
f  1024 953 951
f  1025 949 952
f  1025 952 954
f  1026 955 953
f  1029 954 956
f  1028 961 955
f  1032 956 959
f  1015 957 942
f  1031 943 958
f  1030 958 957
f  1039 964 966
f  1033 959 960
f  1036 960 963
f  1034 965 961
f  1035 963 962
f  1037 962 964
f  1038 968 965
f  1040 966 967
f  1041 967 968
f  1042 970 969
f  1063 969 990
f  1006 1019 946
f  1023 950 1020
f  1022 1020 947
f  1019 1021 948
f  1022 949 1025
f  1006 1020 1019
f  1006 1023 1020
f  1019 1020 1022
f  1019 1022 1021
f  1021 1022 1024
f  1021 1024 951
f  1024 1026 953
f  1025 954 1027
f  1027 954 1029
f  1026 1028 955
f  1029 956 1032
f  1028 1034 961
f  1022 1025 1024
f  1024 1025 1026
f  1026 1025 1027
f  1026 1027 1028
f  1027 1029 1028
f  1028 1029 1034
f  1029 1032 1034
f  1015 1030 957
f  1030 1031 958
f  1015 1016 1031
f  1015 1031 1030
f  1039 1037 964
f  1032 959 1033
f  1033 960 1036
f  1034 1038 965
f  1036 963 1035
f  1037 1035 962
f  1038 1041 968
f  1039 966 1040
f  1040 967 1041
f  1042 969 1063
f  1042 1043 970
f  1032 1033 1034
f  1033 1036 1038
f  1034 1033 1038
f  1036 1035 1038
f  1035 1041 1038
f  1037 1041 1035
f  1039 1040 1037
f  1037 1040 1041
f  1042 1063 1043
f  1046 944 973
f  1045 974 972
f  1047 973 974
f  1048 976 975
f  1049 977 976
f  1052 975 979
f  1051 980 978
f  1053 979 980
f  1017 944 1046
f  1045 1047 974
f  1046 973 1047
f  1017 1045 1044
f  1017 1046 1045
f  1045 1046 1047
f  1048 1049 976
f  1049 1050 977
f  1048 975 1052
f  1052 979 1053
f  1051 1053 980
f  1048 1050 1049
f  1048 1052 1050
f  1050 1052 1051
f  1051 1052 1053
f  1054 972 981
f  1055 983 982
f  1057 981 984
f  1056 985 983
f  1059 984 986
f  1058 988 985
f  1060 986 987
f  1061 989 988
f  1063 990 971
f  1064 982 991
f  1043 993 970
f  1065 991 992
f  1062 994 989
f  1067 995 994
f  1068 997 995
f  1069 992 996
f  1070 996 997
f  1066 998 993
f  1072 987 999
f  1073 999 1000
f  1071 1000 998
f  1074 1002 1001
f  1076 1001 1003
f  1075 1005 1002
f  1076 1003 977
f  1077 978 1004
f  1044 1063 971
f  1045 972 1054
f  1054 981 1057
f  1055 1056 983
f  1055 982 1064
f  1057 984 1059
f  1056 1058 985
f  1058 1061 988
f  1059 986 1060
f  1061 1062 989
f  1044 1045 1054
f  1044 1054 1055
f  1044 1055 1063
f  1054 1056 1055
f  1054 1057 1056
f  1057 1058 1056
f  1057 1059 1058
f  1059 1061 1058
f  1059 1060 1061
f  1061 1060 1062
f  1060 1072 1062
f  1064 991 1065
f  1043 1066 993
f  1062 1067 994
f  1067 1068 995
f  1070 997 1068
f  1065 992 1069
f  1070 1069 996
f  1066 1071 998
f  1055 1064 1063
f  1043 1063 1066
f  1063 1064 1066
f  1064 1065 1066
f  1062 1072 1067
f  1067 1073 1068
f  1068 1073 1071
f  1065 1069 1066
f  1066 1069 1071
f  1070 1071 1069
f  1070 1068 1071
f  1060 987 1072
f  1072 999 1073
f  1050 1076 977
f  1051 978 1077
f  1050 1051 1077
f  1071 1073 1000
f  1074 1001 1076
f  1074 1075 1002
f  1075 1078 1005
f  1067 1072 1073
f  1074 1076 1075
f  1050 1077 1076
f  1077 1078 1076
f  1075 1076 1078
f  1089 1079 1080
f  1088 1079 1089
f  1088 1004 1079
f  1090 1084 1081
f  1078 1081 1005
f  1091 1083 1082
f  1094 1080 1085
f  1093 1082 1084
f  1092 1087 1083
f  1095 1085 1086
f  1096 1086 1087
f  1088 1077 1004
f  1078 1090 1081
f  1089 1080 1094
f  1088 1089 1077
f  1089 1090 1077
f  1089 1094 1090
f  1091 1092 1083
f  1090 1093 1084
f  1091 1082 1093
f  1094 1085 1095
f  1092 1096 1087
f  1077 1090 1078
f  1090 1094 1093
f  1091 1093 1092
f  1092 1093 1094
f  1092 1094 1096
f  1095 1086 1096
f  1094 1095 1096
f  1147 1099 1100
f  1148 1105 1101
f  1149 1100 1102
f  1151 1102 1104
f  1150 1110 1103
f  1152 1103 1105
f  1146 1106 1099
f  1153 1108 1106
f  1154 1101 1107
f  1155 1193 1108
f  1156 1107 1109
f  1239 1109 1194
f  1157 1111 1110
f  1159 1104 1112
f  1158 1113 1111
f  1160 1114 1113
f  1161 1115 1114
f  1163 1112 1116
f  1164 1118 1117
f  1165 1123 1118
f  1162 1119 1115
f  1167 1116 1120
f  1166 1120 1119
f  1168 1202 1121
f  1169 1121 1122
f  1147 1100 1149
f  1147 1146 1099
f  1152 1105 1148
f  1152 1150 1103
f  1149 1102 1151
f  1150 1157 1110
f  1147 1152 1148
f  1147 1148 1146
f  1147 1149 1152
f  1149 1150 1152
f  1149 1151 1150
f  1150 1151 1157
f  1146 1153 1106
f  1154 1148 1101
f  1154 1107 1156
f  1153 1155 1108
f  1155 1238 1193
f  1156 1109 1239
f  1146 1154 1153
f  1153 1154 1155
f  1146 1148 1154
f  1154 1156 1155
f  1155 1156 1238
f  1238 1156 1239
f  1151 1104 1159
f  1157 1158 1111
f  1158 1160 1113
f  1160 1161 1114
f  1159 1112 1163
f  1161 1162 1115
f  1164 1165 1118
f  1165 1170 1123
f  1163 1116 1167
f  1162 1166 1119
f  1166 1167 1120
f  1151 1158 1157
f  1151 1159 1158
f  1159 1160 1158
f  1159 1161 1160
f  1159 1163 1161
f  1161 1163 1162
f  1164 1170 1165
f  1162 1163 1167
f  1162 1167 1166
f  1168 1121 1169
f  1168 1169 1247
f  1172 1117 1125
f  1171 1126 1124
f  1174 1124 1127
f  1173 1125 1126
f  1170 1215 1123
f  1175 1129 1128
f  1177 1127 1130
f  1261 1128 1216
f  1179 1130 1132
f  1176 1131 1129
f  1178 1133 1131
f  1181 1132 1134
f  1180 1135 1133
f  1182 1136 1135
f  1183 1137 1136
f  1185 1139 1138
f  1186 1140 1139
f  1189 1138 1142
f  1188 1143 1141
f  1190 1142 1143
f  1191 1134 1144
f  1192 1144 1145
f  1269 1224 1140
f  1270 1141 1225
f  1164 1117 1172
f  1171 1173 1126
f  1171 1124 1174
f  1172 1125 1173
f  1164 1171 1170
f  1164 1172 1171
f  1171 1172 1173
f  1170 1171 1174
f  1170 1174 1175
f  1174 1127 1177
f  1175 1176 1129
f  1170 1260 1215
f  1175 1128 1261
f  1177 1130 1179
f  1176 1178 1131
f  1178 1180 1133
f  1179 1132 1181
f  1180 1182 1135
f  1182 1183 1136
f  1183 1184 1137
f  1170 1175 1260
f  1174 1176 1175
f  1174 1177 1176
f  1175 1261 1260
f  1177 1178 1176
f  1177 1179 1178
f  1178 1179 1180
f  1179 1181 1180
f  1180 1181 1182
f  1182 1181 1191
f  1182 1191 1183
f  1183 1192 1184
f  1184 1192 1266
f  1185 1186 1139
f  1186 1187 1140
f  1185 1138 1189
f  1188 1190 1143
f  1189 1142 1190
f  1188 1141 1270
f  1185 1187 1186
f  1185 1189 1187
f  1187 1189 1188
f  1188 1189 1190
f  1187 1188 1270
f  1181 1134 1191
f  1191 1144 1192
f  1266 1192 1145
f  1187 1269 1140
f  1191 1192 1183
f  1187 1270 1269
f  1238 1196 1193
f  1240 1194 1195
f  1241 1198 1196
f  1242 1195 1197
f  1245 1199 1200
f  1244 1197 1199
f  1243 1203 1198
f  1246 1200 1201
f  1247 1201 1202
f  1248 1204 1203
f  1249 1122 1204
f  1250 1206 1205
f  1260 1205 1215
f  1239 1194 1240
f  1238 1241 1196
f  1240 1195 1242
f  1241 1243 1198
f  1238 1239 1241
f  1239 1240 1241
f  1241 1240 1243
f  1240 1242 1243
f  1244 1199 1245
f  1242 1197 1244
f  1243 1248 1203
f  1245 1200 1246
f  1168 1247 1202
f  1246 1201 1247
f  1249 1204 1248
f  1169 1122 1249
f  1250 1251 1206
f  1250 1205 1260
f  1242 1244 1243
f  1244 1248 1243
f  1244 1245 1248
f  1246 1247 1249
f  1245 1246 1248
f  1246 1249 1248
f  1169 1249 1247
f  1250 1260 1251
f  1252 605 1207
f  1254 1207 1209
f  1253 1209 1208
f  1256 1212 1211
f  1255 1211 1210
f  1258 1228 1213
f  1259 1213 1214
f  1252 1207 1254
f  1253 1252 1254
f  1253 1254 1209
f  641 1252 1253
f  1256 1257 1212
f  1256 1211 1255
f  1258 1213 1259
f  1256 1259 1257
f  1256 1255 1258
f  1255 1273 1258
f  1256 1258 1259
f  1251 1218 1206
f  1262 1216 1217
f  1264 1217 1219
f  1265 1219 1220
f  1263 1221 1218
f  1184 1220 1137
f  1266 1145 1221
f  1267 1223 1222
f  1269 1222 1224
f  1268 1226 1223
f  1261 1216 1262
f  1251 1263 1218
f  1262 1217 1264
f  1265 1264 1219
f  1265 1220 1184
f  1266 1221 1263
f  1260 1263 1251
f  1260 1261 1263
f  1261 1262 1263
f  1262 1264 1263
f  1264 1266 1263
f  1265 1184 1266
f  1265 1266 1264
f  1267 1268 1223
f  1267 1222 1269
f  1268 1271 1226
f  1267 1269 1268
f  1269 1271 1268
f  1269 1270 1271
f  1272 1210 1227
f  1273 1229 1228
f  1274 1230 1229
f  1276 1227 1231
f  1277 1231 1232
f  1275 1233 1230
f  1278 1234 1233
f  1279 1235 1234
f  1280 1236 1235
f  1281 1237 1236
f  1282 1232 1237
f  1255 1210 1272
f  1272 1227 1276
f  1255 1272 1273
f  1273 1272 1274
f  1272 1275 1274
f  1272 1276 1275
f  1258 1273 1228
f  1273 1274 1229
f  1274 1275 1230
f  1276 1231 1277
f  1275 1276 1278
f  1275 1278 1233
f  1278 1279 1234
f  1279 1280 1235
f  1277 1232 1282
f  1280 1281 1236
f  1281 1282 1237
f  1276 1279 1278
f  1276 1277 1279
f  1279 1277 1280
f  1277 1282 1280
f  1280 1282 1281
f  1286 1225 1283
f  1287 1283 1284
f  1271 1285 1226
f  1288 1291 1285
f  1322 1284 1292
f  1286 1283 1287
f  1287 1284 1322
f  1270 1286 1287
f  1288 1285 1271
f  1270 1225 1286
f  1288 1321 1291
f  1270 1287 1288
f  1270 1288 1271
f  1287 1322 1288
f  1288 1322 1321
f  1319 1290 1289
f  1321 1289 1291
f  1320 1294 1290
f  1323 1292 1293
f  1324 1293 1294
f  1319 1320 1290
f  1319 1289 1321
f  1322 1292 1323
f  1320 1324 1294
f  1319 1321 1320
f  1321 1322 1320
f  1322 1324 1320
f  1323 1293 1324
f  1322 1323 1324
f  1326 1295 1296
f  1333 1296 1303
f  1327 1297 1295
f  1327 1298 1297
f  1328 1299 1298
f  1329 1300 1299
f  1330 1301 1300
f  1331 1302 1301
f  1332 1305 1302
f  1334 1303 1304
f  1335 1306 1305
f  1336 1307 1306
f  1337 1309 1307
f  1338 1304 1308
f  1339 1310 1309
f  1325 1295 1326
f  1326 1296 1333
f  1325 1326 1330
f  1326 1332 1331
f  1326 1333 1332
f  1325 1327 1295
f  1329 1299 1328
f  1327 1328 1298
f  1329 1330 1300
f  1331 1301 1330
f  1331 1332 1302
f  1325 1330 1329
f  1325 1329 1327
f  1329 1328 1327
f  1326 1331 1330
f  1333 1303 1334
f  1334 1304 1338
f  1332 1333 1335
f  1333 1336 1335
f  1333 1334 1336
f  1332 1335 1305
f  1335 1336 1306
f  1336 1337 1307
f  1337 1339 1309
f  1339 1340 1310
f  1336 1334 1337
f  1334 1338 1337
f  1337 1338 1339
f  1338 1342 1339
f  1342 1340 1339
f  1341 1314 1311
f  1342 1308 1312
f  1343 1312 1313
f  1344 1316 1314
f  1499 1311 1497
f  1347 1315 1317
f  1345 1498 1315
f  1346 1428 1316
f  1348 1317 1318
f  1338 1308 1342
f  1342 1312 1343
f  1343 1313 1475
f  1341 1344 1314
f  1344 1346 1316
f  1342 1343 1340
f  1341 1345 1344
f  1344 1345 1346
f  1341 1311 1499
f  1345 1315 1347
f  1347 1317 1348
f  1348 1318 1483
f  1341 1499 1345
f  1345 1347 1346
f  1347 1348 1346
f  1346 1348 1481
f  1375 1208 1354
f  1257 1349 1212
f  1370 1351 1349
f  1371 1214 1350
f  1372 1357 1351
f  1373 1350 1352
f  1374 1352 1353
f  1253 1208 1375
f  1253 1375 703
f  1370 1349 1257
f  1259 1214 1371
f  1371 1350 1373
f  1257 1259 1371
f  1370 1257 1371
f  1370 1371 1372
f  1370 1372 1351
f  1372 1378 1357
f  1373 1352 1374
f  1371 1373 1372
f  1372 1373 1378
f  1373 1374 1378
f  1376 1354 1355
f  1377 1355 1356
f  1378 1358 1357
f  1375 1354 1376
f  702 1377 1356
f  1376 1355 1377
f  702 1375 1377
f  1375 1376 1377
f  1374 1353 1382
f  1378 1379 1358
f  1378 1374 1379
f  1374 1382 1379
f  1381 1359 1360
f  1380 1368 1359
f  1380 1359 1381
f  1381 1360 1390
f  1380 1381 1389
f  1382 1353 1361
f  1379 1364 1358
f  1383 1361 1362
f  1384 1362 1363
f  1385 1367 1364
f  1386 1363 1365
f  1389 1366 1368
f  1387 1365 1366
f  1388 1369 1367
f  1390 1360 1369
f  1382 1361 1383
f  1379 1385 1364
f  1383 1362 1384
f  1384 1363 1386
f  1379 1382 1385
f  1382 1383 1385
f  1383 1384 1385
f  1385 1384 1388
f  1386 1365 1387
f  1387 1366 1389
f  1385 1388 1367
f  1380 1389 1368
f  1388 1390 1369
f  1384 1386 1388
f  1386 1387 1388
f  1388 1387 1390
f  1381 1390 1389
f  1387 1389 1390
f  1444 1392 1391
f  1445 1396 1392
f  1447 1393 1394
f  1448 1391 1395
f  1449 1403 1396
f  1450 1395 1397
f  1453 1399 1400
f  1340 1400 1310
f  1452 1397 1399
f  1451 1402 1398
f  1454 1398 1401
f  1455 1423 1402
f  1456 1404 1403
f  1457 1405 1404
f  1458 1407 1405
f  1459 1401 1406
f  1460 1420 1407
f  1444 1391 1448
f  1444 1445 1392
f  1444 1448 1445
f  1446 1393 1447
f  1447 1394 1462
f  1446 1447 1462
f  1448 1395 1450
f  1445 1449 1396
f  1449 1456 1403
f  1453 1452 1399
f  1340 1453 1400
f  1450 1397 1452
f  1451 1455 1402
f  1451 1398 1454
f  1455 1476 1423
f  1454 1401 1459
f  1445 1448 1449
f  1448 1456 1449
f  1448 1450 1451
f  1448 1451 1456
f  1451 1454 1456
f  1340 1475 1453
f  1453 1476 1452
f  1453 1475 1476
f  1450 1452 1455
f  1450 1455 1451
f  1452 1476 1455
f  1456 1457 1404
f  1457 1458 1405
f  1459 1406 1477
f  1458 1460 1407
f  1460 1473 1420
f  1456 1454 1457
f  1454 1459 1457
f  1457 1459 1458
f  1458 1459 1477
f  1458 1477 1460
f  1460 1477 1478
f  1460 1478 1473
f  1446 1408 1393
f  1461 1413 1408
f  1462 1394 1409
f  1463 1409 1410
f  1464 1410 1411
f  1465 1411 1412
f  1466 1414 1413
f  1467 1415 1414
f  1468 1418 1415
f  1469 1412 1416
f  1470 1416 1417
f  1472 1417 1419
f  1471 1421 1418
f  1473 1419 1420
f  1474 1425 1421
f  1446 1461 1408
f  1462 1409 1463
f  1463 1410 1464
f  1464 1411 1465
f  1461 1466 1413
f  1466 1467 1414
f  1467 1468 1415
f  1446 1462 1461
f  1461 1462 1466
f  1462 1463 1466
f  1463 1464 1467
f  1464 1465 1468
f  1466 1463 1467
f  1467 1464 1468
f  1465 1471 1468
f  1465 1412 1469
f  1469 1416 1470
f  1470 1417 1472
f  1468 1471 1418
f  1473 1472 1419
f  1471 1474 1421
f  1465 1469 1471
f  1469 1470 1471
f  1471 1470 1474
f  1473 1474 1472
f  1470 1472 1474
f  1473 1478 1474
f  1475 1313 1422
f  1476 1422 1423
f  1477 1406 1424
f  1478 1424 1425
f  1480 1426 1427
f  1481 1429 1428
f  1483 1318 1430
f  1511 1430 1501
f  1482 1431 1429
f  1484 1432 1431
f  1485 1503 1432
f  1475 1422 1476
f  1340 1343 1475
f  1477 1424 1478
f  1478 1425 1474
f  1479 1426 1480
f  1480 1427 1486
f  1479 1480 1486
f  1346 1481 1428
f  1481 1482 1429
f  1483 1430 1511
f  1482 1484 1431
f  1484 1485 1432
f  1348 1483 1481
f  1481 1483 1482
f  1483 1511 1482
f  1482 1511 1484
f  1485 1513 1503
f  1479 1434 1426
f  1486 1427 1433
f  1487 1439 1434
f  1488 1433 1435
f  1489 1435 1436
f  1490 1436 1437
f  1491 1437 1438
f  1492 1440 1439
f  1494 1438 1441
f  1517 1442 1507
f  1495 1441 1442
f  1493 1443 1440
f  1479 1487 1434
f  1487 1492 1439
f  1479 1486 1487
f  1487 1486 1488
f  1487 1488 1492
f  1486 1433 1488
f  1488 1435 1489
f  1489 1436 1490
f  1490 1437 1491
f  1492 1493 1440
f  1491 1438 1494
f  1517 1495 1442
f  1494 1441 1495
f  1493 1496 1443
f  1488 1489 1492
f  1492 1489 1490
f  1490 1491 1493
f  1492 1490 1493
f  1491 1494 1493
f  1494 1495 1496
f  1493 1494 1496
f  1500 1497 1498
f  1345 1500 1498
f  1499 1497 1500
f  1345 1499 1500
f  1512 1501 1502
f  1514 1502 1504
f  1513 1506 1503
f  1515 1504 1505
f  1516 1507 1506
f  1518 1505 1508
f  1520 1508 1510
f  1511 1501 1512
f  1512 1502 1514
f  1484 1511 1512
f  1484 1512 1485
f  1485 1512 1514
f  1514 1504 1515
f  1515 1505 1518
f  1513 1516 1506
f  1516 1517 1507
f  1518 1508 1520
f  1485 1514 1513
f  1513 1515 1516
f  1513 1514 1515
f  1516 1520 1517
f  1516 1515 1518
f  1516 1518 1520
f  1519 1510 1509
f  1496 1509 1443
f  1496 1519 1509
f  1520 1510 1519
f  1517 1519 1495
f  1517 1520 1519
f  1495 1519 1496
