# OpenSCAD obj exporter
v 0 0 0
v 0 0 0.9
v 0.447453 0.2 0.9
v 0.447453 0.203594 0.9
v 0.461896 0.205425 0.9
v 0.474984 0.205425 0.9
v 0.489429 0.2 0.9
v 0.489429 0.203594 0.9
v 0.461896 0.235398 0.9
v 0.474984 0.235805 0.9
v 0.472068 0.243603 0.9
v 0.419718 0.287343 0.9
v 0.419718 0.290937 0.9
v 0.429956 0.285579 0.9
v 0.445961 0.285579 0.9
v 0.458166 0.287343 0.9
v 0.458166 0.290937 0.9
v 0.48536 0.287343 0.9
v 0.48536 0.290937 0.9
v 0.496888 0.285579 0.9
v 0.547754 0.2 0.9
v 0.547754 0.203594 0.9
v 0.562198 0.205425 0.9
v 0.575285 0.205425 0.9
v 0.589729 0.2 0.9
v 0.589729 0.203594 0.9
v 0.562198 0.235398 0.9
v 0.572369 0.243603 0.9
v 0.575285 0.235805 0.9
v 0.504958 0.285579 0.9
v 0.514925 0.287343 0.9
v 0.514925 0.290937 0.9
v 0.520018 0.287343 0.9
v 0.520018 0.290937 0.9
v 0.530258 0.285579 0.9
v 0.546261 0.285579 0.9
v 0.558468 0.287343 0.9
v 0.558468 0.290937 0.9
v 0.58566 0.287343 0.9
v 0.58566 0.290937 0.9
v 0.597188 0.285579 0.9
v 0.447453 0.2 1.1
v 0.447453 0.203594 1.1
v 0.461896 0.205425 1.1
v 0.474984 0.205425 1.1
v 0.489429 0.2 1.1
v 0.489429 0.203594 1.1
v 0.461896 0.235398 1.1
v 0.474984 0.235805 1.1
v 0.472068 0.243603 1.1
v 0.419718 0.287343 1.1
v 0.419718 0.290937 1.1
v 0.429956 0.285579 1.1
v 0.445961 0.285579 1.1
v 0.458166 0.287343 1.1
v 0.458166 0.290937 1.1
v 0.48536 0.287343 1.1
v 0.48536 0.290937 1.1
v 0.496888 0.285579 1.1
v 0.547754 0.2 1.1
v 0.547754 0.203594 1.1
v 0.562198 0.205425 1.1
v 0.575285 0.205425 1.1
v 0.589729 0.2 1.1
v 0.589729 0.203594 1.1
v 0.562198 0.235398 1.1
v 0.572369 0.243603 1.1
v 0.575285 0.235805 1.1
v 0.504958 0.285579 1.1
v 0.514925 0.287343 1.1
v 0.514925 0.290937 1.1
v 0.520018 0.287343 1.1
v 0.520018 0.290937 1.1
v 0.530258 0.285579 1.1
v 0.546261 0.285579 1.1
v 0.558468 0.287343 1.1
v 0.558468 0.290937 1.1
v 0.58566 0.287343 1.1
v 0.58566 0.290937 1.1
v 0.597188 0.285579 1.1
v 0.656937 0.197898 0.9
v 0.660532 0.197898 0.9
v 0.661888 0.221497 0.9
v 0.684742 0.260557 0.9
v 0.605258 0.285579 0.9
v 0.615227 0.287343 0.9
v 0.615227 0.290937 0.9
v 0.618895 0.287343 0.9
v 0.618895 0.290937 0.9
v 0.62683 0.285579 0.9
v 0.640256 0.285579 0.9
v 0.653616 0.287343 0.9
v 0.653616 0.290937 0.9
v 0.686368 0.284562 0.9
v 0.689421 0.284562 0.9
v 0.70834 0.197898 0.9
v 0.711933 0.197898 0.9
v 0.713019 0.221497 0.9
v 0.788027 0.197898 0.9
v 0.791623 0.197898 0.9
v 0.792978 0.221497 0.9
v 0.719462 0.287343 0.9
v 0.719462 0.290937 0.9
v 0.733633 0.285579 0.9
v 0.741635 0.285579 0.9
v 0.74957 0.287343 0.9
v 0.749985 0.287343 0.9
v 0.74957 0.290937 0.9
v 0.749985 0.290937 0.9
v 0.75792 0.285579 0.9
v 0.771346 0.285579 0.9
v 0.784706 0.287343 0.9
v 0.784706 0.290937 0.9
v 0.656937 0.197898 1.1
v 0.660532 0.197898 1.1
v 0.661888 0.221497 1.1
v 0.684742 0.260557 1.1
v 0.605258 0.285579 1.1
v 0.615227 0.287343 1.1
v 0.615227 0.290937 1.1
v 0.618895 0.287343 1.1
v 0.618895 0.290937 1.1
v 0.62683 0.285579 1.1
v 0.640256 0.285579 1.1
v 0.653616 0.287343 1.1
v 0.653616 0.290937 1.1
v 0.686368 0.284562 1.1
v 0.689421 0.284562 1.1
v 0.70834 0.197898 1.1
v 0.711933 0.197898 1.1
v 0.713019 0.221497 1.1
v 0.788027 0.197898 1.1
v 0.791623 0.197898 1.1
v 0.792978 0.221497 1.1
v 0.719462 0.287343 1.1
v 0.719462 0.290937 1.1
v 0.733633 0.285579 1.1
v 0.741635 0.285579 1.1
v 0.74957 0.287343 1.1
v 0.749985 0.287343 1.1
v 0.74957 0.290937 1.1
v 0.749985 0.290937 1.1
v 0.75792 0.285579 1.1
v 0.771346 0.285579 1.1
v 0.784706 0.287343 1.1
v 0.784706 0.290937 1.1
v 0.547856 0.61068 0.9
v 0.562639 0.601653 0.9
v 0.568344 0.606476 0.9
v 0.582305 0.598644 0.9
v 0.582441 0.603865 0.9
v 0.598902 0.599712 0.9
v 0.589951 0.604331 0.9
v 0.59702 0.60573 0.9
v 0.5386 0.625133 0.9
v 0.535514 0.644417 0.9
v 0.549687 0.644553 0.9
v 0.538481 0.665023 0.9
v 0.547381 0.679917 0.9
v 0.558062 0.614308 0.9
v 0.551781 0.627091 0.9
v 0.551687 0.663235 0.9
v 0.557689 0.676289 0.9
v 0.562114 0.688945 0.9
v 0.568047 0.683969 0.9
v 0.583119 0.686529 0.9
v 0.582576 0.691954 0.9
v 0.589569 0.68613 0.9
v 0.595901 0.684935 0.9
v 0.597275 0.691089 0.9
v 0.547856 0.61068 1.1
v 0.562639 0.601653 1.1
v 0.568344 0.606476 1.1
v 0.582305 0.598644 1.1
v 0.582441 0.603865 1.1
v 0.598902 0.599712 1.1
v 0.589951 0.604331 1.1
v 0.59702 0.60573 1.1
v 0.5386 0.625133 1.1
v 0.535514 0.644417 1.1
v 0.549687 0.644553 1.1
v 0.538481 0.665023 1.1
v 0.547381 0.679917 1.1
v 0.558062 0.614308 1.1
v 0.551781 0.627091 1.1
v 0.551687 0.663235 1.1
v 0.557689 0.676289 1.1
v 0.562114 0.688945 1.1
v 0.568047 0.683969 1.1
v 0.583119 0.686529 1.1
v 0.582576 0.691954 1.1
v 0.589569 0.68613 1.1
v 0.595901 0.684935 1.1
v 0.597275 0.691089 1.1
v 0.666265 0.4 0.9
v 0.666265 0.403594 0.9
v 0.677929 0.405425 0.9
v 0.690949 0.405425 0.9
v 0.666265 0.487343 0.9
v 0.666265 0.490937 0.9
v 0.677929 0.485579 0.9
v 0.690949 0.485579 0.9
v 0.702613 0.4 0.9
v 0.702613 0.403594 0.9
v 0.712516 0.4 0.9
v 0.712516 0.403594 0.9
v 0.72418 0.405425 0.9
v 0.7372 0.405425 0.9
v 0.748864 0.4 0.9
v 0.748864 0.403594 0.9
v 0.758767 0.4 0.9
v 0.758767 0.403594 0.9
v 0.770431 0.405425 0.9
v 0.783451 0.405425 0.9
v 0.795115 0.4 0.9
v 0.795115 0.403594 0.9
v 0.702613 0.487343 0.9
v 0.702613 0.490937 0.9
v 0.712516 0.487343 0.9
v 0.712516 0.490937 0.9
v 0.72418 0.485579 0.9
v 0.7372 0.485579 0.9
v 0.748864 0.487343 0.9
v 0.748864 0.490937 0.9
v 0.758767 0.487343 0.9
v 0.758767 0.490937 0.9
v 0.770431 0.485579 0.9
v 0.783451 0.485579 0.9
v 0.795115 0.487343 0.9
v 0.795115 0.490937 0.9
v 0.666265 0.4 1.1
v 0.666265 0.403594 1.1
v 0.677929 0.405425 1.1
v 0.690949 0.405425 1.1
v 0.666265 0.487343 1.1
v 0.666265 0.490937 1.1
v 0.677929 0.485579 1.1
v 0.690949 0.485579 1.1
v 0.702613 0.4 1.1
v 0.702613 0.403594 1.1
v 0.712516 0.4 1.1
v 0.712516 0.403594 1.1
v 0.72418 0.405425 1.1
v 0.7372 0.405425 1.1
v 0.748864 0.4 1.1
v 0.748864 0.403594 1.1
v 0.758767 0.4 1.1
v 0.758767 0.403594 1.1
v 0.770431 0.405425 1.1
v 0.783451 0.405425 1.1
v 0.795115 0.4 1.1
v 0.795115 0.403594 1.1
v 0.702613 0.487343 1.1
v 0.702613 0.490937 1.1
v 0.712516 0.487343 1.1
v 0.712516 0.490937 1.1
v 0.72418 0.485579 1.1
v 0.7372 0.485579 1.1
v 0.748864 0.487343 1.1
v 0.748864 0.490937 1.1
v 0.758767 0.487343 1.1
v 0.758767 0.490937 1.1
v 0.770431 0.485579 1.1
v 0.783451 0.485579 1.1
v 0.795115 0.487343 1.1
v 0.795115 0.490937 1.1
v 0.603157 0.607908 0.9
v 0.60787 0.610714 0.9
v 0.61438 0.602916 0.9
v 0.627339 0.6 0.9
v 0.627339 0.603594 0.9
v 0.638121 0.605425 0.9
v 0.651209 0.605425 0.9
v 0.665653 0.6 0.9
v 0.665653 0.603594 0.9
v 0.610379 0.624277 0.9
v 0.614787 0.624277 0.9
v 0.608955 0.668626 0.9
v 0.613431 0.668626 0.9
v 0.601793 0.683011 0.9
v 0.606921 0.680426 0.9
v 0.613024 0.688495 0.9
v 0.626457 0.687343 0.9
v 0.626457 0.690937 0.9
v 0.638121 0.685579 0.9
v 0.651209 0.635669 0.9
v 0.651209 0.641773 0.9
v 0.661448 0.635669 0.9
v 0.658261 0.641773 0.9
v 0.668221 0.643078 0.9
v 0.675409 0.637483 0.9
v 0.685691 0.642925 0.9
v 0.67518 0.646994 0.9
v 0.679274 0.65386 0.9
v 0.692023 0.651859 0.9
v 0.651209 0.684833 0.9
v 0.657854 0.684833 0.9
v 0.66077 0.690937 0.9
v 0.668416 0.683629 0.9
v 0.680639 0.664015 0.9
v 0.679334 0.67361 0.9
v 0.694134 0.664151 0.9
v 0.675417 0.680018 0.9
v 0.685793 0.684241 0.9
v 0.7037 0.6 0.9
v 0.7037 0.603594 0.9
v 0.715364 0.605425 0.9
v 0.722484 0.605425 0.9
v 0.73469 0.6 0.9
v 0.73469 0.603594 0.9
v 0.778565 0.6 0.9
v 0.785143 0.6 0.9
v 0.7037 0.687343 0.9
v 0.7037 0.690937 0.9
v 0.715364 0.685579 0.9
v 0.722484 0.681782 0.9
v 0.731232 0.690937 0.9
v 0.778022 0.623599 0.9
v 0.765816 0.687343 0.9
v 0.765816 0.690937 0.9
v 0.778022 0.685579 0.9
v 0.785143 0.685579 0.9
v 0.796807 0.687343 0.9
v 0.796807 0.690937 0.9
v 0.603157 0.607908 1.1
v 0.60787 0.610714 1.1
v 0.61438 0.602916 1.1
v 0.627339 0.6 1.1
v 0.627339 0.603594 1.1
v 0.638121 0.605425 1.1
v 0.651209 0.605425 1.1
v 0.665653 0.6 1.1
v 0.665653 0.603594 1.1
v 0.610379 0.624277 1.1
v 0.614787 0.624277 1.1
v 0.608955 0.668626 1.1
v 0.613431 0.668626 1.1
v 0.601793 0.683011 1.1
v 0.606921 0.680426 1.1
v 0.613024 0.688495 1.1
v 0.626457 0.687343 1.1
v 0.626457 0.690937 1.1
v 0.638121 0.685579 1.1
v 0.651209 0.635669 1.1
v 0.651209 0.641773 1.1
v 0.661448 0.635669 1.1
v 0.658261 0.641773 1.1
v 0.668221 0.643078 1.1
v 0.675409 0.637483 1.1
v 0.685691 0.642925 1.1
v 0.67518 0.646994 1.1
v 0.679274 0.65386 1.1
v 0.692023 0.651859 1.1
v 0.651209 0.684833 1.1
v 0.657854 0.684833 1.1
v 0.66077 0.690937 1.1
v 0.668416 0.683629 1.1
v 0.680639 0.664015 1.1
v 0.679334 0.67361 1.1
v 0.694134 0.664151 1.1
v 0.675417 0.680018 1.1
v 0.685793 0.684241 1.1
v 0.7037 0.6 1.1
v 0.7037 0.603594 1.1
v 0.715364 0.605425 1.1
v 0.722484 0.605425 1.1
v 0.73469 0.6 1.1
v 0.73469 0.603594 1.1
v 0.778565 0.6 1.1
v 0.785143 0.6 1.1
v 0.7037 0.687343 1.1
v 0.7037 0.690937 1.1
v 0.715364 0.685579 1.1
v 0.722484 0.681782 1.1
v 0.731232 0.690937 1.1
v 0.778022 0.623599 1.1
v 0.765816 0.687343 1.1
v 0.765816 0.690937 1.1
v 0.778022 0.685579 1.1
v 0.785143 0.685579 1.1
v 0.796807 0.687343 1.1
v 0.796807 0.690937 1.1
v 0 1.4 0
v 0.345287 1 0.9
v 0.345287 1.00647 0.9
v 0.366282 1.00976 0.9
v 0.379098 1.00976 0.9
v 0.345287 1 1.1
v 0.345287 1.00647 1.1
v 0.366282 1.00976 1.1
v 0.379098 1.00976 1.1
v 0 1.4 0.9
v 0.366282 1.0795 0.9
v 0.345287 1.15722 0.9
v 0.345287 1.16369 0.9
v 0.366282 1.15404 0.9
v 0.379098 1.14074 0.9
v 0.394844 1.16369 0.9
v 0.366787 1.22151 0.9
v 0.396895 1.1907 0.9
v 0.378816 1.20325 0.9
v 0.345287 1.15722 1.1
v 0.345287 1.16369 1.1
v 0.366282 1.15404 1.1
v 0.379098 1.14074 1.1
v 0.394844 1.16369 1.1
v 0.366787 1.22151 1.1
v 0.396895 1.1907 1.1
v 0.378816 1.20325 1.1
v 0.362777 1.24278 0.9
v 0.366845 1.26463 0.9
v 0.379049 1.28277 0.9
v 0.397186 1.29497 0.9
v 0.362777 1.24278 1.1
v 0.366845 1.26463 1.1
v 0.379049 1.28277 1.1
v 0.397186 1.29497 1.1
v 0.547856 0.81068 0.9
v 0.5386 0.825133 0.9
v 0.535514 0.844417 0.9
v 0.549687 0.844553 0.9
v 0.538481 0.865023 0.9
v 0.562639 0.801653 0.9
v 0.568344 0.806476 0.9
v 0.558062 0.814308 0.9
v 0.551781 0.827091 0.9
v 0.582305 0.798644 0.9
v 0.582441 0.803865 0.9
v 0.589951 0.804331 0.9
v 0.598902 0.799712 0.9
v 0.59702 0.80573 0.9
v 0.551687 0.863235 0.9
v 0.547856 0.81068 1.1
v 0.5386 0.825133 1.1
v 0.535514 0.844417 1.1
v 0.549687 0.844553 1.1
v 0.538481 0.865023 1.1
v 0.562639 0.801653 1.1
v 0.568344 0.806476 1.1
v 0.558062 0.814308 1.1
v 0.551781 0.827091 1.1
v 0.582305 0.798644 1.1
v 0.582441 0.803865 1.1
v 0.589951 0.804331 1.1
v 0.598902 0.799712 1.1
v 0.59702 0.80573 1.1
v 0.551687 0.863235 1.1
v 0.401069 1 0.9
v 0.439031 1 0.9
v 0.443302 1 0.9
v 0.401069 1.00647 0.9
v 0.448063 1.03918 0.9
v 0.486635 1 0.9
v 0.486635 1.00647 0.9
v 0.547381 0.879917 0.9
v 0.557689 0.876289 0.9
v 0.562114 0.888945 0.9
v 0.568047 0.883969 0.9
v 0.583119 0.886529 0.9
v 0.582576 0.891954 0.9
v 0.595901 0.884935 0.9
v 0.589569 0.886131 0.9
v 0.597275 0.891089 0.9
v 0.508606 1.00976 0.9
v 0.532042 1.00976 0.9
v 0.553037 1 0.9
v 0.553037 1.00647 0.9
v 0.401069 1 1.1
v 0.439031 1 1.1
v 0.443302 1 1.1
v 0.401069 1.00647 1.1
v 0.448063 1.03918 1.1
v 0.486635 1 1.1
v 0.486635 1.00647 1.1
v 0.547381 0.879917 1.1
v 0.557689 0.876289 1.1
v 0.562114 0.888945 1.1
v 0.568047 0.883969 1.1
v 0.583119 0.886529 1.1
v 0.582576 0.891954 1.1
v 0.595901 0.884935 1.1
v 0.589569 0.886131 1.1
v 0.597275 0.891089 1.1
v 0.508606 1.00976 1.1
v 0.532042 1.00976 1.1
v 0.553037 1 1.1
v 0.553037 1.00647 1.1
v 0.603157 0.807909 0.9
v 0.61438 0.802916 0.9
v 0.60787 0.810714 0.9
v 0.610379 0.824277 0.9
v 0.614787 0.824277 0.9
v 0.627339 0.8 0.9
v 0.627339 0.803594 0.9
v 0.638121 0.805425 0.9
v 0.608955 0.868626 0.9
v 0.613431 0.868626 0.9
v 0.638121 0.841644 0.9
v 0.651209 0.805425 0.9
v 0.665653 0.8 0.9
v 0.665653 0.803594 0.9
v 0.651209 0.835669 0.9
v 0.651209 0.841773 0.9
v 0.661448 0.835669 0.9
v 0.658261 0.841773 0.9
v 0.668221 0.843078 0.9
v 0.675409 0.837483 0.9
v 0.67518 0.846994 0.9
v 0.685691 0.842925 0.9
v 0.692023 0.851859 0.9
v 0.679274 0.85386 0.9
v 0.680639 0.864015 0.9
v 0.679334 0.87361 0.9
v 0.694134 0.864151 0.9
v 0.7037 0.8 0.9
v 0.7037 0.803594 0.9
v 0.715364 0.805425 0.9
v 0.722484 0.805425 0.9
v 0.73469 0.8 0.9
v 0.73469 0.803594 0.9
v 0.778565 0.8 0.9
v 0.785143 0.8 0.9
v 0.778022 0.823599 0.9
v 0.603157 0.807909 1.1
v 0.61438 0.802916 1.1
v 0.60787 0.810714 1.1
v 0.610379 0.824277 1.1
v 0.614787 0.824277 1.1
v 0.627339 0.8 1.1
v 0.627339 0.803594 1.1
v 0.638121 0.805425 1.1
v 0.608955 0.868626 1.1
v 0.613431 0.868626 1.1
v 0.651209 0.805425 1.1
v 0.665653 0.8 1.1
v 0.665653 0.803594 1.1
v 0.651209 0.835669 1.1
v 0.651209 0.841773 1.1
v 0.661448 0.835669 1.1
v 0.658261 0.841773 1.1
v 0.668221 0.843078 1.1
v 0.675409 0.837483 1.1
v 0.67518 0.846994 1.1
v 0.685691 0.842925 1.1
v 0.692023 0.851859 1.1
v 0.679274 0.85386 1.1
v 0.680639 0.864015 1.1
v 0.679334 0.87361 1.1
v 0.694134 0.864151 1.1
v 0.7037 0.8 1.1
v 0.7037 0.803594 1.1
v 0.715364 0.805425 1.1
v 0.722484 0.805425 1.1
v 0.73469 0.8 1.1
v 0.73469 0.803594 1.1
v 0.778565 0.8 1.1
v 0.785143 0.8 1.1
v 0.778022 0.823599 1.1
v 0.601793 0.883011 0.9
v 0.606921 0.880426 0.9
v 0.613024 0.888495 0.9
v 0.626457 0.887343 0.9
v 0.626457 0.890937 0.9
v 0.638121 0.885579 0.9
v 0.651209 0.884833 0.9
v 0.657854 0.884833 0.9
v 0.66077 0.890937 0.9
v 0.668416 0.883629 0.9
v 0.675417 0.880018 0.9
v 0.685793 0.884241 0.9
v 0.631665 1 0.9
v 0.631665 1.00647 0.9
v 0.651072 1.00976 0.9
v 0.674631 1.00976 0.9
v 0.7037 0.887343 0.9
v 0.7037 0.890937 0.9
v 0.715364 0.885579 0.9
v 0.722484 0.881782 0.9
v 0.731232 0.890937 0.9
v 0.765816 0.887343 0.9
v 0.765816 0.890937 0.9
v 0.778022 0.885579 0.9
v 0.785143 0.885579 0.9
v 0.796807 0.887343 0.9
v 0.796807 0.890937 0.9
v 0.70063 1 0.9
v 0.70063 1.00647 0.9
v 0.770945 1 0.9
v 0.770945 1.00647 0.9
v 0.79194 1.00976 0.9
v 0.601793 0.883011 1.1
v 0.606921 0.880426 1.1
v 0.613024 0.888495 1.1
v 0.626457 0.887343 1.1
v 0.626457 0.890937 1.1
v 0.638121 0.885579 1.1
v 0.651209 0.884833 1.1
v 0.657854 0.884833 1.1
v 0.66077 0.890937 1.1
v 0.668416 0.883629 1.1
v 0.675417 0.880018 1.1
v 0.685793 0.884241 1.1
v 0.631665 1 1.1
v 0.631665 1.00647 1.1
v 0.651072 1.00976 1.1
v 0.674631 1.00976 1.1
v 0.7037 0.887343 1.1
v 0.7037 0.890937 1.1
v 0.715364 0.885579 1.1
v 0.722484 0.881782 1.1
v 0.731232 0.890937 1.1
v 0.765816 0.887343 1.1
v 0.765816 0.890937 1.1
v 0.778022 0.885579 1.1
v 0.785143 0.885579 1.1
v 0.796807 0.887343 1.1
v 0.796807 0.890937 1.1
v 0.70063 1 1.1
v 0.70063 1.00647 1.1
v 0.770945 1 1.1
v 0.770945 1.00647 1.1
v 0.79194 1.00976 1.1
v 0.41904 1.18651 0.9
v 0.441183 1.1907 0.9
v 0.459257 1.20325 0.9
v 0.471291 1.22151 0.9
v 0.508606 1.14074 0.9
v 0.506165 1.16369 0.9
v 0.532042 1.15404 0.9
v 0.553037 1.15722 0.9
v 0.553037 1.16369 0.9
v 0.41904 1.18651 1.1
v 0.441183 1.1907 1.1
v 0.459257 1.20325 1.1
v 0.471291 1.22151 1.1
v 0.508606 1.14074 1.1
v 0.506165 1.16369 1.1
v 0.532042 1.15404 1.1
v 0.553037 1.15722 1.1
v 0.553037 1.16369 1.1
v 0.41904 1.29904 0.9
v 0.440892 1.29497 0.9
v 0.471233 1.26463 0.9
v 0.475303 1.24278 0.9
v 0.459024 1.28277 0.9
v 0.41904 1.29904 1.1
v 0.440892 1.29497 1.1
v 0.471233 1.26463 1.1
v 0.475303 1.24278 1.1
v 0.459024 1.28277 1.1
v 0.674631 1.0642 0.9
v 0.674631 1.07519 0.9
v 0.693061 1.0642 0.9
v 0.687324 1.07519 0.9
v 0.630077 1.15722 0.9
v 0.630077 1.16369 0.9
v 0.651072 1.15404 0.9
v 0.674631 1.1527 0.9
v 0.686592 1.1527 0.9
v 0.691841 1.16369 0.9
v 0.718191 1.06747 0.9
v 0.705252 1.07754 0.9
v 0.717779 1.08459 0.9
v 0.736698 1.07726 0.9
v 0.748097 1.09335 0.9
v 0.725148 1.09695 0.9
v 0.727605 1.11523 0.9
v 0.725255 1.1325 0.9
v 0.751896 1.11547 0.9
v 0.705603 1.15053 0.9
v 0.718205 1.14403 0.9
v 0.736882 1.15163 0.9
v 0.770945 1.15722 0.9
v 0.770945 1.16369 0.9
v 0.79194 1.15404 0.9
v 0.674631 1.0642 1.1
v 0.674631 1.07519 1.1
v 0.693061 1.0642 1.1
v 0.687324 1.07519 1.1
v 0.630077 1.15722 1.1
v 0.630077 1.16369 1.1
v 0.651072 1.15404 1.1
v 0.674631 1.1527 1.1
v 0.686592 1.1527 1.1
v 0.691841 1.16369 1.1
v 0.718191 1.06747 1.1
v 0.705252 1.07754 1.1
v 0.717779 1.08459 1.1
v 0.736698 1.07726 1.1
v 0.748097 1.09335 1.1
v 0.725148 1.09695 1.1
v 0.727605 1.11523 1.1
v 0.725255 1.1325 1.1
v 0.751896 1.11547 1.1
v 0.705603 1.15053 1.1
v 0.718205 1.14403 1.1
v 0.736882 1.15163 1.1
v 0.770945 1.15722 1.1
v 0.770945 1.16369 1.1
v 0.79194 1.15404 1.1
v 1.6 0 0
v 0.83943 0.197898 0.9
v 0.843023 0.197898 0.9
v 0.815832 0.260557 0.9
v 0.844109 0.221497 0.9
v 0.884941 0.2 0.9
v 0.884941 0.203594 0.9
v 0.896605 0.205425 0.9
v 0.817458 0.284562 0.9
v 0.820511 0.284562 0.9
v 0.850551 0.287343 0.9
v 0.850551 0.290937 0.9
v 0.864723 0.285579 0.9
v 0.872725 0.285579 0.9
v 0.88066 0.287343 0.9
v 0.88066 0.290937 0.9
v 0.884941 0.287343 0.9
v 0.884941 0.290937 0.9
v 0.896605 0.285579 0.9
v 0.903725 0.205425 0.9
v 0.91593 0.2 0.9
v 0.91593 0.203594 0.9
v 0.959805 0.2 0.9
v 0.966383 0.2 0.9
v 0.985241 0.2 0.9
v 0.985241 0.203594 0.9
v 0.996906 0.205425 0.9
v 0.959263 0.223599 0.9
v 0.903725 0.281782 0.9
v 0.912472 0.290937 0.9
v 0.947056 0.287343 0.9
v 0.947056 0.290937 0.9
v 0.959263 0.285579 0.9
v 0.966383 0.285579 0.9
v 0.978048 0.287343 0.9
v 0.978048 0.290937 0.9
v 0.985241 0.287343 0.9
v 0.985241 0.290937 0.9
v 0.996906 0.285579 0.9
v 0.83943 0.197898 1.1
v 0.843023 0.197898 1.1
v 0.815832 0.260557 1.1
v 0.844109 0.221497 1.1
v 0.884941 0.2 1.1
v 0.884941 0.203594 1.1
v 0.896605 0.205425 1.1
v 0.817458 0.284562 1.1
v 0.820511 0.284562 1.1
v 0.850551 0.287343 1.1
v 0.850551 0.290937 1.1
v 0.864723 0.285579 1.1
v 0.872725 0.285579 1.1
v 0.88066 0.287343 1.1
v 0.88066 0.290937 1.1
v 0.884941 0.287343 1.1
v 0.884941 0.290937 1.1
v 0.896605 0.285579 1.1
v 0.903725 0.205425 1.1
v 0.91593 0.2 1.1
v 0.91593 0.203594 1.1
v 0.959805 0.2 1.1
v 0.966383 0.2 1.1
v 0.985241 0.2 1.1
v 0.985241 0.203594 1.1
v 0.996906 0.205425 1.1
v 0.959263 0.223599 1.1
v 0.903725 0.281782 1.1
v 0.912472 0.290937 1.1
v 0.947056 0.287343 1.1
v 0.947056 0.290937 1.1
v 0.959263 0.285579 1.1
v 0.966383 0.285579 1.1
v 0.978048 0.287343 1.1
v 0.978048 0.290937 1.1
v 0.985241 0.287343 1.1
v 0.985241 0.290937 1.1
v 0.996906 0.285579 1.1
v 1.00403 0.205425 0.9
v 1.01623 0.2 0.9
v 1.01623 0.203594 0.9
v 1.06011 0.2 0.9
v 1.06668 0.2 0.9
v 1.08554 0.2 0.9
v 1.08554 0.203594 0.9
v 1.09721 0.205425 0.9
v 1.05956 0.223599 0.9
v 1.00403 0.281782 0.9
v 1.01277 0.290937 0.9
v 1.04736 0.287343 0.9
v 1.04736 0.290937 0.9
v 1.05956 0.285579 0.9
v 1.06668 0.285579 0.9
v 1.07835 0.287343 0.9
v 1.07835 0.290937 0.9
v 1.08554 0.287343 0.9
v 1.08554 0.290937 0.9
v 1.09721 0.285579 0.9
v 1.10433 0.205425 0.9
v 1.11653 0.2 0.9
v 1.11653 0.203594 0.9
v 1.16041 0.2 0.9
v 1.16699 0.2 0.9
v 1.15986 0.223599 0.9
v 1.10433 0.281782 0.9
v 1.11307 0.290937 0.9
v 1.14766 0.287343 0.9
v 1.14766 0.290937 0.9
v 1.15986 0.285579 0.9
v 1.16699 0.285579 0.9
v 1.17865 0.287343 0.9
v 1.17865 0.290937 0.9
v 1.00403 0.205425 1.1
v 1.01623 0.2 1.1
v 1.01623 0.203594 1.1
v 1.06011 0.2 1.1
v 1.06668 0.2 1.1
v 1.08554 0.2 1.1
v 1.08554 0.203594 1.1
v 1.09721 0.205425 1.1
v 1.05956 0.223599 1.1
v 1.00403 0.281782 1.1
v 1.01277 0.290937 1.1
v 1.04736 0.287343 1.1
v 1.04736 0.290937 1.1
v 1.05956 0.285579 1.1
v 1.06668 0.285579 1.1
v 1.07835 0.287343 1.1
v 1.07835 0.290937 1.1
v 1.08554 0.287343 1.1
v 1.08554 0.290937 1.1
v 1.09721 0.285579 1.1
v 1.10433 0.205425 1.1
v 1.11653 0.2 1.1
v 1.11653 0.203594 1.1
v 1.16041 0.2 1.1
v 1.16699 0.2 1.1
v 1.15986 0.223599 1.1
v 1.10433 0.281782 1.1
v 1.11307 0.290937 1.1
v 1.14766 0.287343 1.1
v 1.14766 0.290937 1.1
v 1.15986 0.285579 1.1
v 1.16699 0.285579 1.1
v 1.17865 0.287343 1.1
v 1.17865 0.290937 1.1
v 0.805018 0.4 0.9
v 0.805018 0.403594 0.9
v 0.816682 0.405425 0.9
v 0.829702 0.405425 0.9
v 0.841366 0.4 0.9
v 0.841366 0.403594 0.9
v 0.851269 0.4 0.9
v 0.851269 0.403594 0.9
v 0.862933 0.405425 0.9
v 0.875953 0.405425 0.9
v 0.887617 0.4 0.9
v 0.887617 0.403594 0.9
v 0.89752 0.4 0.9
v 0.89752 0.403594 0.9
v 0.805018 0.487343 0.9
v 0.805018 0.490937 0.9
v 0.816682 0.485579 0.9
v 0.829702 0.485579 0.9
v 0.841366 0.487343 0.9
v 0.841366 0.490937 0.9
v 0.851269 0.487343 0.9
v 0.851269 0.490937 0.9
v 0.862933 0.485579 0.9
v 0.875953 0.485579 0.9
v 0.887617 0.487343 0.9
v 0.887617 0.490937 0.9
v 0.89752 0.487343 0.9
v 0.89752 0.490937 0.9
v 0.909184 0.405425 0.9
v 0.922204 0.405425 0.9
v 0.933868 0.4 0.9
v 0.933868 0.403594 0.9
v 0.909184 0.485579 0.9
v 0.922204 0.485579 0.9
v 0.933868 0.487343 0.9
v 0.933868 0.490937 0.9
v 0.805018 0.4 1.1
v 0.805018 0.403594 1.1
v 0.816682 0.405425 1.1
v 0.829702 0.405425 1.1
v 0.841366 0.4 1.1
v 0.841366 0.403594 1.1
v 0.851269 0.4 1.1
v 0.851269 0.403594 1.1
v 0.862933 0.405425 1.1
v 0.875953 0.405425 1.1
v 0.887617 0.4 1.1
v 0.887617 0.403594 1.1
v 0.89752 0.4 1.1
v 0.89752 0.403594 1.1
v 0.805018 0.487343 1.1
v 0.805018 0.490937 1.1
v 0.816682 0.485579 1.1
v 0.829702 0.485579 1.1
v 0.841366 0.487343 1.1
v 0.841366 0.490937 1.1
v 0.851269 0.487343 1.1
v 0.851269 0.490937 1.1
v 0.862933 0.485579 1.1
v 0.875953 0.485579 1.1
v 0.887617 0.487343 1.1
v 0.887617 0.490937 1.1
v 0.89752 0.487343 1.1
v 0.89752 0.490937 1.1
v 0.909184 0.405425 1.1
v 0.922204 0.405425 1.1
v 0.933868 0.4 1.1
v 0.933868 0.403594 1.1
v 0.909184 0.485579 1.1
v 0.922204 0.485579 1.1
v 0.933868 0.487343 1.1
v 0.933868 0.490937 1.1
v 0.818038 0.61068 0.9
v 0.832821 0.601653 0.9
v 0.838526 0.606476 0.9
v 0.852487 0.598644 0.9
v 0.852623 0.603865 0.9
v 0.860133 0.604331 0.9
v 0.869084 0.599712 0.9
v 0.867202 0.60573 0.9
v 0.873339 0.607908 0.9
v 0.878052 0.610714 0.9
v 0.884562 0.602916 0.9
v 0.897521 0.6 0.9
v 0.897521 0.603594 0.9
v 0.808782 0.625133 0.9
v 0.821963 0.627091 0.9
v 0.805696 0.644417 0.9
v 0.819869 0.644553 0.9
v 0.828244 0.614308 0.9
v 0.808663 0.665023 0.9
v 0.82187 0.663235 0.9
v 0.817563 0.679917 0.9
v 0.827871 0.676289 0.9
v 0.832296 0.688945 0.9
v 0.83823 0.683969 0.9
v 0.880561 0.624277 0.9
v 0.884969 0.624277 0.9
v 0.853301 0.686529 0.9
v 0.859752 0.68613 0.9
v 0.852758 0.691954 0.9
v 0.866083 0.684935 0.9
v 0.871975 0.683011 0.9
v 0.867456 0.691089 0.9
v 0.879137 0.668626 0.9
v 0.883613 0.668626 0.9
v 0.877103 0.680426 0.9
v 0.883206 0.688495 0.9
v 0.896639 0.687343 0.9
v 0.896639 0.690937 0.9
v 0.908303 0.605425 0.9
v 0.921391 0.605425 0.9
v 0.935835 0.6 0.9
v 0.935835 0.603594 0.9
v 0.973882 0.6 0.9
v 0.973882 0.603594 0.9
v 0.985546 0.605425 0.9
v 0.992666 0.605425 0.9
v 0.921391 0.635669 0.9
v 0.921391 0.641773 0.9
v 0.928443 0.641773 0.9
v 0.93163 0.635669 0.9
v 0.938403 0.643078 0.9
v 0.945591 0.637483 0.9
v 0.945362 0.646994 0.9
v 0.949456 0.65386 0.9
v 0.908303 0.685579 0.9
v 0.921391 0.684833 0.9
v 0.949516 0.67361 0.9
v 0.928036 0.684833 0.9
v 0.930952 0.690937 0.9
v 0.938598 0.683629 0.9
v 0.945599 0.680018 0.9
v 0.955873 0.642925 0.9
v 0.962205 0.651859 0.9
v 0.950821 0.664015 0.9
v 0.964316 0.664151 0.9
v 0.955975 0.684241 0.9
v 0.973882 0.687343 0.9
v 0.973882 0.690937 0.9
v 0.985546 0.685579 0.9
v 0.992666 0.681782 0.9
v 0.818038 0.61068 1.1
v 0.832821 0.601653 1.1
v 0.838526 0.606476 1.1
v 0.852487 0.598644 1.1
v 0.852623 0.603865 1.1
v 0.860133 0.604331 1.1
v 0.869084 0.599712 1.1
v 0.867202 0.60573 1.1
v 0.873339 0.607908 1.1
v 0.878052 0.610714 1.1
v 0.884562 0.602916 1.1
v 0.897521 0.6 1.1
v 0.897521 0.603594 1.1
v 0.808782 0.625133 1.1
v 0.821963 0.627091 1.1
v 0.805696 0.644417 1.1
v 0.819869 0.644553 1.1
v 0.828244 0.614308 1.1
v 0.808663 0.665023 1.1
v 0.82187 0.663235 1.1
v 0.817563 0.679917 1.1
v 0.827871 0.676289 1.1
v 0.832296 0.688945 1.1
v 0.83823 0.683969 1.1
v 0.880561 0.624277 1.1
v 0.884969 0.624277 1.1
v 0.853301 0.686529 1.1
v 0.859752 0.68613 1.1
v 0.852758 0.691954 1.1
v 0.866083 0.684935 1.1
v 0.871975 0.683011 1.1
v 0.867456 0.691089 1.1
v 0.879137 0.668626 1.1
v 0.883613 0.668626 1.1
v 0.877103 0.680426 1.1
v 0.883206 0.688495 1.1
v 0.896639 0.687343 1.1
v 0.896639 0.690937 1.1
v 0.908303 0.605425 1.1
v 0.921391 0.605425 1.1
v 0.935835 0.6 1.1
v 0.935835 0.603594 1.1
v 0.973882 0.6 1.1
v 0.973882 0.603594 1.1
v 0.985546 0.605425 1.1
v 0.992666 0.605425 1.1
v 0.921391 0.635669 1.1
v 0.921391 0.641773 1.1
v 0.928443 0.641773 1.1
v 0.93163 0.635669 1.1
v 0.938403 0.643078 1.1
v 0.945591 0.637483 1.1
v 0.945362 0.646994 1.1
v 0.949456 0.65386 1.1
v 0.908303 0.685579 1.1
v 0.921391 0.684833 1.1
v 0.949516 0.67361 1.1
v 0.928036 0.684833 1.1
v 0.930952 0.690937 1.1
v 0.938598 0.683629 1.1
v 0.945599 0.680018 1.1
v 0.955873 0.642925 1.1
v 0.962205 0.651859 1.1
v 0.950821 0.664015 1.1
v 0.964316 0.664151 1.1
v 0.955975 0.684241 1.1
v 0.973882 0.687343 1.1
v 0.973882 0.690937 1.1
v 0.985546 0.685579 1.1
v 0.992666 0.681782 1.1
v 1.00487 0.6 0.9
v 1.00487 0.603594 0.9
v 1.04875 0.6 0.9
v 1.05532 0.6 0.9
v 1.0482 0.623599 0.9
v 1.00141 0.690937 0.9
v 1.036 0.687343 0.9
v 1.036 0.690937 0.9
v 1.0482 0.685579 0.9
v 1.05532 0.685579 0.9
v 1.06699 0.687343 0.9
v 1.06699 0.690937 0.9
v 1.00487 0.6 1.1
v 1.00487 0.603594 1.1
v 1.04875 0.6 1.1
v 1.05532 0.6 1.1
v 1.0482 0.623599 1.1
v 1.00141 0.690937 1.1
v 1.036 0.687343 1.1
v 1.036 0.690937 1.1
v 1.0482 0.685579 1.1
v 1.05532 0.685579 1.1
v 1.06699 0.687343 1.1
v 1.06699 0.690937 1.1
v 1.6 0 0.9
v 1.6 1.4 0
v 0.808782 0.825133 0.9
v 0.818038 0.81068 0.9
v 0.821963 0.827091 0.9
v 0.832821 0.801653 0.9
v 0.838526 0.806476 0.9
v 0.828244 0.814308 0.9
v 0.805696 0.844417 0.9
v 0.819869 0.844553 0.9
v 0.808663 0.865023 0.9
v 0.82187 0.863235 0.9
v 0.852487 0.798644 0.9
v 0.852623 0.803865 0.9
v 0.860133 0.804331 0.9
v 0.867202 0.80573 0.9
v 0.869084 0.799712 0.9
v 0.873339 0.807909 0.9
v 0.884562 0.802916 0.9
v 0.897521 0.8 0.9
v 0.897521 0.803594 0.9
v 0.878052 0.810714 0.9
v 0.880561 0.824277 0.9
v 0.884969 0.824277 0.9
v 0.879137 0.868626 0.9
v 0.883613 0.868626 0.9
v 0.908303 0.805425 0.9
v 0.921391 0.805425 0.9
v 0.935835 0.8 0.9
v 0.935835 0.803594 0.9
v 0.921391 0.835669 0.9
v 0.921391 0.841773 0.9
v 0.928443 0.841773 0.9
v 0.93163 0.835669 0.9
v 0.945591 0.837483 0.9
v 0.938403 0.843078 0.9
v 0.945362 0.846994 0.9
v 0.949456 0.85386 0.9
v 0.949516 0.87361 0.9
v 0.973882 0.8 0.9
v 0.973882 0.803594 0.9
v 0.985546 0.805425 0.9
v 0.992666 0.805425 0.9
v 0.955873 0.842925 0.9
v 0.962205 0.851859 0.9
v 0.950821 0.864015 0.9
v 0.964316 0.864151 0.9
v 0.808782 0.825133 1.1
v 0.818038 0.81068 1.1
v 0.821963 0.827091 1.1
v 0.832821 0.801653 1.1
v 0.838526 0.806476 1.1
v 0.828244 0.814308 1.1
v 0.805696 0.844417 1.1
v 0.819869 0.844553 1.1
v 0.808663 0.865023 1.1
v 0.82187 0.863235 1.1
v 0.852487 0.798644 1.1
v 0.852623 0.803865 1.1
v 0.860133 0.804331 1.1
v 0.867202 0.80573 1.1
v 0.869084 0.799712 1.1
v 0.873339 0.807909 1.1
v 0.884562 0.802916 1.1
v 0.897521 0.8 1.1
v 0.897521 0.803594 1.1
v 0.878052 0.810714 1.1
v 0.880561 0.824277 1.1
v 0.884969 0.824277 1.1
v 0.879137 0.868626 1.1
v 0.883613 0.868626 1.1
v 0.908303 0.805425 1.1
v 0.921391 0.805425 1.1
v 0.935835 0.8 1.1
v 0.935835 0.803594 1.1
v 0.921391 0.835669 1.1
v 0.921391 0.841773 1.1
v 0.928443 0.841773 1.1
v 0.93163 0.835669 1.1
v 0.945591 0.837483 1.1
v 0.938403 0.843078 1.1
v 0.945362 0.846994 1.1
v 0.949456 0.85386 1.1
v 0.949516 0.87361 1.1
v 0.973882 0.8 1.1
v 0.973882 0.803594 1.1
v 0.985546 0.805425 1.1
v 0.992666 0.805425 1.1
v 0.955873 0.842925 1.1
v 0.962205 0.851859 1.1
v 0.950821 0.864015 1.1
v 0.964316 0.864151 1.1
v 0.817563 0.879917 0.9
v 0.827871 0.876289 0.9
v 0.832296 0.888945 0.9
v 0.83823 0.883969 0.9
v 0.853301 0.886529 0.9
v 0.852758 0.891954 0.9
v 0.859752 0.886131 0.9
v 0.866083 0.884935 0.9
v 0.871975 0.883011 0.9
v 0.867456 0.891089 0.9
v 0.877103 0.880426 0.9
v 0.883206 0.888495 0.9
v 0.896639 0.887343 0.9
v 0.896639 0.890937 0.9
v 0.836372 1 0.9
v 0.815377 1.00976 0.9
v 0.836372 1.00647 0.9
v 0.860971 1.04524 0.9
v 0.877633 1.01922 0.9
v 0.896004 1.02575 0.9
v 0.884698 1.04876 0.9
v 0.908303 0.885579 0.9
v 0.921391 0.884833 0.9
v 0.928036 0.884833 0.9
v 0.930952 0.890937 0.9
v 0.938598 0.883629 0.9
v 0.945599 0.880018 0.9
v 0.955975 0.884241 0.9
v 0.973882 0.887343 0.9
v 0.973882 0.890937 0.9
v 0.985546 0.885579 0.9
v 0.992666 0.881782 0.9
v 0.904243 1.00298 0.9
v 0.939641 0.997559 0.9
v 0.914512 1.01166 0.9
v 0.939886 1.00696 0.9
v 0.969515 0.999482 0.9
v 0.997376 1.00525 0.9
v 0.953404 1.0078 0.9
v 0.966128 1.01031 0.9
v 0.977175 1.01424 0.9
v 0.985658 1.01929 0.9
v 0.990174 1.0437 0.9
v 0.998109 1.0437 0.9
v 0.817563 0.879917 1.1
v 0.827871 0.876289 1.1
v 0.832296 0.888945 1.1
v 0.83823 0.883969 1.1
v 0.853301 0.886529 1.1
v 0.852758 0.891954 1.1
v 0.859752 0.886131 1.1
v 0.866083 0.884935 1.1
v 0.871975 0.883011 1.1
v 0.867456 0.891089 1.1
v 0.877103 0.880426 1.1
v 0.883206 0.888495 1.1
v 0.896639 0.887343 1.1
v 0.896639 0.890937 1.1
v 0.836372 1 1.1
v 0.815377 1.00976 1.1
v 0.836372 1.00647 1.1
v 0.860971 1.04524 1.1
v 0.877633 1.01922 1.1
v 0.896004 1.02575 1.1
v 0.884698 1.04876 1.1
v 0.908303 0.885579 1.1
v 0.921391 0.884833 1.1
v 0.928036 0.884833 1.1
v 0.930952 0.890937 1.1
v 0.938598 0.883629 1.1
v 0.945599 0.880018 1.1
v 0.955975 0.884241 1.1
v 0.973882 0.887343 1.1
v 0.973882 0.890937 1.1
v 0.985546 0.885579 1.1
v 0.992666 0.881782 1.1
v 0.904243 1.00298 1.1
v 0.939641 0.997559 1.1
v 0.914512 1.01166 1.1
v 0.939886 1.00696 1.1
v 0.969515 0.999482 1.1
v 0.997376 1.00525 1.1
v 0.953404 1.0078 1.1
v 0.966128 1.01031 1.1
v 0.977175 1.01424 1.1
v 0.985658 1.01929 1.1
v 0.990174 1.0437 1.1
v 0.998109 1.0437 1.1
v 1.00487 0.8 0.9
v 1.00487 0.803594 0.9
v 1.04875 0.8 0.9
v 1.0482 0.823599 0.9
v 1.05532 0.8 0.9
v 1.00487 0.8 1.1
v 1.00487 0.803594 1.1
v 1.04875 0.8 1.1
v 1.0482 0.823599 1.1
v 1.05532 0.8 1.1
v 1.00141 0.890937 0.9
v 1.036 0.887343 0.9
v 1.036 0.890937 0.9
v 1.0482 0.885579 0.9
v 1.05532 0.885579 0.9
v 1.06699 0.887343 0.9
v 1.06699 0.890937 0.9
v 1.02522 1.00281 0.9
v 1.04658 0.998871 0.9
v 1.02388 1.03723 0.9
v 1.03742 1.01428 0.9
v 1.04318 1.01178 0.9
v 1.03193 1.03723 0.9
v 1.06916 0.997559 0.9
v 1.09373 1.00067 0.9
v 1.05091 1.00964 0.9
v 1.05935 1.00818 0.9
v 1.06721 1.00769 0.9
v 1.08387 1.00989 0.9
v 1.09553 1.01648 0.9
v 1.1479 1 0.9
v 1.112 1.01001 0.9
v 1.12336 1.02487 0.9
v 1.10239 1.0282 0.9
v 1.10468 1.04577 0.9
v 1.1479 1.01794 0.9
v 1.12714 1.04455 0.9
v 1.16389 1.0188 0.9
v 1.1706 1.03857 0.9
v 1.17576 1.02945 0.9
v 1.18696 1.03918 0.9
v 1.00141 0.890937 1.1
v 1.036 0.887343 1.1
v 1.036 0.890937 1.1
v 1.0482 0.885579 1.1
v 1.05532 0.885579 1.1
v 1.06699 0.887343 1.1
v 1.06699 0.890937 1.1
v 1.02522 1.00281 1.1
v 1.04658 0.998871 1.1
v 1.02388 1.03723 1.1
v 1.03742 1.01428 1.1
v 1.04318 1.01178 1.1
v 1.03193 1.03723 1.1
v 1.06916 0.997559 1.1
v 1.09373 1.00067 1.1
v 1.05091 1.00964 1.1
v 1.05935 1.00818 1.1
v 1.06721 1.00769 1.1
v 1.08387 1.00989 1.1
v 1.09553 1.01648 1.1
v 1.1479 1 1.1
v 1.112 1.01001 1.1
v 1.12336 1.02487 1.1
v 1.10239 1.0282 1.1
v 1.10468 1.04577 1.1
v 1.1479 1.01794 1.1
v 1.12714 1.04455 1.1
v 1.16389 1.0188 1.1
v 1.1706 1.03857 1.1
v 1.17576 1.02945 1.1
v 1.18696 1.03918 1.1
v 0.855418 1.07995 0.9
v 0.880929 1.0802 0.9
v 0.860758 1.11704 0.9
v 0.88453 1.11382 0.9
v 0.895333 1.13732 0.9
v 0.815377 1.15404 0.9
v 0.836372 1.15722 0.9
v 0.836372 1.16369 0.9
v 0.876778 1.14385 0.9
v 0.987611 1.12353 0.9
v 0.995668 1.12353 0.9
v 0.913978 1.15114 0.9
v 0.903297 1.1601 0.9
v 0.941107 1.15575 0.9
v 0.940129 1.16552 0.9
v 0.952717 1.15503 0.9
v 0.964114 1.15288 0.9
v 0.974719 1.14942 0.9
v 0.966586 1.16396 0.9
v 0.98395 1.14477 0.9
v 0.994936 1.15929 0.9
v 0.855418 1.07995 1.1
v 0.880929 1.0802 1.1
v 0.860758 1.11704 1.1
v 0.88453 1.11382 1.1
v 0.895333 1.13732 1.1
v 0.815377 1.15404 1.1
v 0.836372 1.15722 1.1
v 0.836372 1.16369 1.1
v 0.876778 1.14385 1.1
v 0.987611 1.12353 1.1
v 0.995668 1.12353 1.1
v 0.913978 1.15114 1.1
v 0.903297 1.1601 1.1
v 0.941107 1.15575 1.1
v 0.940129 1.16552 1.1
v 0.952717 1.15503 1.1
v 0.964114 1.15288 1.1
v 0.974719 1.14942 1.1
v 0.966586 1.16396 1.1
v 0.98395 1.14477 1.1
v 0.994936 1.15929 1.1
v 1.02888 1.12878 0.9
v 1.03694 1.12878 0.9
v 1.05268 1.08044 0.9
v 1.05268 1.09045 0.9
v 1.07014 1.07946 0.9
v 1.07014 1.09155 0.9
v 1.09626 1.07025 0.9
v 1.08552 1.07673 0.9
v 1.08393 1.08569 0.9
v 1.09908 1.09004 0.9
v 1.08213 1.09405 0.9
v 1.09052 1.10009 0.9
v 1.09546 1.10992 0.9
v 1.09711 1.12377 0.9
v 1.04121 1.14879 0.9
v 1.04701 1.15143 0.9
v 1.02888 1.16027 0.9
v 1.04014 1.16291 0.9
v 1.04975 1.16448 0.9
v 1.05366 1.15349 0.9
v 1.06059 1.15482 0.9
v 1.06721 1.15526 0.9
v 1.05851 1.16526 0.9
v 1.06721 1.16552 0.9
v 1.08071 1.15339 0.9
v 1.08997 1.14776 0.9
v 1.09533 1.13801 0.9
v 1.10258 1.05995 0.9
v 1.12452 1.06074 0.9
v 1.10322 1.08122 0.9
v 1.11664 1.07293 0.9
v 1.11036 1.0982 0.9
v 1.11736 1.10999 0.9
v 1.11969 1.12524 0.9
v 1.18955 1.0559 0.9
v 1.15339 1.12878 0.9
v 1.16145 1.12878 0.9
v 1.10657 1.15545 0.9
v 1.16572 1.14879 0.9
v 1.17137 1.15143 0.9
v 1.15339 1.16027 0.9
v 1.17393 1.1642 0.9
v 1.1778 1.15349 0.9
v 1.18455 1.15482 0.9
v 1.19111 1.15526 0.9
v 1.19111 1.16552 0.9
v 1.02888 1.12878 1.1
v 1.03694 1.12878 1.1
v 1.05268 1.08044 1.1
v 1.05268 1.09045 1.1
v 1.07014 1.07946 1.1
v 1.07014 1.09155 1.1
v 1.09626 1.07025 1.1
v 1.08552 1.07673 1.1
v 1.08393 1.08569 1.1
v 1.09908 1.09004 1.1
v 1.08213 1.09405 1.1
v 1.09052 1.10009 1.1
v 1.09546 1.10992 1.1
v 1.09711 1.12377 1.1
v 1.04121 1.14879 1.1
v 1.04701 1.15143 1.1
v 1.02888 1.16027 1.1
v 1.04014 1.16291 1.1
v 1.04975 1.16448 1.1
v 1.05366 1.15349 1.1
v 1.06059 1.15482 1.1
v 1.06721 1.15526 1.1
v 1.05851 1.16526 1.1
v 1.06721 1.16552 1.1
v 1.08071 1.15339 1.1
v 1.08997 1.14776 1.1
v 1.09533 1.13801 1.1
v 1.10258 1.05995 1.1
v 1.12452 1.06074 1.1
v 1.10322 1.08122 1.1
v 1.11664 1.07293 1.1
v 1.11036 1.0982 1.1
v 1.11736 1.10999 1.1
v 1.11969 1.12524 1.1
v 1.18955 1.0559 1.1
v 1.15339 1.12878 1.1
v 1.16145 1.12878 1.1
v 1.10657 1.15545 1.1
v 1.16572 1.14879 1.1
v 1.17137 1.15143 1.1
v 1.15339 1.16027 1.1
v 1.17393 1.1642 1.1
v 1.1778 1.15349 1.1
v 1.18455 1.15482 1.1
v 1.19111 1.15526 1.1
v 1.19111 1.16552 1.1
v 1.24811 1 0.9
v 1.24811 1.0188 0.9
v 1.24811 1 1.1
v 1.24811 1.0188 1.1
v 1.20875 1.05839 0.9
v 1.20271 1.06958 0.9
v 1.21151 1.0816 0.9
v 1.22333 1.07281 0.9
v 1.2329 1.08486 0.9
v 1.21741 1.09399 0.9
v 1.22076 1.10748 0.9
v 1.22187 1.12279 0.9
v 1.22007 1.13677 0.9
v 1.23963 1.09698 0.9
v 1.24361 1.1095 0.9
v 1.24494 1.12279 0.9
v 1.20518 1.15319 0.9
v 1.21467 1.14696 0.9
v 1.21462 1.16272 0.9
v 1.23145 1.15435 0.9
v 1.24157 1.14088 0.9
v 1.20875 1.05839 1.1
v 1.20271 1.06958 1.1
v 1.21151 1.0816 1.1
v 1.22333 1.07281 1.1
v 1.2329 1.08486 1.1
v 1.21741 1.09399 1.1
v 1.22076 1.10748 1.1
v 1.22187 1.12279 1.1
v 1.22007 1.13677 1.1
v 1.23963 1.09698 1.1
v 1.24361 1.1095 1.1
v 1.24494 1.12279 1.1
v 1.20518 1.15319 1.1
v 1.21467 1.14696 1.1
v 1.21462 1.16272 1.1
v 1.23145 1.15435 1.1
v 1.24157 1.14088 1.1
v 1.6 1.4 0.9
f  2 3 4
f  2 4 12
f  2 7 3
f  2 21 7
f  2 12 13
f  1 2 392
f  2 13 384
f  2 384 385
f  2 385 393
f  1 1082 2
f  14 12 4
f  14 4 9
f  5 9 4
f  6 8 35
f  6 35 10
f  15 11 16
f  16 19 17
f  11 20 16
f  19 16 18
f  20 18 16
f  7 27 8
f  22 7 21
f  23 7 22
f  23 27 7
f  35 8 27
f  24 26 90
f  24 90 29
f  10 35 30
f  30 35 31
f  31 34 32
f  34 31 33
f  35 33 31
f  28 37 36
f  37 40 38
f  28 41 37
f  29 86 85
f  40 37 39
f  41 39 37
f  32 34 196
f  38 196 34
f  2 1082 21
f  25 81 26
f  90 26 81
f  84 82 96
f  29 88 86
f  29 90 88
f  86 89 87
f  89 86 88
f  38 40 195
f  87 195 40
f  87 89 205
f  83 92 91
f  83 94 92
f  92 94 93
f  93 205 89
f  93 94 211
f  97 106 105
f  97 107 106
f  97 110 107
f  110 97 99
f  98 102 95
f  98 104 102
f  103 95 102
f  106 109 108
f  109 106 107
f  95 211 94
f  95 103 211
f  101 112 111
f  101 709 112
f  112 709 113
f  108 846 103
f  108 109 852
f  113 852 109
f  156 13 155
f  17 200 13
f  17 19 199
f  32 199 19
f  200 17 199
f  147 13 148
f  148 13 150
f  155 13 147
f  150 13 152
f  152 13 269
f  13 200 270
f  13 270 269
f  13 156 384
f  160 278 161
f  161 278 157
f  149 278 160
f  151 278 149
f  153 279 151
f  157 278 162
f  162 278 163
f  163 278 165
f  165 278 166
f  166 278 168
f  168 278 169
f  32 196 201
f  38 195 196
f  32 201 199
f  87 203 195
f  87 206 203
f  87 205 206
f  197 201 196
f  198 217 202
f  93 209 205
f  93 212 209
f  93 211 212
f  198 204 206
f  203 206 204
f  198 206 221
f  207 221 206
f  208 210 212
f  211 103 215
f  103 846 215
f  108 850 846
f  209 212 210
f  208 212 227
f  213 227 212
f  214 216 847
f  215 847 216
f  198 219 217
f  198 221 219
f  208 223 222
f  208 225 223
f  217 220 218
f  220 217 219
f  208 227 225
f  214 229 228
f  214 860 229
f  223 226 224
f  226 223 225
f  229 861 230
f  271 269 270
f  269 271 272
f  270 200 274
f  218 274 200
f  218 305 274
f  274 306 275
f  306 274 305
f  154 279 153
f  267 279 154
f  268 279 267
f  268 276 279
f  151 279 278
f  277 283 276
f  269 285 277
f  269 272 285
f  281 169 278
f  276 283 279
f  281 280 169
f  279 283 282
f  284 282 283
f  285 283 277
f  273 275 286
f  286 275 288
f  288 275 291
f  289 290 287
f  290 293 287
f  293 294 287
f  294 300 287
f  275 306 291
f  291 306 292
f  292 307 295
f  297 296 287
f  299 297 287
f  301 303 287
f  300 301 287
f  303 299 287
f  302 313 304
f  314 304 313
f  218 309 305
f  218 311 309
f  309 311 310
f  218 220 930
f  218 312 311
f  218 919 312
f  224 930 220
f  218 921 919
f  307 292 306
f  295 307 302
f  307 315 302
f  310 316 308
f  316 310 311
f  313 302 315
f  312 931 933
f  312 933 936
f  312 936 322
f  318 319 317
f  318 321 319
f  320 317 319
f  323 322 936
f  1 392 383
f  1 383 1083
f  383 392 1083
f  2 393 392
f  386 393 385
f  392 393 394
f  387 451 397
f  393 396 394
f  399 398 401
f  401 398 400
f  392 394 395
f  392 395 398
f  392 399 410
f  392 410 411
f  392 398 399
f  392 411 412
f  392 412 413
f  392 413 641
f  392 641 642
f  158 384 156
f  159 384 158
f  159 419 384
f  159 418 419
f  164 418 159
f  167 493 164
f  164 427 423
f  164 423 418
f  164 430 427
f  164 489 430
f  424 491 425
f  428 491 424
f  425 498 426
f  429 491 428
f  431 491 429
f  426 498 421
f  421 498 432
f  432 498 456
f  456 498 458
f  458 498 459
f  384 420 448
f  420 384 419
f  422 448 420
f  448 422 449
f  449 422 450
f  448 449 451
f  397 451 449
f  450 453 454
f  450 454 627
f  455 450 422
f  457 450 455
f  450 457 460
f  459 496 462
f  462 496 461
f  463 466 460
f  561 466 463
f  466 561 563
f  450 460 453
f  460 466 453
f  466 567 467
f  170 493 167
f  282 493 170
f  282 284 493
f  298 493 284
f  164 494 489
f  164 493 494
f  304 500 298
f  304 314 500
f  298 500 493
f  320 501 500
f  488 491 431
f  490 491 488
f  425 491 498
f  489 498 492
f  492 498 491
f  489 494 498
f  495 498 494
f  498 496 459
f  498 497 496
f  498 562 497
f  498 564 562
f  502 499 501
f  504 516 507
f  504 515 516
f  507 516 509
f  505 506 503
f  506 508 503
f  508 511 503
f  566 565 503
f  568 566 503
f  511 512 503
f  512 513 503
f  569 568 503
f  513 569 503
f  509 517 510
f  510 575 514
f  317 500 314
f  317 320 500
f  324 501 320
f  324 502 501
f  502 940 504
f  504 940 515
f  502 324 940
f  515 940 946
f  515 954 519
f  517 509 516
f  519 521 520
f  520 578 518
f  578 520 521
f  510 517 575
f  517 577 575
f  522 1084 1090
f  523 580 579
f  523 582 580
f  522 1090 1092
f  522 1092 584
f  522 584 583
f  560 461 496
f  461 560 559
f  497 562 561
f  563 561 562
f  567 466 563
f  570 467 567
f  514 575 570
f  571 570 575
f  576 571 575
f  467 570 571
f  572 467 571
f  571 576 586
f  574 587 651
f  651 587 653
f  579 586 576
f  586 579 581
f  581 579 580
f  585 586 581
f  586 585 1179
f  586 1186 588
f  586 589 587
f  589 586 588
f  653 587 661
f  587 589 661
f  452 628 398
f  400 398 623
f  398 628 623
f  623 628 624
f  624 628 625
f  625 628 626
f  626 631 644
f  464 627 454
f  465 467 630
f  465 630 629
f  467 655 630
f  631 626 628
f  630 656 631
f  644 631 656
f  660 644 656
f  467 572 655
f  573 657 572
f  657 655 572
f  654 662 652
f  662 663 652
f  659 658 652
f  670 659 652
f  671 670 652
f  656 630 655
f  663 666 652
f  661 589 664
f  666 667 652
f  667 668 652
f  668 671 652
f  675 664 589
f  590 675 589
f  664 675 665
f  665 675 669
f  660 672 674
f  669 673 672
f  674 672 673
f  673 669 675
f  392 642 1506
f  1 701 1082
f  1 1083 701
f  701 1083 1082
f  1082 25 21
f  1082 81 25
f  1082 82 81
f  1082 96 82
f  100 702 704
f  707 703 706
f  703 707 719
f  703 715 714
f  703 719 717
f  703 717 715
f  708 719 707
f  705 711 710
f  712 710 711
f  113 709 858
f  710 858 709
f  705 713 711
f  715 718 716
f  718 715 717
f  710 712 858
f  716 858 712
f  716 718 858
f  730 858 718
f  721 723 722
f  722 729 720
f  729 722 723
f  726 724 725
f  724 735 734
f  724 726 739
f  727 739 726
f  724 737 735
f  724 739 737
f  728 731 730
f  732 730 731
f  730 732 876
f  728 733 731
f  735 738 736
f  738 735 737
f  736 876 732
f  736 738 877
f  788 877 738
f  877 788 790
f  1082 97 96
f  1082 99 97
f  1082 100 99
f  1082 702 100
f  1082 703 702
f  1082 706 703
f  1082 721 706
f  1082 723 721
f  1082 724 723
f  1082 725 724
f  779 781 780
f  780 787 778
f  787 780 781
f  784 782 783
f  782 793 792
f  782 784 797
f  785 797 784
f  782 795 793
f  782 797 795
f  786 789 788
f  790 788 789
f  794 877 790
f  786 791 789
f  793 796 794
f  796 793 795
f  799 801 800
f  800 804 798
f  804 800 801
f  802 810 809
f  803 806 805
f  807 805 806
f  803 808 806
f  108 853 850
f  108 852 853
f  113 856 852
f  215 846 847
f  214 847 862
f  848 862 847
f  849 851 853
f  850 853 851
f  849 853 868
f  113 858 856
f  854 868 853
f  855 857 859
f  856 859 857
f  859 856 858
f  855 859 878
f  214 862 860
f  849 864 863
f  849 866 864
f  849 868 866
f  229 860 861
f  864 867 865
f  867 864 866
f  855 870 869
f  855 872 870
f  855 878 872
f  870 873 871
f  873 870 872
f  858 730 876
f  736 877 876
f  874 878 859
f  877 879 875
f  879 877 794
f  879 805 880
f  224 226 930
f  230 930 226
f  218 924 921
f  218 928 924
f  230 861 929
f  865 929 861
f  218 930 928
f  312 918 931
f  312 919 918
f  865 867 929
f  230 929 930
f  871 929 867
f  871 873 929
f  922 942 920
f  923 942 922
f  925 942 923
f  928 956 943
f  928 930 956
f  935 942 932
f  920 942 935
f  932 942 934
f  934 942 937
f  939 937 942
f  323 936 938
f  323 938 324
f  940 324 938
f  926 942 925
f  956 941 939
f  939 942 943
f  956 939 943
f  927 942 926
f  956 950 947
f  950 956 951
f  956 954 951
f  956 944 941
f  956 945 944
f  952 947 950
f  952 948 947
f  956 947 945
f  951 954 953
f  881 929 873
f  961 959 960
f  957 959 964
f  964 959 967
f  967 959 969
f  966 968 965
f  968 970 965
f  970 971 965
f  971 981 965
f  956 972 954
f  975 973 965
f  977 975 965
f  978 977 965
f  981 974 965
f  974 978 965
f  969 959 961
f  969 961 979
f  962 979 961
f  979 962 980
f  1059 987 963
f  980 962 986
f  980 986 982
f  982 984 983
f  985 983 984
f  984 982 986
f  879 794 796
f  879 796 805
f  880 807 881
f  880 805 807
f  811 881 807
f  1082 929 881
f  1082 958 929
f  1082 959 958
f  1082 960 959
f  1082 1058 960
f  1058 1060 1059
f  987 1059 1060
f  1065 1063 1064
f  1062 1064 1063
f  1062 1066 1064
f  1061 1068 1067
f  1082 779 725
f  1082 781 779
f  1082 782 781
f  1082 783 782
f  1082 799 783
f  1082 801 799
f  1082 802 801
f  1082 810 802
f  1082 881 811
f  1082 811 810
f  1082 1060 1058
f  1082 1061 1060
f  1082 1068 1061
f  1082 1069 1068
f  1082 1266 1069
f  1082 1277 1266
f  1082 1278 1277
f  1082 1468 1278
f  1082 1469 1468
f  515 946 949
f  515 949 953
f  515 953 954
f  519 954 521
f  521 954 522
f  522 955 1087
f  522 954 955
f  955 1094 1087
f  955 1098 1094
f  955 1100 1098
f  955 1101 1100
f  522 1087 1085
f  522 1085 1084
f  1088 1106 1089
f  1089 1106 1086
f  1086 1106 1091
f  1091 1106 1093
f  1093 1106 1175
f  1095 1106 1088
f  1096 1107 1095
f  1097 1107 1096
f  1099 1107 1097
f  1102 1100 1101
f  1100 1102 1108
f  1103 1107 1099
f  1095 1107 1106
f  1103 1104 1107
f  1105 1186 1104
f  1100 1195 1105
f  1104 1186 1107
f  1195 1186 1105
f  976 1101 955
f  983 1101 976
f  983 985 1101
f  985 1110 1101
f  1063 1110 985
f  1063 1065 1110
f  1065 1121 1110
f  1110 1122 1111
f  1109 1111 1112
f  1112 1111 1115
f  1115 1111 1116
f  1100 1108 1195
f  1197 1196 1113
f  1114 1117 1113
f  1117 1118 1113
f  1118 1119 1113
f  1199 1197 1113
f  1200 1199 1113
f  1119 1127 1113
f  1127 1120 1113
f  1120 1200 1113
f  1122 1110 1121
f  1111 1122 1116
f  1116 1122 1125
f  1123 1125 1122
f  1263 1205 1124
f  1125 1123 1126
f  1126 1123 1128
f  1123 1204 1128
f  584 1092 1174
f  584 1174 585
f  1176 585 1174
f  1179 585 1176
f  1175 1106 1177
f  586 1179 1183
f  586 1183 1185
f  586 1185 1186
f  1177 1106 1178
f  1178 1106 1180
f  1180 1106 1181
f  1184 1181 1106
f  1181 1184 1182
f  1107 1186 1185
f  588 1186 1187
f  1188 588 1187
f  1190 1334 1189
f  1188 1187 1206
f  1188 1192 1190
f  1191 1190 1192
f  1192 1188 1206
f  1190 1191 1334
f  1128 1202 1201
f  1202 1128 1204
f  1203 1201 1202
f  1198 1279 1187
f  1201 1279 1198
f  1201 1203 1279
f  1206 1187 1207
f  1207 1187 1210
f  1209 1343 1208
f  1210 1187 1211
f  1279 1211 1187
f  1212 1344 1209
f  1213 1344 1212
f  1214 1344 1213
f  1065 1262 1121
f  1065 1264 1262
f  1069 1264 1065
f  1069 1266 1264
f  1262 1264 1263
f  1205 1263 1264
f  1265 1273 1272
f  1265 1275 1273
f  1266 1277 1276
f  1274 1272 1273
f  1272 1279 1203
f  1279 1272 1274
f  1278 1280 1274
f  1278 1285 1280
f  1279 1274 1280
f  1211 1279 1281
f  1211 1281 1217
f  1284 1217 1281
f  1282 1287 1288
f  1282 1283 1287
f  1282 1288 1284
f  1217 1284 1296
f  1285 1278 1286
f  1286 1278 1293
f  1289 1284 1288
f  1290 1284 1289
f  1291 1284 1290
f  1403 1217 1296
f  1295 1284 1291
f  1296 1284 1295
f  1278 1292 1293
f  1297 1293 1292
f  1293 1297 1294
f  1294 1297 1300
f  1294 1300 1298
f  1292 1278 1468
f  1410 1298 1300
f  1299 1469 1301
f  392 1506 1083
f  1189 1334 1336
f  1189 1340 1339
f  1189 1336 1340
f  1340 1342 1341
f  1342 1340 1336
f  1346 1341 1342
f  1348 1341 1346
f  1193 1343 1194
f  1194 1343 1335
f  1208 1343 1193
f  1335 1343 1337
f  1337 1343 1338
f  1338 1343 1345
f  1209 1344 1343
f  1215 1344 1214
f  1215 1216 1344
f  1217 1344 1216
f  1345 1343 1347
f  1347 1343 1349
f  1349 1343 1350
f  1350 1353 1351
f  1353 1350 1343
f  1506 643 644
f  1506 642 645
f  1506 645 643
f  1506 644 660
f  1217 1378 1344
f  1378 1217 1380
f  1379 1344 1378
f  1344 1379 1376
f  1376 1379 1377
f  1380 1217 1383
f  1383 1217 1382
f  1382 1217 1403
f  1384 1405 1385
f  1381 1377 1379
f  1386 1377 1381
f  1387 1377 1386
f  1388 1377 1387
f  1389 1377 1388
f  1402 1377 1389
f  1344 1392 1354
f  1392 1344 1376
f  1377 1391 1390
f  1391 1377 1395
f  1395 1377 1396
f  1396 1377 1397
f  1397 1377 1400
f  1401 1377 1402
f  1400 1377 1401
f  1406 1385 1405
f  1406 1407 1385
f  1298 1410 1404
f  1404 1473 1406
f  1406 1473 1407
f  1407 1473 1408
f  1408 1411 1409
f  1411 1408 1412
f  1404 1410 1473
f  1474 1408 1473
f  1408 1478 1412
f  1477 1408 1474
f  1478 1408 1477
f  1409 1416 1413
f  1416 1409 1411
f  1412 1415 1414
f  1415 1412 1418
f  1418 1412 1419
f  1419 1412 1420
f  1420 1412 1484
f  1485 1412 1480
f  1484 1412 1485
f  1506 660 674
f  1506 674 1341
f  1506 1341 1348
f  1506 1348 1352
f  1506 1352 1354
f  1082 1083 1506
f  1469 1302 1301
f  1302 1469 1472
f  1472 1469 1475
f  1082 1506 1469
f  1479 1412 1478
f  1480 1412 1479
f  1506 1475 1469
f  1506 1476 1475
f  1506 1481 1476
f  1506 1482 1481
f  1506 1488 1483
f  1506 1483 1482
f  1506 1354 1392
f  1506 1392 1393
f  1506 1393 1394
f  1506 1394 1398
f  1506 1398 1399
f  1506 1399 1413
f  1506 1413 1416
f  1506 1416 1417
f  1506 1417 1421
f  1506 1421 1486
f  1506 1486 1487
f  1506 1487 1488
f  42 4 3
f  43 5 4
f  44 9 5
f  46 3 7
f  45 8 6
f  47 7 8
f  49 6 10
f  48 14 9
f  50 20 11
f  42 43 4
f  42 3 46
f  43 44 5
f  45 6 49
f  45 47 8
f  46 7 47
f  42 44 43
f  42 45 44
f  42 46 45
f  44 45 48
f  45 46 47
f  44 48 9
f  54 50 11
f  49 10 69
f  45 49 48
f  48 49 50
f  54 48 50
f  50 49 59
f  51 13 12
f  53 12 14
f  52 17 13
f  54 11 15
f  55 15 16
f  56 16 17
f  69 10 30
f  57 19 18
f  59 18 20
f  58 32 19
f  51 52 13
f  51 12 53
f  53 14 48
f  52 56 17
f  51 53 52
f  53 48 54
f  52 53 54
f  52 54 56
f  54 15 55
f  55 16 56
f  50 59 20
f  57 58 19
f  57 18 59
f  54 55 56
f  49 69 59
f  57 59 58
f  58 59 69
f  60 22 21
f  61 23 22
f  62 27 23
f  64 21 25
f  63 26 24
f  65 25 26
f  66 35 27
f  68 24 29
f  67 41 28
f  60 61 22
f  60 21 64
f  61 62 23
f  63 65 26
f  63 24 68
f  64 25 65
f  60 62 61
f  60 64 62
f  62 63 66
f  62 64 63
f  63 64 65
f  62 66 27
f  75 67 28
f  68 29 118
f  66 63 68
f  66 68 67
f  66 67 75
f  68 80 67
f  70 30 31
f  71 31 32
f  72 34 33
f  74 33 35
f  73 38 34
f  75 28 36
f  76 36 37
f  77 37 38
f  118 29 85
f  78 40 39
f  80 39 41
f  79 87 40
f  58 71 32
f  69 30 70
f  70 31 71
f  72 73 34
f  72 33 74
f  66 74 35
f  73 77 38
f  58 69 71
f  69 70 71
f  72 74 73
f  66 75 74
f  73 74 75
f  73 75 77
f  75 36 76
f  76 37 77
f  67 80 41
f  78 79 40
f  78 39 80
f  75 76 77
f  68 118 80
f  78 80 79
f  79 80 118
f  114 90 81
f  115 81 82
f  116 94 83
f  117 82 84
f  123 90 114
f  123 114 115
f  123 115 116
f  114 81 115
f  115 82 117
f  116 83 124
f  129 117 84
f  115 117 116
f  116 117 127
f  117 131 127
f  119 85 86
f  120 86 87
f  121 89 88
f  123 88 90
f  124 83 91
f  122 93 89
f  125 91 92
f  126 92 93
f  128 98 95
f  127 95 94
f  79 120 87
f  118 85 119
f  119 86 120
f  121 88 123
f  121 122 89
f  122 126 93
f  124 91 125
f  79 118 120
f  118 119 120
f  121 123 122
f  123 116 124
f  122 123 124
f  122 124 126
f  124 125 126
f  125 92 126
f  116 127 94
f  127 128 95
f  131 128 127
f  130 96 97
f  129 84 96
f  131 104 98
f  138 97 105
f  133 99 100
f  132 110 99
f  129 96 130
f  130 97 138
f  131 98 128
f  129 131 117
f  129 130 138
f  129 138 131
f  132 99 133
f  132 143 110
f  133 100 742
f  134 101 144
f  132 133 143
f  133 134 143
f  135 103 102
f  137 102 104
f  136 108 103
f  139 105 106
f  141 106 108
f  140 109 107
f  143 107 110
f  142 113 109
f  144 101 111
f  145 111 112
f  146 112 113
f  135 136 103
f  135 102 137
f  131 137 104
f  136 141 108
f  138 105 139
f  139 106 141
f  140 142 109
f  135 137 136
f  131 138 137
f  136 137 138
f  136 138 141
f  138 139 141
f  140 107 143
f  142 146 113
f  144 111 145
f  145 112 146
f  134 144 143
f  140 143 142
f  142 143 144
f  142 144 146
f  144 145 146
f  172 147 148
f  184 149 160
f  173 151 149
f  174 148 150
f  175 153 151
f  176 150 152
f  177 154 153
f  178 267 154
f  171 147 172
f  172 148 174
f  173 149 184
f  173 175 151
f  175 177 153
f  174 150 176
f  177 178 154
f  171 172 184
f  172 173 184
f  172 174 173
f  173 174 175
f  174 177 175
f  174 176 177
f  177 176 178
f  176 325 178
f  171 155 147
f  179 156 155
f  180 158 156
f  182 159 158
f  185 160 161
f  181 161 157
f  186 157 162
f  187 162 163
f  183 164 159
f  189 163 165
f  188 167 164
f  190 165 166
f  192 166 168
f  191 170 167
f  193 168 169
f  338 169 280
f  171 179 155
f  179 180 156
f  171 185 179
f  179 185 181
f  179 181 180
f  180 181 182
f  180 182 158
f  182 183 159
f  182 181 186
f  182 186 183
f  185 184 160
f  185 161 181
f  181 157 186
f  171 184 185
f  186 162 187
f  187 163 189
f  183 188 164
f  189 165 190
f  190 166 192
f  188 191 167
f  192 168 193
f  193 169 338
f  191 194 170
f  186 187 183
f  187 188 183
f  187 189 188
f  188 189 191
f  189 190 191
f  190 192 191
f  192 193 194
f  193 338 194
f  191 192 194
f  231 196 195
f  232 197 196
f  239 195 203
f  234 204 198
f  233 201 197
f  231 232 196
f  232 233 197
f  231 195 239
f  240 204 234
f  234 198 238
f  231 233 232
f  231 239 233
f  233 239 234
f  239 240 234
f  233 234 237
f  238 198 202
f  235 200 199
f  237 199 201
f  236 218 200
f  253 202 217
f  233 237 201
f  234 238 237
f  235 236 200
f  235 199 237
f  236 254 218
f  238 202 253
f  235 237 236
f  236 237 254
f  237 238 254
f  238 253 254
f  240 203 204
f  241 206 205
f  242 207 206
f  243 221 207
f  245 205 209
f  246 209 210
f  244 210 208
f  247 212 211
f  248 213 212
f  249 227 213
f  251 211 215
f  250 216 214
f  252 215 216
f  239 203 240
f  241 242 206
f  241 205 245
f  242 243 207
f  244 246 210
f  245 209 246
f  244 208 258
f  241 243 242
f  241 245 243
f  243 245 244
f  244 245 246
f  243 244 257
f  247 248 212
f  247 211 251
f  248 249 213
f  252 216 250
f  251 215 252
f  250 214 264
f  247 249 248
f  247 251 249
f  249 250 263
f  251 250 249
f  251 252 250
f  258 208 222
f  254 217 218
f  255 220 219
f  257 219 221
f  256 224 220
f  259 222 223
f  260 223 224
f  264 214 228
f  261 226 225
f  263 225 227
f  262 230 226
f  265 228 229
f  266 229 230
f  243 257 221
f  244 258 257
f  253 217 254
f  255 256 220
f  255 219 257
f  256 260 224
f  258 222 259
f  259 223 260
f  255 257 256
f  257 260 256
f  257 258 260
f  258 259 260
f  249 263 227
f  250 264 263
f  261 262 226
f  261 225 263
f  264 228 265
f  262 266 230
f  265 229 266
f  261 263 262
f  262 263 266
f  263 264 266
f  264 265 266
f  325 268 267
f  327 152 269
f  328 271 270
f  329 272 271
f  332 270 274
f  331 275 273
f  333 274 275
f  176 152 327
f  178 325 267
f  325 326 268
f  327 269 335
f  328 329 271
f  329 330 272
f  328 270 332
f  176 327 325
f  325 327 326
f  328 330 329
f  328 331 330
f  328 332 331
f  331 333 275
f  332 274 333
f  331 332 333
f  326 276 268
f  334 277 276
f  335 269 277
f  330 285 272
f  336 281 278
f  337 278 279
f  339 280 281
f  194 282 170
f  340 279 282
f  341 284 283
f  343 283 285
f  342 298 284
f  344 273 286
f  345 289 287
f  346 286 288
f  347 290 289
f  349 288 291
f  348 293 290
f  350 291 292
f  351 294 293
f  353 292 295
f  354 287 296
f  355 296 297
f  357 297 299
f  361 299 303
f  356 304 298
f  352 300 294
f  358 301 300
f  359 303 301
f  360 295 302
f  362 302 304
f  326 334 276
f  334 335 277
f  326 327 335
f  326 335 334
f  330 331 344
f  330 344 345
f  330 345 343
f  336 278 337
f  336 339 281
f  337 279 340
f  338 280 339
f  194 340 282
f  330 343 285
f  341 283 343
f  341 342 284
f  342 356 298
f  336 337 339
f  194 338 340
f  337 340 339
f  338 339 340
f  345 354 343
f  341 343 342
f  342 343 356
f  331 273 344
f  344 286 346
f  345 347 289
f  345 287 354
f  346 288 349
f  347 348 290
f  348 351 293
f  349 291 350
f  351 352 294
f  350 292 353
f  353 295 360
f  344 347 345
f  344 346 347
f  346 349 348
f  346 348 347
f  348 349 351
f  349 350 351
f  351 350 352
f  352 350 353
f  354 296 355
f  355 297 357
f  357 299 361
f  352 358 300
f  358 359 301
f  359 361 303
f  360 302 362
f  356 362 304
f  343 354 356
f  354 355 356
f  355 357 356
f  356 357 362
f  352 353 358
f  358 360 359
f  359 360 362
f  358 353 360
f  357 361 362
f  359 362 361
f  363 306 305
f  364 307 306
f  367 305 309
f  366 310 308
f  368 309 310
f  370 311 312
f  363 364 306
f  364 365 307
f  363 305 367
f  367 309 368
f  366 368 310
f  363 365 364
f  363 367 365
f  365 367 366
f  366 367 368
f  369 311 370
f  373 315 307
f  374 308 316
f  371 314 313
f  373 313 315
f  372 317 314
f  375 318 317
f  369 316 311
f  376 321 318
f  377 320 319
f  379 319 321
f  380 312 322
f  378 324 320
f  381 322 323
f  382 323 324
f  365 373 307
f  366 308 374
f  369 374 316
f  365 366 374
f  371 313 373
f  371 372 314
f  372 375 317
f  365 374 373
f  371 373 372
f  373 374 375
f  372 373 375
f  374 376 375
f  375 376 318
f  370 312 380
f  369 370 374
f  370 376 374
f  370 380 376
f  377 319 379
f  377 378 320
f  376 379 321
f  378 382 324
f  380 322 381
f  381 323 382
f  377 379 378
f  376 380 379
f  378 379 380
f  378 380 382
f  380 381 382
f  388 385 384
f  468 384 448
f  389 386 385
f  390 393 386
f  391 451 387
f  388 389 385
f  388 384 468
f  388 390 389
f  388 468 390
f  391 468 471
f  389 390 386
f  391 471 451
f  390 468 391
f  404 396 393
f  405 387 397
f  390 404 393
f  391 387 405
f  390 391 405
f  469 405 397
f  390 405 404
f  402 395 394
f  404 394 396
f  403 398 395
f  409 399 401
f  408 401 400
f  402 403 395
f  402 394 404
f  403 406 398
f  402 404 403
f  404 406 403
f  404 405 406
f  407 399 409
f  408 409 401
f  407 410 399
f  414 411 410
f  415 412 411
f  416 413 412
f  407 414 410
f  414 415 411
f  414 416 415
f  415 416 412
f  416 417 413
f  414 417 416
f  414 646 417
f  433 419 418
f  435 422 420
f  434 420 419
f  437 455 422
f  438 418 423
f  439 428 424
f  440 424 425
f  441 425 426
f  442 423 427
f  443 429 428
f  445 427 430
f  444 431 429
f  446 488 431
f  436 426 421
f  447 421 432
f  476 432 456
f  433 434 419
f  433 441 434
f  434 435 420
f  435 437 422
f  437 475 455
f  434 436 435
f  434 441 436
f  435 436 437
f  437 436 447
f  437 447 475
f  433 418 438
f  440 439 424
f  438 423 442
f  440 425 441
f  439 443 428
f  443 444 429
f  442 427 445
f  444 446 431
f  433 438 440
f  438 439 440
f  438 442 439
f  433 440 441
f  439 442 443
f  442 444 443
f  442 445 444
f  445 446 444
f  445 524 446
f  441 426 436
f  436 421 447
f  447 432 476
f  447 476 475
f  471 448 451
f  470 449 450
f  469 397 449
f  473 454 453
f  474 464 454
f  468 448 471
f  469 449 470
f  469 470 405
f  473 474 454
f  473 484 474
f  470 450 636
f  475 457 455
f  478 456 458
f  477 460 457
f  479 458 459
f  482 459 462
f  480 463 460
f  481 462 461
f  591 461 559
f  476 456 478
f  475 477 457
f  478 458 479
f  477 480 460
f  479 459 482
f  481 482 462
f  481 461 591
f  480 483 463
f  475 476 477
f  476 478 477
f  478 480 477
f  478 479 480
f  479 482 480
f  480 482 483
f  481 483 482
f  481 591 483
f  486 453 466
f  485 467 465
f  487 466 467
f  473 453 486
f  473 486 484
f  485 486 487
f  474 484 464
f  485 487 467
f  484 486 485
f  486 466 487
f  524 490 488
f  525 430 489
f  526 491 490
f  527 492 491
f  528 489 492
f  529 494 493
f  530 495 494
f  531 498 495
f  533 496 497
f  532 560 496
f  596 564 498
f  535 493 500
f  534 501 499
f  536 500 501
f  534 499 502
f  538 505 503
f  539 502 504
f  540 506 505
f  542 504 507
f  541 508 506
f  597 503 565
f  544 507 509
f  543 511 508
f  545 509 510
f  546 512 511
f  547 513 512
f  549 510 514
f  445 430 525
f  446 524 488
f  524 526 490
f  526 527 491
f  525 489 528
f  527 528 492
f  529 530 494
f  530 531 495
f  529 493 535
f  445 525 524
f  524 525 526
f  526 525 528
f  526 528 527
f  529 531 530
f  529 534 531
f  529 535 534
f  531 534 537
f  531 537 538
f  532 496 533
f  531 596 498
f  532 533 592
f  531 538 596
f  538 597 596
f  534 536 501
f  535 500 536
f  534 502 537
f  534 535 536
f  537 502 539
f  538 540 505
f  539 504 542
f  540 541 506
f  541 543 508
f  538 503 597
f  542 507 544
f  543 546 511
f  544 509 545
f  546 547 512
f  547 548 513
f  545 510 549
f  549 514 602
f  537 540 538
f  537 539 540
f  540 539 541
f  539 542 541
f  541 542 543
f  542 544 543
f  543 544 546
f  546 544 545
f  546 545 547
f  547 549 548
f  548 549 602
f  547 545 549
f  550 516 515
f  551 517 516
f  554 515 519
f  553 520 518
f  555 519 520
f  609 577 517
f  610 518 578
f  611 523 579
f  556 578 521
f  557 521 522
f  558 582 523
f  615 522 583
f  550 551 516
f  551 552 517
f  550 515 554
f  553 518 610
f  553 555 520
f  554 519 555
f  550 552 551
f  550 554 552
f  552 554 553
f  552 553 610
f  553 554 555
f  552 609 517
f  610 578 556
f  552 610 609
f  610 558 611
f  556 521 557
f  557 522 615
f  610 556 557
f  558 523 611
f  558 614 582
f  610 557 558
f  557 615 558
f  558 615 614
f  592 559 560
f  483 561 463
f  593 497 561
f  594 563 562
f  596 562 564
f  595 567 563
f  598 565 566
f  600 566 568
f  601 568 569
f  599 570 567
f  548 569 513
f  602 514 570
f  591 559 592
f  532 592 560
f  483 593 561
f  533 497 593
f  594 595 563
f  596 594 562
f  595 599 567
f  592 533 593
f  591 592 593
f  591 593 483
f  596 595 594
f  596 599 595
f  597 565 598
f  598 566 600
f  600 568 601
f  601 569 548
f  599 602 570
f  596 597 599
f  597 598 599
f  598 600 599
f  600 602 599
f  601 548 602
f  600 601 602
f  603 572 571
f  604 573 572
f  618 571 586
f  676 574 651
f  606 587 574
f  603 604 572
f  603 605 604
f  604 605 573
f  603 571 618
f  603 618 606
f  606 618 619
f  606 574 676
f  606 619 587
f  603 606 605
f  605 606 676
f  605 676 677
f  607 576 575
f  609 575 577
f  608 579 576
f  612 581 580
f  614 580 582
f  613 585 581
f  616 583 584
f  617 584 585
f  607 608 576
f  609 607 575
f  608 611 579
f  609 608 607
f  609 611 608
f  609 610 611
f  612 613 581
f  614 612 580
f  613 617 585
f  615 583 616
f  616 584 617
f  614 613 612
f  614 615 613
f  615 617 613
f  615 616 617
f  619 586 587
f  620 589 588
f  621 590 589
f  618 586 619
f  620 621 589
f  620 588 1232
f  620 622 621
f  620 1232 622
f  621 622 590
f  406 452 398
f  472 628 452
f  636 450 627
f  472 452 406
f  470 472 405
f  405 472 406
f  470 636 472
f  472 637 628
f  472 636 637
f  632 400 623
f  633 623 624
f  634 624 625
f  635 625 626
f  408 400 632
f  632 623 633
f  633 624 634
f  407 409 649
f  408 649 409
f  632 633 634
f  408 632 649
f  632 634 635
f  634 625 635
f  632 635 649
f  484 627 464
f  638 465 629
f  485 465 638
f  484 485 636
f  484 636 627
f  485 637 636
f  485 638 637
f  637 631 628
f  639 629 630
f  640 630 631
f  638 629 639
f  637 640 631
f  638 639 640
f  638 640 637
f  639 630 640
f  417 641 413
f  646 642 641
f  647 645 642
f  649 626 644
f  648 644 643
f  650 643 645
f  407 649 414
f  414 649 648
f  414 648 650
f  417 646 641
f  646 647 642
f  414 647 646
f  414 650 647
f  635 626 649
f  648 649 644
f  647 650 645
f  648 643 650
f  605 657 573
f  678 651 653
f  677 654 652
f  679 662 654
f  683 652 658
f  676 651 678
f  677 679 654
f  679 687 662
f  605 677 682
f  676 679 677
f  676 678 679
f  679 678 687
f  605 682 657
f  677 652 683
f  677 683 682
f  680 656 655
f  682 655 657
f  681 660 656
f  684 658 659
f  695 659 670
f  680 655 682
f  680 681 656
f  680 682 681
f  681 685 660
f  683 658 684
f  684 659 695
f  682 683 685
f  682 685 681
f  683 684 685
f  684 695 685
f  686 653 661
f  687 663 662
f  688 666 663
f  689 661 664
f  690 664 665
f  693 671 668
f  691 667 666
f  692 668 667
f  622 675 590
f  694 665 669
f  678 653 686
f  686 661 689
f  687 688 663
f  688 691 666
f  689 664 690
f  678 686 687
f  687 686 688
f  686 689 688
f  688 689 691
f  689 690 691
f  691 692 667
f  690 665 694
f  692 693 668
f  697 694 669
f  691 690 692
f  692 690 694
f  692 694 693
f  693 694 697
f  622 1233 700
f  622 700 675
f  696 670 671
f  697 672 660
f  697 669 672
f  698 674 673
f  700 673 675
f  699 1341 674
f  695 670 696
f  696 671 693
f  697 660 685
f  695 697 685
f  695 696 697
f  696 693 697
f  698 699 674
f  698 673 700
f  698 700 699
f  700 1360 699
f  741 702 703
f  742 100 704
f  134 709 101
f  740 704 702
f  744 707 706
f  745 708 707
f  743 713 705
f  752 703 714
f  746 719 708
f  740 702 741
f  742 704 740
f  743 705 748
f  133 742 134
f  134 742 747
f  742 740 743
f  742 743 747
f  744 745 707
f  745 746 708
f  744 706 759
f  744 746 745
f  744 759 746
f  741 703 752
f  746 757 719
f  740 741 752
f  740 752 743
f  746 767 757
f  747 710 709
f  748 705 710
f  749 712 711
f  751 711 713
f  750 716 712
f  753 714 715
f  754 715 716
f  755 718 717
f  757 717 719
f  756 730 718
f  134 747 709
f  747 748 710
f  743 748 747
f  743 751 713
f  749 750 712
f  749 711 751
f  750 754 716
f  752 714 753
f  753 715 754
f  755 756 718
f  755 717 757
f  743 752 751
f  749 751 750
f  750 751 752
f  750 752 754
f  752 753 754
f  755 757 756
f  756 757 768
f  759 706 721
f  758 722 720
f  760 721 722
f  767 720 729
f  761 729 723
f  762 723 724
f  763 726 725
f  764 727 726
f  766 733 728
f  772 724 734
f  765 739 727
f  758 760 722
f  759 721 760
f  746 759 758
f  758 759 760
f  758 720 767
f  767 729 761
f  766 728 768
f  746 758 767
f  767 761 762
f  767 762 766
f  761 723 762
f  763 764 726
f  764 765 727
f  763 725 813
f  763 765 764
f  763 813 765
f  762 724 772
f  765 777 739
f  766 762 772
f  765 821 777
f  768 728 730
f  769 732 731
f  771 731 733
f  770 736 732
f  773 734 735
f  774 735 736
f  775 738 737
f  777 737 739
f  776 788 738
f  756 768 730
f  769 770 732
f  767 768 757
f  767 766 768
f  766 771 733
f  769 731 771
f  770 774 736
f  772 734 773
f  773 735 774
f  775 776 738
f  775 737 777
f  766 772 771
f  769 771 770
f  770 771 772
f  770 772 774
f  772 773 774
f  775 777 776
f  776 777 822
f  813 725 779
f  812 780 778
f  814 779 780
f  821 778 787
f  815 787 781
f  816 781 782
f  817 784 783
f  818 785 784
f  820 791 786
f  826 782 792
f  819 797 785
f  812 814 780
f  813 779 814
f  765 813 812
f  812 813 814
f  812 778 821
f  821 787 815
f  822 820 786
f  765 812 821
f  821 815 816
f  821 816 820
f  815 781 816
f  817 818 784
f  818 819 785
f  817 783 833
f  817 819 818
f  817 833 819
f  816 782 826
f  819 831 797
f  820 816 826
f  819 838 831
f  822 786 788
f  823 790 789
f  825 789 791
f  824 794 790
f  827 792 793
f  828 793 794
f  829 796 795
f  831 795 797
f  830 805 796
f  776 822 788
f  823 824 790
f  821 822 777
f  821 820 822
f  820 825 791
f  823 789 825
f  824 828 794
f  826 792 827
f  827 793 828
f  829 830 796
f  829 795 831
f  820 826 825
f  823 825 824
f  824 825 826
f  824 826 828
f  826 827 828
f  829 831 830
f  830 831 839
f  833 783 799
f  832 800 798
f  834 799 800
f  838 798 804
f  835 804 801
f  836 801 802
f  837 808 803
f  843 802 809
f  832 834 800
f  833 799 834
f  819 833 832
f  832 833 834
f  832 798 838
f  838 804 835
f  839 837 803
f  819 832 838
f  838 835 836
f  838 836 837
f  835 801 836
f  836 802 843
f  837 836 843
f  839 803 805
f  840 807 806
f  842 806 808
f  841 811 807
f  844 809 810
f  845 810 811
f  830 839 805
f  840 841 807
f  838 839 831
f  838 837 839
f  837 842 808
f  840 806 842
f  841 845 811
f  843 809 844
f  844 810 845
f  837 843 842
f  840 842 841
f  841 842 843
f  841 843 845
f  843 844 845
f  882 847 846
f  883 848 847
f  884 862 848
f  886 846 850
f  885 851 849
f  887 850 851
f  888 853 852
f  889 854 853
f  890 868 854
f  892 852 856
f  891 857 855
f  893 856 857
f  894 859 858
f  882 883 847
f  882 846 886
f  883 884 848
f  887 851 885
f  886 850 887
f  885 849 899
f  882 884 883
f  882 885 884
f  884 885 898
f  882 886 885
f  886 887 885
f  888 889 853
f  889 890 854
f  888 852 892
f  893 857 891
f  892 856 893
f  894 895 859
f  891 855 905
f  888 890 889
f  888 891 890
f  888 892 891
f  890 891 904
f  892 893 891
f  899 849 863
f  896 861 860
f  898 860 862
f  897 865 861
f  900 863 864
f  901 864 865
f  905 855 869
f  902 867 866
f  904 866 868
f  903 871 867
f  906 869 870
f  907 870 871
f  908 873 872
f  884 898 862
f  885 899 898
f  896 897 861
f  896 860 898
f  897 901 865
f  899 863 900
f  900 864 901
f  896 898 897
f  897 898 899
f  897 899 901
f  899 900 901
f  890 904 868
f  891 905 904
f  902 903 867
f  902 866 904
f  905 869 906
f  903 907 871
f  906 870 907
f  908 909 873
f  902 904 903
f  903 904 905
f  903 905 907
f  905 906 907
f  895 874 859
f  912 858 876
f  910 878 874
f  911 875 879
f  913 876 877
f  911 877 875
f  894 858 912
f  895 910 874
f  913 877 911
f  912 876 913
f  894 910 895
f  894 911 910
f  894 912 911
f  910 911 914
f  912 913 911
f  914 872 878
f  909 881 873
f  916 879 880
f  917 880 881
f  910 914 878
f  911 879 915
f  911 915 914
f  908 872 914
f  909 917 881
f  915 879 916
f  916 880 917
f  908 914 909
f  914 915 909
f  909 915 917
f  915 916 917
f  989 918 919
f  1005 920 935
f  991 919 921
f  990 922 920
f  992 923 922
f  993 925 923
f  994 921 924
f  995 926 925
f  996 927 926
f  998 924 928
f  999 930 929
f  988 918 989
f  990 920 1005
f  989 919 991
f  990 992 922
f  988 989 1005
f  989 990 1005
f  989 991 990
f  990 991 992
f  991 921 994
f  992 993 923
f  994 924 998
f  993 995 925
f  995 996 926
f  996 997 927
f  998 928 1013
f  999 1000 930
f  991 994 993
f  991 993 992
f  993 994 995
f  995 994 996
f  994 998 996
f  996 998 997
f  1001 933 931
f  988 931 918
f  1002 935 932
f  1003 936 933
f  1004 932 934
f  1006 938 936
f  1007 934 937
f  1008 940 938
f  1009 937 939
f  1011 939 941
f  1014 941 944
f  1010 946 940
f  997 942 927
f  1013 928 943
f  1012 943 942
f  1015 944 945
f  1016 949 946
f  1017 945 947
f  1018 947 948
f  1019 953 949
f  1020 952 950
f  1021 950 951
f  1022 948 952
f  1023 951 953
f  1024 955 954
f  988 1001 931
f  1002 932 1004
f  1001 1003 933
f  1004 934 1007
f  1002 1005 935
f  988 1002 1001
f  988 1005 1002
f  1001 1002 1004
f  1001 1004 1003
f  1003 1004 1006
f  1003 1006 936
f  1006 1008 938
f  1007 937 1009
f  1008 1010 940
f  1009 939 1011
f  1011 941 1014
f  1010 1016 946
f  1004 1007 1006
f  1006 1007 1008
f  1007 1009 1008
f  1009 1010 1008
f  1009 1011 1010
f  1011 1016 1010
f  1011 1014 1016
f  997 1012 942
f  1012 1013 943
f  997 1013 1012
f  997 998 1013
f  1014 944 1015
f  1015 945 1017
f  1017 947 1018
f  1018 948 1022
f  1016 1019 949
f  1020 950 1021
f  1020 1022 952
f  1021 951 1023
f  1019 1023 953
f  1024 1025 955
f  1016 1014 1015
f  1016 1015 1019
f  1015 1017 1019
f  1017 1018 1019
f  1018 1023 1019
f  1020 1021 1022
f  1018 1022 1023
f  1021 1023 1022
f  1000 956 930
f  1028 929 958
f  1027 959 957
f  1029 958 959
f  1030 961 960
f  1031 962 961
f  1070 960 1058
f  1033 1059 963
f  999 929 1028
f  1000 1026 956
f  1028 958 1029
f  1027 1029 959
f  999 1026 1000
f  999 1027 1026
f  999 1028 1027
f  1027 1028 1029
f  1030 1031 961
f  1030 960 1070
f  1031 1032 962
f  1030 1032 1031
f  1030 1070 1032
f  1032 1070 1033
f  1034 957 964
f  1035 966 965
f  1037 964 967
f  1036 968 966
f  1039 967 969
f  1038 970 968
f  1040 971 970
f  1042 972 956
f  1043 965 973
f  1042 954 972
f  1025 976 955
f  1041 981 971
f  1044 978 974
f  1045 973 975
f  1047 975 977
f  1048 977 978
f  1046 983 976
f  1049 969 979
f  1050 979 980
f  1051 974 981
f  1053 982 983
f  1052 980 982
f  1054 985 984
f  1056 986 962
f  1057 963 987
f  1056 984 986
f  1055 1063 985
f  1026 1042 956
f  1027 957 1034
f  1034 964 1037
f  1035 965 1043
f  1035 1036 966
f  1037 967 1039
f  1036 1038 968
f  1039 969 1049
f  1038 1040 970
f  1040 1041 971
f  1026 1027 1034
f  1026 1034 1035
f  1026 1035 1042
f  1034 1036 1035
f  1034 1037 1036
f  1036 1037 1038
f  1037 1039 1038
f  1038 1039 1040
f  1039 1049 1040
f  1024 954 1042
f  1043 973 1045
f  1025 1046 976
f  1051 1044 974
f  1044 1048 978
f  1045 975 1047
f  1047 977 1048
f  1046 1053 983
f  1042 1035 1043
f  1024 1042 1025
f  1025 1042 1046
f  1042 1043 1046
f  1043 1045 1046
f  1045 1047 1046
f  1046 1047 1053
f  1047 1048 1053
f  1049 979 1050
f  1050 980 1052
f  1032 1056 962
f  1033 963 1057
f  1049 1041 1040
f  1049 1050 1041
f  1032 1033 1057
f  1041 1051 981
f  1052 982 1053
f  1054 1055 985
f  1054 984 1056
f  1055 1075 1063
f  1041 1050 1051
f  1051 1050 1052
f  1051 1052 1044
f  1044 1052 1053
f  1044 1053 1048
f  1032 1057 1056
f  1054 1056 1055
f  1055 1056 1075
f  1056 1057 1075
f  1071 1058 1059
f  1073 1060 1061
f  1070 1058 1071
f  1033 1071 1059
f  1033 1070 1071
f  1072 1060 1073
f  1072 987 1060
f  1074 1066 1062
f  1075 1062 1063
f  1076 1065 1064
f  1078 1064 1066
f  1077 1069 1065
f  1079 1061 1067
f  1080 1067 1068
f  1081 1068 1069
f  1057 987 1072
f  1075 1074 1062
f  1057 1072 1073
f  1057 1073 1074
f  1074 1078 1066
f  1076 1077 1065
f  1076 1064 1078
f  1057 1074 1075
f  1076 1078 1077
f  1077 1078 1079
f  1073 1061 1079
f  1073 1079 1074
f  1079 1067 1080
f  1077 1081 1069
f  1080 1068 1081
f  1074 1079 1078
f  1077 1079 1081
f  1079 1080 1081
f  1130 1084 1085
f  1131 1089 1086
f  1132 1085 1087
f  1133 1095 1088
f  1139 1087 1094
f  1134 1088 1089
f  1129 1090 1084
f  1135 1092 1090
f  1136 1086 1091
f  1137 1174 1092
f  1138 1091 1093
f  1219 1093 1175
f  1140 1096 1095
f  1141 1097 1096
f  1143 1094 1098
f  1142 1099 1097
f  1144 1103 1099
f  1145 1098 1100
f  1146 1102 1101
f  1148 1104 1103
f  1150 1100 1105
f  1149 1105 1104
f  1151 1184 1106
f  1152 1106 1107
f  1130 1085 1132
f  1130 1129 1084
f  1134 1133 1088
f  1132 1087 1139
f  1133 1140 1095
f  1134 1089 1131
f  1130 1134 1131
f  1130 1131 1129
f  1130 1132 1134
f  1134 1132 1133
f  1132 1139 1133
f  1133 1139 1140
f  1129 1135 1090
f  1131 1086 1136
f  1136 1091 1138
f  1135 1137 1092
f  1137 1218 1174
f  1138 1093 1219
f  1129 1136 1135
f  1135 1136 1137
f  1129 1131 1136
f  1136 1138 1137
f  1137 1138 1218
f  1138 1219 1218
f  1139 1094 1143
f  1140 1141 1096
f  1141 1142 1097
f  1143 1098 1145
f  1142 1144 1099
f  1146 1147 1102
f  1144 1148 1103
f  1148 1149 1104
f  1145 1100 1150
f  1149 1150 1105
f  1139 1141 1140
f  1139 1143 1141
f  1141 1143 1142
f  1142 1143 1144
f  1143 1145 1144
f  1144 1145 1148
f  1148 1150 1149
f  1148 1145 1150
f  1151 1106 1152
f  1151 1152 1228
f  1147 1108 1102
f  1155 1101 1110
f  1157 1109 1112
f  1154 1111 1109
f  1156 1110 1111
f  1153 1195 1108
f  1158 1114 1113
f  1240 1113 1196
f  1160 1112 1115
f  1159 1117 1114
f  1161 1115 1116
f  1162 1118 1117
f  1163 1119 1118
f  1164 1127 1119
f  1166 1122 1121
f  1167 1123 1122
f  1267 1121 1262
f  1169 1263 1124
f  1170 1116 1125
f  1171 1125 1126
f  1172 1120 1127
f  1173 1126 1128
f  1248 1204 1123
f  1249 1124 1205
f  1147 1153 1108
f  1146 1101 1155
f  1154 1109 1157
f  1154 1156 1111
f  1155 1110 1156
f  1146 1153 1147
f  1146 1154 1153
f  1146 1155 1154
f  1153 1154 1157
f  1153 1157 1158
f  1154 1155 1156
f  1157 1112 1160
f  1153 1239 1195
f  1158 1113 1240
f  1158 1159 1114
f  1160 1115 1161
f  1159 1162 1117
f  1161 1116 1170
f  1162 1163 1118
f  1163 1164 1119
f  1172 1165 1120
f  1157 1159 1158
f  1153 1158 1239
f  1239 1158 1240
f  1157 1160 1159
f  1159 1160 1162
f  1160 1161 1162
f  1162 1161 1163
f  1161 1170 1163
f  1166 1167 1122
f  1166 1121 1267
f  1167 1168 1123
f  1169 1124 1249
f  1166 1168 1167
f  1166 1267 1168
f  1168 1267 1169
f  1168 1169 1249
f  1170 1125 1171
f  1164 1172 1127
f  1173 1128 1245
f  1171 1126 1173
f  1168 1248 1123
f  1163 1170 1164
f  1170 1171 1164
f  1164 1171 1172
f  1172 1171 1173
f  1172 1173 1165
f  1165 1173 1245
f  1168 1249 1248
f  1218 1176 1174
f  1221 1175 1177
f  1222 1177 1178
f  1220 1179 1176
f  1224 1178 1180
f  1223 1183 1179
f  1225 1180 1181
f  1226 1181 1182
f  1227 1185 1183
f  1228 1182 1184
f  1229 1107 1185
f  1230 1187 1186
f  1218 1220 1176
f  1219 1175 1221
f  1221 1177 1222
f  1220 1223 1179
f  1218 1219 1220
f  1219 1221 1220
f  1221 1223 1220
f  1221 1222 1223
f  1225 1224 1180
f  1222 1178 1224
f  1225 1181 1226
f  1226 1182 1228
f  1223 1227 1183
f  1151 1228 1184
f  1152 1107 1229
f  1227 1229 1185
f  1230 1231 1187
f  1223 1222 1224
f  1223 1224 1227
f  1225 1227 1224
f  1225 1226 1227
f  1226 1229 1227
f  1226 1228 1229
f  1228 1152 1229
f  1232 588 1188
f  1234 1188 1190
f  1233 1190 1189
f  1236 1191 1192
f  1250 1192 1206
f  1238 1193 1194
f  1232 1188 1234
f  1233 1232 1234
f  1233 1234 1190
f  622 1232 1233
f  1236 1235 1191
f  1236 1192 1250
f  1238 1237 1193
f  1236 1238 1235
f  1236 1250 1237
f  1236 1237 1238
f  1239 1186 1195
f  1231 1198 1187
f  1241 1196 1197
f  1243 1197 1199
f  1244 1199 1200
f  1165 1200 1120
f  1242 1201 1198
f  1245 1128 1201
f  1246 1203 1202
f  1248 1202 1204
f  1247 1272 1203
f  1239 1230 1186
f  1240 1196 1241
f  1231 1242 1198
f  1241 1197 1243
f  1243 1199 1244
f  1165 1244 1200
f  1245 1201 1242
f  1239 1231 1230
f  1239 1242 1231
f  1239 1240 1242
f  1240 1241 1242
f  1241 1243 1242
f  1243 1244 1245
f  1243 1245 1242
f  1246 1247 1203
f  1248 1246 1202
f  1247 1303 1272
f  1165 1245 1244
f  1248 1247 1246
f  1248 1303 1247
f  1248 1249 1303
f  1251 1206 1207
f  1237 1208 1193
f  1252 1209 1208
f  1253 1212 1209
f  1254 1207 1210
f  1255 1210 1211
f  1256 1213 1212
f  1257 1214 1213
f  1258 1215 1214
f  1259 1216 1215
f  1261 1211 1217
f  1260 1217 1216
f  1250 1206 1251
f  1251 1207 1254
f  1250 1251 1252
f  1252 1251 1253
f  1251 1256 1253
f  1252 1208 1237
f  1252 1253 1209
f  1253 1256 1212
f  1250 1252 1237
f  1254 1210 1255
f  1251 1254 1256
f  1256 1254 1257
f  1256 1257 1213
f  1257 1258 1214
f  1258 1259 1215
f  1255 1211 1261
f  1259 1260 1216
f  1260 1261 1217
f  1254 1258 1257
f  1254 1255 1258
f  1258 1255 1259
f  1259 1255 1261
f  1259 1261 1260
f  1268 1262 1263
f  1269 1205 1264
f  1303 1265 1272
f  1270 1275 1265
f  1271 1264 1266
f  1307 1266 1276
f  1267 1262 1268
f  1169 1268 1263
f  1169 1267 1268
f  1249 1269 1271
f  1249 1205 1269
f  1303 1270 1265
f  1270 1306 1275
f  1249 1270 1303
f  1249 1271 1270
f  1269 1264 1271
f  1271 1266 1307
f  1271 1307 1270
f  1270 1307 1306
f  1304 1274 1273
f  1306 1273 1275
f  1305 1278 1274
f  1308 1276 1277
f  1309 1277 1278
f  1304 1305 1274
f  1306 1304 1273
f  1306 1305 1304
f  1306 1307 1305
f  1307 1276 1308
f  1305 1309 1278
f  1308 1277 1309
f  1307 1309 1305
f  1307 1308 1309
f  1311 1279 1280
f  1312 1281 1279
f  1313 1283 1282
f  1314 1287 1283
f  1312 1284 1281
f  1315 1282 1284
f  1316 1280 1285
f  1317 1285 1286
f  1318 1288 1287
f  1319 1289 1288
f  1320 1290 1289
f  1321 1291 1290
f  1322 1295 1291
f  1310 1279 1311
f  1310 1311 1314
f  1310 1312 1279
f  1313 1282 1315
f  1313 1314 1283
f  1314 1318 1287
f  1312 1315 1284
f  1310 1314 1313
f  1310 1313 1312
f  1311 1318 1314
f  1313 1315 1312
f  1311 1280 1316
f  1316 1285 1317
f  1317 1286 1324
f  1311 1319 1318
f  1311 1316 1319
f  1319 1316 1320
f  1316 1321 1320
f  1316 1317 1321
f  1318 1319 1288
f  1319 1320 1289
f  1320 1321 1290
f  1321 1322 1291
f  1321 1317 1322
f  1323 1297 1292
f  1324 1286 1293
f  1325 1293 1294
f  1326 1296 1295
f  1329 1294 1298
f  1328 1300 1297
f  1332 1299 1301
f  1330 1469 1299
f  1333 1301 1302
f  1331 1410 1300
f  1322 1326 1295
f  1324 1293 1325
f  1326 1327 1296
f  1325 1294 1329
f  1323 1328 1297
f  1329 1298 1450
f  1317 1324 1322
f  1322 1324 1326
f  1324 1325 1326
f  1326 1325 1327
f  1327 1325 1329
f  1323 1292 1470
f  1330 1299 1332
f  1328 1331 1300
f  1332 1301 1333
f  1333 1302 1489
f  1323 1330 1328
f  1328 1330 1331
f  1330 1332 1331
f  1323 1470 1330
f  1332 1333 1331
f  1331 1333 1456
f  1360 1189 1339
f  1235 1334 1191
f  1355 1336 1334
f  1356 1194 1335
f  1357 1342 1336
f  1358 1335 1337
f  1359 1337 1338
f  1233 1189 1360
f  700 1233 1360
f  1235 1355 1334
f  1356 1238 1194
f  1356 1335 1358
f  1235 1356 1355
f  1355 1356 1357
f  1235 1238 1356
f  1355 1357 1336
f  1357 1363 1342
f  1358 1337 1359
f  1357 1358 1363
f  1356 1358 1357
f  1363 1358 1359
f  1361 1339 1340
f  1362 1340 1341
f  1363 1346 1342
f  1360 1339 1361
f  699 1362 1341
f  1361 1340 1362
f  699 1360 1362
f  1360 1361 1362
f  1363 1367 1346
f  1363 1359 1367
f  1364 1353 1343
f  1365 1343 1344
f  1364 1343 1365
f  1365 1344 1375
f  1364 1365 1374
f  1366 1338 1345
f  1367 1348 1346
f  1368 1345 1347
f  1370 1347 1349
f  1369 1352 1348
f  1371 1349 1350
f  1372 1350 1351
f  1374 1351 1353
f  1375 1344 1354
f  1373 1354 1352
f  1359 1338 1366
f  1366 1345 1368
f  1368 1347 1370
f  1367 1369 1348
f  1359 1366 1367
f  1367 1366 1369
f  1366 1368 1369
f  1368 1370 1369
f  1370 1349 1371
f  1371 1350 1372
f  1369 1373 1352
f  1372 1351 1374
f  1364 1374 1353
f  1375 1354 1373
f  1370 1371 1373
f  1371 1372 1373
f  1370 1373 1369
f  1372 1375 1373
f  1372 1374 1375
f  1374 1365 1375
f  1423 1376 1377
f  1424 1379 1378
f  1425 1381 1379
f  1426 1378 1380
f  1427 1386 1381
f  1429 1380 1383
f  1428 1383 1382
f  1430 1405 1384
f  1431 1384 1385
f  1432 1387 1386
f  1433 1388 1387
f  1434 1389 1388
f  1435 1402 1389
f  1422 1376 1423
f  1423 1377 1436
f  1422 1423 1436
f  1424 1378 1426
f  1424 1425 1379
f  1425 1427 1381
f  1428 1382 1449
f  1426 1380 1429
f  1427 1432 1386
f  1429 1383 1428
f  1430 1451 1405
f  1430 1384 1431
f  1424 1426 1425
f  1425 1426 1427
f  1426 1432 1427
f  1426 1429 1430
f  1426 1430 1432
f  1429 1451 1430
f  1429 1428 1451
f  1430 1431 1432
f  1432 1433 1387
f  1433 1434 1388
f  1434 1435 1389
f  1435 1448 1402
f  1431 1433 1432
f  1431 1453 1433
f  1433 1453 1434
f  1422 1392 1376
f  1436 1377 1390
f  1437 1390 1391
f  1438 1393 1392
f  1439 1394 1393
f  1441 1391 1395
f  1442 1395 1396
f  1443 1396 1397
f  1440 1398 1394
f  1444 1399 1398
f  1446 1397 1400
f  1447 1400 1401
f  1448 1401 1402
f  1445 1413 1399
f  1422 1438 1392
f  1436 1390 1437
f  1437 1391 1441
f  1438 1439 1393
f  1439 1440 1394
f  1422 1436 1438
f  1438 1436 1439
f  1436 1437 1439
f  1437 1440 1439
f  1441 1395 1442
f  1442 1396 1443
f  1443 1397 1446
f  1440 1444 1398
f  1444 1445 1399
f  1446 1400 1447
f  1447 1401 1448
f  1459 1413 1445
f  1437 1441 1440
f  1441 1442 1444
f  1442 1443 1445
f  1443 1446 1445
f  1441 1444 1440
f  1442 1445 1444
f  1446 1459 1445
f  1447 1448 1459
f  1446 1447 1459
f  1327 1403 1296
f  1449 1382 1403
f  1452 1404 1406
f  1451 1406 1405
f  1450 1298 1404
f  1453 1385 1407
f  1454 1407 1408
f  1455 1408 1409
f  1456 1473 1410
f  1458 1411 1412
f  1327 1449 1403
f  1452 1450 1404
f  1451 1452 1406
f  1431 1385 1453
f  1327 1450 1449
f  1428 1449 1452
f  1327 1329 1450
f  1449 1450 1452
f  1428 1452 1451
f  1453 1407 1454
f  1454 1408 1455
f  1459 1455 1409
f  1434 1454 1435
f  1434 1453 1454
f  1435 1454 1455
f  1435 1455 1448
f  1331 1456 1410
f  1456 1490 1473
f  1333 1489 1456
f  1457 1411 1458
f  1458 1412 1460
f  1457 1458 1460
f  1459 1409 1413
f  1457 1416 1411
f  1460 1412 1414
f  1461 1414 1415
f  1462 1417 1416
f  1464 1415 1418
f  1465 1418 1419
f  1466 1419 1420
f  1463 1421 1417
f  1467 1486 1421
f  1448 1455 1459
f  1457 1462 1416
f  1460 1414 1461
f  1461 1415 1464
f  1462 1463 1417
f  1464 1418 1465
f  1465 1419 1466
f  1466 1420 1501
f  1463 1467 1421
f  1457 1460 1462
f  1462 1460 1461
f  1462 1461 1463
f  1461 1464 1463
f  1464 1465 1463
f  1465 1466 1467
f  1466 1501 1467
f  1465 1467 1463
f  1470 1292 1468
f  1471 1468 1469
f  1330 1471 1469
f  1470 1468 1471
f  1330 1470 1471
f  1489 1302 1472
f  1492 1472 1475
f  1490 1474 1473
f  1491 1477 1474
f  1493 1475 1476
f  1498 1476 1481
f  1494 1478 1477
f  1495 1479 1478
f  1496 1480 1479
f  1499 1481 1482
f  1500 1482 1483
f  1505 1483 1488
f  1489 1472 1492
f  1490 1491 1474
f  1491 1494 1477
f  1492 1475 1493
f  1493 1476 1498
f  1456 1489 1490
f  1490 1489 1492
f  1490 1492 1491
f  1491 1492 1493
f  1491 1493 1494
f  1493 1498 1494
f  1494 1495 1478
f  1495 1496 1479
f  1496 1497 1480
f  1498 1481 1499
f  1499 1482 1500
f  1500 1483 1505
f  1494 1498 1495
f  1495 1498 1499
f  1495 1499 1496
f  1496 1499 1500
f  1496 1505 1497
f  1496 1500 1505
f  1501 1420 1484
f  1502 1484 1485
f  1497 1485 1480
f  1503 1487 1486
f  1504 1488 1487
f  1501 1484 1502
f  1502 1485 1497
f  1467 1503 1486
f  1504 1487 1503
f  1504 1505 1488
f  1501 1502 1503
f  1502 1497 1504
f  1502 1504 1503
f  1501 1503 1467
f  1497 1505 1504
