# OpenSCAD obj exporter
v 0 0 0
v 0 0 2.15
v 3.47452 2 2.15
v 3.47452 2.03594 2.15
v 3.47452 2 2.35
v 3.47452 2.03594 2.35
v 3.19718 2.87343 2.15
v 3.19718 2.90937 2.15
v 3.29957 2.85579 2.15
v 3.45961 2.85579 2.15
v 3.19718 2.87343 2.35
v 3.19718 2.90937 2.35
v 3.29957 2.85579 2.35
v 3.45961 2.85579 2.35
v 3.61896 2.05425 2.15
v 3.74984 2.05425 2.15
v 3.89429 2 2.15
v 3.89429 2.03594 2.15
v 3.61896 2.35398 2.15
v 3.74984 2.35805 2.15
v 3.72068 2.43603 2.15
v 3.61896 2.05425 2.35
v 3.74984 2.05425 2.35
v 3.89429 2 2.35
v 3.89429 2.03594 2.35
v 3.61896 2.35398 2.35
v 3.74984 2.35805 2.35
v 3.72068 2.43603 2.35
v 3.58167 2.87343 2.15
v 3.58167 2.90937 2.15
v 3.8536 2.87343 2.15
v 3.8536 2.90937 2.15
v 3.96887 2.85579 2.15
v 4.04958 2.85579 2.15
v 4.14926 2.87343 2.15
v 4.14926 2.90937 2.15
v 4.20019 2.87343 2.15
v 4.20019 2.90937 2.15
v 4.30257 2.85579 2.15
v 3.58167 2.87343 2.35
v 3.58167 2.90937 2.35
v 3.8536 2.87343 2.35
v 3.8536 2.90937 2.35
v 3.96887 2.85579 2.35
v 4.04958 2.85579 2.35
v 4.14926 2.87343 2.35
v 4.14926 2.90937 2.35
v 4.20019 2.87343 2.35
v 4.20019 2.90937 2.35
v 4.30257 2.85579 2.35
v 4.47754 2 2.15
v 4.47754 2.03594 2.15
v 4.62197 2.05425 2.15
v 4.75286 2.05425 2.15
v 4.62197 2.35398 2.15
v 4.75286 2.35805 2.15
v 4.7237 2.43603 2.15
v 4.89729 2 2.15
v 4.89729 2.03594 2.15
v 4.47754 2 2.35
v 4.47754 2.03594 2.35
v 4.62197 2.05425 2.35
v 4.75286 2.05425 2.35
v 4.62197 2.35398 2.35
v 4.75286 2.35805 2.35
v 4.7237 2.43603 2.35
v 4.89729 2 2.35
v 4.89729 2.03594 2.35
v 4.46261 2.85579 2.15
v 4.58467 2.87343 2.15
v 4.58467 2.90937 2.15
v 4.85661 2.87343 2.15
v 4.85661 2.90937 2.15
v 4.97189 2.85579 2.15
v 5.05258 2.85579 2.15
v 5.15226 2.87343 2.15
v 5.18896 2.87343 2.15
v 5.15226 2.90937 2.15
v 5.18896 2.90937 2.15
v 4.46261 2.85579 2.35
v 4.58467 2.87343 2.35
v 4.58467 2.90937 2.35
v 4.85661 2.87343 2.35
v 4.85661 2.90937 2.35
v 4.97189 2.85579 2.35
v 5.05258 2.85579 2.35
v 5.15226 2.87343 2.35
v 5.18896 2.87343 2.35
v 5.15226 2.90937 2.35
v 5.18896 2.90937 2.35
v 5.56938 1.97898 2.15
v 5.60532 1.97898 2.15
v 5.61889 2.21497 2.15
v 6.08339 1.97898 2.15
v 6.11934 1.97898 2.15
v 5.84742 2.60557 2.15
v 5.56938 1.97898 2.35
v 5.60532 1.97898 2.35
v 5.61889 2.21497 2.35
v 6.08339 1.97898 2.35
v 6.11934 1.97898 2.35
v 5.84742 2.60557 2.35
v 5.26829 2.85579 2.15
v 5.40257 2.85579 2.15
v 5.53616 2.87343 2.15
v 5.53616 2.90937 2.15
v 5.86368 2.84562 2.15
v 5.8942 2.84562 2.15
v 5.26829 2.85579 2.35
v 5.40257 2.85579 2.35
v 5.53616 2.87343 2.35
v 5.53616 2.90937 2.35
v 5.86368 2.84562 2.35
v 5.8942 2.84562 2.35
v 6.13019 2.21497 2.15
v 6.88028 1.97898 2.15
v 6.91623 1.97898 2.15
v 6.92978 2.21497 2.15
v 6.13019 2.21497 2.35
v 6.88028 1.97898 2.35
v 6.91623 1.97898 2.35
v 6.92978 2.21497 2.35
v 6.19461 2.87343 2.15
v 6.19461 2.90937 2.15
v 6.33634 2.85579 2.15
v 6.41635 2.85579 2.15
v 6.4957 2.87343 2.15
v 6.49985 2.87343 2.15
v 6.4957 2.90937 2.15
v 6.49985 2.90937 2.15
v 6.5792 2.85579 2.15
v 6.71346 2.85579 2.15
v 6.84706 2.87343 2.15
v 6.84706 2.90937 2.15
v 6.19461 2.87343 2.35
v 6.19461 2.90937 2.35
v 6.33634 2.85579 2.35
v 6.41635 2.85579 2.35
v 6.4957 2.87343 2.35
v 6.49985 2.87343 2.35
v 6.4957 2.90937 2.35
v 6.49985 2.90937 2.35
v 6.5792 2.85579 2.35
v 6.71346 2.85579 2.35
v 6.84706 2.87343 2.35
v 6.84706 2.90937 2.35
v 4.35514 6.44417 2.15
v 4.35514 6.44417 2.35
v 4.47856 6.1068 2.15
v 4.62639 6.01653 2.15
v 4.68344 6.06476 2.15
v 4.82305 5.98644 2.15
v 4.82441 6.03865 2.15
v 4.89951 6.04331 2.15
v 4.98902 5.99712 2.15
v 4.9702 6.0573 2.15
v 5.03157 6.07908 2.15
v 5.0787 6.10714 2.15
v 5.1438 6.02916 2.15
v 4.47856 6.1068 2.35
v 4.62639 6.01653 2.35
v 4.68344 6.06476 2.35
v 4.82305 5.98644 2.35
v 4.82441 6.03865 2.35
v 4.89951 6.04331 2.35
v 4.98902 5.99712 2.35
v 4.9702 6.0573 2.35
v 5.03157 6.07908 2.35
v 5.0787 6.10714 2.35
v 5.1438 6.02916 2.35
v 4.386 6.25133 2.15
v 4.58062 6.14308 2.15
v 4.51781 6.27091 2.15
v 4.49687 6.44553 2.15
v 4.38481 6.65023 2.15
v 4.51687 6.63235 2.15
v 4.57689 6.76289 2.15
v 4.47381 6.79917 2.15
v 4.62114 6.88945 2.15
v 4.68047 6.83969 2.15
v 5.10379 6.24277 2.15
v 5.14787 6.24277 2.15
v 4.83119 6.86529 2.15
v 4.8957 6.8613 2.15
v 4.82576 6.91954 2.15
v 4.95901 6.84935 2.15
v 5.01793 6.83011 2.15
v 4.97275 6.91089 2.15
v 5.08955 6.68626 2.15
v 5.13431 6.68626 2.15
v 5.06921 6.80426 2.15
v 5.13024 6.88495 2.15
v 4.386 6.25133 2.35
v 4.58062 6.14308 2.35
v 4.51781 6.27091 2.35
v 4.49687 6.44553 2.35
v 4.38481 6.65023 2.35
v 4.51687 6.63235 2.35
v 4.57689 6.76289 2.35
v 4.47381 6.79917 2.35
v 4.62114 6.88945 2.35
v 4.68047 6.83969 2.35
v 5.10379 6.24277 2.35
v 5.14787 6.24277 2.35
v 4.83119 6.86529 2.35
v 4.8957 6.8613 2.35
v 4.82576 6.91954 2.35
v 4.95901 6.84935 2.35
v 5.01793 6.83011 2.35
v 4.97275 6.91089 2.35
v 5.08955 6.68626 2.35
v 5.13431 6.68626 2.35
v 5.06921 6.80426 2.35
v 5.13024 6.88495 2.35
v 5.66265 4 2.15
v 5.66265 4.03594 2.15
v 5.77929 4.05425 2.15
v 5.90949 4.05425 2.15
v 6.02613 4 2.15
v 6.02613 4.03594 2.15
v 5.66265 4 2.35
v 5.66265 4.03594 2.35
v 5.77929 4.05425 2.35
v 5.90949 4.05425 2.35
v 6.02613 4 2.35
v 6.02613 4.03594 2.35
v 5.66265 4.87343 2.15
v 5.66265 4.90937 2.15
v 5.77929 4.85579 2.15
v 5.90949 4.85579 2.15
v 6.02613 4.87343 2.15
v 6.02613 4.90937 2.15
v 5.66265 4.87343 2.35
v 5.66265 4.90937 2.35
v 5.77929 4.85579 2.35
v 5.90949 4.85579 2.35
v 6.02613 4.87343 2.35
v 6.02613 4.90937 2.35
v 6.12516 4 2.15
v 6.12516 4.03594 2.15
v 6.2418 4.05425 2.15
v 6.372 4.05425 2.15
v 6.48864 4 2.15
v 6.48864 4.03594 2.15
v 6.58767 4 2.15
v 6.58767 4.03594 2.15
v 6.70431 4.05425 2.15
v 6.83451 4.05425 2.15
v 6.95115 4 2.15
v 6.95115 4.03594 2.15
v 6.12516 4 2.35
v 6.12516 4.03594 2.35
v 6.2418 4.05425 2.35
v 6.372 4.05425 2.35
v 6.48864 4 2.35
v 6.48864 4.03594 2.35
v 6.58767 4 2.35
v 6.58767 4.03594 2.35
v 6.70431 4.05425 2.35
v 6.83451 4.05425 2.35
v 6.95115 4 2.35
v 6.95115 4.03594 2.35
v 6.12516 4.87343 2.15
v 6.12516 4.90937 2.15
v 6.2418 4.85579 2.15
v 6.372 4.85579 2.15
v 6.48864 4.87343 2.15
v 6.48864 4.90937 2.15
v 6.58767 4.87343 2.15
v 6.58767 4.90937 2.15
v 6.70431 4.85579 2.15
v 6.83451 4.85579 2.15
v 6.95115 4.87343 2.15
v 6.95115 4.90937 2.15
v 6.12516 4.87343 2.35
v 6.12516 4.90937 2.35
v 6.2418 4.85579 2.35
v 6.372 4.85579 2.35
v 6.48864 4.87343 2.35
v 6.48864 4.90937 2.35
v 6.58767 4.87343 2.35
v 6.58767 4.90937 2.35
v 6.70431 4.85579 2.35
v 6.83451 4.85579 2.35
v 6.95115 4.87343 2.35
v 6.95115 4.90937 2.35
v 5.27339 6 2.15
v 5.27339 6.03594 2.15
v 5.38121 6.05425 2.15
v 5.51209 6.05425 2.15
v 5.65653 6 2.15
v 5.65653 6.03594 2.15
v 6.037 6 2.15
v 6.037 6.03594 2.15
v 5.27339 6 2.35
v 5.27339 6.03594 2.35
v 5.38121 6.05425 2.35
v 5.51209 6.05425 2.35
v 5.65653 6 2.35
v 5.65653 6.03594 2.35
v 6.037 6 2.35
v 6.037 6.03594 2.35
v 5.51209 6.35669 2.15
v 5.51209 6.41773 2.15
v 5.61448 6.35669 2.15
v 5.58261 6.41773 2.15
v 5.68221 6.43078 2.15
v 5.26457 6.87343 2.15
v 5.26457 6.90937 2.15
v 5.38121 6.85579 2.15
v 5.51209 6.84833 2.15
v 5.57854 6.84833 2.15
v 5.68416 6.83629 2.15
v 5.6077 6.90937 2.15
v 5.75409 6.37483 2.15
v 5.7518 6.46994 2.15
v 5.79274 6.5386 2.15
v 5.85691 6.42925 2.15
v 5.92023 6.5186 2.15
v 5.79333 6.7361 2.15
v 5.80639 6.64015 2.15
v 5.75417 6.80018 2.15
v 5.85793 6.8424 2.15
v 5.94134 6.64151 2.15
v 6.037 6.87343 2.15
v 6.037 6.90937 2.15
v 5.51209 6.35669 2.35
v 5.51209 6.41773 2.35
v 5.61448 6.35669 2.35
v 5.58261 6.41773 2.35
v 5.68221 6.43078 2.35
v 5.26457 6.87343 2.35
v 5.26457 6.90937 2.35
v 5.38121 6.85579 2.35
v 5.51209 6.84833 2.35
v 5.57854 6.84833 2.35
v 5.68416 6.83629 2.35
v 5.6077 6.90937 2.35
v 5.75409 6.37483 2.35
v 5.7518 6.46994 2.35
v 5.79274 6.5386 2.35
v 5.85691 6.42925 2.35
v 5.92023 6.5186 2.35
v 5.79333 6.7361 2.35
v 5.80639 6.64015 2.35
v 5.75417 6.80018 2.35
v 5.85793 6.8424 2.35
v 5.94134 6.64151 2.35
v 6.037 6.87343 2.35
v 6.037 6.90937 2.35
v 6.15364 6.05425 2.15
v 6.22484 6.05425 2.15
v 6.3469 6 2.15
v 6.3469 6.03594 2.15
v 6.78565 6 2.15
v 6.85143 6 2.15
v 6.15364 6.05425 2.35
v 6.22484 6.05425 2.35
v 6.3469 6 2.35
v 6.3469 6.03594 2.35
v 6.78565 6 2.35
v 6.85143 6 2.35
v 6.15364 6.85579 2.15
v 6.22484 6.81782 2.15
v 6.31232 6.90937 2.15
v 6.78022 6.23599 2.15
v 6.65816 6.87343 2.15
v 6.65816 6.90937 2.15
v 6.78022 6.85579 2.15
v 6.85143 6.85579 2.15
v 6.96807 6.87343 2.15
v 6.96807 6.90937 2.15
v 6.15364 6.85579 2.35
v 6.22484 6.81782 2.35
v 6.31232 6.90937 2.35
v 6.78022 6.23599 2.35
v 6.65816 6.87343 2.35
v 6.65816 6.90937 2.35
v 6.78022 6.85579 2.35
v 6.85143 6.85579 2.35
v 6.96807 6.87343 2.35
v 6.96807 6.90937 2.35
v 0 14 0
v 2.45287 10 2.15
v 2.45287 10.0647 2.15
v 2.45287 10 2.35
v 2.45287 10.0647 2.35
v 3.01069 10 2.15
v 2.66282 10.0976 2.15
v 2.79098 10.0976 2.15
v 3.01069 10.0647 2.15
v 3.39031 10 2.15
v 3.43302 10 2.15
v 3.48063 10.3918 2.15
v 3.01069 10 2.35
v 2.66282 10.0976 2.35
v 2.79098 10.0976 2.35
v 3.01069 10.0647 2.35
v 3.39031 10 2.35
v 3.43302 10 2.35
v 3.48063 10.3918 2.35
v 0.864893 12.2473 2.15
v 0.864893 12.2473 2.35
v 0.98964 12.0284 2.15
v 1.09115 11.9471 2.15
v 0.911673 12.132 2.15
v 1.20847 11.8983 2.15
v 1.3416 11.882 2.15
v 1.47473 11.8983 2.15
v 1.59203 11.9471 2.15
v 1.6935 12.0284 2.15
v 0.98964 12.0284 2.35
v 1.09115 11.9471 2.35
v 0.911673 12.132 2.35
v 1.20847 11.8983 2.35
v 1.3416 11.882 2.35
v 1.47473 11.8983 2.35
v 1.59203 11.9471 2.35
v 1.6935 12.0284 2.35
v 0.8493 12.3743 2.15
v 0.86512 12.5054 2.15
v 0.8493 12.3743 2.35
v 0.86512 12.5054 2.35
v 0 14 2.15
v 0.91258 12.622 2.15
v 0.99168 12.7242 2.15
v 1.09387 12.8033 2.15
v 1.21051 12.8508 2.15
v 1.3416 12.8666 2.15
v 1.47269 12.8508 2.15
v 1.58931 12.8033 2.15
v 1.69146 12.7242 2.15
v 0.91258 12.622 2.35
v 0.99168 12.7242 2.35
v 1.09387 12.8033 2.35
v 1.21051 12.8508 2.35
v 1.3416 12.8666 2.35
v 1.47269 12.8508 2.35
v 1.58931 12.8033 2.35
v 1.69146 12.7242 2.35
v 1.7715 12.132 2.15
v 1.8183 12.2473 2.15
v 2.45287 11.5722 2.15
v 2.45287 11.6369 2.15
v 1.7715 12.132 2.35
v 1.8183 12.2473 2.35
v 2.45287 11.5722 2.35
v 2.45287 11.6369 2.35
v 2.66282 11.5404 2.15
v 2.79098 11.4074 2.15
v 2.94844 11.6369 2.15
v 2.66282 11.5404 2.35
v 2.79098 11.4074 2.35
v 2.94844 11.6369 2.35
v 1.8339 12.3743 2.15
v 1.81807 12.5054 2.15
v 1.77059 12.622 2.15
v 1.8339 12.3743 2.35
v 1.81807 12.5054 2.35
v 1.77059 12.622 2.35
v 4.35514 8.44417 2.15
v 4.35514 8.44417 2.35
v 4.47856 8.1068 2.15
v 4.386 8.25133 2.15
v 4.58062 8.14308 2.15
v 4.51781 8.27091 2.15
v 4.62639 8.01653 2.15
v 4.68344 8.06476 2.15
v 4.49687 8.44553 2.15
v 4.38481 8.65023 2.15
v 4.51687 8.63235 2.15
v 4.82305 7.98644 2.15
v 4.82441 8.03865 2.15
v 4.89951 8.04331 2.15
v 4.9702 8.0573 2.15
v 4.98902 7.99712 2.15
v 5.03157 8.07908 2.15
v 5.1438 8.02916 2.15
v 5.0787 8.10714 2.15
v 5.10379 8.24277 2.15
v 5.14787 8.24277 2.15
v 5.08955 8.68626 2.15
v 5.13431 8.68626 2.15
v 4.47856 8.1068 2.35
v 4.386 8.25133 2.35
v 4.58062 8.14308 2.35
v 4.51781 8.27091 2.35
v 4.62639 8.01653 2.35
v 4.68344 8.06476 2.35
v 4.49687 8.44553 2.35
v 4.38481 8.65023 2.35
v 4.51687 8.63235 2.35
v 4.82305 7.98644 2.35
v 4.82441 8.03865 2.35
v 4.89951 8.04331 2.35
v 4.9702 8.0573 2.35
v 4.98902 7.99712 2.35
v 5.03157 8.07908 2.35
v 5.1438 8.02916 2.35
v 5.0787 8.10714 2.35
v 5.10379 8.24277 2.35
v 5.14787 8.24277 2.35
v 5.08955 8.68626 2.35
v 5.13431 8.68626 2.35
v 3.86635 10 2.15
v 3.86635 10.0647 2.15
v 4.08606 10.0976 2.15
v 4.32042 10.0976 2.15
v 3.86635 10 2.35
v 3.86635 10.0647 2.35
v 4.08606 10.0976 2.35
v 4.32042 10.0976 2.35
v 4.47381 8.79917 2.15
v 4.57689 8.76289 2.15
v 4.68047 8.83969 2.15
v 4.62114 8.88945 2.15
v 4.83119 8.86529 2.15
v 4.82576 8.91954 2.15
v 4.8957 8.8613 2.15
v 4.95901 8.84935 2.15
v 5.01793 8.83011 2.15
v 4.97275 8.91089 2.15
v 5.06921 8.80426 2.15
v 5.13024 8.88495 2.15
v 4.47381 8.79917 2.35
v 4.57689 8.76289 2.35
v 4.68047 8.83969 2.35
v 4.62114 8.88945 2.35
v 4.83119 8.86529 2.35
v 4.82576 8.91954 2.35
v 4.8957 8.8613 2.35
v 4.95901 8.84935 2.35
v 5.01793 8.83011 2.35
v 4.97275 8.91089 2.35
v 5.06921 8.80426 2.35
v 5.13024 8.88495 2.35
v 4.53037 10 2.15
v 4.53037 10.0647 2.15
v 4.53037 10 2.35
v 4.53037 10.0647 2.35
v 5.27339 8 2.15
v 5.27339 8.03594 2.15
v 5.38121 8.05425 2.15
v 5.51209 8.05425 2.15
v 5.65653 8 2.15
v 5.65653 8.03594 2.15
v 5.51209 8.35669 2.15
v 5.51209 8.41773 2.15
v 5.61448 8.35669 2.15
v 5.58261 8.41773 2.15
v 5.68221 8.43078 2.15
v 6.037 8 2.15
v 6.037 8.03594 2.15
v 5.75409 8.37483 2.15
v 5.7518 8.46994 2.15
v 5.85691 8.42925 2.15
v 5.79274 8.5386 2.15
v 5.79333 8.7361 2.15
v 5.80639 8.64015 2.15
v 5.92023 8.5186 2.15
v 5.94134 8.64151 2.15
v 5.27339 8 2.35
v 5.27339 8.03594 2.35
v 5.38121 8.05425 2.35
v 5.51209 8.05425 2.35
v 5.65653 8 2.35
v 5.65653 8.03594 2.35
v 5.51209 8.35669 2.35
v 5.51209 8.41773 2.35
v 5.61448 8.35669 2.35
v 5.58261 8.41773 2.35
v 5.68221 8.43078 2.35
v 6.037 8 2.35
v 6.037 8.03594 2.35
v 5.75409 8.37483 2.35
v 5.7518 8.46994 2.35
v 5.85691 8.42925 2.35
v 5.79274 8.5386 2.35
v 5.79333 8.7361 2.35
v 5.80639 8.64015 2.35
v 5.92023 8.5186 2.35
v 5.94134 8.64151 2.35
v 6.15364 8.05425 2.15
v 6.22484 8.05425 2.15
v 6.3469 8 2.15
v 6.3469 8.03594 2.15
v 6.78022 8.23599 2.15
v 6.78565 8 2.15
v 6.85143 8 2.15
v 6.15364 8.05425 2.35
v 6.22484 8.05425 2.35
v 6.3469 8 2.35
v 6.3469 8.03594 2.35
v 6.78022 8.23599 2.35
v 6.78565 8 2.35
v 6.85143 8 2.35
v 5.26457 8.87343 2.15
v 5.26457 8.90937 2.15
v 5.38121 8.85579 2.15
v 5.51209 8.84833 2.15
v 5.57854 8.84833 2.15
v 5.68416 8.83629 2.15
v 5.6077 8.90937 2.15
v 5.75417 8.80018 2.15
v 5.85793 8.8424 2.15
v 6.037 8.87343 2.15
v 6.037 8.90937 2.15
v 5.26457 8.87343 2.35
v 5.26457 8.90937 2.35
v 5.38121 8.85579 2.35
v 5.51209 8.84833 2.35
v 5.57854 8.84833 2.35
v 5.68416 8.83629 2.35
v 5.6077 8.90937 2.35
v 5.75417 8.80018 2.35
v 5.85793 8.8424 2.35
v 6.037 8.87343 2.35
v 6.037 8.90937 2.35
v 5.31665 10 2.15
v 5.31665 10.0647 2.15
v 5.51072 10.0976 2.15
v 6.0063 10 2.15
v 5.74631 10.0976 2.15
v 6.0063 10.0647 2.15
v 5.31665 10 2.35
v 5.31665 10.0647 2.35
v 5.51072 10.0976 2.35
v 6.0063 10 2.35
v 5.74631 10.0976 2.35
v 6.0063 10.0647 2.35
v 6.15364 8.85579 2.15
v 6.22484 8.81782 2.15
v 6.31232 8.90937 2.15
v 6.65816 8.87343 2.15
v 6.65816 8.90937 2.15
v 6.78022 8.85579 2.15
v 6.85143 8.85579 2.15
v 6.96807 8.87343 2.15
v 6.96807 8.90937 2.15
v 6.15364 8.85579 2.35
v 6.22484 8.81782 2.35
v 6.31232 8.90937 2.35
v 6.65816 8.87343 2.35
v 6.65816 8.90937 2.35
v 6.78022 8.85579 2.35
v 6.85143 8.85579 2.35
v 6.96807 8.87343 2.35
v 6.96807 8.90937 2.35
v 6.70945 10 2.15
v 6.70945 10.0647 2.15
v 6.9194 10.0976 2.15
v 6.70945 10 2.35
v 6.70945 10.0647 2.35
v 6.9194 10.0976 2.35
v 4.08606 11.4074 2.15
v 4.06165 11.6369 2.15
v 4.32042 11.5404 2.15
v 4.08606 11.4074 2.35
v 4.06165 11.6369 2.35
v 4.32042 11.5404 2.35
v 4.53037 11.5722 2.15
v 4.53037 11.6369 2.15
v 4.53037 11.5722 2.35
v 4.53037 11.6369 2.35
v 5.74631 10.642 2.15
v 5.74631 10.7519 2.15
v 5.87325 10.7519 2.15
v 5.93061 10.642 2.15
v 6.05252 10.7754 2.15
v 5.74631 10.642 2.35
v 5.74631 10.7519 2.35
v 5.87325 10.7519 2.35
v 5.93061 10.642 2.35
v 6.05252 10.7754 2.35
v 5.30077 11.5722 2.15
v 5.30077 11.6369 2.15
v 5.51072 11.5404 2.15
v 5.74631 11.527 2.15
v 5.86592 11.527 2.15
v 6.05603 11.5053 2.15
v 5.91841 11.6369 2.15
v 5.30077 11.5722 2.35
v 5.30077 11.6369 2.35
v 5.51072 11.5404 2.35
v 5.74631 11.527 2.35
v 5.86592 11.527 2.35
v 6.05603 11.5053 2.35
v 5.91841 11.6369 2.35
v 6.18191 10.6747 2.15
v 6.17779 10.8459 2.15
v 6.36699 10.7727 2.15
v 6.48097 10.9335 2.15
v 6.25148 10.9695 2.15
v 6.27605 11.1523 2.15
v 6.25255 11.325 2.15
v 6.51896 11.1547 2.15
v 6.18191 10.6747 2.35
v 6.17779 10.8459 2.35
v 6.36699 10.7727 2.35
v 6.48097 10.9335 2.35
v 6.25148 10.9695 2.35
v 6.27605 11.1523 2.35
v 6.25255 11.325 2.35
v 6.51896 11.1547 2.35
v 6.18205 11.4403 2.15
v 6.36882 11.5163 2.15
v 6.70945 11.5722 2.15
v 6.70945 11.6369 2.15
v 6.9194 11.5404 2.15
v 6.18205 11.4403 2.35
v 6.36882 11.5163 2.35
v 6.70945 11.5722 2.35
v 6.70945 11.6369 2.35
v 6.9194 11.5404 2.35
v 14 0 0
v 7.39429 1.97898 2.15
v 7.43023 1.97898 2.15
v 7.15832 2.60557 2.15
v 7.8494 2 2.15
v 7.8494 2.03594 2.15
v 7.44109 2.21497 2.15
v 7.39429 1.97898 2.35
v 7.43023 1.97898 2.35
v 7.15832 2.60557 2.35
v 7.8494 2 2.35
v 7.8494 2.03594 2.35
v 7.44109 2.21497 2.35
v 7.17458 2.84562 2.15
v 7.2051 2.84562 2.15
v 7.50552 2.87343 2.15
v 7.50552 2.90937 2.15
v 7.64723 2.85579 2.15
v 7.72726 2.85579 2.15
v 7.80659 2.87343 2.15
v 7.80659 2.90937 2.15
v 7.8494 2.87343 2.15
v 7.8494 2.90937 2.15
v 7.17458 2.84562 2.35
v 7.2051 2.84562 2.35
v 7.50552 2.87343 2.35
v 7.50552 2.90937 2.35
v 7.64723 2.85579 2.35
v 7.72726 2.85579 2.35
v 7.80659 2.87343 2.35
v 7.80659 2.90937 2.35
v 7.8494 2.87343 2.35
v 7.8494 2.90937 2.35
v 7.96604 2.05425 2.15
v 8.03724 2.05425 2.15
v 8.1593 2 2.15
v 8.1593 2.03594 2.15
v 8.59805 2 2.15
v 8.66383 2 2.15
v 8.59262 2.23599 2.15
v 7.96604 2.05425 2.35
v 8.03724 2.05425 2.35
v 8.1593 2 2.35
v 8.1593 2.03594 2.35
v 8.59805 2 2.35
v 8.66383 2 2.35
v 8.59262 2.23599 2.35
v 8.03724 2.81782 2.15
v 7.96604 2.85579 2.15
v 8.12472 2.90937 2.15
v 8.47056 2.87343 2.15
v 8.47056 2.90937 2.15
v 8.59262 2.85579 2.15
v 8.66383 2.85579 2.15
v 8.03724 2.81782 2.35
v 7.96604 2.85579 2.35
v 8.12472 2.90937 2.35
v 8.47056 2.87343 2.35
v 8.47056 2.90937 2.35
v 8.59262 2.85579 2.35
v 8.66383 2.85579 2.35
v 8.85242 2 2.15
v 8.85242 2.03594 2.15
v 8.96905 2.05425 2.15
v 9.04026 2.05425 2.15
v 9.16232 2 2.15
v 9.16232 2.03594 2.15
v 9.60107 2 2.15
v 9.59563 2.23599 2.15
v 8.85242 2 2.35
v 8.85242 2.03594 2.35
v 8.96905 2.05425 2.35
v 9.04026 2.05425 2.35
v 9.16232 2 2.35
v 9.16232 2.03594 2.35
v 9.60107 2 2.35
v 9.59563 2.23599 2.35
v 8.78047 2.87343 2.15
v 8.78047 2.90937 2.15
v 8.85242 2.87343 2.15
v 8.85242 2.90937 2.15
v 9.04026 2.81782 2.15
v 8.96905 2.85579 2.15
v 9.12773 2.90937 2.15
v 9.47358 2.87343 2.15
v 9.47358 2.90937 2.15
v 9.59563 2.85579 2.15
v 8.78047 2.87343 2.35
v 8.78047 2.90937 2.35
v 8.85242 2.87343 2.35
v 8.85242 2.90937 2.35
v 9.04026 2.81782 2.35
v 8.96905 2.85579 2.35
v 9.12773 2.90937 2.35
v 9.47358 2.87343 2.35
v 9.47358 2.90937 2.35
v 9.59563 2.85579 2.35
v 9.66685 2 2.15
v 9.85543 2 2.15
v 9.85543 2.03594 2.15
v 9.97207 2.05425 2.15
v 10.0433 2.05425 2.15
v 10.1653 2 2.15
v 10.1653 2.03594 2.15
v 9.66685 2 2.35
v 9.85543 2 2.35
v 9.85543 2.03594 2.35
v 9.97207 2.05425 2.35
v 10.0433 2.05425 2.35
v 10.1653 2 2.35
v 10.1653 2.03594 2.35
v 9.66685 2.85579 2.15
v 9.78349 2.87343 2.15
v 9.78349 2.90937 2.15
v 10.0433 2.81782 2.15
v 9.85543 2.87343 2.15
v 9.85543 2.90937 2.15
v 9.97207 2.85579 2.15
v 10.1307 2.90937 2.15
v 10.4766 2.87343 2.15
v 10.4766 2.90937 2.15
v 9.66685 2.85579 2.35
v 9.78349 2.87343 2.35
v 9.78349 2.90937 2.35
v 10.0433 2.81782 2.35
v 9.85543 2.87343 2.35
v 9.85543 2.90937 2.35
v 9.97207 2.85579 2.35
v 10.1307 2.90937 2.35
v 10.4766 2.87343 2.35
v 10.4766 2.90937 2.35
v 7.05018 4 2.15
v 7.05018 4.03594 2.15
v 7.16682 4.05425 2.15
v 7.29702 4.05425 2.15
v 7.41366 4 2.15
v 7.41366 4.03594 2.15
v 7.51269 4 2.15
v 7.51269 4.03594 2.15
v 7.62933 4.05425 2.15
v 7.75953 4.05425 2.15
v 7.05018 4 2.35
v 7.05018 4.03594 2.35
v 7.16682 4.05425 2.35
v 7.29702 4.05425 2.35
v 7.41366 4 2.35
v 7.41366 4.03594 2.35
v 7.51269 4 2.35
v 7.51269 4.03594 2.35
v 7.62933 4.05425 2.35
v 7.75953 4.05425 2.35
v 7.05018 4.87343 2.15
v 7.05018 4.90937 2.15
v 7.16682 4.85579 2.15
v 7.29702 4.85579 2.15
v 7.41366 4.87343 2.15
v 7.41366 4.90937 2.15
v 7.51269 4.87343 2.15
v 7.51269 4.90937 2.15
v 7.62933 4.85579 2.15
v 7.75953 4.85579 2.15
v 7.05018 4.87343 2.35
v 7.05018 4.90937 2.35
v 7.16682 4.85579 2.35
v 7.29702 4.85579 2.35
v 7.41366 4.87343 2.35
v 7.41366 4.90937 2.35
v 7.51269 4.87343 2.35
v 7.51269 4.90937 2.35
v 7.62933 4.85579 2.35
v 7.75953 4.85579 2.35
v 7.87617 4 2.15
v 7.87617 4.03594 2.15
v 7.9752 4 2.15
v 7.9752 4.03594 2.15
v 8.09184 4.05425 2.15
v 8.22204 4.05425 2.15
v 8.33868 4 2.15
v 8.33868 4.03594 2.15
v 7.87617 4 2.35
v 7.87617 4.03594 2.35
v 7.9752 4 2.35
v 7.9752 4.03594 2.35
v 8.09184 4.05425 2.35
v 8.22204 4.05425 2.35
v 8.33868 4 2.35
v 8.33868 4.03594 2.35
v 7.87617 4.87343 2.15
v 7.87617 4.90937 2.15
v 7.9752 4.87343 2.15
v 7.9752 4.90937 2.15
v 8.09184 4.85579 2.15
v 8.22204 4.85579 2.15
v 8.33868 4.87343 2.15
v 8.33868 4.90937 2.15
v 7.87617 4.87343 2.35
v 7.87617 4.90937 2.35
v 7.9752 4.87343 2.35
v 7.9752 4.90937 2.35
v 8.09184 4.85579 2.35
v 8.22204 4.85579 2.35
v 8.33868 4.87343 2.35
v 8.33868 4.90937 2.35
v 7.18038 6.1068 2.15
v 7.32821 6.01653 2.15
v 7.38526 6.06476 2.15
v 7.52487 5.98644 2.15
v 7.52623 6.03865 2.15
v 7.60133 6.04331 2.15
v 7.69084 5.99712 2.15
v 7.67202 6.0573 2.15
v 7.73339 6.07908 2.15
v 7.78052 6.10714 2.15
v 7.84562 6.02916 2.15
v 7.18038 6.1068 2.35
v 7.32821 6.01653 2.35
v 7.38526 6.06476 2.35
v 7.52487 5.98644 2.35
v 7.52623 6.03865 2.35
v 7.60133 6.04331 2.35
v 7.69084 5.99712 2.35
v 7.67202 6.0573 2.35
v 7.73339 6.07908 2.35
v 7.78052 6.10714 2.35
v 7.84562 6.02916 2.35
v 7.08782 6.25133 2.15
v 7.05696 6.44417 2.15
v 7.19869 6.44553 2.15
v 7.28244 6.14308 2.15
v 7.21963 6.27091 2.15
v 7.08663 6.65023 2.15
v 7.21869 6.63235 2.15
v 7.17563 6.79917 2.15
v 7.27871 6.76289 2.15
v 7.32296 6.88945 2.15
v 7.38229 6.83969 2.15
v 7.80561 6.24277 2.15
v 7.84969 6.24277 2.15
v 7.53301 6.86529 2.15
v 7.52758 6.91954 2.15
v 7.59752 6.8613 2.15
v 7.79137 6.68626 2.15
v 7.83613 6.68626 2.15
v 7.66083 6.84935 2.15
v 7.71975 6.83011 2.15
v 7.67457 6.91089 2.15
v 7.77103 6.80426 2.15
v 7.83206 6.88495 2.15
v 7.08782 6.25133 2.35
v 7.05696 6.44417 2.35
v 7.19869 6.44553 2.35
v 7.28244 6.14308 2.35
v 7.21963 6.27091 2.35
v 7.08663 6.65023 2.35
v 7.21869 6.63235 2.35
v 7.17563 6.79917 2.35
v 7.27871 6.76289 2.35
v 7.32296 6.88945 2.35
v 7.38229 6.83969 2.35
v 7.80561 6.24277 2.35
v 7.84969 6.24277 2.35
v 7.53301 6.86529 2.35
v 7.52758 6.91954 2.35
v 7.59752 6.8613 2.35
v 7.79137 6.68626 2.35
v 7.83613 6.68626 2.35
v 7.66083 6.84935 2.35
v 7.71975 6.83011 2.35
v 7.67457 6.91089 2.35
v 7.77103 6.80426 2.35
v 7.83206 6.88495 2.35
v 7.97521 6 2.15
v 7.97521 6.03594 2.15
v 8.08303 6.05425 2.15
v 8.21391 6.05425 2.15
v 8.35835 6 2.15
v 8.35835 6.03594 2.15
v 8.73882 6 2.15
v 8.73882 6.03594 2.15
v 7.97521 6 2.35
v 7.97521 6.03594 2.35
v 8.08303 6.05425 2.35
v 8.21391 6.05425 2.35
v 8.35835 6 2.35
v 8.35835 6.03594 2.35
v 8.73882 6 2.35
v 8.73882 6.03594 2.35
v 8.21391 6.35669 2.15
v 8.21391 6.41773 2.15
v 8.28443 6.41773 2.15
v 7.96639 6.87343 2.15
v 7.96639 6.90937 2.15
v 8.08303 6.85579 2.15
v 8.21391 6.84833 2.15
v 8.28036 6.84833 2.15
v 8.30952 6.90937 2.15
v 8.3163 6.35669 2.15
v 8.38403 6.43078 2.15
v 8.45591 6.37483 2.15
v 8.45362 6.46994 2.15
v 8.49456 6.5386 2.15
v 8.55873 6.42925 2.15
v 8.62205 6.5186 2.15
v 8.50821 6.64015 2.15
v 8.49515 6.7361 2.15
v 8.38598 6.83629 2.15
v 8.45599 6.80018 2.15
v 8.64316 6.64151 2.15
v 8.55975 6.8424 2.15
v 8.73882 6.87343 2.15
v 8.73882 6.90937 2.15
v 8.21391 6.35669 2.35
v 8.21391 6.41773 2.35
v 8.28443 6.41773 2.35
v 7.96639 6.87343 2.35
v 7.96639 6.90937 2.35
v 8.08303 6.85579 2.35
v 8.21391 6.84833 2.35
v 8.28036 6.84833 2.35
v 8.30952 6.90937 2.35
v 8.3163 6.35669 2.35
v 8.38403 6.43078 2.35
v 8.45591 6.37483 2.35
v 8.45362 6.46994 2.35
v 8.49456 6.5386 2.35
v 8.55873 6.42925 2.35
v 8.62205 6.5186 2.35
v 8.50821 6.64015 2.35
v 8.49515 6.7361 2.35
v 8.38598 6.83629 2.35
v 8.45599 6.80018 2.35
v 8.64316 6.64151 2.35
v 8.55975 6.8424 2.35
v 8.73882 6.87343 2.35
v 8.73882 6.90937 2.35
v 8.85546 6.05425 2.15
v 8.92666 6.05425 2.15
v 9.04872 6 2.15
v 9.04872 6.03594 2.15
v 9.48747 6 2.15
v 9.55325 6 2.15
v 8.85546 6.05425 2.35
v 8.92666 6.05425 2.35
v 9.04872 6 2.35
v 9.04872 6.03594 2.35
v 9.48747 6 2.35
v 9.55325 6 2.35
v 8.85546 6.85579 2.15
v 8.92666 6.81782 2.15
v 9.01414 6.90937 2.15
v 9.48204 6.23599 2.15
v 9.35998 6.87343 2.15
v 9.35998 6.90937 2.15
v 9.48204 6.85579 2.15
v 9.55325 6.85579 2.15
v 8.85546 6.85579 2.35
v 8.92666 6.81782 2.35
v 9.01414 6.90937 2.35
v 9.48204 6.23599 2.35
v 9.35998 6.87343 2.35
v 9.35998 6.90937 2.35
v 9.48204 6.85579 2.35
v 9.55325 6.85579 2.35
v 9.66989 6.87343 2.15
v 9.66989 6.90937 2.15
v 9.66989 6.87343 2.35
v 9.66989 6.90937 2.35
v 10.6041 2 2.15
v 10.6699 2 2.15
v 10.5986 2.23599 2.15
v 10.6041 2 2.35
v 10.6699 2 2.35
v 10.5986 2.23599 2.35
v 10.5986 2.85579 2.15
v 10.6699 2.85579 2.15
v 10.7865 2.87343 2.15
v 10.7865 2.90937 2.15
v 10.5986 2.85579 2.35
v 10.6699 2.85579 2.35
v 10.7865 2.87343 2.35
v 10.7865 2.90937 2.35
v 14 0 2.15
v 14 14 0
v 7.08782 8.25133 2.15
v 7.18038 8.1068 2.15
v 7.32821 8.01653 2.15
v 7.38526 8.06476 2.15
v 7.28244 8.14308 2.15
v 7.21963 8.27091 2.15
v 7.05696 8.44417 2.15
v 7.19869 8.44553 2.15
v 7.08663 8.65023 2.15
v 7.21869 8.63235 2.15
v 7.52487 7.98644 2.15
v 7.52623 8.03865 2.15
v 7.60133 8.04331 2.15
v 7.69084 7.99712 2.15
v 7.67202 8.0573 2.15
v 7.73339 8.07908 2.15
v 7.84562 8.02916 2.15
v 7.78052 8.10714 2.15
v 7.80561 8.24277 2.15
v 7.84969 8.24277 2.15
v 7.79137 8.68626 2.15
v 7.83613 8.68626 2.15
v 7.08782 8.25133 2.35
v 7.18038 8.1068 2.35
v 7.32821 8.01653 2.35
v 7.38526 8.06476 2.35
v 7.28244 8.14308 2.35
v 7.21963 8.27091 2.35
v 7.05696 8.44417 2.35
v 7.19869 8.44553 2.35
v 7.08663 8.65023 2.35
v 7.21869 8.63235 2.35
v 7.52487 7.98644 2.35
v 7.52623 8.03865 2.35
v 7.60133 8.04331 2.35
v 7.69084 7.99712 2.35
v 7.67202 8.0573 2.35
v 7.73339 8.07908 2.35
v 7.84562 8.02916 2.35
v 7.78052 8.10714 2.35
v 7.80561 8.24277 2.35
v 7.84969 8.24277 2.35
v 7.79137 8.68626 2.35
v 7.83613 8.68626 2.35
v 7.97521 8 2.15
v 7.97521 8.03594 2.15
v 8.08303 8.05425 2.15
v 8.21391 8.05425 2.15
v 8.21391 8.35669 2.15
v 8.21391 8.41773 2.15
v 8.28443 8.41773 2.15
v 8.35835 8 2.15
v 8.35835 8.03594 2.15
v 8.73882 8 2.15
v 8.73882 8.03594 2.15
v 8.3163 8.35669 2.15
v 8.38403 8.43078 2.15
v 8.45591 8.37483 2.15
v 8.45362 8.46994 2.15
v 8.49456 8.5386 2.15
v 8.50821 8.64015 2.15
v 8.49515 8.7361 2.15
v 8.55873 8.42925 2.15
v 8.62205 8.5186 2.15
v 8.64316 8.64151 2.15
v 7.97521 8 2.35
v 7.97521 8.03594 2.35
v 8.08303 8.05425 2.35
v 8.21391 8.05425 2.35
v 8.21391 8.35669 2.35
v 8.21391 8.41773 2.35
v 8.28443 8.41773 2.35
v 8.35835 8 2.35
v 8.35835 8.03594 2.35
v 8.73882 8 2.35
v 8.73882 8.03594 2.35
v 8.3163 8.35669 2.35
v 8.38403 8.43078 2.35
v 8.45591 8.37483 2.35
v 8.45362 8.46994 2.35
v 8.49456 8.5386 2.35
v 8.50821 8.64015 2.35
v 8.49515 8.7361 2.35
v 8.55873 8.42925 2.35
v 8.62205 8.5186 2.35
v 8.64316 8.64151 2.35
v 7.17563 8.79917 2.15
v 7.27871 8.76289 2.15
v 7.32296 8.88945 2.15
v 7.38229 8.83969 2.15
v 7.53301 8.86529 2.15
v 7.52758 8.91954 2.15
v 7.59752 8.8613 2.15
v 7.66083 8.84935 2.15
v 7.71975 8.83011 2.15
v 7.67457 8.91089 2.15
v 7.77103 8.80426 2.15
v 7.83206 8.88495 2.15
v 7.17563 8.79917 2.35
v 7.27871 8.76289 2.35
v 7.32296 8.88945 2.35
v 7.38229 8.83969 2.35
v 7.53301 8.86529 2.35
v 7.52758 8.91954 2.35
v 7.59752 8.8613 2.35
v 7.66083 8.84935 2.35
v 7.71975 8.83011 2.35
v 7.67457 8.91089 2.35
v 7.77103 8.80426 2.35
v 7.83206 8.88495 2.35
v 7.36372 10 2.15
v 7.15377 10.0976 2.15
v 7.36372 10.0647 2.15
v 7.60971 10.4524 2.15
v 7.77633 10.1922 2.15
v 7.84698 10.4876 2.15
v 7.36372 10 2.35
v 7.15377 10.0976 2.35
v 7.36372 10.0647 2.35
v 7.60971 10.4524 2.35
v 7.77633 10.1922 2.35
v 7.84698 10.4876 2.35
v 7.96639 8.87343 2.15
v 7.96639 8.90937 2.15
v 8.08303 8.85579 2.15
v 8.21391 8.84833 2.15
v 8.28036 8.84833 2.15
v 8.30952 8.90937 2.15
v 8.38598 8.83629 2.15
v 8.45599 8.80018 2.15
v 8.55975 8.8424 2.15
v 8.73882 8.87343 2.15
v 8.73882 8.90937 2.15
v 7.96639 8.87343 2.35
v 7.96639 8.90937 2.35
v 8.08303 8.85579 2.35
v 8.21391 8.84833 2.35
v 8.28036 8.84833 2.35
v 8.30952 8.90937 2.35
v 8.38598 8.83629 2.35
v 8.45599 8.80018 2.35
v 8.55975 8.8424 2.35
v 8.73882 8.87343 2.35
v 8.73882 8.90937 2.35
v 8.04243 10.0298 2.15
v 7.96004 10.2575 2.15
v 8.14512 10.1166 2.15
v 8.39641 9.97559 2.15
v 8.69515 9.99482 2.15
v 8.39886 10.0696 2.15
v 8.53404 10.078 2.15
v 8.66128 10.1031 2.15
v 8.04243 10.0298 2.35
v 7.96004 10.2575 2.35
v 8.14512 10.1166 2.35
v 8.39641 9.97559 2.35
v 8.69515 9.99482 2.35
v 8.39886 10.0696 2.35
v 8.53404 10.078 2.35
v 8.66128 10.1031 2.35
v 8.85546 8.05425 2.15
v 8.92666 8.05425 2.15
v 9.04872 8 2.15
v 9.04872 8.03594 2.15
v 9.48747 8 2.15
v 9.55325 8 2.15
v 9.48204 8.23599 2.15
v 8.85546 8.05425 2.35
v 8.92666 8.05425 2.35
v 9.04872 8 2.35
v 9.04872 8.03594 2.35
v 9.48747 8 2.35
v 9.55325 8 2.35
v 9.48204 8.23599 2.35
v 8.85546 8.85579 2.15
v 8.92666 8.81782 2.15
v 9.01414 8.90937 2.15
v 9.35998 8.87343 2.15
v 9.35998 8.90937 2.15
v 9.48204 8.85579 2.15
v 9.55325 8.85579 2.15
v 8.85546 8.85579 2.35
v 8.92666 8.81782 2.35
v 9.01414 8.90937 2.35
v 9.35998 8.87343 2.35
v 9.35998 8.90937 2.35
v 9.48204 8.85579 2.35
v 9.55325 8.85579 2.35
v 8.97376 10.0525 2.15
v 8.77175 10.1424 2.15
v 8.85658 10.1929 2.15
v 8.90174 10.437 2.15
v 8.98109 10.437 2.15
v 9.25219 10.0281 2.15
v 9.46579 9.98871 2.15
v 9.37425 10.1428 2.15
v 9.23876 10.3723 2.15
v 9.31931 10.3723 2.15
v 9.43177 10.1178 2.15
v 9.50912 10.0964 2.15
v 9.5935 10.0818 2.15
v 8.97376 10.0525 2.35
v 8.77175 10.1424 2.35
v 8.85658 10.1929 2.35
v 8.90174 10.437 2.35
v 8.98109 10.437 2.35
v 9.25219 10.0281 2.35
v 9.46579 9.98871 2.35
v 9.37425 10.1428 2.35
v 9.23876 10.3723 2.35
v 9.31931 10.3723 2.35
v 9.43177 10.1178 2.35
v 9.50912 10.0964 2.35
v 9.5935 10.0818 2.35
v 9.66989 8.87343 2.15
v 9.66989 8.90937 2.15
v 9.66989 8.87343 2.35
v 9.66989 8.90937 2.35
v 9.6916 9.97559 2.15
v 9.93726 10.0067 2.15
v 9.67207 10.0769 2.15
v 9.83869 10.0989 2.15
v 9.95527 10.1648 2.15
v 10.0239 10.282 2.15
v 10.0468 10.4577 2.15
v 10.479 10 2.15
v 10.12 10.1001 2.15
v 10.2336 10.2487 2.15
v 10.2714 10.4455 2.15
v 10.479 10.1794 2.15
v 9.6916 9.97559 2.35
v 9.93726 10.0067 2.35
v 9.67207 10.0769 2.35
v 9.83869 10.0989 2.35
v 9.95527 10.1648 2.35
v 10.0239 10.282 2.35
v 10.0468 10.4577 2.35
v 10.479 10 2.35
v 10.12 10.1001 2.35
v 10.2336 10.2487 2.35
v 10.2714 10.4455 2.35
v 10.479 10.1794 2.35
v 7.55417 10.7995 2.15
v 7.80929 10.802 2.15
v 7.60758 11.1704 2.15
v 7.8453 11.1382 2.15
v 7.55417 10.7995 2.35
v 7.80929 10.802 2.35
v 7.60758 11.1704 2.35
v 7.8453 11.1382 2.35
v 7.15377 11.5404 2.15
v 7.36372 11.5722 2.15
v 7.36372 11.6369 2.15
v 7.76778 11.4385 2.15
v 7.15377 11.5404 2.35
v 7.36372 11.5722 2.35
v 7.36372 11.6369 2.35
v 7.76778 11.4385 2.35
v 7.95333 11.3732 2.15
v 7.95333 11.3732 2.35
v 8.03297 11.601 2.15
v 8.13978 11.5114 2.15
v 8.41106 11.5575 2.15
v 8.52717 11.5503 2.15
v 8.40129 11.6552 2.15
v 8.64114 11.5288 2.15
v 8.74719 11.4942 2.15
v 8.66586 11.6396 2.15
v 8.03297 11.601 2.35
v 8.13978 11.5114 2.35
v 8.41106 11.5575 2.35
v 8.52717 11.5503 2.35
v 8.40129 11.6552 2.35
v 8.64114 11.5288 2.35
v 8.74719 11.4942 2.35
v 8.66586 11.6396 2.35
v 8.87611 11.2353 2.15
v 8.95668 11.2353 2.15
v 9.52681 10.8044 2.15
v 9.52681 10.9045 2.15
v 9.2888 11.2878 2.15
v 9.36937 11.2878 2.15
v 8.87611 11.2353 2.35
v 8.95668 11.2353 2.35
v 9.52681 10.8044 2.35
v 9.52681 10.9045 2.35
v 9.2888 11.2878 2.35
v 9.36937 11.2878 2.35
v 8.8395 11.4477 2.15
v 8.94935 11.5929 2.15
v 9.2888 11.6027 2.15
v 9.40139 11.6291 2.15
v 9.41208 11.4879 2.15
v 9.47006 11.5143 2.15
v 9.53659 11.5349 2.15
v 9.60586 11.5482 2.15
v 9.49751 11.6448 2.15
v 9.5851 11.6526 2.15
v 8.8395 11.4477 2.35
v 8.94935 11.5929 2.35
v 9.2888 11.6027 2.35
v 9.40139 11.6291 2.35
v 9.41208 11.4879 2.35
v 9.47006 11.5143 2.35
v 9.53659 11.5349 2.35
v 9.60586 11.5482 2.35
v 9.49751 11.6448 2.35
v 9.5851 11.6526 2.35
v 9.70138 10.7946 2.15
v 9.70138 10.9155 2.15
v 9.83929 10.8569 2.15
v 10.0258 10.5995 2.15
v 9.96258 10.7025 2.15
v 9.85516 10.7673 2.15
v 10.0322 10.8122 2.15
v 9.9908 10.9004 2.15
v 9.82129 10.9405 2.15
v 9.90521 11.0009 2.15
v 9.95465 11.0992 2.15
v 9.97112 11.2377 2.15
v 10.2452 10.6074 2.15
v 10.1664 10.7293 2.15
v 10.1036 10.982 2.15
v 10.1736 11.0999 2.15
v 10.1969 11.2524 2.15
v 9.70138 10.7946 2.35
v 9.70138 10.9155 2.35
v 9.83929 10.8569 2.35
v 10.0258 10.5995 2.35
v 9.96258 10.7025 2.35
v 9.85516 10.7673 2.35
v 10.0322 10.8122 2.35
v 9.9908 10.9004 2.35
v 9.82129 10.9405 2.35
v 9.90521 11.0009 2.35
v 9.95465 11.0992 2.35
v 9.97112 11.2377 2.35
v 10.2452 10.6074 2.35
v 10.1664 10.7293 2.35
v 10.1036 10.982 2.35
v 10.1736 11.0999 2.35
v 10.1969 11.2524 2.35
v 9.67207 11.5526 2.15
v 9.8071 11.5339 2.15
v 9.67207 11.6552 2.15
v 9.89972 11.4776 2.15
v 9.95327 11.3801 2.15
v 10.0657 11.5545 2.15
v 9.67207 11.5526 2.35
v 9.8071 11.5339 2.35
v 9.67207 11.6552 2.35
v 9.89972 11.4776 2.35
v 9.95327 11.3801 2.35
v 10.0657 11.5545 2.35
v 10.6389 10.188 2.15
v 10.706 10.3857 2.15
v 10.7576 10.2945 2.15
v 10.8696 10.3918 2.15
v 10.6389 10.188 2.35
v 10.706 10.3857 2.35
v 10.7576 10.2945 2.35
v 10.8696 10.3918 2.35
v 11.4811 10 2.15
v 11.4811 10.188 2.15
v 11.4811 10 2.35
v 11.4811 10.188 2.35
v 10.8955 10.559 2.15
v 10.5339 11.2878 2.15
v 10.6145 11.2878 2.15
v 11.0271 10.6958 2.15
v 11.0875 10.5839 2.15
v 11.1151 10.816 2.15
v 11.2333 10.7281 2.15
v 11.329 10.8486 2.15
v 11.1741 10.9399 2.15
v 11.2076 11.0748 2.15
v 11.2187 11.2279 2.15
v 11.2007 11.3677 2.15
v 10.8955 10.559 2.35
v 10.5339 11.2878 2.35
v 10.6145 11.2878 2.35
v 11.0271 10.6958 2.35
v 11.0875 10.5839 2.35
v 11.1151 10.816 2.35
v 11.2333 10.7281 2.35
v 11.329 10.8486 2.35
v 11.1741 10.9399 2.35
v 11.2076 11.0748 2.35
v 11.2187 11.2279 2.35
v 11.2007 11.3677 2.35
v 10.6572 11.4879 2.15
v 10.7137 11.5143 2.15
v 10.5339 11.6027 2.15
v 10.778 11.5349 2.15
v 10.8455 11.5482 2.15
v 10.9111 11.5526 2.15
v 10.7393 11.642 2.15
v 10.9111 11.6552 2.15
v 11.1467 11.4696 2.15
v 11.0518 11.5319 2.15
v 11.1462 11.6272 2.15
v 11.3145 11.5435 2.15
v 10.6572 11.4879 2.35
v 10.7137 11.5143 2.35
v 10.5339 11.6027 2.35
v 10.778 11.5349 2.35
v 10.8455 11.5482 2.35
v 10.9111 11.5526 2.35
v 10.7393 11.642 2.35
v 10.9111 11.6552 2.35
v 11.1467 11.4696 2.35
v 11.0518 11.5319 2.35
v 11.1462 11.6272 2.35
v 11.3145 11.5435 2.35
v 11.3963 10.9698 2.15
v 11.4361 11.095 2.15
v 11.4494 11.2279 2.15
v 11.3963 10.9698 2.35
v 11.4361 11.095 2.35
v 11.4494 11.2279 2.35
v 11.4157 11.4088 2.15
v 11.4157 11.4088 2.35
v 14 14 2.15
f  2 3 4
f  2 4 7
f  2 17 3
f  2 51 17
f  2 58 51
f  2 91 58
f  2 7 8
f  9 7 4
f  9 4 19
f  1 2 424
f  2 384 385
f  2 8 384
f  8 147 384
f  1 1096 2
f  2 92 91
f  2 94 92
f  2 95 94
f  2 116 95
f  2 117 116
f  2 716 117
f  2 717 716
f  2 719 717
f  15 19 4
f  16 39 20
f  17 55 18
f  52 17 51
f  53 17 52
f  16 18 39
f  39 18 55
f  10 21 29
f  29 32 30
f  21 33 29
f  32 29 31
f  33 31 29
f  20 39 34
f  34 39 35
f  35 38 36
f  38 35 37
f  39 37 35
f  53 55 17
f  58 91 59
f  54 59 103
f  54 103 56
f  103 59 91
f  57 70 69
f  57 74 70
f  70 73 71
f  73 70 72
f  74 72 70
f  36 38 216
f  56 76 75
f  56 77 76
f  56 103 77
f  76 79 78
f  79 76 77
f  71 216 38
f  71 73 215
f  78 215 73
f  2 750 719
f  2 752 750
f  2 753 752
f  2 776 753
f  96 92 94
f  104 93 105
f  93 107 105
f  105 107 106
f  78 79 215
f  106 215 79
f  106 107 215
f  115 123 108
f  108 123 124
f  108 215 107
f  108 124 219
f  95 116 131
f  126 95 127
f  95 128 127
f  128 95 131
f  115 125 123
f  127 130 129
f  130 127 128
f  239 124 129
f  129 130 243
f  132 118 133
f  118 728 133
f  133 728 134
f  134 245 130
f  30 149 8
f  30 32 150
f  36 150 32
f  171 8 149
f  147 8 171
f  149 30 150
f  36 216 229
f  36 229 227
f  36 227 150
f  150 228 152
f  152 228 155
f  288 159 287
f  151 189 172
f  173 189 174
f  172 189 173
f  174 189 176
f  176 189 177
f  177 189 180
f  153 189 151
f  154 190 153
f  156 190 154
f  153 190 189
f  157 190 156
f  158 190 157
f  158 181 190
f  182 308 181
f  159 310 182
f  180 189 183
f  183 189 184
f  184 189 186
f  186 191 187
f  191 186 189
f  181 308 190
f  190 308 192
f  309 192 308
f  71 215 216
f  215 108 219
f  219 124 239
f  217 229 216
f  218 220 240
f  219 240 220
f  240 219 239
f  218 240 265
f  218 231 230
f  218 263 231
f  218 265 263
f  231 264 232
f  264 231 263
f  129 243 239
f  130 245 243
f  240 241 265
f  242 244 246
f  243 246 244
f  246 243 245
f  242 246 271
f  245 134 249
f  134 846 249
f  247 271 246
f  248 250 847
f  249 847 250
f  242 267 266
f  242 269 267
f  242 271 269
f  267 270 268
f  270 267 269
f  248 273 272
f  248 866 273
f  273 867 274
f  228 150 227
f  155 228 159
f  159 228 287
f  287 228 291
f  289 159 288
f  232 291 228
f  232 264 293
f  232 293 291
f  291 294 292
f  294 291 293
f  289 310 159
f  290 292 303
f  303 292 305
f  305 292 315
f  306 307 304
f  307 316 304
f  316 317 304
f  310 308 182
f  312 311 304
f  320 322 304
f  313 312 304
f  322 313 304
f  292 294 315
f  315 294 318
f  317 321 304
f  318 351 319
f  351 318 294
f  319 351 324
f  351 363 324
f  321 320 304
f  324 325 323
f  326 323 325
f  325 324 363
f  268 293 264
f  268 353 293
f  268 270 353
f  353 355 354
f  274 355 270
f  270 355 353
f  355 274 356
f  918 356 274
f  354 364 352
f  364 354 355
f  368 365 367
f  941 356 940
f  356 941 945
f  356 945 370
f  366 367 365
f  366 369 367
f  370 945 371
f  1 424 383
f  1 383 1097
f  383 424 1097
f  2 404 406
f  2 406 402
f  2 402 420
f  2 405 404
f  2 407 405
f  2 385 407
f  2 420 424
f  384 461 388
f  388 392 391
f  450 391 392
f  407 385 408
f  424 420 421
f  424 421 425
f  424 425 426
f  424 426 427
f  424 427 428
f  424 428 429
f  424 429 430
f  408 385 409
f  409 389 410
f  389 411 410
f  389 409 385
f  441 389 443
f  389 449 443
f  389 441 411
f  441 444 442
f  442 444 455
f  441 443 444
f  455 451 456
f  451 455 444
f  391 450 390
f  394 656 451
f  456 451 656
f  662 432 656
f  457 656 432
f  456 656 457
f  175 384 147
f  178 384 175
f  178 464 384
f  179 463 178
f  178 463 464
f  179 467 463
f  179 472 467
f  179 476 472
f  185 541 179
f  188 541 185
f  192 541 188
f  192 309 541
f  179 478 476
f  179 541 478
f  468 482 465
f  466 482 469
f  465 482 466
f  469 482 471
f  471 482 514
f  473 482 468
f  474 482 473
f  475 482 474
f  477 482 475
f  542 478 541
f  479 482 477
f  478 543 481
f  479 480 482
f  481 482 480
f  543 482 481
f  482 543 483
f  461 384 464
f  470 388 461
f  388 470 392
f  392 470 393
f  393 513 505
f  513 393 470
f  505 513 516
f  506 393 505
f  393 506 507
f  514 482 515
f  505 516 518
f  505 518 522
f  505 522 524
f  515 482 517
f  517 482 519
f  519 482 520
f  523 521 520
f  523 520 482
f  483 597 524
f  598 524 597
f  537 524 598
f  603 537 598
f  524 537 505
f  508 538 620
f  537 603 538
f  538 603 619
f  620 538 619
f  314 541 309
f  314 545 541
f  323 545 314
f  323 326 545
f  326 365 545
f  545 368 546
f  549 546 372
f  478 542 543
f  544 546 547
f  547 546 549
f  543 597 483
f  543 599 597
f  548 550 551
f  551 555 548
f  555 557 548
f  601 600 548
f  602 601 548
f  604 602 548
f  558 604 548
f  553 549 552
f  553 554 549
f  554 553 556
f  583 556 553
f  557 559 548
f  559 558 548
f  556 583 560
f  560 583 631
f  560 631 561
f  545 365 368
f  546 368 372
f  549 949 552
f  549 372 949
f  949 585 552
f  586 632 584
f  585 588 586
f  632 586 588
f  1104 589 1098
f  587 634 633
f  587 636 634
f  589 1104 1106
f  589 1106 638
f  589 638 637
f  605 619 603
f  561 606 605
f  607 605 606
f  606 561 631
f  605 607 619
f  607 633 622
f  619 607 622
f  623 624 665
f  665 624 668
f  624 689 668
f  635 633 634
f  622 633 635
f  622 635 639
f  622 639 1189
f  622 1220 649
f  622 650 624
f  622 649 650
f  624 650 689
f  393 507 655
f  432 662 676
f  508 661 657
f  508 677 661
f  508 620 677
f  661 676 662
f  676 661 675
f  677 675 661
f  424 430 1520
f  621 677 620
f  667 669 666
f  669 690 666
f  666 690 693
f  679 678 666
f  680 679 666
f  666 693 694
f  666 694 695
f  705 680 666
f  666 695 705
f  689 650 691
f  709 691 650
f  651 709 650
f  691 709 692
f  692 709 696
f  681 706 708
f  696 707 706
f  708 706 707
f  707 696 709
f  1520 430 431
f  1520 431 432
f  1520 432 676
f  1 715 1096
f  1 1097 715
f  715 1097 1096
f  2 1096 776
f  718 117 716
f  720 717 719
f  717 734 733
f  717 720 763
f  717 736 734
f  717 763 736
f  721 730 729
f  731 729 730
f  134 728 846
f  729 846 728
f  846 729 731
f  721 732 730
f  734 737 735
f  737 734 736
f  735 852 731
f  852 735 737
f  750 752 751
f  748 763 720
f  751 762 749
f  762 751 752
f  753 792 768
f  764 886 737
f  764 766 892
f  754 765 764
f  766 764 765
f  754 767 765
f  793 892 766
f  793 795 893
f  777 753 776
f  753 777 797
f  778 797 777
f  753 794 792
f  753 797 794
f  781 796 779
f  780 782 781
f  796 781 782
f  792 795 793
f  795 792 794
f  798 893 795
f  893 798 800
f  783 799 798
f  800 798 799
f  783 801 799
f  828 893 800
f  814 812 813
f  812 814 832
f  812 827 826
f  812 830 827
f  812 832 830
f  815 832 814
f  817 1082 818
f  818 829 816
f  829 818 1082
f  827 831 828
f  831 827 830
f  1084 834 833
f  835 833 834
f  846 731 850
f  847 249 846
f  248 847 868
f  848 868 847
f  849 851 853
f  850 731 852
f  852 737 886
f  850 853 851
f  853 850 852
f  849 853 874
f  854 874 853
f  855 887 889
f  248 868 866
f  849 870 869
f  849 872 870
f  867 273 866
f  849 874 872
f  855 902 875
f  855 904 902
f  870 873 871
f  873 870 872
f  764 888 886
f  888 764 892
f  886 889 887
f  889 886 888
f  855 889 906
f  890 906 889
f  893 907 891
f  793 893 892
f  855 906 904
f  902 905 903
f  905 902 904
f  274 867 919
f  918 274 919
f  871 919 867
f  919 871 921
f  940 356 918
f  922 943 920
f  871 873 921
f  903 921 873
f  903 924 921
f  903 928 924
f  944 922 923
f  944 923 925
f  922 944 943
f  951 942 944
f  951 946 942
f  946 951 948
f  947 371 945
f  949 372 371
f  949 371 947
f  944 925 926
f  944 926 927
f  944 927 951
f  952 950 951
f  956 952 957
f  948 951 950
f  950 952 953
f  953 952 955
f  955 952 958
f  958 952 961
f  961 952 956
f  958 961 959
f  903 905 986
f  903 986 928
f  986 905 909
f  987 928 986
f  990 993 991
f  993 990 992
f  928 987 1007
f  988 1007 987
f  928 1007 952
f  989 991 1002
f  1002 991 1011
f  1004 1012 1003
f  957 952 1005
f  1007 1005 952
f  957 1005 962
f  1009 1008 1003
f  1020 1009 1003
f  1011 991 1013
f  991 993 1013
f  1012 1014 1003
f  1014 1015 1003
f  1015 1018 1003
f  1013 993 1016
f  1050 1016 993
f  1016 1050 1017
f  1018 1019 1003
f  1019 1021 1003
f  1021 1020 1003
f  1017 1062 1022
f  1022 1024 1023
f  1025 1023 1024
f  1024 1022 1062
f  907 893 828
f  907 833 908
f  908 835 909
f  907 828 831
f  907 831 833
f  986 909 1091
f  908 833 835
f  1091 909 835
f  1096 990 986
f  1096 992 990
f  1052 1054 1053
f  1053 1063 1051
f  1017 1050 1062
f  1063 1053 1054
f  1065 1066 1064
f  1067 1064 1066
f  1065 1068 1066
f  1055 1078 1069
f  1096 780 776
f  1096 782 780
f  1096 812 782
f  1096 813 812
f  1096 817 813
f  1096 1082 817
f  1096 1083 1082
f  1096 1090 1083
f  1083 1090 1089
f  1084 1088 834
f  1096 986 1091
f  1096 1091 1090
f  1096 1052 992
f  1096 1054 1052
f  1096 1055 1054
f  1096 1078 1055
f  1096 1079 1078
f  1096 1263 1079
f  1096 1312 1263
f  1096 1313 1312
f  1096 1460 1313
f  1096 1461 1460
f  954 585 949
f  960 585 954
f  962 585 960
f  962 1005 585
f  1005 588 585
f  1005 589 588
f  1006 1100 589
f  1006 589 1005
f  1006 1108 1100
f  1006 1111 1108
f  1006 1114 1111
f  1099 589 1100
f  1098 589 1099
f  1102 1118 1103
f  1103 1118 1105
f  1105 1118 1107
f  1107 1118 1185
f  1101 1118 1102
f  1109 1118 1101
f  1110 1119 1109
f  1112 1119 1110
f  1113 1119 1112
f  1115 1119 1113
f  1109 1119 1118
f  1115 1116 1119
f  1117 1220 1116
f  1116 1220 1119
f  1010 1142 1006
f  1023 1142 1010
f  1006 1142 1114
f  1023 1025 1142
f  1064 1149 1025
f  1025 1149 1142
f  1143 1114 1142
f  1114 1143 1144
f  1145 1150 1146
f  1146 1150 1153
f  1114 1222 1117
f  1114 1144 1222
f  1222 1220 1117
f  1148 1154 1147
f  1224 1223 1147
f  1226 1224 1147
f  1149 1152 1150
f  1153 1150 1155
f  1150 1152 1155
f  1152 1149 1151
f  1155 1152 1160
f  1258 1160 1152
f  1154 1156 1147
f  1156 1157 1147
f  1157 1158 1147
f  1158 1159 1147
f  1227 1226 1147
f  1159 1227 1147
f  1160 1258 1161
f  1161 1258 1162
f  1184 638 1106
f  638 1184 639
f  1186 639 1184
f  1189 639 1186
f  622 1189 1193
f  622 1193 1195
f  622 1195 1220
f  1185 1118 1187
f  1187 1118 1188
f  1188 1118 1190
f  1190 1118 1191
f  1194 1191 1118
f  1194 1192 1191
f  1221 649 1220
f  649 1221 1208
f  1210 1340 1209
f  1208 1221 1242
f  1208 1212 1210
f  1211 1210 1212
f  1210 1211 1340
f  1212 1208 1242
f  1119 1220 1195
f  1162 1229 1228
f  1229 1162 1272
f  1230 1228 1229
f  1225 1291 1221
f  1228 1291 1225
f  1242 1221 1245
f  1245 1221 1246
f  1246 1221 1286
f  1291 1286 1221
f  1247 1374 1244
f  1248 1375 1247
f  1249 1375 1248
f  1064 1067 1149
f  1067 1151 1149
f  1067 1260 1151
f  1079 1262 1067
f  1067 1262 1260
f  1079 1263 1262
f  1261 1273 1259
f  1273 1261 1262
f  1258 1272 1162
f  1260 1262 1261
f  1264 1275 1274
f  1264 1277 1275
f  1263 1312 1278
f  1228 1230 1291
f  1274 1291 1230
f  1276 1274 1275
f  1291 1274 1276
f  1313 1292 1276
f  1313 1316 1292
f  1287 1375 1249
f  1286 1291 1294
f  1286 1294 1290
f  1295 1290 1294
f  1291 1276 1292
f  1297 1293 1296
f  1298 1293 1297
f  1293 1298 1295
f  1318 1295 1298
f  1319 1295 1318
f  1290 1295 1322
f  1316 1313 1317
f  1317 1313 1324
f  1320 1295 1319
f  1321 1295 1320
f  1409 1290 1322
f  1322 1295 1321
f  1313 1323 1324
f  1327 1325 1324
f  1327 1324 1323
f  1325 1327 1453
f  1325 1453 1326
f  424 1520 1097
f  1209 1349 1348
f  1209 1342 1349
f  1209 1340 1342
f  1349 1351 1350
f  1351 1349 1342
f  1358 1350 1351
f  1243 1374 1213
f  1213 1374 1341
f  1341 1374 1343
f  1343 1374 1356
f  1244 1374 1243
f  1247 1375 1374
f  1356 1374 1359
f  1362 1350 1358
f  1359 1374 1360
f  1360 1374 1361
f  1361 1374 1363
f  1363 1386 1364
f  1520 676 681
f  1288 1375 1287
f  1288 1289 1375
f  1290 1375 1289
f  1290 1376 1375
f  1376 1290 1406
f  1406 1290 1411
f  1411 1290 1410
f  1375 1377 1378
f  1377 1375 1376
f  1378 1377 1379
f  1407 1379 1377
f  1386 1363 1374
f  1375 1388 1387
f  1388 1375 1378
f  1379 1391 1390
f  1391 1379 1392
f  1392 1379 1393
f  1393 1379 1440
f  1440 1379 1441
f  1410 1290 1409
f  1408 1412 1413
f  1414 1379 1407
f  1415 1379 1414
f  1416 1379 1415
f  1417 1379 1416
f  1444 1379 1417
f  1419 1413 1412
f  1419 1420 1413
f  1326 1464 1418
f  1418 1467 1419
f  1420 1419 1467
f  1420 1467 1421
f  1421 1465 1422
f  1465 1421 1466
f  1441 1379 1443
f  1443 1379 1444
f  1422 1490 1445
f  1490 1422 1465
f  1520 681 708
f  1520 708 1350
f  1520 1350 1362
f  1520 1362 1365
f  1096 1097 1520
f  1323 1313 1460
f  1464 1326 1453
f  1452 1461 1454
f  1454 1461 1455
f  1455 1461 1468
f  1468 1461 1470
f  1096 1520 1461
f  1418 1464 1467
f  1469 1421 1467
f  1421 1473 1466
f  1472 1421 1469
f  1473 1421 1472
f  1474 1466 1473
f  1475 1466 1474
f  1466 1489 1488
f  1489 1466 1491
f  1491 1466 1492
f  1492 1466 1493
f  1493 1466 1497
f  1496 1466 1475
f  1497 1466 1496
f  1520 1470 1461
f  1520 1471 1470
f  1520 1512 1471
f  1520 1365 1387
f  1520 1387 1388
f  1520 1388 1389
f  1520 1389 1394
f  1520 1394 1395
f  1520 1395 1442
f  1520 1442 1445
f  1520 1445 1490
f  1520 1490 1494
f  1520 1494 1495
f  1520 1495 1498
f  1520 1499 1518
f  1520 1498 1499
f  1520 1513 1512
f  1520 1514 1513
f  1520 1518 1514
f  5 4 3
f  5 6 4
f  11 8 7
f  13 7 9
f  12 30 8
f  11 12 8
f  11 7 13
f  11 13 12
f  13 9 26
f  13 26 14
f  12 41 30
f  12 13 14
f  12 14 41
f  6 15 4
f  22 19 15
f  24 3 17
f  23 18 16
f  25 17 18
f  6 22 15
f  5 3 24
f  5 22 6
f  5 24 22
f  22 23 26
f  23 16 27
f  23 25 18
f  24 17 25
f  22 24 23
f  23 24 25
f  26 9 19
f  27 16 20
f  28 33 21
f  22 26 19
f  23 27 26
f  26 27 28
f  14 28 21
f  14 26 28
f  27 20 45
f  27 44 28
f  14 21 10
f  40 10 29
f  41 29 30
f  42 32 31
f  44 31 33
f  14 10 40
f  40 29 41
f  14 40 41
f  28 44 33
f  27 45 44
f  42 43 32
f  42 31 44
f  42 44 43
f  45 20 34
f  43 36 32
f  46 34 35
f  47 35 36
f  48 38 37
f  50 37 39
f  49 71 38
f  45 34 46
f  43 47 36
f  46 35 47
f  43 44 45
f  43 45 47
f  45 46 47
f  48 49 38
f  48 37 50
f  48 50 49
f  49 50 80
f  60 52 51
f  61 53 52
f  62 55 53
f  67 51 58
f  63 59 54
f  60 61 52
f  61 62 53
f  60 62 61
f  60 51 67
f  63 54 65
f  60 67 62
f  62 63 64
f  62 67 63
f  64 39 55
f  65 54 56
f  66 74 57
f  62 64 55
f  64 65 66
f  63 65 64
f  66 57 80
f  64 66 80
f  68 58 59
f  63 68 59
f  67 58 68
f  63 67 68
f  65 56 86
f  65 85 66
f  80 57 69
f  81 69 70
f  82 70 71
f  64 50 39
f  64 80 50
f  49 82 71
f  80 69 81
f  81 70 82
f  49 80 82
f  80 81 82
f  86 56 75
f  83 73 72
f  85 72 74
f  84 78 73
f  87 75 76
f  89 76 78
f  88 79 77
f  109 77 103
f  66 85 74
f  65 86 85
f  83 84 73
f  83 72 85
f  83 85 84
f  84 85 86
f  84 86 89
f  86 75 87
f  84 89 78
f  87 76 89
f  88 90 79
f  88 77 109
f  86 87 89
f  88 109 90
f  98 91 92
f  97 91 98
f  97 103 91
f  109 103 97
f  98 92 102
f  109 97 98
f  109 98 99
f  110 99 93
f  101 94 95
f  100 94 101
f  102 92 96
f  99 107 93
f  100 96 94
f  98 102 99
f  99 102 113
f  100 102 96
f  100 119 102
f  119 115 114
f  119 113 102
f  90 106 79
f  110 93 104
f  111 104 105
f  112 105 106
f  109 99 110
f  110 104 111
f  90 112 106
f  90 109 110
f  90 110 112
f  111 105 112
f  110 111 112
f  113 108 107
f  114 115 108
f  99 113 107
f  113 114 108
f  119 114 113
f  119 125 115
f  138 95 126
f  101 95 138
f  100 101 138
f  100 138 119
f  121 116 117
f  120 116 121
f  120 131 116
f  143 131 120
f  121 117 724
f  143 120 121
f  143 121 122
f  144 122 118
f  135 124 123
f  137 123 125
f  136 129 124
f  139 126 127
f  141 127 129
f  140 130 128
f  143 128 131
f  119 137 125
f  119 138 137
f  135 136 124
f  135 123 137
f  135 137 136
f  136 137 138
f  136 141 129
f  138 126 139
f  139 127 141
f  140 142 130
f  140 128 143
f  136 138 141
f  138 139 141
f  140 143 142
f  142 134 130
f  144 118 132
f  145 132 133
f  146 133 134
f  143 122 144
f  144 132 145
f  142 146 134
f  142 143 144
f  142 144 146
f  145 133 146
f  144 145 146
f  148 175 147
f  193 148 147
f  148 197 175
f  161 149 150
f  194 151 172
f  163 150 152
f  162 153 151
f  161 160 149
f  161 194 160
f  161 150 163
f  194 162 151
f  164 153 162
f  161 162 194
f  161 163 162
f  163 164 162
f  164 154 153
f  166 152 155
f  165 156 154
f  167 157 156
f  168 158 157
f  170 155 159
f  163 152 166
f  164 165 154
f  165 167 156
f  167 168 157
f  163 166 165
f  163 165 164
f  165 166 167
f  166 168 167
f  166 155 170
f  168 169 158
f  170 159 204
f  166 170 168
f  170 169 168
f  160 171 149
f  193 147 171
f  195 172 173
f  196 173 174
f  160 193 171
f  194 172 195
f  196 195 173
f  160 195 193
f  193 195 196
f  160 194 195
f  196 174 198
f  193 196 148
f  148 196 197
f  197 178 175
f  198 174 176
f  199 176 177
f  200 179 178
f  202 177 180
f  201 185 179
f  205 180 183
f  197 200 178
f  198 176 199
f  196 198 197
f  197 198 200
f  198 199 200
f  200 201 179
f  200 199 201
f  199 177 202
f  202 180 205
f  201 207 185
f  199 202 201
f  201 202 207
f  202 205 207
f  169 181 158
f  203 182 181
f  204 159 182
f  169 203 181
f  203 204 182
f  170 204 169
f  169 204 203
f  206 183 184
f  207 188 185
f  208 184 186
f  209 186 187
f  210 192 188
f  211 191 189
f  212 189 190
f  213 187 191
f  214 190 192
f  205 183 206
f  206 184 208
f  208 186 209
f  207 210 188
f  205 206 207
f  207 206 210
f  206 208 210
f  208 209 210
f  211 213 191
f  211 189 212
f  212 190 214
f  211 212 213
f  213 209 187
f  210 214 192
f  210 209 214
f  213 214 209
f  212 214 213
f  221 216 215
f  221 222 216
f  222 217 216
f  225 215 219
f  223 229 217
f  224 220 218
f  226 219 220
f  221 215 225
f  222 223 217
f  221 223 222
f  221 225 223
f  225 224 223
f  223 224 235
f  224 226 220
f  225 219 226
f  225 226 224
f  224 218 236
f  233 228 227
f  233 234 228
f  236 218 230
f  223 235 229
f  224 236 235
f  235 227 229
f  234 232 228
f  237 230 231
f  238 231 232
f  233 227 235
f  234 238 232
f  233 235 234
f  234 235 236
f  234 236 238
f  236 230 237
f  237 231 238
f  236 237 238
f  251 240 239
f  252 241 240
f  253 265 241
f  255 239 243
f  254 244 242
f  256 243 244
f  251 252 240
f  252 253 241
f  251 239 255
f  251 253 252
f  251 255 253
f  253 254 277
f  254 256 244
f  255 243 256
f  255 254 253
f  255 256 254
f  254 242 278
f  257 246 245
f  258 247 246
f  259 271 247
f  261 245 249
f  260 250 248
f  262 249 250
f  257 258 246
f  258 259 247
f  257 245 261
f  257 259 258
f  257 261 259
f  259 260 283
f  260 262 250
f  261 249 262
f  259 261 260
f  261 262 260
f  260 248 284
f  278 242 266
f  253 277 265
f  254 278 277
f  275 264 263
f  277 263 265
f  276 268 264
f  279 266 267
f  280 267 268
f  275 276 264
f  275 263 277
f  275 277 276
f  276 277 278
f  276 278 280
f  276 280 268
f  278 266 279
f  279 267 280
f  278 279 280
f  284 248 272
f  259 283 271
f  260 284 283
f  281 270 269
f  283 269 271
f  282 274 270
f  285 272 273
f  286 273 274
f  281 282 270
f  281 269 283
f  281 283 282
f  282 283 284
f  282 286 274
f  284 272 285
f  285 273 286
f  282 284 286
f  284 285 286
f  295 288 287
f  296 289 288
f  299 287 291
f  298 292 290
f  300 291 292
f  295 296 288
f  296 297 289
f  295 287 299
f  295 297 296
f  295 298 297
f  299 291 300
f  298 300 292
f  295 299 298
f  298 299 300
f  301 294 293
f  302 351 294
f  301 302 294
f  302 357 351
f  301 357 302
f  297 310 289
f  327 290 303
f  328 306 304
f  329 303 305
f  330 307 306
f  297 298 327
f  297 327 328
f  297 328 334
f  298 290 327
f  327 303 329
f  328 330 306
f  328 304 335
f  329 305 339
f  330 331 307
f  327 330 328
f  327 329 330
f  329 331 330
f  329 339 331
f  332 309 308
f  334 308 310
f  333 314 309
f  335 304 311
f  336 311 312
f  337 312 313
f  297 334 310
f  334 328 335
f  332 308 334
f  332 333 309
f  332 334 333
f  333 334 338
f  335 311 336
f  333 338 314
f  336 312 337
f  334 335 338
f  335 336 338
f  336 337 338
f  339 305 315
f  331 316 307
f  340 317 316
f  342 315 318
f  343 318 319
f  339 315 342
f  331 340 316
f  340 341 317
f  342 318 343
f  339 340 331
f  339 342 340
f  340 342 341
f  341 342 343
f  343 319 348
f  344 322 320
f  341 321 317
f  345 320 321
f  347 324 323
f  346 313 322
f  338 323 314
f  348 319 324
f  349 326 325
f  373 325 363
f  344 346 322
f  341 345 321
f  345 344 320
f  341 343 345
f  345 343 348
f  345 348 344
f  344 348 347
f  337 313 346
f  338 347 323
f  338 337 347
f  337 346 347
f  344 347 346
f  348 324 347
f  349 325 373
f  349 350 326
f  349 373 350
f  359 293 353
f  358 354 352
f  360 353 354
f  301 293 359
f  358 360 354
f  301 359 357
f  357 359 358
f  358 359 360
f  359 353 360
f  362 355 356
f  361 355 362
f  357 373 351
f  358 352 374
f  357 358 374
f  361 374 364
f  373 363 351
f  374 352 364
f  350 365 326
f  375 366 365
f  357 374 373
f  350 375 365
f  373 374 375
f  350 373 375
f  376 375 374
f  361 364 355
f  376 369 366
f  361 362 374
f  376 366 375
f  362 376 374
f  362 356 380
f  362 380 376
f  377 368 367
f  379 367 369
f  378 372 368
f  380 356 370
f  381 370 371
f  382 371 372
f  376 379 369
f  377 378 368
f  377 367 379
f  377 379 378
f  378 379 380
f  376 380 379
f  380 370 381
f  378 382 372
f  381 371 382
f  378 380 382
f  380 381 382
f  386 385 384
f  386 387 385
f  386 396 387
f  387 389 385
f  387 396 389
f  395 384 388
f  398 388 391
f  386 384 395
f  386 395 396
f  395 388 398
f  397 395 398
f  397 391 390
f  396 395 397
f  397 398 391
f  400 392 393
f  399 392 400
f  399 450 392
f  399 400 453
f  413 404 405
f  412 406 404
f  414 402 406
f  415 405 407
f  416 407 408
f  412 404 413
f  414 406 412
f  414 403 402
f  413 405 415
f  415 407 416
f  412 413 458
f  414 412 458
f  417 408 409
f  418 409 410
f  419 410 411
f  445 411 441
f  416 408 417
f  417 409 418
f  416 417 419
f  413 415 458
f  415 416 458
f  418 410 419
f  417 418 419
f  416 419 445
f  419 411 445
f  416 445 446
f  416 446 458
f  403 420 402
f  422 421 420
f  403 422 420
f  422 423 421
f  423 425 421
f  433 426 425
f  423 433 425
f  422 435 423
f  423 434 433
f  423 435 434
f  422 436 435
f  403 458 422
f  414 458 403
f  422 439 438
f  434 427 426
f  435 428 427
f  436 429 428
f  433 434 426
f  434 435 427
f  435 436 428
f  436 437 429
f  422 437 436
f  422 438 437
f  422 458 459
f  422 440 439
f  422 460 440
f  422 459 460
f  460 457 440
f  437 430 429
f  438 431 430
f  439 432 431
f  440 457 432
f  437 438 430
f  438 439 431
f  439 440 432
f  446 441 442
f  445 441 446
f  447 444 443
f  452 443 449
f  448 451 444
f  447 443 452
f  447 452 448
f  447 448 444
f  396 452 389
f  397 390 453
f  396 397 453
f  452 449 389
f  453 390 450
f  396 453 452
f  399 453 450
f  400 401 453
f  401 394 454
f  454 394 451
f  453 401 454
f  453 454 452
f  448 454 451
f  448 452 454
f  458 442 455
f  459 455 456
f  460 456 457
f  446 442 458
f  458 455 459
f  459 456 460
f  462 470 461
f  485 462 461
f  462 491 470
f  488 463 467
f  484 464 463
f  487 465 466
f  493 467 472
f  489 473 468
f  486 468 465
f  488 484 463
f  488 486 484
f  485 464 484
f  486 465 487
f  485 484 487
f  484 486 487
f  488 467 493
f  489 468 486
f  489 494 473
f  488 489 486
f  488 493 489
f  489 493 494
f  485 461 464
f  490 466 469
f  491 513 470
f  492 469 471
f  526 471 514
f  490 487 466
f  490 469 492
f  485 490 462
f  485 487 490
f  462 490 491
f  491 525 513
f  492 471 526
f  490 492 491
f  491 492 525
f  492 526 525
f  494 474 473
f  497 472 476
f  495 475 474
f  496 477 475
f  498 479 477
f  499 476 478
f  500 480 479
f  501 481 480
f  502 478 481
f  493 472 497
f  494 495 474
f  495 496 475
f  496 498 477
f  493 495 494
f  493 497 495
f  495 497 496
f  497 498 496
f  497 476 499
f  497 499 498
f  498 499 500
f  498 500 479
f  500 501 480
f  501 502 481
f  499 478 502
f  499 502 500
f  500 502 501
f  503 523 482
f  504 482 483
f  503 482 504
f  503 504 535
f  509 506 505
f  509 510 506
f  400 393 658
f  539 505 537
f  509 505 539
f  509 511 510
f  509 539 511
f  510 507 506
f  510 511 507
f  511 539 512
f  525 516 513
f  527 514 515
f  528 518 516
f  529 515 517
f  525 528 516
f  526 528 525
f  526 514 527
f  527 515 529
f  528 530 518
f  526 527 528
f  528 527 530
f  527 529 530
f  531 517 519
f  530 522 518
f  532 519 520
f  533 520 521
f  534 524 522
f  535 521 523
f  536 483 524
f  531 519 532
f  529 517 531
f  532 520 533
f  530 534 522
f  529 531 530
f  530 531 534
f  531 532 534
f  532 533 534
f  503 535 523
f  533 521 535
f  504 483 536
f  534 536 524
f  533 535 536
f  504 536 535
f  534 533 536
f  540 537 538
f  539 537 540
f  512 539 540
f  512 538 508
f  512 540 538
f  562 542 541
f  563 543 542
f  566 541 545
f  565 546 544
f  567 545 546
f  568 544 547
f  562 563 542
f  563 564 543
f  562 541 566
f  562 564 563
f  562 565 564
f  564 565 568
f  564 568 569
f  565 567 546
f  566 545 567
f  562 566 565
f  565 566 567
f  565 544 568
f  610 599 543
f  569 550 548
f  570 547 549
f  571 551 550
f  611 548 600
f  564 610 543
f  564 569 610
f  569 611 610
f  568 547 570
f  569 571 550
f  570 549 575
f  571 572 551
f  568 571 569
f  568 570 571
f  571 570 572
f  570 575 572
f  569 548 611
f  573 553 552
f  574 583 553
f  573 574 553
f  574 590 583
f  573 590 574
f  575 549 554
f  572 555 551
f  576 557 555
f  577 554 556
f  581 556 560
f  578 559 557
f  580 558 559
f  582 560 561
f  575 554 577
f  572 576 555
f  576 578 557
f  577 556 581
f  572 575 576
f  575 577 576
f  576 577 578
f  578 577 581
f  578 580 559
f  580 579 558
f  578 581 580
f  580 581 582
f  580 582 579
f  579 582 616
f  581 560 582
f  582 561 616
f  592 552 585
f  591 586 584
f  593 585 586
f  573 552 592
f  591 593 586
f  573 592 590
f  590 592 591
f  591 592 593
f  591 584 641
f  590 591 641
f  592 585 593
f  640 631 583
f  641 584 632
f  642 587 633
f  590 640 583
f  590 641 640
f  595 641 632
f  594 642 641
f  595 632 588
f  596 588 589
f  595 596 641
f  595 588 596
f  596 589 646
f  594 636 587
f  646 589 637
f  594 587 642
f  594 641 596
f  594 645 636
f  594 596 646
f  594 646 645
f  608 598 597
f  610 597 599
f  609 603 598
f  612 600 601
f  613 601 602
f  608 609 598
f  608 597 610
f  608 610 609
f  609 610 614
f  611 600 612
f  609 614 603
f  612 601 613
f  610 611 614
f  611 612 614
f  612 613 614
f  615 602 604
f  579 604 558
f  614 605 603
f  616 561 605
f  617 607 606
f  640 606 631
f  613 602 615
f  579 615 604
f  614 616 605
f  613 615 616
f  614 613 616
f  579 616 615
f  617 618 607
f  617 606 640
f  617 640 618
f  625 620 619
f  625 626 620
f  625 627 626
f  625 619 628
f  626 621 620
f  626 627 621
f  625 629 627
f  627 629 670
f  627 670 671
f  628 619 622
f  630 622 624
f  625 628 629
f  628 622 630
f  629 628 630
f  629 624 623
f  670 623 665
f  629 623 670
f  629 630 624
f  618 633 607
f  618 642 633
f  618 640 642
f  640 641 642
f  643 635 634
f  645 634 636
f  644 639 635
f  647 637 638
f  648 638 639
f  643 644 635
f  643 634 645
f  643 645 644
f  644 645 646
f  646 637 647
f  644 648 639
f  647 638 648
f  644 646 648
f  646 647 648
f  652 650 649
f  652 653 650
f  652 654 653
f  652 649 1214
f  652 1214 654
f  653 651 650
f  653 654 651
f  401 656 394
f  400 658 401
f  658 393 655
f  401 658 659
f  401 659 656
f  511 655 507
f  512 508 660
f  511 512 658
f  660 508 657
f  511 658 655
f  512 659 658
f  512 660 659
f  659 662 656
f  659 664 662
f  659 660 664
f  663 657 661
f  664 661 662
f  660 657 663
f  663 661 664
f  660 663 664
f  627 677 621
f  627 671 684
f  627 684 677
f  671 685 684
f  673 665 668
f  671 667 666
f  697 668 689
f  672 669 667
f  674 690 669
f  670 665 673
f  670 672 671
f  670 673 672
f  671 672 667
f  673 668 697
f  673 697 674
f  672 674 669
f  673 674 672
f  685 666 678
f  671 666 685
f  682 676 675
f  684 675 677
f  683 681 676
f  682 675 684
f  682 684 683
f  682 683 676
f  683 684 688
f  686 678 679
f  687 679 680
f  685 678 686
f  684 685 688
f  685 686 688
f  683 688 681
f  687 686 679
f  687 680 710
f  687 688 686
f  687 711 688
f  688 711 681
f  698 693 690
f  699 689 691
f  700 691 692
f  697 689 699
f  674 698 690
f  698 701 693
f  674 697 698
f  697 699 698
f  699 701 698
f  699 691 700
f  699 700 701
f  701 694 693
f  703 705 695
f  702 695 694
f  704 692 696
f  701 702 694
f  701 700 702
f  702 703 695
f  700 692 704
f  702 700 704
f  704 696 711
f  702 704 703
f  703 704 711
f  654 709 651
f  654 1215 714
f  654 714 709
f  710 680 705
f  711 706 681
f  711 696 706
f  703 710 705
f  687 710 711
f  703 711 710
f  712 708 707
f  714 707 709
f  713 1350 708
f  712 707 714
f  712 714 713
f  712 713 708
f  713 714 1352
f  723 716 717
f  722 716 723
f  724 117 718
f  122 728 118
f  722 718 716
f  121 724 122
f  122 724 738
f  724 718 722
f  724 722 727
f  727 721 739
f  724 727 738
f  725 720 719
f  725 726 720
f  727 732 721
f  743 717 733
f  723 717 743
f  722 723 743
f  722 743 727
f  738 729 728
f  739 721 729
f  122 738 728
f  738 739 729
f  727 739 738
f  740 731 730
f  742 730 732
f  741 735 731
f  744 733 734
f  745 734 735
f  746 737 736
f  727 742 732
f  727 743 742
f  740 741 731
f  740 730 742
f  740 742 741
f  741 742 743
f  741 745 735
f  743 733 744
f  744 734 745
f  746 747 737
f  741 743 745
f  743 744 745
f  726 748 720
f  757 719 750
f  756 751 749
f  758 750 751
f  726 755 748
f  725 719 757
f  725 755 726
f  725 757 755
f  755 757 756
f  756 758 751
f  757 750 758
f  756 757 758
f  755 763 748
f  769 749 762
f  756 749 769
f  755 756 769
f  755 770 763
f  755 769 770
f  769 762 759
f  760 752 753
f  759 752 760
f  759 762 752
f  761 767 754
f  775 753 768
f  769 759 760
f  769 760 761
f  771 761 754
f  760 753 775
f  761 760 775
f  770 736 763
f  747 764 737
f  771 754 764
f  746 736 770
f  747 771 764
f  746 770 747
f  747 770 771
f  770 769 771
f  769 761 771
f  772 766 765
f  774 765 767
f  773 793 766
f  802 768 792
f  772 773 766
f  772 765 774
f  772 774 773
f  761 774 767
f  761 775 774
f  773 803 793
f  775 768 802
f  773 774 775
f  773 775 803
f  775 802 803
f  784 777 776
f  785 778 777
f  788 776 780
f  787 781 779
f  789 780 781
f  784 785 777
f  784 776 788
f  785 786 778
f  784 786 785
f  787 789 781
f  788 780 789
f  784 788 786
f  786 788 787
f  787 788 789
f  786 797 778
f  806 779 796
f  787 779 806
f  786 787 806
f  786 807 797
f  786 806 807
f  790 782 819
f  790 796 782
f  791 801 783
f  806 796 790
f  806 790 819
f  806 819 791
f  808 791 783
f  803 792 793
f  804 795 794
f  807 794 797
f  805 798 795
f  802 792 803
f  804 805 795
f  804 794 807
f  804 807 805
f  805 808 798
f  805 807 808
f  807 806 808
f  808 783 798
f  809 800 799
f  811 799 801
f  810 828 800
f  806 791 808
f  791 811 801
f  791 836 811
f  809 810 800
f  809 799 811
f  809 811 810
f  810 811 836
f  819 782 812
f  820 814 813
f  821 815 814
f  824 813 817
f  820 821 814
f  821 822 815
f  820 813 824
f  820 822 821
f  820 824 822
f  822 824 823
f  836 812 826
f  822 832 815
f  839 816 829
f  819 812 836
f  791 819 836
f  823 816 839
f  822 823 839
f  822 842 832
f  822 839 842
f  823 818 816
f  825 817 818
f  824 817 825
f  823 825 818
f  823 824 825
f  1085 829 1082
f  839 829 1085
f  839 1085 1086
f  839 1086 1087
f  843 1087 1084
f  837 826 827
f  838 827 828
f  840 831 830
f  842 830 832
f  841 833 831
f  836 826 837
f  810 838 828
f  837 827 838
f  810 836 838
f  836 837 838
f  840 841 831
f  840 830 842
f  841 843 833
f  840 842 841
f  841 842 843
f  842 839 843
f  843 1084 833
f  844 835 834
f  839 1087 843
f  844 845 835
f  856 847 846
f  857 848 847
f  858 868 848
f  860 846 850
f  861 850 851
f  859 851 849
f  856 857 847
f  856 846 860
f  857 858 848
f  856 858 857
f  856 860 858
f  858 859 878
f  859 861 851
f  860 850 861
f  860 859 858
f  860 861 859
f  859 849 879
f  862 853 852
f  863 854 853
f  864 874 854
f  894 852 886
f  865 887 855
f  862 863 853
f  862 852 894
f  863 864 854
f  862 864 863
f  865 895 887
f  862 894 864
f  894 865 864
f  894 895 865
f  865 855 885
f  864 865 884
f  879 849 869
f  858 878 868
f  859 879 878
f  876 867 866
f  878 866 868
f  877 871 867
f  880 869 870
f  881 870 871
f  876 877 867
f  876 866 878
f  876 878 877
f  877 878 879
f  877 881 871
f  879 869 880
f  880 870 881
f  877 879 881
f  879 880 881
f  885 855 875
f  864 884 874
f  865 885 884
f  882 873 872
f  884 872 874
f  883 903 873
f  910 875 902
f  882 883 873
f  884 882 872
f  884 883 882
f  884 885 883
f  883 911 903
f  885 875 910
f  883 885 911
f  885 910 911
f  895 886 887
f  896 889 888
f  897 890 889
f  898 906 890
f  900 888 892
f  899 893 891
f  899 891 907
f  894 886 895
f  896 897 889
f  897 898 890
f  896 898 897
f  896 888 900
f  899 901 893
f  896 900 898
f  898 900 899
f  900 901 899
f  898 899 914
f  901 892 893
f  900 892 901
f  898 914 906
f  899 907 915
f  899 915 914
f  911 902 903
f  912 905 904
f  914 904 906
f  913 909 905
f  916 907 908
f  910 902 911
f  912 913 905
f  912 904 914
f  912 914 913
f  913 917 909
f  915 907 916
f  913 914 915
f  913 915 917
f  915 916 917
f  917 908 909
f  916 908 917
f  930 918 919
f  966 920 943
f  931 922 920
f  930 929 918
f  930 919 932
f  966 931 920
f  930 966 929
f  930 931 966
f  930 932 931
f  932 919 921
f  935 921 924
f  933 923 922
f  934 925 923
f  936 926 925
f  937 927 926
f  939 924 928
f  931 933 922
f  932 921 935
f  933 934 923
f  934 936 925
f  931 932 933
f  932 935 934
f  932 934 933
f  934 935 936
f  935 924 939
f  936 937 926
f  937 938 927
f  939 928 975
f  935 937 936
f  935 939 937
f  939 938 937
f  963 941 940
f  929 940 918
f  964 945 941
f  965 944 942
f  967 943 944
f  963 940 929
f  967 944 965
f  963 929 967
f  963 967 965
f  963 964 941
f  965 942 969
f  963 965 964
f  964 965 968
f  966 943 967
f  929 966 967
f  969 942 946
f  968 947 945
f  971 946 948
f  970 949 947
f  973 948 950
f  972 954 949
f  964 968 945
f  968 970 947
f  968 965 969
f  968 969 970
f  969 946 971
f  969 971 970
f  971 948 973
f  970 972 949
f  973 950 976
f  970 971 972
f  971 973 972
f  972 973 977
f  938 951 927
f  975 928 952
f  974 952 951
f  938 974 951
f  974 975 952
f  938 975 974
f  939 975 938
f  976 950 953
f  978 953 955
f  981 955 958
f  977 960 954
f  979 961 956
f  980 956 957
f  982 958 959
f  984 959 961
f  983 962 960
f  985 957 962
f  972 977 954
f  976 953 978
f  978 955 981
f  977 983 960
f  973 976 977
f  976 978 977
f  978 981 983
f  978 983 977
f  979 956 980
f  979 984 961
f  980 957 985
f  979 980 984
f  981 958 982
f  982 959 984
f  983 985 962
f  981 982 983
f  983 982 985
f  980 985 984
f  982 984 985
f  994 987 986
f  995 988 987
f  998 986 990
f  997 991 989
f  994 995 987
f  995 996 988
f  994 996 995
f  994 997 996
f  994 986 998
f  997 999 991
f  994 998 997
f  997 998 999
f  999 990 991
f  1000 993 992
f  998 990 999
f  1000 1001 993
f  996 1007 988
f  1026 989 1002
f  1027 1004 1003
f  1035 1002 1011
f  997 989 1026
f  996 997 1026
f  996 1026 1027
f  1026 1002 1035
f  1027 1028 1004
f  1027 1003 1032
f  996 1027 1031
f  1026 1028 1027
f  1026 1035 1028
f  1029 1006 1005
f  1031 1005 1007
f  1030 1010 1006
f  1032 1003 1008
f  1033 1008 1009
f  996 1031 1007
f  1029 1030 1006
f  1029 1005 1031
f  1029 1031 1030
f  1031 1027 1032
f  1030 1034 1010
f  1032 1008 1033
f  1031 1032 1034
f  1030 1031 1034
f  1032 1033 1034
f  1028 1012 1004
f  1037 1011 1013
f  1036 1014 1012
f  1040 1013 1016
f  1038 1015 1014
f  1041 1016 1017
f  1035 1011 1037
f  1028 1036 1012
f  1037 1013 1040
f  1036 1038 1014
f  1038 1039 1015
f  1035 1036 1028
f  1035 1037 1036
f  1037 1038 1036
f  1037 1040 1038
f  1038 1040 1039
f  1040 1016 1041
f  1041 1017 1046
f  1040 1041 1039
f  1039 1018 1015
f  1042 1019 1018
f  1043 1021 1019
f  1044 1009 1020
f  1034 1023 1010
f  1045 1020 1021
f  1046 1017 1022
f  1047 1022 1023
f  1048 1025 1024
f  1039 1042 1018
f  1043 1045 1021
f  1042 1043 1019
f  1033 1009 1044
f  1044 1020 1045
f  1034 1047 1023
f  1033 1044 1034
f  1034 1044 1047
f  1044 1045 1047
f  1043 1047 1045
f  1046 1022 1047
f  1039 1041 1042
f  1041 1046 1042
f  1042 1046 1043
f  1043 1046 1047
f  1048 1049 1025
f  1001 1050 993
f  1058 992 1052
f  1057 1053 1051
f  1059 1052 1053
f  1000 992 1058
f  1001 1056 1050
f  1000 1056 1001
f  1000 1058 1056
f  1056 1058 1057
f  1058 1052 1059
f  1057 1059 1053
f  1057 1058 1059
f  1061 1054 1055
f  1060 1054 1061
f  1056 1070 1050
f  1057 1051 1071
f  1056 1057 1071
f  1060 1071 1063
f  1070 1062 1050
f  1071 1051 1063
f  1070 1024 1062
f  1049 1064 1025
f  1072 1065 1064
f  1056 1071 1070
f  1048 1024 1070
f  1049 1072 1064
f  1048 1070 1049
f  1070 1071 1072
f  1049 1070 1072
f  1073 1072 1071
f  1060 1063 1054
f  1073 1068 1065
f  1060 1061 1071
f  1073 1065 1072
f  1061 1073 1071
f  1061 1055 1077
f  1061 1077 1073
f  1074 1067 1066
f  1077 1055 1069
f  1076 1066 1068
f  1075 1079 1067
f  1074 1066 1076
f  1074 1075 1067
f  1074 1076 1075
f  1073 1076 1068
f  1073 1077 1076
f  1077 1069 1080
f  1075 1081 1079
f  1075 1076 1077
f  1075 1077 1081
f  1080 1069 1078
f  1081 1078 1079
f  1080 1078 1081
f  1077 1080 1081
f  1086 1082 1083
f  1085 1082 1086
f  1087 1088 1084
f  1093 1083 1089
f  1086 1083 1093
f  1087 1086 1093
f  1092 834 1088
f  845 1091 835
f  1094 1089 1090
f  1095 1090 1091
f  1087 1092 1088
f  1087 1093 1092
f  844 834 1092
f  1093 1089 1094
f  845 1095 1091
f  844 1092 845
f  845 1092 1093
f  845 1093 1095
f  1094 1090 1095
f  1093 1094 1095
f  1121 1098 1099
f  1122 1099 1100
f  1123 1109 1101
f  1124 1101 1102
f  1125 1102 1103
f  1120 1098 1121
f  1120 1121 1125
f  1122 1121 1099
f  1123 1101 1124
f  1122 1100 1130
f  1122 1124 1121
f  1122 1123 1124
f  1122 1130 1123
f  1125 1124 1102
f  1121 1124 1125
f  1120 1104 1098
f  1126 1106 1104
f  1127 1103 1105
f  1129 1105 1107
f  1128 1184 1106
f  1197 1107 1185
f  1120 1126 1104
f  1125 1103 1127
f  1127 1105 1129
f  1120 1127 1126
f  1120 1125 1127
f  1126 1127 1128
f  1126 1128 1106
f  1128 1196 1184
f  1128 1127 1129
f  1128 1129 1196
f  1129 1107 1197
f  1129 1197 1196
f  1130 1100 1108
f  1131 1110 1109
f  1133 1108 1111
f  1132 1112 1110
f  1134 1113 1112
f  1135 1115 1113
f  1136 1111 1114
f  1137 1116 1115
f  1139 1114 1117
f  1138 1117 1116
f  1123 1131 1109
f  1130 1108 1133
f  1131 1132 1110
f  1132 1134 1112
f  1123 1130 1131
f  1130 1132 1131
f  1130 1133 1132
f  1132 1133 1134
f  1133 1111 1136
f  1134 1135 1113
f  1133 1135 1134
f  1133 1136 1135
f  1135 1136 1137
f  1135 1137 1115
f  1137 1138 1116
f  1136 1114 1139
f  1138 1139 1117
f  1137 1139 1138
f  1136 1139 1137
f  1140 1194 1118
f  1141 1118 1119
f  1140 1118 1141
f  1140 1141 1206
f  1163 1143 1142
f  1164 1144 1143
f  1170 1142 1149
f  1166 1150 1145
f  1167 1145 1146
f  1163 1164 1143
f  1164 1165 1144
f  1163 1165 1164
f  1163 1166 1165
f  1163 1142 1170
f  1166 1171 1150
f  1163 1170 1166
f  1166 1170 1171
f  1166 1145 1167
f  1165 1166 1167
f  1165 1167 1168
f  1165 1222 1144
f  1168 1148 1147
f  1174 1146 1153
f  1234 1147 1223
f  1165 1233 1222
f  1167 1146 1174
f  1168 1169 1148
f  1165 1168 1233
f  1167 1169 1168
f  1167 1174 1169
f  1168 1147 1234
f  1168 1234 1233
f  1171 1149 1150
f  1172 1152 1151
f  1170 1149 1171
f  1172 1173 1152
f  1176 1153 1155
f  1169 1154 1148
f  1175 1156 1154
f  1181 1155 1160
f  1177 1157 1156
f  1178 1158 1157
f  1179 1159 1158
f  1182 1160 1161
f  1183 1161 1162
f  1174 1153 1176
f  1169 1175 1154
f  1176 1155 1181
f  1175 1177 1156
f  1177 1178 1157
f  1174 1175 1169
f  1174 1176 1175
f  1175 1176 1177
f  1176 1181 1177
f  1177 1181 1178
f  1178 1179 1158
f  1179 1180 1159
f  1181 1160 1182
f  1181 1182 1178
f  1182 1161 1183
f  1183 1162 1239
f  1178 1182 1179
f  1182 1183 1179
f  1179 1183 1180
f  1180 1183 1239
f  1196 1186 1184
f  1199 1185 1187
f  1198 1189 1186
f  1197 1185 1199
f  1196 1198 1186
f  1199 1187 1200
f  1197 1198 1196
f  1197 1199 1198
f  1198 1199 1201
f  1200 1187 1188
f  1203 1190 1191
f  1202 1188 1190
f  1201 1193 1189
f  1204 1191 1192
f  1206 1192 1194
f  1205 1195 1193
f  1207 1119 1195
f  1198 1201 1189
f  1202 1190 1203
f  1200 1188 1202
f  1201 1205 1193
f  1199 1200 1201
f  1200 1202 1201
f  1201 1202 1205
f  1202 1203 1205
f  1203 1191 1204
f  1204 1192 1206
f  1140 1206 1194
f  1141 1119 1207
f  1205 1207 1195
f  1203 1204 1205
f  1204 1207 1205
f  1141 1207 1206
f  1204 1206 1207
f  1214 649 1208
f  1216 1208 1210
f  1214 1208 1216
f  1215 1214 1216
f  1215 1210 1209
f  654 1214 1215
f  1215 1216 1210
f  1218 1211 1212
f  1250 1218 1212
f  1217 1211 1218
f  1217 1218 1219
f  1218 1251 1219
f  1231 1221 1220
f  1233 1220 1222
f  1232 1225 1221
f  1235 1223 1224
f  1231 1232 1221
f  1231 1220 1233
f  1231 1233 1232
f  1232 1236 1225
f  1234 1223 1235
f  1232 1233 1236
f  1233 1234 1236
f  1234 1235 1236
f  1237 1224 1226
f  1236 1228 1225
f  1238 1226 1227
f  1180 1227 1159
f  1239 1162 1228
f  1240 1230 1229
f  1235 1224 1237
f  1237 1226 1238
f  1180 1238 1227
f  1236 1239 1228
f  1235 1237 1236
f  1236 1237 1239
f  1237 1238 1239
f  1180 1239 1238
f  1240 1241 1230
f  1253 1242 1245
f  1250 1242 1253
f  1250 1253 1252
f  1250 1212 1242
f  1251 1244 1243
f  1219 1243 1213
f  1252 1247 1244
f  1252 1244 1251
f  1250 1251 1218
f  1250 1252 1251
f  1251 1243 1219
f  1254 1245 1246
f  1253 1245 1254
f  1252 1253 1255
f  1253 1256 1255
f  1253 1254 1256
f  1256 1254 1257
f  1255 1248 1247
f  1256 1249 1248
f  1257 1287 1249
f  1252 1255 1247
f  1255 1256 1248
f  1256 1257 1249
f  1257 1300 1287
f  1254 1300 1257
f  1173 1258 1152
f  1267 1151 1260
f  1266 1261 1259
f  1268 1260 1261
f  1172 1151 1267
f  1173 1265 1258
f  1172 1265 1173
f  1172 1267 1265
f  1265 1267 1266
f  1266 1259 1280
f  1265 1266 1280
f  1266 1268 1261
f  1267 1260 1268
f  1266 1267 1268
f  1279 1272 1258
f  1280 1259 1273
f  1281 1264 1274
f  1265 1279 1258
f  1265 1280 1279
f  1269 1280 1273
f  1271 1281 1280
f  1269 1273 1262
f  1270 1262 1263
f  1269 1270 1280
f  1269 1262 1270
f  1270 1263 1285
f  1271 1277 1264
f  1285 1263 1278
f  1271 1264 1281
f  1271 1280 1270
f  1271 1270 1285
f  1271 1284 1277
f  1271 1285 1284
f  1279 1229 1272
f  1241 1274 1230
f  1240 1229 1279
f  1241 1281 1274
f  1240 1279 1241
f  1241 1279 1281
f  1279 1280 1281
f  1282 1276 1275
f  1284 1275 1277
f  1283 1313 1276
f  1282 1283 1276
f  1282 1275 1284
f  1282 1284 1283
f  1283 1315 1313
f  1285 1278 1314
f  1283 1284 1285
f  1283 1285 1315
f  1299 1246 1286
f  1254 1246 1299
f  1300 1288 1287
f  1301 1289 1288
f  1302 1290 1289
f  1303 1286 1290
f  1300 1301 1288
f  1254 1299 1300
f  1300 1299 1301
f  1299 1303 1301
f  1301 1302 1289
f  1302 1303 1290
f  1301 1303 1302
f  1299 1286 1303
f  1305 1291 1292
f  1328 1292 1316
f  1304 1291 1305
f  1304 1305 1309
f  1305 1292 1328
f  1305 1311 1310
f  1305 1328 1311
f  1307 1294 1291
f  1306 1296 1293
f  1307 1295 1294
f  1308 1293 1295
f  1309 1297 1296
f  1310 1298 1297
f  1311 1318 1298
f  1304 1307 1291
f  1306 1293 1308
f  1304 1306 1307
f  1304 1309 1306
f  1307 1308 1295
f  1306 1308 1307
f  1306 1309 1296
f  1309 1310 1297
f  1310 1311 1298
f  1305 1310 1309
f  1314 1278 1312
f  1315 1312 1313
f  1314 1312 1315
f  1285 1314 1315
f  1329 1316 1317
f  1328 1316 1329
f  1311 1328 1330
f  1328 1331 1330
f  1328 1329 1331
f  1329 1317 1336
f  1330 1319 1318
f  1331 1320 1319
f  1336 1317 1324
f  1332 1321 1320
f  1333 1322 1321
f  1311 1330 1318
f  1330 1331 1319
f  1331 1332 1320
f  1332 1333 1321
f  1331 1329 1332
f  1329 1336 1332
f  1336 1333 1332
f  1333 1334 1322
f  1335 1327 1323
f  1337 1324 1325
f  1338 1325 1326
f  1336 1324 1337
f  1336 1337 1333
f  1337 1325 1338
f  1338 1326 1435
f  1333 1337 1334
f  1334 1337 1338
f  1335 1339 1327
f  1215 1209 1352
f  1352 1209 1348
f  1215 1352 714
f  1217 1340 1211
f  1344 1342 1340
f  1345 1213 1341
f  1217 1344 1340
f  1345 1219 1213
f  1217 1219 1345
f  1217 1345 1344
f  1345 1341 1347
f  1344 1345 1346
f  1347 1341 1343
f  1346 1351 1342
f  1344 1346 1342
f  1345 1347 1346
f  1346 1355 1351
f  1346 1347 1355
f  1355 1347 1357
f  1353 1348 1349
f  1354 1349 1350
f  713 1354 1350
f  713 1352 1354
f  1352 1348 1353
f  1353 1349 1354
f  1352 1353 1354
f  1355 1358 1351
f  1357 1343 1356
f  1347 1343 1357
f  1367 1356 1359
f  1366 1362 1358
f  1355 1366 1358
f  1357 1356 1367
f  1355 1357 1366
f  1357 1367 1366
f  1367 1359 1368
f  1366 1367 1370
f  1366 1370 1362
f  1368 1359 1360
f  1369 1360 1361
f  1370 1365 1362
f  1371 1361 1363
f  1372 1363 1364
f  1368 1360 1369
f  1367 1368 1370
f  1370 1368 1369
f  1369 1361 1371
f  1372 1371 1363
f  1369 1371 1373
f  1372 1373 1371
f  1370 1373 1365
f  1370 1369 1373
f  1381 1374 1375
f  1380 1386 1374
f  1380 1374 1381
f  1381 1375 1397
f  1380 1381 1396
f  1382 1377 1376
f  1383 1407 1377
f  1382 1376 1423
f  1382 1383 1377
f  1382 1423 1383
f  1385 1378 1379
f  1384 1378 1385
f  1385 1379 1400
f  1384 1385 1400
f  1396 1364 1386
f  1397 1375 1387
f  1373 1387 1365
f  1372 1364 1396
f  1380 1396 1386
f  1372 1397 1373
f  1372 1396 1397
f  1381 1397 1396
f  1373 1397 1387
f  1384 1388 1378
f  1400 1379 1390
f  1398 1389 1388
f  1401 1390 1391
f  1402 1391 1392
f  1403 1392 1393
f  1399 1394 1389
f  1404 1395 1394
f  1405 1442 1395
f  1384 1398 1388
f  1384 1400 1398
f  1400 1399 1398
f  1398 1399 1389
f  1400 1390 1401
f  1401 1391 1402
f  1402 1392 1403
f  1400 1401 1399
f  1401 1402 1404
f  1402 1403 1405
f  1399 1404 1394
f  1404 1405 1395
f  1399 1401 1404
f  1402 1405 1404
f  1403 1448 1405
f  1423 1376 1406
f  1428 1406 1411
f  1424 1414 1407
f  1334 1409 1322
f  1426 1410 1409
f  1427 1411 1410
f  1425 1412 1408
f  1430 1408 1413
f  1383 1424 1407
f  1423 1406 1428
f  1424 1431 1414
f  1423 1424 1383
f  1423 1428 1425
f  1423 1425 1431
f  1423 1431 1424
f  1334 1426 1409
f  1427 1410 1426
f  1427 1426 1436
f  1428 1411 1427
f  1425 1408 1430
f  1429 1412 1425
f  1430 1413 1437
f  1428 1427 1429
f  1428 1429 1425
f  1425 1430 1431
f  1427 1436 1429
f  1431 1415 1414
f  1432 1416 1415
f  1433 1417 1416
f  1434 1444 1417
f  1431 1432 1415
f  1432 1433 1416
f  1431 1430 1432
f  1432 1430 1437
f  1432 1437 1433
f  1433 1438 1434
f  1433 1434 1417
f  1434 1450 1444
f  1434 1439 1450
f  1435 1326 1418
f  1436 1418 1419
f  1429 1419 1412
f  1435 1418 1436
f  1334 1435 1426
f  1426 1435 1436
f  1334 1338 1435
f  1429 1436 1419
f  1437 1413 1420
f  1438 1420 1421
f  1439 1421 1422
f  1437 1420 1438
f  1438 1421 1439
f  1433 1437 1438
f  1451 1439 1422
f  1434 1438 1439
f  1446 1393 1440
f  1447 1440 1441
f  1448 1445 1442
f  1450 1443 1444
f  1449 1441 1443
f  1403 1393 1446
f  1446 1440 1447
f  1449 1447 1441
f  1403 1446 1448
f  1446 1447 1448
f  1405 1448 1442
f  1449 1443 1450
f  1448 1451 1445
f  1448 1447 1451
f  1449 1451 1447
f  1449 1450 1451
f  1451 1422 1445
f  1450 1439 1451
f  1335 1323 1462
f  1339 1453 1327
f  1458 1452 1454
f  1456 1461 1452
f  1457 1464 1453
f  1459 1454 1455
f  1456 1452 1458
f  1335 1456 1339
f  1339 1456 1457
f  1339 1457 1453
f  1456 1458 1457
f  1335 1462 1456
f  1458 1454 1459
f  1458 1459 1457
f  1457 1459 1476
f  1462 1323 1460
f  1459 1455 1480
f  1456 1463 1461
f  1462 1463 1456
f  1463 1460 1461
f  1462 1460 1463
f  1457 1476 1464
f  1478 1465 1466
f  1477 1465 1478
f  1478 1466 1500
f  1477 1478 1500
f  1476 1467 1464
f  1480 1455 1468
f  1479 1469 1467
f  1481 1472 1469
f  1482 1468 1470
f  1483 1470 1471
f  1515 1471 1512
f  1476 1479 1467
f  1480 1468 1482
f  1459 1480 1476
f  1476 1480 1479
f  1480 1482 1479
f  1479 1481 1469
f  1481 1484 1472
f  1479 1482 1481
f  1482 1470 1483
f  1483 1471 1515
f  1481 1482 1483
f  1481 1483 1484
f  1484 1483 1515
f  1484 1473 1472
f  1485 1474 1473
f  1486 1475 1474
f  1484 1485 1473
f  1484 1515 1485
f  1485 1515 1516
f  1485 1516 1486
f  1485 1486 1474
f  1486 1487 1475
f  1516 1517 1486
f  1486 1519 1487
f  1486 1517 1519
f  1477 1490 1465
f  1500 1466 1488
f  1501 1488 1489
f  1502 1494 1490
f  1503 1489 1491
f  1504 1491 1492
f  1505 1492 1493
f  1506 1495 1494
f  1477 1502 1490
f  1500 1488 1501
f  1477 1500 1502
f  1500 1501 1502
f  1502 1501 1506
f  1502 1506 1494
f  1501 1489 1503
f  1503 1491 1504
f  1504 1492 1505
f  1501 1503 1506
f  1503 1504 1506
f  1504 1505 1507
f  1506 1507 1495
f  1506 1504 1507
f  1509 1493 1497
f  1508 1497 1496
f  1507 1498 1495
f  1487 1496 1475
f  1511 1518 1499
f  1510 1499 1498
f  1505 1493 1509
f  1508 1509 1497
f  1505 1509 1507
f  1508 1510 1509
f  1507 1510 1498
f  1507 1509 1510
f  1508 1496 1487
f  1510 1511 1499
f  1508 1487 1511
f  1508 1511 1510
f  1487 1519 1511
f  1516 1512 1513
f  1517 1513 1514
f  1519 1514 1518
f  1515 1512 1516
f  1516 1513 1517
f  1517 1514 1519
f  1519 1518 1511
