# OpenSCAD obj exporter
v 0 0 0
v 0 0 0.8
v 0.496361 0.285714 0.8
v 0.496361 0.290849 0.8
v 0.456739 0.41049 0.8
v 0.456739 0.415624 0.8
v 0.471366 0.40797 0.8
v 0.494229 0.40797 0.8
v 0.496361 0.285714 1
v 0.496361 0.290849 1
v 0.456739 0.41049 1
v 0.456739 0.415624 1
v 0.471366 0.40797 1
v 0.494229 0.40797 1
v 0.516995 0.293464 0.8
v 0.535692 0.293464 0.8
v 0.556326 0.285714 0.8
v 0.556326 0.290849 0.8
v 0.516995 0.336283 0.8
v 0.535692 0.336864 0.8
v 0.531526 0.348004 0.8
v 0.511666 0.41049 0.8
v 0.511666 0.415624 0.8
v 0.550514 0.41049 0.8
v 0.550514 0.415624 0.8
v 0.566982 0.40797 0.8
v 0.578511 0.40797 0.8
v 0.592751 0.41049 0.8
v 0.592751 0.415624 0.8
v 0.600026 0.41049 0.8
v 0.600026 0.415624 0.8
v 0.614654 0.40797 0.8
v 0.639648 0.285714 0.8
v 0.639648 0.290849 0.8
v 0.660282 0.293464 0.8
v 0.678979 0.293464 0.8
v 0.660282 0.336283 0.8
v 0.678979 0.336864 0.8
v 0.674814 0.348004 0.8
v 0.699614 0.285714 0.8
v 0.699614 0.290849 0.8
v 0.637516 0.40797 0.8
v 0.654954 0.41049 0.8
v 0.654954 0.415624 0.8
v 0.693801 0.41049 0.8
v 0.693801 0.415624 0.8
v 0.710269 0.40797 0.8
v 0.721798 0.40797 0.8
v 0.736038 0.41049 0.8
v 0.741279 0.41049 0.8
v 0.736038 0.415624 0.8
v 0.741279 0.415624 0.8
v 0.516995 0.293464 1
v 0.535692 0.293464 1
v 0.556326 0.285714 1
v 0.556326 0.290849 1
v 0.516995 0.336283 1
v 0.535692 0.336864 1
v 0.531526 0.348004 1
v 0.511666 0.41049 1
v 0.511666 0.415624 1
v 0.550514 0.41049 1
v 0.550514 0.415624 1
v 0.566982 0.40797 1
v 0.578511 0.40797 1
v 0.592751 0.41049 1
v 0.592751 0.415624 1
v 0.600026 0.41049 1
v 0.600026 0.415624 1
v 0.614654 0.40797 1
v 0.639648 0.285714 1
v 0.639648 0.290849 1
v 0.660282 0.293464 1
v 0.678979 0.293464 1
v 0.660282 0.336283 1
v 0.678979 0.336864 1
v 0.674814 0.348004 1
v 0.699614 0.285714 1
v 0.699614 0.290849 1
v 0.637516 0.40797 1
v 0.654954 0.41049 1
v 0.654954 0.415624 1
v 0.693801 0.41049 1
v 0.693801 0.415624 1
v 0.710269 0.40797 1
v 0.721798 0.40797 1
v 0.736038 0.41049 1
v 0.741279 0.41049 1
v 0.736038 0.415624 1
v 0.741279 0.415624 1
v 0.795625 0.282711 0.8
v 0.800761 0.282711 0.8
v 0.802698 0.316424 0.8
v 0.869056 0.282711 0.8
v 0.874191 0.282711 0.8
v 0.835345 0.372224 0.8
v 0.752614 0.40797 0.8
v 0.771795 0.40797 0.8
v 0.790879 0.41049 0.8
v 0.790879 0.415624 0.8
v 0.837669 0.406517 0.8
v 0.842029 0.406517 0.8
v 0.875741 0.316424 0.8
v 0.982896 0.282711 0.8
v 0.988032 0.282711 0.8
v 0.989969 0.316424 0.8
v 0.884945 0.41049 0.8
v 0.884945 0.415624 0.8
v 0.905191 0.40797 0.8
v 0.916622 0.40797 0.8
v 0.927956 0.41049 0.8
v 0.928551 0.41049 0.8
v 0.927956 0.415624 0.8
v 0.928551 0.415624 0.8
v 0.939885 0.40797 0.8
v 0.959066 0.40797 0.8
v 0.978151 0.41049 0.8
v 0.978151 0.415624 0.8
v 0.795625 0.282711 1
v 0.800761 0.282711 1
v 0.802698 0.316424 1
v 0.869056 0.282711 1
v 0.874191 0.282711 1
v 0.835345 0.372224 1
v 0.752614 0.40797 1
v 0.771795 0.40797 1
v 0.790879 0.41049 1
v 0.790879 0.415624 1
v 0.837669 0.406517 1
v 0.842029 0.406517 1
v 0.875741 0.316424 1
v 0.982896 0.282711 1
v 0.988032 0.282711 1
v 0.989969 0.316424 1
v 0.884945 0.41049 1
v 0.884945 0.415624 1
v 0.905191 0.40797 1
v 0.916622 0.40797 1
v 0.927956 0.41049 1
v 0.928551 0.41049 1
v 0.927956 0.415624 1
v 0.928551 0.415624 1
v 0.939885 0.40797 1
v 0.959066 0.40797 1
v 0.978151 0.41049 1
v 0.978151 0.415624 1
v 0.622163 0.920596 0.8
v 0.639794 0.8724 0.8
v 0.660913 0.859504 0.8
v 0.669063 0.866394 0.8
v 0.689007 0.855206 0.8
v 0.689201 0.862664 0.8
v 0.69993 0.86333 0.8
v 0.712717 0.856731 0.8
v 0.710029 0.865329 0.8
v 0.718796 0.868441 0.8
v 0.725529 0.872449 0.8
v 0.734829 0.861309 0.8
v 0.626571 0.893047 0.8
v 0.654374 0.877583 0.8
v 0.645401 0.895845 0.8
v 0.64241 0.92079 0.8
v 0.626401 0.950034 0.8
v 0.645268 0.947479 0.8
v 0.653841 0.966127 0.8
v 0.639116 0.97131 0.8
v 0.660163 0.984207 0.8
v 0.668639 0.977099 0.8
v 0.729113 0.891824 0.8
v 0.73541 0.891824 0.8
v 0.69017 0.980756 0.8
v 0.699385 0.980186 0.8
v 0.689394 0.988506 0.8
v 0.70843 0.978479 0.8
v 0.716846 0.97573 0.8
v 0.710392 0.98727 0.8
v 0.727079 0.95518 0.8
v 0.733473 0.95518 0.8
v 0.724173 0.972037 0.8
v 0.732891 0.983564 0.8
v 0.622163 0.920596 1
v 0.639794 0.8724 1
v 0.660913 0.859504 1
v 0.669063 0.866394 1
v 0.689007 0.855206 1
v 0.689201 0.862664 1
v 0.69993 0.86333 1
v 0.712717 0.856731 1
v 0.710029 0.865329 1
v 0.718796 0.868441 1
v 0.725529 0.872449 1
v 0.734829 0.861309 1
v 0.626571 0.893047 1
v 0.654374 0.877583 1
v 0.645401 0.895845 1
v 0.64241 0.92079 1
v 0.626401 0.950034 1
v 0.645268 0.947479 1
v 0.653841 0.966127 1
v 0.639116 0.97131 1
v 0.660163 0.984207 1
v 0.668639 0.977099 1
v 0.729113 0.891824 1
v 0.73541 0.891824 1
v 0.69017 0.980756 1
v 0.699385 0.980186 1
v 0.689394 0.988506 1
v 0.70843 0.978479 1
v 0.716846 0.97573 1
v 0.710392 0.98727 1
v 0.727079 0.95518 1
v 0.733473 0.95518 1
v 0.724173 0.972037 1
v 0.732891 0.983564 1
v 0.80895 0.571429 0.8
v 0.80895 0.576563 0.8
v 0.825613 0.579179 0.8
v 0.844213 0.579179 0.8
v 0.860876 0.571429 0.8
v 0.860876 0.576563 0.8
v 0.80895 0.696204 0.8
v 0.80895 0.701339 0.8
v 0.825613 0.693684 0.8
v 0.844213 0.693684 0.8
v 0.860876 0.696204 0.8
v 0.860876 0.701339 0.8
v 0.875023 0.571429 0.8
v 0.875023 0.576563 0.8
v 0.891686 0.579179 0.8
v 0.910286 0.579179 0.8
v 0.926949 0.571429 0.8
v 0.926949 0.576563 0.8
v 0.941096 0.571429 0.8
v 0.941096 0.576563 0.8
v 0.957759 0.579179 0.8
v 0.976359 0.579179 0.8
v 0.993021 0.571429 0.8
v 0.993021 0.576563 0.8
v 0.875023 0.696204 0.8
v 0.875023 0.701339 0.8
v 0.891686 0.693684 0.8
v 0.910286 0.693684 0.8
v 0.926949 0.696204 0.8
v 0.926949 0.701339 0.8
v 0.941096 0.696204 0.8
v 0.941096 0.701339 0.8
v 0.957759 0.693684 0.8
v 0.976359 0.693684 0.8
v 0.993021 0.696204 0.8
v 0.993021 0.701339 0.8
v 0.80895 0.571429 1
v 0.80895 0.576563 1
v 0.825613 0.579179 1
v 0.844213 0.579179 1
v 0.860876 0.571429 1
v 0.860876 0.576563 1
v 0.80895 0.696204 1
v 0.80895 0.701339 1
v 0.825613 0.693684 1
v 0.844213 0.693684 1
v 0.860876 0.696204 1
v 0.860876 0.701339 1
v 0.875023 0.571429 1
v 0.875023 0.576563 1
v 0.891686 0.579179 1
v 0.910286 0.579179 1
v 0.926949 0.571429 1
v 0.926949 0.576563 1
v 0.941096 0.571429 1
v 0.941096 0.576563 1
v 0.957759 0.579179 1
v 0.976359 0.579179 1
v 0.993021 0.571429 1
v 0.993021 0.576563 1
v 0.875023 0.696204 1
v 0.875023 0.701339 1
v 0.891686 0.693684 1
v 0.910286 0.693684 1
v 0.926949 0.696204 1
v 0.926949 0.701339 1
v 0.941096 0.696204 1
v 0.941096 0.701339 1
v 0.957759 0.693684 1
v 0.976359 0.693684 1
v 0.993021 0.696204 1
v 0.993021 0.701339 1
v 0.753341 0.857143 0.8
v 0.753341 0.862277 0.8
v 0.768744 0.864893 0.8
v 0.787441 0.864893 0.8
v 0.808076 0.857143 0.8
v 0.808076 0.862277 0.8
v 0.862429 0.857143 0.8
v 0.862429 0.862277 0.8
v 0.787441 0.908099 0.8
v 0.787441 0.916819 0.8
v 0.802069 0.908099 0.8
v 0.797516 0.916819 0.8
v 0.811744 0.918683 0.8
v 0.752081 0.981919 0.8
v 0.752081 0.987053 0.8
v 0.768744 0.979399 0.8
v 0.787441 0.978333 0.8
v 0.796934 0.978333 0.8
v 0.812022 0.976613 0.8
v 0.8011 0.987053 0.8
v 0.822013 0.91069 0.8
v 0.821686 0.924277 0.8
v 0.827535 0.934086 0.8
v 0.836701 0.918464 0.8
v 0.845748 0.931228 0.8
v 0.827619 0.9623 0.8
v 0.829484 0.948593 0.8
v 0.822024 0.971454 0.8
v 0.836847 0.977486 0.8
v 0.848763 0.948787 0.8
v 0.862429 0.981919 0.8
v 0.862429 0.987053 0.8
v 0.879091 0.864893 0.8
v 0.889263 0.864893 0.8
v 0.9067 0.857143 0.8
v 0.9067 0.862277 0.8
v 0.969379 0.857143 0.8
v 0.978776 0.857143 0.8
v 0.879091 0.979399 0.8
v 0.889263 0.973974 0.8
v 0.90176 0.987053 0.8
v 0.968603 0.890856 0.8
v 0.951166 0.981919 0.8
v 0.951166 0.987053 0.8
v 0.968603 0.979399 0.8
v 0.978776 0.979399 0.8
v 0.995439 0.981919 0.8
v 0.995439 0.987053 0.8
v 0.753341 0.857143 1
v 0.753341 0.862277 1
v 0.768744 0.864893 1
v 0.787441 0.864893 1
v 0.808076 0.857143 1
v 0.808076 0.862277 1
v 0.862429 0.857143 1
v 0.862429 0.862277 1
v 0.787441 0.908099 1
v 0.787441 0.916819 1
v 0.802069 0.908099 1
v 0.797516 0.916819 1
v 0.811744 0.918683 1
v 0.752081 0.981919 1
v 0.752081 0.987053 1
v 0.768744 0.979399 1
v 0.787441 0.978333 1
v 0.796934 0.978333 1
v 0.812022 0.976613 1
v 0.8011 0.987053 1
v 0.822013 0.91069 1
v 0.821686 0.924277 1
v 0.827535 0.934086 1
v 0.836701 0.918464 1
v 0.845748 0.931228 1
v 0.827619 0.9623 1
v 0.829484 0.948593 1
v 0.822024 0.971454 1
v 0.836847 0.977486 1
v 0.848763 0.948787 1
v 0.862429 0.981919 1
v 0.862429 0.987053 1
v 0.879091 0.864893 1
v 0.889263 0.864893 1
v 0.9067 0.857143 1
v 0.9067 0.862277 1
v 0.969379 0.857143 1
v 0.978776 0.857143 1
v 0.879091 0.979399 1
v 0.889263 0.973974 1
v 0.90176 0.987053 1
v 0.968603 0.890856 1
v 0.951166 0.981919 1
v 0.951166 0.987053 1
v 0.968603 0.979399 1
v 0.978776 0.979399 1
v 0.995439 0.981919 1
v 0.995439 0.987053 1
v 0 2 0
v 0.35041 1.42857 0.8
v 0.35041 1.43781 0.8
v 0.430098 1.42857 0.8
v 0.380403 1.44252 0.8
v 0.398711 1.44252 0.8
v 0.430098 1.43781 0.8
v 0.48433 1.42857 0.8
v 0.490432 1.42857 0.8
v 0.497233 1.48455 0.8
v 0.35041 1.42857 1
v 0.35041 1.43781 1
v 0.430098 1.42857 1
v 0.380403 1.44252 1
v 0.398711 1.44252 1
v 0.430098 1.43781 1
v 0.48433 1.42857 1
v 0.490432 1.42857 1
v 0.497233 1.48455 1
v 0 2 0.8
v 0.35041 1.65317 0.8
v 0.35041 1.66241 0.8
v 0.380403 1.64863 0.8
v 0.398711 1.62963 0.8
v 0.421206 1.66241 0.8
v 0.39852 1.71835 0.8
v 0.383484 1.74117 0.8
v 0.421119 1.70266 0.8
v 0.4488 1.69743 0.8
v 0.476479 1.70266 0.8
v 0.499071 1.71835 0.8
v 0.35041 1.65317 1
v 0.35041 1.66241 1
v 0.380403 1.64863 1
v 0.398711 1.62963 1
v 0.421206 1.66241 1
v 0.39852 1.71835 1
v 0.383484 1.74117 1
v 0.421119 1.70266 1
v 0.4488 1.69743 1
v 0.476479 1.70266 1
v 0.499071 1.71835 1
v 0.378471 1.76776 0.8
v 0.383556 1.79508 0.8
v 0.398811 1.81774 0.8
v 0.421483 1.833 0.8
v 0.4488 1.83809 0.8
v 0.476115 1.833 0.8
v 0.49878 1.81774 0.8
v 0.378471 1.76776 1
v 0.383556 1.79508 1
v 0.398811 1.81774 1
v 0.421483 1.833 1
v 0.4488 1.83809 1
v 0.476115 1.833 1
v 0.49878 1.81774 1
v 0.622163 1.20631 0.8
v 0.639794 1.15811 0.8
v 0.626571 1.17876 0.8
v 0.654374 1.1633 0.8
v 0.645401 1.18156 0.8
v 0.660913 1.14522 0.8
v 0.669063 1.15211 0.8
v 0.64241 1.2065 0.8
v 0.626401 1.23575 0.8
v 0.645268 1.23319 0.8
v 0.689007 1.14092 0.8
v 0.689201 1.14838 0.8
v 0.69993 1.14904 0.8
v 0.710029 1.15104 0.8
v 0.712717 1.14245 0.8
v 0.718796 1.15415 0.8
v 0.734829 1.14702 0.8
v 0.725529 1.15816 0.8
v 0.729113 1.17754 0.8
v 0.73541 1.17754 0.8
v 0.727079 1.24089 0.8
v 0.733473 1.24089 0.8
v 0.622163 1.20631 1
v 0.639794 1.15811 1
v 0.626571 1.17876 1
v 0.654374 1.1633 1
v 0.645401 1.18156 1
v 0.660913 1.14522 1
v 0.669063 1.15211 1
v 0.64241 1.2065 1
v 0.626401 1.23575 1
v 0.645268 1.23319 1
v 0.689007 1.14092 1
v 0.689201 1.14838 1
v 0.69993 1.14904 1
v 0.710029 1.15104 1
v 0.712717 1.14245 1
v 0.718796 1.15415 1
v 0.734829 1.14702 1
v 0.725529 1.15816 1
v 0.729113 1.17754 1
v 0.73541 1.17754 1
v 0.727079 1.24089 1
v 0.733473 1.24089 1
v 0.552336 1.42857 0.8
v 0.552336 1.43781 0.8
v 0.583723 1.44252 0.8
v 0.617203 1.44252 0.8
v 0.639116 1.25702 0.8
v 0.653841 1.25184 0.8
v 0.668639 1.26281 0.8
v 0.660163 1.26992 0.8
v 0.69017 1.26647 0.8
v 0.689394 1.27422 0.8
v 0.699385 1.2659 0.8
v 0.70843 1.26419 0.8
v 0.716846 1.26144 0.8
v 0.710392 1.27298 0.8
v 0.724173 1.25775 0.8
v 0.732891 1.26928 0.8
v 0.647196 1.42857 0.8
v 0.647196 1.43781 0.8
v 0.552336 1.42857 1
v 0.552336 1.43781 1
v 0.583723 1.44252 1
v 0.617203 1.44252 1
v 0.639116 1.25702 1
v 0.653841 1.25184 1
v 0.668639 1.26281 1
v 0.660163 1.26992 1
v 0.69017 1.26647 1
v 0.689394 1.27422 1
v 0.699385 1.2659 1
v 0.70843 1.26419 1
v 0.716846 1.26144 1
v 0.710392 1.27298 1
v 0.724173 1.25775 1
v 0.732891 1.26928 1
v 0.647196 1.42857 1
v 0.647196 1.43781 1
v 0.753341 1.14286 0.8
v 0.753341 1.14799 0.8
v 0.768744 1.15061 0.8
v 0.787441 1.15061 0.8
v 0.808076 1.14286 0.8
v 0.808076 1.14799 0.8
v 0.787441 1.19381 0.8
v 0.787441 1.20253 0.8
v 0.802069 1.19381 0.8
v 0.797516 1.20253 0.8
v 0.811744 1.2044 0.8
v 0.862429 1.14286 0.8
v 0.862429 1.14799 0.8
v 0.822013 1.1964 0.8
v 0.821686 1.20999 0.8
v 0.836701 1.20418 0.8
v 0.827535 1.2198 0.8
v 0.827619 1.24801 0.8
v 0.829484 1.23431 0.8
v 0.845748 1.21694 0.8
v 0.848763 1.2345 0.8
v 0.879091 1.15061 0.8
v 0.889263 1.15061 0.8
v 0.9067 1.14286 0.8
v 0.9067 1.14799 0.8
v 0.968603 1.17657 0.8
v 0.969379 1.14286 0.8
v 0.978776 1.14286 0.8
v 0.753341 1.14286 1
v 0.753341 1.14799 1
v 0.768744 1.15061 1
v 0.787441 1.15061 1
v 0.808076 1.14286 1
v 0.808076 1.14799 1
v 0.787441 1.19381 1
v 0.787441 1.20253 1
v 0.802069 1.19381 1
v 0.797516 1.20253 1
v 0.811744 1.2044 1
v 0.862429 1.14286 1
v 0.862429 1.14799 1
v 0.822013 1.1964 1
v 0.821686 1.20999 1
v 0.836701 1.20418 1
v 0.827535 1.2198 1
v 0.827619 1.24801 1
v 0.829484 1.23431 1
v 0.845748 1.21694 1
v 0.848763 1.2345 1
v 0.879091 1.15061 1
v 0.889263 1.15061 1
v 0.9067 1.14286 1
v 0.9067 1.14799 1
v 0.968603 1.17657 1
v 0.969379 1.14286 1
v 0.978776 1.14286 1
v 0.752081 1.26763 0.8
v 0.752081 1.27277 0.8
v 0.768744 1.26511 0.8
v 0.787441 1.26405 0.8
v 0.796934 1.26405 0.8
v 0.812022 1.26233 0.8
v 0.8011 1.27277 0.8
v 0.822024 1.25717 0.8
v 0.836847 1.2632 0.8
v 0.862429 1.26763 0.8
v 0.862429 1.27277 0.8
v 0.759521 1.42857 0.8
v 0.759521 1.43781 0.8
v 0.787246 1.44252 0.8
v 0.858043 1.42857 0.8
v 0.820901 1.44252 0.8
v 0.858043 1.43781 0.8
v 0.879091 1.26511 0.8
v 0.889263 1.25969 0.8
v 0.90176 1.27277 0.8
v 0.951166 1.26763 0.8
v 0.951166 1.27277 0.8
v 0.968603 1.26511 0.8
v 0.978776 1.26511 0.8
v 0.995439 1.26763 0.8
v 0.995439 1.27277 0.8
v 0.958493 1.42857 0.8
v 0.958493 1.43781 0.8
v 0.988486 1.44252 0.8
v 0.752081 1.26763 1
v 0.752081 1.27277 1
v 0.768744 1.26511 1
v 0.787441 1.26405 1
v 0.796934 1.26405 1
v 0.812022 1.26233 1
v 0.8011 1.27277 1
v 0.822024 1.25717 1
v 0.836847 1.2632 1
v 0.862429 1.26763 1
v 0.862429 1.27277 1
v 0.759521 1.42857 1
v 0.759521 1.43781 1
v 0.787246 1.44252 1
v 0.858043 1.42857 1
v 0.820901 1.44252 1
v 0.858043 1.43781 1
v 0.879091 1.26511 1
v 0.889263 1.25969 1
v 0.90176 1.27277 1
v 0.951166 1.26763 1
v 0.951166 1.27277 1
v 0.968603 1.26511 1
v 0.978776 1.26511 1
v 0.995439 1.26763 1
v 0.995439 1.27277 1
v 0.958493 1.42857 1
v 0.958493 1.43781 1
v 0.988486 1.44252 1
v 0.514114 1.74117 0.8
v 0.583723 1.62963 0.8
v 0.580236 1.66241 0.8
v 0.617203 1.64863 0.8
v 0.647196 1.65317 0.8
v 0.647196 1.66241 0.8
v 0.514114 1.74117 1
v 0.583723 1.62963 1
v 0.580236 1.66241 1
v 0.617203 1.64863 1
v 0.647196 1.65317 1
v 0.647196 1.66241 1
v 0.519129 1.76776 0.8
v 0.514041 1.79508 0.8
v 0.519129 1.76776 1
v 0.514041 1.79508 1
v 0.820901 1.52029 0.8
v 0.820901 1.53599 0.8
v 0.839035 1.53599 0.8
v 0.84723 1.52029 0.8
v 0.864646 1.53934 0.8
v 0.757253 1.65317 0.8
v 0.757253 1.66241 0.8
v 0.787246 1.64863 0.8
v 0.820901 1.64671 0.8
v 0.837988 1.64671 0.8
v 0.865147 1.64362 0.8
v 0.845487 1.66241 0.8
v 0.88313 1.52496 0.8
v 0.882541 1.54941 0.8
v 0.909569 1.53895 0.8
v 0.925852 1.56192 0.8
v 0.893069 1.56707 0.8
v 0.896578 1.59318 0.8
v 0.893221 1.61785 0.8
v 0.93128 1.59353 0.8
v 0.88315 1.63433 0.8
v 0.909832 1.64519 0.8
v 0.958493 1.65317 0.8
v 0.958493 1.66241 0.8
v 0.988486 1.64863 0.8
v 0.820901 1.52029 1
v 0.820901 1.53599 1
v 0.839035 1.53599 1
v 0.84723 1.52029 1
v 0.864646 1.53934 1
v 0.757253 1.65317 1
v 0.757253 1.66241 1
v 0.787246 1.64863 1
v 0.820901 1.64671 1
v 0.837988 1.64671 1
v 0.865147 1.64362 1
v 0.845487 1.66241 1
v 0.88313 1.52496 1
v 0.882541 1.54941 1
v 0.909569 1.53895 1
v 0.925852 1.56192 1
v 0.893069 1.56707 1
v 0.896578 1.59318 1
v 0.893221 1.61785 1
v 0.93128 1.59353 1
v 0.88315 1.63433 1
v 0.909832 1.64519 1
v 0.958493 1.65317 1
v 0.958493 1.66241 1
v 0.988486 1.64863 1
v 2 0 0
v 1.05633 0.282711 0.8
v 1.06146 0.282711 0.8
v 1.02262 0.372224 0.8
v 1.12134 0.285714 0.8
v 1.12134 0.290849 0.8
v 1.06301 0.316424 0.8
v 1.02494 0.406517 0.8
v 1.0293 0.406517 0.8
v 1.07222 0.41049 0.8
v 1.07222 0.415624 0.8
v 1.09246 0.40797 0.8
v 1.10389 0.40797 0.8
v 1.11523 0.41049 0.8
v 1.11523 0.415624 0.8
v 1.12134 0.41049 0.8
v 1.12134 0.415624 0.8
v 1.13801 0.293464 0.8
v 1.14818 0.293464 0.8
v 1.16561 0.285714 0.8
v 1.16561 0.290849 0.8
v 1.22829 0.285714 0.8
v 1.23769 0.285714 0.8
v 1.22752 0.319427 0.8
v 1.14818 0.402546 0.8
v 1.13801 0.40797 0.8
v 1.16067 0.415624 0.8
v 1.21008 0.41049 0.8
v 1.21008 0.415624 0.8
v 1.22752 0.40797 0.8
v 1.23769 0.40797 0.8
v 1.05633 0.282711 1
v 1.06146 0.282711 1
v 1.02262 0.372224 1
v 1.12134 0.285714 1
v 1.12134 0.290849 1
v 1.06301 0.316424 1
v 1.02494 0.406517 1
v 1.0293 0.406517 1
v 1.07222 0.41049 1
v 1.07222 0.415624 1
v 1.09246 0.40797 1
v 1.10389 0.40797 1
v 1.11523 0.41049 1
v 1.11523 0.415624 1
v 1.12134 0.41049 1
v 1.12134 0.415624 1
v 1.13801 0.293464 1
v 1.14818 0.293464 1
v 1.16561 0.285714 1
v 1.16561 0.290849 1
v 1.22829 0.285714 1
v 1.23769 0.285714 1
v 1.22752 0.319427 1
v 1.14818 0.402546 1
v 1.13801 0.40797 1
v 1.16067 0.415624 1
v 1.21008 0.41049 1
v 1.21008 0.415624 1
v 1.22752 0.40797 1
v 1.23769 0.40797 1
v 1.26463 0.285714 0.8
v 1.26463 0.290849 0.8
v 1.28129 0.293464 0.8
v 1.29146 0.293464 0.8
v 1.3089 0.285714 0.8
v 1.3089 0.290849 0.8
v 1.37158 0.285714 0.8
v 1.37081 0.319427 0.8
v 1.25435 0.41049 0.8
v 1.25435 0.415624 0.8
v 1.26463 0.41049 0.8
v 1.26463 0.415624 0.8
v 1.29146 0.402546 0.8
v 1.28129 0.40797 0.8
v 1.30396 0.415624 0.8
v 1.35337 0.41049 0.8
v 1.35337 0.415624 0.8
v 1.37081 0.40797 0.8
v 1.38098 0.285714 0.8
v 1.40792 0.285714 0.8
v 1.40792 0.290849 0.8
v 1.42458 0.293464 0.8
v 1.43475 0.293464 0.8
v 1.45219 0.285714 0.8
v 1.45219 0.290849 0.8
v 1.38098 0.40797 0.8
v 1.39764 0.41049 0.8
v 1.39764 0.415624 0.8
v 1.43475 0.402546 0.8
v 1.40792 0.41049 0.8
v 1.40792 0.415624 0.8
v 1.42458 0.40797 0.8
v 1.44725 0.415624 0.8
v 1.49666 0.41049 0.8
v 1.49666 0.415624 0.8
v 1.26463 0.285714 1
v 1.26463 0.290849 1
v 1.28129 0.293464 1
v 1.29146 0.293464 1
v 1.3089 0.285714 1
v 1.3089 0.290849 1
v 1.37158 0.285714 1
v 1.37081 0.319427 1
v 1.25435 0.41049 1
v 1.25435 0.415624 1
v 1.26463 0.41049 1
v 1.26463 0.415624 1
v 1.29146 0.402546 1
v 1.28129 0.40797 1
v 1.30396 0.415624 1
v 1.35337 0.41049 1
v 1.35337 0.415624 1
v 1.37081 0.40797 1
v 1.38098 0.285714 1
v 1.40792 0.285714 1
v 1.40792 0.290849 1
v 1.42458 0.293464 1
v 1.43475 0.293464 1
v 1.45219 0.285714 1
v 1.45219 0.290849 1
v 1.38098 0.40797 1
v 1.39764 0.41049 1
v 1.39764 0.415624 1
v 1.43475 0.402546 1
v 1.40792 0.41049 1
v 1.40792 0.415624 1
v 1.42458 0.40797 1
v 1.44725 0.415624 1
v 1.49666 0.41049 1
v 1.49666 0.415624 1
v 1.00717 0.571429 0.8
v 1.00717 0.576563 0.8
v 1.02383 0.579179 0.8
v 1.04243 0.579179 0.8
v 1.05909 0.571429 0.8
v 1.05909 0.576563 0.8
v 1.07324 0.571429 0.8
v 1.07324 0.576563 0.8
v 1.0899 0.579179 0.8
v 1.1085 0.579179 0.8
v 1.00717 0.696204 0.8
v 1.00717 0.701339 0.8
v 1.02383 0.693684 0.8
v 1.04243 0.693684 0.8
v 1.05909 0.696204 0.8
v 1.05909 0.701339 0.8
v 1.07324 0.696204 0.8
v 1.07324 0.701339 0.8
v 1.0899 0.693684 0.8
v 1.1085 0.693684 0.8
v 1.12517 0.571429 0.8
v 1.12517 0.576563 0.8
v 1.13931 0.571429 0.8
v 1.13931 0.576563 0.8
v 1.15598 0.579179 0.8
v 1.17458 0.579179 0.8
v 1.19124 0.571429 0.8
v 1.19124 0.576563 0.8
v 1.12517 0.696204 0.8
v 1.12517 0.701339 0.8
v 1.13931 0.696204 0.8
v 1.13931 0.701339 0.8
v 1.15598 0.693684 0.8
v 1.17458 0.693684 0.8
v 1.19124 0.696204 0.8
v 1.19124 0.701339 0.8
v 1.00717 0.571429 1
v 1.00717 0.576563 1
v 1.02383 0.579179 1
v 1.04243 0.579179 1
v 1.05909 0.571429 1
v 1.05909 0.576563 1
v 1.07324 0.571429 1
v 1.07324 0.576563 1
v 1.0899 0.579179 1
v 1.1085 0.579179 1
v 1.00717 0.696204 1
v 1.00717 0.701339 1
v 1.02383 0.693684 1
v 1.04243 0.693684 1
v 1.05909 0.696204 1
v 1.05909 0.701339 1
v 1.07324 0.696204 1
v 1.07324 0.701339 1
v 1.0899 0.693684 1
v 1.1085 0.693684 1
v 1.12517 0.571429 1
v 1.12517 0.576563 1
v 1.13931 0.571429 1
v 1.13931 0.576563 1
v 1.15598 0.579179 1
v 1.17458 0.579179 1
v 1.19124 0.571429 1
v 1.19124 0.576563 1
v 1.12517 0.696204 1
v 1.12517 0.701339 1
v 1.13931 0.696204 1
v 1.13931 0.701339 1
v 1.15598 0.693684 1
v 1.17458 0.693684 1
v 1.19124 0.696204 1
v 1.19124 0.701339 1
v 1.02577 0.8724 0.8
v 1.04689 0.859504 0.8
v 1.05504 0.866394 0.8
v 1.07498 0.855206 0.8
v 1.07518 0.862664 0.8
v 1.0859 0.86333 0.8
v 1.09869 0.856731 0.8
v 1.096 0.865329 0.8
v 1.10477 0.868441 0.8
v 1.1115 0.872449 0.8
v 1.1208 0.861309 0.8
v 1.01254 0.893047 0.8
v 1.00814 0.920596 0.8
v 1.02838 0.92079 0.8
v 1.04035 0.877583 0.8
v 1.03138 0.895845 0.8
v 1.01238 0.950034 0.8
v 1.03124 0.947479 0.8
v 1.02509 0.97131 0.8
v 1.03982 0.966127 0.8
v 1.04614 0.984207 0.8
v 1.05461 0.977099 0.8
v 1.11509 0.891824 0.8
v 1.12138 0.891824 0.8
v 1.07614 0.980756 0.8
v 1.07537 0.988506 0.8
v 1.08536 0.980186 0.8
v 1.11305 0.95518 0.8
v 1.11945 0.95518 0.8
v 1.0944 0.978479 0.8
v 1.10282 0.97573 0.8
v 1.09637 0.98727 0.8
v 1.11015 0.972037 0.8
v 1.11887 0.983564 0.8
v 1.13932 0.857143 0.8
v 1.13932 0.862277 0.8
v 1.15472 0.864893 0.8
v 1.17342 0.864893 0.8
v 1.19405 0.857143 0.8
v 1.19405 0.862277 0.8
v 1.2484 0.857143 0.8
v 1.2484 0.862277 0.8
v 1.17342 0.908099 0.8
v 1.17342 0.916819 0.8
v 1.18349 0.916819 0.8
v 1.13806 0.981919 0.8
v 1.13806 0.987053 0.8
v 1.15472 0.979399 0.8
v 1.17342 0.978333 0.8
v 1.18291 0.978333 0.8
v 1.18707 0.987053 0.8
v 1.18804 0.908099 0.8
v 1.19772 0.918683 0.8
v 1.20799 0.91069 0.8
v 1.20766 0.924277 0.8
v 1.21351 0.934086 0.8
v 1.22268 0.918464 0.8
v 1.23172 0.931228 0.8
v 1.21546 0.948593 0.8
v 1.21359 0.9623 0.8
v 1.198 0.976613 0.8
v 1.208 0.971454 0.8
v 1.23474 0.948787 0.8
v 1.22282 0.977486 0.8
v 1.2484 0.981919 0.8
v 1.2484 0.987053 0.8
v 1.02577 0.8724 1
v 1.04689 0.859504 1
v 1.05504 0.866394 1
v 1.07498 0.855206 1
v 1.07518 0.862664 1
v 1.0859 0.86333 1
v 1.09869 0.856731 1
v 1.096 0.865329 1
v 1.10477 0.868441 1
v 1.1115 0.872449 1
v 1.1208 0.861309 1
v 1.01254 0.893047 1
v 1.00814 0.920596 1
v 1.02838 0.92079 1
v 1.04035 0.877583 1
v 1.03138 0.895845 1
v 1.01238 0.950034 1
v 1.03124 0.947479 1
v 1.02509 0.97131 1
v 1.03982 0.966127 1
v 1.04614 0.984207 1
v 1.05461 0.977099 1
v 1.11509 0.891824 1
v 1.12138 0.891824 1
v 1.07614 0.980756 1
v 1.07537 0.988506 1
v 1.08536 0.980186 1
v 1.11305 0.95518 1
v 1.11945 0.95518 1
v 1.0944 0.978479 1
v 1.10282 0.97573 1
v 1.09637 0.98727 1
v 1.11015 0.972037 1
v 1.11887 0.983564 1
v 1.13932 0.857143 1
v 1.13932 0.862277 1
v 1.15472 0.864893 1
v 1.17342 0.864893 1
v 1.19405 0.857143 1
v 1.19405 0.862277 1
v 1.2484 0.857143 1
v 1.2484 0.862277 1
v 1.17342 0.908099 1
v 1.17342 0.916819 1
v 1.18349 0.916819 1
v 1.13806 0.981919 1
v 1.13806 0.987053 1
v 1.15472 0.979399 1
v 1.17342 0.978333 1
v 1.18291 0.978333 1
v 1.18707 0.987053 1
v 1.18804 0.908099 1
v 1.19772 0.918683 1
v 1.20799 0.91069 1
v 1.20766 0.924277 1
v 1.21351 0.934086 1
v 1.22268 0.918464 1
v 1.23172 0.931228 1
v 1.21546 0.948593 1
v 1.21359 0.9623 1
v 1.198 0.976613 1
v 1.208 0.971454 1
v 1.23474 0.948787 1
v 1.22282 0.977486 1
v 1.2484 0.981919 1
v 1.2484 0.987053 1
v 1.26507 0.864893 0.8
v 1.27524 0.864893 0.8
v 1.29267 0.857143 0.8
v 1.29267 0.862277 0.8
v 1.35535 0.857143 0.8
v 1.36475 0.857143 0.8
v 1.26507 0.979399 0.8
v 1.27524 0.973974 0.8
v 1.28773 0.987053 0.8
v 1.35458 0.890856 0.8
v 1.33714 0.981919 0.8
v 1.33714 0.987053 0.8
v 1.35458 0.979399 0.8
v 1.36475 0.979399 0.8
v 1.38141 0.981919 0.8
v 1.38141 0.987053 0.8
v 1.26507 0.864893 1
v 1.27524 0.864893 1
v 1.29267 0.857143 1
v 1.29267 0.862277 1
v 1.35535 0.857143 1
v 1.36475 0.857143 1
v 1.26507 0.979399 1
v 1.27524 0.973974 1
v 1.28773 0.987053 1
v 1.35458 0.890856 1
v 1.33714 0.981919 1
v 1.33714 0.987053 1
v 1.35458 0.979399 1
v 1.36475 0.979399 1
v 1.38141 0.981919 1
v 1.38141 0.987053 1
v 1.51487 0.285714 0.8
v 1.52426 0.285714 0.8
v 1.51409 0.319427 0.8
v 1.51409 0.40797 0.8
v 1.52426 0.40797 0.8
v 1.54093 0.41049 0.8
v 1.54093 0.415624 0.8
v 1.51487 0.285714 1
v 1.52426 0.285714 1
v 1.51409 0.319427 1
v 1.51409 0.40797 1
v 1.52426 0.40797 1
v 1.54093 0.41049 1
v 1.54093 0.415624 1
v 2 0 0.8
v 2 2 0
v 1.01254 1.17876 0.8
v 1.02577 1.15811 0.8
v 1.04689 1.14522 0.8
v 1.05504 1.15211 0.8
v 1.04035 1.1633 0.8
v 1.03138 1.18156 0.8
v 1.00814 1.20631 0.8
v 1.02838 1.2065 0.8
v 1.01238 1.23575 0.8
v 1.03124 1.23319 0.8
v 1.07498 1.14092 0.8
v 1.07518 1.14838 0.8
v 1.0859 1.14904 0.8
v 1.09869 1.14245 0.8
v 1.096 1.15104 0.8
v 1.10477 1.15415 0.8
v 1.1208 1.14702 0.8
v 1.1115 1.15816 0.8
v 1.11509 1.17754 0.8
v 1.12138 1.17754 0.8
v 1.11305 1.24089 0.8
v 1.11945 1.24089 0.8
v 1.13932 1.14286 0.8
v 1.13932 1.14799 0.8
v 1.15472 1.15061 0.8
v 1.17342 1.15061 0.8
v 1.17342 1.19381 0.8
v 1.17342 1.20253 0.8
v 1.18349 1.20253 0.8
v 1.19405 1.14286 0.8
v 1.19405 1.14799 0.8
v 1.2484 1.14286 0.8
v 1.2484 1.14799 0.8
v 1.18804 1.19381 0.8
v 1.19772 1.2044 0.8
v 1.20799 1.1964 0.8
v 1.20766 1.20999 0.8
v 1.21351 1.2198 0.8
v 1.21546 1.23431 0.8
v 1.21359 1.24801 0.8
v 1.22268 1.20418 0.8
v 1.23172 1.21694 0.8
v 1.23474 1.2345 0.8
v 1.01254 1.17876 1
v 1.02577 1.15811 1
v 1.04689 1.14522 1
v 1.05504 1.15211 1
v 1.04035 1.1633 1
v 1.03138 1.18156 1
v 1.00814 1.20631 1
v 1.02838 1.2065 1
v 1.01238 1.23575 1
v 1.03124 1.23319 1
v 1.07498 1.14092 1
v 1.07518 1.14838 1
v 1.0859 1.14904 1
v 1.09869 1.14245 1
v 1.096 1.15104 1
v 1.10477 1.15415 1
v 1.1208 1.14702 1
v 1.1115 1.15816 1
v 1.11509 1.17754 1
v 1.12138 1.17754 1
v 1.11305 1.24089 1
v 1.11945 1.24089 1
v 1.13932 1.14286 1
v 1.13932 1.14799 1
v 1.15472 1.15061 1
v 1.17342 1.15061 1
v 1.17342 1.19381 1
v 1.17342 1.20253 1
v 1.18349 1.20253 1
v 1.19405 1.14286 1
v 1.19405 1.14799 1
v 1.2484 1.14286 1
v 1.2484 1.14799 1
v 1.18804 1.19381 1
v 1.19772 1.2044 1
v 1.20799 1.1964 1
v 1.20766 1.20999 1
v 1.21351 1.2198 1
v 1.21546 1.23431 1
v 1.21359 1.24801 1
v 1.22268 1.20418 1
v 1.23172 1.21694 1
v 1.23474 1.2345 1
v 1.02509 1.25702 0.8
v 1.03982 1.25184 0.8
v 1.04614 1.26992 0.8
v 1.05461 1.26281 0.8
v 1.07614 1.26647 0.8
v 1.07537 1.27422 0.8
v 1.08536 1.2659 0.8
v 1.0944 1.26419 0.8
v 1.10282 1.26144 0.8
v 1.09637 1.27298 0.8
v 1.11015 1.25775 0.8
v 1.11887 1.26928 0.8
v 1.05196 1.42857 0.8
v 1.02197 1.44252 0.8
v 1.05196 1.43781 0.8
v 1.0871 1.4932 0.8
v 1.1109 1.45603 0.8
v 1.121 1.49823 0.8
v 1.13806 1.26763 0.8
v 1.13806 1.27277 0.8
v 1.15472 1.26511 0.8
v 1.17342 1.26405 0.8
v 1.18291 1.26405 0.8
v 1.18707 1.27277 0.8
v 1.198 1.26233 0.8
v 1.208 1.25717 0.8
v 1.22282 1.2632 0.8
v 1.2484 1.26763 0.8
v 1.2484 1.27277 0.8
v 1.14892 1.43282 0.8
v 1.13715 1.46536 0.8
v 1.16359 1.44522 0.8
v 1.19949 1.42508 0.8
v 1.24216 1.42783 0.8
v 1.19984 1.43851 0.8
v 1.21915 1.43971 0.8
v 1.23733 1.44331 0.8
v 1.02509 1.25702 1
v 1.03982 1.25184 1
v 1.04614 1.26992 1
v 1.05461 1.26281 1
v 1.07614 1.26647 1
v 1.07537 1.27422 1
v 1.08536 1.2659 1
v 1.0944 1.26419 1
v 1.10282 1.26144 1
v 1.09637 1.27298 1
v 1.11015 1.25775 1
v 1.11887 1.26928 1
v 1.05196 1.42857 1
v 1.02197 1.44252 1
v 1.05196 1.43781 1
v 1.0871 1.4932 1
v 1.1109 1.45603 1
v 1.121 1.49823 1
v 1.13806 1.26763 1
v 1.13806 1.27277 1
v 1.15472 1.26511 1
v 1.17342 1.26405 1
v 1.18291 1.26405 1
v 1.18707 1.27277 1
v 1.198 1.26233 1
v 1.208 1.25717 1
v 1.22282 1.2632 1
v 1.2484 1.26763 1
v 1.2484 1.27277 1
v 1.14892 1.43282 1
v 1.13715 1.46536 1
v 1.16359 1.44522 1
v 1.19949 1.42508 1
v 1.24216 1.42783 1
v 1.19984 1.43851 1
v 1.21915 1.43971 1
v 1.23733 1.44331 1
v 1.26507 1.15061 0.8
v 1.27524 1.15061 0.8
v 1.29267 1.14286 0.8
v 1.29267 1.14799 0.8
v 1.35535 1.14286 0.8
v 1.36475 1.14286 0.8
v 1.35458 1.17657 0.8
v 1.26507 1.15061 1
v 1.27524 1.15061 1
v 1.29267 1.14286 1
v 1.29267 1.14799 1
v 1.35535 1.14286 1
v 1.36475 1.14286 1
v 1.35458 1.17657 1
v 1.26507 1.26511 0.8
v 1.27524 1.25969 0.8
v 1.28773 1.27277 0.8
v 1.33714 1.26763 0.8
v 1.33714 1.27277 0.8
v 1.35458 1.26511 0.8
v 1.36475 1.26511 0.8
v 1.28197 1.43607 0.8
v 1.25311 1.44891 0.8
v 1.26523 1.45612 0.8
v 1.27168 1.491 0.8
v 1.28301 1.491 0.8
v 1.32174 1.43258 0.8
v 1.35226 1.42696 0.8
v 1.33918 1.44897 0.8
v 1.31982 1.48176 0.8
v 1.33133 1.48176 0.8
v 1.3474 1.4454 0.8
v 1.35845 1.44235 0.8
v 1.3705 1.44025 0.8
v 1.38141 1.26763 0.8
v 1.38141 1.27277 0.8
v 1.38451 1.42508 0.8
v 1.41961 1.42953 0.8
v 1.38172 1.43956 0.8
v 1.40553 1.4427 0.8
v 1.42218 1.45211 0.8
v 1.43199 1.46885 0.8
v 1.43526 1.49396 0.8
v 1.497 1.42857 0.8
v 1.44572 1.44287 0.8
v 1.46194 1.4641 0.8
v 1.46734 1.49222 0.8
v 1.497 1.4542 0.8
v 1.26507 1.26511 1
v 1.27524 1.25969 1
v 1.28773 1.27277 1
v 1.33714 1.26763 1
v 1.33714 1.27277 1
v 1.35458 1.26511 1
v 1.36475 1.26511 1
v 1.28197 1.43607 1
v 1.25311 1.44891 1
v 1.26523 1.45612 1
v 1.27168 1.491 1
v 1.28301 1.491 1
v 1.32174 1.43258 1
v 1.35226 1.42696 1
v 1.33918 1.44897 1
v 1.31982 1.48176 1
v 1.33133 1.48176 1
v 1.3474 1.4454 1
v 1.35845 1.44235 1
v 1.3705 1.44025 1
v 1.38141 1.26763 1
v 1.38141 1.27277 1
v 1.38451 1.42508 1
v 1.41961 1.42953 1
v 1.38172 1.43956 1
v 1.40553 1.4427 1
v 1.42218 1.45211 1
v 1.43199 1.46885 1
v 1.43526 1.49396 1
v 1.497 1.42857 1
v 1.44572 1.44287 1
v 1.46194 1.4641 1
v 1.46734 1.49222 1
v 1.497 1.4542 1
v 1.07917 1.54279 0.8
v 1.11561 1.54314 0.8
v 1.0868 1.59577 0.8
v 1.12076 1.59118 0.8
v 1.02197 1.64863 0.8
v 1.05196 1.65317 0.8
v 1.05196 1.66241 0.8
v 1.10968 1.63407 0.8
v 1.13619 1.62474 0.8
v 1.14757 1.65729 0.8
v 1.16283 1.64449 0.8
v 1.20158 1.65107 0.8
v 1.21817 1.65005 0.8
v 1.20018 1.66502 0.8
v 1.23445 1.64698 0.8
v 1.2496 1.64203 0.8
v 1.23798 1.6628 0.8
v 1.07917 1.54279 1
v 1.11561 1.54314 1
v 1.0868 1.59577 1
v 1.12076 1.59118 1
v 1.02197 1.64863 1
v 1.05196 1.65317 1
v 1.05196 1.66241 1
v 1.10968 1.63407 1
v 1.13619 1.62474 1
v 1.14757 1.65729 1
v 1.16283 1.64449 1
v 1.20158 1.65107 1
v 1.21817 1.65005 1
v 1.20018 1.66502 1
v 1.23445 1.64698 1
v 1.2496 1.64203 1
v 1.23798 1.6628 1
v 1.26802 1.60504 0.8
v 1.27953 1.60504 0.8
v 1.36097 1.54348 0.8
v 1.36097 1.55778 0.8
v 1.32697 1.61254 0.8
v 1.33848 1.61254 0.8
v 1.26279 1.63538 0.8
v 1.27848 1.65613 0.8
v 1.32697 1.65753 0.8
v 1.34306 1.6613 0.8
v 1.34458 1.64113 0.8
v 1.35287 1.64491 0.8
v 1.36237 1.64785 0.8
v 1.37227 1.64975 0.8
v 1.35679 1.66354 0.8
v 1.3693 1.66465 0.8
v 1.38591 1.54209 0.8
v 1.38591 1.55935 0.8
v 1.40561 1.55098 0.8
v 1.43225 1.51421 0.8
v 1.42323 1.52892 0.8
v 1.40788 1.53819 0.8
v 1.43316 1.5446 0.8
v 1.42726 1.55719 0.8
v 1.40304 1.56293 0.8
v 1.41503 1.57156 0.8
v 1.42209 1.5856 0.8
v 1.42445 1.60539 0.8
v 1.46359 1.51535 0.8
v 1.45235 1.53276 0.8
v 1.44336 1.56886 0.8
v 1.45337 1.58571 0.8
v 1.4567 1.60748 0.8
v 1.38172 1.65038 0.8
v 1.40101 1.6477 0.8
v 1.38172 1.66502 0.8
v 1.41425 1.63965 0.8
v 1.4219 1.62572 0.8
v 1.43796 1.65064 0.8
v 1.26802 1.60504 1
v 1.27953 1.60504 1
v 1.36097 1.54348 1
v 1.36097 1.55778 1
v 1.32697 1.61254 1
v 1.33848 1.61254 1
v 1.26279 1.63538 1
v 1.27848 1.65613 1
v 1.32697 1.65753 1
v 1.34306 1.6613 1
v 1.34458 1.64113 1
v 1.35287 1.64491 1
v 1.36237 1.64785 1
v 1.37227 1.64975 1
v 1.35679 1.66354 1
v 1.3693 1.66465 1
v 1.38591 1.54209 1
v 1.38591 1.55935 1
v 1.40561 1.55098 1
v 1.43225 1.51421 1
v 1.42323 1.52892 1
v 1.40788 1.53819 1
v 1.43316 1.5446 1
v 1.42726 1.55719 1
v 1.40304 1.56293 1
v 1.41503 1.57156 1
v 1.42209 1.5856 1
v 1.42445 1.60539 1
v 1.46359 1.51535 1
v 1.45235 1.53276 1
v 1.44336 1.56886 1
v 1.45337 1.58571 1
v 1.4567 1.60748 1
v 1.38172 1.65038 1
v 1.40101 1.6477 1
v 1.38172 1.66502 1
v 1.41425 1.63965 1
v 1.4219 1.62572 1
v 1.43796 1.65064 1
v 1.51984 1.45542 0.8
v 1.52943 1.48367 0.8
v 1.5368 1.47064 0.8
v 1.5528 1.48455 0.8
v 1.64016 1.42857 0.8
v 1.64016 1.45542 0.8
v 1.51984 1.45542 1
v 1.52943 1.48367 1
v 1.5368 1.47064 1
v 1.5528 1.48455 1
v 1.64016 1.42857 1
v 1.64016 1.45542 1
v 1.55651 1.50843 0.8
v 1.50485 1.61254 0.8
v 1.51635 1.61254 0.8
v 1.57529 1.52796 0.8
v 1.58393 1.51199 0.8
v 1.58787 1.54514 0.8
v 1.60476 1.53259 0.8
v 1.61843 1.54981 0.8
v 1.59631 1.56284 0.8
v 1.60108 1.58211 0.8
v 1.60267 1.60399 0.8
v 1.6001 1.62396 0.8
v 1.52246 1.64113 0.8
v 1.53052 1.64491 0.8
v 1.50485 1.65753 0.8
v 1.53972 1.64785 0.8
v 1.54936 1.64975 0.8
v 1.55873 1.65038 0.8
v 1.53419 1.66315 0.8
v 1.55873 1.66502 0.8
v 1.59238 1.63852 0.8
v 1.57883 1.64741 0.8
v 1.59232 1.66104 0.8
v 1.61636 1.64907 0.8
v 1.62804 1.56711 0.8
v 1.63373 1.58501 0.8
v 1.63563 1.60399 0.8
v 1.63081 1.62982 0.8
v 1.55651 1.50843 1
v 1.50485 1.61254 1
v 1.51635 1.61254 1
v 1.57529 1.52796 1
v 1.58393 1.51199 1
v 1.58787 1.54514 1
v 1.60476 1.53259 1
v 1.61843 1.54981 1
v 1.59631 1.56284 1
v 1.60108 1.58211 1
v 1.60267 1.60399 1
v 1.6001 1.62396 1
v 1.52246 1.64113 1
v 1.53052 1.64491 1
v 1.50485 1.65753 1
v 1.53972 1.64785 1
v 1.54936 1.64975 1
v 1.55873 1.65038 1
v 1.53419 1.66315 1
v 1.55873 1.66502 1
v 1.59238 1.63852 1
v 1.57883 1.64741 1
v 1.59232 1.66104 1
v 1.61636 1.64907 1
v 1.62804 1.56711 1
v 1.63373 1.58501 1
v 1.63563 1.60399 1
v 1.63081 1.62982 1
v 2 2 0.8
f  2 3 4
f  2 4 5
f  2 17 3
f  2 33 17
f  2 40 33
f  2 91 40
f  2 5 6
f  7 5 4
f  7 4 19
f  1 2 402
f  2 384 385
f  2 6 384
f  6 147 384
f  1 1080 2
f  2 92 91
f  2 94 92
f  2 95 94
f  2 104 95
f  2 105 104
f  2 700 105
f  2 701 700
f  2 703 701
f  15 19 4
f  16 32 20
f  17 37 18
f  34 17 33
f  35 17 34
f  16 18 32
f  32 18 37
f  8 21 22
f  22 25 23
f  21 26 22
f  25 22 24
f  26 24 22
f  20 32 27
f  27 32 28
f  28 31 29
f  31 28 30
f  32 30 28
f  35 37 17
f  40 91 41
f  36 41 97
f  36 97 38
f  97 41 91
f  39 43 42
f  39 47 43
f  43 46 44
f  46 43 45
f  47 45 43
f  29 31 216
f  38 49 48
f  38 50 49
f  38 97 50
f  49 52 51
f  52 49 50
f  44 216 31
f  44 46 215
f  51 215 46
f  2 718 703
f  2 720 718
f  2 721 720
f  2 760 721
f  96 92 94
f  93 99 98
f  93 101 99
f  99 101 100
f  51 52 215
f  100 215 52
f  100 101 215
f  103 107 102
f  108 102 107
f  215 101 102
f  102 108 219
f  115 95 104
f  95 111 110
f  95 112 111
f  95 115 112
f  103 109 107
f  111 114 113
f  114 111 112
f  113 227 108
f  113 114 231
f  106 117 116
f  106 706 117
f  117 706 118
f  118 233 114
f  23 148 6
f  23 25 149
f  29 149 25
f  159 6 148
f  147 6 159
f  148 23 149
f  29 216 223
f  29 223 221
f  29 221 149
f  149 222 151
f  151 222 154
f  288 158 287
f  150 177 160
f  161 177 162
f  160 177 161
f  162 177 164
f  164 177 165
f  165 177 168
f  152 177 150
f  153 178 152
f  155 178 153
f  152 178 177
f  156 178 155
f  157 178 156
f  157 169 178
f  170 300 169
f  158 302 170
f  168 177 171
f  171 177 172
f  172 177 174
f  174 179 175
f  179 174 177
f  169 300 178
f  178 300 180
f  301 180 300
f  44 215 216
f  215 102 219
f  108 227 219
f  217 223 216
f  218 220 228
f  219 228 220
f  228 219 227
f  218 228 241
f  218 225 224
f  218 239 225
f  218 241 239
f  225 240 226
f  240 225 239
f  227 113 231
f  114 233 231
f  229 241 228
f  230 232 234
f  231 234 232
f  234 231 233
f  230 234 247
f  233 118 237
f  118 830 237
f  235 247 234
f  236 238 831
f  237 831 238
f  230 243 242
f  230 245 243
f  230 247 245
f  243 246 244
f  246 243 245
f  236 249 248
f  236 840 249
f  249 841 250
f  222 149 221
f  154 222 158
f  158 222 287
f  287 222 291
f  289 158 288
f  226 291 222
f  226 240 293
f  226 293 291
f  291 294 292
f  294 291 293
f  289 302 158
f  290 292 295
f  295 292 297
f  297 292 307
f  298 299 296
f  299 308 296
f  308 309 296
f  302 300 170
f  304 303 296
f  312 314 296
f  305 304 296
f  314 305 296
f  292 294 307
f  307 294 310
f  309 313 296
f  310 319 311
f  319 310 294
f  311 319 316
f  319 325 316
f  313 312 296
f  316 317 315
f  318 315 317
f  317 316 325
f  244 293 240
f  244 321 293
f  321 244 246
f  321 323 322
f  250 323 246
f  321 246 323
f  250 324 323
f  250 902 324
f  322 326 320
f  326 322 323
f  330 327 329
f  324 913 914
f  324 914 918
f  324 918 332
f  328 329 327
f  328 331 329
f  333 332 918
f  1 402 383
f  1 383 1081
f  383 402 1081
f  2 385 402
f  384 439 386
f  386 390 389
f  406 389 390
f  402 385 387
f  402 387 403
f  402 403 404
f  387 405 403
f  389 406 388
f  392 635 407
f  410 407 411
f  409 407 408
f  408 407 410
f  407 635 411
f  402 404 407
f  402 407 409
f  402 409 425
f  402 425 426
f  402 426 427
f  402 427 428
f  402 428 429
f  402 429 430
f  163 384 147
f  166 384 163
f  166 441 384
f  167 440 166
f  173 444 167
f  176 444 173
f  166 440 441
f  167 444 440
f  180 444 176
f  180 301 444
f  301 449 444
f  301 453 449
f  301 455 453
f  301 519 455
f  445 459 442
f  443 459 446
f  442 459 443
f  446 459 448
f  448 459 488
f  450 459 445
f  451 459 450
f  452 459 451
f  454 459 452
f  520 455 519
f  456 459 454
f  455 521 458
f  456 457 459
f  458 459 457
f  521 459 458
f  459 521 460
f  439 384 441
f  447 386 439
f  386 447 390
f  390 447 391
f  391 487 483
f  487 391 447
f  483 487 490
f  484 391 483
f  391 484 485
f  488 459 489
f  483 490 492
f  483 492 496
f  483 496 498
f  489 459 491
f  491 459 493
f  493 459 494
f  497 495 494
f  497 494 459
f  460 575 498
f  576 498 575
f  499 498 576
f  581 499 576
f  498 499 483
f  486 500 587
f  499 581 500
f  500 581 586
f  587 500 586
f  306 519 301
f  306 523 519
f  315 523 306
f  315 318 523
f  327 523 318
f  330 524 523
f  527 524 334
f  455 520 521
f  522 524 525
f  525 524 527
f  521 575 460
f  521 577 575
f  528 529 526
f  529 533 526
f  533 535 526
f  579 578 526
f  580 579 526
f  582 580 526
f  536 582 526
f  527 530 531
f  527 531 532
f  532 531 534
f  540 534 531
f  535 537 526
f  537 536 526
f  534 540 538
f  538 540 592
f  538 592 539
f  327 330 523
f  334 524 330
f  527 922 530
f  527 334 922
f  922 542 530
f  543 593 541
f  542 545 543
f  593 543 545
f  546 1082 1088
f  544 595 594
f  544 597 595
f  546 1088 1090
f  546 1090 599
f  546 599 598
f  583 586 581
f  539 584 583
f  585 583 584
f  584 539 592
f  583 585 586
f  594 589 585
f  586 585 589
f  590 591 649
f  649 591 652
f  652 591 661
f  596 594 595
f  589 594 596
f  600 589 596
f  589 600 1173
f  589 1186 601
f  589 602 591
f  602 589 601
f  591 602 661
f  391 485 634
f  411 635 412
f  412 635 413
f  413 635 633
f  633 638 645
f  633 635 638
f  486 637 636
f  486 656 637
f  486 587 656
f  637 655 638
f  645 638 655
f  655 637 654
f  656 654 637
f  660 645 655
f  588 656 587
f  651 653 650
f  653 662 650
f  662 665 650
f  658 657 650
f  659 658 650
f  665 666 650
f  666 667 650
f  669 659 650
f  667 669 650
f  661 602 663
f  673 663 602
f  603 673 602
f  663 673 664
f  664 673 668
f  660 670 672
f  668 671 670
f  672 670 671
f  671 668 673
f  402 430 1504
f  1504 430 431
f  1 699 1080
f  1 1081 699
f  699 1081 1080
f  2 1080 760
f  105 700 702
f  704 701 703
f  701 712 711
f  701 704 724
f  701 714 712
f  701 724 714
f  705 708 707
f  709 707 708
f  118 706 830
f  707 830 706
f  830 707 709
f  705 710 708
f  712 715 713
f  715 712 714
f  713 836 709
f  836 713 715
f  718 720 719
f  716 724 704
f  719 723 717
f  723 719 720
f  721 768 729
f  725 850 715
f  725 727 856
f  722 726 725
f  727 725 726
f  722 728 726
f  769 856 727
f  769 771 857
f  761 721 760
f  721 761 773
f  762 773 761
f  721 770 768
f  721 773 770
f  765 772 763
f  764 766 765
f  772 765 766
f  768 771 769
f  771 768 770
f  774 857 771
f  857 774 776
f  767 775 774
f  776 774 775
f  767 777 775
f  787 857 776
f  780 778 779
f  778 780 791
f  778 786 785
f  778 789 786
f  778 791 789
f  781 791 780
f  783 1066 784
f  784 788 782
f  788 784 1066
f  786 790 787
f  790 786 789
f  1068 793 792
f  794 792 793
f  830 709 834
f  237 830 831
f  236 831 842
f  832 842 831
f  833 835 837
f  709 836 834
f  836 715 850
f  834 837 835
f  837 834 836
f  833 837 848
f  838 848 837
f  839 851 853
f  236 842 840
f  833 844 843
f  833 846 844
f  249 840 841
f  833 848 846
f  839 858 849
f  839 860 858
f  844 847 845
f  847 844 846
f  725 852 850
f  852 725 856
f  850 853 851
f  853 850 852
f  839 853 862
f  854 862 853
f  863 855 857
f  769 857 856
f  839 862 860
f  858 861 859
f  861 858 860
f  250 841 903
f  250 903 902
f  845 903 841
f  903 845 905
f  324 902 913
f  906 916 904
f  845 847 905
f  859 905 847
f  859 908 905
f  859 912 908
f  907 917 906
f  909 917 907
f  906 917 916
f  924 915 917
f  924 919 915
f  919 924 921
f  333 918 920
f  922 334 333
f  922 333 920
f  917 909 910
f  917 910 911
f  917 911 924
f  925 923 924
f  929 925 930
f  921 924 923
f  923 925 926
f  926 925 928
f  928 925 931
f  931 925 934
f  934 925 929
f  931 934 932
f  859 861 936
f  859 936 912
f  936 861 865
f  937 912 936
f  940 943 941
f  943 940 942
f  912 937 949
f  938 949 937
f  912 949 925
f  939 941 944
f  944 941 953
f  946 954 945
f  925 947 930
f  949 947 925
f  930 947 935
f  951 950 945
f  962 951 945
f  953 941 955
f  941 943 955
f  954 956 945
f  956 957 945
f  957 960 945
f  955 943 958
f  1034 958 943
f  958 1034 959
f  960 961 945
f  961 963 945
f  963 962 945
f  959 1040 964
f  964 966 965
f  967 965 966
f  966 964 1040
f  863 857 787
f  863 792 864
f  864 794 865
f  863 787 790
f  863 790 792
f  936 865 1072
f  864 792 794
f  1072 865 794
f  1080 940 936
f  1080 942 940
f  1036 1038 1037
f  1037 1041 1035
f  959 1034 1040
f  1041 1037 1038
f  1043 1044 1042
f  1045 1042 1044
f  1043 1046 1044
f  1039 1048 1047
f  1080 764 760
f  1080 766 764
f  1080 778 766
f  1080 779 778
f  1080 783 779
f  1080 1066 783
f  1080 1067 1066
f  1080 1071 1067
f  1067 1071 1070
f  1068 1069 793
f  1080 936 1072
f  1080 1072 1071
f  1080 1036 942
f  1080 1038 1036
f  1080 1039 1038
f  1080 1048 1039
f  1080 1049 1048
f  1080 1247 1049
f  1080 1276 1247
f  1080 1277 1276
f  1080 1440 1277
f  1080 1441 1440
f  542 922 927
f  542 927 933
f  542 933 935
f  542 935 947
f  542 947 545
f  545 947 546
f  546 948 1084
f  546 947 948
f  948 1092 1084
f  948 1095 1092
f  948 1098 1095
f  546 1084 1083
f  546 1083 1082
f  1086 1102 1087
f  1087 1102 1089
f  1089 1102 1091
f  1091 1102 1169
f  1085 1102 1086
f  1093 1102 1085
f  1094 1103 1093
f  1096 1103 1094
f  1097 1103 1096
f  1099 1103 1097
f  1093 1103 1102
f  1099 1100 1103
f  1101 1186 1100
f  1100 1186 1103
f  952 1104 948
f  965 1104 952
f  948 1104 1098
f  965 967 1104
f  1042 1111 967
f  967 1111 1104
f  1105 1098 1104
f  1098 1105 1106
f  1107 1112 1108
f  1108 1112 1115
f  1098 1188 1101
f  1098 1106 1188
f  1188 1186 1101
f  1110 1116 1109
f  1190 1189 1109
f  1192 1190 1109
f  1111 1114 1112
f  1115 1112 1117
f  1112 1114 1117
f  1114 1111 1113
f  1117 1114 1122
f  1242 1122 1114
f  1116 1118 1109
f  1118 1119 1109
f  1119 1120 1109
f  1120 1121 1109
f  1193 1192 1109
f  1121 1193 1109
f  1122 1242 1123
f  1123 1242 1124
f  599 1090 1168
f  599 1168 600
f  1170 600 1168
f  1173 600 1170
f  589 1173 1177
f  589 1177 1179
f  589 1179 1186
f  1169 1102 1171
f  1171 1102 1172
f  1172 1102 1174
f  1174 1102 1175
f  1178 1175 1102
f  1178 1176 1175
f  601 1186 1187
f  1180 601 1187
f  1182 1324 1181
f  1180 1187 1197
f  1180 1184 1182
f  1183 1182 1184
f  1182 1183 1324
f  1184 1180 1197
f  1103 1186 1179
f  1124 1195 1194
f  1195 1124 1256
f  1196 1194 1195
f  1191 1268 1187
f  1194 1268 1191
f  1197 1187 1200
f  1200 1187 1201
f  1201 1187 1263
f  1268 1263 1187
f  1202 1358 1199
f  1203 1359 1202
f  1204 1359 1203
f  1042 1045 1111
f  1045 1113 1111
f  1045 1244 1113
f  1049 1246 1045
f  1045 1246 1244
f  1049 1247 1246
f  1245 1257 1243
f  1257 1245 1246
f  1242 1256 1124
f  1244 1246 1245
f  1248 1259 1258
f  1248 1261 1259
f  1247 1276 1262
f  1194 1196 1268
f  1258 1268 1196
f  1260 1258 1259
f  1268 1258 1260
f  1277 1269 1260
f  1277 1278 1269
f  1264 1359 1204
f  1263 1268 1271
f  1263 1271 1267
f  1272 1267 1271
f  1268 1260 1269
f  1274 1270 1273
f  1275 1270 1274
f  1270 1275 1272
f  1280 1272 1275
f  1281 1272 1280
f  1267 1272 1284
f  1278 1277 1279
f  1279 1277 1286
f  1282 1272 1281
f  1283 1272 1282
f  1377 1267 1284
f  1284 1272 1283
f  1277 1285 1286
f  1289 1287 1286
f  1289 1286 1285
f  1287 1289 1437
f  1287 1437 1288
f  402 1504 1081
f  1181 1329 1328
f  1181 1326 1329
f  1181 1324 1326
f  1329 1331 1330
f  1331 1329 1326
f  1333 1330 1331
f  1198 1358 1185
f  1185 1358 1325
f  1325 1358 1327
f  1327 1358 1332
f  1199 1358 1198
f  1202 1359 1358
f  1332 1358 1334
f  1337 1330 1333
f  1334 1358 1335
f  1335 1358 1336
f  1336 1358 1338
f  1364 1339 1338
f  1504 646 645
f  1504 431 646
f  1504 645 660
f  1265 1359 1264
f  1265 1266 1359
f  1267 1359 1266
f  1267 1360 1359
f  1360 1267 1374
f  1374 1267 1379
f  1379 1267 1378
f  1359 1361 1362
f  1361 1359 1360
f  1362 1361 1363
f  1375 1363 1361
f  1364 1338 1358
f  1359 1366 1365
f  1366 1359 1362
f  1363 1369 1368
f  1369 1363 1370
f  1370 1363 1371
f  1371 1363 1391
f  1391 1363 1392
f  1378 1267 1377
f  1376 1380 1381
f  1382 1363 1375
f  1383 1363 1382
f  1384 1363 1383
f  1385 1363 1384
f  1395 1363 1385
f  1387 1381 1380
f  1387 1388 1381
f  1288 1448 1386
f  1386 1451 1387
f  1387 1451 1388
f  1388 1451 1389
f  1389 1449 1390
f  1449 1389 1450
f  1392 1363 1394
f  1394 1363 1395
f  1390 1462 1396
f  1462 1390 1449
f  1504 660 672
f  1504 672 1330
f  1504 1330 1337
f  1504 1337 1340
f  1080 1081 1504
f  1285 1277 1440
f  1448 1288 1437
f  1436 1441 1438
f  1438 1441 1439
f  1439 1441 1452
f  1452 1441 1454
f  1080 1504 1441
f  1386 1448 1451
f  1453 1389 1451
f  1389 1457 1450
f  1456 1389 1453
f  1457 1389 1456
f  1458 1450 1457
f  1459 1450 1458
f  1450 1461 1460
f  1461 1450 1463
f  1463 1450 1464
f  1464 1450 1465
f  1465 1450 1469
f  1468 1450 1459
f  1469 1450 1468
f  1504 1454 1441
f  1504 1455 1454
f  1504 1472 1455
f  1504 1340 1365
f  1504 1365 1366
f  1504 1366 1367
f  1504 1367 1372
f  1504 1372 1373
f  1504 1373 1393
f  1504 1393 1396
f  1504 1396 1462
f  1504 1462 1466
f  1504 1466 1467
f  1504 1467 1470
f  1504 1471 1475
f  1504 1470 1471
f  1504 1473 1472
f  1504 1474 1473
f  1504 1475 1474
f  9 4 3
f  11 6 5
f  13 5 7
f  12 23 6
f  9 10 4
f  11 12 6
f  11 5 13
f  13 7 57
f  12 61 23
f  11 13 12
f  13 57 14
f  12 13 14
f  12 14 61
f  10 15 4
f  53 19 15
f  55 3 17
f  54 18 16
f  56 17 18
f  57 7 19
f  58 16 20
f  59 26 21
f  14 21 8
f  60 8 22
f  61 22 23
f  62 25 24
f  64 24 26
f  65 20 27
f  63 29 25
f  66 27 28
f  67 28 29
f  68 31 30
f  70 30 32
f  69 44 31
f  71 34 33
f  72 35 34
f  73 37 35
f  78 33 40
f  74 41 36
f  75 32 37
f  76 36 38
f  77 47 39
f  79 40 41
f  80 39 42
f  81 42 43
f  82 43 44
f  86 38 48
f  83 46 45
f  85 45 47
f  84 51 46
f  87 48 49
f  89 49 51
f  88 52 50
f  125 50 97
f  10 53 15
f  9 3 55
f  54 16 58
f  54 56 18
f  55 17 56
f  53 57 19
f  14 59 21
f  58 20 65
f  9 53 10
f  9 55 53
f  53 54 57
f  53 55 54
f  54 55 56
f  54 58 57
f  57 58 59
f  14 57 59
f  59 58 64
f  14 8 60
f  60 22 61
f  59 64 26
f  62 63 25
f  62 24 64
f  65 27 66
f  63 67 29
f  66 28 67
f  68 69 31
f  68 30 70
f  14 60 61
f  58 65 64
f  62 64 63
f  63 64 65
f  63 65 67
f  65 66 67
f  68 70 69
f  69 70 80
f  71 72 34
f  72 73 35
f  71 33 78
f  74 36 76
f  73 75 37
f  80 77 39
f  74 79 41
f  78 40 79
f  76 38 86
f  71 73 72
f  71 78 73
f  73 74 75
f  73 78 74
f  75 76 77
f  75 74 76
f  75 77 80
f  74 78 79
f  76 85 77
f  75 70 32
f  69 82 44
f  80 42 81
f  81 43 82
f  77 85 47
f  83 84 46
f  83 45 85
f  86 48 87
f  84 89 51
f  87 49 89
f  88 90 52
f  88 50 125
f  75 80 70
f  69 80 82
f  80 81 82
f  76 86 85
f  83 85 84
f  84 85 86
f  84 86 89
f  86 87 89
f  88 125 90
f  120 91 92
f  119 97 91
f  123 94 95
f  124 92 96
f  121 101 93
f  122 96 94
f  90 100 52
f  126 93 98
f  127 98 99
f  128 99 100
f  129 102 101
f  130 103 102
f  131 109 103
f  138 95 110
f  133 104 105
f  132 115 104
f  135 108 107
f  137 107 109
f  136 113 108
f  139 110 111
f  140 114 112
f  141 111 113
f  143 112 115
f  142 118 114
f  144 106 116
f  145 116 117
f  146 117 118
f  119 91 120
f  125 97 119
f  120 92 124
f  121 93 126
f  122 94 123
f  122 124 96
f  131 103 130
f  125 119 120
f  125 120 121
f  120 124 121
f  121 124 129
f  122 131 124
f  124 131 129
f  126 98 127
f  90 128 100
f  127 99 128
f  121 129 101
f  129 130 102
f  125 121 126
f  90 125 126
f  90 126 128
f  126 127 128
f  131 130 129
f  123 95 138
f  132 104 133
f  132 143 115
f  133 105 732
f  134 106 144
f  122 123 138
f  122 138 131
f  132 133 143
f  133 134 143
f  131 137 109
f  135 136 108
f  135 107 137
f  136 141 113
f  138 110 139
f  140 142 114
f  139 111 141
f  140 112 143
f  144 116 145
f  142 146 118
f  145 117 146
f  131 138 137
f  135 137 136
f  136 137 138
f  136 138 141
f  138 139 141
f  140 143 142
f  134 144 143
f  142 143 144
f  142 144 146
f  144 145 146
f  181 163 147
f  183 148 149
f  194 150 160
f  185 149 151
f  184 152 150
f  186 153 152
f  188 151 154
f  187 155 153
f  189 156 155
f  190 157 156
f  192 154 158
f  182 159 148
f  193 147 159
f  195 160 161
f  196 161 162
f  197 166 163
f  198 162 164
f  199 164 165
f  200 167 166
f  202 165 168
f  201 173 167
f  205 168 171
f  191 169 157
f  203 170 169
f  204 158 170
f  206 171 172
f  207 176 173
f  208 172 174
f  209 174 175
f  210 180 176
f  211 179 177
f  212 177 178
f  213 175 179
f  214 178 180
f  193 181 147
f  181 197 163
f  183 182 148
f  183 149 185
f  194 184 150
f  184 186 152
f  185 151 188
f  186 187 153
f  187 189 155
f  189 190 156
f  188 154 192
f  190 191 157
f  192 158 204
f  183 194 182
f  183 184 194
f  183 185 184
f  184 185 186
f  185 188 187
f  185 187 186
f  187 188 189
f  188 190 189
f  188 192 190
f  192 191 190
f  193 159 182
f  195 194 160
f  195 161 196
f  196 162 198
f  197 200 166
f  198 164 199
f  200 201 167
f  199 165 202
f  202 168 205
f  201 207 173
f  191 203 169
f  203 204 170
f  205 171 206
f  206 172 208
f  208 174 209
f  207 210 176
f  211 213 179
f  211 177 212
f  212 178 214
f  209 175 213
f  210 214 180
f  193 182 195
f  193 195 196
f  182 194 195
f  193 196 181
f  181 196 197
f  197 196 198
f  197 198 200
f  198 199 200
f  200 199 201
f  199 202 201
f  201 202 207
f  202 205 207
f  192 204 191
f  191 204 203
f  205 206 207
f  207 206 210
f  206 208 210
f  208 209 210
f  211 212 213
f  210 209 214
f  209 213 214
f  212 214 213
f  251 216 215
f  252 217 216
f  255 215 219
f  253 223 217
f  254 220 218
f  256 219 220
f  257 222 221
f  260 218 224
f  259 221 223
f  258 226 222
f  261 224 225
f  262 225 226
f  263 228 227
f  264 229 228
f  265 241 229
f  267 227 231
f  266 232 230
f  268 231 232
f  269 234 233
f  270 235 234
f  271 247 235
f  273 233 237
f  272 238 236
f  274 237 238
f  278 230 242
f  275 240 239
f  277 239 241
f  276 244 240
f  279 242 243
f  280 243 244
f  284 236 248
f  281 246 245
f  283 245 247
f  282 250 246
f  285 248 249
f  286 249 250
f  251 252 216
f  251 215 255
f  252 253 217
f  254 256 220
f  255 219 256
f  254 218 260
f  251 253 252
f  251 255 253
f  253 255 254
f  253 254 259
f  255 256 254
f  257 258 222
f  253 259 223
f  257 221 259
f  258 262 226
f  260 224 261
f  261 225 262
f  254 260 259
f  257 259 258
f  258 259 262
f  259 260 262
f  260 261 262
f  263 264 228
f  264 265 229
f  263 227 267
f  266 268 232
f  267 231 268
f  266 230 278
f  269 270 234
f  270 271 235
f  269 233 273
f  272 274 238
f  273 237 274
f  272 236 284
f  263 265 264
f  263 267 265
f  265 266 277
f  265 267 266
f  266 267 268
f  269 271 270
f  269 272 271
f  271 272 283
f  269 273 272
f  273 274 272
f  265 277 241
f  275 276 240
f  277 275 239
f  276 280 244
f  278 242 279
f  279 243 280
f  271 283 247
f  281 282 246
f  281 245 283
f  282 286 250
f  284 248 285
f  285 249 286
f  266 278 277
f  277 276 275
f  277 278 276
f  276 278 280
f  278 279 280
f  272 284 283
f  281 283 282
f  282 283 284
f  282 284 286
f  284 285 286
f  335 288 287
f  336 289 288
f  339 287 291
f  338 292 290
f  340 291 292
f  341 294 293
f  342 319 294
f  337 302 289
f  343 290 295
f  344 298 296
f  345 295 297
f  346 299 298
f  348 301 300
f  350 300 302
f  349 306 301
f  351 296 303
f  352 303 304
f  353 304 305
f  355 297 307
f  347 308 299
f  356 309 308
f  358 307 310
f  359 310 311
f  360 314 312
f  357 313 309
f  361 312 313
f  363 316 315
f  362 305 314
f  354 315 306
f  364 311 316
f  365 318 317
f  373 317 325
f  369 293 321
f  368 322 320
f  370 321 322
f  372 323 324
f  373 325 319
f  374 320 326
f  366 327 318
f  375 328 327
f  371 326 323
f  376 331 328
f  377 330 329
f  379 329 331
f  378 334 330
f  380 324 332
f  381 332 333
f  382 333 334
f  335 336 288
f  336 337 289
f  335 287 339
f  339 291 340
f  338 340 292
f  341 342 294
f  342 367 319
f  335 337 336
f  335 338 337
f  335 339 338
f  338 339 340
f  341 367 342
f  338 290 343
f  343 295 345
f  344 346 298
f  344 296 351
f  345 297 355
f  346 347 299
f  337 350 302
f  348 300 350
f  348 349 301
f  351 303 352
f  349 354 306
f  352 304 353
f  355 307 358
f  347 356 308
f  356 357 309
f  358 310 359
f  359 311 364
f  360 362 314
f  357 361 313
f  361 360 312
f  353 305 362
f  354 363 315
f  364 316 363
f  365 317 373
f  365 366 318
f  337 338 343
f  337 343 344
f  337 344 350
f  343 346 344
f  343 345 346
f  345 347 346
f  345 355 347
f  344 351 350
f  348 350 349
f  349 350 354
f  350 351 354
f  351 352 354
f  352 353 354
f  355 356 347
f  355 358 356
f  356 358 357
f  357 358 359
f  357 359 361
f  361 359 364
f  361 364 360
f  360 364 363
f  354 353 363
f  353 362 363
f  360 363 362
f  365 373 366
f  341 293 369
f  368 370 322
f  369 321 370
f  371 323 372
f  341 369 367
f  367 369 368
f  368 369 370
f  367 373 319
f  368 320 374
f  371 374 326
f  366 375 327
f  375 376 328
f  372 324 380
f  376 379 331
f  377 378 330
f  377 329 379
f  380 332 381
f  378 382 334
f  381 333 382
f  367 368 374
f  367 374 373
f  373 374 375
f  366 373 375
f  374 376 375
f  371 372 374
f  372 376 374
f  372 380 376
f  377 379 378
f  378 379 380
f  376 380 379
f  378 380 382
f  380 381 382
f  393 385 384
f  394 387 385
f  395 384 386
f  398 386 389
f  397 389 388
f  400 390 391
f  399 406 390
f  393 394 385
f  394 396 387
f  393 396 394
f  393 384 395
f  395 386 398
f  397 398 389
f  399 390 400
f  393 395 396
f  397 395 398
f  396 395 397
f  399 400 417
f  414 404 403
f  416 403 405
f  415 407 404
f  416 405 387
f  417 388 406
f  418 392 407
f  419 409 408
f  421 408 410
f  422 410 411
f  423 411 412
f  424 412 413
f  414 403 416
f  414 415 404
f  414 416 415
f  396 416 387
f  397 388 417
f  399 417 406
f  401 392 418
f  396 397 417
f  396 417 416
f  400 401 417
f  417 401 418
f  415 418 407
f  419 408 421
f  419 420 409
f  421 410 422
f  422 411 423
f  423 412 424
f  417 418 416
f  415 416 418
f  419 647 420
f  419 421 647
f  421 422 647
f  422 423 424
f  422 424 639
f  422 639 647
f  420 425 409
f  432 426 425
f  433 427 426
f  434 428 427
f  435 429 428
f  436 430 429
f  437 431 430
f  420 432 425
f  432 433 426
f  433 434 427
f  434 435 428
f  435 436 429
f  436 437 430
f  437 438 431
f  432 434 433
f  432 435 434
f  420 647 432
f  432 436 435
f  432 437 436
f  432 438 437
f  432 648 438
f  432 647 648
f  461 447 439
f  466 440 444
f  462 441 440
f  465 442 443
f  471 444 449
f  467 450 445
f  464 445 442
f  463 439 441
f  468 443 446
f  469 487 447
f  470 446 448
f  506 448 488
f  472 451 450
f  475 449 453
f  473 452 451
f  474 454 452
f  476 456 454
f  477 453 455
f  478 457 456
f  479 458 457
f  480 455 458
f  481 497 459
f  482 459 460
f  463 461 439
f  461 469 447
f  466 462 440
f  463 441 462
f  465 464 442
f  466 444 471
f  467 445 464
f  467 472 450
f  465 443 468
f  468 446 470
f  469 505 487
f  470 448 506
f  471 449 475
f  472 473 451
f  473 474 452
f  474 476 454
f  475 453 477
f  476 478 456
f  478 479 457
f  479 480 458
f  477 455 480
f  481 459 482
f  466 464 462
f  463 462 465
f  462 464 465
f  466 467 464
f  466 471 467
f  467 471 472
f  463 468 461
f  463 465 468
f  461 468 469
f  469 468 470
f  469 470 505
f  470 506 505
f  471 473 472
f  471 475 473
f  473 475 474
f  475 476 474
f  475 477 476
f  476 477 478
f  477 480 478
f  478 480 479
f  481 482 515
f  501 484 483
f  517 483 499
f  502 485 484
f  505 490 487
f  507 488 489
f  508 492 490
f  509 489 491
f  511 491 493
f  510 496 492
f  512 493 494
f  513 494 495
f  514 498 496
f  515 495 497
f  516 460 498
f  518 499 500
f  504 500 486
f  501 502 484
f  400 391 640
f  501 483 517
f  502 503 485
f  501 503 502
f  501 517 503
f  503 517 504
f  505 508 490
f  506 488 507
f  507 489 509
f  508 510 492
f  511 493 512
f  509 491 511
f  512 494 513
f  510 514 496
f  481 515 497
f  513 495 515
f  482 460 516
f  514 516 498
f  506 508 505
f  506 507 508
f  508 507 510
f  507 509 510
f  509 511 510
f  510 511 514
f  511 512 514
f  512 513 514
f  513 515 516
f  482 516 515
f  514 513 516
f  517 499 518
f  504 518 500
f  504 517 518
f  547 520 519
f  548 521 520
f  551 519 523
f  550 524 522
f  552 523 524
f  553 522 525
f  606 577 521
f  554 528 526
f  555 525 527
f  556 529 528
f  607 526 578
f  558 531 530
f  559 540 531
f  560 527 532
f  557 533 529
f  561 535 533
f  562 532 534
f  566 534 538
f  563 537 535
f  565 536 537
f  567 538 539
f  570 530 542
f  569 543 541
f  571 542 543
f  621 592 540
f  622 541 593
f  623 544 594
f  573 593 545
f  574 545 546
f  572 597 544
f  627 546 598
f  547 548 520
f  548 549 521
f  547 519 551
f  550 552 524
f  551 523 552
f  550 522 553
f  549 606 521
f  553 525 555
f  554 556 528
f  555 527 560
f  556 557 529
f  554 526 607
f  558 559 531
f  559 568 540
f  560 532 562
f  557 561 533
f  561 563 535
f  562 534 566
f  563 565 537
f  565 564 536
f  566 538 567
f  567 539 612
f  547 549 548
f  547 550 549
f  549 550 553
f  549 553 554
f  547 551 550
f  550 551 552
f  549 554 606
f  554 607 606
f  553 556 554
f  553 555 556
f  555 557 556
f  555 560 557
f  558 568 559
f  557 560 561
f  560 562 561
f  561 562 563
f  563 562 566
f  563 566 565
f  565 566 567
f  565 567 564
f  564 567 612
f  558 530 570
f  569 571 543
f  569 541 622
f  570 542 571
f  568 621 540
f  573 622 593
f  573 545 574
f  574 546 627
f  572 544 623
f  572 626 597
f  558 570 568
f  568 570 569
f  569 570 571
f  568 569 622
f  568 622 621
f  572 623 622
f  573 574 622
f  574 572 622
f  574 627 572
f  572 627 626
f  604 576 575
f  606 575 577
f  605 581 576
f  608 578 579
f  609 579 580
f  611 580 582
f  564 582 536
f  610 583 581
f  612 539 583
f  613 585 584
f  621 584 592
f  615 587 586
f  616 588 587
f  618 586 589
f  620 589 591
f  619 591 590
f  674 590 649
f  614 594 585
f  624 596 595
f  626 595 597
f  625 600 596
f  628 598 599
f  629 599 600
f  630 602 601
f  631 603 602
f  604 605 576
f  604 575 606
f  607 578 608
f  605 610 581
f  608 579 609
f  609 580 611
f  564 611 582
f  610 612 583
f  613 614 585
f  613 584 621
f  604 606 605
f  605 606 610
f  606 607 610
f  607 608 610
f  608 609 610
f  609 611 612
f  610 609 612
f  564 612 611
f  613 621 614
f  615 616 587
f  615 586 618
f  616 617 588
f  618 589 620
f  619 590 674
f  619 620 591
f  615 617 616
f  615 619 617
f  617 619 674
f  617 674 675
f  615 618 619
f  619 618 620
f  614 623 594
f  624 625 596
f  624 595 626
f  627 598 628
f  625 629 600
f  628 599 629
f  614 621 623
f  621 622 623
f  624 626 625
f  625 626 627
f  625 627 629
f  627 628 629
f  630 631 602
f  630 601 1217
f  631 632 603
f  630 632 631
f  630 1217 632
f  401 635 392
f  640 391 634
f  503 634 485
f  642 486 636
f  639 413 633
f  641 638 635
f  643 636 637
f  644 637 638
f  401 641 635
f  504 486 642
f  503 640 634
f  400 640 401
f  401 640 641
f  503 504 640
f  504 641 640
f  504 642 641
f  424 413 639
f  641 644 638
f  641 642 644
f  642 636 643
f  643 637 644
f  642 643 644
f  647 633 645
f  438 646 431
f  648 645 646
f  639 633 647
f  647 645 648
f  438 648 646
f  617 656 588
f  677 649 652
f  675 651 650
f  686 652 661
f  676 653 651
f  678 662 653
f  682 650 657
f  679 655 654
f  681 654 656
f  680 660 655
f  683 657 658
f  684 658 659
f  687 665 662
f  688 661 663
f  689 663 664
f  690 666 665
f  692 669 667
f  691 667 666
f  693 664 668
f  632 673 603
f  694 659 669
f  695 670 660
f  695 668 670
f  696 672 671
f  698 671 673
f  697 1330 672
f  617 681 656
f  674 649 677
f  675 676 651
f  677 652 686
f  676 678 653
f  675 650 682
f  617 675 681
f  675 682 681
f  674 676 675
f  674 677 676
f  677 686 678
f  677 678 676
f  679 654 681
f  679 680 655
f  682 657 683
f  680 685 660
f  684 683 658
f  684 659 694
f  685 695 660
f  679 681 680
f  680 681 685
f  681 682 685
f  682 683 685
f  684 685 683
f  684 695 685
f  686 661 688
f  678 687 662
f  687 690 665
f  688 663 689
f  690 691 666
f  691 692 667
f  689 664 693
f  693 668 695
f  632 698 673
f  678 686 687
f  686 688 687
f  688 690 687
f  688 689 690
f  690 689 691
f  691 689 693
f  691 693 692
f  692 693 695
f  632 1218 698
f  692 694 669
f  696 671 698
f  696 697 672
f  684 694 695
f  692 695 694
f  696 698 697
f  697 698 1345
f  731 700 701
f  732 105 702
f  134 706 106
f  730 702 700
f  733 704 703
f  735 710 705
f  741 701 711
f  736 707 706
f  737 705 707
f  738 709 708
f  740 708 710
f  739 713 709
f  742 711 712
f  743 712 713
f  744 715 714
f  734 716 704
f  748 703 718
f  747 719 717
f  749 718 719
f  746 724 716
f  753 717 723
f  751 720 721
f  750 723 720
f  752 728 722
f  759 721 729
f  754 714 724
f  745 725 715
f  755 722 725
f  756 727 726
f  758 726 728
f  757 769 727
f  803 729 768
f  730 700 731
f  732 702 730
f  735 705 737
f  733 734 704
f  731 701 741
f  133 732 134
f  134 732 736
f  732 730 735
f  732 735 736
f  730 731 741
f  730 741 735
f  134 736 706
f  736 737 707
f  735 740 710
f  738 739 709
f  738 708 740
f  739 743 713
f  741 711 742
f  742 712 743
f  744 745 715
f  735 737 736
f  735 741 740
f  738 740 739
f  739 740 741
f  739 741 743
f  741 742 743
f  734 746 716
f  733 703 748
f  747 749 719
f  748 718 749
f  747 717 753
f  746 754 724
f  753 723 750
f  750 720 751
f  752 722 755
f  751 721 759
f  733 746 734
f  733 748 746
f  746 748 747
f  747 748 749
f  746 747 753
f  746 753 754
f  753 750 751
f  753 751 752
f  752 751 759
f  744 714 754
f  745 755 725
f  756 757 727
f  756 726 758
f  752 758 728
f  757 804 769
f  759 729 803
f  744 754 745
f  745 754 755
f  753 755 754
f  753 752 755
f  756 758 757
f  752 759 758
f  757 758 759
f  757 759 804
f  759 803 804
f  795 761 760
f  796 762 761
f  799 760 764
f  798 765 763
f  800 764 765
f  797 773 762
f  807 763 772
f  801 772 766
f  802 777 767
f  804 768 769
f  805 771 770
f  808 770 773
f  806 774 771
f  809 767 774
f  810 776 775
f  812 775 777
f  811 787 776
f  813 766 778
f  814 780 779
f  815 781 780
f  818 779 783
f  820 778 785
f  816 791 781
f  823 782 788
f  817 784 782
f  819 783 784
f  1073 788 1066
f  821 785 786
f  822 786 787
f  824 790 789
f  826 789 791
f  825 792 790
f  827 1068 792
f  828 794 793
f  795 796 761
f  795 760 799
f  796 797 762
f  798 800 765
f  799 764 800
f  798 763 807
f  797 808 773
f  801 766 813
f  807 772 801
f  809 802 767
f  795 797 796
f  795 799 797
f  797 799 798
f  798 799 800
f  797 798 807
f  797 807 808
f  807 801 813
f  807 813 802
f  803 768 804
f  805 806 771
f  805 770 808
f  806 809 774
f  802 812 777
f  810 811 776
f  810 775 812
f  805 808 806
f  806 808 809
f  807 809 808
f  807 802 809
f  802 820 812
f  810 812 811
f  811 812 820
f  814 815 780
f  815 816 781
f  814 779 818
f  813 778 820
f  817 782 823
f  816 826 791
f  818 783 819
f  817 819 784
f  823 788 1073
f  827 1075 1068
f  814 816 815
f  814 818 816
f  816 818 817
f  802 813 820
f  816 817 823
f  816 823 826
f  817 818 819
f  823 1073 1074
f  823 1074 1075
f  820 785 821
f  811 822 787
f  821 786 822
f  824 825 790
f  824 789 826
f  825 827 792
f  828 829 794
f  811 820 822
f  820 821 822
f  824 826 825
f  825 826 827
f  823 827 826
f  823 1075 827
f  866 831 830
f  867 832 831
f  868 842 832
f  870 830 834
f  871 834 835
f  869 835 833
f  872 837 836
f  873 838 837
f  874 848 838
f  886 836 850
f  875 851 839
f  879 833 843
f  876 841 840
f  878 840 842
f  877 845 841
f  880 843 844
f  881 844 845
f  885 839 849
f  882 847 846
f  884 846 848
f  883 859 847
f  894 849 858
f  887 850 851
f  888 853 852
f  889 854 853
f  890 862 854
f  892 852 856
f  891 857 855
f  891 855 863
f  893 856 857
f  895 858 859
f  896 861 860
f  898 860 862
f  897 865 861
f  900 863 864
f  901 864 865
f  866 867 831
f  866 830 870
f  867 868 832
f  869 871 835
f  870 834 871
f  869 833 879
f  872 873 837
f  872 836 886
f  873 874 838
f  875 887 851
f  875 839 885
f  866 868 867
f  866 870 868
f  868 869 878
f  870 869 868
f  870 871 869
f  872 874 873
f  872 886 874
f  886 875 874
f  886 887 875
f  874 875 884
f  868 878 842
f  876 877 841
f  876 840 878
f  877 881 845
f  879 843 880
f  880 844 881
f  874 884 848
f  882 883 847
f  882 846 884
f  883 895 859
f  885 849 894
f  869 879 878
f  876 878 877
f  877 878 879
f  877 879 881
f  879 880 881
f  875 885 884
f  882 884 883
f  883 884 885
f  883 885 895
f  885 894 895
f  886 850 887
f  888 889 853
f  889 890 854
f  888 852 892
f  891 893 857
f  892 856 893
f  888 890 889
f  888 892 890
f  890 892 891
f  892 893 891
f  890 891 898
f  890 898 862
f  891 863 899
f  894 858 895
f  896 897 861
f  898 896 860
f  897 901 865
f  899 863 900
f  900 864 901
f  891 899 898
f  898 897 896
f  898 899 897
f  897 899 901
f  899 900 901
f  969 902 903
f  982 904 916
f  970 906 904
f  971 903 905
f  974 905 908
f  972 907 906
f  973 909 907
f  975 910 909
f  976 911 910
f  978 908 912
f  979 914 913
f  968 913 902
f  980 918 914
f  981 917 915
f  983 916 917
f  985 915 919
f  984 920 918
f  987 919 921
f  986 922 920
f  989 921 923
f  988 927 922
f  977 924 911
f  991 912 925
f  990 925 924
f  992 923 926
f  994 926 928
f  997 928 931
f  993 933 927
f  995 934 929
f  996 929 930
f  998 931 932
f  1000 932 934
f  999 935 933
f  1001 930 935
f  1002 937 936
f  1003 938 937
f  1006 936 940
f  1005 941 939
f  1007 940 941
f  1008 943 942
f  1004 949 938
f  1010 939 944
f  1011 946 945
f  1019 944 953
f  1013 948 947
f  1015 947 949
f  1014 952 948
f  1016 945 950
f  1017 950 951
f  1012 954 946
f  1021 953 955
f  1020 956 954
f  1024 955 958
f  1022 957 956
f  1025 958 959
f  1023 960 957
f  1026 961 960
f  1027 963 961
f  1028 951 962
f  1018 965 952
f  1029 962 963
f  1030 959 964
f  1031 964 965
f  1032 967 966
f  969 968 902
f  969 903 971
f  982 970 904
f  972 906 970
f  971 905 974
f  972 973 907
f  973 975 909
f  974 908 978
f  975 976 910
f  976 977 911
f  978 912 991
f  969 982 968
f  969 970 982
f  969 971 970
f  971 972 970
f  971 974 973
f  971 973 972
f  973 974 975
f  975 974 976
f  974 978 976
f  978 977 976
f  979 913 968
f  983 917 981
f  979 980 914
f  981 915 985
f  983 982 916
f  980 984 918
f  984 986 920
f  985 919 987
f  987 921 989
f  986 988 922
f  989 923 992
f  977 990 924
f  990 991 925
f  988 993 927
f  992 926 994
f  994 928 997
f  993 999 933
f  995 929 996
f  995 1000 934
f  996 930 1001
f  997 931 998
f  998 932 1000
f  999 1001 935
f  979 968 983
f  979 983 981
f  979 981 980
f  980 981 984
f  968 982 983
f  984 981 985
f  984 985 986
f  985 987 986
f  986 987 988
f  987 989 988
f  988 989 993
f  977 991 990
f  978 991 977
f  989 992 993
f  993 992 994
f  994 997 999
f  993 994 999
f  995 996 1000
f  997 998 999
f  999 998 1001
f  996 1001 1000
f  998 1000 1001
f  1002 1003 937
f  1003 1004 938
f  1002 936 1006
f  1005 1007 941
f  1006 940 1007
f  1008 1009 943
f  1002 1004 1003
f  1002 1005 1004
f  1002 1006 1005
f  1005 1006 1007
f  1005 939 1010
f  1010 944 1019
f  1011 1012 946
f  1011 945 1016
f  1004 1015 949
f  1013 1014 948
f  1013 947 1015
f  1014 1018 952
f  1016 950 1017
f  1019 953 1021
f  1012 1020 954
f  1021 955 1024
f  1020 1022 956
f  1022 1023 957
f  1024 958 1025
f  1025 959 1030
f  1023 1026 960
f  1027 1029 963
f  1026 1027 961
f  1017 951 1028
f  1028 962 1029
f  1018 1031 965
f  1030 964 1031
f  1032 1033 967
f  1004 1005 1010
f  1004 1010 1011
f  1004 1011 1015
f  1010 1012 1011
f  1010 1019 1012
f  1013 1015 1014
f  1015 1011 1016
f  1015 1016 1018
f  1014 1015 1018
f  1016 1017 1018
f  1019 1020 1012
f  1019 1021 1020
f  1021 1022 1020
f  1021 1024 1022
f  1022 1024 1023
f  1023 1024 1025
f  1017 1028 1018
f  1018 1028 1031
f  1028 1029 1031
f  1027 1031 1029
f  1023 1025 1026
f  1026 1025 1030
f  1026 1030 1027
f  1027 1030 1031
f  1009 1034 943
f  1052 942 1036
f  1051 1037 1035
f  1053 1036 1037
f  1055 1038 1039
f  1056 1040 1034
f  1057 1035 1041
f  1056 966 1040
f  1033 1042 967
f  1058 1043 1042
f  1054 1041 1038
f  1059 1046 1043
f  1060 1045 1044
f  1063 1039 1047
f  1062 1044 1046
f  1061 1049 1045
f  1064 1047 1048
f  1065 1048 1049
f  1008 942 1052
f  1009 1050 1034
f  1052 1036 1053
f  1051 1053 1037
f  1054 1038 1055
f  1008 1050 1009
f  1008 1052 1050
f  1050 1052 1051
f  1051 1052 1053
f  1050 1056 1034
f  1051 1035 1057
f  1057 1041 1054
f  1032 966 1056
f  1033 1058 1042
f  1058 1059 1043
f  1055 1039 1063
f  1060 1044 1062
f  1060 1061 1045
f  1059 1062 1046
f  1063 1047 1064
f  1061 1065 1049
f  1050 1051 1057
f  1050 1057 1056
f  1032 1056 1033
f  1056 1057 1058
f  1033 1056 1058
f  1057 1059 1058
f  1057 1054 1055
f  1057 1055 1059
f  1055 1063 1059
f  1060 1062 1061
f  1059 1063 1062
f  1061 1062 1063
f  1061 1063 1065
f  1064 1048 1065
f  1063 1064 1065
f  1074 1066 1067
f  1075 1069 1068
f  1077 1067 1070
f  1076 793 1069
f  829 1072 794
f  1078 1070 1071
f  1079 1071 1072
f  1073 1066 1074
f  1074 1067 1077
f  1075 1074 1077
f  1075 1076 1069
f  828 793 1076
f  1077 1070 1078
f  829 1079 1072
f  1078 1071 1079
f  1075 1077 1076
f  828 1076 829
f  829 1076 1077
f  829 1077 1079
f  1077 1078 1079
f  1126 1082 1083
f  1127 1083 1084
f  1128 1093 1085
f  1129 1085 1086
f  1130 1086 1087
f  1125 1088 1082
f  1131 1090 1088
f  1132 1087 1089
f  1134 1089 1091
f  1133 1168 1090
f  1206 1091 1169
f  1135 1084 1092
f  1136 1094 1093
f  1138 1092 1095
f  1137 1096 1094
f  1139 1097 1096
f  1140 1099 1097
f  1141 1095 1098
f  1142 1100 1099
f  1144 1098 1101
f  1143 1101 1100
f  1145 1178 1102
f  1146 1102 1103
f  1147 1105 1104
f  1148 1106 1105
f  1154 1104 1111
f  1150 1112 1107
f  1151 1107 1108
f  1149 1188 1106
f  1152 1110 1109
f  1158 1108 1115
f  1226 1109 1189
f  1155 1111 1112
f  1156 1114 1113
f  1160 1115 1117
f  1153 1116 1110
f  1159 1118 1116
f  1165 1117 1122
f  1161 1119 1118
f  1162 1120 1119
f  1163 1121 1120
f  1166 1122 1123
f  1167 1123 1124
f  1125 1082 1126
f  1127 1126 1083
f  1128 1085 1129
f  1127 1084 1135
f  1130 1129 1086
f  1125 1131 1088
f  1130 1087 1132
f  1132 1089 1134
f  1131 1133 1090
f  1133 1205 1168
f  1134 1091 1206
f  1128 1136 1093
f  1135 1092 1138
f  1136 1137 1094
f  1137 1139 1096
f  1138 1095 1141
f  1139 1140 1097
f  1140 1142 1099
f  1142 1143 1100
f  1141 1098 1144
f  1143 1144 1101
f  1145 1102 1146
f  1125 1126 1130
f  1127 1129 1126
f  1127 1128 1129
f  1127 1135 1128
f  1126 1129 1130
f  1125 1132 1131
f  1125 1130 1132
f  1131 1132 1133
f  1133 1132 1134
f  1133 1134 1205
f  1134 1206 1205
f  1128 1135 1136
f  1135 1137 1136
f  1135 1138 1137
f  1137 1138 1139
f  1139 1138 1140
f  1138 1141 1140
f  1140 1141 1142
f  1142 1144 1143
f  1141 1144 1142
f  1145 1146 1215
f  1147 1148 1105
f  1148 1149 1106
f  1147 1104 1154
f  1150 1155 1112
f  1150 1107 1151
f  1149 1225 1188
f  1151 1108 1158
f  1152 1153 1110
f  1152 1109 1226
f  1154 1111 1155
f  1156 1157 1114
f  1158 1115 1160
f  1153 1159 1116
f  1160 1117 1165
f  1159 1161 1118
f  1161 1162 1119
f  1162 1163 1120
f  1163 1164 1121
f  1165 1122 1166
f  1166 1123 1167
f  1167 1124 1231
f  1147 1149 1148
f  1147 1150 1149
f  1147 1154 1150
f  1150 1154 1155
f  1149 1150 1151
f  1149 1151 1152
f  1149 1152 1225
f  1151 1153 1152
f  1151 1158 1153
f  1225 1152 1226
f  1153 1158 1159
f  1158 1160 1159
f  1159 1160 1161
f  1160 1165 1161
f  1165 1162 1161
f  1165 1166 1162
f  1162 1166 1163
f  1163 1166 1167
f  1163 1167 1164
f  1164 1167 1231
f  1205 1170 1168
f  1208 1169 1171
f  1207 1173 1170
f  1209 1171 1172
f  1212 1174 1175
f  1211 1172 1174
f  1210 1177 1173
f  1213 1175 1176
f  1215 1176 1178
f  1214 1179 1177
f  1216 1103 1179
f  1217 601 1180
f  1219 1180 1182
f  1218 1182 1181
f  1221 1183 1184
f  1223 1187 1186
f  1225 1186 1188
f  1224 1191 1187
f  1227 1189 1190
f  1229 1190 1192
f  1228 1194 1191
f  1230 1192 1193
f  1164 1193 1121
f  1231 1124 1194
f  1232 1196 1195
f  1237 1197 1200
f  1234 1184 1197
f  1235 1199 1198
f  1222 1198 1185
f  1236 1202 1199
f  1238 1200 1201
f  1239 1203 1202
f  1240 1204 1203
f  1241 1264 1204
f  1206 1169 1208
f  1205 1207 1170
f  1208 1171 1209
f  1207 1210 1173
f  1211 1174 1212
f  1209 1172 1211
f  1210 1214 1177
f  1212 1175 1213
f  1213 1176 1215
f  1145 1215 1178
f  1146 1103 1216
f  1214 1216 1179
f  1206 1207 1205
f  1206 1208 1207
f  1208 1210 1207
f  1208 1209 1210
f  1210 1209 1211
f  1210 1211 1214
f  1211 1212 1214
f  1212 1213 1214
f  1213 1216 1214
f  1146 1216 1215
f  1213 1215 1216
f  1217 1180 1219
f  1218 1219 1182
f  1234 1221 1184
f  1220 1183 1221
f  1218 1217 1219
f  632 1217 1218
f  1220 1221 1222
f  1221 1235 1222
f  1223 1224 1187
f  1223 1186 1225
f  1224 1228 1191
f  1226 1189 1227
f  1227 1190 1229
f  1229 1192 1230
f  1164 1230 1193
f  1228 1231 1194
f  1232 1233 1196
f  1223 1225 1224
f  1224 1225 1228
f  1225 1226 1228
f  1226 1227 1228
f  1227 1229 1228
f  1228 1229 1231
f  1229 1230 1231
f  1164 1231 1230
f  1234 1197 1237
f  1236 1199 1235
f  1235 1198 1222
f  1237 1200 1238
f  1236 1239 1202
f  1239 1240 1203
f  1240 1241 1204
f  1241 1298 1264
f  1234 1237 1236
f  1234 1235 1221
f  1234 1236 1235
f  1236 1237 1239
f  1237 1240 1239
f  1237 1238 1240
f  1240 1238 1241
f  1238 1298 1241
f  1157 1242 1114
f  1251 1113 1244
f  1250 1245 1243
f  1252 1244 1245
f  1290 1256 1242
f  1291 1243 1257
f  1292 1248 1258
f  1253 1257 1246
f  1254 1246 1247
f  1255 1261 1248
f  1296 1247 1262
f  1156 1113 1251
f  1157 1249 1242
f  1250 1243 1291
f  1250 1252 1245
f  1251 1244 1252
f  1249 1290 1242
f  1291 1257 1253
f  1253 1246 1254
f  1254 1247 1296
f  1292 1255 1248
f  1255 1295 1261
f  1156 1249 1157
f  1156 1251 1249
f  1249 1251 1250
f  1249 1250 1291
f  1250 1251 1252
f  1249 1291 1290
f  1291 1255 1292
f  1291 1253 1254
f  1291 1254 1255
f  1254 1296 1255
f  1255 1296 1295
f  1290 1195 1256
f  1233 1258 1196
f  1293 1260 1259
f  1295 1259 1261
f  1294 1277 1260
f  1297 1201 1263
f  1298 1265 1264
f  1299 1266 1265
f  1300 1267 1266
f  1301 1263 1267
f  1303 1268 1269
f  1312 1269 1278
f  1305 1271 1268
f  1304 1273 1270
f  1305 1272 1271
f  1306 1270 1272
f  1307 1274 1273
f  1308 1275 1274
f  1309 1280 1275
f  1310 1262 1276
f  1311 1276 1277
f  1313 1278 1279
f  1314 1281 1280
f  1315 1282 1281
f  1320 1279 1286
f  1316 1283 1282
f  1317 1284 1283
f  1319 1289 1285
f  1321 1286 1287
f  1322 1287 1288
f  1232 1195 1290
f  1233 1292 1258
f  1293 1294 1260
f  1293 1259 1295
f  1294 1311 1277
f  1296 1262 1310
f  1232 1290 1233
f  1233 1290 1292
f  1290 1291 1292
f  1293 1295 1294
f  1294 1295 1296
f  1294 1296 1311
f  1238 1201 1297
f  1298 1299 1265
f  1299 1300 1266
f  1300 1301 1267
f  1297 1263 1301
f  1302 1268 1303
f  1303 1269 1312
f  1302 1305 1268
f  1304 1270 1306
f  1305 1306 1272
f  1304 1307 1273
f  1307 1308 1274
f  1308 1309 1275
f  1238 1297 1298
f  1298 1297 1299
f  1297 1301 1299
f  1299 1301 1300
f  1302 1303 1307
f  1303 1309 1308
f  1303 1312 1309
f  1302 1304 1305
f  1302 1307 1304
f  1304 1306 1305
f  1307 1303 1308
f  1310 1276 1311
f  1296 1310 1311
f  1312 1278 1313
f  1313 1279 1320
f  1309 1314 1280
f  1314 1315 1281
f  1315 1316 1282
f  1316 1317 1283
f  1317 1318 1284
f  1320 1286 1321
f  1321 1287 1322
f  1322 1288 1425
f  1319 1323 1289
f  1309 1312 1314
f  1312 1315 1314
f  1312 1313 1315
f  1315 1313 1316
f  1313 1320 1316
f  1320 1317 1316
f  1320 1321 1317
f  1317 1321 1318
f  1318 1321 1322
f  1345 1181 1328
f  1220 1324 1183
f  1341 1326 1324
f  1342 1185 1325
f  1344 1325 1327
f  1343 1331 1326
f  1346 1328 1329
f  1347 1329 1330
f  1348 1333 1331
f  1349 1327 1332
f  1351 1332 1334
f  1350 1337 1333
f  1352 1334 1335
f  1353 1335 1336
f  1354 1340 1337
f  1355 1336 1338
f  1356 1338 1339
f  1218 1181 1345
f  1220 1341 1324
f  1342 1222 1185
f  1342 1325 1344
f  1341 1343 1326
f  1343 1348 1331
f  698 1218 1345
f  1220 1222 1342
f  1220 1342 1341
f  1341 1342 1343
f  1342 1344 1343
f  1343 1344 1348
f  1348 1344 1349
f  697 1347 1330
f  1345 1328 1346
f  1346 1329 1347
f  697 1345 1347
f  1345 1346 1347
f  1344 1327 1349
f  1348 1350 1333
f  1349 1332 1351
f  1351 1334 1352
f  1350 1354 1337
f  1352 1335 1353
f  1353 1336 1355
f  1356 1355 1338
f  1354 1357 1340
f  1348 1349 1350
f  1349 1351 1350
f  1350 1351 1354
f  1351 1352 1354
f  1352 1353 1354
f  1353 1355 1357
f  1356 1357 1355
f  1354 1353 1357
f  1398 1358 1359
f  1397 1364 1358
f  1399 1361 1360
f  1400 1375 1361
f  1402 1362 1363
f  1403 1339 1364
f  1404 1359 1365
f  1357 1365 1340
f  1401 1366 1362
f  1407 1363 1368
f  1405 1367 1366
f  1408 1368 1369
f  1409 1369 1370
f  1410 1370 1371
f  1406 1372 1367
f  1411 1373 1372
f  1412 1393 1373
f  1413 1360 1374
f  1418 1374 1379
f  1414 1382 1375
f  1318 1377 1284
f  1416 1378 1377
f  1417 1379 1378
f  1415 1380 1376
f  1420 1376 1381
f  1421 1383 1382
f  1422 1384 1383
f  1423 1385 1384
f  1424 1395 1385
f  1425 1288 1386
f  1426 1386 1387
f  1419 1387 1380
f  1427 1381 1388
f  1428 1388 1389
f  1429 1389 1390
f  1430 1371 1391
f  1431 1391 1392
f  1432 1396 1393
f  1434 1394 1395
f  1433 1392 1394
f  1435 1390 1396
f  1397 1358 1398
f  1398 1359 1404
f  1399 1360 1413
f  1399 1400 1361
f  1401 1362 1402
f  1402 1363 1407
f  1397 1398 1403
f  1399 1413 1400
f  1401 1402 1407
f  1356 1339 1403
f  1397 1403 1364
f  1357 1404 1365
f  1401 1405 1366
f  1405 1406 1367
f  1407 1368 1408
f  1408 1369 1409
f  1409 1370 1410
f  1406 1411 1372
f  1411 1412 1373
f  1356 1404 1357
f  1356 1403 1404
f  1403 1398 1404
f  1401 1407 1405
f  1407 1406 1405
f  1407 1408 1406
f  1408 1409 1411
f  1409 1410 1412
f  1406 1408 1411
f  1411 1409 1412
f  1410 1432 1412
f  1400 1414 1375
f  1413 1374 1418
f  1414 1421 1382
f  1318 1416 1377
f  1416 1417 1378
f  1418 1379 1417
f  1415 1376 1420
f  1419 1380 1415
f  1420 1381 1427
f  1421 1422 1383
f  1422 1423 1384
f  1423 1424 1385
f  1424 1434 1395
f  1426 1425 1386
f  1419 1426 1387
f  1427 1388 1428
f  1428 1389 1429
f  1429 1390 1435
f  1413 1414 1400
f  1413 1418 1415
f  1413 1415 1421
f  1413 1421 1414
f  1416 1426 1417
f  1418 1417 1419
f  1418 1419 1415
f  1415 1420 1421
f  1417 1426 1419
f  1421 1420 1422
f  1422 1420 1427
f  1422 1427 1423
f  1423 1428 1424
f  1424 1429 1434
f  1318 1425 1416
f  1416 1425 1426
f  1318 1322 1425
f  1423 1427 1428
f  1424 1428 1429
f  1410 1371 1430
f  1430 1391 1431
f  1433 1431 1392
f  1412 1432 1393
f  1433 1394 1434
f  1432 1435 1396
f  1410 1430 1432
f  1430 1431 1432
f  1432 1431 1435
f  1433 1435 1431
f  1433 1434 1435
f  1434 1429 1435
f  1323 1437 1289
f  1444 1436 1438
f  1442 1441 1436
f  1443 1448 1437
f  1445 1438 1439
f  1446 1285 1440
f  1447 1440 1441
f  1319 1285 1446
f  1442 1436 1444
f  1323 1443 1437
f  1444 1438 1445
f  1445 1439 1480
f  1442 1447 1441
f  1319 1442 1323
f  1323 1442 1443
f  1442 1444 1443
f  1319 1446 1442
f  1444 1445 1443
f  1443 1445 1476
f  1446 1447 1442
f  1446 1440 1447
f  1478 1449 1450
f  1476 1451 1448
f  1480 1439 1452
f  1479 1453 1451
f  1481 1456 1453
f  1482 1452 1454
f  1483 1454 1455
f  1500 1455 1472
f  1484 1457 1456
f  1485 1458 1457
f  1486 1459 1458
f  1477 1462 1449
f  1488 1450 1460
f  1489 1460 1461
f  1490 1466 1462
f  1491 1461 1463
f  1492 1463 1464
f  1493 1464 1465
f  1494 1467 1466
f  1497 1465 1469
f  1496 1469 1468
f  1495 1470 1467
f  1487 1468 1459
f  1499 1475 1471
f  1498 1471 1470
f  1501 1472 1473
f  1502 1473 1474
f  1503 1474 1475
f  1443 1476 1448
f  1477 1449 1478
f  1478 1450 1488
f  1476 1479 1451
f  1480 1452 1482
f  1479 1481 1453
f  1481 1484 1456
f  1482 1454 1483
f  1483 1455 1500
f  1484 1485 1457
f  1485 1486 1458
f  1486 1487 1459
f  1477 1478 1488
f  1445 1480 1476
f  1476 1480 1479
f  1479 1480 1482
f  1479 1482 1481
f  1481 1482 1483
f  1481 1483 1484
f  1484 1483 1500
f  1484 1500 1485
f  1485 1500 1501
f  1485 1501 1486
f  1501 1502 1486
f  1486 1503 1487
f  1486 1502 1503
f  1477 1490 1462
f  1488 1460 1489
f  1490 1494 1466
f  1489 1461 1491
f  1491 1463 1492
f  1492 1464 1493
f  1494 1495 1467
f  1493 1465 1497
f  1496 1497 1469
f  1495 1498 1470
f  1496 1468 1487
f  1498 1499 1471
f  1477 1488 1490
f  1488 1489 1490
f  1490 1489 1494
f  1489 1491 1494
f  1494 1491 1492
f  1492 1493 1495
f  1494 1492 1495
f  1493 1497 1495
f  1496 1498 1497
f  1495 1497 1498
f  1496 1487 1499
f  1496 1499 1498
f  1487 1503 1499
f  1500 1472 1501
f  1501 1473 1502
f  1502 1474 1503
f  1503 1475 1499
