# OpenSCAD obj exporter
v 0 0 0
v 0 0 1
v 2.46907 2.42857 1
v 2.46907 2.47221 1
v 2.13228 3.48916 1
v 2.13228 3.53281 1
v 2.25661 3.46775 1
v 2.45095 3.46775 1
v 2.64446 2.49445 1
v 2.80338 2.49445 1
v 2.64446 2.8584 1
v 2.80338 2.86335 1
v 2.76797 2.95804 1
v 2.97877 2.42857 1
v 2.97877 2.47221 1
v 2.59916 3.48916 1
v 2.59916 3.53281 1
v 2.92937 3.48916 1
v 2.92937 3.53281 1
v 3.06935 3.46775 1
v 3.16734 3.46775 1
v 3.28838 3.48916 1
v 3.28838 3.53281 1
v 3.35022 3.48916 1
v 3.35022 3.53281 1
v 2.46907 2.42857 1.2
v 2.46907 2.47221 1.2
v 2.13228 3.48916 1.2
v 2.13228 3.53281 1.2
v 2.25661 3.46775 1.2
v 2.45095 3.46775 1.2
v 2.64446 2.49445 1.2
v 2.80338 2.49445 1.2
v 2.64446 2.8584 1.2
v 2.80338 2.86335 1.2
v 2.76797 2.95804 1.2
v 2.97877 2.42857 1.2
v 2.97877 2.47221 1.2
v 2.59916 3.48916 1.2
v 2.59916 3.53281 1.2
v 2.92937 3.48916 1.2
v 2.92937 3.53281 1.2
v 3.06935 3.46775 1.2
v 3.16734 3.46775 1.2
v 3.28838 3.48916 1.2
v 3.28838 3.53281 1.2
v 3.35022 3.48916 1.2
v 3.35022 3.53281 1.2
v 3.68701 2.42857 1
v 3.68701 2.47221 1
v 3.8624 2.49445 1
v 4.02132 2.49445 1
v 4.19672 2.42857 1
v 4.19672 2.47221 1
v 3.8624 2.8584 1
v 3.98592 2.95804 1
v 4.02132 2.86335 1
v 3.47456 3.46775 1
v 3.66889 3.46775 1
v 3.81711 3.48916 1
v 3.81711 3.53281 1
v 4.14731 3.48916 1
v 4.14731 3.53281 1
v 5.01281 2.40305 1
v 5.05647 2.40305 1
v 4.28729 3.46775 1
v 4.38528 3.46775 1
v 4.50632 3.48916 1
v 4.50632 3.53281 1
v 4.55087 3.48916 1
v 4.55087 3.53281 1
v 4.64722 3.46775 1
v 4.81026 3.46775 1
v 4.97247 3.48916 1
v 4.97247 3.53281 1
v 3.68701 2.42857 1.2
v 3.68701 2.47221 1.2
v 3.8624 2.49445 1.2
v 4.02132 2.49445 1.2
v 4.19672 2.42857 1.2
v 4.19672 2.47221 1.2
v 3.8624 2.8584 1.2
v 3.98592 2.95804 1.2
v 4.02132 2.86335 1.2
v 3.47456 3.46775 1.2
v 3.66889 3.46775 1.2
v 3.81711 3.48916 1.2
v 3.81711 3.53281 1.2
v 4.14731 3.48916 1.2
v 4.14731 3.53281 1.2
v 5.01281 2.40305 1.2
v 5.05647 2.40305 1.2
v 4.28729 3.46775 1.2
v 4.38528 3.46775 1.2
v 4.50632 3.48916 1.2
v 4.50632 3.53281 1.2
v 4.55087 3.48916 1.2
v 4.55087 3.53281 1.2
v 4.64722 3.46775 1.2
v 4.81026 3.46775 1.2
v 4.97247 3.48916 1.2
v 4.97247 3.53281 1.2
v 5.07293 2.68961 1
v 5.35043 3.16391 1
v 5.63698 2.40305 1
v 5.68062 2.40305 1
v 5.6938 2.68961 1
v 5.37019 3.4554 1
v 5.40725 3.4554 1
v 5.77203 3.48916 1
v 5.77203 3.53281 1
v 6.60462 2.40305 1
v 6.64827 2.40305 1
v 6.66474 2.68961 1
v 5.94412 3.46775 1
v 6.04129 3.46775 1
v 6.13763 3.48916 1
v 6.14268 3.48916 1
v 6.13763 3.53281 1
v 6.14268 3.53281 1
v 6.23902 3.46775 1
v 6.40206 3.46775 1
v 6.56428 3.48916 1
v 6.56428 3.53281 1
v 5.07293 2.68961 1.2
v 5.35043 3.16391 1.2
v 5.63698 2.40305 1.2
v 5.68062 2.40305 1.2
v 5.6938 2.68961 1.2
v 5.37019 3.4554 1.2
v 5.40725 3.4554 1.2
v 5.77203 3.48916 1.2
v 5.77203 3.53281 1.2
v 6.60462 2.40305 1.2
v 6.64827 2.40305 1.2
v 6.66474 2.68961 1.2
v 5.94412 3.46775 1.2
v 6.04129 3.46775 1.2
v 6.13763 3.48916 1.2
v 6.14268 3.48916 1.2
v 6.13763 3.53281 1.2
v 6.14268 3.53281 1.2
v 6.23902 3.46775 1.2
v 6.40206 3.46775 1.2
v 6.56428 3.48916 1.2
v 6.56428 3.53281 1.2
v 3.68825 7.4154 1
v 3.86776 7.30579 1
v 3.93704 7.36435 1
v 4.10656 7.26925 1
v 4.10821 7.33265 1
v 4.1994 7.33831 1
v 3.57585 7.5909 1
v 3.53838 7.82506 1
v 3.73591 7.61468 1
v 3.71048 7.82672 1
v 3.57441 8.07529 1
v 3.73478 8.05357 1
v 3.68248 8.25613 1
v 3.81218 7.45945 1
v 3.80765 8.21208 1
v 3.86138 8.36576 1
v 3.93343 8.30534 1
v 4.10985 8.4023 1
v 4.11644 8.33642 1
v 4.19477 8.33158 1
v 4.30809 7.28222 1
v 4.28524 7.35529 1
v 4.35976 7.38175 1
v 4.41699 7.41581 1
v 4.49604 7.32112 1
v 4.6534 7.28571 1
v 4.6534 7.32936 1
v 4.78433 7.35159 1
v 4.94325 7.35159 1
v 4.44746 7.58051 1
v 4.50098 7.58051 1
v 4.27166 8.31707 1
v 4.28833 8.3918 1
v 4.34319 8.29371 1
v 4.40547 8.26232 1
v 4.43017 8.11903 1
v 4.48452 8.11903 1
v 4.47958 8.3603 1
v 4.94325 7.71884 1
v 4.94325 7.79296 1
v 5.02888 7.79296 1
v 4.64269 8.34631 1
v 4.64269 8.38995 1
v 4.78433 8.32489 1
v 4.94325 8.31583 1
v 5.02394 8.31583 1
v 5.05935 8.38995 1
v 3.68825 7.4154 1.2
v 3.86776 7.30579 1.2
v 3.93704 7.36435 1.2
v 4.10656 7.26925 1.2
v 4.10821 7.33265 1.2
v 4.1994 7.33831 1.2
v 3.57585 7.5909 1.2
v 3.53838 7.82506 1.2
v 3.73591 7.61468 1.2
v 3.71048 7.82672 1.2
v 3.57441 8.07529 1.2
v 3.73478 8.05357 1.2
v 3.68248 8.25613 1.2
v 3.81218 7.45945 1.2
v 3.80765 8.21208 1.2
v 3.86138 8.36576 1.2
v 3.93343 8.30534 1.2
v 4.10985 8.4023 1.2
v 4.11644 8.33642 1.2
v 4.19477 8.33158 1.2
v 4.30809 7.28222 1.2
v 4.28524 7.35529 1.2
v 4.35976 7.38175 1.2
v 4.41699 7.41581 1.2
v 4.49604 7.32112 1.2
v 4.6534 7.28571 1.2
v 4.6534 7.32936 1.2
v 4.78433 7.35159 1.2
v 4.94325 7.35159 1.2
v 4.44746 7.58051 1.2
v 4.50098 7.58051 1.2
v 4.27166 8.31707 1.2
v 4.28833 8.3918 1.2
v 4.34319 8.29371 1.2
v 4.40547 8.26232 1.2
v 4.43017 8.11903 1.2
v 4.48452 8.11903 1.2
v 4.47958 8.3603 1.2
v 4.94325 7.71884 1.2
v 4.94325 7.79296 1.2
v 5.02888 7.79296 1.2
v 4.64269 8.34631 1.2
v 4.64269 8.38995 1.2
v 4.78433 8.32489 1.2
v 4.94325 8.31583 1.2
v 5.02394 8.31583 1.2
v 5.05935 8.38995 1.2
v 5.12607 4.85714 1
v 5.12607 4.90078 1
v 5.26771 4.92302 1
v 5.42581 4.92302 1
v 5.56744 4.85714 1
v 5.56744 4.90078 1
v 5.68769 4.85714 1
v 5.68769 4.90078 1
v 5.82933 4.92302 1
v 5.12607 5.91774 1
v 5.12607 5.96138 1
v 5.26771 5.89632 1
v 5.42581 5.89632 1
v 5.56744 5.91774 1
v 5.56744 5.96138 1
v 5.68769 5.91774 1
v 5.68769 5.96138 1
v 5.82933 5.89632 1
v 5.98743 4.92302 1
v 6.12906 4.85714 1
v 6.12906 4.90078 1
v 6.24931 4.85714 1
v 6.24931 4.90078 1
v 6.39095 4.92302 1
v 6.54905 4.92302 1
v 6.69068 4.85714 1
v 6.69068 4.90078 1
v 5.98743 5.89632 1
v 6.12906 5.91774 1
v 6.12906 5.96138 1
v 6.24931 5.91774 1
v 6.24931 5.96138 1
v 6.39095 5.89632 1
v 6.54905 5.89632 1
v 6.69068 5.91774 1
v 6.69068 5.96138 1
v 5.12607 4.85714 1.2
v 5.12607 4.90078 1.2
v 5.26771 4.92302 1.2
v 5.42581 4.92302 1.2
v 5.56744 4.85714 1.2
v 5.56744 4.90078 1.2
v 5.68769 4.85714 1.2
v 5.68769 4.90078 1.2
v 5.82933 4.92302 1.2
v 5.12607 5.91774 1.2
v 5.12607 5.96138 1.2
v 5.26771 5.89632 1.2
v 5.42581 5.89632 1.2
v 5.56744 5.91774 1.2
v 5.56744 5.96138 1.2
v 5.68769 5.91774 1.2
v 5.68769 5.96138 1.2
v 5.82933 5.89632 1.2
v 5.98743 4.92302 1.2
v 6.12906 4.85714 1.2
v 6.12906 4.90078 1.2
v 6.24931 4.85714 1.2
v 6.24931 4.90078 1.2
v 6.39095 4.92302 1.2
v 6.54905 4.92302 1.2
v 6.69068 4.85714 1.2
v 6.69068 4.90078 1.2
v 5.98743 5.89632 1.2
v 6.12906 5.91774 1.2
v 6.12906 5.96138 1.2
v 6.24931 5.91774 1.2
v 6.24931 5.96138 1.2
v 6.39095 5.89632 1.2
v 6.54905 5.89632 1.2
v 6.69068 5.91774 1.2
v 6.69068 5.96138 1.2
v 5.11864 7.28571 1
v 5.11864 7.32936 1
v 5.58064 7.28571 1
v 5.58064 7.32936 1
v 5.72228 7.35159 1
v 5.80873 7.35159 1
v 5.06758 7.71884 1
v 5.14982 7.80881 1
v 5.23711 7.74087 1
v 5.23433 7.85636 1
v 5.36196 7.80695 1
v 5.28404 7.93973 1
v 5.43885 7.91544 1
v 5.15219 8.30121 1
v 5.23721 8.25736 1
v 5.30062 8.06304 1
v 5.28476 8.17955 1
v 5.46448 8.06469 1
v 5.3632 8.30863 1
v 5.58064 8.34631 1
v 5.58064 8.38995 1
v 5.72228 8.32489 1
v 5.80873 8.27878 1
v 5.95695 7.28571 1
v 5.95695 7.32936 1
v 6.48972 7.28571 1
v 6.56959 7.28571 1
v 5.91496 8.38995 1
v 6.48312 7.57227 1
v 6.33491 8.34631 1
v 6.33491 8.38995 1
v 6.48312 8.32489 1
v 6.56959 8.32489 1
v 6.71123 8.34631 1
v 6.71123 8.38995 1
v 5.11864 7.28571 1.2
v 5.11864 7.32936 1.2
v 5.58064 7.28571 1.2
v 5.58064 7.32936 1.2
v 5.72228 7.35159 1.2
v 5.80873 7.35159 1.2
v 5.06758 7.71884 1.2
v 5.14982 7.80881 1.2
v 5.23711 7.74087 1.2
v 5.23433 7.85636 1.2
v 5.36196 7.80695 1.2
v 5.28404 7.93973 1.2
v 5.43885 7.91544 1.2
v 5.15219 8.30121 1.2
v 5.23721 8.25736 1.2
v 5.30062 8.06304 1.2
v 5.28476 8.17955 1.2
v 5.46448 8.06469 1.2
v 5.3632 8.30863 1.2
v 5.58064 8.34631 1.2
v 5.58064 8.38995 1.2
v 5.72228 8.32489 1.2
v 5.80873 8.27878 1.2
v 5.95695 7.28571 1.2
v 5.95695 7.32936 1.2
v 6.48972 7.28571 1.2
v 6.56959 7.28571 1.2
v 5.91496 8.38995 1.2
v 6.48312 7.57227 1.2
v 6.33491 8.34631 1.2
v 6.33491 8.38995 1.2
v 6.48312 8.32489 1.2
v 6.56959 8.32489 1.2
v 6.71123 8.34631 1.2
v 6.71123 8.38995 1.2
v 0 17 0
v 1.22848 12.1429 1
v 1.22848 12.2214 1
v 1.48342 12.2614 1
v 1.63905 12.2614 1
v 1.22848 12.1429 1.2
v 1.22848 12.2214 1.2
v 1.48342 12.2614 1.2
v 1.63905 12.2614 1.2
v 1.90583 12.1429 1
v 1.90583 12.2214 1
v 2.3668 12.1429 1
v 2.41867 12.1429 1
v 2.47648 12.6186 1
v 2.94486 12.1429 1
v 2.94486 12.2214 1
v 3.21165 12.2614 1
v 1.90583 12.1429 1.2
v 1.90583 12.2214 1.2
v 2.3668 12.1429 1.2
v 2.41867 12.1429 1.2
v 2.47648 12.6186 1.2
v 2.94486 12.1429 1.2
v 2.94486 12.2214 1.2
v 3.21165 12.2614 1.2
v 1.22848 14.0519 1
v 1.22848 14.1305 1
v 0.96501 14.5989 1
v 0.889828 14.6987 1
v 0.844719 14.8099 1
v 1.06289 14.5204 1
v 1.17602 14.4733 1
v 1.48342 14.0134 1
v 1.63905 13.8518 1
v 1.3044 14.4576 1
v 1.43277 14.4733 1
v 1.54588 14.5204 1
v 1.64373 14.5989 1
v 1.22848 14.0519 1.2
v 1.22848 14.1305 1.2
v 0.96501 14.5989 1.2
v 0.889828 14.6987 1.2
v 0.844719 14.8099 1.2
v 1.06289 14.5204 1.2
v 1.17602 14.4733 1.2
v 1.48342 14.0134 1.2
v 1.63905 13.8518 1.2
v 1.3044 14.4576 1.2
v 1.43277 14.4733 1.2
v 1.54588 14.5204 1.2
v 1.64373 14.5989 1.2
v 0.829682 14.9324 1
v 0 17 1
v 0.844937 15.0588 1
v 0.890702 15.1713 1
v 0.966977 15.2698 1
v 1.06551 15.3461 1
v 1.17799 15.3919 1
v 1.4308 15.3919 1
v 1.54326 15.3461 1
v 1.64176 15.2698 1
v 1.3044 15.4071 1
v 0.829682 14.9324 1.2
v 0.844937 15.0588 1.2
v 0.890702 15.1713 1.2
v 0.966977 15.2698 1.2
v 1.06551 15.3461 1.2
v 1.17799 15.3919 1.2
v 1.4308 15.3919 1.2
v 1.54326 15.3461 1.2
v 1.64176 15.2698 1.2
v 1.3044 15.4071 1.2
v 1.83025 14.1305 1
v 1.71895 14.6987 1
v 1.76407 14.8099 1
v 3.21165 13.8518 1
v 3.18201 14.1305 1
v 1.83025 14.1305 1.2
v 1.71895 14.6987 1.2
v 1.76407 14.8099 1.2
v 3.21165 13.8518 1.2
v 3.18201 14.1305 1.2
v 1.77912 14.9324 1
v 1.76386 15.0588 1
v 1.71807 15.1713 1
v 1.77912 14.9324 1.2
v 1.76386 15.0588 1.2
v 1.71807 15.1713 1.2
v 3.57585 10.0195 1
v 3.68825 9.84397 1
v 3.73591 10.0433 1
v 3.53838 10.2536 1
v 3.57441 10.5039 1
v 3.71048 10.2553 1
v 3.73478 10.4821 1
v 3.86776 9.73436 1
v 3.93704 9.79292 1
v 3.81218 9.88803 1
v 4.10656 9.69782 1
v 4.10821 9.76122 1
v 4.1994 9.76688 1
v 4.30809 9.71079 1
v 4.28524 9.78386 1
v 4.35976 9.81032 1
v 4.41699 9.84438 1
v 4.49604 9.74969 1
v 4.44746 10.0091 1
v 4.50098 10.0091 1
v 4.43017 10.5476 1
v 4.48452 10.5476 1
v 4.6534 9.71429 1
v 4.6534 9.75793 1
v 4.78433 9.78016 1
v 4.94325 9.78016 1
v 4.94325 10.1474 1
v 4.94325 10.2215 1
v 5.02888 10.2215 1
v 3.57585 10.0195 1.2
v 3.68825 9.84397 1.2
v 3.73591 10.0433 1.2
v 3.53838 10.2536 1.2
v 3.57441 10.5039 1.2
v 3.71048 10.2553 1.2
v 3.73478 10.4821 1.2
v 3.86776 9.73436 1.2
v 3.93704 9.79292 1.2
v 3.81218 9.88803 1.2
v 4.10656 9.69782 1.2
v 4.10821 9.76122 1.2
v 4.1994 9.76688 1.2
v 4.30809 9.71079 1.2
v 4.28524 9.78386 1.2
v 4.35976 9.81032 1.2
v 4.41699 9.84438 1.2
v 4.49604 9.74969 1.2
v 4.44746 10.0091 1.2
v 4.50098 10.0091 1.2
v 4.43017 10.5476 1.2
v 4.48452 10.5476 1.2
v 4.6534 9.71429 1.2
v 4.6534 9.75793 1.2
v 4.78433 9.78016 1.2
v 4.94325 9.78016 1.2
v 4.94325 10.1474 1.2
v 4.94325 10.2215 1.2
v 5.02888 10.2215 1.2
v 3.68248 10.6847 1
v 3.80765 10.6407 1
v 3.86138 10.7943 1
v 3.93343 10.7339 1
v 4.10985 10.8309 1
v 4.11644 10.765 1
v 4.19477 10.7602 1
v 3.75117 12.1429 1
v 3.49623 12.2614 1
v 3.75117 12.2214 1
v 4.27166 10.7456 1
v 4.28833 10.8204 1
v 4.34319 10.7223 1
v 4.40547 10.6909 1
v 4.47958 10.7889 1
v 4.64269 10.7749 1
v 4.64269 10.8185 1
v 4.78433 10.7535 1
v 4.94325 10.7444 1
v 5.02394 10.7444 1
v 5.05935 10.8185 1
v 4.70593 12.1429 1
v 4.70593 12.2214 1
v 4.94159 12.2614 1
v 3.68248 10.6847 1.2
v 3.80765 10.6407 1.2
v 3.86138 10.7943 1.2
v 3.93343 10.7339 1.2
v 4.10985 10.8309 1.2
v 4.11644 10.765 1.2
v 4.19477 10.7602 1.2
v 3.75117 12.1429 1.2
v 3.49623 12.2614 1.2
v 3.75117 12.2214 1.2
v 4.27166 10.7456 1.2
v 4.28833 10.8204 1.2
v 4.34319 10.7223 1.2
v 4.40547 10.6909 1.2
v 4.47958 10.7889 1.2
v 4.64269 10.7749 1.2
v 4.64269 10.8185 1.2
v 4.78433 10.7535 1.2
v 4.94325 10.7444 1.2
v 5.02394 10.7444 1.2
v 5.05935 10.8185 1.2
v 4.70593 12.1429 1.2
v 4.70593 12.2214 1.2
v 4.94159 12.2614 1.2
v 5.11864 9.71429 1
v 5.11864 9.75793 1
v 5.06758 10.1474 1
v 5.14982 10.2374 1
v 5.23711 10.1694 1
v 5.23433 10.2849 1
v 5.36196 10.2355 1
v 5.43885 10.344 1
v 5.28404 10.3683 1
v 5.30062 10.4916 1
v 5.28476 10.6081 1
v 5.46448 10.4933 1
v 5.58064 9.71429 1
v 5.58064 9.75793 1
v 5.72228 9.78016 1
v 5.80873 9.78016 1
v 5.95695 9.71429 1
v 5.95695 9.75793 1
v 6.48972 9.71429 1
v 6.48312 10.0008 1
v 6.56959 9.71429 1
v 5.11864 9.71429 1.2
v 5.11864 9.75793 1.2
v 5.06758 10.1474 1.2
v 5.14982 10.2374 1.2
v 5.23711 10.1694 1.2
v 5.23433 10.2849 1.2
v 5.36196 10.2355 1.2
v 5.43885 10.344 1.2
v 5.28404 10.3683 1.2
v 5.30062 10.4916 1.2
v 5.28476 10.6081 1.2
v 5.46448 10.4933 1.2
v 5.58064 9.71429 1.2
v 5.58064 9.75793 1.2
v 5.72228 9.78016 1.2
v 5.80873 9.78016 1.2
v 5.95695 9.71429 1.2
v 5.95695 9.75793 1.2
v 6.48972 9.71429 1.2
v 6.48312 10.0008 1.2
v 6.56959 9.71429 1.2
v 5.15219 10.7298 1
v 5.23721 10.6859 1
v 5.3632 10.7372 1
v 5.58064 10.7749 1
v 5.58064 10.8185 1
v 5.72228 10.7535 1
v 5.80873 10.7074 1
v 5.22766 12.2614 1
v 5.54337 12.1429 1
v 5.54337 12.2214 1
v 5.91496 10.8185 1
v 6.33491 10.7749 1
v 6.33491 10.8185 1
v 6.48312 10.7535 1
v 6.56959 10.7535 1
v 6.71123 10.7749 1
v 6.71123 10.8185 1
v 6.39719 12.1429 1
v 6.39719 12.2214 1
v 6.65213 12.2614 1
v 5.15219 10.7298 1.2
v 5.23721 10.6859 1.2
v 5.3632 10.7372 1.2
v 5.58064 10.7749 1.2
v 5.58064 10.8185 1.2
v 5.72228 10.7535 1.2
v 5.80873 10.7074 1.2
v 5.22766 12.2614 1.2
v 5.54337 12.1429 1.2
v 5.54337 12.2214 1.2
v 5.91496 10.8185 1.2
v 6.33491 10.7749 1.2
v 6.33491 10.8185 1.2
v 6.48312 10.7535 1.2
v 6.56959 10.7535 1.2
v 6.71123 10.7749 1.2
v 6.71123 10.8185 1.2
v 6.39719 12.1429 1.2
v 6.39719 12.2214 1.2
v 6.65213 12.2614 1.2
v 3.49623 14.0134 1
v 3.75117 14.0519 1
v 3.75117 14.1305 1
v 4.68665 14.0519 1
v 4.68665 14.1305 1
v 4.94159 14.0134 1
v 3.49623 14.0134 1.2
v 3.75117 14.0519 1.2
v 3.75117 14.1305 1.2
v 4.68665 14.0519 1.2
v 4.68665 14.1305 1.2
v 4.94159 14.0134 1.2
v 5.22766 12.9225 1
v 5.22766 13.0559 1
v 5.45146 12.9225 1
v 5.3818 13.0559 1
v 5.59949 13.0844 1
v 5.75661 12.9621 1
v 5.7516 13.17 1
v 5.84109 13.3201 1
v 5.87092 13.542 1
v 5.84238 13.7518 1
v 5.22766 13.9971 1
v 5.3729 13.9971 1
v 5.43664 14.1305 1
v 5.60375 13.9708 1
v 5.75678 13.8918 1
v 5.98134 13.0811 1
v 6.11974 13.2764 1
v 6.16588 13.545 1
v 5.98357 13.9841 1
v 6.39719 14.0519 1
v 6.39719 14.1305 1
v 6.65213 14.0134 1
v 5.22766 12.9225 1.2
v 5.22766 13.0559 1.2
v 5.45146 12.9225 1.2
v 5.3818 13.0559 1.2
v 5.59949 13.0844 1.2
v 5.75661 12.9621 1.2
v 5.7516 13.17 1.2
v 5.84109 13.3201 1.2
v 5.87092 13.542 1.2
v 5.84238 13.7518 1.2
v 5.22766 13.9971 1.2
v 5.3729 13.9971 1.2
v 5.43664 14.1305 1.2
v 5.60375 13.9708 1.2
v 5.75678 13.8918 1.2
v 5.98134 13.0811 1.2
v 6.11974 13.2764 1.2
v 6.16588 13.545 1.2
v 5.98357 13.9841 1.2
v 6.39719 14.0519 1.2
v 6.39719 14.1305 1.2
v 6.65213 14.0134 1.2
v 13.5 0 0
v 6.94224 3.16391 1
v 7.22879 2.40305 1
v 7.27243 2.40305 1
v 7.2856 2.68961 1
v 6.962 3.4554 1
v 6.99906 3.4554 1
v 7.36384 3.48916 1
v 7.36384 3.53281 1
v 7.53593 3.46775 1
v 7.78142 2.42857 1
v 7.78142 2.47221 1
v 7.92305 2.49445 1
v 8.00951 2.49445 1
v 8.15773 2.42857 1
v 8.15773 2.47221 1
v 7.6331 3.46775 1
v 7.72944 3.48916 1
v 7.72944 3.53281 1
v 7.78142 3.48916 1
v 7.78142 3.53281 1
v 8.00951 3.42164 1
v 7.92305 3.46775 1
v 8.11574 3.53281 1
v 6.94224 3.16391 1.2
v 7.22879 2.40305 1.2
v 7.27243 2.40305 1.2
v 7.2856 2.68961 1.2
v 6.962 3.4554 1.2
v 6.99906 3.4554 1.2
v 7.36384 3.48916 1.2
v 7.36384 3.53281 1.2
v 7.53593 3.46775 1.2
v 7.78142 2.42857 1.2
v 7.78142 2.47221 1.2
v 7.92305 2.49445 1.2
v 8.00951 2.49445 1.2
v 8.15773 2.42857 1.2
v 8.15773 2.47221 1.2
v 7.6331 3.46775 1.2
v 7.72944 3.48916 1.2
v 7.72944 3.53281 1.2
v 7.78142 3.48916 1.2
v 7.78142 3.53281 1.2
v 8.00951 3.42164 1.2
v 7.92305 3.46775 1.2
v 8.11574 3.53281 1.2
v 8.6905 2.42857 1
v 8.77037 2.42857 1
v 8.6839 2.71513 1
v 8.99936 2.42857 1
v 8.99936 2.47221 1
v 9.141 2.49445 1
v 9.22745 2.49445 1
v 8.53569 3.48916 1
v 8.53569 3.53281 1
v 8.6839 3.46775 1
v 8.77037 3.46775 1
v 8.91201 3.48916 1
v 8.91201 3.53281 1
v 8.99936 3.48916 1
v 8.99936 3.53281 1
v 9.22745 3.42164 1
v 9.141 3.46775 1
v 9.37567 2.42857 1
v 9.37567 2.47221 1
v 9.90844 2.42857 1
v 9.98831 2.42857 1
v 9.90184 2.71513 1
v 9.33368 3.53281 1
v 9.75363 3.48916 1
v 9.75363 3.53281 1
v 9.90184 3.46775 1
v 9.98831 3.46775 1
v 8.6905 2.42857 1.2
v 8.77037 2.42857 1.2
v 8.6839 2.71513 1.2
v 8.99936 2.42857 1.2
v 8.99936 2.47221 1.2
v 9.141 2.49445 1.2
v 9.22745 2.49445 1.2
v 8.53569 3.48916 1.2
v 8.53569 3.53281 1.2
v 8.6839 3.46775 1.2
v 8.77037 3.46775 1.2
v 8.91201 3.48916 1.2
v 8.91201 3.53281 1.2
v 8.99936 3.48916 1.2
v 8.99936 3.53281 1.2
v 9.22745 3.42164 1.2
v 9.141 3.46775 1.2
v 9.37567 2.42857 1.2
v 9.37567 2.47221 1.2
v 9.90844 2.42857 1.2
v 9.98831 2.42857 1.2
v 9.90184 2.71513 1.2
v 9.33368 3.53281 1.2
v 9.75363 3.48916 1.2
v 9.75363 3.53281 1.2
v 9.90184 3.46775 1.2
v 9.98831 3.46775 1.2
v 6.81093 4.85714 1
v 6.81093 4.90078 1
v 6.95257 4.92302 1
v 7.11067 4.92302 1
v 7.2523 4.85714 1
v 7.2523 4.90078 1
v 7.37255 4.85714 1
v 7.37255 4.90078 1
v 7.51419 4.92302 1
v 6.81093 5.91774 1
v 6.81093 5.96138 1
v 6.95257 5.89632 1
v 7.11067 5.89632 1
v 7.2523 5.91774 1
v 7.2523 5.96138 1
v 7.37255 5.91774 1
v 7.37255 5.96138 1
v 7.51419 5.89632 1
v 7.67229 4.92302 1
v 7.81392 4.85714 1
v 7.81392 4.90078 1
v 7.93417 4.85714 1
v 7.93417 4.90078 1
v 8.07581 4.92302 1
v 8.23391 4.92302 1
v 8.37554 4.85714 1
v 8.37554 4.90078 1
v 7.67229 5.89632 1
v 7.81392 5.91774 1
v 7.81392 5.96138 1
v 7.93417 5.91774 1
v 7.93417 5.96138 1
v 8.07581 5.89632 1
v 8.23391 5.89632 1
v 8.37554 5.91774 1
v 8.37554 5.96138 1
v 6.81093 4.85714 1.2
v 6.81093 4.90078 1.2
v 6.95257 4.92302 1.2
v 7.11067 4.92302 1.2
v 7.2523 4.85714 1.2
v 7.2523 4.90078 1.2
v 7.37255 4.85714 1.2
v 7.37255 4.90078 1.2
v 7.51419 4.92302 1.2
v 6.81093 5.91774 1.2
v 6.81093 5.96138 1.2
v 6.95257 5.89632 1.2
v 7.11067 5.89632 1.2
v 7.2523 5.91774 1.2
v 7.2523 5.96138 1.2
v 7.37255 5.91774 1.2
v 7.37255 5.96138 1.2
v 7.51419 5.89632 1.2
v 7.67229 4.92302 1.2
v 7.81392 4.85714 1.2
v 7.81392 4.90078 1.2
v 7.93417 4.85714 1.2
v 7.93417 4.90078 1.2
v 8.07581 4.92302 1.2
v 8.23391 4.92302 1.2
v 8.37554 4.85714 1.2
v 8.37554 4.90078 1.2
v 7.67229 5.89632 1.2
v 7.81392 5.91774 1.2
v 7.81392 5.96138 1.2
v 7.93417 5.91774 1.2
v 7.93417 5.96138 1.2
v 8.07581 5.89632 1.2
v 8.23391 5.89632 1.2
v 8.37554 5.91774 1.2
v 8.37554 5.96138 1.2
v 6.96903 7.4154 1
v 7.14854 7.30579 1
v 7.21782 7.36435 1
v 7.38734 7.26925 1
v 7.38899 7.33265 1
v 7.48018 7.33831 1
v 7.58887 7.28222 1
v 7.56602 7.35529 1
v 6.85663 7.5909 1
v 6.81917 7.82506 1
v 7.01669 7.61468 1
v 7.09296 7.45945 1
v 6.99127 7.82672 1
v 6.85519 8.07529 1
v 7.01556 8.05357 1
v 7.08843 8.21208 1
v 6.96327 8.25613 1
v 7.14216 8.36576 1
v 7.21422 8.30534 1
v 7.39723 8.33642 1
v 7.47555 8.33158 1
v 7.39063 8.4023 1
v 7.55244 8.31707 1
v 7.56911 8.3918 1
v 7.64055 7.38175 1
v 7.69777 7.41581 1
v 7.77682 7.32112 1
v 7.93418 7.28571 1
v 7.93418 7.32936 1
v 8.06511 7.35159 1
v 8.22403 7.35159 1
v 8.39942 7.28571 1
v 8.39942 7.32936 1
v 7.72824 7.58051 1
v 7.78177 7.58051 1
v 7.71095 8.11903 1
v 7.7653 8.11903 1
v 7.62398 8.29371 1
v 7.68625 8.26232 1
v 7.76036 8.3603 1
v 7.92347 8.34631 1
v 7.92347 8.38995 1
v 8.22403 7.71884 1
v 8.22403 7.79296 1
v 8.30967 7.79296 1
v 8.34836 7.71884 1
v 8.4306 7.80881 1
v 8.06511 8.32489 1
v 8.22403 8.31583 1
v 8.30472 8.31583 1
v 8.43297 8.30121 1
v 8.34013 8.38995 1
v 6.96903 7.4154 1.2
v 7.14854 7.30579 1.2
v 7.21782 7.36435 1.2
v 7.38734 7.26925 1.2
v 7.38899 7.33265 1.2
v 7.48018 7.33831 1.2
v 7.58887 7.28222 1.2
v 7.56602 7.35529 1.2
v 6.85663 7.5909 1.2
v 6.81917 7.82506 1.2
v 7.01669 7.61468 1.2
v 7.09296 7.45945 1.2
v 6.99127 7.82672 1.2
v 6.85519 8.07529 1.2
v 7.01556 8.05357 1.2
v 7.08843 8.21208 1.2
v 6.96327 8.25613 1.2
v 7.14216 8.36576 1.2
v 7.21422 8.30534 1.2
v 7.39723 8.33642 1.2
v 7.47555 8.33158 1.2
v 7.39063 8.4023 1.2
v 7.55244 8.31707 1.2
v 7.56911 8.3918 1.2
v 7.64055 7.38175 1.2
v 7.69777 7.41581 1.2
v 7.77682 7.32112 1.2
v 7.93418 7.28571 1.2
v 7.93418 7.32936 1.2
v 8.06511 7.35159 1.2
v 8.22403 7.35159 1.2
v 8.39942 7.28571 1.2
v 8.39942 7.32936 1.2
v 7.72824 7.58051 1.2
v 7.78177 7.58051 1.2
v 7.71095 8.11903 1.2
v 7.7653 8.11903 1.2
v 7.62398 8.29371 1.2
v 7.68625 8.26232 1.2
v 7.76036 8.3603 1.2
v 7.92347 8.34631 1.2
v 7.92347 8.38995 1.2
v 8.22403 7.71884 1.2
v 8.22403 7.79296 1.2
v 8.30967 7.79296 1.2
v 8.34836 7.71884 1.2
v 8.4306 7.80881 1.2
v 8.06511 8.32489 1.2
v 8.22403 8.31583 1.2
v 8.30472 8.31583 1.2
v 8.43297 8.30121 1.2
v 8.34013 8.38995 1.2
v 8.86142 7.28571 1
v 8.86142 7.32936 1
v 9.00306 7.35159 1
v 9.08952 7.35159 1
v 9.23773 7.28571 1
v 9.23773 7.32936 1
v 8.51789 7.74087 1
v 8.51511 7.85636 1
v 8.64274 7.80695 1
v 8.56483 7.93973 1
v 8.71964 7.91544 1
v 8.5814 8.06304 1
v 8.56555 8.17955 1
v 8.51799 8.25736 1
v 8.64398 8.30863 1
v 8.74527 8.06469 1
v 8.86142 8.34631 1
v 8.86142 8.38995 1
v 9.00306 8.32489 1
v 9.08952 8.27878 1
v 9.19574 8.38995 1
v 9.7705 7.28571 1
v 9.85037 7.28571 1
v 9.61569 8.34631 1
v 9.61569 8.38995 1
v 9.76391 7.57227 1
v 9.76391 8.32489 1
v 9.85037 8.32489 1
v 9.99201 8.34631 1
v 9.99201 8.38995 1
v 8.86142 7.28571 1.2
v 8.86142 7.32936 1.2
v 9.00306 7.35159 1.2
v 9.08952 7.35159 1.2
v 9.23773 7.28571 1.2
v 9.23773 7.32936 1.2
v 8.51789 7.74087 1.2
v 8.51511 7.85636 1.2
v 8.64274 7.80695 1.2
v 8.56483 7.93973 1.2
v 8.71964 7.91544 1.2
v 8.5814 8.06304 1.2
v 8.56555 8.17955 1.2
v 8.51799 8.25736 1.2
v 8.64398 8.30863 1.2
v 8.74527 8.06469 1.2
v 8.86142 8.34631 1.2
v 8.86142 8.38995 1.2
v 9.00306 8.32489 1.2
v 9.08952 8.27878 1.2
v 9.19574 8.38995 1.2
v 9.7705 7.28571 1.2
v 9.85037 7.28571 1.2
v 9.61569 8.34631 1.2
v 9.61569 8.38995 1.2
v 9.76391 7.57227 1.2
v 9.76391 8.32489 1.2
v 9.85037 8.32489 1.2
v 9.99201 8.34631 1.2
v 9.99201 8.38995 1.2
v 10.2173 2.42857 1
v 10.2173 2.47221 1
v 10.3589 2.49445 1
v 10.4454 2.49445 1
v 10.5936 2.42857 1
v 10.5936 2.47221 1
v 10.1299 3.48916 1
v 10.1299 3.53281 1
v 10.2173 3.48916 1
v 10.2173 3.53281 1
v 10.4454 3.42164 1
v 10.3589 3.46775 1
v 10.5516 3.53281 1
v 11.1264 2.42857 1
v 11.2063 2.42857 1
v 11.1198 2.71513 1
v 11.1198 2.99731 1
v 10.9716 3.48916 1
v 10.9716 3.53281 1
v 11.1198 3.46775 1
v 11.2063 3.46775 1
v 11.3479 3.48916 1
v 11.3479 3.53281 1
v 10.2173 2.42857 1.2
v 10.2173 2.47221 1.2
v 10.3589 2.49445 1.2
v 10.4454 2.49445 1.2
v 10.5936 2.42857 1.2
v 10.5936 2.47221 1.2
v 10.1299 3.48916 1.2
v 10.1299 3.53281 1.2
v 10.2173 3.48916 1.2
v 10.2173 3.53281 1.2
v 10.4454 3.42164 1.2
v 10.3589 3.46775 1.2
v 10.5516 3.53281 1.2
v 11.1264 2.42857 1.2
v 11.2063 2.42857 1.2
v 11.1198 2.71513 1.2
v 10.9716 3.48916 1.2
v 10.9716 3.53281 1.2
v 11.1198 3.46775 1.2
v 11.2063 3.46775 1.2
v 11.3479 3.48916 1.2
v 11.3479 3.53281 1.2
v 13.5 0 1
v 13.5 17 0
v 6.85663 10.0195 1
v 7.14854 9.73436 1
v 6.96903 9.84397 1
v 7.01669 10.0433 1
v 7.09296 9.88803 1
v 6.81917 10.2536 1
v 6.85519 10.5039 1
v 6.99127 10.2553 1
v 7.01556 10.4821 1
v 7.21782 9.79292 1
v 7.38734 9.69782 1
v 7.38899 9.76122 1
v 7.48018 9.76688 1
v 7.58887 9.71079 1
v 7.56602 9.78386 1
v 7.64055 9.81032 1
v 7.77682 9.74969 1
v 7.69777 9.84438 1
v 7.72824 10.0091 1
v 7.78177 10.0091 1
v 7.93418 9.71429 1
v 7.93418 9.75793 1
v 7.71095 10.5476 1
v 7.7653 10.5476 1
v 8.06511 9.78016 1
v 8.22403 9.78016 1
v 8.39942 9.71429 1
v 8.39942 9.75793 1
v 8.22403 10.1474 1
v 8.22403 10.2215 1
v 8.30967 10.2215 1
v 8.34836 10.1474 1
v 8.4306 10.2374 1
v 6.85663 10.0195 1.2
v 7.14854 9.73436 1.2
v 6.96903 9.84397 1.2
v 7.01669 10.0433 1.2
v 7.09296 9.88803 1.2
v 6.81917 10.2536 1.2
v 6.85519 10.5039 1.2
v 6.99127 10.2553 1.2
v 7.01556 10.4821 1.2
v 7.21782 9.79292 1.2
v 7.38734 9.69782 1.2
v 7.38899 9.76122 1.2
v 7.48018 9.76688 1.2
v 7.58887 9.71079 1.2
v 7.56602 9.78386 1.2
v 7.64055 9.81032 1.2
v 7.77682 9.74969 1.2
v 7.69777 9.84438 1.2
v 7.72824 10.0091 1.2
v 7.78177 10.0091 1.2
v 7.93418 9.71429 1.2
v 7.93418 9.75793 1.2
v 7.71095 10.5476 1.2
v 7.7653 10.5476 1.2
v 8.06511 9.78016 1.2
v 8.22403 9.78016 1.2
v 8.39942 9.71429 1.2
v 8.39942 9.75793 1.2
v 8.22403 10.1474 1.2
v 8.22403 10.2215 1.2
v 8.30967 10.2215 1.2
v 8.34836 10.1474 1.2
v 8.4306 10.2374 1.2
v 6.96327 10.6847 1
v 7.08843 10.6407 1
v 7.14216 10.7943 1
v 7.21422 10.7339 1
v 7.39723 10.765 1
v 7.39063 10.8309 1
v 7.47555 10.7602 1
v 7.55244 10.7456 1
v 7.56911 10.8204 1
v 6.93671 12.2614 1
v 7.19166 12.1429 1
v 7.19166 12.2214 1
v 7.49037 12.6922 1
v 7.62398 10.7223 1
v 7.68625 10.6909 1
v 7.76036 10.7889 1
v 7.92347 10.7749 1
v 7.92347 10.8185 1
v 8.06511 10.7535 1
v 8.22403 10.7444 1
v 8.30472 10.7444 1
v 8.43297 10.7298 1
v 8.34013 10.8185 1
v 7.69269 12.3763 1
v 7.77847 12.735 1
v 7.91576 12.4556 1
v 8.01581 12.179 1
v 8.1405 12.2844 1
v 6.96327 10.6847 1.2
v 7.08843 10.6407 1.2
v 7.14216 10.7943 1.2
v 7.21422 10.7339 1.2
v 7.39723 10.765 1.2
v 7.39063 10.8309 1.2
v 7.47555 10.7602 1.2
v 7.55244 10.7456 1.2
v 7.56911 10.8204 1.2
v 6.93671 12.2614 1.2
v 7.19166 12.1429 1.2
v 7.19166 12.2214 1.2
v 7.49037 12.6922 1.2
v 7.62398 10.7223 1.2
v 7.68625 10.6909 1.2
v 7.76036 10.7889 1.2
v 7.92347 10.7749 1.2
v 7.92347 10.8185 1.2
v 8.06511 10.7535 1.2
v 8.22403 10.7444 1.2
v 8.30472 10.7444 1.2
v 8.43297 10.7298 1.2
v 8.34013 10.8185 1.2
v 7.69269 12.3763 1.2
v 7.77847 12.735 1.2
v 7.91576 12.4556 1.2
v 8.01581 12.179 1.2
v 8.1405 12.2844 1.2
v 8.51789 10.1694 1
v 8.51511 10.2849 1
v 8.64274 10.2355 1
v 8.56483 10.3683 1
v 8.5814 10.4916 1
v 8.56555 10.6081 1
v 8.71964 10.344 1
v 8.74527 10.4933 1
v 8.86142 9.71429 1
v 8.86142 9.75793 1
v 9.00306 9.78016 1
v 9.08952 9.78016 1
v 9.23773 9.71429 1
v 9.23773 9.75793 1
v 9.7705 9.71429 1
v 9.85037 9.71429 1
v 9.76391 10.0008 1
v 8.51789 10.1694 1.2
v 8.51511 10.2849 1.2
v 8.64274 10.2355 1.2
v 8.56483 10.3683 1.2
v 8.5814 10.4916 1.2
v 8.56555 10.6081 1.2
v 8.71964 10.344 1.2
v 8.74527 10.4933 1.2
v 8.86142 9.71429 1.2
v 8.86142 9.75793 1.2
v 9.00306 9.78016 1.2
v 9.08952 9.78016 1.2
v 9.23773 9.71429 1.2
v 9.23773 9.75793 1.2
v 9.7705 9.71429 1.2
v 9.85037 9.71429 1.2
v 9.76391 10.0008 1.2
v 8.51799 10.6859 1
v 8.64398 10.7372 1
v 8.86142 10.7749 1
v 8.86142 10.8185 1
v 9.00306 10.7535 1
v 9.08952 10.7074 1
v 9.19574 10.8185 1
v 8.44564 12.1132 1
v 8.8084 12.1366 1
v 8.44862 12.2273 1
v 8.61276 12.2375 1
v 8.76727 12.2681 1
v 9.14671 12.2066 1
v 8.90141 12.3157 1
v 9.00442 12.377 1
v 9.05926 12.6735 1
v 9.15561 12.6735 1
v 9.61569 10.7749 1
v 9.61569 10.8185 1
v 9.76391 10.7535 1
v 9.85037 10.7535 1
v 9.99201 10.7749 1
v 9.99201 10.8185 1
v 9.4848 12.177 1
v 9.46849 12.5949 1
v 9.63301 12.3163 1
v 9.70286 12.2859 1
v 9.5663 12.5949 1
v 9.74418 12.1292 1
v 10.0184 12.1132 1
v 9.79679 12.2599 1
v 9.89925 12.2422 1
v 9.99466 12.2362 1
v 8.51799 10.6859 1.2
v 8.64398 10.7372 1.2
v 8.86142 10.7749 1.2
v 8.86142 10.8185 1.2
v 9.00306 10.7535 1.2
v 9.08952 10.7074 1.2
v 9.19574 10.8185 1.2
v 8.44564 12.1132 1.2
v 8.8084 12.1366 1.2
v 8.44862 12.2273 1.2
v 8.61276 12.2375 1.2
v 8.76727 12.2681 1.2
v 9.14671 12.2066 1.2
v 8.90141 12.3157 1.2
v 9.00442 12.377 1.2
v 9.05926 12.6735 1.2
v 9.15561 12.6735 1.2
v 9.61569 10.7749 1.2
v 9.61569 10.8185 1.2
v 9.76391 10.7535 1.2
v 9.85037 10.7535 1.2
v 9.99201 10.7749 1.2
v 9.99201 10.8185 1.2
v 9.4848 12.177 1.2
v 9.46849 12.5949 1.2
v 9.63301 12.3163 1.2
v 9.70286 12.2859 1.2
v 9.5663 12.5949 1.2
v 9.74418 12.1292 1.2
v 10.0184 12.1132 1.2
v 9.79679 12.2599 1.2
v 9.89925 12.2422 1.2
v 9.99466 12.2362 1.2
v 7.42293 13.1137 1
v 7.48777 13.5641 1
v 6.93671 14.0134 1
v 7.19166 14.0519 1
v 7.19166 14.1305 1
v 7.73271 13.1167 1
v 7.77643 13.525 1
v 7.90761 13.8103 1
v 7.68231 13.8896 1
v 8.00432 14.0869 1
v 8.13402 13.9782 1
v 7.42293 13.1137 1.2
v 7.48777 13.5641 1.2
v 6.93671 14.0134 1.2
v 7.19166 14.0519 1.2
v 7.19166 14.1305 1.2
v 7.73271 13.1167 1.2
v 7.77643 13.525 1.2
v 7.90761 13.8103 1.2
v 7.68231 13.8896 1.2
v 8.00432 14.0869 1.2
v 8.13402 13.9782 1.2
v 9.02814 13.6428 1
v 9.12597 13.6428 1
v 8.46344 14.0341 1
v 8.60443 14.0254 1
v 8.45157 14.1527 1
v 8.74281 13.9993 1
v 8.77283 14.1338 1
v 8.87159 13.9572 1
v 8.98368 13.9007 1
v 9.11707 14.0771 1
v 9.52926 13.7066 1
v 9.62709 13.7066 1
v 9.81827 13.1196 1
v 9.81827 13.2412 1
v 10.0302 13.1078 1
v 10.0302 13.2545 1
v 9.67896 13.9496 1
v 9.52926 14.089 1
v 9.66598 14.121 1
v 9.74936 13.9817 1
v 9.83014 14.0067 1
v 9.78269 14.1401 1
v 9.88905 14.1496 1
v 9.91425 14.0228 1
v 9.99466 14.0282 1
v 9.99466 14.1527 1
v 9.02814 13.6428 1.2
v 9.12597 13.6428 1.2
v 8.46344 14.0341 1.2
v 8.60443 14.0254 1.2
v 8.45157 14.1527 1.2
v 8.74281 13.9993 1.2
v 8.77283 14.1338 1.2
v 8.87159 13.9572 1.2
v 8.98368 13.9007 1.2
v 9.11707 14.0771 1.2
v 9.52926 13.7066 1.2
v 9.62709 13.7066 1.2
v 9.81827 13.1196 1.2
v 9.81827 13.2412 1.2
v 10.0302 13.1078 1.2
v 10.0302 13.2545 1.2
v 9.67896 13.9496 1.2
v 9.52926 14.089 1.2
v 9.66598 14.121 1.2
v 9.74936 13.9817 1.2
v 9.83014 14.0067 1.2
v 9.78269 14.1401 1.2
v 9.88905 14.1496 1.2
v 9.91425 14.0228 1.2
v 9.99466 14.0282 1.2
v 9.99466 14.1527 1.2
v 10.3167 12.151 1
v 10.197 12.2629 1
v 10.3385 12.3429 1
v 10.5386 12.2644 1
v 10.4219 12.4852 1
v 10.4497 12.6987 1
v 10.6765 12.4449 1
v 10.7224 12.6839 1
v 10.9745 12.1429 1
v 10.9745 12.3607 1
v 11.1687 12.3711 1
v 11.2502 12.6112 1
v 11.3128 12.5004 1
v 11.4488 12.6186 1
v 10.3167 12.151 1.2
v 10.197 12.2629 1.2
v 10.3385 12.3429 1.2
v 10.5386 12.2644 1.2
v 10.4219 12.4852 1.2
v 10.4497 12.6987 1.2
v 10.6765 12.4449 1.2
v 10.7224 12.6839 1.2
v 10.9745 12.1429 1.2
v 10.9745 12.3607 1.2
v 11.1687 12.3711 1.2
v 11.2502 12.6112 1.2
v 11.3128 12.5004 1.2
v 11.4488 12.6186 1.2
v 12.1914 12.1429 1
v 12.1914 12.3711 1
v 12.1914 12.1429 1.2
v 12.1914 12.3711 1.2
v 10.217 13.0746 1
v 10.1977 13.1833 1
v 10.4241 12.8708 1
v 10.3474 12.9959 1
v 10.4319 13.1291 1
v 10.3817 13.2362 1
v 10.1759 13.2849 1
v 10.2778 13.3582 1
v 10.3378 13.4776 1
v 10.5186 13.3353 1
v 10.3578 13.6458 1
v 10.6905 12.8804 1
v 10.5949 13.0285 1
v 10.6036 13.4785 1
v 10.632 13.6636 1
v 10.1586 14.0054 1
v 10.2711 13.937 1
v 10.3361 13.8187 1
v 10.4727 14.0304 1
v 11.0412 13.7066 1
v 11.139 13.7066 1
v 11.4803 12.8217 1
v 11.64 12.9877 1
v 11.7134 12.8519 1
v 11.7469 13.1337 1
v 11.0412 14.089 1
v 11.1909 13.9496 1
v 11.2595 13.9817 1
v 11.3376 14.0067 1
v 11.2906 14.1368 1
v 11.4195 14.0228 1
v 11.4992 14.0282 1
v 11.4992 14.1527 1
v 11.67 14.003 1
v 11.7853 13.9274 1
v 11.7847 14.1188 1
v 10.217 13.0746 1.2
v 10.1977 13.1833 1.2
v 10.4241 12.8708 1.2
v 10.3474 12.9959 1.2
v 10.4319 13.1291 1.2
v 10.3817 13.2362 1.2
v 10.1759 13.2849 1.2
v 10.2778 13.3582 1.2
v 10.3378 13.4776 1.2
v 10.5186 13.3353 1.2
v 10.3578 13.6458 1.2
v 10.6905 12.8804 1.2
v 10.5949 13.0285 1.2
v 10.6036 13.4785 1.2
v 10.632 13.6636 1.2
v 10.1586 14.0054 1.2
v 10.2711 13.937 1.2
v 10.3361 13.8187 1.2
v 10.4727 14.0304 1.2
v 11.0412 13.7066 1.2
v 11.139 13.7066 1.2
v 11.4803 12.8217 1.2
v 11.64 12.9877 1.2
v 11.7134 12.8519 1.2
v 11.7469 13.1337 1.2
v 11.0412 14.089 1.2
v 11.1909 13.9496 1.2
v 11.2595 13.9817 1.2
v 11.3376 14.0067 1.2
v 11.2906 14.1368 1.2
v 11.4195 14.0228 1.2
v 11.4992 14.0282 1.2
v 11.4992 14.1527 1.2
v 11.67 14.003 1.2
v 11.7853 13.9274 1.2
v 11.7847 14.1188 1.2
v 11.8905 13.027 1
v 12.0066 13.1734 1
v 11.8186 13.2841 1
v 11.8592 13.4479 1
v 11.8727 13.6339 1
v 11.8509 13.8036 1
v 12.0884 13.3205 1
v 12.1367 13.4726 1
v 12.1528 13.6339 1
v 11.9891 14.0171 1
v 12.1119 13.8535 1
v 11.8905 13.027 1.2
v 12.0066 13.1734 1.2
v 11.8186 13.2841 1.2
v 11.8592 13.4479 1.2
v 11.8727 13.6339 1.2
v 11.8509 13.8036 1.2
v 12.0884 13.3205 1.2
v 12.1367 13.4726 1.2
v 12.1528 13.6339 1.2
v 11.9891 14.0171 1.2
v 12.1119 13.8535 1.2
v 13.5 17 1
f  2 3 4
f  2 4 5
f  2 14 3
f  2 49 14
f  2 53 49
f  2 64 53
f  2 65 64
f  7 5 4
f  7 4 11
f  9 11 4
f  14 55 15
f  10 15 58
f  10 58 12
f  13 16 8
f  16 19 17
f  13 20 16
f  19 16 18
f  20 18 16
f  12 58 21
f  21 58 22
f  22 25 23
f  25 22 24
f  58 24 22
f  1 2 435
f  2 5 384
f  2 384 385
f  17 153 6
f  153 17 19
f  23 147 19
f  154 6 153
f  6 384 5
f  6 154 384
f  1 1097 2
f  2 105 65
f  2 106 105
f  2 112 106
f  2 113 112
f  2 717 113
f  2 718 717
f  50 14 49
f  51 14 50
f  51 55 14
f  58 15 55
f  56 60 59
f  60 63 61
f  56 66 60
f  63 60 62
f  66 62 60
f  53 64 54
f  52 54 72
f  52 72 57
f  72 54 64
f  57 68 67
f  57 70 68
f  57 72 70
f  68 71 69
f  71 68 70
f  61 63 241
f  69 241 63
f  103 74 73
f  69 71 241
f  75 241 71
f  104 65 105
f  103 108 74
f  74 108 75
f  75 108 241
f  109 241 108
f  107 110 109
f  111 109 110
f  107 115 110
f  109 111 245
f  119 247 111
f  106 117 116
f  106 118 117
f  106 121 118
f  106 112 121
f  117 120 119
f  120 117 118
f  119 120 262
f  124 262 120
f  123 122 114
f  123 114 720
f  123 720 124
f  23 25 147
f  61 147 25
f  147 61 241
f  153 19 147
f  242 147 241
f  242 250 148
f  160 182 155
f  155 182 156
f  149 182 160
f  151 182 149
f  156 182 158
f  158 182 161
f  161 182 163
f  163 182 165
f  147 242 148
f  148 251 150
f  150 251 167
f  173 171 172
f  251 148 250
f  167 251 171
f  171 251 172
f  172 251 313
f  171 173 174
f  152 183 151
f  168 183 152
f  169 183 168
f  170 183 169
f  151 183 182
f  170 176 183
f  177 188 176
f  171 190 177
f  181 178 182
f  165 182 166
f  166 182 178
f  178 181 180
f  176 188 183
f  183 188 184
f  189 184 188
f  171 174 190
f  175 314 185
f  185 314 319
f  187 320 186
f  190 188 177
f  192 191 186
f  326 192 186
f  241 109 245
f  243 252 242
f  111 247 245
f  244 246 248
f  245 248 246
f  248 245 247
f  244 248 258
f  249 258 248
f  252 250 242
f  244 254 253
f  244 256 254
f  244 258 256
f  254 257 255
f  257 254 256
f  247 119 260
f  119 262 260
f  259 261 263
f  260 263 261
f  263 260 262
f  259 263 273
f  124 266 262
f  124 816 266
f  264 273 263
f  265 267 817
f  266 817 267
f  259 269 268
f  259 271 269
f  259 273 271
f  269 272 270
f  272 269 271
f  265 275 274
f  265 825 275
f  275 826 276
f  255 313 251
f  255 315 313
f  313 316 314
f  316 313 315
f  315 255 336
f  319 314 321
f  320 322 186
f  322 324 186
f  324 328 186
f  314 316 321
f  321 316 323
f  329 327 186
f  327 326 186
f  328 329 186
f  330 332 331
f  317 323 316
f  323 317 325
f  325 317 330
f  317 334 330
f  337 335 318
f  333 331 332
f  332 330 334
f  255 257 896
f  255 338 336
f  270 896 257
f  255 339 338
f  336 338 337
f  270 272 888
f  272 276 888
f  255 896 339
f  270 888 896
f  335 337 338
f  341 342 340
f  343 340 342
f  897 339 896
f  339 897 901
f  339 901 345
f  341 344 342
f  345 901 346
f  1 435 383
f  1 383 1098
f  383 435 1098
f  2 385 408
f  2 408 409
f  2 409 413
f  2 410 411
f  2 411 412
f  2 412 434
f  2 413 410
f  2 434 435
f  157 384 154
f  159 384 157
f  159 471 384
f  384 474 392
f  392 394 393
f  416 393 394
f  474 384 471
f  392 475 394
f  394 475 395
f  475 392 474
f  529 395 475
f  531 395 529
f  395 544 397
f  398 395 397
f  458 395 398
f  386 415 385
f  415 408 385
f  413 409 414
f  414 409 417
f  455 417 409
f  417 455 418
f  418 455 419
f  419 455 420
f  435 434 436
f  435 436 437
f  435 437 438
f  435 438 439
f  435 439 440
f  435 440 444
f  435 444 441
f  393 416 387
f  459 455 396
f  420 455 456
f  459 456 455
f  456 459 457
f  457 459 465
f  465 459 466
f  466 661 467
f  399 458 398
f  466 459 661
f  162 472 159
f  159 472 471
f  164 478 162
f  179 478 164
f  184 478 179
f  162 478 472
f  189 481 478
f  479 491 480
f  482 491 479
f  480 491 473
f  473 491 476
f  476 491 477
f  477 491 530
f  184 189 478
f  189 484 481
f  189 488 484
f  189 493 488
f  193 493 189
f  193 577 493
f  483 492 482
f  485 492 483
f  486 492 485
f  487 492 486
f  494 488 493
f  482 492 491
f  487 489 492
f  490 544 489
f  488 546 490
f  489 544 492
f  488 494 495
f  496 578 497
f  497 578 579
f  488 495 546
f  546 544 490
f  499 580 498
f  547 498 585
f  533 395 531
f  540 395 533
f  543 395 540
f  530 491 532
f  532 491 534
f  395 543 544
f  545 397 544
f  397 545 536
f  536 545 538
f  659 538 549
f  534 491 535
f  535 491 539
f  542 539 491
f  539 542 541
f  492 544 543
f  549 538 545
f  659 549 621
f  659 621 550
f  331 577 193
f  331 333 577
f  340 577 333
f  340 343 577
f  343 589 577
f  577 590 578
f  579 578 581
f  590 577 589
f  578 590 581
f  581 590 583
f  580 582 498
f  582 585 498
f  548 547 585
f  548 585 586
f  586 587 548
f  583 590 591
f  594 625 592
f  583 591 584
f  584 591 624
f  584 624 588
f  589 343 347
f  904 593 589
f  589 347 904
f  593 904 905
f  593 909 595
f  625 594 595
f  593 595 594
f  596 630 629
f  1104 597 1099
f  596 632 630
f  597 1104 1105
f  597 1105 634
f  597 634 633
f  619 548 587
f  619 587 620
f  588 622 621
f  621 623 550
f  629 550 623
f  622 588 624
f  623 621 622
f  629 631 550
f  550 1165 627
f  626 628 671
f  671 628 673
f  627 637 628
f  673 628 676
f  628 637 676
f  631 629 630
f  631 635 550
f  550 635 1165
f  627 1165 1167
f  627 1167 1170
f  627 1181 636
f  637 627 636
f  659 537 538
f  659 551 660
f  467 661 663
f  660 663 661
f  659 550 551
f  660 551 662
f  552 664 551
f  664 662 551
f  663 660 662
f  435 441 1521
f  674 675 672
f  682 681 672
f  684 682 672
f  675 677 672
f  677 678 672
f  678 679 672
f  679 680 672
f  685 684 672
f  680 685 672
f  676 637 686
f  686 692 687
f  687 692 688
f  637 692 686
f  637 638 692
f  688 690 689
f  691 689 690
f  688 692 690
f  1521 441 442
f  1521 442 443
f  1521 443 467
f  1521 467 663
f  1 715 1097
f  1 1098 715
f  715 1098 1097
f  2 1097 718
f  716 113 717
f  718 732 731
f  124 720 816
f  721 816 720
f  816 721 723
f  719 722 721
f  723 721 722
f  719 724 722
f  733 822 723
f  726 718 725
f  718 726 737
f  718 734 732
f  718 737 734
f  727 737 726
f  729 762 730
f  730 736 728
f  736 730 762
f  732 735 733
f  735 732 734
f  733 735 835
f  738 835 735
f  770 738 769
f  837 738 770
f  1097 725 718
f  1097 729 725
f  1097 762 729
f  763 773 772
f  766 763 765
f  763 766 778
f  763 775 773
f  763 778 775
f  767 778 766
f  780 777 768
f  764 769 738
f  764 771 769
f  774 841 770
f  774 776 841
f  773 776 774
f  776 773 775
f  784 841 776
f  841 784 786
f  779 781 780
f  777 780 781
f  782 1058 788
f  782 1060 1058
f  783 785 784
f  786 784 785
f  783 787 785
f  1068 850 1064
f  816 723 820
f  817 266 816
f  265 817 827
f  818 827 817
f  723 822 820
f  819 821 823
f  820 823 821
f  823 820 822
f  819 823 833
f  824 833 823
f  265 827 825
f  819 829 828
f  826 275 825
f  819 831 829
f  819 833 831
f  829 832 830
f  832 829 831
f  822 733 835
f  738 837 835
f  834 836 838
f  835 838 836
f  838 835 837
f  834 838 848
f  837 770 841
f  839 848 838
f  840 842 850
f  834 844 843
f  834 846 844
f  834 848 846
f  844 847 845
f  847 844 846
f  840 850 849
f  276 826 889
f  888 276 889
f  830 889 826
f  830 832 891
f  889 830 891
f  845 891 832
f  890 892 899
f  898 899 892
f  898 892 900
f  904 346 901
f  904 347 346
f  893 900 892
f  900 893 895
f  912 902 900
f  902 921 903
f  900 895 912
f  902 912 913
f  902 913 921
f  922 906 921
f  903 921 906
f  906 922 907
f  907 922 908
f  894 845 847
f  845 894 891
f  894 847 851
f  914 916 922
f  916 914 915
f  923 922 924
f  922 916 928
f  908 922 910
f  926 910 922
f  926 922 923
f  926 925 910
f  922 928 924
f  935 928 916
f  924 928 927
f  929 927 928
f  917 935 916
f  918 920 930
f  930 920 933
f  933 920 998
f  932 934 931
f  934 999 931
f  999 1001 931
f  937 936 931
f  938 937 931
f  1004 1005 931
f  1005 938 931
f  841 786 842
f  842 786 850
f  1068 914 894
f  894 851 1068
f  914 1074 915
f  915 1074 919
f  1059 850 786
f  850 1059 1061
f  1068 851 850
f  1064 850 1061
f  1070 914 1069
f  1068 1069 914
f  1074 914 1070
f  919 1074 992
f  992 1074 996
f  996 1074 1013
f  919 993 920
f  993 919 992
f  920 993 998
f  1001 1003 931
f  998 993 1000
f  994 1000 993
f  1000 994 1002
f  1002 994 1007
f  1003 1004 931
f  1007 1008 1006
f  1009 1006 1008
f  994 1010 1007
f  997 1011 995
f  1008 1007 1010
f  996 1013 997
f  1011 997 1013
f  1016 1012 1015
f  1017 1015 1012
f  1017 1018 1015
f  1014 1020 1019
f  1097 763 762
f  1097 765 763
f  1097 779 765
f  1097 781 779
f  1097 782 781
f  1097 1052 782
f  1097 1056 1052
f  1097 1065 1056
f  1053 782 1052
f  782 1053 1063
f  1054 1063 1053
f  782 1063 1060
f  1057 1062 1055
f  1056 1065 1057
f  1062 1057 1065
f  1068 1064 1067
f  1058 1061 1059
f  1061 1058 1060
f  1066 1073 1072
f  1068 1071 1069
f  1097 1021 1074
f  1097 1066 1065
f  1097 1073 1066
f  1097 1074 1073
f  1013 1074 1014
f  1014 1074 1020
f  1020 1074 1021
f  1097 1423 1021
f  1097 1424 1423
f  593 905 909
f  909 597 595
f  927 1100 597
f  911 597 909
f  927 597 911
f  929 1109 1100
f  1101 597 1100
f  1099 597 1101
f  1108 1121 1103
f  1110 1121 1108
f  1111 1122 1110
f  1103 1121 1102
f  1102 1121 1106
f  1106 1121 1107
f  1107 1121 1166
f  927 929 1100
f  929 1112 1109
f  929 1115 1112
f  929 1119 1115
f  939 1119 929
f  939 1125 1119
f  1113 1122 1111
f  1114 1122 1113
f  1116 1122 1114
f  1120 1115 1119
f  1115 1120 1123
f  1110 1122 1121
f  1116 1117 1122
f  1115 1183 1118
f  1118 1181 1117
f  1115 1123 1183
f  1117 1181 1122
f  1183 1181 1118
f  1124 1126 1127
f  1127 1126 1130
f  1130 1126 1221
f  1129 1131 1128
f  1131 1222 1128
f  1222 1224 1128
f  1185 1184 1128
f  1186 1185 1128
f  1255 1186 1128
f  1226 1255 1128
f  1165 634 1105
f  634 1165 635
f  627 1170 1173
f  627 1173 1180
f  627 1180 1181
f  1166 1121 1168
f  1168 1121 1169
f  1169 1121 1171
f  1171 1121 1172
f  636 1181 1182
f  1175 636 1182
f  1175 1188 1176
f  1176 1321 1174
f  1176 1177 1321
f  1177 1176 1188
f  1179 1178 1172
f  1179 1172 1121
f  1122 1181 1180
f  1175 1182 1191
f  1188 1175 1191
f  1191 1182 1262
f  1262 1182 1263
f  1006 1125 939
f  1006 1009 1125
f  1009 1229 1125
f  1012 1229 1009
f  1012 1233 1229
f  1125 1230 1126
f  1126 1230 1221
f  1230 1125 1229
f  1221 1230 1223
f  1231 1223 1230
f  1224 1225 1128
f  1225 1226 1128
f  1223 1231 1227
f  1227 1231 1228
f  1234 1260 1232
f  1231 1259 1228
f  1012 1016 1233
f  1016 1235 1233
f  1016 1236 1235
f  1233 1235 1234
f  1260 1234 1235
f  1237 1272 1261
f  1237 1274 1272
f  1236 1276 1275
f  1228 1257 1256
f  1258 1256 1257
f  1187 1278 1182
f  1256 1278 1187
f  1257 1228 1259
f  1256 1258 1278
f  1261 1278 1258
f  1263 1182 1267
f  1278 1267 1182
f  1264 1343 1192
f  1265 1344 1264
f  1266 1344 1265
f  1268 1344 1266
f  1267 1279 1271
f  1273 1261 1272
f  1278 1261 1273
f  1277 1283 1273
f  1277 1284 1283
f  1278 1273 1283
f  1267 1278 1279
f  1282 1271 1279
f  1280 1286 1282
f  1284 1277 1395
f  1280 1281 1285
f  1280 1285 1286
f  1287 1282 1286
f  1271 1282 1400
f  1396 1282 1287
f  1397 1282 1396
f  1399 1282 1397
f  1429 1271 1400
f  435 1521 1098
f  1174 1324 1323
f  1174 1321 1322
f  1174 1322 1324
f  1324 1329 1325
f  1329 1324 1322
f  1189 1343 1326
f  1190 1343 1189
f  1192 1343 1190
f  1326 1343 1327
f  1327 1343 1328
f  1328 1343 1331
f  1330 1325 1329
f  1347 1325 1330
f  1521 663 683
f  1521 683 689
f  1269 1344 1268
f  1269 1270 1344
f  1264 1344 1343
f  1271 1344 1270
f  1331 1343 1345
f  1345 1343 1346
f  1346 1343 1348
f  1351 1348 1343
f  1348 1351 1350
f  1344 1360 1352
f  1271 1355 1344
f  1355 1271 1357
f  1344 1356 1353
f  1356 1344 1355
f  1353 1356 1354
f  1357 1271 1427
f  1427 1271 1430
f  1430 1271 1429
f  1358 1354 1356
f  1433 1354 1358
f  1434 1354 1433
f  1435 1354 1434
f  1437 1354 1435
f  1444 1354 1437
f  1360 1344 1353
f  1354 1362 1359
f  1362 1354 1363
f  1363 1354 1366
f  1366 1354 1367
f  1367 1354 1442
f  1442 1354 1443
f  1443 1354 1444
f  1521 689 691
f  1521 691 1325
f  1521 1325 1347
f  1097 1098 1521
f  1021 1423 1016
f  1016 1423 1236
f  1236 1423 1276
f  1276 1423 1277
f  1395 1277 1398
f  1277 1403 1398
f  1400 1282 1399
f  1398 1404 1401
f  1404 1398 1403
f  1401 1404 1406
f  1401 1406 1402
f  1403 1277 1423
f  1448 1402 1406
f  1405 1424 1407
f  1407 1424 1408
f  1408 1424 1450
f  1097 1521 1424
f  1450 1424 1499
f  1428 1431 1432
f  1439 1432 1431
f  1439 1436 1432
f  1402 1448 1438
f  1436 1439 1449
f  1436 1449 1440
f  1440 1446 1441
f  1446 1440 1447
f  1441 1452 1445
f  1452 1441 1446
f  1438 1449 1439
f  1438 1448 1449
f  1451 1440 1449
f  1440 1502 1447
f  1501 1440 1451
f  1502 1440 1501
f  1503 1447 1502
f  1504 1447 1503
f  1447 1454 1453
f  1454 1447 1455
f  1455 1447 1457
f  1457 1447 1458
f  1458 1447 1460
f  1460 1447 1461
f  1461 1447 1504
f  1521 1347 1349
f  1521 1349 1352
f  1521 1352 1360
f  1521 1360 1361
f  1521 1361 1364
f  1521 1364 1365
f  1521 1365 1368
f  1521 1368 1445
f  1521 1445 1452
f  1499 1424 1500
f  1500 1424 1505
f  1521 1505 1424
f  1521 1506 1505
f  1521 1507 1506
f  1521 1509 1507
f  1521 1452 1456
f  1521 1456 1459
f  1521 1459 1462
f  1521 1462 1508
f  1521 1508 1509
f  26 4 3
f  27 9 4
f  34 7 11
f  26 27 4
f  26 32 27
f  28 6 5
f  30 5 7
f  29 17 6
f  28 29 6
f  28 5 30
f  34 30 7
f  29 40 17
f  31 8 39
f  28 30 29
f  29 30 31
f  34 31 30
f  29 31 40
f  32 11 9
f  37 3 14
f  33 15 10
f  35 10 12
f  36 20 13
f  38 14 15
f  27 32 9
f  26 3 37
f  33 10 35
f  33 38 15
f  26 37 32
f  32 33 34
f  32 37 33
f  33 37 38
f  32 34 11
f  36 13 31
f  35 12 44
f  34 35 36
f  34 36 31
f  33 35 34
f  36 35 43
f  37 14 38
f  31 13 8
f  39 8 16
f  40 16 17
f  41 19 18
f  44 12 21
f  43 18 20
f  42 23 19
f  45 21 22
f  46 22 23
f  47 25 24
f  39 16 40
f  41 42 19
f  31 39 40
f  36 43 20
f  41 18 43
f  44 21 45
f  42 46 23
f  45 22 46
f  47 48 25
f  35 44 43
f  41 43 42
f  42 43 44
f  42 44 46
f  44 45 46
f  76 50 49
f  77 51 50
f  82 58 55
f  78 55 51
f  80 49 53
f  79 54 52
f  81 53 54
f  84 52 57
f  83 66 56
f  76 77 50
f  76 78 77
f  77 78 51
f  76 49 80
f  79 52 84
f  79 81 54
f  80 53 81
f  76 80 78
f  78 79 82
f  78 80 79
f  79 80 81
f  78 82 55
f  86 83 56
f  84 57 94
f  79 84 82
f  82 84 83
f  86 82 83
f  84 93 83
f  85 24 58
f  48 61 25
f  86 56 59
f  87 59 60
f  88 60 61
f  89 63 62
f  47 24 85
f  85 58 82
f  48 88 61
f  86 59 87
f  47 85 48
f  48 85 86
f  85 82 86
f  48 86 88
f  86 87 88
f  87 60 88
f  83 93 66
f  89 90 63
f  89 62 93
f  89 93 90
f  92 64 65
f  91 72 64
f  91 64 92
f  91 99 72
f  125 103 100
f  91 92 99
f  92 125 99
f  94 57 67
f  93 62 66
f  90 69 63
f  95 67 68
f  96 68 69
f  97 71 70
f  99 70 72
f  98 75 71
f  100 103 73
f  101 73 74
f  102 74 75
f  94 67 95
f  90 96 69
f  95 68 96
f  97 98 71
f  97 70 99
f  84 94 93
f  90 93 94
f  90 94 96
f  94 95 96
f  97 99 98
f  98 102 75
f  100 73 101
f  101 74 102
f  125 100 99
f  98 99 100
f  98 100 102
f  100 101 102
f  126 65 104
f  125 108 103
f  128 105 106
f  127 104 105
f  129 115 107
f  92 65 126
f  126 104 127
f  92 126 125
f  125 126 130
f  126 129 130
f  127 105 128
f  129 107 131
f  128 106 138
f  126 127 129
f  127 128 138
f  127 138 129
f  130 109 108
f  131 107 109
f  132 111 110
f  137 110 115
f  133 119 111
f  125 130 108
f  130 131 109
f  129 137 115
f  132 133 111
f  132 110 137
f  129 131 130
f  129 138 137
f  132 137 133
f  138 106 116
f  135 112 113
f  134 121 112
f  134 112 135
f  143 121 134
f  135 113 739
f  144 136 114
f  143 134 135
f  143 135 136
f  139 116 117
f  140 120 118
f  141 117 119
f  143 118 121
f  142 124 120
f  144 114 122
f  145 122 123
f  146 123 124
f  133 141 119
f  138 116 139
f  140 142 120
f  139 117 141
f  140 118 143
f  133 137 138
f  133 138 141
f  138 139 141
f  140 143 142
f  142 143 144
f  142 146 124
f  144 122 145
f  145 123 146
f  143 136 144
f  142 144 146
f  144 145 146
f  195 147 148
f  207 149 160
f  196 151 149
f  197 148 150
f  198 152 151
f  194 147 195
f  194 195 207
f  207 196 149
f  197 195 148
f  196 198 151
f  197 150 214
f  198 199 152
f  207 195 196
f  197 196 195
f  197 198 196
f  197 214 199
f  197 199 198
f  200 154 153
f  201 157 154
f  194 153 147
f  202 160 155
f  203 155 156
f  204 159 157
f  205 156 158
f  208 158 161
f  206 162 159
f  210 161 163
f  209 164 162
f  212 163 165
f  213 165 166
f  211 179 164
f  200 201 154
f  200 153 194
f  207 160 202
f  202 155 203
f  203 156 205
f  200 194 202
f  200 202 203
f  194 207 202
f  200 203 201
f  201 203 204
f  201 204 157
f  204 206 159
f  205 158 208
f  204 203 205
f  204 205 206
f  205 208 206
f  206 208 209
f  208 161 210
f  206 209 162
f  210 163 212
f  209 211 164
f  212 165 213
f  208 210 209
f  209 210 211
f  210 212 211
f  211 212 213
f  211 213 226
f  214 150 167
f  199 168 152
f  215 169 168
f  216 170 169
f  218 167 171
f  219 173 172
f  220 174 173
f  348 172 313
f  222 314 175
f  199 215 168
f  214 167 218
f  215 216 169
f  216 217 170
f  218 171 224
f  199 214 215
f  215 214 216
f  214 218 216
f  216 218 217
f  219 220 173
f  220 221 174
f  219 172 348
f  222 349 314
f  219 221 220
f  219 222 221
f  219 348 222
f  222 348 349
f  217 176 170
f  224 171 177
f  223 177 176
f  229 181 182
f  225 166 178
f  227 178 180
f  228 180 181
f  226 184 179
f  230 182 183
f  231 183 184
f  221 190 174
f  232 175 185
f  233 187 186
f  354 185 319
f  235 189 188
f  237 188 190
f  236 193 189
f  238 186 191
f  239 191 192
f  217 223 176
f  223 224 177
f  217 218 224
f  217 224 223
f  229 228 181
f  213 166 225
f  227 225 178
f  211 226 179
f  227 180 228
f  226 231 184
f  229 182 230
f  230 183 231
f  213 225 226
f  227 226 225
f  227 231 226
f  227 228 231
f  229 230 228
f  228 230 231
f  222 175 232
f  233 186 238
f  232 185 354
f  233 234 187
f  221 233 237
f  221 222 232
f  221 232 233
f  232 234 233
f  232 354 234
f  221 237 190
f  235 188 237
f  235 236 189
f  236 240 193
f  238 191 239
f  235 237 236
f  236 237 240
f  233 238 237
f  237 238 240
f  238 239 240
f  277 242 241
f  278 243 242
f  279 252 243
f  281 241 245
f  280 246 244
f  282 245 246
f  283 248 247
f  284 249 248
f  285 258 249
f  277 278 242
f  277 241 281
f  278 279 243
f  280 244 289
f  277 279 278
f  277 281 279
f  279 281 280
f  279 280 288
f  280 282 246
f  281 245 282
f  283 284 248
f  284 285 249
f  283 247 296
f  280 281 282
f  283 285 284
f  283 296 285
f  285 295 294
f  289 244 253
f  286 251 250
f  288 250 252
f  287 255 251
f  290 253 254
f  291 254 255
f  292 257 256
f  294 256 258
f  293 270 257
f  279 288 252
f  280 289 288
f  286 287 251
f  286 250 288
f  287 291 255
f  289 253 290
f  286 288 287
f  287 288 289
f  287 289 291
f  285 294 258
f  290 254 291
f  292 293 257
f  292 256 294
f  289 290 291
f  292 294 293
f  293 294 304
f  296 247 260
f  295 261 259
f  297 260 261
f  298 263 262
f  299 264 263
f  300 273 264
f  302 262 266
f  301 267 265
f  303 266 267
f  295 297 261
f  295 259 304
f  296 260 297
f  298 299 263
f  285 296 295
f  295 296 297
f  298 300 299
f  298 262 302
f  299 300 264
f  301 303 267
f  302 266 303
f  301 265 310
f  298 302 300
f  300 301 309
f  300 302 301
f  301 302 303
f  304 259 268
f  305 268 269
f  306 269 270
f  307 272 271
f  310 265 274
f  309 271 273
f  308 276 272
f  311 274 275
f  312 275 276
f  295 304 294
f  293 306 270
f  304 268 305
f  305 269 306
f  307 308 272
f  307 271 309
f  293 304 306
f  304 305 306
f  307 309 308
f  300 309 273
f  309 301 310
f  308 312 276
f  310 274 311
f  311 275 312
f  308 309 310
f  308 310 312
f  310 311 312
f  349 313 314
f  350 316 315
f  351 317 316
f  371 315 336
f  353 337 318
f  348 313 349
f  350 351 316
f  351 352 317
f  350 315 371
f  350 352 351
f  350 371 352
f  352 371 353
f  234 320 187
f  356 319 321
f  355 322 320
f  357 324 322
f  358 321 323
f  360 323 325
f  364 327 329
f  361 192 326
f  240 331 193
f  362 326 327
f  359 328 324
f  363 329 328
f  365 325 330
f  366 330 331
f  367 333 332
f  369 332 334
f  368 340 333
f  369 334 317
f  370 318 335
f  234 355 320
f  354 319 356
f  355 357 322
f  357 359 324
f  356 321 358
f  358 323 360
f  360 325 365
f  354 355 234
f  354 356 355
f  355 356 357
f  356 358 357
f  357 358 359
f  358 360 359
f  362 327 364
f  239 192 361
f  362 361 326
f  240 366 331
f  359 363 328
f  363 364 329
f  365 330 366
f  239 361 240
f  240 361 366
f  362 366 361
f  359 360 363
f  363 365 364
f  365 366 364
f  363 360 365
f  362 364 366
f  352 369 317
f  353 318 370
f  352 353 370
f  367 368 333
f  367 332 369
f  368 375 340
f  367 369 368
f  352 370 369
f  368 369 375
f  369 370 375
f  372 336 337
f  374 338 339
f  371 336 372
f  353 372 337
f  353 371 372
f  373 338 374
f  373 335 338
f  375 341 340
f  376 344 341
f  377 343 342
f  379 342 344
f  378 347 343
f  380 339 345
f  381 345 346
f  382 346 347
f  373 370 335
f  376 341 375
f  373 374 370
f  376 370 374
f  376 375 370
f  374 339 380
f  376 374 380
f  376 379 344
f  377 342 379
f  377 378 343
f  380 345 381
f  378 382 347
f  381 346 382
f  376 380 379
f  377 379 378
f  378 379 380
f  378 380 382
f  380 381 382
f  388 385 384
f  400 384 392
f  389 386 385
f  388 389 385
f  388 384 400
f  388 390 389
f  388 400 390
f  389 390 386
f  400 391 390
f  401 392 393
f  391 393 387
f  403 394 395
f  402 416 394
f  400 392 401
f  400 401 391
f  391 401 393
f  402 394 403
f  402 403 429
f  405 398 397
f  406 399 398
f  405 406 398
f  403 395 463
f  405 397 560
f  405 407 406
f  405 560 407
f  406 407 399
f  425 434 412
f  390 415 386
f  429 387 416
f  391 387 429
f  390 391 429
f  390 428 415
f  390 429 428
f  421 409 408
f  426 410 413
f  424 412 411
f  423 411 410
f  427 413 414
f  430 414 417
f  428 408 415
f  422 455 409
f  431 417 418
f  432 418 419
f  433 419 420
f  421 422 409
f  426 423 410
f  424 411 423
f  424 425 412
f  426 413 427
f  427 414 430
f  424 423 468
f  424 468 425
f  421 408 428
f  422 460 455
f  421 428 422
f  428 429 460
f  422 428 460
f  430 417 431
f  431 418 432
f  432 419 433
f  433 420 461
f  430 431 433
f  426 468 423
f  426 427 468
f  427 430 468
f  431 432 433
f  430 433 461
f  430 461 462
f  430 462 468
f  445 436 434
f  425 445 434
f  445 446 436
f  446 437 436
f  447 438 437
f  448 439 438
f  449 440 439
f  450 444 440
f  454 441 444
f  451 442 441
f  452 443 442
f  453 467 443
f  446 447 437
f  447 448 438
f  448 449 439
f  449 450 440
f  450 454 444
f  445 449 446
f  446 448 447
f  446 449 448
f  445 450 449
f  425 468 445
f  445 454 450
f  445 451 454
f  454 451 441
f  451 452 442
f  452 453 443
f  445 468 469
f  445 470 453
f  445 469 470
f  445 452 451
f  445 453 452
f  460 396 455
f  402 429 416
f  429 404 460
f  460 404 396
f  403 404 429
f  461 420 456
f  462 456 457
f  461 456 462
f  462 457 468
f  404 459 396
f  463 395 458
f  407 458 399
f  403 463 404
f  404 464 459
f  407 561 463
f  407 463 458
f  404 463 464
f  561 464 463
f  464 661 459
f  468 457 465
f  470 466 467
f  469 465 466
f  468 465 469
f  469 466 470
f  453 470 467
f  501 471 472
f  502 480 473
f  500 474 471
f  503 475 474
f  505 473 476
f  504 529 475
f  506 476 477
f  554 477 530
f  507 472 478
f  508 482 479
f  509 479 480
f  510 478 481
f  511 483 482
f  501 472 507
f  500 471 501
f  509 480 502
f  501 507 509
f  500 501 502
f  501 509 502
f  500 503 474
f  503 504 475
f  502 473 505
f  505 476 506
f  504 553 529
f  506 477 554
f  500 505 503
f  500 502 505
f  503 505 504
f  504 505 506
f  504 506 553
f  506 554 553
f  509 508 479
f  510 507 478
f  508 511 482
f  510 481 513
f  511 512 483
f  509 507 508
f  510 508 507
f  510 511 508
f  510 512 511
f  510 513 512
f  513 481 484
f  512 485 483
f  514 486 485
f  515 487 486
f  516 489 487
f  517 484 488
f  519 488 490
f  518 490 489
f  520 542 491
f  521 491 492
f  522 494 493
f  523 495 494
f  598 493 577
f  525 578 496
f  526 496 497
f  524 546 495
f  527 499 498
f  600 497 579
f  571 498 547
f  512 514 485
f  513 484 517
f  514 515 486
f  515 516 487
f  516 518 489
f  517 488 519
f  518 519 490
f  513 514 512
f  513 515 514
f  513 517 515
f  515 517 516
f  516 517 519
f  516 519 518
f  520 491 521
f  520 521 566
f  522 523 494
f  523 524 495
f  522 493 598
f  525 599 578
f  525 496 526
f  522 524 523
f  522 525 524
f  522 598 525
f  525 598 599
f  524 525 526
f  524 526 527
f  524 570 546
f  526 497 600
f  527 528 499
f  527 498 571
f  524 527 570
f  526 528 527
f  526 600 528
f  527 571 570
f  553 531 529
f  556 530 532
f  555 533 531
f  558 532 534
f  559 534 535
f  557 540 533
f  553 554 555
f  554 530 556
f  553 555 531
f  556 532 558
f  555 557 533
f  558 534 559
f  554 556 555
f  555 556 557
f  556 558 557
f  557 558 559
f  557 559 564
f  560 397 536
f  562 536 538
f  561 538 537
f  560 536 562
f  561 560 562
f  561 562 538
f  407 560 561
f  563 535 539
f  565 539 541
f  566 541 542
f  564 543 540
f  567 492 543
f  568 545 544
f  570 544 546
f  569 549 545
f  572 547 548
f  559 535 563
f  565 563 539
f  557 564 540
f  565 541 566
f  520 566 542
f  564 567 543
f  521 492 567
f  559 563 564
f  565 564 563
f  565 566 567
f  565 567 564
f  566 521 567
f  568 569 545
f  568 544 570
f  569 573 549
f  571 547 572
f  568 570 569
f  569 570 573
f  570 571 573
f  571 572 573
f  574 551 550
f  575 552 551
f  574 575 551
f  574 550 647
f  574 576 575
f  575 576 552
f  574 646 576
f  599 577 578
f  528 580 499
f  602 579 581
f  601 582 580
f  603 585 582
f  604 581 583
f  605 583 584
f  606 586 585
f  607 587 586
f  609 584 588
f  610 590 589
f  611 591 590
f  614 589 593
f  613 594 592
f  644 624 591
f  645 592 625
f  598 577 599
f  600 579 602
f  528 601 580
f  601 603 582
f  603 606 585
f  602 581 604
f  604 583 605
f  606 607 586
f  607 608 587
f  605 584 609
f  609 588 641
f  528 600 601
f  600 602 601
f  601 602 603
f  602 604 603
f  603 604 606
f  604 605 606
f  606 605 607
f  607 609 608
f  609 641 608
f  607 605 609
f  610 611 590
f  611 612 591
f  610 589 614
f  613 592 645
f  610 612 611
f  610 614 612
f  612 614 613
f  612 613 645
f  612 644 591
f  612 645 644
f  615 593 594
f  616 625 595
f  649 596 629
f  618 595 597
f  617 632 596
f  653 597 633
f  614 593 615
f  613 615 594
f  614 615 613
f  616 618 645
f  616 645 625
f  617 596 649
f  617 649 645
f  617 645 618
f  616 595 618
f  618 597 653
f  617 652 632
f  617 653 652
f  617 618 653
f  639 548 619
f  573 621 549
f  640 619 620
f  608 620 587
f  641 588 621
f  642 623 622
f  644 622 624
f  643 629 623
f  572 548 639
f  639 619 640
f  640 620 608
f  573 641 621
f  572 639 573
f  639 640 641
f  573 639 641
f  640 608 641
f  642 643 623
f  642 622 644
f  643 649 629
f  642 644 643
f  643 644 649
f  644 645 649
f  647 550 627
f  693 626 671
f  646 628 626
f  648 627 628
f  574 647 646
f  647 648 646
f  646 626 693
f  646 648 628
f  576 646 693
f  576 693 694
f  647 627 648
f  650 631 630
f  652 630 632
f  651 635 631
f  654 633 634
f  655 634 635
f  650 651 631
f  650 630 652
f  651 655 635
f  653 633 654
f  654 634 655
f  650 652 651
f  651 652 653
f  651 653 655
f  653 654 655
f  656 637 636
f  657 638 637
f  656 657 637
f  656 636 1203
f  656 658 657
f  656 1203 658
f  657 658 638
f  561 537 659
f  561 659 665
f  561 665 464
f  666 659 660
f  667 660 661
f  665 659 666
f  464 667 661
f  666 660 667
f  464 665 667
f  665 666 667
f  576 664 552
f  576 694 670
f  576 670 664
f  668 663 662
f  670 662 664
f  669 683 663
f  668 662 670
f  668 669 663
f  668 670 669
f  669 670 705
f  695 671 673
f  694 674 672
f  696 675 674
f  703 672 681
f  698 673 676
f  697 677 675
f  699 678 677
f  700 679 678
f  701 680 679
f  702 685 680
f  693 671 695
f  694 696 674
f  693 696 694
f  693 695 696
f  695 697 696
f  694 672 703
f  670 694 703
f  695 673 698
f  696 697 675
f  698 676 708
f  697 699 677
f  699 700 678
f  695 698 697
f  698 699 697
f  698 708 699
f  699 708 700
f  700 701 679
f  701 702 680
f  704 681 682
f  706 682 684
f  705 689 683
f  707 684 685
f  669 705 683
f  703 681 704
f  704 682 706
f  670 703 705
f  703 704 705
f  704 706 705
f  706 684 707
f  702 707 685
f  705 711 689
f  705 706 711
f  706 707 711
f  702 711 707
f  708 676 686
f  709 686 687
f  710 687 688
f  658 692 638
f  708 686 709
f  700 708 709
f  710 688 711
f  709 687 710
f  700 709 701
f  709 710 701
f  701 710 702
f  702 710 711
f  658 1202 714
f  658 714 692
f  711 688 689
f  712 691 690
f  714 690 692
f  713 1325 691
f  712 690 714
f  712 713 691
f  712 714 713
f  713 714 1334
f  739 113 716
f  136 720 114
f  740 716 717
f  741 717 718
f  742 724 719
f  754 718 731
f  739 716 740
f  135 739 136
f  136 739 743
f  739 740 742
f  739 742 743
f  740 717 741
f  744 742 719
f  741 718 754
f  740 741 754
f  740 754 742
f  744 719 721
f  743 721 720
f  745 723 722
f  747 722 724
f  746 733 723
f  136 743 720
f  743 744 721
f  743 742 744
f  745 746 723
f  742 747 724
f  745 722 747
f  742 754 747
f  745 747 746
f  746 747 754
f  746 754 756
f  748 726 725
f  749 727 726
f  750 737 727
f  759 728 736
f  752 725 729
f  751 730 728
f  753 729 730
f  748 749 726
f  748 725 752
f  749 750 727
f  748 750 749
f  748 752 750
f  751 728 759
f  750 760 737
f  750 751 759
f  750 759 760
f  751 753 730
f  752 729 753
f  750 752 751
f  751 752 753
f  759 736 789
f  755 731 732
f  756 732 733
f  757 735 734
f  760 734 737
f  758 738 735
f  761 764 738
f  746 756 733
f  754 731 755
f  755 732 756
f  757 758 735
f  757 734 760
f  758 761 738
f  754 755 756
f  757 760 758
f  758 760 761
f  760 759 761
f  759 791 761
f  790 762 763
f  789 736 762
f  791 771 764
f  799 763 772
f  792 766 765
f  793 767 766
f  806 765 779
f  795 780 768
f  794 778 767
f  804 768 777
f  789 762 790
f  761 791 764
f  790 763 799
f  759 789 790
f  759 790 791
f  790 799 791
f  792 793 766
f  793 794 767
f  792 765 806
f  792 794 793
f  792 806 794
f  794 806 795
f  795 768 804
f  794 805 778
f  794 795 804
f  794 804 805
f  796 770 769
f  798 769 771
f  797 774 770
f  800 772 773
f  801 773 774
f  802 776 775
f  805 775 778
f  803 784 776
f  796 797 770
f  796 769 798
f  791 798 771
f  797 801 774
f  799 772 800
f  796 798 797
f  791 799 798
f  797 798 799
f  797 799 801
f  800 773 801
f  802 803 776
f  802 775 805
f  803 811 784
f  799 800 801
f  802 805 803
f  803 805 811
f  805 804 811
f  807 779 780
f  808 777 781
f  809 781 782
f  810 787 783
f  815 782 788
f  795 807 780
f  806 779 807
f  795 806 807
f  804 777 808
f  808 781 809
f  811 810 783
f  809 782 815
f  804 808 809
f  804 809 810
f  809 815 810
f  811 783 784
f  812 786 785
f  814 785 787
f  813 1059 786
f  1081 788 1058
f  804 810 811
f  810 814 787
f  812 813 786
f  812 785 814
f  813 1082 1059
f  815 788 1081
f  812 814 813
f  813 814 815
f  810 815 814
f  813 815 1082
f  815 1081 1082
f  852 817 816
f  853 818 817
f  854 827 818
f  856 816 820
f  855 821 819
f  857 820 821
f  858 823 822
f  859 824 823
f  860 833 824
f  852 853 817
f  852 816 856
f  853 854 818
f  855 819 864
f  852 854 853
f  852 855 854
f  852 856 855
f  854 855 863
f  855 857 821
f  856 820 857
f  858 859 823
f  859 860 824
f  858 822 871
f  855 856 857
f  858 860 859
f  858 871 860
f  860 870 869
f  864 819 828
f  861 826 825
f  863 825 827
f  862 830 826
f  865 828 829
f  866 829 830
f  867 832 831
f  869 831 833
f  868 845 832
f  854 863 827
f  855 864 863
f  861 862 826
f  861 825 863
f  862 866 830
f  864 828 865
f  861 863 862
f  862 863 864
f  862 864 866
f  860 869 833
f  865 829 866
f  867 868 832
f  867 831 869
f  864 865 866
f  867 869 868
f  868 869 879
f  871 822 835
f  870 836 834
f  872 835 836
f  873 838 837
f  874 839 838
f  875 848 839
f  877 837 841
f  876 842 840
f  878 841 842
f  870 872 836
f  870 834 879
f  871 835 872
f  873 874 838
f  860 871 870
f  870 871 872
f  873 875 874
f  873 837 877
f  874 875 839
f  876 878 842
f  877 841 878
f  876 840 885
f  873 877 875
f  875 876 884
f  875 877 876
f  876 877 878
f  879 834 843
f  880 843 844
f  881 844 845
f  882 847 846
f  885 840 849
f  884 846 848
f  883 851 847
f  886 849 850
f  887 850 851
f  870 879 869
f  868 881 845
f  879 843 880
f  880 844 881
f  882 883 847
f  882 846 884
f  868 879 881
f  879 880 881
f  882 884 883
f  875 884 848
f  876 885 884
f  883 887 851
f  885 849 886
f  886 850 887
f  883 884 885
f  883 885 887
f  885 886 887
f  941 888 889
f  951 890 899
f  942 892 890
f  943 889 891
f  944 893 892
f  946 891 894
f  945 895 893
f  947 912 895
f  940 888 941
f  940 941 951
f  951 941 942
f  943 941 889
f  951 942 890
f  942 944 892
f  943 891 946
f  944 945 893
f  945 947 895
f  943 942 941
f  943 944 942
f  943 946 945
f  943 945 944
f  945 946 947
f  948 897 896
f  940 896 888
f  949 901 897
f  950 899 898
f  952 898 900
f  953 904 901
f  954 900 902
f  955 902 903
f  956 905 904
f  958 903 906
f  957 909 905
f  959 906 907
f  960 907 908
f  961 911 909
f  962 908 910
f  948 896 940
f  948 949 897
f  950 898 952
f  950 951 899
f  952 900 954
f  948 940 950
f  948 950 952
f  948 952 949
f  949 952 953
f  940 951 950
f  949 953 901
f  953 956 904
f  954 902 955
f  956 957 905
f  955 903 958
f  953 952 954
f  953 954 956
f  954 955 956
f  956 955 957
f  955 958 957
f  958 906 959
f  957 961 909
f  959 907 960
f  960 908 962
f  962 910 977
f  961 963 911
f  957 958 961
f  958 959 961
f  959 960 961
f  961 960 963
f  960 962 963
f  962 977 963
f  964 913 912
f  966 894 914
f  967 916 915
f  968 917 916
f  971 915 919
f  970 920 918
f  972 919 920
f  946 894 966
f  947 964 912
f  964 965 913
f  966 914 974
f  967 968 916
f  947 946 964
f  946 966 964
f  964 966 965
f  967 969 968
f  967 915 971
f  968 969 917
f  971 919 972
f  970 972 920
f  967 970 969
f  967 971 970
f  970 971 972
f  965 921 913
f  974 914 922
f  973 922 921
f  975 926 923
f  976 923 924
f  977 910 925
f  978 925 926
f  963 927 911
f  979 924 927
f  980 929 928
f  969 935 917
f  982 918 930
f  983 932 931
f  985 930 933
f  984 934 932
f  988 931 936
f  987 928 935
f  981 939 929
f  989 936 937
f  990 937 938
f  965 973 921
f  973 974 922
f  965 974 973
f  965 966 974
f  975 978 926
f  975 923 976
f  976 924 979
f  977 925 978
f  963 979 927
f  980 928 987
f  980 981 929
f  975 976 978
f  963 977 979
f  977 978 979
f  978 976 979
f  980 987 981
f  970 918 982
f  983 931 988
f  982 930 985
f  983 984 932
f  985 933 1028
f  984 986 934
f  969 970 982
f  969 982 983
f  969 983 987
f  982 984 983
f  982 985 984
f  985 986 984
f  985 1028 986
f  969 987 935
f  981 991 939
f  988 936 989
f  989 937 990
f  983 988 987
f  981 987 991
f  987 988 991
f  988 989 991
f  989 990 991
f  1022 993 992
f  1023 994 993
f  1026 992 996
f  1025 997 995
f  1027 996 997
f  1022 1023 993
f  1023 1024 994
f  1022 992 1026
f  1026 996 1027
f  1025 1027 997
f  1022 1024 1023
f  1022 1026 1024
f  1024 1026 1025
f  1025 1026 1027
f  1028 933 998
f  986 999 934
f  1029 1001 999
f  1030 998 1000
f  1032 1000 1002
f  1031 1003 1001
f  1033 1004 1003
f  1034 1005 1004
f  1035 938 1005
f  991 1006 939
f  1037 1002 1007
f  1036 1007 1006
f  1040 1010 994
f  1038 1009 1008
f  1040 1008 1010
f  1039 1012 1009
f  1041 995 1011
f  986 1029 999
f  1028 998 1030
f  1029 1031 1001
f  1030 1000 1032
f  1032 1002 1037
f  986 1028 1029
f  1028 1030 1029
f  1029 1030 1031
f  1031 1030 1032
f  1035 1005 1034
f  1031 1033 1003
f  1033 1034 1004
f  990 938 1035
f  991 1036 1006
f  1037 1007 1036
f  1031 1032 1033
f  1033 1037 1034
f  991 990 1036
f  990 1035 1036
f  1035 1034 1036
f  1033 1032 1037
f  1034 1037 1036
f  1024 1040 994
f  1025 995 1041
f  1024 1025 1041
f  1038 1008 1040
f  1038 1039 1009
f  1039 1042 1012
f  1024 1041 1040
f  1038 1040 1039
f  1039 1040 1042
f  1041 1042 1040
f  1044 1013 1014
f  1043 1013 1044
f  1043 1011 1013
f  1042 1017 1012
f  1045 1016 1015
f  1047 1018 1017
f  1049 1014 1019
f  1048 1015 1018
f  1046 1021 1016
f  1050 1019 1020
f  1051 1020 1021
f  1041 1011 1043
f  1042 1047 1017
f  1041 1043 1044
f  1041 1044 1047
f  1045 1015 1048
f  1045 1046 1016
f  1041 1047 1042
f  1045 1048 1046
f  1044 1014 1049
f  1044 1049 1047
f  1047 1048 1018
f  1049 1019 1050
f  1046 1051 1021
f  1050 1020 1051
f  1047 1049 1048
f  1046 1048 1049
f  1046 1049 1051
f  1049 1050 1051
f  1075 1053 1052
f  1076 1054 1053
f  1079 1052 1056
f  1078 1057 1055
f  1077 1063 1054
f  1085 1055 1062
f  1080 1056 1057
f  1088 1062 1065
f  1075 1076 1053
f  1076 1077 1054
f  1075 1052 1079
f  1078 1080 1057
f  1075 1077 1076
f  1075 1079 1077
f  1077 1079 1078
f  1078 1079 1080
f  1078 1055 1085
f  1077 1086 1063
f  1077 1078 1085
f  1077 1085 1086
f  1079 1056 1080
f  1085 1062 1088
f  1087 1090 1067
f  1085 1088 1089
f  1085 1089 1090
f  1082 1058 1059
f  1083 1061 1060
f  1086 1060 1063
f  1084 1064 1061
f  1087 1067 1064
f  1081 1058 1082
f  1083 1084 1061
f  1083 1060 1086
f  1084 1087 1064
f  1083 1086 1084
f  1084 1086 1087
f  1086 1085 1087
f  1085 1090 1087
f  1089 1065 1066
f  1090 1068 1067
f  1094 1066 1072
f  1088 1065 1089
f  1090 1093 1068
f  1089 1066 1094
f  1090 1089 1094
f  1093 1071 1068
f  1091 1070 1069
f  1093 1069 1071
f  1092 1074 1070
f  1095 1072 1073
f  1096 1073 1074
f  1091 1092 1070
f  1091 1069 1093
f  1092 1096 1074
f  1094 1072 1095
f  1095 1073 1096
f  1090 1094 1093
f  1091 1093 1092
f  1092 1093 1094
f  1092 1094 1096
f  1094 1095 1096
f  1134 1099 1101
f  1133 1101 1100
f  1135 1103 1102
f  1136 1108 1103
f  1132 1104 1099
f  1137 1105 1104
f  1138 1165 1105
f  1139 1102 1106
f  1140 1106 1107
f  1194 1107 1166
f  1141 1110 1108
f  1142 1100 1109
f  1143 1111 1110
f  1145 1109 1112
f  1144 1113 1111
f  1146 1114 1113
f  1132 1099 1134
f  1134 1101 1133
f  1135 1136 1103
f  1132 1134 1135
f  1134 1133 1136
f  1136 1133 1141
f  1134 1136 1135
f  1132 1137 1104
f  1137 1138 1105
f  1138 1193 1165
f  1135 1102 1139
f  1139 1106 1140
f  1140 1107 1194
f  1132 1139 1137
f  1132 1135 1139
f  1137 1139 1138
f  1138 1139 1140
f  1138 1140 1193
f  1140 1194 1193
f  1136 1141 1108
f  1133 1100 1142
f  1141 1143 1110
f  1142 1109 1145
f  1143 1144 1111
f  1144 1146 1113
f  1133 1142 1141
f  1141 1142 1143
f  1142 1144 1143
f  1142 1145 1144
f  1145 1146 1144
f  1147 1116 1114
f  1148 1112 1115
f  1149 1117 1116
f  1151 1115 1118
f  1150 1118 1117
f  1152 1120 1119
f  1153 1123 1120
f  1155 1121 1122
f  1154 1179 1121
f  1160 1124 1127
f  1158 1119 1125
f  1157 1126 1124
f  1159 1125 1126
f  1156 1183 1123
f  1212 1128 1184
f  1161 1129 1128
f  1163 1127 1130
f  1162 1131 1129
f  1146 1147 1114
f  1145 1112 1148
f  1147 1149 1116
f  1149 1150 1117
f  1148 1115 1151
f  1150 1151 1118
f  1152 1153 1120
f  1145 1147 1146
f  1145 1148 1147
f  1147 1148 1149
f  1149 1151 1150
f  1149 1148 1151
f  1152 1156 1153
f  1154 1121 1155
f  1154 1155 1207
f  1153 1156 1123
f  1152 1119 1158
f  1157 1124 1160
f  1157 1159 1126
f  1158 1125 1159
f  1152 1157 1156
f  1152 1158 1157
f  1156 1157 1160
f  1156 1160 1161
f  1158 1159 1157
f  1156 1211 1183
f  1161 1128 1212
f  1160 1127 1163
f  1161 1162 1129
f  1163 1130 1238
f  1162 1164 1131
f  1156 1161 1211
f  1161 1212 1211
f  1160 1162 1161
f  1160 1163 1162
f  1162 1163 1164
f  1163 1238 1164
f  1193 1167 1165
f  1196 1166 1168
f  1195 1170 1167
f  1197 1168 1169
f  1199 1169 1171
f  1198 1173 1170
f  1200 1171 1172
f  1193 1195 1167
f  1194 1166 1196
f  1193 1194 1195
f  1194 1196 1195
f  1196 1168 1197
f  1195 1198 1170
f  1197 1169 1199
f  1199 1171 1200
f  1200 1172 1206
f  1198 1201 1173
f  1195 1196 1198
f  1196 1197 1198
f  1197 1199 1198
f  1198 1199 1201
f  1199 1200 1201
f  1200 1206 1201
f  1203 636 1175
f  1202 1176 1174
f  1204 1175 1176
f  1203 1204 1202
f  1202 1204 1176
f  1203 1202 658
f  1203 1175 1204
f  1205 1177 1216
f  1206 1172 1178
f  1207 1178 1179
f  1201 1180 1173
f  1208 1122 1180
f  1209 1182 1181
f  1211 1181 1183
f  1210 1187 1182
f  1213 1184 1185
f  1214 1185 1186
f  1206 1178 1207
f  1154 1207 1179
f  1201 1208 1180
f  1155 1122 1208
f  1209 1210 1182
f  1209 1181 1211
f  1206 1207 1208
f  1201 1206 1208
f  1207 1155 1208
f  1209 1211 1210
f  1210 1215 1187
f  1212 1184 1213
f  1214 1213 1185
f  1210 1211 1215
f  1211 1212 1215
f  1212 1213 1215
f  1214 1215 1213
f  1216 1177 1188
f  1219 1188 1191
f  1218 1192 1190
f  1217 1190 1189
f  1295 1191 1262
f  1220 1264 1192
f  1216 1188 1219
f  1218 1190 1217
f  1205 1216 1217
f  1216 1218 1217
f  1216 1219 1218
f  1295 1219 1191
f  1295 1220 1219
f  1295 1297 1220
f  1218 1220 1192
f  1220 1297 1264
f  1218 1219 1220
f  1238 1130 1221
f  1164 1222 1131
f  1239 1224 1222
f  1240 1221 1223
f  1241 1225 1224
f  1242 1226 1225
f  1244 1223 1227
f  1245 1227 1228
f  1246 1230 1229
f  1247 1231 1230
f  1250 1229 1233
f  1249 1234 1232
f  1251 1233 1234
f  1292 1259 1231
f  1293 1232 1260
f  1164 1239 1222
f  1238 1221 1240
f  1239 1241 1224
f  1241 1242 1225
f  1242 1243 1226
f  1240 1223 1244
f  1244 1227 1245
f  1245 1228 1289
f  1164 1238 1239
f  1238 1240 1239
f  1239 1240 1241
f  1241 1240 1244
f  1241 1244 1242
f  1242 1245 1243
f  1242 1244 1245
f  1245 1289 1243
f  1246 1247 1230
f  1247 1248 1231
f  1246 1229 1250
f  1249 1251 1234
f  1250 1233 1251
f  1249 1232 1293
f  1246 1248 1247
f  1246 1250 1248
f  1248 1249 1293
f  1250 1249 1248
f  1250 1251 1249
f  1248 1292 1231
f  1248 1293 1292
f  1252 1260 1235
f  1294 1237 1261
f  1253 1235 1236
f  1254 1274 1237
f  1308 1236 1275
f  1293 1252 1253
f  1293 1260 1252
f  1294 1254 1237
f  1293 1254 1294
f  1293 1253 1254
f  1252 1235 1253
f  1253 1236 1308
f  1254 1307 1274
f  1253 1308 1254
f  1254 1308 1307
f  1288 1186 1255
f  1215 1256 1187
f  1243 1255 1226
f  1289 1228 1256
f  1290 1258 1257
f  1292 1257 1259
f  1291 1261 1258
f  1214 1186 1288
f  1288 1255 1243
f  1215 1289 1256
f  1214 1288 1289
f  1214 1289 1215
f  1288 1243 1289
f  1290 1291 1258
f  1290 1257 1292
f  1291 1294 1261
f  1290 1292 1291
f  1291 1292 1294
f  1293 1294 1292
f  1296 1262 1263
f  1297 1265 1264
f  1298 1266 1265
f  1299 1268 1266
f  1300 1263 1267
f  1301 1269 1268
f  1302 1270 1269
f  1304 1267 1271
f  1303 1271 1270
f  1295 1262 1296
f  1295 1298 1297
f  1295 1296 1298
f  1296 1299 1298
f  1297 1298 1265
f  1298 1299 1266
f  1299 1301 1268
f  1296 1301 1299
f  1296 1263 1300
f  1301 1302 1269
f  1302 1303 1270
f  1300 1267 1304
f  1303 1304 1271
f  1296 1300 1301
f  1301 1300 1302
f  1300 1304 1302
f  1302 1304 1303
f  1305 1273 1272
f  1307 1272 1274
f  1306 1277 1273
f  1309 1275 1276
f  1310 1276 1277
f  1305 1306 1273
f  1305 1272 1307
f  1305 1307 1306
f  1306 1310 1277
f  1308 1275 1309
f  1309 1276 1310
f  1306 1307 1308
f  1306 1308 1310
f  1308 1309 1310
f  1316 1278 1283
f  1312 1279 1278
f  1313 1281 1280
f  1312 1282 1279
f  1315 1280 1282
f  1317 1283 1284
f  1314 1285 1281
f  1318 1286 1285
f  1319 1287 1286
f  1320 1396 1287
f  1316 1311 1278
f  1316 1314 1311
f  1311 1312 1278
f  1313 1314 1281
f  1313 1280 1315
f  1312 1315 1282
f  1311 1313 1312
f  1311 1314 1313
f  1313 1315 1312
f  1316 1283 1317
f  1317 1284 1409
f  1316 1319 1318
f  1316 1317 1319
f  1317 1320 1319
f  1317 1410 1320
f  1314 1318 1285
f  1318 1319 1286
f  1319 1320 1287
f  1316 1318 1314
f  1334 1174 1323
f  1205 1321 1177
f  1332 1322 1321
f  1333 1329 1322
f  1202 1174 1334
f  1202 1334 714
f  1205 1332 1321
f  1205 1337 1332
f  1332 1337 1333
f  1332 1333 1322
f  1335 1323 1324
f  1336 1324 1325
f  713 1336 1325
f  1334 1323 1335
f  713 1334 1336
f  1334 1335 1336
f  1335 1324 1336
f  1337 1189 1326
f  1338 1326 1327
f  1339 1327 1328
f  1217 1189 1337
f  1337 1326 1338
f  1205 1217 1337
f  1333 1340 1329
f  1338 1327 1339
f  1333 1337 1338
f  1333 1338 1340
f  1338 1339 1340
f  1340 1330 1329
f  1342 1328 1331
f  1341 1347 1330
f  1371 1331 1345
f  1340 1341 1330
f  1339 1328 1342
f  1340 1339 1341
f  1339 1342 1341
f  1342 1331 1371
f  1341 1373 1347
f  1341 1342 1373
f  1342 1371 1373
f  1369 1351 1343
f  1370 1343 1344
f  1369 1343 1370
f  1370 1344 1378
f  1369 1370 1377
f  1372 1345 1346
f  1373 1349 1347
f  1374 1346 1348
f  1376 1348 1350
f  1377 1350 1351
f  1375 1352 1349
f  1378 1344 1352
f  1371 1345 1372
f  1372 1346 1374
f  1374 1348 1376
f  1373 1375 1349
f  1373 1371 1372
f  1373 1372 1375
f  1372 1374 1375
f  1374 1376 1375
f  1376 1350 1377
f  1369 1377 1351
f  1375 1378 1352
f  1375 1376 1378
f  1376 1377 1378
f  1370 1378 1377
f  1380 1353 1354
f  1381 1356 1355
f  1382 1358 1356
f  1383 1355 1357
f  1384 1433 1358
f  1379 1353 1380
f  1380 1354 1385
f  1379 1380 1385
f  1381 1355 1383
f  1381 1382 1356
f  1382 1384 1358
f  1383 1357 1463
f  1381 1383 1382
f  1382 1383 1384
f  1383 1469 1384
f  1379 1360 1353
f  1385 1354 1359
f  1386 1361 1360
f  1388 1359 1362
f  1389 1362 1363
f  1392 1363 1366
f  1387 1364 1361
f  1390 1365 1364
f  1393 1366 1367
f  1478 1367 1442
f  1391 1368 1365
f  1379 1386 1360
f  1385 1359 1388
f  1386 1387 1361
f  1379 1385 1386
f  1385 1387 1386
f  1385 1388 1387
f  1388 1362 1389
f  1389 1363 1392
f  1387 1390 1364
f  1390 1391 1365
f  1392 1366 1393
f  1393 1367 1478
f  1391 1394 1368
f  1388 1389 1390
f  1389 1392 1391
f  1387 1388 1390
f  1390 1389 1391
f  1392 1393 1394
f  1393 1478 1394
f  1392 1394 1391
f  1409 1284 1395
f  1410 1397 1396
f  1411 1399 1397
f  1412 1395 1398
f  1413 1400 1399
f  1415 1398 1401
f  1416 1401 1402
f  1409 1395 1412
f  1317 1409 1410
f  1320 1410 1396
f  1410 1411 1397
f  1411 1413 1399
f  1413 1414 1400
f  1409 1411 1410
f  1409 1412 1411
f  1411 1412 1413
f  1412 1415 1413
f  1413 1415 1414
f  1412 1398 1415
f  1415 1401 1416
f  1416 1402 1474
f  1415 1416 1414
f  1417 1404 1403
f  1418 1406 1404
f  1421 1405 1407
f  1420 1448 1406
f  1425 1403 1423
f  1419 1424 1405
f  1422 1407 1408
f  1417 1403 1425
f  1417 1418 1404
f  1418 1420 1406
f  1419 1405 1421
f  1421 1407 1422
f  1417 1419 1418
f  1418 1419 1420
f  1419 1421 1420
f  1421 1422 1420
f  1422 1408 1486
f  1417 1425 1419
f  1420 1422 1484
f  1426 1423 1424
f  1419 1426 1424
f  1425 1423 1426
f  1425 1426 1419
f  1463 1357 1427
f  1466 1427 1430
f  1464 1431 1428
f  1468 1428 1432
f  1414 1429 1400
f  1465 1430 1429
f  1467 1439 1431
f  1469 1434 1433
f  1470 1435 1434
f  1471 1437 1435
f  1472 1432 1436
f  1473 1444 1437
f  1475 1438 1439
f  1474 1402 1438
f  1476 1436 1440
f  1477 1440 1441
f  1384 1469 1433
f  1463 1427 1466
f  1464 1428 1468
f  1414 1465 1429
f  1465 1466 1430
f  1464 1467 1431
f  1468 1432 1472
f  1467 1475 1439
f  1383 1463 1464
f  1383 1464 1469
f  1463 1467 1464
f  1463 1466 1467
f  1464 1468 1469
f  1414 1474 1465
f  1465 1475 1466
f  1466 1475 1467
f  1469 1470 1434
f  1470 1471 1435
f  1471 1473 1437
f  1473 1480 1444
f  1469 1468 1470
f  1470 1472 1471
f  1470 1468 1472
f  1471 1476 1473
f  1471 1472 1476
f  1473 1476 1477
f  1473 1477 1480
f  1474 1438 1475
f  1414 1416 1474
f  1465 1474 1475
f  1472 1436 1476
f  1476 1440 1477
f  1477 1441 1481
f  1480 1443 1444
f  1479 1442 1443
f  1394 1445 1368
f  1481 1441 1445
f  1478 1442 1479
f  1479 1443 1480
f  1394 1481 1445
f  1394 1478 1481
f  1478 1479 1481
f  1479 1480 1481
f  1477 1481 1480
f  1483 1446 1447
f  1484 1449 1448
f  1486 1408 1450
f  1485 1451 1449
f  1487 1501 1451
f  1482 1446 1483
f  1483 1447 1489
f  1482 1483 1489
f  1420 1484 1448
f  1484 1485 1449
f  1486 1450 1510
f  1485 1487 1451
f  1487 1512 1501
f  1422 1486 1484
f  1484 1486 1485
f  1486 1510 1485
f  1485 1510 1487
f  1482 1452 1446
f  1489 1447 1453
f  1488 1456 1452
f  1490 1453 1454
f  1491 1454 1455
f  1492 1459 1456
f  1493 1455 1457
f  1494 1457 1458
f  1495 1462 1459
f  1496 1458 1460
f  1497 1460 1461
f  1482 1488 1452
f  1489 1453 1490
f  1490 1454 1491
f  1491 1455 1493
f  1488 1492 1456
f  1482 1489 1488
f  1488 1489 1490
f  1488 1490 1492
f  1490 1491 1492
f  1492 1491 1493
f  1493 1457 1494
f  1494 1458 1496
f  1492 1495 1459
f  1497 1461 1515
f  1497 1496 1460
f  1495 1498 1462
f  1493 1494 1495
f  1494 1496 1495
f  1492 1493 1495
f  1497 1498 1496
f  1495 1496 1498
f  1510 1450 1499
f  1511 1499 1500
f  1516 1500 1505
f  1512 1502 1501
f  1513 1503 1502
f  1514 1504 1503
f  1517 1505 1506
f  1520 1507 1509
f  1518 1506 1507
f  1510 1499 1511
f  1511 1500 1516
f  1487 1510 1511
f  1487 1511 1512
f  1512 1511 1516
f  1512 1513 1502
f  1513 1514 1503
f  1514 1515 1504
f  1516 1505 1517
f  1517 1506 1518
f  1518 1507 1520
f  1512 1516 1513
f  1513 1517 1514
f  1514 1520 1515
f  1516 1517 1513
f  1514 1517 1518
f  1514 1518 1520
f  1515 1461 1504
f  1498 1508 1462
f  1519 1509 1508
f  1498 1519 1508
f  1519 1520 1509
f  1497 1515 1519
f  1497 1519 1498
f  1515 1520 1519
