# OpenSCAD obj exporter
v 0 0 0
v 0 0 0.92
v 1.36499 0.785714 0.92
v 1.36499 0.799834 0.92
v 1.25603 1.12885 0.92
v 1.25603 1.14297 0.92
v 1.29626 1.12192 0.92
v 1.35913 1.12192 0.92
v 1.36499 0.785714 1.12
v 1.36499 0.799834 1.12
v 1.25603 1.12885 1.12
v 1.25603 1.14297 1.12
v 1.29626 1.12192 1.12
v 1.35913 1.12192 1.12
v 1.42174 0.807027 0.92
v 1.47315 0.807027 0.92
v 1.5299 0.785714 0.92
v 1.5299 0.799834 0.92
v 1.42174 0.924778 0.92
v 1.47315 0.926377 0.92
v 1.4617 0.957012 0.92
v 1.40708 1.12885 0.92
v 1.40708 1.14297 0.92
v 1.51391 1.12885 0.92
v 1.51391 1.14297 0.92
v 1.5592 1.12192 0.92
v 1.5909 1.12192 0.92
v 1.63006 1.12885 0.92
v 1.63006 1.14297 0.92
v 1.65007 1.12885 0.92
v 1.65007 1.14297 0.92
v 1.6903 1.12192 0.92
v 1.75903 0.785714 0.92
v 1.75903 0.799834 0.92
v 1.81578 0.807027 0.92
v 1.86719 0.807027 0.92
v 1.81578 0.924778 0.92
v 1.86719 0.926377 0.92
v 1.85574 0.957012 0.92
v 1.92394 0.785714 0.92
v 1.92394 0.799834 0.92
v 1.75317 1.12192 0.92
v 1.80112 1.12885 0.92
v 1.80112 1.14297 0.92
v 1.90795 1.12885 0.92
v 1.90795 1.14297 0.92
v 1.95324 1.12192 0.92
v 1.98494 1.12192 0.92
v 2.0241 1.12885 0.92
v 2.03852 1.12885 0.92
v 2.0241 1.14297 0.92
v 2.03852 1.14297 0.92
v 1.42174 0.807027 1.12
v 1.47315 0.807027 1.12
v 1.5299 0.785714 1.12
v 1.5299 0.799834 1.12
v 1.42174 0.924778 1.12
v 1.47315 0.926377 1.12
v 1.4617 0.957012 1.12
v 1.40708 1.12885 1.12
v 1.40708 1.14297 1.12
v 1.51391 1.12885 1.12
v 1.51391 1.14297 1.12
v 1.5592 1.12192 1.12
v 1.5909 1.12192 1.12
v 1.63006 1.12885 1.12
v 1.63006 1.14297 1.12
v 1.65007 1.12885 1.12
v 1.65007 1.14297 1.12
v 1.6903 1.12192 1.12
v 1.75903 0.785714 1.12
v 1.75903 0.799834 1.12
v 1.81578 0.807027 1.12
v 1.86719 0.807027 1.12
v 1.81578 0.924778 1.12
v 1.86719 0.926377 1.12
v 1.85574 0.957012 1.12
v 1.92394 0.785714 1.12
v 1.92394 0.799834 1.12
v 1.75317 1.12192 1.12
v 1.80112 1.12885 1.12
v 1.80112 1.14297 1.12
v 1.90795 1.12885 1.12
v 1.90795 1.14297 1.12
v 1.95324 1.12192 1.12
v 1.98494 1.12192 1.12
v 2.0241 1.12885 1.12
v 2.03852 1.12885 1.12
v 2.0241 1.14297 1.12
v 2.03852 1.14297 1.12
v 2.18797 0.777456 0.92
v 2.20209 0.777456 0.92
v 2.20742 0.870167 0.92
v 2.38991 0.777456 0.92
v 2.40402 0.777456 0.92
v 2.2972 1.02362 0.92
v 2.06969 1.12192 0.92
v 2.12244 1.12192 0.92
v 2.17492 1.12885 0.92
v 2.17492 1.14297 0.92
v 2.30359 1.11792 0.92
v 2.31558 1.11792 0.92
v 2.40829 0.870167 0.92
v 2.70297 0.777456 0.92
v 2.71709 0.777456 0.92
v 2.72242 0.870167 0.92
v 2.4336 1.12885 0.92
v 2.4336 1.14297 0.92
v 2.48927 1.12192 0.92
v 2.52071 1.12192 0.92
v 2.55188 1.12885 0.92
v 2.55351 1.12885 0.92
v 2.55188 1.14297 0.92
v 2.55351 1.14297 0.92
v 2.58468 1.12192 0.92
v 2.63743 1.12192 0.92
v 2.68991 1.12885 0.92
v 2.68991 1.14297 0.92
v 2.18797 0.777456 1.12
v 2.20209 0.777456 1.12
v 2.20742 0.870167 1.12
v 2.38991 0.777456 1.12
v 2.40402 0.777456 1.12
v 2.2972 1.02362 1.12
v 2.06969 1.12192 1.12
v 2.12244 1.12192 1.12
v 2.17492 1.12885 1.12
v 2.17492 1.14297 1.12
v 2.30359 1.11792 1.12
v 2.31558 1.11792 1.12
v 2.40829 0.870167 1.12
v 2.70297 0.777456 1.12
v 2.71709 0.777456 1.12
v 2.72242 0.870167 1.12
v 2.4336 1.12885 1.12
v 2.4336 1.14297 1.12
v 2.48927 1.12192 1.12
v 2.52071 1.12192 1.12
v 2.55188 1.12885 1.12
v 2.55351 1.12885 1.12
v 2.55188 1.14297 1.12
v 2.55351 1.14297 1.12
v 2.58468 1.12192 1.12
v 2.63743 1.12192 1.12
v 2.68991 1.12885 1.12
v 2.68991 1.14297 1.12
v 1.71095 2.53164 0.92
v 1.75943 2.3991 0.92
v 1.81751 2.36364 0.92
v 1.83992 2.38258 0.92
v 1.89477 2.35182 0.92
v 1.8953 2.37233 0.92
v 1.92481 2.37416 0.92
v 1.95997 2.35601 0.92
v 1.95258 2.37965 0.92
v 1.97669 2.38821 0.92
v 1.9952 2.39923 0.92
v 2.02078 2.3686 0.92
v 1.72307 2.45588 0.92
v 1.79953 2.41335 0.92
v 1.77485 2.46357 0.92
v 1.76663 2.53217 0.92
v 1.7226 2.61259 0.92
v 1.77449 2.60557 0.92
v 1.79806 2.65685 0.92
v 1.75757 2.6711 0.92
v 1.81545 2.70657 0.92
v 1.83876 2.68702 0.92
v 2.00506 2.45252 0.92
v 2.02238 2.45252 0.92
v 1.89797 2.69708 0.92
v 1.92331 2.69551 0.92
v 1.89583 2.71839 0.92
v 1.94818 2.69082 0.92
v 1.97133 2.68326 0.92
v 1.95358 2.71499 0.92
v 1.99947 2.62674 0.92
v 2.01705 2.62674 0.92
v 1.99148 2.6731 0.92
v 2.01545 2.7048 0.92
v 1.71095 2.53164 1.12
v 1.75943 2.3991 1.12
v 1.81751 2.36364 1.12
v 1.83992 2.38258 1.12
v 1.89477 2.35182 1.12
v 1.8953 2.37233 1.12
v 1.92481 2.37416 1.12
v 1.95997 2.35601 1.12
v 1.95258 2.37965 1.12
v 1.97669 2.38821 1.12
v 1.9952 2.39923 1.12
v 2.02078 2.3686 1.12
v 1.72307 2.45588 1.12
v 1.79953 2.41335 1.12
v 1.77485 2.46357 1.12
v 1.76663 2.53217 1.12
v 1.7226 2.61259 1.12
v 1.77449 2.60557 1.12
v 1.79806 2.65685 1.12
v 1.75757 2.6711 1.12
v 1.81545 2.70657 1.12
v 1.83876 2.68702 1.12
v 2.00506 2.45252 1.12
v 2.02238 2.45252 1.12
v 1.89797 2.69708 1.12
v 1.92331 2.69551 1.12
v 1.89583 2.71839 1.12
v 1.94818 2.69082 1.12
v 1.97133 2.68326 1.12
v 1.95358 2.71499 1.12
v 1.99947 2.62674 1.12
v 2.01705 2.62674 1.12
v 1.99148 2.6731 1.12
v 2.01545 2.7048 1.12
v 2.13376 1.57143 0.92
v 2.13376 1.58555 0.92
v 2.17426 1.59274 0.92
v 2.20329 1.59274 0.92
v 2.25125 1.57143 0.92
v 2.25125 1.58555 0.92
v 2.23926 1.69584 0.92
v 2.3674 1.57143 0.92
v 2.3674 1.58555 0.92
v 2.37992 1.69584 0.92
v 2.24725 1.71982 0.92
v 2.37166 1.71982 0.92
v 2.296 1.93161 0.92
v 2.30852 1.89325 0.92
v 2.34662 1.93161 0.92
v 2.41535 1.59274 0.92
v 2.47316 1.59274 0.92
v 2.51845 1.57143 0.92
v 2.51845 1.58555 0.92
v 2.54166 1.57143 0.92
v 2.54166 1.58555 0.92
v 2.58401 1.59274 0.92
v 2.63543 1.59274 0.92
v 2.68951 1.57143 0.92
v 2.68951 1.58555 0.92
v 2.53819 1.91456 0.92
v 2.53819 1.92868 0.92
v 2.63543 1.72808 0.92
v 2.63543 1.75205 0.92
v 2.68258 1.75205 0.92
v 2.69963 1.72808 0.92
v 2.72338 1.75648 0.92
v 2.58401 1.90763 0.92
v 2.63543 1.9047 0.92
v 2.68098 1.9047 0.92
v 2.69244 1.92868 0.92
v 2.72331 1.90041 0.92
v 2.13376 1.57143 1.12
v 2.13376 1.58555 1.12
v 2.17426 1.59274 1.12
v 2.20329 1.59274 1.12
v 2.25125 1.57143 1.12
v 2.25125 1.58555 1.12
v 2.23926 1.69584 1.12
v 2.3674 1.57143 1.12
v 2.3674 1.58555 1.12
v 2.37992 1.69584 1.12
v 2.24725 1.71982 1.12
v 2.37166 1.71982 1.12
v 2.296 1.93161 1.12
v 2.30852 1.89325 1.12
v 2.34662 1.93161 1.12
v 2.41535 1.59274 1.12
v 2.47316 1.59274 1.12
v 2.51845 1.57143 1.12
v 2.51845 1.58555 1.12
v 2.54166 1.57143 1.12
v 2.54166 1.58555 1.12
v 2.58401 1.59274 1.12
v 2.63543 1.59274 1.12
v 2.68951 1.57143 1.12
v 2.68951 1.58555 1.12
v 2.53819 1.91456 1.12
v 2.53819 1.92868 1.12
v 2.63543 1.72808 1.12
v 2.63543 1.75205 1.12
v 2.68258 1.75205 1.12
v 2.69963 1.72808 1.12
v 2.72338 1.75648 1.12
v 2.58401 1.90763 1.12
v 2.63543 1.9047 1.12
v 2.68098 1.9047 1.12
v 2.69244 1.92868 1.12
v 2.72331 1.90041 1.12
v 2.07169 2.35714 0.92
v 2.07169 2.37126 0.92
v 2.11405 2.37846 0.92
v 2.16546 2.37846 0.92
v 2.22221 2.35714 0.92
v 2.22221 2.37126 0.92
v 2.37168 2.35714 0.92
v 2.37168 2.37126 0.92
v 2.16546 2.49727 0.92
v 2.16546 2.52125 0.92
v 2.20569 2.49727 0.92
v 2.19317 2.52125 0.92
v 2.2323 2.52638 0.92
v 2.06822 2.70028 0.92
v 2.06822 2.7144 0.92
v 2.11405 2.69335 0.92
v 2.16546 2.69042 0.92
v 2.19157 2.69042 0.92
v 2.23306 2.68569 0.92
v 2.20302 2.7144 0.92
v 2.26054 2.5044 0.92
v 2.25964 2.54176 0.92
v 2.27572 2.56874 0.92
v 2.30093 2.52578 0.92
v 2.32581 2.56088 0.92
v 2.27595 2.64633 0.92
v 2.28108 2.60863 0.92
v 2.26057 2.6715 0.92
v 2.30133 2.68809 0.92
v 2.3341 2.60916 0.92
v 2.37168 2.70028 0.92
v 2.37168 2.7144 0.92
v 2.4175 2.37846 0.92
v 2.44547 2.37846 0.92
v 2.49342 2.35714 0.92
v 2.49342 2.37126 0.92
v 2.66579 2.35714 0.92
v 2.69163 2.35714 0.92
v 2.4175 2.69335 0.92
v 2.44547 2.67843 0.92
v 2.47984 2.7144 0.92
v 2.66366 2.44985 0.92
v 2.61571 2.70028 0.92
v 2.61571 2.7144 0.92
v 2.66366 2.69335 0.92
v 2.69163 2.69335 0.92
v 2.73746 2.70028 0.92
v 2.73746 2.7144 0.92
v 2.07169 2.35714 1.12
v 2.07169 2.37126 1.12
v 2.11405 2.37846 1.12
v 2.16546 2.37846 1.12
v 2.22221 2.35714 1.12
v 2.22221 2.37126 1.12
v 2.37168 2.35714 1.12
v 2.37168 2.37126 1.12
v 2.16546 2.49727 1.12
v 2.16546 2.52125 1.12
v 2.20569 2.49727 1.12
v 2.19317 2.52125 1.12
v 2.2323 2.52638 1.12
v 2.06822 2.70028 1.12
v 2.06822 2.7144 1.12
v 2.11405 2.69335 1.12
v 2.16546 2.69042 1.12
v 2.19157 2.69042 1.12
v 2.23306 2.68569 1.12
v 2.20302 2.7144 1.12
v 2.26054 2.5044 1.12
v 2.25964 2.54176 1.12
v 2.27572 2.56874 1.12
v 2.30093 2.52578 1.12
v 2.32581 2.56088 1.12
v 2.27595 2.64633 1.12
v 2.28108 2.60863 1.12
v 2.26057 2.6715 1.12
v 2.30133 2.68809 1.12
v 2.3341 2.60916 1.12
v 2.37168 2.70028 1.12
v 2.37168 2.7144 1.12
v 2.4175 2.37846 1.12
v 2.44547 2.37846 1.12
v 2.49342 2.35714 1.12
v 2.49342 2.37126 1.12
v 2.66579 2.35714 1.12
v 2.69163 2.35714 1.12
v 2.4175 2.69335 1.12
v 2.44547 2.67843 1.12
v 2.47984 2.7144 1.12
v 2.66366 2.44985 1.12
v 2.61571 2.70028 1.12
v 2.61571 2.7144 1.12
v 2.66366 2.69335 1.12
v 2.69163 2.69335 1.12
v 2.73746 2.70028 1.12
v 2.73746 2.7144 1.12
v 0 5.5 0
v 0.963626 3.92857 0.92
v 0.963626 3.95399 0.92
v 1.18277 3.92857 0.92
v 1.04611 3.96693 0.92
v 1.09646 3.96693 0.92
v 1.18277 3.95399 0.92
v 1.33191 3.92857 0.92
v 1.34869 3.92857 0.92
v 1.36739 4.0825 0.92
v 0.963626 3.92857 1.12
v 0.963626 3.95399 1.12
v 1.18277 3.92857 1.12
v 1.04611 3.96693 1.12
v 1.09646 3.96693 1.12
v 1.18277 3.95399 1.12
v 1.33191 3.92857 1.12
v 1.34869 3.92857 1.12
v 1.36739 4.0825 1.12
v 0.57093 4.72546 0.92
v 0.52958 4.78821 0.92
v 0.633076 4.68231 0.92
v 0.57093 4.72546 1.12
v 0.52958 4.78821 1.12
v 0.633076 4.68231 1.12
v 0 5.5 0.92
v 0.515796 4.86135 0.92
v 0.52978 4.93646 0.92
v 0.571731 4.99879 0.92
v 0.634078 5.04076 0.92
v 0.515796 4.86135 1.12
v 0.52978 4.93646 1.12
v 0.571731 4.99879 1.12
v 0.634078 5.04076 1.12
v 0.7092 4.66792 0.92
v 0.785318 4.68231 0.92
v 0.847446 4.72546 0.92
v 0.963626 4.54621 0.92
v 0.963626 4.57163 0.92
v 0.888814 4.78821 0.92
v 1.04611 4.53374 0.92
v 1.09646 4.48147 0.92
v 1.15832 4.57163 0.92
v 0.7092 4.66792 1.12
v 0.785318 4.68231 1.12
v 0.847446 4.72546 1.12
v 0.963626 4.54621 1.12
v 0.963626 4.57163 1.12
v 0.888814 4.78821 1.12
v 1.04611 4.53374 1.12
v 1.09646 4.48147 1.12
v 1.15832 4.57163 1.12
v 0.7092 5.05475 0.92
v 0.784316 5.04076 0.92
v 0.846645 4.99879 0.92
v 0.902604 4.86135 0.92
v 0.888614 4.93646 0.92
v 0.7092 5.05475 1.12
v 0.784316 5.04076 1.12
v 0.846645 4.99879 1.12
v 0.902604 4.86135 1.12
v 0.888614 4.93646 1.12
v 1.71095 3.31735 0.92
v 1.75943 3.18481 0.92
v 1.72307 3.24159 0.92
v 1.79953 3.19907 0.92
v 1.77485 3.24929 0.92
v 1.81751 3.14935 0.92
v 1.83992 3.1683 0.92
v 1.76663 3.31789 0.92
v 1.7226 3.39831 0.92
v 1.77449 3.39128 0.92
v 1.89477 3.13753 0.92
v 1.8953 3.15804 0.92
v 1.92481 3.15987 0.92
v 1.95258 3.16537 0.92
v 1.95997 3.14173 0.92
v 1.97669 3.17393 0.92
v 2.02078 3.15431 0.92
v 1.9952 3.18495 0.92
v 2.00506 3.23823 0.92
v 2.02238 3.23823 0.92
v 1.99947 3.41246 0.92
v 2.01705 3.41246 0.92
v 1.71095 3.31735 1.12
v 1.75943 3.18481 1.12
v 1.72307 3.24159 1.12
v 1.79953 3.19907 1.12
v 1.77485 3.24929 1.12
v 1.81751 3.14935 1.12
v 1.83992 3.1683 1.12
v 1.76663 3.31789 1.12
v 1.7226 3.39831 1.12
v 1.77449 3.39128 1.12
v 1.89477 3.13753 1.12
v 1.8953 3.15804 1.12
v 1.92481 3.15987 1.12
v 1.95258 3.16537 1.12
v 1.95997 3.14173 1.12
v 1.97669 3.17393 1.12
v 2.02078 3.15431 1.12
v 1.9952 3.18495 1.12
v 2.00506 3.23823 1.12
v 2.02238 3.23823 1.12
v 1.99947 3.41246 1.12
v 2.01705 3.41246 1.12
v 1.51892 3.92857 0.92
v 1.51892 3.95399 0.92
v 1.60524 3.96693 0.92
v 1.69731 3.96693 0.92
v 1.75757 3.45682 0.92
v 1.79806 3.44256 0.92
v 1.83876 3.47274 0.92
v 1.81545 3.49228 0.92
v 1.89797 3.48279 0.92
v 1.89583 3.5041 0.92
v 1.92331 3.48123 0.92
v 1.94818 3.47653 0.92
v 1.97133 3.46897 0.92
v 1.95358 3.50071 0.92
v 1.99148 3.45882 0.92
v 2.01545 3.49052 0.92
v 1.77979 3.92857 0.92
v 1.77979 3.95399 0.92
v 1.51892 3.92857 1.12
v 1.51892 3.95399 1.12
v 1.60524 3.96693 1.12
v 1.69731 3.96693 1.12
v 1.75757 3.45682 1.12
v 1.79806 3.44256 1.12
v 1.83876 3.47274 1.12
v 1.81545 3.49228 1.12
v 1.89797 3.48279 1.12
v 1.89583 3.5041 1.12
v 1.92331 3.48123 1.12
v 1.94818 3.47653 1.12
v 1.97133 3.46897 1.12
v 1.95358 3.50071 1.12
v 1.99148 3.45882 1.12
v 2.01545 3.49052 1.12
v 1.77979 3.92857 1.12
v 1.77979 3.95399 1.12
v 2.07169 3.14286 0.92
v 2.07169 3.15698 0.92
v 2.11405 3.16417 0.92
v 2.16546 3.16417 0.92
v 2.22221 3.14286 0.92
v 2.22221 3.15698 0.92
v 2.16546 3.28299 0.92
v 2.16546 3.30697 0.92
v 2.20569 3.28299 0.92
v 2.19317 3.30697 0.92
v 2.2323 3.31209 0.92
v 2.37168 3.14286 0.92
v 2.37168 3.15698 0.92
v 2.26054 3.29011 0.92
v 2.25964 3.32748 0.92
v 2.30093 3.31149 0.92
v 2.27572 3.35445 0.92
v 2.27595 3.43204 0.92
v 2.28108 3.39434 0.92
v 2.32581 3.34659 0.92
v 2.3341 3.39488 0.92
v 2.4175 3.16417 0.92
v 2.44547 3.16417 0.92
v 2.49342 3.14286 0.92
v 2.49342 3.15698 0.92
v 2.66366 3.23557 0.92
v 2.66579 3.14286 0.92
v 2.69163 3.14286 0.92
v 2.07169 3.14286 1.12
v 2.07169 3.15698 1.12
v 2.11405 3.16417 1.12
v 2.16546 3.16417 1.12
v 2.22221 3.14286 1.12
v 2.22221 3.15698 1.12
v 2.16546 3.28299 1.12
v 2.16546 3.30697 1.12
v 2.20569 3.28299 1.12
v 2.19317 3.30697 1.12
v 2.2323 3.31209 1.12
v 2.37168 3.14286 1.12
v 2.37168 3.15698 1.12
v 2.26054 3.29011 1.12
v 2.25964 3.32748 1.12
v 2.30093 3.31149 1.12
v 2.27572 3.35445 1.12
v 2.27595 3.43204 1.12
v 2.28108 3.39434 1.12
v 2.32581 3.34659 1.12
v 2.3341 3.39488 1.12
v 2.4175 3.16417 1.12
v 2.44547 3.16417 1.12
v 2.49342 3.14286 1.12
v 2.49342 3.15698 1.12
v 2.66366 3.23557 1.12
v 2.66579 3.14286 1.12
v 2.69163 3.14286 1.12
v 2.06822 3.48599 0.92
v 2.06822 3.50011 0.92
v 2.11405 3.47906 0.92
v 2.16546 3.47613 0.92
v 2.19157 3.47613 0.92
v 2.23306 3.4714 0.92
v 2.20302 3.50011 0.92
v 2.26057 3.45721 0.92
v 2.30133 3.4738 0.92
v 2.37168 3.48599 0.92
v 2.37168 3.50011 0.92
v 2.08868 3.92857 0.92
v 2.08868 3.95399 0.92
v 2.16493 3.96693 0.92
v 2.35962 3.92857 0.92
v 2.25748 3.96693 0.92
v 2.35962 3.95399 0.92
v 2.4175 3.47906 0.92
v 2.44547 3.46414 0.92
v 2.47984 3.50011 0.92
v 2.61571 3.48599 0.92
v 2.61571 3.50011 0.92
v 2.66366 3.47906 0.92
v 2.69163 3.47906 0.92
v 2.73746 3.48599 0.92
v 2.73746 3.50011 0.92
v 2.63586 3.92857 0.92
v 2.63586 3.95399 0.92
v 2.71834 3.96693 0.92
v 2.06822 3.48599 1.12
v 2.06822 3.50011 1.12
v 2.11405 3.47906 1.12
v 2.16546 3.47613 1.12
v 2.19157 3.47613 1.12
v 2.23306 3.4714 1.12
v 2.20302 3.50011 1.12
v 2.26057 3.45721 1.12
v 2.30133 3.4738 1.12
v 2.37168 3.48599 1.12
v 2.37168 3.50011 1.12
v 2.08868 3.92857 1.12
v 2.08868 3.95399 1.12
v 2.16493 3.96693 1.12
v 2.35962 3.92857 1.12
v 2.25748 3.96693 1.12
v 2.35962 3.95399 1.12
v 2.4175 3.47906 1.12
v 2.44547 3.46414 1.12
v 2.47984 3.50011 1.12
v 2.61571 3.48599 1.12
v 2.61571 3.50011 1.12
v 2.66366 3.47906 1.12
v 2.69163 3.47906 1.12
v 2.73746 3.48599 1.12
v 2.73746 3.50011 1.12
v 2.63586 3.92857 1.12
v 2.63586 3.95399 1.12
v 2.71834 3.96693 1.12
v 1.60524 4.48147 0.92
v 1.59565 4.57163 0.92
v 1.69731 4.53374 0.92
v 1.77979 4.54621 0.92
v 1.77979 4.57163 0.92
v 1.60524 4.48147 1.12
v 1.59565 4.57163 1.12
v 1.69731 4.53374 1.12
v 1.77979 4.54621 1.12
v 1.77979 4.57163 1.12
v 2.25748 4.1808 0.92
v 2.25748 4.22397 0.92
v 2.30735 4.22397 0.92
v 2.32988 4.1808 0.92
v 2.37778 4.2332 0.92
v 2.08245 4.54621 0.92
v 2.08245 4.57163 0.92
v 2.16493 4.53374 0.92
v 2.25748 4.52846 0.92
v 2.30447 4.52846 0.92
v 2.37915 4.51995 0.92
v 2.32509 4.57163 0.92
v 2.42861 4.19363 0.92
v 2.42699 4.26089 0.92
v 2.50132 4.23211 0.92
v 2.54609 4.29529 0.92
v 2.45594 4.30944 0.92
v 2.46559 4.38125 0.92
v 2.45636 4.4491 0.92
v 2.56102 4.38221 0.92
v 2.42866 4.49441 0.92
v 2.50204 4.52427 0.92
v 2.63586 4.54621 0.92
v 2.63586 4.57163 0.92
v 2.71834 4.53374 0.92
v 2.25748 4.1808 1.12
v 2.25748 4.22397 1.12
v 2.30735 4.22397 1.12
v 2.32988 4.1808 1.12
v 2.37778 4.2332 1.12
v 2.08245 4.54621 1.12
v 2.08245 4.57163 1.12
v 2.16493 4.53374 1.12
v 2.25748 4.52846 1.12
v 2.30447 4.52846 1.12
v 2.37915 4.51995 1.12
v 2.32509 4.57163 1.12
v 2.42861 4.19363 1.12
v 2.42699 4.26089 1.12
v 2.50132 4.23211 1.12
v 2.54609 4.29529 1.12
v 2.45594 4.30944 1.12
v 2.46559 4.38125 1.12
v 2.45636 4.4491 1.12
v 2.56102 4.38221 1.12
v 2.42866 4.49441 1.12
v 2.50204 4.52427 1.12
v 2.63586 4.54621 1.12
v 2.63586 4.57163 1.12
v 2.71834 4.53374 1.12
v 5.5 0 0
v 2.9049 0.777456 0.92
v 2.91902 0.777456 0.92
v 2.8122 1.02362 0.92
v 3.08369 0.785714 0.92
v 3.08369 0.799834 0.92
v 2.92328 0.870167 0.92
v 2.81859 1.11792 0.92
v 2.83058 1.11792 0.92
v 2.9486 1.12885 0.92
v 2.9486 1.14297 0.92
v 3.00427 1.12192 0.92
v 3.03571 1.12192 0.92
v 3.06688 1.12885 0.92
v 3.06688 1.14297 0.92
v 3.08369 1.12885 0.92
v 3.08369 1.14297 0.92
v 3.12952 0.807027 0.92
v 3.15749 0.807027 0.92
v 3.20544 0.785714 0.92
v 3.20544 0.799834 0.92
v 3.37781 0.785714 0.92
v 3.40365 0.785714 0.92
v 3.37567 0.878425 0.92
v 3.15749 1.107 0.92
v 3.12952 1.12192 0.92
v 3.19186 1.14297 0.92
v 3.32772 1.12885 0.92
v 3.32772 1.14297 0.92
v 3.37567 1.12192 0.92
v 3.40365 1.12192 0.92
v 2.9049 0.777456 1.12
v 2.91902 0.777456 1.12
v 2.8122 1.02362 1.12
v 3.08369 0.785714 1.12
v 3.08369 0.799834 1.12
v 2.92328 0.870167 1.12
v 2.81859 1.11792 1.12
v 2.83058 1.11792 1.12
v 2.9486 1.12885 1.12
v 2.9486 1.14297 1.12
v 3.00427 1.12192 1.12
v 3.03571 1.12192 1.12
v 3.06688 1.12885 1.12
v 3.06688 1.14297 1.12
v 3.08369 1.12885 1.12
v 3.08369 1.14297 1.12
v 3.12952 0.807027 1.12
v 3.15749 0.807027 1.12
v 3.20544 0.785714 1.12
v 3.20544 0.799834 1.12
v 3.37781 0.785714 1.12
v 3.40365 0.785714 1.12
v 3.37567 0.878425 1.12
v 3.15749 1.107 1.12
v 3.12952 1.12192 1.12
v 3.19186 1.14297 1.12
v 3.32772 1.12885 1.12
v 3.32772 1.14297 1.12
v 3.37567 1.12192 1.12
v 3.40365 1.12192 1.12
v 3.47773 0.785714 0.92
v 3.47773 0.799834 0.92
v 3.52356 0.807027 0.92
v 3.55153 0.807027 0.92
v 3.59948 0.785714 0.92
v 3.59948 0.799834 0.92
v 3.77185 0.785714 0.92
v 3.76971 0.878425 0.92
v 3.44947 1.12885 0.92
v 3.44947 1.14297 0.92
v 3.47773 1.12885 0.92
v 3.47773 1.14297 0.92
v 3.55153 1.107 0.92
v 3.52356 1.12192 0.92
v 3.5859 1.14297 0.92
v 3.72176 1.12885 0.92
v 3.72176 1.14297 0.92
v 3.76971 1.12192 0.92
v 3.79769 0.785714 0.92
v 3.87177 0.785714 0.92
v 3.87177 0.799834 0.92
v 3.9176 0.807027 0.92
v 3.94557 0.807027 0.92
v 3.99352 0.785714 0.92
v 3.99352 0.799834 0.92
v 3.79769 1.12192 0.92
v 3.84351 1.12885 0.92
v 3.84351 1.14297 0.92
v 3.94557 1.107 0.92
v 3.87177 1.12885 0.92
v 3.87177 1.14297 0.92
v 3.9176 1.12192 0.92
v 3.97994 1.14297 0.92
v 4.1158 1.12885 0.92
v 4.1158 1.14297 0.92
v 3.47773 0.785714 1.12
v 3.47773 0.799834 1.12
v 3.52356 0.807027 1.12
v 3.55153 0.807027 1.12
v 3.59948 0.785714 1.12
v 3.59948 0.799834 1.12
v 3.77185 0.785714 1.12
v 3.76971 0.878425 1.12
v 3.44947 1.12885 1.12
v 3.44947 1.14297 1.12
v 3.47773 1.12885 1.12
v 3.47773 1.14297 1.12
v 3.55153 1.107 1.12
v 3.52356 1.12192 1.12
v 3.5859 1.14297 1.12
v 3.72176 1.12885 1.12
v 3.72176 1.14297 1.12
v 3.76971 1.12192 1.12
v 3.79769 0.785714 1.12
v 3.87177 0.785714 1.12
v 3.87177 0.799834 1.12
v 3.9176 0.807027 1.12
v 3.94557 0.807027 1.12
v 3.99352 0.785714 1.12
v 3.99352 0.799834 1.12
v 3.79769 1.12192 1.12
v 3.84351 1.12885 1.12
v 3.84351 1.14297 1.12
v 3.94557 1.107 1.12
v 3.87177 1.12885 1.12
v 3.87177 1.14297 1.12
v 3.9176 1.12192 1.12
v 3.97994 1.14297 1.12
v 4.1158 1.12885 1.12
v 4.1158 1.14297 1.12
v 2.80007 1.57143 0.92
v 2.84696 1.59274 0.92
v 2.88558 1.57143 0.92
v 2.88558 1.58555 0.92
v 2.90213 1.57143 0.92
v 2.90213 1.58555 0.92
v 2.94795 1.59274 0.92
v 2.97592 1.59274 0.92
v 3.02387 1.57143 0.92
v 3.02387 1.58555 0.92
v 2.75025 1.73554 0.92
v 2.78089 1.74962 0.92
v 2.75038 1.76977 0.92
v 2.76547 1.79358 0.92
v 2.80406 1.77163 0.92
v 2.81865 1.80004 0.92
v 2.7705 1.82958 0.92
v 2.76553 1.86444 0.92
v 2.75065 1.88752 0.92
v 2.82351 1.83331 0.92
v 2.81552 1.87653 0.92
v 2.75078 1.92302 0.92
v 2.79154 1.90603 0.92
v 2.90213 1.91456 0.92
v 2.90213 1.92868 0.92
v 2.97592 1.8786 0.92
v 2.94795 1.90763 0.92
v 3.01029 1.92868 0.92
v 3.10673 1.57143 0.92
v 3.11605 1.57143 0.92
v 3.12644 1.65695 0.92
v 3.21063 1.57143 0.92
v 3.21063 1.58555 0.92
v 3.25858 1.59274 0.92
v 3.30973 1.59274 0.92
v 3.35555 1.57143 0.92
v 3.35555 1.58555 0.92
v 3.25858 1.8786 0.92
v 3.25325 1.92868 0.92
v 3.30973 1.90763 0.92
v 3.35555 1.91456 0.92
v 3.35555 1.92868 0.92
v 2.80007 1.57143 1.12
v 2.84696 1.59274 1.12
v 2.88558 1.57143 1.12
v 2.88558 1.58555 1.12
v 2.90213 1.57143 1.12
v 2.90213 1.58555 1.12
v 2.94795 1.59274 1.12
v 2.97592 1.59274 1.12
v 3.02387 1.57143 1.12
v 3.02387 1.58555 1.12
v 2.75025 1.73554 1.12
v 2.78089 1.74962 1.12
v 2.75038 1.76977 1.12
v 2.76547 1.79358 1.12
v 2.80406 1.77163 1.12
v 2.81865 1.80004 1.12
v 2.7705 1.82958 1.12
v 2.76553 1.86444 1.12
v 2.75065 1.88752 1.12
v 2.82351 1.83331 1.12
v 2.81552 1.87653 1.12
v 2.75078 1.92302 1.12
v 2.79154 1.90603 1.12
v 2.90213 1.91456 1.12
v 2.90213 1.92868 1.12
v 2.97592 1.8786 1.12
v 2.94795 1.90763 1.12
v 3.01029 1.92868 1.12
v 3.10673 1.57143 1.12
v 3.11605 1.57143 1.12
v 3.12644 1.65695 1.12
v 3.21063 1.57143 1.12
v 3.21063 1.58555 1.12
v 3.25858 1.59274 1.12
v 3.30973 1.59274 1.12
v 3.35555 1.57143 1.12
v 3.35555 1.58555 1.12
v 3.25858 1.8786 1.12
v 3.25325 1.92868 1.12
v 3.30973 1.90763 1.12
v 3.35555 1.91456 1.12
v 3.35555 1.92868 1.12
v 2.82086 2.3991 0.92
v 2.87894 2.36364 0.92
v 2.90135 2.38258 0.92
v 2.9562 2.35182 0.92
v 2.95673 2.37233 0.92
v 2.98624 2.37416 0.92
v 3.0214 2.35601 0.92
v 3.01401 2.37965 0.92
v 3.03812 2.38821 0.92
v 3.05663 2.39923 0.92
v 3.08221 2.3686 0.92
v 2.7845 2.45588 0.92
v 2.77238 2.53164 0.92
v 2.82806 2.53217 0.92
v 2.86096 2.41335 0.92
v 2.83628 2.46357 0.92
v 2.78403 2.61259 0.92
v 2.83592 2.60557 0.92
v 2.819 2.6711 0.92
v 2.85949 2.65685 0.92
v 2.87688 2.70657 0.92
v 2.90019 2.68702 0.92
v 3.06649 2.45252 0.92
v 3.08381 2.45252 0.92
v 2.9594 2.69708 0.92
v 2.95726 2.71839 0.92
v 2.98474 2.69551 0.92
v 3.0609 2.62674 0.92
v 3.07848 2.62674 0.92
v 3.00961 2.69082 0.92
v 3.03276 2.68326 0.92
v 3.01501 2.71499 0.92
v 3.0529 2.6731 0.92
v 3.07688 2.7048 0.92
v 3.13312 2.35714 0.92
v 3.13312 2.37126 0.92
v 3.17548 2.37846 0.92
v 3.22689 2.37846 0.92
v 3.28364 2.35714 0.92
v 3.28364 2.37126 0.92
v 3.43311 2.35714 0.92
v 3.43311 2.37126 0.92
v 3.22689 2.49727 0.92
v 3.22689 2.52125 0.92
v 3.2546 2.52125 0.92
v 3.12965 2.70028 0.92
v 3.12965 2.7144 0.92
v 3.17548 2.69335 0.92
v 3.22689 2.69042 0.92
v 3.253 2.69042 0.92
v 3.26445 2.7144 0.92
v 3.26712 2.49727 0.92
v 3.29373 2.52638 0.92
v 3.32197 2.5044 0.92
v 3.32107 2.54176 0.92
v 3.33715 2.56874 0.92
v 3.36236 2.52578 0.92
v 3.38723 2.56088 0.92
v 3.34251 2.60863 0.92
v 3.33738 2.64633 0.92
v 3.29449 2.68569 0.92
v 3.322 2.6715 0.92
v 3.39553 2.60916 0.92
v 3.36276 2.68809 0.92
v 3.43311 2.70028 0.92
v 3.43311 2.7144 0.92
v 2.82086 2.3991 1.12
v 2.87894 2.36364 1.12
v 2.90135 2.38258 1.12
v 2.9562 2.35182 1.12
v 2.95673 2.37233 1.12
v 2.98624 2.37416 1.12
v 3.0214 2.35601 1.12
v 3.01401 2.37965 1.12
v 3.03812 2.38821 1.12
v 3.05663 2.39923 1.12
v 3.08221 2.3686 1.12
v 2.7845 2.45588 1.12
v 2.77238 2.53164 1.12
v 2.82806 2.53217 1.12
v 2.86096 2.41335 1.12
v 2.83628 2.46357 1.12
v 2.78403 2.61259 1.12
v 2.83592 2.60557 1.12
v 2.819 2.6711 1.12
v 2.85949 2.65685 1.12
v 2.87688 2.70657 1.12
v 2.90019 2.68702 1.12
v 3.06649 2.45252 1.12
v 3.08381 2.45252 1.12
v 2.9594 2.69708 1.12
v 2.95726 2.71839 1.12
v 2.98474 2.69551 1.12
v 3.0609 2.62674 1.12
v 3.07848 2.62674 1.12
v 3.00961 2.69082 1.12
v 3.03276 2.68326 1.12
v 3.01501 2.71499 1.12
v 3.0529 2.6731 1.12
v 3.07688 2.7048 1.12
v 3.13312 2.35714 1.12
v 3.13312 2.37126 1.12
v 3.17548 2.37846 1.12
v 3.22689 2.37846 1.12
v 3.28364 2.35714 1.12
v 3.28364 2.37126 1.12
v 3.43311 2.35714 1.12
v 3.43311 2.37126 1.12
v 3.22689 2.49727 1.12
v 3.22689 2.52125 1.12
v 3.2546 2.52125 1.12
v 3.12965 2.70028 1.12
v 3.12965 2.7144 1.12
v 3.17548 2.69335 1.12
v 3.22689 2.69042 1.12
v 3.253 2.69042 1.12
v 3.26445 2.7144 1.12
v 3.26712 2.49727 1.12
v 3.29373 2.52638 1.12
v 3.32197 2.5044 1.12
v 3.32107 2.54176 1.12
v 3.33715 2.56874 1.12
v 3.36236 2.52578 1.12
v 3.38723 2.56088 1.12
v 3.34251 2.60863 1.12
v 3.33738 2.64633 1.12
v 3.29449 2.68569 1.12
v 3.322 2.6715 1.12
v 3.39553 2.60916 1.12
v 3.36276 2.68809 1.12
v 3.43311 2.70028 1.12
v 3.43311 2.7144 1.12
v 3.47893 2.37846 0.92
v 3.5069 2.37846 0.92
v 3.55485 2.35714 0.92
v 3.55485 2.37126 0.92
v 3.72722 2.35714 0.92
v 3.75306 2.35714 0.92
v 3.47893 2.69335 0.92
v 3.5069 2.67843 0.92
v 3.54127 2.7144 0.92
v 3.72509 2.44985 0.92
v 3.67713 2.70028 0.92
v 3.67713 2.7144 0.92
v 3.72509 2.69335 0.92
v 3.75306 2.69335 0.92
v 3.79889 2.70028 0.92
v 3.79889 2.7144 0.92
v 3.47893 2.37846 1.12
v 3.5069 2.37846 1.12
v 3.55485 2.35714 1.12
v 3.55485 2.37126 1.12
v 3.72722 2.35714 1.12
v 3.75306 2.35714 1.12
v 3.47893 2.69335 1.12
v 3.5069 2.67843 1.12
v 3.54127 2.7144 1.12
v 3.72509 2.44985 1.12
v 3.67713 2.70028 1.12
v 3.67713 2.7144 1.12
v 3.72509 2.69335 1.12
v 3.75306 2.69335 1.12
v 3.79889 2.70028 1.12
v 3.79889 2.7144 1.12
v 4.16589 0.785714 0.92
v 4.19173 0.785714 0.92
v 4.16375 0.878425 0.92
v 4.16375 1.12192 0.92
v 4.19173 1.12192 0.92
v 4.23755 1.12885 0.92
v 4.23755 1.14297 0.92
v 4.16589 0.785714 1.12
v 4.19173 0.785714 1.12
v 4.16375 0.878425 1.12
v 4.16375 1.12192 1.12
v 4.19173 1.12192 1.12
v 4.23755 1.12885 1.12
v 4.23755 1.14297 1.12
v 5.5 0 0.92
v 5.5 5.5 0
v 2.7845 3.24159 0.92
v 2.82086 3.18481 0.92
v 2.87894 3.14935 0.92
v 2.90135 3.1683 0.92
v 2.86096 3.19907 0.92
v 2.83628 3.24929 0.92
v 2.77238 3.31735 0.92
v 2.82806 3.31789 0.92
v 2.78403 3.39831 0.92
v 2.83592 3.39128 0.92
v 2.9562 3.13753 0.92
v 2.95673 3.15804 0.92
v 2.98624 3.15987 0.92
v 3.0214 3.14173 0.92
v 3.01401 3.16537 0.92
v 3.03812 3.17393 0.92
v 3.08221 3.15431 0.92
v 3.05663 3.18495 0.92
v 3.06649 3.23823 0.92
v 3.08381 3.23823 0.92
v 3.0609 3.41246 0.92
v 3.07848 3.41246 0.92
v 3.13312 3.14286 0.92
v 3.13312 3.15698 0.92
v 3.17548 3.16417 0.92
v 3.22689 3.16417 0.92
v 3.22689 3.28299 0.92
v 3.22689 3.30697 0.92
v 3.2546 3.30697 0.92
v 3.28364 3.14286 0.92
v 3.28364 3.15698 0.92
v 3.43311 3.14286 0.92
v 3.43311 3.15698 0.92
v 3.26712 3.28299 0.92
v 3.29373 3.31209 0.92
v 3.32197 3.29011 0.92
v 3.32107 3.32748 0.92
v 3.33715 3.35445 0.92
v 3.34251 3.39434 0.92
v 3.33738 3.43204 0.92
v 3.36236 3.31149 0.92
v 3.38723 3.34659 0.92
v 3.39553 3.39488 0.92
v 2.7845 3.24159 1.12
v 2.82086 3.18481 1.12
v 2.87894 3.14935 1.12
v 2.90135 3.1683 1.12
v 2.86096 3.19907 1.12
v 2.83628 3.24929 1.12
v 2.77238 3.31735 1.12
v 2.82806 3.31789 1.12
v 2.78403 3.39831 1.12
v 2.83592 3.39128 1.12
v 2.9562 3.13753 1.12
v 2.95673 3.15804 1.12
v 2.98624 3.15987 1.12
v 3.0214 3.14173 1.12
v 3.01401 3.16537 1.12
v 3.03812 3.17393 1.12
v 3.08221 3.15431 1.12
v 3.05663 3.18495 1.12
v 3.06649 3.23823 1.12
v 3.08381 3.23823 1.12
v 3.0609 3.41246 1.12
v 3.07848 3.41246 1.12
v 3.13312 3.14286 1.12
v 3.13312 3.15698 1.12
v 3.17548 3.16417 1.12
v 3.22689 3.16417 1.12
v 3.22689 3.28299 1.12
v 3.22689 3.30697 1.12
v 3.2546 3.30697 1.12
v 3.28364 3.14286 1.12
v 3.28364 3.15698 1.12
v 3.43311 3.14286 1.12
v 3.43311 3.15698 1.12
v 3.26712 3.28299 1.12
v 3.29373 3.31209 1.12
v 3.32197 3.29011 1.12
v 3.32107 3.32748 1.12
v 3.33715 3.35445 1.12
v 3.34251 3.39434 1.12
v 3.33738 3.43204 1.12
v 3.36236 3.31149 1.12
v 3.38723 3.34659 1.12
v 3.39553 3.39488 1.12
v 2.819 3.45682 0.92
v 2.85949 3.44256 0.92
v 2.87688 3.49228 0.92
v 2.90019 3.47274 0.92
v 2.9594 3.48279 0.92
v 2.95726 3.5041 0.92
v 2.98474 3.48123 0.92
v 3.00961 3.47653 0.92
v 3.03276 3.46897 0.92
v 3.01501 3.50071 0.92
v 3.0529 3.45882 0.92
v 3.07688 3.49052 0.92
v 2.89289 3.92857 0.92
v 2.81041 3.96693 0.92
v 2.89289 3.95399 0.92
v 2.98953 4.1063 0.92
v 3.05499 4.00409 0.92
v 3.08274 4.12015 0.92
v 3.12965 3.48599 0.92
v 3.12965 3.50011 0.92
v 3.17548 3.47906 0.92
v 3.22689 3.47613 0.92
v 3.253 3.47613 0.92
v 3.26445 3.50011 0.92
v 3.29449 3.4714 0.92
v 3.322 3.45721 0.92
v 3.36276 3.4738 0.92
v 3.43311 3.48599 0.92
v 3.43311 3.50011 0.92
v 3.15953 3.94026 0.92
v 3.12716 4.02975 0.92
v 3.19987 3.97436 0.92
v 3.29859 3.91898 0.92
v 3.41595 3.92653 0.92
v 3.29955 3.9559 0.92
v 3.35266 3.9592 0.92
v 3.40265 3.96909 0.92
v 2.819 3.45682 1.12
v 2.85949 3.44256 1.12
v 2.87688 3.49228 1.12
v 2.90019 3.47274 1.12
v 2.9594 3.48279 1.12
v 2.95726 3.5041 1.12
v 2.98474 3.48123 1.12
v 3.00961 3.47653 1.12
v 3.03276 3.46897 1.12
v 3.01501 3.50071 1.12
v 3.0529 3.45882 1.12
v 3.07688 3.49052 1.12
v 2.89289 3.92857 1.12
v 2.81041 3.96693 1.12
v 2.89289 3.95399 1.12
v 2.98953 4.1063 1.12
v 3.05499 4.00409 1.12
v 3.08274 4.12015 1.12
v 3.12965 3.48599 1.12
v 3.12965 3.50011 1.12
v 3.17548 3.47906 1.12
v 3.22689 3.47613 1.12
v 3.253 3.47613 1.12
v 3.26445 3.50011 1.12
v 3.29449 3.4714 1.12
v 3.322 3.45721 1.12
v 3.36276 3.4738 1.12
v 3.43311 3.48599 1.12
v 3.43311 3.50011 1.12
v 3.15953 3.94026 1.12
v 3.12716 4.02975 1.12
v 3.19987 3.97436 1.12
v 3.29859 3.91898 1.12
v 3.41595 3.92653 1.12
v 3.29955 3.9559 1.12
v 3.35266 3.9592 1.12
v 3.40265 3.96909 1.12
v 3.47893 3.16417 0.92
v 3.5069 3.16417 0.92
v 3.55485 3.14286 0.92
v 3.55485 3.15698 0.92
v 3.72722 3.14286 0.92
v 3.75306 3.14286 0.92
v 3.72509 3.23557 0.92
v 3.47893 3.16417 1.12
v 3.5069 3.16417 1.12
v 3.55485 3.14286 1.12
v 3.55485 3.15698 1.12
v 3.72722 3.14286 1.12
v 3.75306 3.14286 1.12
v 3.72509 3.23557 1.12
v 3.47893 3.47906 0.92
v 3.5069 3.46414 0.92
v 3.54127 3.50011 0.92
v 3.67713 3.48599 0.92
v 3.67713 3.50011 0.92
v 3.72509 3.47906 0.92
v 3.75306 3.47906 0.92
v 3.52541 3.94919 0.92
v 3.44604 3.9845 0.92
v 3.47937 4.00433 0.92
v 3.49711 4.10024 0.92
v 3.52828 4.10024 0.92
v 3.63479 3.9396 0.92
v 3.7187 3.92414 0.92
v 3.68274 3.98468 0.92
v 3.62951 4.07483 0.92
v 3.66116 4.07483 0.92
v 3.70534 3.97485 0.92
v 3.73573 3.96645 0.92
v 3.76887 3.9607 0.92
v 3.79889 3.48599 0.92
v 3.79889 3.50011 0.92
v 3.80742 3.91898 0.92
v 3.90392 3.93121 0.92
v 3.79974 3.95878 0.92
v 3.8652 3.96741 0.92
v 3.911 3.9933 0.92
v 3.93797 4.03934 0.92
v 3.94696 4.1084 0.92
v 4.11675 3.92857 0.92
v 3.97573 3.9679 0.92
v 4.02033 4.02628 0.92
v 4.03519 4.1036 0.92
v 4.11675 3.99906 0.92
v 3.47893 3.47906 1.12
v 3.5069 3.46414 1.12
v 3.54127 3.50011 1.12
v 3.67713 3.48599 1.12
v 3.67713 3.50011 1.12
v 3.72509 3.47906 1.12
v 3.75306 3.47906 1.12
v 3.52541 3.94919 1.12
v 3.44604 3.9845 1.12
v 3.47937 4.00433 1.12
v 3.49711 4.10024 1.12
v 3.52828 4.10024 1.12
v 3.63479 3.9396 1.12
v 3.7187 3.92414 1.12
v 3.68274 3.98468 1.12
v 3.62951 4.07483 1.12
v 3.66116 4.07483 1.12
v 3.70534 3.97485 1.12
v 3.73573 3.96645 1.12
v 3.76887 3.9607 1.12
v 3.79889 3.48599 1.12
v 3.79889 3.50011 1.12
v 3.80742 3.91898 1.12
v 3.90392 3.93121 1.12
v 3.79974 3.95878 1.12
v 3.8652 3.96741 1.12
v 3.911 3.9933 1.12
v 3.93797 4.03934 1.12
v 3.94696 4.1084 1.12
v 4.11675 3.92857 1.12
v 3.97573 3.9679 1.12
v 4.02033 4.02628 1.12
v 4.03519 4.1036 1.12
v 4.11675 3.99906 1.12
v 2.96771 4.24266 0.92
v 3.06793 4.24362 0.92
v 2.98869 4.38838 0.92
v 3.08208 4.37573 0.92
v 2.81041 4.53374 0.92
v 2.89289 4.54621 0.92
v 2.89289 4.57163 0.92
v 3.05163 4.4937 0.92
v 3.12452 4.46804 0.92
v 3.15581 4.55754 0.92
v 3.19777 4.52235 0.92
v 3.30435 4.54046 0.92
v 3.34996 4.53764 0.92
v 3.30051 4.57882 0.92
v 3.39473 4.52918 0.92
v 3.4364 4.51558 0.92
v 3.40445 4.5727 0.92
v 2.96771 4.24266 1.12
v 3.06793 4.24362 1.12
v 2.98869 4.38838 1.12
v 3.08208 4.37573 1.12
v 2.81041 4.53374 1.12
v 2.89289 4.54621 1.12
v 2.89289 4.57163 1.12
v 3.05163 4.4937 1.12
v 3.12452 4.46804 1.12
v 3.15581 4.55754 1.12
v 3.19777 4.52235 1.12
v 3.30435 4.54046 1.12
v 3.34996 4.53764 1.12
v 3.30051 4.57882 1.12
v 3.39473 4.52918 1.12
v 3.4364 4.51558 1.12
v 3.40445 4.5727 1.12
v 3.48704 4.41386 0.92
v 3.5187 4.41386 0.92
v 3.74268 4.24458 0.92
v 3.74268 4.2839 0.92
v 3.64917 4.43448 0.92
v 3.68082 4.43448 0.92
v 3.47266 4.4973 0.92
v 3.51582 4.55436 0.92
v 3.64917 4.5582 0.92
v 3.6934 4.56857 0.92
v 3.6976 4.51312 0.92
v 3.72038 4.52349 0.92
v 3.74652 4.53158 0.92
v 3.77373 4.5368 0.92
v 3.73116 4.57474 0.92
v 3.76557 4.5778 0.92
v 3.81126 4.24075 0.92
v 3.81126 4.28822 0.92
v 3.86544 4.2652 0.92
v 3.93869 4.16408 0.92
v 3.91387 4.20454 0.92
v 3.87167 4.23002 0.92
v 3.9412 4.24764 0.92
v 3.92496 4.28229 0.92
v 3.85837 4.29805 0.92
v 3.89133 4.32179 0.92
v 3.91075 4.36039 0.92
v 3.91723 4.41482 0.92
v 4.02488 4.1672 0.92
v 3.99395 4.21509 0.92
v 3.96925 4.31435 0.92
v 3.99677 4.36069 0.92
v 4.00594 4.42057 0.92
v 3.79974 4.53854 0.92
v 3.85279 4.53116 0.92
v 3.79974 4.57882 0.92
v 3.88918 4.50904 0.92
v 3.91021 4.47074 0.92
v 3.95439 4.53926 0.92
v 3.48704 4.41386 1.12
v 3.5187 4.41386 1.12
v 3.74268 4.24458 1.12
v 3.74268 4.2839 1.12
v 3.64917 4.43448 1.12
v 3.68082 4.43448 1.12
v 3.47266 4.4973 1.12
v 3.51582 4.55436 1.12
v 3.64917 4.5582 1.12
v 3.6934 4.56857 1.12
v 3.6976 4.51312 1.12
v 3.72038 4.52349 1.12
v 3.74652 4.53158 1.12
v 3.77373 4.5368 1.12
v 3.73116 4.57474 1.12
v 3.76557 4.5778 1.12
v 3.81126 4.24075 1.12
v 3.81126 4.28822 1.12
v 3.86544 4.2652 1.12
v 3.93869 4.16408 1.12
v 3.91387 4.20454 1.12
v 3.87167 4.23002 1.12
v 3.9412 4.24764 1.12
v 3.92496 4.28229 1.12
v 3.85837 4.29805 1.12
v 3.89133 4.32179 1.12
v 3.91075 4.36039 1.12
v 3.91723 4.41482 1.12
v 4.02488 4.1672 1.12
v 3.99395 4.21509 1.12
v 3.96925 4.31435 1.12
v 3.99677 4.36069 1.12
v 4.00594 4.42057 1.12
v 3.79974 4.53854 1.12
v 3.85279 4.53116 1.12
v 3.79974 4.57882 1.12
v 3.88918 4.50904 1.12
v 3.91021 4.47074 1.12
v 3.95439 4.53926 1.12
v 4.17957 4.00242 0.92
v 4.20594 4.08011 0.92
v 4.2262 4.04426 0.92
v 4.2702 4.0825 0.92
v 4.51044 3.92857 0.92
v 4.51044 4.00242 0.92
v 4.17957 4.00242 1.12
v 4.20594 4.08011 1.12
v 4.2262 4.04426 1.12
v 4.2702 4.0825 1.12
v 4.51044 3.92857 1.12
v 4.51044 4.00242 1.12
v 4.28039 4.1482 0.92
v 4.13833 4.43448 0.92
v 4.16997 4.43448 0.92
v 4.33206 4.2019 0.92
v 4.35579 4.15797 0.92
v 4.36664 4.24914 0.92
v 4.4131 4.21461 0.92
v 4.45068 4.26197 0.92
v 4.38984 4.29781 0.92
v 4.40297 4.3508 0.92
v 4.40735 4.41098 0.92
v 4.40028 4.46589 0.92
v 4.18676 4.51312 0.92
v 4.20894 4.52349 0.92
v 4.13833 4.5582 0.92
v 4.23423 4.53158 0.92
v 4.26073 4.5368 0.92
v 4.2865 4.53854 0.92
v 4.21901 4.57366 0.92
v 4.2865 4.57882 0.92
v 4.37906 4.50593 0.92
v 4.34177 4.53039 0.92
v 4.37888 4.56785 0.92
v 4.44499 4.53494 0.92
v 4.47712 4.30956 0.92
v 4.49276 4.35877 0.92
v 4.49798 4.41098 0.92
v 4.48473 4.48201 0.92
v 4.28039 4.1482 1.12
v 4.13833 4.43448 1.12
v 4.16997 4.43448 1.12
v 4.33206 4.2019 1.12
v 4.35579 4.15797 1.12
v 4.36664 4.24914 1.12
v 4.4131 4.21461 1.12
v 4.45068 4.26197 1.12
v 4.38984 4.29781 1.12
v 4.40297 4.3508 1.12
v 4.40735 4.41098 1.12
v 4.40028 4.46589 1.12
v 4.18676 4.51312 1.12
v 4.20894 4.52349 1.12
v 4.13833 4.5582 1.12
v 4.23423 4.53158 1.12
v 4.26073 4.5368 1.12
v 4.2865 4.53854 1.12
v 4.21901 4.57366 1.12
v 4.2865 4.57882 1.12
v 4.37906 4.50593 1.12
v 4.34177 4.53039 1.12
v 4.37888 4.56785 1.12
v 4.44499 4.53494 1.12
v 4.47712 4.30956 1.12
v 4.49276 4.35877 1.12
v 4.49798 4.41098 1.12
v 4.48473 4.48201 1.12
v 5.5 5.5 0.92
f  2 3 4
f  2 4 5
f  2 17 3
f  2 33 17
f  2 40 33
f  2 91 40
f  2 5 6
f  7 5 4
f  7 4 19
f  1 2 410
f  2 386 387
f  2 6 386
f  6 147 386
f  1 1094 2
f  2 92 91
f  2 94 92
f  2 95 94
f  2 104 95
f  2 105 104
f  2 702 105
f  2 703 702
f  2 705 703
f  15 19 4
f  16 32 20
f  17 37 18
f  34 17 33
f  35 17 34
f  16 18 32
f  32 18 37
f  21 22 8
f  22 25 23
f  21 26 22
f  25 22 24
f  26 24 22
f  20 32 27
f  27 32 28
f  28 31 29
f  31 28 30
f  32 30 28
f  35 37 17
f  40 91 41
f  36 41 97
f  36 97 38
f  97 41 91
f  39 43 42
f  39 47 43
f  43 46 44
f  46 43 45
f  47 45 43
f  29 31 216
f  44 216 31
f  38 49 48
f  38 50 49
f  38 97 50
f  49 52 51
f  52 49 50
f  44 46 215
f  51 215 46
f  2 720 705
f  2 722 720
f  2 723 722
f  2 762 723
f  96 92 94
f  93 99 98
f  93 101 99
f  99 101 100
f  51 52 215
f  100 215 52
f  103 107 102
f  108 102 107
f  100 101 219
f  102 219 101
f  102 108 222
f  95 104 115
f  95 111 110
f  95 112 111
f  95 115 112
f  103 109 107
f  111 114 113
f  114 111 112
f  113 222 108
f  113 114 234
f  106 117 116
f  106 708 117
f  117 708 118
f  118 234 114
f  23 148 6
f  23 25 149
f  29 149 25
f  159 6 148
f  147 6 159
f  148 23 149
f  29 216 151
f  44 215 216
f  29 151 149
f  227 154 151
f  290 158 289
f  150 177 160
f  161 177 162
f  160 177 161
f  162 177 164
f  164 177 165
f  165 177 168
f  152 177 150
f  153 178 152
f  155 178 153
f  152 178 177
f  156 178 155
f  157 178 156
f  157 169 178
f  170 302 169
f  158 304 170
f  168 177 171
f  171 177 172
f  172 177 174
f  174 179 175
f  179 174 177
f  169 302 178
f  178 302 180
f  303 180 302
f  215 100 219
f  217 227 216
f  102 222 219
f  218 220 223
f  218 223 221
f  219 223 220
f  223 219 222
f  221 223 230
f  221 230 224
f  227 151 216
f  225 226 228
f  113 232 222
f  113 234 232
f  232 234 235
f  232 235 233
f  233 247 231
f  247 233 235
f  236 247 235
f  234 118 238
f  118 832 238
f  237 239 242
f  238 832 239
f  245 239 832
f  242 239 245
f  231 240 229
f  231 247 240
f  229 240 241
f  249 248 243
f  251 243 244
f  244 246 849
f  246 844 845
f  251 249 243
f  244 850 251
f  244 849 850
f  154 227 158
f  158 227 289
f  289 227 293
f  291 158 290
f  229 293 227
f  229 295 293
f  295 229 323
f  293 296 294
f  296 293 295
f  291 304 158
f  292 294 297
f  297 294 299
f  299 294 309
f  300 301 298
f  301 310 298
f  310 311 298
f  304 302 170
f  306 305 298
f  314 316 298
f  307 306 298
f  316 307 298
f  294 296 309
f  309 296 312
f  311 315 298
f  312 321 313
f  321 312 296
f  313 321 318
f  321 327 318
f  315 314 298
f  318 319 317
f  320 317 319
f  319 318 327
f  229 241 323
f  323 241 250
f  323 325 324
f  323 250 325
f  853 326 250
f  325 250 326
f  324 328 322
f  324 325 328
f  332 329 331
f  928 326 927
f  326 928 932
f  326 932 334
f  330 331 329
f  330 333 331
f  334 932 335
f  1 410 385
f  1 385 1095
f  385 410 1095
f  2 387 406
f  2 404 405
f  2 406 404
f  2 405 411
f  2 411 410
f  386 447 388
f  388 392 391
f  426 391 392
f  410 411 412
f  410 412 413
f  410 413 414
f  410 414 437
f  406 387 419
f  389 420 419
f  389 419 387
f  420 389 422
f  389 425 422
f  420 422 423
f  421 423 427
f  420 423 421
f  421 427 424
f  424 427 440
f  391 426 390
f  394 642 427
f  440 642 441
f  440 427 642
f  441 645 439
f  163 386 147
f  166 386 163
f  166 449 386
f  167 448 166
f  166 448 449
f  167 452 448
f  167 457 452
f  167 461 457
f  173 527 167
f  176 527 173
f  180 527 176
f  180 303 527
f  167 463 461
f  167 527 463
f  453 467 450
f  451 467 454
f  450 467 451
f  454 467 456
f  456 467 496
f  458 467 453
f  459 467 458
f  460 467 459
f  462 467 460
f  528 463 527
f  464 467 462
f  463 529 466
f  464 465 467
f  466 467 465
f  529 467 466
f  467 529 468
f  447 386 449
f  455 388 447
f  388 455 392
f  392 455 393
f  393 495 491
f  495 393 455
f  491 495 498
f  492 393 491
f  393 492 493
f  496 467 497
f  491 498 500
f  491 500 504
f  491 504 506
f  497 467 499
f  499 467 501
f  501 467 502
f  505 503 502
f  505 502 467
f  468 583 506
f  584 506 583
f  507 506 584
f  589 507 584
f  506 507 491
f  494 508 595
f  507 589 508
f  508 589 594
f  595 508 594
f  308 527 303
f  308 531 527
f  317 531 308
f  317 320 531
f  329 531 320
f  531 332 532
f  535 532 336
f  463 528 529
f  530 532 533
f  533 532 535
f  529 583 468
f  529 585 583
f  534 536 537
f  537 541 534
f  541 543 534
f  587 586 534
f  588 587 534
f  590 588 534
f  544 590 534
f  535 538 539
f  535 539 540
f  540 539 542
f  548 542 539
f  543 545 534
f  545 544 534
f  542 548 546
f  546 548 600
f  546 600 547
f  531 329 332
f  532 332 336
f  535 936 538
f  535 336 936
f  936 550 538
f  551 601 549
f  550 553 551
f  551 553 601
f  1102 554 1096
f  552 603 602
f  552 605 603
f  554 1102 1104
f  554 1104 607
f  554 607 606
f  594 589 591
f  547 592 591
f  593 591 592
f  592 547 600
f  594 591 593
f  602 597 593
f  594 593 597
f  598 599 651
f  651 599 654
f  654 599 663
f  604 602 603
f  597 602 604
f  597 604 608
f  597 608 1187
f  597 1200 609
f  597 610 599
f  597 609 610
f  599 610 663
f  393 493 641
f  441 642 645
f  439 645 657
f  494 644 643
f  494 658 644
f  494 595 658
f  644 657 645
f  657 644 656
f  658 656 644
f  596 658 595
f  653 655 652
f  655 664 652
f  664 667 652
f  660 659 652
f  661 660 652
f  667 668 652
f  668 669 652
f  671 661 652
f  669 671 652
f  663 610 665
f  665 610 675
f  611 675 610
f  675 666 665
f  666 675 670
f  662 672 674
f  670 673 672
f  674 672 673
f  673 670 675
f  410 437 1518
f  1518 437 438
f  1518 438 439
f  1 701 1094
f  1 1095 701
f  701 1095 1094
f  2 1094 762
f  704 105 702
f  706 703 705
f  703 714 713
f  703 706 726
f  703 716 714
f  703 726 716
f  707 710 709
f  711 709 710
f  118 708 832
f  709 832 708
f  709 711 836
f  707 712 710
f  714 717 715
f  717 714 716
f  836 711 715
f  840 715 717
f  720 722 721
f  718 726 706
f  721 725 719
f  725 721 722
f  723 770 731
f  727 861 717
f  863 727 729
f  724 728 727
f  729 727 728
f  724 730 728
f  771 867 729
f  771 773 867
f  763 723 762
f  723 763 775
f  764 775 763
f  723 772 770
f  723 775 772
f  767 774 765
f  766 768 767
f  774 767 768
f  770 773 771
f  773 770 772
f  867 773 776
f  868 776 778
f  769 777 776
f  778 776 777
f  769 779 777
f  789 868 778
f  782 780 781
f  780 782 793
f  780 788 787
f  780 791 788
f  780 793 791
f  783 793 782
f  785 1080 786
f  786 790 784
f  790 786 1080
f  788 792 789
f  792 788 791
f  1082 795 794
f  796 794 795
f  832 709 834
f  709 836 834
f  842 833 843
f  837 834 836
f  834 837 835
f  835 858 833
f  858 835 837
f  836 715 840
f  840 717 860
f  838 858 837
f  841 857 839
f  840 860 841
f  857 841 860
f  246 845 848
f  848 849 246
f  833 858 843
f  843 858 846
f  846 858 847
f  847 855 851
f  851 855 852
f  855 847 858
f  852 856 854
f  852 855 856
f  860 717 861
f  727 863 861
f  864 861 863
f  861 864 869
f  865 869 864
f  863 729 867
f  867 776 868
f  871 866 868
f  862 870 859
f  854 917 853
f  853 916 326
f  853 917 916
f  854 856 917
f  917 856 919
f  927 326 916
f  920 930 918
f  859 919 856
f  919 859 922
f  922 859 926
f  859 950 926
f  921 931 920
f  923 931 921
f  920 931 930
f  938 929 931
f  938 933 929
f  933 938 935
f  934 335 932
f  936 336 335
f  936 335 934
f  931 923 924
f  931 924 925
f  931 925 938
f  939 937 938
f  943 939 944
f  935 938 937
f  937 939 940
f  940 939 942
f  942 939 945
f  945 939 948
f  948 939 943
f  945 948 946
f  950 859 870
f  950 870 873
f  951 926 950
f  954 957 955
f  957 954 956
f  926 951 963
f  952 963 951
f  926 963 939
f  953 955 958
f  958 955 967
f  960 968 959
f  939 961 944
f  963 961 939
f  944 961 949
f  965 964 959
f  976 965 959
f  967 955 969
f  955 957 969
f  968 970 959
f  970 971 959
f  971 974 959
f  969 957 972
f  1048 972 957
f  972 1048 973
f  974 975 959
f  975 977 959
f  977 976 959
f  973 1054 978
f  978 980 979
f  981 979 980
f  980 978 1054
f  871 868 789
f  871 796 872
f  872 796 873
f  871 789 792
f  871 792 794
f  950 873 1086
f  871 794 796
f  1086 873 796
f  1094 954 950
f  1094 956 954
f  1050 1052 1051
f  1051 1055 1049
f  973 1048 1054
f  1055 1051 1052
f  1057 1058 1056
f  1059 1056 1058
f  1057 1060 1058
f  1053 1062 1061
f  1094 766 762
f  1094 768 766
f  1094 780 768
f  1094 781 780
f  1094 785 781
f  1094 1080 785
f  1094 1081 1080
f  1094 1085 1081
f  1081 1085 1084
f  1082 1083 795
f  1094 950 1086
f  1094 1086 1085
f  1094 1050 956
f  1094 1052 1050
f  1094 1053 1052
f  1094 1062 1053
f  1094 1063 1062
f  1094 1261 1063
f  1094 1290 1261
f  1094 1291 1290
f  1094 1454 1291
f  1094 1455 1454
f  550 936 941
f  550 941 947
f  550 947 949
f  550 949 961
f  550 961 553
f  961 554 553
f  962 1098 554
f  962 554 961
f  962 1106 1098
f  962 1109 1106
f  962 1112 1109
f  1097 554 1098
f  1096 554 1097
f  1100 1116 1101
f  1101 1116 1103
f  1103 1116 1105
f  1105 1116 1183
f  1099 1116 1100
f  1107 1116 1099
f  1108 1117 1107
f  1110 1117 1108
f  1111 1117 1110
f  1113 1117 1111
f  1107 1117 1116
f  1113 1114 1117
f  1115 1200 1114
f  1114 1200 1117
f  966 1118 962
f  979 1118 966
f  962 1118 1112
f  979 981 1118
f  1056 1125 981
f  981 1125 1118
f  1119 1112 1118
f  1112 1119 1120
f  1121 1126 1122
f  1122 1126 1129
f  1112 1202 1115
f  1112 1120 1202
f  1202 1200 1115
f  1124 1130 1123
f  1204 1203 1123
f  1206 1204 1123
f  1125 1128 1126
f  1129 1126 1131
f  1126 1128 1131
f  1128 1125 1127
f  1131 1128 1136
f  1256 1136 1128
f  1130 1132 1123
f  1132 1133 1123
f  1133 1134 1123
f  1134 1135 1123
f  1207 1206 1123
f  1135 1207 1123
f  1136 1256 1137
f  1137 1256 1138
f  1182 607 1104
f  607 1182 608
f  1184 608 1182
f  1187 608 1184
f  597 1187 1191
f  597 1191 1193
f  597 1193 1200
f  1183 1116 1185
f  1185 1116 1186
f  1186 1116 1188
f  1188 1116 1189
f  1192 1189 1116
f  1192 1190 1189
f  1201 609 1200
f  609 1201 1194
f  1196 1338 1195
f  1194 1201 1211
f  1194 1198 1196
f  1197 1196 1198
f  1196 1197 1338
f  1198 1194 1211
f  1117 1200 1193
f  1138 1209 1208
f  1209 1138 1270
f  1210 1208 1209
f  1205 1282 1201
f  1208 1282 1205
f  1211 1201 1214
f  1214 1201 1215
f  1215 1201 1277
f  1282 1277 1201
f  1216 1372 1213
f  1217 1373 1216
f  1218 1373 1217
f  1056 1059 1125
f  1059 1127 1125
f  1059 1258 1127
f  1063 1260 1059
f  1059 1260 1258
f  1063 1261 1260
f  1259 1271 1257
f  1271 1259 1260
f  1256 1270 1138
f  1258 1260 1259
f  1262 1273 1272
f  1262 1275 1273
f  1261 1290 1276
f  1208 1210 1282
f  1272 1282 1210
f  1274 1272 1273
f  1282 1272 1274
f  1291 1283 1274
f  1291 1292 1283
f  1278 1373 1218
f  1277 1282 1285
f  1277 1285 1281
f  1286 1281 1285
f  1282 1274 1283
f  1288 1284 1287
f  1289 1284 1288
f  1284 1289 1286
f  1294 1286 1289
f  1295 1286 1294
f  1281 1286 1298
f  1292 1291 1293
f  1293 1291 1300
f  1296 1286 1295
f  1297 1286 1296
f  1391 1281 1298
f  1298 1286 1297
f  1291 1299 1300
f  1303 1301 1300
f  1303 1300 1299
f  1301 1303 1451
f  1301 1451 1302
f  410 1518 1095
f  1195 1343 1342
f  1195 1340 1343
f  1195 1338 1340
f  1343 1345 1344
f  1345 1343 1340
f  1347 1344 1345
f  1212 1372 1199
f  1199 1372 1339
f  1339 1372 1341
f  1341 1372 1346
f  1213 1372 1212
f  1216 1373 1372
f  1346 1372 1348
f  1351 1344 1347
f  1348 1372 1349
f  1349 1372 1350
f  1350 1372 1352
f  1378 1353 1352
f  1518 439 657
f  1518 657 662
f  1279 1373 1278
f  1279 1280 1373
f  1281 1373 1280
f  1373 1281 1374
f  1374 1281 1388
f  1388 1281 1393
f  1393 1281 1392
f  1373 1375 1376
f  1375 1373 1374
f  1376 1375 1377
f  1389 1377 1375
f  1378 1352 1372
f  1373 1380 1379
f  1380 1373 1376
f  1377 1383 1382
f  1383 1377 1384
f  1384 1377 1385
f  1385 1377 1405
f  1405 1377 1406
f  1392 1281 1391
f  1390 1394 1395
f  1396 1377 1389
f  1397 1377 1396
f  1398 1377 1397
f  1399 1377 1398
f  1409 1377 1399
f  1401 1395 1394
f  1401 1402 1395
f  1302 1462 1400
f  1400 1465 1401
f  1401 1465 1402
f  1402 1465 1403
f  1403 1463 1404
f  1463 1403 1464
f  1406 1377 1408
f  1408 1377 1409
f  1404 1476 1410
f  1476 1404 1463
f  1518 662 674
f  1518 674 1344
f  1518 1344 1351
f  1518 1351 1354
f  1094 1095 1518
f  1299 1291 1454
f  1462 1302 1451
f  1450 1455 1452
f  1452 1455 1453
f  1453 1455 1466
f  1466 1455 1468
f  1094 1518 1455
f  1400 1462 1465
f  1467 1403 1465
f  1403 1471 1464
f  1470 1403 1467
f  1471 1403 1470
f  1472 1464 1471
f  1473 1464 1472
f  1464 1475 1474
f  1475 1464 1477
f  1477 1464 1478
f  1478 1464 1479
f  1479 1464 1483
f  1482 1464 1473
f  1483 1464 1482
f  1518 1468 1455
f  1518 1469 1468
f  1518 1486 1469
f  1518 1354 1379
f  1518 1379 1380
f  1518 1380 1381
f  1518 1381 1386
f  1518 1386 1387
f  1518 1387 1407
f  1518 1407 1410
f  1518 1410 1476
f  1518 1476 1480
f  1518 1480 1481
f  1518 1481 1484
f  1518 1485 1489
f  1518 1484 1485
f  1518 1487 1486
f  1518 1488 1487
f  1518 1489 1488
f  9 4 3
f  9 10 4
f  11 6 5
f  13 5 7
f  12 23 6
f  11 12 6
f  11 5 13
f  57 13 7
f  12 61 23
f  11 13 12
f  57 14 13
f  12 13 14
f  12 14 61
f  10 15 4
f  53 19 15
f  55 3 17
f  54 18 16
f  56 17 18
f  57 7 19
f  58 16 20
f  59 26 21
f  10 53 15
f  9 3 55
f  54 16 58
f  54 56 18
f  55 17 56
f  9 53 10
f  9 55 53
f  53 54 57
f  53 55 54
f  54 55 56
f  53 57 19
f  59 21 14
f  58 20 65
f  54 58 57
f  57 58 59
f  57 59 14
f  58 64 59
f  14 21 8
f  60 8 22
f  61 22 23
f  62 25 24
f  64 24 26
f  65 20 27
f  63 29 25
f  66 27 28
f  67 28 29
f  68 31 30
f  70 30 32
f  69 44 31
f  14 8 60
f  60 22 61
f  59 64 26
f  62 63 25
f  62 24 64
f  14 60 61
f  58 65 64
f  62 64 63
f  65 27 66
f  63 67 29
f  66 28 67
f  68 69 31
f  68 30 70
f  63 64 65
f  63 65 67
f  65 66 67
f  68 70 69
f  69 70 80
f  71 34 33
f  72 35 34
f  73 37 35
f  78 33 40
f  74 41 36
f  75 32 37
f  76 36 38
f  77 47 39
f  79 40 41
f  71 72 34
f  72 73 35
f  71 33 78
f  74 36 76
f  71 73 72
f  71 78 73
f  73 74 75
f  73 78 74
f  73 75 37
f  80 77 39
f  75 76 77
f  74 76 75
f  80 75 77
f  74 79 41
f  78 40 79
f  74 78 79
f  76 38 86
f  77 76 85
f  80 39 42
f  81 42 43
f  82 43 44
f  86 38 48
f  83 46 45
f  85 45 47
f  84 51 46
f  87 48 49
f  89 49 51
f  88 52 50
f  125 50 97
f  70 32 75
f  69 82 44
f  80 42 81
f  81 43 82
f  70 75 80
f  69 80 82
f  80 81 82
f  77 85 47
f  83 84 46
f  83 45 85
f  86 48 87
f  84 89 51
f  87 49 89
f  88 90 52
f  88 50 125
f  76 86 85
f  83 85 84
f  84 85 86
f  84 86 89
f  86 87 89
f  88 125 90
f  120 91 92
f  119 97 91
f  123 94 95
f  124 92 96
f  121 101 93
f  122 96 94
f  119 91 120
f  119 125 97
f  120 92 124
f  121 93 126
f  119 120 125
f  120 121 125
f  122 94 123
f  124 96 122
f  131 103 130
f  120 124 121
f  121 124 129
f  124 122 131
f  124 131 129
f  90 100 52
f  126 93 98
f  127 98 99
f  128 99 100
f  129 102 101
f  130 103 102
f  126 98 127
f  90 128 100
f  127 99 128
f  121 126 125
f  90 125 126
f  90 126 128
f  126 127 128
f  121 129 101
f  129 130 102
f  131 130 129
f  131 109 103
f  138 95 110
f  133 104 105
f  132 115 104
f  123 95 138
f  122 123 138
f  122 138 131
f  132 104 133
f  132 143 115
f  133 105 734
f  134 106 144
f  132 133 143
f  133 134 143
f  135 108 107
f  137 107 109
f  136 113 108
f  139 110 111
f  141 111 113
f  140 114 112
f  143 112 115
f  142 118 114
f  144 106 116
f  145 116 117
f  146 117 118
f  131 137 109
f  135 136 108
f  135 107 137
f  136 141 113
f  138 110 139
f  139 111 141
f  140 142 114
f  140 112 143
f  131 138 137
f  135 137 136
f  136 137 138
f  136 138 141
f  138 139 141
f  140 143 142
f  144 116 145
f  142 146 118
f  145 117 146
f  134 144 143
f  142 143 144
f  142 144 146
f  144 145 146
f  181 163 147
f  193 181 147
f  181 197 163
f  183 148 149
f  194 150 160
f  185 149 151
f  184 152 150
f  186 153 152
f  188 151 154
f  187 155 153
f  189 156 155
f  190 157 156
f  192 154 158
f  183 182 148
f  183 149 185
f  194 184 150
f  186 152 184
f  183 194 182
f  183 184 194
f  183 185 184
f  185 186 184
f  185 151 188
f  186 187 153
f  187 189 155
f  189 190 156
f  188 154 192
f  190 191 157
f  192 158 204
f  185 188 187
f  185 187 186
f  187 188 189
f  188 190 189
f  188 192 190
f  190 192 191
f  182 159 148
f  193 147 159
f  195 160 161
f  196 161 162
f  197 166 163
f  198 162 164
f  199 164 165
f  200 167 166
f  202 165 168
f  201 173 167
f  205 168 171
f  191 169 157
f  203 170 169
f  204 158 170
f  206 171 172
f  207 176 173
f  208 172 174
f  209 174 175
f  210 180 176
f  211 179 177
f  212 177 178
f  213 175 179
f  214 178 180
f  182 193 159
f  194 160 195
f  195 161 196
f  196 162 198
f  182 195 193
f  193 195 196
f  182 194 195
f  193 196 181
f  181 196 197
f  197 200 166
f  198 164 199
f  200 201 167
f  199 165 202
f  202 168 205
f  201 207 173
f  197 196 198
f  197 198 200
f  200 198 199
f  200 199 201
f  199 202 201
f  201 202 207
f  202 205 207
f  191 203 169
f  203 204 170
f  191 192 204
f  191 204 203
f  205 171 206
f  206 172 208
f  208 174 209
f  207 210 176
f  211 213 179
f  211 177 212
f  212 178 214
f  209 175 213
f  210 214 180
f  205 206 207
f  206 210 207
f  206 208 210
f  208 209 210
f  211 212 213
f  210 209 214
f  209 213 214
f  213 212 214
f  252 216 215
f  253 217 216
f  256 215 219
f  255 220 218
f  258 218 221
f  254 227 217
f  257 219 220
f  259 223 222
f  260 230 223
f  267 224 230
f  261 221 224
f  252 253 216
f  252 215 256
f  253 254 217
f  255 218 258
f  252 254 253
f  252 256 254
f  256 255 254
f  254 255 258
f  254 258 262
f  255 257 220
f  256 219 257
f  258 221 261
f  259 260 223
f  260 267 230
f  261 224 267
f  256 257 255
f  258 261 262
f  259 267 260
f  262 261 263
f  262 226 225
f  265 225 228
f  263 228 226
f  266 231 229
f  264 229 227
f  262 225 265
f  254 264 227
f  262 263 226
f  263 265 228
f  254 262 264
f  262 265 264
f  263 268 266
f  263 266 265
f  264 266 229
f  265 266 264
f  269 222 232
f  268 233 231
f  270 232 233
f  271 235 234
f  272 236 235
f  275 234 238
f  274 239 237
f  273 247 236
f  279 237 242
f  276 238 239
f  259 222 269
f  268 231 266
f  268 270 233
f  269 232 270
f  271 272 235
f  272 273 236
f  259 269 267
f  261 267 268
f  267 269 268
f  261 268 263
f  268 269 270
f  271 273 272
f  271 234 275
f  274 237 279
f  274 276 239
f  275 238 276
f  282 245 874
f  271 274 273
f  271 275 274
f  273 274 279
f  273 279 280
f  275 276 274
f  282 874 884
f  277 241 240
f  284 240 247
f  280 244 243
f  285 243 248
f  282 242 245
f  281 246 244
f  283 844 246
f  278 250 241
f  286 248 249
f  288 249 251
f  287 853 250
f  892 251 850
f  277 278 241
f  277 240 284
f  277 284 278
f  273 284 247
f  279 242 282
f  280 243 285
f  280 281 244
f  281 283 246
f  283 886 844
f  273 280 284
f  279 281 280
f  280 285 284
f  279 282 281
f  282 283 281
f  282 884 283
f  283 884 886
f  278 287 250
f  285 248 286
f  286 249 288
f  288 251 892
f  287 895 853
f  278 284 287
f  284 285 287
f  285 286 287
f  286 288 287
f  287 288 895
f  288 892 895
f  337 290 289
f  338 291 290
f  341 289 293
f  340 294 292
f  342 293 294
f  343 296 295
f  344 321 296
f  337 338 290
f  338 339 291
f  337 289 341
f  341 293 342
f  340 342 294
f  337 339 338
f  337 340 339
f  337 341 340
f  340 341 342
f  343 344 296
f  344 369 321
f  343 369 344
f  339 304 291
f  345 292 297
f  346 300 298
f  347 297 299
f  348 301 300
f  350 303 302
f  352 302 304
f  351 308 303
f  353 298 305
f  354 305 306
f  355 306 307
f  357 299 309
f  349 310 301
f  358 311 310
f  360 309 312
f  361 312 313
f  362 316 314
f  359 315 311
f  363 314 315
f  365 318 317
f  364 307 316
f  356 317 308
f  366 313 318
f  367 320 319
f  375 319 327
f  340 292 345
f  345 297 347
f  346 348 300
f  346 298 353
f  347 299 357
f  348 349 301
f  339 340 345
f  339 345 346
f  339 346 352
f  345 348 346
f  345 347 348
f  347 349 348
f  347 357 349
f  339 352 304
f  350 302 352
f  350 351 303
f  353 305 354
f  351 356 308
f  354 306 355
f  346 353 352
f  350 352 351
f  351 352 356
f  352 353 356
f  353 354 356
f  354 355 356
f  357 309 360
f  349 358 310
f  358 359 311
f  360 312 361
f  361 313 366
f  357 358 349
f  357 360 358
f  358 360 359
f  359 360 361
f  364 316 362
f  359 363 315
f  363 362 314
f  364 355 307
f  356 365 317
f  366 318 365
f  367 319 375
f  367 368 320
f  359 361 363
f  361 366 363
f  363 366 362
f  362 366 365
f  356 355 365
f  364 365 355
f  364 362 365
f  367 375 368
f  371 295 323
f  370 324 322
f  372 323 324
f  374 325 326
f  343 295 371
f  370 372 324
f  371 323 372
f  343 371 369
f  369 371 370
f  370 371 372
f  373 325 374
f  375 327 321
f  376 322 328
f  368 329 320
f  377 330 329
f  373 328 325
f  378 333 330
f  379 332 331
f  381 331 333
f  380 336 332
f  382 326 334
f  383 334 335
f  384 335 336
f  369 375 321
f  370 322 376
f  376 328 373
f  369 370 376
f  368 377 329
f  369 376 375
f  375 376 377
f  368 375 377
f  376 378 377
f  377 378 330
f  374 326 382
f  376 373 374
f  376 374 378
f  374 382 378
f  378 381 333
f  379 380 332
f  379 331 381
f  382 334 383
f  380 384 336
f  383 335 384
f  379 381 380
f  380 381 382
f  378 382 381
f  380 382 384
f  382 383 384
f  395 387 386
f  396 389 387
f  395 396 387
f  395 398 396
f  396 398 389
f  397 386 388
f  400 388 391
f  399 391 390
f  402 392 393
f  401 426 392
f  395 386 397
f  397 388 400
f  395 397 398
f  399 397 400
f  399 400 391
f  398 397 399
f  401 392 402
f  401 402 435
f  407 405 404
f  409 404 406
f  428 406 419
f  407 404 409
f  407 408 405
f  409 406 428
f  407 445 408
f  408 411 405
f  415 412 411
f  416 413 412
f  417 414 413
f  418 437 414
f  408 415 411
f  415 416 412
f  416 417 413
f  415 417 416
f  415 418 417
f  408 445 415
f  417 418 414
f  418 442 437
f  415 442 418
f  415 443 442
f  429 419 420
f  430 420 421
f  431 423 422
f  434 422 425
f  432 427 423
f  433 421 424
f  428 419 429
f  429 420 430
f  407 409 445
f  409 428 445
f  428 429 430
f  428 430 433
f  428 433 445
f  431 422 434
f  431 432 423
f  431 434 432
f  430 421 433
f  434 425 389
f  435 390 426
f  436 394 427
f  398 434 389
f  399 390 435
f  398 399 435
f  401 435 426
f  398 435 434
f  403 394 436
f  402 403 435
f  435 403 436
f  432 436 427
f  435 436 434
f  432 434 436
f  442 438 437
f  443 439 438
f  445 424 440
f  446 440 441
f  444 441 439
f  415 445 446
f  415 444 443
f  415 446 444
f  442 443 438
f  443 444 439
f  433 424 445
f  446 445 440
f  446 441 444
f  469 455 447
f  471 469 447
f  469 477 455
f  474 448 452
f  470 449 448
f  473 450 451
f  479 452 457
f  475 458 453
f  472 453 450
f  471 447 449
f  476 451 454
f  477 495 455
f  478 454 456
f  514 456 496
f  480 459 458
f  483 457 461
f  481 460 459
f  482 462 460
f  484 464 462
f  485 461 463
f  486 465 464
f  487 466 465
f  488 463 466
f  489 505 467
f  490 467 468
f  470 448 474
f  471 449 470
f  473 472 450
f  474 452 479
f  475 453 472
f  475 480 458
f  470 474 472
f  471 470 473
f  470 472 473
f  474 475 472
f  474 479 475
f  475 479 480
f  473 451 476
f  476 454 478
f  477 513 495
f  478 456 514
f  471 476 469
f  471 473 476
f  469 476 477
f  477 476 478
f  477 478 513
f  478 514 513
f  479 457 483
f  480 481 459
f  481 482 460
f  482 484 462
f  483 461 485
f  484 486 464
f  486 487 465
f  487 488 466
f  485 463 488
f  479 481 480
f  479 483 481
f  481 483 482
f  483 484 482
f  483 485 484
f  484 485 486
f  486 485 488
f  486 488 487
f  489 467 490
f  489 490 523
f  509 492 491
f  525 491 507
f  510 493 492
f  509 510 492
f  402 393 646
f  509 491 525
f  509 511 510
f  509 525 511
f  510 511 493
f  511 525 512
f  513 498 495
f  515 496 497
f  516 500 498
f  517 497 499
f  519 499 501
f  518 504 500
f  520 501 502
f  521 502 503
f  522 506 504
f  523 503 505
f  524 468 506
f  513 516 498
f  514 496 515
f  515 497 517
f  516 518 500
f  514 516 513
f  514 515 516
f  516 515 518
f  515 517 518
f  519 501 520
f  517 499 519
f  520 502 521
f  518 522 504
f  489 523 505
f  521 503 523
f  490 468 524
f  522 524 506
f  517 519 518
f  518 519 522
f  519 520 522
f  520 521 522
f  521 523 524
f  523 490 524
f  521 524 522
f  526 507 508
f  512 508 494
f  525 507 526
f  512 525 526
f  512 526 508
f  555 528 527
f  556 529 528
f  559 527 531
f  558 532 530
f  560 531 532
f  561 530 533
f  614 585 529
f  562 536 534
f  563 533 535
f  564 537 536
f  615 534 586
f  566 539 538
f  567 548 539
f  568 535 540
f  565 541 537
f  569 543 541
f  570 540 542
f  574 542 546
f  571 545 543
f  573 544 545
f  575 546 547
f  555 556 528
f  556 557 529
f  555 527 559
f  558 560 532
f  559 531 560
f  558 530 561
f  555 557 556
f  555 558 557
f  557 558 561
f  557 561 562
f  555 559 558
f  558 559 560
f  557 614 529
f  561 533 563
f  562 564 536
f  563 535 568
f  564 565 537
f  562 534 615
f  557 562 614
f  562 615 614
f  561 564 562
f  561 563 564
f  564 563 565
f  563 568 565
f  566 567 539
f  567 576 548
f  566 576 567
f  568 540 570
f  565 569 541
f  569 571 543
f  570 542 574
f  571 573 545
f  573 572 544
f  574 546 575
f  575 547 620
f  565 568 569
f  568 570 569
f  569 570 571
f  570 574 571
f  571 574 573
f  574 575 573
f  573 575 572
f  572 575 620
f  578 538 550
f  577 551 549
f  579 550 551
f  629 600 548
f  630 549 601
f  631 552 602
f  581 601 553
f  582 553 554
f  580 605 552
f  635 554 606
f  566 538 578
f  577 579 551
f  577 549 630
f  578 550 579
f  566 578 576
f  576 578 577
f  577 578 579
f  576 577 630
f  576 629 548
f  630 601 581
f  576 630 629
f  630 580 631
f  581 553 582
f  582 554 635
f  630 581 582
f  631 580 552
f  580 634 605
f  630 582 580
f  582 635 580
f  580 635 634
f  612 584 583
f  614 583 585
f  613 589 584
f  616 586 587
f  617 587 588
f  619 588 590
f  572 590 544
f  618 591 589
f  620 547 591
f  621 593 592
f  629 592 600
f  612 613 584
f  612 583 614
f  615 586 616
f  613 618 589
f  616 587 617
f  612 614 613
f  613 614 618
f  614 615 618
f  615 616 618
f  616 617 618
f  617 588 619
f  572 619 590
f  618 620 591
f  621 622 593
f  621 592 629
f  617 619 620
f  618 617 620
f  572 620 619
f  621 629 622
f  623 595 594
f  624 596 595
f  626 594 597
f  628 597 599
f  627 599 598
f  676 598 651
f  623 624 595
f  623 594 626
f  623 625 624
f  624 625 596
f  623 627 625
f  625 627 676
f  625 676 677
f  626 597 628
f  623 626 627
f  627 626 628
f  627 598 676
f  627 628 599
f  622 602 593
f  632 604 603
f  634 603 605
f  633 608 604
f  636 606 607
f  637 607 608
f  622 631 602
f  622 629 631
f  629 630 631
f  632 633 604
f  632 603 634
f  635 606 636
f  633 637 608
f  636 607 637
f  632 634 633
f  633 634 635
f  633 635 637
f  635 636 637
f  638 610 609
f  639 611 610
f  638 639 610
f  638 609 1231
f  638 640 639
f  639 640 611
f  638 1232 640
f  403 642 394
f  646 393 641
f  511 641 493
f  648 494 643
f  402 646 403
f  403 647 642
f  403 646 647
f  512 494 648
f  511 512 646
f  511 646 641
f  512 647 646
f  512 648 647
f  647 645 642
f  647 650 645
f  647 648 650
f  649 643 644
f  650 644 645
f  648 643 649
f  649 644 650
f  648 649 650
f  625 658 596
f  679 651 654
f  677 653 652
f  688 654 663
f  678 655 653
f  680 664 655
f  684 652 659
f  625 677 683
f  625 683 658
f  677 684 683
f  676 651 679
f  677 678 653
f  679 654 688
f  678 680 655
f  676 678 677
f  676 679 678
f  679 688 680
f  678 679 680
f  677 652 684
f  681 657 656
f  683 656 658
f  682 662 657
f  685 659 660
f  686 660 661
f  681 656 683
f  681 682 657
f  681 683 682
f  682 683 687
f  684 659 685
f  682 687 662
f  686 685 660
f  686 661 696
f  687 697 662
f  683 684 687
f  684 685 687
f  686 687 685
f  686 697 687
f  689 667 664
f  690 663 665
f  691 665 666
f  692 668 667
f  694 671 669
f  693 669 668
f  695 666 670
f  640 675 611
f  688 663 690
f  680 689 664
f  689 692 667
f  690 665 691
f  680 688 689
f  688 690 689
f  690 692 689
f  690 691 692
f  692 693 668
f  693 694 669
f  691 666 695
f  697 695 670
f  692 691 693
f  693 691 695
f  693 695 694
f  694 695 697
f  640 1232 700
f  640 700 675
f  696 661 671
f  697 672 662
f  697 670 672
f  698 674 673
f  700 673 675
f  699 1344 674
f  696 671 694
f  686 696 697
f  696 694 697
f  698 673 700
f  698 699 674
f  698 700 699
f  699 700 1359
f  733 702 703
f  734 105 704
f  134 708 106
f  732 704 702
f  735 706 705
f  737 712 707
f  743 703 713
f  732 702 733
f  734 704 732
f  737 707 739
f  133 734 134
f  134 734 738
f  734 732 737
f  734 737 738
f  735 736 706
f  733 703 743
f  732 733 743
f  732 743 737
f  738 709 708
f  739 707 709
f  740 711 710
f  742 710 712
f  741 715 711
f  744 713 714
f  745 714 715
f  746 717 716
f  134 738 708
f  738 739 709
f  737 739 738
f  737 742 712
f  740 741 711
f  740 710 742
f  741 745 715
f  743 713 744
f  744 714 745
f  746 747 717
f  737 743 742
f  740 742 741
f  741 742 743
f  741 743 745
f  743 744 745
f  736 718 706
f  750 705 720
f  749 721 719
f  751 720 721
f  748 726 718
f  755 719 725
f  753 722 723
f  752 725 722
f  754 730 724
f  761 723 731
f  736 748 718
f  735 705 750
f  749 751 721
f  750 720 751
f  735 748 736
f  735 750 748
f  748 750 749
f  749 750 751
f  749 719 755
f  748 756 726
f  755 725 752
f  748 749 755
f  748 755 756
f  752 722 753
f  757 754 724
f  753 723 761
f  755 752 753
f  755 753 754
f  754 753 761
f  756 716 726
f  747 727 717
f  757 724 727
f  758 729 728
f  760 728 730
f  759 771 729
f  805 731 770
f  746 716 756
f  747 757 727
f  746 756 747
f  747 756 757
f  756 755 757
f  755 754 757
f  758 759 729
f  758 728 760
f  754 760 730
f  759 806 771
f  761 731 805
f  758 760 759
f  754 761 760
f  759 760 761
f  759 761 806
f  761 805 806
f  797 763 762
f  798 764 763
f  801 762 766
f  800 767 765
f  802 766 767
f  799 775 764
f  809 765 774
f  803 774 768
f  804 779 769
f  797 798 763
f  797 762 801
f  798 799 764
f  800 802 767
f  801 766 802
f  797 799 798
f  797 801 799
f  799 801 800
f  800 801 802
f  800 765 809
f  799 810 775
f  799 800 809
f  799 809 810
f  803 768 815
f  809 774 803
f  811 804 769
f  809 803 815
f  809 815 804
f  806 770 771
f  807 773 772
f  810 772 775
f  808 776 773
f  811 769 776
f  812 778 777
f  814 777 779
f  813 789 778
f  805 770 806
f  807 808 773
f  807 772 810
f  808 811 776
f  807 810 808
f  808 810 811
f  809 811 810
f  804 814 779
f  812 813 778
f  812 777 814
f  809 804 811
f  804 822 814
f  812 814 813
f  813 814 822
f  815 768 780
f  816 782 781
f  817 783 782
f  820 781 785
f  822 780 787
f  818 793 783
f  825 784 790
f  819 786 784
f  821 785 786
f  1087 790 1080
f  816 817 782
f  817 818 783
f  816 781 820
f  816 818 817
f  816 820 818
f  818 820 819
f  815 780 822
f  819 784 825
f  818 828 793
f  815 822 804
f  818 819 825
f  818 825 828
f  820 785 821
f  819 821 786
f  819 820 821
f  825 790 1087
f  829 1089 1082
f  825 1087 1088
f  825 1088 1089
f  823 787 788
f  824 788 789
f  826 792 791
f  828 791 793
f  827 794 792
f  829 1082 794
f  830 796 795
f  822 787 823
f  813 824 789
f  823 788 824
f  826 827 792
f  826 791 828
f  827 829 794
f  813 822 824
f  822 823 824
f  826 828 827
f  827 828 829
f  825 829 828
f  830 831 796
f  825 1089 829
f  874 245 832
f  884 833 842
f  876 832 834
f  875 835 833
f  877 834 835
f  878 837 836
f  879 838 837
f  882 836 840
f  881 841 839
f  880 858 838
f  883 840 841
f  902 857 860
f  874 832 876
f  884 875 833
f  875 877 835
f  876 834 877
f  878 879 837
f  884 874 875
f  874 876 875
f  876 877 875
f  878 880 879
f  878 836 882
f  879 880 838
f  881 839 899
f  881 883 841
f  882 840 883
f  878 882 880
f  880 882 881
f  880 881 899
f  881 882 883
f  902 903 899
f  903 904 899
f  885 842 843
f  886 845 844
f  888 843 846
f  889 846 847
f  887 848 845
f  890 849 848
f  891 850 849
f  893 847 851
f  894 851 852
f  895 854 853
f  896 852 854
f  897 856 855
f  899 839 857
f  901 862 859
f  900 855 858
f  898 859 856
f  884 842 885
f  885 843 888
f  886 887 845
f  888 846 889
f  887 890 848
f  890 891 849
f  892 850 891
f  889 847 893
f  896 894 852
f  893 851 894
f  884 885 886
f  886 885 887
f  885 888 887
f  888 889 887
f  887 889 890
f  890 893 891
f  892 891 896
f  891 894 896
f  890 889 893
f  893 894 891
f  895 896 854
f  897 898 856
f  900 897 855
f  892 896 895
f  900 898 897
f  880 900 858
f  902 899 857
f  904 862 901
f  880 899 900
f  904 901 899
f  898 901 859
f  900 901 898
f  900 899 901
f  903 860 861
f  905 864 863
f  906 865 864
f  907 869 865
f  909 863 867
f  908 868 866
f  908 866 871
f  910 867 868
f  902 860 903
f  903 861 911
f  905 906 864
f  905 863 909
f  906 907 865
f  903 911 904
f  905 907 906
f  908 910 868
f  909 867 910
f  905 909 907
f  907 909 908
f  909 910 908
f  907 908 911
f  904 870 862
f  911 861 869
f  912 873 870
f  914 871 872
f  915 872 873
f  907 911 869
f  904 912 870
f  904 911 912
f  908 871 913
f  908 912 911
f  908 913 912
f  913 871 914
f  912 915 873
f  914 872 915
f  912 913 915
f  913 914 915
f  983 916 917
f  996 918 930
f  984 920 918
f  985 917 919
f  988 919 922
f  986 921 920
f  987 923 921
f  989 924 923
f  990 925 924
f  992 922 926
f  983 982 916
f  983 917 985
f  996 984 918
f  983 996 982
f  983 984 996
f  983 985 984
f  986 920 984
f  985 919 988
f  986 987 921
f  987 989 923
f  988 922 992
f  989 990 924
f  990 991 925
f  992 926 1005
f  985 986 984
f  985 988 987
f  985 987 986
f  987 988 989
f  988 990 989
f  988 992 990
f  992 991 990
f  993 928 927
f  982 927 916
f  994 932 928
f  995 931 929
f  997 930 931
f  999 929 933
f  998 934 932
f  1001 933 935
f  1000 936 934
f  1003 935 937
f  1002 941 936
f  991 938 925
f  1005 926 939
f  1004 939 938
f  1006 937 940
f  1008 940 942
f  1011 942 945
f  1007 947 941
f  1009 948 943
f  1010 943 944
f  1012 945 946
f  1014 946 948
f  1013 949 947
f  1015 944 949
f  982 993 927
f  997 931 995
f  993 994 928
f  995 929 999
f  996 930 997
f  982 997 993
f  993 997 995
f  993 995 994
f  994 995 998
f  982 996 997
f  994 998 932
f  998 1000 934
f  999 933 1001
f  1001 935 1003
f  1000 1002 936
f  1003 937 1006
f  998 995 999
f  998 999 1000
f  999 1001 1000
f  1000 1001 1002
f  1001 1003 1002
f  1002 1003 1007
f  991 1004 938
f  1004 1005 939
f  991 1005 1004
f  992 1005 991
f  1002 1007 941
f  1006 940 1008
f  1008 942 1011
f  1007 1013 947
f  1009 943 1010
f  1009 1014 948
f  1010 944 1015
f  1011 945 1012
f  1012 946 1014
f  1013 1015 949
f  1003 1006 1007
f  1006 1008 1007
f  1008 1011 1013
f  1008 1013 1007
f  1009 1010 1014
f  1011 1012 1013
f  1013 1012 1015
f  1010 1015 1014
f  1012 1014 1015
f  1016 951 950
f  1017 952 951
f  1020 950 954
f  1019 955 953
f  1021 954 955
f  1022 957 956
f  1016 1017 951
f  1017 1018 952
f  1016 950 1020
f  1019 1021 955
f  1016 1018 1017
f  1016 1019 1018
f  1016 1020 1019
f  1019 1020 1021
f  1020 954 1021
f  1022 1023 957
f  1018 963 952
f  1024 953 958
f  1025 960 959
f  1033 958 967
f  1027 962 961
f  1029 961 963
f  1028 966 962
f  1030 959 964
f  1031 964 965
f  1026 968 960
f  1035 967 969
f  1034 970 968
f  1038 969 972
f  1036 971 970
f  1039 972 973
f  1037 974 971
f  1040 975 974
f  1041 977 975
f  1042 965 976
f  1032 979 966
f  1043 976 977
f  1044 973 978
f  1045 978 979
f  1046 981 980
f  1019 953 1024
f  1024 958 1033
f  1025 1026 960
f  1025 959 1030
f  1018 1019 1024
f  1018 1024 1025
f  1018 1025 1029
f  1024 1026 1025
f  1024 1033 1026
f  1018 1029 963
f  1027 1028 962
f  1027 961 1029
f  1028 1032 966
f  1030 964 1031
f  1027 1029 1028
f  1025 1030 1029
f  1029 1030 1032
f  1028 1029 1032
f  1030 1031 1032
f  1033 967 1035
f  1026 1034 968
f  1035 969 1038
f  1034 1036 970
f  1036 1037 971
f  1038 972 1039
f  1039 973 1044
f  1026 1033 1034
f  1033 1035 1034
f  1035 1036 1034
f  1035 1038 1036
f  1036 1038 1037
f  1037 1038 1039
f  1037 1040 974
f  1041 1043 977
f  1040 1041 975
f  1031 965 1042
f  1043 1042 976
f  1032 1045 979
f  1044 978 1045
f  1046 1047 981
f  1031 1042 1032
f  1032 1042 1045
f  1043 1045 1042
f  1041 1045 1043
f  1037 1039 1040
f  1040 1039 1044
f  1040 1044 1041
f  1041 1044 1045
f  1023 1048 957
f  1066 956 1050
f  1065 1051 1049
f  1067 1050 1051
f  1069 1052 1053
f  1022 956 1066
f  1023 1064 1048
f  1066 1050 1067
f  1065 1067 1051
f  1022 1064 1023
f  1022 1066 1064
f  1064 1066 1065
f  1065 1066 1067
f  1068 1052 1069
f  1070 1054 1048
f  1071 1049 1055
f  1070 980 1054
f  1047 1056 981
f  1072 1057 1056
f  1068 1055 1052
f  1073 1060 1057
f  1074 1059 1058
f  1077 1053 1061
f  1076 1058 1060
f  1075 1063 1059
f  1064 1070 1048
f  1065 1049 1071
f  1071 1055 1068
f  1064 1065 1071
f  1046 980 1070
f  1047 1072 1056
f  1064 1071 1070
f  1046 1070 1047
f  1070 1071 1072
f  1047 1070 1072
f  1071 1073 1072
f  1073 1057 1072
f  1069 1053 1077
f  1071 1068 1069
f  1071 1069 1073
f  1069 1077 1073
f  1074 1058 1076
f  1074 1075 1059
f  1073 1076 1060
f  1077 1061 1078
f  1075 1079 1063
f  1074 1076 1075
f  1073 1077 1076
f  1075 1076 1077
f  1075 1077 1079
f  1078 1061 1062
f  1079 1062 1063
f  1078 1062 1079
f  1077 1078 1079
f  1088 1080 1081
f  1089 1083 1082
f  1091 1081 1084
f  1087 1080 1088
f  1088 1081 1091
f  1088 1091 1089
f  1090 795 1083
f  831 1086 796
f  1092 1084 1085
f  1093 1085 1086
f  1089 1090 1083
f  830 795 1090
f  1091 1084 1092
f  831 1093 1086
f  1092 1085 1093
f  1089 1091 1090
f  830 1090 831
f  831 1090 1091
f  831 1091 1093
f  1091 1092 1093
f  1140 1096 1097
f  1141 1097 1098
f  1142 1107 1099
f  1143 1099 1100
f  1144 1100 1101
f  1139 1102 1096
f  1145 1104 1102
f  1146 1101 1103
f  1148 1103 1105
f  1147 1182 1104
f  1220 1105 1183
f  1149 1098 1106
f  1150 1108 1107
f  1152 1106 1109
f  1151 1110 1108
f  1153 1111 1110
f  1154 1113 1111
f  1155 1109 1112
f  1156 1114 1113
f  1158 1112 1115
f  1157 1115 1114
f  1159 1192 1116
f  1160 1116 1117
f  1139 1096 1140
f  1141 1140 1097
f  1142 1099 1143
f  1141 1098 1149
f  1144 1143 1100
f  1139 1140 1144
f  1141 1143 1140
f  1141 1142 1143
f  1141 1149 1142
f  1140 1143 1144
f  1139 1145 1102
f  1144 1101 1146
f  1146 1103 1148
f  1145 1147 1104
f  1147 1219 1182
f  1148 1105 1220
f  1139 1146 1145
f  1139 1144 1146
f  1145 1146 1147
f  1147 1146 1148
f  1147 1148 1219
f  1148 1220 1219
f  1142 1150 1107
f  1149 1106 1152
f  1150 1151 1108
f  1151 1153 1110
f  1152 1109 1155
f  1153 1154 1111
f  1154 1156 1113
f  1156 1157 1114
f  1155 1112 1158
f  1157 1158 1115
f  1142 1149 1150
f  1149 1151 1150
f  1149 1152 1151
f  1151 1152 1153
f  1152 1154 1153
f  1152 1155 1154
f  1154 1155 1156
f  1156 1158 1157
f  1155 1158 1156
f  1159 1116 1160
f  1159 1160 1229
f  1161 1119 1118
f  1162 1120 1119
f  1168 1118 1125
f  1164 1126 1121
f  1165 1121 1122
f  1163 1202 1120
f  1166 1124 1123
f  1172 1122 1129
f  1240 1123 1203
f  1169 1125 1126
f  1170 1128 1127
f  1174 1129 1131
f  1167 1130 1124
f  1173 1132 1130
f  1179 1131 1136
f  1175 1133 1132
f  1176 1134 1133
f  1177 1135 1134
f  1180 1136 1137
f  1181 1137 1138
f  1161 1162 1119
f  1162 1163 1120
f  1161 1118 1168
f  1164 1169 1126
f  1164 1121 1165
f  1161 1163 1162
f  1161 1164 1163
f  1161 1168 1164
f  1164 1168 1169
f  1163 1164 1165
f  1163 1165 1166
f  1163 1239 1202
f  1165 1122 1172
f  1166 1167 1124
f  1166 1123 1240
f  1163 1166 1239
f  1165 1167 1166
f  1165 1172 1167
f  1166 1240 1239
f  1168 1125 1169
f  1170 1171 1128
f  1172 1129 1174
f  1167 1173 1130
f  1174 1131 1179
f  1173 1175 1132
f  1175 1176 1133
f  1176 1177 1134
f  1177 1178 1135
f  1179 1136 1180
f  1180 1137 1181
f  1181 1138 1245
f  1167 1172 1173
f  1172 1174 1173
f  1173 1174 1175
f  1174 1179 1175
f  1179 1176 1175
f  1179 1180 1176
f  1176 1180 1177
f  1177 1180 1181
f  1177 1181 1178
f  1178 1181 1245
f  1219 1184 1182
f  1222 1183 1185
f  1221 1187 1184
f  1223 1185 1186
f  1226 1188 1189
f  1225 1186 1188
f  1224 1191 1187
f  1227 1189 1190
f  1229 1190 1192
f  1228 1193 1191
f  1230 1117 1193
f  1220 1183 1222
f  1219 1221 1184
f  1222 1185 1223
f  1220 1221 1219
f  1220 1222 1221
f  1221 1222 1224
f  1221 1224 1187
f  1225 1188 1226
f  1223 1186 1225
f  1224 1228 1191
f  1226 1189 1227
f  1227 1190 1229
f  1159 1229 1192
f  1160 1117 1230
f  1228 1230 1193
f  1222 1223 1224
f  1223 1225 1224
f  1224 1225 1228
f  1225 1226 1228
f  1226 1227 1228
f  1227 1230 1228
f  1160 1230 1229
f  1227 1229 1230
f  1231 609 1194
f  1233 1194 1196
f  1232 1196 1195
f  1235 1197 1198
f  1231 1194 1233
f  638 1231 1232
f  1232 1231 1233
f  1232 1233 1196
f  1248 1235 1198
f  1234 1197 1235
f  1234 1235 1236
f  1235 1249 1236
f  1237 1201 1200
f  1239 1200 1202
f  1238 1205 1201
f  1241 1203 1204
f  1243 1204 1206
f  1242 1208 1205
f  1244 1206 1207
f  1178 1207 1135
f  1245 1138 1208
f  1246 1210 1209
f  1237 1238 1201
f  1237 1200 1239
f  1238 1242 1205
f  1240 1203 1241
f  1237 1239 1238
f  1238 1239 1242
f  1239 1240 1242
f  1240 1241 1242
f  1241 1204 1243
f  1243 1206 1244
f  1178 1244 1207
f  1242 1245 1208
f  1246 1247 1210
f  1241 1243 1242
f  1242 1243 1245
f  1243 1244 1245
f  1178 1245 1244
f  1251 1211 1214
f  1248 1198 1211
f  1249 1213 1212
f  1236 1212 1199
f  1250 1216 1213
f  1252 1214 1215
f  1253 1217 1216
f  1254 1218 1217
f  1255 1278 1218
f  1248 1211 1251
f  1248 1251 1250
f  1250 1213 1249
f  1249 1212 1236
f  1248 1249 1235
f  1248 1250 1249
f  1251 1214 1252
f  1250 1251 1253
f  1251 1254 1253
f  1251 1252 1254
f  1254 1252 1255
f  1250 1253 1216
f  1253 1254 1217
f  1254 1255 1218
f  1255 1312 1278
f  1252 1312 1255
f  1171 1256 1128
f  1265 1127 1258
f  1264 1259 1257
f  1266 1258 1259
f  1304 1270 1256
f  1305 1257 1271
f  1306 1262 1272
f  1267 1271 1260
f  1268 1260 1261
f  1269 1275 1262
f  1310 1261 1276
f  1170 1127 1265
f  1171 1263 1256
f  1264 1257 1305
f  1264 1266 1259
f  1265 1258 1266
f  1170 1263 1171
f  1170 1265 1263
f  1263 1265 1264
f  1263 1264 1305
f  1264 1265 1266
f  1263 1304 1256
f  1305 1271 1267
f  1263 1305 1304
f  1305 1269 1306
f  1267 1260 1268
f  1268 1261 1310
f  1305 1267 1268
f  1269 1262 1306
f  1269 1309 1275
f  1305 1268 1269
f  1268 1310 1269
f  1269 1310 1309
f  1304 1209 1270
f  1247 1272 1210
f  1307 1274 1273
f  1309 1273 1275
f  1308 1291 1274
f  1246 1209 1304
f  1247 1306 1272
f  1246 1304 1247
f  1247 1304 1306
f  1304 1305 1306
f  1307 1308 1274
f  1307 1273 1309
f  1308 1325 1291
f  1310 1276 1324
f  1307 1309 1308
f  1308 1309 1310
f  1308 1310 1325
f  1311 1215 1277
f  1312 1279 1278
f  1313 1280 1279
f  1314 1281 1280
f  1315 1277 1281
f  1317 1282 1283
f  1326 1283 1292
f  1319 1285 1282
f  1318 1287 1284
f  1319 1286 1285
f  1320 1284 1286
f  1321 1288 1287
f  1322 1289 1288
f  1323 1294 1289
f  1252 1215 1311
f  1312 1313 1279
f  1313 1314 1280
f  1314 1315 1281
f  1311 1277 1315
f  1252 1311 1312
f  1312 1311 1313
f  1313 1311 1315
f  1313 1315 1314
f  1316 1282 1317
f  1317 1283 1326
f  1316 1317 1321
f  1317 1323 1322
f  1317 1326 1323
f  1316 1319 1282
f  1318 1284 1320
f  1319 1320 1286
f  1318 1321 1287
f  1321 1322 1288
f  1322 1323 1289
f  1316 1318 1319
f  1316 1321 1318
f  1318 1320 1319
f  1317 1322 1321
f  1324 1276 1290
f  1325 1290 1291
f  1324 1290 1325
f  1310 1324 1325
f  1327 1292 1293
f  1328 1295 1294
f  1329 1296 1295
f  1334 1293 1300
f  1330 1297 1296
f  1331 1298 1297
f  1333 1303 1299
f  1335 1300 1301
f  1336 1301 1302
f  1326 1292 1327
f  1327 1293 1334
f  1323 1326 1328
f  1326 1329 1328
f  1326 1327 1329
f  1323 1328 1294
f  1328 1329 1295
f  1329 1330 1296
f  1330 1331 1297
f  1331 1332 1298
f  1329 1327 1330
f  1327 1334 1330
f  1334 1331 1330
f  1334 1300 1335
f  1335 1301 1336
f  1336 1302 1439
f  1333 1337 1303
f  1334 1335 1331
f  1331 1335 1332
f  1332 1335 1336
f  1359 1195 1342
f  1234 1338 1197
f  1355 1340 1338
f  1356 1199 1339
f  1358 1339 1341
f  1357 1345 1340
f  1232 1195 1359
f  1232 1359 700
f  1234 1355 1338
f  1356 1236 1199
f  1356 1339 1358
f  1234 1236 1356
f  1234 1356 1355
f  1355 1356 1357
f  1355 1357 1340
f  1357 1362 1345
f  1357 1356 1358
f  1357 1358 1362
f  1358 1363 1362
f  1360 1342 1343
f  1361 1343 1344
f  1362 1347 1345
f  699 1361 1344
f  1359 1342 1360
f  1360 1343 1361
f  699 1359 1361
f  1359 1360 1361
f  1363 1341 1346
f  1358 1341 1363
f  1365 1346 1348
f  1364 1351 1347
f  1366 1348 1349
f  1367 1349 1350
f  1368 1354 1351
f  1369 1350 1352
f  1370 1352 1353
f  1362 1364 1347
f  1363 1346 1365
f  1365 1348 1366
f  1364 1368 1351
f  1362 1363 1364
f  1363 1365 1364
f  1364 1365 1368
f  1366 1349 1367
f  1367 1350 1369
f  1370 1369 1352
f  1368 1371 1354
f  1365 1366 1368
f  1366 1367 1368
f  1367 1369 1371
f  1370 1371 1369
f  1368 1367 1371
f  1412 1372 1373
f  1411 1378 1372
f  1413 1375 1374
f  1414 1389 1375
f  1416 1376 1377
f  1411 1372 1412
f  1412 1373 1418
f  1411 1412 1417
f  1413 1374 1427
f  1413 1414 1375
f  1413 1427 1414
f  1415 1376 1416
f  1416 1377 1421
f  1415 1416 1421
f  1417 1353 1378
f  1418 1373 1379
f  1371 1379 1354
f  1415 1380 1376
f  1421 1377 1382
f  1419 1381 1380
f  1422 1382 1383
f  1423 1383 1384
f  1424 1384 1385
f  1420 1386 1381
f  1425 1387 1386
f  1426 1407 1387
f  1370 1353 1417
f  1411 1417 1378
f  1371 1418 1379
f  1370 1418 1371
f  1370 1417 1418
f  1417 1412 1418
f  1415 1419 1380
f  1419 1420 1381
f  1421 1382 1422
f  1422 1383 1423
f  1423 1384 1424
f  1420 1425 1386
f  1425 1426 1387
f  1415 1421 1419
f  1421 1420 1419
f  1421 1422 1420
f  1422 1423 1425
f  1423 1424 1426
f  1420 1422 1425
f  1423 1426 1425
f  1424 1446 1426
f  1427 1374 1388
f  1432 1388 1393
f  1428 1396 1389
f  1332 1391 1298
f  1430 1392 1391
f  1431 1393 1392
f  1429 1394 1390
f  1434 1390 1395
f  1435 1397 1396
f  1436 1398 1397
f  1437 1399 1398
f  1438 1409 1399
f  1439 1302 1400
f  1440 1400 1401
f  1433 1401 1394
f  1441 1395 1402
f  1442 1402 1403
f  1443 1403 1404
f  1414 1428 1389
f  1427 1388 1432
f  1428 1435 1396
f  1332 1430 1391
f  1430 1431 1392
f  1432 1393 1431
f  1429 1390 1434
f  1433 1394 1429
f  1434 1395 1441
f  1414 1427 1428
f  1427 1432 1429
f  1427 1429 1435
f  1427 1435 1428
f  1430 1440 1431
f  1432 1431 1433
f  1432 1433 1429
f  1429 1434 1435
f  1431 1440 1433
f  1435 1436 1397
f  1436 1437 1398
f  1437 1438 1399
f  1438 1448 1409
f  1435 1434 1436
f  1434 1441 1436
f  1436 1441 1437
f  1437 1442 1438
f  1438 1443 1448
f  1440 1439 1400
f  1433 1440 1401
f  1332 1439 1430
f  1430 1439 1440
f  1332 1336 1439
f  1441 1402 1442
f  1442 1403 1443
f  1443 1404 1449
f  1437 1441 1442
f  1442 1443 1438
f  1444 1385 1405
f  1445 1405 1406
f  1446 1410 1407
f  1448 1408 1409
f  1447 1406 1408
f  1449 1404 1410
f  1424 1385 1444
f  1444 1405 1445
f  1447 1445 1406
f  1426 1446 1407
f  1448 1447 1408
f  1446 1449 1410
f  1424 1444 1446
f  1444 1445 1446
f  1446 1445 1449
f  1447 1449 1445
f  1448 1449 1447
f  1448 1443 1449
f  1337 1451 1303
f  1458 1450 1452
f  1456 1455 1450
f  1457 1462 1451
f  1459 1452 1453
f  1460 1299 1454
f  1333 1299 1460
f  1456 1450 1458
f  1337 1457 1451
f  1458 1452 1459
f  1333 1456 1337
f  1337 1456 1457
f  1456 1458 1457
f  1333 1460 1456
f  1458 1459 1457
f  1457 1459 1490
f  1459 1453 1494
f  1456 1461 1455
f  1460 1461 1456
f  1461 1454 1455
f  1460 1454 1461
f  1492 1463 1464
f  1490 1465 1462
f  1494 1453 1466
f  1493 1467 1465
f  1495 1470 1467
f  1496 1466 1468
f  1497 1468 1469
f  1514 1469 1486
f  1498 1471 1470
f  1499 1472 1471
f  1500 1473 1472
f  1457 1490 1462
f  1491 1463 1492
f  1492 1464 1502
f  1491 1492 1502
f  1490 1493 1465
f  1494 1466 1496
f  1493 1495 1467
f  1495 1498 1470
f  1496 1468 1497
f  1497 1469 1514
f  1459 1494 1490
f  1490 1494 1493
f  1494 1496 1493
f  1493 1496 1495
f  1495 1496 1497
f  1495 1497 1498
f  1498 1497 1514
f  1498 1499 1471
f  1499 1500 1472
f  1500 1501 1473
f  1498 1514 1499
f  1499 1514 1515
f  1499 1515 1500
f  1515 1516 1500
f  1500 1517 1501
f  1500 1516 1517
f  1491 1476 1463
f  1502 1464 1474
f  1503 1474 1475
f  1504 1480 1476
f  1505 1475 1477
f  1506 1477 1478
f  1507 1478 1479
f  1508 1481 1480
f  1511 1479 1483
f  1510 1483 1482
f  1509 1484 1481
f  1501 1482 1473
f  1513 1489 1485
f  1512 1485 1484
f  1491 1504 1476
f  1502 1474 1503
f  1504 1508 1480
f  1503 1475 1505
f  1505 1477 1506
f  1506 1478 1507
f  1508 1509 1481
f  1491 1502 1504
f  1502 1503 1504
f  1504 1503 1508
f  1503 1505 1508
f  1508 1505 1506
f  1506 1507 1509
f  1508 1506 1509
f  1507 1479 1511
f  1510 1511 1483
f  1509 1512 1484
f  1510 1482 1501
f  1512 1513 1485
f  1507 1511 1509
f  1510 1512 1511
f  1509 1511 1512
f  1510 1501 1513
f  1510 1513 1512
f  1501 1517 1513
f  1515 1486 1487
f  1516 1487 1488
f  1517 1488 1489
f  1514 1486 1515
f  1515 1487 1516
f  1516 1488 1517
f  1517 1489 1513
