<?xml version="1.0" encoding="UTF-8"?>
<!DOCTYPE X3D PUBLIC "ISO//Web3D//DTD X3D 3.0//EN" "http://www.web3d.org/specifications/x3d-3.0.dtd">
<X3D version="3.0" profile="Immersive" xmlns:xsd="http://www.w3.org/2001/XMLSchema-instance" xsd:noNamespaceSchemaLocation="http://www.web3d.org/specifications/x3d-3.0.xsd">
	<head>
		<meta name="filename" content="C04-01259A.x3d" />
		<meta name="created" content="2026-02-22 12:07:57" />
		<meta name="generator" content="Blender 5.0.1" />
		<meta name="translator" content="Web3D X3D/VRML2 format v2.5.1" />
	</head>
	<Scene>
		<NavigationInfo headlight="true"
		                visibilityLimit="0.0"
		                type='"EXAMINE", "ANY"'
		                avatarSize="0.25, 1.75, 0.75"
		                />
		<Transform DEF="OpenSCAD_Model_TRANSFORM"
		           translation="0.000000 0.000000 0.000000"
		           scale="0.001000 0.001000 0.001000"
		           rotation="-1.000000 0.000000 0.000000 1.570796"
		           >
			<Transform DEF="OpenSCAD_Model_ifs_TRANSFORM"
			           translation="0.000000 0.000000 0.000000"
			           scale="1.000000 1.000000 1.000000"
			           rotation="0.000000 1.000000 0.000000 0.000000"
			           >
				<Group DEF="group_ME_OpenSCAD_Model">
					<Shape>
						<Appearance>
							<Material DEF="MA_Color_1"
							          diffuseColor="0.000 0.000 0.000"
							          specularColor="0.401 0.401 0.401"
							          emissiveColor="0.000 0.000 0.000"
							          ambientIntensity="0.000"
							          shininess="0.500"
							          transparency="1.000"
							          />
						</Appearance>
						<IndexedFaceSet solid="false"
						                coordIndex="0 1 3 -1 0 2 1516 -1 0 3 2 -1 0 1514 1515 -1 0 1515 1 -1 0 1516 1514 -1 1 4 6 -1 1 6 3 -1 1 26 28 -1 1 28 4 -1 1 38 40 -1 1 40 26 -1 1 66 38 -1 1 126 66 -1 1 228 126 -1 1 376 228 -1 1 386 376 -1 1 524 386 -1 1 526 524 -1 1 678 526 -1 1 680 678 -1 1 816 680 -1 1 818 816 -1 1 940 818 -1 1 1004 940 -1 1 1130 1004 -1 1 1144 1130 -1 1 1178 1144 -1 1 1515 1178 -1 2 3 1516 -1 3 6 12 -1 3 8 10 -1 3 10 20 -1 3 12 8 -1 3 20 76 -1 3 72 80 -1 3 76 152 -1 3 78 72 -1 3 80 92 -1 3 90 78 -1 3 92 106 -1 3 106 156 -1 3 152 90 -1 3 156 192 -1 3 192 1517 -1 3 1517 1516 -1 4 28 108 -1 4 108 112 -1 4 110 22 -1 4 112 122 -1 4 118 110 -1 4 122 118 -1 8 12 14 -1 16 24 18 -1 18 24 32 -1 20 42 76 -1 22 32 24 -1 22 110 114 -1 22 114 32 -1 26 40 30 -1 28 46 130 -1 28 116 108 -1 28 130 116 -1 30 40 50 -1 32 114 34 -1 34 62 64 -1 34 64 82 -1 34 82 84 -1 34 114 124 -1 34 124 62 -1 36 52 44 -1 40 48 50 -1 44 52 70 -1 44 58 60 -1 44 60 46 -1 44 70 58 -1 46 60 178 -1 46 178 130 -1 54 68 98 -1 54 98 56 -1 56 98 74 -1 60 88 178 -1 62 124 172 -1 62 172 210 -1 62 210 248 -1 62 248 288 -1 62 288 146 -1 66 126 128 -1 66 128 174 -1 66 174 176 -1 66 176 68 -1 68 176 98 -1 74 98 86 -1 86 94 96 -1 86 96 88 -1 86 98 94 -1 88 96 348 -1 88 200 178 -1 88 348 200 -1 90 152 104 -1 96 168 348 -1 100 148 334 -1 100 150 102 -1 100 334 352 -1 100 352 150 -1 104 152 154 -1 118 122 132 -1 120 190 166 -1 122 170 132 -1 132 170 180 -1 134 142 278 -1 134 278 138 -1 136 144 280 -1 136 280 140 -1 138 278 158 -1 140 280 160 -1 142 162 278 -1 144 164 280 -1 146 288 316 -1 146 316 390 -1 146 390 148 -1 148 332 334 -1 148 390 332 -1 150 328 330 -1 150 330 152 -1 150 352 328 -1 152 330 154 -1 154 330 194 -1 158 278 182 -1 160 280 184 -1 162 186 278 -1 164 188 280 -1 166 190 244 -1 166 216 218 -1 166 218 168 -1 166 244 216 -1 168 218 346 -1 168 346 348 -1 170 202 180 -1 170 208 324 -1 170 252 202 -1 170 296 252 -1 170 324 296 -1 182 278 212 -1 184 280 214 -1 186 204 278 -1 188 206 280 -1 192 220 1517 -1 194 330 222 -1 196 230 318 -1 196 318 198 -1 198 302 268 -1 198 306 302 -1 198 318 306 -1 200 348 456 -1 200 456 250 -1 204 232 290 -1 204 290 278 -1 206 234 280 -1 208 246 324 -1 212 278 224 -1 214 280 226 -1 218 304 346 -1 220 254 1517 -1 222 330 256 -1 224 278 236 -1 226 280 238 -1 228 376 230 -1 230 376 318 -1 232 240 290 -1 234 242 280 -1 236 270 258 -1 236 278 270 -1 238 272 260 -1 238 280 272 -1 240 262 290 -1 242 264 280 -1 246 286 324 -1 250 456 294 -1 254 266 1517 -1 256 330 478 -1 256 478 266 -1 262 274 290 -1 264 276 280 -1 266 478 582 -1 266 582 638 -1 266 638 1517 -1 274 282 290 -1 276 284 280 -1 280 284 300 -1 280 300 340 -1 280 340 292 -1 282 298 310 -1 282 310 290 -1 286 290 310 -1 286 310 312 -1 286 312 324 -1 288 292 314 -1 288 314 316 -1 292 340 314 -1 294 320 322 -1 294 322 336 -1 294 336 338 -1 294 338 298 -1 294 456 320 -1 296 324 326 -1 296 326 340 -1 296 340 300 -1 298 338 310 -1 302 306 308 -1 302 308 304 -1 304 308 346 -1 308 374 346 -1 312 388 324 -1 314 340 342 -1 320 456 400 -1 324 388 404 -1 332 390 466 -1 332 466 516 -1 332 516 492 -1 334 350 352 -1 344 398 372 -1 346 374 420 -1 348 370 456 -1 354 402 356 -1 356 402 394 -1 358 378 360 -1 358 382 408 -1 358 408 432 -1 358 412 378 -1 358 432 444 -1 358 440 412 -1 358 444 452 -1 358 448 440 -1 358 452 448 -1 362 406 364 -1 364 406 396 -1 366 380 368 -1 366 384 410 -1 366 410 434 -1 366 414 380 -1 366 434 446 -1 366 442 414 -1 366 446 454 -1 366 450 442 -1 366 454 450 -1 372 398 468 -1 372 468 374 -1 374 468 420 -1 386 524 458 -1 388 464 404 -1 392 422 498 -1 392 498 416 -1 394 402 436 -1 396 406 694 -1 396 510 512 -1 396 512 438 -1 396 694 780 -1 396 780 510 -1 400 456 490 -1 400 490 502 -1 400 502 504 -1 400 504 402 -1 402 504 436 -1 404 464 508 -1 404 508 566 -1 404 566 618 -1 404 618 406 -1 406 618 694 -1 416 498 530 -1 416 530 522 -1 418 500 474 -1 420 468 476 -1 420 476 496 -1 420 496 498 -1 420 498 422 -1 424 494 426 -1 426 494 484 -1 428 470 430 -1 428 472 518 -1 428 518 540 -1 428 520 470 -1 428 540 558 -1 428 544 520 -1 428 558 562 -1 428 560 544 -1 428 562 560 -1 436 504 460 -1 438 512 462 -1 460 504 532 -1 460 532 480 -1 462 512 536 -1 462 536 482 -1 464 486 506 -1 464 506 508 -1 466 488 514 -1 466 514 516 -1 476 528 546 -1 476 546 548 -1 476 548 496 -1 480 532 486 -1 482 536 538 -1 482 538 488 -1 484 494 542 -1 486 532 534 -1 486 534 506 -1 488 538 514 -1 490 564 590 -1 490 572 502 -1 490 590 592 -1 490 592 572 -1 492 516 568 -1 492 568 622 -1 492 622 698 -1 492 632 634 -1 492 634 494 -1 492 698 840 -1 492 840 878 -1 492 878 926 -1 492 926 970 -1 492 970 632 -1 494 634 542 -1 496 548 602 -1 496 602 584 -1 510 780 576 -1 526 600 588 -1 526 604 600 -1 526 614 604 -1 526 678 614 -1 528 570 546 -1 542 634 580 -1 550 574 552 -1 552 574 650 -1 554 578 556 -1 556 578 652 -1 564 586 612 -1 564 612 590 -1 566 616 618 -1 566 642 616 -1 568 620 622 -1 568 646 620 -1 572 592 674 -1 572 650 574 -1 572 674 650 -1 576 652 578 -1 576 780 838 -1 576 838 876 -1 576 876 924 -1 576 924 966 -1 576 966 652 -1 580 634 684 -1 580 684 598 -1 582 608 636 -1 582 636 638 -1 584 594 596 -1 584 596 586 -1 584 602 594 -1 586 596 612 -1 594 602 606 -1 594 606 664 -1 594 664 658 -1 596 610 612 -1 598 684 608 -1 600 604 606 -1 600 606 602 -1 608 684 636 -1 616 642 644 -1 620 646 648 -1 624 660 626 -1 626 660 676 -1 628 654 630 -1 628 656 688 -1 628 688 654 -1 632 970 972 -1 632 972 792 -1 634 682 684 -1 638 798 1517 -1 640 686 662 -1 650 674 666 -1 652 966 670 -1 656 690 710 -1 656 704 688 -1 656 710 704 -1 658 664 730 -1 658 730 660 -1 660 730 676 -1 662 686 742 -1 662 742 664 -1 664 742 730 -1 666 674 706 -1 666 706 750 -1 666 714 720 -1 666 720 668 -1 666 724 714 -1 666 750 724 -1 668 720 692 -1 670 696 672 -1 670 716 722 -1 670 722 696 -1 670 726 716 -1 670 752 726 -1 670 786 752 -1 670 966 968 -1 670 968 786 -1 680 816 738 -1 690 702 708 -1 690 708 712 -1 690 712 710 -1 692 720 746 -1 692 746 780 -1 692 780 694 -1 696 722 748 -1 696 748 698 -1 698 748 782 -1 698 782 840 -1 700 770 718 -1 706 728 784 -1 706 784 750 -1 718 770 824 -1 718 824 732 -1 728 740 814 -1 728 814 784 -1 730 742 760 -1 730 760 788 -1 732 824 744 -1 734 794 846 -1 734 796 736 -1 734 846 860 -1 734 860 796 -1 740 754 812 -1 740 812 814 -1 744 812 754 -1 744 824 812 -1 756 766 914 -1 756 914 762 -1 758 768 912 -1 758 912 764 -1 760 808 788 -1 760 820 826 -1 760 826 828 -1 760 828 808 -1 762 914 772 -1 764 912 774 -1 766 776 834 -1 766 834 856 -1 766 856 872 -1 766 872 894 -1 766 894 906 -1 766 906 914 -1 768 778 912 -1 770 790 824 -1 772 914 800 -1 774 912 802 -1 776 804 834 -1 778 806 912 -1 784 814 830 -1 786 968 832 -1 788 808 810 -1 788 810 790 -1 790 810 824 -1 792 904 794 -1 792 972 988 -1 792 988 904 -1 794 862 846 -1 794 904 862 -1 796 860 898 -1 796 898 798 -1 798 898 982 -1 798 982 1070 -1 798 1070 1517 -1 800 914 948 -1 800 948 842 -1 802 912 844 -1 806 836 912 -1 808 828 920 -1 808 920 884 -1 810 822 824 -1 814 870 830 -1 818 918 892 -1 818 940 942 -1 818 942 964 -1 818 944 918 -1 818 964 944 -1 820 864 826 -1 830 870 880 -1 832 968 882 -1 836 858 930 -1 836 930 912 -1 842 948 852 -1 844 912 854 -1 848 886 850 -1 850 886 952 -1 852 948 866 -1 854 912 868 -1 858 874 930 -1 866 900 888 -1 866 948 900 -1 868 902 890 -1 868 912 902 -1 870 934 880 -1 870 958 1032 -1 870 974 934 -1 870 1032 974 -1 874 896 930 -1 882 968 936 -1 884 920 946 -1 884 946 952 -1 884 952 886 -1 896 908 930 -1 900 948 910 -1 908 916 930 -1 910 948 928 -1 916 950 970 -1 916 970 930 -1 918 944 946 -1 918 946 920 -1 922 938 1196 -1 922 1196 932 -1 924 928 966 -1 926 930 970 -1 928 948 966 -1 932 1196 956 -1 934 974 976 -1 934 976 992 -1 934 992 948 -1 936 968 978 -1 936 978 980 -1 936 980 994 -1 936 994 996 -1 936 996 950 -1 938 960 1196 -1 942 962 964 -1 946 954 952 -1 946 998 954 -1 948 992 966 -1 950 996 970 -1 954 998 1008 -1 954 1008 1010 -1 954 1010 1040 -1 956 1196 1000 -1 960 1002 1196 -1 968 1042 978 -1 972 1044 1244 -1 972 1066 988 -1 972 1150 1066 -1 972 1216 1150 -1 972 1244 1216 -1 974 1032 1116 -1 974 1116 1464 -1 974 1464 1515 -1 974 1515 1050 -1 976 990 992 -1 978 1042 1122 -1 978 1122 1158 -1 978 1158 1054 -1 984 1006 986 -1 986 1006 1130 -1 998 1090 1092 -1 998 1092 1008 -1 998 1126 1090 -1 1000 1196 1072 -1 1002 1068 1196 -1 1004 1130 1006 -1 1008 1092 1110 -1 1010 1038 1040 -1 1012 1052 1014 -1 1014 1052 1046 -1 1016 1028 1018 -1 1016 1034 1058 -1 1016 1058 1078 -1 1016 1062 1028 -1 1016 1078 1094 -1 1016 1086 1062 -1 1016 1094 1102 -1 1016 1098 1086 -1 1016 1102 1098 -1 1020 1056 1022 -1 1022 1056 1048 -1 1024 1030 1026 -1 1024 1036 1060 -1 1024 1060 1080 -1 1024 1064 1030 -1 1024 1080 1096 -1 1024 1088 1064 -1 1024 1096 1104 -1 1024 1100 1088 -1 1024 1104 1100 -1 1044 1124 1244 -1 1046 1052 1082 -1 1048 1056 1084 -1 1050 1152 1154 -1 1050 1154 1052 -1 1050 1515 1152 -1 1052 1154 1082 -1 1054 1158 1220 -1 1054 1160 1162 -1 1054 1162 1056 -1 1054 1220 1254 -1 1054 1254 1160 -1 1056 1162 1084 -1 1068 1108 1210 -1 1068 1210 1196 -1 1070 1148 1517 -1 1072 1196 1106 -1 1074 1112 1076 -1 1076 1112 1346 -1 1076 1346 1364 -1 1076 1364 1406 -1 1076 1406 1426 -1 1076 1426 1114 -1 1082 1154 1118 -1 1084 1162 1120 -1 1090 1126 1128 -1 1092 1174 1110 -1 1106 1196 1136 -1 1108 1142 1210 -1 1110 1174 1184 -1 1110 1184 1236 -1 1110 1236 1112 -1 1112 1236 1276 -1 1112 1276 1346 -1 1114 1426 1116 -1 1116 1426 1464 -1 1118 1154 1186 -1 1118 1186 1132 -1 1120 1162 1190 -1 1120 1190 1134 -1 1122 1138 1156 -1 1122 1156 1158 -1 1124 1140 1164 -1 1124 1164 1166 -1 1124 1166 1244 -1 1132 1186 1188 -1 1132 1188 1138 -1 1134 1190 1140 -1 1136 1176 1168 -1 1136 1196 1176 -1 1138 1188 1156 -1 1140 1190 1192 -1 1140 1192 1164 -1 1142 1170 1210 -1 1144 1172 1146 -1 1144 1178 1180 -1 1144 1180 1214 -1 1144 1182 1172 -1 1144 1214 1182 -1 1148 1208 1517 -1 1152 1515 1228 -1 1160 1254 1232 -1 1166 1222 1244 -1 1170 1194 1210 -1 1172 1182 1184 -1 1172 1184 1174 -1 1178 1515 1238 -1 1180 1212 1214 -1 1194 1198 1210 -1 1198 1218 1210 -1 1200 1230 1202 -1 1202 1230 1286 -1 1204 1234 1206 -1 1206 1234 1288 -1 1208 1210 1248 -1 1208 1248 1517 -1 1210 1218 1294 -1 1210 1246 1248 -1 1210 1294 1296 -1 1210 1296 1246 -1 1216 1242 1218 -1 1216 1244 1242 -1 1218 1242 1250 -1 1218 1250 1398 -1 1218 1340 1294 -1 1218 1356 1340 -1 1218 1378 1356 -1 1218 1390 1378 -1 1218 1398 1390 -1 1220 1252 1254 -1 1220 1278 1252 -1 1222 1256 1258 -1 1222 1258 1244 -1 1222 1282 1256 -1 1224 1240 1226 -1 1226 1240 1316 -1 1228 1286 1230 -1 1228 1515 1286 -1 1232 1254 1288 -1 1232 1288 1234 -1 1236 1274 1276 -1 1236 1312 1274 -1 1238 1316 1240 -1 1238 1515 1316 -1 1244 1258 1270 -1 1246 1296 1260 -1 1248 1264 1517 -1 1250 1262 1310 -1 1250 1310 1332 -1 1250 1332 1352 -1 1250 1352 1376 -1 1250 1376 1388 -1 1250 1388 1398 -1 1252 1278 1280 -1 1254 1326 1288 -1 1256 1282 1284 -1 1258 1330 1270 -1 1260 1272 1266 -1 1260 1296 1342 -1 1260 1298 1272 -1 1260 1318 1298 -1 1260 1334 1318 -1 1260 1342 1350 -1 1260 1348 1334 -1 1260 1350 1368 -1 1260 1366 1348 -1 1260 1368 1374 -1 1260 1372 1366 -1 1260 1374 1380 -1 1260 1380 1372 -1 1262 1268 1292 -1 1262 1292 1310 -1 1264 1290 1517 -1 1270 1330 1338 -1 1274 1312 1314 -1 1286 1515 1300 -1 1288 1326 1304 -1 1290 1308 1517 -1 1300 1324 1302 -1 1300 1515 1324 -1 1304 1326 1515 -1 1304 1328 1306 -1 1304 1515 1328 -1 1308 1336 1517 -1 1316 1515 1320 -1 1320 1344 1322 -1 1320 1358 1360 -1 1320 1360 1384 -1 1320 1362 1344 -1 1320 1384 1362 -1 1320 1515 1358 -1 1324 1515 1326 -1 1328 1515 1330 -1 1330 1370 1338 -1 1330 1404 1370 -1 1330 1428 1404 -1 1330 1510 1428 -1 1330 1515 1510 -1 1336 1400 1517 -1 1344 1362 1364 -1 1344 1364 1346 -1 1354 1392 1386 -1 1358 1515 1408 -1 1360 1382 1384 -1 1386 1392 1412 -1 1386 1412 1402 -1 1394 1410 1396 -1 1396 1410 1440 -1 1400 1416 1434 -1 1400 1434 1517 -1 1402 1412 1476 -1 1402 1476 1414 -1 1404 1428 1430 -1 1404 1430 1418 -1 1406 1424 1426 -1 1406 1436 1424 -1 1408 1440 1410 -1 1408 1515 1440 -1 1412 1420 1476 -1 1414 1432 1416 -1 1414 1442 1432 -1 1414 1476 1482 -1 1414 1482 1488 -1 1414 1488 1492 -1 1414 1492 1442 -1 1416 1432 1434 -1 1418 1430 1452 -1 1418 1452 1422 -1 1420 1422 1470 -1 1420 1470 1476 -1 1422 1452 1470 -1 1424 1436 1438 -1 1434 1456 1517 -1 1440 1515 1448 -1 1442 1454 1446 -1 1442 1460 1454 -1 1442 1466 1460 -1 1442 1472 1466 -1 1442 1478 1472 -1 1442 1486 1478 -1 1442 1490 1486 -1 1442 1492 1494 -1 1442 1494 1490 -1 1444 1512 1458 -1 1448 1462 1450 -1 1448 1515 1462 -1 1456 1474 1517 -1 1458 1512 1468 -1 1462 1515 1464 -1 1468 1512 1480 -1 1474 1484 1517 -1 1480 1512 1496 -1 1484 1498 1517 -1 1496 1512 1517 -1 1496 1517 1500 -1 1498 1504 1517 -1 1500 1517 1502 -1 1502 1517 1506 -1 1504 1508 1517 -1 1506 1517 1508 -1 1510 1515 1512 -1 1512 1515 1517 -1 1514 1516 1515 -1 1515 1516 1517 -1 "
						                >
							<Coordinate DEF="coords_ME_OpenSCAD_Model"
							            point="0.000000 0.000000 0.000000 0.000000 0.000000 0.400000 0.000000 1.200000 0.000000 0.000000 1.200000 0.400000 0.210245 0.857142 0.400000 0.210245 0.857142 0.600000 0.210245 0.862687 0.400000 0.210245 0.862687 0.600000 0.210245 0.991900 0.400000 0.210245 0.991900 0.600000 0.210245 0.997445 0.400000 0.210245 0.997445 0.600000 0.228241 0.865512 0.400000 0.228241 0.865512 0.600000 0.228241 0.989179 0.400000 0.228241 0.989179 0.600000 0.239226 0.865512 0.400000 0.239226 0.865512 0.600000 0.239226 0.977775 0.400000 0.239226 0.977775 0.600000 0.252723 0.997445 0.400000 0.252723 0.997445 0.600000 0.258058 0.857142 0.400000 0.258058 0.857142 0.600000 0.258058 0.862687 0.400000 0.258058 0.862687 0.600000 0.274043 0.246294 0.400000 0.274043 0.246294 0.600000 0.274043 0.249374 0.400000 0.274043 0.249374 0.600000 0.282819 0.244782 0.400000 0.282819 0.244782 0.600000 0.290597 0.857142 0.400000 0.290597 0.857142 0.600000 0.294258 0.857142 0.400000 0.294258 0.857142 0.600000 0.296537 0.244782 0.400000 0.296537 0.244782 0.600000 0.297816 0.171428 0.400000 0.297816 0.171428 0.600000 0.297816 0.174509 0.400000 0.297816 0.174509 0.600000 0.298339 0.890727 0.400000 0.298339 0.890727 0.600000 0.306999 0.246294 0.400000 0.306999 0.246294 0.600000 0.306999 0.249374 0.400000 0.306999 0.249374 0.600000 0.310197 0.176078 0.400000 0.310197 0.176078 0.600000 0.310197 0.201769 0.400000 0.310197 0.201769 0.600000 0.318915 0.208802 0.400000 0.318915 0.208802 0.600000 0.321415 0.176078 0.400000 0.321415 0.176078 0.600000 0.321415 0.202118 0.400000 0.321415 0.202118 0.600000 0.330308 0.246294 0.400000 0.330308 0.246294 0.600000 0.330308 0.249374 0.400000 0.330308 0.249374 0.600000 0.331401 0.857142 0.400000 0.331401 0.857142 0.600000 0.331401 0.862687 0.400000 0.331401 0.862687 0.600000 0.333795 0.171428 0.400000 0.333795 0.171428 0.600000 0.333795 0.174509 0.400000 0.333795 0.174509 0.600000 0.340189 0.244782 0.400000 0.340189 0.244782 0.600000 0.347082 1.060657 0.400000 0.347082 1.060657 0.600000 0.347106 0.244782 0.400000 0.347106 0.244782 0.600000 0.348141 0.997445 0.400000 0.348141 0.997445 0.600000 0.350090 1.044700 0.400000 0.350090 1.044700 0.600000 0.350133 1.077046 0.400000 0.350133 1.077046 0.600000 0.350233 0.865512 0.400000 0.350233 0.865512 0.600000 0.350233 0.977775 0.400000 0.350233 0.977775 0.600000 0.355650 0.246294 0.400000 0.355650 0.246294 0.600000 0.355650 0.249374 0.400000 0.355650 0.249374 0.600000 0.359112 1.031009 0.400000 0.359112 1.031009 0.600000 0.359286 1.090645 0.400000 0.359286 1.090645 0.600000 0.360015 0.246294 0.400000 0.360015 0.246294 0.600000 0.360015 0.249374 0.400000 0.360015 0.249374 0.600000 0.368792 0.244782 0.400000 0.368792 0.244782 0.600000 0.370321 0.865512 0.400000 0.370321 0.865512 0.600000 0.370321 0.989179 0.400000 0.370321 0.989179 0.600000 0.372671 1.021593 0.400000 0.372671 1.021593 0.600000 0.372889 1.099802 0.400000 0.372889 1.099802 0.600000 0.373297 0.552357 0.400000 0.373297 0.552357 0.600000 0.373297 0.723786 0.400000 0.373297 0.723786 0.600000 0.375840 0.570020 0.400000 0.375840 0.570020 0.600000 0.375840 0.741448 0.400000 0.375840 0.741448 0.600000 0.375942 0.535828 0.400000 0.375942 0.535828 0.600000 0.375942 0.707256 0.400000 0.375942 0.707256 0.600000 0.382509 0.244782 0.400000 0.382509 0.244782 0.600000 0.383469 0.582786 0.400000 0.383469 0.582786 0.600000 0.383469 0.754214 0.400000 0.383469 0.754214 0.600000 0.383788 0.171428 0.400000 0.383788 0.171428 0.600000 0.383788 0.174509 0.400000 0.383788 0.174509 0.600000 0.383876 0.523440 0.400000 0.383876 0.523440 0.600000 0.383876 0.694868 0.400000 0.383876 0.694868 0.600000 0.385446 0.552474 0.400000 0.385446 0.552474 0.600000 0.385446 0.723902 0.400000 0.385446 0.723902 0.600000 0.387160 0.568487 0.400000 0.387160 0.568487 0.600000 0.387160 0.739915 0.400000 0.387160 0.739915 0.600000 0.387240 0.537506 0.400000 0.387240 0.537506 0.600000 0.387240 0.708935 0.400000 0.387240 0.708935 0.600000 0.388317 0.857142 0.400000 0.388317 0.857142 0.600000 0.388317 0.862687 0.400000 0.388317 0.862687 0.600000 0.388317 0.991900 0.400000 0.388317 0.991900 0.600000 0.388317 0.997445 0.400000 0.388317 0.997445 0.600000 0.389280 1.018455 0.400000 0.389280 1.018455 0.600000 0.389280 1.102854 0.400000 0.389280 1.102854 0.600000 0.392304 0.579676 0.400000 0.392304 0.579676 0.600000 0.392304 0.751104 0.400000 0.392304 0.751104 0.600000 0.392624 0.526549 0.400000 0.392624 0.526549 0.600000 0.392624 0.697978 0.400000 0.392624 0.697978 0.600000 0.392972 0.246294 0.400000 0.392972 0.246294 0.600000 0.392972 0.249374 0.400000 0.392972 0.249374 0.600000 0.396097 0.590524 0.400000 0.396097 0.590524 0.600000 0.396097 0.761952 0.400000 0.396097 0.761952 0.600000 0.396169 0.176078 0.400000 0.396169 0.176078 0.600000 0.396169 0.201769 0.400000 0.396169 0.201769 0.600000 0.396547 0.515702 0.400000 0.396547 0.515702 0.600000 0.396547 0.687131 0.400000 0.396547 0.687131 0.600000 0.401183 0.586259 0.400000 0.401183 0.586259 0.600000 0.401183 0.757687 0.400000 0.401183 0.757687 0.600000 0.401437 0.519836 0.400000 0.401437 0.519836 0.600000 0.401437 0.691264 0.400000 0.401437 0.691264 0.600000 0.404888 0.208802 0.400000 0.404888 0.208802 0.600000 0.405669 1.099802 0.400000 0.405669 1.099802 0.600000 0.405887 1.021593 0.400000 0.405887 1.021593 0.600000 0.407387 0.176078 0.400000 0.407387 0.176078 0.600000 0.407387 0.202118 0.400000 0.407387 0.202118 0.600000 0.413404 0.513123 0.400000 0.413404 0.513123 0.600000 0.413404 0.684552 0.400000 0.413404 0.684552 0.600000 0.413520 0.517598 0.400000 0.413520 0.517598 0.600000 0.413520 0.689027 0.400000 0.413520 0.689027 0.600000 0.413636 0.593103 0.400000 0.413636 0.593103 0.600000 0.413636 0.764532 0.400000 0.413636 0.764532 0.600000 0.414102 0.588453 0.400000 0.414102 0.588453 0.600000 0.414102 0.759882 0.400000 0.414102 0.759882 0.600000 0.416280 0.246294 0.400000 0.416280 0.246294 0.600000 0.416280 0.249374 0.400000 0.416280 0.249374 0.600000 0.419268 1.090645 0.400000 0.419268 1.090645 0.600000 0.419442 1.031009 0.400000 0.419442 1.031009 0.600000 0.419631 0.588111 0.400000 0.419631 0.588111 0.600000 0.419631 0.759540 0.400000 0.419631 0.759540 0.600000 0.419768 0.171428 0.400000 0.419768 0.171428 0.600000 0.419768 0.174509 0.400000 0.419768 0.174509 0.600000 0.419957 0.517998 0.400000 0.419957 0.517998 0.600000 0.419957 0.689426 0.400000 0.419957 0.689426 0.600000 0.425058 0.587087 0.400000 0.425058 0.587087 0.600000 0.425058 0.758515 0.400000 0.425058 0.758515 0.600000 0.426017 0.519197 0.400000 0.426017 0.519197 0.600000 0.426017 0.690625 0.400000 0.426017 0.690625 0.600000 0.426161 0.244782 0.400000 0.426161 0.244782 0.600000 0.426235 0.592362 0.400000 0.426235 0.592362 0.600000 0.426235 0.763790 0.400000 0.426235 0.763790 0.600000 0.427630 0.514038 0.400000 0.427630 0.514038 0.600000 0.427630 0.685467 0.400000 0.427630 0.685467 0.600000 0.428424 1.077046 0.400000 0.428424 1.077046 0.600000 0.428468 1.044700 0.400000 0.428468 1.044700 0.600000 0.430107 0.585438 0.400000 0.430107 0.585438 0.600000 0.430107 0.756866 0.400000 0.430107 0.756866 0.600000 0.431277 0.521064 0.400000 0.431277 0.521064 0.600000 0.431277 0.692493 0.400000 0.431277 0.692493 0.600000 0.431477 1.060657 0.400000 0.431477 1.060657 0.600000 0.433078 0.244782 0.400000 0.433078 0.244782 0.600000 0.434503 0.583222 0.400000 0.434503 0.583222 0.600000 0.434503 0.754650 0.400000 0.434503 0.754650 0.600000 0.435317 0.523469 0.400000 0.435317 0.523469 0.600000 0.435317 0.694897 0.400000 0.435317 0.694897 0.600000 0.436247 0.573108 0.400000 0.436247 0.573108 0.600000 0.436247 0.744536 0.400000 0.436247 0.744536 0.600000 0.437467 0.535094 0.400000 0.437467 0.535094 0.600000 0.437467 0.706523 0.400000 0.437467 0.706523 0.600000 0.439734 0.590138 0.400000 0.439734 0.590138 0.600000 0.439734 0.761567 0.400000 0.439734 0.761567 0.600000 0.440083 0.573108 0.400000 0.440083 0.573108 0.600000 0.440083 0.744536 0.400000 0.440083 0.744536 0.600000 0.440897 0.516785 0.400000 0.440897 0.516785 0.600000 0.440897 0.688213 0.400000 0.440897 0.688213 0.600000 0.441246 0.535094 0.400000 0.441246 0.535094 0.600000 0.441246 0.706523 0.400000 0.441246 0.706523 0.600000 0.441622 0.246294 0.400000 0.441622 0.246294 0.600000 0.441622 0.249374 0.400000 0.441622 0.249374 0.600000 0.444767 0.246294 0.400000 0.444767 0.246294 0.600000 0.444767 0.249374 0.400000 0.444767 0.249374 0.600000 0.451248 0.589151 0.400000 0.451248 0.589151 0.600000 0.451248 0.592231 0.400000 0.451248 0.592231 0.600000 0.451248 0.760579 0.400000 0.451248 0.760579 0.600000 0.451248 0.763660 0.400000 0.451248 0.763660 0.600000 0.451568 0.244782 0.400000 0.451568 0.244782 0.600000 0.452004 0.514285 0.400000 0.452004 0.514285 0.600000 0.452004 0.517366 0.400000 0.452004 0.517366 0.600000 0.452004 0.685714 0.400000 0.452004 0.685714 0.600000 0.452004 0.688794 0.400000 0.452004 0.688794 0.600000 0.454351 0.991900 0.400000 0.454351 0.991900 0.600000 0.454351 0.997445 0.400000 0.454351 0.997445 0.600000 0.455712 0.857142 0.400000 0.455712 0.857142 0.600000 0.455712 0.862687 0.400000 0.455712 0.862687 0.600000 0.461246 0.518935 0.400000 0.461246 0.518935 0.600000 0.461246 0.587639 0.400000 0.461246 0.587639 0.600000 0.461246 0.690364 0.400000 0.461246 0.690364 0.600000 0.461246 0.759067 0.400000 0.461246 0.759067 0.600000 0.463077 0.244782 0.400000 0.463077 0.244782 0.600000 0.465547 0.342857 0.400000 0.465547 0.342857 0.600000 0.465547 0.345937 0.400000 0.465547 0.345937 0.600000 0.472347 0.865512 0.400000 0.472347 0.865512 0.600000 0.472347 0.989179 0.400000 0.472347 0.989179 0.600000 0.472464 0.518935 0.400000 0.472464 0.518935 0.600000 0.472464 0.544859 0.400000 0.472464 0.544859 0.600000 0.472464 0.550091 0.400000 0.472464 0.550091 0.600000 0.472464 0.586999 0.400000 0.472464 0.586999 0.600000 0.472464 0.690364 0.400000 0.472464 0.690364 0.600000 0.472464 0.716287 0.400000 0.472464 0.716287 0.600000 0.472464 0.721519 0.400000 0.472464 0.721519 0.600000 0.472464 0.758428 0.400000 0.472464 0.758428 0.600000 0.474383 0.347507 0.400000 0.474383 0.347507 0.600000 0.474527 0.246294 0.400000 0.474527 0.246294 0.600000 0.474527 0.249374 0.400000 0.474527 0.249374 0.600000 0.477375 0.169626 0.400000 0.477375 0.169626 0.600000 0.478160 0.586999 0.400000 0.478160 0.586999 0.600000 0.478160 0.758428 0.400000 0.478160 0.758428 0.600000 0.478509 0.550091 0.400000 0.478509 0.550091 0.600000 0.478509 0.721519 0.400000 0.478509 0.721519 0.600000 0.480456 0.169626 0.400000 0.480456 0.169626 0.600000 0.480660 0.592231 0.400000 0.480660 0.592231 0.600000 0.480660 0.763660 0.400000 0.480660 0.763660 0.600000 0.480718 0.347507 0.400000 0.480718 0.347507 0.600000 0.481241 0.544859 0.400000 0.481241 0.544859 0.600000 0.481241 0.716287 0.400000 0.481241 0.716287 0.600000 0.481618 0.189854 0.400000 0.481618 0.189854 0.600000 0.484845 0.514285 0.400000 0.484845 0.514285 0.600000 0.484845 0.517366 0.400000 0.484845 0.517366 0.600000 0.484845 0.685714 0.400000 0.484845 0.685714 0.600000 0.484845 0.688794 0.400000 0.484845 0.688794 0.600000 0.487046 0.551209 0.400000 0.487046 0.551209 0.600000 0.487046 0.722638 0.400000 0.487046 0.722638 0.600000 0.487213 0.585967 0.400000 0.487213 0.585967 0.600000 0.487213 0.757396 0.400000 0.487213 0.757396 0.600000 0.488565 0.370001 0.400000 0.488565 0.370001 0.600000 0.490308 0.375233 0.400000 0.490308 0.375233 0.600000 0.491181 0.342857 0.400000 0.491181 0.342857 0.600000 0.491181 0.345937 0.400000 0.491181 0.345937 0.600000 0.492540 0.865512 0.400000 0.492540 0.865512 0.600000 0.492540 0.912175 0.400000 0.492540 0.912175 0.600000 0.492540 0.921592 0.400000 0.492540 0.921592 0.600000 0.492540 0.988028 0.400000 0.492540 0.988028 0.600000 0.493011 0.554566 0.400000 0.493011 0.554566 0.600000 0.493011 0.725994 0.400000 0.493011 0.725994 0.600000 0.493207 0.546414 0.400000 0.493207 0.546414 0.600000 0.493207 0.717842 0.400000 0.493207 0.717842 0.600000 0.493214 0.582872 0.400000 0.493214 0.582872 0.600000 0.493214 0.754301 0.400000 0.493214 0.754301 0.600000 0.496520 0.560451 0.400000 0.496520 0.560451 0.600000 0.496520 0.731880 0.400000 0.496520 0.731880 0.600000 0.496571 0.577380 0.400000 0.496571 0.577380 0.600000 0.496571 0.748808 0.400000 0.496571 0.748808 0.600000 0.497690 0.569155 0.400000 0.497690 0.569155 0.600000 0.497690 0.740584 0.400000 0.497690 0.740584 0.600000 0.500946 0.421442 0.400000 0.500946 0.421442 0.600000 0.501207 0.223334 0.400000 0.501207 0.223334 0.600000 0.502020 0.551078 0.400000 0.502020 0.551078 0.600000 0.502020 0.722507 0.400000 0.502020 0.722507 0.600000 0.502108 0.586491 0.400000 0.502108 0.586491 0.600000 0.502108 0.757920 0.400000 0.502108 0.757920 0.600000 0.502601 0.243910 0.400000 0.502601 0.243910 0.600000 0.502793 0.988028 0.400000 0.502793 0.988028 0.600000 0.503421 0.921592 0.400000 0.503421 0.921592 0.600000 0.503677 0.413072 0.400000 0.503677 0.413072 0.600000 0.505217 0.243910 0.400000 0.505217 0.243910 0.600000 0.507292 0.997445 0.400000 0.507292 0.997445 0.600000 0.507448 0.558736 0.400000 0.507448 0.558736 0.600000 0.507448 0.730165 0.400000 0.507448 0.730165 0.600000 0.508338 0.912175 0.400000 0.508338 0.912175 0.600000 0.509257 0.569272 0.400000 0.509257 0.569272 0.600000 0.509257 0.740700 0.400000 0.509257 0.740700 0.600000 0.511989 0.421442 0.400000 0.511989 0.421442 0.600000 0.514825 0.857142 0.400000 0.514825 0.857142 0.600000 0.514825 0.862687 0.400000 0.514825 0.862687 0.600000 0.516523 0.342857 0.400000 0.516523 0.342857 0.600000 0.516523 0.345937 0.400000 0.516523 0.345937 0.600000 0.517453 0.375233 0.400000 0.517453 0.375233 0.600000 0.517457 0.514285 0.400000 0.517457 0.514285 0.600000 0.517457 0.517366 0.400000 0.517457 0.517366 0.600000 0.517457 0.589151 0.400000 0.517457 0.589151 0.600000 0.517457 0.592231 0.400000 0.517457 0.592231 0.600000 0.517457 0.685714 0.400000 0.517457 0.685714 0.600000 0.517457 0.688794 0.400000 0.517457 0.688794 0.600000 0.517457 0.760579 0.400000 0.517457 0.760579 0.600000 0.517457 0.763660 0.400000 0.517457 0.763660 0.600000 0.518787 0.923606 0.400000 0.518787 0.923606 0.600000 0.519088 0.986170 0.400000 0.519088 0.986170 0.600000 0.519255 0.370001 0.400000 0.519255 0.370001 0.600000 0.521433 0.169626 0.400000 0.521433 0.169626 0.600000 0.524514 0.169626 0.400000 0.524514 0.169626 0.600000 0.525444 0.189854 0.400000 0.525444 0.189854 0.600000 0.526986 0.347507 0.400000 0.526986 0.347507 0.600000 0.527454 0.518935 0.400000 0.527454 0.518935 0.600000 0.527454 0.587639 0.400000 0.527454 0.587639 0.600000 0.527454 0.690364 0.400000 0.527454 0.690364 0.600000 0.527454 0.759067 0.400000 0.527454 0.759067 0.600000 0.529524 0.929647 0.400000 0.529524 0.929647 0.600000 0.529878 0.914973 0.400000 0.529878 0.914973 0.600000 0.529890 0.980599 0.400000 0.529890 0.980599 0.600000 0.530967 0.246294 0.400000 0.530967 0.246294 0.600000 0.530967 0.249374 0.400000 0.530967 0.249374 0.600000 0.533557 0.518935 0.400000 0.533557 0.518935 0.600000 0.533557 0.584384 0.400000 0.533557 0.584384 0.600000 0.533557 0.690364 0.400000 0.533557 0.690364 0.600000 0.533557 0.755813 0.400000 0.533557 0.755813 0.600000 0.535841 0.940241 0.400000 0.535841 0.940241 0.600000 0.535932 0.970712 0.400000 0.535932 0.970712 0.600000 0.537947 0.955908 0.400000 0.537947 0.955908 0.600000 0.539598 0.347507 0.400000 0.539598 0.347507 0.600000 0.541056 0.592231 0.400000 0.541056 0.592231 0.600000 0.541056 0.763660 0.400000 0.541056 0.763660 0.600000 0.543114 0.244782 0.400000 0.543114 0.244782 0.600000 0.544020 0.514285 0.400000 0.544020 0.514285 0.600000 0.544020 0.517366 0.400000 0.544020 0.517366 0.600000 0.544020 0.685714 0.400000 0.544020 0.685714 0.600000 0.544020 0.688794 0.400000 0.544020 0.688794 0.600000 0.545741 0.923370 0.400000 0.545741 0.923370 0.600000 0.545898 0.987113 0.400000 0.545898 0.987113 0.600000 0.549480 0.342857 0.400000 0.549480 0.342857 0.600000 0.549480 0.345937 0.400000 0.549480 0.345937 0.600000 0.549973 0.244782 0.400000 0.549973 0.244782 0.600000 0.553787 0.417722 0.400000 0.553787 0.417722 0.600000 0.553787 0.420803 0.400000 0.553787 0.420803 0.600000 0.554543 0.342857 0.400000 0.554543 0.342857 0.600000 0.554543 0.345937 0.400000 0.554543 0.345937 0.600000 0.555511 0.937154 0.400000 0.555511 0.937154 0.600000 0.556773 0.246294 0.400000 0.556773 0.246294 0.600000 0.556773 0.249374 0.400000 0.556773 0.249374 0.600000 0.557130 0.246294 0.400000 0.557130 0.246294 0.600000 0.557130 0.249374 0.400000 0.557130 0.249374 0.600000 0.558767 0.956118 0.400000 0.558767 0.956118 0.600000 0.563784 0.347507 0.400000 0.563784 0.347507 0.600000 0.563784 0.416210 0.400000 0.563784 0.416210 0.600000 0.563931 0.244782 0.400000 0.563931 0.244782 0.600000 0.570699 0.589151 0.400000 0.570699 0.589151 0.600000 0.570699 0.592231 0.400000 0.570699 0.592231 0.600000 0.570699 0.760579 0.400000 0.570699 0.760579 0.600000 0.570699 0.763660 0.400000 0.570699 0.763660 0.600000 0.575003 0.347507 0.400000 0.575003 0.347507 0.600000 0.575003 0.377034 0.400000 0.575003 0.377034 0.600000 0.575003 0.382266 0.400000 0.575003 0.382266 0.600000 0.575003 0.415571 0.400000 0.575003 0.415571 0.600000 0.575095 0.857142 0.400000 0.575095 0.857142 0.600000 0.575095 0.862687 0.400000 0.575095 0.862687 0.600000 0.575095 0.991900 0.400000 0.575095 0.991900 0.600000 0.575095 0.997445 0.400000 0.575095 0.997445 0.600000 0.575439 0.244782 0.400000 0.575439 0.244782 0.600000 0.581161 0.534513 0.400000 0.581161 0.534513 0.600000 0.581161 0.587639 0.400000 0.581161 0.587639 0.600000 0.581161 0.705942 0.400000 0.581161 0.705942 0.600000 0.581161 0.759067 0.400000 0.581161 0.759067 0.600000 0.581627 0.514285 0.400000 0.581627 0.514285 0.600000 0.581627 0.685714 0.400000 0.581627 0.685714 0.600000 0.584941 0.415571 0.400000 0.584941 0.415571 0.600000 0.585290 0.382266 0.400000 0.585290 0.382266 0.600000 0.586801 0.342857 0.400000 0.586801 0.342857 0.600000 0.586801 0.345937 0.400000 0.586801 0.345937 0.600000 0.586890 0.246294 0.400000 0.586890 0.246294 0.600000 0.586890 0.249374 0.400000 0.586890 0.249374 0.600000 0.587265 0.514285 0.400000 0.587265 0.514285 0.600000 0.587265 0.587639 0.400000 0.587265 0.587639 0.600000 0.587265 0.685714 0.400000 0.587265 0.685714 0.600000 0.587265 0.759067 0.400000 0.587265 0.759067 0.600000 0.587441 0.420803 0.400000 0.587441 0.420803 0.600000 0.589010 0.377034 0.400000 0.589010 0.377034 0.600000 0.589737 0.169626 0.400000 0.589737 0.169626 0.600000 0.592819 0.169626 0.400000 0.592819 0.169626 0.600000 0.593091 0.865512 0.400000 0.593091 0.865512 0.600000 0.593091 0.989179 0.400000 0.593091 0.989179 0.600000 0.593981 0.189854 0.400000 0.593981 0.189854 0.600000 0.594176 0.414633 0.400000 0.594176 0.414633 0.600000 0.594191 0.383232 0.400000 0.594191 0.383232 0.600000 0.597263 0.589151 0.400000 0.597263 0.589151 0.600000 0.597263 0.592231 0.400000 0.597263 0.592231 0.600000 0.597263 0.760579 0.400000 0.597263 0.760579 0.600000 0.597263 0.763660 0.400000 0.597263 0.763660 0.600000 0.600054 0.378662 0.400000 0.600054 0.378662 0.600000 0.600083 0.386130 0.400000 0.600083 0.386130 0.600000 0.600141 0.411822 0.400000 0.600141 0.411822 0.600000 0.600170 0.419567 0.400000 0.600170 0.419567 0.600000 0.603374 0.391326 0.400000 0.603374 0.391326 0.600000 0.603389 0.406787 0.400000 0.603389 0.406787 0.600000 0.604471 0.399180 0.400000 0.604471 0.399180 0.600000 0.604882 0.552357 0.400000 0.604882 0.552357 0.600000 0.604882 0.723786 0.400000 0.604882 0.723786 0.600000 0.606739 0.381735 0.400000 0.606739 0.381735 0.600000 0.607425 0.570020 0.400000 0.607425 0.570020 0.600000 0.607425 0.741448 0.400000 0.607425 0.741448 0.600000 0.607527 0.535828 0.400000 0.607527 0.535828 0.600000 0.607527 0.707256 0.400000 0.607527 0.707256 0.600000 0.609063 0.415861 0.400000 0.609063 0.415861 0.600000 0.610924 0.342857 0.400000 0.610924 0.342857 0.600000 0.611796 0.386538 0.400000 0.611796 0.386538 0.600000 0.613179 0.865512 0.400000 0.613179 0.865512 0.600000 0.613179 0.989179 0.400000 0.613179 0.989179 0.600000 0.613569 0.223334 0.400000 0.613569 0.223334 0.600000 0.614295 0.409424 0.400000 0.614295 0.409424 0.600000 0.614964 0.243910 0.400000 0.614964 0.243910 0.600000 0.614978 0.392735 0.400000 0.614978 0.392735 0.600000 0.615054 0.582786 0.400000 0.615054 0.582786 0.600000 0.615054 0.754214 0.400000 0.615054 0.754214 0.600000 0.615461 0.523440 0.400000 0.615461 0.523440 0.600000 0.615461 0.694868 0.400000 0.615461 0.694868 0.600000 0.616038 0.399994 0.400000 0.616038 0.399994 0.600000 0.617030 0.552474 0.400000 0.617030 0.552474 0.600000 0.617030 0.723902 0.400000 0.617030 0.723902 0.600000 0.617580 0.243910 0.400000 0.617580 0.243910 0.600000 0.618745 0.568487 0.400000 0.618745 0.568487 0.600000 0.618745 0.739915 0.400000 0.618745 0.739915 0.600000 0.618825 0.537506 0.400000 0.618825 0.537506 0.600000 0.618825 0.708935 0.400000 0.618825 0.708935 0.600000 0.621154 0.347507 0.400000 0.621154 0.347507 0.600000 0.623889 0.579676 0.400000 0.623889 0.579676 0.600000 0.623889 0.751104 0.400000 0.623889 0.751104 0.600000 0.624209 0.526549 0.400000 0.624209 0.526549 0.600000 0.624209 0.697978 0.400000 0.624209 0.697978 0.600000 0.627682 0.590524 0.400000 0.627682 0.590524 0.600000 0.627682 0.761952 0.400000 0.627682 0.761952 0.600000 0.628132 0.515702 0.400000 0.628132 0.515702 0.600000 0.628132 0.687131 0.400000 0.628132 0.687131 0.600000 0.629581 0.342857 0.400000 0.629581 0.342857 0.600000 0.629581 0.345937 0.400000 0.629581 0.345937 0.600000 0.631175 0.857142 0.400000 0.631175 0.857142 0.600000 0.631175 0.862687 0.400000 0.631175 0.862687 0.600000 0.631175 0.991900 0.400000 0.631175 0.991900 0.600000 0.631175 0.997445 0.400000 0.631175 0.997445 0.600000 0.632768 0.586259 0.400000 0.632768 0.586259 0.600000 0.632768 0.757687 0.400000 0.632768 0.757687 0.600000 0.633022 0.519836 0.400000 0.633022 0.519836 0.600000 0.633022 0.691264 0.400000 0.633022 0.691264 0.600000 0.633191 0.342857 0.400000 0.633191 0.342857 0.600000 0.633191 0.345937 0.400000 0.633191 0.345937 0.600000 0.633191 0.417722 0.400000 0.633191 0.417722 0.600000 0.633191 0.420803 0.400000 0.633191 0.420803 0.600000 0.633796 0.169626 0.400000 0.633796 0.169626 0.600000 0.636877 0.169626 0.400000 0.636877 0.169626 0.600000 0.637807 0.189854 0.400000 0.637807 0.189854 0.600000 0.643188 0.347507 0.400000 0.643188 0.347507 0.600000 0.643188 0.416210 0.400000 0.643188 0.416210 0.600000 0.643329 0.246294 0.400000 0.643329 0.246294 0.600000 0.643329 0.249374 0.400000 0.643329 0.249374 0.600000 0.644988 0.513123 0.400000 0.644988 0.513123 0.600000 0.644988 0.684552 0.400000 0.644988 0.684552 0.600000 0.645105 0.517598 0.400000 0.645105 0.517598 0.600000 0.645105 0.689027 0.400000 0.645105 0.689027 0.600000 0.645221 0.593103 0.400000 0.645221 0.593103 0.600000 0.645221 0.764532 0.400000 0.645221 0.764532 0.600000 0.645686 0.588453 0.400000 0.645686 0.588453 0.600000 0.645686 0.759882 0.400000 0.645686 0.759882 0.600000 0.647500 0.925671 0.400000 0.647500 0.925671 0.600000 0.649291 0.347507 0.400000 0.649291 0.347507 0.600000 0.649291 0.409875 0.400000 0.649291 0.409875 0.600000 0.651215 0.588111 0.400000 0.651215 0.588111 0.600000 0.651215 0.759540 0.400000 0.651215 0.759540 0.600000 0.651542 0.517998 0.400000 0.651542 0.517998 0.600000 0.651542 0.689426 0.400000 0.651542 0.689426 0.600000 0.652078 0.957464 0.400000 0.652078 0.957464 0.600000 0.652261 0.895919 0.400000 0.652261 0.895919 0.600000 0.655477 0.244782 0.400000 0.655477 0.244782 0.600000 0.656642 0.587087 0.400000 0.656642 0.587087 0.600000 0.656642 0.758515 0.400000 0.656642 0.758515 0.600000 0.656790 0.420803 0.400000 0.656790 0.420803 0.600000 0.657601 0.519197 0.400000 0.657601 0.519197 0.600000 0.657601 0.690625 0.400000 0.657601 0.690625 0.600000 0.657819 0.592362 0.400000 0.657819 0.592362 0.600000 0.657819 0.763790 0.400000 0.657819 0.763790 0.600000 0.659214 0.514038 0.400000 0.659214 0.514038 0.600000 0.659214 0.685467 0.400000 0.659214 0.685467 0.600000 0.659754 0.342857 0.400000 0.659754 0.342857 0.600000 0.659754 0.345937 0.400000 0.659754 0.345937 0.600000 0.661692 0.585438 0.400000 0.661692 0.585438 0.600000 0.661692 0.756866 0.400000 0.661692 0.756866 0.600000 0.662336 0.244782 0.400000 0.662336 0.244782 0.600000 0.662862 0.521064 0.400000 0.662862 0.521064 0.600000 0.662862 0.692493 0.400000 0.662862 0.692493 0.600000 0.665809 0.980443 0.400000 0.665809 0.980443 0.600000 0.666088 0.583222 0.400000 0.666088 0.583222 0.600000 0.666088 0.754650 0.400000 0.666088 0.754650 0.600000 0.666542 0.873620 0.400000 0.666542 0.873620 0.600000 0.666901 0.523469 0.400000 0.666901 0.523469 0.600000 0.666901 0.694897 0.400000 0.666901 0.694897 0.600000 0.667831 0.573108 0.400000 0.667831 0.573108 0.600000 0.667831 0.744536 0.400000 0.667831 0.744536 0.600000 0.669052 0.535094 0.400000 0.669052 0.535094 0.600000 0.669052 0.706523 0.400000 0.669052 0.706523 0.600000 0.669136 0.246294 0.400000 0.669136 0.246294 0.600000 0.669136 0.249374 0.400000 0.669136 0.249374 0.600000 0.669367 0.925881 0.400000 0.669367 0.925881 0.600000 0.671319 0.590138 0.400000 0.671319 0.590138 0.600000 0.671319 0.761567 0.400000 0.671319 0.761567 0.600000 0.671668 0.573108 0.400000 0.671668 0.573108 0.600000 0.671668 0.744536 0.400000 0.671668 0.744536 0.600000 0.672454 0.954705 0.400000 0.672454 0.954705 0.600000 0.672481 0.516785 0.400000 0.672481 0.516785 0.600000 0.672481 0.688213 0.400000 0.672481 0.688213 0.600000 0.672598 0.898940 0.400000 0.672598 0.898940 0.600000 0.672806 0.171428 0.400000 0.672806 0.171428 0.600000 0.672806 0.174509 0.400000 0.672806 0.174509 0.600000 0.672806 0.246294 0.400000 0.672806 0.246294 0.600000 0.672806 0.249374 0.400000 0.672806 0.249374 0.600000 0.672830 0.535094 0.400000 0.672830 0.535094 0.600000 0.672830 0.706523 0.400000 0.672830 0.706523 0.600000 0.677831 0.342857 0.400000 0.677831 0.342857 0.600000 0.679865 0.342857 0.400000 0.679865 0.342857 0.600000 0.681713 0.974845 0.400000 0.681713 0.974845 0.600000 0.682132 0.361515 0.400000 0.682132 0.361515 0.600000 0.682289 0.879218 0.400000 0.682289 0.879218 0.600000 0.682803 0.176078 0.400000 0.682803 0.176078 0.600000 0.682803 0.244782 0.400000 0.682803 0.244782 0.600000 0.682833 0.589151 0.400000 0.682833 0.589151 0.600000 0.682833 0.592231 0.400000 0.682833 0.592231 0.600000 0.682833 0.760579 0.400000 0.682833 0.760579 0.600000 0.682833 0.763660 0.400000 0.682833 0.763660 0.600000 0.683589 0.514285 0.400000 0.683589 0.514285 0.600000 0.683589 0.517366 0.400000 0.683589 0.517366 0.600000 0.683589 0.685714 0.400000 0.683589 0.685714 0.600000 0.683589 0.688794 0.400000 0.683589 0.688794 0.600000 0.688540 0.994371 0.400000 0.688540 0.994371 0.600000 0.688906 0.176078 0.400000 0.688906 0.176078 0.600000 0.688906 0.241527 0.400000 0.688906 0.241527 0.600000 0.689351 0.859693 0.400000 0.689351 0.859693 0.600000 0.692831 0.518935 0.400000 0.692831 0.518935 0.600000 0.692831 0.587639 0.400000 0.692831 0.587639 0.600000 0.692831 0.690364 0.400000 0.692831 0.690364 0.600000 0.692831 0.759067 0.400000 0.692831 0.759067 0.600000 0.696405 0.249374 0.400000 0.696405 0.249374 0.600000 0.697695 0.986695 0.400000 0.697695 0.986695 0.600000 0.698153 0.867134 0.400000 0.698153 0.867134 0.600000 0.699369 0.171428 0.400000 0.699369 0.171428 0.600000 0.699369 0.174509 0.400000 0.699369 0.174509 0.600000 0.700500 0.342857 0.400000 0.700500 0.342857 0.600000 0.700500 0.345937 0.400000 0.700500 0.345937 0.600000 0.704049 0.518935 0.400000 0.704049 0.518935 0.600000 0.704049 0.544859 0.400000 0.704049 0.544859 0.600000 0.704049 0.550091 0.400000 0.704049 0.550091 0.600000 0.704049 0.586999 0.400000 0.704049 0.586999 0.600000 0.704049 0.690364 0.400000 0.704049 0.690364 0.600000 0.704049 0.716287 0.400000 0.704049 0.716287 0.600000 0.704049 0.721519 0.400000 0.704049 0.721519 0.600000 0.704049 0.758428 0.400000 0.704049 0.758428 0.600000 0.709745 0.586999 0.400000 0.709745 0.586999 0.600000 0.709745 0.758428 0.400000 0.709745 0.758428 0.600000 0.709800 0.420803 0.400000 0.709800 0.420803 0.600000 0.710094 0.550091 0.400000 0.710094 0.550091 0.600000 0.710094 0.721519 0.400000 0.710094 0.721519 0.600000 0.710962 0.347507 0.400000 0.710962 0.347507 0.600000 0.710962 0.409875 0.400000 0.710962 0.409875 0.600000 0.712244 0.592231 0.400000 0.712244 0.592231 0.600000 0.712244 0.763660 0.400000 0.712244 0.763660 0.600000 0.712825 0.544859 0.400000 0.712825 0.544859 0.600000 0.712825 0.716287 0.400000 0.712825 0.716287 0.600000 0.716430 0.514285 0.400000 0.716430 0.514285 0.600000 0.716430 0.517366 0.400000 0.716430 0.517366 0.600000 0.716430 0.685714 0.400000 0.716430 0.685714 0.600000 0.716430 0.688794 0.400000 0.716430 0.688794 0.600000 0.718630 0.551209 0.400000 0.718630 0.551209 0.600000 0.718630 0.722638 0.400000 0.718630 0.722638 0.600000 0.718798 0.585967 0.400000 0.718798 0.585967 0.600000 0.718798 0.757396 0.400000 0.718798 0.757396 0.600000 0.719692 0.855050 0.400000 0.719692 0.855050 0.600000 0.719902 0.863106 0.400000 0.719902 0.863106 0.600000 0.720110 0.999014 0.400000 0.720110 0.999014 0.600000 0.720948 0.990644 0.400000 0.720948 0.990644 0.600000 0.722122 0.347507 0.400000 0.722122 0.347507 0.600000 0.722122 0.416210 0.400000 0.722122 0.416210 0.600000 0.724596 0.554566 0.400000 0.724596 0.554566 0.600000 0.724596 0.725994 0.400000 0.724596 0.725994 0.600000 0.724792 0.546414 0.400000 0.724792 0.546414 0.600000 0.724792 0.717842 0.400000 0.724792 0.717842 0.600000 0.724799 0.582872 0.400000 0.724799 0.582872 0.600000 0.724799 0.754301 0.400000 0.724799 0.754301 0.600000 0.726048 0.246294 0.400000 0.726048 0.246294 0.600000 0.726048 0.249374 0.400000 0.726048 0.249374 0.600000 0.728105 0.560451 0.400000 0.728105 0.560451 0.600000 0.728105 0.731880 0.400000 0.728105 0.731880 0.600000 0.728156 0.577380 0.400000 0.728156 0.577380 0.600000 0.728156 0.748808 0.400000 0.728156 0.748808 0.600000 0.729275 0.569155 0.400000 0.729275 0.569155 0.600000 0.729275 0.740584 0.400000 0.729275 0.740584 0.600000 0.730900 0.990029 0.400000 0.730900 0.990029 0.600000 0.731488 0.863825 0.400000 0.731488 0.863825 0.600000 0.732120 0.342857 0.400000 0.732120 0.342857 0.600000 0.732120 0.345937 0.400000 0.732120 0.345937 0.600000 0.732120 0.417722 0.400000 0.732120 0.417722 0.600000 0.732120 0.420803 0.400000 0.732120 0.420803 0.600000 0.733605 0.551078 0.400000 0.733605 0.551078 0.600000 0.733605 0.722507 0.400000 0.733605 0.722507 0.600000 0.733692 0.586491 0.400000 0.733692 0.586491 0.600000 0.733692 0.757920 0.400000 0.733692 0.757920 0.600000 0.736510 0.191656 0.400000 0.736510 0.191656 0.600000 0.736510 0.244782 0.400000 0.736510 0.244782 0.600000 0.736976 0.171428 0.400000 0.736976 0.171428 0.600000 0.739033 0.558736 0.400000 0.739033 0.558736 0.600000 0.739033 0.730165 0.400000 0.739033 0.730165 0.600000 0.740669 0.988185 0.400000 0.740669 0.988185 0.600000 0.740842 0.569272 0.400000 0.740842 0.569272 0.600000 0.740842 0.740700 0.400000 0.740842 0.740700 0.600000 0.742395 0.865983 0.400000 0.742395 0.865983 0.600000 0.742614 0.171428 0.400000 0.742614 0.171428 0.600000 0.742614 0.244782 0.400000 0.742614 0.244782 0.600000 0.742788 0.997680 0.400000 0.742788 0.997680 0.600000 0.745299 0.856698 0.400000 0.745299 0.856698 0.600000 0.749041 0.514285 0.400000 0.749041 0.514285 0.600000 0.749041 0.517366 0.400000 0.749041 0.517366 0.600000 0.749041 0.589151 0.400000 0.749041 0.589151 0.600000 0.749041 0.592231 0.400000 0.749041 0.592231 0.600000 0.749041 0.685714 0.400000 0.749041 0.685714 0.600000 0.749041 0.688794 0.400000 0.749041 0.688794 0.600000 0.749041 0.760579 0.400000 0.749041 0.760579 0.600000 0.749041 0.763660 0.400000 0.749041 0.763660 0.600000 0.749758 0.985217 0.400000 0.749758 0.985217 0.600000 0.751864 0.869344 0.400000 0.751864 0.869344 0.600000 0.752612 0.246294 0.400000 0.752612 0.246294 0.600000 0.752612 0.249374 0.400000 0.752612 0.249374 0.600000 0.757671 0.981228 0.400000 0.757671 0.981228 0.600000 0.758778 0.171428 0.400000 0.758778 0.171428 0.600000 0.758778 0.174509 0.400000 0.758778 0.174509 0.600000 0.758778 0.246294 0.400000 0.758778 0.246294 0.600000 0.758778 0.249374 0.400000 0.758778 0.249374 0.600000 0.759039 0.518935 0.400000 0.759039 0.518935 0.600000 0.759039 0.587639 0.400000 0.759039 0.587639 0.600000 0.759039 0.690364 0.400000 0.759039 0.690364 0.600000 0.759039 0.759067 0.400000 0.759039 0.759067 0.600000 0.759135 0.873673 0.400000 0.759135 0.873673 0.600000 0.760809 0.963022 0.400000 0.760809 0.963022 0.600000 0.763006 0.894598 0.400000 0.763006 0.894598 0.600000 0.765142 0.518935 0.400000 0.765142 0.518935 0.600000 0.765142 0.584384 0.400000 0.765142 0.584384 0.600000 0.765142 0.690364 0.400000 0.765142 0.690364 0.600000 0.765142 0.755813 0.400000 0.765142 0.755813 0.600000 0.767087 0.993678 0.400000 0.767087 0.993678 0.600000 0.767715 0.963022 0.400000 0.767715 0.963022 0.600000 0.768776 0.176078 0.400000 0.768776 0.176078 0.600000 0.768776 0.244782 0.400000 0.768776 0.244782 0.600000 0.769179 0.861641 0.400000 0.769179 0.861641 0.600000 0.769807 0.894598 0.400000 0.769807 0.894598 0.600000 0.772640 0.592231 0.400000 0.772640 0.592231 0.600000 0.772640 0.763660 0.400000 0.772640 0.763660 0.600000 0.774879 0.176078 0.400000 0.774879 0.176078 0.600000 0.774879 0.241527 0.400000 0.774879 0.241527 0.600000 0.775604 0.514285 0.400000 0.775604 0.514285 0.600000 0.775604 0.517366 0.400000 0.775604 0.517366 0.600000 0.775604 0.685714 0.400000 0.775604 0.685714 0.600000 0.775604 0.688794 0.400000 0.775604 0.688794 0.600000 0.782377 0.249374 0.400000 0.782377 0.249374 0.600000 0.785341 0.171428 0.400000 0.785341 0.171428 0.600000 0.785341 0.174509 0.400000 0.785341 0.174509 0.600000 0.791893 0.889053 0.400000 0.791893 0.889053 0.600000 0.793044 0.859549 0.400000 0.793044 0.859549 0.600000 0.796182 0.967521 0.400000 0.796182 0.967521 0.600000 0.796182 0.994515 0.400000 0.796182 0.994515 0.600000 0.798797 0.889053 0.400000 0.798797 0.889053 0.600000 0.802284 0.589151 0.400000 0.802284 0.589151 0.600000 0.802284 0.592231 0.400000 0.802284 0.592231 0.600000 0.802284 0.760579 0.400000 0.802284 0.760579 0.600000 0.802284 0.763660 0.400000 0.802284 0.763660 0.600000 0.803088 0.967521 0.400000 0.803088 0.967521 0.600000 0.803506 0.869383 0.400000 0.803506 0.869383 0.600000 0.805833 0.996778 0.400000 0.805833 0.996778 0.600000 0.806749 0.984680 0.400000 0.806749 0.984680 0.600000 0.808437 0.867238 0.400000 0.808437 0.867238 0.600000 0.811353 0.856175 0.400000 0.811353 0.856175 0.600000 0.811719 0.986943 0.400000 0.811719 0.986943 0.600000 0.812020 0.246294 0.400000 0.812020 0.246294 0.600000 0.812020 0.249374 0.400000 0.812020 0.249374 0.600000 0.812746 0.534513 0.400000 0.812746 0.534513 0.600000 0.812746 0.587639 0.400000 0.812746 0.587639 0.600000 0.812746 0.705942 0.400000 0.812746 0.705942 0.600000 0.812746 0.759067 0.400000 0.812746 0.759067 0.600000 0.813211 0.514285 0.400000 0.813211 0.514285 0.600000 0.813211 0.685714 0.400000 0.813211 0.685714 0.600000 0.814072 0.998124 0.400000 0.814072 0.998124 0.600000 0.815067 0.865407 0.400000 0.815067 0.865407 0.600000 0.816584 0.926090 0.400000 0.816584 0.926090 0.600000 0.816584 0.934669 0.400000 0.816584 0.934669 0.600000 0.817421 0.988708 0.400000 0.817421 0.988708 0.600000 0.818850 0.514285 0.400000 0.818850 0.514285 0.600000 0.818850 0.587639 0.400000 0.818850 0.587639 0.600000 0.818850 0.685714 0.400000 0.818850 0.685714 0.600000 0.818850 0.759067 0.400000 0.818850 0.759067 0.600000 0.821579 0.998792 0.400000 0.821579 0.998792 0.600000 0.822299 0.864152 0.400000 0.822299 0.864152 0.600000 0.822483 0.191656 0.400000 0.822483 0.191656 0.600000 0.822483 0.244782 0.400000 0.822483 0.244782 0.600000 0.822948 0.171428 0.400000 0.822948 0.171428 0.600000 0.823359 0.989847 0.400000 0.823359 0.989847 0.600000 0.828586 0.171428 0.400000 0.828586 0.171428 0.600000 0.828586 0.244782 0.400000 0.828586 0.244782 0.600000 0.828847 0.589151 0.400000 0.828847 0.589151 0.600000 0.828847 0.592231 0.400000 0.828847 0.592231 0.600000 0.828847 0.760579 0.400000 0.828847 0.760579 0.600000 0.828847 0.763660 0.400000 0.828847 0.763660 0.600000 0.829034 0.863733 0.400000 0.829034 0.863733 0.600000 0.829034 0.990226 0.400000 0.829034 0.990226 0.600000 0.829034 0.999014 0.400000 0.829034 0.999014 0.600000 0.830708 0.855050 0.400000 0.830708 0.855050 0.600000 0.831546 0.925253 0.400000 0.831546 0.925253 0.600000 0.831546 0.935611 0.400000 0.831546 0.935611 0.600000 0.838584 0.246294 0.400000 0.838584 0.246294 0.600000 0.838584 0.249374 0.400000 0.838584 0.249374 0.600000 0.840608 0.988617 0.400000 0.840608 0.988617 0.600000 0.841825 0.937756 0.400000 0.841825 0.937756 0.600000 0.843316 0.865617 0.400000 0.843316 0.865617 0.600000 0.843368 0.930589 0.400000 0.843368 0.930589 0.600000 0.844728 0.922912 0.400000 0.844728 0.922912 0.600000 0.844750 0.171428 0.400000 0.844750 0.171428 0.600000 0.844750 0.174509 0.400000 0.844750 0.174509 0.600000 0.844750 0.246294 0.400000 0.844750 0.246294 0.600000 0.844750 0.249374 0.400000 0.844750 0.249374 0.600000 0.848547 0.983791 0.400000 0.848547 0.983791 0.600000 0.849017 0.942935 0.400000 0.849017 0.942935 0.600000 0.851765 0.857718 0.400000 0.851765 0.857718 0.600000 0.853137 0.975434 0.400000 0.853137 0.975434 0.600000 0.853255 0.951357 0.400000 0.853255 0.951357 0.600000 0.853308 0.871266 0.400000 0.853308 0.871266 0.600000 0.853935 0.917354 0.400000 0.853935 0.917354 0.600000 0.854667 0.963232 0.400000 0.854667 0.963232 0.600000 0.854748 0.176078 0.400000 0.854748 0.176078 0.600000 0.854748 0.244782 0.400000 0.854748 0.244782 0.600000 0.856354 0.934316 0.400000 0.856354 0.934316 0.600000 0.859193 0.881310 0.400000 0.859193 0.881310 0.600000 0.859350 0.908526 0.400000 0.859350 0.908526 0.600000 0.859898 0.926757 0.400000 0.859898 0.926757 0.600000 0.860851 0.176078 0.400000 0.860851 0.176078 0.600000 0.860851 0.241527 0.400000 0.860851 0.241527 0.600000 0.861155 0.896377 0.400000 0.861155 0.896377 0.600000 0.862776 0.990383 0.400000 0.862776 0.990383 0.600000 0.866018 0.941313 0.400000 0.866018 0.941313 0.600000 0.867431 0.865722 0.400000 0.867431 0.865722 0.600000 0.868349 0.249374 0.400000 0.868349 0.249374 0.600000 0.871313 0.171428 0.400000 0.871313 0.171428 0.600000 0.871313 0.174509 0.400000 0.871313 0.174509 0.600000 0.871407 0.919656 0.400000 0.871407 0.919656 0.600000 0.872021 0.951423 0.400000 0.872021 0.951423 0.600000 0.874023 0.964488 0.400000 0.874023 0.964488 0.600000 0.877162 0.878460 0.400000 0.877162 0.878460 0.600000 0.878156 0.909207 0.400000 0.878156 0.909207 0.600000 0.880405 0.895331 0.400000 0.880405 0.895331 0.600000 0.897992 0.246294 0.400000 0.897992 0.246294 0.600000 0.897992 0.249374 0.400000 0.897992 0.249374 0.600000 0.898199 0.857142 0.400000 0.898199 0.857142 0.600000 0.898199 0.872522 0.400000 0.898199 0.872522 0.600000 0.902908 0.967521 0.400000 0.902908 0.967521 0.600000 0.902908 0.994515 0.400000 0.902908 0.994515 0.600000 0.908455 0.191656 0.400000 0.908455 0.191656 0.600000 0.908455 0.244782 0.400000 0.908455 0.244782 0.600000 0.908920 0.171428 0.400000 0.908920 0.171428 0.600000 0.909812 0.967521 0.400000 0.909812 0.967521 0.600000 0.911906 0.873254 0.400000 0.911906 0.873254 0.600000 0.913475 0.984680 0.400000 0.913475 0.984680 0.600000 0.914559 0.171428 0.400000 0.914559 0.171428 0.600000 0.914559 0.244782 0.400000 0.914559 0.244782 0.600000 0.917659 0.890204 0.400000 0.917659 0.890204 0.600000 0.918314 0.986943 0.400000 0.918314 0.986943 0.600000 0.920511 0.997890 0.400000 0.920511 0.997890 0.600000 0.922080 0.882383 0.400000 0.922080 0.882383 0.600000 0.923832 0.988708 0.400000 0.923832 0.988708 0.600000 0.924556 0.246294 0.400000 0.924556 0.246294 0.600000 0.924556 0.249374 0.400000 0.924556 0.249374 0.600000 0.929613 0.989847 0.400000 0.929613 0.989847 0.600000 0.931679 0.890727 0.400000 0.931679 0.890727 0.600000 0.933903 0.905060 0.400000 0.933903 0.905060 0.600000 0.935237 0.990226 0.400000 0.935237 0.990226 0.600000 0.935237 0.999014 0.400000 0.935237 0.999014 0.600000 0.945176 0.916778 0.400000 0.945176 0.916778 0.600000 0.947295 0.988447 0.400000 0.947295 0.988447 0.600000 0.950355 0.907193 0.400000 0.950355 0.907193 0.600000 0.952722 0.927084 0.400000 0.952722 0.927084 0.600000 0.955391 0.996621 0.400000 0.955391 0.996621 0.600000 0.955430 0.983110 0.400000 0.955430 0.983110 0.600000 0.957783 0.937703 0.400000 0.957783 0.937703 0.600000 0.960060 0.974374 0.400000 0.960060 0.974374 0.600000 0.960648 0.949264 0.400000 0.960648 0.949264 0.600000 0.961603 0.962395 0.400000 0.961603 0.962395 0.600000 0.962857 0.919551 0.400000 0.962857 0.919551 0.600000 0.969815 0.989441 0.400000 0.969815 0.989441 0.600000 0.971057 0.929883 0.400000 0.971057 0.929883 0.600000 0.976825 0.940267 0.400000 0.976825 0.940267 0.600000 0.978486 0.977893 0.400000 0.978486 0.977893 0.600000 0.980238 0.951004 0.400000 0.980238 0.951004 0.600000 0.981376 0.962395 0.400000 0.981376 0.962395 0.600000 0.984096 0.857142 0.400000 0.984096 0.857142 0.600000 0.984096 0.873254 0.400000 0.984096 0.873254 0.600000 1.200000 0.000000 0.000000 1.200000 0.000000 0.400000 1.200000 1.200000 0.000000 1.200000 1.200000 0.400000 "
							            />
						</IndexedFaceSet>
					</Shape>
					<Shape>
						<Appearance>
							<Material DEF="MA_Color_2"
							          diffuseColor="1.000 1.000 1.000"
							          specularColor="0.401 0.401 0.401"
							          emissiveColor="0.000 0.000 0.000"
							          ambientIntensity="0.000"
							          shininess="0.500"
							          transparency="1.000"
							          />
						</Appearance>
						<IndexedFaceSet solid="false"
						                coordIndex="4 5 6 -1 4 22 23 -1 4 23 5 -1 5 7 6 -1 5 13 7 -1 5 23 13 -1 6 7 12 -1 7 13 12 -1 8 9 10 -1 8 14 15 -1 8 15 9 -1 9 11 10 -1 9 15 11 -1 10 11 20 -1 11 15 21 -1 11 21 20 -1 12 13 15 -1 12 15 14 -1 13 17 19 -1 13 19 15 -1 13 23 17 -1 15 19 21 -1 16 17 24 -1 16 18 19 -1 16 19 17 -1 17 23 25 -1 17 25 24 -1 18 32 33 -1 18 33 19 -1 19 33 35 -1 19 35 43 -1 19 43 21 -1 20 21 42 -1 21 43 42 -1 22 24 25 -1 22 25 23 -1 26 27 28 -1 26 30 31 -1 26 31 27 -1 27 29 28 -1 27 31 29 -1 28 29 46 -1 29 31 37 -1 29 37 47 -1 29 47 46 -1 30 50 51 -1 30 51 31 -1 31 51 37 -1 32 34 35 -1 32 35 33 -1 34 84 85 -1 34 85 35 -1 35 85 43 -1 36 37 52 -1 36 44 45 -1 36 45 37 -1 37 45 47 -1 37 51 53 -1 37 53 52 -1 38 39 40 -1 38 66 67 -1 38 67 39 -1 39 41 40 -1 39 49 41 -1 39 67 49 -1 40 41 48 -1 41 49 48 -1 42 43 76 -1 43 77 76 -1 43 85 77 -1 44 46 47 -1 44 47 45 -1 48 49 50 -1 49 51 50 -1 49 55 51 -1 49 67 55 -1 51 55 57 -1 51 57 53 -1 52 53 70 -1 53 57 71 -1 53 71 70 -1 54 55 68 -1 54 56 57 -1 54 57 55 -1 55 67 69 -1 55 69 68 -1 56 74 75 -1 56 75 57 -1 57 75 71 -1 58 59 60 -1 58 70 71 -1 58 71 59 -1 59 61 60 -1 59 71 61 -1 60 61 88 -1 61 71 75 -1 61 75 89 -1 61 89 88 -1 62 63 64 -1 62 146 147 -1 62 147 63 -1 63 65 64 -1 63 83 65 -1 63 147 83 -1 64 65 82 -1 65 83 82 -1 66 68 69 -1 66 69 67 -1 72 73 80 -1 72 78 79 -1 72 79 73 -1 73 79 267 -1 73 81 80 -1 73 93 81 -1 73 107 93 -1 73 157 107 -1 73 193 157 -1 73 221 193 -1 73 255 221 -1 73 267 255 -1 74 86 87 -1 74 87 75 -1 75 87 89 -1 76 77 152 -1 77 85 101 -1 77 101 103 -1 77 103 153 -1 77 153 152 -1 78 90 91 -1 78 91 79 -1 79 91 267 -1 80 81 92 -1 81 93 92 -1 82 83 84 -1 83 85 84 -1 83 101 85 -1 83 147 101 -1 86 88 89 -1 86 89 87 -1 90 104 105 -1 90 105 91 -1 91 105 267 -1 92 93 106 -1 93 107 106 -1 94 95 96 -1 94 98 99 -1 94 99 95 -1 95 97 96 -1 95 99 97 -1 96 97 168 -1 97 99 121 -1 97 121 169 -1 97 169 168 -1 98 176 177 -1 98 177 99 -1 99 177 121 -1 100 101 148 -1 100 102 103 -1 100 103 101 -1 101 147 149 -1 101 149 148 -1 102 150 151 -1 102 151 103 -1 103 151 153 -1 104 154 155 -1 104 155 105 -1 105 155 267 -1 106 107 156 -1 107 157 156 -1 108 109 112 -1 108 116 117 -1 108 117 109 -1 109 113 112 -1 109 117 135 -1 109 135 113 -1 110 111 114 -1 110 118 119 -1 110 119 111 -1 111 115 114 -1 111 119 137 -1 111 137 115 -1 112 113 122 -1 113 123 122 -1 113 135 139 -1 113 139 123 -1 114 115 124 -1 115 125 124 -1 115 137 141 -1 115 141 125 -1 116 130 131 -1 116 131 117 -1 117 131 143 -1 117 143 135 -1 118 132 133 -1 118 133 119 -1 119 133 145 -1 119 145 137 -1 120 121 190 -1 120 166 167 -1 120 167 121 -1 121 167 169 -1 121 177 191 -1 121 191 190 -1 122 123 170 -1 123 139 159 -1 123 159 171 -1 123 171 170 -1 124 125 172 -1 125 141 161 -1 125 161 173 -1 125 173 172 -1 126 127 128 -1 126 228 229 -1 126 229 127 -1 127 129 128 -1 127 175 129 -1 127 229 175 -1 128 129 174 -1 129 175 174 -1 130 178 179 -1 130 179 131 -1 131 163 143 -1 131 179 163 -1 132 180 181 -1 132 181 133 -1 133 165 145 -1 133 181 165 -1 134 135 142 -1 134 138 139 -1 134 139 135 -1 135 143 142 -1 136 137 144 -1 136 140 141 -1 136 141 137 -1 137 145 144 -1 138 158 159 -1 138 159 139 -1 140 160 161 -1 140 161 141 -1 142 143 162 -1 143 163 162 -1 144 145 164 -1 145 165 164 -1 146 148 149 -1 146 149 147 -1 150 152 153 -1 150 153 151 -1 154 194 195 -1 154 195 155 -1 155 195 223 -1 155 223 257 -1 155 257 267 -1 156 157 192 -1 157 193 192 -1 158 182 183 -1 158 183 159 -1 159 183 171 -1 160 184 185 -1 160 185 161 -1 161 185 173 -1 162 163 186 -1 163 179 187 -1 163 187 186 -1 164 165 188 -1 165 181 189 -1 165 189 188 -1 166 168 169 -1 166 169 167 -1 170 171 208 -1 171 183 209 -1 171 209 208 -1 172 173 210 -1 173 185 211 -1 173 211 210 -1 174 175 176 -1 175 177 176 -1 175 197 177 -1 175 229 197 -1 177 197 199 -1 177 199 191 -1 178 200 201 -1 178 201 179 -1 179 201 187 -1 180 202 203 -1 180 203 181 -1 181 203 189 -1 182 212 213 -1 182 213 183 -1 183 213 209 -1 184 214 215 -1 184 215 185 -1 185 215 211 -1 186 187 204 -1 187 201 205 -1 187 205 204 -1 188 189 206 -1 189 203 207 -1 189 207 206 -1 190 191 244 -1 191 199 245 -1 191 245 244 -1 192 193 220 -1 193 221 220 -1 194 222 223 -1 194 223 195 -1 196 197 230 -1 196 198 199 -1 196 199 197 -1 197 229 231 -1 197 231 230 -1 198 268 269 -1 198 269 199 -1 199 269 245 -1 200 250 251 -1 200 251 201 -1 201 233 205 -1 201 251 233 -1 202 252 253 -1 202 253 203 -1 203 235 207 -1 203 253 235 -1 204 205 232 -1 205 233 232 -1 206 207 234 -1 207 235 234 -1 208 209 246 -1 209 213 225 -1 209 225 247 -1 209 247 246 -1 210 211 248 -1 211 215 227 -1 211 227 249 -1 211 249 248 -1 212 224 225 -1 212 225 213 -1 214 226 227 -1 214 227 215 -1 216 217 218 -1 216 244 245 -1 216 245 217 -1 217 219 218 -1 217 245 219 -1 218 219 304 -1 219 245 269 -1 219 269 305 -1 219 305 304 -1 220 221 254 -1 221 255 254 -1 222 256 257 -1 222 257 223 -1 224 236 237 -1 224 237 225 -1 225 237 247 -1 226 238 239 -1 226 239 227 -1 227 239 249 -1 228 230 231 -1 228 231 229 -1 232 233 240 -1 233 241 240 -1 233 251 241 -1 234 235 242 -1 235 243 242 -1 235 253 243 -1 236 258 259 -1 236 259 237 -1 237 259 247 -1 238 260 261 -1 238 261 239 -1 239 261 249 -1 240 241 262 -1 241 251 263 -1 241 263 262 -1 242 243 264 -1 243 253 265 -1 243 265 264 -1 246 247 286 -1 247 259 287 -1 247 287 286 -1 248 249 288 -1 249 261 289 -1 249 289 288 -1 250 294 295 -1 250 295 251 -1 251 295 263 -1 252 296 297 -1 252 297 253 -1 253 297 265 -1 254 255 266 -1 255 267 266 -1 256 266 267 -1 256 267 257 -1 258 270 271 -1 258 271 259 -1 259 271 287 -1 260 272 273 -1 260 273 261 -1 261 273 289 -1 262 263 274 -1 263 275 274 -1 263 295 275 -1 264 265 276 -1 265 277 276 -1 265 297 277 -1 268 302 303 -1 268 303 269 -1 269 303 305 -1 270 278 279 -1 270 279 271 -1 271 279 291 -1 271 291 287 -1 272 280 281 -1 272 281 273 -1 273 281 293 -1 273 293 289 -1 274 275 282 -1 275 283 282 -1 275 295 299 -1 275 299 283 -1 276 277 284 -1 277 285 284 -1 277 297 301 -1 277 301 285 -1 278 290 291 -1 278 291 279 -1 280 292 293 -1 280 293 281 -1 282 283 298 -1 283 299 298 -1 284 285 300 -1 285 301 300 -1 286 287 290 -1 287 291 290 -1 288 289 292 -1 289 293 292 -1 294 298 299 -1 294 299 295 -1 296 300 301 -1 296 301 297 -1 302 304 305 -1 302 305 303 -1 306 307 308 -1 306 318 319 -1 306 319 307 -1 307 309 308 -1 307 319 309 -1 308 309 374 -1 309 319 345 -1 309 345 375 -1 309 375 374 -1 310 311 312 -1 310 338 339 -1 310 339 311 -1 311 313 312 -1 311 339 313 -1 312 313 388 -1 313 339 389 -1 313 389 388 -1 314 315 316 -1 314 342 343 -1 314 343 315 -1 315 317 316 -1 315 343 317 -1 316 317 390 -1 317 343 391 -1 317 391 390 -1 318 376 377 -1 318 377 319 -1 319 377 387 -1 319 387 399 -1 319 399 345 -1 320 321 322 -1 320 400 401 -1 320 401 321 -1 321 323 322 -1 321 337 323 -1 321 355 337 -1 321 401 355 -1 322 323 336 -1 323 337 336 -1 324 325 326 -1 324 404 405 -1 324 405 325 -1 325 327 326 -1 325 341 327 -1 325 363 341 -1 325 405 363 -1 326 327 340 -1 327 341 340 -1 328 329 330 -1 328 352 353 -1 328 353 329 -1 329 331 330 -1 329 353 331 -1 330 331 478 -1 331 353 479 -1 331 479 478 -1 332 333 334 -1 332 492 493 -1 332 493 333 -1 333 335 334 -1 333 351 335 -1 333 425 351 -1 333 493 425 -1 334 335 350 -1 335 351 350 -1 336 337 338 -1 337 339 338 -1 337 355 357 -1 337 357 359 -1 337 359 339 -1 339 359 361 -1 339 361 389 -1 340 341 343 -1 340 343 342 -1 341 363 365 -1 341 365 367 -1 341 367 343 -1 343 367 369 -1 343 369 391 -1 344 345 398 -1 344 372 373 -1 344 373 345 -1 345 373 375 -1 345 399 398 -1 346 347 348 -1 346 420 421 -1 346 421 347 -1 347 349 348 -1 347 371 349 -1 347 421 371 -1 348 349 370 -1 349 371 370 -1 350 351 352 -1 351 353 352 -1 351 425 427 -1 351 427 429 -1 351 429 353 -1 353 429 431 -1 353 431 479 -1 354 355 402 -1 354 356 357 -1 354 357 355 -1 355 401 403 -1 355 403 402 -1 356 394 395 -1 356 395 357 -1 357 383 359 -1 357 395 383 -1 358 359 382 -1 358 360 361 -1 358 361 359 -1 359 383 382 -1 360 378 379 -1 360 379 361 -1 361 379 389 -1 362 363 406 -1 362 364 365 -1 362 365 363 -1 363 405 407 -1 363 407 406 -1 364 396 397 -1 364 397 365 -1 365 385 367 -1 365 397 385 -1 366 367 384 -1 366 368 369 -1 366 369 367 -1 367 385 384 -1 368 380 381 -1 368 381 369 -1 369 381 391 -1 370 371 456 -1 371 393 417 -1 371 417 419 -1 371 419 457 -1 371 421 393 -1 371 457 456 -1 372 374 375 -1 372 375 373 -1 376 386 387 -1 376 387 377 -1 378 412 413 -1 378 413 379 -1 379 413 389 -1 380 414 415 -1 380 415 381 -1 381 415 391 -1 382 383 408 -1 383 395 409 -1 383 409 408 -1 384 385 410 -1 385 397 411 -1 385 411 410 -1 386 458 459 -1 386 459 387 -1 387 459 399 -1 388 389 464 -1 389 413 465 -1 389 465 464 -1 390 391 466 -1 391 415 467 -1 391 467 466 -1 392 393 422 -1 392 416 417 -1 392 417 393 -1 393 421 423 -1 393 423 422 -1 394 436 437 -1 394 437 395 -1 395 437 409 -1 396 438 439 -1 396 439 397 -1 397 439 411 -1 398 399 468 -1 399 459 469 -1 399 469 468 -1 400 402 403 -1 400 403 401 -1 404 406 407 -1 404 407 405 -1 408 409 432 -1 409 433 432 -1 409 437 433 -1 410 411 434 -1 411 435 434 -1 411 439 435 -1 412 440 441 -1 412 441 413 -1 413 441 465 -1 414 442 443 -1 414 443 415 -1 415 443 467 -1 416 522 523 -1 416 523 417 -1 417 523 419 -1 418 419 500 -1 418 474 475 -1 418 475 419 -1 419 475 457 -1 419 501 500 -1 419 523 501 -1 420 422 423 -1 420 423 421 -1 424 425 494 -1 424 426 427 -1 424 427 425 -1 425 493 495 -1 425 495 494 -1 426 484 485 -1 426 485 427 -1 427 473 429 -1 427 485 473 -1 428 429 472 -1 428 430 431 -1 428 431 429 -1 429 473 472 -1 430 470 471 -1 430 471 431 -1 431 471 479 -1 432 433 444 -1 433 437 461 -1 433 445 444 -1 433 461 445 -1 434 435 446 -1 435 439 463 -1 435 447 446 -1 435 463 447 -1 436 460 461 -1 436 461 437 -1 438 462 463 -1 438 463 439 -1 440 448 449 -1 440 449 441 -1 441 449 465 -1 442 450 451 -1 442 451 443 -1 443 451 467 -1 444 445 452 -1 445 453 452 -1 445 461 481 -1 445 481 453 -1 446 447 454 -1 447 455 454 -1 447 463 483 -1 447 483 455 -1 448 452 453 -1 448 453 449 -1 449 453 487 -1 449 487 465 -1 450 454 455 -1 450 455 451 -1 451 455 489 -1 451 489 467 -1 453 481 487 -1 455 483 489 -1 456 457 490 -1 457 475 491 -1 457 491 490 -1 458 524 525 -1 458 525 459 -1 459 525 529 -1 459 529 469 -1 460 480 481 -1 460 481 461 -1 462 482 483 -1 462 483 463 -1 464 465 486 -1 465 487 486 -1 466 467 488 -1 467 489 488 -1 468 469 476 -1 469 477 476 -1 469 529 477 -1 470 520 521 -1 470 521 471 -1 471 521 479 -1 472 473 518 -1 473 485 519 -1 473 519 518 -1 474 500 501 -1 474 501 475 -1 475 501 491 -1 476 477 528 -1 477 529 528 -1 478 479 582 -1 479 521 583 -1 479 583 582 -1 480 486 487 -1 480 487 481 -1 482 488 489 -1 482 489 483 -1 484 542 543 -1 484 543 485 -1 485 543 519 -1 490 491 564 -1 491 501 565 -1 491 565 564 -1 492 494 495 -1 492 495 493 -1 496 497 498 -1 496 584 585 -1 496 585 497 -1 497 499 498 -1 497 531 499 -1 497 585 531 -1 498 499 530 -1 499 531 530 -1 501 523 565 -1 502 503 504 -1 502 572 573 -1 502 573 503 -1 503 505 504 -1 503 533 505 -1 503 573 533 -1 504 505 532 -1 505 533 532 -1 506 507 508 -1 506 534 535 -1 506 535 507 -1 507 509 508 -1 507 535 509 -1 508 509 566 -1 509 535 567 -1 509 567 566 -1 510 511 512 -1 510 576 577 -1 510 577 511 -1 511 513 512 -1 511 537 513 -1 511 577 537 -1 512 513 536 -1 513 537 536 -1 514 515 516 -1 514 538 539 -1 514 539 515 -1 515 517 516 -1 515 539 517 -1 516 517 568 -1 517 539 569 -1 517 569 568 -1 518 519 540 -1 519 541 540 -1 519 543 541 -1 520 544 545 -1 520 545 521 -1 521 545 583 -1 522 530 531 -1 522 531 523 -1 523 531 565 -1 524 526 527 -1 524 527 525 -1 525 527 589 -1 525 589 529 -1 526 588 589 -1 526 589 527 -1 528 529 570 -1 529 571 570 -1 529 589 571 -1 531 585 565 -1 532 533 535 -1 532 535 534 -1 533 551 553 -1 533 553 535 -1 533 573 551 -1 535 553 567 -1 536 537 539 -1 536 539 538 -1 537 555 557 -1 537 557 539 -1 537 577 555 -1 539 557 569 -1 540 541 558 -1 541 543 581 -1 541 559 558 -1 541 581 559 -1 542 580 581 -1 542 581 543 -1 544 560 561 -1 544 561 545 -1 545 561 583 -1 546 547 548 -1 546 570 571 -1 546 571 547 -1 547 549 548 -1 547 571 549 -1 548 549 602 -1 549 571 589 -1 549 589 603 -1 549 603 602 -1 550 551 574 -1 550 552 553 -1 550 553 551 -1 551 573 575 -1 551 575 574 -1 552 650 651 -1 552 651 553 -1 553 643 567 -1 553 651 667 -1 553 667 643 -1 554 555 578 -1 554 556 557 -1 554 557 555 -1 555 577 579 -1 555 579 578 -1 556 652 653 -1 556 653 557 -1 557 647 569 -1 557 653 671 -1 557 671 647 -1 558 559 562 -1 559 563 562 -1 559 581 599 -1 559 599 563 -1 560 562 563 -1 560 563 561 -1 561 563 609 -1 561 609 583 -1 563 599 609 -1 564 565 586 -1 565 585 587 -1 565 587 586 -1 566 567 642 -1 567 643 642 -1 568 569 646 -1 569 647 646 -1 572 574 575 -1 572 575 573 -1 576 578 579 -1 576 579 577 -1 580 598 599 -1 580 599 581 -1 582 583 608 -1 583 609 608 -1 584 586 587 -1 584 587 585 -1 588 600 601 -1 588 601 589 -1 589 601 603 -1 590 591 592 -1 590 612 613 -1 590 613 591 -1 591 593 592 -1 591 613 593 -1 592 593 674 -1 593 613 675 -1 593 675 674 -1 594 595 596 -1 594 658 659 -1 594 659 595 -1 595 597 596 -1 595 611 597 -1 595 625 611 -1 595 659 625 -1 596 597 610 -1 597 611 610 -1 598 608 609 -1 598 609 599 -1 600 602 603 -1 600 603 601 -1 604 605 606 -1 604 614 615 -1 604 615 605 -1 605 607 606 -1 605 615 607 -1 606 607 664 -1 607 615 641 -1 607 641 665 -1 607 665 664 -1 610 611 612 -1 611 613 612 -1 611 625 627 -1 611 627 629 -1 611 629 613 -1 613 629 631 -1 613 631 675 -1 614 678 679 -1 614 679 615 -1 615 679 681 -1 615 681 687 -1 615 687 641 -1 616 617 618 -1 616 644 645 -1 616 645 617 -1 617 619 618 -1 617 645 619 -1 618 619 694 -1 619 645 669 -1 619 669 695 -1 619 695 694 -1 620 621 622 -1 620 648 649 -1 620 649 621 -1 621 623 622 -1 621 649 623 -1 622 623 698 -1 623 649 673 -1 623 673 699 -1 623 699 698 -1 624 625 660 -1 624 626 627 -1 624 627 625 -1 625 659 661 -1 625 661 660 -1 626 676 677 -1 626 677 627 -1 627 657 629 -1 627 677 657 -1 628 629 656 -1 628 630 631 -1 628 631 629 -1 629 657 656 -1 630 654 655 -1 630 655 631 -1 631 655 675 -1 632 633 634 -1 632 792 793 -1 632 793 633 -1 633 635 634 -1 633 683 635 -1 633 793 683 -1 634 635 682 -1 635 683 682 -1 636 637 638 -1 636 684 685 -1 636 685 637 -1 637 639 638 -1 637 685 639 -1 638 639 798 -1 639 685 737 -1 639 737 799 -1 639 799 798 -1 640 641 686 -1 640 662 663 -1 640 663 641 -1 641 663 665 -1 641 687 686 -1 642 643 644 -1 643 645 644 -1 643 667 669 -1 643 669 645 -1 646 647 648 -1 647 649 648 -1 647 671 673 -1 647 673 649 -1 650 666 667 -1 650 667 651 -1 652 670 671 -1 652 671 653 -1 654 688 689 -1 654 689 655 -1 655 689 675 -1 656 657 690 -1 657 677 691 -1 657 691 690 -1 658 660 661 -1 658 661 659 -1 662 664 665 -1 662 665 663 -1 666 668 669 -1 666 669 667 -1 668 692 693 -1 668 693 669 -1 669 693 695 -1 670 672 673 -1 670 673 671 -1 672 696 697 -1 672 697 673 -1 673 697 699 -1 674 675 706 -1 675 689 707 -1 675 707 706 -1 676 730 731 -1 676 731 677 -1 677 701 691 -1 677 731 701 -1 678 680 681 -1 678 681 679 -1 680 738 739 -1 680 739 681 -1 681 739 687 -1 682 683 684 -1 683 685 684 -1 683 735 685 -1 683 793 735 -1 685 735 737 -1 686 687 742 -1 687 739 743 -1 687 743 742 -1 688 704 705 -1 688 705 689 -1 689 705 707 -1 690 691 702 -1 691 701 703 -1 691 703 702 -1 692 694 695 -1 692 695 693 -1 696 698 699 -1 696 699 697 -1 700 701 770 -1 700 718 719 -1 700 719 701 -1 701 719 703 -1 701 731 771 -1 701 771 770 -1 702 703 708 -1 703 709 708 -1 703 719 709 -1 704 710 711 -1 704 711 705 -1 705 711 729 -1 705 729 707 -1 706 707 728 -1 707 729 728 -1 708 709 712 -1 709 713 712 -1 709 719 733 -1 709 733 745 -1 709 745 713 -1 710 712 713 -1 710 713 711 -1 711 713 755 -1 711 741 729 -1 711 755 741 -1 713 745 755 -1 714 715 720 -1 714 724 725 -1 714 725 715 -1 715 721 720 -1 715 725 757 -1 715 757 721 -1 716 717 722 -1 716 726 727 -1 716 727 717 -1 717 723 722 -1 717 727 759 -1 717 759 723 -1 718 732 733 -1 718 733 719 -1 720 721 746 -1 721 747 746 -1 721 757 763 -1 721 763 747 -1 722 723 748 -1 723 749 748 -1 723 759 765 -1 723 765 749 -1 724 750 751 -1 724 751 725 -1 725 751 767 -1 725 767 757 -1 726 752 753 -1 726 753 727 -1 727 753 769 -1 727 769 759 -1 728 729 740 -1 729 741 740 -1 730 788 789 -1 730 789 731 -1 731 789 771 -1 732 744 745 -1 732 745 733 -1 734 735 794 -1 734 736 737 -1 734 737 735 -1 735 793 795 -1 735 795 794 -1 736 796 797 -1 736 797 737 -1 737 797 799 -1 738 816 817 -1 738 817 739 -1 739 817 821 -1 739 821 743 -1 740 741 754 -1 741 755 754 -1 742 743 760 -1 743 761 760 -1 743 821 761 -1 744 754 755 -1 744 755 745 -1 746 747 780 -1 747 763 773 -1 747 773 781 -1 747 781 780 -1 748 749 782 -1 749 765 775 -1 749 775 783 -1 749 783 782 -1 750 784 785 -1 750 785 751 -1 751 777 767 -1 751 785 777 -1 752 786 787 -1 752 787 753 -1 753 779 769 -1 753 787 779 -1 756 757 766 -1 756 762 763 -1 756 763 757 -1 757 767 766 -1 758 759 768 -1 758 764 765 -1 758 765 759 -1 759 769 768 -1 760 761 820 -1 761 821 820 -1 762 772 773 -1 762 773 763 -1 764 774 775 -1 764 775 765 -1 766 767 776 -1 767 777 776 -1 768 769 778 -1 769 779 778 -1 770 771 790 -1 771 789 791 -1 771 791 790 -1 772 800 801 -1 772 801 773 -1 773 801 781 -1 774 802 803 -1 774 803 775 -1 775 803 783 -1 776 777 804 -1 777 785 805 -1 777 805 804 -1 778 779 806 -1 779 787 807 -1 779 807 806 -1 780 781 838 -1 781 801 839 -1 781 839 838 -1 782 783 840 -1 783 803 841 -1 783 841 840 -1 784 830 831 -1 784 831 785 -1 785 831 805 -1 786 832 833 -1 786 833 787 -1 787 833 807 -1 788 790 791 -1 788 791 789 -1 792 794 795 -1 792 795 793 -1 796 798 799 -1 796 799 797 -1 800 842 843 -1 800 843 801 -1 801 843 839 -1 802 844 845 -1 802 845 803 -1 803 845 841 -1 804 805 834 -1 805 831 835 -1 805 835 834 -1 806 807 836 -1 807 833 837 -1 807 837 836 -1 808 809 810 -1 808 884 885 -1 808 885 809 -1 809 811 810 -1 809 823 811 -1 809 885 823 -1 810 811 822 -1 811 823 822 -1 812 813 814 -1 812 824 825 -1 812 825 813 -1 813 815 814 -1 813 825 815 -1 814 815 870 -1 815 825 871 -1 815 871 870 -1 816 818 819 -1 816 819 817 -1 817 819 893 -1 817 893 821 -1 818 892 893 -1 818 893 819 -1 820 821 864 -1 821 865 864 -1 821 893 865 -1 822 823 824 -1 823 825 824 -1 823 849 851 -1 823 851 825 -1 823 885 849 -1 825 851 871 -1 826 827 828 -1 826 864 865 -1 826 865 827 -1 827 829 828 -1 827 865 829 -1 828 829 920 -1 829 865 893 -1 829 893 921 -1 829 921 920 -1 830 880 881 -1 830 881 831 -1 831 857 835 -1 831 881 857 -1 832 882 883 -1 832 883 833 -1 833 859 837 -1 833 883 859 -1 834 835 856 -1 835 857 856 -1 836 837 858 -1 837 859 858 -1 838 839 876 -1 839 843 853 -1 839 853 877 -1 839 877 876 -1 840 841 878 -1 841 845 855 -1 841 855 879 -1 841 879 878 -1 842 852 853 -1 842 853 843 -1 844 854 855 -1 844 855 845 -1 846 847 860 -1 846 862 863 -1 846 863 847 -1 847 861 860 -1 847 863 923 -1 847 923 861 -1 848 849 886 -1 848 850 851 -1 848 851 849 -1 849 885 887 -1 849 887 886 -1 850 952 953 -1 850 953 851 -1 851 953 955 -1 851 955 959 -1 851 959 871 -1 852 866 867 -1 852 867 853 -1 853 867 877 -1 854 868 869 -1 854 869 855 -1 855 869 879 -1 856 857 872 -1 857 873 872 -1 857 881 873 -1 858 859 874 -1 859 875 874 -1 859 883 875 -1 860 861 898 -1 861 899 898 -1 861 923 933 -1 861 933 899 -1 862 904 905 -1 862 905 863 -1 863 905 939 -1 863 939 923 -1 866 888 889 -1 866 889 867 -1 867 889 877 -1 868 890 891 -1 868 891 869 -1 869 891 879 -1 870 871 958 -1 871 959 958 -1 872 873 894 -1 873 881 895 -1 873 895 894 -1 874 875 896 -1 875 883 897 -1 875 897 896 -1 876 877 924 -1 877 889 925 -1 877 925 924 -1 878 879 926 -1 879 891 927 -1 879 927 926 -1 880 934 935 -1 880 935 881 -1 881 935 895 -1 882 936 937 -1 882 937 883 -1 883 937 897 -1 884 886 887 -1 884 887 885 -1 888 900 901 -1 888 901 889 -1 889 901 925 -1 890 902 903 -1 890 903 891 -1 891 903 927 -1 892 918 919 -1 892 919 893 -1 893 919 921 -1 894 895 906 -1 895 907 906 -1 895 935 907 -1 896 897 908 -1 897 909 908 -1 897 937 909 -1 898 899 982 -1 899 933 957 -1 899 957 983 -1 899 983 982 -1 900 910 911 -1 900 911 901 -1 901 911 929 -1 901 929 925 -1 902 912 913 -1 902 913 903 -1 903 913 931 -1 903 931 927 -1 904 988 989 -1 904 989 905 -1 905 961 939 -1 905 989 961 -1 906 907 914 -1 907 915 914 -1 907 935 949 -1 907 949 915 -1 908 909 916 -1 909 917 916 -1 909 937 951 -1 909 951 917 -1 910 928 929 -1 910 929 911 -1 912 930 931 -1 912 931 913 -1 914 915 948 -1 915 949 948 -1 916 917 950 -1 917 951 950 -1 918 920 921 -1 918 921 919 -1 922 923 938 -1 922 932 933 -1 922 933 923 -1 923 939 938 -1 924 925 928 -1 925 929 928 -1 926 927 930 -1 927 931 930 -1 932 956 957 -1 932 957 933 -1 934 948 949 -1 934 949 935 -1 936 950 951 -1 936 951 937 -1 938 939 960 -1 939 961 960 -1 940 941 942 -1 940 1004 1005 -1 940 1005 941 -1 941 943 942 -1 941 963 943 -1 941 1005 963 -1 942 943 962 -1 943 963 962 -1 944 945 946 -1 944 964 965 -1 944 965 945 -1 945 947 946 -1 945 965 947 -1 946 947 998 -1 947 965 999 -1 947 999 998 -1 952 954 955 -1 952 955 953 -1 954 1040 1041 -1 954 1041 955 -1 955 1041 959 -1 956 1000 1001 -1 956 1001 957 -1 957 1001 983 -1 958 959 1032 -1 959 1033 1032 -1 959 1041 1033 -1 960 961 1002 -1 961 989 1003 -1 961 1003 1002 -1 962 963 964 -1 963 965 964 -1 963 985 987 -1 963 987 965 -1 963 1005 985 -1 965 987 999 -1 966 967 968 -1 966 992 993 -1 966 993 967 -1 967 969 968 -1 967 993 969 -1 968 969 1042 -1 969 993 1043 -1 969 1043 1042 -1 970 971 972 -1 970 996 997 -1 970 997 971 -1 971 973 972 -1 971 997 973 -1 972 973 1044 -1 973 997 1045 -1 973 1045 1044 -1 974 975 976 -1 974 1050 1051 -1 974 1051 975 -1 975 977 976 -1 975 991 977 -1 975 1013 991 -1 975 1051 1013 -1 976 977 990 -1 977 991 990 -1 978 979 980 -1 978 1054 1055 -1 978 1055 979 -1 979 981 980 -1 979 995 981 -1 979 1021 995 -1 979 1055 1021 -1 980 981 994 -1 981 995 994 -1 982 983 1070 -1 983 1001 1071 -1 983 1071 1070 -1 984 985 1006 -1 984 986 987 -1 984 987 985 -1 985 1005 1007 -1 985 1007 1006 -1 986 1130 1131 -1 986 1131 987 -1 987 1127 999 -1 987 1131 1145 -1 987 1145 1127 -1 988 1066 1067 -1 988 1067 989 -1 989 1067 1003 -1 990 991 992 -1 991 993 992 -1 991 1013 1015 -1 991 1015 1017 -1 991 1017 993 -1 993 1017 1019 -1 993 1019 1043 -1 994 995 996 -1 995 997 996 -1 995 1021 1023 -1 995 1023 1025 -1 995 1025 997 -1 997 1025 1027 -1 997 1027 1045 -1 998 999 1126 -1 999 1127 1126 -1 1000 1072 1073 -1 1000 1073 1001 -1 1001 1073 1071 -1 1002 1003 1068 -1 1003 1067 1069 -1 1003 1069 1068 -1 1004 1006 1007 -1 1004 1007 1005 -1 1008 1009 1010 -1 1008 1110 1111 -1 1008 1111 1009 -1 1009 1011 1010 -1 1009 1039 1011 -1 1009 1111 1039 -1 1010 1011 1038 -1 1011 1039 1038 -1 1012 1013 1052 -1 1012 1014 1015 -1 1012 1015 1013 -1 1013 1051 1053 -1 1013 1053 1052 -1 1014 1046 1047 -1 1014 1047 1015 -1 1015 1035 1017 -1 1015 1047 1035 -1 1016 1017 1034 -1 1016 1018 1019 -1 1016 1019 1017 -1 1017 1035 1034 -1 1018 1028 1029 -1 1018 1029 1019 -1 1019 1029 1043 -1 1020 1021 1056 -1 1020 1022 1023 -1 1020 1023 1021 -1 1021 1055 1057 -1 1021 1057 1056 -1 1022 1048 1049 -1 1022 1049 1023 -1 1023 1037 1025 -1 1023 1049 1037 -1 1024 1025 1036 -1 1024 1026 1027 -1 1024 1027 1025 -1 1025 1037 1036 -1 1026 1030 1031 -1 1026 1031 1027 -1 1027 1031 1045 -1 1028 1062 1063 -1 1028 1063 1029 -1 1029 1063 1043 -1 1030 1064 1065 -1 1030 1065 1031 -1 1031 1065 1045 -1 1032 1033 1116 -1 1033 1041 1075 -1 1033 1075 1077 -1 1033 1077 1117 -1 1033 1117 1116 -1 1034 1035 1058 -1 1035 1047 1059 -1 1035 1059 1058 -1 1036 1037 1060 -1 1037 1049 1061 -1 1037 1061 1060 -1 1038 1039 1040 -1 1039 1041 1040 -1 1039 1075 1041 -1 1039 1111 1075 -1 1042 1043 1122 -1 1043 1063 1123 -1 1043 1123 1122 -1 1044 1045 1124 -1 1045 1065 1125 -1 1045 1125 1124 -1 1046 1082 1083 -1 1046 1083 1047 -1 1047 1083 1059 -1 1048 1084 1085 -1 1048 1085 1049 -1 1049 1085 1061 -1 1050 1052 1053 -1 1050 1053 1051 -1 1054 1056 1057 -1 1054 1057 1055 -1 1058 1059 1078 -1 1059 1079 1078 -1 1059 1083 1079 -1 1060 1061 1080 -1 1061 1081 1080 -1 1061 1085 1081 -1 1062 1086 1087 -1 1062 1087 1063 -1 1063 1087 1123 -1 1064 1088 1089 -1 1064 1089 1065 -1 1065 1089 1125 -1 1066 1150 1151 -1 1066 1151 1067 -1 1067 1109 1069 -1 1067 1151 1109 -1 1068 1069 1108 -1 1069 1109 1108 -1 1070 1071 1148 -1 1071 1073 1107 -1 1071 1107 1149 -1 1071 1149 1148 -1 1072 1106 1107 -1 1072 1107 1073 -1 1074 1075 1112 -1 1074 1076 1075 -1 1075 1076 1077 -1 1075 1111 1113 -1 1075 1113 1112 -1 1076 1114 1115 -1 1076 1115 1077 -1 1077 1115 1117 -1 1078 1079 1094 -1 1079 1083 1119 -1 1079 1095 1094 -1 1079 1119 1095 -1 1080 1081 1096 -1 1081 1085 1121 -1 1081 1097 1096 -1 1081 1121 1097 -1 1082 1118 1119 -1 1082 1119 1083 -1 1084 1120 1121 -1 1084 1121 1085 -1 1086 1098 1099 -1 1086 1099 1087 -1 1087 1099 1123 -1 1088 1100 1101 -1 1088 1101 1089 -1 1089 1101 1125 -1 1090 1091 1092 -1 1090 1128 1129 -1 1090 1129 1091 -1 1091 1093 1092 -1 1091 1129 1093 -1 1092 1093 1174 -1 1093 1129 1147 -1 1093 1147 1175 -1 1093 1175 1174 -1 1094 1095 1102 -1 1095 1103 1102 -1 1095 1119 1133 -1 1095 1133 1103 -1 1096 1097 1104 -1 1097 1105 1104 -1 1097 1121 1135 -1 1097 1135 1105 -1 1098 1102 1103 -1 1098 1103 1099 -1 1099 1103 1139 -1 1099 1139 1123 -1 1100 1104 1105 -1 1100 1105 1101 -1 1101 1105 1141 -1 1101 1141 1125 -1 1103 1133 1139 -1 1105 1135 1141 -1 1106 1136 1137 -1 1106 1137 1107 -1 1107 1137 1149 -1 1108 1109 1142 -1 1109 1143 1142 -1 1109 1151 1143 -1 1110 1112 1113 -1 1110 1113 1111 -1 1114 1116 1117 -1 1114 1117 1115 -1 1118 1132 1133 -1 1118 1133 1119 -1 1120 1134 1135 -1 1120 1135 1121 -1 1122 1123 1138 -1 1123 1139 1138 -1 1124 1125 1140 -1 1125 1141 1140 -1 1126 1127 1128 -1 1127 1129 1128 -1 1127 1145 1147 -1 1127 1147 1129 -1 1130 1144 1145 -1 1130 1145 1131 -1 1132 1138 1139 -1 1132 1139 1133 -1 1134 1140 1141 -1 1134 1141 1135 -1 1136 1168 1169 -1 1136 1169 1137 -1 1137 1169 1149 -1 1142 1143 1170 -1 1143 1151 1171 -1 1143 1171 1170 -1 1144 1146 1147 -1 1144 1147 1145 -1 1146 1172 1173 -1 1146 1173 1147 -1 1147 1173 1175 -1 1148 1149 1208 -1 1149 1169 1209 -1 1149 1209 1208 -1 1150 1216 1217 -1 1150 1217 1151 -1 1151 1217 1171 -1 1152 1153 1154 -1 1152 1228 1229 -1 1152 1229 1153 -1 1153 1155 1154 -1 1153 1187 1155 -1 1153 1229 1187 -1 1154 1155 1186 -1 1155 1187 1186 -1 1156 1157 1158 -1 1156 1188 1189 -1 1156 1189 1157 -1 1157 1159 1158 -1 1157 1189 1159 -1 1158 1159 1220 -1 1159 1189 1221 -1 1159 1221 1220 -1 1160 1161 1162 -1 1160 1232 1233 -1 1160 1233 1161 -1 1161 1163 1162 -1 1161 1191 1163 -1 1161 1233 1191 -1 1162 1163 1190 -1 1163 1191 1190 -1 1164 1165 1166 -1 1164 1192 1193 -1 1164 1193 1165 -1 1165 1167 1166 -1 1165 1193 1167 -1 1166 1167 1222 -1 1167 1193 1223 -1 1167 1223 1222 -1 1168 1176 1177 -1 1168 1177 1169 -1 1169 1177 1209 -1 1170 1171 1194 -1 1171 1195 1194 -1 1171 1217 1195 -1 1172 1174 1175 -1 1172 1175 1173 -1 1176 1196 1197 -1 1176 1197 1177 -1 1177 1197 1211 -1 1177 1211 1209 -1 1178 1179 1180 -1 1178 1238 1239 -1 1178 1239 1179 -1 1179 1181 1180 -1 1179 1213 1181 -1 1179 1239 1213 -1 1180 1181 1212 -1 1181 1213 1212 -1 1182 1183 1184 -1 1182 1214 1215 -1 1182 1215 1183 -1 1183 1185 1184 -1 1183 1215 1185 -1 1184 1185 1236 -1 1185 1215 1237 -1 1185 1237 1236 -1 1186 1187 1189 -1 1186 1189 1188 -1 1187 1201 1203 -1 1187 1203 1189 -1 1187 1229 1201 -1 1189 1203 1221 -1 1190 1191 1193 -1 1190 1193 1192 -1 1191 1205 1207 -1 1191 1207 1193 -1 1191 1233 1205 -1 1193 1207 1223 -1 1194 1195 1198 -1 1195 1199 1198 -1 1195 1217 1219 -1 1195 1219 1199 -1 1196 1210 1211 -1 1196 1211 1197 -1 1198 1199 1218 -1 1199 1219 1218 -1 1200 1201 1230 -1 1200 1202 1203 -1 1200 1203 1201 -1 1201 1229 1231 -1 1201 1231 1230 -1 1202 1286 1287 -1 1202 1287 1203 -1 1203 1279 1221 -1 1203 1287 1301 -1 1203 1301 1279 -1 1204 1205 1234 -1 1204 1206 1207 -1 1204 1207 1205 -1 1205 1233 1235 -1 1205 1235 1234 -1 1206 1288 1289 -1 1206 1289 1207 -1 1207 1283 1223 -1 1207 1289 1305 -1 1207 1305 1283 -1 1208 1209 1210 -1 1209 1211 1210 -1 1212 1213 1214 -1 1213 1215 1214 -1 1213 1225 1227 -1 1213 1227 1215 -1 1213 1239 1225 -1 1215 1227 1237 -1 1216 1218 1219 -1 1216 1219 1217 -1 1220 1221 1278 -1 1221 1279 1278 -1 1222 1223 1282 -1 1223 1283 1282 -1 1224 1225 1240 -1 1224 1226 1227 -1 1224 1227 1225 -1 1225 1239 1241 -1 1225 1241 1240 -1 1226 1316 1317 -1 1226 1317 1227 -1 1227 1313 1237 -1 1227 1317 1321 -1 1227 1321 1313 -1 1228 1230 1231 -1 1228 1231 1229 -1 1232 1234 1235 -1 1232 1235 1233 -1 1236 1237 1312 -1 1237 1313 1312 -1 1238 1240 1241 -1 1238 1241 1239 -1 1242 1243 1250 -1 1242 1244 1243 -1 1243 1244 1245 -1 1243 1245 1263 -1 1243 1251 1250 -1 1243 1263 1251 -1 1244 1270 1271 -1 1244 1271 1245 -1 1245 1269 1263 -1 1245 1271 1269 -1 1246 1247 1248 -1 1246 1260 1261 -1 1246 1261 1247 -1 1247 1249 1248 -1 1247 1261 1267 -1 1247 1267 1249 -1 1248 1249 1264 -1 1249 1265 1264 -1 1249 1267 1265 -1 1250 1251 1262 -1 1251 1263 1262 -1 1252 1253 1254 -1 1252 1280 1281 -1 1252 1281 1253 -1 1253 1255 1254 -1 1253 1281 1255 -1 1254 1255 1326 -1 1255 1281 1303 -1 1255 1303 1327 -1 1255 1327 1326 -1 1256 1257 1258 -1 1256 1284 1285 -1 1256 1285 1257 -1 1257 1259 1258 -1 1257 1285 1259 -1 1258 1259 1330 -1 1259 1285 1307 -1 1259 1307 1331 -1 1259 1331 1330 -1 1260 1266 1267 -1 1260 1267 1261 -1 1262 1263 1268 -1 1263 1269 1268 -1 1264 1265 1290 -1 1265 1267 1273 -1 1265 1273 1291 -1 1265 1291 1290 -1 1266 1272 1273 -1 1266 1273 1267 -1 1268 1269 1292 -1 1269 1271 1293 -1 1269 1293 1292 -1 1270 1338 1339 -1 1270 1339 1271 -1 1271 1311 1293 -1 1271 1339 1311 -1 1272 1298 1299 -1 1272 1299 1273 -1 1273 1299 1291 -1 1274 1275 1276 -1 1274 1314 1315 -1 1274 1315 1275 -1 1275 1277 1276 -1 1275 1315 1277 -1 1276 1277 1346 -1 1277 1315 1323 -1 1277 1323 1347 -1 1277 1347 1346 -1 1278 1279 1280 -1 1279 1281 1280 -1 1279 1301 1303 -1 1279 1303 1281 -1 1282 1283 1284 -1 1283 1285 1284 -1 1283 1305 1307 -1 1283 1307 1285 -1 1286 1300 1301 -1 1286 1301 1287 -1 1288 1304 1305 -1 1288 1305 1289 -1 1290 1291 1308 -1 1291 1299 1309 -1 1291 1309 1308 -1 1292 1293 1310 -1 1293 1311 1310 -1 1294 1295 1296 -1 1294 1340 1341 -1 1294 1341 1295 -1 1295 1297 1296 -1 1295 1341 1297 -1 1296 1297 1342 -1 1297 1341 1343 -1 1297 1343 1342 -1 1298 1318 1319 -1 1298 1319 1299 -1 1299 1319 1309 -1 1300 1302 1303 -1 1300 1303 1301 -1 1302 1324 1325 -1 1302 1325 1303 -1 1303 1325 1327 -1 1304 1306 1307 -1 1304 1307 1305 -1 1306 1328 1329 -1 1306 1329 1307 -1 1307 1329 1331 -1 1308 1309 1336 -1 1309 1319 1337 -1 1309 1337 1336 -1 1310 1311 1332 -1 1311 1333 1332 -1 1311 1339 1333 -1 1312 1313 1314 -1 1313 1315 1314 -1 1313 1321 1323 -1 1313 1323 1315 -1 1316 1320 1321 -1 1316 1321 1317 -1 1318 1334 1335 -1 1318 1335 1319 -1 1319 1335 1337 -1 1320 1322 1323 -1 1320 1323 1321 -1 1322 1344 1345 -1 1322 1345 1323 -1 1323 1345 1347 -1 1324 1326 1327 -1 1324 1327 1325 -1 1328 1330 1331 -1 1328 1331 1329 -1 1332 1333 1352 -1 1333 1339 1353 -1 1333 1353 1352 -1 1334 1348 1349 -1 1334 1349 1335 -1 1335 1349 1337 -1 1336 1337 1400 -1 1337 1349 1401 -1 1337 1401 1400 -1 1338 1370 1371 -1 1338 1371 1339 -1 1339 1371 1353 -1 1340 1356 1357 -1 1340 1357 1341 -1 1341 1351 1343 -1 1341 1355 1351 -1 1341 1357 1355 -1 1342 1343 1350 -1 1343 1351 1350 -1 1344 1346 1347 -1 1344 1347 1345 -1 1348 1366 1367 -1 1348 1367 1349 -1 1349 1367 1401 -1 1350 1351 1368 -1 1351 1355 1387 -1 1351 1369 1368 -1 1351 1387 1369 -1 1352 1353 1376 -1 1353 1371 1377 -1 1353 1377 1376 -1 1354 1355 1392 -1 1354 1386 1387 -1 1354 1387 1355 -1 1355 1357 1393 -1 1355 1393 1392 -1 1356 1378 1379 -1 1356 1379 1357 -1 1357 1379 1393 -1 1358 1359 1360 -1 1358 1408 1409 -1 1358 1409 1359 -1 1359 1361 1360 -1 1359 1383 1361 -1 1359 1409 1383 -1 1360 1361 1382 -1 1361 1383 1382 -1 1362 1363 1364 -1 1362 1384 1385 -1 1362 1385 1363 -1 1363 1365 1364 -1 1363 1385 1365 -1 1364 1365 1406 -1 1365 1385 1407 -1 1365 1407 1406 -1 1366 1372 1373 -1 1366 1373 1367 -1 1367 1373 1401 -1 1368 1369 1374 -1 1369 1375 1374 -1 1369 1387 1403 -1 1369 1403 1375 -1 1370 1404 1405 -1 1370 1405 1371 -1 1371 1405 1377 -1 1372 1380 1381 -1 1372 1381 1373 -1 1373 1381 1417 -1 1373 1417 1401 -1 1374 1375 1380 -1 1375 1381 1380 -1 1375 1403 1415 -1 1375 1415 1381 -1 1376 1377 1388 -1 1377 1389 1388 -1 1377 1405 1389 -1 1378 1390 1391 -1 1378 1391 1379 -1 1379 1391 1413 -1 1379 1413 1393 -1 1381 1415 1417 -1 1382 1383 1384 -1 1383 1385 1384 -1 1383 1395 1397 -1 1383 1397 1385 -1 1383 1409 1395 -1 1385 1397 1407 -1 1386 1402 1403 -1 1386 1403 1387 -1 1388 1389 1398 -1 1389 1399 1398 -1 1389 1405 1419 -1 1389 1419 1399 -1 1390 1398 1399 -1 1390 1399 1391 -1 1391 1399 1421 -1 1391 1421 1413 -1 1392 1393 1412 -1 1393 1413 1412 -1 1394 1395 1410 -1 1394 1396 1397 -1 1394 1397 1395 -1 1395 1409 1411 -1 1395 1411 1410 -1 1396 1440 1441 -1 1396 1441 1397 -1 1397 1437 1407 -1 1397 1441 1449 -1 1397 1449 1437 -1 1399 1419 1423 -1 1399 1423 1421 -1 1400 1401 1416 -1 1401 1417 1416 -1 1402 1414 1415 -1 1402 1415 1403 -1 1404 1418 1419 -1 1404 1419 1405 -1 1406 1407 1436 -1 1407 1437 1436 -1 1408 1410 1411 -1 1408 1411 1409 -1 1412 1413 1420 -1 1413 1421 1420 -1 1414 1416 1417 -1 1414 1417 1415 -1 1418 1422 1423 -1 1418 1423 1419 -1 1420 1421 1422 -1 1421 1423 1422 -1 1424 1425 1426 -1 1424 1438 1439 -1 1424 1439 1425 -1 1425 1427 1426 -1 1425 1439 1427 -1 1426 1427 1464 -1 1427 1439 1451 -1 1427 1451 1465 -1 1427 1465 1464 -1 1428 1429 1430 -1 1428 1510 1511 -1 1428 1511 1429 -1 1429 1431 1430 -1 1429 1445 1431 -1 1429 1511 1445 -1 1430 1431 1452 -1 1431 1445 1453 -1 1431 1453 1452 -1 1432 1433 1434 -1 1432 1442 1443 -1 1432 1443 1433 -1 1433 1435 1434 -1 1433 1443 1447 -1 1433 1447 1435 -1 1434 1435 1456 -1 1435 1447 1455 -1 1435 1455 1457 -1 1435 1457 1456 -1 1436 1437 1438 -1 1437 1439 1438 -1 1437 1449 1451 -1 1437 1451 1439 -1 1440 1448 1449 -1 1440 1449 1441 -1 1442 1446 1447 -1 1442 1447 1443 -1 1444 1445 1512 -1 1444 1458 1459 -1 1444 1459 1445 -1 1445 1459 1453 -1 1445 1511 1513 -1 1445 1513 1512 -1 1446 1454 1455 -1 1446 1455 1447 -1 1448 1450 1451 -1 1448 1451 1449 -1 1450 1462 1463 -1 1450 1463 1451 -1 1451 1463 1465 -1 1452 1453 1470 -1 1453 1459 1469 -1 1453 1469 1471 -1 1453 1471 1470 -1 1454 1460 1461 -1 1454 1461 1455 -1 1455 1461 1457 -1 1456 1457 1474 -1 1457 1461 1467 -1 1457 1467 1475 -1 1457 1475 1474 -1 1458 1468 1469 -1 1458 1469 1459 -1 1460 1466 1467 -1 1460 1467 1461 -1 1462 1464 1465 -1 1462 1465 1463 -1 1466 1472 1473 -1 1466 1473 1467 -1 1467 1473 1475 -1 1468 1480 1481 -1 1468 1481 1469 -1 1469 1481 1471 -1 1470 1471 1476 -1 1471 1477 1476 -1 1471 1481 1477 -1 1472 1478 1479 -1 1472 1479 1473 -1 1473 1479 1475 -1 1474 1475 1484 -1 1475 1479 1485 -1 1475 1485 1484 -1 1476 1477 1482 -1 1477 1481 1497 -1 1477 1483 1482 -1 1477 1497 1483 -1 1478 1486 1487 -1 1478 1487 1479 -1 1479 1487 1485 -1 1480 1496 1497 -1 1480 1497 1481 -1 1482 1483 1488 -1 1483 1489 1488 -1 1483 1497 1501 -1 1483 1501 1489 -1 1484 1485 1498 -1 1485 1487 1499 -1 1485 1499 1498 -1 1486 1490 1491 -1 1486 1491 1487 -1 1487 1491 1499 -1 1488 1489 1492 -1 1489 1493 1492 -1 1489 1501 1503 -1 1489 1503 1493 -1 1490 1494 1495 -1 1490 1495 1491 -1 1491 1495 1505 -1 1491 1505 1499 -1 1492 1493 1494 -1 1493 1495 1494 -1 1493 1503 1507 -1 1493 1507 1495 -1 1495 1507 1509 -1 1495 1509 1505 -1 1496 1500 1501 -1 1496 1501 1497 -1 1498 1499 1504 -1 1499 1505 1504 -1 1500 1502 1503 -1 1500 1503 1501 -1 1502 1506 1507 -1 1502 1507 1503 -1 1504 1505 1508 -1 1505 1509 1508 -1 1506 1508 1509 -1 1506 1509 1507 -1 1510 1512 1513 -1 1510 1513 1511 -1 "
						                >
							<Coordinate USE="coords_ME_OpenSCAD_Model" />
						</IndexedFaceSet>
					</Shape>
				</Group>
			</Transform>
		</Transform>
	</Scene>
</X3D>