<?xml version="1.0" encoding="UTF-8"?>
<!DOCTYPE X3D PUBLIC "ISO//Web3D//DTD X3D 3.0//EN" "http://www.web3d.org/specifications/x3d-3.0.dtd">
<X3D version="3.0" profile="Immersive" xmlns:xsd="http://www.w3.org/2001/XMLSchema-instance" xsd:noNamespaceSchemaLocation="http://www.web3d.org/specifications/x3d-3.0.xsd">
	<head>
		<meta name="filename" content="C04-00174B.x3d" />
		<meta name="created" content="2026-02-22 02:09:03" />
		<meta name="generator" content="Blender 5.0.1" />
		<meta name="translator" content="Web3D X3D/VRML2 format v2.5.1" />
	</head>
	<Scene>
		<NavigationInfo headlight="true"
		                visibilityLimit="0.0"
		                type='"EXAMINE", "ANY"'
		                avatarSize="0.25, 1.75, 0.75"
		                />
		<Transform DEF="OpenSCAD_Model_TRANSFORM"
		           translation="0.000000 0.000000 0.000000"
		           scale="0.001000 0.001000 0.001000"
		           rotation="-1.000000 0.000000 0.000000 1.570796"
		           >
			<Transform DEF="OpenSCAD_Model_ifs_TRANSFORM"
			           translation="0.000000 0.000000 0.000000"
			           scale="1.000000 1.000000 1.000000"
			           rotation="0.000000 1.000000 0.000000 0.000000"
			           >
				<Group DEF="group_ME_OpenSCAD_Model">
					<Shape>
						<Appearance>
							<Material DEF="MA_Color_2"
							          diffuseColor="1.000 1.000 1.000"
							          specularColor="0.401 0.401 0.401"
							          emissiveColor="0.000 0.000 0.000"
							          ambientIntensity="0.000"
							          shininess="0.500"
							          transparency="1.000"
							          />
						</Appearance>
						<IndexedFaceSet solid="false"
						                coordIndex="0 1 3 -1 0 2 8 -1 0 3 2 -1 0 8 20 -1 0 20 1 -1 1 9 3 -1 1 20 21 -1 1 21 31 -1 1 31 9 -1 2 3 9 -1 2 9 8 -1 4 5 7 -1 4 6 10 -1 4 7 6 -1 4 10 5 -1 5 10 11 -1 5 11 7 -1 6 7 17 -1 6 16 10 -1 6 17 16 -1 7 11 17 -1 8 9 11 -1 8 10 14 -1 8 11 10 -1 8 12 22 -1 8 14 12 -1 8 22 20 -1 9 13 15 -1 9 15 11 -1 9 31 13 -1 10 16 14 -1 11 15 17 -1 12 13 33 -1 12 14 13 -1 12 23 22 -1 12 33 23 -1 13 14 15 -1 13 31 33 -1 14 16 26 -1 14 24 25 -1 14 25 15 -1 14 26 24 -1 15 25 41 -1 15 41 43 -1 15 43 51 -1 15 51 17 -1 16 17 27 -1 16 27 26 -1 17 50 27 -1 17 51 50 -1 21 30 31 -1 23 33 32 -1 25 40 41 -1 30 32 33 -1 30 33 31 -1 34 35 36 -1 34 38 39 -1 34 39 35 -1 35 37 36 -1 35 39 37 -1 36 37 54 -1 37 39 45 -1 37 45 55 -1 37 55 54 -1 38 60 61 -1 38 61 39 -1 39 61 45 -1 40 42 43 -1 40 43 41 -1 42 108 109 -1 42 109 43 -1 43 109 51 -1 44 45 70 -1 44 52 53 -1 44 53 45 -1 45 53 55 -1 45 61 71 -1 45 71 70 -1 46 47 48 -1 46 88 89 -1 46 89 47 -1 47 49 48 -1 47 59 49 -1 47 89 59 -1 48 49 58 -1 49 59 58 -1 50 51 104 -1 51 105 104 -1 51 109 105 -1 52 54 55 -1 52 55 53 -1 56 57 64 -1 56 62 63 -1 56 63 57 -1 57 63 123 -1 57 65 64 -1 57 69 65 -1 57 79 69 -1 57 95 79 -1 57 99 95 -1 57 111 99 -1 57 119 111 -1 57 123 119 -1 58 59 60 -1 59 61 60 -1 59 73 61 -1 59 89 73 -1 61 73 75 -1 61 75 71 -1 62 66 67 -1 62 67 63 -1 63 67 123 -1 64 65 68 -1 65 69 68 -1 66 76 77 -1 66 77 67 -1 67 77 123 -1 68 69 78 -1 69 79 78 -1 70 71 96 -1 71 75 97 -1 71 97 96 -1 72 73 90 -1 72 74 75 -1 72 75 73 -1 73 89 91 -1 73 91 90 -1 74 102 103 -1 74 103 75 -1 75 103 97 -1 76 92 93 -1 76 93 77 -1 77 93 123 -1 78 79 94 -1 79 95 94 -1 80 81 82 -1 80 96 97 -1 80 97 81 -1 81 83 82 -1 81 97 83 -1 82 83 116 -1 83 97 103 -1 83 103 117 -1 83 117 116 -1 84 85 86 -1 84 172 173 -1 84 173 85 -1 85 87 86 -1 85 107 87 -1 85 173 107 -1 86 87 106 -1 87 107 106 -1 88 90 91 -1 88 91 89 -1 92 100 101 -1 92 101 93 -1 93 101 113 -1 93 113 121 -1 93 121 123 -1 94 95 98 -1 95 99 98 -1 98 99 110 -1 99 111 110 -1 100 112 113 -1 100 113 101 -1 102 114 115 -1 102 115 103 -1 103 115 117 -1 104 105 178 -1 105 109 131 -1 105 131 133 -1 105 133 179 -1 105 179 178 -1 106 107 108 -1 107 109 108 -1 107 131 109 -1 107 173 131 -1 110 111 118 -1 111 119 118 -1 112 120 121 -1 112 121 113 -1 114 116 117 -1 114 117 115 -1 118 119 122 -1 119 123 122 -1 120 122 123 -1 120 123 121 -1 124 125 126 -1 124 128 129 -1 124 129 125 -1 125 127 126 -1 125 129 127 -1 126 127 190 -1 127 129 147 -1 127 147 191 -1 127 191 190 -1 128 198 199 -1 128 199 129 -1 129 199 147 -1 130 131 174 -1 130 132 131 -1 131 132 133 -1 131 173 175 -1 131 175 174 -1 132 176 177 -1 132 177 133 -1 133 177 179 -1 134 135 138 -1 134 142 143 -1 134 143 135 -1 135 139 138 -1 135 143 161 -1 135 161 139 -1 136 137 140 -1 136 144 145 -1 136 145 137 -1 137 141 140 -1 137 145 163 -1 137 163 141 -1 138 139 148 -1 139 149 148 -1 139 161 165 -1 139 165 149 -1 140 141 150 -1 141 151 150 -1 141 163 167 -1 141 167 151 -1 142 156 157 -1 142 157 143 -1 143 157 169 -1 143 169 161 -1 144 158 159 -1 144 159 145 -1 145 159 171 -1 145 171 163 -1 146 147 212 -1 146 188 189 -1 146 189 147 -1 147 189 191 -1 147 199 213 -1 147 213 212 -1 148 149 192 -1 149 165 181 -1 149 181 193 -1 149 193 192 -1 150 151 194 -1 151 167 183 -1 151 183 195 -1 151 195 194 -1 152 153 154 -1 152 242 243 -1 152 243 153 -1 153 155 154 -1 153 197 155 -1 153 243 197 -1 154 155 196 -1 155 197 196 -1 156 200 201 -1 156 201 157 -1 157 185 169 -1 157 201 185 -1 158 202 203 -1 158 203 159 -1 159 187 171 -1 159 203 187 -1 160 161 168 -1 160 164 165 -1 160 165 161 -1 161 169 168 -1 162 163 170 -1 162 166 167 -1 162 167 163 -1 163 171 170 -1 164 180 181 -1 164 181 165 -1 166 182 183 -1 166 183 167 -1 168 169 184 -1 169 185 184 -1 170 171 186 -1 171 187 186 -1 172 174 175 -1 172 175 173 -1 176 178 179 -1 176 179 177 -1 180 204 205 -1 180 205 181 -1 181 205 193 -1 182 206 207 -1 182 207 183 -1 183 207 195 -1 184 185 208 -1 185 201 209 -1 185 209 208 -1 186 187 210 -1 187 203 211 -1 187 211 210 -1 188 190 191 -1 188 191 189 -1 192 193 226 -1 193 205 227 -1 193 227 226 -1 194 195 228 -1 195 207 229 -1 195 229 228 -1 196 197 198 -1 197 199 198 -1 197 215 199 -1 197 243 215 -1 199 215 217 -1 199 217 213 -1 200 218 219 -1 200 219 201 -1 201 219 209 -1 202 220 221 -1 202 221 203 -1 203 221 211 -1 204 230 231 -1 204 231 205 -1 205 231 227 -1 206 232 233 -1 206 233 207 -1 207 233 229 -1 208 209 222 -1 209 219 223 -1 209 223 222 -1 210 211 224 -1 211 221 225 -1 211 225 224 -1 212 213 258 -1 213 217 259 -1 213 259 258 -1 214 215 244 -1 214 216 217 -1 214 217 215 -1 215 243 245 -1 215 245 244 -1 216 276 277 -1 216 277 217 -1 217 277 259 -1 218 264 265 -1 218 265 219 -1 219 247 223 -1 219 265 247 -1 220 266 267 -1 220 267 221 -1 221 249 225 -1 221 267 249 -1 222 223 246 -1 223 247 246 -1 224 225 248 -1 225 249 248 -1 226 227 260 -1 227 231 239 -1 227 239 261 -1 227 261 260 -1 228 229 262 -1 229 233 241 -1 229 241 263 -1 229 263 262 -1 230 238 239 -1 230 239 231 -1 232 240 241 -1 232 241 233 -1 234 235 236 -1 234 258 259 -1 234 259 235 -1 235 237 236 -1 235 259 237 -1 236 237 312 -1 237 259 277 -1 237 277 313 -1 237 313 312 -1 238 250 251 -1 238 251 239 -1 239 251 261 -1 240 252 253 -1 240 253 241 -1 241 253 263 -1 242 244 245 -1 242 245 243 -1 246 247 254 -1 247 255 254 -1 247 265 255 -1 248 249 256 -1 249 257 256 -1 249 267 257 -1 250 268 269 -1 250 269 251 -1 251 269 261 -1 252 270 271 -1 252 271 253 -1 253 271 263 -1 254 255 272 -1 255 265 273 -1 255 273 272 -1 256 257 274 -1 257 267 275 -1 257 275 274 -1 260 261 294 -1 261 269 295 -1 261 295 294 -1 262 263 296 -1 263 271 297 -1 263 297 296 -1 264 302 303 -1 264 303 265 -1 265 303 273 -1 266 304 305 -1 266 305 267 -1 267 305 275 -1 268 278 279 -1 268 279 269 -1 269 279 295 -1 270 280 281 -1 270 281 271 -1 271 281 297 -1 272 273 282 -1 273 283 282 -1 273 303 283 -1 274 275 284 -1 275 285 284 -1 275 305 285 -1 276 310 311 -1 276 311 277 -1 277 311 313 -1 278 286 287 -1 278 287 279 -1 279 287 299 -1 279 299 295 -1 280 288 289 -1 280 289 281 -1 281 289 301 -1 281 301 297 -1 282 283 290 -1 283 291 290 -1 283 303 307 -1 283 307 291 -1 284 285 292 -1 285 293 292 -1 285 305 309 -1 285 309 293 -1 286 298 299 -1 286 299 287 -1 288 300 301 -1 288 301 289 -1 290 291 306 -1 291 307 306 -1 292 293 308 -1 293 309 308 -1 294 295 298 -1 295 299 298 -1 296 297 300 -1 297 301 300 -1 302 306 307 -1 302 307 303 -1 304 308 309 -1 304 309 305 -1 310 312 313 -1 310 313 311 -1 314 315 316 -1 314 326 327 -1 314 327 315 -1 315 317 316 -1 315 327 317 -1 316 317 382 -1 317 327 353 -1 317 353 383 -1 317 383 382 -1 318 319 320 -1 318 346 347 -1 318 347 319 -1 319 321 320 -1 319 347 321 -1 320 321 396 -1 321 347 397 -1 321 397 396 -1 322 323 324 -1 322 350 351 -1 322 351 323 -1 323 325 324 -1 323 351 325 -1 324 325 398 -1 325 351 399 -1 325 399 398 -1 326 384 385 -1 326 385 327 -1 327 385 395 -1 327 395 407 -1 327 407 353 -1 328 329 330 -1 328 408 409 -1 328 409 329 -1 329 331 330 -1 329 345 331 -1 329 363 345 -1 329 409 363 -1 330 331 344 -1 331 345 344 -1 332 333 334 -1 332 412 413 -1 332 413 333 -1 333 335 334 -1 333 349 335 -1 333 371 349 -1 333 413 371 -1 334 335 348 -1 335 349 348 -1 336 337 338 -1 336 360 361 -1 336 361 337 -1 337 339 338 -1 337 361 339 -1 338 339 486 -1 339 361 487 -1 339 487 486 -1 340 341 342 -1 340 500 501 -1 340 501 341 -1 341 343 342 -1 341 359 343 -1 341 433 359 -1 341 501 433 -1 342 343 358 -1 343 359 358 -1 344 345 346 -1 345 347 346 -1 345 363 365 -1 345 365 367 -1 345 367 347 -1 347 367 369 -1 347 369 397 -1 348 349 350 -1 349 351 350 -1 349 371 373 -1 349 373 375 -1 349 375 351 -1 351 375 377 -1 351 377 399 -1 352 353 406 -1 352 380 381 -1 352 381 353 -1 353 381 383 -1 353 407 406 -1 354 355 356 -1 354 428 429 -1 354 429 355 -1 355 357 356 -1 355 379 357 -1 355 429 379 -1 356 357 378 -1 357 379 378 -1 358 359 360 -1 359 361 360 -1 359 433 435 -1 359 435 437 -1 359 437 361 -1 361 437 439 -1 361 439 487 -1 362 363 410 -1 362 364 365 -1 362 365 363 -1 363 409 411 -1 363 411 410 -1 364 402 403 -1 364 403 365 -1 365 391 367 -1 365 403 391 -1 366 367 390 -1 366 368 369 -1 366 369 367 -1 367 391 390 -1 368 386 387 -1 368 387 369 -1 369 387 397 -1 370 371 414 -1 370 372 373 -1 370 373 371 -1 371 413 415 -1 371 415 414 -1 372 404 405 -1 372 405 373 -1 373 393 375 -1 373 405 393 -1 374 375 392 -1 374 376 377 -1 374 377 375 -1 375 393 392 -1 376 388 389 -1 376 389 377 -1 377 389 399 -1 378 379 464 -1 379 401 425 -1 379 425 427 -1 379 427 465 -1 379 429 401 -1 379 465 464 -1 380 382 383 -1 380 383 381 -1 384 394 395 -1 384 395 385 -1 386 420 421 -1 386 421 387 -1 387 421 397 -1 388 422 423 -1 388 423 389 -1 389 423 399 -1 390 391 416 -1 391 403 417 -1 391 417 416 -1 392 393 418 -1 393 405 419 -1 393 419 418 -1 394 466 467 -1 394 467 395 -1 395 467 407 -1 396 397 472 -1 397 421 473 -1 397 473 472 -1 398 399 474 -1 399 423 475 -1 399 475 474 -1 400 401 430 -1 400 424 425 -1 400 425 401 -1 401 429 431 -1 401 431 430 -1 402 444 445 -1 402 445 403 -1 403 445 417 -1 404 446 447 -1 404 447 405 -1 405 447 419 -1 406 407 476 -1 407 467 477 -1 407 477 476 -1 408 410 411 -1 408 411 409 -1 412 414 415 -1 412 415 413 -1 416 417 440 -1 417 441 440 -1 417 445 441 -1 418 419 442 -1 419 443 442 -1 419 447 443 -1 420 448 449 -1 420 449 421 -1 421 449 473 -1 422 450 451 -1 422 451 423 -1 423 451 475 -1 424 530 531 -1 424 531 425 -1 425 531 427 -1 426 427 508 -1 426 482 483 -1 426 483 427 -1 427 483 465 -1 427 509 508 -1 427 531 509 -1 428 430 431 -1 428 431 429 -1 432 433 502 -1 432 434 435 -1 432 435 433 -1 433 501 503 -1 433 503 502 -1 434 492 493 -1 434 493 435 -1 435 481 437 -1 435 493 481 -1 436 437 480 -1 436 438 439 -1 436 439 437 -1 437 481 480 -1 438 478 479 -1 438 479 439 -1 439 479 487 -1 440 441 452 -1 441 445 469 -1 441 453 452 -1 441 469 453 -1 442 443 454 -1 443 447 471 -1 443 455 454 -1 443 471 455 -1 444 468 469 -1 444 469 445 -1 446 470 471 -1 446 471 447 -1 448 456 457 -1 448 457 449 -1 449 457 473 -1 450 458 459 -1 450 459 451 -1 451 459 475 -1 452 453 460 -1 453 461 460 -1 453 469 489 -1 453 489 461 -1 454 455 462 -1 455 463 462 -1 455 471 491 -1 455 491 463 -1 456 460 461 -1 456 461 457 -1 457 461 495 -1 457 495 473 -1 458 462 463 -1 458 463 459 -1 459 463 497 -1 459 497 475 -1 461 489 495 -1 463 491 497 -1 464 465 498 -1 465 483 499 -1 465 499 498 -1 466 532 533 -1 466 533 467 -1 467 533 537 -1 467 537 477 -1 468 488 489 -1 468 489 469 -1 470 490 491 -1 470 491 471 -1 472 473 494 -1 473 495 494 -1 474 475 496 -1 475 497 496 -1 476 477 484 -1 477 485 484 -1 477 537 485 -1 478 528 529 -1 478 529 479 -1 479 529 487 -1 480 481 526 -1 481 493 527 -1 481 527 526 -1 482 508 509 -1 482 509 483 -1 483 509 499 -1 484 485 536 -1 485 537 536 -1 486 487 591 -1 487 529 592 -1 487 592 591 -1 488 494 495 -1 488 495 489 -1 490 496 497 -1 490 497 491 -1 492 551 552 -1 492 552 493 -1 493 552 527 -1 498 499 573 -1 499 509 574 -1 499 574 573 -1 500 502 503 -1 500 503 501 -1 504 505 506 -1 504 593 594 -1 504 594 505 -1 505 507 506 -1 505 539 507 -1 505 594 539 -1 506 507 538 -1 507 539 538 -1 509 531 574 -1 510 511 512 -1 510 581 582 -1 510 582 511 -1 511 513 512 -1 511 541 513 -1 511 582 541 -1 512 513 540 -1 513 541 540 -1 514 515 516 -1 514 542 543 -1 514 543 515 -1 515 517 516 -1 515 543 517 -1 516 517 575 -1 517 543 576 -1 517 576 575 -1 518 519 520 -1 518 585 586 -1 518 586 519 -1 519 521 520 -1 519 545 521 -1 519 586 545 -1 520 521 544 -1 521 545 544 -1 522 523 524 -1 522 547 548 -1 522 548 523 -1 523 525 524 -1 523 548 525 -1 524 525 577 -1 525 548 578 -1 525 578 577 -1 526 527 549 -1 527 550 549 -1 527 552 550 -1 528 553 554 -1 528 554 529 -1 529 554 592 -1 530 538 539 -1 530 539 531 -1 531 539 574 -1 532 534 535 -1 532 535 533 -1 533 535 598 -1 533 598 537 -1 534 597 598 -1 534 598 535 -1 536 537 579 -1 537 580 579 -1 537 598 580 -1 539 594 574 -1 540 541 543 -1 540 543 542 -1 541 560 562 -1 541 562 543 -1 541 582 560 -1 543 562 576 -1 544 545 546 -1 545 548 546 -1 545 564 566 -1 545 566 548 -1 545 586 564 -1 546 548 547 -1 548 566 578 -1 549 550 567 -1 550 552 590 -1 550 568 567 -1 550 590 568 -1 551 589 590 -1 551 590 552 -1 553 569 570 -1 553 570 554 -1 554 570 592 -1 555 556 557 -1 555 579 580 -1 555 580 556 -1 556 558 557 -1 556 580 558 -1 557 558 611 -1 558 580 598 -1 558 598 612 -1 558 612 611 -1 559 560 583 -1 559 561 562 -1 559 562 560 -1 560 582 584 -1 560 584 583 -1 561 659 660 -1 561 660 562 -1 562 652 576 -1 562 660 676 -1 562 676 652 -1 563 564 587 -1 563 565 564 -1 564 565 566 -1 564 586 588 -1 564 588 587 -1 565 661 662 -1 565 662 566 -1 566 656 578 -1 566 662 680 -1 566 680 656 -1 567 568 571 -1 568 572 571 -1 568 590 608 -1 568 608 572 -1 569 571 572 -1 569 572 570 -1 570 572 618 -1 570 618 592 -1 572 608 618 -1 573 574 595 -1 574 594 596 -1 574 596 595 -1 575 576 651 -1 576 652 651 -1 577 578 655 -1 578 656 655 -1 581 583 584 -1 581 584 582 -1 585 587 588 -1 585 588 586 -1 589 607 608 -1 589 608 590 -1 591 592 617 -1 592 618 617 -1 593 595 596 -1 593 596 594 -1 597 609 610 -1 597 610 598 -1 598 610 612 -1 599 600 601 -1 599 621 622 -1 599 622 600 -1 600 602 601 -1 600 622 602 -1 601 602 683 -1 602 622 684 -1 602 684 683 -1 603 604 605 -1 603 667 668 -1 603 668 604 -1 604 606 605 -1 604 620 606 -1 604 634 620 -1 604 668 634 -1 605 606 619 -1 606 620 619 -1 607 617 618 -1 607 618 608 -1 609 611 612 -1 609 612 610 -1 613 614 615 -1 613 623 624 -1 613 624 614 -1 614 616 615 -1 614 624 616 -1 615 616 673 -1 616 624 650 -1 616 650 674 -1 616 674 673 -1 619 620 621 -1 620 622 621 -1 620 634 636 -1 620 636 638 -1 620 638 622 -1 622 638 640 -1 622 640 684 -1 623 687 688 -1 623 688 624 -1 624 688 690 -1 624 690 696 -1 624 696 650 -1 625 626 627 -1 625 653 654 -1 625 654 626 -1 626 628 627 -1 626 654 628 -1 627 628 703 -1 628 654 678 -1 628 678 704 -1 628 704 703 -1 629 630 631 -1 629 657 658 -1 629 658 630 -1 630 632 631 -1 630 658 632 -1 631 632 707 -1 632 658 682 -1 632 682 708 -1 632 708 707 -1 633 634 669 -1 633 635 636 -1 633 636 634 -1 634 668 670 -1 634 670 669 -1 635 685 686 -1 635 686 636 -1 636 666 638 -1 636 686 666 -1 637 638 665 -1 637 639 640 -1 637 640 638 -1 638 666 665 -1 639 663 664 -1 639 664 640 -1 640 664 684 -1 641 642 643 -1 641 801 802 -1 641 802 642 -1 642 644 643 -1 642 692 644 -1 642 802 692 -1 643 644 691 -1 644 692 691 -1 645 646 647 -1 645 693 694 -1 645 694 646 -1 646 648 647 -1 646 694 648 -1 647 648 807 -1 648 694 746 -1 648 746 808 -1 648 808 807 -1 649 650 695 -1 649 671 672 -1 649 672 650 -1 650 672 674 -1 650 696 695 -1 651 652 653 -1 652 654 653 -1 652 676 678 -1 652 678 654 -1 655 656 657 -1 656 658 657 -1 656 680 682 -1 656 682 658 -1 659 675 676 -1 659 676 660 -1 661 679 680 -1 661 680 662 -1 663 697 698 -1 663 698 664 -1 664 698 684 -1 665 666 699 -1 666 686 700 -1 666 700 699 -1 667 669 670 -1 667 670 668 -1 671 673 674 -1 671 674 672 -1 675 677 678 -1 675 678 676 -1 677 701 702 -1 677 702 678 -1 678 702 704 -1 679 681 682 -1 679 682 680 -1 681 705 706 -1 681 706 682 -1 682 706 708 -1 683 684 715 -1 684 698 716 -1 684 716 715 -1 685 739 740 -1 685 740 686 -1 686 710 700 -1 686 740 710 -1 687 689 690 -1 687 690 688 -1 689 747 748 -1 689 748 690 -1 690 748 696 -1 691 692 693 -1 692 694 693 -1 692 744 694 -1 692 802 744 -1 694 744 746 -1 695 696 751 -1 696 748 752 -1 696 752 751 -1 697 713 714 -1 697 714 698 -1 698 714 716 -1 699 700 711 -1 700 710 712 -1 700 712 711 -1 701 703 704 -1 701 704 702 -1 705 707 708 -1 705 708 706 -1 709 710 779 -1 709 727 728 -1 709 728 710 -1 710 728 712 -1 710 740 780 -1 710 780 779 -1 711 712 717 -1 712 718 717 -1 712 728 718 -1 713 719 720 -1 713 720 714 -1 714 720 738 -1 714 738 716 -1 715 716 737 -1 716 738 737 -1 717 718 721 -1 718 722 721 -1 718 728 742 -1 718 742 754 -1 718 754 722 -1 719 721 722 -1 719 722 720 -1 720 722 764 -1 720 750 738 -1 720 764 750 -1 722 754 764 -1 723 724 729 -1 723 733 734 -1 723 734 724 -1 724 730 729 -1 724 734 766 -1 724 766 730 -1 725 726 731 -1 725 735 736 -1 725 736 726 -1 726 732 731 -1 726 736 768 -1 726 768 732 -1 727 741 742 -1 727 742 728 -1 729 730 755 -1 730 756 755 -1 730 766 772 -1 730 772 756 -1 731 732 757 -1 732 758 757 -1 732 768 774 -1 732 774 758 -1 733 759 760 -1 733 760 734 -1 734 760 776 -1 734 776 766 -1 735 761 762 -1 735 762 736 -1 736 762 778 -1 736 778 768 -1 737 738 749 -1 738 750 749 -1 739 797 798 -1 739 798 740 -1 740 798 780 -1 741 753 754 -1 741 754 742 -1 743 744 803 -1 743 745 746 -1 743 746 744 -1 744 802 804 -1 744 804 803 -1 745 805 806 -1 745 806 746 -1 746 806 808 -1 747 825 826 -1 747 826 748 -1 748 826 830 -1 748 830 752 -1 749 750 763 -1 750 764 763 -1 751 752 769 -1 752 770 769 -1 752 830 770 -1 753 763 764 -1 753 764 754 -1 755 756 789 -1 756 772 782 -1 756 782 790 -1 756 790 789 -1 757 758 791 -1 758 774 784 -1 758 784 792 -1 758 792 791 -1 759 793 794 -1 759 794 760 -1 760 786 776 -1 760 794 786 -1 761 795 796 -1 761 796 762 -1 762 788 778 -1 762 796 788 -1 765 766 775 -1 765 771 772 -1 765 772 766 -1 766 776 775 -1 767 768 777 -1 767 773 774 -1 767 774 768 -1 768 778 777 -1 769 770 829 -1 770 830 829 -1 771 781 782 -1 771 782 772 -1 773 783 784 -1 773 784 774 -1 775 776 785 -1 776 786 785 -1 777 778 787 -1 778 788 787 -1 779 780 799 -1 780 798 800 -1 780 800 799 -1 781 809 810 -1 781 810 782 -1 782 810 790 -1 783 811 812 -1 783 812 784 -1 784 812 792 -1 785 786 813 -1 786 794 814 -1 786 814 813 -1 787 788 815 -1 788 796 816 -1 788 816 815 -1 789 790 847 -1 790 810 848 -1 790 848 847 -1 791 792 849 -1 792 812 850 -1 792 850 849 -1 793 839 840 -1 793 840 794 -1 794 840 814 -1 795 841 842 -1 795 842 796 -1 796 842 816 -1 797 799 800 -1 797 800 798 -1 801 803 804 -1 801 804 802 -1 805 807 808 -1 805 808 806 -1 809 851 852 -1 809 852 810 -1 810 852 848 -1 811 853 854 -1 811 854 812 -1 812 854 850 -1 813 814 843 -1 814 840 844 -1 814 844 843 -1 815 816 845 -1 816 842 846 -1 816 846 845 -1 817 818 819 -1 817 893 894 -1 817 894 818 -1 818 820 819 -1 818 832 820 -1 818 894 832 -1 819 820 831 -1 820 832 831 -1 821 822 823 -1 821 833 834 -1 821 834 822 -1 822 824 823 -1 822 834 824 -1 823 824 879 -1 824 834 880 -1 824 880 879 -1 825 827 828 -1 825 828 826 -1 826 828 902 -1 826 902 830 -1 827 901 902 -1 827 902 828 -1 829 830 873 -1 830 874 873 -1 830 902 874 -1 831 832 833 -1 832 834 833 -1 832 858 860 -1 832 860 834 -1 832 894 858 -1 834 860 880 -1 835 836 837 -1 835 873 874 -1 835 874 836 -1 836 838 837 -1 836 874 838 -1 837 838 929 -1 838 874 902 -1 838 902 930 -1 838 930 929 -1 839 889 890 -1 839 890 840 -1 840 866 844 -1 840 890 866 -1 841 891 892 -1 841 892 842 -1 842 868 846 -1 842 892 868 -1 843 844 865 -1 844 866 865 -1 845 846 867 -1 846 868 867 -1 847 848 885 -1 848 852 862 -1 848 862 886 -1 848 886 885 -1 849 850 887 -1 850 854 864 -1 850 864 888 -1 850 888 887 -1 851 861 862 -1 851 862 852 -1 853 863 864 -1 853 864 854 -1 855 856 869 -1 855 871 872 -1 855 872 856 -1 856 870 869 -1 856 872 932 -1 856 932 870 -1 857 858 895 -1 857 859 860 -1 857 860 858 -1 858 894 896 -1 858 896 895 -1 859 961 962 -1 859 962 860 -1 860 962 964 -1 860 964 968 -1 860 968 880 -1 861 875 876 -1 861 876 862 -1 862 876 886 -1 863 877 878 -1 863 878 864 -1 864 878 888 -1 865 866 881 -1 866 882 881 -1 866 890 882 -1 867 868 883 -1 868 884 883 -1 868 892 884 -1 869 870 907 -1 870 908 907 -1 870 932 942 -1 870 942 908 -1 871 913 914 -1 871 914 872 -1 872 914 948 -1 872 948 932 -1 875 897 898 -1 875 898 876 -1 876 898 886 -1 877 899 900 -1 877 900 878 -1 878 900 888 -1 879 880 967 -1 880 968 967 -1 881 882 903 -1 882 890 904 -1 882 904 903 -1 883 884 905 -1 884 892 906 -1 884 906 905 -1 885 886 933 -1 886 898 934 -1 886 934 933 -1 887 888 935 -1 888 900 936 -1 888 936 935 -1 889 943 944 -1 889 944 890 -1 890 944 904 -1 891 945 946 -1 891 946 892 -1 892 946 906 -1 893 895 896 -1 893 896 894 -1 897 909 910 -1 897 910 898 -1 898 910 934 -1 899 911 912 -1 899 912 900 -1 900 912 936 -1 901 927 928 -1 901 928 902 -1 902 928 930 -1 903 904 915 -1 904 916 915 -1 904 944 916 -1 905 906 917 -1 906 918 917 -1 906 946 918 -1 907 908 991 -1 908 942 966 -1 908 966 992 -1 908 992 991 -1 909 919 920 -1 909 920 910 -1 910 920 938 -1 910 938 934 -1 911 921 922 -1 911 922 912 -1 912 922 940 -1 912 940 936 -1 913 997 998 -1 913 998 914 -1 914 970 948 -1 914 998 970 -1 915 916 923 -1 916 924 923 -1 916 944 958 -1 916 958 924 -1 917 918 925 -1 918 926 925 -1 918 946 960 -1 918 960 926 -1 919 937 938 -1 919 938 920 -1 921 939 940 -1 921 940 922 -1 923 924 957 -1 924 958 957 -1 925 926 959 -1 926 960 959 -1 927 929 930 -1 927 930 928 -1 931 932 947 -1 931 941 942 -1 931 942 932 -1 932 948 947 -1 933 934 937 -1 934 938 937 -1 935 936 939 -1 936 940 939 -1 941 965 966 -1 941 966 942 -1 943 957 958 -1 943 958 944 -1 945 959 960 -1 945 960 946 -1 947 948 969 -1 948 970 969 -1 949 950 951 -1 949 1013 1014 -1 949 1014 950 -1 950 952 951 -1 950 972 952 -1 950 1014 972 -1 951 952 971 -1 952 972 971 -1 953 954 955 -1 953 973 974 -1 953 974 954 -1 954 956 955 -1 954 974 956 -1 955 956 1007 -1 956 974 1008 -1 956 1008 1007 -1 961 963 964 -1 961 964 962 -1 963 1049 1050 -1 963 1050 964 -1 964 1050 968 -1 965 1009 1010 -1 965 1010 966 -1 966 1010 992 -1 967 968 1041 -1 968 1042 1041 -1 968 1050 1042 -1 969 970 1011 -1 970 998 1012 -1 970 1012 1011 -1 971 972 973 -1 972 974 973 -1 972 994 996 -1 972 996 974 -1 972 1014 994 -1 974 996 1008 -1 975 976 977 -1 975 1001 1002 -1 975 1002 976 -1 976 978 977 -1 976 1002 978 -1 977 978 1051 -1 978 1002 1052 -1 978 1052 1051 -1 979 980 981 -1 979 1005 1006 -1 979 1006 980 -1 980 982 981 -1 980 1006 982 -1 981 982 1053 -1 982 1006 1054 -1 982 1054 1053 -1 983 984 985 -1 983 1059 1060 -1 983 1060 984 -1 984 986 985 -1 984 1000 986 -1 984 1022 1000 -1 984 1060 1022 -1 985 986 999 -1 986 1000 999 -1 987 988 989 -1 987 1063 1064 -1 987 1064 988 -1 988 990 989 -1 988 1004 990 -1 988 1030 1004 -1 988 1064 1030 -1 989 990 1003 -1 990 1004 1003 -1 991 992 1079 -1 992 1010 1080 -1 992 1080 1079 -1 993 994 1015 -1 993 995 996 -1 993 996 994 -1 994 1014 1016 -1 994 1016 1015 -1 995 1139 1140 -1 995 1140 996 -1 996 1136 1008 -1 996 1140 1154 -1 996 1154 1136 -1 997 1075 1076 -1 997 1076 998 -1 998 1076 1012 -1 999 1000 1001 -1 1000 1002 1001 -1 1000 1022 1024 -1 1000 1024 1026 -1 1000 1026 1002 -1 1002 1026 1028 -1 1002 1028 1052 -1 1003 1004 1005 -1 1004 1006 1005 -1 1004 1030 1032 -1 1004 1032 1034 -1 1004 1034 1006 -1 1006 1034 1036 -1 1006 1036 1054 -1 1007 1008 1135 -1 1008 1136 1135 -1 1009 1081 1082 -1 1009 1082 1010 -1 1010 1082 1080 -1 1011 1012 1077 -1 1012 1076 1078 -1 1012 1078 1077 -1 1013 1015 1016 -1 1013 1016 1014 -1 1017 1018 1019 -1 1017 1119 1120 -1 1017 1120 1018 -1 1018 1020 1019 -1 1018 1048 1020 -1 1018 1120 1048 -1 1019 1020 1047 -1 1020 1048 1047 -1 1021 1022 1061 -1 1021 1023 1024 -1 1021 1024 1022 -1 1022 1060 1062 -1 1022 1062 1061 -1 1023 1055 1056 -1 1023 1056 1024 -1 1024 1044 1026 -1 1024 1056 1044 -1 1025 1026 1043 -1 1025 1027 1028 -1 1025 1028 1026 -1 1026 1044 1043 -1 1027 1037 1038 -1 1027 1038 1028 -1 1028 1038 1052 -1 1029 1030 1065 -1 1029 1031 1032 -1 1029 1032 1030 -1 1030 1064 1066 -1 1030 1066 1065 -1 1031 1057 1058 -1 1031 1058 1032 -1 1032 1046 1034 -1 1032 1058 1046 -1 1033 1034 1045 -1 1033 1035 1036 -1 1033 1036 1034 -1 1034 1046 1045 -1 1035 1039 1040 -1 1035 1040 1036 -1 1036 1040 1054 -1 1037 1071 1072 -1 1037 1072 1038 -1 1038 1072 1052 -1 1039 1073 1074 -1 1039 1074 1040 -1 1040 1074 1054 -1 1041 1042 1125 -1 1042 1050 1084 -1 1042 1084 1086 -1 1042 1086 1126 -1 1042 1126 1125 -1 1043 1044 1067 -1 1044 1056 1068 -1 1044 1068 1067 -1 1045 1046 1069 -1 1046 1058 1070 -1 1046 1070 1069 -1 1047 1048 1049 -1 1048 1050 1049 -1 1048 1084 1050 -1 1048 1120 1084 -1 1051 1052 1131 -1 1052 1072 1132 -1 1052 1132 1131 -1 1053 1054 1133 -1 1054 1074 1134 -1 1054 1134 1133 -1 1055 1091 1092 -1 1055 1092 1056 -1 1056 1092 1068 -1 1057 1093 1094 -1 1057 1094 1058 -1 1058 1094 1070 -1 1059 1061 1062 -1 1059 1062 1060 -1 1063 1065 1066 -1 1063 1066 1064 -1 1067 1068 1087 -1 1068 1088 1087 -1 1068 1092 1088 -1 1069 1070 1089 -1 1070 1090 1089 -1 1070 1094 1090 -1 1071 1095 1096 -1 1071 1096 1072 -1 1072 1096 1132 -1 1073 1097 1098 -1 1073 1098 1074 -1 1074 1098 1134 -1 1075 1159 1160 -1 1075 1160 1076 -1 1076 1118 1078 -1 1076 1160 1118 -1 1077 1078 1117 -1 1078 1118 1117 -1 1079 1080 1157 -1 1080 1082 1116 -1 1080 1116 1158 -1 1080 1158 1157 -1 1081 1115 1116 -1 1081 1116 1082 -1 1083 1084 1121 -1 1083 1085 1084 -1 1084 1085 1086 -1 1084 1120 1122 -1 1084 1122 1121 -1 1085 1123 1124 -1 1085 1124 1086 -1 1086 1124 1126 -1 1087 1088 1103 -1 1088 1092 1128 -1 1088 1104 1103 -1 1088 1128 1104 -1 1089 1090 1105 -1 1090 1094 1130 -1 1090 1106 1105 -1 1090 1130 1106 -1 1091 1127 1128 -1 1091 1128 1092 -1 1093 1129 1130 -1 1093 1130 1094 -1 1095 1107 1108 -1 1095 1108 1096 -1 1096 1108 1132 -1 1097 1109 1110 -1 1097 1110 1098 -1 1098 1110 1134 -1 1099 1100 1101 -1 1099 1137 1138 -1 1099 1138 1100 -1 1100 1102 1101 -1 1100 1138 1102 -1 1101 1102 1183 -1 1102 1138 1156 -1 1102 1156 1184 -1 1102 1184 1183 -1 1103 1104 1111 -1 1104 1112 1111 -1 1104 1128 1142 -1 1104 1142 1112 -1 1105 1106 1113 -1 1106 1114 1113 -1 1106 1130 1144 -1 1106 1144 1114 -1 1107 1111 1112 -1 1107 1112 1108 -1 1108 1112 1148 -1 1108 1148 1132 -1 1109 1113 1114 -1 1109 1114 1110 -1 1110 1114 1150 -1 1110 1150 1134 -1 1112 1142 1148 -1 1114 1144 1150 -1 1115 1145 1146 -1 1115 1146 1116 -1 1116 1146 1158 -1 1117 1118 1151 -1 1118 1152 1151 -1 1118 1160 1152 -1 1119 1121 1122 -1 1119 1122 1120 -1 1123 1125 1126 -1 1123 1126 1124 -1 1127 1141 1142 -1 1127 1142 1128 -1 1129 1143 1144 -1 1129 1144 1130 -1 1131 1132 1147 -1 1132 1148 1147 -1 1133 1134 1149 -1 1134 1150 1149 -1 1135 1136 1137 -1 1136 1138 1137 -1 1136 1154 1156 -1 1136 1156 1138 -1 1139 1153 1154 -1 1139 1154 1140 -1 1141 1147 1148 -1 1141 1148 1142 -1 1143 1149 1150 -1 1143 1150 1144 -1 1145 1177 1178 -1 1145 1178 1146 -1 1146 1178 1158 -1 1151 1152 1179 -1 1152 1160 1180 -1 1152 1180 1179 -1 1153 1155 1156 -1 1153 1156 1154 -1 1155 1181 1182 -1 1155 1182 1156 -1 1156 1182 1184 -1 1157 1158 1217 -1 1158 1178 1218 -1 1158 1218 1217 -1 1159 1225 1226 -1 1159 1226 1160 -1 1160 1226 1180 -1 1161 1162 1163 -1 1161 1237 1238 -1 1161 1238 1162 -1 1162 1164 1163 -1 1162 1196 1164 -1 1162 1238 1196 -1 1163 1164 1195 -1 1164 1196 1195 -1 1165 1166 1167 -1 1165 1197 1198 -1 1165 1198 1166 -1 1166 1168 1167 -1 1166 1198 1168 -1 1167 1168 1229 -1 1168 1198 1230 -1 1168 1230 1229 -1 1169 1170 1171 -1 1169 1241 1242 -1 1169 1242 1170 -1 1170 1172 1171 -1 1170 1200 1172 -1 1170 1242 1200 -1 1171 1172 1199 -1 1172 1200 1199 -1 1173 1174 1175 -1 1173 1201 1202 -1 1173 1202 1174 -1 1174 1176 1175 -1 1174 1202 1176 -1 1175 1176 1231 -1 1176 1202 1232 -1 1176 1232 1231 -1 1177 1185 1186 -1 1177 1186 1178 -1 1178 1186 1218 -1 1179 1180 1203 -1 1180 1204 1203 -1 1180 1226 1204 -1 1181 1183 1184 -1 1181 1184 1182 -1 1185 1205 1206 -1 1185 1206 1186 -1 1186 1206 1220 -1 1186 1220 1218 -1 1187 1188 1189 -1 1187 1247 1248 -1 1187 1248 1188 -1 1188 1190 1189 -1 1188 1222 1190 -1 1188 1248 1222 -1 1189 1190 1221 -1 1190 1222 1221 -1 1191 1192 1193 -1 1191 1223 1224 -1 1191 1224 1192 -1 1192 1194 1193 -1 1192 1224 1194 -1 1193 1194 1245 -1 1194 1224 1246 -1 1194 1246 1245 -1 1195 1196 1198 -1 1195 1198 1197 -1 1196 1210 1212 -1 1196 1212 1198 -1 1196 1238 1210 -1 1198 1212 1230 -1 1199 1200 1202 -1 1199 1202 1201 -1 1200 1214 1216 -1 1200 1216 1202 -1 1200 1242 1214 -1 1202 1216 1232 -1 1203 1204 1207 -1 1204 1208 1207 -1 1204 1226 1228 -1 1204 1228 1208 -1 1205 1219 1220 -1 1205 1220 1206 -1 1207 1208 1227 -1 1208 1228 1227 -1 1209 1210 1239 -1 1209 1211 1212 -1 1209 1212 1210 -1 1210 1238 1240 -1 1210 1240 1239 -1 1211 1295 1296 -1 1211 1296 1212 -1 1212 1288 1230 -1 1212 1296 1310 -1 1212 1310 1288 -1 1213 1214 1243 -1 1213 1215 1216 -1 1213 1216 1214 -1 1214 1242 1244 -1 1214 1244 1243 -1 1215 1297 1298 -1 1215 1298 1216 -1 1216 1292 1232 -1 1216 1298 1314 -1 1216 1314 1292 -1 1217 1218 1219 -1 1218 1220 1219 -1 1221 1222 1223 -1 1222 1224 1223 -1 1222 1234 1236 -1 1222 1236 1224 -1 1222 1248 1234 -1 1224 1236 1246 -1 1225 1227 1228 -1 1225 1228 1226 -1 1229 1230 1287 -1 1230 1288 1287 -1 1231 1232 1291 -1 1232 1292 1291 -1 1233 1234 1249 -1 1233 1235 1236 -1 1233 1236 1234 -1 1234 1248 1250 -1 1234 1250 1249 -1 1235 1325 1326 -1 1235 1326 1236 -1 1236 1322 1246 -1 1236 1326 1330 -1 1236 1330 1322 -1 1237 1239 1240 -1 1237 1240 1238 -1 1241 1243 1244 -1 1241 1244 1242 -1 1245 1246 1321 -1 1246 1322 1321 -1 1247 1249 1250 -1 1247 1250 1248 -1 1251 1252 1259 -1 1251 1253 1252 -1 1252 1253 1254 -1 1252 1254 1272 -1 1252 1260 1259 -1 1252 1272 1260 -1 1253 1279 1280 -1 1253 1280 1254 -1 1254 1278 1272 -1 1254 1280 1278 -1 1255 1256 1257 -1 1255 1269 1270 -1 1255 1270 1256 -1 1256 1258 1257 -1 1256 1270 1276 -1 1256 1276 1258 -1 1257 1258 1273 -1 1258 1274 1273 -1 1258 1276 1274 -1 1259 1260 1271 -1 1260 1272 1271 -1 1261 1262 1263 -1 1261 1289 1290 -1 1261 1290 1262 -1 1262 1264 1263 -1 1262 1290 1264 -1 1263 1264 1335 -1 1264 1290 1312 -1 1264 1312 1336 -1 1264 1336 1335 -1 1265 1266 1267 -1 1265 1293 1294 -1 1265 1294 1266 -1 1266 1268 1267 -1 1266 1294 1268 -1 1267 1268 1339 -1 1268 1294 1316 -1 1268 1316 1340 -1 1268 1340 1339 -1 1269 1275 1276 -1 1269 1276 1270 -1 1271 1272 1277 -1 1272 1278 1277 -1 1273 1274 1299 -1 1274 1276 1282 -1 1274 1282 1300 -1 1274 1300 1299 -1 1275 1281 1282 -1 1275 1282 1276 -1 1277 1278 1301 -1 1278 1280 1302 -1 1278 1302 1301 -1 1279 1347 1348 -1 1279 1348 1280 -1 1280 1320 1302 -1 1280 1348 1320 -1 1281 1307 1308 -1 1281 1308 1282 -1 1282 1308 1300 -1 1283 1284 1285 -1 1283 1323 1324 -1 1283 1324 1284 -1 1284 1286 1285 -1 1284 1324 1286 -1 1285 1286 1355 -1 1286 1324 1332 -1 1286 1332 1356 -1 1286 1356 1355 -1 1287 1288 1289 -1 1288 1290 1289 -1 1288 1310 1312 -1 1288 1312 1290 -1 1291 1292 1293 -1 1292 1294 1293 -1 1292 1314 1316 -1 1292 1316 1294 -1 1295 1309 1310 -1 1295 1310 1296 -1 1297 1313 1314 -1 1297 1314 1298 -1 1299 1300 1317 -1 1300 1308 1318 -1 1300 1318 1317 -1 1301 1302 1319 -1 1302 1320 1319 -1 1303 1304 1305 -1 1303 1349 1350 -1 1303 1350 1304 -1 1304 1306 1305 -1 1304 1350 1306 -1 1305 1306 1351 -1 1306 1350 1352 -1 1306 1352 1351 -1 1307 1327 1328 -1 1307 1328 1308 -1 1308 1328 1318 -1 1309 1311 1312 -1 1309 1312 1310 -1 1311 1333 1334 -1 1311 1334 1312 -1 1312 1334 1336 -1 1313 1315 1316 -1 1313 1316 1314 -1 1315 1337 1338 -1 1315 1338 1316 -1 1316 1338 1340 -1 1317 1318 1345 -1 1318 1328 1346 -1 1318 1346 1345 -1 1319 1320 1341 -1 1320 1342 1341 -1 1320 1348 1342 -1 1321 1322 1324 -1 1321 1324 1323 -1 1322 1330 1332 -1 1322 1332 1324 -1 1325 1329 1330 -1 1325 1330 1326 -1 1327 1343 1344 -1 1327 1344 1328 -1 1328 1344 1346 -1 1329 1331 1330 -1 1330 1331 1332 -1 1331 1353 1354 -1 1331 1354 1332 -1 1332 1354 1356 -1 1333 1335 1336 -1 1333 1336 1334 -1 1337 1339 1340 -1 1337 1340 1338 -1 1341 1342 1361 -1 1342 1348 1362 -1 1342 1362 1361 -1 1343 1357 1358 -1 1343 1358 1344 -1 1344 1358 1346 -1 1345 1346 1409 -1 1346 1358 1410 -1 1346 1410 1409 -1 1347 1379 1380 -1 1347 1380 1348 -1 1348 1380 1362 -1 1349 1365 1366 -1 1349 1366 1350 -1 1350 1360 1352 -1 1350 1364 1360 -1 1350 1366 1364 -1 1351 1352 1359 -1 1352 1360 1359 -1 1353 1355 1356 -1 1353 1356 1354 -1 1357 1375 1376 -1 1357 1376 1358 -1 1358 1376 1410 -1 1359 1360 1377 -1 1360 1364 1396 -1 1360 1378 1377 -1 1360 1396 1378 -1 1361 1362 1385 -1 1362 1380 1386 -1 1362 1386 1385 -1 1363 1364 1401 -1 1363 1395 1396 -1 1363 1396 1364 -1 1364 1366 1402 -1 1364 1402 1401 -1 1365 1387 1388 -1 1365 1388 1366 -1 1366 1388 1402 -1 1367 1368 1369 -1 1367 1417 1418 -1 1367 1418 1368 -1 1368 1370 1369 -1 1368 1392 1370 -1 1368 1418 1392 -1 1369 1370 1391 -1 1370 1392 1391 -1 1371 1372 1373 -1 1371 1393 1394 -1 1371 1394 1372 -1 1372 1374 1373 -1 1372 1394 1374 -1 1373 1374 1415 -1 1374 1394 1416 -1 1374 1416 1415 -1 1375 1381 1382 -1 1375 1382 1376 -1 1376 1382 1410 -1 1377 1378 1383 -1 1378 1384 1383 -1 1378 1396 1412 -1 1378 1412 1384 -1 1379 1413 1414 -1 1379 1414 1380 -1 1380 1414 1386 -1 1381 1389 1390 -1 1381 1390 1382 -1 1382 1390 1426 -1 1382 1426 1410 -1 1383 1384 1389 -1 1384 1390 1389 -1 1384 1412 1424 -1 1384 1424 1390 -1 1385 1386 1397 -1 1386 1398 1397 -1 1386 1414 1398 -1 1387 1399 1400 -1 1387 1400 1388 -1 1388 1400 1422 -1 1388 1422 1402 -1 1390 1424 1426 -1 1391 1392 1393 -1 1392 1394 1393 -1 1392 1404 1406 -1 1392 1406 1394 -1 1392 1418 1404 -1 1394 1406 1416 -1 1395 1411 1412 -1 1395 1412 1396 -1 1397 1398 1407 -1 1398 1408 1407 -1 1398 1414 1428 -1 1398 1428 1408 -1 1399 1407 1408 -1 1399 1408 1400 -1 1400 1408 1430 -1 1400 1430 1422 -1 1401 1402 1421 -1 1402 1422 1421 -1 1403 1404 1419 -1 1403 1405 1406 -1 1403 1406 1404 -1 1404 1418 1420 -1 1404 1420 1419 -1 1405 1449 1450 -1 1405 1450 1406 -1 1406 1446 1416 -1 1406 1450 1458 -1 1406 1458 1446 -1 1408 1428 1432 -1 1408 1432 1430 -1 1409 1410 1425 -1 1410 1426 1425 -1 1411 1423 1424 -1 1411 1424 1412 -1 1413 1427 1428 -1 1413 1428 1414 -1 1415 1416 1445 -1 1416 1446 1445 -1 1417 1419 1420 -1 1417 1420 1418 -1 1421 1422 1429 -1 1422 1430 1429 -1 1423 1425 1426 -1 1423 1426 1424 -1 1427 1431 1432 -1 1427 1432 1428 -1 1429 1430 1431 -1 1430 1432 1431 -1 1433 1434 1435 -1 1433 1447 1448 -1 1433 1448 1434 -1 1434 1436 1435 -1 1434 1448 1436 -1 1435 1436 1473 -1 1436 1448 1460 -1 1436 1460 1474 -1 1436 1474 1473 -1 1437 1438 1439 -1 1437 1488 1438 -1 1438 1440 1439 -1 1438 1454 1440 -1 1438 1488 1535 -1 1438 1535 1536 -1 1438 1536 1454 -1 1439 1440 1461 -1 1440 1454 1462 -1 1440 1462 1461 -1 1441 1442 1443 -1 1441 1451 1452 -1 1441 1452 1442 -1 1442 1444 1443 -1 1442 1452 1456 -1 1442 1456 1444 -1 1443 1444 1465 -1 1444 1456 1464 -1 1444 1464 1466 -1 1444 1466 1465 -1 1445 1446 1447 -1 1446 1448 1447 -1 1446 1458 1460 -1 1446 1460 1448 -1 1449 1457 1458 -1 1449 1458 1450 -1 1451 1455 1456 -1 1451 1456 1452 -1 1453 1454 1490 -1 1453 1467 1468 -1 1453 1468 1454 -1 1454 1468 1462 -1 1454 1536 1538 -1 1454 1538 1490 -1 1455 1463 1464 -1 1455 1464 1456 -1 1457 1459 1460 -1 1457 1460 1458 -1 1459 1471 1472 -1 1459 1472 1460 -1 1460 1472 1474 -1 1461 1462 1479 -1 1462 1468 1478 -1 1462 1478 1480 -1 1462 1480 1479 -1 1463 1469 1470 -1 1463 1470 1464 -1 1464 1470 1466 -1 1465 1466 1483 -1 1466 1470 1476 -1 1466 1476 1484 -1 1466 1484 1483 -1 1467 1477 1478 -1 1467 1478 1468 -1 1469 1475 1476 -1 1469 1476 1470 -1 1471 1473 1474 -1 1471 1474 1472 -1 1475 1481 1482 -1 1475 1482 1476 -1 1476 1482 1484 -1 1477 1492 1478 -1 1478 1492 1505 -1 1478 1505 1506 -1 1478 1506 1480 -1 1479 1480 1494 -1 1480 1502 1494 -1 1480 1506 1502 -1 1481 1496 1482 -1 1482 1496 1503 -1 1482 1503 1504 -1 1482 1504 1484 -1 1483 1484 1498 -1 1484 1504 1510 -1 1484 1510 1498 -1 1487 1489 1537 -1 1487 1535 1488 -1 1487 1537 1535 -1 1489 1490 1537 -1 1490 1538 1537 -1 1491 1493 1505 -1 1491 1505 1492 -1 1493 1494 1501 -1 1493 1501 1505 -1 1494 1502 1501 -1 1495 1497 1503 -1 1495 1503 1496 -1 1497 1498 1509 -1 1497 1509 1503 -1 1498 1510 1509 -1 1501 1502 1508 -1 1501 1507 1521 -1 1501 1508 1507 -1 1501 1521 1505 -1 1502 1506 1522 -1 1502 1522 1508 -1 1503 1509 1511 -1 1503 1511 1504 -1 1504 1511 1512 -1 1504 1512 1510 -1 1505 1521 1506 -1 1506 1521 1522 -1 1507 1508 1514 -1 1507 1513 1525 -1 1507 1514 1513 -1 1507 1525 1521 -1 1508 1522 1526 -1 1508 1526 1514 -1 1509 1510 1524 -1 1509 1523 1511 -1 1509 1524 1523 -1 1510 1512 1524 -1 1511 1515 1512 -1 1511 1523 1515 -1 1512 1515 1516 -1 1512 1516 1524 -1 1513 1514 1518 -1 1513 1517 1527 -1 1513 1518 1517 -1 1513 1527 1525 -1 1514 1526 1528 -1 1514 1528 1518 -1 1515 1519 1516 -1 1515 1523 1529 -1 1515 1529 1519 -1 1516 1519 1520 -1 1516 1520 1530 -1 1516 1530 1524 -1 1517 1518 1520 -1 1517 1519 1531 -1 1517 1520 1519 -1 1517 1531 1527 -1 1518 1528 1532 -1 1518 1532 1520 -1 1519 1529 1533 -1 1519 1533 1531 -1 1520 1532 1534 -1 1520 1534 1530 -1 1521 1525 1522 -1 1522 1525 1526 -1 1523 1524 1530 -1 1523 1530 1529 -1 1525 1527 1526 -1 1526 1527 1528 -1 1527 1531 1528 -1 1528 1531 1532 -1 1529 1530 1534 -1 1529 1534 1533 -1 1531 1533 1532 -1 1532 1533 1534 -1 1535 1537 1536 -1 1536 1537 1538 -1 "
						                >
							<Coordinate DEF="coords_ME_OpenSCAD_Model"
							            point="-0.547133 10.000000 0.900000 -0.547133 10.000000 1.200000 -0.547133 10.064692 0.900000 -0.547133 10.064692 1.200000 -0.547133 11.572174 0.900000 -0.547133 11.572174 1.200000 -0.547133 11.636866 0.900000 -0.547133 11.636866 1.200000 -0.337181 10.097650 0.900000 -0.337181 10.097650 1.200000 -0.337181 11.540422 0.900000 -0.337181 11.540422 1.200000 -0.209021 10.097650 0.900000 -0.209021 10.097650 1.200000 -0.209021 11.407384 0.900000 -0.209021 11.407384 1.200000 -0.051556 11.636866 0.900000 -0.051556 11.636866 1.200000 0.000000 0.000000 0.000000 0.000000 0.000000 1.000000 0.000000 10.000000 0.900000 0.000000 10.000000 1.000000 0.000000 10.066295 0.900000 0.000000 10.066295 1.000000 0.000000 10.916546 0.900000 0.000000 10.916546 1.000000 0.000000 11.516250 0.900000 0.000000 11.516250 1.000000 0.000000 14.000000 0.000000 0.000000 14.000000 1.000000 0.010687 10.000000 1.000000 0.010687 10.000000 1.200000 0.010687 10.064692 1.000000 0.010687 10.064692 1.200000 0.197175 2.873430 1.000000 0.197175 2.873430 1.200000 0.197175 2.909370 1.000000 0.197175 2.909370 1.200000 0.299565 2.855790 1.000000 0.299565 2.855790 1.200000 0.390307 10.000000 1.000000 0.390307 10.000000 1.200000 0.433021 10.000000 1.000000 0.433021 10.000000 1.200000 0.459605 2.855790 1.000000 0.459605 2.855790 1.200000 0.474525 2.000000 1.000000 0.474525 2.000000 1.200000 0.474525 2.035939 1.000000 0.474525 2.035939 1.200000 0.480631 10.391824 1.000000 0.480631 10.391824 1.200000 0.581665 2.873430 1.000000 0.581665 2.873430 1.200000 0.581665 2.909370 1.000000 0.581665 2.909370 1.200000 0.613885 12.213908 1.000000 0.613885 12.213908 1.200000 0.618965 2.054250 1.000000 0.618965 2.054250 1.200000 0.618965 2.353980 1.000000 0.618965 2.353980 1.200000 0.633934 12.107529 1.000000 0.633934 12.107529 1.200000 0.634225 12.323169 1.000000 0.634225 12.323169 1.200000 0.694080 12.016252 1.000000 0.694080 12.016252 1.200000 0.695245 12.413829 1.000000 0.695245 12.413829 1.200000 0.720685 2.436030 1.000000 0.720685 2.436030 1.200000 0.749845 2.054250 1.000000 0.749845 2.054250 1.200000 0.749845 2.358050 1.000000 0.749845 2.358050 1.200000 0.784474 11.953483 1.000000 0.784474 11.953483 1.200000 0.785931 12.474874 1.000000 0.785931 12.474874 1.200000 0.853595 2.873430 1.000000 0.853595 2.873430 1.200000 0.853595 2.909370 1.000000 0.853595 2.909370 1.200000 0.866353 10.000000 1.000000 0.866353 10.000000 1.200000 0.866353 10.064692 1.000000 0.866353 10.064692 1.200000 0.894285 2.000000 1.000000 0.894285 2.000000 1.200000 0.894285 2.035939 1.000000 0.894285 2.035939 1.200000 0.895200 11.932560 1.000000 0.895200 11.932560 1.200000 0.895200 12.495223 1.000000 0.895200 12.495223 1.200000 0.968875 2.855790 1.000000 0.968875 2.855790 1.200000 1.004460 12.474874 1.000000 1.004460 12.474874 1.200000 1.005917 11.953483 1.000000 1.005917 11.953483 1.200000 1.049575 2.855790 1.000000 1.049575 2.855790 1.200000 1.061653 11.636866 1.000000 1.061653 11.636866 1.200000 1.086061 10.097650 1.000000 1.086061 10.097650 1.200000 1.086061 11.407384 1.000000 1.086061 11.407384 1.200000 1.095120 12.413829 1.000000 1.095120 12.413829 1.200000 1.096285 12.016252 1.000000 1.096285 12.016252 1.200000 1.149255 2.873430 1.000000 1.149255 2.873430 1.200000 1.149255 2.909370 1.000000 1.149255 2.909370 1.200000 1.156165 12.323169 1.000000 1.156165 12.323169 1.200000 1.156457 12.107529 1.000000 1.156457 12.107529 1.200000 1.176514 12.213908 1.000000 1.176514 12.213908 1.200000 1.200185 2.873430 1.000000 1.200185 2.873430 1.200000 1.200185 2.909370 1.000000 1.200185 2.909370 1.200000 1.302575 2.855790 1.000000 1.302575 2.855790 1.200000 1.320421 10.097650 1.000000 1.320421 10.097650 1.200000 1.320421 11.540422 1.000000 1.320421 11.540422 1.200000 1.355140 6.444170 1.000000 1.355140 6.444170 1.200000 1.355140 8.444170 1.000000 1.355140 8.444170 1.200000 1.384807 6.650235 1.000000 1.384807 6.650235 1.200000 1.384807 8.650235 1.000000 1.384807 8.650235 1.200000 1.385995 6.251327 1.000000 1.385995 6.251327 1.200000 1.385995 8.251327 1.000000 1.385995 8.251327 1.200000 1.462615 2.855790 1.000000 1.462615 2.855790 1.200000 1.473810 6.799170 1.000000 1.473810 6.799170 1.200000 1.473810 8.799170 1.000000 1.473810 8.799170 1.200000 1.477535 2.000000 1.000000 1.477535 2.000000 1.200000 1.477535 2.035939 1.000000 1.477535 2.035939 1.200000 1.478560 6.106800 1.000000 1.478560 6.106800 1.200000 1.478560 8.106800 1.000000 1.478560 8.106800 1.200000 1.496870 6.445530 1.000000 1.496870 6.445530 1.200000 1.496870 8.445530 1.000000 1.496870 8.445530 1.200000 1.516875 6.632350 1.000000 1.516875 6.632350 1.200000 1.516875 8.632350 1.000000 1.516875 8.632350 1.200000 1.517807 6.270912 1.000000 1.517807 6.270912 1.200000 1.517807 8.270912 1.000000 1.517807 8.270912 1.200000 1.530373 10.000000 1.000000 1.530373 10.000000 1.200000 1.530373 10.064692 1.000000 1.530373 10.064692 1.200000 1.530373 11.572174 1.000000 1.530373 11.572174 1.200000 1.530373 11.636866 1.000000 1.530373 11.636866 1.200000 1.576890 6.762890 1.000000 1.576890 6.762890 1.200000 1.576890 8.762890 1.000000 1.576890 8.762890 1.200000 1.580620 6.143080 1.000000 1.580620 6.143080 1.200000 1.580620 8.143080 1.000000 1.580620 8.143080 1.200000 1.584675 2.873430 1.000000 1.584675 2.873430 1.200000 1.584675 2.909370 1.000000 1.584675 2.909370 1.200000 1.621137 6.889447 1.000000 1.621137 6.889447 1.200000 1.621137 8.889447 1.000000 1.621137 8.889447 1.200000 1.621975 2.054250 1.000000 1.621975 2.054250 1.200000 1.621975 2.353980 1.000000 1.621975 2.353980 1.200000 1.626392 6.016530 1.000000 1.626392 6.016530 1.200000 1.626392 8.016530 1.000000 1.626392 8.016530 1.200000 1.680475 6.839690 1.000000 1.680475 6.839690 1.200000 1.680475 8.839690 1.000000 1.680475 8.839690 1.200000 1.683442 6.064757 1.000000 1.683442 6.064757 1.200000 1.683442 8.064757 1.000000 1.683442 8.064757 1.200000 1.723695 2.436030 1.000000 1.723695 2.436030 1.200000 1.752855 2.054250 1.000000 1.752855 2.054250 1.200000 1.752855 2.358050 1.000000 1.752855 2.358050 1.200000 1.823050 5.986440 1.000000 1.823050 5.986440 1.200000 1.823050 7.986440 1.000000 1.823050 7.986440 1.200000 1.824410 6.038650 1.000000 1.824410 6.038650 1.200000 1.824410 8.038649 1.000000 1.824410 8.038649 1.200000 1.825760 6.919540 1.000000 1.825760 6.919540 1.200000 1.825760 8.919540 1.000000 1.825760 8.919540 1.200000 1.831190 6.865290 1.000000 1.831190 6.865290 1.200000 1.831190 8.865290 1.000000 1.831190 8.865290 1.200000 1.856605 2.873430 1.000000 1.856605 2.873430 1.200000 1.856605 2.909370 1.000000 1.856605 2.909370 1.200000 1.895695 6.861305 1.000000 1.895695 6.861305 1.200000 1.895695 8.861305 1.000000 1.895695 8.861305 1.200000 1.897295 2.000000 1.000000 1.897295 2.000000 1.200000 1.897295 2.035939 1.000000 1.897295 2.035939 1.200000 1.899507 6.043312 1.000000 1.899507 6.043312 1.200000 1.899507 8.043312 1.000000 1.899507 8.043312 1.200000 1.959010 6.849350 1.000000 1.959010 6.849350 1.200000 1.959010 8.849350 1.000000 1.959010 8.849350 1.200000 1.970200 6.057300 1.000000 1.970200 6.057300 1.200000 1.970200 8.057299 1.000000 1.970200 8.057299 1.200000 1.971885 2.855790 1.000000 1.971885 2.855790 1.200000 1.972745 6.910892 1.000000 1.972745 6.910892 1.200000 1.972745 8.910892 1.000000 1.972745 8.910892 1.200000 1.989017 5.997120 1.000000 1.989017 5.997120 1.200000 1.989017 7.997120 1.000000 1.989017 7.997120 1.200000 2.017925 6.830112 1.000000 2.017925 6.830112 1.200000 2.017925 8.830112 1.000000 2.017925 8.830112 1.200000 2.031570 6.079085 1.000000 2.031570 6.079085 1.200000 2.031570 8.079085 1.000000 2.031570 8.079085 1.200000 2.052584 2.855790 1.000000 2.052584 2.855790 1.200000 2.069210 6.804260 1.000000 2.069210 6.804260 1.200000 2.069210 8.804260 1.000000 2.069210 8.804260 1.200000 2.078700 6.107140 1.000000 2.078700 6.107140 1.200000 2.078700 8.107139 1.000000 2.078700 8.107139 1.200000 2.089550 6.686260 1.000000 2.089550 6.686260 1.200000 2.089550 8.686260 1.000000 2.089550 8.686260 1.200000 2.103790 6.242770 1.000000 2.103790 6.242770 1.200000 2.103790 8.242770 1.000000 2.103790 8.242770 1.200000 2.130240 6.884950 1.000000 2.130240 6.884950 1.200000 2.130240 8.884950 1.000000 2.130240 8.884950 1.200000 2.134310 6.686260 1.000000 2.134310 6.686260 1.200000 2.134310 8.686260 1.000000 2.134310 8.686260 1.200000 2.143800 6.029160 1.000000 2.143800 6.029160 1.200000 2.143800 8.029159 1.000000 2.143800 8.029159 1.200000 2.147870 6.242770 1.000000 2.147870 6.242770 1.200000 2.147870 8.242770 1.000000 2.147870 8.242770 1.200000 2.152265 2.873430 1.000000 2.152265 2.873430 1.200000 2.152265 2.909370 1.000000 2.152265 2.909370 1.200000 2.188955 2.873430 1.000000 2.188955 2.873430 1.200000 2.188955 2.909370 1.000000 2.188955 2.909370 1.200000 2.264570 6.873430 1.000000 2.264570 6.873430 1.200000 2.264570 6.909370 1.000000 2.264570 6.909370 1.200000 2.264570 8.873430 1.000000 2.264570 8.873430 1.200000 2.264570 8.909370 1.000000 2.264570 8.909370 1.200000 2.268295 2.855790 1.000000 2.268295 2.855790 1.200000 2.273390 6.000000 1.000000 2.273390 6.000000 1.200000 2.273390 6.035940 1.000000 2.273390 6.035940 1.200000 2.273390 8.000000 1.000000 2.273390 8.000000 1.200000 2.273390 8.035940 1.000000 2.273390 8.035940 1.200000 2.300773 11.572174 1.000000 2.300773 11.572174 1.200000 2.300773 11.636866 1.000000 2.300773 11.636866 1.200000 2.316649 10.000000 1.000000 2.316649 10.000000 1.200000 2.316649 10.064692 1.000000 2.316649 10.064692 1.200000 2.381210 6.054250 1.000000 2.381210 6.054250 1.200000 2.381210 6.855790 1.000000 2.381210 6.855790 1.200000 2.381210 8.054250 1.000000 2.381210 8.054250 1.200000 2.381210 8.855790 1.000000 2.381210 8.855790 1.200000 2.402565 2.855790 1.000000 2.402565 2.855790 1.200000 2.431390 4.000000 1.000000 2.431390 4.000000 1.200000 2.431390 4.035940 1.000000 2.431390 4.035940 1.200000 2.510725 10.097650 1.000000 2.510725 10.097650 1.200000 2.510725 11.540422 1.000000 2.510725 11.540422 1.200000 2.512090 6.054250 1.000000 2.512090 6.054250 1.200000 2.512090 6.356690 1.000000 2.512090 6.356690 1.200000 2.512090 6.417730 1.000000 2.512090 6.417730 1.200000 2.512090 6.848330 1.000000 2.512090 6.848330 1.200000 2.512090 8.054250 1.000000 2.512090 8.054250 1.200000 2.512090 8.356690 1.000000 2.512090 8.356690 1.200000 2.512090 8.417730 1.000000 2.512090 8.417730 1.200000 2.512090 8.848330 1.000000 2.512090 8.848330 1.200000 2.534470 4.054249 1.000000 2.534470 4.054249 1.200000 2.536155 2.873430 1.000000 2.536155 2.873430 1.200000 2.536155 2.909370 1.000000 2.536155 2.909370 1.200000 2.569375 1.978980 1.000000 2.569375 1.978980 1.200000 2.578540 6.848330 1.000000 2.578540 6.848330 1.200000 2.578540 8.848330 1.000000 2.578540 8.848330 1.200000 2.582610 6.417730 1.000000 2.582610 6.417730 1.200000 2.582610 8.417730 1.000000 2.582610 8.417730 1.200000 2.605325 1.978980 1.000000 2.605325 1.978980 1.200000 2.607700 6.909370 1.000000 2.607700 6.909370 1.200000 2.607700 8.909370 1.000000 2.607700 8.909370 1.200000 2.608380 4.054249 1.000000 2.608380 4.054249 1.200000 2.614480 6.356690 1.000000 2.614480 6.356690 1.200000 2.614480 8.356690 1.000000 2.614480 8.356690 1.200000 2.618885 2.214970 1.000000 2.618885 2.214970 1.200000 2.656530 6.000000 1.000000 2.656530 6.000000 1.200000 2.656530 6.035940 1.000000 2.656530 6.035940 1.200000 2.656530 8.000000 1.000000 2.656530 8.000000 1.200000 2.656530 8.035940 1.000000 2.656530 8.035940 1.200000 2.682207 6.430782 1.000000 2.682207 6.430782 1.200000 2.682207 8.430782 1.000000 2.682207 8.430782 1.200000 2.684157 6.836292 1.000000 2.684157 6.836292 1.200000 2.684157 8.836292 1.000000 2.684157 8.836292 1.200000 2.699930 4.316680 1.000000 2.699930 4.316680 1.200000 2.720270 4.377720 1.000000 2.720270 4.377720 1.200000 2.730450 4.000000 1.000000 2.730450 4.000000 1.200000 2.730450 4.035940 1.000000 2.730450 4.035940 1.200000 2.746309 10.097650 1.000000 2.746309 10.097650 1.200000 2.746309 10.642042 1.000000 2.746309 10.642042 1.200000 2.746309 10.751914 1.000000 2.746309 10.751914 1.200000 2.746309 11.526994 1.000000 2.746309 11.526994 1.200000 2.751800 6.469940 1.000000 2.751800 6.469940 1.200000 2.751800 8.469940 1.000000 2.751800 8.469940 1.200000 2.754092 6.374830 1.000000 2.754092 6.374830 1.200000 2.754092 8.374830 1.000000 2.754092 8.374830 1.200000 2.754170 6.800180 1.000000 2.754170 6.800180 1.200000 2.754170 8.800180 1.000000 2.754170 8.800180 1.200000 2.792742 6.538602 1.000000 2.792742 6.538602 1.200000 2.792742 8.538603 1.000000 2.792742 8.538603 1.200000 2.793335 6.736102 1.000000 2.793335 6.736102 1.200000 2.793335 8.736102 1.000000 2.793335 8.736102 1.200000 2.806390 6.640150 1.000000 2.806390 6.640150 1.200000 2.806390 8.640150 1.000000 2.806390 8.640150 1.200000 2.844370 4.916830 1.000000 2.844370 4.916830 1.200000 2.847415 2.605570 1.000000 2.847415 2.605570 1.200000 2.856910 6.429250 1.000000 2.856910 6.429250 1.200000 2.856910 8.429250 1.000000 2.856910 8.429250 1.200000 2.857930 6.842405 1.000000 2.857930 6.842405 1.200000 2.857930 8.842405 1.000000 2.857930 8.842405 1.200000 2.863685 2.845620 1.000000 2.863685 2.845620 1.200000 2.865919 11.526994 1.000000 2.865919 11.526994 1.200000 2.873245 10.751914 1.000000 2.873245 10.751914 1.200000 2.876240 4.819180 1.000000 2.876240 4.819180 1.200000 2.894205 2.845620 1.000000 2.894205 2.845620 1.200000 2.918407 11.636866 1.000000 2.918407 11.636866 1.200000 2.920232 6.518595 1.000000 2.920232 6.518595 1.200000 2.920232 8.518595 1.000000 2.920232 8.518595 1.200000 2.930611 10.642042 1.000000 2.930611 10.642042 1.200000 2.941340 6.641510 1.000000 2.941340 6.641510 1.200000 2.941340 8.641510 1.000000 2.941340 8.641510 1.200000 2.973210 4.916830 1.000000 2.973210 4.916830 1.200000 3.006301 10.000000 1.000000 3.006301 10.000000 1.200000 3.006301 10.064692 1.000000 3.006301 10.064692 1.200000 3.026110 4.000000 1.000000 3.026110 4.000000 1.200000 3.026110 4.035940 1.000000 3.026110 4.035940 1.200000 3.036960 4.377720 1.000000 3.036960 4.377720 1.200000 3.037000 6.000000 1.000000 3.037000 6.000000 1.200000 3.037000 6.035940 1.000000 3.037000 6.035940 1.200000 3.037000 6.873430 1.000000 3.037000 6.873430 1.200000 3.037000 6.909370 1.000000 3.037000 6.909370 1.200000 3.037000 8.000000 1.000000 3.037000 8.000000 1.200000 3.037000 8.035940 1.000000 3.037000 8.035940 1.200000 3.037000 8.873430 1.000000 3.037000 8.873430 1.200000 3.037000 8.909370 1.000000 3.037000 8.909370 1.200000 3.052520 10.775409 1.000000 3.052520 10.775409 1.200000 3.056030 11.505326 1.000000 3.056030 11.505326 1.200000 3.057980 4.316680 1.000000 3.057980 4.316680 1.200000 3.083395 1.978980 1.000000 3.083395 1.978980 1.200000 3.119335 1.978980 1.000000 3.119335 1.978980 1.200000 3.130185 2.214970 1.000000 3.130185 2.214970 1.200000 3.148170 4.054249 1.000000 3.148170 4.054249 1.200000 3.153640 6.054250 1.000000 3.153640 6.054250 1.200000 3.153640 6.855790 1.000000 3.153640 6.855790 1.200000 3.153640 8.054250 1.000000 3.153640 8.054250 1.200000 3.153640 8.481130 1.000000 3.153640 8.855790 1.000000 3.153640 8.855790 1.200000 3.177787 10.845892 1.000000 3.177787 10.845892 1.200000 3.181913 10.674694 1.000000 3.181913 10.674694 1.200000 3.182053 11.440324 1.000000 3.182053 11.440324 1.200000 3.194615 2.873430 1.000000 3.194615 2.873430 1.200000 3.194615 2.909370 1.000000 3.194615 2.909370 1.200000 3.224840 6.054250 1.000000 3.224840 6.054250 1.200000 3.224840 6.817820 1.000000 3.224840 6.817820 1.200000 3.224840 8.054250 1.000000 3.224840 8.054250 1.200000 3.224840 8.817820 1.000000 3.224840 8.817820 1.200000 3.251483 10.969484 1.000000 3.251483 10.969484 1.200000 3.252550 11.324985 1.000000 3.252550 11.324985 1.200000 3.276049 11.152270 1.000000 3.276049 11.152270 1.200000 3.295320 4.054249 1.000000 3.295320 4.054249 1.200000 3.312320 6.909370 1.000000 3.312320 6.909370 1.200000 3.312320 8.909370 1.000000 3.312320 8.909370 1.200000 3.336335 2.855790 1.000000 3.336335 2.855790 1.200000 3.346900 6.000000 1.000000 3.346900 6.000000 1.200000 3.346900 6.035940 1.000000 3.346900 6.035940 1.200000 3.346900 8.000000 1.000000 3.346900 8.000000 1.200000 3.346900 8.035940 1.000000 3.346900 8.035940 1.200000 3.366985 10.772650 1.000000 3.366985 10.772650 1.200000 3.368821 11.516329 1.000000 3.368821 11.516329 1.200000 3.410610 4.000000 1.000000 3.410610 4.000000 1.200000 3.410610 4.035940 1.000000 3.410610 4.035940 1.200000 3.416355 2.855790 1.000000 3.416355 2.855790 1.200000 3.460850 4.873430 1.000000 3.460850 4.873430 1.200000 3.460850 4.909370 1.000000 3.460850 4.909370 1.200000 3.469670 4.000000 1.000000 3.469670 4.000000 1.200000 3.469670 4.035940 1.000000 3.469670 4.035940 1.200000 3.480965 10.933471 1.000000 3.480965 10.933471 1.200000 3.495695 2.873430 1.000000 3.495695 2.873430 1.200000 3.495695 2.909370 1.000000 3.495695 2.909370 1.200000 3.499855 2.873430 1.000000 3.499855 2.873430 1.200000 3.499855 2.909370 1.000000 3.499855 2.909370 1.200000 3.518959 11.154718 1.000000 3.518959 11.154718 1.200000 3.577490 4.054249 1.000000 3.577490 4.054249 1.200000 3.577490 4.855790 1.000000 3.577490 4.855790 1.200000 3.579195 2.855790 1.000000 3.579195 2.855790 1.200000 3.658160 6.873430 1.000000 3.658160 6.873430 1.200000 3.658160 6.909370 1.000000 3.658160 6.909370 1.200000 3.658160 8.873430 1.000000 3.658160 8.873430 1.200000 3.658160 8.909370 1.000000 3.658160 8.909370 1.200000 3.708370 4.054249 1.000000 3.708370 4.054249 1.200000 3.708370 4.398740 1.000000 3.708370 4.398740 1.200000 3.708370 4.459770 1.000000 3.708370 4.459770 1.200000 3.708370 4.848330 1.000000 3.708370 4.848330 1.200000 3.709453 10.000000 1.000000 3.709453 10.000000 1.200000 3.709453 10.064692 1.000000 3.709453 10.064692 1.200000 3.709453 11.572174 1.000000 3.709453 11.572174 1.200000 3.709453 11.636866 1.000000 3.709453 11.636866 1.200000 3.713465 2.855790 1.000000 3.713465 2.855790 1.200000 3.780220 6.235990 1.000000 3.780220 6.235990 1.200000 3.780220 6.855790 1.000000 3.780220 6.855790 1.200000 3.780220 8.235989 1.000000 3.780220 8.235989 1.200000 3.780220 8.855790 1.000000 3.780220 8.855790 1.200000 3.785650 6.000000 1.000000 3.785650 6.000000 1.200000 3.785650 8.000000 1.000000 3.785650 8.000000 1.200000 3.824320 4.848330 1.000000 3.824320 4.848330 1.200000 3.828390 4.459770 1.000000 3.828390 4.459770 1.200000 3.846020 4.000000 1.000000 3.846020 4.000000 1.200000 3.846020 4.035940 1.000000 3.846020 4.035940 1.200000 3.847055 2.873430 1.000000 3.847055 2.873430 1.200000 3.847055 2.909370 1.000000 3.847055 2.909370 1.200000 3.851430 6.000000 1.000000 3.851430 6.000000 1.200000 3.851430 6.855790 1.000000 3.851430 6.855790 1.200000 3.851430 8.000000 1.000000 3.851430 8.000000 1.200000 3.851430 8.855790 1.000000 3.851430 8.855790 1.200000 3.853480 4.909370 1.000000 3.853480 4.909370 1.200000 3.871790 4.398740 1.000000 3.871790 4.398740 1.200000 3.880275 1.978980 1.000000 3.880275 1.978980 1.200000 3.916225 1.978980 1.000000 3.916225 1.978980 1.200000 3.919405 10.097650 1.000000 3.919405 10.097650 1.200000 3.919405 11.540422 1.000000 3.919405 11.540422 1.200000 3.929785 2.214970 1.000000 3.929785 2.214970 1.200000 3.932057 4.837395 1.000000 3.932057 4.837395 1.200000 3.932230 4.471042 1.000000 3.932230 4.471042 1.200000 3.968070 6.873430 1.000000 3.968070 6.873430 1.200000 3.968070 6.909370 1.000000 3.968070 6.909370 1.200000 3.968070 8.873430 1.000000 3.968070 8.873430 1.200000 3.968070 8.909370 1.000000 3.968070 8.909370 1.200000 4.000640 4.417730 1.000000 4.000640 4.417730 1.200000 4.000970 4.504860 1.000000 4.000970 4.504860 1.200000 4.001649 4.804590 1.000000 4.001649 4.804590 1.200000 4.001989 4.894957 1.000000 4.001989 4.894957 1.200000 4.039370 4.565470 1.000000 4.039370 4.565470 1.200000 4.039539 4.745852 1.000000 4.039539 4.745852 1.200000 4.052169 4.657100 1.000000 4.052169 4.657100 1.200000 4.056960 6.444170 1.000000 4.056960 6.444170 1.200000 4.056960 8.444170 1.000000 4.056960 8.444170 1.200000 4.078625 4.453580 1.000000 4.078625 4.453580 1.200000 4.086627 6.650235 1.000000 4.086627 6.650235 1.200000 4.086627 8.650235 1.000000 4.086627 8.650235 1.200000 4.087814 6.251327 1.000000 4.087814 6.251327 1.200000 4.087814 8.251327 1.000000 4.087814 8.251327 1.200000 4.105740 4.851720 1.000000 4.105740 4.851720 1.200000 4.127450 4.000000 1.000000 4.127450 4.000000 1.200000 4.137620 4.509610 1.000000 4.137620 4.509610 1.200000 4.153765 10.097650 1.000000 4.153765 10.097650 1.200000 4.153765 11.540422 1.000000 4.153765 11.540422 1.200000 4.158315 2.605570 1.000000 4.158315 2.605570 1.200000 4.166775 4.776620 1.000000 4.166775 4.776620 1.200000 4.174584 2.845620 1.000000 4.174584 2.845620 1.200000 4.174745 4.581917 1.000000 4.174745 4.581917 1.200000 4.175630 6.799170 1.000000 4.175630 6.799170 1.200000 4.175630 8.799170 1.000000 4.175630 8.799170 1.200000 4.180379 6.106800 1.000000 4.180379 6.106800 1.200000 4.180379 8.106800 1.000000 4.180379 8.106800 1.200000 4.187120 4.666600 1.000000 4.187120 4.666600 1.200000 4.198690 6.445530 1.000000 4.198690 6.445530 1.200000 4.198690 8.445530 1.000000 4.198690 8.445530 1.200000 4.205105 2.845620 1.000000 4.205105 2.845620 1.200000 4.218695 6.632350 1.000000 4.218695 6.632350 1.200000 4.218695 8.632350 1.000000 4.218695 8.632350 1.200000 4.219627 6.270912 1.000000 4.219627 6.270912 1.200000 4.219627 8.270912 1.000000 4.219627 8.270912 1.200000 4.246800 4.054249 1.000000 4.246800 4.054249 1.200000 4.278710 6.762890 1.000000 4.278710 6.762890 1.200000 4.278710 8.762890 1.000000 4.278710 8.762890 1.200000 4.282440 6.143080 1.000000 4.282440 6.143080 1.200000 4.282440 8.143080 1.000000 4.282440 8.143080 1.200000 4.322957 6.889447 1.000000 4.322957 6.889447 1.200000 4.322957 8.889447 1.000000 4.322957 8.889447 1.200000 4.328212 6.016530 1.000000 4.328212 6.016530 1.200000 4.328212 8.016530 1.000000 4.328212 8.016530 1.200000 4.345120 4.000000 1.000000 4.345120 4.000000 1.200000 4.345120 4.035940 1.000000 4.345120 4.035940 1.200000 4.363717 10.000000 1.000000 4.363717 10.000000 1.200000 4.363717 10.064692 1.000000 4.363717 10.064692 1.200000 4.363717 11.572174 1.000000 4.363717 11.572174 1.200000 4.363717 11.636866 1.000000 4.363717 11.636866 1.200000 4.382295 6.839690 1.000000 4.382295 6.839690 1.200000 4.382295 8.839690 1.000000 4.382295 8.839690 1.200000 4.385262 6.064757 1.000000 4.385262 6.064757 1.200000 4.385262 8.064757 1.000000 4.385262 8.064757 1.200000 4.387230 4.000000 1.000000 4.387230 4.000000 1.200000 4.387230 4.035940 1.000000 4.387230 4.035940 1.200000 4.387230 4.873430 1.000000 4.387230 4.873430 1.200000 4.387230 4.909370 1.000000 4.387230 4.909370 1.200000 4.394295 1.978980 1.000000 4.394295 1.978980 1.200000 4.430235 1.978980 1.000000 4.430235 1.978980 1.200000 4.441085 2.214970 1.000000 4.441085 2.214970 1.200000 4.503870 4.054249 1.000000 4.503870 4.054249 1.200000 4.503870 4.855790 1.000000 4.503870 4.855790 1.200000 4.505515 2.873430 1.000000 4.505515 2.873430 1.200000 4.505515 2.909370 1.000000 4.505515 2.909370 1.200000 4.524870 5.986440 1.000000 4.524870 5.986440 1.200000 4.524870 7.986440 1.000000 4.524870 7.986440 1.200000 4.526230 6.038650 1.000000 4.526230 6.038650 1.200000 4.526230 8.038649 1.000000 4.526230 8.038649 1.200000 4.527580 6.919540 1.000000 4.527580 6.919540 1.200000 4.527580 8.919540 1.000000 4.527580 8.919540 1.200000 4.533010 6.865290 1.000000 4.533010 6.865290 1.200000 4.533010 8.865290 1.000000 4.533010 8.865290 1.200000 4.554175 10.799506 1.000000 4.554175 10.799506 1.200000 4.575070 4.054249 1.000000 4.575070 4.054249 1.200000 4.575070 4.781880 1.000000 4.575070 4.781880 1.200000 4.597515 6.861305 1.000000 4.597515 6.861305 1.200000 4.597515 8.861305 1.000000 4.597515 8.861305 1.200000 4.601327 6.043312 1.000000 4.601327 6.043312 1.200000 4.601327 8.043312 1.000000 4.601327 8.043312 1.200000 4.607576 11.170423 1.000000 4.607576 11.170423 1.200000 4.609714 10.452390 1.000000 4.609714 10.452390 1.200000 4.647235 2.855790 1.000000 4.647235 2.855790 1.200000 4.660830 6.849350 1.000000 4.660830 6.849350 1.200000 4.660830 8.849350 1.000000 4.660830 8.849350 1.200000 4.662550 4.909370 1.000000 4.662550 4.909370 1.200000 4.672020 6.057300 1.000000 4.672020 6.057300 1.200000 4.672020 8.057299 1.000000 4.672020 8.057299 1.200000 4.674565 6.910892 1.000000 4.674565 6.910892 1.200000 4.674565 8.910892 1.000000 4.674565 8.910892 1.200000 4.690837 5.997120 1.000000 4.690837 5.997120 1.200000 4.690837 7.997120 1.000000 4.690837 7.997120 1.200000 4.697130 4.000000 1.000000 4.697130 4.000000 1.200000 4.697130 4.035940 1.000000 4.697130 4.035940 1.200000 4.719745 6.830112 1.000000 4.719745 6.830112 1.200000 4.719745 8.830112 1.000000 4.719745 8.830112 1.200000 4.727255 2.855790 1.000000 4.727255 2.855790 1.200000 4.733390 6.079085 1.000000 4.733390 6.079085 1.200000 4.733390 8.079085 1.000000 4.733390 8.079085 1.200000 4.767781 11.438506 1.000000 4.767781 11.438506 1.200000 4.771030 6.804260 1.000000 4.771030 6.804260 1.200000 4.771030 8.804260 1.000000 4.771030 8.804260 1.200000 4.776331 10.192240 1.000000 4.776331 10.192240 1.200000 4.780520 6.107140 1.000000 4.780520 6.107140 1.200000 4.780520 8.107139 1.000000 4.780520 8.107139 1.200000 4.791370 6.686260 1.000000 4.791370 6.686260 1.200000 4.791370 8.686260 1.000000 4.791370 8.686260 1.200000 4.805610 6.242770 1.000000 4.805610 6.242770 1.200000 4.805610 8.242770 1.000000 4.805610 8.242770 1.200000 4.806595 2.873430 1.000000 4.806595 2.873430 1.200000 4.806595 2.909370 1.000000 4.806595 2.909370 1.200000 4.809289 10.801954 1.000000 4.809289 10.801954 1.200000 4.832060 6.884950 1.000000 4.832060 6.884950 1.200000 4.832060 8.884950 1.000000 4.832060 8.884950 1.200000 4.836130 6.686260 1.000000 4.836130 6.686260 1.200000 4.836130 8.686260 1.000000 4.836130 8.686260 1.200000 4.845298 11.138230 1.000000 4.845298 11.138230 1.200000 4.845620 6.029160 1.000000 4.845620 6.029160 1.200000 4.845620 8.029159 1.000000 4.845620 8.029159 1.200000 4.846976 10.487642 1.000000 4.846976 10.487642 1.200000 4.849405 2.000000 1.000000 4.849405 2.000000 1.200000 4.849405 2.035939 1.000000 4.849405 2.035939 1.200000 4.849405 2.873430 1.000000 4.849405 2.873430 1.200000 4.849405 2.909370 1.000000 4.849405 2.909370 1.200000 4.849690 6.242770 1.000000 4.849690 6.242770 1.200000 4.849690 8.242770 1.000000 4.849690 8.242770 1.200000 4.908030 4.000000 1.000000 4.908030 4.000000 1.200000 4.931760 4.000000 1.000000 4.931760 4.000000 1.200000 4.953325 11.373202 1.000000 4.953325 11.373202 1.200000 4.958210 4.217680 1.000000 4.958210 4.217680 1.200000 4.960039 10.257544 1.000000 4.960039 10.257544 1.200000 4.966045 2.054250 1.000000 4.966045 2.054250 1.200000 4.966045 2.855790 1.000000 4.966045 2.855790 1.200000 4.966390 6.873430 1.000000 4.966390 6.873430 1.200000 4.966390 6.909370 1.000000 4.966390 6.909370 1.200000 4.966390 8.873430 1.000000 4.966390 8.873430 1.200000 4.966390 8.909370 1.000000 4.966390 8.909370 1.200000 4.975210 6.000000 1.000000 4.975210 6.000000 1.200000 4.975210 6.035940 1.000000 4.975210 6.035940 1.200000 4.975210 8.000000 1.000000 4.975210 8.000000 1.200000 4.975210 8.035940 1.000000 4.975210 8.035940 1.200000 5.032970 11.601006 1.000000 5.032970 11.601006 1.200000 5.037245 2.054250 1.000000 5.037245 2.054250 1.200000 5.037245 2.817820 1.000000 5.037245 2.817820 1.200000 5.042429 10.029754 1.000000 5.042429 10.029754 1.200000 5.083030 6.054250 1.000000 5.083030 6.054250 1.200000 5.083030 6.855790 1.000000 5.083030 6.855790 1.200000 5.083030 8.054250 1.000000 5.083030 8.054250 1.200000 5.083030 8.855790 1.000000 5.083030 8.855790 1.200000 5.124725 2.909370 1.000000 5.124725 2.909370 1.200000 5.139778 11.511442 1.000000 5.139778 11.511442 1.200000 5.145119 10.116564 1.000000 5.145119 10.116564 1.200000 5.159305 2.000000 1.000000 5.159305 2.000000 1.200000 5.159305 2.035939 1.000000 5.159305 2.035939 1.200000 5.172500 4.000000 1.000000 5.172500 4.000000 1.200000 5.172500 4.035940 1.000000 5.172500 4.035940 1.200000 5.213910 6.054250 1.000000 5.213910 6.054250 1.200000 5.213910 6.356690 1.000000 5.213910 6.356690 1.200000 5.213910 6.417730 1.000000 5.213910 6.417730 1.200000 5.213910 6.848330 1.000000 5.213910 6.848330 1.200000 5.213910 8.054250 1.000000 5.213910 8.054250 1.200000 5.213910 8.356690 1.000000 5.213910 8.356690 1.200000 5.213910 8.417730 1.000000 5.213910 8.417730 1.200000 5.213910 8.848330 1.000000 5.213910 8.848330 1.200000 5.280360 6.848330 1.000000 5.280360 6.848330 1.200000 5.280360 8.848330 1.000000 5.280360 8.848330 1.200000 5.281000 4.909370 1.000000 5.281000 4.909370 1.200000 5.284430 6.417730 1.000000 5.284430 6.417730 1.200000 5.284430 8.417730 1.000000 5.284430 8.417730 1.200000 5.294560 4.054249 1.000000 5.294560 4.054249 1.200000 5.294560 4.781880 1.000000 5.294560 4.781880 1.200000 5.309520 6.909370 1.000000 5.309520 6.909370 1.200000 5.309520 8.909370 1.000000 5.309520 8.909370 1.200000 5.316300 6.356690 1.000000 5.316300 6.356690 1.200000 5.316300 8.356690 1.000000 5.316300 8.356690 1.200000 5.358350 6.000000 1.000000 5.358350 6.000000 1.200000 5.358350 6.035940 1.000000 5.358350 6.035940 1.200000 5.358350 8.000000 1.000000 5.358350 8.000000 1.200000 5.358350 8.035940 1.000000 5.358350 8.035940 1.200000 5.384027 6.430782 1.000000 5.384027 6.430782 1.200000 5.384027 8.430782 1.000000 5.384027 8.430782 1.200000 5.385977 6.836292 1.000000 5.385977 6.836292 1.200000 5.385977 8.836292 1.000000 5.385977 8.836292 1.200000 5.396413 9.975592 1.000000 5.396413 9.975592 1.200000 5.398861 10.069570 1.000000 5.398861 10.069570 1.200000 5.401291 11.655172 1.000000 5.401291 11.655172 1.200000 5.411065 11.557522 1.000000 5.411065 11.557522 1.200000 5.424760 4.054249 1.000000 5.424760 4.054249 1.200000 5.424760 4.855790 1.000000 5.424760 4.855790 1.200000 5.453620 6.469940 1.000000 5.453620 6.469940 1.200000 5.453620 8.469940 1.000000 5.453620 8.469940 1.200000 5.455912 6.374830 1.000000 5.455912 6.374830 1.200000 5.455912 8.374830 1.000000 5.455912 8.374830 1.200000 5.455990 6.800180 1.000000 5.455990 6.800180 1.200000 5.455990 8.800180 1.000000 5.455990 8.800180 1.200000 5.470565 2.873430 1.000000 5.470565 2.873430 1.200000 5.470565 2.909370 1.000000 5.470565 2.909370 1.200000 5.494562 6.538602 1.000000 5.494562 6.538602 1.200000 5.494562 8.538603 1.000000 5.494562 8.538603 1.200000 5.495155 6.736102 1.000000 5.495155 6.736102 1.200000 5.495155 8.736102 1.000000 5.495155 8.736102 1.200000 5.508210 6.640150 1.000000 5.508210 6.640150 1.200000 5.508210 8.640150 1.000000 5.508210 8.640150 1.200000 5.527174 11.550349 1.000000 5.527174 11.550349 1.200000 5.534036 10.077963 1.000000 5.534036 10.077963 1.200000 5.541400 4.000000 1.000000 5.541400 4.000000 1.200000 5.541400 4.035940 1.000000 5.541400 4.035940 1.200000 5.541400 4.873430 1.000000 5.541400 4.873430 1.200000 5.541400 4.909370 1.000000 5.541400 4.909370 1.200000 5.558730 6.429250 1.000000 5.558730 6.429250 1.200000 5.558730 8.429250 1.000000 5.558730 8.429250 1.200000 5.559750 6.842405 1.000000 5.559750 6.842405 1.200000 5.559750 8.842405 1.000000 5.559750 8.842405 1.200000 5.592625 2.235990 1.000000 5.592625 2.235990 1.200000 5.592625 2.855790 1.000000 5.592625 2.855790 1.200000 5.598055 2.000000 1.000000 5.598055 2.000000 1.200000 5.622052 6.518595 1.000000 5.622052 6.518595 1.200000 5.622052 8.518595 1.000000 5.622052 8.518595 1.200000 5.641141 11.528830 1.000000 5.641141 11.528830 1.200000 5.643160 6.641510 1.000000 5.643160 6.641510 1.200000 5.643160 8.641510 1.000000 5.643160 8.641510 1.200000 5.661283 10.103140 1.000000 5.661283 10.103140 1.200000 5.663835 2.000000 1.000000 5.663835 2.000000 1.200000 5.663835 2.855790 1.000000 5.663835 2.855790 1.200000 5.665864 11.639606 1.000000 5.665864 11.639606 1.200000 5.695154 9.994816 1.000000 5.695154 9.994816 1.200000 5.738820 6.000000 1.000000 5.738820 6.000000 1.200000 5.738820 6.035940 1.000000 5.738820 6.035940 1.200000 5.738820 6.873430 1.000000 5.738820 6.873430 1.200000 5.738820 6.909370 1.000000 5.738820 6.909370 1.200000 5.738820 8.000000 1.000000 5.738820 8.000000 1.200000 5.738820 8.035940 1.000000 5.738820 8.035940 1.200000 5.738820 8.873430 1.000000 5.738820 8.873430 1.200000 5.738820 8.909370 1.000000 5.738820 8.909370 1.200000 5.747188 11.494203 1.000000 5.747188 11.494203 1.200000 5.771749 10.142353 1.000000 5.771749 10.142353 1.200000 5.780475 2.873430 1.000000 5.780475 2.873430 1.200000 5.780475 2.909370 1.000000 5.780475 2.909370 1.200000 5.839501 11.447668 1.000000 5.839501 11.447668 1.200000 5.852415 2.000000 1.000000 5.852415 2.000000 1.200000 5.852415 2.035939 1.000000 5.852415 2.035939 1.200000 5.852415 2.873430 1.000000 5.852415 2.873430 1.200000 5.852415 2.909370 1.000000 5.852415 2.909370 1.200000 5.855460 6.054250 1.000000 5.855460 6.054250 1.200000 5.855460 6.855790 1.000000 5.855460 6.855790 1.200000 5.855460 8.054250 1.000000 5.855460 8.054250 1.200000 5.855460 8.855790 1.000000 5.855460 8.855790 1.200000 5.856583 10.192852 1.000000 5.856583 10.192852 1.200000 5.876113 11.235268 1.000000 5.876113 11.235268 1.200000 5.901745 10.436986 1.000000 5.901745 10.436986 1.200000 5.926660 6.054250 1.000000 5.926660 6.054250 1.200000 5.926660 6.817820 1.000000 5.926660 6.817820 1.200000 5.926660 8.054250 1.000000 5.926660 8.054250 1.200000 5.926660 8.817820 1.000000 5.926660 8.817820 1.200000 5.949355 11.592910 1.000000 5.949355 11.592910 1.200000 5.956681 11.235268 1.000000 5.956681 11.235268 1.200000 5.969055 2.054250 1.000000 5.969055 2.054250 1.200000 5.969055 2.855790 1.000000 5.969055 2.855790 1.200000 5.973763 10.052488 1.000000 5.973763 10.052488 1.200000 5.981089 10.436986 1.000000 5.981089 10.436986 1.200000 6.014140 6.909370 1.000000 6.014140 6.909370 1.200000 6.014140 8.909370 1.000000 6.014140 8.909370 1.200000 6.040255 2.054250 1.000000 6.040255 2.054250 1.200000 6.040255 2.817820 1.000000 6.040255 2.817820 1.200000 6.048720 6.000000 1.000000 6.048720 6.000000 1.200000 6.048720 6.035940 1.000000 6.048720 6.035940 1.200000 6.048720 8.000000 1.000000 6.048720 8.000000 1.200000 6.048720 8.035940 1.000000 6.048720 8.035940 1.200000 6.127735 2.909370 1.000000 6.127735 2.909370 1.200000 6.162315 2.000000 1.000000 6.162315 2.000000 1.200000 6.162315 2.035939 1.000000 6.162315 2.035939 1.200000 6.238759 10.372294 1.000000 6.238759 10.372294 1.200000 6.252187 10.028080 1.000000 6.252187 10.028080 1.200000 6.288799 11.287756 1.000000 6.288799 11.287756 1.200000 6.288799 11.602684 1.000000 6.288799 11.602684 1.200000 6.319309 10.372294 1.000000 6.319309 10.372294 1.200000 6.359980 6.873430 1.000000 6.359980 6.873430 1.200000 6.359980 6.909370 1.000000 6.359980 6.909370 1.200000 6.359980 8.873430 1.000000 6.359980 8.873430 1.200000 6.359980 8.909370 1.000000 6.359980 8.909370 1.200000 6.369367 11.287756 1.000000 6.369367 11.287756 1.200000 6.374245 10.142812 1.000000 6.374245 10.142812 1.200000 6.401393 11.629077 1.000000 6.401393 11.629077 1.200000 6.412081 11.487934 1.000000 6.412081 11.487934 1.200000 6.431768 10.117787 1.000000 6.431768 10.117787 1.200000 6.465793 9.988714 1.000000 6.465793 9.988714 1.200000 6.470063 11.514336 1.000000 6.470063 11.514336 1.200000 6.473575 2.873430 1.000000 6.473575 2.873430 1.200000 6.473575 2.909370 1.000000 6.473575 2.909370 1.200000 6.482040 6.235990 1.000000 6.482040 6.235990 1.200000 6.482040 6.855790 1.000000 6.482040 6.855790 1.200000 6.482040 8.235989 1.000000 6.482040 8.235989 1.200000 6.482040 8.855790 1.000000 6.482040 8.855790 1.200000 6.487470 6.000000 1.000000 6.487470 6.000000 1.200000 6.487470 8.000000 1.000000 6.487470 8.000000 1.200000 6.497509 11.644786 1.000000 6.497509 11.644786 1.200000 6.509119 10.096426 1.000000 6.509119 10.096426 1.200000 6.526813 10.804384 1.000000 6.526813 10.804384 1.200000 6.526813 10.904482 1.000000 6.526813 10.904482 1.200000 6.536587 11.534932 1.000000 6.536587 11.534932 1.200000 6.553250 6.000000 1.000000 6.553250 6.000000 1.200000 6.553250 6.855790 1.000000 6.553250 6.855790 1.200000 6.553250 8.000000 1.000000 6.553250 8.000000 1.200000 6.553250 8.855790 1.000000 6.553250 8.855790 1.200000 6.585097 11.652575 1.000000 6.585097 11.652575 1.200000 6.593498 10.081779 1.000000 6.593498 10.081779 1.200000 6.595635 2.235990 1.000000 6.595635 2.235990 1.200000 6.595635 2.855790 1.000000 6.595635 2.855790 1.200000 6.601065 2.000000 1.000000 6.601065 2.000000 1.200000 6.605855 11.548216 1.000000 6.605855 11.548216 1.200000 6.666845 2.000000 1.000000 6.666845 2.000000 1.200000 6.666845 2.855790 1.000000 6.666845 2.855790 1.200000 6.669890 6.873430 1.000000 6.669890 6.873430 1.200000 6.669890 6.909370 1.000000 6.669890 6.909370 1.200000 6.669890 8.873430 1.000000 6.669890 8.873430 1.200000 6.669890 8.909370 1.000000 6.669890 8.909370 1.200000 6.672073 10.076896 1.000000 6.672073 10.076896 1.200000 6.672073 11.552644 1.000000 6.672073 11.552644 1.200000 6.672073 11.655172 1.000000 6.672073 11.655172 1.200000 6.691603 9.975592 1.000000 6.691603 9.975592 1.200000 6.701377 10.794628 1.000000 6.701377 10.794628 1.200000 6.701377 10.915462 1.000000 6.701377 10.915462 1.200000 6.783485 2.873430 1.000000 6.783485 2.873430 1.200000 6.783485 2.909370 1.000000 6.783485 2.909370 1.200000 6.807104 11.533875 1.000000 6.807104 11.533875 1.200000 6.821293 10.940487 1.000000 6.821293 10.940487 1.200000 6.838694 10.098865 1.000000 6.838694 10.098865 1.200000 6.839293 10.856872 1.000000 6.839293 10.856872 1.200000 6.855164 10.767313 1.000000 6.855164 10.767313 1.200000 6.855425 2.000000 1.000000 6.855425 2.000000 1.200000 6.855425 2.035939 1.000000 6.855425 2.035939 1.200000 6.855425 2.873430 1.000000 6.855425 2.873430 1.200000 6.855425 2.909370 1.000000 6.855425 2.909370 1.200000 6.899719 11.477566 1.000000 6.899719 11.477566 1.200000 6.905209 11.000908 1.000000 6.905209 11.000908 1.200000 6.937258 10.006719 1.000000 6.937258 10.006719 1.200000 6.953273 11.380074 1.000000 6.953273 11.380074 1.200000 6.954646 11.099170 1.000000 6.954646 11.099170 1.200000 6.955267 10.164772 1.000000 6.955267 10.164772 1.200000 6.962575 10.702468 1.000000 6.962575 10.702468 1.200000 6.971125 11.237716 1.000000 6.971125 11.237716 1.200000 6.972065 2.054250 1.000000 6.972065 2.054250 1.200000 6.972065 2.855790 1.000000 6.972065 2.855790 1.200000 6.990803 10.900365 1.000000 6.990803 10.900365 1.200000 7.023928 10.281961 1.000000 7.023928 10.281961 1.200000 7.025755 10.599481 1.000000 7.025755 10.599481 1.200000 7.032154 10.812169 1.000000 7.032154 10.812169 1.200000 7.043265 2.054250 1.000000 7.043265 2.054250 1.200000 7.043265 2.817820 1.000000 7.043265 2.817820 1.200000 7.046815 10.457740 1.000000 7.046815 10.457740 1.200000 7.065719 11.554471 1.000000 7.065719 11.554471 1.200000 7.103551 10.981990 1.000000 7.103551 10.981990 1.200000 7.120039 10.100098 1.000000 7.120039 10.100098 1.200000 7.130745 2.909370 1.000000 7.130745 2.909370 1.200000 7.165325 2.000000 1.000000 7.165325 2.000000 1.200000 7.165325 2.035939 1.000000 7.165325 2.035939 1.200000 7.166425 10.729324 1.000000 7.166425 10.729324 1.200000 7.173589 11.099939 1.000000 7.173589 11.099939 1.200000 7.196935 11.252368 1.000000 7.196935 11.252368 1.200000 7.233560 10.248711 1.000000 7.233560 10.248711 1.200000 7.245157 10.607419 1.000000 7.245157 10.607419 1.200000 7.271401 10.445536 1.000000 7.271401 10.445536 1.200000 7.476585 2.873430 1.000000 7.476585 2.873430 1.200000 7.476585 2.909370 1.000000 7.476585 2.909370 1.200000 7.478995 10.000000 1.000000 7.478995 10.000000 1.200000 7.478995 10.179424 1.000000 7.478995 10.179424 1.200000 7.533931 11.287756 1.000000 7.533931 11.287756 1.200000 7.533931 11.602684 1.000000 7.533931 11.602684 1.200000 7.598645 2.235990 1.000000 7.598645 2.235990 1.200000 7.598645 2.855790 1.000000 7.598645 2.855790 1.200000 7.604075 2.000000 1.000000 7.604075 2.000000 1.200000 7.614481 11.287756 1.000000 7.614481 11.287756 1.200000 7.638907 10.187974 1.000000 7.638907 10.187974 1.200000 7.657213 11.487934 1.000000 7.657213 11.487934 1.200000 7.669855 2.000000 1.000000 7.669855 2.000000 1.200000 7.669855 2.855790 1.000000 7.669855 2.855790 1.200000 7.706029 10.385722 1.000000 7.706029 10.385722 1.200000 7.713665 11.514336 1.000000 7.713665 11.514336 1.200000 7.739302 11.642050 1.000000 7.739302 11.642050 1.200000 7.757608 10.294476 1.000000 7.757608 10.294476 1.200000 7.778047 11.534932 1.000000 7.778047 11.534932 1.200000 7.786495 2.873430 1.000000 7.786495 2.873430 1.200000 7.786495 2.909370 1.000000 7.786495 2.909370 1.200000 7.845493 11.548216 1.000000 7.845493 11.548216 1.200000 7.869595 10.391824 1.000000 7.869595 10.391824 1.200000 7.895537 10.559044 1.000000 7.895537 10.559044 1.200000 7.911103 11.552644 1.000000 7.911103 11.552644 1.200000 7.911103 11.655172 1.000000 7.911103 11.655172 1.200000 8.000000 0.000000 0.000000 8.000000 0.000000 1.000000 8.000000 10.000000 0.900000 8.000000 10.000000 1.000000 8.000000 10.187974 0.900000 8.000000 10.187974 1.000000 8.000000 10.506796 0.900000 8.000000 10.506796 1.000000 8.000000 10.667627 0.900000 8.000000 10.667627 1.000000 8.000000 11.539529 0.900000 8.000000 11.539529 1.000000 8.000000 11.644615 0.900000 8.000000 11.644615 1.000000 8.000000 14.000000 0.000000 8.000000 14.000000 1.000000 8.027058 10.695754 0.900000 8.027058 10.695754 1.200000 8.051781 11.531890 0.900000 8.051781 11.531890 1.200000 8.087476 10.583920 0.900000 8.087476 10.583920 1.200000 8.115092 10.815985 0.900000 8.115092 10.815985 1.200000 8.146228 11.627250 0.900000 8.146228 11.627250 1.200000 8.146686 11.469628 0.900000 8.146686 11.469628 1.200000 8.174137 10.939870 0.900000 8.174137 10.939870 1.200000 8.200701 11.367707 0.900000 8.200701 11.367707 1.200000 8.207563 11.074753 0.900000 8.207563 11.074753 1.200000 8.218705 11.227942 0.900000 8.218705 11.227942 1.200000 8.233339 10.728100 0.900000 8.233339 10.728100 1.200000 8.314519 11.543482 0.900000 8.314519 11.543482 1.200000 8.329004 10.848641 0.900000 8.329004 10.848641 1.200000 8.396293 10.969786 0.900000 8.396293 10.969786 1.200000 8.415674 11.408752 0.900000 8.415674 11.408752 1.200000 8.436118 11.095048 0.900000 8.436118 11.095048 1.200000 8.449393 11.227942 0.900000 8.449393 11.227942 1.200000 8.481127 10.000000 0.900000 8.481127 10.000000 1.200000 8.481127 10.187974 0.900000 8.481127 10.187974 1.200000 "
							            />
						</IndexedFaceSet>
					</Shape>
					<Shape>
						<Appearance>
							<Material DEF="MA_Color_1"
							          diffuseColor="0.000 0.000 0.000"
							          specularColor="0.401 0.401 0.401"
							          emissiveColor="0.000 0.000 0.000"
							          ambientIntensity="0.000"
							          shininess="0.500"
							          transparency="1.000"
							          />
						</Appearance>
						<IndexedFaceSet solid="false"
						                coordIndex="18 19 20 -1 18 20 22 -1 18 22 24 -1 18 24 26 -1 18 26 29 -1 18 28 1499 -1 18 29 28 -1 18 1485 1486 -1 18 1486 19 -1 18 1499 1485 -1 19 21 20 -1 19 30 21 -1 19 34 36 -1 19 36 42 -1 19 40 30 -1 19 42 40 -1 19 46 48 -1 19 48 34 -1 19 88 46 -1 19 152 88 -1 19 242 152 -1 19 384 242 -1 19 394 384 -1 19 532 394 -1 19 534 532 -1 19 687 534 -1 19 689 687 -1 19 825 689 -1 19 827 825 -1 19 1486 827 -1 22 23 25 -1 22 25 24 -1 23 32 25 -1 25 32 40 -1 26 27 29 -1 27 50 76 -1 27 62 29 -1 27 66 62 -1 27 76 66 -1 28 29 1499 -1 29 56 64 -1 29 62 56 -1 29 64 68 -1 29 68 78 -1 29 78 94 -1 29 94 98 -1 29 98 1500 -1 29 1500 1499 -1 30 40 32 -1 34 48 38 -1 36 54 156 -1 36 134 42 -1 36 142 134 -1 36 156 142 -1 38 48 60 -1 42 84 86 -1 42 86 108 -1 42 134 138 -1 42 136 140 -1 42 138 144 -1 42 140 150 -1 42 144 136 -1 42 150 84 -1 44 70 52 -1 48 58 60 -1 50 92 76 -1 50 104 92 -1 52 70 96 -1 52 80 82 -1 52 82 54 -1 52 96 80 -1 54 82 200 -1 54 200 156 -1 72 90 128 -1 72 128 74 -1 74 128 102 -1 82 116 200 -1 84 150 194 -1 84 194 172 -1 86 106 108 -1 88 152 154 -1 88 154 196 -1 88 196 198 -1 88 198 90 -1 90 198 128 -1 92 104 100 -1 98 110 1500 -1 100 104 178 -1 100 178 112 -1 102 128 114 -1 110 118 1500 -1 112 178 120 -1 114 124 126 -1 114 126 116 -1 114 128 124 -1 116 126 200 -1 118 122 1500 -1 120 178 122 -1 122 178 1500 -1 126 190 200 -1 130 174 132 -1 132 174 474 -1 132 340 342 -1 132 342 176 -1 132 474 546 -1 132 546 340 -1 138 148 144 -1 144 148 158 -1 146 212 188 -1 148 192 158 -1 158 192 202 -1 160 168 286 -1 160 286 164 -1 162 170 288 -1 162 288 166 -1 164 286 180 -1 166 288 182 -1 168 184 286 -1 170 186 288 -1 172 194 228 -1 172 228 262 -1 172 262 174 -1 174 262 296 -1 174 296 324 -1 174 324 398 -1 174 398 474 -1 176 336 338 -1 176 338 1500 -1 176 342 336 -1 176 1500 178 -1 180 286 204 -1 182 288 206 -1 184 208 286 -1 186 210 288 -1 188 212 258 -1 188 234 236 -1 188 236 190 -1 188 258 234 -1 190 236 354 -1 190 354 356 -1 190 356 200 -1 192 226 202 -1 200 356 218 -1 202 226 260 -1 202 260 294 -1 202 294 320 -1 202 320 220 -1 204 286 230 -1 206 288 232 -1 208 222 286 -1 210 224 288 -1 214 244 326 -1 214 326 216 -1 216 310 276 -1 216 314 310 -1 216 326 314 -1 218 356 464 -1 218 464 264 -1 220 320 266 -1 222 246 298 -1 222 298 286 -1 224 248 300 -1 224 300 288 -1 230 286 238 -1 232 288 240 -1 236 312 354 -1 238 286 250 -1 240 288 252 -1 242 384 244 -1 244 384 326 -1 246 254 298 -1 248 256 300 -1 250 278 268 -1 250 286 278 -1 252 280 270 -1 252 288 280 -1 254 272 298 -1 256 274 300 -1 264 464 302 -1 266 320 304 -1 272 282 298 -1 274 284 300 -1 282 290 298 -1 284 292 300 -1 290 306 318 -1 290 318 298 -1 292 308 322 -1 292 322 300 -1 294 298 318 -1 294 318 320 -1 296 300 322 -1 296 322 324 -1 302 328 330 -1 302 330 344 -1 302 344 346 -1 302 346 306 -1 302 464 328 -1 304 320 332 -1 304 332 334 -1 304 334 348 -1 304 348 350 -1 304 350 308 -1 306 346 318 -1 308 350 322 -1 310 314 316 -1 310 316 312 -1 312 316 354 -1 316 382 354 -1 320 396 332 -1 328 464 408 -1 332 396 412 -1 336 342 360 -1 338 486 1500 -1 340 522 524 -1 340 524 577 -1 340 546 522 -1 340 577 631 -1 340 631 707 -1 340 707 757 -1 340 757 500 -1 342 358 360 -1 352 406 380 -1 354 382 428 -1 356 378 464 -1 362 410 364 -1 364 410 402 -1 366 386 368 -1 366 390 416 -1 366 416 440 -1 366 420 386 -1 366 440 452 -1 366 448 420 -1 366 452 460 -1 366 456 448 -1 366 460 456 -1 370 414 372 -1 372 414 404 -1 374 388 376 -1 374 392 418 -1 374 418 442 -1 374 422 388 -1 374 442 454 -1 374 450 422 -1 374 454 462 -1 374 458 450 -1 374 462 458 -1 380 406 476 -1 380 476 382 -1 382 476 428 -1 394 532 466 -1 396 472 412 -1 400 430 506 -1 400 506 424 -1 402 410 444 -1 404 414 446 -1 408 464 498 -1 408 498 510 -1 408 510 512 -1 408 512 410 -1 410 512 444 -1 412 472 516 -1 412 516 575 -1 412 518 520 -1 412 520 414 -1 412 575 627 -1 412 627 518 -1 414 520 446 -1 424 506 538 -1 424 538 530 -1 426 508 482 -1 428 476 484 -1 428 484 504 -1 428 504 506 -1 428 506 430 -1 432 502 434 -1 434 502 492 -1 436 478 438 -1 436 480 526 -1 436 526 549 -1 436 528 478 -1 436 549 567 -1 436 553 528 -1 436 567 571 -1 436 569 553 -1 436 571 569 -1 444 512 468 -1 446 520 470 -1 468 512 540 -1 468 540 488 -1 470 520 544 -1 470 544 546 -1 470 546 490 -1 472 494 514 -1 472 514 516 -1 474 496 546 -1 484 536 555 -1 484 555 557 -1 484 557 504 -1 486 591 1500 -1 488 540 494 -1 490 546 496 -1 492 502 551 -1 494 540 542 -1 494 542 514 -1 498 573 599 -1 498 581 510 -1 498 599 601 -1 498 601 733 -1 498 659 581 -1 498 675 659 -1 498 733 675 -1 500 641 643 -1 500 643 502 -1 500 757 791 -1 500 791 849 -1 500 849 887 -1 500 887 935 -1 500 935 979 -1 500 979 641 -1 502 643 551 -1 504 557 611 -1 504 611 593 -1 518 627 585 -1 522 546 547 -1 534 609 597 -1 534 613 609 -1 534 623 613 -1 534 687 623 -1 536 579 555 -1 551 643 589 -1 559 583 561 -1 561 583 659 -1 563 587 565 -1 565 587 755 -1 565 755 661 -1 573 595 621 -1 573 621 599 -1 575 625 627 -1 575 651 625 -1 577 629 631 -1 577 655 629 -1 581 659 583 -1 585 627 703 -1 585 703 587 -1 587 703 755 -1 589 643 693 -1 589 693 607 -1 591 617 645 -1 591 645 647 -1 591 647 1500 -1 593 603 605 -1 593 605 595 -1 593 611 603 -1 595 605 621 -1 601 683 759 -1 601 759 733 -1 603 611 615 -1 603 615 673 -1 603 673 667 -1 605 619 621 -1 607 693 617 -1 609 613 615 -1 609 615 611 -1 617 693 645 -1 625 651 653 -1 629 655 657 -1 633 669 635 -1 635 669 685 -1 637 663 639 -1 637 665 697 -1 637 697 663 -1 641 979 981 -1 641 981 801 -1 643 691 693 -1 647 807 1500 -1 649 695 671 -1 661 755 789 -1 661 789 679 -1 665 699 719 -1 665 713 697 -1 665 719 713 -1 667 673 739 -1 667 739 669 -1 669 739 685 -1 671 695 751 -1 671 751 673 -1 673 751 739 -1 675 723 729 -1 675 729 677 -1 675 733 723 -1 677 729 701 -1 679 705 681 -1 679 725 731 -1 679 731 705 -1 679 735 725 -1 679 789 847 -1 679 847 885 -1 679 885 933 -1 679 933 735 -1 683 715 759 -1 689 825 747 -1 699 711 717 -1 699 717 721 -1 699 721 719 -1 701 729 755 -1 701 755 703 -1 705 731 757 -1 705 757 707 -1 709 779 727 -1 715 737 793 -1 715 793 759 -1 727 779 833 -1 727 833 741 -1 735 933 761 -1 737 749 793 -1 739 751 769 -1 739 769 797 -1 741 833 753 -1 743 803 855 -1 743 805 745 -1 743 855 869 -1 743 869 805 -1 749 763 821 -1 749 821 823 -1 749 823 793 -1 753 821 763 -1 753 833 821 -1 761 933 975 -1 761 975 795 -1 765 775 843 -1 765 843 865 -1 765 865 881 -1 765 881 903 -1 765 903 915 -1 765 915 923 -1 765 923 771 -1 767 777 921 -1 767 921 773 -1 769 817 797 -1 769 829 835 -1 769 835 837 -1 769 837 817 -1 771 923 781 -1 773 921 783 -1 775 785 843 -1 777 787 921 -1 779 799 833 -1 781 923 809 -1 783 921 811 -1 785 813 843 -1 787 815 921 -1 793 823 839 -1 795 975 977 -1 795 977 841 -1 797 817 819 -1 797 819 799 -1 799 819 833 -1 801 913 803 -1 801 981 997 -1 801 997 913 -1 803 871 855 -1 803 913 871 -1 805 869 907 -1 805 907 807 -1 807 907 991 -1 807 991 1079 -1 807 1079 1500 -1 809 923 957 -1 809 957 851 -1 811 921 853 -1 815 845 921 -1 817 837 929 -1 817 929 893 -1 819 831 833 -1 823 879 839 -1 827 927 901 -1 827 949 951 -1 827 951 973 -1 827 953 927 -1 827 973 953 -1 827 1486 949 -1 829 873 835 -1 839 879 1041 -1 839 1041 889 -1 841 977 891 -1 845 867 939 -1 845 939 921 -1 851 957 861 -1 853 921 863 -1 857 895 859 -1 859 895 961 -1 861 957 875 -1 863 921 877 -1 867 883 939 -1 875 909 897 -1 875 957 909 -1 877 911 899 -1 877 921 911 -1 879 967 1041 -1 883 905 939 -1 889 1041 943 -1 891 977 945 -1 893 929 955 -1 893 955 961 -1 893 961 895 -1 905 917 939 -1 909 957 919 -1 917 925 939 -1 919 957 937 -1 925 959 979 -1 925 979 939 -1 927 953 955 -1 927 955 929 -1 931 947 1205 -1 931 1205 941 -1 933 937 975 -1 935 939 979 -1 937 957 975 -1 941 1205 965 -1 943 983 985 -1 943 985 957 -1 943 1041 1125 -1 943 1125 983 -1 945 977 987 -1 945 987 989 -1 945 989 1003 -1 945 1003 1005 -1 945 1005 959 -1 947 969 1205 -1 949 1486 1013 -1 951 971 973 -1 955 963 961 -1 955 1007 963 -1 957 985 975 -1 959 1005 979 -1 963 1007 1017 -1 963 1017 1019 -1 963 1019 1049 -1 965 1205 1009 -1 969 1011 1205 -1 975 985 1001 -1 977 1051 987 -1 981 1053 1253 -1 981 1075 997 -1 981 1159 1075 -1 981 1225 1159 -1 981 1253 1225 -1 983 1125 1059 -1 985 999 1001 -1 987 1051 1063 -1 993 1015 995 -1 995 1015 1139 -1 1007 1099 1101 -1 1007 1101 1017 -1 1007 1135 1099 -1 1009 1205 1081 -1 1011 1077 1205 -1 1013 1139 1015 -1 1013 1486 1139 -1 1017 1101 1119 -1 1019 1047 1049 -1 1021 1061 1023 -1 1023 1061 1055 -1 1025 1037 1027 -1 1025 1043 1067 -1 1025 1067 1087 -1 1025 1071 1037 -1 1025 1087 1103 -1 1025 1095 1071 -1 1025 1103 1111 -1 1025 1107 1095 -1 1025 1111 1107 -1 1029 1065 1031 -1 1031 1065 1057 -1 1033 1039 1035 -1 1033 1045 1069 -1 1033 1069 1089 -1 1033 1073 1039 -1 1033 1089 1105 -1 1033 1097 1073 -1 1033 1105 1113 -1 1033 1109 1097 -1 1033 1113 1109 -1 1051 1131 1063 -1 1053 1133 1253 -1 1055 1061 1091 -1 1057 1065 1093 -1 1059 1125 1161 -1 1059 1161 1163 -1 1059 1163 1061 -1 1061 1163 1091 -1 1063 1131 1167 -1 1063 1167 1169 -1 1063 1169 1171 -1 1063 1171 1065 -1 1065 1171 1093 -1 1077 1117 1219 -1 1077 1219 1205 -1 1079 1157 1500 -1 1081 1205 1115 -1 1083 1121 1085 -1 1085 1121 1321 -1 1085 1283 1285 -1 1085 1285 1355 -1 1085 1321 1283 -1 1085 1355 1373 -1 1085 1373 1415 -1 1085 1415 1123 -1 1091 1163 1127 -1 1093 1171 1129 -1 1099 1135 1137 -1 1101 1183 1119 -1 1115 1205 1145 -1 1117 1151 1219 -1 1119 1183 1193 -1 1119 1193 1245 -1 1119 1245 1121 -1 1121 1245 1321 -1 1123 1415 1435 -1 1123 1435 1473 -1 1123 1473 1125 -1 1125 1237 1161 -1 1125 1473 1237 -1 1127 1163 1195 -1 1127 1195 1141 -1 1129 1171 1199 -1 1129 1199 1143 -1 1131 1147 1165 -1 1131 1165 1167 -1 1133 1149 1173 -1 1133 1173 1175 -1 1133 1175 1253 -1 1139 1486 1153 -1 1141 1195 1147 -1 1143 1199 1149 -1 1145 1185 1177 -1 1145 1205 1185 -1 1147 1195 1197 -1 1147 1197 1165 -1 1149 1199 1201 -1 1149 1201 1173 -1 1151 1179 1219 -1 1153 1181 1155 -1 1153 1187 1189 -1 1153 1189 1223 -1 1153 1191 1181 -1 1153 1223 1191 -1 1153 1486 1187 -1 1157 1217 1500 -1 1167 1229 1169 -1 1169 1229 1241 -1 1175 1231 1253 -1 1179 1203 1219 -1 1181 1191 1193 -1 1181 1193 1183 -1 1187 1486 1247 -1 1189 1221 1223 -1 1203 1207 1219 -1 1207 1227 1219 -1 1209 1239 1211 -1 1211 1239 1295 -1 1213 1243 1215 -1 1215 1243 1297 -1 1217 1219 1257 -1 1217 1257 1500 -1 1219 1227 1303 -1 1219 1255 1257 -1 1219 1303 1305 -1 1219 1305 1255 -1 1225 1251 1227 -1 1225 1253 1251 -1 1227 1251 1259 -1 1227 1259 1407 -1 1227 1349 1303 -1 1227 1365 1349 -1 1227 1387 1365 -1 1227 1399 1387 -1 1227 1407 1399 -1 1229 1261 1263 -1 1229 1263 1241 -1 1229 1287 1261 -1 1231 1265 1267 -1 1231 1267 1253 -1 1231 1291 1265 -1 1233 1249 1235 -1 1235 1249 1325 -1 1237 1295 1239 -1 1237 1473 1295 -1 1241 1263 1297 -1 1241 1297 1243 -1 1247 1325 1249 -1 1247 1486 1325 -1 1253 1267 1279 -1 1255 1305 1269 -1 1257 1273 1500 -1 1259 1271 1319 -1 1259 1319 1341 -1 1259 1341 1361 -1 1259 1361 1385 -1 1259 1385 1397 -1 1259 1397 1407 -1 1261 1287 1289 -1 1263 1313 1297 -1 1263 1335 1488 -1 1263 1488 1313 -1 1265 1291 1293 -1 1267 1339 1279 -1 1269 1281 1275 -1 1269 1305 1351 -1 1269 1307 1281 -1 1269 1327 1307 -1 1269 1343 1327 -1 1269 1351 1359 -1 1269 1357 1343 -1 1269 1359 1377 -1 1269 1375 1357 -1 1269 1377 1383 -1 1269 1381 1375 -1 1269 1383 1389 -1 1269 1389 1381 -1 1271 1277 1301 -1 1271 1301 1319 -1 1273 1299 1500 -1 1279 1339 1347 -1 1283 1321 1323 -1 1295 1473 1309 -1 1299 1317 1500 -1 1309 1333 1311 -1 1309 1473 1333 -1 1313 1337 1315 -1 1313 1488 1337 -1 1317 1345 1500 -1 1325 1486 1329 -1 1329 1367 1369 -1 1329 1369 1331 -1 1329 1486 1367 -1 1331 1369 1391 -1 1331 1371 1353 -1 1331 1391 1393 -1 1331 1393 1371 -1 1333 1473 1488 -1 1333 1488 1335 -1 1337 1488 1339 -1 1339 1379 1347 -1 1339 1413 1379 -1 1339 1437 1413 -1 1339 1488 1437 -1 1345 1409 1500 -1 1353 1371 1373 -1 1353 1373 1355 -1 1363 1401 1395 -1 1367 1486 1417 -1 1395 1401 1421 -1 1395 1421 1411 -1 1403 1419 1405 -1 1405 1419 1449 -1 1409 1425 1443 -1 1409 1443 1500 -1 1411 1421 1441 -1 1411 1441 1423 -1 1413 1437 1439 -1 1413 1439 1427 -1 1415 1433 1435 -1 1415 1445 1433 -1 1417 1449 1419 -1 1417 1486 1449 -1 1421 1429 1441 -1 1423 1441 1425 -1 1425 1441 1443 -1 1427 1439 1461 -1 1427 1461 1431 -1 1429 1431 1479 -1 1429 1479 1441 -1 1431 1461 1479 -1 1433 1445 1447 -1 1441 1479 1451 -1 1443 1465 1500 -1 1449 1486 1457 -1 1451 1479 1494 -1 1451 1494 1455 -1 1453 1490 1467 -1 1455 1494 1463 -1 1457 1471 1459 -1 1457 1486 1471 -1 1463 1494 1469 -1 1465 1483 1500 -1 1467 1490 1477 -1 1469 1494 1475 -1 1471 1486 1473 -1 1473 1486 1488 -1 1475 1494 1481 -1 1477 1490 1492 -1 1481 1494 1496 -1 1483 1498 1500 -1 1485 1499 1486 -1 1486 1487 1488 -1 1486 1499 1487 -1 1487 1499 1489 -1 1489 1491 1490 -1 1489 1499 1491 -1 1490 1491 1492 -1 1491 1499 1493 -1 1493 1495 1494 -1 1493 1499 1495 -1 1494 1495 1496 -1 1495 1499 1497 -1 1497 1499 1500 -1 1497 1500 1498 -1 "
						                >
							<Coordinate USE="coords_ME_OpenSCAD_Model" />
						</IndexedFaceSet>
					</Shape>
				</Group>
			</Transform>
		</Transform>
	</Scene>
</X3D>