<?xml version="1.0" encoding="UTF-8"?>
<!DOCTYPE X3D PUBLIC "ISO//Web3D//DTD X3D 3.0//EN" "http://www.web3d.org/specifications/x3d-3.0.dtd">
<X3D version="3.0" profile="Immersive" xmlns:xsd="http://www.w3.org/2001/XMLSchema-instance" xsd:noNamespaceSchemaLocation="http://www.web3d.org/specifications/x3d-3.0.xsd">
	<head>
		<meta name="filename" content="C04-01087A.x3d" />
		<meta name="created" content="2026-02-22 02:47:30" />
		<meta name="generator" content="Blender 5.0.1" />
		<meta name="translator" content="Web3D X3D/VRML2 format v2.5.1" />
	</head>
	<Scene>
		<NavigationInfo headlight="true"
		                visibilityLimit="0.0"
		                type='"EXAMINE", "ANY"'
		                avatarSize="0.25, 1.75, 0.75"
		                />
		<Transform DEF="OpenSCAD_Model_TRANSFORM"
		           translation="0.000000 0.000000 0.000000"
		           scale="0.001000 0.001000 0.001000"
		           rotation="-1.000000 0.000000 0.000000 1.570796"
		           >
			<Transform DEF="OpenSCAD_Model_ifs_TRANSFORM"
			           translation="0.000000 0.000000 0.000000"
			           scale="1.000000 1.000000 1.000000"
			           rotation="0.000000 1.000000 0.000000 0.000000"
			           >
				<Group DEF="group_ME_OpenSCAD_Model">
					<Shape>
						<Appearance>
							<Material DEF="MA_Color_1"
							          diffuseColor="0.000 0.000 0.000"
							          specularColor="0.401 0.401 0.401"
							          emissiveColor="0.000 0.000 0.000"
							          ambientIntensity="0.000"
							          shininess="0.500"
							          transparency="1.000"
							          />
						</Appearance>
						<IndexedFaceSet solid="false"
						                coordIndex="0 1 3 -1 0 2 1548 -1 0 3 2 -1 0 1546 1547 -1 0 1547 1 -1 0 1548 1546 -1 1 4 3 -1 1 6 4 -1 1 10 6 -1 1 14 10 -1 1 18 14 -1 1 22 18 -1 1 26 22 -1 1 68 26 -1 1 90 92 -1 1 92 68 -1 1 102 104 -1 1 104 90 -1 1 130 102 -1 1 176 130 -1 1 266 176 -1 1 408 266 -1 1 418 408 -1 1 556 418 -1 1 558 556 -1 1 710 558 -1 1 712 710 -1 1 848 712 -1 1 850 848 -1 1 972 850 -1 1 1036 972 -1 1 1162 1036 -1 1 1176 1162 -1 1 1210 1176 -1 1 1547 1210 -1 2 3 1548 -1 3 4 8 -1 3 8 12 -1 3 12 16 -1 3 16 20 -1 3 20 24 -1 3 24 28 -1 3 28 32 -1 3 32 36 -1 3 36 38 -1 3 38 42 -1 3 42 1549 -1 3 1549 1548 -1 26 68 70 -1 26 70 30 -1 30 70 34 -1 34 70 40 -1 40 70 76 -1 40 76 44 -1 42 46 1549 -1 44 76 48 -1 46 50 1549 -1 48 76 52 -1 50 54 138 -1 50 138 202 -1 50 202 362 -1 50 362 1549 -1 52 76 56 -1 54 58 138 -1 56 76 60 -1 58 62 84 -1 58 84 138 -1 60 72 74 -1 60 74 64 -1 60 76 72 -1 62 66 84 -1 64 74 66 -1 66 74 84 -1 68 92 158 -1 68 158 162 -1 68 160 86 -1 68 162 172 -1 68 168 160 -1 68 172 168 -1 72 76 78 -1 80 88 82 -1 82 88 96 -1 84 106 138 -1 86 96 88 -1 86 160 164 -1 86 164 96 -1 90 104 94 -1 92 110 180 -1 92 166 158 -1 92 180 166 -1 94 104 114 -1 96 164 98 -1 98 126 128 -1 98 128 140 -1 98 140 142 -1 98 164 174 -1 98 174 126 -1 100 116 108 -1 104 112 114 -1 108 116 134 -1 108 122 124 -1 108 124 110 -1 108 134 122 -1 110 124 224 -1 110 224 180 -1 118 132 152 -1 118 152 120 -1 120 152 136 -1 124 146 224 -1 126 174 218 -1 126 218 252 -1 126 252 286 -1 126 286 320 -1 126 320 196 -1 130 176 178 -1 130 178 220 -1 130 220 222 -1 130 222 132 -1 132 222 152 -1 136 152 144 -1 144 148 150 -1 144 150 146 -1 144 152 148 -1 146 150 380 -1 146 242 224 -1 146 380 242 -1 150 214 380 -1 154 198 366 -1 154 200 156 -1 154 366 384 -1 154 384 200 -1 168 172 182 -1 170 236 212 -1 172 216 182 -1 182 216 226 -1 184 192 310 -1 184 310 188 -1 186 194 312 -1 186 312 190 -1 188 310 204 -1 190 312 206 -1 192 208 310 -1 194 210 312 -1 196 320 348 -1 196 348 422 -1 196 422 198 -1 198 364 366 -1 198 422 364 -1 200 360 362 -1 200 362 202 -1 200 384 360 -1 204 310 228 -1 206 312 230 -1 208 232 310 -1 210 234 312 -1 212 236 282 -1 212 258 260 -1 212 260 214 -1 212 282 258 -1 214 260 378 -1 214 378 380 -1 216 244 226 -1 216 250 356 -1 216 290 244 -1 216 328 290 -1 216 356 328 -1 228 310 254 -1 230 312 256 -1 232 246 310 -1 234 248 312 -1 238 268 350 -1 238 350 240 -1 240 334 300 -1 240 338 334 -1 240 350 338 -1 242 380 488 -1 242 488 288 -1 246 270 322 -1 246 322 310 -1 248 272 312 -1 250 284 356 -1 254 310 262 -1 256 312 264 -1 260 336 378 -1 262 310 274 -1 264 312 276 -1 266 408 268 -1 268 408 350 -1 270 278 322 -1 272 280 312 -1 274 302 292 -1 274 310 302 -1 276 304 294 -1 276 312 304 -1 278 296 322 -1 280 298 312 -1 284 318 356 -1 288 488 326 -1 296 306 322 -1 298 308 312 -1 306 314 322 -1 308 316 312 -1 312 316 332 -1 312 332 372 -1 312 372 324 -1 314 330 342 -1 314 342 322 -1 318 322 342 -1 318 342 344 -1 318 344 356 -1 320 324 346 -1 320 346 348 -1 324 372 346 -1 326 352 354 -1 326 354 368 -1 326 368 370 -1 326 370 330 -1 326 488 352 -1 328 356 358 -1 328 358 372 -1 328 372 332 -1 330 370 342 -1 334 338 340 -1 334 340 336 -1 336 340 378 -1 340 406 378 -1 344 420 356 -1 346 372 374 -1 352 488 432 -1 356 420 436 -1 362 510 1549 -1 364 422 498 -1 364 498 548 -1 364 548 524 -1 366 382 384 -1 376 430 404 -1 378 406 452 -1 380 402 488 -1 386 434 388 -1 388 434 426 -1 390 410 392 -1 390 414 440 -1 390 440 464 -1 390 444 410 -1 390 464 476 -1 390 472 444 -1 390 476 484 -1 390 480 472 -1 390 484 480 -1 394 438 396 -1 396 438 428 -1 398 412 400 -1 398 416 442 -1 398 442 466 -1 398 446 412 -1 398 466 478 -1 398 474 446 -1 398 478 486 -1 398 482 474 -1 398 486 482 -1 404 430 500 -1 404 500 406 -1 406 500 452 -1 418 556 490 -1 420 496 436 -1 424 454 530 -1 424 530 448 -1 426 434 468 -1 428 438 726 -1 428 542 544 -1 428 544 470 -1 428 726 812 -1 428 812 542 -1 432 488 522 -1 432 522 534 -1 432 534 536 -1 432 536 434 -1 434 536 468 -1 436 496 540 -1 436 540 598 -1 436 598 650 -1 436 650 438 -1 438 650 726 -1 448 530 562 -1 448 562 554 -1 450 532 506 -1 452 500 508 -1 452 508 528 -1 452 528 530 -1 452 530 454 -1 456 526 458 -1 458 526 516 -1 460 502 462 -1 460 504 550 -1 460 550 572 -1 460 552 502 -1 460 572 590 -1 460 576 552 -1 460 590 594 -1 460 592 576 -1 460 594 592 -1 468 536 492 -1 470 544 494 -1 492 536 564 -1 492 564 512 -1 494 544 568 -1 494 568 514 -1 496 518 538 -1 496 538 540 -1 498 520 546 -1 498 546 548 -1 508 560 578 -1 508 578 580 -1 508 580 528 -1 510 614 670 -1 510 670 1549 -1 512 564 518 -1 514 568 570 -1 514 570 520 -1 516 526 574 -1 518 564 566 -1 518 566 538 -1 520 570 546 -1 522 596 622 -1 522 604 534 -1 522 622 624 -1 522 624 604 -1 524 548 600 -1 524 600 654 -1 524 654 730 -1 524 664 666 -1 524 666 526 -1 524 730 872 -1 524 872 910 -1 524 910 958 -1 524 958 1002 -1 524 1002 664 -1 526 666 574 -1 528 580 634 -1 528 634 616 -1 542 812 608 -1 558 632 620 -1 558 636 632 -1 558 646 636 -1 558 710 646 -1 560 602 578 -1 574 666 612 -1 582 606 584 -1 584 606 682 -1 586 610 588 -1 588 610 684 -1 596 618 644 -1 596 644 622 -1 598 648 650 -1 598 674 648 -1 600 652 654 -1 600 678 652 -1 604 624 706 -1 604 682 606 -1 604 706 682 -1 608 684 610 -1 608 812 870 -1 608 870 908 -1 608 908 956 -1 608 956 998 -1 608 998 684 -1 612 666 716 -1 612 716 630 -1 614 640 668 -1 614 668 670 -1 616 626 628 -1 616 628 618 -1 616 634 626 -1 618 628 644 -1 626 634 638 -1 626 638 696 -1 626 696 690 -1 628 642 644 -1 630 716 640 -1 632 636 638 -1 632 638 634 -1 640 716 668 -1 648 674 676 -1 652 678 680 -1 656 692 658 -1 658 692 708 -1 660 686 662 -1 660 688 720 -1 660 720 686 -1 664 1002 1004 -1 664 1004 824 -1 666 714 716 -1 670 830 1549 -1 672 718 694 -1 682 706 698 -1 684 998 702 -1 688 722 742 -1 688 736 720 -1 688 742 736 -1 690 696 762 -1 690 762 692 -1 692 762 708 -1 694 718 774 -1 694 774 696 -1 696 774 762 -1 698 706 738 -1 698 738 782 -1 698 746 752 -1 698 752 700 -1 698 756 746 -1 698 782 756 -1 700 752 724 -1 702 728 704 -1 702 748 754 -1 702 754 728 -1 702 758 748 -1 702 784 758 -1 702 818 784 -1 702 998 1000 -1 702 1000 818 -1 712 848 770 -1 722 734 740 -1 722 740 744 -1 722 744 742 -1 724 752 778 -1 724 778 812 -1 724 812 726 -1 728 754 780 -1 728 780 730 -1 730 780 814 -1 730 814 872 -1 732 802 750 -1 738 760 816 -1 738 816 782 -1 750 802 856 -1 750 856 764 -1 760 772 846 -1 760 846 816 -1 762 774 792 -1 762 792 820 -1 764 856 776 -1 766 826 878 -1 766 828 768 -1 766 878 892 -1 766 892 828 -1 772 786 844 -1 772 844 846 -1 776 844 786 -1 776 856 844 -1 788 798 946 -1 788 946 794 -1 790 800 944 -1 790 944 796 -1 792 840 820 -1 792 852 858 -1 792 858 860 -1 792 860 840 -1 794 946 804 -1 796 944 806 -1 798 808 866 -1 798 866 888 -1 798 888 904 -1 798 904 926 -1 798 926 938 -1 798 938 946 -1 800 810 944 -1 802 822 856 -1 804 946 832 -1 806 944 834 -1 808 836 866 -1 810 838 944 -1 816 846 862 -1 818 1000 864 -1 820 840 842 -1 820 842 822 -1 822 842 856 -1 824 936 826 -1 824 1004 1020 -1 824 1020 936 -1 826 894 878 -1 826 936 894 -1 828 892 930 -1 828 930 830 -1 830 930 1014 -1 830 1014 1102 -1 830 1102 1549 -1 832 946 980 -1 832 980 874 -1 834 944 876 -1 838 868 944 -1 840 860 952 -1 840 952 916 -1 842 854 856 -1 846 902 862 -1 850 950 924 -1 850 972 974 -1 850 974 996 -1 850 976 950 -1 850 996 976 -1 852 896 858 -1 862 902 912 -1 864 1000 914 -1 868 890 962 -1 868 962 944 -1 874 980 884 -1 876 944 886 -1 880 918 882 -1 882 918 984 -1 884 980 898 -1 886 944 900 -1 890 906 962 -1 898 932 920 -1 898 980 932 -1 900 934 922 -1 900 944 934 -1 902 966 912 -1 902 990 1064 -1 902 1006 966 -1 902 1064 1006 -1 906 928 962 -1 914 1000 968 -1 916 952 978 -1 916 978 984 -1 916 984 918 -1 928 940 962 -1 932 980 942 -1 940 948 962 -1 942 980 960 -1 948 982 1002 -1 948 1002 962 -1 950 976 978 -1 950 978 952 -1 954 970 1228 -1 954 1228 964 -1 956 960 998 -1 958 962 1002 -1 960 980 998 -1 964 1228 988 -1 966 1006 1008 -1 966 1008 1024 -1 966 1024 980 -1 968 1000 1010 -1 968 1010 1012 -1 968 1012 1026 -1 968 1026 1028 -1 968 1028 982 -1 970 992 1228 -1 974 994 996 -1 978 986 984 -1 978 1030 986 -1 980 1024 998 -1 982 1028 1002 -1 986 1030 1040 -1 986 1040 1042 -1 986 1042 1072 -1 988 1228 1032 -1 992 1034 1228 -1 1000 1074 1010 -1 1004 1076 1276 -1 1004 1098 1020 -1 1004 1182 1098 -1 1004 1248 1182 -1 1004 1276 1248 -1 1006 1064 1148 -1 1006 1148 1496 -1 1006 1496 1547 -1 1006 1547 1082 -1 1008 1022 1024 -1 1010 1074 1154 -1 1010 1154 1190 -1 1010 1190 1086 -1 1016 1038 1018 -1 1018 1038 1162 -1 1030 1122 1124 -1 1030 1124 1040 -1 1030 1158 1122 -1 1032 1228 1104 -1 1034 1100 1228 -1 1036 1162 1038 -1 1040 1124 1142 -1 1042 1070 1072 -1 1044 1084 1046 -1 1046 1084 1078 -1 1048 1060 1050 -1 1048 1066 1090 -1 1048 1090 1110 -1 1048 1094 1060 -1 1048 1110 1126 -1 1048 1118 1094 -1 1048 1126 1134 -1 1048 1130 1118 -1 1048 1134 1130 -1 1052 1088 1054 -1 1054 1088 1080 -1 1056 1062 1058 -1 1056 1068 1092 -1 1056 1092 1112 -1 1056 1096 1062 -1 1056 1112 1128 -1 1056 1120 1096 -1 1056 1128 1136 -1 1056 1132 1120 -1 1056 1136 1132 -1 1076 1156 1276 -1 1078 1084 1114 -1 1080 1088 1116 -1 1082 1184 1186 -1 1082 1186 1084 -1 1082 1547 1184 -1 1084 1186 1114 -1 1086 1190 1252 -1 1086 1192 1194 -1 1086 1194 1088 -1 1086 1252 1286 -1 1086 1286 1192 -1 1088 1194 1116 -1 1100 1140 1242 -1 1100 1242 1228 -1 1102 1180 1549 -1 1104 1228 1138 -1 1106 1144 1108 -1 1108 1144 1378 -1 1108 1378 1396 -1 1108 1396 1438 -1 1108 1438 1458 -1 1108 1458 1146 -1 1114 1186 1150 -1 1116 1194 1152 -1 1122 1158 1160 -1 1124 1206 1142 -1 1138 1228 1168 -1 1140 1174 1242 -1 1142 1206 1216 -1 1142 1216 1268 -1 1142 1268 1144 -1 1144 1268 1308 -1 1144 1308 1378 -1 1146 1458 1148 -1 1148 1458 1496 -1 1150 1186 1218 -1 1150 1218 1164 -1 1152 1194 1222 -1 1152 1222 1166 -1 1154 1170 1188 -1 1154 1188 1190 -1 1156 1172 1196 -1 1156 1196 1198 -1 1156 1198 1276 -1 1164 1218 1220 -1 1164 1220 1170 -1 1166 1222 1172 -1 1168 1208 1200 -1 1168 1228 1208 -1 1170 1220 1188 -1 1172 1222 1224 -1 1172 1224 1196 -1 1174 1202 1242 -1 1176 1204 1178 -1 1176 1210 1212 -1 1176 1212 1246 -1 1176 1214 1204 -1 1176 1246 1214 -1 1180 1240 1549 -1 1184 1547 1260 -1 1192 1286 1264 -1 1198 1254 1276 -1 1202 1226 1242 -1 1204 1214 1216 -1 1204 1216 1206 -1 1210 1547 1270 -1 1212 1244 1246 -1 1226 1230 1242 -1 1230 1250 1242 -1 1232 1262 1234 -1 1234 1262 1318 -1 1236 1266 1238 -1 1238 1266 1320 -1 1240 1242 1280 -1 1240 1280 1549 -1 1242 1250 1326 -1 1242 1278 1280 -1 1242 1326 1328 -1 1242 1328 1278 -1 1248 1274 1250 -1 1248 1276 1274 -1 1250 1274 1282 -1 1250 1282 1430 -1 1250 1372 1326 -1 1250 1388 1372 -1 1250 1410 1388 -1 1250 1422 1410 -1 1250 1430 1422 -1 1252 1284 1286 -1 1252 1310 1284 -1 1254 1288 1290 -1 1254 1290 1276 -1 1254 1314 1288 -1 1256 1272 1258 -1 1258 1272 1348 -1 1260 1318 1262 -1 1260 1547 1318 -1 1264 1286 1320 -1 1264 1320 1266 -1 1268 1306 1308 -1 1268 1344 1306 -1 1270 1348 1272 -1 1270 1547 1348 -1 1276 1290 1302 -1 1278 1328 1292 -1 1280 1296 1549 -1 1282 1294 1342 -1 1282 1342 1364 -1 1282 1364 1384 -1 1282 1384 1408 -1 1282 1408 1420 -1 1282 1420 1430 -1 1284 1310 1312 -1 1286 1358 1320 -1 1288 1314 1316 -1 1290 1362 1302 -1 1292 1304 1298 -1 1292 1328 1374 -1 1292 1330 1304 -1 1292 1350 1330 -1 1292 1366 1350 -1 1292 1374 1382 -1 1292 1380 1366 -1 1292 1382 1400 -1 1292 1398 1380 -1 1292 1400 1406 -1 1292 1404 1398 -1 1292 1406 1412 -1 1292 1412 1404 -1 1294 1300 1324 -1 1294 1324 1342 -1 1296 1322 1549 -1 1302 1362 1370 -1 1306 1344 1346 -1 1318 1547 1332 -1 1320 1358 1336 -1 1322 1340 1549 -1 1332 1356 1334 -1 1332 1547 1356 -1 1336 1358 1547 -1 1336 1360 1338 -1 1336 1547 1360 -1 1340 1368 1549 -1 1348 1547 1352 -1 1352 1376 1354 -1 1352 1390 1392 -1 1352 1392 1416 -1 1352 1394 1376 -1 1352 1416 1394 -1 1352 1547 1390 -1 1356 1547 1358 -1 1360 1547 1362 -1 1362 1402 1370 -1 1362 1436 1402 -1 1362 1460 1436 -1 1362 1542 1460 -1 1362 1547 1542 -1 1368 1432 1549 -1 1376 1394 1396 -1 1376 1396 1378 -1 1386 1424 1418 -1 1390 1547 1440 -1 1392 1414 1416 -1 1418 1424 1444 -1 1418 1444 1434 -1 1426 1442 1428 -1 1428 1442 1472 -1 1432 1448 1466 -1 1432 1466 1549 -1 1434 1444 1508 -1 1434 1508 1446 -1 1436 1460 1462 -1 1436 1462 1450 -1 1438 1456 1458 -1 1438 1468 1456 -1 1440 1472 1442 -1 1440 1547 1472 -1 1444 1452 1508 -1 1446 1464 1448 -1 1446 1474 1464 -1 1446 1508 1514 -1 1446 1514 1520 -1 1446 1520 1524 -1 1446 1524 1474 -1 1448 1464 1466 -1 1450 1462 1484 -1 1450 1484 1454 -1 1452 1454 1502 -1 1452 1502 1508 -1 1454 1484 1502 -1 1456 1468 1470 -1 1466 1488 1549 -1 1472 1547 1480 -1 1474 1486 1478 -1 1474 1492 1486 -1 1474 1498 1492 -1 1474 1504 1498 -1 1474 1510 1504 -1 1474 1518 1510 -1 1474 1522 1518 -1 1474 1524 1526 -1 1474 1526 1522 -1 1476 1544 1490 -1 1480 1494 1482 -1 1480 1547 1494 -1 1488 1506 1549 -1 1490 1544 1500 -1 1494 1547 1496 -1 1500 1544 1512 -1 1506 1516 1549 -1 1512 1544 1528 -1 1516 1530 1549 -1 1528 1544 1549 -1 1528 1549 1532 -1 1530 1536 1549 -1 1532 1549 1534 -1 1534 1549 1538 -1 1536 1540 1549 -1 1538 1549 1540 -1 1542 1547 1544 -1 1544 1547 1549 -1 1546 1548 1547 -1 1547 1548 1549 -1 "
						                >
							<Coordinate DEF="coords_ME_OpenSCAD_Model"
							            point="0.000000 0.000000 0.000000 0.000000 0.000000 2.360000 0.000000 19.000000 0.000000 0.000000 19.000000 2.360000 1.045478 16.793747 2.360000 1.045478 16.793747 2.560000 1.057382 16.662937 2.360000 1.057382 16.662937 2.560000 1.057555 16.929016 2.360000 1.057555 16.929016 2.560000 1.093093 16.541094 2.360000 1.093093 16.541094 2.560000 1.093786 17.053240 2.360000 1.093786 17.053240 2.560000 1.152613 16.428219 2.360000 1.152613 16.428219 2.560000 1.154170 17.166420 2.360000 1.154170 17.166420 2.560000 1.235940 16.324312 2.360000 1.235940 16.324312 2.560000 1.238708 17.268557 2.360000 1.238708 17.268557 2.560000 1.337247 16.237350 2.360000 1.337247 16.237350 2.560000 1.340881 17.353130 2.360000 1.340881 17.353130 2.560000 1.450626 16.175236 2.360000 1.450626 16.175236 2.560000 1.454087 17.413540 2.360000 1.454087 17.413540 2.560000 1.576077 16.137968 2.360000 1.576077 16.137968 2.560000 1.578326 17.449787 2.360000 1.578326 17.449787 2.560000 1.713600 16.125544 2.360000 1.713600 16.125544 2.560000 1.713600 17.461868 2.360000 1.713600 17.461868 2.560000 1.848868 17.449787 2.360000 1.848868 17.449787 2.560000 1.851117 16.137968 2.360000 1.851117 16.137968 2.560000 1.973092 17.413540 2.360000 1.973092 17.413540 2.560000 1.976553 16.175236 2.360000 1.976553 16.175236 2.560000 2.086273 17.353130 2.360000 2.086273 17.353130 2.560000 2.089906 16.237350 2.360000 2.089906 16.237350 2.560000 2.188410 17.268557 2.360000 2.188410 17.268557 2.560000 2.191178 16.324312 2.360000 2.191178 16.324312 2.560000 2.272983 17.166420 2.360000 2.272983 17.166420 2.560000 2.274541 16.428219 2.360000 2.274541 16.428219 2.560000 2.333393 17.053240 2.360000 2.333393 17.053240 2.560000 2.334085 16.541094 2.360000 2.334085 16.541094 2.560000 2.369639 16.929016 2.360000 2.369639 16.929016 2.560000 2.369812 16.662937 2.360000 2.369812 16.662937 2.560000 2.381721 16.793747 2.360000 2.381721 16.793747 2.560000 3.328891 13.571428 2.360000 3.328891 13.571428 2.560000 3.328891 13.659225 2.360000 3.328891 13.659225 2.560000 3.328891 15.705093 2.360000 3.328891 15.705093 2.560000 3.328891 15.792890 2.360000 3.328891 15.792890 2.560000 3.613825 13.703954 2.360000 3.613825 13.703954 2.560000 3.613825 15.662002 2.360000 3.613825 15.662002 2.560000 3.787757 13.703954 2.360000 3.787757 13.703954 2.560000 3.787757 15.481450 2.360000 3.787757 15.481450 2.560000 4.001458 15.792890 2.360000 4.001458 15.792890 2.560000 4.085932 13.571428 2.360000 4.085932 13.571428 2.560000 4.085932 13.659225 2.360000 4.085932 13.659225 2.560000 4.339023 3.899655 2.360000 4.339023 3.899655 2.560000 4.339023 3.948430 2.360000 4.339023 3.948430 2.560000 4.477981 3.875715 2.360000 4.477981 3.875715 2.560000 4.601131 13.571428 2.360000 4.601131 13.571428 2.560000 4.659100 13.571428 2.360000 4.659100 13.571428 2.560000 4.695178 3.875715 2.360000 4.695178 3.875715 2.560000 4.715427 2.714285 2.360000 4.715427 2.714285 2.560000 4.715427 2.763061 2.360000 4.715427 2.763061 2.560000 4.723713 14.103189 2.360000 4.723713 14.103189 2.560000 4.860831 3.899655 2.360000 4.860831 3.899655 2.560000 4.860831 3.948430 2.360000 4.860831 3.948430 2.560000 4.911452 2.787910 2.360000 4.911452 2.787910 2.560000 4.911452 3.194687 2.360000 4.911452 3.194687 2.560000 5.049501 3.306040 2.360000 5.049501 3.306040 2.560000 5.089075 2.787910 2.360000 5.089075 2.787910 2.560000 5.089075 3.200210 2.360000 5.089075 3.200210 2.560000 5.229879 3.899655 2.360000 5.229879 3.899655 2.560000 5.229879 3.948430 2.360000 5.229879 3.948430 2.560000 5.247193 13.571428 2.360000 5.247193 13.571428 2.560000 5.247193 13.659225 2.360000 5.247193 13.659225 2.560000 5.285101 2.714285 2.360000 5.285101 2.714285 2.560000 5.285101 2.763061 2.360000 5.285101 2.763061 2.560000 5.386330 3.875715 2.360000 5.386330 3.875715 2.560000 5.495852 3.875715 2.360000 5.495852 3.875715 2.560000 5.512243 15.792890 2.360000 5.512243 15.792890 2.560000 5.545368 13.703954 2.360000 5.545368 13.703954 2.560000 5.545368 15.481450 2.360000 5.545368 15.481450 2.560000 5.631131 3.899655 2.360000 5.631131 3.899655 2.560000 5.631131 3.948430 2.360000 5.631131 3.948430 2.560000 5.700251 3.899655 2.360000 5.700251 3.899655 2.560000 5.700251 3.948430 2.360000 5.700251 3.948430 2.560000 5.839209 3.875715 2.360000 5.839209 3.875715 2.560000 5.863428 13.703954 2.360000 5.863428 13.703954 2.560000 5.863428 15.662002 2.360000 5.863428 15.662002 2.560000 5.910547 8.745659 2.360000 5.910547 8.745659 2.560000 5.910547 11.459945 2.360000 5.910547 11.459945 2.560000 5.950810 9.025319 2.360000 5.950810 9.025319 2.560000 5.950810 11.739605 2.360000 5.950810 11.739605 2.560000 5.952421 8.483945 2.360000 5.952421 8.483945 2.560000 5.952421 11.198230 2.360000 5.952421 11.198230 2.560000 6.056406 3.875715 2.360000 6.056406 3.875715 2.560000 6.071599 9.227445 2.360000 6.071599 9.227445 2.560000 6.071599 11.941730 2.360000 6.071599 11.941730 2.560000 6.076654 2.714285 2.360000 6.076654 2.714285 2.560000 6.076654 2.763061 2.360000 6.076654 2.763061 2.560000 6.078046 8.287800 2.360000 6.078046 8.287800 2.560000 6.078046 11.002086 2.360000 6.078046 11.002086 2.560000 6.102895 8.747505 2.360000 6.102895 8.747505 2.560000 6.102895 11.461791 2.360000 6.102895 11.461791 2.560000 6.130044 9.001046 2.360000 6.130044 9.001046 2.560000 6.130044 11.715332 2.360000 6.130044 11.715332 2.560000 6.131310 8.510524 2.360000 6.131310 8.510524 2.560000 6.131310 11.224810 2.360000 6.131310 11.224810 2.560000 6.148363 13.571428 2.360000 6.148363 13.571428 2.560000 6.148363 13.659225 2.360000 6.148363 13.659225 2.560000 6.148363 15.705093 2.360000 6.148363 15.705093 2.560000 6.148363 15.792890 2.360000 6.148363 15.792890 2.560000 6.211493 9.178207 2.360000 6.211493 9.178207 2.560000 6.211493 11.892493 2.360000 6.211493 11.892493 2.560000 6.216555 8.337037 2.360000 6.216555 8.337037 2.560000 6.216555 11.051323 2.360000 6.216555 11.051323 2.560000 6.222059 3.899655 2.360000 6.222059 3.899655 2.560000 6.222059 3.948430 2.360000 6.222059 3.948430 2.560000 6.271544 9.349964 2.360000 6.271544 9.349964 2.560000 6.271544 12.064250 2.360000 6.271544 12.064250 2.560000 6.272680 2.787910 2.360000 6.272680 2.787910 2.560000 6.272680 3.194687 2.360000 6.272680 3.194687 2.560000 6.278675 8.165291 2.360000 6.278675 8.165291 2.560000 6.278675 10.879577 2.360000 6.278675 10.879577 2.560000 6.352073 9.282436 2.360000 6.352073 9.282436 2.560000 6.352073 11.996722 2.360000 6.352073 11.996722 2.560000 6.356100 8.230742 2.360000 6.356100 8.230742 2.560000 6.356100 10.945028 2.360000 6.356100 10.945028 2.560000 6.410729 3.306040 2.360000 6.410729 3.306040 2.560000 6.450303 2.787910 2.360000 6.450303 2.787910 2.560000 6.450303 3.200210 2.360000 6.450303 3.200210 2.560000 6.545568 8.124454 2.360000 6.545568 8.124454 2.560000 6.545568 10.838740 2.360000 6.545568 10.838740 2.560000 6.547413 8.195310 2.360000 6.547413 8.195310 2.560000 6.547413 10.909596 2.360000 6.547413 10.909596 2.560000 6.549246 9.390804 2.360000 6.549246 9.390804 2.560000 6.549246 12.105090 2.360000 6.549246 12.105090 2.560000 6.556615 9.317180 2.360000 6.556615 9.317180 2.560000 6.556615 12.031465 2.360000 6.556615 12.031465 2.560000 6.591107 3.899655 2.360000 6.591107 3.899655 2.560000 6.591107 3.948430 2.360000 6.591107 3.948430 2.560000 6.644157 9.311771 2.360000 6.644157 9.311771 2.560000 6.644157 12.026057 2.360000 6.644157 12.026057 2.560000 6.646329 2.714285 2.360000 6.646329 2.714285 2.560000 6.646329 2.763061 2.360000 6.646329 2.763061 2.560000 6.649331 8.201638 2.360000 6.649331 8.201638 2.560000 6.649331 10.915924 2.360000 6.649331 10.915924 2.560000 6.730085 9.295547 2.360000 6.730085 9.295547 2.560000 6.730085 12.009832 2.360000 6.730085 12.009832 2.560000 6.745271 8.220621 2.360000 6.745271 8.220621 2.560000 6.745271 10.934907 2.360000 6.745271 10.934907 2.560000 6.747558 3.875715 2.360000 6.747558 3.875715 2.560000 6.748725 9.379068 2.360000 6.748725 9.379068 2.560000 6.748725 12.093354 2.360000 6.748725 12.093354 2.560000 6.770809 8.138948 2.360000 6.770809 8.138948 2.560000 6.770809 10.853234 2.360000 6.770809 10.853234 2.560000 6.810041 9.269439 2.360000 6.810041 9.269439 2.560000 6.810041 11.983724 2.360000 6.810041 11.983724 2.560000 6.828559 8.250187 2.360000 6.828559 8.250187 2.560000 6.828559 10.964473 2.360000 6.828559 10.964473 2.560000 6.857079 3.875715 2.360000 6.857079 3.875715 2.560000 6.879642 9.234353 2.360000 6.879642 9.234353 2.560000 6.879642 11.948639 2.360000 6.879642 11.948639 2.560000 6.892521 8.288261 2.360000 6.892521 8.288261 2.560000 6.892521 11.002547 2.360000 6.892521 11.002547 2.560000 6.907246 9.074210 2.360000 6.907246 9.074210 2.560000 6.907246 11.788496 2.360000 6.907246 11.788496 2.560000 6.926572 8.472331 2.360000 6.926572 8.472331 2.560000 6.926572 11.186617 2.360000 6.926572 11.186617 2.560000 6.962468 9.343861 2.360000 6.962468 9.343861 2.560000 6.962468 12.058146 2.360000 6.962468 12.058146 2.560000 6.967992 9.074210 2.360000 6.967992 9.074210 2.560000 6.967992 11.788496 2.360000 6.967992 11.788496 2.560000 6.980871 8.182431 2.360000 6.980871 8.182431 2.560000 6.980871 10.896717 2.360000 6.980871 10.896717 2.560000 6.986395 8.472331 2.360000 6.986395 8.472331 2.560000 6.986395 11.186617 2.360000 6.986395 11.186617 2.560000 6.992359 3.899655 2.360000 6.992359 3.899655 2.560000 6.992359 3.948430 2.360000 6.992359 3.948430 2.560000 7.042153 3.899655 2.360000 7.042153 3.899655 2.560000 7.042153 3.948430 2.360000 7.042153 3.948430 2.560000 7.144773 9.328226 2.360000 7.144773 9.328226 2.560000 7.144773 9.377002 2.360000 7.144773 9.377002 2.560000 7.144773 12.042512 2.360000 7.144773 12.042512 2.560000 7.144773 12.091288 2.360000 7.144773 12.091288 2.560000 7.149829 3.875715 2.360000 7.149829 3.875715 2.560000 7.156743 8.142857 2.360000 7.156743 8.142857 2.560000 7.156743 8.191633 2.360000 7.156743 8.191633 2.560000 7.156743 10.857142 2.360000 7.156743 10.857142 2.560000 7.156743 10.905918 2.360000 7.156743 10.905918 2.560000 7.193906 15.705093 2.360000 7.193906 15.705093 2.560000 7.193906 15.792890 2.360000 7.193906 15.792890 2.560000 7.215452 13.571428 2.360000 7.215452 13.571428 2.560000 7.215452 13.659225 2.360000 7.215452 13.659225 2.560000 7.303070 8.216482 2.360000 7.303070 8.216482 2.560000 7.303070 9.304286 2.360000 7.303070 9.304286 2.560000 7.303070 10.930768 2.360000 7.303070 10.930768 2.560000 7.303070 12.018572 2.360000 7.303070 12.018572 2.560000 7.332052 3.875715 2.360000 7.332052 3.875715 2.560000 7.371172 5.428571 2.360000 7.371172 5.428571 2.560000 7.371172 5.477347 2.360000 7.371172 5.477347 2.560000 7.478841 13.703954 2.360000 7.478841 13.703954 2.560000 7.478841 15.662002 2.360000 7.478841 15.662002 2.560000 7.480693 8.216482 2.360000 7.480693 8.216482 2.560000 7.480693 8.626936 2.360000 7.480693 8.626936 2.560000 7.480693 8.709777 2.360000 7.480693 8.709777 2.560000 7.480693 9.294162 2.360000 7.480693 9.294162 2.560000 7.480693 10.930768 2.360000 7.480693 10.930768 2.560000 7.480693 11.341222 2.360000 7.480693 11.341222 2.560000 7.480693 11.424062 2.360000 7.480693 11.424062 2.560000 7.480693 12.008448 2.360000 7.480693 12.008448 2.560000 7.511066 5.502196 2.360000 7.511066 5.502196 2.560000 7.513353 3.899655 2.360000 7.513353 3.899655 2.560000 7.513353 3.948430 2.360000 7.513353 3.948430 2.560000 7.558437 2.685758 2.360000 7.558437 2.685758 2.560000 7.570875 9.294162 2.360000 7.570875 9.294162 2.560000 7.570875 12.008448 2.360000 7.570875 12.008448 2.560000 7.576399 8.709777 2.360000 7.576399 8.709777 2.560000 7.576399 11.424062 2.360000 7.576399 11.424062 2.560000 7.607227 2.685758 2.360000 7.607227 2.685758 2.560000 7.610450 9.377002 2.360000 7.610450 9.377002 2.560000 7.610450 12.091288 2.360000 7.610450 12.091288 2.560000 7.611373 5.502196 2.360000 7.611373 5.502196 2.560000 7.619651 8.626936 2.360000 7.619651 8.626936 2.560000 7.619651 11.341222 2.360000 7.619651 11.341222 2.560000 7.625629 3.006030 2.360000 7.625629 3.006030 2.560000 7.676719 8.142857 2.360000 7.676719 8.142857 2.560000 7.676719 8.191633 2.360000 7.676719 8.191633 2.560000 7.676719 10.857142 2.360000 7.676719 10.857142 2.560000 7.676719 10.905918 2.360000 7.676719 10.905918 2.560000 7.711567 8.727490 2.360000 7.711567 8.727490 2.560000 7.711567 11.441776 2.360000 7.711567 11.441776 2.560000 7.714214 9.277825 2.360000 7.714214 9.277825 2.560000 7.714214 11.992111 2.360000 7.714214 11.992111 2.560000 7.735619 5.858351 2.360000 7.735619 5.858351 2.560000 7.763223 5.941191 2.360000 7.763223 5.941191 2.560000 7.777039 5.428571 2.360000 7.777039 5.428571 2.560000 7.777039 5.477347 2.360000 7.777039 5.477347 2.560000 7.798562 13.703954 2.360000 7.798562 13.703954 2.560000 7.798562 14.442771 2.360000 7.798562 14.442771 2.560000 7.798562 14.591884 2.360000 7.798562 14.591884 2.560000 7.798562 15.643778 2.360000 7.798562 15.643778 2.560000 7.806014 8.780633 2.360000 7.806014 8.780633 2.560000 7.806014 11.494919 2.360000 7.806014 11.494919 2.560000 7.809125 8.651555 2.360000 7.809125 8.651555 2.560000 7.809125 11.365841 2.360000 7.809125 11.365841 2.560000 7.809231 9.228816 2.360000 7.809231 9.228816 2.560000 7.809231 11.943102 2.360000 7.809231 11.943102 2.560000 7.861579 8.873817 2.360000 7.861579 8.873817 2.560000 7.861579 11.588103 2.360000 7.861579 11.588103 2.560000 7.862383 9.141853 2.360000 7.862383 9.141853 2.560000 7.862383 11.856139 2.360000 7.862383 11.856139 2.560000 7.880100 9.011632 2.360000 7.880100 9.011632 2.560000 7.880100 11.725918 2.360000 7.880100 11.725918 2.560000 7.931645 6.672840 2.360000 7.931645 6.672840 2.560000 7.935777 3.536130 2.360000 7.935777 3.536130 2.560000 7.948663 8.725410 2.360000 7.948663 8.725410 2.560000 7.948663 11.439696 2.360000 7.948663 11.439696 2.560000 7.950048 9.286121 2.360000 7.950048 9.286121 2.560000 7.950048 12.000407 2.360000 7.950048 12.000407 2.560000 7.957858 3.861913 2.360000 7.957858 3.861913 2.560000 7.960890 15.643778 2.360000 7.960890 15.643778 2.560000 7.970832 14.591884 2.360000 7.970832 14.591884 2.560000 7.974897 6.540315 2.360000 7.974897 6.540315 2.560000 7.999278 3.861913 2.360000 7.999278 3.861913 2.560000 8.032123 15.792890 2.360000 8.032123 15.792890 2.560000 8.034601 8.846664 2.360000 8.034601 8.846664 2.560000 8.034601 11.560950 2.360000 8.034601 11.560950 2.560000 8.048686 14.442771 2.360000 8.048686 14.442771 2.560000 8.063246 9.013478 2.360000 8.063246 9.013478 2.560000 8.063246 11.727763 2.360000 8.063246 11.727763 2.560000 8.106499 6.672840 2.360000 8.106499 6.672840 2.560000 8.151408 13.571428 2.360000 8.151408 13.571428 2.560000 8.151408 13.659225 2.360000 8.151408 13.659225 2.560000 8.178292 5.428571 2.360000 8.178292 5.428571 2.560000 8.178292 5.477347 2.360000 8.178292 5.477347 2.560000 8.193017 5.941191 2.360000 8.193017 5.941191 2.560000 8.193071 8.142857 2.360000 8.193071 8.142857 2.560000 8.193071 8.191633 2.360000 8.193071 8.191633 2.560000 8.193071 9.328226 2.360000 8.193071 9.328226 2.560000 8.193071 9.377002 2.360000 8.193071 9.377002 2.560000 8.193071 10.857142 2.360000 8.193071 10.857142 2.560000 8.193071 10.905918 2.360000 8.193071 10.905918 2.560000 8.193071 12.042512 2.360000 8.193071 12.042512 2.560000 8.193071 12.091288 2.360000 8.193071 12.091288 2.560000 8.214135 14.623769 2.360000 8.214135 14.623769 2.560000 8.218899 15.614371 2.360000 8.218899 15.614371 2.560000 8.221544 5.858351 2.360000 8.221544 5.858351 2.560000 8.256036 2.685758 2.360000 8.256036 2.685758 2.560000 8.304811 2.685758 2.360000 8.304811 2.685758 2.560000 8.319537 3.006030 2.360000 8.319537 3.006030 2.560000 8.343944 5.502196 2.360000 8.343944 5.502196 2.560000 8.351369 8.216482 2.360000 8.351369 8.216482 2.560000 8.351369 9.304286 2.360000 8.351369 9.304286 2.560000 8.351369 10.930768 2.360000 8.351369 10.930768 2.560000 8.351369 12.018572 2.360000 8.351369 12.018572 2.560000 8.384139 14.719425 2.360000 8.384139 14.719425 2.560000 8.389740 14.487084 2.360000 8.389740 14.487084 2.560000 8.389929 15.526154 2.360000 8.389929 15.526154 2.560000 8.406978 3.899655 2.360000 8.406978 3.899655 2.560000 8.406978 3.948430 2.360000 8.406978 3.948430 2.560000 8.447997 8.216482 2.360000 8.447997 8.216482 2.560000 8.447997 9.252756 2.360000 8.447997 9.252756 2.560000 8.447997 10.930768 2.360000 8.447997 10.930768 2.560000 8.447997 11.967041 2.360000 8.447997 11.967041 2.560000 8.484157 14.887157 2.360000 8.484157 14.887157 2.560000 8.485603 15.369622 2.360000 8.485603 15.369622 2.560000 8.517495 15.135223 2.360000 8.517495 15.135223 2.560000 8.543649 5.502196 2.360000 8.543649 5.502196 2.560000 8.566720 9.377002 2.360000 8.566720 9.377002 2.560000 8.566720 12.091288 2.360000 8.566720 12.091288 2.560000 8.599312 3.875715 2.360000 8.599312 3.875715 2.560000 8.613650 8.142857 2.360000 8.613650 8.142857 2.560000 8.613650 8.191633 2.360000 8.613650 8.191633 2.560000 8.613650 10.857142 2.360000 8.613650 10.857142 2.560000 8.613650 10.905918 2.360000 8.613650 10.905918 2.560000 8.640908 14.620025 2.360000 8.640908 14.620025 2.560000 8.643400 15.629304 2.360000 8.643400 15.629304 2.560000 8.700113 5.428571 2.360000 8.700113 5.428571 2.560000 8.700113 5.477347 2.360000 8.700113 5.477347 2.560000 8.707911 3.875715 2.360000 8.707911 3.875715 2.560000 8.768296 6.613940 2.360000 8.768296 6.613940 2.560000 8.768296 6.662716 2.360000 8.768296 6.662716 2.560000 8.780267 5.428571 2.360000 8.780267 5.428571 2.560000 8.780267 5.477347 2.360000 8.780267 5.477347 2.560000 8.795596 14.838282 2.360000 8.795596 14.838282 2.560000 8.815586 3.899655 2.360000 8.815586 3.899655 2.560000 8.815586 3.948430 2.360000 8.815586 3.948430 2.560000 8.821232 3.899655 2.360000 8.821232 3.899655 2.560000 8.821232 3.948430 2.360000 8.821232 3.948430 2.560000 8.847158 15.138546 2.360000 8.847158 15.138546 2.560000 8.926594 5.502196 2.360000 8.926594 5.502196 2.560000 8.926594 6.590000 2.360000 8.926594 6.590000 2.560000 8.928907 3.875715 2.360000 8.928907 3.875715 2.560000 9.036075 9.328226 2.360000 9.036075 9.328226 2.560000 9.036075 9.377002 2.360000 9.036075 9.377002 2.560000 9.036075 12.042512 2.360000 9.036075 12.042512 2.560000 9.036075 12.091288 2.360000 9.036075 12.091288 2.560000 9.104217 5.502196 2.360000 9.104217 5.502196 2.560000 9.104217 5.969718 2.360000 9.104217 5.969718 2.560000 9.104217 6.052545 2.360000 9.104217 6.052545 2.560000 9.104217 6.579876 2.360000 9.104217 6.579876 2.560000 9.105686 13.571428 2.360000 9.105686 13.571428 2.560000 9.105686 13.659225 2.360000 9.105686 13.659225 2.560000 9.105686 15.705093 2.360000 9.105686 15.705093 2.560000 9.105686 15.792890 2.360000 9.105686 15.792890 2.560000 9.111131 3.875715 2.360000 9.111131 3.875715 2.560000 9.201727 8.463129 2.360000 9.201727 8.463129 2.560000 9.201727 9.304286 2.360000 9.201727 9.304286 2.560000 9.201727 11.177415 2.360000 9.201727 11.177415 2.560000 9.201727 12.018572 2.360000 9.201727 12.018572 2.560000 9.209097 8.142857 2.360000 9.209097 8.142857 2.560000 9.209097 10.857142 2.360000 9.209097 10.857142 2.560000 9.261578 6.579876 2.360000 9.261578 6.579876 2.560000 9.267100 6.052545 2.360000 9.267100 6.052545 2.560000 9.291027 5.428571 2.360000 9.291027 5.428571 2.560000 9.291027 5.477347 2.360000 9.291027 5.477347 2.560000 9.292432 3.899655 2.360000 9.292432 3.899655 2.560000 9.292432 3.948430 2.360000 9.292432 3.948430 2.560000 9.298369 8.142857 2.360000 9.298369 8.142857 2.560000 9.298369 9.304286 2.360000 9.298369 9.304286 2.560000 9.298369 10.857142 2.360000 9.298369 10.857142 2.560000 9.298369 12.018572 2.360000 9.298369 12.018572 2.560000 9.301151 6.662716 2.360000 9.301151 6.662716 2.560000 9.326001 5.969718 2.360000 9.326001 5.969718 2.560000 9.337516 2.685758 2.360000 9.337516 2.685758 2.560000 9.386306 2.685758 2.360000 9.386306 2.685758 2.560000 9.390621 13.703954 2.360000 9.390621 13.703954 2.560000 9.390621 15.662002 2.360000 9.390621 15.662002 2.560000 9.404708 3.006030 2.360000 9.404708 3.006030 2.560000 9.407792 6.565036 2.360000 9.407792 6.565036 2.560000 9.408027 6.067843 2.360000 9.408027 6.067843 2.560000 9.456666 9.328226 2.360000 9.456666 9.328226 2.560000 9.456666 9.377002 2.360000 9.456666 9.377002 2.560000 9.456666 12.042512 2.360000 9.456666 12.042512 2.560000 9.456666 12.091288 2.360000 9.456666 12.091288 2.560000 9.500869 5.995490 2.360000 9.500869 5.995490 2.560000 9.501316 6.113738 2.360000 9.501316 6.113738 2.560000 9.502239 6.520515 2.360000 9.502239 6.520515 2.560000 9.502701 6.643156 2.360000 9.502701 6.643156 2.560000 9.553431 6.195995 2.360000 9.553431 6.195995 2.560000 9.553661 6.440799 2.360000 9.553661 6.440799 2.560000 9.570802 6.320350 2.360000 9.570802 6.320350 2.560000 9.577303 8.745659 2.360000 9.577303 8.745659 2.560000 9.577303 11.459945 2.360000 9.577303 11.459945 2.560000 9.606706 6.044144 2.360000 9.606706 6.044144 2.560000 9.617566 9.025319 2.360000 9.617566 9.025319 2.560000 9.617566 11.739605 2.360000 9.617566 11.739605 2.560000 9.619178 8.483945 2.360000 9.619178 8.483945 2.560000 9.619178 11.198230 2.360000 9.619178 11.198230 2.560000 9.643504 6.584477 2.360000 9.643504 6.584477 2.560000 9.672968 5.428571 2.360000 9.672968 5.428571 2.560000 9.686770 6.120185 2.360000 9.686770 6.120185 2.560000 9.708681 13.703954 2.360000 9.708681 13.703954 2.560000 9.708681 15.662002 2.360000 9.708681 15.662002 2.560000 9.714856 3.536130 2.360000 9.714856 3.536130 2.560000 9.726337 6.482556 2.360000 9.726337 6.482556 2.560000 9.736937 3.861913 2.360000 9.736937 3.861913 2.560000 9.737154 6.218316 2.360000 9.737154 6.218316 2.560000 9.738355 9.227445 2.360000 9.738355 9.227445 2.560000 9.738355 11.941730 2.360000 9.738355 11.941730 2.560000 9.744802 8.287800 2.360000 9.744802 8.287800 2.560000 9.744802 11.002086 2.360000 9.744802 11.002086 2.560000 9.753948 6.333243 2.360000 9.753948 6.333243 2.560000 9.769650 8.747505 2.360000 9.769650 8.747505 2.560000 9.769650 11.461791 2.360000 9.769650 11.461791 2.560000 9.778357 3.861913 2.360000 9.778357 3.861913 2.560000 9.796801 9.001046 2.360000 9.796801 9.001046 2.560000 9.796801 11.715332 2.360000 9.796801 11.715332 2.560000 9.798066 8.510524 2.360000 9.798066 8.510524 2.560000 9.798066 11.224810 2.360000 9.798066 11.224810 2.560000 9.834943 5.502196 2.360000 9.834943 5.502196 2.560000 9.878249 9.178207 2.360000 9.878249 9.178207 2.560000 9.878249 11.892493 2.360000 9.878249 11.892493 2.560000 9.883311 8.337037 2.360000 9.883311 8.337037 2.560000 9.883311 11.051323 2.360000 9.883311 11.051323 2.560000 9.938299 9.349964 2.360000 9.938299 9.349964 2.560000 9.938299 12.064250 2.360000 9.938299 12.064250 2.560000 9.945432 8.165291 2.360000 9.945432 8.165291 2.560000 9.945432 10.879577 2.360000 9.945432 10.879577 2.560000 9.968377 5.428571 2.360000 9.968377 5.428571 2.560000 9.968377 5.477347 2.360000 9.968377 5.477347 2.560000 9.993616 13.571428 2.360000 9.993616 13.571428 2.560000 9.993616 13.659225 2.360000 9.993616 13.659225 2.560000 9.993616 15.705093 2.360000 9.993616 15.705093 2.560000 9.993616 15.792890 2.360000 9.993616 15.792890 2.560000 10.018829 9.282436 2.360000 10.018829 9.282436 2.560000 10.018829 11.996722 2.360000 10.018829 11.996722 2.560000 10.022857 8.230742 2.360000 10.022857 8.230742 2.560000 10.022857 10.945028 2.360000 10.022857 10.945028 2.560000 10.025526 5.428571 2.360000 10.025526 5.428571 2.560000 10.025526 5.477347 2.360000 10.025526 5.477347 2.560000 10.025526 6.613940 2.360000 10.025526 6.613940 2.560000 10.025526 6.662716 2.360000 10.025526 6.662716 2.560000 10.035114 2.685758 2.360000 10.035114 2.685758 2.560000 10.083890 2.685758 2.360000 10.083890 2.685758 2.560000 10.098616 3.006030 2.360000 10.098616 3.006030 2.560000 10.183824 5.502196 2.360000 10.183824 5.502196 2.560000 10.183824 6.590000 2.360000 10.183824 6.590000 2.560000 10.186056 3.899655 2.360000 10.186056 3.899655 2.560000 10.186056 3.948430 2.360000 10.186056 3.948430 2.560000 10.212323 8.124454 2.360000 10.212323 8.124454 2.560000 10.212323 10.838740 2.360000 10.212323 10.838740 2.560000 10.214170 8.195310 2.360000 10.214170 8.195310 2.560000 10.214170 10.909596 2.360000 10.214170 10.909596 2.560000 10.216002 9.390804 2.360000 10.216002 9.390804 2.560000 10.216002 12.105090 2.360000 10.216002 12.105090 2.560000 10.223371 9.317180 2.360000 10.223371 9.317180 2.560000 10.223371 12.031465 2.360000 10.223371 12.031465 2.560000 10.252094 14.656472 2.360000 10.252094 14.656472 2.560000 10.280452 5.502196 2.360000 10.280452 5.502196 2.560000 10.280452 6.489694 2.360000 10.280452 6.489694 2.560000 10.310913 9.311771 2.360000 10.310913 9.311771 2.560000 10.310913 12.026057 2.360000 10.310913 12.026057 2.560000 10.316088 8.201638 2.360000 10.316088 8.201638 2.560000 10.316088 10.915924 2.360000 10.316088 10.915924 2.560000 10.324568 15.159860 2.360000 10.324568 15.159860 2.560000 10.327469 14.185386 2.360000 10.327469 14.185386 2.560000 10.378390 3.875715 2.360000 10.378390 3.875715 2.560000 10.396841 9.295547 2.360000 10.396841 9.295547 2.560000 10.396841 12.009832 2.360000 10.396841 12.009832 2.560000 10.399175 6.662716 2.360000 10.399175 6.662716 2.560000 10.412027 8.220621 2.360000 10.412027 8.220621 2.560000 10.412027 10.934907 2.360000 10.412027 10.934907 2.560000 10.415481 9.379068 2.360000 10.415481 9.379068 2.560000 10.415481 12.093354 2.360000 10.415481 12.093354 2.560000 10.437565 8.138948 2.360000 10.437565 8.138948 2.560000 10.437565 10.853234 2.360000 10.437565 10.853234 2.560000 10.446105 5.428571 2.360000 10.446105 5.428571 2.560000 10.446105 5.477347 2.360000 10.446105 5.477347 2.560000 10.476797 9.269439 2.360000 10.476797 9.269439 2.560000 10.476797 11.983724 2.360000 10.476797 11.983724 2.560000 10.486989 3.875715 2.360000 10.486989 3.875715 2.560000 10.495315 8.250187 2.360000 10.495315 8.250187 2.560000 10.495315 10.964473 2.360000 10.495315 10.964473 2.560000 10.541988 15.523686 2.360000 10.541988 15.523686 2.560000 10.546398 9.234353 2.360000 10.546398 9.234353 2.560000 10.546398 11.948639 2.360000 10.546398 11.948639 2.560000 10.553592 13.832326 2.360000 10.553592 13.832326 2.560000 10.559278 8.288261 2.360000 10.559278 8.288261 2.560000 10.559278 11.002547 2.360000 10.559278 11.002547 2.560000 10.574002 9.074210 2.360000 10.574002 9.074210 2.560000 10.574002 11.788496 2.360000 10.574002 11.788496 2.560000 10.593328 8.472331 2.360000 10.593328 8.472331 2.560000 10.593328 11.186617 2.360000 10.593328 11.186617 2.560000 10.594665 3.899655 2.360000 10.594665 3.899655 2.560000 10.594665 3.948430 2.360000 10.594665 3.948430 2.560000 10.598321 14.659795 2.360000 10.598321 14.659795 2.560000 10.629224 9.343861 2.360000 10.629224 9.343861 2.560000 10.629224 12.058146 2.360000 10.629224 12.058146 2.560000 10.634748 9.074210 2.360000 10.634748 9.074210 2.560000 10.634748 11.788496 2.360000 10.634748 11.788496 2.560000 10.647190 15.116169 2.360000 10.647190 15.116169 2.560000 10.647627 8.182431 2.360000 10.647627 8.182431 2.560000 10.647627 10.896717 2.360000 10.647627 10.896717 2.560000 10.649468 14.233229 2.360000 10.649468 14.233229 2.560000 10.652764 2.714285 2.360000 10.652764 2.714285 2.560000 10.652764 2.763061 2.360000 10.652764 2.763061 2.560000 10.652764 3.899655 2.360000 10.652764 3.899655 2.560000 10.652764 3.948430 2.360000 10.652764 3.948430 2.560000 10.653151 8.472331 2.360000 10.653151 8.472331 2.560000 10.653151 11.186617 2.360000 10.653151 11.186617 2.560000 10.732327 5.428571 2.360000 10.732327 5.428571 2.560000 10.764531 5.428571 2.360000 10.764531 5.428571 2.560000 10.793798 15.435060 2.360000 10.793798 15.435060 2.560000 10.800427 5.723994 2.360000 10.800427 5.723994 2.560000 10.802910 13.920953 2.360000 10.802910 13.920953 2.560000 10.811061 2.787910 2.360000 10.811061 2.787910 2.560000 10.811061 3.875715 2.360000 10.811061 3.875715 2.560000 10.811529 9.328226 2.360000 10.811529 9.328226 2.560000 10.811529 9.377002 2.360000 10.811529 9.377002 2.560000 10.811529 12.042512 2.360000 10.811529 12.042512 2.560000 10.811529 12.091288 2.360000 10.811529 12.091288 2.560000 10.823500 8.142857 2.360000 10.823500 8.142857 2.560000 10.823500 8.191633 2.360000 10.823500 8.191633 2.560000 10.823500 10.857142 2.360000 10.823500 10.857142 2.560000 10.823500 10.905918 2.360000 10.823500 10.905918 2.560000 10.901889 15.744222 2.360000 10.901889 15.744222 2.560000 10.907690 2.787910 2.360000 10.907690 2.787910 2.560000 10.907690 3.824184 2.360000 10.907690 3.824184 2.560000 10.914725 13.611809 2.360000 10.914725 13.611809 2.560000 10.969827 8.216482 2.360000 10.969827 8.216482 2.560000 10.969827 9.304286 2.360000 10.969827 9.304286 2.560000 10.969827 10.930768 2.360000 10.969827 10.930768 2.560000 10.969827 12.018572 2.360000 10.969827 12.018572 2.560000 11.026413 3.948430 2.360000 11.026413 3.948430 2.560000 11.046842 15.622671 2.360000 11.046842 15.622671 2.560000 11.054090 13.729622 2.360000 11.054090 13.729622 2.560000 11.073342 2.714285 2.360000 11.073342 2.714285 2.560000 11.073342 2.763061 2.360000 11.073342 2.763061 2.560000 11.091250 5.428571 2.360000 11.091250 5.428571 2.560000 11.091250 5.477347 2.360000 11.091250 5.477347 2.560000 11.147449 8.216482 2.360000 11.147449 8.216482 2.560000 11.147449 8.626936 2.360000 11.147449 8.626936 2.560000 11.147449 8.709777 2.360000 11.147449 8.709777 2.560000 11.147449 9.294162 2.360000 11.147449 9.294162 2.560000 11.147449 10.930768 2.360000 11.147449 10.930768 2.560000 11.147449 11.341222 2.360000 11.147449 11.341222 2.560000 11.147449 11.424062 2.360000 11.147449 11.424062 2.560000 11.147449 12.008448 2.360000 11.147449 12.008448 2.560000 11.237632 9.294162 2.360000 11.237632 9.294162 2.560000 11.237632 12.008448 2.360000 11.237632 12.008448 2.560000 11.238500 6.662716 2.360000 11.238500 6.662716 2.560000 11.243155 8.709777 2.360000 11.243155 8.709777 2.560000 11.243155 11.424062 2.360000 11.243155 11.424062 2.560000 11.256903 5.502196 2.360000 11.256903 5.502196 2.560000 11.256903 6.489694 2.360000 11.256903 6.489694 2.560000 11.277205 9.377002 2.360000 11.277205 9.377002 2.560000 11.277205 12.091288 2.360000 11.277205 12.091288 2.560000 11.286407 8.626936 2.360000 11.286407 8.626936 2.560000 11.286407 11.341222 2.360000 11.286407 11.341222 2.560000 11.343475 8.142857 2.360000 11.343475 8.142857 2.560000 11.343475 8.191633 2.360000 11.343475 8.191633 2.560000 11.343475 10.857142 2.360000 11.343475 10.857142 2.560000 11.343475 10.905918 2.360000 11.343475 10.905918 2.560000 11.378323 8.727490 2.360000 11.378323 8.727490 2.560000 11.378323 11.441776 2.360000 11.378323 11.441776 2.560000 11.380969 9.277825 2.360000 11.380969 9.277825 2.560000 11.380969 11.992111 2.360000 11.380969 11.992111 2.560000 11.395132 13.538303 2.360000 11.395132 13.538303 2.560000 11.398455 13.665845 2.360000 11.398455 13.665845 2.560000 11.401752 15.817734 2.360000 11.401752 15.817734 2.560000 11.415017 15.685208 2.360000 11.415017 15.685208 2.560000 11.433603 5.502196 2.360000 11.433603 5.502196 2.560000 11.433603 6.590000 2.360000 11.433603 6.590000 2.560000 11.472770 8.780633 2.360000 11.472770 8.780633 2.560000 11.472770 11.494919 2.360000 11.472770 11.494919 2.560000 11.475882 8.651555 2.360000 11.475882 8.651555 2.560000 11.475882 11.365841 2.360000 11.475882 11.365841 2.560000 11.475986 9.228816 2.360000 11.475986 9.228816 2.560000 11.475986 11.943102 2.360000 11.475986 11.943102 2.560000 11.495767 3.899655 2.360000 11.495767 3.899655 2.560000 11.495767 3.948430 2.360000 11.495767 3.948430 2.560000 11.528335 8.873817 2.360000 11.528335 8.873817 2.560000 11.528335 11.588103 2.360000 11.528335 11.588103 2.560000 11.529139 9.141853 2.360000 11.529139 9.141853 2.560000 11.529139 11.856139 2.360000 11.529139 11.856139 2.560000 11.546857 9.011632 2.360000 11.546857 9.011632 2.560000 11.546857 11.725918 2.360000 11.546857 11.725918 2.560000 11.572594 15.675473 2.360000 11.572594 15.675473 2.560000 11.581906 13.677235 2.360000 11.581906 13.677235 2.560000 11.591900 5.428571 2.360000 11.591900 5.428571 2.560000 11.591900 5.477347 2.360000 11.591900 5.477347 2.560000 11.591900 6.613940 2.360000 11.591900 6.613940 2.560000 11.591900 6.662716 2.360000 11.591900 6.662716 2.560000 11.615419 8.725410 2.360000 11.615419 8.725410 2.560000 11.615419 11.439696 2.360000 11.615419 11.439696 2.560000 11.616803 9.286121 2.360000 11.616803 9.286121 2.560000 11.616803 12.000407 2.360000 11.616803 12.000407 2.560000 11.661420 3.034557 2.360000 11.661420 3.034557 2.560000 11.661420 3.875715 2.360000 11.661420 3.875715 2.560000 11.668789 2.714285 2.360000 11.668789 2.714285 2.560000 11.701357 8.846664 2.360000 11.701357 8.846664 2.560000 11.701357 11.560950 2.360000 11.701357 11.560950 2.560000 11.727262 15.646269 2.360000 11.727262 15.646269 2.560000 11.730002 9.013478 2.360000 11.730002 9.013478 2.560000 11.730002 11.727763 2.360000 11.730002 11.727763 2.560000 11.754599 13.711404 2.360000 11.754599 13.711404 2.560000 11.758061 2.714285 2.360000 11.758061 2.714285 2.560000 11.758061 3.875715 2.360000 11.758061 3.875715 2.560000 11.760816 15.796609 2.360000 11.760816 15.796609 2.560000 11.800567 13.564393 2.360000 11.800567 13.564393 2.560000 11.859827 8.142857 2.360000 11.859827 8.142857 2.560000 11.859827 8.191633 2.360000 11.859827 8.191633 2.560000 11.859827 9.328226 2.360000 11.859827 9.328226 2.560000 11.859827 9.377002 2.360000 11.859827 9.377002 2.560000 11.859827 10.857142 2.360000 11.859827 10.857142 2.560000 11.859827 10.905918 2.360000 11.859827 10.905918 2.560000 11.859827 12.042512 2.360000 11.859827 12.042512 2.560000 11.859827 12.091288 2.360000 11.859827 12.091288 2.560000 11.871183 15.599275 2.360000 11.871183 15.599275 2.560000 11.904516 13.764622 2.360000 11.904516 13.764622 2.560000 11.916359 3.899655 2.360000 11.916359 3.899655 2.560000 11.916359 3.948430 2.360000 11.916359 3.948430 2.560000 11.996466 15.536120 2.360000 11.996466 15.536120 2.560000 12.013991 2.714285 2.360000 12.013991 2.714285 2.560000 12.013991 2.763061 2.360000 12.013991 2.763061 2.560000 12.013991 3.899655 2.360000 12.013991 3.899655 2.560000 12.013991 3.948430 2.360000 12.013991 3.948430 2.560000 12.018125 8.216482 2.360000 12.018125 8.216482 2.560000 12.018125 9.304286 2.360000 12.018125 9.304286 2.560000 12.018125 10.930768 2.360000 12.018125 10.930768 2.560000 12.018125 12.018572 2.360000 12.018125 12.018572 2.560000 12.019649 13.833157 2.360000 12.019649 13.833157 2.560000 12.046153 15.247864 2.360000 12.046153 15.247864 2.560000 12.080939 14.164481 2.360000 12.080939 14.164481 2.560000 12.114753 8.216482 2.360000 12.114753 8.216482 2.560000 12.114753 9.252756 2.360000 12.114753 9.252756 2.560000 12.114753 10.930768 2.360000 12.114753 10.930768 2.560000 12.114753 11.967041 2.360000 12.114753 11.967041 2.560000 12.145554 15.733235 2.360000 12.145554 15.733235 2.560000 12.155496 15.247864 2.360000 12.155496 15.247864 2.560000 12.172289 2.787910 2.360000 12.172289 2.787910 2.560000 12.172289 3.875715 2.360000 12.172289 3.875715 2.560000 12.178679 13.642662 2.360000 12.178679 13.642662 2.560000 12.188621 14.164481 2.360000 12.188621 14.164481 2.560000 12.233476 9.377002 2.360000 12.233476 9.377002 2.560000 12.233476 12.091288 2.360000 12.233476 12.091288 2.560000 12.268917 2.787910 2.360000 12.268917 2.787910 2.560000 12.268917 3.824184 2.360000 12.268917 3.824184 2.560000 12.280406 8.142857 2.360000 12.280406 8.142857 2.560000 12.280406 8.191633 2.360000 12.280406 8.191633 2.560000 12.280406 10.857142 2.360000 12.280406 10.857142 2.560000 12.280406 10.905918 2.360000 12.280406 10.905918 2.560000 12.387640 3.948430 2.360000 12.387640 3.948430 2.560000 12.434570 2.714285 2.360000 12.434570 2.714285 2.560000 12.434570 2.763061 2.360000 12.434570 2.763061 2.560000 12.538316 14.076685 2.360000 12.538316 14.076685 2.560000 12.556540 13.609537 2.360000 12.556540 13.609537 2.560000 12.606227 15.319098 2.360000 12.606227 15.319098 2.560000 12.606227 15.746500 2.360000 12.606227 15.746500 2.560000 12.647634 14.076685 2.360000 12.647634 14.076685 2.560000 12.702830 9.328226 2.360000 12.702830 9.328226 2.560000 12.702830 9.377002 2.360000 12.702830 9.377002 2.560000 12.702830 12.042512 2.360000 12.702830 12.042512 2.560000 12.702830 12.091288 2.360000 12.702830 12.091288 2.560000 12.715569 15.319098 2.360000 12.715569 15.319098 2.560000 12.722190 13.765244 2.360000 12.722190 13.765244 2.560000 12.759034 15.782318 2.360000 12.759034 15.782318 2.560000 12.773539 15.590768 2.360000 12.773539 15.590768 2.560000 12.800258 13.731283 2.360000 12.800258 13.731283 2.560000 12.846434 13.556112 2.360000 12.846434 13.556112 2.560000 12.852229 15.626598 2.360000 12.852229 15.626598 2.560000 12.856995 3.899655 2.360000 12.856995 3.899655 2.560000 12.856995 3.948430 2.360000 12.856995 3.948430 2.560000 12.868483 8.463129 2.360000 12.868483 8.463129 2.560000 12.868483 9.304286 2.360000 12.868483 9.304286 2.560000 12.868483 11.177415 2.360000 12.868483 11.177415 2.560000 12.868483 12.018572 2.360000 12.868483 12.018572 2.560000 12.875853 8.142857 2.360000 12.875853 8.142857 2.560000 12.875853 10.857142 2.360000 12.875853 10.857142 2.560000 12.889477 15.803638 2.360000 12.889477 15.803638 2.560000 12.905233 13.702292 2.360000 12.905233 13.702292 2.560000 12.929246 14.663093 2.360000 12.929246 14.663093 2.560000 12.929246 14.798940 2.360000 12.929246 14.798940 2.560000 12.942511 15.654551 2.360000 12.942511 15.654551 2.560000 12.965125 8.142857 2.360000 12.965125 8.142857 2.560000 12.965125 9.304286 2.360000 12.965125 9.304286 2.560000 12.965125 10.857142 2.360000 12.965125 10.857142 2.560000 12.965125 12.018572 2.360000 12.965125 12.018572 2.560000 13.008346 15.814210 2.360000 13.008346 15.814210 2.560000 13.019748 13.682414 2.360000 13.019748 13.682414 2.560000 13.022648 3.034557 2.360000 13.022648 3.034557 2.560000 13.022648 3.875715 2.360000 13.022648 3.875715 2.560000 13.030017 2.714285 2.360000 13.030017 2.714285 2.560000 13.036518 15.672579 2.360000 13.036518 15.672579 2.560000 13.119289 2.714285 2.360000 13.119289 2.714285 2.560000 13.119289 3.875715 2.360000 13.119289 3.875715 2.560000 13.123423 9.328226 2.360000 13.123423 9.328226 2.560000 13.123423 9.377002 2.360000 13.123423 9.377002 2.560000 13.123423 12.042512 2.360000 13.123423 12.042512 2.560000 13.123423 12.091288 2.360000 13.123423 12.091288 2.560000 13.126385 13.675787 2.360000 13.126385 13.675787 2.560000 13.126385 15.678588 2.360000 13.126385 15.678588 2.560000 13.126385 15.817734 2.360000 13.126385 15.817734 2.560000 13.152890 13.538303 2.360000 13.152890 13.538303 2.560000 13.166155 14.649853 2.360000 13.166155 14.649853 2.560000 13.166155 14.813841 2.360000 13.166155 14.813841 2.560000 13.277587 3.899655 2.360000 13.277587 3.899655 2.560000 13.277587 3.948430 2.360000 13.277587 3.948430 2.560000 13.309642 15.653115 2.360000 13.309642 15.653115 2.560000 13.328897 14.847803 2.360000 13.328897 14.847803 2.560000 13.352514 13.705603 2.360000 13.352514 13.705603 2.560000 13.353326 14.734326 2.360000 13.353326 14.734326 2.560000 13.374866 14.612782 2.360000 13.374866 14.612782 2.560000 13.375219 2.714285 2.360000 13.375219 2.714285 2.560000 13.375219 2.763061 2.360000 13.375219 2.763061 2.560000 13.375219 3.899655 2.360000 13.375219 3.899655 2.560000 13.375219 3.948430 2.360000 13.375219 3.948430 2.560000 13.435333 15.576696 2.360000 13.435333 15.576696 2.560000 13.442783 14.929804 2.360000 13.442783 14.929804 2.560000 13.486279 13.580546 2.360000 13.486279 13.580546 2.560000 13.508014 15.444386 2.360000 13.508014 15.444386 2.560000 13.509876 15.063159 2.360000 13.509876 15.063159 2.560000 13.510719 13.795048 2.360000 13.510719 13.795048 2.560000 13.520638 14.524778 2.360000 13.520638 14.524778 2.560000 13.532241 15.251186 2.360000 13.532241 15.251186 2.560000 13.533517 2.787910 2.360000 13.533517 2.787910 2.560000 13.533517 3.875715 2.360000 13.533517 3.875715 2.560000 13.558948 14.793352 2.360000 13.558948 14.793352 2.560000 13.603902 13.954090 2.360000 13.603902 13.954090 2.560000 13.606381 14.385010 2.360000 13.606381 14.385010 2.560000 13.615067 14.673658 2.360000 13.615067 14.673658 2.560000 13.630145 2.787910 2.360000 13.630145 2.787910 2.560000 13.630145 3.824184 2.360000 13.630145 3.824184 2.560000 13.634963 14.192647 2.360000 13.634963 14.192647 2.560000 13.660620 15.681067 2.360000 13.660620 15.681067 2.560000 13.711962 14.904129 2.360000 13.711962 14.904129 2.560000 13.734339 13.707275 2.360000 13.734339 13.707275 2.560000 13.748868 3.948430 2.360000 13.748868 3.948430 2.560000 13.795798 2.714285 2.360000 13.795798 2.714285 2.560000 13.795798 2.763061 2.360000 13.795798 2.763061 2.560000 13.797291 14.561226 2.360000 13.797291 14.561226 2.560000 13.807014 15.064203 2.360000 13.807014 15.064203 2.560000 13.838697 15.271070 2.360000 13.838697 15.271070 2.560000 13.888404 13.908964 2.360000 13.888404 13.908964 2.560000 13.904141 14.395782 2.360000 13.904141 14.395782 2.560000 13.939758 14.176085 2.360000 13.939758 14.176085 2.560000 14.218223 3.899655 2.360000 14.218223 3.899655 2.560000 14.218223 3.948430 2.360000 14.218223 3.948430 2.560000 14.221493 13.571428 2.360000 14.221493 13.571428 2.560000 14.221493 13.814933 2.360000 14.221493 13.814933 2.560000 14.296049 15.319098 2.360000 14.296049 15.319098 2.560000 14.296049 15.746500 2.360000 14.296049 15.746500 2.560000 14.383875 3.034557 2.360000 14.383875 3.034557 2.560000 14.383875 3.875715 2.360000 14.383875 3.875715 2.560000 14.391245 2.714285 2.360000 14.391245 2.714285 2.560000 14.405367 15.319098 2.360000 14.405367 15.319098 2.560000 14.438517 13.826536 2.360000 14.438517 13.826536 2.560000 14.463361 15.590768 2.360000 14.463361 15.590768 2.560000 14.480517 2.714285 2.360000 14.480517 2.714285 2.560000 14.480517 3.875715 2.360000 14.480517 3.875715 2.560000 14.529611 14.094909 2.360000 14.529611 14.094909 2.560000 14.539974 15.626598 2.360000 14.539974 15.626598 2.560000 14.574767 15.799925 2.360000 14.574767 15.799925 2.560000 14.599611 13.971074 2.360000 14.599611 13.971074 2.560000 14.627350 15.654551 2.360000 14.627350 15.654551 2.560000 14.638815 3.899655 2.360000 14.638815 3.899655 2.560000 14.638815 3.948430 2.360000 14.638815 3.948430 2.560000 14.718884 15.672579 2.360000 14.718884 15.672579 2.560000 14.751594 14.103189 2.360000 14.751594 14.103189 2.560000 14.786801 14.330132 2.360000 14.786801 14.330132 2.560000 14.807925 15.678588 2.360000 14.807925 15.678588 2.560000 14.807925 15.817734 2.360000 14.807925 15.817734 2.560000 14.965294 14.515666 2.360000 14.965294 14.515666 2.560000 14.998847 15.650422 2.360000 14.998847 15.650422 2.560000 15.047289 14.363892 2.360000 15.047289 14.363892 2.560000 15.084768 14.678837 2.360000 15.084768 14.678837 2.560000 15.127024 15.779839 2.360000 15.127024 15.779839 2.560000 15.127646 15.565924 2.360000 15.127646 15.565924 2.560000 15.164900 14.846967 2.360000 15.164900 14.846967 2.560000 15.200951 15.427603 2.360000 15.200951 15.427603 2.560000 15.210264 15.030022 2.360000 15.210264 15.030022 2.560000 15.225386 15.237922 2.360000 15.225386 15.237922 2.560000 15.245246 14.559565 2.360000 15.245246 14.559565 2.560000 15.355418 15.666154 2.360000 15.355418 15.666154 2.560000 15.375077 14.723156 2.360000 15.375077 14.723156 2.560000 15.466397 14.887567 2.360000 15.466397 14.887567 2.560000 15.492702 15.483306 2.360000 15.492702 15.483306 2.560000 15.520446 15.057565 2.360000 15.520446 15.057565 2.560000 15.538462 15.237922 2.360000 15.538462 15.237922 2.560000 15.581530 13.571428 2.360000 15.581530 13.571428 2.560000 15.581530 13.826536 2.360000 15.581530 13.826536 2.560000 19.000000 0.000000 0.000000 19.000000 0.000000 2.360000 19.000000 19.000000 0.000000 19.000000 19.000000 2.360000 "
							            />
						</IndexedFaceSet>
					</Shape>
					<Shape>
						<Appearance>
							<Material DEF="MA_Color_2"
							          diffuseColor="1.000 1.000 1.000"
							          specularColor="0.401 0.401 0.401"
							          emissiveColor="0.000 0.000 0.000"
							          ambientIntensity="0.000"
							          shininess="0.500"
							          transparency="1.000"
							          />
						</Appearance>
						<IndexedFaceSet solid="false"
						                coordIndex="4 5 8 -1 4 6 7 -1 4 7 5 -1 5 7 51 -1 5 9 8 -1 5 21 9 -1 5 25 21 -1 5 29 25 -1 5 33 29 -1 5 37 33 -1 5 39 37 -1 5 43 39 -1 5 47 43 -1 5 51 47 -1 6 10 11 -1 6 11 7 -1 7 11 63 -1 7 55 51 -1 7 59 55 -1 7 63 59 -1 8 9 12 -1 9 13 12 -1 9 17 13 -1 9 21 17 -1 10 14 15 -1 10 15 11 -1 11 15 63 -1 12 13 16 -1 13 17 16 -1 14 18 19 -1 14 19 15 -1 15 19 63 -1 16 17 20 -1 17 21 20 -1 18 22 23 -1 18 23 19 -1 19 23 63 -1 20 21 24 -1 21 25 24 -1 22 26 27 -1 22 27 23 -1 23 27 63 -1 24 25 28 -1 25 29 28 -1 26 30 31 -1 26 31 27 -1 27 31 63 -1 28 29 32 -1 29 33 32 -1 30 34 35 -1 30 35 31 -1 31 35 67 -1 31 67 63 -1 32 33 36 -1 33 37 36 -1 34 40 41 -1 34 41 35 -1 35 41 53 -1 35 53 57 -1 35 57 61 -1 35 61 65 -1 35 65 67 -1 36 37 38 -1 37 39 38 -1 38 39 42 -1 39 43 42 -1 40 44 45 -1 40 45 41 -1 41 45 49 -1 41 49 53 -1 42 43 46 -1 43 47 46 -1 44 48 49 -1 44 49 45 -1 46 47 50 -1 47 51 50 -1 48 52 53 -1 48 53 49 -1 50 51 54 -1 51 55 54 -1 52 56 57 -1 52 57 53 -1 54 55 58 -1 55 59 58 -1 56 60 61 -1 56 61 57 -1 58 59 62 -1 59 63 62 -1 60 64 65 -1 60 65 61 -1 62 63 66 -1 63 67 66 -1 64 66 67 -1 64 67 65 -1 68 69 70 -1 68 86 87 -1 68 87 69 -1 69 71 70 -1 69 77 71 -1 69 87 77 -1 70 71 76 -1 71 77 76 -1 72 73 74 -1 72 78 79 -1 72 79 73 -1 73 75 74 -1 73 79 75 -1 74 75 84 -1 75 79 85 -1 75 85 84 -1 76 77 79 -1 76 79 78 -1 77 81 83 -1 77 83 79 -1 77 87 81 -1 79 83 85 -1 80 81 88 -1 80 82 83 -1 80 83 81 -1 81 87 89 -1 81 89 88 -1 82 96 97 -1 82 97 83 -1 83 97 99 -1 83 99 107 -1 83 107 85 -1 84 85 106 -1 85 107 106 -1 86 88 89 -1 86 89 87 -1 90 91 92 -1 90 94 95 -1 90 95 91 -1 91 93 92 -1 91 95 93 -1 92 93 110 -1 93 95 101 -1 93 101 111 -1 93 111 110 -1 94 114 115 -1 94 115 95 -1 95 115 101 -1 96 98 99 -1 96 99 97 -1 98 142 143 -1 98 143 99 -1 99 143 107 -1 100 101 116 -1 100 108 109 -1 100 109 101 -1 101 109 111 -1 101 115 117 -1 101 117 116 -1 102 103 104 -1 102 130 131 -1 102 131 103 -1 103 105 104 -1 103 113 105 -1 103 131 113 -1 104 105 112 -1 105 113 112 -1 106 107 138 -1 107 139 138 -1 107 143 139 -1 108 110 111 -1 108 111 109 -1 112 113 114 -1 113 115 114 -1 113 119 115 -1 113 131 119 -1 115 119 121 -1 115 121 117 -1 116 117 134 -1 117 121 135 -1 117 135 134 -1 118 119 132 -1 118 120 121 -1 118 121 119 -1 119 131 133 -1 119 133 132 -1 120 136 137 -1 120 137 121 -1 121 137 135 -1 122 123 124 -1 122 134 135 -1 122 135 123 -1 123 125 124 -1 123 135 125 -1 124 125 146 -1 125 135 137 -1 125 137 147 -1 125 147 146 -1 126 127 128 -1 126 196 197 -1 126 197 127 -1 127 129 128 -1 127 141 129 -1 127 197 141 -1 128 129 140 -1 129 141 140 -1 130 132 133 -1 130 133 131 -1 136 144 145 -1 136 145 137 -1 137 145 147 -1 138 139 202 -1 139 143 155 -1 139 155 157 -1 139 157 203 -1 139 203 202 -1 140 141 142 -1 141 143 142 -1 141 155 143 -1 141 197 155 -1 144 146 147 -1 144 147 145 -1 148 149 150 -1 148 152 153 -1 148 153 149 -1 149 151 150 -1 149 153 151 -1 150 151 214 -1 151 153 171 -1 151 171 215 -1 151 215 214 -1 152 222 223 -1 152 223 153 -1 153 223 171 -1 154 155 198 -1 154 156 157 -1 154 157 155 -1 155 197 199 -1 155 199 198 -1 156 200 201 -1 156 201 157 -1 157 201 203 -1 158 159 162 -1 158 166 167 -1 158 167 159 -1 159 163 162 -1 159 167 185 -1 159 185 163 -1 160 161 164 -1 160 168 169 -1 160 169 161 -1 161 165 164 -1 161 169 187 -1 161 187 165 -1 162 163 172 -1 163 173 172 -1 163 185 189 -1 163 189 173 -1 164 165 174 -1 165 175 174 -1 165 187 191 -1 165 191 175 -1 166 180 181 -1 166 181 167 -1 167 181 193 -1 167 193 185 -1 168 182 183 -1 168 183 169 -1 169 183 195 -1 169 195 187 -1 170 171 236 -1 170 212 213 -1 170 213 171 -1 171 213 215 -1 171 223 237 -1 171 237 236 -1 172 173 216 -1 173 189 205 -1 173 205 217 -1 173 217 216 -1 174 175 218 -1 175 191 207 -1 175 207 219 -1 175 219 218 -1 176 177 178 -1 176 266 267 -1 176 267 177 -1 177 179 178 -1 177 221 179 -1 177 267 221 -1 178 179 220 -1 179 221 220 -1 180 224 225 -1 180 225 181 -1 181 209 193 -1 181 225 209 -1 182 226 227 -1 182 227 183 -1 183 211 195 -1 183 227 211 -1 184 185 192 -1 184 188 189 -1 184 189 185 -1 185 193 192 -1 186 187 194 -1 186 190 191 -1 186 191 187 -1 187 195 194 -1 188 204 205 -1 188 205 189 -1 190 206 207 -1 190 207 191 -1 192 193 208 -1 193 209 208 -1 194 195 210 -1 195 211 210 -1 196 198 199 -1 196 199 197 -1 200 202 203 -1 200 203 201 -1 204 228 229 -1 204 229 205 -1 205 229 217 -1 206 230 231 -1 206 231 207 -1 207 231 219 -1 208 209 232 -1 209 225 233 -1 209 233 232 -1 210 211 234 -1 211 227 235 -1 211 235 234 -1 212 214 215 -1 212 215 213 -1 216 217 250 -1 217 229 251 -1 217 251 250 -1 218 219 252 -1 219 231 253 -1 219 253 252 -1 220 221 222 -1 221 223 222 -1 221 239 223 -1 221 267 239 -1 223 239 241 -1 223 241 237 -1 224 242 243 -1 224 243 225 -1 225 243 233 -1 226 244 245 -1 226 245 227 -1 227 245 235 -1 228 254 255 -1 228 255 229 -1 229 255 251 -1 230 256 257 -1 230 257 231 -1 231 257 253 -1 232 233 246 -1 233 243 247 -1 233 247 246 -1 234 235 248 -1 235 245 249 -1 235 249 248 -1 236 237 282 -1 237 241 283 -1 237 283 282 -1 238 239 268 -1 238 240 241 -1 238 241 239 -1 239 267 269 -1 239 269 268 -1 240 300 301 -1 240 301 241 -1 241 301 283 -1 242 288 289 -1 242 289 243 -1 243 271 247 -1 243 289 271 -1 244 290 291 -1 244 291 245 -1 245 273 249 -1 245 291 273 -1 246 247 270 -1 247 271 270 -1 248 249 272 -1 249 273 272 -1 250 251 284 -1 251 255 263 -1 251 263 285 -1 251 285 284 -1 252 253 286 -1 253 257 265 -1 253 265 287 -1 253 287 286 -1 254 262 263 -1 254 263 255 -1 256 264 265 -1 256 265 257 -1 258 259 260 -1 258 282 283 -1 258 283 259 -1 259 261 260 -1 259 283 261 -1 260 261 336 -1 261 283 301 -1 261 301 337 -1 261 337 336 -1 262 274 275 -1 262 275 263 -1 263 275 285 -1 264 276 277 -1 264 277 265 -1 265 277 287 -1 266 268 269 -1 266 269 267 -1 270 271 278 -1 271 279 278 -1 271 289 279 -1 272 273 280 -1 273 281 280 -1 273 291 281 -1 274 292 293 -1 274 293 275 -1 275 293 285 -1 276 294 295 -1 276 295 277 -1 277 295 287 -1 278 279 296 -1 279 289 297 -1 279 297 296 -1 280 281 298 -1 281 291 299 -1 281 299 298 -1 284 285 318 -1 285 293 319 -1 285 319 318 -1 286 287 320 -1 287 295 321 -1 287 321 320 -1 288 326 327 -1 288 327 289 -1 289 327 297 -1 290 328 329 -1 290 329 291 -1 291 329 299 -1 292 302 303 -1 292 303 293 -1 293 303 319 -1 294 304 305 -1 294 305 295 -1 295 305 321 -1 296 297 306 -1 297 307 306 -1 297 327 307 -1 298 299 308 -1 299 309 308 -1 299 329 309 -1 300 334 335 -1 300 335 301 -1 301 335 337 -1 302 310 311 -1 302 311 303 -1 303 311 323 -1 303 323 319 -1 304 312 313 -1 304 313 305 -1 305 313 325 -1 305 325 321 -1 306 307 314 -1 307 315 314 -1 307 327 331 -1 307 331 315 -1 308 309 316 -1 309 317 316 -1 309 329 333 -1 309 333 317 -1 310 322 323 -1 310 323 311 -1 312 324 325 -1 312 325 313 -1 314 315 330 -1 315 331 330 -1 316 317 332 -1 317 333 332 -1 318 319 322 -1 319 323 322 -1 320 321 324 -1 321 325 324 -1 326 330 331 -1 326 331 327 -1 328 332 333 -1 328 333 329 -1 334 336 337 -1 334 337 335 -1 338 339 340 -1 338 350 351 -1 338 351 339 -1 339 341 340 -1 339 351 341 -1 340 341 406 -1 341 351 377 -1 341 377 407 -1 341 407 406 -1 342 343 344 -1 342 370 371 -1 342 371 343 -1 343 345 344 -1 343 371 345 -1 344 345 420 -1 345 371 421 -1 345 421 420 -1 346 347 348 -1 346 374 375 -1 346 375 347 -1 347 349 348 -1 347 375 349 -1 348 349 422 -1 349 375 423 -1 349 423 422 -1 350 408 409 -1 350 409 351 -1 351 409 419 -1 351 419 431 -1 351 431 377 -1 352 353 354 -1 352 432 433 -1 352 433 353 -1 353 355 354 -1 353 369 355 -1 353 387 369 -1 353 433 387 -1 354 355 368 -1 355 369 368 -1 356 357 358 -1 356 436 437 -1 356 437 357 -1 357 359 358 -1 357 373 359 -1 357 395 373 -1 357 437 395 -1 358 359 372 -1 359 373 372 -1 360 361 362 -1 360 384 385 -1 360 385 361 -1 361 363 362 -1 361 385 363 -1 362 363 510 -1 363 385 511 -1 363 511 510 -1 364 365 366 -1 364 524 525 -1 364 525 365 -1 365 367 366 -1 365 383 367 -1 365 457 383 -1 365 525 457 -1 366 367 382 -1 367 383 382 -1 368 369 370 -1 369 371 370 -1 369 387 389 -1 369 389 391 -1 369 391 371 -1 371 391 393 -1 371 393 421 -1 372 373 375 -1 372 375 374 -1 373 395 397 -1 373 397 399 -1 373 399 375 -1 375 399 401 -1 375 401 423 -1 376 377 430 -1 376 404 405 -1 376 405 377 -1 377 405 407 -1 377 431 430 -1 378 379 380 -1 378 452 453 -1 378 453 379 -1 379 381 380 -1 379 403 381 -1 379 453 403 -1 380 381 402 -1 381 403 402 -1 382 383 384 -1 383 385 384 -1 383 457 459 -1 383 459 461 -1 383 461 385 -1 385 461 463 -1 385 463 511 -1 386 387 434 -1 386 388 389 -1 386 389 387 -1 387 433 435 -1 387 435 434 -1 388 426 427 -1 388 427 389 -1 389 415 391 -1 389 427 415 -1 390 391 414 -1 390 392 393 -1 390 393 391 -1 391 415 414 -1 392 410 411 -1 392 411 393 -1 393 411 421 -1 394 395 438 -1 394 396 397 -1 394 397 395 -1 395 437 439 -1 395 439 438 -1 396 428 429 -1 396 429 397 -1 397 417 399 -1 397 429 417 -1 398 399 416 -1 398 400 401 -1 398 401 399 -1 399 417 416 -1 400 412 413 -1 400 413 401 -1 401 413 423 -1 402 403 488 -1 403 425 449 -1 403 449 451 -1 403 451 489 -1 403 453 425 -1 403 489 488 -1 404 406 407 -1 404 407 405 -1 408 418 419 -1 408 419 409 -1 410 444 445 -1 410 445 411 -1 411 445 421 -1 412 446 447 -1 412 447 413 -1 413 447 423 -1 414 415 440 -1 415 427 441 -1 415 441 440 -1 416 417 442 -1 417 429 443 -1 417 443 442 -1 418 490 491 -1 418 491 419 -1 419 491 431 -1 420 421 496 -1 421 445 497 -1 421 497 496 -1 422 423 498 -1 423 447 499 -1 423 499 498 -1 424 425 454 -1 424 448 449 -1 424 449 425 -1 425 453 455 -1 425 455 454 -1 426 468 469 -1 426 469 427 -1 427 469 441 -1 428 470 471 -1 428 471 429 -1 429 471 443 -1 430 431 500 -1 431 491 501 -1 431 501 500 -1 432 434 435 -1 432 435 433 -1 436 438 439 -1 436 439 437 -1 440 441 464 -1 441 465 464 -1 441 469 465 -1 442 443 466 -1 443 467 466 -1 443 471 467 -1 444 472 473 -1 444 473 445 -1 445 473 497 -1 446 474 475 -1 446 475 447 -1 447 475 499 -1 448 554 555 -1 448 555 449 -1 449 555 451 -1 450 451 532 -1 450 506 507 -1 450 507 451 -1 451 507 489 -1 451 533 532 -1 451 555 533 -1 452 454 455 -1 452 455 453 -1 456 457 526 -1 456 458 459 -1 456 459 457 -1 457 525 527 -1 457 527 526 -1 458 516 517 -1 458 517 459 -1 459 505 461 -1 459 517 505 -1 460 461 504 -1 460 462 463 -1 460 463 461 -1 461 505 504 -1 462 502 503 -1 462 503 463 -1 463 503 511 -1 464 465 476 -1 465 469 493 -1 465 477 476 -1 465 493 477 -1 466 467 478 -1 467 471 495 -1 467 479 478 -1 467 495 479 -1 468 492 493 -1 468 493 469 -1 470 494 495 -1 470 495 471 -1 472 480 481 -1 472 481 473 -1 473 481 497 -1 474 482 483 -1 474 483 475 -1 475 483 499 -1 476 477 484 -1 477 485 484 -1 477 493 513 -1 477 513 485 -1 478 479 486 -1 479 487 486 -1 479 495 515 -1 479 515 487 -1 480 484 485 -1 480 485 481 -1 481 485 519 -1 481 519 497 -1 482 486 487 -1 482 487 483 -1 483 487 521 -1 483 521 499 -1 485 513 519 -1 487 515 521 -1 488 489 522 -1 489 507 523 -1 489 523 522 -1 490 556 557 -1 490 557 491 -1 491 557 561 -1 491 561 501 -1 492 512 513 -1 492 513 493 -1 494 514 515 -1 494 515 495 -1 496 497 518 -1 497 519 518 -1 498 499 520 -1 499 521 520 -1 500 501 508 -1 501 509 508 -1 501 561 509 -1 502 552 553 -1 502 553 503 -1 503 553 511 -1 504 505 550 -1 505 517 551 -1 505 551 550 -1 506 532 533 -1 506 533 507 -1 507 533 523 -1 508 509 560 -1 509 561 560 -1 510 511 615 -1 510 615 614 -1 511 553 615 -1 512 518 519 -1 512 519 513 -1 514 520 521 -1 514 521 515 -1 516 574 575 -1 516 575 517 -1 517 575 551 -1 522 523 596 -1 523 533 597 -1 523 597 596 -1 524 526 527 -1 524 527 525 -1 528 529 530 -1 528 616 617 -1 528 617 529 -1 529 531 530 -1 529 563 531 -1 529 617 563 -1 530 531 562 -1 531 563 562 -1 533 555 597 -1 534 535 536 -1 534 604 605 -1 534 605 535 -1 535 537 536 -1 535 565 537 -1 535 605 565 -1 536 537 564 -1 537 565 564 -1 538 539 540 -1 538 566 567 -1 538 567 539 -1 539 541 540 -1 539 567 541 -1 540 541 598 -1 541 567 599 -1 541 599 598 -1 542 543 544 -1 542 608 609 -1 542 609 543 -1 543 545 544 -1 543 569 545 -1 543 609 569 -1 544 545 568 -1 545 569 568 -1 546 547 548 -1 546 570 571 -1 546 571 547 -1 547 549 548 -1 547 571 549 -1 548 549 600 -1 549 571 601 -1 549 601 600 -1 550 551 572 -1 551 573 572 -1 551 575 573 -1 552 576 577 -1 552 577 553 -1 553 577 615 -1 554 562 563 -1 554 563 555 -1 555 563 597 -1 556 558 559 -1 556 559 557 -1 557 559 621 -1 557 621 561 -1 558 620 621 -1 558 621 559 -1 560 561 602 -1 561 603 602 -1 561 621 603 -1 563 617 597 -1 564 565 567 -1 564 567 566 -1 565 583 585 -1 565 585 567 -1 565 605 583 -1 567 585 599 -1 568 569 571 -1 568 571 570 -1 569 587 589 -1 569 589 571 -1 569 609 587 -1 571 589 601 -1 572 573 590 -1 573 575 613 -1 573 591 590 -1 573 613 591 -1 574 612 613 -1 574 613 575 -1 576 592 593 -1 576 593 577 -1 577 593 615 -1 578 579 580 -1 578 602 603 -1 578 603 579 -1 579 581 580 -1 579 603 581 -1 580 581 634 -1 581 603 621 -1 581 621 635 -1 581 635 634 -1 582 583 606 -1 582 584 585 -1 582 585 583 -1 583 605 607 -1 583 607 606 -1 584 682 683 -1 584 683 585 -1 585 675 599 -1 585 683 699 -1 585 699 675 -1 586 587 610 -1 586 588 589 -1 586 589 587 -1 587 609 611 -1 587 611 610 -1 588 684 685 -1 588 685 589 -1 589 679 601 -1 589 685 703 -1 589 703 679 -1 590 591 594 -1 591 595 594 -1 591 613 631 -1 591 631 595 -1 592 594 595 -1 592 595 593 -1 593 595 641 -1 593 641 615 -1 595 631 641 -1 596 597 618 -1 597 617 619 -1 597 619 618 -1 598 599 674 -1 599 675 674 -1 600 601 678 -1 601 679 678 -1 604 606 607 -1 604 607 605 -1 608 610 611 -1 608 611 609 -1 612 630 631 -1 612 631 613 -1 614 615 640 -1 615 641 640 -1 616 618 619 -1 616 619 617 -1 620 632 633 -1 620 633 621 -1 621 633 635 -1 622 623 624 -1 622 644 645 -1 622 645 623 -1 623 625 624 -1 623 645 625 -1 624 625 706 -1 625 645 707 -1 625 707 706 -1 626 627 628 -1 626 690 691 -1 626 691 627 -1 627 629 628 -1 627 643 629 -1 627 657 643 -1 627 691 657 -1 628 629 642 -1 629 643 642 -1 630 640 641 -1 630 641 631 -1 632 634 635 -1 632 635 633 -1 636 637 638 -1 636 646 647 -1 636 647 637 -1 637 639 638 -1 637 647 639 -1 638 639 696 -1 639 647 673 -1 639 673 697 -1 639 697 696 -1 642 643 644 -1 643 645 644 -1 643 657 659 -1 643 659 661 -1 643 661 645 -1 645 661 663 -1 645 663 707 -1 646 710 711 -1 646 711 647 -1 647 711 713 -1 647 713 719 -1 647 719 673 -1 648 649 650 -1 648 676 677 -1 648 677 649 -1 649 651 650 -1 649 677 651 -1 650 651 726 -1 651 677 701 -1 651 701 727 -1 651 727 726 -1 652 653 654 -1 652 680 681 -1 652 681 653 -1 653 655 654 -1 653 681 655 -1 654 655 730 -1 655 681 705 -1 655 705 731 -1 655 731 730 -1 656 657 692 -1 656 658 659 -1 656 659 657 -1 657 691 693 -1 657 693 692 -1 658 708 709 -1 658 709 659 -1 659 689 661 -1 659 709 689 -1 660 661 688 -1 660 662 663 -1 660 663 661 -1 661 689 688 -1 662 686 687 -1 662 687 663 -1 663 687 707 -1 664 665 666 -1 664 824 825 -1 664 825 665 -1 665 667 666 -1 665 715 667 -1 665 825 715 -1 666 667 714 -1 667 715 714 -1 668 669 670 -1 668 716 717 -1 668 717 669 -1 669 671 670 -1 669 717 671 -1 670 671 830 -1 671 717 769 -1 671 769 831 -1 671 831 830 -1 672 673 718 -1 672 694 695 -1 672 695 673 -1 673 695 697 -1 673 719 718 -1 674 675 676 -1 675 677 676 -1 675 699 701 -1 675 701 677 -1 678 679 680 -1 679 681 680 -1 679 703 705 -1 679 705 681 -1 682 698 699 -1 682 699 683 -1 684 702 703 -1 684 703 685 -1 686 720 721 -1 686 721 687 -1 687 721 707 -1 688 689 722 -1 689 709 723 -1 689 723 722 -1 690 692 693 -1 690 693 691 -1 694 696 697 -1 694 697 695 -1 698 700 701 -1 698 701 699 -1 700 724 725 -1 700 725 701 -1 701 725 727 -1 702 704 705 -1 702 705 703 -1 704 728 729 -1 704 729 705 -1 705 729 731 -1 706 707 738 -1 707 721 739 -1 707 739 738 -1 708 762 763 -1 708 763 709 -1 709 733 723 -1 709 763 733 -1 710 712 713 -1 710 713 711 -1 712 770 771 -1 712 771 713 -1 713 771 719 -1 714 715 716 -1 715 717 716 -1 715 767 717 -1 715 825 767 -1 717 767 769 -1 718 719 774 -1 719 771 775 -1 719 775 774 -1 720 736 737 -1 720 737 721 -1 721 737 739 -1 722 723 734 -1 723 733 735 -1 723 735 734 -1 724 726 727 -1 724 727 725 -1 728 730 731 -1 728 731 729 -1 732 733 802 -1 732 750 751 -1 732 751 733 -1 733 751 735 -1 733 763 803 -1 733 803 802 -1 734 735 740 -1 735 741 740 -1 735 751 741 -1 736 742 743 -1 736 743 737 -1 737 743 761 -1 737 761 739 -1 738 739 760 -1 739 761 760 -1 740 741 744 -1 741 745 744 -1 741 751 765 -1 741 765 777 -1 741 777 745 -1 742 744 745 -1 742 745 743 -1 743 745 787 -1 743 773 761 -1 743 787 773 -1 745 777 787 -1 746 747 752 -1 746 756 757 -1 746 757 747 -1 747 753 752 -1 747 757 789 -1 747 789 753 -1 748 749 754 -1 748 758 759 -1 748 759 749 -1 749 755 754 -1 749 759 791 -1 749 791 755 -1 750 764 765 -1 750 765 751 -1 752 753 778 -1 753 779 778 -1 753 789 795 -1 753 795 779 -1 754 755 780 -1 755 781 780 -1 755 791 797 -1 755 797 781 -1 756 782 783 -1 756 783 757 -1 757 783 799 -1 757 799 789 -1 758 784 785 -1 758 785 759 -1 759 785 801 -1 759 801 791 -1 760 761 772 -1 761 773 772 -1 762 820 821 -1 762 821 763 -1 763 821 803 -1 764 776 777 -1 764 777 765 -1 766 767 826 -1 766 768 769 -1 766 769 767 -1 767 825 827 -1 767 827 826 -1 768 828 829 -1 768 829 769 -1 769 829 831 -1 770 848 849 -1 770 849 771 -1 771 849 853 -1 771 853 775 -1 772 773 786 -1 773 787 786 -1 774 775 792 -1 775 793 792 -1 775 853 793 -1 776 786 787 -1 776 787 777 -1 778 779 812 -1 779 795 805 -1 779 805 813 -1 779 813 812 -1 780 781 814 -1 781 797 807 -1 781 807 815 -1 781 815 814 -1 782 816 817 -1 782 817 783 -1 783 809 799 -1 783 817 809 -1 784 818 819 -1 784 819 785 -1 785 811 801 -1 785 819 811 -1 788 789 798 -1 788 794 795 -1 788 795 789 -1 789 799 798 -1 790 791 800 -1 790 796 797 -1 790 797 791 -1 791 801 800 -1 792 793 852 -1 793 853 852 -1 794 804 805 -1 794 805 795 -1 796 806 807 -1 796 807 797 -1 798 799 808 -1 799 809 808 -1 800 801 810 -1 801 811 810 -1 802 803 822 -1 803 821 823 -1 803 823 822 -1 804 832 833 -1 804 833 805 -1 805 833 813 -1 806 834 835 -1 806 835 807 -1 807 835 815 -1 808 809 836 -1 809 817 837 -1 809 837 836 -1 810 811 838 -1 811 819 839 -1 811 839 838 -1 812 813 870 -1 813 833 871 -1 813 871 870 -1 814 815 872 -1 815 835 873 -1 815 873 872 -1 816 862 863 -1 816 863 817 -1 817 863 837 -1 818 864 865 -1 818 865 819 -1 819 865 839 -1 820 822 823 -1 820 823 821 -1 824 826 827 -1 824 827 825 -1 828 830 831 -1 828 831 829 -1 832 874 875 -1 832 875 833 -1 833 875 871 -1 834 876 877 -1 834 877 835 -1 835 877 873 -1 836 837 866 -1 837 863 867 -1 837 867 866 -1 838 839 868 -1 839 865 869 -1 839 869 868 -1 840 841 842 -1 840 916 917 -1 840 917 841 -1 841 843 842 -1 841 855 843 -1 841 917 855 -1 842 843 854 -1 843 855 854 -1 844 845 846 -1 844 856 857 -1 844 857 845 -1 845 847 846 -1 845 857 847 -1 846 847 902 -1 847 857 903 -1 847 903 902 -1 848 850 851 -1 848 851 849 -1 849 851 925 -1 849 925 853 -1 850 924 925 -1 850 925 851 -1 852 853 896 -1 853 897 896 -1 853 925 897 -1 854 855 856 -1 855 857 856 -1 855 881 883 -1 855 883 857 -1 855 917 881 -1 857 883 903 -1 858 859 860 -1 858 896 897 -1 858 897 859 -1 859 861 860 -1 859 897 861 -1 860 861 952 -1 861 897 925 -1 861 925 953 -1 861 953 952 -1 862 912 913 -1 862 913 863 -1 863 889 867 -1 863 913 889 -1 864 914 915 -1 864 915 865 -1 865 891 869 -1 865 915 891 -1 866 867 888 -1 867 889 888 -1 868 869 890 -1 869 891 890 -1 870 871 908 -1 871 875 885 -1 871 885 909 -1 871 909 908 -1 872 873 910 -1 873 877 887 -1 873 887 911 -1 873 911 910 -1 874 884 885 -1 874 885 875 -1 876 886 887 -1 876 887 877 -1 878 879 892 -1 878 894 895 -1 878 895 879 -1 879 893 892 -1 879 895 955 -1 879 955 893 -1 880 881 918 -1 880 882 883 -1 880 883 881 -1 881 917 919 -1 881 919 918 -1 882 984 985 -1 882 985 883 -1 883 985 987 -1 883 987 991 -1 883 991 903 -1 884 898 899 -1 884 899 885 -1 885 899 909 -1 886 900 901 -1 886 901 887 -1 887 901 911 -1 888 889 904 -1 889 905 904 -1 889 913 905 -1 890 891 906 -1 891 907 906 -1 891 915 907 -1 892 893 930 -1 893 931 930 -1 893 955 965 -1 893 965 931 -1 894 936 937 -1 894 937 895 -1 895 937 971 -1 895 971 955 -1 898 920 921 -1 898 921 899 -1 899 921 909 -1 900 922 923 -1 900 923 901 -1 901 923 911 -1 902 903 990 -1 903 991 990 -1 904 905 926 -1 905 913 927 -1 905 927 926 -1 906 907 928 -1 907 915 929 -1 907 929 928 -1 908 909 956 -1 909 921 957 -1 909 957 956 -1 910 911 958 -1 911 923 959 -1 911 959 958 -1 912 966 967 -1 912 967 913 -1 913 967 927 -1 914 968 969 -1 914 969 915 -1 915 969 929 -1 916 918 919 -1 916 919 917 -1 920 932 933 -1 920 933 921 -1 921 933 957 -1 922 934 935 -1 922 935 923 -1 923 935 959 -1 924 950 951 -1 924 951 925 -1 925 951 953 -1 926 927 938 -1 927 939 938 -1 927 967 939 -1 928 929 940 -1 929 941 940 -1 929 969 941 -1 930 931 1014 -1 931 965 989 -1 931 989 1015 -1 931 1015 1014 -1 932 942 943 -1 932 943 933 -1 933 943 961 -1 933 961 957 -1 934 944 945 -1 934 945 935 -1 935 945 963 -1 935 963 959 -1 936 1020 1021 -1 936 1021 937 -1 937 993 971 -1 937 1021 993 -1 938 939 946 -1 939 947 946 -1 939 967 981 -1 939 981 947 -1 940 941 948 -1 941 949 948 -1 941 969 983 -1 941 983 949 -1 942 960 961 -1 942 961 943 -1 944 962 963 -1 944 963 945 -1 946 947 980 -1 947 981 980 -1 948 949 982 -1 949 983 982 -1 950 952 953 -1 950 953 951 -1 954 955 970 -1 954 964 965 -1 954 965 955 -1 955 971 970 -1 956 957 960 -1 957 961 960 -1 958 959 962 -1 959 963 962 -1 964 988 989 -1 964 989 965 -1 966 980 981 -1 966 981 967 -1 968 982 983 -1 968 983 969 -1 970 971 992 -1 971 993 992 -1 972 973 974 -1 972 1036 1037 -1 972 1037 973 -1 973 975 974 -1 973 995 975 -1 973 1037 995 -1 974 975 994 -1 975 995 994 -1 976 977 978 -1 976 996 997 -1 976 997 977 -1 977 979 978 -1 977 997 979 -1 978 979 1030 -1 979 997 1031 -1 979 1031 1030 -1 984 986 987 -1 984 987 985 -1 986 1072 1073 -1 986 1073 987 -1 987 1073 991 -1 988 1032 1033 -1 988 1033 989 -1 989 1033 1015 -1 990 991 1064 -1 991 1065 1064 -1 991 1073 1065 -1 992 993 1034 -1 993 1021 1035 -1 993 1035 1034 -1 994 995 996 -1 995 997 996 -1 995 1017 1019 -1 995 1019 997 -1 995 1037 1017 -1 997 1019 1031 -1 998 999 1000 -1 998 1024 1025 -1 998 1025 999 -1 999 1001 1000 -1 999 1025 1001 -1 1000 1001 1074 -1 1001 1025 1075 -1 1001 1075 1074 -1 1002 1003 1004 -1 1002 1028 1029 -1 1002 1029 1003 -1 1003 1005 1004 -1 1003 1029 1005 -1 1004 1005 1076 -1 1005 1029 1077 -1 1005 1077 1076 -1 1006 1007 1008 -1 1006 1082 1083 -1 1006 1083 1007 -1 1007 1009 1008 -1 1007 1023 1009 -1 1007 1045 1023 -1 1007 1083 1045 -1 1008 1009 1022 -1 1009 1023 1022 -1 1010 1011 1012 -1 1010 1086 1087 -1 1010 1087 1011 -1 1011 1013 1012 -1 1011 1027 1013 -1 1011 1053 1027 -1 1011 1087 1053 -1 1012 1013 1026 -1 1013 1027 1026 -1 1014 1015 1102 -1 1015 1033 1103 -1 1015 1103 1102 -1 1016 1017 1038 -1 1016 1018 1019 -1 1016 1019 1017 -1 1017 1037 1039 -1 1017 1039 1038 -1 1018 1162 1163 -1 1018 1163 1019 -1 1019 1159 1031 -1 1019 1163 1177 -1 1019 1177 1159 -1 1020 1098 1099 -1 1020 1099 1021 -1 1021 1099 1035 -1 1022 1023 1024 -1 1023 1025 1024 -1 1023 1045 1047 -1 1023 1047 1049 -1 1023 1049 1025 -1 1025 1049 1051 -1 1025 1051 1075 -1 1026 1027 1028 -1 1027 1029 1028 -1 1027 1053 1055 -1 1027 1055 1057 -1 1027 1057 1029 -1 1029 1057 1059 -1 1029 1059 1077 -1 1030 1031 1158 -1 1031 1159 1158 -1 1032 1104 1105 -1 1032 1105 1033 -1 1033 1105 1103 -1 1034 1035 1100 -1 1035 1099 1101 -1 1035 1101 1100 -1 1036 1038 1039 -1 1036 1039 1037 -1 1040 1041 1042 -1 1040 1142 1143 -1 1040 1143 1041 -1 1041 1043 1042 -1 1041 1071 1043 -1 1041 1143 1071 -1 1042 1043 1070 -1 1043 1071 1070 -1 1044 1045 1084 -1 1044 1046 1047 -1 1044 1047 1045 -1 1045 1083 1085 -1 1045 1085 1084 -1 1046 1078 1079 -1 1046 1079 1047 -1 1047 1067 1049 -1 1047 1079 1067 -1 1048 1049 1066 -1 1048 1050 1051 -1 1048 1051 1049 -1 1049 1067 1066 -1 1050 1060 1061 -1 1050 1061 1051 -1 1051 1061 1075 -1 1052 1053 1088 -1 1052 1054 1055 -1 1052 1055 1053 -1 1053 1087 1089 -1 1053 1089 1088 -1 1054 1080 1081 -1 1054 1081 1055 -1 1055 1069 1057 -1 1055 1081 1069 -1 1056 1057 1068 -1 1056 1058 1059 -1 1056 1059 1057 -1 1057 1069 1068 -1 1058 1062 1063 -1 1058 1063 1059 -1 1059 1063 1077 -1 1060 1094 1095 -1 1060 1095 1061 -1 1061 1095 1075 -1 1062 1096 1097 -1 1062 1097 1063 -1 1063 1097 1077 -1 1064 1065 1148 -1 1065 1073 1107 -1 1065 1107 1109 -1 1065 1109 1149 -1 1065 1149 1148 -1 1066 1067 1090 -1 1067 1079 1091 -1 1067 1091 1090 -1 1068 1069 1092 -1 1069 1081 1093 -1 1069 1093 1092 -1 1070 1071 1072 -1 1071 1073 1072 -1 1071 1107 1073 -1 1071 1143 1107 -1 1074 1075 1154 -1 1075 1095 1155 -1 1075 1155 1154 -1 1076 1077 1156 -1 1077 1097 1157 -1 1077 1157 1156 -1 1078 1114 1115 -1 1078 1115 1079 -1 1079 1115 1091 -1 1080 1116 1117 -1 1080 1117 1081 -1 1081 1117 1093 -1 1082 1084 1085 -1 1082 1085 1083 -1 1086 1088 1089 -1 1086 1089 1087 -1 1090 1091 1110 -1 1091 1111 1110 -1 1091 1115 1111 -1 1092 1093 1112 -1 1093 1113 1112 -1 1093 1117 1113 -1 1094 1118 1119 -1 1094 1119 1095 -1 1095 1119 1155 -1 1096 1120 1121 -1 1096 1121 1097 -1 1097 1121 1157 -1 1098 1182 1183 -1 1098 1183 1099 -1 1099 1141 1101 -1 1099 1183 1141 -1 1100 1101 1140 -1 1101 1141 1140 -1 1102 1103 1180 -1 1103 1105 1139 -1 1103 1139 1181 -1 1103 1181 1180 -1 1104 1138 1139 -1 1104 1139 1105 -1 1106 1107 1144 -1 1106 1108 1107 -1 1107 1108 1109 -1 1107 1143 1145 -1 1107 1145 1144 -1 1108 1146 1147 -1 1108 1147 1109 -1 1109 1147 1149 -1 1110 1111 1126 -1 1111 1115 1151 -1 1111 1127 1126 -1 1111 1151 1127 -1 1112 1113 1128 -1 1113 1117 1153 -1 1113 1129 1128 -1 1113 1153 1129 -1 1114 1150 1151 -1 1114 1151 1115 -1 1116 1152 1153 -1 1116 1153 1117 -1 1118 1130 1131 -1 1118 1131 1119 -1 1119 1131 1155 -1 1120 1132 1133 -1 1120 1133 1121 -1 1121 1133 1157 -1 1122 1123 1124 -1 1122 1160 1161 -1 1122 1161 1123 -1 1123 1125 1124 -1 1123 1161 1125 -1 1124 1125 1206 -1 1125 1161 1179 -1 1125 1179 1207 -1 1125 1207 1206 -1 1126 1127 1134 -1 1127 1135 1134 -1 1127 1151 1165 -1 1127 1165 1135 -1 1128 1129 1136 -1 1129 1137 1136 -1 1129 1153 1167 -1 1129 1167 1137 -1 1130 1134 1135 -1 1130 1135 1131 -1 1131 1135 1171 -1 1131 1171 1155 -1 1132 1136 1137 -1 1132 1137 1133 -1 1133 1137 1173 -1 1133 1173 1157 -1 1135 1165 1171 -1 1137 1167 1173 -1 1138 1168 1169 -1 1138 1169 1139 -1 1139 1169 1181 -1 1140 1141 1174 -1 1141 1175 1174 -1 1141 1183 1175 -1 1142 1144 1145 -1 1142 1145 1143 -1 1146 1148 1149 -1 1146 1149 1147 -1 1150 1164 1165 -1 1150 1165 1151 -1 1152 1166 1167 -1 1152 1167 1153 -1 1154 1155 1170 -1 1155 1171 1170 -1 1156 1157 1172 -1 1157 1173 1172 -1 1158 1159 1160 -1 1159 1161 1160 -1 1159 1177 1179 -1 1159 1179 1161 -1 1162 1176 1177 -1 1162 1177 1163 -1 1164 1170 1171 -1 1164 1171 1165 -1 1166 1172 1173 -1 1166 1173 1167 -1 1168 1200 1201 -1 1168 1201 1169 -1 1169 1201 1181 -1 1174 1175 1202 -1 1175 1183 1203 -1 1175 1203 1202 -1 1176 1178 1179 -1 1176 1179 1177 -1 1178 1204 1205 -1 1178 1205 1179 -1 1179 1205 1207 -1 1180 1181 1240 -1 1181 1201 1241 -1 1181 1241 1240 -1 1182 1248 1249 -1 1182 1249 1183 -1 1183 1249 1203 -1 1184 1185 1186 -1 1184 1260 1261 -1 1184 1261 1185 -1 1185 1187 1186 -1 1185 1219 1187 -1 1185 1261 1219 -1 1186 1187 1218 -1 1187 1219 1218 -1 1188 1189 1190 -1 1188 1220 1221 -1 1188 1221 1189 -1 1189 1191 1190 -1 1189 1221 1191 -1 1190 1191 1252 -1 1191 1221 1253 -1 1191 1253 1252 -1 1192 1193 1194 -1 1192 1264 1265 -1 1192 1265 1193 -1 1193 1195 1194 -1 1193 1223 1195 -1 1193 1265 1223 -1 1194 1195 1222 -1 1195 1223 1222 -1 1196 1197 1198 -1 1196 1224 1225 -1 1196 1225 1197 -1 1197 1199 1198 -1 1197 1225 1199 -1 1198 1199 1254 -1 1199 1225 1255 -1 1199 1255 1254 -1 1200 1208 1209 -1 1200 1209 1201 -1 1201 1209 1241 -1 1202 1203 1226 -1 1203 1227 1226 -1 1203 1249 1227 -1 1204 1206 1207 -1 1204 1207 1205 -1 1208 1228 1229 -1 1208 1229 1209 -1 1209 1229 1243 -1 1209 1243 1241 -1 1210 1211 1212 -1 1210 1270 1271 -1 1210 1271 1211 -1 1211 1213 1212 -1 1211 1245 1213 -1 1211 1271 1245 -1 1212 1213 1244 -1 1213 1245 1244 -1 1214 1215 1216 -1 1214 1246 1247 -1 1214 1247 1215 -1 1215 1217 1216 -1 1215 1247 1217 -1 1216 1217 1268 -1 1217 1247 1269 -1 1217 1269 1268 -1 1218 1219 1221 -1 1218 1221 1220 -1 1219 1233 1235 -1 1219 1235 1221 -1 1219 1261 1233 -1 1221 1235 1253 -1 1222 1223 1225 -1 1222 1225 1224 -1 1223 1237 1239 -1 1223 1239 1225 -1 1223 1265 1237 -1 1225 1239 1255 -1 1226 1227 1230 -1 1227 1231 1230 -1 1227 1249 1251 -1 1227 1251 1231 -1 1228 1242 1243 -1 1228 1243 1229 -1 1230 1231 1250 -1 1231 1251 1250 -1 1232 1233 1262 -1 1232 1234 1235 -1 1232 1235 1233 -1 1233 1261 1263 -1 1233 1263 1262 -1 1234 1318 1319 -1 1234 1319 1235 -1 1235 1311 1253 -1 1235 1319 1333 -1 1235 1333 1311 -1 1236 1237 1266 -1 1236 1238 1239 -1 1236 1239 1237 -1 1237 1265 1267 -1 1237 1267 1266 -1 1238 1320 1321 -1 1238 1321 1239 -1 1239 1315 1255 -1 1239 1321 1337 -1 1239 1337 1315 -1 1240 1241 1242 -1 1241 1243 1242 -1 1244 1245 1246 -1 1245 1247 1246 -1 1245 1257 1259 -1 1245 1259 1247 -1 1245 1271 1257 -1 1247 1259 1269 -1 1248 1250 1251 -1 1248 1251 1249 -1 1252 1253 1310 -1 1253 1311 1310 -1 1254 1255 1314 -1 1255 1315 1314 -1 1256 1257 1272 -1 1256 1258 1259 -1 1256 1259 1257 -1 1257 1271 1273 -1 1257 1273 1272 -1 1258 1348 1349 -1 1258 1349 1259 -1 1259 1345 1269 -1 1259 1349 1353 -1 1259 1353 1345 -1 1260 1262 1263 -1 1260 1263 1261 -1 1264 1266 1267 -1 1264 1267 1265 -1 1268 1269 1344 -1 1269 1345 1344 -1 1270 1272 1273 -1 1270 1273 1271 -1 1274 1275 1282 -1 1274 1276 1275 -1 1275 1276 1277 -1 1275 1277 1295 -1 1275 1283 1282 -1 1275 1295 1283 -1 1276 1302 1303 -1 1276 1303 1277 -1 1277 1301 1295 -1 1277 1303 1301 -1 1278 1279 1280 -1 1278 1292 1293 -1 1278 1293 1279 -1 1279 1281 1280 -1 1279 1293 1299 -1 1279 1299 1281 -1 1280 1281 1296 -1 1281 1297 1296 -1 1281 1299 1297 -1 1282 1283 1294 -1 1283 1295 1294 -1 1284 1285 1286 -1 1284 1312 1313 -1 1284 1313 1285 -1 1285 1287 1286 -1 1285 1313 1287 -1 1286 1287 1358 -1 1287 1313 1335 -1 1287 1335 1359 -1 1287 1359 1358 -1 1288 1289 1290 -1 1288 1316 1317 -1 1288 1317 1289 -1 1289 1291 1290 -1 1289 1317 1291 -1 1290 1291 1362 -1 1291 1317 1339 -1 1291 1339 1363 -1 1291 1363 1362 -1 1292 1298 1299 -1 1292 1299 1293 -1 1294 1295 1300 -1 1295 1301 1300 -1 1296 1297 1322 -1 1297 1299 1305 -1 1297 1305 1323 -1 1297 1323 1322 -1 1298 1304 1305 -1 1298 1305 1299 -1 1300 1301 1324 -1 1301 1303 1325 -1 1301 1325 1324 -1 1302 1370 1371 -1 1302 1371 1303 -1 1303 1343 1325 -1 1303 1371 1343 -1 1304 1330 1331 -1 1304 1331 1305 -1 1305 1331 1323 -1 1306 1307 1308 -1 1306 1346 1347 -1 1306 1347 1307 -1 1307 1309 1308 -1 1307 1347 1309 -1 1308 1309 1378 -1 1309 1347 1355 -1 1309 1355 1379 -1 1309 1379 1378 -1 1310 1311 1312 -1 1311 1313 1312 -1 1311 1333 1335 -1 1311 1335 1313 -1 1314 1315 1316 -1 1315 1317 1316 -1 1315 1337 1339 -1 1315 1339 1317 -1 1318 1332 1333 -1 1318 1333 1319 -1 1320 1336 1337 -1 1320 1337 1321 -1 1322 1323 1340 -1 1323 1331 1341 -1 1323 1341 1340 -1 1324 1325 1342 -1 1325 1343 1342 -1 1326 1327 1328 -1 1326 1372 1373 -1 1326 1373 1327 -1 1327 1329 1328 -1 1327 1373 1329 -1 1328 1329 1374 -1 1329 1373 1375 -1 1329 1375 1374 -1 1330 1350 1351 -1 1330 1351 1331 -1 1331 1351 1341 -1 1332 1334 1335 -1 1332 1335 1333 -1 1334 1356 1357 -1 1334 1357 1335 -1 1335 1357 1359 -1 1336 1338 1339 -1 1336 1339 1337 -1 1338 1360 1361 -1 1338 1361 1339 -1 1339 1361 1363 -1 1340 1341 1368 -1 1341 1351 1369 -1 1341 1369 1368 -1 1342 1343 1364 -1 1343 1365 1364 -1 1343 1371 1365 -1 1344 1345 1346 -1 1345 1347 1346 -1 1345 1353 1355 -1 1345 1355 1347 -1 1348 1352 1353 -1 1348 1353 1349 -1 1350 1366 1367 -1 1350 1367 1351 -1 1351 1367 1369 -1 1352 1354 1355 -1 1352 1355 1353 -1 1354 1376 1377 -1 1354 1377 1355 -1 1355 1377 1379 -1 1356 1358 1359 -1 1356 1359 1357 -1 1360 1362 1363 -1 1360 1363 1361 -1 1364 1365 1384 -1 1365 1371 1385 -1 1365 1385 1384 -1 1366 1380 1381 -1 1366 1381 1367 -1 1367 1381 1369 -1 1368 1369 1432 -1 1369 1381 1433 -1 1369 1433 1432 -1 1370 1402 1403 -1 1370 1403 1371 -1 1371 1403 1385 -1 1372 1388 1389 -1 1372 1389 1373 -1 1373 1383 1375 -1 1373 1387 1383 -1 1373 1389 1387 -1 1374 1375 1382 -1 1375 1383 1382 -1 1376 1378 1379 -1 1376 1379 1377 -1 1380 1398 1399 -1 1380 1399 1381 -1 1381 1399 1433 -1 1382 1383 1400 -1 1383 1387 1419 -1 1383 1401 1400 -1 1383 1419 1401 -1 1384 1385 1408 -1 1385 1403 1409 -1 1385 1409 1408 -1 1386 1387 1424 -1 1386 1418 1419 -1 1386 1419 1387 -1 1387 1389 1425 -1 1387 1425 1424 -1 1388 1410 1411 -1 1388 1411 1389 -1 1389 1411 1425 -1 1390 1391 1392 -1 1390 1440 1441 -1 1390 1441 1391 -1 1391 1393 1392 -1 1391 1415 1393 -1 1391 1441 1415 -1 1392 1393 1414 -1 1393 1415 1414 -1 1394 1395 1396 -1 1394 1416 1417 -1 1394 1417 1395 -1 1395 1397 1396 -1 1395 1417 1397 -1 1396 1397 1438 -1 1397 1417 1439 -1 1397 1439 1438 -1 1398 1404 1405 -1 1398 1405 1399 -1 1399 1405 1433 -1 1400 1401 1406 -1 1401 1407 1406 -1 1401 1419 1435 -1 1401 1435 1407 -1 1402 1436 1437 -1 1402 1437 1403 -1 1403 1437 1409 -1 1404 1412 1413 -1 1404 1413 1405 -1 1405 1413 1449 -1 1405 1449 1433 -1 1406 1407 1412 -1 1407 1413 1412 -1 1407 1435 1447 -1 1407 1447 1413 -1 1408 1409 1420 -1 1409 1421 1420 -1 1409 1437 1421 -1 1410 1422 1423 -1 1410 1423 1411 -1 1411 1423 1445 -1 1411 1445 1425 -1 1413 1447 1449 -1 1414 1415 1416 -1 1415 1417 1416 -1 1415 1427 1429 -1 1415 1429 1417 -1 1415 1441 1427 -1 1417 1429 1439 -1 1418 1434 1435 -1 1418 1435 1419 -1 1420 1421 1430 -1 1421 1431 1430 -1 1421 1437 1451 -1 1421 1451 1431 -1 1422 1430 1431 -1 1422 1431 1423 -1 1423 1431 1453 -1 1423 1453 1445 -1 1424 1425 1444 -1 1425 1445 1444 -1 1426 1427 1442 -1 1426 1428 1429 -1 1426 1429 1427 -1 1427 1441 1443 -1 1427 1443 1442 -1 1428 1472 1473 -1 1428 1473 1429 -1 1429 1469 1439 -1 1429 1473 1481 -1 1429 1481 1469 -1 1431 1451 1455 -1 1431 1455 1453 -1 1432 1433 1448 -1 1433 1449 1448 -1 1434 1446 1447 -1 1434 1447 1435 -1 1436 1450 1451 -1 1436 1451 1437 -1 1438 1439 1468 -1 1439 1469 1468 -1 1440 1442 1443 -1 1440 1443 1441 -1 1444 1445 1452 -1 1445 1453 1452 -1 1446 1448 1449 -1 1446 1449 1447 -1 1450 1454 1455 -1 1450 1455 1451 -1 1452 1453 1454 -1 1453 1455 1454 -1 1456 1457 1458 -1 1456 1470 1471 -1 1456 1471 1457 -1 1457 1459 1458 -1 1457 1471 1459 -1 1458 1459 1496 -1 1459 1471 1483 -1 1459 1483 1497 -1 1459 1497 1496 -1 1460 1461 1462 -1 1460 1542 1543 -1 1460 1543 1461 -1 1461 1463 1462 -1 1461 1477 1463 -1 1461 1543 1477 -1 1462 1463 1484 -1 1463 1477 1485 -1 1463 1485 1484 -1 1464 1465 1466 -1 1464 1474 1475 -1 1464 1475 1465 -1 1465 1467 1466 -1 1465 1475 1479 -1 1465 1479 1467 -1 1466 1467 1488 -1 1467 1479 1487 -1 1467 1487 1489 -1 1467 1489 1488 -1 1468 1469 1470 -1 1469 1471 1470 -1 1469 1481 1483 -1 1469 1483 1471 -1 1472 1480 1481 -1 1472 1481 1473 -1 1474 1478 1479 -1 1474 1479 1475 -1 1476 1477 1544 -1 1476 1490 1491 -1 1476 1491 1477 -1 1477 1491 1485 -1 1477 1543 1545 -1 1477 1545 1544 -1 1478 1486 1487 -1 1478 1487 1479 -1 1480 1482 1483 -1 1480 1483 1481 -1 1482 1494 1495 -1 1482 1495 1483 -1 1483 1495 1497 -1 1484 1485 1502 -1 1485 1491 1501 -1 1485 1501 1503 -1 1485 1503 1502 -1 1486 1492 1493 -1 1486 1493 1487 -1 1487 1493 1489 -1 1488 1489 1506 -1 1489 1493 1499 -1 1489 1499 1507 -1 1489 1507 1506 -1 1490 1500 1501 -1 1490 1501 1491 -1 1492 1498 1499 -1 1492 1499 1493 -1 1494 1496 1497 -1 1494 1497 1495 -1 1498 1504 1505 -1 1498 1505 1499 -1 1499 1505 1507 -1 1500 1512 1513 -1 1500 1513 1501 -1 1501 1513 1503 -1 1502 1503 1508 -1 1503 1509 1508 -1 1503 1513 1509 -1 1504 1510 1511 -1 1504 1511 1505 -1 1505 1511 1507 -1 1506 1507 1516 -1 1507 1511 1517 -1 1507 1517 1516 -1 1508 1509 1514 -1 1509 1513 1529 -1 1509 1515 1514 -1 1509 1529 1515 -1 1510 1518 1519 -1 1510 1519 1511 -1 1511 1519 1517 -1 1512 1528 1529 -1 1512 1529 1513 -1 1514 1515 1520 -1 1515 1521 1520 -1 1515 1529 1533 -1 1515 1533 1521 -1 1516 1517 1530 -1 1517 1519 1531 -1 1517 1531 1530 -1 1518 1522 1523 -1 1518 1523 1519 -1 1519 1523 1531 -1 1520 1521 1524 -1 1521 1525 1524 -1 1521 1533 1535 -1 1521 1535 1525 -1 1522 1526 1527 -1 1522 1527 1523 -1 1523 1527 1537 -1 1523 1537 1531 -1 1524 1525 1526 -1 1525 1527 1526 -1 1525 1535 1539 -1 1525 1539 1527 -1 1527 1539 1541 -1 1527 1541 1537 -1 1528 1532 1533 -1 1528 1533 1529 -1 1530 1531 1536 -1 1531 1537 1536 -1 1532 1534 1535 -1 1532 1535 1533 -1 1534 1538 1539 -1 1534 1539 1535 -1 1536 1537 1540 -1 1537 1541 1540 -1 1538 1540 1541 -1 1538 1541 1539 -1 1542 1544 1545 -1 1542 1545 1543 -1 "
						                >
							<Coordinate USE="coords_ME_OpenSCAD_Model" />
						</IndexedFaceSet>
					</Shape>
				</Group>
			</Transform>
		</Transform>
	</Scene>
</X3D>