<?xml version="1.0" encoding="UTF-8"?>
<!DOCTYPE X3D PUBLIC "ISO//Web3D//DTD X3D 3.0//EN" "http://www.web3d.org/specifications/x3d-3.0.dtd">
<X3D version="3.0" profile="Immersive" xmlns:xsd="http://www.w3.org/2001/XMLSchema-instance" xsd:noNamespaceSchemaLocation="http://www.web3d.org/specifications/x3d-3.0.xsd">
	<head>
		<meta name="filename" content="C04-00689A.x3d" />
		<meta name="created" content="2026-02-22 02:57:39" />
		<meta name="generator" content="Blender 5.0.1" />
		<meta name="translator" content="Web3D X3D/VRML2 format v2.5.1" />
	</head>
	<Scene>
		<NavigationInfo headlight="true"
		                visibilityLimit="0.0"
		                type='"EXAMINE", "ANY"'
		                avatarSize="0.25, 1.75, 0.75"
		                />
		<Transform DEF="OpenSCAD_Model_TRANSFORM"
		           translation="0.000000 0.000000 0.000000"
		           scale="0.001000 0.001000 0.001000"
		           rotation="-1.000000 0.000000 0.000000 1.570796"
		           >
			<Transform DEF="OpenSCAD_Model_ifs_TRANSFORM"
			           translation="0.000000 0.000000 0.000000"
			           scale="1.000000 1.000000 1.000000"
			           rotation="0.000000 1.000000 0.000000 0.000000"
			           >
				<Group DEF="group_ME_OpenSCAD_Model">
					<Shape>
						<Appearance>
							<Material DEF="MA_Color_1"
							          diffuseColor="0.000 0.000 0.000"
							          specularColor="0.401 0.401 0.401"
							          emissiveColor="0.000 0.000 0.000"
							          ambientIntensity="0.000"
							          shininess="0.500"
							          transparency="1.000"
							          />
						</Appearance>
						<IndexedFaceSet solid="false"
						                coordIndex="0 1 3 -1 0 2 1518 -1 0 3 2 -1 0 1516 1517 -1 0 1517 1 -1 0 1518 1516 -1 1 4 3 -1 1 6 4 -1 1 10 6 -1 1 14 10 -1 1 18 14 -1 1 24 18 -1 1 36 38 -1 1 38 24 -1 1 58 60 -1 1 60 667 -1 1 70 58 -1 1 98 70 -1 1 126 130 -1 1 128 36 -1 1 130 140 -1 1 134 126 -1 1 136 128 -1 1 140 296 -1 1 144 98 -1 1 148 134 -1 1 150 136 -1 1 192 148 -1 1 194 150 -1 1 210 192 -1 1 212 194 -1 1 234 144 -1 1 256 210 -1 1 258 212 -1 1 294 256 -1 1 296 258 -1 1 320 294 -1 1 377 234 -1 1 387 377 -1 1 401 320 -1 1 503 401 -1 1 525 387 -1 1 527 525 -1 1 573 503 -1 1 651 573 -1 1 667 651 -1 1 679 527 -1 1 681 679 -1 1 817 681 -1 1 819 817 -1 1 941 819 -1 1 1006 941 -1 1 1132 1006 -1 1 1146 1132 -1 1 1180 1146 -1 1 1517 1180 -1 2 3 1518 -1 3 4 8 -1 3 8 12 -1 3 12 16 -1 3 16 20 -1 3 20 1519 -1 3 1519 1518 -1 20 22 1519 -1 22 26 1519 -1 24 38 44 -1 24 40 28 -1 24 44 46 -1 24 46 40 -1 26 30 52 -1 26 52 106 -1 26 106 170 -1 26 170 330 -1 26 330 1519 -1 28 40 32 -1 30 34 42 -1 30 42 52 -1 32 40 42 -1 32 42 34 -1 36 128 132 -1 36 132 142 -1 36 142 54 -1 48 56 50 -1 50 56 64 -1 52 74 106 -1 54 64 56 -1 54 142 64 -1 58 70 72 -1 58 72 62 -1 60 78 349 -1 60 349 457 -1 60 457 667 -1 62 72 82 -1 64 142 66 -1 66 94 96 -1 66 96 110 -1 66 142 94 -1 68 84 76 -1 72 80 82 -1 76 84 102 -1 76 90 92 -1 76 92 78 -1 76 102 90 -1 78 92 349 -1 86 100 120 -1 86 120 88 -1 88 120 104 -1 92 114 349 -1 94 142 186 -1 94 186 164 -1 96 108 110 -1 98 144 146 -1 98 146 188 -1 98 188 190 -1 98 190 100 -1 100 190 120 -1 104 120 112 -1 112 116 118 -1 112 118 114 -1 112 120 116 -1 114 118 349 -1 118 182 349 -1 122 166 334 -1 122 168 124 -1 122 334 353 -1 122 353 168 -1 138 204 180 -1 140 184 296 -1 152 160 278 -1 152 278 156 -1 154 162 284 -1 154 284 158 -1 156 278 172 -1 158 284 300 -1 158 300 342 -1 158 342 174 -1 160 176 278 -1 162 178 284 -1 164 186 220 -1 164 220 254 -1 164 254 288 -1 164 288 332 -1 164 332 334 -1 164 334 166 -1 168 328 330 -1 168 330 170 -1 168 353 328 -1 172 278 196 -1 174 280 198 -1 174 342 280 -1 176 200 278 -1 178 202 284 -1 180 204 250 -1 180 226 228 -1 180 228 182 -1 180 250 226 -1 182 228 347 -1 182 347 349 -1 184 218 324 -1 184 324 326 -1 184 326 296 -1 196 278 222 -1 198 280 224 -1 200 214 278 -1 202 216 284 -1 206 236 318 -1 206 318 208 -1 208 302 268 -1 208 306 302 -1 208 318 306 -1 214 238 290 -1 214 290 278 -1 216 240 284 -1 218 252 324 -1 222 278 230 -1 224 280 232 -1 228 304 347 -1 230 278 242 -1 232 280 244 -1 234 377 236 -1 236 377 318 -1 238 246 290 -1 240 248 284 -1 242 270 260 -1 242 278 270 -1 244 272 262 -1 244 280 272 -1 246 264 290 -1 248 266 284 -1 252 286 324 -1 264 274 290 -1 266 276 284 -1 274 282 290 -1 280 342 292 -1 282 298 310 -1 282 310 290 -1 286 290 310 -1 286 310 312 -1 286 312 324 -1 288 292 314 -1 288 314 316 -1 288 316 332 -1 292 342 314 -1 294 320 322 -1 294 322 336 -1 294 336 338 -1 294 338 298 -1 296 326 342 -1 296 342 300 -1 298 338 310 -1 302 306 308 -1 302 308 304 -1 304 308 347 -1 308 375 347 -1 312 389 324 -1 314 342 343 -1 316 391 332 -1 324 389 465 -1 324 465 509 -1 324 509 567 -1 324 567 619 -1 324 619 695 -1 324 695 781 -1 324 781 405 -1 326 340 342 -1 330 479 1519 -1 332 391 467 -1 332 467 517 -1 332 517 493 -1 334 351 353 -1 345 399 373 -1 347 375 421 -1 349 371 457 -1 355 403 357 -1 357 403 395 -1 359 379 361 -1 359 383 409 -1 359 409 433 -1 359 413 379 -1 359 433 445 -1 359 441 413 -1 359 445 453 -1 359 449 441 -1 359 453 449 -1 363 407 365 -1 365 407 397 -1 367 381 369 -1 367 385 411 -1 367 411 435 -1 367 415 381 -1 367 435 447 -1 367 443 415 -1 367 447 455 -1 367 451 443 -1 367 455 451 -1 373 399 469 -1 373 469 375 -1 375 469 421 -1 387 525 459 -1 393 423 499 -1 393 499 417 -1 395 403 437 -1 397 407 439 -1 401 503 505 -1 401 505 403 -1 403 505 437 -1 405 781 407 -1 407 463 439 -1 407 511 513 -1 407 513 463 -1 407 781 839 -1 407 839 511 -1 417 499 531 -1 417 531 523 -1 419 501 475 -1 421 469 477 -1 421 477 497 -1 421 497 499 -1 421 499 423 -1 425 495 427 -1 427 495 485 -1 429 471 431 -1 429 473 519 -1 429 519 541 -1 429 521 471 -1 429 541 559 -1 429 545 521 -1 429 559 563 -1 429 561 545 -1 429 563 561 -1 437 505 461 -1 457 491 977 -1 457 785 667 -1 457 831 785 -1 457 881 831 -1 457 977 881 -1 461 505 533 -1 461 533 481 -1 463 513 537 -1 463 537 483 -1 465 487 507 -1 465 507 509 -1 467 489 515 -1 467 515 517 -1 477 529 547 -1 477 547 549 -1 477 549 497 -1 479 583 639 -1 479 639 1519 -1 481 533 487 -1 483 537 539 -1 483 539 489 -1 485 495 543 -1 487 533 535 -1 487 535 507 -1 489 539 515 -1 491 565 591 -1 491 591 593 -1 491 593 977 -1 493 517 569 -1 493 569 623 -1 493 623 699 -1 493 633 635 -1 493 635 495 -1 493 699 841 -1 493 841 879 -1 493 879 927 -1 493 927 971 -1 493 971 633 -1 495 635 543 -1 497 549 603 -1 497 603 585 -1 511 839 877 -1 511 877 925 -1 511 925 967 -1 511 967 577 -1 527 601 589 -1 527 605 601 -1 527 615 605 -1 527 679 615 -1 529 571 547 -1 543 635 581 -1 551 575 553 -1 553 575 651 -1 555 579 557 -1 557 579 653 -1 565 587 613 -1 565 613 591 -1 567 617 619 -1 567 643 617 -1 569 621 623 -1 569 647 621 -1 573 651 575 -1 577 653 579 -1 577 967 653 -1 581 635 685 -1 581 685 599 -1 583 609 637 -1 583 637 639 -1 585 595 597 -1 585 597 587 -1 585 603 595 -1 587 597 613 -1 593 675 977 -1 595 603 607 -1 595 607 665 -1 595 665 659 -1 597 611 613 -1 599 685 609 -1 601 605 607 -1 601 607 603 -1 609 685 637 -1 617 643 645 -1 621 647 649 -1 625 661 627 -1 627 661 677 -1 629 655 631 -1 629 657 689 -1 629 689 655 -1 633 971 973 -1 633 973 793 -1 635 683 685 -1 639 799 1519 -1 641 687 663 -1 653 967 671 -1 657 691 711 -1 657 705 689 -1 657 711 705 -1 659 665 731 -1 659 731 661 -1 661 731 677 -1 663 687 743 -1 663 743 665 -1 665 743 731 -1 667 715 721 -1 667 721 669 -1 667 725 715 -1 667 751 725 -1 667 785 751 -1 669 721 693 -1 671 697 673 -1 671 717 723 -1 671 723 697 -1 671 727 717 -1 671 753 727 -1 671 787 753 -1 671 967 969 -1 671 969 787 -1 675 707 975 -1 675 975 977 -1 681 817 739 -1 691 703 709 -1 691 709 713 -1 691 713 711 -1 693 721 747 -1 693 747 695 -1 695 747 781 -1 697 723 749 -1 697 749 699 -1 699 749 783 -1 699 783 841 -1 701 771 719 -1 707 729 975 -1 719 771 825 -1 719 825 733 -1 729 741 815 -1 729 815 975 -1 731 743 761 -1 731 761 789 -1 733 825 745 -1 735 795 847 -1 735 797 737 -1 735 847 861 -1 735 861 797 -1 741 755 813 -1 741 813 815 -1 745 813 755 -1 745 825 813 -1 757 767 993 -1 757 993 763 -1 759 769 913 -1 759 913 765 -1 761 809 789 -1 761 821 827 -1 761 827 829 -1 761 829 809 -1 763 993 773 -1 765 913 775 -1 767 777 915 -1 767 915 949 -1 767 949 993 -1 769 779 913 -1 771 791 825 -1 773 911 801 -1 773 993 911 -1 775 913 803 -1 777 805 915 -1 779 807 913 -1 787 969 833 -1 789 809 811 -1 789 811 791 -1 791 811 825 -1 793 905 795 -1 793 973 989 -1 793 989 905 -1 795 863 847 -1 795 905 863 -1 797 861 899 -1 797 899 799 -1 799 899 983 -1 799 983 1072 -1 799 1072 1519 -1 801 911 843 -1 803 913 845 -1 805 835 915 -1 807 837 913 -1 809 829 921 -1 809 921 885 -1 811 823 825 -1 815 871 975 -1 819 919 893 -1 819 941 943 -1 819 943 965 -1 819 945 919 -1 819 965 945 -1 821 865 827 -1 833 969 1044 -1 833 1044 1124 -1 833 1124 1158 -1 833 1158 1160 -1 833 1160 883 -1 835 857 915 -1 837 859 931 -1 837 931 913 -1 843 911 853 -1 845 913 855 -1 849 887 851 -1 851 887 953 -1 853 911 867 -1 855 913 869 -1 857 873 915 -1 859 875 931 -1 867 901 889 -1 867 911 901 -1 869 903 891 -1 869 913 903 -1 871 959 1034 -1 871 1034 975 -1 873 895 915 -1 875 897 931 -1 881 977 935 -1 883 1160 937 -1 885 921 947 -1 885 947 953 -1 885 953 887 -1 895 907 915 -1 897 909 931 -1 909 917 931 -1 911 993 929 -1 917 951 971 -1 917 971 931 -1 919 945 947 -1 919 947 921 -1 923 939 1198 -1 923 1198 933 -1 925 929 967 -1 927 931 971 -1 929 993 967 -1 933 1198 957 -1 935 977 993 -1 935 993 949 -1 937 979 981 -1 937 981 996 -1 937 996 998 -1 937 998 951 -1 937 1160 979 -1 939 961 1198 -1 943 963 965 -1 947 955 953 -1 947 1000 955 -1 951 998 971 -1 955 1000 1010 -1 955 1010 1012 -1 955 1012 1042 -1 957 1198 1002 -1 961 1004 1198 -1 967 993 994 -1 973 1046 1246 -1 973 1068 989 -1 973 1152 1068 -1 973 1218 1152 -1 973 1246 1218 -1 975 1034 1052 -1 977 991 993 -1 979 1160 1056 -1 985 1008 987 -1 987 1008 1132 -1 1000 1092 1094 -1 1000 1094 1010 -1 1000 1128 1092 -1 1002 1198 1074 -1 1004 1070 1198 -1 1006 1132 1008 -1 1010 1094 1112 -1 1012 1040 1042 -1 1014 1054 1016 -1 1016 1054 1517 -1 1016 1154 1048 -1 1016 1517 1154 -1 1018 1030 1020 -1 1018 1036 1060 -1 1018 1060 1080 -1 1018 1064 1030 -1 1018 1080 1096 -1 1018 1088 1064 -1 1018 1096 1104 -1 1018 1100 1088 -1 1018 1104 1100 -1 1022 1058 1024 -1 1024 1058 1050 -1 1026 1032 1028 -1 1026 1038 1062 -1 1026 1062 1082 -1 1026 1066 1032 -1 1026 1082 1098 -1 1026 1090 1066 -1 1026 1098 1106 -1 1026 1102 1090 -1 1026 1106 1102 -1 1034 1118 1052 -1 1046 1126 1246 -1 1048 1154 1156 -1 1048 1156 1084 -1 1050 1058 1086 -1 1052 1118 1054 -1 1054 1118 1517 -1 1056 1160 1222 -1 1056 1162 1164 -1 1056 1164 1058 -1 1056 1222 1256 -1 1056 1256 1162 -1 1058 1164 1086 -1 1070 1110 1212 -1 1070 1212 1198 -1 1072 1150 1519 -1 1074 1198 1108 -1 1076 1114 1078 -1 1078 1114 1348 -1 1078 1348 1366 -1 1078 1366 1408 -1 1078 1408 1428 -1 1078 1428 1116 -1 1084 1156 1120 -1 1086 1164 1122 -1 1092 1128 1130 -1 1094 1176 1112 -1 1108 1198 1138 -1 1110 1144 1212 -1 1112 1176 1186 -1 1112 1186 1238 -1 1112 1238 1114 -1 1114 1238 1278 -1 1114 1278 1348 -1 1116 1428 1118 -1 1118 1428 1466 -1 1118 1466 1517 -1 1120 1156 1188 -1 1120 1188 1134 -1 1122 1164 1192 -1 1122 1192 1136 -1 1124 1140 1158 -1 1126 1142 1166 -1 1126 1166 1168 -1 1126 1168 1246 -1 1134 1188 1190 -1 1134 1190 1140 -1 1136 1192 1142 -1 1138 1178 1170 -1 1138 1198 1178 -1 1140 1190 1158 -1 1142 1192 1194 -1 1142 1194 1166 -1 1144 1172 1212 -1 1146 1174 1148 -1 1146 1180 1182 -1 1146 1182 1216 -1 1146 1184 1174 -1 1146 1216 1184 -1 1150 1210 1519 -1 1154 1517 1230 -1 1162 1256 1234 -1 1168 1224 1246 -1 1172 1196 1212 -1 1174 1184 1186 -1 1174 1186 1176 -1 1180 1517 1240 -1 1182 1214 1216 -1 1196 1200 1212 -1 1200 1220 1212 -1 1202 1232 1204 -1 1204 1232 1288 -1 1206 1236 1208 -1 1208 1236 1290 -1 1210 1212 1250 -1 1210 1250 1519 -1 1212 1220 1296 -1 1212 1248 1250 -1 1212 1296 1298 -1 1212 1298 1248 -1 1218 1244 1220 -1 1218 1246 1244 -1 1220 1244 1252 -1 1220 1252 1400 -1 1220 1342 1296 -1 1220 1358 1342 -1 1220 1380 1358 -1 1220 1392 1380 -1 1220 1400 1392 -1 1222 1254 1256 -1 1222 1280 1254 -1 1224 1258 1260 -1 1224 1260 1246 -1 1224 1284 1258 -1 1226 1242 1228 -1 1228 1242 1318 -1 1230 1288 1232 -1 1230 1517 1288 -1 1234 1256 1290 -1 1234 1290 1236 -1 1238 1276 1278 -1 1238 1314 1276 -1 1240 1318 1242 -1 1240 1517 1318 -1 1246 1260 1272 -1 1248 1298 1262 -1 1250 1266 1519 -1 1252 1264 1312 -1 1252 1312 1334 -1 1252 1334 1354 -1 1252 1354 1378 -1 1252 1378 1390 -1 1252 1390 1400 -1 1254 1280 1282 -1 1256 1328 1290 -1 1258 1284 1286 -1 1260 1332 1272 -1 1262 1274 1268 -1 1262 1298 1344 -1 1262 1300 1274 -1 1262 1320 1300 -1 1262 1336 1320 -1 1262 1344 1352 -1 1262 1350 1336 -1 1262 1352 1370 -1 1262 1368 1350 -1 1262 1370 1376 -1 1262 1374 1368 -1 1262 1376 1382 -1 1262 1382 1374 -1 1264 1270 1294 -1 1264 1294 1312 -1 1266 1292 1519 -1 1272 1332 1340 -1 1276 1314 1316 -1 1288 1517 1302 -1 1290 1328 1306 -1 1292 1310 1519 -1 1302 1326 1304 -1 1302 1517 1326 -1 1306 1328 1517 -1 1306 1330 1308 -1 1306 1517 1330 -1 1310 1338 1519 -1 1318 1517 1322 -1 1322 1346 1324 -1 1322 1360 1362 -1 1322 1362 1386 -1 1322 1364 1346 -1 1322 1386 1364 -1 1322 1517 1360 -1 1326 1517 1328 -1 1330 1517 1332 -1 1332 1372 1340 -1 1332 1406 1372 -1 1332 1430 1406 -1 1332 1512 1430 -1 1332 1517 1512 -1 1338 1402 1519 -1 1346 1364 1366 -1 1346 1366 1348 -1 1356 1394 1388 -1 1360 1517 1410 -1 1362 1384 1386 -1 1388 1394 1414 -1 1388 1414 1404 -1 1396 1412 1398 -1 1398 1412 1442 -1 1402 1418 1436 -1 1402 1436 1519 -1 1404 1414 1478 -1 1404 1478 1416 -1 1406 1430 1432 -1 1406 1432 1420 -1 1408 1426 1428 -1 1408 1438 1426 -1 1410 1442 1412 -1 1410 1517 1442 -1 1414 1422 1478 -1 1416 1434 1418 -1 1416 1444 1434 -1 1416 1478 1484 -1 1416 1484 1490 -1 1416 1490 1494 -1 1416 1494 1444 -1 1418 1434 1436 -1 1420 1432 1454 -1 1420 1454 1424 -1 1422 1424 1472 -1 1422 1472 1478 -1 1424 1454 1472 -1 1426 1438 1440 -1 1436 1458 1519 -1 1442 1517 1450 -1 1444 1456 1448 -1 1444 1462 1456 -1 1444 1468 1462 -1 1444 1474 1468 -1 1444 1480 1474 -1 1444 1488 1480 -1 1444 1492 1488 -1 1444 1494 1496 -1 1444 1496 1492 -1 1446 1514 1460 -1 1450 1464 1452 -1 1450 1517 1464 -1 1458 1476 1519 -1 1460 1514 1470 -1 1464 1517 1466 -1 1470 1514 1482 -1 1476 1486 1519 -1 1482 1514 1498 -1 1486 1500 1519 -1 1498 1514 1519 -1 1498 1519 1502 -1 1500 1506 1519 -1 1502 1519 1504 -1 1504 1519 1508 -1 1506 1510 1519 -1 1508 1519 1510 -1 1512 1517 1514 -1 1514 1517 1519 -1 1516 1518 1517 -1 1517 1518 1519 -1 "
						                >
							<Coordinate DEF="coords_ME_OpenSCAD_Model"
							            point="0.000000 0.000000 0.000000 0.000000 0.000000 0.430000 0.000000 3.500000 0.000000 0.000000 3.500000 0.430000 0.496178 3.133692 0.430000 0.496178 3.133692 0.630000 0.508708 3.067205 0.430000 0.508708 3.067205 0.630000 0.508891 3.201980 0.430000 0.508891 3.201980 0.630000 0.546300 3.010157 0.430000 0.546300 3.010157 0.630000 0.547028 3.258643 0.430000 0.547028 3.258643 0.630000 0.602796 2.970926 0.430000 0.602796 2.970926 0.630000 0.603707 3.296796 0.430000 0.603707 3.296796 0.630000 0.672000 2.957850 0.430000 0.672000 2.957850 0.630000 0.672000 3.309514 0.430000 0.672000 3.309514 0.630000 0.740287 3.296796 0.430000 0.740287 3.296796 0.630000 0.741198 2.970926 0.430000 0.741198 2.970926 0.630000 0.796950 3.258643 0.430000 0.796950 3.258643 0.630000 0.797678 3.010157 0.430000 0.797678 3.010157 0.630000 0.835103 3.201980 0.430000 0.835103 3.201980 0.630000 0.835285 3.067205 0.430000 0.835285 3.067205 0.630000 0.847821 3.133692 0.430000 0.847821 3.133692 0.630000 1.363216 2.500000 0.430000 1.363216 2.500000 0.630000 1.363216 2.516173 0.430000 1.363216 2.516173 0.630000 1.363216 2.893043 0.430000 1.363216 2.893043 0.630000 1.363216 2.909216 0.430000 1.363216 2.909216 0.630000 1.415704 2.524412 0.430000 1.415704 2.524412 0.630000 1.415704 2.885105 0.430000 1.415704 2.885105 0.630000 1.447744 2.524412 0.430000 1.447744 2.524412 0.630000 1.447744 2.851846 0.430000 1.447744 2.851846 0.630000 1.487110 2.909216 0.430000 1.487110 2.909216 0.630000 1.502671 2.500000 0.430000 1.502671 2.500000 0.630000 1.502671 2.516173 0.430000 1.502671 2.516173 0.630000 1.549293 0.718357 0.430000 1.549293 0.718357 0.630000 1.549293 0.727342 0.430000 1.549293 0.727342 0.630000 1.574891 0.713947 0.430000 1.574891 0.713947 0.630000 1.597576 2.500000 0.430000 1.597576 2.500000 0.630000 1.608255 2.500000 0.430000 1.608255 2.500000 0.630000 1.614901 0.713947 0.430000 1.614901 0.713947 0.630000 1.618631 0.500000 0.430000 1.618631 0.500000 0.630000 1.618631 0.508984 0.430000 1.618631 0.508984 0.630000 1.620157 2.597956 0.430000 1.620157 2.597956 0.630000 1.645416 0.718357 0.430000 1.645416 0.718357 0.630000 1.645416 0.727342 0.430000 1.645416 0.727342 0.630000 1.654741 0.513562 0.430000 1.654741 0.513562 0.630000 1.654741 0.588495 0.430000 1.654741 0.588495 0.630000 1.680171 0.609007 0.430000 1.680171 0.609007 0.630000 1.687461 0.513562 0.430000 1.687461 0.513562 0.630000 1.687461 0.589512 0.430000 1.687461 0.589512 0.630000 1.713398 0.718357 0.430000 1.713398 0.718357 0.630000 1.713398 0.727342 0.430000 1.713398 0.727342 0.630000 1.716588 2.500000 0.430000 1.716588 2.500000 0.630000 1.716588 2.516173 0.430000 1.716588 2.516173 0.630000 1.723571 0.500000 0.430000 1.723571 0.500000 0.630000 1.723571 0.508984 0.430000 1.723571 0.508984 0.630000 1.742218 0.713947 0.430000 1.742218 0.713947 0.630000 1.762393 0.713947 0.430000 1.762393 0.713947 0.630000 1.765413 2.909216 0.430000 1.765413 2.909216 0.630000 1.771515 2.524412 0.430000 1.771515 2.524412 0.630000 1.771515 2.851846 0.430000 1.771515 2.851846 0.630000 1.787313 0.718357 0.430000 1.787313 0.718357 0.630000 1.787313 0.727342 0.430000 1.787313 0.727342 0.630000 1.800046 0.718357 0.430000 1.800046 0.718357 0.630000 1.800046 0.727342 0.430000 1.800046 0.727342 0.630000 1.825643 0.713947 0.430000 1.825643 0.713947 0.630000 1.830105 2.524412 0.430000 1.830105 2.524412 0.630000 1.830105 2.885105 0.430000 1.830105 2.885105 0.630000 1.838785 1.611042 0.430000 1.838785 1.611042 0.630000 1.838785 2.111042 0.430000 1.838785 2.111042 0.630000 1.846201 1.662558 0.430000 1.846201 1.662558 0.630000 1.846201 2.162558 0.430000 1.846201 2.162558 0.630000 1.846498 1.562831 0.430000 1.846498 1.562831 0.630000 1.846498 2.062831 0.430000 1.846498 2.062831 0.630000 1.865653 0.713947 0.430000 1.865653 0.713947 0.630000 1.868452 1.699792 0.430000 1.868452 1.699792 0.630000 1.868452 2.199792 0.430000 1.868452 2.199792 0.630000 1.869383 0.500000 0.430000 1.869383 0.500000 0.630000 1.869383 0.508984 0.430000 1.869383 0.508984 0.630000 1.869640 1.526700 0.430000 1.869640 1.526700 0.630000 1.869640 2.026700 0.430000 1.869640 2.026700 0.630000 1.874217 1.611382 0.430000 1.874217 1.611382 0.630000 1.874217 2.111382 0.430000 1.874217 2.111382 0.630000 1.879218 1.658087 0.430000 1.879218 1.658087 0.630000 1.879218 2.158087 0.430000 1.879218 2.158087 0.630000 1.879451 1.567728 0.430000 1.879451 1.567728 0.630000 1.879451 2.067728 0.430000 1.879451 2.067728 0.630000 1.882593 2.500000 0.430000 1.882593 2.500000 0.630000 1.882593 2.516173 0.430000 1.882593 2.516173 0.630000 1.882593 2.893043 0.430000 1.882593 2.893043 0.630000 1.882593 2.909216 0.430000 1.882593 2.909216 0.630000 1.894222 1.690722 0.430000 1.894222 1.690722 0.630000 1.894222 2.190722 0.430000 1.894222 2.190722 0.630000 1.895155 1.535770 0.430000 1.895155 1.535770 0.630000 1.895155 2.035770 0.430000 1.895155 2.035770 0.630000 1.896168 0.718357 0.430000 1.896168 0.718357 0.630000 1.896168 0.727342 0.430000 1.896168 0.727342 0.630000 1.905284 1.722361 0.430000 1.905284 1.722361 0.630000 1.905284 2.222361 0.430000 1.905284 2.222361 0.630000 1.905493 0.513562 0.430000 1.905493 0.513562 0.630000 1.905493 0.588495 0.430000 1.905493 0.588495 0.630000 1.906598 1.504132 0.430000 1.906598 1.504132 0.630000 1.906598 2.004132 0.430000 1.906598 2.004132 0.630000 1.920118 1.709922 0.430000 1.920118 1.709922 0.630000 1.920118 2.209922 0.430000 1.920118 2.209922 0.630000 1.920860 1.516189 0.430000 1.920860 1.516189 0.630000 1.920860 2.016189 0.430000 1.920860 2.016189 0.630000 1.930923 0.609007 0.430000 1.930923 0.609007 0.630000 1.938213 0.513562 0.430000 1.938213 0.513562 0.630000 1.938213 0.589512 0.430000 1.938213 0.589512 0.630000 1.955762 1.496610 0.430000 1.955762 1.496610 0.630000 1.955762 1.996610 0.430000 1.955762 1.996610 0.630000 1.956102 1.509662 0.430000 1.956102 1.509662 0.630000 1.956102 2.009662 0.430000 1.956102 2.009662 0.630000 1.956440 1.729885 0.430000 1.956440 1.729885 0.630000 1.956440 2.229885 0.430000 1.956440 2.229885 0.630000 1.957797 1.716322 0.430000 1.957797 1.716322 0.630000 1.957797 2.216322 0.430000 1.957797 2.216322 0.630000 1.964151 0.718357 0.430000 1.964151 0.718357 0.630000 1.964151 0.727342 0.430000 1.964151 0.727342 0.630000 1.973923 1.715326 0.430000 1.973923 1.715326 0.630000 1.973923 2.215326 0.430000 1.973923 2.215326 0.630000 1.974323 0.500000 0.430000 1.974323 0.500000 0.630000 1.974323 0.508984 0.430000 1.974323 0.508984 0.630000 1.974876 1.510828 0.430000 1.974876 1.510828 0.630000 1.974876 2.010828 0.430000 1.974876 2.010828 0.630000 1.989752 1.712337 0.430000 1.989752 1.712337 0.630000 1.989752 2.212337 0.430000 1.989752 2.212337 0.630000 1.992550 1.514325 0.430000 1.992550 1.514325 0.630000 1.992550 2.014324 0.430000 1.992550 2.014324 0.630000 1.992971 0.713947 0.430000 1.992971 0.713947 0.630000 1.993186 1.727723 0.430000 1.993186 1.727723 0.630000 1.993186 2.227723 0.430000 1.993186 2.227723 0.630000 1.997254 1.499280 0.430000 1.997254 1.499280 0.630000 1.997254 1.999280 0.430000 1.997254 1.999280 0.630000 2.004481 1.707528 0.430000 2.004481 1.707528 0.630000 2.004481 2.207528 0.430000 2.004481 2.207528 0.630000 2.007892 1.519771 0.430000 2.007892 1.519771 0.630000 2.007892 2.019771 0.430000 2.007892 2.019771 0.630000 2.013146 0.713947 0.430000 2.013146 0.713947 0.630000 2.017302 1.701065 0.430000 2.017302 1.701065 0.630000 2.017302 2.201065 0.430000 2.017302 2.201065 0.630000 2.019675 1.526785 0.430000 2.019675 1.526785 0.630000 2.019675 2.026784 0.430000 2.019675 2.026784 0.630000 2.022387 1.671565 0.430000 2.022387 1.671565 0.630000 2.022387 2.171565 0.430000 2.022387 2.171565 0.630000 2.025947 1.560692 0.430000 2.025947 1.560692 0.630000 2.025947 2.060692 0.430000 2.025947 2.060692 0.630000 2.032560 1.721237 0.430000 2.032560 1.721237 0.630000 2.032560 2.221237 0.430000 2.032560 2.221237 0.630000 2.033577 1.671565 0.430000 2.033577 1.671565 0.630000 2.033577 2.171565 0.430000 2.033577 2.171565 0.630000 2.035950 1.507290 0.430000 2.035950 1.507290 0.630000 2.035950 2.007289 0.430000 2.035950 2.007289 0.630000 2.036967 1.560692 0.430000 2.036967 1.560692 0.630000 2.036967 2.060692 0.430000 2.036967 2.060692 0.630000 2.038066 0.718357 0.430000 2.038066 0.718357 0.630000 2.038066 0.727342 0.430000 2.038066 0.727342 0.630000 2.047238 0.718357 0.430000 2.047238 0.718357 0.630000 2.047238 0.727342 0.430000 2.047238 0.727342 0.630000 2.066142 1.718357 0.430000 2.066142 1.718357 0.630000 2.066142 1.727342 0.430000 2.066142 1.727342 0.630000 2.066142 2.218357 0.430000 2.066142 2.218357 0.630000 2.066142 2.227342 0.430000 2.066142 2.227342 0.630000 2.067073 0.713947 0.430000 2.067073 0.713947 0.630000 2.068347 1.500000 0.430000 2.068347 1.500000 0.630000 2.068347 1.508985 0.430000 2.068347 1.508985 0.630000 2.068347 2.000000 0.430000 2.068347 2.000000 0.630000 2.068347 2.008985 0.430000 2.068347 2.008985 0.630000 2.075193 2.893043 0.430000 2.075193 2.893043 0.630000 2.075193 2.909216 0.430000 2.075193 2.909216 0.630000 2.079162 2.500000 0.430000 2.079162 2.500000 0.630000 2.079162 2.516173 0.430000 2.079162 2.516173 0.630000 2.095302 1.513562 0.430000 2.095302 1.513562 0.630000 2.095302 1.713947 0.430000 2.095302 1.713947 0.630000 2.095302 2.013562 0.430000 2.095302 2.013562 0.630000 2.095302 2.080357 0.430000 2.095302 2.213947 0.430000 2.095302 2.213947 0.630000 2.100641 0.713947 0.430000 2.100641 0.713947 0.630000 2.107847 1.000000 0.430000 2.107847 1.000000 0.630000 2.107847 1.008985 0.430000 2.107847 1.008985 0.630000 2.127681 2.524412 0.430000 2.127681 2.524412 0.630000 2.127681 2.885105 0.430000 2.127681 2.885105 0.630000 2.128022 1.513562 0.430000 2.128022 1.513562 0.630000 2.128022 1.589172 0.430000 2.128022 1.589172 0.630000 2.128022 1.604432 0.430000 2.128022 1.604432 0.630000 2.128022 1.712082 0.430000 2.128022 1.712082 0.630000 2.128022 2.013562 0.430000 2.128022 2.013562 0.630000 2.128022 2.089172 0.430000 2.128022 2.089172 0.630000 2.128022 2.104432 0.430000 2.128022 2.104432 0.630000 2.128022 2.212082 0.430000 2.128022 2.212082 0.630000 2.133617 1.013562 0.430000 2.133617 1.013562 0.630000 2.134038 0.718357 0.430000 2.134038 0.718357 0.630000 2.134038 0.727342 0.430000 2.134038 0.727342 0.630000 2.142343 0.494745 0.430000 2.142343 0.494745 0.630000 2.144635 1.712082 0.430000 2.144635 1.712082 0.630000 2.144635 2.212082 0.430000 2.144635 2.212082 0.630000 2.145652 1.604432 0.430000 2.145652 1.604432 0.630000 2.145652 2.104432 0.430000 2.145652 2.104432 0.630000 2.151331 0.494745 0.430000 2.151331 0.494745 0.630000 2.151925 1.727342 0.430000 2.151925 1.727342 0.630000 2.151925 2.227342 0.430000 2.151925 2.227342 0.630000 2.152095 1.013562 0.430000 2.152095 1.013562 0.630000 2.153620 1.589172 0.430000 2.153620 1.589172 0.630000 2.153620 2.089172 0.430000 2.153620 2.089172 0.630000 2.154721 0.553742 0.430000 2.154721 0.553742 0.630000 2.164132 1.500000 0.430000 2.164132 1.500000 0.630000 2.164132 1.508985 0.430000 2.164132 1.508985 0.630000 2.164132 2.000000 0.430000 2.164132 2.000000 0.630000 2.164132 2.008985 0.430000 2.164132 2.008985 0.630000 2.170551 1.607695 0.430000 2.170551 1.607695 0.630000 2.170551 2.107695 0.430000 2.170551 2.107695 0.630000 2.171039 1.709073 0.430000 2.171039 1.709073 0.630000 2.171039 2.209073 0.430000 2.171039 2.209073 0.630000 2.174982 1.079170 0.430000 2.174982 1.079170 0.630000 2.180067 1.094430 0.430000 2.180067 1.094430 0.630000 2.182612 1.000000 0.430000 2.182612 1.000000 0.630000 2.182612 1.008985 0.430000 2.182612 1.008985 0.630000 2.186577 2.524412 0.430000 2.186577 2.524412 0.630000 2.186577 2.660510 0.430000 2.186577 2.660510 0.630000 2.186577 2.687978 0.430000 2.186577 2.687978 0.630000 2.186577 2.881748 0.430000 2.186577 2.881748 0.630000 2.187950 1.617485 0.430000 2.187950 1.617485 0.630000 2.187950 2.117485 0.430000 2.187950 2.117485 0.630000 2.188523 1.593707 0.430000 2.188523 1.593707 0.630000 2.188523 2.093707 0.430000 2.188523 2.093707 0.630000 2.188542 1.700045 0.430000 2.188542 1.700045 0.630000 2.188542 2.200045 0.430000 2.188542 2.200045 0.630000 2.198185 1.634650 0.430000 2.198185 1.634650 0.630000 2.198185 2.134650 0.430000 2.198185 2.134650 0.630000 2.198333 1.684025 0.430000 2.198333 1.684025 0.630000 2.198333 2.184025 0.430000 2.198333 2.184025 0.630000 2.201597 1.660037 0.430000 2.201597 1.660037 0.630000 2.201597 2.160037 0.430000 2.201597 2.160037 0.630000 2.211092 1.229207 0.430000 2.211092 1.229207 0.630000 2.211853 0.651392 0.430000 2.211853 0.651392 0.630000 2.214227 1.607312 0.430000 2.214227 1.607312 0.630000 2.214227 2.107312 0.430000 2.214227 2.107312 0.630000 2.214482 1.710601 0.430000 2.214482 1.710601 0.630000 2.214482 2.210601 0.430000 2.214482 2.210601 0.630000 2.215921 0.711405 0.430000 2.215921 0.711405 0.630000 2.216479 2.881748 0.430000 2.216479 2.881748 0.630000 2.218311 2.687978 0.430000 2.218311 2.687978 0.630000 2.219060 1.204795 0.430000 2.219060 1.204795 0.630000 2.223551 0.711405 0.430000 2.223551 0.711405 0.630000 2.229601 2.909216 0.430000 2.229601 2.909216 0.630000 2.230058 1.629648 0.430000 2.230058 1.629648 0.630000 2.230058 2.129648 0.430000 2.230058 2.129648 0.630000 2.232652 2.660510 0.430000 2.232652 2.660510 0.630000 2.235335 1.660377 0.430000 2.235335 1.660377 0.630000 2.235335 2.160377 0.430000 2.235335 2.160377 0.630000 2.243302 1.229207 0.430000 2.243302 1.229207 0.630000 2.251575 2.500000 0.430000 2.251575 2.500000 0.630000 2.251575 2.516173 0.430000 2.251575 2.516173 0.630000 2.256527 1.000000 0.430000 2.256527 1.000000 0.630000 2.256527 1.008985 0.430000 2.256527 1.008985 0.630000 2.259240 1.094430 0.430000 2.259240 1.094430 0.630000 2.259250 1.500000 0.430000 2.259250 1.500000 0.630000 2.259250 1.508985 0.430000 2.259250 1.508985 0.630000 2.259250 1.718357 0.430000 2.259250 1.718357 0.630000 2.259250 1.727342 0.430000 2.259250 1.727342 0.630000 2.259250 2.000000 0.430000 2.259250 2.000000 0.630000 2.259250 2.008985 0.430000 2.259250 2.008985 0.630000 2.259250 2.218357 0.430000 2.259250 2.218357 0.630000 2.259250 2.227342 0.430000 2.259250 2.227342 0.630000 2.263130 2.693852 0.430000 2.263130 2.693852 0.630000 2.264007 2.876331 0.430000 2.264007 2.876331 0.630000 2.264495 1.079170 0.430000 2.264495 1.079170 0.630000 2.270848 0.494745 0.430000 2.270848 0.494745 0.630000 2.279833 0.494745 0.430000 2.279833 0.494745 0.630000 2.282546 0.553742 0.430000 2.282546 0.553742 0.630000 2.287042 1.013562 0.430000 2.287042 1.013562 0.630000 2.288410 1.513562 0.430000 2.288410 1.513562 0.630000 2.288410 1.713947 0.430000 2.288410 1.713947 0.630000 2.288410 2.013562 0.430000 2.288410 2.013562 0.630000 2.288410 2.213947 0.430000 2.288410 2.213947 0.630000 2.294446 2.711473 0.430000 2.294446 2.711473 0.630000 2.295478 2.668673 0.430000 2.295478 2.668673 0.630000 2.295513 2.860081 0.430000 2.295513 2.860081 0.630000 2.298653 0.718357 0.430000 2.298653 0.718357 0.630000 2.298653 0.727342 0.430000 2.298653 0.727342 0.630000 2.306210 1.513562 0.430000 2.306210 1.513562 0.630000 2.306210 1.704455 0.430000 2.306210 1.704455 0.630000 2.306210 2.013562 0.430000 2.306210 2.013562 0.630000 2.306210 2.204455 0.430000 2.306210 2.204455 0.630000 2.312871 2.742371 0.430000 2.312871 2.742371 0.630000 2.313137 2.831246 0.430000 2.313137 2.831246 0.630000 2.319012 2.788067 0.430000 2.319012 2.788067 0.630000 2.323830 1.013562 0.430000 2.323830 1.013562 0.630000 2.328080 1.727342 0.430000 2.328080 1.727342 0.630000 2.328080 2.227342 0.430000 2.328080 2.227342 0.630000 2.334083 0.713947 0.430000 2.334083 0.713947 0.630000 2.336725 1.500000 0.430000 2.336725 1.500000 0.630000 2.336725 1.508985 0.430000 2.336725 1.508985 0.630000 2.336725 2.000000 0.430000 2.336725 2.000000 0.630000 2.336725 2.008985 0.430000 2.336725 2.008985 0.630000 2.341746 2.693162 0.430000 2.341746 2.693162 0.630000 2.342205 2.879082 0.430000 2.342205 2.879082 0.630000 2.352652 1.000000 0.430000 2.352652 1.000000 0.630000 2.352652 1.008985 0.430000 2.352652 1.008985 0.630000 2.354088 0.713947 0.430000 2.354088 0.713947 0.630000 2.365212 1.218357 0.430000 2.365212 1.218357 0.630000 2.365212 1.227342 0.430000 2.365212 1.227342 0.630000 2.367417 1.000000 0.430000 2.367417 1.000000 0.630000 2.367417 1.008985 0.430000 2.367417 1.008985 0.630000 2.370241 2.733367 0.430000 2.370241 2.733367 0.630000 2.373923 0.718357 0.430000 2.373923 0.718357 0.630000 2.373923 0.727342 0.430000 2.373923 0.727342 0.630000 2.374963 0.718357 0.430000 2.374963 0.718357 0.630000 2.374963 0.727342 0.430000 2.374963 0.727342 0.630000 2.379739 2.788679 0.430000 2.379739 2.788679 0.630000 2.394372 1.013562 0.430000 2.394372 1.013562 0.630000 2.394372 1.213947 0.430000 2.394372 1.213947 0.630000 2.394798 0.713947 0.430000 2.394798 0.713947 0.630000 2.414540 1.718357 0.430000 2.414540 1.718357 0.630000 2.414540 1.727342 0.430000 2.414540 1.727342 0.630000 2.414540 2.218357 0.430000 2.414540 2.218357 0.630000 2.414540 2.227342 0.430000 2.414540 2.227342 0.630000 2.427092 1.013562 0.430000 2.427092 1.013562 0.630000 2.427092 1.099685 0.430000 2.427092 1.099685 0.630000 2.427092 1.114942 0.430000 2.427092 1.114942 0.630000 2.427092 1.212082 0.430000 2.427092 1.212082 0.630000 2.427363 2.500000 0.430000 2.427363 2.500000 0.630000 2.427363 2.516173 0.430000 2.427363 2.516173 0.630000 2.427363 2.893043 0.430000 2.427363 2.893043 0.630000 2.427363 2.909216 0.430000 2.427363 2.909216 0.630000 2.428366 0.713947 0.430000 2.428366 0.713947 0.630000 2.445055 1.558997 0.430000 2.445055 1.558997 0.630000 2.445055 1.713947 0.430000 2.445055 1.713947 0.630000 2.445055 2.058997 0.430000 2.445055 2.058997 0.630000 2.445055 2.213947 0.430000 2.445055 2.213947 0.630000 2.446412 1.500000 0.430000 2.446412 1.500000 0.630000 2.446412 2.000000 0.430000 2.446412 2.000000 0.630000 2.456080 1.212082 0.430000 2.456080 1.212082 0.630000 2.457097 1.114942 0.430000 2.457097 1.114942 0.630000 2.461505 1.000000 0.430000 2.461505 1.000000 0.630000 2.461505 1.008985 0.430000 2.461505 1.008985 0.630000 2.461763 0.718357 0.430000 2.461763 0.718357 0.630000 2.461763 0.727342 0.430000 2.461763 0.727342 0.630000 2.462857 1.500000 0.430000 2.462857 1.500000 0.630000 2.462857 1.713947 0.430000 2.462857 1.713947 0.630000 2.462857 2.000000 0.430000 2.462857 2.000000 0.630000 2.462857 2.213947 0.430000 2.462857 2.213947 0.630000 2.463370 1.227342 0.430000 2.463370 1.227342 0.630000 2.467947 1.099685 0.430000 2.467947 1.099685 0.630000 2.470068 0.494745 0.430000 2.470068 0.494745 0.630000 2.479056 0.494745 0.430000 2.479056 0.494745 0.630000 2.479851 2.524412 0.430000 2.479851 2.524412 0.630000 2.479851 2.885105 0.430000 2.479851 2.885105 0.630000 2.482446 0.553742 0.430000 2.482446 0.553742 0.630000 2.483014 1.209348 0.430000 2.483014 1.209348 0.630000 2.483057 1.117760 0.430000 2.483057 1.117760 0.630000 2.492017 1.718357 0.430000 2.492017 1.718357 0.630000 2.492017 1.727342 0.430000 2.492017 1.727342 0.630000 2.492017 2.218357 0.430000 2.492017 2.218357 0.630000 2.492017 2.227342 0.430000 2.492017 2.227342 0.630000 2.500160 1.104432 0.430000 2.500160 1.104432 0.630000 2.500242 1.126215 0.430000 2.500242 1.126215 0.630000 2.500412 1.201147 0.430000 2.500412 1.201147 0.630000 2.500497 1.223739 0.430000 2.500497 1.223739 0.630000 2.509842 1.141367 0.430000 2.509842 1.141367 0.630000 2.509885 1.186463 0.430000 2.509885 1.186463 0.630000 2.513042 1.164275 0.430000 2.513042 1.164275 0.630000 2.514240 1.611042 0.430000 2.514240 1.611042 0.630000 2.514240 2.111042 0.430000 2.514240 2.111042 0.630000 2.519656 1.113395 0.430000 2.519656 1.113395 0.630000 2.521657 1.662558 0.430000 2.521657 1.662558 0.630000 2.521657 2.162558 0.430000 2.521657 2.162558 0.630000 2.521953 1.562831 0.430000 2.521953 1.562831 0.630000 2.521953 2.062831 0.430000 2.521953 2.062831 0.630000 2.526435 1.212930 0.430000 2.526435 1.212930 0.630000 2.531862 1.000000 0.430000 2.531862 1.000000 0.630000 2.534405 1.127402 0.430000 2.534405 1.127402 0.630000 2.538441 2.524412 0.430000 2.538441 2.524412 0.630000 2.538441 2.885105 0.430000 2.538441 2.885105 0.630000 2.539578 0.651392 0.430000 2.539578 0.651392 0.630000 2.541693 1.194155 0.430000 2.541693 1.194155 0.630000 2.543646 0.711405 0.430000 2.543646 0.711405 0.630000 2.543686 1.145479 0.430000 2.543686 1.145479 0.630000 2.543907 1.699792 0.430000 2.543907 1.699792 0.630000 2.543907 2.199792 0.430000 2.543907 2.199792 0.630000 2.545095 1.526700 0.430000 2.545095 1.526700 0.630000 2.545095 2.026700 0.430000 2.545095 2.026700 0.630000 2.546780 1.166650 0.430000 2.546780 1.166650 0.630000 2.549672 1.611382 0.430000 2.549672 1.611382 0.630000 2.549672 2.111382 0.430000 2.549672 2.111382 0.630000 2.551276 0.711405 0.430000 2.551276 0.711405 0.630000 2.554673 1.658087 0.430000 2.554673 1.658087 0.630000 2.554673 2.158087 0.430000 2.554673 2.158087 0.630000 2.554906 1.567728 0.430000 2.554906 1.567728 0.630000 2.554906 2.067728 0.430000 2.554906 2.067728 0.630000 2.561700 1.013562 0.430000 2.561700 1.013562 0.630000 2.569677 1.690722 0.430000 2.569677 1.690722 0.630000 2.569677 2.190722 0.430000 2.569677 2.190722 0.630000 2.570610 1.535770 0.430000 2.570610 1.535770 0.630000 2.570610 2.035770 0.430000 2.570610 2.035770 0.630000 2.580739 1.722361 0.430000 2.580739 1.722361 0.630000 2.580739 2.222361 0.430000 2.580739 2.222361 0.630000 2.582053 1.504132 0.430000 2.582053 1.504132 0.630000 2.582053 2.004132 0.430000 2.582053 2.004132 0.630000 2.586280 1.000000 0.430000 2.586280 1.000000 0.630000 2.586280 1.008985 0.430000 2.586280 1.008985 0.630000 2.590929 2.500000 0.430000 2.590929 2.500000 0.630000 2.590929 2.516173 0.430000 2.590929 2.516173 0.630000 2.590929 2.893043 0.430000 2.590929 2.893043 0.630000 2.590929 2.909216 0.430000 2.590929 2.909216 0.630000 2.595573 1.709922 0.430000 2.595573 1.709922 0.630000 2.595573 2.209922 0.430000 2.595573 2.209922 0.630000 2.596315 1.516189 0.430000 2.596315 1.516189 0.630000 2.596315 2.016189 0.430000 2.596315 2.016189 0.630000 2.596807 1.000000 0.430000 2.596807 1.000000 0.630000 2.596807 1.008985 0.430000 2.596807 1.008985 0.630000 2.596807 1.218357 0.430000 2.596807 1.218357 0.630000 2.596807 1.227342 0.430000 2.596807 1.227342 0.630000 2.598573 0.494745 0.430000 2.598573 0.494745 0.630000 2.607558 0.494745 0.430000 2.607558 0.494745 0.630000 2.610271 0.553742 0.430000 2.610271 0.553742 0.630000 2.625967 1.013562 0.430000 2.625967 1.013562 0.630000 2.625967 1.213947 0.430000 2.625967 1.213947 0.630000 2.626378 0.718357 0.430000 2.626378 0.718357 0.630000 2.626378 0.727342 0.430000 2.626378 0.727342 0.630000 2.631217 1.496610 0.430000 2.631217 1.496610 0.630000 2.631217 1.996610 0.430000 2.631217 1.996610 0.630000 2.631557 1.509662 0.430000 2.631557 1.509662 0.630000 2.631557 2.009662 0.430000 2.631557 2.009662 0.630000 2.631895 1.729885 0.430000 2.631895 1.729885 0.630000 2.631895 2.229885 0.430000 2.631895 2.229885 0.630000 2.633252 1.716322 0.430000 2.633252 1.716322 0.630000 2.633252 2.216322 0.430000 2.633252 2.216322 0.630000 2.638543 2.699876 0.430000 2.638543 2.699876 0.630000 2.643767 1.013562 0.430000 2.643767 1.013562 0.630000 2.643767 1.195470 0.430000 2.643767 1.195470 0.630000 2.649378 1.715326 0.430000 2.649378 1.715326 0.630000 2.649378 2.215326 0.430000 2.649378 2.215326 0.630000 2.650332 1.510828 0.430000 2.650332 1.510828 0.630000 2.650332 2.010828 0.430000 2.650332 2.010828 0.630000 2.651894 2.792605 0.430000 2.651894 2.792605 0.630000 2.652428 2.613097 0.430000 2.652428 2.613097 0.630000 2.661808 0.713947 0.430000 2.661808 0.713947 0.630000 2.665207 1.712337 0.430000 2.665207 1.712337 0.630000 2.665207 2.212337 0.430000 2.665207 2.212337 0.630000 2.665637 1.227342 0.430000 2.665637 1.227342 0.630000 2.668005 1.514325 0.430000 2.668005 1.514325 0.630000 2.668005 2.014324 0.430000 2.668005 2.014324 0.630000 2.668641 1.727723 0.430000 2.668641 1.727723 0.630000 2.668641 2.227723 0.430000 2.668641 2.227723 0.630000 2.672709 1.499280 0.430000 2.672709 1.499280 0.630000 2.672709 1.999280 0.430000 2.672709 1.999280 0.630000 2.674282 1.000000 0.430000 2.674282 1.000000 0.630000 2.674282 1.008985 0.430000 2.674282 1.008985 0.630000 2.679936 1.707528 0.430000 2.679936 1.707528 0.630000 2.679936 2.207528 0.430000 2.679936 2.207528 0.630000 2.681813 0.713947 0.430000 2.681813 0.713947 0.630000 2.683347 1.519771 0.430000 2.683347 1.519771 0.630000 2.683347 2.019771 0.430000 2.683347 2.019771 0.630000 2.691945 2.859626 0.430000 2.691945 2.859626 0.630000 2.692757 1.701065 0.430000 2.692757 1.701065 0.630000 2.692757 2.201065 0.430000 2.692757 2.201065 0.630000 2.694082 2.548060 0.430000 2.694082 2.548060 0.630000 2.695130 1.526785 0.430000 2.695130 1.526785 0.630000 2.695130 2.026784 0.430000 2.695130 2.026784 0.630000 2.697842 1.671565 0.430000 2.697842 1.671565 0.630000 2.697842 2.171565 0.430000 2.697842 2.171565 0.630000 2.701402 1.560692 0.430000 2.701402 1.560692 0.630000 2.701402 2.060692 0.430000 2.701402 2.060692 0.630000 2.701648 0.718357 0.430000 2.701648 0.718357 0.630000 2.701648 0.727342 0.430000 2.701648 0.727342 0.630000 2.702322 2.700488 0.430000 2.702322 2.700488 0.630000 2.708015 1.721237 0.430000 2.708015 1.721237 0.630000 2.708015 2.221237 0.430000 2.708015 2.221237 0.630000 2.709032 1.671565 0.430000 2.709032 1.671565 0.630000 2.709032 2.171565 0.430000 2.709032 2.171565 0.630000 2.711324 2.784557 0.430000 2.711324 2.784557 0.630000 2.711405 1.507290 0.430000 2.711405 1.507290 0.630000 2.711405 2.007289 0.430000 2.711405 2.007289 0.630000 2.711744 2.621910 0.430000 2.711744 2.621910 0.630000 2.712351 0.500000 0.430000 2.712351 0.500000 0.630000 2.712351 0.508984 0.430000 2.712351 0.508984 0.630000 2.712351 0.718357 0.430000 2.712351 0.718357 0.630000 2.712351 0.727342 0.430000 2.712351 0.727342 0.630000 2.712422 1.560692 0.430000 2.712422 1.560692 0.630000 2.712422 2.060692 0.430000 2.712422 2.060692 0.630000 2.727007 1.000000 0.430000 2.727007 1.000000 0.630000 2.732940 1.000000 0.430000 2.732940 1.000000 0.630000 2.738331 2.843300 0.430000 2.738331 2.843300 0.630000 2.739552 1.054420 0.430000 2.739552 1.054420 0.630000 2.740009 2.564386 0.430000 2.740009 2.564386 0.630000 2.741511 0.513562 0.430000 2.741511 0.513562 0.630000 2.741511 0.713947 0.430000 2.741511 0.713947 0.630000 2.741597 1.718357 0.430000 2.741597 1.718357 0.630000 2.741597 1.727342 0.430000 2.741597 1.727342 0.630000 2.741597 2.218357 0.430000 2.741597 2.218357 0.630000 2.741597 2.227342 0.430000 2.741597 2.227342 0.630000 2.743802 1.500000 0.430000 2.743802 1.500000 0.630000 2.743802 1.508985 0.430000 2.743802 1.508985 0.630000 2.743802 2.000000 0.430000 2.743802 2.000000 0.630000 2.743802 2.008985 0.430000 2.743802 2.008985 0.630000 2.758242 2.900251 0.430000 2.758242 2.900251 0.630000 2.759311 0.513562 0.430000 2.759311 0.513562 0.630000 2.759311 0.704455 0.430000 2.759311 0.704455 0.630000 2.760607 2.507438 0.430000 2.760607 2.507438 0.630000 2.770757 1.513562 0.430000 2.770757 1.513562 0.630000 2.770757 1.580357 0.430000 2.770757 1.713947 0.430000 2.770757 1.713947 0.630000 2.770757 2.013562 0.430000 2.770757 2.013562 0.630000 2.770757 2.213947 0.430000 2.770757 2.213947 0.630000 2.781181 0.727342 0.430000 2.781181 0.727342 0.630000 2.784944 2.877860 0.430000 2.784944 2.877860 0.630000 2.786280 2.529141 0.430000 2.786280 2.529141 0.630000 2.789826 0.500000 0.430000 2.789826 0.500000 0.630000 2.789826 0.508984 0.430000 2.789826 0.508984 0.630000 2.793125 1.000000 0.430000 2.793125 1.000000 0.630000 2.793125 1.008985 0.430000 2.793125 1.008985 0.630000 2.803477 1.513562 0.430000 2.803477 1.513562 0.630000 2.803477 1.589172 0.430000 2.803477 1.589172 0.630000 2.803477 1.604432 0.430000 2.803477 1.604432 0.630000 2.803477 1.712082 0.430000 2.803477 1.712082 0.630000 2.803477 2.013562 0.430000 2.803477 2.013562 0.630000 2.803477 2.089172 0.430000 2.803477 2.089172 0.630000 2.803477 2.104432 0.430000 2.803477 2.104432 0.630000 2.803477 2.212082 0.430000 2.803477 2.212082 0.630000 2.820090 1.712082 0.430000 2.820090 1.712082 0.630000 2.820090 2.212082 0.430000 2.820090 2.212082 0.630000 2.820250 1.227342 0.430000 2.820250 1.227342 0.630000 2.821107 1.604432 0.430000 2.821107 1.604432 0.630000 2.821107 2.104432 0.430000 2.821107 2.104432 0.630000 2.823640 1.013562 0.430000 2.823640 1.013562 0.630000 2.823640 1.195470 0.430000 2.823640 1.195470 0.630000 2.827380 1.727342 0.430000 2.827380 1.727342 0.630000 2.827380 2.227342 0.430000 2.827380 2.227342 0.630000 2.829075 1.589172 0.430000 2.829075 1.589172 0.630000 2.829075 2.089172 0.430000 2.829075 2.089172 0.630000 2.839587 1.500000 0.430000 2.839587 1.500000 0.630000 2.839587 1.508985 0.430000 2.839587 1.508985 0.630000 2.839587 2.000000 0.430000 2.839587 2.000000 0.630000 2.839587 2.008985 0.430000 2.839587 2.008985 0.630000 2.846006 1.607695 0.430000 2.846006 1.607695 0.630000 2.846006 2.107695 0.430000 2.846006 2.107695 0.630000 2.846494 1.709073 0.430000 2.846494 1.709073 0.630000 2.846494 2.209073 0.430000 2.846494 2.209073 0.630000 2.849103 2.493898 0.430000 2.849103 2.493898 0.630000 2.849715 2.517392 0.430000 2.849715 2.517392 0.630000 2.850322 2.913793 0.430000 2.850322 2.913793 0.630000 2.852766 2.889380 0.430000 2.852766 2.889380 0.630000 2.856190 1.013562 0.430000 2.856190 1.013562 0.630000 2.856190 1.213947 0.430000 2.856190 1.213947 0.630000 2.863405 1.617485 0.430000 2.863405 1.617485 0.630000 2.863405 2.117485 0.430000 2.863405 2.117485 0.630000 2.863978 1.593707 0.430000 2.863978 1.593707 0.630000 2.863978 2.093707 0.430000 2.863978 2.093707 0.630000 2.863997 1.700045 0.430000 2.863997 1.700045 0.630000 2.863997 2.200045 0.430000 2.863997 2.200045 0.630000 2.867641 0.718357 0.430000 2.867641 0.718357 0.630000 2.867641 0.727342 0.430000 2.867641 0.727342 0.630000 2.873640 1.634650 0.430000 2.873640 1.634650 0.630000 2.873640 2.134650 0.430000 2.873640 2.134650 0.630000 2.873788 1.684025 0.430000 2.873788 1.684025 0.630000 2.873788 2.184025 0.430000 2.873788 2.184025 0.630000 2.877052 1.660037 0.430000 2.877052 1.660037 0.630000 2.877052 2.160037 0.430000 2.877052 2.160037 0.630000 2.881793 2.887587 0.430000 2.881793 2.887587 0.630000 2.883509 2.519490 0.430000 2.883509 2.519490 0.630000 2.885350 1.000000 0.430000 2.885350 1.000000 0.630000 2.885350 1.008985 0.430000 2.885350 1.008985 0.630000 2.885350 1.218357 0.430000 2.885350 1.218357 0.630000 2.885350 1.227342 0.430000 2.885350 1.227342 0.630000 2.889682 1.607312 0.430000 2.889682 1.607312 0.630000 2.889682 2.107312 0.430000 2.889682 2.107312 0.630000 2.889937 1.710601 0.430000 2.889937 1.710601 0.630000 2.889937 2.210601 0.430000 2.889937 2.210601 0.630000 2.898156 0.558997 0.430000 2.898156 0.558997 0.630000 2.898156 0.713947 0.430000 2.898156 0.713947 0.630000 2.899513 0.500000 0.430000 2.899513 0.500000 0.630000 2.905513 1.629648 0.430000 2.905513 1.629648 0.630000 2.905513 2.129648 0.430000 2.905513 2.129648 0.630000 2.910285 2.882207 0.430000 2.910285 2.882207 0.630000 2.910790 1.660377 0.430000 2.910790 1.660377 0.630000 2.910790 2.160377 0.430000 2.910790 2.160377 0.630000 2.915320 2.525785 0.430000 2.915320 2.525785 0.630000 2.915958 0.500000 0.430000 2.915958 0.500000 0.630000 2.915958 0.713947 0.430000 2.915958 0.713947 0.630000 2.916466 2.909901 0.430000 2.916466 2.909901 0.630000 2.923788 2.498704 0.430000 2.923788 2.498704 0.630000 2.934705 1.500000 0.430000 2.934705 1.500000 0.630000 2.934705 1.508985 0.430000 2.934705 1.508985 0.630000 2.934705 1.718357 0.430000 2.934705 1.718357 0.630000 2.934705 1.727342 0.430000 2.934705 1.727342 0.630000 2.934705 2.000000 0.430000 2.934705 2.000000 0.630000 2.934705 2.008985 0.430000 2.934705 2.008985 0.630000 2.934705 2.218357 0.430000 2.934705 2.218357 0.630000 2.934705 2.227342 0.430000 2.934705 2.227342 0.630000 2.936797 2.873550 0.430000 2.936797 2.873550 0.630000 2.942937 2.535588 0.430000 2.942937 2.535588 0.630000 2.945118 0.718357 0.430000 2.945118 0.718357 0.630000 2.945118 0.727342 0.430000 2.945118 0.727342 0.630000 2.959875 2.861917 0.430000 2.959875 2.861917 0.630000 2.963103 0.500000 0.430000 2.963103 0.500000 0.630000 2.963103 0.508984 0.430000 2.963103 0.508984 0.630000 2.963103 0.718357 0.430000 2.963103 0.718357 0.630000 2.963103 0.727342 0.430000 2.963103 0.727342 0.630000 2.963865 1.513562 0.430000 2.963865 1.513562 0.630000 2.963865 1.713947 0.430000 2.963865 1.713947 0.630000 2.963865 2.013562 0.430000 2.963865 2.013562 0.630000 2.963865 2.213947 0.430000 2.963865 2.213947 0.630000 2.964145 2.548213 0.430000 2.964145 2.548213 0.630000 2.969028 2.808817 0.430000 2.969028 2.808817 0.630000 2.975436 2.609246 0.430000 2.975436 2.609246 0.630000 2.981665 1.513562 0.430000 2.981665 1.513562 0.630000 2.981665 1.704455 0.430000 2.981665 1.704455 0.630000 2.981665 2.013562 0.430000 2.981665 2.013562 0.630000 2.981665 2.204455 0.430000 2.981665 2.204455 0.630000 2.987338 2.898227 0.430000 2.987338 2.898227 0.630000 2.989170 2.808817 0.430000 2.989170 2.808817 0.630000 2.992263 0.513562 0.430000 2.992263 0.513562 0.630000 2.992263 0.713947 0.430000 2.992263 0.713947 0.630000 2.993440 2.513122 0.430000 2.993440 2.513122 0.630000 2.995272 2.609246 0.430000 2.995272 2.609246 0.630000 3.003535 1.727342 0.430000 3.003535 1.727342 0.630000 3.003535 2.227342 0.430000 3.003535 2.227342 0.630000 3.010063 0.513562 0.430000 3.010063 0.513562 0.630000 3.010063 0.704455 0.430000 3.010063 0.704455 0.630000 3.012180 1.500000 0.430000 3.012180 1.500000 0.630000 3.012180 1.508985 0.430000 3.012180 1.508985 0.630000 3.012180 2.000000 0.430000 3.012180 2.000000 0.630000 3.012180 2.008985 0.430000 3.012180 2.008985 0.630000 3.031933 0.727342 0.430000 3.031933 0.727342 0.630000 3.040578 0.500000 0.430000 3.040578 0.500000 0.630000 3.040578 0.508984 0.430000 3.040578 0.508984 0.630000 3.059689 2.593073 0.430000 3.059689 2.593073 0.630000 3.063046 2.507020 0.430000 3.063046 2.507020 0.630000 3.072199 2.821939 0.430000 3.072199 2.821939 0.630000 3.072199 2.900671 0.430000 3.072199 2.900671 0.630000 3.079827 2.593073 0.430000 3.079827 2.593073 0.630000 3.089995 1.718357 0.430000 3.089995 1.718357 0.630000 3.089995 1.727342 0.430000 3.089995 1.727342 0.630000 3.089995 2.218357 0.430000 3.089995 2.218357 0.630000 3.089995 2.227342 0.430000 3.089995 2.227342 0.630000 3.092341 2.821939 0.430000 3.092341 2.821939 0.630000 3.093561 2.535703 0.430000 3.093561 2.535703 0.630000 3.100348 2.907269 0.430000 3.100348 2.907269 0.630000 3.103020 2.871983 0.430000 3.103020 2.871983 0.630000 3.107942 2.529446 0.430000 3.107942 2.529446 0.630000 3.116448 2.497178 0.430000 3.116448 2.497178 0.630000 3.117515 2.878584 0.430000 3.117515 2.878584 0.630000 3.118393 0.718357 0.430000 3.118393 0.718357 0.630000 3.118393 0.727342 0.430000 3.118393 0.727342 0.630000 3.120510 1.558997 0.430000 3.120510 1.558997 0.630000 3.120510 1.713947 0.430000 3.120510 1.713947 0.630000 3.120510 2.058997 0.430000 3.120510 2.058997 0.630000 3.120510 2.213947 0.430000 3.120510 2.213947 0.630000 3.121867 1.500000 0.430000 3.121867 1.500000 0.630000 3.121867 2.000000 0.430000 3.121867 2.000000 0.630000 3.124377 2.911196 0.430000 3.124377 2.911196 0.630000 3.127279 2.524106 0.430000 3.127279 2.524106 0.630000 3.131703 2.701096 0.430000 3.131703 2.701096 0.630000 3.131703 2.726120 0.430000 3.131703 2.726120 0.630000 3.134146 2.883733 0.430000 3.134146 2.883733 0.630000 3.138312 1.500000 0.430000 3.138312 1.500000 0.630000 3.138312 1.713947 0.430000 3.138312 1.713947 0.630000 3.138312 2.000000 0.430000 3.138312 2.000000 0.630000 3.138312 2.213947 0.430000 3.138312 2.213947 0.630000 3.146274 2.913143 0.430000 3.146274 2.913143 0.630000 3.148374 2.520444 0.430000 3.148374 2.520444 0.630000 3.148908 0.558997 0.430000 3.148908 0.558997 0.630000 3.148908 0.713947 0.430000 3.148908 0.713947 0.630000 3.150266 0.500000 0.430000 3.150266 0.500000 0.630000 3.151464 2.887054 0.430000 3.151464 2.887054 0.630000 3.166711 0.500000 0.430000 3.166711 0.500000 0.630000 3.166711 0.713947 0.430000 3.166711 0.713947 0.630000 3.167472 1.718357 0.430000 3.167472 1.718357 0.630000 3.167472 1.727342 0.430000 3.167472 1.727342 0.630000 3.167472 2.218357 0.430000 3.167472 2.218357 0.630000 3.167472 2.227342 0.430000 3.167472 2.227342 0.630000 3.168018 2.519224 0.430000 3.168018 2.519224 0.630000 3.168018 2.888161 0.430000 3.168018 2.888161 0.630000 3.168018 2.913793 0.430000 3.168018 2.913793 0.630000 3.172900 2.493898 0.430000 3.172900 2.493898 0.630000 3.175344 2.698657 0.430000 3.175344 2.698657 0.630000 3.175344 2.728865 0.430000 3.175344 2.728865 0.630000 3.195871 0.718357 0.430000 3.195871 0.718357 0.630000 3.195871 0.727342 0.430000 3.195871 0.727342 0.630000 3.201776 2.883468 0.430000 3.201776 2.883468 0.630000 3.205323 2.735121 0.430000 3.205323 2.735121 0.630000 3.209673 2.524716 0.430000 3.209673 2.524716 0.630000 3.209823 2.714218 0.430000 3.209823 2.714218 0.630000 3.213791 2.691828 0.430000 3.213791 2.691828 0.630000 3.213856 0.500000 0.430000 3.213856 0.500000 0.630000 3.213856 0.508984 0.430000 3.213856 0.508984 0.630000 3.213856 0.718357 0.430000 3.213856 0.718357 0.630000 3.213856 0.727342 0.430000 3.213856 0.727342 0.630000 3.224929 2.869391 0.430000 3.224929 2.869391 0.630000 3.226302 2.750227 0.430000 3.226302 2.750227 0.630000 3.234314 2.501679 0.430000 3.234314 2.501679 0.630000 3.238318 2.845018 0.430000 3.238318 2.845018 0.630000 3.238661 2.774792 0.430000 3.238661 2.774792 0.630000 3.238816 2.541193 0.430000 3.238816 2.541193 0.630000 3.240643 2.675617 0.430000 3.240643 2.675617 0.630000 3.242781 2.809429 0.430000 3.242781 2.809429 0.630000 3.243016 0.513562 0.430000 3.243016 0.513562 0.630000 3.243016 0.713947 0.430000 3.243016 0.713947 0.630000 3.247701 2.725091 0.430000 3.247701 2.725091 0.630000 3.255982 2.570490 0.430000 3.255982 2.570490 0.630000 3.256438 2.649870 0.430000 3.256438 2.649870 0.630000 3.258038 2.703042 0.430000 3.258038 2.703042 0.630000 3.260816 0.513562 0.430000 3.260816 0.513562 0.630000 3.260816 0.704455 0.430000 3.260816 0.704455 0.630000 3.261703 2.614435 0.430000 3.261703 2.614435 0.630000 3.266430 2.888617 0.430000 3.266430 2.888617 0.630000 3.275887 2.745497 0.430000 3.275887 2.745497 0.630000 3.280009 2.525024 0.430000 3.280009 2.525024 0.630000 3.282686 0.727342 0.430000 3.282686 0.727342 0.630000 3.291331 0.500000 0.430000 3.291331 0.500000 0.630000 3.291331 0.508984 0.430000 3.291331 0.508984 0.630000 3.291606 2.682331 0.430000 3.291606 2.682331 0.630000 3.293397 2.774984 0.430000 3.293397 2.774984 0.630000 3.299233 2.813092 0.430000 3.299233 2.813092 0.630000 3.308390 2.562177 0.430000 3.308390 2.562177 0.630000 3.311289 2.651854 0.430000 3.311289 2.651854 0.630000 3.317850 2.611384 0.430000 3.317850 2.611384 0.630000 3.369146 0.718357 0.430000 3.369146 0.718357 0.630000 3.369146 0.727342 0.430000 3.369146 0.727342 0.630000 3.369748 2.500000 0.430000 3.369748 2.500000 0.630000 3.369748 2.544856 0.430000 3.369748 2.544856 0.630000 3.383482 2.821939 0.430000 3.383482 2.821939 0.630000 3.383482 2.900671 0.430000 3.383482 2.900671 0.630000 3.399661 0.558997 0.430000 3.399661 0.558997 0.630000 3.399661 0.713947 0.430000 3.399661 0.713947 0.630000 3.401018 0.500000 0.430000 3.401018 0.500000 0.630000 3.403620 2.821939 0.430000 3.403620 2.821939 0.630000 3.409726 2.546993 0.430000 3.409726 2.546993 0.630000 3.414303 2.871983 0.430000 3.414303 2.871983 0.630000 3.417463 0.500000 0.430000 3.417463 0.500000 0.630000 3.417463 0.713947 0.430000 3.417463 0.713947 0.630000 3.426507 2.596430 0.430000 3.426507 2.596430 0.630000 3.428416 2.878584 0.430000 3.428416 2.878584 0.630000 3.434825 2.910512 0.430000 3.434825 2.910512 0.630000 3.439402 2.573619 0.430000 3.439402 2.573619 0.630000 3.444511 2.883733 0.430000 3.444511 2.883733 0.630000 3.446623 0.718357 0.430000 3.446623 0.718357 0.630000 3.446623 0.727342 0.430000 3.446623 0.727342 0.630000 3.461373 2.887054 0.430000 3.461373 2.887054 0.630000 3.467398 2.597956 0.430000 3.467398 2.597956 0.630000 3.473884 2.639761 0.430000 3.473884 2.639761 0.630000 3.477775 2.888161 0.430000 3.477775 2.888161 0.630000 3.477775 2.913793 0.430000 3.477775 2.913793 0.630000 3.506764 2.673938 0.430000 3.506764 2.673938 0.630000 3.512945 2.882972 0.430000 3.512945 2.882972 0.630000 3.521869 2.645980 0.430000 3.521869 2.645980 0.630000 3.528773 2.703996 0.430000 3.528773 2.703996 0.630000 3.536557 2.906812 0.430000 3.536557 2.906812 0.630000 3.536671 2.867407 0.430000 3.536671 2.867407 0.630000 3.543534 2.734967 0.430000 3.543534 2.734967 0.630000 3.550175 2.841926 0.430000 3.550175 2.841926 0.630000 3.551890 2.768688 0.430000 3.551890 2.768688 0.630000 3.554676 2.806985 0.430000 3.554676 2.806985 0.630000 3.558334 2.682025 0.430000 3.558334 2.682025 0.630000 3.578629 2.885870 0.430000 3.578629 2.885870 0.630000 3.582251 2.712160 0.430000 3.582251 2.712160 0.630000 3.599073 2.742446 0.430000 3.599073 2.742446 0.630000 3.603918 2.852188 0.430000 3.603918 2.852188 0.630000 3.609029 2.773762 0.430000 3.609029 2.773762 0.630000 3.612348 2.806985 0.430000 3.612348 2.806985 0.630000 3.620281 2.500000 0.430000 3.620281 2.500000 0.630000 3.620281 2.546993 0.430000 3.620281 2.546993 0.630000 5.000000 0.000000 0.000000 5.000000 0.000000 0.430000 5.000000 3.500000 0.000000 5.000000 3.500000 0.430000 "
							            />
						</IndexedFaceSet>
					</Shape>
					<Shape>
						<Appearance>
							<Material DEF="MA_Color_2"
							          diffuseColor="1.000 1.000 1.000"
							          specularColor="0.401 0.401 0.401"
							          emissiveColor="0.000 0.000 0.000"
							          ambientIntensity="0.000"
							          shininess="0.500"
							          transparency="1.000"
							          />
						</Appearance>
						<IndexedFaceSet solid="false"
						                coordIndex="4 5 8 -1 4 6 7 -1 4 7 5 -1 5 7 35 -1 5 9 8 -1 5 13 9 -1 5 17 13 -1 5 21 17 -1 5 23 21 -1 5 27 23 -1 5 31 27 -1 5 35 31 -1 6 10 11 -1 6 11 7 -1 7 11 35 -1 8 9 12 -1 9 13 12 -1 10 14 15 -1 10 15 11 -1 11 15 35 -1 12 13 16 -1 13 17 16 -1 14 18 19 -1 14 19 15 -1 15 19 35 -1 16 17 20 -1 17 21 20 -1 18 24 25 -1 18 25 19 -1 19 25 29 -1 19 29 33 -1 19 33 35 -1 20 21 22 -1 21 23 22 -1 22 23 26 -1 23 27 26 -1 24 28 29 -1 24 29 25 -1 26 27 30 -1 27 31 30 -1 28 32 33 -1 28 33 29 -1 30 31 34 -1 31 35 34 -1 32 34 35 -1 32 35 33 -1 36 37 38 -1 36 54 55 -1 36 55 37 -1 37 39 38 -1 37 45 39 -1 37 55 45 -1 38 39 44 -1 39 45 44 -1 40 41 42 -1 40 46 47 -1 40 47 41 -1 41 43 42 -1 41 47 43 -1 42 43 52 -1 43 47 53 -1 43 53 52 -1 44 45 46 -1 45 47 46 -1 45 49 51 -1 45 51 47 -1 45 55 49 -1 47 51 53 -1 48 49 56 -1 48 50 51 -1 48 51 49 -1 49 55 57 -1 49 57 56 -1 50 64 65 -1 50 65 51 -1 51 65 67 -1 51 67 75 -1 51 75 53 -1 52 53 74 -1 53 75 74 -1 54 56 57 -1 54 57 55 -1 58 59 60 -1 58 62 63 -1 58 63 59 -1 59 61 60 -1 59 63 61 -1 60 61 78 -1 61 63 69 -1 61 69 79 -1 61 79 78 -1 62 82 83 -1 62 83 63 -1 63 83 69 -1 64 66 67 -1 64 67 65 -1 66 110 111 -1 66 111 67 -1 67 111 75 -1 68 69 84 -1 68 76 77 -1 68 77 69 -1 69 77 79 -1 69 83 85 -1 69 85 84 -1 70 71 72 -1 70 98 99 -1 70 99 71 -1 71 73 72 -1 71 81 73 -1 71 99 81 -1 72 73 80 -1 73 81 80 -1 74 75 106 -1 75 107 106 -1 75 111 107 -1 76 78 79 -1 76 79 77 -1 80 81 82 -1 81 83 82 -1 81 87 83 -1 81 99 87 -1 83 87 89 -1 83 89 85 -1 84 85 102 -1 85 89 103 -1 85 103 102 -1 86 87 100 -1 86 88 89 -1 86 89 87 -1 87 99 101 -1 87 101 100 -1 88 104 105 -1 88 105 89 -1 89 105 103 -1 90 91 92 -1 90 102 103 -1 90 103 91 -1 91 93 92 -1 91 103 93 -1 92 93 114 -1 93 103 105 -1 93 105 115 -1 93 115 114 -1 94 95 96 -1 94 164 165 -1 94 165 95 -1 95 97 96 -1 95 109 97 -1 95 165 109 -1 96 97 108 -1 97 109 108 -1 98 100 101 -1 98 101 99 -1 104 112 113 -1 104 113 105 -1 105 113 115 -1 106 107 170 -1 107 111 123 -1 107 123 125 -1 107 125 171 -1 107 171 170 -1 108 109 110 -1 109 111 110 -1 109 123 111 -1 109 165 123 -1 112 114 115 -1 112 115 113 -1 116 117 118 -1 116 120 121 -1 116 121 117 -1 117 119 118 -1 117 121 119 -1 118 119 182 -1 119 121 139 -1 119 139 183 -1 119 183 182 -1 120 190 191 -1 120 191 121 -1 121 191 139 -1 122 123 166 -1 122 124 125 -1 122 125 123 -1 123 165 167 -1 123 167 166 -1 124 168 169 -1 124 169 125 -1 125 169 171 -1 126 127 130 -1 126 134 135 -1 126 135 127 -1 127 131 130 -1 127 135 153 -1 127 153 131 -1 128 129 132 -1 128 136 137 -1 128 137 129 -1 129 133 132 -1 129 137 155 -1 129 155 133 -1 130 131 140 -1 131 141 140 -1 131 153 157 -1 131 157 141 -1 132 133 142 -1 133 143 142 -1 133 155 159 -1 133 159 143 -1 134 148 149 -1 134 149 135 -1 135 149 161 -1 135 161 153 -1 136 150 151 -1 136 151 137 -1 137 151 163 -1 137 163 155 -1 138 139 204 -1 138 180 181 -1 138 181 139 -1 139 181 183 -1 139 191 205 -1 139 205 204 -1 140 141 184 -1 141 157 173 -1 141 173 185 -1 141 185 184 -1 142 143 186 -1 143 159 175 -1 143 175 187 -1 143 187 186 -1 144 145 146 -1 144 234 235 -1 144 235 145 -1 145 147 146 -1 145 189 147 -1 145 235 189 -1 146 147 188 -1 147 189 188 -1 148 192 193 -1 148 193 149 -1 149 177 161 -1 149 193 177 -1 150 194 195 -1 150 195 151 -1 151 179 163 -1 151 195 179 -1 152 153 160 -1 152 156 157 -1 152 157 153 -1 153 161 160 -1 154 155 162 -1 154 158 155 -1 155 158 159 -1 155 163 162 -1 156 172 173 -1 156 173 157 -1 158 174 175 -1 158 175 159 -1 160 161 176 -1 161 177 176 -1 162 163 178 -1 163 179 178 -1 164 166 167 -1 164 167 165 -1 168 170 171 -1 168 171 169 -1 172 196 197 -1 172 197 173 -1 173 197 185 -1 174 198 199 -1 174 199 175 -1 175 199 187 -1 176 177 200 -1 177 193 201 -1 177 201 200 -1 178 179 202 -1 179 195 203 -1 179 203 202 -1 180 182 183 -1 180 183 181 -1 184 185 218 -1 185 197 219 -1 185 219 218 -1 186 187 220 -1 187 199 221 -1 187 221 220 -1 188 189 190 -1 189 191 190 -1 189 207 191 -1 189 235 207 -1 191 207 209 -1 191 209 205 -1 192 210 211 -1 192 211 193 -1 193 211 201 -1 194 212 213 -1 194 213 195 -1 195 213 203 -1 196 222 223 -1 196 223 197 -1 197 223 219 -1 198 224 225 -1 198 225 199 -1 199 225 221 -1 200 201 214 -1 201 211 215 -1 201 215 214 -1 202 203 216 -1 203 213 217 -1 203 217 216 -1 204 205 250 -1 205 209 251 -1 205 251 250 -1 206 207 236 -1 206 208 209 -1 206 209 207 -1 207 235 237 -1 207 237 236 -1 208 268 269 -1 208 269 209 -1 209 269 251 -1 210 256 257 -1 210 257 211 -1 211 239 215 -1 211 257 239 -1 212 258 259 -1 212 259 213 -1 213 241 217 -1 213 259 241 -1 214 215 238 -1 215 239 238 -1 216 217 240 -1 217 241 240 -1 218 219 252 -1 219 223 231 -1 219 231 253 -1 219 253 252 -1 220 221 254 -1 221 225 233 -1 221 233 255 -1 221 255 254 -1 222 230 231 -1 222 231 223 -1 224 232 233 -1 224 233 225 -1 226 227 228 -1 226 250 251 -1 226 251 227 -1 227 229 228 -1 227 251 229 -1 228 229 304 -1 229 251 269 -1 229 269 305 -1 229 305 304 -1 230 242 243 -1 230 243 231 -1 231 243 253 -1 232 244 245 -1 232 245 233 -1 233 245 255 -1 234 236 237 -1 234 237 235 -1 238 239 246 -1 239 247 246 -1 239 257 247 -1 240 241 248 -1 241 249 248 -1 241 259 249 -1 242 260 261 -1 242 261 243 -1 243 261 253 -1 244 262 263 -1 244 263 245 -1 245 263 255 -1 246 247 264 -1 247 257 265 -1 247 265 264 -1 248 249 266 -1 249 259 267 -1 249 267 266 -1 252 253 286 -1 253 261 287 -1 253 287 286 -1 254 255 288 -1 255 263 289 -1 255 289 288 -1 256 294 295 -1 256 295 257 -1 257 295 265 -1 258 296 297 -1 258 297 259 -1 259 297 267 -1 260 270 271 -1 260 271 261 -1 261 271 287 -1 262 272 273 -1 262 273 263 -1 263 273 289 -1 264 265 274 -1 265 275 274 -1 265 295 275 -1 266 267 276 -1 267 277 276 -1 267 297 277 -1 268 302 303 -1 268 303 269 -1 269 303 305 -1 270 278 279 -1 270 279 271 -1 271 279 291 -1 271 291 287 -1 272 280 281 -1 272 281 273 -1 273 281 293 -1 273 293 289 -1 274 275 282 -1 275 283 282 -1 275 295 299 -1 275 299 283 -1 276 277 284 -1 277 285 284 -1 277 297 301 -1 277 301 285 -1 278 290 291 -1 278 291 279 -1 280 292 293 -1 280 293 281 -1 282 283 298 -1 283 299 298 -1 284 285 300 -1 285 301 300 -1 286 287 290 -1 287 291 290 -1 288 289 292 -1 289 293 292 -1 294 298 299 -1 294 299 295 -1 296 300 301 -1 296 301 297 -1 302 304 305 -1 302 305 303 -1 306 307 308 -1 306 318 319 -1 306 319 307 -1 307 309 308 -1 307 319 309 -1 308 309 375 -1 309 319 346 -1 309 346 376 -1 309 376 375 -1 310 311 312 -1 310 338 339 -1 310 339 311 -1 311 313 312 -1 311 339 313 -1 312 313 389 -1 313 339 390 -1 313 390 389 -1 314 315 316 -1 314 343 344 -1 314 344 315 -1 315 317 316 -1 315 344 317 -1 316 317 391 -1 317 344 392 -1 317 392 391 -1 318 377 378 -1 318 378 319 -1 319 378 388 -1 319 388 400 -1 319 400 346 -1 320 321 322 -1 320 401 402 -1 320 402 321 -1 321 323 322 -1 321 337 323 -1 321 356 337 -1 321 402 356 -1 322 323 336 -1 323 337 336 -1 324 325 326 -1 324 405 406 -1 324 406 325 -1 325 327 326 -1 325 341 327 -1 325 364 341 -1 325 406 364 -1 326 327 340 -1 327 341 340 -1 328 329 330 -1 328 353 354 -1 328 354 329 -1 329 331 330 -1 329 354 331 -1 330 331 479 -1 331 354 480 -1 331 480 479 -1 332 333 334 -1 332 493 494 -1 332 494 333 -1 333 335 334 -1 333 352 335 -1 333 426 352 -1 333 494 426 -1 334 335 351 -1 335 352 351 -1 336 337 338 -1 337 339 338 -1 337 356 358 -1 337 358 360 -1 337 360 339 -1 339 360 362 -1 339 362 390 -1 340 341 342 -1 341 344 342 -1 341 364 366 -1 341 366 368 -1 341 368 344 -1 342 344 343 -1 344 368 370 -1 344 370 392 -1 345 346 399 -1 345 373 374 -1 345 374 346 -1 346 374 376 -1 346 400 399 -1 347 348 349 -1 347 421 422 -1 347 422 348 -1 348 350 349 -1 348 372 350 -1 348 422 372 -1 349 350 371 -1 350 372 371 -1 351 352 353 -1 352 354 353 -1 352 426 428 -1 352 428 430 -1 352 430 354 -1 354 430 432 -1 354 432 480 -1 355 356 403 -1 355 357 358 -1 355 358 356 -1 356 402 404 -1 356 404 403 -1 357 395 396 -1 357 396 358 -1 358 384 360 -1 358 396 384 -1 359 360 383 -1 359 361 362 -1 359 362 360 -1 360 384 383 -1 361 379 380 -1 361 380 362 -1 362 380 390 -1 363 364 407 -1 363 365 366 -1 363 366 364 -1 364 406 408 -1 364 408 407 -1 365 397 398 -1 365 398 366 -1 366 386 368 -1 366 398 386 -1 367 368 385 -1 367 369 370 -1 367 370 368 -1 368 386 385 -1 369 381 382 -1 369 382 370 -1 370 382 392 -1 371 372 457 -1 372 394 418 -1 372 418 420 -1 372 420 458 -1 372 422 394 -1 372 458 457 -1 373 375 376 -1 373 376 374 -1 377 387 388 -1 377 388 378 -1 379 413 414 -1 379 414 380 -1 380 414 390 -1 381 415 416 -1 381 416 382 -1 382 416 392 -1 383 384 409 -1 384 396 410 -1 384 410 409 -1 385 386 411 -1 386 398 412 -1 386 412 411 -1 387 459 460 -1 387 460 388 -1 388 460 400 -1 389 390 465 -1 390 414 466 -1 390 466 465 -1 391 392 467 -1 392 416 468 -1 392 468 467 -1 393 394 423 -1 393 417 418 -1 393 418 394 -1 394 422 424 -1 394 424 423 -1 395 437 438 -1 395 438 396 -1 396 438 410 -1 397 439 440 -1 397 440 398 -1 398 440 412 -1 399 400 469 -1 400 460 470 -1 400 470 469 -1 401 403 404 -1 401 404 402 -1 405 407 408 -1 405 408 406 -1 409 410 433 -1 410 434 433 -1 410 438 434 -1 411 412 435 -1 412 436 435 -1 412 440 436 -1 413 441 442 -1 413 442 414 -1 414 442 466 -1 415 443 444 -1 415 444 416 -1 416 444 468 -1 417 523 524 -1 417 524 418 -1 418 524 420 -1 419 420 501 -1 419 475 476 -1 419 476 420 -1 420 476 458 -1 420 502 501 -1 420 524 502 -1 421 423 424 -1 421 424 422 -1 425 426 495 -1 425 427 428 -1 425 428 426 -1 426 494 496 -1 426 496 495 -1 427 485 486 -1 427 486 428 -1 428 474 430 -1 428 486 474 -1 429 430 473 -1 429 431 432 -1 429 432 430 -1 430 474 473 -1 431 471 472 -1 431 472 432 -1 432 472 480 -1 433 434 445 -1 434 438 462 -1 434 446 445 -1 434 462 446 -1 435 436 447 -1 436 440 464 -1 436 448 447 -1 436 464 448 -1 437 461 462 -1 437 462 438 -1 439 463 464 -1 439 464 440 -1 441 449 450 -1 441 450 442 -1 442 450 466 -1 443 451 452 -1 443 452 444 -1 444 452 468 -1 445 446 453 -1 446 454 453 -1 446 462 482 -1 446 482 454 -1 447 448 455 -1 448 456 455 -1 448 464 484 -1 448 484 456 -1 449 453 454 -1 449 454 450 -1 450 454 488 -1 450 488 466 -1 451 455 456 -1 451 456 452 -1 452 456 490 -1 452 490 468 -1 454 482 488 -1 456 484 490 -1 457 458 491 -1 458 476 492 -1 458 492 491 -1 459 525 526 -1 459 526 460 -1 460 526 530 -1 460 530 470 -1 461 481 482 -1 461 482 462 -1 463 483 484 -1 463 484 464 -1 465 466 487 -1 466 488 487 -1 467 468 489 -1 468 490 489 -1 469 470 477 -1 470 478 477 -1 470 530 478 -1 471 521 522 -1 471 522 472 -1 472 522 480 -1 473 474 519 -1 474 486 520 -1 474 520 519 -1 475 501 502 -1 475 502 476 -1 476 502 492 -1 477 478 529 -1 478 530 529 -1 479 480 583 -1 480 522 584 -1 480 584 583 -1 481 487 488 -1 481 488 482 -1 483 489 490 -1 483 490 484 -1 485 543 544 -1 485 544 486 -1 486 544 520 -1 491 492 565 -1 492 502 566 -1 492 566 565 -1 493 495 496 -1 493 496 494 -1 497 498 499 -1 497 585 586 -1 497 586 498 -1 498 500 499 -1 498 532 500 -1 498 586 532 -1 499 500 531 -1 500 532 531 -1 502 524 566 -1 503 504 505 -1 503 573 574 -1 503 574 504 -1 504 506 505 -1 504 534 506 -1 504 574 534 -1 505 506 533 -1 506 534 533 -1 507 508 509 -1 507 535 536 -1 507 536 508 -1 508 510 509 -1 508 536 510 -1 509 510 567 -1 510 536 568 -1 510 568 567 -1 511 512 513 -1 511 577 578 -1 511 578 512 -1 512 514 513 -1 512 538 514 -1 512 578 538 -1 513 514 537 -1 514 538 537 -1 515 516 517 -1 515 539 540 -1 515 540 516 -1 516 518 517 -1 516 540 518 -1 517 518 569 -1 518 540 570 -1 518 570 569 -1 519 520 541 -1 520 542 541 -1 520 544 542 -1 521 545 546 -1 521 546 522 -1 522 546 584 -1 523 531 532 -1 523 532 524 -1 524 532 566 -1 525 527 528 -1 525 528 526 -1 526 528 590 -1 526 590 530 -1 527 589 590 -1 527 590 528 -1 529 530 571 -1 530 572 571 -1 530 590 572 -1 532 586 566 -1 533 534 536 -1 533 536 535 -1 534 552 554 -1 534 554 536 -1 534 574 552 -1 536 554 568 -1 537 538 540 -1 537 540 539 -1 538 556 558 -1 538 558 540 -1 538 578 556 -1 540 558 570 -1 541 542 559 -1 542 544 582 -1 542 560 559 -1 542 582 560 -1 543 581 582 -1 543 582 544 -1 545 561 562 -1 545 562 546 -1 546 562 584 -1 547 548 549 -1 547 571 572 -1 547 572 548 -1 548 550 549 -1 548 572 550 -1 549 550 603 -1 550 572 590 -1 550 590 604 -1 550 604 603 -1 551 552 575 -1 551 553 554 -1 551 554 552 -1 552 574 576 -1 552 576 575 -1 553 651 652 -1 553 652 554 -1 554 644 568 -1 554 652 668 -1 554 668 644 -1 555 556 579 -1 555 557 558 -1 555 558 556 -1 556 578 580 -1 556 580 579 -1 557 653 654 -1 557 654 558 -1 558 648 570 -1 558 654 672 -1 558 672 648 -1 559 560 563 -1 560 564 563 -1 560 582 600 -1 560 600 564 -1 561 563 564 -1 561 564 562 -1 562 564 610 -1 562 610 584 -1 564 600 610 -1 565 566 587 -1 566 586 588 -1 566 588 587 -1 567 568 643 -1 568 644 643 -1 569 570 647 -1 570 648 647 -1 573 575 576 -1 573 576 574 -1 577 579 580 -1 577 580 578 -1 581 599 600 -1 581 600 582 -1 583 584 609 -1 584 610 609 -1 585 587 588 -1 585 588 586 -1 589 601 602 -1 589 602 590 -1 590 602 604 -1 591 592 593 -1 591 613 614 -1 591 614 592 -1 592 594 593 -1 592 614 594 -1 593 594 675 -1 594 614 676 -1 594 676 675 -1 595 596 597 -1 595 659 660 -1 595 660 596 -1 596 598 597 -1 596 612 598 -1 596 626 612 -1 596 660 626 -1 597 598 611 -1 598 612 611 -1 599 609 610 -1 599 610 600 -1 601 603 604 -1 601 604 602 -1 605 606 607 -1 605 615 616 -1 605 616 606 -1 606 608 607 -1 606 616 608 -1 607 608 665 -1 608 616 642 -1 608 642 666 -1 608 666 665 -1 611 612 613 -1 612 614 613 -1 612 626 628 -1 612 628 630 -1 612 630 614 -1 614 630 632 -1 614 632 676 -1 615 679 680 -1 615 680 616 -1 616 680 682 -1 616 682 688 -1 616 688 642 -1 617 618 619 -1 617 645 646 -1 617 646 618 -1 618 620 619 -1 618 646 620 -1 619 620 695 -1 620 646 670 -1 620 670 696 -1 620 696 695 -1 621 622 623 -1 621 649 650 -1 621 650 622 -1 622 624 623 -1 622 650 624 -1 623 624 699 -1 624 650 674 -1 624 674 700 -1 624 700 699 -1 625 626 661 -1 625 627 628 -1 625 628 626 -1 626 660 662 -1 626 662 661 -1 627 677 678 -1 627 678 628 -1 628 658 630 -1 628 678 658 -1 629 630 657 -1 629 631 632 -1 629 632 630 -1 630 658 657 -1 631 655 656 -1 631 656 632 -1 632 656 676 -1 633 634 635 -1 633 793 794 -1 633 794 634 -1 634 636 635 -1 634 684 636 -1 634 794 684 -1 635 636 683 -1 636 684 683 -1 637 638 639 -1 637 685 686 -1 637 686 638 -1 638 640 639 -1 638 686 640 -1 639 640 799 -1 640 686 800 -1 640 800 799 -1 641 642 687 -1 641 663 664 -1 641 664 642 -1 642 664 666 -1 642 688 687 -1 643 644 645 -1 644 646 645 -1 644 668 670 -1 644 670 646 -1 647 648 649 -1 648 650 649 -1 648 672 674 -1 648 674 650 -1 651 667 668 -1 651 668 652 -1 653 671 672 -1 653 672 654 -1 655 689 690 -1 655 690 656 -1 656 690 676 -1 657 658 691 -1 658 678 692 -1 658 692 691 -1 659 661 662 -1 659 662 660 -1 663 665 666 -1 663 666 664 -1 667 669 670 -1 667 670 668 -1 669 693 694 -1 669 694 670 -1 670 694 696 -1 671 673 674 -1 671 674 672 -1 673 697 698 -1 673 698 674 -1 674 698 700 -1 675 676 707 -1 676 690 708 -1 676 708 707 -1 677 731 732 -1 677 732 678 -1 678 702 692 -1 678 732 702 -1 679 681 682 -1 679 682 680 -1 681 739 740 -1 681 740 682 -1 682 740 688 -1 683 684 685 -1 684 686 685 -1 684 736 686 -1 684 794 736 -1 686 736 738 -1 686 738 800 -1 687 688 743 -1 688 740 744 -1 688 744 743 -1 689 705 706 -1 689 706 690 -1 690 706 708 -1 691 692 703 -1 692 702 704 -1 692 704 703 -1 693 695 696 -1 693 696 694 -1 697 699 700 -1 697 700 698 -1 701 702 771 -1 701 719 720 -1 701 720 702 -1 702 720 704 -1 702 732 772 -1 702 772 771 -1 703 704 709 -1 704 710 709 -1 704 720 710 -1 705 711 712 -1 705 712 706 -1 706 712 730 -1 706 730 708 -1 707 708 729 -1 708 730 729 -1 709 710 713 -1 710 714 713 -1 710 720 734 -1 710 734 746 -1 710 746 714 -1 711 713 714 -1 711 714 712 -1 712 714 756 -1 712 742 730 -1 712 756 742 -1 714 746 756 -1 715 716 721 -1 715 725 726 -1 715 726 716 -1 716 722 721 -1 716 726 758 -1 716 758 722 -1 717 718 723 -1 717 727 728 -1 717 728 718 -1 718 724 723 -1 718 728 760 -1 718 760 724 -1 719 733 734 -1 719 734 720 -1 721 722 747 -1 722 748 747 -1 722 758 764 -1 722 764 748 -1 723 724 749 -1 724 750 749 -1 724 760 766 -1 724 766 750 -1 725 751 752 -1 725 752 726 -1 726 752 768 -1 726 768 758 -1 727 753 754 -1 727 754 728 -1 728 754 770 -1 728 770 760 -1 729 730 741 -1 730 742 741 -1 731 789 790 -1 731 790 732 -1 732 790 772 -1 733 745 746 -1 733 746 734 -1 735 736 795 -1 735 737 738 -1 735 738 736 -1 736 794 796 -1 736 796 795 -1 737 797 798 -1 737 798 738 -1 738 798 800 -1 739 817 818 -1 739 818 740 -1 740 818 822 -1 740 822 744 -1 741 742 755 -1 742 756 755 -1 743 744 761 -1 744 762 761 -1 744 822 762 -1 745 755 756 -1 745 756 746 -1 747 748 781 -1 748 764 774 -1 748 774 782 -1 748 782 781 -1 749 750 783 -1 750 766 776 -1 750 776 784 -1 750 784 783 -1 751 785 786 -1 751 786 752 -1 752 778 768 -1 752 786 778 -1 753 787 788 -1 753 788 754 -1 754 780 770 -1 754 788 780 -1 757 758 767 -1 757 763 764 -1 757 764 758 -1 758 768 767 -1 759 760 769 -1 759 765 766 -1 759 766 760 -1 760 770 769 -1 761 762 821 -1 762 822 821 -1 763 773 774 -1 763 774 764 -1 765 775 776 -1 765 776 766 -1 767 768 777 -1 768 778 777 -1 769 770 779 -1 770 780 779 -1 771 772 791 -1 772 790 792 -1 772 792 791 -1 773 801 802 -1 773 802 774 -1 774 802 782 -1 775 803 804 -1 775 804 776 -1 776 804 784 -1 777 778 805 -1 778 786 806 -1 778 806 805 -1 779 780 807 -1 780 788 808 -1 780 808 807 -1 781 782 839 -1 782 802 840 -1 782 840 839 -1 783 784 841 -1 784 804 842 -1 784 842 841 -1 785 831 832 -1 785 832 786 -1 786 832 806 -1 787 833 834 -1 787 834 788 -1 788 834 808 -1 789 791 792 -1 789 792 790 -1 793 795 796 -1 793 796 794 -1 797 799 800 -1 797 800 798 -1 801 843 844 -1 801 844 802 -1 802 844 840 -1 803 845 846 -1 803 846 804 -1 804 846 842 -1 805 806 835 -1 806 832 836 -1 806 836 835 -1 807 808 837 -1 808 834 838 -1 808 838 837 -1 809 810 811 -1 809 885 886 -1 809 886 810 -1 810 812 811 -1 810 824 812 -1 810 886 824 -1 811 812 823 -1 812 824 823 -1 813 814 815 -1 813 825 826 -1 813 826 814 -1 814 816 815 -1 814 826 816 -1 815 816 871 -1 816 826 872 -1 816 872 871 -1 817 819 820 -1 817 820 818 -1 818 820 894 -1 818 894 822 -1 819 893 894 -1 819 894 820 -1 821 822 865 -1 822 866 865 -1 822 894 866 -1 823 824 825 -1 824 826 825 -1 824 850 852 -1 824 852 826 -1 824 886 850 -1 826 852 872 -1 827 828 829 -1 827 865 866 -1 827 866 828 -1 828 830 829 -1 828 866 830 -1 829 830 921 -1 830 866 894 -1 830 894 922 -1 830 922 921 -1 831 881 882 -1 831 882 832 -1 832 858 836 -1 832 882 858 -1 833 883 884 -1 833 884 834 -1 834 860 838 -1 834 884 860 -1 835 836 857 -1 836 858 857 -1 837 838 859 -1 838 860 859 -1 839 840 877 -1 840 844 854 -1 840 854 878 -1 840 878 877 -1 841 842 879 -1 842 846 856 -1 842 856 880 -1 842 880 879 -1 843 853 854 -1 843 854 844 -1 845 855 856 -1 845 856 846 -1 847 848 861 -1 847 863 864 -1 847 864 848 -1 848 862 861 -1 848 864 924 -1 848 924 862 -1 849 850 887 -1 849 851 852 -1 849 852 850 -1 850 886 888 -1 850 888 887 -1 851 953 954 -1 851 954 852 -1 852 954 956 -1 852 956 960 -1 852 960 872 -1 853 867 868 -1 853 868 854 -1 854 868 878 -1 855 869 870 -1 855 870 856 -1 856 870 880 -1 857 858 873 -1 858 874 873 -1 858 882 874 -1 859 860 875 -1 860 876 875 -1 860 884 876 -1 861 862 899 -1 862 900 899 -1 862 924 934 -1 862 934 900 -1 863 905 906 -1 863 906 864 -1 864 906 940 -1 864 940 924 -1 867 889 890 -1 867 890 868 -1 868 890 878 -1 869 891 892 -1 869 892 870 -1 870 892 880 -1 871 872 959 -1 872 960 959 -1 873 874 895 -1 874 882 896 -1 874 896 895 -1 875 876 897 -1 876 884 898 -1 876 898 897 -1 877 878 925 -1 878 890 926 -1 878 926 925 -1 879 880 927 -1 880 892 928 -1 880 928 927 -1 881 935 936 -1 881 936 882 -1 882 936 896 -1 883 937 938 -1 883 938 884 -1 884 938 898 -1 885 887 888 -1 885 888 886 -1 889 901 902 -1 889 902 890 -1 890 902 926 -1 891 903 904 -1 891 904 892 -1 892 904 928 -1 893 919 920 -1 893 920 894 -1 894 920 922 -1 895 896 907 -1 896 908 907 -1 896 936 908 -1 897 898 909 -1 898 910 909 -1 898 938 910 -1 899 900 983 -1 900 934 958 -1 900 958 984 -1 900 984 983 -1 901 911 912 -1 901 912 902 -1 902 912 930 -1 902 930 926 -1 903 913 914 -1 903 914 904 -1 904 914 932 -1 904 932 928 -1 905 989 990 -1 905 990 906 -1 906 962 940 -1 906 990 962 -1 907 908 915 -1 908 916 915 -1 908 936 950 -1 908 950 916 -1 909 910 917 -1 910 918 917 -1 910 938 952 -1 910 952 918 -1 911 929 930 -1 911 930 912 -1 913 931 932 -1 913 932 914 -1 915 916 949 -1 916 950 949 -1 917 918 951 -1 918 952 951 -1 919 921 922 -1 919 922 920 -1 923 924 939 -1 923 933 934 -1 923 934 924 -1 924 940 939 -1 925 926 929 -1 926 930 929 -1 927 928 931 -1 928 932 931 -1 933 957 958 -1 933 958 934 -1 935 949 950 -1 935 950 936 -1 937 951 952 -1 937 952 938 -1 939 940 961 -1 940 962 961 -1 941 942 943 -1 941 1006 1007 -1 941 1007 942 -1 942 944 943 -1 942 964 944 -1 942 1007 964 -1 943 944 963 -1 944 964 963 -1 945 946 947 -1 945 965 966 -1 945 966 946 -1 946 948 947 -1 946 966 948 -1 947 948 1000 -1 948 966 1001 -1 948 1001 1000 -1 953 955 956 -1 953 956 954 -1 955 1042 1043 -1 955 1043 956 -1 956 1043 960 -1 957 1002 1003 -1 957 1003 958 -1 958 1003 984 -1 959 960 1034 -1 960 1035 1034 -1 960 1043 1035 -1 961 962 1004 -1 962 990 1005 -1 962 1005 1004 -1 963 964 965 -1 964 966 965 -1 964 986 988 -1 964 988 966 -1 964 1007 986 -1 966 988 1001 -1 967 968 969 -1 967 994 995 -1 967 995 968 -1 968 970 969 -1 968 995 970 -1 969 970 1044 -1 970 995 1045 -1 970 1045 1044 -1 971 972 973 -1 971 998 999 -1 971 999 972 -1 972 974 973 -1 972 999 974 -1 973 974 1046 -1 974 999 1047 -1 974 1047 1046 -1 975 976 977 -1 975 1052 1053 -1 975 1053 976 -1 976 978 977 -1 976 992 978 -1 976 1015 992 -1 976 1053 1015 -1 977 978 991 -1 978 992 991 -1 979 980 981 -1 979 1056 1057 -1 979 1057 980 -1 980 982 981 -1 980 997 982 -1 980 1023 997 -1 980 1057 1023 -1 981 982 996 -1 982 997 996 -1 983 984 1072 -1 984 1003 1073 -1 984 1073 1072 -1 985 986 1008 -1 985 987 988 -1 985 988 986 -1 986 1007 1009 -1 986 1009 1008 -1 987 1132 1133 -1 987 1133 988 -1 988 1129 1001 -1 988 1133 1147 -1 988 1147 1129 -1 989 1068 1069 -1 989 1069 990 -1 990 1069 1005 -1 991 992 993 -1 992 995 993 -1 992 1015 1017 -1 992 1017 1019 -1 992 1019 995 -1 993 995 994 -1 995 1019 1021 -1 995 1021 1045 -1 996 997 998 -1 997 999 998 -1 997 1023 1025 -1 997 1025 1027 -1 997 1027 999 -1 999 1027 1029 -1 999 1029 1047 -1 1000 1001 1128 -1 1001 1129 1128 -1 1002 1074 1075 -1 1002 1075 1003 -1 1003 1075 1073 -1 1004 1005 1070 -1 1005 1069 1071 -1 1005 1071 1070 -1 1006 1008 1009 -1 1006 1009 1007 -1 1010 1011 1012 -1 1010 1112 1113 -1 1010 1113 1011 -1 1011 1013 1012 -1 1011 1041 1013 -1 1011 1113 1041 -1 1012 1013 1040 -1 1013 1041 1040 -1 1014 1015 1054 -1 1014 1016 1015 -1 1015 1016 1017 -1 1015 1053 1055 -1 1015 1055 1054 -1 1016 1048 1049 -1 1016 1049 1017 -1 1017 1037 1019 -1 1017 1049 1037 -1 1018 1019 1036 -1 1018 1020 1021 -1 1018 1021 1019 -1 1019 1037 1036 -1 1020 1030 1031 -1 1020 1031 1021 -1 1021 1031 1045 -1 1022 1023 1058 -1 1022 1024 1025 -1 1022 1025 1023 -1 1023 1057 1059 -1 1023 1059 1058 -1 1024 1050 1051 -1 1024 1051 1025 -1 1025 1039 1027 -1 1025 1051 1039 -1 1026 1027 1038 -1 1026 1028 1029 -1 1026 1029 1027 -1 1027 1039 1038 -1 1028 1032 1033 -1 1028 1033 1029 -1 1029 1033 1047 -1 1030 1064 1065 -1 1030 1065 1031 -1 1031 1065 1045 -1 1032 1066 1067 -1 1032 1067 1033 -1 1033 1067 1047 -1 1034 1035 1118 -1 1035 1043 1077 -1 1035 1077 1079 -1 1035 1079 1119 -1 1035 1119 1118 -1 1036 1037 1060 -1 1037 1049 1061 -1 1037 1061 1060 -1 1038 1039 1062 -1 1039 1051 1063 -1 1039 1063 1062 -1 1040 1041 1042 -1 1041 1043 1042 -1 1041 1077 1043 -1 1041 1113 1077 -1 1044 1045 1124 -1 1045 1065 1125 -1 1045 1125 1124 -1 1046 1047 1126 -1 1047 1067 1127 -1 1047 1127 1126 -1 1048 1084 1085 -1 1048 1085 1049 -1 1049 1085 1061 -1 1050 1086 1087 -1 1050 1087 1051 -1 1051 1087 1063 -1 1052 1054 1055 -1 1052 1055 1053 -1 1056 1058 1059 -1 1056 1059 1057 -1 1060 1061 1080 -1 1061 1081 1080 -1 1061 1085 1081 -1 1062 1063 1082 -1 1063 1083 1082 -1 1063 1087 1083 -1 1064 1088 1089 -1 1064 1089 1065 -1 1065 1089 1125 -1 1066 1090 1091 -1 1066 1091 1067 -1 1067 1091 1127 -1 1068 1152 1153 -1 1068 1153 1069 -1 1069 1111 1071 -1 1069 1153 1111 -1 1070 1071 1110 -1 1071 1111 1110 -1 1072 1073 1150 -1 1073 1075 1109 -1 1073 1109 1151 -1 1073 1151 1150 -1 1074 1108 1109 -1 1074 1109 1075 -1 1076 1077 1114 -1 1076 1078 1077 -1 1077 1078 1079 -1 1077 1113 1115 -1 1077 1115 1114 -1 1078 1116 1117 -1 1078 1117 1079 -1 1079 1117 1119 -1 1080 1081 1096 -1 1081 1085 1121 -1 1081 1097 1096 -1 1081 1121 1097 -1 1082 1083 1098 -1 1083 1087 1123 -1 1083 1099 1098 -1 1083 1123 1099 -1 1084 1120 1121 -1 1084 1121 1085 -1 1086 1122 1123 -1 1086 1123 1087 -1 1088 1100 1101 -1 1088 1101 1089 -1 1089 1101 1125 -1 1090 1102 1103 -1 1090 1103 1091 -1 1091 1103 1127 -1 1092 1093 1094 -1 1092 1130 1131 -1 1092 1131 1093 -1 1093 1095 1094 -1 1093 1131 1095 -1 1094 1095 1176 -1 1095 1131 1149 -1 1095 1149 1177 -1 1095 1177 1176 -1 1096 1097 1104 -1 1097 1105 1104 -1 1097 1121 1135 -1 1097 1135 1105 -1 1098 1099 1106 -1 1099 1107 1106 -1 1099 1123 1137 -1 1099 1137 1107 -1 1100 1104 1105 -1 1100 1105 1101 -1 1101 1105 1141 -1 1101 1141 1125 -1 1102 1106 1107 -1 1102 1107 1103 -1 1103 1107 1143 -1 1103 1143 1127 -1 1105 1135 1141 -1 1107 1137 1143 -1 1108 1138 1139 -1 1108 1139 1109 -1 1109 1139 1151 -1 1110 1111 1144 -1 1111 1145 1144 -1 1111 1153 1145 -1 1112 1114 1115 -1 1112 1115 1113 -1 1116 1118 1119 -1 1116 1119 1117 -1 1120 1134 1135 -1 1120 1135 1121 -1 1122 1136 1137 -1 1122 1137 1123 -1 1124 1125 1140 -1 1125 1141 1140 -1 1126 1127 1142 -1 1127 1143 1142 -1 1128 1129 1130 -1 1129 1131 1130 -1 1129 1147 1149 -1 1129 1149 1131 -1 1132 1146 1147 -1 1132 1147 1133 -1 1134 1140 1141 -1 1134 1141 1135 -1 1136 1142 1143 -1 1136 1143 1137 -1 1138 1170 1171 -1 1138 1171 1139 -1 1139 1171 1151 -1 1144 1145 1172 -1 1145 1153 1173 -1 1145 1173 1172 -1 1146 1148 1149 -1 1146 1149 1147 -1 1148 1174 1175 -1 1148 1175 1149 -1 1149 1175 1177 -1 1150 1151 1210 -1 1151 1171 1211 -1 1151 1211 1210 -1 1152 1218 1219 -1 1152 1219 1153 -1 1153 1219 1173 -1 1154 1155 1156 -1 1154 1230 1231 -1 1154 1231 1155 -1 1155 1157 1156 -1 1155 1189 1157 -1 1155 1231 1189 -1 1156 1157 1188 -1 1157 1189 1188 -1 1158 1159 1160 -1 1158 1190 1191 -1 1158 1191 1159 -1 1159 1161 1160 -1 1159 1191 1161 -1 1160 1161 1222 -1 1161 1191 1223 -1 1161 1223 1222 -1 1162 1163 1164 -1 1162 1234 1235 -1 1162 1235 1163 -1 1163 1165 1164 -1 1163 1193 1165 -1 1163 1235 1193 -1 1164 1165 1192 -1 1165 1193 1192 -1 1166 1167 1168 -1 1166 1194 1195 -1 1166 1195 1167 -1 1167 1169 1168 -1 1167 1195 1169 -1 1168 1169 1224 -1 1169 1195 1225 -1 1169 1225 1224 -1 1170 1178 1179 -1 1170 1179 1171 -1 1171 1179 1211 -1 1172 1173 1196 -1 1173 1197 1196 -1 1173 1219 1197 -1 1174 1176 1177 -1 1174 1177 1175 -1 1178 1198 1199 -1 1178 1199 1179 -1 1179 1199 1213 -1 1179 1213 1211 -1 1180 1181 1182 -1 1180 1240 1241 -1 1180 1241 1181 -1 1181 1183 1182 -1 1181 1215 1183 -1 1181 1241 1215 -1 1182 1183 1214 -1 1183 1215 1214 -1 1184 1185 1186 -1 1184 1216 1217 -1 1184 1217 1185 -1 1185 1187 1186 -1 1185 1217 1187 -1 1186 1187 1238 -1 1187 1217 1239 -1 1187 1239 1238 -1 1188 1189 1191 -1 1188 1191 1190 -1 1189 1203 1205 -1 1189 1205 1191 -1 1189 1231 1203 -1 1191 1205 1223 -1 1192 1193 1195 -1 1192 1195 1194 -1 1193 1207 1209 -1 1193 1209 1195 -1 1193 1235 1207 -1 1195 1209 1225 -1 1196 1197 1200 -1 1197 1201 1200 -1 1197 1219 1221 -1 1197 1221 1201 -1 1198 1212 1213 -1 1198 1213 1199 -1 1200 1201 1220 -1 1201 1221 1220 -1 1202 1203 1232 -1 1202 1204 1205 -1 1202 1205 1203 -1 1203 1231 1233 -1 1203 1233 1232 -1 1204 1288 1289 -1 1204 1289 1205 -1 1205 1281 1223 -1 1205 1289 1303 -1 1205 1303 1281 -1 1206 1207 1236 -1 1206 1208 1209 -1 1206 1209 1207 -1 1207 1235 1237 -1 1207 1237 1236 -1 1208 1290 1291 -1 1208 1291 1209 -1 1209 1285 1225 -1 1209 1291 1307 -1 1209 1307 1285 -1 1210 1211 1212 -1 1211 1213 1212 -1 1214 1215 1216 -1 1215 1217 1216 -1 1215 1227 1229 -1 1215 1229 1217 -1 1215 1241 1227 -1 1217 1229 1239 -1 1218 1220 1221 -1 1218 1221 1219 -1 1222 1223 1280 -1 1223 1281 1280 -1 1224 1225 1284 -1 1225 1285 1284 -1 1226 1227 1242 -1 1226 1228 1229 -1 1226 1229 1227 -1 1227 1241 1243 -1 1227 1243 1242 -1 1228 1318 1319 -1 1228 1319 1229 -1 1229 1315 1239 -1 1229 1319 1323 -1 1229 1323 1315 -1 1230 1232 1233 -1 1230 1233 1231 -1 1234 1236 1237 -1 1234 1237 1235 -1 1238 1239 1314 -1 1239 1315 1314 -1 1240 1242 1243 -1 1240 1243 1241 -1 1244 1245 1252 -1 1244 1246 1245 -1 1245 1246 1247 -1 1245 1247 1265 -1 1245 1253 1252 -1 1245 1265 1253 -1 1246 1272 1273 -1 1246 1273 1247 -1 1247 1271 1265 -1 1247 1273 1271 -1 1248 1249 1250 -1 1248 1262 1263 -1 1248 1263 1249 -1 1249 1251 1250 -1 1249 1263 1269 -1 1249 1269 1251 -1 1250 1251 1266 -1 1251 1267 1266 -1 1251 1269 1267 -1 1252 1253 1264 -1 1253 1265 1264 -1 1254 1255 1256 -1 1254 1282 1283 -1 1254 1283 1255 -1 1255 1257 1256 -1 1255 1283 1257 -1 1256 1257 1328 -1 1257 1283 1305 -1 1257 1305 1329 -1 1257 1329 1328 -1 1258 1259 1260 -1 1258 1286 1287 -1 1258 1287 1259 -1 1259 1261 1260 -1 1259 1287 1261 -1 1260 1261 1332 -1 1261 1287 1309 -1 1261 1309 1333 -1 1261 1333 1332 -1 1262 1268 1269 -1 1262 1269 1263 -1 1264 1265 1270 -1 1265 1271 1270 -1 1266 1267 1292 -1 1267 1269 1275 -1 1267 1275 1293 -1 1267 1293 1292 -1 1268 1274 1275 -1 1268 1275 1269 -1 1270 1271 1294 -1 1271 1273 1295 -1 1271 1295 1294 -1 1272 1340 1341 -1 1272 1341 1273 -1 1273 1313 1295 -1 1273 1341 1313 -1 1274 1300 1301 -1 1274 1301 1275 -1 1275 1301 1293 -1 1276 1277 1278 -1 1276 1316 1317 -1 1276 1317 1277 -1 1277 1279 1278 -1 1277 1317 1279 -1 1278 1279 1348 -1 1279 1317 1325 -1 1279 1325 1349 -1 1279 1349 1348 -1 1280 1281 1282 -1 1281 1283 1282 -1 1281 1303 1305 -1 1281 1305 1283 -1 1284 1285 1286 -1 1285 1287 1286 -1 1285 1307 1309 -1 1285 1309 1287 -1 1288 1302 1303 -1 1288 1303 1289 -1 1290 1306 1307 -1 1290 1307 1291 -1 1292 1293 1310 -1 1293 1301 1311 -1 1293 1311 1310 -1 1294 1295 1312 -1 1295 1313 1312 -1 1296 1297 1298 -1 1296 1342 1343 -1 1296 1343 1297 -1 1297 1299 1298 -1 1297 1343 1299 -1 1298 1299 1344 -1 1299 1343 1345 -1 1299 1345 1344 -1 1300 1320 1321 -1 1300 1321 1301 -1 1301 1321 1311 -1 1302 1304 1305 -1 1302 1305 1303 -1 1304 1326 1327 -1 1304 1327 1305 -1 1305 1327 1329 -1 1306 1308 1309 -1 1306 1309 1307 -1 1308 1330 1331 -1 1308 1331 1309 -1 1309 1331 1333 -1 1310 1311 1338 -1 1311 1321 1339 -1 1311 1339 1338 -1 1312 1313 1334 -1 1313 1335 1334 -1 1313 1341 1335 -1 1314 1315 1316 -1 1315 1317 1316 -1 1315 1323 1325 -1 1315 1325 1317 -1 1318 1322 1323 -1 1318 1323 1319 -1 1320 1336 1337 -1 1320 1337 1321 -1 1321 1337 1339 -1 1322 1324 1325 -1 1322 1325 1323 -1 1324 1346 1347 -1 1324 1347 1325 -1 1325 1347 1349 -1 1326 1328 1329 -1 1326 1329 1327 -1 1330 1332 1333 -1 1330 1333 1331 -1 1334 1335 1354 -1 1335 1341 1355 -1 1335 1355 1354 -1 1336 1350 1351 -1 1336 1351 1337 -1 1337 1351 1339 -1 1338 1339 1402 -1 1339 1351 1403 -1 1339 1403 1402 -1 1340 1372 1373 -1 1340 1373 1341 -1 1341 1373 1355 -1 1342 1358 1359 -1 1342 1359 1343 -1 1343 1353 1345 -1 1343 1357 1353 -1 1343 1359 1357 -1 1344 1345 1352 -1 1345 1353 1352 -1 1346 1348 1349 -1 1346 1349 1347 -1 1350 1368 1369 -1 1350 1369 1351 -1 1351 1369 1403 -1 1352 1353 1370 -1 1353 1357 1389 -1 1353 1371 1370 -1 1353 1389 1371 -1 1354 1355 1378 -1 1355 1373 1379 -1 1355 1379 1378 -1 1356 1357 1394 -1 1356 1388 1389 -1 1356 1389 1357 -1 1357 1359 1395 -1 1357 1395 1394 -1 1358 1380 1381 -1 1358 1381 1359 -1 1359 1381 1395 -1 1360 1361 1362 -1 1360 1410 1411 -1 1360 1411 1361 -1 1361 1363 1362 -1 1361 1385 1363 -1 1361 1411 1385 -1 1362 1363 1384 -1 1363 1385 1384 -1 1364 1365 1366 -1 1364 1386 1387 -1 1364 1387 1365 -1 1365 1367 1366 -1 1365 1387 1367 -1 1366 1367 1408 -1 1367 1387 1409 -1 1367 1409 1408 -1 1368 1374 1375 -1 1368 1375 1369 -1 1369 1375 1403 -1 1370 1371 1376 -1 1371 1377 1376 -1 1371 1389 1405 -1 1371 1405 1377 -1 1372 1406 1407 -1 1372 1407 1373 -1 1373 1407 1379 -1 1374 1382 1383 -1 1374 1383 1375 -1 1375 1383 1419 -1 1375 1419 1403 -1 1376 1377 1382 -1 1377 1383 1382 -1 1377 1405 1417 -1 1377 1417 1383 -1 1378 1379 1390 -1 1379 1391 1390 -1 1379 1407 1391 -1 1380 1392 1393 -1 1380 1393 1381 -1 1381 1393 1415 -1 1381 1415 1395 -1 1383 1417 1419 -1 1384 1385 1386 -1 1385 1387 1386 -1 1385 1397 1399 -1 1385 1399 1387 -1 1385 1411 1397 -1 1387 1399 1409 -1 1388 1404 1405 -1 1388 1405 1389 -1 1390 1391 1400 -1 1391 1401 1400 -1 1391 1407 1421 -1 1391 1421 1401 -1 1392 1400 1401 -1 1392 1401 1393 -1 1393 1401 1423 -1 1393 1423 1415 -1 1394 1395 1414 -1 1395 1415 1414 -1 1396 1397 1412 -1 1396 1398 1399 -1 1396 1399 1397 -1 1397 1411 1413 -1 1397 1413 1412 -1 1398 1442 1443 -1 1398 1443 1399 -1 1399 1439 1409 -1 1399 1443 1451 -1 1399 1451 1439 -1 1401 1421 1425 -1 1401 1425 1423 -1 1402 1403 1418 -1 1403 1419 1418 -1 1404 1416 1417 -1 1404 1417 1405 -1 1406 1420 1421 -1 1406 1421 1407 -1 1408 1409 1438 -1 1409 1439 1438 -1 1410 1412 1413 -1 1410 1413 1411 -1 1414 1415 1422 -1 1415 1423 1422 -1 1416 1418 1419 -1 1416 1419 1417 -1 1420 1424 1425 -1 1420 1425 1421 -1 1422 1423 1424 -1 1423 1425 1424 -1 1426 1427 1428 -1 1426 1440 1441 -1 1426 1441 1427 -1 1427 1429 1428 -1 1427 1441 1429 -1 1428 1429 1466 -1 1429 1441 1453 -1 1429 1453 1467 -1 1429 1467 1466 -1 1430 1431 1432 -1 1430 1512 1513 -1 1430 1513 1431 -1 1431 1433 1432 -1 1431 1447 1433 -1 1431 1513 1447 -1 1432 1433 1454 -1 1433 1447 1455 -1 1433 1455 1454 -1 1434 1435 1436 -1 1434 1444 1445 -1 1434 1445 1435 -1 1435 1437 1436 -1 1435 1445 1449 -1 1435 1449 1437 -1 1436 1437 1458 -1 1437 1449 1457 -1 1437 1457 1459 -1 1437 1459 1458 -1 1438 1439 1440 -1 1439 1441 1440 -1 1439 1451 1453 -1 1439 1453 1441 -1 1442 1450 1451 -1 1442 1451 1443 -1 1444 1448 1449 -1 1444 1449 1445 -1 1446 1447 1514 -1 1446 1460 1461 -1 1446 1461 1447 -1 1447 1461 1455 -1 1447 1513 1515 -1 1447 1515 1514 -1 1448 1456 1457 -1 1448 1457 1449 -1 1450 1452 1453 -1 1450 1453 1451 -1 1452 1464 1465 -1 1452 1465 1453 -1 1453 1465 1467 -1 1454 1455 1472 -1 1455 1461 1471 -1 1455 1471 1473 -1 1455 1473 1472 -1 1456 1462 1463 -1 1456 1463 1457 -1 1457 1463 1459 -1 1458 1459 1476 -1 1459 1463 1469 -1 1459 1469 1477 -1 1459 1477 1476 -1 1460 1470 1471 -1 1460 1471 1461 -1 1462 1468 1469 -1 1462 1469 1463 -1 1464 1466 1467 -1 1464 1467 1465 -1 1468 1474 1475 -1 1468 1475 1469 -1 1469 1475 1477 -1 1470 1482 1483 -1 1470 1483 1471 -1 1471 1483 1473 -1 1472 1473 1478 -1 1473 1479 1478 -1 1473 1483 1479 -1 1474 1480 1481 -1 1474 1481 1475 -1 1475 1481 1477 -1 1476 1477 1486 -1 1477 1481 1487 -1 1477 1487 1486 -1 1478 1479 1484 -1 1479 1483 1499 -1 1479 1485 1484 -1 1479 1499 1485 -1 1480 1488 1489 -1 1480 1489 1481 -1 1481 1489 1487 -1 1482 1498 1499 -1 1482 1499 1483 -1 1484 1485 1490 -1 1485 1491 1490 -1 1485 1499 1503 -1 1485 1503 1491 -1 1486 1487 1500 -1 1487 1489 1501 -1 1487 1501 1500 -1 1488 1492 1493 -1 1488 1493 1489 -1 1489 1493 1501 -1 1490 1491 1494 -1 1491 1495 1494 -1 1491 1503 1505 -1 1491 1505 1495 -1 1492 1496 1497 -1 1492 1497 1493 -1 1493 1497 1507 -1 1493 1507 1501 -1 1494 1495 1496 -1 1495 1497 1496 -1 1495 1505 1509 -1 1495 1509 1497 -1 1497 1509 1511 -1 1497 1511 1507 -1 1498 1502 1503 -1 1498 1503 1499 -1 1500 1501 1506 -1 1501 1507 1506 -1 1502 1504 1505 -1 1502 1505 1503 -1 1504 1508 1509 -1 1504 1509 1505 -1 1506 1507 1510 -1 1507 1511 1510 -1 1508 1510 1511 -1 1508 1511 1509 -1 1512 1514 1515 -1 1512 1515 1513 -1 "
						                >
							<Coordinate USE="coords_ME_OpenSCAD_Model" />
						</IndexedFaceSet>
					</Shape>
				</Group>
			</Transform>
		</Transform>
	</Scene>
</X3D>