<?xml version="1.0" encoding="UTF-8"?>
<!DOCTYPE X3D PUBLIC "ISO//Web3D//DTD X3D 3.0//EN" "http://www.web3d.org/specifications/x3d-3.0.dtd">
<X3D version="3.0" profile="Immersive" xmlns:xsd="http://www.w3.org/2001/XMLSchema-instance" xsd:noNamespaceSchemaLocation="http://www.web3d.org/specifications/x3d-3.0.xsd">
	<head>
		<meta name="filename" content="C04-25509A.x3d" />
		<meta name="created" content="2026-02-22 15:31:46" />
		<meta name="generator" content="Blender 5.0.1" />
		<meta name="translator" content="Web3D X3D/VRML2 format v2.5.1" />
	</head>
	<Scene>
		<NavigationInfo headlight="true"
		                visibilityLimit="0.0"
		                type='"EXAMINE", "ANY"'
		                avatarSize="0.25, 1.75, 0.75"
		                />
		<Transform DEF="OpenSCAD_Model_TRANSFORM"
		           translation="0.000000 0.000000 0.000000"
		           scale="0.001000 0.001000 0.001000"
		           rotation="-1.000000 0.000000 0.000000 1.570796"
		           >
			<Transform DEF="OpenSCAD_Model_ifs_TRANSFORM"
			           translation="0.000000 0.000000 0.000000"
			           scale="1.000000 1.000000 1.000000"
			           rotation="0.000000 1.000000 0.000000 0.000000"
			           >
				<Group DEF="group_ME_OpenSCAD_Model">
					<Shape>
						<Appearance>
							<Material DEF="MA_Color_1"
							          diffuseColor="0.000 0.000 0.000"
							          specularColor="0.401 0.401 0.401"
							          emissiveColor="0.000 0.000 0.000"
							          ambientIntensity="0.000"
							          shininess="0.500"
							          transparency="1.000"
							          />
						</Appearance>
						<IndexedFaceSet solid="false"
						                coordIndex="0 1 3 -1 0 2 1504 -1 0 3 2 -1 0 1502 1503 -1 0 1503 1 -1 0 1504 1502 -1 1 4 6 -1 1 6 16 -1 1 16 3 -1 1 45 47 -1 1 47 4 -1 1 61 63 -1 1 63 45 -1 1 99 61 -1 1 145 99 -1 1 1503 145 -1 2 3 1504 -1 3 8 10 -1 3 10 31 -1 3 12 21 -1 3 16 8 -1 3 19 12 -1 3 21 25 -1 3 25 35 -1 3 31 19 -1 3 35 43 -1 3 43 53 -1 3 53 1505 -1 3 1505 1504 -1 4 47 127 -1 4 127 131 -1 4 129 37 -1 4 131 141 -1 4 137 129 -1 4 141 137 -1 6 14 16 -1 8 16 17 -1 19 31 23 -1 23 31 33 -1 27 39 29 -1 29 39 51 -1 31 41 33 -1 31 65 107 -1 31 107 41 -1 37 51 39 -1 37 129 133 -1 37 133 51 -1 41 107 55 -1 45 63 49 -1 47 69 408 -1 47 135 127 -1 47 149 135 -1 47 193 149 -1 47 211 193 -1 47 257 211 -1 47 295 257 -1 47 321 295 -1 47 408 321 -1 49 63 77 -1 51 133 57 -1 53 71 1505 -1 55 107 73 -1 57 95 97 -1 57 97 111 -1 57 133 143 -1 57 143 187 -1 57 187 221 -1 57 221 95 -1 59 83 67 -1 63 75 77 -1 67 83 103 -1 67 91 93 -1 67 93 69 -1 67 103 91 -1 69 93 406 -1 69 406 408 -1 71 79 1505 -1 73 107 81 -1 79 89 1505 -1 81 107 171 -1 81 171 89 -1 85 101 121 -1 85 121 87 -1 87 121 105 -1 89 171 331 -1 89 331 476 -1 89 476 1505 -1 93 115 406 -1 95 221 165 -1 97 109 111 -1 99 145 147 -1 99 147 189 -1 99 189 191 -1 99 191 101 -1 101 191 121 -1 105 121 113 -1 113 117 119 -1 113 119 115 -1 113 121 117 -1 115 119 404 -1 115 404 440 -1 115 440 406 -1 119 183 404 -1 123 167 169 -1 123 169 125 -1 137 141 151 -1 139 205 181 -1 141 185 151 -1 145 1503 235 -1 151 185 195 -1 153 161 279 -1 153 279 157 -1 155 163 343 -1 155 343 159 -1 157 279 173 -1 159 343 175 -1 161 177 279 -1 163 179 343 -1 165 221 255 -1 165 255 289 -1 165 289 317 -1 165 317 386 -1 165 386 167 -1 167 329 169 -1 167 333 335 -1 167 335 329 -1 167 386 462 -1 167 462 333 -1 169 329 331 -1 169 331 171 -1 173 279 197 -1 175 343 199 -1 177 201 279 -1 179 203 285 -1 179 285 343 -1 181 205 251 -1 181 227 229 -1 181 229 183 -1 181 251 227 -1 183 229 402 -1 183 402 404 -1 185 213 195 -1 185 219 325 -1 185 259 213 -1 185 297 259 -1 185 325 327 -1 185 327 297 -1 197 279 223 -1 199 343 225 -1 201 215 279 -1 203 217 285 -1 207 237 319 -1 207 319 209 -1 209 303 269 -1 209 307 303 -1 209 319 307 -1 215 239 291 -1 215 291 279 -1 217 241 285 -1 219 253 325 -1 223 279 231 -1 225 281 233 -1 225 343 281 -1 229 305 402 -1 231 279 243 -1 233 281 245 -1 235 372 237 -1 235 1503 372 -1 237 372 319 -1 239 247 291 -1 241 249 285 -1 243 271 261 -1 243 279 271 -1 245 273 263 -1 245 281 273 -1 247 265 291 -1 249 267 285 -1 253 287 325 -1 265 275 291 -1 267 277 285 -1 275 283 291 -1 281 343 293 -1 283 299 311 -1 283 311 291 -1 285 301 343 -1 287 291 311 -1 287 311 313 -1 287 313 325 -1 289 293 315 -1 289 315 317 -1 293 343 315 -1 295 321 323 -1 295 323 337 -1 295 337 339 -1 295 339 299 -1 297 327 343 -1 297 343 301 -1 299 339 311 -1 303 307 309 -1 303 309 305 -1 305 309 524 -1 305 492 402 -1 305 524 526 -1 305 526 492 -1 309 370 524 -1 313 384 325 -1 315 343 344 -1 321 408 394 -1 325 384 398 -1 327 341 343 -1 329 335 350 -1 333 462 512 -1 333 512 514 -1 333 514 488 -1 335 348 350 -1 346 392 368 -1 352 396 354 -1 354 396 388 -1 356 374 358 -1 356 378 410 -1 356 410 426 -1 356 414 374 -1 356 426 442 -1 356 434 414 -1 356 442 450 -1 356 446 434 -1 356 450 446 -1 360 400 362 -1 362 400 694 -1 362 694 766 -1 362 766 390 -1 364 376 366 -1 364 380 412 -1 364 412 428 -1 364 416 376 -1 364 428 444 -1 364 436 416 -1 364 444 452 -1 364 448 436 -1 364 452 448 -1 368 392 464 -1 368 464 370 -1 370 464 616 -1 370 596 524 -1 370 616 618 -1 370 618 596 -1 372 1503 382 -1 382 520 454 -1 382 1503 520 -1 384 460 398 -1 388 396 430 -1 390 508 510 -1 390 510 432 -1 390 766 508 -1 394 408 498 -1 394 498 500 -1 394 500 502 -1 394 502 396 -1 396 502 430 -1 398 460 506 -1 398 506 570 -1 398 570 626 -1 398 626 400 -1 400 626 694 -1 404 438 440 -1 418 490 420 -1 420 490 482 -1 422 466 424 -1 422 468 516 -1 422 516 542 -1 422 518 466 -1 422 542 564 -1 422 546 518 -1 422 564 568 -1 422 566 546 -1 422 568 566 -1 430 502 456 -1 432 510 458 -1 456 502 534 -1 456 534 478 -1 458 510 538 -1 458 538 480 -1 460 484 504 -1 460 504 506 -1 462 486 512 -1 464 470 616 -1 470 532 548 -1 470 548 550 -1 470 550 616 -1 472 494 526 -1 472 496 474 -1 472 526 562 -1 472 528 496 -1 472 562 528 -1 476 586 642 -1 476 642 1505 -1 478 534 484 -1 480 512 486 -1 480 538 512 -1 482 490 544 -1 484 534 536 -1 484 536 504 -1 488 514 572 -1 488 572 630 -1 488 630 698 -1 488 636 638 -1 488 638 490 -1 488 698 826 -1 488 826 862 -1 488 862 910 -1 488 910 956 -1 488 956 636 -1 490 638 544 -1 492 526 494 -1 496 528 530 -1 496 530 498 -1 498 530 970 -1 498 576 500 -1 498 654 576 -1 498 666 654 -1 498 770 666 -1 498 816 770 -1 498 864 816 -1 498 918 864 -1 498 970 918 -1 508 766 824 -1 508 824 860 -1 508 860 908 -1 508 908 952 -1 508 952 580 -1 512 538 540 -1 520 1503 522 -1 522 604 592 -1 522 608 604 -1 522 614 608 -1 522 674 614 -1 522 1503 674 -1 526 560 562 -1 530 602 970 -1 532 574 548 -1 544 638 584 -1 550 606 700 -1 550 684 616 -1 550 700 684 -1 552 578 554 -1 554 578 654 -1 556 582 558 -1 558 582 656 -1 570 624 626 -1 570 646 624 -1 572 628 630 -1 572 650 628 -1 576 654 578 -1 580 656 582 -1 580 952 656 -1 584 638 680 -1 584 680 594 -1 586 612 640 -1 586 640 642 -1 588 598 618 -1 588 600 590 -1 588 618 634 -1 588 620 600 -1 588 634 620 -1 594 680 612 -1 596 618 598 -1 600 620 622 -1 600 622 602 -1 602 622 970 -1 604 608 610 -1 604 610 606 -1 606 610 808 -1 606 792 700 -1 606 808 810 -1 606 810 792 -1 610 664 808 -1 612 680 640 -1 618 632 634 -1 622 690 970 -1 624 646 648 -1 628 650 652 -1 636 956 958 -1 636 958 774 -1 638 678 680 -1 642 780 1505 -1 644 682 662 -1 656 952 670 -1 658 686 702 -1 658 688 660 -1 658 702 728 -1 658 704 688 -1 658 728 704 -1 662 682 730 -1 662 730 664 -1 664 730 960 -1 664 936 808 -1 664 960 936 -1 666 708 712 -1 666 712 668 -1 666 716 708 -1 666 736 716 -1 666 770 736 -1 668 712 692 -1 670 696 672 -1 670 710 714 -1 670 714 696 -1 670 718 710 -1 670 738 718 -1 670 772 738 -1 670 952 954 -1 670 954 772 -1 674 1503 676 -1 676 790 724 -1 676 1503 790 -1 684 700 702 -1 684 702 686 -1 688 704 706 -1 688 706 690 -1 690 706 968 -1 690 968 970 -1 692 712 732 -1 692 732 694 -1 694 732 766 -1 696 714 734 -1 696 734 698 -1 698 734 768 -1 698 768 826 -1 702 726 728 -1 706 798 968 -1 720 776 832 -1 720 778 722 -1 720 832 842 -1 720 842 778 -1 730 744 960 -1 740 750 898 -1 740 898 746 -1 742 752 896 -1 742 896 748 -1 744 802 804 -1 744 804 806 -1 744 806 960 -1 746 898 754 -1 748 896 756 -1 750 758 898 -1 752 760 896 -1 754 898 932 -1 754 932 984 -1 754 984 782 -1 756 896 784 -1 758 786 898 -1 760 788 896 -1 762 794 810 -1 762 796 764 -1 762 810 848 -1 762 812 796 -1 762 848 812 -1 772 954 818 -1 774 888 776 -1 774 958 982 -1 774 982 888 -1 776 844 832 -1 776 888 844 -1 778 842 882 -1 778 882 780 -1 780 882 976 -1 780 976 1070 -1 780 1070 1505 -1 782 984 828 -1 784 896 830 -1 786 820 898 -1 788 822 896 -1 790 1503 800 -1 792 810 794 -1 796 812 814 -1 796 814 798 -1 798 814 968 -1 800 902 872 -1 800 924 926 -1 800 926 950 -1 800 928 902 -1 800 950 928 -1 800 1503 924 -1 802 850 804 -1 806 904 960 -1 810 846 848 -1 814 942 968 -1 818 954 866 -1 820 838 898 -1 822 840 914 -1 822 914 896 -1 828 984 834 -1 830 896 836 -1 834 984 852 -1 836 896 854 -1 838 856 898 -1 840 858 914 -1 852 884 868 -1 852 894 884 -1 852 984 894 -1 854 886 870 -1 854 896 886 -1 856 874 898 -1 858 876 914 -1 866 954 920 -1 874 890 898 -1 876 892 914 -1 878 938 962 -1 878 940 880 -1 878 962 994 -1 878 964 940 -1 878 994 964 -1 892 900 914 -1 894 984 912 -1 900 934 956 -1 900 956 914 -1 902 928 930 -1 902 930 904 -1 904 930 960 -1 906 922 1184 -1 906 1184 916 -1 908 912 952 -1 910 914 956 -1 912 984 952 -1 916 1184 944 -1 918 970 984 -1 918 984 932 -1 920 954 972 -1 920 972 974 -1 920 974 988 -1 920 988 990 -1 920 990 934 -1 922 946 1184 -1 924 1503 1002 -1 926 948 950 -1 930 996 960 -1 934 990 956 -1 936 960 962 -1 936 962 938 -1 940 964 966 -1 940 966 942 -1 942 966 968 -1 944 1184 998 -1 946 1000 1184 -1 952 984 986 -1 954 1034 972 -1 958 1036 1232 -1 958 1066 982 -1 958 1138 1066 -1 958 1204 1138 -1 958 1232 1204 -1 960 996 1042 -1 962 992 994 -1 966 1048 968 -1 968 1048 1503 -1 968 1503 1050 -1 972 1034 1110 -1 972 1110 1146 -1 972 1146 1054 -1 978 1004 980 -1 980 1004 1118 -1 996 1086 1088 -1 996 1088 1042 -1 996 1114 1086 -1 998 1184 1072 -1 1000 1068 1184 -1 1002 1118 1004 -1 1002 1503 1118 -1 1006 1052 1008 -1 1008 1052 1038 -1 1010 1026 1012 -1 1010 1030 1058 -1 1010 1058 1074 -1 1010 1062 1026 -1 1010 1074 1090 -1 1010 1082 1062 -1 1010 1090 1098 -1 1010 1094 1082 -1 1010 1098 1094 -1 1014 1056 1016 -1 1016 1056 1040 -1 1018 1028 1020 -1 1018 1032 1060 -1 1018 1060 1076 -1 1018 1064 1028 -1 1018 1076 1092 -1 1018 1084 1064 -1 1018 1092 1100 -1 1018 1096 1084 -1 1018 1100 1096 -1 1022 1044 1024 -1 1024 1044 1334 -1 1024 1334 1352 -1 1024 1352 1394 -1 1024 1394 1046 -1 1036 1112 1232 -1 1038 1052 1078 -1 1040 1056 1080 -1 1042 1088 1162 -1 1042 1162 1044 -1 1044 1162 1172 -1 1044 1172 1224 -1 1044 1224 1264 -1 1044 1264 1334 -1 1046 1394 1414 -1 1046 1414 1048 -1 1048 1414 1452 -1 1048 1452 1503 -1 1050 1503 1052 -1 1052 1140 1142 -1 1052 1142 1078 -1 1052 1503 1140 -1 1054 1146 1208 -1 1054 1148 1150 -1 1054 1150 1056 -1 1054 1208 1242 -1 1054 1242 1148 -1 1056 1150 1080 -1 1068 1104 1198 -1 1068 1198 1184 -1 1070 1136 1505 -1 1072 1184 1102 -1 1078 1142 1106 -1 1080 1150 1108 -1 1086 1114 1116 -1 1102 1184 1124 -1 1104 1130 1198 -1 1106 1142 1174 -1 1106 1174 1120 -1 1108 1150 1178 -1 1108 1178 1122 -1 1110 1126 1144 -1 1110 1144 1146 -1 1112 1128 1152 -1 1112 1152 1154 -1 1112 1154 1232 -1 1118 1503 1132 -1 1120 1174 1176 -1 1120 1176 1126 -1 1122 1178 1128 -1 1124 1164 1156 -1 1124 1184 1164 -1 1126 1176 1144 -1 1128 1178 1180 -1 1128 1180 1152 -1 1130 1158 1198 -1 1132 1160 1134 -1 1132 1166 1168 -1 1132 1168 1202 -1 1132 1170 1160 -1 1132 1202 1170 -1 1132 1503 1166 -1 1136 1196 1505 -1 1140 1503 1216 -1 1148 1242 1220 -1 1154 1210 1232 -1 1158 1182 1198 -1 1160 1170 1172 -1 1160 1172 1162 -1 1166 1503 1226 -1 1168 1200 1202 -1 1182 1186 1198 -1 1186 1206 1198 -1 1188 1218 1190 -1 1190 1218 1274 -1 1192 1222 1194 -1 1194 1222 1276 -1 1196 1198 1236 -1 1196 1236 1505 -1 1198 1206 1282 -1 1198 1234 1236 -1 1198 1282 1284 -1 1198 1284 1234 -1 1204 1230 1206 -1 1204 1232 1230 -1 1206 1230 1238 -1 1206 1238 1386 -1 1206 1328 1282 -1 1206 1344 1328 -1 1206 1366 1344 -1 1206 1378 1366 -1 1206 1386 1378 -1 1208 1240 1242 -1 1208 1266 1240 -1 1210 1244 1246 -1 1210 1246 1232 -1 1210 1270 1244 -1 1212 1228 1214 -1 1214 1228 1304 -1 1216 1274 1218 -1 1216 1503 1274 -1 1220 1242 1276 -1 1220 1276 1222 -1 1224 1262 1264 -1 1224 1300 1262 -1 1226 1304 1228 -1 1226 1503 1304 -1 1232 1246 1258 -1 1234 1284 1248 -1 1236 1252 1505 -1 1238 1250 1298 -1 1238 1298 1320 -1 1238 1320 1340 -1 1238 1340 1364 -1 1238 1364 1376 -1 1238 1376 1386 -1 1240 1266 1268 -1 1242 1314 1276 -1 1244 1270 1272 -1 1246 1318 1258 -1 1248 1260 1254 -1 1248 1284 1330 -1 1248 1286 1260 -1 1248 1306 1286 -1 1248 1322 1306 -1 1248 1330 1338 -1 1248 1336 1322 -1 1248 1338 1356 -1 1248 1354 1336 -1 1248 1356 1362 -1 1248 1360 1354 -1 1248 1362 1368 -1 1248 1368 1360 -1 1250 1256 1280 -1 1250 1280 1298 -1 1252 1278 1505 -1 1258 1318 1326 -1 1262 1300 1302 -1 1274 1503 1288 -1 1276 1314 1292 -1 1278 1296 1505 -1 1288 1312 1290 -1 1288 1503 1312 -1 1292 1314 1503 -1 1292 1316 1294 -1 1292 1503 1316 -1 1296 1324 1505 -1 1304 1503 1308 -1 1308 1332 1310 -1 1308 1346 1348 -1 1308 1348 1372 -1 1308 1350 1332 -1 1308 1372 1350 -1 1308 1503 1346 -1 1312 1503 1314 -1 1316 1503 1318 -1 1318 1358 1326 -1 1318 1392 1358 -1 1318 1416 1392 -1 1318 1498 1416 -1 1318 1503 1498 -1 1324 1388 1505 -1 1332 1350 1352 -1 1332 1352 1334 -1 1342 1380 1374 -1 1346 1503 1396 -1 1348 1370 1372 -1 1374 1380 1400 -1 1374 1400 1390 -1 1382 1398 1384 -1 1384 1398 1428 -1 1388 1404 1422 -1 1388 1422 1505 -1 1390 1400 1464 -1 1390 1464 1402 -1 1392 1416 1418 -1 1392 1418 1406 -1 1394 1412 1414 -1 1394 1424 1412 -1 1396 1428 1398 -1 1396 1503 1428 -1 1400 1408 1464 -1 1402 1420 1404 -1 1402 1430 1420 -1 1402 1464 1470 -1 1402 1470 1476 -1 1402 1476 1480 -1 1402 1480 1430 -1 1404 1420 1422 -1 1406 1418 1440 -1 1406 1440 1410 -1 1408 1410 1458 -1 1408 1458 1464 -1 1410 1440 1458 -1 1412 1424 1426 -1 1422 1444 1505 -1 1428 1503 1436 -1 1430 1442 1434 -1 1430 1448 1442 -1 1430 1454 1448 -1 1430 1460 1454 -1 1430 1466 1460 -1 1430 1474 1466 -1 1430 1478 1474 -1 1430 1480 1482 -1 1430 1482 1478 -1 1432 1500 1446 -1 1436 1450 1438 -1 1436 1503 1450 -1 1444 1462 1505 -1 1446 1500 1456 -1 1450 1503 1452 -1 1456 1500 1468 -1 1462 1472 1505 -1 1468 1500 1484 -1 1472 1486 1505 -1 1484 1500 1505 -1 1484 1505 1488 -1 1486 1492 1505 -1 1488 1505 1490 -1 1490 1505 1494 -1 1492 1496 1505 -1 1494 1505 1496 -1 1498 1503 1500 -1 1500 1503 1505 -1 1502 1504 1503 -1 1503 1504 1505 -1 "
						                >
							<Coordinate DEF="coords_ME_OpenSCAD_Model"
							            point="0.000000 0.000000 0.000000 0.000000 0.000000 0.900000 0.000000 1.400000 0.000000 0.000000 1.400000 0.900000 0.345286 1.000000 0.900000 0.345286 1.000000 1.100000 0.345286 1.006469 0.900000 0.345286 1.006469 1.100000 0.345286 1.157217 0.900000 0.345286 1.157217 1.100000 0.345286 1.163686 0.900000 0.345286 1.163686 1.100000 0.362777 1.242781 0.900000 0.362777 1.242781 1.100000 0.366281 1.009765 0.900000 0.366281 1.009765 1.100000 0.366281 1.079503 0.900000 0.366281 1.154042 0.900000 0.366281 1.154042 1.100000 0.366786 1.221505 0.900000 0.366786 1.221505 1.100000 0.366845 1.264633 0.900000 0.366845 1.264633 1.100000 0.378816 1.203250 0.900000 0.378816 1.203250 1.100000 0.379049 1.282765 0.900000 0.379049 1.282765 1.100000 0.379097 1.009765 0.900000 0.379097 1.009765 1.100000 0.379097 1.140738 0.900000 0.379097 1.140738 1.100000 0.394844 1.163686 0.900000 0.394844 1.163686 1.100000 0.396894 1.190696 0.900000 0.396894 1.190696 1.100000 0.397186 1.294974 0.900000 0.397186 1.294974 1.100000 0.401068 1.000000 0.900000 0.401068 1.000000 1.100000 0.401068 1.006469 0.900000 0.401068 1.006469 1.100000 0.419040 1.186512 0.900000 0.419040 1.186512 1.100000 0.419040 1.299044 0.900000 0.419040 1.299044 1.100000 0.419717 0.287343 0.900000 0.419717 0.287343 1.100000 0.419717 0.290937 0.900000 0.419717 0.290937 1.100000 0.429956 0.285579 0.900000 0.429956 0.285579 1.100000 0.439030 1.000000 0.900000 0.439030 1.000000 1.100000 0.440892 1.294974 0.900000 0.440892 1.294974 1.100000 0.441183 1.190696 0.900000 0.441183 1.190696 1.100000 0.443302 1.000000 0.900000 0.443302 1.000000 1.100000 0.445960 0.285579 0.900000 0.445960 0.285579 1.100000 0.447452 0.200000 0.900000 0.447452 0.200000 1.100000 0.447452 0.203594 0.900000 0.447452 0.203594 1.100000 0.448063 1.039182 0.900000 0.448063 1.039182 1.100000 0.458166 0.287343 0.900000 0.458166 0.287343 1.100000 0.458166 0.290937 0.900000 0.458166 0.290937 1.100000 0.459024 1.282765 0.900000 0.459024 1.282765 1.100000 0.459257 1.203250 0.900000 0.459257 1.203250 1.100000 0.461896 0.205425 0.900000 0.461896 0.205425 1.100000 0.461896 0.235398 0.900000 0.461896 0.235398 1.100000 0.471233 1.264633 0.900000 0.471233 1.264633 1.100000 0.471291 1.221505 0.900000 0.471291 1.221505 1.100000 0.472068 0.243603 0.900000 0.472068 0.243603 1.100000 0.474984 0.205425 0.900000 0.474984 0.205425 1.100000 0.474984 0.235805 0.900000 0.474984 0.235805 1.100000 0.475302 1.242781 0.900000 0.475302 1.242781 1.100000 0.485359 0.287343 0.900000 0.485359 0.287343 1.100000 0.485359 0.290937 0.900000 0.485359 0.290937 1.100000 0.486635 1.000000 0.900000 0.486635 1.000000 1.100000 0.486635 1.006469 0.900000 0.486635 1.006469 1.100000 0.489428 0.200000 0.900000 0.489428 0.200000 1.100000 0.489428 0.203594 0.900000 0.489428 0.203594 1.100000 0.496887 0.285579 0.900000 0.496887 0.285579 1.100000 0.504957 0.285579 0.900000 0.504957 0.285579 1.100000 0.506165 1.163686 0.900000 0.506165 1.163686 1.100000 0.508606 1.009765 0.900000 0.508606 1.009765 1.100000 0.508606 1.140738 0.900000 0.508606 1.140738 1.100000 0.514925 0.287343 0.900000 0.514925 0.287343 1.100000 0.514925 0.290937 0.900000 0.514925 0.290937 1.100000 0.520018 0.287343 0.900000 0.520018 0.287343 1.100000 0.520018 0.290937 0.900000 0.520018 0.290937 1.100000 0.530257 0.285579 0.900000 0.530257 0.285579 1.100000 0.532042 1.009765 0.900000 0.532042 1.009765 1.100000 0.532042 1.154042 0.900000 0.532042 1.154042 1.100000 0.535514 0.644417 0.900000 0.535514 0.644417 1.100000 0.535514 0.844417 0.900000 0.535514 0.844417 1.100000 0.538480 0.665023 0.900000 0.538480 0.665023 1.100000 0.538480 0.865023 0.900000 0.538480 0.865023 1.100000 0.538599 0.625132 0.900000 0.538599 0.625132 1.100000 0.538599 0.825132 0.900000 0.538599 0.825132 1.100000 0.546261 0.285579 0.900000 0.546261 0.285579 1.100000 0.547381 0.679917 0.900000 0.547381 0.679917 1.100000 0.547381 0.879917 0.900000 0.547381 0.879917 1.100000 0.547753 0.200000 0.900000 0.547753 0.200000 1.100000 0.547753 0.203594 0.900000 0.547753 0.203594 1.100000 0.547856 0.610680 0.900000 0.547856 0.610680 1.100000 0.547856 0.810680 0.900000 0.547856 0.810680 1.100000 0.549687 0.644553 0.900000 0.549687 0.644553 1.100000 0.549687 0.844553 0.900000 0.549687 0.844553 1.100000 0.551687 0.663235 0.900000 0.551687 0.663235 1.100000 0.551687 0.863235 0.900000 0.551687 0.863235 1.100000 0.551780 0.627091 0.900000 0.551780 0.627091 1.100000 0.551780 0.827091 0.900000 0.551780 0.827091 1.100000 0.553037 1.000000 0.900000 0.553037 1.000000 1.100000 0.553037 1.006469 0.900000 0.553037 1.006469 1.100000 0.553037 1.157217 0.900000 0.553037 1.157217 1.100000 0.553037 1.163686 0.900000 0.553037 1.163686 1.100000 0.557689 0.676289 0.900000 0.557689 0.676289 1.100000 0.557689 0.876289 0.900000 0.557689 0.876289 1.100000 0.558062 0.614308 0.900000 0.558062 0.614308 1.100000 0.558062 0.814308 0.900000 0.558062 0.814308 1.100000 0.558467 0.287343 0.900000 0.558467 0.287343 1.100000 0.558467 0.290937 0.900000 0.558467 0.290937 1.100000 0.562113 0.688944 0.900000 0.562113 0.688944 1.100000 0.562113 0.888944 0.900000 0.562113 0.888944 1.100000 0.562197 0.205425 0.900000 0.562197 0.205425 1.100000 0.562197 0.235398 0.900000 0.562197 0.235398 1.100000 0.562639 0.601653 0.900000 0.562639 0.601653 1.100000 0.562639 0.801653 0.900000 0.562639 0.801653 1.100000 0.568047 0.683969 0.900000 0.568047 0.683969 1.100000 0.568047 0.883969 0.900000 0.568047 0.883969 1.100000 0.568344 0.606475 0.900000 0.568344 0.606475 1.100000 0.568344 0.806475 0.900000 0.568344 0.806475 1.100000 0.572369 0.243603 0.900000 0.572369 0.243603 1.100000 0.575285 0.205425 0.900000 0.575285 0.205425 1.100000 0.575285 0.235805 0.900000 0.575285 0.235805 1.100000 0.582305 0.598644 0.900000 0.582305 0.598644 1.100000 0.582305 0.798644 0.900000 0.582305 0.798644 1.100000 0.582441 0.603865 0.900000 0.582441 0.603865 1.100000 0.582441 0.803865 0.900000 0.582441 0.803865 1.100000 0.582576 0.691954 0.900000 0.582576 0.691954 1.100000 0.582576 0.891954 0.900000 0.582576 0.891954 1.100000 0.583119 0.686529 0.900000 0.583119 0.686529 1.100000 0.583119 0.886529 0.900000 0.583119 0.886529 1.100000 0.585660 0.287343 0.900000 0.585660 0.287343 1.100000 0.585660 0.290937 0.900000 0.585660 0.290937 1.100000 0.589569 0.686130 0.900000 0.589569 0.686130 1.100000 0.589569 0.886130 0.900000 0.589569 0.886130 1.100000 0.589729 0.200000 0.900000 0.589729 0.200000 1.100000 0.589729 0.203594 0.900000 0.589729 0.203594 1.100000 0.589950 0.604331 0.900000 0.589950 0.604331 1.100000 0.589950 0.804331 0.900000 0.589950 0.804331 1.100000 0.595901 0.684935 0.900000 0.595901 0.684935 1.100000 0.595901 0.884935 0.900000 0.595901 0.884935 1.100000 0.597020 0.605730 0.900000 0.597020 0.605730 1.100000 0.597020 0.805730 0.900000 0.597020 0.805730 1.100000 0.597188 0.285579 0.900000 0.597188 0.285579 1.100000 0.597274 0.691089 0.900000 0.597274 0.691089 1.100000 0.597274 0.891089 0.900000 0.597274 0.891089 1.100000 0.598901 0.599712 0.900000 0.598901 0.599712 1.100000 0.598901 0.799712 0.900000 0.598901 0.799712 1.100000 0.601792 0.683011 0.900000 0.601792 0.683011 1.100000 0.601792 0.883011 0.900000 0.601792 0.883011 1.100000 0.603157 0.607908 0.900000 0.603157 0.607908 1.100000 0.603157 0.807908 0.900000 0.603157 0.807908 1.100000 0.605258 0.285579 0.900000 0.605258 0.285579 1.100000 0.606921 0.680426 0.900000 0.606921 0.680426 1.100000 0.606921 0.880426 0.900000 0.606921 0.880426 1.100000 0.607870 0.610714 0.900000 0.607870 0.610714 1.100000 0.607870 0.810714 0.900000 0.607870 0.810714 1.100000 0.608955 0.668626 0.900000 0.608955 0.668626 1.100000 0.608955 0.868626 0.900000 0.608955 0.868626 1.100000 0.610379 0.624277 0.900000 0.610379 0.624277 1.100000 0.610379 0.824277 0.900000 0.610379 0.824277 1.100000 0.613024 0.688495 0.900000 0.613024 0.688495 1.100000 0.613024 0.888495 0.900000 0.613024 0.888495 1.100000 0.613431 0.668626 0.900000 0.613431 0.668626 1.100000 0.613431 0.868626 0.900000 0.613431 0.868626 1.100000 0.614380 0.602916 0.900000 0.614380 0.602916 1.100000 0.614380 0.802916 0.900000 0.614380 0.802916 1.100000 0.614787 0.624277 0.900000 0.614787 0.624277 1.100000 0.614787 0.824277 0.900000 0.614787 0.824277 1.100000 0.615226 0.287343 0.900000 0.615226 0.287343 1.100000 0.615226 0.290937 0.900000 0.615226 0.290937 1.100000 0.618895 0.287343 0.900000 0.618895 0.287343 1.100000 0.618895 0.290937 0.900000 0.618895 0.290937 1.100000 0.626457 0.687343 0.900000 0.626457 0.687343 1.100000 0.626457 0.690937 0.900000 0.626457 0.690937 1.100000 0.626457 0.887343 0.900000 0.626457 0.887343 1.100000 0.626457 0.890937 0.900000 0.626457 0.890937 1.100000 0.626829 0.285579 0.900000 0.626829 0.285579 1.100000 0.627339 0.600000 0.900000 0.627339 0.600000 1.100000 0.627339 0.603594 0.900000 0.627339 0.603594 1.100000 0.627339 0.800000 0.900000 0.627339 0.800000 1.100000 0.627339 0.803594 0.900000 0.627339 0.803594 1.100000 0.630077 1.157217 0.900000 0.630077 1.157217 1.100000 0.630077 1.163686 0.900000 0.630077 1.163686 1.100000 0.631664 1.000000 0.900000 0.631664 1.000000 1.100000 0.631664 1.006469 0.900000 0.631664 1.006469 1.100000 0.638121 0.605425 0.900000 0.638121 0.605425 1.100000 0.638121 0.685579 0.900000 0.638121 0.685579 1.100000 0.638121 0.805425 0.900000 0.638121 0.805425 1.100000 0.638121 0.841644 0.900000 0.638121 0.885579 0.900000 0.638121 0.885579 1.100000 0.640256 0.285579 0.900000 0.640256 0.285579 1.100000 0.651072 1.009765 0.900000 0.651072 1.009765 1.100000 0.651072 1.154042 0.900000 0.651072 1.154042 1.100000 0.651209 0.605425 0.900000 0.651209 0.605425 1.100000 0.651209 0.635669 0.900000 0.651209 0.635669 1.100000 0.651209 0.641773 0.900000 0.651209 0.641773 1.100000 0.651209 0.684833 0.900000 0.651209 0.684833 1.100000 0.651209 0.805425 0.900000 0.651209 0.805425 1.100000 0.651209 0.835669 0.900000 0.651209 0.835669 1.100000 0.651209 0.841773 0.900000 0.651209 0.841773 1.100000 0.651209 0.884833 0.900000 0.651209 0.884833 1.100000 0.653615 0.287343 0.900000 0.653615 0.287343 1.100000 0.653615 0.290937 0.900000 0.653615 0.290937 1.100000 0.656937 0.197898 0.900000 0.656937 0.197898 1.100000 0.657854 0.684833 0.900000 0.657854 0.684833 1.100000 0.657854 0.884833 0.900000 0.657854 0.884833 1.100000 0.658261 0.641773 0.900000 0.658261 0.641773 1.100000 0.658261 0.841773 0.900000 0.658261 0.841773 1.100000 0.660532 0.197898 0.900000 0.660532 0.197898 1.100000 0.660770 0.690937 0.900000 0.660770 0.690937 1.100000 0.660770 0.890937 0.900000 0.660770 0.890937 1.100000 0.661448 0.635669 0.900000 0.661448 0.635669 1.100000 0.661448 0.835669 0.900000 0.661448 0.835669 1.100000 0.661888 0.221497 0.900000 0.661888 0.221497 1.100000 0.665653 0.600000 0.900000 0.665653 0.600000 1.100000 0.665653 0.603594 0.900000 0.665653 0.603594 1.100000 0.665653 0.800000 0.900000 0.665653 0.800000 1.100000 0.665653 0.803594 0.900000 0.665653 0.803594 1.100000 0.666265 0.400000 0.900000 0.666265 0.400000 1.100000 0.666265 0.403594 0.900000 0.666265 0.403594 1.100000 0.666265 0.487343 0.900000 0.666265 0.487343 1.100000 0.666265 0.490937 0.900000 0.666265 0.490937 1.100000 0.668220 0.643078 0.900000 0.668220 0.643078 1.100000 0.668220 0.843078 0.900000 0.668220 0.843078 1.100000 0.668415 0.683629 0.900000 0.668415 0.683629 1.100000 0.668415 0.883629 0.900000 0.668415 0.883629 1.100000 0.674630 1.009765 0.900000 0.674630 1.009765 1.100000 0.674630 1.064204 0.900000 0.674630 1.064204 1.100000 0.674630 1.075191 0.900000 0.674630 1.075191 1.100000 0.674630 1.152699 0.900000 0.674630 1.152699 1.100000 0.675180 0.646994 0.900000 0.675180 0.646994 1.100000 0.675180 0.846994 0.900000 0.675180 0.846994 1.100000 0.675409 0.637483 0.900000 0.675409 0.637483 1.100000 0.675409 0.837483 0.900000 0.675409 0.837483 1.100000 0.675417 0.680018 0.900000 0.675417 0.680018 1.100000 0.675417 0.880018 0.900000 0.675417 0.880018 1.100000 0.677929 0.405425 0.900000 0.677929 0.405425 1.100000 0.677929 0.485579 0.900000 0.677929 0.485579 1.100000 0.679274 0.653860 0.900000 0.679274 0.653860 1.100000 0.679274 0.853860 0.900000 0.679274 0.853860 1.100000 0.679333 0.673610 0.900000 0.679333 0.673610 1.100000 0.679333 0.873610 0.900000 0.679333 0.873610 1.100000 0.680639 0.664015 0.900000 0.680639 0.664015 1.100000 0.680639 0.864015 0.900000 0.680639 0.864015 1.100000 0.684741 0.260557 0.900000 0.684741 0.260557 1.100000 0.685691 0.642925 0.900000 0.685691 0.642925 1.100000 0.685691 0.842925 0.900000 0.685691 0.842925 1.100000 0.685793 0.684240 0.900000 0.685793 0.684240 1.100000 0.685793 0.884240 0.900000 0.685793 0.884240 1.100000 0.686368 0.284562 0.900000 0.686368 0.284562 1.100000 0.686591 1.152699 0.900000 0.686591 1.152699 1.100000 0.687324 1.075191 0.900000 0.687324 1.075191 1.100000 0.689420 0.284562 0.900000 0.689420 0.284562 1.100000 0.690949 0.405425 0.900000 0.690949 0.405425 1.100000 0.690949 0.485579 0.900000 0.690949 0.485579 1.100000 0.691840 1.163686 0.900000 0.691840 1.163686 1.100000 0.692023 0.651859 0.900000 0.692023 0.651859 1.100000 0.692023 0.851859 0.900000 0.692023 0.851859 1.100000 0.693061 1.064204 0.900000 0.693061 1.064204 1.100000 0.694134 0.664151 0.900000 0.694134 0.664151 1.100000 0.694134 0.864151 0.900000 0.694134 0.864151 1.100000 0.700630 1.000000 0.900000 0.700630 1.000000 1.100000 0.700630 1.006469 0.900000 0.700630 1.006469 1.100000 0.702613 0.400000 0.900000 0.702613 0.400000 1.100000 0.702613 0.403594 0.900000 0.702613 0.403594 1.100000 0.702613 0.487343 0.900000 0.702613 0.487343 1.100000 0.702613 0.490937 0.900000 0.702613 0.490937 1.100000 0.703700 0.600000 0.900000 0.703700 0.600000 1.100000 0.703700 0.603594 0.900000 0.703700 0.603594 1.100000 0.703700 0.687343 0.900000 0.703700 0.687343 1.100000 0.703700 0.690937 0.900000 0.703700 0.690937 1.100000 0.703700 0.800000 0.900000 0.703700 0.800000 1.100000 0.703700 0.803594 0.900000 0.703700 0.803594 1.100000 0.703700 0.887343 0.900000 0.703700 0.887343 1.100000 0.703700 0.890937 0.900000 0.703700 0.890937 1.100000 0.705252 1.077540 0.900000 0.705252 1.077540 1.100000 0.705603 1.150532 0.900000 0.705603 1.150532 1.100000 0.708339 0.197898 0.900000 0.708339 0.197898 1.100000 0.711933 0.197898 0.900000 0.711933 0.197898 1.100000 0.712516 0.400000 0.900000 0.712516 0.400000 1.100000 0.712516 0.403594 0.900000 0.712516 0.403594 1.100000 0.712516 0.487343 0.900000 0.712516 0.487343 1.100000 0.712516 0.490937 0.900000 0.712516 0.490937 1.100000 0.713018 0.221497 0.900000 0.713018 0.221497 1.100000 0.715364 0.605425 0.900000 0.715364 0.605425 1.100000 0.715364 0.685579 0.900000 0.715364 0.685579 1.100000 0.715364 0.805425 0.900000 0.715364 0.805425 1.100000 0.715364 0.885579 0.900000 0.715364 0.885579 1.100000 0.717778 1.084589 0.900000 0.717778 1.084589 1.100000 0.718191 1.067469 0.900000 0.718191 1.067469 1.100000 0.718205 1.144032 0.900000 0.718205 1.144032 1.100000 0.719461 0.287343 0.900000 0.719461 0.287343 1.100000 0.719461 0.290937 0.900000 0.719461 0.290937 1.100000 0.722484 0.605425 0.900000 0.722484 0.605425 1.100000 0.722484 0.681782 0.900000 0.722484 0.681782 1.100000 0.722484 0.805425 0.900000 0.722484 0.805425 1.100000 0.722484 0.881782 0.900000 0.722484 0.881782 1.100000 0.724180 0.405425 0.900000 0.724180 0.405425 1.100000 0.724180 0.485579 0.900000 0.724180 0.485579 1.100000 0.725148 1.096948 0.900000 0.725148 1.096948 1.100000 0.725255 1.132498 0.900000 0.725255 1.132498 1.100000 0.727604 1.115227 0.900000 0.727604 1.115227 1.100000 0.731232 0.690937 0.900000 0.731232 0.690937 1.100000 0.731232 0.890937 0.900000 0.731232 0.890937 1.100000 0.733633 0.285579 0.900000 0.733633 0.285579 1.100000 0.734690 0.600000 0.900000 0.734690 0.600000 1.100000 0.734690 0.603594 0.900000 0.734690 0.603594 1.100000 0.734690 0.800000 0.900000 0.734690 0.800000 1.100000 0.734690 0.803594 0.900000 0.734690 0.803594 1.100000 0.736698 1.077265 0.900000 0.736698 1.077265 1.100000 0.736882 1.151632 0.900000 0.736882 1.151632 1.100000 0.737200 0.405425 0.900000 0.737200 0.405425 1.100000 0.737200 0.485579 0.900000 0.737200 0.485579 1.100000 0.741635 0.285579 0.900000 0.741635 0.285579 1.100000 0.748096 1.093347 0.900000 0.748096 1.093347 1.100000 0.748864 0.400000 0.900000 0.748864 0.400000 1.100000 0.748864 0.403594 0.900000 0.748864 0.403594 1.100000 0.748864 0.487343 0.900000 0.748864 0.487343 1.100000 0.748864 0.490937 0.900000 0.748864 0.490937 1.100000 0.749569 0.287343 0.900000 0.749569 0.287343 1.100000 0.749569 0.290937 0.900000 0.749569 0.290937 1.100000 0.749985 0.287343 0.900000 0.749985 0.287343 1.100000 0.749985 0.290937 0.900000 0.749985 0.290937 1.100000 0.751895 1.115471 0.900000 0.751895 1.115471 1.100000 0.757919 0.285579 0.900000 0.757919 0.285579 1.100000 0.758767 0.400000 0.900000 0.758767 0.400000 1.100000 0.758767 0.403594 0.900000 0.758767 0.403594 1.100000 0.758767 0.487343 0.900000 0.758767 0.487343 1.100000 0.758767 0.490937 0.900000 0.758767 0.490937 1.100000 0.765816 0.687343 0.900000 0.765816 0.687343 1.100000 0.765816 0.690937 0.900000 0.765816 0.690937 1.100000 0.765816 0.887343 0.900000 0.765816 0.887343 1.100000 0.765816 0.890937 0.900000 0.765816 0.890937 1.100000 0.770431 0.405425 0.900000 0.770431 0.405425 1.100000 0.770431 0.485579 0.900000 0.770431 0.485579 1.100000 0.770945 1.000000 0.900000 0.770945 1.000000 1.100000 0.770945 1.006469 0.900000 0.770945 1.006469 1.100000 0.770945 1.157217 0.900000 0.770945 1.157217 1.100000 0.770945 1.163686 0.900000 0.770945 1.163686 1.100000 0.771346 0.285579 0.900000 0.771346 0.285579 1.100000 0.778022 0.623599 0.900000 0.778022 0.623599 1.100000 0.778022 0.685579 0.900000 0.778022 0.685579 1.100000 0.778022 0.823599 0.900000 0.778022 0.823599 1.100000 0.778022 0.885579 0.900000 0.778022 0.885579 1.100000 0.778565 0.600000 0.900000 0.778565 0.600000 1.100000 0.778565 0.800000 0.900000 0.778565 0.800000 1.100000 0.783451 0.405425 0.900000 0.783451 0.405425 1.100000 0.783451 0.485579 0.900000 0.783451 0.485579 1.100000 0.784705 0.287343 0.900000 0.784705 0.287343 1.100000 0.784705 0.290937 0.900000 0.784705 0.290937 1.100000 0.785143 0.600000 0.900000 0.785143 0.600000 1.100000 0.785143 0.685579 0.900000 0.785143 0.685579 1.100000 0.785143 0.800000 0.900000 0.785143 0.800000 1.100000 0.785143 0.885579 0.900000 0.785143 0.885579 1.100000 0.788027 0.197898 0.900000 0.788027 0.197898 1.100000 0.791622 0.197898 0.900000 0.791622 0.197898 1.100000 0.791940 1.009765 0.900000 0.791940 1.009765 1.100000 0.791940 1.154042 0.900000 0.791940 1.154042 1.100000 0.792978 0.221497 0.900000 0.792978 0.221497 1.100000 0.795115 0.400000 0.900000 0.795115 0.400000 1.100000 0.795115 0.403594 0.900000 0.795115 0.403594 1.100000 0.795115 0.487343 0.900000 0.795115 0.487343 1.100000 0.795115 0.490937 0.900000 0.795115 0.490937 1.100000 0.796807 0.687343 0.900000 0.796807 0.687343 1.100000 0.796807 0.690937 0.900000 0.796807 0.690937 1.100000 0.796807 0.887343 0.900000 0.796807 0.887343 1.100000 0.796807 0.890937 0.900000 0.796807 0.890937 1.100000 0.805018 0.400000 0.900000 0.805018 0.400000 1.100000 0.805018 0.403594 0.900000 0.805018 0.403594 1.100000 0.805018 0.487343 0.900000 0.805018 0.487343 1.100000 0.805018 0.490937 0.900000 0.805018 0.490937 1.100000 0.805696 0.644417 0.900000 0.805696 0.644417 1.100000 0.805696 0.844417 0.900000 0.805696 0.844417 1.100000 0.808662 0.665023 0.900000 0.808662 0.665023 1.100000 0.808662 0.865023 0.900000 0.808662 0.865023 1.100000 0.808781 0.625132 0.900000 0.808781 0.625132 1.100000 0.808781 0.825132 0.900000 0.808781 0.825132 1.100000 0.815376 1.009765 0.900000 0.815376 1.009765 1.100000 0.815376 1.154042 0.900000 0.815376 1.154042 1.100000 0.815831 0.260557 0.900000 0.815831 0.260557 1.100000 0.816682 0.405425 0.900000 0.816682 0.405425 1.100000 0.816682 0.485579 0.900000 0.816682 0.485579 1.100000 0.817458 0.284562 0.900000 0.817458 0.284562 1.100000 0.817563 0.679917 0.900000 0.817563 0.679917 1.100000 0.817563 0.879917 0.900000 0.817563 0.879917 1.100000 0.818038 0.610680 0.900000 0.818038 0.610680 1.100000 0.818038 0.810680 0.900000 0.818038 0.810680 1.100000 0.819869 0.644553 0.900000 0.819869 0.644553 1.100000 0.819869 0.844553 0.900000 0.819869 0.844553 1.100000 0.820510 0.284562 0.900000 0.820510 0.284562 1.100000 0.821869 0.663235 0.900000 0.821869 0.663235 1.100000 0.821869 0.863235 0.900000 0.821869 0.863235 1.100000 0.821962 0.627091 0.900000 0.821962 0.627091 1.100000 0.821962 0.827091 0.900000 0.821962 0.827091 1.100000 0.827871 0.676289 0.900000 0.827871 0.676289 1.100000 0.827871 0.876289 0.900000 0.827871 0.876289 1.100000 0.828244 0.614308 0.900000 0.828244 0.614308 1.100000 0.828244 0.814308 0.900000 0.828244 0.814308 1.100000 0.829702 0.405425 0.900000 0.829702 0.405425 1.100000 0.829702 0.485579 0.900000 0.829702 0.485579 1.100000 0.832295 0.688944 0.900000 0.832295 0.688944 1.100000 0.832295 0.888944 0.900000 0.832295 0.888944 1.100000 0.832821 0.601653 0.900000 0.832821 0.601653 1.100000 0.832821 0.801653 0.900000 0.832821 0.801653 1.100000 0.836371 1.000000 0.900000 0.836371 1.000000 1.100000 0.836371 1.006469 0.900000 0.836371 1.006469 1.100000 0.836371 1.157217 0.900000 0.836371 1.157217 1.100000 0.836371 1.163686 0.900000 0.836371 1.163686 1.100000 0.838229 0.683969 0.900000 0.838229 0.683969 1.100000 0.838229 0.883969 0.900000 0.838229 0.883969 1.100000 0.838526 0.606475 0.900000 0.838526 0.606475 1.100000 0.838526 0.806475 0.900000 0.838526 0.806475 1.100000 0.839429 0.197898 0.900000 0.839429 0.197898 1.100000 0.841366 0.400000 0.900000 0.841366 0.400000 1.100000 0.841366 0.403594 0.900000 0.841366 0.403594 1.100000 0.841366 0.487343 0.900000 0.841366 0.487343 1.100000 0.841366 0.490937 0.900000 0.841366 0.490937 1.100000 0.843023 0.197898 0.900000 0.843023 0.197898 1.100000 0.844108 0.221497 0.900000 0.844108 0.221497 1.100000 0.850551 0.287343 0.900000 0.850551 0.287343 1.100000 0.850551 0.290937 0.900000 0.850551 0.290937 1.100000 0.851269 0.400000 0.900000 0.851269 0.400000 1.100000 0.851269 0.403594 0.900000 0.851269 0.403594 1.100000 0.851269 0.487343 0.900000 0.851269 0.487343 1.100000 0.851269 0.490937 0.900000 0.851269 0.490937 1.100000 0.852487 0.598644 0.900000 0.852487 0.598644 1.100000 0.852487 0.798644 0.900000 0.852487 0.798644 1.100000 0.852623 0.603865 0.900000 0.852623 0.603865 1.100000 0.852623 0.803865 0.900000 0.852623 0.803865 1.100000 0.852758 0.691954 0.900000 0.852758 0.691954 1.100000 0.852758 0.891954 0.900000 0.852758 0.891954 1.100000 0.853301 0.686529 0.900000 0.853301 0.686529 1.100000 0.853301 0.886529 0.900000 0.853301 0.886529 1.100000 0.855417 1.079950 0.900000 0.855417 1.079950 1.100000 0.859751 0.686130 0.900000 0.859751 0.686130 1.100000 0.859751 0.886130 0.900000 0.859751 0.886130 1.100000 0.860132 0.604331 0.900000 0.860132 0.604331 1.100000 0.860132 0.804331 0.900000 0.860132 0.804331 1.100000 0.860757 1.117042 0.900000 0.860757 1.117042 1.100000 0.860971 1.045239 0.900000 0.860971 1.045239 1.100000 0.862933 0.405425 0.900000 0.862933 0.405425 1.100000 0.862933 0.485579 0.900000 0.862933 0.485579 1.100000 0.864723 0.285579 0.900000 0.864723 0.285579 1.100000 0.866083 0.684935 0.900000 0.866083 0.684935 1.100000 0.866083 0.884935 0.900000 0.866083 0.884935 1.100000 0.867202 0.605730 0.900000 0.867202 0.605730 1.100000 0.867202 0.805730 0.900000 0.867202 0.805730 1.100000 0.867456 0.691089 0.900000 0.867456 0.691089 1.100000 0.867456 0.891089 0.900000 0.867456 0.891089 1.100000 0.869083 0.599712 0.900000 0.869083 0.599712 1.100000 0.869083 0.799712 0.900000 0.869083 0.799712 1.100000 0.871974 0.683011 0.900000 0.871974 0.683011 1.100000 0.871974 0.883011 0.900000 0.871974 0.883011 1.100000 0.872725 0.285579 0.900000 0.872725 0.285579 1.100000 0.873339 0.607908 0.900000 0.873339 0.607908 1.100000 0.873339 0.807908 0.900000 0.873339 0.807908 1.100000 0.875953 0.405425 0.900000 0.875953 0.405425 1.100000 0.875953 0.485579 0.900000 0.875953 0.485579 1.100000 0.876778 1.143850 0.900000 0.876778 1.143850 1.100000 0.877103 0.680426 0.900000 0.877103 0.680426 1.100000 0.877103 0.880426 0.900000 0.877103 0.880426 1.100000 0.877633 1.019224 0.900000 0.877633 1.019224 1.100000 0.878052 0.610714 0.900000 0.878052 0.610714 1.100000 0.878052 0.810714 0.900000 0.878052 0.810714 1.100000 0.879137 0.668626 0.900000 0.879137 0.668626 1.100000 0.879137 0.868626 0.900000 0.879137 0.868626 1.100000 0.880561 0.624277 0.900000 0.880561 0.624277 1.100000 0.880561 0.824277 0.900000 0.880561 0.824277 1.100000 0.880659 0.287343 0.900000 0.880659 0.287343 1.100000 0.880659 0.290937 0.900000 0.880659 0.290937 1.100000 0.880928 1.080195 0.900000 0.880928 1.080195 1.100000 0.883206 0.688495 0.900000 0.883206 0.688495 1.100000 0.883206 0.888495 0.900000 0.883206 0.888495 1.100000 0.883613 0.668626 0.900000 0.883613 0.668626 1.100000 0.883613 0.868626 0.900000 0.883613 0.868626 1.100000 0.884529 1.113822 0.900000 0.884529 1.113822 1.100000 0.884562 0.602916 0.900000 0.884562 0.602916 1.100000 0.884562 0.802916 0.900000 0.884562 0.802916 1.100000 0.884697 1.048764 0.900000 0.884697 1.048764 1.100000 0.884940 0.200000 0.900000 0.884940 0.200000 1.100000 0.884940 0.203594 0.900000 0.884940 0.203594 1.100000 0.884940 0.287343 0.900000 0.884940 0.287343 1.100000 0.884940 0.290937 0.900000 0.884940 0.290937 1.100000 0.884969 0.624277 0.900000 0.884969 0.624277 1.100000 0.884969 0.824277 0.900000 0.884969 0.824277 1.100000 0.887617 0.400000 0.900000 0.887617 0.400000 1.100000 0.887617 0.403594 0.900000 0.887617 0.403594 1.100000 0.887617 0.487343 0.900000 0.887617 0.487343 1.100000 0.887617 0.490937 0.900000 0.887617 0.490937 1.100000 0.895332 1.137320 0.900000 0.895332 1.137320 1.100000 0.896003 1.025754 0.900000 0.896003 1.025754 1.100000 0.896604 0.205425 0.900000 0.896604 0.205425 1.100000 0.896604 0.285579 0.900000 0.896604 0.285579 1.100000 0.896639 0.687343 0.900000 0.896639 0.687343 1.100000 0.896639 0.690937 0.900000 0.896639 0.690937 1.100000 0.896639 0.887343 0.900000 0.896639 0.887343 1.100000 0.896639 0.890937 0.900000 0.896639 0.890937 1.100000 0.897520 0.400000 0.900000 0.897520 0.400000 1.100000 0.897520 0.403594 0.900000 0.897520 0.403594 1.100000 0.897520 0.487343 0.900000 0.897520 0.487343 1.100000 0.897520 0.490937 0.900000 0.897520 0.490937 1.100000 0.897521 0.600000 0.900000 0.897521 0.600000 1.100000 0.897521 0.603594 0.900000 0.897521 0.603594 1.100000 0.897521 0.800000 0.900000 0.897521 0.800000 1.100000 0.897521 0.803594 0.900000 0.897521 0.803594 1.100000 0.903297 1.160100 0.900000 0.903297 1.160100 1.100000 0.903724 0.205425 0.900000 0.903724 0.205425 1.100000 0.903724 0.281782 0.900000 0.903724 0.281782 1.100000 0.904242 1.002975 0.900000 0.904242 1.002975 1.100000 0.908303 0.605425 0.900000 0.908303 0.605425 1.100000 0.908303 0.685579 0.900000 0.908303 0.685579 1.100000 0.908303 0.805425 0.900000 0.908303 0.805425 1.100000 0.908303 0.885579 0.900000 0.908303 0.885579 1.100000 0.909184 0.405425 0.900000 0.909184 0.405425 1.100000 0.909184 0.485579 0.900000 0.909184 0.485579 1.100000 0.912472 0.290937 0.900000 0.912472 0.290937 1.100000 0.913977 1.151144 0.900000 0.913977 1.151144 1.100000 0.914512 1.011656 0.900000 0.914512 1.011656 1.100000 0.915930 0.200000 0.900000 0.915930 0.200000 1.100000 0.915930 0.203594 0.900000 0.915930 0.203594 1.100000 0.921391 0.605425 0.900000 0.921391 0.605425 1.100000 0.921391 0.635669 0.900000 0.921391 0.635669 1.100000 0.921391 0.641773 0.900000 0.921391 0.641773 1.100000 0.921391 0.684833 0.900000 0.921391 0.684833 1.100000 0.921391 0.805425 0.900000 0.921391 0.805425 1.100000 0.921391 0.835669 0.900000 0.921391 0.835669 1.100000 0.921391 0.841773 0.900000 0.921391 0.841773 1.100000 0.921391 0.884833 0.900000 0.921391 0.884833 1.100000 0.922204 0.405425 0.900000 0.922204 0.405425 1.100000 0.922204 0.485579 0.900000 0.922204 0.485579 1.100000 0.928036 0.684833 0.900000 0.928036 0.684833 1.100000 0.928036 0.884833 0.900000 0.928036 0.884833 1.100000 0.928443 0.641773 0.900000 0.928443 0.641773 1.100000 0.928443 0.841773 0.900000 0.928443 0.841773 1.100000 0.930952 0.690937 0.900000 0.930952 0.690937 1.100000 0.930952 0.890937 0.900000 0.930952 0.890937 1.100000 0.931630 0.635669 0.900000 0.931630 0.635669 1.100000 0.931630 0.835669 0.900000 0.931630 0.835669 1.100000 0.933868 0.400000 0.900000 0.933868 0.400000 1.100000 0.933868 0.403594 0.900000 0.933868 0.403594 1.100000 0.933868 0.487343 0.900000 0.933868 0.487343 1.100000 0.933868 0.490937 0.900000 0.933868 0.490937 1.100000 0.935835 0.600000 0.900000 0.935835 0.600000 1.100000 0.935835 0.603594 0.900000 0.935835 0.603594 1.100000 0.935835 0.800000 0.900000 0.935835 0.800000 1.100000 0.935835 0.803594 0.900000 0.935835 0.803594 1.100000 0.938402 0.643078 0.900000 0.938402 0.643078 1.100000 0.938402 0.843078 0.900000 0.938402 0.843078 1.100000 0.938597 0.683629 0.900000 0.938597 0.683629 1.100000 0.938597 0.883629 0.900000 0.938597 0.883629 1.100000 0.939641 0.997559 0.900000 0.939641 0.997559 1.100000 0.939886 1.006957 0.900000 0.939886 1.006957 1.100000 0.940129 1.165517 0.900000 0.940129 1.165517 1.100000 0.941106 1.155752 0.900000 0.941106 1.155752 1.100000 0.945362 0.646994 0.900000 0.945362 0.646994 1.100000 0.945362 0.846994 0.900000 0.945362 0.846994 1.100000 0.945591 0.637483 0.900000 0.945591 0.637483 1.100000 0.945591 0.837483 0.900000 0.945591 0.837483 1.100000 0.945599 0.680018 0.900000 0.945599 0.680018 1.100000 0.945599 0.880018 0.900000 0.945599 0.880018 1.100000 0.947056 0.287343 0.900000 0.947056 0.287343 1.100000 0.947056 0.290937 0.900000 0.947056 0.290937 1.100000 0.949456 0.653860 0.900000 0.949456 0.653860 1.100000 0.949456 0.853860 0.900000 0.949456 0.853860 1.100000 0.949515 0.673610 0.900000 0.949515 0.673610 1.100000 0.949515 0.873610 0.900000 0.949515 0.873610 1.100000 0.950821 0.664015 0.900000 0.950821 0.664015 1.100000 0.950821 0.864015 0.900000 0.950821 0.864015 1.100000 0.952717 1.155034 0.900000 0.952717 1.155034 1.100000 0.953403 1.007796 0.900000 0.953403 1.007796 1.100000 0.955873 0.642925 0.900000 0.955873 0.642925 1.100000 0.955873 0.842925 0.900000 0.955873 0.842925 1.100000 0.955975 0.684240 0.900000 0.955975 0.684240 1.100000 0.955975 0.884240 0.900000 0.955975 0.884240 1.100000 0.959262 0.223599 0.900000 0.959262 0.223599 1.100000 0.959262 0.285579 0.900000 0.959262 0.285579 1.100000 0.959805 0.200000 0.900000 0.959805 0.200000 1.100000 0.962205 0.651859 0.900000 0.962205 0.651859 1.100000 0.962205 0.851859 0.900000 0.962205 0.851859 1.100000 0.964114 1.152883 0.900000 0.964114 1.152883 1.100000 0.964316 0.664151 0.900000 0.964316 0.664151 1.100000 0.964316 0.864151 0.900000 0.964316 0.864151 1.100000 0.966128 1.010314 0.900000 0.966128 1.010314 1.100000 0.966383 0.200000 0.900000 0.966383 0.200000 1.100000 0.966383 0.285579 0.900000 0.966383 0.285579 1.100000 0.966586 1.163960 0.900000 0.966586 1.163960 1.100000 0.969515 0.999481 0.900000 0.969515 0.999481 1.100000 0.973882 0.600000 0.900000 0.973882 0.600000 1.100000 0.973882 0.603594 0.900000 0.973882 0.603594 1.100000 0.973882 0.687343 0.900000 0.973882 0.687343 1.100000 0.973882 0.690937 0.900000 0.973882 0.690937 1.100000 0.973882 0.800000 0.900000 0.973882 0.800000 1.100000 0.973882 0.803594 0.900000 0.973882 0.803594 1.100000 0.973882 0.887343 0.900000 0.973882 0.887343 1.100000 0.973882 0.890937 0.900000 0.973882 0.890937 1.100000 0.974718 1.149420 0.900000 0.974718 1.149420 1.100000 0.977174 1.014235 0.900000 0.977174 1.014235 1.100000 0.978047 0.287343 0.900000 0.978047 0.287343 1.100000 0.978047 0.290937 0.900000 0.978047 0.290937 1.100000 0.983950 1.144766 0.900000 0.983950 1.144766 1.100000 0.985241 0.200000 0.900000 0.985241 0.200000 1.100000 0.985241 0.203594 0.900000 0.985241 0.203594 1.100000 0.985241 0.287343 0.900000 0.985241 0.287343 1.100000 0.985241 0.290937 0.900000 0.985241 0.290937 1.100000 0.985546 0.605425 0.900000 0.985546 0.605425 1.100000 0.985546 0.685579 0.900000 0.985546 0.685579 1.100000 0.985546 0.805425 0.900000 0.985546 0.805425 1.100000 0.985546 0.885579 0.900000 0.985546 0.885579 1.100000 0.985658 1.019285 0.900000 0.985658 1.019285 1.100000 0.987611 1.123526 0.900000 0.987611 1.123526 1.100000 0.990174 1.043698 0.900000 0.990174 1.043698 1.100000 0.992666 0.605425 0.900000 0.992666 0.605425 1.100000 0.992666 0.681782 0.900000 0.992666 0.681782 1.100000 0.992666 0.805425 0.900000 0.992666 0.805425 1.100000 0.992666 0.881782 0.900000 0.992666 0.881782 1.100000 0.994935 1.159291 0.900000 0.994935 1.159291 1.100000 0.995668 1.123526 0.900000 0.995668 1.123526 1.100000 0.996905 0.205425 0.900000 0.996905 0.205425 1.100000 0.996905 0.285579 0.900000 0.996905 0.285579 1.100000 0.997376 1.005248 0.900000 0.997376 1.005248 1.100000 0.998108 1.043698 0.900000 0.998108 1.043698 1.100000 1.001413 0.690937 0.900000 1.001413 0.690937 1.100000 1.001413 0.890937 0.900000 1.001413 0.890937 1.100000 1.004025 0.205425 0.900000 1.004025 0.205425 1.100000 1.004025 0.281782 0.900000 1.004025 0.281782 1.100000 1.004871 0.600000 0.900000 1.004871 0.600000 1.100000 1.004871 0.603594 0.900000 1.004871 0.603594 1.100000 1.004871 0.800000 0.900000 1.004871 0.800000 1.100000 1.004871 0.803594 0.900000 1.004871 0.803594 1.100000 1.012773 0.290937 0.900000 1.012773 0.290937 1.100000 1.016231 0.200000 0.900000 1.016231 0.200000 1.100000 1.016231 0.203594 0.900000 1.016231 0.203594 1.100000 1.023875 1.037229 0.900000 1.023875 1.037229 1.100000 1.025218 1.002808 0.900000 1.025218 1.002808 1.100000 1.028879 1.128775 0.900000 1.028879 1.128775 1.100000 1.028879 1.160268 0.900000 1.028879 1.160268 1.100000 1.031930 1.037229 0.900000 1.031930 1.037229 1.100000 1.035998 0.687343 0.900000 1.035998 0.687343 1.100000 1.035998 0.690937 0.900000 1.035998 0.690937 1.100000 1.035998 0.887343 0.900000 1.035998 0.887343 1.100000 1.035998 0.890937 0.900000 1.035998 0.890937 1.100000 1.036936 1.128775 0.900000 1.036936 1.128775 1.100000 1.037424 1.014281 0.900000 1.037424 1.014281 1.100000 1.040139 1.162907 0.900000 1.040139 1.162907 1.100000 1.041208 1.148793 0.900000 1.041208 1.148793 1.100000 1.043176 1.011778 0.900000 1.043176 1.011778 1.100000 1.046579 0.998871 0.900000 1.046579 0.998871 1.100000 1.047006 1.151433 0.900000 1.047006 1.151433 1.100000 1.047357 0.287343 0.900000 1.047357 0.287343 1.100000 1.047357 0.290937 0.900000 1.047357 0.290937 1.100000 1.048203 0.623599 0.900000 1.048203 0.623599 1.100000 1.048203 0.685579 0.900000 1.048203 0.685579 1.100000 1.048203 0.823599 0.900000 1.048203 0.823599 1.100000 1.048203 0.885579 0.900000 1.048203 0.885579 1.100000 1.048747 0.600000 0.900000 1.048747 0.600000 1.100000 1.048747 0.800000 0.900000 1.048747 0.800000 1.100000 1.049750 1.164478 0.900000 1.049750 1.164478 1.100000 1.050911 1.009642 0.900000 1.050911 1.009642 1.100000 1.052681 1.080438 0.900000 1.052681 1.080438 1.100000 1.052681 1.090448 0.900000 1.052681 1.090448 1.100000 1.053658 1.153493 0.900000 1.053658 1.153493 1.100000 1.055325 0.600000 0.900000 1.055325 0.600000 1.100000 1.055325 0.685579 0.900000 1.055325 0.685579 1.100000 1.055325 0.800000 0.900000 1.055325 0.800000 1.100000 1.055325 0.885579 0.900000 1.055325 0.885579 1.100000 1.058509 1.165257 0.900000 1.058509 1.165257 1.100000 1.059349 1.008177 0.900000 1.059349 1.008177 1.100000 1.059563 0.223599 0.900000 1.059563 0.223599 1.100000 1.059563 0.285579 0.900000 1.059563 0.285579 1.100000 1.060106 0.200000 0.900000 1.060106 0.200000 1.100000 1.060585 1.154821 0.900000 1.060585 1.154821 1.100000 1.066684 0.200000 0.900000 1.066684 0.200000 1.100000 1.066684 0.285579 0.900000 1.066684 0.285579 1.100000 1.066989 0.687343 0.900000 1.066989 0.687343 1.100000 1.066989 0.690937 0.900000 1.066989 0.690937 1.100000 1.066989 0.887343 0.900000 1.066989 0.887343 1.100000 1.066989 0.890937 0.900000 1.066989 0.890937 1.100000 1.067207 1.007689 0.900000 1.067207 1.007689 1.100000 1.067207 1.155264 0.900000 1.067207 1.155264 1.100000 1.067207 1.165517 0.900000 1.067207 1.165517 1.100000 1.069160 0.997559 0.900000 1.069160 0.997559 1.100000 1.070137 1.079462 0.900000 1.070137 1.079462 1.100000 1.070137 1.091546 0.900000 1.070137 1.091546 1.100000 1.078348 0.287343 0.900000 1.078348 0.287343 1.100000 1.078348 0.290937 0.900000 1.078348 0.290937 1.100000 1.080710 1.153387 0.900000 1.080710 1.153387 1.100000 1.082129 1.094048 0.900000 1.082129 1.094048 1.100000 1.083869 1.009886 0.900000 1.083869 1.009886 1.100000 1.083929 1.085687 0.900000 1.083929 1.085687 1.100000 1.085516 1.076731 0.900000 1.085516 1.076731 1.100000 1.085542 0.200000 0.900000 1.085542 0.200000 1.100000 1.085542 0.203594 0.900000 1.085542 0.203594 1.100000 1.085542 0.287343 0.900000 1.085542 0.287343 1.100000 1.085542 0.290937 0.900000 1.085542 0.290937 1.100000 1.089971 1.147756 0.900000 1.089971 1.147756 1.100000 1.090520 1.100090 0.900000 1.090520 1.100090 1.100000 1.093725 1.000671 0.900000 1.093725 1.000671 1.100000 1.095327 1.138007 0.900000 1.095327 1.138007 1.100000 1.095464 1.109917 0.900000 1.095464 1.109917 1.100000 1.095526 1.016477 0.900000 1.095526 1.016477 1.100000 1.096257 1.070246 0.900000 1.096257 1.070246 1.100000 1.097112 1.123771 0.900000 1.097112 1.123771 1.100000 1.097206 0.205425 0.900000 1.097206 0.205425 1.100000 1.097206 0.285579 0.900000 1.097206 0.285579 1.100000 1.099080 1.090036 0.900000 1.099080 1.090036 1.100000 1.102392 1.028196 0.900000 1.102392 1.028196 1.100000 1.102575 1.059948 0.900000 1.102575 1.059948 1.100000 1.103215 1.081216 0.900000 1.103215 1.081216 1.100000 1.104326 0.205425 0.900000 1.104326 0.205425 1.100000 1.104326 0.281782 0.900000 1.104326 0.281782 1.100000 1.104681 1.045774 0.900000 1.104681 1.045774 1.100000 1.106571 1.155447 0.900000 1.106571 1.155447 1.100000 1.110355 1.098199 0.900000 1.110355 1.098199 1.100000 1.112003 1.010009 0.900000 1.112003 1.010009 1.100000 1.113074 0.290937 0.900000 1.113074 0.290937 1.100000 1.116532 0.200000 0.900000 1.116532 0.200000 1.100000 1.116532 0.203594 0.900000 1.116532 0.203594 1.100000 1.116642 1.072932 0.900000 1.116642 1.072932 1.100000 1.117358 1.109993 0.900000 1.117358 1.109993 1.100000 1.119693 1.125236 0.900000 1.119693 1.125236 1.100000 1.123356 1.024871 0.900000 1.123356 1.024871 1.100000 1.124515 1.060741 0.900000 1.124515 1.060741 1.100000 1.127140 1.044553 0.900000 1.127140 1.044553 1.100000 1.147658 0.287343 0.900000 1.147658 0.287343 1.100000 1.147658 0.290937 0.900000 1.147658 0.290937 1.100000 1.147899 1.000000 0.900000 1.147899 1.000000 1.100000 1.147899 1.017942 0.900000 1.147899 1.017942 1.100000 1.153393 1.128775 0.900000 1.153393 1.128775 1.100000 1.153393 1.160268 0.900000 1.153393 1.160268 1.100000 1.159864 0.223599 0.900000 1.159864 0.223599 1.100000 1.159864 0.285579 0.900000 1.159864 0.285579 1.100000 1.160407 0.200000 0.900000 1.160407 0.200000 1.100000 1.161448 1.128775 0.900000 1.161448 1.128775 1.100000 1.163890 1.018797 0.900000 1.163890 1.018797 1.100000 1.165721 1.148793 0.900000 1.165721 1.148793 1.100000 1.166985 0.200000 0.900000 1.166985 0.200000 1.100000 1.166985 0.285579 0.900000 1.166985 0.285579 1.100000 1.170602 1.038572 0.900000 1.170602 1.038572 1.100000 1.171366 1.151433 0.900000 1.171366 1.151433 1.100000 1.173930 1.164205 0.900000 1.173930 1.164205 1.100000 1.175760 1.029447 0.900000 1.175760 1.029447 1.100000 1.177804 1.153493 0.900000 1.177804 1.153493 1.100000 1.178649 0.287343 0.900000 1.178649 0.287343 1.100000 1.178649 0.290937 0.900000 1.178649 0.290937 1.100000 1.184549 1.154821 0.900000 1.184549 1.154821 1.100000 1.186959 1.039182 0.900000 1.186959 1.039182 1.100000 1.189553 1.055904 0.900000 1.189553 1.055904 1.100000 1.191110 1.155264 0.900000 1.191110 1.155264 1.100000 1.191110 1.165517 0.900000 1.191110 1.165517 1.100000 1.202705 1.069575 0.900000 1.202705 1.069575 1.100000 1.205178 1.153189 0.900000 1.205178 1.153189 1.100000 1.208747 1.058392 0.900000 1.208747 1.058392 1.100000 1.211509 1.081598 0.900000 1.211509 1.081598 1.100000 1.214622 1.162725 0.900000 1.214622 1.162725 1.100000 1.214668 1.146962 0.900000 1.214668 1.146962 1.100000 1.217413 1.093987 0.900000 1.217413 1.093987 1.100000 1.220070 1.136770 0.900000 1.220070 1.136770 1.100000 1.220756 1.107475 0.900000 1.220756 1.107475 1.100000 1.221870 1.122794 0.900000 1.221870 1.122794 1.100000 1.223334 1.072810 0.900000 1.223334 1.072810 1.100000 1.231451 1.154348 0.900000 1.231451 1.154348 1.100000 1.232900 1.084864 0.900000 1.232900 1.084864 1.100000 1.239629 1.096978 0.900000 1.239629 1.096978 1.100000 1.241567 1.140875 0.900000 1.241567 1.140875 1.100000 1.243611 1.109504 0.900000 1.243611 1.109504 1.100000 1.244939 1.122794 0.900000 1.244939 1.122794 1.100000 1.248112 1.000000 0.900000 1.248112 1.000000 1.100000 1.248112 1.018797 0.900000 1.248112 1.018797 1.100000 1.600000 0.000000 0.000000 1.600000 0.000000 0.900000 1.600000 1.400000 0.000000 1.600000 1.400000 0.900000 "
							            />
						</IndexedFaceSet>
					</Shape>
					<Shape>
						<Appearance>
							<Material DEF="MA_Color_2"
							          diffuseColor="1.000 1.000 1.000"
							          specularColor="0.401 0.401 0.401"
							          emissiveColor="0.000 0.000 0.000"
							          ambientIntensity="0.000"
							          shininess="0.500"
							          transparency="1.000"
							          />
						</Appearance>
						<IndexedFaceSet solid="false"
						                coordIndex="4 5 6 -1 4 37 38 -1 4 38 5 -1 5 7 6 -1 5 15 7 -1 5 38 15 -1 6 7 14 -1 7 15 14 -1 8 9 10 -1 8 17 18 -1 8 18 9 -1 9 11 10 -1 9 18 11 -1 10 11 31 -1 11 18 32 -1 11 32 31 -1 12 13 21 -1 12 19 20 -1 12 20 13 -1 13 20 90 -1 13 22 21 -1 13 26 22 -1 13 36 26 -1 13 44 36 -1 13 54 44 -1 13 72 54 -1 13 80 72 -1 13 90 80 -1 14 15 16 -1 15 18 16 -1 15 28 30 -1 15 30 18 -1 15 38 28 -1 16 18 17 -1 18 30 32 -1 19 23 24 -1 19 24 20 -1 20 24 90 -1 21 22 25 -1 22 26 25 -1 23 33 34 -1 23 34 24 -1 24 34 90 -1 25 26 35 -1 26 36 35 -1 27 28 39 -1 27 29 30 -1 27 30 28 -1 28 38 40 -1 28 40 39 -1 29 51 52 -1 29 52 30 -1 30 52 58 -1 30 58 66 -1 30 66 32 -1 31 32 65 -1 32 66 65 -1 33 41 42 -1 33 42 34 -1 34 42 90 -1 35 36 43 -1 36 44 43 -1 37 39 40 -1 37 40 38 -1 41 55 56 -1 41 56 42 -1 42 56 74 -1 42 74 82 -1 42 82 90 -1 43 44 53 -1 44 54 53 -1 45 46 47 -1 45 49 50 -1 45 50 46 -1 46 48 47 -1 46 50 48 -1 47 48 69 -1 48 50 60 -1 48 60 70 -1 48 70 69 -1 49 77 78 -1 49 78 50 -1 50 78 60 -1 51 57 58 -1 51 58 52 -1 53 54 71 -1 54 72 71 -1 55 73 74 -1 55 74 56 -1 57 111 112 -1 57 112 58 -1 58 112 66 -1 59 60 83 -1 59 67 68 -1 59 68 60 -1 60 68 70 -1 60 78 84 -1 60 84 83 -1 61 62 63 -1 61 99 100 -1 61 100 62 -1 62 64 63 -1 62 76 64 -1 62 86 76 -1 62 100 86 -1 63 64 75 -1 64 76 75 -1 65 66 107 -1 66 108 107 -1 66 112 108 -1 67 69 70 -1 67 70 68 -1 71 72 79 -1 72 80 79 -1 73 81 82 -1 73 82 74 -1 75 76 77 -1 76 78 77 -1 76 86 78 -1 78 86 88 -1 78 88 84 -1 79 80 89 -1 80 90 89 -1 81 89 90 -1 81 90 82 -1 83 84 103 -1 84 88 104 -1 84 104 103 -1 85 86 101 -1 85 87 88 -1 85 88 86 -1 86 100 102 -1 86 102 101 -1 87 105 106 -1 87 106 88 -1 88 106 104 -1 91 92 93 -1 91 103 104 -1 91 104 92 -1 92 94 93 -1 92 104 94 -1 93 94 115 -1 94 104 106 -1 94 106 116 -1 94 116 115 -1 95 96 97 -1 95 165 166 -1 95 166 96 -1 96 98 97 -1 96 110 98 -1 96 166 110 -1 97 98 109 -1 98 110 109 -1 99 101 102 -1 99 102 100 -1 105 113 114 -1 105 114 106 -1 106 114 116 -1 107 108 171 -1 108 112 124 -1 108 124 126 -1 108 126 172 -1 108 172 171 -1 109 110 111 -1 110 112 111 -1 110 124 112 -1 110 166 124 -1 113 115 116 -1 113 116 114 -1 117 118 119 -1 117 121 122 -1 117 122 118 -1 118 120 119 -1 118 122 120 -1 119 120 183 -1 120 122 140 -1 120 140 184 -1 120 184 183 -1 121 191 192 -1 121 192 122 -1 122 192 140 -1 123 124 167 -1 123 125 126 -1 123 126 124 -1 124 166 168 -1 124 168 167 -1 125 169 170 -1 125 170 126 -1 126 170 172 -1 127 128 131 -1 127 135 136 -1 127 136 128 -1 128 132 131 -1 128 136 154 -1 128 154 132 -1 129 130 133 -1 129 137 138 -1 129 138 130 -1 130 134 133 -1 130 138 156 -1 130 156 134 -1 131 132 141 -1 132 142 141 -1 132 154 158 -1 132 158 142 -1 133 134 143 -1 134 144 143 -1 134 156 160 -1 134 160 144 -1 135 149 150 -1 135 150 136 -1 136 150 162 -1 136 162 154 -1 137 151 152 -1 137 152 138 -1 138 152 164 -1 138 164 156 -1 139 140 205 -1 139 181 182 -1 139 182 140 -1 140 182 184 -1 140 192 206 -1 140 206 205 -1 141 142 185 -1 142 158 174 -1 142 174 186 -1 142 186 185 -1 143 144 187 -1 144 160 176 -1 144 176 188 -1 144 188 187 -1 145 146 147 -1 145 235 236 -1 145 236 146 -1 146 148 147 -1 146 190 148 -1 146 236 190 -1 147 148 189 -1 148 190 189 -1 149 193 194 -1 149 194 150 -1 150 178 162 -1 150 194 178 -1 151 195 196 -1 151 196 152 -1 152 180 164 -1 152 196 180 -1 153 154 161 -1 153 157 158 -1 153 158 154 -1 154 162 161 -1 155 156 163 -1 155 159 160 -1 155 160 156 -1 156 164 163 -1 157 173 174 -1 157 174 158 -1 159 175 176 -1 159 176 160 -1 161 162 177 -1 162 178 177 -1 163 164 179 -1 164 180 179 -1 165 167 168 -1 165 168 166 -1 169 171 172 -1 169 172 170 -1 173 197 198 -1 173 198 174 -1 174 198 186 -1 175 199 200 -1 175 200 176 -1 176 200 188 -1 177 178 201 -1 178 194 202 -1 178 202 201 -1 179 180 203 -1 180 196 204 -1 180 204 203 -1 181 183 184 -1 181 184 182 -1 185 186 219 -1 186 198 220 -1 186 220 219 -1 187 188 221 -1 188 200 222 -1 188 222 221 -1 189 190 191 -1 190 192 191 -1 190 208 192 -1 190 236 208 -1 192 208 210 -1 192 210 206 -1 193 211 212 -1 193 212 194 -1 194 212 202 -1 195 213 214 -1 195 214 196 -1 196 214 204 -1 197 223 224 -1 197 224 198 -1 198 224 220 -1 199 225 226 -1 199 226 200 -1 200 226 222 -1 201 202 215 -1 202 212 216 -1 202 216 215 -1 203 204 217 -1 204 214 218 -1 204 218 217 -1 205 206 251 -1 206 210 252 -1 206 252 251 -1 207 208 237 -1 207 209 210 -1 207 210 208 -1 208 236 238 -1 208 238 237 -1 209 269 270 -1 209 270 210 -1 210 270 252 -1 211 257 258 -1 211 258 212 -1 212 240 216 -1 212 258 240 -1 213 259 260 -1 213 260 214 -1 214 242 218 -1 214 260 242 -1 215 216 239 -1 216 240 239 -1 217 218 241 -1 218 242 241 -1 219 220 253 -1 220 224 232 -1 220 232 254 -1 220 254 253 -1 221 222 255 -1 222 226 234 -1 222 234 256 -1 222 256 255 -1 223 231 232 -1 223 232 224 -1 225 233 234 -1 225 234 226 -1 227 228 229 -1 227 251 252 -1 227 252 228 -1 228 230 229 -1 228 252 230 -1 229 230 305 -1 230 252 270 -1 230 270 306 -1 230 306 305 -1 231 243 244 -1 231 244 232 -1 232 244 254 -1 233 245 246 -1 233 246 234 -1 234 246 256 -1 235 237 238 -1 235 238 236 -1 239 240 247 -1 240 248 247 -1 240 258 248 -1 241 242 249 -1 242 250 249 -1 242 260 250 -1 243 261 262 -1 243 262 244 -1 244 262 254 -1 245 263 264 -1 245 264 246 -1 246 264 256 -1 247 248 265 -1 248 258 266 -1 248 266 265 -1 249 250 267 -1 250 260 268 -1 250 268 267 -1 253 254 287 -1 254 262 288 -1 254 288 287 -1 255 256 289 -1 256 264 290 -1 256 290 289 -1 257 295 296 -1 257 296 258 -1 258 296 266 -1 259 297 298 -1 259 298 260 -1 260 298 268 -1 261 271 272 -1 261 272 262 -1 262 272 288 -1 263 273 274 -1 263 274 264 -1 264 274 290 -1 265 266 275 -1 266 276 275 -1 266 296 276 -1 267 268 277 -1 268 278 277 -1 268 298 278 -1 269 303 304 -1 269 304 270 -1 270 304 306 -1 271 279 280 -1 271 280 272 -1 272 280 292 -1 272 292 288 -1 273 281 282 -1 273 282 274 -1 274 282 294 -1 274 294 290 -1 275 276 283 -1 276 284 283 -1 276 296 300 -1 276 300 284 -1 277 278 285 -1 278 286 285 -1 278 298 302 -1 278 302 286 -1 279 291 292 -1 279 292 280 -1 281 293 294 -1 281 294 282 -1 283 284 299 -1 284 300 299 -1 285 286 301 -1 286 302 301 -1 287 288 291 -1 288 292 291 -1 289 290 293 -1 290 294 293 -1 295 299 300 -1 295 300 296 -1 297 301 302 -1 297 302 298 -1 303 305 306 -1 303 306 304 -1 307 308 309 -1 307 319 320 -1 307 320 308 -1 308 310 309 -1 308 320 310 -1 309 310 370 -1 310 320 347 -1 310 347 371 -1 310 371 370 -1 311 312 313 -1 311 339 340 -1 311 340 312 -1 312 314 313 -1 312 340 314 -1 313 314 384 -1 314 340 385 -1 314 385 384 -1 315 316 317 -1 315 344 345 -1 315 345 316 -1 316 318 317 -1 316 345 318 -1 317 318 386 -1 318 345 387 -1 318 387 386 -1 319 372 373 -1 319 373 320 -1 320 373 383 -1 320 383 393 -1 320 393 347 -1 321 322 323 -1 321 394 395 -1 321 395 322 -1 322 324 323 -1 322 338 324 -1 322 353 338 -1 322 395 353 -1 323 324 337 -1 324 338 337 -1 325 326 327 -1 325 398 399 -1 325 399 326 -1 326 328 327 -1 326 342 328 -1 326 361 342 -1 326 399 361 -1 327 328 341 -1 328 342 341 -1 329 330 331 -1 329 350 351 -1 329 351 330 -1 330 332 331 -1 330 351 332 -1 331 332 476 -1 332 351 477 -1 332 477 476 -1 333 334 335 -1 333 488 489 -1 333 489 334 -1 334 336 335 -1 334 349 336 -1 334 419 349 -1 334 489 419 -1 335 336 348 -1 336 349 348 -1 337 338 339 -1 338 340 339 -1 338 353 355 -1 338 355 357 -1 338 357 340 -1 340 357 359 -1 340 359 385 -1 341 342 343 -1 342 345 343 -1 342 361 363 -1 342 363 365 -1 342 365 345 -1 343 345 344 -1 345 365 367 -1 345 367 387 -1 346 347 392 -1 346 368 369 -1 346 369 347 -1 347 369 371 -1 347 393 392 -1 348 349 350 -1 349 351 350 -1 349 419 421 -1 349 421 423 -1 349 423 351 -1 351 423 425 -1 351 425 477 -1 352 353 396 -1 352 354 355 -1 352 355 353 -1 353 395 397 -1 353 397 396 -1 354 388 389 -1 354 389 355 -1 355 379 357 -1 355 389 379 -1 356 357 378 -1 356 358 359 -1 356 359 357 -1 357 379 378 -1 358 374 375 -1 358 375 359 -1 359 375 385 -1 360 361 400 -1 360 362 361 -1 361 362 363 -1 361 399 401 -1 361 401 400 -1 362 390 391 -1 362 391 363 -1 363 381 365 -1 363 391 381 -1 364 365 380 -1 364 366 367 -1 364 367 365 -1 365 381 380 -1 366 376 377 -1 366 377 367 -1 367 377 387 -1 368 370 371 -1 368 371 369 -1 372 382 383 -1 372 383 373 -1 374 414 415 -1 374 415 375 -1 375 415 385 -1 376 416 417 -1 376 417 377 -1 377 417 387 -1 378 379 410 -1 379 389 411 -1 379 411 410 -1 380 381 412 -1 381 391 413 -1 381 413 412 -1 382 454 455 -1 382 455 383 -1 383 455 393 -1 384 385 460 -1 385 415 461 -1 385 461 460 -1 386 387 462 -1 387 417 463 -1 387 463 462 -1 388 430 431 -1 388 431 389 -1 389 431 411 -1 390 432 433 -1 390 433 391 -1 391 433 413 -1 392 393 464 -1 393 455 465 -1 393 465 464 -1 394 396 397 -1 394 397 395 -1 398 400 401 -1 398 401 399 -1 402 403 404 -1 402 492 493 -1 402 493 403 -1 403 405 404 -1 403 439 405 -1 403 493 439 -1 404 405 438 -1 405 439 438 -1 406 407 408 -1 406 440 441 -1 406 441 407 -1 407 409 408 -1 407 441 409 -1 408 409 498 -1 409 441 499 -1 409 499 498 -1 410 411 426 -1 411 427 426 -1 411 431 427 -1 412 413 428 -1 413 429 428 -1 413 433 429 -1 414 434 435 -1 414 435 415 -1 415 435 461 -1 416 436 437 -1 416 437 417 -1 417 437 463 -1 418 419 490 -1 418 420 421 -1 418 421 419 -1 419 489 491 -1 419 491 490 -1 420 482 483 -1 420 483 421 -1 421 469 423 -1 421 483 469 -1 422 423 468 -1 422 424 425 -1 422 425 423 -1 423 469 468 -1 424 466 467 -1 424 467 425 -1 425 467 477 -1 426 427 442 -1 427 431 457 -1 427 443 442 -1 427 457 443 -1 428 429 444 -1 429 433 459 -1 429 445 444 -1 429 459 445 -1 430 456 457 -1 430 457 431 -1 432 458 459 -1 432 459 433 -1 434 446 447 -1 434 447 435 -1 435 447 461 -1 436 448 449 -1 436 449 437 -1 437 449 463 -1 438 439 440 -1 439 441 440 -1 439 473 441 -1 439 493 473 -1 441 473 475 -1 441 475 499 -1 442 443 450 -1 443 451 450 -1 443 457 479 -1 443 479 451 -1 444 445 452 -1 445 453 452 -1 445 459 481 -1 445 481 453 -1 446 450 451 -1 446 451 447 -1 447 451 485 -1 447 485 461 -1 448 452 453 -1 448 453 449 -1 449 453 487 -1 449 487 463 -1 451 479 485 -1 453 481 487 -1 454 520 521 -1 454 521 455 -1 455 521 533 -1 455 533 465 -1 456 478 479 -1 456 479 457 -1 458 480 481 -1 458 481 459 -1 460 461 484 -1 461 485 484 -1 462 463 486 -1 463 487 486 -1 464 465 470 -1 465 471 470 -1 465 533 471 -1 466 518 519 -1 466 519 467 -1 467 519 477 -1 468 469 516 -1 469 483 517 -1 469 517 516 -1 470 471 532 -1 471 533 532 -1 472 473 494 -1 472 474 475 -1 472 475 473 -1 473 493 495 -1 473 495 494 -1 474 496 497 -1 474 497 475 -1 475 497 499 -1 476 477 587 -1 476 587 586 -1 477 519 587 -1 478 484 485 -1 478 485 479 -1 480 486 487 -1 480 487 481 -1 482 544 545 -1 482 545 483 -1 483 545 517 -1 488 490 491 -1 488 491 489 -1 492 494 495 -1 492 495 493 -1 496 498 499 -1 496 499 497 -1 500 501 502 -1 500 576 577 -1 500 577 501 -1 501 503 502 -1 501 535 503 -1 501 577 535 -1 502 503 534 -1 503 535 534 -1 504 505 506 -1 504 536 537 -1 504 537 505 -1 505 507 506 -1 505 537 507 -1 506 507 570 -1 507 537 571 -1 507 571 570 -1 508 509 510 -1 508 580 581 -1 508 581 509 -1 509 511 510 -1 509 539 511 -1 509 581 539 -1 510 511 538 -1 511 539 538 -1 512 513 514 -1 512 540 541 -1 512 541 513 -1 513 515 514 -1 513 541 515 -1 514 515 572 -1 515 541 573 -1 515 573 572 -1 516 517 542 -1 517 543 542 -1 517 545 543 -1 518 546 547 -1 518 547 519 -1 519 547 587 -1 520 522 523 -1 520 523 521 -1 521 523 593 -1 521 593 533 -1 522 592 593 -1 522 593 523 -1 524 525 526 -1 524 596 597 -1 524 597 525 -1 525 527 526 -1 525 561 527 -1 525 597 561 -1 526 527 560 -1 527 561 560 -1 528 529 530 -1 528 562 563 -1 528 563 529 -1 529 531 530 -1 529 563 531 -1 530 531 602 -1 531 563 603 -1 531 603 602 -1 532 533 574 -1 533 575 574 -1 533 593 575 -1 534 535 537 -1 534 537 536 -1 535 553 555 -1 535 555 537 -1 535 577 553 -1 537 555 571 -1 538 539 541 -1 538 541 540 -1 539 557 559 -1 539 559 541 -1 539 581 557 -1 541 559 573 -1 542 543 564 -1 543 545 585 -1 543 565 564 -1 543 585 565 -1 544 584 585 -1 544 585 545 -1 546 566 567 -1 546 567 547 -1 547 567 587 -1 548 549 550 -1 548 574 575 -1 548 575 549 -1 549 551 550 -1 549 575 551 -1 550 551 606 -1 551 575 593 -1 551 593 607 -1 551 607 606 -1 552 553 578 -1 552 554 555 -1 552 555 553 -1 553 577 579 -1 553 579 578 -1 554 654 655 -1 554 655 555 -1 555 647 571 -1 555 655 667 -1 555 667 647 -1 556 557 582 -1 556 558 559 -1 556 559 557 -1 557 581 583 -1 557 583 582 -1 558 656 657 -1 558 657 559 -1 559 651 573 -1 559 657 671 -1 559 671 651 -1 560 561 562 -1 561 563 562 -1 561 589 563 -1 561 597 589 -1 563 589 591 -1 563 591 603 -1 564 565 568 -1 565 569 568 -1 565 585 595 -1 565 595 569 -1 566 568 569 -1 566 569 567 -1 567 569 613 -1 567 613 587 -1 569 595 613 -1 570 571 646 -1 571 647 646 -1 572 573 650 -1 573 651 650 -1 576 578 579 -1 576 579 577 -1 580 582 583 -1 580 583 581 -1 584 594 595 -1 584 595 585 -1 586 587 612 -1 587 613 612 -1 588 589 598 -1 588 590 591 -1 588 591 589 -1 589 597 599 -1 589 599 598 -1 590 600 601 -1 590 601 591 -1 591 601 603 -1 592 604 605 -1 592 605 593 -1 593 605 607 -1 594 612 613 -1 594 613 595 -1 596 598 599 -1 596 599 597 -1 600 602 603 -1 600 603 601 -1 604 606 607 -1 604 607 605 -1 608 609 610 -1 608 614 615 -1 608 615 609 -1 609 611 610 -1 609 615 611 -1 610 611 664 -1 611 615 645 -1 611 645 665 -1 611 665 664 -1 614 674 675 -1 614 675 615 -1 615 675 677 -1 615 677 683 -1 615 683 645 -1 616 617 618 -1 616 684 685 -1 616 685 617 -1 617 619 618 -1 617 633 619 -1 617 685 633 -1 618 619 632 -1 619 633 632 -1 620 621 622 -1 620 634 635 -1 620 635 621 -1 621 623 622 -1 621 635 623 -1 622 623 690 -1 623 635 691 -1 623 691 690 -1 624 625 626 -1 624 648 649 -1 624 649 625 -1 625 627 626 -1 625 649 627 -1 626 627 694 -1 627 649 669 -1 627 669 695 -1 627 695 694 -1 628 629 630 -1 628 652 653 -1 628 653 629 -1 629 631 630 -1 629 653 631 -1 630 631 698 -1 631 653 673 -1 631 673 699 -1 631 699 698 -1 632 633 634 -1 633 635 634 -1 633 659 635 -1 633 685 659 -1 635 659 661 -1 635 661 691 -1 636 637 638 -1 636 774 775 -1 636 775 637 -1 637 639 638 -1 637 679 639 -1 637 775 679 -1 638 639 678 -1 639 679 678 -1 640 641 642 -1 640 680 681 -1 640 681 641 -1 641 643 642 -1 641 681 643 -1 642 643 780 -1 643 681 723 -1 643 723 781 -1 643 781 780 -1 644 645 682 -1 644 662 663 -1 644 663 645 -1 645 663 665 -1 645 683 682 -1 646 647 648 -1 647 649 648 -1 647 667 669 -1 647 669 649 -1 650 651 652 -1 651 653 652 -1 651 671 673 -1 651 673 653 -1 654 666 667 -1 654 667 655 -1 656 670 671 -1 656 671 657 -1 658 659 686 -1 658 660 661 -1 658 661 659 -1 659 685 687 -1 659 687 686 -1 660 688 689 -1 660 689 661 -1 661 689 691 -1 662 664 665 -1 662 665 663 -1 666 668 669 -1 666 669 667 -1 668 692 693 -1 668 693 669 -1 669 693 695 -1 670 672 673 -1 670 673 671 -1 672 696 697 -1 672 697 673 -1 673 697 699 -1 674 676 677 -1 674 677 675 -1 676 724 725 -1 676 725 677 -1 677 725 683 -1 678 679 680 -1 679 681 680 -1 679 721 681 -1 679 775 721 -1 681 721 723 -1 682 683 730 -1 683 725 731 -1 683 731 730 -1 684 686 687 -1 684 687 685 -1 688 690 691 -1 688 691 689 -1 692 694 695 -1 692 695 693 -1 696 698 699 -1 696 699 697 -1 700 701 702 -1 700 792 793 -1 700 793 701 -1 701 703 702 -1 701 727 703 -1 701 763 727 -1 701 793 763 -1 702 703 726 -1 703 727 726 -1 704 705 706 -1 704 728 729 -1 704 729 705 -1 705 707 706 -1 705 729 707 -1 706 707 798 -1 707 729 765 -1 707 765 799 -1 707 799 798 -1 708 709 712 -1 708 716 717 -1 708 717 709 -1 709 713 712 -1 709 717 741 -1 709 741 713 -1 710 711 714 -1 710 718 719 -1 710 719 711 -1 711 715 714 -1 711 719 743 -1 711 743 715 -1 712 713 732 -1 713 733 732 -1 713 741 747 -1 713 747 733 -1 714 715 734 -1 715 735 734 -1 715 743 749 -1 715 749 735 -1 716 736 737 -1 716 737 717 -1 717 737 751 -1 717 751 741 -1 718 738 739 -1 718 739 719 -1 719 739 753 -1 719 753 743 -1 720 721 776 -1 720 722 723 -1 720 723 721 -1 721 775 777 -1 721 777 776 -1 722 778 779 -1 722 779 723 -1 723 779 781 -1 724 790 791 -1 724 791 725 -1 725 791 803 -1 725 803 731 -1 726 727 728 -1 727 729 728 -1 727 763 729 -1 729 763 765 -1 730 731 744 -1 731 745 744 -1 731 803 745 -1 732 733 766 -1 733 747 755 -1 733 755 767 -1 733 767 766 -1 734 735 768 -1 735 749 757 -1 735 757 769 -1 735 769 768 -1 736 770 771 -1 736 771 737 -1 737 759 751 -1 737 771 759 -1 738 772 773 -1 738 773 739 -1 739 761 753 -1 739 773 761 -1 740 741 750 -1 740 746 747 -1 740 747 741 -1 741 751 750 -1 742 743 752 -1 742 748 749 -1 742 749 743 -1 743 753 752 -1 744 745 802 -1 745 803 802 -1 746 754 755 -1 746 755 747 -1 748 756 757 -1 748 757 749 -1 750 751 758 -1 751 759 758 -1 752 753 760 -1 753 761 760 -1 754 782 783 -1 754 783 755 -1 755 783 767 -1 756 784 785 -1 756 785 757 -1 757 785 769 -1 758 759 786 -1 759 771 787 -1 759 787 786 -1 760 761 788 -1 761 773 789 -1 761 789 788 -1 762 763 794 -1 762 764 765 -1 762 765 763 -1 763 793 795 -1 763 795 794 -1 764 796 797 -1 764 797 765 -1 765 797 799 -1 766 767 824 -1 767 783 825 -1 767 825 824 -1 768 769 826 -1 769 785 827 -1 769 827 826 -1 770 816 817 -1 770 817 771 -1 771 817 787 -1 772 818 819 -1 772 819 773 -1 773 819 789 -1 774 776 777 -1 774 777 775 -1 778 780 781 -1 778 781 779 -1 782 828 829 -1 782 829 783 -1 783 829 825 -1 784 830 831 -1 784 831 785 -1 785 831 827 -1 786 787 820 -1 787 817 821 -1 787 821 820 -1 788 789 822 -1 789 819 823 -1 789 823 822 -1 790 800 801 -1 790 801 791 -1 791 801 873 -1 791 873 803 -1 792 794 795 -1 792 795 793 -1 796 798 799 -1 796 799 797 -1 800 872 873 -1 800 873 801 -1 802 803 850 -1 803 851 850 -1 803 873 851 -1 804 805 806 -1 804 850 851 -1 804 851 805 -1 805 807 806 -1 805 851 807 -1 806 807 904 -1 807 851 873 -1 807 873 905 -1 807 905 904 -1 808 809 810 -1 808 936 937 -1 808 937 809 -1 809 811 810 -1 809 847 811 -1 809 879 847 -1 809 937 879 -1 810 811 846 -1 811 847 846 -1 812 813 814 -1 812 848 849 -1 812 849 813 -1 813 815 814 -1 813 849 815 -1 814 815 942 -1 815 849 881 -1 815 881 943 -1 815 943 942 -1 816 864 865 -1 816 865 817 -1 817 839 821 -1 817 865 839 -1 818 866 867 -1 818 867 819 -1 819 841 823 -1 819 867 841 -1 820 821 838 -1 821 839 838 -1 822 823 840 -1 823 841 840 -1 824 825 860 -1 825 829 835 -1 825 835 861 -1 825 861 860 -1 826 827 862 -1 827 831 837 -1 827 837 863 -1 827 863 862 -1 828 834 835 -1 828 835 829 -1 830 836 837 -1 830 837 831 -1 832 833 842 -1 832 844 845 -1 832 845 833 -1 833 843 842 -1 833 845 907 -1 833 907 843 -1 834 852 853 -1 834 853 835 -1 835 853 861 -1 836 854 855 -1 836 855 837 -1 837 855 863 -1 838 839 856 -1 839 857 856 -1 839 865 857 -1 840 841 858 -1 841 859 858 -1 841 867 859 -1 842 843 882 -1 843 883 882 -1 843 907 917 -1 843 917 883 -1 844 888 889 -1 844 889 845 -1 845 889 923 -1 845 923 907 -1 846 847 848 -1 847 849 848 -1 847 879 849 -1 849 879 881 -1 852 868 869 -1 852 869 853 -1 853 869 861 -1 854 870 871 -1 854 871 855 -1 855 871 863 -1 856 857 874 -1 857 865 875 -1 857 875 874 -1 858 859 876 -1 859 867 877 -1 859 877 876 -1 860 861 908 -1 861 869 909 -1 861 909 908 -1 862 863 910 -1 863 871 911 -1 863 911 910 -1 864 918 919 -1 864 919 865 -1 865 919 875 -1 866 920 921 -1 866 921 867 -1 867 921 877 -1 868 884 885 -1 868 885 869 -1 869 885 909 -1 870 886 887 -1 870 887 871 -1 871 887 911 -1 872 902 903 -1 872 903 873 -1 873 903 905 -1 874 875 890 -1 875 891 890 -1 875 919 891 -1 876 877 892 -1 877 893 892 -1 877 921 893 -1 878 879 938 -1 878 880 881 -1 878 881 879 -1 879 937 939 -1 879 939 938 -1 880 940 941 -1 880 941 881 -1 881 941 943 -1 882 883 976 -1 883 917 945 -1 883 945 977 -1 883 977 976 -1 884 894 895 -1 884 895 885 -1 885 895 913 -1 885 913 909 -1 886 896 897 -1 886 897 887 -1 887 897 915 -1 887 915 911 -1 888 982 983 -1 888 983 889 -1 889 947 923 -1 889 983 947 -1 890 891 898 -1 891 899 898 -1 891 919 933 -1 891 933 899 -1 892 893 900 -1 893 901 900 -1 893 921 935 -1 893 935 901 -1 894 912 913 -1 894 913 895 -1 896 914 915 -1 896 915 897 -1 898 899 932 -1 899 933 932 -1 900 901 934 -1 901 935 934 -1 902 904 905 -1 902 905 903 -1 906 907 922 -1 906 916 917 -1 906 917 907 -1 907 923 922 -1 908 909 912 -1 909 913 912 -1 910 911 914 -1 911 915 914 -1 916 944 945 -1 916 945 917 -1 918 932 933 -1 918 933 919 -1 920 934 935 -1 920 935 921 -1 922 923 946 -1 923 947 946 -1 924 925 926 -1 924 1002 1003 -1 924 1003 925 -1 925 927 926 -1 925 949 927 -1 925 1003 949 -1 926 927 948 -1 927 949 948 -1 928 929 930 -1 928 950 951 -1 928 951 929 -1 929 931 930 -1 929 951 931 -1 930 931 996 -1 931 951 997 -1 931 997 996 -1 936 938 939 -1 936 939 937 -1 940 942 943 -1 940 943 941 -1 944 998 999 -1 944 999 945 -1 945 999 977 -1 946 947 1000 -1 947 983 1001 -1 947 1001 1000 -1 948 949 950 -1 949 951 950 -1 949 979 981 -1 949 981 951 -1 949 1003 979 -1 951 981 997 -1 952 953 954 -1 952 986 987 -1 952 987 953 -1 953 955 954 -1 953 987 955 -1 954 955 1034 -1 955 987 1035 -1 955 1035 1034 -1 956 957 958 -1 956 990 991 -1 956 991 957 -1 957 959 958 -1 957 991 959 -1 958 959 1036 -1 959 991 1037 -1 959 1037 1036 -1 960 961 962 -1 960 1042 1043 -1 960 1043 961 -1 961 963 962 -1 961 993 963 -1 961 1023 993 -1 961 1043 1023 -1 962 963 992 -1 963 993 992 -1 964 965 966 -1 964 994 995 -1 964 995 965 -1 965 967 966 -1 965 995 967 -1 966 967 1048 -1 967 995 1025 -1 967 1025 1049 -1 967 1049 1048 -1 968 969 970 -1 968 1050 1051 -1 968 1051 969 -1 969 971 970 -1 969 985 971 -1 969 1007 985 -1 969 1051 1007 -1 970 971 984 -1 971 985 984 -1 972 973 974 -1 972 1054 1055 -1 972 1055 973 -1 973 975 974 -1 973 989 975 -1 973 1015 989 -1 973 1055 1015 -1 974 975 988 -1 975 989 988 -1 976 977 1070 -1 977 999 1071 -1 977 1071 1070 -1 978 979 1004 -1 978 980 981 -1 978 981 979 -1 979 1003 1005 -1 979 1005 1004 -1 980 1118 1119 -1 980 1119 981 -1 981 1115 997 -1 981 1119 1133 -1 981 1133 1115 -1 982 1066 1067 -1 982 1067 983 -1 983 1067 1001 -1 984 985 987 -1 984 987 986 -1 985 1007 1009 -1 985 1009 1011 -1 985 1011 987 -1 987 1011 1013 -1 987 1013 1035 -1 988 989 990 -1 989 991 990 -1 989 1015 1017 -1 989 1017 1019 -1 989 1019 991 -1 991 1019 1021 -1 991 1021 1037 -1 992 993 994 -1 993 995 994 -1 993 1023 995 -1 995 1023 1025 -1 996 997 1114 -1 997 1115 1114 -1 998 1072 1073 -1 998 1073 999 -1 999 1073 1071 -1 1000 1001 1068 -1 1001 1067 1069 -1 1001 1069 1068 -1 1002 1004 1005 -1 1002 1005 1003 -1 1006 1007 1052 -1 1006 1008 1009 -1 1006 1009 1007 -1 1007 1051 1053 -1 1007 1053 1052 -1 1008 1038 1039 -1 1008 1039 1009 -1 1009 1031 1011 -1 1009 1039 1031 -1 1010 1011 1030 -1 1010 1012 1013 -1 1010 1013 1011 -1 1011 1031 1030 -1 1012 1026 1027 -1 1012 1027 1013 -1 1013 1027 1035 -1 1014 1015 1056 -1 1014 1016 1017 -1 1014 1017 1015 -1 1015 1055 1057 -1 1015 1057 1056 -1 1016 1040 1041 -1 1016 1041 1017 -1 1017 1033 1019 -1 1017 1041 1033 -1 1018 1019 1032 -1 1018 1020 1021 -1 1018 1021 1019 -1 1019 1033 1032 -1 1020 1028 1029 -1 1020 1029 1021 -1 1021 1029 1037 -1 1022 1023 1044 -1 1022 1024 1023 -1 1023 1024 1025 -1 1023 1043 1045 -1 1023 1045 1044 -1 1024 1046 1047 -1 1024 1047 1025 -1 1025 1047 1049 -1 1026 1062 1063 -1 1026 1063 1027 -1 1027 1063 1035 -1 1028 1064 1065 -1 1028 1065 1029 -1 1029 1065 1037 -1 1030 1031 1058 -1 1031 1039 1059 -1 1031 1059 1058 -1 1032 1033 1060 -1 1033 1041 1061 -1 1033 1061 1060 -1 1034 1035 1110 -1 1035 1063 1111 -1 1035 1111 1110 -1 1036 1037 1112 -1 1037 1065 1113 -1 1037 1113 1112 -1 1038 1078 1079 -1 1038 1079 1039 -1 1039 1079 1059 -1 1040 1080 1081 -1 1040 1081 1041 -1 1041 1081 1061 -1 1042 1044 1045 -1 1042 1045 1043 -1 1046 1048 1049 -1 1046 1049 1047 -1 1050 1052 1053 -1 1050 1053 1051 -1 1054 1056 1057 -1 1054 1057 1055 -1 1058 1059 1074 -1 1059 1075 1074 -1 1059 1079 1075 -1 1060 1061 1076 -1 1061 1077 1076 -1 1061 1081 1077 -1 1062 1082 1083 -1 1062 1083 1063 -1 1063 1083 1111 -1 1064 1084 1085 -1 1064 1085 1065 -1 1065 1085 1113 -1 1066 1138 1139 -1 1066 1139 1067 -1 1067 1105 1069 -1 1067 1139 1105 -1 1068 1069 1104 -1 1069 1105 1104 -1 1070 1071 1136 -1 1071 1073 1103 -1 1071 1103 1137 -1 1071 1137 1136 -1 1072 1102 1103 -1 1072 1103 1073 -1 1074 1075 1090 -1 1075 1079 1107 -1 1075 1091 1090 -1 1075 1107 1091 -1 1076 1077 1092 -1 1077 1081 1109 -1 1077 1093 1092 -1 1077 1109 1093 -1 1078 1106 1107 -1 1078 1107 1079 -1 1080 1108 1109 -1 1080 1109 1081 -1 1082 1094 1095 -1 1082 1095 1083 -1 1083 1095 1111 -1 1084 1096 1097 -1 1084 1097 1085 -1 1085 1097 1113 -1 1086 1087 1088 -1 1086 1116 1117 -1 1086 1117 1087 -1 1087 1089 1088 -1 1087 1117 1089 -1 1088 1089 1162 -1 1089 1117 1135 -1 1089 1135 1163 -1 1089 1163 1162 -1 1090 1091 1098 -1 1091 1099 1098 -1 1091 1107 1121 -1 1091 1121 1099 -1 1092 1093 1100 -1 1093 1101 1100 -1 1093 1109 1123 -1 1093 1123 1101 -1 1094 1098 1099 -1 1094 1099 1095 -1 1095 1099 1127 -1 1095 1127 1111 -1 1096 1100 1101 -1 1096 1101 1097 -1 1097 1101 1129 -1 1097 1129 1113 -1 1099 1121 1127 -1 1101 1123 1129 -1 1102 1124 1125 -1 1102 1125 1103 -1 1103 1125 1137 -1 1104 1105 1130 -1 1105 1131 1130 -1 1105 1139 1131 -1 1106 1120 1121 -1 1106 1121 1107 -1 1108 1122 1123 -1 1108 1123 1109 -1 1110 1111 1126 -1 1111 1127 1126 -1 1112 1113 1128 -1 1113 1129 1128 -1 1114 1115 1116 -1 1115 1117 1116 -1 1115 1133 1135 -1 1115 1135 1117 -1 1118 1132 1133 -1 1118 1133 1119 -1 1120 1126 1127 -1 1120 1127 1121 -1 1122 1128 1129 -1 1122 1129 1123 -1 1124 1156 1157 -1 1124 1157 1125 -1 1125 1157 1137 -1 1130 1131 1158 -1 1131 1139 1159 -1 1131 1159 1158 -1 1132 1134 1135 -1 1132 1135 1133 -1 1134 1160 1161 -1 1134 1161 1135 -1 1135 1161 1163 -1 1136 1137 1196 -1 1137 1157 1197 -1 1137 1197 1196 -1 1138 1204 1205 -1 1138 1205 1139 -1 1139 1205 1159 -1 1140 1141 1142 -1 1140 1216 1217 -1 1140 1217 1141 -1 1141 1143 1142 -1 1141 1175 1143 -1 1141 1217 1175 -1 1142 1143 1174 -1 1143 1175 1174 -1 1144 1145 1146 -1 1144 1176 1177 -1 1144 1177 1145 -1 1145 1147 1146 -1 1145 1177 1147 -1 1146 1147 1208 -1 1147 1177 1209 -1 1147 1209 1208 -1 1148 1149 1150 -1 1148 1220 1221 -1 1148 1221 1149 -1 1149 1151 1150 -1 1149 1179 1151 -1 1149 1221 1179 -1 1150 1151 1178 -1 1151 1179 1178 -1 1152 1153 1154 -1 1152 1180 1181 -1 1152 1181 1153 -1 1153 1155 1154 -1 1153 1181 1155 -1 1154 1155 1210 -1 1155 1181 1211 -1 1155 1211 1210 -1 1156 1164 1165 -1 1156 1165 1157 -1 1157 1165 1197 -1 1158 1159 1182 -1 1159 1183 1182 -1 1159 1205 1183 -1 1160 1162 1163 -1 1160 1163 1161 -1 1164 1184 1185 -1 1164 1185 1165 -1 1165 1185 1199 -1 1165 1199 1197 -1 1166 1167 1168 -1 1166 1226 1227 -1 1166 1227 1167 -1 1167 1169 1168 -1 1167 1201 1169 -1 1167 1227 1201 -1 1168 1169 1200 -1 1169 1201 1200 -1 1170 1171 1172 -1 1170 1202 1203 -1 1170 1203 1171 -1 1171 1173 1172 -1 1171 1203 1173 -1 1172 1173 1224 -1 1173 1203 1225 -1 1173 1225 1224 -1 1174 1175 1177 -1 1174 1177 1176 -1 1175 1189 1191 -1 1175 1191 1177 -1 1175 1217 1189 -1 1177 1191 1209 -1 1178 1179 1181 -1 1178 1181 1180 -1 1179 1193 1195 -1 1179 1195 1181 -1 1179 1221 1193 -1 1181 1195 1211 -1 1182 1183 1186 -1 1183 1187 1186 -1 1183 1205 1207 -1 1183 1207 1187 -1 1184 1198 1199 -1 1184 1199 1185 -1 1186 1187 1206 -1 1187 1207 1206 -1 1188 1189 1218 -1 1188 1190 1191 -1 1188 1191 1189 -1 1189 1217 1219 -1 1189 1219 1218 -1 1190 1274 1275 -1 1190 1275 1191 -1 1191 1267 1209 -1 1191 1275 1289 -1 1191 1289 1267 -1 1192 1193 1222 -1 1192 1194 1195 -1 1192 1195 1193 -1 1193 1221 1223 -1 1193 1223 1222 -1 1194 1276 1277 -1 1194 1277 1195 -1 1195 1271 1211 -1 1195 1277 1293 -1 1195 1293 1271 -1 1196 1197 1198 -1 1197 1199 1198 -1 1200 1201 1202 -1 1201 1203 1202 -1 1201 1213 1215 -1 1201 1215 1203 -1 1201 1227 1213 -1 1203 1215 1225 -1 1204 1206 1207 -1 1204 1207 1205 -1 1208 1209 1266 -1 1209 1267 1266 -1 1210 1211 1270 -1 1211 1271 1270 -1 1212 1213 1228 -1 1212 1214 1215 -1 1212 1215 1213 -1 1213 1227 1229 -1 1213 1229 1228 -1 1214 1304 1305 -1 1214 1305 1215 -1 1215 1301 1225 -1 1215 1305 1309 -1 1215 1309 1301 -1 1216 1218 1219 -1 1216 1219 1217 -1 1220 1222 1223 -1 1220 1223 1221 -1 1224 1225 1300 -1 1225 1301 1300 -1 1226 1228 1229 -1 1226 1229 1227 -1 1230 1231 1238 -1 1230 1232 1231 -1 1231 1232 1233 -1 1231 1233 1251 -1 1231 1239 1238 -1 1231 1251 1239 -1 1232 1258 1259 -1 1232 1259 1233 -1 1233 1257 1251 -1 1233 1259 1257 -1 1234 1235 1236 -1 1234 1248 1249 -1 1234 1249 1235 -1 1235 1237 1236 -1 1235 1249 1255 -1 1235 1255 1237 -1 1236 1237 1252 -1 1237 1253 1252 -1 1237 1255 1253 -1 1238 1239 1250 -1 1239 1251 1250 -1 1240 1241 1242 -1 1240 1268 1269 -1 1240 1269 1241 -1 1241 1243 1242 -1 1241 1269 1243 -1 1242 1243 1314 -1 1243 1269 1291 -1 1243 1291 1315 -1 1243 1315 1314 -1 1244 1245 1246 -1 1244 1272 1273 -1 1244 1273 1245 -1 1245 1247 1246 -1 1245 1273 1247 -1 1246 1247 1318 -1 1247 1273 1295 -1 1247 1295 1319 -1 1247 1319 1318 -1 1248 1254 1255 -1 1248 1255 1249 -1 1250 1251 1256 -1 1251 1257 1256 -1 1252 1253 1278 -1 1253 1255 1261 -1 1253 1261 1279 -1 1253 1279 1278 -1 1254 1260 1261 -1 1254 1261 1255 -1 1256 1257 1280 -1 1257 1259 1281 -1 1257 1281 1280 -1 1258 1326 1327 -1 1258 1327 1259 -1 1259 1299 1281 -1 1259 1327 1299 -1 1260 1286 1287 -1 1260 1287 1261 -1 1261 1287 1279 -1 1262 1263 1264 -1 1262 1302 1303 -1 1262 1303 1263 -1 1263 1265 1264 -1 1263 1303 1265 -1 1264 1265 1334 -1 1265 1303 1311 -1 1265 1311 1335 -1 1265 1335 1334 -1 1266 1267 1268 -1 1267 1269 1268 -1 1267 1289 1291 -1 1267 1291 1269 -1 1270 1271 1272 -1 1271 1273 1272 -1 1271 1293 1295 -1 1271 1295 1273 -1 1274 1288 1289 -1 1274 1289 1275 -1 1276 1292 1293 -1 1276 1293 1277 -1 1278 1279 1296 -1 1279 1287 1297 -1 1279 1297 1296 -1 1280 1281 1298 -1 1281 1299 1298 -1 1282 1283 1284 -1 1282 1328 1329 -1 1282 1329 1283 -1 1283 1285 1284 -1 1283 1329 1285 -1 1284 1285 1330 -1 1285 1329 1331 -1 1285 1331 1330 -1 1286 1306 1307 -1 1286 1307 1287 -1 1287 1307 1297 -1 1288 1290 1291 -1 1288 1291 1289 -1 1290 1312 1313 -1 1290 1313 1291 -1 1291 1313 1315 -1 1292 1294 1295 -1 1292 1295 1293 -1 1294 1316 1317 -1 1294 1317 1295 -1 1295 1317 1319 -1 1296 1297 1324 -1 1297 1307 1325 -1 1297 1325 1324 -1 1298 1299 1320 -1 1299 1321 1320 -1 1299 1327 1321 -1 1300 1301 1302 -1 1301 1303 1302 -1 1301 1309 1311 -1 1301 1311 1303 -1 1304 1308 1309 -1 1304 1309 1305 -1 1306 1322 1323 -1 1306 1323 1307 -1 1307 1323 1325 -1 1308 1310 1311 -1 1308 1311 1309 -1 1310 1332 1333 -1 1310 1333 1311 -1 1311 1333 1335 -1 1312 1314 1315 -1 1312 1315 1313 -1 1316 1318 1319 -1 1316 1319 1317 -1 1320 1321 1340 -1 1321 1327 1341 -1 1321 1341 1340 -1 1322 1336 1337 -1 1322 1337 1323 -1 1323 1337 1325 -1 1324 1325 1388 -1 1325 1337 1389 -1 1325 1389 1388 -1 1326 1358 1359 -1 1326 1359 1327 -1 1327 1359 1341 -1 1328 1344 1345 -1 1328 1345 1329 -1 1329 1339 1331 -1 1329 1343 1339 -1 1329 1345 1343 -1 1330 1331 1338 -1 1331 1339 1338 -1 1332 1334 1335 -1 1332 1335 1333 -1 1336 1354 1355 -1 1336 1355 1337 -1 1337 1355 1389 -1 1338 1339 1356 -1 1339 1343 1375 -1 1339 1357 1356 -1 1339 1375 1357 -1 1340 1341 1364 -1 1341 1359 1365 -1 1341 1365 1364 -1 1342 1343 1380 -1 1342 1374 1375 -1 1342 1375 1343 -1 1343 1345 1381 -1 1343 1381 1380 -1 1344 1366 1367 -1 1344 1367 1345 -1 1345 1367 1381 -1 1346 1347 1348 -1 1346 1396 1397 -1 1346 1397 1347 -1 1347 1349 1348 -1 1347 1371 1349 -1 1347 1397 1371 -1 1348 1349 1370 -1 1349 1371 1370 -1 1350 1351 1352 -1 1350 1372 1373 -1 1350 1373 1351 -1 1351 1353 1352 -1 1351 1373 1353 -1 1352 1353 1394 -1 1353 1373 1395 -1 1353 1395 1394 -1 1354 1360 1361 -1 1354 1361 1355 -1 1355 1361 1389 -1 1356 1357 1362 -1 1357 1363 1362 -1 1357 1375 1391 -1 1357 1391 1363 -1 1358 1392 1393 -1 1358 1393 1359 -1 1359 1393 1365 -1 1360 1368 1369 -1 1360 1369 1361 -1 1361 1369 1405 -1 1361 1405 1389 -1 1362 1363 1368 -1 1363 1369 1368 -1 1363 1391 1403 -1 1363 1403 1369 -1 1364 1365 1376 -1 1365 1377 1376 -1 1365 1393 1377 -1 1366 1378 1379 -1 1366 1379 1367 -1 1367 1379 1401 -1 1367 1401 1381 -1 1369 1403 1405 -1 1370 1371 1372 -1 1371 1373 1372 -1 1371 1383 1385 -1 1371 1385 1373 -1 1371 1397 1383 -1 1373 1385 1395 -1 1374 1390 1391 -1 1374 1391 1375 -1 1376 1377 1386 -1 1377 1387 1386 -1 1377 1393 1407 -1 1377 1407 1387 -1 1378 1386 1387 -1 1378 1387 1379 -1 1379 1387 1409 -1 1379 1409 1401 -1 1380 1381 1400 -1 1381 1401 1400 -1 1382 1383 1398 -1 1382 1384 1385 -1 1382 1385 1383 -1 1383 1397 1399 -1 1383 1399 1398 -1 1384 1428 1429 -1 1384 1429 1385 -1 1385 1425 1395 -1 1385 1429 1437 -1 1385 1437 1425 -1 1387 1407 1411 -1 1387 1411 1409 -1 1388 1389 1404 -1 1389 1405 1404 -1 1390 1402 1403 -1 1390 1403 1391 -1 1392 1406 1407 -1 1392 1407 1393 -1 1394 1395 1424 -1 1395 1425 1424 -1 1396 1398 1399 -1 1396 1399 1397 -1 1400 1401 1408 -1 1401 1409 1408 -1 1402 1404 1405 -1 1402 1405 1403 -1 1406 1410 1411 -1 1406 1411 1407 -1 1408 1409 1410 -1 1409 1411 1410 -1 1412 1413 1414 -1 1412 1426 1427 -1 1412 1427 1413 -1 1413 1415 1414 -1 1413 1427 1415 -1 1414 1415 1452 -1 1415 1427 1439 -1 1415 1439 1453 -1 1415 1453 1452 -1 1416 1417 1418 -1 1416 1498 1499 -1 1416 1499 1417 -1 1417 1419 1418 -1 1417 1433 1419 -1 1417 1499 1433 -1 1418 1419 1440 -1 1419 1433 1441 -1 1419 1441 1440 -1 1420 1421 1422 -1 1420 1430 1431 -1 1420 1431 1421 -1 1421 1423 1422 -1 1421 1431 1435 -1 1421 1435 1423 -1 1422 1423 1444 -1 1423 1435 1443 -1 1423 1443 1445 -1 1423 1445 1444 -1 1424 1425 1426 -1 1425 1427 1426 -1 1425 1437 1439 -1 1425 1439 1427 -1 1428 1436 1437 -1 1428 1437 1429 -1 1430 1434 1435 -1 1430 1435 1431 -1 1432 1433 1500 -1 1432 1446 1447 -1 1432 1447 1433 -1 1433 1447 1441 -1 1433 1499 1501 -1 1433 1501 1500 -1 1434 1442 1443 -1 1434 1443 1435 -1 1436 1438 1439 -1 1436 1439 1437 -1 1438 1450 1451 -1 1438 1451 1439 -1 1439 1451 1453 -1 1440 1441 1458 -1 1441 1447 1457 -1 1441 1457 1459 -1 1441 1459 1458 -1 1442 1448 1449 -1 1442 1449 1443 -1 1443 1449 1445 -1 1444 1445 1462 -1 1445 1449 1455 -1 1445 1455 1463 -1 1445 1463 1462 -1 1446 1456 1457 -1 1446 1457 1447 -1 1448 1454 1455 -1 1448 1455 1449 -1 1450 1452 1453 -1 1450 1453 1451 -1 1454 1460 1461 -1 1454 1461 1455 -1 1455 1461 1463 -1 1456 1468 1469 -1 1456 1469 1457 -1 1457 1469 1459 -1 1458 1459 1464 -1 1459 1465 1464 -1 1459 1469 1465 -1 1460 1466 1467 -1 1460 1467 1461 -1 1461 1467 1463 -1 1462 1463 1472 -1 1463 1467 1473 -1 1463 1473 1472 -1 1464 1465 1470 -1 1465 1469 1485 -1 1465 1471 1470 -1 1465 1485 1471 -1 1466 1474 1475 -1 1466 1475 1467 -1 1467 1475 1473 -1 1468 1484 1485 -1 1468 1485 1469 -1 1470 1471 1476 -1 1471 1477 1476 -1 1471 1485 1489 -1 1471 1489 1477 -1 1472 1473 1486 -1 1473 1475 1487 -1 1473 1487 1486 -1 1474 1478 1479 -1 1474 1479 1475 -1 1475 1479 1487 -1 1476 1477 1480 -1 1477 1481 1480 -1 1477 1489 1491 -1 1477 1491 1481 -1 1478 1482 1483 -1 1478 1483 1479 -1 1479 1483 1493 -1 1479 1493 1487 -1 1480 1481 1482 -1 1481 1483 1482 -1 1481 1491 1495 -1 1481 1495 1483 -1 1483 1495 1497 -1 1483 1497 1493 -1 1484 1488 1489 -1 1484 1489 1485 -1 1486 1487 1492 -1 1487 1493 1492 -1 1488 1490 1491 -1 1488 1491 1489 -1 1490 1494 1495 -1 1490 1495 1491 -1 1492 1493 1496 -1 1493 1497 1496 -1 1494 1496 1497 -1 1494 1497 1495 -1 1498 1500 1501 -1 1498 1501 1499 -1 "
						                >
							<Coordinate USE="coords_ME_OpenSCAD_Model" />
						</IndexedFaceSet>
					</Shape>
				</Group>
			</Transform>
		</Transform>
	</Scene>
</X3D>