<?xml version="1.0" encoding="UTF-8"?>
<!DOCTYPE X3D PUBLIC "ISO//Web3D//DTD X3D 3.0//EN" "http://www.web3d.org/specifications/x3d-3.0.dtd">
<X3D version="3.0" profile="Immersive" xmlns:xsd="http://www.w3.org/2001/XMLSchema-instance" xsd:noNamespaceSchemaLocation="http://www.web3d.org/specifications/x3d-3.0.xsd">
	<head>
		<meta name="filename" content="C04-01043A.x3d" />
		<meta name="created" content="2026-02-22 02:32:46" />
		<meta name="generator" content="Blender 5.0.1" />
		<meta name="translator" content="Web3D X3D/VRML2 format v2.5.1" />
	</head>
	<Scene>
		<NavigationInfo headlight="true"
		                visibilityLimit="0.0"
		                type='"EXAMINE", "ANY"'
		                avatarSize="0.25, 1.75, 0.75"
		                />
		<Transform DEF="OpenSCAD_Model_TRANSFORM"
		           translation="0.000000 0.000000 0.000000"
		           scale="0.001000 0.001000 0.001000"
		           rotation="-1.000000 0.000000 0.000000 1.570796"
		           >
			<Transform DEF="OpenSCAD_Model_ifs_TRANSFORM"
			           translation="0.000000 0.000000 0.000000"
			           scale="1.000000 1.000000 1.000000"
			           rotation="0.000000 1.000000 0.000000 0.000000"
			           >
				<Group DEF="group_ME_OpenSCAD_Model">
					<Shape>
						<Appearance>
							<Material DEF="MA_Color_1"
							          diffuseColor="0.000 0.000 0.000"
							          specularColor="0.401 0.401 0.401"
							          emissiveColor="0.000 0.000 0.000"
							          ambientIntensity="0.000"
							          shininess="0.500"
							          transparency="1.000"
							          />
						</Appearance>
						<IndexedFaceSet solid="false"
						                coordIndex="0 1 3 -1 0 2 1516 -1 0 3 2 -1 0 1514 1515 -1 0 1515 1 -1 0 1516 1514 -1 1 4 6 -1 1 6 3 -1 1 26 28 -1 1 28 4 -1 1 38 40 -1 1 40 26 -1 1 66 38 -1 1 112 66 -1 1 202 112 -1 1 350 202 -1 1 360 350 -1 1 510 360 -1 1 512 510 -1 1 678 512 -1 1 680 678 -1 1 816 680 -1 1 818 816 -1 1 940 818 -1 1 1004 940 -1 1 1130 1004 -1 1 1144 1130 -1 1 1178 1144 -1 1 1515 1178 -1 2 3 1516 -1 3 6 12 -1 3 8 10 -1 3 10 20 -1 3 12 8 -1 3 20 74 -1 3 74 340 -1 3 318 342 -1 3 340 318 -1 3 342 376 -1 3 376 424 -1 3 424 476 -1 3 476 526 -1 3 526 1517 -1 3 1517 1516 -1 4 28 94 -1 4 94 98 -1 4 96 22 -1 4 98 108 -1 4 104 96 -1 4 108 104 -1 8 12 14 -1 16 24 18 -1 18 24 32 -1 20 42 74 -1 22 32 24 -1 22 96 100 -1 22 100 32 -1 26 40 30 -1 28 46 116 -1 28 102 94 -1 28 116 102 -1 30 40 50 -1 32 100 34 -1 34 62 64 -1 34 64 76 -1 34 76 78 -1 34 100 110 -1 34 110 62 -1 36 52 44 -1 40 48 50 -1 44 52 70 -1 44 58 60 -1 44 60 46 -1 44 70 58 -1 46 60 160 -1 46 160 116 -1 54 68 88 -1 54 88 56 -1 56 88 72 -1 60 82 160 -1 62 110 154 -1 62 154 188 -1 62 188 222 -1 62 222 256 -1 62 256 132 -1 66 112 114 -1 66 114 156 -1 66 156 158 -1 66 158 68 -1 68 158 88 -1 72 88 80 -1 74 138 340 -1 80 84 86 -1 80 86 82 -1 80 88 84 -1 82 86 316 -1 82 178 160 -1 82 316 178 -1 86 150 316 -1 90 134 302 -1 90 136 92 -1 90 302 322 -1 90 322 136 -1 104 108 118 -1 106 172 148 -1 108 152 118 -1 118 152 162 -1 120 128 246 -1 120 246 124 -1 122 130 248 -1 122 248 126 -1 124 246 140 -1 126 248 142 -1 128 144 246 -1 130 146 248 -1 132 256 284 -1 132 284 364 -1 132 364 134 -1 134 300 302 -1 134 364 300 -1 136 296 298 -1 136 298 374 -1 136 322 296 -1 136 340 138 -1 136 374 340 -1 140 246 164 -1 142 248 166 -1 144 168 246 -1 146 170 248 -1 148 172 218 -1 148 194 196 -1 148 196 150 -1 148 218 194 -1 150 196 314 -1 150 314 316 -1 152 180 162 -1 152 186 292 -1 152 226 180 -1 152 264 226 -1 152 292 264 -1 164 246 190 -1 166 248 192 -1 168 182 246 -1 170 184 248 -1 174 204 286 -1 174 286 176 -1 176 270 236 -1 176 274 270 -1 176 286 274 -1 178 316 438 -1 178 438 224 -1 182 206 258 -1 182 258 246 -1 184 208 248 -1 186 220 292 -1 190 246 198 -1 192 248 200 -1 196 272 314 -1 198 246 210 -1 200 248 212 -1 202 350 204 -1 204 350 286 -1 206 214 258 -1 208 216 248 -1 210 238 228 -1 210 246 238 -1 212 240 230 -1 212 248 240 -1 214 232 258 -1 216 234 248 -1 220 254 292 -1 224 438 262 -1 232 242 258 -1 234 244 248 -1 242 250 258 -1 244 252 248 -1 248 252 268 -1 248 268 308 -1 248 308 260 -1 250 266 278 -1 250 278 258 -1 254 258 278 -1 254 278 280 -1 254 280 292 -1 256 260 282 -1 256 282 284 -1 260 308 282 -1 262 288 290 -1 262 290 304 -1 262 304 306 -1 262 306 266 -1 262 438 288 -1 264 292 294 -1 264 294 308 -1 264 308 268 -1 266 306 278 -1 270 274 276 -1 270 276 272 -1 272 276 314 -1 276 348 314 -1 280 362 292 -1 282 308 310 -1 288 438 378 -1 292 362 382 -1 298 460 374 -1 300 364 448 -1 300 448 502 -1 300 502 478 -1 302 320 322 -1 312 372 346 -1 314 348 398 -1 316 344 438 -1 324 380 326 -1 326 380 368 -1 328 352 330 -1 328 356 386 -1 328 386 410 -1 328 390 352 -1 328 410 426 -1 328 418 390 -1 328 426 434 -1 328 430 418 -1 328 434 430 -1 332 384 334 -1 334 384 370 -1 336 354 338 -1 336 358 388 -1 336 388 412 -1 336 392 354 -1 336 412 428 -1 336 420 392 -1 336 428 436 -1 336 432 420 -1 336 436 432 -1 346 372 450 -1 346 450 348 -1 348 450 398 -1 360 510 440 -1 362 446 382 -1 366 400 484 -1 366 484 394 -1 368 380 414 -1 370 384 694 -1 370 496 498 -1 370 498 416 -1 370 694 780 -1 370 780 496 -1 374 460 422 -1 378 438 472 -1 378 472 488 -1 378 488 490 -1 378 490 380 -1 380 490 414 -1 382 446 494 -1 382 494 556 -1 382 556 618 -1 382 618 384 -1 384 618 694 -1 394 484 516 -1 394 516 508 -1 396 486 456 -1 398 450 458 -1 398 458 482 -1 398 482 484 -1 398 484 400 -1 402 480 404 -1 404 480 466 -1 406 452 408 -1 406 454 504 -1 406 504 530 -1 406 506 452 -1 406 530 548 -1 406 534 506 -1 406 548 552 -1 406 550 534 -1 406 552 550 -1 414 490 442 -1 416 498 444 -1 422 460 474 -1 442 490 518 -1 442 518 462 -1 444 498 522 -1 444 522 464 -1 446 468 492 -1 446 492 494 -1 448 470 500 -1 448 500 502 -1 458 514 536 -1 458 536 538 -1 458 538 482 -1 460 576 474 -1 462 518 468 -1 464 522 524 -1 464 524 470 -1 466 480 532 -1 468 518 520 -1 468 520 492 -1 470 524 500 -1 472 554 588 -1 472 566 488 -1 472 588 590 -1 472 590 566 -1 474 576 528 -1 478 502 558 -1 478 558 622 -1 478 622 698 -1 478 632 634 -1 478 634 480 -1 478 698 840 -1 478 840 878 -1 478 878 926 -1 478 926 970 -1 478 970 632 -1 480 634 532 -1 482 538 602 -1 482 602 578 -1 496 780 570 -1 512 600 582 -1 512 604 600 -1 512 614 604 -1 512 678 614 -1 514 564 536 -1 526 560 1517 -1 528 576 638 -1 528 638 562 -1 532 634 574 -1 540 568 542 -1 542 568 650 -1 544 572 546 -1 546 572 652 -1 554 580 612 -1 554 612 588 -1 556 616 618 -1 556 642 616 -1 558 620 622 -1 558 646 620 -1 560 584 1517 -1 562 638 586 -1 566 590 674 -1 566 650 568 -1 566 674 650 -1 570 652 572 -1 570 780 838 -1 570 838 876 -1 570 876 924 -1 570 924 966 -1 570 966 652 -1 574 634 684 -1 574 684 598 -1 576 608 636 -1 576 636 638 -1 578 592 594 -1 578 594 580 -1 578 602 592 -1 580 594 612 -1 584 596 1517 -1 586 638 798 -1 586 798 596 -1 592 602 606 -1 592 606 664 -1 592 664 658 -1 594 610 612 -1 596 798 1070 -1 596 1070 1517 -1 598 684 608 -1 600 604 606 -1 600 606 602 -1 608 684 636 -1 616 642 644 -1 620 646 648 -1 624 660 626 -1 626 660 676 -1 628 654 630 -1 628 656 688 -1 628 688 654 -1 632 970 972 -1 632 972 792 -1 634 682 684 -1 640 686 662 -1 650 674 666 -1 652 966 670 -1 656 690 710 -1 656 704 688 -1 656 710 704 -1 658 664 730 -1 658 730 660 -1 660 730 676 -1 662 686 742 -1 662 742 664 -1 664 742 730 -1 666 674 706 -1 666 706 750 -1 666 714 720 -1 666 720 668 -1 666 724 714 -1 666 750 724 -1 668 720 692 -1 670 696 672 -1 670 716 722 -1 670 722 696 -1 670 726 716 -1 670 752 726 -1 670 786 752 -1 670 966 968 -1 670 968 786 -1 680 816 738 -1 690 702 708 -1 690 708 712 -1 690 712 710 -1 692 720 746 -1 692 746 780 -1 692 780 694 -1 696 722 748 -1 696 748 698 -1 698 748 782 -1 698 782 840 -1 700 770 718 -1 706 728 784 -1 706 784 750 -1 718 770 824 -1 718 824 732 -1 728 740 814 -1 728 814 784 -1 730 742 760 -1 730 760 788 -1 732 824 744 -1 734 794 846 -1 734 796 736 -1 734 846 860 -1 734 860 796 -1 740 754 812 -1 740 812 814 -1 744 812 754 -1 744 824 812 -1 756 766 914 -1 756 914 762 -1 758 768 912 -1 758 912 764 -1 760 808 788 -1 760 820 826 -1 760 826 828 -1 760 828 808 -1 762 914 772 -1 764 912 774 -1 766 776 834 -1 766 834 856 -1 766 856 872 -1 766 872 894 -1 766 894 906 -1 766 906 914 -1 768 778 912 -1 770 790 824 -1 772 914 800 -1 774 912 802 -1 776 804 834 -1 778 806 912 -1 784 814 830 -1 786 968 832 -1 788 808 810 -1 788 810 790 -1 790 810 824 -1 792 904 794 -1 792 972 988 -1 792 988 904 -1 794 862 846 -1 794 904 862 -1 796 860 898 -1 796 898 798 -1 798 898 982 -1 798 982 1070 -1 800 914 948 -1 800 948 842 -1 802 912 844 -1 806 836 912 -1 808 828 920 -1 808 920 884 -1 810 822 824 -1 814 870 830 -1 818 918 892 -1 818 940 942 -1 818 942 964 -1 818 944 918 -1 818 964 944 -1 820 864 826 -1 830 870 880 -1 832 968 882 -1 836 858 930 -1 836 930 912 -1 842 948 852 -1 844 912 854 -1 848 886 850 -1 850 886 952 -1 852 948 866 -1 854 912 868 -1 858 874 930 -1 866 900 888 -1 866 948 900 -1 868 902 890 -1 868 912 902 -1 870 934 880 -1 870 958 1032 -1 870 974 934 -1 870 1032 974 -1 874 896 930 -1 882 968 936 -1 884 920 946 -1 884 946 952 -1 884 952 886 -1 896 908 930 -1 900 948 910 -1 908 916 930 -1 910 948 928 -1 916 950 970 -1 916 970 930 -1 918 944 946 -1 918 946 920 -1 922 938 1196 -1 922 1196 932 -1 924 928 966 -1 926 930 970 -1 928 948 966 -1 932 1196 956 -1 934 974 976 -1 934 976 992 -1 934 992 948 -1 936 968 978 -1 936 978 980 -1 936 980 994 -1 936 994 996 -1 936 996 950 -1 938 960 1196 -1 942 962 964 -1 946 954 952 -1 946 998 954 -1 948 992 966 -1 950 996 970 -1 954 998 1008 -1 954 1008 1010 -1 954 1010 1040 -1 956 1196 1000 -1 960 1002 1196 -1 968 1042 978 -1 972 1044 1244 -1 972 1066 988 -1 972 1150 1066 -1 972 1216 1150 -1 972 1244 1216 -1 974 1032 1116 -1 974 1116 1464 -1 974 1464 1515 -1 974 1515 1050 -1 976 990 992 -1 978 1042 1122 -1 978 1122 1158 -1 978 1158 1054 -1 984 1006 986 -1 986 1006 1130 -1 998 1090 1092 -1 998 1092 1008 -1 998 1126 1090 -1 1000 1196 1072 -1 1002 1068 1196 -1 1004 1130 1006 -1 1008 1092 1110 -1 1010 1038 1040 -1 1012 1052 1014 -1 1014 1052 1046 -1 1016 1028 1018 -1 1016 1034 1058 -1 1016 1058 1078 -1 1016 1062 1028 -1 1016 1078 1094 -1 1016 1086 1062 -1 1016 1094 1102 -1 1016 1098 1086 -1 1016 1102 1098 -1 1020 1056 1022 -1 1022 1056 1048 -1 1024 1030 1026 -1 1024 1036 1060 -1 1024 1060 1080 -1 1024 1064 1030 -1 1024 1080 1096 -1 1024 1088 1064 -1 1024 1096 1104 -1 1024 1100 1088 -1 1024 1104 1100 -1 1044 1124 1244 -1 1046 1052 1082 -1 1048 1056 1084 -1 1050 1152 1154 -1 1050 1154 1052 -1 1050 1515 1152 -1 1052 1154 1082 -1 1054 1158 1220 -1 1054 1160 1162 -1 1054 1162 1056 -1 1054 1220 1254 -1 1054 1254 1160 -1 1056 1162 1084 -1 1068 1108 1210 -1 1068 1210 1196 -1 1070 1148 1517 -1 1072 1196 1106 -1 1074 1112 1076 -1 1076 1112 1346 -1 1076 1346 1364 -1 1076 1364 1406 -1 1076 1406 1426 -1 1076 1426 1114 -1 1082 1154 1118 -1 1084 1162 1120 -1 1090 1126 1128 -1 1092 1174 1110 -1 1106 1196 1136 -1 1108 1142 1210 -1 1110 1174 1184 -1 1110 1184 1236 -1 1110 1236 1112 -1 1112 1236 1276 -1 1112 1276 1346 -1 1114 1426 1116 -1 1116 1426 1464 -1 1118 1154 1186 -1 1118 1186 1132 -1 1120 1162 1190 -1 1120 1190 1134 -1 1122 1138 1156 -1 1122 1156 1158 -1 1124 1140 1164 -1 1124 1164 1166 -1 1124 1166 1244 -1 1132 1186 1188 -1 1132 1188 1138 -1 1134 1190 1140 -1 1136 1176 1168 -1 1136 1196 1176 -1 1138 1188 1156 -1 1140 1190 1192 -1 1140 1192 1164 -1 1142 1170 1210 -1 1144 1172 1146 -1 1144 1178 1180 -1 1144 1180 1214 -1 1144 1182 1172 -1 1144 1214 1182 -1 1148 1208 1517 -1 1152 1515 1228 -1 1160 1254 1232 -1 1166 1222 1244 -1 1170 1194 1210 -1 1172 1182 1184 -1 1172 1184 1174 -1 1178 1515 1238 -1 1180 1212 1214 -1 1194 1198 1210 -1 1198 1218 1210 -1 1200 1230 1202 -1 1202 1230 1286 -1 1204 1234 1206 -1 1206 1234 1288 -1 1208 1210 1248 -1 1208 1248 1517 -1 1210 1218 1294 -1 1210 1246 1248 -1 1210 1294 1296 -1 1210 1296 1246 -1 1216 1242 1218 -1 1216 1244 1242 -1 1218 1242 1250 -1 1218 1250 1398 -1 1218 1340 1294 -1 1218 1356 1340 -1 1218 1378 1356 -1 1218 1390 1378 -1 1218 1398 1390 -1 1220 1252 1254 -1 1220 1278 1252 -1 1222 1256 1258 -1 1222 1258 1244 -1 1222 1282 1256 -1 1224 1240 1226 -1 1226 1240 1316 -1 1228 1286 1230 -1 1228 1515 1286 -1 1232 1254 1288 -1 1232 1288 1234 -1 1236 1274 1276 -1 1236 1312 1274 -1 1238 1316 1240 -1 1238 1515 1316 -1 1244 1258 1270 -1 1246 1296 1260 -1 1248 1264 1517 -1 1250 1262 1310 -1 1250 1310 1332 -1 1250 1332 1352 -1 1250 1352 1376 -1 1250 1376 1388 -1 1250 1388 1398 -1 1252 1278 1280 -1 1254 1326 1288 -1 1256 1282 1284 -1 1258 1330 1270 -1 1260 1272 1266 -1 1260 1296 1342 -1 1260 1298 1272 -1 1260 1318 1298 -1 1260 1334 1318 -1 1260 1342 1350 -1 1260 1348 1334 -1 1260 1350 1368 -1 1260 1366 1348 -1 1260 1368 1374 -1 1260 1372 1366 -1 1260 1374 1380 -1 1260 1380 1372 -1 1262 1268 1292 -1 1262 1292 1310 -1 1264 1290 1517 -1 1270 1330 1338 -1 1274 1312 1314 -1 1286 1515 1300 -1 1288 1326 1304 -1 1290 1308 1517 -1 1300 1324 1302 -1 1300 1515 1324 -1 1304 1326 1515 -1 1304 1328 1306 -1 1304 1515 1328 -1 1308 1336 1517 -1 1316 1515 1320 -1 1320 1344 1322 -1 1320 1358 1360 -1 1320 1360 1384 -1 1320 1362 1344 -1 1320 1384 1362 -1 1320 1515 1358 -1 1324 1515 1326 -1 1328 1515 1330 -1 1330 1370 1338 -1 1330 1404 1370 -1 1330 1428 1404 -1 1330 1510 1428 -1 1330 1515 1510 -1 1336 1400 1517 -1 1344 1362 1364 -1 1344 1364 1346 -1 1354 1392 1386 -1 1358 1515 1408 -1 1360 1382 1384 -1 1386 1392 1412 -1 1386 1412 1402 -1 1394 1410 1396 -1 1396 1410 1440 -1 1400 1416 1434 -1 1400 1434 1517 -1 1402 1412 1476 -1 1402 1476 1414 -1 1404 1428 1430 -1 1404 1430 1418 -1 1406 1424 1426 -1 1406 1436 1424 -1 1408 1440 1410 -1 1408 1515 1440 -1 1412 1420 1476 -1 1414 1432 1416 -1 1414 1442 1432 -1 1414 1476 1482 -1 1414 1482 1488 -1 1414 1488 1492 -1 1414 1492 1442 -1 1416 1432 1434 -1 1418 1430 1452 -1 1418 1452 1422 -1 1420 1422 1470 -1 1420 1470 1476 -1 1422 1452 1470 -1 1424 1436 1438 -1 1434 1456 1517 -1 1440 1515 1448 -1 1442 1454 1446 -1 1442 1460 1454 -1 1442 1466 1460 -1 1442 1472 1466 -1 1442 1478 1472 -1 1442 1486 1478 -1 1442 1490 1486 -1 1442 1492 1494 -1 1442 1494 1490 -1 1444 1512 1458 -1 1448 1462 1450 -1 1448 1515 1462 -1 1456 1474 1517 -1 1458 1512 1468 -1 1462 1515 1464 -1 1468 1512 1480 -1 1474 1484 1517 -1 1480 1512 1496 -1 1484 1498 1517 -1 1496 1512 1517 -1 1496 1517 1500 -1 1498 1504 1517 -1 1500 1517 1502 -1 1502 1517 1506 -1 1504 1508 1517 -1 1506 1517 1508 -1 1510 1515 1512 -1 1512 1515 1517 -1 1514 1516 1515 -1 1515 1516 1517 -1 "
						                >
							<Coordinate DEF="coords_ME_OpenSCAD_Model"
							            point="0.000000 0.000000 0.000000 0.000000 0.000000 0.600000 0.000000 0.850000 0.000000 0.000000 0.850000 0.600000 0.148924 0.607142 0.600000 0.148924 0.607142 0.800000 0.148924 0.611070 0.600000 0.148924 0.611070 0.800000 0.148924 0.702596 0.600000 0.148924 0.702596 0.800000 0.148924 0.706524 0.600000 0.148924 0.706524 0.800000 0.161671 0.613071 0.600000 0.161671 0.613071 0.800000 0.161671 0.700668 0.600000 0.161671 0.700668 0.800000 0.169452 0.613071 0.600000 0.169452 0.613071 0.800000 0.169452 0.692591 0.600000 0.169452 0.692591 0.800000 0.179012 0.706524 0.600000 0.179012 0.706524 0.800000 0.182791 0.607142 0.600000 0.182791 0.607142 0.800000 0.182791 0.611070 0.600000 0.182791 0.611070 0.800000 0.194114 0.174458 0.600000 0.194114 0.174458 0.800000 0.194114 0.176640 0.600000 0.194114 0.176640 0.800000 0.200330 0.173387 0.600000 0.200330 0.173387 0.800000 0.205840 0.607142 0.600000 0.205840 0.607142 0.800000 0.208433 0.607142 0.600000 0.208433 0.607142 0.800000 0.210047 0.173387 0.600000 0.210047 0.173387 0.800000 0.210953 0.121428 0.600000 0.210953 0.121428 0.800000 0.210953 0.123610 0.600000 0.210953 0.123610 0.800000 0.211324 0.630932 0.600000 0.211324 0.630932 0.800000 0.217458 0.174458 0.600000 0.217458 0.174458 0.800000 0.217458 0.176640 0.600000 0.217458 0.176640 0.800000 0.219722 0.124722 0.600000 0.219722 0.124722 0.800000 0.219722 0.142920 0.600000 0.219722 0.142920 0.800000 0.225898 0.147901 0.600000 0.225898 0.147901 0.800000 0.227669 0.124722 0.600000 0.227669 0.124722 0.800000 0.227669 0.143167 0.600000 0.227669 0.143167 0.800000 0.233968 0.174458 0.600000 0.233968 0.174458 0.800000 0.233968 0.176640 0.600000 0.233968 0.176640 0.800000 0.234742 0.607142 0.600000 0.234742 0.607142 0.800000 0.234742 0.611070 0.600000 0.234742 0.611070 0.800000 0.236438 0.121428 0.600000 0.236438 0.121428 0.800000 0.236438 0.123610 0.600000 0.236438 0.123610 0.800000 0.240967 0.173387 0.600000 0.240967 0.173387 0.800000 0.245867 0.173387 0.600000 0.245867 0.173387 0.800000 0.246600 0.706524 0.600000 0.246600 0.706524 0.800000 0.248082 0.613071 0.600000 0.248082 0.613071 0.800000 0.248082 0.692591 0.600000 0.248082 0.692591 0.800000 0.251919 0.174458 0.600000 0.251919 0.174458 0.800000 0.251919 0.176640 0.600000 0.251919 0.176640 0.800000 0.255011 0.174458 0.600000 0.255011 0.174458 0.800000 0.255011 0.176640 0.600000 0.255011 0.176640 0.800000 0.261227 0.173387 0.600000 0.261227 0.173387 0.800000 0.262311 0.613071 0.600000 0.262311 0.613071 0.800000 0.262311 0.700668 0.600000 0.262311 0.700668 0.800000 0.264419 0.391253 0.600000 0.264419 0.391253 0.800000 0.264419 0.512681 0.600000 0.264419 0.512681 0.800000 0.266220 0.403764 0.600000 0.266220 0.403764 0.800000 0.266220 0.525192 0.600000 0.266220 0.525192 0.800000 0.266292 0.379544 0.600000 0.266292 0.379544 0.800000 0.266292 0.500973 0.600000 0.266292 0.500973 0.800000 0.270944 0.173387 0.600000 0.270944 0.173387 0.800000 0.271624 0.412806 0.600000 0.271624 0.412806 0.800000 0.271624 0.534235 0.600000 0.271624 0.534235 0.800000 0.271850 0.121428 0.600000 0.271850 0.121428 0.800000 0.271850 0.123610 0.600000 0.271850 0.123610 0.800000 0.271912 0.370770 0.600000 0.271912 0.370770 0.800000 0.271912 0.492198 0.600000 0.271912 0.492198 0.800000 0.273024 0.391335 0.600000 0.273024 0.391335 0.800000 0.273024 0.512764 0.600000 0.273024 0.512764 0.800000 0.274238 0.402678 0.600000 0.274238 0.402678 0.800000 0.274238 0.524106 0.600000 0.274238 0.524106 0.800000 0.274295 0.380733 0.600000 0.274295 0.380733 0.800000 0.274295 0.502162 0.600000 0.274295 0.502162 0.800000 0.275058 0.607142 0.600000 0.275058 0.607142 0.800000 0.275058 0.611070 0.600000 0.275058 0.611070 0.800000 0.275058 0.702596 0.600000 0.275058 0.702596 0.800000 0.275058 0.706524 0.600000 0.275058 0.706524 0.800000 0.277882 0.410604 0.600000 0.277882 0.410604 0.800000 0.277882 0.532032 0.600000 0.277882 0.532032 0.800000 0.278109 0.372972 0.600000 0.278109 0.372972 0.800000 0.278109 0.494401 0.600000 0.278109 0.494401 0.800000 0.278355 0.174458 0.600000 0.278355 0.174458 0.800000 0.278355 0.176640 0.600000 0.278355 0.176640 0.800000 0.280569 0.418287 0.600000 0.280569 0.418287 0.800000 0.280569 0.539716 0.600000 0.280569 0.539716 0.800000 0.280619 0.124722 0.600000 0.280619 0.124722 0.800000 0.280619 0.142920 0.600000 0.280619 0.142920 0.800000 0.280888 0.365289 0.600000 0.280888 0.365289 0.800000 0.280888 0.486717 0.600000 0.280888 0.486717 0.800000 0.284171 0.415266 0.600000 0.284171 0.415266 0.800000 0.284171 0.536695 0.600000 0.284171 0.536695 0.800000 0.284351 0.368217 0.600000 0.284351 0.368217 0.800000 0.284351 0.489646 0.600000 0.284351 0.489646 0.800000 0.286795 0.147901 0.600000 0.286795 0.147901 0.800000 0.288566 0.124722 0.600000 0.288566 0.124722 0.800000 0.288566 0.143167 0.600000 0.288566 0.143167 0.800000 0.292828 0.363462 0.600000 0.292828 0.363462 0.800000 0.292828 0.484891 0.600000 0.292828 0.484891 0.800000 0.292910 0.366632 0.600000 0.292910 0.366632 0.800000 0.292910 0.488060 0.600000 0.292910 0.488060 0.800000 0.292992 0.420114 0.600000 0.292992 0.420114 0.800000 0.292992 0.541543 0.600000 0.292992 0.541543 0.800000 0.293322 0.416821 0.600000 0.293322 0.416821 0.800000 0.293322 0.538249 0.600000 0.293322 0.538249 0.800000 0.294865 0.174458 0.600000 0.294865 0.174458 0.800000 0.294865 0.176640 0.600000 0.294865 0.176640 0.800000 0.297238 0.416579 0.600000 0.297238 0.416579 0.800000 0.297238 0.538007 0.600000 0.297238 0.538007 0.800000 0.297335 0.121428 0.600000 0.297335 0.121428 0.800000 0.297335 0.123610 0.600000 0.297335 0.123610 0.800000 0.297470 0.366915 0.600000 0.297470 0.366915 0.800000 0.297470 0.488343 0.600000 0.297470 0.488343 0.800000 0.301082 0.415853 0.600000 0.301082 0.415853 0.800000 0.301082 0.537282 0.600000 0.301082 0.537282 0.800000 0.301762 0.367764 0.600000 0.301762 0.367764 0.800000 0.301762 0.489193 0.600000 0.301762 0.489193 0.800000 0.301864 0.173387 0.600000 0.301864 0.173387 0.800000 0.301916 0.419589 0.600000 0.301916 0.419589 0.800000 0.301916 0.541018 0.600000 0.301916 0.541018 0.800000 0.302904 0.364110 0.600000 0.302904 0.364110 0.800000 0.302904 0.485539 0.600000 0.302904 0.485539 0.800000 0.304659 0.414685 0.600000 0.304659 0.414685 0.800000 0.304659 0.536114 0.600000 0.304659 0.536114 0.800000 0.305488 0.369087 0.600000 0.305488 0.369087 0.800000 0.305488 0.490515 0.600000 0.305488 0.490515 0.800000 0.306764 0.173387 0.600000 0.306764 0.173387 0.800000 0.307773 0.413115 0.600000 0.307773 0.413115 0.800000 0.307773 0.534544 0.600000 0.307773 0.534544 0.800000 0.308349 0.370790 0.600000 0.308349 0.370790 0.800000 0.308349 0.492219 0.600000 0.308349 0.492219 0.800000 0.309008 0.405951 0.600000 0.309008 0.405951 0.800000 0.309008 0.527380 0.600000 0.309008 0.527380 0.800000 0.309872 0.379025 0.600000 0.309872 0.379025 0.800000 0.309872 0.500453 0.600000 0.309872 0.500453 0.800000 0.311478 0.418014 0.600000 0.311478 0.418014 0.800000 0.311478 0.539443 0.600000 0.311478 0.539443 0.800000 0.311725 0.405951 0.600000 0.311725 0.405951 0.800000 0.311725 0.527380 0.600000 0.311725 0.527380 0.800000 0.312302 0.366056 0.600000 0.312302 0.366056 0.800000 0.312302 0.487484 0.600000 0.312302 0.487484 0.800000 0.312549 0.379025 0.600000 0.312549 0.379025 0.800000 0.312549 0.500453 0.600000 0.312549 0.500453 0.800000 0.312816 0.174458 0.600000 0.312816 0.174458 0.800000 0.312816 0.176640 0.600000 0.312816 0.176640 0.800000 0.315043 0.174458 0.600000 0.315043 0.174458 0.800000 0.315043 0.176640 0.600000 0.315043 0.176640 0.800000 0.319634 0.417315 0.600000 0.319634 0.417315 0.800000 0.319634 0.419497 0.600000 0.319634 0.419497 0.800000 0.319634 0.538744 0.600000 0.319634 0.538744 0.800000 0.319634 0.540926 0.600000 0.319634 0.540926 0.800000 0.319860 0.173387 0.600000 0.319860 0.173387 0.800000 0.320170 0.364285 0.600000 0.320170 0.364285 0.800000 0.320170 0.366467 0.600000 0.320170 0.366467 0.800000 0.320170 0.485714 0.600000 0.320170 0.485714 0.800000 0.320170 0.487896 0.600000 0.320170 0.487896 0.800000 0.321832 0.702596 0.600000 0.321832 0.702596 0.800000 0.321832 0.706524 0.600000 0.321832 0.706524 0.800000 0.322796 0.607142 0.600000 0.322796 0.607142 0.800000 0.322796 0.611070 0.600000 0.322796 0.611070 0.800000 0.326716 0.367579 0.600000 0.326716 0.367579 0.800000 0.326716 0.416244 0.600000 0.326716 0.416244 0.800000 0.326716 0.489008 0.600000 0.326716 0.489008 0.800000 0.326716 0.537672 0.600000 0.326716 0.537672 0.800000 0.328012 0.173387 0.600000 0.328012 0.173387 0.800000 0.329762 0.242857 0.600000 0.329762 0.242857 0.800000 0.329762 0.245039 0.600000 0.329762 0.245039 0.800000 0.333350 0.751299 0.600000 0.333350 0.751299 0.800000 0.334579 0.613071 0.600000 0.334579 0.613071 0.800000 0.334579 0.700668 0.600000 0.334579 0.700668 0.800000 0.334662 0.367579 0.600000 0.334662 0.367579 0.800000 0.334662 0.385941 0.600000 0.334662 0.385941 0.800000 0.334662 0.389647 0.600000 0.334662 0.389647 0.800000 0.334662 0.415791 0.600000 0.334662 0.415791 0.800000 0.334662 0.489008 0.600000 0.334662 0.489008 0.800000 0.334662 0.507370 0.600000 0.334662 0.507370 0.800000 0.334662 0.511076 0.600000 0.334662 0.511076 0.800000 0.334662 0.537220 0.600000 0.334662 0.537220 0.800000 0.335480 0.739996 0.600000 0.335480 0.739996 0.800000 0.335511 0.762908 0.600000 0.335511 0.762908 0.800000 0.336021 0.246150 0.600000 0.336021 0.246150 0.800000 0.336123 0.174458 0.600000 0.336123 0.174458 0.800000 0.336123 0.176640 0.600000 0.336123 0.176640 0.800000 0.338140 0.120152 0.600000 0.338140 0.120152 0.800000 0.338697 0.415791 0.600000 0.338697 0.415791 0.800000 0.338697 0.537220 0.600000 0.338697 0.537220 0.800000 0.338944 0.389647 0.600000 0.338944 0.389647 0.800000 0.338944 0.511076 0.600000 0.338944 0.511076 0.800000 0.340323 0.120152 0.600000 0.340323 0.120152 0.800000 0.340467 0.419497 0.600000 0.340467 0.419497 0.800000 0.340467 0.540926 0.600000 0.340467 0.540926 0.800000 0.340508 0.246150 0.600000 0.340508 0.246150 0.800000 0.340879 0.385941 0.600000 0.340879 0.385941 0.800000 0.340879 0.507370 0.600000 0.340879 0.507370 0.800000 0.341146 0.134480 0.600000 0.341146 0.134480 0.800000 0.341871 0.730298 0.600000 0.341871 0.730298 0.800000 0.341994 0.772540 0.600000 0.341994 0.772540 0.800000 0.343432 0.364285 0.600000 0.343432 0.364285 0.800000 0.343432 0.366467 0.600000 0.343432 0.366467 0.800000 0.343432 0.485714 0.600000 0.343432 0.485714 0.800000 0.343432 0.487896 0.600000 0.343432 0.487896 0.800000 0.344991 0.390440 0.600000 0.344991 0.390440 0.800000 0.344991 0.511868 0.600000 0.344991 0.511868 0.800000 0.345109 0.415060 0.600000 0.345109 0.415060 0.800000 0.345109 0.536489 0.600000 0.345109 0.536489 0.800000 0.346067 0.262084 0.600000 0.346067 0.262084 0.800000 0.347302 0.265790 0.600000 0.347302 0.265790 0.800000 0.347920 0.242857 0.600000 0.347920 0.242857 0.800000 0.347920 0.245039 0.600000 0.347920 0.245039 0.800000 0.348883 0.613071 0.600000 0.348883 0.613071 0.800000 0.348883 0.646124 0.600000 0.348883 0.646124 0.800000 0.348883 0.652794 0.600000 0.348883 0.652794 0.800000 0.348883 0.699853 0.600000 0.348883 0.699853 0.800000 0.349216 0.392817 0.600000 0.349216 0.392817 0.800000 0.349216 0.514246 0.600000 0.349216 0.514246 0.800000 0.349355 0.387043 0.600000 0.349355 0.387043 0.800000 0.349355 0.508471 0.600000 0.349355 0.508471 0.800000 0.349360 0.412868 0.600000 0.349360 0.412868 0.800000 0.349360 0.534296 0.600000 0.349360 0.534296 0.800000 0.351475 0.723629 0.600000 0.351475 0.723629 0.800000 0.351630 0.779026 0.600000 0.351630 0.779026 0.800000 0.351702 0.396986 0.600000 0.351702 0.396986 0.800000 0.351702 0.518415 0.600000 0.351702 0.518415 0.800000 0.351738 0.408977 0.600000 0.351738 0.408977 0.800000 0.351738 0.530406 0.600000 0.351738 0.530406 0.800000 0.352530 0.403151 0.600000 0.352530 0.403151 0.800000 0.352530 0.524580 0.600000 0.352530 0.524580 0.800000 0.354836 0.298521 0.600000 0.354836 0.298521 0.800000 0.355021 0.158195 0.600000 0.355021 0.158195 0.800000 0.355598 0.390347 0.600000 0.355598 0.390347 0.800000 0.355598 0.511775 0.600000 0.355598 0.511775 0.800000 0.355660 0.415431 0.600000 0.355660 0.415431 0.800000 0.355660 0.536860 0.600000 0.355660 0.536860 0.800000 0.356009 0.172769 0.600000 0.356009 0.172769 0.800000 0.356145 0.699853 0.600000 0.356145 0.699853 0.800000 0.356589 0.652794 0.600000 0.356589 0.652794 0.800000 0.356771 0.292593 0.600000 0.356771 0.292593 0.800000 0.357862 0.172769 0.600000 0.357862 0.172769 0.800000 0.359331 0.706524 0.600000 0.359331 0.706524 0.800000 0.359442 0.395771 0.600000 0.359442 0.395771 0.800000 0.359442 0.517200 0.600000 0.359442 0.517200 0.800000 0.360072 0.646124 0.600000 0.360072 0.646124 0.800000 0.360724 0.403234 0.600000 0.360724 0.403234 0.800000 0.360724 0.524663 0.600000 0.360724 0.524663 0.800000 0.362659 0.298521 0.600000 0.362659 0.298521 0.800000 0.363240 0.721405 0.600000 0.363240 0.721405 0.800000 0.363240 0.781188 0.600000 0.363240 0.781188 0.800000 0.364668 0.607142 0.600000 0.364668 0.607142 0.800000 0.364668 0.611070 0.600000 0.364668 0.611070 0.800000 0.365870 0.242857 0.600000 0.365870 0.242857 0.800000 0.365870 0.245039 0.600000 0.365870 0.245039 0.800000 0.366529 0.265790 0.600000 0.366529 0.265790 0.800000 0.366532 0.364285 0.600000 0.366532 0.364285 0.800000 0.366532 0.366467 0.600000 0.366532 0.366467 0.800000 0.366532 0.417315 0.600000 0.366532 0.417315 0.800000 0.366532 0.419497 0.600000 0.366532 0.419497 0.800000 0.366532 0.485714 0.600000 0.366532 0.485714 0.800000 0.366532 0.487896 0.600000 0.366532 0.487896 0.800000 0.366532 0.538744 0.600000 0.366532 0.538744 0.800000 0.366532 0.540926 0.600000 0.366532 0.540926 0.800000 0.367474 0.654221 0.600000 0.367474 0.654221 0.800000 0.367687 0.698537 0.600000 0.367687 0.698537 0.800000 0.367805 0.262084 0.600000 0.367805 0.262084 0.800000 0.369348 0.120152 0.600000 0.369348 0.120152 0.800000 0.371531 0.120152 0.600000 0.371531 0.120152 0.800000 0.372189 0.134480 0.600000 0.372189 0.134480 0.800000 0.373281 0.246150 0.600000 0.373281 0.246150 0.800000 0.373613 0.367579 0.600000 0.373613 0.367579 0.800000 0.373613 0.416244 0.600000 0.373613 0.416244 0.800000 0.373613 0.489008 0.600000 0.373613 0.489008 0.800000 0.373613 0.537672 0.600000 0.373613 0.537672 0.800000 0.374848 0.779026 0.600000 0.374848 0.779026 0.800000 0.375003 0.723629 0.600000 0.375003 0.723629 0.800000 0.375079 0.658500 0.600000 0.375079 0.658500 0.800000 0.375330 0.648106 0.600000 0.375330 0.648106 0.800000 0.375338 0.694591 0.600000 0.375338 0.694591 0.800000 0.376101 0.174458 0.600000 0.376101 0.174458 0.800000 0.376101 0.176640 0.600000 0.376101 0.176640 0.800000 0.377936 0.367579 0.600000 0.377936 0.367579 0.800000 0.377936 0.413939 0.600000 0.377936 0.413939 0.800000 0.377936 0.489008 0.600000 0.377936 0.489008 0.800000 0.377936 0.535367 0.600000 0.377936 0.535367 0.800000 0.379554 0.666004 0.600000 0.379554 0.666004 0.800000 0.379619 0.687588 0.600000 0.379619 0.687588 0.800000 0.381045 0.677102 0.600000 0.381045 0.677102 0.800000 0.382215 0.246150 0.600000 0.382215 0.246150 0.800000 0.383248 0.419497 0.600000 0.383248 0.419497 0.800000 0.383248 0.540926 0.600000 0.383248 0.540926 0.800000 0.384481 0.772540 0.600000 0.384481 0.772540 0.800000 0.384605 0.730298 0.600000 0.384605 0.730298 0.800000 0.384706 0.173387 0.600000 0.384706 0.173387 0.800000 0.385347 0.364285 0.600000 0.385347 0.364285 0.800000 0.385347 0.366467 0.600000 0.385347 0.366467 0.800000 0.385347 0.485714 0.600000 0.385347 0.485714 0.800000 0.385347 0.487896 0.600000 0.385347 0.487896 0.800000 0.386566 0.654053 0.600000 0.386566 0.654053 0.800000 0.386678 0.699205 0.600000 0.386678 0.699205 0.800000 0.389215 0.242857 0.600000 0.389215 0.242857 0.800000 0.389215 0.245039 0.600000 0.389215 0.245039 0.800000 0.389564 0.173387 0.600000 0.389564 0.173387 0.800000 0.390967 0.762908 0.600000 0.390967 0.762908 0.800000 0.390998 0.739996 0.600000 0.390998 0.739996 0.800000 0.392265 0.295886 0.600000 0.392265 0.295886 0.800000 0.392265 0.298068 0.600000 0.392265 0.298068 0.800000 0.392801 0.242857 0.600000 0.392801 0.242857 0.800000 0.392801 0.245039 0.600000 0.392801 0.245039 0.800000 0.393129 0.751299 0.600000 0.393129 0.751299 0.800000 0.393487 0.663817 0.600000 0.393487 0.663817 0.800000 0.394381 0.174458 0.600000 0.394381 0.174458 0.800000 0.394381 0.176640 0.600000 0.394381 0.176640 0.800000 0.394634 0.174458 0.600000 0.394634 0.174458 0.800000 0.394634 0.176640 0.600000 0.394634 0.176640 0.800000 0.395793 0.677250 0.600000 0.395793 0.677250 0.800000 0.399347 0.246150 0.600000 0.399347 0.246150 0.800000 0.399347 0.294815 0.600000 0.399347 0.294815 0.800000 0.399451 0.173387 0.600000 0.399451 0.173387 0.800000 0.404245 0.417315 0.600000 0.404245 0.417315 0.800000 0.404245 0.419497 0.600000 0.404245 0.419497 0.800000 0.404245 0.538744 0.600000 0.404245 0.538744 0.800000 0.404245 0.540926 0.600000 0.404245 0.540926 0.800000 0.407293 0.246150 0.600000 0.407293 0.246150 0.800000 0.407293 0.267066 0.600000 0.407293 0.267066 0.800000 0.407293 0.270771 0.600000 0.407293 0.270771 0.800000 0.407293 0.294362 0.600000 0.407293 0.294362 0.800000 0.407359 0.607142 0.600000 0.407359 0.607142 0.800000 0.407359 0.611070 0.600000 0.407359 0.611070 0.800000 0.407359 0.702596 0.600000 0.407359 0.702596 0.800000 0.407359 0.706524 0.600000 0.407359 0.706524 0.800000 0.407603 0.173387 0.600000 0.407603 0.173387 0.800000 0.411656 0.378613 0.600000 0.411656 0.378613 0.800000 0.411656 0.416244 0.600000 0.411656 0.416244 0.800000 0.411656 0.500042 0.600000 0.411656 0.500042 0.800000 0.411656 0.537672 0.600000 0.411656 0.537672 0.800000 0.411985 0.364285 0.600000 0.411985 0.364285 0.800000 0.411985 0.485714 0.600000 0.411985 0.485714 0.800000 0.414333 0.294362 0.600000 0.414333 0.294362 0.800000 0.414580 0.270771 0.600000 0.414580 0.270771 0.800000 0.415651 0.242857 0.600000 0.415651 0.242857 0.800000 0.415651 0.245039 0.600000 0.415651 0.245039 0.800000 0.415714 0.174458 0.600000 0.415714 0.174458 0.800000 0.415714 0.176640 0.600000 0.415714 0.176640 0.800000 0.415979 0.364285 0.600000 0.415979 0.364285 0.800000 0.415979 0.416244 0.600000 0.415979 0.416244 0.800000 0.415979 0.485714 0.600000 0.415979 0.485714 0.800000 0.415979 0.537672 0.600000 0.415979 0.537672 0.800000 0.416104 0.298068 0.600000 0.416104 0.298068 0.800000 0.417215 0.267066 0.600000 0.417215 0.267066 0.800000 0.417731 0.120152 0.600000 0.417731 0.120152 0.800000 0.419913 0.120152 0.600000 0.419913 0.120152 0.800000 0.420106 0.613071 0.600000 0.420106 0.613071 0.800000 0.420106 0.700668 0.600000 0.420106 0.700668 0.800000 0.420736 0.134480 0.600000 0.420736 0.134480 0.800000 0.420874 0.293698 0.600000 0.420874 0.293698 0.800000 0.420885 0.271456 0.600000 0.420885 0.271456 0.800000 0.423061 0.417315 0.600000 0.423061 0.417315 0.800000 0.423061 0.419497 0.600000 0.423061 0.419497 0.800000 0.423061 0.538744 0.600000 0.423061 0.538744 0.800000 0.423061 0.540926 0.600000 0.423061 0.540926 0.800000 0.425038 0.268219 0.600000 0.425038 0.268219 0.800000 0.425058 0.273509 0.600000 0.425058 0.273509 0.800000 0.425100 0.291707 0.600000 0.425100 0.291707 0.800000 0.425120 0.297193 0.600000 0.425120 0.297193 0.800000 0.427390 0.277189 0.600000 0.427390 0.277189 0.800000 0.427400 0.288141 0.600000 0.427400 0.288141 0.800000 0.428167 0.282752 0.600000 0.428167 0.282752 0.800000 0.428458 0.391253 0.600000 0.428458 0.391253 0.800000 0.428458 0.512681 0.600000 0.428458 0.512681 0.800000 0.429773 0.270395 0.600000 0.429773 0.270395 0.800000 0.430259 0.403764 0.600000 0.430259 0.403764 0.800000 0.430259 0.525192 0.600000 0.430259 0.525192 0.800000 0.430331 0.379544 0.600000 0.430331 0.379544 0.800000 0.430331 0.500973 0.600000 0.430331 0.500973 0.800000 0.431419 0.294568 0.600000 0.431419 0.294568 0.800000 0.432738 0.242857 0.600000 0.432738 0.242857 0.800000 0.433355 0.273797 0.600000 0.433355 0.273797 0.800000 0.434335 0.613071 0.600000 0.434335 0.613071 0.800000 0.434335 0.700668 0.600000 0.434335 0.700668 0.800000 0.434611 0.158195 0.600000 0.434611 0.158195 0.800000 0.435125 0.290009 0.600000 0.435125 0.290009 0.800000 0.435599 0.172769 0.600000 0.435599 0.172769 0.800000 0.435609 0.278187 0.600000 0.435609 0.278187 0.800000 0.435663 0.412806 0.600000 0.435663 0.412806 0.800000 0.435663 0.534235 0.600000 0.435663 0.534235 0.800000 0.435951 0.370770 0.600000 0.435951 0.370770 0.800000 0.435951 0.492198 0.600000 0.435951 0.492198 0.800000 0.436360 0.283329 0.600000 0.436360 0.283329 0.800000 0.437063 0.391335 0.600000 0.437063 0.391335 0.800000 0.437063 0.512764 0.600000 0.437063 0.512764 0.800000 0.437452 0.172769 0.600000 0.437452 0.172769 0.800000 0.438277 0.402678 0.600000 0.438277 0.402678 0.800000 0.438277 0.524106 0.600000 0.438277 0.524106 0.800000 0.438334 0.380733 0.600000 0.438334 0.380733 0.800000 0.438334 0.502162 0.600000 0.438334 0.502162 0.800000 0.439984 0.246150 0.600000 0.439984 0.246150 0.800000 0.441921 0.410604 0.600000 0.441921 0.410604 0.800000 0.441921 0.532032 0.600000 0.441921 0.532032 0.800000 0.442148 0.372972 0.600000 0.442148 0.372972 0.800000 0.442148 0.494401 0.600000 0.442148 0.494401 0.800000 0.444608 0.418287 0.600000 0.444608 0.418287 0.800000 0.444608 0.539716 0.600000 0.444608 0.539716 0.800000 0.444927 0.365289 0.600000 0.444927 0.365289 0.800000 0.444927 0.486717 0.600000 0.444927 0.486717 0.800000 0.445953 0.242857 0.600000 0.445953 0.242857 0.800000 0.445953 0.245039 0.600000 0.445953 0.245039 0.800000 0.447082 0.607142 0.600000 0.447082 0.607142 0.800000 0.447082 0.611070 0.600000 0.447082 0.611070 0.800000 0.447082 0.702596 0.600000 0.447082 0.702596 0.800000 0.447082 0.706524 0.600000 0.447082 0.706524 0.800000 0.448210 0.415266 0.600000 0.448210 0.415266 0.800000 0.448210 0.536695 0.600000 0.448210 0.536695 0.800000 0.448390 0.368217 0.600000 0.448390 0.368217 0.800000 0.448390 0.489646 0.600000 0.448390 0.489646 0.800000 0.448510 0.242857 0.600000 0.448510 0.242857 0.800000 0.448510 0.245039 0.600000 0.448510 0.245039 0.800000 0.448510 0.295886 0.600000 0.448510 0.295886 0.800000 0.448510 0.298068 0.600000 0.448510 0.298068 0.800000 0.448939 0.120152 0.600000 0.448939 0.120152 0.800000 0.451121 0.120152 0.600000 0.451121 0.120152 0.800000 0.451780 0.134480 0.600000 0.451780 0.134480 0.800000 0.455592 0.246150 0.600000 0.455592 0.246150 0.800000 0.455592 0.294815 0.600000 0.455592 0.294815 0.800000 0.455692 0.174458 0.600000 0.455692 0.174458 0.800000 0.455692 0.176640 0.600000 0.455692 0.176640 0.800000 0.456867 0.363462 0.600000 0.456867 0.363462 0.800000 0.456867 0.484891 0.600000 0.456867 0.484891 0.800000 0.456949 0.366632 0.600000 0.456949 0.366632 0.800000 0.456949 0.488060 0.600000 0.456949 0.488060 0.800000 0.457031 0.420114 0.600000 0.457031 0.420114 0.800000 0.457031 0.541543 0.600000 0.457031 0.541543 0.800000 0.457361 0.416821 0.600000 0.457361 0.416821 0.800000 0.457361 0.538249 0.600000 0.457361 0.538249 0.800000 0.458646 0.655684 0.600000 0.458646 0.655684 0.800000 0.459914 0.246150 0.600000 0.459914 0.246150 0.800000 0.459914 0.290328 0.600000 0.459914 0.290328 0.800000 0.461277 0.416579 0.600000 0.461277 0.416579 0.800000 0.461277 0.538007 0.600000 0.461277 0.538007 0.800000 0.461509 0.366915 0.600000 0.461509 0.366915 0.800000 0.461509 0.488343 0.600000 0.461509 0.488343 0.800000 0.461888 0.678204 0.600000 0.461888 0.678204 0.800000 0.462018 0.634609 0.600000 0.462018 0.634609 0.800000 0.464296 0.173387 0.600000 0.464296 0.173387 0.800000 0.465121 0.415853 0.600000 0.465121 0.415853 0.800000 0.465121 0.537282 0.600000 0.465121 0.537282 0.800000 0.465226 0.298068 0.600000 0.465226 0.298068 0.800000 0.465801 0.367764 0.600000 0.465801 0.367764 0.800000 0.465801 0.489193 0.600000 0.465801 0.489193 0.800000 0.465955 0.419589 0.600000 0.465955 0.419589 0.800000 0.465955 0.541018 0.600000 0.465955 0.541018 0.800000 0.466943 0.364110 0.600000 0.466943 0.364110 0.800000 0.466943 0.485539 0.600000 0.466943 0.485539 0.800000 0.467325 0.242857 0.600000 0.467325 0.242857 0.800000 0.467325 0.245039 0.600000 0.467325 0.245039 0.800000 0.468698 0.414685 0.600000 0.468698 0.414685 0.800000 0.468698 0.536114 0.600000 0.468698 0.536114 0.800000 0.469154 0.173387 0.600000 0.469154 0.173387 0.800000 0.469527 0.369087 0.600000 0.469527 0.369087 0.800000 0.469527 0.490515 0.600000 0.469527 0.490515 0.800000 0.471615 0.694480 0.600000 0.471615 0.694480 0.800000 0.471812 0.413115 0.600000 0.471812 0.413115 0.800000 0.471812 0.534544 0.600000 0.471812 0.534544 0.800000 0.472134 0.618814 0.600000 0.472134 0.618814 0.800000 0.472388 0.370790 0.600000 0.472388 0.370790 0.800000 0.472388 0.492219 0.600000 0.472388 0.492219 0.800000 0.473047 0.405951 0.600000 0.473047 0.405951 0.800000 0.473047 0.527380 0.600000 0.473047 0.527380 0.800000 0.473912 0.379025 0.600000 0.473912 0.379025 0.800000 0.473912 0.500453 0.600000 0.473912 0.500453 0.800000 0.473971 0.174458 0.600000 0.473971 0.174458 0.800000 0.473971 0.176640 0.600000 0.473971 0.176640 0.800000 0.474135 0.655832 0.600000 0.474135 0.655832 0.800000 0.475517 0.418014 0.600000 0.475517 0.418014 0.800000 0.475517 0.539443 0.600000 0.475517 0.539443 0.800000 0.475765 0.405951 0.600000 0.475765 0.405951 0.800000 0.475765 0.527380 0.600000 0.475765 0.527380 0.800000 0.476321 0.676249 0.600000 0.476321 0.676249 0.800000 0.476341 0.366056 0.600000 0.476341 0.366056 0.800000 0.476341 0.487484 0.600000 0.476341 0.487484 0.800000 0.476423 0.636749 0.600000 0.476423 0.636749 0.800000 0.476571 0.121428 0.600000 0.476571 0.121428 0.800000 0.476571 0.123610 0.600000 0.476571 0.123610 0.800000 0.476571 0.174458 0.600000 0.476571 0.174458 0.800000 0.476571 0.176640 0.600000 0.476571 0.176640 0.800000 0.476588 0.379025 0.600000 0.476588 0.379025 0.800000 0.476588 0.500453 0.600000 0.476588 0.500453 0.800000 0.480130 0.242857 0.600000 0.480130 0.242857 0.800000 0.481571 0.242857 0.600000 0.481571 0.242857 0.800000 0.482880 0.690515 0.600000 0.482880 0.690515 0.800000 0.483177 0.256073 0.600000 0.483177 0.256073 0.800000 0.483288 0.622779 0.600000 0.483288 0.622779 0.800000 0.483652 0.124722 0.600000 0.483652 0.124722 0.800000 0.483652 0.173387 0.600000 0.483652 0.173387 0.800000 0.483673 0.417315 0.600000 0.483673 0.417315 0.800000 0.483673 0.419497 0.600000 0.483673 0.419497 0.800000 0.483673 0.538744 0.600000 0.483673 0.538744 0.800000 0.483673 0.540926 0.600000 0.483673 0.540926 0.800000 0.484209 0.364285 0.600000 0.484209 0.364285 0.800000 0.484209 0.366467 0.600000 0.484209 0.366467 0.800000 0.484209 0.485714 0.600000 0.484209 0.485714 0.800000 0.484209 0.487896 0.600000 0.484209 0.487896 0.800000 0.487716 0.704346 0.600000 0.487716 0.704346 0.800000 0.487975 0.124722 0.600000 0.487975 0.124722 0.800000 0.487975 0.171081 0.600000 0.487975 0.171081 0.800000 0.488290 0.608949 0.600000 0.488290 0.608949 0.800000 0.490755 0.367579 0.600000 0.490755 0.367579 0.800000 0.490755 0.416244 0.600000 0.490755 0.416244 0.800000 0.490755 0.489008 0.600000 0.490755 0.489008 0.800000 0.490755 0.537672 0.600000 0.490755 0.537672 0.800000 0.493286 0.176640 0.600000 0.493286 0.176640 0.800000 0.494200 0.698909 0.600000 0.494200 0.698909 0.800000 0.494525 0.614219 0.600000 0.494525 0.614219 0.800000 0.495386 0.121428 0.600000 0.495386 0.121428 0.800000 0.495386 0.123610 0.600000 0.495386 0.123610 0.800000 0.496187 0.242857 0.600000 0.496187 0.242857 0.800000 0.496187 0.245039 0.600000 0.496187 0.245039 0.800000 0.498701 0.367579 0.600000 0.498701 0.367579 0.800000 0.498701 0.385941 0.600000 0.498701 0.385941 0.800000 0.498701 0.389647 0.600000 0.498701 0.389647 0.800000 0.498701 0.415791 0.600000 0.498701 0.415791 0.800000 0.498701 0.489008 0.600000 0.498701 0.489008 0.800000 0.498701 0.507370 0.600000 0.498701 0.507370 0.800000 0.498701 0.511076 0.600000 0.498701 0.511076 0.800000 0.498701 0.537220 0.600000 0.498701 0.537220 0.800000 0.502736 0.415791 0.600000 0.502736 0.415791 0.800000 0.502736 0.537220 0.600000 0.502736 0.537220 0.800000 0.502775 0.298068 0.600000 0.502775 0.298068 0.800000 0.502983 0.389647 0.600000 0.502983 0.389647 0.800000 0.502983 0.511076 0.600000 0.502983 0.511076 0.800000 0.503598 0.246150 0.600000 0.503598 0.246150 0.800000 0.503598 0.290328 0.600000 0.503598 0.290328 0.800000 0.504506 0.419497 0.600000 0.504506 0.419497 0.800000 0.504506 0.540926 0.600000 0.504506 0.540926 0.800000 0.504918 0.385941 0.600000 0.504918 0.385941 0.800000 0.504918 0.507370 0.600000 0.504918 0.507370 0.800000 0.507471 0.364285 0.600000 0.507471 0.364285 0.800000 0.507471 0.366467 0.600000 0.507471 0.366467 0.800000 0.507471 0.485714 0.600000 0.507471 0.485714 0.800000 0.507471 0.487896 0.600000 0.507471 0.487896 0.800000 0.509030 0.390440 0.600000 0.509030 0.390440 0.800000 0.509030 0.511868 0.600000 0.509030 0.511868 0.800000 0.509148 0.415060 0.600000 0.509148 0.415060 0.800000 0.509148 0.536489 0.600000 0.509148 0.536489 0.800000 0.509782 0.605660 0.600000 0.509782 0.605660 0.800000 0.509930 0.611366 0.600000 0.509930 0.611366 0.800000 0.510078 0.707635 0.600000 0.510078 0.707635 0.800000 0.510671 0.701706 0.600000 0.510671 0.701706 0.800000 0.511503 0.246150 0.600000 0.511503 0.246150 0.800000 0.511503 0.294815 0.600000 0.511503 0.294815 0.800000 0.513255 0.392817 0.600000 0.513255 0.392817 0.800000 0.513255 0.514246 0.600000 0.513255 0.514246 0.800000 0.513394 0.387043 0.600000 0.513394 0.387043 0.800000 0.513394 0.508471 0.600000 0.513394 0.508471 0.800000 0.513399 0.412868 0.600000 0.513399 0.412868 0.800000 0.513399 0.534296 0.600000 0.513399 0.534296 0.800000 0.514284 0.174458 0.600000 0.514284 0.174458 0.800000 0.514284 0.176640 0.600000 0.514284 0.176640 0.800000 0.515741 0.396986 0.600000 0.515741 0.396986 0.800000 0.515741 0.518415 0.600000 0.515741 0.518415 0.800000 0.515777 0.408977 0.600000 0.515777 0.408977 0.800000 0.515777 0.530406 0.600000 0.515777 0.530406 0.800000 0.516569 0.403151 0.600000 0.516569 0.403151 0.800000 0.516569 0.524580 0.600000 0.516569 0.524580 0.800000 0.517721 0.701271 0.600000 0.517721 0.701271 0.800000 0.518137 0.611876 0.600000 0.518137 0.611876 0.800000 0.518585 0.242857 0.600000 0.518585 0.242857 0.800000 0.518585 0.245039 0.600000 0.518585 0.245039 0.800000 0.518585 0.295886 0.600000 0.518585 0.295886 0.800000 0.518585 0.298068 0.600000 0.518585 0.298068 0.800000 0.519637 0.390347 0.600000 0.519637 0.390347 0.800000 0.519637 0.511775 0.600000 0.519637 0.511775 0.800000 0.519699 0.415431 0.600000 0.519699 0.415431 0.800000 0.519699 0.536860 0.600000 0.519699 0.536860 0.800000 0.521695 0.135756 0.600000 0.521695 0.135756 0.800000 0.521695 0.173387 0.600000 0.521695 0.173387 0.800000 0.522024 0.121428 0.600000 0.522024 0.121428 0.800000 0.523481 0.395771 0.600000 0.523481 0.395771 0.800000 0.523481 0.517200 0.600000 0.523481 0.517200 0.800000 0.524640 0.699964 0.600000 0.524640 0.699964 0.800000 0.524763 0.403234 0.600000 0.524763 0.403234 0.800000 0.524763 0.524663 0.600000 0.524763 0.524663 0.800000 0.525863 0.613404 0.600000 0.525863 0.613404 0.800000 0.526018 0.121428 0.600000 0.526018 0.121428 0.800000 0.526018 0.173387 0.600000 0.526018 0.173387 0.800000 0.526141 0.706690 0.600000 0.526141 0.706690 0.800000 0.527920 0.606828 0.600000 0.527920 0.606828 0.800000 0.530571 0.364285 0.600000 0.530571 0.364285 0.800000 0.530571 0.366467 0.600000 0.530571 0.366467 0.800000 0.530571 0.417315 0.600000 0.530571 0.417315 0.800000 0.530571 0.419497 0.600000 0.530571 0.419497 0.800000 0.530571 0.485714 0.600000 0.530571 0.485714 0.800000 0.530571 0.487896 0.600000 0.530571 0.487896 0.800000 0.530571 0.538744 0.600000 0.530571 0.538744 0.800000 0.530571 0.540926 0.600000 0.530571 0.540926 0.800000 0.531079 0.697862 0.600000 0.531079 0.697862 0.800000 0.532570 0.615785 0.600000 0.532570 0.615785 0.800000 0.533100 0.174458 0.600000 0.533100 0.174458 0.800000 0.533100 0.176640 0.600000 0.533100 0.176640 0.800000 0.536684 0.695037 0.600000 0.536684 0.695037 0.800000 0.537468 0.121428 0.600000 0.537468 0.121428 0.800000 0.537468 0.123610 0.600000 0.537468 0.123610 0.800000 0.537468 0.174458 0.600000 0.537468 0.174458 0.800000 0.537468 0.176640 0.600000 0.537468 0.176640 0.800000 0.537652 0.367579 0.600000 0.537652 0.367579 0.800000 0.537652 0.416244 0.600000 0.537652 0.416244 0.800000 0.537652 0.489008 0.600000 0.537652 0.489008 0.800000 0.537652 0.537672 0.600000 0.537652 0.537672 0.800000 0.537721 0.618851 0.600000 0.537721 0.618851 0.800000 0.538906 0.682141 0.600000 0.538906 0.682141 0.800000 0.540463 0.633674 0.600000 0.540463 0.633674 0.800000 0.541975 0.367579 0.600000 0.541975 0.367579 0.800000 0.541975 0.413939 0.600000 0.541975 0.413939 0.800000 0.541975 0.489008 0.600000 0.541975 0.489008 0.800000 0.541975 0.535367 0.600000 0.541975 0.535367 0.800000 0.543353 0.703855 0.600000 0.543353 0.703855 0.800000 0.543798 0.682141 0.600000 0.543798 0.682141 0.800000 0.544549 0.124722 0.600000 0.544549 0.124722 0.800000 0.544549 0.173387 0.600000 0.544549 0.173387 0.800000 0.544835 0.610329 0.600000 0.544835 0.610329 0.800000 0.545280 0.633674 0.600000 0.545280 0.633674 0.800000 0.547287 0.419497 0.600000 0.547287 0.419497 0.800000 0.547287 0.540926 0.600000 0.547287 0.540926 0.800000 0.548872 0.124722 0.600000 0.548872 0.124722 0.800000 0.548872 0.171081 0.600000 0.548872 0.171081 0.800000 0.549386 0.364285 0.600000 0.549386 0.364285 0.800000 0.549386 0.366467 0.600000 0.549386 0.366467 0.800000 0.549386 0.485714 0.600000 0.549386 0.485714 0.800000 0.549386 0.487896 0.600000 0.549386 0.487896 0.800000 0.554183 0.176640 0.600000 0.554183 0.176640 0.800000 0.556283 0.121428 0.600000 0.556283 0.121428 0.800000 0.556283 0.123610 0.600000 0.556283 0.123610 0.800000 0.560924 0.629746 0.600000 0.560924 0.629746 0.800000 0.561739 0.608847 0.600000 0.561739 0.608847 0.800000 0.563962 0.685328 0.600000 0.563962 0.685328 0.800000 0.563962 0.704448 0.600000 0.563962 0.704448 0.800000 0.565815 0.629746 0.600000 0.565815 0.629746 0.800000 0.568284 0.417315 0.600000 0.568284 0.417315 0.800000 0.568284 0.419497 0.600000 0.568284 0.419497 0.800000 0.568284 0.538744 0.600000 0.568284 0.538744 0.800000 0.568284 0.540926 0.600000 0.568284 0.540926 0.800000 0.568854 0.685328 0.600000 0.568854 0.685328 0.800000 0.569150 0.615813 0.600000 0.569150 0.615813 0.800000 0.570798 0.706051 0.600000 0.570798 0.706051 0.800000 0.571447 0.697481 0.600000 0.571447 0.697481 0.800000 0.572643 0.614294 0.600000 0.572643 0.614294 0.800000 0.574708 0.606457 0.600000 0.574708 0.606457 0.800000 0.574968 0.699084 0.600000 0.574968 0.699084 0.800000 0.575181 0.174458 0.600000 0.575181 0.174458 0.800000 0.575181 0.176640 0.600000 0.575181 0.176640 0.800000 0.575695 0.378613 0.600000 0.575695 0.378613 0.800000 0.575695 0.416244 0.600000 0.575695 0.416244 0.800000 0.575695 0.500042 0.600000 0.575695 0.500042 0.800000 0.575695 0.537672 0.600000 0.575695 0.537672 0.800000 0.576024 0.364285 0.600000 0.576024 0.364285 0.800000 0.576024 0.485714 0.600000 0.576024 0.485714 0.800000 0.576634 0.707004 0.600000 0.576634 0.707004 0.800000 0.577339 0.612997 0.600000 0.577339 0.612997 0.800000 0.578413 0.655980 0.600000 0.578413 0.655980 0.800000 0.578413 0.662057 0.600000 0.578413 0.662057 0.800000 0.579007 0.700335 0.600000 0.579007 0.700335 0.800000 0.580018 0.364285 0.600000 0.580018 0.364285 0.800000 0.580018 0.416244 0.600000 0.580018 0.416244 0.800000 0.580018 0.485714 0.600000 0.580018 0.485714 0.800000 0.580018 0.537672 0.600000 0.580018 0.537672 0.800000 0.581952 0.707477 0.600000 0.581952 0.707477 0.800000 0.582462 0.612108 0.600000 0.582462 0.612108 0.800000 0.582592 0.135756 0.600000 0.582592 0.135756 0.800000 0.582592 0.173387 0.600000 0.582592 0.173387 0.800000 0.582921 0.121428 0.600000 0.582921 0.121428 0.800000 0.583212 0.701141 0.600000 0.583212 0.701141 0.800000 0.586915 0.121428 0.600000 0.586915 0.121428 0.800000 0.586915 0.173387 0.600000 0.586915 0.173387 0.800000 0.587100 0.417315 0.600000 0.587100 0.417315 0.800000 0.587100 0.419497 0.600000 0.587100 0.419497 0.800000 0.587100 0.538744 0.600000 0.587100 0.538744 0.800000 0.587100 0.540926 0.600000 0.587100 0.540926 0.800000 0.587233 0.611811 0.600000 0.587233 0.611811 0.800000 0.587233 0.701410 0.600000 0.587233 0.701410 0.800000 0.587233 0.707635 0.600000 0.587233 0.707635 0.800000 0.588418 0.605660 0.600000 0.588418 0.605660 0.800000 0.589012 0.655388 0.600000 0.589012 0.655388 0.800000 0.589012 0.662724 0.600000 0.589012 0.662724 0.800000 0.593997 0.174458 0.600000 0.593997 0.174458 0.800000 0.593997 0.176640 0.600000 0.593997 0.176640 0.800000 0.595431 0.700270 0.600000 0.595431 0.700270 0.800000 0.596292 0.664243 0.600000 0.596292 0.664243 0.800000 0.597349 0.613145 0.600000 0.597349 0.613145 0.800000 0.597385 0.659167 0.600000 0.597385 0.659167 0.800000 0.598349 0.653729 0.600000 0.598349 0.653729 0.800000 0.598365 0.121428 0.600000 0.598365 0.121428 0.800000 0.598365 0.123610 0.600000 0.598365 0.123610 0.800000 0.598365 0.174458 0.600000 0.598365 0.174458 0.800000 0.598365 0.176640 0.600000 0.598365 0.176640 0.800000 0.601054 0.696852 0.600000 0.601054 0.696852 0.800000 0.601387 0.667912 0.600000 0.601387 0.667912 0.800000 0.603333 0.607550 0.600000 0.603333 0.607550 0.800000 0.604305 0.690933 0.600000 0.604305 0.690933 0.800000 0.604389 0.673878 0.600000 0.604389 0.673878 0.800000 0.604426 0.617146 0.600000 0.604426 0.617146 0.800000 0.604870 0.649792 0.600000 0.604870 0.649792 0.800000 0.605389 0.682289 0.600000 0.605389 0.682289 0.800000 0.605446 0.124722 0.600000 0.605446 0.124722 0.800000 0.605446 0.173387 0.600000 0.605446 0.173387 0.800000 0.606584 0.661807 0.600000 0.606584 0.661807 0.800000 0.608595 0.624261 0.600000 0.608595 0.624261 0.800000 0.608706 0.643539 0.600000 0.608706 0.643539 0.800000 0.609095 0.656453 0.600000 0.609095 0.656453 0.800000 0.609769 0.124722 0.600000 0.609769 0.124722 0.800000 0.609769 0.171081 0.600000 0.609769 0.171081 0.800000 0.609985 0.634934 0.600000 0.609985 0.634934 0.800000 0.611133 0.701521 0.600000 0.611133 0.701521 0.800000 0.613429 0.666763 0.600000 0.613429 0.666763 0.800000 0.614430 0.613220 0.600000 0.614430 0.613220 0.800000 0.615080 0.176640 0.600000 0.615080 0.176640 0.800000 0.617180 0.121428 0.600000 0.617180 0.121428 0.800000 0.617180 0.123610 0.600000 0.617180 0.123610 0.800000 0.617247 0.651423 0.600000 0.617247 0.651423 0.800000 0.617682 0.673924 0.600000 0.617682 0.673924 0.800000 0.619099 0.683179 0.600000 0.619099 0.683179 0.800000 0.621323 0.622243 0.600000 0.621323 0.622243 0.800000 0.622027 0.644021 0.600000 0.622027 0.644021 0.800000 0.623620 0.634193 0.600000 0.623620 0.634193 0.800000 0.636078 0.174458 0.600000 0.636078 0.174458 0.800000 0.636078 0.176640 0.600000 0.636078 0.176640 0.800000 0.636224 0.607142 0.600000 0.636224 0.607142 0.800000 0.636224 0.618036 0.600000 0.636224 0.618036 0.800000 0.639560 0.685328 0.600000 0.639560 0.685328 0.800000 0.639560 0.704448 0.600000 0.639560 0.704448 0.800000 0.643489 0.135756 0.600000 0.643489 0.135756 0.800000 0.643489 0.173387 0.600000 0.643489 0.173387 0.800000 0.643818 0.121428 0.600000 0.643818 0.121428 0.800000 0.644450 0.685328 0.600000 0.644450 0.685328 0.800000 0.645933 0.618555 0.600000 0.645933 0.618555 0.800000 0.647045 0.697481 0.600000 0.647045 0.697481 0.800000 0.647812 0.121428 0.600000 0.647812 0.121428 0.800000 0.647812 0.173387 0.600000 0.647812 0.173387 0.800000 0.650008 0.630561 0.600000 0.650008 0.630561 0.800000 0.650472 0.699084 0.600000 0.650472 0.699084 0.800000 0.652029 0.706838 0.600000 0.652029 0.706838 0.800000 0.653140 0.625021 0.600000 0.653140 0.625021 0.800000 0.654381 0.700335 0.600000 0.654381 0.700335 0.800000 0.654894 0.174458 0.600000 0.654894 0.174458 0.800000 0.654894 0.176640 0.600000 0.654894 0.176640 0.800000 0.658476 0.701141 0.600000 0.658476 0.701141 0.800000 0.659939 0.630932 0.600000 0.659939 0.630932 0.800000 0.661514 0.641084 0.600000 0.661514 0.641084 0.800000 0.662459 0.701410 0.600000 0.662459 0.701410 0.800000 0.662459 0.707635 0.600000 0.662459 0.707635 0.800000 0.669500 0.649385 0.600000 0.669500 0.649385 0.800000 0.671001 0.700150 0.600000 0.671001 0.700150 0.800000 0.673168 0.642595 0.600000 0.673168 0.642595 0.800000 0.674844 0.656684 0.600000 0.674844 0.656684 0.800000 0.676735 0.705940 0.600000 0.676735 0.705940 0.800000 0.676763 0.696370 0.600000 0.676763 0.696370 0.800000 0.678429 0.664206 0.600000 0.678429 0.664206 0.800000 0.680042 0.690182 0.600000 0.680042 0.690182 0.800000 0.680459 0.672395 0.600000 0.680459 0.672395 0.800000 0.681135 0.681696 0.600000 0.681135 0.681696 0.800000 0.682024 0.651348 0.600000 0.682024 0.651348 0.800000 0.686952 0.700854 0.600000 0.686952 0.700854 0.800000 0.687832 0.658667 0.600000 0.687832 0.658667 0.800000 0.691917 0.666022 0.600000 0.691917 0.666022 0.800000 0.693094 0.692674 0.600000 0.693094 0.692674 0.800000 0.694335 0.673627 0.600000 0.694335 0.673627 0.800000 0.695141 0.681696 0.600000 0.695141 0.681696 0.800000 0.697068 0.607142 0.600000 0.697068 0.607142 0.800000 0.697068 0.618555 0.600000 0.697068 0.618555 0.800000 0.850000 0.000000 0.000000 0.850000 0.000000 0.600000 0.850000 0.850000 0.000000 0.850000 0.850000 0.600000 "
							            />
						</IndexedFaceSet>
					</Shape>
					<Shape>
						<Appearance>
							<Material DEF="MA_Color_2"
							          diffuseColor="1.000 1.000 1.000"
							          specularColor="0.401 0.401 0.401"
							          emissiveColor="0.000 0.000 0.000"
							          ambientIntensity="0.000"
							          shininess="0.500"
							          transparency="1.000"
							          />
						</Appearance>
						<IndexedFaceSet solid="false"
						                coordIndex="4 5 6 -1 4 22 23 -1 4 23 5 -1 5 7 6 -1 5 13 7 -1 5 23 13 -1 6 7 12 -1 7 13 12 -1 8 9 10 -1 8 14 15 -1 8 15 9 -1 9 11 10 -1 9 15 11 -1 10 11 20 -1 11 15 21 -1 11 21 20 -1 12 13 15 -1 12 15 14 -1 13 17 19 -1 13 19 15 -1 13 23 17 -1 15 19 21 -1 16 17 24 -1 16 18 19 -1 16 19 17 -1 17 23 25 -1 17 25 24 -1 18 32 33 -1 18 33 19 -1 19 33 35 -1 19 35 43 -1 19 43 21 -1 20 21 42 -1 21 43 42 -1 22 24 25 -1 22 25 23 -1 26 27 28 -1 26 30 31 -1 26 31 27 -1 27 29 28 -1 27 31 29 -1 28 29 46 -1 29 31 37 -1 29 37 47 -1 29 47 46 -1 30 50 51 -1 30 51 31 -1 31 51 37 -1 32 34 35 -1 32 35 33 -1 34 78 79 -1 34 79 35 -1 35 79 43 -1 36 37 52 -1 36 44 45 -1 36 45 37 -1 37 45 47 -1 37 51 53 -1 37 53 52 -1 38 39 40 -1 38 66 67 -1 38 67 39 -1 39 41 40 -1 39 49 41 -1 39 67 49 -1 40 41 48 -1 41 49 48 -1 42 43 74 -1 43 75 74 -1 43 79 75 -1 44 46 47 -1 44 47 45 -1 48 49 50 -1 49 51 50 -1 49 55 51 -1 49 67 55 -1 51 55 57 -1 51 57 53 -1 52 53 70 -1 53 57 71 -1 53 71 70 -1 54 55 68 -1 54 56 57 -1 54 57 55 -1 55 67 69 -1 55 69 68 -1 56 72 73 -1 56 73 57 -1 57 73 71 -1 58 59 60 -1 58 70 71 -1 58 71 59 -1 59 61 60 -1 59 71 61 -1 60 61 82 -1 61 71 73 -1 61 73 83 -1 61 83 82 -1 62 63 64 -1 62 132 133 -1 62 133 63 -1 63 65 64 -1 63 77 65 -1 63 133 77 -1 64 65 76 -1 65 77 76 -1 66 68 69 -1 66 69 67 -1 72 80 81 -1 72 81 73 -1 73 81 83 -1 74 75 138 -1 75 79 91 -1 75 91 93 -1 75 93 139 -1 75 139 138 -1 76 77 78 -1 77 79 78 -1 77 91 79 -1 77 133 91 -1 80 82 83 -1 80 83 81 -1 84 85 86 -1 84 88 89 -1 84 89 85 -1 85 87 86 -1 85 89 87 -1 86 87 150 -1 87 89 107 -1 87 107 151 -1 87 151 150 -1 88 158 159 -1 88 159 89 -1 89 159 107 -1 90 91 134 -1 90 92 93 -1 90 93 91 -1 91 133 135 -1 91 135 134 -1 92 136 137 -1 92 137 93 -1 93 137 139 -1 94 95 98 -1 94 102 103 -1 94 103 95 -1 95 99 98 -1 95 103 121 -1 95 121 99 -1 96 97 100 -1 96 104 105 -1 96 105 97 -1 97 101 100 -1 97 105 123 -1 97 123 101 -1 98 99 108 -1 99 109 108 -1 99 121 125 -1 99 125 109 -1 100 101 110 -1 101 111 110 -1 101 123 127 -1 101 127 111 -1 102 116 117 -1 102 117 103 -1 103 117 129 -1 103 129 121 -1 104 118 119 -1 104 119 105 -1 105 119 131 -1 105 131 123 -1 106 107 172 -1 106 148 149 -1 106 149 107 -1 107 149 151 -1 107 159 173 -1 107 173 172 -1 108 109 152 -1 109 125 141 -1 109 141 153 -1 109 153 152 -1 110 111 154 -1 111 127 143 -1 111 143 155 -1 111 155 154 -1 112 113 114 -1 112 202 203 -1 112 203 113 -1 113 115 114 -1 113 157 115 -1 113 203 157 -1 114 115 156 -1 115 157 156 -1 116 160 161 -1 116 161 117 -1 117 145 129 -1 117 161 145 -1 118 162 163 -1 118 163 119 -1 119 147 131 -1 119 163 147 -1 120 121 128 -1 120 124 125 -1 120 125 121 -1 121 129 128 -1 122 123 130 -1 122 126 127 -1 122 127 123 -1 123 131 130 -1 124 140 141 -1 124 141 125 -1 126 142 143 -1 126 143 127 -1 128 129 144 -1 129 145 144 -1 130 131 146 -1 131 147 146 -1 132 134 135 -1 132 135 133 -1 136 138 139 -1 136 139 137 -1 140 164 165 -1 140 165 141 -1 141 165 153 -1 142 166 167 -1 142 167 143 -1 143 167 155 -1 144 145 168 -1 145 161 169 -1 145 169 168 -1 146 147 170 -1 147 163 171 -1 147 171 170 -1 148 150 151 -1 148 151 149 -1 152 153 186 -1 153 165 187 -1 153 187 186 -1 154 155 188 -1 155 167 189 -1 155 189 188 -1 156 157 158 -1 157 159 158 -1 157 175 159 -1 157 203 175 -1 159 175 177 -1 159 177 173 -1 160 178 179 -1 160 179 161 -1 161 179 169 -1 162 180 181 -1 162 181 163 -1 163 181 171 -1 164 190 191 -1 164 191 165 -1 165 191 187 -1 166 192 193 -1 166 193 167 -1 167 193 189 -1 168 169 182 -1 169 179 183 -1 169 183 182 -1 170 171 184 -1 171 181 185 -1 171 185 184 -1 172 173 218 -1 173 177 219 -1 173 219 218 -1 174 175 204 -1 174 176 177 -1 174 177 175 -1 175 203 205 -1 175 205 204 -1 176 236 237 -1 176 237 177 -1 177 237 219 -1 178 224 225 -1 178 225 179 -1 179 207 183 -1 179 225 207 -1 180 226 227 -1 180 227 181 -1 181 209 185 -1 181 227 209 -1 182 183 206 -1 183 207 206 -1 184 185 208 -1 185 209 208 -1 186 187 220 -1 187 191 199 -1 187 199 221 -1 187 221 220 -1 188 189 222 -1 189 193 201 -1 189 201 223 -1 189 223 222 -1 190 198 199 -1 190 199 191 -1 192 200 201 -1 192 201 193 -1 194 195 196 -1 194 218 219 -1 194 219 195 -1 195 197 196 -1 195 219 197 -1 196 197 272 -1 197 219 237 -1 197 237 273 -1 197 273 272 -1 198 210 211 -1 198 211 199 -1 199 211 221 -1 200 212 213 -1 200 213 201 -1 201 213 223 -1 202 204 205 -1 202 205 203 -1 206 207 214 -1 207 215 214 -1 207 225 215 -1 208 209 216 -1 209 217 216 -1 209 227 217 -1 210 228 229 -1 210 229 211 -1 211 229 221 -1 212 230 231 -1 212 231 213 -1 213 231 223 -1 214 215 232 -1 215 225 233 -1 215 233 232 -1 216 217 234 -1 217 227 235 -1 217 235 234 -1 220 221 254 -1 221 229 255 -1 221 255 254 -1 222 223 256 -1 223 231 257 -1 223 257 256 -1 224 262 263 -1 224 263 225 -1 225 263 233 -1 226 264 265 -1 226 265 227 -1 227 265 235 -1 228 238 239 -1 228 239 229 -1 229 239 255 -1 230 240 241 -1 230 241 231 -1 231 241 257 -1 232 233 242 -1 233 243 242 -1 233 263 243 -1 234 235 244 -1 235 245 244 -1 235 265 245 -1 236 270 271 -1 236 271 237 -1 237 271 273 -1 238 246 247 -1 238 247 239 -1 239 247 259 -1 239 259 255 -1 240 248 249 -1 240 249 241 -1 241 249 261 -1 241 261 257 -1 242 243 250 -1 243 251 250 -1 243 263 267 -1 243 267 251 -1 244 245 252 -1 245 253 252 -1 245 265 269 -1 245 269 253 -1 246 258 259 -1 246 259 247 -1 248 260 261 -1 248 261 249 -1 250 251 266 -1 251 267 266 -1 252 253 268 -1 253 269 268 -1 254 255 258 -1 255 259 258 -1 256 257 260 -1 257 261 260 -1 262 266 267 -1 262 267 263 -1 264 268 269 -1 264 269 265 -1 270 272 273 -1 270 273 271 -1 274 275 276 -1 274 286 287 -1 274 287 275 -1 275 277 276 -1 275 287 277 -1 276 277 348 -1 277 287 313 -1 277 313 349 -1 277 349 348 -1 278 279 280 -1 278 306 307 -1 278 307 279 -1 279 281 280 -1 279 307 281 -1 280 281 362 -1 281 307 363 -1 281 363 362 -1 282 283 284 -1 282 310 311 -1 282 311 283 -1 283 285 284 -1 283 311 285 -1 284 285 364 -1 285 311 365 -1 285 365 364 -1 286 350 351 -1 286 351 287 -1 287 351 361 -1 287 361 373 -1 287 373 313 -1 288 289 290 -1 288 378 379 -1 288 379 289 -1 289 291 290 -1 289 305 291 -1 289 325 305 -1 289 379 325 -1 290 291 304 -1 291 305 304 -1 292 293 294 -1 292 382 383 -1 292 383 293 -1 293 295 294 -1 293 309 295 -1 293 333 309 -1 293 383 333 -1 294 295 308 -1 295 309 308 -1 296 297 298 -1 296 322 323 -1 296 323 297 -1 297 299 298 -1 297 323 299 -1 298 299 460 -1 299 323 461 -1 299 461 460 -1 300 301 302 -1 300 478 479 -1 300 479 301 -1 301 303 302 -1 301 321 303 -1 301 403 321 -1 301 479 403 -1 302 303 320 -1 303 321 320 -1 304 305 306 -1 305 307 306 -1 305 325 327 -1 305 327 329 -1 305 329 307 -1 307 329 331 -1 307 331 363 -1 308 309 311 -1 308 311 310 -1 309 333 335 -1 309 335 337 -1 309 337 311 -1 311 337 339 -1 311 339 365 -1 312 313 372 -1 312 346 347 -1 312 347 313 -1 313 347 349 -1 313 373 372 -1 314 315 316 -1 314 398 399 -1 314 399 315 -1 315 317 316 -1 315 345 317 -1 315 399 345 -1 316 317 344 -1 317 345 344 -1 318 319 342 -1 318 340 341 -1 318 341 319 -1 319 341 597 -1 319 343 342 -1 319 377 343 -1 319 425 377 -1 319 477 425 -1 319 527 477 -1 319 561 527 -1 319 585 561 -1 319 597 585 -1 320 321 322 -1 321 323 322 -1 321 403 405 -1 321 405 407 -1 321 407 323 -1 323 407 409 -1 323 409 461 -1 324 325 380 -1 324 326 327 -1 324 327 325 -1 325 379 381 -1 325 381 380 -1 326 368 369 -1 326 369 327 -1 327 357 329 -1 327 369 357 -1 328 329 356 -1 328 330 331 -1 328 331 329 -1 329 357 356 -1 330 352 353 -1 330 353 331 -1 331 353 363 -1 332 333 384 -1 332 334 335 -1 332 335 333 -1 333 383 385 -1 333 385 384 -1 334 370 371 -1 334 371 335 -1 335 359 337 -1 335 371 359 -1 336 337 358 -1 336 338 339 -1 336 339 337 -1 337 359 358 -1 338 354 355 -1 338 355 339 -1 339 355 365 -1 340 374 375 -1 340 375 341 -1 341 375 597 -1 342 343 376 -1 343 377 376 -1 344 345 438 -1 345 367 395 -1 345 395 397 -1 345 397 439 -1 345 399 367 -1 345 439 438 -1 346 348 349 -1 346 349 347 -1 350 360 361 -1 350 361 351 -1 352 390 391 -1 352 391 353 -1 353 391 363 -1 354 392 393 -1 354 393 355 -1 355 393 365 -1 356 357 386 -1 357 369 387 -1 357 387 386 -1 358 359 388 -1 359 371 389 -1 359 389 388 -1 360 440 441 -1 360 441 361 -1 361 441 373 -1 362 363 446 -1 363 391 447 -1 363 447 446 -1 364 365 448 -1 365 393 449 -1 365 449 448 -1 366 367 400 -1 366 394 395 -1 366 395 367 -1 367 399 401 -1 367 401 400 -1 368 414 415 -1 368 415 369 -1 369 415 387 -1 370 416 417 -1 370 417 371 -1 371 417 389 -1 372 373 450 -1 373 441 451 -1 373 451 450 -1 374 422 423 -1 374 423 375 -1 375 423 597 -1 376 377 424 -1 377 425 424 -1 378 380 381 -1 378 381 379 -1 382 384 385 -1 382 385 383 -1 386 387 410 -1 387 411 410 -1 387 415 411 -1 388 389 412 -1 389 413 412 -1 389 417 413 -1 390 418 419 -1 390 419 391 -1 391 419 447 -1 392 420 421 -1 392 421 393 -1 393 421 449 -1 394 508 509 -1 394 509 395 -1 395 509 397 -1 396 397 486 -1 396 456 457 -1 396 457 397 -1 397 457 439 -1 397 487 486 -1 397 509 487 -1 398 400 401 -1 398 401 399 -1 402 403 480 -1 402 404 405 -1 402 405 403 -1 403 479 481 -1 403 481 480 -1 404 466 467 -1 404 467 405 -1 405 455 407 -1 405 467 455 -1 406 407 454 -1 406 408 409 -1 406 409 407 -1 407 455 454 -1 408 452 453 -1 408 453 409 -1 409 453 461 -1 410 411 426 -1 411 415 443 -1 411 427 426 -1 411 443 427 -1 412 413 428 -1 413 417 445 -1 413 429 428 -1 413 445 429 -1 414 442 443 -1 414 443 415 -1 416 444 445 -1 416 445 417 -1 418 430 431 -1 418 431 419 -1 419 431 447 -1 420 432 433 -1 420 433 421 -1 421 433 449 -1 422 474 475 -1 422 475 423 -1 423 475 597 -1 424 425 476 -1 425 477 476 -1 426 427 434 -1 427 435 434 -1 427 443 463 -1 427 463 435 -1 428 429 436 -1 429 437 436 -1 429 445 465 -1 429 465 437 -1 430 434 435 -1 430 435 431 -1 431 435 469 -1 431 469 447 -1 432 436 437 -1 432 437 433 -1 433 437 471 -1 433 471 449 -1 435 463 469 -1 437 465 471 -1 438 439 472 -1 439 457 473 -1 439 473 472 -1 440 510 511 -1 440 511 441 -1 441 511 515 -1 441 515 451 -1 442 462 463 -1 442 463 443 -1 444 464 465 -1 444 465 445 -1 446 447 468 -1 447 469 468 -1 448 449 470 -1 449 471 470 -1 450 451 458 -1 451 459 458 -1 451 515 459 -1 452 506 507 -1 452 507 453 -1 453 507 461 -1 454 455 504 -1 455 467 505 -1 455 505 504 -1 456 486 487 -1 456 487 457 -1 457 487 473 -1 458 459 514 -1 459 515 514 -1 460 461 576 -1 461 507 577 -1 461 577 576 -1 462 468 469 -1 462 469 463 -1 464 470 471 -1 464 471 465 -1 466 532 533 -1 466 533 467 -1 467 533 505 -1 472 473 554 -1 473 487 555 -1 473 555 554 -1 474 528 529 -1 474 529 475 -1 475 529 563 -1 475 563 587 -1 475 587 597 -1 476 477 526 -1 477 527 526 -1 478 480 481 -1 478 481 479 -1 482 483 484 -1 482 578 579 -1 482 579 483 -1 483 485 484 -1 483 517 485 -1 483 579 517 -1 484 485 516 -1 485 517 516 -1 487 509 555 -1 488 489 490 -1 488 566 567 -1 488 567 489 -1 489 491 490 -1 489 519 491 -1 489 567 519 -1 490 491 518 -1 491 519 518 -1 492 493 494 -1 492 520 521 -1 492 521 493 -1 493 495 494 -1 493 521 495 -1 494 495 556 -1 495 521 557 -1 495 557 556 -1 496 497 498 -1 496 570 571 -1 496 571 497 -1 497 499 498 -1 497 523 499 -1 497 571 523 -1 498 499 522 -1 499 523 522 -1 500 501 502 -1 500 524 525 -1 500 525 501 -1 501 503 502 -1 501 525 503 -1 502 503 558 -1 503 525 559 -1 503 559 558 -1 504 505 530 -1 505 531 530 -1 505 533 531 -1 506 534 535 -1 506 535 507 -1 507 535 577 -1 508 516 517 -1 508 517 509 -1 509 517 555 -1 510 512 513 -1 510 513 511 -1 511 513 583 -1 511 583 515 -1 512 582 583 -1 512 583 513 -1 514 515 564 -1 515 565 564 -1 515 583 565 -1 517 579 555 -1 518 519 521 -1 518 521 520 -1 519 541 543 -1 519 543 521 -1 519 567 541 -1 521 543 557 -1 522 523 525 -1 522 525 524 -1 523 545 547 -1 523 547 525 -1 523 571 545 -1 525 547 559 -1 526 527 560 -1 527 561 560 -1 528 562 563 -1 528 563 529 -1 530 531 548 -1 531 533 575 -1 531 549 548 -1 531 575 549 -1 532 574 575 -1 532 575 533 -1 534 550 551 -1 534 551 535 -1 535 551 577 -1 536 537 538 -1 536 564 565 -1 536 565 537 -1 537 539 538 -1 537 565 539 -1 538 539 602 -1 539 565 583 -1 539 583 603 -1 539 603 602 -1 540 541 568 -1 540 542 543 -1 540 543 541 -1 541 567 569 -1 541 569 568 -1 542 650 651 -1 542 651 543 -1 543 643 557 -1 543 651 667 -1 543 667 643 -1 544 545 572 -1 544 546 547 -1 544 547 545 -1 545 571 573 -1 545 573 572 -1 546 652 653 -1 546 653 547 -1 547 647 559 -1 547 653 671 -1 547 671 647 -1 548 549 552 -1 549 553 552 -1 549 575 599 -1 549 599 553 -1 550 552 553 -1 550 553 551 -1 551 553 609 -1 551 609 577 -1 553 599 609 -1 554 555 580 -1 555 579 581 -1 555 581 580 -1 556 557 642 -1 557 643 642 -1 558 559 646 -1 559 647 646 -1 560 561 584 -1 561 585 584 -1 562 586 587 -1 562 587 563 -1 566 568 569 -1 566 569 567 -1 570 572 573 -1 570 573 571 -1 574 598 599 -1 574 599 575 -1 576 577 608 -1 577 609 608 -1 578 580 581 -1 578 581 579 -1 582 600 601 -1 582 601 583 -1 583 601 603 -1 584 585 596 -1 585 597 596 -1 586 596 597 -1 586 597 587 -1 588 589 590 -1 588 612 613 -1 588 613 589 -1 589 591 590 -1 589 613 591 -1 590 591 674 -1 591 613 675 -1 591 675 674 -1 592 593 594 -1 592 658 659 -1 592 659 593 -1 593 595 594 -1 593 611 595 -1 593 625 611 -1 593 659 625 -1 594 595 610 -1 595 611 610 -1 598 608 609 -1 598 609 599 -1 600 602 603 -1 600 603 601 -1 604 605 606 -1 604 614 615 -1 604 615 605 -1 605 607 606 -1 605 615 607 -1 606 607 664 -1 607 615 641 -1 607 641 665 -1 607 665 664 -1 610 611 612 -1 611 613 612 -1 611 625 627 -1 611 627 629 -1 611 629 613 -1 613 629 631 -1 613 631 675 -1 614 678 679 -1 614 679 615 -1 615 679 681 -1 615 681 687 -1 615 687 641 -1 616 617 618 -1 616 644 645 -1 616 645 617 -1 617 619 618 -1 617 645 619 -1 618 619 694 -1 619 645 669 -1 619 669 695 -1 619 695 694 -1 620 621 622 -1 620 648 649 -1 620 649 621 -1 621 623 622 -1 621 649 623 -1 622 623 698 -1 623 649 673 -1 623 673 699 -1 623 699 698 -1 624 625 660 -1 624 626 627 -1 624 627 625 -1 625 659 661 -1 625 661 660 -1 626 676 677 -1 626 677 627 -1 627 657 629 -1 627 677 657 -1 628 629 656 -1 628 630 631 -1 628 631 629 -1 629 657 656 -1 630 654 655 -1 630 655 631 -1 631 655 675 -1 632 633 634 -1 632 792 793 -1 632 793 633 -1 633 635 634 -1 633 683 635 -1 633 793 683 -1 634 635 682 -1 635 683 682 -1 636 637 638 -1 636 684 685 -1 636 685 637 -1 637 639 638 -1 637 685 639 -1 638 639 798 -1 639 685 737 -1 639 737 799 -1 639 799 798 -1 640 641 686 -1 640 662 663 -1 640 663 641 -1 641 663 665 -1 641 687 686 -1 642 643 644 -1 643 645 644 -1 643 667 669 -1 643 669 645 -1 646 647 648 -1 647 649 648 -1 647 671 673 -1 647 673 649 -1 650 666 667 -1 650 667 651 -1 652 670 671 -1 652 671 653 -1 654 688 689 -1 654 689 655 -1 655 689 675 -1 656 657 690 -1 657 677 691 -1 657 691 690 -1 658 660 661 -1 658 661 659 -1 662 664 665 -1 662 665 663 -1 666 668 669 -1 666 669 667 -1 668 692 693 -1 668 693 669 -1 669 693 695 -1 670 672 673 -1 670 673 671 -1 672 696 697 -1 672 697 673 -1 673 697 699 -1 674 675 706 -1 675 689 707 -1 675 707 706 -1 676 730 731 -1 676 731 677 -1 677 701 691 -1 677 731 701 -1 678 680 681 -1 678 681 679 -1 680 738 739 -1 680 739 681 -1 681 739 687 -1 682 683 684 -1 683 685 684 -1 683 735 685 -1 683 793 735 -1 685 735 737 -1 686 687 742 -1 687 739 743 -1 687 743 742 -1 688 704 705 -1 688 705 689 -1 689 705 707 -1 690 691 702 -1 691 701 703 -1 691 703 702 -1 692 694 695 -1 692 695 693 -1 696 698 699 -1 696 699 697 -1 700 701 770 -1 700 718 719 -1 700 719 701 -1 701 719 703 -1 701 731 771 -1 701 771 770 -1 702 703 708 -1 703 709 708 -1 703 719 709 -1 704 710 711 -1 704 711 705 -1 705 711 729 -1 705 729 707 -1 706 707 728 -1 707 729 728 -1 708 709 712 -1 709 713 712 -1 709 719 733 -1 709 733 745 -1 709 745 713 -1 710 712 713 -1 710 713 711 -1 711 713 755 -1 711 741 729 -1 711 755 741 -1 713 745 755 -1 714 715 720 -1 714 724 725 -1 714 725 715 -1 715 721 720 -1 715 725 757 -1 715 757 721 -1 716 717 722 -1 716 726 727 -1 716 727 717 -1 717 723 722 -1 717 727 759 -1 717 759 723 -1 718 732 733 -1 718 733 719 -1 720 721 746 -1 721 747 746 -1 721 757 763 -1 721 763 747 -1 722 723 748 -1 723 749 748 -1 723 759 765 -1 723 765 749 -1 724 750 751 -1 724 751 725 -1 725 751 767 -1 725 767 757 -1 726 752 753 -1 726 753 727 -1 727 753 769 -1 727 769 759 -1 728 729 740 -1 729 741 740 -1 730 788 789 -1 730 789 731 -1 731 789 771 -1 732 744 745 -1 732 745 733 -1 734 735 794 -1 734 736 737 -1 734 737 735 -1 735 793 795 -1 735 795 794 -1 736 796 797 -1 736 797 737 -1 737 797 799 -1 738 816 817 -1 738 817 739 -1 739 817 821 -1 739 821 743 -1 740 741 754 -1 741 755 754 -1 742 743 760 -1 743 761 760 -1 743 821 761 -1 744 754 755 -1 744 755 745 -1 746 747 780 -1 747 763 773 -1 747 773 781 -1 747 781 780 -1 748 749 782 -1 749 765 775 -1 749 775 783 -1 749 783 782 -1 750 784 785 -1 750 785 751 -1 751 777 767 -1 751 785 777 -1 752 786 787 -1 752 787 753 -1 753 779 769 -1 753 787 779 -1 756 757 766 -1 756 762 763 -1 756 763 757 -1 757 767 766 -1 758 759 768 -1 758 764 765 -1 758 765 759 -1 759 769 768 -1 760 761 820 -1 761 821 820 -1 762 772 773 -1 762 773 763 -1 764 774 775 -1 764 775 765 -1 766 767 776 -1 767 777 776 -1 768 769 778 -1 769 779 778 -1 770 771 790 -1 771 789 791 -1 771 791 790 -1 772 800 801 -1 772 801 773 -1 773 801 781 -1 774 802 803 -1 774 803 775 -1 775 803 783 -1 776 777 804 -1 777 785 805 -1 777 805 804 -1 778 779 806 -1 779 787 807 -1 779 807 806 -1 780 781 838 -1 781 801 839 -1 781 839 838 -1 782 783 840 -1 783 803 841 -1 783 841 840 -1 784 830 831 -1 784 831 785 -1 785 831 805 -1 786 832 833 -1 786 833 787 -1 787 833 807 -1 788 790 791 -1 788 791 789 -1 792 794 795 -1 792 795 793 -1 796 798 799 -1 796 799 797 -1 800 842 843 -1 800 843 801 -1 801 843 839 -1 802 844 845 -1 802 845 803 -1 803 845 841 -1 804 805 834 -1 805 831 835 -1 805 835 834 -1 806 807 836 -1 807 833 837 -1 807 837 836 -1 808 809 810 -1 808 884 885 -1 808 885 809 -1 809 811 810 -1 809 823 811 -1 809 885 823 -1 810 811 822 -1 811 823 822 -1 812 813 814 -1 812 824 825 -1 812 825 813 -1 813 815 814 -1 813 825 815 -1 814 815 870 -1 815 825 871 -1 815 871 870 -1 816 818 819 -1 816 819 817 -1 817 819 893 -1 817 893 821 -1 818 892 893 -1 818 893 819 -1 820 821 864 -1 821 865 864 -1 821 893 865 -1 822 823 824 -1 823 825 824 -1 823 849 851 -1 823 851 825 -1 823 885 849 -1 825 851 871 -1 826 827 828 -1 826 864 865 -1 826 865 827 -1 827 829 828 -1 827 865 829 -1 828 829 920 -1 829 865 893 -1 829 893 921 -1 829 921 920 -1 830 880 881 -1 830 881 831 -1 831 857 835 -1 831 881 857 -1 832 882 883 -1 832 883 833 -1 833 859 837 -1 833 883 859 -1 834 835 856 -1 835 857 856 -1 836 837 858 -1 837 859 858 -1 838 839 876 -1 839 843 853 -1 839 853 877 -1 839 877 876 -1 840 841 878 -1 841 845 855 -1 841 855 879 -1 841 879 878 -1 842 852 853 -1 842 853 843 -1 844 854 855 -1 844 855 845 -1 846 847 860 -1 846 862 863 -1 846 863 847 -1 847 861 860 -1 847 863 923 -1 847 923 861 -1 848 849 886 -1 848 850 851 -1 848 851 849 -1 849 885 887 -1 849 887 886 -1 850 952 953 -1 850 953 851 -1 851 953 955 -1 851 955 959 -1 851 959 871 -1 852 866 867 -1 852 867 853 -1 853 867 877 -1 854 868 869 -1 854 869 855 -1 855 869 879 -1 856 857 872 -1 857 873 872 -1 857 881 873 -1 858 859 874 -1 859 875 874 -1 859 883 875 -1 860 861 898 -1 861 899 898 -1 861 923 933 -1 861 933 899 -1 862 904 905 -1 862 905 863 -1 863 905 939 -1 863 939 923 -1 866 888 889 -1 866 889 867 -1 867 889 877 -1 868 890 891 -1 868 891 869 -1 869 891 879 -1 870 871 958 -1 871 959 958 -1 872 873 894 -1 873 881 895 -1 873 895 894 -1 874 875 896 -1 875 883 897 -1 875 897 896 -1 876 877 924 -1 877 889 925 -1 877 925 924 -1 878 879 926 -1 879 891 927 -1 879 927 926 -1 880 934 935 -1 880 935 881 -1 881 935 895 -1 882 936 937 -1 882 937 883 -1 883 937 897 -1 884 886 887 -1 884 887 885 -1 888 900 901 -1 888 901 889 -1 889 901 925 -1 890 902 903 -1 890 903 891 -1 891 903 927 -1 892 918 919 -1 892 919 893 -1 893 919 921 -1 894 895 906 -1 895 907 906 -1 895 935 907 -1 896 897 908 -1 897 909 908 -1 897 937 909 -1 898 899 982 -1 899 933 957 -1 899 957 983 -1 899 983 982 -1 900 910 911 -1 900 911 901 -1 901 911 929 -1 901 929 925 -1 902 912 913 -1 902 913 903 -1 903 913 931 -1 903 931 927 -1 904 988 989 -1 904 989 905 -1 905 961 939 -1 905 989 961 -1 906 907 914 -1 907 915 914 -1 907 935 949 -1 907 949 915 -1 908 909 916 -1 909 917 916 -1 909 937 951 -1 909 951 917 -1 910 928 929 -1 910 929 911 -1 912 930 931 -1 912 931 913 -1 914 915 948 -1 915 949 948 -1 916 917 950 -1 917 951 950 -1 918 920 921 -1 918 921 919 -1 922 923 938 -1 922 932 933 -1 922 933 923 -1 923 939 938 -1 924 925 928 -1 925 929 928 -1 926 927 930 -1 927 931 930 -1 932 956 957 -1 932 957 933 -1 934 948 949 -1 934 949 935 -1 936 950 951 -1 936 951 937 -1 938 939 960 -1 939 961 960 -1 940 941 942 -1 940 1004 1005 -1 940 1005 941 -1 941 943 942 -1 941 963 943 -1 941 1005 963 -1 942 943 962 -1 943 963 962 -1 944 945 946 -1 944 964 965 -1 944 965 945 -1 945 947 946 -1 945 965 947 -1 946 947 998 -1 947 965 999 -1 947 999 998 -1 952 954 955 -1 952 955 953 -1 954 1040 1041 -1 954 1041 955 -1 955 1041 959 -1 956 1000 1001 -1 956 1001 957 -1 957 1001 983 -1 958 959 1032 -1 959 1033 1032 -1 959 1041 1033 -1 960 961 1002 -1 961 989 1003 -1 961 1003 1002 -1 962 963 964 -1 963 965 964 -1 963 985 987 -1 963 987 965 -1 963 1005 985 -1 965 987 999 -1 966 967 968 -1 966 992 993 -1 966 993 967 -1 967 969 968 -1 967 993 969 -1 968 969 1042 -1 969 993 1043 -1 969 1043 1042 -1 970 971 972 -1 970 996 997 -1 970 997 971 -1 971 973 972 -1 971 997 973 -1 972 973 1044 -1 973 997 1045 -1 973 1045 1044 -1 974 975 976 -1 974 1050 1051 -1 974 1051 975 -1 975 977 976 -1 975 991 977 -1 975 1013 991 -1 975 1051 1013 -1 976 977 990 -1 977 991 990 -1 978 979 980 -1 978 1054 1055 -1 978 1055 979 -1 979 981 980 -1 979 995 981 -1 979 1021 995 -1 979 1055 1021 -1 980 981 994 -1 981 995 994 -1 982 983 1070 -1 983 1001 1071 -1 983 1071 1070 -1 984 985 1006 -1 984 986 987 -1 984 987 985 -1 985 1005 1007 -1 985 1007 1006 -1 986 1130 1131 -1 986 1131 987 -1 987 1127 999 -1 987 1131 1145 -1 987 1145 1127 -1 988 1066 1067 -1 988 1067 989 -1 989 1067 1003 -1 990 991 992 -1 991 993 992 -1 991 1013 1015 -1 991 1015 1017 -1 991 1017 993 -1 993 1017 1019 -1 993 1019 1043 -1 994 995 996 -1 995 997 996 -1 995 1021 1023 -1 995 1023 1025 -1 995 1025 997 -1 997 1025 1027 -1 997 1027 1045 -1 998 999 1126 -1 999 1127 1126 -1 1000 1072 1073 -1 1000 1073 1001 -1 1001 1073 1071 -1 1002 1003 1068 -1 1003 1067 1069 -1 1003 1069 1068 -1 1004 1006 1007 -1 1004 1007 1005 -1 1008 1009 1010 -1 1008 1110 1111 -1 1008 1111 1009 -1 1009 1011 1010 -1 1009 1039 1011 -1 1009 1111 1039 -1 1010 1011 1038 -1 1011 1039 1038 -1 1012 1013 1052 -1 1012 1014 1015 -1 1012 1015 1013 -1 1013 1051 1053 -1 1013 1053 1052 -1 1014 1046 1047 -1 1014 1047 1015 -1 1015 1035 1017 -1 1015 1047 1035 -1 1016 1017 1034 -1 1016 1018 1019 -1 1016 1019 1017 -1 1017 1035 1034 -1 1018 1028 1029 -1 1018 1029 1019 -1 1019 1029 1043 -1 1020 1021 1056 -1 1020 1022 1023 -1 1020 1023 1021 -1 1021 1055 1057 -1 1021 1057 1056 -1 1022 1048 1049 -1 1022 1049 1023 -1 1023 1037 1025 -1 1023 1049 1037 -1 1024 1025 1036 -1 1024 1026 1027 -1 1024 1027 1025 -1 1025 1037 1036 -1 1026 1030 1031 -1 1026 1031 1027 -1 1027 1031 1045 -1 1028 1062 1063 -1 1028 1063 1029 -1 1029 1063 1043 -1 1030 1064 1065 -1 1030 1065 1031 -1 1031 1065 1045 -1 1032 1033 1116 -1 1033 1041 1075 -1 1033 1075 1077 -1 1033 1077 1117 -1 1033 1117 1116 -1 1034 1035 1058 -1 1035 1047 1059 -1 1035 1059 1058 -1 1036 1037 1060 -1 1037 1049 1061 -1 1037 1061 1060 -1 1038 1039 1040 -1 1039 1041 1040 -1 1039 1075 1041 -1 1039 1111 1075 -1 1042 1043 1122 -1 1043 1063 1123 -1 1043 1123 1122 -1 1044 1045 1124 -1 1045 1065 1125 -1 1045 1125 1124 -1 1046 1082 1083 -1 1046 1083 1047 -1 1047 1083 1059 -1 1048 1084 1085 -1 1048 1085 1049 -1 1049 1085 1061 -1 1050 1052 1053 -1 1050 1053 1051 -1 1054 1056 1057 -1 1054 1057 1055 -1 1058 1059 1078 -1 1059 1079 1078 -1 1059 1083 1079 -1 1060 1061 1080 -1 1061 1081 1080 -1 1061 1085 1081 -1 1062 1086 1087 -1 1062 1087 1063 -1 1063 1087 1123 -1 1064 1088 1089 -1 1064 1089 1065 -1 1065 1089 1125 -1 1066 1150 1151 -1 1066 1151 1067 -1 1067 1109 1069 -1 1067 1151 1109 -1 1068 1069 1108 -1 1069 1109 1108 -1 1070 1071 1148 -1 1071 1073 1107 -1 1071 1107 1149 -1 1071 1149 1148 -1 1072 1106 1107 -1 1072 1107 1073 -1 1074 1075 1112 -1 1074 1076 1075 -1 1075 1076 1077 -1 1075 1111 1113 -1 1075 1113 1112 -1 1076 1114 1115 -1 1076 1115 1077 -1 1077 1115 1117 -1 1078 1079 1094 -1 1079 1083 1119 -1 1079 1095 1094 -1 1079 1119 1095 -1 1080 1081 1096 -1 1081 1085 1121 -1 1081 1097 1096 -1 1081 1121 1097 -1 1082 1118 1119 -1 1082 1119 1083 -1 1084 1120 1121 -1 1084 1121 1085 -1 1086 1098 1099 -1 1086 1099 1087 -1 1087 1099 1123 -1 1088 1100 1101 -1 1088 1101 1089 -1 1089 1101 1125 -1 1090 1091 1092 -1 1090 1128 1129 -1 1090 1129 1091 -1 1091 1093 1092 -1 1091 1129 1093 -1 1092 1093 1174 -1 1093 1129 1147 -1 1093 1147 1175 -1 1093 1175 1174 -1 1094 1095 1102 -1 1095 1103 1102 -1 1095 1119 1133 -1 1095 1133 1103 -1 1096 1097 1104 -1 1097 1105 1104 -1 1097 1121 1135 -1 1097 1135 1105 -1 1098 1102 1103 -1 1098 1103 1099 -1 1099 1103 1139 -1 1099 1139 1123 -1 1100 1104 1105 -1 1100 1105 1101 -1 1101 1105 1141 -1 1101 1141 1125 -1 1103 1133 1139 -1 1105 1135 1141 -1 1106 1136 1137 -1 1106 1137 1107 -1 1107 1137 1149 -1 1108 1109 1142 -1 1109 1143 1142 -1 1109 1151 1143 -1 1110 1112 1113 -1 1110 1113 1111 -1 1114 1116 1117 -1 1114 1117 1115 -1 1118 1132 1133 -1 1118 1133 1119 -1 1120 1134 1135 -1 1120 1135 1121 -1 1122 1123 1138 -1 1123 1139 1138 -1 1124 1125 1140 -1 1125 1141 1140 -1 1126 1127 1128 -1 1127 1129 1128 -1 1127 1145 1147 -1 1127 1147 1129 -1 1130 1144 1145 -1 1130 1145 1131 -1 1132 1138 1139 -1 1132 1139 1133 -1 1134 1140 1141 -1 1134 1141 1135 -1 1136 1168 1169 -1 1136 1169 1137 -1 1137 1169 1149 -1 1142 1143 1170 -1 1143 1151 1171 -1 1143 1171 1170 -1 1144 1146 1147 -1 1144 1147 1145 -1 1146 1172 1173 -1 1146 1173 1147 -1 1147 1173 1175 -1 1148 1149 1208 -1 1149 1169 1209 -1 1149 1209 1208 -1 1150 1216 1217 -1 1150 1217 1151 -1 1151 1217 1171 -1 1152 1153 1154 -1 1152 1228 1229 -1 1152 1229 1153 -1 1153 1155 1154 -1 1153 1187 1155 -1 1153 1229 1187 -1 1154 1155 1186 -1 1155 1187 1186 -1 1156 1157 1158 -1 1156 1188 1189 -1 1156 1189 1157 -1 1157 1159 1158 -1 1157 1189 1159 -1 1158 1159 1220 -1 1159 1189 1221 -1 1159 1221 1220 -1 1160 1161 1162 -1 1160 1232 1233 -1 1160 1233 1161 -1 1161 1163 1162 -1 1161 1191 1163 -1 1161 1233 1191 -1 1162 1163 1190 -1 1163 1191 1190 -1 1164 1165 1166 -1 1164 1192 1193 -1 1164 1193 1165 -1 1165 1167 1166 -1 1165 1193 1167 -1 1166 1167 1222 -1 1167 1193 1223 -1 1167 1223 1222 -1 1168 1176 1177 -1 1168 1177 1169 -1 1169 1177 1209 -1 1170 1171 1194 -1 1171 1195 1194 -1 1171 1217 1195 -1 1172 1174 1175 -1 1172 1175 1173 -1 1176 1196 1197 -1 1176 1197 1177 -1 1177 1197 1211 -1 1177 1211 1209 -1 1178 1179 1180 -1 1178 1238 1239 -1 1178 1239 1179 -1 1179 1181 1180 -1 1179 1213 1181 -1 1179 1239 1213 -1 1180 1181 1212 -1 1181 1213 1212 -1 1182 1183 1184 -1 1182 1214 1215 -1 1182 1215 1183 -1 1183 1185 1184 -1 1183 1215 1185 -1 1184 1185 1236 -1 1185 1215 1237 -1 1185 1237 1236 -1 1186 1187 1189 -1 1186 1189 1188 -1 1187 1201 1203 -1 1187 1203 1189 -1 1187 1229 1201 -1 1189 1203 1221 -1 1190 1191 1193 -1 1190 1193 1192 -1 1191 1205 1207 -1 1191 1207 1193 -1 1191 1233 1205 -1 1193 1207 1223 -1 1194 1195 1198 -1 1195 1199 1198 -1 1195 1217 1219 -1 1195 1219 1199 -1 1196 1210 1211 -1 1196 1211 1197 -1 1198 1199 1218 -1 1199 1219 1218 -1 1200 1201 1230 -1 1200 1202 1203 -1 1200 1203 1201 -1 1201 1229 1231 -1 1201 1231 1230 -1 1202 1286 1287 -1 1202 1287 1203 -1 1203 1279 1221 -1 1203 1287 1301 -1 1203 1301 1279 -1 1204 1205 1234 -1 1204 1206 1207 -1 1204 1207 1205 -1 1205 1233 1235 -1 1205 1235 1234 -1 1206 1288 1289 -1 1206 1289 1207 -1 1207 1283 1223 -1 1207 1289 1305 -1 1207 1305 1283 -1 1208 1209 1210 -1 1209 1211 1210 -1 1212 1213 1214 -1 1213 1215 1214 -1 1213 1225 1227 -1 1213 1227 1215 -1 1213 1239 1225 -1 1215 1227 1237 -1 1216 1218 1219 -1 1216 1219 1217 -1 1220 1221 1278 -1 1221 1279 1278 -1 1222 1223 1282 -1 1223 1283 1282 -1 1224 1225 1240 -1 1224 1226 1227 -1 1224 1227 1225 -1 1225 1239 1241 -1 1225 1241 1240 -1 1226 1316 1317 -1 1226 1317 1227 -1 1227 1313 1237 -1 1227 1317 1321 -1 1227 1321 1313 -1 1228 1230 1231 -1 1228 1231 1229 -1 1232 1234 1235 -1 1232 1235 1233 -1 1236 1237 1312 -1 1237 1313 1312 -1 1238 1240 1241 -1 1238 1241 1239 -1 1242 1243 1250 -1 1242 1244 1243 -1 1243 1244 1245 -1 1243 1245 1263 -1 1243 1251 1250 -1 1243 1263 1251 -1 1244 1270 1271 -1 1244 1271 1245 -1 1245 1269 1263 -1 1245 1271 1269 -1 1246 1247 1248 -1 1246 1260 1261 -1 1246 1261 1247 -1 1247 1249 1248 -1 1247 1261 1267 -1 1247 1267 1249 -1 1248 1249 1264 -1 1249 1265 1264 -1 1249 1267 1265 -1 1250 1251 1262 -1 1251 1263 1262 -1 1252 1253 1254 -1 1252 1280 1281 -1 1252 1281 1253 -1 1253 1255 1254 -1 1253 1281 1255 -1 1254 1255 1326 -1 1255 1281 1303 -1 1255 1303 1327 -1 1255 1327 1326 -1 1256 1257 1258 -1 1256 1284 1285 -1 1256 1285 1257 -1 1257 1259 1258 -1 1257 1285 1259 -1 1258 1259 1330 -1 1259 1285 1307 -1 1259 1307 1331 -1 1259 1331 1330 -1 1260 1266 1267 -1 1260 1267 1261 -1 1262 1263 1268 -1 1263 1269 1268 -1 1264 1265 1290 -1 1265 1267 1273 -1 1265 1273 1291 -1 1265 1291 1290 -1 1266 1272 1273 -1 1266 1273 1267 -1 1268 1269 1292 -1 1269 1271 1293 -1 1269 1293 1292 -1 1270 1338 1339 -1 1270 1339 1271 -1 1271 1311 1293 -1 1271 1339 1311 -1 1272 1298 1299 -1 1272 1299 1273 -1 1273 1299 1291 -1 1274 1275 1276 -1 1274 1314 1315 -1 1274 1315 1275 -1 1275 1277 1276 -1 1275 1315 1277 -1 1276 1277 1346 -1 1277 1315 1323 -1 1277 1323 1347 -1 1277 1347 1346 -1 1278 1279 1280 -1 1279 1281 1280 -1 1279 1301 1303 -1 1279 1303 1281 -1 1282 1283 1284 -1 1283 1285 1284 -1 1283 1305 1307 -1 1283 1307 1285 -1 1286 1300 1301 -1 1286 1301 1287 -1 1288 1304 1305 -1 1288 1305 1289 -1 1290 1291 1308 -1 1291 1299 1309 -1 1291 1309 1308 -1 1292 1293 1310 -1 1293 1311 1310 -1 1294 1295 1296 -1 1294 1340 1341 -1 1294 1341 1295 -1 1295 1297 1296 -1 1295 1341 1297 -1 1296 1297 1342 -1 1297 1341 1343 -1 1297 1343 1342 -1 1298 1318 1319 -1 1298 1319 1299 -1 1299 1319 1309 -1 1300 1302 1303 -1 1300 1303 1301 -1 1302 1324 1325 -1 1302 1325 1303 -1 1303 1325 1327 -1 1304 1306 1307 -1 1304 1307 1305 -1 1306 1328 1329 -1 1306 1329 1307 -1 1307 1329 1331 -1 1308 1309 1336 -1 1309 1319 1337 -1 1309 1337 1336 -1 1310 1311 1332 -1 1311 1333 1332 -1 1311 1339 1333 -1 1312 1313 1314 -1 1313 1315 1314 -1 1313 1321 1323 -1 1313 1323 1315 -1 1316 1320 1321 -1 1316 1321 1317 -1 1318 1334 1335 -1 1318 1335 1319 -1 1319 1335 1337 -1 1320 1322 1323 -1 1320 1323 1321 -1 1322 1344 1345 -1 1322 1345 1323 -1 1323 1345 1347 -1 1324 1326 1327 -1 1324 1327 1325 -1 1328 1330 1331 -1 1328 1331 1329 -1 1332 1333 1352 -1 1333 1339 1353 -1 1333 1353 1352 -1 1334 1348 1349 -1 1334 1349 1335 -1 1335 1349 1337 -1 1336 1337 1400 -1 1337 1349 1401 -1 1337 1401 1400 -1 1338 1370 1371 -1 1338 1371 1339 -1 1339 1371 1353 -1 1340 1356 1357 -1 1340 1357 1341 -1 1341 1351 1343 -1 1341 1355 1351 -1 1341 1357 1355 -1 1342 1343 1350 -1 1343 1351 1350 -1 1344 1346 1347 -1 1344 1347 1345 -1 1348 1366 1367 -1 1348 1367 1349 -1 1349 1367 1401 -1 1350 1351 1368 -1 1351 1355 1387 -1 1351 1369 1368 -1 1351 1387 1369 -1 1352 1353 1376 -1 1353 1371 1377 -1 1353 1377 1376 -1 1354 1355 1392 -1 1354 1386 1387 -1 1354 1387 1355 -1 1355 1357 1393 -1 1355 1393 1392 -1 1356 1378 1379 -1 1356 1379 1357 -1 1357 1379 1393 -1 1358 1359 1360 -1 1358 1408 1409 -1 1358 1409 1359 -1 1359 1361 1360 -1 1359 1383 1361 -1 1359 1409 1383 -1 1360 1361 1382 -1 1361 1383 1382 -1 1362 1363 1364 -1 1362 1384 1385 -1 1362 1385 1363 -1 1363 1365 1364 -1 1363 1385 1365 -1 1364 1365 1406 -1 1365 1385 1407 -1 1365 1407 1406 -1 1366 1372 1373 -1 1366 1373 1367 -1 1367 1373 1401 -1 1368 1369 1374 -1 1369 1375 1374 -1 1369 1387 1403 -1 1369 1403 1375 -1 1370 1404 1405 -1 1370 1405 1371 -1 1371 1405 1377 -1 1372 1380 1381 -1 1372 1381 1373 -1 1373 1381 1417 -1 1373 1417 1401 -1 1374 1375 1380 -1 1375 1381 1380 -1 1375 1403 1415 -1 1375 1415 1381 -1 1376 1377 1388 -1 1377 1389 1388 -1 1377 1405 1389 -1 1378 1390 1391 -1 1378 1391 1379 -1 1379 1391 1413 -1 1379 1413 1393 -1 1381 1415 1417 -1 1382 1383 1384 -1 1383 1385 1384 -1 1383 1395 1397 -1 1383 1397 1385 -1 1383 1409 1395 -1 1385 1397 1407 -1 1386 1402 1403 -1 1386 1403 1387 -1 1388 1389 1398 -1 1389 1399 1398 -1 1389 1405 1419 -1 1389 1419 1399 -1 1390 1398 1399 -1 1390 1399 1391 -1 1391 1399 1421 -1 1391 1421 1413 -1 1392 1393 1412 -1 1393 1413 1412 -1 1394 1395 1410 -1 1394 1396 1397 -1 1394 1397 1395 -1 1395 1409 1411 -1 1395 1411 1410 -1 1396 1440 1441 -1 1396 1441 1397 -1 1397 1437 1407 -1 1397 1441 1449 -1 1397 1449 1437 -1 1399 1419 1423 -1 1399 1423 1421 -1 1400 1401 1416 -1 1401 1417 1416 -1 1402 1414 1415 -1 1402 1415 1403 -1 1404 1418 1419 -1 1404 1419 1405 -1 1406 1407 1436 -1 1407 1437 1436 -1 1408 1410 1411 -1 1408 1411 1409 -1 1412 1413 1420 -1 1413 1421 1420 -1 1414 1416 1417 -1 1414 1417 1415 -1 1418 1422 1423 -1 1418 1423 1419 -1 1420 1421 1422 -1 1421 1423 1422 -1 1424 1425 1426 -1 1424 1438 1439 -1 1424 1439 1425 -1 1425 1427 1426 -1 1425 1439 1427 -1 1426 1427 1464 -1 1427 1439 1451 -1 1427 1451 1465 -1 1427 1465 1464 -1 1428 1429 1430 -1 1428 1510 1511 -1 1428 1511 1429 -1 1429 1431 1430 -1 1429 1445 1431 -1 1429 1511 1445 -1 1430 1431 1452 -1 1431 1445 1453 -1 1431 1453 1452 -1 1432 1433 1434 -1 1432 1442 1443 -1 1432 1443 1433 -1 1433 1435 1434 -1 1433 1443 1447 -1 1433 1447 1435 -1 1434 1435 1456 -1 1435 1447 1455 -1 1435 1455 1457 -1 1435 1457 1456 -1 1436 1437 1438 -1 1437 1439 1438 -1 1437 1449 1451 -1 1437 1451 1439 -1 1440 1448 1449 -1 1440 1449 1441 -1 1442 1446 1447 -1 1442 1447 1443 -1 1444 1445 1512 -1 1444 1458 1459 -1 1444 1459 1445 -1 1445 1459 1453 -1 1445 1511 1513 -1 1445 1513 1512 -1 1446 1454 1455 -1 1446 1455 1447 -1 1448 1450 1451 -1 1448 1451 1449 -1 1450 1462 1463 -1 1450 1463 1451 -1 1451 1463 1465 -1 1452 1453 1470 -1 1453 1459 1469 -1 1453 1469 1471 -1 1453 1471 1470 -1 1454 1460 1461 -1 1454 1461 1455 -1 1455 1461 1457 -1 1456 1457 1474 -1 1457 1461 1467 -1 1457 1467 1475 -1 1457 1475 1474 -1 1458 1468 1469 -1 1458 1469 1459 -1 1460 1466 1467 -1 1460 1467 1461 -1 1462 1464 1465 -1 1462 1465 1463 -1 1466 1472 1473 -1 1466 1473 1467 -1 1467 1473 1475 -1 1468 1480 1481 -1 1468 1481 1469 -1 1469 1481 1471 -1 1470 1471 1476 -1 1471 1477 1476 -1 1471 1481 1477 -1 1472 1478 1479 -1 1472 1479 1473 -1 1473 1479 1475 -1 1474 1475 1484 -1 1475 1479 1485 -1 1475 1485 1484 -1 1476 1477 1482 -1 1477 1481 1497 -1 1477 1483 1482 -1 1477 1497 1483 -1 1478 1486 1487 -1 1478 1487 1479 -1 1479 1487 1485 -1 1480 1496 1497 -1 1480 1497 1481 -1 1482 1483 1488 -1 1483 1489 1488 -1 1483 1497 1501 -1 1483 1501 1489 -1 1484 1485 1498 -1 1485 1487 1499 -1 1485 1499 1498 -1 1486 1490 1491 -1 1486 1491 1487 -1 1487 1491 1499 -1 1488 1489 1492 -1 1489 1493 1492 -1 1489 1501 1503 -1 1489 1503 1493 -1 1490 1494 1495 -1 1490 1495 1491 -1 1491 1495 1505 -1 1491 1505 1499 -1 1492 1493 1494 -1 1493 1495 1494 -1 1493 1503 1507 -1 1493 1507 1495 -1 1495 1507 1509 -1 1495 1509 1505 -1 1496 1500 1501 -1 1496 1501 1497 -1 1498 1499 1504 -1 1499 1505 1504 -1 1500 1502 1503 -1 1500 1503 1501 -1 1502 1506 1507 -1 1502 1507 1503 -1 1504 1505 1508 -1 1505 1509 1508 -1 1506 1508 1509 -1 1506 1509 1507 -1 1510 1512 1513 -1 1510 1513 1511 -1 "
						                >
							<Coordinate USE="coords_ME_OpenSCAD_Model" />
						</IndexedFaceSet>
					</Shape>
				</Group>
			</Transform>
		</Transform>
	</Scene>
</X3D>