<?xml version="1.0" encoding="UTF-8"?>
<!DOCTYPE X3D PUBLIC "ISO//Web3D//DTD X3D 3.0//EN" "http://www.web3d.org/specifications/x3d-3.0.dtd">
<X3D version="3.0" profile="Immersive" xmlns:xsd="http://www.w3.org/2001/XMLSchema-instance" xsd:noNamespaceSchemaLocation="http://www.web3d.org/specifications/x3d-3.0.xsd">
	<head>
		<meta name="filename" content="C04-21099A.x3d" />
		<meta name="created" content="2026-02-22 12:28:59" />
		<meta name="generator" content="Blender 5.0.1" />
		<meta name="translator" content="Web3D X3D/VRML2 format v2.5.1" />
	</head>
	<Scene>
		<NavigationInfo headlight="true"
		                visibilityLimit="0.0"
		                type='"EXAMINE", "ANY"'
		                avatarSize="0.25, 1.75, 0.75"
		                />
		<Transform DEF="OpenSCAD_Model_TRANSFORM"
		           translation="0.000000 0.000000 0.000000"
		           scale="0.001000 0.001000 0.001000"
		           rotation="-1.000000 0.000000 0.000000 1.570796"
		           >
			<Transform DEF="OpenSCAD_Model_ifs_TRANSFORM"
			           translation="0.000000 0.000000 0.000000"
			           scale="1.000000 1.000000 1.000000"
			           rotation="0.000000 1.000000 0.000000 0.000000"
			           >
				<Group DEF="group_ME_OpenSCAD_Model">
					<Shape>
						<Appearance>
							<Material DEF="MA_Color_2"
							          diffuseColor="1.000 1.000 1.000"
							          specularColor="0.401 0.401 0.401"
							          emissiveColor="0.000 0.000 0.000"
							          ambientIntensity="0.000"
							          shininess="0.500"
							          transparency="1.000"
							          />
						</Appearance>
						<IndexedFaceSet solid="false"
						                coordIndex="0 1 3 -1 0 2 8 -1 0 3 2 -1 0 8 18 -1 0 18 1 -1 1 9 3 -1 1 18 19 -1 1 19 31 -1 1 31 9 -1 2 3 9 -1 2 9 8 -1 4 5 7 -1 4 6 10 -1 4 7 6 -1 4 10 5 -1 5 10 11 -1 5 11 7 -1 6 7 29 -1 6 24 10 -1 6 25 24 -1 6 29 25 -1 7 11 29 -1 8 9 11 -1 8 10 14 -1 8 11 10 -1 8 12 20 -1 8 14 12 -1 8 20 18 -1 9 13 15 -1 9 15 11 -1 9 31 13 -1 10 24 14 -1 11 15 29 -1 12 13 33 -1 12 14 13 -1 12 21 20 -1 12 33 21 -1 13 14 15 -1 13 31 33 -1 14 22 23 -1 14 23 15 -1 14 24 22 -1 15 23 41 -1 15 41 49 -1 15 49 61 -1 15 61 29 -1 19 30 31 -1 21 33 32 -1 23 40 41 -1 25 29 28 -1 28 29 60 -1 29 61 60 -1 30 32 33 -1 30 33 31 -1 34 35 36 -1 34 38 39 -1 34 39 35 -1 35 37 36 -1 35 39 37 -1 36 37 72 -1 37 39 55 -1 37 55 73 -1 37 73 72 -1 38 76 77 -1 38 77 39 -1 39 77 55 -1 40 48 49 -1 40 49 41 -1 42 43 46 -1 42 44 45 -1 42 45 43 -1 43 45 127 -1 43 47 46 -1 43 69 47 -1 43 81 69 -1 43 85 81 -1 43 93 85 -1 43 97 93 -1 43 113 97 -1 43 117 113 -1 43 123 117 -1 43 127 123 -1 44 50 51 -1 44 51 45 -1 45 51 127 -1 46 47 52 -1 47 53 52 -1 47 65 53 -1 47 69 65 -1 48 134 135 -1 48 135 49 -1 49 135 61 -1 50 62 63 -1 50 63 51 -1 51 63 127 -1 52 53 64 -1 53 65 64 -1 54 55 86 -1 54 70 71 -1 54 71 55 -1 55 71 73 -1 55 77 87 -1 55 87 86 -1 56 57 58 -1 56 108 109 -1 56 109 57 -1 57 59 58 -1 57 75 59 -1 57 109 75 -1 58 59 74 -1 59 75 74 -1 60 61 130 -1 61 131 130 -1 61 135 131 -1 62 66 67 -1 62 67 63 -1 63 67 127 -1 64 65 68 -1 65 69 68 -1 66 78 79 -1 66 79 67 -1 67 79 127 -1 68 69 80 -1 69 81 80 -1 70 72 73 -1 70 73 71 -1 74 75 76 -1 75 77 76 -1 75 89 77 -1 75 109 89 -1 77 89 91 -1 77 91 87 -1 78 82 83 -1 78 83 79 -1 79 83 127 -1 80 81 84 -1 81 85 84 -1 82 94 95 -1 82 95 83 -1 83 95 115 -1 83 115 119 -1 83 119 125 -1 83 125 127 -1 84 85 92 -1 85 93 92 -1 86 87 120 -1 87 91 121 -1 87 121 120 -1 88 89 110 -1 88 90 91 -1 88 91 89 -1 89 109 111 -1 89 111 110 -1 90 128 129 -1 90 129 91 -1 91 129 121 -1 92 93 96 -1 93 97 96 -1 94 102 103 -1 94 103 95 -1 95 103 115 -1 96 97 112 -1 97 113 112 -1 98 99 100 -1 98 120 121 -1 98 121 99 -1 99 101 100 -1 99 121 101 -1 100 101 138 -1 101 121 129 -1 101 129 139 -1 101 139 138 -1 102 114 115 -1 102 115 103 -1 104 105 106 -1 104 188 189 -1 104 189 105 -1 105 107 106 -1 105 133 107 -1 105 189 133 -1 106 107 132 -1 107 133 132 -1 108 110 111 -1 108 111 109 -1 112 113 116 -1 113 117 116 -1 114 118 119 -1 114 119 115 -1 116 117 122 -1 117 123 122 -1 118 124 125 -1 118 125 119 -1 122 123 126 -1 123 127 126 -1 124 126 127 -1 124 127 125 -1 128 136 137 -1 128 137 129 -1 129 137 139 -1 130 131 194 -1 131 135 147 -1 131 147 149 -1 131 149 195 -1 131 195 194 -1 132 133 134 -1 133 135 134 -1 133 147 135 -1 133 189 147 -1 136 138 139 -1 136 139 137 -1 140 141 142 -1 140 144 145 -1 140 145 141 -1 141 143 142 -1 141 145 143 -1 142 143 206 -1 143 145 163 -1 143 163 207 -1 143 207 206 -1 144 214 215 -1 144 215 145 -1 145 215 163 -1 146 147 190 -1 146 148 147 -1 147 148 149 -1 147 189 191 -1 147 191 190 -1 148 192 193 -1 148 193 149 -1 149 193 195 -1 150 151 154 -1 150 158 159 -1 150 159 151 -1 151 155 154 -1 151 159 177 -1 151 177 155 -1 152 153 156 -1 152 160 161 -1 152 161 153 -1 153 157 156 -1 153 161 179 -1 153 179 157 -1 154 155 164 -1 155 165 164 -1 155 177 181 -1 155 181 165 -1 156 157 166 -1 157 167 166 -1 157 179 183 -1 157 183 167 -1 158 172 173 -1 158 173 159 -1 159 173 185 -1 159 185 177 -1 160 174 175 -1 160 175 161 -1 161 175 187 -1 161 187 179 -1 162 163 228 -1 162 204 205 -1 162 205 163 -1 163 205 207 -1 163 215 229 -1 163 229 228 -1 164 165 208 -1 165 181 197 -1 165 197 209 -1 165 209 208 -1 166 167 210 -1 167 183 199 -1 167 199 211 -1 167 211 210 -1 168 169 170 -1 168 258 259 -1 168 259 169 -1 169 171 170 -1 169 213 171 -1 169 259 213 -1 170 171 212 -1 171 213 212 -1 172 216 217 -1 172 217 173 -1 173 201 185 -1 173 217 201 -1 174 218 219 -1 174 219 175 -1 175 203 187 -1 175 219 203 -1 176 177 184 -1 176 180 181 -1 176 181 177 -1 177 185 184 -1 178 179 186 -1 178 182 183 -1 178 183 179 -1 179 187 186 -1 180 196 197 -1 180 197 181 -1 182 198 199 -1 182 199 183 -1 184 185 200 -1 185 201 200 -1 186 187 202 -1 187 203 202 -1 188 190 191 -1 188 191 189 -1 192 194 195 -1 192 195 193 -1 196 220 221 -1 196 221 197 -1 197 221 209 -1 198 222 223 -1 198 223 199 -1 199 223 211 -1 200 201 224 -1 201 217 225 -1 201 225 224 -1 202 203 226 -1 203 219 227 -1 203 227 226 -1 204 206 207 -1 204 207 205 -1 208 209 242 -1 209 221 243 -1 209 243 242 -1 210 211 244 -1 211 223 245 -1 211 245 244 -1 212 213 214 -1 213 215 214 -1 213 231 215 -1 213 259 231 -1 215 231 233 -1 215 233 229 -1 216 234 235 -1 216 235 217 -1 217 235 225 -1 218 236 237 -1 218 237 219 -1 219 237 227 -1 220 246 247 -1 220 247 221 -1 221 247 243 -1 222 248 249 -1 222 249 223 -1 223 249 245 -1 224 225 238 -1 225 235 239 -1 225 239 238 -1 226 227 240 -1 227 237 241 -1 227 241 240 -1 228 229 274 -1 229 233 275 -1 229 275 274 -1 230 231 260 -1 230 232 233 -1 230 233 231 -1 231 259 261 -1 231 261 260 -1 232 292 293 -1 232 293 233 -1 233 293 275 -1 234 280 281 -1 234 281 235 -1 235 263 239 -1 235 281 263 -1 236 282 283 -1 236 283 237 -1 237 265 241 -1 237 283 265 -1 238 239 262 -1 239 263 262 -1 240 241 264 -1 241 265 264 -1 242 243 276 -1 243 247 255 -1 243 255 277 -1 243 277 276 -1 244 245 278 -1 245 249 257 -1 245 257 279 -1 245 279 278 -1 246 254 255 -1 246 255 247 -1 248 256 257 -1 248 257 249 -1 250 251 252 -1 250 274 275 -1 250 275 251 -1 251 253 252 -1 251 275 253 -1 252 253 328 -1 253 275 293 -1 253 293 329 -1 253 329 328 -1 254 266 267 -1 254 267 255 -1 255 267 277 -1 256 268 269 -1 256 269 257 -1 257 269 279 -1 258 260 261 -1 258 261 259 -1 262 263 270 -1 263 271 270 -1 263 281 271 -1 264 265 272 -1 265 273 272 -1 265 283 273 -1 266 284 285 -1 266 285 267 -1 267 285 277 -1 268 286 287 -1 268 287 269 -1 269 287 279 -1 270 271 288 -1 271 281 289 -1 271 289 288 -1 272 273 290 -1 273 283 291 -1 273 291 290 -1 276 277 310 -1 277 285 311 -1 277 311 310 -1 278 279 312 -1 279 287 313 -1 279 313 312 -1 280 318 319 -1 280 319 281 -1 281 319 289 -1 282 320 321 -1 282 321 283 -1 283 321 291 -1 284 294 295 -1 284 295 285 -1 285 295 311 -1 286 296 297 -1 286 297 287 -1 287 297 313 -1 288 289 298 -1 289 299 298 -1 289 319 299 -1 290 291 300 -1 291 301 300 -1 291 321 301 -1 292 326 327 -1 292 327 293 -1 293 327 329 -1 294 302 303 -1 294 303 295 -1 295 303 315 -1 295 315 311 -1 296 304 305 -1 296 305 297 -1 297 305 317 -1 297 317 313 -1 298 299 306 -1 299 307 306 -1 299 319 323 -1 299 323 307 -1 300 301 308 -1 301 309 308 -1 301 321 325 -1 301 325 309 -1 302 314 315 -1 302 315 303 -1 304 316 317 -1 304 317 305 -1 306 307 322 -1 307 323 322 -1 308 309 324 -1 309 325 324 -1 310 311 314 -1 311 315 314 -1 312 313 316 -1 313 317 316 -1 318 322 323 -1 318 323 319 -1 320 324 325 -1 320 325 321 -1 326 328 329 -1 326 329 327 -1 330 331 332 -1 330 342 343 -1 330 343 331 -1 331 333 332 -1 331 343 333 -1 332 333 398 -1 333 343 369 -1 333 369 399 -1 333 399 398 -1 334 335 336 -1 334 362 363 -1 334 363 335 -1 335 337 336 -1 335 363 337 -1 336 337 412 -1 337 363 413 -1 337 413 412 -1 338 339 340 -1 338 366 367 -1 338 367 339 -1 339 341 340 -1 339 367 341 -1 340 341 414 -1 341 367 415 -1 341 415 414 -1 342 400 401 -1 342 401 343 -1 343 401 411 -1 343 411 423 -1 343 423 369 -1 344 345 346 -1 344 424 425 -1 344 425 345 -1 345 347 346 -1 345 361 347 -1 345 379 361 -1 345 425 379 -1 346 347 360 -1 347 361 360 -1 348 349 350 -1 348 428 429 -1 348 429 349 -1 349 351 350 -1 349 365 351 -1 349 387 365 -1 349 429 387 -1 350 351 364 -1 351 365 364 -1 352 353 354 -1 352 376 377 -1 352 377 353 -1 353 355 354 -1 353 377 355 -1 354 355 502 -1 355 377 503 -1 355 503 502 -1 356 357 358 -1 356 516 517 -1 356 517 357 -1 357 359 358 -1 357 375 359 -1 357 449 375 -1 357 517 449 -1 358 359 374 -1 359 375 374 -1 360 361 362 -1 361 363 362 -1 361 379 381 -1 361 381 383 -1 361 383 363 -1 363 383 385 -1 363 385 413 -1 364 365 366 -1 365 367 366 -1 365 387 389 -1 365 389 391 -1 365 391 367 -1 367 391 393 -1 367 393 415 -1 368 369 422 -1 368 396 397 -1 368 397 369 -1 369 397 399 -1 369 423 422 -1 370 371 372 -1 370 444 445 -1 370 445 371 -1 371 373 372 -1 371 395 373 -1 371 445 395 -1 372 373 394 -1 373 395 394 -1 374 375 376 -1 375 377 376 -1 375 449 451 -1 375 451 453 -1 375 453 377 -1 377 453 455 -1 377 455 503 -1 378 379 426 -1 378 380 381 -1 378 381 379 -1 379 425 427 -1 379 427 426 -1 380 418 419 -1 380 419 381 -1 381 407 383 -1 381 419 407 -1 382 383 406 -1 382 384 385 -1 382 385 383 -1 383 407 406 -1 384 402 403 -1 384 403 385 -1 385 403 413 -1 386 387 430 -1 386 388 389 -1 386 389 387 -1 387 429 431 -1 387 431 430 -1 388 420 421 -1 388 421 389 -1 389 409 391 -1 389 421 409 -1 390 391 408 -1 390 392 393 -1 390 393 391 -1 391 409 408 -1 392 404 405 -1 392 405 393 -1 393 405 415 -1 394 395 480 -1 395 417 441 -1 395 441 443 -1 395 443 481 -1 395 445 417 -1 395 481 480 -1 396 398 399 -1 396 399 397 -1 400 410 411 -1 400 411 401 -1 402 436 437 -1 402 437 403 -1 403 437 413 -1 404 438 439 -1 404 439 405 -1 405 439 415 -1 406 407 432 -1 407 419 433 -1 407 433 432 -1 408 409 434 -1 409 421 435 -1 409 435 434 -1 410 482 483 -1 410 483 411 -1 411 483 423 -1 412 413 488 -1 413 437 489 -1 413 489 488 -1 414 415 490 -1 415 439 491 -1 415 491 490 -1 416 417 446 -1 416 440 441 -1 416 441 417 -1 417 445 447 -1 417 447 446 -1 418 460 461 -1 418 461 419 -1 419 461 433 -1 420 462 463 -1 420 463 421 -1 421 463 435 -1 422 423 492 -1 423 483 493 -1 423 493 492 -1 424 426 427 -1 424 427 425 -1 428 430 431 -1 428 431 429 -1 432 433 456 -1 433 457 456 -1 433 461 457 -1 434 435 458 -1 435 459 458 -1 435 463 459 -1 436 464 465 -1 436 465 437 -1 437 465 489 -1 438 466 467 -1 438 467 439 -1 439 467 491 -1 440 546 547 -1 440 547 441 -1 441 547 443 -1 442 443 524 -1 442 498 499 -1 442 499 443 -1 443 499 481 -1 443 525 524 -1 443 547 525 -1 444 446 447 -1 444 447 445 -1 448 449 518 -1 448 450 451 -1 448 451 449 -1 449 517 519 -1 449 519 518 -1 450 508 509 -1 450 509 451 -1 451 497 453 -1 451 509 497 -1 452 453 496 -1 452 454 455 -1 452 455 453 -1 453 497 496 -1 454 494 495 -1 454 495 455 -1 455 495 503 -1 456 457 468 -1 457 461 485 -1 457 469 468 -1 457 485 469 -1 458 459 470 -1 459 463 487 -1 459 471 470 -1 459 487 471 -1 460 484 485 -1 460 485 461 -1 462 486 487 -1 462 487 463 -1 464 472 473 -1 464 473 465 -1 465 473 489 -1 466 474 475 -1 466 475 467 -1 467 475 491 -1 468 469 476 -1 469 477 476 -1 469 485 505 -1 469 505 477 -1 470 471 478 -1 471 479 478 -1 471 487 507 -1 471 507 479 -1 472 476 477 -1 472 477 473 -1 473 477 511 -1 473 511 489 -1 474 478 479 -1 474 479 475 -1 475 479 513 -1 475 513 491 -1 477 505 511 -1 479 507 513 -1 480 481 514 -1 481 499 515 -1 481 515 514 -1 482 548 549 -1 482 549 483 -1 483 549 553 -1 483 553 493 -1 484 504 505 -1 484 505 485 -1 486 506 507 -1 486 507 487 -1 488 489 510 -1 489 511 510 -1 490 491 512 -1 491 513 512 -1 492 493 500 -1 493 501 500 -1 493 553 501 -1 494 544 545 -1 494 545 495 -1 495 545 503 -1 496 497 542 -1 497 509 543 -1 497 543 542 -1 498 524 525 -1 498 525 499 -1 499 525 515 -1 500 501 552 -1 501 553 552 -1 502 503 607 -1 503 545 608 -1 503 608 607 -1 504 510 511 -1 504 511 505 -1 506 512 513 -1 506 513 507 -1 508 567 568 -1 508 568 509 -1 509 568 543 -1 514 515 589 -1 515 525 590 -1 515 590 589 -1 516 518 519 -1 516 519 517 -1 520 521 522 -1 520 609 610 -1 520 610 521 -1 521 523 522 -1 521 555 523 -1 521 610 555 -1 522 523 554 -1 523 555 554 -1 525 547 590 -1 526 527 528 -1 526 597 598 -1 526 598 527 -1 527 529 528 -1 527 557 529 -1 527 598 557 -1 528 529 556 -1 529 557 556 -1 530 531 532 -1 530 558 559 -1 530 559 531 -1 531 533 532 -1 531 559 533 -1 532 533 591 -1 533 559 592 -1 533 592 591 -1 534 535 536 -1 534 601 602 -1 534 602 535 -1 535 537 536 -1 535 561 537 -1 535 602 561 -1 536 537 560 -1 537 561 560 -1 538 539 540 -1 538 563 564 -1 538 564 539 -1 539 541 540 -1 539 564 541 -1 540 541 593 -1 541 564 594 -1 541 594 593 -1 542 543 565 -1 543 566 565 -1 543 568 566 -1 544 569 570 -1 544 570 545 -1 545 570 608 -1 546 554 555 -1 546 555 547 -1 547 555 590 -1 548 550 551 -1 548 551 549 -1 549 551 614 -1 549 614 553 -1 550 613 614 -1 550 614 551 -1 552 553 595 -1 553 596 595 -1 553 614 596 -1 555 610 590 -1 556 557 559 -1 556 559 558 -1 557 576 578 -1 557 578 559 -1 557 598 576 -1 559 578 592 -1 560 561 562 -1 561 564 562 -1 561 580 582 -1 561 582 564 -1 561 602 580 -1 562 564 563 -1 564 582 594 -1 565 566 583 -1 566 568 606 -1 566 584 583 -1 566 606 584 -1 567 605 606 -1 567 606 568 -1 569 585 586 -1 569 586 570 -1 570 586 608 -1 571 572 573 -1 571 595 596 -1 571 596 572 -1 572 574 573 -1 572 596 574 -1 573 574 627 -1 574 596 614 -1 574 614 628 -1 574 628 627 -1 575 576 599 -1 575 577 578 -1 575 578 576 -1 576 598 600 -1 576 600 599 -1 577 675 676 -1 577 676 578 -1 578 668 592 -1 578 676 692 -1 578 692 668 -1 579 580 603 -1 579 581 580 -1 580 581 582 -1 580 602 604 -1 580 604 603 -1 581 677 678 -1 581 678 582 -1 582 672 594 -1 582 678 696 -1 582 696 672 -1 583 584 587 -1 584 588 587 -1 584 606 624 -1 584 624 588 -1 585 587 588 -1 585 588 586 -1 586 588 634 -1 586 634 608 -1 588 624 634 -1 589 590 611 -1 590 610 612 -1 590 612 611 -1 591 592 667 -1 592 668 667 -1 593 594 671 -1 594 672 671 -1 597 599 600 -1 597 600 598 -1 601 603 604 -1 601 604 602 -1 605 623 624 -1 605 624 606 -1 607 608 633 -1 608 634 633 -1 609 611 612 -1 609 612 610 -1 613 625 626 -1 613 626 614 -1 614 626 628 -1 615 616 617 -1 615 637 638 -1 615 638 616 -1 616 618 617 -1 616 638 618 -1 617 618 699 -1 618 638 700 -1 618 700 699 -1 619 620 621 -1 619 683 684 -1 619 684 620 -1 620 622 621 -1 620 636 622 -1 620 650 636 -1 620 684 650 -1 621 622 635 -1 622 636 635 -1 623 633 634 -1 623 634 624 -1 625 627 628 -1 625 628 626 -1 629 630 631 -1 629 639 640 -1 629 640 630 -1 630 632 631 -1 630 640 632 -1 631 632 689 -1 632 640 666 -1 632 666 690 -1 632 690 689 -1 635 636 637 -1 636 638 637 -1 636 650 652 -1 636 652 654 -1 636 654 638 -1 638 654 656 -1 638 656 700 -1 639 703 704 -1 639 704 640 -1 640 704 706 -1 640 706 712 -1 640 712 666 -1 641 642 643 -1 641 669 670 -1 641 670 642 -1 642 644 643 -1 642 670 644 -1 643 644 719 -1 644 670 694 -1 644 694 720 -1 644 720 719 -1 645 646 647 -1 645 673 674 -1 645 674 646 -1 646 648 647 -1 646 674 648 -1 647 648 723 -1 648 674 698 -1 648 698 724 -1 648 724 723 -1 649 650 685 -1 649 651 652 -1 649 652 650 -1 650 684 686 -1 650 686 685 -1 651 701 702 -1 651 702 652 -1 652 682 654 -1 652 702 682 -1 653 654 681 -1 653 655 656 -1 653 656 654 -1 654 682 681 -1 655 679 680 -1 655 680 656 -1 656 680 700 -1 657 658 659 -1 657 817 818 -1 657 818 658 -1 658 660 659 -1 658 708 660 -1 658 818 708 -1 659 660 707 -1 660 708 707 -1 661 662 663 -1 661 709 710 -1 661 710 662 -1 662 664 663 -1 662 710 664 -1 663 664 823 -1 664 710 824 -1 664 824 823 -1 665 666 711 -1 665 687 688 -1 665 688 666 -1 666 688 690 -1 666 712 711 -1 667 668 669 -1 668 670 669 -1 668 692 694 -1 668 694 670 -1 671 672 673 -1 672 674 673 -1 672 696 698 -1 672 698 674 -1 675 691 692 -1 675 692 676 -1 677 695 696 -1 677 696 678 -1 679 713 714 -1 679 714 680 -1 680 714 700 -1 681 682 715 -1 682 702 716 -1 682 716 715 -1 683 685 686 -1 683 686 684 -1 687 689 690 -1 687 690 688 -1 691 693 694 -1 691 694 692 -1 693 717 718 -1 693 718 694 -1 694 718 720 -1 695 697 698 -1 695 698 696 -1 697 721 722 -1 697 722 698 -1 698 722 724 -1 699 700 731 -1 700 714 732 -1 700 732 731 -1 701 755 756 -1 701 756 702 -1 702 726 716 -1 702 756 726 -1 703 705 706 -1 703 706 704 -1 705 763 764 -1 705 764 706 -1 706 764 712 -1 707 708 709 -1 708 710 709 -1 708 760 710 -1 708 818 760 -1 710 760 762 -1 710 762 824 -1 711 712 767 -1 712 764 768 -1 712 768 767 -1 713 729 730 -1 713 730 714 -1 714 730 732 -1 715 716 727 -1 716 726 728 -1 716 728 727 -1 717 719 720 -1 717 720 718 -1 721 723 724 -1 721 724 722 -1 725 726 795 -1 725 743 744 -1 725 744 726 -1 726 744 728 -1 726 756 796 -1 726 796 795 -1 727 728 733 -1 728 734 733 -1 728 744 734 -1 729 735 736 -1 729 736 730 -1 730 736 754 -1 730 754 732 -1 731 732 753 -1 732 754 753 -1 733 734 737 -1 734 738 737 -1 734 744 758 -1 734 758 770 -1 734 770 738 -1 735 737 738 -1 735 738 736 -1 736 738 780 -1 736 766 754 -1 736 780 766 -1 738 770 780 -1 739 740 745 -1 739 749 750 -1 739 750 740 -1 740 746 745 -1 740 750 782 -1 740 782 746 -1 741 742 747 -1 741 751 752 -1 741 752 742 -1 742 748 747 -1 742 752 784 -1 742 784 748 -1 743 757 758 -1 743 758 744 -1 745 746 771 -1 746 772 771 -1 746 782 788 -1 746 788 772 -1 747 748 773 -1 748 774 773 -1 748 784 790 -1 748 790 774 -1 749 775 776 -1 749 776 750 -1 750 776 792 -1 750 792 782 -1 751 777 778 -1 751 778 752 -1 752 778 794 -1 752 794 784 -1 753 754 765 -1 754 766 765 -1 755 813 814 -1 755 814 756 -1 756 814 796 -1 757 769 770 -1 757 770 758 -1 759 760 819 -1 759 761 762 -1 759 762 760 -1 760 818 820 -1 760 820 819 -1 761 821 822 -1 761 822 762 -1 762 822 824 -1 763 841 842 -1 763 842 764 -1 764 842 846 -1 764 846 768 -1 765 766 779 -1 766 780 779 -1 767 768 785 -1 768 786 785 -1 768 846 786 -1 769 779 780 -1 769 780 770 -1 771 772 805 -1 772 788 798 -1 772 798 806 -1 772 806 805 -1 773 774 807 -1 774 790 800 -1 774 800 808 -1 774 808 807 -1 775 809 810 -1 775 810 776 -1 776 802 792 -1 776 810 802 -1 777 811 812 -1 777 812 778 -1 778 804 794 -1 778 812 804 -1 781 782 791 -1 781 787 788 -1 781 788 782 -1 782 792 791 -1 783 784 793 -1 783 789 790 -1 783 790 784 -1 784 794 793 -1 785 786 845 -1 786 846 845 -1 787 797 798 -1 787 798 788 -1 789 799 800 -1 789 800 790 -1 791 792 801 -1 792 802 801 -1 793 794 803 -1 794 804 803 -1 795 796 815 -1 796 814 816 -1 796 816 815 -1 797 825 826 -1 797 826 798 -1 798 826 806 -1 799 827 828 -1 799 828 800 -1 800 828 808 -1 801 802 829 -1 802 810 830 -1 802 830 829 -1 803 804 831 -1 804 812 832 -1 804 832 831 -1 805 806 863 -1 806 826 864 -1 806 864 863 -1 807 808 865 -1 808 828 866 -1 808 866 865 -1 809 855 856 -1 809 856 810 -1 810 856 830 -1 811 857 858 -1 811 858 812 -1 812 858 832 -1 813 815 816 -1 813 816 814 -1 817 819 820 -1 817 820 818 -1 821 823 824 -1 821 824 822 -1 825 867 868 -1 825 868 826 -1 826 868 864 -1 827 869 870 -1 827 870 828 -1 828 870 866 -1 829 830 859 -1 830 856 860 -1 830 860 859 -1 831 832 861 -1 832 858 862 -1 832 862 861 -1 833 834 835 -1 833 909 910 -1 833 910 834 -1 834 836 835 -1 834 848 836 -1 834 910 848 -1 835 836 847 -1 836 848 847 -1 837 838 839 -1 837 849 850 -1 837 850 838 -1 838 840 839 -1 838 850 840 -1 839 840 895 -1 840 850 896 -1 840 896 895 -1 841 843 844 -1 841 844 842 -1 842 844 918 -1 842 918 846 -1 843 917 918 -1 843 918 844 -1 845 846 889 -1 846 890 889 -1 846 918 890 -1 847 848 849 -1 848 850 849 -1 848 874 876 -1 848 876 850 -1 848 910 874 -1 850 876 896 -1 851 852 853 -1 851 889 890 -1 851 890 852 -1 852 854 853 -1 852 890 854 -1 853 854 945 -1 854 890 918 -1 854 918 946 -1 854 946 945 -1 855 905 906 -1 855 906 856 -1 856 882 860 -1 856 906 882 -1 857 907 908 -1 857 908 858 -1 858 884 862 -1 858 908 884 -1 859 860 881 -1 860 882 881 -1 861 862 883 -1 862 884 883 -1 863 864 901 -1 864 868 878 -1 864 878 902 -1 864 902 901 -1 865 866 903 -1 866 870 880 -1 866 880 904 -1 866 904 903 -1 867 877 878 -1 867 878 868 -1 869 879 880 -1 869 880 870 -1 871 872 885 -1 871 887 888 -1 871 888 872 -1 872 886 885 -1 872 888 948 -1 872 948 886 -1 873 874 911 -1 873 875 876 -1 873 876 874 -1 874 910 912 -1 874 912 911 -1 875 977 978 -1 875 978 876 -1 876 978 980 -1 876 980 984 -1 876 984 896 -1 877 891 892 -1 877 892 878 -1 878 892 902 -1 879 893 894 -1 879 894 880 -1 880 894 904 -1 881 882 897 -1 882 898 897 -1 882 906 898 -1 883 884 899 -1 884 900 899 -1 884 908 900 -1 885 886 923 -1 886 924 923 -1 886 948 958 -1 886 958 924 -1 887 929 930 -1 887 930 888 -1 888 930 964 -1 888 964 948 -1 891 913 914 -1 891 914 892 -1 892 914 902 -1 893 915 916 -1 893 916 894 -1 894 916 904 -1 895 896 983 -1 896 984 983 -1 897 898 919 -1 898 906 920 -1 898 920 919 -1 899 900 921 -1 900 908 922 -1 900 922 921 -1 901 902 949 -1 902 914 950 -1 902 950 949 -1 903 904 951 -1 904 916 952 -1 904 952 951 -1 905 959 960 -1 905 960 906 -1 906 960 920 -1 907 961 962 -1 907 962 908 -1 908 962 922 -1 909 911 912 -1 909 912 910 -1 913 925 926 -1 913 926 914 -1 914 926 950 -1 915 927 928 -1 915 928 916 -1 916 928 952 -1 917 943 944 -1 917 944 918 -1 918 944 946 -1 919 920 931 -1 920 932 931 -1 920 960 932 -1 921 922 933 -1 922 934 933 -1 922 962 934 -1 923 924 1007 -1 924 958 982 -1 924 982 1008 -1 924 1008 1007 -1 925 935 936 -1 925 936 926 -1 926 936 954 -1 926 954 950 -1 927 937 938 -1 927 938 928 -1 928 938 956 -1 928 956 952 -1 929 1013 1014 -1 929 1014 930 -1 930 986 964 -1 930 1014 986 -1 931 932 939 -1 932 940 939 -1 932 960 974 -1 932 974 940 -1 933 934 941 -1 934 942 941 -1 934 962 976 -1 934 976 942 -1 935 953 954 -1 935 954 936 -1 937 955 956 -1 937 956 938 -1 939 940 973 -1 940 974 973 -1 941 942 975 -1 942 976 975 -1 943 945 946 -1 943 946 944 -1 947 948 963 -1 947 957 958 -1 947 958 948 -1 948 964 963 -1 949 950 953 -1 950 954 953 -1 951 952 955 -1 952 956 955 -1 957 981 982 -1 957 982 958 -1 959 973 974 -1 959 974 960 -1 961 975 976 -1 961 976 962 -1 963 964 985 -1 964 986 985 -1 965 966 967 -1 965 1029 1030 -1 965 1030 966 -1 966 968 967 -1 966 988 968 -1 966 1030 988 -1 967 968 987 -1 968 988 987 -1 969 970 971 -1 969 989 990 -1 969 990 970 -1 970 972 971 -1 970 990 972 -1 971 972 1023 -1 972 990 1024 -1 972 1024 1023 -1 977 979 980 -1 977 980 978 -1 979 1065 1066 -1 979 1066 980 -1 980 1066 984 -1 981 1025 1026 -1 981 1026 982 -1 982 1026 1008 -1 983 984 1057 -1 984 1058 1057 -1 984 1066 1058 -1 985 986 1027 -1 986 1014 1028 -1 986 1028 1027 -1 987 988 989 -1 988 990 989 -1 988 1010 1012 -1 988 1012 990 -1 988 1030 1010 -1 990 1012 1024 -1 991 992 993 -1 991 1017 1018 -1 991 1018 992 -1 992 994 993 -1 992 1018 994 -1 993 994 1067 -1 994 1018 1068 -1 994 1068 1067 -1 995 996 997 -1 995 1021 1022 -1 995 1022 996 -1 996 998 997 -1 996 1022 998 -1 997 998 1069 -1 998 1022 1070 -1 998 1070 1069 -1 999 1000 1001 -1 999 1075 1076 -1 999 1076 1000 -1 1000 1002 1001 -1 1000 1016 1002 -1 1000 1038 1016 -1 1000 1076 1038 -1 1001 1002 1015 -1 1002 1016 1015 -1 1003 1004 1005 -1 1003 1079 1080 -1 1003 1080 1004 -1 1004 1006 1005 -1 1004 1020 1006 -1 1004 1046 1020 -1 1004 1080 1046 -1 1005 1006 1019 -1 1006 1020 1019 -1 1007 1008 1095 -1 1008 1026 1096 -1 1008 1096 1095 -1 1009 1010 1031 -1 1009 1011 1012 -1 1009 1012 1010 -1 1010 1030 1032 -1 1010 1032 1031 -1 1011 1155 1156 -1 1011 1156 1012 -1 1012 1152 1024 -1 1012 1156 1170 -1 1012 1170 1152 -1 1013 1091 1092 -1 1013 1092 1014 -1 1014 1092 1028 -1 1015 1016 1017 -1 1016 1018 1017 -1 1016 1038 1040 -1 1016 1040 1042 -1 1016 1042 1018 -1 1018 1042 1044 -1 1018 1044 1068 -1 1019 1020 1021 -1 1020 1022 1021 -1 1020 1046 1048 -1 1020 1048 1050 -1 1020 1050 1022 -1 1022 1050 1052 -1 1022 1052 1070 -1 1023 1024 1151 -1 1024 1152 1151 -1 1025 1097 1098 -1 1025 1098 1026 -1 1026 1098 1096 -1 1027 1028 1093 -1 1028 1092 1094 -1 1028 1094 1093 -1 1029 1031 1032 -1 1029 1032 1030 -1 1033 1034 1035 -1 1033 1135 1136 -1 1033 1136 1034 -1 1034 1036 1035 -1 1034 1064 1036 -1 1034 1136 1064 -1 1035 1036 1063 -1 1036 1064 1063 -1 1037 1038 1077 -1 1037 1039 1040 -1 1037 1040 1038 -1 1038 1076 1078 -1 1038 1078 1077 -1 1039 1071 1072 -1 1039 1072 1040 -1 1040 1060 1042 -1 1040 1072 1060 -1 1041 1042 1059 -1 1041 1043 1044 -1 1041 1044 1042 -1 1042 1060 1059 -1 1043 1053 1054 -1 1043 1054 1044 -1 1044 1054 1068 -1 1045 1046 1081 -1 1045 1047 1048 -1 1045 1048 1046 -1 1046 1080 1082 -1 1046 1082 1081 -1 1047 1073 1074 -1 1047 1074 1048 -1 1048 1062 1050 -1 1048 1074 1062 -1 1049 1050 1061 -1 1049 1051 1052 -1 1049 1052 1050 -1 1050 1062 1061 -1 1051 1055 1056 -1 1051 1056 1052 -1 1052 1056 1070 -1 1053 1087 1088 -1 1053 1088 1054 -1 1054 1088 1068 -1 1055 1089 1090 -1 1055 1090 1056 -1 1056 1090 1070 -1 1057 1058 1141 -1 1058 1066 1100 -1 1058 1100 1102 -1 1058 1102 1142 -1 1058 1142 1141 -1 1059 1060 1083 -1 1060 1072 1084 -1 1060 1084 1083 -1 1061 1062 1085 -1 1062 1074 1086 -1 1062 1086 1085 -1 1063 1064 1065 -1 1064 1066 1065 -1 1064 1100 1066 -1 1064 1136 1100 -1 1067 1068 1147 -1 1068 1088 1148 -1 1068 1148 1147 -1 1069 1070 1149 -1 1070 1090 1150 -1 1070 1150 1149 -1 1071 1107 1108 -1 1071 1108 1072 -1 1072 1108 1084 -1 1073 1109 1110 -1 1073 1110 1074 -1 1074 1110 1086 -1 1075 1077 1078 -1 1075 1078 1076 -1 1079 1081 1082 -1 1079 1082 1080 -1 1083 1084 1103 -1 1084 1104 1103 -1 1084 1108 1104 -1 1085 1086 1105 -1 1086 1106 1105 -1 1086 1110 1106 -1 1087 1111 1112 -1 1087 1112 1088 -1 1088 1112 1148 -1 1089 1113 1114 -1 1089 1114 1090 -1 1090 1114 1150 -1 1091 1175 1176 -1 1091 1176 1092 -1 1092 1134 1094 -1 1092 1176 1134 -1 1093 1094 1133 -1 1094 1134 1133 -1 1095 1096 1173 -1 1096 1098 1132 -1 1096 1132 1174 -1 1096 1174 1173 -1 1097 1131 1132 -1 1097 1132 1098 -1 1099 1100 1137 -1 1099 1101 1100 -1 1100 1101 1102 -1 1100 1136 1138 -1 1100 1138 1137 -1 1101 1139 1140 -1 1101 1140 1102 -1 1102 1140 1142 -1 1103 1104 1119 -1 1104 1108 1144 -1 1104 1120 1119 -1 1104 1144 1120 -1 1105 1106 1121 -1 1106 1110 1146 -1 1106 1122 1121 -1 1106 1146 1122 -1 1107 1143 1144 -1 1107 1144 1108 -1 1109 1145 1146 -1 1109 1146 1110 -1 1111 1123 1124 -1 1111 1124 1112 -1 1112 1124 1148 -1 1113 1125 1126 -1 1113 1126 1114 -1 1114 1126 1150 -1 1115 1116 1117 -1 1115 1153 1154 -1 1115 1154 1116 -1 1116 1118 1117 -1 1116 1154 1118 -1 1117 1118 1199 -1 1118 1154 1172 -1 1118 1172 1200 -1 1118 1200 1199 -1 1119 1120 1127 -1 1120 1128 1127 -1 1120 1144 1158 -1 1120 1158 1128 -1 1121 1122 1129 -1 1122 1130 1129 -1 1122 1146 1160 -1 1122 1160 1130 -1 1123 1127 1128 -1 1123 1128 1124 -1 1124 1128 1164 -1 1124 1164 1148 -1 1125 1129 1130 -1 1125 1130 1126 -1 1126 1130 1166 -1 1126 1166 1150 -1 1128 1158 1164 -1 1130 1160 1166 -1 1131 1161 1162 -1 1131 1162 1132 -1 1132 1162 1174 -1 1133 1134 1167 -1 1134 1168 1167 -1 1134 1176 1168 -1 1135 1137 1138 -1 1135 1138 1136 -1 1139 1141 1142 -1 1139 1142 1140 -1 1143 1157 1158 -1 1143 1158 1144 -1 1145 1159 1160 -1 1145 1160 1146 -1 1147 1148 1163 -1 1148 1164 1163 -1 1149 1150 1165 -1 1150 1166 1165 -1 1151 1152 1153 -1 1152 1154 1153 -1 1152 1170 1172 -1 1152 1172 1154 -1 1155 1169 1170 -1 1155 1170 1156 -1 1157 1163 1164 -1 1157 1164 1158 -1 1159 1165 1166 -1 1159 1166 1160 -1 1161 1193 1194 -1 1161 1194 1162 -1 1162 1194 1174 -1 1167 1168 1195 -1 1168 1176 1196 -1 1168 1196 1195 -1 1169 1171 1172 -1 1169 1172 1170 -1 1171 1197 1198 -1 1171 1198 1172 -1 1172 1198 1200 -1 1173 1174 1233 -1 1174 1194 1234 -1 1174 1234 1233 -1 1175 1241 1242 -1 1175 1242 1176 -1 1176 1242 1196 -1 1177 1178 1179 -1 1177 1253 1254 -1 1177 1254 1178 -1 1178 1180 1179 -1 1178 1212 1180 -1 1178 1254 1212 -1 1179 1180 1211 -1 1180 1212 1211 -1 1181 1182 1183 -1 1181 1213 1214 -1 1181 1214 1182 -1 1182 1184 1183 -1 1182 1214 1184 -1 1183 1184 1245 -1 1184 1214 1246 -1 1184 1246 1245 -1 1185 1186 1187 -1 1185 1257 1258 -1 1185 1258 1186 -1 1186 1188 1187 -1 1186 1216 1188 -1 1186 1258 1216 -1 1187 1188 1215 -1 1188 1216 1215 -1 1189 1190 1191 -1 1189 1217 1218 -1 1189 1218 1190 -1 1190 1192 1191 -1 1190 1218 1192 -1 1191 1192 1247 -1 1192 1218 1248 -1 1192 1248 1247 -1 1193 1201 1202 -1 1193 1202 1194 -1 1194 1202 1234 -1 1195 1196 1219 -1 1196 1220 1219 -1 1196 1242 1220 -1 1197 1199 1200 -1 1197 1200 1198 -1 1201 1221 1222 -1 1201 1222 1202 -1 1202 1222 1236 -1 1202 1236 1234 -1 1203 1204 1205 -1 1203 1263 1264 -1 1203 1264 1204 -1 1204 1206 1205 -1 1204 1238 1206 -1 1204 1264 1238 -1 1205 1206 1237 -1 1206 1238 1237 -1 1207 1208 1209 -1 1207 1239 1240 -1 1207 1240 1208 -1 1208 1210 1209 -1 1208 1240 1210 -1 1209 1210 1261 -1 1210 1240 1262 -1 1210 1262 1261 -1 1211 1212 1214 -1 1211 1214 1213 -1 1212 1226 1228 -1 1212 1228 1214 -1 1212 1254 1226 -1 1214 1228 1246 -1 1215 1216 1218 -1 1215 1218 1217 -1 1216 1230 1232 -1 1216 1232 1218 -1 1216 1258 1230 -1 1218 1232 1248 -1 1219 1220 1223 -1 1220 1224 1223 -1 1220 1242 1244 -1 1220 1244 1224 -1 1221 1235 1236 -1 1221 1236 1222 -1 1223 1224 1243 -1 1224 1244 1243 -1 1225 1226 1255 -1 1225 1227 1228 -1 1225 1228 1226 -1 1226 1254 1256 -1 1226 1256 1255 -1 1227 1311 1312 -1 1227 1312 1228 -1 1228 1304 1246 -1 1228 1312 1326 -1 1228 1326 1304 -1 1229 1230 1259 -1 1229 1231 1232 -1 1229 1232 1230 -1 1230 1258 1260 -1 1230 1260 1259 -1 1231 1313 1314 -1 1231 1314 1232 -1 1232 1308 1248 -1 1232 1314 1330 -1 1232 1330 1308 -1 1233 1234 1235 -1 1234 1236 1235 -1 1237 1238 1239 -1 1238 1240 1239 -1 1238 1250 1252 -1 1238 1252 1240 -1 1238 1264 1250 -1 1240 1252 1262 -1 1241 1243 1244 -1 1241 1244 1242 -1 1245 1246 1303 -1 1246 1304 1303 -1 1247 1248 1307 -1 1248 1308 1307 -1 1249 1250 1265 -1 1249 1251 1252 -1 1249 1252 1250 -1 1250 1264 1266 -1 1250 1266 1265 -1 1251 1341 1342 -1 1251 1342 1252 -1 1252 1338 1262 -1 1252 1342 1346 -1 1252 1346 1338 -1 1253 1255 1256 -1 1253 1256 1254 -1 1257 1259 1260 -1 1257 1260 1258 -1 1261 1262 1337 -1 1262 1338 1337 -1 1263 1265 1266 -1 1263 1266 1264 -1 1267 1268 1275 -1 1267 1269 1268 -1 1268 1269 1270 -1 1268 1270 1288 -1 1268 1276 1275 -1 1268 1288 1276 -1 1269 1295 1296 -1 1269 1296 1270 -1 1270 1294 1288 -1 1270 1296 1294 -1 1271 1272 1273 -1 1271 1285 1286 -1 1271 1286 1272 -1 1272 1274 1273 -1 1272 1286 1292 -1 1272 1292 1274 -1 1273 1274 1289 -1 1274 1290 1289 -1 1274 1292 1290 -1 1275 1276 1287 -1 1276 1288 1287 -1 1277 1278 1279 -1 1277 1305 1306 -1 1277 1306 1278 -1 1278 1280 1279 -1 1278 1306 1280 -1 1279 1280 1351 -1 1280 1306 1328 -1 1280 1328 1352 -1 1280 1352 1351 -1 1281 1282 1283 -1 1281 1309 1310 -1 1281 1310 1282 -1 1282 1284 1283 -1 1282 1310 1284 -1 1283 1284 1355 -1 1284 1310 1332 -1 1284 1332 1356 -1 1284 1356 1355 -1 1285 1291 1292 -1 1285 1292 1286 -1 1287 1288 1293 -1 1288 1294 1293 -1 1289 1290 1315 -1 1290 1292 1298 -1 1290 1298 1316 -1 1290 1316 1315 -1 1291 1297 1298 -1 1291 1298 1292 -1 1293 1294 1317 -1 1294 1296 1318 -1 1294 1318 1317 -1 1295 1363 1364 -1 1295 1364 1296 -1 1296 1336 1318 -1 1296 1364 1336 -1 1297 1323 1324 -1 1297 1324 1298 -1 1298 1324 1316 -1 1299 1300 1301 -1 1299 1339 1340 -1 1299 1340 1300 -1 1300 1302 1301 -1 1300 1340 1302 -1 1301 1302 1371 -1 1302 1340 1348 -1 1302 1348 1372 -1 1302 1372 1371 -1 1303 1304 1305 -1 1304 1306 1305 -1 1304 1326 1328 -1 1304 1328 1306 -1 1307 1308 1309 -1 1308 1310 1309 -1 1308 1330 1332 -1 1308 1332 1310 -1 1311 1325 1326 -1 1311 1326 1312 -1 1313 1329 1330 -1 1313 1330 1314 -1 1315 1316 1333 -1 1316 1324 1334 -1 1316 1334 1333 -1 1317 1318 1335 -1 1318 1336 1335 -1 1319 1320 1321 -1 1319 1365 1366 -1 1319 1366 1320 -1 1320 1322 1321 -1 1320 1366 1322 -1 1321 1322 1367 -1 1322 1366 1368 -1 1322 1368 1367 -1 1323 1343 1344 -1 1323 1344 1324 -1 1324 1344 1334 -1 1325 1327 1328 -1 1325 1328 1326 -1 1327 1349 1350 -1 1327 1350 1328 -1 1328 1350 1352 -1 1329 1331 1332 -1 1329 1332 1330 -1 1331 1353 1354 -1 1331 1354 1332 -1 1332 1354 1356 -1 1333 1334 1361 -1 1334 1344 1362 -1 1334 1362 1361 -1 1335 1336 1357 -1 1336 1358 1357 -1 1336 1364 1358 -1 1337 1338 1340 -1 1337 1340 1339 -1 1338 1346 1348 -1 1338 1348 1340 -1 1341 1345 1346 -1 1341 1346 1342 -1 1343 1359 1360 -1 1343 1360 1344 -1 1344 1360 1362 -1 1345 1347 1346 -1 1346 1347 1348 -1 1347 1369 1370 -1 1347 1370 1348 -1 1348 1370 1372 -1 1349 1351 1352 -1 1349 1352 1350 -1 1353 1355 1356 -1 1353 1356 1354 -1 1357 1358 1377 -1 1358 1364 1378 -1 1358 1378 1377 -1 1359 1373 1374 -1 1359 1374 1360 -1 1360 1374 1362 -1 1361 1362 1425 -1 1362 1374 1426 -1 1362 1426 1425 -1 1363 1395 1396 -1 1363 1396 1364 -1 1364 1396 1378 -1 1365 1381 1382 -1 1365 1382 1366 -1 1366 1376 1368 -1 1366 1380 1376 -1 1366 1382 1380 -1 1367 1368 1375 -1 1368 1376 1375 -1 1369 1371 1372 -1 1369 1372 1370 -1 1373 1391 1392 -1 1373 1392 1374 -1 1374 1392 1426 -1 1375 1376 1393 -1 1376 1380 1412 -1 1376 1394 1393 -1 1376 1412 1394 -1 1377 1378 1401 -1 1378 1396 1402 -1 1378 1402 1401 -1 1379 1380 1417 -1 1379 1411 1412 -1 1379 1412 1380 -1 1380 1382 1418 -1 1380 1418 1417 -1 1381 1403 1404 -1 1381 1404 1382 -1 1382 1404 1418 -1 1383 1384 1385 -1 1383 1433 1434 -1 1383 1434 1384 -1 1384 1386 1385 -1 1384 1408 1386 -1 1384 1434 1408 -1 1385 1386 1407 -1 1386 1408 1407 -1 1387 1388 1389 -1 1387 1409 1410 -1 1387 1410 1388 -1 1388 1390 1389 -1 1388 1410 1390 -1 1389 1390 1431 -1 1390 1410 1432 -1 1390 1432 1431 -1 1391 1397 1398 -1 1391 1398 1392 -1 1392 1398 1426 -1 1393 1394 1399 -1 1394 1400 1399 -1 1394 1412 1428 -1 1394 1428 1400 -1 1395 1429 1430 -1 1395 1430 1396 -1 1396 1430 1402 -1 1397 1405 1406 -1 1397 1406 1398 -1 1398 1406 1442 -1 1398 1442 1426 -1 1399 1400 1405 -1 1400 1406 1405 -1 1400 1428 1440 -1 1400 1440 1406 -1 1401 1402 1413 -1 1402 1414 1413 -1 1402 1430 1414 -1 1403 1415 1416 -1 1403 1416 1404 -1 1404 1416 1438 -1 1404 1438 1418 -1 1406 1440 1442 -1 1407 1408 1409 -1 1408 1410 1409 -1 1408 1420 1422 -1 1408 1422 1410 -1 1408 1434 1420 -1 1410 1422 1432 -1 1411 1427 1428 -1 1411 1428 1412 -1 1413 1414 1423 -1 1414 1424 1423 -1 1414 1430 1444 -1 1414 1444 1424 -1 1415 1423 1424 -1 1415 1424 1416 -1 1416 1424 1446 -1 1416 1446 1438 -1 1417 1418 1437 -1 1418 1438 1437 -1 1419 1420 1435 -1 1419 1421 1422 -1 1419 1422 1420 -1 1420 1434 1436 -1 1420 1436 1435 -1 1421 1465 1466 -1 1421 1466 1422 -1 1422 1462 1432 -1 1422 1466 1474 -1 1422 1474 1462 -1 1424 1444 1448 -1 1424 1448 1446 -1 1425 1426 1441 -1 1426 1442 1441 -1 1427 1439 1440 -1 1427 1440 1428 -1 1429 1443 1444 -1 1429 1444 1430 -1 1431 1432 1461 -1 1432 1462 1461 -1 1433 1435 1436 -1 1433 1436 1434 -1 1437 1438 1445 -1 1438 1446 1445 -1 1439 1441 1442 -1 1439 1442 1440 -1 1443 1447 1448 -1 1443 1448 1444 -1 1445 1446 1447 -1 1446 1448 1447 -1 1449 1450 1451 -1 1449 1463 1464 -1 1449 1464 1450 -1 1450 1452 1451 -1 1450 1464 1452 -1 1451 1452 1489 -1 1452 1464 1476 -1 1452 1476 1490 -1 1452 1490 1489 -1 1453 1454 1455 -1 1453 1510 1454 -1 1454 1456 1455 -1 1454 1470 1456 -1 1454 1510 1551 -1 1454 1551 1552 -1 1454 1552 1470 -1 1455 1456 1477 -1 1456 1470 1478 -1 1456 1478 1477 -1 1457 1458 1459 -1 1457 1467 1468 -1 1457 1468 1458 -1 1458 1460 1459 -1 1458 1468 1472 -1 1458 1472 1460 -1 1459 1460 1481 -1 1460 1472 1480 -1 1460 1480 1482 -1 1460 1482 1481 -1 1461 1462 1463 -1 1462 1464 1463 -1 1462 1474 1476 -1 1462 1476 1464 -1 1465 1473 1474 -1 1465 1474 1466 -1 1467 1471 1472 -1 1467 1472 1468 -1 1469 1470 1512 -1 1469 1483 1484 -1 1469 1484 1470 -1 1470 1484 1478 -1 1470 1552 1554 -1 1470 1554 1512 -1 1471 1479 1480 -1 1471 1480 1472 -1 1473 1475 1476 -1 1473 1476 1474 -1 1475 1487 1488 -1 1475 1488 1476 -1 1476 1488 1490 -1 1477 1478 1495 -1 1478 1484 1494 -1 1478 1494 1496 -1 1478 1496 1495 -1 1479 1485 1486 -1 1479 1486 1480 -1 1480 1486 1482 -1 1481 1482 1499 -1 1482 1486 1492 -1 1482 1492 1500 -1 1482 1500 1499 -1 1483 1493 1494 -1 1483 1494 1484 -1 1485 1491 1492 -1 1485 1492 1486 -1 1487 1489 1490 -1 1487 1490 1488 -1 1491 1497 1498 -1 1491 1498 1492 -1 1492 1498 1500 -1 1493 1505 1506 -1 1493 1506 1494 -1 1494 1506 1496 -1 1495 1496 1501 -1 1496 1502 1501 -1 1496 1506 1502 -1 1497 1503 1504 -1 1497 1504 1498 -1 1498 1504 1500 -1 1499 1500 1520 -1 1500 1504 1526 -1 1500 1526 1520 -1 1501 1502 1516 -1 1502 1506 1538 -1 1502 1524 1516 -1 1502 1538 1524 -1 1503 1518 1504 -1 1504 1518 1527 -1 1504 1527 1528 -1 1504 1528 1526 -1 1505 1514 1506 -1 1506 1514 1537 -1 1506 1537 1538 -1 1509 1511 1553 -1 1509 1551 1510 -1 1509 1553 1551 -1 1511 1512 1553 -1 1512 1554 1553 -1 1513 1515 1523 -1 1513 1523 1537 -1 1513 1537 1514 -1 1515 1516 1523 -1 1516 1524 1523 -1 1517 1519 1525 -1 1517 1525 1527 -1 1517 1527 1518 -1 1519 1520 1525 -1 1520 1526 1525 -1 1523 1524 1530 -1 1523 1529 1541 -1 1523 1530 1529 -1 1523 1541 1537 -1 1524 1538 1542 -1 1524 1542 1530 -1 1525 1526 1540 -1 1525 1539 1527 -1 1525 1540 1539 -1 1526 1528 1540 -1 1527 1531 1528 -1 1527 1539 1531 -1 1528 1531 1532 -1 1528 1532 1540 -1 1529 1530 1534 -1 1529 1533 1543 -1 1529 1534 1533 -1 1529 1543 1541 -1 1530 1542 1544 -1 1530 1544 1534 -1 1531 1535 1532 -1 1531 1539 1545 -1 1531 1545 1535 -1 1532 1535 1536 -1 1532 1536 1546 -1 1532 1546 1540 -1 1533 1534 1536 -1 1533 1535 1547 -1 1533 1536 1535 -1 1533 1547 1543 -1 1534 1544 1548 -1 1534 1548 1536 -1 1535 1545 1549 -1 1535 1549 1547 -1 1536 1548 1550 -1 1536 1550 1546 -1 1537 1541 1538 -1 1538 1541 1542 -1 1539 1540 1546 -1 1539 1546 1545 -1 1541 1543 1542 -1 1542 1543 1544 -1 1543 1547 1544 -1 1544 1547 1548 -1 1545 1546 1550 -1 1545 1550 1549 -1 1547 1549 1548 -1 1548 1549 1550 -1 1551 1553 1552 -1 1552 1553 1554 -1 "
						                >
							<Coordinate DEF="coords_ME_OpenSCAD_Model"
							            point="-0.655740 14.857142 2.950000 -0.655740 14.857142 3.250000 -0.655740 14.953257 2.950000 -0.655740 14.953257 3.250000 -0.655740 17.192944 2.950000 -0.655740 17.192944 3.250000 -0.655740 17.289059 2.950000 -0.655740 17.289059 3.250000 -0.343811 15.002223 2.950000 -0.343811 15.002223 3.250000 -0.343811 17.145769 2.950000 -0.343811 17.145769 3.250000 -0.153402 15.002223 2.950000 -0.153402 15.002223 3.250000 -0.153402 16.948112 2.950000 -0.153402 16.948112 3.250000 0.000000 0.000000 0.000000 0.000000 0.000000 3.050000 0.000000 14.857142 2.950000 0.000000 14.857142 3.050000 0.000000 14.979211 2.950000 0.000000 14.979211 3.050000 0.000000 16.587883 2.950000 0.000000 16.587883 3.050000 0.000000 17.289059 2.950000 0.000000 17.289059 3.050000 0.000000 20.799999 0.000000 0.000000 20.799999 3.050000 0.080543 17.289059 3.050000 0.080543 17.289059 3.250000 0.173020 14.857142 3.050000 0.173020 14.857142 3.250000 0.173020 14.953257 3.050000 0.173020 14.953257 3.250000 0.450088 4.269096 3.050000 0.450088 4.269096 3.250000 0.450088 4.322492 3.050000 0.450088 4.322492 3.250000 0.602210 4.242888 3.050000 0.602210 4.242888 3.250000 0.737027 14.857142 3.050000 0.737027 14.857142 3.250000 0.778675 18.154781 3.050000 0.778675 18.154781 3.250000 0.792264 18.044069 3.050000 0.792264 18.044069 3.250000 0.792461 18.269014 3.050000 0.792461 18.269014 3.250000 0.800488 14.857142 3.050000 0.800488 14.857142 3.250000 0.833029 17.943594 3.050000 0.833029 17.943594 3.250000 0.833819 18.370640 3.050000 0.833819 18.370640 3.250000 0.839984 4.242888 3.050000 0.839984 4.242888 3.250000 0.862151 2.971428 3.050000 0.862151 2.971428 3.250000 0.862151 3.024825 3.050000 0.862151 3.024825 3.250000 0.871223 15.439281 3.050000 0.871223 15.439281 3.250000 0.900972 17.853355 3.050000 0.900972 17.853355 3.250000 0.902749 18.459660 3.050000 0.902749 18.459660 3.250000 0.989427 17.782450 3.050000 0.989427 17.782450 3.250000 0.991798 18.528620 3.050000 0.991798 18.528620 3.250000 1.021330 4.269096 3.050000 1.021330 4.269096 3.250000 1.021330 4.322492 3.050000 1.021330 4.322492 3.250000 1.076748 3.052028 3.050000 1.076748 3.052028 3.250000 1.076748 3.497341 3.050000 1.076748 3.497341 3.250000 1.091663 17.739906 3.050000 1.091663 17.739906 3.250000 1.093441 18.569994 3.050000 1.093441 18.569994 3.250000 1.207680 17.725725 3.050000 1.207680 17.725725 3.250000 1.207680 18.583786 3.050000 1.207680 18.583786 3.250000 1.227874 3.619244 3.050000 1.227874 3.619244 3.250000 1.271198 3.052028 3.050000 1.271198 3.052028 3.250000 1.271198 3.503388 3.050000 1.271198 3.503388 3.250000 1.321912 18.569994 3.050000 1.321912 18.569994 3.250000 1.323690 17.739906 3.050000 1.323690 17.739906 3.250000 1.423538 18.528620 3.050000 1.423538 18.528620 3.250000 1.425341 4.269096 3.050000 1.425341 4.269096 3.250000 1.425341 4.322492 3.050000 1.425341 4.322492 3.250000 1.425908 17.782450 3.050000 1.425908 17.782450 3.250000 1.444295 14.857142 3.050000 1.444295 14.857142 3.250000 1.444295 14.953257 3.050000 1.444295 14.953257 3.250000 1.485794 2.971428 3.050000 1.485794 2.971428 3.250000 1.485794 3.024825 3.050000 1.485794 3.024825 3.250000 1.512558 18.459660 3.050000 1.512558 18.459660 3.250000 1.514335 17.853355 3.050000 1.514335 17.853355 3.250000 1.581517 18.370640 3.050000 1.581517 18.370640 3.250000 1.582307 17.943594 3.050000 1.582307 17.943594 3.250000 1.596614 4.242888 3.050000 1.596614 4.242888 3.250000 1.622892 18.269014 3.050000 1.622892 18.269014 3.250000 1.623090 18.044069 3.050000 1.623090 18.044069 3.250000 1.636684 18.154781 3.050000 1.636684 18.154781 3.250000 1.716511 4.242888 3.050000 1.716511 4.242888 3.250000 1.734455 17.289059 3.050000 1.734455 17.289059 3.250000 1.770719 15.002223 3.050000 1.770719 15.002223 3.250000 1.770719 16.948112 3.050000 1.770719 16.948112 3.250000 1.864607 4.269096 3.050000 1.864607 4.269096 3.250000 1.864607 4.322492 3.050000 1.864607 4.322492 3.250000 1.940274 4.269096 3.050000 1.940274 4.269096 3.250000 1.940274 4.322492 3.050000 1.940274 4.322492 3.250000 2.092397 4.242888 3.050000 2.092397 4.242888 3.250000 2.118911 15.002223 3.050000 2.118911 15.002223 3.250000 2.118911 17.145769 3.050000 2.118911 17.145769 3.250000 2.170493 9.574196 3.050000 2.170493 9.574196 3.250000 2.170493 12.545624 3.050000 2.170493 12.545624 3.250000 2.214571 9.880349 3.050000 2.214571 9.880349 3.250000 2.214571 12.851778 3.050000 2.214571 12.851778 3.250000 2.216335 9.287686 3.050000 2.216335 9.287686 3.250000 2.216335 12.259115 3.050000 2.216335 12.259115 3.250000 2.330170 4.242888 3.050000 2.330170 4.242888 3.250000 2.346803 10.101624 3.050000 2.346803 10.101624 3.250000 2.346803 13.073052 3.050000 2.346803 13.073052 3.250000 2.352337 2.971428 3.050000 2.352337 2.971428 3.250000 2.352337 3.024825 3.050000 2.352337 3.024825 3.250000 2.353860 9.072960 3.050000 2.353860 9.072960 3.250000 2.353860 12.044389 3.050000 2.353860 12.044389 3.250000 2.381064 9.576216 3.050000 2.381064 9.576216 3.250000 2.381064 12.547645 3.050000 2.381064 12.547645 3.250000 2.410785 9.853777 3.050000 2.410785 9.853777 3.250000 2.410785 12.825206 3.050000 2.410785 12.825206 3.250000 2.412171 9.316784 3.050000 2.412171 9.316784 3.250000 2.412171 12.288213 3.050000 2.412171 12.288213 3.250000 2.430839 14.857142 3.050000 2.430839 14.857142 3.250000 2.430839 14.953257 3.050000 2.430839 14.953257 3.250000 2.430839 17.192944 3.050000 2.430839 17.192944 3.250000 2.430839 17.289059 3.050000 2.430839 17.289059 3.250000 2.499951 10.047722 3.050000 2.499951 10.047722 3.250000 2.499951 13.019151 3.050000 2.499951 13.019151 3.250000 2.505492 9.126862 3.050000 2.505492 9.126862 3.250000 2.505492 12.098290 3.050000 2.505492 12.098290 3.250000 2.511517 4.269096 3.050000 2.511517 4.269096 3.250000 2.511517 4.322492 3.050000 2.511517 4.322492 3.250000 2.565690 10.235750 3.050000 2.565690 10.235750 3.250000 2.565690 13.207179 3.050000 2.565690 13.207179 3.250000 2.566934 3.052028 3.050000 2.566934 3.052028 3.250000 2.566934 3.497341 3.050000 2.566934 3.497341 3.250000 2.573497 8.938845 3.050000 2.573497 8.938845 3.250000 2.573497 11.910274 3.050000 2.573497 11.910274 3.250000 2.653848 10.161825 3.050000 2.653848 10.161825 3.250000 2.653848 13.133254 3.050000 2.653848 13.133254 3.250000 2.658257 9.010497 3.050000 2.658257 9.010497 3.250000 2.658257 11.981925 3.050000 2.658257 11.981925 3.250000 2.718061 3.619244 3.050000 2.718061 3.619244 3.250000 2.761384 3.052028 3.050000 2.761384 3.052028 3.250000 2.761384 3.503388 3.050000 2.761384 3.503388 3.250000 2.865674 8.894139 3.050000 2.865674 8.894139 3.250000 2.865674 11.865568 3.050000 2.865674 11.865568 3.250000 2.867694 8.971708 3.050000 2.867694 8.971708 3.250000 2.867694 11.943137 3.050000 2.867694 11.943137 3.250000 2.869700 10.280459 3.050000 2.869700 10.280459 3.250000 2.869700 13.251888 3.050000 2.869700 13.251888 3.250000 2.877768 10.199860 3.050000 2.877768 10.199860 3.250000 2.877768 13.171288 3.050000 2.877768 13.171288 3.250000 2.915527 4.269096 3.050000 2.915527 4.269096 3.250000 2.915527 4.322492 3.050000 2.915527 4.322492 3.250000 2.973604 10.193939 3.050000 2.973604 10.193939 3.250000 2.973604 13.165367 3.050000 2.973604 13.165367 3.250000 2.975981 2.971428 3.050000 2.975981 2.971428 3.250000 2.975981 3.024825 3.050000 2.975981 3.024825 3.250000 2.979268 8.978636 3.050000 2.979268 8.978636 3.250000 2.979268 11.950065 3.050000 2.979268 11.950065 3.250000 3.067672 10.176177 3.050000 3.067672 10.176177 3.250000 3.067672 13.147606 3.050000 3.067672 13.147606 3.250000 3.084297 8.999417 3.050000 3.084297 8.999417 3.250000 3.084297 11.970846 3.050000 3.084297 11.970846 3.250000 3.086800 4.242888 3.050000 3.086800 4.242888 3.250000 3.088078 10.267612 3.050000 3.088078 10.267612 3.250000 3.088078 13.239040 3.050000 3.088078 13.239040 3.250000 3.112254 8.910007 3.050000 3.112254 8.910007 3.250000 3.112254 11.881435 3.050000 3.112254 11.881435 3.250000 3.155202 10.147595 3.050000 3.155202 10.147595 3.250000 3.155202 13.119024 3.050000 3.155202 13.119024 3.250000 3.175475 9.031783 3.050000 3.175475 9.031783 3.250000 3.175475 12.003212 3.050000 3.175475 12.003212 3.250000 3.206697 4.242888 3.050000 3.206697 4.242888 3.250000 3.231397 10.109186 3.050000 3.231397 10.109186 3.250000 3.231397 13.080615 3.050000 3.231397 13.080615 3.250000 3.245497 9.073465 3.050000 3.245497 9.073465 3.250000 3.245497 12.044893 3.050000 3.245497 12.044893 3.250000 3.261617 9.933872 3.050000 3.261617 9.933872 3.250000 3.261617 12.905300 3.050000 3.261617 12.905300 3.250000 3.282773 9.274973 3.050000 3.282773 9.274973 3.250000 3.282773 12.246401 3.050000 3.282773 12.246401 3.250000 3.322070 10.229069 3.050000 3.322070 10.229069 3.250000 3.322070 13.200497 3.050000 3.322070 13.200497 3.250000 3.328117 9.933872 3.050000 3.328117 9.933872 3.250000 3.328117 12.905300 3.050000 3.328117 12.905300 3.250000 3.342217 8.957609 3.050000 3.342217 8.957609 3.250000 3.342217 11.929038 3.050000 3.342217 11.929038 3.250000 3.348264 9.274973 3.050000 3.348264 9.274973 3.250000 3.348264 12.246401 3.050000 3.348264 12.246401 3.250000 3.354793 4.269096 3.050000 3.354793 4.269096 3.250000 3.354793 4.322492 3.050000 3.354793 4.322492 3.250000 3.409304 4.269096 3.050000 3.409304 4.269096 3.250000 3.409304 4.322492 3.050000 3.409304 4.322492 3.250000 3.521646 10.211953 3.050000 3.521646 10.211953 3.250000 3.521646 10.265349 3.050000 3.521646 10.265349 3.250000 3.521646 13.183382 3.050000 3.521646 13.183382 3.250000 3.521646 13.236778 3.050000 3.521646 13.236778 3.250000 3.527181 4.242888 3.050000 3.527181 4.242888 3.250000 3.534751 8.914286 3.050000 3.534751 8.914286 3.250000 3.534751 8.967682 3.050000 3.534751 8.967682 3.250000 3.534751 11.885715 3.050000 3.534751 11.885715 3.250000 3.534751 11.939111 3.050000 3.534751 11.939111 3.250000 3.575434 17.192944 3.050000 3.575434 17.192944 3.250000 3.575434 17.289059 3.050000 3.575434 17.289059 3.250000 3.599021 14.857142 3.050000 3.599021 14.857142 3.250000 3.599021 14.953257 3.050000 3.599021 14.953257 3.250000 3.694940 8.994885 3.050000 3.694940 8.994885 3.250000 3.694940 10.185745 3.050000 3.694940 10.185745 3.250000 3.694940 11.966314 3.050000 3.694940 11.966314 3.250000 3.694940 13.157174 3.050000 3.694940 13.157174 3.250000 3.726668 4.242888 3.050000 3.726668 4.242888 3.250000 3.769493 5.942857 3.050000 3.769493 5.942857 3.250000 3.769493 5.996253 3.050000 3.769493 5.996253 3.250000 3.887363 15.002223 3.050000 3.887363 15.002223 3.250000 3.887363 17.145769 3.050000 3.887363 17.145769 3.250000 3.889391 8.994885 3.050000 3.889391 8.994885 3.250000 3.889391 9.444225 3.050000 3.889391 9.444225 3.250000 3.889391 9.534913 3.050000 3.889391 9.534913 3.250000 3.889391 10.174662 3.050000 3.889391 10.174662 3.250000 3.889391 11.966314 3.050000 3.889391 11.966314 3.250000 3.889391 12.415654 3.050000 3.889391 12.415654 3.250000 3.889391 12.506342 3.050000 3.889391 12.506342 3.250000 3.889391 13.146091 3.050000 3.889391 13.146091 3.250000 3.922641 6.023457 3.050000 3.922641 6.023457 3.250000 3.925144 4.269096 3.050000 3.925144 4.269096 3.250000 3.925144 4.322492 3.050000 3.925144 4.322492 3.250000 3.974500 2.940199 3.050000 3.974500 2.940199 3.250000 3.988116 10.174662 3.050000 3.988116 10.174662 3.250000 3.988116 13.146091 3.050000 3.988116 13.146091 3.250000 3.994163 9.534913 3.050000 3.994163 9.534913 3.250000 3.994163 12.506342 3.050000 3.994163 12.506342 3.250000 4.027911 2.940199 3.050000 4.027911 2.940199 3.250000 4.031439 10.265349 3.050000 4.031439 10.265349 3.250000 4.031439 13.236778 3.050000 4.031439 13.236778 3.250000 4.032450 6.023457 3.050000 4.032450 6.023457 3.250000 4.041513 9.444225 3.050000 4.041513 9.444225 3.250000 4.041513 12.415654 3.050000 4.041513 12.415654 3.250000 4.048057 3.290812 3.050000 4.048057 3.290812 3.250000 4.103987 8.914286 3.050000 4.103987 8.914286 3.250000 4.103987 8.967682 3.050000 4.103987 8.967682 3.250000 4.103987 11.885715 3.050000 4.103987 11.885715 3.250000 4.103987 11.939111 3.050000 4.103987 11.939111 3.250000 4.142137 9.554305 3.050000 4.142137 9.554305 3.250000 4.142137 12.525734 3.050000 4.142137 12.525734 3.250000 4.145033 10.156777 3.050000 4.145033 10.156777 3.250000 4.145033 13.128206 3.050000 4.145033 13.128206 3.250000 4.168467 6.413353 3.050000 4.168467 6.413353 3.250000 4.198687 6.504041 3.050000 4.198687 6.504041 3.250000 4.213811 5.942857 3.050000 4.213811 5.942857 3.250000 4.213811 5.996253 3.050000 4.213811 5.996253 3.250000 4.237373 15.002223 3.050000 4.237373 15.002223 3.250000 4.237373 15.811034 3.050000 4.237373 15.811034 3.250000 4.237373 15.974272 3.050000 4.237373 15.974272 3.250000 4.237373 17.125820 3.050000 4.237373 17.125820 3.250000 4.245531 9.612482 3.050000 4.245531 9.612482 3.250000 4.245531 12.583911 3.050000 4.245531 12.583911 3.250000 4.248937 9.471176 3.050000 4.248937 9.471176 3.250000 4.248937 12.442605 3.050000 4.248937 12.442605 3.250000 4.249052 10.103125 3.050000 4.249052 10.103125 3.250000 4.249052 13.074553 3.050000 4.249052 13.074553 3.250000 4.306360 9.714495 3.050000 4.306360 9.714495 3.250000 4.306360 12.685924 3.050000 4.306360 12.685924 3.250000 4.307240 10.007924 3.050000 4.307240 10.007924 3.250000 4.307240 12.979352 3.050000 4.307240 12.979352 3.250000 4.326637 9.865366 3.050000 4.326637 9.865366 3.250000 4.326637 12.836794 3.050000 4.326637 12.836794 3.250000 4.383064 7.305004 3.050000 4.383064 7.305004 3.250000 4.387588 3.871132 3.050000 4.387588 3.871132 3.250000 4.401695 9.552029 3.050000 4.401695 9.552029 3.250000 4.401695 12.523458 3.050000 4.401695 12.523458 3.250000 4.403210 10.165859 3.050000 4.403210 10.165859 3.250000 4.403210 13.137287 3.050000 4.403210 13.137287 3.250000 4.411761 4.227778 3.050000 4.411761 4.227778 3.250000 4.415079 17.125820 3.050000 4.415079 17.125820 3.250000 4.425964 15.974272 3.050000 4.425964 15.974272 3.250000 4.430413 7.159924 3.050000 4.430413 7.159924 3.250000 4.457104 4.227778 3.050000 4.457104 4.227778 3.250000 4.493062 17.289059 3.050000 4.493062 17.289059 3.250000 4.495774 9.684770 3.050000 4.495774 9.684770 3.250000 4.495774 12.656199 3.050000 4.495774 12.656199 3.250000 4.511193 15.811034 3.050000 4.511193 15.811034 3.250000 4.527134 9.867386 3.050000 4.527134 9.867386 3.250000 4.527134 12.838815 3.050000 4.527134 12.838815 3.250000 4.574483 7.305004 3.050000 4.574483 7.305004 3.250000 4.623647 14.857142 3.050000 4.623647 14.857142 3.250000 4.623647 14.953257 3.050000 4.623647 14.953257 3.250000 4.653077 5.942857 3.050000 4.653077 5.942857 3.250000 4.653077 5.996253 3.050000 4.653077 5.996253 3.250000 4.669197 6.504041 3.050000 4.669197 6.504041 3.250000 4.669257 8.914286 3.050000 4.669257 8.914286 3.250000 4.669257 8.967682 3.050000 4.669257 8.967682 3.250000 4.669257 10.211953 3.050000 4.669257 10.211953 3.250000 4.669257 10.265349 3.050000 4.669257 10.265349 3.250000 4.669257 11.885715 3.050000 4.669257 11.885715 3.250000 4.669257 11.939111 3.050000 4.669257 11.939111 3.250000 4.669257 13.183382 3.050000 4.669257 13.183382 3.250000 4.669257 13.236778 3.050000 4.669257 13.236778 3.250000 4.692316 16.009178 3.050000 4.692316 16.009178 3.250000 4.697531 17.093628 3.050000 4.697531 17.093628 3.250000 4.700427 6.413353 3.050000 4.700427 6.413353 3.250000 4.738187 2.940199 3.050000 4.738187 2.940199 3.250000 4.791583 2.940199 3.050000 4.791583 2.940199 3.250000 4.807703 3.290812 3.050000 4.807703 3.290812 3.250000 4.834424 6.023457 3.050000 4.834424 6.023457 3.250000 4.842551 8.994885 3.050000 4.842551 8.994885 3.250000 4.842551 10.185745 3.050000 4.842551 10.185745 3.250000 4.842551 11.966314 3.050000 4.842551 11.966314 3.250000 4.842551 12.543848 3.050000 4.842551 13.157174 3.050000 4.842551 13.157174 3.250000 4.878426 16.113897 3.050000 4.878426 16.113897 3.250000 4.884557 15.859546 3.050000 4.884557 15.859546 3.250000 4.884764 16.997053 3.050000 4.884764 16.997053 3.250000 4.903428 4.269096 3.050000 4.903428 4.269096 3.250000 4.903428 4.322492 3.050000 4.903428 4.322492 3.250000 4.948333 8.994885 3.050000 4.948333 8.994885 3.250000 4.948333 10.129333 3.050000 4.948333 10.129333 3.250000 4.948333 11.966314 3.050000 4.948333 11.966314 3.250000 4.948333 13.100761 3.050000 4.948333 13.100761 3.250000 4.987918 16.297520 3.050000 4.987918 16.297520 3.250000 4.989503 16.825691 3.050000 4.989503 16.825691 3.250000 5.024415 16.569086 3.050000 5.024415 16.569086 3.250000 5.053046 6.023457 3.050000 5.053046 6.023457 3.250000 5.078304 10.265349 3.050000 5.078304 10.265349 3.250000 5.078304 13.236778 3.050000 5.078304 13.236778 3.250000 5.113983 4.242888 3.050000 5.113983 4.242888 3.250000 5.129680 8.914286 3.050000 5.129680 8.914286 3.250000 5.129680 8.967682 3.050000 5.129680 8.967682 3.250000 5.129680 11.885715 3.050000 5.129680 11.885715 3.250000 5.129680 11.939111 3.050000 5.129680 11.939111 3.250000 5.159520 16.005079 3.050000 5.159520 16.005079 3.250000 5.162248 17.109974 3.050000 5.162248 17.109974 3.250000 5.224334 5.942857 3.050000 5.224334 5.942857 3.250000 5.224334 5.996253 3.050000 5.224334 5.996253 3.250000 5.232870 4.242888 3.050000 5.232870 4.242888 3.250000 5.298977 7.240525 3.050000 5.298977 7.240525 3.250000 5.298977 7.293921 3.050000 5.298977 7.293921 3.250000 5.312081 5.942857 3.050000 5.312081 5.942857 3.250000 5.312081 5.996253 3.050000 5.312081 5.996253 3.250000 5.328863 16.244015 3.050000 5.328863 16.244015 3.250000 5.350746 4.269096 3.050000 5.350746 4.269096 3.250000 5.350746 4.322492 3.050000 5.350746 4.322492 3.250000 5.356927 4.269096 3.050000 5.356927 4.269096 3.250000 5.356927 4.322492 3.050000 5.356927 4.322492 3.250000 5.385310 16.572723 3.050000 5.385310 16.572723 3.250000 5.472271 6.023457 3.050000 5.472271 6.023457 3.250000 5.472271 7.214316 3.050000 5.472271 7.214316 3.250000 5.474804 4.242888 3.050000 5.474804 4.242888 3.250000 5.592123 10.211953 3.050000 5.592123 10.211953 3.250000 5.592123 10.265349 3.050000 5.592123 10.265349 3.250000 5.592123 13.183382 3.050000 5.592123 13.183382 3.250000 5.592123 13.236778 3.050000 5.592123 13.236778 3.250000 5.666721 6.023457 3.050000 5.666721 6.023457 3.250000 5.666721 6.535270 3.050000 5.666721 6.535270 3.250000 5.666721 6.625944 3.050000 5.666721 6.625944 3.250000 5.666721 7.203233 3.050000 5.666721 7.203233 3.250000 5.668330 14.857142 3.050000 5.668330 14.857142 3.250000 5.668330 14.953257 3.050000 5.668330 14.953257 3.250000 5.668330 17.192944 3.050000 5.668330 17.192944 3.250000 5.668330 17.289059 3.050000 5.668330 17.289059 3.250000 5.674290 4.242888 3.050000 5.674290 4.242888 3.250000 5.773470 9.264899 3.050000 5.773470 9.264899 3.250000 5.773470 10.185745 3.050000 5.773470 10.185745 3.250000 5.773470 12.236328 3.050000 5.773470 12.236328 3.250000 5.773470 13.157174 3.050000 5.773470 13.157174 3.250000 5.781537 8.914286 3.050000 5.781537 8.914286 3.250000 5.781537 11.885715 3.050000 5.781537 11.885715 3.250000 5.838989 7.203233 3.050000 5.838989 7.203233 3.250000 5.845036 6.625944 3.050000 5.845036 6.625944 3.250000 5.871229 5.942857 3.050000 5.871229 5.942857 3.250000 5.871229 5.996253 3.050000 5.871229 5.996253 3.250000 5.872767 4.269096 3.050000 5.872767 4.269096 3.250000 5.872767 4.322492 3.050000 5.872767 4.322492 3.250000 5.879267 8.914286 3.050000 5.879267 8.914286 3.250000 5.879267 10.185745 3.050000 5.879267 10.185745 3.250000 5.879267 11.885715 3.050000 5.879267 11.885715 3.250000 5.879267 13.157174 3.050000 5.879267 13.157174 3.250000 5.882313 7.293921 3.050000 5.882313 7.293921 3.250000 5.909516 6.535270 3.050000 5.909516 6.535270 3.250000 5.922123 2.940199 3.050000 5.922123 2.940199 3.250000 5.975534 2.940199 3.050000 5.975534 2.940199 3.250000 5.980259 15.002223 3.050000 5.980259 15.002223 3.250000 5.980259 17.145769 3.050000 5.980259 17.145769 3.250000 5.995680 3.290812 3.050000 5.995680 3.290812 3.250000 5.999057 7.186987 3.050000 5.999057 7.186987 3.250000 5.999313 6.642691 3.050000 5.999313 6.642691 3.250000 6.052561 10.211953 3.050000 6.052561 10.211953 3.250000 6.052561 10.265349 3.050000 6.052561 10.265349 3.250000 6.052561 13.183382 3.050000 6.052561 13.183382 3.250000 6.052561 13.236778 3.050000 6.052561 13.236778 3.250000 6.100950 6.563484 3.050000 6.100950 6.563484 3.250000 6.101441 6.692935 3.050000 6.101441 6.692935 3.250000 6.102451 7.138248 3.050000 6.102451 7.138248 3.250000 6.102957 7.272508 3.050000 6.102957 7.272508 3.250000 6.158492 6.782984 3.050000 6.158492 6.782984 3.250000 6.158745 7.050981 3.050000 6.158745 7.050981 3.250000 6.177510 6.919120 3.050000 6.177510 6.919120 3.250000 6.184626 9.574196 3.050000 6.184626 9.574196 3.250000 6.184626 12.545624 3.050000 6.184626 12.545624 3.250000 6.216814 6.616747 3.050000 6.216814 6.616747 3.250000 6.228703 9.880349 3.050000 6.228703 9.880349 3.250000 6.228703 12.851778 3.050000 6.228703 12.851778 3.250000 6.230468 9.287686 3.050000 6.230468 9.287686 3.250000 6.230468 12.259115 3.050000 6.230468 12.259115 3.250000 6.257099 7.208269 3.050000 6.257099 7.208269 3.250000 6.289354 5.942857 3.050000 6.289354 5.942857 3.250000 6.304464 6.699992 3.050000 6.304464 6.699992 3.250000 6.328450 15.002223 3.050000 6.328450 15.002223 3.250000 6.328450 17.145769 3.050000 6.328450 17.145769 3.250000 6.335211 3.871132 3.050000 6.335211 3.871132 3.250000 6.347780 7.096692 3.050000 6.347780 7.096692 3.250000 6.359383 4.227778 3.050000 6.359383 4.227778 3.250000 6.359621 6.807420 3.050000 6.359621 6.807420 3.250000 6.360936 10.101624 3.050000 6.360936 10.101624 3.250000 6.360936 13.073052 3.050000 6.360936 13.073052 3.250000 6.367993 9.072960 3.050000 6.367993 9.072960 3.250000 6.367993 12.044389 3.050000 6.367993 12.044389 3.250000 6.378007 6.933234 3.050000 6.378007 6.933234 3.250000 6.395196 9.576216 3.050000 6.395196 9.576216 3.250000 6.395196 12.547645 3.050000 6.395196 12.547645 3.250000 6.404727 4.227778 3.050000 6.404727 4.227778 3.250000 6.424918 9.853777 3.050000 6.424918 9.853777 3.250000 6.424918 12.825206 3.050000 6.424918 12.825206 3.250000 6.426304 9.316784 3.050000 6.426304 9.316784 3.250000 6.426304 12.288213 3.050000 6.426304 12.288213 3.250000 6.466674 6.023457 3.050000 6.466674 6.023457 3.250000 6.514083 10.047722 3.050000 6.514083 10.047722 3.250000 6.514083 13.019151 3.050000 6.514083 13.019151 3.250000 6.519625 9.126862 3.050000 6.519625 9.126862 3.250000 6.519625 12.098290 3.050000 6.519625 12.098290 3.250000 6.579822 10.235750 3.050000 6.579822 10.235750 3.250000 6.579822 13.207179 3.050000 6.579822 13.207179 3.250000 6.587630 8.938845 3.050000 6.587630 8.938845 3.250000 6.587630 11.910274 3.050000 6.587630 11.910274 3.250000 6.612749 5.942857 3.050000 6.612749 5.942857 3.250000 6.612749 5.996253 3.050000 6.612749 5.996253 3.250000 6.640379 14.857142 3.050000 6.640379 14.857142 3.250000 6.640379 14.953257 3.050000 6.640379 14.953257 3.250000 6.640379 17.192944 3.050000 6.640379 17.192944 3.250000 6.640379 17.289059 3.050000 6.640379 17.289059 3.250000 6.667981 10.161825 3.050000 6.667981 10.161825 3.250000 6.667981 13.133254 3.050000 6.667981 13.133254 3.250000 6.672390 9.010497 3.050000 6.672390 9.010497 3.250000 6.672390 11.981925 3.050000 6.672390 11.981925 3.250000 6.675313 5.942857 3.050000 6.675313 5.942857 3.250000 6.675313 5.996253 3.050000 6.675313 5.996253 3.250000 6.675313 7.240525 3.050000 6.675313 7.240525 3.250000 6.675313 7.293921 3.050000 6.675313 7.293921 3.250000 6.685809 2.940199 3.050000 6.685809 2.940199 3.250000 6.739206 2.940199 3.050000 6.739206 2.940199 3.250000 6.755326 3.290812 3.050000 6.755326 3.290812 3.250000 6.848607 6.023457 3.050000 6.848607 6.023457 3.250000 6.848607 7.214316 3.050000 6.848607 7.214316 3.250000 6.851051 4.269096 3.050000 6.851051 4.269096 3.250000 6.851051 4.322492 3.050000 6.851051 4.322492 3.250000 6.879807 8.894139 3.050000 6.879807 8.894139 3.250000 6.879807 11.865568 3.050000 6.879807 11.865568 3.250000 6.881827 8.971708 3.050000 6.881827 8.971708 3.250000 6.881827 11.943137 3.050000 6.881827 11.943137 3.250000 6.883833 10.280459 3.050000 6.883833 10.280459 3.250000 6.883833 13.251888 3.050000 6.883833 13.251888 3.250000 6.891900 10.199860 3.050000 6.891900 10.199860 3.250000 6.891900 13.171288 3.050000 6.891900 13.171288 3.250000 6.923345 16.044981 3.050000 6.923345 16.044981 3.250000 6.954389 6.023457 3.050000 6.954389 6.023457 3.250000 6.954389 7.104507 3.050000 6.954389 7.104507 3.250000 6.987736 10.193939 3.050000 6.987736 10.193939 3.250000 6.987736 13.165367 3.050000 6.987736 13.165367 3.250000 6.993401 8.978636 3.050000 6.993401 8.978636 3.250000 6.993401 11.950065 3.050000 6.993401 11.950065 3.250000 7.002685 16.596058 3.050000 7.002685 16.596058 3.250000 7.005861 15.529264 3.050000 7.005861 15.529264 3.250000 7.061606 4.242888 3.050000 7.061606 4.242888 3.250000 7.081805 10.176177 3.050000 7.081805 10.176177 3.250000 7.081805 13.147606 3.050000 7.081805 13.147606 3.250000 7.084360 7.293921 3.050000 7.084360 7.293921 3.250000 7.098429 8.999417 3.050000 7.098429 8.999417 3.250000 7.098429 11.970846 3.050000 7.098429 11.970846 3.250000 7.102211 10.267612 3.050000 7.102211 10.267612 3.250000 7.102211 13.239040 3.050000 7.102211 13.239040 3.250000 7.126387 8.910007 3.050000 7.126387 8.910007 3.250000 7.126387 11.881435 3.050000 7.126387 11.881435 3.250000 7.135736 5.942857 3.050000 7.135736 5.942857 3.250000 7.135736 5.996253 3.050000 7.135736 5.996253 3.250000 7.169335 10.147595 3.050000 7.169335 10.147595 3.250000 7.169335 13.119024 3.050000 7.169335 13.119024 3.250000 7.180493 4.242888 3.050000 7.180493 4.242888 3.250000 7.189608 9.031783 3.050000 7.189608 9.031783 3.250000 7.189608 12.003212 3.050000 7.189608 12.003212 3.250000 7.240703 16.994352 3.050000 7.240703 16.994352 3.250000 7.245530 10.109186 3.050000 7.245530 10.109186 3.250000 7.245530 13.080615 3.050000 7.245530 13.080615 3.250000 7.253406 15.142756 3.050000 7.253406 15.142756 3.250000 7.259629 9.073465 3.050000 7.259629 9.073465 3.250000 7.259629 12.044893 3.050000 7.259629 12.044893 3.250000 7.275749 9.933872 3.050000 7.275749 9.933872 3.250000 7.275749 12.905300 3.050000 7.275749 12.905300 3.250000 7.296906 9.274973 3.050000 7.296906 9.274973 3.250000 7.296906 12.246401 3.050000 7.296906 12.246401 3.250000 7.298370 4.269096 3.050000 7.298370 4.269096 3.250000 7.298370 4.322492 3.050000 7.298370 4.322492 3.250000 7.302372 16.048618 3.050000 7.302372 16.048618 3.250000 7.336203 10.229069 3.050000 7.336203 10.229069 3.250000 7.336203 13.200497 3.050000 7.336203 13.200497 3.250000 7.342250 9.933872 3.050000 7.342250 9.933872 3.250000 7.342250 12.905300 3.050000 7.342250 12.905300 3.250000 7.355871 16.548227 3.050000 7.355871 16.548227 3.250000 7.356350 8.957609 3.050000 7.356350 8.957609 3.250000 7.356350 11.929038 3.050000 7.356350 11.929038 3.250000 7.358365 15.581640 3.050000 7.358365 15.581640 3.250000 7.361973 2.971428 3.050000 7.361973 2.971428 3.250000 7.361973 3.024825 3.050000 7.361973 3.024825 3.250000 7.361973 4.269096 3.050000 7.361973 4.269096 3.250000 7.361973 4.322492 3.050000 7.361973 4.322492 3.250000 7.362396 9.274973 3.050000 7.362396 9.274973 3.250000 7.362396 12.246401 3.050000 7.362396 12.246401 3.250000 7.449073 5.942857 3.050000 7.449073 5.942857 3.250000 7.484329 5.942857 3.050000 7.484329 5.942857 3.250000 7.516368 16.897329 3.050000 7.516368 16.897329 3.250000 7.523626 6.266267 3.050000 7.523626 6.266267 3.250000 7.526344 15.239779 3.050000 7.526344 15.239779 3.250000 7.535267 3.052028 3.050000 7.535267 3.052028 3.250000 7.535267 4.242888 3.050000 7.535267 4.242888 3.250000 7.535779 10.211953 3.050000 7.535779 10.211953 3.250000 7.535779 10.265349 3.050000 7.535779 10.265349 3.250000 7.535779 13.183382 3.050000 7.535779 13.183382 3.250000 7.535779 13.236778 3.050000 7.535779 13.236778 3.250000 7.548883 8.914286 3.050000 7.548883 8.914286 3.250000 7.548883 8.967682 3.050000 7.548883 8.967682 3.250000 7.548883 11.885715 3.050000 7.548883 11.885715 3.250000 7.548883 11.939111 3.050000 7.548883 11.939111 3.250000 7.634699 17.235779 3.050000 7.634699 17.235779 3.250000 7.641050 3.052028 3.050000 7.641050 3.052028 3.250000 7.641050 4.186475 3.050000 7.641050 4.186475 3.250000 7.648752 14.901349 3.050000 7.648752 14.901349 3.250000 7.709073 8.994885 3.050000 7.709073 8.994885 3.250000 7.709073 10.185745 3.050000 7.709073 10.185745 3.250000 7.709073 11.966314 3.050000 7.709073 11.966314 3.250000 7.709073 13.157174 3.050000 7.709073 13.157174 3.250000 7.771020 4.322492 3.050000 7.771020 4.322492 3.250000 7.793384 17.102715 3.050000 7.793384 17.102715 3.250000 7.801320 15.030323 3.050000 7.801320 15.030323 3.250000 7.822396 2.971428 3.050000 7.822396 2.971428 3.250000 7.822396 3.024825 3.050000 7.822396 3.024825 3.250000 7.842000 5.942857 3.050000 7.842000 5.942857 3.250000 7.842000 5.996253 3.050000 7.842000 5.996253 3.250000 7.903523 8.994885 3.050000 7.903523 8.994885 3.250000 7.903523 9.444225 3.050000 7.903523 9.444225 3.250000 7.903523 9.534913 3.050000 7.903523 9.534913 3.250000 7.903523 10.174662 3.050000 7.903523 10.174662 3.250000 7.903523 11.966314 3.050000 7.903523 11.966314 3.250000 7.903523 12.415654 3.050000 7.903523 12.415654 3.250000 7.903523 12.506342 3.050000 7.903523 12.506342 3.250000 7.903523 13.146091 3.050000 7.903523 13.146091 3.250000 8.002249 10.174662 3.050000 8.002249 10.174662 3.250000 8.002249 13.146091 3.050000 8.002249 13.146091 3.250000 8.003199 7.293921 3.050000 8.003199 7.293921 3.250000 8.008296 9.534913 3.050000 8.008296 9.534913 3.250000 8.008296 12.506342 3.050000 8.008296 12.506342 3.250000 8.023346 6.023457 3.050000 8.023346 6.023457 3.250000 8.023346 7.104507 3.050000 8.023346 7.104507 3.250000 8.045572 10.265349 3.050000 8.045572 10.265349 3.250000 8.045572 13.236778 3.050000 8.045572 13.236778 3.250000 8.055646 9.444225 3.050000 8.055646 9.444225 3.250000 8.055646 12.415654 3.050000 8.055646 12.415654 3.250000 8.118120 8.914286 3.050000 8.118120 8.914286 3.250000 8.118120 8.967682 3.050000 8.118120 8.967682 3.250000 8.118120 11.885715 3.050000 8.118120 11.885715 3.250000 8.118120 11.939111 3.050000 8.118120 11.939111 3.250000 8.156269 9.554305 3.050000 8.156269 9.554305 3.250000 8.156269 12.525734 3.050000 8.156269 12.525734 3.250000 8.159166 10.156777 3.050000 8.159166 10.156777 3.250000 8.159166 13.128206 3.050000 8.159166 13.128206 3.250000 8.174671 14.820880 3.050000 8.174671 14.820880 3.250000 8.178307 14.960504 3.050000 8.178307 14.960504 3.250000 8.181918 17.316256 3.050000 8.181918 17.316256 3.250000 8.196439 17.171177 3.050000 8.196439 17.171177 3.250000 8.216786 6.023457 3.050000 8.216786 6.023457 3.250000 8.216786 7.214316 3.050000 8.216786 7.214316 3.250000 8.259663 9.612482 3.050000 8.259663 9.612482 3.250000 8.259663 12.583911 3.050000 8.259663 12.583911 3.250000 8.263070 9.471176 3.050000 8.263070 9.471176 3.250000 8.263070 12.442605 3.050000 8.263070 12.442605 3.250000 8.263185 10.103125 3.050000 8.263185 10.103125 3.250000 8.263185 13.074553 3.050000 8.263185 13.074553 3.250000 8.284839 4.269096 3.050000 8.284839 4.269096 3.250000 8.284839 4.322492 3.050000 8.284839 4.322492 3.250000 8.320492 9.714495 3.050000 8.320492 9.714495 3.250000 8.320492 12.685924 3.050000 8.320492 12.685924 3.250000 8.321373 10.007924 3.050000 8.321373 10.007924 3.250000 8.321373 12.979352 3.050000 8.321373 12.979352 3.250000 8.340769 9.865366 3.050000 8.340769 9.865366 3.250000 8.340769 12.836794 3.050000 8.340769 12.836794 3.250000 8.368944 17.160519 3.050000 8.368944 17.160519 3.250000 8.379140 14.972973 3.050000 8.379140 14.972973 3.250000 8.390080 5.942857 3.050000 8.390080 5.942857 3.250000 8.390080 5.996253 3.050000 8.390080 5.996253 3.250000 8.390080 7.240525 3.050000 8.390080 7.240525 3.250000 8.390080 7.293921 3.050000 8.390080 7.293921 3.250000 8.415828 9.552029 3.050000 8.415828 9.552029 3.250000 8.415828 12.523458 3.050000 8.415828 12.523458 3.250000 8.417343 10.165859 3.050000 8.417343 10.165859 3.250000 8.417343 13.137287 3.050000 8.417343 13.137287 3.250000 8.466186 3.322042 3.050000 8.466186 3.322042 3.250000 8.466186 4.242888 3.050000 8.466186 4.242888 3.250000 8.474253 2.971428 3.050000 8.474253 2.971428 3.250000 8.509907 9.684770 3.050000 8.509907 9.684770 3.250000 8.509907 12.656199 3.050000 8.509907 12.656199 3.250000 8.538266 17.128548 3.050000 8.538266 17.128548 3.250000 8.541266 9.867386 3.050000 8.541266 9.867386 3.250000 8.541266 12.838815 3.050000 8.541266 12.838815 3.250000 8.568192 15.010380 3.050000 8.568192 15.010380 3.250000 8.571983 2.971428 3.050000 8.571983 2.971428 3.250000 8.571983 4.242888 3.050000 8.571983 4.242888 3.250000 8.574998 17.293127 3.050000 8.574998 17.293127 3.250000 8.618515 14.849441 3.050000 8.618515 14.849441 3.250000 8.683390 8.914286 3.050000 8.683390 8.914286 3.250000 8.683390 8.967682 3.050000 8.683390 8.967682 3.250000 8.683390 10.211953 3.050000 8.683390 10.211953 3.250000 8.683390 10.265349 3.050000 8.683390 10.265349 3.250000 8.683390 11.885715 3.050000 8.683390 11.885715 3.250000 8.683390 11.939111 3.050000 8.683390 11.939111 3.250000 8.683390 13.183382 3.050000 8.683390 13.183382 3.250000 8.683390 13.236778 3.050000 8.683390 13.236778 3.250000 8.695822 17.077101 3.050000 8.695822 17.077101 3.250000 8.732313 15.068639 3.050000 8.732313 15.068639 3.250000 8.745277 4.269096 3.050000 8.745277 4.269096 3.250000 8.745277 4.322492 3.050000 8.745277 4.322492 3.250000 8.832973 17.007963 3.050000 8.832973 17.007963 3.250000 8.852160 2.971428 3.050000 8.852160 2.971428 3.250000 8.852160 3.024825 3.050000 8.852160 3.024825 3.250000 8.852160 4.269096 3.050000 8.852160 4.269096 3.250000 8.852160 4.322492 3.050000 8.852160 4.322492 3.250000 8.856684 8.994885 3.050000 8.856684 8.994885 3.250000 8.856684 10.185745 3.050000 8.856684 10.185745 3.250000 8.856684 11.966314 3.050000 8.856684 11.966314 3.250000 8.856684 13.157174 3.050000 8.856684 13.157174 3.250000 8.858352 15.143666 3.050000 8.858352 15.143666 3.250000 8.887368 16.692398 3.050000 8.887368 16.692398 3.250000 8.925449 15.506379 3.050000 8.925449 15.506379 3.250000 8.962466 8.994885 3.050000 8.962466 8.994885 3.250000 8.962466 10.129333 3.050000 8.962466 10.129333 3.250000 8.962466 11.966314 3.050000 8.962466 11.966314 3.250000 8.962466 13.100761 3.050000 8.962466 13.100761 3.250000 8.996184 17.223751 3.050000 8.996184 17.223751 3.250000 9.007069 16.692398 3.050000 9.007069 16.692398 3.250000 9.025454 3.052028 3.050000 9.025454 3.052028 3.250000 9.025454 4.242888 3.050000 9.025454 4.242888 3.250000 9.032448 14.935125 3.050000 9.032448 14.935125 3.250000 9.043332 15.506379 3.050000 9.043332 15.506379 3.250000 9.092437 10.265349 3.050000 9.092437 10.265349 3.250000 9.092437 13.236778 3.050000 9.092437 13.236778 3.250000 9.131236 3.052028 3.050000 9.131236 3.052028 3.250000 9.131236 4.186475 3.050000 9.131236 4.186475 3.250000 9.143812 8.914286 3.050000 9.143812 8.914286 3.250000 9.143812 8.967682 3.050000 9.143812 8.967682 3.250000 9.143812 11.885715 3.050000 9.143812 11.885715 3.250000 9.143812 11.939111 3.050000 9.143812 11.939111 3.250000 9.261207 4.322492 3.050000 9.261207 4.322492 3.250000 9.312582 2.971428 3.050000 9.312582 2.971428 3.250000 9.312582 3.024825 3.050000 9.312582 3.024825 3.250000 9.426156 15.410265 3.050000 9.426156 15.410265 3.250000 9.446106 14.898862 3.050000 9.446106 14.898862 3.250000 9.500502 16.770380 3.050000 9.500502 16.770380 3.250000 9.500502 17.238274 3.050000 9.500502 17.238274 3.250000 9.545831 15.410265 3.050000 9.545831 15.410265 3.250000 9.606256 10.211953 3.050000 9.606256 10.211953 3.250000 9.606256 10.265349 3.050000 9.606256 10.265349 3.250000 9.606256 13.183382 3.050000 9.606256 13.183382 3.250000 9.606256 13.236778 3.050000 9.606256 13.236778 3.250000 9.620202 16.770380 3.050000 9.620202 16.770380 3.250000 9.627450 15.069321 3.050000 9.627450 15.069321 3.250000 9.667785 17.277485 3.050000 9.667785 17.277485 3.250000 9.683663 17.067787 3.050000 9.683663 17.067787 3.250000 9.712914 15.032142 3.050000 9.712914 15.032142 3.250000 9.763464 14.840375 3.050000 9.763464 14.840375 3.250000 9.769809 17.107012 3.050000 9.769809 17.107012 3.250000 9.775025 4.269096 3.050000 9.775025 4.269096 3.250000 9.775025 4.322492 3.050000 9.775025 4.322492 3.250000 9.787602 9.264899 3.050000 9.787602 9.264899 3.250000 9.787602 10.185745 3.050000 9.787602 10.185745 3.250000 9.787602 12.236328 3.050000 9.787602 12.236328 3.250000 9.787602 13.157174 3.050000 9.787602 13.157174 3.250000 9.795670 8.914286 3.050000 9.795670 8.914286 3.250000 9.795670 11.885715 3.050000 9.795670 11.885715 3.250000 9.810585 17.300825 3.050000 9.810585 17.300825 3.250000 9.827834 15.000404 3.050000 9.827834 15.000404 3.250000 9.854122 16.052227 3.050000 9.854122 16.052227 3.250000 9.854122 16.200945 3.050000 9.854122 16.200945 3.250000 9.868644 17.137613 3.050000 9.868644 17.137613 3.250000 9.893400 8.914286 3.050000 9.893400 8.914286 3.250000 9.893400 10.185745 3.050000 9.893400 10.185745 3.250000 9.893400 11.885715 3.050000 9.893400 11.885715 3.250000 9.893400 13.157174 3.050000 9.893400 13.157174 3.250000 9.940716 17.312399 3.050000 9.940716 17.312399 3.250000 9.953197 14.978642 3.050000 9.953197 14.978642 3.250000 9.956372 3.322042 3.050000 9.956372 3.322042 3.250000 9.956372 4.242888 3.050000 9.956372 4.242888 3.250000 9.964439 2.971428 3.050000 9.964439 2.971428 3.250000 9.971557 17.157349 3.050000 9.971557 17.157349 3.250000 10.062170 2.971428 3.050000 10.062170 2.971428 3.250000 10.062170 4.242888 3.050000 10.062170 4.242888 3.250000 10.066693 10.211953 3.050000 10.066693 10.211953 3.250000 10.066693 10.265349 3.050000 10.066693 10.265349 3.250000 10.066693 13.183382 3.050000 10.066693 13.183382 3.250000 10.066693 13.236778 3.050000 10.066693 13.236778 3.250000 10.069937 14.971389 3.050000 10.069937 14.971389 3.250000 10.069937 17.163927 3.050000 10.069937 17.163927 3.250000 10.069937 17.316256 3.050000 10.069937 17.316256 3.250000 10.098953 14.820880 3.050000 10.098953 14.820880 3.250000 10.113475 16.037733 3.050000 10.113475 16.037733 3.250000 10.113475 16.217258 3.050000 10.113475 16.217258 3.250000 10.235463 4.269096 3.050000 10.235463 4.269096 3.250000 10.235463 4.322492 3.050000 10.235463 4.322492 3.250000 10.270555 17.136042 3.050000 10.270555 17.136042 3.250000 10.291636 16.254436 3.050000 10.291636 16.254436 3.250000 10.317489 15.004028 3.050000 10.317489 15.004028 3.250000 10.318378 16.130209 3.050000 10.318378 16.130209 3.250000 10.341959 15.997150 3.050000 10.341959 15.997150 3.250000 10.342345 2.971428 3.050000 10.342345 2.971428 3.250000 10.342345 3.024825 3.050000 10.342345 3.024825 3.250000 10.342345 4.269096 3.050000 10.342345 4.269096 3.250000 10.342345 4.322492 3.050000 10.342345 4.322492 3.250000 10.408154 17.052383 3.050000 10.408154 17.052383 3.250000 10.416310 16.344206 3.050000 10.416310 16.344206 3.250000 10.463926 14.867125 3.050000 10.463926 14.867125 3.250000 10.487720 16.907537 3.050000 10.487720 16.907537 3.250000 10.489759 16.490196 3.050000 10.489759 16.490196 3.250000 10.490683 15.101947 3.050000 10.490683 15.101947 3.250000 10.501540 15.900809 3.050000 10.501540 15.900809 3.250000 10.514243 16.696035 3.050000 10.514243 16.696035 3.250000 10.515639 3.052028 3.050000 10.515639 3.052028 3.250000 10.515639 4.242888 3.050000 10.515639 4.242888 3.250000 10.543480 16.194828 3.050000 10.543480 16.194828 3.250000 10.592693 15.276056 3.050000 10.592693 15.276056 3.250000 10.595407 15.747800 3.050000 10.595407 15.747800 3.250000 10.604915 16.063793 3.050000 10.604915 16.063793 3.250000 10.621422 3.052028 3.050000 10.621422 3.052028 3.250000 10.621422 4.186475 3.050000 10.621422 4.186475 3.250000 10.626697 15.537213 3.050000 10.626697 15.537213 3.250000 10.654783 17.166643 3.050000 10.654783 17.166643 3.250000 10.710990 16.316099 3.050000 10.710990 16.316099 3.250000 10.735487 15.005860 3.050000 10.735487 15.005860 3.250000 10.751392 4.322492 3.050000 10.751392 4.322492 3.250000 10.802769 2.971428 3.050000 10.802769 2.971428 3.250000 10.802769 3.024825 3.050000 10.802769 3.024825 3.250000 10.804403 15.940710 3.050000 10.804403 15.940710 3.250000 10.815046 16.491339 3.050000 10.815046 16.491339 3.250000 10.849732 16.717804 3.050000 10.849732 16.717804 3.250000 10.904147 15.226656 3.050000 10.904147 15.226656 3.250000 10.921376 15.759594 3.050000 10.921376 15.759594 3.250000 10.960367 15.519082 3.050000 10.960367 15.519082 3.250000 11.265212 4.269096 3.050000 11.265212 4.269096 3.250000 11.265212 4.322492 3.050000 11.265212 4.322492 3.250000 11.268792 14.857142 3.050000 11.268792 14.857142 3.250000 11.268792 15.123715 3.050000 11.268792 15.123715 3.250000 11.350411 16.770380 3.050000 11.350411 16.770380 3.250000 11.350411 17.238274 3.050000 11.350411 17.238274 3.250000 11.446558 3.322042 3.050000 11.446558 3.322042 3.250000 11.446558 4.242888 3.050000 11.446558 4.242888 3.250000 11.454626 2.971428 3.050000 11.454626 2.971428 3.250000 11.470086 16.770380 3.050000 11.470086 16.770380 3.250000 11.506376 15.136418 3.050000 11.506376 15.136418 3.250000 11.533573 17.067787 3.050000 11.533573 17.067787 3.250000 11.552356 2.971428 3.050000 11.552356 2.971428 3.250000 11.552356 4.242888 3.050000 11.552356 4.242888 3.250000 11.606100 15.430216 3.050000 11.606100 15.430216 3.250000 11.617446 17.107012 3.050000 11.617446 17.107012 3.250000 11.655535 17.296761 3.050000 11.655535 17.296761 3.250000 11.682732 15.294649 3.050000 11.682732 15.294649 3.250000 11.713099 17.137613 3.050000 11.713099 17.137613 3.250000 11.725650 4.269096 3.050000 11.725650 4.269096 3.250000 11.725650 4.322492 3.050000 11.725650 4.322492 3.250000 11.813304 17.157349 3.050000 11.813304 17.157349 3.250000 11.849113 15.439281 3.050000 11.849113 15.439281 3.250000 11.887655 15.687722 3.050000 11.887655 15.687722 3.250000 11.910782 17.163927 3.050000 11.910782 17.163927 3.250000 11.910782 17.316256 3.050000 11.910782 17.316256 3.250000 12.083059 15.890835 3.050000 12.083059 15.890835 3.250000 12.119790 17.133093 3.050000 12.119790 17.133093 3.250000 12.172821 15.724681 3.050000 12.172821 15.724681 3.250000 12.200000 0.000000 0.000000 12.200000 0.000000 3.050000 12.200000 14.857142 2.950000 12.200000 14.857142 3.050000 12.200000 15.136418 2.950000 12.200000 15.136418 3.050000 12.200000 15.751546 2.950000 12.200000 15.751546 3.050000 12.200000 16.050545 2.950000 12.200000 16.050545 3.050000 12.200000 17.080473 2.950000 12.200000 17.080473 3.050000 12.200000 17.281910 2.950000 12.200000 17.281910 3.050000 12.200000 20.799999 0.000000 12.200000 20.799999 3.050000 12.213852 16.069464 2.950000 12.213852 16.069464 3.250000 12.260110 17.274771 2.950000 12.260110 17.274771 3.250000 12.260792 17.040590 2.950000 12.260792 17.040590 3.250000 12.301575 16.253521 2.950000 12.301575 16.253521 3.250000 12.341041 16.889166 2.950000 12.341041 16.889166 3.250000 12.351236 16.453918 2.950000 12.351236 16.453918 3.250000 12.367790 16.681515 2.950000 12.367790 16.681515 3.250000 12.389532 15.938891 2.950000 12.389532 15.938891 3.250000 12.510142 17.150316 2.950000 12.510142 17.150316 3.250000 12.531664 16.117981 2.950000 12.531664 16.117981 3.250000 12.631636 16.297968 2.950000 12.631636 16.297968 3.250000 12.660431 16.950146 2.950000 12.660431 16.950146 3.250000 12.690804 16.484072 2.950000 12.690804 16.484072 3.250000 12.710526 16.681515 2.950000 12.710526 16.681515 3.250000 12.757674 14.857142 2.950000 12.757674 14.857142 3.250000 12.757674 15.136418 2.950000 12.757674 15.136418 3.250000 "
							            />
						</IndexedFaceSet>
					</Shape>
					<Shape>
						<Appearance>
							<Material DEF="MA_Color_1"
							          diffuseColor="0.000 0.000 0.000"
							          specularColor="0.401 0.401 0.401"
							          emissiveColor="0.000 0.000 0.000"
							          ambientIntensity="0.000"
							          shininess="0.500"
							          transparency="1.000"
							          />
						</Appearance>
						<IndexedFaceSet solid="false"
						                coordIndex="16 17 18 -1 16 18 20 -1 16 20 22 -1 16 22 24 -1 16 24 27 -1 16 26 1521 -1 16 27 26 -1 16 1507 1508 -1 16 1508 17 -1 16 1521 1507 -1 17 19 18 -1 17 30 19 -1 17 34 36 -1 17 36 104 -1 17 40 30 -1 17 48 40 -1 17 56 34 -1 17 104 48 -1 17 108 56 -1 17 168 108 -1 17 258 168 -1 17 400 258 -1 17 410 400 -1 17 548 410 -1 17 550 548 -1 17 703 550 -1 17 705 703 -1 17 841 705 -1 17 843 841 -1 17 1508 843 -1 20 21 23 -1 20 23 22 -1 21 32 23 -1 23 32 40 -1 24 25 27 -1 25 28 42 -1 25 42 46 -1 25 46 52 -1 25 52 27 -1 26 27 1521 -1 27 52 64 -1 27 64 68 -1 27 68 80 -1 27 80 84 -1 27 84 92 -1 27 92 96 -1 27 96 1522 -1 27 1522 1521 -1 28 44 42 -1 28 50 44 -1 28 60 66 -1 28 62 50 -1 28 66 62 -1 30 40 32 -1 34 56 58 -1 34 58 38 -1 36 72 172 -1 36 150 154 -1 36 152 104 -1 36 154 160 -1 36 158 150 -1 36 160 152 -1 36 172 158 -1 38 58 76 -1 48 104 106 -1 48 106 134 -1 54 86 70 -1 58 74 76 -1 60 78 66 -1 60 82 78 -1 60 94 82 -1 60 130 94 -1 70 86 120 -1 70 98 100 -1 70 100 72 -1 70 120 98 -1 72 100 216 -1 72 216 172 -1 88 110 144 -1 88 144 90 -1 90 144 128 -1 94 130 102 -1 96 112 1522 -1 100 138 216 -1 102 130 114 -1 104 152 156 -1 104 156 166 -1 104 166 210 -1 104 210 188 -1 106 132 134 -1 108 168 170 -1 108 170 212 -1 108 212 214 -1 108 214 110 -1 110 214 144 -1 112 116 1522 -1 114 130 194 -1 114 194 118 -1 116 122 1522 -1 118 194 124 -1 122 126 1522 -1 124 194 126 -1 126 194 1522 -1 128 144 136 -1 136 140 142 -1 136 142 138 -1 136 144 140 -1 138 142 216 -1 142 206 216 -1 146 190 148 -1 148 190 490 -1 148 356 358 -1 148 358 192 -1 148 490 562 -1 148 562 356 -1 154 164 160 -1 160 164 174 -1 162 228 204 -1 164 208 174 -1 174 208 218 -1 176 184 302 -1 176 302 180 -1 178 186 304 -1 178 304 182 -1 180 302 196 -1 182 304 198 -1 184 200 302 -1 186 202 304 -1 188 210 244 -1 188 244 278 -1 188 278 190 -1 190 278 312 -1 190 312 340 -1 190 340 414 -1 190 414 490 -1 192 352 354 -1 192 354 1522 -1 192 358 352 -1 192 1522 194 -1 196 302 220 -1 198 304 222 -1 200 224 302 -1 202 226 304 -1 204 228 274 -1 204 250 252 -1 204 252 206 -1 204 274 250 -1 206 252 370 -1 206 370 372 -1 206 372 216 -1 208 242 218 -1 216 372 234 -1 218 242 276 -1 218 276 310 -1 218 310 336 -1 218 336 236 -1 220 302 246 -1 222 304 248 -1 224 238 302 -1 226 240 304 -1 230 260 342 -1 230 342 232 -1 232 326 292 -1 232 330 326 -1 232 342 330 -1 234 372 480 -1 234 480 280 -1 236 336 282 -1 238 262 314 -1 238 314 302 -1 240 264 316 -1 240 316 304 -1 246 302 254 -1 248 304 256 -1 252 328 370 -1 254 302 266 -1 256 304 268 -1 258 400 260 -1 260 400 342 -1 262 270 314 -1 264 272 316 -1 266 294 284 -1 266 302 294 -1 268 296 286 -1 268 304 296 -1 270 288 314 -1 272 290 316 -1 280 480 318 -1 282 336 320 -1 288 298 314 -1 290 300 316 -1 298 306 314 -1 300 308 316 -1 306 322 334 -1 306 334 314 -1 308 324 338 -1 308 338 316 -1 310 314 334 -1 310 334 336 -1 312 316 338 -1 312 338 340 -1 318 344 346 -1 318 346 360 -1 318 360 362 -1 318 362 322 -1 318 480 344 -1 320 336 348 -1 320 348 350 -1 320 350 364 -1 320 364 366 -1 320 366 324 -1 322 362 334 -1 324 366 338 -1 326 330 332 -1 326 332 328 -1 328 332 370 -1 332 398 370 -1 336 412 348 -1 344 480 424 -1 348 412 428 -1 352 358 376 -1 354 502 1522 -1 356 538 540 -1 356 540 593 -1 356 562 538 -1 356 593 647 -1 356 647 723 -1 356 723 773 -1 356 773 516 -1 358 374 376 -1 368 422 396 -1 370 398 444 -1 372 394 480 -1 378 426 380 -1 380 426 418 -1 382 402 384 -1 382 406 432 -1 382 432 456 -1 382 436 402 -1 382 456 468 -1 382 464 436 -1 382 468 476 -1 382 472 464 -1 382 476 472 -1 386 430 388 -1 388 430 420 -1 390 404 392 -1 390 408 434 -1 390 434 458 -1 390 438 404 -1 390 458 470 -1 390 466 438 -1 390 470 478 -1 390 474 466 -1 390 478 474 -1 396 422 492 -1 396 492 398 -1 398 492 444 -1 410 548 482 -1 412 488 428 -1 416 446 522 -1 416 522 440 -1 418 426 460 -1 420 430 462 -1 424 480 514 -1 424 514 526 -1 424 526 528 -1 424 528 426 -1 426 528 460 -1 428 488 532 -1 428 532 591 -1 428 534 536 -1 428 536 430 -1 428 591 643 -1 428 643 534 -1 430 536 462 -1 440 522 554 -1 440 554 546 -1 442 524 498 -1 444 492 500 -1 444 500 520 -1 444 520 522 -1 444 522 446 -1 448 518 450 -1 450 518 508 -1 452 494 454 -1 452 496 542 -1 452 542 565 -1 452 544 494 -1 452 565 583 -1 452 569 544 -1 452 583 587 -1 452 585 569 -1 452 587 585 -1 460 528 484 -1 462 536 486 -1 484 528 556 -1 484 556 504 -1 486 536 560 -1 486 560 562 -1 486 562 506 -1 488 510 530 -1 488 530 532 -1 490 512 562 -1 500 552 571 -1 500 571 573 -1 500 573 520 -1 502 607 1522 -1 504 556 510 -1 506 562 512 -1 508 518 567 -1 510 556 558 -1 510 558 530 -1 514 589 615 -1 514 597 526 -1 514 615 617 -1 514 617 749 -1 514 675 597 -1 514 691 675 -1 514 749 691 -1 516 657 659 -1 516 659 518 -1 516 773 807 -1 516 807 865 -1 516 865 903 -1 516 903 951 -1 516 951 995 -1 516 995 657 -1 518 659 567 -1 520 573 627 -1 520 627 609 -1 534 643 601 -1 538 562 563 -1 550 625 613 -1 550 629 625 -1 550 639 629 -1 550 703 639 -1 552 595 571 -1 567 659 605 -1 575 599 577 -1 577 599 675 -1 579 603 581 -1 581 603 771 -1 581 771 677 -1 589 611 637 -1 589 637 615 -1 591 641 643 -1 591 667 641 -1 593 645 647 -1 593 671 645 -1 597 675 599 -1 601 643 719 -1 601 719 603 -1 603 719 771 -1 605 659 709 -1 605 709 623 -1 607 633 661 -1 607 661 663 -1 607 663 1522 -1 609 619 621 -1 609 621 611 -1 609 627 619 -1 611 621 637 -1 617 699 775 -1 617 775 749 -1 619 627 631 -1 619 631 689 -1 619 689 683 -1 621 635 637 -1 623 709 633 -1 625 629 631 -1 625 631 627 -1 633 709 661 -1 641 667 669 -1 645 671 673 -1 649 685 651 -1 651 685 701 -1 653 679 655 -1 653 681 713 -1 653 713 679 -1 657 995 997 -1 657 997 817 -1 659 707 709 -1 663 823 1522 -1 665 711 687 -1 677 771 805 -1 677 805 695 -1 681 715 735 -1 681 729 713 -1 681 735 729 -1 683 689 755 -1 683 755 685 -1 685 755 701 -1 687 711 767 -1 687 767 689 -1 689 767 755 -1 691 739 745 -1 691 745 693 -1 691 749 739 -1 693 745 717 -1 695 721 697 -1 695 741 747 -1 695 747 721 -1 695 751 741 -1 695 805 863 -1 695 863 901 -1 695 901 949 -1 695 949 751 -1 699 731 775 -1 705 841 763 -1 715 727 733 -1 715 733 737 -1 715 737 735 -1 717 745 771 -1 717 771 719 -1 721 747 773 -1 721 773 723 -1 725 795 743 -1 731 753 809 -1 731 809 775 -1 743 795 849 -1 743 849 757 -1 751 949 777 -1 753 765 809 -1 755 767 785 -1 755 785 813 -1 757 849 769 -1 759 819 871 -1 759 821 761 -1 759 871 885 -1 759 885 821 -1 765 779 837 -1 765 837 839 -1 765 839 809 -1 769 837 779 -1 769 849 837 -1 777 949 991 -1 777 991 811 -1 781 791 859 -1 781 859 881 -1 781 881 897 -1 781 897 919 -1 781 919 931 -1 781 931 939 -1 781 939 787 -1 783 793 937 -1 783 937 789 -1 785 833 813 -1 785 845 851 -1 785 851 853 -1 785 853 833 -1 787 939 797 -1 789 937 799 -1 791 801 859 -1 793 803 937 -1 795 815 849 -1 797 939 825 -1 799 937 827 -1 801 829 859 -1 803 831 937 -1 809 839 855 -1 811 991 993 -1 811 993 857 -1 813 833 835 -1 813 835 815 -1 815 835 849 -1 817 929 819 -1 817 997 1013 -1 817 1013 929 -1 819 887 871 -1 819 929 887 -1 821 885 923 -1 821 923 823 -1 823 923 1007 -1 823 1007 1095 -1 823 1095 1522 -1 825 939 973 -1 825 973 867 -1 827 937 869 -1 831 861 937 -1 833 853 945 -1 833 945 909 -1 835 847 849 -1 839 895 855 -1 843 943 917 -1 843 965 967 -1 843 967 989 -1 843 969 943 -1 843 989 969 -1 843 1508 965 -1 845 889 851 -1 855 895 1057 -1 855 1057 905 -1 857 993 907 -1 861 883 955 -1 861 955 937 -1 867 973 877 -1 869 937 879 -1 873 911 875 -1 875 911 977 -1 877 973 891 -1 879 937 893 -1 883 899 955 -1 891 925 913 -1 891 973 925 -1 893 927 915 -1 893 937 927 -1 895 983 1057 -1 899 921 955 -1 905 1057 959 -1 907 993 961 -1 909 945 971 -1 909 971 977 -1 909 977 911 -1 921 933 955 -1 925 973 935 -1 933 941 955 -1 935 973 953 -1 941 975 995 -1 941 995 955 -1 943 969 971 -1 943 971 945 -1 947 963 1221 -1 947 1221 957 -1 949 953 991 -1 951 955 995 -1 953 973 991 -1 957 1221 981 -1 959 999 1001 -1 959 1001 973 -1 959 1057 1141 -1 959 1141 999 -1 961 993 1003 -1 961 1003 1005 -1 961 1005 1019 -1 961 1019 1021 -1 961 1021 975 -1 963 985 1221 -1 965 1508 1029 -1 967 987 989 -1 971 979 977 -1 971 1023 979 -1 973 1001 991 -1 975 1021 995 -1 979 1023 1033 -1 979 1033 1035 -1 979 1035 1065 -1 981 1221 1025 -1 985 1027 1221 -1 991 1001 1017 -1 993 1067 1003 -1 997 1069 1269 -1 997 1091 1013 -1 997 1175 1091 -1 997 1241 1175 -1 997 1269 1241 -1 999 1141 1075 -1 1001 1015 1017 -1 1003 1067 1079 -1 1009 1031 1011 -1 1011 1031 1155 -1 1023 1115 1117 -1 1023 1117 1033 -1 1023 1151 1115 -1 1025 1221 1097 -1 1027 1093 1221 -1 1029 1155 1031 -1 1029 1508 1155 -1 1033 1117 1135 -1 1035 1063 1065 -1 1037 1077 1039 -1 1039 1077 1071 -1 1041 1053 1043 -1 1041 1059 1083 -1 1041 1083 1103 -1 1041 1087 1053 -1 1041 1103 1119 -1 1041 1111 1087 -1 1041 1119 1127 -1 1041 1123 1111 -1 1041 1127 1123 -1 1045 1081 1047 -1 1047 1081 1073 -1 1049 1055 1051 -1 1049 1061 1085 -1 1049 1085 1105 -1 1049 1089 1055 -1 1049 1105 1121 -1 1049 1113 1089 -1 1049 1121 1129 -1 1049 1125 1113 -1 1049 1129 1125 -1 1067 1147 1079 -1 1069 1149 1269 -1 1071 1077 1107 -1 1073 1081 1109 -1 1075 1141 1177 -1 1075 1177 1179 -1 1075 1179 1077 -1 1077 1179 1107 -1 1079 1147 1183 -1 1079 1183 1185 -1 1079 1185 1187 -1 1079 1187 1081 -1 1081 1187 1109 -1 1093 1133 1235 -1 1093 1235 1221 -1 1095 1173 1522 -1 1097 1221 1131 -1 1099 1137 1101 -1 1101 1137 1337 -1 1101 1299 1301 -1 1101 1301 1371 -1 1101 1337 1299 -1 1101 1371 1389 -1 1101 1389 1431 -1 1101 1431 1139 -1 1107 1179 1143 -1 1109 1187 1145 -1 1115 1151 1153 -1 1117 1199 1135 -1 1131 1221 1161 -1 1133 1167 1235 -1 1135 1199 1209 -1 1135 1209 1261 -1 1135 1261 1137 -1 1137 1261 1337 -1 1139 1431 1451 -1 1139 1451 1489 -1 1139 1489 1141 -1 1141 1253 1177 -1 1141 1489 1253 -1 1143 1179 1211 -1 1143 1211 1157 -1 1145 1187 1215 -1 1145 1215 1159 -1 1147 1163 1181 -1 1147 1181 1183 -1 1149 1165 1189 -1 1149 1189 1191 -1 1149 1191 1269 -1 1155 1508 1169 -1 1157 1211 1163 -1 1159 1215 1165 -1 1161 1201 1193 -1 1161 1221 1201 -1 1163 1211 1213 -1 1163 1213 1181 -1 1165 1215 1217 -1 1165 1217 1189 -1 1167 1195 1235 -1 1169 1197 1171 -1 1169 1203 1205 -1 1169 1205 1239 -1 1169 1207 1197 -1 1169 1239 1207 -1 1169 1508 1203 -1 1173 1233 1522 -1 1183 1245 1185 -1 1185 1245 1257 -1 1191 1247 1269 -1 1195 1219 1235 -1 1197 1207 1209 -1 1197 1209 1199 -1 1203 1508 1263 -1 1205 1237 1239 -1 1219 1223 1235 -1 1223 1243 1235 -1 1225 1255 1227 -1 1227 1255 1311 -1 1229 1259 1231 -1 1231 1259 1313 -1 1233 1235 1273 -1 1233 1273 1522 -1 1235 1243 1319 -1 1235 1271 1273 -1 1235 1319 1321 -1 1235 1321 1271 -1 1241 1267 1243 -1 1241 1269 1267 -1 1243 1267 1275 -1 1243 1275 1423 -1 1243 1365 1319 -1 1243 1381 1365 -1 1243 1403 1381 -1 1243 1415 1403 -1 1243 1423 1415 -1 1245 1277 1279 -1 1245 1279 1257 -1 1245 1303 1277 -1 1247 1281 1283 -1 1247 1283 1269 -1 1247 1307 1281 -1 1249 1265 1251 -1 1251 1265 1341 -1 1253 1311 1255 -1 1253 1489 1311 -1 1257 1279 1313 -1 1257 1313 1259 -1 1263 1341 1265 -1 1263 1508 1341 -1 1269 1283 1295 -1 1271 1321 1285 -1 1273 1289 1522 -1 1275 1287 1335 -1 1275 1335 1357 -1 1275 1357 1377 -1 1275 1377 1401 -1 1275 1401 1413 -1 1275 1413 1423 -1 1277 1303 1305 -1 1279 1329 1313 -1 1279 1351 1510 -1 1279 1510 1329 -1 1281 1307 1309 -1 1283 1355 1295 -1 1285 1297 1291 -1 1285 1321 1367 -1 1285 1323 1297 -1 1285 1343 1323 -1 1285 1359 1343 -1 1285 1367 1375 -1 1285 1373 1359 -1 1285 1375 1393 -1 1285 1391 1373 -1 1285 1393 1399 -1 1285 1397 1391 -1 1285 1399 1405 -1 1285 1405 1397 -1 1287 1293 1317 -1 1287 1317 1335 -1 1289 1315 1522 -1 1295 1355 1363 -1 1299 1337 1339 -1 1311 1489 1325 -1 1315 1333 1522 -1 1325 1349 1327 -1 1325 1489 1349 -1 1329 1353 1331 -1 1329 1510 1353 -1 1333 1361 1522 -1 1341 1508 1345 -1 1345 1383 1385 -1 1345 1385 1347 -1 1345 1508 1383 -1 1347 1385 1407 -1 1347 1387 1369 -1 1347 1407 1409 -1 1347 1409 1387 -1 1349 1489 1510 -1 1349 1510 1351 -1 1353 1510 1355 -1 1355 1395 1363 -1 1355 1429 1395 -1 1355 1453 1429 -1 1355 1510 1453 -1 1361 1425 1522 -1 1369 1387 1389 -1 1369 1389 1371 -1 1379 1417 1411 -1 1383 1508 1433 -1 1411 1417 1437 -1 1411 1437 1427 -1 1419 1435 1421 -1 1421 1435 1465 -1 1425 1441 1459 -1 1425 1459 1522 -1 1427 1437 1457 -1 1427 1457 1439 -1 1429 1453 1455 -1 1429 1455 1443 -1 1431 1449 1451 -1 1431 1461 1449 -1 1433 1465 1435 -1 1433 1508 1465 -1 1437 1445 1457 -1 1439 1457 1441 -1 1441 1457 1459 -1 1443 1455 1477 -1 1443 1477 1447 -1 1445 1447 1495 -1 1445 1495 1457 -1 1447 1477 1495 -1 1449 1461 1463 -1 1457 1495 1467 -1 1459 1481 1522 -1 1465 1508 1473 -1 1467 1495 1501 -1 1467 1501 1516 -1 1467 1516 1471 -1 1469 1512 1483 -1 1471 1516 1479 -1 1473 1487 1475 -1 1473 1508 1487 -1 1479 1516 1485 -1 1481 1499 1522 -1 1483 1512 1493 -1 1485 1516 1491 -1 1487 1508 1489 -1 1489 1508 1510 -1 1491 1516 1497 -1 1493 1512 1505 -1 1497 1516 1503 -1 1499 1520 1522 -1 1503 1516 1518 -1 1505 1512 1514 -1 1507 1521 1508 -1 1508 1509 1510 -1 1508 1521 1509 -1 1509 1521 1511 -1 1511 1513 1512 -1 1511 1521 1513 -1 1512 1513 1514 -1 1513 1521 1515 -1 1515 1517 1518 -1 1515 1518 1516 -1 1515 1521 1517 -1 1517 1521 1519 -1 1519 1521 1522 -1 1519 1522 1520 -1 "
						                >
							<Coordinate USE="coords_ME_OpenSCAD_Model" />
						</IndexedFaceSet>
					</Shape>
				</Group>
			</Transform>
		</Transform>
	</Scene>
</X3D>