<?xml version="1.0" encoding="UTF-8"?>
<!DOCTYPE X3D PUBLIC "ISO//Web3D//DTD X3D 3.0//EN" "http://www.web3d.org/specifications/x3d-3.0.dtd">
<X3D version="3.0" profile="Immersive" xmlns:xsd="http://www.w3.org/2001/XMLSchema-instance" xsd:noNamespaceSchemaLocation="http://www.web3d.org/specifications/x3d-3.0.xsd">
	<head>
		<meta name="filename" content="C04-00151C.x3d" />
		<meta name="created" content="2026-02-22 11:12:24" />
		<meta name="generator" content="Blender 5.0.1" />
		<meta name="translator" content="Web3D X3D/VRML2 format v2.5.1" />
	</head>
	<Scene>
		<NavigationInfo headlight="true"
		                visibilityLimit="0.0"
		                type='"EXAMINE", "ANY"'
		                avatarSize="0.25, 1.75, 0.75"
		                />
		<Transform DEF="OpenSCAD_Model_TRANSFORM"
		           translation="0.000000 0.000000 0.000000"
		           scale="0.001000 0.001000 0.001000"
		           rotation="-1.000000 0.000000 0.000000 1.570796"
		           >
			<Transform DEF="OpenSCAD_Model_ifs_TRANSFORM"
			           translation="0.000000 0.000000 0.000000"
			           scale="1.000000 1.000000 1.000000"
			           rotation="0.000000 1.000000 0.000000 0.000000"
			           >
				<Group DEF="group_ME_OpenSCAD_Model">
					<Shape>
						<Appearance>
							<Material DEF="MA_Color_1"
							          diffuseColor="0.000 0.000 0.000"
							          specularColor="0.401 0.401 0.401"
							          emissiveColor="0.000 0.000 0.000"
							          ambientIntensity="0.000"
							          shininess="0.500"
							          transparency="1.000"
							          />
						</Appearance>
						<IndexedFaceSet solid="false"
						                coordIndex="0 1 3 -1 0 2 1518 -1 0 3 2 -1 0 1516 1517 -1 0 1517 1 -1 0 1518 1516 -1 1 58 60 -1 1 60 256 -1 1 70 72 -1 1 72 58 -1 1 126 130 -1 1 130 140 -1 1 134 126 -1 1 136 3 -1 1 140 194 -1 1 148 134 -1 1 150 136 -1 1 192 148 -1 1 194 150 -1 1 210 192 -1 1 256 210 -1 1 1517 70 -1 2 3 1518 -1 3 4 8 -1 3 6 4 -1 3 8 12 -1 3 10 6 -1 3 12 16 -1 3 16 20 -1 3 20 1519 -1 3 36 38 -1 3 38 10 -1 3 128 132 -1 3 132 36 -1 3 136 128 -1 3 1519 1518 -1 10 38 14 -1 14 38 18 -1 18 38 24 -1 20 22 1519 -1 22 26 1519 -1 24 38 40 -1 24 40 28 -1 26 30 1519 -1 28 40 42 -1 28 42 52 -1 28 52 1519 -1 28 1519 32 -1 30 34 1519 -1 32 1519 34 -1 36 132 54 -1 38 44 46 -1 38 46 40 -1 48 56 50 -1 50 56 64 -1 52 74 106 -1 52 106 1519 -1 54 64 56 -1 54 132 64 -1 58 72 62 -1 60 78 348 -1 60 294 256 -1 60 320 294 -1 60 348 456 -1 60 456 320 -1 62 72 82 -1 64 132 66 -1 66 94 96 -1 66 96 110 -1 66 132 142 -1 66 142 94 -1 68 84 76 -1 70 1517 98 -1 72 80 82 -1 76 84 102 -1 76 90 92 -1 76 92 78 -1 76 102 90 -1 78 92 348 -1 86 100 120 -1 86 120 88 -1 88 120 104 -1 92 114 348 -1 94 142 186 -1 94 186 220 -1 94 220 254 -1 94 254 288 -1 94 288 316 -1 94 316 390 -1 94 390 466 -1 94 466 514 -1 94 514 164 -1 96 108 110 -1 98 144 146 -1 98 146 188 -1 98 188 190 -1 98 190 100 -1 98 1517 144 -1 100 190 120 -1 104 120 112 -1 106 170 1519 -1 112 116 118 -1 112 118 114 -1 112 120 116 -1 114 118 348 -1 118 182 348 -1 122 166 334 -1 122 168 124 -1 122 334 352 -1 122 352 168 -1 138 204 180 -1 140 184 194 -1 144 1517 234 -1 152 160 278 -1 152 278 156 -1 154 162 284 -1 154 284 158 -1 156 278 172 -1 158 284 174 -1 160 176 278 -1 162 178 216 -1 162 216 240 -1 162 240 248 -1 162 248 266 -1 162 266 276 -1 162 276 284 -1 164 332 334 -1 164 334 166 -1 164 514 516 -1 164 516 332 -1 168 328 330 -1 168 330 170 -1 168 352 328 -1 170 330 1519 -1 172 278 196 -1 174 284 198 -1 176 200 278 -1 178 202 216 -1 180 204 250 -1 180 226 228 -1 180 228 182 -1 180 250 226 -1 182 228 346 -1 182 346 348 -1 184 218 194 -1 194 218 252 -1 194 252 286 -1 194 286 312 -1 194 312 212 -1 196 278 222 -1 198 284 300 -1 198 300 224 -1 200 214 278 -1 206 236 318 -1 206 318 208 -1 208 302 268 -1 208 306 302 -1 208 318 306 -1 212 312 258 -1 214 238 290 -1 214 290 278 -1 222 278 230 -1 224 300 232 -1 228 304 346 -1 230 278 242 -1 232 300 244 -1 234 376 236 -1 234 1517 376 -1 236 376 318 -1 238 246 290 -1 242 270 260 -1 242 278 270 -1 244 272 262 -1 244 300 272 -1 246 264 290 -1 258 312 296 -1 264 274 290 -1 272 300 280 -1 274 282 290 -1 280 300 292 -1 282 298 310 -1 282 310 290 -1 286 290 310 -1 286 310 312 -1 288 292 314 -1 288 314 316 -1 292 300 314 -1 294 320 322 -1 294 322 336 -1 294 336 338 -1 294 338 298 -1 296 312 324 -1 296 324 326 -1 296 326 342 -1 296 342 300 -1 298 338 310 -1 300 342 314 -1 302 306 308 -1 302 308 304 -1 304 308 346 -1 308 374 346 -1 312 388 324 -1 320 456 400 -1 324 388 464 -1 324 464 508 -1 324 508 566 -1 324 566 618 -1 324 618 694 -1 324 694 780 -1 324 780 404 -1 326 340 342 -1 330 478 1519 -1 332 516 492 -1 334 350 352 -1 344 398 372 -1 346 374 420 -1 348 370 456 -1 354 402 356 -1 356 402 394 -1 358 378 360 -1 358 382 408 -1 358 408 432 -1 358 412 378 -1 358 432 444 -1 358 440 412 -1 358 444 452 -1 358 448 440 -1 358 452 448 -1 362 406 364 -1 364 406 396 -1 366 380 368 -1 366 384 410 -1 366 410 434 -1 366 414 380 -1 366 434 446 -1 366 442 414 -1 366 446 454 -1 366 450 442 -1 366 454 450 -1 372 398 468 -1 372 468 374 -1 374 468 420 -1 376 1517 386 -1 386 524 458 -1 386 1517 524 -1 392 422 498 -1 392 498 416 -1 394 402 436 -1 396 406 438 -1 400 456 502 -1 400 502 504 -1 400 504 402 -1 402 504 436 -1 404 780 406 -1 406 462 438 -1 406 510 512 -1 406 512 462 -1 406 780 838 -1 406 838 510 -1 416 498 530 -1 416 530 522 -1 418 500 474 -1 420 468 476 -1 420 476 496 -1 420 496 498 -1 420 498 422 -1 424 494 426 -1 426 494 484 -1 428 470 430 -1 428 472 518 -1 428 518 540 -1 428 520 470 -1 428 540 558 -1 428 544 520 -1 428 558 562 -1 428 560 544 -1 428 562 560 -1 436 504 460 -1 456 490 976 -1 456 572 502 -1 456 650 572 -1 456 666 650 -1 456 784 666 -1 456 830 784 -1 456 880 830 -1 456 934 880 -1 456 976 934 -1 460 504 532 -1 460 532 480 -1 462 512 536 -1 462 536 482 -1 464 486 506 -1 464 506 508 -1 466 488 514 -1 476 528 546 -1 476 546 548 -1 476 548 496 -1 478 582 638 -1 478 638 1519 -1 480 532 486 -1 482 536 538 -1 482 538 488 -1 484 494 542 -1 486 532 534 -1 486 534 506 -1 488 538 514 -1 490 564 590 -1 490 590 592 -1 490 592 976 -1 492 516 568 -1 492 568 622 -1 492 622 698 -1 492 632 634 -1 492 634 494 -1 492 698 840 -1 492 840 878 -1 492 878 926 -1 492 926 970 -1 492 970 632 -1 494 634 542 -1 496 548 602 -1 496 602 584 -1 510 838 576 -1 524 1517 526 -1 526 600 588 -1 526 604 600 -1 526 614 604 -1 526 678 614 -1 526 1517 678 -1 528 570 546 -1 542 634 580 -1 550 574 552 -1 552 574 650 -1 554 578 556 -1 556 578 652 -1 564 586 612 -1 564 612 590 -1 566 616 618 -1 566 642 616 -1 568 620 622 -1 568 646 620 -1 572 650 574 -1 576 652 578 -1 576 838 652 -1 580 634 684 -1 580 684 598 -1 582 608 636 -1 582 636 638 -1 584 594 596 -1 584 596 586 -1 584 602 594 -1 586 596 612 -1 592 674 976 -1 594 602 606 -1 594 606 664 -1 594 664 658 -1 596 610 612 -1 598 684 608 -1 600 604 606 -1 600 606 602 -1 608 684 636 -1 616 642 644 -1 620 646 648 -1 624 660 626 -1 626 660 676 -1 628 654 630 -1 628 656 688 -1 628 688 654 -1 632 970 972 -1 632 972 792 -1 634 682 684 -1 638 798 1519 -1 640 686 662 -1 652 838 670 -1 656 690 710 -1 656 704 688 -1 656 710 704 -1 658 664 730 -1 658 730 660 -1 660 730 676 -1 662 686 742 -1 662 742 664 -1 664 742 730 -1 666 714 720 -1 666 720 668 -1 666 724 714 -1 666 750 724 -1 666 784 750 -1 668 720 692 -1 670 696 672 -1 670 716 722 -1 670 722 696 -1 670 726 716 -1 670 752 726 -1 670 786 752 -1 670 838 876 -1 670 876 924 -1 670 924 968 -1 670 968 1044 -1 670 1044 1124 -1 670 1124 1158 -1 670 1158 786 -1 674 706 974 -1 674 974 976 -1 678 1517 680 -1 680 816 738 -1 680 1517 816 -1 690 702 708 -1 690 708 712 -1 690 712 710 -1 692 720 746 -1 692 746 694 -1 694 746 780 -1 696 722 748 -1 696 748 698 -1 698 748 782 -1 698 782 840 -1 700 770 718 -1 706 728 974 -1 718 770 824 -1 718 824 732 -1 728 740 814 -1 728 814 974 -1 730 742 760 -1 730 760 788 -1 732 824 744 -1 734 794 846 -1 734 796 736 -1 734 846 860 -1 734 860 796 -1 740 754 812 -1 740 812 814 -1 744 812 754 -1 744 824 812 -1 756 766 992 -1 756 992 762 -1 758 768 912 -1 758 912 764 -1 760 808 788 -1 760 820 826 -1 760 826 828 -1 760 828 808 -1 762 992 772 -1 764 912 774 -1 766 776 992 -1 768 778 912 -1 770 790 824 -1 772 910 800 -1 772 992 910 -1 774 912 802 -1 776 804 914 -1 776 914 992 -1 778 806 912 -1 786 1158 832 -1 788 808 810 -1 788 810 790 -1 790 810 824 -1 792 904 794 -1 792 972 988 -1 792 988 904 -1 794 862 846 -1 794 904 862 -1 796 860 898 -1 796 898 798 -1 798 898 982 -1 798 982 1072 -1 798 1072 1519 -1 800 910 842 -1 802 912 844 -1 804 834 914 -1 806 836 912 -1 808 828 920 -1 808 920 884 -1 810 822 824 -1 814 870 974 -1 816 1517 818 -1 818 918 892 -1 818 940 942 -1 818 942 964 -1 818 944 918 -1 818 964 944 -1 818 1517 940 -1 820 864 826 -1 832 1158 1160 -1 832 1160 882 -1 834 856 914 -1 836 858 930 -1 836 930 912 -1 842 910 852 -1 844 912 854 -1 848 886 850 -1 850 886 952 -1 852 910 866 -1 854 912 868 -1 856 872 914 -1 858 874 930 -1 866 900 888 -1 866 910 900 -1 868 902 890 -1 868 912 902 -1 870 958 1034 -1 870 1034 974 -1 872 894 914 -1 874 896 930 -1 882 1160 936 -1 884 920 946 -1 884 946 952 -1 884 952 886 -1 894 906 914 -1 896 908 930 -1 908 916 930 -1 910 992 928 -1 914 948 992 -1 916 950 970 -1 916 970 930 -1 918 944 946 -1 918 946 920 -1 922 938 1198 -1 922 1198 932 -1 924 928 966 -1 924 966 968 -1 926 930 970 -1 928 992 966 -1 932 1198 956 -1 934 976 992 -1 934 992 948 -1 936 978 980 -1 936 980 995 -1 936 995 997 -1 936 997 950 -1 936 1160 978 -1 938 960 1198 -1 940 1517 1005 -1 942 962 964 -1 946 954 952 -1 946 999 954 -1 950 997 970 -1 954 999 1009 -1 954 1009 1011 -1 954 1011 1042 -1 956 1198 1001 -1 960 1003 1198 -1 966 992 993 -1 972 1046 1246 -1 972 1068 988 -1 972 1152 1068 -1 972 1218 1152 -1 972 1246 1218 -1 974 1034 1052 -1 976 990 992 -1 978 1160 1056 -1 984 1007 986 -1 986 1007 1132 -1 999 1092 1094 -1 999 1094 1009 -1 999 1128 1092 -1 1001 1198 1074 -1 1003 1070 1198 -1 1005 1132 1007 -1 1005 1517 1132 -1 1009 1094 1112 -1 1011 1040 1042 -1 1013 1054 1015 -1 1015 1048 1016 -1 1015 1054 1517 -1 1015 1154 1156 -1 1015 1156 1048 -1 1015 1517 1154 -1 1018 1030 1020 -1 1018 1036 1060 -1 1018 1060 1080 -1 1018 1064 1030 -1 1018 1080 1096 -1 1018 1088 1064 -1 1018 1096 1104 -1 1018 1100 1088 -1 1018 1104 1100 -1 1022 1058 1024 -1 1024 1058 1050 -1 1026 1032 1028 -1 1026 1038 1062 -1 1026 1062 1082 -1 1026 1066 1032 -1 1026 1082 1098 -1 1026 1090 1066 -1 1026 1098 1106 -1 1026 1102 1090 -1 1026 1106 1102 -1 1034 1118 1052 -1 1046 1126 1246 -1 1048 1156 1084 -1 1050 1058 1086 -1 1052 1118 1054 -1 1054 1118 1517 -1 1056 1160 1222 -1 1056 1162 1164 -1 1056 1164 1058 -1 1056 1222 1256 -1 1056 1256 1162 -1 1058 1164 1086 -1 1070 1110 1212 -1 1070 1212 1198 -1 1072 1150 1519 -1 1074 1198 1108 -1 1076 1114 1078 -1 1078 1114 1348 -1 1078 1348 1366 -1 1078 1366 1408 -1 1078 1408 1428 -1 1078 1428 1116 -1 1084 1156 1120 -1 1086 1164 1122 -1 1092 1128 1130 -1 1094 1176 1112 -1 1108 1198 1138 -1 1110 1144 1212 -1 1112 1176 1186 -1 1112 1186 1238 -1 1112 1238 1114 -1 1114 1238 1278 -1 1114 1278 1348 -1 1116 1428 1118 -1 1118 1428 1466 -1 1118 1466 1517 -1 1120 1156 1188 -1 1120 1188 1134 -1 1122 1164 1192 -1 1122 1192 1136 -1 1124 1140 1158 -1 1126 1142 1166 -1 1126 1166 1168 -1 1126 1168 1246 -1 1132 1517 1146 -1 1134 1188 1190 -1 1134 1190 1140 -1 1136 1192 1142 -1 1138 1178 1170 -1 1138 1198 1178 -1 1140 1190 1158 -1 1142 1192 1194 -1 1142 1194 1166 -1 1144 1172 1212 -1 1146 1174 1148 -1 1146 1180 1182 -1 1146 1182 1216 -1 1146 1184 1174 -1 1146 1216 1184 -1 1146 1517 1180 -1 1150 1210 1519 -1 1154 1517 1230 -1 1162 1256 1234 -1 1168 1224 1246 -1 1172 1196 1212 -1 1174 1184 1186 -1 1174 1186 1176 -1 1180 1517 1240 -1 1182 1214 1216 -1 1196 1200 1212 -1 1200 1220 1212 -1 1202 1232 1204 -1 1204 1232 1288 -1 1206 1236 1208 -1 1208 1236 1290 -1 1210 1212 1250 -1 1210 1250 1519 -1 1212 1220 1296 -1 1212 1248 1250 -1 1212 1296 1298 -1 1212 1298 1248 -1 1218 1244 1220 -1 1218 1246 1244 -1 1220 1244 1252 -1 1220 1252 1400 -1 1220 1342 1296 -1 1220 1358 1342 -1 1220 1380 1358 -1 1220 1392 1380 -1 1220 1400 1392 -1 1222 1254 1256 -1 1222 1280 1254 -1 1224 1258 1260 -1 1224 1260 1246 -1 1224 1284 1258 -1 1226 1242 1228 -1 1228 1242 1318 -1 1230 1288 1232 -1 1230 1517 1288 -1 1234 1256 1290 -1 1234 1290 1236 -1 1238 1276 1278 -1 1238 1314 1276 -1 1240 1318 1242 -1 1240 1517 1318 -1 1246 1260 1272 -1 1248 1298 1262 -1 1250 1266 1519 -1 1252 1264 1312 -1 1252 1312 1334 -1 1252 1334 1354 -1 1252 1354 1378 -1 1252 1378 1390 -1 1252 1390 1400 -1 1254 1280 1282 -1 1256 1328 1290 -1 1258 1284 1286 -1 1260 1332 1272 -1 1262 1274 1268 -1 1262 1298 1344 -1 1262 1300 1274 -1 1262 1320 1300 -1 1262 1336 1320 -1 1262 1344 1352 -1 1262 1350 1336 -1 1262 1352 1370 -1 1262 1368 1350 -1 1262 1370 1376 -1 1262 1374 1368 -1 1262 1376 1382 -1 1262 1382 1374 -1 1264 1270 1294 -1 1264 1294 1312 -1 1266 1292 1519 -1 1272 1332 1340 -1 1276 1314 1316 -1 1288 1517 1302 -1 1290 1328 1306 -1 1292 1310 1519 -1 1302 1326 1304 -1 1302 1517 1326 -1 1306 1328 1517 -1 1306 1330 1308 -1 1306 1517 1330 -1 1310 1338 1519 -1 1318 1517 1322 -1 1322 1346 1324 -1 1322 1360 1362 -1 1322 1362 1386 -1 1322 1364 1346 -1 1322 1386 1364 -1 1322 1517 1360 -1 1326 1517 1328 -1 1330 1517 1332 -1 1332 1372 1340 -1 1332 1406 1372 -1 1332 1430 1406 -1 1332 1512 1430 -1 1332 1517 1519 -1 1332 1519 1512 -1 1338 1402 1436 -1 1338 1436 1458 -1 1338 1458 1519 -1 1346 1364 1366 -1 1346 1366 1348 -1 1356 1394 1388 -1 1360 1517 1410 -1 1362 1384 1386 -1 1388 1394 1414 -1 1388 1414 1404 -1 1396 1412 1398 -1 1398 1412 1442 -1 1402 1418 1436 -1 1404 1414 1478 -1 1404 1478 1416 -1 1406 1430 1432 -1 1406 1432 1420 -1 1408 1426 1428 -1 1408 1438 1426 -1 1410 1442 1412 -1 1410 1517 1442 -1 1414 1422 1478 -1 1416 1434 1418 -1 1416 1444 1434 -1 1416 1478 1484 -1 1416 1484 1490 -1 1416 1490 1494 -1 1416 1494 1444 -1 1418 1434 1436 -1 1420 1432 1454 -1 1420 1454 1424 -1 1422 1424 1472 -1 1422 1472 1478 -1 1424 1454 1472 -1 1426 1438 1440 -1 1442 1517 1450 -1 1444 1456 1448 -1 1444 1462 1456 -1 1444 1468 1462 -1 1444 1474 1468 -1 1444 1480 1474 -1 1444 1488 1480 -1 1444 1492 1488 -1 1444 1494 1496 -1 1444 1496 1492 -1 1446 1514 1460 -1 1450 1464 1452 -1 1450 1517 1464 -1 1458 1476 1519 -1 1460 1514 1470 -1 1464 1517 1466 -1 1470 1514 1482 -1 1476 1486 1519 -1 1482 1514 1519 -1 1482 1519 1498 -1 1486 1500 1519 -1 1498 1519 1502 -1 1500 1506 1519 -1 1502 1519 1504 -1 1504 1519 1508 -1 1506 1510 1519 -1 1508 1519 1510 -1 1512 1519 1514 -1 1516 1518 1517 -1 1517 1518 1519 -1 "
						                >
							<Coordinate DEF="coords_ME_OpenSCAD_Model"
							            point="0.000000 0.000000 0.000000 0.000000 0.000000 1.000000 0.000000 1.250000 0.000000 0.000000 1.250000 1.000000 0.382395 1.127579 1.000000 0.382395 1.127579 1.200000 0.387657 1.099654 1.000000 0.387657 1.099654 1.200000 0.387734 1.156260 1.000000 0.387734 1.156260 1.200000 0.403446 1.075694 1.000000 0.403446 1.075694 1.200000 0.403752 1.180058 1.000000 0.403752 1.180058 1.200000 0.427174 1.059217 1.000000 0.427174 1.059217 1.200000 0.427557 1.196083 1.000000 0.427557 1.196083 1.200000 0.456240 1.053725 1.000000 0.456240 1.053725 1.200000 0.456240 1.201424 1.000000 0.456240 1.201424 1.200000 0.484920 1.196083 1.000000 0.484920 1.196083 1.200000 0.485303 1.059217 1.000000 0.485303 1.059217 1.200000 0.508719 1.180058 1.000000 0.508719 1.180058 1.200000 0.509024 1.075694 1.000000 0.509024 1.075694 1.200000 0.524743 1.156260 1.000000 0.524743 1.156260 1.200000 0.524820 1.099654 1.000000 0.524820 1.099654 1.200000 0.530085 1.127579 1.000000 0.530085 1.127579 1.200000 0.644005 0.892857 1.000000 0.644005 0.892857 1.200000 0.644005 0.898633 1.000000 0.644005 0.898633 1.200000 0.644005 1.033229 1.000000 0.644005 1.033229 1.200000 0.644005 1.039005 1.000000 0.644005 1.039005 1.200000 0.662751 0.901575 1.000000 0.662751 0.901575 1.200000 0.662751 1.030394 1.000000 0.662751 1.030394 1.200000 0.674194 0.901575 1.000000 0.674194 0.901575 1.200000 0.674194 1.018516 1.000000 0.674194 1.018516 1.200000 0.688253 1.039005 1.000000 0.688253 1.039005 1.200000 0.693811 0.892857 1.000000 0.693811 0.892857 1.200000 0.693811 0.898633 1.000000 0.693811 0.898633 1.200000 0.710462 0.256556 1.000000 0.710462 0.256556 1.200000 0.710462 0.259765 1.000000 0.710462 0.259765 1.200000 0.719604 0.254981 1.000000 0.719604 0.254981 1.200000 0.727705 0.892857 1.000000 0.727705 0.892857 1.200000 0.731519 0.892857 1.000000 0.731519 0.892857 1.200000 0.733893 0.254981 1.000000 0.733893 0.254981 1.200000 0.735225 0.178571 1.000000 0.735225 0.178571 1.200000 0.735225 0.181780 1.000000 0.735225 0.181780 1.200000 0.735770 0.927841 1.000000 0.735770 0.927841 1.200000 0.744791 0.256556 1.000000 0.744791 0.256556 1.200000 0.744791 0.259765 1.000000 0.744791 0.259765 1.200000 0.748121 0.183415 1.000000 0.748121 0.183415 1.200000 0.748121 0.210176 1.000000 0.748121 0.210176 1.200000 0.757204 0.217502 1.000000 0.757204 0.217502 1.200000 0.759807 0.183415 1.000000 0.759807 0.183415 1.200000 0.759807 0.210540 1.000000 0.759807 0.210540 1.200000 0.769071 0.256556 1.000000 0.769071 0.256556 1.200000 0.769071 0.259765 1.000000 0.769071 0.259765 1.200000 0.770210 0.892857 1.000000 0.770210 0.892857 1.200000 0.770210 0.898633 1.000000 0.770210 0.898633 1.200000 0.772704 0.178571 1.000000 0.772704 0.178571 1.200000 0.772704 0.181780 1.000000 0.772704 0.181780 1.200000 0.779363 0.254981 1.000000 0.779363 0.254981 1.200000 0.786569 0.254981 1.000000 0.786569 0.254981 1.200000 0.787647 1.039005 1.000000 0.787647 1.039005 1.200000 0.789826 0.901575 1.000000 0.789826 0.901575 1.200000 0.789826 1.018516 1.000000 0.789826 1.018516 1.200000 0.795469 0.256556 1.000000 0.795469 0.256556 1.200000 0.795469 0.259765 1.000000 0.795469 0.259765 1.200000 0.800016 0.256556 1.000000 0.800016 0.256556 1.200000 0.800016 0.259765 1.000000 0.800016 0.259765 1.200000 0.809158 0.254981 1.000000 0.809158 0.254981 1.200000 0.810751 0.901575 1.000000 0.810751 0.901575 1.200000 0.810751 1.030394 1.000000 0.810751 1.030394 1.200000 0.813851 0.575372 1.000000 0.813851 0.575372 1.200000 0.813851 0.753943 1.000000 0.813851 0.753943 1.200000 0.816500 0.593771 1.000000 0.816500 0.593771 1.200000 0.816500 0.772342 1.000000 0.816500 0.772342 1.200000 0.816606 0.558154 1.000000 0.816606 0.558154 1.200000 0.816606 0.736725 1.000000 0.816606 0.736725 1.200000 0.823447 0.254981 1.000000 0.823447 0.254981 1.200000 0.824447 0.607068 1.000000 0.824447 0.607068 1.200000 0.824447 0.785640 1.000000 0.824447 0.785640 1.200000 0.824779 0.178571 1.000000 0.824779 0.178571 1.200000 0.824779 0.181780 1.000000 0.824779 0.181780 1.200000 0.824871 0.545250 1.000000 0.824871 0.545250 1.200000 0.824871 0.723821 1.000000 0.824871 0.723821 1.200000 0.826506 0.575493 1.000000 0.826506 0.575493 1.200000 0.826506 0.754065 1.000000 0.826506 0.754065 1.200000 0.828292 0.592174 1.000000 0.828292 0.592174 1.200000 0.828292 0.770745 1.000000 0.828292 0.770745 1.200000 0.828375 0.559902 1.000000 0.828375 0.559902 1.200000 0.828375 0.738474 1.000000 0.828375 0.738474 1.200000 0.829497 0.892857 1.000000 0.829497 0.892857 1.200000 0.829497 0.898633 1.000000 0.829497 0.898633 1.200000 0.829497 1.033229 1.000000 0.829497 1.033229 1.200000 0.829497 1.039005 1.000000 0.829497 1.039005 1.200000 0.833650 0.603829 1.000000 0.833650 0.603829 1.200000 0.833650 0.782400 1.000000 0.833650 0.782400 1.200000 0.833983 0.548489 1.000000 0.833983 0.548489 1.200000 0.833983 0.727060 1.000000 0.833983 0.727060 1.200000 0.834346 0.256556 1.000000 0.834346 0.256556 1.200000 0.834346 0.259765 1.000000 0.834346 0.259765 1.200000 0.837601 0.615129 1.000000 0.837601 0.615129 1.200000 0.837601 0.793700 1.000000 0.837601 0.793700 1.200000 0.837676 0.183415 1.000000 0.837676 0.183415 1.200000 0.837676 0.210176 1.000000 0.837676 0.210176 1.200000 0.838070 0.537190 1.000000 0.838070 0.537190 1.200000 0.838070 0.715761 1.000000 0.838070 0.715761 1.200000 0.842899 0.610686 1.000000 0.842899 0.610686 1.200000 0.842899 0.789258 1.000000 0.842899 0.789258 1.200000 0.843164 0.541496 1.000000 0.843164 0.541496 1.200000 0.843164 0.720067 1.000000 0.843164 0.720067 1.200000 0.846758 0.217502 1.000000 0.846758 0.217502 1.200000 0.849362 0.183415 1.000000 0.849362 0.183415 1.200000 0.849362 0.210540 1.000000 0.849362 0.210540 1.200000 0.855629 0.534503 1.000000 0.855629 0.534503 1.200000 0.855629 0.713075 1.000000 0.855629 0.713075 1.200000 0.855750 0.539165 1.000000 0.855750 0.539165 1.200000 0.855750 0.717736 1.000000 0.855750 0.717736 1.200000 0.855871 0.617816 1.000000 0.855871 0.617816 1.200000 0.855871 0.796387 1.000000 0.855871 0.796387 1.200000 0.856356 0.612972 1.000000 0.856356 0.612972 1.200000 0.856356 0.791543 1.000000 0.856356 0.791543 1.200000 0.858625 0.256556 1.000000 0.858625 0.256556 1.200000 0.858625 0.259765 1.000000 0.858625 0.259765 1.200000 0.862115 0.612616 1.000000 0.862115 0.612616 1.200000 0.862115 0.791187 1.000000 0.862115 0.791187 1.200000 0.862258 0.178571 1.000000 0.862258 0.178571 1.200000 0.862258 0.181780 1.000000 0.862258 0.181780 1.200000 0.862456 0.539581 1.000000 0.862456 0.539581 1.200000 0.862456 0.718152 1.000000 0.862456 0.718152 1.200000 0.867768 0.611549 1.000000 0.867768 0.611549 1.200000 0.867768 0.790120 1.000000 0.867768 0.790120 1.200000 0.868767 0.540830 1.000000 0.868767 0.540830 1.200000 0.868767 0.719401 1.000000 0.868767 0.719401 1.200000 0.868918 0.254981 1.000000 0.868918 0.254981 1.200000 0.868995 0.617044 1.000000 0.868995 0.617044 1.200000 0.868995 0.795615 1.000000 0.868995 0.795615 1.200000 0.870448 0.535457 1.000000 0.870448 0.535457 1.200000 0.870448 0.714028 1.000000 0.870448 0.714028 1.200000 0.873029 0.609831 1.000000 0.873029 0.609831 1.200000 0.873029 0.788402 1.000000 0.873029 0.788402 1.200000 0.874247 0.542775 1.000000 0.874247 0.542775 1.200000 0.874247 0.721346 1.000000 0.874247 0.721346 1.200000 0.876123 0.254981 1.000000 0.876123 0.254981 1.200000 0.877608 0.607523 1.000000 0.877608 0.607523 1.200000 0.877608 0.786094 1.000000 0.877608 0.786094 1.200000 0.878455 0.545280 1.000000 0.878455 0.545280 1.200000 0.878455 0.723851 1.000000 0.878455 0.723851 1.200000 0.879424 0.596987 1.000000 0.879424 0.596987 1.200000 0.879424 0.775558 1.000000 0.879424 0.775558 1.200000 0.880695 0.557390 1.000000 0.880695 0.557390 1.200000 0.880695 0.735961 1.000000 0.880695 0.735961 1.200000 0.883057 0.614727 1.000000 0.883057 0.614727 1.200000 0.883057 0.793299 1.000000 0.883057 0.793299 1.200000 0.883420 0.596987 1.000000 0.883420 0.596987 1.200000 0.883420 0.775558 1.000000 0.883420 0.775558 1.200000 0.884267 0.538317 1.000000 0.884267 0.538317 1.200000 0.884267 0.716889 1.000000 0.884267 0.716889 1.200000 0.884631 0.557390 1.000000 0.884631 0.557390 1.200000 0.884631 0.735961 1.000000 0.884631 0.735961 1.200000 0.885023 0.256556 1.000000 0.885023 0.256556 1.200000 0.885023 0.259765 1.000000 0.885023 0.259765 1.200000 0.888299 0.256556 1.000000 0.888299 0.256556 1.200000 0.888299 0.259765 1.000000 0.888299 0.259765 1.200000 0.895050 0.613699 1.000000 0.895050 0.613699 1.200000 0.895050 0.616908 1.000000 0.895050 0.616908 1.200000 0.895050 0.792270 1.000000 0.895050 0.792270 1.200000 0.895050 0.795479 1.000000 0.895050 0.795479 1.200000 0.895383 0.254981 1.000000 0.895383 0.254981 1.200000 0.895838 0.535714 1.000000 0.895838 0.535714 1.200000 0.895838 0.538923 1.000000 0.895838 0.538923 1.200000 0.895838 0.714285 1.000000 0.895838 0.714285 1.200000 0.895838 0.717494 1.000000 0.895838 0.717494 1.200000 0.898283 1.033229 1.000000 0.898283 1.033229 1.200000 0.898283 1.039005 1.000000 0.898283 1.039005 1.200000 0.899700 0.892857 1.000000 0.899700 0.892857 1.200000 0.899700 0.898633 1.000000 0.899700 0.898633 1.200000 0.905465 0.540558 1.000000 0.905465 0.540558 1.200000 0.905465 0.612124 1.000000 0.905465 0.612124 1.200000 0.905465 0.719129 1.000000 0.905465 0.719129 1.200000 0.905465 0.790695 1.000000 0.905465 0.790695 1.200000 0.907371 0.254981 1.000000 0.907371 0.254981 1.200000 0.909945 0.357142 1.000000 0.909945 0.357142 1.200000 0.909945 0.360351 1.000000 0.909945 0.360351 1.200000 0.917029 0.901575 1.000000 0.917029 0.901575 1.200000 0.917029 1.030394 1.000000 0.917029 1.030394 1.200000 0.917150 0.540558 1.000000 0.917150 0.540558 1.200000 0.917150 0.567561 1.000000 0.917150 0.567561 1.200000 0.917150 0.573011 1.000000 0.917150 0.573011 1.200000 0.917150 0.611458 1.000000 0.917150 0.611458 1.200000 0.917150 0.719129 1.000000 0.917150 0.719129 1.200000 0.917150 0.746133 1.000000 0.917150 0.746133 1.200000 0.917150 0.751583 1.000000 0.917150 0.751583 1.200000 0.917150 0.790029 1.000000 0.917150 0.790029 1.200000 0.919149 0.361986 1.000000 0.919149 0.361986 1.200000 0.919299 0.256556 1.000000 0.919299 0.256556 1.200000 0.919299 0.259765 1.000000 0.919299 0.259765 1.200000 0.922265 0.176694 1.000000 0.922265 0.176694 1.200000 0.923083 0.611458 1.000000 0.923083 0.611458 1.200000 0.923083 0.790029 1.000000 0.923083 0.790029 1.200000 0.923447 0.573011 1.000000 0.923447 0.573011 1.200000 0.923447 0.751583 1.000000 0.923447 0.751583 1.200000 0.925475 0.176694 1.000000 0.925475 0.176694 1.200000 0.925687 0.616908 1.000000 0.925687 0.616908 1.200000 0.925687 0.795479 1.000000 0.925687 0.795479 1.200000 0.925748 0.361986 1.000000 0.925748 0.361986 1.200000 0.926292 0.567561 1.000000 0.926292 0.567561 1.200000 0.926292 0.746133 1.000000 0.926292 0.746133 1.200000 0.926686 0.197765 1.000000 0.926686 0.197765 1.200000 0.930047 0.535714 1.000000 0.930047 0.535714 1.200000 0.930047 0.538923 1.000000 0.930047 0.538923 1.200000 0.930047 0.714285 1.000000 0.930047 0.714285 1.200000 0.930047 0.717494 1.000000 0.930047 0.717494 1.200000 0.932339 0.574177 1.000000 0.932339 0.574177 1.200000 0.932339 0.752748 1.000000 0.932339 0.752748 1.200000 0.932514 0.610383 1.000000 0.932514 0.610383 1.200000 0.932514 0.788954 1.000000 0.932514 0.788954 1.200000 0.933922 0.385417 1.000000 0.933922 0.385417 1.200000 0.935738 0.390867 1.000000 0.935738 0.390867 1.200000 0.936647 0.357142 1.000000 0.936647 0.357142 1.200000 0.936647 0.360351 1.000000 0.936647 0.360351 1.200000 0.938063 0.901575 1.000000 0.938063 0.901575 1.200000 0.938063 0.950182 1.000000 0.938063 0.950182 1.200000 0.938063 0.959992 1.000000 0.938063 0.959992 1.200000 0.938063 1.029195 1.000000 0.938063 1.029195 1.200000 0.938553 0.577673 1.000000 0.938553 0.577673 1.200000 0.938553 0.756244 1.000000 0.938553 0.756244 1.200000 0.938758 0.569181 1.000000 0.938758 0.569181 1.200000 0.938758 0.747752 1.000000 0.938758 0.747752 1.200000 0.938765 0.607158 1.000000 0.938765 0.607158 1.200000 0.938765 0.785730 1.000000 0.938765 0.785730 1.200000 0.942209 0.583803 1.000000 0.942209 0.583803 1.200000 0.942209 0.762375 1.000000 0.942209 0.762375 1.200000 0.942262 0.601437 1.000000 0.942262 0.601437 1.200000 0.942262 0.780009 1.000000 0.942262 0.780009 1.200000 0.943427 0.592870 1.000000 0.943427 0.592870 1.200000 0.943427 0.771441 1.000000 0.943427 0.771441 1.200000 0.946818 0.439002 1.000000 0.946818 0.439002 1.200000 0.947090 0.232640 1.000000 0.947090 0.232640 1.200000 0.947938 0.574040 1.000000 0.947938 0.574040 1.200000 0.947938 0.752611 1.000000 0.947938 0.752611 1.200000 0.948029 0.610929 1.000000 0.948029 0.610929 1.200000 0.948029 0.789500 1.000000 0.948029 0.789500 1.200000 0.948543 0.254073 1.000000 0.948543 0.254073 1.200000 0.948742 1.029195 1.000000 0.948742 1.029195 1.200000 0.949396 0.959992 1.000000 0.949396 0.959992 1.200000 0.949664 0.430283 1.000000 0.949664 0.430283 1.200000 0.951268 0.254073 1.000000 0.951268 0.254073 1.200000 0.953429 1.039005 1.000000 0.953429 1.039005 1.200000 0.953592 0.582017 1.000000 0.953592 0.582017 1.200000 0.953592 0.760588 1.000000 0.953592 0.760588 1.200000 0.954518 0.950182 1.000000 0.954518 0.950182 1.200000 0.955476 0.592991 1.000000 0.955476 0.592991 1.200000 0.955476 0.771563 1.000000 0.955476 0.771563 1.200000 0.958322 0.439002 1.000000 0.958322 0.439002 1.200000 0.961276 0.892857 1.000000 0.961276 0.892857 1.200000 0.961276 0.898633 1.000000 0.961276 0.898633 1.200000 0.963045 0.357142 1.000000 0.963045 0.357142 1.200000 0.963045 0.360351 1.000000 0.963045 0.360351 1.200000 0.964014 0.390867 1.000000 0.964014 0.390867 1.200000 0.964017 0.535714 1.000000 0.964017 0.535714 1.200000 0.964017 0.538923 1.000000 0.964017 0.538923 1.200000 0.964017 0.613699 1.000000 0.964017 0.613699 1.200000 0.964017 0.616908 1.000000 0.964017 0.616908 1.200000 0.964017 0.714285 1.000000 0.964017 0.714285 1.200000 0.964017 0.717494 1.000000 0.964017 0.717494 1.200000 0.964017 0.792270 1.000000 0.964017 0.792270 1.200000 0.964017 0.795479 1.000000 0.964017 0.795479 1.200000 0.965403 0.962090 1.000000 0.965403 0.962090 1.200000 0.965717 1.027261 1.000000 0.965717 1.027261 1.200000 0.965891 0.385417 1.000000 0.965891 0.385417 1.200000 0.968160 0.176694 1.000000 0.968160 0.176694 1.200000 0.971369 0.176694 1.000000 0.971369 0.176694 1.200000 0.972337 0.197765 1.000000 0.972337 0.197765 1.200000 0.973943 0.361986 1.000000 0.973943 0.361986 1.200000 0.974432 0.540558 1.000000 0.974432 0.540558 1.200000 0.974432 0.612124 1.000000 0.974432 0.612124 1.200000 0.974432 0.719129 1.000000 0.974432 0.719129 1.200000 0.974432 0.790695 1.000000 0.974432 0.790695 1.200000 0.976588 0.968383 1.000000 0.976588 0.968383 1.200000 0.976956 0.953097 1.000000 0.976956 0.953097 1.200000 0.976969 1.021457 1.000000 0.976969 1.021457 1.200000 0.978090 0.256556 1.000000 0.978090 0.256556 1.200000 0.978090 0.259765 1.000000 0.978090 0.259765 1.200000 0.980789 0.540558 1.000000 0.980789 0.540558 1.200000 0.980789 0.608733 1.000000 0.980789 0.608733 1.200000 0.980789 0.719129 1.000000 0.980789 0.719129 1.200000 0.980789 0.787305 1.000000 0.980789 0.787305 1.200000 0.983168 0.979418 1.000000 0.983168 0.979418 1.200000 0.983263 1.011159 1.000000 0.983263 1.011159 1.200000 0.985361 0.995738 1.000000 0.985361 0.995738 1.200000 0.987082 0.361986 1.000000 0.987082 0.361986 1.200000 0.988600 0.616908 1.000000 0.988600 0.616908 1.200000 0.988600 0.795479 1.000000 0.988600 0.795479 1.200000 0.990744 0.254981 1.000000 0.990744 0.254981 1.200000 0.991687 0.535714 1.000000 0.991687 0.535714 1.200000 0.991687 0.538923 1.000000 0.991687 0.538923 1.200000 0.991687 0.714285 1.000000 0.991687 0.714285 1.200000 0.991687 0.717494 1.000000 0.991687 0.717494 1.200000 0.993480 0.961843 1.000000 0.993480 0.961843 1.200000 0.993644 1.028243 1.000000 0.993644 1.028243 1.200000 0.997375 0.357142 1.000000 0.997375 0.357142 1.200000 0.997375 0.360351 1.000000 0.997375 0.360351 1.200000 0.997888 0.254981 1.000000 0.997888 0.254981 1.200000 1.001861 0.435127 1.000000 1.001861 0.435127 1.200000 1.001861 0.438336 1.000000 1.001861 0.438336 1.200000 1.002649 0.357142 1.000000 1.002649 0.357142 1.200000 1.002649 0.360351 1.000000 1.002649 0.360351 1.200000 1.003657 0.976202 1.000000 1.003657 0.976202 1.200000 1.004972 0.256556 1.000000 1.004972 0.256556 1.200000 1.004972 0.259765 1.000000 1.004972 0.259765 1.200000 1.005344 0.256556 1.000000 1.005344 0.256556 1.200000 1.005344 0.259765 1.000000 1.005344 0.259765 1.200000 1.007049 0.995956 1.000000 1.007049 0.995956 1.200000 1.012275 0.361986 1.000000 1.012275 0.361986 1.200000 1.012275 0.433552 1.000000 1.012275 0.433552 1.200000 1.012428 0.254981 1.000000 1.012428 0.254981 1.200000 1.019478 0.613699 1.000000 1.019478 0.613699 1.200000 1.019478 0.616908 1.000000 1.019478 0.616908 1.200000 1.019478 0.792270 1.000000 1.019478 0.792270 1.200000 1.019478 0.795479 1.000000 1.019478 0.795479 1.200000 1.023961 0.361986 1.000000 1.023961 0.361986 1.200000 1.023961 0.392744 1.000000 1.023961 0.392744 1.200000 1.023961 0.398193 1.000000 1.023961 0.398193 1.200000 1.023961 0.432886 1.000000 1.023961 0.432886 1.200000 1.024058 0.892857 1.000000 1.024058 0.892857 1.200000 1.024058 0.898633 1.000000 1.024058 0.898633 1.200000 1.024058 1.033229 1.000000 1.024058 1.033229 1.200000 1.024058 1.039005 1.000000 1.024058 1.039005 1.200000 1.024416 0.254981 1.000000 1.024416 0.254981 1.200000 1.030376 0.556784 1.000000 1.030376 0.556784 1.200000 1.030376 0.612124 1.000000 1.030376 0.612124 1.200000 1.030376 0.735356 1.000000 1.030376 0.735356 1.200000 1.030376 0.790695 1.000000 1.030376 0.790695 1.200000 1.030861 0.535714 1.000000 1.030861 0.535714 1.200000 1.030861 0.714285 1.000000 1.030861 0.714285 1.200000 1.034314 0.432886 1.000000 1.034314 0.432886 1.200000 1.034677 0.398193 1.000000 1.034677 0.398193 1.200000 1.036251 0.357142 1.000000 1.036251 0.357142 1.200000 1.036251 0.360351 1.000000 1.036251 0.360351 1.200000 1.036344 0.256556 1.000000 1.036344 0.256556 1.200000 1.036344 0.259765 1.000000 1.036344 0.259765 1.200000 1.036734 0.535714 1.000000 1.036734 0.535714 1.200000 1.036734 0.612124 1.000000 1.036734 0.612124 1.200000 1.036734 0.714285 1.000000 1.036734 0.714285 1.200000 1.036734 0.790695 1.000000 1.036734 0.790695 1.200000 1.036917 0.438336 1.000000 1.036917 0.438336 1.200000 1.038552 0.392744 1.000000 1.038552 0.392744 1.200000 1.039310 0.176694 1.000000 1.039310 0.176694 1.200000 1.042520 0.176694 1.000000 1.042520 0.176694 1.200000 1.042804 0.901575 1.000000 1.042804 0.901575 1.200000 1.042804 1.030394 1.000000 1.042804 1.030394 1.200000 1.043730 0.197765 1.000000 1.043730 0.197765 1.200000 1.043933 0.431910 1.000000 1.043933 0.431910 1.200000 1.043949 0.399200 1.000000 1.043949 0.399200 1.200000 1.047149 0.613699 1.000000 1.047149 0.613699 1.200000 1.047149 0.616908 1.000000 1.047149 0.616908 1.200000 1.047149 0.792270 1.000000 1.047149 0.792270 1.200000 1.047149 0.795479 1.000000 1.047149 0.795479 1.200000 1.050057 0.394440 1.000000 1.050057 0.394440 1.200000 1.050086 0.402219 1.000000 1.050086 0.402219 1.200000 1.050147 0.428981 1.000000 1.050147 0.428981 1.200000 1.050177 0.437049 1.000000 1.050177 0.437049 1.200000 1.053515 0.407631 1.000000 1.053515 0.407631 1.200000 1.053530 0.423736 1.000000 1.053530 0.423736 1.200000 1.054658 0.415812 1.000000 1.054658 0.415812 1.200000 1.055085 0.575372 1.000000 1.055085 0.575372 1.200000 1.055085 0.753943 1.000000 1.055085 0.753943 1.200000 1.057020 0.397641 1.000000 1.057020 0.397641 1.200000 1.057734 0.593771 1.000000 1.057734 0.593771 1.200000 1.057734 0.772342 1.000000 1.057734 0.772342 1.200000 1.057840 0.558154 1.000000 1.057840 0.558154 1.200000 1.057840 0.736725 1.000000 1.057840 0.736725 1.200000 1.059441 0.433189 1.000000 1.059441 0.433189 1.200000 1.061379 0.357142 1.000000 1.061379 0.357142 1.200000 1.062287 0.402643 1.000000 1.062287 0.402643 1.200000 1.063729 0.901575 1.000000 1.063729 0.901575 1.200000 1.063729 1.030394 1.000000 1.063729 1.030394 1.200000 1.064135 0.232640 1.000000 1.064135 0.232640 1.200000 1.064890 0.426483 1.000000 1.064890 0.426483 1.200000 1.065588 0.254073 1.000000 1.065588 0.254073 1.200000 1.065602 0.409099 1.000000 1.065602 0.409099 1.200000 1.065681 0.607068 1.000000 1.065681 0.607068 1.200000 1.065681 0.785640 1.000000 1.065681 0.785640 1.200000 1.066105 0.545250 1.000000 1.066105 0.545250 1.200000 1.066105 0.723821 1.000000 1.066105 0.723821 1.200000 1.066707 0.416660 1.000000 1.066707 0.416660 1.200000 1.067740 0.575493 1.000000 1.067740 0.575493 1.200000 1.067740 0.754065 1.000000 1.067740 0.754065 1.200000 1.068313 0.254073 1.000000 1.068313 0.254073 1.200000 1.069526 0.592174 1.000000 1.069526 0.592174 1.200000 1.069526 0.770745 1.000000 1.069526 0.770745 1.200000 1.069609 0.559902 1.000000 1.069609 0.559902 1.200000 1.069609 0.738474 1.000000 1.069609 0.738474 1.200000 1.072035 0.361986 1.000000 1.072035 0.361986 1.200000 1.074884 0.603829 1.000000 1.074884 0.603829 1.200000 1.074884 0.782400 1.000000 1.074884 0.782400 1.200000 1.075217 0.548489 1.000000 1.075217 0.548489 1.200000 1.075217 0.727060 1.000000 1.075217 0.727060 1.200000 1.078835 0.615129 1.000000 1.078835 0.615129 1.200000 1.078835 0.793700 1.000000 1.078835 0.793700 1.200000 1.079304 0.537190 1.000000 1.079304 0.537190 1.200000 1.079304 0.715761 1.000000 1.079304 0.715761 1.200000 1.080814 0.357142 1.000000 1.080814 0.357142 1.200000 1.080814 0.360351 1.000000 1.080814 0.360351 1.200000 1.082474 0.892857 1.000000 1.082474 0.892857 1.200000 1.082474 0.898633 1.000000 1.082474 0.898633 1.200000 1.082474 1.033229 1.000000 1.082474 1.033229 1.200000 1.082474 1.039005 1.000000 1.082474 1.039005 1.200000 1.084133 0.610686 1.000000 1.084133 0.610686 1.200000 1.084133 0.789258 1.000000 1.084133 0.789258 1.200000 1.084398 0.541496 1.000000 1.084398 0.541496 1.200000 1.084398 0.720067 1.000000 1.084398 0.720067 1.200000 1.084574 0.357142 1.000000 1.084574 0.357142 1.200000 1.084574 0.360351 1.000000 1.084574 0.360351 1.200000 1.084574 0.435127 1.000000 1.084574 0.435127 1.200000 1.084574 0.438336 1.000000 1.084574 0.438336 1.200000 1.085205 0.176694 1.000000 1.085205 0.176694 1.200000 1.088413 0.176694 1.000000 1.088413 0.176694 1.200000 1.089382 0.197765 1.000000 1.089382 0.197765 1.200000 1.094988 0.361986 1.000000 1.094988 0.361986 1.200000 1.094988 0.433552 1.000000 1.094988 0.433552 1.200000 1.095135 0.256556 1.000000 1.095135 0.256556 1.200000 1.095135 0.259765 1.000000 1.095135 0.259765 1.200000 1.096863 0.534503 1.000000 1.096863 0.534503 1.200000 1.096863 0.713075 1.000000 1.096863 0.713075 1.200000 1.096984 0.539165 1.000000 1.096984 0.539165 1.200000 1.096984 0.717736 1.000000 1.096984 0.717736 1.200000 1.097105 0.617816 1.000000 1.097105 0.617816 1.200000 1.097105 0.796387 1.000000 1.097105 0.796387 1.200000 1.097590 0.612972 1.000000 1.097590 0.612972 1.200000 1.097590 0.791543 1.000000 1.097590 0.791543 1.200000 1.099479 0.964241 1.000000 1.099479 0.964241 1.200000 1.101345 0.361986 1.000000 1.101345 0.361986 1.200000 1.101345 0.426953 1.000000 1.101345 0.426953 1.200000 1.103349 0.612616 1.000000 1.103349 0.612616 1.200000 1.103349 0.791187 1.000000 1.103349 0.791187 1.200000 1.103689 0.539581 1.000000 1.103689 0.539581 1.200000 1.103689 0.718152 1.000000 1.103689 0.718152 1.200000 1.104247 0.997359 1.000000 1.104247 0.997359 1.200000 1.104438 0.933249 1.000000 1.104438 0.933249 1.200000 1.107788 0.254981 1.000000 1.107788 0.254981 1.200000 1.109002 0.611549 1.000000 1.109002 0.611549 1.200000 1.109002 0.790120 1.000000 1.109002 0.790120 1.200000 1.109156 0.438336 1.000000 1.109156 0.438336 1.200000 1.110001 0.540830 1.000000 1.110001 0.540830 1.200000 1.110001 0.719401 1.000000 1.110001 0.719401 1.200000 1.110229 0.617044 1.000000 1.110229 0.617044 1.200000 1.110229 0.795615 1.000000 1.110229 0.795615 1.200000 1.111682 0.535457 1.000000 1.111682 0.535457 1.200000 1.111682 0.714028 1.000000 1.111682 0.714028 1.200000 1.112243 0.357142 1.000000 1.112243 0.357142 1.200000 1.112243 0.360351 1.000000 1.112243 0.360351 1.200000 1.114263 0.609831 1.000000 1.114263 0.609831 1.200000 1.114263 0.788402 1.000000 1.114263 0.788402 1.200000 1.114933 0.254981 1.000000 1.114933 0.254981 1.200000 1.115481 0.542775 1.000000 1.115481 0.542775 1.200000 1.115481 0.721346 1.000000 1.115481 0.721346 1.200000 1.118551 1.021295 1.000000 1.118551 1.021295 1.200000 1.118842 0.607523 1.000000 1.118842 0.607523 1.200000 1.118842 0.786094 1.000000 1.118842 0.786094 1.200000 1.119315 0.910021 1.000000 1.119315 0.910021 1.200000 1.119689 0.545280 1.000000 1.119689 0.545280 1.200000 1.119689 0.723851 1.000000 1.119689 0.723851 1.200000 1.120658 0.596987 1.000000 1.120658 0.596987 1.200000 1.120658 0.775558 1.000000 1.120658 0.775558 1.200000 1.121929 0.557390 1.000000 1.121929 0.557390 1.200000 1.121929 0.735961 1.000000 1.121929 0.735961 1.200000 1.122017 0.256556 1.000000 1.122017 0.256556 1.200000 1.122017 0.259765 1.000000 1.122017 0.259765 1.200000 1.122258 0.964460 1.000000 1.122258 0.964460 1.200000 1.124291 0.614727 1.000000 1.124291 0.614727 1.200000 1.124291 0.793299 1.000000 1.124291 0.793299 1.200000 1.124654 0.596987 1.000000 1.124654 0.596987 1.200000 1.124654 0.775558 1.000000 1.124654 0.775558 1.200000 1.125473 0.994484 1.000000 1.125473 0.994484 1.200000 1.125501 0.538317 1.000000 1.125501 0.538317 1.200000 1.125501 0.716889 1.000000 1.125501 0.716889 1.200000 1.125622 0.936396 1.000000 1.125622 0.936396 1.200000 1.125839 0.178571 1.000000 1.125839 0.178571 1.200000 1.125839 0.181780 1.000000 1.125839 0.181780 1.200000 1.125839 0.256556 1.000000 1.125839 0.256556 1.200000 1.125839 0.259765 1.000000 1.125839 0.259765 1.200000 1.125865 0.557390 1.000000 1.125865 0.557390 1.200000 1.125865 0.735961 1.000000 1.125865 0.735961 1.200000 1.131074 0.357142 1.000000 1.131074 0.357142 1.200000 1.133192 0.357142 1.000000 1.133192 0.357142 1.200000 1.135118 1.015464 1.000000 1.135118 1.015464 1.200000 1.135554 0.376578 1.000000 1.135554 0.376578 1.200000 1.135717 0.915852 1.000000 1.135717 0.915852 1.200000 1.136254 0.183415 1.000000 1.136254 0.183415 1.200000 1.136254 0.254981 1.000000 1.136254 0.254981 1.200000 1.136284 0.613699 1.000000 1.136284 0.613699 1.200000 1.136284 0.616908 1.000000 1.136284 0.616908 1.200000 1.136284 0.792270 1.000000 1.136284 0.792270 1.200000 1.136284 0.795479 1.000000 1.136284 0.795479 1.200000 1.137072 0.535714 1.000000 1.137072 0.535714 1.200000 1.137072 0.538923 1.000000 1.137072 0.538923 1.200000 1.137072 0.714285 1.000000 1.137072 0.714285 1.200000 1.137072 0.717494 1.000000 1.137072 0.717494 1.200000 1.142229 1.035804 1.000000 1.142229 1.035804 1.200000 1.142611 0.183415 1.000000 1.142611 0.183415 1.200000 1.142611 0.251591 1.000000 1.142611 0.251591 1.200000 1.143074 0.895513 1.000000 1.143074 0.895513 1.200000 1.146699 0.540558 1.000000 1.146699 0.540558 1.200000 1.146699 0.567441 1.000000 1.146699 0.612124 1.000000 1.146699 0.612124 1.200000 1.146699 0.719129 1.000000 1.146699 0.719129 1.200000 1.146699 0.790695 1.000000 1.146699 0.790695 1.200000 1.150421 0.259765 1.000000 1.150421 0.259765 1.200000 1.151766 1.027807 1.000000 1.151766 1.027807 1.200000 1.152242 0.903264 1.000000 1.152242 0.903264 1.200000 1.153509 0.178571 1.000000 1.153509 0.178571 1.200000 1.153509 0.181780 1.000000 1.153509 0.181780 1.200000 1.154687 0.357142 1.000000 1.154687 0.357142 1.200000 1.154687 0.360351 1.000000 1.154687 0.360351 1.200000 1.158384 0.540558 1.000000 1.158384 0.540558 1.200000 1.158384 0.558560 1.000000 1.158384 0.567561 1.000000 1.158384 0.567561 1.200000 1.158384 0.573011 1.000000 1.158384 0.573011 1.200000 1.158384 0.611458 1.000000 1.158384 0.611458 1.200000 1.158384 0.719129 1.000000 1.158384 0.719129 1.200000 1.158384 0.746133 1.000000 1.158384 0.746133 1.200000 1.158384 0.751583 1.000000 1.158384 0.751583 1.200000 1.158384 0.790029 1.000000 1.158384 0.790029 1.200000 1.164317 0.611458 1.000000 1.164317 0.611458 1.200000 1.164317 0.790029 1.000000 1.164317 0.790029 1.200000 1.164375 0.438336 1.000000 1.164375 0.438336 1.200000 1.164681 0.573011 1.000000 1.164681 0.573011 1.200000 1.164681 0.751583 1.000000 1.164681 0.751583 1.200000 1.165585 0.361986 1.000000 1.165585 0.361986 1.200000 1.165585 0.426953 1.000000 1.165585 0.426953 1.200000 1.166921 0.616908 1.000000 1.166921 0.616908 1.200000 1.166921 0.795479 1.000000 1.166921 0.795479 1.200000 1.167526 0.567561 1.000000 1.167526 0.567561 1.200000 1.167526 0.746133 1.000000 1.167526 0.746133 1.200000 1.171281 0.535714 1.000000 1.171281 0.535714 1.200000 1.171281 0.538923 1.000000 1.171281 0.538923 1.200000 1.171281 0.714285 1.000000 1.171281 0.714285 1.200000 1.171281 0.717494 1.000000 1.171281 0.717494 1.200000 1.173573 0.574177 1.000000 1.173573 0.574177 1.200000 1.173573 0.752748 1.000000 1.173573 0.752748 1.200000 1.173748 0.610383 1.000000 1.173748 0.610383 1.200000 1.173748 0.788954 1.000000 1.173748 0.788954 1.200000 1.174679 0.890677 1.000000 1.174679 0.890677 1.200000 1.174898 0.899068 1.000000 1.174898 0.899068 1.200000 1.175115 1.040640 1.000000 1.175115 1.040640 1.200000 1.175988 1.031921 1.000000 1.175988 1.031921 1.200000 1.177210 0.361986 1.000000 1.177210 0.361986 1.200000 1.177210 0.433552 1.000000 1.177210 0.433552 1.200000 1.179787 0.577673 1.000000 1.179787 0.577673 1.200000 1.179787 0.756244 1.000000 1.179787 0.756244 1.200000 1.179992 0.569181 1.000000 1.179992 0.569181 1.200000 1.179992 0.747752 1.000000 1.179992 0.747752 1.200000 1.179999 0.607158 1.000000 1.179999 0.607158 1.200000 1.179999 0.785730 1.000000 1.179999 0.785730 1.200000 1.181300 0.256556 1.000000 1.181300 0.256556 1.200000 1.181300 0.259765 1.000000 1.181300 0.259765 1.200000 1.183443 0.583803 1.000000 1.183443 0.583803 1.200000 1.183443 0.762375 1.000000 1.183443 0.762375 1.200000 1.183496 0.601437 1.000000 1.183496 0.601437 1.200000 1.183496 0.780009 1.000000 1.183496 0.780009 1.200000 1.184661 0.592870 1.000000 1.184661 0.592870 1.200000 1.184661 0.771441 1.000000 1.184661 0.771441 1.200000 1.186354 1.031281 1.000000 1.186354 1.031281 1.200000 1.186967 0.899818 1.000000 1.186967 0.899818 1.200000 1.187625 0.357142 1.000000 1.187625 0.357142 1.200000 1.187625 0.360351 1.000000 1.187625 0.360351 1.200000 1.187625 0.435127 1.000000 1.187625 0.435127 1.200000 1.187625 0.438336 1.000000 1.187625 0.438336 1.200000 1.189172 0.574040 1.000000 1.189172 0.574040 1.200000 1.189172 0.752611 1.000000 1.189172 0.752611 1.200000 1.189263 0.610929 1.000000 1.189263 0.610929 1.200000 1.189263 0.789500 1.000000 1.189263 0.789500 1.200000 1.192198 0.199641 1.000000 1.192198 0.199641 1.200000 1.192198 0.254981 1.000000 1.192198 0.254981 1.200000 1.192683 0.178571 1.000000 1.192683 0.178571 1.200000 1.194826 0.582017 1.000000 1.194826 0.582017 1.200000 1.194826 0.760588 1.000000 1.194826 0.760588 1.200000 1.196530 1.029359 1.000000 1.196530 1.029359 1.200000 1.196710 0.592991 1.000000 1.196710 0.592991 1.200000 1.196710 0.771563 1.000000 1.196710 0.771563 1.200000 1.198328 0.902066 1.000000 1.198328 0.902066 1.200000 1.198556 0.178571 1.000000 1.198556 0.178571 1.200000 1.198556 0.254981 1.000000 1.198556 0.254981 1.200000 1.198737 1.039250 1.000000 1.198737 1.039250 1.200000 1.201353 0.892394 1.000000 1.201353 0.892394 1.200000 1.205251 0.535714 1.000000 1.205251 0.535714 1.200000 1.205251 0.538923 1.000000 1.205251 0.538923 1.200000 1.205251 0.613699 1.000000 1.205251 0.613699 1.200000 1.205251 0.616908 1.000000 1.205251 0.616908 1.200000 1.205251 0.714285 1.000000 1.205251 0.714285 1.200000 1.205251 0.717494 1.000000 1.205251 0.717494 1.200000 1.205251 0.792270 1.000000 1.205251 0.792270 1.200000 1.205251 0.795479 1.000000 1.205251 0.795479 1.200000 1.205998 1.026268 1.000000 1.205998 1.026268 1.200000 1.208191 0.905567 1.000000 1.208191 0.905567 1.200000 1.208971 0.256556 1.000000 1.208971 0.256556 1.200000 1.208971 0.259765 1.000000 1.208971 0.259765 1.200000 1.214241 1.022113 1.000000 1.214241 1.022113 1.200000 1.215394 0.178571 1.000000 1.215394 0.178571 1.200000 1.215394 0.181780 1.000000 1.215394 0.181780 1.200000 1.215394 0.256556 1.000000 1.215394 0.256556 1.200000 1.215394 0.259765 1.000000 1.215394 0.259765 1.200000 1.215666 0.540558 1.000000 1.215666 0.540558 1.200000 1.215666 0.612124 1.000000 1.215666 0.612124 1.200000 1.215666 0.719129 1.000000 1.215666 0.719129 1.200000 1.215666 0.790695 1.000000 1.215666 0.790695 1.200000 1.215766 0.910076 1.000000 1.215766 0.910076 1.200000 1.217510 1.003148 1.000000 1.217510 1.003148 1.200000 1.219798 0.931873 1.000000 1.219798 0.931873 1.200000 1.222023 0.540558 1.000000 1.222023 0.540558 1.200000 1.222023 0.608733 1.000000 1.222023 0.608733 1.200000 1.222023 0.719129 1.000000 1.222023 0.719129 1.200000 1.222023 0.787305 1.000000 1.222023 0.787305 1.200000 1.224049 1.035081 1.000000 1.224049 1.035081 1.200000 1.224703 1.003148 1.000000 1.224703 1.003148 1.200000 1.225808 0.183415 1.000000 1.225808 0.183415 1.200000 1.225808 0.254981 1.000000 1.225808 0.254981 1.200000 1.226228 0.897543 1.000000 1.226228 0.897543 1.200000 1.226882 0.931873 1.000000 1.226882 0.931873 1.200000 1.229834 0.616908 1.000000 1.229834 0.616908 1.200000 1.229834 0.795479 1.000000 1.229834 0.795479 1.200000 1.232165 0.183415 1.000000 1.232165 0.183415 1.200000 1.232165 0.251591 1.000000 1.232165 0.251591 1.200000 1.232921 0.535714 1.000000 1.232921 0.535714 1.200000 1.232921 0.538923 1.000000 1.232921 0.538923 1.200000 1.232921 0.714285 1.000000 1.232921 0.714285 1.200000 1.232921 0.717494 1.000000 1.232921 0.717494 1.200000 1.239976 0.259765 1.000000 1.239976 0.259765 1.200000 1.243063 0.178571 1.000000 1.243063 0.178571 1.200000 1.243063 0.181780 1.000000 1.243063 0.181780 1.200000 1.249889 0.926097 1.000000 1.249889 0.926097 1.200000 1.251088 0.895364 1.000000 1.251088 0.895364 1.200000 1.254357 1.007835 1.000000 1.254357 1.007835 1.200000 1.254357 1.035953 1.000000 1.254357 1.035953 1.200000 1.257081 0.926097 1.000000 1.257081 0.926097 1.200000 1.260712 0.613699 1.000000 1.260712 0.613699 1.200000 1.260712 0.616908 1.000000 1.260712 0.616908 1.200000 1.260712 0.792270 1.000000 1.260712 0.792270 1.200000 1.260712 0.795479 1.000000 1.260712 0.795479 1.200000 1.261550 1.007835 1.000000 1.261550 1.007835 1.200000 1.261986 0.905608 1.000000 1.261986 0.905608 1.200000 1.264410 1.038310 1.000000 1.264410 1.038310 1.200000 1.265364 1.025708 1.000000 1.265364 1.025708 1.200000 1.267122 0.903373 1.000000 1.267122 0.903373 1.200000 1.270160 0.891849 1.000000 1.270160 0.891849 1.200000 1.270541 1.028065 1.000000 1.270541 1.028065 1.200000 1.270855 0.256556 1.000000 1.270855 0.256556 1.200000 1.270855 0.259765 1.000000 1.270855 0.259765 1.200000 1.271610 0.556784 1.000000 1.271610 0.556784 1.200000 1.271610 0.612124 1.000000 1.271610 0.612124 1.200000 1.271610 0.735356 1.000000 1.271610 0.735356 1.200000 1.271610 0.790695 1.000000 1.271610 0.790695 1.200000 1.272095 0.535714 1.000000 1.272095 0.535714 1.200000 1.272095 0.714285 1.000000 1.272095 0.714285 1.200000 1.272991 1.039713 1.000000 1.272991 1.039713 1.200000 1.274028 0.901466 1.000000 1.274028 0.901466 1.200000 1.275608 0.964677 1.000000 1.275608 0.964677 1.200000 1.275608 0.973614 1.000000 1.275608 0.973614 1.200000 1.276481 1.029904 1.000000 1.276481 1.029904 1.200000 1.277968 0.535714 1.000000 1.277968 0.535714 1.200000 1.277968 0.612124 1.000000 1.277968 0.612124 1.200000 1.277968 0.714285 1.000000 1.277968 0.714285 1.200000 1.277968 0.790695 1.000000 1.277968 0.790695 1.200000 1.280812 1.040408 1.000000 1.280812 1.040408 1.200000 1.281562 0.900158 1.000000 1.281562 0.900158 1.200000 1.281753 0.199641 1.000000 1.281753 0.199641 1.200000 1.281753 0.254981 1.000000 1.281753 0.254981 1.200000 1.282238 0.178571 1.000000 1.282238 0.178571 1.200000 1.282665 1.031090 1.000000 1.282665 1.031090 1.200000 1.288111 0.178571 1.000000 1.288111 0.178571 1.200000 1.288111 0.254981 1.000000 1.288111 0.254981 1.200000 1.288383 0.613699 1.000000 1.288383 0.613699 1.200000 1.288383 0.616908 1.000000 1.288383 0.616908 1.200000 1.288383 0.792270 1.000000 1.288383 0.792270 1.200000 1.288383 0.795479 1.000000 1.288383 0.795479 1.200000 1.288577 0.899722 1.000000 1.288577 0.899722 1.200000 1.288577 1.031486 1.000000 1.288577 1.031486 1.200000 1.288577 1.040640 1.000000 1.288577 1.040640 1.200000 1.290321 0.890677 1.000000 1.290321 0.890677 1.200000 1.291194 0.963806 1.000000 1.291194 0.963806 1.200000 1.291194 0.974594 1.000000 1.291194 0.974594 1.200000 1.298525 0.256556 1.000000 1.298525 0.256556 1.200000 1.298525 0.259765 1.000000 1.298525 0.259765 1.200000 1.300634 1.029810 1.000000 1.300634 1.029810 1.200000 1.301901 0.976829 1.000000 1.301901 0.976829 1.200000 1.303454 0.901684 1.000000 1.303454 0.901684 1.200000 1.303508 0.969363 1.000000 1.303508 0.969363 1.200000 1.304925 0.961367 1.000000 1.304925 0.961367 1.200000 1.304948 0.178571 1.000000 1.304948 0.178571 1.200000 1.304948 0.181780 1.000000 1.304948 0.181780 1.200000 1.304948 0.256556 1.000000 1.304948 0.256556 1.200000 1.304948 0.259765 1.000000 1.304948 0.259765 1.200000 1.308903 1.024782 1.000000 1.308903 1.024782 1.200000 1.309393 0.982223 1.000000 1.309393 0.982223 1.200000 1.312255 0.893457 1.000000 1.312255 0.893457 1.200000 1.313685 1.016078 1.000000 1.313685 1.016078 1.200000 1.313807 0.990997 1.000000 1.313807 0.990997 1.200000 1.313863 0.907568 1.000000 1.313863 0.907568 1.200000 1.314515 0.955577 1.000000 1.314515 0.955577 1.200000 1.315279 1.003367 1.000000 1.315279 1.003367 1.200000 1.315362 0.183415 1.000000 1.315362 0.183415 1.200000 1.315362 0.254981 1.000000 1.315362 0.254981 1.200000 1.317036 0.973246 1.000000 1.317036 0.973246 1.200000 1.319993 0.918032 1.000000 1.319993 0.918032 1.200000 1.320156 0.946382 1.000000 1.320156 0.946382 1.200000 1.320728 0.965372 1.000000 1.320728 0.965372 1.200000 1.321720 0.183415 1.000000 1.321720 0.183415 1.200000 1.321720 0.251591 1.000000 1.321720 0.251591 1.200000 1.322037 0.933726 1.000000 1.322037 0.933726 1.200000 1.323725 1.031649 1.000000 1.323725 1.031649 1.200000 1.327102 0.980534 1.000000 1.327102 0.980534 1.200000 1.328574 0.901794 1.000000 1.328574 0.901794 1.200000 1.329530 0.259765 1.000000 1.329530 0.259765 1.200000 1.332618 0.178571 1.000000 1.332618 0.178571 1.200000 1.332618 0.181780 1.000000 1.332618 0.181780 1.200000 1.332716 0.957975 1.000000 1.332716 0.957975 1.200000 1.333356 0.991066 1.000000 1.333356 0.991066 1.200000 1.335440 1.004675 1.000000 1.335440 1.004675 1.200000 1.338710 0.915063 1.000000 1.338710 0.915063 1.200000 1.339746 0.947091 1.000000 1.339746 0.947091 1.200000 1.342089 0.932637 1.000000 1.342089 0.932637 1.200000 1.360409 0.256556 1.000000 1.360409 0.256556 1.200000 1.360409 0.259765 1.000000 1.360409 0.259765 1.200000 1.360624 0.892857 1.000000 1.360624 0.892857 1.200000 1.360624 0.908877 1.000000 1.360624 0.908877 1.200000 1.365529 1.007835 1.000000 1.365529 1.007835 1.200000 1.365529 1.035953 1.000000 1.365529 1.035953 1.200000 1.371307 0.199641 1.000000 1.371307 0.199641 1.200000 1.371307 0.254981 1.000000 1.371307 0.254981 1.200000 1.371792 0.178571 1.000000 1.371792 0.178571 1.200000 1.372721 1.007835 1.000000 1.372721 1.007835 1.200000 1.374902 0.909640 1.000000 1.374902 0.909640 1.200000 1.376536 1.025708 1.000000 1.376536 1.025708 1.200000 1.377665 0.178571 1.000000 1.377665 0.178571 1.200000 1.377665 0.254981 1.000000 1.377665 0.254981 1.200000 1.380895 0.927296 1.000000 1.380895 0.927296 1.200000 1.381577 1.028065 1.000000 1.381577 1.028065 1.200000 1.383866 1.039468 1.000000 1.383866 1.039468 1.200000 1.385500 0.919149 1.000000 1.385500 0.919149 1.200000 1.387325 1.029904 1.000000 1.387325 1.029904 1.200000 1.388079 0.256556 1.000000 1.388079 0.256556 1.200000 1.388079 0.259765 1.000000 1.388079 0.259765 1.200000 1.393347 1.031090 1.000000 1.393347 1.031090 1.200000 1.395499 0.927841 1.000000 1.395499 0.927841 1.200000 1.397815 0.942771 1.000000 1.397815 0.942771 1.200000 1.399205 1.031486 1.000000 1.399205 1.031486 1.200000 1.399205 1.040640 1.000000 1.399205 1.040640 1.200000 1.409558 0.954978 1.000000 1.409558 0.954978 1.200000 1.411766 1.029633 1.000000 1.411766 1.029633 1.200000 1.414953 0.944992 1.000000 1.414953 0.944992 1.200000 1.417419 0.965712 1.000000 1.417419 0.965712 1.200000 1.420198 1.038147 1.000000 1.420198 1.038147 1.200000 1.420239 1.024073 1.000000 1.420239 1.024073 1.200000 1.422690 0.976774 1.000000 1.422690 0.976774 1.200000 1.425062 1.014973 1.000000 1.425062 1.014973 1.200000 1.425675 0.988817 1.000000 1.425675 0.988817 1.200000 1.426670 1.002494 1.000000 1.426670 1.002494 1.200000 1.427976 0.957866 1.000000 1.427976 0.957866 1.200000 1.435224 1.030668 1.000000 1.435224 1.030668 1.200000 1.436518 0.968628 1.000000 1.436518 0.968628 1.200000 1.442526 0.979445 1.000000 1.442526 0.979445 1.200000 1.444256 1.018638 1.000000 1.444256 1.018638 1.200000 1.446082 0.990629 1.000000 1.446082 0.990629 1.200000 1.447267 1.002494 1.000000 1.447267 1.002494 1.200000 1.450100 0.892857 1.000000 1.450100 0.892857 1.200000 1.450100 0.909640 1.000000 1.450100 0.909640 1.200000 2.100000 0.000000 0.000000 2.100000 0.000000 1.000000 2.100000 1.250000 0.000000 2.100000 1.250000 1.000000 "
							            />
						</IndexedFaceSet>
					</Shape>
					<Shape>
						<Appearance>
							<Material DEF="MA_Color_2"
							          diffuseColor="1.000 1.000 1.000"
							          specularColor="0.401 0.401 0.401"
							          emissiveColor="0.000 0.000 0.000"
							          ambientIntensity="0.000"
							          shininess="0.500"
							          transparency="1.000"
							          />
						</Appearance>
						<IndexedFaceSet solid="false"
						                coordIndex="4 5 8 -1 4 6 7 -1 4 7 5 -1 5 7 35 -1 5 9 8 -1 5 13 9 -1 5 17 13 -1 5 21 17 -1 5 23 21 -1 5 27 23 -1 5 31 27 -1 5 35 31 -1 6 10 11 -1 6 11 7 -1 7 11 35 -1 8 9 12 -1 9 13 12 -1 10 14 15 -1 10 15 11 -1 11 15 35 -1 12 13 16 -1 13 17 16 -1 14 18 19 -1 14 19 15 -1 15 19 35 -1 16 17 20 -1 17 21 20 -1 18 24 25 -1 18 25 19 -1 19 25 29 -1 19 29 33 -1 19 33 35 -1 20 21 22 -1 21 23 22 -1 22 23 26 -1 23 27 26 -1 24 28 29 -1 24 29 25 -1 26 27 30 -1 27 31 30 -1 28 32 33 -1 28 33 29 -1 30 31 34 -1 31 35 34 -1 32 34 35 -1 32 35 33 -1 36 37 38 -1 36 54 55 -1 36 55 37 -1 37 39 38 -1 37 45 39 -1 37 55 45 -1 38 39 44 -1 39 45 44 -1 40 41 42 -1 40 46 47 -1 40 47 41 -1 41 43 42 -1 41 47 43 -1 42 43 52 -1 43 47 53 -1 43 53 52 -1 44 45 46 -1 45 47 46 -1 45 49 51 -1 45 51 47 -1 45 55 49 -1 47 51 53 -1 48 49 56 -1 48 50 51 -1 48 51 49 -1 49 55 57 -1 49 57 56 -1 50 64 65 -1 50 65 51 -1 51 65 67 -1 51 67 75 -1 51 75 53 -1 52 53 74 -1 53 75 74 -1 54 56 57 -1 54 57 55 -1 58 59 60 -1 58 62 63 -1 58 63 59 -1 59 61 60 -1 59 63 61 -1 60 61 78 -1 61 63 69 -1 61 69 79 -1 61 79 78 -1 62 82 83 -1 62 83 63 -1 63 83 69 -1 64 66 67 -1 64 67 65 -1 66 110 111 -1 66 111 67 -1 67 111 75 -1 68 69 84 -1 68 76 77 -1 68 77 69 -1 69 77 79 -1 69 83 85 -1 69 85 84 -1 70 71 72 -1 70 98 99 -1 70 99 71 -1 71 73 72 -1 71 81 73 -1 71 99 81 -1 72 73 80 -1 73 81 80 -1 74 75 106 -1 75 107 106 -1 75 111 107 -1 76 78 79 -1 76 79 77 -1 80 81 82 -1 81 83 82 -1 81 87 83 -1 81 99 87 -1 83 87 89 -1 83 89 85 -1 84 85 102 -1 85 89 103 -1 85 103 102 -1 86 87 100 -1 86 88 89 -1 86 89 87 -1 87 99 101 -1 87 101 100 -1 88 104 105 -1 88 105 89 -1 89 105 103 -1 90 91 92 -1 90 102 103 -1 90 103 91 -1 91 93 92 -1 91 103 93 -1 92 93 114 -1 93 103 105 -1 93 105 115 -1 93 115 114 -1 94 95 96 -1 94 164 165 -1 94 165 95 -1 95 97 96 -1 95 109 97 -1 95 165 109 -1 96 97 108 -1 97 109 108 -1 98 100 101 -1 98 101 99 -1 104 112 113 -1 104 113 105 -1 105 113 115 -1 106 107 170 -1 107 111 123 -1 107 123 125 -1 107 125 171 -1 107 171 170 -1 108 109 110 -1 109 111 110 -1 109 123 111 -1 109 165 123 -1 112 114 115 -1 112 115 113 -1 116 117 118 -1 116 120 121 -1 116 121 117 -1 117 119 118 -1 117 121 119 -1 118 119 182 -1 119 121 139 -1 119 139 183 -1 119 183 182 -1 120 190 191 -1 120 191 121 -1 121 191 139 -1 122 123 166 -1 122 124 125 -1 122 125 123 -1 123 165 167 -1 123 167 166 -1 124 168 169 -1 124 169 125 -1 125 169 171 -1 126 127 130 -1 126 134 135 -1 126 135 127 -1 127 131 130 -1 127 135 153 -1 127 153 131 -1 128 129 132 -1 128 136 137 -1 128 137 129 -1 129 133 132 -1 129 137 155 -1 129 155 133 -1 130 131 140 -1 131 141 140 -1 131 153 157 -1 131 157 141 -1 132 133 142 -1 133 143 142 -1 133 155 159 -1 133 159 143 -1 134 148 149 -1 134 149 135 -1 135 149 161 -1 135 161 153 -1 136 150 151 -1 136 151 137 -1 137 151 163 -1 137 163 155 -1 138 139 204 -1 138 180 181 -1 138 181 139 -1 139 181 183 -1 139 191 205 -1 139 205 204 -1 140 141 184 -1 141 157 173 -1 141 173 185 -1 141 185 184 -1 142 143 186 -1 143 159 175 -1 143 175 187 -1 143 187 186 -1 144 145 146 -1 144 234 235 -1 144 235 145 -1 145 147 146 -1 145 189 147 -1 145 235 189 -1 146 147 188 -1 147 189 188 -1 148 192 193 -1 148 193 149 -1 149 177 161 -1 149 193 177 -1 150 194 195 -1 150 195 151 -1 151 179 163 -1 151 195 179 -1 152 153 160 -1 152 156 157 -1 152 157 153 -1 153 161 160 -1 154 155 162 -1 154 158 159 -1 154 159 155 -1 155 163 162 -1 156 172 173 -1 156 173 157 -1 158 174 175 -1 158 175 159 -1 160 161 176 -1 161 177 176 -1 162 163 178 -1 163 179 178 -1 164 166 167 -1 164 167 165 -1 168 170 171 -1 168 171 169 -1 172 196 197 -1 172 197 173 -1 173 197 185 -1 174 198 199 -1 174 199 175 -1 175 199 187 -1 176 177 200 -1 177 193 201 -1 177 201 200 -1 178 179 202 -1 179 195 203 -1 179 203 202 -1 180 182 183 -1 180 183 181 -1 184 185 218 -1 185 197 219 -1 185 219 218 -1 186 187 220 -1 187 199 221 -1 187 221 220 -1 188 189 190 -1 189 191 190 -1 189 207 191 -1 189 235 207 -1 191 207 209 -1 191 209 205 -1 192 210 211 -1 192 211 193 -1 193 211 201 -1 194 212 213 -1 194 213 195 -1 195 213 203 -1 196 222 223 -1 196 223 197 -1 197 223 219 -1 198 224 225 -1 198 225 199 -1 199 225 221 -1 200 201 214 -1 201 211 215 -1 201 215 214 -1 202 203 216 -1 203 213 217 -1 203 217 216 -1 204 205 250 -1 205 209 251 -1 205 251 250 -1 206 207 236 -1 206 208 209 -1 206 209 207 -1 207 235 237 -1 207 237 236 -1 208 268 269 -1 208 269 209 -1 209 269 251 -1 210 256 257 -1 210 257 211 -1 211 239 215 -1 211 257 239 -1 212 258 259 -1 212 259 213 -1 213 241 217 -1 213 259 241 -1 214 215 238 -1 215 239 238 -1 216 217 240 -1 217 241 240 -1 218 219 252 -1 219 223 231 -1 219 231 253 -1 219 253 252 -1 220 221 254 -1 221 225 233 -1 221 233 255 -1 221 255 254 -1 222 230 231 -1 222 231 223 -1 224 232 233 -1 224 233 225 -1 226 227 228 -1 226 250 251 -1 226 251 227 -1 227 229 228 -1 227 251 229 -1 228 229 304 -1 229 251 269 -1 229 269 305 -1 229 305 304 -1 230 242 243 -1 230 243 231 -1 231 243 253 -1 232 244 245 -1 232 245 233 -1 233 245 255 -1 234 236 237 -1 234 237 235 -1 238 239 246 -1 239 247 246 -1 239 257 247 -1 240 241 248 -1 241 249 248 -1 241 259 249 -1 242 260 261 -1 242 261 243 -1 243 261 253 -1 244 262 263 -1 244 263 245 -1 245 263 255 -1 246 247 264 -1 247 257 265 -1 247 265 264 -1 248 249 266 -1 249 259 267 -1 249 267 266 -1 252 253 286 -1 253 261 287 -1 253 287 286 -1 254 255 288 -1 255 263 289 -1 255 289 288 -1 256 294 295 -1 256 295 257 -1 257 295 265 -1 258 296 297 -1 258 297 259 -1 259 297 267 -1 260 270 271 -1 260 271 261 -1 261 271 287 -1 262 272 273 -1 262 273 263 -1 263 273 289 -1 264 265 274 -1 265 275 274 -1 265 295 275 -1 266 267 276 -1 267 277 276 -1 267 297 277 -1 268 302 303 -1 268 303 269 -1 269 303 305 -1 270 278 279 -1 270 279 271 -1 271 279 291 -1 271 291 287 -1 272 280 281 -1 272 281 273 -1 273 281 293 -1 273 293 289 -1 274 275 282 -1 275 283 282 -1 275 295 299 -1 275 299 283 -1 276 277 284 -1 277 285 284 -1 277 297 301 -1 277 301 285 -1 278 290 291 -1 278 291 279 -1 280 292 293 -1 280 293 281 -1 282 283 298 -1 283 299 298 -1 284 285 300 -1 285 301 300 -1 286 287 290 -1 287 291 290 -1 288 289 292 -1 289 293 292 -1 294 298 299 -1 294 299 295 -1 296 300 301 -1 296 301 297 -1 302 304 305 -1 302 305 303 -1 306 307 308 -1 306 318 319 -1 306 319 307 -1 307 309 308 -1 307 319 309 -1 308 309 374 -1 309 319 345 -1 309 345 375 -1 309 375 374 -1 310 311 312 -1 310 338 339 -1 310 339 311 -1 311 313 312 -1 311 339 313 -1 312 313 388 -1 313 339 389 -1 313 389 388 -1 314 315 316 -1 314 342 343 -1 314 343 315 -1 315 317 316 -1 315 343 317 -1 316 317 390 -1 317 343 391 -1 317 391 390 -1 318 376 377 -1 318 377 319 -1 319 377 387 -1 319 387 399 -1 319 399 345 -1 320 321 322 -1 320 400 401 -1 320 401 321 -1 321 323 322 -1 321 337 323 -1 321 355 337 -1 321 401 355 -1 322 323 336 -1 323 337 336 -1 324 325 326 -1 324 404 405 -1 324 405 325 -1 325 327 326 -1 325 341 327 -1 325 363 341 -1 325 405 363 -1 326 327 340 -1 327 341 340 -1 328 329 330 -1 328 352 353 -1 328 353 329 -1 329 331 330 -1 329 353 331 -1 330 331 478 -1 331 353 479 -1 331 479 478 -1 332 333 334 -1 332 492 493 -1 332 493 333 -1 333 335 334 -1 333 351 335 -1 333 425 351 -1 333 493 425 -1 334 335 350 -1 335 351 350 -1 336 337 338 -1 337 339 338 -1 337 355 357 -1 337 357 359 -1 337 359 339 -1 339 359 361 -1 339 361 389 -1 340 341 342 -1 341 343 342 -1 341 363 365 -1 341 365 367 -1 341 367 343 -1 343 367 369 -1 343 369 391 -1 344 345 398 -1 344 372 373 -1 344 373 345 -1 345 373 375 -1 345 399 398 -1 346 347 348 -1 346 420 421 -1 346 421 347 -1 347 349 348 -1 347 371 349 -1 347 421 371 -1 348 349 370 -1 349 371 370 -1 350 351 352 -1 351 353 352 -1 351 425 427 -1 351 427 429 -1 351 429 353 -1 353 429 431 -1 353 431 479 -1 354 355 402 -1 354 356 357 -1 354 357 355 -1 355 401 403 -1 355 403 402 -1 356 394 395 -1 356 395 357 -1 357 383 359 -1 357 395 383 -1 358 359 382 -1 358 360 361 -1 358 361 359 -1 359 383 382 -1 360 378 379 -1 360 379 361 -1 361 379 389 -1 362 363 406 -1 362 364 365 -1 362 365 363 -1 363 405 407 -1 363 407 406 -1 364 396 397 -1 364 397 365 -1 365 385 367 -1 365 397 385 -1 366 367 384 -1 366 368 369 -1 366 369 367 -1 367 385 384 -1 368 380 381 -1 368 381 369 -1 369 381 391 -1 370 371 456 -1 371 393 417 -1 371 417 419 -1 371 419 457 -1 371 421 393 -1 371 457 456 -1 372 374 375 -1 372 375 373 -1 376 386 387 -1 376 387 377 -1 378 412 413 -1 378 413 379 -1 379 413 389 -1 380 414 415 -1 380 415 381 -1 381 415 391 -1 382 383 408 -1 383 395 409 -1 383 409 408 -1 384 385 410 -1 385 397 411 -1 385 411 410 -1 386 458 459 -1 386 459 387 -1 387 459 399 -1 388 389 464 -1 389 413 465 -1 389 465 464 -1 390 391 466 -1 391 415 467 -1 391 467 466 -1 392 393 422 -1 392 416 417 -1 392 417 393 -1 393 421 423 -1 393 423 422 -1 394 436 437 -1 394 437 395 -1 395 437 409 -1 396 438 439 -1 396 439 397 -1 397 439 411 -1 398 399 468 -1 399 459 469 -1 399 469 468 -1 400 402 403 -1 400 403 401 -1 404 406 407 -1 404 407 405 -1 408 409 432 -1 409 433 432 -1 409 437 433 -1 410 411 434 -1 411 435 434 -1 411 439 435 -1 412 440 441 -1 412 441 413 -1 413 441 465 -1 414 442 443 -1 414 443 415 -1 415 443 467 -1 416 522 523 -1 416 523 417 -1 417 523 419 -1 418 419 500 -1 418 474 475 -1 418 475 419 -1 419 475 457 -1 419 501 500 -1 419 523 501 -1 420 422 423 -1 420 423 421 -1 424 425 494 -1 424 426 427 -1 424 427 425 -1 425 493 495 -1 425 495 494 -1 426 484 485 -1 426 485 427 -1 427 473 429 -1 427 485 473 -1 428 429 472 -1 428 430 431 -1 428 431 429 -1 429 473 472 -1 430 470 471 -1 430 471 431 -1 431 471 479 -1 432 433 444 -1 433 437 461 -1 433 445 444 -1 433 461 445 -1 434 435 446 -1 435 439 463 -1 435 447 446 -1 435 463 447 -1 436 460 461 -1 436 461 437 -1 438 462 463 -1 438 463 439 -1 440 448 449 -1 440 449 441 -1 441 449 465 -1 442 450 451 -1 442 451 443 -1 443 451 467 -1 444 445 452 -1 445 453 452 -1 445 461 481 -1 445 481 453 -1 446 447 454 -1 447 455 454 -1 447 463 483 -1 447 483 455 -1 448 452 453 -1 448 453 449 -1 449 453 487 -1 449 487 465 -1 450 454 455 -1 450 455 451 -1 451 455 489 -1 451 489 467 -1 453 481 487 -1 455 483 489 -1 456 457 490 -1 457 475 491 -1 457 491 490 -1 458 524 525 -1 458 525 459 -1 459 525 529 -1 459 529 469 -1 460 480 481 -1 460 481 461 -1 462 482 483 -1 462 483 463 -1 464 465 486 -1 465 487 486 -1 466 467 488 -1 467 489 488 -1 468 469 476 -1 469 477 476 -1 469 529 477 -1 470 520 521 -1 470 521 471 -1 471 521 479 -1 472 473 518 -1 473 485 519 -1 473 519 518 -1 474 500 501 -1 474 501 475 -1 475 501 491 -1 476 477 528 -1 477 529 528 -1 478 479 582 -1 479 521 583 -1 479 583 582 -1 480 486 487 -1 480 487 481 -1 482 488 489 -1 482 489 483 -1 484 542 543 -1 484 543 485 -1 485 543 519 -1 490 491 564 -1 491 501 565 -1 491 565 564 -1 492 494 495 -1 492 495 493 -1 496 497 498 -1 496 584 585 -1 496 585 497 -1 497 499 498 -1 497 531 499 -1 497 585 531 -1 498 499 530 -1 499 531 530 -1 501 523 565 -1 502 503 504 -1 502 572 573 -1 502 573 503 -1 503 505 504 -1 503 533 505 -1 503 573 533 -1 504 505 532 -1 505 533 532 -1 506 507 508 -1 506 534 535 -1 506 535 507 -1 507 509 508 -1 507 535 509 -1 508 509 566 -1 509 535 567 -1 509 567 566 -1 510 511 512 -1 510 576 577 -1 510 577 511 -1 511 513 512 -1 511 537 513 -1 511 577 537 -1 512 513 536 -1 513 537 536 -1 514 515 516 -1 514 538 539 -1 514 539 515 -1 515 517 516 -1 515 539 517 -1 516 517 568 -1 517 539 569 -1 517 569 568 -1 518 519 540 -1 519 541 540 -1 519 543 541 -1 520 544 545 -1 520 545 521 -1 521 545 583 -1 522 530 531 -1 522 531 523 -1 523 531 565 -1 524 526 527 -1 524 527 525 -1 525 527 589 -1 525 589 529 -1 526 588 589 -1 526 589 527 -1 528 529 570 -1 529 571 570 -1 529 589 571 -1 531 585 565 -1 532 533 535 -1 532 535 534 -1 533 551 553 -1 533 553 535 -1 533 573 551 -1 535 553 567 -1 536 537 539 -1 536 539 538 -1 537 555 557 -1 537 557 539 -1 537 577 555 -1 539 557 569 -1 540 541 558 -1 541 543 581 -1 541 559 558 -1 541 581 559 -1 542 580 581 -1 542 581 543 -1 544 560 561 -1 544 561 545 -1 545 561 583 -1 546 547 548 -1 546 570 571 -1 546 571 547 -1 547 549 548 -1 547 571 549 -1 548 549 602 -1 549 571 589 -1 549 589 603 -1 549 603 602 -1 550 551 574 -1 550 552 553 -1 550 553 551 -1 551 573 575 -1 551 575 574 -1 552 650 651 -1 552 651 553 -1 553 643 567 -1 553 651 667 -1 553 667 643 -1 554 555 578 -1 554 556 557 -1 554 557 555 -1 555 577 579 -1 555 579 578 -1 556 652 653 -1 556 653 557 -1 557 647 569 -1 557 653 671 -1 557 671 647 -1 558 559 562 -1 559 563 562 -1 559 581 599 -1 559 599 563 -1 560 562 563 -1 560 563 561 -1 561 563 609 -1 561 609 583 -1 563 599 609 -1 564 565 586 -1 565 585 587 -1 565 587 586 -1 566 567 642 -1 567 643 642 -1 568 569 646 -1 569 647 646 -1 572 574 575 -1 572 575 573 -1 576 578 579 -1 576 579 577 -1 580 598 599 -1 580 599 581 -1 582 583 608 -1 583 609 608 -1 584 586 587 -1 584 587 585 -1 588 600 601 -1 588 601 589 -1 589 601 603 -1 590 591 592 -1 590 612 613 -1 590 613 591 -1 591 593 592 -1 591 613 593 -1 592 593 674 -1 593 613 675 -1 593 675 674 -1 594 595 596 -1 594 658 659 -1 594 659 595 -1 595 597 596 -1 595 611 597 -1 595 625 611 -1 595 659 625 -1 596 597 610 -1 597 611 610 -1 598 608 609 -1 598 609 599 -1 600 602 603 -1 600 603 601 -1 604 605 606 -1 604 614 615 -1 604 615 605 -1 605 607 606 -1 605 615 607 -1 606 607 664 -1 607 615 641 -1 607 641 665 -1 607 665 664 -1 610 611 612 -1 611 613 612 -1 611 625 627 -1 611 627 629 -1 611 629 613 -1 613 629 631 -1 613 631 675 -1 614 678 679 -1 614 679 615 -1 615 679 681 -1 615 681 687 -1 615 687 641 -1 616 617 618 -1 616 644 645 -1 616 645 617 -1 617 619 618 -1 617 645 619 -1 618 619 694 -1 619 645 669 -1 619 669 695 -1 619 695 694 -1 620 621 622 -1 620 648 649 -1 620 649 621 -1 621 623 622 -1 621 649 623 -1 622 623 698 -1 623 649 673 -1 623 673 699 -1 623 699 698 -1 624 625 660 -1 624 626 627 -1 624 627 625 -1 625 659 661 -1 625 661 660 -1 626 676 677 -1 626 677 627 -1 627 657 629 -1 627 677 657 -1 628 629 656 -1 628 630 631 -1 628 631 629 -1 629 657 656 -1 630 654 655 -1 630 655 631 -1 631 655 675 -1 632 633 634 -1 632 792 793 -1 632 793 633 -1 633 635 634 -1 633 683 635 -1 633 793 683 -1 634 635 682 -1 635 683 682 -1 636 637 638 -1 636 684 685 -1 636 685 637 -1 637 639 638 -1 637 685 639 -1 638 639 798 -1 639 685 799 -1 639 799 798 -1 640 641 686 -1 640 662 663 -1 640 663 641 -1 641 663 665 -1 641 687 686 -1 642 643 644 -1 643 645 644 -1 643 667 669 -1 643 669 645 -1 646 647 648 -1 647 649 648 -1 647 671 673 -1 647 673 649 -1 650 666 667 -1 650 667 651 -1 652 670 671 -1 652 671 653 -1 654 688 689 -1 654 689 655 -1 655 689 675 -1 656 657 690 -1 657 677 691 -1 657 691 690 -1 658 660 661 -1 658 661 659 -1 662 664 665 -1 662 665 663 -1 666 668 669 -1 666 669 667 -1 668 692 693 -1 668 693 669 -1 669 693 695 -1 670 672 673 -1 670 673 671 -1 672 696 697 -1 672 697 673 -1 673 697 699 -1 674 675 706 -1 675 689 707 -1 675 707 706 -1 676 730 731 -1 676 731 677 -1 677 701 691 -1 677 731 701 -1 678 680 681 -1 678 681 679 -1 680 738 739 -1 680 739 681 -1 681 739 687 -1 682 683 684 -1 683 685 684 -1 683 735 685 -1 683 793 735 -1 685 735 737 -1 685 737 799 -1 686 687 742 -1 687 739 743 -1 687 743 742 -1 688 704 705 -1 688 705 689 -1 689 705 707 -1 690 691 702 -1 691 701 703 -1 691 703 702 -1 692 694 695 -1 692 695 693 -1 696 698 699 -1 696 699 697 -1 700 701 770 -1 700 718 719 -1 700 719 701 -1 701 719 703 -1 701 731 771 -1 701 771 770 -1 702 703 708 -1 703 709 708 -1 703 719 709 -1 704 710 711 -1 704 711 705 -1 705 711 729 -1 705 729 707 -1 706 707 728 -1 707 729 728 -1 708 709 712 -1 709 713 712 -1 709 719 733 -1 709 733 745 -1 709 745 713 -1 710 712 713 -1 710 713 711 -1 711 713 755 -1 711 741 729 -1 711 755 741 -1 713 745 755 -1 714 715 720 -1 714 724 725 -1 714 725 715 -1 715 721 720 -1 715 725 757 -1 715 757 721 -1 716 717 722 -1 716 726 727 -1 716 727 717 -1 717 723 722 -1 717 727 759 -1 717 759 723 -1 718 732 733 -1 718 733 719 -1 720 721 746 -1 721 747 746 -1 721 757 763 -1 721 763 747 -1 722 723 748 -1 723 749 748 -1 723 759 765 -1 723 765 749 -1 724 750 751 -1 724 751 725 -1 725 751 767 -1 725 767 757 -1 726 752 753 -1 726 753 727 -1 727 753 769 -1 727 769 759 -1 728 729 740 -1 729 741 740 -1 730 788 789 -1 730 789 731 -1 731 789 771 -1 732 744 745 -1 732 745 733 -1 734 735 794 -1 734 736 737 -1 734 737 735 -1 735 793 795 -1 735 795 794 -1 736 796 797 -1 736 797 737 -1 737 797 799 -1 738 816 817 -1 738 817 739 -1 739 817 821 -1 739 821 743 -1 740 741 754 -1 741 755 754 -1 742 743 760 -1 743 761 760 -1 743 821 761 -1 744 754 755 -1 744 755 745 -1 746 747 780 -1 747 763 773 -1 747 773 781 -1 747 781 780 -1 748 749 782 -1 749 765 775 -1 749 775 783 -1 749 783 782 -1 750 784 785 -1 750 785 751 -1 751 777 767 -1 751 785 777 -1 752 786 787 -1 752 787 753 -1 753 779 769 -1 753 787 779 -1 756 757 766 -1 756 762 763 -1 756 763 757 -1 757 767 766 -1 758 759 768 -1 758 764 765 -1 758 765 759 -1 759 769 768 -1 760 761 820 -1 761 821 820 -1 762 772 773 -1 762 773 763 -1 764 774 775 -1 764 775 765 -1 766 767 776 -1 767 777 776 -1 768 769 778 -1 769 779 778 -1 770 771 790 -1 771 789 791 -1 771 791 790 -1 772 800 801 -1 772 801 773 -1 773 801 781 -1 774 802 803 -1 774 803 775 -1 775 803 783 -1 776 777 804 -1 777 785 805 -1 777 805 804 -1 778 779 806 -1 779 787 807 -1 779 807 806 -1 780 781 838 -1 781 801 839 -1 781 839 838 -1 782 783 840 -1 783 803 841 -1 783 841 840 -1 784 830 831 -1 784 831 785 -1 785 831 805 -1 786 832 833 -1 786 833 787 -1 787 833 807 -1 788 790 791 -1 788 791 789 -1 792 794 795 -1 792 795 793 -1 796 798 799 -1 796 799 797 -1 800 842 843 -1 800 843 801 -1 801 843 839 -1 802 844 845 -1 802 845 803 -1 803 845 841 -1 804 805 834 -1 805 831 835 -1 805 835 834 -1 806 807 836 -1 807 833 837 -1 807 837 836 -1 808 809 810 -1 808 884 885 -1 808 885 809 -1 809 811 810 -1 809 823 811 -1 809 885 823 -1 810 811 822 -1 811 823 822 -1 812 813 814 -1 812 824 825 -1 812 825 813 -1 813 815 814 -1 813 825 815 -1 814 815 870 -1 815 825 871 -1 815 871 870 -1 816 818 819 -1 816 819 817 -1 817 819 893 -1 817 893 821 -1 818 892 893 -1 818 893 819 -1 820 821 864 -1 821 865 864 -1 821 893 865 -1 822 823 824 -1 823 825 824 -1 823 849 851 -1 823 851 825 -1 823 885 849 -1 825 851 871 -1 826 827 828 -1 826 864 865 -1 826 865 827 -1 827 829 828 -1 827 865 829 -1 828 829 920 -1 829 865 893 -1 829 893 921 -1 829 921 920 -1 830 880 881 -1 830 881 831 -1 831 857 835 -1 831 881 857 -1 832 882 883 -1 832 883 833 -1 833 859 837 -1 833 883 859 -1 834 835 856 -1 835 857 856 -1 836 837 858 -1 837 859 858 -1 838 839 876 -1 839 843 853 -1 839 853 877 -1 839 877 876 -1 840 841 878 -1 841 845 855 -1 841 855 879 -1 841 879 878 -1 842 852 853 -1 842 853 843 -1 844 854 855 -1 844 855 845 -1 846 847 860 -1 846 862 863 -1 846 863 847 -1 847 861 860 -1 847 863 923 -1 847 923 861 -1 848 849 886 -1 848 850 851 -1 848 851 849 -1 849 885 887 -1 849 887 886 -1 850 952 953 -1 850 953 851 -1 851 953 955 -1 851 955 959 -1 851 959 871 -1 852 866 867 -1 852 867 853 -1 853 867 877 -1 854 868 869 -1 854 869 855 -1 855 869 879 -1 856 857 872 -1 857 873 872 -1 857 881 873 -1 858 859 874 -1 859 875 874 -1 859 883 875 -1 860 861 898 -1 861 899 898 -1 861 923 933 -1 861 933 899 -1 862 904 905 -1 862 905 863 -1 863 905 939 -1 863 939 923 -1 866 888 889 -1 866 889 867 -1 867 889 877 -1 868 890 891 -1 868 891 869 -1 869 891 879 -1 870 871 958 -1 871 959 958 -1 872 873 894 -1 873 881 895 -1 873 895 894 -1 874 875 896 -1 875 883 897 -1 875 897 896 -1 876 877 924 -1 877 889 925 -1 877 925 924 -1 878 879 926 -1 879 891 927 -1 879 927 926 -1 880 934 935 -1 880 935 881 -1 881 935 895 -1 882 936 937 -1 882 937 883 -1 883 937 897 -1 884 886 887 -1 884 887 885 -1 888 900 901 -1 888 901 889 -1 889 901 925 -1 890 902 903 -1 890 903 891 -1 891 903 927 -1 892 918 919 -1 892 919 893 -1 893 919 921 -1 894 895 906 -1 895 907 906 -1 895 935 907 -1 896 897 908 -1 897 909 908 -1 897 937 909 -1 898 899 982 -1 899 933 957 -1 899 957 983 -1 899 983 982 -1 900 910 911 -1 900 911 901 -1 901 911 929 -1 901 929 925 -1 902 912 913 -1 902 913 903 -1 903 913 931 -1 903 931 927 -1 904 988 989 -1 904 989 905 -1 905 961 939 -1 905 989 961 -1 906 907 914 -1 907 915 914 -1 907 935 949 -1 907 949 915 -1 908 909 916 -1 909 917 916 -1 909 937 951 -1 909 951 917 -1 910 928 929 -1 910 929 911 -1 912 930 931 -1 912 931 913 -1 914 915 948 -1 915 949 948 -1 916 917 950 -1 917 951 950 -1 918 920 921 -1 918 921 919 -1 922 923 938 -1 922 932 933 -1 922 933 923 -1 923 939 938 -1 924 925 928 -1 925 929 928 -1 926 927 930 -1 927 931 930 -1 932 956 957 -1 932 957 933 -1 934 948 949 -1 934 949 935 -1 936 950 951 -1 936 951 937 -1 938 939 960 -1 939 961 960 -1 940 941 942 -1 940 1005 1006 -1 940 1006 941 -1 941 943 942 -1 941 963 943 -1 941 1006 963 -1 942 943 962 -1 943 963 962 -1 944 945 946 -1 944 964 965 -1 944 965 945 -1 945 947 946 -1 945 965 947 -1 946 947 999 -1 947 965 1000 -1 947 1000 999 -1 952 954 955 -1 952 955 953 -1 954 1042 1043 -1 954 1043 955 -1 955 1043 959 -1 956 1001 1002 -1 956 1002 957 -1 957 1002 983 -1 958 959 1034 -1 959 1035 1034 -1 959 1043 1035 -1 960 961 1003 -1 961 989 1004 -1 961 1004 1003 -1 962 963 964 -1 963 965 964 -1 963 985 987 -1 963 987 965 -1 963 1006 985 -1 965 987 1000 -1 966 967 968 -1 966 993 994 -1 966 994 967 -1 967 969 968 -1 967 994 969 -1 968 969 1044 -1 969 994 1045 -1 969 1045 1044 -1 970 971 972 -1 970 997 998 -1 970 998 971 -1 971 973 972 -1 971 998 973 -1 972 973 1046 -1 973 998 1047 -1 973 1047 1046 -1 974 975 976 -1 974 1052 1053 -1 974 1053 975 -1 975 977 976 -1 975 991 977 -1 975 1014 991 -1 975 1053 1014 -1 976 977 990 -1 977 991 990 -1 978 979 980 -1 978 1056 1057 -1 978 1057 979 -1 979 981 980 -1 979 996 981 -1 979 1023 996 -1 979 1057 1023 -1 980 981 995 -1 981 996 995 -1 982 983 1072 -1 983 1002 1073 -1 983 1073 1072 -1 984 985 1007 -1 984 986 987 -1 984 987 985 -1 985 1006 1008 -1 985 1008 1007 -1 986 1132 1133 -1 986 1133 987 -1 987 1129 1000 -1 987 1133 1147 -1 987 1147 1129 -1 988 1068 1069 -1 988 1069 989 -1 989 1069 1004 -1 990 991 992 -1 991 994 992 -1 991 1014 1017 -1 991 1017 1019 -1 991 1019 994 -1 992 994 993 -1 994 1019 1021 -1 994 1021 1045 -1 995 996 997 -1 996 998 997 -1 996 1023 1025 -1 996 1025 1027 -1 996 1027 998 -1 998 1027 1029 -1 998 1029 1047 -1 999 1000 1128 -1 1000 1129 1128 -1 1001 1074 1075 -1 1001 1075 1002 -1 1002 1075 1073 -1 1003 1004 1070 -1 1004 1069 1071 -1 1004 1071 1070 -1 1005 1007 1008 -1 1005 1008 1006 -1 1009 1010 1011 -1 1009 1112 1113 -1 1009 1113 1010 -1 1010 1012 1011 -1 1010 1041 1012 -1 1010 1113 1041 -1 1011 1012 1040 -1 1012 1041 1040 -1 1013 1014 1054 -1 1013 1015 1014 -1 1014 1015 1017 -1 1014 1053 1055 -1 1014 1055 1054 -1 1015 1016 1017 -1 1016 1048 1049 -1 1016 1049 1017 -1 1017 1037 1019 -1 1017 1049 1037 -1 1018 1019 1036 -1 1018 1020 1021 -1 1018 1021 1019 -1 1019 1037 1036 -1 1020 1030 1031 -1 1020 1031 1021 -1 1021 1031 1045 -1 1022 1023 1058 -1 1022 1024 1025 -1 1022 1025 1023 -1 1023 1057 1059 -1 1023 1059 1058 -1 1024 1050 1051 -1 1024 1051 1025 -1 1025 1039 1027 -1 1025 1051 1039 -1 1026 1027 1038 -1 1026 1028 1029 -1 1026 1029 1027 -1 1027 1039 1038 -1 1028 1032 1033 -1 1028 1033 1029 -1 1029 1033 1047 -1 1030 1064 1065 -1 1030 1065 1031 -1 1031 1065 1045 -1 1032 1066 1067 -1 1032 1067 1033 -1 1033 1067 1047 -1 1034 1035 1118 -1 1035 1043 1077 -1 1035 1077 1079 -1 1035 1079 1119 -1 1035 1119 1118 -1 1036 1037 1060 -1 1037 1049 1061 -1 1037 1061 1060 -1 1038 1039 1062 -1 1039 1051 1063 -1 1039 1063 1062 -1 1040 1041 1042 -1 1041 1043 1042 -1 1041 1077 1043 -1 1041 1113 1077 -1 1044 1045 1124 -1 1045 1065 1125 -1 1045 1125 1124 -1 1046 1047 1126 -1 1047 1067 1127 -1 1047 1127 1126 -1 1048 1084 1085 -1 1048 1085 1049 -1 1049 1085 1061 -1 1050 1086 1087 -1 1050 1087 1051 -1 1051 1087 1063 -1 1052 1054 1055 -1 1052 1055 1053 -1 1056 1058 1059 -1 1056 1059 1057 -1 1060 1061 1080 -1 1061 1081 1080 -1 1061 1085 1081 -1 1062 1063 1082 -1 1063 1083 1082 -1 1063 1087 1083 -1 1064 1088 1089 -1 1064 1089 1065 -1 1065 1089 1125 -1 1066 1090 1091 -1 1066 1091 1067 -1 1067 1091 1127 -1 1068 1152 1153 -1 1068 1153 1069 -1 1069 1111 1071 -1 1069 1153 1111 -1 1070 1071 1110 -1 1071 1111 1110 -1 1072 1073 1150 -1 1073 1075 1109 -1 1073 1109 1151 -1 1073 1151 1150 -1 1074 1108 1109 -1 1074 1109 1075 -1 1076 1077 1114 -1 1076 1078 1077 -1 1077 1078 1079 -1 1077 1113 1115 -1 1077 1115 1114 -1 1078 1116 1117 -1 1078 1117 1079 -1 1079 1117 1119 -1 1080 1081 1096 -1 1081 1085 1121 -1 1081 1097 1096 -1 1081 1121 1097 -1 1082 1083 1098 -1 1083 1087 1123 -1 1083 1099 1098 -1 1083 1123 1099 -1 1084 1120 1121 -1 1084 1121 1085 -1 1086 1122 1123 -1 1086 1123 1087 -1 1088 1100 1101 -1 1088 1101 1089 -1 1089 1101 1125 -1 1090 1102 1103 -1 1090 1103 1091 -1 1091 1103 1127 -1 1092 1093 1094 -1 1092 1130 1131 -1 1092 1131 1093 -1 1093 1095 1094 -1 1093 1131 1095 -1 1094 1095 1176 -1 1095 1131 1149 -1 1095 1149 1177 -1 1095 1177 1176 -1 1096 1097 1104 -1 1097 1105 1104 -1 1097 1121 1135 -1 1097 1135 1105 -1 1098 1099 1106 -1 1099 1107 1106 -1 1099 1123 1137 -1 1099 1137 1107 -1 1100 1104 1105 -1 1100 1105 1101 -1 1101 1105 1141 -1 1101 1141 1125 -1 1102 1106 1107 -1 1102 1107 1103 -1 1103 1107 1143 -1 1103 1143 1127 -1 1105 1135 1141 -1 1107 1137 1143 -1 1108 1138 1139 -1 1108 1139 1109 -1 1109 1139 1151 -1 1110 1111 1144 -1 1111 1145 1144 -1 1111 1153 1145 -1 1112 1114 1115 -1 1112 1115 1113 -1 1116 1118 1119 -1 1116 1119 1117 -1 1120 1134 1135 -1 1120 1135 1121 -1 1122 1136 1137 -1 1122 1137 1123 -1 1124 1125 1140 -1 1125 1141 1140 -1 1126 1127 1142 -1 1127 1143 1142 -1 1128 1129 1130 -1 1129 1131 1130 -1 1129 1147 1149 -1 1129 1149 1131 -1 1132 1146 1147 -1 1132 1147 1133 -1 1134 1140 1141 -1 1134 1141 1135 -1 1136 1142 1143 -1 1136 1143 1137 -1 1138 1170 1171 -1 1138 1171 1139 -1 1139 1171 1151 -1 1144 1145 1172 -1 1145 1153 1173 -1 1145 1173 1172 -1 1146 1148 1149 -1 1146 1149 1147 -1 1148 1174 1175 -1 1148 1175 1149 -1 1149 1175 1177 -1 1150 1151 1210 -1 1151 1171 1211 -1 1151 1211 1210 -1 1152 1218 1219 -1 1152 1219 1153 -1 1153 1219 1173 -1 1154 1155 1156 -1 1154 1230 1231 -1 1154 1231 1155 -1 1155 1157 1156 -1 1155 1189 1157 -1 1155 1231 1189 -1 1156 1157 1188 -1 1157 1189 1188 -1 1158 1159 1160 -1 1158 1190 1191 -1 1158 1191 1159 -1 1159 1161 1160 -1 1159 1191 1161 -1 1160 1161 1222 -1 1161 1191 1223 -1 1161 1223 1222 -1 1162 1163 1164 -1 1162 1234 1235 -1 1162 1235 1163 -1 1163 1165 1164 -1 1163 1193 1165 -1 1163 1235 1193 -1 1164 1165 1192 -1 1165 1193 1192 -1 1166 1167 1168 -1 1166 1194 1195 -1 1166 1195 1167 -1 1167 1169 1168 -1 1167 1195 1169 -1 1168 1169 1224 -1 1169 1195 1225 -1 1169 1225 1224 -1 1170 1178 1179 -1 1170 1179 1171 -1 1171 1179 1211 -1 1172 1173 1196 -1 1173 1197 1196 -1 1173 1219 1197 -1 1174 1176 1177 -1 1174 1177 1175 -1 1178 1198 1199 -1 1178 1199 1179 -1 1179 1199 1213 -1 1179 1213 1211 -1 1180 1181 1182 -1 1180 1240 1241 -1 1180 1241 1181 -1 1181 1183 1182 -1 1181 1215 1183 -1 1181 1241 1215 -1 1182 1183 1214 -1 1183 1215 1214 -1 1184 1185 1186 -1 1184 1216 1217 -1 1184 1217 1185 -1 1185 1187 1186 -1 1185 1217 1187 -1 1186 1187 1238 -1 1187 1217 1239 -1 1187 1239 1238 -1 1188 1189 1191 -1 1188 1191 1190 -1 1189 1203 1205 -1 1189 1205 1191 -1 1189 1231 1203 -1 1191 1205 1223 -1 1192 1193 1195 -1 1192 1195 1194 -1 1193 1207 1209 -1 1193 1209 1195 -1 1193 1235 1207 -1 1195 1209 1225 -1 1196 1197 1200 -1 1197 1201 1200 -1 1197 1219 1221 -1 1197 1221 1201 -1 1198 1212 1213 -1 1198 1213 1199 -1 1200 1201 1220 -1 1201 1221 1220 -1 1202 1203 1232 -1 1202 1204 1205 -1 1202 1205 1203 -1 1203 1231 1233 -1 1203 1233 1232 -1 1204 1288 1289 -1 1204 1289 1205 -1 1205 1281 1223 -1 1205 1289 1303 -1 1205 1303 1281 -1 1206 1207 1236 -1 1206 1208 1209 -1 1206 1209 1207 -1 1207 1235 1237 -1 1207 1237 1236 -1 1208 1290 1291 -1 1208 1291 1209 -1 1209 1285 1225 -1 1209 1291 1307 -1 1209 1307 1285 -1 1210 1211 1212 -1 1211 1213 1212 -1 1214 1215 1216 -1 1215 1217 1216 -1 1215 1227 1229 -1 1215 1229 1217 -1 1215 1241 1227 -1 1217 1229 1239 -1 1218 1220 1221 -1 1218 1221 1219 -1 1222 1223 1280 -1 1223 1281 1280 -1 1224 1225 1284 -1 1225 1285 1284 -1 1226 1227 1242 -1 1226 1228 1229 -1 1226 1229 1227 -1 1227 1241 1243 -1 1227 1243 1242 -1 1228 1318 1319 -1 1228 1319 1229 -1 1229 1315 1239 -1 1229 1319 1323 -1 1229 1323 1315 -1 1230 1232 1233 -1 1230 1233 1231 -1 1234 1236 1237 -1 1234 1237 1235 -1 1238 1239 1314 -1 1239 1315 1314 -1 1240 1242 1243 -1 1240 1243 1241 -1 1244 1245 1252 -1 1244 1246 1245 -1 1245 1246 1247 -1 1245 1247 1265 -1 1245 1253 1252 -1 1245 1265 1253 -1 1246 1272 1273 -1 1246 1273 1247 -1 1247 1271 1265 -1 1247 1273 1271 -1 1248 1249 1250 -1 1248 1262 1263 -1 1248 1263 1249 -1 1249 1251 1250 -1 1249 1263 1269 -1 1249 1269 1251 -1 1250 1251 1266 -1 1251 1267 1266 -1 1251 1269 1267 -1 1252 1253 1264 -1 1253 1265 1264 -1 1254 1255 1256 -1 1254 1282 1283 -1 1254 1283 1255 -1 1255 1257 1256 -1 1255 1283 1257 -1 1256 1257 1328 -1 1257 1283 1305 -1 1257 1305 1329 -1 1257 1329 1328 -1 1258 1259 1260 -1 1258 1286 1287 -1 1258 1287 1259 -1 1259 1261 1260 -1 1259 1287 1261 -1 1260 1261 1332 -1 1261 1287 1309 -1 1261 1309 1333 -1 1261 1333 1332 -1 1262 1268 1269 -1 1262 1269 1263 -1 1264 1265 1270 -1 1265 1271 1270 -1 1266 1267 1292 -1 1267 1269 1275 -1 1267 1275 1293 -1 1267 1293 1292 -1 1268 1274 1275 -1 1268 1275 1269 -1 1270 1271 1294 -1 1271 1273 1295 -1 1271 1295 1294 -1 1272 1340 1341 -1 1272 1341 1273 -1 1273 1313 1295 -1 1273 1341 1313 -1 1274 1300 1301 -1 1274 1301 1275 -1 1275 1301 1293 -1 1276 1277 1278 -1 1276 1316 1317 -1 1276 1317 1277 -1 1277 1279 1278 -1 1277 1317 1279 -1 1278 1279 1348 -1 1279 1317 1325 -1 1279 1325 1349 -1 1279 1349 1348 -1 1280 1281 1282 -1 1281 1283 1282 -1 1281 1303 1305 -1 1281 1305 1283 -1 1284 1285 1286 -1 1285 1287 1286 -1 1285 1307 1309 -1 1285 1309 1287 -1 1288 1302 1303 -1 1288 1303 1289 -1 1290 1306 1307 -1 1290 1307 1291 -1 1292 1293 1310 -1 1293 1301 1311 -1 1293 1311 1310 -1 1294 1295 1312 -1 1295 1313 1312 -1 1296 1297 1298 -1 1296 1342 1343 -1 1296 1343 1297 -1 1297 1299 1298 -1 1297 1343 1299 -1 1298 1299 1344 -1 1299 1343 1345 -1 1299 1345 1344 -1 1300 1320 1321 -1 1300 1321 1301 -1 1301 1321 1311 -1 1302 1304 1305 -1 1302 1305 1303 -1 1304 1326 1327 -1 1304 1327 1305 -1 1305 1327 1329 -1 1306 1308 1309 -1 1306 1309 1307 -1 1308 1330 1331 -1 1308 1331 1309 -1 1309 1331 1333 -1 1310 1311 1338 -1 1311 1321 1339 -1 1311 1339 1338 -1 1312 1313 1334 -1 1313 1335 1334 -1 1313 1341 1335 -1 1314 1315 1316 -1 1315 1317 1316 -1 1315 1323 1325 -1 1315 1325 1317 -1 1318 1322 1323 -1 1318 1323 1319 -1 1320 1336 1337 -1 1320 1337 1321 -1 1321 1337 1339 -1 1322 1324 1325 -1 1322 1325 1323 -1 1324 1346 1347 -1 1324 1347 1325 -1 1325 1347 1349 -1 1326 1328 1329 -1 1326 1329 1327 -1 1330 1332 1333 -1 1330 1333 1331 -1 1334 1335 1354 -1 1335 1341 1355 -1 1335 1355 1354 -1 1336 1350 1351 -1 1336 1351 1337 -1 1337 1351 1339 -1 1338 1339 1402 -1 1339 1351 1403 -1 1339 1403 1402 -1 1340 1372 1373 -1 1340 1373 1341 -1 1341 1373 1355 -1 1342 1358 1359 -1 1342 1359 1343 -1 1343 1353 1345 -1 1343 1357 1353 -1 1343 1359 1357 -1 1344 1345 1352 -1 1345 1353 1352 -1 1346 1348 1349 -1 1346 1349 1347 -1 1350 1368 1369 -1 1350 1369 1351 -1 1351 1369 1403 -1 1352 1353 1370 -1 1353 1357 1389 -1 1353 1371 1370 -1 1353 1389 1371 -1 1354 1355 1378 -1 1355 1373 1379 -1 1355 1379 1378 -1 1356 1357 1394 -1 1356 1388 1389 -1 1356 1389 1357 -1 1357 1359 1395 -1 1357 1395 1394 -1 1358 1380 1381 -1 1358 1381 1359 -1 1359 1381 1395 -1 1360 1361 1362 -1 1360 1410 1411 -1 1360 1411 1361 -1 1361 1363 1362 -1 1361 1385 1363 -1 1361 1411 1385 -1 1362 1363 1384 -1 1363 1385 1384 -1 1364 1365 1366 -1 1364 1386 1387 -1 1364 1387 1365 -1 1365 1367 1366 -1 1365 1387 1367 -1 1366 1367 1408 -1 1367 1387 1409 -1 1367 1409 1408 -1 1368 1374 1375 -1 1368 1375 1369 -1 1369 1375 1403 -1 1370 1371 1376 -1 1371 1377 1376 -1 1371 1389 1405 -1 1371 1405 1377 -1 1372 1406 1407 -1 1372 1407 1373 -1 1373 1407 1379 -1 1374 1382 1383 -1 1374 1383 1375 -1 1375 1383 1419 -1 1375 1419 1403 -1 1376 1377 1382 -1 1377 1383 1382 -1 1377 1405 1417 -1 1377 1417 1383 -1 1378 1379 1390 -1 1379 1391 1390 -1 1379 1407 1391 -1 1380 1392 1393 -1 1380 1393 1381 -1 1381 1393 1415 -1 1381 1415 1395 -1 1383 1417 1419 -1 1384 1385 1386 -1 1385 1387 1386 -1 1385 1397 1399 -1 1385 1399 1387 -1 1385 1411 1397 -1 1387 1399 1409 -1 1388 1404 1405 -1 1388 1405 1389 -1 1390 1391 1400 -1 1391 1401 1400 -1 1391 1407 1421 -1 1391 1421 1401 -1 1392 1400 1401 -1 1392 1401 1393 -1 1393 1401 1423 -1 1393 1423 1415 -1 1394 1395 1414 -1 1395 1415 1414 -1 1396 1397 1412 -1 1396 1398 1399 -1 1396 1399 1397 -1 1397 1411 1413 -1 1397 1413 1412 -1 1398 1442 1443 -1 1398 1443 1399 -1 1399 1439 1409 -1 1399 1443 1451 -1 1399 1451 1439 -1 1401 1421 1425 -1 1401 1425 1423 -1 1402 1403 1418 -1 1403 1419 1418 -1 1404 1416 1417 -1 1404 1417 1405 -1 1406 1420 1421 -1 1406 1421 1407 -1 1408 1409 1438 -1 1409 1439 1438 -1 1410 1412 1413 -1 1410 1413 1411 -1 1414 1415 1422 -1 1415 1423 1422 -1 1416 1418 1419 -1 1416 1419 1417 -1 1420 1424 1425 -1 1420 1425 1421 -1 1422 1423 1424 -1 1423 1425 1424 -1 1426 1427 1428 -1 1426 1440 1441 -1 1426 1441 1427 -1 1427 1429 1428 -1 1427 1441 1429 -1 1428 1429 1466 -1 1429 1441 1453 -1 1429 1453 1467 -1 1429 1467 1466 -1 1430 1431 1432 -1 1430 1512 1513 -1 1430 1513 1431 -1 1431 1433 1432 -1 1431 1447 1433 -1 1431 1513 1447 -1 1432 1433 1454 -1 1433 1447 1455 -1 1433 1455 1454 -1 1434 1435 1436 -1 1434 1444 1445 -1 1434 1445 1435 -1 1435 1437 1436 -1 1435 1445 1449 -1 1435 1449 1437 -1 1436 1437 1458 -1 1437 1449 1457 -1 1437 1457 1459 -1 1437 1459 1458 -1 1438 1439 1440 -1 1439 1441 1440 -1 1439 1451 1453 -1 1439 1453 1441 -1 1442 1450 1451 -1 1442 1451 1443 -1 1444 1448 1449 -1 1444 1449 1445 -1 1446 1447 1514 -1 1446 1460 1461 -1 1446 1461 1447 -1 1447 1461 1455 -1 1447 1513 1515 -1 1447 1515 1514 -1 1448 1456 1457 -1 1448 1457 1449 -1 1450 1452 1453 -1 1450 1453 1451 -1 1452 1464 1465 -1 1452 1465 1453 -1 1453 1465 1467 -1 1454 1455 1472 -1 1455 1461 1471 -1 1455 1471 1473 -1 1455 1473 1472 -1 1456 1462 1463 -1 1456 1463 1457 -1 1457 1463 1459 -1 1458 1459 1476 -1 1459 1463 1469 -1 1459 1469 1477 -1 1459 1477 1476 -1 1460 1470 1471 -1 1460 1471 1461 -1 1462 1468 1469 -1 1462 1469 1463 -1 1464 1466 1467 -1 1464 1467 1465 -1 1468 1474 1475 -1 1468 1475 1469 -1 1469 1475 1477 -1 1470 1482 1483 -1 1470 1483 1471 -1 1471 1483 1473 -1 1472 1473 1478 -1 1473 1479 1478 -1 1473 1483 1479 -1 1474 1480 1481 -1 1474 1481 1475 -1 1475 1481 1477 -1 1476 1477 1486 -1 1477 1481 1487 -1 1477 1487 1486 -1 1478 1479 1484 -1 1479 1483 1499 -1 1479 1485 1484 -1 1479 1499 1485 -1 1480 1488 1489 -1 1480 1489 1481 -1 1481 1489 1487 -1 1482 1498 1499 -1 1482 1499 1483 -1 1484 1485 1490 -1 1485 1491 1490 -1 1485 1499 1503 -1 1485 1503 1491 -1 1486 1487 1500 -1 1487 1489 1501 -1 1487 1501 1500 -1 1488 1492 1493 -1 1488 1493 1489 -1 1489 1493 1501 -1 1490 1491 1494 -1 1491 1495 1494 -1 1491 1503 1505 -1 1491 1505 1495 -1 1492 1496 1497 -1 1492 1497 1493 -1 1493 1497 1507 -1 1493 1507 1501 -1 1494 1495 1496 -1 1495 1497 1496 -1 1495 1505 1509 -1 1495 1509 1497 -1 1497 1509 1511 -1 1497 1511 1507 -1 1498 1502 1503 -1 1498 1503 1499 -1 1500 1501 1506 -1 1501 1507 1506 -1 1502 1504 1505 -1 1502 1505 1503 -1 1504 1508 1509 -1 1504 1509 1505 -1 1506 1507 1510 -1 1507 1511 1510 -1 1508 1510 1511 -1 1508 1511 1509 -1 1512 1514 1515 -1 1512 1515 1513 -1 "
						                >
							<Coordinate USE="coords_ME_OpenSCAD_Model" />
						</IndexedFaceSet>
					</Shape>
				</Group>
			</Transform>
		</Transform>
	</Scene>
</X3D>