<?xml version="1.0" encoding="UTF-8"?>
<!DOCTYPE X3D PUBLIC "ISO//Web3D//DTD X3D 3.0//EN" "http://www.web3d.org/specifications/x3d-3.0.dtd">
<X3D version="3.0" profile="Immersive" xmlns:xsd="http://www.w3.org/2001/XMLSchema-instance" xsd:noNamespaceSchemaLocation="http://www.web3d.org/specifications/x3d-3.0.xsd">
	<head>
		<meta name="filename" content="C04-21208A.x3d" />
		<meta name="created" content="2026-02-22 13:40:10" />
		<meta name="generator" content="Blender 5.0.1" />
		<meta name="translator" content="Web3D X3D/VRML2 format v2.5.1" />
	</head>
	<Scene>
		<NavigationInfo headlight="true"
		                visibilityLimit="0.0"
		                type='"EXAMINE", "ANY"'
		                avatarSize="0.25, 1.75, 0.75"
		                />
		<Transform DEF="OpenSCAD_Model_TRANSFORM"
		           translation="0.000000 0.000000 0.000000"
		           scale="0.001000 0.001000 0.001000"
		           rotation="-1.000000 0.000000 0.000000 1.570796"
		           >
			<Transform DEF="OpenSCAD_Model_ifs_TRANSFORM"
			           translation="0.000000 0.000000 0.000000"
			           scale="1.000000 1.000000 1.000000"
			           rotation="0.000000 1.000000 0.000000 0.000000"
			           >
				<Group DEF="group_ME_OpenSCAD_Model">
					<Shape>
						<Appearance>
							<Material DEF="MA_Color_1"
							          diffuseColor="0.000 0.000 0.000"
							          specularColor="0.401 0.401 0.401"
							          emissiveColor="0.000 0.000 0.000"
							          ambientIntensity="0.000"
							          shininess="0.500"
							          transparency="1.000"
							          />
						</Appearance>
						<IndexedFaceSet solid="false"
						                coordIndex="0 1 3 -1 0 2 1503 -1 0 3 2 -1 0 1501 1502 -1 0 1502 1 -1 0 1503 1501 -1 1 4 6 -1 1 6 8 -1 1 8 10 -1 1 10 3 -1 1 26 4 -1 1 38 40 -1 1 40 26 -1 1 66 38 -1 1 112 66 -1 1 202 112 -1 1 338 202 -1 1 348 338 -1 1 500 348 -1 1 502 500 -1 1 672 502 -1 1 674 672 -1 1 788 674 -1 1 798 788 -1 1 1502 798 -1 2 3 1503 -1 3 10 20 -1 3 20 74 -1 3 74 138 -1 3 138 298 -1 3 298 460 -1 3 420 440 -1 3 438 420 -1 3 440 462 -1 3 460 438 -1 3 462 498 -1 3 498 542 -1 3 542 576 -1 3 576 1504 -1 3 1504 1503 -1 4 26 28 -1 4 28 94 -1 4 94 98 -1 4 96 22 -1 4 98 108 -1 4 104 96 -1 4 108 104 -1 6 12 14 -1 6 14 8 -1 16 24 18 -1 18 24 32 -1 20 42 74 -1 22 32 24 -1 22 96 100 -1 22 100 32 -1 26 40 30 -1 28 46 374 -1 28 102 94 -1 28 116 102 -1 28 160 116 -1 28 178 160 -1 28 374 178 -1 30 40 50 -1 32 100 34 -1 34 62 64 -1 34 64 78 -1 34 100 110 -1 34 110 154 -1 34 154 188 -1 34 188 222 -1 34 222 256 -1 34 256 282 -1 34 282 62 -1 36 52 44 -1 40 48 50 -1 44 52 70 -1 44 58 60 -1 44 60 46 -1 44 70 58 -1 46 60 372 -1 46 372 374 -1 54 68 88 -1 54 88 56 -1 56 88 72 -1 60 82 372 -1 62 282 284 -1 62 284 132 -1 64 76 78 -1 66 112 114 -1 66 114 156 -1 66 156 158 -1 66 158 68 -1 68 158 88 -1 72 88 80 -1 80 84 86 -1 80 86 82 -1 80 88 84 -1 82 86 370 -1 82 370 406 -1 82 406 372 -1 86 150 370 -1 90 134 92 -1 92 134 352 -1 92 300 302 -1 92 302 136 -1 92 352 430 -1 92 430 300 -1 104 108 118 -1 106 172 148 -1 108 152 118 -1 118 152 162 -1 120 128 246 -1 120 246 124 -1 122 130 248 -1 122 248 126 -1 124 246 140 -1 126 248 142 -1 128 144 246 -1 130 146 248 -1 132 284 134 -1 134 284 352 -1 136 296 298 -1 136 298 138 -1 136 302 296 -1 140 246 164 -1 142 248 166 -1 144 168 246 -1 146 170 248 -1 148 172 218 -1 148 194 196 -1 148 196 150 -1 148 218 194 -1 150 196 368 -1 150 368 370 -1 152 186 162 -1 162 186 220 -1 162 220 254 -1 162 254 280 -1 162 280 180 -1 164 246 190 -1 166 248 192 -1 168 182 246 -1 170 184 248 -1 174 204 286 -1 174 286 176 -1 176 270 236 -1 176 274 270 -1 176 286 274 -1 178 374 224 -1 180 280 226 -1 182 206 258 -1 182 258 246 -1 184 208 260 -1 184 260 248 -1 190 246 198 -1 192 248 200 -1 196 272 368 -1 198 246 210 -1 200 248 212 -1 202 338 204 -1 204 338 286 -1 206 214 258 -1 208 216 260 -1 210 238 228 -1 210 246 238 -1 212 240 230 -1 212 248 240 -1 214 232 258 -1 216 234 260 -1 224 374 262 -1 226 280 264 -1 232 242 258 -1 234 244 260 -1 242 250 258 -1 244 252 260 -1 250 266 278 -1 250 278 258 -1 252 268 282 -1 252 282 260 -1 254 258 278 -1 254 278 280 -1 256 260 282 -1 262 288 290 -1 262 290 304 -1 262 304 306 -1 262 306 266 -1 262 374 288 -1 264 280 292 -1 264 292 294 -1 264 294 308 -1 264 308 310 -1 264 310 268 -1 266 306 278 -1 268 310 282 -1 270 274 276 -1 270 276 272 -1 272 276 368 -1 276 336 368 -1 280 350 292 -1 288 374 360 -1 292 350 364 -1 296 302 316 -1 298 448 460 -1 300 430 490 -1 300 490 556 -1 300 556 628 -1 300 628 696 -1 300 696 732 -1 300 732 464 -1 302 314 316 -1 312 358 334 -1 318 362 320 -1 320 362 354 -1 322 340 324 -1 322 344 376 -1 322 376 392 -1 322 380 340 -1 322 392 408 -1 322 400 380 -1 322 408 416 -1 322 412 400 -1 322 416 412 -1 326 366 328 -1 328 366 356 -1 330 346 378 -1 330 378 394 -1 330 394 410 -1 330 410 418 -1 330 418 332 -1 332 418 342 -1 334 358 432 -1 334 432 336 -1 336 432 612 -1 336 468 368 -1 336 504 468 -1 336 584 504 -1 336 612 614 -1 336 614 584 -1 342 414 382 -1 342 418 414 -1 348 500 422 -1 350 428 364 -1 354 362 396 -1 356 366 398 -1 360 374 474 -1 360 474 476 -1 360 476 478 -1 360 478 362 -1 362 478 396 -1 364 428 482 -1 364 482 554 -1 364 484 486 -1 364 486 366 -1 364 554 624 -1 364 624 484 -1 366 486 398 -1 370 404 406 -1 382 414 402 -1 384 466 386 -1 386 466 454 -1 388 434 390 -1 388 436 492 -1 388 492 522 -1 388 494 434 -1 388 522 548 -1 388 526 494 -1 388 548 552 -1 388 550 526 -1 388 552 550 -1 396 478 424 -1 398 486 426 -1 424 478 514 -1 424 514 450 -1 426 486 518 -1 426 518 452 -1 428 456 480 -1 428 480 482 -1 430 458 488 -1 430 488 490 -1 432 442 612 -1 442 512 528 -1 442 528 530 -1 442 530 612 -1 444 470 506 -1 444 472 446 -1 444 506 546 -1 444 508 472 -1 444 546 508 -1 448 496 460 -1 448 570 496 -1 450 514 456 -1 452 518 520 -1 452 520 458 -1 454 466 524 -1 456 514 516 -1 456 516 480 -1 458 520 488 -1 464 634 636 -1 464 636 466 -1 464 732 766 -1 464 766 824 -1 464 824 860 -1 464 860 908 -1 464 908 954 -1 464 954 634 -1 466 636 524 -1 468 504 506 -1 468 506 470 -1 472 508 510 -1 472 510 474 -1 474 510 476 -1 476 510 590 -1 476 590 560 -1 484 624 692 -1 484 692 730 -1 484 730 564 -1 496 570 540 -1 502 592 580 -1 502 600 592 -1 502 606 600 -1 502 672 606 -1 506 544 546 -1 512 558 528 -1 524 636 568 -1 530 594 612 -1 532 562 534 -1 534 562 652 -1 536 566 538 -1 538 566 654 -1 540 570 640 -1 540 640 578 -1 554 622 624 -1 554 644 622 -1 556 626 628 -1 556 648 626 -1 560 590 652 -1 560 652 562 -1 564 654 566 -1 564 730 764 -1 564 764 822 -1 564 822 654 -1 568 636 678 -1 568 678 582 -1 570 604 638 -1 570 638 640 -1 572 586 614 -1 572 588 574 -1 572 614 632 -1 572 616 588 -1 572 632 616 -1 576 596 1504 -1 578 640 598 -1 582 678 604 -1 584 614 586 -1 588 616 618 -1 588 618 590 -1 590 618 652 -1 592 600 602 -1 592 602 594 -1 594 602 806 -1 594 682 612 -1 594 698 682 -1 594 790 698 -1 594 806 808 -1 594 808 790 -1 596 608 1504 -1 598 640 778 -1 598 778 1504 -1 598 1504 610 -1 602 662 806 -1 604 678 638 -1 608 620 1504 -1 610 1504 620 -1 614 630 632 -1 618 688 652 -1 622 644 646 -1 626 648 650 -1 634 954 956 -1 634 956 772 -1 636 676 678 -1 642 680 660 -1 652 688 664 -1 654 822 668 -1 656 684 700 -1 656 686 658 -1 656 700 726 -1 656 702 686 -1 656 726 702 -1 660 680 728 -1 660 728 662 -1 662 728 806 -1 664 688 704 -1 664 704 768 -1 664 706 710 -1 664 710 666 -1 664 714 706 -1 664 734 714 -1 664 768 734 -1 666 710 690 -1 668 694 670 -1 668 708 712 -1 668 712 694 -1 668 716 708 -1 668 736 716 -1 668 822 858 -1 668 858 906 -1 668 906 736 -1 674 788 722 -1 682 698 700 -1 682 700 684 -1 686 702 704 -1 686 704 688 -1 690 710 730 -1 690 730 692 -1 694 712 732 -1 694 732 696 -1 700 724 726 -1 704 796 768 -1 718 774 830 -1 718 776 720 -1 718 830 840 -1 718 840 776 -1 728 742 806 -1 736 906 950 -1 736 950 770 -1 738 748 818 -1 738 818 836 -1 738 836 854 -1 738 854 872 -1 738 872 744 -1 740 750 894 -1 740 894 746 -1 742 800 802 -1 742 802 804 -1 742 804 806 -1 744 872 888 -1 744 888 896 -1 744 896 752 -1 746 894 754 -1 748 756 818 -1 750 758 894 -1 752 896 780 -1 754 894 782 -1 756 784 818 -1 758 786 894 -1 760 792 808 -1 760 794 762 -1 760 808 846 -1 760 810 794 -1 760 846 810 -1 768 796 814 -1 770 950 952 -1 770 952 816 -1 772 886 774 -1 772 956 980 -1 772 980 886 -1 774 842 830 -1 774 886 842 -1 776 840 880 -1 776 880 778 -1 778 880 974 -1 778 974 1068 -1 778 1068 1504 -1 780 896 930 -1 780 930 826 -1 782 894 828 -1 786 820 894 -1 790 808 792 -1 794 810 812 -1 794 812 796 -1 796 812 814 -1 798 900 870 -1 798 922 924 -1 798 924 948 -1 798 926 900 -1 798 948 926 -1 798 1502 922 -1 800 848 802 -1 804 902 806 -1 806 902 928 -1 806 928 934 -1 808 844 846 -1 812 940 814 -1 814 940 862 -1 816 952 864 -1 820 838 912 -1 820 912 894 -1 826 930 832 -1 828 894 834 -1 832 930 850 -1 834 894 852 -1 838 856 912 -1 850 882 866 -1 850 930 882 -1 852 884 868 -1 852 894 884 -1 856 874 912 -1 862 940 964 -1 862 964 1046 -1 862 1046 1392 -1 862 1392 1424 -1 862 1424 916 -1 864 952 918 -1 874 890 912 -1 876 936 960 -1 876 938 878 -1 876 960 992 -1 876 962 938 -1 876 992 962 -1 882 930 892 -1 890 898 912 -1 892 930 910 -1 898 932 954 -1 898 954 912 -1 900 926 928 -1 900 928 902 -1 904 920 1182 -1 904 1182 914 -1 906 910 950 -1 908 912 954 -1 910 930 950 -1 914 1182 942 -1 916 966 968 -1 916 968 930 -1 916 1410 1412 -1 916 1412 1451 -1 916 1424 1410 -1 916 1451 966 -1 918 952 970 -1 918 970 972 -1 918 972 986 -1 918 986 988 -1 918 988 932 -1 920 944 1182 -1 922 1502 1000 -1 924 946 948 -1 928 994 934 -1 930 968 950 -1 932 988 954 -1 934 958 960 -1 934 960 936 -1 934 994 958 -1 938 962 964 -1 938 964 940 -1 942 1182 996 -1 944 998 1182 -1 950 968 984 -1 952 1032 970 -1 956 1034 1230 -1 956 1064 980 -1 956 1136 1064 -1 956 1202 1136 -1 956 1230 1202 -1 958 994 1040 -1 960 990 992 -1 966 1451 1048 -1 968 982 984 -1 970 1032 1052 -1 976 1002 978 -1 978 1002 1116 -1 994 1084 1086 -1 994 1086 1040 -1 994 1112 1084 -1 996 1182 1070 -1 998 1066 1182 -1 1000 1116 1002 -1 1000 1502 1116 -1 1004 1050 1006 -1 1006 1050 1036 -1 1008 1024 1010 -1 1008 1028 1056 -1 1008 1056 1072 -1 1008 1060 1024 -1 1008 1072 1088 -1 1008 1080 1060 -1 1008 1088 1096 -1 1008 1092 1080 -1 1008 1096 1092 -1 1012 1054 1014 -1 1014 1054 1038 -1 1016 1026 1018 -1 1016 1030 1058 -1 1016 1058 1074 -1 1016 1062 1026 -1 1016 1074 1090 -1 1016 1082 1062 -1 1016 1090 1098 -1 1016 1094 1082 -1 1016 1098 1094 -1 1020 1042 1022 -1 1022 1042 1332 -1 1022 1332 1350 -1 1022 1350 1392 -1 1022 1392 1044 -1 1032 1108 1052 -1 1034 1110 1230 -1 1036 1050 1076 -1 1038 1054 1078 -1 1040 1086 1160 -1 1040 1160 1042 -1 1042 1160 1170 -1 1042 1170 1222 -1 1042 1222 1262 -1 1042 1262 1332 -1 1044 1392 1046 -1 1048 1138 1140 -1 1048 1140 1050 -1 1048 1451 1138 -1 1050 1140 1076 -1 1052 1108 1144 -1 1052 1144 1146 -1 1052 1146 1148 -1 1052 1148 1054 -1 1054 1148 1078 -1 1066 1102 1196 -1 1066 1196 1182 -1 1068 1134 1504 -1 1070 1182 1100 -1 1076 1140 1104 -1 1078 1148 1106 -1 1084 1112 1114 -1 1100 1182 1122 -1 1102 1128 1196 -1 1104 1140 1172 -1 1104 1172 1118 -1 1106 1148 1176 -1 1106 1176 1120 -1 1108 1124 1142 -1 1108 1142 1144 -1 1110 1126 1150 -1 1110 1150 1152 -1 1110 1152 1230 -1 1116 1502 1130 -1 1118 1172 1124 -1 1120 1176 1126 -1 1122 1162 1154 -1 1122 1182 1162 -1 1124 1172 1174 -1 1124 1174 1142 -1 1126 1176 1178 -1 1126 1178 1150 -1 1128 1156 1196 -1 1130 1158 1132 -1 1130 1164 1166 -1 1130 1166 1200 -1 1130 1168 1158 -1 1130 1200 1168 -1 1130 1502 1164 -1 1134 1194 1504 -1 1138 1451 1214 -1 1144 1206 1146 -1 1146 1206 1218 -1 1152 1208 1230 -1 1156 1180 1196 -1 1158 1168 1170 -1 1158 1170 1160 -1 1164 1502 1224 -1 1166 1198 1200 -1 1180 1184 1196 -1 1184 1204 1196 -1 1186 1216 1188 -1 1188 1216 1272 -1 1190 1220 1192 -1 1192 1220 1274 -1 1194 1196 1234 -1 1194 1234 1504 -1 1196 1204 1280 -1 1196 1232 1234 -1 1196 1280 1282 -1 1196 1282 1232 -1 1202 1228 1204 -1 1202 1230 1228 -1 1204 1228 1236 -1 1204 1236 1384 -1 1204 1326 1280 -1 1204 1342 1326 -1 1204 1364 1342 -1 1204 1376 1364 -1 1204 1384 1376 -1 1206 1238 1240 -1 1206 1240 1218 -1 1206 1264 1238 -1 1208 1242 1244 -1 1208 1244 1230 -1 1208 1268 1242 -1 1210 1226 1212 -1 1212 1226 1302 -1 1214 1272 1216 -1 1214 1451 1272 -1 1218 1240 1274 -1 1218 1274 1220 -1 1222 1260 1262 -1 1222 1298 1260 -1 1224 1302 1226 -1 1224 1502 1302 -1 1230 1244 1256 -1 1232 1282 1246 -1 1234 1250 1504 -1 1236 1248 1296 -1 1236 1296 1318 -1 1236 1318 1338 -1 1236 1338 1362 -1 1236 1362 1374 -1 1236 1374 1384 -1 1238 1264 1266 -1 1240 1290 1274 -1 1240 1312 1497 -1 1240 1497 1290 -1 1242 1268 1270 -1 1244 1316 1256 -1 1246 1258 1252 -1 1246 1282 1328 -1 1246 1284 1258 -1 1246 1304 1284 -1 1246 1320 1304 -1 1246 1328 1336 -1 1246 1334 1320 -1 1246 1336 1354 -1 1246 1352 1334 -1 1246 1354 1360 -1 1246 1358 1352 -1 1246 1360 1366 -1 1246 1366 1358 -1 1248 1254 1278 -1 1248 1278 1296 -1 1250 1276 1504 -1 1256 1316 1324 -1 1260 1298 1300 -1 1272 1451 1286 -1 1276 1294 1504 -1 1286 1310 1288 -1 1286 1451 1310 -1 1290 1314 1292 -1 1290 1497 1314 -1 1294 1322 1504 -1 1302 1502 1306 -1 1306 1330 1308 -1 1306 1344 1346 -1 1306 1346 1370 -1 1306 1348 1330 -1 1306 1370 1348 -1 1306 1502 1344 -1 1310 1451 1312 -1 1312 1451 1502 -1 1312 1502 1497 -1 1314 1497 1316 -1 1316 1356 1324 -1 1316 1390 1356 -1 1316 1414 1390 -1 1316 1497 1414 -1 1322 1386 1504 -1 1330 1348 1350 -1 1330 1350 1332 -1 1340 1378 1372 -1 1344 1502 1394 -1 1346 1368 1370 -1 1372 1378 1398 -1 1372 1398 1388 -1 1380 1396 1382 -1 1382 1396 1427 -1 1386 1402 1420 -1 1386 1420 1504 -1 1388 1398 1463 -1 1388 1463 1400 -1 1390 1414 1416 -1 1390 1416 1404 -1 1392 1422 1424 -1 1394 1427 1396 -1 1394 1502 1427 -1 1398 1406 1463 -1 1400 1418 1402 -1 1400 1429 1418 -1 1400 1463 1469 -1 1400 1469 1475 -1 1400 1475 1479 -1 1400 1479 1429 -1 1402 1418 1420 -1 1404 1416 1439 -1 1404 1439 1408 -1 1406 1408 1457 -1 1406 1457 1463 -1 1408 1439 1457 -1 1410 1424 1425 -1 1420 1443 1504 -1 1427 1502 1435 -1 1429 1441 1433 -1 1429 1447 1441 -1 1429 1453 1447 -1 1429 1459 1453 -1 1429 1465 1459 -1 1429 1473 1465 -1 1429 1477 1473 -1 1429 1479 1481 -1 1429 1481 1477 -1 1431 1499 1445 -1 1435 1449 1437 -1 1435 1502 1449 -1 1443 1461 1504 -1 1445 1499 1455 -1 1449 1502 1451 -1 1455 1499 1467 -1 1461 1471 1504 -1 1467 1499 1483 -1 1471 1485 1504 -1 1483 1499 1487 -1 1485 1491 1504 -1 1487 1499 1489 -1 1489 1499 1504 -1 1489 1504 1493 -1 1491 1495 1504 -1 1493 1504 1495 -1 1497 1502 1499 -1 1499 1502 1504 -1 1501 1503 1502 -1 1502 1503 1504 -1 "
						                >
							<Coordinate DEF="coords_ME_OpenSCAD_Model"
							            point="0.000000 0.000000 0.000000 0.000000 0.000000 0.330000 0.000000 1.096000 0.000000 0.000000 1.096000 0.330000 0.067524 0.782857 0.330000 0.067524 0.782857 0.530000 0.067524 0.787921 0.330000 0.067524 0.787921 0.530000 0.067524 0.905935 0.330000 0.067524 0.905935 0.530000 0.067524 0.911000 0.330000 0.067524 0.911000 0.530000 0.083960 0.790501 0.330000 0.083960 0.790501 0.530000 0.083960 0.903450 0.330000 0.083960 0.903450 0.530000 0.093993 0.790501 0.330000 0.093993 0.790501 0.530000 0.093993 0.893035 0.330000 0.093993 0.893035 0.530000 0.106320 0.911000 0.330000 0.106320 0.911000 0.530000 0.111193 0.782857 0.330000 0.111193 0.782857 0.530000 0.111193 0.787921 0.330000 0.111193 0.787921 0.530000 0.125793 0.224948 0.330000 0.125793 0.224948 0.530000 0.125793 0.227762 0.330000 0.125793 0.227762 0.530000 0.133808 0.223567 0.330000 0.133808 0.223567 0.530000 0.140912 0.782857 0.330000 0.140912 0.782857 0.530000 0.144256 0.782857 0.330000 0.144256 0.782857 0.530000 0.146337 0.223567 0.330000 0.146337 0.223567 0.530000 0.147505 0.156571 0.330000 0.147505 0.156571 0.530000 0.147505 0.159385 0.330000 0.147505 0.159385 0.530000 0.147983 0.813531 0.330000 0.147983 0.813531 0.530000 0.155893 0.224948 0.330000 0.155893 0.224948 0.530000 0.155893 0.227762 0.330000 0.155893 0.227762 0.530000 0.158813 0.160818 0.330000 0.158813 0.160818 0.530000 0.158813 0.184283 0.330000 0.158813 0.184283 0.530000 0.166776 0.190706 0.330000 0.166776 0.190706 0.530000 0.169059 0.160818 0.330000 0.169059 0.160818 0.530000 0.169059 0.184601 0.330000 0.169059 0.184601 0.530000 0.177181 0.224948 0.330000 0.177181 0.224948 0.530000 0.177181 0.227762 0.330000 0.177181 0.227762 0.530000 0.178180 0.782857 0.330000 0.178180 0.782857 0.530000 0.178180 0.787921 0.330000 0.178180 0.787921 0.530000 0.180366 0.156571 0.330000 0.180366 0.156571 0.530000 0.180366 0.159385 0.330000 0.180366 0.159385 0.530000 0.186206 0.223567 0.330000 0.186206 0.223567 0.530000 0.192523 0.223567 0.330000 0.192523 0.223567 0.530000 0.193469 0.911000 0.330000 0.193469 0.911000 0.530000 0.195380 0.790501 0.330000 0.195380 0.790501 0.530000 0.195380 0.893035 0.330000 0.195380 0.893035 0.530000 0.200327 0.224948 0.330000 0.200327 0.224948 0.530000 0.200327 0.227762 0.330000 0.200327 0.227762 0.530000 0.204314 0.224948 0.330000 0.204314 0.224948 0.530000 0.204314 0.227762 0.330000 0.204314 0.227762 0.530000 0.212330 0.223567 0.330000 0.212330 0.223567 0.530000 0.213727 0.790501 0.330000 0.213727 0.790501 0.530000 0.213727 0.903450 0.330000 0.213727 0.903450 0.530000 0.216445 0.504486 0.330000 0.216445 0.504486 0.530000 0.216445 0.661057 0.330000 0.216445 0.661057 0.530000 0.218767 0.520618 0.330000 0.218767 0.520618 0.530000 0.218767 0.677189 0.330000 0.218767 0.677189 0.530000 0.218860 0.489389 0.330000 0.218860 0.489389 0.530000 0.218860 0.645961 0.330000 0.218860 0.645961 0.530000 0.224859 0.223567 0.330000 0.224859 0.223567 0.530000 0.225735 0.532277 0.330000 0.225735 0.532277 0.530000 0.225735 0.688849 0.330000 0.225735 0.688849 0.530000 0.226027 0.156571 0.330000 0.226027 0.156571 0.530000 0.226027 0.159385 0.330000 0.226027 0.159385 0.530000 0.226107 0.478075 0.330000 0.226107 0.478075 0.530000 0.226107 0.634646 0.330000 0.226107 0.634646 0.530000 0.227540 0.504592 0.330000 0.227540 0.504592 0.530000 0.227540 0.661164 0.330000 0.227540 0.661164 0.530000 0.229106 0.519218 0.330000 0.229106 0.519218 0.530000 0.229106 0.675789 0.330000 0.229106 0.675789 0.530000 0.229179 0.490922 0.330000 0.229179 0.490922 0.530000 0.229179 0.647494 0.330000 0.229179 0.647494 0.530000 0.230163 0.782857 0.330000 0.230163 0.782857 0.530000 0.230163 0.787921 0.330000 0.230163 0.787921 0.530000 0.230163 0.905935 0.330000 0.230163 0.905935 0.530000 0.230163 0.911000 0.330000 0.230163 0.911000 0.530000 0.233805 0.529437 0.330000 0.233805 0.529437 0.530000 0.233805 0.686009 0.330000 0.233805 0.686009 0.530000 0.234097 0.480915 0.330000 0.234097 0.480915 0.530000 0.234097 0.637486 0.330000 0.234097 0.637486 0.530000 0.234414 0.224948 0.330000 0.234414 0.224948 0.530000 0.234414 0.227762 0.330000 0.234414 0.227762 0.530000 0.237269 0.539345 0.330000 0.237269 0.539345 0.530000 0.237269 0.695916 0.330000 0.237269 0.695916 0.530000 0.237334 0.160818 0.330000 0.237334 0.160818 0.530000 0.237334 0.184283 0.330000 0.237334 0.184283 0.530000 0.237680 0.471008 0.330000 0.237680 0.471008 0.530000 0.237680 0.627579 0.330000 0.237680 0.627579 0.530000 0.241914 0.535450 0.330000 0.241914 0.535450 0.530000 0.241914 0.692021 0.330000 0.241914 0.692021 0.530000 0.242146 0.474783 0.330000 0.242146 0.474783 0.530000 0.242146 0.631355 0.330000 0.242146 0.631355 0.530000 0.245297 0.190706 0.330000 0.245297 0.190706 0.530000 0.247580 0.160818 0.330000 0.247580 0.160818 0.530000 0.247580 0.184601 0.330000 0.247580 0.184601 0.530000 0.253075 0.468652 0.330000 0.253075 0.468652 0.530000 0.253075 0.625224 0.330000 0.253075 0.625224 0.530000 0.253182 0.472740 0.330000 0.253182 0.472740 0.530000 0.253182 0.629311 0.330000 0.253182 0.629311 0.530000 0.253288 0.541701 0.330000 0.253288 0.541701 0.530000 0.253288 0.698272 0.330000 0.253288 0.698272 0.530000 0.253713 0.537454 0.330000 0.253713 0.537454 0.530000 0.253713 0.694025 0.330000 0.253713 0.694025 0.530000 0.255702 0.224948 0.330000 0.255702 0.224948 0.530000 0.255702 0.227762 0.330000 0.255702 0.227762 0.530000 0.258762 0.537142 0.330000 0.258762 0.537142 0.530000 0.258762 0.693713 0.330000 0.258762 0.693713 0.530000 0.258888 0.156571 0.330000 0.258888 0.156571 0.530000 0.258888 0.159385 0.330000 0.258888 0.159385 0.530000 0.259061 0.473105 0.330000 0.259061 0.473105 0.530000 0.259061 0.629676 0.330000 0.259061 0.629676 0.530000 0.263719 0.536206 0.330000 0.263719 0.536206 0.530000 0.263719 0.692777 0.330000 0.263719 0.692777 0.530000 0.264595 0.474200 0.330000 0.264595 0.474200 0.530000 0.264595 0.630771 0.330000 0.264595 0.630771 0.530000 0.264727 0.223567 0.330000 0.264727 0.223567 0.530000 0.264794 0.541024 0.330000 0.264794 0.541024 0.530000 0.264794 0.697595 0.330000 0.264794 0.697595 0.530000 0.266068 0.469488 0.330000 0.266068 0.469488 0.530000 0.266068 0.626060 0.330000 0.266068 0.626060 0.530000 0.268331 0.534700 0.330000 0.268331 0.534700 0.530000 0.268331 0.691271 0.330000 0.268331 0.691271 0.530000 0.269400 0.475905 0.330000 0.269400 0.475905 0.530000 0.269400 0.632476 0.330000 0.269400 0.632476 0.530000 0.271045 0.223567 0.330000 0.271045 0.223567 0.530000 0.272346 0.532676 0.330000 0.272346 0.532676 0.530000 0.272346 0.689247 0.330000 0.272346 0.689247 0.530000 0.273089 0.478101 0.330000 0.273089 0.478101 0.530000 0.273089 0.634673 0.330000 0.273089 0.634673 0.530000 0.273939 0.523438 0.330000 0.273939 0.523438 0.530000 0.273939 0.680010 0.330000 0.273939 0.680010 0.530000 0.275053 0.488719 0.330000 0.275053 0.488719 0.530000 0.275053 0.645291 0.330000 0.275053 0.645291 0.530000 0.277124 0.538993 0.330000 0.277124 0.538993 0.530000 0.277124 0.695564 0.330000 0.277124 0.695564 0.530000 0.277443 0.523438 0.330000 0.277443 0.523438 0.530000 0.277443 0.680010 0.330000 0.277443 0.680010 0.530000 0.278186 0.471997 0.330000 0.278186 0.471997 0.530000 0.278186 0.628568 0.330000 0.278186 0.628568 0.530000 0.278504 0.488719 0.330000 0.278504 0.488719 0.530000 0.278504 0.645291 0.330000 0.278504 0.645291 0.530000 0.278848 0.224948 0.330000 0.278848 0.224948 0.530000 0.278848 0.227762 0.330000 0.278848 0.227762 0.530000 0.281721 0.224948 0.330000 0.281721 0.224948 0.530000 0.281721 0.227762 0.330000 0.281721 0.227762 0.530000 0.287640 0.538091 0.330000 0.287640 0.538091 0.530000 0.287640 0.540904 0.330000 0.287640 0.540904 0.530000 0.287640 0.694662 0.330000 0.287640 0.694662 0.530000 0.287640 0.697476 0.330000 0.287640 0.697476 0.530000 0.287932 0.223567 0.330000 0.287932 0.223567 0.530000 0.288331 0.469714 0.330000 0.288331 0.469714 0.530000 0.288331 0.472527 0.330000 0.288331 0.472527 0.530000 0.288331 0.626285 0.330000 0.288331 0.626285 0.530000 0.288331 0.629099 0.330000 0.288331 0.629099 0.530000 0.290474 0.905935 0.330000 0.290474 0.905935 0.530000 0.290474 0.911000 0.330000 0.290474 0.911000 0.530000 0.291717 0.782857 0.330000 0.291717 0.782857 0.530000 0.291717 0.787921 0.330000 0.291717 0.787921 0.530000 0.296771 0.473961 0.330000 0.296771 0.473961 0.530000 0.296771 0.536710 0.330000 0.296771 0.536710 0.530000 0.296771 0.630532 0.330000 0.296771 0.630532 0.530000 0.296771 0.693281 0.330000 0.296771 0.693281 0.530000 0.298443 0.223567 0.330000 0.298443 0.223567 0.530000 0.306911 0.790501 0.330000 0.306911 0.790501 0.530000 0.306911 0.903450 0.330000 0.306911 0.903450 0.530000 0.307017 0.473961 0.330000 0.307017 0.473961 0.530000 0.307017 0.497638 0.330000 0.307017 0.497638 0.530000 0.307017 0.502416 0.330000 0.307017 0.502416 0.530000 0.307017 0.536126 0.330000 0.307017 0.536126 0.530000 0.307017 0.630532 0.330000 0.307017 0.630532 0.530000 0.307017 0.654209 0.330000 0.307017 0.654209 0.530000 0.307017 0.658988 0.330000 0.307017 0.658988 0.530000 0.307017 0.692697 0.330000 0.307017 0.692697 0.530000 0.308901 0.224948 0.330000 0.308901 0.224948 0.530000 0.308901 0.227762 0.330000 0.308901 0.227762 0.530000 0.311502 0.154925 0.330000 0.311502 0.154925 0.530000 0.312219 0.536126 0.330000 0.312219 0.536126 0.530000 0.312219 0.692697 0.330000 0.312219 0.692697 0.530000 0.312538 0.502416 0.330000 0.312538 0.502416 0.530000 0.312538 0.658988 0.330000 0.312538 0.658988 0.530000 0.314316 0.154925 0.330000 0.314316 0.154925 0.530000 0.314502 0.540904 0.330000 0.314502 0.540904 0.530000 0.314502 0.697476 0.330000 0.314502 0.697476 0.530000 0.315033 0.497638 0.330000 0.315033 0.497638 0.530000 0.315033 0.654209 0.330000 0.315033 0.654209 0.530000 0.315378 0.173400 0.330000 0.315378 0.173400 0.530000 0.318325 0.469714 0.330000 0.318325 0.469714 0.530000 0.318325 0.472527 0.330000 0.318325 0.472527 0.530000 0.318325 0.626285 0.330000 0.318325 0.626285 0.530000 0.318325 0.629099 0.330000 0.318325 0.629099 0.530000 0.318804 0.313142 0.330000 0.318804 0.313142 0.530000 0.318804 0.315956 0.330000 0.318804 0.315956 0.530000 0.318804 0.381519 0.330000 0.318804 0.381519 0.530000 0.318804 0.384333 0.330000 0.318804 0.384333 0.530000 0.320335 0.503438 0.330000 0.320335 0.503438 0.530000 0.320335 0.660009 0.330000 0.320335 0.660009 0.530000 0.320488 0.535184 0.330000 0.320488 0.535184 0.530000 0.320488 0.691755 0.330000 0.320488 0.691755 0.530000 0.325353 0.790501 0.330000 0.325353 0.790501 0.530000 0.325353 0.833119 0.330000 0.325353 0.833119 0.530000 0.325353 0.841721 0.330000 0.325353 0.841721 0.530000 0.325353 0.902398 0.330000 0.325353 0.902398 0.530000 0.325783 0.506503 0.330000 0.325783 0.506503 0.530000 0.325783 0.663075 0.330000 0.325783 0.663075 0.530000 0.325963 0.499058 0.330000 0.325963 0.499058 0.530000 0.325963 0.655629 0.330000 0.325963 0.655629 0.530000 0.325969 0.532357 0.330000 0.325969 0.532357 0.530000 0.325969 0.688928 0.330000 0.325969 0.688928 0.530000 0.327935 0.317389 0.330000 0.327935 0.317389 0.530000 0.327935 0.380139 0.330000 0.327935 0.380139 0.530000 0.328988 0.511879 0.330000 0.328988 0.511879 0.530000 0.328988 0.668450 0.330000 0.328988 0.668450 0.530000 0.329035 0.527340 0.330000 0.329035 0.527340 0.530000 0.329035 0.683912 0.330000 0.329035 0.683912 0.530000 0.330057 0.519828 0.330000 0.330057 0.519828 0.530000 0.330057 0.676400 0.330000 0.330057 0.676400 0.530000 0.333232 0.962076 0.330000 0.333232 0.962076 0.530000 0.333269 0.203978 0.330000 0.333269 0.203978 0.530000 0.334012 0.503318 0.330000 0.334012 0.503318 0.530000 0.334012 0.659889 0.330000 0.334012 0.659889 0.530000 0.334092 0.535662 0.330000 0.334092 0.535662 0.530000 0.334092 0.692234 0.330000 0.334092 0.692234 0.530000 0.334542 0.222771 0.330000 0.334542 0.222771 0.530000 0.334717 0.902398 0.330000 0.334717 0.902398 0.530000 0.335291 0.841721 0.330000 0.335291 0.841721 0.530000 0.335355 0.950813 0.330000 0.335355 0.950813 0.530000 0.335386 0.973644 0.330000 0.335386 0.973644 0.530000 0.336932 0.222771 0.330000 0.336932 0.222771 0.530000 0.338128 0.317389 0.330000 0.338128 0.317389 0.530000 0.338128 0.380139 0.330000 0.338128 0.380139 0.530000 0.338826 0.911000 0.330000 0.338826 0.911000 0.530000 0.338969 0.510312 0.330000 0.338969 0.510312 0.530000 0.338969 0.666884 0.330000 0.338969 0.666884 0.530000 0.339782 0.833119 0.330000 0.339782 0.833119 0.530000 0.340622 0.519935 0.330000 0.340622 0.519935 0.530000 0.340622 0.676506 0.330000 0.340622 0.676506 0.530000 0.341723 0.941149 0.330000 0.341723 0.941149 0.530000 0.341846 0.983242 0.330000 0.341846 0.983242 0.530000 0.345707 0.782857 0.330000 0.345707 0.782857 0.530000 0.345707 0.787921 0.330000 0.345707 0.787921 0.530000 0.347259 0.313142 0.330000 0.347259 0.313142 0.530000 0.347259 0.315956 0.330000 0.347259 0.315956 0.530000 0.347259 0.381519 0.330000 0.347259 0.381519 0.530000 0.347259 0.384333 0.330000 0.347259 0.384333 0.530000 0.348110 0.469714 0.330000 0.348110 0.469714 0.530000 0.348110 0.472527 0.330000 0.348110 0.472527 0.530000 0.348110 0.538091 0.330000 0.348110 0.538091 0.530000 0.348110 0.540904 0.330000 0.348110 0.540904 0.530000 0.348110 0.626285 0.330000 0.348110 0.626285 0.530000 0.348110 0.629099 0.330000 0.348110 0.629099 0.530000 0.348110 0.694662 0.330000 0.348110 0.694662 0.530000 0.348110 0.697476 0.330000 0.348110 0.697476 0.530000 0.349325 0.843560 0.330000 0.349325 0.843560 0.530000 0.349600 0.900702 0.330000 0.349600 0.900702 0.530000 0.351293 0.934503 0.330000 0.351293 0.934503 0.530000 0.351448 0.989705 0.330000 0.351448 0.989705 0.530000 0.351742 0.154925 0.330000 0.351742 0.154925 0.530000 0.354556 0.154925 0.330000 0.354556 0.154925 0.530000 0.355012 0.313142 0.330000 0.355012 0.313142 0.530000 0.355012 0.315956 0.330000 0.355012 0.315956 0.530000 0.355012 0.381519 0.330000 0.355012 0.381519 0.530000 0.355012 0.384333 0.330000 0.355012 0.384333 0.530000 0.355405 0.173400 0.330000 0.355405 0.173400 0.530000 0.357242 0.473961 0.330000 0.357242 0.473961 0.530000 0.357242 0.536710 0.330000 0.357242 0.536710 0.530000 0.357242 0.630532 0.330000 0.357242 0.630532 0.530000 0.357242 0.693281 0.330000 0.357242 0.693281 0.530000 0.359132 0.849078 0.330000 0.359132 0.849078 0.530000 0.359455 0.835676 0.330000 0.359455 0.835676 0.530000 0.359466 0.895613 0.330000 0.359466 0.895613 0.530000 0.360449 0.224948 0.330000 0.360449 0.224948 0.530000 0.360449 0.227762 0.330000 0.360449 0.227762 0.530000 0.362816 0.473961 0.330000 0.362816 0.473961 0.530000 0.362816 0.533737 0.330000 0.362816 0.533737 0.530000 0.362816 0.630532 0.330000 0.362816 0.630532 0.530000 0.362816 0.690309 0.330000 0.362816 0.690309 0.530000 0.363016 0.932288 0.330000 0.363016 0.932288 0.530000 0.363016 0.991860 0.330000 0.363016 0.991860 0.530000 0.364143 0.317389 0.330000 0.364143 0.317389 0.530000 0.364143 0.380139 0.330000 0.364143 0.380139 0.530000 0.364901 0.858753 0.330000 0.364901 0.858753 0.530000 0.364985 0.886584 0.330000 0.364985 0.886584 0.530000 0.366825 0.873063 0.330000 0.366825 0.873063 0.530000 0.369664 0.540904 0.330000 0.369664 0.540904 0.530000 0.369664 0.697476 0.330000 0.369664 0.697476 0.530000 0.371544 0.223567 0.330000 0.371544 0.223567 0.530000 0.372371 0.469714 0.330000 0.372371 0.469714 0.530000 0.372371 0.472527 0.330000 0.372371 0.472527 0.530000 0.372371 0.626285 0.330000 0.372371 0.626285 0.530000 0.372371 0.629099 0.330000 0.372371 0.629099 0.530000 0.373943 0.843344 0.330000 0.373943 0.843344 0.530000 0.374087 0.901564 0.330000 0.374087 0.901564 0.530000 0.374336 0.317389 0.330000 0.374336 0.317389 0.530000 0.374336 0.380139 0.330000 0.374336 0.380139 0.530000 0.374584 0.989705 0.330000 0.374584 0.989705 0.530000 0.374739 0.934503 0.330000 0.374739 0.934503 0.530000 0.377808 0.223567 0.330000 0.377808 0.223567 0.530000 0.382867 0.855934 0.330000 0.382867 0.855934 0.530000 0.383467 0.313142 0.330000 0.383467 0.313142 0.530000 0.383467 0.315956 0.330000 0.383467 0.315956 0.530000 0.383467 0.381519 0.330000 0.383467 0.381519 0.530000 0.383467 0.384333 0.330000 0.383467 0.384333 0.530000 0.384020 0.224948 0.330000 0.384020 0.224948 0.530000 0.384020 0.227762 0.330000 0.384020 0.227762 0.530000 0.384183 0.983242 0.330000 0.384183 0.983242 0.530000 0.384306 0.941149 0.330000 0.384306 0.941149 0.530000 0.384345 0.224948 0.330000 0.384345 0.224948 0.530000 0.384345 0.227762 0.330000 0.384345 0.227762 0.530000 0.385841 0.873255 0.330000 0.385841 0.873255 0.530000 0.390557 0.223567 0.330000 0.390557 0.223567 0.530000 0.390646 0.973644 0.330000 0.390646 0.973644 0.530000 0.390677 0.950813 0.330000 0.390677 0.950813 0.530000 0.391220 0.313142 0.330000 0.391220 0.313142 0.530000 0.391220 0.315956 0.330000 0.391220 0.315956 0.530000 0.391220 0.381519 0.330000 0.391220 0.381519 0.530000 0.391220 0.384333 0.330000 0.391220 0.384333 0.530000 0.392800 0.962076 0.330000 0.392800 0.962076 0.530000 0.396738 0.538091 0.330000 0.396738 0.538091 0.530000 0.396738 0.540904 0.330000 0.396738 0.540904 0.530000 0.396738 0.694662 0.330000 0.396738 0.694662 0.530000 0.396738 0.697476 0.330000 0.396738 0.697476 0.530000 0.400351 0.317389 0.330000 0.400351 0.317389 0.530000 0.400351 0.380139 0.330000 0.400351 0.380139 0.530000 0.400754 0.782857 0.330000 0.400754 0.782857 0.530000 0.400754 0.787921 0.330000 0.400754 0.787921 0.530000 0.400754 0.905935 0.330000 0.400754 0.905935 0.530000 0.400754 0.911000 0.330000 0.400754 0.911000 0.530000 0.401068 0.223567 0.330000 0.401068 0.223567 0.530000 0.406294 0.488188 0.330000 0.406294 0.488188 0.530000 0.406294 0.536710 0.330000 0.406294 0.536710 0.530000 0.406294 0.644760 0.330000 0.406294 0.644760 0.530000 0.406294 0.693281 0.330000 0.406294 0.693281 0.530000 0.406719 0.469714 0.330000 0.406719 0.469714 0.530000 0.406719 0.626285 0.330000 0.406719 0.626285 0.530000 0.410544 0.317389 0.330000 0.410544 0.317389 0.530000 0.410544 0.380139 0.330000 0.410544 0.380139 0.530000 0.411526 0.224948 0.330000 0.411526 0.224948 0.530000 0.411526 0.227762 0.330000 0.411526 0.227762 0.530000 0.411869 0.469714 0.330000 0.411869 0.469714 0.530000 0.411869 0.536710 0.330000 0.411869 0.536710 0.530000 0.411869 0.626285 0.330000 0.411869 0.626285 0.530000 0.411869 0.693281 0.330000 0.411869 0.693281 0.530000 0.414127 0.154925 0.330000 0.414127 0.154925 0.530000 0.416941 0.154925 0.330000 0.416941 0.154925 0.530000 0.417190 0.790501 0.330000 0.417190 0.790501 0.530000 0.417190 0.903450 0.330000 0.417190 0.903450 0.530000 0.418003 0.173400 0.330000 0.418003 0.173400 0.530000 0.419675 0.313142 0.330000 0.419675 0.313142 0.530000 0.419675 0.315956 0.330000 0.419675 0.315956 0.530000 0.419675 0.381519 0.330000 0.419675 0.381519 0.530000 0.419675 0.384333 0.330000 0.419675 0.384333 0.530000 0.421000 0.538091 0.330000 0.421000 0.538091 0.530000 0.421000 0.540904 0.330000 0.421000 0.540904 0.530000 0.421000 0.694662 0.330000 0.421000 0.694662 0.530000 0.421000 0.697476 0.330000 0.421000 0.697476 0.530000 0.427428 0.313142 0.330000 0.427428 0.313142 0.530000 0.427428 0.315956 0.330000 0.427428 0.315956 0.530000 0.427428 0.381519 0.330000 0.427428 0.381519 0.530000 0.427428 0.384333 0.330000 0.427428 0.384333 0.530000 0.427959 0.504486 0.330000 0.427959 0.504486 0.530000 0.427959 0.661057 0.330000 0.427959 0.661057 0.530000 0.430281 0.520618 0.330000 0.430281 0.520618 0.530000 0.430281 0.677189 0.330000 0.430281 0.677189 0.530000 0.430374 0.489389 0.330000 0.430374 0.489389 0.530000 0.430374 0.645961 0.330000 0.430374 0.645961 0.530000 0.435537 0.790501 0.330000 0.435537 0.790501 0.530000 0.435537 0.903450 0.330000 0.435537 0.903450 0.530000 0.435893 0.203978 0.330000 0.435893 0.203978 0.530000 0.436559 0.317389 0.330000 0.436559 0.317389 0.530000 0.436559 0.380139 0.330000 0.436559 0.380139 0.530000 0.437167 0.222771 0.330000 0.437167 0.222771 0.530000 0.437249 0.532277 0.330000 0.437249 0.532277 0.530000 0.437249 0.688849 0.330000 0.437249 0.688849 0.530000 0.437621 0.478075 0.330000 0.437621 0.478075 0.530000 0.437621 0.634646 0.330000 0.437621 0.634646 0.530000 0.439054 0.504592 0.330000 0.439054 0.504592 0.530000 0.439054 0.661164 0.330000 0.439054 0.661164 0.530000 0.439556 0.222771 0.330000 0.439556 0.222771 0.530000 0.440620 0.519218 0.330000 0.440620 0.519218 0.530000 0.440620 0.675789 0.330000 0.440620 0.675789 0.530000 0.440693 0.490922 0.330000 0.440693 0.490922 0.530000 0.440693 0.647494 0.330000 0.440693 0.647494 0.530000 0.445319 0.529437 0.330000 0.445319 0.529437 0.530000 0.445319 0.686009 0.330000 0.445319 0.686009 0.530000 0.445611 0.480915 0.330000 0.445611 0.480915 0.530000 0.445611 0.637486 0.330000 0.445611 0.637486 0.530000 0.446752 0.317389 0.330000 0.446752 0.317389 0.530000 0.446752 0.380139 0.330000 0.446752 0.380139 0.530000 0.448782 0.539345 0.330000 0.448782 0.539345 0.530000 0.448782 0.695916 0.330000 0.448782 0.695916 0.530000 0.449194 0.471008 0.330000 0.449194 0.471008 0.530000 0.449194 0.627579 0.330000 0.449194 0.627579 0.530000 0.451973 0.782857 0.330000 0.451973 0.782857 0.530000 0.451973 0.787921 0.330000 0.451973 0.787921 0.530000 0.451973 0.905935 0.330000 0.451973 0.905935 0.530000 0.451973 0.911000 0.330000 0.451973 0.911000 0.530000 0.453428 0.535450 0.330000 0.453428 0.535450 0.530000 0.453428 0.692021 0.330000 0.453428 0.692021 0.530000 0.453660 0.474783 0.330000 0.453660 0.474783 0.530000 0.453660 0.631355 0.330000 0.453660 0.631355 0.530000 0.454367 0.154925 0.330000 0.454367 0.154925 0.530000 0.455883 0.313142 0.330000 0.455883 0.313142 0.530000 0.455883 0.315956 0.330000 0.455883 0.315956 0.530000 0.455883 0.381519 0.330000 0.455883 0.381519 0.530000 0.455883 0.384333 0.330000 0.455883 0.384333 0.530000 0.457181 0.154925 0.330000 0.457181 0.154925 0.530000 0.458030 0.173400 0.330000 0.458030 0.173400 0.530000 0.463074 0.224948 0.330000 0.463074 0.224948 0.530000 0.463074 0.227762 0.330000 0.463074 0.227762 0.530000 0.463636 0.313142 0.330000 0.463636 0.313142 0.530000 0.463636 0.315956 0.330000 0.463636 0.315956 0.530000 0.463636 0.381519 0.330000 0.463636 0.381519 0.530000 0.463636 0.384333 0.330000 0.463636 0.384333 0.530000 0.464589 0.468652 0.330000 0.464589 0.468652 0.530000 0.464589 0.625224 0.330000 0.464589 0.625224 0.530000 0.464696 0.472740 0.330000 0.464696 0.472740 0.530000 0.464696 0.629311 0.330000 0.464696 0.629311 0.530000 0.464801 0.541701 0.330000 0.464801 0.541701 0.530000 0.464801 0.698272 0.330000 0.464801 0.698272 0.530000 0.465227 0.537454 0.330000 0.465227 0.537454 0.530000 0.465227 0.694025 0.330000 0.465227 0.694025 0.530000 0.466884 0.845447 0.330000 0.466884 0.845447 0.530000 0.470276 0.537142 0.330000 0.470276 0.537142 0.530000 0.470276 0.693713 0.330000 0.470276 0.693713 0.530000 0.470575 0.473105 0.330000 0.470575 0.473105 0.530000 0.470575 0.629676 0.330000 0.470575 0.629676 0.530000 0.471064 0.874484 0.330000 0.471064 0.874484 0.530000 0.471231 0.818272 0.330000 0.471231 0.818272 0.530000 0.472767 0.317389 0.330000 0.472767 0.317389 0.530000 0.472767 0.380139 0.330000 0.472767 0.380139 0.530000 0.474169 0.223567 0.330000 0.474169 0.223567 0.530000 0.475233 0.536206 0.330000 0.475233 0.536206 0.530000 0.475233 0.692777 0.330000 0.475233 0.692777 0.530000 0.476109 0.474200 0.330000 0.476109 0.474200 0.530000 0.476109 0.630771 0.330000 0.476109 0.630771 0.530000 0.476308 0.541024 0.330000 0.476308 0.541024 0.530000 0.476308 0.697595 0.330000 0.476308 0.697595 0.530000 0.477582 0.469488 0.330000 0.477582 0.469488 0.530000 0.477582 0.626060 0.330000 0.477582 0.626060 0.530000 0.479845 0.534700 0.330000 0.479845 0.534700 0.530000 0.479845 0.691271 0.330000 0.479845 0.691271 0.530000 0.480433 0.223567 0.330000 0.480433 0.223567 0.530000 0.480913 0.475905 0.330000 0.480913 0.475905 0.530000 0.480913 0.632476 0.330000 0.480913 0.632476 0.530000 0.482960 0.317389 0.330000 0.482960 0.317389 0.530000 0.482960 0.380139 0.330000 0.482960 0.380139 0.530000 0.483606 0.895471 0.330000 0.483606 0.895471 0.530000 0.483860 0.532676 0.330000 0.483860 0.532676 0.530000 0.483860 0.689247 0.330000 0.483860 0.689247 0.530000 0.484275 0.797906 0.330000 0.484275 0.797906 0.530000 0.484603 0.478101 0.330000 0.484603 0.478101 0.530000 0.484603 0.634673 0.330000 0.484603 0.634673 0.530000 0.485452 0.523438 0.330000 0.485452 0.523438 0.530000 0.485452 0.680010 0.330000 0.485452 0.680010 0.530000 0.486567 0.488719 0.330000 0.486567 0.488719 0.530000 0.486567 0.645291 0.330000 0.486567 0.645291 0.530000 0.486644 0.224948 0.330000 0.486644 0.224948 0.530000 0.486644 0.227762 0.330000 0.486644 0.227762 0.530000 0.486855 0.845638 0.330000 0.486855 0.845638 0.530000 0.488638 0.538993 0.330000 0.488638 0.538993 0.530000 0.488638 0.695564 0.330000 0.488638 0.695564 0.530000 0.488957 0.523438 0.330000 0.488957 0.523438 0.530000 0.488957 0.680010 0.330000 0.488957 0.680010 0.530000 0.489674 0.871964 0.330000 0.489674 0.871964 0.530000 0.489699 0.471997 0.330000 0.489699 0.471997 0.530000 0.489699 0.628568 0.330000 0.489699 0.628568 0.530000 0.489806 0.821032 0.330000 0.489806 0.821032 0.530000 0.489996 0.156571 0.330000 0.489996 0.156571 0.530000 0.489996 0.159385 0.330000 0.489996 0.159385 0.530000 0.489996 0.224948 0.330000 0.489996 0.224948 0.530000 0.489996 0.227762 0.330000 0.489996 0.227762 0.530000 0.490018 0.488719 0.330000 0.490018 0.488719 0.530000 0.490018 0.645291 0.330000 0.490018 0.645291 0.530000 0.492091 0.313142 0.330000 0.492091 0.313142 0.530000 0.492091 0.315956 0.330000 0.492091 0.315956 0.530000 0.492091 0.381519 0.330000 0.492091 0.381519 0.530000 0.492091 0.384333 0.330000 0.492091 0.384333 0.530000 0.498131 0.890359 0.330000 0.498131 0.890359 0.530000 0.498657 0.803019 0.330000 0.498657 0.803019 0.530000 0.499127 0.160818 0.330000 0.499127 0.160818 0.530000 0.499127 0.223567 0.330000 0.499127 0.223567 0.530000 0.499154 0.538091 0.330000 0.499154 0.538091 0.530000 0.499154 0.540904 0.330000 0.499154 0.540904 0.530000 0.499154 0.694662 0.330000 0.499154 0.694662 0.530000 0.499154 0.697476 0.330000 0.499154 0.697476 0.530000 0.499844 0.313142 0.330000 0.499844 0.313142 0.530000 0.499844 0.315956 0.330000 0.499844 0.315956 0.530000 0.499844 0.381519 0.330000 0.499844 0.381519 0.530000 0.499844 0.384333 0.330000 0.499844 0.384333 0.530000 0.499845 0.469714 0.330000 0.499845 0.469714 0.530000 0.499845 0.472527 0.330000 0.499845 0.472527 0.530000 0.499845 0.626285 0.330000 0.499845 0.626285 0.530000 0.499845 0.629099 0.330000 0.499845 0.629099 0.530000 0.504366 0.908193 0.330000 0.504366 0.908193 0.530000 0.504701 0.160818 0.330000 0.504701 0.160818 0.530000 0.504701 0.220595 0.330000 0.504701 0.220595 0.530000 0.505107 0.785186 0.330000 0.505107 0.785186 0.530000 0.508285 0.473961 0.330000 0.508285 0.473961 0.530000 0.508285 0.536710 0.330000 0.508285 0.536710 0.530000 0.508285 0.630532 0.330000 0.508285 0.630532 0.530000 0.508285 0.693281 0.330000 0.508285 0.693281 0.530000 0.508975 0.317389 0.330000 0.508975 0.317389 0.530000 0.508975 0.380139 0.330000 0.508975 0.380139 0.530000 0.511549 0.227762 0.330000 0.511549 0.227762 0.530000 0.512728 0.901181 0.330000 0.512728 0.901181 0.530000 0.513146 0.791982 0.330000 0.513146 0.791982 0.530000 0.514257 0.156571 0.330000 0.514257 0.156571 0.530000 0.514257 0.159385 0.330000 0.514257 0.159385 0.530000 0.518531 0.473961 0.330000 0.518531 0.473961 0.530000 0.518531 0.497638 0.330000 0.518531 0.497638 0.530000 0.518531 0.502416 0.330000 0.518531 0.502416 0.530000 0.518531 0.536126 0.330000 0.518531 0.536126 0.530000 0.518531 0.630532 0.330000 0.518531 0.630532 0.530000 0.518531 0.654209 0.330000 0.518531 0.654209 0.530000 0.518531 0.658988 0.330000 0.518531 0.658988 0.530000 0.518531 0.692697 0.330000 0.518531 0.692697 0.530000 0.519168 0.317389 0.330000 0.519168 0.317389 0.530000 0.519168 0.380139 0.330000 0.519168 0.380139 0.530000 0.523733 0.536126 0.330000 0.523733 0.536126 0.530000 0.523733 0.692697 0.330000 0.523733 0.692697 0.530000 0.524052 0.502416 0.330000 0.524052 0.502416 0.530000 0.524052 0.658988 0.330000 0.524052 0.658988 0.530000 0.526016 0.540904 0.330000 0.526016 0.540904 0.530000 0.526016 0.697476 0.330000 0.526016 0.697476 0.530000 0.526547 0.497638 0.330000 0.526547 0.497638 0.530000 0.526547 0.654209 0.330000 0.526547 0.654209 0.530000 0.528299 0.313142 0.330000 0.528299 0.313142 0.530000 0.528299 0.315956 0.330000 0.528299 0.315956 0.530000 0.528299 0.381519 0.330000 0.528299 0.381519 0.530000 0.528299 0.384333 0.330000 0.528299 0.384333 0.530000 0.529839 0.469714 0.330000 0.529839 0.469714 0.530000 0.529839 0.472527 0.330000 0.529839 0.472527 0.530000 0.529839 0.626285 0.330000 0.529839 0.626285 0.530000 0.529839 0.629099 0.330000 0.529839 0.629099 0.530000 0.531849 0.503438 0.330000 0.531849 0.503438 0.530000 0.531849 0.660009 0.330000 0.531849 0.660009 0.530000 0.532002 0.535184 0.330000 0.532002 0.535184 0.530000 0.532002 0.691755 0.330000 0.532002 0.691755 0.530000 0.532819 0.780946 0.330000 0.532819 0.780946 0.530000 0.533010 0.788303 0.330000 0.533010 0.788303 0.530000 0.533201 0.912433 0.330000 0.533201 0.912433 0.530000 0.533966 0.904788 0.330000 0.533966 0.904788 0.530000 0.537297 0.506503 0.330000 0.537297 0.506503 0.530000 0.537297 0.663075 0.330000 0.537297 0.663075 0.530000 0.537477 0.499058 0.330000 0.537477 0.499058 0.530000 0.537477 0.655629 0.330000 0.537477 0.655629 0.530000 0.537483 0.532357 0.330000 0.537483 0.532357 0.530000 0.537483 0.688928 0.330000 0.537483 0.688928 0.530000 0.538624 0.224948 0.330000 0.538624 0.224948 0.530000 0.538624 0.227762 0.330000 0.538624 0.227762 0.530000 0.540502 0.511879 0.330000 0.540502 0.511879 0.530000 0.540502 0.668450 0.330000 0.540502 0.668450 0.530000 0.540549 0.527340 0.330000 0.540549 0.527340 0.530000 0.540549 0.683912 0.330000 0.540549 0.683912 0.530000 0.541571 0.519828 0.330000 0.541571 0.519828 0.530000 0.541571 0.676400 0.330000 0.541571 0.676400 0.530000 0.543055 0.904227 0.330000 0.543055 0.904227 0.530000 0.543593 0.788960 0.330000 0.543593 0.788960 0.530000 0.545526 0.503318 0.330000 0.545526 0.503318 0.530000 0.545526 0.659889 0.330000 0.545526 0.659889 0.530000 0.545606 0.535662 0.330000 0.545606 0.535662 0.530000 0.545606 0.692234 0.330000 0.545606 0.692234 0.530000 0.548179 0.175046 0.330000 0.548179 0.175046 0.530000 0.548179 0.223567 0.330000 0.548179 0.223567 0.530000 0.548604 0.156571 0.330000 0.548604 0.156571 0.530000 0.550483 0.510312 0.330000 0.550483 0.510312 0.530000 0.550483 0.666884 0.330000 0.550483 0.666884 0.530000 0.551977 0.902542 0.330000 0.551977 0.902542 0.530000 0.552135 0.519935 0.330000 0.552135 0.519935 0.530000 0.552135 0.676506 0.330000 0.552135 0.676506 0.530000 0.553554 0.790931 0.330000 0.553554 0.790931 0.530000 0.553754 0.156571 0.330000 0.553754 0.156571 0.530000 0.553754 0.223567 0.330000 0.553754 0.223567 0.530000 0.553913 0.911214 0.330000 0.553913 0.911214 0.530000 0.556206 0.782451 0.330000 0.556206 0.782451 0.530000 0.559624 0.469714 0.330000 0.559624 0.469714 0.530000 0.559624 0.472527 0.330000 0.559624 0.472527 0.530000 0.559624 0.538091 0.330000 0.559624 0.538091 0.530000 0.559624 0.540904 0.330000 0.559624 0.540904 0.530000 0.559624 0.626285 0.330000 0.559624 0.626285 0.530000 0.559624 0.629099 0.330000 0.559624 0.629099 0.530000 0.559624 0.694662 0.330000 0.559624 0.694662 0.530000 0.559624 0.697476 0.330000 0.559624 0.697476 0.530000 0.560279 0.899831 0.330000 0.560279 0.899831 0.530000 0.562202 0.794001 0.330000 0.562202 0.794001 0.530000 0.562885 0.224948 0.330000 0.562885 0.224948 0.530000 0.562885 0.227762 0.330000 0.562885 0.227762 0.530000 0.567506 0.896188 0.330000 0.567506 0.896188 0.530000 0.568517 0.156571 0.330000 0.568517 0.156571 0.530000 0.568517 0.159385 0.330000 0.568517 0.159385 0.530000 0.568517 0.224948 0.330000 0.568517 0.224948 0.530000 0.568517 0.227762 0.330000 0.568517 0.227762 0.530000 0.568756 0.473961 0.330000 0.568756 0.473961 0.530000 0.568756 0.536710 0.330000 0.568756 0.536710 0.530000 0.568756 0.630532 0.330000 0.568756 0.630532 0.530000 0.568756 0.693281 0.330000 0.568756 0.693281 0.530000 0.568843 0.797954 0.330000 0.568843 0.797954 0.530000 0.570372 0.879561 0.330000 0.570372 0.879561 0.530000 0.572379 0.817066 0.330000 0.572379 0.817066 0.530000 0.574330 0.473961 0.330000 0.574330 0.473961 0.530000 0.574330 0.533737 0.330000 0.574330 0.533737 0.530000 0.574330 0.630532 0.330000 0.574330 0.630532 0.530000 0.574330 0.690309 0.330000 0.574330 0.690309 0.530000 0.576106 0.907559 0.330000 0.576106 0.907559 0.530000 0.576680 0.879561 0.330000 0.576680 0.879561 0.530000 0.577648 0.160818 0.330000 0.577648 0.160818 0.530000 0.577648 0.223567 0.330000 0.577648 0.223567 0.530000 0.578017 0.786966 0.330000 0.578017 0.786966 0.530000 0.578591 0.817066 0.330000 0.578591 0.817066 0.530000 0.581178 0.540904 0.330000 0.581178 0.540904 0.530000 0.581178 0.697476 0.330000 0.581178 0.697476 0.530000 0.583222 0.160818 0.330000 0.583222 0.160818 0.530000 0.583222 0.220595 0.330000 0.583222 0.220595 0.530000 0.583885 0.469714 0.330000 0.583885 0.469714 0.530000 0.583885 0.472527 0.330000 0.583885 0.472527 0.530000 0.583885 0.626285 0.330000 0.583885 0.626285 0.530000 0.583885 0.629099 0.330000 0.583885 0.629099 0.530000 0.590071 0.227762 0.330000 0.590071 0.227762 0.530000 0.592778 0.156571 0.330000 0.592778 0.156571 0.530000 0.592778 0.159385 0.330000 0.592778 0.159385 0.530000 0.598762 0.812002 0.330000 0.598762 0.812002 0.530000 0.599814 0.785055 0.330000 0.599814 0.785055 0.530000 0.602680 0.883670 0.330000 0.602680 0.883670 0.530000 0.602680 0.908324 0.330000 0.602680 0.908324 0.530000 0.605068 0.812002 0.330000 0.605068 0.812002 0.530000 0.608252 0.538091 0.330000 0.608252 0.538091 0.530000 0.608252 0.540904 0.330000 0.608252 0.540904 0.530000 0.608252 0.694662 0.330000 0.608252 0.694662 0.530000 0.608252 0.697476 0.330000 0.608252 0.697476 0.530000 0.608987 0.883670 0.330000 0.608987 0.883670 0.530000 0.609369 0.794037 0.330000 0.609369 0.794037 0.530000 0.611494 0.910390 0.330000 0.611494 0.910390 0.530000 0.612331 0.899341 0.330000 0.612331 0.899341 0.530000 0.613872 0.792078 0.330000 0.613872 0.792078 0.530000 0.616536 0.781973 0.330000 0.616536 0.781973 0.530000 0.616870 0.901407 0.330000 0.616870 0.901407 0.530000 0.617145 0.224948 0.330000 0.617145 0.224948 0.530000 0.617145 0.227762 0.330000 0.617145 0.227762 0.530000 0.617808 0.488188 0.330000 0.617808 0.488188 0.530000 0.617808 0.536710 0.330000 0.617808 0.536710 0.530000 0.617808 0.644760 0.330000 0.617808 0.644760 0.530000 0.617808 0.693281 0.330000 0.617808 0.693281 0.530000 0.618233 0.469714 0.330000 0.618233 0.469714 0.530000 0.618233 0.626285 0.330000 0.618233 0.626285 0.530000 0.619019 0.911620 0.330000 0.619019 0.911620 0.530000 0.619928 0.790405 0.330000 0.619928 0.790405 0.530000 0.621313 0.845828 0.330000 0.621313 0.845828 0.530000 0.621313 0.853665 0.330000 0.621313 0.853665 0.530000 0.622078 0.903020 0.330000 0.622078 0.903020 0.530000 0.623383 0.469714 0.330000 0.623383 0.469714 0.530000 0.623383 0.536710 0.330000 0.623383 0.536710 0.530000 0.623383 0.626285 0.330000 0.623383 0.626285 0.530000 0.623383 0.693281 0.330000 0.623383 0.693281 0.530000 0.625876 0.912230 0.330000 0.625876 0.912230 0.530000 0.626533 0.789259 0.330000 0.626533 0.789259 0.530000 0.626701 0.175046 0.330000 0.626701 0.175046 0.530000 0.626701 0.223567 0.330000 0.626701 0.223567 0.530000 0.627126 0.156571 0.330000 0.627126 0.156571 0.530000 0.627501 0.904060 0.330000 0.627501 0.904060 0.530000 0.632275 0.156571 0.330000 0.632275 0.156571 0.530000 0.632275 0.223567 0.330000 0.632275 0.223567 0.530000 0.632514 0.538091 0.330000 0.632514 0.538091 0.530000 0.632514 0.540904 0.330000 0.632514 0.540904 0.530000 0.632514 0.694662 0.330000 0.632514 0.694662 0.530000 0.632514 0.697476 0.330000 0.632514 0.697476 0.530000 0.632685 0.788877 0.330000 0.632685 0.788877 0.530000 0.632685 0.904406 0.330000 0.632685 0.904406 0.530000 0.632685 0.912433 0.330000 0.632685 0.912433 0.530000 0.634214 0.780946 0.330000 0.634214 0.780946 0.530000 0.634979 0.845065 0.330000 0.634979 0.845065 0.530000 0.634979 0.854524 0.330000 0.634979 0.854524 0.530000 0.641407 0.224948 0.330000 0.641407 0.224948 0.530000 0.641407 0.227762 0.330000 0.641407 0.227762 0.530000 0.643256 0.902937 0.330000 0.643256 0.902937 0.530000 0.644366 0.856483 0.330000 0.644366 0.856483 0.530000 0.645729 0.790596 0.330000 0.645729 0.790596 0.530000 0.645776 0.849938 0.330000 0.645776 0.849938 0.530000 0.647018 0.842926 0.330000 0.647018 0.842926 0.530000 0.647039 0.156571 0.330000 0.647039 0.156571 0.530000 0.647039 0.159385 0.330000 0.647039 0.159385 0.530000 0.647039 0.224948 0.330000 0.647039 0.224948 0.530000 0.647039 0.227762 0.330000 0.647039 0.227762 0.530000 0.650506 0.898529 0.330000 0.650506 0.898529 0.530000 0.650936 0.861213 0.330000 0.650936 0.861213 0.530000 0.653445 0.783383 0.330000 0.653445 0.783383 0.530000 0.654699 0.890897 0.330000 0.654699 0.890897 0.530000 0.654806 0.868906 0.330000 0.654806 0.868906 0.530000 0.654855 0.795756 0.330000 0.654855 0.795756 0.530000 0.655427 0.837850 0.330000 0.655427 0.837850 0.530000 0.656096 0.879752 0.330000 0.656096 0.879752 0.530000 0.656170 0.160818 0.330000 0.656170 0.160818 0.530000 0.656170 0.223567 0.330000 0.656170 0.223567 0.530000 0.657637 0.853342 0.330000 0.657637 0.853342 0.530000 0.660230 0.804930 0.330000 0.660230 0.804930 0.530000 0.660373 0.829788 0.330000 0.660373 0.829788 0.530000 0.660874 0.846438 0.330000 0.660874 0.846438 0.530000 0.661744 0.160818 0.330000 0.661744 0.160818 0.530000 0.661744 0.220595 0.330000 0.661744 0.220595 0.530000 0.662022 0.818691 0.330000 0.662022 0.818691 0.530000 0.663502 0.904550 0.330000 0.663502 0.904550 0.530000 0.666463 0.859732 0.330000 0.666463 0.859732 0.530000 0.667754 0.790693 0.330000 0.667754 0.790693 0.530000 0.668592 0.227762 0.330000 0.668592 0.227762 0.530000 0.671299 0.156571 0.330000 0.671299 0.156571 0.530000 0.671299 0.159385 0.330000 0.671299 0.159385 0.530000 0.671385 0.839952 0.330000 0.671385 0.839952 0.530000 0.671946 0.868966 0.330000 0.671946 0.868966 0.530000 0.673774 0.880899 0.330000 0.673774 0.880899 0.530000 0.676641 0.802327 0.330000 0.676641 0.802327 0.530000 0.677549 0.830409 0.330000 0.677549 0.830409 0.530000 0.679603 0.817736 0.330000 0.679603 0.817736 0.530000 0.695666 0.224948 0.330000 0.695666 0.224948 0.530000 0.695666 0.227762 0.330000 0.695666 0.227762 0.530000 0.695855 0.782857 0.330000 0.695855 0.782857 0.530000 0.695855 0.796903 0.330000 0.695855 0.796903 0.530000 0.700156 0.883670 0.330000 0.700156 0.883670 0.530000 0.700156 0.908324 0.330000 0.700156 0.908324 0.530000 0.705222 0.175046 0.330000 0.705222 0.175046 0.530000 0.705222 0.191219 0.330000 0.705222 0.223567 0.330000 0.705222 0.223567 0.530000 0.705647 0.156571 0.330000 0.705647 0.156571 0.530000 0.706462 0.883670 0.330000 0.706462 0.883670 0.530000 0.708374 0.797572 0.330000 0.708374 0.797572 0.530000 0.709807 0.899341 0.330000 0.709807 0.899341 0.530000 0.710797 0.156571 0.330000 0.710797 0.156571 0.530000 0.710797 0.223567 0.330000 0.710797 0.223567 0.530000 0.713629 0.813053 0.330000 0.713629 0.813053 0.530000 0.714226 0.901407 0.330000 0.714226 0.901407 0.530000 0.716233 0.911406 0.330000 0.716233 0.911406 0.530000 0.717667 0.805910 0.330000 0.717667 0.805910 0.530000 0.719267 0.903020 0.330000 0.719267 0.903020 0.530000 0.719928 0.224948 0.330000 0.719928 0.224948 0.530000 0.719928 0.227762 0.330000 0.719928 0.227762 0.530000 0.724547 0.904060 0.330000 0.724547 0.904060 0.530000 0.726434 0.813531 0.330000 0.726434 0.813531 0.530000 0.728464 0.826622 0.330000 0.728464 0.826622 0.530000 0.729683 0.904406 0.330000 0.729683 0.904406 0.530000 0.729683 0.912433 0.330000 0.729683 0.912433 0.530000 0.738761 0.837324 0.330000 0.738761 0.837324 0.530000 0.740696 0.902782 0.330000 0.740696 0.902782 0.530000 0.743491 0.828569 0.330000 0.743491 0.828569 0.530000 0.745653 0.846737 0.330000 0.745653 0.846737 0.530000 0.748090 0.910247 0.330000 0.748090 0.910247 0.530000 0.748126 0.897908 0.330000 0.748126 0.897908 0.530000 0.750275 0.856435 0.330000 0.750275 0.856435 0.530000 0.752354 0.889929 0.330000 0.752354 0.889929 0.530000 0.752892 0.866995 0.330000 0.752892 0.866995 0.530000 0.753764 0.878987 0.330000 0.753764 0.878987 0.530000 0.754910 0.839857 0.330000 0.754910 0.839857 0.530000 0.761265 0.903689 0.330000 0.761265 0.903689 0.530000 0.762399 0.849293 0.330000 0.762399 0.849293 0.530000 0.767666 0.858777 0.330000 0.767666 0.858777 0.530000 0.769184 0.893142 0.330000 0.769184 0.893142 0.530000 0.770784 0.868583 0.330000 0.770784 0.868583 0.530000 0.771823 0.878987 0.330000 0.771823 0.878987 0.530000 0.774308 0.782857 0.330000 0.774308 0.782857 0.530000 0.774308 0.797572 0.330000 0.774308 0.797572 0.530000 0.847000 0.000000 0.000000 0.847000 0.000000 0.330000 0.847000 1.096000 0.000000 0.847000 1.096000 0.330000 "
							            />
						</IndexedFaceSet>
					</Shape>
					<Shape>
						<Appearance>
							<Material DEF="MA_Color_2"
							          diffuseColor="1.000 1.000 1.000"
							          specularColor="0.401 0.401 0.401"
							          emissiveColor="0.000 0.000 0.000"
							          ambientIntensity="0.000"
							          shininess="0.500"
							          transparency="1.000"
							          />
						</Appearance>
						<IndexedFaceSet solid="false"
						                coordIndex="4 5 6 -1 4 22 23 -1 4 23 5 -1 5 7 6 -1 5 13 7 -1 5 23 13 -1 6 7 12 -1 7 13 12 -1 8 9 10 -1 8 14 15 -1 8 15 9 -1 9 11 10 -1 9 15 11 -1 10 11 20 -1 11 15 21 -1 11 21 20 -1 12 13 14 -1 13 15 14 -1 13 17 19 -1 13 19 15 -1 13 23 17 -1 15 19 21 -1 16 17 24 -1 16 18 19 -1 16 19 17 -1 17 23 25 -1 17 25 24 -1 18 32 33 -1 18 33 19 -1 19 33 35 -1 19 35 43 -1 19 43 21 -1 20 21 42 -1 21 43 42 -1 22 24 25 -1 22 25 23 -1 26 27 28 -1 26 30 31 -1 26 31 27 -1 27 29 28 -1 27 31 29 -1 28 29 46 -1 29 31 37 -1 29 37 47 -1 29 47 46 -1 30 50 51 -1 30 51 31 -1 31 51 37 -1 32 34 35 -1 32 35 33 -1 34 78 79 -1 34 79 35 -1 35 79 43 -1 36 37 52 -1 36 44 45 -1 36 45 37 -1 37 45 47 -1 37 51 53 -1 37 53 52 -1 38 39 40 -1 38 66 67 -1 38 67 39 -1 39 41 40 -1 39 49 41 -1 39 67 49 -1 40 41 48 -1 41 49 48 -1 42 43 74 -1 43 75 74 -1 43 79 75 -1 44 46 47 -1 44 47 45 -1 48 49 50 -1 49 51 50 -1 49 55 51 -1 49 67 55 -1 51 55 57 -1 51 57 53 -1 52 53 70 -1 53 57 71 -1 53 71 70 -1 54 55 68 -1 54 56 57 -1 54 57 55 -1 55 67 69 -1 55 69 68 -1 56 72 73 -1 56 73 57 -1 57 73 71 -1 58 59 60 -1 58 70 71 -1 58 71 59 -1 59 61 60 -1 59 71 61 -1 60 61 82 -1 61 71 73 -1 61 73 83 -1 61 83 82 -1 62 63 64 -1 62 132 133 -1 62 133 63 -1 63 65 64 -1 63 77 65 -1 63 133 77 -1 64 65 76 -1 65 77 76 -1 66 68 69 -1 66 69 67 -1 72 80 81 -1 72 81 73 -1 73 81 83 -1 74 75 138 -1 75 79 91 -1 75 91 93 -1 75 93 139 -1 75 139 138 -1 76 77 78 -1 77 79 78 -1 77 91 79 -1 77 133 91 -1 80 82 83 -1 80 83 81 -1 84 85 86 -1 84 88 89 -1 84 89 85 -1 85 87 86 -1 85 89 87 -1 86 87 150 -1 87 89 107 -1 87 107 151 -1 87 151 150 -1 88 158 159 -1 88 159 89 -1 89 159 107 -1 90 91 134 -1 90 92 91 -1 91 92 93 -1 91 133 135 -1 91 135 134 -1 92 136 137 -1 92 137 93 -1 93 137 139 -1 94 95 98 -1 94 102 103 -1 94 103 95 -1 95 99 98 -1 95 103 121 -1 95 121 99 -1 96 97 100 -1 96 104 105 -1 96 105 97 -1 97 101 100 -1 97 105 123 -1 97 123 101 -1 98 99 108 -1 99 109 108 -1 99 121 125 -1 99 125 109 -1 100 101 110 -1 101 111 110 -1 101 123 127 -1 101 127 111 -1 102 116 117 -1 102 117 103 -1 103 117 129 -1 103 129 121 -1 104 118 119 -1 104 119 105 -1 105 119 131 -1 105 131 123 -1 106 107 172 -1 106 148 149 -1 106 149 107 -1 107 149 151 -1 107 159 173 -1 107 173 172 -1 108 109 152 -1 109 125 141 -1 109 141 153 -1 109 153 152 -1 110 111 154 -1 111 127 143 -1 111 143 155 -1 111 155 154 -1 112 113 114 -1 112 202 203 -1 112 203 113 -1 113 115 114 -1 113 157 115 -1 113 203 157 -1 114 115 156 -1 115 157 156 -1 116 160 161 -1 116 161 117 -1 117 145 129 -1 117 161 145 -1 118 162 163 -1 118 163 119 -1 119 147 131 -1 119 163 147 -1 120 121 128 -1 120 124 125 -1 120 125 121 -1 121 129 128 -1 122 123 130 -1 122 126 127 -1 122 127 123 -1 123 131 130 -1 124 140 141 -1 124 141 125 -1 126 142 143 -1 126 143 127 -1 128 129 144 -1 129 145 144 -1 130 131 146 -1 131 147 146 -1 132 134 135 -1 132 135 133 -1 136 138 139 -1 136 139 137 -1 140 164 165 -1 140 165 141 -1 141 165 153 -1 142 166 167 -1 142 167 143 -1 143 167 155 -1 144 145 168 -1 145 161 169 -1 145 169 168 -1 146 147 170 -1 147 163 171 -1 147 171 170 -1 148 150 151 -1 148 151 149 -1 152 153 186 -1 153 165 187 -1 153 187 186 -1 154 155 188 -1 155 167 189 -1 155 189 188 -1 156 157 158 -1 157 159 158 -1 157 175 159 -1 157 203 175 -1 159 175 177 -1 159 177 173 -1 160 178 179 -1 160 179 161 -1 161 179 169 -1 162 180 181 -1 162 181 163 -1 163 181 171 -1 164 190 191 -1 164 191 165 -1 165 191 187 -1 166 192 193 -1 166 193 167 -1 167 193 189 -1 168 169 182 -1 169 179 183 -1 169 183 182 -1 170 171 184 -1 171 181 185 -1 171 185 184 -1 172 173 218 -1 173 177 219 -1 173 219 218 -1 174 175 204 -1 174 176 177 -1 174 177 175 -1 175 203 205 -1 175 205 204 -1 176 236 237 -1 176 237 177 -1 177 237 219 -1 178 224 225 -1 178 225 179 -1 179 207 183 -1 179 225 207 -1 180 226 227 -1 180 227 181 -1 181 209 185 -1 181 227 209 -1 182 183 206 -1 183 207 206 -1 184 185 208 -1 185 209 208 -1 186 187 220 -1 187 191 199 -1 187 199 221 -1 187 221 220 -1 188 189 222 -1 189 193 201 -1 189 201 223 -1 189 223 222 -1 190 198 199 -1 190 199 191 -1 192 200 201 -1 192 201 193 -1 194 195 196 -1 194 218 219 -1 194 219 195 -1 195 197 196 -1 195 219 197 -1 196 197 272 -1 197 219 237 -1 197 237 273 -1 197 273 272 -1 198 210 211 -1 198 211 199 -1 199 211 221 -1 200 212 213 -1 200 213 201 -1 201 213 223 -1 202 204 205 -1 202 205 203 -1 206 207 214 -1 207 215 214 -1 207 225 215 -1 208 209 216 -1 209 217 216 -1 209 227 217 -1 210 228 229 -1 210 229 211 -1 211 229 221 -1 212 230 231 -1 212 231 213 -1 213 231 223 -1 214 215 232 -1 215 225 233 -1 215 233 232 -1 216 217 234 -1 217 227 235 -1 217 235 234 -1 220 221 254 -1 221 229 255 -1 221 255 254 -1 222 223 256 -1 223 231 257 -1 223 257 256 -1 224 262 263 -1 224 263 225 -1 225 263 233 -1 226 264 265 -1 226 265 227 -1 227 265 235 -1 228 238 239 -1 228 239 229 -1 229 239 255 -1 230 240 241 -1 230 241 231 -1 231 241 257 -1 232 233 242 -1 233 243 242 -1 233 263 243 -1 234 235 244 -1 235 245 244 -1 235 265 245 -1 236 270 271 -1 236 271 237 -1 237 271 273 -1 238 246 247 -1 238 247 239 -1 239 247 259 -1 239 259 255 -1 240 248 249 -1 240 249 241 -1 241 249 261 -1 241 261 257 -1 242 243 250 -1 243 251 250 -1 243 263 267 -1 243 267 251 -1 244 245 252 -1 245 253 252 -1 245 265 269 -1 245 269 253 -1 246 258 259 -1 246 259 247 -1 248 260 261 -1 248 261 249 -1 250 251 266 -1 251 267 266 -1 252 253 268 -1 253 269 268 -1 254 255 258 -1 255 259 258 -1 256 257 260 -1 257 261 260 -1 262 266 267 -1 262 267 263 -1 264 268 269 -1 264 269 265 -1 270 272 273 -1 270 273 271 -1 274 275 276 -1 274 286 287 -1 274 287 275 -1 275 277 276 -1 275 287 277 -1 276 277 336 -1 277 287 313 -1 277 313 337 -1 277 337 336 -1 278 279 280 -1 278 306 307 -1 278 307 279 -1 279 281 280 -1 279 307 281 -1 280 281 350 -1 281 307 351 -1 281 351 350 -1 282 283 284 -1 282 310 311 -1 282 311 283 -1 283 285 284 -1 283 311 285 -1 284 285 352 -1 285 311 353 -1 285 353 352 -1 286 338 339 -1 286 339 287 -1 287 339 349 -1 287 349 359 -1 287 359 313 -1 288 289 290 -1 288 360 361 -1 288 361 289 -1 289 291 290 -1 289 305 291 -1 289 319 305 -1 289 361 319 -1 290 291 304 -1 291 305 304 -1 292 293 294 -1 292 364 365 -1 292 365 293 -1 293 295 294 -1 293 309 295 -1 293 327 309 -1 293 365 327 -1 294 295 308 -1 295 309 308 -1 296 297 298 -1 296 316 317 -1 296 317 297 -1 297 299 298 -1 297 317 299 -1 298 299 448 -1 299 317 449 -1 299 449 448 -1 300 301 302 -1 300 464 465 -1 300 465 301 -1 301 303 302 -1 301 315 303 -1 301 385 315 -1 301 465 385 -1 302 303 314 -1 303 315 314 -1 304 305 306 -1 305 307 306 -1 305 319 321 -1 305 321 323 -1 305 323 307 -1 307 323 325 -1 307 325 351 -1 308 309 310 -1 309 311 310 -1 309 327 329 -1 309 329 331 -1 309 331 311 -1 311 331 333 -1 311 333 353 -1 312 313 358 -1 312 334 335 -1 312 335 313 -1 313 335 337 -1 313 359 358 -1 314 315 316 -1 315 317 316 -1 315 385 387 -1 315 387 389 -1 315 389 317 -1 317 389 391 -1 317 391 449 -1 318 319 362 -1 318 320 321 -1 318 321 319 -1 319 361 363 -1 319 363 362 -1 320 354 355 -1 320 355 321 -1 321 345 323 -1 321 355 345 -1 322 323 344 -1 322 324 325 -1 322 325 323 -1 323 345 344 -1 324 340 341 -1 324 341 325 -1 325 341 351 -1 326 327 366 -1 326 328 329 -1 326 329 327 -1 327 365 367 -1 327 367 366 -1 328 356 357 -1 328 357 329 -1 329 347 331 -1 329 357 347 -1 330 331 346 -1 330 332 333 -1 330 333 331 -1 331 347 346 -1 332 342 343 -1 332 343 333 -1 333 343 353 -1 334 336 337 -1 334 337 335 -1 338 348 349 -1 338 349 339 -1 340 380 381 -1 340 381 341 -1 341 381 351 -1 342 382 383 -1 342 383 343 -1 343 383 353 -1 344 345 376 -1 345 355 377 -1 345 377 376 -1 346 347 378 -1 347 357 379 -1 347 379 378 -1 348 422 423 -1 348 423 349 -1 349 423 359 -1 350 351 428 -1 351 381 429 -1 351 429 428 -1 352 353 430 -1 353 383 431 -1 353 431 430 -1 354 396 397 -1 354 397 355 -1 355 397 377 -1 356 398 399 -1 356 399 357 -1 357 399 379 -1 358 359 432 -1 359 423 433 -1 359 433 432 -1 360 362 363 -1 360 363 361 -1 364 366 367 -1 364 367 365 -1 368 369 370 -1 368 468 469 -1 368 469 369 -1 369 371 370 -1 369 405 371 -1 369 469 405 -1 370 371 404 -1 371 405 404 -1 372 373 374 -1 372 406 407 -1 372 407 373 -1 373 375 374 -1 373 407 375 -1 374 375 474 -1 375 407 447 -1 375 447 475 -1 375 475 474 -1 376 377 392 -1 377 393 392 -1 377 397 393 -1 378 379 394 -1 379 395 394 -1 379 399 395 -1 380 400 401 -1 380 401 381 -1 381 401 429 -1 382 402 403 -1 382 403 383 -1 383 403 431 -1 384 385 466 -1 384 386 387 -1 384 387 385 -1 385 465 467 -1 385 467 466 -1 386 454 455 -1 386 455 387 -1 387 437 389 -1 387 455 437 -1 388 389 436 -1 388 390 391 -1 388 391 389 -1 389 437 436 -1 390 434 435 -1 390 435 391 -1 391 435 449 -1 392 393 408 -1 393 397 425 -1 393 409 408 -1 393 425 409 -1 394 395 410 -1 395 399 427 -1 395 411 410 -1 395 427 411 -1 396 424 425 -1 396 425 397 -1 398 426 427 -1 398 427 399 -1 400 412 413 -1 400 413 401 -1 401 413 429 -1 402 414 415 -1 402 415 403 -1 403 415 431 -1 404 405 406 -1 405 407 406 -1 405 445 407 -1 405 469 445 -1 407 445 447 -1 408 409 416 -1 409 417 416 -1 409 425 451 -1 409 451 417 -1 410 411 418 -1 411 419 418 -1 411 427 453 -1 411 453 419 -1 412 416 417 -1 412 417 413 -1 413 417 457 -1 413 457 429 -1 414 418 419 -1 414 419 415 -1 415 419 459 -1 415 459 431 -1 417 451 457 -1 419 453 459 -1 420 421 440 -1 420 438 439 -1 420 439 421 -1 421 439 621 -1 421 441 440 -1 421 463 441 -1 421 499 463 -1 421 543 499 -1 421 577 543 -1 421 597 577 -1 421 609 597 -1 421 621 609 -1 422 500 501 -1 422 501 423 -1 423 501 513 -1 423 513 433 -1 424 450 451 -1 424 451 425 -1 426 452 453 -1 426 453 427 -1 428 429 456 -1 429 457 456 -1 430 431 458 -1 431 459 458 -1 432 433 442 -1 433 443 442 -1 433 513 443 -1 434 494 495 -1 434 495 435 -1 435 495 449 -1 436 437 492 -1 437 455 493 -1 437 493 492 -1 438 460 461 -1 438 461 439 -1 439 461 621 -1 440 441 462 -1 441 463 462 -1 442 443 512 -1 443 513 512 -1 444 445 470 -1 444 446 447 -1 444 447 445 -1 445 469 471 -1 445 471 470 -1 446 472 473 -1 446 473 447 -1 447 473 475 -1 448 449 570 -1 449 495 571 -1 449 571 570 -1 450 456 457 -1 450 457 451 -1 452 458 459 -1 452 459 453 -1 454 524 525 -1 454 525 455 -1 455 525 493 -1 460 496 497 -1 460 497 461 -1 461 497 621 -1 462 463 498 -1 463 499 498 -1 464 466 467 -1 464 467 465 -1 468 470 471 -1 468 471 469 -1 472 474 475 -1 472 475 473 -1 476 477 478 -1 476 560 561 -1 476 561 477 -1 477 479 478 -1 477 515 479 -1 477 561 515 -1 478 479 514 -1 479 515 514 -1 480 481 482 -1 480 516 517 -1 480 517 481 -1 481 483 482 -1 481 517 483 -1 482 483 554 -1 483 517 555 -1 483 555 554 -1 484 485 486 -1 484 564 565 -1 484 565 485 -1 485 487 486 -1 485 519 487 -1 485 565 519 -1 486 487 518 -1 487 519 518 -1 488 489 490 -1 488 520 521 -1 488 521 489 -1 489 491 490 -1 489 521 491 -1 490 491 556 -1 491 521 557 -1 491 557 556 -1 492 493 522 -1 493 523 522 -1 493 525 523 -1 494 526 527 -1 494 527 495 -1 495 527 571 -1 496 540 541 -1 496 541 497 -1 497 541 621 -1 498 499 542 -1 499 543 542 -1 500 502 503 -1 500 503 501 -1 501 503 581 -1 501 581 513 -1 502 580 581 -1 502 581 503 -1 504 505 506 -1 504 584 585 -1 504 585 505 -1 505 507 506 -1 505 545 507 -1 505 585 545 -1 506 507 544 -1 507 545 544 -1 508 509 510 -1 508 546 547 -1 508 547 509 -1 509 511 510 -1 509 547 511 -1 510 511 590 -1 511 547 575 -1 511 575 591 -1 511 591 590 -1 512 513 558 -1 513 559 558 -1 513 581 559 -1 514 515 517 -1 514 517 516 -1 515 533 535 -1 515 535 517 -1 515 561 533 -1 517 535 555 -1 518 519 521 -1 518 521 520 -1 519 537 539 -1 519 539 521 -1 519 565 537 -1 521 539 557 -1 522 523 548 -1 523 525 569 -1 523 549 548 -1 523 569 549 -1 524 568 569 -1 524 569 525 -1 526 550 551 -1 526 551 527 -1 527 551 571 -1 528 529 530 -1 528 558 559 -1 528 559 529 -1 529 531 530 -1 529 559 531 -1 530 531 594 -1 531 559 581 -1 531 581 595 -1 531 595 594 -1 532 533 562 -1 532 534 535 -1 532 535 533 -1 533 561 563 -1 533 563 562 -1 534 652 653 -1 534 653 535 -1 535 645 555 -1 535 653 665 -1 535 665 645 -1 536 537 566 -1 536 538 539 -1 536 539 537 -1 537 565 567 -1 537 567 566 -1 538 654 655 -1 538 655 539 -1 539 649 557 -1 539 655 669 -1 539 669 649 -1 540 578 579 -1 540 579 541 -1 541 579 599 -1 541 599 611 -1 541 611 621 -1 542 543 576 -1 543 577 576 -1 544 545 546 -1 545 547 546 -1 545 573 547 -1 545 585 573 -1 547 573 575 -1 548 549 552 -1 549 553 552 -1 549 569 583 -1 549 583 553 -1 550 552 553 -1 550 553 551 -1 551 553 605 -1 551 605 571 -1 553 583 605 -1 554 555 644 -1 555 645 644 -1 556 557 648 -1 557 649 648 -1 560 562 563 -1 560 563 561 -1 564 566 567 -1 564 567 565 -1 568 582 583 -1 568 583 569 -1 570 571 604 -1 571 605 604 -1 572 573 586 -1 572 574 575 -1 572 575 573 -1 573 585 587 -1 573 587 586 -1 574 588 589 -1 574 589 575 -1 575 589 591 -1 576 577 596 -1 577 597 596 -1 578 598 599 -1 578 599 579 -1 580 592 593 -1 580 593 581 -1 581 593 595 -1 582 604 605 -1 582 605 583 -1 584 586 587 -1 584 587 585 -1 588 590 591 -1 588 591 589 -1 592 594 595 -1 592 595 593 -1 596 597 608 -1 597 609 608 -1 598 610 611 -1 598 611 599 -1 600 601 602 -1 600 606 607 -1 600 607 601 -1 601 603 602 -1 601 607 603 -1 602 603 662 -1 603 607 643 -1 603 643 663 -1 603 663 662 -1 606 672 673 -1 606 673 607 -1 607 673 675 -1 607 675 681 -1 607 681 643 -1 608 609 620 -1 609 621 620 -1 610 620 621 -1 610 621 611 -1 612 613 614 -1 612 682 683 -1 612 683 613 -1 613 615 614 -1 613 631 615 -1 613 683 631 -1 614 615 630 -1 615 631 630 -1 616 617 618 -1 616 632 633 -1 616 633 617 -1 617 619 618 -1 617 633 619 -1 618 619 688 -1 619 633 659 -1 619 659 689 -1 619 689 688 -1 622 623 624 -1 622 646 647 -1 622 647 623 -1 623 625 624 -1 623 647 625 -1 624 625 692 -1 625 647 667 -1 625 667 693 -1 625 693 692 -1 626 627 628 -1 626 650 651 -1 626 651 627 -1 627 629 628 -1 627 651 629 -1 628 629 696 -1 629 651 671 -1 629 671 697 -1 629 697 696 -1 630 631 632 -1 631 633 632 -1 631 657 633 -1 631 683 657 -1 633 657 659 -1 634 635 636 -1 634 772 773 -1 634 773 635 -1 635 637 636 -1 635 677 637 -1 635 773 677 -1 636 637 676 -1 637 677 676 -1 638 639 640 -1 638 678 679 -1 638 679 639 -1 639 641 640 -1 639 679 641 -1 640 641 778 -1 641 679 721 -1 641 721 779 -1 641 779 778 -1 642 643 680 -1 642 660 661 -1 642 661 643 -1 643 661 663 -1 643 681 680 -1 644 645 646 -1 645 647 646 -1 645 665 667 -1 645 667 647 -1 648 649 650 -1 649 651 650 -1 649 669 671 -1 649 671 651 -1 652 664 665 -1 652 665 653 -1 654 668 669 -1 654 669 655 -1 656 657 684 -1 656 658 659 -1 656 659 657 -1 657 683 685 -1 657 685 684 -1 658 686 687 -1 658 687 659 -1 659 687 689 -1 660 662 663 -1 660 663 661 -1 664 666 667 -1 664 667 665 -1 666 690 691 -1 666 691 667 -1 667 691 693 -1 668 670 671 -1 668 671 669 -1 670 694 695 -1 670 695 671 -1 671 695 697 -1 672 674 675 -1 672 675 673 -1 674 722 723 -1 674 723 675 -1 675 723 681 -1 676 677 678 -1 677 679 678 -1 677 719 679 -1 677 773 719 -1 679 719 721 -1 680 681 728 -1 681 723 729 -1 681 729 728 -1 682 684 685 -1 682 685 683 -1 686 688 689 -1 686 689 687 -1 690 692 693 -1 690 693 691 -1 694 696 697 -1 694 697 695 -1 698 699 700 -1 698 790 791 -1 698 791 699 -1 699 701 700 -1 699 725 701 -1 699 791 725 -1 700 701 724 -1 701 725 724 -1 702 703 704 -1 702 726 727 -1 702 727 703 -1 703 705 704 -1 703 727 705 -1 704 705 796 -1 705 727 763 -1 705 763 797 -1 705 797 796 -1 706 707 710 -1 706 714 715 -1 706 715 707 -1 707 711 710 -1 707 715 739 -1 707 739 711 -1 708 709 712 -1 708 716 717 -1 708 717 709 -1 709 713 712 -1 709 717 741 -1 709 741 713 -1 710 711 730 -1 711 731 730 -1 711 739 745 -1 711 745 731 -1 712 713 732 -1 713 733 732 -1 713 741 747 -1 713 747 733 -1 714 734 735 -1 714 735 715 -1 715 735 749 -1 715 749 739 -1 716 736 737 -1 716 737 717 -1 717 737 751 -1 717 751 741 -1 718 719 774 -1 718 720 721 -1 718 721 719 -1 719 773 775 -1 719 775 774 -1 720 776 777 -1 720 777 721 -1 721 777 779 -1 722 788 789 -1 722 789 723 -1 723 789 801 -1 723 801 729 -1 724 725 726 -1 725 727 726 -1 725 761 727 -1 725 791 761 -1 727 761 763 -1 728 729 742 -1 729 743 742 -1 729 801 743 -1 730 731 764 -1 731 745 753 -1 731 753 765 -1 731 765 764 -1 732 733 766 -1 733 747 755 -1 733 755 767 -1 733 767 766 -1 734 768 769 -1 734 769 735 -1 735 757 749 -1 735 769 757 -1 736 770 771 -1 736 771 737 -1 737 759 751 -1 737 771 759 -1 738 739 748 -1 738 744 745 -1 738 745 739 -1 739 749 748 -1 740 741 750 -1 740 746 747 -1 740 747 741 -1 741 751 750 -1 742 743 800 -1 743 801 800 -1 744 752 753 -1 744 753 745 -1 746 754 755 -1 746 755 747 -1 748 749 756 -1 749 757 756 -1 750 751 758 -1 751 759 758 -1 752 780 781 -1 752 781 753 -1 753 781 765 -1 754 782 783 -1 754 783 755 -1 755 783 767 -1 756 757 784 -1 757 769 785 -1 757 785 784 -1 758 759 786 -1 759 771 787 -1 759 787 786 -1 760 761 792 -1 760 762 763 -1 760 763 761 -1 761 791 793 -1 761 793 792 -1 762 794 795 -1 762 795 763 -1 763 795 797 -1 764 765 822 -1 765 781 823 -1 765 823 822 -1 766 767 824 -1 767 783 825 -1 767 825 824 -1 768 814 815 -1 768 815 769 -1 769 815 785 -1 770 816 817 -1 770 817 771 -1 771 817 787 -1 772 774 775 -1 772 775 773 -1 776 778 779 -1 776 779 777 -1 780 826 827 -1 780 827 781 -1 781 827 823 -1 782 828 829 -1 782 829 783 -1 783 829 825 -1 784 785 818 -1 785 815 819 -1 785 819 818 -1 786 787 820 -1 787 817 821 -1 787 821 820 -1 788 798 799 -1 788 799 789 -1 789 799 871 -1 789 871 801 -1 790 792 793 -1 790 793 791 -1 794 796 797 -1 794 797 795 -1 798 870 871 -1 798 871 799 -1 800 801 848 -1 801 849 848 -1 801 871 849 -1 802 803 804 -1 802 848 849 -1 802 849 803 -1 803 805 804 -1 803 849 805 -1 804 805 902 -1 805 849 871 -1 805 871 903 -1 805 903 902 -1 806 807 808 -1 806 934 935 -1 806 935 807 -1 807 809 808 -1 807 845 809 -1 807 935 845 -1 808 809 844 -1 809 845 844 -1 810 811 812 -1 810 846 847 -1 810 847 811 -1 811 813 812 -1 811 847 813 -1 812 813 940 -1 813 847 879 -1 813 879 941 -1 813 941 940 -1 814 862 815 -1 815 837 819 -1 815 862 863 -1 815 863 837 -1 816 864 865 -1 816 865 817 -1 817 839 821 -1 817 865 839 -1 818 819 836 -1 819 837 836 -1 820 821 838 -1 821 839 838 -1 822 823 858 -1 823 827 833 -1 823 833 859 -1 823 859 858 -1 824 825 860 -1 825 829 835 -1 825 835 861 -1 825 861 860 -1 826 832 833 -1 826 833 827 -1 828 834 835 -1 828 835 829 -1 830 831 840 -1 830 842 843 -1 830 843 831 -1 831 841 840 -1 831 843 905 -1 831 905 841 -1 832 850 851 -1 832 851 833 -1 833 851 859 -1 834 852 853 -1 834 853 835 -1 835 853 861 -1 836 837 854 -1 837 855 854 -1 837 863 855 -1 838 839 856 -1 839 857 856 -1 839 865 857 -1 840 841 880 -1 841 881 880 -1 841 905 915 -1 841 915 881 -1 842 886 887 -1 842 887 843 -1 843 887 921 -1 843 921 905 -1 844 845 846 -1 845 847 846 -1 845 877 847 -1 845 935 877 -1 847 877 879 -1 850 866 867 -1 850 867 851 -1 851 867 859 -1 852 868 869 -1 852 869 853 -1 853 869 861 -1 854 855 872 -1 855 863 873 -1 855 873 872 -1 856 857 874 -1 857 865 875 -1 857 875 874 -1 858 859 906 -1 859 867 907 -1 859 907 906 -1 860 861 908 -1 861 869 909 -1 861 909 908 -1 862 916 917 -1 862 917 863 -1 863 917 873 -1 864 918 919 -1 864 919 865 -1 865 919 875 -1 866 882 883 -1 866 883 867 -1 867 883 907 -1 868 884 885 -1 868 885 869 -1 869 885 909 -1 870 900 901 -1 870 901 871 -1 871 901 903 -1 872 873 888 -1 873 889 888 -1 873 917 889 -1 874 875 890 -1 875 891 890 -1 875 919 891 -1 876 877 936 -1 876 878 879 -1 876 879 877 -1 877 935 937 -1 877 937 936 -1 878 938 939 -1 878 939 879 -1 879 939 941 -1 880 881 974 -1 881 915 943 -1 881 943 975 -1 881 975 974 -1 882 892 893 -1 882 893 883 -1 883 893 911 -1 883 911 907 -1 884 894 895 -1 884 895 885 -1 885 895 913 -1 885 913 909 -1 886 980 981 -1 886 981 887 -1 887 945 921 -1 887 981 945 -1 888 889 896 -1 889 897 896 -1 889 917 931 -1 889 931 897 -1 890 891 898 -1 891 899 898 -1 891 919 933 -1 891 933 899 -1 892 910 911 -1 892 911 893 -1 894 912 913 -1 894 913 895 -1 896 897 930 -1 897 931 930 -1 898 899 932 -1 899 933 932 -1 900 902 903 -1 900 903 901 -1 904 905 920 -1 904 914 915 -1 904 915 905 -1 905 921 920 -1 906 907 910 -1 907 911 910 -1 908 909 912 -1 909 913 912 -1 914 942 943 -1 914 943 915 -1 916 930 931 -1 916 931 917 -1 918 932 933 -1 918 933 919 -1 920 921 944 -1 921 945 944 -1 922 923 924 -1 922 1000 1001 -1 922 1001 923 -1 923 925 924 -1 923 947 925 -1 923 1001 947 -1 924 925 946 -1 925 947 946 -1 926 927 928 -1 926 948 949 -1 926 949 927 -1 927 929 928 -1 927 949 929 -1 928 929 994 -1 929 949 995 -1 929 995 994 -1 934 936 937 -1 934 937 935 -1 938 940 941 -1 938 941 939 -1 942 996 997 -1 942 997 943 -1 943 997 975 -1 944 945 998 -1 945 981 999 -1 945 999 998 -1 946 947 948 -1 947 949 948 -1 947 977 979 -1 947 979 949 -1 947 1001 977 -1 949 979 995 -1 950 951 952 -1 950 984 985 -1 950 985 951 -1 951 953 952 -1 951 985 953 -1 952 953 1032 -1 953 985 1033 -1 953 1033 1032 -1 954 955 956 -1 954 988 989 -1 954 989 955 -1 955 957 956 -1 955 989 957 -1 956 957 1034 -1 957 989 1035 -1 957 1035 1034 -1 958 959 960 -1 958 1040 1041 -1 958 1041 959 -1 959 961 960 -1 959 991 961 -1 959 1041 991 -1 960 961 990 -1 961 991 990 -1 962 963 964 -1 962 992 993 -1 962 993 963 -1 963 965 964 -1 963 993 965 -1 964 965 1046 -1 965 993 1023 -1 965 1023 1047 -1 965 1047 1046 -1 966 967 968 -1 966 1048 1049 -1 966 1049 967 -1 967 969 968 -1 967 983 969 -1 967 1005 983 -1 967 1049 1005 -1 968 969 982 -1 969 983 982 -1 970 971 972 -1 970 1052 1053 -1 970 1053 971 -1 971 973 972 -1 971 987 973 -1 971 1013 987 -1 971 1053 1013 -1 972 973 986 -1 973 987 986 -1 974 975 1068 -1 975 997 1069 -1 975 1069 1068 -1 976 977 1002 -1 976 978 979 -1 976 979 977 -1 977 1001 1003 -1 977 1003 1002 -1 978 1116 1117 -1 978 1117 979 -1 979 1113 995 -1 979 1117 1131 -1 979 1131 1113 -1 980 1064 1065 -1 980 1065 981 -1 981 1065 999 -1 982 983 984 -1 983 985 984 -1 983 1005 1007 -1 983 1007 1009 -1 983 1009 985 -1 985 1009 1011 -1 985 1011 1033 -1 986 987 988 -1 987 989 988 -1 987 1013 1015 -1 987 1015 1017 -1 987 1017 989 -1 989 1017 1019 -1 989 1019 1035 -1 990 991 992 -1 991 993 992 -1 991 1021 993 -1 991 1041 1021 -1 993 1021 1023 -1 994 995 1112 -1 995 1113 1112 -1 996 1070 1071 -1 996 1071 997 -1 997 1071 1069 -1 998 999 1066 -1 999 1065 1067 -1 999 1067 1066 -1 1000 1002 1003 -1 1000 1003 1001 -1 1004 1005 1050 -1 1004 1006 1007 -1 1004 1007 1005 -1 1005 1049 1051 -1 1005 1051 1050 -1 1006 1036 1037 -1 1006 1037 1007 -1 1007 1029 1009 -1 1007 1037 1029 -1 1008 1009 1028 -1 1008 1010 1011 -1 1008 1011 1009 -1 1009 1029 1028 -1 1010 1024 1025 -1 1010 1025 1011 -1 1011 1025 1033 -1 1012 1013 1054 -1 1012 1014 1015 -1 1012 1015 1013 -1 1013 1053 1055 -1 1013 1055 1054 -1 1014 1038 1039 -1 1014 1039 1015 -1 1015 1031 1017 -1 1015 1039 1031 -1 1016 1017 1030 -1 1016 1018 1019 -1 1016 1019 1017 -1 1017 1031 1030 -1 1018 1026 1027 -1 1018 1027 1019 -1 1019 1027 1035 -1 1020 1021 1042 -1 1020 1022 1021 -1 1021 1022 1023 -1 1021 1041 1043 -1 1021 1043 1042 -1 1022 1044 1045 -1 1022 1045 1023 -1 1023 1045 1047 -1 1024 1060 1061 -1 1024 1061 1025 -1 1025 1061 1033 -1 1026 1062 1063 -1 1026 1063 1027 -1 1027 1063 1035 -1 1028 1029 1056 -1 1029 1037 1057 -1 1029 1057 1056 -1 1030 1031 1058 -1 1031 1039 1059 -1 1031 1059 1058 -1 1032 1033 1108 -1 1033 1061 1109 -1 1033 1109 1108 -1 1034 1035 1110 -1 1035 1063 1111 -1 1035 1111 1110 -1 1036 1076 1077 -1 1036 1077 1037 -1 1037 1077 1057 -1 1038 1078 1079 -1 1038 1079 1039 -1 1039 1079 1059 -1 1040 1042 1043 -1 1040 1043 1041 -1 1044 1046 1047 -1 1044 1047 1045 -1 1048 1050 1051 -1 1048 1051 1049 -1 1052 1054 1055 -1 1052 1055 1053 -1 1056 1057 1072 -1 1057 1073 1072 -1 1057 1077 1073 -1 1058 1059 1074 -1 1059 1075 1074 -1 1059 1079 1075 -1 1060 1080 1081 -1 1060 1081 1061 -1 1061 1081 1109 -1 1062 1082 1083 -1 1062 1083 1063 -1 1063 1083 1111 -1 1064 1136 1137 -1 1064 1137 1065 -1 1065 1103 1067 -1 1065 1137 1103 -1 1066 1067 1102 -1 1067 1103 1102 -1 1068 1069 1134 -1 1069 1071 1101 -1 1069 1101 1135 -1 1069 1135 1134 -1 1070 1100 1101 -1 1070 1101 1071 -1 1072 1073 1088 -1 1073 1077 1105 -1 1073 1089 1088 -1 1073 1105 1089 -1 1074 1075 1090 -1 1075 1079 1107 -1 1075 1091 1090 -1 1075 1107 1091 -1 1076 1104 1105 -1 1076 1105 1077 -1 1078 1106 1107 -1 1078 1107 1079 -1 1080 1092 1093 -1 1080 1093 1081 -1 1081 1093 1109 -1 1082 1094 1095 -1 1082 1095 1083 -1 1083 1095 1111 -1 1084 1085 1086 -1 1084 1114 1115 -1 1084 1115 1085 -1 1085 1087 1086 -1 1085 1115 1087 -1 1086 1087 1160 -1 1087 1115 1133 -1 1087 1133 1161 -1 1087 1161 1160 -1 1088 1089 1096 -1 1089 1097 1096 -1 1089 1105 1119 -1 1089 1119 1097 -1 1090 1091 1098 -1 1091 1099 1098 -1 1091 1107 1121 -1 1091 1121 1099 -1 1092 1096 1097 -1 1092 1097 1093 -1 1093 1097 1125 -1 1093 1125 1109 -1 1094 1098 1099 -1 1094 1099 1095 -1 1095 1099 1127 -1 1095 1127 1111 -1 1097 1119 1125 -1 1099 1121 1127 -1 1100 1122 1123 -1 1100 1123 1101 -1 1101 1123 1135 -1 1102 1103 1128 -1 1103 1129 1128 -1 1103 1137 1129 -1 1104 1118 1119 -1 1104 1119 1105 -1 1106 1120 1121 -1 1106 1121 1107 -1 1108 1109 1124 -1 1109 1125 1124 -1 1110 1111 1126 -1 1111 1127 1126 -1 1112 1113 1114 -1 1113 1115 1114 -1 1113 1131 1133 -1 1113 1133 1115 -1 1116 1130 1131 -1 1116 1131 1117 -1 1118 1124 1125 -1 1118 1125 1119 -1 1120 1126 1127 -1 1120 1127 1121 -1 1122 1154 1155 -1 1122 1155 1123 -1 1123 1155 1135 -1 1128 1129 1156 -1 1129 1137 1157 -1 1129 1157 1156 -1 1130 1132 1133 -1 1130 1133 1131 -1 1132 1158 1159 -1 1132 1159 1133 -1 1133 1159 1161 -1 1134 1135 1194 -1 1135 1155 1195 -1 1135 1195 1194 -1 1136 1202 1203 -1 1136 1203 1137 -1 1137 1203 1157 -1 1138 1139 1140 -1 1138 1214 1215 -1 1138 1215 1139 -1 1139 1141 1140 -1 1139 1173 1141 -1 1139 1215 1173 -1 1140 1141 1172 -1 1141 1173 1172 -1 1142 1143 1144 -1 1142 1174 1175 -1 1142 1175 1143 -1 1143 1145 1144 -1 1143 1175 1145 -1 1144 1145 1206 -1 1145 1175 1207 -1 1145 1207 1206 -1 1146 1147 1148 -1 1146 1218 1219 -1 1146 1219 1147 -1 1147 1149 1148 -1 1147 1177 1149 -1 1147 1219 1177 -1 1148 1149 1176 -1 1149 1177 1176 -1 1150 1151 1152 -1 1150 1178 1179 -1 1150 1179 1151 -1 1151 1153 1152 -1 1151 1179 1153 -1 1152 1153 1208 -1 1153 1179 1209 -1 1153 1209 1208 -1 1154 1162 1163 -1 1154 1163 1155 -1 1155 1163 1195 -1 1156 1157 1180 -1 1157 1181 1180 -1 1157 1203 1181 -1 1158 1160 1161 -1 1158 1161 1159 -1 1162 1182 1183 -1 1162 1183 1163 -1 1163 1183 1197 -1 1163 1197 1195 -1 1164 1165 1166 -1 1164 1224 1225 -1 1164 1225 1165 -1 1165 1167 1166 -1 1165 1199 1167 -1 1165 1225 1199 -1 1166 1167 1198 -1 1167 1199 1198 -1 1168 1169 1170 -1 1168 1200 1201 -1 1168 1201 1169 -1 1169 1171 1170 -1 1169 1201 1171 -1 1170 1171 1222 -1 1171 1201 1223 -1 1171 1223 1222 -1 1172 1173 1175 -1 1172 1175 1174 -1 1173 1187 1189 -1 1173 1189 1175 -1 1173 1215 1187 -1 1175 1189 1207 -1 1176 1177 1179 -1 1176 1179 1178 -1 1177 1191 1193 -1 1177 1193 1179 -1 1177 1219 1191 -1 1179 1193 1209 -1 1180 1181 1184 -1 1181 1185 1184 -1 1181 1203 1205 -1 1181 1205 1185 -1 1182 1196 1197 -1 1182 1197 1183 -1 1184 1185 1204 -1 1185 1205 1204 -1 1186 1187 1216 -1 1186 1188 1189 -1 1186 1189 1187 -1 1187 1215 1217 -1 1187 1217 1216 -1 1188 1272 1273 -1 1188 1273 1189 -1 1189 1265 1207 -1 1189 1273 1287 -1 1189 1287 1265 -1 1190 1191 1220 -1 1190 1192 1193 -1 1190 1193 1191 -1 1191 1219 1221 -1 1191 1221 1220 -1 1192 1274 1275 -1 1192 1275 1193 -1 1193 1269 1209 -1 1193 1275 1291 -1 1193 1291 1269 -1 1194 1195 1196 -1 1195 1197 1196 -1 1198 1199 1200 -1 1199 1201 1200 -1 1199 1211 1213 -1 1199 1213 1201 -1 1199 1225 1211 -1 1201 1213 1223 -1 1202 1204 1205 -1 1202 1205 1203 -1 1206 1207 1264 -1 1207 1265 1264 -1 1208 1209 1268 -1 1209 1269 1268 -1 1210 1211 1226 -1 1210 1212 1213 -1 1210 1213 1211 -1 1211 1225 1227 -1 1211 1227 1226 -1 1212 1302 1303 -1 1212 1303 1213 -1 1213 1299 1223 -1 1213 1303 1307 -1 1213 1307 1299 -1 1214 1216 1217 -1 1214 1217 1215 -1 1218 1220 1221 -1 1218 1221 1219 -1 1222 1223 1298 -1 1223 1299 1298 -1 1224 1226 1227 -1 1224 1227 1225 -1 1228 1229 1236 -1 1228 1230 1229 -1 1229 1230 1231 -1 1229 1231 1249 -1 1229 1237 1236 -1 1229 1249 1237 -1 1230 1256 1257 -1 1230 1257 1231 -1 1231 1255 1249 -1 1231 1257 1255 -1 1232 1233 1234 -1 1232 1246 1247 -1 1232 1247 1233 -1 1233 1235 1234 -1 1233 1247 1253 -1 1233 1253 1235 -1 1234 1235 1250 -1 1235 1251 1250 -1 1235 1253 1251 -1 1236 1237 1248 -1 1237 1249 1248 -1 1238 1239 1240 -1 1238 1266 1267 -1 1238 1267 1239 -1 1239 1241 1240 -1 1239 1267 1241 -1 1240 1241 1312 -1 1241 1267 1289 -1 1241 1289 1313 -1 1241 1313 1312 -1 1242 1243 1244 -1 1242 1270 1271 -1 1242 1271 1243 -1 1243 1245 1244 -1 1243 1271 1245 -1 1244 1245 1316 -1 1245 1271 1293 -1 1245 1293 1317 -1 1245 1317 1316 -1 1246 1252 1253 -1 1246 1253 1247 -1 1248 1249 1254 -1 1249 1255 1254 -1 1250 1251 1276 -1 1251 1253 1259 -1 1251 1259 1277 -1 1251 1277 1276 -1 1252 1258 1259 -1 1252 1259 1253 -1 1254 1255 1278 -1 1255 1257 1279 -1 1255 1279 1278 -1 1256 1324 1325 -1 1256 1325 1257 -1 1257 1297 1279 -1 1257 1325 1297 -1 1258 1284 1285 -1 1258 1285 1259 -1 1259 1285 1277 -1 1260 1261 1262 -1 1260 1300 1301 -1 1260 1301 1261 -1 1261 1263 1262 -1 1261 1301 1263 -1 1262 1263 1332 -1 1263 1301 1309 -1 1263 1309 1333 -1 1263 1333 1332 -1 1264 1265 1266 -1 1265 1267 1266 -1 1265 1287 1289 -1 1265 1289 1267 -1 1268 1269 1270 -1 1269 1271 1270 -1 1269 1291 1293 -1 1269 1293 1271 -1 1272 1286 1287 -1 1272 1287 1273 -1 1274 1290 1291 -1 1274 1291 1275 -1 1276 1277 1294 -1 1277 1285 1295 -1 1277 1295 1294 -1 1278 1279 1296 -1 1279 1297 1296 -1 1280 1281 1282 -1 1280 1326 1327 -1 1280 1327 1281 -1 1281 1283 1282 -1 1281 1327 1283 -1 1282 1283 1328 -1 1283 1327 1329 -1 1283 1329 1328 -1 1284 1304 1305 -1 1284 1305 1285 -1 1285 1305 1295 -1 1286 1288 1289 -1 1286 1289 1287 -1 1288 1310 1311 -1 1288 1311 1289 -1 1289 1311 1313 -1 1290 1292 1293 -1 1290 1293 1291 -1 1292 1314 1315 -1 1292 1315 1293 -1 1293 1315 1317 -1 1294 1295 1322 -1 1295 1305 1323 -1 1295 1323 1322 -1 1296 1297 1318 -1 1297 1319 1318 -1 1297 1325 1319 -1 1298 1299 1300 -1 1299 1301 1300 -1 1299 1307 1309 -1 1299 1309 1301 -1 1302 1306 1307 -1 1302 1307 1303 -1 1304 1320 1321 -1 1304 1321 1305 -1 1305 1321 1323 -1 1306 1308 1309 -1 1306 1309 1307 -1 1308 1330 1331 -1 1308 1331 1309 -1 1309 1331 1333 -1 1310 1312 1313 -1 1310 1313 1311 -1 1314 1316 1317 -1 1314 1317 1315 -1 1318 1319 1338 -1 1319 1325 1339 -1 1319 1339 1338 -1 1320 1334 1335 -1 1320 1335 1321 -1 1321 1335 1323 -1 1322 1323 1386 -1 1323 1335 1387 -1 1323 1387 1386 -1 1324 1356 1357 -1 1324 1357 1325 -1 1325 1357 1339 -1 1326 1342 1343 -1 1326 1343 1327 -1 1327 1337 1329 -1 1327 1341 1337 -1 1327 1343 1341 -1 1328 1329 1336 -1 1329 1337 1336 -1 1330 1332 1333 -1 1330 1333 1331 -1 1334 1352 1353 -1 1334 1353 1335 -1 1335 1353 1387 -1 1336 1337 1354 -1 1337 1341 1373 -1 1337 1355 1354 -1 1337 1373 1355 -1 1338 1339 1362 -1 1339 1357 1363 -1 1339 1363 1362 -1 1340 1341 1378 -1 1340 1372 1373 -1 1340 1373 1341 -1 1341 1343 1379 -1 1341 1379 1378 -1 1342 1364 1365 -1 1342 1365 1343 -1 1343 1365 1379 -1 1344 1345 1346 -1 1344 1394 1395 -1 1344 1395 1345 -1 1345 1347 1346 -1 1345 1369 1347 -1 1345 1395 1369 -1 1346 1347 1368 -1 1347 1369 1368 -1 1348 1349 1350 -1 1348 1370 1371 -1 1348 1371 1349 -1 1349 1351 1350 -1 1349 1371 1351 -1 1350 1351 1392 -1 1351 1371 1393 -1 1351 1393 1392 -1 1352 1358 1359 -1 1352 1359 1353 -1 1353 1359 1387 -1 1354 1355 1360 -1 1355 1361 1360 -1 1355 1373 1389 -1 1355 1389 1361 -1 1356 1390 1391 -1 1356 1391 1357 -1 1357 1391 1363 -1 1358 1366 1367 -1 1358 1367 1359 -1 1359 1367 1403 -1 1359 1403 1387 -1 1360 1361 1366 -1 1361 1367 1366 -1 1361 1389 1401 -1 1361 1401 1367 -1 1362 1363 1374 -1 1363 1375 1374 -1 1363 1391 1375 -1 1364 1376 1377 -1 1364 1377 1365 -1 1365 1377 1399 -1 1365 1399 1379 -1 1367 1401 1403 -1 1368 1369 1370 -1 1369 1371 1370 -1 1369 1381 1383 -1 1369 1383 1371 -1 1369 1395 1381 -1 1371 1383 1393 -1 1372 1388 1389 -1 1372 1389 1373 -1 1374 1375 1384 -1 1375 1385 1384 -1 1375 1391 1405 -1 1375 1405 1385 -1 1376 1384 1385 -1 1376 1385 1377 -1 1377 1385 1407 -1 1377 1407 1399 -1 1378 1379 1398 -1 1379 1399 1398 -1 1380 1381 1396 -1 1380 1382 1383 -1 1380 1383 1381 -1 1381 1395 1397 -1 1381 1397 1396 -1 1382 1427 1428 -1 1382 1428 1383 -1 1383 1423 1393 -1 1383 1428 1436 -1 1383 1436 1423 -1 1385 1405 1409 -1 1385 1409 1407 -1 1386 1387 1402 -1 1387 1403 1402 -1 1388 1400 1401 -1 1388 1401 1389 -1 1390 1404 1405 -1 1390 1405 1391 -1 1392 1393 1422 -1 1393 1423 1422 -1 1394 1396 1397 -1 1394 1397 1395 -1 1398 1399 1406 -1 1399 1407 1406 -1 1400 1402 1403 -1 1400 1403 1401 -1 1404 1408 1409 -1 1404 1409 1405 -1 1406 1407 1408 -1 1407 1409 1408 -1 1410 1411 1412 -1 1410 1425 1426 -1 1410 1426 1411 -1 1411 1413 1412 -1 1411 1426 1413 -1 1412 1413 1451 -1 1413 1426 1438 -1 1413 1438 1452 -1 1413 1452 1451 -1 1414 1415 1416 -1 1414 1497 1498 -1 1414 1498 1415 -1 1415 1417 1416 -1 1415 1432 1417 -1 1415 1498 1432 -1 1416 1417 1439 -1 1417 1432 1440 -1 1417 1440 1439 -1 1418 1419 1420 -1 1418 1429 1430 -1 1418 1430 1419 -1 1419 1421 1420 -1 1419 1430 1434 -1 1419 1434 1421 -1 1420 1421 1443 -1 1421 1434 1442 -1 1421 1442 1444 -1 1421 1444 1443 -1 1422 1423 1424 -1 1423 1426 1424 -1 1423 1436 1438 -1 1423 1438 1426 -1 1424 1426 1425 -1 1427 1435 1436 -1 1427 1436 1428 -1 1429 1433 1434 -1 1429 1434 1430 -1 1431 1432 1499 -1 1431 1445 1446 -1 1431 1446 1432 -1 1432 1446 1440 -1 1432 1498 1500 -1 1432 1500 1499 -1 1433 1441 1442 -1 1433 1442 1434 -1 1435 1437 1438 -1 1435 1438 1436 -1 1437 1449 1450 -1 1437 1450 1438 -1 1438 1450 1452 -1 1439 1440 1457 -1 1440 1446 1456 -1 1440 1456 1458 -1 1440 1458 1457 -1 1441 1447 1448 -1 1441 1448 1442 -1 1442 1448 1444 -1 1443 1444 1461 -1 1444 1448 1454 -1 1444 1454 1462 -1 1444 1462 1461 -1 1445 1455 1456 -1 1445 1456 1446 -1 1447 1453 1454 -1 1447 1454 1448 -1 1449 1451 1452 -1 1449 1452 1450 -1 1453 1459 1460 -1 1453 1460 1454 -1 1454 1460 1462 -1 1455 1467 1468 -1 1455 1468 1456 -1 1456 1468 1458 -1 1457 1458 1463 -1 1458 1464 1463 -1 1458 1468 1464 -1 1459 1465 1466 -1 1459 1466 1460 -1 1460 1466 1462 -1 1461 1462 1471 -1 1462 1466 1472 -1 1462 1472 1471 -1 1463 1464 1469 -1 1464 1468 1484 -1 1464 1470 1469 -1 1464 1484 1470 -1 1465 1473 1474 -1 1465 1474 1466 -1 1466 1474 1472 -1 1467 1483 1484 -1 1467 1484 1468 -1 1469 1470 1475 -1 1470 1476 1475 -1 1470 1484 1488 -1 1470 1488 1476 -1 1471 1472 1485 -1 1472 1474 1486 -1 1472 1486 1485 -1 1473 1477 1478 -1 1473 1478 1474 -1 1474 1478 1486 -1 1475 1476 1479 -1 1476 1480 1479 -1 1476 1488 1490 -1 1476 1490 1480 -1 1477 1481 1482 -1 1477 1482 1478 -1 1478 1482 1492 -1 1478 1492 1486 -1 1479 1480 1481 -1 1480 1482 1481 -1 1480 1490 1494 -1 1480 1494 1482 -1 1482 1494 1496 -1 1482 1496 1492 -1 1483 1487 1488 -1 1483 1488 1484 -1 1485 1486 1491 -1 1486 1492 1491 -1 1487 1489 1490 -1 1487 1490 1488 -1 1489 1493 1494 -1 1489 1494 1490 -1 1491 1492 1495 -1 1492 1496 1495 -1 1493 1495 1496 -1 1493 1496 1494 -1 1497 1499 1500 -1 1497 1500 1498 -1 "
						                >
							<Coordinate USE="coords_ME_OpenSCAD_Model" />
						</IndexedFaceSet>
					</Shape>
				</Group>
			</Transform>
		</Transform>
	</Scene>
</X3D>