<?xml version="1.0" encoding="UTF-8"?>
<!DOCTYPE X3D PUBLIC "ISO//Web3D//DTD X3D 3.0//EN" "http://www.web3d.org/specifications/x3d-3.0.dtd">
<X3D version="3.0" profile="Immersive" xmlns:xsd="http://www.w3.org/2001/XMLSchema-instance" xsd:noNamespaceSchemaLocation="http://www.web3d.org/specifications/x3d-3.0.xsd">
	<head>
		<meta name="filename" content="C04-00413A.x3d" />
		<meta name="created" content="2026-02-22 11:33:06" />
		<meta name="generator" content="Blender 5.0.1" />
		<meta name="translator" content="Web3D X3D/VRML2 format v2.5.1" />
	</head>
	<Scene>
		<NavigationInfo headlight="true"
		                visibilityLimit="0.0"
		                type='"EXAMINE", "ANY"'
		                avatarSize="0.25, 1.75, 0.75"
		                />
		<Transform DEF="OpenSCAD_Model_TRANSFORM"
		           translation="0.000000 0.000000 0.000000"
		           scale="0.001000 0.001000 0.001000"
		           rotation="-1.000000 0.000000 0.000000 1.570796"
		           >
			<Transform DEF="OpenSCAD_Model_ifs_TRANSFORM"
			           translation="0.000000 0.000000 0.000000"
			           scale="1.000000 1.000000 1.000000"
			           rotation="0.000000 1.000000 0.000000 0.000000"
			           >
				<Group DEF="group_ME_OpenSCAD_Model">
					<Shape>
						<Appearance>
							<Material DEF="MA_Color_1"
							          diffuseColor="0.000 0.000 0.000"
							          specularColor="0.401 0.401 0.401"
							          emissiveColor="0.000 0.000 0.000"
							          ambientIntensity="0.000"
							          shininess="0.500"
							          transparency="1.000"
							          />
						</Appearance>
						<IndexedFaceSet solid="false"
						                coordIndex="0 1 3 -1 0 2 1519 -1 0 3 2 -1 0 1517 1518 -1 0 1518 1 -1 0 1519 1517 -1 1 4 3 -1 1 6 4 -1 1 10 6 -1 1 14 10 -1 1 18 14 -1 1 24 18 -1 1 36 38 -1 1 38 24 -1 1 59 61 -1 1 61 127 -1 1 71 73 -1 1 73 59 -1 1 99 71 -1 1 127 131 -1 1 129 36 -1 1 131 141 -1 1 137 129 -1 1 141 259 -1 1 145 99 -1 1 151 137 -1 1 195 151 -1 1 213 195 -1 1 259 213 -1 1 1518 145 -1 2 3 1519 -1 3 4 8 -1 3 8 12 -1 3 12 16 -1 3 16 20 -1 3 20 1520 -1 3 1520 1519 -1 20 22 1520 -1 22 26 1520 -1 24 38 44 -1 24 40 28 -1 24 44 40 -1 26 30 107 -1 26 107 171 -1 26 171 331 -1 26 331 1520 -1 28 40 42 -1 28 42 32 -1 30 34 42 -1 30 42 52 -1 30 52 107 -1 32 42 34 -1 36 129 54 -1 40 44 46 -1 48 56 58 -1 48 58 50 -1 52 75 107 -1 54 58 56 -1 54 65 58 -1 54 129 133 -1 54 133 65 -1 59 73 63 -1 61 79 350 -1 61 135 127 -1 61 149 135 -1 61 193 149 -1 61 211 193 -1 61 257 211 -1 61 295 257 -1 61 321 295 -1 61 350 459 -1 61 459 321 -1 63 73 83 -1 65 133 143 -1 65 143 187 -1 65 187 221 -1 65 221 67 -1 67 95 97 -1 67 97 111 -1 67 221 95 -1 69 85 77 -1 73 81 83 -1 77 85 103 -1 77 91 93 -1 77 93 79 -1 77 103 91 -1 79 93 350 -1 87 101 121 -1 87 121 89 -1 89 121 105 -1 93 115 350 -1 95 221 165 -1 97 109 111 -1 99 145 147 -1 99 147 189 -1 99 189 191 -1 99 191 101 -1 101 191 121 -1 105 121 113 -1 113 117 119 -1 113 119 115 -1 113 121 117 -1 115 119 350 -1 119 183 350 -1 123 167 169 -1 123 169 125 -1 139 205 181 -1 141 185 259 -1 145 1518 235 -1 153 161 279 -1 153 279 157 -1 155 163 343 -1 155 343 159 -1 157 279 173 -1 159 343 175 -1 161 177 279 -1 163 179 343 -1 165 221 255 -1 165 255 289 -1 165 289 317 -1 165 317 393 -1 165 393 167 -1 167 329 169 -1 167 333 335 -1 167 335 329 -1 167 393 469 -1 167 469 333 -1 169 329 331 -1 169 331 171 -1 173 279 197 -1 175 343 199 -1 177 201 279 -1 179 203 285 -1 179 285 343 -1 181 205 251 -1 181 227 229 -1 181 229 183 -1 181 251 227 -1 183 229 348 -1 183 348 350 -1 185 219 325 -1 185 297 259 -1 185 325 327 -1 185 327 297 -1 197 279 223 -1 199 281 225 -1 199 343 281 -1 201 215 279 -1 203 217 285 -1 207 237 319 -1 207 319 209 -1 209 303 269 -1 209 307 303 -1 209 319 307 -1 215 239 291 -1 215 291 279 -1 217 241 285 -1 219 253 325 -1 223 279 231 -1 225 281 233 -1 229 305 348 -1 231 279 243 -1 233 281 245 -1 235 379 237 -1 235 1518 379 -1 237 379 319 -1 239 247 291 -1 241 249 285 -1 243 271 261 -1 243 279 271 -1 245 273 263 -1 245 281 273 -1 247 265 291 -1 249 267 285 -1 253 287 325 -1 265 275 291 -1 267 277 285 -1 275 283 291 -1 281 343 293 -1 283 299 311 -1 283 311 291 -1 285 301 343 -1 287 291 311 -1 287 311 313 -1 287 313 325 -1 289 293 315 -1 289 315 317 -1 293 343 315 -1 295 321 323 -1 295 323 337 -1 295 337 339 -1 295 339 299 -1 297 327 343 -1 297 343 301 -1 299 339 311 -1 303 307 309 -1 303 309 305 -1 305 309 348 -1 309 377 348 -1 313 391 325 -1 315 343 344 -1 321 459 403 -1 325 391 407 -1 327 341 343 -1 329 335 354 -1 331 481 1520 -1 333 469 517 -1 333 517 519 -1 333 519 495 -1 335 352 354 -1 346 401 375 -1 348 377 423 -1 350 373 459 -1 356 405 358 -1 358 405 397 -1 360 381 362 -1 360 385 411 -1 360 411 435 -1 360 415 381 -1 360 435 447 -1 360 443 415 -1 360 447 455 -1 360 451 443 -1 360 455 451 -1 364 409 366 -1 366 399 367 -1 366 409 697 -1 366 513 399 -1 366 697 783 -1 366 783 841 -1 366 841 879 -1 366 879 513 -1 369 383 371 -1 369 387 413 -1 369 413 437 -1 369 417 383 -1 369 437 449 -1 369 445 417 -1 369 449 457 -1 369 453 445 -1 369 457 453 -1 375 401 471 -1 375 471 377 -1 377 471 423 -1 379 1518 389 -1 389 527 461 -1 389 1518 527 -1 391 467 407 -1 395 425 501 -1 395 501 419 -1 397 405 439 -1 399 513 515 -1 399 515 441 -1 403 459 505 -1 403 505 507 -1 403 507 405 -1 405 507 439 -1 407 467 511 -1 407 511 569 -1 407 569 621 -1 407 621 409 -1 409 621 697 -1 419 501 533 -1 419 533 525 -1 421 503 477 -1 423 471 479 -1 423 479 499 -1 423 499 501 -1 423 501 425 -1 427 497 429 -1 429 497 487 -1 431 473 433 -1 431 475 521 -1 431 521 543 -1 431 523 473 -1 431 543 561 -1 431 547 523 -1 431 561 565 -1 431 563 547 -1 431 565 563 -1 439 507 463 -1 441 515 465 -1 459 493 979 -1 459 575 505 -1 459 653 575 -1 459 669 653 -1 459 787 669 -1 459 833 787 -1 459 883 833 -1 459 937 883 -1 459 979 937 -1 463 507 535 -1 463 535 483 -1 465 515 539 -1 465 539 485 -1 467 489 509 -1 467 509 511 -1 469 491 517 -1 479 531 549 -1 479 549 551 -1 479 551 499 -1 481 585 641 -1 481 641 1520 -1 483 535 489 -1 485 517 491 -1 485 539 517 -1 487 497 545 -1 489 535 537 -1 489 537 509 -1 493 567 593 -1 493 593 595 -1 493 595 979 -1 495 519 571 -1 495 571 625 -1 495 625 701 -1 495 635 637 -1 495 637 497 -1 495 701 843 -1 495 843 881 -1 495 881 929 -1 495 929 973 -1 495 973 635 -1 497 637 545 -1 499 551 605 -1 499 605 587 -1 513 879 927 -1 513 927 969 -1 513 969 579 -1 517 539 541 -1 527 1518 529 -1 529 603 591 -1 529 607 603 -1 529 617 607 -1 529 681 617 -1 529 1518 681 -1 531 573 549 -1 545 637 583 -1 553 577 555 -1 555 577 653 -1 557 581 559 -1 559 581 655 -1 567 589 615 -1 567 615 593 -1 569 619 621 -1 569 645 619 -1 571 623 625 -1 571 649 623 -1 575 653 577 -1 579 655 581 -1 579 969 655 -1 583 637 687 -1 583 687 601 -1 585 611 639 -1 585 639 641 -1 587 597 599 -1 587 599 589 -1 587 605 597 -1 589 599 615 -1 595 677 979 -1 597 605 609 -1 597 609 667 -1 597 667 661 -1 599 613 615 -1 601 687 611 -1 603 607 609 -1 603 609 605 -1 611 687 639 -1 619 645 647 -1 623 649 651 -1 627 663 629 -1 629 663 679 -1 631 657 633 -1 631 659 691 -1 631 691 657 -1 635 973 975 -1 635 975 795 -1 637 685 687 -1 641 801 1520 -1 643 689 665 -1 655 969 673 -1 659 693 713 -1 659 707 691 -1 659 713 707 -1 661 667 733 -1 661 733 663 -1 663 733 679 -1 665 689 745 -1 665 745 667 -1 667 745 733 -1 669 717 723 -1 669 723 671 -1 669 727 717 -1 669 753 727 -1 669 787 753 -1 671 723 695 -1 673 699 675 -1 673 719 725 -1 673 725 699 -1 673 729 719 -1 673 755 729 -1 673 789 755 -1 673 969 971 -1 673 971 789 -1 677 709 977 -1 677 977 979 -1 681 1518 683 -1 683 819 741 -1 683 1518 819 -1 693 705 711 -1 693 711 715 -1 693 715 713 -1 695 723 749 -1 695 749 697 -1 697 749 783 -1 699 725 751 -1 699 751 701 -1 701 751 785 -1 701 785 843 -1 703 773 721 -1 709 731 977 -1 721 773 827 -1 721 827 735 -1 731 743 817 -1 731 817 977 -1 733 745 763 -1 733 763 791 -1 735 827 747 -1 737 797 849 -1 737 799 739 -1 737 849 863 -1 737 863 799 -1 743 757 815 -1 743 815 817 -1 747 815 757 -1 747 827 815 -1 759 769 917 -1 759 917 765 -1 761 771 915 -1 761 915 767 -1 763 811 791 -1 763 823 829 -1 763 829 831 -1 763 831 811 -1 765 917 775 -1 767 915 777 -1 769 779 917 -1 771 781 915 -1 773 793 827 -1 775 917 951 -1 775 951 993 -1 775 993 803 -1 777 915 805 -1 779 807 917 -1 781 809 915 -1 789 971 835 -1 791 811 813 -1 791 813 793 -1 793 813 827 -1 795 907 797 -1 795 975 991 -1 795 991 907 -1 797 865 849 -1 797 907 865 -1 799 863 901 -1 799 901 801 -1 801 901 985 -1 801 985 1073 -1 801 1073 1520 -1 803 993 845 -1 805 915 847 -1 807 837 917 -1 809 839 915 -1 811 831 923 -1 811 923 887 -1 813 825 827 -1 817 873 977 -1 819 1518 821 -1 821 921 895 -1 821 943 945 -1 821 945 967 -1 821 947 921 -1 821 967 947 -1 821 1518 943 -1 823 867 829 -1 835 971 885 -1 837 859 917 -1 839 861 933 -1 839 933 915 -1 845 993 855 -1 847 915 857 -1 851 889 853 -1 853 889 955 -1 855 993 869 -1 857 915 871 -1 859 875 917 -1 861 877 933 -1 869 903 891 -1 869 913 903 -1 869 993 913 -1 871 905 893 -1 871 915 905 -1 873 961 1035 -1 873 1035 977 -1 875 897 917 -1 877 899 933 -1 885 971 939 -1 887 923 949 -1 887 949 955 -1 887 955 889 -1 897 909 917 -1 899 911 933 -1 911 919 933 -1 913 993 931 -1 919 953 973 -1 919 973 933 -1 921 947 949 -1 921 949 923 -1 925 941 1199 -1 925 1199 935 -1 927 931 969 -1 929 933 973 -1 931 993 969 -1 935 1199 959 -1 937 979 993 -1 937 993 951 -1 939 971 981 -1 939 981 983 -1 939 983 997 -1 939 997 999 -1 939 999 953 -1 941 963 1199 -1 943 1518 1007 -1 945 965 967 -1 949 957 955 -1 949 1001 957 -1 953 999 973 -1 957 1001 1011 -1 957 1011 1013 -1 957 1013 1043 -1 959 1199 1003 -1 963 1005 1199 -1 969 993 995 -1 971 1045 981 -1 975 1047 1247 -1 975 1069 991 -1 975 1153 1069 -1 975 1219 1153 -1 975 1247 1219 -1 977 1035 1119 -1 977 1119 1518 -1 977 1518 1053 -1 981 1045 1125 -1 981 1125 1161 -1 981 1161 1057 -1 987 1009 989 -1 989 1009 1133 -1 1001 1093 1095 -1 1001 1095 1011 -1 1001 1129 1093 -1 1003 1199 1075 -1 1005 1071 1199 -1 1007 1133 1009 -1 1007 1518 1133 -1 1011 1095 1113 -1 1013 1041 1043 -1 1015 1055 1017 -1 1017 1055 1049 -1 1019 1031 1021 -1 1019 1037 1061 -1 1019 1061 1081 -1 1019 1065 1031 -1 1019 1081 1097 -1 1019 1089 1065 -1 1019 1097 1105 -1 1019 1101 1089 -1 1019 1105 1101 -1 1023 1059 1025 -1 1025 1059 1051 -1 1027 1033 1029 -1 1027 1039 1063 -1 1027 1063 1083 -1 1027 1067 1033 -1 1027 1083 1099 -1 1027 1091 1067 -1 1027 1099 1107 -1 1027 1103 1091 -1 1027 1107 1103 -1 1047 1127 1247 -1 1049 1055 1085 -1 1051 1059 1087 -1 1053 1518 1055 -1 1055 1155 1157 -1 1055 1157 1085 -1 1055 1518 1155 -1 1057 1161 1223 -1 1057 1163 1165 -1 1057 1165 1059 -1 1057 1223 1257 -1 1057 1257 1163 -1 1059 1165 1087 -1 1071 1111 1213 -1 1071 1213 1199 -1 1073 1151 1520 -1 1075 1199 1109 -1 1077 1115 1079 -1 1079 1115 1349 -1 1079 1349 1367 -1 1079 1367 1409 -1 1079 1409 1429 -1 1079 1429 1117 -1 1085 1157 1121 -1 1087 1165 1123 -1 1093 1129 1131 -1 1095 1177 1113 -1 1109 1199 1139 -1 1111 1145 1213 -1 1113 1177 1187 -1 1113 1187 1239 -1 1113 1239 1115 -1 1115 1239 1279 -1 1115 1279 1349 -1 1117 1429 1119 -1 1119 1429 1467 -1 1119 1467 1518 -1 1121 1157 1189 -1 1121 1189 1135 -1 1123 1165 1193 -1 1123 1193 1137 -1 1125 1141 1159 -1 1125 1159 1161 -1 1127 1143 1167 -1 1127 1167 1169 -1 1127 1169 1247 -1 1133 1518 1147 -1 1135 1189 1191 -1 1135 1191 1141 -1 1137 1193 1143 -1 1139 1179 1171 -1 1139 1199 1179 -1 1141 1191 1159 -1 1143 1193 1195 -1 1143 1195 1167 -1 1145 1173 1213 -1 1147 1175 1149 -1 1147 1181 1183 -1 1147 1183 1217 -1 1147 1185 1175 -1 1147 1217 1185 -1 1147 1518 1181 -1 1151 1211 1520 -1 1155 1518 1231 -1 1163 1257 1235 -1 1169 1225 1247 -1 1173 1197 1213 -1 1175 1185 1187 -1 1175 1187 1177 -1 1181 1518 1241 -1 1183 1215 1217 -1 1197 1201 1213 -1 1201 1221 1213 -1 1203 1233 1205 -1 1205 1233 1289 -1 1207 1237 1209 -1 1209 1237 1291 -1 1211 1213 1251 -1 1211 1251 1520 -1 1213 1221 1297 -1 1213 1249 1251 -1 1213 1297 1299 -1 1213 1299 1249 -1 1219 1245 1221 -1 1219 1247 1245 -1 1221 1245 1253 -1 1221 1253 1401 -1 1221 1343 1297 -1 1221 1359 1343 -1 1221 1381 1359 -1 1221 1393 1381 -1 1221 1401 1393 -1 1223 1255 1257 -1 1223 1281 1255 -1 1225 1259 1261 -1 1225 1261 1247 -1 1225 1285 1259 -1 1227 1243 1229 -1 1229 1243 1319 -1 1231 1289 1233 -1 1231 1518 1289 -1 1235 1257 1291 -1 1235 1291 1237 -1 1239 1277 1279 -1 1239 1315 1277 -1 1241 1319 1243 -1 1241 1518 1319 -1 1247 1261 1273 -1 1249 1299 1263 -1 1251 1267 1520 -1 1253 1265 1313 -1 1253 1313 1335 -1 1253 1335 1355 -1 1253 1355 1379 -1 1253 1379 1391 -1 1253 1391 1401 -1 1255 1281 1283 -1 1257 1329 1291 -1 1259 1285 1287 -1 1261 1333 1273 -1 1263 1275 1269 -1 1263 1299 1345 -1 1263 1301 1275 -1 1263 1321 1301 -1 1263 1337 1321 -1 1263 1345 1353 -1 1263 1351 1337 -1 1263 1353 1371 -1 1263 1369 1351 -1 1263 1371 1377 -1 1263 1375 1369 -1 1263 1377 1383 -1 1263 1383 1375 -1 1265 1271 1295 -1 1265 1295 1313 -1 1267 1293 1520 -1 1273 1333 1341 -1 1277 1315 1317 -1 1289 1518 1303 -1 1291 1329 1307 -1 1293 1311 1520 -1 1303 1327 1305 -1 1303 1518 1327 -1 1307 1329 1518 -1 1307 1331 1309 -1 1307 1518 1331 -1 1311 1339 1520 -1 1319 1518 1323 -1 1323 1347 1325 -1 1323 1361 1363 -1 1323 1363 1387 -1 1323 1365 1347 -1 1323 1387 1365 -1 1323 1518 1361 -1 1327 1518 1329 -1 1331 1518 1333 -1 1333 1373 1341 -1 1333 1407 1373 -1 1333 1431 1407 -1 1333 1513 1431 -1 1333 1518 1513 -1 1339 1403 1520 -1 1347 1365 1367 -1 1347 1367 1349 -1 1357 1395 1389 -1 1361 1518 1411 -1 1363 1385 1387 -1 1389 1395 1415 -1 1389 1415 1405 -1 1397 1413 1399 -1 1399 1413 1443 -1 1403 1419 1437 -1 1403 1437 1520 -1 1405 1415 1479 -1 1405 1479 1417 -1 1407 1431 1433 -1 1407 1433 1421 -1 1409 1427 1429 -1 1409 1439 1427 -1 1411 1443 1413 -1 1411 1518 1443 -1 1415 1423 1479 -1 1417 1435 1419 -1 1417 1445 1435 -1 1417 1479 1485 -1 1417 1485 1491 -1 1417 1491 1495 -1 1417 1495 1445 -1 1419 1435 1437 -1 1421 1433 1455 -1 1421 1455 1425 -1 1423 1425 1473 -1 1423 1473 1479 -1 1425 1455 1473 -1 1427 1439 1441 -1 1437 1459 1520 -1 1443 1518 1451 -1 1445 1457 1449 -1 1445 1463 1457 -1 1445 1469 1463 -1 1445 1475 1469 -1 1445 1481 1475 -1 1445 1489 1481 -1 1445 1493 1489 -1 1445 1495 1497 -1 1445 1497 1493 -1 1447 1515 1461 -1 1451 1465 1453 -1 1451 1518 1465 -1 1459 1477 1520 -1 1461 1515 1471 -1 1465 1518 1467 -1 1471 1515 1483 -1 1477 1487 1520 -1 1483 1515 1499 -1 1487 1501 1520 -1 1499 1515 1520 -1 1499 1520 1503 -1 1501 1507 1520 -1 1503 1520 1505 -1 1505 1520 1509 -1 1507 1511 1520 -1 1509 1520 1511 -1 1513 1518 1515 -1 1515 1518 1520 -1 1517 1519 1518 -1 1518 1519 1520 -1 "
						                >
							<Coordinate DEF="coords_ME_OpenSCAD_Model"
							            point="0.000000 0.000000 0.000000 0.000000 0.000000 0.900000 0.000000 5.000000 0.000000 0.000000 5.000000 0.900000 0.535414 4.446145 0.900000 0.535414 4.446145 1.100000 0.550450 4.366360 0.900000 0.550450 4.366360 1.100000 0.550669 4.528091 0.900000 0.550669 4.528091 1.100000 0.595560 4.297903 0.900000 0.595560 4.297903 1.100000 0.596434 4.596085 0.900000 0.596434 4.596085 1.100000 0.663355 4.250826 0.900000 0.663355 4.250826 1.100000 0.664448 4.641870 0.900000 0.664448 4.641870 1.100000 0.746400 4.235134 0.900000 0.746400 4.235134 1.100000 0.746400 4.657131 0.900000 0.746400 4.657131 1.100000 0.828345 4.641870 0.900000 0.828345 4.641870 1.100000 0.829437 4.250826 0.900000 0.829437 4.250826 1.100000 0.896340 4.596085 0.900000 0.896340 4.596085 1.100000 0.897214 4.297903 0.900000 0.897214 4.297903 1.100000 0.942124 4.528091 0.900000 0.942124 4.528091 1.100000 0.942342 4.366360 0.900000 0.942342 4.366360 1.100000 0.957385 4.446145 0.900000 0.957385 4.446145 1.100000 1.376023 3.571428 0.900000 1.376023 3.571428 1.100000 1.376023 3.594533 0.900000 1.376023 3.594533 1.100000 1.376023 4.132919 0.900000 1.376023 4.132919 1.100000 1.376023 4.156023 0.900000 1.376023 4.156023 1.100000 1.451006 3.606303 0.900000 1.451006 3.606303 1.100000 1.451006 4.121579 0.900000 1.451006 4.121579 1.100000 1.496778 3.606303 0.900000 1.496778 3.606303 1.100000 1.496778 4.074065 0.900000 1.496778 4.074065 1.100000 1.553015 4.156023 0.900000 1.553015 4.156023 1.100000 1.575245 3.571428 0.900000 1.575245 3.571428 1.100000 1.575245 3.594533 0.900000 1.575245 3.594533 1.100000 1.639475 3.738974 0.900000 1.641848 1.026225 0.900000 1.641848 1.026225 1.100000 1.641848 1.039060 0.900000 1.641848 1.039060 1.100000 1.678416 1.019925 0.900000 1.678416 1.019925 1.100000 1.710823 3.571428 0.900000 1.710823 3.571428 1.100000 1.726079 3.571428 0.900000 1.726079 3.571428 1.100000 1.735573 1.019925 0.900000 1.735573 1.019925 1.100000 1.740901 0.714285 0.900000 1.740901 0.714285 1.100000 1.740901 0.727121 0.900000 1.740901 0.727121 1.100000 1.743082 3.711365 0.900000 1.743082 3.711365 1.100000 1.779166 1.026225 0.900000 1.779166 1.026225 1.100000 1.779166 1.039060 0.900000 1.779166 1.039060 1.100000 1.792487 0.733660 0.900000 1.792487 0.733660 1.100000 1.792487 0.840707 0.900000 1.792487 0.840707 1.100000 1.828816 0.870010 0.900000 1.828816 0.870010 1.100000 1.839230 0.733660 0.900000 1.839230 0.733660 1.100000 1.839230 0.842160 0.900000 1.839230 0.842160 1.100000 1.876283 1.026225 0.900000 1.876283 1.026225 1.100000 1.876283 1.039060 0.900000 1.876283 1.039060 1.100000 1.880840 3.571428 0.900000 1.880840 3.571428 1.100000 1.880840 3.594533 0.900000 1.880840 3.594533 1.100000 1.890816 0.714285 0.900000 1.890816 0.714285 1.100000 1.890816 0.727121 0.900000 1.890816 0.727121 1.100000 1.917455 1.019925 0.900000 1.917455 1.019925 1.100000 1.946276 1.019925 0.900000 1.946276 1.019925 1.100000 1.950590 4.156023 0.900000 1.950590 4.156023 1.100000 1.959307 3.606303 0.900000 1.959307 3.606303 1.100000 1.959307 4.074065 0.900000 1.959307 4.074065 1.100000 1.981876 1.026225 0.900000 1.981876 1.026225 1.100000 1.981876 1.039060 0.900000 1.981876 1.039060 1.100000 2.000066 1.026225 0.900000 2.000066 1.026225 1.100000 2.000066 1.039060 0.900000 2.000066 1.039060 1.100000 2.036634 1.019925 0.900000 2.036634 1.019925 1.100000 2.043007 3.606303 0.900000 2.043007 3.606303 1.100000 2.043007 4.121579 0.900000 2.043007 4.121579 1.100000 2.055407 2.301489 0.900000 2.055407 2.301489 1.100000 2.055407 3.015775 0.900000 2.055407 3.015775 1.100000 2.066002 2.375084 0.900000 2.066002 2.375084 1.100000 2.066002 3.089369 0.900000 2.066002 3.089369 1.100000 2.066426 2.232617 0.900000 2.066426 2.232617 1.100000 2.066426 2.946902 0.900000 2.066426 2.946902 1.100000 2.093791 1.019925 0.900000 2.093791 1.019925 1.100000 2.097789 2.428275 0.900000 2.097789 2.428275 1.100000 2.097789 3.142560 0.900000 2.097789 3.142560 1.100000 2.099119 0.714285 0.900000 2.099119 0.714285 1.100000 2.099119 0.727121 0.900000 2.099119 0.727121 1.100000 2.099485 2.181000 0.900000 2.099485 2.181000 1.100000 2.099485 2.895285 0.900000 2.099485 2.895285 1.100000 2.106025 2.301975 0.900000 2.106025 2.301975 1.100000 2.106025 3.016260 0.900000 2.106025 3.016260 1.100000 2.113169 2.368696 0.900000 2.113169 2.368696 1.100000 2.113169 3.082982 0.900000 2.113169 3.082982 1.100000 2.113502 2.239611 0.900000 2.113502 2.239611 1.100000 2.113502 2.953897 0.900000 2.113502 2.953897 1.100000 2.117990 3.571428 0.900000 2.117990 3.571428 1.100000 2.117990 3.594533 0.900000 2.117990 3.594533 1.100000 2.117990 4.132919 0.900000 2.117990 4.132919 1.100000 2.117990 4.156023 0.900000 2.117990 4.156023 1.100000 2.134603 2.415317 0.900000 2.134603 2.415317 1.100000 2.134603 3.129603 0.900000 2.134603 3.129603 1.100000 2.135935 2.193957 0.900000 2.135935 2.193957 1.100000 2.135935 2.908243 0.900000 2.135935 2.908243 1.100000 2.137384 1.026225 0.900000 2.137384 1.026225 1.100000 2.137384 1.039060 0.900000 2.137384 1.039060 1.100000 2.150406 2.460517 0.900000 2.150406 2.460517 1.100000 2.150406 3.174802 0.900000 2.150406 3.174802 1.100000 2.150705 0.733660 0.900000 2.150705 0.733660 1.100000 2.150705 0.840707 0.900000 2.150705 0.840707 1.100000 2.152283 2.148760 0.900000 2.152283 2.148760 1.100000 2.152283 2.863046 0.900000 2.152283 2.863046 1.100000 2.171598 2.442746 0.900000 2.171598 2.442746 1.100000 2.171598 3.157032 0.900000 2.171598 3.157032 1.100000 2.172658 2.165984 0.900000 2.172658 2.165984 1.100000 2.172658 2.880270 0.900000 2.172658 2.880270 1.100000 2.187034 0.870010 0.900000 2.187034 0.870010 1.100000 2.197448 0.733660 0.900000 2.197448 0.733660 1.100000 2.197448 0.842160 0.900000 2.197448 0.842160 1.100000 2.222518 2.138014 0.900000 2.222518 2.138014 1.100000 2.222518 2.852300 0.900000 2.222518 2.852300 1.100000 2.223003 2.156660 0.900000 2.223003 2.156660 1.100000 2.223003 2.870946 0.900000 2.223003 2.870946 1.100000 2.223485 2.471264 0.900000 2.223485 2.471264 1.100000 2.223485 3.185550 0.900000 2.223485 3.185550 1.100000 2.225425 2.451889 0.900000 2.225425 2.451889 1.100000 2.225425 3.166175 0.900000 2.225425 3.166175 1.100000 2.234501 1.026225 0.900000 2.234501 1.026225 1.100000 2.234501 1.039060 0.900000 2.234501 1.039060 1.100000 2.248462 2.450466 0.900000 2.248462 2.450466 1.100000 2.248462 3.164751 0.900000 2.248462 3.164751 1.100000 2.249034 0.714285 0.900000 2.249034 0.714285 1.100000 2.249034 0.727121 0.900000 2.249034 0.727121 1.100000 2.249824 2.158326 0.900000 2.249824 2.158326 1.100000 2.249824 2.872611 0.900000 2.249824 2.872611 1.100000 2.271075 2.446196 0.900000 2.271075 2.446196 1.100000 2.271075 3.160482 0.900000 2.271075 3.160482 1.100000 2.275071 2.163321 0.900000 2.275071 2.163321 1.100000 2.275071 2.877607 0.900000 2.275071 2.877607 1.100000 2.275673 1.019925 0.900000 2.275673 1.019925 1.100000 2.275980 2.468176 0.900000 2.275980 2.468176 1.100000 2.275980 3.182461 0.900000 2.275980 3.182461 1.100000 2.281792 2.141828 0.900000 2.281792 2.141828 1.100000 2.281792 2.856114 0.900000 2.281792 2.856114 1.100000 2.292116 2.439325 0.900000 2.292116 2.439325 1.100000 2.292116 3.153611 0.900000 2.292116 3.153611 1.100000 2.296989 2.171101 0.900000 2.296989 2.171101 1.100000 2.296989 2.885387 0.900000 2.296989 2.885387 1.100000 2.304494 1.019925 0.900000 2.304494 1.019925 1.100000 2.310432 2.430092 0.900000 2.310432 2.430092 1.100000 2.310432 3.144378 0.900000 2.310432 3.144378 1.100000 2.313821 2.181121 0.900000 2.313821 2.181121 1.100000 2.313821 2.895407 0.900000 2.313821 2.895407 1.100000 2.317696 2.387950 0.900000 2.317696 2.387950 1.100000 2.317696 3.102235 0.900000 2.317696 3.102235 1.100000 2.322782 2.229560 0.900000 2.322782 2.229560 1.100000 2.322782 2.943846 0.900000 2.322782 2.943846 1.100000 2.332228 2.458910 0.900000 2.332228 2.458910 1.100000 2.332228 3.173196 0.900000 2.332228 3.173196 1.100000 2.333682 2.387950 0.900000 2.333682 2.387950 1.100000 2.333682 3.102235 0.900000 2.333682 3.102235 1.100000 2.337071 2.153271 0.900000 2.337071 2.153271 1.100000 2.337071 2.867557 0.900000 2.337071 2.867557 1.100000 2.338525 2.229560 0.900000 2.338525 2.229560 1.100000 2.338525 2.943846 0.900000 2.338525 2.943846 1.100000 2.340094 1.026225 0.900000 2.340094 1.026225 1.100000 2.340094 1.039060 0.900000 2.340094 1.039060 1.100000 2.353198 1.026225 0.900000 2.353198 1.026225 1.100000 2.353198 1.039060 0.900000 2.353198 1.039060 1.100000 2.380203 2.454796 0.900000 2.380203 2.454796 1.100000 2.380203 2.467632 0.900000 2.380203 2.467632 1.100000 2.380203 3.169082 0.900000 2.380203 3.169082 1.100000 2.380203 3.181918 0.900000 2.380203 3.181918 1.100000 2.381533 1.019925 0.900000 2.381533 1.019925 1.100000 2.383353 2.142857 0.900000 2.383353 2.142857 1.100000 2.383353 2.155692 0.900000 2.383353 2.155692 1.100000 2.383353 2.857143 0.900000 2.383353 2.857143 1.100000 2.383353 2.869978 0.900000 2.383353 2.869978 1.100000 2.393133 4.132919 0.900000 2.393133 4.132919 1.100000 2.393133 4.156023 0.900000 2.393133 4.156023 1.100000 2.398803 3.571428 0.900000 2.398803 3.571428 1.100000 2.398803 3.594533 0.900000 2.398803 3.594533 1.100000 2.421860 2.162232 0.900000 2.421860 2.162232 1.100000 2.421860 2.448496 0.900000 2.421860 2.448496 1.100000 2.421860 2.876517 0.900000 2.421860 2.876517 1.100000 2.421860 2.981782 0.900000 2.421860 3.162782 0.900000 2.421860 3.162782 1.100000 2.429487 1.019925 0.900000 2.429487 1.019925 1.100000 2.439782 1.428571 0.900000 2.439782 1.428571 1.100000 2.439782 1.441407 0.900000 2.439782 1.441407 1.100000 2.468116 3.606303 0.900000 2.468116 3.606303 1.100000 2.468116 4.121579 0.900000 2.468116 4.121579 1.100000 2.468603 2.162232 0.900000 2.468603 2.162232 1.100000 2.468603 2.270246 0.900000 2.468603 2.270246 1.100000 2.468603 2.292046 0.900000 2.468603 2.292046 1.100000 2.468603 2.445832 0.900000 2.468603 2.445832 1.100000 2.468603 2.876517 0.900000 2.468603 2.876517 1.100000 2.468603 2.942830 0.900000 2.468603 2.984532 0.900000 2.468603 2.984532 1.100000 2.468603 3.006332 0.900000 2.468603 3.006332 1.100000 2.468603 3.160117 0.900000 2.468603 3.160117 1.100000 2.476596 1.447946 0.900000 2.476596 1.447946 1.100000 2.477198 1.026225 0.900000 2.477198 1.026225 1.100000 2.477198 1.039060 0.900000 2.477198 1.039060 1.100000 2.489062 0.706778 0.900000 2.489062 0.706778 1.100000 2.492335 2.445832 0.900000 2.492335 2.445832 1.100000 2.492335 3.160117 0.900000 2.492335 3.160117 1.100000 2.493789 2.292046 0.900000 2.493789 2.292046 1.100000 2.493789 3.006332 0.900000 2.493789 3.006332 1.100000 2.501901 0.706778 0.900000 2.501901 0.706778 1.100000 2.502750 2.467632 0.900000 2.502750 2.467632 1.100000 2.502750 3.181918 0.900000 2.502750 3.181918 1.100000 2.502992 1.447946 0.900000 2.502992 1.447946 1.100000 2.505171 2.270246 0.900000 2.505171 2.270246 1.100000 2.505171 2.984532 0.900000 2.505171 2.984532 1.100000 2.506744 0.791060 0.900000 2.506744 0.791060 1.100000 2.520189 2.142857 0.900000 2.520189 2.142857 1.100000 2.520189 2.155692 0.900000 2.520189 2.155692 1.100000 2.520189 2.857143 0.900000 2.520189 2.857143 1.100000 2.520189 2.869978 0.900000 2.520189 2.869978 1.100000 2.529359 2.296708 0.900000 2.529359 2.296708 1.100000 2.529359 3.010993 0.900000 2.529359 3.010993 1.100000 2.530056 2.441533 0.900000 2.530056 2.441533 1.100000 2.530056 3.155818 0.900000 2.530056 3.155818 1.100000 2.535689 1.541671 0.900000 2.535689 1.541671 1.100000 2.542953 1.563471 0.900000 2.542953 1.563471 1.100000 2.546589 1.428571 0.900000 2.546589 1.428571 1.100000 2.546589 1.441407 0.900000 2.546589 1.441407 1.100000 2.552253 3.606303 0.900000 2.552253 3.606303 1.100000 2.552253 3.800729 0.900000 2.552253 3.800729 1.100000 2.552253 3.839969 0.900000 2.552253 3.839969 1.100000 2.552253 4.116783 0.900000 2.552253 4.116783 1.100000 2.554214 2.310692 0.900000 2.554214 2.310692 1.100000 2.554214 3.024978 0.900000 2.554214 3.024978 1.100000 2.555033 2.276725 0.900000 2.555033 2.276725 1.100000 2.555033 2.991010 0.900000 2.555033 2.991010 1.100000 2.555060 2.428635 0.900000 2.555060 2.428635 1.100000 2.555060 3.142921 0.900000 2.555060 3.142921 1.100000 2.568836 2.335215 0.900000 2.568836 2.335215 1.100000 2.568836 3.049501 0.900000 2.568836 3.049501 1.100000 2.569048 2.405751 0.900000 2.569048 2.405751 1.100000 2.569048 3.120036 0.900000 2.569048 3.120036 1.100000 2.573710 2.371482 0.900000 2.573710 2.371482 1.100000 2.573710 3.085767 0.900000 2.573710 3.085767 1.100000 2.587275 1.756010 0.900000 2.587275 1.756010 1.100000 2.588362 0.930560 0.900000 2.588362 0.930560 1.100000 2.591753 2.296160 0.900000 2.591753 2.296160 1.100000 2.591753 3.010446 0.900000 2.591753 3.010446 1.100000 2.592117 2.443716 0.900000 2.592117 2.443716 1.100000 2.592117 3.158002 0.900000 2.592117 3.158002 1.100000 2.594173 1.016292 0.900000 2.594173 1.016292 1.100000 2.594971 4.116783 0.900000 2.594971 4.116783 1.100000 2.597587 3.839969 0.900000 2.597587 3.839969 1.100000 2.598657 1.721135 0.900000 2.598657 1.721135 1.100000 2.605073 1.016292 0.900000 2.605073 1.016292 1.100000 2.613716 4.156023 0.900000 2.613716 4.156023 1.100000 2.614368 2.328069 0.900000 2.614368 2.328069 1.100000 2.614368 3.042355 0.900000 2.614368 3.042355 1.100000 2.618075 3.800729 0.900000 2.618075 3.800729 1.100000 2.621907 2.371967 0.900000 2.621907 2.371967 1.100000 2.621907 3.086253 0.900000 2.621907 3.086253 1.100000 2.633289 1.756010 0.900000 2.633289 1.756010 1.100000 2.645107 3.571428 0.900000 2.645107 3.571428 1.100000 2.645107 3.594533 0.900000 2.645107 3.594533 1.100000 2.652182 1.428571 0.900000 2.652182 1.428571 1.100000 2.652182 1.441407 0.900000 2.652182 1.441407 1.100000 2.656057 1.563471 0.900000 2.656057 1.563471 1.100000 2.656071 2.142857 0.900000 2.656071 2.142857 1.100000 2.656071 2.155692 0.900000 2.656071 2.155692 1.100000 2.656071 2.454796 0.900000 2.656071 2.454796 1.100000 2.656071 2.467632 0.900000 2.656071 2.467632 1.100000 2.656071 2.857143 0.900000 2.656071 2.857143 1.100000 2.656071 2.869978 0.900000 2.656071 2.869978 1.100000 2.656071 3.169082 0.900000 2.656071 3.169082 1.100000 2.656071 3.181918 0.900000 2.656071 3.181918 1.100000 2.661614 3.848360 0.900000 2.661614 3.848360 1.100000 2.662868 4.109045 0.900000 2.662868 4.109045 1.100000 2.663564 1.541671 0.900000 2.663564 1.541671 1.100000 2.672641 0.706778 0.900000 2.672641 0.706778 1.100000 2.685476 0.706778 0.900000 2.685476 0.706778 1.100000 2.689351 0.791060 0.900000 2.689351 0.791060 1.100000 2.695775 1.447946 0.900000 2.695775 1.447946 1.100000 2.697728 2.162232 0.900000 2.697728 2.162232 1.100000 2.697728 2.448496 0.900000 2.697728 2.448496 1.100000 2.697728 2.876517 0.900000 2.697728 2.876517 1.100000 2.697728 3.162782 0.900000 2.697728 3.162782 1.100000 2.706352 3.873532 0.900000 2.706352 3.873532 1.100000 2.707826 3.812390 0.900000 2.707826 3.812390 1.100000 2.707876 4.085830 0.900000 2.707876 4.085830 1.100000 2.712362 1.026225 0.900000 2.712362 1.026225 1.100000 2.712362 1.039060 0.900000 2.712362 1.039060 1.100000 2.723157 2.162232 0.900000 2.723157 2.162232 1.100000 2.723157 2.434935 0.900000 2.723157 2.434935 1.100000 2.723157 2.876517 0.900000 2.723157 2.876517 1.100000 2.723157 3.149221 0.900000 2.723157 3.149221 1.100000 2.732672 3.917673 0.900000 2.732672 3.917673 1.100000 2.733053 4.044637 0.900000 2.733053 4.044637 1.100000 2.741446 3.982953 0.900000 2.741446 3.982953 1.100000 2.748328 1.447946 0.900000 2.748328 1.447946 1.100000 2.754400 2.467632 0.900000 2.754400 2.467632 1.100000 2.754400 3.181918 0.900000 2.754400 3.181918 1.100000 2.762977 1.019925 0.900000 2.762977 1.019925 1.100000 2.766750 2.142857 0.900000 2.766750 2.142857 1.100000 2.766750 2.155692 0.900000 2.766750 2.155692 1.100000 2.766750 2.857143 0.900000 2.766750 2.857143 1.100000 2.766750 2.869978 0.900000 2.766750 2.869978 1.100000 2.773923 3.847375 0.900000 2.773923 3.847375 1.100000 2.774579 4.112974 0.900000 2.774579 4.112974 1.100000 2.789503 1.428571 0.900000 2.789503 1.428571 1.100000 2.789503 1.441407 0.900000 2.789503 1.441407 1.100000 2.791555 1.019925 0.900000 2.791555 1.019925 1.100000 2.807446 1.740510 0.900000 2.807446 1.740510 1.100000 2.807446 1.753346 0.900000 2.807446 1.753346 1.100000 2.810596 1.428571 0.900000 2.810596 1.428571 1.100000 2.810596 1.441407 0.900000 2.810596 1.441407 1.100000 2.814630 3.904811 0.900000 2.814630 3.904811 1.100000 2.819891 1.026225 0.900000 2.819891 1.026225 1.100000 2.819891 1.039060 0.900000 2.819891 1.039060 1.100000 2.821376 1.026225 0.900000 2.821376 1.026225 1.100000 2.821376 1.039060 0.900000 2.821376 1.039060 1.100000 2.828199 3.983827 0.900000 2.828199 3.983827 1.100000 2.849103 1.447946 0.900000 2.849103 1.447946 1.100000 2.849103 1.734210 0.900000 2.849103 1.734210 1.100000 2.849712 1.019925 0.900000 2.849712 1.019925 1.100000 2.877914 2.454796 0.900000 2.877914 2.454796 1.100000 2.877914 2.467632 0.900000 2.877914 2.467632 1.100000 2.877914 3.169082 0.900000 2.877914 3.169082 1.100000 2.877914 3.181918 0.900000 2.877914 3.181918 1.100000 2.895846 1.447946 0.900000 2.895846 1.447946 1.100000 2.895846 1.570978 0.900000 2.895846 1.570978 1.100000 2.895846 1.592775 0.900000 2.895846 1.592775 1.100000 2.895846 1.731546 0.900000 2.895846 1.731546 1.100000 2.896233 3.571428 0.900000 2.896233 3.571428 1.100000 2.896233 3.594533 0.900000 2.896233 3.594533 1.100000 2.896233 4.132919 0.900000 2.896233 4.132919 1.100000 2.896233 4.156023 0.900000 2.896233 4.156023 1.100000 2.897666 1.019925 0.900000 2.897666 1.019925 1.100000 2.921507 2.227139 0.900000 2.921507 2.227139 1.100000 2.921507 2.448496 0.900000 2.921507 2.448496 1.100000 2.921507 2.941425 0.900000 2.921507 2.941425 1.100000 2.921507 3.162782 0.900000 2.921507 3.162782 1.100000 2.923446 2.142857 0.900000 2.923446 2.142857 1.100000 2.923446 2.857143 0.900000 2.923446 2.857143 1.100000 2.937257 1.731546 0.900000 2.937257 1.731546 1.100000 2.938710 1.592775 0.900000 2.938710 1.592775 1.100000 2.945007 1.428571 0.900000 2.945007 1.428571 1.100000 2.945007 1.441407 0.900000 2.945007 1.441407 1.100000 2.945376 1.026225 0.900000 2.945376 1.026225 1.100000 2.945376 1.039060 0.900000 2.945376 1.039060 1.100000 2.946939 2.142857 0.900000 2.946939 2.142857 1.100000 2.946939 2.448496 0.900000 2.946939 2.448496 1.100000 2.946939 2.857143 0.900000 2.946939 2.857143 1.100000 2.946939 3.162782 0.900000 2.946939 3.162782 1.100000 2.947671 1.753346 0.900000 2.947671 1.753346 1.100000 2.954210 1.570978 0.900000 2.954210 1.570978 1.100000 2.957241 0.706778 0.900000 2.957241 0.706778 1.100000 2.970080 0.706778 0.900000 2.970080 0.706778 1.100000 2.971216 3.606303 0.900000 2.971216 3.606303 1.100000 2.971216 4.121579 0.900000 2.971216 4.121579 1.100000 2.974923 0.791060 0.900000 2.974923 0.791060 1.100000 2.975734 1.727641 0.900000 2.975734 1.727641 1.100000 2.975796 1.596800 0.900000 2.975796 1.596800 1.100000 2.988596 2.454796 0.900000 2.988596 2.454796 1.100000 2.988596 2.467632 0.900000 2.988596 2.467632 1.100000 2.988596 3.169082 0.900000 2.988596 3.169082 1.100000 2.988596 3.181918 0.900000 2.988596 3.181918 1.100000 3.000228 1.577760 0.900000 3.000228 1.577760 1.100000 3.000346 1.608878 0.900000 3.000346 1.608878 1.100000 3.000589 1.715925 0.900000 3.000589 1.715925 1.100000 3.000710 1.748199 0.900000 3.000710 1.748199 1.100000 3.014060 1.630525 0.900000 3.014060 1.630525 1.100000 3.014121 1.694947 0.900000 3.014121 1.694947 1.100000 3.018632 1.663250 0.900000 3.018632 1.663250 1.100000 3.020342 2.301489 0.900000 3.020342 2.301489 1.100000 3.020342 3.015775 0.900000 3.020342 3.015775 1.100000 3.028080 1.590564 0.900000 3.028080 1.590564 1.100000 3.030938 2.375084 0.900000 3.030938 2.375084 1.100000 3.030938 3.089369 0.900000 3.030938 3.089369 1.100000 3.031362 2.232617 0.900000 3.031362 2.232617 1.100000 3.031362 2.946902 0.900000 3.031362 2.946902 1.100000 3.037764 1.732757 0.900000 3.037764 1.732757 1.100000 3.045518 1.428571 0.900000 3.045518 1.428571 1.100000 3.049150 1.610575 0.900000 3.049150 1.610575 1.100000 3.054916 3.606303 0.900000 3.054916 3.606303 1.100000 3.054916 4.121579 0.900000 3.054916 4.121579 1.100000 3.056541 0.930560 0.900000 3.056541 0.930560 1.100000 3.059562 1.705935 0.900000 3.059562 1.705935 1.100000 3.062351 1.016292 0.900000 3.062351 1.016292 1.100000 3.062409 1.636399 0.900000 3.062409 1.636399 1.100000 3.062725 2.428275 0.900000 3.062725 2.428275 1.100000 3.062725 3.142560 0.900000 3.062725 3.142560 1.100000 3.064421 2.181000 0.900000 3.064421 2.181000 1.100000 3.064421 2.895285 0.900000 3.064421 2.895285 1.100000 3.066828 1.666642 0.900000 3.066828 1.666642 1.100000 3.070960 2.301975 0.900000 3.070960 2.301975 1.100000 3.070960 3.016260 0.900000 3.070960 3.016260 1.100000 3.073251 1.016292 0.900000 3.073251 1.016292 1.100000 3.078105 2.368696 0.900000 3.078105 2.368696 1.100000 3.078105 3.082982 0.900000 3.078105 3.082982 1.100000 3.078438 2.239611 0.900000 3.078438 2.239611 1.100000 3.078438 2.953897 0.900000 3.078438 2.953897 1.100000 3.088142 1.447946 0.900000 3.088142 1.447946 1.100000 3.099539 2.415317 0.900000 3.099539 2.415317 1.100000 3.099539 3.129603 0.900000 3.099539 3.129603 1.100000 3.100871 2.193957 0.900000 3.100871 2.193957 1.100000 3.100871 2.908243 0.900000 3.100871 2.908243 1.100000 3.115342 2.460517 0.900000 3.115342 2.460517 1.100000 3.115342 3.174802 0.900000 3.115342 3.174802 1.100000 3.117218 2.148760 0.900000 3.117218 2.148760 1.100000 3.117218 2.863046 0.900000 3.117218 2.863046 1.100000 3.123257 1.428571 0.900000 3.123257 1.428571 1.100000 3.123257 1.441407 0.900000 3.123257 1.441407 1.100000 3.129899 3.571428 0.900000 3.129899 3.571428 1.100000 3.129899 3.594533 0.900000 3.129899 3.594533 1.100000 3.129899 4.132919 0.900000 3.129899 4.132919 1.100000 3.129899 4.156023 0.900000 3.129899 4.156023 1.100000 3.136534 2.442746 0.900000 3.136534 2.442746 1.100000 3.136534 3.157032 0.900000 3.136534 3.157032 1.100000 3.137593 2.165984 0.900000 3.137593 2.165984 1.100000 3.137593 2.880270 0.900000 3.137593 2.880270 1.100000 3.138296 1.428571 0.900000 3.138296 1.428571 1.100000 3.138296 1.441407 0.900000 3.138296 1.441407 1.100000 3.138296 1.740510 0.900000 3.138296 1.740510 1.100000 3.138296 1.753346 0.900000 3.138296 1.753346 1.100000 3.140819 0.706778 0.900000 3.140819 0.706778 1.100000 3.153655 0.706778 0.900000 3.153655 0.706778 1.100000 3.157530 0.791060 0.900000 3.157530 0.791060 1.100000 3.179953 1.447946 0.900000 3.179953 1.447946 1.100000 3.179953 1.734210 0.900000 3.179953 1.734210 1.100000 3.180541 1.026225 0.900000 3.180541 1.026225 1.100000 3.180541 1.039060 0.900000 3.180541 1.039060 1.100000 3.187453 2.138014 0.900000 3.187453 2.138014 1.100000 3.187453 2.852300 0.900000 3.187453 2.852300 1.100000 3.187939 2.156660 0.900000 3.187939 2.156660 1.100000 3.187939 2.870946 0.900000 3.187939 2.870946 1.100000 3.188421 2.471264 0.900000 3.188421 2.471264 1.100000 3.188421 3.185550 0.900000 3.188421 3.185550 1.100000 3.190360 2.451889 0.900000 3.190360 2.451889 1.100000 3.190360 3.166175 0.900000 3.190360 3.166175 1.100000 3.197919 3.856966 0.900000 3.197919 3.856966 1.100000 3.205382 1.447946 0.900000 3.205382 1.447946 1.100000 3.205382 1.707814 0.900000 3.205382 1.707814 1.100000 3.213398 2.450466 0.900000 3.213398 2.450466 1.100000 3.213398 3.164751 0.900000 3.213398 3.164751 1.100000 3.214759 2.158326 0.900000 3.214759 2.158326 1.100000 3.214759 2.872611 0.900000 3.214759 2.872611 1.100000 3.216991 3.989436 0.900000 3.216991 3.989436 1.100000 3.217755 3.732996 0.900000 3.217755 3.732996 1.100000 3.231155 1.019925 0.900000 3.231155 1.019925 1.100000 3.236010 2.446196 0.900000 3.236010 2.446196 1.100000 3.236010 3.160482 0.900000 3.236010 3.160482 1.100000 3.236625 1.753346 0.900000 3.236625 1.753346 1.100000 3.240007 2.163321 0.900000 3.240007 2.163321 1.100000 3.240007 2.877607 0.900000 3.240007 2.877607 1.100000 3.240916 2.468176 0.900000 3.240916 2.468176 1.100000 3.240916 3.182461 0.900000 3.240916 3.182461 1.100000 3.246727 2.141828 0.900000 3.246727 2.141828 1.100000 3.246727 2.856114 0.900000 3.246727 2.856114 1.100000 3.248975 1.428571 0.900000 3.248975 1.428571 1.100000 3.248975 1.441407 0.900000 3.248975 1.441407 1.100000 3.257051 2.439325 0.900000 3.257051 2.439325 1.100000 3.257051 3.153611 0.900000 3.257051 3.153611 1.100000 3.259734 1.019925 0.900000 3.259734 1.019925 1.100000 3.261925 2.171101 0.900000 3.261925 2.171101 1.100000 3.261925 2.885387 0.900000 3.261925 2.885387 1.100000 3.274207 4.085180 0.900000 3.274207 4.085180 1.100000 3.275367 2.430092 0.900000 3.275367 2.430092 1.100000 3.275367 3.144378 0.900000 3.275367 3.144378 1.100000 3.277261 3.640085 0.900000 3.277261 3.640085 1.100000 3.278757 2.181121 0.900000 3.278757 2.181121 1.100000 3.278757 2.895407 0.900000 3.278757 2.895407 1.100000 3.282632 2.387950 0.900000 3.282632 2.387950 1.100000 3.282632 3.102235 0.900000 3.282632 3.102235 1.100000 3.287717 2.229560 0.900000 3.287717 2.229560 1.100000 3.287717 2.943846 0.900000 3.287717 2.943846 1.100000 3.288069 1.026225 0.900000 3.288069 1.026225 1.100000 3.288069 1.039060 0.900000 3.288069 1.039060 1.100000 3.289031 3.857840 0.900000 3.289031 3.857840 1.100000 3.297164 2.458910 0.900000 3.297164 2.458910 1.100000 3.297164 3.173196 0.900000 3.297164 3.173196 1.100000 3.298617 2.387950 0.900000 3.298617 2.387950 1.100000 3.298617 3.102235 0.900000 3.298617 3.102235 1.100000 3.301892 3.977939 0.900000 3.301892 3.977939 1.100000 3.302007 2.153271 0.900000 3.302007 2.153271 1.100000 3.302007 2.867557 0.900000 3.302007 2.867557 1.100000 3.302491 3.745586 0.900000 3.302491 3.745586 1.100000 3.303359 0.714285 0.900000 3.303359 0.714285 1.100000 3.303359 0.727121 0.900000 3.303359 0.727121 1.100000 3.303359 1.026225 0.900000 3.303359 1.026225 1.100000 3.303359 1.039060 0.900000 3.303359 1.039060 1.100000 3.303460 2.229560 0.900000 3.303460 2.229560 1.100000 3.303460 2.943846 0.900000 3.303460 2.943846 1.100000 3.324296 1.428571 0.900000 3.324296 1.428571 1.100000 3.332771 1.428571 0.900000 3.332771 1.428571 1.100000 3.340473 4.061857 0.900000 3.340473 4.061857 1.100000 3.342218 1.506314 0.900000 3.342218 1.506314 1.100000 3.342871 3.663408 0.900000 3.342871 3.663408 1.100000 3.345016 0.733660 0.900000 3.345016 0.733660 1.100000 3.345016 1.019925 0.900000 3.345016 1.019925 1.100000 3.345139 2.454796 0.900000 3.345139 2.454796 1.100000 3.345139 2.467632 0.900000 3.345139 2.467632 1.100000 3.345139 3.169082 0.900000 3.345139 3.169082 1.100000 3.345139 3.181918 0.900000 3.345139 3.181918 1.100000 3.348289 2.142857 0.900000 3.348289 2.142857 1.100000 3.348289 2.155692 0.900000 3.348289 2.155692 1.100000 3.348289 2.857143 0.900000 3.348289 2.857143 1.100000 3.348289 2.869978 0.900000 3.348289 2.869978 1.100000 3.368918 4.143216 0.900000 3.368918 4.143216 1.100000 3.370444 0.733660 0.900000 3.370444 0.733660 1.100000 3.370444 1.006364 0.900000 3.370444 1.006364 1.100000 3.372296 3.582055 0.900000 3.372296 3.582055 1.100000 3.386796 2.162232 0.900000 3.386796 2.162232 1.100000 3.386796 2.448496 0.900000 3.386796 2.448496 1.100000 3.386796 2.876517 0.900000 3.386796 2.876517 1.100000 3.386796 3.162782 0.900000 3.386796 3.162782 1.100000 3.401687 1.039060 0.900000 3.401687 1.039060 1.100000 3.407063 4.111229 0.900000 3.407063 4.111229 1.100000 3.408971 3.613058 0.900000 3.408971 3.613058 1.100000 3.414037 0.714285 0.900000 3.414037 0.714285 1.100000 3.414037 0.727121 0.900000 3.414037 0.727121 1.100000 3.418750 1.428571 0.900000 3.418750 1.428571 1.100000 3.418750 1.441407 0.900000 3.418750 1.441407 1.100000 3.433539 2.162232 0.900000 3.433539 2.162232 1.100000 3.433539 2.270246 0.900000 3.433539 2.270246 1.100000 3.433539 2.292046 0.900000 3.433539 2.292046 1.100000 3.433539 2.445832 0.900000 3.433539 2.445832 1.100000 3.433539 2.876517 0.900000 3.433539 2.876517 1.100000 3.433539 2.984532 0.900000 3.433539 2.984532 1.100000 3.433539 3.006332 0.900000 3.433539 3.006332 1.100000 3.433539 3.160117 0.900000 3.433539 3.160117 1.100000 3.457271 2.445832 0.900000 3.457271 2.445832 1.100000 3.457271 3.160117 0.900000 3.457271 3.160117 1.100000 3.457500 1.753346 0.900000 3.457500 1.753346 1.100000 3.458725 2.292046 0.900000 3.458725 2.292046 1.100000 3.458725 3.006332 0.900000 3.458725 3.006332 1.100000 3.462342 1.447946 0.900000 3.462342 1.447946 1.100000 3.462342 1.707814 0.900000 3.462342 1.707814 1.100000 3.467685 2.467632 0.900000 3.467685 2.467632 1.100000 3.467685 3.181918 0.900000 3.467685 3.181918 1.100000 3.470107 2.270246 0.900000 3.470107 2.270246 1.100000 3.470107 2.984532 0.900000 3.470107 2.984532 1.100000 3.485125 2.142857 0.900000 3.485125 2.142857 1.100000 3.485125 2.155692 0.900000 3.485125 2.155692 1.100000 3.485125 2.857143 0.900000 3.485125 2.857143 1.100000 3.485125 2.869978 0.900000 3.485125 2.869978 1.100000 3.494295 2.296708 0.900000 3.494295 2.296708 1.100000 3.494295 3.010993 0.900000 3.494295 3.010993 1.100000 3.494992 2.441533 0.900000 3.494992 2.441533 1.100000 3.494992 3.155818 0.900000 3.494992 3.155818 1.100000 3.498719 3.562711 0.900000 3.498719 3.562711 1.100000 3.499593 3.596275 0.900000 3.499593 3.596275 1.100000 3.500461 4.162561 0.900000 3.500461 4.162561 1.100000 3.503951 4.127686 0.900000 3.503951 4.127686 1.100000 3.508843 1.447946 0.900000 3.508843 1.447946 1.100000 3.508843 1.734210 0.900000 3.508843 1.734210 1.100000 3.519150 2.310692 0.900000 3.519150 2.310692 1.100000 3.519150 3.024978 0.900000 3.519150 3.024978 1.100000 3.519968 2.276725 0.900000 3.519968 2.276725 1.100000 3.519968 2.991010 0.900000 3.519968 2.991010 1.100000 3.519996 2.428635 0.900000 3.519996 2.428635 1.100000 3.519996 3.142921 0.900000 3.519996 3.142921 1.100000 3.525201 1.026225 0.900000 3.525201 1.026225 1.100000 3.525201 1.039060 0.900000 3.525201 1.039060 1.100000 3.533772 2.335215 0.900000 3.533772 2.335215 1.100000 3.533772 3.049501 0.900000 3.533772 3.049501 1.100000 3.533984 2.405751 0.900000 3.533984 2.405751 1.100000 3.533984 3.120036 0.900000 3.533984 3.120036 1.100000 3.538646 2.371482 0.900000 3.538646 2.371482 1.100000 3.538646 3.085767 0.900000 3.538646 3.085767 1.100000 3.545419 4.125124 0.900000 3.545419 4.125124 1.100000 3.547870 3.599272 0.900000 3.547870 3.599272 1.100000 3.550500 1.428571 0.900000 3.550500 1.428571 1.100000 3.550500 1.441407 0.900000 3.550500 1.441407 1.100000 3.550500 1.740510 0.900000 3.550500 1.740510 1.100000 3.550500 1.753346 0.900000 3.550500 1.753346 1.100000 3.556689 2.296160 0.900000 3.556689 2.296160 1.100000 3.556689 3.010446 0.900000 3.556689 3.010446 1.100000 3.557053 2.443716 0.900000 3.557053 2.443716 1.100000 3.557053 3.158002 0.900000 3.557053 3.158002 1.100000 3.568794 0.798567 0.900000 3.568794 0.798567 1.100000 3.568794 1.019925 0.900000 3.568794 1.019925 1.100000 3.570734 0.714285 0.900000 3.570734 0.714285 1.100000 3.579304 2.328069 0.900000 3.579304 2.328069 1.100000 3.579304 3.042355 0.900000 3.579304 3.042355 1.100000 3.586121 4.117439 0.900000 3.586121 4.117439 1.100000 3.586842 2.371967 0.900000 3.586842 2.371967 1.100000 3.586842 3.086253 0.900000 3.586842 3.086253 1.100000 3.593315 3.608264 0.900000 3.593315 3.608264 1.100000 3.594226 0.714285 0.900000 3.594226 0.714285 1.100000 3.594226 1.019925 0.900000 3.594226 1.019925 1.100000 3.594951 4.157002 0.900000 3.594951 4.157002 1.100000 3.605412 3.569577 0.900000 3.605412 3.569577 1.100000 3.621007 2.142857 0.900000 3.621007 2.142857 1.100000 3.621007 2.155692 0.900000 3.621007 2.155692 1.100000 3.621007 2.454796 0.900000 3.621007 2.454796 1.100000 3.621007 2.467632 0.900000 3.621007 2.467632 1.100000 3.621007 2.857143 0.900000 3.621007 2.857143 1.100000 3.621007 2.869978 0.900000 3.621007 2.869978 1.100000 3.621007 3.169082 0.900000 3.621007 3.169082 1.100000 3.621007 3.181918 0.900000 3.621007 3.181918 1.100000 3.623995 4.105072 0.900000 3.623995 4.105072 1.100000 3.632767 3.622269 0.900000 3.632767 3.622269 1.100000 3.635883 1.026225 0.900000 3.635883 1.026225 1.100000 3.635883 1.039060 0.900000 3.635883 1.039060 1.100000 3.656964 4.088452 0.900000 3.656964 4.088452 1.100000 3.661576 0.714285 0.900000 3.661576 0.714285 1.100000 3.661576 0.727121 0.900000 3.661576 0.727121 1.100000 3.661576 1.026225 0.900000 3.661576 1.026225 1.100000 3.661576 1.039060 0.900000 3.661576 1.039060 1.100000 3.662664 2.162232 0.900000 3.662664 2.162232 1.100000 3.662664 2.448496 0.900000 3.662664 2.448496 1.100000 3.662664 2.876517 0.900000 3.662664 2.876517 1.100000 3.662664 3.162782 0.900000 3.662664 3.162782 1.100000 3.663065 3.640304 0.900000 3.663065 3.640304 1.100000 3.670040 4.012595 0.900000 3.670040 4.012595 1.100000 3.679194 3.727495 0.900000 3.679194 3.727495 1.100000 3.688093 2.162232 0.900000 3.688093 2.162232 1.100000 3.688093 2.434935 0.900000 3.688093 2.434935 1.100000 3.688093 2.876517 0.900000 3.688093 2.876517 1.100000 3.688093 3.149221 0.900000 3.688093 3.149221 1.100000 3.696198 4.140325 0.900000 3.696198 4.140325 1.100000 3.698814 4.012595 0.900000 3.698814 4.012595 1.100000 3.703234 0.733660 0.900000 3.703234 0.733660 1.100000 3.703234 1.019925 0.900000 3.703234 1.019925 1.100000 3.704915 3.590174 0.900000 3.704915 3.590174 1.100000 3.707531 3.727495 0.900000 3.707531 3.727495 1.100000 3.719335 2.467632 0.900000 3.719335 2.467632 1.100000 3.719335 3.181918 0.900000 3.719335 3.181918 1.100000 3.728662 0.733660 0.900000 3.728662 0.733660 1.100000 3.728662 1.006364 0.900000 3.728662 1.006364 1.100000 3.731685 2.142857 0.900000 3.731685 2.142857 1.100000 3.731685 2.155692 0.900000 3.731685 2.155692 1.100000 3.731685 2.857143 0.900000 3.731685 2.857143 1.100000 3.731685 2.869978 0.900000 3.731685 2.869978 1.100000 3.759905 1.039060 0.900000 3.759905 1.039060 1.100000 3.772255 0.714285 0.900000 3.772255 0.714285 1.100000 3.772255 0.727121 0.900000 3.772255 0.727121 1.100000 3.799556 3.704390 0.900000 3.799556 3.704390 1.100000 3.804352 3.581457 0.900000 3.804352 3.581457 1.100000 3.817428 4.031341 0.900000 3.817428 4.031341 1.100000 3.817428 4.143815 0.900000 3.817428 4.143815 1.100000 3.828324 3.704390 0.900000 3.828324 3.704390 1.100000 3.842850 2.454796 0.900000 3.842850 2.454796 1.100000 3.842850 2.467632 0.900000 3.842850 2.467632 1.100000 3.842850 3.169082 0.900000 3.842850 3.169082 1.100000 3.842850 3.181918 0.900000 3.842850 3.181918 1.100000 3.846202 4.031341 0.900000 3.846202 4.031341 1.100000 3.847944 3.622433 0.900000 3.847944 3.622433 1.100000 3.857640 4.153241 0.900000 3.857640 4.153241 1.100000 3.861457 4.102833 0.900000 3.861457 4.102833 1.100000 3.868488 3.613495 0.900000 3.868488 3.613495 1.100000 3.880640 3.567397 0.900000 3.880640 3.567397 1.100000 3.882165 4.112262 0.900000 3.882165 4.112262 1.100000 3.883419 1.026225 0.900000 3.883419 1.026225 1.100000 3.883419 1.039060 0.900000 3.883419 1.039060 1.100000 3.886443 2.227139 0.900000 3.886443 2.227139 1.100000 3.886443 2.448496 0.900000 3.886443 2.448496 1.100000 3.886443 2.941425 0.900000 3.886443 2.941425 1.100000 3.886443 3.162782 0.900000 3.886443 3.162782 1.100000 3.888382 2.142857 0.900000 3.888382 2.142857 1.100000 3.888382 2.857143 0.900000 3.888382 2.857143 1.100000 3.891967 4.158852 0.900000 3.891967 4.158852 1.100000 3.896113 3.605866 0.900000 3.896113 3.605866 1.100000 3.902433 3.858708 0.900000 3.902433 3.858708 1.100000 3.902433 3.894457 0.900000 3.902433 3.894457 1.100000 3.905923 4.119618 0.900000 3.905923 4.119618 1.100000 3.911875 2.142857 0.900000 3.911875 2.142857 1.100000 3.911875 2.448496 0.900000 3.911875 2.448496 1.100000 3.911875 2.857143 0.900000 3.911875 2.857143 1.100000 3.911875 3.162782 0.900000 3.911875 3.162782 1.100000 3.923249 4.161634 0.900000 3.923249 4.161634 1.100000 3.926249 3.600635 0.900000 3.926249 3.600635 1.100000 3.927012 0.798567 0.900000 3.927012 0.798567 1.100000 3.927012 1.019925 0.900000 3.927012 1.019925 1.100000 3.928951 0.714285 0.900000 3.928951 0.714285 1.100000 3.930662 4.124363 0.900000 3.930662 4.124363 1.100000 3.952444 0.714285 0.900000 3.952444 0.714285 1.100000 3.952444 1.019925 0.900000 3.952444 1.019925 1.100000 3.953532 2.454796 0.900000 3.953532 2.454796 1.100000 3.953532 2.467632 0.900000 3.953532 2.467632 1.100000 3.953532 3.169082 0.900000 3.953532 3.169082 1.100000 3.953532 3.181918 0.900000 3.953532 3.181918 1.100000 3.954311 3.598891 0.900000 3.954311 3.598891 1.100000 3.954311 4.125944 0.900000 3.954311 4.125944 1.100000 3.954311 4.162561 0.900000 3.954311 4.162561 1.100000 3.961286 3.562711 0.900000 3.961286 3.562711 1.100000 3.964777 3.855224 0.900000 3.964777 3.855224 1.100000 3.964777 3.898379 0.900000 3.964777 3.898379 1.100000 3.994101 1.026225 0.900000 3.994101 1.026225 1.100000 3.994101 1.039060 0.900000 3.994101 1.039060 1.100000 4.002537 4.119240 0.900000 4.002537 4.119240 1.100000 4.007604 3.907316 0.900000 4.007604 3.907316 1.100000 4.013819 3.606737 0.900000 4.013819 3.606737 1.100000 4.014033 3.877454 0.900000 4.014033 3.877454 1.100000 4.019701 3.845469 0.900000 4.019701 3.845469 1.100000 4.019794 0.714285 0.900000 4.019794 0.714285 1.100000 4.019794 0.727121 0.900000 4.019794 0.727121 1.100000 4.019794 1.026225 0.900000 4.019794 1.026225 1.100000 4.019794 1.039060 0.900000 4.019794 1.039060 1.100000 4.035614 4.099130 0.900000 4.035614 4.099130 1.100000 4.037574 3.928895 0.900000 4.037574 3.928895 1.100000 4.049020 3.573828 0.900000 4.049020 3.573828 1.100000 4.054740 4.064312 0.900000 4.054740 4.064312 1.100000 4.055230 3.963989 0.900000 4.055230 3.963989 1.100000 4.055452 3.630275 0.900000 4.055452 3.630275 1.100000 4.058062 3.822310 0.900000 4.058062 3.822310 1.100000 4.061116 4.013470 0.900000 4.061116 4.013470 1.100000 4.061452 0.733660 0.900000 4.061452 0.733660 1.100000 4.061452 1.019925 0.900000 4.061452 1.019925 1.100000 4.068144 3.892987 0.900000 4.068144 3.892987 1.100000 4.079974 3.672129 0.900000 4.079974 3.672129 1.100000 4.080627 3.785529 0.900000 4.080627 3.785529 1.100000 4.082912 3.861488 0.900000 4.082912 3.861488 1.100000 4.086880 0.733660 0.900000 4.086880 0.733660 1.100000 4.086880 1.006364 0.900000 4.086880 1.006364 1.100000 4.088148 3.734907 0.900000 4.088148 3.734907 1.100000 4.094899 4.126597 0.900000 4.094899 4.126597 1.100000 4.108410 3.922139 0.900000 4.108410 3.922139 1.100000 4.114299 3.607178 0.900000 4.114299 3.607178 1.100000 4.118123 1.039060 0.900000 4.118123 1.039060 1.100000 4.130473 0.714285 0.900000 4.130473 0.714285 1.100000 4.130473 0.727121 0.900000 4.130473 0.727121 1.100000 4.130866 3.831901 0.900000 4.130866 3.831901 1.100000 4.133424 3.964264 0.900000 4.133424 3.964264 1.100000 4.141762 4.018703 0.900000 4.141762 4.018703 1.100000 4.154842 3.660253 0.900000 4.154842 3.660253 1.100000 4.158984 3.788364 0.900000 4.158984 3.788364 1.100000 4.168357 3.730548 0.900000 4.168357 3.730548 1.100000 4.241637 1.026225 0.900000 4.241637 1.026225 1.100000 4.241637 1.039060 0.900000 4.241637 1.039060 1.100000 4.242498 3.571428 0.900000 4.242498 3.571428 1.100000 4.242498 3.635508 0.900000 4.242498 3.635508 1.100000 4.262118 4.031341 0.900000 4.262118 4.031341 1.100000 4.262118 4.143815 0.900000 4.262118 4.143815 1.100000 4.285230 0.798567 0.900000 4.285230 0.798567 1.100000 4.285230 1.019925 0.900000 4.285230 1.019925 1.100000 4.287169 0.714285 0.900000 4.287169 0.714285 1.100000 4.290886 4.031341 0.900000 4.290886 4.031341 1.100000 4.299609 3.638562 0.900000 4.299609 3.638562 1.100000 4.306147 4.102833 0.900000 4.306147 4.102833 1.100000 4.310662 0.714285 0.900000 4.310662 0.714285 1.100000 4.310662 1.019925 0.900000 4.310662 1.019925 1.100000 4.323581 3.709186 0.900000 4.323581 3.709186 1.100000 4.326309 4.112262 0.900000 4.326309 4.112262 1.100000 4.335465 4.157875 0.900000 4.335465 4.157875 1.100000 4.342003 3.676598 0.900000 4.342003 3.676598 1.100000 4.349302 4.119618 0.900000 4.349302 4.119618 1.100000 4.352319 1.026225 0.900000 4.352319 1.026225 1.100000 4.352319 1.039060 0.900000 4.352319 1.039060 1.100000 4.373390 4.124363 0.900000 4.373390 4.124363 1.100000 4.381998 3.711365 0.900000 4.381998 3.711365 1.100000 4.391263 3.771087 0.900000 4.391263 3.771087 1.100000 4.396822 4.125944 0.900000 4.396822 4.125944 1.100000 4.396822 4.162561 0.900000 4.396822 4.162561 1.100000 4.438235 3.819912 0.900000 4.438235 3.819912 1.100000 4.447065 4.118532 0.900000 4.447065 4.118532 1.100000 4.459812 3.779971 0.900000 4.459812 3.779971 1.100000 4.469676 3.862851 0.900000 4.469676 3.862851 1.100000 4.480796 4.152589 0.900000 4.480796 4.152589 1.100000 4.480959 4.096295 0.900000 4.480959 4.096295 1.100000 4.490763 3.907096 0.900000 4.490763 3.907096 1.100000 4.500250 4.059895 0.900000 4.500250 4.059895 1.100000 4.502701 3.955268 0.900000 4.502701 3.955268 1.100000 4.506680 4.009979 0.900000 4.506680 4.009979 1.100000 4.511906 3.831464 0.900000 4.511906 3.831464 1.100000 4.540900 4.122672 0.900000 4.540900 4.122672 1.100000 4.546073 3.874514 0.900000 4.546073 3.874514 1.100000 4.570104 3.917780 0.900000 4.570104 3.917780 1.100000 4.577026 4.074554 0.900000 4.577026 4.074554 1.100000 4.584327 3.962517 0.900000 4.584327 3.962517 1.100000 4.589069 4.009979 0.900000 4.589069 4.009979 1.100000 4.600402 3.571428 0.900000 4.600402 3.571428 1.100000 4.600402 3.638562 0.900000 4.600402 3.638562 1.100000 6.000000 0.000000 0.000000 6.000000 0.000000 0.900000 6.000000 5.000000 0.000000 6.000000 5.000000 0.900000 "
							            />
						</IndexedFaceSet>
					</Shape>
					<Shape>
						<Appearance>
							<Material DEF="MA_Color_2"
							          diffuseColor="1.000 1.000 1.000"
							          specularColor="0.401 0.401 0.401"
							          emissiveColor="0.000 0.000 0.000"
							          ambientIntensity="0.000"
							          shininess="0.500"
							          transparency="1.000"
							          />
						</Appearance>
						<IndexedFaceSet solid="false"
						                coordIndex="4 5 8 -1 4 6 7 -1 4 7 5 -1 5 7 35 -1 5 9 8 -1 5 13 9 -1 5 17 13 -1 5 21 17 -1 5 23 21 -1 5 27 23 -1 5 31 27 -1 5 35 31 -1 6 10 11 -1 6 11 7 -1 7 11 35 -1 8 9 12 -1 9 13 12 -1 10 14 15 -1 10 15 11 -1 11 15 35 -1 12 13 16 -1 13 17 16 -1 14 18 19 -1 14 19 15 -1 15 19 35 -1 16 17 20 -1 17 21 20 -1 18 24 25 -1 18 25 19 -1 19 25 29 -1 19 29 33 -1 19 33 35 -1 20 21 22 -1 21 23 22 -1 22 23 26 -1 23 27 26 -1 24 28 29 -1 24 29 25 -1 26 27 30 -1 27 31 30 -1 28 32 33 -1 28 33 29 -1 30 31 34 -1 31 35 34 -1 32 34 35 -1 32 35 33 -1 36 37 38 -1 36 54 55 -1 36 55 37 -1 37 39 38 -1 37 45 39 -1 37 55 45 -1 38 39 44 -1 39 45 44 -1 40 41 42 -1 40 46 47 -1 40 47 41 -1 41 43 42 -1 41 47 43 -1 42 43 52 -1 43 47 53 -1 43 53 52 -1 44 45 47 -1 44 47 46 -1 45 49 51 -1 45 51 47 -1 45 55 49 -1 47 51 53 -1 48 49 56 -1 48 50 51 -1 48 51 49 -1 49 55 57 -1 49 57 56 -1 50 58 51 -1 51 58 66 -1 51 66 68 -1 51 68 76 -1 51 76 53 -1 52 53 75 -1 53 76 75 -1 54 56 57 -1 54 57 55 -1 58 65 66 -1 59 60 61 -1 59 63 64 -1 59 64 60 -1 60 62 61 -1 60 64 62 -1 61 62 79 -1 62 64 70 -1 62 70 80 -1 62 80 79 -1 63 83 84 -1 63 84 64 -1 64 84 70 -1 65 67 68 -1 65 68 66 -1 67 111 112 -1 67 112 68 -1 68 112 76 -1 69 70 85 -1 69 77 78 -1 69 78 70 -1 70 78 80 -1 70 84 86 -1 70 86 85 -1 71 72 73 -1 71 99 100 -1 71 100 72 -1 72 74 73 -1 72 82 74 -1 72 100 82 -1 73 74 81 -1 74 82 81 -1 75 76 107 -1 76 108 107 -1 76 112 108 -1 77 79 80 -1 77 80 78 -1 81 82 83 -1 82 84 83 -1 82 88 84 -1 82 100 88 -1 84 88 90 -1 84 90 86 -1 85 86 103 -1 86 90 104 -1 86 104 103 -1 87 88 101 -1 87 89 90 -1 87 90 88 -1 88 100 102 -1 88 102 101 -1 89 105 106 -1 89 106 90 -1 90 106 104 -1 91 92 93 -1 91 103 104 -1 91 104 92 -1 92 94 93 -1 92 104 94 -1 93 94 115 -1 94 104 106 -1 94 106 116 -1 94 116 115 -1 95 96 97 -1 95 165 166 -1 95 166 96 -1 96 98 97 -1 96 110 98 -1 96 166 110 -1 97 98 109 -1 98 110 109 -1 99 101 102 -1 99 102 100 -1 105 113 114 -1 105 114 106 -1 106 114 116 -1 107 108 171 -1 108 112 124 -1 108 124 126 -1 108 126 172 -1 108 172 171 -1 109 110 111 -1 110 112 111 -1 110 124 112 -1 110 166 124 -1 113 115 116 -1 113 116 114 -1 117 118 119 -1 117 121 122 -1 117 122 118 -1 118 120 119 -1 118 122 120 -1 119 120 183 -1 120 122 140 -1 120 140 184 -1 120 184 183 -1 121 191 192 -1 121 192 122 -1 122 192 140 -1 123 124 167 -1 123 125 126 -1 123 126 124 -1 124 166 168 -1 124 168 167 -1 125 169 170 -1 125 170 126 -1 126 170 172 -1 127 128 131 -1 127 135 136 -1 127 136 128 -1 128 132 131 -1 128 136 154 -1 128 154 132 -1 129 130 133 -1 129 137 138 -1 129 138 130 -1 130 134 133 -1 130 138 156 -1 130 156 134 -1 131 132 141 -1 132 142 141 -1 132 154 158 -1 132 158 142 -1 133 134 143 -1 134 144 143 -1 134 156 160 -1 134 160 144 -1 135 149 150 -1 135 150 136 -1 136 150 162 -1 136 162 154 -1 137 151 152 -1 137 152 138 -1 138 152 164 -1 138 164 156 -1 139 140 205 -1 139 181 182 -1 139 182 140 -1 140 182 184 -1 140 192 206 -1 140 206 205 -1 141 142 185 -1 142 158 174 -1 142 174 186 -1 142 186 185 -1 143 144 187 -1 144 160 176 -1 144 176 188 -1 144 188 187 -1 145 146 147 -1 145 235 236 -1 145 236 146 -1 146 148 147 -1 146 190 148 -1 146 236 190 -1 147 148 189 -1 148 190 189 -1 149 193 194 -1 149 194 150 -1 150 178 162 -1 150 194 178 -1 151 195 196 -1 151 196 152 -1 152 180 164 -1 152 196 180 -1 153 154 161 -1 153 157 158 -1 153 158 154 -1 154 162 161 -1 155 156 163 -1 155 159 160 -1 155 160 156 -1 156 164 163 -1 157 173 174 -1 157 174 158 -1 159 175 176 -1 159 176 160 -1 161 162 177 -1 162 178 177 -1 163 164 179 -1 164 180 179 -1 165 167 168 -1 165 168 166 -1 169 171 172 -1 169 172 170 -1 173 197 198 -1 173 198 174 -1 174 198 186 -1 175 199 200 -1 175 200 176 -1 176 200 188 -1 177 178 201 -1 178 194 202 -1 178 202 201 -1 179 180 203 -1 180 196 204 -1 180 204 203 -1 181 183 184 -1 181 184 182 -1 185 186 219 -1 186 198 220 -1 186 220 219 -1 187 188 221 -1 188 200 222 -1 188 222 221 -1 189 190 191 -1 190 192 191 -1 190 208 192 -1 190 236 208 -1 192 208 210 -1 192 210 206 -1 193 211 212 -1 193 212 194 -1 194 212 202 -1 195 213 214 -1 195 214 196 -1 196 214 204 -1 197 223 224 -1 197 224 198 -1 198 224 220 -1 199 225 226 -1 199 226 200 -1 200 226 222 -1 201 202 215 -1 202 212 216 -1 202 216 215 -1 203 204 217 -1 204 214 218 -1 204 218 217 -1 205 206 251 -1 206 210 252 -1 206 252 251 -1 207 208 237 -1 207 209 210 -1 207 210 208 -1 208 236 238 -1 208 238 237 -1 209 269 270 -1 209 270 210 -1 210 270 252 -1 211 257 258 -1 211 258 212 -1 212 240 216 -1 212 258 240 -1 213 259 260 -1 213 260 214 -1 214 242 218 -1 214 260 242 -1 215 216 239 -1 216 240 239 -1 217 218 241 -1 218 242 241 -1 219 220 253 -1 220 224 232 -1 220 232 254 -1 220 254 253 -1 221 222 255 -1 222 226 234 -1 222 234 256 -1 222 256 255 -1 223 231 232 -1 223 232 224 -1 225 233 234 -1 225 234 226 -1 227 228 229 -1 227 251 252 -1 227 252 228 -1 228 230 229 -1 228 252 230 -1 229 230 305 -1 230 252 270 -1 230 270 306 -1 230 306 305 -1 231 243 244 -1 231 244 232 -1 232 244 254 -1 233 245 246 -1 233 246 234 -1 234 246 256 -1 235 237 238 -1 235 238 236 -1 239 240 247 -1 240 248 247 -1 240 258 248 -1 241 242 249 -1 242 250 249 -1 242 260 250 -1 243 261 262 -1 243 262 244 -1 244 262 254 -1 245 263 264 -1 245 264 246 -1 246 264 256 -1 247 248 265 -1 248 258 266 -1 248 266 265 -1 249 250 267 -1 250 260 268 -1 250 268 267 -1 253 254 287 -1 254 262 288 -1 254 288 287 -1 255 256 289 -1 256 264 290 -1 256 290 289 -1 257 295 296 -1 257 296 258 -1 258 296 266 -1 259 297 298 -1 259 298 260 -1 260 298 268 -1 261 271 272 -1 261 272 262 -1 262 272 288 -1 263 273 274 -1 263 274 264 -1 264 274 290 -1 265 266 275 -1 266 276 275 -1 266 296 276 -1 267 268 277 -1 268 278 277 -1 268 298 278 -1 269 303 304 -1 269 304 270 -1 270 304 306 -1 271 279 280 -1 271 280 272 -1 272 280 292 -1 272 292 288 -1 273 281 282 -1 273 282 274 -1 274 282 294 -1 274 294 290 -1 275 276 283 -1 276 284 283 -1 276 296 300 -1 276 300 284 -1 277 278 285 -1 278 286 285 -1 278 298 302 -1 278 302 286 -1 279 291 292 -1 279 292 280 -1 281 293 294 -1 281 294 282 -1 283 284 299 -1 284 300 299 -1 285 286 301 -1 286 302 301 -1 287 288 291 -1 288 292 291 -1 289 290 293 -1 290 294 293 -1 295 299 300 -1 295 300 296 -1 297 301 302 -1 297 302 298 -1 303 305 306 -1 303 306 304 -1 307 308 309 -1 307 319 320 -1 307 320 308 -1 308 310 309 -1 308 320 310 -1 309 310 377 -1 310 320 347 -1 310 347 378 -1 310 378 377 -1 311 312 313 -1 311 339 340 -1 311 340 312 -1 312 314 313 -1 312 340 314 -1 313 314 391 -1 314 340 392 -1 314 392 391 -1 315 316 317 -1 315 344 345 -1 315 345 316 -1 316 318 317 -1 316 345 318 -1 317 318 393 -1 318 345 394 -1 318 394 393 -1 319 379 380 -1 319 380 320 -1 320 380 390 -1 320 390 402 -1 320 402 347 -1 321 322 323 -1 321 403 404 -1 321 404 322 -1 322 324 323 -1 322 338 324 -1 322 357 338 -1 322 404 357 -1 323 324 337 -1 324 338 337 -1 325 326 327 -1 325 407 408 -1 325 408 326 -1 326 328 327 -1 326 342 328 -1 326 365 342 -1 326 408 365 -1 327 328 341 -1 328 342 341 -1 329 330 331 -1 329 354 355 -1 329 355 330 -1 330 332 331 -1 330 355 332 -1 331 332 481 -1 332 355 482 -1 332 482 481 -1 333 334 335 -1 333 495 496 -1 333 496 334 -1 334 336 335 -1 334 353 336 -1 334 428 353 -1 334 496 428 -1 335 336 352 -1 336 353 352 -1 337 338 339 -1 338 340 339 -1 338 357 359 -1 338 359 361 -1 338 361 340 -1 340 361 363 -1 340 363 392 -1 341 342 343 -1 342 345 343 -1 342 365 368 -1 342 368 370 -1 342 370 345 -1 343 345 344 -1 345 370 372 -1 345 372 394 -1 346 347 401 -1 346 375 376 -1 346 376 347 -1 347 376 378 -1 347 402 401 -1 348 349 350 -1 348 423 424 -1 348 424 349 -1 349 351 350 -1 349 374 351 -1 349 424 374 -1 350 351 373 -1 351 374 373 -1 352 353 354 -1 353 355 354 -1 353 428 430 -1 353 430 432 -1 353 432 355 -1 355 432 434 -1 355 434 482 -1 356 357 405 -1 356 358 359 -1 356 359 357 -1 357 404 406 -1 357 406 405 -1 358 397 398 -1 358 398 359 -1 359 386 361 -1 359 398 386 -1 360 361 385 -1 360 362 363 -1 360 363 361 -1 361 386 385 -1 362 381 382 -1 362 382 363 -1 363 382 392 -1 364 365 409 -1 364 366 365 -1 365 366 368 -1 365 408 410 -1 365 410 409 -1 366 367 368 -1 367 399 400 -1 367 400 368 -1 368 388 370 -1 368 400 388 -1 369 370 387 -1 369 371 372 -1 369 372 370 -1 370 388 387 -1 371 383 384 -1 371 384 372 -1 372 384 394 -1 373 374 459 -1 374 396 420 -1 374 420 422 -1 374 422 460 -1 374 424 396 -1 374 460 459 -1 375 377 378 -1 375 378 376 -1 379 389 390 -1 379 390 380 -1 381 415 416 -1 381 416 382 -1 382 416 392 -1 383 417 418 -1 383 418 384 -1 384 418 394 -1 385 386 411 -1 386 398 412 -1 386 412 411 -1 387 388 413 -1 388 400 414 -1 388 414 413 -1 389 461 462 -1 389 462 390 -1 390 462 402 -1 391 392 467 -1 392 416 468 -1 392 468 467 -1 393 394 469 -1 394 418 470 -1 394 470 469 -1 395 396 425 -1 395 419 420 -1 395 420 396 -1 396 424 426 -1 396 426 425 -1 397 439 440 -1 397 440 398 -1 398 440 412 -1 399 441 442 -1 399 442 400 -1 400 442 414 -1 401 402 471 -1 402 462 472 -1 402 472 471 -1 403 405 406 -1 403 406 404 -1 407 409 410 -1 407 410 408 -1 411 412 435 -1 412 436 435 -1 412 440 436 -1 413 414 437 -1 414 438 437 -1 414 442 438 -1 415 443 444 -1 415 444 416 -1 416 444 468 -1 417 445 446 -1 417 446 418 -1 418 446 470 -1 419 525 526 -1 419 526 420 -1 420 526 422 -1 421 422 503 -1 421 477 478 -1 421 478 422 -1 422 478 460 -1 422 504 503 -1 422 526 504 -1 423 425 426 -1 423 426 424 -1 427 428 497 -1 427 429 430 -1 427 430 428 -1 428 496 498 -1 428 498 497 -1 429 487 488 -1 429 488 430 -1 430 476 432 -1 430 488 476 -1 431 432 475 -1 431 433 434 -1 431 434 432 -1 432 476 475 -1 433 473 474 -1 433 474 434 -1 434 474 482 -1 435 436 447 -1 436 440 464 -1 436 448 447 -1 436 464 448 -1 437 438 449 -1 438 442 466 -1 438 450 449 -1 438 466 450 -1 439 463 464 -1 439 464 440 -1 441 465 466 -1 441 466 442 -1 443 451 452 -1 443 452 444 -1 444 452 468 -1 445 453 454 -1 445 454 446 -1 446 454 470 -1 447 448 455 -1 448 456 455 -1 448 464 484 -1 448 484 456 -1 449 450 457 -1 450 458 457 -1 450 466 486 -1 450 486 458 -1 451 455 456 -1 451 456 452 -1 452 456 490 -1 452 490 468 -1 453 457 458 -1 453 458 454 -1 454 458 492 -1 454 492 470 -1 456 484 490 -1 458 486 492 -1 459 460 493 -1 460 478 494 -1 460 494 493 -1 461 527 528 -1 461 528 462 -1 462 528 532 -1 462 532 472 -1 463 483 484 -1 463 484 464 -1 465 485 486 -1 465 486 466 -1 467 468 489 -1 468 490 489 -1 469 470 491 -1 470 492 491 -1 471 472 479 -1 472 480 479 -1 472 532 480 -1 473 523 524 -1 473 524 474 -1 474 524 482 -1 475 476 521 -1 476 488 522 -1 476 522 521 -1 477 503 504 -1 477 504 478 -1 478 504 494 -1 479 480 531 -1 480 532 531 -1 481 482 586 -1 481 586 585 -1 482 524 586 -1 483 489 490 -1 483 490 484 -1 485 491 492 -1 485 492 486 -1 487 545 546 -1 487 546 488 -1 488 546 522 -1 493 494 567 -1 494 504 568 -1 494 568 567 -1 495 497 498 -1 495 498 496 -1 499 500 501 -1 499 587 588 -1 499 588 500 -1 500 502 501 -1 500 534 502 -1 500 588 534 -1 501 502 533 -1 502 534 533 -1 504 526 568 -1 505 506 507 -1 505 575 576 -1 505 576 506 -1 506 508 507 -1 506 536 508 -1 506 576 536 -1 507 508 535 -1 508 536 535 -1 509 510 511 -1 509 537 538 -1 509 538 510 -1 510 512 511 -1 510 538 512 -1 511 512 569 -1 512 538 570 -1 512 570 569 -1 513 514 515 -1 513 579 580 -1 513 580 514 -1 514 516 515 -1 514 540 516 -1 514 580 540 -1 515 516 539 -1 516 540 539 -1 517 518 519 -1 517 541 542 -1 517 542 518 -1 518 520 519 -1 518 542 520 -1 519 520 571 -1 520 542 572 -1 520 572 571 -1 521 522 543 -1 522 544 543 -1 522 546 544 -1 523 547 548 -1 523 548 524 -1 524 548 586 -1 525 533 534 -1 525 534 526 -1 526 534 568 -1 527 529 530 -1 527 530 528 -1 528 530 592 -1 528 592 532 -1 529 591 592 -1 529 592 530 -1 531 532 573 -1 532 574 573 -1 532 592 574 -1 534 588 568 -1 535 536 538 -1 535 538 537 -1 536 554 556 -1 536 556 538 -1 536 576 554 -1 538 556 570 -1 539 540 542 -1 539 542 541 -1 540 558 560 -1 540 560 542 -1 540 580 558 -1 542 560 572 -1 543 544 561 -1 544 546 584 -1 544 562 561 -1 544 584 562 -1 545 583 584 -1 545 584 546 -1 547 563 564 -1 547 564 548 -1 548 564 586 -1 549 550 551 -1 549 573 574 -1 549 574 550 -1 550 552 551 -1 550 574 552 -1 551 552 605 -1 552 574 592 -1 552 592 606 -1 552 606 605 -1 553 554 577 -1 553 555 556 -1 553 556 554 -1 554 576 578 -1 554 578 577 -1 555 653 654 -1 555 654 556 -1 556 646 570 -1 556 654 670 -1 556 670 646 -1 557 558 581 -1 557 559 560 -1 557 560 558 -1 558 580 582 -1 558 582 581 -1 559 655 656 -1 559 656 560 -1 560 650 572 -1 560 656 674 -1 560 674 650 -1 561 562 565 -1 562 566 565 -1 562 584 602 -1 562 602 566 -1 563 565 566 -1 563 566 564 -1 564 566 612 -1 564 612 586 -1 566 602 612 -1 567 568 589 -1 568 588 590 -1 568 590 589 -1 569 570 645 -1 570 646 645 -1 571 572 649 -1 572 650 649 -1 575 577 578 -1 575 578 576 -1 579 581 582 -1 579 582 580 -1 583 601 602 -1 583 602 584 -1 585 586 611 -1 586 612 611 -1 587 589 590 -1 587 590 588 -1 591 603 604 -1 591 604 592 -1 592 604 606 -1 593 594 595 -1 593 615 616 -1 593 616 594 -1 594 596 595 -1 594 616 596 -1 595 596 677 -1 596 616 678 -1 596 678 677 -1 597 598 599 -1 597 661 662 -1 597 662 598 -1 598 600 599 -1 598 614 600 -1 598 628 614 -1 598 662 628 -1 599 600 613 -1 600 614 613 -1 601 611 612 -1 601 612 602 -1 603 605 606 -1 603 606 604 -1 607 608 609 -1 607 617 618 -1 607 618 608 -1 608 610 609 -1 608 618 610 -1 609 610 667 -1 610 618 644 -1 610 644 668 -1 610 668 667 -1 613 614 615 -1 614 616 615 -1 614 628 630 -1 614 630 632 -1 614 632 616 -1 616 632 634 -1 616 634 678 -1 617 681 682 -1 617 682 618 -1 618 682 684 -1 618 684 690 -1 618 690 644 -1 619 620 621 -1 619 647 648 -1 619 648 620 -1 620 622 621 -1 620 648 622 -1 621 622 697 -1 622 648 672 -1 622 672 698 -1 622 698 697 -1 623 624 625 -1 623 651 652 -1 623 652 624 -1 624 626 625 -1 624 652 626 -1 625 626 701 -1 626 652 676 -1 626 676 702 -1 626 702 701 -1 627 628 663 -1 627 629 630 -1 627 630 628 -1 628 662 664 -1 628 664 663 -1 629 679 680 -1 629 680 630 -1 630 660 632 -1 630 680 660 -1 631 632 659 -1 631 633 634 -1 631 634 632 -1 632 660 659 -1 633 657 658 -1 633 658 634 -1 634 658 678 -1 635 636 637 -1 635 795 796 -1 635 796 636 -1 636 638 637 -1 636 686 638 -1 636 796 686 -1 637 638 685 -1 638 686 685 -1 639 640 641 -1 639 687 688 -1 639 688 640 -1 640 642 641 -1 640 688 642 -1 641 642 801 -1 642 688 740 -1 642 740 802 -1 642 802 801 -1 643 644 689 -1 643 665 666 -1 643 666 644 -1 644 666 668 -1 644 690 689 -1 645 646 647 -1 646 648 647 -1 646 670 672 -1 646 672 648 -1 649 650 651 -1 650 652 651 -1 650 674 676 -1 650 676 652 -1 653 669 670 -1 653 670 654 -1 655 673 674 -1 655 674 656 -1 657 691 692 -1 657 692 658 -1 658 692 678 -1 659 660 693 -1 660 680 694 -1 660 694 693 -1 661 663 664 -1 661 664 662 -1 665 667 668 -1 665 668 666 -1 669 671 672 -1 669 672 670 -1 671 695 696 -1 671 696 672 -1 672 696 698 -1 673 675 676 -1 673 676 674 -1 675 699 700 -1 675 700 676 -1 676 700 702 -1 677 678 709 -1 678 692 710 -1 678 710 709 -1 679 733 734 -1 679 734 680 -1 680 704 694 -1 680 734 704 -1 681 683 684 -1 681 684 682 -1 683 741 742 -1 683 742 684 -1 684 742 690 -1 685 686 687 -1 686 688 687 -1 686 738 688 -1 686 796 738 -1 688 738 740 -1 689 690 745 -1 690 742 746 -1 690 746 745 -1 691 707 708 -1 691 708 692 -1 692 708 710 -1 693 694 705 -1 694 704 706 -1 694 706 705 -1 695 697 698 -1 695 698 696 -1 699 701 702 -1 699 702 700 -1 703 704 773 -1 703 721 722 -1 703 722 704 -1 704 722 706 -1 704 734 774 -1 704 774 773 -1 705 706 711 -1 706 712 711 -1 706 722 712 -1 707 713 714 -1 707 714 708 -1 708 714 732 -1 708 732 710 -1 709 710 731 -1 710 732 731 -1 711 712 715 -1 712 716 715 -1 712 722 736 -1 712 736 748 -1 712 748 716 -1 713 715 716 -1 713 716 714 -1 714 716 758 -1 714 744 732 -1 714 758 744 -1 716 748 758 -1 717 718 723 -1 717 727 728 -1 717 728 718 -1 718 724 723 -1 718 728 760 -1 718 760 724 -1 719 720 725 -1 719 729 730 -1 719 730 720 -1 720 726 725 -1 720 730 762 -1 720 762 726 -1 721 735 736 -1 721 736 722 -1 723 724 749 -1 724 750 749 -1 724 760 766 -1 724 766 750 -1 725 726 751 -1 726 752 751 -1 726 762 768 -1 726 768 752 -1 727 753 754 -1 727 754 728 -1 728 754 770 -1 728 770 760 -1 729 755 756 -1 729 756 730 -1 730 756 772 -1 730 772 762 -1 731 732 743 -1 732 744 743 -1 733 791 792 -1 733 792 734 -1 734 792 774 -1 735 747 748 -1 735 748 736 -1 737 738 797 -1 737 739 740 -1 737 740 738 -1 738 796 798 -1 738 798 797 -1 739 799 800 -1 739 800 740 -1 740 800 802 -1 741 819 820 -1 741 820 742 -1 742 820 824 -1 742 824 746 -1 743 744 757 -1 744 758 757 -1 745 746 763 -1 746 764 763 -1 746 824 764 -1 747 757 758 -1 747 758 748 -1 749 750 783 -1 750 766 776 -1 750 776 784 -1 750 784 783 -1 751 752 785 -1 752 768 778 -1 752 778 786 -1 752 786 785 -1 753 787 788 -1 753 788 754 -1 754 780 770 -1 754 788 780 -1 755 789 790 -1 755 790 756 -1 756 782 772 -1 756 790 782 -1 759 760 769 -1 759 765 766 -1 759 766 760 -1 760 770 769 -1 761 762 771 -1 761 767 768 -1 761 768 762 -1 762 772 771 -1 763 764 823 -1 764 824 823 -1 765 775 766 -1 766 775 776 -1 767 777 778 -1 767 778 768 -1 769 770 779 -1 770 780 779 -1 771 772 781 -1 772 782 781 -1 773 774 793 -1 774 792 794 -1 774 794 793 -1 775 803 804 -1 775 804 776 -1 776 804 784 -1 777 805 806 -1 777 806 778 -1 778 806 786 -1 779 780 807 -1 780 788 808 -1 780 808 807 -1 781 782 809 -1 782 790 810 -1 782 810 809 -1 783 784 841 -1 784 804 842 -1 784 842 841 -1 785 786 843 -1 786 806 844 -1 786 844 843 -1 787 833 834 -1 787 834 788 -1 788 834 808 -1 789 835 836 -1 789 836 790 -1 790 836 810 -1 791 793 794 -1 791 794 792 -1 795 797 798 -1 795 798 796 -1 799 801 802 -1 799 802 800 -1 803 845 846 -1 803 846 804 -1 804 846 842 -1 805 847 848 -1 805 848 806 -1 806 848 844 -1 807 808 837 -1 808 834 838 -1 808 838 837 -1 809 810 839 -1 810 836 840 -1 810 840 839 -1 811 812 813 -1 811 887 888 -1 811 888 812 -1 812 814 813 -1 812 826 814 -1 812 888 826 -1 813 814 825 -1 814 826 825 -1 815 816 817 -1 815 827 828 -1 815 828 816 -1 816 818 817 -1 816 828 818 -1 817 818 873 -1 818 828 874 -1 818 874 873 -1 819 821 822 -1 819 822 820 -1 820 822 896 -1 820 896 824 -1 821 895 896 -1 821 896 822 -1 823 824 867 -1 824 868 867 -1 824 896 868 -1 825 826 827 -1 826 828 827 -1 826 852 854 -1 826 854 828 -1 826 888 852 -1 828 854 874 -1 829 830 831 -1 829 867 868 -1 829 868 830 -1 830 832 831 -1 830 868 832 -1 831 832 923 -1 832 868 896 -1 832 896 924 -1 832 924 923 -1 833 883 884 -1 833 884 834 -1 834 860 838 -1 834 884 860 -1 835 885 886 -1 835 886 836 -1 836 862 840 -1 836 886 862 -1 837 838 859 -1 838 860 859 -1 839 840 861 -1 840 862 861 -1 841 842 879 -1 842 846 856 -1 842 856 880 -1 842 880 879 -1 843 844 881 -1 844 848 858 -1 844 858 882 -1 844 882 881 -1 845 855 856 -1 845 856 846 -1 847 857 858 -1 847 858 848 -1 849 850 863 -1 849 865 866 -1 849 866 850 -1 850 864 863 -1 850 866 926 -1 850 926 864 -1 851 852 889 -1 851 853 854 -1 851 854 852 -1 852 888 890 -1 852 890 889 -1 853 955 956 -1 853 956 854 -1 854 956 958 -1 854 958 962 -1 854 962 874 -1 855 869 870 -1 855 870 856 -1 856 870 880 -1 857 871 872 -1 857 872 858 -1 858 872 882 -1 859 860 875 -1 860 876 875 -1 860 884 876 -1 861 862 877 -1 862 878 877 -1 862 886 878 -1 863 864 901 -1 864 902 901 -1 864 926 936 -1 864 936 902 -1 865 907 908 -1 865 908 866 -1 866 908 942 -1 866 942 926 -1 869 891 892 -1 869 892 870 -1 870 892 880 -1 871 893 894 -1 871 894 872 -1 872 894 882 -1 873 874 961 -1 874 962 961 -1 875 876 897 -1 876 884 898 -1 876 898 897 -1 877 878 899 -1 878 886 900 -1 878 900 899 -1 879 880 927 -1 880 892 928 -1 880 928 927 -1 881 882 929 -1 882 894 930 -1 882 930 929 -1 883 937 938 -1 883 938 884 -1 884 938 898 -1 885 939 940 -1 885 940 886 -1 886 940 900 -1 887 889 890 -1 887 890 888 -1 891 903 904 -1 891 904 892 -1 892 904 928 -1 893 905 906 -1 893 906 894 -1 894 906 930 -1 895 921 922 -1 895 922 896 -1 896 922 924 -1 897 898 909 -1 898 910 909 -1 898 938 910 -1 899 900 911 -1 900 912 911 -1 900 940 912 -1 901 902 985 -1 902 936 960 -1 902 960 986 -1 902 986 985 -1 903 913 914 -1 903 914 904 -1 904 914 932 -1 904 932 928 -1 905 915 916 -1 905 916 906 -1 906 916 934 -1 906 934 930 -1 907 991 992 -1 907 992 908 -1 908 964 942 -1 908 992 964 -1 909 910 917 -1 910 918 917 -1 910 938 952 -1 910 952 918 -1 911 912 919 -1 912 920 919 -1 912 940 954 -1 912 954 920 -1 913 931 932 -1 913 932 914 -1 915 933 934 -1 915 934 916 -1 917 918 951 -1 918 952 951 -1 919 920 953 -1 920 954 953 -1 921 923 924 -1 921 924 922 -1 925 926 941 -1 925 935 936 -1 925 936 926 -1 926 942 941 -1 927 928 931 -1 928 932 931 -1 929 930 933 -1 930 934 933 -1 935 959 960 -1 935 960 936 -1 937 951 952 -1 937 952 938 -1 939 953 954 -1 939 954 940 -1 941 942 963 -1 942 964 963 -1 943 944 945 -1 943 1007 1008 -1 943 1008 944 -1 944 946 945 -1 944 966 946 -1 944 1008 966 -1 945 946 965 -1 946 966 965 -1 947 948 949 -1 947 967 968 -1 947 968 948 -1 948 950 949 -1 948 968 950 -1 949 950 1001 -1 950 968 1002 -1 950 1002 1001 -1 955 957 958 -1 955 958 956 -1 957 1043 1044 -1 957 1044 958 -1 958 1044 962 -1 959 1003 1004 -1 959 1004 960 -1 960 1004 986 -1 961 962 1035 -1 962 1036 1035 -1 962 1044 1036 -1 963 964 1005 -1 964 992 1006 -1 964 1006 1005 -1 965 966 967 -1 966 968 967 -1 966 988 990 -1 966 990 968 -1 966 1008 988 -1 968 990 1002 -1 969 970 971 -1 969 995 996 -1 969 996 970 -1 970 972 971 -1 970 996 972 -1 971 972 1045 -1 972 996 1046 -1 972 1046 1045 -1 973 974 975 -1 973 999 1000 -1 973 1000 974 -1 974 976 975 -1 974 1000 976 -1 975 976 1047 -1 976 1000 1048 -1 976 1048 1047 -1 977 978 979 -1 977 1053 1054 -1 977 1054 978 -1 978 980 979 -1 978 994 980 -1 978 1016 994 -1 978 1054 1016 -1 979 980 993 -1 980 994 993 -1 981 982 983 -1 981 1057 1058 -1 981 1058 982 -1 982 984 983 -1 982 998 984 -1 982 1024 998 -1 982 1058 1024 -1 983 984 997 -1 984 998 997 -1 985 986 1073 -1 986 1004 1074 -1 986 1074 1073 -1 987 988 1009 -1 987 989 990 -1 987 990 988 -1 988 1008 1010 -1 988 1010 1009 -1 989 1133 1134 -1 989 1134 990 -1 990 1130 1002 -1 990 1134 1148 -1 990 1148 1130 -1 991 1069 1070 -1 991 1070 992 -1 992 1070 1006 -1 993 994 996 -1 993 996 995 -1 994 1016 1018 -1 994 1018 1020 -1 994 1020 996 -1 996 1020 1022 -1 996 1022 1046 -1 997 998 999 -1 998 1000 999 -1 998 1024 1026 -1 998 1026 1028 -1 998 1028 1000 -1 1000 1028 1030 -1 1000 1030 1048 -1 1001 1002 1129 -1 1002 1130 1129 -1 1003 1075 1076 -1 1003 1076 1004 -1 1004 1076 1074 -1 1005 1006 1071 -1 1006 1070 1072 -1 1006 1072 1071 -1 1007 1009 1010 -1 1007 1010 1008 -1 1011 1012 1013 -1 1011 1113 1114 -1 1011 1114 1012 -1 1012 1014 1013 -1 1012 1042 1014 -1 1012 1114 1042 -1 1013 1014 1041 -1 1014 1042 1041 -1 1015 1016 1055 -1 1015 1017 1018 -1 1015 1018 1016 -1 1016 1054 1056 -1 1016 1056 1055 -1 1017 1049 1050 -1 1017 1050 1018 -1 1018 1038 1020 -1 1018 1050 1038 -1 1019 1020 1037 -1 1019 1021 1022 -1 1019 1022 1020 -1 1020 1038 1037 -1 1021 1031 1032 -1 1021 1032 1022 -1 1022 1032 1046 -1 1023 1024 1059 -1 1023 1025 1026 -1 1023 1026 1024 -1 1024 1058 1060 -1 1024 1060 1059 -1 1025 1051 1052 -1 1025 1052 1026 -1 1026 1040 1028 -1 1026 1052 1040 -1 1027 1028 1039 -1 1027 1029 1030 -1 1027 1030 1028 -1 1028 1040 1039 -1 1029 1033 1034 -1 1029 1034 1030 -1 1030 1034 1048 -1 1031 1065 1066 -1 1031 1066 1032 -1 1032 1066 1046 -1 1033 1067 1068 -1 1033 1068 1034 -1 1034 1068 1048 -1 1035 1036 1119 -1 1036 1044 1078 -1 1036 1078 1080 -1 1036 1080 1120 -1 1036 1120 1119 -1 1037 1038 1061 -1 1038 1050 1062 -1 1038 1062 1061 -1 1039 1040 1063 -1 1040 1052 1064 -1 1040 1064 1063 -1 1041 1042 1043 -1 1042 1044 1043 -1 1042 1078 1044 -1 1042 1114 1078 -1 1045 1046 1125 -1 1046 1066 1126 -1 1046 1126 1125 -1 1047 1048 1127 -1 1048 1068 1128 -1 1048 1128 1127 -1 1049 1085 1086 -1 1049 1086 1050 -1 1050 1086 1062 -1 1051 1087 1088 -1 1051 1088 1052 -1 1052 1088 1064 -1 1053 1055 1056 -1 1053 1056 1054 -1 1057 1059 1060 -1 1057 1060 1058 -1 1061 1062 1081 -1 1062 1082 1081 -1 1062 1086 1082 -1 1063 1064 1083 -1 1064 1084 1083 -1 1064 1088 1084 -1 1065 1089 1090 -1 1065 1090 1066 -1 1066 1090 1126 -1 1067 1091 1092 -1 1067 1092 1068 -1 1068 1092 1128 -1 1069 1153 1154 -1 1069 1154 1070 -1 1070 1112 1072 -1 1070 1154 1112 -1 1071 1072 1111 -1 1072 1112 1111 -1 1073 1074 1151 -1 1074 1076 1110 -1 1074 1110 1152 -1 1074 1152 1151 -1 1075 1109 1110 -1 1075 1110 1076 -1 1077 1078 1115 -1 1077 1079 1078 -1 1078 1079 1080 -1 1078 1114 1116 -1 1078 1116 1115 -1 1079 1117 1118 -1 1079 1118 1080 -1 1080 1118 1120 -1 1081 1082 1097 -1 1082 1086 1122 -1 1082 1098 1097 -1 1082 1122 1098 -1 1083 1084 1099 -1 1084 1088 1124 -1 1084 1100 1099 -1 1084 1124 1100 -1 1085 1121 1122 -1 1085 1122 1086 -1 1087 1123 1124 -1 1087 1124 1088 -1 1089 1101 1102 -1 1089 1102 1090 -1 1090 1102 1126 -1 1091 1103 1104 -1 1091 1104 1092 -1 1092 1104 1128 -1 1093 1094 1095 -1 1093 1131 1132 -1 1093 1132 1094 -1 1094 1096 1095 -1 1094 1132 1096 -1 1095 1096 1177 -1 1096 1132 1150 -1 1096 1150 1178 -1 1096 1178 1177 -1 1097 1098 1105 -1 1098 1106 1105 -1 1098 1122 1136 -1 1098 1136 1106 -1 1099 1100 1107 -1 1100 1108 1107 -1 1100 1124 1138 -1 1100 1138 1108 -1 1101 1105 1106 -1 1101 1106 1102 -1 1102 1106 1142 -1 1102 1142 1126 -1 1103 1107 1108 -1 1103 1108 1104 -1 1104 1108 1144 -1 1104 1144 1128 -1 1106 1136 1142 -1 1108 1138 1144 -1 1109 1139 1140 -1 1109 1140 1110 -1 1110 1140 1152 -1 1111 1112 1145 -1 1112 1146 1145 -1 1112 1154 1146 -1 1113 1115 1116 -1 1113 1116 1114 -1 1117 1119 1120 -1 1117 1120 1118 -1 1121 1135 1136 -1 1121 1136 1122 -1 1123 1137 1138 -1 1123 1138 1124 -1 1125 1126 1141 -1 1126 1142 1141 -1 1127 1128 1143 -1 1128 1144 1143 -1 1129 1130 1131 -1 1130 1132 1131 -1 1130 1148 1150 -1 1130 1150 1132 -1 1133 1147 1148 -1 1133 1148 1134 -1 1135 1141 1142 -1 1135 1142 1136 -1 1137 1143 1144 -1 1137 1144 1138 -1 1139 1171 1172 -1 1139 1172 1140 -1 1140 1172 1152 -1 1145 1146 1173 -1 1146 1154 1174 -1 1146 1174 1173 -1 1147 1149 1150 -1 1147 1150 1148 -1 1149 1175 1176 -1 1149 1176 1150 -1 1150 1176 1178 -1 1151 1152 1211 -1 1152 1172 1212 -1 1152 1212 1211 -1 1153 1219 1220 -1 1153 1220 1154 -1 1154 1220 1174 -1 1155 1156 1157 -1 1155 1231 1232 -1 1155 1232 1156 -1 1156 1158 1157 -1 1156 1190 1158 -1 1156 1232 1190 -1 1157 1158 1189 -1 1158 1190 1189 -1 1159 1160 1161 -1 1159 1191 1192 -1 1159 1192 1160 -1 1160 1162 1161 -1 1160 1192 1162 -1 1161 1162 1223 -1 1162 1192 1224 -1 1162 1224 1223 -1 1163 1164 1165 -1 1163 1235 1236 -1 1163 1236 1164 -1 1164 1166 1165 -1 1164 1194 1166 -1 1164 1236 1194 -1 1165 1166 1193 -1 1166 1194 1193 -1 1167 1168 1169 -1 1167 1195 1196 -1 1167 1196 1168 -1 1168 1170 1169 -1 1168 1196 1170 -1 1169 1170 1225 -1 1170 1196 1226 -1 1170 1226 1225 -1 1171 1179 1180 -1 1171 1180 1172 -1 1172 1180 1212 -1 1173 1174 1197 -1 1174 1198 1197 -1 1174 1220 1198 -1 1175 1177 1178 -1 1175 1178 1176 -1 1179 1199 1200 -1 1179 1200 1180 -1 1180 1200 1214 -1 1180 1214 1212 -1 1181 1182 1183 -1 1181 1241 1242 -1 1181 1242 1182 -1 1182 1184 1183 -1 1182 1216 1184 -1 1182 1242 1216 -1 1183 1184 1215 -1 1184 1216 1215 -1 1185 1186 1187 -1 1185 1217 1218 -1 1185 1218 1186 -1 1186 1188 1187 -1 1186 1218 1188 -1 1187 1188 1239 -1 1188 1218 1240 -1 1188 1240 1239 -1 1189 1190 1192 -1 1189 1192 1191 -1 1190 1204 1206 -1 1190 1206 1192 -1 1190 1232 1204 -1 1192 1206 1224 -1 1193 1194 1196 -1 1193 1196 1195 -1 1194 1208 1210 -1 1194 1210 1196 -1 1194 1236 1208 -1 1196 1210 1226 -1 1197 1198 1201 -1 1198 1202 1201 -1 1198 1220 1222 -1 1198 1222 1202 -1 1199 1213 1214 -1 1199 1214 1200 -1 1201 1202 1221 -1 1202 1222 1221 -1 1203 1204 1233 -1 1203 1205 1206 -1 1203 1206 1204 -1 1204 1232 1234 -1 1204 1234 1233 -1 1205 1289 1290 -1 1205 1290 1206 -1 1206 1282 1224 -1 1206 1290 1304 -1 1206 1304 1282 -1 1207 1208 1237 -1 1207 1209 1210 -1 1207 1210 1208 -1 1208 1236 1238 -1 1208 1238 1237 -1 1209 1291 1292 -1 1209 1292 1210 -1 1210 1286 1226 -1 1210 1292 1308 -1 1210 1308 1286 -1 1211 1212 1213 -1 1212 1214 1213 -1 1215 1216 1217 -1 1216 1218 1217 -1 1216 1228 1230 -1 1216 1230 1218 -1 1216 1242 1228 -1 1218 1230 1240 -1 1219 1221 1222 -1 1219 1222 1220 -1 1223 1224 1281 -1 1224 1282 1281 -1 1225 1226 1285 -1 1226 1286 1285 -1 1227 1228 1243 -1 1227 1229 1230 -1 1227 1230 1228 -1 1228 1242 1244 -1 1228 1244 1243 -1 1229 1319 1320 -1 1229 1320 1230 -1 1230 1316 1240 -1 1230 1320 1324 -1 1230 1324 1316 -1 1231 1233 1234 -1 1231 1234 1232 -1 1235 1237 1238 -1 1235 1238 1236 -1 1239 1240 1315 -1 1240 1316 1315 -1 1241 1243 1244 -1 1241 1244 1242 -1 1245 1246 1253 -1 1245 1247 1246 -1 1246 1247 1248 -1 1246 1248 1266 -1 1246 1254 1253 -1 1246 1266 1254 -1 1247 1273 1274 -1 1247 1274 1248 -1 1248 1272 1266 -1 1248 1274 1272 -1 1249 1250 1251 -1 1249 1263 1264 -1 1249 1264 1250 -1 1250 1252 1251 -1 1250 1264 1270 -1 1250 1270 1252 -1 1251 1252 1267 -1 1252 1268 1267 -1 1252 1270 1268 -1 1253 1254 1265 -1 1254 1266 1265 -1 1255 1256 1257 -1 1255 1283 1284 -1 1255 1284 1256 -1 1256 1258 1257 -1 1256 1284 1258 -1 1257 1258 1329 -1 1258 1284 1306 -1 1258 1306 1330 -1 1258 1330 1329 -1 1259 1260 1261 -1 1259 1287 1288 -1 1259 1288 1260 -1 1260 1262 1261 -1 1260 1288 1262 -1 1261 1262 1333 -1 1262 1288 1310 -1 1262 1310 1334 -1 1262 1334 1333 -1 1263 1269 1270 -1 1263 1270 1264 -1 1265 1266 1271 -1 1266 1272 1271 -1 1267 1268 1293 -1 1268 1270 1276 -1 1268 1276 1294 -1 1268 1294 1293 -1 1269 1275 1276 -1 1269 1276 1270 -1 1271 1272 1295 -1 1272 1274 1296 -1 1272 1296 1295 -1 1273 1341 1342 -1 1273 1342 1274 -1 1274 1314 1296 -1 1274 1342 1314 -1 1275 1301 1302 -1 1275 1302 1276 -1 1276 1302 1294 -1 1277 1278 1279 -1 1277 1317 1318 -1 1277 1318 1278 -1 1278 1280 1279 -1 1278 1318 1280 -1 1279 1280 1349 -1 1280 1318 1326 -1 1280 1326 1350 -1 1280 1350 1349 -1 1281 1282 1283 -1 1282 1284 1283 -1 1282 1304 1306 -1 1282 1306 1284 -1 1285 1286 1287 -1 1286 1288 1287 -1 1286 1308 1310 -1 1286 1310 1288 -1 1289 1303 1304 -1 1289 1304 1290 -1 1291 1307 1308 -1 1291 1308 1292 -1 1293 1294 1311 -1 1294 1302 1312 -1 1294 1312 1311 -1 1295 1296 1313 -1 1296 1314 1313 -1 1297 1298 1299 -1 1297 1343 1344 -1 1297 1344 1298 -1 1298 1300 1299 -1 1298 1344 1300 -1 1299 1300 1345 -1 1300 1344 1346 -1 1300 1346 1345 -1 1301 1321 1322 -1 1301 1322 1302 -1 1302 1322 1312 -1 1303 1305 1306 -1 1303 1306 1304 -1 1305 1327 1328 -1 1305 1328 1306 -1 1306 1328 1330 -1 1307 1309 1310 -1 1307 1310 1308 -1 1309 1331 1332 -1 1309 1332 1310 -1 1310 1332 1334 -1 1311 1312 1339 -1 1312 1322 1340 -1 1312 1340 1339 -1 1313 1314 1335 -1 1314 1336 1335 -1 1314 1342 1336 -1 1315 1316 1317 -1 1316 1318 1317 -1 1316 1324 1326 -1 1316 1326 1318 -1 1319 1323 1324 -1 1319 1324 1320 -1 1321 1337 1338 -1 1321 1338 1322 -1 1322 1338 1340 -1 1323 1325 1326 -1 1323 1326 1324 -1 1325 1347 1348 -1 1325 1348 1326 -1 1326 1348 1350 -1 1327 1329 1330 -1 1327 1330 1328 -1 1331 1333 1334 -1 1331 1334 1332 -1 1335 1336 1355 -1 1336 1342 1356 -1 1336 1356 1355 -1 1337 1351 1352 -1 1337 1352 1338 -1 1338 1352 1340 -1 1339 1340 1403 -1 1340 1352 1404 -1 1340 1404 1403 -1 1341 1373 1374 -1 1341 1374 1342 -1 1342 1374 1356 -1 1343 1359 1360 -1 1343 1360 1344 -1 1344 1354 1346 -1 1344 1358 1354 -1 1344 1360 1358 -1 1345 1346 1353 -1 1346 1354 1353 -1 1347 1349 1350 -1 1347 1350 1348 -1 1351 1369 1370 -1 1351 1370 1352 -1 1352 1370 1404 -1 1353 1354 1371 -1 1354 1358 1390 -1 1354 1372 1371 -1 1354 1390 1372 -1 1355 1356 1379 -1 1356 1374 1380 -1 1356 1380 1379 -1 1357 1358 1395 -1 1357 1389 1390 -1 1357 1390 1358 -1 1358 1360 1396 -1 1358 1396 1395 -1 1359 1381 1382 -1 1359 1382 1360 -1 1360 1382 1396 -1 1361 1362 1363 -1 1361 1411 1412 -1 1361 1412 1362 -1 1362 1364 1363 -1 1362 1386 1364 -1 1362 1412 1386 -1 1363 1364 1385 -1 1364 1386 1385 -1 1365 1366 1367 -1 1365 1387 1388 -1 1365 1388 1366 -1 1366 1368 1367 -1 1366 1388 1368 -1 1367 1368 1409 -1 1368 1388 1410 -1 1368 1410 1409 -1 1369 1375 1376 -1 1369 1376 1370 -1 1370 1376 1404 -1 1371 1372 1377 -1 1372 1378 1377 -1 1372 1390 1406 -1 1372 1406 1378 -1 1373 1407 1408 -1 1373 1408 1374 -1 1374 1408 1380 -1 1375 1383 1384 -1 1375 1384 1376 -1 1376 1384 1420 -1 1376 1420 1404 -1 1377 1378 1383 -1 1378 1384 1383 -1 1378 1406 1418 -1 1378 1418 1384 -1 1379 1380 1391 -1 1380 1392 1391 -1 1380 1408 1392 -1 1381 1393 1394 -1 1381 1394 1382 -1 1382 1394 1416 -1 1382 1416 1396 -1 1384 1418 1420 -1 1385 1386 1387 -1 1386 1388 1387 -1 1386 1398 1400 -1 1386 1400 1388 -1 1386 1412 1398 -1 1388 1400 1410 -1 1389 1405 1406 -1 1389 1406 1390 -1 1391 1392 1401 -1 1392 1402 1401 -1 1392 1408 1422 -1 1392 1422 1402 -1 1393 1401 1402 -1 1393 1402 1394 -1 1394 1402 1424 -1 1394 1424 1416 -1 1395 1396 1415 -1 1396 1416 1415 -1 1397 1398 1413 -1 1397 1399 1400 -1 1397 1400 1398 -1 1398 1412 1414 -1 1398 1414 1413 -1 1399 1443 1444 -1 1399 1444 1400 -1 1400 1440 1410 -1 1400 1444 1452 -1 1400 1452 1440 -1 1402 1422 1426 -1 1402 1426 1424 -1 1403 1404 1419 -1 1404 1420 1419 -1 1405 1417 1418 -1 1405 1418 1406 -1 1407 1421 1422 -1 1407 1422 1408 -1 1409 1410 1439 -1 1410 1440 1439 -1 1411 1413 1414 -1 1411 1414 1412 -1 1415 1416 1423 -1 1416 1424 1423 -1 1417 1419 1420 -1 1417 1420 1418 -1 1421 1425 1426 -1 1421 1426 1422 -1 1423 1424 1425 -1 1424 1426 1425 -1 1427 1428 1429 -1 1427 1441 1442 -1 1427 1442 1428 -1 1428 1430 1429 -1 1428 1442 1430 -1 1429 1430 1467 -1 1430 1442 1454 -1 1430 1454 1468 -1 1430 1468 1467 -1 1431 1432 1433 -1 1431 1513 1514 -1 1431 1514 1432 -1 1432 1434 1433 -1 1432 1448 1434 -1 1432 1514 1448 -1 1433 1434 1455 -1 1434 1448 1456 -1 1434 1456 1455 -1 1435 1436 1437 -1 1435 1445 1446 -1 1435 1446 1436 -1 1436 1438 1437 -1 1436 1446 1450 -1 1436 1450 1438 -1 1437 1438 1459 -1 1438 1450 1458 -1 1438 1458 1460 -1 1438 1460 1459 -1 1439 1440 1441 -1 1440 1442 1441 -1 1440 1452 1454 -1 1440 1454 1442 -1 1443 1451 1452 -1 1443 1452 1444 -1 1445 1449 1450 -1 1445 1450 1446 -1 1447 1448 1515 -1 1447 1461 1462 -1 1447 1462 1448 -1 1448 1462 1456 -1 1448 1514 1516 -1 1448 1516 1515 -1 1449 1457 1458 -1 1449 1458 1450 -1 1451 1453 1454 -1 1451 1454 1452 -1 1453 1465 1466 -1 1453 1466 1454 -1 1454 1466 1468 -1 1455 1456 1473 -1 1456 1462 1472 -1 1456 1472 1474 -1 1456 1474 1473 -1 1457 1463 1464 -1 1457 1464 1458 -1 1458 1464 1460 -1 1459 1460 1477 -1 1460 1464 1470 -1 1460 1470 1478 -1 1460 1478 1477 -1 1461 1471 1472 -1 1461 1472 1462 -1 1463 1469 1470 -1 1463 1470 1464 -1 1465 1467 1468 -1 1465 1468 1466 -1 1469 1475 1476 -1 1469 1476 1470 -1 1470 1476 1478 -1 1471 1483 1484 -1 1471 1484 1472 -1 1472 1484 1474 -1 1473 1474 1479 -1 1474 1480 1479 -1 1474 1484 1480 -1 1475 1481 1482 -1 1475 1482 1476 -1 1476 1482 1478 -1 1477 1478 1487 -1 1478 1482 1488 -1 1478 1488 1487 -1 1479 1480 1485 -1 1480 1484 1500 -1 1480 1486 1485 -1 1480 1500 1486 -1 1481 1489 1490 -1 1481 1490 1482 -1 1482 1490 1488 -1 1483 1499 1500 -1 1483 1500 1484 -1 1485 1486 1491 -1 1486 1492 1491 -1 1486 1500 1504 -1 1486 1504 1492 -1 1487 1488 1501 -1 1488 1490 1502 -1 1488 1502 1501 -1 1489 1493 1494 -1 1489 1494 1490 -1 1490 1494 1502 -1 1491 1492 1495 -1 1492 1496 1495 -1 1492 1504 1506 -1 1492 1506 1496 -1 1493 1497 1498 -1 1493 1498 1494 -1 1494 1498 1508 -1 1494 1508 1502 -1 1495 1496 1497 -1 1496 1498 1497 -1 1496 1506 1510 -1 1496 1510 1498 -1 1498 1510 1512 -1 1498 1512 1508 -1 1499 1503 1504 -1 1499 1504 1500 -1 1501 1502 1507 -1 1502 1508 1507 -1 1503 1505 1506 -1 1503 1506 1504 -1 1505 1509 1510 -1 1505 1510 1506 -1 1507 1508 1511 -1 1508 1512 1511 -1 1509 1511 1512 -1 1509 1512 1510 -1 1513 1515 1516 -1 1513 1516 1514 -1 "
						                >
							<Coordinate USE="coords_ME_OpenSCAD_Model" />
						</IndexedFaceSet>
					</Shape>
				</Group>
			</Transform>
		</Transform>
	</Scene>
</X3D>