<?xml version="1.0" encoding="UTF-8"?>
<!DOCTYPE X3D PUBLIC "ISO//Web3D//DTD X3D 3.0//EN" "http://www.web3d.org/specifications/x3d-3.0.dtd">
<X3D version="3.0" profile="Immersive" xmlns:xsd="http://www.w3.org/2001/XMLSchema-instance" xsd:noNamespaceSchemaLocation="http://www.web3d.org/specifications/x3d-3.0.xsd">
	<head>
		<meta name="filename" content="C04-21245A.x3d" />
		<meta name="created" content="2026-02-22 14:04:06" />
		<meta name="generator" content="Blender 5.0.1" />
		<meta name="translator" content="Web3D X3D/VRML2 format v2.5.1" />
	</head>
	<Scene>
		<NavigationInfo headlight="true"
		                visibilityLimit="0.0"
		                type='"EXAMINE", "ANY"'
		                avatarSize="0.25, 1.75, 0.75"
		                />
		<Transform DEF="OpenSCAD_Model_TRANSFORM"
		           translation="0.000000 0.000000 0.000000"
		           scale="0.001000 0.001000 0.001000"
		           rotation="-1.000000 0.000000 0.000000 1.570796"
		           >
			<Transform DEF="OpenSCAD_Model_ifs_TRANSFORM"
			           translation="0.000000 0.000000 0.000000"
			           scale="1.000000 1.000000 1.000000"
			           rotation="0.000000 1.000000 0.000000 0.000000"
			           >
				<Group DEF="group_ME_OpenSCAD_Model">
					<Shape>
						<Appearance>
							<Material DEF="MA_Color_1"
							          diffuseColor="0.000 0.000 0.000"
							          specularColor="0.401 0.401 0.401"
							          emissiveColor="0.000 0.000 0.000"
							          ambientIntensity="0.000"
							          shininess="0.500"
							          transparency="1.000"
							          />
						</Appearance>
						<IndexedFaceSet solid="false"
						                coordIndex="0 1 3 -1 0 2 1503 -1 0 3 2 -1 0 1501 1502 -1 0 1502 1 -1 0 1503 1501 -1 1 30 32 -1 1 32 46 -1 1 46 3 -1 1 59 61 -1 1 61 30 -1 1 71 73 -1 1 73 59 -1 1 99 71 -1 1 145 99 -1 1 235 145 -1 1 371 235 -1 1 1502 371 -1 2 3 1503 -1 3 4 8 -1 3 6 4 -1 3 8 12 -1 3 10 6 -1 3 12 16 -1 3 16 20 -1 3 20 22 -1 3 22 1504 -1 3 46 10 -1 3 1504 1503 -1 10 46 14 -1 14 34 18 -1 14 46 34 -1 18 34 36 -1 18 36 24 -1 22 26 1504 -1 24 36 53 -1 24 53 28 -1 26 38 1504 -1 28 53 107 -1 28 107 171 -1 28 171 1504 -1 28 1504 40 -1 30 61 127 -1 30 127 131 -1 30 129 55 -1 30 131 141 -1 30 137 129 -1 30 141 137 -1 32 44 46 -1 34 46 47 -1 38 42 1504 -1 40 1504 42 -1 49 57 51 -1 51 57 65 -1 53 75 107 -1 55 65 57 -1 55 129 133 -1 55 133 65 -1 59 73 63 -1 61 79 149 -1 61 135 127 -1 61 149 135 -1 63 73 83 -1 65 133 67 -1 67 95 97 -1 67 97 111 -1 67 133 143 -1 67 143 187 -1 67 187 221 -1 67 221 255 -1 67 255 95 -1 69 85 77 -1 73 81 83 -1 77 85 103 -1 77 91 93 -1 77 93 79 -1 77 103 91 -1 79 93 193 -1 79 193 149 -1 87 101 121 -1 87 121 89 -1 89 121 105 -1 93 115 193 -1 95 255 165 -1 97 109 111 -1 99 145 147 -1 99 147 189 -1 99 189 191 -1 99 191 101 -1 101 191 121 -1 105 121 113 -1 113 117 119 -1 113 119 115 -1 113 121 117 -1 115 119 403 -1 115 403 439 -1 115 405 193 -1 115 439 405 -1 119 183 403 -1 123 167 335 -1 123 169 125 -1 123 335 349 -1 123 349 169 -1 137 141 151 -1 139 205 181 -1 141 185 151 -1 151 185 195 -1 153 161 279 -1 153 279 157 -1 155 163 281 -1 155 281 159 -1 157 279 173 -1 159 281 175 -1 161 177 279 -1 163 179 281 -1 165 255 289 -1 165 289 317 -1 165 317 385 -1 165 385 167 -1 167 333 335 -1 167 385 333 -1 169 329 331 -1 169 331 171 -1 169 349 329 -1 171 331 1504 -1 173 279 197 -1 175 281 199 -1 177 201 279 -1 179 203 281 -1 181 205 251 -1 181 227 229 -1 181 229 183 -1 181 251 227 -1 183 229 401 -1 183 401 403 -1 185 219 195 -1 193 405 407 -1 193 407 211 -1 195 219 253 -1 195 253 287 -1 195 287 313 -1 195 313 213 -1 197 279 223 -1 199 281 225 -1 201 215 279 -1 203 217 281 -1 207 237 319 -1 207 319 209 -1 209 303 269 -1 209 307 303 -1 209 319 307 -1 211 407 257 -1 213 313 259 -1 215 239 291 -1 215 291 279 -1 217 241 281 -1 223 279 231 -1 225 281 233 -1 229 305 401 -1 231 279 243 -1 233 273 245 -1 233 281 273 -1 235 371 237 -1 237 371 319 -1 239 247 291 -1 241 249 281 -1 243 271 261 -1 243 279 271 -1 245 273 263 -1 247 265 291 -1 249 267 281 -1 257 407 295 -1 259 313 297 -1 265 275 291 -1 267 277 281 -1 275 283 291 -1 277 285 281 -1 281 285 301 -1 281 301 341 -1 281 341 293 -1 283 299 311 -1 283 311 291 -1 287 291 311 -1 287 311 313 -1 289 293 315 -1 289 315 317 -1 293 341 315 -1 295 321 323 -1 295 323 337 -1 295 337 339 -1 295 339 299 -1 295 407 321 -1 297 313 325 -1 297 325 327 -1 297 327 341 -1 297 341 301 -1 299 339 311 -1 303 307 309 -1 303 309 305 -1 305 309 523 -1 305 491 401 -1 305 523 525 -1 305 525 491 -1 309 369 523 -1 313 383 325 -1 315 341 343 -1 321 407 393 -1 325 383 397 -1 331 475 1504 -1 333 385 461 -1 333 461 513 -1 333 513 487 -1 335 347 349 -1 345 391 367 -1 351 395 353 -1 353 395 387 -1 355 373 357 -1 355 377 409 -1 355 409 425 -1 355 413 373 -1 355 425 441 -1 355 433 413 -1 355 441 449 -1 355 445 433 -1 355 449 445 -1 359 399 361 -1 361 399 693 -1 361 507 389 -1 361 693 765 -1 361 765 507 -1 363 375 365 -1 363 379 411 -1 363 411 427 -1 363 415 375 -1 363 427 443 -1 363 435 415 -1 363 443 451 -1 363 447 435 -1 363 451 447 -1 367 391 463 -1 367 463 369 -1 369 463 615 -1 369 595 523 -1 369 615 617 -1 369 617 595 -1 371 1502 381 -1 381 519 453 -1 381 1502 519 -1 383 459 397 -1 387 395 429 -1 389 507 509 -1 389 509 431 -1 393 407 497 -1 393 497 499 -1 393 499 501 -1 393 501 395 -1 395 501 429 -1 397 459 505 -1 397 505 569 -1 397 569 625 -1 397 625 399 -1 399 625 693 -1 403 437 439 -1 417 489 419 -1 419 489 481 -1 421 465 423 -1 421 467 515 -1 421 515 541 -1 421 517 465 -1 421 541 563 -1 421 545 517 -1 421 563 567 -1 421 565 545 -1 421 567 565 -1 429 501 455 -1 431 509 457 -1 455 501 533 -1 455 533 477 -1 457 509 537 -1 457 537 479 -1 459 483 503 -1 459 503 505 -1 461 485 511 -1 461 511 513 -1 463 469 615 -1 469 531 547 -1 469 547 549 -1 469 549 615 -1 471 493 525 -1 471 495 473 -1 471 525 561 -1 471 527 495 -1 471 561 527 -1 475 585 641 -1 475 641 1504 -1 477 533 483 -1 479 537 539 -1 479 539 485 -1 481 489 543 -1 483 533 535 -1 483 535 503 -1 485 539 511 -1 487 513 571 -1 487 571 629 -1 487 629 697 -1 487 635 637 -1 487 637 489 -1 487 697 825 -1 487 825 861 -1 487 861 909 -1 487 909 955 -1 487 955 635 -1 489 637 543 -1 491 525 493 -1 495 527 529 -1 495 529 497 -1 497 529 715 -1 497 575 499 -1 497 653 575 -1 497 665 653 -1 497 715 665 -1 507 765 579 -1 519 1502 521 -1 521 603 591 -1 521 607 603 -1 521 613 607 -1 521 673 613 -1 521 1502 673 -1 525 559 561 -1 529 601 715 -1 531 573 547 -1 543 637 583 -1 549 605 699 -1 549 683 615 -1 549 699 683 -1 551 577 553 -1 553 577 653 -1 555 581 557 -1 557 581 655 -1 569 623 625 -1 569 645 623 -1 571 627 629 -1 571 649 627 -1 575 653 577 -1 579 655 581 -1 579 765 823 -1 579 823 859 -1 579 859 907 -1 579 907 951 -1 579 951 655 -1 583 637 679 -1 583 679 593 -1 585 611 639 -1 585 639 641 -1 587 597 617 -1 587 599 589 -1 587 617 633 -1 587 619 599 -1 587 633 619 -1 593 679 611 -1 595 617 597 -1 599 619 621 -1 599 621 601 -1 601 621 735 -1 601 735 715 -1 603 607 609 -1 603 609 605 -1 605 609 807 -1 605 791 699 -1 605 807 809 -1 605 809 791 -1 609 663 807 -1 611 679 639 -1 617 631 633 -1 621 689 735 -1 623 645 647 -1 627 649 651 -1 635 955 957 -1 635 957 773 -1 637 677 679 -1 641 779 1504 -1 643 681 661 -1 655 951 669 -1 657 685 701 -1 657 687 659 -1 657 701 727 -1 657 703 687 -1 657 727 703 -1 661 681 729 -1 661 729 663 -1 663 729 959 -1 663 935 807 -1 663 959 935 -1 665 707 711 -1 665 711 667 -1 665 715 707 -1 667 711 691 -1 669 695 671 -1 669 709 713 -1 669 713 695 -1 669 717 709 -1 669 737 717 -1 669 771 737 -1 669 951 953 -1 669 953 771 -1 673 1502 675 -1 675 789 723 -1 675 1502 789 -1 683 699 701 -1 683 701 685 -1 687 703 705 -1 687 705 689 -1 689 705 769 -1 689 769 735 -1 691 711 731 -1 691 731 693 -1 693 731 765 -1 695 713 733 -1 695 733 697 -1 697 733 767 -1 697 767 825 -1 701 725 727 -1 705 797 769 -1 719 775 831 -1 719 777 721 -1 719 831 841 -1 719 841 777 -1 729 743 959 -1 739 749 897 -1 739 897 745 -1 741 751 895 -1 741 895 747 -1 743 801 803 -1 743 803 805 -1 743 805 959 -1 745 897 931 -1 745 931 753 -1 747 895 755 -1 749 757 897 -1 751 759 895 -1 753 931 781 -1 755 895 783 -1 757 785 897 -1 759 787 895 -1 761 793 809 -1 761 795 763 -1 761 809 847 -1 761 811 795 -1 761 847 811 -1 769 797 815 -1 771 953 817 -1 773 887 775 -1 773 957 981 -1 773 981 887 -1 775 843 831 -1 775 887 843 -1 777 841 881 -1 777 881 779 -1 779 881 975 -1 779 975 1069 -1 779 1069 1504 -1 781 931 827 -1 783 895 829 -1 785 819 897 -1 787 821 895 -1 789 1502 799 -1 791 809 793 -1 795 811 813 -1 795 813 797 -1 797 813 967 -1 797 863 815 -1 797 917 863 -1 797 967 917 -1 799 901 871 -1 799 923 925 -1 799 925 949 -1 799 927 901 -1 799 949 927 -1 799 1502 923 -1 801 849 803 -1 805 903 959 -1 809 845 847 -1 813 941 967 -1 817 953 865 -1 819 837 897 -1 821 839 913 -1 821 913 895 -1 827 931 833 -1 829 895 835 -1 833 931 851 -1 835 895 853 -1 837 855 897 -1 839 857 913 -1 851 883 867 -1 851 931 883 -1 853 885 869 -1 853 895 885 -1 855 873 897 -1 857 875 913 -1 865 953 919 -1 873 889 897 -1 875 891 913 -1 877 937 961 -1 877 939 879 -1 877 961 993 -1 877 963 939 -1 877 993 963 -1 883 931 893 -1 891 899 913 -1 893 931 911 -1 899 933 955 -1 899 955 913 -1 901 927 929 -1 901 929 903 -1 903 929 959 -1 905 921 1183 -1 905 1183 915 -1 907 911 951 -1 909 913 955 -1 911 931 951 -1 915 1183 943 -1 917 967 969 -1 917 969 983 -1 917 983 985 -1 917 985 931 -1 919 953 971 -1 919 971 973 -1 919 973 987 -1 919 987 989 -1 919 989 933 -1 921 945 1183 -1 923 1502 1001 -1 925 947 949 -1 929 995 959 -1 931 985 951 -1 933 989 955 -1 935 959 961 -1 935 961 937 -1 939 963 965 -1 939 965 941 -1 941 965 967 -1 943 1183 997 -1 945 999 1183 -1 953 1033 971 -1 957 1035 1231 -1 957 1065 981 -1 957 1137 1065 -1 957 1203 1137 -1 957 1231 1203 -1 959 995 1041 -1 961 991 993 -1 965 1047 967 -1 967 1047 1502 -1 967 1502 1049 -1 971 1033 1109 -1 971 1109 1145 -1 971 1145 1053 -1 977 1003 979 -1 979 1003 1117 -1 995 1085 1087 -1 995 1087 1041 -1 995 1113 1085 -1 997 1183 1071 -1 999 1067 1183 -1 1001 1117 1003 -1 1001 1502 1117 -1 1005 1051 1007 -1 1007 1051 1037 -1 1009 1025 1011 -1 1009 1029 1057 -1 1009 1057 1073 -1 1009 1061 1025 -1 1009 1073 1089 -1 1009 1081 1061 -1 1009 1089 1097 -1 1009 1093 1081 -1 1009 1097 1093 -1 1013 1055 1015 -1 1015 1055 1039 -1 1017 1027 1019 -1 1017 1031 1059 -1 1017 1059 1075 -1 1017 1063 1027 -1 1017 1075 1091 -1 1017 1083 1063 -1 1017 1091 1099 -1 1017 1095 1083 -1 1017 1099 1095 -1 1021 1043 1023 -1 1023 1043 1333 -1 1023 1333 1351 -1 1023 1351 1393 -1 1023 1393 1045 -1 1035 1111 1231 -1 1037 1051 1077 -1 1039 1055 1079 -1 1041 1087 1161 -1 1041 1161 1043 -1 1043 1161 1171 -1 1043 1171 1223 -1 1043 1223 1263 -1 1043 1263 1333 -1 1045 1393 1413 -1 1045 1413 1047 -1 1047 1413 1451 -1 1047 1451 1502 -1 1049 1502 1051 -1 1051 1139 1141 -1 1051 1141 1077 -1 1051 1502 1139 -1 1053 1145 1147 -1 1053 1147 1149 -1 1053 1149 1055 -1 1055 1149 1079 -1 1067 1103 1197 -1 1067 1197 1183 -1 1069 1135 1504 -1 1071 1183 1101 -1 1077 1141 1105 -1 1079 1149 1107 -1 1085 1113 1115 -1 1101 1183 1123 -1 1103 1129 1197 -1 1105 1141 1173 -1 1105 1173 1119 -1 1107 1149 1177 -1 1107 1177 1121 -1 1109 1125 1143 -1 1109 1143 1145 -1 1111 1127 1151 -1 1111 1151 1153 -1 1111 1153 1231 -1 1117 1502 1131 -1 1119 1173 1175 -1 1119 1175 1125 -1 1121 1177 1127 -1 1123 1163 1155 -1 1123 1183 1163 -1 1125 1175 1143 -1 1127 1177 1179 -1 1127 1179 1151 -1 1129 1157 1197 -1 1131 1159 1133 -1 1131 1165 1167 -1 1131 1167 1201 -1 1131 1169 1159 -1 1131 1201 1169 -1 1131 1502 1165 -1 1135 1195 1504 -1 1139 1502 1215 -1 1145 1207 1147 -1 1147 1207 1219 -1 1153 1209 1231 -1 1157 1181 1197 -1 1159 1169 1171 -1 1159 1171 1161 -1 1165 1502 1225 -1 1167 1199 1201 -1 1181 1185 1197 -1 1185 1205 1197 -1 1187 1217 1189 -1 1189 1217 1273 -1 1191 1221 1193 -1 1193 1221 1275 -1 1195 1197 1235 -1 1195 1235 1504 -1 1197 1205 1281 -1 1197 1233 1235 -1 1197 1281 1283 -1 1197 1283 1233 -1 1203 1229 1205 -1 1203 1231 1229 -1 1205 1229 1237 -1 1205 1237 1385 -1 1205 1327 1281 -1 1205 1343 1327 -1 1205 1365 1343 -1 1205 1377 1365 -1 1205 1385 1377 -1 1207 1239 1241 -1 1207 1241 1219 -1 1207 1265 1239 -1 1209 1243 1245 -1 1209 1245 1231 -1 1209 1269 1243 -1 1211 1227 1213 -1 1213 1227 1303 -1 1215 1273 1217 -1 1215 1502 1273 -1 1219 1241 1275 -1 1219 1275 1221 -1 1223 1261 1263 -1 1223 1299 1261 -1 1225 1303 1227 -1 1225 1502 1303 -1 1231 1245 1257 -1 1233 1283 1247 -1 1235 1251 1504 -1 1237 1249 1297 -1 1237 1297 1319 -1 1237 1319 1339 -1 1237 1339 1363 -1 1237 1363 1375 -1 1237 1375 1385 -1 1239 1265 1267 -1 1241 1313 1275 -1 1243 1269 1271 -1 1245 1317 1257 -1 1247 1259 1253 -1 1247 1283 1329 -1 1247 1285 1259 -1 1247 1305 1285 -1 1247 1321 1305 -1 1247 1329 1337 -1 1247 1335 1321 -1 1247 1337 1355 -1 1247 1353 1335 -1 1247 1355 1361 -1 1247 1359 1353 -1 1247 1361 1367 -1 1247 1367 1359 -1 1249 1255 1279 -1 1249 1279 1297 -1 1251 1277 1504 -1 1257 1317 1325 -1 1261 1299 1301 -1 1273 1502 1287 -1 1275 1313 1291 -1 1277 1295 1504 -1 1287 1311 1289 -1 1287 1502 1311 -1 1291 1313 1502 -1 1291 1315 1293 -1 1291 1502 1315 -1 1295 1323 1504 -1 1303 1502 1307 -1 1307 1331 1309 -1 1307 1345 1347 -1 1307 1347 1371 -1 1307 1349 1331 -1 1307 1371 1349 -1 1307 1502 1345 -1 1311 1502 1313 -1 1315 1502 1317 -1 1317 1357 1325 -1 1317 1391 1357 -1 1317 1415 1391 -1 1317 1497 1415 -1 1317 1502 1497 -1 1323 1387 1504 -1 1331 1349 1351 -1 1331 1351 1333 -1 1341 1379 1373 -1 1345 1502 1395 -1 1347 1369 1371 -1 1373 1379 1399 -1 1373 1399 1389 -1 1381 1397 1383 -1 1383 1397 1427 -1 1387 1403 1421 -1 1387 1421 1504 -1 1389 1399 1463 -1 1389 1463 1401 -1 1391 1415 1417 -1 1391 1417 1405 -1 1393 1411 1413 -1 1393 1423 1411 -1 1395 1427 1397 -1 1395 1502 1427 -1 1399 1407 1463 -1 1401 1419 1403 -1 1401 1429 1419 -1 1401 1463 1469 -1 1401 1469 1475 -1 1401 1475 1479 -1 1401 1479 1429 -1 1403 1419 1421 -1 1405 1417 1439 -1 1405 1439 1409 -1 1407 1409 1457 -1 1407 1457 1463 -1 1409 1439 1457 -1 1411 1423 1425 -1 1421 1443 1504 -1 1427 1502 1435 -1 1429 1441 1433 -1 1429 1447 1441 -1 1429 1453 1447 -1 1429 1459 1453 -1 1429 1465 1459 -1 1429 1473 1465 -1 1429 1477 1473 -1 1429 1479 1481 -1 1429 1481 1477 -1 1431 1499 1445 -1 1435 1449 1437 -1 1435 1502 1449 -1 1443 1461 1504 -1 1445 1499 1455 -1 1449 1502 1451 -1 1455 1499 1467 -1 1461 1471 1504 -1 1467 1499 1483 -1 1471 1485 1504 -1 1483 1499 1504 -1 1483 1504 1487 -1 1485 1491 1504 -1 1487 1504 1489 -1 1489 1504 1493 -1 1491 1495 1504 -1 1493 1504 1495 -1 1497 1502 1499 -1 1499 1502 1504 -1 1501 1503 1502 -1 1502 1503 1504 -1 "
						                >
							<Coordinate DEF="coords_ME_OpenSCAD_Model"
							            point="0.000000 0.000000 0.000000 0.000000 0.000000 0.483000 0.000000 2.529000 0.000000 0.000000 2.529000 0.483000 0.410683 2.243143 0.483000 0.410683 2.243143 0.683000 0.417753 2.205631 0.483000 0.417753 2.205631 0.683000 0.417856 2.281671 0.483000 0.417856 2.281671 0.683000 0.438962 2.173445 0.483000 0.438962 2.173445 0.683000 0.439373 2.313640 0.483000 0.439373 2.313640 0.683000 0.470837 2.151311 0.483000 0.470837 2.151311 0.683000 0.471351 2.335167 0.483000 0.471351 2.335167 0.683000 0.509882 2.143933 0.483000 0.509882 2.143933 0.683000 0.509882 2.342342 0.483000 0.509882 2.342342 0.683000 0.548410 2.335167 0.483000 0.548410 2.335167 0.683000 0.548924 2.151311 0.483000 0.548924 2.151311 0.683000 0.580379 2.313640 0.483000 0.580379 2.313640 0.683000 0.580790 2.173445 0.483000 0.580790 2.173445 0.683000 0.589092 1.806428 0.483000 0.589092 1.806428 0.683000 0.589092 1.818114 0.483000 0.589092 1.818114 0.683000 0.589092 2.090430 0.483000 0.589092 2.090430 0.683000 0.589092 2.102116 0.483000 0.589092 2.102116 0.683000 0.601905 2.281671 0.483000 0.601905 2.281671 0.683000 0.602008 2.205631 0.483000 0.602008 2.205631 0.683000 0.609080 2.243143 0.483000 0.609080 2.243143 0.683000 0.627019 1.824068 0.483000 0.627019 1.824068 0.683000 0.627019 1.966883 0.483000 0.627019 2.084694 0.483000 0.627019 2.084694 0.683000 0.650170 1.824068 0.483000 0.650170 1.824068 0.683000 0.650170 2.060662 0.483000 0.650170 2.060662 0.683000 0.678615 2.102116 0.483000 0.678615 2.102116 0.683000 0.689859 1.806428 0.483000 0.689859 1.806428 0.683000 0.689859 1.818114 0.483000 0.689859 1.818114 0.683000 0.723546 0.519064 0.483000 0.723546 0.519064 0.683000 0.723546 0.525556 0.483000 0.723546 0.525556 0.683000 0.742042 0.515878 0.483000 0.742042 0.515878 0.683000 0.758434 1.806428 0.483000 0.758434 1.806428 0.683000 0.766150 1.806428 0.483000 0.766150 1.806428 0.683000 0.770952 0.515878 0.483000 0.770952 0.515878 0.683000 0.773648 0.361285 0.483000 0.773648 0.361285 0.683000 0.773648 0.367778 0.483000 0.773648 0.367778 0.683000 0.774751 1.877208 0.483000 0.774751 1.877208 0.683000 0.793002 0.519064 0.483000 0.793002 0.519064 0.683000 0.793002 0.525556 0.483000 0.793002 0.525556 0.683000 0.799740 0.371085 0.483000 0.799740 0.371085 0.683000 0.799740 0.425229 0.483000 0.799740 0.425229 0.683000 0.818115 0.440051 0.483000 0.818115 0.440051 0.683000 0.823382 0.371085 0.483000 0.823382 0.371085 0.683000 0.823382 0.425964 0.483000 0.823382 0.425964 0.683000 0.842124 0.519064 0.483000 0.842124 0.519064 0.683000 0.842124 0.525556 0.483000 0.842124 0.525556 0.683000 0.844429 1.806428 0.483000 0.844429 1.806428 0.683000 0.844429 1.818114 0.483000 0.844429 1.818114 0.683000 0.849474 0.361285 0.483000 0.849474 0.361285 0.683000 0.849474 0.367778 0.483000 0.849474 0.367778 0.683000 0.862948 0.515878 0.483000 0.862948 0.515878 0.683000 0.877526 0.515878 0.483000 0.877526 0.515878 0.683000 0.879708 2.102116 0.483000 0.879708 2.102116 0.683000 0.884117 1.824068 0.483000 0.884117 1.824068 0.683000 0.884117 2.060662 0.483000 0.884117 2.060662 0.683000 0.895533 0.519064 0.483000 0.895533 0.519064 0.683000 0.895533 0.525556 0.483000 0.895533 0.525556 0.683000 0.904733 0.519064 0.483000 0.904733 0.519064 0.683000 0.904733 0.525556 0.483000 0.904733 0.525556 0.683000 0.923229 0.515878 0.483000 0.923229 0.515878 0.683000 0.926453 1.824068 0.483000 0.926453 1.824068 0.683000 0.926453 2.084694 0.483000 0.926453 2.084694 0.683000 0.932724 1.164093 0.483000 0.932724 1.164093 0.683000 0.932724 1.525379 0.483000 0.932724 1.525379 0.683000 0.938084 1.201317 0.483000 0.938084 1.201317 0.683000 0.938084 1.562603 0.483000 0.938084 1.562603 0.683000 0.938298 1.129257 0.483000 0.938298 1.129257 0.683000 0.938298 1.490543 0.483000 0.938298 1.490543 0.683000 0.952139 0.515878 0.483000 0.952139 0.515878 0.683000 0.954161 1.228221 0.483000 0.954161 1.228221 0.683000 0.954161 1.589507 0.483000 0.954161 1.589507 0.683000 0.954834 0.361285 0.483000 0.954834 0.361285 0.683000 0.954834 0.367778 0.483000 0.954834 0.367778 0.683000 0.955019 1.103149 0.483000 0.955019 1.103149 0.683000 0.955019 1.464435 0.483000 0.955019 1.464435 0.683000 0.958327 1.164339 0.483000 0.958327 1.164339 0.683000 0.958327 1.525624 0.483000 0.958327 1.525624 0.683000 0.961941 1.198086 0.483000 0.961941 1.198086 0.683000 0.961941 1.559372 0.483000 0.961941 1.559372 0.683000 0.962109 1.132795 0.483000 0.962109 1.132795 0.683000 0.962109 1.494081 0.483000 0.962109 1.494081 0.683000 0.964379 1.806428 0.483000 0.964379 1.806428 0.683000 0.964379 1.818114 0.483000 0.964379 1.818114 0.683000 0.964379 2.090430 0.483000 0.964379 2.090430 0.683000 0.964379 2.102116 0.483000 0.964379 2.102116 0.683000 0.972782 1.221667 0.483000 0.972782 1.221667 0.683000 0.972782 1.582953 0.483000 0.972782 1.582953 0.683000 0.973456 1.109703 0.483000 0.973456 1.109703 0.683000 0.973456 1.470989 0.483000 0.973456 1.470989 0.683000 0.974188 0.519064 0.483000 0.974188 0.519064 0.683000 0.974188 0.525556 0.483000 0.974188 0.525556 0.683000 0.980775 1.244529 0.483000 0.980775 1.244529 0.683000 0.980775 1.605815 0.483000 0.980775 1.605815 0.683000 0.980926 0.371085 0.483000 0.980926 0.371085 0.683000 0.980926 0.425229 0.483000 0.980926 0.425229 0.683000 0.981724 1.086843 0.483000 0.981724 1.086843 0.683000 0.981724 1.448129 0.483000 0.981724 1.448129 0.683000 0.991494 1.235541 0.483000 0.991494 1.235541 0.683000 0.991494 1.596826 0.483000 0.991494 1.596826 0.683000 0.992030 1.095555 0.483000 0.992030 1.095555 0.683000 0.992030 1.456840 0.483000 0.992030 1.456840 0.683000 0.999301 0.440051 0.483000 0.999301 0.440051 0.683000 1.004569 0.371085 0.483000 1.004569 0.371085 0.683000 1.004569 0.425964 0.483000 1.004569 0.425964 0.683000 1.017249 1.081407 0.483000 1.017249 1.081407 0.683000 1.017249 1.442693 0.483000 1.017249 1.442693 0.683000 1.017495 1.090839 0.483000 1.017495 1.090839 0.683000 1.017495 1.452124 0.483000 1.017495 1.452124 0.683000 1.017739 1.249965 0.483000 1.017739 1.249965 0.683000 1.017739 1.611251 0.483000 1.017739 1.611251 0.683000 1.018719 1.240165 0.483000 1.018719 1.240165 0.683000 1.018719 1.601451 0.483000 1.018719 1.601451 0.683000 1.023311 0.519064 0.483000 1.023311 0.519064 0.683000 1.023311 0.525556 0.483000 1.023311 0.525556 0.683000 1.030372 1.239445 0.483000 1.030372 1.239445 0.683000 1.030372 1.600731 0.483000 1.030372 1.600731 0.683000 1.030661 0.361285 0.483000 1.030661 0.361285 0.683000 1.030661 0.367778 0.483000 1.030661 0.367778 0.683000 1.031061 1.091681 0.483000 1.031061 1.091681 0.683000 1.031061 1.452966 0.483000 1.031061 1.452966 0.683000 1.041809 1.237286 0.483000 1.041809 1.237286 0.683000 1.041809 1.598571 0.483000 1.041809 1.598571 0.683000 1.043831 1.094208 0.483000 1.043831 1.094208 0.683000 1.043831 1.455493 0.483000 1.043831 1.455493 0.683000 1.044135 0.515878 0.483000 1.044135 0.515878 0.683000 1.044290 1.248403 0.483000 1.044290 1.248403 0.683000 1.044290 1.609689 0.483000 1.044290 1.609689 0.683000 1.047230 1.083337 0.483000 1.047230 1.083337 0.683000 1.047230 1.444622 0.483000 1.047230 1.444622 0.683000 1.052452 1.233811 0.483000 1.052452 1.233811 0.683000 1.052452 1.595096 0.483000 1.052452 1.595096 0.683000 1.054917 1.098143 0.483000 1.054917 1.098143 0.683000 1.054917 1.459429 0.483000 1.054917 1.459429 0.683000 1.058713 0.515878 0.483000 1.058713 0.515878 0.683000 1.061716 1.229141 0.483000 1.061716 1.229141 0.683000 1.061716 1.590426 0.483000 1.061716 1.590426 0.683000 1.063430 1.103211 0.483000 1.063430 1.103211 0.683000 1.063430 1.464497 0.483000 1.063430 1.464497 0.683000 1.065390 1.207825 0.483000 1.065390 1.207825 0.683000 1.065390 1.569110 0.483000 1.065390 1.569110 0.683000 1.067963 1.127711 0.483000 1.067963 1.127711 0.683000 1.067963 1.488997 0.483000 1.067963 1.488997 0.683000 1.072741 1.243717 0.483000 1.072741 1.243717 0.683000 1.072741 1.605002 0.483000 1.072741 1.605002 0.683000 1.073476 1.207825 0.483000 1.073476 1.207825 0.683000 1.073476 1.569110 0.483000 1.073476 1.569110 0.683000 1.075190 1.089124 0.483000 1.075190 1.089124 0.683000 1.075190 1.450410 0.483000 1.075190 1.450410 0.683000 1.075926 1.127711 0.483000 1.075926 1.127711 0.683000 1.075926 1.488997 0.483000 1.075926 1.488997 0.683000 1.076719 0.519064 0.483000 1.076719 0.519064 0.683000 1.076719 0.525556 0.483000 1.076719 0.525556 0.683000 1.083347 0.519064 0.483000 1.083347 0.519064 0.683000 1.083347 0.525556 0.483000 1.083347 0.525556 0.683000 1.097006 1.241636 0.483000 1.097006 1.241636 0.683000 1.097006 1.248128 0.483000 1.097006 1.248128 0.683000 1.097006 1.602921 0.483000 1.097006 1.602921 0.683000 1.097006 1.609414 0.483000 1.097006 1.609414 0.683000 1.097679 0.515878 0.483000 1.097679 0.515878 0.683000 1.098600 1.083857 0.483000 1.098600 1.083857 0.683000 1.098600 1.090349 0.483000 1.098600 1.090349 0.683000 1.098600 1.445142 0.483000 1.098600 1.445142 0.683000 1.098600 1.451635 0.483000 1.098600 1.451635 0.683000 1.103546 2.090430 0.483000 1.103546 2.090430 0.683000 1.103546 2.102116 0.483000 1.103546 2.102116 0.683000 1.106414 1.806428 0.483000 1.106414 1.806428 0.683000 1.106414 1.818114 0.483000 1.106414 1.818114 0.683000 1.118077 1.093657 0.483000 1.118077 1.093657 0.683000 1.118077 1.238449 0.483000 1.118077 1.238449 0.683000 1.118077 1.454942 0.483000 1.118077 1.454942 0.683000 1.118077 1.599735 0.483000 1.118077 1.599735 0.683000 1.121934 0.515878 0.483000 1.121934 0.515878 0.683000 1.141473 1.824068 0.483000 1.141473 1.824068 0.683000 1.141473 2.084694 0.483000 1.141473 2.084694 0.683000 1.141719 1.093657 0.483000 1.141719 1.093657 0.683000 1.141719 1.148290 0.483000 1.141719 1.148290 0.683000 1.141719 1.159317 0.483000 1.141719 1.159317 0.683000 1.141719 1.237101 0.483000 1.141719 1.237101 0.683000 1.141719 1.454942 0.483000 1.141719 1.454942 0.683000 1.141719 1.509576 0.483000 1.141719 1.509576 0.683000 1.141719 1.520602 0.483000 1.141719 1.520602 0.683000 1.141719 1.598387 0.483000 1.141719 1.598387 0.683000 1.146066 0.519064 0.483000 1.146066 0.519064 0.683000 1.146066 0.525556 0.483000 1.146066 0.525556 0.683000 1.152067 0.357488 0.483000 1.152067 0.357488 0.683000 1.153723 1.237101 0.483000 1.153723 1.237101 0.683000 1.153723 1.598387 0.483000 1.153723 1.598387 0.683000 1.154458 1.159317 0.483000 1.154458 1.159317 0.683000 1.154458 1.520602 0.483000 1.154458 1.520602 0.683000 1.158562 0.357488 0.483000 1.158562 0.357488 0.683000 1.158991 1.248128 0.483000 1.158991 1.248128 0.683000 1.158991 1.609414 0.483000 1.158991 1.609414 0.683000 1.160215 1.148290 0.483000 1.160215 1.148290 0.683000 1.160215 1.509576 0.483000 1.160215 1.509576 0.683000 1.161011 0.400118 0.483000 1.161011 0.400118 0.683000 1.167811 1.083857 0.483000 1.167811 1.083857 0.683000 1.167811 1.090349 0.483000 1.167811 1.090349 0.683000 1.167811 1.445142 0.483000 1.167811 1.445142 0.683000 1.167811 1.451635 0.483000 1.167811 1.451635 0.683000 1.168917 0.722571 0.483000 1.168917 0.722571 0.683000 1.168917 0.729063 0.483000 1.168917 0.729063 0.683000 1.168917 0.880350 0.483000 1.168917 0.880350 0.683000 1.168917 0.886842 0.483000 1.168917 0.886842 0.683000 1.172450 1.161675 0.483000 1.172450 1.161675 0.683000 1.172450 1.522960 0.483000 1.172450 1.522960 0.683000 1.172802 1.234927 0.483000 1.172802 1.234927 0.683000 1.172802 1.596213 0.483000 1.172802 1.596213 0.683000 1.184029 1.824068 0.483000 1.184029 1.824068 0.683000 1.184029 1.922408 0.483000 1.184029 1.922408 0.683000 1.184029 1.942256 0.483000 1.184029 1.942256 0.683000 1.184029 2.082269 0.483000 1.184029 2.082269 0.683000 1.185021 1.168748 0.483000 1.185021 1.168748 0.683000 1.185021 1.530034 0.483000 1.185021 1.530034 0.683000 1.185435 1.151567 0.483000 1.185435 1.151567 0.683000 1.185435 1.512853 0.483000 1.185435 1.512853 0.683000 1.185449 1.228403 0.483000 1.185449 1.228403 0.683000 1.185449 1.589689 0.483000 1.185449 1.589689 0.683000 1.189987 0.732371 0.483000 1.189987 0.732371 0.683000 1.189987 0.877163 0.483000 1.189987 0.877163 0.683000 1.192417 1.181151 0.483000 1.192417 1.181151 0.683000 1.192417 1.542437 0.483000 1.192417 1.542437 0.683000 1.192524 1.216828 0.483000 1.192524 1.216828 0.683000 1.192524 1.578114 0.483000 1.192524 1.578114 0.683000 1.194882 1.199495 0.483000 1.194882 1.199495 0.683000 1.194882 1.560781 0.483000 1.194882 1.560781 0.683000 1.202293 0.470677 0.483000 1.202293 0.470677 0.683000 1.204008 1.161398 0.483000 1.204008 1.161398 0.683000 1.204008 1.522683 0.483000 1.204008 1.522683 0.683000 1.204193 1.236031 0.483000 1.204193 1.236031 0.683000 1.204193 1.597317 0.483000 1.204193 1.597317 0.683000 1.205232 0.514040 0.483000 1.205232 0.514040 0.683000 1.205636 2.082269 0.483000 1.205636 2.082269 0.683000 1.206959 1.942256 0.483000 1.206959 1.942256 0.683000 1.210746 0.514040 0.483000 1.210746 0.514040 0.683000 1.213507 0.732371 0.483000 1.213507 0.732371 0.683000 1.213507 0.877163 0.483000 1.213507 0.877163 0.683000 1.215117 2.102116 0.483000 1.215117 2.102116 0.683000 1.215447 1.177537 0.483000 1.215447 1.177537 0.683000 1.215447 1.538823 0.483000 1.215447 1.538823 0.683000 1.217322 1.922408 0.483000 1.217322 1.922408 0.683000 1.219260 1.199741 0.483000 1.219260 1.199741 0.683000 1.219260 1.561027 0.483000 1.219260 1.561027 0.683000 1.230995 1.806428 0.483000 1.230995 1.806428 0.683000 1.230995 1.818114 0.483000 1.230995 1.818114 0.683000 1.234577 0.722571 0.483000 1.234577 0.722571 0.683000 1.234577 0.729063 0.483000 1.234577 0.729063 0.683000 1.234577 0.880350 0.483000 1.234577 0.880350 0.683000 1.234577 0.886842 0.483000 1.234577 0.886842 0.683000 1.236540 1.083857 0.483000 1.236540 1.083857 0.683000 1.236540 1.090349 0.483000 1.236540 1.090349 0.683000 1.236540 1.241636 0.483000 1.236540 1.241636 0.683000 1.236540 1.248128 0.483000 1.236540 1.248128 0.683000 1.236540 1.445142 0.483000 1.236540 1.445142 0.683000 1.236540 1.451635 0.483000 1.236540 1.451635 0.683000 1.236540 1.602921 0.483000 1.236540 1.602921 0.683000 1.236540 1.609414 0.483000 1.236540 1.609414 0.683000 1.239344 1.946500 0.483000 1.239344 1.946500 0.683000 1.239978 2.078355 0.483000 1.239978 2.078355 0.683000 1.244921 0.357488 0.483000 1.244921 0.357488 0.683000 1.251414 0.357488 0.483000 1.251414 0.357488 0.683000 1.252466 0.722571 0.483000 1.252466 0.722571 0.683000 1.252466 0.729063 0.483000 1.252466 0.729063 0.683000 1.252466 0.880350 0.483000 1.252466 0.880350 0.683000 1.252466 0.886842 0.483000 1.252466 0.886842 0.683000 1.253374 0.400118 0.483000 1.253374 0.400118 0.683000 1.257611 1.093657 0.483000 1.257611 1.093657 0.683000 1.257611 1.238449 0.483000 1.257611 1.238449 0.683000 1.257611 1.454942 0.483000 1.257611 1.454942 0.683000 1.257611 1.599735 0.483000 1.257611 1.599735 0.683000 1.261973 1.959232 0.483000 1.261973 1.959232 0.683000 1.262718 1.928307 0.483000 1.262718 1.928307 0.683000 1.262743 2.066612 0.483000 1.262743 2.066612 0.683000 1.265013 0.519064 0.483000 1.265013 0.519064 0.683000 1.265013 0.525556 0.483000 1.265013 0.525556 0.683000 1.270472 1.093657 0.483000 1.270472 1.093657 0.683000 1.270472 1.231590 0.483000 1.270472 1.231590 0.683000 1.270472 1.454942 0.483000 1.270472 1.454942 0.683000 1.270472 1.592876 0.483000 1.270472 1.592876 0.683000 1.273536 0.732371 0.483000 1.273536 0.732371 0.683000 1.273536 0.877163 0.483000 1.273536 0.877163 0.683000 1.275285 1.981559 0.483000 1.275285 1.981559 0.683000 1.275478 2.045777 0.483000 1.275478 2.045777 0.683000 1.279723 2.014577 0.483000 1.279723 2.014577 0.683000 1.286275 1.248128 0.483000 1.286275 1.248128 0.683000 1.286275 1.609414 0.483000 1.286275 1.609414 0.683000 1.290613 0.515878 0.483000 1.290613 0.515878 0.683000 1.292522 1.083857 0.483000 1.292522 1.083857 0.683000 1.292522 1.090349 0.483000 1.292522 1.090349 0.683000 1.292522 1.445142 0.483000 1.292522 1.445142 0.683000 1.292522 1.451635 0.483000 1.292522 1.451635 0.683000 1.296150 1.946002 0.483000 1.296150 1.946002 0.683000 1.296482 2.080342 0.483000 1.296482 2.080342 0.683000 1.297056 0.732371 0.483000 1.297056 0.732371 0.683000 1.297056 0.877163 0.483000 1.297056 0.877163 0.683000 1.305068 0.515878 0.483000 1.305068 0.515878 0.683000 1.316740 1.975053 0.483000 1.316740 1.975053 0.683000 1.318126 0.722571 0.483000 1.318126 0.722571 0.683000 1.318126 0.729063 0.483000 1.318126 0.729063 0.683000 1.318126 0.880350 0.483000 1.318126 0.880350 0.683000 1.318126 0.886842 0.483000 1.318126 0.886842 0.683000 1.319400 0.519064 0.483000 1.319400 0.519064 0.683000 1.319400 0.525556 0.483000 1.319400 0.525556 0.683000 1.320152 0.519064 0.483000 1.320152 0.519064 0.683000 1.320152 0.525556 0.483000 1.320152 0.525556 0.683000 1.323603 2.015020 0.483000 1.323603 2.015020 0.683000 1.334484 0.515878 0.483000 1.334484 0.515878 0.683000 1.336015 0.722571 0.483000 1.336015 0.722571 0.683000 1.336015 0.729063 0.483000 1.336015 0.729063 0.683000 1.336015 0.880350 0.483000 1.336015 0.880350 0.683000 1.336015 0.886842 0.483000 1.336015 0.886842 0.683000 1.348749 1.241636 0.483000 1.348749 1.241636 0.683000 1.348749 1.248128 0.483000 1.348749 1.248128 0.683000 1.348749 1.602921 0.483000 1.348749 1.602921 0.683000 1.348749 1.609414 0.483000 1.348749 1.609414 0.683000 1.357085 0.732371 0.483000 1.357085 0.732371 0.683000 1.357085 0.877163 0.483000 1.357085 0.877163 0.683000 1.358014 1.806428 0.483000 1.358014 1.806428 0.683000 1.358014 1.818114 0.483000 1.358014 1.818114 0.683000 1.358014 2.090430 0.483000 1.358014 2.090430 0.683000 1.358014 2.102116 0.483000 1.358014 2.102116 0.683000 1.358739 0.515878 0.483000 1.358739 0.515878 0.683000 1.370798 1.126487 0.483000 1.370798 1.126487 0.683000 1.370798 1.238449 0.483000 1.370798 1.238449 0.683000 1.370798 1.487772 0.483000 1.370798 1.487772 0.683000 1.370798 1.599735 0.483000 1.370798 1.599735 0.683000 1.371779 1.083857 0.483000 1.371779 1.083857 0.683000 1.371779 1.445142 0.483000 1.371779 1.445142 0.683000 1.380605 0.732371 0.483000 1.380605 0.732371 0.683000 1.380605 0.877163 0.483000 1.380605 0.877163 0.683000 1.382871 0.519064 0.483000 1.382871 0.519064 0.683000 1.382871 0.525556 0.483000 1.382871 0.525556 0.683000 1.383661 1.083857 0.483000 1.383661 1.083857 0.683000 1.383661 1.238449 0.483000 1.383661 1.238449 0.683000 1.383661 1.445142 0.483000 1.383661 1.445142 0.683000 1.383661 1.599735 0.483000 1.383661 1.599735 0.683000 1.388872 0.357488 0.483000 1.388872 0.357488 0.683000 1.395366 0.357488 0.483000 1.395366 0.357488 0.683000 1.395941 1.824068 0.483000 1.395941 1.824068 0.683000 1.395941 2.084694 0.483000 1.395941 2.084694 0.683000 1.397816 0.400118 0.483000 1.397816 0.400118 0.683000 1.401675 0.722571 0.483000 1.401675 0.722571 0.683000 1.401675 0.729063 0.483000 1.401675 0.729063 0.683000 1.401675 0.880350 0.483000 1.401675 0.880350 0.683000 1.401675 0.886842 0.483000 1.401675 0.886842 0.683000 1.404732 1.241636 0.483000 1.404732 1.241636 0.683000 1.404732 1.248128 0.483000 1.404732 1.248128 0.683000 1.404732 1.602921 0.483000 1.404732 1.602921 0.683000 1.404732 1.609414 0.483000 1.404732 1.609414 0.683000 1.419564 0.722571 0.483000 1.419564 0.722571 0.683000 1.419564 0.729063 0.483000 1.419564 0.729063 0.683000 1.419564 0.880350 0.483000 1.419564 0.880350 0.683000 1.419564 0.886842 0.483000 1.419564 0.886842 0.683000 1.420789 1.164093 0.483000 1.420789 1.164093 0.683000 1.420789 1.525379 0.483000 1.420789 1.525379 0.683000 1.426148 1.201317 0.483000 1.426148 1.201317 0.683000 1.426148 1.562603 0.483000 1.426148 1.562603 0.683000 1.426363 1.129257 0.483000 1.426363 1.129257 0.683000 1.426363 1.490543 0.483000 1.426363 1.490543 0.683000 1.438276 1.824068 0.483000 1.438276 1.824068 0.683000 1.438276 2.084694 0.483000 1.438276 2.084694 0.683000 1.439098 0.470677 0.483000 1.439098 0.470677 0.683000 1.440634 0.732371 0.483000 1.440634 0.732371 0.683000 1.440634 0.877163 0.483000 1.440634 0.877163 0.683000 1.442037 0.514040 0.483000 1.442037 0.514040 0.683000 1.442226 1.228221 0.483000 1.442226 1.228221 0.683000 1.442226 1.589507 0.483000 1.442226 1.589507 0.683000 1.443084 1.103149 0.483000 1.443084 1.103149 0.683000 1.443084 1.464435 0.483000 1.443084 1.464435 0.683000 1.446392 1.164339 0.483000 1.446392 1.164339 0.683000 1.446392 1.525624 0.483000 1.446392 1.525624 0.683000 1.447550 0.514040 0.483000 1.447550 0.514040 0.683000 1.450005 1.198086 0.483000 1.450005 1.198086 0.683000 1.450005 1.559372 0.483000 1.450005 1.559372 0.683000 1.450174 1.132795 0.483000 1.450174 1.132795 0.683000 1.450174 1.494081 0.483000 1.450174 1.494081 0.683000 1.460847 1.221667 0.483000 1.460847 1.221667 0.683000 1.460847 1.582953 0.483000 1.460847 1.582953 0.683000 1.461520 1.109703 0.483000 1.461520 1.109703 0.683000 1.461520 1.470989 0.483000 1.461520 1.470989 0.683000 1.464154 0.732371 0.483000 1.464154 0.732371 0.683000 1.464154 0.877163 0.483000 1.464154 0.877163 0.683000 1.468840 1.244529 0.483000 1.468840 1.244529 0.683000 1.468840 1.605815 0.483000 1.468840 1.605815 0.683000 1.469789 1.086843 0.483000 1.469789 1.086843 0.683000 1.469789 1.448129 0.483000 1.469789 1.448129 0.683000 1.476202 1.806428 0.483000 1.476202 1.806428 0.683000 1.476202 1.818114 0.483000 1.476202 1.818114 0.683000 1.476202 2.090430 0.483000 1.476202 2.090430 0.683000 1.476202 2.102116 0.483000 1.476202 2.102116 0.683000 1.479558 1.235541 0.483000 1.479558 1.235541 0.683000 1.479558 1.596826 0.483000 1.479558 1.596826 0.683000 1.480094 1.095555 0.483000 1.480094 1.095555 0.683000 1.480094 1.456840 0.483000 1.480094 1.456840 0.683000 1.481726 0.357488 0.483000 1.481726 0.357488 0.683000 1.485224 0.722571 0.483000 1.485224 0.722571 0.683000 1.485224 0.729063 0.483000 1.485224 0.729063 0.683000 1.485224 0.880350 0.483000 1.485224 0.880350 0.683000 1.485224 0.886842 0.483000 1.485224 0.886842 0.683000 1.488218 0.357488 0.483000 1.488218 0.357488 0.683000 1.490178 0.400118 0.483000 1.490178 0.400118 0.683000 1.501817 0.519064 0.483000 1.501817 0.519064 0.683000 1.501817 0.525556 0.483000 1.501817 0.525556 0.683000 1.503113 0.722571 0.483000 1.503113 0.722571 0.683000 1.503113 0.729063 0.483000 1.503113 0.729063 0.683000 1.503113 0.880350 0.483000 1.503113 0.880350 0.683000 1.503113 0.886842 0.483000 1.503113 0.886842 0.683000 1.505314 1.081407 0.483000 1.505314 1.081407 0.683000 1.505314 1.442693 0.483000 1.505314 1.442693 0.683000 1.505559 1.090839 0.483000 1.505559 1.090839 0.683000 1.505559 1.452124 0.483000 1.505559 1.452124 0.683000 1.505803 1.249965 0.483000 1.505803 1.249965 0.683000 1.505803 1.611251 0.483000 1.505803 1.611251 0.683000 1.506784 1.240165 0.483000 1.506784 1.240165 0.683000 1.506784 1.601451 0.483000 1.506784 1.601451 0.683000 1.510607 1.950853 0.483000 1.510607 1.950853 0.683000 1.518436 1.239445 0.483000 1.518436 1.239445 0.683000 1.518436 1.600731 0.483000 1.518436 1.600731 0.683000 1.519125 1.091681 0.483000 1.519125 1.091681 0.683000 1.519125 1.452966 0.483000 1.519125 1.452966 0.683000 1.520254 2.017857 0.483000 1.520254 2.017857 0.683000 1.520640 1.888149 0.483000 1.520640 1.888149 0.683000 1.524184 0.732371 0.483000 1.524184 0.732371 0.683000 1.524184 0.877163 0.483000 1.524184 0.877163 0.683000 1.527418 0.515878 0.483000 1.527418 0.515878 0.683000 1.529874 1.237286 0.483000 1.529874 1.237286 0.683000 1.529874 1.598571 0.483000 1.529874 1.598571 0.683000 1.531895 1.094208 0.483000 1.531895 1.094208 0.683000 1.531895 1.455493 0.483000 1.531895 1.455493 0.683000 1.532355 1.248403 0.483000 1.532355 1.248403 0.683000 1.532355 1.609689 0.483000 1.532355 1.609689 0.683000 1.535294 1.083337 0.483000 1.535294 1.083337 0.683000 1.535294 1.444622 0.483000 1.535294 1.444622 0.683000 1.540516 1.233811 0.483000 1.540516 1.233811 0.683000 1.540516 1.595096 0.483000 1.540516 1.595096 0.683000 1.541873 0.515878 0.483000 1.541873 0.515878 0.683000 1.542981 1.098143 0.483000 1.542981 1.098143 0.683000 1.542981 1.459429 0.483000 1.542981 1.459429 0.683000 1.547703 0.732371 0.483000 1.547703 0.732371 0.683000 1.547703 0.877163 0.483000 1.547703 0.877163 0.683000 1.549194 2.066284 0.483000 1.549194 2.066284 0.683000 1.549781 1.229141 0.483000 1.549781 1.229141 0.683000 1.549781 1.590426 0.483000 1.549781 1.590426 0.683000 1.550738 1.841155 0.483000 1.550738 1.841155 0.683000 1.551495 1.103211 0.483000 1.551495 1.103211 0.683000 1.551495 1.464497 0.483000 1.551495 1.464497 0.683000 1.553455 1.207825 0.483000 1.553455 1.207825 0.683000 1.553455 1.569110 0.483000 1.553455 1.569110 0.683000 1.556027 1.127711 0.483000 1.556027 1.127711 0.683000 1.556027 1.488997 0.483000 1.556027 1.488997 0.683000 1.556205 0.519064 0.483000 1.556205 0.519064 0.683000 1.556205 0.525556 0.483000 1.556205 0.525556 0.683000 1.556692 1.951295 0.483000 1.556692 1.951295 0.683000 1.560805 1.243717 0.483000 1.560805 1.243717 0.683000 1.560805 1.605002 0.483000 1.560805 1.605002 0.683000 1.561541 1.207825 0.483000 1.561541 1.207825 0.683000 1.561541 1.569110 0.483000 1.561541 1.569110 0.683000 1.563197 2.012041 0.483000 1.563197 2.012041 0.683000 1.563255 1.089124 0.483000 1.563255 1.089124 0.683000 1.563255 1.450410 0.483000 1.563255 1.450410 0.683000 1.563500 1.894517 0.483000 1.563500 1.894517 0.683000 1.563939 0.361285 0.483000 1.563939 0.361285 0.683000 1.563939 0.367778 0.483000 1.563939 0.367778 0.683000 1.563939 0.519064 0.483000 1.563939 0.519064 0.683000 1.563939 0.525556 0.483000 1.563939 0.525556 0.683000 1.563990 1.127711 0.483000 1.563990 1.127711 0.683000 1.563990 1.488997 0.483000 1.563990 1.488997 0.683000 1.568773 0.722571 0.483000 1.568773 0.722571 0.683000 1.568773 0.729063 0.483000 1.568773 0.729063 0.683000 1.568773 0.880350 0.483000 1.568773 0.880350 0.683000 1.568773 0.886842 0.483000 1.568773 0.886842 0.683000 1.582711 2.054487 0.483000 1.582711 2.054487 0.683000 1.583924 1.852952 0.483000 1.583924 1.852952 0.683000 1.585009 0.371085 0.483000 1.585009 0.371085 0.683000 1.585009 0.515878 0.483000 1.585009 0.515878 0.683000 1.585071 1.241636 0.483000 1.585071 1.241636 0.683000 1.585071 1.248128 0.483000 1.585071 1.248128 0.683000 1.585071 1.602921 0.483000 1.585071 1.602921 0.683000 1.585071 1.609414 0.483000 1.585071 1.609414 0.683000 1.586662 0.722571 0.483000 1.586662 0.722571 0.683000 1.586662 0.729063 0.483000 1.586662 0.729063 0.683000 1.586662 0.880350 0.483000 1.586662 0.880350 0.683000 1.586662 0.886842 0.483000 1.586662 0.886842 0.683000 1.586664 1.083857 0.483000 1.586664 1.083857 0.683000 1.586664 1.090349 0.483000 1.586664 1.090349 0.683000 1.586664 1.445142 0.483000 1.586664 1.445142 0.683000 1.586664 1.451635 0.483000 1.586664 1.451635 0.683000 1.597098 2.095638 0.483000 1.597098 2.095638 0.683000 1.597871 0.371085 0.483000 1.597871 0.371085 0.683000 1.597871 0.509019 0.483000 1.597871 0.509019 0.683000 1.598807 1.811803 0.483000 1.598807 1.811803 0.683000 1.606141 1.093657 0.483000 1.606141 1.093657 0.683000 1.606141 1.238449 0.483000 1.606141 1.238449 0.683000 1.606141 1.454942 0.483000 1.606141 1.454942 0.683000 1.606141 1.599735 0.483000 1.606141 1.599735 0.683000 1.607733 0.732371 0.483000 1.607733 0.732371 0.683000 1.607733 0.877163 0.483000 1.607733 0.877163 0.683000 1.613673 0.525556 0.483000 1.613673 0.525556 0.683000 1.616392 2.079459 0.483000 1.616392 2.079459 0.683000 1.617357 1.827485 0.483000 1.617357 1.827485 0.683000 1.619920 0.361285 0.483000 1.619920 0.361285 0.683000 1.619920 0.367778 0.483000 1.619920 0.367778 0.683000 1.629784 1.093657 0.483000 1.629784 1.093657 0.683000 1.629784 1.148290 0.483000 1.629784 1.148290 0.683000 1.629784 1.159317 0.483000 1.629784 1.159317 0.683000 1.629784 1.237101 0.483000 1.629784 1.237101 0.683000 1.629784 1.454942 0.483000 1.629784 1.454942 0.683000 1.629784 1.509576 0.483000 1.629784 1.509576 0.683000 1.629784 1.520602 0.483000 1.629784 1.520602 0.683000 1.629784 1.598387 0.483000 1.629784 1.598387 0.683000 1.631252 0.732371 0.483000 1.631252 0.732371 0.683000 1.631252 0.877163 0.483000 1.631252 0.877163 0.683000 1.641787 1.237101 0.483000 1.641787 1.237101 0.683000 1.641787 1.598387 0.483000 1.641787 1.598387 0.683000 1.642523 1.159317 0.483000 1.642523 1.159317 0.683000 1.642523 1.520602 0.483000 1.642523 1.520602 0.683000 1.647055 1.248128 0.483000 1.647055 1.248128 0.683000 1.647055 1.609414 0.483000 1.647055 1.609414 0.683000 1.648280 1.148290 0.483000 1.648280 1.148290 0.683000 1.648280 1.509576 0.483000 1.648280 1.509576 0.683000 1.652323 0.722571 0.483000 1.652323 0.722571 0.683000 1.652323 0.729063 0.483000 1.652323 0.729063 0.683000 1.652323 0.880350 0.483000 1.652323 0.880350 0.683000 1.652323 0.886842 0.483000 1.652323 0.886842 0.683000 1.655876 1.083857 0.483000 1.655876 1.083857 0.683000 1.655876 1.090349 0.483000 1.655876 1.090349 0.683000 1.655876 1.445142 0.483000 1.655876 1.445142 0.683000 1.655876 1.451635 0.483000 1.655876 1.451635 0.683000 1.660514 1.161675 0.483000 1.660514 1.161675 0.683000 1.660514 1.522960 0.483000 1.660514 1.522960 0.683000 1.660867 1.234927 0.483000 1.660867 1.234927 0.683000 1.660867 1.596213 0.483000 1.660867 1.596213 0.683000 1.662752 1.802019 0.483000 1.662752 1.802019 0.683000 1.663194 1.818996 0.483000 1.663194 1.818996 0.683000 1.663633 2.105423 0.483000 1.663633 2.105423 0.683000 1.665398 2.087783 0.483000 1.665398 2.087783 0.683000 1.673086 1.168748 0.483000 1.673086 1.168748 0.683000 1.673086 1.530034 0.483000 1.673086 1.530034 0.683000 1.673500 1.151567 0.483000 1.673500 1.151567 0.683000 1.673500 1.512853 0.483000 1.673500 1.512853 0.683000 1.673514 1.228403 0.483000 1.673514 1.228403 0.683000 1.673514 1.589689 0.483000 1.673514 1.589689 0.683000 1.676147 0.519064 0.483000 1.676147 0.519064 0.683000 1.676147 0.525556 0.483000 1.676147 0.525556 0.683000 1.680482 1.181151 0.483000 1.680482 1.181151 0.683000 1.680482 1.542437 0.483000 1.680482 1.542437 0.683000 1.680589 1.216828 0.483000 1.680589 1.216828 0.683000 1.680589 1.578114 0.483000 1.680589 1.578114 0.683000 1.682947 1.199495 0.483000 1.682947 1.199495 0.683000 1.682947 1.560781 0.483000 1.682947 1.560781 0.683000 1.686373 2.086488 0.483000 1.686373 2.086488 0.683000 1.687612 1.820511 0.483000 1.687612 1.820511 0.683000 1.692073 1.161398 0.483000 1.692073 1.161398 0.683000 1.692073 1.522683 0.483000 1.692073 1.522683 0.683000 1.692257 1.236031 0.483000 1.692257 1.236031 0.683000 1.692257 1.597317 0.483000 1.692257 1.597317 0.683000 1.698196 0.403915 0.483000 1.698196 0.403915 0.683000 1.698196 0.515878 0.483000 1.698196 0.515878 0.683000 1.699177 0.361285 0.483000 1.699177 0.361285 0.683000 1.703512 1.177537 0.483000 1.703512 1.177537 0.683000 1.703512 1.538823 0.483000 1.703512 1.538823 0.683000 1.706960 2.082600 0.483000 1.706960 2.082600 0.683000 1.707325 1.199741 0.483000 1.707325 1.199741 0.683000 1.707325 1.561027 0.483000 1.707325 1.561027 0.683000 1.710599 1.825060 0.483000 1.710599 1.825060 0.683000 1.711059 0.361285 0.483000 1.711059 0.361285 0.683000 1.711059 0.515878 0.483000 1.711059 0.515878 0.683000 1.711426 2.102611 0.483000 1.711426 2.102611 0.683000 1.716717 1.805492 0.483000 1.716717 1.805492 0.683000 1.724605 1.083857 0.483000 1.724605 1.083857 0.683000 1.724605 1.090349 0.483000 1.724605 1.090349 0.683000 1.724605 1.241636 0.483000 1.724605 1.241636 0.683000 1.724605 1.248128 0.483000 1.724605 1.248128 0.683000 1.724605 1.445142 0.483000 1.724605 1.445142 0.683000 1.724605 1.451635 0.483000 1.724605 1.451635 0.683000 1.724605 1.602921 0.483000 1.724605 1.602921 0.683000 1.724605 1.609414 0.483000 1.724605 1.609414 0.683000 1.726117 2.076345 0.483000 1.726117 2.076345 0.683000 1.730553 1.832143 0.483000 1.730553 1.832143 0.683000 1.732130 0.519064 0.483000 1.732130 0.519064 0.683000 1.732130 0.525556 0.483000 1.732130 0.525556 0.683000 1.742792 2.067939 0.483000 1.742792 2.067939 0.683000 1.745125 0.361285 0.483000 1.745125 0.361285 0.683000 1.745125 0.367778 0.483000 1.745125 0.367778 0.683000 1.745125 0.519064 0.483000 1.745125 0.519064 0.683000 1.745125 0.525556 0.483000 1.745125 0.525556 0.683000 1.745675 1.093657 0.483000 1.745675 1.093657 0.683000 1.745675 1.238449 0.483000 1.745675 1.238449 0.683000 1.745675 1.454942 0.483000 1.745675 1.454942 0.683000 1.745675 1.599735 0.483000 1.745675 1.599735 0.683000 1.745878 1.841265 0.483000 1.745878 1.841265 0.683000 1.749406 2.029570 0.483000 1.749406 2.029570 0.683000 1.754036 1.885366 0.483000 1.754036 1.885366 0.683000 1.758537 1.093657 0.483000 1.758537 1.093657 0.683000 1.758537 1.231590 0.483000 1.758537 1.231590 0.683000 1.758537 1.454942 0.483000 1.758537 1.454942 0.683000 1.758537 1.592876 0.483000 1.758537 1.592876 0.683000 1.762637 2.094176 0.483000 1.762637 2.094176 0.683000 1.763960 2.029570 0.483000 1.763960 2.029570 0.683000 1.766195 0.371085 0.483000 1.766195 0.371085 0.683000 1.766195 0.515878 0.483000 1.766195 0.515878 0.683000 1.767046 1.815910 0.483000 1.767046 1.815910 0.683000 1.768369 1.885366 0.483000 1.768369 1.885366 0.683000 1.774340 1.248128 0.483000 1.774340 1.248128 0.683000 1.774340 1.609414 0.483000 1.774340 1.609414 0.683000 1.779057 0.371085 0.483000 1.779057 0.371085 0.683000 1.779057 0.509019 0.483000 1.779057 0.509019 0.683000 1.780586 1.083857 0.483000 1.780586 1.083857 0.683000 1.780586 1.090349 0.483000 1.780586 1.090349 0.683000 1.780586 1.445142 0.483000 1.780586 1.445142 0.683000 1.780586 1.451635 0.483000 1.780586 1.451635 0.683000 1.794860 0.525556 0.483000 1.794860 0.525556 0.683000 1.801106 0.361285 0.483000 1.801106 0.361285 0.683000 1.801106 0.367778 0.483000 1.801106 0.367778 0.683000 1.814915 1.873680 0.483000 1.814915 1.873680 0.683000 1.817341 1.811501 0.483000 1.817341 1.811501 0.683000 1.823955 2.039052 0.483000 1.823955 2.039052 0.683000 1.823955 2.095942 0.483000 1.823955 2.095942 0.683000 1.829466 1.873680 0.483000 1.829466 1.873680 0.683000 1.836813 1.241636 0.483000 1.836813 1.241636 0.683000 1.836813 1.248128 0.483000 1.836813 1.248128 0.683000 1.836813 1.602921 0.483000 1.836813 1.602921 0.683000 1.836813 1.609414 0.483000 1.836813 1.609414 0.683000 1.838509 2.039052 0.483000 1.838509 2.039052 0.683000 1.839390 1.832226 0.483000 1.839390 1.832226 0.683000 1.844294 2.100709 0.483000 1.844294 2.100709 0.683000 1.846225 2.075213 0.483000 1.846225 2.075213 0.683000 1.849781 1.827706 0.483000 1.849781 1.827706 0.683000 1.855928 1.804389 0.483000 1.855928 1.804389 0.683000 1.856699 2.079982 0.483000 1.856699 2.079982 0.683000 1.857333 0.519064 0.483000 1.857333 0.519064 0.683000 1.857333 0.525556 0.483000 1.857333 0.525556 0.683000 1.858862 1.126487 0.483000 1.858862 1.126487 0.683000 1.858862 1.238449 0.483000 1.858862 1.238449 0.683000 1.858862 1.487772 0.483000 1.858862 1.487772 0.683000 1.858862 1.599735 0.483000 1.858862 1.599735 0.683000 1.859843 1.083857 0.483000 1.859843 1.083857 0.683000 1.859843 1.445142 0.483000 1.859843 1.445142 0.683000 1.861657 2.103547 0.483000 1.861657 2.103547 0.683000 1.863754 1.823847 0.483000 1.863754 1.823847 0.683000 1.866950 1.951734 0.483000 1.866950 1.951734 0.683000 1.866950 1.969816 0.483000 1.866950 1.969816 0.683000 1.868716 2.083703 0.483000 1.868716 2.083703 0.683000 1.871726 1.083857 0.483000 1.871726 1.083857 0.683000 1.871726 1.238449 0.483000 1.871726 1.238449 0.683000 1.871726 1.445142 0.483000 1.871726 1.445142 0.683000 1.871726 1.599735 0.483000 1.871726 1.599735 0.683000 1.877479 2.104954 0.483000 1.877479 2.104954 0.683000 1.878997 1.821201 0.483000 1.878997 1.821201 0.683000 1.879383 0.403915 0.483000 1.879383 0.403915 0.683000 1.879383 0.515878 0.483000 1.879383 0.515878 0.683000 1.880363 0.361285 0.483000 1.880363 0.361285 0.683000 1.881229 2.086102 0.483000 1.881229 2.086102 0.683000 1.892246 0.361285 0.483000 1.892246 0.361285 0.683000 1.892246 0.515878 0.483000 1.892246 0.515878 0.683000 1.892796 1.241636 0.483000 1.892796 1.241636 0.683000 1.892796 1.248128 0.483000 1.892796 1.248128 0.683000 1.892796 1.602921 0.483000 1.892796 1.602921 0.683000 1.892796 1.609414 0.483000 1.892796 1.609414 0.683000 1.893190 1.820319 0.483000 1.893190 1.820319 0.683000 1.893190 2.086902 0.483000 1.893190 2.086902 0.683000 1.893190 2.105423 0.483000 1.893190 2.105423 0.683000 1.896718 1.802019 0.483000 1.896718 1.802019 0.683000 1.898484 1.949972 0.483000 1.898484 1.949972 0.683000 1.898484 1.971800 0.483000 1.898484 1.971800 0.683000 1.913316 0.519064 0.483000 1.913316 0.519064 0.683000 1.913316 0.525556 0.483000 1.913316 0.525556 0.683000 1.917583 2.083512 0.483000 1.917583 2.083512 0.683000 1.920146 1.976320 0.483000 1.920146 1.976320 0.683000 1.923289 1.824287 0.483000 1.923289 1.824287 0.683000 1.923398 1.961216 0.483000 1.923398 1.961216 0.683000 1.926265 1.945038 0.483000 1.926265 1.945038 0.683000 1.926312 0.361285 0.483000 1.926312 0.361285 0.683000 1.926312 0.367778 0.483000 1.926312 0.367778 0.683000 1.926312 0.519064 0.483000 1.926312 0.519064 0.683000 1.926312 0.525556 0.483000 1.926312 0.525556 0.683000 1.934313 2.073340 0.483000 1.934313 2.073340 0.683000 1.935305 1.987235 0.483000 1.935305 1.987235 0.683000 1.941094 1.807642 0.483000 1.941094 1.807642 0.683000 1.943987 2.055728 0.483000 1.943987 2.055728 0.683000 1.944235 2.004985 0.483000 1.944235 2.004985 0.683000 1.944347 1.836193 0.483000 1.944347 1.836193 0.683000 1.945668 1.933324 0.483000 1.945668 1.933324 0.683000 1.947212 2.030013 0.483000 1.947212 2.030013 0.683000 1.947382 0.371085 0.483000 1.947382 0.371085 0.683000 1.947382 0.515878 0.483000 1.947382 0.515878 0.683000 1.950767 1.969073 0.483000 1.950767 1.969073 0.683000 1.956751 1.857362 0.483000 1.956751 1.857362 0.683000 1.957081 1.914720 0.483000 1.957081 1.914720 0.683000 1.958236 1.953141 0.483000 1.958236 1.953141 0.683000 1.960244 0.371085 0.483000 1.960244 0.371085 0.683000 1.960244 0.509019 0.483000 1.960244 0.509019 0.683000 1.960885 1.889116 0.483000 1.960885 1.889116 0.683000 1.964300 2.087232 0.483000 1.964300 2.087232 0.683000 1.971134 1.983818 0.483000 1.971134 1.983818 0.683000 1.974112 1.824510 0.483000 1.974112 1.824510 0.683000 1.976046 0.525556 0.483000 1.976046 0.525556 0.683000 1.982293 0.361285 0.483000 1.982293 0.361285 0.683000 1.982293 0.367778 0.483000 1.982293 0.367778 0.683000 1.982492 1.938175 0.483000 1.982492 1.938175 0.683000 1.983786 2.005124 0.483000 1.983786 2.005124 0.683000 1.988003 2.032660 0.483000 1.988003 2.032660 0.683000 1.994619 1.851356 0.483000 1.994619 1.851356 0.683000 1.996714 1.916154 0.483000 1.996714 1.916154 0.683000 2.001455 1.886911 0.483000 2.001455 1.886911 0.683000 2.038520 0.519064 0.483000 2.038520 0.519064 0.683000 2.038520 0.525556 0.483000 2.038520 0.525556 0.683000 2.038955 1.806428 0.483000 2.038955 1.806428 0.683000 2.038955 1.838840 0.483000 2.038955 1.838840 0.683000 2.048879 2.039052 0.483000 2.048879 2.039052 0.683000 2.048879 2.095942 0.483000 2.048879 2.095942 0.683000 2.060569 0.403915 0.483000 2.060569 0.403915 0.683000 2.060569 0.515878 0.483000 2.060569 0.515878 0.683000 2.061550 0.361285 0.483000 2.061550 0.361285 0.683000 2.063430 2.039052 0.483000 2.063430 2.039052 0.683000 2.067842 1.840384 0.483000 2.067842 1.840384 0.683000 2.071149 2.075213 0.483000 2.071149 2.075213 0.683000 2.073433 0.361285 0.483000 2.073433 0.361285 0.683000 2.073433 0.515878 0.483000 2.073433 0.515878 0.683000 2.079967 1.876106 0.483000 2.079967 1.876106 0.683000 2.081347 2.079982 0.483000 2.081347 2.079982 0.683000 2.085978 2.103053 0.483000 2.085978 2.103053 0.683000 2.089285 1.859623 0.483000 2.089285 1.859623 0.683000 2.092977 2.083703 0.483000 2.092977 2.083703 0.683000 2.094503 0.519064 0.483000 2.094503 0.519064 0.683000 2.094503 0.525556 0.483000 2.094503 0.525556 0.683000 2.105161 2.086102 0.483000 2.105161 2.086102 0.683000 2.109514 1.877208 0.483000 2.109514 1.877208 0.683000 2.114201 1.907415 0.483000 2.114201 1.907415 0.683000 2.117012 2.086902 0.483000 2.117012 2.086902 0.683000 2.117012 2.105423 0.483000 2.117012 2.105423 0.683000 2.137959 1.932111 0.483000 2.137959 1.932111 0.683000 2.142425 2.083153 0.483000 2.142425 2.083153 0.683000 2.148873 1.911909 0.483000 2.148873 1.911909 0.683000 2.153862 1.953830 0.483000 2.153862 1.953830 0.683000 2.159486 2.100379 0.483000 2.159486 2.100379 0.683000 2.159569 2.071906 0.483000 2.159569 2.071906 0.683000 2.164528 1.976209 0.483000 2.164528 1.976209 0.683000 2.169326 2.053495 0.483000 2.169326 2.053495 0.683000 2.170566 2.000575 0.483000 2.170566 2.000575 0.683000 2.172578 2.028247 0.483000 2.172578 2.028247 0.683000 2.175222 1.937954 0.483000 2.175222 1.937954 0.683000 2.189887 2.085247 0.483000 2.189887 2.085247 0.683000 2.192503 1.959729 0.483000 2.192503 1.959729 0.683000 2.204659 1.981613 0.483000 2.204659 1.981613 0.683000 2.208160 2.060909 0.483000 2.208160 2.060909 0.683000 2.211853 2.004241 0.483000 2.211853 2.004241 0.683000 2.214251 2.028247 0.483000 2.214251 2.028247 0.683000 2.219983 1.806428 0.483000 2.219983 1.806428 0.683000 2.219983 1.840384 0.483000 2.219983 1.840384 0.683000 2.821000 0.000000 0.000000 2.821000 0.000000 0.483000 2.821000 2.529000 0.000000 2.821000 2.529000 0.483000 "
							            />
						</IndexedFaceSet>
					</Shape>
					<Shape>
						<Appearance>
							<Material DEF="MA_Color_2"
							          diffuseColor="1.000 1.000 1.000"
							          specularColor="0.401 0.401 0.401"
							          emissiveColor="0.000 0.000 0.000"
							          ambientIntensity="0.000"
							          shininess="0.500"
							          transparency="1.000"
							          />
						</Appearance>
						<IndexedFaceSet solid="false"
						                coordIndex="4 5 8 -1 4 6 7 -1 4 7 5 -1 5 7 43 -1 5 9 8 -1 5 13 9 -1 5 17 13 -1 5 21 17 -1 5 23 21 -1 5 27 23 -1 5 39 27 -1 5 43 39 -1 6 10 11 -1 6 11 7 -1 7 11 43 -1 8 9 12 -1 9 13 12 -1 10 14 15 -1 10 15 11 -1 11 15 43 -1 12 13 16 -1 13 17 16 -1 14 18 19 -1 14 19 15 -1 15 19 43 -1 16 17 20 -1 17 21 20 -1 18 24 25 -1 18 25 19 -1 19 25 29 -1 19 29 41 -1 19 41 43 -1 20 21 22 -1 21 23 22 -1 22 23 26 -1 23 27 26 -1 24 28 29 -1 24 29 25 -1 26 27 38 -1 27 39 38 -1 28 40 41 -1 28 41 29 -1 30 31 32 -1 30 55 56 -1 30 56 31 -1 31 33 32 -1 31 45 33 -1 31 56 45 -1 32 33 44 -1 33 45 44 -1 34 35 36 -1 34 47 48 -1 34 48 35 -1 35 37 36 -1 35 48 37 -1 36 37 53 -1 37 48 54 -1 37 54 53 -1 38 39 42 -1 39 43 42 -1 40 42 43 -1 40 43 41 -1 44 45 46 -1 45 48 46 -1 45 50 52 -1 45 52 48 -1 45 56 50 -1 46 48 47 -1 48 52 54 -1 49 50 57 -1 49 51 52 -1 49 52 50 -1 50 56 58 -1 50 58 57 -1 51 65 66 -1 51 66 52 -1 52 66 68 -1 52 68 76 -1 52 76 54 -1 53 54 75 -1 54 76 75 -1 55 57 58 -1 55 58 56 -1 59 60 61 -1 59 63 64 -1 59 64 60 -1 60 62 61 -1 60 64 62 -1 61 62 79 -1 62 64 70 -1 62 70 80 -1 62 80 79 -1 63 83 84 -1 63 84 64 -1 64 84 70 -1 65 67 68 -1 65 68 66 -1 67 111 112 -1 67 112 68 -1 68 112 76 -1 69 70 85 -1 69 77 78 -1 69 78 70 -1 70 78 80 -1 70 84 86 -1 70 86 85 -1 71 72 73 -1 71 99 100 -1 71 100 72 -1 72 74 73 -1 72 82 74 -1 72 100 82 -1 73 74 81 -1 74 82 81 -1 75 76 107 -1 76 108 107 -1 76 112 108 -1 77 79 80 -1 77 80 78 -1 81 82 83 -1 82 84 83 -1 82 88 84 -1 82 100 88 -1 84 88 90 -1 84 90 86 -1 85 86 103 -1 86 90 104 -1 86 104 103 -1 87 88 101 -1 87 89 90 -1 87 90 88 -1 88 100 102 -1 88 102 101 -1 89 105 106 -1 89 106 90 -1 90 106 104 -1 91 92 93 -1 91 103 104 -1 91 104 92 -1 92 94 93 -1 92 104 94 -1 93 94 115 -1 94 104 106 -1 94 106 116 -1 94 116 115 -1 95 96 97 -1 95 165 166 -1 95 166 96 -1 96 98 97 -1 96 110 98 -1 96 166 110 -1 97 98 109 -1 98 110 109 -1 99 101 102 -1 99 102 100 -1 105 113 114 -1 105 114 106 -1 106 114 116 -1 107 108 171 -1 108 112 124 -1 108 124 126 -1 108 126 172 -1 108 172 171 -1 109 110 111 -1 110 112 111 -1 110 124 112 -1 110 166 124 -1 113 115 116 -1 113 116 114 -1 117 118 119 -1 117 121 122 -1 117 122 118 -1 118 120 119 -1 118 122 120 -1 119 120 183 -1 120 122 140 -1 120 140 184 -1 120 184 183 -1 121 191 192 -1 121 192 122 -1 122 192 140 -1 123 124 167 -1 123 125 126 -1 123 126 124 -1 124 166 168 -1 124 168 167 -1 125 169 170 -1 125 170 126 -1 126 170 172 -1 127 128 131 -1 127 135 136 -1 127 136 128 -1 128 132 131 -1 128 136 154 -1 128 154 132 -1 129 130 133 -1 129 137 138 -1 129 138 130 -1 130 134 133 -1 130 138 156 -1 130 156 134 -1 131 132 141 -1 132 142 141 -1 132 154 158 -1 132 158 142 -1 133 134 143 -1 134 144 143 -1 134 156 160 -1 134 160 144 -1 135 149 150 -1 135 150 136 -1 136 150 162 -1 136 162 154 -1 137 151 152 -1 137 152 138 -1 138 152 164 -1 138 164 156 -1 139 140 205 -1 139 181 182 -1 139 182 140 -1 140 182 184 -1 140 192 206 -1 140 206 205 -1 141 142 185 -1 142 158 174 -1 142 174 186 -1 142 186 185 -1 143 144 187 -1 144 160 176 -1 144 176 188 -1 144 188 187 -1 145 146 147 -1 145 235 236 -1 145 236 146 -1 146 148 147 -1 146 190 148 -1 146 236 190 -1 147 148 189 -1 148 190 189 -1 149 193 194 -1 149 194 150 -1 150 178 162 -1 150 194 178 -1 151 195 196 -1 151 196 152 -1 152 180 164 -1 152 196 180 -1 153 154 161 -1 153 157 158 -1 153 158 154 -1 154 162 161 -1 155 156 163 -1 155 159 160 -1 155 160 156 -1 156 164 163 -1 157 173 174 -1 157 174 158 -1 159 175 176 -1 159 176 160 -1 161 162 177 -1 162 178 177 -1 163 164 179 -1 164 180 179 -1 165 167 168 -1 165 168 166 -1 169 171 172 -1 169 172 170 -1 173 197 198 -1 173 198 174 -1 174 198 186 -1 175 199 200 -1 175 200 176 -1 176 200 188 -1 177 178 201 -1 178 194 202 -1 178 202 201 -1 179 180 203 -1 180 196 204 -1 180 204 203 -1 181 183 184 -1 181 184 182 -1 185 186 219 -1 186 198 220 -1 186 220 219 -1 187 188 221 -1 188 200 222 -1 188 222 221 -1 189 190 191 -1 190 192 191 -1 190 208 192 -1 190 236 208 -1 192 208 210 -1 192 210 206 -1 193 211 212 -1 193 212 194 -1 194 212 202 -1 195 213 214 -1 195 214 196 -1 196 214 204 -1 197 223 224 -1 197 224 198 -1 198 224 220 -1 199 225 226 -1 199 226 200 -1 200 226 222 -1 201 202 215 -1 202 212 216 -1 202 216 215 -1 203 204 217 -1 204 214 218 -1 204 218 217 -1 205 206 251 -1 206 210 252 -1 206 252 251 -1 207 208 237 -1 207 209 210 -1 207 210 208 -1 208 236 238 -1 208 238 237 -1 209 269 270 -1 209 270 210 -1 210 270 252 -1 211 257 258 -1 211 258 212 -1 212 240 216 -1 212 258 240 -1 213 259 260 -1 213 260 214 -1 214 242 218 -1 214 260 242 -1 215 216 239 -1 216 240 239 -1 217 218 241 -1 218 242 241 -1 219 220 253 -1 220 224 232 -1 220 232 254 -1 220 254 253 -1 221 222 255 -1 222 226 234 -1 222 234 256 -1 222 256 255 -1 223 231 232 -1 223 232 224 -1 225 233 234 -1 225 234 226 -1 227 228 229 -1 227 251 252 -1 227 252 228 -1 228 230 229 -1 228 252 230 -1 229 230 305 -1 230 252 270 -1 230 270 306 -1 230 306 305 -1 231 243 244 -1 231 244 232 -1 232 244 254 -1 233 245 246 -1 233 246 234 -1 234 246 256 -1 235 237 238 -1 235 238 236 -1 239 240 247 -1 240 248 247 -1 240 258 248 -1 241 242 249 -1 242 250 249 -1 242 260 250 -1 243 261 262 -1 243 262 244 -1 244 262 254 -1 245 263 264 -1 245 264 246 -1 246 264 256 -1 247 248 265 -1 248 258 266 -1 248 266 265 -1 249 250 267 -1 250 260 268 -1 250 268 267 -1 253 254 287 -1 254 262 288 -1 254 288 287 -1 255 256 289 -1 256 264 290 -1 256 290 289 -1 257 295 296 -1 257 296 258 -1 258 296 266 -1 259 297 298 -1 259 298 260 -1 260 298 268 -1 261 271 272 -1 261 272 262 -1 262 272 288 -1 263 273 274 -1 263 274 264 -1 264 274 290 -1 265 266 275 -1 266 276 275 -1 266 296 276 -1 267 268 277 -1 268 278 277 -1 268 298 278 -1 269 303 304 -1 269 304 270 -1 270 304 306 -1 271 279 280 -1 271 280 272 -1 272 280 292 -1 272 292 288 -1 273 281 282 -1 273 282 274 -1 274 282 294 -1 274 294 290 -1 275 276 283 -1 276 284 283 -1 276 296 300 -1 276 300 284 -1 277 278 285 -1 278 286 285 -1 278 298 302 -1 278 302 286 -1 279 291 292 -1 279 292 280 -1 281 293 294 -1 281 294 282 -1 283 284 299 -1 284 300 299 -1 285 286 301 -1 286 302 301 -1 287 288 291 -1 288 292 291 -1 289 290 293 -1 290 294 293 -1 295 299 300 -1 295 300 296 -1 297 301 302 -1 297 302 298 -1 303 305 306 -1 303 306 304 -1 307 308 309 -1 307 319 320 -1 307 320 308 -1 308 310 309 -1 308 320 310 -1 309 310 369 -1 310 320 346 -1 310 346 370 -1 310 370 369 -1 311 312 313 -1 311 339 340 -1 311 340 312 -1 312 314 313 -1 312 340 314 -1 313 314 383 -1 314 340 384 -1 314 384 383 -1 315 316 317 -1 315 343 344 -1 315 344 316 -1 316 318 317 -1 316 344 318 -1 317 318 385 -1 318 344 386 -1 318 386 385 -1 319 371 372 -1 319 372 320 -1 320 372 382 -1 320 382 392 -1 320 392 346 -1 321 322 323 -1 321 393 394 -1 321 394 322 -1 322 324 323 -1 322 338 324 -1 322 352 338 -1 322 394 352 -1 323 324 337 -1 324 338 337 -1 325 326 327 -1 325 397 398 -1 325 398 326 -1 326 328 327 -1 326 342 328 -1 326 360 342 -1 326 398 360 -1 327 328 341 -1 328 342 341 -1 329 330 331 -1 329 349 350 -1 329 350 330 -1 330 332 331 -1 330 350 332 -1 331 332 475 -1 332 350 476 -1 332 476 475 -1 333 334 335 -1 333 487 488 -1 333 488 334 -1 334 336 335 -1 334 348 336 -1 334 418 348 -1 334 488 418 -1 335 336 347 -1 336 348 347 -1 337 338 339 -1 338 340 339 -1 338 352 354 -1 338 354 356 -1 338 356 340 -1 340 356 358 -1 340 358 384 -1 341 342 344 -1 341 344 343 -1 342 360 362 -1 342 362 364 -1 342 364 344 -1 344 364 366 -1 344 366 386 -1 345 346 391 -1 345 367 368 -1 345 368 346 -1 346 368 370 -1 346 392 391 -1 347 348 349 -1 348 350 349 -1 348 418 420 -1 348 420 422 -1 348 422 350 -1 350 422 424 -1 350 424 476 -1 351 352 395 -1 351 353 354 -1 351 354 352 -1 352 394 396 -1 352 396 395 -1 353 387 388 -1 353 388 354 -1 354 378 356 -1 354 388 378 -1 355 356 377 -1 355 357 358 -1 355 358 356 -1 356 378 377 -1 357 373 374 -1 357 374 358 -1 358 374 384 -1 359 360 399 -1 359 361 360 -1 360 361 362 -1 360 398 400 -1 360 400 399 -1 361 389 390 -1 361 390 362 -1 362 380 364 -1 362 390 380 -1 363 364 379 -1 363 365 366 -1 363 366 364 -1 364 380 379 -1 365 375 376 -1 365 376 366 -1 366 376 386 -1 367 369 370 -1 367 370 368 -1 371 381 382 -1 371 382 372 -1 373 413 414 -1 373 414 374 -1 374 414 384 -1 375 415 416 -1 375 416 376 -1 376 416 386 -1 377 378 409 -1 378 388 410 -1 378 410 409 -1 379 380 411 -1 380 390 412 -1 380 412 411 -1 381 453 454 -1 381 454 382 -1 382 454 392 -1 383 384 459 -1 384 414 460 -1 384 460 459 -1 385 386 461 -1 386 416 462 -1 386 462 461 -1 387 429 430 -1 387 430 388 -1 388 430 410 -1 389 431 432 -1 389 432 390 -1 390 432 412 -1 391 392 463 -1 392 454 464 -1 392 464 463 -1 393 395 396 -1 393 396 394 -1 397 399 400 -1 397 400 398 -1 401 402 403 -1 401 491 492 -1 401 492 402 -1 402 404 403 -1 402 438 404 -1 402 492 438 -1 403 404 437 -1 404 438 437 -1 405 406 407 -1 405 439 440 -1 405 440 406 -1 406 408 407 -1 406 440 408 -1 407 408 497 -1 408 440 474 -1 408 474 498 -1 408 498 497 -1 409 410 425 -1 410 426 425 -1 410 430 426 -1 411 412 427 -1 412 428 427 -1 412 432 428 -1 413 433 434 -1 413 434 414 -1 414 434 460 -1 415 435 436 -1 415 436 416 -1 416 436 462 -1 417 418 489 -1 417 419 420 -1 417 420 418 -1 418 488 490 -1 418 490 489 -1 419 481 482 -1 419 482 420 -1 420 468 422 -1 420 482 468 -1 421 422 467 -1 421 423 424 -1 421 424 422 -1 422 468 467 -1 423 465 466 -1 423 466 424 -1 424 466 476 -1 425 426 441 -1 426 430 456 -1 426 442 441 -1 426 456 442 -1 427 428 443 -1 428 432 458 -1 428 444 443 -1 428 458 444 -1 429 455 456 -1 429 456 430 -1 431 457 458 -1 431 458 432 -1 433 445 446 -1 433 446 434 -1 434 446 460 -1 435 447 448 -1 435 448 436 -1 436 448 462 -1 437 438 439 -1 438 440 439 -1 438 472 440 -1 438 492 472 -1 440 472 474 -1 441 442 449 -1 442 450 449 -1 442 456 478 -1 442 478 450 -1 443 444 451 -1 444 452 451 -1 444 458 480 -1 444 480 452 -1 445 449 450 -1 445 450 446 -1 446 450 484 -1 446 484 460 -1 447 451 452 -1 447 452 448 -1 448 452 486 -1 448 486 462 -1 450 478 484 -1 452 480 486 -1 453 519 520 -1 453 520 454 -1 454 520 532 -1 454 532 464 -1 455 477 478 -1 455 478 456 -1 457 479 480 -1 457 480 458 -1 459 460 483 -1 460 484 483 -1 461 462 485 -1 462 486 485 -1 463 464 469 -1 464 470 469 -1 464 532 470 -1 465 517 518 -1 465 518 466 -1 466 518 476 -1 467 468 515 -1 468 482 516 -1 468 516 515 -1 469 470 531 -1 470 532 531 -1 471 472 493 -1 471 473 474 -1 471 474 472 -1 472 492 494 -1 472 494 493 -1 473 495 496 -1 473 496 474 -1 474 496 498 -1 475 476 585 -1 476 518 586 -1 476 586 585 -1 477 483 484 -1 477 484 478 -1 479 485 486 -1 479 486 480 -1 481 543 544 -1 481 544 482 -1 482 544 516 -1 487 489 490 -1 487 490 488 -1 491 493 494 -1 491 494 492 -1 495 497 498 -1 495 498 496 -1 499 500 501 -1 499 575 576 -1 499 576 500 -1 500 502 501 -1 500 534 502 -1 500 576 534 -1 501 502 533 -1 502 534 533 -1 503 504 505 -1 503 535 536 -1 503 536 504 -1 504 506 505 -1 504 536 506 -1 505 506 569 -1 506 536 570 -1 506 570 569 -1 507 508 509 -1 507 579 580 -1 507 580 508 -1 508 510 509 -1 508 538 510 -1 508 580 538 -1 509 510 537 -1 510 538 537 -1 511 512 513 -1 511 539 540 -1 511 540 512 -1 512 514 513 -1 512 540 514 -1 513 514 571 -1 514 540 572 -1 514 572 571 -1 515 516 541 -1 516 542 541 -1 516 544 542 -1 517 545 546 -1 517 546 518 -1 518 546 586 -1 519 521 522 -1 519 522 520 -1 520 522 592 -1 520 592 532 -1 521 591 592 -1 521 592 522 -1 523 524 525 -1 523 595 596 -1 523 596 524 -1 524 526 525 -1 524 560 526 -1 524 596 560 -1 525 526 559 -1 526 560 559 -1 527 528 529 -1 527 561 562 -1 527 562 528 -1 528 530 529 -1 528 562 530 -1 529 530 601 -1 530 562 590 -1 530 590 602 -1 530 602 601 -1 531 532 573 -1 532 574 573 -1 532 592 574 -1 533 534 536 -1 533 536 535 -1 534 552 554 -1 534 554 536 -1 534 576 552 -1 536 554 570 -1 537 538 540 -1 537 540 539 -1 538 556 558 -1 538 558 540 -1 538 580 556 -1 540 558 572 -1 541 542 563 -1 542 544 584 -1 542 564 563 -1 542 584 564 -1 543 583 584 -1 543 584 544 -1 545 565 566 -1 545 566 546 -1 546 566 586 -1 547 548 549 -1 547 573 574 -1 547 574 548 -1 548 550 549 -1 548 574 550 -1 549 550 605 -1 550 574 592 -1 550 592 606 -1 550 606 605 -1 551 552 577 -1 551 553 554 -1 551 554 552 -1 552 576 578 -1 552 578 577 -1 553 653 654 -1 553 654 554 -1 554 646 570 -1 554 654 666 -1 554 666 646 -1 555 556 581 -1 555 557 558 -1 555 558 556 -1 556 580 582 -1 556 582 581 -1 557 655 656 -1 557 656 558 -1 558 650 572 -1 558 656 670 -1 558 670 650 -1 559 560 561 -1 560 562 561 -1 560 588 562 -1 560 596 588 -1 562 588 590 -1 563 564 567 -1 564 568 567 -1 564 584 594 -1 564 594 568 -1 565 567 568 -1 565 568 566 -1 566 568 612 -1 566 612 586 -1 568 594 612 -1 569 570 645 -1 570 646 645 -1 571 572 649 -1 572 650 649 -1 575 577 578 -1 575 578 576 -1 579 581 582 -1 579 582 580 -1 583 593 594 -1 583 594 584 -1 585 586 611 -1 586 612 611 -1 587 588 597 -1 587 589 590 -1 587 590 588 -1 588 596 598 -1 588 598 597 -1 589 599 600 -1 589 600 590 -1 590 600 602 -1 591 603 604 -1 591 604 592 -1 592 604 606 -1 593 611 612 -1 593 612 594 -1 595 597 598 -1 595 598 596 -1 599 601 602 -1 599 602 600 -1 603 605 606 -1 603 606 604 -1 607 608 609 -1 607 613 614 -1 607 614 608 -1 608 610 609 -1 608 614 610 -1 609 610 663 -1 610 614 644 -1 610 644 664 -1 610 664 663 -1 613 673 674 -1 613 674 614 -1 614 674 676 -1 614 676 682 -1 614 682 644 -1 615 616 617 -1 615 683 684 -1 615 684 616 -1 616 618 617 -1 616 632 618 -1 616 684 632 -1 617 618 631 -1 618 632 631 -1 619 620 621 -1 619 633 634 -1 619 634 620 -1 620 622 621 -1 620 634 622 -1 621 622 689 -1 622 634 660 -1 622 660 690 -1 622 690 689 -1 623 624 625 -1 623 647 648 -1 623 648 624 -1 624 626 625 -1 624 648 626 -1 625 626 693 -1 626 648 668 -1 626 668 694 -1 626 694 693 -1 627 628 629 -1 627 651 652 -1 627 652 628 -1 628 630 629 -1 628 652 630 -1 629 630 697 -1 630 652 672 -1 630 672 698 -1 630 698 697 -1 631 632 633 -1 632 634 633 -1 632 658 634 -1 632 684 658 -1 634 658 660 -1 635 636 637 -1 635 773 774 -1 635 774 636 -1 636 638 637 -1 636 678 638 -1 636 774 678 -1 637 638 677 -1 638 678 677 -1 639 640 641 -1 639 679 680 -1 639 680 640 -1 640 642 641 -1 640 680 642 -1 641 642 779 -1 642 680 722 -1 642 722 780 -1 642 780 779 -1 643 644 681 -1 643 661 662 -1 643 662 644 -1 644 662 664 -1 644 682 681 -1 645 646 647 -1 646 648 647 -1 646 666 668 -1 646 668 648 -1 649 650 651 -1 650 652 651 -1 650 670 672 -1 650 672 652 -1 653 665 666 -1 653 666 654 -1 655 669 670 -1 655 670 656 -1 657 658 685 -1 657 659 660 -1 657 660 658 -1 658 684 686 -1 658 686 685 -1 659 687 688 -1 659 688 660 -1 660 688 690 -1 661 663 664 -1 661 664 662 -1 665 667 668 -1 665 668 666 -1 667 691 692 -1 667 692 668 -1 668 692 694 -1 669 671 672 -1 669 672 670 -1 671 695 696 -1 671 696 672 -1 672 696 698 -1 673 675 676 -1 673 676 674 -1 675 723 724 -1 675 724 676 -1 676 724 682 -1 677 678 679 -1 678 680 679 -1 678 720 680 -1 678 774 720 -1 680 720 722 -1 681 682 729 -1 682 724 730 -1 682 730 729 -1 683 685 686 -1 683 686 684 -1 687 689 690 -1 687 690 688 -1 691 693 694 -1 691 694 692 -1 695 697 698 -1 695 698 696 -1 699 700 701 -1 699 791 792 -1 699 792 700 -1 700 702 701 -1 700 726 702 -1 700 792 726 -1 701 702 725 -1 702 726 725 -1 703 704 705 -1 703 727 728 -1 703 728 704 -1 704 706 705 -1 704 728 706 -1 705 706 797 -1 706 728 764 -1 706 764 798 -1 706 798 797 -1 707 708 711 -1 707 715 716 -1 707 716 708 -1 708 712 711 -1 708 716 740 -1 708 740 712 -1 709 710 713 -1 709 717 718 -1 709 718 710 -1 710 714 713 -1 710 718 742 -1 710 742 714 -1 711 712 731 -1 712 732 731 -1 712 740 746 -1 712 746 732 -1 713 714 733 -1 714 734 733 -1 714 742 748 -1 714 748 734 -1 715 735 736 -1 715 736 716 -1 716 736 750 -1 716 750 740 -1 717 737 738 -1 717 738 718 -1 718 738 752 -1 718 752 742 -1 719 720 775 -1 719 721 722 -1 719 722 720 -1 720 774 776 -1 720 776 775 -1 721 777 778 -1 721 778 722 -1 722 778 780 -1 723 789 790 -1 723 790 724 -1 724 790 802 -1 724 802 730 -1 725 726 727 -1 726 728 727 -1 726 762 728 -1 726 792 762 -1 728 762 764 -1 729 730 743 -1 730 744 743 -1 730 802 744 -1 731 732 765 -1 732 746 754 -1 732 754 766 -1 732 766 765 -1 733 734 767 -1 734 748 756 -1 734 756 768 -1 734 768 767 -1 735 769 770 -1 735 770 736 -1 736 758 750 -1 736 770 758 -1 737 771 772 -1 737 772 738 -1 738 760 752 -1 738 772 760 -1 739 740 749 -1 739 745 746 -1 739 746 740 -1 740 750 749 -1 741 742 751 -1 741 747 748 -1 741 748 742 -1 742 752 751 -1 743 744 801 -1 744 802 801 -1 745 753 754 -1 745 754 746 -1 747 755 756 -1 747 756 748 -1 749 750 757 -1 750 758 757 -1 751 752 759 -1 752 760 759 -1 753 781 782 -1 753 782 754 -1 754 782 766 -1 755 783 784 -1 755 784 756 -1 756 784 768 -1 757 758 785 -1 758 770 786 -1 758 786 785 -1 759 760 787 -1 760 772 788 -1 760 788 787 -1 761 762 793 -1 761 763 764 -1 761 764 762 -1 762 792 794 -1 762 794 793 -1 763 795 796 -1 763 796 764 -1 764 796 798 -1 765 766 823 -1 766 782 824 -1 766 824 823 -1 767 768 825 -1 768 784 826 -1 768 826 825 -1 769 815 816 -1 769 816 770 -1 770 816 786 -1 771 817 818 -1 771 818 772 -1 772 818 788 -1 773 775 776 -1 773 776 774 -1 777 779 780 -1 777 780 778 -1 781 827 828 -1 781 828 782 -1 782 828 824 -1 783 829 830 -1 783 830 784 -1 784 830 826 -1 785 786 819 -1 786 816 820 -1 786 820 819 -1 787 788 821 -1 788 818 822 -1 788 822 821 -1 789 799 800 -1 789 800 790 -1 790 800 872 -1 790 872 802 -1 791 793 794 -1 791 794 792 -1 795 797 798 -1 795 798 796 -1 799 871 872 -1 799 872 800 -1 801 802 849 -1 802 850 849 -1 802 872 850 -1 803 804 805 -1 803 849 850 -1 803 850 804 -1 804 806 805 -1 804 850 806 -1 805 806 903 -1 806 850 872 -1 806 872 904 -1 806 904 903 -1 807 808 809 -1 807 935 936 -1 807 936 808 -1 808 810 809 -1 808 846 810 -1 808 936 846 -1 809 810 845 -1 810 846 845 -1 811 812 813 -1 811 847 848 -1 811 848 812 -1 812 814 813 -1 812 848 814 -1 813 814 941 -1 814 848 880 -1 814 880 942 -1 814 942 941 -1 815 863 864 -1 815 864 816 -1 816 838 820 -1 816 864 838 -1 817 865 866 -1 817 866 818 -1 818 840 822 -1 818 866 840 -1 819 820 837 -1 820 838 837 -1 821 822 839 -1 822 840 839 -1 823 824 859 -1 824 828 834 -1 824 834 860 -1 824 860 859 -1 825 826 861 -1 826 830 836 -1 826 836 862 -1 826 862 861 -1 827 833 834 -1 827 834 828 -1 829 835 836 -1 829 836 830 -1 831 832 841 -1 831 843 844 -1 831 844 832 -1 832 842 841 -1 832 844 906 -1 832 906 842 -1 833 851 852 -1 833 852 834 -1 834 852 860 -1 835 853 854 -1 835 854 836 -1 836 854 862 -1 837 838 855 -1 838 856 855 -1 838 864 856 -1 839 840 857 -1 840 858 857 -1 840 866 858 -1 841 842 881 -1 842 882 881 -1 842 906 916 -1 842 916 882 -1 843 887 888 -1 843 888 844 -1 844 888 922 -1 844 922 906 -1 845 846 847 -1 846 848 847 -1 846 878 848 -1 846 936 878 -1 848 878 880 -1 851 867 868 -1 851 868 852 -1 852 868 860 -1 853 869 870 -1 853 870 854 -1 854 870 862 -1 855 856 873 -1 856 864 874 -1 856 874 873 -1 857 858 875 -1 858 866 876 -1 858 876 875 -1 859 860 907 -1 860 868 908 -1 860 908 907 -1 861 862 909 -1 862 870 910 -1 862 910 909 -1 863 917 918 -1 863 918 864 -1 864 918 874 -1 865 919 920 -1 865 920 866 -1 866 920 876 -1 867 883 884 -1 867 884 868 -1 868 884 908 -1 869 885 886 -1 869 886 870 -1 870 886 910 -1 871 901 902 -1 871 902 872 -1 872 902 904 -1 873 874 889 -1 874 890 889 -1 874 918 890 -1 875 876 891 -1 876 892 891 -1 876 920 892 -1 877 878 937 -1 877 879 880 -1 877 880 878 -1 878 936 938 -1 878 938 937 -1 879 939 940 -1 879 940 880 -1 880 940 942 -1 881 882 975 -1 882 916 944 -1 882 944 976 -1 882 976 975 -1 883 893 894 -1 883 894 884 -1 884 894 912 -1 884 912 908 -1 885 895 896 -1 885 896 886 -1 886 896 914 -1 886 914 910 -1 887 981 982 -1 887 982 888 -1 888 946 922 -1 888 982 946 -1 889 890 897 -1 890 898 897 -1 890 918 932 -1 890 932 898 -1 891 892 899 -1 892 900 899 -1 892 920 934 -1 892 934 900 -1 893 911 912 -1 893 912 894 -1 895 913 914 -1 895 914 896 -1 897 898 931 -1 898 932 931 -1 899 900 933 -1 900 934 933 -1 901 903 904 -1 901 904 902 -1 905 906 921 -1 905 915 916 -1 905 916 906 -1 906 922 921 -1 907 908 911 -1 908 912 911 -1 909 910 913 -1 910 914 913 -1 915 943 944 -1 915 944 916 -1 917 931 932 -1 917 932 918 -1 919 933 934 -1 919 934 920 -1 921 922 945 -1 922 946 945 -1 923 924 925 -1 923 1001 1002 -1 923 1002 924 -1 924 926 925 -1 924 948 926 -1 924 1002 948 -1 925 926 947 -1 926 948 947 -1 927 928 929 -1 927 949 950 -1 927 950 928 -1 928 930 929 -1 928 950 930 -1 929 930 995 -1 930 950 996 -1 930 996 995 -1 935 937 938 -1 935 938 936 -1 939 941 942 -1 939 942 940 -1 943 997 998 -1 943 998 944 -1 944 998 976 -1 945 946 999 -1 946 982 1000 -1 946 1000 999 -1 947 948 949 -1 948 950 949 -1 948 978 980 -1 948 980 950 -1 948 1002 978 -1 950 980 996 -1 951 952 953 -1 951 985 986 -1 951 986 952 -1 952 954 953 -1 952 986 954 -1 953 954 1033 -1 954 986 1034 -1 954 1034 1033 -1 955 956 957 -1 955 989 990 -1 955 990 956 -1 956 958 957 -1 956 990 958 -1 957 958 1035 -1 958 990 1036 -1 958 1036 1035 -1 959 960 961 -1 959 1041 1042 -1 959 1042 960 -1 960 962 961 -1 960 992 962 -1 960 1042 992 -1 961 962 991 -1 962 992 991 -1 963 964 965 -1 963 993 994 -1 963 994 964 -1 964 966 965 -1 964 994 966 -1 965 966 1047 -1 966 994 1024 -1 966 1024 1048 -1 966 1048 1047 -1 967 968 969 -1 967 1049 1050 -1 967 1050 968 -1 968 970 969 -1 968 984 970 -1 968 1006 984 -1 968 1050 1006 -1 969 970 983 -1 970 984 983 -1 971 972 973 -1 971 1053 1054 -1 971 1054 972 -1 972 974 973 -1 972 988 974 -1 972 1014 988 -1 972 1054 1014 -1 973 974 987 -1 974 988 987 -1 975 976 1069 -1 976 998 1070 -1 976 1070 1069 -1 977 978 1003 -1 977 979 980 -1 977 980 978 -1 978 1002 1004 -1 978 1004 1003 -1 979 1117 1118 -1 979 1118 980 -1 980 1114 996 -1 980 1118 1132 -1 980 1132 1114 -1 981 1065 1066 -1 981 1066 982 -1 982 1066 1000 -1 983 984 985 -1 984 986 985 -1 984 1006 1008 -1 984 1008 1010 -1 984 1010 986 -1 986 1010 1012 -1 986 1012 1034 -1 987 988 989 -1 988 990 989 -1 988 1014 1016 -1 988 1016 1018 -1 988 1018 990 -1 990 1018 1020 -1 990 1020 1036 -1 991 992 993 -1 992 994 993 -1 992 1022 994 -1 992 1042 1022 -1 994 1022 1024 -1 995 996 1113 -1 996 1114 1113 -1 997 1071 1072 -1 997 1072 998 -1 998 1072 1070 -1 999 1000 1067 -1 1000 1066 1068 -1 1000 1068 1067 -1 1001 1003 1004 -1 1001 1004 1002 -1 1005 1006 1051 -1 1005 1007 1008 -1 1005 1008 1006 -1 1006 1050 1052 -1 1006 1052 1051 -1 1007 1037 1038 -1 1007 1038 1008 -1 1008 1030 1010 -1 1008 1038 1030 -1 1009 1010 1029 -1 1009 1011 1012 -1 1009 1012 1010 -1 1010 1030 1029 -1 1011 1025 1026 -1 1011 1026 1012 -1 1012 1026 1034 -1 1013 1014 1055 -1 1013 1015 1016 -1 1013 1016 1014 -1 1014 1054 1056 -1 1014 1056 1055 -1 1015 1039 1040 -1 1015 1040 1016 -1 1016 1032 1018 -1 1016 1040 1032 -1 1017 1018 1031 -1 1017 1019 1020 -1 1017 1020 1018 -1 1018 1032 1031 -1 1019 1027 1028 -1 1019 1028 1020 -1 1020 1028 1036 -1 1021 1022 1043 -1 1021 1023 1022 -1 1022 1023 1024 -1 1022 1042 1044 -1 1022 1044 1043 -1 1023 1045 1046 -1 1023 1046 1024 -1 1024 1046 1048 -1 1025 1061 1062 -1 1025 1062 1026 -1 1026 1062 1034 -1 1027 1063 1064 -1 1027 1064 1028 -1 1028 1064 1036 -1 1029 1030 1057 -1 1030 1038 1058 -1 1030 1058 1057 -1 1031 1032 1059 -1 1032 1040 1060 -1 1032 1060 1059 -1 1033 1034 1109 -1 1034 1062 1110 -1 1034 1110 1109 -1 1035 1036 1111 -1 1036 1064 1112 -1 1036 1112 1111 -1 1037 1077 1078 -1 1037 1078 1038 -1 1038 1078 1058 -1 1039 1079 1080 -1 1039 1080 1040 -1 1040 1080 1060 -1 1041 1043 1044 -1 1041 1044 1042 -1 1045 1047 1048 -1 1045 1048 1046 -1 1049 1051 1052 -1 1049 1052 1050 -1 1053 1055 1056 -1 1053 1056 1054 -1 1057 1058 1073 -1 1058 1074 1073 -1 1058 1078 1074 -1 1059 1060 1075 -1 1060 1076 1075 -1 1060 1080 1076 -1 1061 1081 1082 -1 1061 1082 1062 -1 1062 1082 1110 -1 1063 1083 1084 -1 1063 1084 1064 -1 1064 1084 1112 -1 1065 1137 1138 -1 1065 1138 1066 -1 1066 1104 1068 -1 1066 1138 1104 -1 1067 1068 1103 -1 1068 1104 1103 -1 1069 1070 1135 -1 1070 1072 1102 -1 1070 1102 1136 -1 1070 1136 1135 -1 1071 1101 1102 -1 1071 1102 1072 -1 1073 1074 1089 -1 1074 1078 1106 -1 1074 1090 1089 -1 1074 1106 1090 -1 1075 1076 1091 -1 1076 1080 1108 -1 1076 1092 1091 -1 1076 1108 1092 -1 1077 1105 1106 -1 1077 1106 1078 -1 1079 1107 1108 -1 1079 1108 1080 -1 1081 1093 1094 -1 1081 1094 1082 -1 1082 1094 1110 -1 1083 1095 1096 -1 1083 1096 1084 -1 1084 1096 1112 -1 1085 1086 1087 -1 1085 1115 1116 -1 1085 1116 1086 -1 1086 1088 1087 -1 1086 1116 1088 -1 1087 1088 1161 -1 1088 1116 1134 -1 1088 1134 1162 -1 1088 1162 1161 -1 1089 1090 1097 -1 1090 1098 1097 -1 1090 1106 1120 -1 1090 1120 1098 -1 1091 1092 1099 -1 1092 1100 1099 -1 1092 1108 1122 -1 1092 1122 1100 -1 1093 1097 1098 -1 1093 1098 1094 -1 1094 1098 1126 -1 1094 1126 1110 -1 1095 1099 1100 -1 1095 1100 1096 -1 1096 1100 1128 -1 1096 1128 1112 -1 1098 1120 1126 -1 1100 1122 1128 -1 1101 1123 1124 -1 1101 1124 1102 -1 1102 1124 1136 -1 1103 1104 1129 -1 1104 1130 1129 -1 1104 1138 1130 -1 1105 1119 1120 -1 1105 1120 1106 -1 1107 1121 1122 -1 1107 1122 1108 -1 1109 1110 1125 -1 1110 1126 1125 -1 1111 1112 1127 -1 1112 1128 1127 -1 1113 1114 1115 -1 1114 1116 1115 -1 1114 1132 1134 -1 1114 1134 1116 -1 1117 1131 1132 -1 1117 1132 1118 -1 1119 1125 1126 -1 1119 1126 1120 -1 1121 1127 1128 -1 1121 1128 1122 -1 1123 1155 1156 -1 1123 1156 1124 -1 1124 1156 1136 -1 1129 1130 1157 -1 1130 1138 1158 -1 1130 1158 1157 -1 1131 1133 1134 -1 1131 1134 1132 -1 1133 1159 1160 -1 1133 1160 1134 -1 1134 1160 1162 -1 1135 1136 1195 -1 1136 1156 1196 -1 1136 1196 1195 -1 1137 1203 1204 -1 1137 1204 1138 -1 1138 1204 1158 -1 1139 1140 1141 -1 1139 1215 1216 -1 1139 1216 1140 -1 1140 1142 1141 -1 1140 1174 1142 -1 1140 1216 1174 -1 1141 1142 1173 -1 1142 1174 1173 -1 1143 1144 1145 -1 1143 1175 1176 -1 1143 1176 1144 -1 1144 1146 1145 -1 1144 1176 1146 -1 1145 1146 1207 -1 1146 1176 1208 -1 1146 1208 1207 -1 1147 1148 1149 -1 1147 1219 1220 -1 1147 1220 1148 -1 1148 1150 1149 -1 1148 1178 1150 -1 1148 1220 1178 -1 1149 1150 1177 -1 1150 1178 1177 -1 1151 1152 1153 -1 1151 1179 1180 -1 1151 1180 1152 -1 1152 1154 1153 -1 1152 1180 1154 -1 1153 1154 1209 -1 1154 1180 1210 -1 1154 1210 1209 -1 1155 1163 1164 -1 1155 1164 1156 -1 1156 1164 1196 -1 1157 1158 1181 -1 1158 1182 1181 -1 1158 1204 1182 -1 1159 1161 1162 -1 1159 1162 1160 -1 1163 1183 1184 -1 1163 1184 1164 -1 1164 1184 1198 -1 1164 1198 1196 -1 1165 1166 1167 -1 1165 1225 1226 -1 1165 1226 1166 -1 1166 1168 1167 -1 1166 1200 1168 -1 1166 1226 1200 -1 1167 1168 1199 -1 1168 1200 1199 -1 1169 1170 1171 -1 1169 1201 1202 -1 1169 1202 1170 -1 1170 1172 1171 -1 1170 1202 1172 -1 1171 1172 1223 -1 1172 1202 1224 -1 1172 1224 1223 -1 1173 1174 1176 -1 1173 1176 1175 -1 1174 1188 1190 -1 1174 1190 1176 -1 1174 1216 1188 -1 1176 1190 1208 -1 1177 1178 1180 -1 1177 1180 1179 -1 1178 1192 1194 -1 1178 1194 1180 -1 1178 1220 1192 -1 1180 1194 1210 -1 1181 1182 1185 -1 1182 1186 1185 -1 1182 1204 1206 -1 1182 1206 1186 -1 1183 1197 1198 -1 1183 1198 1184 -1 1185 1186 1205 -1 1186 1206 1205 -1 1187 1188 1217 -1 1187 1189 1190 -1 1187 1190 1188 -1 1188 1216 1218 -1 1188 1218 1217 -1 1189 1273 1274 -1 1189 1274 1190 -1 1190 1266 1208 -1 1190 1274 1288 -1 1190 1288 1266 -1 1191 1192 1221 -1 1191 1193 1194 -1 1191 1194 1192 -1 1192 1220 1222 -1 1192 1222 1221 -1 1193 1275 1276 -1 1193 1276 1194 -1 1194 1270 1210 -1 1194 1276 1292 -1 1194 1292 1270 -1 1195 1196 1197 -1 1196 1198 1197 -1 1199 1200 1201 -1 1200 1202 1201 -1 1200 1212 1214 -1 1200 1214 1202 -1 1200 1226 1212 -1 1202 1214 1224 -1 1203 1205 1206 -1 1203 1206 1204 -1 1207 1208 1265 -1 1208 1266 1265 -1 1209 1210 1269 -1 1210 1270 1269 -1 1211 1212 1227 -1 1211 1213 1214 -1 1211 1214 1212 -1 1212 1226 1228 -1 1212 1228 1227 -1 1213 1303 1304 -1 1213 1304 1214 -1 1214 1300 1224 -1 1214 1304 1308 -1 1214 1308 1300 -1 1215 1217 1218 -1 1215 1218 1216 -1 1219 1221 1222 -1 1219 1222 1220 -1 1223 1224 1299 -1 1224 1300 1299 -1 1225 1227 1228 -1 1225 1228 1226 -1 1229 1230 1237 -1 1229 1231 1230 -1 1230 1231 1232 -1 1230 1232 1250 -1 1230 1238 1237 -1 1230 1250 1238 -1 1231 1257 1258 -1 1231 1258 1232 -1 1232 1256 1250 -1 1232 1258 1256 -1 1233 1234 1235 -1 1233 1247 1248 -1 1233 1248 1234 -1 1234 1236 1235 -1 1234 1248 1254 -1 1234 1254 1236 -1 1235 1236 1251 -1 1236 1252 1251 -1 1236 1254 1252 -1 1237 1238 1249 -1 1238 1250 1249 -1 1239 1240 1241 -1 1239 1267 1268 -1 1239 1268 1240 -1 1240 1242 1241 -1 1240 1268 1242 -1 1241 1242 1313 -1 1242 1268 1290 -1 1242 1290 1314 -1 1242 1314 1313 -1 1243 1244 1245 -1 1243 1271 1272 -1 1243 1272 1244 -1 1244 1246 1245 -1 1244 1272 1246 -1 1245 1246 1317 -1 1246 1272 1294 -1 1246 1294 1318 -1 1246 1318 1317 -1 1247 1253 1254 -1 1247 1254 1248 -1 1249 1250 1255 -1 1250 1256 1255 -1 1251 1252 1277 -1 1252 1254 1260 -1 1252 1260 1278 -1 1252 1278 1277 -1 1253 1259 1260 -1 1253 1260 1254 -1 1255 1256 1279 -1 1256 1258 1280 -1 1256 1280 1279 -1 1257 1325 1326 -1 1257 1326 1258 -1 1258 1298 1280 -1 1258 1326 1298 -1 1259 1285 1286 -1 1259 1286 1260 -1 1260 1286 1278 -1 1261 1262 1263 -1 1261 1301 1302 -1 1261 1302 1262 -1 1262 1264 1263 -1 1262 1302 1264 -1 1263 1264 1333 -1 1264 1302 1310 -1 1264 1310 1334 -1 1264 1334 1333 -1 1265 1266 1267 -1 1266 1268 1267 -1 1266 1288 1290 -1 1266 1290 1268 -1 1269 1270 1271 -1 1270 1272 1271 -1 1270 1292 1294 -1 1270 1294 1272 -1 1273 1287 1288 -1 1273 1288 1274 -1 1275 1291 1292 -1 1275 1292 1276 -1 1277 1278 1295 -1 1278 1286 1296 -1 1278 1296 1295 -1 1279 1280 1297 -1 1280 1298 1297 -1 1281 1282 1283 -1 1281 1327 1328 -1 1281 1328 1282 -1 1282 1284 1283 -1 1282 1328 1284 -1 1283 1284 1329 -1 1284 1328 1330 -1 1284 1330 1329 -1 1285 1305 1306 -1 1285 1306 1286 -1 1286 1306 1296 -1 1287 1289 1290 -1 1287 1290 1288 -1 1289 1311 1312 -1 1289 1312 1290 -1 1290 1312 1314 -1 1291 1293 1294 -1 1291 1294 1292 -1 1293 1315 1316 -1 1293 1316 1294 -1 1294 1316 1318 -1 1295 1296 1323 -1 1296 1306 1324 -1 1296 1324 1323 -1 1297 1298 1319 -1 1298 1320 1319 -1 1298 1326 1320 -1 1299 1300 1301 -1 1300 1302 1301 -1 1300 1308 1310 -1 1300 1310 1302 -1 1303 1307 1308 -1 1303 1308 1304 -1 1305 1321 1322 -1 1305 1322 1306 -1 1306 1322 1324 -1 1307 1309 1310 -1 1307 1310 1308 -1 1309 1331 1332 -1 1309 1332 1310 -1 1310 1332 1334 -1 1311 1313 1314 -1 1311 1314 1312 -1 1315 1317 1318 -1 1315 1318 1316 -1 1319 1320 1339 -1 1320 1326 1340 -1 1320 1340 1339 -1 1321 1335 1336 -1 1321 1336 1322 -1 1322 1336 1324 -1 1323 1324 1387 -1 1324 1336 1388 -1 1324 1388 1387 -1 1325 1357 1358 -1 1325 1358 1326 -1 1326 1358 1340 -1 1327 1343 1344 -1 1327 1344 1328 -1 1328 1338 1330 -1 1328 1342 1338 -1 1328 1344 1342 -1 1329 1330 1337 -1 1330 1338 1337 -1 1331 1333 1334 -1 1331 1334 1332 -1 1335 1353 1354 -1 1335 1354 1336 -1 1336 1354 1388 -1 1337 1338 1355 -1 1338 1342 1374 -1 1338 1356 1355 -1 1338 1374 1356 -1 1339 1340 1363 -1 1340 1358 1364 -1 1340 1364 1363 -1 1341 1342 1379 -1 1341 1373 1374 -1 1341 1374 1342 -1 1342 1344 1380 -1 1342 1380 1379 -1 1343 1365 1366 -1 1343 1366 1344 -1 1344 1366 1380 -1 1345 1346 1347 -1 1345 1395 1396 -1 1345 1396 1346 -1 1346 1348 1347 -1 1346 1370 1348 -1 1346 1396 1370 -1 1347 1348 1369 -1 1348 1370 1369 -1 1349 1350 1351 -1 1349 1371 1372 -1 1349 1372 1350 -1 1350 1352 1351 -1 1350 1372 1352 -1 1351 1352 1393 -1 1352 1372 1394 -1 1352 1394 1393 -1 1353 1359 1360 -1 1353 1360 1354 -1 1354 1360 1388 -1 1355 1356 1361 -1 1356 1362 1361 -1 1356 1374 1390 -1 1356 1390 1362 -1 1357 1391 1392 -1 1357 1392 1358 -1 1358 1392 1364 -1 1359 1367 1368 -1 1359 1368 1360 -1 1360 1368 1404 -1 1360 1404 1388 -1 1361 1362 1367 -1 1362 1368 1367 -1 1362 1390 1402 -1 1362 1402 1368 -1 1363 1364 1375 -1 1364 1376 1375 -1 1364 1392 1376 -1 1365 1377 1378 -1 1365 1378 1366 -1 1366 1378 1400 -1 1366 1400 1380 -1 1368 1402 1404 -1 1369 1370 1371 -1 1370 1372 1371 -1 1370 1382 1384 -1 1370 1384 1372 -1 1370 1396 1382 -1 1372 1384 1394 -1 1373 1389 1390 -1 1373 1390 1374 -1 1375 1376 1385 -1 1376 1386 1385 -1 1376 1392 1406 -1 1376 1406 1386 -1 1377 1385 1386 -1 1377 1386 1378 -1 1378 1386 1408 -1 1378 1408 1400 -1 1379 1380 1399 -1 1380 1400 1399 -1 1381 1382 1397 -1 1381 1383 1384 -1 1381 1384 1382 -1 1382 1396 1398 -1 1382 1398 1397 -1 1383 1427 1428 -1 1383 1428 1384 -1 1384 1424 1394 -1 1384 1428 1436 -1 1384 1436 1424 -1 1386 1406 1410 -1 1386 1410 1408 -1 1387 1388 1403 -1 1388 1404 1403 -1 1389 1401 1402 -1 1389 1402 1390 -1 1391 1405 1406 -1 1391 1406 1392 -1 1393 1394 1423 -1 1394 1424 1423 -1 1395 1397 1398 -1 1395 1398 1396 -1 1399 1400 1407 -1 1400 1408 1407 -1 1401 1403 1404 -1 1401 1404 1402 -1 1405 1409 1410 -1 1405 1410 1406 -1 1407 1408 1409 -1 1408 1410 1409 -1 1411 1412 1413 -1 1411 1425 1426 -1 1411 1426 1412 -1 1412 1414 1413 -1 1412 1426 1414 -1 1413 1414 1451 -1 1414 1426 1438 -1 1414 1438 1452 -1 1414 1452 1451 -1 1415 1416 1417 -1 1415 1497 1498 -1 1415 1498 1416 -1 1416 1418 1417 -1 1416 1432 1418 -1 1416 1498 1432 -1 1417 1418 1439 -1 1418 1432 1440 -1 1418 1440 1439 -1 1419 1420 1421 -1 1419 1429 1430 -1 1419 1430 1420 -1 1420 1422 1421 -1 1420 1430 1434 -1 1420 1434 1422 -1 1421 1422 1443 -1 1422 1434 1442 -1 1422 1442 1444 -1 1422 1444 1443 -1 1423 1424 1425 -1 1424 1426 1425 -1 1424 1436 1438 -1 1424 1438 1426 -1 1427 1435 1436 -1 1427 1436 1428 -1 1429 1433 1434 -1 1429 1434 1430 -1 1431 1432 1499 -1 1431 1445 1446 -1 1431 1446 1432 -1 1432 1446 1440 -1 1432 1498 1500 -1 1432 1500 1499 -1 1433 1441 1442 -1 1433 1442 1434 -1 1435 1437 1438 -1 1435 1438 1436 -1 1437 1449 1450 -1 1437 1450 1438 -1 1438 1450 1452 -1 1439 1440 1457 -1 1440 1446 1456 -1 1440 1456 1458 -1 1440 1458 1457 -1 1441 1447 1448 -1 1441 1448 1442 -1 1442 1448 1444 -1 1443 1444 1461 -1 1444 1448 1454 -1 1444 1454 1462 -1 1444 1462 1461 -1 1445 1455 1456 -1 1445 1456 1446 -1 1447 1453 1454 -1 1447 1454 1448 -1 1449 1451 1452 -1 1449 1452 1450 -1 1453 1459 1460 -1 1453 1460 1454 -1 1454 1460 1462 -1 1455 1467 1468 -1 1455 1468 1456 -1 1456 1468 1458 -1 1457 1458 1463 -1 1458 1464 1463 -1 1458 1468 1464 -1 1459 1465 1466 -1 1459 1466 1460 -1 1460 1466 1462 -1 1461 1462 1471 -1 1462 1466 1472 -1 1462 1472 1471 -1 1463 1464 1469 -1 1464 1468 1484 -1 1464 1470 1469 -1 1464 1484 1470 -1 1465 1473 1474 -1 1465 1474 1466 -1 1466 1474 1472 -1 1467 1483 1484 -1 1467 1484 1468 -1 1469 1470 1475 -1 1470 1476 1475 -1 1470 1484 1488 -1 1470 1488 1476 -1 1471 1472 1485 -1 1472 1474 1486 -1 1472 1486 1485 -1 1473 1477 1478 -1 1473 1478 1474 -1 1474 1478 1486 -1 1475 1476 1479 -1 1476 1480 1479 -1 1476 1488 1490 -1 1476 1490 1480 -1 1477 1481 1482 -1 1477 1482 1478 -1 1478 1482 1492 -1 1478 1492 1486 -1 1479 1480 1481 -1 1480 1482 1481 -1 1480 1490 1494 -1 1480 1494 1482 -1 1482 1494 1496 -1 1482 1496 1492 -1 1483 1487 1488 -1 1483 1488 1484 -1 1485 1486 1491 -1 1486 1492 1491 -1 1487 1489 1490 -1 1487 1490 1488 -1 1489 1493 1494 -1 1489 1494 1490 -1 1491 1492 1495 -1 1492 1496 1495 -1 1493 1495 1496 -1 1493 1496 1494 -1 1497 1499 1500 -1 1497 1500 1498 -1 "
						                >
							<Coordinate USE="coords_ME_OpenSCAD_Model" />
						</IndexedFaceSet>
					</Shape>
				</Group>
			</Transform>
		</Transform>
	</Scene>
</X3D>