<?xml version="1.0" encoding="UTF-8"?>
<!DOCTYPE X3D PUBLIC "ISO//Web3D//DTD X3D 3.0//EN" "http://www.web3d.org/specifications/x3d-3.0.dtd">
<X3D version="3.0" profile="Immersive" xmlns:xsd="http://www.w3.org/2001/XMLSchema-instance" xsd:noNamespaceSchemaLocation="http://www.web3d.org/specifications/x3d-3.0.xsd">
	<head>
		<meta name="filename" content="C04-25525A.x3d" />
		<meta name="created" content="2026-02-22 14:52:57" />
		<meta name="generator" content="Blender 5.0.1" />
		<meta name="translator" content="Web3D X3D/VRML2 format v2.5.1" />
	</head>
	<Scene>
		<NavigationInfo headlight="true"
		                visibilityLimit="0.0"
		                type='"EXAMINE", "ANY"'
		                avatarSize="0.25, 1.75, 0.75"
		                />
		<Transform DEF="OpenSCAD_Model_TRANSFORM"
		           translation="0.000000 0.000000 0.000000"
		           scale="0.001000 0.001000 0.001000"
		           rotation="-1.000000 0.000000 0.000000 1.570796"
		           >
			<Transform DEF="OpenSCAD_Model_ifs_TRANSFORM"
			           translation="0.000000 0.000000 0.000000"
			           scale="1.000000 1.000000 1.000000"
			           rotation="0.000000 1.000000 0.000000 0.000000"
			           >
				<Group DEF="group_ME_OpenSCAD_Model">
					<Shape>
						<Appearance>
							<Material DEF="MA_Color_1"
							          diffuseColor="0.000 0.000 0.000"
							          specularColor="0.401 0.401 0.401"
							          emissiveColor="0.000 0.000 0.000"
							          ambientIntensity="0.000"
							          shininess="0.500"
							          transparency="1.000"
							          />
						</Appearance>
						<IndexedFaceSet solid="false"
						                coordIndex="0 1 3 -1 0 2 1506 -1 0 3 2 -1 0 1504 1505 -1 0 1505 1 -1 0 1506 1504 -1 1 4 6 -1 1 6 14 -1 1 14 3 -1 1 28 30 -1 1 30 4 -1 1 42 44 -1 1 44 28 -1 1 82 42 -1 1 140 82 -1 1 1505 140 -1 2 3 1506 -1 3 8 10 -1 3 10 21 -1 3 14 8 -1 3 21 94 -1 3 38 50 -1 3 48 38 -1 3 50 62 -1 3 60 48 -1 3 62 72 -1 3 70 60 -1 3 72 92 -1 3 92 1507 -1 3 94 70 -1 3 1507 1506 -1 4 30 118 -1 4 118 122 -1 4 120 23 -1 4 122 136 -1 4 128 120 -1 4 136 128 -1 6 12 14 -1 8 14 15 -1 17 25 27 -1 17 27 19 -1 21 46 94 -1 23 27 25 -1 23 34 27 -1 23 120 124 -1 23 124 34 -1 28 44 32 -1 30 54 410 -1 30 126 118 -1 30 144 126 -1 30 192 144 -1 30 212 192 -1 30 258 212 -1 30 296 258 -1 30 322 296 -1 30 410 322 -1 32 44 58 -1 34 124 138 -1 34 138 186 -1 34 186 222 -1 34 222 36 -1 36 78 80 -1 36 80 98 -1 36 222 78 -1 40 64 52 -1 44 56 58 -1 52 64 86 -1 52 74 76 -1 52 76 54 -1 52 86 74 -1 54 76 408 -1 54 408 410 -1 66 84 112 -1 66 112 68 -1 68 112 88 -1 70 94 90 -1 76 102 408 -1 78 222 160 -1 80 96 98 -1 82 140 142 -1 82 142 188 -1 82 188 190 -1 82 190 84 -1 84 190 112 -1 88 112 100 -1 90 94 110 -1 92 108 1507 -1 94 166 110 -1 100 104 106 -1 100 106 102 -1 100 112 104 -1 102 106 406 -1 102 406 442 -1 102 442 408 -1 106 178 406 -1 108 132 1507 -1 110 166 332 -1 110 332 1507 -1 110 1507 134 -1 114 162 164 -1 114 164 116 -1 128 136 146 -1 130 206 176 -1 132 180 1507 -1 134 1507 182 -1 136 184 146 -1 140 1505 236 -1 146 184 194 -1 148 156 280 -1 148 280 152 -1 150 158 344 -1 150 344 154 -1 152 280 168 -1 154 344 170 -1 156 172 280 -1 158 174 344 -1 160 222 256 -1 160 256 290 -1 160 290 318 -1 160 318 388 -1 160 388 162 -1 162 330 164 -1 162 334 336 -1 162 336 330 -1 162 388 464 -1 162 464 334 -1 164 330 332 -1 164 332 166 -1 168 280 198 -1 170 344 200 -1 172 202 280 -1 174 204 286 -1 174 286 344 -1 176 206 252 -1 176 228 230 -1 176 230 178 -1 176 252 228 -1 178 230 404 -1 178 404 406 -1 180 196 1507 -1 182 1507 196 -1 184 214 194 -1 184 220 326 -1 184 260 214 -1 184 298 260 -1 184 326 328 -1 184 328 298 -1 198 280 224 -1 200 282 226 -1 200 344 282 -1 202 216 280 -1 204 218 286 -1 208 238 320 -1 208 320 210 -1 210 304 270 -1 210 308 304 -1 210 320 308 -1 216 240 292 -1 216 292 280 -1 218 242 286 -1 220 254 326 -1 224 280 232 -1 226 282 234 -1 230 306 404 -1 232 280 244 -1 234 282 246 -1 236 374 238 -1 236 1505 374 -1 238 374 320 -1 240 248 292 -1 242 250 286 -1 244 272 262 -1 244 280 272 -1 246 274 264 -1 246 282 274 -1 248 266 292 -1 250 268 286 -1 254 288 326 -1 266 276 292 -1 268 278 286 -1 276 284 292 -1 282 344 294 -1 284 300 312 -1 284 312 292 -1 286 302 344 -1 288 292 312 -1 288 312 314 -1 288 314 326 -1 290 294 316 -1 290 316 318 -1 294 344 316 -1 296 322 324 -1 296 324 338 -1 296 338 340 -1 296 340 300 -1 298 328 344 -1 298 344 302 -1 300 340 312 -1 304 308 310 -1 304 310 306 -1 306 310 526 -1 306 494 404 -1 306 526 528 -1 306 528 494 -1 310 372 526 -1 314 386 326 -1 316 344 345 -1 322 410 396 -1 326 386 400 -1 328 342 344 -1 330 336 351 -1 332 478 1507 -1 334 464 514 -1 334 514 516 -1 334 516 490 -1 336 349 351 -1 347 394 370 -1 353 398 355 -1 355 398 390 -1 357 376 359 -1 357 380 412 -1 357 412 428 -1 357 416 376 -1 357 428 444 -1 357 436 416 -1 357 444 452 -1 357 448 436 -1 357 452 448 -1 361 402 363 -1 363 392 364 -1 363 402 696 -1 363 510 392 -1 363 696 768 -1 363 768 826 -1 363 826 862 -1 363 862 510 -1 366 378 368 -1 366 382 414 -1 366 414 430 -1 366 418 378 -1 366 430 446 -1 366 438 418 -1 366 446 454 -1 366 450 438 -1 366 454 450 -1 370 394 466 -1 370 466 372 -1 372 466 526 -1 374 1505 384 -1 384 522 456 -1 384 1505 522 -1 386 462 400 -1 390 398 432 -1 392 510 512 -1 392 512 434 -1 396 410 500 -1 396 500 502 -1 396 502 504 -1 396 504 398 -1 398 504 432 -1 400 462 508 -1 400 508 572 -1 400 572 628 -1 400 628 402 -1 402 628 696 -1 406 440 442 -1 420 492 422 -1 422 492 484 -1 424 468 426 -1 424 470 518 -1 424 518 544 -1 424 520 468 -1 424 544 566 -1 424 548 520 -1 424 566 570 -1 424 568 548 -1 424 570 568 -1 432 504 458 -1 434 512 460 -1 458 504 536 -1 458 536 480 -1 460 512 540 -1 460 540 482 -1 462 486 506 -1 462 506 508 -1 464 488 514 -1 466 472 526 -1 472 534 550 -1 472 550 552 -1 472 552 526 -1 474 496 528 -1 474 498 476 -1 474 528 564 -1 474 530 498 -1 474 564 530 -1 478 588 644 -1 478 644 1507 -1 480 536 486 -1 482 514 488 -1 482 540 514 -1 484 492 546 -1 486 536 538 -1 486 538 506 -1 490 516 574 -1 490 574 632 -1 490 632 700 -1 490 638 640 -1 490 640 492 -1 490 700 828 -1 490 828 864 -1 490 864 912 -1 490 912 958 -1 490 958 638 -1 492 640 546 -1 494 528 496 -1 498 530 532 -1 498 532 500 -1 500 532 972 -1 500 578 502 -1 500 656 578 -1 500 668 656 -1 500 772 668 -1 500 818 772 -1 500 866 818 -1 500 920 866 -1 500 972 920 -1 510 862 910 -1 510 910 954 -1 510 954 582 -1 514 540 542 -1 522 1505 524 -1 524 606 594 -1 524 610 606 -1 524 616 610 -1 524 676 616 -1 524 1505 676 -1 526 552 598 -1 528 562 564 -1 532 604 972 -1 534 576 550 -1 546 640 586 -1 552 608 702 -1 552 618 598 -1 552 686 618 -1 552 702 686 -1 554 580 556 -1 556 580 656 -1 558 584 560 -1 560 584 658 -1 572 626 628 -1 572 648 626 -1 574 630 632 -1 574 652 630 -1 578 656 580 -1 582 658 584 -1 582 954 658 -1 586 640 682 -1 586 682 596 -1 588 614 642 -1 588 642 644 -1 590 600 620 -1 590 602 592 -1 590 620 636 -1 590 622 602 -1 590 636 622 -1 596 682 614 -1 598 618 620 -1 598 620 600 -1 602 622 624 -1 602 624 604 -1 604 624 972 -1 606 610 612 -1 606 612 608 -1 608 612 810 -1 608 794 702 -1 608 810 812 -1 608 812 794 -1 612 666 810 -1 614 682 642 -1 620 634 636 -1 624 692 972 -1 626 648 650 -1 630 652 654 -1 638 958 960 -1 638 960 776 -1 640 680 682 -1 644 782 1507 -1 646 684 664 -1 658 954 672 -1 660 688 704 -1 660 690 662 -1 660 704 730 -1 660 706 690 -1 660 730 706 -1 664 684 732 -1 664 732 666 -1 666 732 810 -1 668 710 714 -1 668 714 670 -1 668 718 710 -1 668 738 718 -1 668 772 738 -1 670 714 694 -1 672 698 674 -1 672 712 716 -1 672 716 698 -1 672 720 712 -1 672 740 720 -1 672 774 740 -1 672 954 956 -1 672 956 774 -1 676 1505 678 -1 678 792 726 -1 678 1505 792 -1 686 702 704 -1 686 704 688 -1 690 706 708 -1 690 708 692 -1 692 708 970 -1 692 970 972 -1 694 714 734 -1 694 734 696 -1 696 734 768 -1 698 716 736 -1 698 736 700 -1 700 736 770 -1 700 770 828 -1 704 728 730 -1 708 800 970 -1 722 778 834 -1 722 780 724 -1 722 834 844 -1 722 844 780 -1 732 746 810 -1 742 752 900 -1 742 900 748 -1 744 754 898 -1 744 898 750 -1 746 804 806 -1 746 806 808 -1 746 808 810 -1 748 900 756 -1 750 898 758 -1 752 760 900 -1 754 762 898 -1 756 900 934 -1 756 934 986 -1 756 986 784 -1 758 898 786 -1 760 788 900 -1 762 790 898 -1 764 796 812 -1 764 798 766 -1 764 812 850 -1 764 814 798 -1 764 850 814 -1 774 956 820 -1 776 890 778 -1 776 960 984 -1 776 984 890 -1 778 846 834 -1 778 890 846 -1 780 844 884 -1 780 884 782 -1 782 884 978 -1 782 978 1072 -1 782 1072 1507 -1 784 986 830 -1 786 898 832 -1 788 822 900 -1 790 824 898 -1 792 1505 802 -1 794 812 796 -1 798 814 816 -1 798 816 800 -1 800 816 970 -1 802 904 874 -1 802 926 928 -1 802 928 952 -1 802 930 904 -1 802 952 930 -1 802 1505 926 -1 804 852 806 -1 808 906 810 -1 810 906 932 -1 810 932 938 -1 812 848 850 -1 816 944 970 -1 820 956 868 -1 822 840 900 -1 824 842 916 -1 824 916 898 -1 830 986 836 -1 832 898 838 -1 836 986 854 -1 838 898 856 -1 840 858 900 -1 842 860 916 -1 854 886 870 -1 854 896 886 -1 854 986 896 -1 856 888 872 -1 856 898 888 -1 858 876 900 -1 860 878 916 -1 868 956 922 -1 876 892 900 -1 878 894 916 -1 880 940 964 -1 880 942 882 -1 880 964 996 -1 880 966 942 -1 880 996 966 -1 894 902 916 -1 896 986 914 -1 902 936 958 -1 902 958 916 -1 904 930 932 -1 904 932 906 -1 908 924 1186 -1 908 1186 918 -1 910 914 954 -1 912 916 958 -1 914 986 954 -1 918 1186 946 -1 920 972 986 -1 920 986 934 -1 922 956 974 -1 922 974 976 -1 922 976 990 -1 922 990 992 -1 922 992 936 -1 924 948 1186 -1 926 1505 1004 -1 928 950 952 -1 932 998 938 -1 936 992 958 -1 938 962 964 -1 938 964 940 -1 938 998 962 -1 942 966 968 -1 942 968 944 -1 944 968 970 -1 946 1186 1000 -1 948 1002 1186 -1 954 986 988 -1 956 1036 974 -1 960 1038 1234 -1 960 1068 984 -1 960 1140 1068 -1 960 1206 1140 -1 960 1234 1206 -1 962 998 1044 -1 964 994 996 -1 968 1050 970 -1 970 1050 1505 -1 970 1505 1052 -1 974 1036 1112 -1 974 1112 1148 -1 974 1148 1056 -1 980 1006 982 -1 982 1006 1120 -1 998 1088 1090 -1 998 1090 1044 -1 998 1116 1088 -1 1000 1186 1074 -1 1002 1070 1186 -1 1004 1120 1006 -1 1004 1505 1120 -1 1008 1054 1010 -1 1010 1054 1040 -1 1012 1028 1014 -1 1012 1032 1060 -1 1012 1060 1076 -1 1012 1064 1028 -1 1012 1076 1092 -1 1012 1084 1064 -1 1012 1092 1100 -1 1012 1096 1084 -1 1012 1100 1096 -1 1016 1058 1018 -1 1018 1058 1042 -1 1020 1030 1022 -1 1020 1034 1062 -1 1020 1062 1078 -1 1020 1066 1030 -1 1020 1078 1094 -1 1020 1086 1066 -1 1020 1094 1102 -1 1020 1098 1086 -1 1020 1102 1098 -1 1024 1046 1026 -1 1026 1046 1336 -1 1026 1336 1354 -1 1026 1354 1396 -1 1026 1396 1048 -1 1038 1114 1234 -1 1040 1054 1080 -1 1042 1058 1082 -1 1044 1090 1164 -1 1044 1164 1046 -1 1046 1164 1174 -1 1046 1174 1226 -1 1046 1226 1266 -1 1046 1266 1336 -1 1048 1396 1416 -1 1048 1416 1050 -1 1050 1416 1454 -1 1050 1454 1505 -1 1052 1505 1054 -1 1054 1142 1144 -1 1054 1144 1080 -1 1054 1505 1142 -1 1056 1148 1210 -1 1056 1150 1152 -1 1056 1152 1058 -1 1056 1210 1244 -1 1056 1244 1150 -1 1058 1152 1082 -1 1070 1106 1200 -1 1070 1200 1186 -1 1072 1138 1507 -1 1074 1186 1104 -1 1080 1144 1108 -1 1082 1152 1110 -1 1088 1116 1118 -1 1104 1186 1126 -1 1106 1132 1200 -1 1108 1144 1176 -1 1108 1176 1122 -1 1110 1152 1180 -1 1110 1180 1124 -1 1112 1128 1146 -1 1112 1146 1148 -1 1114 1130 1154 -1 1114 1154 1156 -1 1114 1156 1234 -1 1120 1505 1134 -1 1122 1176 1178 -1 1122 1178 1128 -1 1124 1180 1130 -1 1126 1166 1158 -1 1126 1186 1166 -1 1128 1178 1146 -1 1130 1180 1182 -1 1130 1182 1154 -1 1132 1160 1200 -1 1134 1162 1136 -1 1134 1168 1170 -1 1134 1170 1204 -1 1134 1172 1162 -1 1134 1204 1172 -1 1134 1505 1168 -1 1138 1198 1507 -1 1142 1505 1218 -1 1150 1244 1222 -1 1156 1212 1234 -1 1160 1184 1200 -1 1162 1172 1174 -1 1162 1174 1164 -1 1168 1505 1228 -1 1170 1202 1204 -1 1184 1188 1200 -1 1188 1208 1200 -1 1190 1220 1192 -1 1192 1220 1276 -1 1194 1224 1196 -1 1196 1224 1278 -1 1198 1200 1238 -1 1198 1238 1507 -1 1200 1208 1284 -1 1200 1236 1238 -1 1200 1284 1286 -1 1200 1286 1236 -1 1206 1232 1208 -1 1206 1234 1232 -1 1208 1232 1240 -1 1208 1240 1388 -1 1208 1330 1284 -1 1208 1346 1330 -1 1208 1368 1346 -1 1208 1380 1368 -1 1208 1388 1380 -1 1210 1242 1244 -1 1210 1268 1242 -1 1212 1246 1248 -1 1212 1248 1234 -1 1212 1272 1246 -1 1214 1230 1216 -1 1216 1230 1306 -1 1218 1276 1220 -1 1218 1505 1276 -1 1222 1244 1278 -1 1222 1278 1224 -1 1226 1264 1266 -1 1226 1302 1264 -1 1228 1306 1230 -1 1228 1505 1306 -1 1234 1248 1260 -1 1236 1286 1250 -1 1238 1254 1507 -1 1240 1252 1300 -1 1240 1300 1322 -1 1240 1322 1342 -1 1240 1342 1366 -1 1240 1366 1378 -1 1240 1378 1388 -1 1242 1268 1270 -1 1244 1316 1278 -1 1246 1272 1274 -1 1248 1320 1260 -1 1250 1262 1256 -1 1250 1286 1332 -1 1250 1288 1262 -1 1250 1308 1288 -1 1250 1324 1308 -1 1250 1332 1340 -1 1250 1338 1324 -1 1250 1340 1358 -1 1250 1356 1338 -1 1250 1358 1364 -1 1250 1362 1356 -1 1250 1364 1370 -1 1250 1370 1362 -1 1252 1258 1282 -1 1252 1282 1300 -1 1254 1280 1507 -1 1260 1320 1328 -1 1264 1302 1304 -1 1276 1505 1290 -1 1278 1316 1294 -1 1280 1298 1507 -1 1290 1314 1292 -1 1290 1505 1314 -1 1294 1316 1505 -1 1294 1318 1296 -1 1294 1505 1318 -1 1298 1326 1507 -1 1306 1505 1310 -1 1310 1334 1312 -1 1310 1348 1350 -1 1310 1350 1374 -1 1310 1352 1334 -1 1310 1374 1352 -1 1310 1505 1348 -1 1314 1505 1316 -1 1318 1505 1320 -1 1320 1360 1328 -1 1320 1394 1360 -1 1320 1418 1394 -1 1320 1500 1418 -1 1320 1505 1500 -1 1326 1390 1507 -1 1334 1352 1354 -1 1334 1354 1336 -1 1344 1382 1376 -1 1348 1505 1398 -1 1350 1372 1374 -1 1376 1382 1402 -1 1376 1402 1392 -1 1384 1400 1386 -1 1386 1400 1430 -1 1390 1406 1424 -1 1390 1424 1507 -1 1392 1402 1466 -1 1392 1466 1404 -1 1394 1418 1420 -1 1394 1420 1408 -1 1396 1414 1416 -1 1396 1426 1414 -1 1398 1430 1400 -1 1398 1505 1430 -1 1402 1410 1466 -1 1404 1422 1406 -1 1404 1432 1422 -1 1404 1466 1472 -1 1404 1472 1478 -1 1404 1478 1482 -1 1404 1482 1432 -1 1406 1422 1424 -1 1408 1420 1442 -1 1408 1442 1412 -1 1410 1412 1460 -1 1410 1460 1466 -1 1412 1442 1460 -1 1414 1426 1428 -1 1424 1446 1507 -1 1430 1505 1438 -1 1432 1444 1436 -1 1432 1450 1444 -1 1432 1456 1450 -1 1432 1462 1456 -1 1432 1468 1462 -1 1432 1476 1468 -1 1432 1480 1476 -1 1432 1482 1484 -1 1432 1484 1480 -1 1434 1502 1448 -1 1438 1452 1440 -1 1438 1505 1452 -1 1446 1464 1507 -1 1448 1502 1458 -1 1452 1505 1454 -1 1458 1502 1470 -1 1464 1474 1507 -1 1470 1502 1486 -1 1474 1488 1507 -1 1486 1502 1507 -1 1486 1507 1490 -1 1488 1494 1507 -1 1490 1507 1492 -1 1492 1507 1496 -1 1494 1498 1507 -1 1496 1507 1498 -1 1500 1505 1502 -1 1502 1505 1507 -1 1504 1506 1505 -1 1505 1506 1507 -1 "
						                >
							<Coordinate DEF="coords_ME_OpenSCAD_Model"
							            point="0.000000 0.000000 0.000000 0.000000 0.000000 1.000000 0.000000 1.000000 0.000000 0.000000 1.000000 1.000000 0.275204 0.714285 1.000000 0.275204 0.714285 1.200000 0.275204 0.718906 1.000000 0.275204 0.718906 1.200000 0.275204 0.826583 1.000000 0.275204 0.826583 1.200000 0.275204 0.831204 1.000000 0.275204 0.831204 1.200000 0.290201 0.721260 1.000000 0.290201 0.721260 1.200000 0.290201 0.758165 1.000000 0.290201 0.824315 1.000000 0.290201 0.824315 1.200000 0.299355 0.721260 1.000000 0.299355 0.721260 1.200000 0.299355 0.814813 1.000000 0.299355 0.814813 1.200000 0.310603 0.831204 1.000000 0.310603 0.831204 1.200000 0.315049 0.714285 1.000000 0.315049 0.714285 1.200000 0.315049 0.718906 1.000000 0.315049 0.718906 1.200000 0.327895 0.747794 1.000000 0.328369 0.205244 1.000000 0.328369 0.205244 1.200000 0.328369 0.207812 1.000000 0.328369 0.207812 1.200000 0.335683 0.203984 1.000000 0.335683 0.203984 1.200000 0.342164 0.714285 1.000000 0.342164 0.714285 1.200000 0.345215 0.714285 1.000000 0.345215 0.714285 1.200000 0.347082 0.889229 1.000000 0.347082 0.889229 1.200000 0.347114 0.203984 1.000000 0.347114 0.203984 1.200000 0.348180 0.142857 1.000000 0.348180 0.142857 1.200000 0.348180 0.145424 1.000000 0.348180 0.145424 1.200000 0.348616 0.742273 1.000000 0.348616 0.742273 1.200000 0.350090 0.873272 1.000000 0.350090 0.873272 1.200000 0.350133 0.905618 1.000000 0.350133 0.905618 1.200000 0.355833 0.205244 1.000000 0.355833 0.205244 1.200000 0.355833 0.207812 1.000000 0.355833 0.207812 1.200000 0.358497 0.146732 1.000000 0.358497 0.146732 1.200000 0.358497 0.168141 1.000000 0.358497 0.168141 1.200000 0.359112 0.859580 1.000000 0.359112 0.859580 1.200000 0.359286 0.919217 1.000000 0.359286 0.919217 1.200000 0.365763 0.174002 1.000000 0.365763 0.174002 1.200000 0.367846 0.146732 1.000000 0.367846 0.146732 1.200000 0.367846 0.168432 1.000000 0.367846 0.168432 1.200000 0.372671 0.850165 1.000000 0.372671 0.850165 1.200000 0.372889 0.928374 1.000000 0.372889 0.928374 1.200000 0.375256 0.205244 1.000000 0.375256 0.205244 1.200000 0.375256 0.207812 1.000000 0.375256 0.207812 1.200000 0.376168 0.714285 1.000000 0.376168 0.714285 1.200000 0.376168 0.718906 1.000000 0.376168 0.718906 1.200000 0.378163 0.142857 1.000000 0.378163 0.142857 1.200000 0.378163 0.145424 1.000000 0.378163 0.145424 1.200000 0.383491 0.203984 1.000000 0.383491 0.203984 1.200000 0.389255 0.203984 1.000000 0.389255 0.203984 1.200000 0.389280 0.847026 1.000000 0.389280 0.847026 1.200000 0.389280 0.931426 1.000000 0.389280 0.931426 1.200000 0.390118 0.831204 1.000000 0.390118 0.831204 1.200000 0.391861 0.721260 1.000000 0.391861 0.721260 1.200000 0.391861 0.814813 1.000000 0.391861 0.814813 1.200000 0.396375 0.205244 1.000000 0.396375 0.205244 1.200000 0.396375 0.207812 1.000000 0.396375 0.207812 1.200000 0.400013 0.205244 1.000000 0.400013 0.205244 1.200000 0.400013 0.207812 1.000000 0.400013 0.207812 1.200000 0.405669 0.928374 1.000000 0.405669 0.928374 1.200000 0.405887 0.850165 1.000000 0.405887 0.850165 1.200000 0.407326 0.203984 1.000000 0.407326 0.203984 1.200000 0.408601 0.721260 1.000000 0.408601 0.721260 1.200000 0.408601 0.824315 1.000000 0.408601 0.824315 1.200000 0.411081 0.460297 1.000000 0.411081 0.460297 1.200000 0.411081 0.603155 1.000000 0.411081 0.603155 1.200000 0.413200 0.475016 1.000000 0.413200 0.475016 1.200000 0.413200 0.617873 1.000000 0.413200 0.617873 1.200000 0.413285 0.446523 1.000000 0.413285 0.446523 1.200000 0.413285 0.589380 1.000000 0.413285 0.589380 1.200000 0.418758 0.203984 1.000000 0.418758 0.203984 1.200000 0.419268 0.919217 1.000000 0.419268 0.919217 1.200000 0.419442 0.859580 1.000000 0.419442 0.859580 1.200000 0.419557 0.485655 1.000000 0.419557 0.485655 1.200000 0.419557 0.628512 1.000000 0.419557 0.628512 1.200000 0.419823 0.142857 1.000000 0.419823 0.142857 1.200000 0.419823 0.145424 1.000000 0.419823 0.145424 1.200000 0.419897 0.436200 1.000000 0.419897 0.436200 1.200000 0.419897 0.579057 1.000000 0.419897 0.579057 1.200000 0.421204 0.460395 1.000000 0.421204 0.460395 1.200000 0.421204 0.603252 1.000000 0.421204 0.603252 1.200000 0.422633 0.473739 1.000000 0.422633 0.473739 1.200000 0.422633 0.616596 1.000000 0.422633 0.616596 1.200000 0.422700 0.447922 1.000000 0.422700 0.447922 1.200000 0.422700 0.590779 1.000000 0.422700 0.590779 1.200000 0.423598 0.714285 1.000000 0.423598 0.714285 1.200000 0.423598 0.718906 1.000000 0.423598 0.718906 1.200000 0.423598 0.826583 1.000000 0.423598 0.826583 1.200000 0.423598 0.831204 1.000000 0.423598 0.831204 1.200000 0.426920 0.483063 1.000000 0.426920 0.483063 1.200000 0.426920 0.625920 1.000000 0.426920 0.625920 1.200000 0.427187 0.438791 1.000000 0.427187 0.438791 1.200000 0.427187 0.581648 1.000000 0.427187 0.581648 1.200000 0.427476 0.205244 1.000000 0.427476 0.205244 1.200000 0.427476 0.207812 1.000000 0.427476 0.207812 1.200000 0.428424 0.905618 1.000000 0.428424 0.905618 1.200000 0.428468 0.873272 1.000000 0.428468 0.873272 1.200000 0.430081 0.492103 1.000000 0.430081 0.492103 1.200000 0.430081 0.634960 1.000000 0.430081 0.634960 1.200000 0.430141 0.146732 1.000000 0.430141 0.146732 1.200000 0.430141 0.168141 1.000000 0.430141 0.168141 1.200000 0.430456 0.429752 1.000000 0.430456 0.429752 1.200000 0.430456 0.572609 1.000000 0.430456 0.572609 1.200000 0.431477 0.889229 1.000000 0.431477 0.889229 1.200000 0.434319 0.488549 1.000000 0.434319 0.488549 1.200000 0.434319 0.631406 1.000000 0.434319 0.631406 1.200000 0.434531 0.433196 1.000000 0.434531 0.433196 1.200000 0.434531 0.576054 1.000000 0.434531 0.576054 1.200000 0.437406 0.174002 1.000000 0.437406 0.174002 1.200000 0.439489 0.146732 1.000000 0.439489 0.146732 1.200000 0.439489 0.168432 1.000000 0.439489 0.168432 1.200000 0.444503 0.427602 1.000000 0.444503 0.427602 1.200000 0.444503 0.570460 1.000000 0.444503 0.570460 1.200000 0.444600 0.431332 1.000000 0.444600 0.431332 1.200000 0.444600 0.574189 1.000000 0.444600 0.574189 1.200000 0.444697 0.494252 1.000000 0.444697 0.494252 1.200000 0.444697 0.637110 1.000000 0.444697 0.637110 1.200000 0.445085 0.490377 1.000000 0.445085 0.490377 1.200000 0.445085 0.633235 1.000000 0.445085 0.633235 1.200000 0.446900 0.205244 1.000000 0.446900 0.205244 1.200000 0.446900 0.207812 1.000000 0.446900 0.207812 1.200000 0.449692 0.490093 1.000000 0.449692 0.490093 1.200000 0.449692 0.632950 1.000000 0.449692 0.632950 1.200000 0.449806 0.142857 1.000000 0.449806 0.142857 1.200000 0.449806 0.145424 1.000000 0.449806 0.145424 1.200000 0.449964 0.431665 1.000000 0.449964 0.431665 1.200000 0.449964 0.574522 1.000000 0.449964 0.574522 1.200000 0.454215 0.489239 1.000000 0.454215 0.489239 1.200000 0.454215 0.632096 1.000000 0.454215 0.632096 1.200000 0.455014 0.432664 1.000000 0.455014 0.432664 1.200000 0.455014 0.575521 1.000000 0.455014 0.575521 1.200000 0.455134 0.203984 1.000000 0.455134 0.203984 1.200000 0.455196 0.493635 1.000000 0.455196 0.493635 1.200000 0.455196 0.636492 1.000000 0.455196 0.636492 1.200000 0.456358 0.428365 1.000000 0.456358 0.428365 1.200000 0.456358 0.571222 1.000000 0.456358 0.571222 1.200000 0.458423 0.487865 1.000000 0.458423 0.487865 1.200000 0.458423 0.630722 1.000000 0.458423 0.630722 1.200000 0.459397 0.434220 1.000000 0.459397 0.434220 1.200000 0.459397 0.577077 1.000000 0.459397 0.577077 1.200000 0.460898 0.203984 1.000000 0.460898 0.203984 1.200000 0.462086 0.486018 1.000000 0.462086 0.486018 1.200000 0.462086 0.628875 1.000000 0.462086 0.628875 1.200000 0.462764 0.436224 1.000000 0.462764 0.436224 1.200000 0.462764 0.579081 1.000000 0.462764 0.579081 1.200000 0.463539 0.477590 1.000000 0.463539 0.477590 1.200000 0.463539 0.620447 1.000000 0.463539 0.620447 1.200000 0.464556 0.445912 1.000000 0.464556 0.445912 1.200000 0.464556 0.588769 1.000000 0.464556 0.588769 1.200000 0.466445 0.491782 1.000000 0.466445 0.491782 1.200000 0.466445 0.634639 1.000000 0.466445 0.634639 1.200000 0.466736 0.477590 1.000000 0.466736 0.477590 1.200000 0.466736 0.620447 1.000000 0.466736 0.620447 1.200000 0.467414 0.430654 1.000000 0.467414 0.430654 1.200000 0.467414 0.573511 1.000000 0.467414 0.573511 1.200000 0.467705 0.445912 1.000000 0.467705 0.445912 1.200000 0.467705 0.588769 1.000000 0.467705 0.588769 1.200000 0.468018 0.205244 1.000000 0.468018 0.205244 1.200000 0.468018 0.207812 1.000000 0.468018 0.207812 1.200000 0.470639 0.205244 1.000000 0.470639 0.205244 1.200000 0.470639 0.207812 1.000000 0.470639 0.207812 1.200000 0.476040 0.490959 1.000000 0.476040 0.490959 1.200000 0.476040 0.493526 1.000000 0.476040 0.493526 1.200000 0.476040 0.633816 1.000000 0.476040 0.633816 1.200000 0.476040 0.636383 1.000000 0.476040 0.636383 1.200000 0.476306 0.203984 1.000000 0.476306 0.203984 1.200000 0.476670 0.428571 1.000000 0.476670 0.428571 1.200000 0.476670 0.431138 1.000000 0.476670 0.431138 1.200000 0.476670 0.571428 1.000000 0.476670 0.571428 1.200000 0.476670 0.573995 1.000000 0.476670 0.573995 1.200000 0.478626 0.826583 1.000000 0.478626 0.826583 1.200000 0.478626 0.831204 1.000000 0.478626 0.831204 1.200000 0.479760 0.714285 1.000000 0.479760 0.714285 1.200000 0.479760 0.718906 1.000000 0.479760 0.718906 1.200000 0.484372 0.432446 1.000000 0.484372 0.432446 1.200000 0.484372 0.489699 1.000000 0.484372 0.489699 1.200000 0.484372 0.575303 1.000000 0.484372 0.575303 1.200000 0.484372 0.596356 1.000000 0.484372 0.632556 1.000000 0.484372 0.632556 1.200000 0.485897 0.203984 1.000000 0.485897 0.203984 1.200000 0.493623 0.721260 1.000000 0.493623 0.721260 1.200000 0.493623 0.824315 1.000000 0.493623 0.824315 1.200000 0.493720 0.432446 1.000000 0.493720 0.432446 1.200000 0.493720 0.454049 1.000000 0.493720 0.454049 1.200000 0.493720 0.458409 1.000000 0.493720 0.458409 1.200000 0.493720 0.489166 1.000000 0.493720 0.489166 1.200000 0.493720 0.575303 1.000000 0.493720 0.575303 1.200000 0.493720 0.588566 1.000000 0.493720 0.596906 1.000000 0.493720 0.596906 1.200000 0.493720 0.601266 1.000000 0.493720 0.601266 1.200000 0.493720 0.632023 1.000000 0.493720 0.632023 1.200000 0.495439 0.205244 1.000000 0.495439 0.205244 1.200000 0.495439 0.207812 1.000000 0.495439 0.207812 1.200000 0.497812 0.141355 1.000000 0.497812 0.141355 1.200000 0.498467 0.489166 1.000000 0.498467 0.489166 1.200000 0.498467 0.632023 1.000000 0.498467 0.632023 1.200000 0.498757 0.458409 1.000000 0.498757 0.458409 1.200000 0.498757 0.601266 1.000000 0.498757 0.601266 1.200000 0.500380 0.141355 1.000000 0.500380 0.141355 1.200000 0.500549 0.493526 1.000000 0.500549 0.493526 1.200000 0.500549 0.636383 1.000000 0.500549 0.636383 1.200000 0.501034 0.454049 1.000000 0.501034 0.454049 1.200000 0.501034 0.596906 1.000000 0.501034 0.596906 1.200000 0.501348 0.158212 1.000000 0.501348 0.158212 1.200000 0.504037 0.428571 1.000000 0.504037 0.428571 1.200000 0.504037 0.431138 1.000000 0.504037 0.431138 1.200000 0.504037 0.571428 1.000000 0.504037 0.571428 1.200000 0.504037 0.573995 1.000000 0.504037 0.573995 1.200000 0.504475 0.285714 1.000000 0.504475 0.285714 1.200000 0.504475 0.288281 1.000000 0.504475 0.288281 1.200000 0.504475 0.348102 1.000000 0.504475 0.348102 1.200000 0.504475 0.350669 1.000000 0.504475 0.350669 1.200000 0.505871 0.459341 1.000000 0.505871 0.459341 1.200000 0.505871 0.602198 1.000000 0.505871 0.602198 1.200000 0.506011 0.488306 1.000000 0.506011 0.488306 1.200000 0.506011 0.631163 1.000000 0.506011 0.631163 1.200000 0.510450 0.721260 1.000000 0.510450 0.721260 1.200000 0.510450 0.760145 1.000000 0.510450 0.760145 1.200000 0.510450 0.767993 1.000000 0.510450 0.767993 1.200000 0.510450 0.823356 1.000000 0.510450 0.823356 1.200000 0.510842 0.462138 1.000000 0.510842 0.462138 1.200000 0.510842 0.604995 1.000000 0.510842 0.604995 1.200000 0.511006 0.455345 1.000000 0.511006 0.455345 1.200000 0.511006 0.598202 1.000000 0.511006 0.598202 1.200000 0.511012 0.485727 1.000000 0.511012 0.485727 1.200000 0.511012 0.628584 1.000000 0.511012 0.628584 1.200000 0.512806 0.289589 1.000000 0.512806 0.289589 1.200000 0.512806 0.346842 1.000000 0.512806 0.346842 1.200000 0.513767 0.467043 1.000000 0.513767 0.467043 1.200000 0.513767 0.609900 1.000000 0.513767 0.609900 1.200000 0.513809 0.481150 1.000000 0.513809 0.481150 1.200000 0.513809 0.624007 1.000000 0.513809 0.624007 1.200000 0.514742 0.474296 1.000000 0.514742 0.474296 1.200000 0.514742 0.617153 1.000000 0.514742 0.617153 1.200000 0.517672 0.186112 1.000000 0.517672 0.186112 1.200000 0.518350 0.459232 1.000000 0.518350 0.459232 1.200000 0.518350 0.602089 1.000000 0.518350 0.602089 1.200000 0.518423 0.488743 1.000000 0.518423 0.488743 1.200000 0.518423 0.631600 1.000000 0.518423 0.631600 1.200000 0.518834 0.203258 1.000000 0.518834 0.203258 1.200000 0.518994 0.823356 1.000000 0.518994 0.823356 1.200000 0.519517 0.767993 1.000000 0.519517 0.767993 1.200000 0.521014 0.203258 1.000000 0.521014 0.203258 1.200000 0.522106 0.289589 1.000000 0.522106 0.289589 1.200000 0.522106 0.346842 1.000000 0.522106 0.346842 1.200000 0.522743 0.831204 1.000000 0.522743 0.831204 1.200000 0.522873 0.465613 1.000000 0.522873 0.465613 1.200000 0.522873 0.608471 1.000000 0.522873 0.608471 1.200000 0.523615 0.760145 1.000000 0.523615 0.760145 1.200000 0.524381 0.474393 1.000000 0.524381 0.474393 1.200000 0.524381 0.617250 1.000000 0.524381 0.617250 1.200000 0.529021 0.714285 1.000000 0.529021 0.714285 1.200000 0.529021 0.718906 1.000000 0.529021 0.718906 1.200000 0.530437 0.285714 1.000000 0.530437 0.285714 1.200000 0.530437 0.288281 1.000000 0.530437 0.288281 1.200000 0.530437 0.348102 1.000000 0.530437 0.348102 1.200000 0.530437 0.350669 1.000000 0.530437 0.350669 1.200000 0.531214 0.428571 1.000000 0.531214 0.428571 1.200000 0.531214 0.431138 1.000000 0.531214 0.431138 1.200000 0.531214 0.490959 1.000000 0.531214 0.490959 1.200000 0.531214 0.493526 1.000000 0.531214 0.493526 1.200000 0.531214 0.571428 1.000000 0.531214 0.571428 1.200000 0.531214 0.573995 1.000000 0.531214 0.573995 1.200000 0.531214 0.633816 1.000000 0.531214 0.633816 1.200000 0.531214 0.636383 1.000000 0.531214 0.636383 1.200000 0.532322 0.769672 1.000000 0.532322 0.769672 1.200000 0.532573 0.821809 1.000000 0.532573 0.821809 1.200000 0.534528 0.141355 1.000000 0.534528 0.141355 1.200000 0.537095 0.141355 1.000000 0.537095 0.141355 1.200000 0.537511 0.285714 1.000000 0.537511 0.285714 1.200000 0.537511 0.288281 1.000000 0.537511 0.288281 1.200000 0.537511 0.348102 1.000000 0.537511 0.348102 1.200000 0.537511 0.350669 1.000000 0.537511 0.350669 1.200000 0.537870 0.158212 1.000000 0.537870 0.158212 1.200000 0.539545 0.432446 1.000000 0.539545 0.432446 1.200000 0.539545 0.489699 1.000000 0.539545 0.489699 1.200000 0.539545 0.575303 1.000000 0.539545 0.575303 1.200000 0.539545 0.632556 1.000000 0.539545 0.632556 1.200000 0.541270 0.774706 1.000000 0.541270 0.774706 1.200000 0.541565 0.762478 1.000000 0.541565 0.762478 1.200000 0.541575 0.817166 1.000000 0.541575 0.817166 1.200000 0.542472 0.205244 1.000000 0.542472 0.205244 1.200000 0.542472 0.207812 1.000000 0.542472 0.207812 1.200000 0.544631 0.432446 1.000000 0.544631 0.432446 1.200000 0.544631 0.486987 1.000000 0.544631 0.486987 1.200000 0.544631 0.575303 1.000000 0.544631 0.575303 1.200000 0.544631 0.629844 1.000000 0.544631 0.629844 1.200000 0.545842 0.289589 1.000000 0.545842 0.289589 1.200000 0.545842 0.346842 1.000000 0.545842 0.346842 1.200000 0.546534 0.783534 1.000000 0.546534 0.783534 1.200000 0.546610 0.808927 1.000000 0.546610 0.808927 1.200000 0.548289 0.796590 1.000000 0.548289 0.796590 1.200000 0.550880 0.493526 1.000000 0.550880 0.493526 1.200000 0.550880 0.636383 1.000000 0.550880 0.636383 1.200000 0.552595 0.203984 1.000000 0.552595 0.203984 1.200000 0.553350 0.428571 1.000000 0.553350 0.428571 1.200000 0.553350 0.431138 1.000000 0.553350 0.431138 1.200000 0.553350 0.571428 1.000000 0.553350 0.571428 1.200000 0.553350 0.573995 1.000000 0.553350 0.573995 1.200000 0.554784 0.769475 1.000000 0.554784 0.769475 1.200000 0.554915 0.822594 1.000000 0.554915 0.822594 1.200000 0.555142 0.289589 1.000000 0.555142 0.289589 1.200000 0.555142 0.346842 1.000000 0.555142 0.346842 1.200000 0.558311 0.203984 1.000000 0.558311 0.203984 1.200000 0.562926 0.780962 1.000000 0.562926 0.780962 1.200000 0.563474 0.285714 1.000000 0.563474 0.285714 1.200000 0.563474 0.288281 1.000000 0.563474 0.288281 1.200000 0.563474 0.348102 1.000000 0.563474 0.348102 1.200000 0.563474 0.350669 1.000000 0.563474 0.350669 1.200000 0.563978 0.205244 1.000000 0.563978 0.205244 1.200000 0.563978 0.207812 1.000000 0.563978 0.207812 1.200000 0.564275 0.205244 1.000000 0.564275 0.205244 1.200000 0.564275 0.207812 1.000000 0.564275 0.207812 1.200000 0.565639 0.796765 1.000000 0.565639 0.796765 1.200000 0.569942 0.203984 1.000000 0.569942 0.203984 1.200000 0.570547 0.285714 1.000000 0.570547 0.285714 1.200000 0.570547 0.288281 1.000000 0.570547 0.288281 1.200000 0.570547 0.348102 1.000000 0.570547 0.348102 1.200000 0.570547 0.350669 1.000000 0.570547 0.350669 1.200000 0.575582 0.490959 1.000000 0.575582 0.490959 1.200000 0.575582 0.493526 1.000000 0.575582 0.493526 1.200000 0.575582 0.633816 1.000000 0.575582 0.633816 1.200000 0.575582 0.636383 1.000000 0.575582 0.636383 1.200000 0.578879 0.289589 1.000000 0.578879 0.289589 1.200000 0.578879 0.346842 1.000000 0.578879 0.346842 1.200000 0.579246 0.714285 1.000000 0.579246 0.714285 1.200000 0.579246 0.718906 1.000000 0.579246 0.718906 1.200000 0.579246 0.826583 1.000000 0.579246 0.826583 1.200000 0.579246 0.831204 1.000000 0.579246 0.831204 1.200000 0.579533 0.203984 1.000000 0.579533 0.203984 1.200000 0.584301 0.445427 1.000000 0.584301 0.445427 1.200000 0.584301 0.489699 1.000000 0.584301 0.489699 1.200000 0.584301 0.588285 1.000000 0.584301 0.588285 1.200000 0.584301 0.632556 1.000000 0.584301 0.632556 1.200000 0.584689 0.428571 1.000000 0.584689 0.428571 1.200000 0.584689 0.571428 1.000000 0.584689 0.571428 1.200000 0.588179 0.289589 1.000000 0.588179 0.289589 1.200000 0.588179 0.346842 1.000000 0.588179 0.346842 1.200000 0.589075 0.205244 1.000000 0.589075 0.205244 1.200000 0.589075 0.207812 1.000000 0.589075 0.207812 1.200000 0.589387 0.428571 1.000000 0.589387 0.428571 1.200000 0.589387 0.489699 1.000000 0.589387 0.489699 1.200000 0.589387 0.571428 1.000000 0.589387 0.571428 1.200000 0.589387 0.632556 1.000000 0.589387 0.632556 1.200000 0.591448 0.141355 1.000000 0.591448 0.141355 1.200000 0.594016 0.141355 1.000000 0.594016 0.141355 1.200000 0.594243 0.721260 1.000000 0.594243 0.721260 1.200000 0.594243 0.824315 1.000000 0.594243 0.824315 1.200000 0.594984 0.158212 1.000000 0.594984 0.158212 1.200000 0.596510 0.285714 1.000000 0.596510 0.285714 1.200000 0.596510 0.288281 1.000000 0.596510 0.288281 1.200000 0.596510 0.348102 1.000000 0.596510 0.348102 1.200000 0.596510 0.350669 1.000000 0.596510 0.350669 1.200000 0.597719 0.490959 1.000000 0.597719 0.490959 1.200000 0.597719 0.493526 1.000000 0.597719 0.493526 1.200000 0.597719 0.633816 1.000000 0.597719 0.633816 1.200000 0.597719 0.636383 1.000000 0.597719 0.636383 1.200000 0.603584 0.285714 1.000000 0.603584 0.285714 1.200000 0.603584 0.288281 1.000000 0.603584 0.288281 1.200000 0.603584 0.348102 1.000000 0.603584 0.348102 1.200000 0.603584 0.350669 1.000000 0.603584 0.350669 1.200000 0.604068 0.460297 1.000000 0.604068 0.460297 1.200000 0.604068 0.603155 1.000000 0.604068 0.603155 1.200000 0.606187 0.475016 1.000000 0.606187 0.475016 1.200000 0.606187 0.617873 1.000000 0.606187 0.617873 1.200000 0.606272 0.446523 1.000000 0.606272 0.446523 1.200000 0.606272 0.589380 1.000000 0.606272 0.589380 1.200000 0.610983 0.721260 1.000000 0.610983 0.721260 1.200000 0.610983 0.824315 1.000000 0.610983 0.824315 1.200000 0.611308 0.186112 1.000000 0.611308 0.186112 1.200000 0.611915 0.289589 1.000000 0.611915 0.289589 1.200000 0.611915 0.346842 1.000000 0.611915 0.346842 1.200000 0.612470 0.203258 1.000000 0.612470 0.203258 1.200000 0.612545 0.485655 1.000000 0.612545 0.485655 1.200000 0.612545 0.628512 1.000000 0.612545 0.628512 1.200000 0.612884 0.436200 1.000000 0.612884 0.436200 1.200000 0.612884 0.579057 1.000000 0.612884 0.579057 1.200000 0.614192 0.460395 1.000000 0.614192 0.460395 1.200000 0.614192 0.603252 1.000000 0.614192 0.603252 1.200000 0.614650 0.203258 1.000000 0.614650 0.203258 1.200000 0.615621 0.473739 1.000000 0.615621 0.473739 1.200000 0.615621 0.616596 1.000000 0.615621 0.616596 1.200000 0.615687 0.447922 1.000000 0.615687 0.447922 1.200000 0.615687 0.590779 1.000000 0.615687 0.590779 1.200000 0.619907 0.483063 1.000000 0.619907 0.483063 1.200000 0.619907 0.625920 1.000000 0.619907 0.625920 1.200000 0.620174 0.438791 1.000000 0.620174 0.438791 1.200000 0.620174 0.581648 1.000000 0.620174 0.581648 1.200000 0.621215 0.289589 1.000000 0.621215 0.289589 1.200000 0.621215 0.346842 1.000000 0.621215 0.346842 1.200000 0.623068 0.492103 1.000000 0.623068 0.492103 1.200000 0.623068 0.634960 1.000000 0.623068 0.634960 1.200000 0.623443 0.429752 1.000000 0.623443 0.429752 1.200000 0.623443 0.572609 1.000000 0.623443 0.572609 1.200000 0.625979 0.714285 1.000000 0.625979 0.714285 1.200000 0.625979 0.718906 1.000000 0.625979 0.718906 1.200000 0.625979 0.826583 1.000000 0.625979 0.826583 1.200000 0.625979 0.831204 1.000000 0.625979 0.831204 1.200000 0.627306 0.488549 1.000000 0.627306 0.488549 1.200000 0.627306 0.631406 1.000000 0.627306 0.631406 1.200000 0.627518 0.433196 1.000000 0.627518 0.433196 1.200000 0.627518 0.576054 1.000000 0.627518 0.576054 1.200000 0.628163 0.141355 1.000000 0.628163 0.141355 1.200000 0.629547 0.285714 1.000000 0.629547 0.285714 1.200000 0.629547 0.288281 1.000000 0.629547 0.288281 1.200000 0.629547 0.348102 1.000000 0.629547 0.348102 1.200000 0.629547 0.350669 1.000000 0.629547 0.350669 1.200000 0.630731 0.141355 1.000000 0.630731 0.141355 1.200000 0.631506 0.158212 1.000000 0.631506 0.158212 1.200000 0.636108 0.205244 1.000000 0.636108 0.205244 1.200000 0.636108 0.207812 1.000000 0.636108 0.207812 1.200000 0.636620 0.285714 1.000000 0.636620 0.285714 1.200000 0.636620 0.288281 1.000000 0.636620 0.288281 1.200000 0.636620 0.348102 1.000000 0.636620 0.348102 1.200000 0.636620 0.350669 1.000000 0.636620 0.350669 1.200000 0.637490 0.427602 1.000000 0.637490 0.427602 1.200000 0.637490 0.570460 1.000000 0.637490 0.570460 1.200000 0.637587 0.431332 1.000000 0.637587 0.431332 1.200000 0.637587 0.574189 1.000000 0.637587 0.574189 1.200000 0.637684 0.494252 1.000000 0.637684 0.494252 1.200000 0.637684 0.637110 1.000000 0.637684 0.637110 1.200000 0.638072 0.490377 1.000000 0.638072 0.490377 1.200000 0.638072 0.633235 1.000000 0.638072 0.633235 1.200000 0.639583 0.771393 1.000000 0.639583 0.771393 1.200000 0.642679 0.490093 1.000000 0.642679 0.490093 1.200000 0.642679 0.632950 1.000000 0.642679 0.632950 1.200000 0.642951 0.431665 1.000000 0.642951 0.431665 1.200000 0.642951 0.574522 1.000000 0.642951 0.574522 1.200000 0.643398 0.797887 1.000000 0.643398 0.797887 1.200000 0.643551 0.746599 1.000000 0.643551 0.746599 1.200000 0.644952 0.289589 1.000000 0.644952 0.289589 1.200000 0.644952 0.346842 1.000000 0.644952 0.346842 1.200000 0.646231 0.203984 1.000000 0.646231 0.203984 1.200000 0.647202 0.489239 1.000000 0.647202 0.489239 1.200000 0.647202 0.632096 1.000000 0.647202 0.632096 1.200000 0.648001 0.432664 1.000000 0.648001 0.432664 1.200000 0.648001 0.575521 1.000000 0.648001 0.575521 1.200000 0.648183 0.493635 1.000000 0.648183 0.493635 1.200000 0.648183 0.636492 1.000000 0.648183 0.636492 1.200000 0.649345 0.428365 1.000000 0.649345 0.428365 1.200000 0.649345 0.571222 1.000000 0.649345 0.571222 1.200000 0.651410 0.487865 1.000000 0.651410 0.487865 1.200000 0.651410 0.630722 1.000000 0.651410 0.630722 1.200000 0.651946 0.203984 1.000000 0.651946 0.203984 1.200000 0.652385 0.434220 1.000000 0.652385 0.434220 1.200000 0.652385 0.577077 1.000000 0.652385 0.577077 1.200000 0.654252 0.289589 1.000000 0.654252 0.289589 1.200000 0.654252 0.346842 1.000000 0.654252 0.346842 1.200000 0.654841 0.817036 1.000000 0.654841 0.817036 1.200000 0.655073 0.486018 1.000000 0.655073 0.486018 1.200000 0.655073 0.628875 1.000000 0.655073 0.628875 1.200000 0.655452 0.728017 1.000000 0.655452 0.728017 1.200000 0.655751 0.436224 1.000000 0.655751 0.436224 1.200000 0.655751 0.579081 1.000000 0.655751 0.579081 1.200000 0.656526 0.477590 1.000000 0.656526 0.477590 1.200000 0.656526 0.620447 1.000000 0.656526 0.620447 1.200000 0.657543 0.445912 1.000000 0.657543 0.445912 1.200000 0.657543 0.588769 1.000000 0.657543 0.588769 1.200000 0.657613 0.205244 1.000000 0.657613 0.205244 1.200000 0.657613 0.207812 1.000000 0.657613 0.207812 1.200000 0.657806 0.771568 1.000000 0.657806 0.771568 1.200000 0.659432 0.491782 1.000000 0.659432 0.491782 1.200000 0.659432 0.634639 1.000000 0.659432 0.634639 1.200000 0.659723 0.477590 1.000000 0.659723 0.477590 1.200000 0.659723 0.620447 1.000000 0.659723 0.620447 1.200000 0.660378 0.795587 1.000000 0.660378 0.795587 1.200000 0.660401 0.430654 1.000000 0.660401 0.430654 1.200000 0.660401 0.573511 1.000000 0.660401 0.573511 1.200000 0.660498 0.749117 1.000000 0.660498 0.749117 1.200000 0.660671 0.142857 1.000000 0.660671 0.142857 1.200000 0.660671 0.145424 1.000000 0.660671 0.145424 1.200000 0.660671 0.205244 1.000000 0.660671 0.205244 1.200000 0.660671 0.207812 1.000000 0.660671 0.207812 1.200000 0.660692 0.445912 1.000000 0.660692 0.445912 1.200000 0.660692 0.588769 1.000000 0.660692 0.588769 1.200000 0.662583 0.285714 1.000000 0.662583 0.285714 1.200000 0.662583 0.288281 1.000000 0.662583 0.288281 1.200000 0.662583 0.348102 1.000000 0.662583 0.348102 1.200000 0.662583 0.350669 1.000000 0.662583 0.350669 1.200000 0.668094 0.812371 1.000000 0.668094 0.812371 1.200000 0.668574 0.732681 1.000000 0.668574 0.732681 1.200000 0.669003 0.146732 1.000000 0.669003 0.146732 1.200000 0.669003 0.203984 1.000000 0.669003 0.203984 1.200000 0.669027 0.490959 1.000000 0.669027 0.490959 1.200000 0.669027 0.493526 1.000000 0.669027 0.493526 1.200000 0.669027 0.633816 1.000000 0.669027 0.633816 1.200000 0.669027 0.636383 1.000000 0.669027 0.636383 1.200000 0.669657 0.285714 1.000000 0.669657 0.285714 1.200000 0.669657 0.288281 1.000000 0.669657 0.288281 1.200000 0.669657 0.348102 1.000000 0.669657 0.348102 1.200000 0.669657 0.350669 1.000000 0.669657 0.350669 1.200000 0.669657 0.428571 1.000000 0.669657 0.428571 1.200000 0.669657 0.431138 1.000000 0.669657 0.431138 1.200000 0.669657 0.571428 1.000000 0.669657 0.571428 1.200000 0.669657 0.573995 1.000000 0.669657 0.573995 1.200000 0.673783 0.828643 1.000000 0.673783 0.828643 1.200000 0.674088 0.146732 1.000000 0.674088 0.146732 1.200000 0.674088 0.201272 1.000000 0.674088 0.201272 1.200000 0.674459 0.716411 1.000000 0.674459 0.716411 1.200000 0.677359 0.432446 1.000000 0.677359 0.432446 1.200000 0.677359 0.489699 1.000000 0.677359 0.489699 1.200000 0.677359 0.575303 1.000000 0.677359 0.575303 1.200000 0.677359 0.632556 1.000000 0.677359 0.632556 1.200000 0.677988 0.289589 1.000000 0.677988 0.289589 1.200000 0.677988 0.346842 1.000000 0.677988 0.346842 1.200000 0.680337 0.207812 1.000000 0.680337 0.207812 1.200000 0.681412 0.822245 1.000000 0.681412 0.822245 1.200000 0.681794 0.722611 1.000000 0.681794 0.722611 1.200000 0.682807 0.142857 1.000000 0.682807 0.142857 1.200000 0.682807 0.145424 1.000000 0.682807 0.145424 1.200000 0.686707 0.432446 1.000000 0.686707 0.432446 1.200000 0.686707 0.454049 1.000000 0.686707 0.454049 1.200000 0.686707 0.458409 1.000000 0.686707 0.458409 1.200000 0.686707 0.489166 1.000000 0.686707 0.489166 1.200000 0.686707 0.575303 1.000000 0.686707 0.575303 1.200000 0.686707 0.596906 1.000000 0.686707 0.596906 1.200000 0.686707 0.601266 1.000000 0.686707 0.601266 1.200000 0.686707 0.632023 1.000000 0.686707 0.632023 1.200000 0.687288 0.289589 1.000000 0.687288 0.289589 1.200000 0.687288 0.346842 1.000000 0.687288 0.346842 1.200000 0.691454 0.489166 1.000000 0.691454 0.489166 1.200000 0.691454 0.632023 1.000000 0.691454 0.632023 1.200000 0.691745 0.458409 1.000000 0.691745 0.458409 1.200000 0.691745 0.601266 1.000000 0.691745 0.601266 1.200000 0.693537 0.493526 1.000000 0.693537 0.493526 1.200000 0.693537 0.636383 1.000000 0.693537 0.636383 1.200000 0.694021 0.454049 1.000000 0.694021 0.454049 1.200000 0.694021 0.596906 1.000000 0.694021 0.596906 1.200000 0.695620 0.285714 1.000000 0.695620 0.285714 1.200000 0.695620 0.288281 1.000000 0.695620 0.288281 1.200000 0.695620 0.348102 1.000000 0.695620 0.348102 1.200000 0.695620 0.350669 1.000000 0.695620 0.350669 1.200000 0.697025 0.428571 1.000000 0.697025 0.428571 1.200000 0.697025 0.431138 1.000000 0.697025 0.431138 1.200000 0.697025 0.571428 1.000000 0.697025 0.571428 1.200000 0.697025 0.573995 1.000000 0.697025 0.573995 1.200000 0.698859 0.459341 1.000000 0.698859 0.459341 1.200000 0.698859 0.602198 1.000000 0.698859 0.602198 1.200000 0.698998 0.488306 1.000000 0.698998 0.488306 1.200000 0.698998 0.631163 1.000000 0.698998 0.631163 1.200000 0.699743 0.712542 1.000000 0.699743 0.712542 1.200000 0.699918 0.719255 1.000000 0.699918 0.719255 1.200000 0.700092 0.832512 1.000000 0.700092 0.832512 1.200000 0.700790 0.825537 1.000000 0.700790 0.825537 1.200000 0.703830 0.462138 1.000000 0.703830 0.462138 1.200000 0.703830 0.604995 1.000000 0.703830 0.604995 1.200000 0.703993 0.455345 1.000000 0.703993 0.455345 1.200000 0.703993 0.598202 1.000000 0.703993 0.598202 1.200000 0.703999 0.485727 1.000000 0.703999 0.485727 1.200000 0.703999 0.628584 1.000000 0.703999 0.628584 1.200000 0.705040 0.205244 1.000000 0.705040 0.205244 1.200000 0.705040 0.207812 1.000000 0.705040 0.207812 1.200000 0.706754 0.467043 1.000000 0.706754 0.467043 1.200000 0.706754 0.609900 1.000000 0.706754 0.609900 1.200000 0.706796 0.481150 1.000000 0.706796 0.481150 1.200000 0.706796 0.624007 1.000000 0.706796 0.624007 1.200000 0.707729 0.474296 1.000000 0.707729 0.474296 1.200000 0.707729 0.617153 1.000000 0.707729 0.617153 1.200000 0.709083 0.825024 1.000000 0.709083 0.825024 1.200000 0.709574 0.719854 1.000000 0.709574 0.719854 1.200000 0.711337 0.459232 1.000000 0.711337 0.459232 1.200000 0.711337 0.602089 1.000000 0.711337 0.602089 1.200000 0.711410 0.488743 1.000000 0.711410 0.488743 1.200000 0.711410 0.631600 1.000000 0.711410 0.631600 1.200000 0.713758 0.159713 1.000000 0.713758 0.159713 1.200000 0.713758 0.203984 1.000000 0.713758 0.203984 1.200000 0.714146 0.142857 1.000000 0.714146 0.142857 1.200000 0.715860 0.465613 1.000000 0.715860 0.465613 1.200000 0.715860 0.608471 1.000000 0.715860 0.608471 1.200000 0.717224 0.823487 1.000000 0.717224 0.823487 1.200000 0.717368 0.474393 1.000000 0.717368 0.474393 1.200000 0.717368 0.617250 1.000000 0.717368 0.617250 1.200000 0.718663 0.721652 1.000000 0.718663 0.721652 1.200000 0.718845 0.142857 1.000000 0.718845 0.142857 1.200000 0.718845 0.203984 1.000000 0.718845 0.203984 1.200000 0.718990 0.831400 1.000000 0.718990 0.831400 1.200000 0.721082 0.713915 1.000000 0.721082 0.713915 1.200000 0.724201 0.428571 1.000000 0.724201 0.428571 1.200000 0.724201 0.431138 1.000000 0.724201 0.431138 1.200000 0.724201 0.490959 1.000000 0.724201 0.490959 1.200000 0.724201 0.493526 1.000000 0.724201 0.493526 1.200000 0.724201 0.571428 1.000000 0.724201 0.571428 1.200000 0.724201 0.573995 1.000000 0.724201 0.573995 1.200000 0.724201 0.633816 1.000000 0.724201 0.633816 1.200000 0.724201 0.636383 1.000000 0.724201 0.636383 1.200000 0.724799 0.821014 1.000000 0.724799 0.821014 1.200000 0.726553 0.724453 1.000000 0.726553 0.724453 1.200000 0.727176 0.205244 1.000000 0.727176 0.205244 1.200000 0.727176 0.207812 1.000000 0.727176 0.207812 1.200000 0.731392 0.817690 1.000000 0.731392 0.817690 1.200000 0.732315 0.142857 1.000000 0.732315 0.142857 1.200000 0.732315 0.145424 1.000000 0.732315 0.145424 1.200000 0.732315 0.205244 1.000000 0.732315 0.205244 1.200000 0.732315 0.207812 1.000000 0.732315 0.207812 1.200000 0.732532 0.432446 1.000000 0.732532 0.432446 1.200000 0.732532 0.489699 1.000000 0.732532 0.489699 1.200000 0.732532 0.575303 1.000000 0.732532 0.575303 1.200000 0.732532 0.632556 1.000000 0.732532 0.632556 1.200000 0.732613 0.728060 1.000000 0.732613 0.728060 1.200000 0.734008 0.802519 1.000000 0.734008 0.802519 1.200000 0.735838 0.745499 1.000000 0.735838 0.745499 1.200000 0.737618 0.432446 1.000000 0.737618 0.432446 1.200000 0.737618 0.486987 1.000000 0.737618 0.486987 1.200000 0.737618 0.575303 1.000000 0.737618 0.575303 1.200000 0.737618 0.629844 1.000000 0.737618 0.629844 1.200000 0.739239 0.828065 1.000000 0.739239 0.828065 1.200000 0.739762 0.802519 1.000000 0.739762 0.802519 1.200000 0.740646 0.146732 1.000000 0.740646 0.146732 1.200000 0.740646 0.203984 1.000000 0.740646 0.203984 1.200000 0.740983 0.718034 1.000000 0.740983 0.718034 1.200000 0.741506 0.745499 1.000000 0.741506 0.745499 1.200000 0.743867 0.493526 1.000000 0.743867 0.493526 1.200000 0.743867 0.636383 1.000000 0.743867 0.636383 1.200000 0.745732 0.146732 1.000000 0.745732 0.146732 1.200000 0.745732 0.201272 1.000000 0.745732 0.201272 1.200000 0.746337 0.428571 1.000000 0.746337 0.428571 1.200000 0.746337 0.431138 1.000000 0.746337 0.431138 1.200000 0.746337 0.571428 1.000000 0.746337 0.571428 1.200000 0.746337 0.573995 1.000000 0.746337 0.573995 1.200000 0.751981 0.207812 1.000000 0.751981 0.207812 1.200000 0.754451 0.142857 1.000000 0.754451 0.142857 1.200000 0.754451 0.145424 1.000000 0.754451 0.145424 1.200000 0.759911 0.740878 1.000000 0.759911 0.740878 1.200000 0.760870 0.716291 1.000000 0.760870 0.716291 1.200000 0.763485 0.806268 1.000000 0.763485 0.806268 1.200000 0.763485 0.828763 1.000000 0.763485 0.828763 1.200000 0.765664 0.740878 1.000000 0.765664 0.740878 1.200000 0.768570 0.490959 1.000000 0.768570 0.490959 1.200000 0.768570 0.493526 1.000000 0.768570 0.493526 1.200000 0.768570 0.633816 1.000000 0.768570 0.633816 1.200000 0.768570 0.636383 1.000000 0.768570 0.636383 1.200000 0.769240 0.806268 1.000000 0.769240 0.806268 1.200000 0.769588 0.724486 1.000000 0.769588 0.724486 1.200000 0.771528 0.830648 1.000000 0.771528 0.830648 1.200000 0.772291 0.820566 1.000000 0.772291 0.820566 1.200000 0.773697 0.722699 1.000000 0.773697 0.722699 1.200000 0.776128 0.713479 1.000000 0.776128 0.713479 1.200000 0.776433 0.822452 1.000000 0.776433 0.822452 1.200000 0.776683 0.205244 1.000000 0.776683 0.205244 1.200000 0.776683 0.207812 1.000000 0.776683 0.207812 1.200000 0.777288 0.445427 1.000000 0.777288 0.445427 1.200000 0.777288 0.489699 1.000000 0.777288 0.489699 1.200000 0.777288 0.588285 1.000000 0.777288 0.588285 1.200000 0.777288 0.632556 1.000000 0.777288 0.632556 1.200000 0.777676 0.428571 1.000000 0.777676 0.428571 1.200000 0.777676 0.571428 1.000000 0.777676 0.571428 1.200000 0.778393 0.831770 1.000000 0.778393 0.831770 1.200000 0.779222 0.721173 1.000000 0.779222 0.721173 1.200000 0.780486 0.771741 1.000000 0.780486 0.771741 1.200000 0.780486 0.778891 1.000000 0.780486 0.778891 1.200000 0.781184 0.823923 1.000000 0.781184 0.823923 1.200000 0.782375 0.428571 1.000000 0.782375 0.428571 1.200000 0.782375 0.489699 1.000000 0.782375 0.489699 1.200000 0.782375 0.571428 1.000000 0.782375 0.571428 1.200000 0.782375 0.632556 1.000000 0.782375 0.632556 1.200000 0.784649 0.832326 1.000000 0.784649 0.832326 1.200000 0.785249 0.720127 1.000000 0.785249 0.720127 1.200000 0.785402 0.159713 1.000000 0.785402 0.159713 1.200000 0.785402 0.203984 1.000000 0.785402 0.203984 1.200000 0.785790 0.142857 1.000000 0.785790 0.142857 1.200000 0.786132 0.824872 1.000000 0.786132 0.824872 1.200000 0.790488 0.142857 1.000000 0.790488 0.142857 1.200000 0.790488 0.203984 1.000000 0.790488 0.203984 1.200000 0.790706 0.490959 1.000000 0.790706 0.490959 1.200000 0.790706 0.493526 1.000000 0.790706 0.493526 1.200000 0.790706 0.633816 1.000000 0.790706 0.633816 1.200000 0.790706 0.636383 1.000000 0.790706 0.636383 1.200000 0.790862 0.719778 1.000000 0.790862 0.719778 1.200000 0.790862 0.825188 1.000000 0.790862 0.825188 1.200000 0.790862 0.832512 1.000000 0.790862 0.832512 1.200000 0.792257 0.712542 1.000000 0.792257 0.712542 1.200000 0.792955 0.771044 1.000000 0.792955 0.771044 1.200000 0.792955 0.779675 1.000000 0.792955 0.779675 1.200000 0.798820 0.205244 1.000000 0.798820 0.205244 1.200000 0.798820 0.207812 1.000000 0.798820 0.207812 1.200000 0.800507 0.823848 1.000000 0.800507 0.823848 1.200000 0.801520 0.781463 1.000000 0.801520 0.781463 1.200000 0.802763 0.721347 1.000000 0.802763 0.721347 1.200000 0.802806 0.775490 1.000000 0.802806 0.775490 1.200000 0.803940 0.769093 1.000000 0.803940 0.769093 1.200000 0.803958 0.142857 1.000000 0.803958 0.142857 1.200000 0.803958 0.145424 1.000000 0.803958 0.145424 1.200000 0.803958 0.205244 1.000000 0.803958 0.205244 1.200000 0.803958 0.207812 1.000000 0.803958 0.207812 1.200000 0.807122 0.819826 1.000000 0.807122 0.819826 1.200000 0.807514 0.785779 1.000000 0.807514 0.785779 1.200000 0.809804 0.714765 1.000000 0.809804 0.714765 1.200000 0.810948 0.812862 1.000000 0.810948 0.812862 1.200000 0.811046 0.792797 1.000000 0.811046 0.792797 1.200000 0.811090 0.726055 1.000000 0.811090 0.726055 1.200000 0.811612 0.764462 1.000000 0.811612 0.764462 1.200000 0.812223 0.802694 1.000000 0.812223 0.802694 1.200000 0.812290 0.146732 1.000000 0.812290 0.146732 1.200000 0.812290 0.203984 1.000000 0.812290 0.203984 1.200000 0.813628 0.778597 1.000000 0.813628 0.778597 1.200000 0.815994 0.734425 1.000000 0.815994 0.734425 1.200000 0.816125 0.757105 1.000000 0.816125 0.757105 1.200000 0.816582 0.772297 1.000000 0.816582 0.772297 1.200000 0.817376 0.146732 1.000000 0.817376 0.146732 1.200000 0.817376 0.201272 1.000000 0.817376 0.201272 1.200000 0.817629 0.746981 1.000000 0.817629 0.746981 1.200000 0.818980 0.825319 1.000000 0.818980 0.825319 1.200000 0.821682 0.784427 1.000000 0.821682 0.784427 1.200000 0.822859 0.721435 1.000000 0.822859 0.721435 1.200000 0.823624 0.207812 1.000000 0.823624 0.207812 1.200000 0.826094 0.142857 1.000000 0.826094 0.142857 1.200000 0.826094 0.145424 1.000000 0.826094 0.145424 1.200000 0.826173 0.766380 1.000000 0.826173 0.766380 1.200000 0.826684 0.792852 1.000000 0.826684 0.792852 1.200000 0.828352 0.803740 1.000000 0.828352 0.803740 1.200000 0.830968 0.732050 1.000000 0.830968 0.732050 1.200000 0.831796 0.757672 1.000000 0.831796 0.757672 1.200000 0.833671 0.746109 1.000000 0.833671 0.746109 1.200000 0.848327 0.205244 1.000000 0.848327 0.205244 1.200000 0.848327 0.207812 1.000000 0.848327 0.207812 1.200000 0.848499 0.714285 1.000000 0.848499 0.714285 1.200000 0.848499 0.727101 1.000000 0.848499 0.727101 1.200000 0.852423 0.806268 1.000000 0.852423 0.806268 1.200000 0.852423 0.828763 1.000000 0.852423 0.828763 1.200000 0.857046 0.159713 1.000000 0.857046 0.159713 1.200000 0.857046 0.203984 1.000000 0.857046 0.203984 1.200000 0.857433 0.142857 1.000000 0.857433 0.142857 1.200000 0.858177 0.806268 1.000000 0.858177 0.806268 1.200000 0.859921 0.727712 1.000000 0.859921 0.727712 1.200000 0.861229 0.820566 1.000000 0.861229 0.820566 1.200000 0.862132 0.142857 1.000000 0.862132 0.142857 1.200000 0.862132 0.203984 1.000000 0.862132 0.203984 1.200000 0.864716 0.741837 1.000000 0.864716 0.741837 1.200000 0.865261 0.822452 1.000000 0.865261 0.822452 1.200000 0.867093 0.831575 1.000000 0.867093 0.831575 1.200000 0.868400 0.735319 1.000000 0.868400 0.735319 1.200000 0.869860 0.823923 1.000000 0.869860 0.823923 1.200000 0.870463 0.205244 1.000000 0.870463 0.205244 1.200000 0.870463 0.207812 1.000000 0.870463 0.207812 1.200000 0.874678 0.824872 1.000000 0.874678 0.824872 1.200000 0.876399 0.742273 1.000000 0.876399 0.742273 1.200000 0.878252 0.754217 1.000000 0.878252 0.754217 1.200000 0.879364 0.825188 1.000000 0.879364 0.825188 1.200000 0.879364 0.832512 1.000000 0.879364 0.832512 1.200000 0.887647 0.763982 1.000000 0.887647 0.763982 1.200000 0.889413 0.823706 1.000000 0.889413 0.823706 1.200000 0.891962 0.755994 1.000000 0.891962 0.755994 1.200000 0.893935 0.772570 1.000000 0.893935 0.772570 1.200000 0.896159 0.830517 1.000000 0.896159 0.830517 1.200000 0.896191 0.819259 1.000000 0.896191 0.819259 1.200000 0.898152 0.781419 1.000000 0.898152 0.781419 1.200000 0.900050 0.811979 1.000000 0.900050 0.811979 1.200000 0.900540 0.791053 1.000000 0.900540 0.791053 1.200000 0.901336 0.801995 1.000000 0.901336 0.801995 1.200000 0.902381 0.766292 1.000000 0.902381 0.766292 1.200000 0.908179 0.824534 1.000000 0.908179 0.824534 1.200000 0.909214 0.774902 1.000000 0.909214 0.774902 1.200000 0.914020 0.783556 1.000000 0.914020 0.783556 1.200000 0.915405 0.814910 1.000000 0.915405 0.814910 1.200000 0.916865 0.792503 1.000000 0.916865 0.792503 1.200000 0.917813 0.801995 1.000000 0.917813 0.801995 1.200000 0.920080 0.714285 1.000000 0.920080 0.714285 1.200000 0.920080 0.727712 1.000000 0.920080 0.727712 1.200000 1.200000 0.000000 0.000000 1.200000 0.000000 1.000000 1.200000 1.000000 0.000000 1.200000 1.000000 1.000000 "
							            />
						</IndexedFaceSet>
					</Shape>
					<Shape>
						<Appearance>
							<Material DEF="MA_Color_2"
							          diffuseColor="1.000 1.000 1.000"
							          specularColor="0.401 0.401 0.401"
							          emissiveColor="0.000 0.000 0.000"
							          ambientIntensity="0.000"
							          shininess="0.500"
							          transparency="1.000"
							          />
						</Appearance>
						<IndexedFaceSet solid="false"
						                coordIndex="4 5 6 -1 4 23 24 -1 4 24 5 -1 5 7 6 -1 5 13 7 -1 5 24 13 -1 6 7 12 -1 7 13 12 -1 8 9 10 -1 8 15 16 -1 8 16 9 -1 9 11 10 -1 9 16 11 -1 10 11 21 -1 11 16 22 -1 11 22 21 -1 12 13 14 -1 13 16 14 -1 13 18 20 -1 13 20 16 -1 13 24 18 -1 14 16 15 -1 16 20 22 -1 17 18 25 -1 17 19 20 -1 17 20 18 -1 18 24 26 -1 18 26 25 -1 19 27 20 -1 20 27 35 -1 20 35 37 -1 20 37 47 -1 20 47 22 -1 21 22 46 -1 22 47 46 -1 23 25 26 -1 23 26 24 -1 27 34 35 -1 28 29 30 -1 28 32 33 -1 28 33 29 -1 29 31 30 -1 29 33 31 -1 30 31 54 -1 31 33 41 -1 31 41 55 -1 31 55 54 -1 32 58 59 -1 32 59 33 -1 33 59 41 -1 34 36 37 -1 34 37 35 -1 36 98 99 -1 36 99 37 -1 37 99 47 -1 38 39 50 -1 38 48 49 -1 38 49 39 -1 39 49 197 -1 39 51 50 -1 39 63 51 -1 39 73 63 -1 39 93 73 -1 39 109 93 -1 39 133 109 -1 39 181 133 -1 39 197 181 -1 40 41 64 -1 40 52 53 -1 40 53 41 -1 41 53 55 -1 41 59 65 -1 41 65 64 -1 42 43 44 -1 42 82 83 -1 42 83 43 -1 43 45 44 -1 43 57 45 -1 43 67 57 -1 43 83 67 -1 44 45 56 -1 45 57 56 -1 46 47 94 -1 47 95 94 -1 47 99 95 -1 48 60 61 -1 48 61 49 -1 49 61 197 -1 50 51 62 -1 51 63 62 -1 52 54 55 -1 52 55 53 -1 56 57 58 -1 57 59 58 -1 57 67 59 -1 59 67 69 -1 59 69 65 -1 60 70 71 -1 60 71 61 -1 61 71 197 -1 62 63 72 -1 63 73 72 -1 64 65 86 -1 65 69 87 -1 65 87 86 -1 66 67 84 -1 66 68 69 -1 66 69 67 -1 67 83 85 -1 67 85 84 -1 68 88 89 -1 68 89 69 -1 69 89 87 -1 70 90 91 -1 70 91 71 -1 71 91 197 -1 72 73 92 -1 73 93 92 -1 74 75 76 -1 74 86 87 -1 74 87 75 -1 75 77 76 -1 75 87 77 -1 76 77 102 -1 77 87 89 -1 77 89 103 -1 77 103 102 -1 78 79 80 -1 78 160 161 -1 78 161 79 -1 79 81 80 -1 79 97 81 -1 79 161 97 -1 80 81 96 -1 81 97 96 -1 82 84 85 -1 82 85 83 -1 88 100 101 -1 88 101 89 -1 89 101 103 -1 90 110 111 -1 90 111 91 -1 91 111 135 -1 91 135 183 -1 91 183 197 -1 92 93 108 -1 93 109 108 -1 94 95 167 -1 94 167 166 -1 95 99 115 -1 95 115 117 -1 95 117 167 -1 96 97 98 -1 97 99 98 -1 97 115 99 -1 97 161 115 -1 100 102 103 -1 100 103 101 -1 104 105 106 -1 104 112 113 -1 104 113 105 -1 105 107 106 -1 105 113 107 -1 106 107 178 -1 107 113 131 -1 107 131 179 -1 107 179 178 -1 108 109 132 -1 109 133 132 -1 110 134 135 -1 110 135 111 -1 112 190 191 -1 112 191 113 -1 113 191 131 -1 114 115 162 -1 114 116 117 -1 114 117 115 -1 115 161 163 -1 115 163 162 -1 116 164 165 -1 116 165 117 -1 117 165 167 -1 118 119 122 -1 118 126 127 -1 118 127 119 -1 119 123 122 -1 119 127 149 -1 119 149 123 -1 120 121 124 -1 120 128 129 -1 120 129 121 -1 121 125 124 -1 121 129 151 -1 121 151 125 -1 122 123 136 -1 123 137 136 -1 123 149 153 -1 123 153 137 -1 124 125 138 -1 125 139 138 -1 125 151 155 -1 125 155 139 -1 126 144 145 -1 126 145 127 -1 127 145 157 -1 127 157 149 -1 128 146 147 -1 128 147 129 -1 129 147 159 -1 129 159 151 -1 130 131 206 -1 130 176 177 -1 130 177 131 -1 131 177 179 -1 131 191 207 -1 131 207 206 -1 132 133 180 -1 133 181 180 -1 134 182 183 -1 134 183 135 -1 136 137 184 -1 137 153 169 -1 137 169 185 -1 137 185 184 -1 138 139 186 -1 139 155 171 -1 139 171 187 -1 139 187 186 -1 140 141 142 -1 140 236 237 -1 140 237 141 -1 141 143 142 -1 141 189 143 -1 141 237 189 -1 142 143 188 -1 143 189 188 -1 144 192 193 -1 144 193 145 -1 145 173 157 -1 145 193 173 -1 146 194 195 -1 146 195 147 -1 147 175 159 -1 147 195 175 -1 148 149 156 -1 148 152 153 -1 148 153 149 -1 149 157 156 -1 150 151 158 -1 150 154 155 -1 150 155 151 -1 151 159 158 -1 152 168 169 -1 152 169 153 -1 154 170 171 -1 154 171 155 -1 156 157 172 -1 157 173 172 -1 158 159 174 -1 159 175 174 -1 160 162 163 -1 160 163 161 -1 164 166 167 -1 164 167 165 -1 168 198 199 -1 168 199 169 -1 169 199 185 -1 170 200 201 -1 170 201 171 -1 171 201 187 -1 172 173 202 -1 173 193 203 -1 173 203 202 -1 174 175 204 -1 175 195 205 -1 175 205 204 -1 176 178 179 -1 176 179 177 -1 180 181 196 -1 181 197 196 -1 182 196 197 -1 182 197 183 -1 184 185 220 -1 185 199 221 -1 185 221 220 -1 186 187 222 -1 187 201 223 -1 187 223 222 -1 188 189 190 -1 189 191 190 -1 189 209 191 -1 189 237 209 -1 191 209 211 -1 191 211 207 -1 192 212 213 -1 192 213 193 -1 193 213 203 -1 194 214 215 -1 194 215 195 -1 195 215 205 -1 198 224 225 -1 198 225 199 -1 199 225 221 -1 200 226 227 -1 200 227 201 -1 201 227 223 -1 202 203 216 -1 203 213 217 -1 203 217 216 -1 204 205 218 -1 205 215 219 -1 205 219 218 -1 206 207 252 -1 207 211 253 -1 207 253 252 -1 208 209 238 -1 208 210 211 -1 208 211 209 -1 209 237 239 -1 209 239 238 -1 210 270 271 -1 210 271 211 -1 211 271 253 -1 212 258 259 -1 212 259 213 -1 213 241 217 -1 213 259 241 -1 214 260 261 -1 214 261 215 -1 215 243 219 -1 215 261 243 -1 216 217 240 -1 217 241 240 -1 218 219 242 -1 219 243 242 -1 220 221 254 -1 221 225 233 -1 221 233 255 -1 221 255 254 -1 222 223 256 -1 223 227 235 -1 223 235 257 -1 223 257 256 -1 224 232 233 -1 224 233 225 -1 226 234 235 -1 226 235 227 -1 228 229 230 -1 228 252 253 -1 228 253 229 -1 229 231 230 -1 229 253 231 -1 230 231 306 -1 231 253 271 -1 231 271 307 -1 231 307 306 -1 232 244 245 -1 232 245 233 -1 233 245 255 -1 234 246 247 -1 234 247 235 -1 235 247 257 -1 236 238 239 -1 236 239 237 -1 240 241 248 -1 241 249 248 -1 241 259 249 -1 242 243 250 -1 243 251 250 -1 243 261 251 -1 244 262 263 -1 244 263 245 -1 245 263 255 -1 246 264 265 -1 246 265 247 -1 247 265 257 -1 248 249 266 -1 249 259 267 -1 249 267 266 -1 250 251 268 -1 251 261 269 -1 251 269 268 -1 254 255 288 -1 255 263 289 -1 255 289 288 -1 256 257 290 -1 257 265 291 -1 257 291 290 -1 258 296 297 -1 258 297 259 -1 259 297 267 -1 260 298 299 -1 260 299 261 -1 261 299 269 -1 262 272 273 -1 262 273 263 -1 263 273 289 -1 264 274 275 -1 264 275 265 -1 265 275 291 -1 266 267 276 -1 267 277 276 -1 267 297 277 -1 268 269 278 -1 269 279 278 -1 269 299 279 -1 270 304 305 -1 270 305 271 -1 271 305 307 -1 272 280 281 -1 272 281 273 -1 273 281 293 -1 273 293 289 -1 274 282 283 -1 274 283 275 -1 275 283 295 -1 275 295 291 -1 276 277 284 -1 277 285 284 -1 277 297 301 -1 277 301 285 -1 278 279 286 -1 279 287 286 -1 279 299 303 -1 279 303 287 -1 280 292 293 -1 280 293 281 -1 282 294 295 -1 282 295 283 -1 284 285 300 -1 285 301 300 -1 286 287 302 -1 287 303 302 -1 288 289 292 -1 289 293 292 -1 290 291 294 -1 291 295 294 -1 296 300 301 -1 296 301 297 -1 298 302 303 -1 298 303 299 -1 304 306 307 -1 304 307 305 -1 308 309 310 -1 308 320 321 -1 308 321 309 -1 309 311 310 -1 309 321 311 -1 310 311 372 -1 311 321 348 -1 311 348 373 -1 311 373 372 -1 312 313 314 -1 312 340 341 -1 312 341 313 -1 313 315 314 -1 313 341 315 -1 314 315 386 -1 315 341 387 -1 315 387 386 -1 316 317 318 -1 316 345 346 -1 316 346 317 -1 317 319 318 -1 317 346 319 -1 318 319 388 -1 319 346 389 -1 319 389 388 -1 320 374 375 -1 320 375 321 -1 321 375 385 -1 321 385 395 -1 321 395 348 -1 322 323 324 -1 322 396 397 -1 322 397 323 -1 323 325 324 -1 323 339 325 -1 323 354 339 -1 323 397 354 -1 324 325 338 -1 325 339 338 -1 326 327 328 -1 326 400 401 -1 326 401 327 -1 327 329 328 -1 327 343 329 -1 327 362 343 -1 327 401 362 -1 328 329 342 -1 329 343 342 -1 330 331 332 -1 330 351 352 -1 330 352 331 -1 331 333 332 -1 331 352 333 -1 332 333 478 -1 333 352 479 -1 333 479 478 -1 334 335 336 -1 334 490 491 -1 334 491 335 -1 335 337 336 -1 335 350 337 -1 335 421 350 -1 335 491 421 -1 336 337 349 -1 337 350 349 -1 338 339 340 -1 339 341 340 -1 339 354 356 -1 339 356 358 -1 339 358 341 -1 341 358 360 -1 341 360 387 -1 342 343 344 -1 343 346 344 -1 343 362 365 -1 343 365 367 -1 343 367 346 -1 344 346 345 -1 346 367 369 -1 346 369 389 -1 347 348 394 -1 347 370 371 -1 347 371 348 -1 348 371 373 -1 348 395 394 -1 349 350 351 -1 350 352 351 -1 350 421 423 -1 350 423 425 -1 350 425 352 -1 352 425 427 -1 352 427 479 -1 353 354 398 -1 353 355 356 -1 353 356 354 -1 354 397 399 -1 354 399 398 -1 355 390 391 -1 355 391 356 -1 356 381 358 -1 356 391 381 -1 357 358 380 -1 357 359 360 -1 357 360 358 -1 358 381 380 -1 359 376 377 -1 359 377 360 -1 360 377 387 -1 361 362 402 -1 361 363 362 -1 362 363 365 -1 362 401 403 -1 362 403 402 -1 363 364 365 -1 364 392 393 -1 364 393 365 -1 365 383 367 -1 365 393 383 -1 366 367 382 -1 366 368 369 -1 366 369 367 -1 367 383 382 -1 368 378 379 -1 368 379 369 -1 369 379 389 -1 370 372 373 -1 370 373 371 -1 374 384 385 -1 374 385 375 -1 376 416 417 -1 376 417 377 -1 377 417 387 -1 378 418 419 -1 378 419 379 -1 379 419 389 -1 380 381 412 -1 381 391 413 -1 381 413 412 -1 382 383 414 -1 383 393 415 -1 383 415 414 -1 384 456 457 -1 384 457 385 -1 385 457 395 -1 386 387 462 -1 387 417 463 -1 387 463 462 -1 388 389 464 -1 389 419 465 -1 389 465 464 -1 390 432 433 -1 390 433 391 -1 391 433 413 -1 392 434 435 -1 392 435 393 -1 393 435 415 -1 394 395 466 -1 395 457 467 -1 395 467 466 -1 396 398 399 -1 396 399 397 -1 400 402 403 -1 400 403 401 -1 404 405 406 -1 404 494 495 -1 404 495 405 -1 405 407 406 -1 405 441 407 -1 405 495 441 -1 406 407 440 -1 407 441 440 -1 408 409 410 -1 408 442 443 -1 408 443 409 -1 409 411 410 -1 409 443 411 -1 410 411 500 -1 411 443 477 -1 411 477 501 -1 411 501 500 -1 412 413 428 -1 413 429 428 -1 413 433 429 -1 414 415 430 -1 415 431 430 -1 415 435 431 -1 416 436 437 -1 416 437 417 -1 417 437 463 -1 418 438 439 -1 418 439 419 -1 419 439 465 -1 420 421 492 -1 420 422 423 -1 420 423 421 -1 421 491 493 -1 421 493 492 -1 422 484 485 -1 422 485 423 -1 423 471 425 -1 423 485 471 -1 424 425 470 -1 424 426 427 -1 424 427 425 -1 425 471 470 -1 426 468 469 -1 426 469 427 -1 427 469 479 -1 428 429 444 -1 429 433 459 -1 429 445 444 -1 429 459 445 -1 430 431 446 -1 431 435 461 -1 431 447 446 -1 431 461 447 -1 432 458 459 -1 432 459 433 -1 434 460 461 -1 434 461 435 -1 436 448 449 -1 436 449 437 -1 437 449 463 -1 438 450 451 -1 438 451 439 -1 439 451 465 -1 440 441 442 -1 441 443 442 -1 441 475 443 -1 441 495 475 -1 443 475 477 -1 444 445 452 -1 445 453 452 -1 445 459 481 -1 445 481 453 -1 446 447 454 -1 447 455 454 -1 447 461 483 -1 447 483 455 -1 448 452 453 -1 448 453 449 -1 449 453 487 -1 449 487 463 -1 450 454 455 -1 450 455 451 -1 451 455 489 -1 451 489 465 -1 453 481 487 -1 455 483 489 -1 456 522 523 -1 456 523 457 -1 457 523 535 -1 457 535 467 -1 458 480 481 -1 458 481 459 -1 460 482 483 -1 460 483 461 -1 462 463 486 -1 463 487 486 -1 464 465 488 -1 465 489 488 -1 466 467 472 -1 467 473 472 -1 467 535 473 -1 468 520 521 -1 468 521 469 -1 469 521 479 -1 470 471 518 -1 471 485 519 -1 471 519 518 -1 472 473 534 -1 473 535 534 -1 474 475 496 -1 474 476 477 -1 474 477 475 -1 475 495 497 -1 475 497 496 -1 476 498 499 -1 476 499 477 -1 477 499 501 -1 478 479 588 -1 479 521 589 -1 479 589 588 -1 480 486 487 -1 480 487 481 -1 482 488 489 -1 482 489 483 -1 484 546 547 -1 484 547 485 -1 485 547 519 -1 490 492 493 -1 490 493 491 -1 494 496 497 -1 494 497 495 -1 498 500 501 -1 498 501 499 -1 502 503 504 -1 502 578 579 -1 502 579 503 -1 503 505 504 -1 503 537 505 -1 503 579 537 -1 504 505 536 -1 505 537 536 -1 506 507 508 -1 506 538 539 -1 506 539 507 -1 507 509 508 -1 507 539 509 -1 508 509 572 -1 509 539 573 -1 509 573 572 -1 510 511 512 -1 510 582 583 -1 510 583 511 -1 511 513 512 -1 511 541 513 -1 511 583 541 -1 512 513 540 -1 513 541 540 -1 514 515 516 -1 514 542 543 -1 514 543 515 -1 515 517 516 -1 515 543 517 -1 516 517 574 -1 517 543 575 -1 517 575 574 -1 518 519 544 -1 519 545 544 -1 519 547 545 -1 520 548 549 -1 520 549 521 -1 521 549 589 -1 522 524 525 -1 522 525 523 -1 523 525 595 -1 523 595 535 -1 524 594 595 -1 524 595 525 -1 526 527 528 -1 526 598 599 -1 526 599 527 -1 527 529 528 -1 527 563 529 -1 527 591 563 -1 527 599 591 -1 528 529 562 -1 529 563 562 -1 530 531 532 -1 530 564 565 -1 530 565 531 -1 531 533 532 -1 531 565 533 -1 532 533 604 -1 533 565 593 -1 533 593 605 -1 533 605 604 -1 534 535 576 -1 535 577 576 -1 535 595 577 -1 536 537 539 -1 536 539 538 -1 537 555 557 -1 537 557 539 -1 537 579 555 -1 539 557 573 -1 540 541 543 -1 540 543 542 -1 541 559 561 -1 541 561 543 -1 541 583 559 -1 543 561 575 -1 544 545 566 -1 545 547 587 -1 545 567 566 -1 545 587 567 -1 546 586 587 -1 546 587 547 -1 548 568 569 -1 548 569 549 -1 549 569 589 -1 550 551 552 -1 550 576 577 -1 550 577 551 -1 551 553 552 -1 551 577 553 -1 552 553 608 -1 553 577 595 -1 553 595 609 -1 553 609 608 -1 554 555 580 -1 554 556 557 -1 554 557 555 -1 555 579 581 -1 555 581 580 -1 556 656 657 -1 556 657 557 -1 557 649 573 -1 557 657 669 -1 557 669 649 -1 558 559 584 -1 558 560 561 -1 558 561 559 -1 559 583 585 -1 559 585 584 -1 560 658 659 -1 560 659 561 -1 561 653 575 -1 561 659 673 -1 561 673 653 -1 562 563 564 -1 563 565 564 -1 563 591 565 -1 565 591 593 -1 566 567 570 -1 567 571 570 -1 567 587 597 -1 567 597 571 -1 568 570 571 -1 568 571 569 -1 569 571 615 -1 569 615 589 -1 571 597 615 -1 572 573 648 -1 573 649 648 -1 574 575 652 -1 575 653 652 -1 578 580 581 -1 578 581 579 -1 582 584 585 -1 582 585 583 -1 586 596 597 -1 586 597 587 -1 588 589 614 -1 589 615 614 -1 590 591 600 -1 590 592 593 -1 590 593 591 -1 591 599 601 -1 591 601 600 -1 592 602 603 -1 592 603 593 -1 593 603 605 -1 594 606 607 -1 594 607 595 -1 595 607 609 -1 596 614 615 -1 596 615 597 -1 598 600 601 -1 598 601 599 -1 602 604 605 -1 602 605 603 -1 606 608 609 -1 606 609 607 -1 610 611 612 -1 610 616 617 -1 610 617 611 -1 611 613 612 -1 611 617 613 -1 612 613 666 -1 613 617 647 -1 613 647 667 -1 613 667 666 -1 616 676 677 -1 616 677 617 -1 617 677 679 -1 617 679 685 -1 617 685 647 -1 618 619 620 -1 618 686 687 -1 618 687 619 -1 619 621 620 -1 619 635 621 -1 619 687 635 -1 620 621 634 -1 621 635 634 -1 622 623 624 -1 622 636 637 -1 622 637 623 -1 623 625 624 -1 623 637 625 -1 624 625 692 -1 625 637 693 -1 625 693 692 -1 626 627 628 -1 626 650 651 -1 626 651 627 -1 627 629 628 -1 627 651 629 -1 628 629 696 -1 629 651 671 -1 629 671 697 -1 629 697 696 -1 630 631 632 -1 630 654 655 -1 630 655 631 -1 631 633 632 -1 631 655 633 -1 632 633 700 -1 633 655 675 -1 633 675 701 -1 633 701 700 -1 634 635 636 -1 635 637 636 -1 635 661 637 -1 635 687 661 -1 637 661 663 -1 637 663 693 -1 638 639 640 -1 638 776 777 -1 638 777 639 -1 639 641 640 -1 639 681 641 -1 639 723 681 -1 639 777 723 -1 640 641 680 -1 641 681 680 -1 642 643 644 -1 642 682 683 -1 642 683 643 -1 643 645 644 -1 643 683 645 -1 644 645 782 -1 645 683 725 -1 645 725 783 -1 645 783 782 -1 646 647 684 -1 646 664 665 -1 646 665 647 -1 647 665 667 -1 647 685 684 -1 648 649 650 -1 649 651 650 -1 649 669 671 -1 649 671 651 -1 652 653 654 -1 653 655 654 -1 653 673 675 -1 653 675 655 -1 656 668 669 -1 656 669 657 -1 658 672 673 -1 658 673 659 -1 660 661 688 -1 660 662 663 -1 660 663 661 -1 661 687 689 -1 661 689 688 -1 662 690 691 -1 662 691 663 -1 663 691 693 -1 664 666 667 -1 664 667 665 -1 668 670 671 -1 668 671 669 -1 670 694 695 -1 670 695 671 -1 671 695 697 -1 672 674 675 -1 672 675 673 -1 674 698 699 -1 674 699 675 -1 675 699 701 -1 676 678 679 -1 676 679 677 -1 678 726 727 -1 678 727 679 -1 679 727 685 -1 680 681 682 -1 681 683 682 -1 681 723 683 -1 683 723 725 -1 684 685 732 -1 685 727 733 -1 685 733 732 -1 686 688 689 -1 686 689 687 -1 690 692 693 -1 690 693 691 -1 694 696 697 -1 694 697 695 -1 698 700 701 -1 698 701 699 -1 702 703 704 -1 702 794 795 -1 702 795 703 -1 703 705 704 -1 703 729 705 -1 703 795 729 -1 704 705 728 -1 705 729 728 -1 706 707 708 -1 706 730 731 -1 706 731 707 -1 707 709 708 -1 707 731 709 -1 708 709 800 -1 709 731 767 -1 709 767 801 -1 709 801 800 -1 710 711 714 -1 710 718 719 -1 710 719 711 -1 711 715 714 -1 711 719 743 -1 711 743 715 -1 712 713 716 -1 712 720 721 -1 712 721 713 -1 713 717 716 -1 713 721 745 -1 713 745 717 -1 714 715 734 -1 715 735 734 -1 715 743 749 -1 715 749 735 -1 716 717 736 -1 717 737 736 -1 717 745 751 -1 717 751 737 -1 718 738 739 -1 718 739 719 -1 719 739 753 -1 719 753 743 -1 720 740 741 -1 720 741 721 -1 721 741 755 -1 721 755 745 -1 722 723 778 -1 722 724 725 -1 722 725 723 -1 723 777 779 -1 723 779 778 -1 724 780 781 -1 724 781 725 -1 725 781 783 -1 726 792 793 -1 726 793 727 -1 727 793 805 -1 727 805 733 -1 728 729 730 -1 729 731 730 -1 729 765 731 -1 729 795 765 -1 731 765 767 -1 732 733 746 -1 733 747 746 -1 733 805 747 -1 734 735 768 -1 735 749 757 -1 735 757 769 -1 735 769 768 -1 736 737 770 -1 737 751 759 -1 737 759 771 -1 737 771 770 -1 738 772 773 -1 738 773 739 -1 739 761 753 -1 739 773 761 -1 740 774 775 -1 740 775 741 -1 741 763 755 -1 741 775 763 -1 742 743 752 -1 742 748 749 -1 742 749 743 -1 743 753 752 -1 744 745 754 -1 744 750 751 -1 744 751 745 -1 745 755 754 -1 746 747 804 -1 747 805 804 -1 748 756 749 -1 749 756 757 -1 750 758 759 -1 750 759 751 -1 752 753 760 -1 753 761 760 -1 754 755 762 -1 755 763 762 -1 756 784 785 -1 756 785 757 -1 757 785 769 -1 758 786 787 -1 758 787 759 -1 759 787 771 -1 760 761 788 -1 761 773 789 -1 761 789 788 -1 762 763 790 -1 763 775 791 -1 763 791 790 -1 764 765 796 -1 764 766 767 -1 764 767 765 -1 765 795 797 -1 765 797 796 -1 766 798 799 -1 766 799 767 -1 767 799 801 -1 768 769 826 -1 769 785 827 -1 769 827 826 -1 770 771 828 -1 771 787 829 -1 771 829 828 -1 772 818 819 -1 772 819 773 -1 773 819 789 -1 774 820 821 -1 774 821 775 -1 775 821 791 -1 776 778 779 -1 776 779 777 -1 780 782 783 -1 780 783 781 -1 784 830 831 -1 784 831 785 -1 785 831 827 -1 786 832 833 -1 786 833 787 -1 787 833 829 -1 788 789 822 -1 789 819 823 -1 789 823 822 -1 790 791 824 -1 791 821 825 -1 791 825 824 -1 792 802 803 -1 792 803 793 -1 793 803 875 -1 793 875 805 -1 794 796 797 -1 794 797 795 -1 798 800 801 -1 798 801 799 -1 802 874 875 -1 802 875 803 -1 804 805 852 -1 805 853 852 -1 805 875 853 -1 806 807 808 -1 806 852 853 -1 806 853 807 -1 807 809 808 -1 807 853 809 -1 808 809 906 -1 809 853 875 -1 809 875 907 -1 809 907 906 -1 810 811 812 -1 810 938 939 -1 810 939 811 -1 811 813 812 -1 811 849 813 -1 811 881 849 -1 811 939 881 -1 812 813 848 -1 813 849 848 -1 814 815 816 -1 814 850 851 -1 814 851 815 -1 815 817 816 -1 815 851 817 -1 816 817 944 -1 817 851 883 -1 817 883 945 -1 817 945 944 -1 818 866 867 -1 818 867 819 -1 819 841 823 -1 819 867 841 -1 820 868 869 -1 820 869 821 -1 821 843 825 -1 821 869 843 -1 822 823 840 -1 823 841 840 -1 824 825 842 -1 825 843 842 -1 826 827 862 -1 827 831 837 -1 827 837 863 -1 827 863 862 -1 828 829 864 -1 829 833 839 -1 829 839 865 -1 829 865 864 -1 830 836 837 -1 830 837 831 -1 832 838 839 -1 832 839 833 -1 834 835 844 -1 834 846 847 -1 834 847 835 -1 835 845 844 -1 835 847 909 -1 835 909 845 -1 836 854 855 -1 836 855 837 -1 837 855 863 -1 838 856 857 -1 838 857 839 -1 839 857 865 -1 840 841 858 -1 841 859 858 -1 841 867 859 -1 842 843 860 -1 843 861 860 -1 843 869 861 -1 844 845 884 -1 845 885 884 -1 845 909 919 -1 845 919 885 -1 846 890 891 -1 846 891 847 -1 847 891 925 -1 847 925 909 -1 848 849 850 -1 849 851 850 -1 849 881 851 -1 851 881 883 -1 854 870 871 -1 854 871 855 -1 855 871 863 -1 856 872 873 -1 856 873 857 -1 857 873 865 -1 858 859 876 -1 859 867 877 -1 859 877 876 -1 860 861 878 -1 861 869 879 -1 861 879 878 -1 862 863 910 -1 863 871 911 -1 863 911 910 -1 864 865 912 -1 865 873 913 -1 865 913 912 -1 866 920 921 -1 866 921 867 -1 867 921 877 -1 868 922 923 -1 868 923 869 -1 869 923 879 -1 870 886 887 -1 870 887 871 -1 871 887 911 -1 872 888 889 -1 872 889 873 -1 873 889 913 -1 874 904 905 -1 874 905 875 -1 875 905 907 -1 876 877 892 -1 877 893 892 -1 877 921 893 -1 878 879 894 -1 879 895 894 -1 879 923 895 -1 880 881 940 -1 880 882 883 -1 880 883 881 -1 881 939 941 -1 881 941 940 -1 882 942 943 -1 882 943 883 -1 883 943 945 -1 884 885 978 -1 885 919 947 -1 885 947 979 -1 885 979 978 -1 886 896 897 -1 886 897 887 -1 887 897 915 -1 887 915 911 -1 888 898 899 -1 888 899 889 -1 889 899 917 -1 889 917 913 -1 890 984 985 -1 890 985 891 -1 891 949 925 -1 891 985 949 -1 892 893 900 -1 893 901 900 -1 893 921 935 -1 893 935 901 -1 894 895 902 -1 895 903 902 -1 895 923 937 -1 895 937 903 -1 896 914 915 -1 896 915 897 -1 898 916 917 -1 898 917 899 -1 900 901 934 -1 901 935 934 -1 902 903 936 -1 903 937 936 -1 904 906 907 -1 904 907 905 -1 908 909 924 -1 908 918 919 -1 908 919 909 -1 909 925 924 -1 910 911 914 -1 911 915 914 -1 912 913 916 -1 913 917 916 -1 918 946 947 -1 918 947 919 -1 920 934 935 -1 920 935 921 -1 922 936 937 -1 922 937 923 -1 924 925 948 -1 925 949 948 -1 926 927 928 -1 926 1004 1005 -1 926 1005 927 -1 927 929 928 -1 927 951 929 -1 927 1005 951 -1 928 929 950 -1 929 951 950 -1 930 931 932 -1 930 952 953 -1 930 953 931 -1 931 933 932 -1 931 953 933 -1 932 933 998 -1 933 953 999 -1 933 999 998 -1 938 940 941 -1 938 941 939 -1 942 944 945 -1 942 945 943 -1 946 1000 1001 -1 946 1001 947 -1 947 1001 979 -1 948 949 1002 -1 949 985 1003 -1 949 1003 1002 -1 950 951 952 -1 951 953 952 -1 951 981 983 -1 951 983 953 -1 951 1005 981 -1 953 983 999 -1 954 955 956 -1 954 988 989 -1 954 989 955 -1 955 957 956 -1 955 989 957 -1 956 957 1036 -1 957 989 1037 -1 957 1037 1036 -1 958 959 960 -1 958 992 993 -1 958 993 959 -1 959 961 960 -1 959 993 961 -1 960 961 1038 -1 961 993 1039 -1 961 1039 1038 -1 962 963 964 -1 962 1044 1045 -1 962 1045 963 -1 963 965 964 -1 963 995 965 -1 963 1045 995 -1 964 965 994 -1 965 995 994 -1 966 967 968 -1 966 996 997 -1 966 997 967 -1 967 969 968 -1 967 997 969 -1 968 969 1050 -1 969 997 1051 -1 969 1051 1050 -1 970 971 972 -1 970 1052 1053 -1 970 1053 971 -1 971 973 972 -1 971 987 973 -1 971 1009 987 -1 971 1053 1009 -1 972 973 986 -1 973 987 986 -1 974 975 976 -1 974 1056 1057 -1 974 1057 975 -1 975 977 976 -1 975 991 977 -1 975 1017 991 -1 975 1057 1017 -1 976 977 990 -1 977 991 990 -1 978 979 1072 -1 979 1001 1073 -1 979 1073 1072 -1 980 981 1006 -1 980 982 983 -1 980 983 981 -1 981 1005 1007 -1 981 1007 1006 -1 982 1120 1121 -1 982 1121 983 -1 983 1117 999 -1 983 1121 1135 -1 983 1135 1117 -1 984 1068 1069 -1 984 1069 985 -1 985 1069 1003 -1 986 987 989 -1 986 989 988 -1 987 1009 1011 -1 987 1011 1013 -1 987 1013 989 -1 989 1013 1015 -1 989 1015 1037 -1 990 991 992 -1 991 993 992 -1 991 1017 1019 -1 991 1019 1021 -1 991 1021 993 -1 993 1021 1023 -1 993 1023 1039 -1 994 995 996 -1 995 997 996 -1 995 1025 997 -1 995 1045 1025 -1 997 1025 1027 -1 997 1027 1051 -1 998 999 1116 -1 999 1117 1116 -1 1000 1074 1075 -1 1000 1075 1001 -1 1001 1075 1073 -1 1002 1003 1070 -1 1003 1069 1071 -1 1003 1071 1070 -1 1004 1006 1007 -1 1004 1007 1005 -1 1008 1009 1054 -1 1008 1010 1011 -1 1008 1011 1009 -1 1009 1053 1055 -1 1009 1055 1054 -1 1010 1040 1041 -1 1010 1041 1011 -1 1011 1033 1013 -1 1011 1041 1033 -1 1012 1013 1032 -1 1012 1014 1015 -1 1012 1015 1013 -1 1013 1033 1032 -1 1014 1028 1029 -1 1014 1029 1015 -1 1015 1029 1037 -1 1016 1017 1058 -1 1016 1018 1019 -1 1016 1019 1017 -1 1017 1057 1059 -1 1017 1059 1058 -1 1018 1042 1043 -1 1018 1043 1019 -1 1019 1035 1021 -1 1019 1043 1035 -1 1020 1021 1034 -1 1020 1022 1023 -1 1020 1023 1021 -1 1021 1035 1034 -1 1022 1030 1031 -1 1022 1031 1023 -1 1023 1031 1039 -1 1024 1025 1046 -1 1024 1026 1025 -1 1025 1026 1027 -1 1025 1045 1047 -1 1025 1047 1046 -1 1026 1048 1049 -1 1026 1049 1027 -1 1027 1049 1051 -1 1028 1064 1065 -1 1028 1065 1029 -1 1029 1065 1037 -1 1030 1066 1067 -1 1030 1067 1031 -1 1031 1067 1039 -1 1032 1033 1060 -1 1033 1041 1061 -1 1033 1061 1060 -1 1034 1035 1062 -1 1035 1043 1063 -1 1035 1063 1062 -1 1036 1037 1112 -1 1037 1065 1113 -1 1037 1113 1112 -1 1038 1039 1114 -1 1039 1067 1115 -1 1039 1115 1114 -1 1040 1080 1081 -1 1040 1081 1041 -1 1041 1081 1061 -1 1042 1082 1083 -1 1042 1083 1043 -1 1043 1083 1063 -1 1044 1046 1047 -1 1044 1047 1045 -1 1048 1050 1051 -1 1048 1051 1049 -1 1052 1054 1055 -1 1052 1055 1053 -1 1056 1058 1059 -1 1056 1059 1057 -1 1060 1061 1076 -1 1061 1077 1076 -1 1061 1081 1077 -1 1062 1063 1078 -1 1063 1079 1078 -1 1063 1083 1079 -1 1064 1084 1085 -1 1064 1085 1065 -1 1065 1085 1113 -1 1066 1086 1087 -1 1066 1087 1067 -1 1067 1087 1115 -1 1068 1140 1141 -1 1068 1141 1069 -1 1069 1107 1071 -1 1069 1141 1107 -1 1070 1071 1106 -1 1071 1107 1106 -1 1072 1073 1138 -1 1073 1075 1105 -1 1073 1105 1139 -1 1073 1139 1138 -1 1074 1104 1105 -1 1074 1105 1075 -1 1076 1077 1092 -1 1077 1081 1109 -1 1077 1093 1092 -1 1077 1109 1093 -1 1078 1079 1094 -1 1079 1083 1111 -1 1079 1095 1094 -1 1079 1111 1095 -1 1080 1108 1109 -1 1080 1109 1081 -1 1082 1110 1111 -1 1082 1111 1083 -1 1084 1096 1097 -1 1084 1097 1085 -1 1085 1097 1113 -1 1086 1098 1099 -1 1086 1099 1087 -1 1087 1099 1115 -1 1088 1089 1090 -1 1088 1118 1119 -1 1088 1119 1089 -1 1089 1091 1090 -1 1089 1119 1091 -1 1090 1091 1164 -1 1091 1119 1137 -1 1091 1137 1165 -1 1091 1165 1164 -1 1092 1093 1100 -1 1093 1101 1100 -1 1093 1109 1123 -1 1093 1123 1101 -1 1094 1095 1102 -1 1095 1103 1102 -1 1095 1111 1125 -1 1095 1125 1103 -1 1096 1100 1101 -1 1096 1101 1097 -1 1097 1101 1129 -1 1097 1129 1113 -1 1098 1102 1103 -1 1098 1103 1099 -1 1099 1103 1131 -1 1099 1131 1115 -1 1101 1123 1129 -1 1103 1125 1131 -1 1104 1126 1127 -1 1104 1127 1105 -1 1105 1127 1139 -1 1106 1107 1132 -1 1107 1133 1132 -1 1107 1141 1133 -1 1108 1122 1123 -1 1108 1123 1109 -1 1110 1124 1125 -1 1110 1125 1111 -1 1112 1113 1128 -1 1113 1129 1128 -1 1114 1115 1130 -1 1115 1131 1130 -1 1116 1117 1118 -1 1117 1119 1118 -1 1117 1135 1137 -1 1117 1137 1119 -1 1120 1134 1135 -1 1120 1135 1121 -1 1122 1128 1129 -1 1122 1129 1123 -1 1124 1130 1131 -1 1124 1131 1125 -1 1126 1158 1159 -1 1126 1159 1127 -1 1127 1159 1139 -1 1132 1133 1160 -1 1133 1141 1161 -1 1133 1161 1160 -1 1134 1136 1137 -1 1134 1137 1135 -1 1136 1162 1163 -1 1136 1163 1137 -1 1137 1163 1165 -1 1138 1139 1198 -1 1139 1159 1199 -1 1139 1199 1198 -1 1140 1206 1207 -1 1140 1207 1141 -1 1141 1207 1161 -1 1142 1143 1144 -1 1142 1218 1219 -1 1142 1219 1143 -1 1143 1145 1144 -1 1143 1177 1145 -1 1143 1219 1177 -1 1144 1145 1176 -1 1145 1177 1176 -1 1146 1147 1148 -1 1146 1178 1179 -1 1146 1179 1147 -1 1147 1149 1148 -1 1147 1179 1149 -1 1148 1149 1210 -1 1149 1179 1211 -1 1149 1211 1210 -1 1150 1151 1152 -1 1150 1222 1223 -1 1150 1223 1151 -1 1151 1153 1152 -1 1151 1181 1153 -1 1151 1223 1181 -1 1152 1153 1180 -1 1153 1181 1180 -1 1154 1155 1156 -1 1154 1182 1183 -1 1154 1183 1155 -1 1155 1157 1156 -1 1155 1183 1157 -1 1156 1157 1212 -1 1157 1183 1213 -1 1157 1213 1212 -1 1158 1166 1167 -1 1158 1167 1159 -1 1159 1167 1199 -1 1160 1161 1184 -1 1161 1185 1184 -1 1161 1207 1185 -1 1162 1164 1165 -1 1162 1165 1163 -1 1166 1186 1187 -1 1166 1187 1167 -1 1167 1187 1201 -1 1167 1201 1199 -1 1168 1169 1170 -1 1168 1228 1229 -1 1168 1229 1169 -1 1169 1171 1170 -1 1169 1203 1171 -1 1169 1229 1203 -1 1170 1171 1202 -1 1171 1203 1202 -1 1172 1173 1174 -1 1172 1204 1205 -1 1172 1205 1173 -1 1173 1175 1174 -1 1173 1205 1175 -1 1174 1175 1226 -1 1175 1205 1227 -1 1175 1227 1226 -1 1176 1177 1179 -1 1176 1179 1178 -1 1177 1191 1193 -1 1177 1193 1179 -1 1177 1219 1191 -1 1179 1193 1211 -1 1180 1181 1183 -1 1180 1183 1182 -1 1181 1195 1197 -1 1181 1197 1183 -1 1181 1223 1195 -1 1183 1197 1213 -1 1184 1185 1188 -1 1185 1189 1188 -1 1185 1207 1209 -1 1185 1209 1189 -1 1186 1200 1201 -1 1186 1201 1187 -1 1188 1189 1208 -1 1189 1209 1208 -1 1190 1191 1220 -1 1190 1192 1193 -1 1190 1193 1191 -1 1191 1219 1221 -1 1191 1221 1220 -1 1192 1276 1277 -1 1192 1277 1193 -1 1193 1269 1211 -1 1193 1277 1291 -1 1193 1291 1269 -1 1194 1195 1224 -1 1194 1196 1197 -1 1194 1197 1195 -1 1195 1223 1225 -1 1195 1225 1224 -1 1196 1278 1279 -1 1196 1279 1197 -1 1197 1273 1213 -1 1197 1279 1295 -1 1197 1295 1273 -1 1198 1199 1200 -1 1199 1201 1200 -1 1202 1203 1204 -1 1203 1205 1204 -1 1203 1215 1217 -1 1203 1217 1205 -1 1203 1229 1215 -1 1205 1217 1227 -1 1206 1208 1209 -1 1206 1209 1207 -1 1210 1211 1268 -1 1211 1269 1268 -1 1212 1213 1272 -1 1213 1273 1272 -1 1214 1215 1230 -1 1214 1216 1217 -1 1214 1217 1215 -1 1215 1229 1231 -1 1215 1231 1230 -1 1216 1306 1307 -1 1216 1307 1217 -1 1217 1303 1227 -1 1217 1307 1311 -1 1217 1311 1303 -1 1218 1220 1221 -1 1218 1221 1219 -1 1222 1224 1225 -1 1222 1225 1223 -1 1226 1227 1302 -1 1227 1303 1302 -1 1228 1230 1231 -1 1228 1231 1229 -1 1232 1233 1240 -1 1232 1234 1233 -1 1233 1234 1235 -1 1233 1235 1253 -1 1233 1241 1240 -1 1233 1253 1241 -1 1234 1260 1261 -1 1234 1261 1235 -1 1235 1259 1253 -1 1235 1261 1259 -1 1236 1237 1238 -1 1236 1250 1251 -1 1236 1251 1237 -1 1237 1239 1238 -1 1237 1251 1257 -1 1237 1257 1239 -1 1238 1239 1254 -1 1239 1255 1254 -1 1239 1257 1255 -1 1240 1241 1252 -1 1241 1253 1252 -1 1242 1243 1244 -1 1242 1270 1271 -1 1242 1271 1243 -1 1243 1245 1244 -1 1243 1271 1245 -1 1244 1245 1316 -1 1245 1271 1293 -1 1245 1293 1317 -1 1245 1317 1316 -1 1246 1247 1248 -1 1246 1274 1275 -1 1246 1275 1247 -1 1247 1249 1248 -1 1247 1275 1249 -1 1248 1249 1320 -1 1249 1275 1297 -1 1249 1297 1321 -1 1249 1321 1320 -1 1250 1256 1257 -1 1250 1257 1251 -1 1252 1253 1258 -1 1253 1259 1258 -1 1254 1255 1280 -1 1255 1257 1263 -1 1255 1263 1281 -1 1255 1281 1280 -1 1256 1262 1263 -1 1256 1263 1257 -1 1258 1259 1282 -1 1259 1261 1283 -1 1259 1283 1282 -1 1260 1328 1329 -1 1260 1329 1261 -1 1261 1301 1283 -1 1261 1329 1301 -1 1262 1288 1289 -1 1262 1289 1263 -1 1263 1289 1281 -1 1264 1265 1266 -1 1264 1304 1305 -1 1264 1305 1265 -1 1265 1267 1266 -1 1265 1305 1267 -1 1266 1267 1336 -1 1267 1305 1313 -1 1267 1313 1337 -1 1267 1337 1336 -1 1268 1269 1270 -1 1269 1271 1270 -1 1269 1291 1293 -1 1269 1293 1271 -1 1272 1273 1274 -1 1273 1275 1274 -1 1273 1295 1297 -1 1273 1297 1275 -1 1276 1290 1291 -1 1276 1291 1277 -1 1278 1294 1295 -1 1278 1295 1279 -1 1280 1281 1298 -1 1281 1289 1299 -1 1281 1299 1298 -1 1282 1283 1300 -1 1283 1301 1300 -1 1284 1285 1286 -1 1284 1330 1331 -1 1284 1331 1285 -1 1285 1287 1286 -1 1285 1331 1287 -1 1286 1287 1332 -1 1287 1331 1333 -1 1287 1333 1332 -1 1288 1308 1309 -1 1288 1309 1289 -1 1289 1309 1299 -1 1290 1292 1293 -1 1290 1293 1291 -1 1292 1314 1315 -1 1292 1315 1293 -1 1293 1315 1317 -1 1294 1296 1297 -1 1294 1297 1295 -1 1296 1318 1319 -1 1296 1319 1297 -1 1297 1319 1321 -1 1298 1299 1326 -1 1299 1309 1327 -1 1299 1327 1326 -1 1300 1301 1322 -1 1301 1323 1322 -1 1301 1329 1323 -1 1302 1303 1304 -1 1303 1305 1304 -1 1303 1311 1313 -1 1303 1313 1305 -1 1306 1310 1311 -1 1306 1311 1307 -1 1308 1324 1325 -1 1308 1325 1309 -1 1309 1325 1327 -1 1310 1312 1313 -1 1310 1313 1311 -1 1312 1334 1335 -1 1312 1335 1313 -1 1313 1335 1337 -1 1314 1316 1317 -1 1314 1317 1315 -1 1318 1320 1321 -1 1318 1321 1319 -1 1322 1323 1342 -1 1323 1329 1343 -1 1323 1343 1342 -1 1324 1338 1339 -1 1324 1339 1325 -1 1325 1339 1327 -1 1326 1327 1390 -1 1327 1339 1391 -1 1327 1391 1390 -1 1328 1360 1361 -1 1328 1361 1329 -1 1329 1361 1343 -1 1330 1346 1347 -1 1330 1347 1331 -1 1331 1341 1333 -1 1331 1345 1341 -1 1331 1347 1345 -1 1332 1333 1340 -1 1333 1341 1340 -1 1334 1336 1337 -1 1334 1337 1335 -1 1338 1356 1357 -1 1338 1357 1339 -1 1339 1357 1391 -1 1340 1341 1358 -1 1341 1345 1377 -1 1341 1359 1358 -1 1341 1377 1359 -1 1342 1343 1366 -1 1343 1361 1367 -1 1343 1367 1366 -1 1344 1345 1382 -1 1344 1376 1377 -1 1344 1377 1345 -1 1345 1347 1383 -1 1345 1383 1382 -1 1346 1368 1369 -1 1346 1369 1347 -1 1347 1369 1383 -1 1348 1349 1350 -1 1348 1398 1399 -1 1348 1399 1349 -1 1349 1351 1350 -1 1349 1373 1351 -1 1349 1399 1373 -1 1350 1351 1372 -1 1351 1373 1372 -1 1352 1353 1354 -1 1352 1374 1375 -1 1352 1375 1353 -1 1353 1355 1354 -1 1353 1375 1355 -1 1354 1355 1396 -1 1355 1375 1397 -1 1355 1397 1396 -1 1356 1362 1363 -1 1356 1363 1357 -1 1357 1363 1391 -1 1358 1359 1364 -1 1359 1365 1364 -1 1359 1377 1393 -1 1359 1393 1365 -1 1360 1394 1395 -1 1360 1395 1361 -1 1361 1395 1367 -1 1362 1370 1371 -1 1362 1371 1363 -1 1363 1371 1407 -1 1363 1407 1391 -1 1364 1365 1370 -1 1365 1371 1370 -1 1365 1393 1405 -1 1365 1405 1371 -1 1366 1367 1378 -1 1367 1379 1378 -1 1367 1395 1379 -1 1368 1380 1381 -1 1368 1381 1369 -1 1369 1381 1403 -1 1369 1403 1383 -1 1371 1405 1407 -1 1372 1373 1374 -1 1373 1375 1374 -1 1373 1385 1387 -1 1373 1387 1375 -1 1373 1399 1385 -1 1375 1387 1397 -1 1376 1392 1393 -1 1376 1393 1377 -1 1378 1379 1388 -1 1379 1389 1388 -1 1379 1395 1409 -1 1379 1409 1389 -1 1380 1388 1389 -1 1380 1389 1381 -1 1381 1389 1411 -1 1381 1411 1403 -1 1382 1383 1402 -1 1383 1403 1402 -1 1384 1385 1400 -1 1384 1386 1387 -1 1384 1387 1385 -1 1385 1399 1401 -1 1385 1401 1400 -1 1386 1430 1431 -1 1386 1431 1387 -1 1387 1427 1397 -1 1387 1431 1439 -1 1387 1439 1427 -1 1389 1409 1413 -1 1389 1413 1411 -1 1390 1391 1406 -1 1391 1407 1406 -1 1392 1404 1405 -1 1392 1405 1393 -1 1394 1408 1409 -1 1394 1409 1395 -1 1396 1397 1426 -1 1397 1427 1426 -1 1398 1400 1401 -1 1398 1401 1399 -1 1402 1403 1410 -1 1403 1411 1410 -1 1404 1406 1407 -1 1404 1407 1405 -1 1408 1412 1413 -1 1408 1413 1409 -1 1410 1411 1412 -1 1411 1413 1412 -1 1414 1415 1416 -1 1414 1428 1429 -1 1414 1429 1415 -1 1415 1417 1416 -1 1415 1429 1417 -1 1416 1417 1454 -1 1417 1429 1441 -1 1417 1441 1455 -1 1417 1455 1454 -1 1418 1419 1420 -1 1418 1500 1501 -1 1418 1501 1419 -1 1419 1421 1420 -1 1419 1435 1421 -1 1419 1501 1435 -1 1420 1421 1442 -1 1421 1435 1443 -1 1421 1443 1442 -1 1422 1423 1424 -1 1422 1432 1433 -1 1422 1433 1423 -1 1423 1425 1424 -1 1423 1433 1437 -1 1423 1437 1425 -1 1424 1425 1446 -1 1425 1437 1445 -1 1425 1445 1447 -1 1425 1447 1446 -1 1426 1427 1428 -1 1427 1429 1428 -1 1427 1439 1441 -1 1427 1441 1429 -1 1430 1438 1439 -1 1430 1439 1431 -1 1432 1436 1437 -1 1432 1437 1433 -1 1434 1435 1502 -1 1434 1448 1449 -1 1434 1449 1435 -1 1435 1449 1443 -1 1435 1501 1503 -1 1435 1503 1502 -1 1436 1444 1445 -1 1436 1445 1437 -1 1438 1440 1441 -1 1438 1441 1439 -1 1440 1452 1453 -1 1440 1453 1441 -1 1441 1453 1455 -1 1442 1443 1460 -1 1443 1449 1459 -1 1443 1459 1461 -1 1443 1461 1460 -1 1444 1450 1451 -1 1444 1451 1445 -1 1445 1451 1447 -1 1446 1447 1464 -1 1447 1451 1457 -1 1447 1457 1465 -1 1447 1465 1464 -1 1448 1458 1459 -1 1448 1459 1449 -1 1450 1456 1457 -1 1450 1457 1451 -1 1452 1454 1455 -1 1452 1455 1453 -1 1456 1462 1463 -1 1456 1463 1457 -1 1457 1463 1465 -1 1458 1470 1471 -1 1458 1471 1459 -1 1459 1471 1461 -1 1460 1461 1466 -1 1461 1467 1466 -1 1461 1471 1467 -1 1462 1468 1469 -1 1462 1469 1463 -1 1463 1469 1465 -1 1464 1465 1474 -1 1465 1469 1475 -1 1465 1475 1474 -1 1466 1467 1472 -1 1467 1471 1487 -1 1467 1473 1472 -1 1467 1487 1473 -1 1468 1476 1477 -1 1468 1477 1469 -1 1469 1477 1475 -1 1470 1486 1487 -1 1470 1487 1471 -1 1472 1473 1478 -1 1473 1479 1478 -1 1473 1487 1491 -1 1473 1491 1479 -1 1474 1475 1488 -1 1475 1477 1489 -1 1475 1489 1488 -1 1476 1480 1481 -1 1476 1481 1477 -1 1477 1481 1489 -1 1478 1479 1482 -1 1479 1483 1482 -1 1479 1491 1493 -1 1479 1493 1483 -1 1480 1484 1485 -1 1480 1485 1481 -1 1481 1485 1495 -1 1481 1495 1489 -1 1482 1483 1484 -1 1483 1485 1484 -1 1483 1493 1497 -1 1483 1497 1485 -1 1485 1497 1499 -1 1485 1499 1495 -1 1486 1490 1491 -1 1486 1491 1487 -1 1488 1489 1494 -1 1489 1495 1494 -1 1490 1492 1493 -1 1490 1493 1491 -1 1492 1496 1497 -1 1492 1497 1493 -1 1494 1495 1498 -1 1495 1499 1498 -1 1496 1498 1499 -1 1496 1499 1497 -1 1500 1502 1503 -1 1500 1503 1501 -1 "
						                >
							<Coordinate USE="coords_ME_OpenSCAD_Model" />
						</IndexedFaceSet>
					</Shape>
				</Group>
			</Transform>
		</Transform>
	</Scene>
</X3D>