<?xml version="1.0" encoding="UTF-8"?>
<!DOCTYPE X3D PUBLIC "ISO//Web3D//DTD X3D 3.0//EN" "http://www.web3d.org/specifications/x3d-3.0.dtd">
<X3D version="3.0" profile="Immersive" xmlns:xsd="http://www.w3.org/2001/XMLSchema-instance" xsd:noNamespaceSchemaLocation="http://www.web3d.org/specifications/x3d-3.0.xsd">
	<head>
		<meta name="filename" content="TQFP100.x3d" />
		<meta name="created" content="2026-02-16 01:51:57" />
		<meta name="generator" content="Blender 5.0.1" />
		<meta name="translator" content="Web3D X3D/VRML2 format v2.5.1" />
	</head>
	<Scene>
		<NavigationInfo headlight="true"
		                visibilityLimit="0.0"
		                type='"EXAMINE", "ANY"'
		                avatarSize="0.25, 1.75, 0.75"
		                />
		<Transform DEF="OpenSCAD_Model_TRANSFORM"
		           translation="0.000000 0.000000 0.000000"
		           scale="0.001000 0.001000 0.001000"
		           rotation="-1.000000 0.000000 0.000000 1.570796"
		           >
			<Transform DEF="OpenSCAD_Model_ifs_TRANSFORM"
			           translation="0.000000 0.000000 0.000000"
			           scale="1.000000 1.000000 1.000000"
			           rotation="0.000000 1.000000 0.000000 0.000000"
			           >
				<Group DEF="group_ME_OpenSCAD_Model">
					<Shape>
						<Appearance>
						</Appearance>
						<IndexedFaceSet solid="false"
						                coordIndex="0 1 3 -1 0 2 205 -1 0 3 2 -1 0 100 1 -1 0 202 100 -1 0 205 202 -1 1 100 3 -1 2 3 102 -1 2 102 205 -1 3 100 102 -1 4 5 7 -1 4 6 211 -1 4 7 6 -1 4 104 5 -1 4 208 104 -1 4 211 208 -1 5 104 7 -1 6 7 106 -1 6 106 211 -1 7 104 106 -1 8 9 11 -1 8 10 217 -1 8 11 10 -1 8 108 9 -1 8 214 108 -1 8 217 214 -1 9 108 11 -1 10 11 110 -1 10 110 217 -1 11 108 110 -1 12 13 15 -1 12 14 223 -1 12 15 14 -1 12 112 13 -1 12 220 112 -1 12 223 220 -1 13 112 15 -1 14 15 114 -1 14 114 223 -1 15 112 114 -1 16 17 19 -1 16 18 229 -1 16 19 18 -1 16 116 17 -1 16 226 116 -1 16 229 226 -1 17 116 19 -1 18 19 118 -1 18 118 229 -1 19 116 118 -1 20 21 23 -1 20 22 235 -1 20 23 22 -1 20 120 21 -1 20 232 120 -1 20 235 232 -1 21 120 23 -1 22 23 122 -1 22 122 235 -1 23 120 122 -1 24 25 27 -1 24 26 241 -1 24 27 26 -1 24 124 25 -1 24 238 124 -1 24 241 238 -1 25 124 27 -1 26 27 126 -1 26 126 241 -1 27 124 126 -1 28 29 31 -1 28 30 247 -1 28 31 30 -1 28 128 29 -1 28 244 128 -1 28 247 244 -1 29 128 31 -1 30 31 130 -1 30 130 247 -1 31 128 130 -1 32 33 35 -1 32 34 253 -1 32 35 34 -1 32 132 33 -1 32 250 132 -1 32 253 250 -1 33 132 35 -1 34 35 134 -1 34 134 253 -1 35 132 134 -1 36 37 39 -1 36 38 259 -1 36 39 38 -1 36 136 37 -1 36 256 136 -1 36 259 256 -1 37 136 39 -1 38 39 138 -1 38 138 259 -1 39 136 138 -1 40 41 43 -1 40 42 265 -1 40 43 42 -1 40 140 41 -1 40 262 140 -1 40 265 262 -1 41 140 43 -1 42 43 142 -1 42 142 265 -1 43 140 142 -1 44 45 47 -1 44 46 271 -1 44 47 46 -1 44 144 45 -1 44 268 144 -1 44 271 268 -1 45 144 47 -1 46 47 146 -1 46 146 271 -1 47 144 146 -1 48 49 51 -1 48 50 277 -1 48 51 50 -1 48 148 49 -1 48 274 148 -1 48 277 274 -1 49 148 51 -1 50 51 150 -1 50 150 277 -1 51 148 150 -1 52 53 55 -1 52 54 283 -1 52 55 54 -1 52 152 53 -1 52 280 152 -1 52 283 280 -1 53 152 55 -1 54 55 154 -1 54 154 283 -1 55 152 154 -1 56 57 59 -1 56 58 289 -1 56 59 58 -1 56 156 57 -1 56 286 156 -1 56 289 286 -1 57 156 59 -1 58 59 158 -1 58 158 289 -1 59 156 158 -1 60 61 63 -1 60 62 295 -1 60 63 62 -1 60 160 61 -1 60 292 160 -1 60 295 292 -1 61 160 63 -1 62 63 162 -1 62 162 295 -1 63 160 162 -1 64 65 67 -1 64 66 301 -1 64 67 66 -1 64 164 65 -1 64 298 164 -1 64 301 298 -1 65 164 67 -1 66 67 166 -1 66 166 301 -1 67 164 166 -1 68 69 71 -1 68 70 307 -1 68 71 70 -1 68 168 69 -1 68 304 168 -1 68 307 304 -1 69 168 71 -1 70 71 170 -1 70 170 307 -1 71 168 170 -1 72 73 75 -1 72 74 313 -1 72 75 74 -1 72 172 73 -1 72 310 172 -1 72 313 310 -1 73 172 75 -1 74 75 174 -1 74 174 313 -1 75 172 174 -1 76 77 79 -1 76 78 319 -1 76 79 78 -1 76 176 77 -1 76 316 176 -1 76 319 316 -1 77 176 79 -1 78 79 178 -1 78 178 319 -1 79 176 178 -1 80 81 83 -1 80 82 325 -1 80 83 82 -1 80 180 81 -1 80 322 180 -1 80 325 322 -1 81 180 83 -1 82 83 182 -1 82 182 325 -1 83 180 182 -1 84 85 87 -1 84 86 331 -1 84 87 86 -1 84 184 85 -1 84 328 184 -1 84 331 328 -1 85 184 87 -1 86 87 186 -1 86 186 331 -1 87 184 186 -1 88 89 91 -1 88 90 337 -1 88 91 90 -1 88 188 89 -1 88 334 188 -1 88 337 334 -1 89 188 91 -1 90 91 190 -1 90 190 337 -1 91 188 190 -1 92 93 95 -1 92 94 343 -1 92 95 94 -1 92 192 93 -1 92 340 192 -1 92 343 340 -1 93 192 95 -1 94 95 194 -1 94 194 343 -1 95 192 194 -1 96 97 99 -1 96 98 349 -1 96 99 98 -1 96 196 97 -1 96 346 196 -1 96 349 346 -1 97 196 99 -1 98 99 198 -1 98 198 349 -1 99 196 198 -1 100 101 103 -1 100 103 102 -1 100 202 203 -1 100 203 204 -1 100 204 101 -1 101 204 103 -1 102 103 207 -1 102 206 205 -1 102 207 206 -1 103 204 207 -1 104 105 107 -1 104 107 106 -1 104 208 209 -1 104 209 210 -1 104 210 105 -1 105 210 107 -1 106 107 213 -1 106 212 211 -1 106 213 212 -1 107 210 213 -1 108 109 111 -1 108 111 110 -1 108 214 215 -1 108 215 216 -1 108 216 109 -1 109 216 111 -1 110 111 219 -1 110 218 217 -1 110 219 218 -1 111 216 219 -1 112 113 115 -1 112 115 114 -1 112 220 221 -1 112 221 222 -1 112 222 113 -1 113 222 115 -1 114 115 225 -1 114 224 223 -1 114 225 224 -1 115 222 225 -1 116 117 119 -1 116 119 118 -1 116 226 227 -1 116 227 228 -1 116 228 117 -1 117 228 119 -1 118 119 231 -1 118 230 229 -1 118 231 230 -1 119 228 231 -1 120 121 123 -1 120 123 122 -1 120 232 233 -1 120 233 234 -1 120 234 121 -1 121 234 123 -1 122 123 237 -1 122 236 235 -1 122 237 236 -1 123 234 237 -1 124 125 127 -1 124 127 126 -1 124 238 239 -1 124 239 240 -1 124 240 125 -1 125 240 127 -1 126 127 243 -1 126 242 241 -1 126 243 242 -1 127 240 243 -1 128 129 131 -1 128 131 130 -1 128 244 245 -1 128 245 246 -1 128 246 129 -1 129 246 131 -1 130 131 249 -1 130 248 247 -1 130 249 248 -1 131 246 249 -1 132 133 135 -1 132 135 134 -1 132 250 251 -1 132 251 252 -1 132 252 133 -1 133 252 135 -1 134 135 255 -1 134 254 253 -1 134 255 254 -1 135 252 255 -1 136 137 139 -1 136 139 138 -1 136 256 257 -1 136 257 258 -1 136 258 137 -1 137 258 139 -1 138 139 261 -1 138 260 259 -1 138 261 260 -1 139 258 261 -1 140 141 143 -1 140 143 142 -1 140 262 263 -1 140 263 264 -1 140 264 141 -1 141 264 143 -1 142 143 267 -1 142 266 265 -1 142 267 266 -1 143 264 267 -1 144 145 147 -1 144 147 146 -1 144 268 269 -1 144 269 270 -1 144 270 145 -1 145 270 147 -1 146 147 273 -1 146 272 271 -1 146 273 272 -1 147 270 273 -1 148 149 151 -1 148 151 150 -1 148 274 275 -1 148 275 276 -1 148 276 149 -1 149 276 151 -1 150 151 279 -1 150 278 277 -1 150 279 278 -1 151 276 279 -1 152 153 155 -1 152 155 154 -1 152 280 281 -1 152 281 282 -1 152 282 153 -1 153 282 155 -1 154 155 285 -1 154 284 283 -1 154 285 284 -1 155 282 285 -1 156 157 159 -1 156 159 158 -1 156 286 287 -1 156 287 288 -1 156 288 157 -1 157 288 159 -1 158 159 291 -1 158 290 289 -1 158 291 290 -1 159 288 291 -1 160 161 163 -1 160 163 162 -1 160 292 293 -1 160 293 294 -1 160 294 161 -1 161 294 163 -1 162 163 297 -1 162 296 295 -1 162 297 296 -1 163 294 297 -1 164 165 167 -1 164 167 166 -1 164 298 299 -1 164 299 300 -1 164 300 165 -1 165 300 167 -1 166 167 303 -1 166 302 301 -1 166 303 302 -1 167 300 303 -1 168 169 171 -1 168 171 170 -1 168 304 305 -1 168 305 306 -1 168 306 169 -1 169 306 171 -1 170 171 309 -1 170 308 307 -1 170 309 308 -1 171 306 309 -1 172 173 175 -1 172 175 174 -1 172 310 311 -1 172 311 312 -1 172 312 173 -1 173 312 175 -1 174 175 315 -1 174 314 313 -1 174 315 314 -1 175 312 315 -1 176 177 179 -1 176 179 178 -1 176 316 317 -1 176 317 318 -1 176 318 177 -1 177 318 179 -1 178 179 321 -1 178 320 319 -1 178 321 320 -1 179 318 321 -1 180 181 183 -1 180 183 182 -1 180 322 323 -1 180 323 324 -1 180 324 181 -1 181 324 183 -1 182 183 327 -1 182 326 325 -1 182 327 326 -1 183 324 327 -1 184 185 187 -1 184 187 186 -1 184 328 329 -1 184 329 330 -1 184 330 185 -1 185 330 187 -1 186 187 333 -1 186 332 331 -1 186 333 332 -1 187 330 333 -1 188 189 191 -1 188 191 190 -1 188 334 335 -1 188 335 336 -1 188 336 189 -1 189 336 191 -1 190 191 339 -1 190 338 337 -1 190 339 338 -1 191 336 339 -1 192 193 195 -1 192 195 194 -1 192 340 341 -1 192 341 342 -1 192 342 193 -1 193 342 195 -1 194 195 345 -1 194 344 343 -1 194 345 344 -1 195 342 345 -1 196 197 199 -1 196 199 198 -1 196 346 347 -1 196 347 348 -1 196 348 197 -1 197 348 199 -1 198 199 351 -1 198 350 349 -1 198 351 350 -1 199 348 351 -1 200 201 204 -1 200 203 487 -1 200 204 203 -1 200 487 488 -1 200 488 201 -1 201 207 204 -1 201 210 207 -1 201 213 210 -1 201 216 213 -1 201 219 216 -1 201 222 219 -1 201 225 222 -1 201 228 225 -1 201 231 228 -1 201 234 231 -1 201 237 234 -1 201 240 237 -1 201 243 240 -1 201 246 243 -1 201 249 246 -1 201 252 249 -1 201 255 252 -1 201 258 255 -1 201 261 258 -1 201 264 261 -1 201 267 264 -1 201 270 267 -1 201 273 270 -1 201 353 273 -1 201 354 358 -1 201 356 354 -1 201 358 362 -1 201 360 356 -1 201 362 366 -1 201 364 360 -1 201 366 370 -1 201 368 364 -1 201 370 353 -1 201 372 368 -1 201 376 372 -1 201 380 376 -1 201 384 380 -1 201 388 384 -1 201 392 388 -1 201 396 392 -1 201 400 396 -1 201 404 400 -1 201 408 404 -1 201 412 408 -1 201 416 412 -1 201 420 416 -1 201 424 420 -1 201 428 424 -1 201 432 428 -1 201 488 502 -1 201 502 516 -1 201 516 530 -1 201 530 544 -1 201 544 558 -1 201 558 572 -1 201 572 586 -1 201 586 600 -1 201 600 614 -1 201 614 628 -1 201 628 642 -1 201 642 656 -1 201 656 670 -1 201 670 684 -1 201 684 698 -1 201 698 712 -1 201 712 726 -1 201 726 740 -1 201 740 754 -1 201 754 768 -1 201 768 782 -1 201 782 796 -1 201 796 810 -1 201 810 1183 -1 201 1183 432 -1 202 205 203 -1 203 205 206 -1 203 206 487 -1 206 207 210 -1 206 209 501 -1 206 210 209 -1 206 501 487 -1 208 211 209 -1 209 211 212 -1 209 212 515 -1 209 515 501 -1 212 213 216 -1 212 215 529 -1 212 216 215 -1 212 529 515 -1 214 217 215 -1 215 217 218 -1 215 218 543 -1 215 543 529 -1 218 219 222 -1 218 221 557 -1 218 222 221 -1 218 557 543 -1 220 223 221 -1 221 223 224 -1 221 224 571 -1 221 571 557 -1 224 225 228 -1 224 227 585 -1 224 228 227 -1 224 585 571 -1 226 229 227 -1 227 229 230 -1 227 230 599 -1 227 599 585 -1 230 231 234 -1 230 233 613 -1 230 234 233 -1 230 613 599 -1 232 235 233 -1 233 235 236 -1 233 236 627 -1 233 627 613 -1 236 237 240 -1 236 239 641 -1 236 240 239 -1 236 641 627 -1 238 241 239 -1 239 241 242 -1 239 242 655 -1 239 655 641 -1 242 243 246 -1 242 245 669 -1 242 246 245 -1 242 669 655 -1 244 247 245 -1 245 247 248 -1 245 248 683 -1 245 683 669 -1 248 249 252 -1 248 251 697 -1 248 252 251 -1 248 697 683 -1 250 253 251 -1 251 253 254 -1 251 254 711 -1 251 711 697 -1 254 255 258 -1 254 257 725 -1 254 258 257 -1 254 725 711 -1 256 259 257 -1 257 259 260 -1 257 260 739 -1 257 739 725 -1 260 261 264 -1 260 263 753 -1 260 264 263 -1 260 753 739 -1 262 265 263 -1 263 265 266 -1 263 266 767 -1 263 767 753 -1 266 267 270 -1 266 269 781 -1 266 270 269 -1 266 781 767 -1 268 271 269 -1 269 271 272 -1 269 272 795 -1 269 795 781 -1 272 273 276 -1 272 275 809 -1 272 276 275 -1 272 809 795 -1 273 353 276 -1 274 277 275 -1 275 277 278 -1 275 278 826 -1 275 823 809 -1 275 826 823 -1 276 353 279 -1 278 279 282 -1 278 281 812 -1 278 282 281 -1 278 812 826 -1 279 353 282 -1 280 283 281 -1 281 283 284 -1 281 284 798 -1 281 798 812 -1 282 353 285 -1 284 285 288 -1 284 287 784 -1 284 288 287 -1 284 784 798 -1 285 353 288 -1 286 289 287 -1 287 289 290 -1 287 290 770 -1 287 770 784 -1 288 353 291 -1 290 291 294 -1 290 293 756 -1 290 294 293 -1 290 756 770 -1 291 353 294 -1 292 295 293 -1 293 295 296 -1 293 296 742 -1 293 742 756 -1 294 353 297 -1 296 297 300 -1 296 299 728 -1 296 300 299 -1 296 728 742 -1 297 353 300 -1 298 301 299 -1 299 301 302 -1 299 302 714 -1 299 714 728 -1 300 353 303 -1 302 303 306 -1 302 305 700 -1 302 306 305 -1 302 700 714 -1 303 353 306 -1 304 307 305 -1 305 307 308 -1 305 308 686 -1 305 686 700 -1 306 353 309 -1 308 309 312 -1 308 311 672 -1 308 312 311 -1 308 672 686 -1 309 353 312 -1 310 313 311 -1 311 313 314 -1 311 314 658 -1 311 658 672 -1 312 353 315 -1 314 315 318 -1 314 317 644 -1 314 318 317 -1 314 644 658 -1 315 353 318 -1 316 319 317 -1 317 319 320 -1 317 320 630 -1 317 630 644 -1 318 353 321 -1 320 321 324 -1 320 323 616 -1 320 324 323 -1 320 616 630 -1 321 353 324 -1 322 325 323 -1 323 325 326 -1 323 326 602 -1 323 602 616 -1 324 353 327 -1 326 327 330 -1 326 329 588 -1 326 330 329 -1 326 588 602 -1 327 353 330 -1 328 331 329 -1 329 331 332 -1 329 332 574 -1 329 574 588 -1 330 353 333 -1 332 333 336 -1 332 335 560 -1 332 336 335 -1 332 560 574 -1 333 353 336 -1 334 337 335 -1 335 337 338 -1 335 338 546 -1 335 546 560 -1 336 353 339 -1 338 339 342 -1 338 341 532 -1 338 342 341 -1 338 532 546 -1 339 353 342 -1 340 343 341 -1 341 343 344 -1 341 344 518 -1 341 518 532 -1 342 353 345 -1 344 345 348 -1 344 347 504 -1 344 348 347 -1 344 504 518 -1 345 353 348 -1 346 349 347 -1 347 349 350 -1 347 350 490 -1 347 490 504 -1 348 353 351 -1 350 351 352 -1 350 352 490 -1 351 353 352 -1 352 353 491 -1 352 491 490 -1 353 370 374 -1 353 374 378 -1 353 378 382 -1 353 382 386 -1 353 386 390 -1 353 390 394 -1 353 394 398 -1 353 398 402 -1 353 402 406 -1 353 406 410 -1 353 410 414 -1 353 414 418 -1 353 418 422 -1 353 422 426 -1 353 426 430 -1 353 430 434 -1 353 434 438 -1 353 438 442 -1 353 442 446 -1 353 446 1335 -1 353 505 491 -1 353 519 505 -1 353 533 519 -1 353 547 533 -1 353 561 547 -1 353 575 561 -1 353 589 575 -1 353 603 589 -1 353 617 603 -1 353 631 617 -1 353 645 631 -1 353 659 645 -1 353 673 659 -1 353 687 673 -1 353 701 687 -1 353 715 701 -1 353 729 715 -1 353 743 729 -1 353 757 743 -1 353 771 757 -1 353 785 771 -1 353 799 785 -1 353 813 799 -1 353 827 813 -1 353 841 827 -1 353 855 841 -1 353 1335 855 -1 354 355 359 -1 354 356 355 -1 354 359 358 -1 355 356 357 -1 355 357 359 -1 356 360 357 -1 357 360 361 -1 357 361 359 -1 358 359 363 -1 358 363 362 -1 359 361 363 -1 360 364 361 -1 361 364 365 -1 361 365 363 -1 362 363 367 -1 362 367 366 -1 363 365 367 -1 364 368 365 -1 365 368 369 -1 365 369 367 -1 366 367 371 -1 366 371 370 -1 367 369 371 -1 368 372 369 -1 369 372 373 -1 369 373 371 -1 370 371 375 -1 370 375 374 -1 371 373 375 -1 372 376 373 -1 373 376 377 -1 373 377 375 -1 374 375 379 -1 374 379 378 -1 375 377 379 -1 376 380 377 -1 377 380 381 -1 377 381 379 -1 378 379 383 -1 378 383 382 -1 379 381 383 -1 380 384 381 -1 381 384 385 -1 381 385 383 -1 382 383 387 -1 382 387 386 -1 383 385 387 -1 384 388 389 -1 384 389 385 -1 385 389 387 -1 386 387 390 -1 387 389 391 -1 387 391 390 -1 388 392 393 -1 388 393 389 -1 389 393 391 -1 390 391 394 -1 391 393 395 -1 391 395 394 -1 392 396 397 -1 392 397 393 -1 393 397 395 -1 394 395 398 -1 395 397 399 -1 395 399 398 -1 396 400 401 -1 396 401 397 -1 397 401 399 -1 398 399 402 -1 399 401 403 -1 399 403 402 -1 400 404 405 -1 400 405 401 -1 401 405 403 -1 402 403 406 -1 403 405 407 -1 403 407 406 -1 404 408 409 -1 404 409 405 -1 405 409 407 -1 406 407 410 -1 407 409 411 -1 407 411 410 -1 408 412 413 -1 408 413 409 -1 409 413 411 -1 410 411 414 -1 411 413 415 -1 411 415 414 -1 412 416 417 -1 412 417 413 -1 413 417 415 -1 414 415 418 -1 415 417 419 -1 415 419 418 -1 416 420 421 -1 416 421 417 -1 417 421 419 -1 418 419 422 -1 419 421 423 -1 419 423 422 -1 420 424 425 -1 420 425 421 -1 421 425 423 -1 422 423 426 -1 423 425 427 -1 423 427 426 -1 424 428 429 -1 424 429 425 -1 425 429 427 -1 426 427 430 -1 427 429 431 -1 427 431 430 -1 428 432 433 -1 428 433 429 -1 429 433 431 -1 430 431 434 -1 431 433 435 -1 431 435 434 -1 432 436 437 -1 432 437 433 -1 432 1183 436 -1 433 437 435 -1 434 435 438 -1 435 437 439 -1 435 439 438 -1 436 440 441 -1 436 441 437 -1 436 1183 440 -1 437 441 439 -1 438 439 442 -1 439 441 443 -1 439 443 442 -1 440 444 445 -1 440 445 441 -1 440 1183 444 -1 441 445 443 -1 442 443 446 -1 443 445 447 -1 443 447 446 -1 444 448 449 -1 444 449 445 -1 444 1183 448 -1 445 449 447 -1 446 447 450 -1 446 450 1335 -1 447 449 451 -1 447 451 450 -1 448 452 449 -1 448 1183 452 -1 449 452 453 -1 449 453 451 -1 450 451 455 -1 450 454 1335 -1 450 455 454 -1 451 453 455 -1 452 456 453 -1 452 1183 456 -1 453 456 457 -1 453 457 455 -1 454 455 459 -1 454 458 1183 -1 454 459 458 -1 454 1183 1335 -1 455 457 459 -1 456 460 457 -1 456 1183 460 -1 457 460 461 -1 457 461 459 -1 458 459 463 -1 458 462 1183 -1 458 463 462 -1 459 461 463 -1 460 464 461 -1 460 1183 464 -1 461 464 465 -1 461 465 463 -1 462 463 467 -1 462 466 1183 -1 462 467 466 -1 463 465 467 -1 464 468 465 -1 464 1183 468 -1 465 468 469 -1 465 469 467 -1 466 467 471 -1 466 470 1183 -1 466 471 470 -1 467 469 471 -1 468 472 469 -1 468 1183 472 -1 469 472 473 -1 469 473 471 -1 470 471 475 -1 470 474 1183 -1 470 475 474 -1 471 473 475 -1 472 476 473 -1 472 1183 476 -1 473 476 477 -1 473 477 475 -1 474 475 479 -1 474 478 1183 -1 474 479 478 -1 475 477 479 -1 476 480 477 -1 476 1183 480 -1 477 480 481 -1 477 481 479 -1 478 479 481 -1 478 480 1183 -1 478 481 480 -1 482 483 484 -1 482 484 486 -1 482 486 500 -1 482 496 497 -1 482 497 483 -1 482 500 496 -1 483 497 484 -1 484 485 488 -1 484 487 486 -1 484 488 487 -1 484 497 498 -1 484 498 499 -1 484 499 485 -1 485 499 488 -1 486 487 500 -1 487 501 500 -1 488 499 502 -1 489 490 492 -1 489 492 494 -1 489 494 508 -1 489 503 504 -1 489 504 490 -1 489 508 503 -1 490 491 492 -1 491 493 492 -1 491 505 493 -1 492 493 506 -1 492 495 494 -1 492 506 495 -1 493 505 507 -1 493 507 506 -1 494 495 508 -1 495 506 509 -1 495 509 508 -1 496 498 497 -1 496 500 498 -1 498 500 501 -1 498 501 502 -1 498 502 499 -1 501 515 516 -1 501 516 502 -1 503 506 504 -1 503 508 506 -1 504 505 518 -1 504 506 505 -1 505 506 507 -1 505 519 518 -1 506 508 509 -1 510 511 512 -1 510 512 514 -1 510 514 528 -1 510 524 525 -1 510 525 511 -1 510 528 524 -1 511 525 512 -1 512 513 516 -1 512 515 514 -1 512 516 515 -1 512 525 526 -1 512 526 527 -1 512 527 513 -1 513 527 516 -1 514 515 528 -1 515 529 528 -1 516 527 530 -1 517 518 520 -1 517 520 522 -1 517 522 536 -1 517 531 532 -1 517 532 518 -1 517 536 531 -1 518 519 520 -1 519 521 520 -1 519 533 521 -1 520 521 534 -1 520 523 522 -1 520 534 523 -1 521 533 535 -1 521 535 534 -1 522 523 536 -1 523 534 537 -1 523 537 536 -1 524 526 525 -1 524 528 526 -1 526 528 529 -1 526 529 530 -1 526 530 527 -1 529 543 544 -1 529 544 530 -1 531 534 532 -1 531 536 534 -1 532 533 546 -1 532 534 533 -1 533 534 535 -1 533 547 546 -1 534 536 537 -1 538 539 540 -1 538 540 542 -1 538 542 556 -1 538 552 553 -1 538 553 539 -1 538 556 552 -1 539 553 540 -1 540 541 544 -1 540 543 542 -1 540 544 543 -1 540 553 554 -1 540 554 555 -1 540 555 541 -1 541 555 544 -1 542 543 556 -1 543 557 556 -1 544 555 558 -1 545 546 548 -1 545 548 550 -1 545 550 564 -1 545 559 560 -1 545 560 546 -1 545 564 559 -1 546 547 548 -1 547 549 548 -1 547 561 549 -1 548 549 562 -1 548 551 550 -1 548 562 551 -1 549 561 563 -1 549 563 562 -1 550 551 564 -1 551 562 565 -1 551 565 564 -1 552 554 553 -1 552 556 554 -1 554 556 557 -1 554 557 558 -1 554 558 555 -1 557 571 572 -1 557 572 558 -1 559 562 560 -1 559 564 562 -1 560 561 574 -1 560 562 561 -1 561 562 563 -1 561 575 574 -1 562 564 565 -1 566 567 568 -1 566 568 570 -1 566 570 584 -1 566 580 581 -1 566 581 567 -1 566 584 580 -1 567 581 568 -1 568 569 572 -1 568 571 570 -1 568 572 571 -1 568 581 582 -1 568 582 583 -1 568 583 569 -1 569 583 572 -1 570 571 584 -1 571 585 584 -1 572 583 586 -1 573 574 576 -1 573 576 578 -1 573 578 592 -1 573 587 588 -1 573 588 574 -1 573 592 587 -1 574 575 576 -1 575 577 576 -1 575 589 577 -1 576 577 590 -1 576 579 578 -1 576 590 579 -1 577 589 591 -1 577 591 590 -1 578 579 592 -1 579 590 593 -1 579 593 592 -1 580 582 581 -1 580 584 582 -1 582 584 585 -1 582 585 586 -1 582 586 583 -1 585 599 600 -1 585 600 586 -1 587 590 588 -1 587 592 590 -1 588 589 602 -1 588 590 589 -1 589 590 591 -1 589 603 602 -1 590 592 593 -1 594 595 596 -1 594 596 598 -1 594 598 612 -1 594 608 609 -1 594 609 595 -1 594 612 608 -1 595 609 596 -1 596 597 600 -1 596 599 598 -1 596 600 599 -1 596 609 610 -1 596 610 611 -1 596 611 597 -1 597 611 600 -1 598 599 612 -1 599 613 612 -1 600 611 614 -1 601 602 604 -1 601 604 606 -1 601 606 620 -1 601 615 616 -1 601 616 602 -1 601 620 615 -1 602 603 604 -1 603 605 604 -1 603 617 605 -1 604 605 618 -1 604 607 606 -1 604 618 607 -1 605 617 619 -1 605 619 618 -1 606 607 620 -1 607 618 621 -1 607 621 620 -1 608 610 609 -1 608 612 610 -1 610 612 613 -1 610 613 614 -1 610 614 611 -1 613 627 628 -1 613 628 614 -1 615 618 616 -1 615 620 618 -1 616 617 630 -1 616 618 617 -1 617 618 619 -1 617 631 630 -1 618 620 621 -1 622 623 624 -1 622 624 626 -1 622 626 640 -1 622 636 637 -1 622 637 623 -1 622 640 636 -1 623 637 624 -1 624 625 628 -1 624 627 626 -1 624 628 627 -1 624 637 638 -1 624 638 639 -1 624 639 625 -1 625 639 628 -1 626 627 640 -1 627 641 640 -1 628 639 642 -1 629 630 632 -1 629 632 634 -1 629 634 648 -1 629 643 644 -1 629 644 630 -1 629 648 643 -1 630 631 632 -1 631 633 632 -1 631 645 633 -1 632 633 646 -1 632 635 634 -1 632 646 635 -1 633 645 647 -1 633 647 646 -1 634 635 648 -1 635 646 649 -1 635 649 648 -1 636 638 637 -1 636 640 638 -1 638 640 641 -1 638 641 642 -1 638 642 639 -1 641 655 656 -1 641 656 642 -1 643 646 644 -1 643 648 646 -1 644 645 658 -1 644 646 645 -1 645 646 647 -1 645 659 658 -1 646 648 649 -1 650 651 652 -1 650 652 654 -1 650 654 668 -1 650 664 665 -1 650 665 651 -1 650 668 664 -1 651 665 652 -1 652 653 656 -1 652 655 654 -1 652 656 655 -1 652 665 666 -1 652 666 667 -1 652 667 653 -1 653 667 656 -1 654 655 668 -1 655 669 668 -1 656 667 670 -1 657 658 660 -1 657 660 662 -1 657 662 676 -1 657 671 672 -1 657 672 658 -1 657 676 671 -1 658 659 660 -1 659 661 660 -1 659 673 661 -1 660 661 674 -1 660 663 662 -1 660 674 663 -1 661 673 675 -1 661 675 674 -1 662 663 676 -1 663 674 677 -1 663 677 676 -1 664 666 665 -1 664 668 666 -1 666 668 669 -1 666 669 670 -1 666 670 667 -1 669 683 684 -1 669 684 670 -1 671 674 672 -1 671 676 674 -1 672 673 686 -1 672 674 673 -1 673 674 675 -1 673 687 686 -1 674 676 677 -1 678 679 680 -1 678 680 682 -1 678 682 696 -1 678 692 693 -1 678 693 679 -1 678 696 692 -1 679 693 680 -1 680 681 684 -1 680 683 682 -1 680 684 683 -1 680 693 694 -1 680 694 695 -1 680 695 681 -1 681 695 684 -1 682 683 696 -1 683 697 696 -1 684 695 698 -1 685 686 688 -1 685 688 690 -1 685 690 704 -1 685 699 700 -1 685 700 686 -1 685 704 699 -1 686 687 688 -1 687 689 688 -1 687 701 689 -1 688 689 702 -1 688 691 690 -1 688 702 691 -1 689 701 703 -1 689 703 702 -1 690 691 704 -1 691 702 705 -1 691 705 704 -1 692 694 693 -1 692 696 694 -1 694 696 697 -1 694 697 698 -1 694 698 695 -1 697 711 712 -1 697 712 698 -1 699 702 700 -1 699 704 702 -1 700 701 714 -1 700 702 701 -1 701 702 703 -1 701 715 714 -1 702 704 705 -1 706 707 708 -1 706 708 710 -1 706 710 724 -1 706 720 721 -1 706 721 707 -1 706 724 720 -1 707 721 708 -1 708 709 712 -1 708 711 710 -1 708 712 711 -1 708 721 722 -1 708 722 723 -1 708 723 709 -1 709 723 712 -1 710 711 724 -1 711 725 724 -1 712 723 726 -1 713 714 716 -1 713 716 718 -1 713 718 732 -1 713 727 728 -1 713 728 714 -1 713 732 727 -1 714 715 716 -1 715 717 716 -1 715 729 717 -1 716 717 730 -1 716 719 718 -1 716 730 719 -1 717 729 731 -1 717 731 730 -1 718 719 732 -1 719 730 733 -1 719 733 732 -1 720 722 721 -1 720 724 722 -1 722 724 725 -1 722 725 726 -1 722 726 723 -1 725 739 740 -1 725 740 726 -1 727 730 728 -1 727 732 730 -1 728 729 742 -1 728 730 729 -1 729 730 731 -1 729 743 742 -1 730 732 733 -1 734 735 736 -1 734 736 738 -1 734 738 752 -1 734 748 749 -1 734 749 735 -1 734 752 748 -1 735 749 736 -1 736 737 740 -1 736 739 738 -1 736 740 739 -1 736 749 750 -1 736 750 751 -1 736 751 737 -1 737 751 740 -1 738 739 752 -1 739 753 752 -1 740 751 754 -1 741 742 744 -1 741 744 746 -1 741 746 760 -1 741 755 756 -1 741 756 742 -1 741 760 755 -1 742 743 744 -1 743 745 744 -1 743 757 745 -1 744 745 758 -1 744 747 746 -1 744 758 747 -1 745 757 759 -1 745 759 758 -1 746 747 760 -1 747 758 761 -1 747 761 760 -1 748 750 749 -1 748 752 750 -1 750 752 753 -1 750 753 754 -1 750 754 751 -1 753 767 768 -1 753 768 754 -1 755 758 756 -1 755 760 758 -1 756 757 770 -1 756 758 757 -1 757 758 759 -1 757 771 770 -1 758 760 761 -1 762 763 764 -1 762 764 766 -1 762 766 780 -1 762 776 777 -1 762 777 763 -1 762 780 776 -1 763 777 764 -1 764 765 768 -1 764 767 766 -1 764 768 767 -1 764 777 778 -1 764 778 779 -1 764 779 765 -1 765 779 768 -1 766 767 780 -1 767 781 780 -1 768 779 782 -1 769 770 772 -1 769 772 774 -1 769 774 788 -1 769 783 784 -1 769 784 770 -1 769 788 783 -1 770 771 772 -1 771 773 772 -1 771 785 773 -1 772 773 786 -1 772 775 774 -1 772 786 775 -1 773 785 787 -1 773 787 786 -1 774 775 788 -1 775 786 789 -1 775 789 788 -1 776 778 777 -1 776 780 778 -1 778 780 781 -1 778 781 782 -1 778 782 779 -1 781 795 796 -1 781 796 782 -1 783 786 784 -1 783 788 786 -1 784 785 798 -1 784 786 785 -1 785 786 787 -1 785 799 798 -1 786 788 789 -1 790 791 792 -1 790 792 794 -1 790 794 808 -1 790 804 805 -1 790 805 791 -1 790 808 804 -1 791 805 792 -1 792 793 796 -1 792 795 794 -1 792 796 795 -1 792 805 806 -1 792 806 807 -1 792 807 793 -1 793 807 796 -1 794 795 808 -1 795 809 808 -1 796 807 810 -1 797 798 800 -1 797 800 802 -1 797 802 816 -1 797 811 812 -1 797 812 798 -1 797 816 811 -1 798 799 800 -1 799 801 800 -1 799 813 801 -1 800 801 814 -1 800 803 802 -1 800 814 803 -1 801 813 815 -1 801 815 814 -1 802 803 816 -1 803 814 817 -1 803 817 816 -1 804 806 805 -1 804 808 806 -1 806 808 809 -1 806 809 810 -1 806 810 807 -1 809 823 824 -1 809 824 810 -1 810 824 1183 -1 811 814 812 -1 811 816 814 -1 812 813 826 -1 812 814 813 -1 813 814 815 -1 813 827 826 -1 814 816 817 -1 818 819 820 -1 818 820 822 -1 818 822 836 -1 818 832 833 -1 818 833 819 -1 818 836 832 -1 819 833 820 -1 820 821 824 -1 820 823 822 -1 820 824 823 -1 820 833 834 -1 820 834 835 -1 820 835 821 -1 821 835 824 -1 822 823 836 -1 823 826 840 -1 823 837 836 -1 823 840 837 -1 824 835 838 -1 824 838 1183 -1 825 826 828 -1 825 828 830 -1 825 830 844 -1 825 839 840 -1 825 840 826 -1 825 844 839 -1 826 827 828 -1 827 829 828 -1 827 841 829 -1 828 829 842 -1 828 831 830 -1 828 842 831 -1 829 841 843 -1 829 843 842 -1 830 831 844 -1 831 842 845 -1 831 845 844 -1 832 834 833 -1 832 836 834 -1 834 836 837 -1 834 837 838 -1 834 838 835 -1 837 840 1260 -1 837 851 852 -1 837 852 838 -1 837 1257 851 -1 837 1260 1257 -1 838 852 1183 -1 839 842 840 -1 839 844 842 -1 840 841 854 -1 840 842 841 -1 840 854 1263 -1 840 1263 1260 -1 841 842 843 -1 841 855 854 -1 842 844 845 -1 846 847 848 -1 846 848 850 -1 846 850 864 -1 846 860 861 -1 846 861 847 -1 846 864 860 -1 847 861 848 -1 848 849 852 -1 848 851 850 -1 848 852 851 -1 848 861 862 -1 848 862 863 -1 848 863 849 -1 849 863 852 -1 850 851 864 -1 851 865 864 -1 851 1254 865 -1 851 1257 1254 -1 852 863 866 -1 852 866 1183 -1 853 854 856 -1 853 856 858 -1 853 858 872 -1 853 867 868 -1 853 868 854 -1 853 872 867 -1 854 855 856 -1 854 868 1266 -1 854 1266 1263 -1 855 857 856 -1 855 869 857 -1 855 1335 869 -1 856 857 870 -1 856 859 858 -1 856 870 859 -1 857 869 871 -1 857 871 870 -1 858 859 872 -1 859 870 873 -1 859 873 872 -1 860 862 861 -1 860 864 862 -1 862 864 865 -1 862 865 866 -1 862 866 863 -1 865 879 880 -1 865 880 866 -1 865 1251 879 -1 865 1254 1251 -1 866 880 1183 -1 867 870 868 -1 867 872 870 -1 868 869 882 -1 868 870 869 -1 868 882 1269 -1 868 1269 1266 -1 869 870 871 -1 869 883 882 -1 869 1335 883 -1 870 872 873 -1 874 875 876 -1 874 876 878 -1 874 878 892 -1 874 888 889 -1 874 889 875 -1 874 892 888 -1 875 889 876 -1 876 877 880 -1 876 879 878 -1 876 880 879 -1 876 889 890 -1 876 890 891 -1 876 891 877 -1 877 891 880 -1 878 879 892 -1 879 893 892 -1 879 1248 893 -1 879 1251 1248 -1 880 891 894 -1 880 894 1183 -1 881 882 884 -1 881 884 886 -1 881 886 900 -1 881 895 896 -1 881 896 882 -1 881 900 895 -1 882 883 884 -1 882 896 1272 -1 882 1272 1269 -1 883 885 884 -1 883 897 885 -1 883 1335 897 -1 884 885 898 -1 884 887 886 -1 884 898 887 -1 885 897 899 -1 885 899 898 -1 886 887 900 -1 887 898 901 -1 887 901 900 -1 888 890 889 -1 888 892 890 -1 890 892 893 -1 890 893 894 -1 890 894 891 -1 893 907 908 -1 893 908 894 -1 893 1245 907 -1 893 1248 1245 -1 894 908 1183 -1 895 898 896 -1 895 900 898 -1 896 897 910 -1 896 898 897 -1 896 910 1275 -1 896 1275 1272 -1 897 898 899 -1 897 911 910 -1 897 1335 911 -1 898 900 901 -1 902 903 904 -1 902 904 906 -1 902 906 920 -1 902 916 917 -1 902 917 903 -1 902 920 916 -1 903 917 904 -1 904 905 908 -1 904 907 906 -1 904 908 907 -1 904 917 918 -1 904 918 919 -1 904 919 905 -1 905 919 908 -1 906 907 920 -1 907 921 920 -1 907 1242 921 -1 907 1245 1242 -1 908 919 922 -1 908 922 1183 -1 909 910 912 -1 909 912 914 -1 909 914 928 -1 909 923 924 -1 909 924 910 -1 909 928 923 -1 910 911 912 -1 910 924 1278 -1 910 1278 1275 -1 911 913 912 -1 911 925 913 -1 911 1335 925 -1 912 913 926 -1 912 915 914 -1 912 926 915 -1 913 925 927 -1 913 927 926 -1 914 915 928 -1 915 926 929 -1 915 929 928 -1 916 918 917 -1 916 920 918 -1 918 920 921 -1 918 921 922 -1 918 922 919 -1 921 935 936 -1 921 936 922 -1 921 1239 935 -1 921 1242 1239 -1 922 936 1183 -1 923 926 924 -1 923 928 926 -1 924 925 938 -1 924 926 925 -1 924 938 1281 -1 924 1281 1278 -1 925 926 927 -1 925 939 938 -1 925 1335 939 -1 926 928 929 -1 930 931 932 -1 930 932 934 -1 930 934 948 -1 930 944 945 -1 930 945 931 -1 930 948 944 -1 931 945 932 -1 932 933 936 -1 932 935 934 -1 932 936 935 -1 932 945 946 -1 932 946 947 -1 932 947 933 -1 933 947 936 -1 934 935 948 -1 935 949 948 -1 935 1236 949 -1 935 1239 1236 -1 936 947 950 -1 936 950 1183 -1 937 938 940 -1 937 940 942 -1 937 942 956 -1 937 951 952 -1 937 952 938 -1 937 956 951 -1 938 939 940 -1 938 952 1284 -1 938 1284 1281 -1 939 941 940 -1 939 953 941 -1 939 1335 953 -1 940 941 954 -1 940 943 942 -1 940 954 943 -1 941 953 955 -1 941 955 954 -1 942 943 956 -1 943 954 957 -1 943 957 956 -1 944 946 945 -1 944 948 946 -1 946 948 949 -1 946 949 950 -1 946 950 947 -1 949 963 964 -1 949 964 950 -1 949 1233 963 -1 949 1236 1233 -1 950 964 1183 -1 951 954 952 -1 951 956 954 -1 952 953 966 -1 952 954 953 -1 952 966 1287 -1 952 1287 1284 -1 953 954 955 -1 953 967 966 -1 953 1335 967 -1 954 956 957 -1 958 959 960 -1 958 960 962 -1 958 962 976 -1 958 972 973 -1 958 973 959 -1 958 976 972 -1 959 973 960 -1 960 961 964 -1 960 963 962 -1 960 964 963 -1 960 973 974 -1 960 974 975 -1 960 975 961 -1 961 975 964 -1 962 963 976 -1 963 977 976 -1 963 1230 977 -1 963 1233 1230 -1 964 975 978 -1 964 978 1183 -1 965 966 968 -1 965 968 970 -1 965 970 984 -1 965 979 980 -1 965 980 966 -1 965 984 979 -1 966 967 968 -1 966 980 1290 -1 966 1290 1287 -1 967 969 968 -1 967 981 969 -1 967 1335 981 -1 968 969 982 -1 968 971 970 -1 968 982 971 -1 969 981 983 -1 969 983 982 -1 970 971 984 -1 971 982 985 -1 971 985 984 -1 972 974 973 -1 972 976 974 -1 974 976 977 -1 974 977 978 -1 974 978 975 -1 977 991 992 -1 977 992 978 -1 977 1227 991 -1 977 1230 1227 -1 978 992 1183 -1 979 982 980 -1 979 984 982 -1 980 981 994 -1 980 982 981 -1 980 994 1293 -1 980 1293 1290 -1 981 982 983 -1 981 995 994 -1 981 1335 995 -1 982 984 985 -1 986 987 988 -1 986 988 990 -1 986 990 1004 -1 986 1000 1001 -1 986 1001 987 -1 986 1004 1000 -1 987 1001 988 -1 988 989 992 -1 988 991 990 -1 988 992 991 -1 988 1001 1002 -1 988 1002 1003 -1 988 1003 989 -1 989 1003 992 -1 990 991 1004 -1 991 1005 1004 -1 991 1224 1005 -1 991 1227 1224 -1 992 1003 1006 -1 992 1006 1183 -1 993 994 996 -1 993 996 998 -1 993 998 1012 -1 993 1007 1008 -1 993 1008 994 -1 993 1012 1007 -1 994 995 996 -1 994 1008 1296 -1 994 1296 1293 -1 995 997 996 -1 995 1009 997 -1 995 1335 1009 -1 996 997 1010 -1 996 999 998 -1 996 1010 999 -1 997 1009 1011 -1 997 1011 1010 -1 998 999 1012 -1 999 1010 1013 -1 999 1013 1012 -1 1000 1002 1001 -1 1000 1004 1002 -1 1002 1004 1005 -1 1002 1005 1006 -1 1002 1006 1003 -1 1005 1019 1020 -1 1005 1020 1006 -1 1005 1221 1019 -1 1005 1224 1221 -1 1006 1020 1183 -1 1007 1010 1008 -1 1007 1012 1010 -1 1008 1009 1022 -1 1008 1010 1009 -1 1008 1022 1299 -1 1008 1299 1296 -1 1009 1010 1011 -1 1009 1023 1022 -1 1009 1335 1023 -1 1010 1012 1013 -1 1014 1015 1016 -1 1014 1016 1018 -1 1014 1018 1032 -1 1014 1028 1029 -1 1014 1029 1015 -1 1014 1032 1028 -1 1015 1029 1016 -1 1016 1017 1020 -1 1016 1019 1018 -1 1016 1020 1019 -1 1016 1029 1030 -1 1016 1030 1031 -1 1016 1031 1017 -1 1017 1031 1020 -1 1018 1019 1032 -1 1019 1033 1032 -1 1019 1218 1033 -1 1019 1221 1218 -1 1020 1031 1034 -1 1020 1034 1183 -1 1021 1022 1024 -1 1021 1024 1026 -1 1021 1026 1040 -1 1021 1035 1036 -1 1021 1036 1022 -1 1021 1040 1035 -1 1022 1023 1024 -1 1022 1036 1302 -1 1022 1302 1299 -1 1023 1025 1024 -1 1023 1037 1025 -1 1023 1335 1037 -1 1024 1025 1038 -1 1024 1027 1026 -1 1024 1038 1027 -1 1025 1037 1039 -1 1025 1039 1038 -1 1026 1027 1040 -1 1027 1038 1041 -1 1027 1041 1040 -1 1028 1030 1029 -1 1028 1032 1030 -1 1030 1032 1033 -1 1030 1033 1034 -1 1030 1034 1031 -1 1033 1047 1048 -1 1033 1048 1034 -1 1033 1215 1047 -1 1033 1218 1215 -1 1034 1048 1183 -1 1035 1038 1036 -1 1035 1040 1038 -1 1036 1037 1050 -1 1036 1038 1037 -1 1036 1050 1305 -1 1036 1305 1302 -1 1037 1038 1039 -1 1037 1051 1050 -1 1037 1335 1051 -1 1038 1040 1041 -1 1042 1043 1044 -1 1042 1044 1046 -1 1042 1046 1060 -1 1042 1056 1057 -1 1042 1057 1043 -1 1042 1060 1056 -1 1043 1057 1044 -1 1044 1045 1048 -1 1044 1047 1046 -1 1044 1048 1047 -1 1044 1057 1058 -1 1044 1058 1059 -1 1044 1059 1045 -1 1045 1059 1048 -1 1046 1047 1060 -1 1047 1061 1060 -1 1047 1212 1061 -1 1047 1215 1212 -1 1048 1059 1062 -1 1048 1062 1183 -1 1049 1050 1052 -1 1049 1052 1054 -1 1049 1054 1068 -1 1049 1063 1064 -1 1049 1064 1050 -1 1049 1068 1063 -1 1050 1051 1052 -1 1050 1064 1308 -1 1050 1308 1305 -1 1051 1053 1052 -1 1051 1065 1053 -1 1051 1335 1065 -1 1052 1053 1066 -1 1052 1055 1054 -1 1052 1066 1055 -1 1053 1065 1067 -1 1053 1067 1066 -1 1054 1055 1068 -1 1055 1066 1069 -1 1055 1069 1068 -1 1056 1058 1057 -1 1056 1060 1058 -1 1058 1060 1061 -1 1058 1061 1062 -1 1058 1062 1059 -1 1061 1075 1076 -1 1061 1076 1062 -1 1061 1209 1075 -1 1061 1212 1209 -1 1062 1076 1183 -1 1063 1066 1064 -1 1063 1068 1066 -1 1064 1065 1078 -1 1064 1066 1065 -1 1064 1078 1311 -1 1064 1311 1308 -1 1065 1066 1067 -1 1065 1079 1078 -1 1065 1335 1079 -1 1066 1068 1069 -1 1070 1071 1072 -1 1070 1072 1074 -1 1070 1074 1088 -1 1070 1084 1085 -1 1070 1085 1071 -1 1070 1088 1084 -1 1071 1085 1072 -1 1072 1073 1076 -1 1072 1075 1074 -1 1072 1076 1075 -1 1072 1085 1086 -1 1072 1086 1087 -1 1072 1087 1073 -1 1073 1087 1076 -1 1074 1075 1088 -1 1075 1089 1088 -1 1075 1206 1089 -1 1075 1209 1206 -1 1076 1087 1090 -1 1076 1090 1183 -1 1077 1078 1080 -1 1077 1080 1082 -1 1077 1082 1096 -1 1077 1091 1092 -1 1077 1092 1078 -1 1077 1096 1091 -1 1078 1079 1080 -1 1078 1092 1314 -1 1078 1314 1311 -1 1079 1081 1080 -1 1079 1093 1081 -1 1079 1335 1093 -1 1080 1081 1094 -1 1080 1083 1082 -1 1080 1094 1083 -1 1081 1093 1095 -1 1081 1095 1094 -1 1082 1083 1096 -1 1083 1094 1097 -1 1083 1097 1096 -1 1084 1086 1085 -1 1084 1088 1086 -1 1086 1088 1089 -1 1086 1089 1090 -1 1086 1090 1087 -1 1089 1103 1104 -1 1089 1104 1090 -1 1089 1203 1103 -1 1089 1206 1203 -1 1090 1104 1183 -1 1091 1094 1092 -1 1091 1096 1094 -1 1092 1093 1106 -1 1092 1094 1093 -1 1092 1106 1317 -1 1092 1317 1314 -1 1093 1094 1095 -1 1093 1107 1106 -1 1093 1335 1107 -1 1094 1096 1097 -1 1098 1099 1100 -1 1098 1100 1102 -1 1098 1102 1116 -1 1098 1112 1113 -1 1098 1113 1099 -1 1098 1116 1112 -1 1099 1113 1100 -1 1100 1101 1104 -1 1100 1103 1102 -1 1100 1104 1103 -1 1100 1113 1114 -1 1100 1114 1115 -1 1100 1115 1101 -1 1101 1115 1104 -1 1102 1103 1116 -1 1103 1117 1116 -1 1103 1200 1117 -1 1103 1203 1200 -1 1104 1115 1118 -1 1104 1118 1183 -1 1105 1106 1108 -1 1105 1108 1110 -1 1105 1110 1124 -1 1105 1119 1120 -1 1105 1120 1106 -1 1105 1124 1119 -1 1106 1107 1108 -1 1106 1120 1320 -1 1106 1320 1317 -1 1107 1109 1108 -1 1107 1121 1109 -1 1107 1335 1121 -1 1108 1109 1122 -1 1108 1111 1110 -1 1108 1122 1111 -1 1109 1121 1123 -1 1109 1123 1122 -1 1110 1111 1124 -1 1111 1122 1125 -1 1111 1125 1124 -1 1112 1114 1113 -1 1112 1116 1114 -1 1114 1116 1117 -1 1114 1117 1118 -1 1114 1118 1115 -1 1117 1131 1132 -1 1117 1132 1118 -1 1117 1197 1131 -1 1117 1200 1197 -1 1118 1132 1183 -1 1119 1122 1120 -1 1119 1124 1122 -1 1120 1121 1134 -1 1120 1122 1121 -1 1120 1134 1323 -1 1120 1323 1320 -1 1121 1122 1123 -1 1121 1135 1134 -1 1121 1335 1135 -1 1122 1124 1125 -1 1126 1127 1128 -1 1126 1128 1130 -1 1126 1130 1144 -1 1126 1140 1141 -1 1126 1141 1127 -1 1126 1144 1140 -1 1127 1141 1128 -1 1128 1129 1132 -1 1128 1131 1130 -1 1128 1132 1131 -1 1128 1141 1142 -1 1128 1142 1143 -1 1128 1143 1129 -1 1129 1143 1132 -1 1130 1131 1144 -1 1131 1145 1144 -1 1131 1194 1145 -1 1131 1197 1194 -1 1132 1143 1146 -1 1132 1146 1183 -1 1133 1134 1136 -1 1133 1136 1138 -1 1133 1138 1152 -1 1133 1147 1148 -1 1133 1148 1134 -1 1133 1152 1147 -1 1134 1135 1136 -1 1134 1148 1326 -1 1134 1326 1323 -1 1135 1137 1136 -1 1135 1149 1137 -1 1135 1335 1149 -1 1136 1137 1150 -1 1136 1139 1138 -1 1136 1150 1139 -1 1137 1149 1151 -1 1137 1151 1150 -1 1138 1139 1152 -1 1139 1150 1153 -1 1139 1153 1152 -1 1140 1142 1141 -1 1140 1144 1142 -1 1142 1144 1145 -1 1142 1145 1146 -1 1142 1146 1143 -1 1145 1159 1160 -1 1145 1160 1146 -1 1145 1191 1159 -1 1145 1194 1191 -1 1146 1160 1183 -1 1147 1150 1148 -1 1147 1152 1150 -1 1148 1149 1162 -1 1148 1150 1149 -1 1148 1162 1329 -1 1148 1329 1326 -1 1149 1150 1151 -1 1149 1163 1162 -1 1149 1335 1163 -1 1150 1152 1153 -1 1154 1155 1156 -1 1154 1156 1158 -1 1154 1158 1172 -1 1154 1168 1169 -1 1154 1169 1155 -1 1154 1172 1168 -1 1155 1169 1156 -1 1156 1157 1160 -1 1156 1159 1158 -1 1156 1160 1159 -1 1156 1169 1170 -1 1156 1170 1171 -1 1156 1171 1157 -1 1157 1171 1160 -1 1158 1159 1172 -1 1159 1173 1172 -1 1159 1188 1173 -1 1159 1191 1188 -1 1160 1171 1174 -1 1160 1174 1183 -1 1161 1162 1164 -1 1161 1164 1166 -1 1161 1166 1180 -1 1161 1175 1176 -1 1161 1176 1162 -1 1161 1180 1175 -1 1162 1163 1164 -1 1162 1176 1332 -1 1162 1332 1329 -1 1163 1165 1164 -1 1163 1177 1165 -1 1163 1335 1177 -1 1164 1165 1178 -1 1164 1167 1166 -1 1164 1178 1167 -1 1165 1177 1179 -1 1165 1179 1178 -1 1166 1167 1180 -1 1167 1178 1181 -1 1167 1181 1180 -1 1168 1170 1169 -1 1168 1172 1170 -1 1170 1172 1173 -1 1170 1173 1174 -1 1170 1174 1171 -1 1173 1182 1174 -1 1173 1185 1182 -1 1173 1188 1185 -1 1174 1182 1183 -1 1175 1178 1176 -1 1175 1180 1178 -1 1176 1177 1334 -1 1176 1178 1177 -1 1176 1334 1332 -1 1177 1178 1179 -1 1177 1335 1334 -1 1178 1180 1181 -1 1182 1185 1186 -1 1182 1186 1183 -1 1183 1186 1189 -1 1183 1189 1192 -1 1183 1192 1195 -1 1183 1195 1198 -1 1183 1198 1201 -1 1183 1201 1204 -1 1183 1204 1207 -1 1183 1207 1210 -1 1183 1210 1213 -1 1183 1213 1216 -1 1183 1216 1219 -1 1183 1219 1222 -1 1183 1222 1225 -1 1183 1225 1228 -1 1183 1228 1231 -1 1183 1231 1234 -1 1183 1234 1237 -1 1183 1237 1240 -1 1183 1240 1243 -1 1183 1243 1246 -1 1183 1246 1249 -1 1183 1249 1252 -1 1183 1252 1255 -1 1183 1255 1335 -1 1184 1185 1188 -1 1184 1187 1438 -1 1184 1188 1187 -1 1184 1336 1185 -1 1184 1436 1336 -1 1184 1438 1436 -1 1185 1336 1186 -1 1186 1336 1337 -1 1186 1337 1189 -1 1187 1188 1338 -1 1187 1338 1438 -1 1188 1189 1338 -1 1188 1191 1189 -1 1189 1191 1192 -1 1189 1337 1339 -1 1189 1339 1338 -1 1190 1191 1194 -1 1190 1193 1442 -1 1190 1194 1193 -1 1190 1340 1191 -1 1190 1440 1340 -1 1190 1442 1440 -1 1191 1340 1192 -1 1192 1340 1341 -1 1192 1341 1195 -1 1193 1194 1342 -1 1193 1342 1442 -1 1194 1195 1342 -1 1194 1197 1195 -1 1195 1197 1198 -1 1195 1341 1343 -1 1195 1343 1342 -1 1196 1197 1200 -1 1196 1199 1446 -1 1196 1200 1199 -1 1196 1344 1197 -1 1196 1444 1344 -1 1196 1446 1444 -1 1197 1344 1198 -1 1198 1344 1345 -1 1198 1345 1201 -1 1199 1200 1346 -1 1199 1346 1446 -1 1200 1201 1346 -1 1200 1203 1201 -1 1201 1203 1204 -1 1201 1345 1347 -1 1201 1347 1346 -1 1202 1203 1206 -1 1202 1205 1450 -1 1202 1206 1205 -1 1202 1348 1203 -1 1202 1448 1348 -1 1202 1450 1448 -1 1203 1348 1204 -1 1204 1348 1349 -1 1204 1349 1207 -1 1205 1206 1350 -1 1205 1350 1450 -1 1206 1207 1350 -1 1206 1209 1207 -1 1207 1209 1210 -1 1207 1349 1351 -1 1207 1351 1350 -1 1208 1209 1212 -1 1208 1211 1454 -1 1208 1212 1211 -1 1208 1352 1209 -1 1208 1452 1352 -1 1208 1454 1452 -1 1209 1352 1210 -1 1210 1352 1353 -1 1210 1353 1213 -1 1211 1212 1354 -1 1211 1354 1454 -1 1212 1213 1354 -1 1212 1215 1213 -1 1213 1215 1216 -1 1213 1353 1355 -1 1213 1355 1354 -1 1214 1215 1218 -1 1214 1217 1458 -1 1214 1218 1217 -1 1214 1356 1215 -1 1214 1456 1356 -1 1214 1458 1456 -1 1215 1356 1216 -1 1216 1356 1357 -1 1216 1357 1219 -1 1217 1218 1358 -1 1217 1358 1458 -1 1218 1219 1358 -1 1218 1221 1219 -1 1219 1221 1222 -1 1219 1357 1359 -1 1219 1359 1358 -1 1220 1221 1224 -1 1220 1223 1462 -1 1220 1224 1223 -1 1220 1360 1221 -1 1220 1460 1360 -1 1220 1462 1460 -1 1221 1360 1222 -1 1222 1360 1361 -1 1222 1361 1225 -1 1223 1224 1362 -1 1223 1362 1462 -1 1224 1225 1362 -1 1224 1227 1225 -1 1225 1227 1228 -1 1225 1361 1363 -1 1225 1363 1362 -1 1226 1227 1230 -1 1226 1229 1466 -1 1226 1230 1229 -1 1226 1364 1227 -1 1226 1464 1364 -1 1226 1466 1464 -1 1227 1364 1228 -1 1228 1364 1365 -1 1228 1365 1231 -1 1229 1230 1366 -1 1229 1366 1466 -1 1230 1231 1366 -1 1230 1233 1231 -1 1231 1233 1234 -1 1231 1365 1367 -1 1231 1367 1366 -1 1232 1233 1236 -1 1232 1235 1470 -1 1232 1236 1235 -1 1232 1368 1233 -1 1232 1468 1368 -1 1232 1470 1468 -1 1233 1368 1234 -1 1234 1368 1369 -1 1234 1369 1237 -1 1235 1236 1370 -1 1235 1370 1470 -1 1236 1237 1370 -1 1236 1239 1237 -1 1237 1239 1240 -1 1237 1369 1371 -1 1237 1371 1370 -1 1238 1239 1242 -1 1238 1241 1474 -1 1238 1242 1241 -1 1238 1372 1239 -1 1238 1472 1372 -1 1238 1474 1472 -1 1239 1372 1240 -1 1240 1372 1373 -1 1240 1373 1243 -1 1241 1242 1374 -1 1241 1374 1474 -1 1242 1243 1374 -1 1242 1245 1243 -1 1243 1245 1246 -1 1243 1373 1375 -1 1243 1375 1374 -1 1244 1245 1248 -1 1244 1247 1478 -1 1244 1248 1247 -1 1244 1376 1245 -1 1244 1476 1376 -1 1244 1478 1476 -1 1245 1376 1246 -1 1246 1376 1377 -1 1246 1377 1249 -1 1247 1248 1378 -1 1247 1378 1478 -1 1248 1249 1378 -1 1248 1251 1249 -1 1249 1251 1252 -1 1249 1377 1379 -1 1249 1379 1378 -1 1250 1251 1254 -1 1250 1253 1482 -1 1250 1254 1253 -1 1250 1380 1251 -1 1250 1480 1380 -1 1250 1482 1480 -1 1251 1380 1252 -1 1252 1380 1381 -1 1252 1381 1255 -1 1253 1254 1382 -1 1253 1382 1482 -1 1254 1255 1382 -1 1254 1257 1255 -1 1255 1257 1258 -1 1255 1258 1335 -1 1255 1381 1383 -1 1255 1383 1382 -1 1256 1257 1260 -1 1256 1259 1486 -1 1256 1260 1259 -1 1256 1384 1257 -1 1256 1484 1384 -1 1256 1486 1484 -1 1257 1384 1258 -1 1258 1261 1335 -1 1258 1384 1385 -1 1258 1385 1261 -1 1259 1260 1386 -1 1259 1386 1486 -1 1260 1261 1386 -1 1260 1263 1261 -1 1261 1263 1264 -1 1261 1264 1335 -1 1261 1385 1387 -1 1261 1387 1386 -1 1262 1263 1266 -1 1262 1265 1490 -1 1262 1266 1265 -1 1262 1388 1263 -1 1262 1488 1388 -1 1262 1490 1488 -1 1263 1388 1264 -1 1264 1267 1335 -1 1264 1388 1389 -1 1264 1389 1267 -1 1265 1266 1390 -1 1265 1390 1490 -1 1266 1267 1390 -1 1266 1269 1267 -1 1267 1269 1270 -1 1267 1270 1335 -1 1267 1389 1391 -1 1267 1391 1390 -1 1268 1269 1272 -1 1268 1271 1494 -1 1268 1272 1271 -1 1268 1392 1269 -1 1268 1492 1392 -1 1268 1494 1492 -1 1269 1392 1270 -1 1270 1273 1335 -1 1270 1392 1393 -1 1270 1393 1273 -1 1271 1272 1394 -1 1271 1394 1494 -1 1272 1273 1394 -1 1272 1275 1273 -1 1273 1275 1276 -1 1273 1276 1335 -1 1273 1393 1395 -1 1273 1395 1394 -1 1274 1275 1278 -1 1274 1277 1498 -1 1274 1278 1277 -1 1274 1396 1275 -1 1274 1496 1396 -1 1274 1498 1496 -1 1275 1396 1276 -1 1276 1279 1335 -1 1276 1396 1397 -1 1276 1397 1279 -1 1277 1278 1398 -1 1277 1398 1498 -1 1278 1279 1398 -1 1278 1281 1279 -1 1279 1281 1282 -1 1279 1282 1335 -1 1279 1397 1399 -1 1279 1399 1398 -1 1280 1281 1284 -1 1280 1283 1502 -1 1280 1284 1283 -1 1280 1400 1281 -1 1280 1500 1400 -1 1280 1502 1500 -1 1281 1400 1282 -1 1282 1285 1335 -1 1282 1400 1401 -1 1282 1401 1285 -1 1283 1284 1402 -1 1283 1402 1502 -1 1284 1285 1402 -1 1284 1287 1285 -1 1285 1287 1288 -1 1285 1288 1335 -1 1285 1401 1403 -1 1285 1403 1402 -1 1286 1287 1290 -1 1286 1289 1506 -1 1286 1290 1289 -1 1286 1404 1287 -1 1286 1504 1404 -1 1286 1506 1504 -1 1287 1404 1288 -1 1288 1291 1335 -1 1288 1404 1405 -1 1288 1405 1291 -1 1289 1290 1406 -1 1289 1406 1506 -1 1290 1291 1406 -1 1290 1293 1291 -1 1291 1293 1294 -1 1291 1294 1335 -1 1291 1405 1407 -1 1291 1407 1406 -1 1292 1293 1296 -1 1292 1295 1510 -1 1292 1296 1295 -1 1292 1408 1293 -1 1292 1508 1408 -1 1292 1510 1508 -1 1293 1408 1294 -1 1294 1297 1335 -1 1294 1408 1409 -1 1294 1409 1297 -1 1295 1296 1410 -1 1295 1410 1510 -1 1296 1297 1410 -1 1296 1299 1297 -1 1297 1299 1300 -1 1297 1300 1335 -1 1297 1409 1411 -1 1297 1411 1410 -1 1298 1299 1302 -1 1298 1301 1514 -1 1298 1302 1301 -1 1298 1412 1299 -1 1298 1512 1412 -1 1298 1514 1512 -1 1299 1412 1300 -1 1300 1303 1335 -1 1300 1412 1413 -1 1300 1413 1303 -1 1301 1302 1414 -1 1301 1414 1514 -1 1302 1303 1414 -1 1302 1305 1303 -1 1303 1305 1306 -1 1303 1306 1335 -1 1303 1413 1415 -1 1303 1415 1414 -1 1304 1305 1308 -1 1304 1307 1518 -1 1304 1308 1307 -1 1304 1416 1305 -1 1304 1516 1416 -1 1304 1518 1516 -1 1305 1416 1306 -1 1306 1309 1335 -1 1306 1416 1417 -1 1306 1417 1309 -1 1307 1308 1418 -1 1307 1418 1518 -1 1308 1309 1418 -1 1308 1311 1309 -1 1309 1311 1312 -1 1309 1312 1335 -1 1309 1417 1419 -1 1309 1419 1418 -1 1310 1311 1314 -1 1310 1313 1522 -1 1310 1314 1313 -1 1310 1420 1311 -1 1310 1520 1420 -1 1310 1522 1520 -1 1311 1420 1312 -1 1312 1315 1335 -1 1312 1420 1421 -1 1312 1421 1315 -1 1313 1314 1422 -1 1313 1422 1522 -1 1314 1315 1422 -1 1314 1317 1315 -1 1315 1317 1318 -1 1315 1318 1335 -1 1315 1421 1423 -1 1315 1423 1422 -1 1316 1317 1320 -1 1316 1319 1526 -1 1316 1320 1319 -1 1316 1424 1317 -1 1316 1524 1424 -1 1316 1526 1524 -1 1317 1424 1318 -1 1318 1321 1335 -1 1318 1424 1425 -1 1318 1425 1321 -1 1319 1320 1426 -1 1319 1426 1526 -1 1320 1321 1426 -1 1320 1323 1321 -1 1321 1323 1324 -1 1321 1324 1335 -1 1321 1425 1427 -1 1321 1427 1426 -1 1322 1323 1326 -1 1322 1325 1530 -1 1322 1326 1325 -1 1322 1428 1323 -1 1322 1528 1428 -1 1322 1530 1528 -1 1323 1428 1324 -1 1324 1327 1335 -1 1324 1428 1429 -1 1324 1429 1327 -1 1325 1326 1430 -1 1325 1430 1530 -1 1326 1327 1430 -1 1326 1329 1327 -1 1327 1329 1330 -1 1327 1330 1335 -1 1327 1429 1431 -1 1327 1431 1430 -1 1328 1329 1332 -1 1328 1331 1534 -1 1328 1332 1331 -1 1328 1432 1329 -1 1328 1532 1432 -1 1328 1534 1532 -1 1329 1432 1330 -1 1330 1333 1335 -1 1330 1432 1433 -1 1330 1433 1333 -1 1331 1332 1434 -1 1331 1434 1534 -1 1332 1333 1434 -1 1332 1334 1333 -1 1333 1334 1335 -1 1333 1433 1435 -1 1333 1435 1434 -1 1336 1338 1337 -1 1336 1436 1437 -1 1336 1437 1338 -1 1337 1338 1339 -1 1338 1437 1439 -1 1338 1439 1438 -1 1340 1342 1341 -1 1340 1440 1441 -1 1340 1441 1342 -1 1341 1342 1343 -1 1342 1441 1443 -1 1342 1443 1442 -1 1344 1346 1345 -1 1344 1444 1445 -1 1344 1445 1346 -1 1345 1346 1347 -1 1346 1445 1447 -1 1346 1447 1446 -1 1348 1350 1349 -1 1348 1448 1449 -1 1348 1449 1350 -1 1349 1350 1351 -1 1350 1449 1451 -1 1350 1451 1450 -1 1352 1354 1353 -1 1352 1452 1453 -1 1352 1453 1354 -1 1353 1354 1355 -1 1354 1453 1455 -1 1354 1455 1454 -1 1356 1358 1357 -1 1356 1456 1457 -1 1356 1457 1358 -1 1357 1358 1359 -1 1358 1457 1459 -1 1358 1459 1458 -1 1360 1362 1361 -1 1360 1460 1461 -1 1360 1461 1362 -1 1361 1362 1363 -1 1362 1461 1463 -1 1362 1463 1462 -1 1364 1366 1365 -1 1364 1464 1465 -1 1364 1465 1366 -1 1365 1366 1367 -1 1366 1465 1467 -1 1366 1467 1466 -1 1368 1370 1369 -1 1368 1468 1469 -1 1368 1469 1370 -1 1369 1370 1371 -1 1370 1469 1471 -1 1370 1471 1470 -1 1372 1374 1373 -1 1372 1472 1473 -1 1372 1473 1374 -1 1373 1374 1375 -1 1374 1473 1475 -1 1374 1475 1474 -1 1376 1378 1377 -1 1376 1476 1477 -1 1376 1477 1378 -1 1377 1378 1379 -1 1378 1477 1479 -1 1378 1479 1478 -1 1380 1382 1381 -1 1380 1480 1481 -1 1380 1481 1382 -1 1381 1382 1383 -1 1382 1481 1483 -1 1382 1483 1482 -1 1384 1386 1385 -1 1384 1484 1485 -1 1384 1485 1386 -1 1385 1386 1387 -1 1386 1485 1487 -1 1386 1487 1486 -1 1388 1390 1389 -1 1388 1488 1489 -1 1388 1489 1390 -1 1389 1390 1391 -1 1390 1489 1491 -1 1390 1491 1490 -1 1392 1394 1393 -1 1392 1492 1493 -1 1392 1493 1394 -1 1393 1394 1395 -1 1394 1493 1495 -1 1394 1495 1494 -1 1396 1398 1397 -1 1396 1496 1497 -1 1396 1497 1398 -1 1397 1398 1399 -1 1398 1497 1499 -1 1398 1499 1498 -1 1400 1402 1401 -1 1400 1500 1501 -1 1400 1501 1402 -1 1401 1402 1403 -1 1402 1501 1503 -1 1402 1503 1502 -1 1404 1406 1405 -1 1404 1504 1505 -1 1404 1505 1406 -1 1405 1406 1407 -1 1406 1505 1507 -1 1406 1507 1506 -1 1408 1410 1409 -1 1408 1508 1509 -1 1408 1509 1410 -1 1409 1410 1411 -1 1410 1509 1511 -1 1410 1511 1510 -1 1412 1414 1413 -1 1412 1512 1513 -1 1412 1513 1414 -1 1413 1414 1415 -1 1414 1513 1515 -1 1414 1515 1514 -1 1416 1418 1417 -1 1416 1516 1517 -1 1416 1517 1418 -1 1417 1418 1419 -1 1418 1517 1519 -1 1418 1519 1518 -1 1420 1422 1421 -1 1420 1520 1521 -1 1420 1521 1422 -1 1421 1422 1423 -1 1422 1521 1523 -1 1422 1523 1522 -1 1424 1426 1425 -1 1424 1524 1525 -1 1424 1525 1426 -1 1425 1426 1427 -1 1426 1525 1527 -1 1426 1527 1526 -1 1428 1430 1429 -1 1428 1528 1529 -1 1428 1529 1430 -1 1429 1430 1431 -1 1430 1529 1531 -1 1430 1531 1530 -1 1432 1434 1433 -1 1432 1532 1533 -1 1432 1533 1434 -1 1433 1434 1435 -1 1434 1533 1535 -1 1434 1535 1534 -1 1436 1438 1437 -1 1437 1438 1439 -1 1440 1442 1441 -1 1441 1442 1443 -1 1444 1446 1445 -1 1445 1446 1447 -1 1448 1450 1449 -1 1449 1450 1451 -1 1452 1454 1453 -1 1453 1454 1455 -1 1456 1458 1457 -1 1457 1458 1459 -1 1460 1462 1461 -1 1461 1462 1463 -1 1464 1466 1465 -1 1465 1466 1467 -1 1468 1470 1469 -1 1469 1470 1471 -1 1472 1474 1473 -1 1473 1474 1475 -1 1476 1478 1477 -1 1477 1478 1479 -1 1480 1482 1481 -1 1481 1482 1483 -1 1484 1486 1485 -1 1485 1486 1487 -1 1488 1490 1489 -1 1489 1490 1491 -1 1492 1494 1493 -1 1493 1494 1495 -1 1496 1498 1497 -1 1497 1498 1499 -1 1500 1502 1501 -1 1501 1502 1503 -1 1504 1506 1505 -1 1505 1506 1507 -1 1508 1510 1509 -1 1509 1510 1511 -1 1512 1514 1513 -1 1513 1514 1515 -1 1516 1518 1517 -1 1517 1518 1519 -1 1520 1522 1521 -1 1521 1522 1523 -1 1524 1526 1525 -1 1525 1526 1527 -1 1528 1530 1529 -1 1529 1530 1531 -1 1532 1534 1533 -1 1533 1534 1535 -1 "
						                >
							<Coordinate DEF="coords_ME_OpenSCAD_Model"
							            point="0.000000 1.865000 0.000000 0.000000 1.865000 0.199999 0.000000 2.134999 0.000000 0.000000 2.134999 0.199999 0.000000 2.365000 0.000000 0.000000 2.365000 0.199999 0.000000 2.634999 0.000000 0.000000 2.634999 0.199999 0.000000 2.865000 0.000000 0.000000 2.865000 0.199999 0.000000 3.134999 0.000000 0.000000 3.134999 0.199999 0.000000 3.365000 0.000000 0.000000 3.365000 0.199999 0.000000 3.634999 0.000000 0.000000 3.634999 0.199999 0.000000 3.865000 0.000000 0.000000 3.865000 0.199999 0.000000 4.134999 0.000000 0.000000 4.134999 0.199999 0.000000 4.365000 0.000000 0.000000 4.365000 0.199999 0.000000 4.634999 0.000000 0.000000 4.634999 0.199999 0.000000 4.865000 0.000000 0.000000 4.865000 0.199999 0.000000 5.134999 0.000000 0.000000 5.134999 0.199999 0.000000 5.365000 0.000000 0.000000 5.365000 0.199999 0.000000 5.634999 0.000000 0.000000 5.634999 0.199999 0.000000 5.865000 0.000000 0.000000 5.865000 0.199999 0.000000 6.134999 0.000000 0.000000 6.134999 0.199999 0.000000 6.365000 0.000000 0.000000 6.365000 0.199999 0.000000 6.634999 0.000000 0.000000 6.634999 0.199999 0.000000 6.865000 0.000000 0.000000 6.865000 0.199999 0.000000 7.134999 0.000000 0.000000 7.134999 0.199999 0.000000 7.365000 0.000000 0.000000 7.365000 0.199999 0.000000 7.634999 0.000000 0.000000 7.634999 0.199999 0.000000 7.865000 0.000000 0.000000 7.865000 0.199999 0.000000 8.134999 0.000000 0.000000 8.134999 0.199999 0.000000 8.365000 0.000000 0.000000 8.365000 0.199999 0.000000 8.634999 0.000000 0.000000 8.634999 0.199999 0.000000 8.865000 0.000000 0.000000 8.865000 0.199999 0.000000 9.134999 0.000000 0.000000 9.134999 0.199999 0.000000 9.365000 0.000000 0.000000 9.365000 0.199999 0.000000 9.634999 0.000000 0.000000 9.634999 0.199999 0.000000 9.865000 0.000000 0.000000 9.865000 0.199999 0.000000 10.134999 0.000000 0.000000 10.134999 0.199999 0.000000 10.365000 0.000000 0.000000 10.365000 0.199999 0.000000 10.634999 0.000000 0.000000 10.634999 0.199999 0.000000 10.865000 0.000000 0.000000 10.865000 0.199999 0.000000 11.134999 0.000000 0.000000 11.134999 0.199999 0.000000 11.365000 0.000000 0.000000 11.365000 0.199999 0.000000 11.634999 0.000000 0.000000 11.634999 0.199999 0.000000 11.865000 0.000000 0.000000 11.865000 0.199999 0.000000 12.134999 0.000000 0.000000 12.134999 0.199999 0.000000 12.365000 0.000000 0.000000 12.365000 0.199999 0.000000 12.634999 0.000000 0.000000 12.634999 0.199999 0.000000 12.865000 0.000000 0.000000 12.865000 0.199999 0.000000 13.134999 0.000000 0.000000 13.134999 0.199999 0.000000 13.365000 0.000000 0.000000 13.365000 0.199999 0.000000 13.634999 0.000000 0.000000 13.634999 0.199999 0.000000 13.865000 0.000000 0.000000 13.865000 0.199999 0.000000 14.134999 0.000000 0.000000 14.134999 0.199999 0.750000 1.865000 0.199999 0.750000 1.865000 0.599999 0.750000 2.134999 0.199999 0.750000 2.134999 0.599999 0.750000 2.365000 0.199999 0.750000 2.365000 0.599999 0.750000 2.634999 0.199999 0.750000 2.634999 0.599999 0.750000 2.865000 0.199999 0.750000 2.865000 0.599999 0.750000 3.134999 0.199999 0.750000 3.134999 0.599999 0.750000 3.365000 0.199999 0.750000 3.365000 0.599999 0.750000 3.634999 0.199999 0.750000 3.634999 0.599999 0.750000 3.865000 0.199999 0.750000 3.865000 0.599999 0.750000 4.134999 0.199999 0.750000 4.134999 0.599999 0.750000 4.365000 0.199999 0.750000 4.365000 0.599999 0.750000 4.634999 0.199999 0.750000 4.634999 0.599999 0.750000 4.865000 0.199999 0.750000 4.865000 0.599999 0.750000 5.134999 0.199999 0.750000 5.134999 0.599999 0.750000 5.365000 0.199999 0.750000 5.365000 0.599999 0.750000 5.634999 0.199999 0.750000 5.634999 0.599999 0.750000 5.865000 0.199999 0.750000 5.865000 0.599999 0.750000 6.134999 0.199999 0.750000 6.134999 0.599999 0.750000 6.365000 0.199999 0.750000 6.365000 0.599999 0.750000 6.634999 0.199999 0.750000 6.634999 0.599999 0.750000 6.865000 0.199999 0.750000 6.865000 0.599999 0.750000 7.134999 0.199999 0.750000 7.134999 0.599999 0.750000 7.365000 0.199999 0.750000 7.365000 0.599999 0.750000 7.634999 0.199999 0.750000 7.634999 0.599999 0.750000 7.865000 0.199999 0.750000 7.865000 0.599999 0.750000 8.134999 0.199999 0.750000 8.134999 0.599999 0.750000 8.365000 0.199999 0.750000 8.365000 0.599999 0.750000 8.634999 0.199999 0.750000 8.634999 0.599999 0.750000 8.865000 0.199999 0.750000 8.865000 0.599999 0.750000 9.134999 0.199999 0.750000 9.134999 0.599999 0.750000 9.365000 0.199999 0.750000 9.365000 0.599999 0.750000 9.634999 0.199999 0.750000 9.634999 0.599999 0.750000 9.865000 0.199999 0.750000 9.865000 0.599999 0.750000 10.134999 0.199999 0.750000 10.134999 0.599999 0.750000 10.365000 0.199999 0.750000 10.365000 0.599999 0.750000 10.634999 0.199999 0.750000 10.634999 0.599999 0.750000 10.865000 0.199999 0.750000 10.865000 0.599999 0.750000 11.134999 0.199999 0.750000 11.134999 0.599999 0.750000 11.365000 0.199999 0.750000 11.365000 0.599999 0.750000 11.634999 0.199999 0.750000 11.634999 0.599999 0.750000 11.865000 0.199999 0.750000 11.865000 0.599999 0.750000 12.134999 0.199999 0.750000 12.134999 0.599999 0.750000 12.365000 0.199999 0.750000 12.365000 0.599999 0.750000 12.634999 0.199999 0.750000 12.634999 0.599999 0.750000 12.865000 0.199999 0.750000 12.865000 0.599999 0.750000 13.134999 0.199999 0.750000 13.134999 0.599999 0.750000 13.365000 0.199999 0.750000 13.365000 0.599999 0.750000 13.634999 0.199999 0.750000 13.634999 0.599999 0.750000 13.865000 0.199999 0.750000 13.865000 0.599999 0.750000 14.134999 0.199999 0.750000 14.134999 0.599999 1.000000 1.000000 0.149999 1.000000 1.000000 1.199999 1.000000 1.865000 0.000000 1.000000 1.865000 0.149999 1.000000 1.865000 0.599999 1.000000 2.134999 0.000000 1.000000 2.134999 0.149999 1.000000 2.134999 0.599999 1.000000 2.365000 0.000000 1.000000 2.365000 0.149999 1.000000 2.365000 0.599999 1.000000 2.634999 0.000000 1.000000 2.634999 0.149999 1.000000 2.634999 0.599999 1.000000 2.865000 0.000000 1.000000 2.865000 0.149999 1.000000 2.865000 0.599999 1.000000 3.134999 0.000000 1.000000 3.134999 0.149999 1.000000 3.134999 0.599999 1.000000 3.365000 0.000000 1.000000 3.365000 0.149999 1.000000 3.365000 0.599999 1.000000 3.634999 0.000000 1.000000 3.634999 0.149999 1.000000 3.634999 0.599999 1.000000 3.865000 0.000000 1.000000 3.865000 0.149999 1.000000 3.865000 0.599999 1.000000 4.134999 0.000000 1.000000 4.134999 0.149999 1.000000 4.134999 0.599999 1.000000 4.365000 0.000000 1.000000 4.365000 0.149999 1.000000 4.365000 0.599999 1.000000 4.634999 0.000000 1.000000 4.634999 0.149999 1.000000 4.634999 0.599999 1.000000 4.865000 0.000000 1.000000 4.865000 0.149999 1.000000 4.865000 0.599999 1.000000 5.134999 0.000000 1.000000 5.134999 0.149999 1.000000 5.134999 0.599999 1.000000 5.365000 0.000000 1.000000 5.365000 0.149999 1.000000 5.365000 0.599999 1.000000 5.634999 0.000000 1.000000 5.634999 0.149999 1.000000 5.634999 0.599999 1.000000 5.865000 0.000000 1.000000 5.865000 0.149999 1.000000 5.865000 0.599999 1.000000 6.134999 0.000000 1.000000 6.134999 0.149999 1.000000 6.134999 0.599999 1.000000 6.365000 0.000000 1.000000 6.365000 0.149999 1.000000 6.365000 0.599999 1.000000 6.634999 0.000000 1.000000 6.634999 0.149999 1.000000 6.634999 0.599999 1.000000 6.865000 0.000000 1.000000 6.865000 0.149999 1.000000 6.865000 0.599999 1.000000 7.134999 0.000000 1.000000 7.134999 0.149999 1.000000 7.134999 0.599999 1.000000 7.365000 0.000000 1.000000 7.365000 0.149999 1.000000 7.365000 0.599999 1.000000 7.634999 0.000000 1.000000 7.634999 0.149999 1.000000 7.634999 0.599999 1.000000 7.865000 0.000000 1.000000 7.865000 0.149999 1.000000 7.865000 0.599999 1.000000 8.134999 0.000000 1.000000 8.134999 0.149999 1.000000 8.134999 0.599999 1.000000 8.365000 0.000000 1.000000 8.365000 0.149999 1.000000 8.365000 0.599999 1.000000 8.634999 0.000000 1.000000 8.634999 0.149999 1.000000 8.634999 0.599999 1.000000 8.865000 0.000000 1.000000 8.865000 0.149999 1.000000 8.865000 0.599999 1.000000 9.134999 0.000000 1.000000 9.134999 0.149999 1.000000 9.134999 0.599999 1.000000 9.365000 0.000000 1.000000 9.365000 0.149999 1.000000 9.365000 0.599999 1.000000 9.634999 0.000000 1.000000 9.634999 0.149999 1.000000 9.634999 0.599999 1.000000 9.865000 0.000000 1.000000 9.865000 0.149999 1.000000 9.865000 0.599999 1.000000 10.134999 0.000000 1.000000 10.134999 0.149999 1.000000 10.134999 0.599999 1.000000 10.365000 0.000000 1.000000 10.365000 0.149999 1.000000 10.365000 0.599999 1.000000 10.634999 0.000000 1.000000 10.634999 0.149999 1.000000 10.634999 0.599999 1.000000 10.865000 0.000000 1.000000 10.865000 0.149999 1.000000 10.865000 0.599999 1.000000 11.134999 0.000000 1.000000 11.134999 0.149999 1.000000 11.134999 0.599999 1.000000 11.365000 0.000000 1.000000 11.365000 0.149999 1.000000 11.365000 0.599999 1.000000 11.634999 0.000000 1.000000 11.634999 0.149999 1.000000 11.634999 0.599999 1.000000 11.865000 0.000000 1.000000 11.865000 0.149999 1.000000 11.865000 0.599999 1.000000 12.134999 0.000000 1.000000 12.134999 0.149999 1.000000 12.134999 0.599999 1.000000 12.365000 0.000000 1.000000 12.365000 0.149999 1.000000 12.365000 0.599999 1.000000 12.634999 0.000000 1.000000 12.634999 0.149999 1.000000 12.634999 0.599999 1.000000 12.865000 0.000000 1.000000 12.865000 0.149999 1.000000 12.865000 0.599999 1.000000 13.134999 0.000000 1.000000 13.134999 0.149999 1.000000 13.134999 0.599999 1.000000 13.365000 0.000000 1.000000 13.365000 0.149999 1.000000 13.365000 0.599999 1.000000 13.634999 0.000000 1.000000 13.634999 0.149999 1.000000 13.634999 0.599999 1.000000 13.865000 0.000000 1.000000 13.865000 0.149999 1.000000 13.865000 0.599999 1.000000 14.134999 0.000000 1.000000 14.134999 0.149999 1.000000 14.134999 0.599999 1.000000 15.000000 0.149999 1.000000 15.000000 1.199999 1.250000 1.500000 1.199999 1.250000 1.500000 1.299999 1.251203 1.475495 1.199999 1.251203 1.475495 1.299999 1.251203 1.524503 1.199999 1.251203 1.524503 1.299999 1.254803 1.451227 1.199999 1.254803 1.451227 1.299999 1.254803 1.548771 1.199999 1.254803 1.548771 1.299999 1.260764 1.427428 1.199999 1.260764 1.427428 1.299999 1.260764 1.572570 1.199999 1.260764 1.572570 1.299999 1.269029 1.404328 1.199999 1.269029 1.404328 1.299999 1.269029 1.595670 1.199999 1.269029 1.595670 1.299999 1.279519 1.382150 1.199999 1.279519 1.382150 1.299999 1.279519 1.617848 1.199999 1.279519 1.617848 1.299999 1.292132 1.361106 1.199999 1.292132 1.361106 1.299999 1.292132 1.638892 1.199999 1.292132 1.638892 1.299999 1.306746 1.341401 1.199999 1.306746 1.341401 1.299999 1.306746 1.658598 1.199999 1.306746 1.658598 1.299999 1.323223 1.323223 1.199999 1.323223 1.323223 1.299999 1.323223 1.676775 1.199999 1.323223 1.676775 1.299999 1.341401 1.306746 1.199999 1.341401 1.306746 1.299999 1.341401 1.693252 1.199999 1.341401 1.693252 1.299999 1.361106 1.292132 1.199999 1.361106 1.292132 1.299999 1.361106 1.707866 1.199999 1.361106 1.707866 1.299999 1.382150 1.279519 1.199999 1.382150 1.279519 1.299999 1.382150 1.720480 1.199999 1.382150 1.720480 1.299999 1.404328 1.269029 1.199999 1.404328 1.269029 1.299999 1.404328 1.730969 1.199999 1.404328 1.730969 1.299999 1.427428 1.260764 1.199999 1.427428 1.260764 1.299999 1.427428 1.739234 1.199999 1.427428 1.739234 1.299999 1.451227 1.254803 1.199999 1.451227 1.254803 1.299999 1.451227 1.745195 1.199999 1.451227 1.745195 1.299999 1.475495 1.251203 1.199999 1.475495 1.251203 1.299999 1.475495 1.748795 1.199999 1.475495 1.748795 1.299999 1.500000 1.250000 1.199999 1.500000 1.250000 1.299999 1.500000 1.750000 1.199999 1.500000 1.750000 1.299999 1.524503 1.251203 1.199999 1.524503 1.251203 1.299999 1.524503 1.748795 1.199999 1.524503 1.748795 1.299999 1.548771 1.254803 1.199999 1.548771 1.254803 1.299999 1.548771 1.745195 1.199999 1.548771 1.745195 1.299999 1.572570 1.260764 1.199999 1.572570 1.260764 1.299999 1.572570 1.739234 1.199999 1.572570 1.739234 1.299999 1.595670 1.269029 1.199999 1.595670 1.269029 1.299999 1.595670 1.730969 1.199999 1.595670 1.730969 1.299999 1.617848 1.279519 1.199999 1.617848 1.279519 1.299999 1.617848 1.720480 1.199999 1.617848 1.720480 1.299999 1.638892 1.292132 1.199999 1.638892 1.292132 1.299999 1.638892 1.707866 1.199999 1.638892 1.707866 1.299999 1.658598 1.306746 1.199999 1.658598 1.306746 1.299999 1.658598 1.693252 1.199999 1.658598 1.693252 1.299999 1.676775 1.323223 1.199999 1.676775 1.323223 1.299999 1.676775 1.676775 1.199999 1.676775 1.676775 1.299999 1.693252 1.341401 1.199999 1.693252 1.341401 1.299999 1.693252 1.658598 1.199999 1.693252 1.658598 1.299999 1.707866 1.361106 1.199999 1.707866 1.361106 1.299999 1.707866 1.638892 1.199999 1.707866 1.638892 1.299999 1.720480 1.382150 1.199999 1.720480 1.382150 1.299999 1.720480 1.617848 1.199999 1.720480 1.617848 1.299999 1.730969 1.404328 1.199999 1.730969 1.404328 1.299999 1.730969 1.595670 1.199999 1.730969 1.595670 1.299999 1.739234 1.427428 1.199999 1.739234 1.427428 1.299999 1.739234 1.572570 1.199999 1.739234 1.572570 1.299999 1.745195 1.451227 1.199999 1.745195 1.451227 1.299999 1.745195 1.548771 1.199999 1.745195 1.548771 1.299999 1.748795 1.475495 1.199999 1.748795 1.475495 1.299999 1.748795 1.524503 1.199999 1.748795 1.524503 1.299999 1.750000 1.500000 1.199999 1.750000 1.500000 1.299999 1.865000 0.000000 0.000000 1.865000 0.000000 0.199999 1.865000 0.750000 0.199999 1.865000 0.750000 0.599999 1.865000 1.000000 0.000000 1.865000 1.000000 0.149999 1.865000 1.000000 0.599999 1.865000 15.000000 0.000000 1.865000 15.000000 0.149999 1.865000 15.000000 0.599999 1.865000 15.250000 0.199999 1.865000 15.250000 0.599999 1.865000 16.000000 0.000000 1.865000 16.000000 0.199999 2.134999 0.000000 0.000000 2.134999 0.000000 0.199999 2.134999 0.750000 0.199999 2.134999 0.750000 0.599999 2.134999 1.000000 0.000000 2.134999 1.000000 0.149999 2.134999 1.000000 0.599999 2.134999 15.000000 0.000000 2.134999 15.000000 0.149999 2.134999 15.000000 0.599999 2.134999 15.250000 0.199999 2.134999 15.250000 0.599999 2.134999 16.000000 0.000000 2.134999 16.000000 0.199999 2.365000 0.000000 0.000000 2.365000 0.000000 0.199999 2.365000 0.750000 0.199999 2.365000 0.750000 0.599999 2.365000 1.000000 0.000000 2.365000 1.000000 0.149999 2.365000 1.000000 0.599999 2.365000 15.000000 0.000000 2.365000 15.000000 0.149999 2.365000 15.000000 0.599999 2.365000 15.250000 0.199999 2.365000 15.250000 0.599999 2.365000 16.000000 0.000000 2.365000 16.000000 0.199999 2.634999 0.000000 0.000000 2.634999 0.000000 0.199999 2.634999 0.750000 0.199999 2.634999 0.750000 0.599999 2.634999 1.000000 0.000000 2.634999 1.000000 0.149999 2.634999 1.000000 0.599999 2.634999 15.000000 0.000000 2.634999 15.000000 0.149999 2.634999 15.000000 0.599999 2.634999 15.250000 0.199999 2.634999 15.250000 0.599999 2.634999 16.000000 0.000000 2.634999 16.000000 0.199999 2.865000 0.000000 0.000000 2.865000 0.000000 0.199999 2.865000 0.750000 0.199999 2.865000 0.750000 0.599999 2.865000 1.000000 0.000000 2.865000 1.000000 0.149999 2.865000 1.000000 0.599999 2.865000 15.000000 0.000000 2.865000 15.000000 0.149999 2.865000 15.000000 0.599999 2.865000 15.250000 0.199999 2.865000 15.250000 0.599999 2.865000 16.000000 0.000000 2.865000 16.000000 0.199999 3.134999 0.000000 0.000000 3.134999 0.000000 0.199999 3.134999 0.750000 0.199999 3.134999 0.750000 0.599999 3.134999 1.000000 0.000000 3.134999 1.000000 0.149999 3.134999 1.000000 0.599999 3.134999 15.000000 0.000000 3.134999 15.000000 0.149999 3.134999 15.000000 0.599999 3.134999 15.250000 0.199999 3.134999 15.250000 0.599999 3.134999 16.000000 0.000000 3.134999 16.000000 0.199999 3.365000 0.000000 0.000000 3.365000 0.000000 0.199999 3.365000 0.750000 0.199999 3.365000 0.750000 0.599999 3.365000 1.000000 0.000000 3.365000 1.000000 0.149999 3.365000 1.000000 0.599999 3.365000 15.000000 0.000000 3.365000 15.000000 0.149999 3.365000 15.000000 0.599999 3.365000 15.250000 0.199999 3.365000 15.250000 0.599999 3.365000 16.000000 0.000000 3.365000 16.000000 0.199999 3.634999 0.000000 0.000000 3.634999 0.000000 0.199999 3.634999 0.750000 0.199999 3.634999 0.750000 0.599999 3.634999 1.000000 0.000000 3.634999 1.000000 0.149999 3.634999 1.000000 0.599999 3.634999 15.000000 0.000000 3.634999 15.000000 0.149999 3.634999 15.000000 0.599999 3.634999 15.250000 0.199999 3.634999 15.250000 0.599999 3.634999 16.000000 0.000000 3.634999 16.000000 0.199999 3.865000 0.000000 0.000000 3.865000 0.000000 0.199999 3.865000 0.750000 0.199999 3.865000 0.750000 0.599999 3.865000 1.000000 0.000000 3.865000 1.000000 0.149999 3.865000 1.000000 0.599999 3.865000 15.000000 0.000000 3.865000 15.000000 0.149999 3.865000 15.000000 0.599999 3.865000 15.250000 0.199999 3.865000 15.250000 0.599999 3.865000 16.000000 0.000000 3.865000 16.000000 0.199999 4.134999 0.000000 0.000000 4.134999 0.000000 0.199999 4.134999 0.750000 0.199999 4.134999 0.750000 0.599999 4.134999 1.000000 0.000000 4.134999 1.000000 0.149999 4.134999 1.000000 0.599999 4.134999 15.000000 0.000000 4.134999 15.000000 0.149999 4.134999 15.000000 0.599999 4.134999 15.250000 0.199999 4.134999 15.250000 0.599999 4.134999 16.000000 0.000000 4.134999 16.000000 0.199999 4.365000 0.000000 0.000000 4.365000 0.000000 0.199999 4.365000 0.750000 0.199999 4.365000 0.750000 0.599999 4.365000 1.000000 0.000000 4.365000 1.000000 0.149999 4.365000 1.000000 0.599999 4.365000 15.000000 0.000000 4.365000 15.000000 0.149999 4.365000 15.000000 0.599999 4.365000 15.250000 0.199999 4.365000 15.250000 0.599999 4.365000 16.000000 0.000000 4.365000 16.000000 0.199999 4.634999 0.000000 0.000000 4.634999 0.000000 0.199999 4.634999 0.750000 0.199999 4.634999 0.750000 0.599999 4.634999 1.000000 0.000000 4.634999 1.000000 0.149999 4.634999 1.000000 0.599999 4.634999 15.000000 0.000000 4.634999 15.000000 0.149999 4.634999 15.000000 0.599999 4.634999 15.250000 0.199999 4.634999 15.250000 0.599999 4.634999 16.000000 0.000000 4.634999 16.000000 0.199999 4.865000 0.000000 0.000000 4.865000 0.000000 0.199999 4.865000 0.750000 0.199999 4.865000 0.750000 0.599999 4.865000 1.000000 0.000000 4.865000 1.000000 0.149999 4.865000 1.000000 0.599999 4.865000 15.000000 0.000000 4.865000 15.000000 0.149999 4.865000 15.000000 0.599999 4.865000 15.250000 0.199999 4.865000 15.250000 0.599999 4.865000 16.000000 0.000000 4.865000 16.000000 0.199999 5.134999 0.000000 0.000000 5.134999 0.000000 0.199999 5.134999 0.750000 0.199999 5.134999 0.750000 0.599999 5.134999 1.000000 0.000000 5.134999 1.000000 0.149999 5.134999 1.000000 0.599999 5.134999 15.000000 0.000000 5.134999 15.000000 0.149999 5.134999 15.000000 0.599999 5.134999 15.250000 0.199999 5.134999 15.250000 0.599999 5.134999 16.000000 0.000000 5.134999 16.000000 0.199999 5.365000 0.000000 0.000000 5.365000 0.000000 0.199999 5.365000 0.750000 0.199999 5.365000 0.750000 0.599999 5.365000 1.000000 0.000000 5.365000 1.000000 0.149999 5.365000 1.000000 0.599999 5.365000 15.000000 0.000000 5.365000 15.000000 0.149999 5.365000 15.000000 0.599999 5.365000 15.250000 0.199999 5.365000 15.250000 0.599999 5.365000 16.000000 0.000000 5.365000 16.000000 0.199999 5.634999 0.000000 0.000000 5.634999 0.000000 0.199999 5.634999 0.750000 0.199999 5.634999 0.750000 0.599999 5.634999 1.000000 0.000000 5.634999 1.000000 0.149999 5.634999 1.000000 0.599999 5.634999 15.000000 0.000000 5.634999 15.000000 0.149999 5.634999 15.000000 0.599999 5.634999 15.250000 0.199999 5.634999 15.250000 0.599999 5.634999 16.000000 0.000000 5.634999 16.000000 0.199999 5.865000 0.000000 0.000000 5.865000 0.000000 0.199999 5.865000 0.750000 0.199999 5.865000 0.750000 0.599999 5.865000 1.000000 0.000000 5.865000 1.000000 0.149999 5.865000 1.000000 0.599999 5.865000 15.000000 0.000000 5.865000 15.000000 0.149999 5.865000 15.000000 0.599999 5.865000 15.250000 0.199999 5.865000 15.250000 0.599999 5.865000 16.000000 0.000000 5.865000 16.000000 0.199999 6.134999 0.000000 0.000000 6.134999 0.000000 0.199999 6.134999 0.750000 0.199999 6.134999 0.750000 0.599999 6.134999 1.000000 0.000000 6.134999 1.000000 0.149999 6.134999 1.000000 0.599999 6.134999 15.000000 0.000000 6.134999 15.000000 0.149999 6.134999 15.000000 0.599999 6.134999 15.250000 0.199999 6.134999 15.250000 0.599999 6.134999 16.000000 0.000000 6.134999 16.000000 0.199999 6.365000 0.000000 0.000000 6.365000 0.000000 0.199999 6.365000 0.750000 0.199999 6.365000 0.750000 0.599999 6.365000 1.000000 0.000000 6.365000 1.000000 0.149999 6.365000 1.000000 0.599999 6.365000 15.000000 0.000000 6.365000 15.000000 0.149999 6.365000 15.000000 0.599999 6.365000 15.250000 0.199999 6.365000 15.250000 0.599999 6.365000 16.000000 0.000000 6.365000 16.000000 0.199999 6.634999 0.000000 0.000000 6.634999 0.000000 0.199999 6.634999 0.750000 0.199999 6.634999 0.750000 0.599999 6.634999 1.000000 0.000000 6.634999 1.000000 0.149999 6.634999 1.000000 0.599999 6.634999 15.000000 0.000000 6.634999 15.000000 0.149999 6.634999 15.000000 0.599999 6.634999 15.250000 0.199999 6.634999 15.250000 0.599999 6.634999 16.000000 0.000000 6.634999 16.000000 0.199999 6.865000 0.000000 0.000000 6.865000 0.000000 0.199999 6.865000 0.750000 0.199999 6.865000 0.750000 0.599999 6.865000 1.000000 0.000000 6.865000 1.000000 0.149999 6.865000 1.000000 0.599999 6.865000 15.000000 0.000000 6.865000 15.000000 0.149999 6.865000 15.000000 0.599999 6.865000 15.250000 0.199999 6.865000 15.250000 0.599999 6.865000 16.000000 0.000000 6.865000 16.000000 0.199999 7.134999 0.000000 0.000000 7.134999 0.000000 0.199999 7.134999 0.750000 0.199999 7.134999 0.750000 0.599999 7.134999 1.000000 0.000000 7.134999 1.000000 0.149999 7.134999 1.000000 0.599999 7.134999 15.000000 0.000000 7.134999 15.000000 0.149999 7.134999 15.000000 0.599999 7.134999 15.250000 0.199999 7.134999 15.250000 0.599999 7.134999 16.000000 0.000000 7.134999 16.000000 0.199999 7.365000 0.000000 0.000000 7.365000 0.000000 0.199999 7.365000 0.750000 0.199999 7.365000 0.750000 0.599999 7.365000 1.000000 0.000000 7.365000 1.000000 0.149999 7.365000 1.000000 0.599999 7.365000 15.000000 0.000000 7.365000 15.000000 0.149999 7.365000 15.000000 0.599999 7.365000 15.250000 0.199999 7.365000 15.250000 0.599999 7.365000 16.000000 0.000000 7.365000 16.000000 0.199999 7.634999 0.000000 0.000000 7.634999 0.000000 0.199999 7.634999 0.750000 0.199999 7.634999 0.750000 0.599999 7.634999 1.000000 0.000000 7.634999 1.000000 0.149999 7.634999 1.000000 0.599999 7.634999 15.000000 0.000000 7.634999 15.000000 0.149999 7.634999 15.000000 0.599999 7.634999 15.250000 0.199999 7.634999 15.250000 0.599999 7.634999 16.000000 0.000000 7.634999 16.000000 0.199999 7.865000 0.000000 0.000000 7.865000 0.000000 0.199999 7.865000 0.750000 0.199999 7.865000 0.750000 0.599999 7.865000 1.000000 0.000000 7.865000 1.000000 0.149999 7.865000 1.000000 0.599999 7.865000 15.000000 0.000000 7.865000 15.000000 0.149999 7.865000 15.000000 0.599999 7.865000 15.250000 0.199999 7.865000 15.250000 0.599999 7.865000 16.000000 0.000000 7.865000 16.000000 0.199999 8.134999 0.000000 0.000000 8.134999 0.000000 0.199999 8.134999 0.750000 0.199999 8.134999 0.750000 0.599999 8.134999 1.000000 0.000000 8.134999 1.000000 0.149999 8.134999 1.000000 0.599999 8.134999 15.000000 0.000000 8.134999 15.000000 0.149999 8.134999 15.000000 0.599999 8.134999 15.250000 0.199999 8.134999 15.250000 0.599999 8.134999 16.000000 0.000000 8.134999 16.000000 0.199999 8.365000 0.000000 0.000000 8.365000 0.000000 0.199999 8.365000 0.750000 0.199999 8.365000 0.750000 0.599999 8.365000 1.000000 0.000000 8.365000 1.000000 0.149999 8.365000 1.000000 0.599999 8.365000 15.000000 0.000000 8.365000 15.000000 0.149999 8.365000 15.000000 0.599999 8.365000 15.250000 0.199999 8.365000 15.250000 0.599999 8.365000 16.000000 0.000000 8.365000 16.000000 0.199999 8.634999 0.000000 0.000000 8.634999 0.000000 0.199999 8.634999 0.750000 0.199999 8.634999 0.750000 0.599999 8.634999 1.000000 0.000000 8.634999 1.000000 0.149999 8.634999 1.000000 0.599999 8.634999 15.000000 0.000000 8.634999 15.000000 0.149999 8.634999 15.000000 0.599999 8.634999 15.250000 0.199999 8.634999 15.250000 0.599999 8.634999 16.000000 0.000000 8.634999 16.000000 0.199999 8.865000 0.000000 0.000000 8.865000 0.000000 0.199999 8.865000 0.750000 0.199999 8.865000 0.750000 0.599999 8.865000 1.000000 0.000000 8.865000 1.000000 0.149999 8.865000 1.000000 0.599999 8.865000 15.000000 0.000000 8.865000 15.000000 0.149999 8.865000 15.000000 0.599999 8.865000 15.250000 0.199999 8.865000 15.250000 0.599999 8.865000 16.000000 0.000000 8.865000 16.000000 0.199999 9.134999 0.000000 0.000000 9.134999 0.000000 0.199999 9.134999 0.750000 0.199999 9.134999 0.750000 0.599999 9.134999 1.000000 0.000000 9.134999 1.000000 0.149999 9.134999 1.000000 0.599999 9.134999 15.000000 0.000000 9.134999 15.000000 0.149999 9.134999 15.000000 0.599999 9.134999 15.250000 0.199999 9.134999 15.250000 0.599999 9.134999 16.000000 0.000000 9.134999 16.000000 0.199999 9.365000 0.000000 0.000000 9.365000 0.000000 0.199999 9.365000 0.750000 0.199999 9.365000 0.750000 0.599999 9.365000 1.000000 0.000000 9.365000 1.000000 0.149999 9.365000 1.000000 0.599999 9.365000 15.000000 0.000000 9.365000 15.000000 0.149999 9.365000 15.000000 0.599999 9.365000 15.250000 0.199999 9.365000 15.250000 0.599999 9.365000 16.000000 0.000000 9.365000 16.000000 0.199999 9.634999 0.000000 0.000000 9.634999 0.000000 0.199999 9.634999 0.750000 0.199999 9.634999 0.750000 0.599999 9.634999 1.000000 0.000000 9.634999 1.000000 0.149999 9.634999 1.000000 0.599999 9.634999 15.000000 0.000000 9.634999 15.000000 0.149999 9.634999 15.000000 0.599999 9.634999 15.250000 0.199999 9.634999 15.250000 0.599999 9.634999 16.000000 0.000000 9.634999 16.000000 0.199999 9.865000 0.000000 0.000000 9.865000 0.000000 0.199999 9.865000 0.750000 0.199999 9.865000 0.750000 0.599999 9.865000 1.000000 0.000000 9.865000 1.000000 0.149999 9.865000 1.000000 0.599999 9.865000 15.000000 0.000000 9.865000 15.000000 0.149999 9.865000 15.000000 0.599999 9.865000 15.250000 0.199999 9.865000 15.250000 0.599999 9.865000 16.000000 0.000000 9.865000 16.000000 0.199999 10.134999 0.000000 0.000000 10.134999 0.000000 0.199999 10.134999 0.750000 0.199999 10.134999 0.750000 0.599999 10.134999 1.000000 0.000000 10.134999 1.000000 0.149999 10.134999 1.000000 0.599999 10.134999 15.000000 0.000000 10.134999 15.000000 0.149999 10.134999 15.000000 0.599999 10.134999 15.250000 0.199999 10.134999 15.250000 0.599999 10.134999 16.000000 0.000000 10.134999 16.000000 0.199999 10.365000 0.000000 0.000000 10.365000 0.000000 0.199999 10.365000 0.750000 0.199999 10.365000 0.750000 0.599999 10.365000 1.000000 0.000000 10.365000 1.000000 0.149999 10.365000 1.000000 0.599999 10.365000 15.000000 0.000000 10.365000 15.000000 0.149999 10.365000 15.000000 0.599999 10.365000 15.250000 0.199999 10.365000 15.250000 0.599999 10.365000 16.000000 0.000000 10.365000 16.000000 0.199999 10.634999 0.000000 0.000000 10.634999 0.000000 0.199999 10.634999 0.750000 0.199999 10.634999 0.750000 0.599999 10.634999 1.000000 0.000000 10.634999 1.000000 0.149999 10.634999 1.000000 0.599999 10.634999 15.000000 0.000000 10.634999 15.000000 0.149999 10.634999 15.000000 0.599999 10.634999 15.250000 0.199999 10.634999 15.250000 0.599999 10.634999 16.000000 0.000000 10.634999 16.000000 0.199999 10.865000 0.000000 0.000000 10.865000 0.000000 0.199999 10.865000 0.750000 0.199999 10.865000 0.750000 0.599999 10.865000 1.000000 0.000000 10.865000 1.000000 0.149999 10.865000 1.000000 0.599999 10.865000 15.000000 0.000000 10.865000 15.000000 0.149999 10.865000 15.000000 0.599999 10.865000 15.250000 0.199999 10.865000 15.250000 0.599999 10.865000 16.000000 0.000000 10.865000 16.000000 0.199999 11.134999 0.000000 0.000000 11.134999 0.000000 0.199999 11.134999 0.750000 0.199999 11.134999 0.750000 0.599999 11.134999 1.000000 0.000000 11.134999 1.000000 0.149999 11.134999 1.000000 0.599999 11.134999 15.000000 0.000000 11.134999 15.000000 0.149999 11.134999 15.000000 0.599999 11.134999 15.250000 0.199999 11.134999 15.250000 0.599999 11.134999 16.000000 0.000000 11.134999 16.000000 0.199999 11.365000 0.000000 0.000000 11.365000 0.000000 0.199999 11.365000 0.750000 0.199999 11.365000 0.750000 0.599999 11.365000 1.000000 0.000000 11.365000 1.000000 0.149999 11.365000 1.000000 0.599999 11.365000 15.000000 0.000000 11.365000 15.000000 0.149999 11.365000 15.000000 0.599999 11.365000 15.250000 0.199999 11.365000 15.250000 0.599999 11.365000 16.000000 0.000000 11.365000 16.000000 0.199999 11.634999 0.000000 0.000000 11.634999 0.000000 0.199999 11.634999 0.750000 0.199999 11.634999 0.750000 0.599999 11.634999 1.000000 0.000000 11.634999 1.000000 0.149999 11.634999 1.000000 0.599999 11.634999 15.000000 0.000000 11.634999 15.000000 0.149999 11.634999 15.000000 0.599999 11.634999 15.250000 0.199999 11.634999 15.250000 0.599999 11.634999 16.000000 0.000000 11.634999 16.000000 0.199999 11.865000 0.000000 0.000000 11.865000 0.000000 0.199999 11.865000 0.750000 0.199999 11.865000 0.750000 0.599999 11.865000 1.000000 0.000000 11.865000 1.000000 0.149999 11.865000 1.000000 0.599999 11.865000 15.000000 0.000000 11.865000 15.000000 0.149999 11.865000 15.000000 0.599999 11.865000 15.250000 0.199999 11.865000 15.250000 0.599999 11.865000 16.000000 0.000000 11.865000 16.000000 0.199999 12.134999 0.000000 0.000000 12.134999 0.000000 0.199999 12.134999 0.750000 0.199999 12.134999 0.750000 0.599999 12.134999 1.000000 0.000000 12.134999 1.000000 0.149999 12.134999 1.000000 0.599999 12.134999 15.000000 0.000000 12.134999 15.000000 0.149999 12.134999 15.000000 0.599999 12.134999 15.250000 0.199999 12.134999 15.250000 0.599999 12.134999 16.000000 0.000000 12.134999 16.000000 0.199999 12.365000 0.000000 0.000000 12.365000 0.000000 0.199999 12.365000 0.750000 0.199999 12.365000 0.750000 0.599999 12.365000 1.000000 0.000000 12.365000 1.000000 0.149999 12.365000 1.000000 0.599999 12.365000 15.000000 0.000000 12.365000 15.000000 0.149999 12.365000 15.000000 0.599999 12.365000 15.250000 0.199999 12.365000 15.250000 0.599999 12.365000 16.000000 0.000000 12.365000 16.000000 0.199999 12.634999 0.000000 0.000000 12.634999 0.000000 0.199999 12.634999 0.750000 0.199999 12.634999 0.750000 0.599999 12.634999 1.000000 0.000000 12.634999 1.000000 0.149999 12.634999 1.000000 0.599999 12.634999 15.000000 0.000000 12.634999 15.000000 0.149999 12.634999 15.000000 0.599999 12.634999 15.250000 0.199999 12.634999 15.250000 0.599999 12.634999 16.000000 0.000000 12.634999 16.000000 0.199999 12.865000 0.000000 0.000000 12.865000 0.000000 0.199999 12.865000 0.750000 0.199999 12.865000 0.750000 0.599999 12.865000 1.000000 0.000000 12.865000 1.000000 0.149999 12.865000 1.000000 0.599999 12.865000 15.000000 0.000000 12.865000 15.000000 0.149999 12.865000 15.000000 0.599999 12.865000 15.250000 0.199999 12.865000 15.250000 0.599999 12.865000 16.000000 0.000000 12.865000 16.000000 0.199999 13.134999 0.000000 0.000000 13.134999 0.000000 0.199999 13.134999 0.750000 0.199999 13.134999 0.750000 0.599999 13.134999 1.000000 0.000000 13.134999 1.000000 0.149999 13.134999 1.000000 0.599999 13.134999 15.000000 0.000000 13.134999 15.000000 0.149999 13.134999 15.000000 0.599999 13.134999 15.250000 0.199999 13.134999 15.250000 0.599999 13.134999 16.000000 0.000000 13.134999 16.000000 0.199999 13.365000 0.000000 0.000000 13.365000 0.000000 0.199999 13.365000 0.750000 0.199999 13.365000 0.750000 0.599999 13.365000 1.000000 0.000000 13.365000 1.000000 0.149999 13.365000 1.000000 0.599999 13.365000 15.000000 0.000000 13.365000 15.000000 0.149999 13.365000 15.000000 0.599999 13.365000 15.250000 0.199999 13.365000 15.250000 0.599999 13.365000 16.000000 0.000000 13.365000 16.000000 0.199999 13.634999 0.000000 0.000000 13.634999 0.000000 0.199999 13.634999 0.750000 0.199999 13.634999 0.750000 0.599999 13.634999 1.000000 0.000000 13.634999 1.000000 0.149999 13.634999 1.000000 0.599999 13.634999 15.000000 0.000000 13.634999 15.000000 0.149999 13.634999 15.000000 0.599999 13.634999 15.250000 0.199999 13.634999 15.250000 0.599999 13.634999 16.000000 0.000000 13.634999 16.000000 0.199999 13.865000 0.000000 0.000000 13.865000 0.000000 0.199999 13.865000 0.750000 0.199999 13.865000 0.750000 0.599999 13.865000 1.000000 0.000000 13.865000 1.000000 0.149999 13.865000 1.000000 0.599999 13.865000 15.000000 0.000000 13.865000 15.000000 0.149999 13.865000 15.000000 0.599999 13.865000 15.250000 0.199999 13.865000 15.250000 0.599999 13.865000 16.000000 0.000000 13.865000 16.000000 0.199999 14.134999 0.000000 0.000000 14.134999 0.000000 0.199999 14.134999 0.750000 0.199999 14.134999 0.750000 0.599999 14.134999 1.000000 0.000000 14.134999 1.000000 0.149999 14.134999 1.000000 0.599999 14.134999 15.000000 0.000000 14.134999 15.000000 0.149999 14.134999 15.000000 0.599999 14.134999 15.250000 0.199999 14.134999 15.250000 0.599999 14.134999 16.000000 0.000000 14.134999 16.000000 0.199999 15.000000 1.000000 0.149999 15.000000 1.000000 1.199999 15.000000 1.865000 0.000000 15.000000 1.865000 0.149999 15.000000 1.865000 0.599999 15.000000 2.134999 0.000000 15.000000 2.134999 0.149999 15.000000 2.134999 0.599999 15.000000 2.365000 0.000000 15.000000 2.365000 0.149999 15.000000 2.365000 0.599999 15.000000 2.634999 0.000000 15.000000 2.634999 0.149999 15.000000 2.634999 0.599999 15.000000 2.865000 0.000000 15.000000 2.865000 0.149999 15.000000 2.865000 0.599999 15.000000 3.134999 0.000000 15.000000 3.134999 0.149999 15.000000 3.134999 0.599999 15.000000 3.365000 0.000000 15.000000 3.365000 0.149999 15.000000 3.365000 0.599999 15.000000 3.634999 0.000000 15.000000 3.634999 0.149999 15.000000 3.634999 0.599999 15.000000 3.865000 0.000000 15.000000 3.865000 0.149999 15.000000 3.865000 0.599999 15.000000 4.134999 0.000000 15.000000 4.134999 0.149999 15.000000 4.134999 0.599999 15.000000 4.365000 0.000000 15.000000 4.365000 0.149999 15.000000 4.365000 0.599999 15.000000 4.634999 0.000000 15.000000 4.634999 0.149999 15.000000 4.634999 0.599999 15.000000 4.865000 0.000000 15.000000 4.865000 0.149999 15.000000 4.865000 0.599999 15.000000 5.134999 0.000000 15.000000 5.134999 0.149999 15.000000 5.134999 0.599999 15.000000 5.365000 0.000000 15.000000 5.365000 0.149999 15.000000 5.365000 0.599999 15.000000 5.634999 0.000000 15.000000 5.634999 0.149999 15.000000 5.634999 0.599999 15.000000 5.865000 0.000000 15.000000 5.865000 0.149999 15.000000 5.865000 0.599999 15.000000 6.134999 0.000000 15.000000 6.134999 0.149999 15.000000 6.134999 0.599999 15.000000 6.365000 0.000000 15.000000 6.365000 0.149999 15.000000 6.365000 0.599999 15.000000 6.634999 0.000000 15.000000 6.634999 0.149999 15.000000 6.634999 0.599999 15.000000 6.865000 0.000000 15.000000 6.865000 0.149999 15.000000 6.865000 0.599999 15.000000 7.134999 0.000000 15.000000 7.134999 0.149999 15.000000 7.134999 0.599999 15.000000 7.365000 0.000000 15.000000 7.365000 0.149999 15.000000 7.365000 0.599999 15.000000 7.634999 0.000000 15.000000 7.634999 0.149999 15.000000 7.634999 0.599999 15.000000 7.865000 0.000000 15.000000 7.865000 0.149999 15.000000 7.865000 0.599999 15.000000 8.134999 0.000000 15.000000 8.134999 0.149999 15.000000 8.134999 0.599999 15.000000 8.365000 0.000000 15.000000 8.365000 0.149999 15.000000 8.365000 0.599999 15.000000 8.634999 0.000000 15.000000 8.634999 0.149999 15.000000 8.634999 0.599999 15.000000 8.865000 0.000000 15.000000 8.865000 0.149999 15.000000 8.865000 0.599999 15.000000 9.134999 0.000000 15.000000 9.134999 0.149999 15.000000 9.134999 0.599999 15.000000 9.365000 0.000000 15.000000 9.365000 0.149999 15.000000 9.365000 0.599999 15.000000 9.634999 0.000000 15.000000 9.634999 0.149999 15.000000 9.634999 0.599999 15.000000 9.865000 0.000000 15.000000 9.865000 0.149999 15.000000 9.865000 0.599999 15.000000 10.134999 0.000000 15.000000 10.134999 0.149999 15.000000 10.134999 0.599999 15.000000 10.365000 0.000000 15.000000 10.365000 0.149999 15.000000 10.365000 0.599999 15.000000 10.634999 0.000000 15.000000 10.634999 0.149999 15.000000 10.634999 0.599999 15.000000 10.865000 0.000000 15.000000 10.865000 0.149999 15.000000 10.865000 0.599999 15.000000 11.134999 0.000000 15.000000 11.134999 0.149999 15.000000 11.134999 0.599999 15.000000 11.365000 0.000000 15.000000 11.365000 0.149999 15.000000 11.365000 0.599999 15.000000 11.634999 0.000000 15.000000 11.634999 0.149999 15.000000 11.634999 0.599999 15.000000 11.865000 0.000000 15.000000 11.865000 0.149999 15.000000 11.865000 0.599999 15.000000 12.134999 0.000000 15.000000 12.134999 0.149999 15.000000 12.134999 0.599999 15.000000 12.365000 0.000000 15.000000 12.365000 0.149999 15.000000 12.365000 0.599999 15.000000 12.634999 0.000000 15.000000 12.634999 0.149999 15.000000 12.634999 0.599999 15.000000 12.865000 0.000000 15.000000 12.865000 0.149999 15.000000 12.865000 0.599999 15.000000 13.134999 0.000000 15.000000 13.134999 0.149999 15.000000 13.134999 0.599999 15.000000 13.365000 0.000000 15.000000 13.365000 0.149999 15.000000 13.365000 0.599999 15.000000 13.634999 0.000000 15.000000 13.634999 0.149999 15.000000 13.634999 0.599999 15.000000 13.865000 0.000000 15.000000 13.865000 0.149999 15.000000 13.865000 0.599999 15.000000 14.134999 0.000000 15.000000 14.134999 0.149999 15.000000 14.134999 0.599999 15.000000 15.000000 0.149999 15.000000 15.000000 1.199999 15.250000 1.865000 0.199999 15.250000 1.865000 0.599999 15.250000 2.134999 0.199999 15.250000 2.134999 0.599999 15.250000 2.365000 0.199999 15.250000 2.365000 0.599999 15.250000 2.634999 0.199999 15.250000 2.634999 0.599999 15.250000 2.865000 0.199999 15.250000 2.865000 0.599999 15.250000 3.134999 0.199999 15.250000 3.134999 0.599999 15.250000 3.365000 0.199999 15.250000 3.365000 0.599999 15.250000 3.634999 0.199999 15.250000 3.634999 0.599999 15.250000 3.865000 0.199999 15.250000 3.865000 0.599999 15.250000 4.134999 0.199999 15.250000 4.134999 0.599999 15.250000 4.365000 0.199999 15.250000 4.365000 0.599999 15.250000 4.634999 0.199999 15.250000 4.634999 0.599999 15.250000 4.865000 0.199999 15.250000 4.865000 0.599999 15.250000 5.134999 0.199999 15.250000 5.134999 0.599999 15.250000 5.365000 0.199999 15.250000 5.365000 0.599999 15.250000 5.634999 0.199999 15.250000 5.634999 0.599999 15.250000 5.865000 0.199999 15.250000 5.865000 0.599999 15.250000 6.134999 0.199999 15.250000 6.134999 0.599999 15.250000 6.365000 0.199999 15.250000 6.365000 0.599999 15.250000 6.634999 0.199999 15.250000 6.634999 0.599999 15.250000 6.865000 0.199999 15.250000 6.865000 0.599999 15.250000 7.134999 0.199999 15.250000 7.134999 0.599999 15.250000 7.365000 0.199999 15.250000 7.365000 0.599999 15.250000 7.634999 0.199999 15.250000 7.634999 0.599999 15.250000 7.865000 0.199999 15.250000 7.865000 0.599999 15.250000 8.134999 0.199999 15.250000 8.134999 0.599999 15.250000 8.365000 0.199999 15.250000 8.365000 0.599999 15.250000 8.634999 0.199999 15.250000 8.634999 0.599999 15.250000 8.865000 0.199999 15.250000 8.865000 0.599999 15.250000 9.134999 0.199999 15.250000 9.134999 0.599999 15.250000 9.365000 0.199999 15.250000 9.365000 0.599999 15.250000 9.634999 0.199999 15.250000 9.634999 0.599999 15.250000 9.865000 0.199999 15.250000 9.865000 0.599999 15.250000 10.134999 0.199999 15.250000 10.134999 0.599999 15.250000 10.365000 0.199999 15.250000 10.365000 0.599999 15.250000 10.634999 0.199999 15.250000 10.634999 0.599999 15.250000 10.865000 0.199999 15.250000 10.865000 0.599999 15.250000 11.134999 0.199999 15.250000 11.134999 0.599999 15.250000 11.365000 0.199999 15.250000 11.365000 0.599999 15.250000 11.634999 0.199999 15.250000 11.634999 0.599999 15.250000 11.865000 0.199999 15.250000 11.865000 0.599999 15.250000 12.134999 0.199999 15.250000 12.134999 0.599999 15.250000 12.365000 0.199999 15.250000 12.365000 0.599999 15.250000 12.634999 0.199999 15.250000 12.634999 0.599999 15.250000 12.865000 0.199999 15.250000 12.865000 0.599999 15.250000 13.134999 0.199999 15.250000 13.134999 0.599999 15.250000 13.365000 0.199999 15.250000 13.365000 0.599999 15.250000 13.634999 0.199999 15.250000 13.634999 0.599999 15.250000 13.865000 0.199999 15.250000 13.865000 0.599999 15.250000 14.134999 0.199999 15.250000 14.134999 0.599999 16.000000 1.865000 0.000000 16.000000 1.865000 0.199999 16.000000 2.134999 0.000000 16.000000 2.134999 0.199999 16.000000 2.365000 0.000000 16.000000 2.365000 0.199999 16.000000 2.634999 0.000000 16.000000 2.634999 0.199999 16.000000 2.865000 0.000000 16.000000 2.865000 0.199999 16.000000 3.134999 0.000000 16.000000 3.134999 0.199999 16.000000 3.365000 0.000000 16.000000 3.365000 0.199999 16.000000 3.634999 0.000000 16.000000 3.634999 0.199999 16.000000 3.865000 0.000000 16.000000 3.865000 0.199999 16.000000 4.134999 0.000000 16.000000 4.134999 0.199999 16.000000 4.365000 0.000000 16.000000 4.365000 0.199999 16.000000 4.634999 0.000000 16.000000 4.634999 0.199999 16.000000 4.865000 0.000000 16.000000 4.865000 0.199999 16.000000 5.134999 0.000000 16.000000 5.134999 0.199999 16.000000 5.365000 0.000000 16.000000 5.365000 0.199999 16.000000 5.634999 0.000000 16.000000 5.634999 0.199999 16.000000 5.865000 0.000000 16.000000 5.865000 0.199999 16.000000 6.134999 0.000000 16.000000 6.134999 0.199999 16.000000 6.365000 0.000000 16.000000 6.365000 0.199999 16.000000 6.634999 0.000000 16.000000 6.634999 0.199999 16.000000 6.865000 0.000000 16.000000 6.865000 0.199999 16.000000 7.134999 0.000000 16.000000 7.134999 0.199999 16.000000 7.365000 0.000000 16.000000 7.365000 0.199999 16.000000 7.634999 0.000000 16.000000 7.634999 0.199999 16.000000 7.865000 0.000000 16.000000 7.865000 0.199999 16.000000 8.134999 0.000000 16.000000 8.134999 0.199999 16.000000 8.365000 0.000000 16.000000 8.365000 0.199999 16.000000 8.634999 0.000000 16.000000 8.634999 0.199999 16.000000 8.865000 0.000000 16.000000 8.865000 0.199999 16.000000 9.134999 0.000000 16.000000 9.134999 0.199999 16.000000 9.365000 0.000000 16.000000 9.365000 0.199999 16.000000 9.634999 0.000000 16.000000 9.634999 0.199999 16.000000 9.865000 0.000000 16.000000 9.865000 0.199999 16.000000 10.134999 0.000000 16.000000 10.134999 0.199999 16.000000 10.365000 0.000000 16.000000 10.365000 0.199999 16.000000 10.634999 0.000000 16.000000 10.634999 0.199999 16.000000 10.865000 0.000000 16.000000 10.865000 0.199999 16.000000 11.134999 0.000000 16.000000 11.134999 0.199999 16.000000 11.365000 0.000000 16.000000 11.365000 0.199999 16.000000 11.634999 0.000000 16.000000 11.634999 0.199999 16.000000 11.865000 0.000000 16.000000 11.865000 0.199999 16.000000 12.134999 0.000000 16.000000 12.134999 0.199999 16.000000 12.365000 0.000000 16.000000 12.365000 0.199999 16.000000 12.634999 0.000000 16.000000 12.634999 0.199999 16.000000 12.865000 0.000000 16.000000 12.865000 0.199999 16.000000 13.134999 0.000000 16.000000 13.134999 0.199999 16.000000 13.365000 0.000000 16.000000 13.365000 0.199999 16.000000 13.634999 0.000000 16.000000 13.634999 0.199999 16.000000 13.865000 0.000000 16.000000 13.865000 0.199999 16.000000 14.134999 0.000000 16.000000 14.134999 0.199999 "
							            />
						</IndexedFaceSet>
					</Shape>
				</Group>
			</Transform>
		</Transform>
	</Scene>
</X3D>